<svg xmlns="http://www.w3.org/2000/svg" width="512" height="512" viewBox="0 0 512 512" aria-hidden="true" focusable="false"><path fill="currentColor" fill-rule="evenodd" clip-rule="evenodd" d="M259 493 L256 491 L254 495 L257 495 Z M255 481 L254 484 L257 486 L259 482 Z M235 429 L216 435 L191 434 L191 436 L218 437 L228 434 L234 431 Z M277 428 L281 432 L295 437 L323 436 L323 434 L298 435 L289 433 Z M317 378 L315 378 L313 386 L315 386 Z M298 335 L296 335 L292 344 L294 344 Z M407 305 L405 305 L404 308 L406 308 Z M379 304 L378 303 L373 305 L358 305 L359 307 L373 307 Z M148 281 L149 283 L163 283 L164 284 L166 283 L165 281 Z M308 194 L308 196 L312 198 L317 196 L317 194 L315 194 L314 192 Z M271 175 L270 181 L264 184 L269 185 L271 187 L271 192 L273 192 L273 187 L275 185 L280 185 L280 183 L276 183 L273 180 L273 175 Z M358 167 L358 172 L360 172 L360 167 Z M153 167 L153 172 L155 172 L155 167 Z M160 153 L157 156 L160 156 Z M294 149 L293 156 L286 160 L291 161 L294 164 L294 170 L296 170 L297 163 L300 161 L304 161 L304 159 L298 157 L296 153 L296 149 Z M330 121 L330 123 L333 124 L333 121 Z M180 121 L180 124 L182 124 L183 121 Z M310 104 L310 106 L313 107 L313 105 Z M220 92 L220 95 L222 95 L223 92 Z M232 85 L231 87 L234 88 L235 85 Z M256 48 L248 61 L248 67 L249 70 L257 76 L264 70 L265 61 Z M256 53 L258 54 L262 62 L262 67 L257 72 L254 71 L251 67 L251 61 Z M256 17 L233 59 L235 68 L177 105 L151 136 L139 176 L129 169 L126 192 L98 226 L86 253 L82 277 L86 309 L72 304 L87 361 L105 381 L129 391 L110 408 L123 411 L149 428 L170 430 L168 446 L221 445 L238 436 L249 421 L254 422 L247 436 L253 436 L251 450 L243 455 L238 449 L245 447 L239 444 L236 452 L258 475 L277 452 L274 444 L268 447 L275 449 L271 455 L262 450 L260 437 L266 439 L259 422 L264 421 L274 435 L289 444 L345 446 L343 430 L364 428 L390 411 L403 408 L384 391 L405 383 L422 367 L441 301 L427 309 L427 254 L414 225 L388 194 L384 169 L374 176 L363 138 L334 103 L279 68 L280 59 Z M256 446 L258 447 L262 455 L266 458 L265 462 L261 464 L261 466 L257 470 L253 467 L253 464 L250 464 L248 462 L247 459 L251 455 Z M256 428 L259 431 L257 437 L255 436 L254 433 Z M264 414 L267 412 L269 413 L268 416 L265 416 Z M244 413 L246 412 L249 415 L245 416 Z M269 422 L277 417 L293 417 L308 411 L315 412 L326 417 L335 426 L340 437 L337 438 L332 436 L331 439 L313 442 L296 442 L282 437 L271 427 Z M173 437 L178 426 L187 417 L202 411 L220 417 L237 417 L242 419 L244 422 L241 428 L234 435 L218 442 L199 442 Z M320 403 L321 400 L324 401 L322 404 Z M396 403 L394 406 L386 409 L370 421 L354 427 L346 427 L337 424 L336 421 L337 420 L353 421 L361 419 L361 417 L354 419 L341 419 L332 417 L320 410 L321 408 L334 410 L344 410 L354 408 L362 405 L376 395 L386 397 Z M117 403 L127 397 L137 395 L151 405 L159 408 L169 410 L181 410 L192 408 L193 410 L181 417 L173 419 L159 419 L152 417 L152 419 L160 421 L175 420 L177 421 L176 424 L168 427 L159 427 L141 420 L127 409 L119 406 Z M256 389 L262 395 L262 401 L259 403 L259 406 L261 406 L263 410 L257 417 L251 412 L251 408 L254 407 L254 403 L251 401 L251 396 Z M256 366 L258 367 L260 372 L267 380 L272 390 L273 399 L271 405 L267 409 L261 406 L261 404 L265 400 L265 397 L263 392 L260 390 L257 384 L254 386 L253 390 L251 391 L248 397 L249 402 L252 404 L251 407 L246 409 L243 406 L240 399 L240 394 L244 383 L253 372 Z M287 366 L289 365 L290 367 L288 368 Z M221 364 L222 363 L225 364 L226 367 L224 368 Z M401 360 L394 366 L380 387 L369 397 L355 405 L346 407 L334 406 L336 403 L340 404 L342 402 L356 398 L354 396 L341 402 L332 402 L341 390 L354 378 L359 368 L365 363 L374 359 L385 357 L398 358 Z M113 360 L115 358 L129 357 L148 363 L155 369 L158 376 L172 390 L181 402 L172 402 L157 395 L155 397 L172 404 L177 404 L178 406 L167 407 L150 401 L133 387 L119 366 Z M328 351 L327 375 L325 377 L324 385 L320 395 L309 407 L302 411 L295 413 L293 412 L308 399 L307 397 L297 406 L289 410 L288 407 L294 394 L294 383 L291 372 L304 360 Z M185 351 L211 361 L221 370 L222 375 L219 383 L219 394 L221 401 L226 408 L225 410 L215 406 L208 399 L207 401 L220 411 L219 413 L214 412 L204 407 L195 398 L190 388 L188 376 L186 374 Z M271 349 L273 348 L274 350 L272 351 Z M348 344 L349 348 L347 353 L344 377 L339 387 L333 395 L327 400 L325 400 L323 395 L329 383 L328 380 L330 378 L331 356 L337 349 Z M165 344 L175 348 L182 356 L183 378 L185 380 L184 383 L193 400 L192 403 L187 401 L176 390 L171 381 L168 372 L167 356 L164 346 Z M360 339 L361 344 L359 359 L353 373 L349 376 L348 372 L350 365 L351 351 L354 347 L354 344 L356 343 L358 339 Z M256 339 L280 363 L290 380 L291 391 L288 402 L274 415 L269 411 L273 407 L276 399 L275 389 L257 359 L238 389 L238 402 L244 412 L241 415 L234 412 L227 405 L223 396 L222 387 L226 373 Z M152 329 L155 331 L169 334 L177 341 L183 344 L182 346 L178 346 L169 341 L161 338 L157 338 L157 341 L159 342 L160 347 L162 348 L164 368 L166 375 L165 377 L160 372 L154 357 L153 335 L151 331 Z M125 322 L128 323 L130 329 L130 334 L128 335 L127 344 L124 343 L124 338 L122 337 L122 330 Z M124 315 L126 314 L127 316 L125 317 Z M431 313 L432 317 L430 322 L428 341 L421 363 L408 377 L394 385 L387 387 L386 384 L395 371 L403 363 L410 360 L408 357 L393 353 L398 339 L413 323 Z M131 295 L135 295 L148 313 L157 323 L155 326 L146 324 L150 339 L151 354 L150 360 L138 355 L123 354 L121 351 L122 347 L128 348 L135 345 L133 338 L133 329 L130 321 L130 306 L128 303 Z M141 291 L158 294 L177 302 L222 326 L250 337 L250 342 L241 351 L221 345 L221 347 L237 353 L231 361 L209 355 L172 332 L153 313 L143 298 L145 297 L169 311 L171 309 Z M131 277 L127 284 L123 283 L119 284 L117 281 L118 279 L126 276 Z M134 282 L184 252 L240 246 L273 253 L297 264 L300 260 L329 266 L355 278 L381 298 L386 295 L397 300 L363 317 L327 327 L296 349 L332 328 L371 316 L359 325 L368 326 L352 339 L299 359 L280 359 L276 355 L279 351 L263 341 L259 333 L251 336 L172 297 L137 287 Z M249 233 L250 236 L245 238 L244 236 L247 233 Z M231 228 L233 227 L234 229 L232 230 Z M217 215 L220 216 L218 222 L216 221 Z M201 194 L203 193 L204 195 L202 196 Z M213 191 L214 196 L210 197 L206 201 L205 200 L206 196 L209 195 L209 193 Z M135 182 L145 200 L147 219 L140 231 L132 232 L127 227 L127 221 L131 217 L133 221 L135 221 L135 216 L133 214 L128 214 L124 221 L110 235 L102 250 L96 273 L96 295 L102 317 L98 319 L90 312 L86 294 L88 258 L100 230 L128 196 Z M200 176 L202 175 L203 177 L201 178 Z M208 168 L210 169 L211 172 L210 177 L204 173 Z M225 118 L237 112 L240 113 L224 132 L218 153 L220 175 L231 200 L247 217 L275 230 L301 230 L324 220 L322 226 L310 238 L298 245 L281 250 L257 246 L256 243 L261 240 L274 243 L274 241 L262 237 L255 238 L250 227 L242 219 L234 217 L232 213 L220 211 L221 205 L226 208 L223 200 L215 211 L209 204 L210 201 L217 202 L219 199 L215 182 L207 191 L202 183 L203 180 L210 180 L214 177 L213 165 L208 156 L211 144 L203 157 L206 167 L200 167 L197 176 L199 199 L203 208 L214 216 L213 221 L216 225 L222 225 L224 219 L230 221 L230 224 L224 228 L227 234 L233 234 L236 231 L233 224 L235 220 L241 222 L246 228 L240 237 L251 243 L234 243 L226 239 L205 219 L194 195 L193 164 L205 136 Z M240 111 L242 110 L243 112 L241 113 Z M257 28 L274 60 L269 74 L279 71 L328 102 L360 139 L371 175 L363 207 L364 224 L374 235 L382 235 L389 228 L384 214 L378 216 L378 221 L381 217 L386 221 L381 232 L373 231 L366 219 L369 197 L379 181 L423 252 L427 272 L423 311 L411 318 L417 293 L416 268 L406 240 L393 225 L413 267 L412 308 L391 353 L363 358 L366 333 L403 299 L375 290 L337 265 L287 254 L317 237 L331 220 L338 201 L317 220 L287 228 L262 222 L235 199 L222 168 L225 138 L242 116 L269 106 L246 105 L226 113 L204 132 L189 168 L189 188 L197 213 L221 242 L179 250 L140 272 L123 273 L111 280 L122 291 L124 302 L119 337 L115 338 L120 353 L103 360 L118 371 L127 385 L117 384 L92 363 L81 318 L84 313 L112 334 L99 299 L104 253 L122 226 L131 235 L138 235 L149 224 L150 207 L142 175 L158 131 L184 103 L236 70 L244 74 L239 60 Z"/></svg>
