<svg xmlns="http://www.w3.org/2000/svg" width="512" height="512" viewBox="0 0 512 512" aria-hidden="true" focusable="false"><path fill="currentColor" fill-rule="evenodd" clip-rule="evenodd" d="M252 334 L249 337 L250 346 L253 348 L261 347 L264 342 L263 336 L259 333 Z M255 303 L244 324 L234 333 L220 338 L218 342 L238 351 L250 365 L253 377 L257 379 L266 360 L277 349 L293 343 L294 339 L277 332 L263 317 L259 304 Z M255 318 L259 320 L260 324 L266 330 L267 335 L270 334 L278 340 L260 357 L257 362 L254 361 L250 354 L243 347 L234 341 L238 337 L243 337 L243 334 L250 327 Z M178 131 L177 138 L174 141 L167 143 L166 147 L173 149 L177 153 L178 159 L181 161 L184 153 L190 148 L193 148 L195 144 L186 141 L184 139 L183 132 Z M389 120 L343 119 L340 126 L341 332 L331 346 L327 370 L359 367 L375 375 L356 391 L353 376 L312 384 L324 359 L327 337 L332 335 L332 168 L285 166 L285 273 L289 273 L289 175 L326 177 L329 330 L325 331 L322 314 L309 293 L297 282 L272 271 L274 207 L227 206 L225 273 L231 271 L232 212 L267 213 L268 269 L235 272 L216 282 L215 240 L169 241 L169 357 L175 357 L175 247 L209 247 L209 284 L186 328 L189 360 L185 363 L152 360 L137 365 L133 372 L116 366 L120 361 L121 275 L154 276 L154 357 L160 357 L160 269 L112 271 L113 362 L105 366 L116 398 L131 421 L114 422 L103 414 L111 404 L111 394 L102 384 L81 386 L65 379 L84 426 L92 434 L114 441 L109 450 L120 451 L156 470 L192 466 L207 479 L228 477 L257 496 L264 487 L284 477 L305 479 L321 465 L335 470 L366 467 L390 452 L403 450 L398 439 L412 438 L425 430 L448 380 L433 386 L411 384 L400 394 L406 362 L384 371 L373 364 L387 357 L390 350 L390 359 L423 350 L443 330 L448 310 L443 309 L448 279 L440 252 L442 243 L428 241 L438 223 L428 177 L422 180 L415 201 L403 210 L399 222 L390 223 Z M226 458 L231 453 L235 453 L240 456 L246 456 L251 460 L253 466 L257 468 L265 456 L272 456 L277 453 L282 453 L285 456 L287 464 L281 472 L263 480 L256 485 L251 481 L229 470 L226 466 Z M290 452 L291 451 L302 452 L305 456 L307 456 L310 460 L312 460 L314 464 L311 468 L306 471 L292 472 L291 470 L293 468 L294 460 Z M198 462 L203 458 L205 458 L212 451 L222 452 L219 457 L219 467 L221 470 L220 473 L206 471 L198 464 Z M255 435 L257 435 L263 443 L263 448 L257 456 L250 449 L250 442 Z M390 444 L374 454 L372 457 L354 463 L337 463 L328 461 L317 456 L311 451 L312 449 L326 445 L337 437 L350 439 L359 448 L362 448 L362 442 L351 432 L352 430 L366 428 L377 432 Z M125 442 L137 431 L152 428 L160 430 L161 433 L157 435 L149 444 L149 448 L151 449 L164 438 L175 437 L186 445 L200 449 L201 451 L194 457 L185 461 L176 463 L159 463 L142 458 L137 453 L127 448 Z M424 407 L425 417 L423 422 L417 428 L408 431 L407 433 L400 434 L389 433 L385 430 L386 428 L399 428 L405 426 L414 418 L416 414 L416 410 L419 407 L419 405 L421 404 Z M88 407 L91 404 L93 405 L93 408 L96 411 L98 418 L104 424 L113 428 L126 428 L127 430 L124 433 L106 433 L105 431 L97 429 L89 422 L87 418 Z M290 402 L291 405 L287 408 L285 405 Z M221 403 L223 402 L227 406 L224 408 Z M400 396 L401 403 L403 407 L408 410 L409 414 L404 419 L398 422 L392 423 L383 422 L382 416 L390 408 L396 397 Z M255 393 L273 404 L283 414 L286 420 L286 437 L283 442 L275 448 L270 448 L269 440 L260 428 L258 422 L254 422 L251 430 L243 441 L242 448 L233 446 L226 436 L225 426 L231 411 Z M408 396 L413 391 L416 390 L435 394 L434 400 L431 404 L425 399 L420 399 L418 404 L410 405 L408 401 Z M77 393 L78 392 L85 393 L92 390 L97 390 L103 394 L104 402 L101 405 L97 403 L94 404 L92 399 L88 399 L83 403 L81 403 L78 399 Z M167 385 L179 386 L197 392 L206 397 L216 407 L220 416 L218 424 L218 434 L222 441 L220 444 L206 437 L198 429 L185 404 L182 405 L185 420 L199 440 L195 441 L186 437 L171 424 L164 411 L163 396 Z M346 384 L349 407 L341 424 L323 439 L312 441 L329 416 L330 405 L326 405 L315 428 L305 438 L291 445 L290 442 L294 435 L294 422 L292 417 L299 404 L317 391 Z M395 374 L396 379 L394 381 L389 397 L384 405 L371 417 L363 420 L362 422 L351 424 L350 422 L354 414 L355 405 L360 396 L364 393 L364 391 L373 383 Z M117 374 L122 375 L141 384 L151 394 L157 405 L158 413 L162 422 L161 424 L151 422 L143 418 L130 407 L125 400 L119 383 L117 381 L116 377 Z M138 373 L142 370 L154 367 L173 367 L189 372 L189 369 L191 368 L198 382 L195 384 L192 382 L170 379 L160 376 L158 378 L159 389 L156 390 L145 379 L140 377 Z M188 366 L190 365 L191 367 L189 368 Z M362 359 L364 358 L365 360 L363 361 Z M382 347 L382 349 L371 357 L369 356 L369 354 L373 350 L375 350 L380 346 Z M341 328 L344 325 L346 326 L344 329 Z M362 322 L368 332 L367 347 L360 354 L352 359 L339 361 L337 358 L337 350 L341 341 L343 339 L350 340 L350 334 Z M247 289 L281 294 L298 309 L307 328 L308 347 L303 363 L289 381 L268 391 L257 384 L244 391 L223 381 L209 364 L204 337 L210 315 L228 296 Z M214 280 L215 283 L211 285 L210 283 Z M232 281 L251 277 L264 277 L280 281 L295 290 L306 301 L317 320 L320 340 L315 365 L308 377 L298 388 L279 400 L277 399 L277 394 L295 382 L306 369 L313 344 L312 328 L307 313 L298 301 L284 290 L264 283 L243 284 L221 295 L211 305 L204 316 L200 331 L202 359 L213 378 L224 388 L238 395 L234 400 L213 387 L197 365 L193 349 L193 330 L196 318 L207 300 L216 291 Z M402 271 L408 275 L414 283 L416 293 L415 305 L411 317 L401 332 L390 343 L386 345 L384 342 L398 328 L407 312 L409 305 L408 290 L403 284 L401 277 L394 274 L396 271 Z M268 269 L271 268 L272 270 L269 271 Z M425 198 L431 210 L432 222 L423 235 L424 250 L419 253 L414 249 L414 230 L411 230 L407 237 L407 247 L410 254 L419 261 L419 265 L424 263 L431 252 L435 255 L442 289 L437 305 L422 321 L437 318 L439 321 L434 331 L415 347 L395 351 L394 347 L410 330 L419 314 L422 304 L422 286 L419 277 L411 268 L395 265 L387 267 L387 279 L394 280 L397 285 L393 290 L383 291 L374 284 L371 269 L376 261 L383 263 L382 250 L387 240 L405 226 L409 215 L415 215 L422 199 Z M348 127 L384 128 L384 227 L390 228 L368 258 L365 280 L370 291 L378 297 L393 298 L401 293 L402 305 L397 318 L377 340 L374 329 L360 309 L355 309 L353 323 L347 323 Z M142 70 L139 72 L138 82 L132 91 L125 95 L115 97 L115 101 L122 102 L130 106 L138 116 L139 126 L141 128 L144 128 L146 126 L148 114 L150 111 L159 104 L169 102 L171 98 L169 96 L164 96 L156 93 L148 84 L146 72 Z M142 89 L152 98 L152 100 L143 109 L139 106 L137 102 L133 100 Z M387 18 L376 19 L316 44 L315 50 L333 61 L312 90 L280 124 L244 155 L212 177 L151 210 L112 224 L112 231 L174 207 L245 163 L286 129 L332 76 L342 57 L329 47 L378 27 L373 82 L364 72 L360 72 L316 125 L273 162 L202 206 L104 252 L104 257 L111 257 L163 233 L254 184 L312 139 L361 82 L376 94 L380 87 Z"/></svg>
