<svg xmlns="http://www.w3.org/2000/svg" width="512" height="512" viewBox="0 0 512 512" aria-hidden="true" focusable="false"><path fill="currentColor" fill-rule="evenodd" clip-rule="evenodd" d="M256 17 L251 55 L256 64 L248 68 L251 77 L244 86 L261 94 L248 96 L238 104 L238 125 L231 133 L234 149 L252 165 L184 215 L177 215 L166 208 L164 199 L172 195 L176 206 L188 189 L188 174 L181 178 L180 167 L157 141 L161 166 L150 207 L156 219 L171 228 L157 248 L140 256 L133 246 L120 241 L106 248 L101 266 L96 250 L89 261 L82 255 L77 260 L41 263 L82 267 L87 274 L95 269 L100 279 L108 277 L116 282 L127 282 L142 272 L153 274 L173 304 L221 349 L203 364 L182 360 L176 350 L181 347 L182 354 L189 352 L193 335 L189 328 L185 333 L179 321 L158 309 L164 324 L161 350 L166 362 L181 372 L197 372 L226 354 L247 372 L246 383 L253 393 L242 395 L223 413 L232 416 L234 428 L249 439 L245 453 L252 460 L258 496 L259 465 L268 452 L264 439 L278 430 L280 417 L290 413 L277 399 L260 393 L267 384 L266 372 L286 355 L315 372 L331 372 L345 363 L350 353 L347 323 L354 309 L319 333 L318 345 L324 353 L330 354 L331 346 L335 348 L330 360 L309 364 L292 350 L339 304 L359 274 L374 272 L383 281 L396 282 L405 276 L414 278 L418 266 L425 274 L431 267 L471 261 L435 261 L428 255 L424 264 L419 250 L411 258 L403 245 L392 241 L374 253 L357 250 L342 229 L359 216 L363 206 L352 167 L356 141 L334 165 L332 178 L327 174 L324 177 L325 189 L337 205 L340 195 L349 199 L348 206 L336 215 L329 215 L262 166 L279 150 L283 133 L276 124 L276 105 L269 99 L273 92 L261 85 L268 76 L261 72 L265 63 L258 57 Z M254 443 L255 445 L250 451 L249 448 Z M272 414 L276 420 L276 424 L274 428 L270 432 L260 435 L259 434 L260 426 L267 420 L269 415 Z M241 414 L243 414 L245 418 L254 427 L257 434 L256 436 L248 434 L240 429 L238 425 L238 418 Z M269 400 L272 401 L276 405 L279 411 L277 412 L272 410 L267 404 Z M248 398 L249 401 L241 410 L236 411 L235 408 L238 404 Z M256 397 L259 399 L265 408 L264 417 L257 423 L249 416 L248 413 L249 407 Z M253 374 L260 374 L262 376 L262 382 L258 386 L254 385 L251 382 L251 377 Z M272 342 L282 350 L282 352 L263 369 L260 369 L259 363 L265 349 Z M241 342 L248 349 L254 362 L253 369 L250 369 L231 352 L231 350 Z M256 332 L266 338 L266 340 L257 352 L254 350 L247 340 L249 336 L251 336 Z M342 321 L344 331 L341 333 L341 335 L343 336 L344 341 L346 343 L346 351 L343 359 L337 365 L334 365 L333 363 L339 356 L339 348 L334 343 L330 343 L325 347 L323 345 L323 338 L325 337 L330 339 L333 326 L337 324 L338 322 Z M169 321 L179 326 L181 331 L181 338 L186 337 L189 338 L189 344 L187 347 L182 343 L178 343 L172 349 L173 357 L182 365 L181 367 L176 366 L170 361 L165 350 L167 340 L169 336 L171 335 L171 333 L168 331 Z M256 288 L262 294 L267 305 L265 315 L257 320 L250 317 L245 309 L247 306 L249 297 Z M409 271 L411 270 L412 272 L410 273 Z M101 268 L103 269 L102 273 L100 272 Z M410 267 L412 266 L413 269 L411 270 Z M287 265 L294 271 L297 279 L296 287 L288 301 L280 309 L274 312 L272 301 L261 284 L261 281 L274 267 L278 265 Z M226 265 L235 265 L239 267 L253 282 L247 290 L240 306 L240 310 L242 312 L241 314 L233 309 L225 301 L218 290 L216 282 L217 275 L220 270 Z M376 260 L378 259 L379 262 L377 263 Z M385 259 L392 258 L394 261 L394 264 L387 268 L384 265 Z M133 259 L135 258 L137 262 L134 263 Z M119 259 L126 258 L129 262 L129 265 L120 266 Z M362 256 L368 259 L368 266 L364 269 L358 268 L356 265 L357 259 Z M150 256 L155 259 L156 265 L154 268 L148 269 L144 265 L144 261 L146 257 Z M388 247 L395 247 L400 249 L404 253 L406 258 L406 267 L404 271 L399 276 L394 278 L386 277 L381 273 L382 271 L392 272 L398 266 L400 262 L396 255 L393 253 L386 253 L381 256 L379 255 L379 253 L383 249 Z M117 247 L124 247 L132 251 L131 254 L120 253 L114 259 L115 267 L121 272 L127 272 L131 270 L133 271 L130 275 L124 278 L113 276 L107 269 L106 264 L107 256 L111 250 Z M280 244 L283 246 L287 244 L289 246 L290 251 L288 255 L281 256 L279 254 L278 246 Z M227 243 L232 243 L235 246 L235 253 L232 256 L227 256 L224 253 L225 249 L224 246 Z M207 218 L216 215 L236 217 L258 236 L273 219 L297 215 L309 220 L322 233 L327 247 L322 279 L307 300 L271 335 L265 327 L292 305 L302 286 L301 272 L291 260 L295 253 L294 244 L287 237 L278 238 L273 245 L275 260 L256 277 L240 261 L241 248 L235 238 L227 237 L220 243 L218 253 L222 260 L213 270 L211 285 L221 305 L250 328 L242 335 L205 299 L187 268 L189 237 Z M255 198 L260 199 L272 209 L271 213 L257 226 L245 215 L239 212 L243 207 L252 200 L254 200 Z M256 179 L260 180 L263 185 L262 189 L259 192 L255 192 L251 188 L251 183 Z M261 172 L323 215 L347 242 L354 254 L351 261 L354 274 L335 301 L287 347 L276 338 L312 303 L324 287 L332 266 L332 244 L325 227 L312 215 L293 209 L280 210 L263 196 L267 189 L267 181 L260 174 Z M252 172 L253 174 L246 182 L250 196 L233 210 L219 209 L201 215 L187 229 L180 250 L181 267 L189 287 L200 302 L237 338 L225 347 L177 301 L157 271 L161 265 L161 250 L182 223 L197 209 Z M347 160 L350 172 L348 178 L351 179 L358 194 L359 204 L356 213 L351 219 L344 223 L338 224 L335 221 L335 219 L345 215 L351 210 L353 206 L353 198 L352 195 L346 190 L340 190 L334 195 L331 192 L329 185 L330 184 L338 185 L336 180 L336 170 L342 162 Z M166 160 L172 163 L176 168 L177 171 L177 179 L175 183 L176 187 L182 184 L184 185 L184 188 L179 195 L173 190 L166 190 L160 197 L161 209 L175 219 L174 224 L163 220 L158 215 L154 205 L154 197 L156 191 L162 180 L165 178 L163 172 Z M274 130 L278 135 L277 143 L265 156 L262 157 L261 156 L262 147 L260 143 L272 130 Z M239 130 L242 130 L253 142 L252 154 L258 158 L257 161 L255 161 L237 144 L236 134 Z M247 127 L252 126 L255 128 L258 128 L262 126 L266 126 L267 129 L261 136 L256 139 L250 133 Z M256 113 L259 114 L258 120 L256 120 L254 117 Z M241 110 L243 106 L249 101 L255 100 L264 101 L271 107 L273 112 L273 118 L271 121 L265 122 L263 110 L260 108 L253 108 L249 115 L250 121 L243 122 L241 120 Z M251 83 L255 82 L256 84 L252 85 Z"/></svg>
