<svg xmlns="http://www.w3.org/2000/svg" width="512" height="512" viewBox="0 0 512 512" aria-hidden="true" focusable="false"><path fill="currentColor" fill-rule="evenodd" clip-rule="evenodd" d="M57 275 L63 312 L83 347 L100 366 L182 432 L216 467 L236 496 L258 474 L279 496 L323 441 L424 356 L446 324 L456 291 L456 266 L445 234 L425 212 L397 200 L363 203 L337 222 L299 207 L274 208 L261 212 L263 218 L240 208 L215 207 L178 223 L149 202 L109 202 L88 213 L73 228 L62 249 Z M264 471 L265 473 L261 475 L260 473 Z M254 360 L280 388 L291 410 L291 427 L286 440 L273 454 L257 464 L232 445 L222 420 L228 396 L253 367 Z M249 357 L251 356 L253 359 L251 360 Z M255 228 L263 231 L274 244 L281 259 L285 279 L280 309 L258 347 L239 323 L228 290 L228 272 L233 254 L243 238 Z M263 218 L266 217 L267 219 L264 220 Z M408 214 L429 230 L445 263 L445 296 L437 319 L413 353 L325 425 L278 478 L268 469 L297 442 L302 412 L296 393 L263 353 L280 333 L294 291 L290 252 L266 220 L308 219 L337 237 L351 266 L346 283 L339 289 L327 289 L322 282 L324 276 L334 272 L327 267 L318 269 L311 283 L319 296 L338 300 L354 289 L360 274 L357 248 L344 229 L357 217 L380 209 Z M97 219 L134 209 L152 214 L170 229 L156 251 L154 273 L160 289 L176 300 L190 299 L202 287 L202 276 L190 267 L180 272 L180 280 L192 280 L187 289 L176 289 L167 281 L165 259 L177 237 L207 219 L245 221 L223 251 L217 286 L227 322 L250 356 L221 388 L212 412 L215 436 L223 450 L246 469 L236 477 L182 417 L116 366 L84 331 L72 306 L68 268 L78 240 Z M336 152 L329 135 L325 136 L320 145 L318 144 L319 134 L314 118 L300 104 L299 121 L296 126 L274 142 L260 160 L256 161 L252 152 L242 142 L221 128 L216 118 L216 106 L213 105 L200 122 L198 143 L196 144 L190 135 L184 141 L180 170 L187 187 L195 195 L206 200 L218 200 L230 191 L231 178 L222 169 L215 169 L210 173 L210 181 L216 178 L222 180 L222 187 L214 192 L204 191 L196 186 L188 172 L187 161 L190 151 L205 156 L208 154 L205 133 L210 125 L216 135 L235 147 L248 160 L253 170 L256 196 L261 205 L266 207 L261 190 L261 177 L265 166 L279 148 L302 132 L306 124 L310 131 L308 154 L312 156 L326 151 L329 168 L322 183 L308 192 L296 190 L293 185 L296 178 L305 181 L307 176 L303 170 L291 170 L286 175 L285 187 L292 197 L310 200 L321 195 L330 186 L336 173 Z M257 17 L253 42 L242 62 L238 65 L228 84 L228 101 L232 110 L240 118 L243 118 L243 115 L239 110 L236 102 L236 87 L242 73 L248 66 L250 61 L253 59 L255 53 L259 50 L261 56 L280 84 L281 98 L277 110 L272 116 L272 118 L274 119 L286 106 L288 98 L288 87 L286 79 L281 70 L278 68 L266 49 L263 37 L261 36 L260 19 Z"/></svg>
