<svg xmlns="http://www.w3.org/2000/svg" width="512" height="512" viewBox="0 0 512 512" aria-hidden="true" focusable="false"><path fill="currentColor" fill-rule="evenodd" clip-rule="evenodd" d="M287 152 L284 149 L254 150 L255 180 L288 178 Z M259 162 L269 159 L275 162 L280 162 L281 171 L277 173 L276 175 L260 175 L259 174 Z M259 155 L269 154 L270 156 L260 157 Z M173 128 L170 131 L169 135 L167 136 L165 143 L163 144 L161 151 L159 153 L165 157 L179 160 L181 159 L182 161 L188 162 L191 159 L192 155 L194 154 L196 146 L202 136 L201 134 Z M177 140 L183 141 L185 145 L187 145 L188 142 L192 143 L191 148 L186 155 L180 155 L171 152 Z M247 18 L234 23 L219 40 L184 33 L179 46 L186 67 L153 70 L134 79 L118 94 L109 112 L73 107 L68 114 L70 147 L35 162 L30 178 L47 205 L53 272 L77 325 L112 356 L160 375 L169 386 L125 437 L121 448 L124 465 L148 481 L198 493 L315 493 L367 480 L389 464 L392 450 L388 437 L374 424 L368 410 L346 394 L344 385 L352 375 L402 355 L439 319 L451 298 L460 267 L462 216 L481 183 L483 171 L474 159 L451 149 L449 125 L432 107 L412 100 L394 102 L370 75 L348 66 L328 65 L333 49 L331 36 L319 33 L294 40 L271 19 Z M292 460 L292 458 L297 453 L299 453 L300 455 L304 457 L304 459 L300 461 Z M208 458 L213 453 L216 453 L220 457 L220 460 L214 461 L209 460 Z M152 454 L156 453 L157 455 L162 456 L163 460 L162 461 L155 460 L152 457 Z M316 453 L318 452 L319 454 L317 455 Z M127 451 L129 450 L132 455 L146 463 L176 472 L207 477 L258 478 L260 480 L263 478 L306 477 L337 472 L364 464 L383 451 L386 454 L385 459 L376 468 L345 481 L319 486 L299 487 L297 489 L232 490 L185 485 L184 483 L155 477 L134 466 L128 459 Z M220 449 L224 449 L228 453 L229 458 L228 461 L224 460 L224 458 L219 451 Z M306 448 L309 450 L312 458 L311 460 L309 460 L308 456 L305 454 Z M244 457 L247 450 L250 449 L255 444 L257 444 L266 452 L268 459 L266 462 L263 462 L259 458 L258 455 L255 455 L249 462 L247 462 Z M158 445 L161 444 L162 446 L159 447 Z M332 442 L336 446 L338 451 L336 452 L335 455 L330 453 L328 456 L326 456 L323 453 L323 450 L330 442 Z M218 443 L217 448 L214 448 L206 454 L203 453 L203 450 L209 445 L211 445 L214 442 Z M302 445 L300 449 L296 448 L296 450 L291 453 L287 461 L283 460 L285 452 L293 444 L295 444 L296 441 Z M180 441 L186 446 L188 450 L188 454 L186 456 L184 456 L183 453 L180 453 L178 455 L175 454 L174 450 L175 446 Z M271 440 L273 440 L279 448 L279 458 L274 462 L272 461 L271 451 L265 445 Z M173 440 L174 441 L170 448 L168 448 L166 446 L167 441 Z M192 439 L195 440 L197 445 L197 453 L194 456 L192 455 L192 448 L187 442 L188 440 Z M361 438 L362 441 L361 445 L359 446 L358 442 L359 439 Z M283 438 L285 438 L288 441 L288 443 L285 446 L280 442 Z M227 438 L232 441 L228 445 L224 443 L224 441 Z M151 438 L153 439 L154 442 L153 445 L151 445 L149 442 Z M177 436 L179 435 L180 437 L178 438 Z M381 438 L380 446 L374 452 L367 456 L359 458 L358 460 L346 462 L345 464 L329 466 L328 468 L302 470 L300 472 L213 472 L211 470 L185 468 L184 466 L172 465 L167 463 L168 459 L183 461 L185 463 L212 466 L228 466 L229 468 L285 468 L287 466 L326 463 L328 461 L345 459 L349 456 L356 455 L357 453 L360 453 L370 447 L375 441 L377 434 Z M135 434 L137 435 L137 441 L144 448 L148 450 L147 456 L139 452 L133 446 L131 440 Z M366 432 L369 433 L368 438 L365 436 Z M355 430 L357 432 L357 437 L353 445 L353 448 L351 449 L349 438 L352 431 Z M165 430 L167 429 L168 431 L166 432 Z M157 429 L161 432 L163 437 L162 441 L158 441 L154 435 L154 432 Z M144 429 L146 430 L145 438 L143 437 Z M314 445 L318 439 L323 440 L322 432 L327 427 L327 425 L330 424 L335 429 L336 432 L335 436 L340 435 L342 436 L346 444 L346 447 L341 448 L339 443 L333 439 L331 435 L329 435 L329 438 L321 445 L320 448 L315 448 Z M182 424 L190 432 L190 436 L187 441 L183 438 L183 435 L179 435 L177 432 L177 429 Z M257 423 L260 426 L260 428 L262 428 L266 432 L267 435 L266 443 L263 444 L258 439 L254 439 L242 450 L239 460 L236 461 L233 458 L234 445 L239 440 L242 440 L244 443 L246 443 L245 437 L246 432 L254 426 L255 423 Z M148 422 L154 423 L151 430 L148 428 L147 424 Z M364 417 L367 420 L367 422 L365 423 L363 430 L361 431 L357 424 L359 423 L360 419 Z M359 410 L355 421 L349 425 L345 424 L341 428 L327 416 L326 421 L318 433 L314 435 L311 443 L306 443 L301 439 L299 434 L294 434 L294 436 L291 437 L286 432 L283 432 L277 438 L258 417 L259 413 L312 409 L341 400 L351 403 Z M153 410 L163 402 L171 400 L179 404 L181 403 L182 405 L198 407 L199 409 L253 413 L254 417 L241 433 L235 437 L229 432 L221 438 L215 434 L209 441 L203 443 L188 425 L185 416 L172 428 L168 424 L163 426 L162 423 L159 423 L153 414 Z M173 390 L176 389 L181 392 L195 394 L197 396 L223 398 L225 400 L252 401 L288 400 L290 398 L316 396 L318 394 L328 393 L334 390 L336 391 L336 396 L333 398 L325 399 L324 401 L304 403 L303 405 L275 407 L239 407 L209 405 L207 403 L188 401 L186 399 L176 397 L173 394 Z M170 378 L173 377 L175 379 L197 381 L199 383 L203 382 L207 384 L241 386 L305 384 L306 382 L314 383 L316 381 L338 379 L340 377 L342 379 L337 384 L322 389 L301 393 L271 394 L269 396 L203 392 L201 390 L191 389 L176 384 Z M250 365 L253 362 L259 362 L262 365 L262 370 L260 372 L252 372 L250 370 Z M249 356 L251 359 L246 364 L246 368 L243 369 L241 366 L241 362 L246 356 Z M343 353 L349 352 L350 354 L344 355 Z M163 353 L168 352 L169 354 L164 355 Z M157 352 L160 351 L161 353 L158 354 Z M179 348 L181 347 L182 349 L180 350 Z M253 347 L257 346 L263 353 L263 356 L266 356 L270 360 L271 366 L269 369 L266 368 L266 364 L258 357 L258 355 L249 354 Z M242 345 L244 344 L245 346 L243 347 Z M158 345 L160 344 L161 346 L159 347 Z M351 346 L354 343 L357 344 L354 347 Z M133 343 L134 342 L139 343 L143 346 L152 348 L153 350 L152 351 L144 350 L140 347 L134 346 Z M151 342 L154 341 L158 345 L155 346 Z M146 340 L148 339 L149 341 L147 342 Z M364 338 L366 337 L367 339 L365 340 Z M344 337 L343 342 L338 347 L334 348 L333 350 L329 351 L327 350 L328 348 L335 344 L342 336 Z M275 335 L276 337 L268 346 L267 344 L271 337 Z M166 336 L168 335 L178 345 L178 347 L176 348 L171 346 L169 342 L166 340 Z M266 334 L267 337 L264 339 L263 337 Z M343 334 L345 333 L346 335 L344 336 Z M243 334 L245 333 L246 335 L244 336 Z M267 332 L269 331 L270 333 L268 334 Z M257 318 L259 322 L262 324 L263 327 L262 332 L254 333 L252 335 L249 327 L250 324 L254 321 L254 319 Z M123 318 L127 322 L126 325 L122 322 Z M196 313 L208 322 L209 330 L214 330 L216 332 L215 335 L210 335 L206 331 L204 331 L205 336 L209 340 L209 348 L211 349 L211 351 L216 353 L215 355 L212 355 L201 350 L195 341 L194 336 L197 335 L198 333 L192 326 L192 321 Z M316 312 L318 316 L318 329 L313 333 L313 335 L316 335 L317 339 L314 345 L307 352 L305 352 L304 354 L297 355 L296 353 L301 350 L302 340 L305 338 L308 332 L305 331 L302 335 L297 335 L296 332 L302 326 L304 322 Z M400 297 L402 298 L401 302 L399 301 Z M392 297 L395 302 L395 311 L390 321 L386 324 L385 320 L388 315 L388 304 L386 303 L386 300 L389 297 Z M120 297 L125 298 L123 306 L124 310 L123 315 L119 315 L118 312 L116 311 L116 301 Z M256 292 L270 306 L272 310 L272 315 L274 318 L269 326 L266 324 L266 321 L260 316 L258 310 L254 310 L253 314 L247 320 L244 326 L240 323 L240 320 L238 319 L238 317 L241 315 L240 311 L242 306 Z M268 289 L272 289 L283 301 L285 310 L287 311 L283 324 L275 330 L273 330 L272 328 L276 325 L278 321 L278 311 L275 305 L266 295 Z M423 290 L422 295 L414 300 L414 302 L416 303 L416 306 L409 320 L395 335 L393 335 L391 338 L375 347 L361 352 L358 351 L360 348 L368 346 L369 344 L378 341 L379 339 L381 339 L398 323 L405 311 L406 294 L411 289 L419 288 Z M241 288 L244 289 L247 294 L235 308 L234 311 L235 324 L231 326 L226 320 L225 316 L226 306 L228 305 L233 295 Z M91 288 L98 288 L103 291 L106 296 L107 313 L111 321 L115 324 L115 326 L119 330 L121 330 L127 337 L131 339 L130 343 L126 342 L124 339 L119 337 L103 321 L101 316 L99 315 L97 308 L95 307 L95 303 L97 302 L97 300 L90 295 L89 290 Z M290 284 L294 293 L297 295 L301 303 L301 316 L298 317 L298 323 L292 329 L284 332 L283 330 L285 329 L285 327 L291 320 L291 307 L289 305 L289 302 L283 294 L283 290 Z M222 284 L228 289 L229 292 L225 300 L221 301 L220 304 L221 321 L227 329 L226 331 L221 330 L213 322 L213 317 L211 316 L212 299 L215 297 L216 293 Z M370 281 L372 282 L373 290 L372 298 L374 299 L375 297 L378 296 L382 303 L382 317 L377 328 L374 330 L373 333 L368 329 L373 317 L372 305 L369 303 L369 301 L364 300 L362 298 L356 301 L355 305 L359 305 L361 307 L358 312 L352 312 L348 308 L347 304 L348 297 L356 288 L362 291 L363 286 L367 282 Z M144 281 L148 285 L149 291 L151 291 L155 287 L161 293 L163 298 L163 306 L158 312 L154 312 L153 310 L150 309 L150 306 L156 303 L154 300 L151 298 L148 298 L147 300 L142 302 L138 309 L138 317 L140 319 L141 326 L145 332 L139 334 L129 318 L128 306 L133 296 L137 299 L140 298 L137 292 L139 290 L140 282 Z M410 278 L412 284 L406 287 L405 286 L406 281 Z M100 277 L106 282 L107 286 L106 288 L99 283 Z M255 270 L257 270 L267 282 L265 291 L262 291 L259 288 L258 283 L254 283 L253 288 L249 292 L245 288 L246 280 Z M86 266 L89 266 L91 272 L93 273 L92 280 L85 273 Z M101 261 L109 264 L114 269 L118 278 L118 287 L113 297 L110 296 L111 294 L110 280 L104 273 L97 272 L94 270 L93 266 L94 265 L99 266 L99 263 Z M431 251 L432 252 L431 259 L424 263 L424 267 L427 268 L426 275 L421 280 L418 279 L418 273 L420 271 L420 268 L418 268 L414 272 L410 272 L409 274 L407 274 L402 279 L401 296 L399 297 L393 287 L393 278 L397 270 L403 264 L409 261 L411 262 L413 266 L415 266 L416 260 L418 259 L420 255 Z M80 252 L82 251 L84 253 L91 254 L94 257 L95 262 L87 263 L80 257 Z M177 240 L179 239 L180 240 L201 240 L202 241 L246 241 L247 243 L244 246 L189 245 L188 243 L178 243 Z M256 238 L258 239 L260 246 L264 249 L264 251 L267 253 L267 255 L270 258 L270 263 L268 267 L275 265 L281 273 L281 285 L279 288 L260 267 L257 260 L254 260 L250 269 L246 272 L245 275 L240 280 L238 280 L237 284 L234 287 L229 282 L230 273 L232 272 L232 270 L236 265 L238 264 L240 267 L243 267 L242 257 Z M133 237 L134 236 L168 238 L169 241 L168 242 L142 241 L140 239 L134 239 Z M229 235 L231 234 L232 236 L230 237 Z M288 235 L291 232 L293 232 L296 236 L289 237 Z M218 233 L222 232 L225 236 L221 237 Z M181 232 L183 230 L186 231 L185 234 L182 234 Z M324 234 L327 229 L332 232 L331 234 L328 235 Z M285 229 L286 231 L284 235 L281 237 L280 236 L281 230 Z M260 233 L263 232 L264 229 L266 229 L268 233 L270 234 L270 236 L263 237 Z M225 230 L229 229 L231 233 L229 234 Z M213 229 L214 231 L211 235 L208 234 L209 230 Z M57 230 L134 245 L240 250 L225 276 L218 277 L205 312 L191 301 L188 346 L174 336 L170 323 L163 327 L160 339 L146 325 L145 311 L159 317 L169 306 L160 285 L134 272 L135 287 L127 294 L122 291 L122 274 L110 260 L70 240 L86 282 L81 288 L99 323 L118 342 L155 358 L211 362 L226 354 L223 344 L217 350 L213 343 L227 338 L237 347 L238 358 L222 370 L254 377 L289 371 L274 358 L276 344 L285 338 L297 341 L293 350 L290 344 L285 347 L289 358 L316 363 L357 358 L395 341 L414 321 L430 289 L425 283 L431 276 L441 239 L394 266 L389 292 L383 294 L377 288 L378 272 L351 285 L344 294 L343 308 L353 317 L361 316 L367 308 L367 321 L353 338 L342 323 L339 333 L321 347 L321 301 L306 312 L304 296 L272 250 L379 245 L448 231 L454 234 L454 262 L447 291 L431 320 L392 354 L325 375 L230 380 L151 367 L104 343 L82 321 L65 290 L57 258 Z M364 229 L367 228 L368 230 L365 231 Z M192 228 L195 230 L194 235 L192 234 L191 231 Z M144 229 L147 228 L149 231 L146 232 Z M285 229 L286 226 L290 227 L288 230 Z M400 226 L405 225 L406 227 L401 228 Z M357 225 L360 226 L358 229 L355 228 Z M293 227 L296 225 L301 229 L304 234 L301 235 Z M152 226 L154 225 L155 227 L153 228 Z M444 225 L443 228 L430 230 L422 233 L404 235 L402 237 L375 239 L373 241 L325 243 L324 245 L296 245 L295 246 L268 246 L266 244 L267 241 L314 241 L315 239 L333 240 L335 238 L380 236 L382 234 L407 232 L408 230 L428 228 L429 226 L435 226 L439 224 Z M371 224 L374 224 L377 227 L375 232 L370 226 Z M188 224 L190 225 L189 229 L186 227 Z M139 224 L140 227 L136 230 L135 227 L137 224 Z M107 225 L110 224 L112 227 L108 228 Z M69 225 L72 224 L77 226 L84 226 L85 228 L102 230 L104 232 L130 234 L131 237 L130 238 L111 237 L109 235 L83 232 L82 230 L70 228 Z M326 223 L327 228 L323 229 L322 226 Z M331 222 L334 223 L333 228 L330 227 Z M215 226 L221 222 L226 227 L225 230 L222 228 L216 229 Z M181 222 L182 227 L174 232 L173 228 L175 226 L178 226 L179 223 Z M397 221 L398 223 L394 226 L393 223 Z M257 221 L260 225 L254 228 L250 237 L244 237 L243 231 L246 229 L250 229 L250 226 L255 221 Z M115 222 L117 221 L120 226 L118 227 L115 224 Z M455 221 L451 225 L447 226 L444 225 L445 222 L453 220 Z M408 221 L410 220 L412 224 L410 225 Z M103 220 L104 222 L100 225 L99 222 Z M57 221 L59 220 L67 222 L68 225 L66 226 L58 224 Z M436 217 L439 218 L437 221 L434 220 Z M367 217 L369 220 L367 222 L364 222 L364 224 L361 226 L360 222 L365 217 Z M249 218 L252 217 L253 219 L250 220 Z M143 219 L147 217 L153 223 L153 225 L150 226 L147 222 L144 222 Z M73 218 L76 217 L77 219 L74 220 Z M427 217 L429 216 L430 218 L428 219 Z M260 219 L261 216 L265 217 L289 216 L290 217 L283 225 L277 229 L275 233 L272 232 L272 229 L268 224 L265 224 Z M231 216 L246 218 L247 223 L239 231 L238 237 L236 236 L236 231 L234 228 L227 222 Z M81 217 L84 216 L85 219 L83 220 Z M398 219 L403 215 L407 218 L406 221 L404 220 L399 221 Z M325 216 L314 227 L312 235 L308 234 L305 226 L300 224 L298 220 L300 216 L322 216 L323 215 Z M187 216 L188 215 L217 216 L218 218 L205 229 L204 235 L200 235 L199 228 L195 224 L195 222 L189 220 Z M103 219 L108 215 L114 218 L113 221 L111 220 L104 221 Z M442 215 L444 214 L445 217 L443 218 Z M362 213 L363 215 L352 224 L351 232 L347 234 L344 233 L343 226 L332 217 L333 215 L345 215 L347 213 Z M149 214 L150 213 L166 213 L168 215 L178 215 L179 218 L170 225 L169 233 L166 234 L162 232 L161 225 Z M434 211 L435 213 L432 215 L431 213 Z M77 212 L79 211 L81 215 L79 216 Z M401 210 L389 222 L388 230 L382 230 L377 219 L371 217 L368 214 L369 212 L391 211 L393 209 Z M111 210 L120 209 L122 211 L142 212 L143 214 L138 218 L136 218 L131 226 L131 229 L128 230 L124 228 L124 224 L122 220 L116 216 Z M458 209 L457 213 L451 216 L450 214 L452 213 L452 211 L455 208 Z M434 210 L438 208 L440 212 L438 213 L435 212 Z M78 210 L77 212 L73 213 L70 217 L66 215 L74 208 Z M457 206 L459 205 L460 207 L458 208 Z M84 209 L86 205 L92 205 L93 207 L106 208 L107 210 L97 218 L94 224 L91 224 L90 217 L87 215 Z M432 205 L430 209 L423 216 L422 223 L418 225 L416 224 L416 221 L413 215 L409 214 L405 210 L406 208 L419 207 L420 205 L428 204 Z M462 197 L460 200 L456 201 L456 203 L453 204 L448 210 L439 205 L439 203 L442 201 L453 199 L458 196 Z M49 196 L51 195 L56 198 L72 201 L73 204 L68 208 L63 209 L54 200 L50 199 Z M293 193 L295 192 L296 195 L294 196 Z M201 194 L202 192 L205 191 L209 192 L207 195 Z M190 188 L188 192 L170 192 L165 190 L166 188 L183 188 L184 187 Z M234 187 L235 186 L239 187 L242 191 L242 194 L240 195 L239 193 L237 193 L234 190 Z M407 187 L408 184 L412 185 L409 188 Z M304 183 L307 185 L307 187 L305 188 L303 192 L301 192 L299 189 Z M88 184 L93 183 L94 185 L89 186 Z M112 180 L114 179 L115 181 L113 182 Z M152 191 L145 192 L141 189 L141 187 L138 184 L135 184 L133 186 L124 187 L120 190 L114 190 L112 187 L115 184 L128 179 L140 178 L144 181 L144 183 L148 187 L152 189 Z M231 175 L233 176 L234 180 L232 184 L228 180 L228 178 Z M214 176 L214 179 L211 182 L194 190 L192 189 L192 187 L195 184 L202 182 L212 175 Z M420 175 L421 174 L425 175 L427 178 L429 178 L432 181 L432 183 L424 184 L420 179 Z M313 171 L314 172 L313 177 L310 180 L307 178 L308 173 L310 171 Z M205 171 L205 173 L199 176 L198 178 L184 183 L166 183 L153 178 L155 174 L164 178 L172 179 L187 178 L192 175 L197 174 L202 170 Z M218 169 L220 170 L219 175 L215 173 Z M147 167 L150 169 L149 174 L145 172 Z M416 166 L417 165 L424 166 L425 168 L420 170 Z M436 170 L443 164 L453 167 L458 170 L460 173 L453 178 L445 180 L436 172 Z M348 163 L349 162 L368 162 L369 164 L368 165 L349 165 Z M83 178 L79 183 L70 182 L68 180 L62 179 L54 175 L53 171 L57 169 L58 167 L69 165 L70 163 L75 162 Z M377 160 L379 159 L380 161 L378 162 Z M424 160 L425 158 L429 157 L433 158 L431 161 Z M389 158 L388 161 L383 162 L380 161 L382 158 L386 157 Z M327 158 L328 157 L337 159 L338 161 L337 162 L328 161 Z M227 157 L230 158 L229 167 L225 166 Z M414 155 L410 169 L397 190 L322 195 L315 188 L319 176 L319 169 L322 165 L345 170 L372 170 L394 165 L412 154 Z M36 171 L54 158 L72 154 L72 157 L48 167 L48 178 L63 186 L99 194 L161 200 L244 203 L369 199 L435 190 L457 183 L466 175 L464 166 L449 159 L449 156 L469 163 L477 171 L477 177 L460 190 L405 203 L308 211 L206 211 L141 207 L83 199 L44 186 L36 178 Z M319 149 L323 150 L324 155 L322 157 L319 156 L318 153 Z M221 149 L222 150 L221 157 L216 164 L213 166 L213 168 L210 169 L209 164 L216 157 L217 151 Z M308 147 L310 148 L314 158 L313 167 L309 166 L309 156 L308 153 L306 152 L306 149 Z M445 142 L446 144 L444 151 L441 153 L439 157 L437 157 L436 154 L440 150 L441 145 Z M414 143 L405 153 L395 158 L392 157 L394 146 L405 144 L407 142 Z M237 142 L238 144 L235 147 L233 153 L229 154 L228 151 L230 147 L232 146 L234 142 Z M140 140 L142 141 L141 155 L145 163 L142 166 L140 165 L139 159 L137 157 L137 145 Z M115 138 L118 137 L119 139 L116 140 Z M443 139 L444 136 L447 137 L445 140 Z M389 136 L391 135 L394 138 L394 140 L391 141 L389 139 Z M221 135 L223 135 L225 138 L223 146 L220 145 Z M250 138 L263 133 L276 133 L288 137 L300 147 L305 156 L305 172 L301 181 L291 191 L278 196 L263 196 L253 193 L242 185 L234 169 L234 162 L238 151 Z M104 134 L106 133 L107 135 L105 136 Z M248 131 L249 135 L241 140 L239 137 L244 132 Z M145 131 L146 134 L144 139 L141 140 L140 139 L141 134 Z M129 130 L131 129 L135 131 L136 133 L131 134 Z M306 128 L312 134 L311 137 L304 131 Z M285 129 L286 128 L291 129 L292 131 L297 133 L307 144 L303 145 L296 137 L287 133 Z M403 129 L413 127 L419 133 L420 137 L419 138 L408 137 L406 133 L403 131 Z M329 151 L331 143 L338 134 L349 128 L356 127 L367 128 L375 132 L381 137 L388 148 L382 154 L366 158 L343 157 Z M315 128 L321 127 L329 134 L326 141 L319 139 L317 133 L314 131 Z M229 128 L231 127 L235 131 L231 133 Z M74 130 L80 127 L89 135 L96 137 L97 139 L109 144 L122 146 L123 148 L130 148 L134 168 L115 172 L106 176 L102 180 L94 178 L86 172 L80 153 L78 152 Z M251 132 L252 128 L261 127 L263 125 L279 125 L283 128 L282 130 L263 129 L260 131 L258 130 L253 133 Z M242 125 L244 124 L245 126 L243 127 Z M120 123 L122 123 L125 126 L123 130 L119 127 Z M73 123 L75 122 L76 124 L74 125 Z M324 122 L326 121 L334 129 L334 131 L332 132 L324 124 Z M156 119 L157 122 L146 132 L145 129 L148 125 Z M203 120 L213 130 L216 144 L211 157 L202 166 L186 174 L171 175 L160 172 L150 164 L146 158 L145 146 L149 135 L155 128 L165 121 L179 116 L193 116 Z M163 115 L164 117 L158 121 L157 118 Z M342 115 L344 114 L345 116 L343 117 Z M205 115 L206 114 L210 115 L215 119 L221 126 L221 129 L218 131 L215 126 L208 119 L205 118 Z M240 112 L243 115 L243 117 L238 124 L236 125 L233 123 L230 123 L229 121 L234 115 L234 113 Z M78 112 L88 112 L90 114 L95 114 L109 119 L112 130 L110 131 L95 123 L93 119 L89 119 L91 125 L95 127 L94 129 L92 129 L77 115 Z M396 112 L410 111 L417 112 L418 114 L421 114 L424 116 L427 116 L427 113 L429 112 L441 123 L444 131 L442 132 L440 127 L437 127 L437 130 L440 135 L440 143 L434 152 L428 155 L420 154 L420 151 L422 150 L422 142 L429 139 L431 135 L419 122 L418 119 L406 121 L405 123 L398 124 L396 128 L394 127 L394 124 L396 121 L395 120 Z M229 111 L230 113 L227 116 L226 113 Z M267 110 L268 111 L267 117 L264 119 L263 114 L264 111 Z M164 116 L168 112 L176 110 L196 110 L201 111 L203 113 L202 116 L196 115 L194 113 L176 113 L174 115 L170 115 L167 117 Z M418 109 L421 108 L422 110 L419 111 Z M274 108 L275 115 L273 119 L271 120 L270 117 L272 109 Z M117 108 L120 109 L120 119 L119 120 L115 118 L115 113 Z M396 108 L398 107 L399 109 L397 110 Z M295 116 L298 109 L303 106 L317 106 L325 108 L326 110 L333 112 L335 115 L342 118 L345 123 L337 128 L326 116 L321 117 L320 119 L314 120 L306 124 L305 127 L299 128 L296 126 Z M234 106 L235 108 L230 112 L229 109 L232 106 Z M209 105 L211 104 L212 107 L210 108 Z M323 104 L326 103 L327 105 L324 106 Z M358 103 L361 102 L363 106 L361 107 Z M297 102 L298 105 L292 111 L292 122 L289 123 L288 122 L289 107 L294 102 Z M144 105 L147 102 L150 103 L148 106 Z M122 100 L123 103 L119 107 L118 105 L120 101 Z M301 100 L302 99 L313 99 L316 100 L317 102 L316 103 L311 102 L302 103 Z M353 99 L355 98 L359 102 L357 103 Z M173 102 L170 106 L163 108 L155 113 L150 112 L151 108 L166 98 Z M154 98 L155 100 L150 103 L149 101 L152 98 Z M334 100 L339 96 L344 98 L348 103 L350 103 L357 109 L357 112 L353 115 L345 107 L335 102 Z M265 95 L267 96 L268 99 L267 104 L264 103 L263 99 Z M158 95 L159 97 L156 99 L155 97 Z M381 94 L385 97 L389 105 L390 118 L389 123 L386 127 L382 126 L385 120 L385 106 L384 102 L382 101 L380 97 Z M347 95 L350 94 L352 97 L349 98 Z M199 94 L200 99 L199 102 L196 104 L195 103 L196 95 Z M127 94 L128 96 L124 99 L123 97 Z M213 101 L218 96 L223 95 L224 98 L226 98 L231 95 L239 93 L254 94 L258 97 L262 103 L262 112 L257 121 L254 121 L253 123 L245 125 L244 123 L251 112 L250 107 L247 107 L243 104 L230 102 L230 104 L226 107 L226 109 L222 114 L218 115 L212 110 L212 108 L216 105 L216 103 L214 103 Z M344 92 L346 91 L348 94 L345 95 Z M226 92 L229 91 L230 93 L227 94 Z M131 90 L132 92 L128 95 L127 93 Z M238 88 L239 87 L254 87 L256 89 L261 90 L263 93 L260 95 L257 92 L252 90 L239 90 Z M132 88 L134 87 L135 89 L133 90 Z M372 87 L375 86 L381 92 L381 94 L379 95 Z M367 83 L370 82 L372 85 L369 86 Z M137 85 L138 83 L141 82 L144 83 L143 85 L140 86 Z M194 91 L194 97 L189 104 L180 104 L178 98 L176 98 L165 89 L160 89 L138 104 L138 106 L148 116 L148 118 L141 124 L139 128 L132 127 L124 119 L124 108 L129 99 L137 91 L147 85 L150 85 L151 83 L163 81 L165 79 L179 79 L186 82 Z M145 80 L148 79 L149 81 L146 82 Z M360 79 L363 78 L367 82 L365 83 L361 81 Z M318 84 L325 79 L346 78 L350 79 L351 81 L358 82 L367 87 L376 96 L381 105 L382 117 L380 123 L378 125 L374 125 L358 120 L360 114 L368 107 L368 103 L354 92 L349 90 L347 87 L343 87 L333 96 L327 98 L325 96 L314 93 Z M149 79 L151 78 L152 80 L150 81 Z M350 75 L354 74 L356 77 L354 78 L351 77 Z M161 75 L170 73 L187 74 L190 78 L186 79 L183 77 L162 77 Z M343 73 L345 72 L346 74 L344 75 Z M324 73 L330 72 L331 74 L325 75 Z M265 63 L270 62 L271 64 L266 65 Z M242 63 L246 62 L247 64 L243 65 Z M274 62 L279 61 L280 63 L275 64 Z M233 62 L237 61 L238 63 L234 64 Z M187 50 L189 49 L192 53 L212 64 L251 72 L289 68 L310 60 L323 51 L325 55 L317 76 L306 93 L291 96 L280 106 L274 94 L258 82 L232 83 L217 90 L214 94 L208 95 L195 75 Z M322 41 L322 43 L317 48 L312 50 L311 52 L304 56 L296 58 L295 60 L286 62 L282 61 L283 59 L292 56 L296 52 L296 48 L300 45 L311 43 L316 40 Z M190 41 L195 40 L200 41 L202 43 L213 45 L217 48 L217 53 L219 53 L221 56 L228 58 L229 60 L223 61 L218 58 L209 56 L204 52 L202 52 L201 50 L196 48 Z M223 49 L226 40 L238 28 L246 24 L261 23 L267 24 L279 31 L287 40 L290 50 L273 57 L249 58 L235 56 L225 52 Z"/></svg>
