<svg xmlns="http://www.w3.org/2000/svg" width="512" height="512" viewBox="0 0 512 512" aria-hidden="true" focusable="false"><path fill="currentColor" fill-rule="evenodd" clip-rule="evenodd" d="M278 283 L273 287 L266 297 L266 299 L276 290 L279 286 Z M235 283 L234 286 L236 289 L246 298 L245 294 L240 287 Z M256 273 L255 274 L256 298 L257 298 L257 288 L259 284 L259 276 Z M202 272 L203 275 L234 274 L234 272 Z M202 222 L203 225 L271 226 L270 234 L202 234 L202 236 L270 236 L270 246 L202 246 L203 249 L270 249 L270 260 L202 260 L203 262 L265 261 L271 263 L271 272 L273 272 L274 262 L309 262 L309 271 L301 272 L301 274 L309 274 L310 284 L312 284 L312 222 Z M273 252 L275 249 L309 249 L310 250 L308 260 L275 260 Z M274 237 L275 236 L305 236 L310 238 L310 245 L309 246 L275 246 Z M274 226 L275 225 L309 225 L310 232 L308 234 L275 234 Z M202 206 L202 209 L312 209 L311 206 Z M201 195 L311 195 L311 192 L202 192 Z M426 253 L418 262 L417 279 L410 291 L411 309 L397 298 L394 313 L379 338 L379 354 L393 368 L408 366 L403 381 L392 394 L390 375 L375 369 L368 380 L378 381 L375 388 L348 402 L360 377 L363 352 L371 341 L343 342 L347 303 L354 296 L374 292 L393 275 L400 257 L395 227 L372 204 L369 190 L361 201 L360 221 L354 221 L350 231 L352 249 L345 248 L338 260 L340 280 L335 285 L320 286 L296 302 L268 309 L265 319 L271 319 L272 324 L288 317 L291 329 L272 332 L276 347 L340 326 L339 344 L322 362 L318 351 L302 358 L289 371 L257 338 L226 371 L194 351 L191 362 L174 345 L172 331 L176 325 L235 347 L244 334 L222 329 L223 318 L244 324 L247 315 L244 307 L217 302 L193 286 L177 285 L172 280 L174 259 L168 248 L160 248 L162 230 L153 220 L151 198 L145 190 L139 206 L116 230 L113 261 L120 270 L118 274 L138 292 L160 297 L165 303 L170 342 L142 341 L150 353 L155 384 L166 401 L149 397 L136 386 L137 378 L144 380 L140 370 L131 369 L122 376 L120 393 L110 382 L104 365 L120 368 L127 364 L134 353 L134 340 L116 298 L102 309 L103 293 L88 252 L78 311 L95 333 L77 323 L84 372 L93 390 L110 408 L146 421 L128 426 L143 438 L156 440 L169 449 L187 448 L190 460 L200 453 L207 464 L215 467 L228 464 L234 453 L256 475 L269 464 L273 472 L265 472 L257 488 L248 479 L248 472 L233 468 L257 496 L280 469 L269 464 L278 452 L282 461 L292 467 L306 464 L313 453 L323 460 L326 448 L344 449 L381 431 L384 425 L367 421 L395 413 L418 392 L430 367 L435 338 L434 323 L418 333 L434 313 Z M238 447 L239 443 L242 442 L244 446 L250 450 L256 457 L264 449 L268 447 L268 445 L271 442 L274 443 L275 449 L273 454 L270 457 L265 458 L265 462 L262 463 L256 469 L251 463 L248 462 L248 458 L245 458 L240 454 Z M270 436 L273 435 L274 437 L271 438 Z M217 441 L224 434 L228 432 L232 432 L233 434 L230 437 L230 439 L232 438 L235 439 L236 441 L235 449 L233 450 L229 444 L224 442 L218 444 Z M276 431 L279 430 L284 433 L287 433 L296 441 L296 443 L294 444 L291 442 L288 442 L282 446 L281 449 L279 450 L277 438 L278 437 L282 438 L282 436 Z M255 425 L258 425 L262 428 L267 436 L266 443 L257 452 L246 441 L246 435 L248 431 Z M270 425 L283 422 L292 422 L303 425 L315 434 L319 440 L321 449 L320 450 L317 449 L309 450 L309 453 L304 461 L299 463 L289 462 L284 456 L284 450 L288 446 L292 446 L294 448 L292 453 L296 453 L300 450 L300 440 L298 439 L298 437 L285 428 L271 427 Z M241 424 L242 425 L241 427 L228 428 L221 432 L213 440 L212 446 L213 449 L217 453 L221 453 L223 451 L219 449 L221 446 L225 446 L229 450 L229 456 L225 461 L221 463 L214 463 L207 459 L205 456 L204 450 L202 449 L193 450 L192 449 L195 438 L202 430 L208 426 L221 422 Z M305 421 L309 420 L325 425 L333 430 L337 435 L347 439 L348 442 L340 446 L328 445 L323 442 L320 435 L316 430 L306 423 Z M208 421 L195 432 L190 442 L185 445 L173 446 L164 442 L165 439 L174 436 L187 425 L204 420 Z M311 415 L321 412 L340 413 L350 418 L356 423 L365 427 L371 428 L374 431 L364 436 L358 437 L348 436 L337 430 L329 423 L323 420 L314 418 Z M202 415 L199 418 L196 418 L184 423 L173 432 L160 437 L149 436 L138 431 L139 429 L155 424 L166 416 L173 413 L191 412 Z M126 377 L131 373 L134 374 L131 384 L134 390 L139 395 L153 403 L172 407 L173 409 L169 411 L157 411 L146 409 L134 404 L127 397 L124 391 L124 381 Z M387 378 L389 383 L388 392 L384 399 L378 404 L370 408 L357 411 L344 411 L340 409 L341 407 L349 406 L362 402 L372 396 L381 386 L381 378 L377 374 L378 372 L382 373 Z M256 371 L272 387 L277 399 L277 404 L273 413 L261 421 L252 421 L245 418 L239 412 L236 404 L236 398 L239 390 Z M315 357 L320 374 L319 394 L315 402 L309 409 L302 414 L293 417 L292 415 L303 404 L308 391 L306 390 L306 393 L299 405 L293 411 L291 411 L290 409 L294 400 L294 388 L290 376 L293 371 L303 362 Z M198 357 L211 363 L219 370 L223 376 L219 387 L219 400 L222 407 L221 411 L213 404 L209 398 L206 388 L204 389 L209 403 L220 415 L219 417 L205 410 L199 404 L195 397 L192 382 L193 373 Z M256 345 L283 371 L291 389 L291 398 L286 410 L277 418 L275 416 L280 408 L280 395 L278 389 L260 370 L257 364 L235 389 L232 403 L237 416 L235 417 L231 415 L224 404 L222 393 L228 374 Z M362 343 L363 346 L359 354 L357 373 L350 391 L338 403 L330 407 L327 406 L341 386 L343 377 L341 377 L339 384 L331 397 L319 406 L318 404 L324 389 L323 368 L325 363 L333 354 L341 349 L353 344 Z M152 343 L160 344 L176 351 L187 362 L190 368 L189 390 L195 404 L194 406 L188 403 L180 395 L172 378 L170 378 L171 384 L176 394 L183 402 L183 405 L178 405 L164 393 L156 374 L154 355 L151 347 Z M212 335 L218 331 L229 335 L231 341 L230 342 L223 341 L213 337 Z M430 333 L431 341 L428 360 L423 375 L413 393 L402 404 L388 412 L370 417 L355 417 L355 414 L375 410 L390 402 L407 382 L412 368 L412 354 L407 349 L402 349 L397 353 L395 350 L397 340 L403 334 L412 330 L414 331 L415 335 L414 341 Z M82 333 L98 341 L98 333 L101 330 L115 339 L118 345 L117 352 L114 353 L111 349 L105 349 L100 356 L101 370 L109 386 L119 399 L121 399 L127 405 L144 412 L158 414 L158 417 L143 417 L127 413 L113 406 L102 396 L94 384 L85 362 L81 336 Z M344 308 L341 316 L330 325 L314 332 L304 332 L298 338 L286 342 L282 341 L281 338 L282 335 L299 331 L299 329 L294 323 L293 320 L294 317 L298 318 L303 323 L313 324 L329 317 L335 313 L335 311 L341 306 Z M169 307 L171 306 L177 311 L177 313 L199 324 L207 324 L216 317 L219 317 L220 319 L218 324 L212 330 L208 332 L199 332 L183 325 L174 319 L169 312 Z M309 319 L305 320 L296 313 L287 313 L279 316 L272 315 L271 313 L273 310 L294 305 L302 308 L307 313 Z M204 319 L206 312 L215 306 L222 305 L234 308 L236 310 L235 315 L226 313 L216 313 L207 320 Z M322 303 L327 313 L319 318 L314 319 L310 309 Z M191 303 L202 309 L199 319 L196 319 L185 313 L185 311 L188 310 Z M177 291 L180 289 L190 289 L210 300 L211 303 L206 306 L190 297 L182 296 Z M335 291 L330 296 L323 297 L307 306 L301 303 L304 299 L320 290 L329 288 Z M363 277 L363 282 L340 303 L332 308 L329 308 L326 305 L330 300 L345 289 L359 275 Z M89 272 L91 273 L92 281 L99 292 L99 299 L97 303 L99 312 L104 316 L105 320 L108 320 L108 311 L112 306 L117 317 L128 333 L131 345 L130 353 L127 359 L118 365 L104 362 L104 355 L107 352 L110 353 L110 359 L115 359 L120 355 L121 342 L118 336 L103 328 L97 322 L94 326 L92 326 L84 318 L82 312 L83 298 L88 292 L86 279 Z M423 271 L427 283 L425 292 L428 295 L431 304 L430 313 L427 320 L422 325 L418 326 L416 322 L411 327 L403 330 L394 337 L391 343 L391 350 L393 355 L398 359 L404 358 L402 354 L405 352 L409 357 L408 363 L404 362 L402 364 L395 365 L390 363 L385 358 L382 350 L382 342 L385 333 L395 318 L400 306 L403 308 L405 313 L404 321 L408 319 L408 317 L413 313 L415 309 L415 301 L413 295 L416 287 L420 282 L421 272 Z M363 260 L365 260 L369 264 L375 265 L373 269 L367 275 L363 272 L355 271 L356 268 Z M395 253 L396 258 L394 263 L390 267 L385 267 L384 275 L375 286 L367 292 L361 292 L360 290 L365 285 L366 282 L371 278 L374 272 L378 269 L381 262 L386 260 Z M117 252 L121 256 L131 262 L134 269 L138 272 L138 274 L142 277 L142 279 L146 282 L147 285 L152 290 L151 292 L143 291 L141 288 L137 286 L127 272 L128 267 L122 267 L119 264 L116 257 Z M375 242 L377 245 L367 250 L353 265 L351 269 L351 277 L347 280 L344 276 L344 267 L348 259 L361 245 L367 242 Z M136 243 L145 242 L150 244 L166 261 L169 269 L168 276 L165 280 L160 278 L159 281 L186 304 L183 308 L180 308 L171 302 L149 282 L148 279 L152 275 L157 274 L158 264 L145 250 L137 247 L135 245 Z M370 236 L374 235 L375 237 L371 238 Z M138 236 L141 235 L142 237 L139 238 Z M366 202 L376 213 L389 224 L392 229 L394 237 L393 247 L391 251 L386 256 L382 258 L376 258 L374 261 L370 260 L367 255 L378 250 L381 247 L382 237 L377 232 L369 232 L364 237 L364 239 L357 244 L354 242 L353 238 L354 231 L357 225 L365 227 L363 219 L365 216 L364 204 Z M147 201 L147 215 L149 218 L148 227 L154 224 L156 225 L159 233 L158 243 L155 244 L143 232 L136 232 L130 238 L130 244 L132 248 L143 255 L144 262 L149 260 L155 268 L154 271 L149 272 L145 275 L136 265 L135 262 L137 261 L137 259 L127 256 L121 250 L119 245 L119 233 L125 222 L138 212 Z M256 17 L242 61 L249 71 L236 87 L231 85 L223 117 L214 116 L212 128 L219 143 L187 144 L175 157 L184 219 L183 280 L187 206 L178 162 L182 151 L188 148 L197 160 L189 163 L192 174 L322 175 L329 205 L330 280 L333 208 L327 175 L337 170 L338 153 L330 145 L294 143 L301 129 L299 116 L290 118 L289 100 L282 85 L277 87 L264 71 L270 67 L270 58 Z M295 122 L297 124 L297 131 L295 136 L286 144 L275 145 L274 143 L280 136 L281 126 L282 125 L285 126 L289 123 Z M197 149 L249 146 L253 141 L248 137 L245 129 L247 122 L257 113 L267 126 L267 133 L260 141 L264 146 L270 148 L328 148 L334 153 L335 164 L330 171 L200 171 L200 155 Z M256 95 L269 110 L269 113 L273 114 L277 122 L278 128 L276 135 L269 142 L267 140 L271 133 L270 122 L257 107 L243 122 L242 134 L246 140 L245 142 L239 138 L235 129 L238 117 L241 113 L244 113 L244 110 Z M257 36 L263 52 L263 58 L267 61 L261 66 L260 71 L272 85 L271 100 L273 100 L278 92 L280 93 L285 103 L284 108 L286 109 L287 116 L282 124 L275 112 L275 106 L271 107 L256 87 L243 106 L238 106 L238 112 L232 123 L232 133 L238 143 L236 145 L227 144 L218 136 L216 124 L218 122 L227 125 L229 124 L226 111 L229 107 L228 101 L234 92 L238 95 L240 100 L242 100 L241 85 L252 73 L252 66 L247 63 L246 60 L250 57 L255 37 Z"/></svg>
