<svg xmlns="http://www.w3.org/2000/svg" width="512" height="512" viewBox="0 0 512 512" aria-hidden="true" focusable="false"><path fill="currentColor" fill-rule="evenodd" clip-rule="evenodd" d="M399 414 L399 415 L408 414 L412 416 L415 420 L414 428 L416 429 L418 425 L418 420 L414 415 L409 412 L403 412 Z M145 409 L145 416 L148 420 L152 422 L157 422 L162 420 L162 419 L151 420 L147 416 L147 410 L149 408 L153 409 L150 413 L152 413 L153 415 L156 414 L155 407 L149 406 Z M275 177 L281 176 L281 175 L277 175 Z M219 170 L222 174 L232 172 L233 174 L229 176 L235 176 L236 172 L243 174 L240 168 L237 167 L230 167 L226 170 L220 169 Z M267 172 L267 174 L272 172 L281 172 L289 174 L290 171 L286 171 L277 166 L270 168 Z M265 159 L266 161 L271 158 L282 158 L292 162 L290 157 L286 153 L281 151 L272 152 Z M219 161 L222 161 L228 158 L235 160 L236 158 L245 161 L245 158 L238 152 L230 151 L225 153 Z M255 17 L232 58 L233 70 L241 79 L219 91 L207 77 L201 111 L191 110 L194 136 L177 135 L160 141 L153 126 L137 122 L121 132 L110 150 L119 167 L139 179 L156 177 L198 156 L198 199 L202 208 L169 225 L157 222 L158 239 L127 312 L127 345 L119 358 L101 362 L89 375 L90 403 L82 412 L81 429 L86 450 L93 458 L102 460 L117 474 L134 475 L150 488 L183 485 L193 494 L215 491 L227 496 L242 494 L254 484 L276 496 L295 491 L313 495 L328 485 L357 489 L378 475 L401 473 L422 457 L433 421 L429 408 L414 397 L418 389 L414 369 L402 359 L391 358 L383 346 L383 313 L362 255 L351 238 L353 222 L341 225 L309 209 L309 182 L315 156 L352 176 L371 179 L389 170 L400 149 L390 132 L374 122 L359 125 L347 139 L317 136 L320 110 L309 111 L303 77 L291 91 L270 79 L277 71 L278 57 Z M364 481 L362 484 L355 486 L348 485 L349 482 L358 482 L362 480 Z M137 472 L139 471 L140 473 L138 474 Z M266 465 L265 467 L256 471 L249 468 L250 466 L256 468 L263 464 Z M240 463 L242 462 L245 465 L243 466 Z M231 461 L232 465 L229 466 L229 468 L225 470 L224 473 L225 478 L223 479 L221 476 L220 466 L218 462 L219 461 L226 462 Z M274 458 L275 460 L269 464 L268 462 Z M244 459 L246 458 L249 459 L250 461 L247 462 Z M233 458 L235 457 L238 460 L236 461 Z M254 454 L258 455 L257 462 L255 461 L253 457 Z M293 454 L292 456 L287 458 L282 457 L283 455 L291 453 Z M217 454 L219 453 L225 455 L226 457 L223 458 L218 456 Z M303 450 L305 449 L306 451 L304 452 Z M283 448 L284 452 L280 453 L279 451 Z M223 449 L227 448 L229 452 L226 453 L223 451 Z M199 448 L203 447 L204 450 L201 451 Z M297 447 L299 446 L300 448 L298 449 Z M210 447 L212 446 L213 448 L211 449 Z M272 445 L273 448 L269 449 L266 455 L264 455 L261 452 L264 448 Z M237 446 L240 445 L246 448 L248 451 L245 454 L241 455 L240 454 L241 450 L238 449 Z M263 445 L257 451 L253 451 L251 449 L252 447 L256 448 L261 444 Z M302 443 L304 442 L305 444 L303 445 Z M214 443 L217 442 L218 445 L216 446 Z M314 442 L316 441 L317 444 L315 445 Z M295 441 L296 444 L289 450 L287 447 L291 445 L293 441 Z M264 444 L267 441 L269 442 L266 445 Z M241 442 L243 441 L249 444 L251 447 L249 448 L242 444 Z M323 447 L323 443 L326 440 L333 442 L332 444 L328 445 L325 448 Z M179 442 L184 440 L185 443 L187 444 L187 447 L185 448 Z M89 441 L90 440 L101 441 L106 439 L109 442 L109 452 L113 461 L122 468 L132 469 L133 471 L123 472 L117 470 L108 463 L107 456 L99 457 L94 455 L91 452 L89 447 Z M375 456 L375 464 L372 470 L358 479 L341 478 L319 463 L309 463 L301 470 L301 480 L306 484 L314 483 L316 475 L312 474 L313 479 L308 481 L303 475 L305 470 L310 466 L318 465 L331 473 L333 479 L338 478 L346 481 L346 486 L326 480 L324 485 L316 491 L304 491 L294 484 L292 490 L273 492 L265 489 L256 478 L257 474 L278 462 L292 460 L287 479 L285 478 L286 472 L283 469 L281 481 L275 481 L273 476 L276 474 L271 474 L271 481 L274 484 L284 485 L290 481 L297 461 L309 454 L323 455 L340 470 L352 471 L361 461 L356 452 L349 452 L347 458 L353 454 L358 459 L357 463 L351 468 L344 468 L336 462 L334 457 L328 454 L327 450 L330 447 L337 448 L347 438 L363 440 L366 447 Z M318 439 L321 438 L322 440 L319 441 Z M276 439 L274 442 L271 443 L269 442 L270 440 L274 438 Z M260 439 L262 438 L263 440 L261 441 Z M247 439 L249 438 L250 440 L248 441 Z M186 439 L189 438 L190 440 L187 441 Z M233 438 L235 437 L239 441 L237 442 Z M136 456 L149 439 L163 438 L173 448 L180 447 L182 454 L175 457 L171 465 L161 467 L156 463 L155 456 L162 454 L165 458 L165 454 L162 451 L153 453 L151 460 L155 468 L169 470 L183 457 L190 454 L201 454 L214 462 L222 483 L234 485 L239 481 L238 473 L234 474 L237 477 L235 481 L231 481 L227 477 L228 469 L237 467 L251 473 L253 481 L246 488 L237 492 L224 492 L218 490 L215 485 L206 491 L195 491 L187 486 L185 480 L169 486 L157 486 L146 482 L140 476 L143 474 L153 478 L167 478 L187 467 L197 465 L206 471 L207 476 L203 481 L199 481 L197 479 L198 474 L195 474 L194 480 L198 484 L204 484 L209 480 L210 472 L202 463 L191 463 L169 475 L153 475 L139 466 Z M207 439 L208 436 L213 437 L211 441 Z M197 436 L198 439 L196 443 L191 447 L190 444 L193 438 Z M394 437 L396 439 L398 446 L396 454 L392 459 L386 462 L380 462 L378 454 L384 453 L388 451 L390 448 L390 443 L388 441 L385 441 L383 443 L382 438 L386 435 Z M298 436 L301 435 L303 439 L300 440 Z M253 435 L256 435 L258 437 L256 441 L254 441 L251 438 Z M142 436 L144 435 L145 437 L143 438 Z M271 434 L272 436 L269 438 L268 436 Z M110 434 L112 433 L113 435 L111 436 Z M290 431 L291 433 L287 436 L287 439 L289 439 L290 442 L287 445 L284 445 L283 443 L279 443 L278 442 L279 437 L285 432 Z M230 432 L232 431 L235 436 L233 437 Z M280 430 L281 432 L277 435 L276 433 Z M147 431 L149 430 L152 434 L149 435 Z M121 431 L132 430 L136 432 L139 436 L140 443 L134 450 L131 451 L128 449 L127 447 L128 442 L126 442 L124 445 L125 451 L133 455 L134 463 L133 466 L127 466 L122 464 L116 459 L113 454 L112 445 L114 438 Z M336 430 L335 432 L336 436 L333 438 L330 438 L324 435 L325 433 L333 429 Z M281 429 L283 428 L284 430 L282 431 Z M272 428 L275 429 L273 433 L271 432 Z M235 428 L239 429 L239 433 L241 435 L240 437 L237 435 L234 430 Z M214 430 L218 427 L221 431 L230 436 L231 442 L225 445 L223 441 L223 435 L217 434 L215 436 L213 434 Z M168 433 L171 431 L173 427 L175 427 L176 429 L184 433 L185 435 L180 438 L176 438 L175 433 L172 433 L170 435 Z M297 426 L299 425 L300 428 L298 429 Z M222 426 L224 425 L227 429 L224 430 Z M132 426 L134 425 L135 427 L133 428 Z M241 429 L245 427 L246 429 L244 431 L249 432 L252 426 L256 424 L261 432 L265 432 L266 434 L260 435 L256 430 L254 430 L250 435 L245 435 L242 433 Z M210 425 L212 424 L213 427 L211 428 Z M129 425 L131 424 L132 426 L130 427 Z M279 424 L281 423 L282 425 L280 426 Z M246 424 L248 423 L249 425 L247 426 Z M227 424 L229 423 L231 426 L229 427 Z M308 430 L308 427 L312 425 L313 422 L316 423 L316 426 L318 428 L324 427 L327 424 L330 426 L327 429 L315 433 L310 433 Z M307 423 L309 422 L310 424 L308 425 Z M202 427 L199 433 L190 432 L185 429 L186 427 L192 427 L195 422 L197 423 L198 427 L200 426 Z M178 422 L182 424 L181 428 L176 425 Z M268 422 L267 425 L264 425 L262 427 L260 426 L260 424 L263 421 Z M383 420 L393 420 L399 423 L404 429 L404 435 L406 440 L412 442 L425 442 L425 446 L421 454 L414 457 L408 456 L408 463 L404 467 L393 472 L379 472 L376 469 L378 465 L391 463 L397 458 L400 451 L400 444 L397 437 L390 433 L385 433 L381 435 L379 442 L381 445 L386 447 L382 451 L379 451 L372 446 L369 440 L370 432 L373 427 Z M242 420 L245 419 L246 421 L243 422 Z M255 418 L257 419 L256 423 L253 422 Z M125 419 L126 418 L129 419 L130 423 L126 424 Z M223 417 L225 416 L226 418 L224 419 Z M207 417 L209 416 L210 418 L208 419 Z M212 415 L215 414 L216 418 L213 419 Z M278 414 L280 413 L281 415 L279 416 Z M264 415 L266 413 L268 414 L273 413 L277 417 L278 422 L275 425 L272 425 L271 423 L274 422 L275 420 L271 417 L265 417 Z M245 414 L246 415 L245 417 L239 417 L235 420 L236 422 L240 423 L239 425 L236 426 L232 423 L232 418 L235 414 L237 413 Z M379 413 L381 412 L382 414 L380 415 Z M327 415 L328 412 L331 413 L329 416 Z M186 412 L194 418 L194 420 L192 421 L190 425 L185 424 L181 420 L181 418 L185 416 Z M178 413 L181 412 L183 415 L181 416 Z M325 410 L326 411 L325 417 L328 417 L329 419 L323 425 L319 425 L315 418 Z M295 409 L297 410 L298 420 L296 422 L293 422 L292 420 L294 417 L291 414 L291 412 Z M213 410 L215 409 L216 411 L214 412 Z M254 407 L258 409 L256 413 L252 411 Z M380 407 L383 406 L384 409 L381 410 Z M279 406 L280 410 L277 413 L275 413 L273 410 L276 406 Z M239 407 L243 406 L246 409 L242 410 Z M287 406 L289 405 L290 407 L288 408 Z M265 406 L269 405 L270 408 L266 409 Z M231 403 L237 410 L234 413 L229 410 Z M107 403 L112 405 L121 415 L123 420 L122 427 L113 433 L112 432 L113 425 L111 420 L107 417 L100 416 L96 419 L96 425 L99 428 L101 428 L102 426 L100 426 L98 422 L101 418 L105 418 L110 425 L109 430 L103 437 L95 438 L90 436 L86 432 L84 427 L85 414 L92 406 L98 403 Z M218 401 L223 402 L221 411 L217 408 Z M397 403 L404 400 L411 400 L420 404 L425 409 L429 417 L429 427 L428 431 L426 432 L424 436 L417 439 L411 438 L407 433 L407 429 L411 427 L411 425 L405 425 L400 420 L388 416 L394 409 Z M268 401 L272 400 L274 404 L272 405 Z M240 400 L242 403 L237 405 L236 402 Z M287 394 L290 397 L291 400 L290 402 L287 401 L286 397 Z M256 390 L260 394 L261 399 L258 400 L256 396 L254 395 L252 401 L250 402 L249 396 L254 390 Z M215 390 L217 389 L218 392 L216 393 Z M130 388 L132 387 L133 389 L131 390 Z M376 387 L378 386 L379 388 L377 389 Z M247 386 L249 389 L246 390 L245 393 L243 394 L242 391 L244 387 Z M400 385 L402 385 L405 388 L404 395 L401 398 L398 397 Z M263 385 L265 386 L268 392 L268 396 L266 400 L263 397 L264 391 L260 389 Z M302 387 L303 384 L306 385 L304 388 Z M219 385 L223 384 L224 389 L222 390 L219 387 Z M203 385 L207 384 L208 387 L205 388 Z M259 383 L260 385 L257 387 L256 385 Z M251 382 L253 383 L252 387 L250 386 Z M286 382 L288 381 L290 385 L287 386 Z M211 382 L213 381 L214 383 L212 384 Z M379 378 L381 377 L382 379 L380 380 Z M125 378 L127 377 L129 380 L126 381 Z M206 376 L208 375 L209 377 L207 378 Z M235 373 L241 377 L243 381 L243 385 L240 389 L239 397 L231 400 L230 399 L231 376 Z M257 373 L262 373 L264 378 L272 375 L275 372 L278 373 L279 396 L280 397 L279 400 L271 397 L270 390 L267 386 L267 382 L265 381 L262 383 L256 376 Z M265 373 L268 372 L269 374 L266 375 Z M241 373 L242 372 L253 373 L254 376 L247 383 L243 380 L244 378 L246 378 L246 376 L242 375 Z M308 370 L310 369 L311 372 L309 373 Z M308 378 L319 372 L336 368 L351 370 L362 376 L372 386 L377 399 L376 414 L368 429 L362 434 L358 434 L368 419 L361 406 L354 408 L354 414 L356 414 L357 408 L363 411 L361 418 L349 421 L357 422 L362 418 L365 421 L355 432 L348 435 L336 427 L342 420 L334 425 L330 423 L330 420 L335 418 L335 414 L329 409 L329 403 L317 414 L307 419 L303 394 L321 382 L332 380 L332 378 L311 383 L306 381 Z M300 369 L302 368 L303 370 L301 371 Z M197 375 L204 381 L197 383 L178 378 L178 380 L189 382 L207 394 L203 419 L182 405 L183 409 L176 411 L175 420 L165 435 L156 433 L144 419 L142 420 L146 427 L143 429 L140 427 L134 416 L132 403 L135 391 L143 380 L159 370 L168 368 L182 369 Z M195 367 L197 366 L199 370 L197 371 Z M313 369 L315 365 L321 366 L320 368 L316 370 Z M245 366 L247 365 L248 367 L246 368 Z M361 365 L363 364 L364 366 L362 367 Z M265 364 L266 366 L263 368 L262 366 Z M185 365 L188 364 L189 366 L186 367 Z M352 364 L354 363 L358 368 L356 369 L352 366 Z M326 363 L328 362 L330 365 L327 366 Z M394 361 L404 364 L410 369 L415 383 L413 389 L408 388 L404 383 L399 382 L397 372 L393 363 Z M115 361 L116 365 L111 378 L111 398 L112 400 L111 401 L106 400 L105 398 L108 396 L108 394 L104 395 L102 394 L104 385 L102 385 L100 389 L100 396 L98 397 L98 399 L93 400 L90 392 L90 384 L93 375 L104 364 Z M137 360 L139 359 L140 361 L138 362 Z M313 362 L317 358 L324 359 L322 363 Z M270 358 L274 359 L274 363 L276 365 L275 367 L269 364 Z M254 358 L258 360 L258 365 L256 367 L249 365 L249 362 Z M186 359 L193 358 L197 362 L196 363 L189 362 Z M232 360 L237 357 L240 358 L242 367 L241 368 L235 367 L232 363 Z M347 356 L350 358 L348 361 L345 359 Z M153 357 L155 356 L156 359 L154 360 Z M193 356 L195 355 L196 357 L194 358 Z M163 355 L165 358 L153 369 L152 367 Z M188 351 L180 360 L175 363 L173 362 L186 350 Z M321 350 L323 349 L339 363 L337 364 L330 360 Z M249 351 L251 347 L259 348 L258 353 L250 353 Z M244 347 L246 346 L247 348 L245 349 Z M181 345 L183 347 L182 350 L174 357 L171 358 L170 355 L175 348 L175 346 Z M326 346 L333 344 L340 357 L338 358 L333 355 L327 349 Z M143 346 L144 347 L143 350 L117 376 L116 374 L118 368 L125 354 L128 351 L131 352 L132 347 L135 344 L140 347 Z M366 346 L371 346 L374 343 L378 348 L379 354 L383 353 L386 356 L394 375 L393 377 L391 376 L386 368 L370 354 L365 348 Z M357 343 L359 342 L360 344 L358 345 Z M140 342 L142 341 L143 343 L141 344 Z M364 336 L367 335 L368 338 L365 339 Z M142 336 L144 335 L146 338 L143 339 Z M353 333 L355 332 L356 334 L354 335 Z M351 329 L353 328 L354 330 L352 331 Z M345 326 L347 325 L348 327 L346 328 Z M332 325 L336 326 L336 329 L346 351 L344 355 L341 353 L331 329 Z M162 326 L164 325 L165 327 L163 328 Z M349 321 L351 322 L353 326 L352 328 L350 327 L348 323 Z M160 320 L162 319 L163 321 L161 322 Z M346 319 L348 318 L349 320 L347 321 Z M342 318 L343 320 L340 322 L339 320 Z M326 318 L327 317 L330 318 L331 322 L329 323 Z M332 339 L328 342 L327 338 L325 338 L315 350 L304 356 L302 355 L304 351 L292 354 L283 354 L276 352 L275 349 L272 347 L273 345 L280 345 L286 348 L291 344 L297 342 L303 335 L310 333 L309 331 L305 331 L294 336 L290 336 L287 331 L288 328 L302 322 L309 317 L316 317 L322 320 L326 325 Z M178 338 L183 326 L188 320 L194 317 L201 317 L209 323 L215 325 L216 329 L222 328 L223 331 L220 333 L219 336 L216 336 L205 331 L201 331 L200 333 L207 335 L211 341 L223 347 L230 345 L237 345 L238 347 L233 352 L227 354 L218 354 L206 351 L206 353 L208 353 L209 355 L205 356 L195 350 L184 337 L182 337 L182 342 L179 341 Z M168 317 L170 318 L169 323 L166 321 Z M185 315 L186 317 L179 326 L170 350 L166 351 L165 348 L174 326 L176 325 L178 320 Z M160 311 L161 316 L155 324 L151 335 L148 336 L146 334 L140 334 L139 332 L144 323 L153 314 Z M309 307 L311 306 L312 308 L310 309 Z M196 303 L198 302 L199 305 L197 306 Z M328 301 L330 300 L331 302 L329 303 Z M178 300 L180 299 L181 301 L179 302 Z M167 299 L171 298 L173 301 L171 302 L168 301 Z M346 298 L348 297 L349 299 L347 300 Z M160 298 L163 297 L164 299 L161 300 Z M345 297 L344 300 L339 302 L337 301 L342 296 Z M309 292 L301 318 L285 325 L282 329 L284 336 L282 339 L267 343 L242 343 L227 339 L227 328 L225 325 L214 322 L209 318 L201 298 L202 294 L206 294 L212 299 L232 307 L267 309 L285 305 L296 300 L307 291 Z M167 291 L175 288 L178 294 L174 297 L169 294 Z M337 287 L338 289 L341 290 L341 293 L334 298 L331 295 L334 289 Z M317 287 L319 288 L319 301 L318 302 L312 300 L313 289 Z M192 287 L197 289 L198 300 L194 301 L193 303 L191 302 L191 288 Z M305 286 L295 296 L287 300 L285 299 L287 296 L286 291 L288 289 L292 289 L301 285 Z M205 286 L208 285 L222 290 L223 296 L225 299 L223 300 L215 296 Z M163 285 L165 286 L164 290 L161 289 Z M342 283 L343 285 L340 288 L339 285 Z M185 284 L187 283 L188 286 L186 287 Z M168 283 L170 284 L169 288 L167 287 Z M322 283 L324 282 L325 284 L323 285 Z M312 283 L314 282 L315 284 L313 285 Z M195 283 L197 282 L198 284 L196 285 Z M162 280 L164 279 L165 282 L163 283 Z M347 278 L349 279 L348 281 L349 289 L348 290 L345 288 L344 282 Z M353 276 L357 275 L358 277 L354 278 Z M310 275 L314 276 L312 283 L308 280 Z M199 275 L201 276 L202 279 L200 282 L197 279 Z M153 276 L155 275 L156 277 L154 278 Z M275 274 L277 273 L278 275 L276 276 Z M227 292 L231 284 L239 277 L249 273 L260 273 L272 278 L280 286 L283 294 L278 298 L268 301 L250 302 L232 298 L227 295 Z M231 273 L233 272 L235 275 L233 276 Z M317 271 L319 270 L320 272 L318 273 Z M205 271 L206 270 L210 271 L217 270 L228 276 L230 280 L225 287 L209 282 L204 278 Z M324 270 L326 269 L327 271 L325 272 Z M306 270 L306 278 L304 281 L301 281 L285 287 L280 280 L281 277 L291 272 L294 269 L297 270 L305 269 Z M284 270 L286 269 L287 271 L285 272 Z M309 270 L311 267 L317 268 L316 270 L311 271 Z M219 268 L222 267 L224 270 L222 271 Z M253 266 L256 265 L257 268 L254 269 Z M192 264 L194 265 L193 268 L190 267 Z M243 263 L246 270 L238 273 L235 270 L236 266 Z M329 262 L330 265 L327 268 L326 266 L327 263 Z M316 262 L319 264 L318 268 L316 267 L315 264 Z M295 263 L297 262 L301 265 L300 268 L297 267 Z M215 263 L215 265 L211 268 L204 266 L206 263 L209 265 L213 262 Z M322 262 L324 261 L325 263 L323 264 Z M268 260 L270 261 L272 266 L276 267 L273 273 L263 270 Z M272 260 L274 259 L277 262 L273 263 Z M311 258 L312 260 L309 264 L304 267 L302 264 Z M331 257 L332 260 L329 262 L328 259 Z M226 258 L228 257 L229 259 L227 260 Z M198 258 L202 257 L203 260 L200 262 Z M295 258 L299 256 L301 259 L296 260 Z M276 257 L278 256 L280 259 L278 260 Z M238 257 L240 256 L241 258 L239 259 Z M209 257 L213 255 L215 258 L210 259 Z M283 254 L286 255 L284 259 L282 258 Z M305 256 L306 253 L309 254 L307 257 Z M271 253 L273 254 L272 259 L269 258 Z M339 252 L340 254 L335 258 L334 255 L337 252 Z M324 251 L326 253 L326 257 L321 260 L320 259 L322 257 L321 253 Z M230 251 L231 253 L228 255 L227 253 Z M211 252 L206 257 L202 256 L203 253 L206 253 L208 251 Z M185 251 L189 253 L189 256 L191 259 L190 261 L184 257 Z M171 251 L182 259 L184 266 L183 268 L181 267 L179 261 L170 254 Z M238 250 L240 255 L235 256 L237 259 L237 262 L235 263 L232 261 L231 258 L234 252 Z M302 249 L303 252 L300 254 L299 251 Z M288 250 L290 249 L291 251 L289 252 Z M284 249 L286 248 L287 250 L285 251 Z M224 248 L226 247 L227 249 L225 250 Z M217 248 L221 247 L222 251 L220 252 Z M158 247 L162 248 L166 255 L177 264 L183 290 L179 290 L172 274 L171 281 L166 278 L165 275 L169 272 L167 267 L162 267 L158 273 L150 275 L149 279 L152 283 L156 283 L158 280 L160 281 L160 287 L158 289 L159 297 L157 300 L151 301 L141 307 L140 311 L152 304 L162 303 L163 305 L152 311 L144 319 L137 332 L140 334 L140 340 L137 341 L131 337 L130 315 L133 305 L140 292 L150 259 L155 249 Z M329 247 L331 246 L332 249 L330 250 Z M234 247 L236 246 L238 249 L236 250 Z M177 246 L179 247 L180 251 L179 253 L175 250 Z M202 245 L206 246 L206 249 L204 252 L201 249 Z M350 243 L360 259 L370 292 L379 312 L380 325 L378 341 L373 341 L372 344 L367 343 L370 339 L369 334 L364 334 L360 337 L351 318 L348 315 L346 318 L344 317 L346 310 L357 314 L367 325 L370 332 L372 332 L366 319 L359 312 L347 306 L348 303 L353 303 L370 311 L363 303 L352 300 L350 297 L351 287 L349 282 L352 280 L354 283 L358 283 L361 277 L358 276 L357 273 L351 273 L348 267 L342 268 L342 273 L344 273 L345 276 L339 281 L339 274 L337 274 L332 288 L330 289 L328 287 L333 264 L344 255 Z M332 244 L334 243 L335 245 L333 246 Z M175 243 L177 242 L178 245 L176 246 Z M293 241 L295 240 L296 242 L294 243 Z M169 241 L171 240 L172 242 L170 243 Z M342 239 L343 241 L341 245 L339 246 L338 242 Z M280 240 L282 239 L283 242 L281 243 Z M276 236 L279 246 L273 250 L272 249 L273 239 Z M218 236 L220 239 L215 244 L214 243 L215 239 Z M298 236 L300 235 L301 237 L299 238 Z M235 232 L236 242 L233 244 L232 243 L233 233 Z M313 231 L315 230 L316 232 L314 233 Z M208 229 L211 230 L210 235 L208 234 L207 231 Z M326 229 L324 235 L319 240 L315 242 L309 241 L310 239 L317 238 L322 233 L324 228 Z M308 229 L310 228 L311 231 L309 232 Z M302 228 L303 232 L300 235 L299 230 Z M184 229 L186 228 L188 233 L193 238 L202 239 L203 241 L195 242 L191 240 L186 235 Z M285 227 L286 230 L282 234 L281 233 L282 228 Z M348 226 L349 236 L346 246 L342 250 L341 247 L345 236 L345 232 L343 231 L343 229 Z M162 226 L169 232 L168 234 L165 233 L165 239 L169 246 L168 250 L165 248 L161 236 Z M312 226 L314 225 L315 228 L313 229 Z M224 225 L228 226 L227 232 L223 228 Z M200 225 L201 229 L198 230 L197 233 L195 233 L194 228 Z M336 225 L339 228 L338 238 L337 239 L332 238 L326 249 L323 248 L320 250 L319 256 L316 257 L314 251 L316 244 L324 239 L330 226 L332 226 L333 224 Z M324 225 L326 224 L327 227 L325 228 Z M174 225 L180 223 L183 235 L188 241 L194 245 L194 247 L197 248 L194 258 L192 257 L192 253 L188 248 L184 249 L181 248 L180 240 L178 238 L174 240 L171 237 L173 234 L171 232 L171 228 Z M189 222 L192 224 L190 229 L188 228 Z M322 218 L323 222 L322 227 L320 228 L318 224 L320 222 L320 219 Z M187 219 L189 218 L190 221 L188 222 Z M310 215 L313 214 L316 217 L311 219 Z M302 213 L306 214 L306 222 L304 225 L300 224 Z M251 209 L258 208 L259 210 L253 212 Z M301 208 L303 207 L305 210 L302 211 Z M207 207 L209 208 L209 221 L210 222 L209 226 L205 225 L204 220 L204 211 Z M262 206 L270 204 L273 207 L276 218 L276 225 L274 227 L272 226 L268 219 L266 219 L264 222 L258 221 L256 219 L265 210 L260 209 Z M248 206 L250 209 L245 210 L254 219 L251 222 L242 219 L238 225 L235 225 L234 217 L237 207 L240 204 Z M249 200 L252 197 L258 197 L261 201 L258 203 L252 203 Z M305 184 L307 186 L309 198 L308 201 L303 204 L301 202 L301 188 Z M205 184 L209 187 L209 202 L207 204 L202 200 L202 192 Z M304 181 L306 180 L307 182 L305 183 Z M300 177 L302 176 L303 178 L301 179 Z M207 176 L209 175 L210 178 L208 179 Z M370 174 L373 173 L374 175 L371 176 Z M359 174 L365 173 L366 175 L360 176 Z M145 174 L151 173 L152 175 L146 176 Z M136 174 L140 173 L141 175 L137 176 Z M356 173 L358 172 L359 174 L357 175 Z M152 173 L154 172 L155 174 L153 175 Z M133 173 L135 172 L136 174 L134 175 Z M375 174 L378 171 L380 172 L377 175 Z M127 170 L129 169 L130 171 L128 172 Z M150 169 L152 168 L153 170 L151 171 Z M375 168 L377 167 L378 169 L376 170 Z M309 166 L310 167 L308 176 L306 177 L303 169 L306 166 Z M130 166 L132 165 L133 167 L131 168 Z M370 164 L373 166 L371 170 L368 168 Z M138 165 L140 164 L142 168 L139 169 Z M363 163 L365 164 L364 168 L361 167 Z M152 163 L158 162 L159 164 L153 165 Z M146 162 L149 164 L149 167 L147 169 L145 168 Z M377 161 L380 160 L381 162 L378 163 Z M302 162 L304 160 L309 161 L308 164 L303 164 Z M206 160 L207 162 L205 166 L207 168 L207 171 L203 175 L201 172 L200 164 L203 160 Z M131 161 L133 160 L134 162 L132 163 Z M381 160 L383 159 L384 161 L382 162 Z M341 159 L342 158 L347 159 L348 162 L345 163 Z M164 157 L166 158 L165 163 L163 162 Z M155 158 L159 157 L160 159 L156 160 Z M353 156 L356 158 L355 162 L357 163 L356 165 L353 165 L350 162 L350 159 Z M379 153 L383 152 L385 154 L385 158 L383 159 Z M341 153 L343 152 L344 154 L342 155 Z M138 152 L141 154 L140 158 L137 156 Z M375 152 L378 151 L379 153 L376 154 Z M350 152 L353 151 L354 153 L351 154 Z M336 151 L339 152 L338 157 L334 155 Z M114 151 L116 150 L117 152 L115 153 Z M386 152 L387 149 L390 150 L388 153 Z M142 150 L146 149 L147 152 L143 153 Z M121 150 L123 149 L124 152 L122 153 Z M364 150 L369 148 L372 154 L370 155 Z M344 149 L347 148 L349 150 L349 153 L346 154 Z M166 149 L166 151 L162 152 L161 155 L157 153 L161 149 L164 148 Z M359 147 L362 149 L360 158 L357 155 L357 150 Z M324 149 L326 147 L329 148 L328 151 L325 151 Z M150 147 L154 149 L153 155 L151 154 L149 150 Z M186 146 L187 149 L184 151 L183 148 Z M173 146 L176 149 L177 154 L170 159 L169 157 L171 154 L171 150 L169 148 Z M372 148 L373 145 L377 146 L375 149 Z M331 145 L334 144 L335 146 L332 147 Z M176 145 L179 144 L180 147 L178 148 Z M376 144 L379 143 L380 145 L377 146 Z M132 144 L136 143 L138 145 L138 148 L137 149 L134 148 Z M383 143 L385 142 L386 145 L384 146 Z M219 146 L237 139 L273 139 L294 149 L298 198 L294 211 L285 221 L281 202 L284 196 L269 192 L270 186 L262 180 L262 166 L261 183 L267 190 L254 194 L245 191 L243 188 L248 183 L243 183 L240 193 L226 196 L229 199 L227 220 L218 214 L213 203 L212 184 L213 165 Z M381 138 L383 137 L384 139 L382 140 Z M132 134 L133 136 L128 141 L128 146 L134 151 L134 153 L130 154 L128 156 L128 159 L126 160 L125 155 L128 152 L128 150 L125 146 L125 140 L130 134 Z M266 134 L270 133 L271 135 L267 136 Z M240 134 L243 133 L244 135 L241 136 Z M153 134 L155 133 L156 135 L154 136 Z M218 133 L220 132 L221 134 L219 135 Z M259 132 L262 131 L264 134 L260 135 Z M246 133 L248 131 L256 132 L257 136 L253 137 L251 135 L247 135 Z M373 131 L375 135 L374 138 L368 135 L368 138 L371 139 L371 142 L368 145 L365 144 L361 145 L359 143 L360 135 L365 131 L369 130 Z M223 131 L226 130 L227 132 L224 133 Z M140 130 L146 131 L150 134 L151 143 L149 145 L143 145 L140 142 L140 139 L144 138 L143 135 L140 135 L137 138 L135 137 L135 135 Z M234 129 L237 128 L238 130 L235 131 Z M220 129 L223 128 L224 130 L221 131 Z M311 126 L314 127 L312 130 L309 129 Z M276 126 L277 130 L272 131 L271 129 Z M197 127 L199 126 L200 128 L198 129 Z M265 125 L268 126 L266 130 L263 128 Z M305 122 L307 121 L308 123 L306 124 Z M225 122 L227 121 L228 123 L226 124 Z M278 121 L281 120 L282 122 L279 123 Z M201 121 L204 120 L205 123 L202 124 Z M265 119 L269 118 L272 125 L269 126 Z M241 118 L245 119 L245 121 L243 122 L243 124 L247 127 L245 130 L243 130 L242 127 L238 125 Z M312 116 L314 117 L313 121 L310 120 Z M208 117 L210 116 L211 119 L209 120 Z M196 117 L199 116 L200 119 L197 120 Z M300 113 L302 114 L301 121 L299 120 Z M254 113 L256 113 L260 117 L260 122 L257 126 L253 126 L250 122 L250 118 Z M291 109 L292 111 L289 114 L288 112 Z M211 109 L213 110 L212 114 L209 113 Z M282 108 L285 107 L286 109 L283 110 Z M224 108 L227 107 L229 111 L225 112 Z M260 107 L262 106 L265 111 L263 112 L260 109 Z M247 107 L249 106 L250 108 L248 109 Z M267 106 L270 105 L271 108 L268 109 Z M212 106 L215 105 L220 109 L221 112 L220 113 L217 112 L215 109 L212 108 Z M304 104 L307 106 L306 109 L302 107 Z M293 107 L297 104 L299 108 L294 109 Z M242 104 L243 107 L242 111 L240 112 L239 108 L240 105 Z M206 103 L208 107 L204 110 L203 106 Z M292 101 L294 100 L295 102 L293 103 Z M288 100 L290 101 L289 106 L287 105 Z M251 103 L256 100 L259 103 L259 106 L257 107 L255 104 L252 107 Z M221 100 L223 101 L222 106 L220 105 Z M263 98 L265 97 L266 99 L264 100 Z M258 90 L261 92 L262 99 L261 101 L256 96 L256 92 Z M253 89 L255 91 L253 98 L250 101 L245 100 L244 98 L249 97 L249 93 Z M298 86 L301 87 L301 90 L299 92 L303 94 L302 101 L299 99 L299 95 L297 95 L296 100 L294 99 L294 92 Z M211 86 L216 91 L216 98 L218 99 L217 101 L214 100 L213 93 L211 93 L211 101 L209 102 L207 99 Z M261 87 L265 83 L271 83 L283 88 L288 93 L288 95 L285 100 L282 101 L280 104 L273 103 L272 100 L269 99 L267 92 L265 92 Z M251 85 L246 92 L243 92 L241 99 L237 103 L230 104 L229 101 L226 101 L222 95 L222 93 L225 90 L235 84 L245 83 L246 85 L249 84 Z M247 74 L251 72 L259 72 L263 74 L263 79 L261 81 L257 81 L255 79 L253 83 L251 84 L250 81 L247 79 Z M240 71 L242 70 L243 72 L241 73 Z M267 72 L270 69 L272 70 L269 73 Z M255 59 L260 64 L260 67 L258 69 L252 69 L250 66 L251 63 Z M262 57 L264 58 L263 61 L260 60 Z M272 56 L275 59 L275 67 L273 70 L271 69 L272 64 L269 62 L269 59 Z M237 56 L242 59 L242 61 L238 64 L239 67 L238 69 L235 66 L235 60 Z M252 52 L254 56 L246 62 L245 59 Z M254 49 L256 48 L261 55 L257 56 L256 53 L254 52 Z M243 48 L246 50 L245 55 L242 52 Z M255 27 L257 28 L262 38 L261 46 L266 44 L268 47 L268 52 L266 55 L264 54 L265 49 L264 48 L260 49 L256 43 L256 36 L255 36 L253 46 L250 49 L247 48 L249 46 L248 38 Z"/></svg>
