<svg xmlns="http://www.w3.org/2000/svg" width="512" height="512" viewBox="0 0 512 512" aria-hidden="true" focusable="false"><path fill="currentColor" fill-rule="evenodd" clip-rule="evenodd" d="M254 490 L254 495 L260 494 L260 491 Z M252 477 L252 480 L256 483 L261 481 L260 475 L255 475 Z M252 380 L246 385 L245 396 L253 404 L258 404 L263 401 L264 396 L268 395 L269 390 L267 384 L264 381 Z M256 384 L260 385 L264 389 L263 391 L259 389 L254 390 L254 392 L259 396 L258 398 L254 398 L250 394 L250 388 Z M258 366 L241 371 L234 379 L231 389 L234 405 L239 411 L249 416 L253 422 L250 428 L243 430 L236 427 L240 434 L249 435 L253 439 L252 442 L247 444 L246 448 L253 460 L255 469 L259 468 L260 461 L267 450 L267 444 L262 442 L261 439 L265 435 L276 433 L277 427 L270 430 L265 429 L261 424 L262 418 L275 411 L282 398 L282 385 L279 378 L271 370 Z M256 445 L261 448 L258 454 L256 454 L252 449 Z M256 429 L260 431 L257 435 L254 432 Z M256 371 L263 372 L270 376 L276 383 L278 390 L274 404 L269 409 L261 412 L257 417 L254 413 L246 410 L238 402 L236 395 L236 388 L239 381 L246 374 Z M438 258 L436 261 L436 265 L438 268 L443 268 L445 266 L445 260 L443 258 Z M70 258 L68 262 L68 266 L70 268 L75 268 L77 266 L77 260 L75 258 Z M412 250 L410 257 L402 261 L400 264 L406 266 L411 271 L412 276 L414 278 L417 270 L421 266 L427 265 L428 263 L419 259 L415 253 L415 250 Z M412 262 L414 261 L415 264 L413 265 Z M100 248 L97 256 L93 260 L88 261 L86 263 L87 265 L90 265 L96 269 L100 278 L103 270 L106 267 L110 265 L114 265 L114 263 L107 260 L103 256 Z M98 263 L101 262 L102 264 L99 265 Z M391 186 L388 187 L385 195 L385 207 L389 221 L388 236 L383 245 L365 264 L360 276 L360 290 L363 298 L368 302 L380 304 L384 302 L385 296 L382 295 L379 299 L376 299 L373 294 L374 289 L382 284 L392 287 L397 298 L395 308 L383 319 L375 320 L357 315 L343 314 L323 320 L303 334 L291 349 L288 359 L306 340 L318 332 L336 328 L359 331 L375 330 L390 323 L398 314 L402 301 L401 292 L392 281 L386 279 L377 280 L372 283 L368 293 L365 288 L365 276 L370 267 L381 256 L397 246 L403 236 L403 223 L390 200 Z M342 321 L351 320 L366 323 L367 325 L359 326 L351 324 L344 324 Z M395 219 L397 221 L399 230 L396 239 L393 241 L392 240 L394 231 L393 220 Z M123 186 L124 198 L122 206 L113 217 L110 233 L114 243 L122 251 L134 257 L144 267 L149 277 L149 289 L146 292 L144 286 L139 281 L127 279 L119 283 L112 295 L115 313 L125 324 L139 330 L154 331 L178 328 L193 331 L209 341 L226 359 L222 348 L216 340 L201 326 L185 317 L161 314 L136 320 L124 315 L118 307 L117 296 L124 286 L132 284 L140 290 L140 296 L137 299 L134 299 L132 295 L129 296 L129 301 L134 304 L142 304 L149 300 L154 289 L154 277 L150 266 L132 247 L126 237 L125 220 L129 206 L129 197 L125 186 Z M171 321 L169 324 L153 326 L146 325 L147 323 L152 323 L163 320 Z M118 220 L120 221 L120 233 L122 239 L121 241 L117 238 L115 232 L115 227 Z M259 17 L255 19 L256 62 L251 65 L257 76 L245 83 L257 92 L238 101 L255 110 L240 118 L226 138 L228 158 L253 182 L245 193 L218 180 L183 185 L164 204 L157 226 L158 246 L171 274 L250 349 L254 359 L260 359 L264 349 L339 279 L354 252 L357 236 L348 201 L329 184 L296 180 L268 192 L261 180 L276 171 L288 153 L288 140 L278 127 L254 126 L241 141 L250 161 L264 162 L273 154 L273 142 L265 136 L255 140 L254 149 L262 150 L261 142 L268 146 L267 153 L258 158 L248 152 L247 141 L257 130 L274 131 L283 149 L271 168 L256 175 L243 168 L233 155 L232 138 L244 121 L259 114 L278 113 L277 107 L262 107 L255 102 L273 93 L258 84 L267 77 L260 69 Z M255 347 L257 346 L258 348 L256 349 Z M256 298 L259 299 L262 310 L262 319 L259 329 L257 331 L255 330 L252 320 L252 308 Z M256 186 L259 187 L264 194 L264 200 L257 212 L255 211 L253 204 L250 200 L250 194 Z M184 191 L200 185 L231 190 L249 208 L253 225 L250 236 L243 240 L237 233 L236 242 L248 244 L257 236 L265 244 L275 244 L278 234 L267 239 L261 228 L268 203 L287 188 L322 187 L346 209 L350 222 L347 254 L330 281 L262 341 L267 311 L261 290 L292 256 L296 230 L285 219 L274 220 L269 226 L270 231 L276 225 L286 226 L292 241 L286 255 L256 285 L227 254 L222 242 L228 226 L238 225 L243 231 L245 225 L238 219 L224 222 L217 232 L220 253 L253 290 L247 307 L251 342 L199 296 L170 262 L164 245 L164 221 L170 205 Z"/></svg>
