<svg xmlns="http://www.w3.org/2000/svg" width="512" height="512" viewBox="0 0 512 512" aria-hidden="true" focusable="false"><path fill="currentColor" fill-rule="evenodd" clip-rule="evenodd" d="M254 323 L249 327 L248 333 L252 338 L259 339 L264 335 L265 330 L261 324 Z M255 328 L258 328 L260 330 L257 334 L253 332 Z M238 129 L227 138 L228 149 L243 155 L234 166 L207 155 L185 154 L159 163 L138 181 L117 220 L113 261 L121 292 L141 322 L172 353 L228 397 L253 432 L222 410 L175 401 L169 392 L180 393 L179 383 L153 383 L144 377 L156 373 L154 358 L118 330 L101 294 L97 272 L101 222 L94 244 L93 274 L108 324 L151 364 L151 370 L144 370 L134 362 L145 385 L164 387 L166 400 L176 407 L226 417 L248 435 L232 435 L225 442 L238 451 L251 450 L245 466 L254 478 L252 491 L257 495 L260 476 L269 463 L262 450 L275 451 L288 442 L281 435 L265 435 L292 415 L341 405 L348 398 L349 387 L361 388 L373 379 L379 362 L369 370 L362 370 L362 364 L390 342 L407 321 L418 289 L420 253 L412 221 L416 244 L413 291 L395 330 L359 358 L357 373 L368 378 L360 383 L334 383 L333 393 L344 392 L338 401 L289 411 L262 432 L274 408 L351 344 L380 312 L397 279 L400 239 L385 195 L356 164 L334 155 L313 154 L279 166 L270 155 L286 147 L281 132 L267 131 L256 141 Z M256 453 L260 455 L263 459 L263 465 L257 473 L254 471 L250 465 L250 458 Z M251 448 L253 447 L254 449 L252 450 Z M255 443 L257 442 L258 445 L256 446 Z M261 440 L265 437 L266 442 L269 442 L274 439 L276 439 L277 442 L273 446 L267 446 Z M251 441 L246 446 L240 446 L236 442 L237 439 L247 442 L248 437 L250 438 Z M256 315 L267 323 L270 330 L268 338 L260 344 L253 344 L249 342 L245 338 L243 333 L244 326 L246 323 Z M256 281 L260 284 L266 293 L272 299 L271 301 L258 309 L252 307 L241 300 Z M211 255 L230 256 L253 276 L237 296 L230 290 L231 282 L237 278 L246 281 L248 277 L235 273 L225 282 L226 294 L250 312 L242 319 L238 333 L241 341 L252 349 L264 348 L272 341 L274 324 L263 312 L281 300 L289 288 L287 279 L281 274 L267 275 L267 281 L276 278 L283 284 L283 291 L276 296 L260 277 L277 259 L289 254 L306 257 L318 271 L320 286 L314 302 L269 350 L257 368 L197 299 L194 275 L199 264 Z M145 242 L159 227 L152 244 L161 244 L171 266 L169 278 L159 272 L148 285 L153 309 L174 321 L205 318 L245 359 L256 382 L266 362 L308 318 L338 321 L362 306 L364 283 L354 272 L346 278 L342 274 L352 247 L359 247 L362 242 L355 228 L368 241 L368 250 L359 255 L358 264 L362 269 L371 265 L375 300 L359 328 L284 390 L256 424 L228 389 L169 343 L144 314 L138 299 L142 265 L151 269 L155 264 L153 253 L145 250 Z M256 222 L261 226 L261 228 L257 233 L252 227 Z M256 202 L260 206 L267 219 L268 223 L267 228 L265 227 L264 222 L258 215 L257 210 L255 212 L255 215 L249 222 L247 228 L245 227 L246 219 Z M233 175 L253 195 L240 222 L242 234 L253 241 L265 239 L271 234 L273 229 L271 215 L261 199 L261 194 L278 175 L282 177 L289 191 L291 212 L288 222 L275 241 L258 256 L255 256 L236 239 L229 230 L223 216 L222 201 L224 191 Z M123 219 L141 186 L163 167 L185 160 L215 163 L229 171 L217 197 L221 227 L234 245 L257 263 L281 243 L294 222 L296 196 L284 171 L305 161 L329 160 L359 173 L380 197 L393 231 L394 266 L381 299 L373 241 L363 220 L356 222 L359 207 L355 195 L348 221 L349 242 L337 267 L342 296 L351 298 L355 294 L352 288 L345 292 L346 283 L352 281 L360 287 L359 301 L351 310 L331 317 L313 314 L324 292 L325 276 L320 263 L306 251 L279 252 L256 272 L232 251 L214 249 L194 262 L188 276 L189 292 L200 314 L175 316 L162 310 L152 293 L155 284 L163 281 L170 289 L164 293 L161 288 L158 294 L170 297 L176 276 L175 263 L165 245 L159 196 L155 219 L150 220 L140 241 L132 298 L119 265 Z M256 150 L275 169 L275 171 L266 179 L257 191 L254 189 L247 179 L238 171 L238 169 Z M261 145 L271 135 L277 135 L281 139 L281 145 L277 149 L270 148 L263 149 Z M232 139 L236 135 L242 135 L251 143 L252 147 L249 149 L247 148 L236 149 L232 144 Z M256 17 L255 54 L250 59 L250 62 L253 66 L248 69 L248 74 L251 75 L252 78 L247 80 L244 85 L247 88 L255 88 L266 93 L271 100 L270 112 L261 119 L253 119 L248 117 L243 111 L243 105 L247 99 L256 98 L261 102 L261 106 L258 109 L255 108 L254 103 L249 105 L249 110 L254 114 L262 113 L267 106 L267 101 L263 95 L256 92 L251 92 L241 97 L238 102 L237 110 L242 120 L250 124 L259 125 L267 123 L273 118 L277 109 L277 101 L274 94 L267 87 L261 84 L263 81 L267 80 L268 76 L267 74 L260 71 L264 67 L264 63 L259 60 L262 56 L262 53 L258 44 L258 26 Z"/></svg>
