<svg xmlns="http://www.w3.org/2000/svg" width="512" height="512" viewBox="0 0 512 512" aria-hidden="true" focusable="false"><path fill="currentColor" fill-rule="evenodd" clip-rule="evenodd" d="M334 378 L332 378 L327 394 L317 406 L317 408 L327 398 L332 388 Z M256 17 L247 59 L241 60 L222 102 L225 113 L232 119 L243 117 L249 130 L224 123 L212 109 L202 106 L204 133 L190 135 L184 141 L210 177 L207 196 L176 224 L175 208 L138 167 L142 194 L123 260 L132 274 L139 274 L142 267 L150 275 L150 284 L137 283 L142 303 L156 316 L153 326 L132 306 L125 310 L114 289 L110 268 L99 259 L103 275 L97 295 L97 336 L93 341 L104 379 L118 396 L134 405 L117 405 L125 419 L147 428 L140 433 L153 442 L176 449 L192 448 L196 458 L206 464 L225 461 L257 496 L270 475 L282 471 L287 462 L309 463 L320 448 L336 449 L372 433 L365 427 L384 421 L395 407 L377 405 L395 395 L408 379 L420 335 L415 336 L417 317 L409 275 L413 259 L402 268 L397 292 L387 310 L380 306 L361 327 L355 317 L369 304 L374 283 L362 284 L362 274 L368 267 L371 273 L380 274 L389 259 L369 193 L374 167 L342 203 L345 206 L352 200 L356 208 L352 219 L362 222 L363 237 L358 228 L351 231 L342 226 L340 216 L345 213 L339 208 L334 223 L304 195 L302 177 L328 141 L308 133 L309 106 L300 109 L288 123 L274 130 L263 129 L269 117 L280 119 L287 113 L289 97 L271 60 L265 59 Z M233 467 L240 462 L245 461 L249 463 L257 472 L257 470 L263 463 L269 461 L278 466 L279 468 L276 470 L267 469 L267 475 L260 482 L258 486 L255 487 L246 476 L245 469 L236 470 Z M255 448 L257 448 L261 453 L267 456 L257 465 L255 465 L253 462 L245 457 L246 455 L251 453 Z M232 446 L241 455 L241 458 L234 463 L230 463 L226 461 L231 453 Z M279 445 L281 446 L282 456 L286 460 L285 462 L277 463 L271 458 L271 455 L278 448 Z M274 434 L276 439 L276 444 L271 451 L265 452 L262 449 L262 446 L264 442 L271 435 Z M238 434 L243 436 L249 443 L250 449 L247 452 L241 451 L238 448 L236 444 L236 439 Z M149 432 L153 430 L163 434 L172 434 L173 436 L165 440 L159 440 L152 437 L149 434 Z M269 423 L274 422 L282 425 L288 433 L290 432 L288 427 L289 426 L292 427 L299 434 L301 438 L301 444 L299 445 L298 441 L293 438 L287 438 L280 444 L278 431 L277 430 L271 431 L269 427 Z M243 423 L243 427 L241 431 L236 430 L233 431 L235 434 L233 436 L232 445 L225 438 L218 438 L212 444 L210 443 L210 439 L212 435 L220 427 L229 423 L237 422 Z M284 451 L285 444 L288 441 L292 441 L295 443 L295 445 L292 446 L294 450 L302 449 L305 444 L305 438 L301 430 L290 422 L291 420 L296 418 L310 419 L334 433 L349 434 L357 431 L361 431 L363 433 L358 438 L353 440 L346 440 L338 437 L341 442 L332 446 L325 446 L314 439 L316 444 L315 452 L311 457 L303 461 L295 461 L288 458 Z M173 434 L186 429 L199 420 L215 418 L221 420 L222 422 L210 431 L207 437 L207 445 L212 450 L218 450 L219 447 L217 446 L217 443 L223 441 L226 443 L228 450 L226 455 L220 460 L206 460 L202 458 L197 452 L196 444 L198 439 L196 439 L190 445 L180 446 L171 442 L175 438 Z M255 416 L258 417 L267 430 L266 437 L260 445 L258 444 L257 441 L259 435 L257 425 L256 425 L257 436 L253 445 L250 443 L250 441 L245 434 L246 427 Z M191 408 L193 407 L194 409 L192 410 Z M316 417 L321 413 L335 415 L335 413 L328 410 L332 406 L343 407 L355 413 L355 411 L351 407 L338 402 L338 400 L342 398 L357 399 L366 403 L374 409 L387 412 L380 419 L374 421 L367 421 L361 419 L363 423 L358 427 L350 430 L334 429 Z M125 412 L135 410 L155 399 L169 398 L173 399 L175 402 L161 407 L157 411 L157 413 L169 407 L178 406 L182 408 L182 411 L177 413 L177 415 L183 413 L191 413 L196 417 L180 428 L174 430 L162 430 L152 426 L149 423 L152 418 L145 421 L137 421 L129 417 Z M364 396 L366 395 L367 397 L365 398 Z M280 376 L284 378 L281 382 L278 379 Z M230 376 L234 378 L232 381 L228 379 Z M283 371 L284 370 L288 371 L290 374 L285 375 Z M227 370 L228 373 L224 376 L222 373 Z M306 368 L311 381 L311 394 L308 402 L302 410 L297 414 L290 417 L289 415 L294 410 L300 399 L301 394 L299 394 L295 405 L288 413 L289 417 L279 419 L278 417 L283 411 L286 401 L286 395 L283 387 L284 384 L292 376 Z M206 368 L220 376 L228 384 L229 387 L226 395 L227 407 L232 415 L231 417 L226 415 L222 411 L220 411 L222 415 L219 416 L212 412 L205 404 L201 395 L201 380 L204 370 Z M371 367 L372 372 L366 384 L354 393 L345 394 L344 392 L346 390 L353 387 L351 383 L356 374 L363 369 Z M278 367 L279 371 L276 375 L274 375 L272 371 Z M139 368 L143 367 L151 370 L157 376 L161 383 L160 385 L157 383 L155 384 L166 390 L168 393 L160 394 L151 389 L143 380 Z M310 367 L315 366 L316 368 L312 371 Z M232 367 L234 366 L241 372 L238 375 L236 375 L233 372 Z M195 366 L196 365 L201 366 L202 368 L199 371 Z M255 363 L257 363 L277 383 L282 393 L281 407 L271 418 L268 417 L270 411 L265 417 L262 417 L257 409 L255 409 L253 414 L248 418 L243 413 L240 405 L240 411 L243 415 L241 418 L233 411 L230 404 L230 392 L234 384 Z M150 364 L153 363 L154 367 L152 368 Z M359 362 L362 364 L360 368 L358 367 Z M283 363 L286 362 L292 365 L296 365 L299 368 L298 369 L287 368 Z M228 363 L228 365 L225 368 L221 369 L213 368 L215 365 L219 365 L226 362 Z M387 361 L388 370 L383 379 L375 387 L365 392 L364 390 L370 384 L375 375 L376 366 L378 364 L383 364 Z M125 361 L129 364 L135 365 L138 378 L147 390 L146 392 L137 387 L128 378 L124 370 Z M339 355 L342 362 L343 379 L337 395 L324 408 L313 413 L305 414 L304 412 L309 407 L314 397 L314 376 L325 363 Z M173 355 L187 363 L198 376 L197 393 L199 400 L205 409 L204 411 L197 408 L188 399 L182 388 L180 379 L178 379 L179 386 L184 397 L190 405 L188 407 L185 406 L174 394 L169 380 L169 367 L171 357 Z M285 355 L287 354 L291 356 L302 358 L320 358 L326 356 L327 358 L319 362 L299 363 L287 359 Z M183 354 L186 353 L191 356 L204 358 L217 357 L227 354 L228 356 L225 359 L217 362 L200 363 L186 359 L183 356 Z M292 351 L293 350 L298 351 L320 350 L321 352 L318 354 L310 355 L293 353 Z M223 350 L222 352 L214 354 L200 354 L199 353 L200 351 L214 351 L220 349 Z M413 343 L415 345 L415 349 L413 351 L414 355 L412 357 L413 359 L411 361 L411 365 L404 379 L391 393 L377 401 L370 402 L369 401 L370 399 L385 392 L395 381 L403 366 L404 350 L408 345 Z M322 346 L323 344 L326 343 L329 344 L327 347 Z M98 343 L102 344 L108 351 L107 354 L108 363 L116 380 L122 388 L124 388 L131 395 L143 400 L142 402 L135 401 L125 396 L110 382 L100 363 L101 361 L99 359 L100 357 L98 355 L97 350 Z M184 336 L187 335 L195 338 L204 339 L216 338 L227 335 L228 337 L222 341 L215 343 L196 343 L186 339 Z M283 335 L285 334 L291 337 L305 339 L317 338 L327 334 L329 336 L326 339 L315 343 L297 343 L286 339 Z M246 336 L251 333 L262 333 L266 335 L273 344 L273 350 L270 356 L262 361 L260 361 L257 357 L255 357 L252 361 L247 359 L242 354 L240 348 L241 343 Z M124 332 L131 335 L136 340 L139 346 L139 354 L137 359 L133 361 L131 360 L129 356 L124 356 L121 360 L121 370 L127 381 L134 389 L147 396 L146 398 L134 393 L127 388 L120 381 L113 369 L111 361 L111 352 L115 342 L126 345 L131 350 L131 353 L133 353 L132 347 L127 342 L122 340 L124 338 L123 336 Z M244 328 L252 325 L261 325 L271 329 L277 335 L281 343 L281 351 L278 358 L271 365 L265 367 L263 364 L274 356 L276 351 L276 345 L272 337 L268 333 L262 330 L252 330 L247 332 L238 343 L238 353 L241 356 L241 358 L249 363 L249 365 L245 367 L236 359 L233 353 L233 341 L237 334 Z M353 324 L355 325 L356 330 L355 334 L353 333 L351 329 L351 326 Z M159 324 L161 326 L161 329 L156 335 L155 334 L156 327 Z M273 326 L276 323 L279 324 L276 328 Z M233 324 L235 323 L239 325 L240 327 L237 329 L233 326 Z M123 321 L124 324 L120 328 L119 327 L120 322 Z M389 320 L391 321 L392 324 L391 327 L387 324 Z M283 327 L285 323 L296 319 L316 319 L326 323 L329 326 L329 328 L326 331 L314 335 L293 334 L287 332 Z M183 325 L189 321 L196 319 L216 319 L225 322 L228 326 L228 329 L222 333 L215 335 L198 335 L186 331 L183 328 Z M162 320 L164 319 L165 321 L163 322 Z M349 318 L350 321 L347 323 L346 321 Z M237 318 L240 317 L245 319 L254 319 L255 321 L243 323 L238 321 Z M279 316 L276 320 L272 322 L266 323 L259 321 L260 319 L266 319 L276 315 Z M381 314 L384 319 L384 325 L382 331 L377 335 L375 335 L369 348 L370 357 L373 362 L370 364 L366 364 L361 358 L359 351 L359 340 L364 329 Z M232 315 L234 314 L236 317 L234 318 Z M130 313 L148 329 L152 337 L153 350 L151 357 L146 364 L142 364 L139 362 L143 352 L142 345 L139 339 L129 330 L128 327 L128 318 Z M279 307 L277 311 L263 316 L248 316 L238 313 L233 309 L234 307 L247 311 L264 311 L275 308 L277 306 Z M279 299 L273 305 L259 308 L245 307 L239 304 L240 301 L250 303 L262 303 L272 301 L277 298 Z M233 299 L235 298 L236 301 L234 302 Z M368 286 L369 295 L367 300 L349 318 L348 317 L349 312 L359 301 L362 290 L366 286 Z M144 286 L146 286 L150 290 L154 303 L163 312 L164 316 L163 319 L144 299 L143 296 Z M233 290 L236 287 L244 284 L263 283 L276 287 L279 290 L279 292 L275 296 L266 299 L246 299 L235 295 L233 293 Z M405 273 L411 293 L410 306 L405 314 L413 313 L414 327 L409 340 L404 345 L401 342 L399 334 L396 338 L385 342 L380 347 L379 352 L381 352 L384 346 L397 342 L401 353 L401 361 L397 373 L389 384 L378 393 L368 397 L368 394 L376 390 L383 383 L391 369 L391 360 L389 357 L383 356 L380 361 L375 359 L373 354 L373 345 L381 335 L388 332 L389 337 L391 337 L395 331 L395 323 L391 316 L390 308 L401 292 L401 280 Z M107 273 L110 276 L111 292 L119 302 L122 310 L121 315 L116 325 L117 331 L122 339 L121 340 L117 339 L113 334 L112 329 L110 328 L111 341 L109 345 L101 337 L98 327 L99 313 L100 312 L104 314 L106 313 L102 306 L100 295 Z M300 252 L304 255 L307 262 L309 262 L306 255 L308 253 L312 258 L315 265 L315 277 L314 278 L312 277 L311 270 L309 270 L309 282 L307 286 L305 285 L304 279 L300 278 L297 275 L293 267 L294 257 L296 258 L299 267 L300 266 L298 259 L298 255 Z M212 252 L213 253 L212 265 L213 266 L214 265 L216 256 L218 257 L219 265 L215 275 L212 278 L208 278 L207 284 L204 285 L202 279 L203 269 L201 269 L200 278 L199 279 L197 278 L196 274 L197 264 L199 259 L204 253 L208 255 Z M296 241 L300 243 L300 247 L298 249 L294 245 Z M213 241 L217 242 L217 246 L215 248 L211 247 L211 244 Z M131 240 L135 243 L136 246 L140 250 L149 254 L158 264 L160 270 L159 273 L160 302 L159 303 L156 301 L153 292 L154 275 L151 269 L147 265 L140 263 L136 266 L136 269 L133 270 L127 262 L126 258 L127 248 Z M381 239 L385 249 L384 264 L379 270 L376 269 L376 266 L374 264 L367 264 L361 269 L357 280 L358 296 L356 301 L352 304 L351 301 L353 288 L353 278 L352 277 L353 266 L360 256 L367 252 L370 252 Z M293 233 L295 234 L294 238 L292 237 Z M218 232 L220 233 L221 236 L220 238 L217 237 Z M340 232 L343 231 L347 234 L356 233 L357 239 L348 248 Z M172 229 L173 231 L165 247 L163 248 L155 240 L154 234 L155 233 L164 234 Z M286 224 L290 227 L289 233 L286 231 L285 226 Z M226 223 L227 229 L224 232 L222 230 L222 227 Z M234 216 L235 220 L231 224 L229 222 L230 218 Z M276 214 L282 219 L281 224 L277 222 L277 218 L275 216 Z M370 209 L372 211 L372 214 L376 223 L377 229 L376 238 L373 244 L368 249 L363 250 L351 261 L349 256 L351 250 L357 244 L364 241 L367 236 L368 228 L365 221 L365 215 Z M141 209 L145 212 L147 216 L147 220 L144 225 L145 237 L150 243 L154 244 L160 249 L163 254 L161 260 L159 260 L153 253 L144 249 L138 243 L136 239 L135 226 Z M267 208 L272 211 L274 216 L273 218 L267 214 L266 210 Z M260 208 L262 207 L263 209 L261 210 Z M246 207 L247 209 L245 213 L239 218 L238 217 L239 212 Z M253 205 L254 208 L250 210 L249 208 Z M162 199 L167 206 L166 216 L170 215 L172 216 L171 224 L169 225 L167 229 L161 231 L154 228 L151 231 L151 237 L149 238 L147 235 L147 228 L150 221 L153 218 L155 218 L156 221 L159 220 L160 216 L156 210 L156 206 L159 201 Z M196 208 L211 198 L223 201 L217 218 L230 203 L241 205 L205 240 L205 248 L194 262 L194 280 L209 295 L222 268 L225 237 L255 211 L288 239 L289 265 L297 289 L301 289 L300 295 L308 292 L318 279 L317 260 L307 248 L306 239 L271 205 L281 203 L295 215 L287 202 L301 198 L325 217 L342 244 L349 271 L344 316 L332 307 L355 348 L348 381 L349 349 L346 346 L345 359 L343 348 L338 348 L341 335 L333 344 L332 323 L314 315 L284 319 L283 289 L258 279 L230 287 L228 320 L198 315 L180 323 L179 345 L171 336 L174 348 L169 348 L167 359 L167 344 L164 346 L163 381 L157 347 L180 308 L168 316 L163 296 L165 258 L177 230 Z M266 192 L260 200 L258 201 L253 200 L260 191 Z M255 192 L248 200 L245 201 L242 200 L242 198 L247 192 L249 191 Z M275 190 L276 191 L275 195 L270 200 L265 201 L264 199 L269 192 L272 190 Z M244 191 L237 199 L232 198 L232 196 L239 190 Z M232 189 L233 191 L228 197 L224 198 L222 196 L225 191 L228 189 Z M286 188 L287 190 L283 197 L278 199 L277 198 L278 193 L283 188 Z M301 187 L302 190 L299 193 L298 190 Z M224 188 L218 195 L214 194 L214 192 L220 187 Z M295 186 L296 187 L295 192 L292 196 L289 197 L288 194 L291 187 Z M214 185 L215 187 L211 190 L210 187 Z M366 182 L367 190 L364 196 L368 198 L369 203 L368 206 L364 209 L362 214 L360 215 L358 213 L359 205 L356 200 L355 193 L357 188 L359 186 L363 187 L364 183 Z M146 182 L148 183 L149 187 L153 186 L156 191 L156 199 L153 204 L152 208 L153 213 L151 215 L149 214 L149 211 L147 210 L147 208 L143 205 L144 197 L148 196 L144 188 Z M318 148 L315 154 L303 168 L295 182 L288 184 L285 183 L288 169 L293 160 L291 159 L284 171 L280 184 L278 186 L265 186 L264 176 L266 163 L268 161 L267 159 L271 150 L278 141 L284 139 L290 146 L296 148 Z M294 143 L297 140 L301 140 L308 137 L318 137 L323 140 L323 142 L320 144 L313 143 L295 144 Z M189 140 L194 137 L204 137 L211 140 L215 140 L218 143 L217 144 L208 143 L192 144 L189 142 Z M194 148 L216 148 L222 146 L231 136 L234 137 L239 143 L246 160 L245 163 L247 165 L248 176 L247 186 L243 187 L233 185 L222 161 L220 162 L223 167 L227 183 L224 184 L216 181 Z M237 133 L242 133 L247 135 L254 142 L255 146 L258 140 L266 134 L275 133 L279 135 L277 141 L274 142 L269 149 L264 164 L260 187 L251 186 L249 168 L244 147 L240 138 L236 135 Z M304 114 L306 128 L304 133 L301 136 L297 138 L288 138 L279 131 L281 128 L290 125 L292 126 L291 129 L295 128 L297 126 L297 119 L301 113 Z M208 114 L210 113 L214 117 L215 126 L218 129 L220 129 L220 126 L222 125 L232 129 L233 131 L223 138 L216 138 L211 136 L207 132 L206 129 L206 122 Z M263 101 L265 105 L261 110 L260 116 L258 117 L257 110 L260 103 Z M249 101 L254 106 L256 117 L259 118 L259 126 L261 133 L256 138 L251 134 L253 125 L253 116 L250 108 L247 105 Z M266 99 L273 98 L274 100 L269 102 Z M273 97 L275 96 L276 98 L274 99 Z M236 97 L238 96 L240 98 L244 98 L245 100 L241 102 Z M226 98 L229 96 L234 101 L235 105 L242 105 L246 108 L251 118 L249 119 L241 112 L239 112 L236 116 L232 115 L227 109 Z M284 95 L286 100 L286 105 L283 112 L278 116 L275 116 L274 113 L271 112 L263 118 L262 115 L264 111 L270 105 L277 104 L277 102 Z M255 94 L257 94 L260 97 L257 104 L252 99 L252 97 Z M255 73 L257 73 L267 84 L267 90 L262 95 L258 92 L257 89 L255 89 L251 95 L248 94 L245 90 L246 82 Z M268 65 L270 66 L275 74 L278 82 L276 90 L271 95 L268 94 L271 89 L270 82 L264 75 L264 70 Z M244 65 L247 68 L248 75 L242 82 L241 89 L243 94 L241 95 L235 89 L234 81 L237 74 L242 66 Z M257 39 L262 52 L261 61 L264 63 L264 65 L261 71 L256 66 L250 72 L248 63 L252 61 L250 57 L250 52 L255 40 Z"/></svg>
