<svg xmlns="http://www.w3.org/2000/svg" width="512" height="512" viewBox="0 0 512 512" aria-hidden="true" focusable="false"><path fill="currentColor" fill-rule="evenodd" clip-rule="evenodd" d="M434 243 L428 249 L429 261 L417 284 L422 308 L418 310 L410 297 L389 336 L389 354 L400 372 L382 370 L378 380 L384 381 L384 387 L368 401 L353 402 L371 381 L376 343 L382 331 L361 332 L361 195 L324 195 L324 343 L314 346 L314 232 L279 231 L277 337 L268 329 L268 260 L233 261 L234 337 L225 346 L223 281 L189 281 L188 345 L179 341 L178 308 L148 308 L147 332 L128 331 L134 344 L138 381 L156 404 L130 392 L127 381 L132 381 L133 375 L129 370 L112 372 L123 355 L123 335 L102 297 L94 311 L89 305 L95 282 L79 244 L79 282 L75 285 L73 312 L82 374 L102 403 L137 419 L117 422 L126 433 L155 448 L193 452 L207 466 L225 463 L233 473 L242 475 L256 496 L268 475 L277 473 L285 464 L302 466 L317 452 L354 448 L382 434 L393 421 L378 423 L372 419 L402 409 L423 388 L434 359 L440 307 L433 280 Z M234 468 L240 463 L248 464 L252 468 L254 473 L256 473 L256 471 L261 465 L264 463 L270 463 L276 469 L271 471 L264 468 L265 471 L264 478 L256 487 L254 487 L245 476 L246 468 L239 471 L235 470 Z M276 450 L278 451 L283 461 L281 464 L276 464 L270 459 L270 456 Z M255 449 L261 455 L265 457 L265 459 L256 466 L254 466 L245 459 L245 457 L249 455 Z M232 448 L241 457 L241 459 L234 464 L229 464 L227 461 Z M360 438 L360 440 L357 443 L351 445 L336 444 L326 439 L327 437 L344 438 L351 434 L357 434 Z M272 434 L274 439 L272 450 L270 452 L263 453 L262 452 L263 442 L266 440 L267 437 Z M238 434 L247 441 L249 446 L249 451 L246 453 L240 452 L237 448 L236 440 Z M149 440 L155 434 L160 434 L166 438 L179 438 L180 437 L183 438 L182 440 L169 445 L159 445 Z M293 432 L298 437 L299 441 L298 443 L292 438 Z M220 429 L221 431 L218 435 L218 438 L213 443 L211 443 L210 441 L213 435 Z M245 420 L246 422 L242 427 L241 431 L235 429 L231 430 L233 432 L233 447 L231 448 L229 443 L226 440 L221 439 L220 437 L230 425 L242 423 L242 421 Z M264 421 L268 419 L269 423 L278 424 L284 427 L290 436 L290 438 L284 440 L278 445 L277 444 L278 429 L269 431 Z M255 417 L257 418 L265 431 L264 437 L261 440 L259 445 L256 443 L256 441 L251 442 L245 433 L246 428 Z M272 419 L280 416 L297 416 L307 420 L316 428 L329 449 L328 450 L321 449 L314 443 L312 443 L313 446 L312 453 L305 461 L299 463 L289 461 L283 454 L283 446 L286 443 L292 443 L294 447 L290 448 L290 450 L293 452 L298 451 L302 446 L301 435 L298 430 L292 425 L284 422 L273 421 Z M239 419 L238 421 L225 422 L216 426 L207 437 L207 446 L214 452 L220 450 L220 448 L216 447 L217 443 L221 442 L226 446 L227 454 L221 461 L210 463 L203 460 L198 453 L197 443 L195 443 L189 449 L185 450 L181 449 L194 428 L201 421 L213 416 L230 416 Z M309 415 L316 412 L322 412 L324 414 L334 415 L344 420 L352 430 L339 436 L330 435 L323 431 L318 424 L309 417 Z M200 415 L200 417 L192 424 L189 429 L180 435 L171 436 L158 430 L166 420 L173 416 L185 414 L187 412 Z M208 411 L210 410 L211 412 L209 413 Z M322 408 L325 406 L334 404 L342 404 L350 406 L357 410 L370 423 L380 427 L381 429 L373 434 L368 435 L361 434 L342 415 L332 412 L330 410 L323 410 Z M188 408 L187 410 L180 410 L178 412 L168 415 L150 433 L143 435 L135 434 L134 432 L128 429 L129 427 L134 426 L141 422 L154 409 L162 405 L177 404 Z M397 377 L398 385 L387 399 L372 407 L368 408 L358 407 L359 405 L364 405 L375 401 L385 392 L388 386 L388 381 L383 376 L384 373 L390 372 L393 373 Z M115 376 L121 372 L126 373 L128 376 L123 381 L123 386 L126 392 L136 401 L149 405 L150 407 L142 408 L130 403 L123 398 L116 391 L113 384 L113 380 Z M412 359 L414 362 L414 372 L409 386 L399 398 L389 404 L388 402 L395 396 L400 389 L403 381 L403 369 L401 365 L406 364 L410 359 Z M100 359 L102 359 L106 364 L111 365 L108 372 L109 383 L112 390 L118 398 L123 402 L122 404 L115 400 L103 386 L98 373 L98 363 Z M255 350 L278 376 L282 386 L282 396 L278 405 L264 416 L260 416 L256 409 L250 416 L242 414 L233 406 L228 395 L228 386 L231 378 Z M332 347 L336 377 L331 394 L319 406 L306 412 L301 411 L309 406 L319 394 L322 385 L322 376 L320 371 L321 361 L317 366 L318 387 L315 394 L305 405 L289 412 L288 410 L295 402 L299 393 L299 364 L310 353 L327 347 Z M178 347 L192 350 L204 356 L212 366 L210 374 L210 389 L213 399 L222 410 L221 412 L205 405 L194 393 L191 384 L193 366 L189 361 L190 370 L188 375 L188 386 L190 393 L195 401 L207 411 L203 412 L192 407 L180 396 L174 379 Z M373 335 L374 338 L371 344 L371 366 L365 385 L352 398 L345 401 L341 400 L353 388 L357 381 L360 369 L360 359 L358 359 L357 371 L351 385 L343 394 L334 399 L333 396 L337 390 L339 382 L338 364 L342 363 L345 352 L353 342 Z M136 335 L146 337 L154 341 L164 351 L168 363 L172 364 L170 378 L172 388 L176 396 L175 398 L169 396 L160 388 L154 376 L151 357 L149 357 L152 379 L158 390 L168 400 L164 401 L156 397 L144 384 L138 369 L138 348 L135 337 Z M433 332 L434 335 L431 345 L422 353 L423 357 L430 357 L428 368 L423 380 L414 393 L405 402 L394 409 L380 414 L366 414 L364 412 L365 410 L375 408 L382 410 L393 405 L399 401 L411 388 L417 374 L417 360 L412 353 L404 353 L402 351 L402 343 L404 338 L411 331 L419 327 L422 328 L422 332 L419 336 L420 337 Z M79 332 L92 337 L90 332 L90 328 L92 327 L101 331 L108 338 L110 342 L110 351 L108 353 L100 353 L95 360 L95 375 L98 383 L103 391 L117 404 L130 410 L133 410 L134 408 L145 410 L146 412 L144 414 L137 415 L124 412 L111 405 L98 393 L90 382 L85 371 L82 357 L89 357 L90 352 L85 349 L80 343 L78 334 Z M256 321 L262 330 L289 357 L296 374 L295 393 L290 402 L278 412 L277 410 L283 404 L286 394 L283 377 L259 349 L255 340 L250 350 L230 372 L225 382 L225 399 L229 407 L234 411 L232 413 L225 408 L216 396 L213 384 L215 369 L227 348 Z M152 312 L174 312 L175 313 L175 340 L171 341 L174 351 L172 360 L169 357 L168 350 L162 342 L151 335 L151 313 Z M193 285 L219 286 L219 353 L214 361 L203 351 L193 346 Z M431 268 L432 269 L430 276 L430 281 L432 286 L431 293 L434 293 L436 297 L435 313 L433 319 L427 326 L425 325 L424 320 L422 319 L416 325 L409 328 L403 333 L399 340 L399 351 L401 354 L403 354 L406 357 L406 359 L404 361 L400 361 L393 354 L392 339 L397 327 L412 308 L414 309 L413 320 L415 320 L425 309 L427 304 L427 298 L423 292 L421 282 L429 269 Z M81 268 L83 269 L90 281 L90 291 L86 296 L85 300 L88 310 L95 316 L97 320 L100 320 L98 316 L98 308 L100 307 L103 313 L115 327 L119 335 L120 352 L118 356 L112 361 L108 361 L106 359 L107 356 L111 355 L114 348 L113 339 L110 334 L105 329 L94 324 L90 319 L88 320 L87 325 L85 326 L80 320 L76 308 L77 293 L78 292 L82 293 L80 288 L82 282 L82 276 L80 271 Z M263 264 L264 322 L262 323 L255 314 L248 324 L238 332 L237 265 Z M284 236 L311 237 L311 348 L297 361 L282 342 L283 270 L281 267 L283 262 L281 260 L283 258 Z M357 199 L358 335 L345 345 L338 361 L336 349 L339 341 L329 341 L329 200 Z M310 148 L307 148 L298 152 L294 157 L293 162 L295 162 L301 154 L303 155 L302 157 L303 162 L296 170 L291 171 L289 166 L284 172 L272 178 L266 190 L266 198 L268 198 L268 193 L272 184 L279 177 L285 174 L297 174 L303 169 L304 165 L306 164 L307 153 Z M201 148 L204 155 L204 161 L201 169 L202 180 L204 184 L211 189 L211 193 L213 195 L218 197 L226 197 L233 203 L236 209 L236 222 L239 210 L237 204 L231 197 L231 193 L220 194 L219 192 L228 187 L238 196 L242 204 L242 218 L245 214 L246 207 L243 190 L240 186 L237 190 L228 183 L229 178 L233 181 L236 180 L224 170 L221 162 L217 159 L215 154 L205 148 Z M208 154 L213 158 L215 162 L214 166 L218 166 L221 169 L221 172 L216 176 L216 181 L219 182 L219 179 L222 178 L224 180 L223 186 L214 187 L206 180 L205 168 L207 163 Z M395 61 L392 60 L389 71 L369 91 L365 101 L370 114 L385 111 L387 125 L382 133 L376 134 L377 119 L320 138 L337 148 L312 173 L257 217 L185 260 L181 234 L176 232 L179 220 L174 204 L162 235 L157 236 L152 246 L152 257 L163 263 L163 268 L136 295 L132 321 L142 303 L155 291 L259 238 L314 200 L354 163 L367 176 L373 144 L390 140 L402 122 Z M144 292 L145 294 L142 296 L141 294 Z M158 244 L168 249 L171 253 L172 260 L169 267 L167 266 L168 263 L167 256 L164 253 L162 253 L163 258 L161 260 L158 259 L155 255 L155 249 Z M173 221 L175 222 L173 231 L175 236 L174 241 L177 241 L181 248 L181 255 L176 264 L174 263 L173 250 L168 245 L165 238 L166 231 L169 226 L172 226 Z M373 127 L364 165 L359 158 L355 157 L307 200 L257 235 L213 259 L174 276 L146 293 L144 292 L150 284 L164 274 L234 237 L293 195 L343 147 L333 141 L333 138 L370 126 Z M390 76 L391 79 L389 83 L394 86 L394 90 L389 98 L389 103 L392 105 L392 102 L394 100 L397 101 L399 118 L394 131 L386 137 L385 135 L388 132 L391 124 L390 112 L383 105 L378 105 L377 106 L378 110 L376 112 L373 112 L369 107 L369 100 L371 96 L377 99 L380 99 L378 94 L379 87 Z M254 17 L244 73 L251 78 L240 97 L235 97 L224 121 L219 121 L215 145 L223 160 L239 167 L247 181 L252 183 L256 206 L262 166 L265 163 L269 165 L262 177 L264 181 L268 171 L285 162 L293 152 L296 133 L292 121 L286 118 L276 97 L271 97 L261 80 L261 75 L267 73 L266 56 Z M244 163 L248 165 L251 171 L252 176 L251 180 L249 179 L246 170 L242 166 Z M268 159 L275 158 L278 161 L274 163 L269 161 Z M233 161 L236 158 L243 159 L242 161 L238 163 L235 163 Z M255 129 L265 139 L268 144 L268 151 L263 156 L263 160 L260 164 L256 179 L254 178 L254 173 L251 164 L248 160 L248 156 L243 152 L243 144 L245 140 Z M256 108 L267 123 L267 132 L269 132 L271 129 L273 130 L277 138 L277 147 L275 151 L272 153 L271 143 L269 138 L259 128 L259 126 L257 125 L255 121 L248 132 L242 138 L240 144 L240 153 L238 154 L236 150 L233 148 L234 136 L239 129 L242 132 L244 132 L244 123 L253 110 Z M255 38 L257 39 L262 55 L260 65 L263 67 L259 71 L257 79 L260 87 L267 96 L267 109 L269 109 L269 106 L273 103 L283 117 L282 131 L289 126 L292 133 L292 145 L282 156 L277 155 L282 146 L280 135 L274 123 L269 121 L268 117 L260 108 L256 98 L241 122 L237 123 L230 136 L229 146 L235 156 L233 157 L225 154 L220 148 L218 141 L222 126 L229 131 L227 120 L237 104 L239 103 L242 108 L244 108 L244 96 L253 83 L254 75 L248 67 L251 65 L249 55 Z"/></svg>
