<svg xmlns="http://www.w3.org/2000/svg" width="512" height="512" viewBox="0 0 512 512" aria-hidden="true" focusable="false"><path fill="currentColor" fill-rule="evenodd" clip-rule="evenodd" d="M19 139 L19 165 L42 246 L65 303 L87 342 L128 384 L131 398 L139 406 L204 419 L325 418 L377 404 L385 384 L425 343 L452 294 L480 217 L496 150 L488 133 L465 131 L369 162 L331 118 L302 102 L270 94 L235 95 L198 108 L177 122 L144 162 L54 132 L31 131 Z M241 389 L243 388 L244 390 L242 391 Z M138 389 L141 388 L144 390 L144 392 L140 393 Z M279 387 L284 386 L285 389 L281 390 Z M324 376 L327 375 L328 377 L325 378 Z M307 374 L309 377 L304 379 L303 377 Z M267 372 L270 377 L263 378 L272 390 L271 391 L266 390 L267 394 L263 397 L257 396 L258 401 L256 402 L253 398 L251 398 L246 394 L246 392 L250 389 L247 388 L245 384 L250 378 L245 378 L244 374 L252 373 L253 376 L257 378 L258 377 L256 374 L257 372 L259 371 Z M174 369 L177 368 L183 374 L180 375 L175 373 Z M304 366 L305 369 L301 372 L300 370 Z M267 366 L271 368 L270 372 L266 371 L265 368 Z M207 367 L210 366 L213 371 L211 372 Z M340 365 L343 370 L339 373 L335 373 L334 370 Z M139 352 L141 351 L143 354 L141 355 Z M276 349 L277 351 L281 352 L281 355 L279 358 L275 358 L276 364 L273 366 L269 363 L270 351 Z M380 345 L381 347 L376 350 L375 347 L377 345 Z M134 343 L138 347 L137 350 L135 350 L132 347 Z M372 337 L374 336 L375 338 L373 339 Z M345 318 L350 318 L351 322 L355 322 L356 320 L359 321 L365 329 L364 346 L362 347 L361 352 L356 359 L354 358 L351 359 L352 363 L349 366 L345 365 L343 361 L347 349 L346 341 L349 339 L349 336 L346 333 L342 333 L341 330 L339 329 L338 330 L339 333 L332 336 L335 338 L334 344 L332 343 L332 341 L328 341 L326 337 L327 334 L330 334 L330 332 L328 331 L329 327 L331 325 L335 326 L335 322 L337 320 L341 319 L342 321 L344 321 Z M162 318 L167 318 L169 322 L174 322 L176 320 L184 327 L186 331 L186 339 L182 344 L178 343 L178 336 L172 333 L168 333 L168 339 L163 340 L163 342 L166 343 L166 349 L163 350 L163 353 L167 353 L171 361 L170 365 L167 367 L165 367 L161 363 L162 359 L158 360 L155 357 L151 348 L149 347 L147 337 L148 329 L151 324 L155 320 Z M368 316 L372 317 L378 316 L379 317 L378 319 L376 319 L376 321 L379 322 L376 332 L373 332 L370 329 L370 325 L372 322 L367 320 Z M226 316 L234 317 L236 323 L233 327 L229 326 L230 331 L224 342 L224 353 L227 358 L225 363 L229 364 L238 371 L237 378 L233 378 L232 376 L224 373 L222 371 L223 367 L215 363 L212 354 L212 344 L215 343 L213 336 L217 327 Z M147 315 L148 316 L147 319 L145 321 L140 322 L143 325 L143 328 L141 330 L141 338 L139 339 L133 322 L138 321 L139 317 Z M149 314 L151 313 L152 315 L150 316 Z M257 311 L267 322 L267 324 L275 331 L274 337 L277 337 L280 340 L282 349 L276 349 L275 347 L270 348 L268 345 L269 340 L263 340 L258 331 L255 331 L254 333 L251 333 L251 339 L248 340 L243 337 L244 359 L253 358 L250 350 L251 347 L255 344 L258 344 L262 348 L263 356 L259 357 L260 362 L257 365 L241 365 L232 354 L232 342 L234 340 L237 340 L237 332 Z M139 309 L140 304 L145 305 L145 307 L142 310 Z M414 303 L415 305 L412 308 L411 306 Z M95 299 L98 298 L99 300 L96 301 Z M416 294 L419 295 L417 300 L414 299 Z M409 293 L410 295 L407 301 L405 302 L403 299 L403 294 Z M93 288 L97 290 L98 294 L97 296 L93 294 L92 291 Z M112 287 L113 289 L110 293 L110 296 L104 297 L102 291 L106 290 L107 288 Z M421 284 L422 285 L421 290 L418 292 L416 290 L417 286 Z M390 280 L392 282 L392 286 L396 294 L398 310 L397 315 L392 316 L392 319 L396 320 L396 324 L392 332 L385 336 L386 341 L383 343 L380 341 L380 339 L383 334 L384 328 L388 327 L388 325 L385 324 L384 309 L381 304 L382 300 L377 300 L374 303 L374 309 L371 310 L368 307 L368 298 L370 294 L378 286 Z M123 280 L126 282 L125 287 L128 287 L130 285 L135 286 L137 292 L140 291 L145 298 L144 302 L138 302 L133 299 L133 296 L131 296 L132 304 L128 313 L128 326 L133 342 L130 344 L124 338 L125 333 L122 333 L119 327 L120 325 L122 325 L122 323 L116 319 L115 314 L116 297 L119 289 L123 290 L123 288 L120 287 L121 282 Z M256 277 L259 280 L258 285 L263 285 L276 300 L275 307 L278 309 L278 312 L275 313 L275 316 L287 316 L289 318 L289 325 L294 325 L296 327 L301 340 L301 353 L297 364 L295 366 L291 366 L291 371 L280 378 L275 377 L274 371 L283 365 L289 352 L288 339 L283 331 L284 326 L280 327 L262 307 L257 297 L240 319 L235 317 L236 312 L234 311 L237 300 Z M89 264 L94 266 L94 276 L95 277 L94 282 L90 281 L90 274 L88 272 Z M420 262 L425 264 L425 270 L423 271 L422 279 L418 278 Z M273 228 L274 224 L279 225 L276 229 Z M216 225 L217 224 L227 224 L228 227 L219 228 Z M301 224 L304 223 L305 225 L302 226 Z M291 227 L292 224 L295 223 L298 224 L297 227 L294 228 Z M204 223 L208 222 L211 225 L205 226 Z M311 222 L313 221 L314 224 L312 225 Z M193 221 L199 220 L200 224 L195 225 Z M235 225 L244 223 L246 221 L249 224 L252 224 L251 221 L252 219 L255 220 L261 219 L267 222 L267 229 L266 230 L236 230 Z M245 205 L250 210 L248 213 L244 210 Z M319 198 L321 197 L322 199 L320 200 Z M253 188 L259 187 L262 191 L262 194 L259 195 L259 199 L261 200 L259 203 L257 202 L254 203 L252 201 L251 191 Z M384 185 L385 188 L384 197 L382 199 L377 199 L376 204 L373 205 L371 208 L362 212 L359 212 L356 215 L346 218 L334 220 L332 222 L330 221 L328 223 L322 222 L324 218 L340 215 L342 213 L355 209 L369 201 L377 192 L377 182 L378 181 Z M129 185 L134 181 L136 182 L134 186 L137 193 L136 197 L138 199 L141 198 L145 202 L149 203 L154 207 L171 213 L173 215 L188 218 L190 222 L185 223 L183 221 L181 222 L179 220 L167 218 L157 215 L155 213 L140 207 L129 197 L129 194 L131 193 L129 189 Z M481 176 L448 280 L412 345 L374 380 L327 397 L372 388 L374 393 L348 405 L269 411 L260 407 L267 407 L276 395 L288 394 L291 387 L317 386 L342 378 L377 358 L409 325 L413 326 L411 322 L426 296 L430 268 L441 258 L442 247 L434 257 L422 258 L422 252 L454 227 L460 207 L451 222 L429 236 L415 252 L411 286 L400 289 L402 281 L397 274 L402 264 L396 258 L392 270 L362 294 L361 310 L336 313 L326 320 L320 332 L320 348 L327 349 L328 355 L336 350 L339 354 L315 375 L311 367 L318 363 L319 355 L307 357 L312 347 L308 346 L303 325 L255 262 L210 325 L205 339 L206 357 L202 352 L195 357 L208 378 L187 370 L174 354 L191 345 L190 324 L177 313 L152 309 L148 290 L121 270 L117 258 L115 280 L103 288 L100 258 L94 246 L67 228 L53 207 L63 233 L83 243 L91 253 L91 259 L79 257 L79 251 L70 247 L72 258 L82 266 L79 271 L83 272 L93 310 L127 350 L126 355 L133 355 L175 383 L233 386 L224 393 L237 395 L253 407 L245 411 L206 410 L149 401 L149 391 L171 396 L175 401 L186 395 L139 380 L103 348 L64 278 L33 183 L37 178 L74 208 L124 233 L175 248 L250 256 L252 261 L254 256 L338 248 L391 232 L437 209 Z M134 170 L136 169 L137 171 L135 172 Z M255 146 L257 145 L258 147 L256 148 Z M29 148 L34 140 L52 141 L130 168 L131 174 L118 185 L117 195 L131 211 L188 231 L236 236 L311 233 L359 222 L383 210 L395 197 L395 185 L391 176 L382 174 L383 168 L461 141 L478 140 L484 151 L455 185 L388 223 L318 242 L237 247 L178 239 L113 218 L59 186 L34 161 Z M144 187 L165 147 L195 120 L236 104 L269 103 L297 110 L332 131 L355 157 L369 190 L340 208 L311 211 L305 216 L292 213 L290 217 L273 217 L267 211 L270 204 L275 204 L276 196 L256 166 L244 195 L237 196 L238 209 L244 215 L228 218 L231 202 L223 201 L221 193 L214 193 L213 198 L210 189 L220 178 L229 180 L233 173 L239 176 L238 165 L251 151 L260 149 L269 158 L268 163 L274 163 L274 176 L280 173 L284 180 L293 178 L303 189 L282 202 L287 208 L302 209 L307 204 L310 209 L345 185 L315 192 L293 170 L282 172 L278 157 L261 140 L263 135 L257 127 L251 141 L233 160 L232 171 L214 173 L202 191 L182 191 L168 183 L176 194 L189 197 L201 210 L206 204 L211 210 L227 208 L220 217 L170 207 L150 197 Z"/></svg>
