<svg xmlns="http://www.w3.org/2000/svg" width="512" height="512" viewBox="0 0 512 512" aria-hidden="true" focusable="false"><path fill="currentColor" fill-rule="evenodd" clip-rule="evenodd" d="M90 194 L81 211 L80 239 L90 264 L104 282 L98 294 L110 316 L97 304 L78 257 L65 246 L57 253 L79 329 L145 391 L144 412 L114 395 L118 416 L127 421 L126 436 L132 446 L148 453 L157 447 L155 439 L149 446 L148 437 L163 436 L178 465 L193 482 L225 496 L206 484 L190 462 L188 424 L194 366 L187 345 L230 300 L248 309 L243 332 L249 359 L235 384 L211 407 L209 423 L217 441 L212 457 L225 451 L245 420 L242 388 L259 363 L273 387 L276 415 L263 438 L264 458 L280 480 L292 484 L287 470 L297 458 L299 443 L285 415 L282 386 L267 357 L271 319 L266 309 L282 301 L325 346 L318 370 L324 428 L322 455 L312 476 L285 496 L317 481 L347 436 L362 437 L359 447 L357 439 L353 440 L353 448 L361 453 L379 444 L385 426 L379 421 L392 414 L395 395 L368 409 L366 394 L376 380 L415 352 L434 331 L456 257 L454 251 L445 251 L436 259 L417 305 L392 327 L414 301 L415 292 L408 286 L425 264 L433 243 L432 216 L415 191 L396 182 L381 181 L345 196 L325 181 L295 180 L269 200 L262 220 L262 241 L252 240 L254 220 L243 195 L214 177 L187 181 L169 194 L142 177 L122 176 Z M283 464 L284 470 L283 475 L281 476 L277 470 L277 466 Z M288 457 L289 462 L287 464 L284 464 L283 463 L284 460 Z M271 458 L274 457 L278 463 L272 464 Z M280 453 L283 455 L282 458 L278 456 Z M282 450 L284 449 L285 451 L283 452 Z M292 449 L294 448 L295 451 L293 452 Z M275 448 L277 447 L278 449 L276 450 Z M266 448 L270 447 L271 451 L268 453 Z M283 447 L285 446 L286 448 L284 449 Z M289 440 L294 439 L295 445 L291 446 Z M284 437 L285 439 L283 443 L280 445 L277 440 Z M221 436 L227 438 L227 442 L222 448 L220 447 L220 437 Z M273 433 L274 435 L272 440 L269 443 L266 442 L267 438 Z M287 433 L289 432 L292 436 L289 438 Z M180 429 L182 428 L183 430 L181 431 Z M232 427 L234 431 L233 435 L231 437 L227 436 L226 433 Z M216 428 L218 427 L221 430 L221 432 L217 433 Z M220 421 L228 420 L229 424 L224 429 Z M173 421 L175 420 L177 423 L175 424 Z M149 420 L163 421 L172 426 L178 433 L181 444 L183 446 L184 455 L188 466 L187 469 L185 468 L177 451 L176 445 L170 436 L164 431 L159 429 L151 430 L147 429 L147 427 L149 426 L148 423 Z M361 419 L362 421 L360 423 L359 429 L352 429 L345 431 L337 439 L333 448 L332 454 L330 455 L324 468 L321 470 L320 468 L326 456 L328 441 L331 434 L338 426 L344 422 Z M219 413 L222 412 L224 417 L222 418 L219 415 Z M156 411 L157 410 L168 411 L171 414 L163 415 L158 414 Z M362 410 L356 416 L346 417 L342 419 L339 418 L339 415 L343 412 L357 411 L360 409 Z M388 406 L389 408 L386 415 L383 417 L378 415 L376 418 L376 427 L379 428 L379 434 L376 441 L372 445 L364 447 L363 443 L365 442 L366 437 L363 430 L370 429 L372 427 L372 424 L368 425 L366 424 L366 420 L368 416 L373 411 L385 408 Z M280 405 L282 406 L281 414 L279 413 Z M237 405 L240 407 L240 410 L242 411 L242 417 L238 425 L235 424 L235 420 L238 415 L236 408 Z M225 406 L227 405 L228 408 L232 406 L233 407 L232 411 L227 414 L225 411 Z M121 405 L125 408 L132 409 L138 412 L143 418 L144 423 L142 426 L138 426 L138 428 L144 429 L146 432 L144 436 L144 440 L146 444 L145 448 L138 445 L132 439 L129 428 L133 426 L134 420 L130 415 L127 416 L123 415 L120 409 Z M219 402 L222 401 L223 403 L220 404 Z M233 390 L235 389 L238 392 L235 393 Z M270 373 L272 372 L273 374 L271 375 Z M250 353 L253 352 L254 354 L251 355 Z M261 346 L263 345 L264 347 L262 348 Z M253 344 L254 346 L251 348 L250 346 Z M121 324 L123 323 L125 326 L123 327 Z M113 318 L115 317 L118 321 L115 322 Z M257 315 L260 317 L263 322 L263 331 L258 338 L255 337 L251 328 L251 323 L253 322 L253 319 Z M242 293 L252 288 L255 285 L259 285 L262 288 L271 292 L273 295 L259 302 L256 302 L243 296 Z M272 277 L274 278 L275 282 L274 284 L271 283 L269 280 Z M241 278 L244 277 L246 280 L242 282 Z M250 275 L252 274 L253 276 L251 277 Z M230 265 L232 264 L233 266 L231 267 Z M451 255 L436 314 L426 334 L366 384 L358 406 L341 408 L328 417 L323 373 L328 352 L338 336 L351 324 L381 309 L402 293 L409 292 L406 305 L375 334 L368 349 L403 326 L424 302 L440 261 Z M266 256 L268 255 L270 258 L267 259 Z M256 255 L259 255 L262 258 L266 259 L269 264 L267 269 L259 273 L254 272 L247 268 L248 262 Z M247 255 L248 257 L244 260 L243 258 Z M64 252 L76 262 L91 303 L113 326 L129 334 L145 348 L138 332 L108 304 L103 295 L104 289 L162 323 L173 333 L185 352 L189 369 L184 416 L176 409 L153 405 L145 382 L90 336 L78 316 Z M258 248 L261 245 L264 246 L261 249 Z M275 238 L277 237 L278 239 L276 240 Z M237 237 L239 236 L240 238 L238 239 Z M410 194 L423 208 L428 225 L421 261 L389 299 L345 323 L327 341 L291 304 L298 289 L291 285 L284 291 L275 276 L289 272 L291 263 L279 261 L268 250 L286 241 L285 232 L280 230 L265 237 L271 206 L292 186 L307 183 L322 185 L343 201 L338 213 L348 227 L333 243 L342 261 L327 275 L333 290 L322 300 L321 310 L337 291 L332 276 L347 263 L338 244 L354 228 L344 212 L348 203 L379 186 Z M107 187 L137 182 L151 186 L167 199 L171 212 L161 227 L177 242 L168 260 L183 272 L177 288 L194 306 L193 297 L181 286 L188 271 L174 259 L184 243 L168 227 L177 214 L173 198 L190 185 L209 182 L228 188 L243 204 L249 236 L234 230 L229 238 L251 247 L223 264 L227 272 L240 276 L231 290 L224 284 L216 287 L215 294 L225 300 L192 336 L182 338 L167 321 L127 298 L92 258 L85 219 L92 201 Z M369 153 L367 153 L354 163 L352 167 L354 167 L369 156 Z M145 153 L145 155 L160 167 L164 167 L149 154 Z M337 121 L333 122 L320 144 L321 145 L324 144 L327 137 L336 125 Z M178 121 L179 125 L183 129 L183 131 L190 142 L193 145 L195 145 L195 143 L185 128 L185 126 L183 125 L183 123 L181 121 Z M372 116 L370 116 L336 153 L336 155 L338 155 L369 123 L370 120 L373 118 Z M141 117 L154 130 L154 132 L176 154 L178 154 L178 152 L155 128 L155 126 L144 116 Z M320 92 L317 92 L315 96 L315 99 L309 110 L306 119 L307 121 L309 119 L309 116 L312 114 Z M195 92 L199 105 L204 115 L206 116 L207 121 L208 116 L204 108 L204 105 L201 102 L198 92 Z M256 17 L253 37 L238 63 L239 71 L249 80 L240 82 L240 88 L226 108 L228 128 L219 138 L215 133 L211 135 L215 141 L211 154 L214 166 L221 173 L239 173 L248 180 L259 209 L258 197 L267 180 L275 174 L284 177 L296 172 L303 163 L300 146 L303 133 L295 138 L287 128 L289 108 L276 90 L275 82 L266 80 L275 72 L277 64 Z M257 154 L263 159 L267 170 L265 178 L258 189 L255 187 L253 181 L250 179 L248 174 L249 165 Z M257 129 L270 143 L270 147 L274 147 L277 151 L278 163 L275 169 L272 171 L270 170 L270 165 L266 156 L260 150 L259 146 L256 146 L256 148 L247 160 L244 170 L241 170 L237 163 L236 158 L238 150 L241 147 L245 148 L246 141 L254 134 L254 132 Z M257 75 L267 87 L267 94 L269 94 L270 89 L274 92 L277 98 L276 106 L281 104 L285 109 L286 121 L282 123 L282 127 L293 144 L296 145 L292 153 L299 155 L297 164 L291 170 L282 171 L280 169 L283 163 L283 155 L277 140 L271 138 L257 119 L241 141 L237 140 L233 153 L235 169 L232 171 L225 170 L216 160 L216 154 L224 152 L219 146 L223 144 L225 137 L235 123 L240 127 L241 115 L257 98 L274 115 L275 126 L278 125 L278 114 L263 98 L258 88 L256 88 L252 98 L238 112 L236 122 L231 123 L229 121 L230 108 L234 105 L238 107 L238 97 L243 91 L245 94 L248 93 L248 87 Z M256 64 L258 63 L259 65 L257 66 Z M257 39 L259 40 L266 52 L265 59 L270 58 L273 64 L272 69 L268 73 L265 74 L263 73 L262 68 L266 67 L266 65 L261 62 L258 55 L256 55 L253 63 L248 65 L248 67 L252 67 L254 69 L252 74 L247 73 L243 68 L243 62 L245 59 L249 59 L249 52 L253 48 Z"/></svg>
