<svg xmlns="http://www.w3.org/2000/svg" width="512" height="512" viewBox="0 0 512 512" aria-hidden="true" focusable="false"><path fill="currentColor" fill-rule="evenodd" clip-rule="evenodd" d="M141 314 L140 320 L144 323 L147 323 L150 319 L150 316 L147 313 Z M358 309 L356 310 L356 315 L360 316 L362 314 L362 311 Z M384 291 L377 294 L372 300 L370 308 L370 319 L364 331 L369 328 L369 326 L371 325 L374 317 L374 307 L376 300 Z M328 277 L328 279 L333 283 L333 285 L336 288 L347 285 L347 283 L339 274 L331 275 Z M335 279 L337 278 L340 281 L340 283 L338 284 Z M321 265 L313 277 L313 284 L317 291 L323 297 L333 303 L342 305 L351 303 L359 291 L359 285 L355 277 L341 266 L331 263 Z M338 299 L340 298 L341 300 L339 301 Z M335 298 L337 297 L338 299 L336 300 Z M319 287 L321 286 L327 292 L333 295 L335 298 L333 299 L326 295 Z M320 271 L324 268 L331 267 L344 272 L353 281 L355 285 L355 291 L350 295 L341 295 L335 293 L323 283 L320 276 Z M92 256 L98 276 L91 298 L94 317 L89 320 L97 361 L109 376 L104 380 L126 404 L154 418 L125 413 L114 400 L116 415 L129 432 L153 448 L171 446 L180 432 L195 436 L201 448 L183 457 L181 468 L186 475 L211 483 L250 486 L257 496 L263 486 L302 483 L328 473 L328 456 L312 448 L319 435 L333 432 L340 445 L355 449 L386 430 L395 419 L398 401 L386 414 L357 418 L381 408 L409 380 L403 376 L415 362 L424 319 L419 317 L421 296 L415 278 L419 257 L409 268 L402 290 L404 302 L398 301 L381 325 L381 338 L392 345 L391 352 L382 361 L374 346 L369 366 L373 368 L375 358 L383 372 L382 384 L372 396 L369 392 L377 376 L367 374 L353 350 L358 326 L332 309 L319 308 L302 282 L280 282 L260 298 L215 289 L198 300 L182 279 L177 260 L178 278 L197 306 L191 308 L185 294 L169 279 L169 285 L188 306 L177 318 L166 304 L141 299 L164 307 L171 315 L154 328 L159 352 L145 375 L136 376 L141 396 L132 387 L129 374 L137 358 L142 368 L143 357 L138 346 L131 361 L123 355 L121 344 L130 340 L132 327 L115 300 L108 301 L110 288 L104 269 Z M243 472 L249 469 L256 479 L263 470 L269 471 L270 473 L267 477 L264 477 L264 480 L256 488 L249 481 L249 476 L246 478 Z M326 467 L326 469 L323 472 L311 477 L279 482 L269 481 L273 476 L300 474 L313 471 L324 466 Z M185 467 L188 466 L193 469 L212 474 L227 476 L240 476 L242 481 L235 482 L205 478 L188 472 L185 469 Z M277 471 L279 468 L281 468 L282 465 L295 469 L294 471 L286 472 Z M236 471 L226 472 L218 471 L217 469 L229 464 Z M325 458 L325 461 L319 465 L308 468 L306 467 L307 463 L315 463 L319 461 L321 456 Z M187 458 L193 455 L194 457 L192 458 L192 461 L197 463 L205 463 L206 467 L204 468 L193 465 L187 461 Z M268 453 L275 453 L281 457 L280 462 L277 466 L272 468 L269 468 L266 466 L267 464 L266 455 Z M241 452 L247 455 L246 466 L243 468 L236 466 L232 460 L233 456 Z M291 451 L295 451 L298 455 L299 461 L298 464 L291 464 L285 460 L286 457 L292 458 L292 455 L290 453 Z M282 452 L284 451 L285 453 L283 454 Z M215 454 L218 451 L222 451 L223 453 L221 457 L226 457 L228 460 L221 464 L214 464 L213 462 Z M256 449 L258 450 L263 458 L263 464 L257 472 L253 469 L249 462 L250 457 Z M299 450 L307 448 L314 458 L310 460 L303 458 Z M212 449 L213 451 L209 458 L203 460 L200 458 L200 455 L202 454 L205 448 Z M266 443 L269 446 L269 449 L263 452 L260 449 L260 447 Z M246 443 L253 447 L250 452 L244 449 L244 446 Z M313 438 L311 442 L299 446 L274 448 L272 445 L273 443 L296 441 L308 437 Z M200 437 L204 436 L208 439 L216 441 L239 443 L240 447 L239 448 L228 448 L209 445 L203 443 L200 440 Z M266 433 L267 432 L286 432 L294 433 L296 436 L292 438 L268 440 Z M218 436 L220 433 L227 432 L246 432 L247 433 L245 440 L221 438 Z M311 430 L321 429 L322 431 L312 432 Z M191 430 L200 429 L201 431 L192 432 Z M323 429 L326 428 L327 430 L324 431 Z M182 428 L185 427 L186 429 L183 430 Z M256 426 L258 427 L263 435 L263 440 L260 446 L257 443 L253 446 L249 439 L250 434 Z M231 426 L233 425 L234 427 L232 428 Z M391 417 L389 422 L383 428 L376 432 L367 434 L368 438 L360 444 L356 445 L345 444 L338 437 L338 431 L346 427 L347 428 L346 436 L352 439 L356 438 L360 435 L361 433 L360 430 L356 430 L354 435 L349 433 L350 430 L355 425 L366 422 L378 421 L389 416 Z M122 417 L124 416 L134 421 L147 422 L159 426 L163 431 L161 435 L158 434 L157 430 L152 430 L152 434 L156 438 L159 439 L164 438 L167 434 L166 430 L167 427 L175 431 L175 436 L167 444 L164 445 L153 444 L145 439 L146 434 L136 432 L128 427 L123 421 Z M319 405 L316 416 L308 425 L301 427 L299 429 L294 430 L288 429 L296 421 L300 413 L303 410 L310 408 L317 404 Z M193 405 L196 404 L202 408 L208 409 L213 414 L218 423 L225 429 L224 430 L213 429 L203 424 L197 417 Z M256 391 L268 403 L272 411 L271 421 L265 428 L263 428 L260 425 L257 417 L252 426 L248 428 L243 423 L241 417 L241 410 L244 404 Z M322 388 L329 393 L330 397 L333 398 L333 403 L331 410 L326 418 L315 426 L314 424 L320 416 L322 408 L326 401 L326 398 L321 399 L319 398 L319 393 L317 389 Z M191 388 L196 389 L194 392 L194 398 L193 399 L186 398 L186 400 L191 409 L193 417 L198 423 L197 425 L195 425 L185 416 L180 407 L180 398 L182 394 Z M296 381 L297 382 L296 387 L297 395 L295 398 L295 401 L298 402 L297 411 L294 418 L288 424 L280 428 L279 426 L283 422 L287 412 L287 403 L285 397 L283 396 L283 390 L291 382 Z M217 381 L224 384 L229 389 L230 392 L226 402 L226 414 L229 421 L232 424 L231 426 L227 426 L223 421 L220 420 L215 409 L214 403 L218 401 L216 396 L216 382 Z M370 380 L373 381 L371 385 L369 384 Z M140 379 L143 381 L142 385 L140 384 L139 381 Z M175 373 L177 373 L180 376 L184 383 L184 387 L181 390 L177 389 L176 399 L177 408 L180 415 L185 421 L184 423 L180 422 L169 413 L163 401 L164 397 L168 398 L163 388 L165 380 L168 379 L172 383 L172 378 Z M337 372 L341 379 L341 383 L345 378 L348 381 L349 391 L345 396 L345 398 L349 397 L350 400 L345 411 L337 419 L328 423 L327 421 L333 414 L336 406 L336 390 L332 391 L329 388 L329 381 L334 374 Z M256 369 L267 381 L268 387 L272 386 L282 400 L283 412 L280 420 L275 425 L273 424 L276 417 L275 408 L271 401 L259 389 L257 384 L239 405 L237 411 L237 417 L239 423 L236 424 L232 419 L229 408 L231 399 L233 398 L234 394 L241 385 L245 387 L245 382 Z M365 397 L360 409 L349 420 L336 428 L328 430 L327 428 L339 422 L349 412 L352 406 L355 392 L350 377 L351 369 L348 369 L342 374 L339 363 L337 363 L328 375 L324 385 L319 385 L313 381 L309 386 L308 392 L313 390 L315 399 L313 403 L306 405 L302 404 L302 396 L300 395 L300 384 L304 374 L291 378 L278 388 L274 381 L263 372 L263 369 L302 366 L333 359 L350 352 L362 370 L366 384 Z M148 399 L147 381 L150 371 L163 352 L183 360 L210 366 L251 369 L233 388 L220 377 L209 375 L213 386 L211 405 L209 406 L198 401 L198 392 L204 392 L200 381 L194 385 L189 385 L176 364 L173 365 L173 370 L170 374 L161 368 L162 380 L158 392 L160 404 L164 413 L181 426 L181 429 L161 418 L152 408 Z M349 346 L348 349 L331 355 L329 357 L327 356 L325 358 L305 362 L287 364 L271 364 L270 365 L259 365 L257 362 L258 358 L286 358 L305 356 L331 351 L341 348 L346 345 Z M163 346 L166 345 L178 350 L208 356 L228 358 L255 358 L256 362 L254 365 L245 365 L244 364 L226 364 L197 360 L173 353 L165 349 Z M395 336 L398 338 L400 342 L400 352 L396 360 L388 368 L386 368 L384 364 L392 357 L395 351 L395 342 L392 338 L393 336 Z M117 336 L120 337 L117 343 L118 352 L121 358 L128 364 L127 368 L123 367 L117 361 L113 354 L112 343 L113 340 Z M269 346 L270 342 L275 337 L285 333 L297 334 L303 337 L308 342 L307 344 L304 345 L294 345 L290 342 L287 342 L281 347 L270 347 Z M260 337 L255 347 L253 347 L247 342 L245 342 L239 347 L228 347 L227 346 L228 342 L233 337 L239 334 L251 333 Z M198 331 L204 334 L199 341 L193 338 Z M168 330 L170 329 L171 331 L169 332 Z M229 334 L229 332 L232 329 L241 326 L254 326 L264 331 L263 333 L260 333 L254 330 L245 329 L237 331 L231 335 Z M224 326 L226 331 L226 337 L224 344 L221 346 L220 343 L222 339 L222 327 Z M316 340 L316 342 L314 343 L306 334 L298 330 L286 329 L273 334 L267 340 L263 348 L260 347 L262 340 L265 338 L265 336 L270 331 L278 327 L288 325 L297 326 L306 330 Z M228 324 L231 323 L232 325 L229 326 Z M306 323 L308 322 L309 324 L307 325 Z M157 330 L162 325 L171 321 L172 323 L167 326 L164 330 L164 333 L168 337 L189 345 L230 351 L283 351 L324 345 L334 342 L344 337 L349 331 L344 325 L345 323 L352 326 L356 333 L351 339 L341 344 L313 351 L288 354 L244 355 L243 354 L225 354 L206 352 L181 347 L163 340 L157 334 Z M318 318 L327 318 L332 322 L334 326 L332 329 L331 335 L327 340 L321 341 L317 335 L318 333 L320 333 L321 336 L324 336 L325 331 L321 326 L318 326 L316 328 L312 327 L315 320 Z M301 319 L303 318 L304 320 L302 321 Z M180 329 L184 323 L189 319 L197 316 L204 316 L210 318 L217 325 L219 334 L216 344 L209 345 L203 343 L209 335 L209 332 L199 325 L196 325 L186 340 L179 337 Z M321 312 L326 311 L334 314 L338 318 L338 321 L340 323 L338 329 L336 328 L335 321 L331 316 L322 314 Z M220 312 L227 311 L228 319 L226 320 Z M286 308 L287 315 L278 319 L277 312 Z M241 300 L250 309 L254 320 L253 322 L248 321 L247 313 L244 307 L240 303 Z M236 298 L238 297 L240 300 L238 301 Z M205 303 L210 297 L228 298 L240 308 L244 316 L244 321 L233 325 L232 324 L232 314 L230 308 L217 306 L216 309 L214 310 L206 307 Z M233 296 L235 295 L236 297 L234 298 Z M298 293 L302 298 L303 305 L300 314 L293 322 L287 321 L288 319 L291 318 L290 302 L287 301 L273 308 L273 318 L274 319 L273 326 L266 328 L262 325 L264 310 L276 296 L287 291 L293 291 Z M308 292 L310 297 L310 306 L306 316 L304 315 L306 309 L306 298 L304 294 L297 289 L285 288 L273 294 L265 302 L260 311 L259 322 L258 323 L256 322 L256 313 L260 304 L275 289 L288 284 L296 284 L303 287 Z M412 282 L417 296 L417 310 L415 317 L406 325 L406 328 L413 325 L418 326 L416 338 L407 350 L414 351 L412 359 L403 371 L390 378 L390 381 L396 380 L399 382 L392 392 L381 403 L365 411 L364 409 L367 403 L376 398 L383 391 L386 385 L387 373 L399 362 L403 354 L404 341 L401 335 L393 332 L387 338 L384 334 L384 329 L387 322 L398 310 L401 312 L401 320 L403 320 L404 308 L408 301 L406 289 L409 283 Z M101 280 L106 288 L104 300 L109 309 L109 319 L112 320 L112 311 L114 310 L124 320 L128 327 L128 335 L126 338 L120 332 L116 332 L110 337 L108 343 L109 353 L115 364 L126 373 L126 383 L129 390 L135 397 L146 403 L148 408 L147 411 L139 408 L123 395 L113 383 L116 380 L123 381 L123 379 L119 375 L108 370 L100 359 L99 351 L105 351 L105 349 L96 337 L94 325 L96 324 L107 329 L106 325 L97 316 L95 308 L96 293 Z M333 255 L338 257 L342 263 L345 259 L348 262 L352 260 L351 258 L352 255 L347 253 L344 250 L343 246 L338 253 Z M382 244 L375 244 L370 246 L365 252 L366 258 L370 261 L376 261 L382 258 L386 252 L386 249 Z M382 250 L381 253 L376 257 L371 257 L369 255 L369 252 L372 249 L380 248 Z M175 239 L172 242 L172 246 L175 250 L179 250 L183 246 L183 241 L180 239 Z M175 244 L178 242 L180 245 L176 246 Z M370 234 L342 235 L324 241 L318 245 L307 257 L303 267 L302 278 L304 278 L307 265 L311 258 L321 248 L327 244 L347 238 L369 236 Z M261 234 L259 234 L247 246 L244 247 L245 253 L251 265 L268 251 L265 241 Z M260 241 L264 250 L253 259 L249 251 Z M170 219 L168 219 L163 223 L158 232 L157 243 L159 251 L162 256 L163 254 L161 247 L161 237 L164 227 Z M276 219 L270 216 L260 217 L252 221 L241 231 L231 252 L231 267 L237 277 L241 279 L257 277 L274 262 L281 249 L283 240 L283 230 Z M273 221 L279 229 L279 242 L272 258 L258 272 L249 276 L240 274 L236 269 L234 257 L241 238 L255 223 L263 220 Z M125 216 L123 220 L123 232 L126 241 L123 242 L123 256 L125 260 L123 262 L123 270 L127 282 L138 292 L146 294 L155 292 L166 296 L174 301 L182 310 L183 308 L178 300 L158 289 L153 284 L153 279 L159 281 L165 277 L166 266 L155 252 L152 254 L150 253 L148 246 L130 229 Z M130 234 L135 238 L137 248 L139 248 L140 244 L145 248 L147 253 L147 259 L150 260 L150 257 L153 256 L161 264 L163 269 L163 274 L160 277 L157 276 L158 274 L157 271 L152 271 L148 275 L148 283 L145 284 L141 276 L141 272 L143 269 L146 269 L149 266 L151 266 L152 263 L146 263 L143 259 L139 258 L138 279 L140 283 L148 290 L147 292 L136 287 L132 283 L128 275 L127 268 L132 267 L128 257 L133 256 L133 253 L130 251 L132 247 L129 244 Z M291 223 L280 211 L262 208 L245 217 L232 231 L226 243 L203 248 L195 257 L191 270 L194 285 L199 293 L201 292 L195 276 L197 262 L206 251 L221 245 L225 246 L223 254 L209 258 L201 268 L200 280 L204 290 L204 271 L212 261 L219 258 L223 259 L227 278 L236 286 L257 289 L276 280 L288 265 L294 251 L295 232 Z M276 271 L277 273 L273 276 L272 274 Z M278 214 L283 219 L287 231 L286 243 L279 260 L265 276 L255 282 L240 283 L235 281 L227 268 L227 253 L235 233 L256 214 L262 212 Z M132 198 L129 200 L129 206 L132 209 L136 209 L139 207 L140 202 L137 198 Z M132 203 L135 202 L136 204 L133 205 Z M204 195 L195 207 L195 211 L205 216 L208 216 L217 204 L217 200 L208 195 Z M208 200 L211 202 L211 206 L205 212 L201 210 L200 208 L205 201 Z M417 194 L415 195 L416 197 L415 208 L411 216 L402 225 L397 228 L386 232 L377 233 L377 235 L391 234 L405 228 L414 218 L418 208 Z M227 184 L219 181 L207 182 L194 189 L188 195 L180 212 L181 221 L188 233 L198 237 L208 236 L218 232 L230 220 L235 211 L236 199 Z M230 213 L222 224 L211 231 L208 230 L209 228 L217 224 L228 212 Z M225 188 L228 193 L228 203 L223 213 L214 222 L201 228 L193 228 L186 223 L184 219 L184 212 L188 201 L192 196 L203 188 L211 185 L219 185 Z M265 173 L264 173 L262 182 L258 190 L253 197 L241 209 L248 206 L258 196 L265 183 L266 179 Z M231 171 L230 175 L233 178 L235 178 L237 176 L237 172 Z M164 162 L162 169 L158 170 L159 173 L152 177 L159 180 L158 183 L163 186 L163 189 L166 192 L166 187 L168 184 L171 184 L171 180 L179 177 L173 175 L171 173 L171 170 L167 169 L166 162 Z M162 178 L164 173 L166 173 L169 176 L166 180 Z M305 152 L301 153 L289 164 L295 180 L297 180 L310 169 L310 164 Z M304 160 L306 167 L297 174 L294 167 L299 162 Z M193 142 L193 145 L201 154 L210 153 L201 142 Z M184 132 L178 141 L178 149 L186 162 L201 171 L213 171 L221 159 L217 147 L208 138 L197 132 Z M206 166 L208 165 L209 167 L207 168 Z M182 148 L184 147 L191 157 L193 157 L198 162 L204 164 L205 166 L202 167 L194 163 L187 157 Z M186 136 L194 135 L206 141 L215 151 L217 155 L217 159 L214 162 L209 162 L195 155 L186 143 L185 140 Z M314 129 L302 130 L289 137 L278 151 L272 164 L272 187 L278 196 L290 202 L302 203 L316 197 L328 185 L335 170 L336 153 L332 143 L323 133 Z M309 194 L311 193 L312 195 L310 196 Z M319 186 L320 189 L313 194 L312 192 Z M330 167 L331 169 L328 175 L328 178 L326 179 L324 184 L320 187 L319 184 L324 178 L328 168 Z M329 164 L331 163 L332 165 L330 166 Z M312 141 L318 146 L320 153 L319 162 L314 173 L300 187 L294 189 L286 187 L281 177 L282 167 L286 157 L291 150 L300 143 L305 141 Z M320 136 L325 142 L327 148 L326 163 L321 175 L317 181 L305 192 L296 196 L283 195 L277 189 L274 176 L276 164 L281 153 L292 140 L295 141 L285 152 L280 161 L278 168 L278 182 L283 190 L290 193 L298 192 L307 187 L318 174 L322 165 L323 149 L317 139 L313 137 L305 137 L296 141 L294 139 L300 135 L307 133 L313 133 Z M354 127 L350 127 L347 130 L347 135 L351 138 L357 135 L357 130 Z M350 132 L352 131 L353 133 L351 134 Z M406 115 L398 121 L395 135 L392 138 L386 137 L373 157 L368 156 L354 173 L353 186 L355 191 L363 197 L362 205 L359 206 L353 200 L350 211 L334 223 L335 212 L331 194 L319 212 L315 213 L304 231 L304 243 L297 256 L294 273 L296 273 L297 264 L303 251 L316 237 L332 228 L337 232 L357 227 L372 217 L379 205 L379 192 L371 183 L364 185 L364 188 L367 189 L365 192 L360 191 L357 186 L358 173 L368 162 L371 168 L374 168 L378 153 L385 146 L389 152 L391 143 L400 134 L401 147 L394 155 L396 160 L393 164 L399 166 L400 175 L398 182 L392 189 L392 193 L399 193 L398 203 L394 211 L381 221 L380 219 L389 202 L389 190 L384 178 L385 168 L377 174 L372 173 L371 176 L375 181 L378 178 L382 181 L382 187 L385 190 L385 203 L380 215 L364 227 L378 226 L390 220 L397 213 L402 203 L404 188 L401 185 L404 174 L404 158 L401 158 L400 155 L405 146 L403 125 Z M329 206 L331 211 L331 218 L329 223 L325 227 L317 231 L308 238 L307 235 L310 226 L315 220 L320 222 L322 213 Z M372 189 L375 192 L376 196 L375 204 L372 211 L363 220 L344 228 L335 230 L334 228 L337 225 L346 221 L354 212 L356 213 L354 220 L356 220 L359 217 L360 213 L366 205 L366 196 L370 193 L370 190 Z M328 110 L324 113 L324 119 L325 121 L331 123 L336 119 L336 113 L333 110 Z M330 113 L333 115 L331 119 L328 118 L328 115 Z M212 108 L211 118 L215 127 L239 149 L245 160 L247 168 L247 178 L245 188 L241 195 L243 196 L249 186 L251 176 L250 164 L248 158 L241 146 L235 139 L219 125 L215 118 L214 108 Z M257 17 L244 57 L246 64 L241 64 L237 77 L238 92 L235 94 L230 91 L224 110 L229 128 L245 139 L253 149 L256 159 L254 182 L258 172 L258 156 L252 139 L258 136 L263 147 L266 167 L268 144 L283 130 L289 116 L283 90 L278 94 L275 92 L277 82 L272 64 L267 63 L268 53 L259 33 Z M256 113 L260 116 L262 120 L262 125 L257 131 L251 124 L251 120 Z M256 88 L258 89 L259 96 L264 104 L264 111 L267 110 L271 117 L270 122 L266 127 L264 126 L266 123 L265 117 L261 113 L257 105 L248 118 L247 126 L244 124 L242 119 L244 111 L246 109 L250 110 L249 104 L254 97 L254 92 Z M256 37 L258 38 L264 53 L264 60 L262 63 L265 68 L264 75 L269 73 L273 81 L272 90 L269 96 L272 96 L275 102 L280 98 L285 109 L285 117 L282 124 L266 139 L261 133 L272 127 L274 123 L274 113 L270 103 L268 103 L263 96 L257 76 L250 96 L246 102 L243 103 L239 113 L239 123 L241 127 L252 134 L248 137 L236 130 L231 124 L228 115 L228 109 L232 99 L234 98 L238 102 L240 96 L244 97 L240 88 L240 80 L244 73 L248 74 L247 69 L251 65 L248 55 Z"/></svg>
