<svg xmlns="http://www.w3.org/2000/svg" width="512" height="512" viewBox="0 0 512 512" aria-hidden="true" focusable="false"><path fill="currentColor" fill-rule="evenodd" clip-rule="evenodd" d="M255 492 L255 496 L259 496 L259 493 Z M256 480 L254 484 L255 486 L259 486 L259 481 Z M250 416 L245 421 L244 427 L254 439 L255 443 L257 443 L260 437 L268 428 L268 422 L262 416 Z M251 420 L254 421 L255 425 L257 425 L260 420 L263 421 L264 424 L263 428 L257 435 L249 427 L249 423 Z M128 270 L130 279 L139 289 L146 292 L158 294 L155 291 L146 289 L138 285 L136 281 L132 278 L130 274 L130 269 Z M301 267 L297 268 L297 270 L301 269 Z M101 234 L104 242 L110 247 L116 250 L133 254 L137 258 L142 275 L149 282 L165 287 L165 285 L154 282 L146 276 L144 273 L140 258 L134 252 L127 249 L119 248 L110 244 L104 239 L103 235 Z M412 232 L410 232 L408 238 L399 246 L380 251 L380 253 L399 249 L409 240 Z M373 229 L373 231 L376 232 L376 229 Z M136 229 L136 232 L138 232 L139 229 Z M405 190 L405 193 L408 193 L408 190 Z M104 190 L104 193 L107 193 L107 190 Z M327 169 L322 174 L322 179 L324 184 L330 188 L339 189 L345 192 L348 195 L352 204 L357 209 L365 212 L372 211 L373 215 L380 221 L387 217 L386 211 L382 211 L382 213 L385 214 L384 217 L379 217 L376 214 L376 209 L381 204 L391 204 L399 211 L401 221 L398 229 L389 238 L370 245 L364 252 L362 258 L363 260 L366 253 L371 248 L376 245 L390 241 L400 232 L400 230 L402 229 L404 220 L402 210 L395 203 L390 201 L382 201 L375 205 L373 209 L363 209 L358 207 L354 203 L350 193 L347 190 L341 187 L332 186 L326 182 L323 177 L326 172 L331 173 L330 177 L333 176 L333 171 L330 169 Z M186 169 L182 169 L179 172 L179 175 L183 177 L182 173 L187 172 L188 180 L183 185 L171 187 L165 190 L162 193 L158 203 L154 207 L150 209 L140 209 L138 206 L130 201 L122 201 L117 203 L110 210 L108 221 L112 232 L122 241 L140 247 L146 253 L150 264 L151 264 L151 260 L149 253 L142 245 L123 238 L114 229 L111 221 L112 213 L121 204 L131 204 L136 209 L136 214 L133 217 L128 217 L127 214 L130 213 L130 211 L125 211 L124 215 L127 219 L135 219 L137 218 L140 212 L147 212 L155 209 L161 203 L166 193 L173 189 L182 188 L189 183 L190 173 Z M357 156 L350 161 L348 170 L350 175 L366 192 L368 192 L384 176 L386 172 L386 163 L382 158 L378 156 L370 157 L369 159 L366 159 L361 156 Z M356 160 L362 160 L367 165 L372 160 L379 160 L383 165 L383 170 L380 175 L368 187 L352 171 L352 164 Z M134 156 L130 158 L126 163 L125 167 L126 173 L143 192 L146 192 L161 176 L163 172 L163 163 L159 158 L155 156 L151 156 L146 159 L143 159 L142 157 Z M133 160 L139 160 L144 165 L150 160 L156 160 L160 165 L160 170 L158 174 L145 187 L131 174 L129 170 L129 164 Z M255 151 L248 163 L222 181 L215 211 L203 205 L186 205 L152 223 L163 264 L174 277 L189 284 L178 302 L184 343 L202 341 L224 346 L243 339 L247 344 L248 373 L236 408 L227 398 L227 372 L219 358 L201 350 L203 378 L184 361 L169 326 L146 317 L126 317 L124 321 L130 342 L140 356 L156 363 L181 365 L198 379 L163 379 L144 396 L173 403 L190 402 L206 394 L218 398 L231 417 L228 432 L242 443 L242 450 L258 474 L281 425 L277 415 L257 397 L278 385 L295 385 L289 377 L306 375 L330 395 L372 401 L364 384 L345 367 L326 364 L307 368 L340 356 L370 358 L382 353 L394 342 L408 316 L366 325 L338 352 L326 355 L349 324 L372 313 L383 302 L381 263 L361 268 L343 282 L339 292 L342 323 L326 348 L286 373 L286 362 L282 360 L274 375 L249 393 L256 367 L267 352 L256 353 L258 332 L277 345 L325 343 L331 305 L319 285 L334 280 L347 268 L354 235 L362 225 L326 205 L310 205 L298 211 L292 182 Z M256 403 L265 412 L270 414 L277 424 L276 433 L273 437 L268 437 L267 448 L263 450 L257 460 L251 454 L250 450 L245 447 L246 439 L244 437 L240 437 L236 432 L236 427 L240 417 Z M254 400 L256 399 L257 401 L255 402 Z M217 389 L219 388 L221 391 L219 392 Z M203 386 L205 385 L206 387 L204 388 Z M153 391 L166 382 L173 380 L189 381 L193 383 L194 385 L193 386 L188 385 L177 386 L173 388 L168 388 L168 389 L178 390 L181 388 L183 390 L183 394 L194 391 L198 391 L199 393 L187 399 L173 399 L157 393 L154 393 Z M315 376 L318 375 L326 378 L327 380 L329 380 L330 378 L336 379 L352 386 L352 384 L338 377 L331 375 L330 372 L322 373 L319 371 L320 369 L325 368 L339 369 L355 379 L356 382 L363 389 L364 394 L363 395 L343 394 L334 392 L326 388 Z M207 356 L214 359 L220 365 L224 375 L223 380 L221 379 L221 375 L217 372 L213 364 L212 366 L215 371 L215 377 L217 381 L215 382 L211 378 L211 376 L208 374 L206 368 L206 357 Z M176 355 L179 357 L178 360 L174 359 Z M171 339 L173 338 L174 340 L172 341 Z M249 333 L251 334 L250 341 L245 338 Z M399 325 L399 327 L391 339 L379 350 L370 354 L355 354 L352 352 L354 349 L363 348 L364 344 L366 345 L366 347 L372 347 L372 345 L368 345 L367 343 L385 334 L383 333 L362 342 L359 341 L355 345 L351 346 L350 345 L351 342 L361 332 L373 327 L392 326 L397 324 Z M154 324 L156 323 L160 325 L161 327 L159 328 L155 326 Z M150 323 L153 322 L154 324 L151 325 Z M130 322 L131 321 L142 321 L143 326 L149 326 L159 330 L166 337 L166 339 L168 340 L168 343 L170 344 L167 347 L168 351 L165 352 L159 349 L157 353 L151 352 L148 348 L145 347 L139 335 L137 335 L138 340 L142 347 L140 349 L137 346 L132 336 L135 333 L135 331 Z M346 316 L350 315 L351 318 L347 320 Z M364 310 L365 308 L368 307 L371 308 L370 310 L367 311 Z M363 303 L365 302 L366 304 L364 305 Z M344 294 L347 297 L346 302 L344 301 L343 296 Z M236 290 L238 289 L239 291 L237 292 Z M258 297 L263 299 L265 296 L272 301 L268 295 L270 293 L283 301 L271 291 L274 289 L285 292 L285 290 L276 287 L280 283 L299 282 L313 287 L322 295 L327 307 L322 328 L320 329 L315 325 L320 337 L305 337 L285 342 L268 336 L257 318 Z M190 290 L209 282 L223 282 L235 285 L228 289 L228 291 L236 291 L229 299 L242 292 L244 294 L239 300 L246 296 L249 299 L254 295 L255 308 L250 324 L242 334 L229 341 L214 341 L204 337 L189 338 L193 327 L187 327 L181 309 L185 296 Z M366 273 L361 278 L356 279 L354 281 L352 280 L361 272 Z M233 272 L236 271 L238 275 L236 276 Z M376 268 L377 269 L376 277 L380 279 L379 295 L378 296 L376 295 L377 283 L375 283 L374 292 L371 299 L367 303 L365 302 L365 300 L363 300 L356 307 L354 307 L353 303 L355 296 L353 296 L352 298 L350 297 L351 290 L361 278 L368 275 L367 272 L369 270 Z M233 266 L234 268 L231 271 L229 268 Z M287 263 L288 265 L283 269 L282 266 Z M225 264 L226 263 L229 264 L230 267 L228 268 Z M284 258 L286 257 L287 260 L285 261 Z M251 258 L254 257 L255 259 L252 260 Z M226 255 L228 256 L229 259 L228 261 L225 260 Z M286 255 L288 254 L289 257 L287 258 Z M353 227 L346 261 L336 273 L326 279 L309 281 L286 278 L294 272 L294 270 L289 272 L287 270 L299 260 L299 258 L289 259 L293 254 L291 243 L286 244 L285 252 L276 266 L272 266 L274 257 L294 221 L307 210 L317 208 L328 210 L345 223 L340 229 Z M159 227 L173 229 L167 223 L185 210 L194 208 L206 210 L219 221 L239 261 L234 262 L227 250 L227 244 L222 243 L220 249 L226 254 L222 256 L223 259 L218 260 L212 255 L211 257 L226 270 L223 272 L214 268 L225 275 L226 279 L193 281 L184 278 L174 271 L166 260 Z M258 160 L288 183 L293 196 L293 212 L289 225 L278 243 L273 245 L270 256 L267 252 L273 228 L266 228 L266 245 L259 245 L260 212 L255 211 L254 249 L248 247 L248 229 L244 224 L240 228 L247 260 L243 261 L240 245 L234 242 L222 221 L219 202 L226 182 L248 167 L252 176 L255 161 Z M200 151 L199 156 L195 158 L195 160 L197 160 L200 163 L200 168 L202 168 L202 163 L205 160 L207 160 L207 158 L205 158 L202 155 L202 151 Z M311 150 L311 155 L308 158 L306 158 L306 160 L308 160 L311 163 L311 168 L313 168 L313 163 L316 160 L318 160 L318 158 L316 158 L313 155 L313 150 Z M313 109 L302 115 L289 127 L280 144 L279 159 L281 159 L281 152 L284 141 L286 140 L291 130 L301 120 L319 111 L337 108 L339 106 L350 106 L352 108 L363 109 L376 113 L393 123 L408 138 L421 160 L427 187 L427 206 L425 221 L419 242 L402 273 L389 288 L389 290 L391 290 L393 286 L403 277 L415 259 L416 255 L418 254 L428 226 L431 206 L431 187 L429 173 L424 156 L419 146 L416 144 L415 140 L407 130 L395 119 L377 109 L369 107 L367 105 L349 102 L326 104 Z M183 103 L164 102 L150 104 L148 106 L146 105 L129 112 L118 119 L104 132 L92 149 L85 167 L82 181 L81 200 L83 219 L87 235 L94 252 L114 281 L132 299 L149 312 L151 312 L151 310 L136 297 L134 297 L114 276 L95 245 L87 219 L85 202 L86 182 L90 165 L96 151 L105 138 L120 123 L137 113 L150 109 L161 108 L163 106 L174 106 L176 108 L188 109 L211 119 L222 129 L224 134 L227 136 L231 144 L232 154 L234 154 L234 145 L232 139 L219 120 L203 110 Z M256 78 L255 84 L248 93 L248 100 L249 102 L253 104 L256 103 L261 104 L267 99 L267 94 L260 86 L258 78 Z M256 88 L258 88 L263 94 L262 100 L260 99 L258 95 L256 95 L253 100 L251 99 L251 94 Z M258 46 L256 46 L249 68 L242 76 L243 82 L229 97 L224 108 L226 121 L232 127 L238 127 L257 147 L273 132 L276 126 L282 127 L290 116 L286 98 L271 83 L271 74 L262 62 Z M247 113 L252 114 L256 119 L258 119 L262 114 L265 113 L269 114 L273 118 L272 127 L257 142 L254 140 L254 138 L252 138 L244 130 L241 125 L241 118 Z M256 62 L262 69 L262 73 L266 74 L268 77 L266 86 L269 86 L278 95 L278 105 L283 103 L285 106 L286 116 L280 124 L277 123 L275 114 L269 110 L262 110 L257 113 L252 110 L242 111 L237 118 L236 124 L234 124 L229 118 L229 108 L232 103 L236 105 L235 99 L239 91 L243 89 L245 85 L249 85 L246 77 L251 73 Z M255 37 L254 40 L258 42 L259 37 Z M255 26 L255 30 L259 30 L259 27 Z M256 17 L255 20 L258 21 L259 18 Z"/></svg>
