<svg xmlns="http://www.w3.org/2000/svg" width="512" height="512" viewBox="0 0 512 512" aria-hidden="true" focusable="false"><path fill="currentColor" fill-rule="evenodd" clip-rule="evenodd" d="M398 348 L389 350 L384 355 L384 360 L390 364 L391 360 L388 356 L394 353 L396 363 L390 379 L383 387 L374 369 L364 360 L354 358 L357 368 L353 377 L353 387 L359 393 L365 394 L365 402 L356 418 L350 423 L347 422 L351 417 L352 403 L347 396 L337 395 L332 400 L333 410 L342 415 L344 407 L338 404 L337 400 L345 399 L348 405 L346 419 L335 427 L307 426 L300 429 L288 441 L285 453 L305 440 L336 440 L336 438 L319 436 L295 439 L305 431 L351 433 L372 429 L386 422 L398 409 L406 388 L406 373 L397 381 L393 381 L398 368 Z M385 402 L386 404 L383 410 L389 407 L392 411 L381 421 L369 425 L368 423 L370 419 L374 416 L377 408 L382 403 Z M402 382 L403 383 L402 392 L400 393 L398 401 L395 405 L390 407 L389 405 L391 397 L388 397 L387 399 L384 398 L382 399 L381 397 L386 390 L397 386 Z M362 364 L368 368 L375 377 L377 384 L377 400 L374 409 L366 420 L355 428 L347 430 L346 428 L353 425 L362 416 L367 408 L369 398 L367 384 L363 382 L362 388 L356 385 L356 381 L360 372 L360 365 Z M153 347 L156 351 L159 350 L159 347 L157 345 Z M256 307 L251 317 L225 345 L221 352 L219 368 L227 387 L248 398 L258 410 L263 400 L281 392 L292 380 L294 357 L288 344 Z M256 341 L261 345 L269 359 L267 363 L269 364 L272 362 L277 370 L276 382 L270 388 L264 388 L263 385 L269 378 L264 379 L256 371 L259 367 L262 367 L262 363 L258 358 L254 358 L254 360 L256 360 L258 364 L252 370 L248 370 L248 372 L257 376 L259 381 L261 382 L261 385 L259 387 L263 394 L258 399 L256 399 L250 394 L254 390 L254 383 L252 381 L247 381 L247 383 L250 384 L250 387 L246 389 L240 385 L236 377 L239 365 L242 362 L245 364 L247 363 L246 356 Z M256 315 L262 319 L262 321 L283 343 L291 358 L291 372 L282 386 L279 385 L281 380 L280 367 L274 356 L271 355 L271 352 L267 349 L260 338 L258 329 L256 329 L254 337 L233 368 L233 385 L227 380 L224 374 L222 362 L224 361 L224 356 L228 347 Z M143 287 L131 301 L131 316 L121 317 L111 341 L111 362 L118 378 L116 381 L109 373 L106 374 L111 403 L128 423 L140 429 L162 433 L206 430 L216 434 L219 439 L194 436 L177 440 L209 440 L229 453 L226 440 L218 431 L207 426 L178 427 L168 420 L165 405 L170 399 L176 400 L170 406 L170 414 L173 415 L182 406 L178 396 L168 395 L161 403 L165 423 L155 416 L147 395 L160 387 L156 368 L159 358 L148 361 L132 380 L129 378 L126 356 L130 347 L145 339 L152 329 L150 299 L159 288 L160 282 Z M163 428 L165 427 L166 429 L164 430 Z M111 383 L124 389 L129 393 L131 397 L130 398 L122 397 L122 402 L128 410 L130 410 L130 408 L126 404 L127 402 L129 402 L135 407 L138 415 L143 420 L140 424 L135 423 L122 412 L122 407 L116 403 L111 393 L110 387 Z M151 364 L153 365 L153 372 L157 381 L157 385 L151 388 L150 382 L146 384 L144 389 L144 400 L148 412 L150 413 L150 415 L154 420 L163 427 L162 429 L158 428 L146 420 L146 418 L141 414 L135 397 L135 387 L138 377 L143 370 Z M129 339 L130 342 L126 346 L125 345 L126 340 Z M133 321 L138 326 L138 332 L136 335 L132 336 L130 334 L132 329 L129 329 L126 333 L126 336 L124 337 L121 348 L121 366 L124 375 L122 377 L118 372 L114 354 L115 343 L118 332 L121 329 L122 325 L128 321 Z M146 292 L147 295 L145 300 L145 308 L148 322 L146 332 L141 336 L140 335 L141 326 L139 322 L139 315 L135 314 L135 303 L138 297 L143 292 Z M256 254 L235 296 L228 297 L227 305 L204 334 L199 348 L201 359 L191 361 L192 382 L197 396 L209 407 L239 409 L246 414 L242 424 L237 424 L235 417 L230 420 L235 432 L245 434 L258 428 L273 434 L281 430 L284 421 L279 417 L278 423 L270 423 L267 415 L272 410 L301 409 L316 397 L321 386 L322 359 L314 359 L314 344 L306 327 L291 311 L286 297 L279 297 L277 286 Z M268 428 L274 427 L275 429 L269 430 Z M316 365 L317 366 L317 384 L315 391 L307 401 L297 405 L296 403 L304 396 L307 391 L307 381 L301 381 L300 378 L303 372 L308 367 L312 365 Z M198 365 L204 366 L212 374 L214 378 L213 381 L206 381 L206 389 L209 395 L216 402 L215 404 L208 402 L199 392 L197 385 L197 366 Z M221 321 L222 324 L225 326 L225 329 L219 336 L217 341 L214 343 L210 356 L210 364 L208 365 L205 362 L204 358 L204 346 L207 338 L212 339 L213 326 L217 321 Z M294 320 L296 320 L299 323 L302 329 L302 338 L306 338 L308 340 L310 348 L310 357 L306 365 L304 364 L303 352 L298 340 L288 329 L289 325 Z M280 303 L284 304 L284 307 L289 317 L288 321 L285 324 L274 313 L274 310 Z M232 302 L239 308 L240 313 L230 324 L228 324 L225 320 L225 316 L230 306 L230 303 Z M257 295 L292 338 L300 354 L301 367 L296 383 L279 399 L289 396 L298 386 L303 390 L293 401 L265 409 L263 427 L256 419 L251 428 L243 430 L250 423 L250 411 L244 405 L219 400 L210 387 L215 386 L223 395 L237 401 L220 387 L213 370 L213 358 L222 338 Z M256 266 L259 267 L264 277 L266 278 L266 280 L270 283 L274 291 L274 294 L276 295 L276 298 L274 299 L273 305 L269 307 L261 291 L259 290 L258 285 L256 285 L254 292 L250 297 L248 303 L243 308 L240 304 L239 294 L241 288 L249 278 L249 276 Z M160 79 L159 85 L156 88 L150 89 L150 91 L155 93 L159 97 L160 103 L162 103 L163 96 L172 90 L168 89 L163 84 L162 79 Z M162 88 L163 91 L160 93 L159 90 Z M356 77 L354 85 L350 89 L346 89 L346 91 L350 92 L354 96 L355 102 L357 103 L360 95 L363 92 L368 91 L368 89 L363 89 L359 85 L358 78 Z M356 88 L358 89 L357 94 L355 93 Z M250 65 L225 83 L202 76 L191 80 L200 120 L169 116 L160 122 L159 129 L136 126 L119 139 L122 150 L140 158 L154 172 L168 196 L162 201 L161 225 L124 262 L100 302 L89 335 L87 373 L96 410 L116 440 L111 452 L116 469 L138 470 L185 487 L221 494 L284 495 L328 487 L400 465 L402 454 L397 440 L417 410 L424 388 L426 344 L410 293 L381 252 L387 240 L383 222 L366 211 L353 210 L347 196 L363 169 L395 148 L395 136 L380 126 L358 128 L356 121 L347 116 L323 122 L316 119 L328 88 L322 77 L291 82 L272 66 Z M140 463 L153 459 L173 460 L182 463 L212 481 L229 485 L241 484 L248 479 L249 472 L247 470 L242 474 L235 471 L235 465 L241 461 L248 463 L256 472 L267 462 L276 462 L279 465 L279 471 L271 474 L267 469 L265 471 L265 478 L270 483 L278 485 L302 481 L332 463 L344 459 L365 460 L371 464 L329 480 L299 485 L298 487 L259 489 L258 486 L262 484 L262 479 L259 476 L255 476 L252 479 L252 483 L255 486 L254 489 L236 489 L184 480 L142 466 Z M383 461 L381 463 L363 455 L343 455 L324 463 L309 473 L296 478 L294 480 L286 482 L276 482 L273 480 L274 478 L281 478 L294 474 L308 465 L310 465 L312 462 L314 462 L322 456 L328 453 L346 448 L358 449 L369 452 Z M130 461 L136 456 L144 452 L155 449 L167 448 L185 453 L198 461 L200 461 L216 472 L228 477 L238 478 L239 481 L238 482 L228 482 L220 480 L218 478 L213 477 L203 472 L189 463 L171 455 L150 455 L132 463 Z M256 446 L259 446 L265 455 L265 459 L258 467 L256 467 L249 460 L249 454 L251 450 Z M343 340 L345 339 L346 341 L344 342 Z M329 339 L331 338 L332 340 L330 341 Z M342 337 L344 336 L345 338 L343 339 Z M347 336 L349 335 L350 337 L348 338 Z M384 329 L386 328 L390 333 L388 334 Z M381 324 L383 323 L385 327 L383 328 Z M326 322 L328 321 L329 323 L327 324 Z M342 319 L345 322 L343 326 L344 330 L343 336 L341 335 L339 322 Z M363 318 L365 317 L366 319 L364 320 Z M331 315 L335 318 L338 327 L339 340 L341 345 L340 349 L336 348 L335 338 L332 333 L330 320 Z M378 314 L380 315 L382 319 L381 321 L379 321 L377 318 Z M362 315 L364 314 L365 316 L363 317 Z M324 312 L327 309 L331 310 L330 312 L326 313 Z M358 309 L361 308 L363 313 L359 314 Z M374 308 L379 306 L382 311 L376 313 Z M365 301 L369 302 L368 306 L372 310 L376 322 L383 333 L382 338 L379 338 L377 336 L376 331 L368 318 L365 308 L363 306 L363 303 Z M372 300 L376 303 L374 308 L370 304 Z M362 296 L365 295 L366 297 L363 298 Z M326 295 L330 295 L332 297 L331 299 L332 304 L330 306 L327 306 L325 304 L324 297 Z M361 283 L363 285 L361 287 L361 292 L357 294 L354 290 L353 285 Z M323 282 L325 283 L324 289 L322 288 Z M321 272 L322 276 L321 279 L319 280 L318 274 Z M345 271 L346 270 L350 271 L354 275 L354 277 L352 278 L347 276 Z M294 271 L295 270 L298 271 L305 278 L304 279 L297 278 L294 275 Z M315 270 L311 274 L307 274 L305 272 L306 270 L313 269 Z M291 258 L292 259 L291 269 L287 271 L285 268 L286 263 Z M337 258 L339 257 L344 259 L347 262 L346 265 L341 264 Z M319 249 L321 254 L315 260 L314 259 L315 253 Z M294 247 L295 249 L290 255 L285 257 L284 256 L285 252 L289 248 Z M357 247 L358 246 L368 250 L369 252 L367 254 L362 254 L361 252 L357 250 Z M330 245 L331 244 L335 245 L339 251 L338 252 L334 251 Z M308 243 L310 252 L308 262 L304 266 L298 266 L296 264 L296 256 L301 249 L301 247 L305 243 Z M344 242 L347 241 L352 246 L352 249 L349 250 L345 246 Z M382 239 L380 244 L375 248 L370 248 L367 246 L368 244 L380 238 Z M291 242 L296 237 L303 238 L299 242 L296 243 Z M258 234 L259 233 L267 234 L272 239 L265 240 L260 237 Z M246 234 L247 233 L251 234 L256 239 L249 240 L246 238 Z M272 233 L273 232 L282 233 L288 238 L280 239 L279 237 L273 235 Z M240 233 L242 232 L243 234 L241 235 Z M286 231 L293 230 L294 232 L292 234 L289 234 Z M222 231 L225 230 L227 232 L232 232 L236 234 L240 239 L239 240 L232 239 L225 235 Z M301 232 L307 229 L311 231 L310 234 L302 234 Z M117 283 L139 254 L167 229 L176 234 L151 266 L184 235 L197 240 L182 265 L202 241 L225 244 L217 270 L230 244 L282 243 L279 263 L284 276 L298 284 L315 280 L321 314 L320 351 L342 353 L359 343 L333 292 L325 251 L346 283 L353 316 L366 344 L384 343 L399 329 L349 258 L377 256 L410 308 L420 349 L419 380 L412 405 L398 429 L381 441 L394 449 L395 461 L369 448 L344 445 L283 474 L282 462 L270 458 L256 438 L246 456 L232 462 L230 473 L183 448 L168 445 L141 449 L119 462 L119 449 L132 441 L118 433 L104 412 L93 365 L96 333 Z M360 229 L364 228 L369 233 L369 236 L367 237 L366 234 L364 234 Z M207 229 L208 228 L215 229 L219 233 L220 236 L219 237 L213 236 L207 232 Z M340 230 L343 228 L349 227 L361 240 L360 241 L353 240 L347 235 L343 234 Z M191 226 L193 225 L200 227 L202 231 L198 234 L191 228 Z M329 223 L331 224 L332 228 L330 232 L326 230 L326 227 Z M315 223 L323 229 L322 234 L317 232 L314 225 Z M375 222 L380 227 L380 233 L376 237 L374 236 L374 223 Z M170 223 L172 222 L173 224 L171 225 Z M176 221 L177 220 L182 221 L187 227 L186 230 L181 229 L176 224 Z M260 220 L266 219 L273 223 L276 227 L275 228 L267 227 Z M245 220 L251 219 L256 222 L260 227 L254 228 L250 226 Z M367 218 L370 221 L371 224 L370 226 L368 226 L365 223 Z M334 219 L340 218 L341 221 L336 222 Z M275 219 L276 218 L283 219 L290 223 L291 225 L282 226 Z M229 219 L230 218 L237 219 L245 227 L244 228 L237 227 Z M289 218 L297 217 L304 220 L305 223 L303 225 L300 225 L290 220 Z M360 216 L364 215 L365 217 L362 219 Z M214 215 L219 216 L228 225 L227 226 L220 225 L213 218 Z M167 215 L171 219 L170 223 L168 223 L166 220 Z M346 215 L352 214 L359 221 L358 222 L351 221 L346 217 Z M199 214 L200 213 L205 214 L212 221 L213 224 L211 225 L203 221 L200 218 Z M322 212 L325 215 L324 218 L321 215 Z M309 211 L315 212 L320 219 L317 220 L312 218 L308 214 Z M185 209 L187 208 L188 210 L192 211 L195 214 L197 220 L196 221 L192 220 L185 212 Z M328 209 L331 207 L338 207 L341 210 L339 212 L332 212 L329 211 Z M175 205 L178 205 L181 208 L181 211 L183 214 L182 216 L179 215 L175 211 L174 208 Z M168 202 L170 203 L169 207 L167 206 Z M343 201 L347 203 L346 207 L341 205 Z M367 155 L354 170 L338 198 L325 204 L324 201 L334 179 L317 204 L307 205 L313 189 L310 188 L299 207 L288 213 L275 212 L280 193 L278 188 L268 214 L247 213 L238 190 L236 195 L241 213 L220 212 L200 188 L210 208 L209 211 L195 204 L180 181 L189 202 L184 204 L177 199 L165 176 L151 159 L153 155 L159 156 L175 168 L197 177 L220 177 L239 169 L260 166 L310 178 L326 175 L358 155 Z M275 151 L277 150 L278 152 L276 153 Z M237 151 L241 150 L242 152 L238 153 Z M244 150 L247 149 L248 151 L245 152 Z M298 146 L304 145 L305 147 L299 148 Z M211 146 L216 145 L217 147 L212 148 Z M322 142 L320 145 L311 147 L306 146 L307 144 L318 141 Z M264 143 L268 140 L276 140 L277 145 L282 145 L283 147 L277 148 L267 146 Z M191 141 L194 140 L198 142 L206 143 L208 146 L205 147 L196 145 L192 143 Z M322 142 L325 139 L327 140 L324 143 Z M231 147 L232 145 L240 144 L237 141 L238 139 L247 140 L252 143 L249 146 L239 148 Z M169 138 L171 137 L186 145 L196 148 L214 150 L216 152 L234 152 L235 154 L222 161 L215 163 L200 162 L192 159 L191 157 L183 153 L170 142 Z M347 137 L346 142 L343 145 L338 147 L334 152 L319 161 L311 163 L302 163 L289 159 L288 157 L281 154 L282 152 L298 152 L300 150 L309 150 L324 147 L342 139 L345 136 Z M177 135 L180 134 L184 136 L186 139 L184 140 L182 138 L179 138 Z M175 133 L177 132 L178 134 L176 135 Z M126 140 L132 134 L140 132 L159 135 L162 137 L161 139 L149 138 L141 141 L157 142 L172 150 L181 159 L195 167 L204 169 L220 168 L229 163 L252 156 L271 157 L292 167 L311 169 L331 161 L348 147 L355 145 L356 143 L373 141 L373 139 L357 138 L357 135 L377 132 L387 137 L390 143 L384 148 L358 149 L333 166 L319 172 L313 172 L312 174 L299 174 L266 162 L250 162 L217 174 L203 174 L182 166 L167 154 L157 149 L128 147 L126 145 Z M343 132 L336 138 L333 137 L334 135 L336 135 L341 131 Z M288 141 L291 133 L297 127 L305 124 L318 125 L326 131 L326 134 L320 138 L296 142 Z M190 132 L194 127 L199 125 L211 124 L219 127 L226 134 L228 140 L226 142 L200 139 L193 137 L190 134 Z M328 126 L331 124 L337 123 L339 121 L346 121 L350 124 L350 127 L345 132 L343 131 L344 129 L343 127 L336 131 L332 131 Z M166 124 L169 123 L170 121 L176 121 L178 123 L186 124 L187 128 L184 131 L181 131 L173 127 L174 132 L172 133 L166 127 Z M200 101 L202 98 L221 108 L234 111 L274 112 L296 108 L315 98 L317 99 L308 118 L297 121 L284 135 L270 134 L258 140 L251 135 L231 134 L226 126 L217 120 L209 118 Z M196 84 L200 82 L213 84 L221 88 L222 91 L219 94 L217 92 L209 90 L209 92 L212 95 L218 98 L224 99 L225 101 L246 105 L271 105 L285 103 L292 101 L296 98 L299 98 L307 93 L306 91 L297 94 L295 92 L295 89 L297 87 L302 86 L304 84 L319 82 L322 86 L316 93 L298 103 L284 106 L283 108 L267 110 L250 110 L235 108 L233 106 L214 101 L213 99 L203 94 L197 88 Z M226 94 L230 85 L238 76 L250 70 L257 69 L268 70 L269 72 L277 75 L287 85 L289 91 L291 92 L289 97 L265 102 L242 101 L240 99 L228 97 Z M260 17 L257 19 L255 29 L248 35 L241 37 L241 39 L246 39 L255 46 L258 57 L261 56 L262 48 L267 41 L277 39 L277 37 L270 35 L264 30 Z M258 32 L260 32 L264 37 L260 43 L258 43 L254 39 L254 36 Z"/></svg>
