<svg xmlns="http://www.w3.org/2000/svg" width="512" height="512" viewBox="0 0 512 512" aria-hidden="true" focusable="false"><path fill="currentColor" fill-rule="evenodd" clip-rule="evenodd" d="M320 342 L315 343 L315 348 L318 349 L321 346 Z M242 348 L241 351 L242 359 L244 360 L244 362 L248 364 L254 364 L258 360 L262 364 L265 364 L270 360 L271 345 L269 343 L261 342 L258 344 L255 344 L253 342 L248 342 Z M262 346 L267 348 L267 356 L265 359 L260 358 L258 353 L256 352 Z M252 346 L256 351 L249 354 L249 357 L247 358 L245 355 L245 352 L248 347 Z M193 342 L192 346 L195 349 L198 348 L198 343 Z M248 251 L238 257 L235 263 L236 276 L243 284 L255 285 L261 279 L262 275 L260 272 L253 270 L249 272 L247 275 L247 278 L249 281 L248 282 L245 281 L240 275 L239 271 L240 262 L244 257 L251 255 L256 259 L258 259 L260 256 L267 255 L274 261 L276 266 L273 276 L257 291 L256 300 L258 300 L260 293 L272 283 L277 277 L279 273 L280 265 L277 257 L270 252 L262 251 L259 253 L255 253 L252 251 Z M255 274 L257 278 L252 282 L251 281 L252 275 Z M161 240 L158 241 L154 245 L154 248 L160 251 L161 253 L155 255 L152 258 L151 261 L152 271 L157 276 L166 277 L172 273 L174 266 L172 261 L167 258 L168 255 L167 250 L163 248 L161 245 L165 244 L170 249 L173 249 L173 245 L169 241 Z M167 263 L169 265 L169 271 L165 273 L160 273 L159 271 L162 270 L164 268 L164 264 Z M158 259 L164 258 L165 262 L163 263 L162 261 L159 261 Z M360 237 L358 237 L355 242 L349 240 L343 241 L338 251 L339 254 L349 252 L356 255 L358 264 L354 270 L348 269 L349 267 L352 267 L354 264 L352 259 L347 258 L342 262 L342 269 L347 274 L355 274 L361 268 L362 259 L360 254 L354 249 L345 247 L346 245 L357 246 L360 243 Z M316 164 L315 170 L318 171 L321 169 L321 167 L318 164 Z M197 164 L195 164 L192 167 L192 169 L195 171 L198 170 Z M249 155 L241 163 L241 166 L245 168 L241 176 L241 181 L247 188 L252 189 L258 185 L260 188 L263 189 L269 183 L269 173 L263 166 L252 164 L249 161 L253 159 L260 162 L268 162 L271 157 L267 155 L266 158 L261 158 L254 155 Z M245 176 L252 169 L260 169 L265 174 L265 182 L263 184 L259 184 L258 178 L256 176 L251 176 L249 178 L250 183 L248 184 L245 180 Z M256 17 L255 51 L243 85 L249 91 L240 97 L237 112 L248 125 L263 122 L268 114 L263 103 L254 102 L249 107 L254 116 L259 113 L257 105 L263 109 L258 121 L247 120 L241 111 L243 100 L259 93 L272 102 L273 113 L256 137 L246 131 L232 131 L213 146 L210 172 L226 197 L209 203 L186 177 L182 150 L146 128 L154 142 L156 166 L163 172 L179 172 L186 184 L169 180 L145 184 L166 187 L180 205 L187 204 L189 196 L184 193 L185 200 L181 201 L172 185 L199 198 L205 205 L186 227 L171 214 L150 212 L131 226 L128 250 L113 238 L103 238 L93 247 L30 258 L70 262 L110 274 L118 267 L117 253 L112 249 L103 251 L104 263 L111 262 L110 253 L115 258 L113 267 L106 271 L97 267 L94 255 L101 243 L112 242 L132 259 L127 269 L129 283 L146 300 L168 301 L196 279 L202 282 L216 300 L197 318 L171 330 L184 308 L189 309 L187 316 L193 313 L191 305 L183 304 L165 328 L145 330 L154 335 L187 330 L179 344 L157 349 L154 373 L146 386 L181 366 L186 338 L221 304 L229 314 L212 336 L209 355 L222 377 L249 382 L238 397 L237 408 L247 420 L243 427 L253 453 L257 496 L259 459 L270 427 L265 421 L273 415 L276 402 L262 388 L252 391 L246 399 L250 409 L258 411 L264 405 L260 398 L254 406 L250 403 L255 393 L265 393 L272 403 L266 416 L254 419 L243 412 L241 400 L257 378 L281 382 L301 365 L303 341 L284 312 L295 303 L328 340 L332 366 L367 386 L359 373 L355 348 L334 344 L326 330 L348 335 L368 330 L348 328 L330 304 L322 305 L320 313 L326 316 L324 309 L329 308 L342 329 L316 318 L298 301 L316 279 L336 297 L359 302 L380 289 L386 269 L407 277 L420 268 L427 269 L429 264 L434 267 L483 256 L450 254 L399 238 L388 250 L394 266 L405 267 L411 260 L405 249 L397 253 L403 263 L393 259 L397 243 L413 244 L419 255 L412 271 L400 273 L379 257 L385 247 L385 233 L372 216 L349 212 L324 225 L308 205 L314 198 L341 185 L332 201 L328 200 L331 194 L324 196 L325 203 L333 205 L347 187 L368 184 L362 180 L327 184 L334 172 L350 172 L356 167 L359 142 L367 128 L331 150 L330 171 L305 202 L287 197 L300 180 L304 158 L292 136 L265 131 L276 116 L277 104 L267 92 L270 85 L264 75 Z M255 425 L257 424 L258 426 L256 427 Z M336 349 L349 348 L353 352 L355 366 L354 372 L343 369 L335 363 L334 356 Z M177 349 L179 356 L178 363 L170 369 L159 372 L158 371 L158 358 L160 351 L164 348 Z M214 341 L232 317 L250 331 L255 339 L258 339 L281 317 L295 333 L299 341 L300 354 L294 369 L280 378 L264 377 L256 368 L249 377 L238 379 L228 376 L217 366 L213 354 Z M79 257 L81 256 L82 258 L80 259 Z M256 226 L260 229 L257 236 L255 235 L253 229 Z M222 226 L236 224 L245 228 L253 237 L256 250 L263 233 L278 224 L293 227 L304 240 L306 257 L301 271 L258 316 L220 282 L209 265 L208 243 Z M357 215 L370 219 L380 231 L381 247 L371 256 L371 259 L379 264 L381 277 L371 293 L363 297 L350 298 L335 291 L318 274 L326 258 L327 232 L340 220 Z M157 215 L173 220 L186 232 L185 249 L195 274 L178 291 L163 298 L143 294 L135 286 L131 277 L133 264 L142 259 L142 256 L133 250 L132 233 L143 219 Z M215 204 L232 202 L253 222 L250 227 L236 220 L217 224 L206 237 L203 258 L215 282 L256 322 L298 282 L310 258 L307 237 L296 224 L276 220 L263 227 L260 222 L281 202 L290 202 L307 209 L321 226 L324 248 L317 268 L304 286 L258 332 L209 286 L192 260 L189 249 L192 226 L206 209 Z M354 143 L355 144 L355 160 L353 165 L347 169 L336 167 L334 161 L335 152 L340 147 Z M159 143 L173 147 L179 153 L179 161 L177 167 L166 169 L160 165 L158 160 L158 144 Z M233 135 L250 137 L256 148 L264 137 L281 135 L293 142 L299 154 L300 168 L295 181 L257 219 L222 186 L214 171 L213 160 L218 145 Z"/></svg>
