<svg xmlns="http://www.w3.org/2000/svg" width="512" height="512" viewBox="0 0 512 512" aria-hidden="true" focusable="false"><path fill="currentColor" fill-rule="evenodd" clip-rule="evenodd" d="M326 333 L324 333 L323 337 L323 346 L325 346 Z M328 296 L330 298 L335 297 L335 295 Z M174 281 L174 284 L181 285 L181 282 Z M300 280 L298 280 L294 284 L294 286 L296 286 L300 282 Z M174 275 L174 277 L184 278 L184 275 L181 274 Z M255 272 L255 274 L258 277 L263 273 L263 272 L260 273 Z M238 272 L240 275 L240 278 L243 278 L243 276 L246 272 L242 273 Z M210 217 L213 222 L223 223 L223 221 L219 221 Z M298 210 L297 209 L288 214 L295 214 L297 213 Z M208 197 L209 201 L213 203 L219 202 L219 200 L214 200 Z M209 189 L209 191 L215 191 L222 194 L222 192 L219 189 L216 188 Z M219 137 L219 139 L222 139 L229 136 L239 136 L249 139 L256 146 L263 140 L275 136 L284 136 L296 140 L296 138 L292 135 L283 132 L270 132 L275 126 L277 118 L275 118 L273 122 L267 124 L261 130 L259 129 L260 125 L268 117 L268 109 L257 90 L245 111 L246 118 L251 124 L246 125 L242 123 L238 117 L236 117 L236 121 L239 127 L244 132 L231 132 Z M255 116 L258 115 L259 117 L256 118 Z M257 98 L264 111 L260 113 L256 109 L253 115 L250 117 L249 111 L252 108 L252 105 L256 104 L255 99 Z M258 17 L225 81 L162 143 L158 143 L157 133 L142 112 L138 152 L146 164 L105 199 L99 187 L101 176 L90 185 L85 206 L112 231 L113 326 L116 227 L105 217 L123 209 L127 343 L105 334 L91 334 L102 349 L102 368 L69 339 L66 320 L75 304 L87 300 L97 306 L94 319 L87 318 L89 311 L84 313 L87 323 L96 323 L102 316 L99 302 L86 295 L90 288 L86 270 L70 257 L69 287 L77 297 L64 311 L62 331 L78 357 L54 363 L70 371 L89 403 L112 419 L95 439 L111 438 L145 452 L164 453 L167 458 L163 475 L173 470 L211 474 L233 466 L237 479 L254 496 L275 478 L279 466 L300 474 L339 470 L349 475 L344 453 L367 452 L401 438 L417 439 L403 418 L423 403 L442 371 L458 365 L450 359 L432 358 L442 349 L450 331 L448 311 L435 297 L443 287 L442 256 L423 275 L426 295 L410 308 L416 323 L428 320 L425 311 L422 320 L414 315 L419 302 L431 300 L441 308 L446 320 L441 342 L409 368 L410 349 L420 334 L386 340 L389 209 L404 215 L396 227 L394 327 L400 333 L400 231 L426 209 L426 191 L412 177 L408 199 L367 164 L376 143 L376 122 L371 112 L356 133 L354 145 L304 99 L278 66 Z M237 467 L238 462 L241 458 L255 463 L270 458 L274 464 L274 471 L272 475 L265 482 L255 489 L239 474 Z M344 466 L300 469 L284 464 L274 455 L279 450 L308 446 L313 443 L318 443 L332 449 L343 461 Z M167 466 L176 452 L194 443 L199 443 L201 445 L214 448 L233 450 L237 455 L229 463 L211 469 Z M408 431 L407 433 L393 436 L375 445 L360 449 L338 448 L325 441 L326 439 L331 440 L332 436 L352 425 L369 420 L390 421 L400 425 Z M104 431 L112 425 L122 421 L143 420 L166 428 L185 439 L186 442 L177 447 L169 449 L153 449 L137 445 L129 440 L113 434 L105 433 Z M153 417 L155 416 L156 418 L154 419 Z M378 414 L380 413 L381 415 L379 416 Z M255 403 L271 419 L277 432 L277 442 L274 449 L268 454 L258 458 L247 456 L237 448 L234 441 L234 434 L239 421 Z M273 391 L275 390 L276 392 L274 393 Z M181 381 L187 379 L210 381 L222 387 L238 402 L242 411 L231 428 L230 444 L226 444 L217 439 L203 426 L197 416 L191 397 L185 387 L180 383 Z M363 378 L364 383 L361 396 L355 411 L350 418 L339 428 L328 434 L299 443 L298 441 L311 429 L318 418 L328 392 L338 384 Z M147 378 L149 377 L153 380 L168 382 L179 387 L185 394 L193 417 L203 432 L210 439 L208 441 L197 439 L170 426 L160 416 L154 405 Z M331 376 L332 383 L323 392 L315 415 L309 425 L293 440 L282 444 L279 424 L269 411 L272 404 L286 389 L295 383 L307 379 L321 379 Z M260 377 L262 376 L263 378 L261 379 Z M263 376 L265 375 L266 377 L264 378 Z M241 375 L243 374 L245 377 L242 378 Z M288 380 L292 376 L293 373 L300 374 L299 377 L290 381 Z M301 366 L302 369 L299 371 L298 368 Z M263 367 L264 364 L269 365 L267 368 Z M443 364 L433 376 L423 395 L412 407 L403 413 L395 416 L388 417 L383 415 L382 411 L395 399 L401 389 L405 378 L412 371 L430 363 L441 362 Z M174 368 L177 363 L181 362 L191 363 L192 365 L190 367 L193 370 L198 372 L199 374 L197 375 L193 373 L191 375 L182 376 L177 374 L174 371 Z M69 364 L72 362 L82 363 L100 371 L107 378 L114 395 L126 408 L125 411 L130 411 L134 415 L124 417 L117 416 L109 413 L100 407 L91 398 L77 373 Z M316 371 L322 364 L323 360 L333 360 L335 363 L335 368 L328 373 L321 375 L319 372 Z M203 360 L205 361 L209 369 L216 376 L215 378 L210 377 L209 374 L203 370 L203 366 L201 365 L201 362 Z M305 358 L308 359 L306 362 L303 361 Z M253 356 L256 358 L259 364 L258 368 L255 365 L253 366 L255 370 L254 374 L252 373 L252 371 L249 370 L249 364 Z M138 358 L142 356 L151 367 L158 372 L166 375 L167 377 L164 378 L151 374 L147 370 L144 369 L141 361 Z M279 354 L280 355 L279 365 L277 369 L273 370 L272 374 L269 376 L268 372 L271 368 L270 359 L272 356 Z M228 354 L236 356 L240 362 L240 364 L237 365 L237 368 L239 370 L238 375 L234 374 L233 371 L231 370 L229 362 L227 360 Z M135 351 L138 350 L139 353 L136 354 Z M312 346 L313 347 L312 351 L310 354 L307 353 L308 348 Z M349 348 L350 345 L354 346 L351 349 Z M408 339 L409 341 L405 351 L403 372 L393 394 L383 405 L372 413 L357 419 L356 416 L363 404 L370 374 L375 363 L388 348 L402 340 Z M104 339 L121 346 L137 363 L144 381 L147 399 L153 412 L151 417 L134 409 L117 391 L109 373 L107 352 L103 341 Z M253 332 L256 333 L267 348 L268 357 L264 364 L262 363 L262 360 L257 354 L255 349 L252 350 L245 364 L243 363 L240 357 L240 353 L243 352 L242 346 Z M366 319 L368 318 L369 320 L367 321 Z M364 323 L367 329 L367 338 L362 343 L359 344 L351 341 L353 331 L350 330 L350 335 L344 352 L336 354 L334 356 L323 355 L321 357 L316 358 L314 357 L319 344 L320 331 L322 328 L326 327 L325 325 L326 323 L328 322 L331 323 L331 329 L333 333 L332 335 L330 335 L331 339 L333 339 L339 334 L354 318 L359 319 Z M315 314 L317 313 L324 320 L322 322 L318 321 Z M345 312 L348 315 L348 320 L339 328 L334 326 L335 319 Z M345 310 L347 309 L348 311 L346 312 Z M214 311 L232 307 L241 310 L255 321 L240 341 L235 353 L227 349 L221 350 L229 374 L253 388 L279 374 L286 351 L280 349 L274 352 L256 327 L255 319 L265 310 L283 307 L292 310 L302 320 L306 333 L302 354 L292 369 L267 393 L271 398 L266 407 L256 395 L245 406 L243 397 L239 396 L240 392 L209 361 L202 344 L202 328 Z M321 306 L322 308 L319 310 L318 308 Z M151 303 L156 310 L166 317 L176 317 L180 310 L191 315 L187 317 L188 323 L184 325 L183 343 L188 344 L192 355 L188 359 L179 358 L162 344 L154 322 L151 320 L157 343 L152 345 L152 347 L159 347 L174 360 L169 372 L157 366 L146 356 L135 334 L134 321 L136 315 L142 308 Z M315 299 L320 298 L321 301 L319 303 L316 303 Z M247 300 L248 302 L244 306 L235 303 L218 304 L210 308 L203 315 L199 323 L197 333 L197 341 L201 354 L197 355 L192 343 L191 330 L194 318 L198 311 L207 302 L218 297 L224 296 L234 297 L244 302 Z M159 296 L161 296 L162 299 L174 309 L173 314 L168 314 L164 312 L158 306 L156 301 Z M247 296 L252 295 L253 297 L250 299 Z M247 307 L250 306 L252 300 L261 294 L262 290 L266 291 L267 297 L263 299 L261 303 L267 299 L278 296 L280 297 L280 299 L282 299 L283 297 L289 297 L298 301 L308 310 L315 324 L316 332 L315 342 L313 344 L310 343 L310 331 L308 322 L305 316 L296 307 L285 303 L272 303 L264 306 L254 314 Z M231 291 L236 290 L238 294 L237 295 L233 294 Z M191 286 L195 288 L195 292 L192 298 L188 300 L187 295 L189 293 L189 287 Z M195 281 L197 280 L198 282 L196 283 Z M320 279 L322 280 L325 279 L329 284 L328 290 L334 290 L338 292 L338 290 L341 289 L349 298 L352 299 L352 301 L347 303 L346 306 L336 315 L327 316 L322 313 L323 310 L328 311 L332 309 L332 307 L329 308 L326 307 L326 304 L323 303 L324 297 L319 294 L321 290 L314 287 L316 282 Z M154 280 L156 279 L157 281 L155 282 Z M312 278 L314 277 L315 279 L313 280 Z M80 269 L84 274 L87 285 L83 292 L78 293 L73 287 L73 279 L75 271 Z M196 268 L198 270 L199 277 L198 278 L193 277 L191 278 L190 284 L185 284 L187 290 L182 291 L182 293 L184 294 L183 296 L176 294 L177 297 L184 299 L186 303 L184 305 L182 305 L181 303 L179 303 L178 305 L175 305 L169 302 L164 297 L161 288 L158 287 L160 285 L160 281 L164 280 L167 274 L171 271 L180 270 L188 271 L193 268 Z M435 266 L439 279 L439 287 L433 293 L432 291 L429 292 L427 290 L425 282 L429 272 Z M236 263 L238 262 L239 264 L237 265 Z M321 266 L329 262 L340 261 L349 264 L356 270 L360 280 L361 303 L364 311 L366 312 L366 315 L364 317 L353 313 L351 309 L351 306 L357 298 L355 289 L352 288 L346 289 L341 285 L335 283 L328 277 L325 271 L323 271 L320 275 L318 275 L316 271 Z M258 255 L266 264 L266 266 L264 267 L261 264 L257 264 L254 266 L263 267 L264 269 L267 270 L266 278 L263 284 L258 289 L249 292 L246 290 L246 288 L252 287 L255 285 L255 283 L253 284 L251 283 L253 279 L251 280 L247 279 L249 283 L248 284 L244 283 L244 286 L241 289 L236 284 L237 280 L235 280 L233 277 L232 269 L239 267 L246 267 L246 265 L240 264 L239 262 L250 260 Z M296 247 L302 260 L294 266 L291 270 L288 270 L284 266 L282 267 L281 276 L279 281 L279 287 L282 292 L276 293 L274 290 L267 286 L269 280 L273 281 L276 264 L274 260 L278 259 L282 254 L288 250 Z M198 258 L191 266 L189 265 L189 261 L184 265 L181 265 L180 262 L178 262 L174 266 L168 268 L163 273 L156 272 L155 269 L152 267 L154 257 L160 251 L169 247 L172 248 L175 246 L184 247 L192 251 Z M349 240 L362 251 L374 277 L383 311 L384 330 L379 347 L368 369 L353 377 L336 379 L334 374 L339 370 L339 363 L336 357 L355 352 L364 347 L374 333 L374 320 L365 303 L364 279 L360 269 L348 259 L332 256 L332 253 L341 242 Z M229 251 L232 247 L236 246 L235 243 L237 241 L244 238 L254 238 L260 240 L267 246 L270 254 L270 259 L268 260 L267 258 L265 258 L261 254 L260 249 L258 249 L255 253 L250 256 L241 257 L230 261 Z M228 242 L229 245 L224 253 L223 273 L226 278 L231 281 L232 286 L223 293 L208 296 L194 310 L188 310 L187 308 L191 305 L199 294 L202 279 L206 271 L208 270 L208 249 L211 242 L217 238 Z M339 237 L340 239 L325 256 L325 259 L312 269 L308 277 L305 277 L308 280 L308 286 L311 292 L312 306 L310 307 L305 301 L292 293 L291 287 L288 290 L283 288 L283 279 L308 261 L325 244 L331 235 Z M240 232 L242 229 L247 230 L248 227 L252 227 L258 231 L258 234 L257 235 L255 234 L241 235 Z M181 226 L187 234 L202 242 L204 252 L200 254 L193 247 L181 242 L164 244 L154 250 L149 258 L148 270 L151 285 L156 291 L155 297 L141 304 L134 310 L131 319 L129 320 L129 298 L133 274 L140 252 L154 237 Z M317 225 L326 236 L321 244 L309 256 L307 256 L306 254 L303 254 L301 251 L303 249 L301 242 L309 234 L312 226 Z M189 215 L191 216 L196 225 L202 231 L210 236 L207 242 L202 237 L193 233 L186 226 L185 222 Z M316 207 L319 208 L319 211 L317 213 L315 212 Z M316 201 L318 200 L319 202 L317 203 Z M185 197 L187 196 L189 200 L187 201 Z M275 190 L281 194 L295 198 L294 201 L288 201 L285 206 L292 203 L297 203 L298 200 L301 199 L308 205 L311 205 L314 210 L312 216 L315 221 L311 223 L307 232 L299 239 L290 240 L287 238 L290 235 L294 235 L297 227 L286 231 L286 235 L283 236 L275 229 L271 222 L272 220 L276 220 L279 217 L280 225 L283 228 L289 226 L283 224 L282 215 L272 217 L268 214 L270 210 L275 209 L275 207 L266 207 L268 198 Z M185 190 L186 187 L191 188 L190 190 L187 191 Z M243 180 L244 183 L240 186 L241 193 L232 194 L232 196 L239 198 L238 203 L230 203 L228 206 L226 201 L224 213 L218 214 L220 217 L226 217 L227 209 L236 207 L237 210 L233 219 L220 231 L214 232 L203 227 L194 216 L192 204 L190 202 L191 193 L196 193 L210 174 L230 181 Z M262 191 L265 183 L274 173 L284 168 L294 167 L310 172 L318 180 L322 189 L322 196 L320 197 L314 195 L310 198 L307 198 L304 195 L282 190 L274 182 L264 197 L262 196 Z M359 165 L362 164 L363 167 L384 188 L386 188 L389 192 L391 192 L399 199 L406 203 L414 203 L417 200 L417 198 L414 196 L414 193 L417 190 L419 190 L420 194 L423 195 L422 207 L418 211 L407 211 L398 207 L380 193 L368 181 L359 170 Z M154 165 L153 172 L132 194 L116 206 L105 211 L94 211 L91 208 L89 203 L89 197 L90 194 L93 193 L94 188 L96 189 L98 193 L98 197 L96 198 L96 201 L100 204 L106 203 L118 195 L120 195 L122 192 L124 192 L152 164 Z M291 161 L297 155 L307 154 L313 157 L317 161 L316 164 L311 163 L311 166 L309 167 L298 163 L292 163 Z M185 181 L185 174 L188 165 L197 157 L200 157 L206 153 L215 152 L227 155 L233 160 L235 160 L241 166 L247 168 L246 171 L238 177 L226 176 L215 172 L209 168 L206 168 L203 178 L195 185 Z M128 203 L167 160 L231 103 L258 69 L281 101 L345 159 L385 203 L385 290 L365 248 L352 237 L321 225 L319 217 L326 205 L324 182 L331 181 L332 168 L326 159 L309 150 L293 152 L286 164 L265 175 L259 187 L258 201 L267 223 L286 242 L276 255 L255 224 L242 224 L231 242 L223 236 L237 220 L245 190 L252 186 L251 163 L226 150 L208 148 L186 160 L180 190 L186 207 L184 216 L146 237 L134 254 L129 272 Z M371 127 L368 136 L371 144 L369 155 L362 160 L350 157 L315 129 L288 102 L256 59 L232 95 L178 146 L156 160 L146 157 L142 149 L146 139 L143 133 L145 130 L149 130 L154 137 L150 148 L159 150 L192 123 L233 78 L253 41 L258 38 L275 70 L290 90 L348 146 L355 150 L361 150 L363 148 L363 144 L359 140 L361 133 L369 126 Z M255 35 L257 34 L258 36 L256 37 Z"/></svg>
