<svg xmlns="http://www.w3.org/2000/svg" width="512" height="512" viewBox="0 0 512 512" aria-hidden="true" focusable="false"><path fill="currentColor" fill-rule="evenodd" clip-rule="evenodd" d="M378 404 L374 407 L377 406 Z M255 328 L250 332 L250 338 L253 342 L250 356 L263 356 L260 342 L263 339 L264 334 L259 328 Z M256 275 L247 294 L243 294 L242 299 L228 316 L227 324 L224 325 L223 342 L227 352 L238 360 L246 370 L249 370 L241 358 L241 349 L245 341 L240 325 L244 316 L257 305 L269 316 L273 325 L269 338 L272 358 L265 371 L286 352 L290 342 L289 325 L286 324 L283 312 L271 299 L270 294 L266 293 Z M256 283 L264 294 L265 304 L267 301 L269 301 L282 316 L283 326 L278 335 L284 331 L287 332 L286 346 L284 350 L276 357 L274 356 L274 350 L277 345 L273 346 L271 343 L275 332 L275 321 L271 314 L259 303 L257 298 L254 303 L242 314 L238 321 L238 332 L242 340 L241 345 L237 346 L239 350 L238 357 L230 351 L226 343 L227 331 L235 335 L230 325 L231 316 L244 300 L248 304 L249 294 Z M279 159 L270 169 L280 178 L289 168 Z M279 163 L285 168 L280 174 L274 169 Z M231 159 L222 169 L231 178 L233 178 L242 168 L233 159 Z M231 163 L237 168 L237 170 L233 174 L231 174 L226 169 Z M346 154 L345 167 L341 176 L341 184 L345 191 L334 207 L332 224 L338 236 L347 246 L351 261 L354 262 L355 270 L365 290 L367 308 L362 329 L368 316 L369 297 L364 280 L358 270 L358 254 L366 243 L370 241 L372 245 L378 239 L378 235 L385 227 L389 227 L389 233 L386 239 L389 240 L389 243 L382 248 L382 250 L387 251 L386 255 L378 260 L375 258 L377 252 L373 251 L368 254 L364 262 L365 273 L373 292 L373 309 L368 325 L374 314 L376 294 L368 274 L367 262 L371 255 L376 262 L382 262 L387 258 L392 245 L392 228 L386 213 L385 223 L377 232 L376 238 L374 239 L370 234 L359 247 L357 246 L353 234 L354 228 L356 226 L361 228 L367 227 L372 223 L376 215 L376 203 L367 182 L365 191 L361 191 L359 200 L367 193 L369 194 L374 207 L371 220 L364 225 L358 224 L356 220 L358 217 L362 217 L362 212 L360 209 L354 208 L349 210 L343 218 L343 234 L341 235 L337 230 L334 219 L335 212 L345 197 L348 201 L350 198 L349 191 L343 181 L348 168 L357 179 L356 186 L360 184 L360 178 L355 174 Z M357 211 L358 214 L355 216 L354 223 L351 228 L351 238 L357 249 L355 259 L353 260 L351 248 L346 238 L344 226 L347 216 L351 212 Z M167 154 L161 168 L153 178 L153 184 L157 187 L156 179 L165 168 L170 181 L164 191 L163 198 L165 201 L168 197 L177 209 L179 220 L176 230 L172 235 L170 234 L170 218 L164 210 L156 208 L151 212 L151 217 L155 217 L157 220 L155 224 L149 225 L142 220 L139 207 L144 194 L146 193 L154 200 L153 190 L148 190 L146 182 L137 203 L137 215 L141 223 L146 227 L153 228 L157 226 L159 228 L159 239 L156 246 L154 247 L143 234 L139 239 L137 238 L136 232 L128 223 L127 213 L121 229 L121 242 L126 258 L131 262 L137 262 L142 256 L146 263 L145 274 L137 294 L138 310 L145 325 L140 309 L140 292 L148 273 L149 262 L145 254 L140 251 L136 252 L138 255 L136 260 L131 259 L127 255 L126 251 L131 250 L131 248 L124 243 L124 240 L127 239 L124 228 L127 227 L134 234 L135 239 L141 246 L144 241 L152 249 L156 258 L156 267 L147 285 L144 297 L145 315 L150 327 L146 307 L148 291 L158 270 L159 262 L162 261 L164 250 L179 230 L181 224 L180 209 L170 193 L167 192 L172 184 L172 176 L168 167 Z M156 211 L160 211 L166 216 L169 225 L167 238 L162 249 L160 260 L158 259 L156 250 L162 238 L162 228 L159 223 L159 218 L155 214 Z M227 150 L216 158 L212 173 L201 176 L186 189 L187 197 L206 221 L201 239 L183 255 L166 282 L160 305 L164 338 L148 336 L154 347 L158 384 L174 405 L165 406 L150 397 L145 386 L151 384 L151 378 L146 373 L130 377 L141 360 L143 343 L121 301 L114 311 L110 309 L114 286 L105 271 L101 249 L92 312 L106 326 L94 309 L95 296 L101 297 L101 264 L111 285 L107 309 L116 320 L119 308 L140 342 L140 355 L134 364 L126 365 L124 356 L116 360 L115 379 L133 404 L156 411 L156 416 L125 405 L105 377 L100 358 L108 357 L99 348 L96 335 L110 341 L112 330 L122 335 L130 345 L131 357 L133 347 L128 337 L110 323 L107 335 L93 325 L99 368 L111 394 L132 413 L151 419 L145 423 L130 421 L136 430 L160 437 L171 447 L190 446 L188 451 L207 450 L229 471 L242 475 L257 496 L271 475 L284 471 L306 450 L322 452 L323 446 L341 447 L353 437 L367 436 L380 427 L383 421 L369 423 L363 419 L387 409 L406 388 L418 353 L420 325 L406 335 L402 323 L380 347 L383 357 L384 343 L401 330 L403 341 L418 334 L414 348 L405 357 L412 357 L413 362 L398 395 L372 414 L355 413 L378 398 L385 383 L384 369 L393 361 L397 367 L395 381 L380 403 L397 382 L398 361 L389 356 L387 365 L379 364 L373 342 L394 308 L397 320 L405 311 L402 285 L412 265 L412 297 L418 295 L419 310 L407 326 L420 315 L422 299 L419 287 L414 285 L417 266 L412 249 L408 271 L399 285 L403 309 L400 312 L392 301 L370 343 L372 360 L383 377 L376 373 L364 375 L366 393 L355 403 L341 407 L339 404 L356 382 L358 352 L365 336 L349 338 L353 322 L350 290 L337 264 L312 239 L307 221 L327 196 L327 189 L312 176 L299 173 L295 157 L285 150 L267 154 L260 168 L252 168 L240 151 Z M249 465 L255 470 L256 474 L263 465 L269 470 L269 472 L267 473 L266 479 L257 489 L247 479 L246 473 L242 472 Z M266 463 L269 461 L270 457 L275 454 L282 462 L286 463 L287 465 L279 470 L275 470 L270 468 Z M276 451 L278 450 L279 452 L277 453 Z M235 450 L243 457 L244 461 L247 463 L243 468 L237 470 L232 469 L226 465 L227 463 L232 461 L232 460 L228 461 L227 459 L232 456 Z M256 449 L263 456 L267 458 L257 467 L246 459 Z M274 437 L276 442 L274 450 L269 454 L264 454 L262 451 L262 447 L264 443 L271 437 Z M239 437 L242 437 L250 445 L251 451 L248 454 L243 454 L239 450 L237 446 Z M265 426 L267 424 L272 424 L273 426 L281 427 L290 432 L296 439 L292 431 L286 427 L277 425 L276 423 L283 421 L297 423 L303 426 L310 433 L318 449 L317 450 L310 449 L303 442 L303 450 L301 453 L295 457 L288 457 L284 455 L281 451 L281 447 L284 442 L280 445 L278 444 L279 433 L270 435 Z M256 421 L259 423 L266 433 L266 438 L260 447 L258 446 L257 442 L255 446 L253 447 L251 442 L247 438 L248 430 Z M247 425 L247 428 L243 435 L234 433 L235 444 L233 445 L230 443 L232 447 L232 451 L229 455 L225 457 L219 457 L213 454 L210 450 L210 442 L203 449 L199 450 L194 449 L203 433 L210 426 L216 423 L224 421 L237 423 L236 425 L229 426 L224 429 L219 434 L217 441 L219 437 L226 430 L235 426 L241 426 L242 424 Z M299 420 L305 417 L322 418 L332 423 L343 436 L348 438 L349 440 L339 445 L329 445 L323 443 L318 440 L312 431 Z M214 420 L202 430 L195 440 L190 443 L184 445 L174 445 L164 440 L165 438 L170 436 L181 423 L186 420 L197 417 L208 417 Z M311 413 L313 411 L323 408 L337 408 L349 413 L360 422 L369 426 L374 426 L375 428 L364 434 L347 435 L340 429 L335 422 L329 418 L318 415 L312 415 Z M202 413 L201 415 L190 416 L181 420 L166 435 L149 434 L138 428 L139 426 L144 426 L153 422 L164 413 L176 408 L190 408 L200 411 Z M377 377 L380 381 L381 387 L375 398 L364 407 L354 411 L350 411 L348 408 L362 401 L369 392 L370 385 L365 380 L365 378 L370 375 Z M136 377 L143 375 L148 378 L148 380 L144 383 L143 386 L145 394 L151 401 L157 405 L166 408 L165 410 L163 411 L156 410 L146 405 L139 399 L135 394 L132 387 L133 381 Z M256 370 L274 389 L279 398 L279 408 L277 413 L266 422 L261 422 L257 414 L251 422 L247 422 L236 413 L234 408 L234 399 L237 392 Z M119 360 L121 361 L124 367 L129 369 L128 373 L129 386 L133 395 L144 406 L143 408 L134 403 L122 389 L117 377 L117 364 Z M320 351 L324 372 L324 389 L321 397 L309 411 L297 417 L295 416 L309 398 L311 392 L310 372 L309 391 L303 404 L292 415 L286 418 L284 417 L294 403 L295 381 L291 404 L287 411 L279 417 L278 415 L282 408 L280 388 L285 377 L302 359 Z M193 351 L200 353 L215 362 L230 380 L233 388 L231 407 L235 415 L234 417 L227 412 L222 404 L218 381 L218 399 L227 416 L225 417 L221 415 L210 404 L204 391 L203 372 L203 395 L208 405 L218 416 L216 417 L204 411 L193 399 L189 388 L189 372 Z M357 340 L358 343 L356 347 L355 375 L349 390 L340 400 L331 405 L328 404 L337 394 L342 384 L344 376 L343 365 L341 381 L336 392 L327 402 L321 405 L320 403 L327 388 L327 368 L331 358 L341 347 L349 342 Z M156 340 L164 342 L172 347 L183 360 L187 372 L186 387 L188 395 L193 403 L192 405 L187 403 L175 388 L171 377 L170 365 L169 375 L171 384 L177 395 L185 404 L182 405 L174 401 L164 390 L158 375 L157 347 L155 343 Z M256 270 L303 293 L302 322 L296 345 L269 377 L257 364 L247 377 L237 371 L222 354 L211 322 L210 293 L228 287 Z M256 258 L271 269 L288 278 L312 285 L311 323 L306 344 L299 358 L274 384 L270 379 L291 359 L302 336 L305 320 L304 289 L283 283 L256 266 L240 278 L223 286 L208 290 L208 320 L213 342 L227 365 L243 379 L240 384 L236 382 L226 369 L214 358 L207 344 L203 329 L201 285 L225 278 L239 271 Z M303 242 L307 243 L312 255 L319 261 L318 265 L313 264 L307 257 L302 245 Z M164 298 L181 262 L203 241 L211 243 L204 255 L215 244 L223 246 L216 262 L227 246 L281 246 L288 262 L300 268 L303 261 L294 249 L298 244 L307 262 L318 268 L322 260 L313 251 L313 243 L341 276 L349 298 L350 323 L345 341 L326 362 L325 347 L307 353 L314 322 L315 283 L286 274 L256 254 L227 274 L199 282 L199 321 L208 352 L188 347 L190 359 L187 362 L167 339 L163 323 Z M280 235 L283 235 L289 241 L294 256 L300 261 L300 264 L298 266 L295 265 L291 261 L287 254 L284 244 L277 239 Z M310 234 L305 239 L302 240 L298 239 L299 234 L306 232 Z M203 234 L205 232 L208 232 L219 236 L249 239 L274 238 L276 243 L275 244 L229 243 L206 238 Z M284 228 L289 228 L294 232 L296 237 L294 242 L292 242 L289 236 L282 231 Z M308 225 L308 228 L305 230 L298 232 L295 230 L296 226 L303 224 Z M205 225 L210 224 L219 227 L239 230 L275 230 L277 229 L278 231 L275 235 L268 236 L233 235 L208 230 L205 227 Z M190 195 L208 195 L219 202 L227 202 L236 196 L245 196 L254 201 L262 200 L268 196 L277 196 L286 202 L294 202 L308 194 L322 194 L323 196 L311 208 L302 222 L294 222 L296 215 L288 225 L280 226 L279 223 L284 208 L273 227 L255 228 L240 227 L230 209 L233 226 L225 225 L217 215 L219 222 L212 222 Z M320 189 L322 188 L323 190 L321 191 Z M276 189 L282 188 L283 194 L282 195 L278 194 L276 192 Z M190 189 L192 188 L193 190 L191 191 Z M303 187 L306 191 L299 195 L297 191 L301 187 Z M238 188 L238 192 L235 194 L232 194 L227 199 L223 200 L219 198 L220 195 L225 190 L229 188 L236 187 Z M207 190 L210 187 L212 187 L216 191 L216 193 L212 194 L208 192 Z M256 181 L262 186 L262 188 L258 192 L256 192 L251 187 Z M315 183 L317 187 L316 192 L311 192 L303 183 L301 183 L292 191 L296 196 L294 199 L288 199 L286 197 L287 185 L292 179 L296 177 L304 176 L311 179 Z M196 191 L197 184 L203 178 L208 176 L214 176 L217 181 L223 186 L223 188 L219 190 L212 183 L210 183 L201 192 Z M241 183 L243 178 L248 173 L252 171 L262 171 L270 177 L273 183 L273 192 L260 197 L259 195 L266 188 L266 186 L256 177 L247 186 L256 196 L254 198 L241 191 Z M275 153 L287 154 L293 159 L296 166 L295 174 L290 177 L283 185 L277 185 L272 175 L263 168 L264 163 L267 158 Z M227 153 L237 153 L241 155 L248 164 L248 170 L241 176 L239 182 L235 185 L225 184 L219 179 L216 173 L216 165 L218 160 Z M319 125 L316 135 L308 142 L310 142 L316 148 L319 154 L319 157 L321 157 L323 149 L331 141 L324 135 L321 125 Z M319 135 L321 135 L325 140 L325 142 L320 148 L314 142 Z M192 125 L189 135 L182 142 L188 146 L191 151 L192 157 L194 157 L194 154 L197 148 L205 141 L197 135 L194 125 Z M192 135 L194 135 L199 141 L194 148 L188 142 L188 140 Z M297 109 L294 112 L293 118 L286 124 L283 123 L275 127 L268 133 L265 138 L267 141 L263 149 L272 140 L277 139 L280 142 L285 143 L290 141 L295 136 L298 128 Z M295 123 L294 132 L288 139 L282 140 L281 136 L273 137 L268 140 L266 139 L275 130 L279 128 L284 129 L285 127 L290 125 L293 122 Z M215 108 L216 110 L215 126 L218 136 L223 141 L228 143 L231 143 L236 139 L239 139 L243 141 L250 149 L246 141 L248 138 L245 133 L241 129 L230 123 L226 124 L220 118 L217 109 Z M218 123 L220 122 L223 125 L228 127 L229 129 L234 128 L238 130 L246 138 L243 139 L237 136 L232 136 L231 140 L225 139 L219 132 Z M256 17 L247 51 L240 62 L241 70 L236 71 L227 96 L222 96 L226 113 L250 129 L257 148 L261 132 L268 124 L287 113 L291 97 L286 96 L276 70 L272 70 L273 62 L266 52 L266 44 Z M267 119 L268 121 L263 125 L262 123 Z M256 94 L266 106 L266 113 L262 117 L262 120 L257 131 L255 130 L251 117 L248 115 L246 110 L249 102 Z M256 76 L258 77 L260 82 L266 90 L265 96 L269 94 L273 100 L274 108 L271 112 L269 111 L268 104 L256 88 L252 96 L247 101 L244 108 L244 112 L242 113 L239 108 L240 100 L244 95 L248 96 L247 90 Z M257 31 L264 47 L263 52 L265 57 L262 61 L262 66 L267 59 L270 61 L269 77 L271 78 L274 75 L277 78 L279 83 L277 92 L280 89 L282 90 L284 95 L282 102 L286 101 L287 106 L285 111 L279 117 L272 119 L270 118 L276 110 L276 101 L271 89 L267 88 L256 68 L250 82 L244 89 L242 89 L237 101 L237 110 L241 116 L249 121 L247 123 L240 118 L234 117 L228 111 L226 102 L231 102 L229 98 L231 90 L233 89 L236 91 L234 86 L236 78 L239 75 L242 78 L244 77 L244 60 L246 59 L251 66 L251 61 L248 57 L250 52 L249 47 L255 32 Z"/></svg>
