<svg xmlns="http://www.w3.org/2000/svg" width="512" height="512" viewBox="0 0 512 512" aria-hidden="true" focusable="false"><path fill="currentColor" fill-rule="evenodd" clip-rule="evenodd" d="M426 44 L337 173 L320 191 L320 205 L268 236 L220 210 L219 195 L202 185 L201 176 L187 162 L185 152 L174 147 L108 46 L107 53 L170 151 L182 160 L176 180 L187 184 L183 196 L174 200 L166 186 L144 179 L129 168 L132 186 L128 213 L136 226 L125 236 L113 237 L110 229 L118 231 L118 217 L93 211 L17 111 L83 205 L94 242 L106 253 L106 270 L119 281 L114 296 L117 308 L108 319 L108 329 L123 347 L139 324 L146 351 L173 399 L186 442 L197 444 L209 436 L224 465 L243 469 L259 459 L274 439 L282 452 L291 453 L332 407 L367 352 L393 272 L413 270 L437 242 L448 236 L453 219 L469 204 L479 175 L476 154 L487 139 L496 111 L460 140 L448 157 L436 155 L418 161 L407 172 L401 184 L409 214 L405 225 L368 193 L339 179 L428 48 Z M262 447 L256 455 L243 464 L236 464 L232 459 L232 453 L235 447 L240 450 L250 450 L260 446 Z M307 424 L308 426 L292 445 L291 440 L295 431 L302 424 Z M276 425 L276 429 L273 434 L249 446 L244 447 L237 440 L237 433 L243 425 L245 425 L247 429 L251 431 L260 431 L274 424 Z M282 408 L280 415 L276 419 L271 420 L268 423 L256 427 L251 426 L248 423 L247 415 L250 407 L254 403 L259 401 L261 398 L264 400 L265 404 L270 408 L279 407 Z M308 361 L309 363 L306 368 L305 377 L298 391 L290 398 L287 398 L286 400 L279 403 L271 403 L267 398 L267 392 L269 391 L270 387 L277 380 L287 377 L291 374 L291 372 L294 369 L298 368 L302 364 Z M114 317 L116 318 L115 328 L112 326 Z M125 311 L131 319 L131 327 L127 334 L122 338 L117 333 L118 331 L120 332 L122 331 L121 327 L119 326 L118 320 L122 312 Z M130 301 L133 302 L135 311 L134 314 L127 307 Z M120 295 L123 295 L125 297 L124 303 L119 302 L118 299 Z M125 281 L128 283 L129 288 L128 293 L125 291 L124 286 Z M401 260 L403 261 L404 264 L403 266 L399 265 Z M446 230 L441 236 L437 238 L430 238 L430 244 L425 249 L421 250 L419 248 L416 240 L423 233 L428 230 L432 230 L433 232 L435 232 L438 229 Z M95 218 L102 219 L105 217 L109 217 L116 222 L115 224 L111 223 L106 225 L105 228 L105 236 L109 241 L115 243 L111 248 L104 247 L99 241 L96 232 L96 228 L98 225 L94 221 Z M171 209 L169 212 L161 216 L159 219 L149 226 L127 248 L121 258 L118 260 L115 267 L111 267 L108 264 L108 260 L114 252 L135 232 L156 216 L164 212 L166 209 L169 208 Z M211 207 L230 224 L260 240 L221 271 L182 331 L182 350 L208 407 L203 434 L201 419 L195 412 L197 431 L191 440 L184 415 L192 409 L181 411 L152 353 L129 270 L164 232 Z M180 204 L176 208 L173 209 L171 208 L177 203 Z M180 202 L182 201 L183 203 L181 204 Z M341 202 L374 223 L398 251 L386 273 L371 332 L326 407 L312 422 L303 420 L294 425 L285 447 L280 438 L284 415 L305 390 L329 335 L306 357 L272 378 L247 403 L225 458 L216 443 L216 425 L226 397 L252 362 L255 351 L227 385 L214 413 L209 382 L236 332 L203 380 L196 368 L197 357 L218 322 L219 312 L192 356 L186 347 L187 331 L223 277 L245 255 L311 218 L331 200 Z M148 200 L152 200 L158 205 L158 209 L154 213 L149 213 L147 211 L146 203 Z M185 199 L188 198 L189 200 L186 201 Z M215 198 L214 202 L208 202 L202 204 L201 206 L198 206 L189 210 L156 232 L131 257 L131 259 L129 260 L129 262 L123 270 L121 276 L119 275 L118 273 L119 268 L121 267 L124 260 L131 252 L131 250 L149 232 L167 218 L169 218 L171 215 L187 207 L190 204 L209 196 L213 196 Z M329 188 L334 184 L345 187 L363 196 L383 210 L402 229 L402 231 L406 234 L406 236 L413 245 L413 248 L417 255 L414 262 L411 265 L408 263 L407 255 L403 251 L400 243 L378 220 L356 204 L346 200 L345 198 L330 193 L328 191 Z M430 184 L436 183 L439 185 L440 188 L436 193 L438 196 L445 196 L450 198 L458 197 L465 198 L462 207 L457 212 L447 215 L447 222 L445 224 L437 223 L440 220 L440 218 L436 219 L432 224 L430 225 L428 224 L429 207 L425 200 L424 192 L425 188 Z M136 180 L146 185 L152 186 L155 190 L159 188 L166 193 L168 196 L168 203 L163 205 L161 200 L158 197 L149 195 L148 193 L143 191 L142 192 L142 211 L146 216 L146 218 L143 220 L138 219 L133 212 L133 205 L135 204 L134 194 Z M185 170 L187 171 L187 174 L193 174 L196 177 L197 188 L195 190 L192 189 L192 185 L187 179 L180 178 L180 175 Z M443 160 L448 164 L448 174 L450 174 L452 177 L451 184 L444 190 L442 181 L440 179 L433 178 L427 180 L422 185 L419 190 L419 197 L424 208 L424 219 L417 233 L415 235 L412 235 L408 228 L412 225 L414 212 L406 194 L407 182 L416 171 L420 172 L420 168 L425 164 L433 161 Z M483 132 L484 134 L480 142 L470 150 L468 157 L471 156 L473 157 L474 164 L473 177 L471 178 L469 184 L461 191 L454 192 L453 188 L456 184 L456 175 L453 172 L453 168 L456 166 L456 163 L454 161 L454 155 L457 149 L461 145 L469 144 L469 141 L471 139 L475 138 L478 134 Z"/></svg>
