<svg xmlns="http://www.w3.org/2000/svg" width="512" height="512" viewBox="0 0 512 512" aria-hidden="true" focusable="false"><path fill="currentColor" fill-rule="evenodd" clip-rule="evenodd" d="M319 321 L318 327 L319 335 L321 337 L330 336 L333 337 L336 331 L335 322 L329 320 Z M323 326 L330 325 L331 331 L324 332 Z M388 286 L385 292 L387 300 L393 302 L402 301 L403 296 L402 286 Z M391 291 L397 290 L398 297 L392 298 Z M110 286 L110 291 L108 293 L110 301 L116 302 L124 301 L125 297 L124 286 Z M113 291 L120 290 L121 297 L114 298 Z M292 250 L290 255 L291 265 L298 267 L306 266 L307 260 L306 252 L304 250 L299 249 Z M295 256 L301 255 L302 262 L296 263 Z M205 250 L202 256 L203 265 L204 266 L217 266 L219 259 L218 250 L212 249 Z M207 255 L213 254 L214 260 L211 262 L208 262 Z M180 145 L179 151 L180 160 L186 162 L194 161 L195 155 L194 147 L192 145 Z M183 151 L190 150 L191 156 L190 157 L184 156 Z M255 17 L234 59 L234 68 L226 65 L222 83 L227 103 L249 115 L229 138 L227 152 L235 164 L254 166 L251 183 L237 174 L216 149 L214 136 L219 135 L219 129 L208 138 L204 124 L218 119 L221 103 L192 77 L193 85 L181 106 L187 123 L166 123 L155 134 L152 146 L145 133 L129 126 L129 145 L143 155 L123 168 L122 189 L110 179 L105 166 L89 196 L90 223 L99 228 L112 226 L112 240 L103 244 L90 228 L79 224 L76 211 L62 205 L67 229 L52 248 L54 269 L47 281 L84 284 L97 271 L95 257 L108 258 L125 271 L114 271 L100 279 L96 287 L98 309 L87 300 L63 301 L56 297 L58 320 L68 337 L80 340 L93 332 L105 335 L98 345 L92 343 L82 350 L84 379 L112 358 L125 377 L146 390 L146 380 L159 354 L150 339 L135 339 L134 331 L141 314 L158 299 L177 297 L191 303 L172 310 L164 320 L163 334 L170 346 L183 351 L199 346 L206 334 L205 316 L221 342 L221 400 L200 449 L193 453 L186 449 L186 443 L200 432 L198 415 L194 416 L176 393 L176 409 L163 438 L165 451 L175 463 L155 472 L152 468 L162 458 L153 453 L140 429 L137 449 L127 467 L113 470 L104 465 L116 481 L146 492 L170 490 L170 495 L203 496 L212 488 L208 476 L218 474 L231 480 L221 484 L216 495 L238 491 L252 473 L247 452 L239 454 L238 448 L249 446 L256 431 L260 444 L269 450 L260 460 L260 476 L273 491 L295 496 L292 486 L280 479 L301 474 L299 487 L308 496 L341 495 L341 490 L365 492 L394 482 L406 465 L394 471 L385 467 L374 448 L372 429 L358 453 L349 457 L359 466 L356 472 L337 463 L347 449 L348 436 L335 408 L335 393 L318 415 L312 416 L312 433 L326 448 L317 453 L299 428 L288 388 L292 337 L309 313 L305 325 L309 342 L325 351 L340 347 L349 333 L348 320 L340 310 L320 303 L335 297 L350 298 L369 312 L377 339 L360 340 L353 352 L366 381 L364 389 L385 378 L398 362 L397 348 L381 339 L384 328 L409 344 L403 352 L405 365 L427 378 L430 352 L422 344 L413 344 L407 335 L421 331 L432 340 L445 336 L453 322 L456 297 L449 301 L425 300 L414 308 L416 289 L412 279 L388 270 L404 258 L416 257 L416 274 L428 284 L465 281 L458 270 L460 249 L444 227 L450 219 L448 205 L434 212 L433 224 L422 229 L408 245 L399 239 L400 226 L413 228 L423 220 L423 196 L406 166 L401 180 L391 187 L389 168 L368 155 L382 147 L383 126 L367 133 L360 146 L357 134 L346 123 L325 123 L331 107 L320 88 L320 77 L291 103 L293 118 L308 125 L303 136 L298 129 L291 132 L298 136 L298 142 L289 155 L283 138 L264 117 L265 112 L280 108 L288 99 L287 65 L279 68 L279 60 Z M335 488 L337 487 L338 489 L336 490 Z M173 488 L175 487 L176 489 L174 490 Z M320 479 L322 478 L323 480 L321 481 Z M191 479 L189 482 L185 481 L186 479 L189 478 Z M360 463 L364 463 L367 466 L367 471 L365 473 L361 472 L362 467 L359 465 Z M147 463 L150 464 L149 474 L144 470 L144 466 Z M356 459 L358 458 L359 460 L357 461 Z M244 457 L247 463 L247 474 L245 479 L238 486 L229 488 L228 486 L232 484 L238 477 L239 471 L238 467 L236 466 L236 463 L240 462 L241 457 Z M117 476 L118 474 L131 473 L130 467 L132 460 L135 457 L139 457 L139 452 L141 448 L146 445 L149 448 L149 458 L147 460 L144 460 L140 465 L140 472 L143 476 L148 478 L159 478 L168 474 L175 468 L186 464 L191 465 L193 469 L192 473 L183 479 L180 479 L170 485 L158 488 L146 487 L138 484 L134 479 L125 480 Z M390 478 L387 480 L384 479 L382 481 L379 479 L376 480 L374 483 L365 487 L359 488 L347 487 L333 481 L329 477 L321 475 L316 466 L326 464 L333 466 L345 475 L353 478 L366 477 L371 472 L371 464 L369 461 L364 460 L362 458 L363 456 L362 449 L364 445 L367 442 L369 442 L372 457 L376 457 L381 465 L380 474 L387 473 L390 475 Z M330 438 L332 439 L331 445 L329 444 L328 441 Z M180 438 L183 439 L181 448 L179 447 Z M276 423 L279 425 L280 429 L287 437 L294 453 L293 460 L289 463 L289 465 L294 463 L303 463 L310 466 L315 472 L317 477 L315 485 L320 484 L322 485 L322 488 L319 491 L309 492 L304 488 L304 483 L305 482 L309 483 L309 477 L305 472 L301 470 L293 470 L285 474 L279 474 L275 471 L275 468 L273 467 L273 477 L278 484 L284 486 L283 488 L273 486 L266 479 L264 473 L264 463 L266 458 L269 457 L271 462 L275 462 L277 466 L281 466 L285 463 L287 456 L285 443 L274 429 L274 426 Z M235 423 L238 428 L229 438 L226 444 L225 458 L228 465 L235 467 L236 471 L233 474 L227 474 L218 470 L207 471 L203 476 L202 483 L207 482 L209 485 L204 491 L194 492 L186 488 L185 486 L188 484 L196 485 L195 475 L197 470 L203 465 L207 463 L215 463 L223 465 L223 463 L221 463 L218 460 L219 447 L221 446 L223 439 L231 429 L232 425 Z M255 409 L257 410 L264 424 L275 435 L280 442 L281 447 L283 448 L283 457 L280 461 L276 459 L277 448 L275 443 L269 438 L269 436 L267 437 L267 441 L266 442 L264 441 L264 434 L261 432 L258 427 L257 419 L254 420 L253 427 L248 432 L247 435 L243 436 L242 439 L238 441 L236 444 L234 451 L235 459 L233 461 L229 459 L228 455 L229 446 L231 445 L231 443 L233 442 L237 434 L241 430 L244 429 L244 427 L252 417 L253 411 Z M183 406 L189 412 L189 420 L187 422 L189 424 L193 422 L195 423 L195 431 L193 435 L190 437 L185 436 L186 431 L181 431 L176 436 L175 448 L176 451 L181 456 L180 458 L178 458 L171 452 L167 440 L169 438 L170 430 L172 427 L177 426 L176 417 L179 415 L181 407 Z M329 405 L331 406 L331 412 L333 416 L335 417 L335 422 L333 426 L338 426 L342 431 L343 445 L341 451 L332 459 L330 458 L330 456 L336 449 L337 445 L336 438 L333 433 L329 430 L325 431 L325 433 L327 434 L325 437 L320 436 L316 430 L317 423 L318 422 L320 424 L323 423 L322 413 Z M254 396 L256 395 L257 397 L255 398 Z M272 390 L276 398 L276 406 L274 407 L272 403 L270 403 L267 406 L268 415 L273 421 L272 424 L270 425 L263 415 L262 406 L265 398 L269 396 L269 392 Z M238 389 L242 392 L242 396 L246 398 L249 407 L248 415 L240 426 L238 425 L238 422 L243 416 L244 407 L241 403 L238 406 L235 405 L235 398 L237 395 Z M242 382 L244 383 L243 386 L240 385 Z M265 376 L266 377 L265 380 L262 381 L261 379 Z M257 374 L258 375 L257 382 L262 390 L258 391 L257 388 L254 387 L253 392 L250 395 L248 395 L247 393 L250 386 L253 384 L253 376 Z M135 373 L137 372 L138 374 L136 375 Z M379 365 L381 367 L381 372 L383 374 L373 379 L372 378 L373 374 L375 372 L378 372 L377 366 Z M132 365 L135 366 L133 370 L133 374 L135 375 L134 377 L129 374 Z M138 364 L141 363 L143 366 L139 367 Z M416 361 L420 364 L419 369 L414 367 Z M91 368 L94 361 L96 362 L96 364 L99 363 L101 364 L100 366 L93 369 Z M422 360 L426 361 L424 366 L421 363 Z M132 357 L133 359 L130 363 L128 371 L126 372 L121 366 L125 365 L127 360 Z M256 355 L260 363 L260 367 L263 368 L266 373 L262 374 L256 367 L254 367 L253 371 L249 375 L249 380 L247 381 L245 379 L245 372 L248 368 L250 368 L250 363 L252 362 L254 356 Z M97 356 L99 355 L100 358 L98 359 Z M135 355 L137 354 L141 357 L141 359 L138 360 L135 357 Z M393 352 L394 353 L393 363 L386 372 L384 372 L379 358 L381 357 L385 361 L385 363 L388 363 L386 358 L390 357 L391 353 Z M409 351 L411 352 L410 357 L413 355 L415 356 L412 364 L410 364 L406 359 L406 355 L408 354 Z M381 352 L383 351 L384 353 L382 354 Z M102 351 L104 352 L103 356 L101 355 Z M423 350 L425 351 L426 354 L425 358 L419 355 L420 353 L422 353 Z M130 350 L131 353 L127 357 L123 355 L126 351 Z M87 350 L89 351 L89 353 L93 354 L92 356 L89 357 L89 359 L91 360 L89 366 L87 365 L86 359 L84 358 Z M419 349 L422 348 L423 350 L420 351 Z M383 343 L389 344 L392 347 L392 349 L387 350 L382 346 Z M129 343 L130 346 L122 351 L121 354 L124 358 L124 361 L119 362 L118 361 L119 348 L123 344 Z M372 341 L376 343 L374 346 L369 346 L362 350 L362 352 L364 352 L367 349 L375 350 L373 353 L369 353 L366 356 L366 358 L370 356 L375 357 L374 359 L368 362 L368 364 L371 363 L373 364 L373 366 L369 369 L369 371 L371 372 L370 377 L362 369 L358 360 L358 351 L360 346 L364 342 Z M140 341 L149 343 L152 346 L154 352 L154 359 L152 362 L152 365 L143 377 L140 375 L140 371 L146 368 L144 360 L145 359 L149 360 L148 357 L149 354 L148 353 L143 354 L136 351 L137 349 L145 349 L145 347 L135 345 L136 342 Z M257 340 L258 342 L255 345 L254 342 Z M240 335 L244 336 L244 338 L247 340 L252 348 L251 356 L249 357 L247 361 L243 360 L239 355 L239 352 L245 349 L244 345 L239 341 Z M272 330 L273 334 L271 342 L266 347 L266 349 L269 348 L271 349 L272 356 L266 361 L264 361 L259 354 L259 347 L262 341 L267 338 L267 334 Z M86 329 L86 331 L80 336 L76 335 L78 331 L84 328 Z M254 326 L258 327 L260 333 L262 334 L261 338 L255 332 L251 338 L248 336 Z M181 326 L188 325 L189 331 L182 332 Z M131 324 L132 326 L130 339 L122 340 L119 342 L117 346 L114 348 L114 352 L112 354 L109 354 L108 351 L102 347 L104 342 L113 336 L114 334 L122 331 Z M426 332 L427 328 L432 331 L437 332 L437 330 L429 325 L430 323 L436 326 L442 326 L444 329 L438 336 L431 336 Z M81 323 L82 325 L78 329 L75 330 L73 334 L71 334 L68 330 L69 327 L76 326 Z M320 316 L332 315 L337 318 L340 322 L341 333 L335 341 L325 343 L318 340 L313 335 L314 333 L312 331 L313 323 Z M180 315 L190 315 L196 319 L197 322 L199 323 L198 326 L200 330 L197 336 L190 342 L186 343 L179 342 L171 334 L171 324 L176 323 L177 324 L176 331 L179 337 L187 337 L192 335 L192 332 L194 330 L192 321 L187 320 L175 321 L174 320 L176 317 Z M254 307 L256 307 L259 311 L260 315 L258 318 L256 316 L250 315 Z M373 307 L376 306 L379 310 L389 316 L399 316 L412 309 L413 319 L418 327 L412 330 L396 329 L390 326 L378 314 Z M450 305 L451 310 L450 319 L446 325 L443 323 L437 323 L435 321 L436 319 L444 320 L444 318 L442 318 L441 316 L448 309 L448 306 Z M62 305 L67 307 L68 313 L70 315 L68 320 L76 319 L77 321 L75 323 L69 323 L67 325 L63 323 L61 313 L65 311 L61 309 Z M417 317 L418 310 L424 305 L426 305 L427 303 L432 303 L445 307 L441 312 L437 309 L434 317 L431 314 L432 309 L430 309 L429 318 L427 321 L425 320 L424 312 L422 313 L421 319 Z M69 307 L80 303 L91 307 L93 311 L95 312 L93 321 L92 322 L89 321 L90 317 L89 310 L87 310 L87 317 L84 320 L82 310 L80 307 L78 307 L80 311 L79 317 L76 315 L75 310 L71 313 L69 310 Z M259 301 L263 301 L266 305 L267 315 L265 319 L263 318 L264 313 L258 304 Z M283 300 L285 301 L284 307 L281 305 L281 302 Z M226 300 L228 301 L227 306 L225 305 Z M256 287 L260 293 L260 299 L259 300 L254 299 L253 304 L249 307 L247 316 L245 317 L243 313 L245 305 L248 301 L250 301 L250 294 L253 289 Z M175 285 L193 291 L197 289 L198 294 L202 293 L222 310 L235 332 L235 340 L237 344 L235 351 L236 358 L244 365 L241 372 L241 380 L239 381 L235 378 L234 393 L231 399 L233 409 L240 413 L237 417 L232 414 L229 415 L228 425 L218 439 L216 446 L208 456 L200 461 L196 461 L195 459 L203 453 L214 436 L224 410 L229 378 L228 352 L224 336 L213 316 L196 300 L175 290 Z M342 284 L342 288 L317 299 L299 315 L287 336 L283 353 L283 362 L281 364 L285 400 L291 422 L300 442 L309 454 L316 459 L314 462 L307 459 L297 448 L295 442 L281 422 L281 416 L283 414 L281 413 L274 417 L271 413 L272 411 L277 410 L280 400 L277 392 L276 378 L274 378 L267 388 L264 386 L270 378 L267 365 L274 360 L276 354 L274 346 L279 324 L289 310 L313 289 L317 292 L324 288 Z M348 284 L351 281 L353 282 L350 285 Z M161 283 L168 281 L171 283 L171 286 L167 287 L162 285 Z M392 279 L398 279 L402 281 L408 287 L409 290 L408 300 L399 308 L387 307 L382 302 L380 296 L380 291 L383 284 Z M377 280 L377 282 L373 286 L372 296 L374 303 L371 305 L359 296 L351 294 L349 292 L349 290 L352 288 L366 284 L374 279 Z M164 291 L163 293 L155 295 L148 299 L138 308 L124 324 L118 328 L113 330 L100 330 L93 327 L98 321 L100 311 L104 311 L113 316 L122 316 L130 312 L135 307 L139 300 L139 287 L135 281 L136 279 L153 287 L162 289 Z M103 282 L105 280 L109 282 L114 279 L119 279 L124 281 L131 289 L131 298 L129 301 L131 305 L130 306 L126 305 L121 308 L113 308 L105 304 L102 293 L106 284 L104 284 Z M56 274 L57 273 L59 275 L63 273 L65 275 L68 274 L69 278 L68 279 L57 278 Z M455 270 L455 273 L452 274 L452 277 L450 279 L442 280 L440 279 L443 275 L447 276 L447 274 L453 269 Z M69 269 L71 270 L70 274 L68 273 Z M441 268 L444 271 L443 275 L440 272 Z M57 272 L59 267 L64 268 L59 273 Z M422 260 L424 261 L423 271 L426 275 L427 275 L425 269 L426 261 L428 260 L430 262 L430 271 L432 276 L434 276 L433 265 L434 264 L436 265 L437 272 L439 274 L436 280 L430 280 L425 278 L421 274 L419 270 L419 265 Z M90 260 L92 262 L92 271 L90 275 L82 280 L76 280 L73 275 L75 272 L75 266 L77 264 L79 265 L78 275 L80 275 L81 265 L84 262 L86 265 L87 273 L89 270 L88 261 Z M442 262 L448 259 L451 261 L451 264 L443 265 Z M58 261 L65 259 L68 262 L66 265 L63 264 L59 265 Z M134 259 L136 258 L144 264 L149 264 L152 262 L155 274 L150 275 L144 273 L137 266 Z M378 258 L377 263 L374 265 L374 267 L371 269 L369 273 L358 276 L356 275 L360 262 L363 264 L367 264 L373 261 L376 257 Z M83 258 L85 257 L86 259 L84 260 Z M114 257 L116 256 L117 258 L115 259 Z M443 255 L441 259 L439 260 L435 259 L438 255 L440 254 Z M448 250 L451 252 L452 255 L451 258 L447 256 Z M60 253 L64 250 L65 253 L70 254 L70 257 L61 258 Z M348 251 L351 249 L354 250 L353 253 L349 253 Z M452 248 L454 247 L455 249 L453 250 Z M84 247 L88 251 L87 255 L82 251 Z M138 251 L143 250 L145 246 L148 247 L152 252 L151 253 L144 252 L144 253 L150 256 L151 258 L150 259 L142 258 L139 255 Z M401 245 L403 247 L402 253 L397 257 L396 254 L399 250 L399 246 Z M111 245 L113 246 L112 250 L109 249 Z M451 245 L453 244 L454 246 L452 247 Z M446 248 L445 250 L441 250 L440 252 L432 257 L429 256 L432 251 L437 248 L438 244 L443 245 Z M434 244 L435 246 L432 247 L429 250 L429 252 L425 255 L424 250 L429 245 Z M291 246 L295 244 L301 244 L306 246 L311 251 L313 259 L310 266 L312 270 L310 272 L306 270 L303 273 L295 273 L287 267 L285 264 L284 258 L286 251 Z M206 244 L218 245 L223 250 L225 255 L224 264 L218 270 L212 273 L209 271 L202 270 L196 262 L197 251 Z M75 245 L80 244 L81 246 L76 247 Z M66 248 L69 245 L73 244 L74 245 L73 247 L77 249 L78 251 L75 254 L71 250 L67 250 Z M148 243 L151 242 L152 244 L149 245 Z M208 240 L210 239 L211 241 L209 242 Z M149 235 L151 234 L153 238 L151 239 Z M372 232 L374 231 L376 234 L374 235 Z M162 231 L171 239 L174 247 L174 251 L172 255 L168 259 L160 260 L157 257 L165 255 L170 249 L168 248 L163 253 L156 252 L158 249 L164 247 L167 242 L167 239 L166 239 L162 245 L158 247 L156 246 L162 240 L162 238 L158 240 L156 239 L158 234 Z M452 241 L451 243 L448 244 L439 239 L432 239 L426 242 L422 246 L419 254 L409 252 L416 240 L423 234 L424 231 L427 232 L429 230 L439 230 L440 232 L446 234 Z M60 240 L67 233 L72 232 L73 230 L85 230 L95 239 L99 246 L99 249 L101 249 L103 252 L93 254 L90 246 L86 242 L80 239 L70 240 L60 248 L58 247 Z M359 227 L363 229 L372 238 L374 242 L375 248 L374 253 L368 259 L361 258 L362 256 L367 254 L371 250 L371 248 L369 248 L366 252 L363 253 L360 252 L360 250 L368 242 L366 242 L361 246 L359 245 L361 239 L359 238 L360 234 L358 233 Z M281 226 L288 227 L294 236 L289 238 L279 247 L277 252 L277 265 L280 271 L286 277 L294 280 L303 280 L309 278 L314 274 L316 275 L312 284 L291 302 L289 301 L286 292 L282 297 L279 295 L276 286 L270 277 L266 263 L266 250 L270 237 Z M230 226 L237 232 L237 234 L241 238 L244 250 L244 263 L241 275 L239 276 L231 296 L229 297 L225 292 L222 300 L220 301 L206 292 L200 286 L200 284 L197 282 L197 277 L199 276 L204 279 L217 279 L225 275 L233 261 L233 254 L227 243 L217 235 L223 227 Z M153 226 L154 231 L150 232 L150 234 L146 236 L148 239 L143 240 L144 244 L140 246 L139 248 L137 248 L136 246 L140 238 Z M156 226 L158 225 L159 227 L157 228 Z M363 223 L364 222 L367 223 L371 228 L368 229 Z M356 222 L358 225 L356 227 L356 232 L355 233 L351 232 L351 234 L356 238 L355 240 L352 239 L351 241 L356 246 L354 247 L350 245 L345 240 L347 249 L346 250 L344 248 L342 249 L345 254 L353 256 L354 258 L351 260 L346 260 L339 254 L338 251 L339 242 L342 237 L352 228 L354 223 Z M150 220 L151 222 L140 231 L139 229 Z M285 220 L287 219 L288 221 L286 222 Z M223 220 L225 219 L226 221 L224 222 Z M443 217 L445 216 L446 218 L444 219 Z M66 217 L68 216 L69 219 L67 220 Z M436 216 L439 213 L441 214 L439 217 Z M256 213 L258 220 L260 261 L262 263 L263 271 L269 287 L273 291 L277 302 L278 317 L275 325 L272 325 L266 329 L261 327 L270 318 L270 306 L263 290 L258 283 L256 275 L254 275 L253 282 L250 285 L246 297 L244 298 L239 310 L241 319 L249 325 L245 330 L239 325 L239 323 L235 323 L233 318 L233 304 L236 294 L242 285 L247 272 L249 261 L248 251 L250 239 L252 237 L252 224 L254 214 Z M384 207 L387 208 L387 214 L390 214 L395 218 L393 221 L388 219 L384 215 L382 210 Z M206 206 L209 205 L210 207 L207 208 Z M320 204 L321 211 L319 219 L312 227 L301 228 L294 224 L294 221 L292 219 L294 215 L297 216 L299 219 L304 222 L311 222 L312 218 L305 219 L301 215 L304 212 L308 214 L313 214 L316 212 L316 211 L313 212 L308 211 L302 207 L303 205 L306 204 L310 206 L316 206 Z M191 205 L193 204 L204 207 L203 211 L201 212 L196 211 L198 214 L204 214 L209 211 L213 212 L209 218 L201 219 L201 222 L208 222 L215 216 L219 215 L220 217 L218 219 L218 222 L211 228 L202 228 L198 226 L192 218 Z M343 204 L346 203 L347 205 L344 206 Z M166 204 L168 203 L169 205 L167 206 Z M398 202 L400 203 L399 207 L396 205 Z M101 202 L104 201 L108 205 L107 206 L102 205 Z M126 198 L129 204 L129 213 L124 219 L119 221 L117 218 L124 212 L125 206 L123 206 L120 212 L116 214 L114 212 L115 209 L121 203 L121 201 Z M388 196 L391 197 L391 203 L397 209 L396 214 L389 209 L388 204 L385 205 L383 204 L385 199 Z M298 196 L300 197 L299 202 L297 201 Z M191 195 L194 194 L202 199 L203 201 L201 203 L192 202 Z M110 195 L112 194 L113 197 L111 198 Z M321 194 L320 202 L316 203 L309 202 L309 200 L315 195 L319 193 Z M239 193 L241 194 L247 212 L247 233 L245 235 L243 234 L239 226 L230 217 L231 215 L230 213 L236 206 L236 195 Z M399 192 L402 195 L401 198 L398 196 Z M393 192 L395 193 L395 196 L397 197 L395 200 L393 199 L393 197 L390 196 Z M265 192 L266 194 L262 203 L259 204 L258 203 L259 196 L262 192 Z M119 192 L121 194 L119 196 L119 201 L113 206 L112 201 L116 196 L116 194 Z M97 191 L102 193 L102 197 L100 200 L96 200 L96 203 L100 207 L105 208 L111 212 L110 215 L104 215 L97 213 L97 215 L100 217 L109 218 L107 224 L99 224 L95 222 L91 216 L90 212 L91 201 Z M227 190 L230 192 L233 198 L233 203 L228 209 L224 209 L223 207 L227 202 L227 197 L225 194 L223 194 L224 201 L220 207 L217 206 L217 200 L219 197 L219 193 Z M247 189 L249 190 L253 197 L252 206 L250 205 L245 193 Z M413 188 L417 193 L422 208 L421 215 L414 223 L405 224 L401 221 L402 218 L412 217 L415 215 L415 213 L409 215 L401 214 L401 212 L404 209 L412 207 L416 202 L416 200 L414 200 L411 204 L406 206 L404 205 L406 202 L409 201 L413 197 L413 195 L409 196 L406 193 L406 191 Z M112 189 L114 188 L116 191 L113 192 Z M208 188 L210 187 L212 190 L210 191 Z M375 186 L373 192 L363 191 L364 186 L373 185 Z M404 184 L405 188 L397 192 L396 190 Z M217 184 L220 188 L216 192 L215 202 L213 203 L212 202 L212 192 L214 191 L213 185 Z M108 184 L110 185 L109 190 L107 189 Z M408 184 L410 183 L411 186 L409 187 Z M298 183 L299 187 L293 194 L295 200 L294 207 L293 208 L291 207 L290 203 L287 200 L288 194 L286 194 L285 203 L288 206 L287 209 L282 208 L279 204 L279 197 L281 193 L286 188 L289 191 L291 191 L292 187 Z M255 183 L257 184 L258 189 L257 192 L255 192 L253 189 Z M102 183 L104 184 L103 193 L99 189 Z M301 186 L305 182 L311 182 L320 186 L324 191 L323 192 L318 191 L314 194 L309 192 L307 195 L304 195 L303 193 L307 188 L307 186 L303 188 Z M187 189 L197 183 L205 182 L206 185 L204 186 L204 188 L208 192 L208 199 L206 200 L204 198 L202 191 L200 191 L199 194 L194 191 L190 193 Z M237 181 L239 180 L245 187 L242 188 Z M103 180 L105 179 L106 181 L104 182 Z M367 174 L373 175 L371 182 L366 181 L365 177 Z M139 175 L145 174 L147 177 L146 181 L140 182 Z M362 165 L374 164 L382 171 L383 182 L379 189 L376 187 L378 179 L377 171 L371 170 L362 171 L360 178 L362 182 L359 187 L357 186 L354 180 L354 176 L357 170 Z M138 164 L150 165 L155 170 L156 175 L158 177 L158 180 L155 186 L150 191 L145 193 L136 191 L135 188 L137 186 L144 187 L150 185 L150 181 L152 179 L152 176 L150 175 L150 171 L145 170 L135 171 L134 177 L135 185 L132 187 L129 182 L130 171 L133 167 Z M285 155 L286 159 L284 164 L273 177 L274 181 L273 184 L268 190 L266 190 L265 188 L270 183 L270 180 L266 181 L263 185 L261 184 L258 175 L258 166 L259 165 L264 167 L274 166 Z M321 151 L328 150 L329 156 L328 157 L322 156 Z M374 147 L376 146 L377 148 L375 149 Z M135 147 L137 146 L138 148 L136 149 Z M336 144 L339 149 L339 157 L337 161 L331 166 L326 167 L320 166 L319 165 L320 161 L324 162 L332 161 L333 155 L332 146 Z M133 144 L136 141 L138 142 L135 145 Z M331 141 L332 142 L331 145 L320 145 L318 147 L317 151 L318 161 L315 163 L311 157 L311 150 L314 144 L321 140 Z M178 142 L183 140 L191 140 L198 144 L201 150 L201 157 L195 165 L186 167 L179 165 L175 161 L173 157 L173 149 Z M144 141 L146 140 L147 142 L145 143 Z M367 138 L371 135 L379 134 L380 142 L377 145 L374 143 L377 138 L374 138 L371 141 L368 141 Z M132 135 L133 134 L141 135 L145 138 L145 140 L141 141 L138 138 L135 138 L133 140 Z M240 131 L244 132 L246 136 L254 143 L254 145 L251 146 L247 144 L242 139 L241 136 L239 137 L241 142 L252 150 L254 153 L253 155 L248 153 L243 153 L239 148 L237 148 L238 152 L245 156 L252 158 L252 161 L249 163 L240 162 L233 155 L232 144 L235 136 Z M257 137 L259 130 L262 130 L265 132 L259 138 Z M325 130 L327 129 L328 131 L326 132 Z M184 130 L186 129 L187 131 L185 132 Z M342 126 L352 134 L356 142 L354 152 L364 154 L349 169 L349 187 L360 198 L381 198 L379 214 L386 223 L394 225 L394 246 L389 258 L381 265 L383 242 L378 229 L367 218 L350 211 L351 203 L343 197 L340 209 L350 215 L352 220 L337 237 L333 248 L336 257 L344 264 L352 264 L353 269 L343 278 L322 284 L318 270 L319 249 L309 238 L299 236 L298 233 L312 232 L321 224 L326 209 L326 193 L330 186 L310 177 L287 182 L275 197 L281 218 L266 235 L263 217 L271 193 L287 173 L303 144 L305 161 L314 172 L331 174 L343 165 L347 156 L346 146 L330 132 L333 126 Z M170 126 L182 128 L182 132 L170 140 L165 150 L166 160 L175 171 L181 174 L198 172 L207 161 L209 145 L238 190 L235 192 L225 182 L211 177 L201 177 L182 186 L190 223 L199 232 L213 233 L199 239 L191 248 L189 261 L193 272 L189 284 L169 278 L160 271 L161 265 L172 261 L177 254 L174 236 L160 221 L160 216 L172 208 L169 197 L161 203 L162 210 L145 218 L132 232 L129 241 L130 264 L120 254 L117 243 L117 225 L127 222 L133 213 L131 198 L152 198 L163 187 L164 171 L148 155 L153 150 L158 152 L156 142 L160 134 Z M264 124 L276 135 L280 144 L280 151 L278 157 L270 163 L263 163 L260 161 L260 158 L271 154 L273 152 L272 151 L269 153 L264 153 L260 155 L258 154 L264 147 L267 146 L271 142 L273 138 L271 136 L265 144 L259 147 L257 146 L258 143 L267 134 L267 130 L263 128 Z M320 124 L322 123 L323 125 L321 126 Z M310 131 L310 127 L312 123 L320 125 L318 128 L312 132 Z M192 125 L200 122 L202 131 L200 132 L194 128 Z M257 119 L259 118 L264 124 L263 125 L258 124 Z M254 118 L255 119 L255 130 L250 136 L246 130 L244 130 L243 128 Z M190 118 L192 115 L194 115 L198 119 L191 120 Z M326 115 L323 119 L320 120 L313 119 L315 116 L318 116 L321 114 Z M256 114 L258 115 L257 118 L254 117 Z M195 111 L198 110 L199 112 L196 113 Z M306 103 L309 102 L310 105 L308 106 Z M312 106 L315 101 L319 103 L315 107 Z M202 105 L203 101 L207 102 L204 106 Z M189 100 L194 109 L187 116 L185 113 L185 104 Z M313 97 L315 96 L316 98 L314 99 Z M306 93 L308 99 L302 102 L306 108 L304 111 L302 111 L300 108 L298 108 L298 110 L300 113 L306 115 L307 118 L301 119 L296 115 L295 105 L299 98 L304 93 Z M206 93 L208 93 L212 97 L217 106 L216 115 L211 119 L204 118 L206 115 L212 113 L214 107 L212 107 L208 112 L204 111 L210 102 L209 99 L204 98 Z M195 90 L197 91 L197 96 L199 98 L197 101 L198 103 L197 105 L193 104 L194 99 L191 97 L191 95 Z M199 88 L203 91 L202 96 L200 95 L200 92 L198 90 Z M312 88 L315 87 L327 105 L326 112 L324 112 L323 110 L321 110 L318 113 L313 112 L315 109 L319 108 L321 102 L319 101 L318 97 L315 96 L315 92 L311 90 Z M261 87 L265 91 L264 96 L262 95 L262 92 L260 90 Z M252 87 L253 89 L249 93 L248 90 L250 87 Z M256 79 L260 82 L258 86 L253 85 Z M229 73 L232 73 L234 75 L234 78 L236 79 L234 83 L234 95 L237 101 L236 104 L229 98 L226 89 L226 83 Z M283 72 L286 81 L286 92 L284 98 L278 104 L276 104 L275 102 L279 94 L279 86 L277 79 L278 76 Z M256 58 L264 66 L265 70 L269 74 L275 85 L275 95 L273 99 L269 103 L262 105 L261 107 L259 107 L258 104 L266 100 L268 91 L267 87 L259 76 L257 71 L255 71 L254 76 L247 84 L245 89 L245 96 L246 99 L249 101 L249 103 L245 104 L238 95 L239 81 Z M270 57 L272 57 L275 62 L275 68 L272 71 L269 68 L268 62 L264 61 L265 59 L268 59 Z M257 31 L267 49 L268 54 L266 56 L261 57 L258 49 L255 48 L252 57 L249 59 L248 62 L244 62 L243 69 L240 71 L237 67 L238 61 L241 57 L247 58 L247 56 L244 53 L249 42 L252 40 L255 32 Z"/></svg>
