<svg xmlns="http://www.w3.org/2000/svg" width="512" height="512" viewBox="0 0 512 512" aria-hidden="true" focusable="false"><path fill="currentColor" fill-rule="evenodd" clip-rule="evenodd" d="M123 428 L119 429 L115 433 L114 440 L119 446 L122 448 L123 447 L125 448 L132 442 L133 437 L132 433 L128 429 Z M122 434 L125 434 L127 436 L127 439 L125 441 L122 441 L120 439 L120 436 Z M346 423 L344 423 L342 426 L340 426 L333 432 L319 435 L307 441 L303 446 L302 456 L304 456 L306 450 L312 444 L316 443 L317 441 L326 440 L335 437 L344 429 L346 426 Z M44 344 L45 352 L49 356 L52 356 L50 351 L51 342 L54 339 L64 338 L76 344 L81 352 L86 357 L88 357 L90 360 L97 361 L97 359 L88 352 L80 340 L78 340 L68 333 L55 333 L46 339 Z M44 309 L42 311 L42 317 L43 319 L47 320 L51 317 L51 310 Z M34 291 L34 296 L37 298 L40 298 L43 295 L43 292 L40 290 Z M462 238 L458 242 L459 251 L469 252 L473 247 L473 243 L468 238 Z M62 204 L46 220 L40 239 L40 261 L46 284 L57 305 L78 328 L92 338 L115 345 L113 341 L97 332 L87 321 L80 303 L81 287 L88 276 L102 274 L105 269 L112 266 L125 267 L135 274 L139 282 L139 291 L134 299 L124 300 L121 293 L125 292 L125 288 L115 281 L105 284 L99 290 L96 298 L99 318 L107 327 L115 332 L120 332 L118 328 L109 323 L103 314 L103 294 L109 288 L116 287 L115 298 L117 302 L124 307 L131 307 L143 298 L145 292 L143 276 L133 264 L116 259 L85 272 L76 284 L75 296 L71 296 L63 283 L58 264 L62 242 L74 229 L84 228 L90 234 L90 240 L86 244 L82 244 L81 240 L78 239 L76 244 L79 249 L87 250 L96 241 L96 233 L87 223 L77 222 L68 226 L58 237 L55 245 L54 270 L58 286 L76 307 L80 318 L77 320 L57 295 L46 265 L46 238 L52 221 L67 207 L67 204 Z M192 153 L191 156 L193 162 L193 177 L191 185 L186 195 L176 205 L166 210 L146 211 L138 209 L138 211 L149 215 L165 215 L170 214 L177 209 L179 209 L182 205 L186 203 L186 201 L190 198 L196 186 L197 181 L197 165 L195 157 Z M149 143 L136 143 L129 147 L130 149 L133 148 L134 150 L127 155 L123 163 L123 166 L125 168 L126 174 L133 180 L141 181 L151 176 L155 169 L154 160 L155 158 L158 159 L158 164 L161 164 L160 153 L155 147 Z M129 161 L131 160 L132 162 L130 163 Z M139 163 L140 160 L144 157 L149 160 L148 163 L143 164 Z M145 149 L147 148 L152 150 L155 155 L152 156 Z M134 148 L138 146 L143 146 L145 149 L135 150 Z M78 122 L75 125 L75 128 L77 131 L82 132 L85 129 L85 124 L83 122 Z M378 17 L369 37 L373 54 L363 68 L363 81 L357 81 L352 103 L359 125 L347 117 L345 110 L341 112 L337 153 L340 164 L353 179 L396 199 L420 224 L429 252 L427 308 L434 333 L434 362 L422 394 L407 411 L386 421 L387 436 L378 446 L369 450 L338 447 L325 472 L308 486 L290 491 L271 488 L260 469 L232 452 L227 429 L235 410 L282 375 L315 341 L303 365 L252 409 L244 430 L246 444 L252 450 L247 434 L253 415 L306 367 L322 333 L326 333 L314 371 L276 413 L264 438 L268 467 L278 478 L292 481 L279 475 L269 461 L269 434 L282 411 L321 368 L331 341 L332 323 L335 352 L331 369 L302 409 L323 391 L337 365 L339 321 L346 345 L343 373 L332 394 L313 413 L334 397 L345 379 L350 362 L346 319 L356 346 L355 374 L349 391 L331 411 L297 423 L276 442 L276 461 L290 473 L305 472 L313 458 L302 467 L288 466 L281 457 L285 440 L298 429 L329 420 L355 393 L361 376 L362 347 L352 310 L382 333 L393 351 L388 371 L376 362 L381 383 L371 382 L369 394 L358 410 L359 427 L368 437 L379 438 L375 431 L378 418 L415 385 L426 348 L416 312 L416 257 L404 231 L377 205 L319 185 L305 174 L326 176 L319 145 L305 127 L303 110 L276 89 L282 76 L296 72 L268 59 L229 64 L204 81 L185 103 L146 111 L118 123 L80 155 L79 165 L73 169 L69 159 L75 148 L97 134 L113 108 L133 103 L131 99 L116 100 L104 109 L90 134 L72 144 L64 155 L64 167 L79 181 L86 197 L125 225 L149 236 L150 268 L168 292 L188 298 L182 284 L186 258 L198 285 L213 301 L248 313 L244 287 L257 277 L248 258 L262 263 L268 272 L270 296 L257 316 L272 326 L287 320 L279 331 L267 337 L242 337 L203 316 L168 309 L144 316 L133 326 L125 358 L109 372 L93 372 L74 357 L61 355 L86 375 L110 378 L122 372 L132 356 L170 333 L196 334 L237 350 L267 350 L253 357 L173 351 L155 358 L118 392 L88 392 L114 398 L166 357 L194 354 L246 362 L282 350 L274 361 L254 369 L168 369 L120 409 L100 408 L76 381 L58 379 L70 384 L93 411 L114 416 L134 409 L159 381 L172 374 L211 374 L211 378 L190 382 L168 395 L156 408 L149 426 L150 446 L156 458 L175 472 L200 475 L204 480 L202 491 L213 490 L222 479 L219 464 L199 446 L202 434 L215 424 L221 427 L227 456 L258 476 L259 485 L249 486 L251 492 L295 496 L311 491 L327 479 L335 458 L343 451 L355 458 L351 468 L344 464 L344 470 L355 472 L361 456 L376 454 L391 441 L394 423 L413 414 L436 392 L449 371 L453 346 L467 329 L460 308 L461 331 L453 338 L447 305 L457 286 L464 293 L474 292 L478 275 L463 263 L435 271 L431 234 L413 206 L421 193 L424 208 L439 210 L449 199 L449 187 L455 185 L457 208 L439 234 L440 247 L447 255 L445 234 L463 206 L462 187 L450 162 L455 150 L444 150 L438 156 L438 163 L445 158 L448 180 L431 169 L415 170 L404 180 L403 191 L417 175 L434 176 L444 191 L436 205 L427 203 L431 192 L424 187 L416 190 L409 202 L382 179 L376 167 L376 153 L387 144 L390 173 L395 178 L396 164 L419 156 L429 143 L428 120 L421 121 L415 95 L408 95 L398 68 L393 67 L393 52 L381 36 Z M375 387 L377 386 L378 388 L376 389 Z M262 381 L265 378 L267 379 L264 382 Z M270 375 L271 377 L268 379 L267 377 Z M260 375 L243 384 L227 387 L195 399 L174 420 L172 441 L176 451 L183 456 L175 441 L175 429 L188 409 L217 394 L262 381 L232 405 L222 423 L220 419 L210 421 L207 419 L226 404 L207 414 L194 432 L194 449 L198 456 L213 465 L216 471 L214 481 L200 469 L175 466 L164 458 L157 448 L155 427 L161 412 L174 398 L202 385 Z M275 371 L277 370 L278 372 L276 373 Z M287 345 L288 347 L285 349 L284 347 Z M245 345 L246 344 L260 344 L261 346 L260 347 L246 347 Z M263 344 L266 343 L267 345 L264 346 Z M275 340 L278 346 L270 351 L269 345 L267 343 Z M297 340 L299 339 L300 342 L298 343 Z M291 328 L292 330 L285 339 L282 339 L281 336 L289 328 Z M300 322 L302 323 L302 326 L305 330 L306 335 L305 337 L302 337 L299 334 L299 323 Z M269 318 L272 317 L273 320 L271 321 Z M337 317 L339 316 L340 318 L338 319 Z M320 320 L317 325 L313 328 L310 328 L305 324 L306 322 L310 321 L315 316 Z M132 350 L134 336 L146 322 L156 317 L168 315 L183 316 L201 322 L217 332 L225 335 L226 337 L240 341 L245 344 L244 346 L234 345 L218 339 L212 335 L199 331 L194 331 L193 329 L174 328 L155 335 L146 345 L139 350 Z M320 312 L322 311 L323 314 L321 315 Z M269 310 L271 309 L273 312 L271 313 Z M350 308 L352 307 L353 309 L351 310 Z M299 305 L304 305 L311 312 L311 314 L307 319 L299 318 L298 312 Z M328 291 L329 292 L328 300 L322 307 L312 308 L309 305 L309 303 L311 302 L311 300 L314 298 L316 294 L320 294 Z M284 291 L285 298 L282 300 L281 295 L282 292 Z M311 290 L311 294 L306 300 L297 300 L296 297 L294 296 L294 292 L297 288 L308 287 Z M277 285 L280 286 L280 295 L278 300 L280 301 L281 306 L278 309 L272 307 L275 299 Z M276 276 L279 279 L278 282 L275 281 Z M281 271 L282 270 L295 270 L296 272 L294 273 L294 276 L290 280 L288 280 Z M463 269 L471 274 L471 276 L473 277 L473 284 L470 287 L466 288 L465 281 L458 280 L454 282 L445 292 L443 299 L443 315 L447 329 L447 336 L449 338 L449 346 L447 348 L445 365 L438 380 L436 381 L435 377 L437 376 L440 361 L440 336 L433 310 L433 293 L435 286 L443 275 L453 269 Z M331 268 L332 269 L332 280 L329 284 L324 288 L314 287 L313 284 L318 278 L321 277 L321 271 Z M315 269 L314 278 L308 284 L298 285 L294 282 L297 279 L300 269 L302 270 L311 270 L313 268 Z M281 266 L281 263 L284 259 L285 252 L288 254 L289 253 L292 254 L294 252 L299 253 L298 260 L295 264 L288 268 Z M182 248 L184 249 L186 256 L185 258 L182 256 L181 251 Z M328 246 L329 252 L331 253 L331 261 L326 266 L323 267 L320 264 L323 256 L323 247 Z M319 246 L320 254 L317 260 L311 265 L302 266 L300 263 L303 258 L303 250 L313 249 Z M161 247 L163 246 L164 249 L162 250 Z M155 246 L157 247 L156 255 L154 254 Z M169 244 L173 246 L175 249 L176 255 L178 257 L178 267 L176 269 L176 282 L178 283 L179 287 L178 291 L175 288 L170 286 L162 278 L155 264 L155 259 L159 258 L163 268 L166 270 L168 274 L170 274 L169 270 L163 261 L164 255 L167 255 L171 260 L173 259 L173 257 L170 255 L168 248 Z M323 241 L327 240 L328 242 L324 243 Z M188 238 L190 239 L193 246 L192 249 L190 248 L187 242 Z M263 239 L264 244 L261 250 L254 252 L246 248 L247 241 L253 241 L259 237 Z M194 233 L202 241 L206 249 L205 253 L202 252 L202 248 L196 242 L196 239 L193 236 Z M281 232 L284 235 L284 240 L280 247 L276 251 L268 252 L268 255 L276 255 L280 257 L280 260 L276 264 L273 264 L264 257 L262 253 L268 245 L268 239 L273 237 L279 232 Z M302 227 L304 229 L303 241 L300 243 L299 246 L290 250 L286 249 L285 246 L287 243 L287 234 L290 232 L294 232 L300 227 Z M258 220 L259 226 L257 232 L251 238 L246 240 L241 233 L243 230 L242 223 Z M202 220 L218 223 L230 229 L239 240 L241 258 L246 268 L250 271 L238 287 L239 306 L231 304 L217 296 L204 283 L197 271 L191 254 L192 251 L196 253 L197 261 L202 272 L206 269 L221 284 L229 286 L229 284 L213 272 L204 259 L207 258 L212 263 L216 258 L225 266 L230 268 L232 266 L217 255 L207 238 L197 228 L200 227 L213 235 L232 251 L234 249 L227 240 L201 222 Z M320 219 L323 227 L322 236 L316 243 L307 245 L306 241 L308 240 L308 228 L314 225 Z M217 215 L220 214 L221 217 L219 218 Z M280 212 L281 213 L280 225 L272 233 L263 234 L262 233 L263 229 L262 215 L263 214 L271 215 Z M202 210 L204 209 L205 212 L203 213 Z M299 206 L302 209 L302 216 L300 218 L300 221 L294 227 L285 228 L284 227 L285 210 L293 209 Z M240 204 L241 214 L239 219 L235 223 L231 223 L225 219 L224 210 L227 207 L232 207 L234 205 Z M313 202 L316 207 L317 214 L313 221 L305 223 L304 222 L305 206 Z M307 196 L310 197 L308 200 L305 199 Z M306 194 L308 193 L309 195 L307 196 Z M261 193 L263 197 L263 206 L261 210 L255 216 L246 217 L245 216 L246 208 L244 200 L247 197 L257 196 L258 194 Z M323 192 L359 203 L383 217 L402 239 L411 264 L410 312 L420 346 L416 368 L405 388 L374 414 L368 429 L364 425 L364 410 L384 390 L387 377 L398 367 L399 351 L393 337 L365 314 L350 294 L341 272 L336 245 L343 253 L358 295 L364 300 L349 256 L336 233 L358 254 L376 304 L396 328 L400 340 L403 337 L376 295 L361 251 L327 216 L353 228 L367 242 L382 278 L381 264 L373 244 L358 227 L328 209 L322 200 L361 217 L378 233 L386 247 L392 269 L394 305 L410 342 L409 359 L401 379 L411 363 L414 342 L399 307 L396 266 L387 239 L365 215 L323 196 Z M223 190 L226 195 L225 202 L218 210 L210 213 L209 212 L210 194 L220 192 Z M283 187 L285 195 L282 202 L277 208 L272 210 L267 210 L266 208 L268 203 L268 198 L264 189 L265 188 L275 188 L280 186 Z M102 185 L105 184 L110 191 L107 192 L103 188 Z M300 180 L303 185 L303 194 L296 203 L288 205 L287 204 L288 199 L287 186 L294 184 Z M242 176 L245 182 L245 190 L243 195 L234 202 L230 202 L227 184 L229 181 L234 181 L239 179 Z M92 175 L95 174 L100 179 L96 181 L92 178 Z M293 171 L296 174 L296 177 L288 181 L287 176 L289 173 Z M82 174 L84 169 L90 171 L87 175 Z M262 165 L266 178 L264 179 L263 184 L256 191 L250 192 L249 191 L250 188 L249 179 L247 178 L245 172 L247 169 L253 169 Z M222 164 L226 169 L226 179 L219 187 L212 190 L211 188 L213 187 L214 180 L213 169 Z M280 157 L285 165 L284 175 L278 182 L270 185 L268 165 L274 162 L278 157 Z M238 149 L243 153 L244 167 L237 175 L232 176 L225 159 L227 155 L229 155 Z M267 145 L272 147 L276 152 L275 155 L270 159 L265 158 L267 153 L266 148 Z M217 138 L222 145 L222 155 L217 162 L212 163 L207 147 L211 141 Z M256 137 L260 141 L262 147 L262 154 L261 157 L254 164 L250 166 L249 156 L247 155 L244 147 L249 143 L251 143 L253 139 Z M244 131 L247 131 L250 133 L250 137 L246 141 L241 140 L241 133 Z M422 128 L424 135 L423 143 L418 150 L413 152 L412 150 L414 148 L414 139 L412 138 L412 133 Z M361 129 L363 128 L364 130 L362 131 Z M347 126 L353 128 L356 131 L360 139 L357 146 L358 162 L364 175 L368 178 L367 180 L355 174 L345 160 L343 149 L341 148 L341 144 L344 139 L349 140 L349 137 L347 136 L346 133 Z M220 120 L229 122 L237 130 L238 135 L237 143 L230 150 L227 149 L225 141 L219 135 L220 131 L219 121 Z M389 119 L391 122 L404 131 L408 139 L408 148 L402 155 L394 156 L392 154 L391 149 L396 147 L396 143 L392 139 L386 138 L378 141 L374 145 L370 154 L370 164 L374 174 L372 176 L364 162 L363 157 L364 141 L374 128 Z M375 118 L377 117 L378 119 L376 120 Z M372 116 L375 115 L376 117 L373 118 Z M200 115 L211 118 L215 123 L216 130 L215 133 L210 138 L208 137 L207 132 L201 127 L201 121 L199 119 Z M151 116 L191 114 L205 137 L203 143 L187 132 L201 149 L207 165 L204 173 L208 179 L201 200 L182 219 L155 223 L173 227 L178 239 L129 220 L85 188 L87 183 L105 194 L113 193 L107 178 L87 164 L85 158 L120 129 Z M407 104 L411 104 L415 110 L414 113 L415 121 L414 124 L409 128 L407 128 L402 123 L403 119 L402 109 Z M388 103 L394 108 L393 114 L389 111 L386 113 L383 111 L383 109 Z M190 106 L213 81 L230 70 L256 64 L266 66 L267 69 L277 68 L280 71 L274 75 L270 89 L276 99 L290 105 L297 112 L300 130 L314 148 L316 167 L312 168 L295 161 L288 154 L291 152 L306 157 L305 153 L288 149 L275 142 L292 140 L303 144 L302 141 L279 135 L266 135 L261 131 L270 127 L292 129 L294 127 L283 123 L252 126 L246 122 L257 116 L282 114 L282 111 L260 111 L239 119 L231 115 L248 104 L268 100 L268 98 L248 100 L228 111 L217 111 L229 98 L253 86 L243 87 L228 94 L212 108 L206 104 L230 82 L245 76 L265 75 L265 73 L237 75 L215 87 L193 108 Z M378 41 L384 47 L388 55 L388 65 L384 75 L384 84 L385 86 L388 86 L388 81 L395 79 L402 88 L403 96 L401 102 L398 100 L395 102 L391 94 L387 92 L384 101 L381 103 L379 108 L376 110 L370 106 L368 108 L366 117 L363 118 L358 109 L358 101 L360 99 L363 89 L370 94 L372 99 L375 98 L374 90 L368 82 L368 71 L372 65 L374 67 L380 67 L380 52 L375 43 L376 41 Z"/></svg>
