<svg xmlns="http://www.w3.org/2000/svg" width="512" height="512" viewBox="0 0 512 512" aria-hidden="true" focusable="false"><path fill="currentColor" fill-rule="evenodd" clip-rule="evenodd" d="M180 368 L179 383 L192 393 L194 393 L182 368 Z M157 337 L156 359 L171 376 L172 370 L170 368 L169 355 L164 349 L159 337 Z M161 352 L164 354 L166 358 L165 361 L159 356 Z M155 308 L143 319 L137 319 L142 350 L144 350 L146 340 L151 329 L156 311 Z M148 320 L149 321 L148 325 L146 327 L146 330 L144 331 L142 329 L142 324 Z M110 267 L111 290 L109 305 L103 308 L117 324 L126 337 L129 339 L130 337 L126 328 L123 313 L127 312 L130 309 L121 290 L120 284 L112 267 Z M115 287 L118 290 L123 304 L122 307 L118 308 L118 312 L120 316 L119 319 L112 312 Z M144 200 L140 234 L146 235 L162 251 L153 220 L145 200 Z M146 217 L149 220 L151 229 L153 232 L152 235 L144 231 Z M91 152 L91 155 L96 165 L96 168 L99 173 L103 186 L105 188 L108 199 L110 199 L114 195 L116 196 L132 226 L133 223 L129 201 L127 199 L128 196 L126 194 L124 179 L121 180 L117 179 L108 170 L108 168 L97 158 L97 156 L93 152 Z M103 170 L121 187 L123 195 L122 197 L120 196 L117 190 L111 191 L109 189 L102 172 Z M268 132 L261 158 L244 186 L236 185 L226 212 L229 233 L244 246 L246 258 L226 239 L219 226 L210 221 L208 224 L210 248 L223 269 L234 278 L246 279 L258 297 L259 289 L246 273 L252 272 L261 288 L261 278 L267 284 L267 277 L247 248 L261 248 L270 261 L276 249 L291 247 L290 254 L281 259 L271 275 L268 294 L278 270 L288 261 L295 264 L294 268 L285 267 L276 280 L275 288 L287 271 L292 273 L283 282 L280 297 L292 279 L307 277 L314 271 L328 248 L330 222 L315 230 L312 240 L304 243 L292 261 L294 245 L310 231 L312 213 L303 185 L296 188 Z M313 263 L312 267 L305 274 L296 275 L294 273 L295 271 L299 269 L299 265 L296 264 L295 262 L301 256 L305 257 L303 262 Z M225 263 L234 262 L233 256 L236 255 L242 262 L248 264 L249 261 L253 262 L260 269 L263 276 L261 277 L253 267 L245 269 L242 267 L241 264 L238 265 L238 267 L244 273 L242 275 L234 274 L226 267 Z M216 230 L221 234 L224 245 L230 245 L236 251 L235 253 L230 252 L226 253 L226 255 L230 256 L229 259 L225 259 L217 254 L215 245 L213 243 L215 240 Z M324 230 L324 249 L318 257 L310 259 L308 256 L312 255 L312 253 L310 252 L303 253 L302 251 L308 245 L314 244 L317 234 L321 229 Z M268 213 L270 213 L273 218 L276 220 L281 230 L281 237 L279 241 L272 247 L264 246 L258 240 L257 236 L259 226 Z M268 185 L271 186 L273 192 L275 193 L275 195 L278 197 L284 206 L284 208 L287 211 L292 221 L292 232 L286 241 L284 240 L285 235 L284 227 L281 221 L272 210 L270 204 L268 204 L265 211 L256 223 L256 226 L254 227 L253 241 L249 238 L246 232 L245 226 L248 216 L255 206 L255 204 L259 201 L259 199 L265 192 Z M268 150 L271 151 L275 162 L286 178 L285 187 L289 185 L292 188 L292 199 L300 192 L308 212 L307 228 L295 241 L293 240 L296 231 L295 218 L277 191 L272 181 L270 171 L268 171 L266 181 L261 191 L243 218 L242 231 L245 238 L244 241 L235 235 L230 225 L230 212 L238 193 L240 192 L244 199 L246 199 L246 189 L249 185 L253 187 L252 178 Z M268 17 L258 61 L247 75 L252 90 L237 106 L230 99 L212 135 L207 131 L189 151 L165 157 L168 217 L183 275 L196 303 L155 260 L129 243 L104 234 L108 226 L66 231 L96 256 L101 248 L124 259 L157 286 L181 323 L191 364 L186 325 L160 283 L126 256 L95 241 L89 245 L76 232 L95 230 L95 235 L122 244 L153 263 L194 310 L213 350 L218 372 L219 359 L207 322 L239 372 L231 384 L190 406 L144 361 L149 381 L145 392 L136 391 L133 383 L139 378 L137 365 L119 352 L116 338 L98 317 L99 363 L114 376 L108 380 L96 373 L109 411 L134 429 L159 430 L147 437 L134 435 L140 445 L178 460 L198 456 L202 468 L217 477 L239 469 L249 473 L270 496 L288 473 L300 469 L320 477 L336 467 L340 456 L359 460 L400 443 L404 436 L399 434 L419 415 L434 380 L423 381 L409 391 L399 389 L400 371 L417 378 L438 365 L447 322 L427 331 L443 315 L445 283 L438 285 L439 261 L426 243 L426 231 L413 241 L416 211 L401 187 L400 169 L393 187 L396 210 L390 209 L385 220 L387 228 L380 238 L378 261 L388 275 L401 275 L402 280 L366 316 L358 330 L353 320 L345 336 L346 361 L366 381 L354 407 L345 410 L352 389 L347 372 L333 359 L292 337 L292 328 L301 321 L365 298 L364 293 L347 288 L369 221 L373 157 L343 147 L312 114 L308 100 L303 105 L287 91 L291 76 Z M253 467 L255 465 L258 465 L259 469 L268 479 L270 479 L271 476 L277 471 L280 465 L282 465 L285 468 L285 471 L279 479 L275 481 L268 488 L254 474 Z M265 458 L273 458 L277 464 L270 473 L268 473 L262 466 L262 461 Z M276 456 L277 455 L288 455 L294 459 L296 466 L292 469 L289 469 L286 463 L280 462 Z M261 456 L259 461 L252 463 L248 469 L241 466 L243 460 L249 455 L260 455 Z M315 451 L317 450 L318 452 L316 453 Z M293 453 L293 451 L297 447 L303 445 L309 445 L316 449 L315 451 L312 450 L304 451 L301 454 L299 460 Z M221 450 L226 446 L234 445 L240 447 L245 453 L239 458 L231 450 L226 450 L223 452 Z M303 465 L303 458 L307 454 L311 454 L314 459 L312 462 L314 464 L317 464 L321 461 L323 453 L316 444 L306 441 L308 438 L311 438 L316 435 L331 436 L345 443 L359 442 L367 450 L367 452 L362 455 L347 455 L334 448 L335 459 L333 464 L326 471 L321 473 L312 473 L307 471 Z M268 435 L272 438 L276 444 L276 451 L271 455 L264 454 L261 449 L262 443 Z M236 463 L233 469 L229 472 L216 473 L210 470 L203 461 L202 453 L204 447 L190 455 L176 455 L171 453 L170 450 L177 445 L179 441 L188 444 L196 442 L210 435 L222 435 L229 438 L231 441 L223 443 L217 448 L215 453 L217 462 L220 464 L226 463 L226 461 L224 460 L224 456 L226 454 L230 454 L233 456 Z M328 430 L329 429 L346 430 L359 434 L366 434 L367 437 L372 439 L392 441 L393 443 L382 448 L373 448 L367 446 L359 438 L356 438 L353 440 L344 439 L335 433 L329 432 Z M298 425 L299 427 L295 443 L291 448 L282 452 L281 442 L284 438 L285 431 L291 426 Z M240 425 L246 426 L253 430 L253 437 L258 443 L257 452 L251 451 L243 444 L240 436 L239 429 Z M216 429 L230 422 L236 429 L237 437 L235 438 L228 433 L217 431 Z M268 417 L279 427 L281 431 L281 437 L279 440 L272 434 L270 428 L267 429 L266 433 L261 439 L259 439 L256 435 L259 427 Z M388 422 L386 426 L379 430 L364 431 L357 429 L358 427 L377 419 L380 415 Z M423 386 L424 389 L422 393 L422 398 L418 409 L412 419 L402 428 L392 433 L381 435 L380 433 L392 425 L393 422 L392 417 L387 418 L385 416 L385 413 L388 409 L393 408 L397 410 L399 413 L398 422 L401 421 L402 418 L401 409 L398 406 L391 404 L395 396 L399 393 L403 393 L406 395 L406 398 L409 401 L412 394 L418 388 Z M154 377 L156 378 L161 387 L174 392 L182 399 L186 407 L186 409 L182 413 L179 413 L173 406 L169 404 L157 405 L153 401 L150 391 L151 384 Z M408 348 L412 353 L412 359 L409 361 L406 359 L402 359 L398 363 L396 368 L396 381 L393 393 L386 405 L376 415 L372 417 L371 414 L379 404 L384 390 L385 366 L388 357 L397 348 L400 347 Z M106 332 L114 343 L116 357 L121 357 L128 361 L135 370 L135 377 L130 381 L130 388 L134 396 L147 398 L155 409 L157 417 L157 413 L161 408 L167 407 L171 409 L175 414 L175 418 L171 422 L157 427 L141 427 L131 423 L126 418 L125 412 L129 407 L135 407 L137 409 L136 415 L139 415 L141 409 L135 403 L127 404 L122 410 L121 417 L114 412 L105 396 L103 383 L105 382 L118 388 L117 375 L112 370 L109 370 L102 360 Z M226 319 L228 318 L230 322 L228 323 Z M202 317 L204 316 L205 318 L203 319 Z M282 305 L280 310 L263 317 L252 331 L253 341 L285 367 L286 375 L279 387 L197 438 L185 440 L179 437 L166 448 L146 444 L147 440 L161 435 L195 407 L228 390 L240 380 L240 364 L225 348 L227 331 L240 319 Z M195 305 L197 304 L198 306 L196 307 Z M357 294 L358 298 L326 307 L292 322 L287 330 L292 343 L330 362 L346 378 L347 397 L335 416 L303 438 L302 430 L306 422 L282 426 L270 409 L255 427 L246 422 L234 422 L234 419 L274 397 L289 379 L287 362 L256 339 L260 324 L289 309 Z M400 194 L413 216 L409 231 L412 247 L421 257 L419 245 L422 243 L436 265 L434 286 L420 304 L440 293 L439 315 L423 328 L423 341 L440 333 L439 354 L435 362 L419 374 L413 374 L405 367 L406 363 L411 364 L416 359 L414 349 L407 344 L393 346 L380 361 L381 337 L389 326 L402 321 L403 308 L412 299 L418 284 L414 264 L399 257 L394 262 L395 267 L398 268 L400 261 L407 262 L413 270 L414 284 L399 308 L398 317 L385 325 L376 339 L375 357 L381 373 L378 397 L364 417 L349 425 L333 426 L337 419 L354 412 L369 390 L368 374 L349 358 L350 334 L362 349 L361 333 L365 323 L405 283 L404 268 L397 273 L389 271 L381 256 L386 235 L396 239 L390 218 L392 215 L397 218 Z M314 155 L318 155 L330 162 L332 165 L342 169 L357 172 L356 203 L348 246 L344 259 L341 263 L336 278 L327 296 L325 296 L324 294 L334 275 L343 249 L343 245 L345 243 L347 236 L353 199 L354 174 L348 174 L337 171 L326 165 L323 162 L319 161 L318 159 L313 157 Z M222 155 L225 155 L226 157 L220 159 L213 165 L195 173 L184 174 L184 186 L188 223 L190 233 L192 235 L195 251 L206 282 L220 307 L225 313 L225 315 L227 316 L226 319 L223 317 L211 299 L201 278 L193 256 L193 253 L191 251 L185 225 L181 192 L181 172 L182 171 L188 171 L202 167 L216 157 Z M270 112 L301 142 L303 161 L313 161 L350 178 L347 216 L335 262 L318 297 L268 304 L233 318 L203 264 L192 223 L188 178 L225 161 L235 161 L235 145 Z M227 146 L230 138 L260 108 L262 108 L262 106 L265 105 L265 103 L268 100 L270 100 L308 138 L311 146 L311 152 L310 153 L308 152 L307 144 L301 136 L270 106 L268 106 L236 137 L232 142 L229 153 L227 152 Z M270 80 L296 102 L301 119 L306 111 L323 134 L325 150 L330 139 L347 154 L369 161 L365 221 L344 288 L339 295 L334 295 L333 291 L345 267 L355 232 L361 168 L341 165 L316 152 L310 134 L269 94 L228 135 L222 152 L197 165 L177 168 L179 210 L187 250 L204 294 L225 326 L221 333 L204 310 L184 266 L170 203 L169 161 L191 154 L208 139 L214 149 L220 125 L232 111 L236 113 L237 121 L242 103 Z M269 38 L271 39 L272 45 L276 53 L278 54 L276 62 L273 64 L273 66 L275 67 L278 75 L281 75 L283 71 L287 75 L287 82 L282 87 L274 80 L270 69 L268 69 L268 72 L264 80 L257 87 L251 82 L252 73 L256 71 L259 75 L261 75 L262 67 L265 66 L265 64 L261 59 L261 54 Z"/></svg>
