<svg xmlns="http://www.w3.org/2000/svg" width="512" height="512" viewBox="0 0 512 512" aria-hidden="true" focusable="false"><path fill="currentColor" fill-rule="evenodd" clip-rule="evenodd" d="M250 17 L245 41 L228 72 L178 130 L168 154 L168 171 L148 180 L131 200 L120 237 L125 265 L101 261 L107 275 L110 307 L120 325 L142 340 L151 339 L152 329 L134 311 L145 307 L145 315 L153 316 L162 299 L147 252 L148 226 L167 200 L194 193 L190 170 L196 150 L252 83 L300 139 L309 162 L315 162 L305 134 L251 71 L195 139 L185 163 L186 187 L161 196 L146 214 L140 233 L141 251 L155 292 L155 302 L151 301 L129 259 L131 215 L154 183 L162 179 L174 184 L178 181 L173 160 L180 140 L238 69 L252 39 L268 70 L330 148 L327 159 L271 182 L222 230 L220 239 L229 248 L251 244 L274 225 L279 237 L265 239 L239 277 L216 295 L212 294 L228 269 L228 260 L218 250 L179 287 L163 309 L150 359 L134 368 L126 388 L85 432 L89 434 L139 383 L147 384 L168 401 L174 415 L142 471 L148 469 L168 438 L169 447 L182 448 L204 467 L224 465 L231 477 L255 495 L281 465 L300 467 L323 448 L337 446 L334 437 L320 429 L299 432 L302 412 L283 413 L255 367 L250 367 L232 392 L222 413 L203 412 L206 432 L185 429 L170 439 L169 434 L175 425 L190 417 L194 398 L208 383 L259 355 L281 335 L287 321 L318 302 L339 275 L357 233 L359 255 L345 302 L356 317 L361 316 L361 305 L373 312 L362 324 L326 342 L304 360 L292 377 L284 403 L290 404 L294 387 L314 359 L372 323 L379 303 L367 302 L365 294 L372 285 L378 285 L382 275 L395 268 L392 303 L382 322 L363 339 L318 365 L302 387 L297 403 L302 404 L310 385 L326 367 L371 341 L391 320 L399 302 L406 261 L383 265 L386 229 L379 211 L375 213 L380 240 L375 268 L354 304 L352 291 L366 254 L363 219 L372 208 L384 205 L409 187 L405 179 L418 170 L425 156 L419 148 L428 129 L423 107 L428 97 L428 56 L424 54 L405 74 L401 87 L373 97 L361 110 L356 126 L350 116 L345 117 L332 145 L323 125 L269 59 L256 18 Z M231 461 L235 454 L240 452 L245 452 L249 455 L249 463 L255 464 L256 455 L260 452 L268 453 L272 457 L273 467 L269 472 L257 478 L252 484 L249 479 L238 474 L232 468 Z M325 439 L323 442 L318 443 L301 459 L294 462 L285 461 L277 454 L278 452 L287 449 L295 449 L296 445 L294 442 L304 436 L315 435 L323 437 Z M179 439 L184 436 L190 435 L201 436 L210 442 L208 446 L209 449 L218 449 L225 451 L228 454 L219 461 L210 462 L201 458 L188 444 L180 441 Z M292 417 L293 422 L291 433 L289 437 L280 445 L270 446 L269 443 L272 439 L272 430 L276 429 L283 420 L289 417 Z M213 417 L220 419 L225 423 L228 429 L233 430 L233 439 L236 443 L235 446 L228 446 L217 440 L212 426 Z M252 409 L262 419 L266 429 L266 435 L264 441 L259 446 L255 447 L253 450 L250 447 L246 446 L240 440 L239 436 L240 424 L242 420 Z M252 378 L262 388 L262 390 L270 399 L274 406 L275 419 L273 423 L270 422 L265 412 L259 407 L255 399 L252 399 L249 401 L246 407 L239 414 L233 423 L230 421 L230 410 L233 402 L250 382 Z M141 370 L144 369 L154 370 L163 376 L167 377 L179 389 L181 394 L184 396 L187 406 L185 414 L183 416 L180 415 L179 407 L177 402 L172 397 L172 395 L163 386 L161 386 L150 378 L139 376 L138 374 Z M112 268 L124 274 L128 279 L129 286 L130 287 L136 286 L138 290 L140 291 L140 293 L143 295 L143 298 L141 301 L139 302 L130 301 L127 304 L127 309 L130 318 L133 320 L133 322 L138 327 L140 327 L144 331 L143 333 L139 332 L132 327 L123 318 L119 312 L119 309 L114 299 L113 294 L113 281 L111 271 Z M276 244 L277 249 L267 259 L253 287 L230 312 L234 314 L255 294 L276 259 L273 276 L263 295 L240 322 L239 334 L250 341 L262 331 L277 329 L256 349 L206 376 L189 393 L173 374 L154 364 L160 351 L164 324 L174 303 L217 257 L221 259 L221 271 L200 301 L197 324 L191 335 L194 339 L204 324 L206 307 L233 291 L247 277 L263 250 Z M350 163 L366 179 L371 200 L354 221 L334 270 L306 304 L319 276 L315 272 L297 304 L277 319 L302 275 L298 271 L280 304 L247 334 L248 321 L279 278 L284 259 L284 226 L292 219 L267 221 L242 241 L229 241 L227 235 L276 187 L324 170 L338 159 Z M392 156 L393 155 L404 155 L416 157 L417 159 L407 171 L400 173 Z M338 148 L341 147 L352 148 L361 154 L363 154 L373 163 L382 178 L384 184 L384 195 L380 200 L378 199 L377 188 L375 182 L372 179 L370 173 L366 168 L353 157 L346 154 L337 153 L336 150 Z M346 127 L352 132 L353 139 L359 138 L365 140 L366 142 L374 146 L384 156 L388 164 L390 165 L393 173 L392 182 L399 186 L397 189 L395 190 L391 189 L384 168 L379 161 L368 150 L359 144 L343 139 L343 133 Z M396 113 L397 121 L399 122 L399 125 L397 126 L396 134 L390 142 L386 143 L383 146 L371 136 L371 131 L374 125 L381 118 L387 116 L388 114 Z M418 72 L422 89 L421 97 L416 100 L416 105 L421 119 L420 135 L416 143 L408 150 L405 150 L404 148 L395 148 L388 152 L386 149 L394 146 L403 134 L404 104 L399 104 L375 114 L369 121 L365 134 L361 132 L363 120 L371 107 L379 101 L391 95 L407 92 L411 88 L409 83 L410 79 Z"/></svg>
