<svg xmlns="http://www.w3.org/2000/svg" width="512" height="512" viewBox="0 0 512 512" aria-hidden="true" focusable="false"><path fill="currentColor" fill-rule="evenodd" clip-rule="evenodd" d="M393 409 L381 418 L369 424 L355 427 L355 428 L364 427 L373 424 L384 418 Z M118 408 L120 411 L132 420 L142 425 L159 429 L158 427 L153 427 L144 424 L130 417 Z M107 385 L96 390 L92 394 Z M404 384 L405 386 L420 394 L420 392 Z M394 384 L376 404 L367 411 L349 420 L361 416 L375 407 L387 395 Z M118 383 L124 393 L139 408 L154 417 L164 420 L162 418 L151 414 L138 405 Z M374 319 L372 319 L371 322 L366 325 L367 334 L370 334 L372 332 L377 334 L380 331 L381 327 L379 324 L374 322 Z M374 330 L376 329 L377 331 L375 332 Z M371 324 L374 325 L372 330 L370 329 Z M138 319 L138 322 L134 324 L131 327 L131 329 L133 330 L133 333 L135 334 L137 333 L144 334 L146 332 L146 324 L142 323 L141 320 Z M140 324 L142 325 L144 329 L143 332 L138 329 Z M225 308 L225 313 L223 315 L224 320 L221 323 L221 328 L224 331 L229 331 L231 329 L231 325 L227 323 L226 321 L230 318 L230 315 Z M223 327 L228 326 L229 328 L224 329 Z M289 307 L287 308 L287 310 L283 315 L286 320 L282 323 L282 328 L285 331 L289 331 L292 328 L292 325 L290 323 L291 320 L289 319 L290 315 L288 313 Z M290 326 L288 329 L284 328 L285 326 L288 325 Z M285 315 L287 314 L288 316 L286 317 Z M255 282 L256 289 L255 296 L253 298 L254 301 L251 303 L251 307 L248 310 L249 311 L255 310 L256 312 L248 316 L241 323 L237 331 L237 340 L239 345 L248 352 L252 352 L256 350 L265 352 L273 346 L276 340 L276 332 L274 327 L270 322 L265 319 L257 318 L253 320 L253 322 L263 321 L266 322 L272 328 L274 333 L274 338 L268 348 L261 350 L256 346 L257 344 L263 343 L267 337 L265 330 L259 326 L252 327 L248 330 L246 334 L246 337 L249 342 L248 345 L254 344 L255 345 L254 349 L249 350 L245 348 L241 344 L239 339 L239 332 L244 323 L256 314 L265 313 L264 310 L259 309 L263 305 L260 303 L261 300 L258 298 L259 296 L257 290 L258 283 Z M253 339 L258 338 L259 341 L255 343 Z M249 333 L254 329 L260 329 L264 334 L264 338 L261 340 L259 338 L259 334 L254 333 L253 334 L254 338 L250 340 Z M417 256 L416 258 L418 259 L418 256 Z M421 255 L421 257 L423 257 L423 255 Z M89 255 L90 257 L93 257 L95 259 L97 258 L96 256 L93 257 L92 255 Z M397 253 L395 254 L395 268 L391 276 L392 279 L388 283 L391 288 L390 292 L393 294 L388 296 L383 303 L385 320 L392 324 L392 329 L387 334 L382 333 L380 335 L382 338 L366 354 L367 364 L374 369 L384 367 L395 353 L407 367 L411 369 L420 368 L426 360 L425 352 L420 345 L426 342 L434 332 L433 321 L425 315 L414 317 L408 325 L416 334 L419 333 L419 328 L423 325 L425 326 L424 334 L427 333 L428 327 L433 328 L429 337 L420 343 L409 337 L410 333 L407 332 L407 329 L403 332 L398 327 L401 323 L405 323 L404 319 L409 311 L409 303 L405 297 L396 292 L397 290 L401 292 L404 290 L401 287 L401 277 L398 275 Z M371 364 L373 361 L377 361 L382 366 L373 367 Z M405 356 L407 356 L408 360 L412 363 L411 366 L409 366 L403 360 Z M367 357 L368 356 L371 357 L373 361 L369 363 Z M376 354 L377 353 L380 354 L383 358 L382 359 L377 358 Z M411 353 L413 352 L416 357 L414 358 Z M404 336 L414 343 L422 351 L424 355 L423 363 L418 367 L414 366 L414 362 L418 358 L417 355 L418 351 L410 351 L405 356 L401 356 L397 351 Z M401 333 L399 337 L401 340 L398 344 L389 342 L391 345 L390 349 L393 348 L394 351 L390 356 L387 356 L388 360 L384 364 L382 362 L384 360 L385 351 L380 352 L374 351 L371 356 L368 355 L370 350 L382 340 L386 342 L390 338 L390 334 L393 331 L395 332 L399 331 Z M416 326 L418 325 L419 327 L417 328 Z M415 320 L416 323 L413 326 L411 326 L410 324 Z M417 318 L423 317 L424 320 L427 318 L431 322 L432 325 L427 326 L424 323 L420 324 L417 322 Z M395 305 L397 304 L399 307 L397 308 Z M392 296 L399 297 L398 302 L394 302 L391 304 L393 313 L397 313 L401 309 L400 301 L402 298 L407 303 L407 312 L397 325 L391 321 L384 309 L386 301 Z M397 285 L399 284 L400 286 L398 287 Z M116 252 L115 268 L112 274 L116 278 L110 281 L109 289 L115 288 L116 290 L103 303 L104 314 L114 327 L108 332 L98 317 L87 315 L80 320 L78 332 L82 339 L92 345 L86 356 L87 362 L92 368 L101 369 L105 367 L117 353 L128 367 L139 369 L146 362 L146 353 L132 339 L129 332 L125 334 L120 329 L120 324 L127 316 L130 306 L127 299 L120 294 L124 289 L121 287 L122 283 L117 281 L121 277 L117 275 L120 272 L117 267 Z M127 362 L129 361 L131 364 L129 365 Z M145 359 L144 362 L139 367 L133 366 L132 363 L133 360 L138 361 L140 358 Z M98 352 L102 354 L101 359 L99 358 L97 354 Z M138 347 L144 353 L144 355 L141 357 L137 355 L139 353 L139 351 L137 350 Z M130 340 L137 347 L135 351 L130 351 L128 353 L129 357 L128 361 L126 362 L118 350 L124 342 L128 342 Z M108 336 L115 348 L115 351 L109 360 L103 366 L100 365 L100 362 L104 359 L104 353 L102 351 L96 351 L94 353 L95 360 L94 363 L97 362 L98 366 L94 367 L90 364 L88 359 L91 357 L89 357 L88 355 L93 347 Z M112 332 L115 334 L116 332 L119 331 L123 334 L122 336 L123 341 L120 345 L113 343 L110 337 L110 334 Z M92 330 L93 327 L96 328 L94 331 Z M81 323 L85 324 L86 329 L84 333 L80 332 L79 327 Z M87 317 L95 317 L102 324 L107 333 L96 343 L90 342 L84 338 L85 335 L89 334 L91 331 L95 334 L98 332 L97 327 L98 324 L96 323 L85 324 L83 320 Z M115 309 L117 308 L118 310 L116 311 Z M114 296 L120 296 L124 300 L121 303 L113 302 L111 304 L112 312 L118 313 L121 310 L120 305 L122 302 L126 301 L128 305 L125 316 L117 325 L115 325 L108 317 L109 313 L105 312 L106 301 L110 297 L113 299 Z M116 292 L118 291 L119 293 L117 294 Z M396 236 L394 237 L393 241 L397 243 L399 241 L399 238 Z M395 239 L397 238 L398 240 L396 241 Z M116 236 L114 237 L113 240 L114 242 L117 243 L120 239 L119 237 Z M115 239 L117 238 L118 240 L116 241 Z M398 214 L385 219 L374 226 Z M115 214 L139 226 L132 221 Z M252 207 L238 216 L219 214 L219 239 L207 239 L192 221 L175 221 L161 240 L141 246 L135 259 L158 327 L177 348 L202 361 L208 370 L196 376 L186 369 L182 393 L163 388 L171 404 L189 418 L187 423 L207 431 L238 426 L255 445 L256 454 L245 448 L221 453 L219 443 L228 445 L234 436 L205 442 L168 431 L158 436 L157 445 L169 448 L171 443 L165 434 L213 443 L224 456 L246 450 L255 456 L251 461 L246 461 L244 455 L242 459 L253 465 L248 474 L254 479 L257 496 L265 470 L259 465 L271 459 L269 455 L262 461 L258 456 L267 450 L289 456 L300 443 L344 433 L355 441 L344 440 L345 449 L356 444 L355 436 L345 431 L297 443 L278 435 L285 445 L294 443 L292 453 L270 448 L257 451 L275 426 L282 432 L312 429 L327 422 L324 418 L343 402 L350 388 L329 393 L327 369 L315 377 L305 370 L311 361 L336 348 L356 325 L378 253 L372 246 L352 240 L348 229 L335 220 L323 220 L313 226 L306 239 L293 240 L297 226 L294 214 L274 216 L264 208 Z M258 473 L260 472 L261 474 L259 475 Z M251 473 L253 472 L254 474 L252 475 Z M255 469 L257 468 L258 470 L256 471 Z M256 459 L259 461 L258 464 L254 463 Z M344 443 L347 441 L352 446 L348 448 L344 445 Z M255 440 L257 439 L258 441 L256 442 Z M161 436 L165 439 L164 442 L167 441 L169 443 L167 447 L162 447 L159 444 L160 442 L159 438 Z M262 432 L263 436 L259 438 L257 435 Z M248 434 L252 432 L255 435 L255 437 L252 438 Z M249 425 L254 424 L257 427 L258 424 L263 424 L264 427 L259 432 L255 433 L249 427 Z M269 423 L270 425 L268 427 L270 427 L271 429 L266 434 L264 431 L265 424 Z M243 423 L248 424 L249 431 L246 433 L242 429 Z M234 423 L233 425 L222 429 L220 428 L221 424 L230 422 Z M279 424 L280 422 L294 424 L292 422 L293 418 L296 418 L308 423 L312 419 L317 421 L317 423 L312 426 L300 429 L291 429 Z M284 420 L289 418 L290 422 L288 423 L285 422 Z M245 418 L249 417 L251 420 L248 421 Z M195 423 L196 420 L204 417 L207 418 L206 422 L217 418 L226 418 L228 420 L227 422 L220 423 L218 429 L203 427 L200 425 L200 422 L198 424 Z M300 417 L304 416 L305 419 L303 420 Z M208 419 L209 416 L213 417 L210 420 Z M232 416 L234 415 L237 418 L234 419 Z M205 413 L204 415 L199 417 L197 416 L199 413 L202 412 Z M212 410 L214 409 L216 412 L214 413 Z M319 400 L320 402 L316 405 L315 402 Z M193 401 L197 400 L199 405 L198 406 L195 405 Z M256 396 L261 401 L264 407 L264 413 L260 418 L258 417 L259 414 L257 410 L255 412 L254 418 L249 413 L250 405 Z M343 395 L338 404 L330 412 L325 415 L314 417 L308 414 L309 412 L321 411 L321 410 L318 411 L317 409 L322 405 L325 407 L325 404 L328 403 L325 401 L327 397 L341 394 Z M170 395 L171 394 L177 395 L178 398 L180 398 L181 396 L186 397 L188 401 L185 402 L185 406 L186 407 L188 405 L193 406 L196 409 L194 411 L196 415 L191 416 L184 413 L176 406 Z M235 389 L239 392 L238 396 L240 397 L236 407 L237 413 L235 414 L231 411 L230 415 L228 416 L221 409 L219 399 L221 395 L224 395 L225 401 L226 401 L226 396 L228 395 L227 392 L230 390 L232 394 L232 391 Z M218 389 L219 391 L217 395 L217 407 L215 408 L211 404 L212 408 L209 410 L203 403 L202 393 L205 392 L207 394 L208 392 L213 391 L214 389 Z M254 385 L256 386 L259 385 L269 396 L273 403 L273 406 L271 407 L271 411 L273 412 L273 414 L270 418 L265 416 L265 405 L258 395 L257 390 L248 405 L248 414 L244 418 L240 414 L239 411 L240 403 L246 393 Z M272 384 L274 386 L274 389 L271 392 L269 392 L268 387 Z M242 384 L244 387 L240 390 L238 387 Z M287 383 L291 390 L291 392 L288 393 L287 390 L285 389 L287 401 L288 401 L288 395 L292 394 L293 395 L293 406 L288 414 L284 417 L277 419 L276 417 L282 411 L278 414 L276 413 L277 411 L276 403 L272 395 L277 389 L280 388 L282 390 L281 387 Z M232 387 L229 390 L226 389 L225 392 L222 391 L226 383 Z M313 382 L316 384 L315 387 L320 383 L323 389 L325 390 L325 394 L322 399 L319 399 L318 397 L316 399 L314 398 L314 391 L312 387 Z M304 382 L307 383 L310 387 L311 394 L308 395 L306 393 L306 387 L304 386 L306 396 L310 396 L311 400 L309 405 L303 411 L298 413 L297 411 L299 408 L297 409 L295 408 L296 396 L294 390 L296 389 L301 391 L302 389 L300 388 L299 385 Z M255 383 L257 382 L258 384 L256 385 Z M214 385 L210 391 L208 390 L209 386 L207 387 L206 391 L203 390 L203 387 L206 383 L210 382 Z M196 381 L198 380 L201 383 L201 385 L198 386 L196 384 Z M299 378 L301 377 L302 379 L300 380 Z M200 378 L202 377 L203 379 L201 380 Z M316 379 L323 376 L325 383 L323 384 L321 381 L317 381 Z M190 376 L195 378 L194 380 L191 380 L191 388 L192 388 L193 383 L199 388 L199 398 L198 399 L196 398 L195 395 L193 396 L188 395 L187 386 Z M284 381 L281 384 L278 383 L275 384 L273 380 L271 380 L269 384 L265 387 L260 382 L258 377 L264 376 L267 379 L268 376 L282 375 Z M229 381 L231 375 L244 376 L245 379 L248 379 L249 376 L255 377 L252 383 L248 387 L244 384 L242 380 L234 384 L232 384 Z M218 379 L221 374 L226 374 L229 376 L228 379 L224 377 L222 382 L220 382 Z M210 375 L212 374 L214 378 L211 379 Z M296 373 L297 374 L296 378 L292 383 L290 382 L289 377 L287 377 L286 379 L284 378 L284 376 L287 374 Z M299 372 L301 371 L303 374 L301 375 Z M252 372 L256 371 L257 374 L253 375 Z M224 370 L231 369 L238 371 L250 371 L251 374 L250 375 L239 375 L225 373 Z M303 366 L301 369 L287 373 L272 375 L259 375 L258 374 L259 371 L273 371 L293 368 L300 365 Z M210 366 L212 365 L222 368 L223 371 L221 372 L214 370 Z M258 365 L260 364 L261 367 L259 368 Z M250 366 L253 364 L255 367 L251 368 Z M264 364 L268 363 L269 367 L265 368 Z M241 365 L247 363 L248 367 L242 368 Z M230 364 L238 363 L239 366 L231 367 Z M285 363 L284 366 L280 367 L274 366 L276 363 L281 362 Z M226 361 L228 360 L229 362 L227 363 Z M256 359 L259 361 L258 365 L254 363 Z M216 357 L218 356 L221 359 L219 360 Z M309 356 L308 358 L301 361 L299 360 L302 357 L307 355 Z M299 356 L298 358 L292 361 L289 360 L290 358 L297 355 Z M202 355 L204 354 L213 358 L214 360 L211 361 L204 358 Z M216 352 L218 351 L219 353 L217 354 Z M198 349 L201 348 L213 354 L214 356 L212 357 L199 351 Z M186 349 L188 348 L189 350 L187 351 Z M289 346 L290 353 L289 354 L286 353 L279 360 L278 358 Z M224 346 L231 354 L230 357 L227 354 L225 355 L223 354 L222 348 Z M331 346 L329 349 L324 352 L322 351 L324 348 L329 345 Z M322 346 L314 354 L311 352 L303 356 L301 355 L303 352 L319 345 Z M206 345 L208 344 L210 347 L207 348 Z M190 345 L191 344 L194 345 L195 348 L193 349 Z M180 345 L182 344 L186 348 L184 349 Z M301 343 L302 346 L300 350 L298 351 L297 350 L298 344 Z M303 333 L306 336 L304 340 L300 342 L299 338 L301 334 Z M186 333 L191 338 L188 342 L184 338 Z M173 333 L175 332 L182 341 L180 342 L176 338 L173 340 L172 339 Z M330 331 L332 333 L331 336 L329 338 L326 337 L326 339 L322 341 L321 339 L323 336 Z M208 331 L213 336 L216 349 L215 351 L212 349 L210 341 L206 335 Z M315 328 L316 329 L315 338 L310 339 L311 345 L304 348 L303 346 L305 339 Z M198 328 L208 340 L207 343 L204 343 L202 340 L198 339 L197 335 Z M192 328 L196 329 L195 338 L192 336 L191 333 Z M350 327 L345 334 L342 334 L333 342 L330 341 L339 331 L348 326 Z M337 325 L338 326 L337 329 L333 331 L332 329 Z M162 326 L164 325 L170 329 L171 332 L168 334 Z M202 324 L206 327 L204 331 L200 328 Z M334 321 L335 324 L332 326 L331 323 Z M174 321 L176 322 L178 327 L183 331 L182 333 L179 333 L173 324 Z M198 316 L200 320 L197 322 L196 326 L193 326 L192 325 L193 320 L196 316 Z M315 315 L318 317 L322 327 L321 335 L319 338 L317 337 L316 322 L311 330 L307 328 L312 322 Z M181 314 L183 314 L185 317 L186 321 L185 327 L183 326 L183 322 L180 317 Z M340 312 L341 320 L337 321 L334 317 Z M173 312 L181 321 L180 325 L175 320 L172 319 Z M357 314 L356 316 L353 315 L355 317 L353 320 L348 319 L352 311 Z M335 310 L336 313 L332 317 L330 324 L328 325 L327 320 L329 314 L333 310 Z M155 313 L160 310 L164 317 L162 318 L160 316 L158 318 Z M354 309 L356 308 L357 310 L355 311 Z M178 308 L181 311 L179 314 L175 311 Z M168 308 L171 309 L170 314 L171 320 L170 321 L167 318 Z M360 304 L361 305 L360 308 L357 309 L356 307 Z M152 305 L154 304 L157 308 L154 309 Z M338 303 L345 304 L346 317 L344 320 L342 319 L341 306 L339 308 L336 307 Z M339 300 L342 299 L343 301 L340 302 Z M171 299 L174 300 L176 304 L175 307 L168 306 Z M175 283 L180 282 L211 287 L242 287 L243 289 L241 290 L240 293 L214 292 L176 286 Z M145 274 L148 273 L156 277 L173 281 L174 284 L170 285 L154 280 L146 276 Z M316 271 L318 270 L319 272 L317 273 Z M311 271 L313 270 L314 272 L312 273 Z M197 269 L199 268 L200 270 L198 271 Z M318 266 L320 265 L321 267 L319 268 Z M293 270 L294 267 L298 265 L304 267 L306 265 L310 265 L312 267 L307 272 L303 270 L302 273 L296 272 Z M222 266 L224 265 L229 269 L238 272 L239 271 L236 270 L237 266 L244 268 L246 271 L242 273 L245 273 L246 275 L245 276 L226 276 L223 272 Z M146 269 L148 265 L152 266 L150 270 Z M218 264 L220 271 L214 273 L212 267 Z M334 264 L334 266 L331 269 L328 269 L324 272 L320 271 L322 267 L327 263 Z M170 266 L173 263 L175 265 L180 263 L188 263 L192 265 L197 272 L196 273 L190 272 L189 271 L190 267 L184 270 L177 270 L174 267 L171 268 Z M344 265 L340 269 L334 268 L336 264 L339 265 L340 262 Z M141 263 L142 262 L147 264 L146 267 L144 268 Z M373 262 L364 271 L347 277 L271 286 L272 291 L277 287 L320 285 L368 274 L343 285 L273 293 L316 292 L366 281 L363 297 L350 310 L339 293 L325 322 L314 310 L297 338 L296 348 L287 341 L281 353 L268 361 L257 354 L251 360 L241 360 L226 341 L218 350 L216 338 L199 310 L188 325 L174 293 L163 310 L151 298 L147 286 L150 280 L178 289 L240 294 L248 288 L247 284 L229 286 L175 279 L152 272 L154 267 L195 276 L262 281 L325 275 Z M189 261 L191 260 L192 262 L190 263 Z M176 261 L178 260 L179 262 L177 263 Z M332 260 L335 259 L336 261 L333 262 Z M329 260 L328 262 L324 264 L322 263 L323 261 L327 259 Z M287 260 L289 259 L290 261 L288 262 Z M179 260 L187 259 L188 261 L180 262 Z M223 259 L229 258 L236 260 L237 263 L235 264 L235 268 L232 269 L223 261 Z M354 256 L359 257 L360 262 L357 263 L353 259 Z M152 259 L155 256 L158 256 L161 260 L154 263 Z M347 255 L350 257 L351 264 L350 266 L348 266 L343 261 Z M300 255 L303 255 L307 258 L303 264 L297 261 Z M165 255 L171 260 L169 264 L166 263 L168 265 L167 267 L162 265 L163 263 L162 257 Z M234 255 L237 254 L240 257 L237 258 Z M215 254 L218 258 L218 261 L212 264 L209 257 Z M282 253 L280 257 L276 258 L273 257 L274 255 L280 252 Z M239 263 L245 255 L251 252 L262 252 L270 257 L274 263 L273 266 L264 268 L264 269 L277 266 L278 264 L276 263 L276 261 L279 259 L284 259 L285 261 L288 262 L286 266 L276 271 L270 272 L270 273 L284 269 L289 265 L291 266 L291 269 L287 276 L268 276 L267 273 L265 273 L263 277 L249 276 L248 275 L249 268 L243 267 Z M228 253 L230 252 L231 254 L229 255 Z M373 251 L374 255 L371 257 L370 253 Z M321 248 L323 247 L331 252 L332 255 L330 257 L324 257 L322 254 Z M290 246 L291 248 L287 255 L285 256 L284 254 L288 247 Z M218 247 L220 246 L224 249 L227 247 L229 249 L228 251 L226 251 L227 255 L221 257 L217 252 Z M358 246 L363 245 L369 248 L370 252 L368 253 L367 251 L359 248 Z M290 251 L298 245 L309 246 L315 252 L316 262 L314 265 L308 264 L307 262 L310 256 L302 252 L299 252 L296 258 L294 259 L289 255 Z M215 245 L216 250 L213 253 L206 256 L212 268 L212 271 L209 272 L202 266 L200 262 L200 255 L204 248 L209 245 Z M196 244 L197 247 L194 251 L194 254 L191 257 L187 257 L185 255 L186 250 Z M351 244 L354 243 L356 245 L354 248 L358 248 L367 252 L369 255 L368 259 L363 261 L362 257 L358 252 L353 255 L350 254 L349 251 Z M294 243 L295 245 L292 247 L291 245 Z M221 244 L223 243 L225 246 L223 247 Z M162 244 L164 253 L160 255 L155 252 L149 261 L146 259 L147 255 L145 253 L152 249 L158 248 L158 247 L155 247 L146 251 L142 257 L139 255 L139 252 L145 247 L159 243 Z M297 242 L307 241 L313 244 L319 251 L320 260 L319 261 L317 260 L317 254 L311 246 L307 244 L298 244 Z M214 242 L218 241 L219 243 L215 244 Z M211 241 L212 243 L205 246 L200 251 L199 256 L197 257 L196 254 L198 249 L204 243 Z M165 239 L168 240 L169 248 L168 251 L165 248 L164 242 Z M327 237 L329 237 L334 241 L330 248 L328 248 L323 244 L323 242 Z M184 237 L186 237 L190 242 L190 244 L185 248 L183 248 L179 242 Z M250 231 L251 230 L261 230 L262 232 L261 233 L251 233 Z M245 230 L247 229 L248 232 L246 233 Z M294 225 L292 233 L287 242 L280 249 L272 253 L269 253 L261 249 L252 249 L244 253 L238 252 L226 242 L221 233 L222 230 L227 228 L234 232 L245 235 L268 235 L282 231 L292 224 Z M219 225 L221 224 L223 227 L221 228 Z M334 223 L338 224 L345 230 L348 235 L349 241 L348 248 L345 251 L344 250 L345 236 L342 231 L339 229 L344 237 L344 247 L342 250 L344 253 L343 254 L340 253 L339 258 L337 256 L335 257 L332 256 L333 254 L332 249 L338 240 L331 236 L330 232 L325 234 L319 245 L313 241 L314 236 L320 229 L324 227 L327 227 L328 229 L330 227 L337 228 L333 225 Z M326 224 L325 226 L318 229 L312 237 L310 236 L312 231 L317 226 L323 223 Z M179 223 L180 225 L174 228 L170 232 L168 237 L166 238 L165 236 L168 230 L175 224 Z M326 223 L331 222 L332 224 L327 225 Z M193 224 L201 231 L203 237 L201 238 L198 234 L200 241 L195 244 L192 242 L187 233 L176 240 L174 240 L182 252 L179 256 L173 254 L176 258 L175 259 L172 258 L168 253 L169 251 L172 252 L171 246 L169 245 L169 238 L171 233 L175 229 L183 226 L189 227 L197 232 L195 229 L190 226 L182 225 L181 223 L187 222 Z M293 218 L293 220 L283 228 L272 232 L266 233 L264 232 L265 229 L269 229 L280 224 L277 222 L279 218 L283 217 Z M221 220 L224 219 L225 217 L230 217 L236 226 L244 228 L245 230 L240 232 L232 229 L224 224 Z M239 220 L244 214 L249 211 L261 210 L269 214 L272 217 L275 224 L269 227 L263 228 L250 228 L240 225 Z M324 201 L320 205 L317 212 L320 209 Z M188 200 L196 212 L193 205 Z M392 195 L378 205 L369 214 L390 198 Z M121 195 L123 198 L145 215 L135 205 Z M316 186 L314 187 L307 207 L309 205 Z M197 186 L200 196 L206 207 L203 197 Z M381 180 L377 183 L361 203 L367 198 Z M132 180 L145 197 L151 202 L136 183 Z M305 169 L304 169 L301 184 L299 188 L296 204 L297 204 L302 186 Z M207 169 L215 201 L217 204 L209 170 Z M188 165 L181 165 L178 168 L184 173 L183 178 L178 178 L171 174 L172 172 L174 172 L172 169 L176 165 L168 165 L165 168 L168 171 L168 173 L165 175 L165 179 L174 184 L174 187 L169 191 L169 196 L175 202 L173 206 L173 212 L175 214 L179 211 L179 205 L176 199 L181 198 L183 195 L183 192 L178 187 L177 182 L184 181 L186 179 L187 173 L185 169 Z M171 193 L174 190 L177 190 L180 192 L180 195 L178 196 L176 194 L173 197 Z M168 177 L170 176 L171 178 L169 179 Z M395 145 L394 151 L386 158 L390 159 L393 162 L395 169 L397 170 L397 166 L399 162 L406 157 L403 156 L398 151 L397 145 Z M395 153 L397 153 L401 157 L397 162 L395 162 L391 158 Z M117 145 L116 151 L108 158 L112 159 L115 162 L117 166 L117 170 L118 170 L121 162 L128 157 L125 156 L120 151 L119 146 Z M117 153 L119 153 L123 157 L119 162 L117 162 L113 158 Z M246 139 L246 142 L248 144 L251 144 L254 141 L256 141 L255 138 L256 136 L261 139 L260 141 L261 144 L264 144 L267 141 L265 137 L258 134 L257 129 L253 129 L255 131 L255 134 L253 136 L248 136 Z M248 139 L250 138 L251 140 L249 141 Z M338 73 L336 78 L336 103 L334 105 L337 109 L332 112 L337 116 L331 119 L331 121 L335 121 L338 124 L329 128 L329 130 L333 131 L333 135 L328 139 L325 145 L325 152 L327 156 L333 161 L333 164 L327 167 L329 173 L326 176 L326 179 L328 181 L333 181 L336 183 L335 187 L330 192 L331 197 L336 202 L334 206 L334 211 L336 214 L338 214 L341 210 L341 207 L337 199 L342 198 L344 196 L344 191 L339 187 L339 185 L342 184 L343 181 L347 180 L348 172 L346 169 L349 166 L342 165 L340 167 L340 169 L345 173 L344 179 L334 176 L334 169 L338 165 L338 162 L341 160 L345 162 L344 159 L349 153 L349 147 L346 143 L339 141 L333 145 L331 151 L327 150 L327 145 L333 137 L341 134 L346 134 L344 131 L339 130 L337 128 L338 126 L345 125 L344 123 L338 120 L339 118 L343 117 L338 112 L339 110 L342 110 L339 106 L338 99 Z M336 208 L338 207 L339 209 L337 210 Z M333 192 L335 190 L339 190 L342 193 L342 195 L340 196 L338 194 L334 194 Z M336 180 L337 179 L340 180 L341 183 L339 184 Z M334 162 L336 161 L337 164 L335 165 Z M329 154 L332 152 L339 154 L340 158 L339 159 L333 158 Z M336 150 L339 149 L340 151 L337 152 Z M338 144 L339 143 L344 144 L346 146 L347 152 L343 153 L342 149 L338 147 Z M334 131 L336 130 L337 133 L335 134 Z M176 72 L175 72 L175 97 L173 104 L175 109 L171 112 L171 114 L175 114 L176 116 L171 118 L169 121 L174 121 L177 124 L168 128 L168 130 L172 131 L172 135 L166 140 L164 144 L164 153 L169 159 L169 162 L171 160 L179 161 L183 159 L188 152 L188 148 L183 142 L177 141 L171 146 L167 144 L168 141 L172 137 L179 134 L185 134 L183 131 L180 131 L176 128 L177 126 L183 126 L181 122 L176 120 L177 118 L182 117 L177 112 L178 110 L180 110 L180 108 L177 105 Z M166 148 L170 147 L173 153 L179 155 L179 158 L178 159 L171 158 L167 154 Z M173 147 L176 144 L178 145 L182 144 L185 147 L185 154 L183 155 L180 153 L181 151 L180 148 L178 148 L178 151 L176 152 L173 149 Z M173 131 L175 130 L176 133 L174 134 Z M257 17 L253 58 L256 63 L251 66 L256 70 L249 74 L251 81 L245 89 L246 109 L241 108 L236 117 L245 126 L227 143 L220 161 L225 182 L245 201 L249 201 L255 192 L264 201 L274 197 L288 182 L293 167 L289 148 L267 126 L275 122 L276 115 L272 108 L266 114 L261 111 L268 103 L266 89 L257 86 L251 92 L247 91 L253 82 L265 79 L257 74 L263 71 L258 67 L261 62 L258 60 Z M244 194 L249 193 L250 197 L246 199 L244 197 Z M265 192 L269 194 L269 197 L267 199 L263 197 L263 194 Z M252 183 L258 182 L259 184 L253 185 Z M269 174 L270 175 L269 182 L261 186 L259 181 L265 175 Z M261 175 L256 180 L252 179 L252 176 L257 173 Z M261 168 L263 169 L262 174 L258 172 L258 170 Z M250 171 L250 167 L254 164 L258 164 L261 166 L258 169 L255 168 L254 173 Z M265 157 L267 159 L266 162 L270 163 L269 168 L266 169 L259 162 L253 162 L248 167 L248 171 L251 174 L251 176 L249 179 L247 179 L241 171 L242 163 L248 157 L255 154 Z M255 121 L259 122 L281 140 L290 157 L291 168 L289 176 L280 188 L277 187 L277 190 L272 193 L267 190 L262 192 L258 190 L271 183 L273 176 L269 170 L273 164 L267 156 L258 152 L257 146 L254 148 L253 153 L241 161 L239 166 L241 176 L251 183 L249 191 L238 192 L228 183 L223 173 L222 161 L228 145 Z M253 117 L254 119 L248 124 L246 120 Z M269 115 L270 117 L267 119 L267 122 L265 124 L260 121 L265 116 Z M239 120 L240 115 L246 115 L248 117 L247 119 L243 118 L242 121 Z M255 114 L257 113 L258 116 L256 117 Z M246 109 L247 108 L253 109 L254 110 L252 115 L247 114 Z M265 102 L266 104 L263 106 L262 104 Z M247 103 L249 102 L253 106 L251 107 Z M265 96 L264 100 L260 102 L259 98 L262 95 Z M248 96 L252 95 L253 100 L251 101 L248 98 Z M254 94 L254 91 L256 89 L263 89 L265 91 L264 93 L259 92 L257 96 Z M252 77 L256 76 L257 78 L253 79 Z"/></svg>
