<svg xmlns="http://www.w3.org/2000/svg" width="512" height="512" viewBox="0 0 512 512" aria-hidden="true" focusable="false"><path fill="currentColor" fill-rule="evenodd" clip-rule="evenodd" d="M241 487 L241 493 L244 496 L249 496 L253 493 L252 488 Z M324 487 L322 479 L318 477 L319 472 L317 461 L309 462 L307 464 L301 464 L296 468 L287 467 L285 470 L278 468 L275 469 L274 471 L274 475 L276 476 L275 483 L280 485 L283 482 L288 484 L291 484 L294 482 L295 478 L292 472 L295 469 L301 473 L301 477 L307 478 L308 477 L307 471 L313 468 L314 470 L312 474 L315 475 L316 477 L312 480 L312 484 L317 485 L318 488 Z M283 471 L285 472 L285 474 L288 475 L285 480 L283 479 L283 476 L281 474 Z M266 440 L265 444 L270 445 L271 441 Z M258 360 L254 363 L254 371 L258 374 L258 386 L250 392 L250 396 L253 400 L257 400 L260 397 L260 392 L262 391 L268 397 L274 398 L277 395 L277 392 L274 392 L271 395 L260 385 L260 375 L265 372 L266 365 L264 361 Z M256 391 L258 392 L258 395 L254 396 L253 393 Z M259 363 L263 365 L263 369 L260 371 L256 367 Z M438 364 L426 357 L425 360 L420 363 L420 375 L415 377 L411 385 L408 386 L405 381 L402 382 L402 385 L407 389 L404 392 L404 399 L398 402 L398 407 L393 408 L391 414 L385 416 L381 423 L372 427 L370 424 L383 413 L383 405 L380 405 L380 412 L367 423 L368 431 L365 436 L361 436 L359 441 L352 442 L350 445 L345 446 L341 452 L337 451 L331 455 L326 455 L322 459 L321 463 L325 471 L330 471 L332 469 L332 464 L326 461 L327 458 L334 459 L336 466 L342 466 L351 461 L352 454 L349 451 L350 449 L355 451 L355 455 L361 457 L359 465 L368 462 L372 458 L372 454 L366 458 L359 448 L359 443 L362 444 L363 449 L368 449 L369 446 L373 446 L377 443 L382 446 L389 443 L384 426 L388 424 L389 428 L392 430 L395 427 L395 423 L389 418 L396 415 L397 421 L402 422 L404 416 L411 413 L410 406 L404 404 L403 400 L409 400 L411 404 L414 404 L420 398 L420 391 L413 394 L409 393 L413 385 L418 381 L420 383 L420 388 L427 386 L430 388 L432 394 L435 394 L438 390 L435 382 L429 385 L421 379 L422 377 L431 378 L432 373 L427 370 L429 367 L435 368 Z M336 455 L342 453 L347 454 L349 457 L345 458 L345 460 L342 463 L340 463 Z M367 439 L371 438 L372 440 L368 441 Z M378 433 L383 436 L381 441 L379 441 L377 438 Z M406 407 L407 409 L404 410 L402 414 L397 411 L398 409 L400 410 L403 407 Z M412 397 L414 396 L415 399 L413 400 Z M427 335 L427 340 L428 342 L431 343 L431 346 L428 349 L428 352 L430 353 L430 355 L433 355 L437 359 L439 357 L439 353 L443 352 L444 350 L444 340 L434 335 L432 335 L431 337 Z M432 348 L433 345 L437 346 L435 349 Z M242 331 L242 340 L248 345 L264 346 L270 343 L275 346 L285 346 L289 344 L291 341 L291 335 L289 332 L294 328 L293 325 L291 326 L283 325 L277 330 L277 334 L282 334 L288 337 L288 340 L284 343 L274 343 L271 341 L271 335 L269 332 L274 328 L273 326 L269 327 L268 325 L265 325 L260 330 L257 330 L252 326 L249 326 Z M245 335 L246 334 L254 335 L258 332 L259 334 L266 335 L268 338 L263 343 L254 344 L249 342 L245 338 Z M283 330 L285 329 L286 331 L284 332 Z M264 330 L267 329 L268 331 L265 332 Z M85 301 L78 295 L74 295 L69 299 L69 305 L74 306 L77 304 L75 300 L79 299 L81 301 L80 307 L82 312 L78 313 L75 310 L71 310 L70 312 L63 311 L63 314 L59 316 L59 318 L67 319 L70 316 L72 317 L83 316 L85 313 L84 309 Z M73 326 L81 331 L76 342 L88 341 L78 346 L80 361 L89 377 L98 376 L83 391 L91 391 L97 384 L95 390 L103 394 L107 388 L102 403 L116 421 L128 419 L123 429 L137 420 L143 422 L131 436 L150 452 L161 453 L160 472 L167 461 L175 464 L179 457 L179 466 L186 472 L192 470 L205 477 L209 468 L213 481 L221 469 L221 482 L226 479 L234 485 L244 480 L255 485 L256 476 L264 477 L264 486 L270 483 L267 469 L245 469 L247 463 L263 466 L250 460 L262 455 L252 453 L254 437 L259 438 L259 446 L263 434 L274 434 L282 445 L299 437 L305 440 L301 449 L307 449 L317 442 L309 443 L306 426 L312 428 L312 435 L317 434 L316 425 L322 432 L330 425 L336 425 L341 432 L346 431 L347 423 L356 426 L344 405 L356 411 L374 392 L375 385 L391 387 L375 376 L387 376 L402 340 L411 343 L417 339 L398 331 L410 325 L410 321 L400 320 L405 310 L411 317 L412 310 L401 306 L405 299 L412 302 L410 295 L391 294 L390 299 L361 294 L362 315 L355 323 L348 348 L327 373 L329 384 L322 375 L290 392 L289 372 L278 357 L262 352 L243 357 L231 376 L232 393 L243 407 L268 412 L289 395 L296 398 L299 413 L317 415 L308 391 L318 396 L318 384 L327 390 L330 383 L336 383 L334 372 L344 375 L346 383 L351 382 L355 375 L349 363 L354 363 L356 356 L350 351 L360 352 L362 348 L353 340 L358 335 L367 344 L376 341 L369 335 L370 318 L366 330 L358 326 L365 313 L374 311 L368 303 L384 298 L386 302 L379 305 L382 310 L391 302 L399 303 L399 315 L394 321 L397 328 L374 367 L375 376 L367 377 L345 403 L316 422 L272 432 L268 422 L266 432 L244 432 L208 425 L185 410 L177 411 L179 415 L175 416 L174 409 L185 406 L183 398 L176 399 L176 406 L164 396 L170 387 L158 390 L144 373 L138 358 L143 350 L165 345 L160 355 L170 363 L170 370 L181 366 L175 375 L184 385 L191 384 L196 394 L210 401 L221 396 L216 409 L208 406 L210 415 L216 414 L220 405 L227 406 L231 397 L211 387 L222 381 L217 374 L212 374 L209 385 L183 364 L170 345 L178 335 L169 338 L162 327 L163 319 L158 315 L161 299 L156 294 L145 297 L145 312 L157 313 L149 322 L157 329 L143 334 L142 347 L128 345 L119 352 L130 375 L141 373 L142 379 L136 384 L147 386 L135 399 L139 406 L135 417 L117 398 L108 406 L105 399 L114 393 L110 384 L101 381 L104 374 L95 362 L87 322 Z M233 475 L235 474 L236 476 L234 477 Z M193 466 L196 465 L197 467 L194 468 Z M184 465 L188 463 L192 467 L192 469 L190 470 L186 468 Z M186 459 L189 458 L190 461 L187 463 Z M164 459 L166 458 L167 461 L165 462 Z M168 453 L170 452 L171 454 L169 455 Z M160 448 L162 447 L165 450 L165 452 L161 453 Z M225 434 L227 438 L223 440 L222 436 Z M297 433 L300 432 L301 434 L298 435 Z M281 441 L281 439 L283 438 L281 435 L282 432 L294 435 L292 439 L288 438 L286 441 L283 442 Z M209 432 L211 431 L212 434 L210 435 Z M135 435 L140 434 L140 431 L143 430 L145 432 L145 435 L151 437 L151 442 L146 444 L143 442 L143 440 L139 440 Z M294 430 L296 429 L297 431 L295 432 Z M194 425 L198 427 L195 435 L189 432 L189 430 Z M346 419 L345 422 L339 422 L338 419 L334 417 L331 419 L328 426 L326 425 L326 423 L322 421 L324 417 L329 417 L335 411 L341 412 L342 417 Z M116 405 L118 406 L117 410 L115 409 Z M167 402 L170 403 L170 409 L172 412 L171 414 L168 414 L162 409 L163 406 L166 406 Z M223 397 L226 396 L227 399 L224 400 Z M143 412 L163 396 L163 402 L159 404 L159 409 L164 415 L174 418 L173 423 L167 424 L161 417 L161 425 L167 432 L171 432 L182 420 L183 416 L186 415 L189 423 L186 424 L188 431 L183 436 L185 441 L191 441 L192 445 L196 447 L200 441 L198 436 L202 434 L206 425 L206 436 L213 438 L217 432 L217 439 L222 443 L227 443 L232 433 L235 434 L237 445 L242 445 L243 439 L247 437 L246 444 L248 447 L246 455 L248 459 L242 464 L241 468 L226 470 L209 462 L198 462 L196 459 L176 449 L171 451 L166 443 L162 442 L158 437 L153 437 L147 431 L146 427 L150 425 L150 419 Z M300 394 L306 395 L310 405 L310 408 L308 410 L306 410 L305 407 L301 404 L299 396 Z M362 392 L365 397 L362 400 L360 400 L359 404 L355 407 L354 406 L355 403 L351 402 L350 399 L357 395 L359 392 Z M154 389 L156 397 L146 407 L142 406 L141 402 L143 401 L144 396 L148 395 Z M208 388 L210 391 L208 394 L205 394 L204 391 Z M196 388 L202 386 L204 390 L199 392 Z M371 383 L373 382 L374 384 L372 385 Z M194 378 L196 379 L196 383 L192 384 L191 382 Z M182 377 L186 374 L190 379 L189 380 L183 379 Z M347 373 L349 372 L351 376 L349 377 Z M382 367 L385 366 L387 370 L386 371 L383 370 Z M340 367 L342 366 L343 369 L341 370 Z M172 361 L175 360 L176 363 L174 364 Z M383 358 L385 357 L387 359 L390 357 L392 359 L392 362 L390 364 L384 362 Z M342 358 L348 357 L349 361 L348 362 L343 361 Z M250 357 L259 355 L270 357 L279 363 L285 371 L287 377 L286 391 L283 397 L271 407 L254 408 L248 406 L238 398 L235 391 L234 377 L237 369 Z M136 351 L139 353 L138 357 L135 355 Z M130 351 L132 352 L132 359 L138 363 L135 370 L131 369 L130 362 L126 361 L126 355 L129 354 Z M89 349 L91 350 L91 357 L93 359 L93 362 L91 365 L88 364 L88 361 L82 358 L81 354 L82 352 L86 352 Z M164 337 L162 343 L153 347 L148 347 L145 343 L146 341 L149 341 L152 337 L156 337 L159 335 L162 335 Z M396 334 L399 336 L398 340 L394 339 L394 336 Z M127 294 L123 297 L121 297 L118 294 L114 297 L110 295 L108 298 L107 304 L110 313 L112 313 L112 306 L110 305 L110 302 L112 301 L113 303 L117 303 L120 301 L121 302 L120 312 L124 316 L123 317 L121 316 L118 320 L116 318 L113 318 L110 323 L101 322 L99 324 L101 337 L103 340 L106 341 L103 344 L103 347 L106 350 L111 347 L114 347 L116 343 L121 344 L124 342 L127 342 L129 339 L129 332 L125 329 L126 322 L123 318 L124 316 L129 315 L126 311 L129 309 L131 305 L131 299 Z M110 330 L112 329 L115 332 L124 331 L125 335 L122 337 L114 336 L110 334 Z M103 330 L106 329 L107 333 L104 334 Z M113 326 L116 325 L117 327 L114 328 Z M449 293 L446 294 L441 293 L439 295 L439 298 L435 300 L437 308 L435 316 L437 320 L435 321 L433 329 L436 332 L438 332 L441 328 L444 329 L442 331 L443 334 L447 332 L449 327 L447 324 L439 324 L438 321 L441 320 L442 317 L445 320 L448 320 L451 316 L451 314 L448 311 L452 308 L452 303 L450 300 L453 297 L453 295 Z M445 309 L447 308 L448 311 L446 312 Z M441 297 L444 298 L442 302 L439 301 Z M432 273 L434 283 L440 284 L441 277 L445 276 L446 277 L445 283 L451 284 L451 275 L453 271 L446 271 L444 273 L440 271 L435 271 Z M359 273 L359 276 L361 277 L360 283 L362 284 L369 283 L376 284 L379 282 L378 275 L380 271 L372 272 L361 271 Z M367 275 L369 274 L370 276 L368 277 Z M140 273 L141 282 L143 284 L147 284 L149 282 L150 276 L154 277 L153 283 L155 284 L159 283 L160 273 L158 271 L154 271 L151 273 L147 271 L143 271 Z M67 273 L67 276 L69 277 L68 282 L70 284 L87 283 L88 280 L87 275 L89 271 L76 271 L75 272 L69 271 Z M228 270 L228 272 L241 274 L260 283 L253 290 L255 296 L252 299 L251 305 L238 293 L241 288 L244 290 L249 289 L250 284 L240 284 L234 293 L234 296 L241 299 L243 303 L235 305 L233 310 L245 319 L256 322 L279 321 L293 311 L296 316 L304 314 L304 286 L296 283 L287 285 L283 290 L283 294 L290 299 L289 303 L275 309 L259 309 L257 306 L260 304 L261 299 L267 299 L271 305 L281 301 L280 296 L275 300 L272 296 L276 293 L276 289 L268 284 L268 281 L283 274 L294 273 L303 276 L308 281 L315 282 L316 309 L309 314 L308 320 L312 325 L307 333 L310 337 L316 338 L316 344 L310 348 L316 349 L318 347 L319 331 L315 325 L319 320 L320 309 L326 304 L326 301 L319 302 L318 279 L312 279 L308 275 L295 270 L283 271 L266 279 L258 279 L244 272 Z M311 331 L314 330 L315 333 L312 334 Z M315 314 L316 319 L313 321 L311 317 Z M299 308 L301 309 L300 313 L298 312 Z M293 306 L293 308 L285 315 L276 319 L269 320 L255 319 L240 311 L244 306 L252 310 L260 312 L276 312 L283 310 L290 305 Z M291 286 L295 286 L301 291 L301 303 L299 305 L295 304 L295 299 L287 291 Z M263 286 L268 288 L266 295 L260 294 L259 289 Z M333 276 L322 272 L308 263 L296 260 L277 263 L262 272 L241 262 L227 261 L212 265 L203 271 L185 290 L185 293 L190 298 L183 300 L195 319 L204 327 L214 332 L212 335 L197 342 L197 349 L201 353 L208 353 L216 346 L217 342 L225 340 L226 348 L222 350 L221 353 L226 353 L229 350 L229 330 L226 330 L221 337 L217 339 L215 337 L225 327 L226 318 L224 313 L227 311 L225 304 L218 303 L217 296 L223 287 L228 289 L231 283 L222 283 L215 291 L214 300 L220 312 L215 318 L207 310 L205 302 L208 286 L214 279 L224 274 L224 272 L212 276 L205 284 L202 293 L202 305 L206 315 L212 321 L219 323 L219 326 L212 327 L201 321 L188 304 L197 299 L196 295 L191 294 L189 291 L212 269 L222 265 L236 264 L244 266 L259 275 L264 275 L281 265 L301 264 L323 275 L330 280 L330 319 L322 327 L322 331 L326 335 L330 335 L333 332 L333 321 L343 310 L343 308 L340 308 L336 313 L333 311 Z M213 340 L212 346 L207 350 L203 350 L199 346 L201 343 L211 339 Z M328 325 L330 326 L329 332 L326 330 L326 327 Z M219 319 L221 318 L222 320 L220 321 Z M402 245 L396 250 L396 258 L395 261 L391 264 L391 271 L388 274 L387 280 L390 284 L393 285 L420 284 L423 280 L423 277 L419 271 L418 262 L414 260 L415 258 L414 250 L408 245 Z M390 277 L393 274 L417 274 L420 277 L420 279 L416 282 L393 282 L390 279 Z M394 266 L397 263 L402 264 L412 263 L415 265 L415 270 L408 272 L396 271 L394 269 Z M398 255 L402 251 L407 251 L412 254 L412 257 L410 260 L407 261 L400 260 Z M112 245 L107 249 L107 254 L105 256 L106 260 L102 263 L101 271 L98 275 L98 281 L103 285 L131 284 L133 281 L132 273 L129 272 L130 266 L125 260 L125 251 L119 245 Z M101 276 L103 274 L127 274 L130 276 L130 280 L127 282 L104 282 L101 280 Z M104 266 L108 263 L122 263 L126 266 L126 270 L118 272 L106 271 L104 269 Z M109 254 L113 251 L118 251 L122 254 L122 258 L120 260 L111 260 L109 258 Z M256 229 L256 231 L266 231 L266 228 Z M321 228 L319 232 L320 236 L317 240 L317 243 L314 248 L314 252 L317 255 L337 255 L340 251 L340 248 L337 245 L336 238 L333 237 L332 228 L330 227 Z M317 248 L321 246 L333 246 L336 249 L335 252 L319 252 Z M320 241 L321 240 L333 240 L334 242 L331 244 L321 243 Z M325 230 L329 230 L331 233 L328 237 L326 237 L323 234 Z M191 227 L187 230 L187 236 L184 240 L184 244 L181 248 L181 252 L184 255 L204 255 L207 249 L204 245 L204 240 L201 237 L202 232 L200 228 Z M184 248 L188 246 L199 246 L203 248 L203 251 L202 252 L186 252 Z M187 241 L188 240 L200 240 L201 242 L190 244 Z M192 230 L197 231 L198 234 L196 237 L193 237 L190 234 Z M441 188 L440 236 L438 241 L438 246 L436 248 L433 257 L435 262 L439 264 L447 264 L451 262 L452 254 L450 251 L450 247 L448 245 L448 238 L446 236 L444 226 L444 187 Z M436 256 L438 255 L439 257 L437 258 Z M368 188 L367 236 L365 245 L363 247 L363 251 L361 252 L360 258 L361 261 L366 264 L374 264 L379 260 L379 255 L376 252 L377 247 L374 244 L373 233 L371 227 L371 187 Z M364 254 L366 255 L365 259 L363 258 Z M279 189 L279 193 L281 194 L280 197 L284 201 L288 199 L289 192 L292 192 L294 194 L293 199 L295 201 L298 200 L298 191 L300 190 L300 188 L294 187 L292 189 L289 189 L286 187 L283 187 Z M219 191 L222 194 L221 199 L224 201 L230 199 L236 201 L240 198 L239 192 L240 188 L234 187 L231 189 L223 187 Z M150 187 L150 226 L148 235 L146 237 L147 241 L144 247 L145 250 L142 253 L142 260 L147 264 L155 264 L160 261 L161 256 L157 251 L157 247 L155 245 L154 239 L153 189 L152 187 Z M76 188 L76 229 L74 231 L74 236 L72 241 L73 245 L71 247 L68 257 L69 260 L73 264 L82 264 L87 259 L87 254 L84 251 L84 247 L82 245 L81 230 L79 226 L79 187 Z M254 187 L247 196 L249 207 L238 215 L237 221 L239 227 L233 230 L228 237 L228 246 L234 254 L238 254 L232 246 L233 243 L239 246 L242 240 L246 248 L251 246 L256 248 L259 247 L259 243 L262 241 L266 248 L269 245 L287 246 L288 248 L283 252 L283 254 L287 254 L293 244 L293 238 L288 230 L281 227 L283 225 L283 215 L277 209 L272 208 L274 196 L267 187 Z M233 236 L238 231 L248 231 L248 228 L245 228 L243 225 L248 224 L250 219 L252 220 L252 223 L255 225 L259 223 L262 224 L278 223 L279 225 L276 228 L274 228 L273 231 L283 231 L286 233 L283 237 L277 237 L275 235 L271 238 L265 235 L263 235 L262 237 L260 237 L259 235 L256 235 L253 237 L252 242 L249 242 L248 241 L249 237 L245 235 L242 237 L240 237 L239 235 L235 237 Z M277 219 L279 218 L280 221 L278 222 Z M275 214 L277 213 L278 215 L276 216 Z M274 212 L268 217 L265 217 L263 215 L249 215 L248 214 L245 216 L243 215 L247 211 L257 211 L257 208 L254 207 L253 205 L258 204 L260 202 L268 205 L266 208 L264 208 L264 211 Z M251 196 L253 197 L252 202 L250 201 Z M259 194 L262 195 L261 200 L259 199 L258 196 Z M267 193 L269 194 L268 198 L266 197 Z M261 190 L264 189 L266 192 L264 193 Z M261 158 L257 159 L256 163 L253 164 L254 171 L253 179 L258 182 L267 180 L269 175 L268 163 L265 162 Z M403 135 L403 186 L400 195 L398 213 L396 215 L396 219 L399 220 L400 222 L394 229 L394 235 L401 242 L409 242 L414 238 L415 232 L411 226 L404 223 L405 221 L412 221 L414 219 L414 216 L412 214 L410 194 L408 192 L407 187 L407 136 Z M398 234 L400 233 L401 235 L399 236 Z M403 231 L405 230 L406 232 L404 233 Z M114 135 L114 187 L111 195 L111 200 L109 202 L110 205 L109 212 L107 214 L107 219 L110 220 L111 222 L109 223 L109 225 L105 230 L105 235 L112 242 L120 242 L124 239 L125 229 L119 224 L117 224 L116 222 L123 221 L125 216 L123 213 L123 208 L121 206 L122 201 L118 187 L118 136 Z M109 234 L111 233 L112 235 L110 236 Z M114 230 L116 229 L117 232 L115 233 Z M326 110 L325 176 L324 182 L321 185 L322 187 L321 189 L322 193 L320 195 L321 201 L319 202 L320 208 L317 212 L317 215 L323 221 L332 221 L336 217 L337 212 L333 208 L335 203 L332 200 L333 198 L333 194 L331 192 L332 187 L329 185 L331 183 L328 167 L329 164 L328 160 L329 157 L329 145 L328 144 L329 141 L328 137 L329 135 L329 125 L328 124 L329 112 L328 110 Z M193 110 L192 112 L192 176 L191 182 L188 185 L189 187 L188 190 L189 193 L187 195 L188 201 L186 203 L187 207 L184 211 L184 215 L189 221 L195 222 L199 221 L203 217 L204 212 L201 208 L202 203 L199 200 L201 195 L198 192 L197 177 L195 172 L195 110 Z M290 65 L290 129 L287 139 L288 147 L285 150 L286 153 L285 161 L281 167 L284 172 L287 174 L297 174 L301 170 L301 165 L299 162 L299 156 L297 154 L298 148 L294 129 L294 66 Z M227 65 L227 128 L225 132 L224 148 L222 150 L223 153 L222 161 L219 164 L219 169 L224 174 L234 174 L238 170 L238 163 L236 162 L237 157 L234 154 L235 152 L235 148 L233 146 L234 139 L231 130 L231 67 Z M260 17 L258 18 L258 89 L255 99 L256 105 L254 107 L254 121 L250 126 L254 133 L248 139 L248 146 L256 154 L265 154 L271 149 L273 143 L268 136 L261 134 L262 132 L268 131 L270 125 L268 123 L268 116 L266 114 L267 108 L265 106 L266 101 L263 90 L263 20 Z M252 141 L254 140 L255 143 L253 144 Z M259 140 L261 139 L262 142 L260 143 Z"/></svg>
