<svg xmlns="http://www.w3.org/2000/svg" width="512" height="512" viewBox="0 0 512 512" aria-hidden="true" focusable="false"><path fill="currentColor" fill-rule="evenodd" clip-rule="evenodd" d="M297 459 L297 463 L299 464 L302 470 L307 470 L308 463 L310 462 L314 468 L312 472 L312 476 L319 478 L320 480 L324 479 L322 477 L322 471 L319 469 L317 457 L318 452 L310 453 L308 455 L302 455 Z M264 413 L264 420 L267 420 L267 413 Z M256 307 L251 311 L250 315 L251 318 L257 323 L257 337 L251 344 L247 342 L240 344 L238 347 L239 353 L243 356 L250 355 L253 351 L253 346 L258 342 L260 342 L265 347 L265 352 L267 355 L275 356 L280 350 L278 345 L273 342 L267 344 L261 338 L260 335 L260 324 L266 318 L266 311 L263 308 Z M241 349 L243 346 L247 346 L249 348 L249 351 L247 353 L244 353 Z M271 345 L274 346 L276 349 L273 353 L270 353 L268 351 L268 348 Z M255 312 L260 310 L263 313 L263 317 L260 319 L256 318 Z M246 301 L236 307 L225 322 L224 346 L230 357 L246 369 L272 368 L289 354 L294 333 L291 320 L287 313 L274 302 Z M251 303 L266 303 L278 309 L290 327 L290 342 L279 360 L266 366 L252 366 L241 362 L233 355 L227 341 L227 328 L230 319 L238 310 Z M145 288 L144 294 L147 298 L143 302 L147 306 L149 306 L152 302 L156 304 L158 302 L156 298 L158 295 L157 290 L155 288 L150 289 Z M149 296 L153 295 L154 297 L150 298 Z M453 287 L437 286 L434 289 L434 305 L431 308 L433 314 L429 319 L428 338 L423 342 L425 350 L418 353 L415 360 L416 365 L412 367 L405 379 L401 373 L397 373 L403 380 L400 392 L391 397 L391 403 L381 409 L378 408 L376 400 L375 406 L363 416 L363 426 L357 434 L345 437 L342 442 L333 444 L330 448 L322 451 L322 458 L325 461 L331 462 L335 458 L342 458 L352 452 L354 448 L357 449 L356 455 L358 457 L370 452 L370 445 L365 451 L359 448 L357 437 L359 436 L362 441 L369 441 L371 438 L377 441 L382 438 L386 440 L386 434 L381 431 L379 421 L382 420 L386 425 L390 424 L389 418 L397 415 L392 406 L396 404 L398 409 L404 408 L407 405 L407 399 L404 398 L404 395 L410 397 L415 393 L419 379 L426 380 L429 387 L433 384 L436 377 L435 370 L432 369 L432 378 L426 377 L421 371 L429 369 L429 361 L434 358 L434 352 L440 343 L440 333 L435 325 L442 326 L445 322 L436 317 L436 312 L439 307 L442 313 L446 312 L447 306 L439 301 L442 298 L448 301 L448 292 L454 290 Z M329 452 L331 451 L334 454 L332 455 Z M339 446 L340 445 L347 446 L349 450 L340 454 L339 451 L341 450 L341 448 Z M349 441 L352 440 L353 443 L351 444 Z M372 431 L375 430 L378 432 L379 436 L377 437 Z M361 433 L364 430 L367 431 L364 434 Z M372 414 L373 417 L366 423 L365 418 Z M389 410 L390 413 L384 416 L383 412 L385 410 Z M376 410 L380 412 L379 417 L376 416 L374 413 Z M410 387 L412 388 L411 392 L409 391 Z M415 372 L417 374 L417 380 L411 383 L410 376 Z M416 367 L418 366 L419 369 L417 370 Z M428 341 L429 338 L432 339 L430 342 Z M437 291 L440 290 L441 292 L438 293 Z M125 286 L121 290 L119 288 L111 287 L107 291 L106 294 L107 301 L111 306 L112 302 L110 299 L110 296 L117 294 L118 299 L120 300 L121 307 L116 310 L112 310 L110 312 L109 317 L105 313 L101 313 L99 317 L97 318 L97 323 L99 325 L99 328 L102 334 L104 335 L104 340 L107 342 L113 338 L125 336 L128 331 L127 326 L123 324 L124 303 L128 300 L128 290 L125 288 Z M124 328 L123 331 L120 331 L117 329 L112 333 L110 327 L111 326 L116 327 L120 325 Z M102 322 L106 323 L104 328 L102 327 L101 324 Z M106 322 L109 320 L111 323 L107 324 Z M113 320 L114 317 L117 318 L115 321 Z M107 318 L109 317 L110 319 L108 320 Z M117 317 L119 316 L120 318 L118 319 Z M73 286 L69 290 L69 295 L73 298 L76 296 L76 291 L78 290 L80 292 L79 299 L81 302 L77 303 L75 301 L71 302 L66 301 L64 302 L64 305 L62 307 L58 307 L58 309 L67 309 L69 307 L76 307 L77 309 L73 311 L70 316 L74 322 L80 321 L81 324 L79 326 L75 325 L73 330 L74 331 L77 330 L88 331 L86 324 L87 316 L84 310 L83 300 L84 292 L79 286 Z M172 275 L172 277 L174 278 L174 282 L176 283 L184 282 L189 284 L195 281 L201 284 L204 283 L208 284 L207 289 L204 289 L201 291 L190 290 L190 292 L194 294 L201 294 L207 292 L208 294 L213 294 L213 289 L211 288 L211 284 L214 271 L189 272 L181 271 L178 269 Z M178 279 L180 278 L181 280 L179 281 Z M181 275 L185 274 L186 277 L182 279 Z M428 269 L431 280 L435 280 L436 276 L439 275 L442 280 L446 281 L449 267 L443 266 L440 268 L437 268 L432 266 Z M409 292 L363 286 L364 281 L375 281 L376 267 L369 267 L365 273 L365 267 L359 266 L356 272 L360 283 L347 289 L357 295 L355 312 L342 342 L324 363 L300 378 L293 379 L289 369 L292 379 L284 381 L281 389 L276 384 L250 389 L221 381 L216 374 L227 368 L219 370 L217 363 L211 364 L211 375 L196 368 L169 338 L175 327 L167 330 L158 310 L149 313 L147 319 L151 331 L163 330 L161 337 L148 342 L143 338 L148 331 L143 329 L136 349 L130 340 L119 344 L123 359 L130 362 L129 369 L141 367 L136 379 L146 380 L145 388 L138 391 L139 414 L121 399 L111 379 L105 376 L88 334 L78 335 L76 345 L79 355 L85 357 L85 366 L97 371 L87 376 L84 385 L95 379 L97 389 L104 392 L104 401 L114 406 L125 424 L132 416 L138 418 L132 429 L160 450 L160 467 L170 450 L175 460 L184 453 L187 466 L198 464 L200 469 L210 468 L213 473 L217 473 L217 462 L224 462 L225 476 L230 471 L238 478 L245 475 L254 488 L253 494 L259 496 L258 478 L263 473 L270 478 L272 465 L279 467 L275 470 L279 477 L294 473 L289 468 L294 460 L269 461 L272 435 L295 431 L297 441 L306 440 L311 433 L301 434 L300 425 L310 428 L309 418 L317 424 L332 418 L338 425 L342 418 L350 418 L341 400 L353 404 L372 384 L371 375 L379 381 L388 379 L377 371 L390 358 L396 334 L412 330 L395 321 L401 321 L407 304 L397 299 L398 294 L405 298 Z M263 470 L265 469 L266 472 L264 473 Z M249 467 L251 468 L252 472 L255 473 L255 479 L252 482 L249 480 L248 475 Z M241 468 L244 467 L245 471 L243 472 Z M281 466 L283 465 L284 467 L282 468 Z M236 467 L239 465 L241 468 L237 469 Z M210 464 L212 463 L215 466 L211 467 Z M249 463 L250 460 L254 457 L260 459 L263 457 L265 458 L264 463 L261 463 L258 461 L251 464 Z M191 455 L196 458 L194 463 L191 463 L188 461 Z M161 448 L163 447 L164 449 L162 450 Z M151 433 L153 432 L154 434 L152 435 Z M146 430 L148 429 L149 431 L147 432 Z M138 430 L140 429 L141 431 L139 432 Z M263 428 L267 431 L267 442 L266 446 L260 449 L259 441 L257 439 L259 437 L259 429 Z M269 428 L271 427 L274 431 L271 433 Z M226 431 L228 427 L231 427 L234 429 L230 433 Z M212 425 L213 424 L220 425 L222 428 L215 430 Z M278 433 L283 423 L285 424 L285 427 L290 428 L289 432 L283 432 L280 434 Z M291 423 L294 422 L295 425 L293 426 Z M138 417 L143 416 L144 418 L139 419 Z M141 414 L143 413 L144 415 L142 416 Z M334 415 L335 411 L341 412 L339 416 Z M125 410 L128 411 L129 415 L128 417 L124 415 Z M317 413 L321 409 L328 411 L326 415 L321 415 Z M294 406 L296 405 L297 407 L295 408 Z M336 405 L334 409 L332 410 L328 409 L331 404 Z M179 404 L181 405 L182 408 L181 410 L178 409 Z M169 398 L172 399 L174 403 L171 407 L165 403 Z M107 397 L110 394 L112 394 L115 400 L109 401 Z M259 392 L262 391 L263 394 L260 395 Z M145 405 L163 391 L164 396 L160 397 L160 403 L172 413 L177 412 L177 415 L172 418 L164 413 L165 423 L174 425 L185 411 L190 410 L192 415 L185 431 L188 434 L194 434 L197 440 L202 437 L201 431 L193 426 L197 419 L200 420 L201 428 L208 425 L213 432 L221 432 L224 435 L233 435 L237 428 L240 427 L245 429 L241 433 L245 439 L250 432 L253 433 L255 438 L253 447 L257 451 L262 451 L263 454 L251 454 L245 463 L236 462 L232 465 L227 460 L214 459 L208 454 L200 454 L197 451 L187 449 L183 444 L176 444 L167 439 L165 434 L154 430 L148 425 L146 420 L151 415 L149 410 L145 409 Z M249 390 L251 389 L252 392 L250 393 Z M239 388 L240 391 L236 393 L235 391 Z M158 389 L156 393 L150 399 L144 400 L141 398 L142 396 L145 395 L146 389 L149 389 L154 386 Z M105 386 L107 387 L106 391 L104 390 Z M357 385 L359 389 L356 391 L356 395 L354 398 L350 400 L348 393 L350 390 L354 389 L355 386 Z M291 384 L298 385 L298 388 L301 394 L301 398 L299 402 L296 402 L295 398 L292 395 L290 386 Z M211 384 L214 383 L215 385 L212 386 Z M204 380 L206 379 L208 383 L205 384 Z M317 374 L319 375 L318 379 L316 378 Z M365 373 L367 372 L368 374 L366 375 Z M317 369 L322 368 L323 371 L321 372 L318 371 Z M372 367 L374 366 L376 369 L373 370 Z M130 360 L134 356 L138 358 L137 363 L131 362 Z M175 359 L177 358 L178 355 L181 355 L184 360 L181 362 L176 361 Z M129 354 L132 353 L133 355 L130 356 Z M123 349 L129 348 L130 351 L126 352 Z M387 344 L388 345 L387 349 L383 351 L382 349 L384 345 Z M80 339 L82 340 L83 343 L86 344 L86 347 L90 348 L91 353 L90 356 L88 356 L86 351 L84 351 L79 346 Z M138 352 L145 344 L154 344 L166 338 L167 342 L162 344 L162 351 L169 355 L171 362 L176 362 L178 369 L181 368 L184 374 L189 374 L192 381 L197 380 L204 388 L209 387 L211 391 L218 390 L220 384 L224 387 L221 401 L216 405 L209 402 L212 398 L210 393 L204 395 L204 401 L210 407 L220 407 L227 393 L232 398 L265 400 L265 393 L268 390 L275 399 L278 399 L280 392 L284 391 L289 397 L288 411 L295 413 L303 407 L304 414 L285 422 L282 420 L260 425 L229 423 L217 417 L212 418 L198 409 L183 404 L183 401 L188 400 L185 391 L181 391 L178 398 L167 391 L163 385 L169 381 L169 378 L160 383 L152 377 Z M388 335 L390 334 L391 336 L389 337 Z M352 329 L354 331 L354 336 L351 337 L346 342 L345 339 L347 334 Z M394 325 L395 329 L391 330 L390 328 Z M156 319 L158 320 L157 325 L154 324 L154 321 Z M359 313 L361 314 L362 318 L361 324 L359 324 L356 321 Z M400 303 L403 305 L401 315 L399 314 L399 312 L395 311 L395 309 L399 306 Z M392 295 L394 308 L390 311 L388 327 L382 336 L376 355 L371 359 L371 364 L355 379 L351 387 L342 391 L339 398 L330 400 L325 406 L318 407 L309 414 L309 404 L303 400 L304 395 L300 382 L303 381 L306 387 L311 388 L315 381 L321 381 L322 374 L330 374 L326 363 L332 369 L340 367 L340 375 L346 375 L349 366 L336 350 L342 347 L343 353 L349 354 L349 347 L355 345 L359 336 L364 337 L366 334 L371 334 L363 329 L366 315 L362 312 L370 307 L365 302 L371 296 L363 294 L362 291 L379 291 L381 294 L374 297 L375 302 L380 302 L385 295 Z M139 270 L139 272 L142 273 L141 278 L144 281 L148 278 L149 275 L151 275 L153 280 L157 281 L159 278 L160 267 L154 266 L152 268 L147 268 L144 266 Z M68 267 L68 270 L70 272 L70 274 L68 275 L69 278 L72 280 L79 280 L82 277 L83 280 L86 280 L87 266 L82 265 L78 268 L71 265 Z M75 270 L77 269 L78 271 L76 272 Z M207 260 L204 263 L204 266 L207 268 L212 268 L213 262 L211 260 Z M348 263 L342 259 L339 261 L338 263 L339 268 L336 271 L331 271 L329 269 L324 269 L322 271 L319 271 L315 269 L311 272 L307 269 L304 269 L300 273 L301 281 L309 282 L311 279 L317 282 L322 281 L323 282 L322 286 L324 288 L321 289 L320 293 L326 297 L329 295 L333 298 L335 297 L339 298 L343 294 L343 273 L344 271 L341 271 L340 269 L347 267 Z M325 284 L329 283 L330 285 L326 286 Z M335 275 L339 276 L339 292 L338 293 L336 292 L336 288 L332 283 L335 279 L334 277 Z M326 279 L327 275 L333 276 L329 280 Z M110 247 L105 252 L105 259 L101 263 L101 267 L97 271 L97 278 L100 281 L128 281 L131 278 L132 273 L128 268 L128 263 L124 258 L122 249 L119 247 Z M101 273 L102 272 L127 272 L129 275 L127 277 L102 277 Z M104 264 L107 262 L122 262 L124 264 L124 267 L123 268 L106 268 Z M108 254 L112 250 L117 250 L120 252 L121 256 L119 258 L110 258 Z M396 248 L393 251 L392 259 L389 263 L389 267 L384 273 L385 278 L388 281 L415 281 L419 278 L419 271 L416 269 L416 264 L411 258 L410 250 L403 246 Z M388 273 L389 272 L415 272 L416 276 L415 277 L389 277 Z M392 264 L394 262 L410 262 L412 264 L412 267 L411 268 L394 268 Z M396 253 L399 250 L405 250 L408 253 L408 257 L407 258 L397 258 Z M270 242 L272 251 L275 253 L279 249 L282 251 L287 250 L287 242 L284 240 L279 241 L273 240 Z M324 224 L319 228 L319 233 L313 244 L319 250 L331 250 L336 247 L337 243 L336 240 L334 239 L334 235 L331 232 L331 228 L326 224 Z M317 243 L319 241 L332 241 L334 244 L331 247 L320 247 Z M320 236 L329 235 L330 237 L321 238 Z M323 229 L326 228 L327 230 L324 231 Z M189 224 L185 228 L183 238 L180 241 L180 246 L184 250 L200 249 L202 247 L202 240 L199 238 L199 234 L196 231 L196 227 L192 224 Z M183 242 L184 241 L198 241 L199 245 L197 247 L186 247 L183 245 Z M186 236 L194 235 L195 237 L187 238 Z M189 229 L192 228 L193 230 L190 231 Z M282 188 L281 193 L284 194 L283 198 L286 202 L290 199 L291 196 L293 196 L297 202 L301 199 L302 188 L298 187 Z M214 191 L216 200 L219 202 L223 201 L231 202 L236 198 L236 194 L234 193 L235 189 L231 187 L227 188 L218 187 Z M222 193 L224 192 L225 194 L223 195 Z M365 186 L364 234 L362 240 L360 241 L361 248 L358 254 L364 260 L371 260 L374 257 L375 252 L372 247 L373 244 L371 241 L372 237 L370 232 L370 226 L368 224 L368 186 Z M148 186 L148 230 L145 239 L146 242 L145 248 L142 251 L142 255 L147 260 L154 260 L158 256 L157 249 L154 247 L156 242 L154 236 L154 229 L151 221 L151 186 Z M437 184 L436 227 L433 237 L433 246 L430 249 L430 253 L435 258 L443 258 L446 255 L447 249 L442 244 L445 241 L442 229 L442 219 L440 218 L440 185 Z M76 185 L76 222 L74 228 L73 241 L71 247 L69 248 L69 252 L74 258 L83 258 L86 254 L86 248 L83 245 L84 239 L82 233 L82 226 L80 224 L79 184 Z M258 160 L250 166 L250 178 L262 179 L263 182 L245 192 L244 208 L235 211 L231 216 L232 230 L220 236 L217 249 L219 255 L228 260 L270 260 L269 264 L273 269 L262 268 L256 279 L254 269 L239 268 L234 272 L236 281 L240 282 L243 274 L247 273 L249 281 L254 282 L263 293 L268 293 L280 287 L280 261 L294 258 L299 252 L300 242 L294 233 L284 230 L284 214 L276 208 L272 192 L262 185 L266 183 L267 166 Z M269 286 L270 288 L266 290 L265 288 Z M260 283 L263 282 L264 284 L261 285 Z M270 272 L272 275 L266 279 L265 278 L266 274 Z M236 246 L238 245 L239 247 L237 248 Z M220 243 L222 239 L228 235 L287 235 L294 239 L297 244 L295 252 L289 257 L260 257 L258 252 L264 251 L265 241 L256 240 L253 243 L253 250 L257 253 L257 256 L246 257 L246 241 L232 240 L228 243 L230 251 L238 250 L239 252 L236 253 L234 257 L227 257 L222 253 Z M269 222 L274 228 L273 231 L266 230 L266 227 Z M257 220 L259 219 L261 222 L258 223 Z M246 220 L249 219 L251 222 L248 224 Z M278 214 L282 217 L283 221 L282 226 L279 230 L277 230 L275 227 Z M233 222 L236 215 L240 212 L277 212 L278 213 L277 215 L270 216 L263 215 L260 218 L254 215 L249 216 L243 215 L240 217 L239 224 L242 227 L245 227 L247 225 L251 227 L258 227 L259 228 L258 231 L240 231 L237 229 Z M256 205 L260 203 L264 205 L265 207 L261 209 L257 207 Z M267 193 L271 197 L271 203 L268 207 L265 206 L266 204 L265 197 Z M264 192 L266 191 L267 193 L265 194 Z M263 189 L264 190 L263 193 L254 193 L250 196 L252 198 L250 202 L256 206 L254 209 L250 209 L246 203 L247 195 L254 189 L257 188 Z M259 171 L261 170 L262 172 L260 173 Z M400 145 L400 181 L399 182 L400 190 L398 194 L396 205 L397 209 L394 210 L394 217 L401 222 L401 225 L394 231 L395 234 L394 240 L397 242 L403 241 L408 242 L410 238 L408 234 L409 229 L405 228 L403 225 L405 221 L409 219 L410 212 L407 208 L408 202 L406 201 L407 197 L404 190 L403 144 Z M113 143 L112 190 L110 195 L111 199 L109 204 L109 209 L106 211 L106 216 L109 220 L113 222 L113 225 L109 228 L106 233 L108 235 L109 242 L115 241 L120 242 L122 239 L121 234 L122 229 L117 228 L115 225 L118 224 L118 221 L122 217 L122 211 L119 208 L121 203 L119 201 L120 198 L118 192 L118 184 L116 183 L115 143 Z M259 130 L261 134 L255 138 L255 141 L257 143 L264 142 L265 144 L263 146 L257 147 L250 141 L250 137 L256 133 L256 131 L252 132 L246 140 L248 150 L254 154 L265 153 L268 150 L269 145 L271 144 L269 140 L266 138 L265 132 Z M324 105 L324 165 L322 166 L323 168 L321 179 L322 183 L320 184 L321 189 L319 191 L320 201 L317 203 L317 208 L321 214 L330 214 L334 210 L334 204 L328 199 L329 197 L333 195 L330 192 L331 187 L329 185 L329 173 L327 164 L327 105 Z M190 105 L190 164 L189 165 L189 175 L187 179 L188 183 L186 184 L185 191 L186 201 L183 203 L183 210 L186 214 L195 214 L199 212 L200 203 L194 199 L195 197 L197 197 L197 193 L195 186 L196 182 L194 176 L194 165 L193 164 L193 106 Z M290 64 L290 124 L289 125 L289 138 L288 143 L286 145 L285 153 L290 153 L291 155 L284 157 L285 161 L283 163 L283 170 L289 175 L294 175 L300 170 L300 163 L296 159 L298 156 L298 153 L296 151 L295 146 L296 142 L294 136 L294 124 L293 123 L293 64 Z M224 64 L223 65 L223 125 L222 126 L222 138 L220 145 L221 148 L219 152 L224 153 L225 155 L219 156 L219 160 L217 162 L217 169 L220 174 L227 175 L230 174 L235 167 L235 165 L229 159 L231 157 L231 147 L229 146 L230 142 L228 136 L228 124 L227 123 L227 65 Z M224 165 L226 164 L227 166 L225 167 Z M257 17 L257 53 L255 68 L256 74 L254 78 L254 88 L252 96 L252 100 L256 100 L257 102 L250 104 L250 109 L248 111 L248 118 L253 124 L261 125 L266 123 L268 119 L268 111 L266 109 L265 94 L261 92 L262 90 L264 90 L264 87 L262 81 L263 77 L262 67 L260 65 L260 18 Z M251 116 L253 115 L254 117 L252 118 Z"/></svg>
