<svg xmlns="http://www.w3.org/2000/svg" width="512" height="512" viewBox="0 0 512 512" aria-hidden="true" focusable="false"><path fill="currentColor" fill-rule="evenodd" clip-rule="evenodd" d="M255 17 L247 64 L234 81 L231 103 L221 99 L214 125 L215 139 L234 159 L224 158 L206 137 L195 134 L199 142 L197 164 L203 176 L168 181 L146 171 L144 261 L155 307 L167 329 L152 366 L133 359 L142 346 L143 333 L127 313 L129 299 L152 328 L153 341 L144 358 L155 348 L156 328 L134 297 L130 276 L118 262 L117 240 L111 236 L112 248 L105 261 L109 278 L104 279 L100 309 L107 324 L130 343 L115 351 L112 369 L135 406 L109 382 L100 358 L98 328 L109 334 L100 322 L93 320 L97 363 L108 388 L128 407 L151 415 L126 427 L148 441 L175 442 L169 451 L177 454 L208 449 L217 463 L231 465 L257 496 L269 476 L281 465 L294 464 L304 448 L317 454 L343 451 L337 442 L364 441 L387 427 L361 415 L384 407 L407 383 L415 364 L420 320 L404 331 L414 329 L406 376 L399 388 L377 406 L395 383 L401 364 L397 351 L382 343 L407 322 L412 311 L409 279 L403 278 L407 260 L399 236 L393 247 L394 264 L383 274 L376 301 L357 325 L359 351 L342 357 L332 370 L316 373 L295 385 L334 347 L358 305 L369 251 L365 195 L379 175 L381 144 L370 118 L372 96 L336 151 L336 179 L309 176 L315 164 L313 143 L317 134 L291 148 L298 136 L291 98 L282 104 L280 112 L287 108 L295 131 L291 142 L280 148 L284 126 L272 110 L280 102 L280 86 L265 63 Z M255 443 L257 443 L259 446 L266 450 L265 455 L257 463 L255 463 L246 453 L246 450 Z M274 426 L276 428 L276 439 L270 445 L265 445 L263 443 L263 437 L265 433 L271 427 Z M238 426 L241 427 L249 436 L250 442 L247 445 L242 445 L236 438 L236 429 Z M241 412 L243 415 L233 420 L232 438 L235 445 L241 449 L241 453 L252 465 L255 472 L257 472 L261 464 L269 456 L270 449 L276 446 L280 439 L280 420 L269 414 L270 412 L284 418 L295 430 L299 439 L299 452 L297 456 L291 461 L283 461 L279 454 L282 452 L284 455 L288 451 L290 445 L288 432 L286 428 L283 427 L286 446 L280 448 L276 452 L275 467 L271 471 L265 470 L265 477 L257 487 L255 487 L247 477 L247 470 L241 471 L237 467 L237 454 L235 449 L227 448 L226 440 L229 427 L227 427 L223 435 L223 448 L228 455 L231 452 L233 457 L229 461 L224 462 L219 460 L213 451 L213 440 L218 429 L228 418 Z M315 412 L318 411 L323 413 L338 424 L340 424 L340 422 L335 417 L324 410 L325 408 L340 409 L353 415 L366 425 L373 427 L375 431 L367 436 L355 439 L337 438 L331 435 L325 423 Z M197 412 L188 422 L181 435 L172 439 L153 438 L143 435 L137 431 L138 427 L142 427 L148 424 L161 414 L172 409 L177 408 L188 409 L186 412 L181 414 L176 419 L176 421 L178 421 L195 411 Z M277 409 L280 407 L292 407 L300 409 L311 415 L321 424 L333 448 L328 451 L323 451 L321 449 L313 448 L306 445 L303 442 L302 435 L295 423 L287 415 L278 411 Z M235 409 L234 411 L225 415 L214 427 L208 444 L204 445 L203 447 L191 449 L189 451 L184 451 L179 448 L189 427 L199 416 L210 410 L221 407 L232 407 Z M255 404 L257 404 L261 409 L261 411 L264 413 L267 421 L265 428 L259 435 L257 434 L257 432 L255 432 L255 434 L253 435 L245 425 L246 416 L248 415 L248 413 Z M178 366 L195 364 L216 381 L218 386 L216 387 L211 382 L199 374 L180 370 Z M156 371 L160 365 L171 364 L175 369 L174 376 L183 374 L199 378 L209 385 L223 400 L220 401 L205 390 L193 386 L193 388 L201 391 L214 403 L210 404 L200 399 L202 403 L201 405 L191 404 L181 399 L173 392 L169 383 L169 377 L171 374 L167 372 L167 389 L170 394 L179 402 L178 404 L174 405 L165 400 L156 390 L154 384 Z M133 364 L139 367 L146 368 L151 372 L151 378 L150 379 L144 378 L144 379 L151 386 L153 393 L159 400 L158 402 L153 401 L144 395 L136 386 L132 376 L132 365 Z M353 359 L353 365 L358 377 L358 385 L353 395 L345 402 L338 405 L333 403 L342 394 L346 387 L347 377 L345 372 L342 374 L343 383 L339 392 L333 398 L325 401 L324 403 L310 405 L309 403 L312 401 L312 399 L302 404 L298 403 L311 391 L319 388 L319 386 L307 390 L292 401 L289 400 L302 386 L310 380 L323 375 L337 375 L338 367 L344 361 L351 358 Z M203 357 L205 357 L219 369 L217 375 L214 374 L200 362 L200 360 Z M389 349 L394 354 L396 360 L395 372 L389 385 L384 392 L372 403 L363 408 L352 410 L351 409 L352 407 L357 406 L366 401 L379 389 L384 376 L383 360 L386 357 L386 355 L382 354 L382 351 L384 349 Z M255 349 L258 350 L271 367 L277 380 L277 388 L274 396 L263 405 L259 401 L257 394 L255 394 L250 405 L245 403 L238 396 L235 388 L236 377 L240 369 Z M123 349 L128 349 L131 352 L129 355 L126 355 L126 357 L129 360 L128 376 L133 389 L136 391 L136 393 L146 401 L155 406 L161 408 L160 410 L155 410 L141 404 L129 393 L123 385 L117 371 L117 366 L115 364 L117 361 L118 354 Z M255 321 L259 323 L271 340 L273 345 L273 354 L275 354 L278 350 L287 363 L290 371 L291 385 L288 394 L276 404 L274 402 L281 389 L280 377 L276 367 L263 352 L257 339 L255 339 L249 352 L235 369 L232 377 L232 393 L238 403 L236 404 L232 402 L225 395 L222 388 L221 377 L226 362 L234 350 L237 354 L240 353 L240 343 Z M383 299 L386 305 L386 311 L384 315 L374 324 L369 333 L370 345 L379 356 L380 377 L374 389 L367 396 L353 403 L352 401 L359 393 L361 386 L368 379 L363 379 L361 377 L361 372 L366 368 L373 367 L372 364 L364 365 L361 367 L357 365 L357 358 L359 356 L369 357 L369 355 L362 349 L360 344 L360 329 L365 319 Z M401 279 L403 278 L404 280 L402 281 Z M108 279 L110 278 L111 280 L109 281 Z M315 289 L321 303 L322 336 L293 364 L284 353 L281 342 L277 343 L266 328 L257 308 L237 341 L231 342 L221 364 L206 353 L213 333 L275 273 L297 278 Z M401 257 L403 262 L403 270 L396 279 L396 287 L398 290 L402 286 L405 288 L405 292 L408 299 L408 310 L405 317 L399 324 L383 334 L378 342 L378 346 L376 347 L373 343 L373 334 L375 330 L381 323 L390 320 L398 312 L398 304 L396 302 L393 312 L391 314 L389 313 L390 310 L389 302 L391 301 L391 299 L385 290 L385 280 L390 272 L394 272 L394 269 L398 264 L398 258 Z M112 257 L114 258 L114 263 L119 272 L122 272 L124 274 L128 283 L127 291 L121 299 L121 301 L123 302 L123 313 L122 314 L119 313 L116 303 L114 305 L114 311 L119 318 L130 322 L137 330 L138 335 L140 337 L137 346 L134 345 L134 342 L130 335 L126 331 L112 323 L105 313 L104 301 L108 287 L110 286 L113 290 L115 289 L115 278 L109 269 L109 262 Z M349 202 L353 225 L351 269 L339 308 L327 327 L325 301 L320 289 L312 281 L282 267 Z M360 197 L364 220 L364 257 L361 278 L354 303 L337 335 L323 351 L323 353 L302 371 L295 375 L294 368 L302 362 L328 335 L340 316 L348 297 L354 276 L357 253 L357 223 L354 199 Z M269 193 L280 205 L282 225 L286 226 L286 232 L204 312 L192 320 L192 304 L198 290 L213 280 L235 273 L240 267 L241 258 L226 231 L226 226 L230 225 L230 213 L235 200 L248 191 Z M285 163 L286 162 L296 162 L297 164 L292 166 L287 166 Z M215 163 L225 162 L226 165 L222 167 L219 165 L216 165 Z M356 161 L359 166 L357 180 L348 188 L342 186 L338 188 L345 199 L210 330 L201 353 L190 361 L183 361 L182 356 L175 360 L163 360 L164 352 L171 346 L166 343 L168 337 L179 326 L185 326 L188 331 L181 333 L178 348 L192 349 L198 346 L200 336 L193 338 L195 343 L192 345 L184 343 L184 337 L192 333 L191 326 L201 321 L327 198 L341 176 L354 170 L353 162 Z M320 196 L291 227 L283 201 L276 192 L252 186 L236 193 L229 201 L222 224 L225 242 L236 258 L236 265 L198 284 L189 298 L187 320 L179 319 L165 287 L160 261 L159 229 L164 197 L187 197 L213 190 L255 161 L291 186 Z M236 152 L240 151 L241 154 L237 155 Z M274 150 L277 151 L275 155 L272 154 Z M290 149 L291 152 L289 157 L280 161 L278 159 L279 156 L282 153 Z M277 148 L279 147 L280 149 L278 150 Z M329 187 L325 192 L320 192 L293 183 L270 168 L256 155 L240 170 L209 187 L186 193 L159 193 L155 227 L157 269 L164 297 L175 320 L175 323 L172 325 L167 322 L154 289 L148 254 L148 224 L154 182 L165 186 L185 186 L206 180 L231 168 L257 146 L283 169 L306 180 Z M204 142 L207 144 L209 151 L213 149 L218 154 L217 158 L210 160 L211 165 L217 169 L214 172 L207 171 L201 163 L201 154 Z M309 140 L310 141 L309 154 L312 156 L311 163 L305 171 L298 172 L296 169 L302 164 L302 159 L294 160 L293 155 L299 149 L303 151 L305 143 Z M255 114 L259 116 L259 118 L265 123 L265 125 L270 131 L271 137 L266 147 L259 141 L257 137 L255 137 L254 140 L248 147 L242 141 L243 129 L246 127 L248 122 L253 118 Z M365 113 L367 126 L370 127 L373 133 L373 139 L366 151 L370 151 L375 148 L377 149 L377 156 L375 162 L369 167 L370 170 L374 170 L375 172 L370 183 L362 191 L356 194 L348 194 L347 192 L355 188 L360 182 L363 174 L363 165 L359 158 L356 156 L349 157 L347 165 L349 165 L350 168 L348 170 L345 170 L340 166 L339 156 L343 148 L355 134 L357 135 L357 142 L361 140 L363 135 L363 126 L360 124 L362 115 Z M235 102 L241 106 L241 109 L232 119 L228 127 L228 138 L232 146 L231 148 L229 148 L221 142 L218 136 L218 126 L220 122 L223 122 L222 116 L225 108 L227 107 L231 113 L232 112 L231 104 Z M255 99 L259 101 L264 108 L275 119 L280 127 L281 136 L277 145 L274 147 L271 146 L274 141 L273 129 L260 112 L257 105 L255 105 L253 111 L239 129 L238 140 L240 146 L237 147 L232 139 L231 133 L235 122 Z M255 77 L257 77 L262 83 L265 90 L265 96 L262 98 L257 89 L255 89 L253 95 L249 99 L247 95 L248 87 Z M257 41 L259 49 L262 54 L262 60 L260 63 L262 64 L264 69 L267 72 L267 77 L268 78 L271 77 L275 83 L276 96 L269 104 L266 103 L269 95 L269 90 L265 80 L260 74 L257 67 L255 67 L254 71 L245 84 L244 99 L246 104 L244 105 L236 95 L236 87 L241 77 L244 78 L246 71 L252 63 L250 59 L250 55 L253 49 L254 43 Z"/></svg>
