<svg xmlns="http://www.w3.org/2000/svg" width="512" height="512" viewBox="0 0 512 512" aria-hidden="true" focusable="false"><path fill="currentColor" fill-rule="evenodd" clip-rule="evenodd" d="M242 387 L241 393 L244 397 L237 399 L237 405 L240 407 L249 407 L251 409 L250 413 L252 417 L249 420 L245 421 L244 432 L251 438 L250 440 L248 440 L247 444 L254 447 L253 449 L249 449 L249 453 L253 455 L252 457 L250 457 L250 460 L252 462 L251 468 L252 480 L254 482 L254 495 L256 495 L257 467 L260 464 L258 460 L261 458 L259 452 L262 450 L262 447 L260 445 L262 437 L253 436 L250 432 L252 431 L255 433 L259 433 L263 431 L264 428 L263 420 L256 417 L260 412 L258 408 L269 407 L273 402 L270 398 L264 398 L254 406 L244 398 L245 395 L249 394 L249 390 L246 387 Z M248 429 L250 428 L251 430 L249 431 Z M248 423 L250 420 L257 420 L261 424 L261 426 L258 428 L256 423 L253 423 L250 425 Z M264 402 L268 401 L269 403 L265 404 Z M241 402 L243 401 L244 403 L242 404 Z M172 365 L166 365 L165 367 L154 365 L149 372 L152 376 L150 384 L160 383 L161 387 L159 389 L159 393 L161 395 L165 395 L167 391 L171 390 L173 397 L164 405 L160 405 L152 398 L145 399 L145 405 L147 407 L158 408 L159 417 L152 422 L151 427 L152 432 L159 438 L154 442 L154 444 L161 447 L155 452 L160 454 L158 460 L161 474 L162 495 L164 494 L165 490 L165 467 L167 465 L166 460 L168 458 L167 452 L170 437 L162 436 L161 434 L167 433 L171 429 L172 424 L168 420 L168 427 L166 428 L164 423 L160 423 L158 426 L158 432 L155 430 L154 426 L159 420 L164 419 L168 407 L177 407 L180 404 L179 399 L173 397 L176 394 L174 390 L174 383 L176 382 L176 379 L172 373 Z M172 402 L174 401 L175 403 L173 404 Z M148 402 L151 401 L152 403 L149 404 Z M160 371 L164 371 L167 375 L171 376 L172 383 L169 387 L167 387 L165 383 L162 382 L160 379 L156 378 Z M304 364 L296 365 L288 371 L284 371 L282 374 L283 387 L287 387 L288 391 L291 393 L297 391 L307 398 L301 405 L297 405 L289 398 L282 399 L283 406 L296 408 L296 417 L289 423 L289 432 L296 438 L291 443 L299 447 L298 449 L294 449 L294 453 L297 454 L295 457 L297 462 L295 467 L297 469 L298 494 L301 493 L301 472 L303 460 L306 458 L304 452 L306 451 L305 443 L307 441 L307 437 L300 436 L299 434 L307 432 L309 428 L308 420 L302 417 L305 412 L303 408 L314 407 L318 403 L315 398 L308 397 L308 393 L314 388 L314 381 L312 380 L314 371 L310 366 Z M293 429 L295 428 L296 430 L294 431 Z M300 428 L302 427 L303 429 L301 430 Z M293 423 L296 420 L302 420 L306 426 L303 428 L301 423 L298 423 L294 426 Z M309 402 L312 401 L313 403 L310 404 Z M286 402 L288 401 L289 403 L287 404 Z M285 378 L289 372 L292 374 L300 373 L301 368 L304 367 L310 371 L306 379 L309 381 L311 386 L309 388 L302 388 L294 384 L291 384 L290 381 L286 380 Z M361 359 L361 372 L359 376 L359 380 L361 382 L359 383 L359 385 L366 384 L371 374 L370 369 L366 366 L365 360 Z M364 377 L365 379 L362 381 L361 379 Z M260 347 L257 348 L257 351 L254 354 L255 358 L257 358 L261 352 L263 353 L263 357 L260 359 L260 361 L264 364 L262 371 L260 371 L259 373 L256 371 L252 371 L251 370 L252 365 L247 365 L245 362 L240 366 L238 366 L238 369 L242 372 L241 374 L242 382 L245 382 L248 379 L250 379 L256 383 L256 388 L252 390 L252 392 L255 395 L257 395 L259 392 L261 393 L261 395 L263 395 L264 392 L268 388 L268 384 L265 381 L267 378 L267 375 L265 373 L267 369 L267 362 L265 359 L268 355 L268 352 L265 349 Z M261 386 L264 387 L262 392 L260 391 Z M259 379 L261 380 L260 384 L258 383 Z M306 325 L301 326 L301 330 L298 336 L296 335 L296 331 L293 326 L288 326 L286 328 L286 331 L284 332 L284 335 L286 336 L286 340 L288 343 L286 347 L286 353 L292 354 L294 356 L294 360 L297 360 L297 355 L299 353 L309 354 L310 350 L312 349 L312 345 L308 345 L307 351 L304 349 L298 349 L295 351 L293 349 L300 342 L302 336 L304 336 L307 341 L310 341 L313 338 L314 335 L313 330 L311 328 L308 328 Z M290 331 L293 333 L293 339 L295 340 L293 343 L290 341 L289 338 Z M307 329 L308 331 L303 336 L302 335 L303 331 Z M201 316 L198 320 L200 326 L198 337 L203 342 L215 340 L213 344 L214 348 L206 356 L216 356 L213 361 L217 363 L216 371 L212 373 L212 377 L217 380 L217 385 L212 389 L205 385 L204 372 L208 366 L200 357 L200 355 L205 352 L204 348 L201 348 L197 354 L198 366 L203 371 L199 372 L197 376 L197 393 L199 395 L204 395 L206 391 L211 391 L219 397 L209 406 L199 398 L193 398 L191 400 L191 405 L193 407 L205 408 L204 413 L206 417 L198 423 L198 431 L205 438 L200 443 L207 447 L206 449 L203 449 L203 453 L207 455 L204 457 L206 462 L207 494 L210 495 L211 467 L213 465 L212 460 L215 457 L213 452 L216 450 L214 443 L217 438 L208 436 L207 434 L216 432 L218 428 L217 420 L212 417 L213 408 L225 406 L226 401 L224 398 L219 397 L221 394 L221 375 L219 373 L221 367 L219 357 L221 353 L218 350 L221 342 L218 340 L219 332 L213 330 L211 336 L207 340 L200 335 L205 325 L215 325 L219 321 L219 318 L217 317 L214 321 L208 322 Z M202 429 L204 428 L205 431 L203 432 Z M202 423 L204 420 L211 420 L215 424 L215 426 L212 428 L210 423 L206 423 L203 426 Z M218 402 L222 401 L223 403 L219 404 Z M195 402 L197 401 L198 403 L196 404 Z M218 299 L215 297 L212 300 L211 307 L206 307 L203 301 L199 301 L196 305 L196 309 L199 312 L203 312 L205 310 L214 310 L217 314 L219 314 Z M352 295 L347 295 L351 301 L346 305 L346 308 L352 310 L351 315 L345 316 L338 312 L332 312 L331 316 L333 319 L340 318 L350 322 L354 326 L354 331 L352 333 L338 334 L338 330 L333 328 L328 320 L325 322 L325 334 L334 338 L335 341 L339 343 L338 345 L334 343 L331 346 L334 351 L340 347 L353 349 L353 356 L350 361 L346 360 L341 362 L333 360 L331 365 L333 369 L331 378 L336 387 L331 393 L332 397 L328 399 L328 405 L331 407 L340 407 L343 416 L335 423 L334 428 L335 432 L343 438 L339 440 L338 444 L345 447 L344 449 L340 449 L340 453 L344 454 L341 460 L344 470 L345 495 L347 495 L348 466 L351 464 L349 460 L352 458 L350 453 L352 447 L350 444 L353 441 L353 437 L345 436 L343 433 L351 433 L354 430 L353 419 L348 417 L351 413 L349 408 L360 407 L364 402 L361 398 L354 398 L349 404 L343 405 L332 396 L338 390 L342 390 L346 400 L348 400 L352 390 L347 390 L342 385 L355 385 L354 371 L352 371 L353 376 L351 378 L349 377 L349 373 L346 373 L347 380 L342 381 L341 386 L337 385 L338 382 L334 377 L337 365 L342 363 L353 366 L357 356 L357 348 L354 345 L343 345 L339 342 L343 336 L350 336 L352 338 L357 335 L358 327 L353 320 L357 311 L352 307 L354 303 L354 297 Z M340 431 L342 430 L343 432 L341 433 Z M338 426 L341 420 L348 420 L351 422 L352 425 L349 430 L347 429 L348 427 L347 423 L342 424 L340 429 L338 428 Z M355 402 L358 401 L359 403 L356 404 Z M256 294 L255 297 L257 297 L260 300 L260 303 L256 306 L255 308 L256 313 L252 317 L254 319 L257 319 L258 316 L260 315 L262 320 L267 321 L267 318 L265 316 L267 308 L262 304 L264 301 L263 296 Z M258 309 L261 308 L263 312 L262 313 L259 312 Z M289 293 L286 297 L286 301 L287 302 L291 301 L292 302 L291 305 L295 307 L296 296 L298 295 L300 302 L300 309 L297 312 L291 309 L288 309 L287 314 L290 316 L293 316 L295 318 L295 321 L297 321 L299 319 L299 316 L302 313 L303 307 L305 306 L306 309 L310 311 L309 321 L313 320 L313 311 L310 309 L313 305 L313 298 L311 296 L308 296 L309 304 L306 306 L305 305 L306 299 L301 298 L302 293 L299 290 L293 294 Z M158 268 L156 270 L151 270 L148 273 L148 277 L152 278 L156 276 L157 279 L155 280 L155 283 L159 282 L160 277 L163 278 L163 281 L159 289 L154 286 L149 288 L151 293 L156 294 L159 299 L161 297 L161 292 L164 290 L167 283 L172 286 L171 294 L164 301 L164 307 L159 307 L154 301 L151 301 L150 306 L148 307 L148 309 L150 310 L157 309 L160 311 L160 320 L164 324 L163 327 L158 328 L155 321 L151 323 L149 328 L153 334 L149 340 L152 345 L148 351 L148 356 L152 361 L157 361 L157 359 L152 356 L153 349 L158 343 L164 342 L169 339 L172 350 L165 351 L161 360 L166 361 L169 359 L170 361 L174 362 L174 353 L172 351 L174 349 L174 322 L171 319 L165 319 L163 315 L164 311 L166 309 L171 309 L174 304 L174 297 L176 295 L174 293 L174 290 L176 288 L174 279 L176 278 L176 276 L173 273 L173 268 Z M155 334 L156 332 L162 330 L171 331 L170 333 L166 334 L164 339 L159 339 Z M166 323 L169 322 L171 326 L168 328 L166 326 Z M168 300 L170 299 L171 302 L169 303 Z M171 275 L172 278 L168 281 L167 278 L169 275 Z M266 258 L263 259 L262 270 L257 273 L257 275 L261 278 L261 281 L263 283 L263 285 L260 288 L255 289 L250 288 L245 282 L241 284 L236 283 L236 287 L245 292 L245 295 L239 302 L239 307 L242 309 L241 312 L242 321 L241 325 L239 326 L239 329 L241 330 L243 336 L247 341 L244 344 L244 350 L238 353 L238 356 L240 358 L245 359 L250 358 L250 353 L254 350 L254 345 L252 344 L253 342 L256 342 L260 338 L262 340 L267 341 L267 339 L265 338 L265 336 L267 335 L267 329 L263 326 L259 326 L255 329 L256 335 L255 338 L251 338 L250 336 L247 335 L247 333 L244 331 L244 323 L249 320 L249 316 L246 316 L244 314 L243 302 L249 297 L252 297 L252 295 L250 294 L251 291 L261 291 L268 285 L268 282 L265 280 L265 268 L267 266 Z M261 329 L263 330 L262 335 L258 333 L258 331 Z M288 252 L284 257 L286 262 L297 263 L301 261 L303 263 L304 272 L301 277 L295 277 L291 274 L287 274 L284 277 L286 281 L292 282 L293 288 L295 288 L296 282 L299 280 L303 281 L308 275 L309 276 L309 288 L313 288 L313 274 L310 270 L310 267 L314 259 L312 257 L309 258 L303 257 L300 260 L295 260 L292 253 Z M263 251 L260 250 L255 256 L250 255 L247 251 L245 251 L244 255 L241 257 L241 260 L237 261 L236 263 L237 268 L233 270 L232 273 L235 274 L238 271 L242 273 L246 269 L254 271 L254 268 L251 266 L251 263 L256 262 L259 256 L263 256 Z M245 264 L247 263 L248 266 L246 267 Z M153 237 L153 241 L150 247 L148 248 L147 252 L148 257 L150 258 L151 262 L155 265 L160 265 L163 262 L163 258 L161 256 L157 256 L154 259 L152 258 L152 249 L154 245 L156 244 L158 252 L160 252 L163 246 L165 245 L167 253 L172 257 L171 265 L174 265 L176 262 L176 257 L172 253 L174 250 L174 241 L172 239 L164 237 L163 241 L159 242 L156 237 Z M260 219 L256 219 L256 222 L260 224 L260 228 L257 229 L257 232 L260 231 L262 232 L261 239 L253 241 L250 237 L242 237 L241 234 L237 233 L238 225 L236 225 L234 230 L235 238 L242 244 L248 243 L252 248 L254 247 L255 243 L262 243 L267 238 L267 234 L262 231 L263 222 Z M252 219 L251 218 L245 219 L242 222 L242 226 L249 226 L250 223 L252 222 Z M199 202 L194 207 L194 211 L198 215 L196 223 L198 226 L205 225 L206 231 L212 229 L214 225 L217 226 L217 230 L211 237 L206 235 L202 241 L199 241 L198 238 L196 238 L196 243 L199 244 L202 249 L196 250 L194 254 L197 257 L203 257 L204 261 L207 261 L211 265 L211 269 L208 271 L201 268 L200 264 L197 264 L196 271 L206 274 L206 282 L209 285 L209 289 L205 290 L204 286 L200 284 L197 287 L196 294 L201 295 L203 293 L214 293 L219 295 L219 289 L221 287 L219 283 L210 281 L210 276 L213 273 L217 275 L221 274 L218 270 L219 263 L212 262 L211 258 L208 256 L217 255 L221 249 L221 243 L217 237 L221 230 L221 225 L217 222 L217 218 L221 214 L221 211 L219 209 L219 202 L215 202 L213 204 Z M212 287 L215 286 L216 289 L214 290 Z M210 237 L213 241 L216 242 L217 248 L215 251 L210 251 L204 254 L203 253 L204 244 L206 240 Z M204 206 L212 206 L217 211 L216 217 L213 219 L211 223 L208 222 L205 218 L202 219 L200 218 L203 212 Z M172 202 L167 202 L164 208 L159 209 L157 208 L157 205 L155 203 L152 203 L148 208 L148 212 L152 214 L147 223 L148 231 L153 234 L163 235 L167 232 L170 232 L172 235 L176 233 L174 230 L174 224 L171 221 L163 222 L160 224 L162 229 L159 232 L154 230 L151 226 L152 219 L158 212 L166 211 L170 213 L172 219 L176 219 L176 215 L174 214 Z M167 226 L170 225 L171 227 L168 228 Z M306 189 L288 190 L284 195 L284 198 L287 200 L284 203 L284 206 L287 209 L294 210 L294 214 L286 218 L284 221 L284 225 L289 230 L293 232 L297 232 L300 230 L302 224 L304 223 L305 224 L304 228 L307 230 L306 239 L303 238 L296 239 L292 236 L286 236 L284 238 L286 242 L294 244 L294 249 L297 249 L298 243 L301 242 L307 243 L308 241 L312 239 L312 233 L307 230 L309 222 L306 219 L303 218 L295 229 L289 225 L289 221 L292 218 L297 216 L297 210 L302 209 L304 205 L308 206 L307 209 L308 212 L312 212 L312 200 L310 198 L305 198 L303 200 L300 200 L300 204 L296 206 L294 205 L293 202 L290 201 L292 198 L290 195 L291 193 L306 192 L310 195 L313 194 L313 192 Z M196 166 L194 168 L194 174 L199 174 L201 176 L204 176 L206 180 L211 183 L211 186 L210 187 L207 186 L202 191 L195 189 L193 190 L193 194 L203 199 L203 194 L206 193 L209 189 L213 189 L213 187 L216 186 L217 187 L217 199 L219 199 L221 197 L221 187 L218 183 L218 180 L221 177 L221 173 L216 169 L216 165 L211 165 L210 167 L207 165 Z M214 172 L217 174 L215 179 L212 178 Z M151 165 L151 169 L149 171 L150 174 L157 174 L159 176 L159 185 L161 188 L161 193 L159 194 L157 188 L154 186 L149 192 L152 197 L169 196 L172 199 L174 199 L174 195 L172 191 L170 191 L169 193 L165 191 L167 187 L173 187 L173 185 L164 184 L163 183 L164 176 L161 175 L161 172 L158 170 L156 166 Z M166 164 L165 171 L167 172 L167 174 L173 177 L173 164 L171 163 Z M167 168 L169 167 L170 170 L168 171 Z M352 154 L339 154 L338 156 L334 156 L329 165 L329 168 L334 171 L331 179 L331 187 L334 194 L339 198 L351 197 L355 200 L354 206 L351 209 L343 209 L342 206 L329 204 L329 209 L335 211 L336 215 L331 222 L326 219 L327 226 L323 234 L327 239 L333 238 L334 243 L331 250 L339 250 L341 247 L351 251 L349 255 L345 256 L345 260 L350 261 L352 264 L350 267 L345 267 L333 262 L331 263 L331 267 L344 270 L354 277 L353 283 L339 284 L338 280 L333 278 L329 271 L326 271 L325 284 L327 287 L335 290 L335 293 L331 296 L332 300 L337 300 L344 295 L340 292 L341 288 L354 288 L358 284 L358 278 L354 272 L357 263 L351 259 L354 254 L354 247 L358 241 L355 236 L358 230 L351 229 L353 232 L351 237 L354 240 L352 247 L342 242 L348 230 L346 226 L342 230 L342 238 L339 241 L335 239 L335 235 L333 234 L335 230 L335 220 L337 218 L344 219 L352 225 L360 218 L355 211 L359 204 L359 199 L356 196 L358 192 L357 187 L350 184 L346 190 L344 189 L346 180 L353 172 L355 173 L354 178 L359 179 L358 168 L352 165 L348 172 L335 170 L335 166 L339 164 L338 160 L341 158 L359 160 L359 157 Z M333 284 L335 283 L336 285 L334 286 Z M332 226 L333 228 L329 232 L328 231 L329 227 Z M339 211 L343 209 L349 214 L350 218 L348 219 L342 216 L339 213 Z M340 173 L341 174 L340 178 L342 179 L340 186 L340 192 L338 193 L334 187 L334 180 L335 177 Z M241 154 L239 156 L238 161 L242 160 L247 161 L248 159 L259 159 L263 161 L263 165 L258 167 L256 173 L244 171 L240 167 L236 170 L236 172 L239 175 L238 189 L242 197 L246 199 L252 199 L255 198 L255 196 L257 195 L258 199 L261 200 L261 208 L258 211 L254 212 L252 210 L246 210 L245 208 L240 206 L238 208 L238 212 L245 213 L247 215 L252 214 L257 216 L264 209 L263 201 L264 190 L262 187 L256 186 L255 191 L252 192 L251 186 L252 183 L259 176 L265 182 L265 169 L263 165 L266 164 L268 161 L267 158 L260 156 L246 157 Z M260 190 L261 194 L258 196 L257 193 Z M245 174 L250 175 L248 195 L245 194 L242 188 L242 180 Z M185 147 L185 153 L190 159 L196 157 L200 161 L203 161 L205 159 L210 159 L211 152 L213 151 L215 153 L215 160 L219 161 L219 158 L217 157 L219 148 L210 147 L207 152 L206 157 L202 158 L199 155 L200 147 L196 147 L191 153 L189 152 L190 144 L186 145 Z M287 126 L284 131 L288 134 L295 133 L296 139 L299 140 L299 143 L294 148 L291 146 L288 146 L284 149 L284 151 L287 154 L293 155 L292 157 L288 157 L284 162 L287 165 L296 163 L297 170 L299 172 L294 177 L288 174 L284 176 L284 179 L290 180 L293 186 L295 186 L296 180 L299 179 L299 177 L308 166 L310 167 L310 170 L308 175 L304 179 L307 180 L310 178 L314 172 L314 165 L309 162 L309 159 L307 159 L303 165 L296 159 L296 152 L307 135 L310 136 L310 143 L304 151 L302 151 L302 153 L307 153 L310 150 L310 148 L314 144 L314 134 L311 132 L305 131 L303 135 L301 136 L300 130 L298 128 L290 128 L289 126 Z M150 126 L147 129 L147 133 L155 134 L158 131 L159 139 L161 140 L161 142 L155 151 L152 150 L152 147 L149 147 L147 149 L147 152 L154 155 L154 160 L158 160 L158 153 L161 150 L162 145 L166 141 L168 134 L170 133 L172 135 L173 142 L171 147 L165 151 L165 153 L171 152 L171 148 L176 145 L177 136 L173 131 L166 133 L166 135 L164 136 L160 127 L154 128 L153 126 Z M331 126 L332 131 L336 132 L332 137 L332 141 L335 142 L339 147 L341 147 L341 144 L336 139 L339 135 L347 132 L351 134 L356 132 L357 141 L355 143 L351 143 L349 145 L349 148 L351 150 L359 149 L360 128 L357 126 L357 124 L352 124 L348 130 L344 130 L340 124 Z M223 124 L217 124 L215 122 L212 122 L210 124 L210 127 L213 130 L209 135 L206 133 L205 128 L201 128 L199 125 L196 125 L193 128 L193 130 L197 133 L203 134 L206 138 L206 141 L204 143 L204 146 L206 146 L211 140 L213 135 L216 138 L219 137 L222 131 L221 127 L223 126 Z M215 130 L217 129 L218 131 L216 132 Z M347 17 L344 18 L344 44 L342 46 L344 52 L341 53 L341 56 L344 57 L345 59 L340 61 L340 64 L343 65 L344 67 L338 69 L338 72 L344 73 L345 77 L338 81 L334 88 L335 95 L343 100 L341 105 L343 112 L328 113 L327 114 L328 121 L335 121 L340 117 L342 117 L343 115 L350 115 L356 121 L361 121 L364 118 L364 115 L361 112 L350 112 L348 110 L349 108 L351 108 L351 104 L348 100 L355 95 L355 87 L350 82 L351 80 L354 79 L354 75 L350 72 L353 69 L353 66 L351 64 L352 58 L349 55 L351 51 L348 48 L347 42 Z M357 116 L359 115 L360 117 L358 118 Z M331 116 L333 115 L334 117 L332 118 Z M351 87 L352 93 L349 96 L343 96 L342 94 L348 93 L349 88 Z M339 87 L341 88 L342 91 L341 94 L338 91 Z M339 85 L341 84 L342 86 L340 87 Z M341 83 L343 82 L344 84 L342 85 Z M298 17 L296 45 L297 51 L294 54 L294 56 L297 59 L293 61 L296 67 L293 68 L291 71 L293 73 L297 73 L299 76 L294 79 L288 86 L289 95 L293 99 L297 100 L295 105 L297 111 L294 113 L283 112 L281 114 L281 120 L289 121 L297 115 L304 115 L309 121 L315 121 L318 117 L315 112 L303 111 L305 105 L302 100 L308 96 L309 87 L306 83 L303 82 L307 78 L307 74 L303 72 L307 68 L307 66 L304 63 L306 58 L303 55 L301 42 L301 19 Z M310 116 L312 115 L313 117 L311 118 Z M284 116 L287 115 L288 117 L285 118 Z M293 85 L295 86 L295 91 L297 93 L302 93 L304 88 L306 89 L306 93 L303 96 L296 96 L292 93 L291 90 Z M253 17 L251 45 L252 52 L250 53 L250 56 L254 59 L249 60 L249 64 L253 67 L248 68 L247 72 L253 73 L254 76 L249 79 L243 87 L244 95 L252 100 L250 105 L252 111 L249 113 L238 112 L236 114 L237 121 L244 121 L255 114 L262 117 L263 122 L257 128 L252 129 L248 124 L241 125 L238 130 L243 133 L239 141 L247 147 L248 152 L251 151 L251 147 L245 138 L253 132 L264 134 L265 143 L258 145 L258 150 L260 152 L268 151 L269 129 L264 122 L270 121 L273 118 L273 115 L270 112 L261 112 L260 104 L257 101 L263 96 L264 87 L259 82 L262 78 L262 74 L258 71 L262 68 L262 66 L260 64 L261 58 L258 55 L256 44 L256 19 Z M241 116 L243 115 L244 117 L242 118 Z M261 89 L261 93 L258 96 L250 95 L251 93 L257 93 L259 88 Z M248 87 L250 88 L251 91 L250 94 L247 91 Z M248 85 L250 84 L251 86 L249 87 Z M253 81 L255 80 L256 82 L254 83 Z M207 17 L205 45 L206 51 L204 53 L204 56 L207 59 L202 61 L202 63 L207 67 L202 68 L200 72 L207 73 L208 76 L203 79 L198 84 L197 87 L198 95 L206 101 L205 103 L206 111 L203 113 L193 112 L190 115 L190 119 L192 121 L199 121 L206 115 L212 115 L218 121 L224 121 L225 118 L223 112 L213 111 L212 100 L218 94 L218 87 L213 82 L214 80 L216 80 L217 75 L212 72 L216 68 L216 66 L213 63 L215 58 L212 55 L213 50 L211 48 L210 42 L210 19 Z M219 116 L221 115 L222 117 L220 118 Z M194 116 L197 115 L198 117 L195 118 Z M200 88 L204 84 L205 93 L211 93 L212 88 L214 87 L215 93 L212 96 L204 96 L202 92 L200 91 Z M159 17 L157 46 L158 51 L155 53 L156 57 L154 59 L154 61 L158 62 L159 65 L153 67 L152 70 L157 70 L161 76 L155 81 L153 81 L149 87 L150 88 L149 93 L152 98 L158 101 L157 108 L159 112 L155 115 L152 115 L151 113 L148 112 L142 113 L141 119 L153 120 L156 118 L163 118 L166 116 L172 121 L178 121 L179 114 L177 112 L166 112 L164 110 L166 108 L164 100 L170 96 L171 88 L166 82 L168 80 L168 74 L162 70 L163 68 L167 67 L165 48 L163 46 L163 24 L161 22 L161 17 Z M173 116 L175 115 L176 117 L174 118 Z M146 116 L148 115 L149 117 L147 118 Z M161 107 L163 106 L164 108 L162 109 Z M165 88 L167 89 L166 93 L164 92 Z M153 87 L156 85 L157 92 L164 93 L165 95 L157 96 L153 92 Z"/></svg>
