<svg xmlns="http://www.w3.org/2000/svg" width="512" height="512" viewBox="0 0 512 512" aria-hidden="true" focusable="false"><path fill="currentColor" fill-rule="evenodd" clip-rule="evenodd" d="M34 384 L35 392 L39 391 L41 392 L73 392 L73 390 L76 388 L77 391 L81 393 L84 392 L96 393 L95 385 L92 383 L88 384 L81 383 L75 387 L73 387 L72 385 L69 387 L66 387 L64 385 L59 387 L58 385 L55 386 L54 383 L52 384 L51 387 L49 385 L40 386 L39 384 L37 385 Z M423 385 L423 387 L425 388 L424 392 L426 393 L435 393 L438 391 L440 393 L443 392 L461 393 L462 390 L464 391 L464 393 L470 393 L471 383 L465 382 L463 384 L460 382 L452 384 L450 382 L445 383 L443 385 L436 382 L434 384 L429 382 Z M395 384 L389 382 L388 383 L377 382 L376 384 L357 383 L356 389 L359 390 L359 393 L361 393 L362 389 L365 389 L366 393 L373 393 L374 392 L373 389 L375 388 L377 393 L379 391 L383 393 L383 389 L385 388 L386 392 L392 393 L395 391 Z M282 390 L284 390 L287 393 L289 392 L307 393 L312 391 L315 393 L316 391 L318 391 L318 383 L306 383 L305 382 L298 385 L295 382 L291 382 L289 385 L289 389 L287 390 L285 383 L283 382 Z M203 383 L203 393 L213 392 L220 393 L222 390 L224 391 L224 393 L226 391 L228 393 L231 392 L239 393 L240 391 L242 391 L241 383 L230 383 L229 382 L227 383 L224 382 L223 384 L216 382 L207 384 L205 382 Z M163 391 L160 389 L162 386 L161 383 L149 383 L148 382 L143 384 L133 383 L132 387 L127 383 L126 385 L123 386 L123 390 L125 391 L125 393 L130 393 L131 391 L138 393 L141 392 L142 390 L144 391 L144 393 L151 392 L161 393 Z M154 387 L155 389 L152 391 L151 389 Z M380 365 L381 368 L391 367 L391 365 L388 366 Z M295 359 L294 361 L297 363 L297 368 L302 368 L302 363 L304 359 L300 361 Z M311 354 L309 353 L306 356 L306 358 L308 358 Z M159 354 L157 353 L153 357 L153 359 L155 359 Z M124 353 L124 355 L128 359 L130 359 Z M293 346 L292 350 L295 351 L294 349 L295 346 Z M68 340 L62 340 L57 342 L53 346 L51 351 L51 356 L56 363 L65 364 L68 363 L68 361 L71 358 L71 351 L68 348 L60 349 L58 353 L60 357 L62 358 L65 357 L66 354 L65 352 L63 355 L60 354 L63 349 L66 349 L69 351 L70 357 L68 361 L59 362 L53 355 L54 348 L59 343 L63 342 L70 343 L76 347 L77 351 L76 363 L71 369 L63 371 L56 370 L49 366 L45 357 L46 347 L49 342 L46 343 L44 349 L44 360 L47 365 L56 372 L60 373 L68 372 L73 369 L78 363 L79 350 L74 343 Z M463 339 L461 339 L463 343 L463 352 L461 357 L454 364 L452 364 L447 368 L448 371 L461 360 L461 358 L463 357 L465 353 L466 347 Z M447 338 L441 342 L439 346 L439 351 L442 357 L446 359 L451 359 L453 358 L453 356 L447 357 L443 355 L440 350 L440 347 L446 341 L447 343 L443 347 L443 350 L446 353 L451 353 L453 349 L450 346 L450 342 L452 341 L456 345 L455 354 L457 354 L458 345 L457 343 L454 342 L454 340 Z M447 345 L449 346 L450 349 L449 351 L445 349 Z M447 341 L449 340 L450 342 L448 343 Z M130 335 L130 342 L132 344 L133 336 Z M296 328 L295 336 L292 339 L292 341 L299 345 L301 339 L304 340 L303 342 L304 349 L299 350 L297 352 L297 354 L300 355 L302 352 L306 350 L305 346 L306 339 L302 336 L302 330 L300 328 Z M297 331 L299 330 L300 332 L298 333 Z M127 328 L123 332 L122 340 L125 346 L127 347 L127 349 L132 354 L134 354 L140 361 L140 364 L137 366 L142 371 L142 369 L146 365 L148 365 L150 361 L148 361 L145 365 L143 365 L142 362 L151 353 L150 352 L142 359 L139 358 L136 354 L134 354 L127 347 L124 336 L128 330 L132 330 L137 336 L137 340 L135 344 L140 345 L139 347 L136 347 L136 349 L143 352 L146 350 L146 347 L143 344 L145 343 L149 345 L154 340 L153 334 L151 334 L150 337 L147 335 L148 331 L154 330 L157 333 L158 341 L156 346 L158 346 L160 341 L158 330 L154 328 L149 328 L149 330 L146 331 L144 335 L137 336 L133 328 Z M141 348 L143 347 L144 349 L142 350 Z M138 341 L140 340 L141 342 L139 343 Z M143 337 L145 336 L148 339 L148 341 L144 342 Z M376 325 L372 331 L373 339 L369 342 L367 346 L367 350 L369 354 L365 356 L363 360 L367 361 L378 356 L379 358 L388 361 L388 356 L384 354 L386 350 L386 345 L380 339 L381 332 L379 331 L379 327 Z M372 342 L378 341 L383 343 L383 346 L379 350 L379 352 L381 353 L380 356 L378 356 L375 353 L373 347 L370 346 Z M376 330 L380 332 L378 339 L374 337 L374 332 Z M359 325 L353 334 L352 353 L356 362 L361 367 L371 368 L375 364 L374 363 L370 366 L364 366 L357 359 L354 351 L355 336 L357 335 L358 337 L360 337 L361 333 L363 332 L363 330 L360 328 L360 325 Z M49 328 L51 332 L55 332 L57 330 L59 331 L59 333 L55 335 L55 337 L63 334 L66 336 L71 336 L73 334 L73 331 L71 329 L67 329 L63 331 L55 325 L52 325 Z M67 332 L70 331 L71 333 L68 334 Z M321 321 L319 325 L315 321 L313 321 L313 323 L317 326 L319 330 L319 334 L321 335 L319 345 L318 346 L313 345 L315 349 L320 345 L324 335 L324 328 Z M368 319 L364 320 L363 322 L365 322 Z M197 326 L197 349 L205 365 L220 369 L240 365 L240 362 L245 357 L249 348 L249 327 L247 325 L237 323 L234 319 L229 319 L228 321 L211 319 L207 330 L203 328 L198 329 L200 326 L205 325 L205 323 Z M218 353 L220 352 L221 354 L219 355 Z M226 349 L228 350 L227 355 L225 354 Z M239 348 L241 347 L242 349 L240 350 Z M198 336 L200 333 L214 338 L232 338 L243 334 L247 336 L247 338 L243 339 L242 341 L235 341 L236 346 L232 349 L229 349 L228 346 L223 341 L221 341 L221 343 L217 345 L215 348 L210 348 L209 349 L210 351 L213 350 L216 351 L216 356 L220 358 L221 361 L223 361 L229 355 L230 350 L234 350 L236 354 L240 354 L240 352 L243 351 L244 349 L246 351 L244 355 L237 360 L237 363 L235 365 L225 367 L210 365 L208 363 L208 360 L202 356 L200 352 L209 344 L209 341 L203 341 L202 338 L199 338 Z M214 330 L218 328 L220 329 L228 328 L232 329 L233 331 L232 332 L215 332 Z M244 328 L246 327 L247 329 L245 330 Z M244 326 L243 328 L236 331 L234 330 L234 328 L239 325 Z M219 326 L222 322 L227 324 L224 327 Z M228 322 L230 321 L231 324 L234 324 L235 326 L230 327 Z M211 321 L215 320 L217 322 L217 325 L215 327 L211 327 L210 326 Z M382 318 L392 326 L390 328 L390 332 L392 334 L395 333 L397 334 L399 341 L399 350 L395 359 L395 361 L397 361 L401 351 L401 340 L397 328 L395 327 L395 325 L386 318 Z M316 317 L307 316 L297 321 L295 318 L291 316 L286 316 L280 319 L276 323 L274 330 L276 341 L291 358 L292 356 L282 347 L282 344 L284 342 L280 332 L282 326 L279 324 L279 322 L289 317 L296 320 L297 323 L300 324 L304 319 L308 317 L317 319 Z M162 317 L160 315 L157 315 L148 319 L142 324 L134 319 L125 319 L118 324 L115 332 L115 338 L120 350 L123 351 L118 342 L117 333 L119 327 L124 322 L131 320 L136 322 L140 326 L140 328 L142 328 L147 322 L154 320 L159 322 L163 326 L166 333 L164 344 L160 350 L162 351 L167 339 L166 328 L161 321 Z M155 318 L157 317 L158 319 L156 320 Z M455 312 L453 312 L452 316 L454 316 L456 319 L451 322 L449 322 L447 318 L441 319 L440 318 L442 315 L442 312 L441 312 L439 318 L441 321 L445 321 L446 324 L445 325 L438 324 L436 326 L436 330 L440 334 L433 341 L432 353 L439 363 L440 361 L436 357 L434 352 L434 344 L436 340 L439 337 L448 333 L459 337 L458 333 L460 332 L461 328 L457 325 L454 325 L453 327 L451 326 L452 322 L457 322 L458 320 L457 316 L455 315 Z M458 328 L458 330 L455 331 L454 333 L450 331 L451 329 L456 327 Z M450 326 L451 329 L444 333 L443 331 L446 329 L446 327 Z M438 329 L439 326 L443 327 L441 330 Z M237 307 L233 300 L230 302 L233 304 L233 306 L230 307 L227 312 L225 311 L223 306 L218 312 L217 303 L210 301 L209 307 L206 308 L206 311 L209 315 L213 315 L217 312 L218 316 L221 315 L228 316 L227 314 L228 312 L231 314 L236 313 Z M234 308 L235 310 L232 312 L231 310 Z M294 299 L292 299 L291 301 L284 302 L284 308 L286 310 L293 312 L296 305 L296 302 Z M301 295 L301 302 L303 305 L303 309 L312 307 L316 303 L315 302 L316 300 L310 297 L306 293 Z M222 286 L220 291 L222 295 L220 296 L217 294 L217 296 L221 299 L223 303 L225 298 L222 299 L221 297 L226 293 L226 291 Z M377 285 L376 285 L376 294 L374 295 L373 304 L370 308 L370 313 L372 312 L375 313 L374 315 L375 321 L377 321 L382 314 L382 308 L380 306 L378 308 L375 306 L376 304 L379 303 L377 294 Z M140 284 L140 298 L138 303 L139 306 L136 309 L136 316 L139 318 L143 318 L147 315 L147 309 L144 306 L142 295 L142 284 Z M139 315 L142 314 L143 316 L140 317 Z M141 309 L143 308 L144 310 L142 311 Z M449 283 L447 283 L447 296 L445 299 L445 303 L443 305 L443 309 L445 312 L447 312 L445 308 L447 304 L450 304 L451 309 L453 309 L453 304 L449 296 Z M61 275 L60 295 L63 298 L63 300 L61 301 L60 299 L58 299 L60 303 L56 306 L55 309 L57 312 L63 311 L64 313 L61 314 L59 317 L53 316 L52 320 L53 321 L59 320 L61 324 L68 325 L71 322 L68 319 L62 320 L60 318 L61 316 L66 315 L68 313 L67 310 L61 307 L62 304 L65 302 L65 299 L63 298 L63 275 Z M54 318 L56 317 L57 319 L55 320 Z M440 248 L441 256 L447 256 L449 254 L457 256 L460 254 L460 247 L441 246 Z M417 246 L417 256 L436 256 L437 255 L437 247 L433 246 L430 247 L430 251 L428 252 L427 246 Z M332 248 L333 256 L345 256 L346 255 L363 256 L362 246 L354 246 L353 248 L349 248 L348 246 L346 248 L342 248 L341 246 L333 246 Z M351 250 L354 251 L352 255 L350 254 Z M343 250 L345 251 L344 255 L341 254 Z M232 247 L233 256 L240 256 L241 251 L243 252 L243 255 L247 256 L253 254 L254 256 L267 256 L268 254 L272 256 L274 254 L274 247 L272 246 Z M139 249 L141 253 L139 256 L149 256 L150 255 L170 256 L168 254 L170 250 L172 251 L173 256 L181 256 L182 248 L181 246 L173 246 L172 248 L167 248 L165 246 L164 248 L159 249 L156 246 L154 246 L153 248 L149 249 L146 248 L145 246 L140 246 Z M160 251 L162 250 L163 253 L161 254 Z M149 250 L151 251 L150 255 L147 254 Z M37 247 L38 253 L37 256 L49 256 L50 255 L52 256 L55 255 L59 256 L97 255 L100 256 L101 253 L98 252 L101 249 L100 246 L96 246 L95 248 L90 248 L89 246 L80 246 L79 248 L75 248 L74 246 L72 248 L69 248 L68 246 L59 246 L58 248 L48 246 L47 248 Z M44 252 L46 251 L47 254 L45 255 Z M89 251 L91 250 L93 254 L90 255 Z M76 251 L78 250 L80 254 L77 255 Z M68 248 L72 252 L70 255 L68 254 L67 250 Z M450 227 L448 227 L442 233 L444 234 Z M48 218 L40 219 L41 226 L39 227 L39 229 L43 230 L44 232 L50 229 L49 226 L50 220 Z M357 218 L356 225 L357 228 L367 229 L368 228 L367 218 L363 217 Z M344 217 L343 227 L346 228 L347 225 L350 224 L351 225 L350 228 L353 227 L353 217 L350 216 Z M333 215 L332 217 L330 217 L329 224 L330 228 L332 229 L339 228 L340 227 L339 217 L336 217 L335 215 Z M408 206 L408 225 L424 225 L428 227 L426 224 L414 224 L413 223 L414 221 L419 221 L419 212 L414 213 L412 217 L410 218 L409 217 L409 206 Z M409 222 L411 221 L412 223 L410 224 Z M334 201 L335 211 L341 211 L343 209 L342 205 L349 203 L350 206 L346 207 L348 211 L350 209 L350 206 L353 205 L354 211 L362 212 L362 201 L361 200 L355 200 L353 202 L348 200 L344 202 L341 198 L339 200 Z M356 207 L358 206 L359 208 L357 209 Z M61 198 L59 201 L59 205 L63 207 L64 209 L59 213 L59 216 L62 218 L61 224 L64 226 L64 233 L66 233 L66 226 L68 224 L66 219 L70 215 L66 210 L66 207 L70 206 L71 201 L68 198 L66 199 Z M96 197 L93 201 L97 206 L97 208 L94 210 L94 214 L98 217 L97 220 L95 221 L96 224 L95 228 L98 229 L98 234 L101 233 L100 230 L102 228 L102 220 L100 219 L102 215 L97 214 L96 212 L103 204 L103 199 L101 197 Z M98 203 L100 202 L101 205 L99 206 Z M40 197 L39 200 L40 203 L43 205 L43 207 L39 210 L39 212 L42 213 L43 215 L46 215 L50 212 L50 210 L46 207 L46 205 L50 203 L50 198 Z M42 211 L46 210 L47 212 L43 213 Z M43 202 L45 201 L46 204 L44 205 Z M395 195 L403 202 L405 202 L405 200 L411 196 L407 192 L404 193 L403 191 Z M441 190 L435 192 L437 194 L435 197 L436 200 L442 199 Z M251 188 L248 194 L250 197 L254 198 L257 196 L257 190 L255 188 Z M252 195 L254 194 L255 196 L253 197 Z M473 187 L472 187 L473 191 L467 195 L473 200 L468 207 L468 219 L467 220 L465 219 L465 213 L459 212 L458 220 L461 221 L462 223 L452 224 L452 225 L469 225 L469 208 L476 201 L476 199 L473 200 L472 198 L476 194 L478 196 L482 196 L482 195 L479 195 L478 192 Z M465 222 L467 221 L468 223 L466 224 Z M351 184 L350 189 L355 191 L354 193 L351 193 L351 194 L356 194 L357 184 Z M347 181 L340 184 L341 194 L347 194 L346 190 Z M227 178 L225 179 L225 182 Z M66 175 L61 180 L62 187 L60 188 L59 191 L62 195 L68 195 L70 192 L68 187 L69 183 L66 181 L68 177 Z M62 189 L65 188 L66 190 L63 191 Z M183 167 L181 167 L175 172 L175 178 L180 178 L183 176 L184 173 Z M181 170 L182 172 L178 176 L177 171 Z M137 167 L138 175 L141 177 L146 177 L146 171 L141 167 Z M139 170 L141 169 L144 172 L144 174 L142 175 L139 172 Z M147 159 L147 167 L149 169 L157 171 L154 168 L154 164 L152 164 L151 167 L149 166 L150 160 Z M443 157 L451 166 L467 166 L468 167 L467 171 L464 169 L459 170 L458 178 L459 179 L467 178 L468 184 L469 184 L469 165 L453 165 L445 157 Z M465 173 L467 172 L468 174 L466 175 Z M98 157 L98 175 L96 180 L96 186 L94 187 L94 191 L100 194 L103 191 L103 186 L101 184 L102 180 L100 172 L100 157 Z M81 157 L80 168 L82 172 L79 174 L80 176 L78 179 L79 183 L77 184 L76 187 L78 192 L81 194 L81 196 L76 200 L78 204 L81 206 L81 208 L76 213 L81 218 L78 221 L78 223 L80 225 L79 228 L81 229 L81 234 L83 234 L83 230 L85 228 L84 225 L86 223 L86 221 L83 218 L87 214 L83 206 L84 203 L87 202 L88 200 L83 196 L84 192 L87 190 L87 186 L85 184 L85 175 L83 174 L84 172 L83 157 Z M252 154 L235 160 L236 162 L245 158 L251 159 L249 167 L244 167 L236 173 L230 165 L225 166 L226 169 L218 181 L217 190 L213 193 L217 195 L218 204 L226 221 L254 232 L281 220 L289 195 L293 192 L289 190 L282 166 L278 165 L272 170 L272 178 L277 191 L266 191 L263 185 L267 182 L271 187 L271 184 L267 182 L267 179 L263 179 L263 173 L259 176 L263 182 L256 181 L255 169 L259 168 L266 172 L268 170 L257 167 L255 159 L261 158 L270 162 L271 160 Z M275 218 L274 222 L260 228 L256 228 L252 225 L253 223 L256 224 L256 221 L258 219 L261 219 L269 214 L273 215 Z M232 216 L235 214 L238 214 L239 216 L245 219 L248 219 L252 227 L246 228 L231 221 Z M238 211 L240 210 L241 212 L239 213 Z M244 203 L247 203 L251 206 L250 208 L251 216 L250 217 L243 215 L247 211 L247 208 L243 206 Z M288 196 L287 203 L281 215 L271 210 L270 208 L268 208 L268 212 L265 213 L264 206 L261 206 L259 210 L264 212 L265 214 L260 217 L256 218 L254 217 L256 211 L255 206 L259 203 L263 203 L263 199 L266 195 L269 197 L268 199 L269 203 L271 203 L272 198 L270 196 L274 194 L277 195 L273 208 L275 208 L280 194 L282 196 L284 196 L285 194 Z M240 194 L243 199 L243 202 L240 204 L240 207 L236 208 L234 211 L231 211 L230 213 L226 215 L221 207 L219 196 L227 195 L229 204 L231 208 L233 208 L231 202 L232 201 L236 202 L236 198 L230 199 L229 195 L230 194 L235 195 Z M282 193 L284 192 L285 194 L283 195 Z M248 183 L255 182 L258 183 L262 187 L263 196 L258 202 L251 203 L245 200 L243 196 L243 190 L244 187 Z M234 178 L237 179 L242 184 L242 188 L240 191 L238 190 L230 191 L229 190 L231 182 Z M279 169 L281 170 L288 186 L287 191 L283 189 L281 190 L279 189 L278 183 L274 176 L278 172 Z M227 169 L230 174 L232 174 L233 176 L229 182 L228 190 L226 191 L223 189 L220 191 L219 185 L223 177 L223 174 L225 170 Z M251 168 L255 175 L253 176 L250 173 L251 178 L250 181 L246 182 L245 181 L246 176 L243 174 L240 177 L236 175 L237 173 L247 168 Z M160 153 L157 158 L157 164 L160 167 L160 183 L158 184 L155 181 L154 174 L149 172 L149 181 L144 189 L144 180 L139 181 L135 177 L131 177 L132 185 L134 187 L140 187 L143 193 L140 194 L135 190 L129 191 L129 193 L135 192 L137 194 L133 197 L135 198 L134 202 L139 205 L146 205 L151 198 L157 203 L158 214 L156 221 L137 225 L145 225 L146 227 L143 230 L153 227 L154 229 L151 230 L151 232 L159 228 L159 233 L162 235 L163 231 L159 228 L160 225 L162 225 L165 230 L169 232 L171 228 L177 229 L175 227 L176 225 L184 225 L171 223 L165 220 L163 211 L165 202 L174 196 L175 198 L172 202 L175 205 L180 206 L183 202 L188 203 L188 198 L192 195 L193 191 L186 189 L191 183 L190 177 L184 179 L182 182 L173 182 L172 174 L170 173 L167 176 L166 184 L169 182 L171 183 L171 185 L167 188 L171 195 L165 199 L163 198 L164 185 L162 184 L162 175 L164 172 L171 170 L171 168 L174 167 L174 160 L168 162 L167 168 L163 170 L162 165 L159 163 L159 158 L162 158 L163 163 L164 158 L162 153 Z M166 227 L168 226 L169 228 L167 229 Z M160 214 L163 215 L164 219 L163 222 L160 222 L158 220 Z M162 202 L163 204 L160 206 L159 204 Z M175 201 L178 200 L179 202 L176 203 Z M143 201 L146 200 L147 202 L144 203 Z M177 196 L181 195 L185 198 L185 200 L182 202 L177 198 Z M143 195 L144 198 L138 203 L137 198 L140 195 Z M184 195 L185 192 L190 193 L188 196 Z M180 185 L182 186 L182 188 L185 188 L186 190 L183 193 L178 194 L177 191 Z M171 185 L173 186 L172 190 L170 189 Z M149 185 L151 186 L150 190 L148 189 Z M151 182 L154 182 L159 187 L159 199 L158 200 L147 194 L148 192 L151 193 L154 189 L153 186 L150 185 Z M188 180 L189 183 L185 186 L184 182 Z M133 181 L136 180 L137 184 L134 185 Z M170 163 L172 164 L171 168 L168 167 Z M64 152 L64 167 L65 172 L67 172 L66 152 Z M46 152 L45 152 L45 169 L43 175 L43 181 L40 187 L40 193 L42 194 L46 194 L49 192 L49 186 L47 185 L48 179 L46 178 L47 175 Z M41 189 L43 188 L44 191 L42 192 Z M438 150 L426 165 L409 165 L408 183 L405 188 L409 185 L411 177 L414 179 L420 177 L419 169 L411 169 L411 166 L426 166 L436 157 L438 158 L435 164 L437 171 L426 176 L421 181 L417 189 L416 198 L419 207 L425 214 L438 219 L436 226 L438 232 L436 233 L433 230 L432 232 L439 240 L437 233 L441 230 L440 219 L451 215 L451 213 L445 216 L441 216 L440 206 L445 204 L446 210 L457 209 L461 201 L461 190 L453 177 L441 171 L442 162 L440 164 L438 163 Z M433 204 L438 206 L438 208 L436 209 L437 212 L436 216 L433 216 L427 212 L428 210 L432 208 Z M458 196 L459 201 L457 205 L453 207 L449 204 L448 198 L449 197 L455 198 Z M434 188 L441 187 L446 191 L447 197 L444 202 L435 203 L432 200 L431 192 Z M422 183 L424 183 L425 186 L430 189 L428 194 L426 193 L421 194 L423 198 L428 196 L430 200 L429 203 L424 208 L422 207 L418 197 L418 193 Z M441 174 L450 178 L452 180 L451 184 L453 184 L454 182 L456 183 L459 191 L458 195 L455 192 L450 194 L447 190 L449 186 L444 187 L441 185 L440 178 Z M437 174 L438 175 L436 180 L437 185 L432 187 L429 185 L426 180 L429 177 Z M414 175 L416 174 L417 176 L415 177 Z M409 174 L413 173 L414 175 L411 177 Z M349 148 L348 148 L348 157 L346 160 L346 167 L343 170 L343 173 L346 177 L350 177 L353 174 L353 170 L350 167 L351 163 L349 157 Z M123 110 L125 124 L138 133 L375 133 L390 118 L387 103 L374 95 L138 95 Z M195 119 L197 118 L198 120 L196 121 Z M350 117 L352 116 L353 118 L351 119 Z M223 114 L225 113 L226 115 L224 116 Z M304 107 L308 106 L309 108 L305 109 Z M18 86 L16 423 L24 433 L484 435 L495 427 L497 90 L489 80 L29 78 Z M20 87 L28 81 L489 83 L495 92 L492 427 L485 432 L24 430 L18 421 Z"/></svg>
