<svg xmlns="http://www.w3.org/2000/svg" width="512" height="512" viewBox="0 0 512 512" aria-hidden="true" focusable="false"><path fill="currentColor" fill-rule="evenodd" clip-rule="evenodd" d="M112 496 L112 500 L119 499 L118 496 L114 495 Z M229 494 L224 495 L225 497 L228 496 Z M103 493 L103 496 L106 500 L108 500 L109 494 Z M445 498 L446 499 L450 494 L454 495 L459 494 L455 492 L448 492 L445 494 Z M399 492 L397 495 L392 495 L392 497 L399 496 Z M479 491 L479 495 L480 495 L480 491 Z M299 491 L298 495 L300 496 L300 491 Z M187 490 L188 493 L187 497 L194 495 L189 490 Z M393 489 L387 490 L387 492 L389 493 L393 492 Z M285 489 L285 491 L289 493 L289 491 Z M141 488 L141 492 L144 491 L146 492 L144 494 L144 497 L146 498 L148 492 L145 491 L145 488 Z M425 487 L423 492 L428 493 L428 489 Z M496 481 L498 484 L499 482 Z M466 481 L464 481 L463 484 L465 484 Z M415 480 L415 484 L417 484 L418 482 L417 480 Z M96 480 L96 481 L100 481 L100 480 Z M163 477 L161 477 L160 480 L162 480 Z M497 476 L493 478 L494 479 Z M490 476 L488 476 L487 480 L489 480 Z M213 476 L213 479 L216 480 L216 478 Z M157 476 L155 476 L154 478 L156 482 L154 486 L158 485 L156 480 Z M438 475 L439 480 L437 481 L437 489 L435 493 L441 495 L442 492 L445 491 L445 488 L443 486 L446 483 L445 480 L441 480 L440 475 Z M438 488 L440 487 L441 489 L439 490 Z M29 475 L24 475 L24 477 L27 478 L24 481 L24 483 L26 483 L27 480 L29 479 Z M370 478 L370 481 L376 482 L376 484 L372 487 L372 490 L368 491 L367 495 L369 495 L370 497 L379 498 L378 495 L379 493 L384 494 L384 492 L382 491 L382 485 L385 481 L387 483 L390 483 L391 486 L397 485 L399 489 L403 491 L402 495 L408 496 L404 488 L400 487 L399 484 L397 483 L398 481 L406 481 L406 479 L401 479 L399 477 L400 475 L402 476 L405 475 L405 473 L400 474 L399 472 L396 472 L397 476 L394 477 L395 479 L394 481 L385 480 L384 479 L385 472 L383 472 L382 475 L383 478 L380 480 L378 480 L376 477 Z M192 472 L191 479 L195 481 L197 480 L202 481 L200 479 L195 478 L194 473 Z M126 471 L127 474 L132 472 Z M180 471 L176 470 L176 478 L170 480 L170 482 L168 483 L168 488 L170 488 L172 483 L175 483 L176 486 L178 484 L181 484 L181 482 L179 481 L180 479 L185 480 L179 476 Z M160 470 L160 472 L164 472 L164 470 Z M29 470 L27 469 L26 472 L28 472 Z M101 468 L101 470 L104 471 L104 468 Z M372 467 L372 469 L375 471 L376 470 Z M70 467 L68 468 L68 470 L71 472 L72 468 Z M428 466 L426 467 L426 470 L428 471 L428 474 L430 474 L431 468 Z M418 466 L419 471 L423 472 L423 470 L420 469 L420 466 Z M146 465 L144 465 L143 468 L139 467 L138 469 L145 470 Z M33 472 L34 477 L32 478 L33 481 L31 482 L30 488 L33 489 L34 492 L40 496 L41 494 L43 494 L42 488 L39 486 L41 484 L41 479 L42 478 L45 479 L50 476 L51 480 L47 481 L47 483 L50 484 L48 486 L49 493 L53 492 L54 496 L58 495 L59 497 L57 500 L60 500 L60 496 L63 494 L63 492 L60 493 L57 491 L54 492 L50 487 L52 484 L54 484 L55 481 L52 478 L52 476 L50 476 L49 474 L43 475 L39 474 L40 472 L44 471 L44 469 L49 466 L48 465 L43 466 L42 469 L38 470 L37 472 Z M32 484 L35 483 L37 486 L34 487 Z M38 475 L40 476 L41 479 L40 481 L36 480 L36 477 Z M479 465 L480 471 L488 470 L488 468 L484 469 L481 464 Z M79 462 L76 467 L81 469 L82 471 L77 473 L78 476 L75 477 L74 479 L76 481 L82 479 L83 482 L85 482 L85 476 L88 474 L87 467 L83 467 L82 464 Z M364 459 L366 468 L362 472 L366 473 L367 472 L366 468 L368 467 L367 459 Z M444 458 L444 460 L447 460 L446 458 Z M40 458 L38 461 L40 462 L40 464 L42 464 L42 462 L40 461 L42 458 Z M358 457 L355 459 L358 459 Z M453 455 L454 460 L459 459 L459 456 L456 457 L455 455 Z M158 453 L157 456 L159 459 L158 462 L164 461 L164 460 L159 459 L160 453 Z M413 451 L414 456 L421 456 L421 453 L419 453 L417 449 Z M371 449 L371 451 L373 451 L374 453 L367 454 L367 455 L374 457 L376 451 Z M154 449 L149 450 L148 448 L146 448 L146 451 L142 452 L142 454 L145 454 L147 457 L148 453 L154 451 Z M140 444 L136 444 L135 449 L137 446 L140 446 Z M93 443 L90 443 L91 447 L88 450 L87 454 L80 455 L81 457 L85 457 L87 455 L89 456 L90 459 L96 457 L92 447 Z M76 442 L73 446 L70 446 L70 449 L68 450 L68 452 L70 452 L71 455 L67 457 L67 461 L65 462 L65 464 L67 464 L68 461 L72 459 L72 453 L74 451 L77 451 Z M30 441 L30 444 L32 445 L31 447 L32 450 L34 450 L35 448 L41 449 L41 447 L37 445 L38 443 L41 443 L40 441 L34 441 L33 443 Z M106 440 L108 443 L106 444 L105 450 L107 450 L108 444 L110 443 L110 441 Z M120 439 L115 440 L114 442 L115 448 L112 450 L112 452 L115 451 L116 447 L120 448 L120 446 L117 445 Z M140 438 L142 441 L145 441 L145 439 Z M500 437 L499 439 L496 439 L499 441 L497 445 L500 451 Z M482 436 L482 440 L484 440 L484 436 Z M385 436 L385 441 L387 443 L384 445 L384 450 L386 451 L386 453 L392 454 L394 448 L391 448 L388 446 L388 441 L391 439 Z M443 435 L444 439 L446 439 L445 435 Z M456 445 L456 447 L458 447 L460 450 L465 448 L466 450 L469 450 L470 452 L476 450 L477 448 L484 449 L482 445 L476 446 L470 443 L471 434 L465 434 L465 437 L468 440 L461 442 L458 440 L459 443 Z M465 443 L468 442 L469 445 L466 446 Z M120 427 L119 430 L117 431 L118 433 L120 432 L122 433 L120 436 L124 437 L125 439 L131 438 L131 436 L127 436 L126 438 L124 437 L124 431 L128 429 L127 425 Z M373 424 L373 426 L369 430 L370 434 L373 431 L375 431 L376 434 L379 433 L378 429 L375 429 L374 428 L375 425 Z M40 424 L40 426 L37 429 L41 430 L42 434 L46 432 L48 435 L49 432 L47 431 L46 426 L43 424 Z M59 422 L59 423 L65 424 L70 423 L72 426 L70 427 L68 432 L71 431 L74 434 L75 438 L78 437 L78 435 L76 434 L77 431 L82 430 L83 432 L85 432 L87 430 L87 428 L85 428 L84 426 L77 424 L76 421 L64 422 L62 420 Z M85 419 L81 421 L84 422 Z M56 419 L53 416 L52 418 L48 418 L48 422 L51 422 L52 418 L54 420 Z M374 412 L374 414 L378 416 L378 414 Z M414 416 L419 416 L420 414 L422 414 L422 412 L416 411 L414 413 Z M116 411 L115 412 L116 419 L120 420 L117 417 L118 416 L122 417 L123 415 L118 414 Z M101 411 L102 414 L105 414 L105 411 Z M491 410 L490 413 L493 416 L492 420 L494 420 L495 416 L493 415 L493 410 Z M470 406 L465 407 L465 409 L470 408 Z M460 404 L458 408 L460 407 Z M500 402 L500 407 L497 409 L496 413 L500 411 Z M382 411 L383 413 L387 412 L389 413 L388 416 L384 416 L384 419 L380 421 L382 424 L390 423 L393 418 L397 417 L398 420 L397 421 L395 420 L394 422 L398 424 L398 428 L401 428 L405 431 L403 433 L404 436 L402 437 L400 435 L400 437 L396 440 L397 443 L399 443 L399 440 L401 437 L405 439 L405 443 L408 443 L409 438 L408 431 L405 430 L404 425 L401 426 L399 425 L400 422 L408 419 L409 421 L413 422 L412 424 L410 424 L410 427 L413 431 L427 436 L428 439 L423 442 L428 441 L428 439 L431 436 L435 438 L434 440 L432 440 L431 443 L427 445 L426 450 L428 450 L429 446 L432 445 L433 449 L435 449 L436 447 L438 448 L438 451 L440 452 L440 456 L442 456 L442 449 L440 449 L439 446 L444 445 L444 442 L440 440 L440 437 L437 434 L438 426 L432 425 L432 422 L434 420 L438 421 L438 419 L431 417 L428 423 L425 423 L422 420 L419 424 L419 427 L422 430 L419 431 L416 427 L416 423 L414 420 L404 415 L406 412 L411 411 L411 405 L409 405 L406 401 L402 401 L401 402 L402 405 L400 407 L397 406 L398 409 L397 411 L392 410 L392 406 L395 405 L394 402 L390 402 L388 410 Z M398 412 L401 411 L403 416 L402 417 L399 416 Z M406 407 L408 406 L409 409 L407 410 Z M127 403 L127 405 L131 406 L134 404 L134 401 L129 400 Z M28 398 L27 402 L29 404 L27 405 L28 415 L30 417 L29 423 L31 422 L37 423 L39 422 L38 420 L37 421 L32 420 L32 412 L30 410 L30 405 L33 403 L33 401 L31 398 Z M29 401 L31 400 L32 402 L30 403 Z M453 397 L454 400 L452 402 L455 403 L456 400 L455 397 Z M297 395 L297 397 L299 398 L303 397 L303 396 Z M419 394 L416 397 L419 400 L417 402 L414 401 L415 407 L421 400 L419 398 Z M59 394 L56 400 L54 401 L57 403 L56 410 L59 415 L62 416 L65 415 L66 412 L70 410 L65 407 L65 404 L63 404 L62 406 L60 405 L59 400 L61 399 L62 396 L61 394 Z M437 390 L436 393 L428 393 L426 395 L426 399 L424 400 L421 407 L422 408 L430 407 L432 410 L432 414 L434 413 L435 409 L438 409 L439 412 L441 411 L444 412 L443 414 L440 415 L440 418 L443 420 L443 423 L441 424 L443 429 L441 431 L445 432 L443 424 L445 423 L445 420 L447 419 L448 422 L450 422 L450 419 L453 417 L453 416 L450 416 L449 418 L446 418 L445 416 L447 415 L448 412 L455 411 L455 408 L452 407 L450 410 L445 412 L444 409 L446 408 L447 401 L446 400 L443 403 L438 398 L438 390 Z M439 407 L441 406 L442 409 L440 410 Z M435 402 L438 401 L440 403 L440 406 L438 407 L435 404 Z M427 399 L430 398 L431 400 L428 401 Z M407 389 L407 391 L410 392 L409 394 L407 394 L407 398 L409 398 L409 396 L413 394 L413 391 L410 389 Z M471 385 L471 390 L474 389 L479 390 L479 385 L477 387 L474 387 L473 385 Z M46 385 L46 391 L48 391 L50 389 Z M387 384 L384 385 L383 387 L387 386 Z M25 384 L25 386 L29 386 L28 384 Z M135 382 L134 382 L134 386 L131 387 L131 389 L135 388 L136 385 Z M78 380 L78 382 L81 383 L81 386 L79 387 L79 389 L83 388 L86 392 L79 394 L77 402 L80 405 L80 407 L83 408 L83 411 L85 412 L85 415 L90 413 L91 409 L93 408 L91 401 L92 399 L91 395 L94 394 L95 392 L98 393 L100 390 L103 390 L103 388 L100 388 L98 385 L97 388 L94 389 L92 387 L89 387 L86 384 L85 380 L84 381 Z M399 375 L395 375 L394 377 L390 376 L389 378 L394 379 L395 377 L399 377 Z M109 371 L109 373 L112 375 L112 378 L115 378 L116 381 L123 380 L124 377 L121 375 L118 375 L116 371 L114 372 Z M92 368 L88 366 L86 370 Z M32 365 L30 365 L30 368 L32 367 Z M387 362 L386 365 L390 368 L390 371 L393 370 L393 367 L391 367 Z M467 361 L465 362 L460 361 L458 364 L456 364 L457 369 L460 370 L461 373 L465 372 L464 368 L468 366 Z M31 358 L31 361 L32 361 L32 358 Z M13 358 L13 359 L16 359 L16 358 Z M115 356 L118 360 L121 359 L120 357 Z M103 360 L105 360 L105 358 L108 356 L103 356 Z M450 354 L453 357 L458 356 L458 355 L454 356 L453 354 Z M435 354 L436 357 L435 361 L437 361 L438 355 Z M40 356 L42 358 L45 358 L46 356 L54 357 L54 355 L51 356 L50 354 L46 354 L45 356 Z M493 352 L491 352 L492 357 Z M34 350 L35 352 L38 352 L38 350 L36 349 Z M127 348 L127 350 L130 351 L132 350 Z M415 346 L415 350 L413 351 L413 353 L417 352 L416 351 L418 347 Z M50 346 L48 350 L51 348 Z M20 342 L13 343 L13 346 L17 348 L17 345 L20 344 Z M470 338 L465 339 L463 343 L468 341 Z M22 338 L22 339 L29 340 L34 339 L34 338 L29 339 L28 335 Z M460 333 L455 334 L455 337 L451 340 L451 343 L454 344 L460 343 Z M455 338 L458 337 L459 340 L457 341 Z M421 334 L421 336 L425 336 L423 333 Z M496 325 L496 330 L500 332 L500 328 Z M25 313 L27 318 L29 318 L28 314 Z M454 311 L451 311 L452 315 Z M442 306 L441 311 L442 312 L446 311 L444 306 Z M30 303 L32 307 L32 304 Z M425 304 L426 309 L422 318 L425 318 L427 320 L426 324 L429 325 L427 332 L429 336 L427 338 L431 337 L435 339 L436 350 L438 349 L439 341 L442 340 L444 336 L448 337 L451 335 L451 332 L454 331 L453 327 L457 325 L458 323 L460 324 L460 326 L463 327 L464 331 L467 334 L470 332 L471 326 L465 320 L461 323 L458 317 L456 317 L448 321 L447 324 L444 325 L440 318 L433 315 L436 310 L434 309 L430 310 L429 307 L436 305 L437 300 L440 303 L439 299 L430 299 Z M436 339 L439 338 L440 340 L437 341 Z M429 333 L431 332 L432 334 L430 335 Z M442 328 L444 329 L443 332 L440 331 Z M432 324 L434 323 L435 325 L433 326 Z M430 319 L433 318 L434 320 L431 321 Z M432 313 L431 315 L428 315 L427 318 L424 317 L426 313 L428 312 Z M420 299 L422 302 L422 300 Z M16 299 L15 303 L21 305 L20 301 Z M459 298 L459 300 L461 301 L462 299 Z M447 298 L445 298 L444 301 L446 301 Z M496 296 L485 297 L481 303 L482 304 L481 308 L482 309 L488 308 L489 310 L491 310 L491 307 L493 306 L491 299 L492 298 L496 299 Z M49 293 L47 293 L47 296 L44 298 L49 297 Z M31 291 L29 293 L29 296 L26 298 L33 298 L31 296 L32 292 Z M17 291 L15 295 L20 297 L18 295 L20 291 Z M126 293 L116 289 L113 299 L105 294 L97 294 L101 296 L101 300 L105 301 L106 306 L115 307 L113 314 L118 314 L115 319 L119 319 L122 323 L114 322 L112 317 L101 317 L104 327 L103 331 L96 337 L95 342 L93 341 L93 336 L89 333 L93 329 L93 325 L90 323 L91 320 L95 320 L97 323 L96 327 L99 328 L99 320 L94 317 L98 315 L97 312 L93 313 L91 319 L85 319 L86 323 L79 320 L77 326 L80 326 L81 329 L72 335 L70 332 L65 333 L64 329 L60 328 L56 337 L59 335 L61 337 L59 345 L54 348 L54 352 L58 354 L58 349 L60 348 L60 357 L63 357 L65 352 L68 362 L71 364 L67 366 L60 364 L54 370 L55 372 L52 376 L55 380 L54 375 L58 377 L67 376 L68 371 L72 371 L77 377 L81 376 L80 366 L76 365 L70 358 L71 356 L76 355 L76 360 L85 362 L84 358 L87 356 L92 360 L102 354 L103 350 L108 350 L109 348 L113 350 L117 344 L125 346 L120 330 L128 329 L127 322 L132 319 L133 315 L130 313 L131 302 Z M73 345 L75 344 L76 346 L74 347 Z M84 340 L87 347 L84 348 L83 356 L80 357 L79 350 L81 349 L79 342 Z M100 340 L108 338 L111 344 L110 345 L107 345 L106 343 L101 344 Z M113 340 L114 337 L116 336 L119 337 L116 341 Z M75 337 L79 336 L80 338 L76 339 Z M82 335 L85 334 L88 337 L88 339 L84 340 L82 338 Z M113 333 L112 335 L105 336 L103 338 L100 337 L104 332 L110 331 Z M84 332 L87 331 L88 333 L85 334 Z M118 328 L120 327 L121 329 L119 330 Z M81 325 L83 324 L84 326 L82 327 Z M130 314 L131 316 L127 319 L126 317 Z M117 301 L118 303 L115 305 L114 303 Z M107 301 L109 300 L112 303 L108 304 Z M123 296 L125 297 L124 300 L127 300 L129 302 L127 310 L125 310 L124 307 L121 306 L118 302 L118 299 L122 298 Z M120 295 L122 294 L123 296 L121 297 Z M116 294 L118 293 L119 295 L117 296 Z M94 301 L86 299 L85 302 L82 303 L82 305 L80 306 L76 297 L74 299 L72 298 L72 296 L75 293 L78 294 L80 293 L80 291 L74 293 L72 290 L64 289 L63 295 L59 294 L58 297 L56 296 L52 297 L52 299 L57 298 L58 301 L54 305 L52 305 L51 308 L49 307 L48 304 L41 302 L39 300 L36 301 L35 303 L41 303 L42 305 L40 310 L38 309 L38 307 L36 308 L38 311 L37 314 L38 317 L36 319 L32 317 L35 321 L33 323 L33 325 L35 326 L34 334 L38 330 L39 334 L46 339 L45 341 L42 342 L40 341 L40 339 L38 339 L39 341 L38 344 L43 346 L46 342 L50 342 L51 344 L56 343 L56 341 L52 340 L53 337 L49 331 L44 328 L43 324 L47 318 L52 318 L54 320 L55 317 L59 316 L60 312 L66 312 L66 310 L70 309 L71 307 L76 307 L78 311 L77 315 L82 316 L79 312 L82 311 L83 309 L86 310 L86 313 L89 313 L93 308 L97 308 Z M45 335 L48 334 L49 337 L46 338 Z M45 309 L47 311 L47 314 L45 315 L44 318 L40 319 L38 316 L41 315 L41 313 Z M88 306 L89 303 L94 304 L93 306 L90 307 Z M64 303 L66 302 L67 304 L65 305 Z M70 300 L73 302 L71 306 L68 305 Z M61 300 L62 305 L60 310 L58 311 L56 306 L58 304 L58 301 Z M88 286 L88 289 L90 290 L91 289 L90 286 Z M39 286 L39 290 L42 293 L44 293 L44 291 L41 289 L41 286 Z M456 284 L451 285 L451 290 L453 291 L455 290 L454 287 L457 285 Z M481 286 L487 287 L487 284 L484 283 Z M48 283 L48 287 L51 288 L52 287 Z M439 284 L437 284 L435 281 L430 278 L428 280 L427 286 L423 289 L424 292 L429 291 L431 287 L436 289 L439 286 Z M87 278 L85 283 L87 283 L88 280 Z M461 277 L460 279 L463 280 L461 291 L463 291 L465 287 L467 286 L468 282 L465 281 L463 277 Z M47 279 L47 280 L52 280 L53 282 L59 284 L59 279 L56 282 L54 281 L53 277 Z M95 279 L100 280 L97 283 L95 290 L96 291 L100 288 L106 288 L107 290 L112 290 L113 287 L107 282 L107 280 L109 279 L116 281 L115 278 L113 279 L102 276 L101 279 L99 278 Z M439 275 L435 276 L435 278 L437 278 Z M385 274 L383 274 L380 277 L380 281 L382 277 L385 276 Z M23 274 L24 276 L23 280 L25 280 L27 277 L30 277 L28 275 Z M18 274 L18 279 L20 279 L20 274 Z M28 270 L28 272 L32 273 L32 270 Z M466 269 L463 269 L460 273 L458 273 L458 275 L465 274 Z M66 269 L59 270 L59 272 L56 273 L56 276 L58 276 L59 273 L66 271 Z M500 258 L496 267 L492 266 L491 268 L485 269 L486 271 L485 274 L480 272 L481 266 L479 263 L477 267 L474 267 L475 273 L470 275 L467 278 L473 277 L474 279 L479 279 L483 275 L494 278 L491 274 L493 270 L500 267 Z M470 258 L468 263 L470 263 L471 260 Z M145 256 L145 259 L147 259 L148 256 Z M359 256 L359 258 L364 258 L363 255 Z M71 255 L71 259 L72 259 L72 255 Z M33 255 L33 256 L37 256 L37 255 Z M155 254 L153 256 L153 259 L155 259 Z M489 240 L488 243 L492 244 L492 242 Z M286 231 L282 233 L281 235 L282 239 L287 237 Z M454 229 L451 229 L450 236 L452 236 Z M440 229 L440 231 L443 233 L441 237 L444 237 L446 233 L444 232 L444 229 Z M128 223 L130 227 L133 225 Z M418 223 L418 225 L421 224 L423 227 L427 226 L427 224 L423 225 L422 222 Z M436 217 L433 218 L432 227 L425 230 L426 233 L430 234 L431 229 L435 228 L436 224 L438 223 L438 221 L436 220 Z M420 213 L417 215 L419 215 Z M474 205 L474 207 L476 210 L479 211 L480 214 L478 216 L471 216 L468 221 L464 222 L464 227 L468 227 L468 224 L470 222 L473 222 L475 218 L478 219 L483 218 L485 222 L487 222 L488 220 L493 221 L492 223 L493 229 L491 231 L484 231 L483 232 L484 235 L479 240 L476 239 L477 235 L474 235 L472 230 L469 231 L470 235 L473 236 L473 239 L477 240 L475 242 L477 247 L475 248 L474 255 L478 255 L481 259 L484 260 L485 258 L489 257 L490 253 L486 253 L484 249 L482 250 L481 253 L477 253 L476 251 L479 249 L478 247 L480 246 L482 240 L487 236 L486 234 L487 232 L490 234 L490 238 L496 240 L496 246 L498 248 L495 249 L495 251 L497 252 L498 255 L500 253 L500 247 L498 246 L498 244 L500 243 L500 215 L498 210 L489 210 L488 212 L481 213 L480 207 Z M492 236 L492 233 L494 231 L500 233 L499 235 L495 237 Z M497 220 L500 221 L499 226 L496 223 Z M488 214 L490 215 L489 218 L486 217 Z M495 213 L499 215 L496 220 L494 219 Z M455 204 L453 210 L456 213 L459 211 L460 207 L457 209 L456 208 L457 205 Z M495 199 L495 207 L497 206 L500 207 L498 203 L499 200 Z M468 195 L470 199 L472 199 L472 197 Z M456 194 L454 194 L452 198 L454 198 Z M485 190 L482 191 L481 194 L484 193 Z M22 206 L24 216 L36 216 L34 222 L39 227 L34 228 L38 234 L33 233 L30 236 L33 243 L30 248 L36 246 L35 242 L39 241 L40 237 L44 238 L42 244 L45 249 L42 252 L46 260 L41 260 L40 256 L38 262 L45 263 L46 270 L49 263 L55 260 L63 267 L62 260 L66 259 L80 237 L87 245 L82 246 L83 251 L77 252 L82 259 L78 262 L78 268 L87 268 L88 275 L101 271 L107 273 L110 270 L111 273 L119 275 L120 279 L126 276 L125 271 L132 274 L132 264 L138 259 L133 253 L135 246 L131 240 L127 240 L125 235 L111 238 L109 243 L105 240 L112 235 L111 229 L106 231 L110 226 L104 216 L107 211 L116 215 L120 226 L125 220 L124 214 L132 214 L132 207 L124 200 L125 196 L121 196 L120 205 L116 206 L112 201 L115 197 L106 200 L100 195 L97 200 L100 203 L99 208 L95 212 L88 195 L75 187 L73 200 L69 204 L64 203 L71 207 L68 217 L74 214 L75 218 L79 218 L82 211 L92 216 L84 217 L85 224 L78 225 L71 236 L57 238 L60 249 L53 246 L51 237 L40 234 L42 228 L49 226 L52 230 L55 227 L61 232 L68 230 L64 221 L60 222 L58 218 L62 213 L57 210 L61 207 L61 200 L53 207 L48 206 L52 201 L49 199 L39 207 L32 204 L30 210 Z M108 266 L110 265 L111 267 L109 268 Z M106 263 L108 262 L109 264 L107 265 Z M114 257 L116 256 L118 260 L116 261 Z M86 257 L88 256 L89 258 L87 259 Z M61 255 L62 257 L58 259 L57 257 Z M92 254 L96 254 L100 256 L101 262 L99 265 L101 266 L101 268 L99 270 L97 269 L97 266 L94 269 L90 270 L89 266 L86 265 L87 261 L91 261 Z M113 253 L114 254 L113 263 L111 264 L109 259 L111 254 Z M100 255 L104 253 L106 255 L108 254 L109 256 L105 258 L101 257 Z M130 250 L131 252 L129 254 L133 255 L136 258 L136 260 L130 262 L130 265 L128 267 L125 267 L122 271 L117 272 L115 269 L117 267 L120 268 L122 266 L119 257 L123 255 L124 252 Z M53 251 L58 250 L59 253 L54 254 Z M119 249 L122 252 L121 254 L117 252 Z M113 247 L114 245 L117 244 L120 245 L116 249 Z M68 245 L71 244 L72 247 L69 248 Z M94 242 L95 243 L95 246 L93 247 L94 251 L90 254 L89 253 L90 249 L88 248 L88 245 Z M44 243 L46 242 L47 244 L45 245 Z M60 240 L63 239 L65 244 L63 245 Z M68 239 L70 238 L71 240 L69 241 Z M81 235 L85 231 L86 235 L88 235 L89 237 L84 239 Z M60 228 L63 227 L64 229 L61 230 Z M90 226 L94 228 L95 231 L104 236 L102 239 L103 242 L102 244 L98 243 L98 238 L94 240 L90 236 L91 232 L88 231 Z M57 225 L60 224 L61 227 L58 228 Z M51 221 L54 220 L55 223 L52 224 Z M102 216 L103 217 L102 222 L99 225 L94 226 L93 224 L95 223 L96 218 Z M44 218 L45 215 L48 216 L46 219 Z M92 213 L95 212 L96 215 L94 216 Z M53 212 L56 215 L55 218 L53 217 L52 214 Z M23 212 L25 211 L26 213 L24 214 Z M118 211 L120 210 L121 212 L119 213 Z M127 209 L129 210 L128 213 L125 212 Z M121 210 L123 209 L124 211 L122 212 Z M115 206 L116 208 L112 211 L111 209 Z M89 204 L91 205 L90 210 L88 209 Z M81 203 L84 202 L85 206 L82 207 Z M106 201 L110 203 L110 207 L107 210 L104 210 L103 206 L105 205 Z M82 196 L84 195 L85 197 L83 198 Z M449 182 L450 187 L452 187 L454 190 L459 189 L458 184 L461 183 L461 181 Z M38 179 L34 181 L34 184 L38 181 Z M500 177 L497 182 L493 181 L491 178 L488 182 L484 184 L490 188 L489 191 L490 194 L493 187 L496 187 L497 190 L500 191 L500 193 Z M458 175 L456 179 L458 179 Z M98 175 L95 174 L94 179 Z M13 176 L15 178 L16 184 L27 195 L27 199 L32 197 L37 200 L39 196 L44 196 L45 193 L43 191 L45 189 L48 190 L51 189 L55 193 L57 190 L59 190 L59 185 L57 185 L57 187 L55 188 L54 184 L52 183 L53 181 L57 179 L57 177 L54 179 L51 177 L47 178 L47 182 L45 183 L44 176 L42 176 L43 184 L45 184 L46 186 L42 188 L41 190 L37 191 L35 190 L35 187 L34 187 L34 191 L32 192 L31 187 L28 183 L24 186 L21 179 L16 178 L17 175 L19 176 L21 175 L16 174 L15 176 Z M49 180 L52 179 L53 181 L50 182 Z M65 173 L65 175 L62 176 L60 179 L60 183 L62 185 L66 185 L67 188 L70 189 L72 185 L70 184 L68 178 L70 177 L71 180 L74 182 L77 177 L76 176 L73 177 L70 176 L68 173 Z M63 180 L65 179 L66 181 L64 182 Z M442 170 L441 171 L443 174 L444 171 Z M59 169 L55 170 L55 172 L59 171 Z M40 168 L32 171 L27 169 L28 177 L33 175 L39 175 Z M85 167 L84 169 L85 173 L83 177 L88 178 L87 175 L88 174 L92 175 L92 174 L88 173 L86 170 L87 167 Z M342 164 L341 165 L343 171 L347 170 L347 167 Z M166 164 L166 167 L169 167 L170 169 L175 168 L177 170 L174 164 L170 165 Z M359 163 L356 165 L356 167 L359 165 Z M56 163 L49 163 L51 167 L48 168 L47 171 L48 173 L52 172 L53 166 L56 165 Z M94 162 L95 167 L99 166 L99 164 Z M500 158 L499 165 L497 167 L494 167 L493 164 L491 164 L490 168 L485 170 L484 174 L486 174 L487 171 L500 174 Z M378 156 L378 157 L383 157 L383 156 Z M13 156 L16 159 L20 158 L20 156 Z M338 156 L337 161 L340 158 L343 161 L351 162 L350 160 L344 158 L343 155 Z M182 157 L186 155 L183 155 Z M128 155 L130 162 L128 163 L125 161 L124 172 L118 170 L118 168 L121 167 L121 165 L118 164 L115 170 L110 174 L106 175 L104 171 L102 171 L103 175 L101 177 L110 176 L115 173 L115 179 L119 179 L120 182 L125 183 L123 188 L128 193 L131 192 L129 190 L131 183 L133 186 L138 188 L140 184 L144 182 L148 187 L143 193 L141 193 L143 198 L146 198 L147 200 L142 203 L140 208 L141 215 L143 217 L136 223 L143 227 L141 234 L147 238 L146 248 L148 248 L151 253 L152 250 L155 249 L154 245 L160 241 L159 235 L164 231 L164 229 L161 231 L157 230 L161 227 L159 223 L162 222 L160 219 L163 212 L160 211 L162 204 L161 200 L159 200 L156 196 L157 193 L154 191 L154 186 L152 186 L151 183 L154 182 L155 184 L160 183 L161 185 L164 185 L164 182 L160 183 L159 181 L154 181 L151 178 L155 169 L151 169 L150 156 L149 176 L142 178 L138 176 L139 168 L135 166 L136 161 L133 161 L130 158 L133 155 Z M154 238 L156 237 L157 240 L155 241 Z M150 235 L152 234 L153 236 L151 237 Z M143 232 L146 231 L147 234 L144 235 Z M154 231 L157 230 L158 234 L155 235 Z M145 223 L147 222 L149 226 L146 227 Z M149 220 L151 219 L152 221 L150 222 Z M149 215 L151 214 L152 216 L150 217 Z M157 210 L158 211 L157 214 L153 217 L152 215 L154 211 Z M143 211 L145 210 L149 216 L147 217 Z M150 207 L153 206 L154 208 L151 209 Z M154 203 L156 202 L157 204 L155 205 Z M150 202 L152 201 L153 203 L151 204 Z M151 196 L153 195 L154 197 L152 198 Z M125 185 L127 184 L128 186 L126 187 Z M133 182 L135 181 L136 183 L134 184 Z M129 175 L131 174 L132 176 L130 177 Z M127 163 L129 164 L130 167 L129 170 L127 169 L126 166 Z M165 154 L162 154 L159 157 L155 165 L159 167 L163 166 L163 160 L167 158 Z M159 159 L161 158 L162 160 L160 161 Z M358 145 L360 149 L365 148 L366 151 L368 151 L371 154 L376 154 L376 152 L372 150 L373 148 L378 149 L378 147 L375 145 L373 145 L372 148 L370 147 L370 144 L362 147 Z M154 144 L151 145 L151 148 L154 146 Z M91 141 L91 144 L93 144 L93 141 Z M495 140 L494 144 L497 144 L498 148 L500 148 L500 143 L497 140 Z M370 138 L370 141 L373 141 L373 139 Z M151 137 L152 140 L159 142 L158 139 Z M138 144 L133 139 L131 141 L128 141 L125 138 L124 139 L120 138 L116 140 L112 136 L112 140 L110 143 L102 143 L101 141 L99 141 L94 146 L95 151 L89 153 L88 150 L83 149 L82 141 L80 141 L76 145 L81 149 L80 153 L78 152 L78 150 L76 150 L71 155 L69 155 L68 153 L65 154 L61 153 L61 155 L57 157 L61 160 L61 164 L66 164 L65 160 L70 159 L71 163 L73 163 L76 167 L82 166 L86 160 L95 159 L96 158 L95 156 L93 157 L90 156 L93 153 L97 153 L100 159 L110 159 L115 162 L115 157 L116 156 L120 157 L122 150 L129 150 L131 148 L133 141 L135 142 L136 146 L138 146 Z M72 157 L74 156 L75 158 L73 159 Z M113 152 L117 151 L119 154 L115 155 Z M98 152 L100 151 L101 153 L99 154 Z M95 146 L97 145 L98 147 L96 148 Z M374 134 L374 136 L378 138 L378 136 Z M467 133 L467 135 L471 135 L472 132 Z M495 130 L496 134 L499 135 L497 130 Z M33 130 L31 131 L32 136 L29 139 L27 138 L28 136 L27 132 L25 132 L24 135 L21 135 L24 139 L19 141 L19 147 L22 147 L23 149 L25 149 L25 147 L28 146 L29 147 L28 151 L32 150 L32 143 L35 142 L35 140 L33 139 Z M13 130 L13 135 L18 134 L16 130 Z M416 127 L412 128 L413 132 L416 130 Z M48 128 L47 134 L55 133 L58 134 L59 137 L62 138 L66 137 L65 133 L62 134 L59 133 L64 128 L52 130 L51 129 L52 125 L50 125 L50 127 Z M384 115 L382 117 L384 122 L381 124 L384 126 L384 129 L388 131 L389 130 L388 127 L392 126 L393 119 L389 118 L389 121 L387 122 L384 120 L384 118 L386 117 L386 115 Z M500 112 L499 114 L500 120 L496 121 L496 123 L500 126 Z M200 112 L200 116 L202 116 L202 112 Z M497 110 L495 110 L494 113 L482 111 L481 113 L476 115 L477 120 L485 116 L486 118 L484 121 L488 123 L488 117 L494 113 L497 113 Z M461 107 L468 110 L466 106 Z M436 106 L437 114 L435 116 L437 116 L438 118 L444 118 L445 115 L439 112 L439 109 L441 108 L441 106 Z M453 105 L453 111 L450 116 L455 117 L456 113 L454 111 L457 108 L456 105 Z M13 102 L13 104 L17 106 L17 104 Z M123 100 L119 102 L117 106 L120 107 L120 105 L123 104 Z M330 99 L328 99 L327 102 L322 100 L320 104 L317 105 L317 107 L320 109 L321 106 L324 106 L326 104 L331 105 Z M200 98 L197 99 L199 101 L197 108 L199 104 L202 103 L202 100 Z M421 95 L420 99 L422 101 L418 106 L416 106 L415 108 L407 108 L403 110 L403 113 L405 115 L410 116 L411 114 L413 115 L412 118 L416 119 L415 123 L417 123 L418 119 L420 118 L419 114 L424 112 L425 109 L424 100 L422 99 Z M416 111 L420 110 L421 112 L417 113 Z M415 96 L414 95 L411 97 L411 99 L413 99 Z M223 93 L218 94 L218 95 L221 95 Z M302 91 L303 95 L301 99 L303 99 L304 102 L308 102 L308 97 L307 96 L305 97 L303 95 L306 92 Z M114 89 L107 89 L105 90 L106 93 L101 94 L101 95 L106 96 L107 91 L112 92 L114 91 Z M290 88 L286 89 L284 95 L278 95 L278 97 L284 96 L286 98 L285 102 L287 102 L288 98 L286 94 Z M449 83 L444 83 L443 86 L440 87 L439 90 L436 89 L434 91 L435 94 L433 98 L429 95 L425 95 L425 96 L427 96 L428 98 L432 98 L433 101 L438 99 L444 100 L445 101 L444 106 L446 107 L447 102 L453 100 L453 95 L450 94 L448 90 L444 89 L445 87 L449 85 Z M445 99 L447 98 L448 101 L446 102 Z M438 91 L442 90 L445 91 L446 93 L442 94 L439 93 Z M208 83 L209 87 L211 88 L211 92 L215 91 L215 89 L211 88 L213 85 Z M344 90 L346 91 L347 89 L353 89 L355 86 L351 86 L348 82 L346 82 L347 86 Z M182 82 L179 83 L177 86 L179 90 L180 90 L179 86 L182 85 Z M57 82 L56 85 L58 86 L58 82 Z M467 83 L467 85 L471 86 L472 83 L474 84 L475 87 L477 86 L476 84 L473 83 L473 81 L471 81 L470 83 Z M350 79 L352 83 L355 82 L354 80 Z M130 79 L131 84 L129 85 L128 89 L131 88 L132 90 L134 90 L133 81 Z M110 76 L106 78 L108 82 L110 82 L109 80 L111 78 Z M91 77 L88 76 L86 80 L82 80 L82 82 L78 86 L72 86 L75 92 L78 93 L78 98 L81 99 L82 102 L79 103 L79 106 L81 107 L80 109 L76 109 L74 104 L72 108 L68 110 L65 109 L65 106 L70 104 L66 103 L65 99 L61 98 L62 94 L66 90 L60 91 L60 98 L57 101 L57 104 L51 106 L50 103 L52 94 L46 92 L43 89 L43 86 L40 86 L38 84 L37 79 L34 80 L32 77 L32 79 L29 80 L28 84 L30 84 L31 88 L34 89 L35 94 L31 97 L31 100 L28 101 L28 103 L30 104 L28 108 L31 109 L33 107 L35 110 L37 104 L42 103 L43 105 L46 105 L48 108 L55 112 L54 120 L58 120 L59 118 L61 118 L65 121 L71 121 L70 116 L72 115 L74 118 L77 119 L75 125 L77 125 L79 128 L83 130 L83 137 L86 137 L84 125 L78 126 L77 124 L81 120 L93 120 L90 115 L87 115 L92 108 L91 104 L85 104 L86 98 L83 96 L81 90 L83 83 L89 80 Z M74 113 L77 112 L78 114 L75 115 Z M78 113 L81 111 L83 114 L79 115 Z M69 111 L70 114 L66 116 L65 113 Z M58 106 L60 107 L61 111 L60 114 L57 111 Z M36 94 L37 93 L41 94 L42 91 L45 92 L46 94 L44 96 L46 97 L47 101 L45 102 L42 99 L42 97 L40 98 L37 97 Z M31 82 L35 81 L36 85 L35 86 L32 85 Z M431 76 L430 75 L427 78 L430 78 Z M58 79 L65 80 L66 85 L68 85 L68 81 L72 79 L66 78 L64 75 L62 77 L59 76 Z M228 76 L229 79 L231 79 L233 76 L239 75 L239 74 L234 75 L229 74 Z M207 75 L201 78 L201 74 L198 74 L195 78 L193 75 L189 74 L192 83 L188 87 L188 95 L181 99 L177 97 L174 99 L171 94 L171 89 L165 91 L166 99 L161 100 L161 105 L159 107 L156 107 L154 103 L149 104 L149 106 L156 107 L154 114 L151 113 L151 109 L146 111 L145 104 L142 103 L143 100 L152 98 L151 96 L139 92 L140 95 L137 97 L133 93 L128 95 L127 93 L120 91 L119 93 L122 93 L124 98 L130 99 L131 101 L134 100 L135 97 L139 99 L140 101 L136 104 L138 108 L138 103 L142 103 L142 108 L146 114 L142 118 L141 124 L132 124 L133 119 L136 118 L136 115 L133 113 L129 113 L131 115 L131 123 L129 125 L124 125 L120 121 L116 121 L118 117 L110 113 L113 108 L113 99 L119 99 L119 96 L115 95 L113 98 L110 98 L112 102 L111 108 L104 109 L109 112 L102 115 L109 120 L103 125 L89 124 L89 131 L94 133 L93 128 L96 126 L97 131 L99 133 L101 132 L102 135 L114 131 L116 136 L118 136 L116 134 L118 128 L125 133 L133 134 L134 136 L140 135 L139 133 L136 135 L134 134 L136 129 L139 129 L141 125 L144 124 L145 127 L148 125 L150 126 L150 131 L154 126 L149 118 L157 113 L162 114 L163 112 L166 112 L168 114 L167 117 L170 120 L168 133 L163 136 L163 138 L166 139 L165 143 L167 145 L162 146 L161 148 L171 147 L172 151 L176 150 L177 153 L180 154 L182 149 L185 148 L185 138 L182 139 L181 137 L186 131 L190 131 L191 129 L185 125 L185 120 L180 118 L179 120 L184 126 L177 130 L172 130 L171 127 L173 125 L170 117 L172 110 L168 111 L167 107 L163 109 L162 106 L164 104 L170 106 L176 105 L176 108 L180 110 L186 108 L187 104 L194 102 L191 100 L195 97 L195 95 L191 95 L194 93 L194 81 L196 80 L199 82 Z M173 146 L176 145 L177 147 L174 148 Z M169 134 L173 133 L174 135 L170 136 Z M145 121 L148 120 L149 122 L146 123 Z M114 118 L115 119 L114 128 L110 132 L106 131 L105 129 L107 128 L107 125 Z M177 102 L178 101 L181 102 L182 100 L184 100 L187 104 L180 106 Z M167 94 L170 93 L171 95 L168 96 Z M181 74 L180 76 L184 78 L185 76 Z M373 71 L371 71 L370 73 L367 73 L365 80 L369 80 L370 77 L373 77 Z M346 73 L345 71 L343 71 L342 73 L339 73 L338 71 L334 71 L335 74 L331 76 L330 70 L327 70 L328 75 L326 76 L325 73 L323 73 L324 75 L323 78 L321 77 L321 75 L317 78 L313 75 L313 73 L311 73 L310 79 L307 80 L306 83 L302 83 L302 86 L305 87 L306 85 L309 85 L309 80 L313 78 L316 78 L317 80 L321 80 L322 84 L326 83 L327 78 L330 78 L331 82 L329 83 L329 88 L335 89 L337 83 L336 81 L342 80 L342 77 L345 76 Z M331 84 L334 83 L335 85 L332 86 Z M29 70 L29 74 L31 74 L31 70 Z M427 69 L427 71 L429 72 L430 69 Z M38 69 L39 71 L42 72 L41 74 L39 74 L40 78 L43 78 L43 75 L46 73 L44 72 L44 70 Z M500 68 L496 69 L495 73 L490 74 L491 77 L489 81 L484 78 L484 75 L482 73 L479 73 L477 78 L480 77 L484 78 L483 81 L480 82 L479 90 L482 91 L482 94 L475 95 L473 91 L468 91 L468 94 L464 95 L461 99 L462 102 L467 103 L467 101 L470 100 L472 102 L472 106 L474 106 L474 103 L477 101 L478 98 L483 98 L487 100 L487 103 L489 103 L490 101 L493 101 L494 104 L497 104 L499 107 L500 106 L500 95 L494 95 L493 93 L500 88 L500 86 L498 85 L499 83 L496 79 L497 77 L500 76 Z M493 97 L495 96 L497 100 L495 101 Z M484 91 L488 90 L489 92 L485 93 Z M487 84 L491 83 L492 86 L495 88 L495 90 L492 91 Z M490 81 L493 78 L495 79 L492 82 Z M174 66 L173 70 L177 68 L179 72 L180 71 L179 67 L176 68 Z M297 65 L300 71 L308 69 L307 66 L302 67 Z M161 65 L159 65 L158 67 L159 69 Z M100 65 L96 66 L91 65 L90 71 L92 71 L93 73 L101 77 L100 80 L95 79 L93 80 L93 83 L95 84 L97 89 L94 91 L91 89 L91 94 L97 93 L101 90 L101 88 L97 87 L97 84 L102 83 L103 76 L101 75 L101 70 L98 69 Z M444 64 L444 66 L446 67 L447 64 Z M73 63 L68 63 L68 73 L70 73 L70 71 L73 69 Z M500 59 L494 60 L494 62 L500 61 Z M379 59 L379 61 L383 62 L383 60 Z M240 59 L239 63 L241 64 L241 59 Z M307 56 L304 57 L303 59 L308 58 Z M180 56 L179 57 L180 60 L177 62 L179 64 L181 62 L185 64 L185 62 Z M21 56 L19 57 L16 63 L17 64 L21 62 Z M462 56 L462 57 L466 57 L465 55 Z M438 55 L436 55 L436 58 L438 57 Z M341 55 L338 58 L339 61 L341 58 L343 58 Z M384 51 L384 53 L387 52 L387 51 Z M166 51 L165 54 L167 54 L168 58 L170 58 L171 53 Z M52 51 L54 55 L54 51 Z M326 50 L320 53 L324 54 Z M443 48 L441 49 L441 52 L443 52 Z M281 47 L280 52 L283 52 L284 49 L283 47 Z M479 46 L479 48 L482 49 L482 47 Z M446 46 L446 48 L450 50 L450 54 L454 54 L456 46 L453 46 L452 48 L450 46 Z M433 47 L426 47 L425 44 L423 44 L422 48 L417 50 L421 53 L415 55 L413 53 L405 54 L402 52 L401 55 L404 55 L409 59 L410 66 L405 67 L405 62 L403 62 L400 70 L398 70 L396 66 L391 67 L389 74 L392 76 L388 79 L386 78 L385 73 L382 74 L385 77 L383 84 L387 81 L390 85 L397 88 L395 92 L398 94 L394 98 L392 97 L393 94 L385 97 L382 93 L374 94 L373 91 L376 87 L375 86 L361 86 L361 88 L358 89 L360 92 L359 94 L351 96 L350 93 L347 93 L347 98 L352 97 L353 99 L349 104 L347 104 L345 109 L351 109 L353 111 L355 107 L354 103 L358 102 L358 97 L360 96 L366 100 L361 103 L369 108 L371 108 L372 103 L376 103 L380 100 L381 103 L377 109 L384 106 L387 110 L390 110 L392 105 L400 102 L400 96 L406 93 L403 92 L402 89 L399 90 L398 85 L401 83 L403 87 L411 88 L411 85 L406 85 L408 81 L415 83 L415 81 L418 80 L422 86 L428 87 L425 91 L427 92 L428 88 L432 86 L432 84 L429 82 L421 84 L419 73 L424 71 L424 65 L432 62 L430 56 L425 62 L422 58 L422 54 L429 53 Z M369 96 L373 98 L371 103 L367 102 L369 100 L368 98 Z M378 96 L380 95 L381 97 L379 98 Z M364 94 L366 93 L367 95 L365 96 Z M405 76 L406 77 L405 80 L400 83 L398 80 Z M421 58 L423 61 L423 64 L422 65 L419 64 L419 69 L418 70 L415 69 L414 72 L408 73 L406 70 L411 68 L412 61 L416 60 L417 58 Z M338 44 L339 48 L341 48 L341 46 Z M49 44 L47 44 L45 49 L49 46 Z M403 42 L401 43 L400 50 L403 48 Z M87 42 L86 49 L89 52 L93 52 L92 47 L90 46 L90 42 Z M357 43 L354 41 L354 43 L351 45 L350 42 L347 42 L347 47 L351 49 Z M248 40 L246 40 L245 42 L243 42 L242 40 L240 41 L241 43 L239 50 L240 52 L244 48 L246 48 L246 45 L248 44 Z M217 41 L220 43 L224 42 L224 40 Z M434 39 L435 46 L438 49 L436 44 L438 40 Z M409 37 L407 39 L408 43 L412 43 L414 46 L416 44 L415 41 L411 40 Z M194 37 L191 39 L192 43 L188 45 L188 47 L190 46 L194 47 L193 49 L189 50 L191 55 L188 56 L188 58 L191 57 L195 58 L196 54 L193 53 L193 50 L198 49 L198 46 L196 47 L194 46 L195 42 L193 41 Z M201 35 L197 38 L198 40 L202 37 Z M75 35 L73 42 L76 44 L79 38 L77 38 Z M498 34 L497 35 L499 36 L499 42 L495 47 L492 48 L491 50 L492 52 L495 51 L498 46 L500 46 L500 35 Z M424 34 L423 37 L427 39 L426 34 Z M208 34 L205 38 L204 44 L209 42 L210 49 L211 49 L212 43 L210 43 L209 41 L213 40 L214 37 Z M63 34 L59 38 L58 41 L60 43 L59 49 L61 51 L60 57 L62 57 L66 53 L65 51 L66 46 L64 45 L64 42 L62 41 L64 39 Z M172 32 L172 34 L175 35 L174 48 L178 46 L179 42 L184 43 L186 41 L185 36 L178 38 L177 34 Z M139 32 L139 36 L141 36 L141 32 Z M130 31 L128 31 L124 42 L127 42 Z M109 31 L107 31 L107 33 L100 38 L101 42 L103 42 L106 37 L110 36 Z M482 30 L482 33 L484 33 L485 30 Z M476 30 L476 32 L479 33 L478 30 Z M318 30 L317 32 L319 33 L320 42 L322 42 L324 46 L327 46 L328 43 L330 44 L330 46 L332 46 L333 41 L330 41 L328 37 L323 39 L322 38 L323 30 Z M224 30 L222 30 L219 33 L224 32 Z M451 23 L446 24 L446 26 L451 25 Z M334 22 L334 26 L336 27 L337 26 L336 23 Z M321 22 L320 23 L321 26 L323 27 L323 23 Z M236 22 L234 23 L234 25 L236 25 Z M179 21 L178 22 L179 24 L182 26 L182 23 Z M74 23 L74 27 L79 28 L83 33 L91 32 L92 34 L90 36 L90 39 L92 39 L95 30 L99 29 L99 24 L95 23 L95 25 L97 26 L96 28 L91 28 L90 26 L79 25 L76 23 L76 21 Z M83 31 L84 28 L89 29 L88 31 L85 32 Z M258 20 L254 47 L257 60 L249 74 L256 84 L229 119 L225 118 L224 106 L230 96 L235 96 L224 88 L229 94 L220 102 L213 125 L216 132 L209 134 L202 126 L202 148 L184 162 L185 172 L177 177 L181 180 L170 185 L177 216 L186 219 L186 229 L181 230 L183 224 L176 222 L173 254 L161 254 L162 266 L159 271 L156 266 L153 277 L140 263 L142 269 L137 277 L142 274 L143 279 L133 290 L142 288 L147 294 L146 311 L136 330 L141 361 L147 364 L137 373 L142 383 L137 394 L147 407 L152 429 L179 451 L189 450 L184 455 L197 460 L198 466 L203 463 L209 474 L225 472 L230 479 L249 474 L259 493 L259 483 L266 482 L268 475 L291 477 L300 471 L305 475 L315 462 L328 460 L334 449 L362 433 L373 417 L369 411 L377 400 L375 383 L382 376 L370 365 L374 361 L382 366 L375 357 L380 351 L378 330 L389 323 L395 328 L390 328 L388 338 L393 341 L383 341 L382 347 L388 350 L383 357 L394 357 L407 372 L416 370 L412 361 L415 358 L406 352 L412 344 L403 334 L413 319 L418 319 L418 306 L411 305 L410 299 L405 305 L397 297 L397 309 L391 310 L389 297 L376 292 L377 287 L370 281 L381 264 L375 262 L369 275 L359 274 L356 266 L362 266 L350 253 L360 250 L356 246 L343 252 L348 244 L341 241 L344 229 L340 223 L328 240 L330 221 L350 192 L353 201 L360 202 L354 214 L358 219 L357 240 L363 238 L359 244 L366 253 L373 249 L369 257 L377 248 L371 244 L385 236 L387 227 L392 227 L392 234 L399 226 L395 237 L400 238 L394 248 L389 245 L386 251 L391 266 L386 267 L390 277 L384 283 L389 281 L400 295 L401 290 L410 295 L411 290 L417 292 L420 283 L416 276 L410 280 L407 275 L417 270 L416 264 L423 257 L426 260 L421 275 L430 273 L430 255 L435 257 L434 265 L447 265 L447 271 L454 267 L448 260 L448 250 L439 256 L433 254 L434 247 L427 242 L425 247 L419 246 L419 236 L415 238 L414 229 L408 228 L413 219 L405 216 L411 210 L396 210 L404 207 L405 196 L413 190 L420 194 L422 203 L433 199 L444 204 L440 195 L446 193 L439 195 L438 186 L430 190 L426 182 L415 189 L406 187 L416 181 L412 176 L418 174 L418 169 L422 170 L422 178 L431 178 L429 174 L436 178 L430 171 L433 162 L439 165 L441 158 L455 155 L448 149 L454 147 L449 142 L442 146 L438 141 L422 149 L409 135 L409 146 L387 137 L393 158 L386 159 L395 164 L392 171 L399 182 L387 185 L393 209 L377 215 L377 207 L371 204 L377 195 L370 191 L374 184 L368 177 L373 173 L388 174 L389 165 L382 167 L385 172 L379 171 L377 161 L367 156 L366 181 L359 188 L362 194 L357 195 L353 189 L357 184 L344 184 L323 156 L319 157 L317 169 L311 161 L319 153 L315 134 L330 117 L342 129 L336 144 L346 130 L351 134 L356 127 L357 132 L357 123 L368 128 L378 119 L368 116 L366 120 L358 118 L354 124 L339 124 L339 120 L358 115 L360 109 L355 116 L345 116 L343 100 L335 107 L335 111 L341 109 L337 118 L328 111 L321 116 L318 127 L313 126 L311 134 L303 138 L299 130 L304 128 L302 120 L311 121 L310 116 L315 115 L302 112 L303 106 L298 107 L295 101 L287 118 L282 110 L289 106 L280 107 L273 93 L261 84 L261 78 L267 81 L269 71 L262 71 L267 63 L259 64 L265 53 L259 45 L264 35 L259 33 L262 24 Z M232 473 L234 469 L237 470 L235 474 Z M263 468 L266 474 L261 478 L258 477 L256 479 L250 474 L250 472 L253 469 L259 474 L258 469 Z M213 467 L215 466 L216 468 L214 469 Z M275 468 L277 464 L280 465 L283 464 L285 466 L282 470 L278 470 Z M234 463 L239 462 L240 465 L244 466 L244 468 L238 470 L237 467 L234 466 Z M215 463 L218 462 L219 464 L221 464 L222 462 L225 462 L227 465 L227 468 L224 469 L223 467 L218 468 Z M296 460 L298 462 L298 466 L292 468 L291 466 Z M302 460 L305 459 L306 461 L303 462 Z M208 460 L213 459 L214 461 L209 462 Z M226 457 L228 456 L229 458 L227 459 Z M203 456 L207 455 L208 458 L205 459 Z M310 454 L312 458 L309 461 L307 461 L306 458 Z M315 454 L317 453 L319 456 L316 457 Z M218 453 L220 452 L221 454 L219 455 Z M287 456 L287 453 L290 450 L296 453 L295 455 L292 455 L291 457 Z M271 453 L273 450 L278 451 L281 453 L282 457 L279 459 L272 457 Z M224 449 L226 448 L229 453 L224 454 L223 453 Z M249 448 L251 447 L252 449 L250 450 Z M281 443 L283 444 L283 447 L285 448 L284 451 L277 449 L278 447 L280 447 Z M267 447 L266 450 L261 451 L260 456 L257 457 L252 456 L252 454 L255 453 L257 449 L259 448 L259 445 L261 443 Z M235 443 L237 444 L237 447 L240 451 L245 449 L246 455 L243 456 L242 458 L239 457 L238 455 L235 457 L234 456 L235 452 L232 449 Z M257 442 L258 445 L254 447 L253 444 Z M216 445 L219 442 L222 442 L224 444 L222 448 L217 448 Z M243 442 L245 441 L246 443 L244 444 Z M329 440 L332 439 L333 441 L330 442 Z M316 440 L311 445 L308 444 L310 440 L313 439 Z M302 440 L302 443 L299 444 L298 446 L296 445 L294 447 L291 446 L293 442 L296 442 L297 440 L300 439 Z M247 440 L249 439 L250 441 L248 442 Z M341 437 L343 436 L344 438 L342 439 Z M266 436 L268 435 L269 437 L267 438 Z M200 436 L202 435 L203 437 L201 438 Z M314 435 L317 434 L318 436 L315 437 Z M283 437 L285 434 L290 435 L294 440 L293 441 L286 440 Z M269 435 L271 434 L272 436 L270 437 Z M244 435 L246 434 L247 436 L245 437 Z M344 433 L349 432 L350 434 L345 435 Z M168 433 L173 432 L174 434 L169 435 Z M325 432 L327 431 L328 434 L326 435 Z M298 437 L302 431 L305 431 L308 433 L308 435 L305 437 L300 438 Z M200 432 L202 431 L203 433 L201 434 Z M263 433 L265 430 L269 431 L268 433 L265 434 Z M250 431 L252 430 L258 436 L256 437 L253 434 L251 434 Z M278 428 L283 431 L281 437 L278 437 L277 435 L274 434 L274 432 Z M204 428 L207 427 L209 430 L205 431 Z M355 427 L357 426 L358 428 L356 429 Z M310 426 L313 429 L311 433 L308 432 L308 429 Z M240 425 L243 424 L245 428 L244 429 L241 428 Z M195 424 L198 425 L197 430 L194 429 Z M339 424 L341 423 L342 425 L340 426 Z M174 424 L176 423 L177 425 L175 426 Z M200 421 L204 422 L203 428 L201 427 L199 423 Z M181 422 L183 421 L184 423 L182 424 Z M300 420 L301 422 L306 424 L306 427 L302 429 L301 432 L298 432 L296 435 L292 435 L288 427 L288 424 L289 423 L295 424 L294 422 L295 420 Z M342 420 L344 419 L345 421 L343 422 Z M286 419 L287 424 L285 426 L281 426 L280 425 L281 421 Z M209 425 L213 423 L215 420 L220 419 L222 424 L228 425 L228 427 L230 428 L229 433 L232 434 L233 438 L228 441 L222 439 L224 437 L223 432 L221 432 L216 438 L212 435 L213 432 L217 433 L216 427 L212 428 Z M155 420 L157 419 L159 423 L156 424 Z M357 419 L359 418 L360 421 L358 422 Z M171 419 L173 418 L174 420 L172 421 Z M204 418 L208 417 L210 420 L206 422 Z M183 418 L185 417 L186 419 L184 420 Z M165 418 L167 417 L168 419 L166 420 Z M157 417 L160 416 L161 418 L158 419 Z M355 416 L357 415 L358 417 L356 418 Z M239 415 L241 416 L240 420 L238 419 Z M192 420 L193 418 L195 418 L196 415 L202 418 L201 420 L195 421 Z M285 416 L291 414 L293 417 L293 420 L291 421 L289 418 L286 418 Z M235 414 L237 415 L237 425 L242 431 L241 434 L238 436 L234 435 L235 428 L232 427 L230 424 L231 420 L234 419 Z M231 415 L230 417 L228 417 L226 421 L221 419 L227 414 Z M313 413 L314 416 L309 422 L307 419 Z M259 414 L261 413 L266 420 L262 422 Z M257 412 L258 417 L255 419 L254 415 Z M155 411 L157 412 L156 416 L154 415 Z M274 410 L276 410 L278 414 L277 421 L275 420 L273 413 Z M240 413 L241 410 L244 411 L242 414 Z M153 409 L155 408 L156 410 L154 411 Z M171 407 L173 406 L174 408 L172 409 Z M358 406 L360 405 L361 407 L359 408 Z M287 405 L288 407 L284 409 L283 407 Z M170 416 L170 414 L174 412 L176 405 L180 406 L182 409 L186 411 L183 414 L181 413 L181 411 L178 412 L177 418 Z M155 408 L156 405 L160 406 L157 409 Z M252 405 L254 404 L255 406 L253 407 Z M267 403 L269 402 L270 404 L268 405 Z M245 403 L247 402 L248 404 L246 405 Z M289 402 L292 401 L294 405 L291 406 Z M283 402 L285 401 L286 403 L284 404 Z M275 401 L277 401 L281 405 L281 408 L279 410 L274 404 Z M256 398 L258 399 L257 403 L255 402 Z M369 398 L371 397 L372 399 L370 400 Z M263 397 L266 396 L267 398 L264 399 Z M148 397 L150 396 L151 398 L149 399 Z M329 395 L332 395 L333 397 L335 397 L341 406 L340 410 L347 413 L347 416 L343 418 L342 420 L339 419 L338 412 L335 415 L335 419 L334 420 L331 419 L332 414 L331 411 L334 410 L335 406 L328 399 Z M281 395 L282 399 L279 402 L278 401 L279 396 Z M188 395 L189 398 L185 401 L186 405 L185 406 L181 405 L179 402 L183 400 L182 396 Z M256 392 L257 394 L255 395 L255 397 L251 399 L250 397 L252 394 Z M260 392 L262 391 L263 393 L261 394 Z M230 391 L232 394 L229 395 L229 400 L224 404 L220 400 L220 398 L222 397 L223 399 L226 399 L226 394 Z M337 390 L339 389 L340 391 L338 392 Z M368 388 L369 391 L366 392 L365 396 L362 395 L363 389 Z M258 386 L259 388 L256 391 L255 389 Z M170 387 L172 386 L173 388 L171 389 Z M145 386 L146 387 L145 395 L143 396 L142 389 Z M237 386 L242 396 L245 398 L245 401 L242 403 L241 400 L239 400 L237 403 L239 408 L236 409 L233 413 L220 410 L222 414 L217 416 L214 413 L213 408 L215 407 L215 405 L211 404 L211 399 L215 397 L216 400 L219 402 L219 404 L229 408 L230 405 L234 405 L231 400 L232 399 L235 400 L238 398 L236 395 L237 391 L234 391 L231 389 L234 385 Z M173 384 L175 383 L176 386 L174 387 Z M361 382 L363 387 L358 392 L356 387 Z M340 383 L342 382 L343 384 L341 385 Z M277 382 L279 387 L281 388 L281 391 L278 392 L276 389 L275 393 L277 393 L278 395 L273 396 L271 398 L265 392 L266 387 L268 386 L269 391 L271 391 L271 383 Z M237 383 L247 382 L248 386 L246 387 L246 391 L245 392 L243 391 L242 386 L238 387 Z M352 382 L354 381 L355 383 L353 384 Z M329 381 L331 380 L332 383 L330 384 Z M260 381 L265 380 L267 383 L267 386 L263 387 Z M254 379 L257 383 L255 386 L252 386 L253 390 L249 392 L248 386 L250 385 L251 380 Z M205 380 L207 379 L208 381 L206 382 Z M365 377 L369 380 L366 384 L363 381 Z M266 378 L268 377 L269 379 L267 380 Z M354 377 L357 376 L359 378 L359 381 L357 382 L354 379 Z M160 376 L162 378 L162 381 L164 381 L165 383 L160 389 L156 390 L155 396 L153 397 L151 392 L147 391 L149 387 L152 387 L152 384 L149 383 L148 380 L152 377 L154 381 L158 383 L157 377 Z M193 414 L193 410 L191 407 L193 404 L192 400 L194 399 L194 396 L192 395 L191 392 L187 390 L187 386 L189 383 L192 384 L194 381 L185 379 L185 377 L188 374 L193 373 L194 377 L199 376 L200 377 L199 382 L202 382 L207 385 L213 385 L214 389 L216 387 L223 386 L224 383 L230 384 L229 386 L226 386 L224 395 L220 396 L219 398 L216 398 L215 395 L213 394 L210 397 L208 394 L209 389 L207 389 L205 392 L203 391 L203 387 L198 389 L196 392 L196 395 L200 396 L199 410 L196 415 Z M284 382 L289 383 L290 387 L295 386 L297 388 L299 384 L303 384 L305 388 L308 388 L309 385 L314 387 L316 379 L319 378 L324 372 L326 371 L329 372 L330 375 L328 381 L324 380 L326 383 L329 384 L330 390 L325 393 L324 397 L322 397 L322 400 L324 401 L323 416 L325 418 L325 420 L321 422 L323 424 L322 431 L320 430 L318 425 L316 426 L311 425 L313 421 L316 420 L315 418 L316 407 L320 405 L320 402 L316 400 L317 390 L313 391 L307 396 L306 403 L302 405 L304 409 L299 411 L300 413 L298 415 L294 415 L293 412 L285 414 L284 412 L292 408 L293 406 L296 409 L297 400 L293 399 L293 395 L290 390 L287 390 L287 396 L290 399 L289 400 L284 399 L285 389 L283 385 Z M365 371 L371 370 L372 376 L370 377 L366 375 Z M338 371 L340 370 L341 372 L339 373 Z M175 370 L177 369 L178 371 L176 372 Z M150 368 L151 374 L146 377 L145 373 Z M312 367 L314 366 L315 369 L313 370 Z M304 367 L306 366 L307 368 L305 369 Z M164 367 L166 366 L167 369 L165 370 Z M341 365 L343 364 L344 367 L342 368 Z M363 361 L365 360 L366 363 L364 364 Z M259 363 L261 361 L263 362 L270 361 L271 363 L276 363 L277 360 L280 360 L281 363 L286 363 L288 361 L290 363 L290 366 L292 366 L295 361 L299 360 L300 361 L299 364 L302 366 L302 368 L298 370 L299 377 L296 379 L294 378 L296 374 L291 375 L290 378 L285 378 L284 375 L277 375 L276 377 L271 377 L270 375 L260 375 L259 374 L260 370 L264 370 L264 368 L260 366 Z M405 358 L411 357 L412 359 L406 360 Z M309 357 L311 356 L312 358 L310 359 Z M203 357 L207 356 L208 358 L204 359 Z M150 357 L152 356 L153 358 L151 359 Z M278 356 L282 355 L283 357 L279 358 Z M233 356 L236 355 L237 357 L234 358 Z M390 354 L392 353 L393 355 L391 356 Z M396 352 L398 352 L400 355 L401 360 L400 363 L396 360 L397 358 L395 354 Z M351 353 L353 352 L354 354 L352 355 Z M284 353 L287 350 L289 354 L285 355 Z M229 350 L231 349 L232 352 L230 353 Z M200 350 L203 349 L206 351 L206 353 L203 354 L200 352 Z M254 348 L256 347 L257 349 L255 350 Z M394 347 L398 345 L404 346 L405 347 L403 349 L404 354 L403 355 L401 354 L400 348 L398 350 L395 350 Z M359 346 L361 345 L362 348 L360 349 Z M230 346 L229 350 L220 352 L218 349 L219 346 L226 345 Z M287 345 L293 344 L295 346 L299 345 L300 347 L298 351 L296 352 L295 350 L291 350 L290 348 L288 348 Z M315 343 L316 352 L312 354 L309 352 L309 349 Z M200 344 L202 343 L204 346 L202 347 Z M282 343 L284 342 L285 344 L283 345 Z M298 342 L300 341 L301 344 L299 345 Z M374 341 L376 340 L377 342 L375 343 Z M254 339 L255 341 L251 345 L251 348 L254 350 L253 356 L257 357 L256 360 L257 363 L255 364 L254 370 L258 372 L258 376 L260 379 L258 380 L255 377 L253 377 L252 373 L249 373 L248 375 L246 375 L248 377 L247 379 L244 379 L241 375 L238 375 L236 377 L234 375 L226 376 L225 374 L223 374 L223 378 L221 379 L219 373 L222 372 L222 370 L220 368 L222 365 L229 366 L229 364 L227 363 L228 361 L232 361 L233 363 L239 362 L241 365 L243 365 L246 361 L253 361 L249 359 L248 356 L244 356 L243 358 L240 358 L237 355 L237 352 L235 352 L234 350 L240 344 L246 344 L247 341 Z M197 340 L199 339 L200 341 L198 342 Z M145 339 L146 341 L144 342 L144 345 L142 346 L140 341 Z M319 340 L322 337 L324 338 L321 341 Z M363 336 L364 340 L359 343 L360 344 L359 346 L356 346 L354 342 L360 336 Z M253 336 L256 334 L260 334 L263 337 L254 338 Z M313 332 L315 333 L314 339 L312 338 Z M167 334 L169 337 L166 339 L161 338 L163 343 L159 346 L158 350 L156 351 L153 347 L156 344 L156 341 L152 340 L153 337 L156 336 L155 333 L159 332 L161 334 L163 333 Z M362 333 L361 335 L357 336 L355 339 L352 340 L348 337 L351 332 L356 334 L360 331 Z M210 331 L211 341 L208 342 L208 345 L206 346 L205 345 L205 340 L207 337 L206 332 Z M194 331 L195 333 L194 336 L192 337 L191 334 Z M146 332 L148 331 L149 333 L147 334 Z M307 330 L311 331 L310 333 L311 341 L310 342 L306 341 L307 338 L306 331 Z M319 330 L321 329 L324 332 L322 333 Z M194 330 L197 329 L198 331 L195 332 Z M251 327 L253 328 L252 334 L249 333 Z M264 326 L267 328 L265 332 L263 331 Z M313 325 L316 324 L317 327 L314 328 Z M190 325 L192 324 L193 326 L191 327 Z M207 323 L210 324 L209 328 L205 326 Z M370 321 L372 322 L371 326 L369 325 Z M343 322 L346 321 L347 323 L344 324 Z M252 325 L256 321 L259 321 L264 326 L258 328 L257 326 L253 327 Z M170 322 L172 321 L173 324 L171 325 Z M385 320 L387 319 L388 321 L386 322 Z M313 318 L315 317 L316 319 L314 320 Z M202 318 L204 317 L205 319 L203 320 Z M318 317 L320 316 L321 318 L319 319 Z M235 316 L240 315 L243 317 L241 322 L249 323 L247 330 L243 332 L244 335 L247 334 L249 336 L246 341 L239 340 L241 335 L238 335 L237 337 L235 336 L236 328 L239 327 L239 324 L234 320 Z M190 315 L191 323 L187 324 L187 328 L189 330 L188 331 L183 330 L183 332 L185 333 L187 337 L191 339 L190 343 L194 342 L196 344 L196 347 L198 349 L197 353 L201 358 L198 359 L193 364 L189 363 L189 365 L186 367 L186 370 L184 371 L182 367 L184 366 L185 362 L179 365 L177 357 L180 356 L180 350 L183 348 L183 345 L181 345 L180 342 L181 341 L185 342 L185 340 L180 338 L180 340 L176 342 L176 344 L178 343 L180 344 L180 347 L174 353 L172 349 L173 345 L169 343 L173 335 L170 332 L170 330 L175 328 L182 321 L185 321 L184 317 L186 315 Z M357 315 L359 314 L360 316 L358 317 Z M343 315 L346 314 L347 316 L344 317 Z M256 317 L257 314 L260 315 L258 318 Z M367 314 L370 313 L371 317 L368 318 Z M170 314 L173 313 L174 316 L171 317 Z M152 313 L154 314 L153 320 L151 319 Z M393 313 L395 312 L396 314 L394 315 Z M243 313 L244 312 L248 313 L249 316 L248 317 L244 316 Z M165 312 L167 313 L166 317 L164 316 Z M205 312 L210 311 L211 312 L210 316 L205 317 L204 316 Z M182 311 L184 310 L185 312 L183 313 Z M313 309 L314 310 L313 317 L311 318 L310 321 L307 321 L306 315 L309 313 L310 310 Z M248 310 L251 309 L253 313 L249 314 Z M197 309 L198 311 L196 315 L193 316 L191 311 L194 309 Z M153 309 L155 308 L156 310 L154 311 Z M331 308 L333 307 L334 309 L332 310 Z M268 307 L269 311 L265 313 L264 311 Z M260 308 L262 307 L263 309 L261 310 Z M321 305 L328 306 L330 314 L334 318 L334 320 L337 322 L337 324 L343 329 L347 340 L347 343 L343 345 L345 347 L344 351 L341 354 L339 354 L339 362 L334 364 L333 371 L331 370 L330 366 L328 366 L326 363 L323 363 L321 359 L320 360 L316 359 L319 350 L322 351 L321 345 L327 343 L326 339 L331 336 L331 333 L328 333 L326 331 L327 329 L326 322 L322 319 L323 317 L328 317 L328 315 L322 315 L319 312 Z M344 304 L346 304 L349 307 L347 310 L342 309 L342 306 Z M173 303 L175 307 L169 309 L167 306 Z M154 304 L156 303 L157 305 L155 306 Z M355 303 L357 302 L358 304 L356 305 Z M184 302 L186 303 L185 307 L183 306 Z M278 302 L280 304 L280 309 L273 316 L269 317 L268 315 L271 311 L276 308 L272 307 L271 304 L274 303 L275 301 Z M260 304 L264 300 L267 302 L264 305 Z M336 300 L340 299 L341 303 L337 305 Z M235 299 L237 298 L245 304 L245 307 L238 310 L236 306 L238 302 L236 302 Z M175 299 L178 298 L181 304 L179 305 L175 301 Z M365 298 L367 297 L368 299 L366 300 Z M276 298 L279 297 L280 299 L277 300 Z M259 297 L261 296 L262 298 L260 299 Z M245 299 L246 296 L251 297 L248 300 Z M202 296 L211 297 L211 300 L206 303 L207 306 L206 308 L202 307 L201 304 Z M150 296 L153 297 L151 304 L149 303 Z M257 295 L258 296 L257 301 L252 304 L251 299 Z M359 295 L361 294 L362 296 L360 297 Z M173 293 L174 294 L173 297 L168 302 L166 302 L164 298 L170 293 Z M374 292 L377 295 L380 295 L383 300 L386 299 L388 300 L387 303 L385 304 L385 310 L388 310 L389 313 L393 314 L393 318 L391 321 L389 320 L389 317 L383 319 L380 324 L375 323 L374 317 L376 315 L374 314 L373 304 L375 303 L375 301 L370 298 L370 295 Z M275 293 L278 292 L279 295 L276 297 Z M175 291 L177 290 L178 292 L176 293 Z M158 292 L163 289 L167 291 L165 295 L160 295 Z M352 288 L357 291 L358 298 L357 299 L354 298 L352 302 L349 303 L343 297 L343 294 Z M344 287 L346 286 L347 289 L345 290 Z M332 287 L334 286 L335 288 L333 289 Z M279 285 L283 285 L285 287 L283 294 L278 289 Z M268 285 L270 289 L268 295 L266 296 L261 291 L263 289 L266 289 L266 286 Z M169 286 L171 285 L172 288 L170 289 Z M173 284 L175 283 L176 285 L174 286 Z M336 281 L338 280 L339 282 L337 283 Z M163 278 L165 277 L166 279 L164 280 Z M358 276 L361 276 L362 282 L365 283 L360 288 L357 287 L357 284 L355 282 Z M244 276 L245 280 L238 286 L239 289 L235 293 L232 289 L233 283 L236 282 L239 277 Z M160 275 L161 283 L158 288 L155 288 L154 285 L152 285 L151 283 L154 282 L154 279 L157 275 Z M395 271 L397 272 L396 275 L393 274 Z M390 271 L392 270 L393 272 L391 273 Z M247 270 L251 270 L252 275 L256 275 L257 279 L260 281 L260 286 L258 288 L254 286 L253 291 L249 293 L247 292 L247 287 L251 284 L250 281 L252 279 L247 277 L246 274 Z M175 270 L178 272 L176 276 L174 275 Z M351 270 L353 269 L354 271 L352 272 Z M340 269 L343 272 L342 275 L339 274 Z M232 266 L234 265 L236 267 L239 267 L240 270 L243 271 L244 273 L237 274 L236 271 L232 268 Z M397 269 L398 265 L400 265 L401 267 L403 264 L410 266 L407 270 L403 270 L402 273 L399 272 Z M262 260 L268 264 L266 269 L271 270 L270 277 L266 278 L265 284 L263 284 L262 280 L260 279 L261 275 L264 276 L265 275 L263 270 L263 264 L260 263 Z M255 260 L257 262 L255 265 L255 268 L251 269 L250 263 Z M334 258 L336 258 L339 262 L335 267 L333 267 L332 264 L330 263 Z M436 258 L437 257 L445 258 L446 261 L443 262 L439 260 L437 262 Z M184 256 L187 259 L184 262 L184 269 L183 270 L181 268 L178 269 L176 265 Z M172 259 L175 256 L179 257 L178 259 L175 260 Z M388 256 L390 255 L391 257 L389 258 Z M221 253 L228 258 L227 264 L224 266 L224 270 L222 271 L222 273 L227 275 L229 278 L228 283 L230 284 L230 286 L227 287 L227 290 L230 291 L230 296 L235 296 L233 299 L234 304 L231 305 L231 307 L234 306 L236 311 L230 314 L232 318 L229 320 L231 322 L229 328 L225 329 L224 333 L220 335 L220 337 L226 335 L226 341 L217 346 L214 350 L213 347 L215 341 L218 340 L215 333 L216 323 L214 321 L218 315 L215 313 L215 309 L219 308 L218 305 L216 308 L214 307 L215 303 L218 302 L218 299 L214 298 L214 293 L218 290 L218 288 L215 287 L214 280 L215 276 L219 274 L218 268 L215 265 L213 256 L216 253 Z M413 252 L416 253 L417 258 L416 260 L412 259 L413 256 L411 254 Z M338 252 L341 254 L340 258 L336 257 Z M333 250 L335 249 L336 251 L334 252 Z M181 250 L184 247 L186 248 L183 251 Z M412 247 L415 246 L416 248 L413 249 Z M330 247 L332 246 L333 249 L331 250 Z M175 246 L177 245 L178 247 L176 248 Z M406 244 L409 245 L407 250 L405 249 Z M207 244 L208 248 L211 249 L210 254 L206 253 L207 258 L211 259 L210 270 L211 292 L203 295 L199 294 L199 302 L191 307 L191 309 L189 310 L188 297 L192 296 L194 299 L196 297 L193 293 L187 293 L184 287 L185 283 L189 282 L192 279 L189 277 L190 269 L194 268 L196 270 L196 267 L194 264 L191 263 L191 260 L187 254 L188 253 L193 254 L196 249 L204 250 L205 245 Z M402 241 L403 246 L399 248 L398 244 Z M337 241 L339 242 L341 246 L340 250 L336 247 Z M195 237 L197 238 L197 243 L199 245 L196 248 L193 248 L192 246 Z M363 236 L367 235 L368 237 L364 238 Z M407 235 L408 234 L411 235 L412 238 L414 238 L415 240 L413 242 L410 242 Z M333 234 L335 235 L336 240 L335 242 L332 241 Z M302 235 L304 234 L305 237 L303 238 Z M255 235 L257 234 L258 237 L256 238 Z M187 235 L189 234 L190 236 L188 237 Z M261 233 L263 232 L264 234 L262 235 Z M359 232 L361 231 L362 234 L360 235 Z M249 235 L253 231 L254 234 L252 235 L253 239 L256 241 L261 241 L265 239 L266 241 L261 244 L253 243 L250 241 Z M371 230 L374 232 L373 236 L371 235 L370 232 Z M336 231 L338 230 L339 232 L337 233 Z M184 231 L186 230 L187 232 L185 233 Z M256 229 L258 228 L259 230 L257 231 Z M364 228 L366 227 L367 229 L365 230 Z M259 228 L261 227 L262 229 L260 230 Z M391 224 L393 223 L394 225 L392 226 Z M360 224 L363 223 L364 226 L361 227 Z M382 223 L384 222 L385 224 L383 225 Z M379 222 L380 228 L378 231 L376 231 L375 228 L377 227 L377 223 Z M255 219 L258 218 L259 221 L257 222 Z M214 219 L216 218 L217 220 L215 221 Z M376 216 L380 218 L377 223 L375 222 Z M391 212 L393 216 L389 217 L390 220 L386 222 L384 217 L387 215 L388 212 Z M359 212 L361 211 L364 216 L362 217 L359 214 Z M255 212 L257 211 L258 213 L256 214 Z M251 211 L254 214 L255 219 L252 222 L252 226 L248 227 L247 239 L251 242 L249 251 L256 246 L258 255 L253 255 L253 258 L247 262 L244 267 L240 267 L239 263 L237 262 L237 258 L233 258 L232 252 L237 252 L237 249 L240 248 L240 253 L242 254 L243 249 L240 248 L242 241 L234 241 L236 245 L234 247 L230 245 L230 253 L225 254 L222 253 L219 248 L215 247 L215 241 L219 236 L213 234 L212 232 L215 230 L215 222 L222 220 L225 215 L236 214 L238 217 L241 217 L242 214 L246 214 L248 211 Z M374 210 L372 217 L364 216 L365 214 L370 214 L371 209 Z M263 209 L267 214 L273 211 L277 216 L284 214 L294 217 L296 220 L300 218 L302 232 L299 233 L301 248 L296 252 L296 255 L300 256 L300 274 L303 276 L300 281 L303 287 L303 292 L300 293 L303 300 L300 306 L303 329 L299 333 L299 341 L294 342 L289 339 L287 333 L290 332 L290 329 L286 324 L286 313 L284 313 L283 319 L279 321 L281 329 L277 339 L282 350 L276 358 L269 360 L264 359 L261 355 L266 348 L262 340 L269 341 L268 336 L273 335 L274 331 L268 326 L268 323 L283 307 L286 307 L283 298 L288 295 L289 279 L295 275 L288 267 L295 262 L293 258 L287 258 L287 251 L290 248 L285 245 L285 249 L282 250 L283 254 L280 255 L283 261 L278 272 L281 281 L274 286 L271 279 L275 278 L272 267 L275 260 L269 262 L264 255 L259 253 L270 237 L275 235 L277 229 L268 232 L268 226 L259 222 L263 220 L260 213 Z M359 208 L360 204 L364 205 L361 209 Z M218 203 L222 202 L223 204 L220 207 Z M360 200 L362 199 L363 201 L361 202 Z M329 199 L332 200 L337 207 L334 208 L329 216 L324 217 L326 220 L322 228 L321 239 L325 250 L328 251 L327 253 L323 253 L323 255 L327 253 L331 255 L325 259 L327 274 L332 281 L332 285 L330 286 L331 293 L327 302 L318 298 L320 294 L316 294 L311 305 L306 306 L305 297 L308 295 L305 293 L306 285 L309 281 L317 281 L317 279 L314 278 L309 279 L307 282 L305 281 L307 271 L306 266 L309 265 L311 256 L306 255 L306 243 L310 242 L307 232 L312 232 L314 237 L316 237 L315 230 L308 227 L307 223 L309 219 L312 219 L311 214 L315 208 L319 207 L322 203 L327 204 L326 200 Z M188 199 L192 200 L196 204 L199 204 L203 211 L202 213 L203 216 L209 217 L209 223 L206 224 L206 228 L204 229 L204 231 L206 231 L207 229 L209 230 L209 238 L205 241 L202 240 L203 237 L202 233 L196 233 L193 229 L194 227 L199 229 L198 224 L194 225 L191 221 L195 217 L195 215 L192 214 L192 216 L189 217 L187 214 L188 211 L192 209 L192 206 L189 205 L187 210 L184 209 L184 204 L187 203 Z M197 196 L199 195 L200 197 L198 198 Z M398 194 L401 195 L400 198 L401 203 L399 207 L395 207 L394 205 L396 204 Z M337 194 L339 195 L338 204 L336 203 L334 199 L334 196 Z M312 195 L314 194 L315 197 L313 198 Z M304 195 L306 194 L307 197 L305 198 Z M202 195 L204 194 L205 197 L203 198 Z M425 197 L425 195 L428 193 L434 194 L431 197 L427 198 Z M363 194 L365 193 L366 195 L364 196 Z M181 193 L183 195 L183 199 L179 203 L177 201 L177 195 Z M339 191 L341 190 L342 192 L340 193 Z M175 190 L177 189 L178 191 L176 192 Z M345 188 L347 187 L348 189 L346 190 Z M336 186 L337 191 L333 195 L330 195 L329 192 Z M398 186 L400 185 L401 187 L399 188 Z M215 196 L218 192 L221 191 L223 187 L226 186 L232 186 L233 188 L238 189 L239 185 L252 185 L255 186 L256 189 L258 190 L257 192 L254 192 L254 196 L258 197 L258 201 L256 203 L256 207 L254 210 L252 209 L253 206 L251 204 L244 205 L243 203 L234 203 L233 206 L226 206 L224 198 L218 202 Z M302 195 L302 199 L299 201 L296 207 L294 207 L292 204 L290 206 L286 206 L285 203 L277 203 L276 205 L271 205 L267 201 L265 204 L262 205 L259 200 L260 198 L262 198 L263 195 L259 193 L259 190 L262 188 L263 185 L280 185 L281 187 L284 188 L288 184 L295 184 L299 187 L299 191 Z M367 184 L369 183 L370 185 L368 186 Z M298 184 L300 183 L301 185 L299 186 Z M405 180 L408 179 L409 182 L406 183 Z M213 176 L216 177 L215 181 L211 179 Z M304 178 L308 177 L310 172 L319 173 L320 175 L323 176 L321 179 L323 179 L325 182 L323 184 L323 187 L326 187 L328 184 L330 184 L331 187 L325 192 L323 192 L321 190 L316 189 L318 185 L317 183 L313 182 L314 179 L316 178 L315 175 L313 175 L313 177 L310 180 L305 180 Z M187 173 L189 172 L190 174 L188 175 Z M374 171 L376 170 L377 173 L375 174 Z M319 168 L320 167 L324 168 L325 172 L323 174 L320 174 Z M305 168 L307 167 L308 169 L306 170 Z M208 167 L210 166 L213 169 L210 170 Z M297 166 L299 165 L300 167 L298 168 Z M264 164 L267 163 L268 166 L266 167 Z M228 162 L230 161 L231 163 L229 164 Z M409 161 L411 160 L412 162 L410 163 Z M404 158 L406 157 L407 160 L405 161 Z M396 158 L399 157 L402 163 L408 162 L409 165 L415 166 L413 170 L410 170 L411 173 L409 174 L408 178 L404 175 L397 173 L398 167 L395 161 Z M203 157 L205 163 L203 165 L202 170 L208 173 L209 179 L207 180 L203 177 L203 175 L201 175 L200 178 L203 178 L204 182 L201 184 L200 189 L190 192 L189 196 L185 195 L183 191 L181 191 L180 189 L181 188 L188 189 L188 185 L193 183 L192 180 L195 179 L196 175 L192 173 L193 169 L197 169 L199 171 L199 167 L197 166 L197 164 L194 163 L194 159 Z M264 156 L266 155 L267 158 L265 159 Z M261 154 L262 156 L258 159 L258 162 L256 163 L255 156 L258 154 Z M195 154 L201 153 L202 155 L196 156 Z M405 153 L408 152 L409 154 L406 155 Z M254 151 L256 155 L251 159 L254 165 L254 168 L252 169 L249 166 L247 159 L249 154 Z M219 151 L222 150 L223 153 L220 154 Z M256 152 L257 149 L261 150 L258 153 Z M397 143 L399 144 L398 148 L396 147 Z M310 144 L312 143 L313 145 L311 146 Z M291 145 L295 143 L298 146 L292 147 Z M232 144 L234 143 L235 145 L233 146 Z M393 142 L396 141 L397 143 L394 144 Z M281 141 L283 142 L282 146 L280 145 Z M222 144 L223 141 L227 142 L225 145 Z M304 141 L307 140 L308 142 L305 143 Z M293 139 L295 138 L296 140 L294 141 Z M209 138 L213 137 L214 141 L210 143 Z M229 137 L231 136 L232 138 L230 139 Z M218 136 L219 139 L216 142 L215 139 Z M235 125 L237 124 L238 126 L236 127 Z M230 125 L232 124 L233 127 L231 128 Z M251 123 L255 127 L255 129 L251 131 L251 133 L254 136 L257 136 L258 139 L252 140 L251 143 L248 144 L248 147 L250 148 L250 150 L245 157 L241 158 L241 161 L244 161 L246 167 L251 171 L251 174 L246 176 L246 179 L249 180 L250 182 L249 183 L232 183 L231 181 L235 179 L235 177 L233 176 L230 179 L221 180 L220 177 L222 175 L230 174 L228 171 L232 168 L234 163 L237 163 L239 165 L237 160 L239 153 L236 158 L230 158 L229 156 L232 155 L235 150 L239 149 L238 146 L239 144 L243 143 L242 138 L238 136 L238 133 L242 132 L242 128 L245 127 L246 124 Z M365 124 L368 121 L370 122 L367 125 Z M219 122 L221 121 L222 123 L220 124 Z M284 118 L285 122 L281 123 L280 121 Z M275 119 L277 118 L278 121 L276 122 Z M232 119 L234 118 L237 123 L233 124 Z M278 115 L280 114 L281 117 L279 118 Z M300 113 L302 112 L303 115 L301 116 Z M263 110 L267 112 L271 117 L269 123 L274 128 L274 131 L278 132 L278 148 L280 151 L283 151 L284 149 L288 151 L286 153 L288 155 L287 158 L279 159 L283 161 L285 170 L287 171 L284 177 L293 174 L300 177 L299 181 L290 179 L289 182 L283 183 L280 179 L277 183 L272 183 L266 181 L267 179 L271 179 L270 176 L266 176 L266 179 L263 180 L261 183 L254 183 L251 179 L251 176 L256 173 L259 174 L257 176 L257 178 L259 179 L259 174 L268 170 L268 168 L274 163 L274 156 L270 156 L262 151 L262 149 L265 147 L269 148 L268 142 L264 138 L264 136 L267 135 L269 131 L267 131 L264 135 L260 133 L262 127 L265 125 L265 123 L260 122 L260 119 L263 117 L259 115 L259 113 Z M238 110 L239 115 L236 117 L235 113 Z M253 109 L258 114 L257 120 L255 122 L252 122 L250 118 L248 119 L246 118 Z M254 107 L256 106 L257 109 L255 110 Z M240 107 L243 106 L244 108 L241 109 Z M273 105 L275 104 L276 106 L274 107 Z M257 97 L259 96 L260 98 L258 99 Z M264 94 L266 93 L267 95 L265 96 Z M251 93 L253 94 L252 98 L250 97 Z M258 84 L260 85 L259 90 L256 89 Z M257 77 L259 76 L260 78 L258 79 Z M254 66 L256 65 L257 67 L255 68 Z M255 53 L257 52 L258 54 L256 55 Z M128 20 L126 20 L125 26 L130 24 Z M220 16 L218 17 L217 20 L219 21 Z M474 13 L474 15 L477 16 L476 18 L474 18 L474 25 L476 27 L479 25 L476 23 L477 21 L479 21 L482 25 L486 25 L485 21 L490 19 L491 21 L490 25 L488 26 L488 29 L493 31 L496 28 L497 31 L500 31 L500 23 L498 22 L499 19 L498 18 L495 18 L494 20 L490 19 L491 17 L496 15 L496 13 Z M452 13 L454 20 L458 20 L460 22 L463 33 L465 33 L467 36 L470 36 L473 31 L464 29 L465 26 L469 27 L471 25 L469 21 L468 13 Z M415 13 L415 16 L419 17 L419 22 L423 19 L425 21 L424 25 L427 26 L429 22 L434 20 L433 17 L434 15 L436 16 L440 15 L440 13 L420 13 L420 15 L418 16 L417 13 Z M417 25 L404 28 L402 31 L396 30 L394 28 L395 25 L389 22 L390 18 L395 19 L395 17 L397 16 L397 13 L392 13 L386 20 L387 26 L384 27 L385 29 L389 31 L389 35 L385 37 L384 34 L375 34 L374 31 L370 30 L364 31 L365 36 L367 37 L366 45 L369 45 L370 48 L373 45 L375 46 L375 48 L378 46 L379 49 L381 49 L382 42 L385 42 L386 44 L388 44 L388 42 L390 41 L393 43 L393 46 L395 47 L396 52 L397 51 L396 48 L397 38 L393 36 L393 33 L395 31 L402 32 L403 33 L402 36 L404 36 L407 30 L409 32 L419 33 L419 31 L417 30 L418 28 Z M380 36 L383 39 L382 42 L378 41 Z M369 13 L369 16 L371 17 L376 16 L377 19 L378 19 L379 14 L383 15 L383 13 Z M331 17 L337 20 L340 18 L348 20 L350 15 L358 18 L359 15 L366 16 L366 13 L348 13 L346 17 L343 16 L343 13 L332 13 Z M306 17 L308 17 L309 15 L313 15 L314 18 L316 18 L317 15 L319 17 L327 16 L328 13 L307 13 Z M203 13 L203 15 L206 15 L206 13 Z M193 13 L193 15 L195 15 L195 13 Z M168 13 L167 21 L169 22 L169 24 L172 23 L174 25 L173 21 L170 22 L169 20 L173 16 L175 16 L175 13 Z M135 13 L137 20 L143 23 L143 27 L147 27 L150 30 L153 29 L155 35 L158 33 L156 29 L159 27 L159 25 L154 24 L149 17 L144 18 L141 13 Z M119 13 L119 16 L124 15 L130 17 L127 13 Z M75 13 L76 18 L78 18 L79 16 L81 16 L82 18 L87 18 L88 15 L92 15 L93 21 L94 21 L94 17 L97 15 L98 16 L97 21 L99 21 L99 13 Z M38 25 L42 25 L43 27 L41 29 L43 32 L45 32 L46 28 L50 24 L48 20 L57 19 L61 23 L58 26 L60 28 L63 25 L62 21 L63 20 L67 21 L67 18 L69 17 L69 13 L48 13 L48 16 L42 19 L41 22 L38 22 Z M13 13 L13 15 L15 15 L15 13 Z"/></svg>
