<svg xmlns="http://www.w3.org/2000/svg" width="512" height="512" viewBox="0 0 512 512" aria-hidden="true" focusable="false"><path fill="currentColor" fill-rule="evenodd" clip-rule="evenodd" d="M456 374 L455 385 L463 385 L467 382 L467 376 L465 374 Z M335 374 L336 380 L335 383 L339 383 L340 385 L342 385 L343 383 L346 382 L345 381 L346 374 Z M261 374 L257 380 L257 383 L261 385 L265 385 L268 381 L267 379 L265 379 L264 382 L262 383 L261 378 L264 375 Z M148 376 L148 385 L151 384 L157 385 L157 377 L154 376 L153 374 Z M442 373 L443 385 L447 384 L451 385 L451 379 L453 378 L452 373 L449 374 Z M429 373 L428 383 L430 385 L435 385 L436 383 L438 383 L437 380 L438 375 L434 373 Z M418 373 L415 377 L415 385 L418 384 L423 385 L423 380 L425 378 L421 377 L420 373 Z M358 373 L350 375 L349 381 L351 382 L350 384 L351 385 L355 385 L356 381 L360 381 Z M244 373 L243 376 L245 381 L244 385 L254 385 L255 384 L253 382 L254 380 L253 373 Z M173 374 L175 377 L174 380 L175 385 L185 384 L184 380 L185 374 L182 373 Z M165 373 L160 379 L162 380 L162 385 L164 384 L169 385 L169 380 L171 378 L167 376 Z M84 374 L83 383 L88 382 L89 385 L94 383 L94 374 L89 373 Z M86 379 L88 378 L89 380 L87 381 Z M44 375 L45 385 L47 385 L48 383 L53 385 L54 384 L53 377 L55 375 L59 377 L57 380 L58 385 L68 384 L69 381 L71 381 L73 385 L74 379 L77 380 L76 384 L78 385 L79 380 L81 379 L79 377 L81 374 L77 373 L75 374 L72 373 L71 374 L72 378 L69 381 L67 380 L68 374 L65 373 L59 373 L53 375 L52 373 L45 373 Z M447 352 L454 360 L456 360 L457 358 L461 356 L459 354 L455 357 L448 351 Z M464 346 L465 350 L469 348 L469 347 Z M254 342 L252 341 L248 345 L244 346 L242 349 L239 349 L233 343 L231 344 L238 351 L241 351 L243 348 L253 344 Z M102 332 L100 332 L99 335 L102 334 Z M37 332 L36 336 L38 337 L39 333 Z M415 330 L411 333 L416 336 L418 332 Z M467 329 L464 332 L464 334 L468 337 L470 332 Z M375 327 L374 326 L372 327 L371 332 L366 341 L364 340 L365 334 L361 325 L358 322 L356 324 L359 326 L362 333 L361 336 L358 335 L355 329 L351 327 L348 328 L341 327 L341 329 L343 330 L349 329 L353 330 L354 333 L357 335 L357 337 L359 337 L366 346 L365 348 L360 347 L361 349 L360 351 L353 349 L354 351 L353 353 L349 350 L347 353 L345 353 L336 344 L334 344 L333 341 L330 340 L327 336 L323 325 L321 326 L322 333 L320 335 L320 338 L324 343 L324 346 L334 356 L339 356 L340 358 L346 357 L353 358 L354 356 L357 356 L358 354 L362 353 L376 339 L375 334 L373 333 Z M341 354 L344 353 L345 355 L342 356 Z M339 349 L340 352 L336 354 L335 352 Z M330 350 L331 346 L336 347 L333 351 Z M328 342 L331 343 L330 347 L326 346 Z M367 342 L369 341 L370 343 L368 344 Z M371 337 L373 336 L374 339 L372 340 Z M322 336 L324 335 L326 339 L324 340 Z M260 320 L259 320 L260 330 L258 337 L262 330 L262 324 Z M184 319 L192 323 L191 321 Z M245 318 L247 319 L252 317 L257 319 L254 316 Z M469 315 L464 316 L464 317 L467 317 Z M412 315 L412 316 L418 317 L418 316 Z M334 313 L336 315 L347 316 L351 320 L353 320 L355 316 L362 315 L360 314 L348 316 L344 314 Z M310 313 L319 322 L319 320 L312 313 Z M388 312 L386 312 L376 322 L376 324 Z M370 306 L368 306 L365 309 L365 311 Z M326 305 L331 310 L331 308 L328 305 Z M184 303 L182 303 L180 307 L182 307 Z M377 299 L375 298 L373 302 Z M252 297 L245 300 L241 304 L237 315 L228 315 L222 320 L221 331 L225 337 L223 332 L223 323 L224 320 L228 316 L235 316 L241 322 L243 322 L240 318 L240 311 L247 301 L256 299 L264 302 L268 306 L270 311 L270 316 L283 315 L289 322 L289 328 L287 334 L282 339 L280 339 L263 349 L258 349 L260 352 L262 352 L267 348 L280 342 L286 337 L286 335 L288 334 L290 330 L290 321 L282 313 L273 313 L268 303 L263 299 Z M319 296 L319 298 L324 302 L324 300 Z M42 309 L42 311 L53 310 L57 312 L62 319 L61 321 L58 319 L54 320 L59 322 L58 325 L53 325 L53 327 L56 328 L55 330 L47 330 L40 326 L38 320 L42 318 L41 313 L40 317 L36 320 L37 325 L40 326 L42 330 L49 333 L46 336 L44 344 L45 352 L50 351 L53 357 L63 354 L62 352 L55 355 L52 349 L49 350 L46 348 L47 339 L56 332 L58 342 L64 342 L66 337 L69 337 L66 349 L70 347 L76 354 L82 357 L86 357 L89 351 L93 352 L93 357 L98 356 L98 354 L94 352 L95 341 L91 333 L101 327 L103 320 L99 316 L100 310 L94 307 L83 308 L81 300 L75 292 L71 295 L65 292 L64 294 L68 297 L75 295 L78 298 L80 306 L77 315 L70 308 L67 313 L64 313 L63 316 L61 315 L59 303 L62 296 L58 299 L56 309 Z M61 334 L64 333 L65 335 L62 336 Z M73 333 L75 332 L80 338 L82 337 L83 332 L87 334 L93 342 L93 348 L90 350 L87 349 L84 355 L75 351 L71 345 L72 339 L74 340 L74 342 L76 342 L76 339 Z M79 332 L81 331 L82 333 L80 334 Z M68 322 L72 322 L74 324 L74 329 L71 332 L68 332 L65 330 L65 325 Z M73 317 L75 316 L76 319 L74 320 Z M98 312 L97 317 L101 320 L97 328 L91 330 L83 330 L82 328 L85 327 L85 324 L80 325 L79 323 L84 321 L84 319 L81 319 L80 321 L77 322 L75 321 L80 313 L85 310 L92 309 Z M170 289 L169 291 L172 295 L173 302 L167 301 L165 293 L164 301 L161 302 L162 316 L158 309 L158 302 L162 289 L156 300 L146 296 L134 298 L136 301 L139 298 L148 299 L156 306 L155 310 L150 307 L154 315 L151 316 L144 310 L140 303 L144 314 L135 320 L132 330 L136 328 L152 328 L155 335 L154 338 L150 336 L141 336 L138 338 L148 345 L150 342 L153 343 L157 348 L151 348 L160 353 L164 361 L170 353 L178 350 L185 344 L183 342 L184 338 L186 338 L187 341 L194 338 L191 336 L182 336 L175 339 L174 337 L178 328 L195 328 L198 330 L196 320 L195 326 L179 326 L176 323 L177 320 L180 320 L181 316 L193 318 L186 313 L191 302 L196 299 L196 297 L186 296 L176 301 Z M168 348 L173 347 L174 349 L170 351 Z M180 343 L181 345 L179 348 L175 349 L174 347 Z M169 343 L171 342 L172 344 L170 345 Z M172 323 L175 326 L175 331 L172 338 L167 343 L166 342 L166 326 Z M157 323 L161 323 L165 326 L165 342 L167 343 L166 346 L163 345 L161 340 L157 336 L155 329 Z M157 322 L156 324 L152 326 L136 326 L135 325 L137 321 L139 323 L147 320 L152 320 Z M139 320 L142 317 L144 318 L142 321 Z M144 317 L149 316 L150 318 L145 319 Z M164 312 L166 311 L167 314 L165 315 Z M172 305 L173 309 L171 314 L169 315 L168 310 L169 307 Z M191 298 L192 300 L189 302 L185 313 L177 316 L176 315 L177 312 L175 311 L176 304 L179 301 L187 298 Z M445 288 L436 289 L432 306 L427 318 L426 334 L424 340 L419 345 L413 346 L411 349 L416 349 L426 340 L428 335 L429 318 L431 314 L435 315 L438 303 L440 304 L440 344 L433 352 L435 352 L442 345 L441 343 L441 302 L442 301 L444 302 L446 315 L448 315 L449 313 L451 314 L453 321 L454 337 L456 341 L458 342 L459 341 L456 335 L455 321 Z M442 289 L444 290 L445 294 L444 299 L441 298 Z M438 289 L440 290 L439 299 L436 298 Z M35 249 L35 251 L37 252 L35 256 L37 257 L70 256 L70 251 L60 250 L59 247 L50 247 L50 250 L49 251 L44 250 L43 254 L40 252 L41 250 L40 247 L37 247 Z M62 252 L64 251 L65 253 L63 254 Z M455 247 L455 256 L465 257 L466 249 L464 249 L463 246 Z M443 246 L441 249 L443 251 L442 253 L443 258 L452 257 L452 247 Z M433 246 L432 254 L439 257 L436 251 L436 247 Z M417 247 L416 258 L421 256 L427 257 L426 247 L423 246 Z M321 249 L322 251 L321 257 L324 256 L326 257 L343 257 L344 256 L369 257 L372 256 L370 247 L368 246 L362 246 L360 249 L357 246 L352 247 L349 246 L347 249 L342 246 L340 247 L336 246 L334 256 L330 255 L330 250 L332 249 L332 247 L323 246 L323 248 Z M258 247 L259 257 L266 257 L267 253 L269 254 L269 256 L275 257 L280 255 L280 247 L275 246 L270 247 L269 251 L267 250 L267 247 L264 246 Z M231 249 L232 252 L231 258 L242 257 L240 255 L241 252 L245 254 L245 257 L254 257 L255 248 L254 247 L245 246 L242 249 L241 246 L234 246 Z M166 247 L167 257 L174 257 L175 253 L177 254 L177 256 L183 257 L188 256 L188 247 L183 246 L178 247 L177 251 L175 250 L175 247 L172 246 Z M139 257 L141 257 L144 254 L148 257 L156 256 L161 257 L163 255 L163 251 L161 247 L158 246 L153 247 L152 255 L150 256 L147 253 L145 246 L143 246 L143 251 Z M78 247 L77 254 L80 254 L83 257 L96 257 L97 256 L109 257 L108 247 L105 246 L101 247 L100 255 L97 254 L98 252 L97 247 L88 246 L86 256 L82 253 L80 247 Z M469 234 L469 236 L472 238 L472 236 Z M479 228 L481 231 L483 231 L481 228 Z M459 228 L460 230 L467 232 L466 230 Z M257 228 L254 229 L255 235 L258 231 Z M185 226 L179 225 L178 228 L170 227 L168 228 L172 230 L183 231 L183 228 Z M141 224 L145 228 L145 230 L157 230 L160 228 L160 227 L151 228 L149 225 L145 226 Z M336 221 L334 221 L333 217 L331 217 L321 222 L325 224 L326 226 L329 226 L335 223 Z M328 223 L331 220 L333 221 L330 224 Z M365 216 L365 218 L371 222 L370 224 L368 223 L366 224 L373 226 L374 224 L377 223 L377 221 Z M466 207 L464 212 L466 214 L469 213 L471 215 L473 224 L477 226 L469 207 Z M466 210 L468 209 L469 211 L467 212 Z M313 206 L310 211 L310 214 L314 213 L317 216 L320 207 L317 210 L314 209 L315 207 Z M140 205 L135 206 L135 210 L138 213 L137 219 L139 216 L139 212 L141 210 Z M239 189 L234 197 L234 205 L239 215 L245 221 L250 224 L252 224 L253 222 L259 222 L260 224 L262 224 L273 215 L278 205 L278 197 L273 189 L269 187 L263 187 L257 191 L250 187 L243 187 Z M261 218 L264 217 L265 220 L262 221 Z M247 218 L249 217 L251 220 L248 221 Z M269 211 L271 210 L272 212 L270 213 Z M254 211 L257 210 L258 212 L255 213 Z M252 208 L254 207 L255 209 L253 210 Z M272 205 L274 204 L275 206 L273 207 Z M260 204 L262 203 L263 205 L261 206 Z M249 204 L251 203 L252 206 L250 207 Z M253 200 L257 203 L256 207 L254 206 L252 202 Z M241 200 L245 195 L248 195 L251 198 L250 200 L247 199 L246 200 L247 202 L246 206 L247 208 L252 209 L253 214 L255 215 L260 213 L260 211 L257 210 L258 207 L261 209 L265 207 L266 200 L261 199 L264 195 L267 195 L270 198 L271 203 L268 210 L261 217 L255 220 L243 208 Z M236 197 L238 193 L244 189 L249 189 L256 194 L263 189 L268 189 L274 193 L276 197 L276 203 L275 204 L273 203 L272 197 L268 194 L263 194 L259 198 L253 198 L249 194 L244 194 L239 199 L239 204 L241 208 L239 210 L236 204 Z M75 185 L75 187 L79 190 L79 188 Z M63 183 L62 188 L65 190 L68 188 L68 184 Z M164 182 L164 184 L161 185 L159 188 L159 191 L162 196 L155 201 L155 211 L159 210 L160 212 L151 217 L150 220 L155 221 L163 217 L162 214 L163 212 L160 206 L157 204 L157 202 L165 196 L172 203 L172 205 L168 207 L167 218 L170 220 L177 221 L178 217 L169 212 L170 209 L174 211 L174 201 L171 198 L166 196 L166 194 L169 193 L169 186 Z M164 184 L167 187 L166 194 L163 194 L161 190 Z M266 178 L266 180 L270 180 L281 188 L284 194 L282 204 L286 212 L289 201 L285 197 L284 188 L278 182 L278 179 Z M284 202 L286 201 L287 203 L285 204 Z M246 178 L240 178 L234 180 L234 182 L229 187 L227 198 L223 201 L226 207 L226 212 L227 212 L227 207 L230 204 L228 194 L231 187 L235 184 L238 184 L242 180 L246 180 Z M225 202 L228 201 L229 203 L226 204 Z M317 202 L317 204 L320 202 L325 204 L330 201 L342 201 L343 203 L339 211 L341 211 L343 214 L347 208 L348 202 L350 201 L355 214 L361 219 L358 214 L360 209 L356 202 L365 201 L371 204 L375 202 L376 207 L378 205 L378 202 L373 198 L377 192 L377 184 L374 179 L370 177 L364 177 L356 183 L351 192 L348 192 L344 184 L337 178 L329 177 L326 178 L327 182 L322 182 L321 191 L325 198 Z M366 197 L368 196 L369 198 L367 199 Z M328 196 L330 195 L333 198 L331 199 Z M349 193 L352 195 L351 199 L348 199 L346 197 Z M372 186 L372 190 L367 195 L360 197 L355 196 L356 192 L359 190 L359 188 L357 188 L356 186 L360 183 L362 185 L369 183 Z M327 186 L330 183 L333 183 L335 185 L339 183 L342 186 L340 190 L343 192 L344 196 L339 197 L332 195 L327 190 Z M175 175 L175 177 L187 186 L190 193 L191 199 L190 204 L188 206 L188 210 L190 212 L189 214 L190 217 L189 222 L190 222 L192 219 L194 207 L191 204 L193 201 L192 192 L189 186 L187 185 L187 183 L182 178 Z M154 175 L147 178 L141 184 L137 192 L137 202 L138 202 L139 193 L142 187 L150 179 L153 178 Z M431 166 L435 182 L438 185 L446 188 L452 195 L450 197 L444 194 L446 207 L450 215 L446 218 L443 215 L445 213 L443 206 L441 204 L434 202 L433 204 L441 207 L440 212 L443 218 L441 219 L437 215 L437 212 L435 209 L434 209 L435 212 L434 214 L432 213 L431 209 L427 210 L421 197 L420 186 L418 186 L419 197 L423 205 L425 213 L429 212 L430 213 L429 217 L432 217 L433 219 L437 221 L443 222 L451 220 L456 226 L458 226 L455 222 L456 218 L452 214 L455 210 L460 212 L460 210 L456 206 L457 203 L456 202 L452 205 L449 205 L447 201 L448 198 L456 199 L457 196 L451 192 L448 187 L440 184 L436 180 L433 166 Z M433 215 L435 214 L436 216 L434 217 Z M38 165 L38 167 L43 168 L47 174 L46 188 L51 200 L57 207 L63 210 L66 214 L64 220 L54 224 L53 226 L58 226 L59 229 L74 226 L71 223 L71 221 L76 217 L77 214 L83 214 L94 225 L101 228 L105 228 L105 226 L94 212 L94 209 L96 207 L109 204 L109 202 L94 199 L86 195 L95 202 L93 203 L88 200 L87 202 L89 204 L83 205 L71 202 L64 198 L63 200 L68 203 L81 207 L87 207 L93 213 L93 215 L90 217 L84 212 L76 212 L75 214 L73 214 L71 211 L68 212 L66 209 L60 207 L52 198 L55 192 L59 194 L57 190 L57 184 L59 180 L65 179 L73 184 L73 182 L64 174 L64 168 L62 164 L57 160 L49 160 L45 164 Z M65 220 L67 218 L70 219 L69 222 L66 222 Z M57 162 L61 166 L63 176 L59 178 L58 181 L55 182 L54 186 L50 186 L49 185 L49 174 L46 168 L46 165 L48 164 L50 168 L53 168 L54 167 L53 163 Z M257 155 L256 155 L255 166 L252 169 L254 173 L250 176 L251 181 L255 185 L257 185 L262 179 L261 174 L258 173 L260 171 L260 168 L258 166 Z M260 176 L261 178 L258 180 L257 178 Z M254 168 L257 167 L259 170 L255 171 Z M164 153 L163 159 L160 162 L161 167 L159 170 L160 175 L165 177 L169 174 L170 170 L168 167 L169 163 Z M161 170 L165 168 L167 170 L167 173 L162 174 Z M164 161 L167 163 L165 166 L162 164 Z M395 104 L394 107 L389 109 L388 111 L395 118 L397 118 L398 115 L403 112 L403 110 L399 108 L397 104 Z M119 103 L118 107 L114 109 L113 112 L116 112 L119 119 L121 119 L122 115 L127 112 L127 110 L122 107 L121 103 Z M133 100 L133 122 L141 129 L374 129 L382 122 L382 100 L375 93 L140 93 Z M197 117 L199 116 L200 118 L198 119 Z M346 112 L348 111 L349 113 L347 114 Z M347 107 L349 106 L351 110 L348 111 Z M191 107 L193 106 L194 109 L192 110 Z M326 106 L328 105 L329 108 L327 109 Z M277 106 L279 105 L280 108 L278 109 Z M156 104 L159 103 L160 105 L157 106 Z M17 83 L16 428 L21 434 L489 435 L496 430 L497 85 L492 79 L24 78 Z M18 85 L24 80 L491 81 L495 85 L495 428 L489 433 L22 432 L18 428 Z"/></svg>
