<svg xmlns="http://www.w3.org/2000/svg" width="512" height="512" viewBox="0 0 512 512" aria-hidden="true" focusable="false"><path fill="currentColor" fill-rule="evenodd" clip-rule="evenodd" d="M193 341 L204 336 L211 339 L199 354 L211 351 L211 356 L215 355 L240 378 L254 382 L275 382 L296 372 L307 360 L321 372 L326 369 L326 334 L335 321 L327 323 L306 319 L298 325 L294 320 L287 320 L280 327 L274 327 L264 317 L260 317 L243 332 L243 337 L247 339 L242 350 L236 353 L227 343 L236 337 L230 336 L228 331 L236 312 L232 312 L223 325 L219 323 L219 318 L208 320 L200 329 L196 329 Z M251 370 L252 369 L257 370 L258 374 L253 375 L251 373 Z M279 369 L278 374 L268 376 L265 375 L265 372 L267 370 L276 368 Z M244 367 L247 368 L245 372 L243 371 Z M232 361 L233 360 L236 361 L239 365 L235 367 L232 364 Z M242 353 L244 352 L248 356 L244 359 L242 357 Z M223 353 L226 352 L229 355 L229 357 L227 358 L223 355 Z M317 348 L319 349 L318 358 L313 354 Z M298 348 L300 358 L298 360 L295 358 L293 360 L294 364 L291 367 L283 371 L282 365 L286 363 L292 357 L295 349 Z M252 344 L253 346 L250 348 L249 346 Z M215 346 L220 344 L222 347 L217 349 Z M290 343 L288 352 L278 361 L271 363 L254 363 L250 361 L251 354 L256 356 L256 352 L261 347 L265 349 L272 349 L277 344 L281 337 L284 339 L283 343 L287 344 L288 342 Z M270 342 L271 337 L276 339 L272 343 Z M254 331 L257 330 L258 333 L256 334 Z M274 329 L276 328 L277 330 L275 331 Z M290 326 L294 330 L292 337 L289 336 L285 332 Z M260 326 L261 328 L258 330 L257 328 Z M311 325 L312 329 L315 332 L316 339 L311 344 L311 346 L307 348 L302 343 L302 339 L297 341 L295 336 L296 335 L301 336 L304 329 L307 326 Z M260 325 L262 324 L263 326 L261 327 Z M180 312 L180 316 L177 317 L177 320 L181 321 L180 330 L169 342 L168 347 L165 350 L163 350 L163 352 L166 355 L166 359 L170 367 L179 372 L184 372 L185 370 L188 370 L193 367 L195 362 L195 357 L189 351 L180 351 L179 356 L174 356 L172 354 L173 351 L177 350 L175 346 L180 341 L182 342 L186 341 L184 336 L187 331 L187 319 L186 316 L182 312 Z M183 362 L184 359 L188 360 L186 363 Z M266 17 L263 72 L257 76 L255 89 L259 97 L251 105 L255 112 L246 116 L250 123 L242 135 L244 147 L262 162 L253 170 L255 182 L250 193 L239 200 L239 212 L225 215 L220 222 L224 240 L232 239 L236 244 L218 255 L191 234 L164 234 L141 245 L116 279 L115 308 L133 339 L139 341 L141 358 L110 400 L114 424 L128 437 L151 444 L178 442 L201 423 L212 424 L206 444 L186 459 L167 459 L146 452 L126 454 L116 475 L122 488 L136 496 L163 491 L164 484 L173 490 L186 489 L202 474 L221 473 L228 458 L216 468 L192 468 L194 475 L183 483 L174 483 L162 471 L152 487 L135 489 L125 478 L126 464 L134 459 L153 461 L169 470 L171 466 L190 465 L203 458 L220 438 L258 455 L280 442 L302 453 L321 432 L303 416 L321 405 L326 391 L309 406 L288 398 L268 408 L251 403 L232 418 L235 426 L221 437 L217 436 L217 415 L207 405 L196 405 L192 393 L185 392 L176 399 L179 407 L161 398 L159 306 L166 292 L185 280 L209 287 L219 313 L225 312 L226 295 L238 287 L251 289 L263 306 L284 287 L295 289 L308 308 L331 288 L337 292 L344 289 L348 296 L354 296 L360 309 L360 366 L355 367 L343 392 L346 416 L355 419 L344 442 L361 449 L356 485 L367 470 L367 429 L358 426 L366 420 L367 363 L375 337 L367 338 L367 308 L362 294 L344 281 L324 282 L311 293 L290 280 L275 282 L265 291 L252 281 L237 280 L220 290 L208 277 L183 273 L171 277 L158 290 L152 304 L151 335 L145 336 L122 305 L125 279 L148 250 L168 242 L177 244 L178 240 L199 246 L203 254 L209 255 L218 274 L222 262 L228 256 L233 258 L235 252 L238 256 L243 252 L250 258 L254 256 L263 270 L273 257 L295 253 L313 270 L329 255 L355 251 L357 256 L374 258 L387 270 L397 292 L397 415 L382 436 L380 451 L397 472 L403 469 L403 285 L388 259 L367 246 L333 245 L311 258 L296 245 L310 233 L311 222 L295 212 L291 196 L281 193 L276 182 L277 163 L269 162 L270 157 L287 147 L287 134 L277 127 L262 129 L256 144 L267 146 L267 151 L249 142 L249 134 L260 122 L271 123 L282 117 L274 108 L279 100 L274 94 L276 83 L269 78 L274 70 L269 65 Z M353 435 L356 434 L357 436 L354 437 Z M391 433 L397 435 L397 458 L392 460 L389 458 L386 450 L386 444 L388 437 Z M240 430 L242 431 L241 438 L236 436 L236 434 Z M272 431 L274 434 L260 448 L254 445 L254 439 L257 436 L257 434 L261 432 L263 428 Z M394 428 L396 427 L397 429 L395 430 Z M255 425 L258 424 L259 427 L257 428 Z M239 422 L240 419 L246 420 L245 422 L242 423 Z M263 419 L265 415 L272 416 L273 419 L279 419 L280 422 L284 423 L285 422 L284 418 L288 417 L291 418 L293 421 L303 425 L304 427 L302 428 L302 430 L309 429 L312 433 L310 435 L306 434 L307 438 L304 441 L300 440 L301 444 L298 445 L293 441 L289 440 L284 435 L285 431 L283 429 L278 428 L276 425 L266 422 Z M203 415 L206 413 L210 418 L204 419 Z M280 411 L281 413 L277 417 L275 417 L274 415 Z M255 416 L256 411 L261 413 L258 417 Z M294 410 L295 409 L298 410 L299 414 L296 415 Z M281 409 L284 408 L285 410 L282 411 Z M192 411 L194 407 L199 408 L197 412 Z M183 400 L185 399 L186 401 L189 402 L189 404 L185 406 L183 403 Z M359 384 L360 385 L360 406 L354 407 L352 409 L349 404 L349 398 L352 397 L350 390 L354 384 Z M357 379 L359 378 L360 380 L358 381 Z M145 369 L151 370 L151 392 L153 399 L162 409 L173 413 L193 413 L196 416 L194 422 L182 433 L168 437 L146 436 L129 429 L121 421 L116 408 L120 395 Z M150 360 L151 365 L147 366 L146 364 Z M147 343 L150 342 L151 345 L149 346 Z M283 241 L289 240 L290 244 L284 245 Z M245 241 L246 240 L276 240 L277 246 L272 250 L264 251 L264 253 L262 254 L257 249 L253 248 L252 246 L246 245 Z M226 225 L229 220 L232 223 L234 219 L295 219 L296 222 L298 223 L302 220 L304 222 L305 229 L301 233 L230 233 L226 229 Z M286 203 L286 210 L280 213 L251 213 L247 212 L244 207 L245 203 L248 200 L276 199 L277 202 L280 202 L281 200 L283 200 Z M255 191 L257 190 L258 192 L256 193 Z M262 192 L263 188 L272 189 L271 192 L268 194 L264 194 Z M259 188 L261 187 L262 189 L260 190 Z M261 169 L267 168 L273 173 L273 176 L269 181 L265 182 L259 178 L258 173 Z M265 157 L267 158 L266 162 L264 161 Z M277 142 L280 145 L275 149 L274 145 Z M275 135 L278 134 L281 137 L281 139 L277 140 Z M267 134 L268 136 L265 139 L264 136 Z M257 110 L258 109 L262 110 L264 113 L263 114 L258 113 Z M268 104 L270 103 L271 106 L269 107 Z M268 90 L270 89 L271 91 L269 92 Z"/></svg>
