<svg xmlns="http://www.w3.org/2000/svg" width="512" height="512" viewBox="0 0 512 512" aria-hidden="true" focusable="false"><path fill="currentColor" fill-rule="evenodd" clip-rule="evenodd" d="M265 483 L265 487 L263 489 L265 491 L272 492 L274 490 L274 484 L272 482 Z M262 483 L261 477 L259 475 L255 474 L252 476 L251 474 L248 474 L247 472 L243 473 L242 477 L239 479 L237 479 L234 476 L225 475 L225 479 L223 480 L224 483 L234 484 L235 480 L237 479 L238 485 L240 487 L246 488 L250 487 L255 490 L258 490 L258 487 L261 486 Z M248 477 L252 476 L255 482 L252 484 Z M211 472 L210 478 L212 479 L215 478 L217 480 L220 480 L221 475 L220 472 L217 471 Z M201 461 L200 464 L198 464 L194 468 L194 470 L196 472 L202 471 L203 475 L207 475 L206 471 L207 463 L205 460 Z M371 421 L369 421 L368 443 L366 444 L366 448 L364 450 L364 453 L368 455 L366 462 L368 464 L369 472 L367 476 L358 477 L356 475 L356 465 L358 463 L358 459 L356 456 L360 453 L358 450 L356 421 L354 421 L354 435 L352 439 L352 447 L350 449 L350 452 L354 454 L354 457 L352 459 L354 475 L351 478 L351 483 L365 479 L368 484 L366 487 L364 487 L363 489 L361 489 L360 487 L343 487 L334 489 L328 487 L324 491 L323 488 L318 487 L319 484 L316 481 L312 481 L312 489 L307 487 L298 488 L292 486 L289 490 L288 486 L282 485 L279 487 L277 492 L283 492 L285 494 L298 494 L298 491 L300 490 L301 495 L309 495 L309 491 L311 490 L312 494 L315 496 L323 496 L325 493 L328 496 L356 495 L358 492 L365 495 L371 494 L373 492 L373 488 L370 486 L373 479 L373 475 L371 474 L371 463 L374 459 L375 452 L372 441 Z M331 491 L333 490 L334 492 L332 493 Z M269 346 L269 348 L275 351 L277 354 L283 353 L285 350 L284 348 L281 349 L280 344 L278 343 L274 343 L273 345 Z M318 354 L318 348 L316 346 L318 342 L313 343 L312 341 L309 342 L310 346 L308 348 L304 344 L300 345 L298 343 L294 343 L291 346 L291 348 L294 348 L295 350 L299 351 L300 356 L302 358 L306 357 L307 359 L312 359 L313 355 L316 356 Z M253 339 L253 343 L257 344 L260 348 L263 348 L267 345 L263 340 L260 340 L258 338 Z M137 336 L135 338 L135 354 L134 355 L135 360 L134 367 L136 368 L135 371 L137 375 L136 377 L137 384 L135 388 L137 390 L136 396 L139 398 L137 400 L138 407 L141 407 L142 409 L137 414 L134 414 L135 423 L139 422 L143 423 L149 419 L151 414 L142 408 L145 405 L146 397 L142 393 L144 381 L143 366 L141 362 L142 355 L138 355 L137 352 L142 349 L141 344 L143 342 L143 338 L141 336 L140 337 Z M138 418 L140 417 L141 419 L139 420 Z M138 368 L140 367 L141 369 L139 370 Z M138 317 L137 318 L138 323 L136 325 L136 333 L144 334 L142 327 L145 324 L150 322 L151 319 L147 317 L147 319 L145 320 L143 318 Z M343 283 L341 283 L341 296 L339 304 L340 307 L338 308 L338 313 L336 317 L337 321 L335 323 L335 325 L337 326 L337 331 L334 332 L328 339 L329 349 L336 355 L337 364 L340 367 L341 372 L342 366 L344 365 L344 361 L352 355 L356 344 L356 339 L353 329 L351 328 L351 326 L345 323 L346 318 L344 316 L345 302 L343 295 Z M342 356 L344 351 L348 353 L345 357 Z M334 350 L336 349 L337 351 L335 352 Z M344 345 L346 344 L347 346 L345 347 Z M346 343 L348 342 L349 344 L347 345 Z M335 340 L337 339 L338 341 L336 342 Z M348 329 L352 333 L353 336 L352 338 L346 332 Z M155 278 L152 278 L150 283 L147 282 L142 287 L142 289 L145 290 L145 293 L143 294 L143 296 L147 300 L146 301 L142 300 L140 302 L138 302 L137 300 L134 301 L134 309 L136 308 L137 304 L140 304 L142 307 L141 309 L138 310 L139 314 L143 315 L146 314 L146 311 L149 305 L147 300 L154 296 L154 291 L156 289 L156 286 L158 285 L158 280 Z M146 294 L148 293 L149 295 L147 296 Z M150 283 L154 282 L155 284 L151 285 Z M317 252 L311 252 L309 254 L309 256 L312 255 L314 256 L313 261 L310 264 L307 264 L305 268 L305 271 L308 271 L311 274 L310 277 L312 279 L315 277 L315 274 L318 271 L317 268 L319 267 L319 262 L322 259 L322 255 Z M165 146 L165 149 L169 155 L172 155 L173 153 L177 154 L177 157 L174 159 L175 162 L183 170 L186 171 L186 174 L189 177 L190 176 L192 177 L194 180 L193 182 L194 190 L197 192 L197 195 L199 196 L199 198 L203 198 L205 200 L206 205 L205 212 L202 218 L200 219 L200 221 L198 222 L198 227 L202 229 L202 232 L204 232 L207 228 L206 223 L210 221 L210 218 L212 216 L213 201 L211 199 L211 190 L209 189 L207 185 L203 186 L200 185 L201 183 L204 182 L204 179 L198 173 L194 172 L193 169 L189 168 L189 165 L185 161 L182 160 L182 157 L179 154 L176 153 L176 149 L172 145 Z M205 216 L207 215 L208 217 L206 218 Z M200 193 L202 191 L206 192 L205 195 L201 195 Z M196 178 L198 177 L199 179 L197 180 Z M186 169 L188 168 L189 171 L187 172 Z M248 108 L246 110 L246 113 L251 117 L250 123 L253 124 L253 121 L255 120 L258 123 L259 127 L264 129 L262 131 L264 135 L266 135 L268 132 L271 133 L271 136 L269 138 L270 142 L273 144 L274 142 L272 140 L277 139 L278 142 L284 145 L285 157 L290 158 L290 155 L292 154 L293 158 L295 160 L298 160 L296 163 L300 166 L300 172 L304 177 L304 179 L301 180 L301 184 L308 190 L310 194 L311 204 L315 210 L313 214 L316 216 L316 223 L318 224 L317 231 L314 234 L316 236 L315 249 L323 250 L323 247 L321 245 L323 241 L321 238 L324 232 L327 236 L329 236 L328 227 L321 228 L318 224 L319 222 L322 222 L323 218 L321 211 L317 210 L316 208 L321 205 L325 205 L325 202 L323 198 L318 198 L315 194 L314 185 L306 183 L307 181 L312 181 L308 169 L311 168 L314 171 L316 170 L311 163 L308 163 L305 166 L301 167 L300 165 L305 161 L305 159 L299 153 L297 155 L294 154 L294 152 L297 151 L296 146 L292 145 L288 139 L284 138 L285 133 L279 133 L277 130 L273 130 L272 126 L260 117 L260 114 L254 114 L253 111 Z M156 39 L147 69 L147 86 L145 88 L147 90 L145 93 L147 95 L147 100 L145 102 L146 104 L145 107 L147 109 L147 113 L149 114 L149 117 L154 119 L153 121 L151 121 L151 123 L157 126 L156 128 L154 128 L154 131 L157 132 L157 137 L160 142 L164 144 L166 141 L169 141 L169 139 L165 135 L165 133 L160 130 L159 120 L156 118 L157 115 L156 110 L154 108 L152 110 L150 109 L150 107 L154 104 L150 80 L150 72 L152 59 L158 43 L158 39 Z M178 22 L166 69 L170 108 L186 139 L232 192 L243 220 L235 238 L208 256 L207 242 L202 245 L189 241 L190 232 L178 236 L177 230 L166 233 L155 246 L157 256 L173 264 L176 283 L183 291 L174 300 L162 329 L161 345 L172 386 L162 400 L157 431 L145 437 L157 445 L152 451 L161 452 L164 459 L178 460 L187 450 L190 457 L195 449 L187 428 L190 419 L212 438 L232 440 L287 470 L301 471 L306 466 L308 446 L301 453 L281 423 L288 418 L293 423 L296 417 L303 422 L307 415 L312 417 L318 412 L319 427 L326 410 L340 408 L339 421 L353 392 L339 383 L313 394 L320 376 L307 364 L303 367 L287 362 L284 368 L280 362 L271 368 L241 360 L239 337 L245 318 L257 329 L276 327 L289 313 L301 323 L310 324 L319 314 L317 298 L311 287 L305 289 L299 284 L297 290 L292 280 L276 292 L274 285 L293 258 L293 204 L278 175 L274 176 L269 164 L265 166 L259 160 L257 151 L253 154 L239 137 L234 140 L197 109 L182 75 L184 45 Z M291 457 L293 456 L294 458 L292 459 Z M177 452 L178 454 L174 458 L173 455 Z M267 452 L269 451 L271 454 L269 455 Z M162 446 L163 443 L166 444 L164 447 Z M244 443 L246 442 L247 444 L245 445 Z M253 441 L256 442 L255 448 L253 447 L252 443 Z M180 441 L182 442 L184 446 L183 448 L179 447 Z M248 439 L250 440 L249 444 L247 443 Z M237 439 L239 438 L240 440 L238 441 Z M188 438 L191 440 L190 444 L188 443 L187 440 Z M165 437 L167 436 L168 438 L166 439 Z M157 434 L160 437 L158 440 L156 439 Z M240 434 L242 433 L243 436 L241 437 Z M234 434 L236 433 L237 435 L235 436 Z M250 432 L252 432 L255 437 L253 440 L250 439 L249 434 Z M177 435 L178 432 L181 433 L179 436 Z M169 433 L172 432 L173 435 L171 436 Z M244 430 L249 429 L250 432 L248 433 L245 432 Z M173 430 L176 429 L177 431 L174 432 Z M233 428 L235 429 L234 432 L231 431 Z M227 429 L229 428 L230 430 L228 431 Z M160 429 L163 428 L164 433 L166 433 L167 435 L162 436 Z M249 428 L251 427 L252 429 L250 430 Z M240 427 L242 426 L243 428 L241 429 Z M178 426 L180 425 L181 428 L179 429 Z M216 424 L220 425 L221 429 L224 430 L222 437 L216 436 L212 433 L215 430 L214 426 Z M197 422 L202 421 L203 422 L202 426 L200 427 L197 424 Z M161 424 L162 422 L165 421 L169 422 L165 426 Z M239 421 L241 420 L242 422 L240 423 Z M259 419 L262 422 L265 419 L267 420 L267 422 L270 421 L272 422 L272 425 L275 426 L276 433 L278 433 L281 436 L286 446 L291 452 L289 455 L283 456 L281 454 L281 448 L278 449 L277 446 L273 447 L272 446 L273 441 L268 442 L267 438 L262 437 L263 430 L261 430 L258 425 Z M225 420 L227 419 L228 421 L226 422 Z M250 418 L247 421 L242 420 L243 418 L248 417 Z M218 417 L219 421 L214 422 L212 424 L211 419 Z M236 415 L237 419 L235 423 L232 424 L231 417 L233 415 Z M175 414 L176 416 L170 420 L169 417 Z M266 412 L269 411 L270 414 L267 415 Z M198 412 L202 411 L205 413 L204 416 L199 415 Z M171 410 L176 409 L177 411 L172 412 Z M162 412 L163 409 L166 410 L164 413 Z M280 409 L287 408 L289 411 L281 412 Z M234 409 L237 408 L238 410 L235 411 Z M217 408 L219 407 L220 409 L218 410 Z M249 411 L250 408 L254 406 L260 409 L261 413 L251 415 Z M248 405 L250 406 L249 409 L246 408 Z M264 404 L269 403 L271 406 L265 407 Z M201 404 L204 403 L205 405 L202 406 Z M170 403 L171 405 L168 407 L167 405 Z M284 405 L287 402 L290 403 L287 406 Z M281 401 L282 404 L278 407 L277 404 Z M271 402 L273 401 L274 403 L272 404 Z M188 402 L190 401 L191 403 L189 404 Z M301 401 L303 400 L304 402 L302 403 Z M229 399 L231 400 L230 409 L228 408 Z M186 400 L185 403 L181 404 L176 403 L177 401 L181 401 L183 399 Z M166 400 L168 399 L169 402 L167 403 Z M252 398 L254 397 L255 399 L253 400 Z M319 397 L321 396 L323 400 L320 401 Z M172 396 L174 397 L173 400 L170 399 Z M248 395 L250 399 L246 401 L245 399 L246 396 Z M279 395 L281 394 L282 396 L280 397 Z M190 394 L189 396 L183 398 L179 397 L180 395 L187 393 Z M265 393 L266 392 L270 393 L273 396 L273 398 L271 399 Z M230 393 L232 392 L233 395 L231 396 Z M176 393 L178 392 L179 395 L177 396 Z M191 392 L194 391 L195 393 L192 394 Z M341 390 L343 389 L346 390 L347 392 L342 393 Z M337 389 L338 391 L336 393 L336 397 L334 399 L329 399 L328 398 L329 393 Z M286 389 L288 388 L289 391 L287 392 Z M253 389 L258 388 L259 391 L255 392 Z M292 388 L294 387 L295 389 L293 390 Z M196 387 L198 388 L197 392 L195 391 Z M300 386 L301 388 L300 391 L298 392 L297 389 Z M281 387 L284 386 L285 389 L283 390 Z M178 386 L180 385 L183 389 L180 390 Z M313 386 L305 393 L303 392 L307 385 L310 384 Z M223 383 L225 384 L224 387 L221 386 Z M185 383 L187 382 L188 384 L186 385 Z M228 382 L230 381 L231 383 L229 384 Z M300 381 L302 380 L303 382 L301 383 Z M293 381 L295 380 L296 383 L294 384 Z M277 381 L280 377 L285 379 L284 381 L281 381 L280 383 Z M305 377 L307 376 L308 378 L306 379 Z M247 377 L249 376 L250 378 L248 379 Z M312 374 L314 373 L315 375 L313 376 Z M297 376 L298 373 L301 374 L299 377 Z M216 378 L216 375 L218 373 L225 374 L225 376 L219 379 Z M197 374 L200 373 L201 377 L199 378 Z M290 372 L292 371 L293 373 L291 374 Z M275 373 L276 369 L280 370 L277 374 Z M209 369 L211 368 L212 370 L210 371 Z M245 367 L247 366 L248 368 L246 369 Z M187 367 L189 366 L190 368 L188 369 Z M234 363 L237 366 L237 370 L235 372 L233 371 L231 366 Z M190 355 L192 354 L193 356 L191 357 Z M205 354 L208 353 L209 355 L206 356 Z M194 355 L195 352 L204 353 L203 355 L196 356 Z M233 350 L234 355 L230 358 L229 351 Z M192 350 L194 349 L195 351 L193 352 Z M201 342 L203 343 L202 347 L200 346 Z M221 341 L222 346 L219 347 L220 359 L218 360 L216 354 L216 346 Z M183 339 L185 338 L186 341 L184 342 Z M193 337 L195 338 L194 342 L192 341 Z M203 334 L205 335 L204 339 L202 338 Z M177 334 L184 337 L183 339 L181 339 L181 342 L177 344 L184 346 L187 356 L185 358 L182 350 L180 348 L178 349 L178 351 L181 352 L181 357 L183 360 L183 364 L181 368 L185 368 L186 370 L192 373 L189 376 L188 374 L183 372 L182 375 L184 376 L184 379 L179 382 L175 382 L172 378 L173 376 L176 375 L175 372 L176 367 L173 367 L172 363 L167 359 L166 345 L170 343 L170 340 L167 341 L165 340 L166 337 L170 336 L173 339 L175 339 Z M220 332 L222 338 L216 342 L214 339 L215 334 L217 332 Z M230 331 L234 332 L234 336 L232 340 L228 339 Z M204 332 L207 331 L208 333 L205 334 Z M184 329 L187 328 L188 331 L186 332 Z M263 324 L265 323 L266 326 L264 327 Z M216 328 L216 322 L222 321 L223 325 L218 329 Z M184 321 L186 320 L187 322 L185 323 Z M256 319 L258 318 L259 321 L257 322 Z M195 319 L197 318 L198 321 L196 322 Z M301 318 L309 317 L310 319 L302 320 Z M206 318 L209 317 L210 319 L207 320 Z M270 317 L272 316 L273 318 L271 319 Z M299 316 L301 315 L302 317 L300 318 Z M237 315 L238 316 L237 321 L231 325 L230 323 L233 319 L233 316 Z M205 315 L207 314 L208 316 L206 317 Z M196 315 L200 314 L201 316 L197 317 Z M194 313 L196 312 L197 314 L195 315 Z M278 313 L282 311 L284 312 L283 315 L279 315 Z M265 311 L267 312 L266 316 L264 315 Z M219 312 L223 311 L224 315 L220 317 Z M235 311 L237 310 L238 312 L236 313 Z M307 309 L308 311 L304 313 L303 311 Z M209 310 L211 309 L212 311 L210 312 Z M308 309 L310 308 L311 310 L309 311 Z M280 308 L282 307 L283 309 L281 310 Z M257 307 L259 306 L260 308 L258 309 Z M199 306 L201 305 L202 308 L200 309 Z M290 304 L292 308 L286 310 L285 308 Z M202 304 L204 303 L205 306 L203 307 Z M197 304 L199 303 L200 305 L198 306 Z M262 303 L264 302 L265 304 L263 305 Z M245 302 L246 304 L243 309 L238 310 L237 308 L240 303 Z M237 302 L238 304 L235 306 L234 304 Z M208 303 L213 301 L216 307 L215 308 L209 307 Z M307 301 L303 306 L299 307 L297 306 L298 303 L303 302 L305 300 Z M228 300 L231 303 L231 306 L224 308 L223 306 Z M259 299 L261 298 L262 301 L260 302 Z M297 296 L299 297 L298 300 L295 299 Z M200 295 L203 297 L202 302 L200 301 L199 297 Z M298 295 L300 294 L301 296 L299 297 Z M241 294 L244 293 L245 295 L242 296 Z M255 293 L251 298 L248 299 L246 298 L250 292 Z M192 293 L194 295 L194 298 L192 299 L192 302 L186 308 L186 314 L184 315 L184 318 L182 319 L182 322 L180 324 L179 332 L177 333 L173 331 L171 334 L167 334 L166 333 L167 323 L171 320 L174 320 L174 313 L172 312 L174 306 L183 300 L183 295 L186 292 Z M223 290 L225 289 L226 292 L224 293 Z M239 288 L241 293 L238 295 L234 295 L233 293 L235 290 Z M211 288 L214 290 L216 294 L215 296 L212 295 L212 292 L210 291 Z M199 291 L200 288 L203 289 L201 292 Z M285 288 L287 287 L288 289 L286 290 Z M190 286 L192 285 L193 287 L191 288 Z M213 282 L215 282 L219 286 L218 291 L212 285 Z M195 283 L197 282 L198 284 L196 285 Z M264 280 L265 283 L262 286 L259 286 L258 285 L259 282 L261 280 Z M189 279 L191 278 L192 281 L190 282 Z M248 277 L250 281 L247 285 L244 285 L243 282 Z M229 276 L231 277 L232 281 L231 284 L228 282 Z M217 277 L219 276 L220 278 L218 279 Z M208 276 L210 275 L211 277 L209 278 Z M223 275 L226 274 L228 277 L224 278 Z M191 275 L193 274 L194 276 L192 277 Z M220 273 L223 272 L224 274 L221 275 Z M212 272 L215 271 L216 273 L213 274 Z M206 272 L208 271 L209 274 L207 275 Z M257 270 L258 272 L254 274 L253 272 Z M229 271 L231 270 L234 271 L235 273 L231 274 Z M189 269 L190 271 L187 273 L186 271 Z M208 269 L210 268 L211 270 L209 271 Z M264 268 L266 267 L267 269 L265 270 Z M199 267 L201 266 L202 268 L200 269 Z M195 267 L197 266 L198 268 L196 269 Z M205 266 L207 265 L208 267 L206 268 Z M191 266 L194 265 L195 267 L192 268 Z M278 263 L279 264 L278 268 L272 274 L267 276 L266 274 L271 269 L271 267 L274 264 Z M247 264 L249 263 L250 265 L248 266 Z M239 264 L241 263 L242 266 L240 267 Z M210 263 L212 262 L213 264 L211 265 Z M224 261 L226 260 L227 262 L225 263 Z M179 261 L181 260 L185 264 L184 265 L180 264 Z M190 256 L192 255 L193 257 L191 258 Z M182 256 L185 255 L186 257 L183 258 Z M268 253 L269 258 L264 261 L263 260 L264 256 Z M224 254 L226 253 L228 257 L226 258 Z M159 254 L162 252 L165 255 L171 255 L172 258 L171 259 L163 258 Z M246 251 L249 253 L250 256 L249 259 L246 258 L245 253 Z M285 247 L286 248 L285 257 L283 259 L278 259 L277 258 L279 252 L282 253 L283 252 L282 249 Z M175 247 L177 246 L180 250 L177 252 Z M238 246 L237 248 L231 249 L230 253 L226 252 L226 249 L230 245 L234 244 Z M165 245 L167 244 L168 247 L166 248 Z M246 244 L248 243 L249 245 L247 246 Z M260 243 L263 242 L264 244 L261 245 Z M276 242 L278 241 L279 243 L277 244 Z M172 242 L174 241 L175 243 L173 244 Z M181 238 L183 239 L184 244 L183 246 L180 243 Z M271 237 L273 238 L274 241 L272 246 L269 245 Z M287 232 L288 239 L285 241 L284 244 L282 244 L281 238 L283 234 Z M270 220 L274 224 L273 227 L270 226 L269 223 Z M286 215 L288 222 L284 224 L284 228 L282 229 L281 221 L284 220 L284 216 Z M251 205 L252 207 L250 208 L250 210 L252 212 L251 218 L253 226 L250 227 L250 229 L248 230 L248 233 L244 239 L245 242 L239 244 L238 238 L240 236 L243 236 L242 233 L244 227 L247 228 L247 220 L245 219 L244 208 L247 207 L248 205 Z M245 203 L248 202 L249 204 L246 205 Z M280 199 L283 201 L285 205 L284 207 L282 206 L280 207 L283 211 L282 214 L279 213 L277 208 L278 202 Z M243 196 L246 199 L245 203 L242 200 Z M259 193 L263 196 L265 200 L264 203 L261 201 L258 195 Z M234 190 L238 189 L239 192 L236 194 Z M272 187 L277 191 L278 193 L277 196 L273 197 L271 195 Z M249 183 L251 182 L252 184 L250 185 Z M231 182 L235 184 L233 188 L229 185 Z M245 178 L247 177 L248 179 L246 180 Z M264 176 L271 183 L268 187 L263 183 Z M233 175 L235 176 L234 179 L231 178 Z M228 173 L231 172 L232 175 L229 176 Z M256 170 L259 170 L261 172 L259 177 L254 173 Z M242 170 L246 174 L245 177 L241 173 Z M218 170 L222 169 L225 172 L225 174 L228 175 L228 177 L224 178 Z M248 164 L250 163 L251 165 L249 166 Z M213 163 L217 162 L218 164 L214 165 Z M231 162 L233 161 L234 163 L232 164 Z M215 157 L216 158 L215 161 L211 162 L210 159 Z M245 156 L249 159 L247 163 L244 161 Z M236 152 L239 151 L240 154 L238 155 Z M222 141 L224 140 L225 142 L223 143 Z M192 138 L193 137 L197 138 L198 141 L201 143 L201 146 L203 146 L206 149 L206 151 L209 152 L211 156 L210 157 L204 156 L198 150 L197 144 L194 143 L194 140 Z M211 133 L213 132 L219 137 L219 139 L217 140 L211 135 Z M206 129 L208 128 L211 131 L207 133 Z M186 125 L189 127 L190 132 L192 133 L190 137 L187 135 L184 130 Z M183 123 L185 122 L186 124 L184 125 Z M196 119 L198 118 L202 123 L198 124 L196 122 Z M189 110 L191 109 L195 115 L192 116 Z M186 105 L188 104 L190 108 L188 109 Z M175 104 L177 105 L178 109 L182 114 L181 118 L178 118 L175 114 L173 109 L173 106 Z M180 91 L182 90 L183 93 L181 94 Z M170 85 L172 86 L172 91 L174 95 L173 99 L170 96 L169 91 Z M177 81 L179 80 L180 82 L178 83 Z M316 17 L315 30 L310 40 L287 57 L282 71 L256 82 L278 87 L284 94 L285 105 L299 119 L307 118 L318 141 L321 126 L327 118 L336 118 L336 114 L347 106 L351 94 L363 87 L378 85 L378 82 L364 81 L350 71 L348 59 L342 52 L335 50 L334 45 L326 46 Z M321 116 L323 115 L324 117 L322 118 Z M302 113 L309 109 L314 104 L318 103 L328 112 L333 113 L334 115 L328 116 L327 114 L323 112 L318 113 L309 112 L303 116 Z M317 95 L319 94 L320 96 L318 97 Z M335 94 L337 93 L338 95 L336 96 Z M304 91 L310 93 L309 100 L307 99 L306 95 L303 93 Z M313 90 L316 91 L314 95 L312 94 Z M338 85 L345 91 L347 99 L345 105 L342 108 L334 111 L324 105 L320 101 L320 99 L325 96 L328 99 L328 101 L334 104 L341 102 L343 99 L343 95 L339 91 L333 89 L336 85 Z M295 84 L297 84 L300 88 L298 91 L293 94 L292 96 L293 102 L296 104 L300 104 L302 102 L310 104 L308 107 L301 109 L299 111 L291 108 L288 105 L286 98 L288 90 Z M334 81 L335 83 L332 85 L331 83 Z M315 81 L317 80 L318 82 L316 83 Z M298 81 L300 80 L301 82 L299 83 Z M354 77 L356 78 L355 81 L352 80 Z M309 77 L311 76 L312 78 L310 79 Z M303 77 L306 76 L307 78 L304 79 Z M288 76 L293 80 L293 82 L289 85 L286 82 L286 79 Z M328 75 L329 78 L325 80 L324 77 Z M349 73 L350 74 L350 84 L349 89 L347 90 L341 84 L341 81 Z M308 72 L311 71 L312 73 L309 74 Z M314 67 L317 66 L318 68 L315 69 Z M334 66 L336 65 L337 67 L335 68 Z M296 62 L299 61 L300 63 L297 64 Z M302 53 L307 55 L311 59 L312 64 L308 67 L305 65 L305 63 L299 58 L296 59 L292 63 L292 67 L295 70 L295 73 L298 74 L299 76 L295 79 L290 74 L287 64 L289 59 L293 55 L297 53 Z M331 52 L340 54 L346 61 L347 66 L346 72 L339 80 L337 80 L332 75 L340 68 L340 63 L337 60 L331 57 L330 61 L325 65 L324 68 L322 68 L318 63 L326 54 Z M308 52 L317 50 L322 51 L323 53 L317 59 L314 59 Z M302 49 L306 48 L307 50 L303 51 Z"/></svg>
