<svg xmlns="http://www.w3.org/2000/svg" width="512" height="512" viewBox="0 0 512 512" aria-hidden="true" focusable="false"><path fill="currentColor" fill-rule="evenodd" clip-rule="evenodd" d="M239 374 L236 377 L238 386 L243 388 L257 388 L263 394 L256 400 L251 400 L244 396 L237 397 L236 405 L240 408 L253 406 L262 413 L258 419 L247 417 L244 419 L243 424 L249 429 L258 426 L266 435 L261 439 L254 439 L251 441 L260 447 L257 450 L257 453 L262 466 L262 495 L265 496 L266 463 L268 460 L266 452 L270 450 L268 442 L276 440 L278 438 L278 433 L268 430 L263 422 L268 417 L279 417 L283 414 L283 411 L280 407 L273 407 L272 409 L266 410 L260 405 L260 403 L266 399 L270 399 L274 402 L283 402 L287 398 L287 392 L282 388 L269 392 L249 375 Z M257 334 L245 341 L241 348 L240 359 L247 370 L255 374 L263 373 L270 366 L270 356 L267 351 L262 349 L256 349 L250 354 L250 360 L254 363 L257 361 L258 357 L262 359 L262 363 L257 367 L251 366 L248 363 L246 358 L246 352 L252 345 L258 342 L262 342 L270 346 L276 354 L277 364 L274 372 L265 381 L265 383 L268 383 L275 379 L282 372 L285 366 L285 353 L282 345 L275 338 L268 336 L266 334 Z M275 190 L260 203 L271 219 L261 216 L247 200 L254 227 L246 220 L227 219 L202 232 L210 248 L236 240 L246 247 L240 257 L220 258 L227 277 L242 281 L249 288 L249 300 L242 309 L213 308 L203 299 L189 270 L193 303 L202 318 L217 331 L239 334 L250 330 L264 311 L262 282 L275 279 L298 251 L311 257 L312 281 L294 297 L280 295 L271 284 L269 299 L273 310 L284 321 L299 322 L312 315 L321 300 L324 287 L321 259 L309 241 L290 236 L307 226 L311 218 L302 207 L297 207 L286 216 L274 219 L286 203 Z M319 275 L320 284 L318 286 L317 296 L313 306 L307 313 L301 315 L300 317 L290 318 L284 315 L278 309 L275 302 L276 298 L283 302 L296 302 L301 300 L312 290 L316 283 L317 276 Z M245 260 L246 262 L243 265 L243 269 L245 272 L258 275 L256 279 L256 284 L258 287 L260 300 L257 315 L244 328 L235 330 L222 328 L214 323 L204 313 L201 306 L203 305 L207 310 L219 315 L225 315 L227 317 L241 314 L249 309 L253 304 L255 298 L254 287 L247 277 L241 275 L232 275 L226 266 L227 263 L238 263 L241 262 L242 260 Z M304 245 L303 247 L296 247 L292 249 L287 254 L282 264 L274 274 L272 275 L262 275 L261 274 L268 266 L269 262 L272 260 L277 249 L285 242 L299 241 Z M282 236 L283 238 L273 247 L268 254 L265 262 L259 269 L251 269 L248 267 L255 258 L258 250 L259 240 L256 232 L257 229 L259 229 L267 235 Z M208 233 L215 228 L227 225 L229 223 L239 223 L245 226 L252 234 L254 238 L254 247 L252 248 L250 246 L246 238 L239 236 L228 237 L219 241 L213 242 L208 235 Z M305 219 L300 225 L283 231 L273 231 L265 228 L260 224 L260 222 L262 221 L275 225 L277 223 L284 222 L290 219 L298 212 L300 212 Z M257 17 L257 55 L253 60 L255 68 L249 71 L249 74 L255 78 L245 81 L243 86 L247 90 L252 90 L258 98 L253 102 L240 103 L238 110 L240 112 L254 110 L261 117 L254 121 L242 118 L234 121 L233 128 L238 133 L254 129 L258 133 L246 139 L238 147 L234 163 L236 172 L244 181 L249 184 L262 185 L272 181 L279 171 L277 154 L266 146 L254 148 L249 154 L250 165 L261 171 L269 166 L269 158 L265 157 L262 162 L258 160 L258 157 L263 153 L271 155 L274 160 L274 169 L270 174 L255 176 L249 173 L244 166 L244 151 L254 140 L263 138 L274 146 L282 145 L285 141 L283 135 L276 131 L263 131 L258 126 L265 121 L280 125 L285 121 L285 117 L281 113 L266 113 L258 107 L263 101 L277 102 L279 97 L275 92 L264 94 L256 86 L259 82 L270 80 L270 76 L262 73 L265 65 L260 61 L264 56 L264 50 L261 44 L260 18 Z M240 125 L243 124 L244 126 L241 127 Z"/></svg>
