<svg xmlns="http://www.w3.org/2000/svg" width="512" height="512" viewBox="0 0 512 512" aria-hidden="true" focusable="false"><path fill="currentColor" fill-rule="evenodd" clip-rule="evenodd" d="M255 377 L253 381 L255 382 L255 391 L257 391 L257 382 L259 381 L259 379 Z M124 345 L121 341 L117 339 L110 340 L106 343 L106 350 L104 352 L101 350 L97 352 L101 357 L100 359 L97 359 L96 356 L93 354 L91 356 L93 359 L92 362 L89 359 L86 360 L80 367 L77 367 L76 371 L73 374 L58 382 L58 384 L75 375 L79 375 L80 373 L84 374 L85 368 L88 371 L91 371 L92 368 L96 369 L98 364 L101 366 L104 366 L104 362 L102 359 L103 358 L106 359 L104 355 L105 353 L108 353 L111 357 L113 356 L118 357 L120 352 L123 351 L124 357 L120 361 L113 362 L108 360 L112 364 L121 363 L124 361 L127 355 L127 351 L124 348 Z M114 341 L118 342 L121 345 L120 348 L117 346 L112 347 L113 351 L115 348 L117 349 L118 353 L116 355 L113 355 L108 349 L108 345 Z M346 325 L347 329 L350 329 L355 332 L357 331 L350 324 Z M166 326 L162 324 L159 328 L153 332 L155 333 L162 329 L166 329 Z M197 305 L190 304 L184 309 L174 310 L171 313 L172 318 L170 323 L172 328 L177 331 L183 331 L186 328 L186 324 L183 321 L183 319 L193 317 L196 320 L196 324 L193 325 L191 329 L195 331 L198 328 L198 318 L193 313 L198 309 Z M176 318 L179 320 L178 324 L181 325 L180 329 L176 328 L173 325 L173 321 Z M175 313 L178 312 L179 314 L176 315 Z M183 314 L183 312 L186 310 L190 310 L192 312 L191 314 L188 315 Z M191 307 L193 306 L194 308 L192 309 Z M326 285 L326 293 L323 295 L323 299 L320 301 L320 304 L321 305 L325 304 L328 307 L316 313 L314 318 L314 323 L317 328 L325 332 L331 332 L341 327 L342 319 L338 314 L333 313 L329 314 L327 311 L328 309 L338 310 L339 306 L337 304 L332 303 L333 297 L330 295 L328 285 Z M317 316 L321 312 L323 313 L323 323 L326 326 L330 326 L335 323 L333 319 L330 319 L329 322 L327 323 L325 319 L328 316 L337 317 L340 323 L334 329 L324 329 L318 325 Z M186 285 L184 285 L183 293 L181 294 L181 297 L184 297 L185 300 L184 301 L180 299 L176 300 L176 304 L178 305 L184 303 L185 300 L190 300 L190 297 L187 295 Z M282 250 L282 256 L278 263 L277 278 L279 278 L280 281 L282 282 L282 285 L284 285 L285 280 L289 278 L289 270 L287 268 L288 264 L286 258 L284 257 L284 250 Z M282 273 L284 272 L285 274 L283 275 Z M228 250 L228 256 L223 262 L225 266 L223 270 L223 279 L227 281 L228 286 L230 286 L231 280 L235 278 L236 267 L234 266 L232 258 L230 257 L230 250 Z M228 273 L230 272 L231 274 L229 275 Z M226 267 L229 266 L230 268 L227 269 Z M183 206 L179 208 L177 213 L175 213 L175 215 L177 216 L177 220 L171 224 L170 229 L172 232 L177 232 L180 235 L180 240 L182 242 L188 242 L192 239 L194 234 L199 233 L200 225 L199 222 L195 218 L186 216 L186 207 Z M183 239 L184 237 L186 237 L187 234 L191 235 L189 239 L186 240 Z M181 231 L183 230 L184 233 L182 234 Z M188 219 L193 220 L197 224 L198 228 L196 231 L192 231 L189 226 L185 227 L183 226 Z M182 215 L183 222 L179 225 L178 224 L180 216 Z M182 209 L184 210 L183 213 L180 212 Z M162 204 L164 211 L168 213 L166 217 L171 218 L174 206 L172 205 L168 208 L167 205 Z M167 211 L169 210 L170 212 L168 213 Z M350 202 L343 204 L342 206 L333 202 L333 204 L335 205 L334 208 L330 208 L325 204 L322 205 L321 207 L322 211 L328 212 L329 214 L319 216 L315 220 L313 225 L315 234 L321 240 L333 241 L338 238 L340 230 L335 223 L341 221 L341 217 L344 212 L344 209 L349 204 L351 204 Z M327 224 L331 224 L337 229 L337 234 L332 239 L327 238 L327 236 L332 233 L332 229 L328 228 L326 232 L324 231 L324 227 Z M335 221 L334 223 L331 222 L324 223 L321 227 L322 233 L321 234 L317 233 L316 223 L321 218 L324 217 L332 218 Z M335 211 L337 210 L339 214 L336 215 Z M372 173 L368 172 L364 175 L364 177 L369 178 L369 175 Z M454 150 L436 159 L435 161 L433 159 L430 159 L429 161 L427 161 L426 165 L423 162 L421 162 L419 165 L415 165 L414 172 L412 171 L410 167 L408 167 L407 171 L411 174 L410 176 L408 176 L400 169 L392 169 L385 175 L384 181 L386 181 L387 176 L391 172 L396 171 L397 174 L389 180 L388 186 L393 193 L401 193 L405 190 L407 182 L412 184 L414 182 L413 179 L414 177 L416 179 L420 178 L420 176 L417 173 L418 171 L424 174 L426 172 L423 169 L424 167 L426 167 L429 170 L432 168 L434 164 L437 164 L439 160 L453 153 Z M400 183 L404 184 L402 189 L399 187 Z M392 183 L397 188 L396 191 L394 191 L391 188 Z M396 181 L397 178 L400 179 L398 182 Z M400 174 L402 173 L404 177 L402 178 Z M58 150 L59 153 L71 159 L75 164 L78 163 L79 164 L78 166 L82 170 L84 170 L87 167 L88 169 L86 172 L91 176 L92 179 L95 179 L96 176 L98 175 L99 180 L97 182 L100 185 L103 184 L105 189 L111 193 L119 192 L123 187 L123 182 L127 181 L127 177 L125 173 L120 169 L111 169 L107 172 L104 177 L104 180 L102 181 L101 174 L104 171 L104 169 L96 172 L95 171 L97 168 L96 165 L94 165 L91 168 L90 162 L86 164 L85 161 L82 161 L80 158 L78 159 L73 158 Z M118 184 L120 185 L119 189 L117 188 Z M122 179 L124 178 L125 180 L123 181 Z M117 178 L118 181 L113 184 L112 180 L114 178 Z M117 173 L121 172 L123 175 L119 177 Z M112 171 L115 172 L115 175 L110 178 L109 183 L110 185 L115 187 L114 191 L110 190 L106 185 L106 178 Z M91 172 L93 171 L94 173 L92 174 Z M257 144 L255 144 L255 152 L253 160 L250 162 L250 166 L256 166 L257 168 L254 170 L247 170 L246 175 L248 176 L255 175 L255 173 L258 170 L263 169 L263 165 L257 164 L258 162 L261 161 L261 159 L258 157 Z M255 17 L255 46 L251 48 L255 58 L249 61 L248 69 L253 76 L243 85 L243 93 L252 104 L244 115 L236 114 L237 104 L228 137 L219 132 L224 129 L220 119 L213 138 L219 150 L234 152 L178 184 L171 180 L176 177 L175 171 L158 161 L164 184 L157 185 L157 177 L141 172 L149 179 L148 184 L126 185 L133 202 L114 199 L134 212 L133 220 L120 221 L130 221 L127 228 L138 235 L148 230 L152 238 L151 299 L148 303 L136 299 L128 304 L132 310 L121 315 L135 310 L139 313 L122 331 L115 332 L128 334 L125 330 L129 327 L133 332 L129 349 L149 350 L141 361 L153 358 L154 353 L164 354 L158 372 L164 365 L174 364 L181 351 L235 381 L219 384 L215 394 L221 413 L225 404 L221 400 L228 396 L237 423 L237 415 L242 412 L252 427 L243 441 L251 449 L248 456 L256 459 L250 464 L257 496 L262 466 L257 462 L264 459 L262 451 L268 444 L260 427 L270 412 L275 415 L275 423 L284 394 L291 412 L297 395 L294 385 L279 382 L280 378 L334 349 L338 350 L337 363 L348 365 L353 372 L353 360 L346 357 L348 351 L370 361 L367 352 L361 354 L364 349 L384 348 L390 363 L407 360 L407 366 L413 364 L416 369 L420 365 L421 371 L426 368 L427 374 L432 372 L452 382 L429 364 L424 366 L423 359 L419 362 L418 354 L413 359 L414 351 L401 340 L385 346 L379 333 L382 326 L387 330 L383 334 L398 333 L378 314 L391 312 L383 312 L384 304 L376 299 L361 299 L361 235 L364 230 L373 235 L385 228 L381 222 L392 219 L379 220 L378 212 L398 199 L381 200 L382 183 L364 184 L361 177 L355 177 L353 182 L357 184 L349 184 L347 176 L353 173 L353 162 L350 172 L346 167 L336 172 L339 182 L333 184 L279 153 L293 150 L299 137 L292 119 L288 127 L291 131 L284 137 L276 105 L270 118 L259 102 L269 94 L268 85 L251 81 L266 75 L256 71 L263 64 L256 62 L262 57 Z M257 454 L259 453 L260 455 L258 456 Z M247 436 L250 434 L263 435 L266 440 L264 447 L261 450 L254 453 L253 450 L260 447 L261 441 L258 437 L253 437 L251 439 L251 442 L253 444 L255 440 L257 439 L258 444 L256 446 L251 447 L246 443 Z M267 409 L268 411 L266 415 L263 417 L261 423 L258 426 L257 430 L255 431 L246 412 L251 409 L256 416 L261 409 Z M269 407 L277 406 L278 413 L276 414 L275 411 L271 410 Z M235 406 L239 409 L239 411 L236 414 L234 413 Z M259 405 L260 407 L257 410 L253 408 L254 406 L256 407 Z M236 400 L237 403 L232 405 L231 403 L234 400 Z M269 399 L270 403 L267 405 L263 406 L260 403 L261 401 L265 399 Z M245 400 L247 399 L251 401 L252 403 L248 406 Z M237 397 L239 396 L240 399 L238 400 Z M291 396 L293 395 L294 397 L292 398 Z M274 395 L278 397 L279 400 L278 404 L276 404 L275 400 L273 399 Z M278 395 L280 394 L281 397 L279 398 Z M232 394 L234 395 L233 399 L231 398 Z M265 394 L267 393 L268 395 L266 396 Z M286 391 L288 390 L289 392 L287 393 Z M230 390 L235 389 L236 391 L231 392 Z M270 387 L272 388 L271 392 L269 391 Z M290 387 L292 386 L293 388 L291 389 Z M222 385 L223 387 L220 389 L219 387 Z M283 384 L284 385 L283 390 L278 391 L277 389 L280 388 L280 386 Z M271 385 L274 384 L276 387 L272 388 Z M238 383 L241 385 L242 388 L248 395 L247 397 L244 396 L236 388 Z M279 374 L283 370 L287 371 L284 375 Z M249 368 L251 367 L254 370 L251 371 Z M223 363 L227 362 L229 366 L226 367 Z M349 361 L351 362 L350 366 L348 365 Z M162 361 L164 362 L163 366 L161 365 Z M413 361 L415 360 L416 363 L414 364 Z M340 361 L342 360 L343 362 L341 363 Z M258 360 L263 361 L265 364 L264 368 L261 371 L257 370 L257 367 L259 366 L257 362 Z M338 354 L340 353 L342 357 L339 358 Z M170 353 L174 354 L173 360 L170 359 L169 355 Z M408 352 L410 351 L411 353 L409 354 Z M288 352 L290 351 L291 354 L289 355 Z M353 350 L356 349 L357 351 L354 352 Z M172 350 L174 349 L175 351 L173 352 Z M156 350 L158 349 L159 351 L157 352 Z M406 353 L405 357 L401 361 L398 362 L391 361 L388 356 L388 354 L392 353 L396 348 L400 351 L400 353 L396 355 L396 357 L399 357 L403 352 Z M255 347 L257 346 L259 349 L256 351 Z M331 346 L331 348 L327 350 L324 354 L313 358 L307 363 L302 364 L294 371 L291 372 L289 371 L289 368 L292 365 L328 345 Z M181 346 L184 345 L193 351 L195 351 L230 372 L232 372 L234 375 L233 376 L228 375 L224 372 L216 370 L210 364 L204 362 L199 358 L183 350 Z M344 348 L345 344 L356 344 L357 345 L356 347 L351 347 L350 349 Z M162 347 L164 344 L173 345 L171 349 Z M152 345 L158 344 L159 346 L153 347 Z M400 343 L404 346 L403 350 L399 347 Z M393 343 L394 346 L391 348 L390 345 Z M284 366 L284 364 L290 361 L290 359 L292 358 L298 341 L314 345 L318 343 L319 341 L326 343 L325 345 L286 367 Z M291 341 L294 342 L294 346 L292 349 L290 348 Z M196 347 L199 344 L205 344 L214 341 L216 344 L217 352 L220 358 L222 359 L221 362 L219 363 L198 351 Z M186 343 L193 341 L194 346 L191 347 L187 345 Z M310 340 L313 339 L314 341 L311 342 Z M374 333 L376 334 L376 336 L380 341 L382 346 L381 348 L369 348 L367 346 L368 343 L375 342 L373 338 Z M136 333 L139 334 L139 338 L137 342 L142 343 L143 346 L139 348 L131 348 L130 345 Z M289 333 L290 332 L293 333 L294 337 L291 338 Z M221 332 L223 333 L222 335 L222 348 L224 353 L223 355 L221 354 L218 347 L218 334 Z M218 332 L217 335 L209 340 L203 342 L198 341 L199 339 L210 335 L212 332 L215 331 Z M294 331 L296 330 L300 334 L307 337 L308 340 L306 341 L299 338 L294 334 Z M141 326 L143 325 L144 327 L142 328 Z M270 321 L272 325 L281 327 L286 332 L288 346 L278 371 L262 396 L255 402 L248 394 L228 359 L224 346 L224 337 L231 327 L242 323 L255 331 L255 337 L247 350 L255 350 L256 352 L246 357 L246 371 L251 374 L263 373 L267 369 L267 362 L261 357 L265 354 L265 350 L257 338 L257 331 Z M373 318 L376 319 L375 327 L372 325 Z M365 317 L369 319 L369 323 L371 326 L370 329 L368 328 L364 319 Z M272 317 L274 318 L273 322 L270 321 Z M241 317 L242 320 L239 322 L238 320 Z M136 317 L140 319 L140 323 L138 327 L134 323 Z M251 317 L260 316 L262 320 L264 320 L265 322 L263 324 L259 322 L259 325 L257 327 L254 327 Z M247 316 L249 317 L248 322 L246 321 Z M147 316 L148 319 L146 322 L144 322 L143 319 Z M217 313 L219 312 L220 315 L218 316 Z M273 309 L270 312 L261 314 L251 314 L246 312 L247 310 L265 310 L270 308 Z M239 309 L242 308 L244 311 L242 312 Z M374 307 L377 308 L378 311 L377 314 L373 313 Z M359 307 L362 306 L364 310 L369 309 L370 315 L368 316 L365 314 L362 314 L360 312 Z M286 306 L289 307 L290 316 L293 317 L290 327 L283 325 L282 321 L274 317 L274 313 L277 311 L283 313 L282 309 Z M228 306 L232 311 L232 313 L237 312 L238 316 L234 320 L230 321 L230 324 L228 326 L222 327 L220 320 L223 319 L221 311 L224 306 Z M217 307 L219 306 L220 308 L218 309 Z M153 307 L151 313 L145 313 L144 315 L142 314 L143 309 L147 310 L151 306 Z M292 304 L295 307 L294 316 L292 315 L291 306 Z M281 303 L282 305 L277 308 L276 306 Z M230 304 L232 303 L236 307 L234 308 Z M371 301 L372 304 L367 307 L366 304 L369 301 Z M140 302 L141 301 L144 302 L145 305 L141 306 Z M152 301 L154 300 L155 303 L153 304 Z M245 295 L248 294 L251 296 L251 298 L248 299 Z M219 294 L221 293 L223 296 L221 297 Z M294 292 L293 295 L286 302 L284 302 L283 299 L286 298 L290 294 L291 291 Z M300 288 L307 291 L306 298 L296 297 L296 294 Z M254 289 L255 288 L265 288 L268 294 L265 296 L255 291 Z M210 288 L212 288 L216 294 L216 297 L212 298 L211 300 L205 297 L205 291 L209 290 Z M355 283 L359 284 L357 296 L354 295 L354 284 Z M298 281 L299 284 L296 287 L295 284 Z M214 281 L217 284 L218 287 L217 289 L214 286 L213 283 Z M169 280 L170 282 L167 285 L166 283 Z M202 280 L204 279 L205 281 L203 282 Z M340 276 L345 281 L344 284 L339 280 Z M321 275 L332 276 L343 287 L355 306 L369 334 L370 341 L328 341 L310 336 L297 327 L297 305 L310 300 L309 288 Z M191 275 L196 282 L203 286 L202 300 L215 305 L216 324 L212 331 L183 341 L142 341 L141 338 L158 304 L174 280 L182 275 Z M300 272 L301 277 L300 280 L298 281 L297 277 L298 273 Z M245 275 L248 271 L254 269 L255 272 L252 275 L251 280 L254 282 L259 282 L261 277 L257 271 L261 270 L267 275 L267 280 L263 284 L255 286 L248 283 L245 280 Z M186 270 L185 272 L177 275 L174 280 L170 278 L177 270 L183 269 Z M326 270 L331 268 L335 270 L336 272 L333 274 L327 272 Z M355 265 L358 266 L358 280 L357 281 L354 280 L354 266 Z M253 264 L255 263 L256 265 L254 266 Z M299 260 L301 261 L302 266 L300 269 L298 268 Z M212 260 L214 261 L214 276 L215 277 L214 281 L212 280 L210 270 Z M315 257 L324 268 L311 282 L306 283 L303 280 L312 277 L312 275 L309 276 L304 275 L304 270 L306 269 L306 267 L304 266 L303 261 L306 259 L312 260 L312 258 Z M355 255 L358 256 L357 263 L354 262 Z M306 254 L309 253 L310 256 L307 257 Z M205 254 L208 253 L210 256 L206 257 Z M202 253 L203 256 L200 258 L200 260 L206 259 L209 261 L208 265 L205 266 L205 268 L208 270 L208 275 L207 276 L200 275 L200 277 L197 278 L188 267 L191 265 L197 256 Z M216 251 L217 253 L215 256 L215 259 L213 260 L212 256 L214 252 Z M345 251 L344 255 L337 264 L332 266 L327 266 L324 264 L325 262 L330 262 L334 260 L336 257 L339 256 L339 254 L343 250 Z M166 250 L168 249 L172 253 L172 255 L178 260 L182 262 L187 262 L188 264 L185 266 L176 264 L168 255 Z M292 243 L295 245 L300 256 L299 260 L297 259 L296 253 L291 245 Z M155 243 L158 244 L158 295 L157 296 L154 295 L155 291 L153 288 L154 281 L153 246 Z M163 242 L165 246 L167 247 L166 249 L163 249 L165 255 L167 256 L169 261 L176 266 L176 268 L167 276 L166 280 L163 283 L163 285 L167 286 L166 288 L160 287 L160 243 Z M355 241 L358 242 L359 251 L357 253 L354 252 L354 242 Z M350 240 L352 241 L352 292 L351 293 L349 292 L348 281 L346 280 L344 275 L336 268 L337 265 L343 261 L343 259 L347 255 L349 249 L345 251 L344 248 L347 246 Z M222 240 L223 242 L218 250 L216 251 L215 249 L217 245 Z M301 235 L307 238 L307 246 L304 250 L300 248 L295 241 L295 239 L300 238 Z M211 235 L212 238 L215 238 L217 241 L215 245 L208 250 L205 246 L205 238 Z M220 232 L222 231 L223 233 L221 234 Z M231 231 L233 230 L234 232 L232 233 Z M248 229 L255 231 L255 240 L250 252 L253 258 L247 260 L251 266 L243 273 L243 281 L247 287 L242 291 L242 297 L246 301 L255 301 L259 295 L264 301 L270 297 L267 286 L270 276 L265 269 L266 263 L256 262 L257 259 L263 259 L257 238 L258 229 L273 232 L281 238 L285 234 L288 237 L286 243 L296 262 L295 279 L290 291 L283 299 L263 308 L245 307 L227 297 L216 275 L216 262 L222 247 L231 237 Z M153 228 L155 229 L154 233 L152 232 Z M272 228 L274 227 L277 228 L278 230 L275 231 Z M217 228 L219 227 L220 230 L218 231 Z M367 227 L369 226 L371 230 L368 231 Z M242 227 L241 229 L237 231 L235 230 L236 228 L240 226 Z M145 227 L142 232 L137 231 L143 226 Z M266 226 L268 225 L269 227 L267 228 Z M261 225 L265 224 L266 226 L262 227 Z M242 227 L243 225 L246 224 L251 225 L250 227 L245 228 Z M253 224 L256 223 L257 225 L254 226 Z M135 223 L138 222 L139 226 L136 227 Z M294 221 L295 229 L292 232 L291 231 L292 222 Z M217 221 L219 220 L220 223 L218 224 Z M373 219 L378 221 L376 227 L373 226 L372 222 Z M291 219 L293 218 L294 220 L292 221 Z M272 216 L273 219 L269 223 L268 221 L270 217 Z M273 215 L276 214 L277 216 L274 217 Z M290 210 L292 217 L289 218 L290 222 L289 228 L283 229 L282 225 L277 226 L274 224 L274 221 L277 217 L282 216 L283 212 Z M248 214 L257 210 L261 212 L263 215 L259 218 L258 221 L251 221 L250 220 L251 216 L249 216 Z M219 217 L221 211 L224 210 L229 213 L229 216 L236 218 L236 215 L238 214 L242 219 L238 220 L237 225 L230 227 L227 230 L223 228 L222 220 L220 220 Z M144 210 L146 211 L152 223 L151 227 L147 223 L143 225 L141 224 L142 220 L145 219 L143 215 Z M369 207 L370 208 L369 215 L367 217 L365 224 L361 227 L360 223 L367 208 Z M374 206 L377 207 L375 215 L371 213 L372 208 Z M136 206 L138 206 L140 210 L140 213 L138 215 L136 214 L135 210 Z M380 208 L381 205 L383 204 L386 205 L383 209 Z M126 205 L128 204 L129 206 L127 207 Z M384 203 L385 200 L388 201 L386 204 Z M124 201 L127 200 L128 203 L126 204 Z M137 198 L139 199 L138 204 L136 203 Z M209 196 L212 195 L216 199 L221 199 L223 203 L217 206 L209 198 Z M370 192 L371 195 L354 230 L338 254 L328 260 L323 260 L309 249 L310 235 L297 230 L298 223 L295 213 L302 202 L326 193 Z M199 193 L205 192 L207 196 L205 197 L200 195 Z M142 192 L186 193 L205 199 L214 206 L216 210 L214 230 L206 235 L201 235 L203 247 L191 259 L184 260 L172 252 L152 219 L141 195 Z M196 192 L198 191 L199 193 L197 194 Z M289 203 L291 189 L295 191 L294 199 L296 199 L300 195 L307 192 L313 191 L316 192 L315 194 L303 198 L297 203 L293 204 Z M255 192 L264 189 L269 193 L269 198 L266 201 L264 201 Z M149 188 L151 187 L152 189 L150 190 Z M345 186 L347 185 L349 188 L346 189 Z M338 186 L342 185 L343 188 L339 189 Z M329 186 L331 185 L332 188 L330 189 Z M163 187 L165 185 L170 185 L173 188 L164 189 Z M130 186 L140 185 L144 186 L145 189 L138 190 L137 191 L138 195 L135 196 Z M376 184 L381 185 L382 187 L377 195 L376 203 L374 204 L372 200 L375 191 L372 189 L372 186 Z M246 187 L249 184 L251 185 L248 188 Z M184 185 L183 189 L180 190 L173 189 L174 187 L178 187 L182 184 Z M253 184 L260 181 L263 184 L263 186 L256 188 L253 186 Z M289 178 L291 179 L293 183 L292 187 L289 186 L288 181 Z M263 178 L266 177 L267 180 L264 181 Z M224 176 L225 178 L222 185 L221 195 L219 196 L217 194 L218 186 L222 177 Z M307 173 L309 172 L312 175 L323 179 L327 183 L327 185 L324 186 L315 181 L314 179 L309 177 Z M339 171 L341 170 L342 172 L340 173 Z M168 171 L170 170 L171 173 L169 174 Z M298 169 L301 168 L305 172 L302 173 Z M227 170 L226 173 L222 172 L221 176 L219 177 L214 193 L201 189 L195 189 L194 193 L187 191 L189 187 L222 168 Z M286 168 L288 167 L306 178 L314 181 L315 183 L325 188 L326 190 L323 192 L318 192 L317 189 L310 189 L298 193 L296 184 L292 175 L290 174 L290 172 L287 173 L285 172 Z M162 167 L165 170 L164 173 L161 171 Z M292 165 L295 164 L296 167 L294 168 Z M226 162 L223 166 L212 171 L209 174 L190 185 L187 185 L185 183 L189 179 L194 178 L200 175 L204 171 L211 169 L221 161 Z M284 161 L288 160 L289 163 L287 164 Z M233 156 L234 159 L228 162 L227 159 Z M296 142 L290 149 L282 148 L283 146 L288 145 L293 141 Z M277 142 L282 141 L283 143 L278 144 Z M272 141 L276 145 L274 150 L270 146 Z M216 142 L220 141 L222 144 L229 146 L230 148 L222 149 Z M266 138 L269 137 L271 140 L267 141 Z M222 138 L224 137 L225 140 L223 141 Z M247 135 L248 137 L246 138 L242 146 L238 149 L236 147 L237 143 L240 139 Z M232 134 L234 135 L233 139 L231 138 Z M255 130 L263 137 L277 160 L288 187 L288 199 L285 206 L272 212 L269 216 L253 201 L247 201 L242 196 L247 191 L249 198 L253 195 L263 204 L268 203 L272 198 L271 191 L266 187 L266 184 L270 181 L268 175 L262 175 L255 181 L242 185 L240 190 L241 200 L254 206 L244 215 L231 210 L224 200 L224 187 L230 170 Z M279 127 L280 129 L277 132 L277 138 L275 139 L272 131 L275 130 L276 127 Z M232 128 L236 127 L237 130 L233 131 Z M259 127 L264 126 L266 129 L269 129 L270 132 L266 133 L261 131 Z M259 123 L258 125 L254 126 L254 128 L251 131 L246 133 L242 132 L243 128 L250 126 L255 121 Z M235 115 L237 116 L237 119 L239 121 L238 125 L235 125 L233 123 L233 117 Z M276 114 L279 117 L279 123 L277 125 L271 122 L272 120 L276 118 L275 116 Z M255 100 L257 101 L263 114 L266 116 L265 123 L262 123 L258 119 L257 115 L255 115 L254 119 L251 122 L244 121 L245 117 L249 114 L250 109 L253 106 Z M254 86 L257 88 L256 92 L253 90 Z M259 84 L263 84 L267 88 L267 93 L263 97 L256 96 L257 94 L260 94 L262 92 L262 89 L258 86 Z M249 81 L251 82 L252 85 L251 91 L256 95 L255 97 L250 97 L245 92 L245 86 Z M253 65 L255 64 L256 66 L254 67 Z"/></svg>
