<svg xmlns="http://www.w3.org/2000/svg" width="512" height="512" viewBox="0 0 512 512" aria-hidden="true" focusable="false"><path fill="currentColor" fill-rule="evenodd" clip-rule="evenodd" d="M131 455 L131 457 L138 457 L137 455 Z M361 454 L361 456 L371 456 L370 454 Z M316 453 L316 455 L329 455 L328 453 Z M182 455 L195 455 L195 453 L183 453 Z M141 449 L135 449 L134 451 L128 450 L128 452 L141 451 Z M195 449 L195 450 L199 450 L199 448 Z M145 448 L145 450 L149 450 L149 448 Z M122 447 L126 448 L126 446 Z M381 446 L381 447 L385 447 L385 445 Z M373 444 L373 446 L378 446 L378 444 Z M363 443 L363 445 L368 445 L368 443 Z M314 443 L314 445 L318 444 Z M192 444 L192 445 L198 445 L198 443 Z M345 443 L345 444 L351 444 L351 442 Z M322 442 L322 444 L334 444 L334 442 Z M177 442 L177 444 L188 444 L188 442 Z M370 438 L370 440 L381 441 L381 439 Z M361 437 L361 439 L367 439 L367 437 Z M154 437 L128 440 L128 442 L146 439 L154 439 Z M114 413 L125 413 L125 411 L115 411 Z M132 410 L132 412 L165 412 L166 411 L165 410 Z M240 408 L240 432 L238 433 L237 431 L233 430 L239 435 L242 434 L242 409 Z M179 405 L179 407 L184 407 L184 405 Z M125 404 L125 406 L176 406 L176 404 Z M271 400 L271 435 L273 436 L275 433 L279 432 L280 430 L276 431 L275 433 L273 432 L273 399 Z M300 378 L293 379 L292 388 L284 394 L281 401 L282 411 L288 418 L293 421 L293 423 L286 426 L286 428 L295 425 L296 422 L302 421 L307 418 L313 411 L314 407 L313 398 L311 394 L302 387 L303 381 L301 381 Z M300 413 L302 412 L303 414 L301 415 Z M296 410 L298 409 L299 411 L297 412 Z M296 404 L298 403 L299 405 L297 406 Z M296 397 L298 396 L299 398 L297 399 Z M219 374 L211 386 L206 387 L206 392 L204 393 L202 397 L202 402 L193 403 L195 410 L191 411 L190 413 L199 413 L202 415 L209 415 L215 417 L216 415 L218 415 L219 417 L231 416 L230 413 L227 415 L221 414 L222 410 L227 409 L233 411 L233 408 L228 407 L229 404 L229 397 L227 394 L228 388 L225 389 L223 388 Z M211 412 L214 411 L215 414 L212 415 Z M200 407 L205 405 L208 412 L207 413 L200 412 L199 411 Z M226 400 L227 401 L226 406 L224 407 L222 402 Z M203 401 L207 400 L208 402 L204 403 Z M218 398 L219 401 L217 402 L217 406 L215 408 L211 407 L210 405 L213 404 L211 400 L212 399 L216 400 Z M222 394 L224 393 L225 395 L223 396 Z M208 390 L211 393 L210 397 L206 395 L206 392 Z M217 380 L220 382 L221 387 L220 392 L218 391 L218 389 L216 389 L215 392 L212 390 L212 387 L215 385 Z M302 363 L289 365 L281 368 L281 370 L293 366 L302 365 Z M205 361 L205 363 L215 364 L232 369 L232 367 L223 364 Z M300 357 L282 361 L282 363 L300 359 Z M272 357 L270 358 L270 380 L271 381 L272 380 Z M241 356 L241 395 L243 394 L243 357 Z M207 355 L207 357 L216 358 L233 363 L233 361 L224 358 Z M231 348 L231 351 L233 352 L233 348 Z M375 344 L366 363 L354 399 L354 404 L359 408 L396 408 L401 404 L401 400 L381 348 L378 344 Z M386 400 L390 399 L392 401 L392 405 L386 406 L385 405 Z M364 400 L365 399 L375 400 L383 399 L384 402 L383 403 L365 403 Z M375 394 L377 393 L380 397 L376 398 Z M385 391 L388 390 L389 392 L386 393 Z M364 386 L366 385 L367 387 L365 388 Z M365 382 L367 381 L368 383 L366 384 Z M387 376 L391 378 L391 380 L389 381 L390 384 L389 388 L386 387 L386 377 Z M376 374 L381 375 L383 377 L380 380 L378 387 L375 386 L374 381 L371 378 L373 375 Z M381 372 L384 371 L385 373 L382 374 Z M371 369 L372 373 L369 375 L368 373 L369 370 Z M374 367 L378 366 L379 371 L376 372 Z M380 363 L383 360 L385 361 L382 364 Z M376 347 L378 348 L377 357 L375 356 L374 350 Z M328 332 L327 335 L328 344 L324 346 L316 356 L313 367 L313 376 L315 385 L320 393 L329 398 L336 398 L343 395 L348 389 L352 378 L352 367 L348 354 L336 343 L338 335 L334 331 Z M325 389 L326 388 L339 388 L340 390 L336 392 L329 392 L326 391 Z M339 381 L341 380 L342 382 L340 383 Z M323 380 L325 379 L328 382 L324 383 Z M331 358 L335 359 L334 366 L336 368 L333 378 L330 377 L329 368 L331 366 L330 361 Z M335 350 L339 351 L341 349 L343 351 L341 355 L343 356 L345 361 L346 370 L349 369 L351 370 L351 373 L346 375 L345 380 L341 378 L341 368 L337 364 L337 357 L334 353 Z M325 349 L330 355 L328 357 L328 364 L324 368 L324 377 L320 379 L318 373 L319 364 L322 356 L324 355 L322 351 Z M331 336 L333 335 L334 337 L332 338 Z M346 322 L345 324 L347 325 L347 327 L349 327 L348 322 Z M364 300 L363 305 L361 306 L360 309 L355 310 L354 314 L351 313 L351 318 L353 319 L353 321 L351 322 L351 324 L353 325 L352 331 L360 332 L363 331 L363 329 L366 327 L368 331 L377 332 L377 330 L374 329 L374 326 L376 325 L377 327 L379 327 L380 324 L384 326 L385 322 L381 323 L378 321 L380 314 L376 313 L376 309 L372 310 L369 305 L366 305 L365 304 L366 300 Z M364 321 L366 320 L367 323 L365 324 Z M356 317 L359 318 L357 323 L355 322 Z M362 317 L364 316 L365 319 L363 320 Z M363 306 L366 305 L368 310 L363 311 L362 310 Z M157 297 L155 305 L142 316 L139 325 L133 330 L121 394 L124 397 L192 397 L195 391 L186 334 L174 314 Z M192 389 L191 395 L128 395 L127 394 L128 392 L189 392 L189 389 L190 388 Z M126 388 L127 391 L124 394 L123 390 Z M133 388 L134 387 L182 387 L183 389 L182 390 L134 390 Z M129 385 L131 384 L132 386 L130 387 Z M135 383 L136 382 L181 382 L182 384 L181 385 L136 385 Z M126 381 L128 382 L127 386 L125 385 Z M137 376 L138 375 L179 375 L180 378 L179 379 L156 380 L155 379 L138 379 Z M149 368 L154 367 L155 370 L150 371 Z M141 367 L144 370 L143 374 L139 371 Z M178 369 L178 371 L174 373 L162 373 L161 372 L162 370 L170 369 L173 366 Z M166 361 L168 360 L169 362 L167 363 Z M147 351 L149 352 L148 358 L146 357 Z M169 349 L171 350 L170 355 L168 354 Z M161 328 L164 332 L161 342 L163 344 L168 345 L170 348 L166 349 L163 357 L164 362 L154 364 L153 363 L154 356 L152 350 L148 350 L147 348 L150 345 L156 343 L156 339 L154 336 L154 330 L156 328 Z M157 310 L164 314 L166 312 L169 313 L168 317 L171 319 L174 329 L179 332 L181 337 L187 381 L186 386 L184 385 L184 382 L182 380 L180 367 L173 363 L173 347 L170 343 L166 342 L166 329 L161 323 L159 316 L157 317 L156 323 L152 328 L152 341 L145 346 L143 363 L137 367 L135 380 L132 383 L130 382 L137 335 L141 330 L143 330 L144 325 L149 317 Z M242 293 L241 294 L241 306 L243 305 L243 294 Z M287 288 L286 288 L286 294 L282 306 L284 305 L287 297 L286 294 L288 292 Z M352 283 L352 285 L360 285 L379 289 L385 295 L389 296 L390 300 L392 299 L393 295 L395 296 L394 304 L396 306 L413 415 L409 419 L410 424 L409 426 L407 426 L406 423 L398 424 L378 419 L357 417 L355 415 L328 415 L324 417 L313 418 L313 419 L327 417 L357 417 L372 419 L379 422 L417 430 L417 423 L396 292 L393 290 L384 289 L371 285 Z M412 419 L414 420 L415 423 L414 427 L412 426 L411 423 Z M391 293 L393 292 L394 294 L392 295 Z M118 291 L116 296 L112 320 L112 327 L95 430 L132 422 L134 420 L154 417 L194 418 L211 422 L229 429 L229 427 L214 421 L181 415 L179 411 L172 411 L171 415 L155 415 L153 417 L139 418 L114 424 L110 424 L105 422 L104 420 L99 419 L101 417 L100 409 L104 390 L104 383 L106 377 L115 314 L118 305 L118 295 L121 292 L122 293 L121 299 L123 300 L123 297 L128 295 L134 289 L153 285 L161 285 L161 283 L146 284 Z M102 424 L104 423 L105 425 L103 426 Z M99 421 L102 424 L101 427 L98 426 Z M324 237 L321 238 L318 245 L320 245 Z M350 180 L350 182 L355 181 L355 180 Z M369 159 L351 163 L351 165 L369 161 Z M144 159 L144 161 L163 165 L163 163 Z M375 137 L370 138 L346 149 L348 150 L360 144 L375 139 Z M140 137 L141 139 L166 150 L168 149 L168 148 L143 137 Z M346 130 L342 133 L346 132 Z M155 123 L159 125 L159 123 L157 122 Z M366 118 L362 119 L362 121 L366 120 Z M203 116 L201 115 L199 119 Z M175 114 L175 116 L179 118 L179 116 Z M209 109 L207 109 L205 113 Z M163 103 L163 105 L166 107 L167 106 Z M249 98 L244 104 L248 121 L218 156 L206 178 L201 262 L182 259 L184 268 L131 275 L125 268 L116 270 L119 258 L113 241 L107 246 L99 268 L105 283 L84 306 L55 472 L222 474 L232 486 L255 495 L285 484 L291 474 L457 474 L459 466 L429 305 L414 294 L408 283 L413 269 L402 239 L393 259 L397 269 L392 272 L387 267 L381 275 L329 268 L331 259 L325 256 L334 242 L348 239 L354 246 L351 250 L345 248 L346 256 L366 265 L393 237 L397 221 L393 183 L382 190 L376 187 L390 176 L394 166 L384 129 L377 149 L379 160 L372 158 L361 178 L358 196 L352 196 L359 198 L372 217 L373 230 L367 239 L367 223 L355 202 L347 223 L339 224 L346 194 L344 159 L331 122 L314 112 L330 130 L323 132 L331 138 L328 143 L336 166 L337 194 L326 228 L335 238 L324 252 L320 251 L321 260 L313 263 L307 177 L297 158 L265 121 L269 103 L263 97 Z M251 486 L253 485 L254 487 L252 488 Z M261 484 L263 485 L262 488 L259 487 Z M275 482 L275 484 L272 486 L268 487 L265 486 L267 482 L271 481 Z M235 480 L237 479 L240 481 L246 482 L247 485 L246 486 L238 485 L235 483 Z M255 477 L259 480 L257 484 L253 480 Z M285 474 L286 475 L285 478 L281 480 L279 477 L282 474 Z M227 475 L231 474 L234 478 L230 480 Z M243 473 L247 472 L248 476 L246 477 Z M258 466 L260 465 L261 467 L259 468 Z M253 465 L255 466 L255 468 L258 469 L259 471 L258 473 L255 473 L254 470 L251 469 Z M254 464 L256 461 L259 463 L258 466 L255 466 Z M413 461 L415 460 L416 462 L414 463 Z M267 460 L269 461 L271 466 L270 473 L268 472 L267 467 L263 465 Z M246 460 L250 466 L246 467 L245 470 L243 471 L242 467 L244 461 Z M97 461 L100 460 L101 462 L98 463 Z M290 460 L292 459 L293 461 L291 462 Z M260 460 L262 459 L263 462 L261 463 Z M108 460 L116 459 L117 461 L109 462 Z M430 459 L431 458 L442 458 L443 462 L441 464 L431 463 Z M69 463 L72 458 L82 458 L83 459 L82 463 L76 464 Z M250 458 L253 457 L254 460 L252 461 Z M226 458 L228 457 L229 459 L227 460 Z M414 455 L415 452 L421 453 L420 455 L416 456 Z M291 452 L294 449 L297 450 L296 452 L293 453 Z M281 450 L283 449 L284 451 L282 452 Z M216 450 L218 449 L219 451 L217 452 Z M297 449 L300 448 L301 450 L298 451 Z M212 449 L215 448 L216 450 L213 451 Z M411 448 L416 447 L417 449 L412 450 Z M405 447 L410 446 L411 448 L406 449 Z M256 446 L259 448 L260 453 L263 455 L262 458 L257 456 L255 458 L253 457 L254 454 L253 450 Z M455 465 L454 471 L350 471 L349 467 L333 467 L332 470 L288 470 L284 468 L285 466 L322 466 L324 463 L337 464 L379 463 L394 464 L395 466 L447 467 L449 466 L449 459 L447 453 L448 445 L451 448 L453 463 Z M426 445 L427 450 L420 452 L419 449 L424 448 L424 446 Z M291 446 L293 445 L294 447 L292 448 Z M219 446 L221 445 L222 447 L220 448 Z M85 445 L89 444 L90 448 L94 448 L95 451 L94 452 L87 451 Z M416 444 L418 443 L419 445 L417 446 Z M283 444 L286 443 L287 445 L284 446 Z M227 443 L234 446 L235 448 L232 451 L236 452 L241 456 L238 460 L226 454 L227 450 L225 450 L224 448 L226 447 Z M409 443 L412 442 L413 444 L410 445 Z M404 442 L407 441 L408 443 L405 444 Z M446 441 L448 440 L449 442 L447 443 Z M445 435 L447 434 L448 436 L446 437 Z M271 452 L277 448 L279 452 L277 456 L283 454 L286 457 L309 451 L309 449 L301 449 L305 445 L298 447 L294 445 L310 439 L357 437 L326 436 L289 443 L294 439 L311 434 L359 432 L403 440 L404 442 L400 443 L400 445 L404 445 L404 448 L388 446 L388 448 L413 452 L408 455 L387 451 L387 453 L424 457 L425 453 L437 453 L438 455 L428 457 L427 460 L395 458 L393 456 L384 457 L383 455 L375 456 L405 459 L405 462 L350 459 L294 460 L295 458 L313 456 L313 454 L307 454 L276 463 Z M226 458 L199 454 L199 456 L213 457 L219 460 L119 461 L119 458 L128 457 L86 460 L85 457 L76 457 L75 454 L79 449 L83 450 L82 453 L88 453 L89 457 L97 457 L93 454 L94 452 L99 452 L100 456 L125 453 L125 451 L106 455 L101 454 L97 448 L102 447 L103 451 L107 451 L103 447 L109 446 L109 444 L98 446 L92 444 L143 433 L177 431 L210 436 L224 443 L187 436 L157 437 L188 438 L215 443 L219 446 L202 444 L202 446 L212 448 L211 450 L203 449 L203 451 L217 453 Z M444 430 L446 429 L447 431 L445 432 Z M443 423 L445 422 L446 425 L444 426 Z M430 420 L434 419 L435 421 L431 422 Z M442 418 L444 417 L445 419 L443 420 Z M433 416 L435 415 L436 417 L434 418 Z M441 412 L443 411 L444 414 L442 415 Z M427 410 L429 409 L430 411 L428 412 Z M83 408 L85 407 L86 409 L84 410 Z M431 403 L434 401 L436 402 L435 405 L432 405 Z M84 402 L86 401 L87 403 L85 404 Z M85 396 L87 395 L88 397 L86 398 Z M78 396 L80 395 L81 397 L79 398 Z M82 395 L84 394 L85 396 L83 397 Z M424 391 L426 390 L427 393 L425 394 Z M83 389 L84 388 L88 389 L89 392 L88 393 L84 392 Z M80 385 L82 384 L83 386 L81 387 Z M436 384 L438 383 L439 385 L437 386 Z M435 378 L437 377 L438 379 L436 380 Z M434 372 L436 371 L437 374 L435 375 Z M82 372 L84 371 L85 373 L83 374 Z M88 367 L89 369 L92 370 L90 386 L89 387 L86 386 L84 388 L83 387 L84 381 L82 381 L81 379 L85 378 L86 368 Z M87 362 L89 361 L90 364 L93 365 L92 368 L88 367 Z M432 361 L434 360 L435 362 L433 363 Z M84 361 L86 360 L87 362 L85 363 Z M91 360 L93 359 L94 361 L92 362 Z M89 355 L91 356 L90 361 L88 360 Z M430 355 L433 354 L434 356 L431 357 Z M85 355 L87 354 L88 356 L86 357 Z M89 350 L91 349 L92 351 L90 352 Z M429 349 L432 348 L433 350 L430 351 Z M425 348 L427 349 L429 366 L431 372 L432 384 L435 396 L434 400 L431 400 L429 398 L427 400 L425 399 L425 396 L428 395 L429 392 L427 386 L425 388 L423 387 L423 384 L426 383 L426 380 L423 382 L421 376 L420 366 L423 365 L423 362 L420 363 L419 360 L422 359 L421 351 L424 350 Z M86 349 L88 348 L89 350 L87 351 Z M87 344 L92 343 L93 345 L88 346 Z M429 343 L431 342 L432 345 L430 346 Z M420 345 L423 344 L424 342 L426 343 L425 347 L421 347 Z M419 339 L423 337 L425 338 L424 341 L420 341 Z M88 338 L93 337 L94 339 L89 340 Z M415 336 L419 335 L420 337 L416 338 Z M242 335 L243 334 L246 335 L247 338 L243 340 Z M298 334 L300 333 L301 335 L299 336 Z M418 333 L420 332 L421 334 L419 335 Z M92 332 L94 331 L95 333 L93 334 Z M89 331 L91 330 L92 332 L90 333 Z M414 330 L416 329 L417 331 L415 332 Z M96 330 L98 329 L99 331 L97 332 Z M417 327 L419 326 L420 328 L418 329 Z M259 325 L262 332 L262 340 L263 341 L264 340 L264 334 L269 333 L271 335 L271 342 L269 346 L256 355 L244 345 L244 343 L247 341 L247 338 L249 337 L247 335 L248 330 L252 326 Z M93 326 L95 325 L96 327 L94 328 Z M90 325 L92 324 L93 326 L91 327 Z M235 323 L239 322 L240 324 L236 325 Z M268 321 L270 320 L271 322 L269 323 Z M270 327 L274 326 L283 329 L282 327 L275 325 L274 323 L279 322 L291 325 L291 323 L284 321 L285 319 L288 319 L298 323 L303 328 L301 331 L295 333 L298 336 L297 338 L284 339 L279 337 L277 334 L279 333 L286 335 L285 333 L279 332 L274 329 L271 330 Z M208 330 L212 325 L225 319 L228 319 L229 321 L222 323 L222 325 L231 323 L232 326 L230 329 L239 326 L243 327 L242 330 L239 329 L231 333 L226 333 L225 335 L234 333 L237 334 L236 336 L229 339 L217 338 L215 336 L216 334 L218 334 L217 332 Z M279 319 L281 318 L282 320 L280 321 Z M230 319 L233 318 L234 320 L231 321 Z M91 319 L93 318 L94 320 L92 321 Z M296 314 L298 313 L299 315 L297 316 Z M214 314 L216 313 L217 315 L215 316 Z M211 313 L213 312 L214 314 L212 315 Z M277 310 L279 311 L278 314 L275 313 Z M235 309 L238 312 L237 315 L233 312 Z M302 308 L299 311 L293 313 L290 312 L291 309 L296 309 L300 307 Z M422 304 L424 304 L426 308 L431 335 L430 340 L427 338 L423 312 L421 306 Z M90 304 L92 306 L75 394 L64 466 L83 467 L117 466 L118 464 L190 463 L192 466 L229 466 L229 471 L184 470 L183 467 L163 467 L162 471 L60 471 L58 469 L62 455 L87 309 Z M99 299 L101 298 L102 300 L100 301 Z M182 296 L183 295 L188 296 L189 295 L188 291 L190 290 L200 301 L211 307 L222 309 L223 312 L221 313 L211 310 L210 314 L206 313 L205 316 L200 315 L194 311 L185 302 Z M177 291 L183 290 L184 293 L181 296 Z M316 290 L318 289 L319 291 L317 292 Z M336 291 L329 301 L315 314 L306 317 L305 314 L303 315 L299 314 L300 312 L304 311 L302 307 L314 300 L323 290 L329 288 L330 290 Z M104 276 L107 275 L108 278 L106 279 Z M327 272 L351 271 L405 284 L430 442 L366 430 L326 429 L291 437 L267 452 L258 441 L258 360 L276 338 L281 348 L283 341 L314 335 L303 322 L321 313 L347 288 L340 283 L326 285 Z M109 283 L161 271 L187 273 L188 285 L174 283 L166 288 L192 313 L210 321 L200 335 L221 342 L237 338 L255 359 L255 441 L248 453 L227 439 L188 429 L153 429 L81 441 Z M102 271 L106 270 L107 272 L103 273 Z M401 269 L403 271 L402 277 L398 279 L394 279 L392 276 L398 273 L398 271 Z M213 270 L216 269 L217 271 L214 272 Z M109 270 L111 269 L112 271 L118 275 L118 278 L117 279 L112 278 L109 274 Z M303 268 L300 272 L296 271 L300 267 Z M404 267 L409 266 L410 270 L406 271 Z M268 269 L269 266 L277 267 L274 271 L270 271 Z M237 269 L238 266 L246 267 L243 271 L239 271 Z M208 266 L209 265 L213 266 L214 269 L211 270 Z M193 264 L196 264 L204 268 L214 278 L213 287 L214 294 L218 303 L217 305 L214 305 L206 299 L203 299 L202 298 L203 295 L198 296 L196 294 L196 292 L199 291 L199 288 L196 283 L195 285 L197 290 L196 291 L194 290 L190 276 L190 269 L192 268 Z M323 263 L324 270 L321 286 L319 289 L317 288 L319 283 L317 281 L316 286 L313 291 L313 293 L316 291 L317 294 L314 297 L310 295 L311 298 L309 300 L306 300 L300 305 L296 305 L295 303 L298 299 L300 287 L299 278 L309 268 Z M223 263 L228 264 L239 275 L239 279 L234 289 L233 295 L234 304 L233 305 L231 304 L229 300 L228 294 L227 293 L226 294 L228 302 L231 307 L230 309 L226 309 L219 301 L216 289 L218 277 Z M290 262 L297 284 L297 292 L295 299 L291 306 L286 311 L282 312 L281 309 L278 308 L280 302 L280 293 L278 285 L274 279 L274 276 L284 265 Z M104 263 L105 262 L109 263 L110 266 L107 267 Z M404 260 L406 259 L407 261 L405 262 Z M295 259 L297 260 L296 264 L294 263 Z M256 258 L273 280 L277 291 L277 304 L274 311 L271 311 L272 304 L270 304 L270 308 L267 313 L269 317 L260 321 L254 320 L253 317 L248 318 L247 314 L243 315 L239 311 L236 302 L238 285 Z M267 263 L267 260 L270 257 L286 257 L287 260 L278 267 L276 266 L276 264 Z M362 256 L364 255 L365 258 L363 259 Z M206 252 L210 253 L209 262 L204 261 L204 255 Z M259 254 L261 253 L262 250 L292 250 L294 257 L290 258 L289 256 L267 256 L265 257 L264 260 L262 260 Z M220 257 L220 252 L222 250 L256 250 L257 251 L249 263 L237 264 L235 266 L228 261 L231 257 L247 257 L247 256 L229 256 L227 260 Z M403 249 L404 255 L402 257 L399 257 L399 263 L397 264 L396 257 L399 254 L399 252 Z M109 249 L112 251 L112 256 L116 257 L115 264 L113 263 L113 260 L110 259 L108 254 Z M364 255 L366 250 L371 252 L370 250 L371 248 L379 249 L376 253 L370 256 Z M225 240 L227 238 L286 238 L288 242 L286 244 L227 244 Z M307 230 L308 231 L308 247 L304 249 L303 248 L303 231 Z M334 230 L339 228 L345 228 L349 226 L350 229 L357 231 L361 235 L364 241 L363 251 L359 255 L356 256 L354 250 L357 248 L360 248 L360 245 L357 244 L350 237 L347 236 L338 237 L337 235 L340 234 L340 232 L334 233 L333 232 Z M210 226 L211 227 L210 239 L206 240 L205 230 L207 227 Z M384 223 L386 222 L387 224 L385 225 Z M338 216 L337 222 L335 226 L330 229 L329 227 L332 219 L335 215 Z M352 212 L356 213 L358 216 L358 221 L360 220 L363 221 L365 227 L364 233 L355 228 L351 223 L350 220 L352 219 L351 214 Z M365 201 L369 202 L367 207 L364 205 Z M303 201 L307 202 L307 213 L306 214 L302 213 L302 202 Z M208 200 L212 201 L210 212 L206 210 Z M362 190 L366 191 L367 198 L364 201 L362 200 L361 197 Z M339 194 L340 190 L344 191 L342 195 Z M389 189 L390 196 L387 200 L387 206 L391 202 L394 212 L394 223 L391 235 L384 245 L381 246 L372 245 L368 247 L367 244 L371 241 L376 231 L376 220 L374 216 L375 211 L371 210 L373 206 L379 210 L382 217 L382 228 L378 239 L375 241 L375 243 L377 243 L381 238 L384 230 L384 226 L385 225 L388 226 L388 218 L386 219 L384 218 L380 207 L373 200 L374 194 L377 193 L378 198 L381 198 L381 195 L386 190 Z M207 189 L211 188 L212 191 L208 192 Z M370 184 L373 185 L374 191 L371 197 L368 195 L368 187 Z M367 180 L368 181 L367 186 L364 188 L363 181 Z M339 173 L342 172 L344 174 L344 177 L340 178 Z M293 168 L298 167 L303 176 L298 177 Z M291 165 L293 164 L294 166 L292 167 Z M256 155 L259 157 L261 170 L265 174 L265 183 L261 189 L261 193 L272 198 L276 204 L277 221 L275 226 L284 229 L285 233 L282 236 L231 236 L229 234 L229 230 L232 227 L240 225 L236 219 L236 210 L239 201 L253 192 L248 176 L255 165 L254 158 Z M279 147 L283 146 L294 160 L291 164 L288 162 L288 160 L285 158 L282 152 L278 149 Z M331 143 L335 142 L336 144 L332 145 Z M385 141 L387 145 L384 152 L389 153 L390 162 L388 163 L388 165 L390 166 L390 170 L387 174 L383 174 L382 177 L380 176 L379 172 L377 175 L374 175 L373 177 L378 178 L379 180 L372 182 L371 180 L367 179 L367 173 L374 165 L376 166 L376 168 L378 168 L378 166 L381 163 L383 164 L383 167 L385 167 L384 156 L380 154 L380 149 L383 142 Z M237 140 L240 144 L234 149 L234 151 L230 154 L230 156 L224 162 L224 164 L218 172 L216 177 L211 178 L210 176 L221 158 L231 145 Z M275 138 L281 143 L278 147 L272 142 Z M263 131 L268 129 L275 137 L270 139 Z M256 129 L281 156 L297 181 L300 258 L290 246 L291 239 L287 235 L287 228 L279 223 L278 202 L265 192 L269 178 L263 168 L258 145 L255 147 L245 178 L249 192 L240 196 L235 203 L234 223 L226 229 L224 246 L219 248 L216 257 L212 257 L217 180 L231 158 Z M258 118 L265 126 L264 130 L262 131 L257 125 L240 142 L237 138 L255 118 Z M248 115 L250 114 L251 116 L249 117 Z M265 113 L266 115 L263 117 L262 115 Z M246 108 L248 107 L249 110 L247 111 Z M252 106 L256 104 L260 105 L262 109 L261 112 L254 114 L252 111 Z M264 103 L267 106 L266 113 L264 112 L263 105 Z M252 100 L253 102 L248 107 L247 104 Z M253 100 L260 99 L263 102 L262 103 L254 102 Z M202 90 L205 97 L206 95 L204 91 Z M318 80 L310 93 L312 93 L315 87 L317 86 L319 82 Z M196 79 L195 80 L196 83 L200 87 Z M191 72 L192 76 L194 76 L193 72 Z M324 71 L322 71 L320 77 L322 77 Z M304 62 L302 62 L294 84 L294 87 L296 87 Z M210 61 L218 86 L220 86 L212 61 Z M284 55 L282 55 L278 80 L280 79 Z M230 55 L234 79 L236 80 L232 55 Z M258 17 L247 43 L248 55 L245 56 L245 67 L252 75 L203 103 L186 121 L175 142 L167 175 L173 225 L162 219 L163 214 L168 212 L163 211 L158 202 L145 229 L139 228 L141 216 L159 198 L155 196 L154 185 L163 180 L153 180 L141 158 L134 161 L136 148 L132 141 L132 127 L127 134 L120 170 L136 187 L131 190 L120 182 L122 191 L118 199 L116 225 L126 247 L143 258 L147 266 L152 260 L168 254 L167 248 L161 250 L159 247 L165 239 L176 240 L187 254 L196 248 L189 231 L183 231 L178 226 L182 223 L186 228 L176 193 L178 162 L191 131 L187 132 L185 128 L192 123 L192 118 L195 119 L194 114 L205 104 L209 105 L210 100 L213 102 L215 96 L219 98 L220 93 L237 90 L223 100 L243 91 L241 87 L248 81 L256 88 L263 81 L269 86 L274 84 L275 88 L271 91 L285 97 L279 91 L290 91 L294 98 L289 100 L298 96 L309 105 L309 109 L313 108 L297 93 L262 75 L269 66 L269 55 L262 57 L266 41 Z M133 249 L140 247 L143 249 L142 252 L146 250 L148 254 L146 256 L143 256 L141 254 L138 254 Z M141 244 L144 243 L146 246 L144 247 Z M134 237 L138 236 L140 240 L137 242 Z M184 234 L191 240 L191 243 L188 245 L186 245 L181 240 Z M142 232 L145 233 L147 238 L146 240 L141 234 Z M170 231 L172 232 L171 236 L168 235 Z M158 230 L160 230 L165 235 L159 240 L156 245 L157 250 L162 253 L161 256 L155 256 L149 249 L149 240 L151 236 Z M172 236 L176 229 L183 232 L182 235 L178 234 L177 237 Z M162 226 L164 225 L166 227 L170 227 L171 230 L163 232 Z M120 219 L124 221 L124 226 L127 224 L129 227 L129 232 L131 235 L129 240 L133 240 L135 242 L133 246 L129 246 L122 236 L119 226 Z M174 214 L178 213 L180 219 L176 220 Z M160 212 L161 216 L159 219 L162 221 L160 226 L149 233 L148 232 L149 222 L151 220 L154 221 L154 216 L158 212 Z M137 208 L139 214 L136 223 L137 233 L134 234 L131 228 L131 216 L133 211 Z M137 207 L140 206 L142 209 L140 210 Z M143 202 L147 203 L148 206 L145 208 L142 205 Z M151 193 L152 195 L150 203 L148 204 L145 199 L147 194 Z M170 190 L173 189 L174 192 L171 193 Z M124 189 L127 190 L131 194 L132 200 L134 200 L135 193 L139 197 L139 202 L132 208 L130 214 L126 215 L125 218 L119 215 L121 203 L123 202 L126 205 L126 200 L123 196 Z M147 183 L151 184 L149 191 L147 190 L146 186 Z M135 178 L139 178 L143 182 L145 189 L145 194 L143 198 L140 195 L139 184 L137 181 L134 180 Z M170 175 L173 174 L174 178 L171 179 Z M138 164 L140 165 L147 175 L146 182 L142 180 L141 177 L138 175 L137 168 Z M131 163 L135 166 L134 171 L131 169 L130 166 Z M125 161 L128 162 L129 168 L131 169 L131 171 L128 174 L124 172 L122 164 Z M131 146 L134 151 L133 154 L130 156 L129 159 L124 159 L123 158 L125 152 L128 153 L129 152 L128 147 Z M275 89 L277 88 L278 90 L276 91 Z M236 86 L239 85 L241 89 L237 90 Z M247 63 L249 62 L250 64 L248 65 Z M263 62 L265 61 L266 64 L264 65 Z M256 54 L260 58 L257 68 L255 67 L255 63 L252 62 Z M249 47 L252 46 L253 50 L251 51 Z M256 30 L259 33 L259 38 L262 40 L261 45 L264 46 L264 49 L261 53 L259 52 L258 49 L258 43 L256 43 L255 47 L252 44 L252 40 L255 39 L254 33 Z"/></svg>
