<svg xmlns="http://www.w3.org/2000/svg" width="512" height="512" viewBox="0 0 512 512" aria-hidden="true" focusable="false"><path fill="currentColor" fill-rule="evenodd" clip-rule="evenodd" d="M304 445 L299 447 L291 447 L285 445 L284 442 L282 442 L280 449 L285 448 L289 450 L294 450 L295 452 L285 455 L276 453 L271 456 L269 459 L268 465 L272 471 L270 473 L262 471 L263 479 L257 487 L250 480 L251 474 L250 470 L246 473 L243 473 L240 471 L244 467 L244 459 L239 454 L233 453 L228 455 L218 452 L219 450 L224 449 L233 450 L231 445 L226 445 L222 447 L214 447 L209 445 L209 447 L215 455 L219 457 L223 457 L224 460 L228 463 L231 462 L231 459 L233 457 L237 457 L240 459 L241 465 L236 471 L241 476 L246 477 L247 482 L254 489 L255 494 L257 496 L259 489 L266 482 L267 477 L273 475 L277 471 L272 465 L273 459 L275 457 L281 457 L282 462 L285 463 L289 460 L290 457 L293 457 L299 454 L303 449 Z M279 438 L276 437 L274 443 L262 454 L261 459 L257 464 L252 459 L252 456 L250 453 L238 442 L237 438 L235 438 L234 440 L236 445 L246 453 L249 457 L250 467 L252 468 L254 466 L257 470 L259 466 L262 468 L264 467 L263 460 L265 455 L276 446 L279 441 Z M371 279 L372 283 L375 285 L373 289 L376 292 L378 297 L393 299 L392 290 L389 285 L383 282 L376 282 L373 279 Z M375 286 L377 285 L378 287 L376 288 Z M142 279 L140 279 L137 282 L130 282 L124 285 L121 290 L120 299 L134 298 L140 289 L138 285 L141 283 Z M131 286 L137 285 L138 287 L132 288 Z M256 17 L250 67 L242 86 L244 95 L236 104 L238 115 L231 115 L228 135 L220 130 L224 148 L210 145 L203 133 L202 118 L198 138 L204 156 L203 176 L191 177 L176 160 L174 145 L174 203 L167 227 L155 214 L155 236 L159 240 L155 244 L136 180 L125 235 L120 245 L111 242 L122 262 L105 279 L92 319 L91 349 L113 377 L138 380 L148 370 L147 355 L139 348 L131 357 L136 365 L128 367 L118 356 L117 343 L132 328 L147 327 L155 347 L160 383 L175 400 L160 414 L152 408 L160 396 L150 380 L144 388 L124 385 L141 415 L154 425 L178 430 L183 425 L179 414 L188 421 L192 418 L185 411 L177 411 L173 421 L178 419 L180 424 L172 427 L165 420 L167 410 L176 404 L196 407 L205 413 L183 437 L219 442 L237 431 L257 456 L276 431 L294 442 L330 437 L308 414 L322 405 L337 404 L346 410 L348 419 L341 427 L333 423 L335 419 L340 421 L338 412 L328 411 L322 416 L325 422 L329 414 L335 415 L330 420 L335 430 L366 421 L389 385 L369 387 L363 380 L353 396 L361 408 L353 414 L338 400 L354 380 L364 329 L379 327 L396 344 L395 356 L385 367 L377 365 L382 357 L374 348 L364 359 L370 377 L391 381 L408 370 L422 349 L422 323 L408 279 L387 258 L394 259 L402 242 L393 245 L388 235 L377 180 L368 223 L358 244 L354 241 L358 236 L358 214 L346 227 L339 203 L339 145 L337 160 L322 177 L310 176 L309 156 L315 139 L311 118 L310 133 L303 145 L289 148 L292 130 L285 135 L282 115 L275 115 L277 104 L272 103 L274 96 L270 95 L271 86 L265 76 Z M246 416 L249 417 L266 416 L272 422 L273 427 L271 433 L260 444 L257 449 L243 435 L241 431 L240 425 L242 420 Z M274 418 L275 417 L291 417 L298 415 L305 416 L315 422 L322 431 L322 433 L315 434 L305 438 L293 438 L286 435 L280 430 Z M191 433 L191 431 L199 421 L211 415 L239 418 L235 427 L231 432 L220 438 L209 438 L198 434 Z M377 390 L378 394 L372 398 L373 405 L368 415 L360 421 L351 423 L350 422 L351 417 L359 414 L365 407 L365 400 L363 398 L358 398 L357 394 L361 390 L364 389 L366 390 L366 394 L369 394 L372 390 Z M132 391 L141 390 L144 394 L146 394 L147 390 L150 389 L156 394 L155 401 L152 400 L152 397 L148 400 L148 407 L152 413 L162 417 L163 421 L162 423 L155 422 L145 415 L140 405 L141 398 L139 396 L131 393 Z M297 364 L299 371 L299 387 L297 394 L293 402 L287 408 L273 414 L272 412 L277 406 L280 399 L281 375 L289 367 Z M216 364 L225 368 L232 375 L233 378 L232 394 L233 400 L239 410 L238 412 L235 412 L226 408 L220 402 L216 394 L213 381 Z M256 352 L268 365 L277 383 L277 396 L275 402 L267 412 L261 415 L252 415 L246 412 L239 404 L236 397 L236 383 L242 369 Z M414 351 L410 362 L407 364 L407 366 L399 373 L389 378 L377 377 L368 368 L367 360 L371 354 L375 355 L375 358 L373 360 L374 367 L378 370 L383 371 L390 369 L395 364 L399 355 L400 347 Z M99 351 L113 347 L114 355 L118 364 L125 370 L129 371 L135 370 L139 367 L140 360 L138 358 L138 355 L142 354 L146 361 L145 368 L136 377 L133 378 L121 377 L114 373 L105 365 Z M334 346 L337 349 L337 355 L335 359 L335 371 L332 384 L328 391 L313 406 L305 410 L292 413 L291 412 L292 410 L298 407 L305 401 L315 385 L319 367 L318 363 L319 356 L325 349 Z M336 346 L338 345 L339 347 L337 348 Z M339 337 L342 338 L341 343 L337 340 Z M172 337 L175 338 L174 343 L177 346 L186 348 L194 356 L195 375 L198 385 L207 400 L212 405 L222 411 L221 413 L214 412 L200 406 L192 400 L184 390 L179 377 L176 350 L171 343 Z M385 323 L389 322 L397 334 L408 345 L406 346 L396 340 L387 329 Z M127 321 L128 322 L127 327 L121 336 L113 343 L106 346 L105 344 L115 335 L121 325 Z M307 319 L315 354 L315 370 L307 393 L299 401 L298 399 L303 385 L301 358 L298 358 L288 364 L286 351 L281 339 L292 326 L302 320 Z M206 319 L213 321 L221 326 L232 339 L227 351 L225 364 L215 358 L212 358 L210 387 L214 397 L213 400 L204 390 L198 370 L199 348 Z M256 311 L276 337 L282 349 L284 367 L279 373 L274 369 L272 364 L257 346 L243 361 L235 373 L229 367 L231 349 L237 337 Z M219 319 L242 318 L243 315 L221 315 L220 312 L247 311 L248 308 L235 307 L236 304 L252 303 L252 301 L243 301 L243 297 L270 297 L270 301 L261 301 L261 303 L276 304 L277 307 L265 308 L266 311 L293 312 L292 315 L270 315 L270 318 L293 318 L294 321 L288 324 L282 332 L278 334 L264 317 L257 304 L248 318 L235 334 L233 334 L225 324 L220 322 Z M309 290 L312 290 L318 299 L317 307 L319 314 L323 316 L320 307 L321 303 L325 304 L326 310 L331 314 L333 320 L331 329 L347 323 L352 318 L361 326 L354 348 L354 365 L351 378 L343 391 L330 400 L328 400 L327 397 L336 382 L339 355 L344 344 L343 334 L337 334 L332 343 L325 345 L319 350 L317 349 L312 327 L312 313 L308 312 Z M204 290 L205 312 L201 313 L201 327 L196 349 L194 350 L189 346 L178 342 L176 334 L170 334 L168 339 L169 348 L174 358 L176 379 L186 398 L183 400 L172 393 L163 381 L159 367 L159 348 L152 326 L161 319 L182 330 L180 323 L182 314 L187 310 L188 304 L192 302 L193 308 L190 317 L193 316 L196 309 L198 293 L201 290 Z M297 284 L305 289 L305 315 L299 317 L296 314 L296 285 Z M216 284 L217 285 L217 314 L214 317 L208 315 L208 288 Z M256 281 L258 282 L260 286 L259 292 L257 294 L253 290 L253 287 Z M334 271 L340 272 L346 276 L350 283 L347 293 L353 298 L354 309 L351 315 L344 321 L338 323 L336 322 L335 314 L328 306 L328 301 L322 299 L316 289 L313 287 L326 274 Z M178 271 L187 274 L200 287 L196 290 L191 299 L185 301 L184 308 L179 313 L177 317 L177 322 L175 323 L169 321 L162 315 L159 309 L160 298 L166 293 L166 289 L162 285 L165 278 L169 274 Z M202 278 L202 281 L200 282 L189 271 L181 268 L175 268 L164 274 L164 276 L162 277 L160 283 L162 293 L160 294 L157 291 L157 279 L160 272 L166 265 L175 260 L180 260 L191 264 L197 270 L197 272 Z M307 282 L322 264 L329 261 L341 261 L356 277 L356 271 L352 265 L354 262 L369 256 L383 259 L392 268 L387 272 L399 274 L406 283 L407 297 L418 322 L417 344 L407 340 L391 319 L381 317 L380 314 L377 315 L381 321 L380 324 L361 322 L356 316 L358 308 L356 293 L359 289 L359 280 L357 280 L356 292 L352 294 L352 279 L343 270 L328 269 L309 284 Z M156 260 L160 264 L154 279 L154 289 L157 296 L156 318 L148 324 L133 324 L135 314 L124 318 L111 335 L97 345 L94 335 L95 322 L106 297 L109 279 L114 274 L126 272 L121 267 L132 258 L143 256 Z M123 257 L125 256 L126 258 L124 259 Z M256 254 L260 258 L267 275 L267 283 L264 288 L261 287 L260 279 L257 274 L252 281 L250 288 L247 286 L246 283 L246 274 Z M285 250 L288 251 L292 256 L292 307 L291 308 L288 305 L289 301 L289 261 L288 257 L284 253 Z M228 250 L229 253 L225 257 L224 260 L224 307 L221 308 L220 307 L221 305 L220 263 L222 253 Z M360 254 L361 248 L395 248 L396 251 L393 254 L385 254 L384 256 L378 254 L365 254 L364 255 Z M357 249 L357 256 L350 262 L336 257 L327 258 L317 264 L310 273 L308 272 L308 251 L309 250 L342 250 L348 248 Z M156 249 L166 248 L172 250 L204 250 L205 251 L205 272 L203 273 L196 264 L186 258 L172 258 L163 262 L156 257 Z M118 248 L152 248 L153 254 L152 255 L135 254 L129 256 L128 254 L120 254 L117 251 Z M308 246 L309 243 L348 243 L349 244 L348 246 L337 246 L336 247 L309 247 Z M161 244 L162 243 L204 243 L205 246 L204 247 L176 247 L175 246 L162 246 Z M363 243 L366 238 L386 238 L389 244 L388 245 L364 245 Z M124 243 L127 238 L146 238 L150 242 L149 245 L125 245 Z M334 237 L340 236 L342 239 L335 240 Z M328 237 L327 240 L309 240 L308 239 L309 237 L319 237 L320 236 Z M171 238 L173 236 L185 236 L186 237 L204 237 L205 239 L204 240 L172 240 Z M304 233 L305 234 L305 278 L302 281 L297 282 L296 281 L296 234 Z M279 233 L281 233 L286 242 L285 250 L283 249 L282 241 L278 236 Z M209 233 L217 234 L217 281 L216 282 L213 282 L208 278 L208 234 Z M367 233 L368 232 L383 232 L384 234 L383 235 L368 235 Z M129 233 L130 232 L145 232 L146 234 L145 235 L130 235 Z M341 231 L343 230 L348 234 L352 234 L353 236 L347 237 L343 235 Z M327 229 L332 228 L333 230 L328 231 Z M333 228 L338 227 L339 229 L334 230 Z M158 234 L160 227 L163 228 L161 231 L161 233 L163 234 L168 232 L171 227 L176 228 L170 235 L166 237 L161 237 Z M369 227 L370 226 L382 226 L383 228 L382 229 L370 229 Z M130 227 L131 226 L143 226 L144 228 L143 229 L131 229 Z M352 225 L354 226 L355 231 L354 235 L352 234 L351 230 Z M269 225 L272 224 L277 229 L276 232 L273 231 L269 227 Z M311 223 L312 222 L325 222 L326 224 L314 226 Z M186 223 L187 222 L198 222 L199 224 L198 225 L187 225 Z M178 223 L181 222 L182 224 L179 225 Z M275 222 L280 221 L281 225 L278 226 Z M256 221 L277 239 L280 245 L280 254 L285 258 L284 308 L280 307 L281 302 L274 300 L274 294 L265 293 L270 284 L270 273 L257 247 L243 272 L243 284 L248 293 L239 294 L238 300 L232 302 L231 308 L228 307 L228 258 L233 255 L233 245 L236 239 Z M371 221 L380 220 L381 222 L372 223 Z M132 221 L141 220 L142 222 L133 223 Z M294 223 L295 218 L308 218 L309 219 L306 225 L296 225 Z M263 218 L266 219 L268 221 L268 224 L266 225 L262 221 Z M239 219 L238 223 L233 226 L232 223 L235 222 L236 218 Z M204 219 L205 218 L218 218 L219 223 L217 225 L207 225 Z M372 215 L379 214 L380 216 L373 217 Z M133 215 L140 214 L141 216 L134 217 Z M178 214 L177 222 L174 225 L172 225 L171 223 L173 216 L175 213 Z M257 210 L260 213 L261 217 L259 218 L256 216 L235 235 L230 245 L228 246 L227 242 L230 235 Z M218 210 L219 214 L215 215 L214 213 Z M281 208 L291 208 L292 209 L291 225 L292 226 L293 246 L291 250 L289 249 L289 240 L283 229 L284 220 L282 217 L282 211 L280 210 Z M274 209 L277 208 L278 210 L275 211 Z M261 209 L266 208 L273 215 L269 218 L265 215 Z M251 208 L252 210 L244 218 L240 215 L241 213 L244 212 L246 208 Z M232 209 L238 208 L239 210 L235 212 Z M229 208 L231 214 L229 219 L230 229 L224 241 L224 249 L222 250 L220 246 L222 226 L221 209 Z M135 207 L138 206 L139 210 L136 211 Z M272 201 L274 202 L273 205 L270 204 Z M239 202 L241 201 L243 204 L240 205 Z M261 200 L263 199 L264 201 L262 202 Z M290 197 L292 196 L300 205 L309 211 L312 210 L312 203 L314 202 L315 212 L311 215 L305 213 L291 201 Z M223 197 L222 201 L208 213 L202 215 L198 212 L199 206 L201 207 L201 210 L204 211 L213 205 L221 196 Z M264 188 L267 190 L266 195 L262 191 Z M249 188 L250 192 L249 195 L247 196 L246 190 Z M256 187 L261 193 L261 196 L259 199 L260 203 L259 205 L253 204 L254 199 L252 196 L252 193 Z M312 185 L326 185 L327 186 L330 210 L332 215 L331 220 L326 219 L314 220 L313 219 L318 214 L319 211 L318 206 L319 191 L318 189 L316 189 L316 193 L313 196 L311 194 Z M187 185 L201 185 L202 186 L201 196 L198 195 L197 189 L195 189 L194 191 L194 204 L195 205 L194 211 L195 214 L200 218 L199 220 L194 219 L182 220 L181 219 L184 204 L184 196 Z M293 181 L294 190 L291 193 L286 193 L284 189 L285 188 L290 189 L291 182 Z M214 180 L216 183 L217 195 L212 199 L211 198 L212 181 Z M330 179 L333 181 L334 184 L335 199 L337 203 L336 205 L338 207 L338 211 L342 223 L341 225 L337 224 L333 210 L329 183 Z M311 181 L314 179 L319 180 L318 183 L312 183 Z M194 180 L199 179 L202 182 L196 183 Z M186 180 L189 179 L190 181 L187 182 Z M183 179 L184 182 L180 209 L177 211 L175 207 L177 205 L176 203 L179 193 L179 184 L180 181 Z M323 179 L325 178 L326 181 L324 182 Z M299 177 L301 178 L301 190 L302 191 L301 199 L295 194 L297 191 L297 184 Z M279 173 L281 173 L285 178 L284 186 L282 185 L282 182 L278 176 Z M333 172 L336 174 L335 178 L331 176 Z M179 172 L182 175 L180 178 L176 176 Z M256 168 L258 169 L260 174 L259 178 L263 179 L263 184 L261 187 L259 186 L257 179 L253 186 L249 182 L251 178 L254 178 L253 173 Z M214 157 L234 158 L235 159 L233 165 L230 167 L224 179 L220 177 L217 169 L215 173 L213 172 L213 158 Z M276 156 L278 155 L280 158 L298 158 L300 161 L300 172 L298 173 L296 170 L293 177 L289 179 L283 168 L280 166 Z M303 153 L306 155 L307 165 L307 184 L309 202 L307 204 L305 203 L303 160 L302 159 Z M210 153 L211 157 L210 158 L208 203 L206 204 L205 203 L207 155 Z M290 153 L298 152 L299 154 L291 155 Z M225 153 L228 152 L229 154 L226 155 Z M214 153 L220 152 L221 154 L215 155 Z M207 147 L208 150 L205 152 L204 149 Z M256 145 L258 146 L270 168 L272 180 L274 182 L276 180 L278 181 L279 190 L285 197 L288 203 L287 205 L282 204 L282 201 L277 196 L275 191 L273 191 L272 193 L270 192 L269 186 L266 183 L265 176 L261 171 L257 158 L256 158 L252 171 L248 176 L247 182 L245 183 L243 193 L241 194 L240 192 L237 192 L236 196 L231 201 L231 204 L230 205 L225 204 L228 197 L234 190 L235 181 L237 180 L239 182 L241 180 L243 168 Z M270 144 L271 143 L285 143 L286 148 L279 149 L274 152 Z M227 148 L228 143 L242 143 L243 144 L239 152 L235 149 Z M257 123 L260 129 L259 136 L263 137 L265 141 L264 146 L268 147 L272 157 L274 158 L278 167 L278 173 L277 174 L274 173 L273 167 L269 159 L262 149 L258 139 L256 138 L251 149 L239 169 L239 176 L233 178 L231 182 L230 190 L227 193 L222 193 L219 190 L219 182 L220 181 L222 182 L222 187 L224 189 L227 186 L228 178 L232 173 L235 173 L236 164 L246 145 L249 146 L248 141 L251 136 L254 136 L253 129 L255 124 Z M260 120 L262 118 L274 118 L278 122 L278 130 L281 137 L267 139 L263 131 Z M239 118 L251 118 L253 120 L246 139 L232 137 L235 130 L235 122 Z M256 112 L258 113 L257 120 L254 117 Z M243 99 L246 97 L256 96 L265 97 L269 99 L270 101 L268 103 L261 103 L261 107 L272 107 L273 112 L271 115 L262 115 L259 111 L257 100 L256 100 L255 108 L252 114 L242 115 L240 112 L241 107 L243 106 L251 107 L252 106 L252 103 L244 103 Z M246 89 L247 88 L266 88 L267 92 L265 95 L248 95 L246 92 Z M249 80 L250 79 L255 80 L263 79 L264 84 L263 85 L250 85 Z M251 72 L261 71 L262 75 L252 76 Z M253 62 L259 61 L260 67 L254 68 Z M254 55 L258 54 L259 57 L255 58 Z M256 43 L258 44 L257 51 L255 50 Z M255 31 L257 30 L258 33 L256 34 Z"/></svg>
