<svg xmlns="http://www.w3.org/2000/svg" width="512" height="512" viewBox="0 0 512 512" aria-hidden="true" focusable="false"><path fill="currentColor" fill-rule="evenodd" clip-rule="evenodd" d="M256 17 L243 54 L206 103 L193 137 L182 129 L180 139 L164 158 L156 175 L156 197 L152 198 L150 188 L144 184 L122 231 L120 250 L125 264 L111 276 L116 343 L90 340 L86 344 L122 397 L105 405 L104 411 L148 441 L174 445 L169 466 L176 462 L210 463 L224 457 L229 469 L259 495 L263 486 L286 467 L289 457 L304 463 L337 462 L344 466 L339 445 L365 441 L398 415 L410 411 L408 405 L395 399 L394 393 L427 342 L397 343 L402 275 L394 273 L388 264 L393 251 L392 232 L369 184 L363 188 L362 199 L357 199 L358 177 L352 162 L334 140 L331 129 L320 137 L310 106 L272 55 Z M250 446 L264 446 L270 450 L271 455 L270 460 L257 471 L247 464 L243 458 L244 451 Z M229 457 L231 451 L236 446 L241 445 L242 447 L239 452 L239 459 L242 465 L256 477 L258 477 L263 471 L267 469 L273 463 L275 458 L275 453 L272 447 L273 445 L277 446 L284 454 L284 460 L282 465 L275 472 L266 478 L264 478 L260 483 L254 483 L250 479 L236 470 L232 466 Z M280 442 L282 441 L283 443 L281 444 Z M284 445 L286 441 L298 440 L304 438 L318 439 L327 443 L332 447 L338 457 L336 458 L334 456 L333 457 L327 456 L318 459 L305 459 L303 457 L296 456 L290 452 Z M175 457 L177 452 L185 444 L192 440 L200 438 L209 438 L233 442 L222 453 L208 459 L195 459 L186 456 L185 457 L179 456 L177 458 Z M319 434 L321 433 L322 435 L320 436 Z M191 434 L193 433 L194 435 L192 436 Z M400 407 L378 427 L363 437 L349 441 L334 441 L324 436 L325 430 L358 408 L375 403 L392 403 Z M113 407 L122 403 L137 403 L155 408 L169 416 L186 429 L189 437 L179 441 L164 441 L153 438 L140 431 Z M336 371 L342 384 L343 396 L340 408 L335 416 L327 424 L315 431 L287 436 L286 434 L293 421 L294 405 L301 391 L316 379 Z M230 374 L233 371 L237 375 L233 377 Z M178 371 L197 379 L213 392 L220 407 L220 420 L224 431 L227 433 L226 436 L213 435 L196 430 L185 423 L176 413 L170 392 L173 379 Z M256 364 L281 388 L289 406 L289 419 L284 430 L275 438 L263 442 L250 442 L237 437 L230 431 L224 418 L224 407 L229 393 Z M333 363 L333 366 L331 368 L318 373 L303 382 L295 391 L292 397 L290 396 L288 390 L282 382 L284 379 L294 372 L309 365 L327 360 Z M183 361 L186 360 L204 365 L221 373 L228 378 L231 382 L227 387 L222 397 L220 396 L216 388 L209 381 L195 373 L184 369 L181 366 Z M365 357 L366 368 L362 389 L353 404 L345 410 L344 408 L347 400 L347 386 L341 370 L337 364 L337 361 L339 358 Z M148 357 L165 357 L174 358 L176 360 L176 364 L168 380 L166 389 L167 403 L164 406 L158 401 L154 395 L149 382 L148 361 L147 360 Z M186 354 L191 353 L212 360 L226 367 L228 371 L226 372 L225 370 L214 364 L197 358 L187 356 Z M287 353 L289 352 L290 354 L288 355 Z M382 352 L384 351 L385 353 L383 354 Z M174 352 L180 351 L183 352 L184 354 L179 355 L175 354 Z M127 352 L129 351 L130 353 L128 354 Z M290 351 L292 350 L293 352 L291 353 Z M220 351 L222 350 L223 352 L221 353 Z M380 351 L379 354 L340 353 L333 355 L327 355 L307 361 L302 364 L299 364 L288 370 L287 372 L285 372 L282 376 L280 377 L277 376 L277 374 L280 371 L282 371 L289 366 L306 358 L322 353 L349 349 L369 349 Z M132 353 L133 350 L142 349 L163 349 L172 351 L171 353 L138 353 L137 354 Z M416 345 L417 347 L408 361 L403 374 L393 389 L381 399 L373 399 L362 402 L361 399 L365 394 L369 377 L373 370 L382 361 L397 350 L409 345 Z M96 346 L104 345 L110 347 L131 361 L143 374 L146 387 L151 398 L147 400 L134 399 L124 393 L113 379 L102 355 Z M391 342 L392 347 L388 351 L387 346 L388 343 Z M374 343 L373 345 L337 346 L321 349 L307 354 L304 353 L307 350 L321 345 L339 341 L347 341 L351 339 L370 339 Z M383 334 L384 335 L383 345 L375 346 L374 343 L380 339 L380 335 Z M129 334 L132 333 L133 339 L138 343 L142 339 L161 339 L165 341 L173 341 L195 346 L206 350 L209 353 L206 354 L188 348 L166 345 L131 346 L129 344 Z M223 311 L227 300 L238 290 L246 287 L267 287 L279 292 L285 298 L291 314 L274 318 L256 330 L242 319 L224 315 Z M396 278 L397 286 L394 309 L393 337 L389 339 L388 338 L388 324 L389 323 L392 279 Z M117 278 L121 279 L124 324 L125 325 L125 343 L126 344 L125 351 L121 347 L119 308 L116 286 Z M388 270 L389 276 L386 297 L384 331 L381 332 L380 323 L381 322 L381 306 L382 305 L384 274 L385 271 Z M125 270 L127 270 L129 273 L131 306 L132 307 L132 324 L133 325 L132 328 L129 327 L128 323 L128 307 L124 276 Z M381 261 L382 263 L378 292 L376 335 L375 336 L348 336 L334 338 L308 345 L294 351 L293 350 L294 348 L326 334 L352 329 L371 329 L372 328 L376 262 Z M133 261 L137 262 L138 267 L141 328 L142 329 L167 330 L190 335 L218 348 L217 350 L192 341 L179 338 L164 336 L138 336 L137 335 L135 292 L132 271 Z M373 248 L368 324 L315 333 L288 347 L266 366 L259 359 L259 335 L271 324 L295 319 L291 299 L271 282 L284 270 L310 256 L346 248 Z M140 248 L167 248 L197 254 L238 277 L242 283 L222 300 L218 321 L240 323 L253 333 L254 359 L247 366 L228 349 L200 334 L145 324 Z M249 247 L257 245 L258 248 L260 248 L262 246 L266 248 L275 258 L276 268 L274 270 L274 273 L269 279 L264 282 L254 283 L248 281 L241 275 L239 271 L238 260 L242 253 Z M327 230 L329 229 L330 231 L328 232 Z M210 247 L220 243 L220 237 L215 232 L216 229 L221 230 L223 239 L228 238 L230 231 L236 230 L284 231 L289 240 L291 240 L292 237 L294 238 L294 243 L296 245 L300 245 L302 243 L304 244 L301 255 L283 266 L280 265 L280 258 L273 247 L262 241 L252 241 L242 246 L237 252 L232 266 L212 255 L213 251 Z M175 223 L178 224 L179 231 L182 237 L181 242 L185 243 L184 246 L171 245 L169 243 L173 235 Z M294 222 L298 225 L299 232 L297 235 L290 234 L294 229 L293 224 Z M236 223 L237 222 L276 222 L277 226 L276 227 L237 227 Z M220 221 L221 225 L218 227 L217 224 Z M239 214 L240 213 L272 213 L273 216 L270 219 L243 219 Z M332 208 L333 209 L333 220 L331 228 L329 229 L328 228 L329 209 Z M240 206 L241 205 L273 205 L274 208 L273 209 L242 209 Z M156 203 L158 202 L159 204 L157 205 Z M367 199 L370 199 L376 208 L376 221 L373 226 L368 230 L362 230 L360 228 L360 225 L364 224 L365 221 L359 220 L356 223 L356 230 L363 236 L365 236 L366 234 L374 232 L382 223 L387 231 L389 239 L389 248 L385 257 L377 256 L378 244 L353 243 L346 236 L344 231 L344 223 L346 217 L352 211 L362 207 Z M184 196 L187 197 L184 213 L186 227 L185 231 L183 230 L181 222 L181 204 Z M146 196 L148 203 L153 208 L161 211 L167 217 L169 221 L169 232 L167 237 L160 243 L136 244 L136 256 L128 257 L126 255 L124 241 L125 234 L132 223 L137 230 L143 234 L148 235 L155 233 L158 228 L158 224 L155 220 L149 220 L147 223 L148 225 L154 225 L151 230 L146 230 L142 228 L137 220 L136 213 L138 206 Z M326 193 L328 193 L332 201 L331 206 L328 205 L328 202 L325 196 Z M193 190 L190 194 L186 193 L189 188 Z M322 186 L326 189 L324 193 L320 190 Z M197 183 L198 186 L194 189 L192 185 Z M312 184 L314 182 L317 182 L320 185 L316 187 L313 186 Z M304 167 L306 168 L306 181 L308 183 L307 185 L302 184 Z M210 167 L211 168 L211 184 L202 185 L201 184 L202 181 L205 182 L208 181 L208 168 Z M253 163 L256 165 L260 163 L262 164 L261 170 L266 176 L267 189 L270 197 L273 199 L272 201 L242 201 L241 200 L246 194 L247 180 L249 174 L253 170 L252 167 Z M256 155 L259 154 L260 158 L257 159 Z M298 150 L301 151 L305 160 L304 165 L301 162 L301 159 L297 152 Z M217 148 L218 151 L214 157 L213 162 L210 163 L209 162 L210 157 L213 151 Z M255 146 L258 145 L259 148 L256 149 Z M289 140 L292 141 L293 145 L292 147 L287 145 Z M257 135 L259 136 L258 141 L255 139 Z M222 132 L225 133 L225 140 L227 144 L224 147 L222 146 L223 144 L221 138 Z M290 129 L294 130 L292 137 L289 136 Z M223 122 L226 123 L224 129 L221 128 L221 124 Z M228 111 L230 114 L228 118 L225 119 L224 116 L226 112 Z M256 89 L283 121 L285 139 L281 149 L289 151 L297 161 L297 192 L311 189 L323 201 L324 228 L312 251 L308 248 L297 211 L288 222 L281 218 L266 169 L258 103 L255 104 L248 170 L233 218 L226 221 L217 211 L206 241 L206 252 L198 247 L191 233 L191 200 L203 189 L217 192 L218 159 L225 151 L233 149 L229 139 L231 121 Z M248 87 L250 91 L233 110 L230 110 L229 109 L230 106 Z M257 72 L259 73 L267 87 L287 110 L292 120 L291 125 L288 124 L287 118 L285 117 L280 107 L264 91 L258 79 L255 80 L253 86 L249 85 L254 75 Z M256 37 L307 110 L316 133 L314 165 L317 171 L328 174 L333 169 L329 162 L321 169 L318 162 L324 160 L323 147 L329 139 L347 162 L353 176 L351 203 L340 221 L343 244 L332 246 L330 242 L337 221 L334 194 L324 181 L310 177 L307 153 L297 141 L295 116 L265 76 L258 59 L246 81 L224 107 L217 123 L218 141 L205 158 L204 176 L193 179 L183 188 L177 203 L176 220 L172 219 L163 204 L160 179 L165 165 L186 139 L191 150 L189 160 L194 159 L195 166 L188 170 L185 167 L189 163 L185 162 L181 170 L185 174 L198 173 L201 162 L197 148 L199 128 L208 108 L242 64 Z"/></svg>
