<svg xmlns="http://www.w3.org/2000/svg" width="512" height="512" viewBox="0 0 512 512" aria-hidden="true" focusable="false"><path fill="currentColor" fill-rule="evenodd" clip-rule="evenodd" d="M317 372 L316 378 L312 380 L311 383 L313 383 L317 387 L317 391 L320 392 L321 387 L327 381 L321 377 L320 371 Z M317 381 L319 380 L321 383 L318 384 Z M167 363 L166 363 L165 369 L169 367 Z M168 356 L167 360 L171 361 L170 356 Z M178 343 L178 346 L181 345 L181 343 Z M199 333 L193 333 L189 338 L191 339 L193 337 L196 337 L197 335 L199 335 Z M207 331 L204 330 L202 333 Z M210 328 L210 330 L214 330 L214 327 Z M304 325 L302 330 L299 331 L299 333 L303 336 L304 340 L306 341 L311 331 L309 331 L306 328 L306 325 Z M224 321 L223 322 L224 326 L228 326 L229 322 Z M248 313 L243 315 L243 317 L247 316 Z M256 300 L254 300 L251 303 L253 308 L250 310 L250 312 L253 311 Z M279 298 L273 298 L243 335 L203 349 L174 403 L164 405 L151 393 L148 427 L157 436 L160 460 L180 476 L202 479 L200 485 L209 490 L223 491 L246 483 L257 495 L271 482 L284 490 L300 491 L311 485 L310 479 L336 470 L351 450 L353 393 L339 405 L339 416 L332 416 L318 430 L322 446 L331 446 L336 440 L332 456 L317 468 L312 460 L307 461 L304 470 L310 470 L296 482 L284 484 L274 479 L300 460 L294 456 L297 446 L285 447 L283 433 L269 438 L257 419 L244 435 L229 433 L227 447 L215 446 L217 456 L212 460 L237 481 L223 485 L203 472 L203 468 L208 469 L203 460 L193 468 L179 458 L199 435 L232 417 L258 388 L275 357 L274 350 L260 351 L258 347 L282 313 Z M307 481 L307 484 L305 486 L302 487 L297 486 L305 480 Z M205 481 L207 480 L212 484 L214 484 L215 486 L214 487 L207 486 L205 484 Z M253 475 L259 475 L261 477 L261 483 L256 488 L251 483 L251 477 Z M311 474 L313 473 L314 475 L312 476 Z M315 473 L317 472 L318 474 L316 475 Z M268 469 L271 470 L270 476 L266 475 L266 471 Z M236 472 L240 469 L244 469 L246 471 L246 475 L240 476 Z M329 469 L328 471 L321 474 L319 473 L321 469 L326 467 Z M178 467 L180 466 L189 471 L194 472 L195 474 L191 475 L181 472 L178 470 Z M171 462 L173 461 L175 465 L172 466 Z M265 453 L268 452 L269 455 L266 457 Z M171 453 L173 452 L174 455 L172 456 Z M255 451 L257 451 L262 458 L262 465 L257 471 L255 471 L252 468 L253 464 L250 463 L250 457 Z M290 450 L291 453 L288 460 L283 465 L276 467 L275 465 L281 459 L283 453 L287 450 Z M221 449 L229 453 L231 459 L236 464 L235 467 L229 465 L224 460 L222 453 L220 451 Z M183 441 L185 442 L184 447 L182 446 Z M233 438 L236 438 L241 443 L240 446 L240 455 L242 461 L241 463 L236 460 L232 452 L232 439 Z M279 437 L280 438 L279 455 L275 459 L275 461 L271 463 L270 462 L272 456 L271 443 L273 440 Z M188 428 L192 432 L192 442 L191 443 L189 442 L187 431 Z M167 428 L169 428 L170 430 L166 438 L170 436 L174 436 L178 440 L177 447 L175 448 L172 447 L174 445 L173 441 L168 442 L166 446 L165 455 L169 457 L168 461 L165 460 L164 457 L162 456 L159 446 L160 439 L162 435 L165 433 Z M256 426 L265 437 L267 441 L268 449 L262 451 L257 443 L255 443 L247 454 L247 456 L245 457 L243 454 L245 441 L248 435 Z M175 424 L177 425 L180 432 L179 435 L174 432 Z M152 420 L155 419 L156 417 L158 417 L159 420 L165 417 L168 420 L169 424 L166 426 L163 423 L159 423 L157 425 L158 430 L155 431 L152 427 Z M181 416 L188 424 L187 426 L180 419 Z M170 409 L173 408 L176 411 L172 412 Z M155 408 L159 409 L158 415 L154 414 Z M346 404 L347 410 L350 414 L350 418 L348 424 L344 427 L343 432 L349 430 L350 437 L348 439 L348 444 L344 455 L337 464 L333 466 L331 463 L339 452 L340 448 L339 438 L335 434 L332 433 L328 434 L326 438 L322 440 L321 434 L324 428 L329 424 L331 424 L335 428 L337 425 L337 422 L344 415 L344 413 L342 412 L342 408 Z M267 356 L269 355 L270 357 L268 358 Z M224 344 L225 346 L219 352 L217 352 L216 350 L221 345 Z M275 311 L272 322 L245 360 L237 385 L263 356 L265 366 L256 383 L230 413 L196 432 L187 415 L177 405 L199 360 L206 352 L208 356 L213 352 L220 355 L237 341 L229 356 L231 358 L252 330 L269 312 Z M193 297 L191 297 L190 301 L187 304 L185 304 L185 306 L190 311 L191 315 L193 314 L195 308 L198 306 L198 304 L194 302 Z M190 305 L192 304 L193 306 L191 307 Z M255 272 L254 277 L250 280 L250 282 L253 284 L252 288 L257 289 L258 284 L262 282 L262 280 L258 277 L257 272 Z M313 246 L312 248 L317 253 L316 260 L318 261 L318 264 L308 272 L284 281 L281 285 L281 289 L289 296 L309 306 L318 316 L321 328 L313 344 L290 364 L274 381 L270 392 L271 404 L275 412 L285 422 L303 434 L309 440 L311 445 L313 445 L310 438 L277 409 L273 394 L280 379 L293 365 L313 349 L323 333 L323 320 L319 313 L309 303 L293 294 L294 292 L297 292 L320 306 L330 323 L330 331 L326 343 L322 349 L296 374 L287 389 L288 403 L291 408 L313 424 L317 424 L317 422 L301 413 L292 403 L290 397 L291 388 L295 381 L324 352 L331 341 L333 333 L332 318 L327 309 L317 300 L297 289 L299 285 L312 280 L327 269 L327 256 Z M292 281 L294 285 L294 289 L289 293 L288 291 L284 289 L284 286 L287 283 Z M310 275 L307 279 L304 279 L298 282 L295 281 L296 279 L307 274 Z M318 269 L319 272 L314 274 L313 272 Z M324 259 L325 265 L321 269 L320 268 L321 261 Z M352 173 L349 172 L337 177 L322 181 L322 183 L342 178 Z M161 173 L179 180 L190 183 L192 182 L187 179 L175 176 L166 172 Z M339 165 L329 168 L323 171 L323 173 L339 167 Z M174 165 L175 167 L189 172 L189 170 L183 167 Z M356 144 L355 143 L352 144 L351 146 L343 149 L319 164 L321 165 L327 162 L330 159 L352 148 Z M180 143 L181 146 L180 150 L186 149 L186 147 Z M157 144 L170 153 L183 159 L184 164 L186 164 L187 162 L190 163 L190 161 L187 158 L162 146 L159 143 Z M375 139 L363 154 L365 166 L361 167 L356 183 L351 182 L343 200 L346 214 L353 219 L362 219 L367 216 L369 208 L373 209 L371 215 L374 220 L370 231 L354 239 L348 229 L337 223 L338 237 L347 248 L340 271 L342 289 L332 292 L340 306 L352 314 L358 325 L360 350 L355 364 L363 350 L361 322 L373 317 L376 312 L374 297 L356 308 L357 290 L367 280 L357 279 L353 275 L355 266 L366 253 L379 252 L382 255 L379 261 L371 258 L368 266 L375 274 L385 274 L393 268 L400 254 L403 217 L397 221 L391 219 L392 200 L388 183 L382 187 L378 184 L382 164 L374 153 Z M361 315 L363 316 L362 320 L360 319 Z M365 306 L366 311 L363 314 L361 311 L362 308 Z M371 302 L373 303 L372 310 L369 308 L368 305 Z M345 300 L347 301 L346 306 L344 305 Z M348 294 L353 295 L352 303 L348 299 L347 296 Z M346 290 L348 289 L349 291 L347 292 Z M372 265 L375 264 L376 266 L373 267 Z M344 235 L347 234 L350 240 L348 241 L343 238 Z M396 226 L397 235 L393 240 L391 240 L390 244 L395 243 L397 244 L397 251 L393 262 L384 270 L380 269 L380 266 L382 264 L387 263 L386 254 L384 251 L385 249 L384 242 L379 242 L379 245 L377 247 L373 246 L367 248 L355 258 L350 271 L350 279 L348 280 L349 286 L346 287 L344 284 L345 264 L348 256 L354 248 L363 240 L369 237 L371 238 L371 241 L373 241 L375 235 L378 232 Z M389 221 L391 220 L392 223 L390 224 Z M377 215 L379 214 L380 216 L378 217 Z M356 215 L358 212 L363 213 L361 216 Z M361 203 L362 205 L359 207 L358 205 Z M369 153 L371 154 L377 164 L375 168 L378 169 L378 172 L374 179 L374 185 L380 193 L380 196 L385 193 L388 199 L389 209 L386 220 L382 219 L382 208 L379 202 L371 192 L371 186 L368 187 L370 196 L375 201 L379 209 L376 210 L374 205 L369 200 L363 198 L358 199 L356 201 L355 211 L353 214 L348 210 L347 201 L348 200 L353 201 L351 198 L351 192 L355 191 L356 195 L358 195 L359 193 L361 194 L364 193 L360 185 L360 180 L363 175 L367 177 L370 171 L370 167 L367 161 L367 157 Z M137 139 L138 153 L130 164 L134 185 L130 187 L124 183 L120 200 L121 219 L118 222 L110 216 L112 226 L112 254 L122 271 L127 274 L142 271 L144 265 L141 258 L133 262 L130 260 L133 252 L146 253 L157 266 L159 279 L145 280 L155 290 L156 303 L151 305 L140 297 L136 302 L139 317 L147 320 L152 317 L148 335 L151 350 L157 318 L172 306 L180 291 L173 292 L170 289 L172 272 L166 253 L166 244 L171 244 L174 238 L175 223 L163 230 L158 242 L146 235 L139 223 L140 212 L149 219 L159 219 L166 214 L169 199 L161 182 L156 182 L152 167 L147 166 L149 154 Z M147 311 L150 310 L151 313 L148 314 Z M153 307 L155 306 L156 308 L154 309 Z M139 309 L140 305 L144 304 L147 306 L144 310 Z M165 289 L166 293 L162 303 L160 304 L159 303 L159 291 Z M170 231 L171 236 L167 239 L164 235 L168 231 Z M116 226 L126 230 L127 233 L129 233 L130 231 L134 232 L137 235 L139 241 L145 241 L147 239 L158 248 L166 261 L168 269 L168 278 L165 279 L164 282 L162 281 L162 270 L157 258 L150 251 L142 247 L141 244 L135 247 L130 243 L128 243 L128 247 L126 249 L127 251 L126 260 L128 263 L134 267 L133 270 L126 269 L119 262 L115 251 L115 244 L116 243 L122 244 L121 240 L119 240 L115 235 Z M133 215 L135 216 L136 220 L135 222 L132 219 Z M149 213 L151 212 L152 214 L150 215 Z M151 203 L154 204 L153 209 L150 208 Z M145 203 L146 207 L144 210 L142 210 L141 206 Z M143 153 L145 156 L145 161 L142 167 L142 171 L145 177 L149 175 L152 180 L152 185 L148 191 L148 194 L156 192 L159 189 L162 193 L162 197 L159 201 L164 200 L165 206 L164 210 L159 215 L156 214 L157 203 L154 199 L148 198 L143 200 L138 205 L136 211 L134 212 L133 208 L137 201 L142 196 L143 190 L145 189 L145 187 L140 187 L141 192 L130 207 L130 221 L127 222 L125 219 L123 210 L124 200 L126 193 L128 192 L130 196 L132 196 L133 192 L138 185 L138 179 L133 170 L136 162 L141 156 L141 154 Z M194 126 L194 128 L198 132 L199 130 Z M325 121 L323 121 L314 131 L315 132 L325 123 Z M352 115 L350 114 L320 140 L322 141 L329 136 L334 130 L342 125 Z M160 114 L164 119 L174 126 L179 132 L181 132 L186 138 L193 141 L187 134 L162 113 Z M308 95 L300 106 L298 112 L300 112 L306 100 L308 99 L309 97 Z M205 95 L204 96 L213 112 L215 112 L213 106 Z M179 89 L182 95 L199 116 L203 119 L198 109 L190 101 L190 99 L181 89 Z M335 88 L331 90 L322 103 L317 107 L317 109 L314 111 L314 113 L308 120 L308 122 L312 120 L312 118 L326 102 L335 90 Z M307 66 L304 69 L298 81 L295 91 L288 104 L289 106 L298 91 L298 88 L304 77 L306 70 L308 69 Z M205 64 L204 66 L208 72 L210 79 L215 88 L215 91 L218 97 L220 98 L223 106 L225 106 L222 97 L215 84 L215 81 L208 67 Z M257 17 L243 37 L239 52 L232 53 L239 73 L248 75 L244 67 L254 77 L240 88 L243 109 L210 157 L204 191 L203 246 L195 247 L184 259 L188 273 L232 293 L242 305 L233 312 L182 328 L159 344 L153 371 L164 388 L156 370 L162 346 L179 333 L238 313 L252 293 L239 286 L232 290 L229 287 L233 284 L200 270 L194 264 L199 249 L215 261 L242 266 L294 262 L308 249 L308 190 L302 157 L285 134 L282 122 L269 109 L272 88 L258 77 L268 67 L272 69 L265 75 L273 73 L280 62 L280 51 L273 52 Z M238 292 L243 290 L244 295 L242 296 Z M187 260 L188 259 L190 260 L192 263 L192 266 L198 272 L214 280 L222 282 L223 285 L221 286 L210 281 L207 281 L203 279 L202 277 L195 274 L188 267 Z M230 257 L231 256 L242 256 L243 257 L273 256 L274 259 L266 261 L245 261 L244 260 L232 260 Z M282 255 L283 258 L278 260 L277 257 Z M215 252 L217 251 L219 253 L224 254 L226 257 L225 258 L217 257 L215 255 Z M274 251 L276 250 L277 252 L275 253 Z M235 251 L237 250 L238 252 L236 253 Z M282 251 L284 248 L289 249 L288 251 L284 252 Z M218 247 L220 246 L227 248 L229 251 L227 252 L220 250 Z M246 244 L252 243 L253 246 L247 247 Z M211 243 L213 244 L214 248 L212 252 L210 251 L209 248 Z M303 242 L304 245 L301 252 L295 257 L288 258 L287 255 L294 252 L298 248 L299 244 Z M286 242 L286 244 L282 246 L275 247 L260 247 L259 246 L260 243 L270 243 L279 241 Z M229 242 L230 241 L240 242 L242 246 L241 247 L230 246 Z M267 238 L270 237 L271 239 L268 240 Z M273 237 L277 236 L278 238 L274 239 Z M241 238 L244 236 L246 237 L245 240 L242 240 Z M233 237 L238 236 L239 238 L234 239 Z M255 235 L259 237 L257 240 L253 238 Z M253 232 L258 231 L259 233 L254 234 Z M240 232 L242 231 L243 233 L241 234 Z M280 228 L281 230 L277 232 L276 230 Z M273 228 L274 231 L270 234 L269 232 Z M261 229 L266 228 L267 232 L265 234 L262 234 Z M245 229 L246 228 L249 229 L250 232 L247 234 L245 232 Z M231 229 L234 228 L235 230 L232 231 Z M295 225 L297 226 L297 239 L296 240 L294 239 L294 226 Z M216 222 L218 223 L218 241 L217 242 L215 241 L215 223 Z M258 219 L260 218 L261 220 L259 221 Z M246 223 L247 218 L252 218 L257 220 L254 223 L249 224 Z M280 220 L280 222 L277 225 L268 226 L259 225 L260 223 L271 220 L274 217 L277 217 Z M235 217 L237 218 L237 221 L240 222 L239 225 L235 225 L232 222 L232 220 Z M270 209 L271 211 L266 214 L265 212 L268 209 Z M293 202 L296 203 L295 210 L292 207 Z M269 201 L271 202 L270 206 L268 205 Z M219 199 L220 207 L217 210 L216 201 Z M290 175 L294 179 L295 189 L294 197 L291 195 L291 186 L289 179 Z M259 171 L263 179 L259 182 L258 186 L260 189 L264 189 L265 191 L268 192 L267 195 L265 196 L266 208 L262 212 L251 214 L250 213 L251 208 L250 202 L247 196 L245 196 L243 211 L241 212 L240 205 L242 194 L244 191 L247 191 L248 189 L251 189 L254 186 L253 182 L249 179 L251 176 L251 173 L253 171 Z M224 168 L226 172 L222 179 L221 194 L218 196 L217 188 L219 172 L222 168 Z M228 151 L231 156 L227 160 L226 165 L223 166 L222 162 L226 152 Z M289 145 L293 147 L296 153 L301 175 L301 184 L303 194 L303 212 L304 213 L304 239 L303 240 L300 239 L300 215 L299 214 L297 176 L294 161 L287 148 Z M273 142 L278 147 L281 148 L282 152 L285 152 L287 154 L292 171 L291 173 L286 172 L287 167 L284 159 L279 154 L272 152 Z M239 141 L240 142 L239 146 L240 152 L234 153 L232 151 L232 148 Z M279 139 L280 138 L284 139 L285 144 L283 145 L280 143 Z M233 134 L235 139 L232 143 L224 149 L217 165 L213 196 L212 235 L209 236 L208 235 L209 194 L214 159 L219 147 L226 140 L229 139 L231 135 Z M272 129 L275 128 L278 130 L277 136 L271 131 Z M242 129 L239 133 L234 132 L234 130 L238 127 Z M253 126 L255 127 L253 132 L257 133 L258 126 L267 132 L261 136 L262 138 L268 138 L269 135 L272 137 L269 140 L269 147 L263 142 L261 143 L268 152 L268 158 L278 156 L284 165 L283 173 L288 184 L290 226 L288 227 L288 231 L292 234 L290 241 L283 233 L285 224 L282 217 L275 213 L274 194 L265 185 L267 175 L260 163 L257 151 L255 151 L253 162 L245 175 L247 185 L238 194 L237 212 L226 222 L229 233 L225 237 L220 234 L222 230 L224 184 L229 173 L229 162 L234 156 L236 158 L244 157 L247 146 L242 146 L243 140 L240 138 Z M254 125 L257 124 L258 126 L255 127 Z M247 121 L249 124 L244 128 L243 123 Z M263 121 L265 120 L271 126 L267 128 L264 125 Z M240 117 L242 116 L243 118 L241 119 Z M268 116 L270 115 L272 118 L270 119 Z M250 118 L254 114 L257 114 L263 120 L261 122 L257 120 L252 122 Z M263 112 L265 111 L268 115 L266 116 Z M248 111 L249 113 L245 116 L244 114 Z M253 104 L257 102 L259 106 L254 107 Z M250 92 L253 89 L255 89 L257 93 L262 94 L262 98 L261 99 L259 98 L251 99 Z M261 85 L264 84 L267 89 L265 90 Z M250 84 L251 86 L246 90 L245 87 L248 84 Z M275 57 L276 58 L275 65 L273 66 L270 64 L270 61 Z M255 56 L257 56 L261 62 L261 66 L258 71 L255 71 L251 66 L252 59 Z M259 32 L264 44 L266 44 L269 48 L270 61 L266 63 L265 60 L260 55 L257 47 L255 47 L249 59 L244 60 L242 64 L239 65 L237 63 L237 60 L242 58 L242 51 L244 46 L252 41 L251 36 L253 32 Z"/></svg>
