<svg xmlns="http://www.w3.org/2000/svg" width="512" height="512" viewBox="0 0 512 512" aria-hidden="true" focusable="false"><path fill="currentColor" fill-rule="evenodd" clip-rule="evenodd" d="M241 413 L238 420 L238 429 L241 436 L244 437 L240 428 L240 422 L243 413 Z M210 409 L208 409 L207 416 L209 416 Z M338 408 L336 408 L335 416 L331 422 L332 424 L334 423 L338 414 Z M263 403 L262 405 L266 407 L266 405 Z M252 403 L250 402 L247 405 L247 407 L249 407 Z M257 394 L254 399 L257 396 Z M291 382 L284 386 L278 388 L272 388 L273 390 L283 389 L289 386 Z M223 359 L209 367 L203 369 L192 368 L192 370 L197 372 L209 370 L218 365 L223 361 Z M293 349 L289 352 L283 360 L285 360 L293 351 Z M230 325 L226 326 L225 328 Z M289 308 L288 308 L284 325 L280 333 L278 341 L280 341 L284 331 Z M357 296 L355 297 L352 310 L339 332 L336 335 L335 339 L337 339 L347 323 L355 306 Z M253 293 L251 293 L233 308 L210 323 L211 324 L233 311 L247 300 Z M333 288 L331 288 L323 316 L321 318 L318 329 L304 356 L305 358 L315 342 L320 326 L322 324 Z M198 263 L198 264 L203 265 L220 273 L236 275 L236 273 L223 271 L202 262 Z M234 254 L240 271 L242 271 L241 265 L238 261 L236 254 Z M249 231 L250 237 L252 236 L260 237 L260 234 L262 233 L262 231 L260 232 Z M234 229 L235 232 L237 232 L236 229 L237 227 L257 229 L272 227 L270 224 L269 225 L262 224 L260 226 L255 227 L254 224 L252 226 L248 224 L246 225 L240 224 L238 226 L235 226 Z M268 198 L268 200 L270 201 L276 201 L276 199 Z M244 197 L239 199 L234 199 L234 201 L240 201 L244 199 Z M264 192 L267 194 L279 193 L284 196 L286 195 L286 191 L281 192 L276 189 L268 189 Z M261 188 L259 189 L259 198 L262 196 Z M252 190 L251 188 L249 188 L250 191 L247 193 L242 189 L235 189 L230 192 L226 192 L225 196 L231 193 L248 194 L250 199 L252 199 Z M283 182 L280 179 L275 178 L263 182 L262 185 L266 184 L278 186 L279 183 L282 184 Z M246 169 L246 171 L251 172 L262 171 L262 169 L260 170 Z M267 168 L267 170 L273 170 L273 168 Z M236 168 L236 170 L243 170 L243 168 Z M284 165 L284 170 L285 170 L286 166 Z M253 164 L253 166 L257 166 L257 164 Z M260 164 L264 165 L264 163 Z M258 45 L257 45 L257 49 L251 63 L253 62 L257 55 L259 56 L261 62 L263 62 L263 59 L258 50 Z M258 16 L241 56 L241 67 L237 70 L233 61 L216 85 L209 89 L205 84 L193 104 L174 120 L171 133 L163 132 L156 163 L148 159 L140 202 L143 213 L153 220 L154 230 L148 242 L143 228 L128 212 L118 252 L122 269 L114 267 L117 287 L127 297 L126 308 L109 297 L112 329 L122 342 L115 344 L120 363 L101 359 L109 369 L115 395 L126 409 L115 415 L141 435 L156 439 L151 448 L183 454 L190 463 L200 463 L213 474 L225 467 L222 459 L213 457 L223 455 L231 463 L227 477 L245 483 L256 497 L268 483 L287 477 L282 465 L290 455 L300 458 L291 459 L289 469 L301 474 L314 463 L323 463 L330 454 L362 448 L357 439 L372 435 L398 415 L387 409 L396 399 L405 367 L412 360 L393 363 L400 343 L392 342 L401 330 L404 297 L387 309 L387 296 L396 288 L399 267 L390 270 L396 255 L393 241 L389 241 L385 211 L371 227 L366 241 L360 232 L360 221 L369 215 L373 202 L366 159 L359 162 L351 131 L343 134 L341 121 L322 106 L310 84 L304 90 L281 61 L278 69 L274 67 L274 56 Z M249 479 L251 478 L257 484 L263 478 L264 484 L256 491 L250 485 Z M281 474 L278 478 L274 480 L269 480 L264 477 L265 475 L270 476 L274 475 L273 471 L275 469 L277 469 Z M232 474 L236 469 L238 469 L240 471 L240 475 L248 475 L249 477 L245 480 L239 480 L234 477 Z M273 464 L272 469 L268 472 L264 472 L257 480 L250 473 L245 472 L241 467 L241 463 L245 462 L246 466 L250 470 L258 474 L261 470 L267 467 L269 461 L271 461 Z M256 461 L259 463 L258 470 L254 469 L254 464 Z M327 453 L327 456 L323 460 L320 461 L310 460 L308 467 L304 470 L298 471 L291 468 L290 464 L292 462 L296 461 L297 465 L300 465 L304 461 L304 457 L301 453 L297 451 L298 449 L304 449 L313 456 L319 456 L319 454 L317 453 L318 448 L323 449 Z M184 453 L188 452 L192 448 L195 448 L197 450 L197 453 L194 454 L194 456 L197 457 L202 455 L207 450 L212 449 L213 453 L210 456 L210 462 L213 465 L216 465 L216 462 L220 461 L223 464 L223 467 L215 471 L209 470 L204 465 L203 460 L193 461 L189 459 L188 456 L185 455 Z M311 448 L313 447 L314 449 L312 450 Z M268 446 L270 447 L270 452 L272 452 L273 449 L277 450 L277 455 L275 457 L272 458 L268 457 L265 451 L265 449 Z M244 446 L248 448 L248 451 L246 454 L246 457 L241 458 L236 454 L236 451 L239 449 L241 452 L243 452 Z M256 445 L260 448 L265 456 L265 466 L264 467 L261 465 L257 455 L256 455 L256 458 L251 467 L249 466 L248 458 L250 453 Z M271 444 L276 443 L277 445 L272 446 Z M236 444 L241 443 L242 445 L237 446 Z M353 443 L351 446 L336 452 L331 451 L329 449 L330 446 L334 446 L334 444 L332 443 L320 443 L296 447 L295 451 L291 451 L284 455 L278 464 L274 462 L281 454 L280 448 L278 447 L279 444 L286 446 L323 434 L341 435 Z M160 443 L166 438 L173 435 L190 434 L221 444 L227 448 L235 444 L236 447 L233 449 L233 455 L238 460 L238 466 L236 467 L234 465 L233 460 L228 454 L222 451 L217 451 L216 447 L192 443 L182 443 L180 444 L180 446 L183 446 L184 449 L182 451 L177 452 L161 445 Z M388 415 L374 430 L365 435 L356 436 L355 434 L367 428 L352 433 L342 433 L337 431 L338 429 L340 429 L353 421 L370 414 L383 413 Z M126 415 L130 413 L144 414 L162 422 L173 429 L175 429 L176 431 L171 433 L162 433 L145 427 L148 430 L157 433 L158 435 L155 436 L146 434 L138 429 Z M389 397 L391 396 L392 399 L390 400 Z M303 393 L311 409 L312 413 L311 425 L308 430 L301 436 L300 434 L306 422 L306 414 L305 410 L303 410 L304 420 L300 431 L293 438 L289 440 L281 441 L279 438 L285 427 L285 417 L282 411 L282 408 L288 401 Z M210 393 L226 402 L230 407 L230 414 L228 416 L228 428 L234 438 L232 441 L223 440 L218 437 L211 429 L209 424 L209 419 L207 419 L207 425 L210 430 L209 432 L206 432 L201 424 L200 419 L201 410 Z M194 389 L204 388 L207 389 L206 394 L202 400 L200 399 L200 395 L197 395 L193 391 Z M338 386 L345 402 L345 410 L340 421 L333 428 L329 430 L324 429 L318 433 L311 434 L310 432 L314 426 L316 418 L313 406 L315 401 L323 393 Z M175 385 L192 394 L198 401 L199 407 L197 412 L197 422 L201 431 L200 433 L195 433 L190 430 L187 430 L186 427 L181 423 L177 412 L176 400 L175 413 L182 427 L180 428 L172 420 L169 414 L168 403 Z M257 384 L276 406 L280 413 L282 424 L279 433 L272 439 L271 436 L274 431 L275 421 L272 413 L270 413 L273 422 L270 435 L262 442 L259 442 L256 439 L253 443 L248 440 L241 440 L234 433 L231 419 L237 406 Z M337 380 L332 385 L320 391 L312 400 L309 399 L306 391 L309 387 L318 382 L327 379 Z M252 377 L254 380 L249 382 L248 380 Z M142 374 L145 374 L155 380 L164 389 L166 395 L165 400 L165 412 L167 416 L166 419 L164 419 L159 415 L151 401 L150 396 L148 397 L153 409 L155 410 L154 414 L149 412 L141 402 L138 389 Z M371 373 L375 387 L375 393 L372 402 L363 413 L358 415 L357 413 L365 398 L365 396 L363 396 L359 407 L354 413 L356 416 L351 417 L348 420 L346 420 L345 418 L348 412 L347 396 L350 388 L357 381 Z M323 375 L330 371 L344 369 L353 371 L357 373 L359 376 L353 380 L348 387 L344 390 L342 386 L343 377 L335 376 L324 377 Z M401 364 L402 367 L400 369 L398 384 L394 395 L392 396 L391 394 L394 388 L395 380 L393 380 L389 397 L386 400 L388 404 L387 405 L383 404 L382 408 L373 410 L372 408 L376 402 L378 391 L382 381 L393 369 Z M335 364 L336 367 L331 369 L330 367 Z M112 364 L119 368 L130 379 L135 390 L137 402 L141 408 L140 410 L137 410 L134 407 L130 408 L126 404 L127 400 L123 393 L121 384 L119 384 L119 388 L122 395 L121 396 L119 395 L116 388 L113 369 L111 366 Z M181 360 L184 361 L184 366 L182 367 L183 377 L182 381 L179 380 L177 375 L179 364 Z M134 360 L136 359 L137 361 L135 362 Z M389 358 L390 359 L389 368 L378 381 L376 379 L375 372 L379 365 L386 359 Z M124 358 L130 361 L138 371 L138 376 L135 381 L124 368 L123 361 Z M182 352 L184 351 L185 353 L183 354 Z M121 349 L124 348 L129 352 L129 346 L131 345 L135 356 L127 357 L124 355 Z M242 317 L244 316 L245 318 L243 319 Z M130 294 L132 295 L133 327 L137 342 L142 352 L141 358 L138 356 L135 348 L129 324 L124 326 L122 324 L123 320 L121 320 L119 323 L125 332 L130 336 L131 340 L130 345 L119 336 L115 328 L114 318 L115 309 L117 305 L120 307 L121 314 L124 313 L129 321 L129 295 Z M382 292 L384 293 L385 301 L384 320 L386 320 L386 317 L389 314 L393 314 L393 308 L396 304 L398 305 L399 324 L395 335 L385 343 L384 351 L389 348 L391 348 L392 350 L389 355 L384 358 L379 357 L378 354 L383 342 L383 337 L389 331 L389 329 L394 325 L394 322 L390 320 L391 322 L390 326 L387 326 L384 323 L381 339 L376 352 L374 353 L373 347 L377 339 L381 323 L382 313 L381 312 L382 302 L381 293 Z M380 289 L382 288 L383 291 L381 292 Z M133 285 L134 289 L133 293 L131 294 L130 290 L131 286 Z M379 285 L381 284 L382 287 L380 288 Z M378 282 L380 281 L381 283 L379 284 Z M127 281 L129 280 L130 282 L128 283 Z M354 278 L358 283 L361 294 L361 316 L366 320 L366 333 L364 338 L369 340 L369 351 L372 367 L363 374 L350 367 L339 367 L337 364 L348 359 L360 360 L357 358 L343 358 L329 365 L327 364 L333 355 L356 335 L355 333 L331 355 L329 354 L330 350 L328 348 Z M135 278 L136 281 L135 284 L133 285 L132 282 L133 279 Z M377 278 L379 277 L380 279 L378 280 Z M394 275 L393 287 L389 292 L386 293 L385 286 L389 283 L388 277 L391 274 Z M120 273 L125 277 L124 283 L128 286 L127 293 L120 286 L119 283 Z M375 273 L377 272 L378 274 L376 275 Z M136 271 L138 270 L139 272 L137 273 Z M280 264 L282 263 L283 265 L281 266 Z M262 260 L264 259 L265 261 L263 262 Z M136 259 L138 258 L139 260 L137 261 Z M374 258 L376 257 L378 261 L376 262 Z M278 254 L276 261 L252 283 L253 285 L267 274 L272 276 L258 299 L236 319 L237 321 L241 318 L241 322 L214 349 L202 356 L192 358 L187 346 L188 341 L206 340 L223 329 L200 339 L189 339 L186 331 L200 326 L198 324 L200 321 L223 305 L216 307 L190 327 L187 324 L189 317 L225 291 L251 276 Z M260 254 L259 259 L260 265 L251 271 L249 267 L251 265 L251 254 L255 252 Z M380 248 L383 247 L384 250 L382 251 Z M129 248 L131 247 L132 249 L130 250 Z M234 243 L241 254 L243 251 L249 253 L247 274 L190 312 L187 310 L186 298 L185 310 L181 311 L184 319 L183 337 L175 369 L169 367 L174 378 L168 390 L149 373 L148 368 L143 369 L160 280 L173 264 L225 243 L228 244 L225 257 L229 258 L231 244 Z M281 243 L276 251 L268 259 L262 257 L263 252 L267 251 L269 254 L272 248 L279 242 Z M156 239 L157 241 L154 247 L145 260 L142 267 L140 268 L139 267 L140 263 L150 246 Z M354 265 L325 345 L307 376 L318 363 L319 368 L311 382 L294 395 L276 401 L262 384 L281 377 L260 381 L254 375 L275 348 L257 368 L254 365 L237 390 L251 386 L233 405 L210 388 L214 382 L189 384 L185 374 L187 358 L202 359 L217 350 L263 298 L251 325 L230 351 L239 346 L259 316 L250 348 L225 377 L241 363 L243 366 L223 392 L239 379 L253 351 L281 267 L278 299 L287 237 L293 243 L289 289 L297 242 L305 252 L300 296 L308 247 Z M280 231 L282 230 L283 232 L281 233 Z M159 228 L160 233 L158 238 L156 239 L155 236 L157 229 Z M354 226 L357 229 L357 234 L362 246 L367 252 L375 266 L374 268 L368 261 L356 240 L353 231 Z M381 220 L384 222 L386 233 L388 236 L386 238 L386 241 L382 245 L377 241 L376 248 L382 254 L383 258 L386 258 L385 252 L389 248 L391 249 L393 256 L391 264 L387 267 L385 271 L386 278 L385 281 L383 280 L382 274 L380 272 L381 264 L380 257 L375 254 L370 248 L370 240 L373 234 L375 234 L376 236 L379 235 L378 225 Z M132 220 L136 227 L134 234 L137 236 L140 234 L142 236 L144 241 L143 249 L133 258 L134 271 L131 277 L129 278 L128 270 L123 265 L121 260 L122 249 L125 248 L129 253 L127 258 L130 258 L131 254 L137 249 L137 242 L135 241 L134 244 L132 245 L128 242 L127 239 L128 227 L130 224 L130 221 Z M286 219 L287 222 L285 228 L283 229 L281 224 L283 223 L283 220 Z M224 218 L226 219 L228 224 L227 228 L225 227 L223 220 Z M229 221 L233 220 L234 223 L236 223 L241 214 L253 218 L258 218 L260 216 L266 216 L269 214 L273 217 L275 223 L274 230 L276 230 L277 221 L281 221 L279 236 L274 242 L264 248 L249 249 L232 238 L230 233 Z M295 209 L296 210 L295 217 L291 219 L290 218 L291 211 Z M217 209 L219 210 L220 214 L219 219 L215 216 L214 213 Z M367 205 L368 206 L367 212 L364 215 L360 216 L357 222 L353 224 L352 223 L353 218 L358 213 L358 211 L356 212 L353 211 L355 203 L357 202 L359 206 L361 207 Z M146 204 L153 207 L155 206 L157 202 L159 203 L161 211 L160 212 L155 211 L155 213 L161 219 L160 226 L157 225 L156 219 L147 213 L145 208 Z M210 200 L212 199 L213 202 L211 203 Z M298 192 L300 193 L299 197 L297 196 Z M210 193 L212 192 L214 195 L211 196 Z M297 186 L301 185 L302 187 L298 188 Z M211 186 L213 185 L215 188 L213 189 Z M159 175 L161 174 L162 176 L160 177 Z M355 172 L356 175 L353 177 L352 175 Z M362 166 L364 167 L365 173 L370 183 L370 191 L368 197 L364 201 L360 201 L358 199 L358 196 L362 192 L362 188 L359 187 L360 190 L358 192 L354 191 L352 188 L353 182 L356 179 L359 179 L359 170 Z M151 166 L153 167 L156 173 L155 179 L158 178 L162 184 L162 189 L159 192 L156 192 L155 188 L152 189 L152 192 L157 198 L153 202 L151 202 L146 197 L144 191 L145 180 L150 171 Z M218 158 L221 159 L220 161 L221 174 L220 175 L217 174 L216 170 L217 168 L216 162 Z M289 151 L292 154 L294 160 L293 163 L295 164 L295 178 L292 179 L289 175 L290 170 L290 158 L288 154 Z M222 151 L223 153 L220 156 L219 154 Z M339 140 L341 139 L342 141 L340 142 Z M195 135 L197 136 L197 138 L189 149 L182 164 L179 178 L179 199 L183 215 L195 236 L205 247 L204 249 L201 248 L189 234 L181 218 L177 205 L175 190 L177 171 L181 158 L189 142 Z M228 143 L241 136 L257 133 L273 137 L289 149 L286 151 L289 170 L284 178 L286 184 L290 181 L292 199 L283 220 L273 217 L266 206 L266 212 L256 216 L245 213 L246 206 L233 219 L229 220 L224 215 L219 202 L220 184 L248 185 L236 178 L224 183 L227 170 L223 179 L221 160 Z M206 125 L207 127 L197 136 L196 134 Z M305 122 L308 123 L325 141 L334 159 L339 178 L339 197 L334 217 L325 235 L316 245 L314 244 L314 242 L325 228 L333 211 L336 195 L336 180 L334 168 L327 151 L315 134 L304 124 Z M206 125 L209 122 L211 123 L209 126 Z M301 121 L303 120 L304 122 L302 123 Z M211 121 L213 120 L214 122 L212 123 Z M189 113 L189 121 L184 121 L184 126 L190 129 L198 123 L200 125 L186 141 L176 161 L172 195 L180 224 L198 251 L170 262 L160 273 L152 297 L148 332 L143 345 L136 327 L135 295 L141 274 L162 235 L164 226 L162 197 L157 196 L164 190 L163 180 L166 169 L173 157 L167 158 L167 153 L165 153 L163 157 L166 164 L162 170 L158 156 L166 137 L175 152 L174 146 L183 139 L183 134 L179 138 L175 136 L175 125 L184 114 Z M326 112 L339 124 L340 135 L336 138 L332 133 L331 138 L340 146 L340 154 L342 154 L345 140 L348 137 L356 155 L355 166 L352 170 L348 163 L350 155 L346 158 L342 157 L348 168 L351 180 L350 190 L356 196 L352 198 L353 203 L350 211 L351 233 L356 247 L370 269 L378 293 L378 320 L373 337 L370 334 L370 322 L365 307 L363 287 L358 276 L357 262 L320 246 L335 223 L342 201 L342 175 L339 162 L328 140 L315 125 L317 123 L324 129 L331 126 L331 123 L325 120 Z M206 131 L226 117 L262 111 L288 117 L318 141 L331 168 L333 199 L324 226 L310 243 L286 232 L288 224 L298 218 L306 197 L306 186 L298 181 L297 157 L282 138 L262 130 L238 133 L216 152 L212 164 L213 181 L205 185 L204 195 L212 217 L222 223 L227 238 L210 247 L203 242 L186 215 L181 183 L189 154 Z M231 106 L228 110 L222 113 L220 112 L221 110 L229 105 Z M281 105 L284 104 L292 109 L293 111 L291 112 L282 107 Z M279 103 L281 102 L282 104 L280 105 Z M237 100 L238 102 L235 104 L234 102 Z M274 99 L276 98 L277 100 L275 101 Z M291 96 L295 98 L296 105 L295 107 L289 104 Z M222 96 L223 100 L225 100 L226 103 L219 108 L218 107 L220 97 Z M266 91 L268 90 L273 96 L271 97 Z M249 88 L250 90 L240 100 L239 98 Z M264 88 L266 87 L267 89 L265 90 Z M235 109 L250 96 L254 88 L258 85 L260 90 L263 92 L263 94 L280 110 L276 111 L270 109 L254 108 L236 111 Z M236 79 L239 80 L237 83 L234 82 Z M274 79 L278 78 L282 83 L279 84 Z M256 73 L260 75 L260 78 L265 85 L264 88 L261 86 L258 79 L256 80 L254 85 L251 88 L249 87 Z M282 71 L293 80 L295 84 L295 90 L299 89 L304 95 L304 107 L307 110 L311 111 L314 108 L314 105 L312 105 L311 108 L307 105 L307 101 L310 94 L312 93 L317 98 L320 104 L320 109 L317 114 L322 118 L323 120 L322 122 L312 118 L301 110 L298 104 L298 98 L295 94 L289 93 L287 90 L285 95 L288 100 L284 101 L273 91 L272 88 L273 83 L280 87 L286 84 L286 80 L283 80 L281 78 Z M242 71 L245 71 L248 75 L247 82 L240 78 L240 73 Z M272 70 L275 73 L275 78 L271 79 L268 82 L266 77 L267 74 Z M233 70 L234 77 L232 80 L229 80 L228 83 L233 87 L242 83 L243 88 L240 91 L240 93 L230 101 L226 100 L229 96 L228 90 L225 93 L219 94 L216 99 L215 108 L208 115 L195 121 L190 125 L189 123 L192 118 L199 113 L195 110 L195 102 L197 99 L204 93 L207 101 L207 106 L205 108 L203 108 L202 106 L200 107 L204 111 L208 110 L211 106 L210 97 L215 89 L220 90 L221 80 Z M257 30 L259 31 L265 47 L264 54 L268 54 L271 58 L271 65 L266 70 L262 69 L258 63 L253 69 L249 70 L245 67 L243 62 L245 55 L250 54 L250 45 L254 38 L255 32 Z"/></svg>
