<svg xmlns="http://www.w3.org/2000/svg" width="512" height="512" viewBox="0 0 512 512" aria-hidden="true" focusable="false"><path fill="currentColor" fill-rule="evenodd" clip-rule="evenodd" d="M196 479 L199 482 L211 486 L224 486 L236 480 L234 479 L226 482 L215 483 Z M318 478 L298 483 L286 482 L279 479 L276 479 L276 480 L289 486 L302 486 L309 484 L317 480 Z M209 410 L210 414 L212 414 L211 410 Z M254 323 L251 324 L245 330 L244 339 L249 346 L254 348 L259 348 L264 346 L267 343 L269 339 L269 333 L268 330 L262 324 Z M255 327 L262 329 L265 336 L264 339 L258 344 L251 342 L248 337 L249 331 Z M364 267 L364 270 L367 271 L368 267 Z M145 267 L145 270 L148 270 L148 267 Z M364 258 L363 261 L366 262 L367 259 Z M146 258 L146 261 L149 262 L149 258 Z M361 248 L361 252 L365 252 L365 250 Z M149 248 L148 252 L151 252 L152 249 Z M358 239 L356 241 L360 243 L361 241 Z M153 239 L151 242 L154 244 L156 241 Z M352 232 L352 234 L355 236 L356 233 Z M160 232 L157 233 L157 236 L160 235 Z M347 224 L346 227 L350 228 L350 225 Z M163 224 L162 227 L166 228 L166 224 Z M263 223 L247 224 L235 229 L226 238 L222 248 L224 262 L233 269 L240 269 L247 262 L247 256 L241 249 L242 243 L247 238 L260 237 L266 240 L271 248 L271 263 L248 295 L248 310 L255 318 L261 314 L261 304 L264 296 L287 276 L294 260 L293 246 L286 234 L273 225 Z M249 228 L250 232 L242 236 L237 243 L237 251 L243 257 L242 262 L240 264 L234 265 L230 263 L227 259 L226 255 L227 246 L235 235 Z M263 227 L276 232 L285 240 L289 248 L290 258 L285 271 L275 281 L266 287 L260 294 L257 301 L257 312 L255 313 L252 308 L253 295 L256 289 L271 273 L276 262 L276 249 L273 241 L265 234 L252 231 L254 227 Z M340 219 L340 222 L343 222 L343 219 Z M170 219 L169 222 L172 223 L173 219 Z M333 215 L333 218 L336 217 Z M178 215 L178 218 L180 218 L181 216 Z M257 126 L236 150 L228 169 L217 169 L221 189 L233 197 L198 215 L176 241 L169 258 L167 303 L186 340 L176 374 L211 364 L244 374 L292 368 L326 343 L343 313 L347 275 L339 246 L316 216 L280 197 L291 191 L296 169 L285 169 Z M310 217 L333 244 L343 276 L341 305 L324 338 L300 359 L274 369 L246 370 L215 359 L182 369 L191 339 L172 306 L170 273 L176 251 L191 228 L216 208 L246 199 L282 202 Z M256 154 L264 162 L264 164 L270 172 L269 182 L265 186 L262 187 L255 186 L251 182 L250 178 L252 172 L255 169 L259 170 L262 174 L260 178 L256 175 L254 177 L256 180 L262 181 L265 178 L265 172 L259 166 L255 166 L249 170 L247 174 L248 181 L247 184 L244 182 L242 178 L244 169 Z M256 134 L267 147 L269 151 L268 158 L274 156 L281 165 L282 171 L277 176 L286 173 L291 174 L290 185 L285 191 L281 190 L281 187 L284 184 L283 180 L277 182 L270 190 L270 192 L275 192 L279 194 L279 197 L261 194 L261 191 L266 189 L272 183 L274 173 L272 167 L260 154 L257 148 L241 167 L239 171 L239 179 L241 184 L245 188 L251 191 L258 191 L259 194 L234 197 L234 194 L243 192 L239 185 L233 180 L229 180 L228 182 L234 189 L232 192 L226 190 L222 184 L222 174 L226 173 L234 175 L231 169 L232 164 L239 156 L244 158 L244 150 Z M256 87 L243 107 L188 157 L174 189 L153 197 L131 228 L125 252 L125 283 L153 349 L150 366 L131 364 L133 374 L115 359 L116 339 L123 352 L134 351 L140 343 L138 330 L127 321 L126 309 L104 324 L123 302 L115 239 L99 267 L105 287 L102 289 L93 277 L80 327 L90 357 L104 370 L122 377 L96 385 L109 394 L134 425 L156 436 L138 454 L126 453 L124 447 L131 446 L123 443 L120 450 L125 456 L153 456 L188 472 L210 471 L228 462 L251 484 L257 496 L261 485 L284 462 L303 471 L325 472 L363 455 L385 457 L392 451 L392 446 L384 443 L382 447 L389 447 L386 453 L372 453 L355 436 L380 424 L402 396 L417 385 L404 380 L375 380 L403 373 L421 359 L431 339 L432 315 L420 278 L408 288 L413 264 L397 240 L398 261 L389 296 L392 308 L387 309 L386 321 L374 331 L373 344 L377 350 L389 352 L396 338 L400 352 L394 364 L380 374 L382 364 L363 367 L360 349 L380 309 L388 281 L382 229 L370 207 L355 194 L339 189 L322 153 L281 118 Z M247 458 L249 459 L249 463 L251 463 L252 460 L254 461 L254 464 L256 466 L256 474 L258 473 L258 459 L259 458 L261 459 L262 465 L264 465 L265 458 L268 461 L267 473 L257 485 L245 472 L244 465 Z M275 453 L279 457 L280 462 L279 465 L272 470 L271 460 L268 455 Z M238 453 L241 453 L244 455 L242 459 L241 469 L238 469 L233 464 L233 458 Z M295 453 L300 452 L301 455 L297 456 Z M208 448 L210 447 L211 449 L209 450 Z M364 450 L363 452 L356 453 L341 462 L326 468 L307 468 L300 466 L285 457 L287 455 L298 459 L313 460 L314 458 L307 458 L304 456 L304 454 L306 452 L316 452 L330 449 L330 447 L308 450 L304 447 L315 441 L320 436 L340 435 L356 442 Z M303 435 L304 438 L300 440 L299 438 Z M148 450 L158 441 L169 436 L189 435 L206 445 L208 448 L194 449 L182 447 L182 449 L197 452 L222 452 L219 455 L199 458 L200 460 L219 458 L227 454 L229 456 L219 463 L209 467 L187 468 L180 466 L157 453 L149 452 Z M147 416 L149 415 L151 418 L149 419 Z M256 408 L267 420 L272 429 L272 440 L270 445 L266 449 L264 448 L265 434 L263 434 L263 441 L258 451 L256 451 L253 448 L250 442 L250 432 L248 432 L248 444 L249 445 L248 448 L245 448 L243 446 L240 438 L241 428 L243 424 Z M332 392 L334 391 L335 393 L333 394 Z M256 385 L273 398 L284 409 L289 418 L290 430 L288 436 L279 446 L276 444 L280 435 L277 437 L275 436 L275 429 L271 420 L260 409 L257 401 L251 411 L241 421 L237 435 L235 436 L234 433 L232 433 L232 437 L236 443 L235 446 L229 442 L224 434 L223 420 L227 411 L237 400 Z M406 385 L406 387 L400 392 L398 397 L388 411 L378 421 L363 430 L351 433 L349 432 L350 430 L354 429 L355 427 L366 421 L375 412 L375 410 L373 410 L366 417 L364 416 L371 402 L375 387 L388 383 L399 383 Z M107 385 L113 383 L124 383 L137 387 L139 389 L139 393 L146 412 L148 413 L147 416 L143 415 L143 417 L148 422 L160 428 L164 432 L161 433 L152 431 L136 422 L123 409 Z M185 382 L196 383 L204 386 L212 391 L224 405 L224 409 L218 424 L216 423 L214 417 L212 417 L213 422 L220 433 L219 436 L216 436 L205 423 L200 413 L198 404 L196 404 L202 424 L213 438 L212 440 L203 433 L196 420 L194 420 L194 422 L204 437 L203 439 L192 430 L187 421 L183 401 L183 384 Z M330 378 L329 409 L322 428 L308 441 L306 440 L315 429 L313 428 L307 435 L305 434 L305 431 L310 425 L316 408 L314 407 L307 424 L300 433 L293 438 L292 436 L303 411 L301 411 L297 422 L294 423 L292 414 L288 408 L290 402 L305 388 Z M124 378 L133 377 L136 378 L137 381 L136 382 L125 380 Z M372 370 L373 375 L370 392 L363 410 L357 418 L348 426 L344 428 L342 427 L355 408 L358 398 L357 396 L351 410 L346 417 L335 428 L330 429 L329 427 L338 419 L345 405 L343 404 L338 414 L331 421 L330 419 L332 415 L333 402 L340 393 L340 391 L355 377 Z M140 370 L156 376 L162 382 L164 382 L174 393 L180 403 L180 411 L183 420 L182 422 L176 416 L170 405 L168 406 L175 420 L183 427 L182 429 L176 427 L167 418 L162 411 L155 394 L154 396 L158 409 L170 427 L166 427 L150 411 L142 389 L139 373 Z M155 364 L156 366 L153 369 L152 366 Z M154 362 L156 361 L157 363 L155 364 Z M356 359 L359 361 L359 364 L361 367 L360 370 L358 369 L355 361 Z M155 357 L157 356 L158 358 L156 359 Z M155 347 L157 346 L158 348 L156 349 Z M362 331 L363 333 L360 339 L359 345 L356 347 L355 345 L360 332 Z M150 330 L152 331 L155 337 L154 340 L152 339 L149 332 Z M362 329 L364 328 L365 330 L363 331 Z M408 327 L410 326 L411 328 L409 329 Z M146 326 L148 325 L149 327 L147 328 Z M102 326 L104 325 L105 327 L103 328 Z M120 320 L122 319 L123 321 L121 322 Z M391 311 L393 310 L399 316 L404 317 L408 321 L409 325 L407 326 L402 321 L391 314 Z M372 310 L374 309 L375 311 L373 312 Z M135 304 L137 303 L138 305 L136 306 Z M376 300 L378 299 L379 301 L377 302 Z M132 295 L134 294 L135 296 L133 297 Z M95 289 L98 289 L104 296 L105 303 L102 307 L100 307 L97 304 L98 300 L96 300 L94 303 L95 307 L93 309 L89 322 L90 338 L95 350 L101 358 L111 367 L110 369 L99 362 L92 354 L88 346 L84 332 L84 317 L86 308 Z M417 288 L427 309 L429 320 L428 336 L423 350 L419 356 L410 365 L401 370 L400 368 L417 351 L423 336 L423 319 L418 307 L418 302 L415 300 L415 305 L413 307 L411 307 L408 304 L409 295 Z M130 286 L132 285 L133 287 L131 288 Z M363 284 L366 284 L368 287 L368 289 L365 292 L360 289 L360 287 Z M145 287 L147 284 L149 284 L153 287 L153 289 L148 292 L145 289 Z M381 281 L383 282 L382 286 L380 285 Z M402 255 L408 262 L409 270 L404 279 L406 294 L404 296 L401 296 L401 298 L408 309 L415 310 L417 312 L420 320 L420 334 L417 344 L411 353 L409 354 L407 352 L404 357 L402 356 L403 342 L397 334 L391 333 L386 336 L386 340 L389 340 L392 343 L389 348 L381 348 L376 341 L378 331 L386 325 L393 325 L391 322 L392 320 L405 329 L410 342 L414 336 L414 325 L410 318 L400 312 L395 307 L393 301 L393 295 L396 286 L401 285 L396 277 L396 272 L401 264 Z M111 255 L111 263 L117 272 L116 279 L112 283 L112 286 L117 287 L119 293 L119 304 L111 313 L107 314 L102 319 L98 329 L100 340 L103 342 L107 330 L113 324 L119 321 L119 325 L127 325 L135 332 L136 342 L131 348 L124 348 L121 345 L121 342 L123 340 L127 340 L126 335 L122 333 L116 334 L110 341 L110 356 L108 357 L105 351 L102 353 L98 348 L94 340 L92 326 L96 311 L105 309 L111 299 L111 297 L106 294 L109 282 L107 275 L104 272 L105 261 Z M256 115 L314 171 L322 187 L322 206 L344 207 L363 223 L378 268 L376 288 L364 275 L353 287 L363 300 L376 290 L352 344 L356 372 L337 390 L333 384 L339 373 L318 377 L299 387 L285 403 L257 378 L228 403 L215 388 L196 379 L179 380 L178 393 L157 373 L160 341 L137 293 L141 290 L149 300 L159 287 L149 275 L141 286 L135 283 L137 252 L149 224 L171 206 L190 206 L191 185 L200 169 Z M385 274 L382 276 L378 247 L365 219 L346 204 L327 200 L325 184 L316 167 L277 131 L257 107 L227 139 L198 165 L188 183 L186 200 L167 204 L146 221 L135 245 L131 280 L129 279 L128 257 L136 226 L144 211 L158 198 L178 193 L179 181 L192 158 L235 120 L257 96 L281 123 L322 160 L334 182 L335 194 L353 197 L367 209 L380 236 Z M256 17 L254 19 L253 30 L254 41 L249 45 L249 47 L253 48 L255 52 L253 54 L248 54 L245 57 L247 60 L252 60 L254 63 L250 67 L241 67 L242 72 L250 72 L254 77 L248 83 L247 78 L244 75 L237 75 L234 77 L232 84 L236 91 L244 92 L248 90 L255 81 L257 81 L263 90 L267 93 L274 94 L277 93 L281 87 L280 80 L272 76 L269 77 L266 80 L266 83 L264 84 L260 79 L260 75 L263 72 L272 71 L272 67 L267 65 L268 60 L262 55 L265 52 L265 49 L256 45 L261 40 L258 18 Z M271 81 L274 81 L277 84 L276 88 L272 90 L267 87 Z M236 82 L239 79 L242 79 L243 83 L246 83 L247 85 L243 88 L240 88 L237 86 Z M254 69 L256 68 L258 72 L256 73 Z M262 64 L264 63 L265 65 L263 66 Z M260 53 L261 58 L257 59 L256 56 Z"/></svg>
