<svg xmlns="http://www.w3.org/2000/svg" width="512" height="512" viewBox="0 0 512 512" aria-hidden="true" focusable="false"><path fill="currentColor" fill-rule="evenodd" clip-rule="evenodd" d="M317 406 L317 408 L330 409 L332 411 L360 414 L368 413 L366 411 L361 411 L359 409 Z M195 406 L153 409 L151 411 L146 411 L146 414 L180 411 L182 409 L195 408 Z M365 378 L352 379 L350 381 L315 387 L315 390 L327 389 L328 387 L365 381 Z M147 378 L147 381 L184 387 L185 389 L197 390 L197 387 L162 381 L160 379 Z M331 361 L326 361 L309 369 L309 371 L323 367 L331 363 Z M181 361 L181 363 L189 367 L203 371 L203 369 L186 361 Z M315 343 L313 342 L306 347 L301 352 L301 354 L306 352 Z M195 341 L195 343 L209 354 L211 354 L211 352 L199 342 Z M322 339 L322 342 L326 349 L337 359 L344 361 L352 360 L346 359 L336 354 L328 346 L326 341 Z M296 330 L293 331 L291 334 L291 337 L296 333 Z M208 322 L209 326 L221 338 L218 331 L210 322 Z M220 307 L227 321 L230 323 L231 321 L227 316 L224 308 Z M253 287 L242 295 L243 322 L219 359 L208 393 L205 424 L210 443 L221 457 L193 450 L182 452 L170 441 L182 432 L197 431 L196 424 L164 438 L146 437 L142 443 L150 446 L165 466 L186 475 L186 482 L197 488 L264 496 L318 487 L326 482 L326 475 L347 466 L370 441 L316 426 L315 432 L329 432 L342 441 L330 452 L319 450 L291 457 L300 447 L307 427 L302 383 L284 342 L269 322 L269 293 Z M320 478 L319 482 L308 484 L305 486 L301 487 L290 487 L289 486 L290 484 L300 481 L312 480 L317 477 Z M192 478 L196 477 L200 480 L212 481 L220 484 L241 483 L252 487 L259 487 L261 485 L265 486 L271 483 L285 484 L286 486 L267 491 L246 491 L239 490 L232 487 L211 487 L204 484 L197 483 L193 481 Z M254 467 L256 466 L257 468 L255 469 Z M264 460 L265 462 L258 467 L257 463 L260 460 Z M247 461 L252 460 L255 466 L253 467 Z M184 457 L187 454 L194 454 L216 462 L239 462 L250 469 L255 475 L268 465 L278 461 L301 461 L318 454 L325 454 L328 460 L318 472 L312 475 L306 473 L296 479 L286 481 L277 480 L274 477 L263 482 L250 482 L238 477 L235 480 L226 481 L216 479 L206 473 L203 475 L197 474 L187 465 Z M258 448 L259 445 L266 446 L264 449 L261 450 Z M246 446 L254 445 L255 447 L251 450 L248 449 Z M361 441 L350 452 L349 456 L341 465 L334 469 L331 469 L330 471 L327 469 L333 459 L333 454 L345 444 L357 440 Z M153 442 L155 440 L167 444 L179 454 L179 459 L186 470 L182 471 L181 469 L178 469 L170 464 L166 460 L162 452 Z M281 439 L280 442 L263 442 L262 443 L232 442 L231 441 L232 438 L277 438 L279 437 Z M289 436 L291 435 L292 437 L290 438 Z M220 436 L222 435 L223 437 L221 438 Z M277 421 L277 423 L273 426 L263 425 L265 422 L270 422 L271 419 L274 419 Z M217 420 L219 419 L220 422 L218 423 Z M266 418 L270 417 L271 419 L267 420 Z M218 412 L220 413 L219 417 L217 416 Z M266 412 L268 411 L269 413 L267 414 Z M267 397 L269 400 L270 408 L268 409 L266 407 L266 401 L264 401 L262 412 L259 414 L255 414 L255 416 L262 417 L261 421 L257 421 L250 424 L244 424 L240 426 L235 423 L237 419 L243 419 L244 417 L249 416 L251 409 L254 408 L254 406 L251 406 L249 404 L249 401 L247 401 L246 408 L244 410 L242 409 L243 400 L245 397 L253 393 L255 394 L259 393 Z M290 391 L292 392 L293 396 L292 398 L289 396 Z M223 388 L224 392 L223 397 L221 398 L220 393 L221 389 Z M250 381 L253 378 L259 378 L262 381 L262 388 L257 391 L253 390 L250 387 Z M294 376 L297 382 L297 386 L299 387 L302 404 L301 434 L295 446 L288 453 L278 458 L269 459 L268 458 L269 456 L272 456 L274 454 L278 454 L287 450 L293 444 L297 434 L297 429 L299 427 L299 405 L297 404 L296 392 L292 377 Z M218 376 L220 377 L215 398 L215 405 L213 407 L213 427 L215 429 L215 434 L219 444 L229 452 L238 454 L242 457 L241 459 L232 457 L224 453 L217 446 L211 434 L210 406 L213 388 L215 387 L215 383 Z M282 376 L284 375 L285 377 L283 378 Z M227 376 L229 375 L230 377 L228 378 Z M273 364 L275 363 L278 367 L276 368 Z M238 363 L239 365 L235 368 L234 366 Z M271 362 L273 361 L274 363 L272 364 Z M238 362 L240 361 L241 363 L239 364 Z M253 360 L259 360 L267 364 L277 373 L284 386 L289 412 L288 432 L285 437 L282 435 L280 419 L273 414 L272 398 L265 391 L265 378 L257 363 L254 364 L254 367 L247 378 L247 391 L240 398 L239 411 L232 419 L230 435 L228 437 L225 435 L223 415 L228 386 L235 373 L245 364 Z M262 357 L264 356 L267 359 L265 360 Z M245 359 L248 356 L250 357 L247 360 Z M233 357 L235 356 L236 358 L234 359 Z M280 348 L284 350 L288 361 L291 364 L291 367 L294 373 L293 376 L289 373 L286 362 L279 350 Z M232 348 L233 350 L226 362 L223 373 L219 376 L218 373 L221 365 L223 364 L228 350 Z M254 348 L257 347 L258 349 L255 350 Z M239 347 L241 346 L242 348 L240 349 Z M278 346 L280 345 L281 347 L279 348 Z M231 346 L233 345 L234 347 L232 348 Z M265 336 L270 341 L269 344 L265 342 L264 339 Z M247 336 L248 337 L247 342 L243 344 L242 341 Z M270 332 L273 334 L279 343 L278 345 L276 344 L269 334 Z M242 332 L243 334 L239 339 L238 343 L234 345 L233 344 L234 341 L239 334 Z M258 330 L260 329 L265 334 L265 336 L262 337 L259 334 Z M247 326 L248 328 L243 332 L242 329 L245 326 Z M264 326 L266 325 L270 329 L270 331 L268 332 L264 328 Z M257 325 L259 328 L255 329 L251 336 L248 337 L247 336 L248 333 L255 325 Z M264 316 L265 318 L261 321 L260 318 Z M247 317 L250 316 L252 320 L250 321 Z M254 312 L257 311 L258 315 L255 316 Z M244 302 L246 301 L247 303 L245 304 Z M251 300 L254 298 L258 298 L262 303 L258 307 L252 307 Z M341 252 L339 256 L337 269 L335 270 L332 282 L328 289 L327 293 L328 297 L331 297 L332 290 L340 271 L342 258 Z M211 216 L201 219 L189 232 L184 274 L180 272 L170 244 L172 263 L179 278 L170 280 L158 270 L167 283 L142 290 L143 294 L136 304 L153 292 L156 295 L141 334 L131 348 L140 342 L162 293 L169 287 L179 285 L165 335 L149 353 L134 361 L144 360 L164 345 L172 328 L195 312 L193 324 L185 340 L176 351 L160 360 L166 361 L178 355 L194 332 L202 305 L224 287 L230 274 L233 243 L223 232 L226 242 L222 247 L219 246 L220 226 Z M216 228 L217 262 L209 269 L205 280 L208 280 L210 273 L220 265 L223 260 L224 251 L229 246 L224 278 L213 291 L207 293 L193 308 L178 318 L177 312 L181 291 L184 286 L190 291 L192 290 L187 274 L190 241 L195 234 L194 258 L196 258 L198 237 L201 236 L201 255 L204 255 L205 236 L209 230 L209 254 L212 254 L213 229 Z M201 228 L203 229 L202 235 L200 234 Z M201 225 L203 224 L204 227 L202 228 Z M209 222 L211 223 L210 228 L208 227 Z M339 190 L341 194 L352 199 L353 201 L366 206 L369 209 L380 214 L383 214 L381 210 L342 190 Z M174 190 L170 190 L131 210 L129 214 L132 214 L143 209 L146 206 L159 201 L160 199 L174 192 Z M347 171 L347 174 L377 181 L377 178 L374 176 Z M165 171 L138 176 L135 178 L135 181 L165 174 Z M282 157 L264 158 L264 161 L276 162 L282 159 Z M350 149 L350 152 L402 152 L403 149 Z M109 149 L110 152 L162 152 L162 149 Z M262 150 L265 150 L273 146 L278 146 L283 149 L285 147 L280 143 L269 143 L264 145 Z M227 147 L228 149 L233 148 L235 146 L240 146 L250 151 L249 158 L231 157 L231 159 L236 162 L243 162 L250 160 L251 164 L249 175 L253 177 L255 181 L250 183 L246 182 L246 184 L250 186 L251 190 L253 191 L262 190 L262 187 L266 184 L266 182 L262 183 L257 181 L258 178 L262 176 L262 174 L258 175 L253 174 L254 154 L250 150 L248 145 L243 143 L232 143 Z M255 129 L253 134 L253 139 L257 141 L259 139 L259 134 L257 129 Z M378 122 L367 123 L362 126 L348 129 L348 131 L354 131 L376 126 Z M134 122 L134 124 L137 126 L158 131 L164 131 L164 129 L151 126 L149 124 L137 121 Z M381 86 L376 87 L375 89 L356 98 L341 107 L341 109 L345 109 L356 104 L358 101 L381 90 Z M131 86 L131 90 L154 101 L156 104 L167 109 L171 109 L171 107 L156 98 L137 89 L136 87 Z M219 84 L197 105 L186 135 L189 169 L210 198 L174 210 L157 228 L121 305 L114 351 L92 362 L82 376 L83 401 L94 410 L86 395 L86 381 L97 364 L126 360 L118 355 L126 305 L170 219 L211 203 L217 214 L217 205 L225 198 L235 228 L251 245 L244 252 L236 250 L237 262 L264 240 L288 198 L293 209 L278 241 L232 287 L248 279 L271 257 L292 224 L282 271 L286 272 L295 237 L297 199 L312 204 L310 239 L301 274 L314 240 L316 209 L336 214 L352 232 L379 296 L373 298 L388 315 L394 354 L382 352 L372 342 L353 311 L358 308 L377 315 L360 304 L343 301 L362 289 L349 291 L336 301 L327 302 L323 296 L331 251 L330 229 L319 289 L289 276 L273 278 L272 285 L282 293 L281 304 L303 329 L346 341 L362 360 L378 363 L356 349 L337 306 L352 316 L377 353 L390 360 L414 363 L426 381 L426 395 L418 409 L421 411 L430 399 L430 376 L420 362 L398 351 L392 313 L354 226 L338 210 L288 193 L297 188 L296 169 L301 158 L288 114 L274 102 L258 98 L240 101 L224 114 L218 142 L211 147 L215 187 L224 192 L221 196 L210 197 L190 160 L190 130 L198 111 L214 92 L240 79 L272 79 L291 87 L309 103 L322 130 L322 161 L309 192 L326 157 L325 128 L317 108 L296 86 L274 76 L244 75 Z M285 300 L289 299 L297 307 L303 309 L307 308 L312 324 L316 325 L316 322 L312 316 L310 303 L307 302 L302 297 L295 296 L294 294 L300 293 L310 297 L315 297 L317 295 L322 301 L330 316 L334 314 L337 317 L343 335 L338 336 L333 333 L318 331 L313 327 L306 326 L300 321 L294 310 L287 304 Z M304 289 L305 288 L311 289 L316 294 L313 295 L306 292 Z M292 287 L299 286 L300 288 L293 289 Z M283 287 L288 286 L289 288 L284 289 Z M234 194 L245 202 L251 204 L263 204 L268 202 L277 194 L279 195 L281 206 L278 214 L270 226 L256 242 L253 242 L242 231 L233 215 L230 202 Z M282 189 L285 188 L286 190 L283 191 Z M226 189 L228 188 L229 190 L227 191 Z M221 172 L224 174 L225 178 L224 185 L222 187 L219 186 L219 176 Z M291 168 L293 169 L293 186 L292 187 L288 185 L288 175 L289 170 Z M216 148 L218 147 L219 149 L217 150 Z M254 102 L276 108 L285 117 L289 129 L288 161 L284 178 L271 195 L258 201 L244 197 L234 188 L228 178 L224 155 L220 153 L223 150 L223 129 L227 117 L236 108 Z M348 73 L347 72 L343 73 L330 86 L330 89 L335 86 L345 76 L347 76 Z M166 71 L164 75 L167 76 L176 85 L182 89 L182 86 Z M197 89 L189 99 L184 111 L181 114 L177 136 L175 138 L175 152 L177 154 L180 173 L188 189 L196 198 L198 198 L198 195 L189 182 L181 162 L180 135 L182 124 L190 106 L198 94 L206 86 L224 75 L237 70 L250 68 L275 70 L294 78 L306 86 L314 94 L322 106 L330 124 L332 135 L332 156 L330 166 L322 185 L317 190 L315 196 L318 196 L322 192 L331 176 L334 166 L335 154 L337 152 L337 138 L335 136 L335 129 L331 114 L328 111 L323 99 L304 79 L286 69 L271 66 L269 64 L244 64 L242 66 L233 67 L222 71 L208 79 Z M290 41 L287 43 L284 56 L287 56 L289 47 L291 45 Z M222 41 L221 45 L223 47 L225 56 L228 56 L225 43 Z M331 38 L327 38 L324 45 L316 56 L314 62 L311 65 L310 70 L313 69 L318 62 L319 58 L324 53 L325 49 L331 41 Z M181 38 L181 41 L187 49 L188 53 L193 58 L193 60 L199 69 L202 70 L200 63 L197 60 L196 56 L185 40 L185 38 Z M255 17 L254 40 L255 41 L255 53 L257 53 L258 20 L257 17 Z"/></svg>
