<svg xmlns="http://www.w3.org/2000/svg" width="512" height="512" viewBox="0 0 512 512" aria-hidden="true" focusable="false"><path fill="currentColor" fill-rule="evenodd" clip-rule="evenodd" d="M130 330 L132 338 L136 340 L133 335 L132 330 Z M194 320 L309 320 L308 317 L195 317 Z M194 306 L195 309 L340 309 L342 306 Z M194 297 L342 297 L342 295 L340 294 L195 294 Z M194 285 L196 286 L341 286 L342 285 L340 282 L195 282 Z M286 271 L287 274 L293 273 L337 274 L342 273 L340 270 L287 270 Z M286 260 L286 262 L342 262 L342 260 Z M286 250 L340 250 L341 251 L342 250 L341 248 L287 248 Z M286 237 L287 240 L340 240 L342 237 Z M236 189 L220 215 L217 228 L207 227 L209 243 L201 247 L202 250 L212 257 L211 260 L227 259 L234 266 L243 259 L260 260 L260 256 L270 248 L262 242 L264 227 L254 229 L251 215 L240 200 Z M229 254 L231 252 L239 252 L241 254 L241 258 L238 261 L234 262 L229 258 Z M264 247 L264 250 L261 253 L254 254 L255 256 L254 258 L248 258 L244 255 L247 252 L252 253 L252 250 L258 246 Z M207 247 L212 246 L218 250 L219 253 L223 252 L226 255 L223 258 L217 258 L216 254 L212 254 L207 249 Z M211 232 L215 234 L216 242 L215 244 L211 241 L210 237 Z M260 231 L261 237 L258 243 L256 244 L255 243 L256 233 Z M251 229 L253 233 L253 241 L247 247 L246 246 L247 238 L245 233 Z M220 229 L226 233 L224 237 L224 242 L226 246 L225 248 L222 247 L217 241 L217 234 Z M235 227 L241 232 L244 237 L244 244 L242 246 L239 246 L236 250 L233 249 L230 244 L226 243 L227 236 Z M235 217 L238 219 L239 222 L238 224 L232 221 Z M236 200 L243 210 L242 214 L247 215 L249 222 L248 225 L244 229 L241 228 L242 220 L236 211 L234 211 L234 213 L229 219 L228 222 L230 227 L227 230 L221 222 L222 217 L224 214 L228 215 L227 211 L232 202 Z M196 181 L194 271 L276 272 L277 183 Z M273 184 L274 268 L198 268 L197 186 Z M306 156 L305 163 L300 171 L301 175 L297 177 L295 190 L296 195 L302 196 L303 200 L309 203 L312 200 L313 196 L320 194 L320 183 L317 176 L314 175 L315 171 L309 161 L308 156 Z M306 197 L308 196 L309 199 L307 200 Z M299 191 L301 190 L303 193 L301 194 Z M307 186 L310 189 L309 192 L305 191 L305 188 Z M313 184 L316 183 L318 185 L318 188 L316 189 Z M301 183 L302 185 L300 189 L298 190 L297 184 Z M311 182 L313 181 L314 183 L312 184 Z M309 179 L311 178 L312 180 L310 181 Z M300 177 L305 176 L306 179 L303 180 Z M307 165 L310 167 L312 171 L311 175 L306 174 L304 172 L304 169 Z M255 17 L250 34 L221 80 L220 95 L227 114 L220 114 L220 105 L208 84 L198 113 L181 118 L169 128 L163 140 L163 155 L142 166 L141 317 L135 313 L134 301 L122 312 L110 296 L111 286 L123 291 L130 285 L137 254 L116 223 L114 212 L105 204 L104 195 L99 203 L102 217 L98 225 L102 242 L89 272 L88 289 L81 290 L87 315 L100 330 L121 338 L137 353 L162 354 L172 387 L182 398 L175 404 L167 401 L155 373 L139 358 L124 355 L106 361 L98 352 L82 350 L92 358 L102 377 L121 383 L126 379 L125 372 L132 371 L144 381 L122 391 L118 407 L123 419 L139 431 L159 433 L173 443 L194 442 L205 455 L228 454 L235 472 L241 473 L257 496 L271 473 L277 472 L284 454 L301 457 L318 442 L342 442 L353 433 L375 430 L388 420 L393 410 L391 393 L383 385 L368 381 L380 371 L387 372 L390 383 L410 377 L420 358 L430 350 L416 351 L406 361 L387 355 L375 357 L358 371 L342 403 L330 398 L340 387 L350 354 L377 352 L390 338 L412 330 L426 312 L430 290 L424 289 L423 273 L410 242 L414 233 L410 217 L413 204 L407 195 L396 224 L375 253 L375 267 L383 287 L389 291 L401 287 L401 299 L390 312 L378 301 L375 316 L369 318 L369 167 L362 158 L350 154 L350 139 L342 125 L315 113 L305 83 L293 113 L285 113 L293 96 L292 80 Z M253 459 L260 460 L260 464 L257 468 L255 468 L252 464 Z M232 454 L237 446 L241 446 L243 450 L240 452 L239 457 L241 457 L241 455 L247 451 L250 454 L249 465 L255 473 L257 473 L263 465 L262 454 L265 451 L268 452 L271 455 L271 457 L273 457 L272 452 L269 450 L271 446 L275 446 L280 454 L280 460 L277 466 L274 467 L270 463 L270 459 L268 459 L267 463 L269 466 L269 472 L266 476 L263 476 L263 480 L257 487 L255 487 L249 480 L249 477 L246 477 L243 472 L244 460 L242 460 L242 463 L238 467 L236 467 L232 460 Z M249 446 L251 445 L254 449 L253 450 L250 449 Z M279 427 L282 426 L292 432 L300 434 L308 434 L313 438 L312 440 L307 442 L308 444 L311 445 L311 447 L306 452 L300 454 L293 454 L283 450 L277 445 L276 443 L277 440 L279 440 L285 446 L293 449 L302 447 L302 445 L291 446 L282 441 L279 437 Z M233 427 L232 431 L233 436 L229 442 L221 446 L211 445 L212 448 L219 449 L233 442 L235 445 L229 450 L219 454 L212 454 L202 449 L201 445 L206 442 L204 440 L200 440 L199 438 L204 434 L212 434 L222 431 L230 426 Z M162 432 L172 428 L177 424 L180 424 L185 428 L196 432 L197 435 L187 440 L176 440 L169 438 Z M349 432 L346 436 L337 440 L325 440 L314 435 L316 432 L327 428 L333 423 L338 427 Z M336 422 L339 419 L341 420 L338 423 Z M272 419 L276 426 L276 433 L273 439 L261 450 L259 450 L258 448 L272 434 L273 426 L270 421 Z M246 419 L252 420 L266 419 L270 425 L270 433 L257 445 L255 445 L249 440 L242 432 L242 425 Z M240 419 L242 421 L239 427 L239 432 L245 441 L244 443 L239 439 L236 433 L236 426 Z M171 420 L173 419 L176 422 L173 423 Z M332 419 L329 423 L321 428 L313 430 L306 429 L307 427 L316 426 L321 424 L328 418 Z M180 419 L184 418 L190 423 L190 425 L187 426 Z M333 417 L334 414 L338 415 L335 418 Z M174 415 L176 414 L177 416 L175 417 Z M274 415 L278 413 L286 413 L287 416 L293 419 L297 424 L303 426 L304 429 L297 430 L288 427 L278 420 Z M238 415 L229 424 L219 429 L206 431 L198 430 L192 427 L193 425 L202 427 L213 425 L222 417 L227 415 L228 413 L234 414 L236 413 Z M171 410 L173 411 L172 415 L170 414 Z M338 410 L340 409 L344 413 L340 415 Z M336 407 L335 412 L330 414 L316 424 L309 425 L303 424 L302 420 L297 420 L287 414 L288 412 L293 411 L298 408 L318 403 L325 403 Z M173 409 L183 404 L193 403 L207 406 L208 408 L214 408 L219 411 L224 412 L225 414 L216 420 L210 420 L208 421 L207 424 L203 425 L192 422 L182 414 L178 412 L174 412 Z M368 404 L368 407 L362 412 L350 413 L348 411 L349 408 L355 405 L359 401 Z M142 404 L153 401 L158 406 L163 408 L164 411 L162 413 L153 413 L148 411 Z M276 395 L278 398 L278 405 L275 410 L272 412 L271 410 L274 403 L273 396 Z M205 394 L207 393 L211 399 L209 400 L205 396 Z M238 392 L240 393 L238 398 L238 403 L241 410 L240 412 L236 409 L234 405 L234 398 Z M331 390 L332 392 L329 394 L328 392 Z M271 391 L273 390 L274 392 L272 393 Z M180 391 L182 390 L185 394 L183 395 Z M388 394 L390 399 L389 412 L385 419 L377 426 L369 429 L355 430 L343 427 L341 425 L343 422 L351 424 L366 423 L372 420 L379 413 L382 406 L382 401 L379 394 L375 392 L379 399 L379 406 L377 411 L370 418 L361 422 L351 422 L343 418 L344 416 L347 415 L360 415 L367 412 L370 409 L372 404 L371 396 L367 395 L367 397 L369 398 L368 400 L364 400 L362 398 L362 394 L366 389 L370 387 L379 387 Z M202 388 L204 387 L206 391 L204 392 Z M125 392 L132 387 L142 387 L146 389 L150 394 L150 398 L148 400 L145 400 L143 395 L141 396 L140 398 L141 408 L149 414 L168 416 L169 418 L161 422 L151 422 L140 417 L136 413 L133 407 L133 398 L136 393 L134 393 L130 399 L130 407 L134 415 L141 421 L146 423 L161 424 L169 421 L171 425 L166 428 L157 430 L143 429 L133 425 L126 418 L122 410 L121 403 Z M307 387 L309 386 L310 388 L308 389 Z M308 384 L310 383 L311 385 L309 386 Z M201 384 L203 383 L204 385 L202 386 Z M337 380 L338 382 L335 388 L332 390 L331 388 L335 381 Z M175 380 L177 381 L180 387 L179 389 L177 388 L174 382 Z M336 378 L338 377 L339 379 L337 380 Z M173 378 L175 377 L176 379 L174 380 Z M255 375 L257 375 L269 386 L268 392 L272 400 L270 409 L266 414 L261 417 L249 416 L243 410 L240 402 L242 394 L244 392 L243 387 Z M337 374 L339 373 L340 375 L338 376 Z M281 368 L283 369 L282 375 L280 374 Z M171 369 L173 368 L174 370 L172 371 Z M338 368 L340 367 L341 370 L339 371 Z M229 368 L231 367 L232 370 L230 371 Z M279 365 L281 364 L282 366 L280 367 Z M230 365 L232 364 L233 366 L231 367 Z M231 362 L233 361 L234 363 L232 364 Z M339 357 L340 359 L336 367 L335 375 L329 387 L319 396 L310 399 L309 397 L314 388 L315 374 L317 370 L328 360 Z M173 357 L184 360 L194 369 L197 374 L197 383 L199 391 L202 396 L201 398 L198 398 L192 395 L183 387 L178 378 L176 367 L172 359 Z M210 356 L215 357 L221 361 L226 367 L225 374 L226 378 L225 379 L227 388 L231 395 L230 401 L227 402 L223 399 L214 387 L219 398 L227 404 L226 406 L215 400 L216 403 L215 405 L210 401 L213 398 L212 395 L209 393 L205 382 L205 373 L209 363 Z M418 356 L414 368 L408 374 L403 376 L401 375 L401 372 L398 371 L398 376 L394 380 L391 380 L389 378 L390 376 L393 376 L393 373 L387 368 L380 368 L372 372 L367 378 L364 387 L361 390 L357 399 L349 406 L346 407 L344 406 L352 397 L355 391 L358 377 L362 370 L367 365 L379 359 L382 359 L383 363 L391 359 L401 364 L407 364 L411 361 L415 355 Z M303 355 L304 356 L303 363 L307 374 L307 381 L303 393 L299 397 L301 398 L304 395 L306 397 L299 404 L297 403 L297 400 L288 405 L287 403 L295 395 L298 387 L292 397 L285 402 L281 400 L281 395 L284 390 L287 378 L286 377 L287 375 L286 367 L291 361 Z M276 355 L278 356 L281 362 L280 364 L278 363 L275 357 Z M234 356 L236 355 L237 357 L235 358 Z M93 355 L95 354 L98 356 L100 360 L105 364 L111 364 L121 359 L126 362 L128 362 L129 359 L133 359 L145 365 L153 375 L159 396 L168 406 L167 407 L163 406 L154 398 L151 390 L148 387 L141 373 L132 368 L125 368 L121 370 L119 373 L119 375 L122 375 L123 378 L121 380 L118 380 L114 376 L114 371 L112 371 L110 375 L105 375 L102 373 L97 367 L96 361 Z M240 350 L241 352 L237 355 L236 353 Z M270 350 L272 349 L276 354 L274 355 Z M323 346 L330 345 L331 347 L325 350 Z M267 346 L269 345 L271 348 L269 349 Z M143 349 L160 345 L169 345 L178 348 L185 355 L182 356 L168 351 L144 351 Z M293 344 L299 352 L285 362 L280 352 L283 348 Z M219 344 L229 348 L232 351 L232 354 L228 362 L226 362 L221 357 L213 352 Z M310 343 L313 343 L319 347 L323 352 L321 361 L317 364 L315 368 L313 367 L310 361 L307 349 L303 351 L301 350 L305 345 Z M246 343 L247 345 L242 349 L241 347 Z M202 343 L207 345 L211 350 L209 351 L205 349 L204 356 L199 367 L197 368 L195 364 L191 361 L189 352 L193 347 L199 343 Z M261 341 L264 340 L267 345 L265 346 Z M255 340 L257 340 L275 360 L278 368 L278 380 L280 379 L281 375 L283 376 L283 383 L280 390 L277 390 L259 372 L257 368 L255 368 L253 372 L235 390 L231 389 L229 377 L233 376 L236 362 Z M196 339 L196 342 L190 346 L187 350 L185 350 L180 346 L183 342 L192 338 Z M267 338 L268 337 L360 337 L361 341 L359 343 L349 343 L348 342 L319 343 L315 340 L312 340 L300 346 L297 345 L295 341 L292 341 L282 345 L279 349 L277 349 Z M197 338 L198 337 L244 337 L245 339 L235 349 L233 349 L230 345 L220 341 L217 341 L216 344 L212 346 L208 343 L198 340 Z M258 337 L260 336 L261 338 L259 339 Z M253 336 L254 338 L249 343 L248 341 Z M145 335 L149 331 L154 329 L166 329 L171 331 L174 334 L176 338 L176 342 L175 343 L151 344 L145 340 Z M385 311 L389 321 L389 326 L386 330 L389 333 L386 340 L380 347 L371 351 L343 351 L330 356 L327 355 L334 348 L343 345 L363 344 L364 348 L367 348 L373 345 L374 343 L370 345 L366 344 L369 338 L370 326 L374 321 L380 325 L380 332 L375 340 L377 341 L382 332 L382 325 L379 324 L378 316 L381 310 Z M129 308 L131 309 L134 316 L134 321 L130 325 L130 327 L136 322 L138 322 L141 325 L141 338 L144 344 L142 345 L138 343 L139 345 L138 349 L133 348 L127 342 L123 334 L123 332 L126 330 L123 326 L123 320 Z M425 298 L426 299 L425 306 L417 321 L404 332 L397 335 L393 335 L392 329 L406 321 L409 318 L411 313 L418 306 L421 299 Z M424 295 L426 294 L427 296 L425 297 Z M86 294 L90 296 L93 305 L101 312 L102 317 L111 325 L120 329 L119 335 L115 335 L106 331 L94 320 L89 312 L85 298 Z M409 252 L411 253 L413 259 L411 265 L413 265 L414 263 L416 264 L421 278 L421 291 L418 301 L415 306 L410 310 L408 309 L408 307 L412 299 L413 286 L410 278 L404 272 L399 270 L397 267 L398 261 L400 259 L402 260 L404 264 L406 264 L405 257 Z M102 252 L106 255 L107 258 L106 264 L108 264 L110 260 L112 259 L115 265 L114 269 L108 272 L102 278 L99 285 L99 296 L104 308 L103 310 L100 309 L96 305 L91 293 L90 285 L91 276 L95 266 L97 264 L101 266 L99 258 Z M105 245 L110 246 L112 253 L109 254 L103 249 Z M410 242 L411 246 L409 249 L403 254 L400 253 L401 247 Z M117 231 L130 244 L134 255 L132 263 L126 267 L126 268 L130 267 L133 268 L131 273 L128 276 L127 283 L122 288 L119 288 L115 284 L117 279 L113 279 L108 283 L107 286 L108 301 L112 308 L121 316 L119 325 L113 323 L105 316 L106 313 L109 313 L111 315 L112 313 L107 308 L102 295 L103 283 L110 274 L117 273 L121 277 L121 282 L123 282 L124 280 L124 276 L122 273 L117 270 L117 268 L123 262 L125 257 L124 247 L121 242 L115 237 Z M106 211 L108 211 L113 217 L112 225 L113 229 L108 230 L110 236 L115 241 L117 241 L122 248 L123 255 L119 263 L116 261 L114 257 L115 249 L113 246 L113 242 L106 241 L103 238 L101 233 L102 224 L106 223 L105 220 Z M406 210 L406 223 L410 224 L411 232 L409 237 L404 242 L400 241 L397 248 L398 257 L394 264 L389 257 L389 251 L392 244 L397 238 L395 238 L390 243 L387 249 L387 258 L393 267 L392 271 L388 276 L389 282 L391 282 L391 277 L395 273 L399 273 L407 279 L410 288 L409 299 L406 306 L400 313 L400 315 L406 313 L407 316 L399 323 L393 325 L391 315 L396 312 L401 306 L405 297 L405 287 L403 282 L399 279 L395 279 L396 285 L392 288 L386 285 L384 281 L384 275 L381 273 L381 271 L386 267 L379 262 L378 253 L382 244 L386 242 L386 240 L393 232 L395 232 L396 235 L402 235 L403 231 L401 231 L400 233 L398 232 L400 226 L398 219 L400 215 Z M155 160 L168 161 L176 168 L175 330 L164 325 L146 330 L143 328 L144 169 Z M349 158 L360 160 L367 169 L366 335 L361 335 L359 333 L359 173 L358 168 L354 164 L347 162 Z M185 159 L196 154 L285 154 L286 228 L307 213 L330 227 L330 167 L355 169 L355 335 L263 335 L255 326 L249 335 L180 339 L180 167 Z M279 148 L281 145 L285 147 L284 150 L280 150 Z M288 144 L323 144 L327 149 L326 221 L309 209 L306 209 L291 221 L288 220 Z M315 117 L324 118 L333 122 L344 133 L348 143 L348 155 L342 162 L339 161 L341 150 L340 143 L337 136 L328 127 L318 123 L313 123 L312 121 Z M198 117 L201 121 L200 123 L187 126 L177 135 L173 145 L173 158 L172 159 L167 158 L165 147 L167 138 L171 131 L181 122 L193 117 Z M272 109 L276 107 L281 112 L278 114 L275 114 L272 111 Z M232 110 L234 107 L239 107 L241 109 L241 112 L238 114 L235 114 L232 112 Z M213 104 L215 104 L219 109 L218 112 L215 114 L212 113 L213 109 L211 106 Z M306 94 L310 101 L308 108 L311 107 L313 108 L312 115 L309 121 L299 127 L289 126 L284 123 L280 119 L282 115 L291 121 L298 120 L302 117 L303 109 L301 108 L300 109 L301 112 L298 114 L295 111 L295 107 L298 104 L303 105 L301 102 L301 99 Z M207 94 L212 99 L212 103 L210 104 L211 107 L210 114 L212 118 L218 121 L223 121 L232 115 L234 118 L228 124 L224 126 L219 125 L218 127 L215 127 L205 122 L201 114 L201 108 L205 107 L203 101 Z M338 148 L336 155 L333 146 L325 141 L281 141 L275 150 L201 150 L191 152 L179 161 L176 159 L177 142 L187 130 L200 125 L215 130 L224 129 L243 114 L241 96 L256 78 L271 94 L273 102 L269 111 L283 126 L292 130 L309 125 L318 126 L333 136 Z M256 63 L259 65 L266 77 L276 87 L279 93 L279 102 L277 104 L275 103 L275 96 L273 92 L261 79 L257 71 L255 71 L251 80 L240 92 L238 96 L238 103 L237 104 L235 103 L234 94 L237 87 L246 78 Z M256 29 L268 48 L265 64 L267 64 L268 59 L274 55 L282 68 L279 83 L283 77 L289 78 L290 88 L287 92 L290 92 L291 96 L284 105 L281 104 L282 93 L271 77 L273 68 L271 68 L271 71 L268 73 L263 67 L258 53 L255 53 L253 61 L247 71 L242 71 L239 69 L241 78 L232 91 L232 104 L229 105 L223 98 L222 93 L226 92 L223 88 L224 78 L228 74 L234 83 L231 67 L239 55 L241 55 L245 59 L246 63 L248 63 L248 59 L245 54 L245 47 Z"/></svg>
