<svg xmlns="http://www.w3.org/2000/svg" width="512" height="512" viewBox="0 0 512 512" aria-hidden="true" focusable="false"><path fill="currentColor" fill-rule="evenodd" clip-rule="evenodd" d="M274 327 L276 328 L287 323 L300 321 L330 321 L353 325 L353 323 L333 319 L308 318 L286 321 Z M160 323 L160 325 L183 321 L213 321 L226 323 L237 328 L240 327 L240 326 L227 321 L204 318 L181 319 Z M272 311 L289 306 L304 304 L324 304 L352 308 L352 306 L328 302 L300 302 L277 307 L272 309 Z M161 306 L161 308 L189 304 L210 304 L229 307 L238 311 L241 311 L241 309 L234 306 L214 302 L186 302 Z M273 293 L275 294 L286 289 L298 287 L329 287 L349 291 L351 290 L349 288 L331 285 L306 284 L285 287 Z M162 290 L164 291 L184 287 L215 287 L231 290 L238 294 L240 293 L228 287 L207 284 L182 285 L164 288 Z M272 277 L289 272 L305 270 L331 271 L344 274 L350 274 L350 272 L324 268 L301 268 L279 272 L272 275 Z M163 272 L163 274 L169 274 L182 271 L209 270 L229 273 L238 277 L241 277 L241 275 L234 272 L213 268 L189 268 Z M272 260 L273 261 L275 259 L278 259 L287 255 L302 253 L323 253 L349 257 L349 256 L340 253 L326 251 L297 251 L286 253 L284 255 L273 258 Z M164 256 L164 257 L168 257 L174 255 L191 253 L212 253 L226 255 L232 258 L238 259 L240 261 L241 260 L240 258 L229 255 L227 253 L216 251 L187 251 L173 253 Z M256 114 L247 139 L232 166 L233 180 L246 193 L246 196 L235 199 L233 207 L225 212 L225 217 L219 222 L294 222 L288 217 L287 210 L280 207 L277 198 L267 196 L267 193 L280 180 L281 166 Z M229 214 L231 212 L282 212 L284 214 L284 217 L283 218 L230 218 Z M237 204 L240 201 L273 201 L276 204 L276 207 L275 208 L238 208 Z M250 194 L251 193 L262 193 L263 196 L262 197 L251 197 Z M256 129 L258 130 L263 142 L271 153 L277 167 L277 175 L275 181 L272 185 L265 189 L255 187 L252 184 L250 178 L250 171 L256 160 L258 161 L263 171 L260 176 L257 175 L257 178 L259 180 L263 179 L267 174 L266 167 L257 151 L252 157 L246 170 L246 180 L250 188 L248 189 L241 185 L236 175 L236 167 L239 159 Z M256 17 L242 75 L202 120 L196 141 L184 140 L185 150 L174 177 L166 178 L163 210 L176 227 L157 230 L157 218 L141 199 L132 167 L122 199 L105 218 L110 251 L104 349 L96 373 L114 391 L117 403 L109 409 L108 418 L122 440 L135 419 L135 411 L127 403 L131 391 L151 371 L162 369 L174 397 L158 401 L147 410 L175 427 L193 430 L188 445 L212 448 L231 441 L253 459 L248 471 L238 469 L244 465 L241 460 L234 469 L237 475 L247 478 L257 495 L267 478 L279 469 L272 460 L269 465 L275 469 L265 471 L260 459 L282 441 L302 448 L325 445 L320 430 L340 426 L366 410 L353 400 L339 397 L352 369 L362 371 L382 391 L386 403 L379 409 L378 419 L392 440 L405 418 L396 400 L416 375 L417 364 L409 349 L403 250 L408 218 L391 199 L381 167 L372 200 L356 218 L356 230 L341 227 L351 205 L347 178 L339 176 L328 150 L329 140 L317 141 L311 120 L274 80 Z M256 468 L258 469 L263 477 L257 487 L251 480 L251 475 Z M235 430 L240 425 L245 423 L268 423 L273 425 L278 430 L279 437 L273 445 L256 457 L250 451 L237 442 L234 437 Z M276 421 L277 420 L295 420 L302 422 L313 430 L319 441 L317 443 L307 444 L293 442 L287 439 L283 435 L282 429 Z M237 421 L233 426 L230 432 L230 435 L226 439 L220 442 L204 444 L196 443 L193 441 L200 430 L204 426 L213 421 L218 420 L236 420 Z M391 417 L396 423 L396 426 L392 431 L389 429 L387 425 L387 422 Z M121 417 L126 422 L126 425 L122 431 L117 426 L117 423 Z M396 408 L401 413 L401 417 L399 420 L396 419 L395 410 Z M117 408 L118 409 L117 419 L114 420 L112 417 L112 413 Z M388 407 L389 408 L388 417 L384 420 L382 418 L382 412 L385 408 Z M125 407 L128 408 L131 412 L131 418 L129 420 L125 417 L124 409 Z M357 407 L354 411 L344 419 L330 425 L324 426 L313 425 L308 420 L309 418 L314 417 L324 412 L336 402 L345 402 Z M156 407 L168 402 L177 402 L192 414 L204 418 L205 420 L200 425 L192 426 L183 425 L169 419 L159 411 Z M389 390 L393 390 L396 393 L392 401 L386 395 L386 393 Z M119 390 L124 390 L127 393 L127 395 L122 401 L117 395 Z M381 380 L387 376 L395 376 L400 379 L401 383 L397 387 L394 386 L384 387 L381 384 Z M112 381 L114 378 L118 376 L126 376 L132 380 L132 384 L129 387 L125 386 L116 387 Z M343 375 L335 395 L328 404 L320 410 L313 413 L299 416 L295 415 L297 412 L302 410 L310 402 L315 392 L317 385 L317 379 L319 377 L330 373 L341 373 Z M170 375 L172 373 L183 373 L194 377 L196 379 L196 385 L198 392 L203 402 L212 411 L216 412 L218 415 L214 416 L200 413 L191 409 L186 405 L178 395 Z M256 372 L265 382 L270 392 L269 406 L264 414 L257 419 L254 418 L246 410 L243 402 L244 389 Z M317 372 L318 366 L331 366 L332 367 L329 370 L325 370 L319 373 Z M181 367 L182 366 L195 366 L196 372 L194 373 L188 370 L184 370 Z M373 379 L375 372 L379 368 L390 365 L402 367 L406 372 L407 376 L405 378 L399 373 L387 372 L382 374 L376 380 Z M106 376 L108 370 L111 367 L123 365 L134 368 L138 372 L140 379 L137 380 L131 374 L126 372 L114 373 L109 378 L107 378 Z M312 355 L313 385 L308 397 L297 408 L281 415 L280 413 L286 406 L290 398 L290 394 L292 392 L292 380 L290 378 L288 368 L299 359 Z M201 355 L214 359 L225 368 L223 378 L221 380 L221 392 L223 394 L223 398 L227 406 L233 413 L232 415 L219 410 L213 406 L205 397 L200 385 Z M367 365 L373 359 L377 357 L393 354 L407 358 L413 364 L413 371 L411 372 L408 367 L402 363 L390 361 L383 362 L374 366 L371 372 L368 374 Z M100 364 L104 359 L110 356 L119 354 L130 355 L140 359 L145 364 L146 373 L144 374 L139 366 L131 362 L119 361 L107 365 L102 372 L100 371 Z M256 337 L279 362 L287 380 L285 399 L273 413 L271 412 L274 403 L272 385 L257 365 L241 386 L239 392 L241 413 L231 404 L226 392 L226 379 L232 365 Z M265 240 L296 230 L328 230 L361 237 L368 358 L362 367 L318 362 L319 350 L302 353 L285 364 L278 352 L292 347 L355 347 L303 342 L274 349 L259 332 L259 246 Z M153 236 L217 230 L242 237 L254 246 L254 332 L239 349 L210 342 L158 347 L221 347 L235 352 L228 364 L200 350 L194 350 L195 362 L151 367 L145 358 Z M401 226 L403 225 L404 227 L402 228 Z M385 222 L398 229 L406 351 L389 350 L373 354 L365 231 L373 224 Z M129 222 L140 224 L148 231 L140 354 L123 350 L107 351 L115 230 L119 225 Z M112 221 L114 224 L110 228 L109 223 Z M388 217 L392 216 L398 218 L402 222 L398 223 L390 220 Z M126 217 L124 220 L121 220 L118 222 L115 221 L115 219 L121 216 Z M387 216 L386 218 L381 218 L379 220 L373 220 L367 223 L362 228 L360 227 L361 223 L366 219 L379 215 Z M129 216 L134 215 L143 217 L149 220 L151 223 L148 225 L142 221 L130 218 Z M371 212 L373 211 L374 213 L372 214 Z M383 211 L389 210 L390 212 L384 213 Z M375 211 L380 210 L381 212 L376 213 Z M132 211 L137 210 L138 212 L133 213 Z M122 211 L127 210 L128 212 L123 213 Z M372 205 L375 204 L376 206 L373 207 Z M376 204 L377 203 L388 203 L391 204 L392 206 L391 207 L377 206 Z M121 205 L125 203 L137 203 L140 204 L141 206 L140 207 L137 206 L122 207 Z M321 196 L328 196 L334 201 L334 206 L331 209 L327 210 L324 205 L320 209 L320 214 L327 223 L326 226 L323 226 L318 223 L314 219 L312 213 L313 203 Z M185 196 L194 197 L201 206 L201 213 L199 219 L190 226 L187 226 L186 223 L193 214 L193 209 L190 205 L188 206 L186 210 L182 209 L179 206 L180 200 Z M376 197 L378 195 L385 195 L387 198 L377 199 Z M126 197 L128 195 L135 195 L137 198 L127 199 Z M380 181 L382 181 L385 186 L385 189 L383 191 L379 191 L377 189 L377 185 Z M131 181 L133 181 L136 185 L135 191 L130 191 L128 189 L128 186 Z M256 81 L271 104 L297 130 L301 139 L298 161 L312 164 L322 178 L320 192 L312 192 L308 205 L313 226 L280 229 L257 242 L230 228 L200 226 L205 204 L201 192 L194 193 L191 186 L195 170 L215 161 L212 139 L216 130 L242 104 Z M254 54 L260 55 L264 69 L278 93 L310 126 L313 137 L312 152 L321 145 L324 146 L325 155 L335 174 L334 187 L341 182 L344 183 L347 202 L345 212 L340 219 L331 221 L327 218 L327 214 L334 213 L338 208 L338 200 L332 193 L324 191 L326 178 L322 169 L316 162 L303 157 L305 138 L301 128 L271 97 L257 70 L242 97 L212 128 L208 138 L210 157 L202 159 L193 166 L187 178 L189 191 L181 193 L175 200 L177 211 L186 214 L186 218 L176 221 L169 214 L166 203 L169 183 L172 182 L179 187 L179 170 L188 155 L189 146 L192 145 L201 152 L200 138 L203 126 L235 93 L246 76 Z M253 48 L259 47 L260 49 L254 50 Z M256 37 L258 38 L257 43 L255 42 Z"/></svg>
