<svg xmlns="http://www.w3.org/2000/svg" viewBox="0 0 512 512" >
  <path d="M 248 119 L 253 125 L 258 125 L 259 122 L 263 120 L 263 119 Z M 261 103 L 267 105 L 270 104 L 272 101 L 269 102 L 263 102 L 262 101 Z M 239 101 L 241 104 L 244 105 L 250 103 L 249 101 L 248 102 Z M 253 99 L 253 109 L 250 113 L 251 115 L 253 116 L 258 116 L 260 115 L 259 113 L 258 114 L 255 113 L 255 102 Z M 259 97 L 265 94 L 270 94 L 274 96 L 274 95 L 271 92 L 263 92 L 260 94 Z M 237 95 L 237 96 L 241 94 L 246 94 L 252 97 L 252 95 L 248 92 L 240 92 Z M 254 39 L 224 79 L 221 100 L 226 126 L 237 134 L 203 147 L 194 157 L 181 223 L 185 235 L 207 252 L 203 285 L 210 360 L 209 412 L 229 424 L 212 454 L 223 462 L 243 464 L 254 443 L 252 424 L 258 421 L 258 443 L 266 461 L 275 465 L 299 456 L 283 423 L 302 413 L 302 389 L 321 364 L 319 289 L 331 208 L 318 154 L 296 139 L 274 133 L 285 126 L 290 99 L 286 76 L 266 47 Z M 224 456 L 226 455 L 227 457 L 225 458 Z M 284 454 L 286 453 L 288 457 L 286 458 Z M 265 421 L 278 421 L 279 422 L 279 430 L 280 433 L 287 443 L 292 448 L 292 449 L 290 450 L 291 452 L 290 454 L 289 454 L 287 451 L 284 453 L 281 452 L 282 457 L 280 458 L 275 452 L 274 454 L 276 457 L 276 460 L 275 461 L 272 461 L 269 458 L 266 452 L 265 447 L 262 443 L 263 423 Z M 247 421 L 249 428 L 250 442 L 246 449 L 246 452 L 243 458 L 240 461 L 237 461 L 235 459 L 238 453 L 237 452 L 233 456 L 232 459 L 230 460 L 229 457 L 231 454 L 231 452 L 227 454 L 226 451 L 223 452 L 220 448 L 230 436 L 233 430 L 233 422 L 234 421 Z M 281 376 L 278 407 L 277 408 L 277 413 L 275 417 L 236 417 L 235 416 L 236 414 L 240 413 L 257 402 L 269 390 L 277 379 L 279 375 Z M 311 362 L 315 365 L 315 367 L 308 372 L 306 375 L 305 380 L 303 381 L 302 380 L 302 362 L 303 361 Z M 273 267 L 274 268 L 274 274 L 272 279 L 272 283 L 269 290 L 269 293 L 263 310 L 260 315 L 260 317 L 250 337 L 239 353 L 226 366 L 220 370 L 215 370 L 214 369 L 214 359 L 213 358 L 212 333 L 213 332 L 220 331 L 226 328 L 240 315 L 247 306 L 255 293 L 262 279 L 266 267 L 267 266 Z M 283 265 L 284 267 L 279 299 L 274 318 L 264 346 L 256 362 L 243 381 L 229 395 L 216 401 L 214 399 L 214 374 L 219 373 L 229 367 L 238 358 L 251 340 L 267 307 L 274 285 L 277 267 L 280 265 Z M 262 265 L 263 266 L 263 269 L 259 277 L 259 279 L 251 295 L 240 311 L 226 325 L 219 329 L 213 329 L 211 327 L 211 317 L 210 316 L 210 308 L 209 307 L 208 296 L 209 295 L 218 294 L 226 289 L 239 276 L 243 269 L 246 266 L 255 263 Z M 291 261 L 292 298 L 290 321 L 286 346 L 280 365 L 267 387 L 249 404 L 233 413 L 224 415 L 215 413 L 213 410 L 214 404 L 224 401 L 233 395 L 248 379 L 259 362 L 271 336 L 278 314 L 284 286 L 286 264 Z M 297 257 L 298 258 L 298 335 L 297 336 L 297 354 L 296 355 L 298 358 L 298 410 L 291 414 L 280 415 L 279 412 L 282 395 L 284 366 L 289 349 L 293 326 L 294 299 L 295 298 L 295 263 L 294 259 Z M 211 255 L 215 256 L 221 261 L 229 265 L 239 266 L 241 268 L 234 278 L 227 285 L 220 290 L 213 293 L 210 293 L 208 291 L 208 285 L 207 284 L 208 265 Z M 297 244 L 297 251 L 288 258 L 284 260 L 282 260 L 281 258 L 277 258 L 276 259 L 270 259 L 269 258 L 270 256 L 276 255 L 286 249 L 286 248 L 282 248 L 275 250 L 274 248 L 276 246 L 278 246 L 289 240 L 294 240 Z M 218 225 L 221 226 L 220 233 L 219 234 L 217 233 L 217 226 Z M 224 231 L 225 230 L 225 226 L 228 222 L 238 225 L 243 225 L 244 226 L 268 226 L 269 225 L 274 225 L 284 222 L 287 228 L 287 236 L 280 241 L 272 244 L 269 247 L 270 250 L 269 253 L 263 253 L 260 254 L 257 257 L 255 257 L 252 254 L 249 253 L 242 253 L 241 252 L 242 246 L 240 244 L 236 243 L 227 238 L 224 234 Z M 212 210 L 214 211 L 214 217 L 215 218 L 215 222 L 213 226 L 212 226 L 209 222 L 210 214 Z M 273 158 L 274 159 L 274 163 L 273 164 L 272 173 L 261 206 L 259 208 L 246 208 L 245 209 L 239 209 L 238 210 L 231 211 L 225 216 L 224 220 L 222 222 L 220 222 L 219 221 L 218 209 L 219 208 L 223 208 L 233 203 L 244 195 L 259 179 L 267 167 L 268 163 L 271 159 Z M 299 147 L 307 149 L 318 163 L 327 210 L 327 226 L 315 284 L 315 359 L 301 354 L 302 250 L 299 239 L 293 234 L 300 233 L 306 241 L 309 296 L 309 243 L 306 235 L 298 228 L 305 222 L 319 226 L 308 217 L 320 214 L 305 213 L 314 195 L 305 208 L 301 209 L 302 173 L 293 228 L 286 216 Z M 273 147 L 274 150 L 271 155 L 271 157 L 269 159 L 268 163 L 251 185 L 232 201 L 224 205 L 219 205 L 217 202 L 216 194 L 218 192 L 220 192 L 232 186 L 245 177 L 262 161 L 271 148 Z M 280 139 L 285 140 L 287 143 L 286 144 L 286 152 L 284 158 L 284 164 L 283 165 L 283 170 L 281 176 L 281 181 L 279 186 L 279 191 L 284 176 L 289 143 L 292 142 L 295 144 L 293 160 L 292 161 L 291 175 L 290 176 L 290 182 L 289 183 L 289 189 L 288 190 L 286 207 L 284 212 L 281 212 L 278 210 L 274 210 L 273 209 L 267 209 L 263 207 L 267 198 L 273 179 L 273 176 L 276 167 L 276 163 L 277 162 L 279 140 Z M 269 131 L 272 140 L 265 151 L 237 178 L 217 188 L 215 186 L 213 174 L 211 174 L 212 191 L 206 217 L 195 217 L 201 219 L 207 225 L 216 240 L 223 240 L 238 248 L 237 250 L 226 248 L 227 250 L 235 255 L 243 257 L 242 259 L 231 258 L 230 260 L 227 260 L 195 239 L 186 228 L 185 223 L 195 166 L 199 157 L 205 151 L 213 147 L 238 140 L 242 131 L 250 135 L 261 135 Z M 279 118 L 281 121 L 279 125 L 277 124 L 277 119 Z M 231 115 L 233 116 L 234 119 L 234 123 L 232 126 L 230 125 L 230 116 Z M 282 96 L 284 95 L 285 97 L 283 98 Z M 279 85 L 282 84 L 283 86 L 280 87 Z M 228 84 L 230 83 L 232 86 L 229 87 Z M 241 81 L 247 81 L 253 83 L 258 83 L 263 81 L 270 81 L 275 85 L 277 89 L 278 99 L 277 100 L 277 107 L 276 108 L 275 115 L 271 123 L 263 130 L 256 132 L 251 131 L 244 127 L 240 123 L 237 118 L 235 112 L 235 108 L 234 107 L 233 94 L 234 93 L 235 86 Z M 272 77 L 275 76 L 276 79 L 273 80 Z M 253 77 L 256 76 L 258 79 L 257 80 L 254 80 Z M 235 77 L 237 76 L 239 79 L 236 80 Z M 266 76 L 269 75 L 270 77 L 267 78 Z M 260 78 L 261 75 L 264 76 L 262 79 Z M 247 76 L 250 75 L 251 77 L 248 78 Z M 241 76 L 244 75 L 245 77 L 242 78 Z M 277 74 L 279 73 L 280 75 L 278 76 Z M 231 74 L 233 73 L 234 75 L 232 76 Z M 270 71 L 273 70 L 274 73 L 272 74 Z M 237 73 L 238 70 L 241 71 L 239 74 Z M 256 71 L 258 69 L 261 70 L 260 73 L 257 73 Z M 250 70 L 253 69 L 254 72 L 251 73 Z M 243 70 L 246 69 L 247 72 L 245 73 Z M 263 70 L 266 68 L 268 71 L 267 72 L 264 72 Z M 268 66 L 270 65 L 271 67 L 269 68 Z M 260 65 L 263 64 L 264 66 L 261 67 Z M 253 65 L 254 64 L 257 64 L 258 66 L 255 68 Z M 247 65 L 249 64 L 250 66 L 248 67 Z M 264 59 L 267 58 L 268 61 L 265 62 Z M 243 61 L 244 58 L 247 59 L 245 62 Z M 257 58 L 260 57 L 262 60 L 259 62 L 257 60 Z M 249 59 L 251 57 L 254 58 L 254 60 L 252 62 L 251 62 Z M 261 54 L 263 53 L 264 55 L 262 56 Z M 247 54 L 249 53 L 250 55 L 248 56 Z M 254 53 L 256 52 L 257 55 L 255 56 Z M 250 49 L 250 48 L 255 44 L 260 47 L 259 49 L 253 49 L 252 50 Z" fill="#B88A44" fill-rule="evenodd"/>
</svg>
