<svg xmlns="http://www.w3.org/2000/svg" viewBox="0 0 512 512" >
  <path d="M 253 203 L 256 207 L 250 209 L 253 211 L 254 214 L 258 214 L 259 211 L 261 210 L 262 208 L 257 208 L 256 206 L 260 204 L 260 203 Z M 269 192 L 268 193 L 261 193 L 261 195 L 266 196 L 269 194 Z M 242 193 L 246 196 L 251 195 L 251 193 L 244 193 L 243 192 Z M 260 189 L 264 187 L 268 187 L 270 188 L 270 187 L 268 185 L 263 185 Z M 241 188 L 248 187 L 251 189 L 253 189 L 252 187 L 249 185 L 244 185 Z M 254 112 L 226 118 L 208 128 L 187 147 L 170 171 L 160 192 L 148 237 L 146 300 L 160 363 L 183 406 L 215 435 L 239 445 L 261 447 L 281 443 L 304 431 L 321 416 L 340 389 L 351 365 L 362 324 L 365 254 L 354 200 L 330 154 L 316 138 L 296 123 L 278 115 Z M 181 393 L 183 392 L 196 399 L 207 403 L 224 407 L 241 409 L 271 409 L 287 407 L 311 401 L 329 392 L 331 394 L 321 408 L 307 422 L 291 433 L 279 438 L 267 441 L 247 441 L 234 438 L 224 434 L 208 424 L 193 410 Z M 265 392 L 266 391 L 270 391 L 271 393 L 270 394 L 266 394 Z M 239 392 L 240 391 L 246 391 L 247 393 L 246 394 L 240 394 Z M 276 391 L 278 390 L 279 392 L 277 393 Z M 229 391 L 230 390 L 233 390 L 234 392 L 233 393 L 230 393 Z M 183 386 L 183 384 L 188 381 L 193 385 L 212 393 L 234 397 L 256 398 L 257 397 L 275 397 L 276 396 L 294 394 L 316 387 L 324 381 L 326 381 L 330 384 L 325 389 L 313 395 L 297 400 L 280 403 L 273 403 L 272 404 L 239 404 L 238 403 L 219 401 L 194 393 Z M 273 361 L 275 364 L 273 367 L 271 368 L 268 363 Z M 255 361 L 258 361 L 267 369 L 271 378 L 270 383 L 268 385 L 266 384 L 265 379 L 264 380 L 264 384 L 262 387 L 259 389 L 254 389 L 250 386 L 248 380 L 247 380 L 247 385 L 245 386 L 242 382 L 242 376 L 244 371 L 249 365 Z M 239 361 L 244 363 L 241 368 L 236 364 L 236 363 Z M 299 363 L 300 360 L 303 361 L 301 364 Z M 293 360 L 297 367 L 297 370 L 298 371 L 297 378 L 295 381 L 292 383 L 291 382 L 292 377 L 291 377 L 290 380 L 284 386 L 274 388 L 273 385 L 275 381 L 275 377 L 274 376 L 275 370 L 282 364 Z M 219 360 L 230 364 L 237 370 L 239 373 L 238 375 L 238 382 L 240 386 L 239 388 L 234 388 L 228 386 L 223 381 L 221 375 L 220 375 L 220 380 L 219 381 L 216 379 L 215 377 L 215 367 Z M 209 361 L 212 360 L 213 363 L 211 364 Z M 317 359 L 319 362 L 319 368 L 316 375 L 310 381 L 303 384 L 299 384 L 298 382 L 301 377 L 301 370 L 302 368 L 307 363 L 315 359 Z M 195 359 L 197 359 L 203 362 L 210 368 L 211 370 L 211 376 L 213 381 L 215 383 L 214 385 L 202 381 L 196 375 L 194 370 L 194 360 Z M 180 355 L 183 355 L 190 360 L 190 369 L 191 370 L 191 373 L 194 377 L 193 379 L 189 377 L 182 369 L 179 359 L 179 356 Z M 332 354 L 333 355 L 332 365 L 329 371 L 324 376 L 320 378 L 319 376 L 322 370 L 322 360 L 325 357 Z M 184 328 L 190 319 L 208 312 L 216 314 L 218 317 L 213 318 L 253 326 L 303 312 L 314 315 L 327 324 L 328 335 L 321 343 L 226 351 L 295 352 L 323 347 L 328 350 L 315 355 L 270 358 L 257 355 L 247 358 L 188 353 L 185 349 L 216 350 L 218 347 L 249 343 L 307 322 L 286 324 L 255 337 L 217 345 L 215 348 L 190 342 L 185 336 Z M 229 282 L 231 285 L 231 291 L 229 295 L 226 293 L 227 283 Z M 285 276 L 286 277 L 288 290 L 285 294 L 283 295 L 282 294 L 282 279 L 283 277 Z M 265 259 L 267 258 L 268 261 L 266 262 Z M 266 256 L 268 255 L 269 257 L 267 258 Z M 267 253 L 269 252 L 270 254 L 268 255 Z M 264 250 L 265 252 L 262 259 L 262 262 L 260 267 L 260 272 L 259 273 L 259 287 L 258 288 L 258 291 L 259 292 L 259 301 L 261 302 L 262 301 L 262 295 L 261 294 L 262 272 L 263 271 L 264 263 L 266 262 L 267 263 L 266 271 L 265 272 L 265 300 L 266 303 L 263 305 L 257 305 L 256 306 L 249 305 L 248 304 L 236 305 L 233 302 L 235 295 L 235 280 L 234 279 L 233 272 L 234 271 L 239 271 L 246 268 L 256 259 L 260 253 Z M 268 250 L 270 249 L 271 251 L 269 252 Z M 272 244 L 273 246 L 272 248 L 270 249 L 269 247 L 270 245 Z M 278 230 L 279 233 L 274 243 L 272 244 L 271 242 L 273 239 L 274 231 L 275 230 Z M 266 222 L 271 230 L 261 248 L 245 265 L 232 268 L 225 252 L 226 265 L 222 296 L 233 309 L 244 308 L 246 310 L 244 313 L 251 317 L 266 314 L 267 308 L 277 309 L 292 292 L 288 266 L 289 252 L 279 274 L 277 288 L 279 301 L 275 304 L 267 303 L 268 271 L 279 238 L 283 232 L 293 235 L 301 247 L 306 276 L 305 298 L 299 306 L 289 312 L 271 315 L 260 320 L 243 320 L 227 315 L 214 307 L 207 296 L 208 269 L 213 243 L 220 235 L 240 229 L 247 223 L 256 225 Z M 237 222 L 239 221 L 240 223 L 238 224 Z M 278 190 L 280 189 L 281 191 L 279 192 Z M 231 190 L 233 189 L 234 191 L 232 192 Z M 245 175 L 253 175 L 254 176 L 268 175 L 273 180 L 273 183 L 274 184 L 274 200 L 273 201 L 273 204 L 270 212 L 261 220 L 251 220 L 249 219 L 241 210 L 239 204 L 239 200 L 238 199 L 238 184 L 240 179 Z M 238 172 L 240 171 L 241 173 L 239 174 Z M 254 170 L 257 169 L 258 171 L 255 172 Z M 243 170 L 245 169 L 246 171 L 244 172 Z M 266 169 L 268 168 L 269 170 L 267 171 Z M 260 169 L 262 168 L 263 170 L 261 171 Z M 248 169 L 251 168 L 252 170 L 249 171 Z M 254 155 L 257 154 L 258 156 L 255 157 Z M 250 151 L 252 150 L 253 152 L 251 153 Z M 255 137 L 257 138 L 257 142 L 260 143 L 259 145 L 253 145 L 252 143 L 254 142 L 254 138 Z M 226 124 L 265 118 L 294 128 L 321 151 L 344 189 L 358 240 L 360 294 L 352 345 L 336 383 L 330 378 L 339 353 L 329 344 L 333 325 L 324 314 L 306 307 L 311 296 L 306 246 L 296 231 L 276 224 L 286 190 L 280 168 L 270 158 L 256 124 L 227 187 L 231 219 L 237 224 L 214 233 L 206 248 L 202 296 L 207 307 L 187 315 L 180 324 L 183 344 L 174 350 L 183 378 L 177 385 L 168 369 L 151 296 L 157 219 L 182 162 L 205 137 Z M 250 58 L 243 64 L 240 71 L 241 80 L 244 85 L 249 89 L 252 90 L 261 90 L 264 89 L 268 86 L 272 80 L 272 77 L 273 76 L 272 68 L 270 64 L 266 60 L 259 57 Z M 254 63 L 259 63 L 263 65 L 267 71 L 267 77 L 266 79 L 262 83 L 257 85 L 252 84 L 246 77 L 246 70 L 247 68 Z M 255 41 L 237 48 L 227 62 L 226 81 L 233 95 L 189 119 L 166 144 L 149 173 L 131 235 L 129 298 L 145 372 L 176 425 L 218 456 L 241 463 L 264 464 L 288 459 L 313 446 L 337 424 L 352 403 L 366 374 L 378 331 L 382 251 L 372 198 L 354 157 L 323 119 L 280 95 L 287 81 L 285 60 L 273 46 Z M 247 99 L 266 99 L 292 106 L 315 120 L 337 142 L 363 189 L 377 256 L 377 296 L 372 334 L 362 369 L 348 399 L 335 418 L 312 440 L 291 452 L 269 458 L 245 458 L 225 453 L 198 438 L 178 419 L 160 392 L 149 367 L 138 328 L 134 294 L 139 222 L 150 185 L 163 159 L 180 136 L 201 117 L 223 105 Z M 243 51 L 255 47 L 263 48 L 270 51 L 279 61 L 282 70 L 281 81 L 278 87 L 271 94 L 266 94 L 265 93 L 248 93 L 247 94 L 242 94 L 235 87 L 232 81 L 231 70 L 234 61 Z" fill="#B88A44" fill-rule="evenodd"/>
</svg>
