<svg xmlns="http://www.w3.org/2000/svg" viewBox="0 0 512 512" >
  <path d="M 158 254 L 149 274 L 150 304 L 171 374 L 187 398 L 224 409 L 288 409 L 314 404 L 331 393 L 343 370 L 364 295 L 360 263 L 345 244 L 322 230 L 297 222 L 329 239 L 349 256 L 356 270 L 358 289 L 352 322 L 331 382 L 312 398 L 286 403 L 216 402 L 200 398 L 184 386 L 161 324 L 155 276 L 161 260 L 175 245 L 215 222 L 181 235 Z M 205 63 L 170 104 L 205 161 L 214 165 L 214 177 L 199 185 L 198 208 L 163 218 L 139 235 L 121 273 L 125 319 L 148 399 L 163 434 L 173 442 L 218 447 L 339 442 L 349 434 L 365 396 L 392 291 L 388 259 L 376 238 L 345 216 L 315 208 L 316 188 L 310 180 L 300 177 L 300 165 L 311 157 L 343 100 L 309 63 Z M 145 242 L 170 225 L 211 213 L 302 213 L 340 224 L 360 235 L 371 246 L 380 264 L 383 293 L 363 374 L 340 431 L 328 435 L 290 438 L 223 438 L 173 432 L 152 383 L 130 297 L 131 269 Z M 206 191 L 207 189 L 210 187 L 236 187 L 237 188 L 304 187 L 307 190 L 308 199 L 307 201 L 302 205 L 279 205 L 278 206 L 212 205 L 209 204 L 206 200 Z M 223 165 L 225 163 L 232 163 L 233 164 L 281 164 L 282 163 L 288 163 L 291 166 L 291 177 L 288 180 L 275 180 L 274 181 L 237 181 L 236 180 L 225 180 L 223 178 Z M 220 111 L 221 110 L 224 110 L 225 111 L 290 111 L 292 110 L 293 111 L 293 114 L 288 126 L 286 134 L 284 137 L 282 145 L 280 148 L 279 153 L 275 156 L 238 156 L 235 154 L 233 150 Z M 329 107 L 330 109 L 305 148 L 304 151 L 299 155 L 286 155 L 285 153 L 288 147 L 290 139 L 292 136 L 300 112 L 302 110 L 305 110 L 306 109 L 315 109 L 316 108 Z M 185 107 L 198 108 L 199 109 L 207 109 L 213 111 L 226 149 L 228 152 L 227 155 L 213 155 L 211 153 L 184 110 Z M 292 73 L 293 72 L 305 72 L 329 98 L 329 100 L 328 101 L 321 101 L 320 102 L 302 103 L 300 100 Z M 219 102 L 229 72 L 284 72 L 286 75 L 288 84 L 294 101 L 293 104 L 278 104 L 277 105 L 236 105 L 235 104 L 220 104 Z M 221 73 L 221 76 L 217 86 L 214 99 L 211 103 L 202 103 L 201 102 L 185 101 L 184 100 L 186 96 L 208 72 L 220 72 Z" fill="#B88A44" fill-rule="evenodd"/>
</svg>
