<svg xmlns="http://www.w3.org/2000/svg" viewBox="0 0 512 512" >
  <path d="M 306 166 L 304 169 L 306 171 L 311 173 L 311 170 Z M 275 154 L 275 156 L 283 163 L 286 163 L 287 164 L 290 164 L 291 163 L 295 163 L 296 164 L 297 163 L 295 156 L 293 153 L 289 150 L 286 150 L 285 149 L 284 150 L 281 150 L 278 153 Z M 282 153 L 284 154 L 284 159 L 283 160 L 279 157 L 279 155 Z M 264 146 L 268 151 L 272 152 L 273 151 L 273 148 L 277 145 L 285 144 L 290 146 L 296 153 L 298 152 L 297 148 L 292 143 L 283 140 L 277 141 L 270 146 L 267 146 L 266 145 Z M 178 49 L 125 96 L 134 147 L 106 176 L 107 225 L 89 263 L 103 276 L 116 247 L 143 280 L 199 259 L 210 304 L 151 302 L 126 316 L 123 342 L 155 409 L 119 434 L 141 443 L 192 435 L 184 370 L 205 377 L 238 420 L 279 387 L 276 376 L 299 385 L 282 402 L 286 444 L 332 451 L 339 436 L 319 417 L 365 407 L 379 391 L 360 344 L 401 327 L 421 293 L 416 255 L 380 216 L 392 214 L 400 195 L 397 171 L 388 164 L 361 213 L 402 266 L 399 299 L 361 323 L 306 312 L 303 300 L 372 295 L 384 272 L 352 230 L 299 206 L 320 181 L 309 126 L 244 63 L 236 107 L 220 136 L 208 135 L 224 179 L 210 184 L 219 203 L 204 202 L 154 234 L 141 211 L 153 183 L 146 164 L 191 117 Z M 330 442 L 332 441 L 333 444 L 331 445 Z M 321 438 L 327 443 L 328 447 L 326 449 L 323 448 L 323 445 L 320 440 Z M 135 429 L 136 430 L 135 437 L 134 438 L 131 438 L 130 437 L 130 434 L 131 432 Z M 192 428 L 187 434 L 184 435 L 168 434 L 160 438 L 141 439 L 138 436 L 139 433 L 142 430 L 151 427 L 147 425 L 142 427 L 134 426 L 132 423 L 146 419 L 158 412 L 174 413 L 185 409 L 187 411 L 192 422 Z M 185 401 L 185 403 L 182 406 L 175 409 L 162 409 L 158 406 L 159 403 L 161 404 L 173 404 L 181 400 L 184 400 Z M 295 400 L 297 399 L 302 409 L 307 413 L 311 414 L 313 417 L 312 418 L 309 418 L 303 415 L 298 410 L 295 403 Z M 289 398 L 292 399 L 293 408 L 298 416 L 307 421 L 315 421 L 318 427 L 322 431 L 327 434 L 326 437 L 321 434 L 319 434 L 317 437 L 313 436 L 313 438 L 315 439 L 320 445 L 320 448 L 316 450 L 314 448 L 312 441 L 309 438 L 302 435 L 299 435 L 298 438 L 299 439 L 303 439 L 309 443 L 310 447 L 307 450 L 298 449 L 294 447 L 290 443 L 287 434 L 287 419 L 285 412 L 285 405 L 287 400 Z M 261 396 L 259 400 L 252 407 L 246 410 L 240 415 L 238 415 L 237 413 L 231 409 L 223 400 L 223 399 L 225 398 L 239 409 L 252 402 L 259 395 Z M 183 391 L 182 395 L 177 399 L 174 400 L 164 401 L 163 400 L 160 400 L 156 397 L 157 394 L 170 394 L 180 389 Z M 303 386 L 305 387 L 305 395 L 308 401 L 314 407 L 320 410 L 319 412 L 313 412 L 309 410 L 302 403 L 300 397 L 300 391 Z M 181 380 L 180 384 L 177 387 L 171 390 L 160 391 L 159 390 L 156 390 L 152 387 L 153 384 L 164 385 L 165 384 L 169 384 L 177 379 L 180 379 Z M 373 370 L 376 379 L 375 391 L 373 395 L 366 402 L 360 405 L 353 406 L 352 407 L 347 407 L 346 408 L 328 408 L 316 404 L 311 399 L 308 392 L 308 387 L 309 386 L 324 385 L 336 389 L 333 385 L 329 383 L 329 381 L 345 369 L 357 363 L 367 363 L 370 365 Z M 367 357 L 366 359 L 357 359 L 347 363 L 336 372 L 322 380 L 315 382 L 309 382 L 308 381 L 309 379 L 314 378 L 322 374 L 340 360 L 351 354 L 363 353 Z M 251 341 L 252 342 L 253 362 L 257 374 L 257 377 L 253 379 L 252 382 L 247 388 L 243 391 L 239 392 L 232 384 L 231 380 L 228 376 L 228 374 L 233 362 L 233 359 L 235 354 L 235 345 L 236 343 L 238 342 L 243 346 L 248 342 Z M 260 337 L 265 366 L 273 386 L 266 389 L 259 388 L 257 392 L 250 399 L 241 404 L 238 404 L 228 396 L 223 386 L 217 386 L 213 384 L 212 381 L 222 366 L 226 353 L 228 338 L 230 337 L 232 339 L 231 355 L 226 371 L 221 379 L 226 380 L 231 389 L 239 396 L 241 396 L 249 391 L 257 381 L 262 382 L 263 379 L 260 374 L 256 358 L 256 339 L 258 337 Z M 240 337 L 241 336 L 246 336 L 247 339 L 243 341 L 240 339 Z M 358 348 L 357 350 L 352 350 L 346 352 L 344 354 L 339 356 L 321 370 L 311 375 L 304 377 L 294 378 L 293 377 L 288 377 L 281 375 L 272 370 L 270 368 L 268 363 L 268 359 L 269 358 L 279 361 L 287 361 L 288 360 L 292 360 L 298 358 L 306 354 L 321 340 L 328 329 L 332 329 L 334 331 L 336 331 L 352 342 Z M 327 324 L 318 338 L 308 348 L 298 354 L 288 357 L 277 357 L 268 354 L 266 352 L 266 349 L 267 348 L 279 352 L 284 352 L 285 351 L 293 350 L 299 347 L 307 341 L 315 332 L 318 326 L 322 322 L 324 322 Z M 243 321 L 249 326 L 249 330 L 245 333 L 242 333 L 238 330 L 238 326 Z M 214 319 L 216 318 L 221 322 L 225 324 L 225 327 L 223 328 L 220 326 Z M 317 321 L 312 330 L 300 342 L 293 346 L 286 347 L 285 348 L 278 348 L 277 347 L 273 347 L 265 342 L 266 339 L 276 337 L 290 330 L 294 327 L 304 316 L 310 317 Z M 301 312 L 297 319 L 288 327 L 283 330 L 270 335 L 266 335 L 264 333 L 264 329 L 265 328 L 276 325 L 284 321 L 290 317 L 297 310 L 299 310 Z M 200 311 L 201 310 L 204 311 L 210 321 L 218 329 L 224 332 L 225 335 L 224 336 L 221 336 L 214 332 L 208 326 L 200 313 Z M 129 318 L 133 314 L 141 310 L 149 309 L 155 311 L 166 321 L 177 340 L 189 352 L 202 358 L 219 357 L 220 361 L 216 370 L 213 374 L 206 374 L 198 372 L 185 366 L 182 363 L 181 356 L 174 344 L 168 339 L 160 336 L 174 350 L 178 359 L 179 372 L 176 376 L 166 381 L 155 381 L 150 379 L 137 361 L 126 339 L 125 329 Z M 174 309 L 175 308 L 182 308 L 183 309 L 187 309 L 194 311 L 197 314 L 205 328 L 212 335 L 219 339 L 223 340 L 224 342 L 220 345 L 216 345 L 215 346 L 209 346 L 200 343 L 188 332 L 182 321 L 175 312 Z M 213 308 L 215 307 L 220 312 L 227 317 L 227 319 L 225 320 L 220 317 L 214 311 Z M 243 306 L 250 312 L 251 314 L 251 319 L 254 317 L 256 317 L 259 322 L 259 330 L 253 337 L 250 337 L 249 336 L 252 332 L 253 327 L 251 323 L 245 317 L 244 314 L 242 315 L 241 318 L 236 323 L 234 327 L 234 329 L 238 336 L 237 337 L 234 336 L 229 329 L 229 322 L 231 318 L 233 317 L 236 319 L 236 314 L 237 312 Z M 157 307 L 158 306 L 165 307 L 175 317 L 181 328 L 189 339 L 196 345 L 206 349 L 218 349 L 219 348 L 222 348 L 223 349 L 222 352 L 218 354 L 209 355 L 208 354 L 202 354 L 191 349 L 180 338 L 170 320 L 166 315 L 158 309 Z M 296 304 L 296 306 L 287 315 L 279 320 L 267 324 L 264 324 L 262 322 L 264 319 L 268 319 L 282 313 L 290 307 L 293 303 Z M 279 276 L 281 277 L 282 280 L 281 282 L 278 280 L 278 277 Z M 326 274 L 328 274 L 331 278 L 333 285 L 332 294 L 327 301 L 325 300 L 325 298 L 328 293 L 328 282 L 325 276 Z M 333 273 L 337 276 L 340 285 L 339 294 L 335 300 L 334 300 L 333 298 L 336 291 L 336 284 L 335 283 L 335 280 L 332 275 Z M 95 269 L 97 268 L 99 269 L 101 272 L 99 274 L 96 274 L 95 273 Z M 248 262 L 249 265 L 238 282 L 226 294 L 219 299 L 214 300 L 213 297 L 222 291 L 235 278 L 243 266 L 243 264 L 245 262 Z M 285 264 L 293 260 L 305 260 L 307 261 L 316 270 L 324 280 L 325 291 L 323 296 L 319 299 L 314 300 L 306 297 L 303 294 L 297 295 L 298 297 L 297 299 L 293 298 L 291 296 L 291 292 L 295 288 L 301 285 L 298 284 L 289 289 L 287 287 L 287 284 L 291 280 L 299 276 L 296 275 L 286 280 L 285 279 L 285 275 L 289 271 L 297 268 L 297 266 L 294 266 L 285 270 L 284 269 Z M 313 260 L 316 259 L 319 261 L 325 268 L 324 269 L 320 269 L 313 262 Z M 93 261 L 96 258 L 102 259 L 108 263 L 108 267 L 105 269 L 99 265 L 94 265 L 93 264 Z M 305 255 L 307 254 L 308 256 L 306 257 Z M 98 253 L 99 252 L 105 252 L 107 253 L 110 257 L 107 258 L 104 256 L 99 255 Z M 341 251 L 342 253 L 338 258 L 335 264 L 335 266 L 332 267 L 331 264 L 335 255 L 338 251 Z M 366 251 L 372 257 L 378 266 L 380 272 L 380 280 L 379 283 L 375 288 L 363 295 L 360 295 L 355 297 L 343 298 L 342 297 L 342 294 L 343 293 L 343 282 L 338 271 L 346 265 L 352 262 L 356 262 L 357 261 L 364 262 L 365 261 L 362 259 L 354 258 L 353 259 L 350 259 L 341 264 L 340 262 L 347 252 L 356 251 L 357 250 Z M 334 246 L 335 247 L 335 250 L 333 252 L 329 260 L 329 262 L 326 263 L 325 262 L 325 259 L 327 256 L 327 254 L 330 249 Z M 242 248 L 245 246 L 247 250 L 249 250 L 254 246 L 255 247 L 255 250 L 254 252 L 247 258 L 243 253 Z M 352 246 L 352 244 L 355 241 L 357 241 L 360 244 L 359 246 L 353 247 Z M 338 241 L 341 239 L 343 243 L 349 245 L 350 247 L 349 248 L 346 248 L 345 247 L 340 248 L 338 246 Z M 266 240 L 262 245 L 260 246 L 257 246 L 256 245 L 262 238 Z M 235 239 L 238 238 L 241 241 L 242 244 L 241 245 L 237 244 L 235 241 Z M 345 240 L 345 236 L 347 234 L 350 234 L 353 237 L 350 241 L 346 241 Z M 163 232 L 166 232 L 174 240 L 178 247 L 180 254 L 180 265 L 178 267 L 176 266 L 176 255 L 174 249 L 169 240 L 162 234 Z M 342 229 L 344 232 L 342 234 L 341 238 L 339 239 L 337 237 L 337 235 L 339 232 L 339 230 Z M 273 230 L 273 233 L 269 237 L 265 236 L 263 234 L 265 231 L 271 229 Z M 250 229 L 252 229 L 254 231 L 254 233 L 251 236 L 249 236 L 247 234 L 247 231 Z M 232 229 L 233 228 L 237 229 L 238 230 L 238 233 L 235 235 L 233 235 L 232 234 Z M 170 228 L 172 228 L 180 236 L 184 243 L 187 253 L 187 261 L 185 263 L 183 262 L 183 258 L 184 257 L 183 256 L 183 252 L 178 240 L 169 230 Z M 262 227 L 263 224 L 266 223 L 269 224 L 268 227 L 265 228 Z M 254 223 L 258 226 L 260 230 L 260 234 L 256 240 L 253 241 L 250 244 L 248 244 L 242 237 L 241 233 L 243 232 L 245 234 L 246 238 L 249 241 L 252 239 L 257 233 L 257 231 L 254 227 L 250 226 L 248 227 L 244 232 L 243 232 L 242 230 L 247 224 L 249 223 Z M 121 230 L 124 228 L 132 227 L 140 222 L 149 234 L 153 242 L 153 256 L 154 256 L 156 252 L 156 248 L 157 247 L 156 239 L 158 237 L 160 237 L 166 242 L 172 254 L 172 258 L 173 259 L 173 265 L 172 267 L 167 270 L 150 275 L 139 276 L 135 274 L 127 264 L 120 247 L 118 237 Z M 288 221 L 288 226 L 285 231 L 278 231 L 275 229 L 275 228 L 279 225 L 283 226 L 283 223 L 286 220 Z M 221 221 L 224 219 L 226 221 L 225 226 L 230 225 L 232 228 L 229 230 L 222 230 L 221 229 Z M 138 217 L 138 218 L 132 223 L 129 224 L 125 224 L 124 223 L 126 220 L 132 219 L 136 216 Z M 335 226 L 335 232 L 330 236 L 329 245 L 321 258 L 307 250 L 310 245 L 309 243 L 305 246 L 298 256 L 290 257 L 284 260 L 278 267 L 268 267 L 269 269 L 277 271 L 275 274 L 275 282 L 277 285 L 284 288 L 290 300 L 283 308 L 274 313 L 260 316 L 258 312 L 254 312 L 244 300 L 242 300 L 233 311 L 226 312 L 219 306 L 219 303 L 233 293 L 242 283 L 252 267 L 258 251 L 264 248 L 276 234 L 288 235 L 292 223 L 294 221 L 302 219 L 302 217 L 307 212 L 318 213 L 326 217 Z M 107 211 L 109 210 L 111 213 L 109 214 Z M 290 217 L 292 214 L 295 213 L 293 211 L 294 209 L 296 210 L 301 210 L 302 211 L 298 216 L 294 218 L 291 218 Z M 201 209 L 205 209 L 208 212 L 206 217 L 211 216 L 217 220 L 218 228 L 217 233 L 218 234 L 228 234 L 231 238 L 233 245 L 239 249 L 239 252 L 242 257 L 237 269 L 232 276 L 216 291 L 213 289 L 209 281 L 206 272 L 206 267 L 208 266 L 216 269 L 221 269 L 223 267 L 219 267 L 210 264 L 202 257 L 199 251 L 197 239 L 201 221 L 197 225 L 194 233 L 194 247 L 196 252 L 196 255 L 194 257 L 192 257 L 190 255 L 189 249 L 190 238 L 189 236 L 180 230 L 182 222 L 189 215 Z M 137 210 L 134 214 L 130 216 L 128 215 L 128 213 L 130 211 L 132 211 L 135 209 Z M 289 209 L 288 213 L 280 221 L 274 225 L 271 225 L 270 224 L 271 221 L 280 216 L 287 208 Z M 211 209 L 212 208 L 217 208 L 218 209 L 217 211 L 221 213 L 222 216 L 221 217 L 216 216 L 212 212 Z M 225 207 L 228 206 L 232 216 L 236 220 L 242 223 L 240 226 L 235 225 L 229 220 L 224 210 Z M 121 201 L 125 203 L 127 206 L 117 230 L 117 232 L 115 235 L 112 245 L 110 249 L 108 250 L 105 249 L 103 247 L 103 245 L 107 236 L 110 225 L 112 222 L 114 214 L 116 211 L 117 206 L 119 202 Z M 284 201 L 286 199 L 290 199 L 297 203 L 298 205 L 297 206 L 294 206 L 291 204 L 287 204 L 285 203 Z M 233 209 L 237 207 L 239 202 L 247 195 L 249 191 L 256 192 L 259 195 L 268 199 L 279 199 L 280 200 L 280 211 L 274 216 L 261 221 L 257 221 L 254 219 L 244 220 L 237 216 Z M 239 185 L 240 187 L 238 190 L 236 191 L 235 188 L 237 185 Z M 215 192 L 216 190 L 219 191 L 224 189 L 226 190 L 227 189 L 226 185 L 228 183 L 232 184 L 233 187 L 228 193 L 224 194 L 224 195 L 226 196 L 235 195 L 241 190 L 243 186 L 246 187 L 244 193 L 239 198 L 232 201 L 227 201 L 221 199 Z M 148 177 L 149 178 L 149 184 L 146 190 L 146 192 L 142 198 L 137 202 L 136 201 L 136 198 L 141 192 L 141 189 L 144 185 L 145 179 Z M 392 172 L 392 186 L 396 188 L 396 195 L 388 205 L 387 210 L 382 208 L 385 203 L 384 201 L 377 206 L 376 217 L 380 224 L 401 242 L 411 254 L 418 272 L 417 294 L 409 312 L 395 327 L 375 337 L 354 339 L 332 324 L 358 327 L 376 323 L 386 318 L 398 307 L 407 289 L 408 275 L 403 259 L 399 253 L 374 230 L 365 213 L 365 201 L 368 194 Z M 140 165 L 144 170 L 144 174 L 143 175 L 135 170 L 126 169 L 127 171 L 136 174 L 141 179 L 141 183 L 140 184 L 138 184 L 131 179 L 123 178 L 124 180 L 126 180 L 134 184 L 137 187 L 137 192 L 134 193 L 127 188 L 120 187 L 121 189 L 130 193 L 132 195 L 133 199 L 131 201 L 128 201 L 123 198 L 116 196 L 115 197 L 114 206 L 111 207 L 109 205 L 107 200 L 107 185 L 110 176 L 113 171 L 120 164 L 130 162 L 131 163 L 136 163 Z M 232 156 L 236 157 L 239 160 L 237 164 L 237 167 L 239 170 L 243 172 L 242 174 L 238 174 L 234 171 L 231 164 L 231 157 Z M 305 150 L 307 149 L 308 151 L 306 152 Z M 139 146 L 142 146 L 148 150 L 143 162 L 136 160 L 134 158 L 137 148 Z M 255 142 L 256 143 L 255 145 L 255 157 L 259 165 L 254 170 L 251 177 L 252 185 L 250 186 L 246 181 L 246 173 L 249 168 L 253 165 L 253 163 L 251 161 L 249 155 L 249 147 Z M 215 140 L 233 145 L 240 149 L 245 154 L 247 161 L 249 163 L 248 165 L 246 165 L 244 163 L 243 159 L 238 154 L 232 151 L 224 149 L 224 151 L 228 156 L 228 167 L 230 171 L 235 176 L 239 178 L 242 178 L 243 179 L 242 182 L 233 181 L 230 177 L 226 176 L 223 172 L 226 168 L 222 166 L 218 160 L 218 158 L 221 157 L 222 155 L 218 152 L 215 147 L 215 143 L 214 142 Z M 135 140 L 137 138 L 147 139 L 154 144 L 154 147 L 152 148 L 147 144 L 141 142 L 136 143 Z M 267 135 L 284 134 L 288 135 L 296 140 L 299 138 L 301 138 L 303 140 L 305 146 L 302 150 L 302 157 L 306 162 L 311 163 L 316 167 L 314 170 L 314 173 L 317 174 L 316 181 L 313 184 L 309 184 L 299 180 L 289 180 L 286 178 L 284 180 L 288 183 L 298 183 L 307 187 L 311 187 L 312 189 L 304 199 L 302 200 L 297 199 L 289 192 L 284 190 L 279 185 L 279 177 L 282 173 L 278 174 L 275 179 L 275 184 L 277 188 L 283 193 L 282 195 L 277 196 L 267 195 L 261 192 L 259 190 L 259 188 L 256 186 L 255 183 L 256 173 L 263 166 L 258 155 L 258 147 L 262 139 Z M 302 133 L 304 132 L 306 135 L 304 136 Z M 135 132 L 137 130 L 146 130 L 155 134 L 160 139 L 160 141 L 157 142 L 150 136 L 143 134 L 136 134 Z M 289 130 L 291 129 L 295 132 L 298 131 L 299 133 L 297 135 L 295 135 L 291 133 Z M 285 128 L 284 130 L 272 130 L 262 133 L 253 138 L 244 147 L 241 145 L 243 141 L 251 134 L 260 129 L 266 127 L 270 127 L 271 126 L 283 126 Z M 303 123 L 305 126 L 304 129 L 301 127 L 301 124 Z M 133 124 L 136 121 L 147 121 L 159 126 L 165 131 L 166 137 L 164 138 L 160 133 L 154 129 L 145 126 L 137 126 L 134 127 Z M 293 120 L 294 120 L 297 124 L 296 127 L 293 127 L 291 125 L 291 122 Z M 230 120 L 232 122 L 232 125 L 235 130 L 235 132 L 231 136 L 230 139 L 228 140 L 224 138 L 224 132 L 228 121 Z M 281 119 L 281 122 L 280 123 L 268 123 L 267 124 L 264 124 L 248 132 L 242 137 L 238 142 L 234 142 L 233 141 L 235 137 L 243 129 L 252 123 L 267 118 L 280 118 Z M 292 110 L 294 113 L 289 121 L 286 123 L 285 122 L 285 118 L 287 114 Z M 281 107 L 282 107 L 285 111 L 283 114 L 278 114 L 277 112 Z M 249 104 L 250 105 L 250 114 L 252 117 L 252 119 L 237 129 L 235 127 L 235 125 L 233 122 L 233 115 L 239 109 Z M 253 116 L 252 104 L 255 102 L 270 102 L 271 103 L 274 103 L 278 106 L 276 109 L 272 107 L 275 112 L 274 114 L 264 115 L 256 118 Z M 184 98 L 186 100 L 187 107 L 188 108 L 186 120 L 183 125 L 177 131 L 171 133 L 169 131 L 168 127 L 175 120 L 178 115 L 178 113 L 180 110 L 182 99 Z M 241 102 L 244 98 L 249 96 L 252 96 L 253 95 L 264 95 L 265 96 L 264 98 L 252 99 L 243 103 Z M 255 89 L 253 92 L 250 92 L 244 95 L 241 94 L 242 91 L 245 89 L 248 89 L 249 88 L 254 88 Z M 170 86 L 177 91 L 178 94 L 178 103 L 177 104 L 177 108 L 172 118 L 164 125 L 160 122 L 156 121 L 154 119 L 154 116 L 158 103 L 165 88 L 167 86 Z M 142 84 L 143 86 L 140 89 L 135 101 L 135 117 L 132 119 L 128 113 L 127 102 L 132 91 L 136 87 Z M 161 83 L 163 85 L 163 87 L 157 97 L 152 111 L 151 117 L 150 118 L 140 117 L 138 113 L 138 105 L 142 93 L 144 90 L 153 82 Z M 156 77 L 158 75 L 160 75 L 161 76 L 165 76 L 171 78 L 178 82 L 181 86 L 179 87 L 168 81 L 161 79 L 157 79 Z M 246 73 L 248 72 L 257 82 L 255 84 L 244 85 L 243 83 L 246 78 Z M 161 69 L 164 67 L 173 69 L 179 72 L 181 75 L 181 77 L 178 78 L 171 74 L 162 72 Z M 177 55 L 179 56 L 179 59 L 180 60 L 180 66 L 179 67 L 176 67 L 173 65 L 171 65 L 169 63 L 169 62 Z" fill="#B88A44" fill-rule="evenodd"/>
</svg>
