<svg xmlns="http://www.w3.org/2000/svg" viewBox="0 0 512 512" >
  <path d="M 369 412 L 352 419 L 343 420 L 342 421 L 329 421 L 329 422 L 335 422 L 336 423 L 350 422 L 366 415 L 369 413 Z M 270 390 L 270 391 L 276 392 L 284 396 L 302 407 L 323 414 L 327 414 L 328 415 L 346 415 L 347 414 L 351 414 L 357 412 L 362 409 L 352 412 L 345 412 L 344 413 L 334 413 L 333 412 L 321 411 L 303 405 L 279 391 Z M 146 327 L 146 341 L 147 341 L 148 333 L 147 332 L 147 327 Z M 353 298 L 345 301 L 338 308 L 330 324 L 320 333 L 326 331 L 332 325 L 340 309 L 348 301 L 353 299 Z M 251 233 L 252 242 L 249 249 L 249 257 L 252 264 L 253 264 L 251 259 L 251 249 L 253 244 L 253 237 Z M 324 230 L 315 275 L 313 319 L 309 329 L 269 355 L 254 359 L 233 357 L 246 361 L 258 361 L 269 358 L 307 335 L 315 327 L 321 316 L 326 298 L 344 270 L 349 258 L 349 254 L 341 271 L 328 288 L 320 310 L 318 311 L 317 284 Z M 144 224 L 143 224 L 143 234 L 139 246 L 139 260 L 142 268 L 142 275 L 143 275 L 143 267 L 140 257 L 140 248 L 144 236 L 144 231 L 145 230 Z M 249 195 L 249 203 L 245 213 L 245 220 L 249 230 L 250 229 L 247 222 L 247 212 L 250 204 L 250 196 Z M 238 195 L 237 201 L 234 207 L 234 216 L 237 222 L 237 219 L 236 218 L 236 206 L 238 202 Z M 244 167 L 241 172 L 240 184 L 238 190 L 241 186 L 243 173 L 247 168 L 248 168 L 251 172 L 261 172 L 266 168 L 270 174 L 271 177 L 271 185 L 273 188 L 273 190 L 275 192 L 273 186 L 273 176 L 270 169 L 264 163 L 263 164 L 260 164 L 256 161 L 254 163 L 248 164 Z M 251 167 L 252 166 L 254 167 L 261 166 L 262 169 L 261 170 L 252 170 Z M 264 137 L 268 140 L 275 140 L 278 138 L 279 136 L 276 136 L 275 137 L 265 136 Z M 233 136 L 233 137 L 238 140 L 244 140 L 248 138 L 247 136 L 244 137 Z M 262 128 L 262 130 L 266 130 L 271 128 L 278 128 L 282 130 L 282 128 L 276 123 L 271 123 L 265 125 Z M 266 41 L 249 42 L 236 55 L 233 78 L 216 98 L 215 121 L 210 125 L 219 176 L 182 191 L 169 205 L 155 274 L 150 259 L 155 230 L 150 195 L 156 179 L 152 156 L 140 148 L 127 157 L 133 175 L 129 205 L 135 224 L 135 279 L 127 284 L 125 307 L 137 326 L 137 343 L 108 361 L 101 384 L 108 407 L 137 429 L 142 447 L 151 444 L 153 434 L 189 437 L 206 446 L 251 431 L 292 440 L 342 441 L 386 427 L 409 398 L 409 369 L 370 289 L 344 199 L 334 189 L 296 173 L 303 132 L 298 102 L 282 79 L 279 51 Z M 196 438 L 198 437 L 199 439 L 197 440 Z M 266 427 L 267 426 L 281 423 L 285 427 L 296 433 L 297 435 L 296 436 L 292 436 L 291 435 L 282 434 L 278 432 L 267 429 Z M 275 418 L 274 421 L 268 422 L 254 427 L 251 427 L 228 436 L 225 436 L 220 438 L 215 438 L 207 441 L 206 439 L 209 437 L 206 437 L 202 439 L 199 438 L 200 436 L 206 433 L 207 431 L 197 435 L 193 435 L 191 433 L 192 430 L 195 430 L 196 431 L 199 430 L 208 424 L 208 423 L 204 424 L 197 428 L 195 428 L 193 426 L 194 420 L 205 411 L 209 409 L 216 409 L 217 408 L 220 409 L 240 408 L 248 401 L 256 401 L 258 402 Z M 140 387 L 142 386 L 143 388 L 141 389 Z M 383 384 L 385 383 L 386 385 L 384 386 Z M 267 382 L 260 390 L 254 392 L 247 398 L 245 397 L 245 395 L 254 385 L 259 382 L 262 382 L 263 381 L 266 381 Z M 140 381 L 142 380 L 143 383 L 141 384 Z M 132 349 L 135 349 L 136 350 L 136 355 L 138 362 L 138 376 L 136 382 L 136 398 L 137 399 L 137 405 L 138 406 L 138 418 L 136 423 L 127 420 L 120 415 L 114 409 L 107 396 L 106 387 L 105 386 L 106 374 L 112 362 L 121 354 Z M 152 429 L 154 420 L 154 402 L 152 395 L 155 376 L 154 345 L 171 347 L 183 351 L 202 363 L 201 365 L 190 362 L 170 362 L 167 364 L 190 365 L 233 380 L 223 388 L 198 399 L 182 402 L 166 402 L 179 404 L 197 402 L 209 398 L 240 381 L 248 379 L 254 380 L 233 404 L 207 406 L 195 414 L 190 421 L 188 432 L 185 434 L 167 434 Z M 255 396 L 265 391 L 273 383 L 304 370 L 323 365 L 344 364 L 324 362 L 306 365 L 322 354 L 339 349 L 336 348 L 319 353 L 291 372 L 282 374 L 307 349 L 328 341 L 355 343 L 352 355 L 358 379 L 366 380 L 365 388 L 369 393 L 378 395 L 393 384 L 401 364 L 407 376 L 404 401 L 393 417 L 377 427 L 351 429 L 352 432 L 348 435 L 337 438 L 316 437 L 293 428 Z M 340 335 L 342 333 L 344 328 L 347 327 L 357 338 L 355 339 L 354 338 L 341 337 Z M 143 321 L 150 322 L 151 330 L 149 346 L 151 377 L 148 391 L 150 402 L 150 420 L 148 427 L 148 441 L 146 443 L 141 442 L 140 426 L 143 426 L 144 432 L 146 418 L 145 405 L 144 422 L 142 423 L 142 408 L 139 392 L 142 391 L 143 394 L 144 393 L 144 382 L 147 369 L 144 348 L 143 354 L 145 362 L 145 375 L 144 379 L 142 380 L 140 343 L 141 323 Z M 379 319 L 381 318 L 382 320 L 380 321 Z M 378 316 L 380 315 L 381 317 L 379 318 Z M 359 309 L 366 309 L 372 313 L 378 326 L 396 353 L 396 371 L 393 375 L 393 362 L 391 356 L 390 373 L 386 383 L 384 382 L 386 374 L 386 361 L 384 355 L 384 370 L 381 384 L 377 391 L 375 390 L 378 377 L 377 357 L 376 355 L 375 380 L 373 387 L 370 389 L 370 370 L 365 352 L 363 352 L 363 363 L 365 371 L 362 376 L 360 375 L 356 359 L 356 350 L 362 333 L 359 334 L 347 322 L 349 317 Z M 254 303 L 255 302 L 258 302 L 259 303 L 259 306 L 258 307 L 255 307 L 254 306 Z M 262 300 L 265 299 L 267 302 L 265 304 L 263 304 L 262 303 Z M 246 301 L 248 299 L 250 299 L 251 300 L 251 303 L 248 304 Z M 267 294 L 268 293 L 271 293 L 272 296 L 269 298 L 267 296 Z M 241 294 L 244 293 L 246 296 L 244 298 L 242 298 L 241 297 Z M 271 287 L 274 286 L 276 289 L 273 291 L 271 289 Z M 237 287 L 240 286 L 241 289 L 238 290 Z M 234 286 L 234 290 L 236 293 L 224 304 L 207 313 L 203 313 L 202 314 L 200 313 L 199 305 L 198 304 L 198 298 L 199 297 L 201 298 L 208 297 L 222 290 L 230 284 L 232 284 Z M 134 283 L 144 283 L 145 284 L 149 284 L 152 287 L 152 290 L 151 291 L 136 291 L 135 292 L 137 293 L 148 293 L 151 294 L 154 297 L 154 300 L 153 301 L 148 301 L 147 300 L 136 301 L 137 303 L 151 303 L 154 305 L 154 308 L 153 309 L 138 310 L 137 312 L 152 312 L 153 315 L 151 317 L 135 320 L 131 316 L 131 311 L 129 308 L 128 295 L 130 292 L 130 286 Z M 153 280 L 156 280 L 159 283 L 159 293 L 158 294 L 155 292 L 155 288 L 152 283 Z M 274 280 L 277 279 L 278 280 L 278 283 L 276 284 L 274 282 Z M 234 280 L 235 279 L 238 279 L 239 282 L 238 283 L 235 283 Z M 251 278 L 254 282 L 254 285 L 252 288 L 247 292 L 244 289 L 244 285 L 247 281 Z M 195 276 L 197 278 L 199 290 L 194 297 L 194 303 L 196 308 L 196 312 L 192 316 L 191 319 L 191 327 L 186 330 L 182 335 L 168 336 L 155 341 L 154 340 L 154 336 L 155 335 L 154 328 L 155 327 L 160 329 L 168 329 L 176 325 L 180 320 L 190 291 L 193 277 Z M 276 273 L 279 271 L 281 273 L 281 275 L 280 276 L 277 276 Z M 231 273 L 233 271 L 235 271 L 236 272 L 236 275 L 233 276 Z M 246 269 L 247 270 L 247 278 L 246 280 L 243 282 L 241 280 L 240 275 L 242 272 Z M 280 263 L 283 264 L 283 267 L 281 269 L 278 267 L 278 265 Z M 229 264 L 230 263 L 233 263 L 234 264 L 234 267 L 231 268 L 229 266 Z M 277 258 L 278 261 L 276 263 L 276 269 L 273 273 L 273 277 L 271 280 L 271 283 L 269 285 L 268 290 L 266 291 L 265 294 L 259 299 L 254 299 L 249 296 L 248 294 L 256 286 L 258 286 L 261 284 L 261 278 L 270 267 L 275 259 Z M 229 259 L 231 258 L 232 260 L 230 261 Z M 282 254 L 285 255 L 285 258 L 283 260 L 280 259 L 280 257 Z M 274 253 L 275 255 L 272 260 L 270 261 L 269 259 L 272 254 Z M 226 252 L 227 250 L 229 249 L 232 253 L 230 255 L 228 255 Z M 282 249 L 285 248 L 286 251 L 284 252 Z M 233 245 L 239 248 L 239 255 L 241 260 L 244 263 L 244 266 L 240 270 L 237 269 L 237 264 L 234 258 L 234 250 L 232 248 Z M 279 243 L 280 246 L 277 252 L 275 253 L 274 251 L 277 244 Z M 282 243 L 284 241 L 287 242 L 286 245 L 283 245 Z M 225 241 L 228 240 L 230 242 L 230 245 L 227 246 L 225 244 Z M 231 237 L 234 236 L 235 237 L 235 240 L 233 241 L 231 239 Z M 284 235 L 285 234 L 288 234 L 289 237 L 286 239 L 284 237 Z M 226 231 L 229 233 L 229 235 L 227 237 L 224 236 L 224 233 Z M 285 230 L 288 229 L 289 231 L 286 232 Z M 282 227 L 283 229 L 281 234 L 281 240 L 280 242 L 278 243 L 277 242 L 277 232 L 280 228 Z M 222 225 L 224 223 L 226 223 L 228 225 L 228 227 L 227 228 L 224 228 Z M 285 225 L 285 223 L 287 221 L 289 221 L 291 223 L 289 226 L 286 226 Z M 222 215 L 225 214 L 227 218 L 226 219 L 223 219 L 222 218 Z M 288 211 L 291 212 L 291 216 L 289 218 L 287 217 L 287 212 Z M 289 206 L 291 205 L 292 207 L 290 208 Z M 221 206 L 223 205 L 224 208 L 222 209 Z M 221 197 L 223 196 L 225 199 L 222 200 Z M 220 180 L 220 194 L 218 197 L 220 202 L 218 206 L 220 211 L 219 219 L 221 221 L 222 245 L 225 248 L 223 252 L 231 279 L 219 288 L 206 294 L 203 293 L 198 263 L 200 262 L 206 267 L 210 267 L 200 258 L 195 248 L 191 231 L 188 229 L 194 252 L 194 261 L 177 318 L 171 324 L 156 324 L 154 319 L 157 314 L 158 297 L 163 293 L 166 294 L 175 306 L 174 299 L 163 289 L 159 278 L 170 212 L 176 201 L 184 194 Z M 293 180 L 295 179 L 296 182 L 294 183 Z M 339 198 L 366 285 L 349 286 L 334 300 L 359 288 L 371 295 L 379 315 L 367 306 L 353 308 L 333 337 L 309 344 L 265 377 L 228 366 L 242 377 L 227 375 L 193 353 L 163 343 L 227 324 L 239 313 L 209 329 L 196 329 L 195 318 L 218 311 L 236 297 L 248 307 L 265 310 L 244 331 L 217 338 L 238 337 L 256 324 L 284 274 L 303 178 L 311 193 L 307 239 L 294 296 L 281 325 L 263 342 L 244 348 L 191 338 L 231 351 L 250 350 L 271 340 L 296 298 L 310 233 L 313 186 Z M 219 168 L 221 167 L 222 169 L 220 170 Z M 227 152 L 233 167 L 233 183 L 236 166 L 242 158 L 267 156 L 276 164 L 279 184 L 279 168 L 282 159 L 285 158 L 286 152 L 289 156 L 290 164 L 287 164 L 291 187 L 290 197 L 287 197 L 283 182 L 284 214 L 280 221 L 274 200 L 277 212 L 273 235 L 274 244 L 266 258 L 266 267 L 263 268 L 261 258 L 267 246 L 268 210 L 264 227 L 265 245 L 259 259 L 260 271 L 257 280 L 253 276 L 254 269 L 250 270 L 242 254 L 244 240 L 240 226 L 241 241 L 239 242 L 227 208 L 230 181 L 225 189 L 224 178 L 227 166 L 224 162 Z M 140 152 L 145 152 L 148 155 L 147 161 L 152 173 L 151 184 L 146 196 L 146 203 L 151 219 L 151 230 L 146 253 L 147 264 L 149 271 L 149 279 L 148 280 L 140 280 L 139 279 L 139 273 L 135 258 L 135 251 L 139 233 L 139 223 L 141 219 L 141 213 L 139 208 L 140 217 L 138 218 L 133 206 L 133 194 L 137 182 L 137 175 L 132 167 L 130 161 L 131 158 L 135 154 Z M 293 145 L 294 146 L 293 153 L 291 154 L 289 148 Z M 219 144 L 220 144 L 222 147 L 223 146 L 225 147 L 224 149 L 224 154 L 222 158 L 220 157 L 220 151 L 218 147 Z M 222 143 L 224 142 L 225 145 L 223 146 Z M 288 142 L 290 141 L 291 143 L 289 144 Z M 216 131 L 219 135 L 219 141 L 218 142 L 216 141 L 214 135 L 214 132 Z M 298 130 L 299 133 L 297 139 L 295 140 L 293 136 L 295 132 Z M 294 127 L 296 125 L 299 126 L 298 129 L 295 129 Z M 213 127 L 215 125 L 217 125 L 219 128 L 218 129 L 214 129 Z M 234 102 L 245 102 L 252 103 L 255 105 L 267 102 L 278 102 L 282 105 L 285 112 L 286 143 L 285 147 L 281 153 L 279 163 L 272 156 L 267 154 L 266 150 L 264 148 L 263 153 L 260 153 L 258 155 L 255 155 L 252 151 L 254 143 L 253 132 L 249 126 L 241 123 L 237 123 L 233 125 L 230 129 L 231 130 L 235 128 L 242 128 L 249 130 L 252 135 L 252 144 L 251 147 L 247 149 L 246 153 L 244 155 L 241 156 L 235 163 L 233 162 L 232 153 L 229 150 L 227 145 L 226 125 L 228 120 L 228 110 Z M 220 98 L 224 91 L 232 83 L 242 78 L 262 77 L 273 79 L 282 84 L 292 96 L 295 105 L 294 123 L 289 129 L 287 119 L 290 116 L 291 110 L 289 113 L 287 112 L 287 99 L 285 104 L 280 101 L 283 94 L 277 99 L 274 99 L 273 97 L 275 94 L 275 89 L 271 97 L 266 100 L 266 87 L 264 96 L 260 101 L 256 103 L 248 96 L 246 87 L 246 100 L 239 94 L 237 88 L 239 98 L 235 99 L 230 94 L 232 101 L 229 104 L 227 104 L 225 100 L 224 101 L 227 108 L 225 114 L 222 110 L 222 115 L 225 119 L 224 126 L 222 127 L 218 121 L 217 114 Z M 277 73 L 279 74 L 279 77 L 278 78 L 276 77 L 276 74 Z M 236 74 L 238 73 L 239 75 L 237 76 Z M 269 75 L 271 72 L 274 73 L 272 76 Z M 242 72 L 245 71 L 246 74 L 243 75 Z M 262 72 L 265 70 L 267 72 L 267 74 L 264 75 Z M 255 71 L 256 70 L 259 70 L 260 73 L 257 75 L 255 73 Z M 248 72 L 250 70 L 253 71 L 253 73 L 251 75 L 250 75 Z M 239 57 L 242 52 L 249 46 L 254 44 L 263 44 L 270 47 L 276 53 L 278 59 L 278 65 L 276 69 L 272 69 L 271 68 L 273 63 L 273 58 L 272 57 L 271 64 L 267 68 L 265 67 L 264 68 L 261 68 L 260 67 L 256 67 L 255 68 L 250 67 L 246 62 L 246 55 L 244 59 L 246 67 L 244 68 L 242 66 L 242 64 L 240 65 L 238 64 Z" fill="#B88A44" fill-rule="evenodd"/>
</svg>
