<svg xmlns="http://www.w3.org/2000/svg" viewBox="0 0 512 512" >
  <path d="M 194 398 L 201 405 L 204 405 L 205 406 L 210 406 L 228 399 L 236 400 L 251 406 L 262 406 L 269 404 L 274 401 L 281 400 L 282 399 L 290 400 L 300 405 L 309 406 L 315 404 L 320 399 L 320 397 L 317 397 L 311 400 L 303 400 L 289 394 L 279 394 L 272 396 L 267 399 L 260 400 L 259 401 L 249 400 L 235 394 L 225 394 L 211 400 L 203 400 L 197 397 Z M 184 379 L 195 386 L 204 388 L 205 387 L 211 387 L 225 381 L 234 381 L 253 388 L 265 387 L 279 381 L 289 381 L 297 385 L 310 388 L 319 386 L 329 381 L 331 378 L 330 376 L 326 376 L 313 382 L 302 381 L 295 377 L 288 375 L 276 376 L 262 382 L 251 382 L 233 375 L 222 376 L 208 382 L 197 381 L 189 376 L 185 376 Z M 182 359 L 183 362 L 190 366 L 199 369 L 207 369 L 227 362 L 236 363 L 252 369 L 262 369 L 281 362 L 291 363 L 302 368 L 314 369 L 324 366 L 332 361 L 332 358 L 329 357 L 316 363 L 305 363 L 291 357 L 278 357 L 264 363 L 256 364 L 250 363 L 235 357 L 223 357 L 209 363 L 198 363 L 192 361 L 186 357 L 184 357 Z M 248 238 L 245 239 L 242 243 L 242 265 L 241 266 L 219 266 L 216 269 L 216 291 L 220 294 L 241 294 L 242 295 L 242 344 L 243 347 L 246 349 L 268 349 L 271 345 L 271 295 L 295 293 L 297 291 L 298 282 L 297 269 L 294 266 L 272 266 L 270 241 L 264 238 L 261 239 Z M 254 244 L 259 244 L 260 245 L 262 244 L 265 246 L 265 269 L 269 272 L 290 272 L 291 273 L 291 287 L 290 288 L 268 288 L 265 291 L 265 342 L 264 343 L 249 343 L 248 342 L 248 290 L 246 288 L 223 288 L 222 287 L 222 273 L 223 272 L 244 272 L 248 269 L 248 246 Z M 249 52 L 244 69 L 228 72 L 229 90 L 245 93 L 245 111 L 227 126 L 224 147 L 210 156 L 210 165 L 220 182 L 218 207 L 175 261 L 159 291 L 153 316 L 155 356 L 170 394 L 199 427 L 186 440 L 189 455 L 323 456 L 328 441 L 314 427 L 338 402 L 353 374 L 360 345 L 359 308 L 341 265 L 302 219 L 294 202 L 294 178 L 303 165 L 303 157 L 289 147 L 290 137 L 284 123 L 268 111 L 268 93 L 285 88 L 285 73 L 282 69 L 268 68 L 266 53 Z M 191 444 L 192 441 L 198 436 L 316 436 L 320 439 L 322 443 L 322 447 L 320 450 L 194 450 L 192 448 Z M 226 173 L 289 174 L 287 200 L 291 213 L 332 263 L 350 298 L 354 317 L 351 360 L 336 394 L 308 424 L 307 430 L 206 430 L 205 424 L 178 395 L 163 362 L 159 339 L 159 319 L 163 299 L 180 265 L 222 214 L 227 193 Z M 216 159 L 219 155 L 294 155 L 297 159 L 297 162 L 296 164 L 292 167 L 221 167 L 216 163 Z M 230 136 L 233 129 L 241 121 L 251 117 L 263 117 L 272 121 L 280 129 L 283 136 L 283 146 L 281 148 L 231 148 L 230 147 Z M 253 58 L 259 58 L 261 60 L 261 72 L 263 75 L 266 76 L 277 76 L 278 77 L 278 84 L 277 85 L 264 85 L 261 89 L 261 109 L 260 110 L 253 110 L 252 109 L 252 88 L 249 85 L 236 85 L 235 84 L 235 77 L 236 76 L 247 76 L 251 74 L 252 72 L 252 59 Z" fill="#B88A44" fill-rule="evenodd"/>
</svg>
