<svg xmlns="http://www.w3.org/2000/svg" viewBox="0 0 512 512" >
  <path d="M 258 444 L 256 446 L 256 449 L 257 450 L 260 450 L 261 449 L 261 446 Z M 243 425 L 258 441 L 273 427 L 273 424 L 272 423 L 269 424 L 267 427 L 258 435 L 246 423 Z M 257 396 L 255 398 L 255 400 L 257 402 L 256 404 L 256 409 L 255 410 L 248 410 L 246 413 L 247 414 L 255 414 L 256 415 L 256 427 L 259 428 L 260 427 L 260 415 L 261 414 L 270 414 L 271 412 L 269 410 L 261 410 L 260 409 L 260 402 L 262 399 L 260 396 Z M 257 296 L 256 297 L 256 300 L 257 301 L 260 301 L 261 300 L 261 297 L 260 296 Z M 271 265 L 269 269 L 271 271 L 273 271 L 275 269 L 275 267 L 273 265 Z M 258 265 L 256 266 L 255 268 L 256 270 L 259 271 L 261 269 L 261 267 Z M 244 265 L 242 267 L 242 269 L 245 271 L 247 270 L 247 266 Z M 254 238 L 253 239 L 253 242 L 256 244 L 258 242 L 258 239 L 257 238 Z M 237 187 L 236 188 L 236 191 L 240 192 L 242 189 L 240 187 Z M 254 143 L 254 153 L 251 154 L 246 160 L 247 168 L 254 173 L 254 187 L 253 188 L 245 188 L 246 191 L 253 191 L 254 192 L 254 206 L 244 216 L 244 218 L 245 219 L 252 213 L 254 214 L 254 223 L 246 231 L 247 233 L 249 233 L 255 227 L 262 233 L 264 233 L 265 232 L 257 223 L 257 214 L 259 213 L 265 219 L 267 218 L 267 216 L 257 206 L 257 192 L 258 191 L 265 191 L 267 189 L 269 189 L 271 192 L 274 192 L 275 188 L 271 187 L 269 189 L 257 187 L 257 173 L 264 168 L 265 160 L 260 154 L 257 153 L 257 143 Z M 251 158 L 253 157 L 258 157 L 261 160 L 262 164 L 258 169 L 253 169 L 249 165 L 249 161 Z M 243 127 L 244 132 L 248 136 L 253 138 L 261 137 L 264 135 L 268 130 L 268 127 L 266 126 L 260 133 L 258 134 L 253 134 L 251 133 L 245 126 Z M 254 120 L 252 122 L 252 125 L 254 127 L 257 127 L 259 125 L 259 122 L 257 120 Z M 254 109 L 253 110 L 253 113 L 254 114 L 257 114 L 258 113 L 258 110 L 257 109 Z M 288 46 L 259 71 L 245 90 L 228 125 L 222 152 L 222 179 L 230 237 L 226 279 L 236 293 L 226 348 L 236 396 L 232 437 L 238 448 L 257 464 L 278 449 L 285 435 L 281 394 L 289 367 L 290 343 L 281 289 L 290 280 L 290 256 L 281 254 L 286 179 L 279 134 L 279 101 L 290 49 Z M 255 309 L 265 310 L 272 316 L 275 323 L 274 334 L 259 355 L 250 349 L 243 349 L 237 354 L 235 361 L 239 370 L 252 383 L 240 365 L 239 358 L 246 352 L 255 358 L 257 393 L 260 392 L 262 357 L 271 352 L 278 359 L 265 383 L 281 364 L 280 354 L 270 348 L 280 326 L 286 348 L 285 364 L 276 397 L 280 436 L 276 444 L 259 459 L 245 449 L 236 435 L 241 401 L 231 360 L 231 344 L 237 320 L 241 333 L 250 340 L 262 339 L 269 330 L 267 320 L 256 316 L 250 321 L 250 326 L 256 330 L 258 328 L 254 322 L 261 320 L 265 325 L 264 332 L 257 337 L 245 332 L 244 317 Z M 240 291 L 241 290 L 276 290 L 277 291 L 277 294 L 276 295 L 277 298 L 277 307 L 278 308 L 279 316 L 277 317 L 269 308 L 262 305 L 254 305 L 246 309 L 242 313 L 240 318 L 238 319 L 237 316 L 238 315 L 239 305 L 240 304 Z M 236 282 L 237 281 L 279 281 L 280 283 L 277 286 L 239 286 Z M 231 261 L 232 260 L 284 260 L 285 261 L 285 264 L 283 267 L 283 270 L 286 276 L 285 277 L 232 277 L 231 274 L 234 269 L 234 267 L 232 265 Z M 281 57 L 282 61 L 277 80 L 274 111 L 276 148 L 282 189 L 277 251 L 275 255 L 236 255 L 226 173 L 226 158 L 230 134 L 238 112 L 251 89 L 269 67 Z" fill="#B88A44" fill-rule="evenodd"/>
</svg>
