<svg xmlns="http://www.w3.org/2000/svg" viewBox="0 0 512 512" >
  <path d="M 346 217 L 329 224 L 320 234 L 315 246 L 315 260 L 319 269 L 340 290 L 339 296 L 322 311 L 318 320 L 318 332 L 325 345 L 333 351 L 345 355 L 353 355 L 335 341 L 332 334 L 332 327 L 336 320 L 356 303 L 358 298 L 358 289 L 355 283 L 335 265 L 332 259 L 332 251 L 334 246 L 341 239 L 347 237 L 355 238 L 362 244 L 364 249 L 363 256 L 355 264 L 365 266 L 374 262 L 378 257 L 380 243 L 379 238 L 371 225 L 359 218 Z M 174 166 L 193 198 L 224 214 L 207 237 L 213 261 L 164 269 L 149 260 L 148 245 L 161 232 L 180 235 L 184 254 L 196 243 L 193 224 L 174 213 L 157 214 L 139 227 L 134 258 L 154 277 L 179 279 L 168 314 L 188 340 L 210 340 L 225 324 L 225 312 L 214 301 L 204 303 L 213 311 L 208 325 L 196 327 L 186 320 L 184 300 L 195 287 L 218 282 L 237 293 L 244 308 L 242 331 L 232 347 L 206 363 L 204 378 L 229 398 L 222 384 L 227 372 L 264 380 L 292 412 L 313 454 L 286 332 L 302 238 L 282 228 L 236 254 L 227 244 L 245 224 L 317 198 L 340 172 L 288 191 L 247 194 L 206 185 Z M 273 256 L 276 257 L 276 261 L 275 262 L 275 267 L 274 268 L 274 273 L 273 274 L 273 279 L 271 286 L 271 293 L 270 294 L 269 332 L 270 333 L 270 342 L 271 343 L 272 355 L 276 370 L 275 372 L 271 370 L 263 363 L 248 355 L 246 355 L 244 353 L 245 350 L 253 339 L 258 326 L 258 321 L 259 320 L 259 303 L 256 291 L 248 277 L 243 272 L 243 270 L 254 266 L 265 260 L 267 260 Z M 256 133 L 252 135 L 247 140 L 245 145 L 245 151 L 247 156 L 252 161 L 257 163 L 264 163 L 268 161 L 273 156 L 275 152 L 275 144 L 270 136 L 264 133 Z M 209 123 L 208 129 L 209 146 L 216 162 L 228 175 L 240 182 L 250 185 L 260 186 L 270 185 L 288 178 L 300 168 L 307 158 L 311 148 L 312 127 L 310 120 L 308 118 L 305 136 L 299 147 L 289 157 L 279 163 L 269 166 L 251 166 L 234 159 L 223 149 L 215 135 L 212 118 Z M 267 50 L 265 50 L 266 63 L 263 69 L 256 76 L 245 83 L 235 93 L 232 100 L 232 109 L 238 120 L 244 125 L 250 128 L 258 130 L 265 130 L 278 126 L 285 120 L 289 112 L 288 102 L 283 95 L 280 93 L 277 94 L 279 97 L 280 106 L 279 109 L 274 115 L 266 118 L 261 117 L 257 115 L 253 109 L 253 104 L 255 100 L 271 84 L 275 76 L 275 71 L 276 70 L 275 69 L 274 60 Z" fill="#B88A44" fill-rule="evenodd"/>
</svg>
