<svg xmlns="http://www.w3.org/2000/svg" viewBox="0 0 512 512" >
  <path d="M 213 323 L 218 330 L 230 339 L 241 344 L 252 346 L 264 345 L 270 342 L 276 336 L 280 325 L 282 325 L 296 337 L 308 343 L 333 349 L 364 348 L 386 343 L 399 337 L 398 336 L 382 341 L 357 345 L 328 344 L 315 341 L 300 335 L 279 320 L 274 333 L 269 338 L 259 342 L 249 342 L 237 339 L 229 335 Z M 293 305 L 297 312 L 309 321 L 327 328 L 331 328 L 337 330 L 344 330 L 345 331 L 372 331 L 373 330 L 381 330 L 382 329 L 387 329 L 397 326 L 404 321 L 394 324 L 384 325 L 383 326 L 375 326 L 374 327 L 348 327 L 347 326 L 339 326 L 338 325 L 328 324 L 316 320 L 304 314 Z M 143 253 L 142 252 L 137 253 L 133 256 L 130 256 L 123 259 L 127 261 L 129 260 L 130 263 L 135 264 L 140 260 L 138 257 Z M 118 239 L 115 239 L 107 243 L 103 243 L 102 245 L 104 246 L 113 245 L 117 242 Z M 121 235 L 124 251 L 126 253 L 132 252 L 136 248 L 136 246 L 131 249 L 128 249 L 126 245 L 124 237 Z M 148 228 L 145 227 L 139 231 L 133 232 L 132 234 L 133 235 L 141 234 Z M 118 231 L 116 229 L 111 227 L 104 228 L 98 233 L 97 239 L 105 232 L 108 232 L 109 231 L 117 232 Z M 119 220 L 117 223 L 120 225 L 122 222 Z M 147 219 L 143 216 L 136 216 L 129 220 L 127 224 L 127 228 L 136 220 L 139 220 L 140 219 L 147 220 Z M 94 153 L 94 180 L 77 216 L 76 248 L 87 273 L 50 327 L 47 343 L 56 355 L 77 356 L 133 336 L 174 353 L 243 361 L 462 358 L 467 325 L 459 308 L 420 307 L 376 292 L 362 277 L 348 270 L 318 264 L 271 263 L 213 240 L 195 242 L 174 255 L 169 221 L 157 210 L 154 198 L 140 185 L 125 182 L 114 174 L 101 154 Z M 416 336 L 417 335 L 420 335 L 427 337 L 433 337 L 434 338 L 440 338 L 441 339 L 458 341 L 461 342 L 462 344 L 461 345 L 451 345 L 452 347 L 460 348 L 461 350 L 460 351 L 451 351 L 450 352 L 456 354 L 457 355 L 456 357 L 454 356 L 441 356 L 440 355 L 419 354 L 418 353 L 418 342 Z M 195 326 L 197 325 L 207 338 L 214 345 L 220 349 L 223 353 L 222 354 L 216 354 L 215 353 L 189 351 L 188 348 L 193 342 L 195 336 Z M 421 313 L 422 312 L 457 312 L 458 313 L 457 315 L 451 316 L 452 318 L 459 318 L 461 321 L 460 322 L 452 322 L 453 324 L 461 325 L 462 328 L 461 329 L 453 328 L 452 330 L 453 331 L 459 331 L 461 332 L 463 335 L 461 337 L 456 337 L 450 335 L 445 335 L 444 334 L 439 334 L 438 333 L 433 333 L 426 331 L 420 331 L 419 328 L 421 324 Z M 184 304 L 186 306 L 192 318 L 196 323 L 196 325 L 194 326 L 192 336 L 190 340 L 183 347 L 179 349 L 166 346 L 165 344 L 169 342 L 175 336 L 180 327 L 181 318 L 182 317 L 182 305 Z M 119 276 L 122 282 L 122 287 L 104 303 L 100 305 L 99 303 L 104 293 L 104 291 L 110 279 L 112 277 L 112 275 L 115 274 Z M 315 280 L 318 273 L 320 271 L 341 273 L 345 275 L 348 275 L 359 281 L 365 286 L 369 292 L 366 293 L 362 291 L 357 286 L 344 281 L 342 281 L 342 282 L 347 286 L 351 287 L 356 290 L 357 293 L 354 294 L 346 290 L 341 290 L 340 289 L 332 288 L 325 283 L 319 283 L 316 282 Z M 162 256 L 163 255 L 169 256 L 170 258 L 168 260 L 164 259 Z M 173 262 L 186 253 L 199 286 L 210 305 L 221 316 L 239 325 L 253 325 L 261 320 L 267 308 L 269 294 L 297 286 L 324 288 L 330 292 L 353 298 L 375 296 L 410 306 L 416 313 L 416 325 L 411 335 L 413 352 L 408 356 L 238 355 L 220 344 L 203 326 L 181 288 Z M 191 250 L 202 245 L 214 245 L 229 250 L 250 261 L 266 267 L 313 269 L 314 272 L 309 281 L 291 282 L 270 289 L 258 290 L 234 283 L 213 267 L 212 268 L 215 273 L 228 285 L 246 293 L 264 296 L 263 308 L 260 315 L 253 321 L 244 322 L 228 316 L 212 301 L 201 280 Z M 82 240 L 87 249 L 108 270 L 108 274 L 80 332 L 87 327 L 95 316 L 126 290 L 127 278 L 136 278 L 146 274 L 159 261 L 169 265 L 175 284 L 178 305 L 175 328 L 166 339 L 154 342 L 124 324 L 127 330 L 125 333 L 92 347 L 63 352 L 53 346 L 52 336 L 58 322 L 92 273 L 81 250 Z M 83 231 L 85 230 L 86 232 L 84 233 Z M 160 219 L 162 219 L 165 224 L 165 241 L 169 249 L 168 251 L 165 251 L 161 244 L 161 237 L 160 236 L 160 231 L 158 226 L 158 221 Z M 82 220 L 85 219 L 87 221 L 87 223 L 84 224 L 82 222 Z M 87 213 L 89 211 L 92 212 L 92 214 L 90 216 L 89 216 Z M 150 206 L 152 205 L 153 207 L 151 208 Z M 94 207 L 96 205 L 98 205 L 100 208 L 98 210 L 96 210 Z M 131 202 L 135 202 L 141 204 L 148 212 L 152 220 L 153 226 L 155 230 L 156 240 L 157 241 L 157 250 L 152 262 L 145 269 L 137 273 L 124 273 L 114 269 L 109 265 L 99 252 L 91 234 L 91 223 L 97 215 L 103 212 L 116 210 L 119 207 Z M 110 202 L 111 201 L 114 201 L 115 204 L 113 206 L 111 206 L 110 205 Z M 88 203 L 88 201 L 90 199 L 93 201 L 91 204 Z M 144 200 L 146 198 L 148 199 L 147 202 L 145 202 Z M 118 197 L 121 196 L 123 199 L 121 201 L 119 201 L 118 200 Z M 136 195 L 137 194 L 140 194 L 141 197 L 140 198 L 137 198 Z M 126 195 L 128 193 L 130 193 L 132 196 L 130 198 L 128 198 Z M 96 197 L 96 195 L 98 193 L 100 193 L 102 195 L 99 199 Z M 105 192 L 107 190 L 110 190 L 111 191 L 111 194 L 108 196 Z M 115 188 L 117 186 L 119 186 L 121 188 L 121 190 L 117 192 L 115 190 Z M 96 185 L 98 184 L 99 186 L 97 187 Z M 103 183 L 105 181 L 108 182 L 107 185 L 104 185 Z M 99 162 L 108 170 L 108 174 L 106 176 L 104 176 L 101 178 L 97 175 L 97 167 Z" fill="#B88A44" fill-rule="evenodd"/>
</svg>
