<svg xmlns="http://www.w3.org/2000/svg" viewBox="0 0 512 512" >
  <path d="M 279 378 L 278 378 L 277 380 L 276 395 L 275 396 L 275 401 L 273 406 L 273 410 L 268 425 L 269 428 L 272 426 L 279 407 L 280 396 L 281 395 L 281 383 Z M 225 378 L 224 379 L 224 395 L 229 410 L 230 418 L 235 428 L 242 435 L 244 435 L 244 432 L 240 427 L 236 419 L 234 409 L 229 395 L 227 379 Z M 320 348 L 318 349 L 318 353 L 317 354 L 317 363 L 316 364 L 316 370 L 315 371 L 314 380 L 309 394 L 307 397 L 305 406 L 307 406 L 312 399 L 319 382 L 319 378 L 321 372 L 321 350 Z M 182 324 L 182 333 L 183 334 L 184 346 L 186 353 L 186 365 L 187 366 L 188 373 L 190 379 L 197 391 L 197 393 L 205 409 L 210 413 L 210 409 L 205 400 L 202 390 L 195 377 L 193 371 L 192 362 L 191 361 L 191 351 L 190 350 L 189 341 L 187 336 L 187 331 L 186 330 L 186 327 L 184 323 Z M 134 308 L 132 315 L 132 328 L 133 329 L 134 337 L 136 341 L 138 342 L 137 311 L 136 308 Z M 376 286 L 375 287 L 375 290 L 376 291 L 376 299 L 377 300 L 377 313 L 379 314 L 381 311 L 381 295 L 378 287 Z M 161 286 L 158 292 L 158 296 L 156 302 L 156 309 L 155 310 L 155 330 L 159 342 L 158 350 L 159 351 L 160 361 L 167 377 L 171 381 L 172 378 L 167 366 L 165 356 L 164 355 L 164 340 L 162 336 L 161 328 L 160 327 L 160 312 L 161 311 L 161 302 L 162 301 L 162 292 L 163 291 L 163 287 Z M 243 278 L 236 282 L 228 290 L 225 295 L 222 304 L 222 314 L 224 321 L 231 332 L 242 340 L 248 342 L 253 342 L 254 343 L 264 342 L 270 340 L 278 335 L 283 330 L 287 324 L 290 315 L 290 303 L 289 302 L 289 299 L 282 287 L 278 283 L 269 278 L 267 278 L 267 280 L 269 283 L 269 290 L 267 294 L 260 299 L 250 298 L 244 292 L 243 284 L 246 279 Z M 337 265 L 337 268 L 340 277 L 340 281 L 342 286 L 342 292 L 343 293 L 343 313 L 344 314 L 345 324 L 346 325 L 345 340 L 344 341 L 340 365 L 338 370 L 338 374 L 339 375 L 343 369 L 348 348 L 349 347 L 349 344 L 350 343 L 350 339 L 351 338 L 351 320 L 349 315 L 349 300 L 348 299 L 347 285 L 345 281 L 343 272 L 340 266 Z M 248 249 L 233 253 L 225 257 L 214 265 L 206 274 L 198 289 L 195 302 L 195 316 L 201 336 L 208 347 L 218 357 L 227 363 L 240 368 L 249 370 L 263 370 L 273 368 L 287 362 L 298 354 L 306 345 L 315 327 L 317 318 L 317 301 L 310 280 L 304 271 L 295 262 L 286 256 L 274 251 L 266 249 Z M 247 256 L 266 256 L 279 260 L 289 266 L 300 277 L 304 283 L 310 300 L 309 323 L 301 340 L 292 350 L 282 357 L 264 363 L 244 362 L 227 355 L 210 338 L 205 328 L 202 317 L 202 301 L 206 288 L 211 279 L 221 268 L 228 263 L 236 259 Z M 193 232 L 189 235 L 181 249 L 177 261 L 177 267 L 176 268 L 177 272 L 178 272 L 180 269 L 184 255 L 194 234 Z M 307 229 L 306 232 L 313 252 L 316 268 L 318 269 L 319 268 L 319 256 L 318 255 L 318 251 L 314 239 L 311 233 Z M 180 212 L 172 219 L 162 233 L 156 249 L 152 253 L 146 264 L 143 274 L 143 279 L 142 280 L 142 287 L 143 288 L 145 287 L 151 265 L 157 255 L 161 251 L 164 241 L 168 233 L 175 222 L 181 215 Z M 326 209 L 325 210 L 337 228 L 343 240 L 346 249 L 352 256 L 356 263 L 361 278 L 363 292 L 365 294 L 367 291 L 366 278 L 365 277 L 365 273 L 363 269 L 363 266 L 360 261 L 360 259 L 354 250 L 350 246 L 346 234 L 337 219 L 330 211 Z M 230 207 L 228 207 L 226 209 L 219 224 L 219 227 L 217 232 L 217 244 L 219 245 L 221 242 L 223 228 L 227 216 L 229 213 Z M 265 204 L 265 209 L 271 225 L 274 244 L 276 245 L 277 244 L 276 224 L 271 210 L 269 207 Z M 218 51 L 211 54 L 212 68 L 235 113 L 230 126 L 232 141 L 240 151 L 228 161 L 222 174 L 191 186 L 169 201 L 139 236 L 121 283 L 120 332 L 137 379 L 169 415 L 215 440 L 268 446 L 323 429 L 364 395 L 389 346 L 393 291 L 382 254 L 362 220 L 330 191 L 290 174 L 283 159 L 273 151 L 282 138 L 283 121 L 278 112 L 298 76 L 301 54 L 289 51 L 283 55 L 276 80 L 255 109 L 235 76 L 228 53 Z M 247 183 L 249 182 L 254 185 L 258 185 L 263 183 L 264 186 L 260 189 L 256 190 L 251 188 Z M 269 156 L 283 172 L 280 196 L 288 191 L 314 220 L 289 182 L 308 187 L 341 208 L 364 234 L 383 277 L 387 319 L 372 371 L 355 393 L 370 355 L 369 334 L 363 361 L 339 410 L 320 422 L 326 397 L 306 429 L 290 434 L 291 422 L 279 437 L 243 439 L 207 429 L 186 399 L 193 421 L 175 411 L 147 356 L 154 387 L 150 386 L 130 346 L 126 294 L 137 255 L 165 214 L 189 195 L 221 181 L 223 186 L 200 215 L 223 192 L 232 197 L 228 176 L 242 157 L 243 189 L 252 195 L 265 193 L 272 182 L 264 157 Z M 254 142 L 259 142 L 260 143 L 260 148 L 259 149 L 259 172 L 260 173 L 260 177 L 257 179 L 252 176 L 252 173 L 251 172 L 251 149 L 252 148 L 252 144 Z M 238 135 L 242 131 L 244 131 L 247 129 L 258 128 L 259 129 L 264 129 L 271 132 L 275 136 L 275 140 L 273 142 L 271 142 L 266 138 L 263 137 L 252 136 L 251 137 L 248 137 L 243 140 L 242 142 L 240 142 L 238 140 Z M 236 123 L 239 119 L 246 116 L 249 116 L 250 115 L 261 115 L 262 116 L 266 116 L 272 118 L 277 123 L 277 126 L 274 128 L 269 125 L 262 123 L 249 123 L 238 127 L 236 125 Z M 294 58 L 295 59 L 295 63 L 294 64 L 293 72 L 284 92 L 277 102 L 273 110 L 271 112 L 267 111 L 265 108 L 282 80 L 282 78 L 286 70 L 288 60 L 290 58 Z M 221 57 L 224 59 L 226 69 L 230 77 L 230 79 L 247 107 L 247 110 L 246 111 L 241 111 L 239 109 L 238 106 L 228 91 L 219 71 L 218 63 L 217 62 L 217 59 Z" fill="#B88A44" fill-rule="evenodd"/>
</svg>
