<svg xmlns="http://www.w3.org/2000/svg" viewBox="0 0 512 512" >
  <path d="M 256 261 L 254 267 L 249 274 L 248 279 L 246 281 L 247 293 L 242 295 L 238 299 L 237 310 L 236 311 L 237 319 L 232 321 L 228 325 L 229 332 L 225 336 L 226 343 L 222 346 L 221 353 L 224 356 L 289 356 L 292 351 L 290 345 L 287 343 L 288 336 L 284 332 L 285 325 L 281 321 L 276 319 L 277 317 L 277 309 L 276 308 L 275 299 L 273 296 L 266 293 L 266 287 L 268 282 L 265 279 L 265 276 L 261 271 L 258 262 Z M 224 350 L 227 346 L 286 346 L 288 348 L 288 352 L 287 353 L 225 353 Z M 228 337 L 232 335 L 235 335 L 236 336 L 244 336 L 245 335 L 249 335 L 250 336 L 256 336 L 257 335 L 260 335 L 261 336 L 266 336 L 267 335 L 279 336 L 282 335 L 285 338 L 285 340 L 283 342 L 265 342 L 264 343 L 261 342 L 256 342 L 255 343 L 253 342 L 243 342 L 242 343 L 239 343 L 238 342 L 230 342 L 228 340 Z M 231 327 L 233 324 L 236 323 L 243 323 L 248 326 L 255 328 L 259 328 L 270 323 L 278 323 L 282 326 L 282 329 L 279 332 L 234 332 L 231 329 Z M 259 322 L 261 321 L 262 323 L 260 324 Z M 241 300 L 244 297 L 250 296 L 253 294 L 260 294 L 263 296 L 269 297 L 272 300 L 273 303 L 274 316 L 269 321 L 265 323 L 263 322 L 264 320 L 271 315 L 270 313 L 268 314 L 266 313 L 266 310 L 269 303 L 268 301 L 264 309 L 264 317 L 262 319 L 251 319 L 249 317 L 249 309 L 245 301 L 244 303 L 247 310 L 247 313 L 246 314 L 243 313 L 242 315 L 248 320 L 248 321 L 246 322 L 239 316 L 239 310 L 240 309 Z M 253 277 L 260 277 L 263 280 L 263 285 L 259 291 L 254 291 L 251 287 L 250 280 Z M 254 273 L 255 272 L 258 272 L 259 274 L 258 275 L 255 275 Z M 255 269 L 257 268 L 258 270 L 256 271 Z M 257 248 L 246 254 L 232 267 L 222 284 L 217 304 L 215 333 L 214 334 L 214 361 L 217 364 L 295 364 L 298 362 L 299 357 L 298 356 L 298 331 L 297 330 L 296 308 L 290 283 L 285 273 L 279 265 L 268 255 Z M 256 252 L 266 258 L 277 268 L 284 278 L 287 285 L 291 299 L 293 326 L 294 327 L 295 359 L 293 361 L 219 361 L 217 359 L 220 307 L 226 284 L 234 270 L 244 260 Z M 149 70 L 138 86 L 134 119 L 159 213 L 168 225 L 155 244 L 137 366 L 139 420 L 144 434 L 165 447 L 348 447 L 361 442 L 374 420 L 376 365 L 358 243 L 345 224 L 355 210 L 379 119 L 371 77 L 349 65 L 166 65 Z M 144 394 L 146 393 L 160 401 L 223 401 L 228 407 L 236 411 L 277 411 L 285 407 L 290 401 L 353 401 L 368 393 L 368 422 L 362 434 L 349 441 L 164 441 L 156 438 L 147 428 L 145 421 Z M 256 241 L 273 252 L 286 265 L 295 281 L 300 298 L 303 327 L 304 366 L 300 370 L 212 370 L 208 366 L 210 316 L 216 285 L 222 272 L 233 258 Z M 175 242 L 185 236 L 241 236 L 244 241 L 222 264 L 211 286 L 205 322 L 205 370 L 212 375 L 300 375 L 308 367 L 303 291 L 290 263 L 269 241 L 272 236 L 334 238 L 339 244 L 357 366 L 355 376 L 345 383 L 163 381 L 156 366 Z M 165 235 L 170 231 L 173 234 L 168 245 L 151 362 L 152 376 L 159 385 L 166 388 L 347 388 L 354 385 L 362 374 L 345 244 L 340 236 L 345 232 L 353 246 L 370 378 L 366 386 L 347 396 L 287 396 L 278 405 L 235 405 L 226 396 L 167 396 L 152 391 L 144 381 L 143 365 Z M 250 224 L 255 222 L 261 223 L 264 225 L 267 229 L 267 237 L 265 240 L 262 239 L 264 236 L 264 231 L 260 226 L 256 225 L 253 226 L 249 231 L 250 239 L 248 240 L 245 234 L 246 229 Z M 174 220 L 177 214 L 184 210 L 329 210 L 337 215 L 339 219 L 339 226 L 335 232 L 272 231 L 267 222 L 259 218 L 253 218 L 245 223 L 241 231 L 178 232 L 174 226 Z M 160 120 L 166 114 L 347 114 L 352 117 L 353 124 L 337 201 L 333 206 L 180 206 L 176 199 Z M 142 108 L 156 100 L 357 100 L 371 108 L 373 121 L 349 211 L 344 216 L 339 207 L 358 126 L 358 117 L 352 110 L 164 109 L 157 114 L 155 124 L 175 208 L 168 216 L 140 120 Z M 142 96 L 144 85 L 147 80 L 155 73 L 163 71 L 350 71 L 358 73 L 366 80 L 369 85 L 371 98 L 369 99 L 360 95 L 153 95 L 143 99 Z" fill="#B88A44" fill-rule="evenodd"/>
</svg>
