<svg xmlns="http://www.w3.org/2000/svg" viewBox="0 0 512 512" >
  <path d="M 227 337 L 224 340 L 224 344 L 225 345 L 225 349 L 227 355 L 231 362 L 237 368 L 245 373 L 252 374 L 253 375 L 257 374 L 258 370 L 256 368 L 247 366 L 238 359 L 233 351 L 231 339 L 229 337 Z M 255 249 L 251 253 L 213 317 L 209 330 L 208 347 L 213 365 L 218 373 L 226 381 L 240 389 L 248 391 L 263 391 L 280 385 L 287 380 L 295 371 L 302 355 L 303 333 L 299 318 L 292 304 L 271 272 L 260 252 L 257 249 Z M 255 265 L 259 268 L 284 308 L 291 322 L 295 338 L 294 352 L 287 367 L 276 377 L 262 382 L 245 381 L 234 376 L 227 370 L 222 363 L 217 348 L 217 334 L 220 323 L 230 304 Z M 219 68 L 198 75 L 189 86 L 189 161 L 194 167 L 193 184 L 201 193 L 201 200 L 177 217 L 167 237 L 167 415 L 181 434 L 209 444 L 265 447 L 312 442 L 339 426 L 346 402 L 345 239 L 337 220 L 310 199 L 310 193 L 318 186 L 317 167 L 323 159 L 323 88 L 315 76 L 293 68 L 255 65 Z M 212 196 L 236 200 L 276 200 L 300 196 L 305 208 L 324 219 L 334 233 L 336 240 L 336 412 L 332 420 L 319 430 L 284 437 L 217 436 L 195 431 L 187 427 L 177 416 L 175 410 L 175 243 L 182 225 L 190 217 L 203 211 Z M 202 174 L 204 172 L 208 172 L 213 174 L 218 174 L 225 176 L 235 176 L 236 177 L 276 177 L 277 176 L 286 176 L 287 175 L 293 175 L 294 174 L 308 172 L 309 173 L 309 182 L 303 186 L 300 186 L 296 188 L 278 190 L 277 191 L 235 191 L 234 190 L 216 188 L 204 184 L 202 182 Z M 262 106 L 274 106 L 275 107 L 275 164 L 273 168 L 262 168 L 261 167 L 261 107 Z M 241 106 L 252 106 L 254 109 L 253 111 L 253 167 L 252 168 L 242 168 L 240 165 L 240 107 Z M 295 103 L 296 104 L 296 164 L 292 166 L 283 167 L 282 166 L 282 106 L 285 104 Z M 218 103 L 220 104 L 232 105 L 233 106 L 233 166 L 232 167 L 219 166 L 217 164 L 217 104 Z M 313 97 L 314 98 L 314 158 L 312 160 L 304 163 L 303 162 L 303 102 L 305 100 Z M 199 97 L 205 100 L 207 100 L 209 102 L 209 162 L 208 163 L 201 161 L 198 158 L 198 98 Z M 201 86 L 203 83 L 216 78 L 220 78 L 226 76 L 235 76 L 236 75 L 248 75 L 249 74 L 251 75 L 260 75 L 262 74 L 263 75 L 286 76 L 287 77 L 291 77 L 292 78 L 296 78 L 302 80 L 310 85 L 310 87 L 308 89 L 302 92 L 299 92 L 290 95 L 285 95 L 284 96 L 276 96 L 275 97 L 237 97 L 236 96 L 221 95 L 207 91 L 203 89 Z" fill="#B88A44" fill-rule="evenodd"/>
</svg>
