<svg xmlns="http://www.w3.org/2000/svg" viewBox="0 0 512 512" >
  <path d="M 260 42 L 240 53 L 223 83 L 230 140 L 205 155 L 194 141 L 206 120 L 194 115 L 185 127 L 176 104 L 165 110 L 169 129 L 158 121 L 146 127 L 161 142 L 146 148 L 150 162 L 174 157 L 193 184 L 220 183 L 220 246 L 195 241 L 178 262 L 174 248 L 162 244 L 156 255 L 164 267 L 148 262 L 141 269 L 145 280 L 159 282 L 145 297 L 155 305 L 173 295 L 174 310 L 187 314 L 189 290 L 204 276 L 232 296 L 265 378 L 258 421 L 239 440 L 198 452 L 196 461 L 206 467 L 258 458 L 292 422 L 300 381 L 280 322 L 280 297 L 309 276 L 323 289 L 320 309 L 330 315 L 340 295 L 363 303 L 367 292 L 353 282 L 371 275 L 365 262 L 348 267 L 356 255 L 350 244 L 338 248 L 334 262 L 317 241 L 293 245 L 293 183 L 318 185 L 338 157 L 366 160 L 367 148 L 352 142 L 367 127 L 355 121 L 345 129 L 348 110 L 337 104 L 328 126 L 319 115 L 307 120 L 319 141 L 308 155 L 283 140 L 291 85 Z M 182 300 L 186 303 L 186 307 L 183 309 L 179 306 L 179 304 Z M 357 272 L 360 268 L 363 268 L 365 270 L 365 274 L 364 275 L 360 275 L 358 274 Z M 147 270 L 149 268 L 152 268 L 155 273 L 153 275 L 149 275 L 147 273 Z M 358 149 L 362 152 L 362 155 L 360 157 L 357 157 L 354 153 L 354 152 Z M 353 133 L 354 129 L 356 127 L 359 127 L 361 129 L 361 132 L 359 134 L 354 134 Z M 315 121 L 318 121 L 319 122 L 321 128 L 320 130 L 313 127 L 312 124 Z M 337 119 L 339 120 L 339 123 L 338 124 L 336 123 L 336 120 Z M 338 110 L 342 112 L 342 116 L 339 119 L 337 119 L 335 116 L 335 113 Z M 174 110 L 178 113 L 177 122 L 176 123 L 174 122 L 174 119 L 171 116 L 171 112 Z M 260 49 L 285 90 L 276 143 L 309 163 L 324 147 L 320 131 L 330 135 L 337 124 L 340 136 L 352 134 L 343 145 L 354 151 L 334 152 L 313 180 L 282 171 L 290 202 L 282 260 L 315 247 L 334 272 L 348 250 L 342 272 L 357 274 L 344 284 L 361 296 L 337 289 L 328 309 L 329 288 L 310 267 L 275 291 L 273 321 L 293 377 L 287 417 L 257 451 L 205 458 L 242 446 L 260 430 L 272 380 L 237 291 L 204 267 L 185 284 L 182 300 L 175 289 L 151 296 L 168 284 L 155 274 L 171 270 L 164 250 L 179 272 L 197 247 L 231 260 L 222 220 L 231 170 L 200 180 L 177 151 L 153 157 L 170 142 L 152 129 L 173 136 L 177 123 L 185 135 L 198 121 L 188 144 L 204 163 L 236 144 L 229 86 L 247 55 Z" fill="#B88A44" fill-rule="evenodd"/>
</svg>
