<svg xmlns="http://www.w3.org/2000/svg" viewBox="0 0 512 512" >
  <path d="M 253 365 L 248 368 L 246 372 L 246 379 L 247 381 L 252 385 L 260 385 L 264 382 L 266 378 L 266 372 L 263 367 L 259 365 Z M 252 370 L 258 369 L 262 373 L 262 377 L 259 381 L 253 381 L 250 378 L 250 373 Z M 251 276 L 248 280 L 248 285 L 252 290 L 255 291 L 260 290 L 264 285 L 264 280 L 262 277 L 259 275 L 253 275 Z M 252 281 L 254 279 L 258 279 L 260 281 L 260 284 L 257 287 L 255 287 L 252 285 Z M 245 211 L 248 215 L 251 216 L 262 216 L 267 212 L 267 210 L 261 212 L 251 212 L 246 210 Z M 332 203 L 328 206 L 327 211 L 332 217 L 336 217 L 341 213 L 342 209 L 339 204 L 337 203 Z M 331 209 L 333 207 L 336 207 L 338 209 L 338 211 L 336 213 L 333 213 L 331 211 Z M 175 203 L 172 205 L 170 211 L 174 216 L 179 217 L 184 213 L 185 209 L 182 204 L 180 203 Z M 174 209 L 176 207 L 179 207 L 181 209 L 181 211 L 179 213 L 176 213 L 174 211 Z M 206 196 L 208 200 L 213 203 L 223 203 L 231 198 L 234 198 L 242 203 L 249 205 L 263 205 L 264 204 L 267 204 L 276 200 L 279 197 L 289 203 L 293 203 L 294 204 L 301 202 L 306 197 L 305 195 L 300 197 L 294 196 L 289 191 L 286 186 L 279 182 L 277 182 L 274 175 L 269 172 L 266 173 L 271 178 L 271 182 L 268 184 L 264 183 L 258 187 L 254 187 L 248 183 L 244 184 L 241 182 L 241 178 L 246 173 L 243 172 L 238 175 L 235 182 L 233 182 L 226 186 L 223 191 L 218 196 L 215 197 L 211 197 L 208 195 Z M 236 194 L 237 193 L 245 192 L 248 189 L 253 191 L 259 191 L 262 189 L 264 189 L 267 192 L 275 193 L 276 195 L 271 198 L 264 200 L 248 200 L 241 198 L 237 196 Z M 272 166 L 273 169 L 276 169 L 281 165 L 287 165 L 294 170 L 298 168 L 298 166 L 295 163 L 288 159 L 278 160 L 276 161 Z M 214 166 L 214 168 L 216 170 L 218 170 L 225 165 L 231 165 L 236 169 L 238 169 L 240 167 L 236 161 L 231 159 L 224 159 L 218 162 Z M 272 147 L 272 149 L 274 151 L 281 148 L 288 148 L 289 149 L 292 149 L 298 153 L 301 153 L 301 150 L 296 143 L 289 140 L 279 141 Z M 211 153 L 214 153 L 216 151 L 224 148 L 231 148 L 235 150 L 239 150 L 240 147 L 233 141 L 223 140 L 214 145 L 211 150 Z M 254 41 L 244 48 L 241 58 L 212 74 L 194 104 L 178 101 L 170 108 L 169 131 L 181 151 L 173 161 L 176 183 L 160 205 L 163 221 L 121 230 L 108 241 L 124 264 L 119 273 L 103 280 L 93 298 L 93 317 L 84 342 L 90 371 L 85 408 L 112 443 L 146 459 L 234 456 L 248 464 L 262 464 L 277 456 L 373 457 L 393 447 L 425 417 L 429 393 L 421 362 L 420 324 L 404 299 L 403 278 L 393 272 L 375 239 L 350 220 L 351 202 L 336 183 L 339 161 L 331 149 L 342 134 L 342 108 L 334 101 L 318 104 L 294 68 L 271 58 L 268 48 Z M 291 438 L 293 437 L 299 443 L 307 448 L 309 451 L 307 453 L 297 453 L 293 447 Z M 219 438 L 217 448 L 213 453 L 204 453 L 201 451 L 203 448 L 210 444 L 217 437 Z M 270 438 L 273 435 L 276 434 L 283 434 L 286 436 L 286 442 L 289 450 L 287 451 L 283 449 L 280 443 L 278 442 L 273 442 L 270 440 Z M 240 438 L 239 441 L 231 443 L 226 450 L 224 451 L 222 450 L 222 447 L 224 443 L 224 438 L 226 435 L 228 434 L 235 434 Z M 252 397 L 259 397 L 261 401 L 262 412 L 263 413 L 264 440 L 266 444 L 275 447 L 275 450 L 271 454 L 266 457 L 259 459 L 247 458 L 241 455 L 235 449 L 236 446 L 241 446 L 243 445 L 246 441 L 247 417 L 248 416 L 249 405 Z M 268 393 L 270 393 L 273 396 L 280 409 L 285 425 L 285 428 L 284 429 L 275 429 L 270 432 L 268 431 L 267 410 L 266 409 L 266 405 L 264 399 L 264 396 Z M 243 392 L 247 395 L 247 399 L 246 400 L 246 403 L 244 408 L 244 413 L 243 414 L 242 430 L 241 431 L 235 429 L 228 429 L 226 430 L 225 429 L 226 423 L 229 414 L 232 409 L 232 407 L 240 394 Z M 101 412 L 103 387 L 117 371 L 142 378 L 174 376 L 209 392 L 188 409 L 166 418 L 150 419 L 151 421 L 164 422 L 177 419 L 199 407 L 215 393 L 220 394 L 193 425 L 174 436 L 154 439 L 128 430 L 140 440 L 166 443 L 193 431 L 230 391 L 238 388 L 228 403 L 218 428 L 200 444 L 177 453 L 151 454 L 126 446 L 109 431 Z M 184 373 L 192 368 L 194 368 L 199 371 L 214 376 L 217 376 L 222 378 L 227 378 L 228 379 L 234 379 L 235 381 L 231 385 L 227 387 L 220 388 L 199 382 L 186 376 Z M 405 383 L 409 395 L 409 411 L 402 429 L 384 446 L 360 454 L 329 452 L 307 442 L 290 425 L 285 407 L 275 391 L 278 389 L 301 416 L 323 435 L 343 443 L 360 443 L 374 438 L 382 430 L 357 439 L 331 434 L 316 424 L 291 394 L 295 393 L 311 407 L 328 417 L 354 422 L 360 419 L 332 414 L 317 406 L 301 392 L 349 367 L 364 363 L 385 366 L 394 371 Z M 107 363 L 111 368 L 103 376 L 98 385 L 96 391 L 96 396 L 95 397 L 95 409 L 96 410 L 96 413 L 94 414 L 91 409 L 91 406 L 90 405 L 90 399 L 89 398 L 90 387 L 94 377 L 101 369 L 103 365 L 105 363 Z M 249 360 L 252 359 L 260 359 L 266 362 L 271 368 L 272 371 L 272 380 L 270 384 L 265 389 L 261 391 L 251 391 L 247 389 L 242 384 L 240 380 L 240 370 L 242 366 Z M 350 359 L 348 362 L 337 367 L 321 377 L 300 386 L 297 386 L 292 388 L 287 388 L 279 384 L 277 381 L 278 379 L 294 377 L 313 371 L 327 364 L 338 356 L 341 356 Z M 199 363 L 203 358 L 204 355 L 207 354 L 211 357 L 218 359 L 221 361 L 233 363 L 236 365 L 236 368 L 234 373 L 226 373 L 225 372 L 217 371 L 210 368 L 207 368 L 200 365 Z M 388 348 L 388 352 L 389 353 L 389 360 L 388 361 L 378 358 L 374 358 L 373 357 L 374 355 L 381 352 L 386 347 Z M 393 337 L 396 339 L 398 351 L 403 365 L 407 371 L 421 384 L 423 391 L 423 405 L 422 406 L 422 409 L 418 418 L 414 422 L 412 421 L 412 418 L 414 414 L 414 408 L 415 407 L 414 392 L 412 385 L 407 376 L 396 365 L 394 358 L 393 342 L 392 341 L 392 338 Z M 318 331 L 320 333 L 320 336 L 322 339 L 322 341 L 331 351 L 330 355 L 323 360 L 308 367 L 291 372 L 278 374 L 277 373 L 276 365 L 279 363 L 283 363 L 296 359 L 305 354 L 311 347 L 314 341 L 316 332 Z M 95 325 L 97 326 L 97 329 L 96 330 L 96 343 L 98 350 L 102 357 L 100 362 L 96 366 L 93 365 L 90 355 L 90 339 L 91 338 L 91 334 L 93 328 Z M 320 323 L 322 326 L 320 328 L 320 330 L 318 331 L 317 330 L 318 324 Z M 389 323 L 389 333 L 384 342 L 377 348 L 364 353 L 349 353 L 342 351 L 333 346 L 327 339 L 325 334 L 325 332 L 327 331 L 330 336 L 336 342 L 337 341 L 330 327 L 330 324 L 333 323 L 339 334 L 345 340 L 347 340 L 347 338 L 344 335 L 338 323 L 338 319 L 339 318 L 342 318 L 345 321 L 346 325 L 350 331 L 357 337 L 359 337 L 359 335 L 352 327 L 350 323 L 351 319 L 356 320 L 362 326 L 369 330 L 376 330 L 378 328 L 375 320 L 375 318 L 378 314 L 380 314 Z M 157 308 L 160 309 L 160 320 L 158 322 L 153 320 L 153 315 L 155 310 Z M 172 307 L 174 307 L 177 312 L 178 319 L 176 321 L 172 321 L 171 320 L 170 310 Z M 400 305 L 401 305 L 411 316 L 416 331 L 416 367 L 417 368 L 417 371 L 416 372 L 412 369 L 406 359 L 400 335 L 397 329 L 394 326 L 394 322 L 392 319 L 392 317 Z M 156 302 L 157 301 L 160 301 L 161 304 L 159 305 L 157 304 Z M 169 302 L 171 300 L 174 301 L 173 304 L 170 304 Z M 159 289 L 162 291 L 162 297 L 161 298 L 158 296 L 158 290 Z M 308 284 L 313 279 L 323 280 L 326 282 L 325 288 L 323 289 L 318 285 L 316 285 L 316 288 L 329 297 L 343 301 L 365 301 L 381 296 L 392 287 L 392 285 L 390 285 L 385 289 L 383 289 L 381 282 L 385 280 L 391 279 L 397 280 L 399 282 L 399 290 L 396 300 L 389 313 L 387 314 L 382 309 L 374 310 L 370 316 L 371 323 L 369 324 L 359 316 L 353 313 L 346 315 L 340 312 L 335 314 L 333 317 L 325 320 L 320 315 L 313 303 L 310 295 Z M 190 293 L 198 305 L 204 324 L 203 345 L 195 359 L 179 369 L 167 372 L 141 372 L 125 368 L 115 363 L 107 355 L 103 348 L 101 339 L 102 330 L 125 329 L 133 326 L 137 322 L 138 315 L 143 309 L 143 303 L 145 300 L 145 295 L 143 292 L 144 282 L 152 282 L 154 286 L 154 298 L 152 300 L 152 307 L 148 318 L 149 323 L 154 326 L 161 326 L 164 323 L 164 319 L 166 318 L 168 324 L 171 326 L 180 324 L 182 322 L 182 314 L 178 306 L 179 302 L 176 297 L 176 291 L 170 280 L 174 279 Z M 159 279 L 168 287 L 171 293 L 171 296 L 170 297 L 167 295 L 163 287 L 158 282 Z M 126 279 L 136 283 L 138 285 L 138 288 L 135 289 L 134 288 L 121 287 L 118 289 L 119 290 L 128 291 L 138 294 L 140 296 L 140 298 L 138 300 L 117 300 L 116 302 L 126 303 L 127 304 L 133 304 L 136 305 L 138 308 L 134 311 L 116 312 L 115 314 L 122 316 L 131 316 L 132 317 L 132 320 L 127 323 L 116 324 L 115 325 L 103 323 L 99 319 L 98 311 L 97 310 L 98 301 L 101 292 L 106 285 L 111 281 L 115 279 Z M 272 273 L 273 272 L 278 272 L 281 275 L 281 279 L 278 282 L 275 282 L 273 280 Z M 236 271 L 240 273 L 240 276 L 237 282 L 233 282 L 231 280 L 231 275 Z M 144 272 L 145 271 L 149 271 L 150 272 L 150 277 L 147 278 L 145 276 Z M 252 270 L 262 271 L 267 276 L 269 280 L 269 285 L 267 290 L 260 295 L 252 295 L 249 294 L 245 290 L 243 286 L 244 277 L 247 273 Z M 154 272 L 156 270 L 160 270 L 162 274 L 155 276 L 154 275 Z M 134 271 L 135 270 L 140 271 L 141 272 L 141 276 L 140 277 L 137 277 L 135 275 Z M 172 268 L 174 270 L 174 273 L 173 274 L 171 273 L 167 276 L 166 275 L 166 270 Z M 128 268 L 131 270 L 131 274 L 130 275 L 128 275 L 126 273 L 126 270 Z M 204 268 L 212 269 L 217 278 L 222 280 L 226 279 L 231 286 L 238 287 L 241 293 L 251 300 L 264 299 L 270 294 L 274 287 L 282 285 L 286 279 L 293 279 L 298 274 L 299 269 L 305 268 L 308 275 L 304 279 L 303 289 L 307 303 L 304 304 L 282 298 L 282 300 L 299 308 L 310 309 L 313 313 L 311 333 L 305 346 L 296 353 L 273 359 L 259 353 L 249 354 L 238 359 L 212 351 L 208 347 L 210 328 L 206 310 L 220 305 L 230 298 L 208 304 L 202 302 L 196 292 L 196 288 Z M 331 285 L 335 276 L 341 270 L 350 266 L 358 266 L 368 271 L 374 278 L 377 287 L 377 292 L 374 294 L 367 296 L 347 297 L 346 296 L 341 296 L 332 293 L 331 292 Z M 287 264 L 290 264 L 294 267 L 294 272 L 291 275 L 287 275 L 283 270 L 284 267 Z M 222 264 L 224 264 L 228 267 L 228 272 L 225 275 L 221 275 L 218 272 L 218 267 Z M 294 258 L 297 254 L 302 254 L 305 257 L 305 261 L 302 264 L 297 264 L 295 262 Z M 210 254 L 215 254 L 217 256 L 217 262 L 215 264 L 209 264 L 207 262 L 207 257 Z M 182 254 L 183 257 L 181 261 L 181 264 L 178 266 L 176 264 L 176 261 L 180 255 Z M 181 245 L 174 254 L 170 262 L 167 265 L 164 266 L 155 265 L 153 267 L 145 267 L 139 257 L 138 257 L 139 265 L 138 266 L 133 265 L 130 262 L 124 252 L 119 247 L 120 244 L 128 243 L 129 244 L 132 244 L 138 248 L 144 250 L 149 250 L 150 249 L 153 249 L 166 242 L 172 242 Z M 304 238 L 304 249 L 303 250 L 301 249 L 295 250 L 291 254 L 290 259 L 284 261 L 278 268 L 272 268 L 268 270 L 263 266 L 254 265 L 253 264 L 254 262 L 257 261 L 262 257 L 267 249 L 280 246 L 285 243 L 294 241 L 301 237 Z M 208 238 L 211 237 L 213 239 L 224 243 L 227 243 L 237 248 L 246 249 L 250 255 L 249 262 L 251 263 L 252 265 L 247 267 L 244 270 L 242 270 L 240 268 L 233 268 L 232 265 L 228 261 L 222 259 L 221 254 L 218 251 L 214 249 L 211 249 L 210 250 L 208 249 Z M 172 236 L 173 235 L 176 235 L 180 237 L 181 239 L 180 240 L 174 239 Z M 166 236 L 165 238 L 161 239 L 151 245 L 143 245 L 130 239 L 124 239 L 123 240 L 120 240 L 119 239 L 120 237 L 124 235 L 134 236 L 148 229 L 152 229 L 158 231 L 163 235 Z M 316 226 L 317 226 L 319 229 L 320 239 L 322 244 L 324 256 L 327 263 L 327 266 L 330 272 L 330 275 L 329 276 L 326 276 L 321 274 L 314 274 L 312 271 L 311 261 L 310 260 L 310 252 L 309 251 L 309 239 L 310 238 L 310 232 Z M 196 226 L 202 232 L 202 255 L 201 256 L 201 260 L 200 261 L 198 271 L 192 284 L 190 285 L 184 280 L 182 277 L 189 255 L 189 251 L 190 250 L 190 246 L 192 240 L 192 235 L 193 234 L 193 228 Z M 324 226 L 326 225 L 329 227 L 336 228 L 343 225 L 347 225 L 363 235 L 370 242 L 380 256 L 386 268 L 387 274 L 386 275 L 379 276 L 373 268 L 366 263 L 360 261 L 348 261 L 347 262 L 344 262 L 336 267 L 334 267 L 328 250 Z M 179 228 L 187 225 L 188 226 L 187 233 L 186 234 L 183 233 L 179 230 Z M 164 227 L 167 225 L 169 225 L 172 227 L 174 227 L 175 229 L 174 230 L 166 230 Z M 333 197 L 336 197 L 341 199 L 346 204 L 347 207 L 347 213 L 345 217 L 338 222 L 331 222 L 327 220 L 323 216 L 323 212 L 325 208 L 325 202 L 328 199 Z M 176 197 L 182 198 L 187 202 L 187 208 L 189 212 L 189 216 L 184 221 L 181 222 L 174 222 L 170 220 L 165 213 L 165 206 L 166 204 L 171 199 Z M 325 156 L 329 156 L 333 160 L 333 164 L 334 165 L 333 174 L 330 182 L 335 191 L 328 194 L 325 193 L 325 188 L 322 180 L 322 178 L 324 175 L 327 176 L 329 175 L 328 166 L 326 166 L 321 172 L 319 171 L 319 161 Z M 184 156 L 189 157 L 193 161 L 193 171 L 191 172 L 186 166 L 184 166 L 184 169 L 183 170 L 184 176 L 188 175 L 190 178 L 187 188 L 187 193 L 186 194 L 177 191 L 182 182 L 179 174 L 178 164 L 179 163 L 179 160 Z M 211 137 L 233 129 L 264 127 L 290 132 L 304 139 L 311 146 L 313 151 L 314 173 L 320 192 L 319 209 L 313 221 L 302 231 L 272 243 L 270 242 L 270 232 L 267 226 L 257 221 L 251 222 L 244 227 L 242 231 L 241 243 L 218 235 L 207 229 L 199 221 L 194 212 L 192 204 L 192 191 L 198 173 L 198 155 L 200 148 Z M 327 106 L 331 106 L 335 108 L 338 113 L 338 117 L 339 118 L 338 128 L 336 134 L 331 141 L 329 140 L 329 134 L 326 126 L 324 123 L 319 119 L 319 112 L 324 107 Z M 185 106 L 188 107 L 193 112 L 193 119 L 189 122 L 185 127 L 183 134 L 183 140 L 181 141 L 178 138 L 174 129 L 173 116 L 175 110 L 178 107 Z M 253 97 L 259 97 L 261 98 L 265 103 L 265 109 L 264 111 L 259 115 L 253 115 L 251 114 L 247 109 L 247 103 L 248 101 Z M 280 87 L 281 86 L 288 87 L 303 94 L 311 102 L 314 110 L 314 113 L 312 114 L 308 109 L 303 106 L 300 106 L 299 105 L 289 105 L 286 106 L 285 105 L 284 95 Z M 232 87 L 228 95 L 227 105 L 226 106 L 223 105 L 213 105 L 203 110 L 200 114 L 198 113 L 198 110 L 201 102 L 209 94 L 218 89 L 224 87 L 227 87 L 228 86 L 231 86 Z M 189 132 L 194 125 L 201 123 L 205 116 L 212 111 L 220 110 L 232 115 L 232 102 L 236 91 L 243 83 L 257 77 L 269 83 L 276 91 L 280 105 L 279 114 L 281 115 L 292 110 L 297 110 L 305 114 L 311 123 L 316 124 L 321 128 L 323 132 L 322 147 L 319 148 L 308 135 L 295 128 L 277 123 L 261 122 L 260 120 L 264 118 L 270 110 L 269 99 L 261 92 L 251 92 L 242 101 L 242 111 L 252 120 L 251 122 L 235 123 L 217 128 L 204 135 L 193 148 L 191 148 L 189 144 Z M 214 81 L 222 72 L 235 65 L 238 65 L 247 62 L 265 62 L 266 63 L 274 64 L 284 68 L 290 72 L 296 78 L 298 83 L 295 84 L 280 79 L 274 79 L 260 72 L 252 72 L 245 75 L 241 78 L 228 80 L 224 82 L 221 82 L 218 84 L 215 84 Z M 248 52 L 253 47 L 259 47 L 264 52 L 265 56 L 264 57 L 262 56 L 249 56 L 248 55 Z" fill="#B88A44" fill-rule="evenodd"/>
</svg>
