<svg xmlns="http://www.w3.org/2000/svg" viewBox="0 0 512 512" >
  <path d="M 300 314 L 296 314 L 295 315 L 285 316 L 271 321 L 254 329 L 251 329 L 247 331 L 243 331 L 238 333 L 234 333 L 231 334 L 230 336 L 238 336 L 239 335 L 245 335 L 246 334 L 254 333 L 279 322 L 288 319 L 291 319 L 295 317 L 301 316 Z M 259 210 L 256 211 L 253 210 L 252 211 L 253 213 L 251 216 L 252 216 L 255 220 L 258 219 L 261 215 L 260 214 L 259 215 L 257 214 L 257 213 L 259 212 Z M 243 202 L 246 204 L 251 204 L 252 203 L 251 201 L 250 202 L 247 202 L 246 201 Z M 255 105 L 210 159 L 202 184 L 184 197 L 173 216 L 168 241 L 170 257 L 163 265 L 155 285 L 153 319 L 160 348 L 179 379 L 196 395 L 235 416 L 257 435 L 271 420 L 311 398 L 333 378 L 353 343 L 359 311 L 355 280 L 341 256 L 343 234 L 334 206 L 322 191 L 309 183 L 307 170 L 300 157 Z M 187 379 L 189 378 L 193 380 L 210 384 L 235 386 L 236 387 L 274 387 L 275 386 L 300 384 L 319 380 L 322 378 L 324 380 L 307 395 L 273 413 L 267 417 L 257 427 L 255 427 L 245 417 L 236 411 L 211 399 L 200 392 Z M 324 370 L 324 372 L 322 374 L 316 375 L 312 377 L 290 380 L 289 381 L 279 381 L 278 382 L 234 382 L 233 381 L 223 381 L 222 380 L 204 378 L 190 374 L 187 372 L 192 367 L 196 367 L 199 369 L 211 372 L 225 373 L 226 374 L 241 374 L 242 375 L 271 375 L 272 374 L 294 373 L 295 372 L 309 370 L 315 368 L 317 366 Z M 223 348 L 230 349 L 239 355 L 240 357 L 240 366 L 241 367 L 240 370 L 230 368 L 226 364 L 224 359 L 223 361 L 224 364 L 222 365 L 219 361 L 219 354 Z M 311 347 L 313 350 L 311 359 L 305 365 L 295 368 L 294 365 L 297 359 L 297 354 L 301 350 L 308 347 Z M 288 347 L 293 356 L 292 362 L 289 364 L 288 363 L 288 359 L 287 359 L 287 361 L 283 367 L 280 369 L 272 370 L 271 369 L 272 356 L 279 350 Z M 245 356 L 251 350 L 256 347 L 267 357 L 268 365 L 267 367 L 265 368 L 264 367 L 264 363 L 263 363 L 262 368 L 260 370 L 252 370 L 249 367 L 249 364 L 248 363 L 246 367 L 244 366 L 244 358 Z M 200 347 L 206 348 L 210 350 L 214 354 L 215 356 L 215 361 L 218 366 L 217 368 L 206 365 L 200 359 L 198 353 Z M 323 344 L 324 345 L 323 353 L 321 357 L 315 362 L 314 360 L 316 357 L 316 348 L 318 346 Z M 261 345 L 262 344 L 278 344 L 279 346 L 272 350 L 271 352 L 269 353 L 262 347 Z M 233 345 L 234 344 L 249 344 L 250 346 L 243 352 L 241 352 L 234 347 Z M 188 344 L 192 345 L 195 348 L 195 356 L 196 357 L 196 360 L 195 361 L 191 358 L 188 353 L 188 349 L 187 348 L 187 345 Z M 310 341 L 309 343 L 303 345 L 297 349 L 294 349 L 291 345 L 291 344 L 294 342 L 302 342 L 308 340 Z M 201 341 L 204 340 L 210 342 L 216 342 L 219 343 L 220 345 L 217 349 L 214 349 L 212 347 L 202 343 Z M 311 340 L 314 338 L 318 338 L 319 339 L 319 341 L 317 343 L 312 342 Z M 192 339 L 193 338 L 197 338 L 199 339 L 200 341 L 195 343 L 192 341 Z M 205 309 L 208 310 L 205 320 L 205 327 L 207 332 L 209 334 L 208 336 L 200 335 L 195 332 L 192 328 L 192 319 L 193 317 L 197 313 Z M 320 322 L 319 328 L 315 333 L 309 336 L 305 336 L 304 337 L 284 338 L 283 339 L 220 339 L 216 337 L 219 330 L 220 318 L 222 315 L 229 315 L 230 316 L 235 316 L 236 317 L 246 318 L 247 319 L 255 319 L 269 313 L 279 313 L 291 307 L 297 307 L 298 308 L 308 310 L 314 313 L 318 317 Z M 216 306 L 220 309 L 218 316 L 218 325 L 216 331 L 214 333 L 212 333 L 208 328 L 208 318 L 211 311 L 211 308 Z M 232 279 L 233 280 L 233 288 L 232 290 L 230 291 L 229 290 L 229 283 L 230 280 Z M 280 273 L 282 274 L 282 280 L 283 281 L 283 288 L 281 290 L 278 288 L 278 279 Z M 262 265 L 264 266 L 264 271 L 263 272 L 261 271 L 261 266 Z M 262 261 L 264 260 L 265 263 L 263 264 Z M 262 251 L 263 253 L 259 263 L 259 268 L 258 269 L 258 295 L 259 296 L 259 299 L 253 301 L 250 300 L 236 300 L 234 298 L 237 290 L 237 278 L 236 277 L 235 270 L 236 269 L 241 269 L 247 266 L 251 263 L 259 253 Z M 270 237 L 272 236 L 273 238 L 271 239 Z M 282 235 L 288 238 L 293 243 L 296 251 L 300 292 L 299 295 L 289 304 L 277 309 L 265 310 L 263 306 L 264 303 L 274 304 L 288 288 L 284 268 L 285 258 L 284 252 L 274 277 L 274 289 L 276 296 L 272 300 L 261 299 L 260 273 L 261 272 L 263 273 L 264 293 L 266 296 L 267 260 L 276 237 L 278 235 Z M 271 234 L 273 233 L 274 235 L 272 236 Z M 264 227 L 265 230 L 268 232 L 268 235 L 259 250 L 248 262 L 241 266 L 236 267 L 233 265 L 229 253 L 227 254 L 228 268 L 227 269 L 227 275 L 224 290 L 230 300 L 235 305 L 243 304 L 244 308 L 249 309 L 252 312 L 251 314 L 239 313 L 223 306 L 214 298 L 212 294 L 211 288 L 212 287 L 212 277 L 213 276 L 213 268 L 214 267 L 216 248 L 219 242 L 227 236 L 246 231 L 248 227 L 253 229 L 258 229 Z M 275 199 L 277 198 L 278 201 L 276 202 Z M 263 185 L 266 186 L 270 190 L 271 196 L 269 197 L 267 195 L 261 195 L 258 198 L 258 199 L 260 200 L 259 203 L 260 204 L 266 204 L 268 201 L 261 202 L 260 199 L 262 197 L 267 197 L 268 198 L 271 197 L 272 198 L 271 210 L 267 219 L 263 223 L 258 225 L 253 225 L 250 224 L 245 220 L 242 215 L 240 208 L 240 199 L 241 198 L 244 198 L 245 197 L 249 197 L 253 199 L 252 196 L 250 195 L 245 195 L 241 197 L 240 194 L 241 193 L 241 190 L 246 186 L 254 186 L 257 187 Z M 269 183 L 271 182 L 272 184 L 270 185 Z M 242 182 L 244 181 L 245 183 L 243 184 Z M 264 181 L 266 180 L 267 182 L 265 183 Z M 253 182 L 256 180 L 258 183 L 257 184 L 254 184 Z M 259 180 L 261 179 L 262 182 L 260 183 Z M 248 180 L 250 179 L 251 182 L 249 183 Z M 254 175 L 256 174 L 258 177 L 255 178 Z M 254 170 L 256 169 L 257 171 L 255 172 Z M 255 154 L 256 154 L 259 160 L 258 162 L 253 162 L 252 161 Z M 255 113 L 297 161 L 305 187 L 325 201 L 336 223 L 336 258 L 350 280 L 354 314 L 347 345 L 331 372 L 322 363 L 329 340 L 321 335 L 324 319 L 315 308 L 300 303 L 304 294 L 300 248 L 292 235 L 274 228 L 281 197 L 257 146 L 253 147 L 244 172 L 235 180 L 230 198 L 234 224 L 239 228 L 221 234 L 212 246 L 207 280 L 211 302 L 196 308 L 188 317 L 190 335 L 182 343 L 189 363 L 181 372 L 161 336 L 158 295 L 163 276 L 175 259 L 173 238 L 179 214 L 195 193 L 206 188 L 212 165 Z M 250 55 L 236 65 L 232 76 L 233 85 L 243 99 L 201 150 L 192 174 L 173 191 L 163 208 L 156 233 L 157 253 L 143 281 L 140 319 L 149 356 L 168 387 L 194 410 L 233 430 L 256 457 L 276 432 L 320 408 L 349 379 L 367 341 L 371 297 L 367 276 L 355 254 L 355 230 L 346 202 L 334 185 L 320 175 L 309 148 L 269 100 L 279 83 L 276 66 L 264 56 Z M 255 89 L 306 152 L 316 178 L 326 184 L 340 201 L 349 224 L 349 254 L 360 271 L 366 296 L 362 341 L 346 375 L 324 399 L 275 427 L 256 448 L 237 427 L 200 408 L 171 383 L 154 355 L 145 318 L 146 290 L 151 272 L 162 255 L 161 232 L 166 213 L 179 191 L 196 178 L 203 156 Z M 250 72 L 253 70 L 258 70 L 260 71 L 264 76 L 264 81 L 261 85 L 255 84 L 251 86 L 249 84 L 247 79 L 247 77 Z M 246 62 L 250 60 L 257 59 L 264 61 L 271 67 L 274 74 L 274 83 L 272 88 L 267 93 L 266 93 L 263 89 L 267 85 L 268 82 L 268 74 L 264 68 L 257 65 L 249 67 L 245 71 L 243 75 L 244 84 L 248 89 L 247 92 L 244 93 L 240 89 L 237 82 L 237 75 L 239 69 Z" fill="#B88A44" fill-rule="evenodd"/>
</svg>
