<svg xmlns="http://www.w3.org/2000/svg" viewBox="0 0 512 512" >
  <path d="M 226 392 L 207 406 L 187 416 L 175 420 L 172 420 L 167 422 L 162 422 L 161 423 L 138 423 L 136 422 L 136 423 L 144 426 L 160 427 L 161 426 L 172 425 L 185 421 L 198 415 L 211 407 L 216 403 Z M 314 248 L 313 248 L 311 258 L 304 279 L 291 307 L 277 327 L 268 336 L 258 343 L 257 345 L 267 340 L 279 330 L 294 309 L 303 290 L 309 272 Z M 250 185 L 254 188 L 260 188 L 263 185 L 259 185 L 258 186 Z M 244 178 L 244 180 L 248 182 L 254 182 L 255 183 L 266 182 L 270 179 L 270 178 L 267 179 L 263 179 L 262 178 L 259 179 L 254 179 L 253 178 L 247 179 Z M 248 168 L 248 171 L 254 174 L 259 174 L 264 172 L 266 170 L 266 168 L 258 171 L 255 171 L 254 170 L 250 170 L 249 168 Z M 290 149 L 286 149 L 278 152 L 269 150 L 267 151 L 266 153 L 269 153 L 278 156 L 285 154 L 288 152 Z M 223 149 L 223 150 L 227 153 L 236 156 L 237 155 L 241 155 L 244 153 L 247 153 L 245 150 L 235 152 L 228 149 Z M 264 143 L 273 138 L 277 138 L 278 137 L 286 138 L 292 141 L 292 140 L 286 135 L 283 134 L 274 134 L 268 137 L 265 140 Z M 221 140 L 235 137 L 236 138 L 243 139 L 250 143 L 244 136 L 239 134 L 230 134 L 224 137 Z M 256 130 L 255 131 L 255 134 L 258 135 L 259 132 Z M 249 47 L 224 84 L 205 98 L 200 111 L 196 147 L 204 169 L 203 191 L 214 199 L 224 189 L 225 197 L 172 218 L 154 246 L 143 329 L 148 344 L 161 357 L 114 375 L 101 391 L 100 417 L 112 434 L 142 445 L 217 445 L 238 437 L 282 446 L 372 445 L 391 440 L 410 424 L 414 397 L 398 374 L 357 357 L 369 337 L 370 312 L 356 235 L 340 216 L 290 200 L 291 190 L 303 199 L 310 193 L 309 173 L 318 144 L 313 109 L 268 49 Z M 246 431 L 249 429 L 255 422 L 260 421 L 269 417 L 272 421 L 280 428 L 286 432 L 295 436 L 296 438 L 295 439 L 267 439 L 266 438 L 261 438 L 260 437 L 249 435 L 246 433 Z M 264 388 L 260 402 L 254 414 L 240 429 L 230 435 L 221 438 L 218 438 L 217 439 L 206 439 L 205 438 L 206 436 L 216 431 L 223 426 L 237 412 L 243 403 L 251 387 L 263 387 Z M 345 383 L 344 385 L 334 387 L 313 394 L 310 396 L 281 406 L 265 413 L 262 413 L 261 412 L 264 406 L 268 394 L 268 391 L 271 387 L 273 386 L 278 386 L 302 375 L 311 375 L 323 379 L 325 378 L 331 378 L 333 380 L 342 380 Z M 409 403 L 408 414 L 400 427 L 387 435 L 371 439 L 324 439 L 312 437 L 292 430 L 275 417 L 276 414 L 295 407 L 317 421 L 336 427 L 357 429 L 373 426 L 350 426 L 331 422 L 315 416 L 300 407 L 301 404 L 342 390 L 367 388 L 358 383 L 351 383 L 343 375 L 344 373 L 359 371 L 375 371 L 393 378 L 405 390 Z M 317 370 L 319 369 L 320 371 L 318 372 Z M 255 368 L 258 367 L 259 369 L 256 370 Z M 246 387 L 246 390 L 237 405 L 222 421 L 202 433 L 186 438 L 142 439 L 129 436 L 118 431 L 109 422 L 105 414 L 105 397 L 108 390 L 116 381 L 138 370 L 170 362 L 200 373 L 203 376 L 198 377 L 170 374 L 155 376 L 145 381 L 155 379 L 180 379 Z M 312 364 L 311 366 L 307 368 L 299 370 L 285 377 L 279 379 L 275 379 L 274 380 L 269 380 L 268 381 L 248 381 L 247 380 L 241 380 L 236 378 L 237 375 L 254 375 L 255 374 L 263 373 L 276 366 L 276 364 L 274 363 L 258 362 L 256 360 L 256 357 L 257 356 L 270 356 L 271 355 L 275 355 L 281 353 L 288 353 L 296 356 L 297 355 L 302 355 Z M 192 298 L 194 299 L 196 305 L 196 326 L 194 331 L 192 331 L 186 325 L 189 308 L 190 307 L 190 303 Z M 196 287 L 218 286 L 247 272 L 273 246 L 292 208 L 308 211 L 293 256 L 266 300 L 235 327 L 205 334 L 220 337 L 254 319 L 282 285 L 311 214 L 329 217 L 345 228 L 352 241 L 364 313 L 360 344 L 338 361 L 352 360 L 358 366 L 327 367 L 303 349 L 310 342 L 320 342 L 336 351 L 316 336 L 331 326 L 349 327 L 328 321 L 349 289 L 322 316 L 329 249 L 313 309 L 299 337 L 315 314 L 317 328 L 294 348 L 211 349 L 199 338 L 202 311 L 222 312 L 235 305 L 207 308 Z M 282 196 L 287 206 L 276 231 L 265 247 L 244 267 L 218 280 L 200 281 L 194 277 L 186 260 L 189 282 L 181 322 L 169 323 L 181 328 L 209 355 L 226 353 L 250 356 L 251 359 L 247 362 L 235 362 L 230 365 L 252 370 L 238 370 L 230 376 L 225 376 L 182 361 L 160 348 L 150 335 L 149 322 L 158 256 L 167 231 L 183 219 L 226 206 L 231 197 L 251 204 L 262 204 Z M 306 145 L 307 146 L 307 149 L 308 149 L 309 146 L 311 147 L 311 149 L 308 155 L 304 168 L 304 174 L 303 176 L 304 177 L 304 187 L 305 190 L 302 193 L 300 193 L 297 190 L 296 187 L 296 177 L 299 170 L 299 166 L 301 160 L 301 153 L 304 146 Z M 303 139 L 305 137 L 310 137 L 312 140 L 312 145 L 310 146 L 307 141 L 304 141 Z M 204 137 L 208 137 L 210 139 L 209 141 L 207 141 L 205 143 L 205 147 L 206 149 L 206 146 L 208 145 L 212 151 L 213 163 L 214 164 L 216 175 L 218 179 L 217 188 L 214 193 L 211 193 L 209 191 L 210 170 L 209 169 L 207 159 L 202 147 L 202 139 Z M 304 119 L 306 119 L 308 121 L 308 124 L 305 127 L 301 124 L 301 122 Z M 208 119 L 210 119 L 212 121 L 212 125 L 210 127 L 208 127 L 205 123 Z M 224 116 L 230 113 L 236 113 L 237 112 L 240 113 L 249 113 L 253 115 L 261 115 L 264 113 L 273 113 L 276 112 L 277 113 L 283 113 L 292 118 L 293 121 L 296 124 L 296 127 L 298 131 L 297 159 L 294 171 L 288 183 L 280 191 L 265 198 L 254 199 L 253 198 L 248 198 L 238 194 L 231 189 L 225 182 L 221 175 L 218 166 L 217 156 L 216 155 L 216 146 L 215 145 L 216 129 L 219 122 Z M 302 108 L 305 108 L 307 110 L 307 114 L 305 116 L 300 113 L 300 111 Z M 208 108 L 211 108 L 213 110 L 213 113 L 210 116 L 206 113 L 206 111 Z M 291 104 L 293 104 L 296 107 L 296 110 L 294 112 L 292 112 L 289 109 L 289 106 Z M 220 104 L 222 104 L 225 107 L 224 110 L 221 112 L 219 112 L 217 109 Z M 256 101 L 261 104 L 261 107 L 258 110 L 255 110 L 252 106 Z M 280 100 L 282 100 L 285 103 L 285 106 L 283 108 L 280 108 L 277 105 L 277 103 Z M 266 101 L 270 100 L 273 103 L 273 106 L 271 108 L 267 108 L 265 106 L 265 102 Z M 240 104 L 243 100 L 246 100 L 249 105 L 246 108 L 243 108 Z M 228 103 L 231 100 L 234 100 L 236 102 L 236 106 L 233 108 L 231 108 L 228 105 Z M 296 100 L 298 98 L 301 98 L 303 100 L 303 104 L 300 105 Z M 213 98 L 215 98 L 217 100 L 214 105 L 212 105 L 210 103 L 210 101 Z M 286 90 L 290 92 L 290 96 L 288 98 L 283 95 L 283 92 Z M 259 92 L 261 90 L 265 90 L 267 93 L 267 95 L 262 98 L 259 96 Z M 247 92 L 249 90 L 253 90 L 255 93 L 255 95 L 250 98 L 247 95 Z M 226 90 L 228 90 L 231 93 L 231 95 L 227 98 L 225 98 L 223 96 L 223 93 Z M 274 89 L 277 90 L 279 93 L 276 97 L 273 97 L 271 95 L 271 91 Z M 238 89 L 243 92 L 243 94 L 240 97 L 237 97 L 235 95 L 235 92 Z M 276 82 L 278 80 L 281 80 L 284 83 L 284 85 L 282 87 L 280 87 L 276 84 Z M 230 82 L 232 80 L 235 80 L 237 82 L 237 84 L 232 87 L 230 85 Z M 265 81 L 267 79 L 271 80 L 272 81 L 272 85 L 271 86 L 266 86 L 265 85 Z M 253 81 L 255 79 L 258 79 L 261 82 L 261 84 L 259 86 L 255 86 L 253 84 Z M 241 82 L 244 79 L 246 79 L 249 81 L 249 84 L 247 86 L 243 86 L 241 84 Z M 271 73 L 273 71 L 275 71 L 278 73 L 278 76 L 275 78 L 271 75 Z M 235 76 L 235 74 L 238 71 L 241 71 L 243 73 L 243 75 L 239 78 Z M 259 71 L 261 69 L 265 69 L 267 71 L 267 73 L 264 76 L 262 76 L 259 74 Z M 247 71 L 249 69 L 253 69 L 255 71 L 255 73 L 252 76 L 250 76 L 247 74 Z M 243 62 L 244 59 L 252 52 L 261 52 L 265 54 L 270 60 L 270 63 L 269 64 L 258 63 L 257 62 L 244 64 Z" fill="#B88A44" fill-rule="evenodd"/>
</svg>
