<svg xmlns="http://www.w3.org/2000/svg" viewBox="0 0 512 512" >
  <path d="M 255 250 L 251 253 L 251 258 L 254 261 L 258 261 L 260 260 L 261 258 L 261 253 L 259 251 Z M 250 239 L 245 242 L 240 248 L 239 251 L 239 261 L 245 270 L 251 273 L 261 273 L 267 270 L 270 267 L 274 257 L 273 250 L 270 245 L 266 241 L 262 239 L 258 239 L 257 238 Z M 251 242 L 261 242 L 263 243 L 270 251 L 270 260 L 268 264 L 264 268 L 260 270 L 252 270 L 248 268 L 244 264 L 242 260 L 242 252 L 244 248 Z M 256 191 L 251 202 L 240 213 L 233 210 L 213 210 L 209 207 L 210 234 L 213 240 L 201 252 L 192 255 L 204 262 L 213 271 L 210 278 L 210 298 L 208 304 L 213 302 L 233 302 L 240 299 L 252 311 L 255 320 L 258 319 L 258 315 L 261 310 L 272 299 L 279 302 L 298 302 L 304 304 L 305 303 L 302 298 L 302 278 L 299 271 L 312 259 L 320 256 L 311 252 L 299 240 L 302 234 L 302 214 L 305 209 L 279 210 L 272 213 L 259 199 Z M 233 286 L 234 285 L 240 285 L 241 286 L 250 285 L 256 291 L 262 285 L 265 285 L 266 286 L 278 285 L 279 287 L 257 310 L 255 310 Z M 296 275 L 299 279 L 299 298 L 298 299 L 281 299 L 278 298 L 276 295 L 287 283 Z M 216 275 L 233 291 L 236 295 L 234 298 L 232 299 L 214 299 L 213 298 L 213 295 L 214 294 L 213 280 Z M 279 269 L 280 270 L 280 281 L 279 282 L 267 283 L 266 281 Z M 232 270 L 234 269 L 246 282 L 245 283 L 234 282 L 232 277 Z M 284 231 L 310 255 L 310 257 L 285 281 L 283 280 L 283 264 L 291 256 L 283 248 L 283 232 Z M 228 230 L 230 231 L 230 236 L 229 237 L 229 245 L 230 247 L 221 256 L 229 264 L 229 275 L 230 276 L 230 280 L 229 281 L 227 281 L 202 257 L 202 255 Z M 266 230 L 267 229 L 276 229 L 280 231 L 280 242 L 278 243 Z M 245 229 L 246 231 L 233 243 L 232 242 L 233 231 L 237 229 Z M 255 226 L 257 226 L 269 239 L 286 255 L 257 285 L 255 285 L 227 257 L 227 255 Z M 278 214 L 280 213 L 288 213 L 289 214 L 298 213 L 299 214 L 299 233 L 297 236 L 295 236 L 276 217 Z M 214 235 L 213 232 L 213 223 L 214 222 L 213 214 L 214 213 L 217 213 L 218 214 L 231 213 L 236 216 L 217 236 Z M 234 224 L 255 202 L 257 202 L 267 213 L 279 224 L 279 226 L 278 227 L 275 227 L 274 226 L 265 226 L 262 227 L 256 221 L 250 227 L 248 226 L 238 226 L 235 227 Z M 256 38 L 249 86 L 256 92 L 247 96 L 256 102 L 247 107 L 262 113 L 246 109 L 253 129 L 231 134 L 254 143 L 229 168 L 169 168 L 169 228 L 145 253 L 135 247 L 134 226 L 124 231 L 130 248 L 121 254 L 112 239 L 102 248 L 38 253 L 99 258 L 102 265 L 108 259 L 110 269 L 124 257 L 130 283 L 144 258 L 169 283 L 169 343 L 228 343 L 253 368 L 231 378 L 254 385 L 244 400 L 255 468 L 264 420 L 258 415 L 268 401 L 258 386 L 281 379 L 277 370 L 259 368 L 284 343 L 343 343 L 343 283 L 368 258 L 382 283 L 389 257 L 403 269 L 415 257 L 421 263 L 474 255 L 410 249 L 404 239 L 391 254 L 382 247 L 384 226 L 375 229 L 377 247 L 368 253 L 343 228 L 343 168 L 284 168 L 258 143 L 277 142 L 281 133 L 258 125 L 268 111 L 259 97 L 265 91 Z M 252 399 L 257 396 L 261 399 L 261 401 L 260 402 L 256 402 L 253 401 Z M 266 376 L 270 373 L 276 373 L 278 376 L 278 378 L 275 381 L 270 381 L 266 378 Z M 255 373 L 257 373 L 260 377 L 257 381 L 255 381 L 253 378 L 253 376 Z M 235 375 L 237 373 L 242 373 L 246 376 L 246 378 L 242 381 L 237 381 L 235 379 Z M 235 344 L 236 343 L 276 343 L 277 345 L 257 365 L 255 365 Z M 265 330 L 265 325 L 266 324 L 295 324 L 296 325 L 278 344 L 276 343 L 276 331 L 266 331 Z M 216 325 L 217 324 L 246 324 L 247 325 L 247 330 L 246 331 L 236 331 L 236 343 L 234 344 Z M 320 308 L 321 309 L 321 319 L 320 320 L 310 320 L 309 318 Z M 191 309 L 193 308 L 203 319 L 202 320 L 192 320 L 191 319 Z M 339 289 L 340 290 L 340 339 L 339 340 L 290 340 L 289 338 L 303 324 L 323 324 L 324 323 L 324 303 Z M 172 289 L 174 288 L 188 303 L 188 323 L 189 324 L 209 324 L 223 339 L 222 340 L 173 340 L 172 339 Z M 380 266 L 384 269 L 385 272 L 385 277 L 383 279 L 379 279 L 377 276 L 377 272 Z M 131 266 L 134 268 L 135 271 L 135 277 L 133 279 L 129 279 L 127 276 L 127 272 Z M 182 263 L 187 263 L 188 264 L 188 295 L 186 296 L 168 277 L 169 275 L 181 275 L 181 264 Z M 96 252 L 98 251 L 99 253 L 97 254 Z M 378 250 L 380 250 L 384 254 L 384 256 L 380 260 L 373 256 Z M 128 254 L 132 250 L 134 250 L 139 256 L 132 260 L 128 256 Z M 107 245 L 109 246 L 111 252 L 114 255 L 112 262 L 108 259 L 108 253 L 106 249 L 106 246 Z M 405 244 L 406 245 L 406 249 L 404 252 L 402 259 L 400 260 L 398 255 L 401 252 L 403 245 Z M 380 229 L 382 229 L 385 232 L 385 237 L 381 243 L 379 242 L 377 237 L 377 232 Z M 130 229 L 132 229 L 135 232 L 135 237 L 132 242 L 131 242 L 127 237 L 127 232 Z M 187 216 L 188 217 L 188 247 L 187 248 L 182 248 L 181 247 L 181 237 L 169 237 L 169 275 L 167 276 L 147 255 Z M 326 215 L 365 255 L 351 271 L 348 273 L 326 296 L 324 295 L 324 265 L 327 263 L 330 263 L 331 264 L 331 275 L 343 275 L 343 237 L 340 237 L 339 236 L 337 237 L 331 237 L 331 247 L 330 248 L 325 248 L 324 247 L 324 216 Z M 308 192 L 309 191 L 320 191 L 321 192 L 321 203 L 319 204 Z M 191 203 L 191 192 L 192 191 L 203 191 L 204 192 L 193 204 Z M 290 173 L 291 172 L 339 172 L 340 173 L 340 222 L 338 223 L 324 209 L 324 188 L 303 188 Z M 240 172 L 272 172 L 272 177 L 262 177 L 262 191 L 302 191 L 321 210 L 321 251 L 333 252 L 334 241 L 340 241 L 340 271 L 334 271 L 334 260 L 321 260 L 321 301 L 302 320 L 262 320 L 262 334 L 272 334 L 272 340 L 240 340 L 240 334 L 251 333 L 250 320 L 210 320 L 191 301 L 191 260 L 178 260 L 178 271 L 172 271 L 172 241 L 178 241 L 178 252 L 191 252 L 191 211 L 211 191 L 251 191 L 251 178 L 240 177 Z M 172 222 L 172 173 L 173 172 L 222 172 L 223 173 L 209 188 L 188 188 L 188 209 L 174 223 Z M 265 181 L 266 180 L 270 180 L 271 181 L 272 180 L 276 180 L 276 168 L 278 167 L 297 187 L 296 188 L 266 188 L 265 187 Z M 247 181 L 247 187 L 246 188 L 216 188 L 215 187 L 234 167 L 236 168 L 236 180 L 242 180 L 243 181 L 246 180 Z M 235 166 L 238 164 L 255 146 L 257 146 L 277 167 L 276 168 L 236 168 Z M 266 134 L 270 131 L 275 131 L 278 134 L 278 136 L 275 139 L 270 139 L 266 136 Z M 235 137 L 235 133 L 237 131 L 242 131 L 247 134 L 247 135 L 242 139 L 237 139 Z M 256 130 L 257 130 L 260 134 L 257 139 L 253 136 L 253 134 Z" fill="#B88A44" fill-rule="evenodd"/>
</svg>
