<svg xmlns="http://www.w3.org/2000/svg" viewBox="0 0 512 512" >
  <path d="M 188 353 L 189 362 L 195 370 L 211 372 L 222 380 L 238 378 L 245 372 L 249 362 L 248 353 L 241 344 L 230 341 L 221 347 L 220 355 L 226 362 L 231 360 L 225 353 L 229 347 L 237 348 L 243 355 L 242 367 L 230 375 L 218 372 L 212 365 L 199 366 L 194 360 L 194 351 L 202 344 L 213 345 L 221 330 L 237 328 L 246 316 L 260 313 L 268 316 L 277 328 L 294 331 L 301 345 L 311 344 L 319 352 L 319 360 L 314 366 L 301 365 L 293 373 L 282 375 L 271 367 L 270 354 L 277 347 L 284 347 L 287 355 L 282 360 L 287 362 L 293 351 L 286 342 L 273 343 L 264 356 L 265 367 L 273 377 L 291 380 L 302 372 L 314 372 L 322 366 L 325 357 L 317 341 L 305 339 L 296 326 L 280 322 L 273 313 L 262 308 L 248 309 L 233 322 L 217 326 L 208 339 L 193 343 Z M 253 123 L 250 230 L 225 230 L 218 131 L 205 128 L 210 231 L 150 243 L 145 260 L 156 276 L 151 286 L 131 266 L 111 269 L 103 280 L 97 321 L 120 344 L 118 359 L 126 364 L 140 359 L 153 377 L 164 407 L 160 431 L 183 429 L 197 404 L 228 410 L 243 447 L 259 453 L 270 446 L 284 410 L 316 404 L 331 430 L 354 430 L 349 406 L 359 378 L 373 359 L 383 364 L 395 359 L 392 344 L 410 333 L 416 313 L 403 270 L 382 266 L 361 286 L 357 276 L 368 257 L 363 243 L 303 231 L 309 128 L 297 130 L 288 230 L 264 230 L 264 125 Z M 246 401 L 249 401 L 250 400 L 263 400 L 271 403 L 275 407 L 274 415 L 271 419 L 267 428 L 267 431 L 266 432 L 266 442 L 260 447 L 253 447 L 247 443 L 246 429 L 244 423 L 238 413 L 238 407 L 242 403 Z M 352 385 L 353 388 L 347 398 L 343 408 L 344 414 L 349 421 L 350 425 L 348 427 L 338 427 L 335 426 L 327 417 L 322 406 L 322 402 L 324 400 L 326 400 L 338 394 Z M 161 385 L 173 393 L 187 400 L 189 400 L 191 402 L 190 408 L 184 420 L 179 425 L 175 427 L 164 427 L 162 425 L 163 422 L 168 416 L 169 413 L 169 405 L 160 389 L 160 386 Z M 379 302 L 385 302 L 389 305 L 392 312 L 392 317 L 390 322 L 386 326 L 382 328 L 380 328 L 378 325 L 378 318 L 375 310 L 375 307 Z M 127 302 L 133 302 L 135 303 L 138 308 L 136 313 L 135 322 L 133 328 L 127 326 L 122 321 L 121 318 L 122 308 Z M 140 319 L 148 299 L 162 279 L 200 288 L 240 291 L 304 289 L 331 285 L 351 279 L 369 307 L 373 321 L 373 340 L 370 352 L 361 368 L 344 384 L 324 395 L 298 403 L 280 405 L 271 397 L 253 394 L 240 398 L 232 405 L 226 405 L 189 395 L 160 377 L 144 355 L 139 335 Z M 394 271 L 398 273 L 404 280 L 405 289 L 402 295 L 402 298 L 407 303 L 409 307 L 411 317 L 410 318 L 409 325 L 402 333 L 389 339 L 386 342 L 384 346 L 384 350 L 387 353 L 390 352 L 391 355 L 388 358 L 382 358 L 380 357 L 376 352 L 377 344 L 378 343 L 378 337 L 381 334 L 390 330 L 394 326 L 397 319 L 397 310 L 394 303 L 388 297 L 380 296 L 372 300 L 369 297 L 366 292 L 366 290 L 369 287 L 375 284 L 377 277 L 382 272 L 384 271 Z M 119 271 L 129 271 L 131 272 L 136 277 L 137 283 L 142 286 L 147 291 L 141 301 L 133 296 L 128 296 L 123 298 L 118 304 L 116 309 L 116 320 L 118 325 L 123 330 L 132 334 L 134 336 L 134 340 L 135 341 L 135 345 L 137 352 L 136 354 L 131 358 L 125 358 L 122 355 L 123 353 L 127 352 L 129 349 L 128 344 L 126 341 L 122 338 L 112 334 L 105 327 L 102 319 L 102 313 L 104 306 L 107 301 L 111 297 L 111 295 L 108 290 L 108 282 L 110 278 L 115 273 Z M 152 262 L 154 261 L 163 265 L 187 270 L 234 274 L 297 273 L 338 268 L 359 261 L 361 264 L 356 270 L 349 274 L 316 282 L 285 285 L 232 285 L 197 282 L 172 277 L 158 271 L 153 266 Z M 300 257 L 301 255 L 300 253 L 302 249 L 320 250 L 321 251 L 326 251 L 330 253 L 329 255 L 326 255 L 325 256 L 308 257 L 307 258 L 301 258 Z M 213 257 L 212 258 L 195 257 L 194 256 L 183 255 L 182 253 L 187 251 L 199 250 L 200 249 L 211 249 L 213 253 Z M 264 248 L 265 247 L 282 247 L 286 249 L 286 258 L 285 259 L 265 259 L 264 258 Z M 227 249 L 231 247 L 249 247 L 250 248 L 250 258 L 249 259 L 228 259 L 227 258 Z M 151 249 L 174 241 L 210 238 L 210 243 L 184 246 L 176 249 L 173 255 L 185 261 L 231 265 L 312 263 L 331 260 L 340 254 L 337 249 L 303 243 L 303 238 L 326 239 L 352 244 L 359 247 L 362 253 L 344 261 L 313 266 L 222 268 L 165 260 L 153 255 Z M 264 237 L 265 236 L 286 237 L 287 238 L 287 241 L 286 242 L 265 242 L 264 241 Z M 226 238 L 227 237 L 234 237 L 235 236 L 249 236 L 250 237 L 250 240 L 247 242 L 227 242 L 226 241 Z M 303 147 L 304 148 L 304 157 L 303 158 L 303 169 L 302 170 L 302 180 L 301 181 L 301 191 L 300 192 L 300 203 L 299 204 L 299 213 L 298 214 L 295 257 L 292 259 L 291 258 L 291 255 L 292 254 L 293 231 L 294 230 L 294 220 L 295 219 L 295 209 L 296 208 L 296 198 L 297 197 L 297 187 L 298 186 L 298 176 L 299 175 L 299 165 L 300 164 L 300 152 L 301 151 L 301 148 Z M 211 147 L 213 148 L 213 152 L 214 153 L 216 192 L 217 193 L 217 203 L 218 204 L 220 242 L 221 243 L 221 252 L 222 253 L 221 255 L 222 257 L 221 258 L 218 257 L 218 247 L 217 246 L 217 236 L 216 235 L 216 223 L 215 222 L 215 211 L 214 210 L 213 187 L 212 186 L 212 174 L 211 173 L 211 159 L 210 158 L 210 148 Z M 256 143 L 259 144 L 259 258 L 258 259 L 255 258 L 255 144 Z M 303 133 L 306 134 L 304 141 L 302 140 L 302 134 Z M 210 133 L 212 134 L 212 141 L 211 142 L 209 141 L 209 134 Z M 256 129 L 259 130 L 259 136 L 258 137 L 255 136 L 255 130 Z M 313 55 L 310 56 L 310 59 L 311 60 L 311 70 L 309 74 L 303 81 L 300 88 L 301 96 L 308 106 L 308 113 L 304 119 L 305 122 L 310 119 L 315 110 L 314 104 L 307 93 L 307 88 L 315 76 L 317 71 L 317 64 L 316 63 L 316 60 Z M 199 55 L 199 58 L 202 65 L 202 71 L 195 85 L 195 93 L 197 98 L 204 104 L 208 109 L 208 115 L 206 120 L 209 122 L 213 116 L 214 107 L 212 103 L 203 95 L 201 91 L 202 85 L 207 76 L 208 67 L 207 66 L 207 63 L 202 55 Z M 260 46 L 257 46 L 256 47 L 258 52 L 258 59 L 249 72 L 246 79 L 247 87 L 258 103 L 255 112 L 255 116 L 258 116 L 263 108 L 263 104 L 264 103 L 262 96 L 255 88 L 253 84 L 253 79 L 256 73 L 261 67 L 263 62 L 263 53 Z" fill="#B88A44" fill-rule="evenodd"/>
</svg>
