<svg xmlns="http://www.w3.org/2000/svg" viewBox="0 0 512 512" >
  <path d="M 250 96 L 243 99 L 236 106 L 232 116 L 232 123 L 237 134 L 244 140 L 249 142 L 254 142 L 255 143 L 257 142 L 262 142 L 270 138 L 275 133 L 279 124 L 279 115 L 275 106 L 266 98 L 261 96 Z M 255 106 L 262 108 L 267 113 L 269 119 L 266 127 L 263 130 L 258 132 L 253 132 L 248 130 L 243 123 L 244 113 L 249 108 Z M 206 67 L 149 131 L 142 145 L 143 430 L 152 442 L 165 447 L 354 445 L 365 436 L 369 426 L 368 141 L 305 67 Z M 212 76 L 299 76 L 357 142 L 359 422 L 350 435 L 164 436 L 153 426 L 152 149 L 161 133 Z" fill="#B88A44" fill-rule="evenodd"/>
</svg>
