<svg xmlns="http://www.w3.org/2000/svg" viewBox="0 0 512 512" >
  <path d="M 255 391 L 254 392 L 254 409 L 257 410 L 259 405 L 259 402 L 258 401 L 258 395 L 259 394 L 257 391 Z M 229 381 L 229 384 L 230 385 L 281 385 L 283 383 L 282 380 L 230 380 Z M 229 368 L 229 371 L 230 372 L 234 372 L 235 373 L 241 373 L 242 372 L 244 373 L 246 372 L 253 372 L 254 373 L 255 372 L 270 372 L 271 373 L 277 373 L 283 371 L 282 368 L 279 368 L 278 367 L 277 368 L 238 368 L 237 367 L 236 368 Z M 229 356 L 229 359 L 230 360 L 282 360 L 283 359 L 283 356 L 282 355 L 230 355 Z M 333 336 L 330 337 L 326 342 L 326 347 L 330 352 L 332 353 L 337 353 L 341 351 L 343 348 L 343 342 L 339 337 Z M 331 343 L 333 341 L 336 341 L 338 343 L 338 346 L 336 348 L 333 348 L 331 346 Z M 176 336 L 171 339 L 169 343 L 169 347 L 173 352 L 175 353 L 181 353 L 184 351 L 186 348 L 186 342 L 182 337 Z M 174 343 L 176 341 L 179 341 L 182 345 L 180 348 L 176 348 L 174 346 Z M 256 333 L 254 334 L 254 349 L 256 350 L 259 346 L 258 345 L 258 334 Z M 356 305 L 340 305 L 339 306 L 339 320 L 336 322 L 321 322 L 320 321 L 315 322 L 314 324 L 314 366 L 316 368 L 337 368 L 338 367 L 338 364 L 337 363 L 320 363 L 319 362 L 319 328 L 322 326 L 343 326 L 344 324 L 344 311 L 345 310 L 352 310 L 353 311 L 353 327 L 356 328 L 358 326 L 358 307 Z M 157 305 L 155 307 L 155 326 L 157 328 L 160 327 L 160 311 L 161 310 L 168 310 L 169 311 L 169 325 L 170 326 L 191 326 L 193 328 L 193 362 L 192 363 L 176 363 L 174 366 L 176 368 L 197 368 L 198 367 L 198 323 L 193 321 L 191 322 L 177 322 L 174 320 L 174 306 L 173 305 Z M 226 296 L 227 299 L 253 299 L 254 300 L 254 316 L 255 317 L 257 317 L 259 313 L 258 301 L 260 299 L 285 299 L 286 298 L 286 296 L 284 294 L 228 294 Z M 349 279 L 347 280 L 347 287 L 348 288 L 351 287 L 351 281 Z M 164 279 L 162 281 L 162 287 L 163 288 L 166 287 L 166 281 Z M 332 272 L 333 275 L 365 275 L 366 273 L 365 271 L 333 271 Z M 147 272 L 148 275 L 180 275 L 181 274 L 180 271 L 148 271 Z M 332 261 L 332 264 L 334 265 L 364 265 L 366 263 L 364 260 L 334 260 Z M 147 262 L 149 265 L 179 265 L 181 263 L 179 260 L 149 260 Z M 332 250 L 332 253 L 365 253 L 366 252 L 364 249 L 333 249 Z M 147 250 L 148 253 L 180 253 L 181 252 L 181 250 L 179 249 L 149 249 Z M 349 233 L 347 235 L 347 244 L 348 245 L 351 243 L 351 235 Z M 298 233 L 296 234 L 296 279 L 297 280 L 300 279 L 300 260 L 301 259 L 309 259 L 311 257 L 309 254 L 301 254 L 300 253 L 300 234 Z M 215 233 L 212 235 L 212 253 L 211 254 L 204 254 L 202 256 L 202 258 L 204 259 L 211 259 L 212 260 L 212 278 L 214 280 L 217 279 L 217 235 Z M 164 233 L 162 235 L 162 244 L 163 245 L 166 244 L 166 235 Z M 249 226 L 237 232 L 230 240 L 227 246 L 226 253 L 225 254 L 226 265 L 232 277 L 240 284 L 250 288 L 264 288 L 275 283 L 285 272 L 285 270 L 288 264 L 288 250 L 283 239 L 274 230 L 268 227 L 261 226 L 260 225 Z M 282 259 L 283 260 L 283 263 L 278 273 L 270 280 L 263 283 L 260 283 L 259 282 L 259 266 L 261 265 L 266 259 Z M 231 260 L 232 259 L 247 259 L 249 262 L 254 266 L 254 282 L 251 283 L 239 277 L 232 267 Z M 253 255 L 255 253 L 258 253 L 261 256 L 261 258 L 258 261 L 255 261 L 253 259 Z M 259 232 L 260 231 L 264 231 L 272 235 L 279 242 L 282 248 L 283 253 L 282 254 L 266 254 L 263 250 L 259 248 Z M 253 231 L 254 232 L 254 248 L 252 249 L 248 254 L 232 254 L 231 253 L 231 250 L 236 240 L 243 234 L 249 231 Z M 226 215 L 228 218 L 284 218 L 286 216 L 285 213 L 259 213 L 258 212 L 259 207 L 258 206 L 258 199 L 257 198 L 254 199 L 254 212 L 253 213 L 228 213 Z M 335 166 L 332 167 L 328 171 L 327 176 L 328 179 L 332 183 L 338 184 L 343 181 L 345 177 L 345 173 L 340 167 Z M 335 171 L 337 171 L 340 174 L 340 177 L 338 179 L 335 179 L 332 176 L 332 174 Z M 257 166 L 255 166 L 253 169 L 254 170 L 254 180 L 256 181 L 258 180 L 258 176 L 259 175 L 258 174 L 258 167 Z M 176 165 L 170 168 L 168 172 L 168 177 L 171 181 L 175 183 L 181 182 L 185 177 L 185 171 L 182 167 Z M 176 170 L 178 170 L 180 172 L 180 176 L 178 178 L 175 178 L 173 176 L 173 173 Z M 283 159 L 283 157 L 280 155 L 279 156 L 230 156 L 228 158 L 229 160 L 272 160 L 273 161 L 274 160 L 276 161 Z M 317 151 L 316 152 L 316 197 L 318 198 L 340 198 L 341 199 L 341 213 L 343 215 L 359 215 L 360 214 L 360 194 L 359 193 L 357 193 L 355 195 L 355 209 L 354 210 L 347 210 L 346 209 L 346 194 L 345 193 L 322 193 L 321 192 L 321 157 L 322 156 L 338 156 L 340 154 L 340 152 L 339 151 L 322 151 L 321 150 Z M 195 150 L 174 150 L 172 152 L 173 155 L 190 155 L 191 156 L 191 191 L 190 192 L 169 192 L 167 193 L 167 198 L 166 199 L 167 200 L 167 208 L 166 209 L 159 209 L 158 208 L 158 195 L 157 193 L 153 193 L 152 195 L 152 212 L 153 214 L 170 214 L 172 211 L 171 210 L 171 205 L 172 204 L 172 198 L 173 197 L 195 197 L 196 196 L 196 151 Z M 228 147 L 230 149 L 282 149 L 283 148 L 283 146 L 281 144 L 230 144 Z M 228 135 L 230 138 L 281 138 L 283 136 L 282 133 L 230 133 Z M 257 107 L 254 108 L 254 126 L 255 127 L 258 126 L 259 124 L 258 121 L 258 108 Z M 254 44 L 172 87 L 149 106 L 127 136 L 103 197 L 98 281 L 116 353 L 155 416 L 175 434 L 245 467 L 263 468 L 333 437 L 371 399 L 404 332 L 414 285 L 415 251 L 410 199 L 400 164 L 366 109 L 335 83 L 266 46 Z M 218 446 L 226 430 L 226 428 L 229 424 L 235 424 L 236 425 L 273 425 L 274 424 L 283 424 L 286 427 L 289 433 L 289 435 L 293 442 L 294 448 L 291 451 L 272 460 L 266 462 L 262 462 L 261 463 L 252 463 L 231 456 L 227 453 L 220 450 L 218 448 Z M 325 399 L 339 418 L 340 424 L 335 429 L 316 439 L 314 441 L 310 442 L 305 445 L 301 445 L 296 438 L 296 436 L 290 424 L 290 421 L 314 404 L 323 399 Z M 188 399 L 197 403 L 208 411 L 211 412 L 223 422 L 222 426 L 217 435 L 217 437 L 212 445 L 205 444 L 193 438 L 178 429 L 172 423 L 173 419 L 178 413 L 184 403 Z M 361 361 L 374 369 L 378 373 L 378 377 L 370 391 L 360 405 L 352 414 L 348 417 L 345 417 L 339 410 L 330 395 L 343 381 L 358 361 Z M 151 361 L 154 361 L 158 365 L 168 379 L 182 394 L 181 399 L 168 417 L 164 417 L 155 408 L 142 390 L 134 375 L 136 371 Z M 200 398 L 232 328 L 280 328 L 312 399 L 295 410 L 284 419 L 229 419 L 222 413 L 201 400 Z M 379 302 L 382 302 L 394 307 L 399 308 L 402 311 L 401 323 L 395 343 L 386 363 L 382 367 L 380 367 L 362 355 Z M 131 302 L 133 302 L 135 304 L 135 307 L 140 321 L 140 324 L 143 330 L 150 351 L 150 355 L 147 358 L 132 367 L 130 367 L 127 364 L 122 354 L 114 332 L 114 329 L 112 324 L 112 319 L 111 318 L 111 311 L 113 309 Z M 373 297 L 374 300 L 372 304 L 366 327 L 359 344 L 357 354 L 326 392 L 317 396 L 315 394 L 315 392 L 285 326 L 317 297 Z M 139 297 L 194 297 L 226 326 L 225 331 L 220 340 L 220 342 L 200 385 L 197 394 L 195 396 L 188 393 L 183 388 L 156 355 L 156 352 L 143 316 L 140 302 L 138 299 Z M 383 243 L 403 243 L 404 244 L 407 244 L 409 246 L 409 254 L 410 255 L 409 284 L 408 285 L 408 290 L 407 291 L 406 299 L 403 303 L 399 303 L 393 300 L 381 296 L 379 293 L 379 290 L 380 289 L 380 279 L 381 278 L 381 245 Z M 129 243 L 131 245 L 131 272 L 132 273 L 133 294 L 130 297 L 110 304 L 107 300 L 105 288 L 104 287 L 104 279 L 103 278 L 103 252 L 104 251 L 104 246 L 106 244 Z M 321 227 L 374 227 L 375 228 L 375 233 L 377 238 L 377 242 L 376 243 L 375 285 L 373 292 L 321 292 L 320 291 L 320 228 Z M 138 227 L 191 227 L 192 228 L 192 291 L 191 292 L 139 292 L 138 291 L 137 266 L 136 265 L 136 243 L 135 242 L 135 239 L 137 234 L 137 228 Z M 229 191 L 281 191 L 314 225 L 315 292 L 281 323 L 230 323 L 197 292 L 197 225 Z M 395 183 L 398 183 L 400 185 L 404 195 L 406 210 L 407 211 L 407 219 L 408 220 L 408 236 L 406 238 L 385 238 L 381 235 L 380 220 L 379 219 L 378 207 L 376 200 L 376 192 L 380 189 L 382 189 Z M 115 183 L 127 187 L 137 193 L 136 195 L 136 201 L 135 202 L 135 208 L 134 209 L 134 215 L 133 216 L 133 222 L 132 223 L 132 231 L 131 232 L 131 236 L 129 238 L 106 238 L 104 235 L 105 217 L 106 216 L 106 209 L 107 208 L 108 199 L 112 186 Z M 365 124 L 370 125 L 382 140 L 391 156 L 397 173 L 397 175 L 394 178 L 383 183 L 381 183 L 376 186 L 373 186 L 371 184 L 348 136 L 348 134 L 350 132 Z M 146 124 L 161 132 L 164 136 L 159 145 L 159 147 L 152 160 L 152 162 L 140 186 L 136 186 L 126 181 L 119 179 L 116 176 L 116 172 L 120 160 L 129 143 L 139 129 L 144 124 Z M 317 121 L 319 121 L 343 136 L 343 138 L 357 166 L 364 183 L 370 191 L 372 209 L 374 216 L 374 221 L 373 222 L 318 222 L 286 188 L 286 186 L 288 184 L 288 182 L 303 151 L 312 129 Z M 194 121 L 196 123 L 200 134 L 225 188 L 192 222 L 139 222 L 138 218 L 140 211 L 142 192 L 146 187 L 152 175 L 152 173 L 169 136 L 179 129 Z M 199 118 L 226 100 L 235 98 L 262 97 L 263 98 L 283 99 L 289 104 L 310 116 L 311 120 L 286 176 L 280 186 L 230 186 Z M 220 95 L 220 98 L 208 105 L 194 115 L 175 125 L 170 129 L 166 129 L 153 122 L 148 118 L 148 116 L 170 95 L 184 86 L 206 77 L 212 82 L 213 85 Z M 290 94 L 303 76 L 305 76 L 314 79 L 319 82 L 321 82 L 342 94 L 358 108 L 363 114 L 364 117 L 360 121 L 353 124 L 346 129 L 343 129 L 319 115 L 317 115 L 306 107 L 293 100 L 290 97 Z M 213 74 L 217 70 L 233 60 L 242 56 L 248 52 L 254 50 L 263 51 L 284 62 L 298 72 L 298 74 L 283 94 L 271 93 L 270 92 L 242 92 L 241 93 L 226 94 L 214 77 Z" fill="#B88A44" fill-rule="evenodd"/>
</svg>
