<svg xmlns="http://www.w3.org/2000/svg" viewBox="0 0 512 512" >
  <path d="M 289 386 L 289 388 L 291 390 L 310 390 L 311 391 L 316 390 L 317 391 L 320 391 L 321 390 L 324 390 L 326 388 L 326 385 L 324 383 L 291 383 Z M 187 385 L 187 388 L 189 390 L 198 390 L 199 391 L 205 391 L 206 390 L 209 390 L 210 391 L 212 390 L 217 390 L 219 391 L 224 388 L 224 385 L 222 383 L 189 383 Z M 291 358 L 291 361 L 292 363 L 294 364 L 324 364 L 327 362 L 327 358 L 325 356 L 293 356 Z M 186 358 L 186 361 L 187 363 L 189 364 L 219 364 L 222 362 L 222 358 L 220 356 L 188 356 Z M 255 284 L 253 286 L 253 335 L 233 350 L 231 355 L 235 358 L 249 347 L 253 347 L 253 380 L 233 397 L 236 401 L 239 401 L 250 392 L 253 393 L 253 424 L 258 426 L 260 424 L 260 392 L 262 391 L 274 401 L 277 401 L 280 398 L 277 393 L 260 380 L 260 347 L 264 347 L 278 358 L 281 357 L 282 352 L 260 335 L 260 286 Z M 293 279 L 289 283 L 286 290 L 286 315 L 288 321 L 292 326 L 302 331 L 322 331 L 323 332 L 327 331 L 329 329 L 329 326 L 327 324 L 308 324 L 307 323 L 302 323 L 297 320 L 294 315 L 294 306 L 293 305 L 293 298 L 294 297 L 294 290 L 298 285 L 309 284 L 310 285 L 315 285 L 319 288 L 320 298 L 318 301 L 310 301 L 307 304 L 307 307 L 309 309 L 322 309 L 324 308 L 327 304 L 327 287 L 325 282 L 323 280 L 316 277 L 298 277 Z M 197 277 L 190 280 L 187 284 L 186 287 L 186 304 L 187 306 L 191 309 L 204 309 L 206 307 L 205 302 L 203 301 L 195 301 L 193 298 L 194 288 L 198 285 L 203 285 L 204 284 L 215 285 L 219 290 L 219 296 L 220 297 L 219 315 L 217 319 L 211 323 L 206 323 L 205 324 L 186 324 L 184 329 L 189 332 L 192 331 L 211 331 L 220 327 L 224 323 L 227 316 L 227 290 L 226 286 L 220 279 L 216 277 Z M 278 242 L 275 241 L 269 246 L 267 250 L 267 255 L 268 257 L 272 258 L 275 255 L 275 251 L 279 247 Z M 238 241 L 234 244 L 234 247 L 238 251 L 238 255 L 241 258 L 245 257 L 246 255 L 246 250 L 244 246 Z M 172 47 L 137 74 L 128 112 L 137 133 L 159 152 L 140 171 L 142 178 L 163 191 L 186 189 L 193 204 L 165 238 L 154 275 L 157 335 L 173 436 L 187 455 L 201 461 L 216 460 L 224 438 L 234 439 L 240 448 L 273 448 L 281 438 L 289 438 L 297 460 L 319 459 L 340 436 L 359 307 L 353 249 L 320 204 L 327 189 L 350 191 L 373 175 L 355 151 L 381 125 L 382 85 L 363 60 L 336 46 L 332 53 L 348 93 L 330 114 L 304 120 L 287 109 L 226 109 L 209 120 L 181 113 L 166 97 L 168 76 L 181 53 Z M 198 213 L 216 232 L 222 262 L 237 272 L 276 272 L 285 268 L 294 256 L 295 238 L 300 227 L 313 213 L 322 218 L 339 238 L 350 266 L 351 310 L 334 428 L 329 441 L 319 450 L 305 453 L 300 437 L 291 430 L 280 430 L 268 440 L 245 441 L 233 430 L 222 430 L 213 437 L 208 453 L 198 452 L 184 441 L 178 423 L 162 309 L 162 273 L 173 240 Z M 299 176 L 300 177 L 300 181 L 297 187 L 294 190 L 285 193 L 284 192 L 285 187 L 293 179 Z M 213 177 L 215 176 L 220 179 L 228 187 L 230 192 L 229 193 L 226 193 L 218 189 L 213 181 Z M 364 172 L 358 179 L 345 184 L 334 183 L 325 177 L 321 177 L 319 180 L 318 192 L 314 200 L 296 219 L 289 231 L 285 228 L 283 225 L 282 202 L 283 201 L 287 201 L 294 199 L 303 192 L 307 185 L 309 171 L 311 169 L 328 161 L 340 157 L 345 157 L 354 162 Z M 149 172 L 159 162 L 168 157 L 173 157 L 188 162 L 192 165 L 203 169 L 205 174 L 206 184 L 210 192 L 213 195 L 222 200 L 230 201 L 231 202 L 230 225 L 228 228 L 224 231 L 217 219 L 199 200 L 194 187 L 194 179 L 192 177 L 188 177 L 179 183 L 168 184 L 155 179 Z M 223 118 L 290 118 L 297 124 L 315 157 L 314 160 L 288 173 L 277 185 L 275 192 L 276 228 L 286 242 L 287 251 L 284 258 L 276 264 L 238 264 L 233 262 L 227 254 L 227 242 L 236 230 L 238 222 L 237 188 L 233 180 L 225 173 L 198 159 L 216 124 Z M 349 60 L 366 74 L 375 89 L 378 103 L 376 116 L 372 125 L 362 136 L 360 135 L 359 130 L 355 123 L 349 118 L 347 120 L 354 135 L 354 142 L 348 145 L 346 143 L 343 134 L 339 130 L 339 133 L 343 142 L 343 147 L 339 150 L 323 155 L 311 136 L 308 128 L 323 125 L 339 118 L 352 105 L 354 101 L 356 89 L 353 75 L 346 62 L 347 60 Z M 164 60 L 166 60 L 167 62 L 159 78 L 157 89 L 158 97 L 162 106 L 170 115 L 176 119 L 190 125 L 205 128 L 201 138 L 190 155 L 179 152 L 170 147 L 171 138 L 175 131 L 174 130 L 170 134 L 167 143 L 165 145 L 159 142 L 160 132 L 162 126 L 166 120 L 164 118 L 158 123 L 153 135 L 151 136 L 142 126 L 136 112 L 136 96 L 142 81 L 154 67 Z" fill="#B88A44" fill-rule="evenodd"/>
</svg>
