<svg xmlns="http://www.w3.org/2000/svg" viewBox="0 0 512 512" >
  <path d="M 253 379 L 249 380 L 247 383 L 248 386 L 251 388 L 253 388 L 257 385 L 256 381 Z M 253 341 L 249 346 L 251 352 L 253 353 L 258 353 L 260 352 L 262 349 L 261 344 L 258 341 Z M 280 274 L 279 273 L 273 274 L 267 279 L 266 283 L 272 278 Z M 274 267 L 273 266 L 265 267 L 263 268 L 259 273 L 261 273 L 267 269 Z M 256 263 L 265 260 L 270 260 L 269 258 L 262 258 L 258 260 Z M 300 177 L 287 177 L 285 178 L 279 184 L 277 193 L 278 193 L 281 189 L 285 191 L 290 191 L 293 189 L 296 184 L 296 181 L 298 180 Z M 290 182 L 292 181 L 293 183 L 291 184 Z M 211 177 L 214 181 L 215 186 L 219 190 L 221 191 L 226 191 L 229 189 L 230 191 L 233 193 L 232 186 L 227 179 L 223 177 Z M 301 167 L 296 164 L 287 164 L 281 167 L 277 171 L 274 177 L 274 181 L 284 170 L 291 167 L 299 167 L 301 168 Z M 209 167 L 209 168 L 211 167 L 219 167 L 222 168 L 230 173 L 235 180 L 237 181 L 234 172 L 228 166 L 223 164 L 214 164 Z M 256 161 L 253 163 L 251 167 L 251 173 L 252 175 L 255 177 L 257 176 L 260 172 L 259 165 Z M 240 152 L 240 154 L 248 157 L 262 157 L 269 155 L 271 153 L 270 151 L 263 152 L 262 153 L 249 153 L 243 151 Z M 240 146 L 244 149 L 250 149 L 251 150 L 260 150 L 261 149 L 266 149 L 270 147 L 269 144 L 262 146 L 249 146 L 242 144 Z M 79 173 L 79 199 L 89 206 L 102 196 L 75 245 L 82 285 L 124 273 L 95 291 L 126 353 L 97 388 L 117 435 L 196 466 L 258 460 L 286 470 L 369 453 L 405 428 L 417 390 L 394 332 L 415 291 L 386 274 L 425 290 L 435 245 L 410 210 L 435 196 L 427 173 L 406 166 L 375 186 L 385 207 L 404 214 L 378 287 L 387 317 L 370 295 L 336 315 L 347 295 L 374 285 L 362 259 L 335 241 L 325 280 L 329 241 L 320 236 L 305 269 L 305 221 L 347 239 L 378 135 L 337 130 L 312 147 L 287 124 L 236 121 L 199 147 L 168 129 L 131 137 L 163 239 L 205 220 L 201 254 L 232 320 L 259 330 L 285 308 L 257 358 L 245 351 L 250 337 L 224 321 L 192 236 L 128 281 L 124 239 L 107 218 L 125 191 L 119 161 L 106 163 L 107 179 L 92 164 Z M 273 419 L 276 419 L 280 421 L 289 430 L 300 437 L 306 443 L 306 446 L 305 447 L 302 447 L 297 444 L 293 444 L 296 448 L 302 452 L 301 455 L 299 455 L 291 451 L 289 452 L 296 458 L 295 461 L 293 461 L 288 458 L 284 458 L 288 463 L 287 464 L 280 464 L 270 460 L 263 454 L 263 452 L 265 450 L 269 440 L 269 437 L 271 432 L 271 423 Z M 341 414 L 344 413 L 345 415 L 342 416 Z M 337 374 L 336 377 L 329 380 L 309 393 L 306 396 L 291 404 L 301 409 L 304 409 L 309 411 L 319 412 L 320 413 L 340 414 L 341 415 L 340 417 L 335 417 L 334 418 L 316 418 L 315 417 L 310 417 L 296 413 L 286 407 L 282 407 L 275 410 L 271 410 L 270 409 L 270 405 L 271 404 L 274 404 L 283 401 L 296 395 L 317 381 L 332 373 L 336 373 Z M 408 379 L 411 390 L 411 398 L 408 410 L 404 418 L 397 427 L 380 440 L 363 447 L 341 450 L 321 446 L 310 440 L 302 433 L 304 431 L 319 439 L 333 443 L 342 444 L 360 442 L 379 434 L 395 420 L 402 407 L 404 399 L 404 392 L 401 382 L 391 372 L 391 370 L 394 366 L 396 366 L 404 373 Z M 394 344 L 394 353 L 389 364 L 382 371 L 376 374 L 366 375 L 365 376 L 362 375 L 356 376 L 348 374 L 342 371 L 338 366 L 337 355 L 341 352 L 343 354 L 344 365 L 348 369 L 346 363 L 346 355 L 349 351 L 351 351 L 353 353 L 354 365 L 358 370 L 359 369 L 357 366 L 357 362 L 356 361 L 356 353 L 358 350 L 362 350 L 363 351 L 364 362 L 366 366 L 369 368 L 367 363 L 367 352 L 369 350 L 371 350 L 374 353 L 374 357 L 376 361 L 379 362 L 383 358 L 386 357 L 387 355 L 379 354 L 377 352 L 377 347 L 379 345 L 388 344 L 391 342 Z M 131 339 L 149 354 L 160 355 L 173 350 L 168 357 L 152 361 L 177 371 L 210 395 L 238 405 L 262 406 L 264 426 L 253 453 L 244 461 L 233 463 L 248 449 L 257 429 L 257 411 L 242 410 L 232 434 L 218 449 L 204 456 L 192 456 L 213 445 L 227 431 L 236 411 L 227 407 L 201 435 L 168 447 L 203 426 L 219 406 L 171 374 L 153 367 L 138 366 L 122 372 L 110 392 L 117 416 L 132 429 L 153 439 L 140 438 L 120 428 L 106 410 L 103 390 L 107 377 L 119 365 L 149 360 L 134 349 Z M 298 327 L 292 354 L 282 377 L 270 390 L 261 395 L 252 397 L 241 397 L 221 393 L 204 384 L 192 373 L 191 367 L 198 354 L 210 344 L 227 337 L 238 342 L 240 344 L 240 350 L 244 358 L 254 363 L 265 360 L 270 354 L 271 345 L 273 343 L 283 340 L 285 343 L 284 358 L 285 358 L 294 327 L 295 326 Z M 326 320 L 331 333 L 332 348 L 331 349 L 330 358 L 326 367 L 322 372 L 319 373 L 318 371 L 323 363 L 326 354 L 326 349 L 327 348 L 326 333 L 323 325 L 323 322 Z M 338 346 L 338 337 L 341 329 L 344 325 L 351 319 L 359 316 L 369 316 L 377 319 L 385 326 L 389 334 L 389 337 L 386 339 L 382 330 L 376 324 L 369 321 L 359 321 L 354 323 L 347 329 L 343 337 L 343 346 L 342 347 L 339 347 Z M 192 316 L 194 315 L 200 318 L 212 318 L 214 317 L 215 319 L 213 321 L 211 321 L 208 323 L 200 323 L 195 321 L 192 318 Z M 137 282 L 139 282 L 141 284 L 141 304 L 156 299 L 171 299 L 173 301 L 172 306 L 162 311 L 158 316 L 156 321 L 157 333 L 158 333 L 159 323 L 162 317 L 168 312 L 176 310 L 178 293 L 182 289 L 185 289 L 187 291 L 186 322 L 180 335 L 171 343 L 158 347 L 151 346 L 143 342 L 138 336 L 133 321 L 134 287 Z M 147 269 L 151 272 L 151 297 L 148 299 L 145 299 L 144 298 L 144 272 Z M 166 265 L 168 265 L 171 268 L 171 271 L 172 272 L 172 295 L 171 296 L 168 296 L 165 294 L 165 287 L 164 286 L 164 267 Z M 156 261 L 159 261 L 161 264 L 161 295 L 160 296 L 155 296 L 154 295 L 154 263 Z M 421 249 L 427 249 L 430 252 L 430 259 L 426 266 L 423 264 L 423 261 L 425 259 L 424 256 L 421 256 L 418 258 L 415 258 L 413 256 L 417 251 Z M 90 249 L 97 254 L 97 257 L 96 258 L 93 258 L 90 256 L 86 256 L 85 259 L 88 263 L 87 266 L 85 267 L 80 258 L 80 252 L 83 249 Z M 410 248 L 411 245 L 415 241 L 419 239 L 426 239 L 430 243 L 429 246 L 427 245 L 421 245 L 413 250 Z M 80 244 L 84 239 L 92 239 L 96 241 L 100 245 L 100 248 L 97 249 L 90 245 L 83 245 L 81 246 Z M 425 232 L 424 235 L 416 236 L 410 241 L 407 241 L 406 240 L 406 238 L 415 230 L 423 230 Z M 222 230 L 224 233 L 224 245 L 219 248 L 211 248 L 207 245 L 207 243 L 213 239 L 218 233 Z M 398 229 L 400 229 L 402 233 L 400 238 L 400 243 L 406 248 L 409 257 L 409 261 L 407 267 L 410 266 L 412 263 L 416 263 L 418 266 L 418 274 L 414 277 L 409 277 L 402 274 L 394 265 L 394 262 L 392 257 L 392 252 L 391 251 L 391 241 L 394 234 Z M 85 232 L 89 229 L 97 230 L 103 235 L 104 240 L 101 241 L 95 236 L 86 235 Z M 286 228 L 302 243 L 302 245 L 299 248 L 290 248 L 283 243 L 284 234 Z M 113 228 L 117 233 L 120 243 L 119 255 L 118 256 L 117 263 L 113 270 L 108 274 L 101 277 L 96 277 L 95 276 L 96 267 L 98 266 L 99 267 L 99 270 L 101 270 L 103 267 L 102 260 L 104 256 L 105 246 L 110 241 L 109 232 L 110 230 Z M 420 223 L 418 226 L 414 226 L 407 231 L 405 230 L 405 225 L 410 221 L 416 220 Z M 90 222 L 93 220 L 100 220 L 106 224 L 107 228 L 105 230 L 103 230 L 98 226 L 91 225 Z M 111 198 L 113 197 L 114 199 L 112 200 Z M 428 190 L 429 193 L 426 199 L 421 203 L 418 203 L 417 200 L 419 197 L 419 195 L 422 192 Z M 384 191 L 386 190 L 392 193 L 396 202 L 395 203 L 390 202 L 386 198 L 384 194 Z M 405 176 L 407 176 L 410 179 L 414 187 L 414 194 L 412 198 L 408 202 L 403 201 L 400 198 L 398 192 L 399 185 Z M 368 141 L 369 143 L 365 150 L 363 159 L 363 174 L 361 183 L 356 193 L 343 209 L 339 221 L 339 229 L 336 230 L 324 223 L 319 217 L 315 208 L 314 196 L 317 188 L 322 183 L 330 179 L 335 178 L 332 176 L 321 177 L 320 176 L 321 173 L 331 164 L 348 158 L 347 157 L 334 157 L 328 159 L 319 165 L 317 164 L 317 162 L 322 153 L 330 145 L 337 141 L 344 139 L 359 139 Z M 143 141 L 151 139 L 167 139 L 173 141 L 185 149 L 190 155 L 194 163 L 194 165 L 192 166 L 180 158 L 176 157 L 164 157 L 162 158 L 173 161 L 181 165 L 191 175 L 190 177 L 179 176 L 175 178 L 181 179 L 187 182 L 194 189 L 196 194 L 196 205 L 192 216 L 185 224 L 175 230 L 171 229 L 171 219 L 168 210 L 156 195 L 149 182 L 147 170 L 147 156 L 142 143 Z M 224 132 L 235 129 L 276 129 L 295 137 L 305 150 L 308 161 L 306 202 L 302 212 L 293 223 L 283 210 L 278 262 L 283 271 L 312 276 L 324 287 L 327 305 L 324 312 L 313 321 L 301 321 L 291 311 L 291 302 L 298 295 L 307 298 L 305 305 L 302 302 L 299 303 L 302 309 L 311 307 L 313 298 L 308 291 L 298 289 L 290 293 L 285 300 L 272 300 L 256 294 L 242 281 L 230 252 L 228 211 L 217 223 L 206 207 L 202 184 L 203 158 L 209 144 Z M 272 100 L 272 109 L 268 116 L 286 119 L 295 123 L 301 127 L 308 134 L 312 141 L 314 140 L 315 135 L 310 124 L 305 117 L 299 111 L 286 103 L 277 100 Z M 239 100 L 234 100 L 227 102 L 213 110 L 204 119 L 200 125 L 196 134 L 196 139 L 197 141 L 198 141 L 201 136 L 214 124 L 224 119 L 227 119 L 232 117 L 243 116 L 239 110 L 239 107 L 238 106 L 238 101 Z M 256 82 L 249 88 L 243 100 L 244 110 L 250 116 L 255 119 L 262 115 L 266 111 L 268 105 L 267 98 L 263 90 Z M 195 117 L 195 125 L 196 125 L 201 116 L 212 105 L 225 98 L 240 95 L 245 86 L 256 76 L 267 88 L 271 95 L 286 98 L 300 106 L 311 118 L 315 125 L 315 112 L 312 102 L 307 93 L 300 85 L 286 76 L 270 72 L 259 72 L 258 71 L 231 74 L 213 83 L 203 94 L 198 104 Z M 230 66 L 230 69 L 231 70 L 239 69 L 240 68 L 247 68 L 248 67 L 264 67 L 265 68 L 270 68 L 277 70 L 280 69 L 280 65 L 277 62 L 270 61 L 269 60 L 257 60 L 256 59 L 237 61 L 232 63 Z M 238 55 L 238 57 L 245 55 L 260 54 L 261 55 L 266 55 L 273 57 L 272 54 L 266 47 L 264 43 L 256 36 L 250 39 L 246 44 L 245 47 Z" fill="#B88A44" fill-rule="evenodd"/>
</svg>
