<svg xmlns="http://www.w3.org/2000/svg" viewBox="0 0 512 512" >
  <path d="M 253 223 L 254 226 L 252 227 L 251 229 L 252 229 L 255 233 L 259 232 L 262 228 L 259 226 L 260 223 L 257 224 Z M 270 213 L 260 214 L 260 215 L 266 217 L 268 216 Z M 243 214 L 247 217 L 250 217 L 253 215 L 253 214 L 246 214 L 245 213 Z M 259 210 L 260 211 L 265 208 L 271 210 L 271 209 L 267 206 L 263 206 L 261 207 Z M 242 209 L 242 210 L 248 208 L 253 211 L 254 210 L 253 208 L 250 206 L 246 206 Z M 255 112 L 196 191 L 172 229 L 153 273 L 148 296 L 147 325 L 158 370 L 178 402 L 194 418 L 221 435 L 243 442 L 264 443 L 282 439 L 305 428 L 338 398 L 359 359 L 366 311 L 359 270 L 343 233 L 314 187 L 259 113 Z M 183 401 L 183 399 L 185 398 L 195 403 L 216 408 L 263 411 L 264 410 L 279 410 L 280 409 L 297 408 L 318 403 L 328 398 L 330 399 L 328 403 L 320 411 L 303 424 L 285 433 L 267 438 L 246 438 L 221 430 L 200 417 Z M 184 390 L 187 388 L 190 388 L 195 391 L 204 394 L 222 396 L 223 397 L 232 397 L 233 398 L 280 398 L 281 397 L 290 397 L 291 396 L 309 394 L 318 391 L 323 388 L 326 388 L 329 392 L 324 396 L 319 398 L 295 404 L 277 405 L 276 406 L 238 406 L 237 405 L 219 404 L 200 400 L 187 395 L 184 392 Z M 270 368 L 273 368 L 275 370 L 272 375 L 271 375 L 268 371 Z M 256 368 L 263 372 L 267 376 L 270 382 L 270 387 L 268 391 L 264 394 L 249 394 L 244 389 L 243 386 L 243 382 L 245 377 L 250 372 Z M 240 368 L 243 368 L 245 370 L 242 375 L 241 375 L 238 371 Z M 292 367 L 296 373 L 296 383 L 293 388 L 288 392 L 285 393 L 276 393 L 273 394 L 272 391 L 274 387 L 274 379 L 277 374 L 286 368 Z M 221 367 L 227 368 L 237 375 L 239 379 L 239 387 L 242 392 L 241 394 L 238 393 L 228 393 L 224 391 L 218 385 L 217 383 L 217 373 Z M 316 366 L 317 367 L 317 379 L 315 383 L 310 388 L 306 390 L 297 391 L 296 389 L 299 385 L 301 375 L 308 368 L 313 366 Z M 197 366 L 203 367 L 210 372 L 213 376 L 213 382 L 215 387 L 217 389 L 216 391 L 211 391 L 204 389 L 198 383 L 196 379 L 196 367 Z M 298 369 L 298 367 L 300 365 L 303 366 L 300 370 Z M 210 366 L 213 365 L 215 367 L 215 369 L 213 370 Z M 331 361 L 332 363 L 331 364 L 331 370 L 329 376 L 322 384 L 320 384 L 319 382 L 321 377 L 321 367 L 324 363 L 328 361 Z M 182 361 L 187 362 L 193 368 L 192 370 L 192 378 L 194 382 L 193 384 L 191 384 L 184 376 L 182 370 L 182 365 L 181 364 Z M 186 356 L 189 353 L 192 353 L 194 355 L 206 358 L 219 358 L 221 357 L 224 359 L 231 359 L 232 360 L 234 359 L 236 360 L 282 360 L 283 359 L 309 358 L 324 353 L 327 357 L 321 361 L 315 361 L 311 363 L 306 363 L 305 362 L 295 363 L 292 362 L 285 364 L 280 367 L 273 364 L 268 365 L 265 367 L 262 367 L 257 363 L 251 367 L 248 367 L 243 364 L 240 364 L 233 367 L 228 364 L 221 362 L 218 363 L 215 362 L 202 363 L 198 361 L 192 361 L 187 358 Z M 259 326 L 261 325 L 262 327 L 260 328 Z M 326 336 L 324 345 L 315 352 L 295 355 L 237 356 L 236 354 L 255 349 L 284 336 L 303 332 L 305 330 L 300 329 L 285 332 L 255 345 L 222 353 L 203 353 L 196 351 L 190 346 L 187 338 L 192 329 L 210 322 L 218 322 L 224 326 L 223 328 L 216 328 L 218 330 L 258 334 L 267 329 L 284 327 L 297 321 L 320 328 Z M 231 292 L 232 293 L 232 299 L 231 300 L 231 304 L 229 305 L 228 304 L 228 296 L 229 293 Z M 282 289 L 284 290 L 285 293 L 285 302 L 284 303 L 281 301 L 281 290 Z M 291 251 L 296 256 L 299 267 L 302 307 L 300 311 L 293 318 L 285 322 L 266 326 L 264 325 L 267 322 L 265 320 L 266 317 L 276 318 L 290 301 L 286 278 L 287 267 L 285 266 L 277 291 L 279 309 L 274 314 L 256 316 L 243 313 L 236 314 L 233 310 L 236 299 L 234 284 L 246 281 L 262 266 L 263 269 L 258 287 L 258 310 L 266 311 L 267 282 L 272 264 L 281 248 Z M 277 246 L 278 248 L 276 250 L 271 260 L 266 274 L 265 284 L 264 285 L 264 303 L 265 304 L 265 308 L 264 309 L 261 309 L 260 308 L 260 291 L 261 290 L 261 282 L 262 281 L 263 273 L 273 247 L 274 246 Z M 247 240 L 253 242 L 260 242 L 266 240 L 268 244 L 270 245 L 270 247 L 254 271 L 249 276 L 240 281 L 234 281 L 232 279 L 228 266 L 227 267 L 227 282 L 223 303 L 229 312 L 235 318 L 245 317 L 247 319 L 244 322 L 246 324 L 251 326 L 258 326 L 259 327 L 258 329 L 245 329 L 231 325 L 219 318 L 214 313 L 211 307 L 211 295 L 213 286 L 214 269 L 218 255 L 226 249 L 245 244 Z M 270 238 L 272 237 L 274 240 L 272 241 Z M 239 240 L 241 237 L 243 238 L 241 241 Z M 233 212 L 235 211 L 236 214 L 234 215 Z M 246 197 L 253 197 L 254 198 L 267 197 L 269 198 L 273 203 L 274 215 L 273 216 L 272 226 L 268 233 L 265 236 L 259 239 L 254 239 L 248 236 L 243 230 L 240 222 L 239 205 L 241 201 Z M 255 193 L 257 192 L 258 194 L 256 195 Z M 266 192 L 268 191 L 269 193 L 267 194 Z M 249 192 L 252 191 L 253 193 L 250 194 Z M 244 192 L 246 191 L 247 193 L 245 194 Z M 254 187 L 257 186 L 258 188 L 255 189 Z M 254 176 L 257 175 L 258 177 L 255 178 Z M 256 162 L 258 163 L 260 169 L 259 171 L 254 171 L 253 170 Z M 256 119 L 321 205 L 355 273 L 361 304 L 359 341 L 352 365 L 335 394 L 329 385 L 337 360 L 327 350 L 330 335 L 320 323 L 301 317 L 306 309 L 302 260 L 293 247 L 275 241 L 280 236 L 283 216 L 281 199 L 263 172 L 257 153 L 232 199 L 233 236 L 239 241 L 219 248 L 211 260 L 207 293 L 211 317 L 193 323 L 183 335 L 187 349 L 176 357 L 184 383 L 179 394 L 157 354 L 152 301 L 166 251 L 198 196 Z M 255 50 L 240 56 L 230 72 L 231 87 L 243 101 L 182 186 L 148 245 L 135 287 L 133 327 L 145 376 L 170 415 L 192 435 L 214 448 L 233 455 L 261 458 L 307 444 L 347 410 L 372 365 L 380 312 L 373 267 L 354 223 L 270 103 L 282 87 L 282 68 L 272 55 Z M 256 92 L 346 218 L 367 263 L 375 301 L 371 352 L 349 400 L 313 435 L 290 447 L 266 453 L 247 453 L 221 446 L 197 433 L 178 417 L 159 393 L 147 369 L 137 318 L 144 269 L 164 223 Z M 252 69 L 255 68 L 261 69 L 266 74 L 266 81 L 260 88 L 254 88 L 252 87 L 247 80 L 247 75 Z M 245 58 L 252 55 L 261 55 L 270 59 L 276 66 L 279 73 L 279 82 L 276 89 L 270 96 L 267 97 L 264 92 L 264 90 L 267 88 L 269 85 L 271 76 L 268 69 L 261 64 L 252 64 L 247 67 L 244 71 L 242 78 L 245 86 L 249 90 L 247 96 L 246 97 L 243 96 L 237 89 L 234 80 L 235 71 L 238 65 Z" fill="#B88A44" fill-rule="evenodd"/>
</svg>
