<svg xmlns="http://www.w3.org/2000/svg" viewBox="0 0 512 512" >
  <path d="M 210 366 L 204 377 L 196 386 L 189 391 L 180 394 L 180 395 L 184 395 L 190 393 L 199 387 L 207 377 L 210 369 Z M 252 327 L 251 328 L 251 331 L 253 332 L 254 331 L 254 328 Z M 280 257 L 277 259 L 276 262 L 277 262 Z M 272 254 L 268 256 L 266 261 L 267 261 L 268 258 L 272 255 Z M 266 249 L 261 250 L 258 253 L 257 256 L 264 250 L 266 250 Z M 262 242 L 256 242 L 254 243 L 250 248 L 254 245 L 259 243 L 262 243 Z M 260 234 L 256 232 L 253 232 L 246 237 L 248 237 L 253 234 Z M 245 226 L 249 224 L 259 224 L 260 225 L 260 224 L 257 222 L 249 222 L 247 223 Z M 245 213 L 245 214 L 249 212 L 257 212 L 261 214 L 260 212 L 256 210 L 249 210 Z M 246 202 L 248 201 L 259 201 L 261 202 L 261 201 L 253 198 L 248 200 Z M 292 171 L 279 173 L 274 179 L 274 185 L 275 185 L 277 182 L 283 182 L 287 178 L 287 176 L 289 175 Z M 219 171 L 220 174 L 223 176 L 224 179 L 227 182 L 234 182 L 236 185 L 237 184 L 237 181 L 234 175 L 229 172 L 221 172 Z M 272 167 L 278 162 L 283 160 L 287 160 L 292 162 L 292 161 L 287 157 L 279 157 L 272 163 Z M 218 162 L 224 160 L 228 160 L 231 161 L 237 167 L 239 167 L 238 162 L 231 157 L 224 157 L 220 159 Z M 256 141 L 255 141 L 254 143 L 254 146 L 253 147 L 254 153 L 252 155 L 250 155 L 248 153 L 248 150 L 250 147 L 250 142 L 249 142 L 249 145 L 245 151 L 246 155 L 249 158 L 252 159 L 252 161 L 254 164 L 252 168 L 255 171 L 257 170 L 258 168 L 256 165 L 258 162 L 258 159 L 263 157 L 265 154 L 265 151 L 261 144 L 261 142 L 260 143 L 260 146 L 262 150 L 262 153 L 260 155 L 258 155 L 256 153 L 257 151 Z M 257 44 L 210 108 L 202 107 L 199 138 L 170 141 L 151 165 L 183 210 L 151 253 L 142 247 L 141 216 L 131 196 L 135 180 L 148 175 L 139 163 L 140 137 L 127 144 L 125 161 L 111 140 L 93 163 L 103 193 L 116 178 L 121 185 L 100 213 L 98 228 L 106 243 L 103 259 L 139 322 L 122 331 L 111 350 L 131 422 L 157 442 L 253 461 L 351 443 L 378 425 L 400 362 L 382 335 L 384 315 L 376 302 L 391 286 L 404 247 L 419 248 L 412 237 L 414 212 L 393 190 L 408 173 L 408 153 L 382 137 L 362 157 L 365 176 L 384 192 L 372 213 L 370 246 L 362 255 L 328 208 L 360 166 L 339 140 L 312 138 L 309 106 L 301 108 Z M 274 438 L 272 444 L 265 451 L 255 457 L 253 457 L 245 453 L 236 444 L 234 439 L 236 438 L 244 446 L 254 450 L 264 445 L 270 438 L 272 437 Z M 313 428 L 313 434 L 311 439 L 301 448 L 299 448 L 296 450 L 282 451 L 281 452 L 275 452 L 271 450 L 275 445 L 280 435 L 287 428 L 296 424 L 307 424 Z M 198 428 L 203 424 L 215 424 L 218 426 L 220 426 L 228 434 L 233 445 L 236 449 L 236 451 L 235 452 L 220 451 L 208 447 L 204 444 L 200 439 L 197 432 Z M 346 422 L 345 430 L 342 435 L 337 440 L 325 446 L 312 447 L 311 448 L 309 447 L 316 436 L 316 433 L 320 425 L 326 420 L 328 420 L 331 418 L 341 418 Z M 228 418 L 228 421 L 226 425 L 224 425 L 214 420 L 215 418 L 225 418 L 226 417 Z M 165 421 L 168 418 L 171 417 L 178 417 L 187 421 L 193 428 L 196 439 L 201 446 L 200 447 L 186 446 L 174 440 L 169 435 L 166 430 Z M 357 412 L 349 419 L 343 415 L 339 415 L 338 414 L 339 412 L 346 412 L 353 410 L 356 410 Z M 204 410 L 206 409 L 207 411 L 205 412 Z M 381 409 L 376 421 L 367 431 L 354 438 L 347 440 L 344 440 L 343 439 L 348 431 L 350 424 L 357 416 L 366 412 L 370 412 L 376 410 L 379 408 Z M 130 408 L 133 407 L 135 409 L 145 411 L 152 414 L 160 422 L 163 431 L 168 439 L 167 440 L 155 437 L 146 432 L 136 422 L 131 413 Z M 276 407 L 277 406 L 281 406 L 282 407 L 300 407 L 304 409 L 313 410 L 314 411 L 334 412 L 335 414 L 323 418 L 320 420 L 316 425 L 306 420 L 298 420 L 291 422 L 282 427 L 278 418 L 278 415 L 276 411 Z M 381 401 L 381 402 L 375 407 L 369 409 L 366 408 L 367 406 L 371 405 L 379 400 Z M 131 396 L 133 395 L 145 402 L 150 403 L 156 406 L 168 408 L 169 409 L 177 409 L 180 410 L 181 409 L 194 408 L 197 410 L 199 410 L 203 415 L 206 415 L 208 417 L 212 417 L 213 419 L 212 420 L 204 420 L 199 422 L 197 424 L 194 424 L 190 419 L 180 414 L 169 414 L 166 415 L 163 418 L 161 418 L 152 410 L 135 405 L 130 400 Z M 246 372 L 248 372 L 252 375 L 254 375 L 258 372 L 261 373 L 261 397 L 262 398 L 262 404 L 263 405 L 263 410 L 264 411 L 264 416 L 266 421 L 266 425 L 264 426 L 258 433 L 254 435 L 249 433 L 241 425 L 241 420 L 243 415 L 244 404 L 245 403 L 245 395 L 246 394 L 246 375 L 245 374 Z M 231 371 L 233 372 L 235 375 L 235 389 L 234 390 L 234 400 L 233 401 L 232 408 L 224 415 L 220 415 L 219 414 L 219 412 L 221 409 L 219 409 L 217 412 L 217 414 L 214 415 L 213 414 L 214 409 L 213 409 L 211 412 L 210 412 L 209 410 L 221 397 L 226 385 L 226 380 L 227 379 L 227 374 L 226 372 L 227 371 Z M 222 370 L 224 374 L 224 380 L 223 381 L 222 388 L 218 396 L 210 404 L 206 406 L 202 406 L 201 404 L 210 396 L 214 390 L 218 381 L 219 373 L 220 371 Z M 239 368 L 243 370 L 243 400 L 241 413 L 237 426 L 247 435 L 253 438 L 258 436 L 269 426 L 263 395 L 263 371 L 265 368 L 268 369 L 269 396 L 278 429 L 275 432 L 268 435 L 261 443 L 255 446 L 252 446 L 246 443 L 237 434 L 233 433 L 229 429 L 234 415 L 238 397 L 239 386 L 238 369 Z M 214 359 L 217 358 L 221 360 L 233 362 L 235 367 L 234 368 L 225 367 L 223 365 L 221 365 L 216 362 Z M 299 356 L 297 359 L 288 363 L 278 366 L 273 366 L 272 365 L 273 362 L 291 358 L 297 355 Z M 251 351 L 255 351 L 258 354 L 258 359 L 255 362 L 251 362 L 248 359 L 248 354 Z M 234 354 L 236 350 L 239 350 L 240 351 L 239 356 L 241 360 L 243 362 L 253 366 L 263 362 L 266 359 L 267 356 L 266 351 L 267 350 L 270 350 L 271 351 L 272 356 L 271 357 L 271 360 L 267 364 L 264 365 L 261 368 L 252 371 L 246 368 L 243 365 L 239 364 L 236 361 Z M 242 352 L 246 346 L 251 343 L 255 343 L 262 348 L 264 352 L 264 357 L 262 358 L 260 352 L 255 348 L 249 349 L 246 352 L 244 358 L 242 357 Z M 320 342 L 321 345 L 315 348 L 314 346 Z M 394 352 L 396 369 L 391 383 L 379 396 L 364 404 L 342 409 L 306 406 L 293 400 L 280 385 L 283 394 L 291 403 L 277 402 L 273 398 L 271 372 L 277 369 L 281 370 L 286 380 L 298 392 L 324 402 L 344 400 L 363 388 L 366 383 L 347 396 L 328 401 L 312 396 L 298 388 L 286 374 L 286 367 L 292 365 L 301 376 L 312 382 L 337 384 L 312 379 L 294 366 L 319 350 L 361 352 L 368 348 L 373 339 L 377 337 L 385 341 Z M 319 333 L 319 337 L 313 343 L 304 349 L 284 357 L 280 357 L 279 358 L 275 358 L 274 357 L 275 353 L 277 351 L 281 351 L 294 347 L 306 341 L 317 332 Z M 324 330 L 328 333 L 328 341 L 329 342 L 328 345 L 325 344 L 322 337 L 322 334 Z M 352 327 L 354 327 L 356 329 L 357 337 L 360 341 L 368 336 L 370 337 L 367 344 L 362 348 L 355 348 L 350 341 L 350 329 Z M 342 327 L 345 327 L 347 331 L 347 341 L 350 347 L 349 349 L 344 348 L 342 346 L 340 341 L 340 329 Z M 333 327 L 335 327 L 337 329 L 337 341 L 339 345 L 338 348 L 335 348 L 331 342 L 330 333 L 331 332 L 331 329 Z M 119 340 L 127 332 L 140 327 L 155 330 L 176 329 L 183 333 L 192 344 L 191 346 L 170 336 L 152 336 L 163 337 L 177 342 L 202 358 L 203 361 L 190 372 L 178 377 L 164 378 L 148 373 L 160 380 L 178 380 L 192 374 L 204 361 L 216 367 L 214 382 L 203 398 L 189 405 L 167 405 L 148 399 L 131 389 L 123 381 L 117 371 L 114 356 Z M 380 326 L 381 327 L 381 330 L 377 334 L 373 335 L 372 334 L 373 329 L 376 326 Z M 183 325 L 185 324 L 190 331 L 196 337 L 208 345 L 224 351 L 231 352 L 232 353 L 232 357 L 231 358 L 222 357 L 205 350 L 195 343 L 186 333 Z M 316 318 L 318 317 L 322 319 L 327 319 L 328 320 L 342 320 L 343 323 L 339 325 L 332 324 L 328 328 L 326 327 L 321 328 L 319 326 L 320 323 L 323 324 L 327 324 L 327 323 L 321 322 L 317 320 Z M 380 317 L 379 319 L 375 321 L 366 323 L 366 324 L 372 323 L 373 325 L 370 330 L 366 334 L 362 336 L 360 335 L 360 331 L 357 325 L 351 324 L 348 326 L 344 323 L 345 321 L 365 320 L 366 319 L 371 319 L 378 316 Z M 243 312 L 244 309 L 251 313 L 256 311 L 258 309 L 260 310 L 259 313 L 252 318 L 250 318 Z M 338 310 L 343 305 L 350 305 L 354 309 L 355 314 L 353 317 L 339 317 L 338 316 Z M 320 310 L 321 308 L 325 305 L 331 305 L 333 306 L 335 309 L 335 316 L 334 317 L 323 316 L 320 314 Z M 358 309 L 362 305 L 367 304 L 373 308 L 374 314 L 370 316 L 359 317 L 358 316 Z M 148 301 L 149 300 L 151 301 L 151 305 L 156 315 L 161 319 L 163 319 L 166 321 L 175 321 L 180 319 L 181 321 L 179 323 L 174 325 L 164 325 L 157 322 L 151 316 L 148 309 Z M 249 298 L 254 298 L 257 300 L 257 305 L 254 309 L 249 309 L 246 306 L 246 301 Z M 367 298 L 369 297 L 371 301 L 369 302 L 367 300 Z M 348 299 L 349 297 L 353 294 L 360 294 L 363 297 L 364 301 L 359 303 L 357 305 L 355 305 L 353 303 L 349 302 Z M 330 298 L 334 294 L 341 294 L 345 298 L 345 301 L 338 305 L 336 305 L 330 301 Z M 263 294 L 268 296 L 268 300 L 266 303 L 261 304 L 258 299 L 258 297 Z M 237 294 L 240 294 L 244 297 L 244 300 L 242 304 L 239 304 L 235 301 L 234 298 Z M 269 286 L 273 289 L 273 293 L 270 296 L 269 296 L 266 292 L 266 289 Z M 228 287 L 231 285 L 234 285 L 236 287 L 236 292 L 233 294 L 231 294 L 228 290 Z M 348 283 L 351 284 L 355 288 L 355 290 L 346 295 L 340 290 L 340 288 L 342 285 Z M 325 298 L 325 301 L 320 304 L 317 308 L 317 311 L 311 316 L 316 328 L 301 340 L 279 348 L 273 348 L 270 346 L 265 347 L 254 338 L 252 338 L 241 347 L 237 346 L 234 348 L 227 348 L 219 346 L 208 341 L 198 334 L 187 320 L 187 316 L 194 308 L 198 298 L 199 283 L 212 285 L 222 282 L 225 286 L 226 294 L 231 298 L 232 303 L 239 308 L 241 315 L 250 322 L 254 321 L 262 314 L 263 308 L 270 303 L 271 299 L 274 297 L 285 303 L 295 303 L 300 301 L 306 296 L 311 284 L 316 280 L 318 281 Z M 270 280 L 273 279 L 274 280 L 274 283 L 271 284 L 270 283 Z M 146 276 L 149 276 L 150 277 L 150 280 L 149 281 L 149 293 L 145 300 L 145 310 L 147 316 L 153 323 L 152 325 L 146 324 L 141 319 L 137 311 L 137 297 L 138 296 L 138 293 Z M 225 277 L 227 275 L 231 275 L 233 277 L 233 281 L 230 283 L 227 283 L 225 280 Z M 325 287 L 327 284 L 334 278 L 346 273 L 352 273 L 354 275 L 358 275 L 362 278 L 366 290 L 365 291 L 359 291 L 357 285 L 350 280 L 342 281 L 337 286 L 336 290 L 331 292 L 329 294 L 327 293 Z M 353 268 L 356 265 L 359 265 L 361 267 L 361 271 L 360 272 L 355 271 Z M 186 266 L 188 265 L 189 268 L 187 269 Z M 148 265 L 151 266 L 151 270 L 149 272 L 146 271 L 146 267 Z M 349 265 L 349 269 L 348 270 L 341 271 L 330 277 L 324 283 L 322 282 L 323 277 L 328 272 L 334 268 L 346 264 Z M 226 264 L 228 264 L 231 267 L 231 271 L 225 273 L 223 270 L 223 268 Z M 356 257 L 358 259 L 358 261 L 352 265 L 351 264 L 352 259 L 354 257 Z M 151 257 L 154 259 L 154 262 L 153 263 L 151 263 L 149 261 L 149 259 Z M 166 255 L 167 256 L 167 280 L 164 283 L 162 283 L 161 282 L 161 265 L 162 264 L 162 259 L 163 257 Z M 222 255 L 226 254 L 228 256 L 228 261 L 227 262 L 223 263 L 221 261 L 221 256 Z M 181 254 L 183 261 L 183 276 L 184 277 L 183 283 L 184 286 L 180 288 L 175 293 L 173 297 L 173 305 L 174 305 L 174 300 L 176 296 L 182 290 L 185 290 L 186 292 L 187 291 L 187 276 L 191 271 L 194 272 L 194 277 L 193 278 L 195 285 L 195 296 L 191 306 L 186 312 L 181 315 L 178 315 L 174 318 L 168 318 L 161 315 L 157 310 L 154 303 L 153 298 L 153 274 L 155 266 L 158 264 L 159 265 L 159 286 L 164 283 L 179 280 L 177 267 L 178 266 L 178 255 Z M 106 254 L 108 252 L 113 253 L 114 254 L 114 257 L 111 260 L 108 260 L 106 257 Z M 140 250 L 146 257 L 146 259 L 143 266 L 143 274 L 137 285 L 134 295 L 132 296 L 126 290 L 119 277 L 116 268 L 115 261 L 117 258 L 124 258 L 130 256 L 138 250 Z M 372 249 L 378 254 L 384 257 L 395 258 L 396 259 L 395 266 L 389 282 L 383 291 L 375 298 L 374 298 L 371 294 L 366 277 L 364 274 L 365 268 L 363 264 L 363 259 Z M 172 249 L 175 251 L 175 279 L 174 280 L 170 280 L 169 279 L 169 261 L 170 260 L 170 251 Z M 287 247 L 288 246 L 292 246 L 293 247 L 293 250 L 291 251 L 289 250 Z M 216 249 L 218 246 L 221 246 L 224 249 L 224 251 L 222 253 L 218 254 L 216 251 Z M 138 242 L 137 246 L 132 251 L 122 255 L 119 255 L 117 253 L 117 252 L 120 250 L 123 250 L 130 247 L 136 241 Z M 373 241 L 375 240 L 382 247 L 386 249 L 393 251 L 400 250 L 401 252 L 396 255 L 389 255 L 383 253 L 376 248 L 373 243 Z M 408 239 L 410 240 L 413 245 L 412 247 L 409 245 L 407 241 Z M 294 239 L 297 239 L 299 241 L 299 243 L 297 246 L 294 246 L 291 243 Z M 210 241 L 212 239 L 215 239 L 218 243 L 213 247 L 210 244 Z M 406 233 L 407 233 L 409 236 L 408 239 L 406 238 L 405 235 Z M 205 235 L 207 232 L 209 232 L 212 236 L 209 239 L 207 239 Z M 217 233 L 221 233 L 226 230 L 228 230 L 230 232 L 230 238 L 231 239 L 232 246 L 236 255 L 240 261 L 247 268 L 253 272 L 268 277 L 267 279 L 267 284 L 264 287 L 262 292 L 260 292 L 256 295 L 253 294 L 247 295 L 240 290 L 239 286 L 236 283 L 236 276 L 234 274 L 234 267 L 232 263 L 231 255 L 228 252 L 226 246 L 221 242 L 220 239 L 216 235 Z M 276 230 L 279 229 L 281 231 L 286 233 L 292 233 L 293 236 L 289 239 L 287 243 L 283 246 L 281 246 L 276 240 Z M 118 226 L 119 228 L 118 229 L 117 238 L 115 243 L 115 247 L 113 250 L 111 250 L 109 248 L 109 246 L 111 241 L 112 233 L 115 228 Z M 205 225 L 207 226 L 207 230 L 206 231 L 203 230 L 203 228 Z M 331 221 L 343 232 L 350 244 L 353 253 L 350 256 L 348 261 L 341 262 L 335 265 L 333 265 L 323 272 L 322 270 L 324 265 L 324 253 L 323 252 L 323 249 L 322 247 L 321 247 L 321 262 L 320 263 L 320 267 L 317 274 L 314 277 L 312 277 L 311 276 L 311 271 L 309 268 L 309 266 L 305 260 L 301 256 L 297 254 L 296 252 L 300 249 L 302 246 L 302 244 L 306 240 L 307 235 L 309 232 L 309 228 L 312 221 L 314 221 L 320 224 L 328 224 L 328 223 Z M 176 223 L 179 221 L 181 221 L 182 224 L 190 224 L 197 221 L 199 222 L 200 232 L 202 235 L 203 241 L 207 244 L 208 248 L 211 250 L 214 255 L 218 258 L 218 263 L 220 265 L 220 272 L 222 275 L 222 279 L 221 280 L 210 282 L 209 281 L 204 281 L 197 276 L 197 270 L 192 267 L 192 264 L 191 263 L 190 247 L 188 251 L 188 256 L 187 257 L 185 256 L 185 254 L 183 251 L 178 250 L 174 245 L 171 245 L 166 251 L 163 252 L 160 255 L 159 258 L 156 257 L 157 250 L 164 236 Z M 409 219 L 412 220 L 412 227 L 410 228 L 409 225 L 406 227 L 404 227 L 403 224 Z M 203 218 L 205 219 L 205 222 L 206 223 L 205 225 L 202 224 L 202 219 Z M 103 218 L 109 220 L 113 225 L 112 227 L 109 227 L 105 225 L 105 227 L 109 231 L 109 235 L 107 237 L 105 236 L 101 225 L 101 222 Z M 306 217 L 307 218 L 307 224 L 305 225 L 306 230 L 302 232 L 303 233 L 303 238 L 300 239 L 297 237 L 297 235 L 302 227 L 304 218 Z M 281 213 L 282 213 L 287 220 L 295 227 L 293 230 L 286 229 L 280 226 L 277 223 L 278 216 Z M 226 213 L 229 216 L 229 220 L 230 221 L 229 224 L 221 229 L 214 230 L 213 228 L 218 223 L 223 215 Z M 409 211 L 411 215 L 405 218 L 400 223 L 398 223 L 397 222 L 397 219 L 404 212 Z M 104 213 L 106 211 L 109 211 L 113 213 L 117 217 L 118 222 L 115 223 L 109 217 L 106 216 Z M 295 208 L 297 208 L 301 212 L 301 220 L 299 224 L 296 224 L 290 218 L 290 216 Z M 214 208 L 218 215 L 218 217 L 213 223 L 210 224 L 208 219 L 208 214 L 209 212 Z M 109 206 L 111 204 L 114 204 L 122 211 L 123 215 L 120 217 L 116 212 L 110 209 Z M 404 203 L 406 205 L 406 208 L 402 210 L 396 216 L 393 216 L 392 213 L 396 208 L 401 204 Z M 131 201 L 137 216 L 136 229 L 132 237 L 133 238 L 132 241 L 125 246 L 119 247 L 118 245 L 119 244 L 120 236 L 123 235 L 122 233 L 123 223 L 127 218 L 130 218 L 128 213 L 128 202 Z M 383 197 L 384 197 L 386 200 L 386 207 L 383 216 L 387 216 L 390 219 L 391 222 L 391 231 L 390 234 L 393 231 L 394 226 L 396 225 L 399 228 L 403 236 L 403 241 L 399 244 L 397 247 L 387 246 L 383 244 L 379 240 L 379 237 L 380 236 L 376 227 L 375 215 L 381 202 L 381 199 Z M 400 195 L 401 196 L 401 200 L 394 207 L 391 208 L 389 206 L 391 200 L 396 195 Z M 116 195 L 119 196 L 124 201 L 125 203 L 125 207 L 124 208 L 114 200 L 114 197 Z M 388 194 L 390 193 L 391 196 L 389 197 Z M 128 186 L 129 187 L 128 195 L 125 197 L 123 195 L 124 187 L 125 186 Z M 387 184 L 388 184 L 390 187 L 390 191 L 389 192 L 387 191 L 387 187 L 386 186 Z M 140 167 L 143 168 L 145 171 L 145 173 L 143 176 L 138 176 L 136 173 L 137 169 Z M 367 161 L 372 163 L 375 166 L 375 173 L 378 178 L 377 180 L 374 180 L 368 174 L 367 172 L 367 166 L 366 165 L 366 162 Z M 134 161 L 135 162 L 135 165 L 133 170 L 132 178 L 129 179 L 126 177 L 128 164 L 130 161 Z M 404 158 L 406 164 L 405 171 L 404 173 L 398 178 L 397 177 L 397 172 L 398 171 L 397 163 L 401 158 Z M 384 154 L 392 161 L 395 169 L 393 177 L 388 181 L 384 180 L 379 175 L 378 172 L 378 165 L 382 156 Z M 128 155 L 130 153 L 136 154 L 138 156 L 138 158 L 137 159 L 129 157 Z M 375 150 L 379 153 L 379 156 L 376 161 L 374 161 L 372 158 L 373 152 Z M 392 148 L 393 148 L 397 153 L 397 157 L 396 158 L 394 158 L 390 154 L 390 150 Z M 109 146 L 113 157 L 118 162 L 124 165 L 124 171 L 122 174 L 118 174 L 111 177 L 105 184 L 105 186 L 102 187 L 97 177 L 96 167 L 97 166 L 97 162 L 99 156 L 103 150 L 106 147 Z M 380 149 L 383 144 L 387 147 L 386 149 L 383 149 L 382 150 Z M 331 141 L 341 146 L 347 152 L 355 166 L 352 167 L 345 174 L 339 189 L 325 206 L 324 219 L 320 220 L 311 216 L 302 207 L 300 199 L 303 192 L 305 180 L 310 182 L 315 189 L 313 182 L 306 177 L 305 174 L 310 169 L 316 167 L 320 167 L 327 170 L 323 166 L 316 164 L 307 167 L 306 166 L 307 163 L 315 155 L 327 151 L 336 153 L 349 164 L 347 159 L 339 151 L 331 148 L 318 149 L 308 156 L 306 155 L 307 148 L 315 142 Z M 179 141 L 192 141 L 204 148 L 203 155 L 189 148 L 176 149 L 170 152 L 165 157 L 161 164 L 171 155 L 178 152 L 192 153 L 203 162 L 204 164 L 203 166 L 190 165 L 184 169 L 184 170 L 190 167 L 195 167 L 202 170 L 205 173 L 206 176 L 198 181 L 195 189 L 202 181 L 205 180 L 210 199 L 209 205 L 205 211 L 199 216 L 190 220 L 186 219 L 187 213 L 183 202 L 172 190 L 164 172 L 156 166 L 162 154 L 172 144 Z M 135 140 L 138 141 L 140 149 L 138 151 L 133 151 L 130 149 L 130 146 Z M 229 131 L 242 130 L 253 136 L 258 136 L 265 131 L 278 130 L 289 135 L 298 146 L 301 158 L 299 192 L 294 203 L 287 211 L 279 201 L 280 209 L 274 217 L 272 239 L 275 246 L 281 251 L 296 257 L 306 268 L 308 284 L 305 291 L 296 299 L 285 299 L 277 292 L 277 283 L 285 277 L 289 279 L 286 284 L 287 288 L 293 289 L 296 285 L 293 276 L 282 272 L 261 271 L 245 261 L 235 242 L 233 218 L 227 209 L 229 201 L 223 208 L 220 208 L 213 197 L 210 185 L 210 156 L 216 141 Z M 249 125 L 251 123 L 255 123 L 256 124 L 257 123 L 260 123 L 262 125 L 262 128 L 260 131 L 255 133 L 250 130 Z M 309 122 L 310 123 L 310 132 L 308 137 L 305 138 L 303 135 L 303 129 L 306 123 Z M 203 122 L 205 123 L 208 129 L 208 135 L 206 138 L 203 137 L 201 132 L 201 124 Z M 265 125 L 273 121 L 280 121 L 290 125 L 298 132 L 302 139 L 302 141 L 300 142 L 297 137 L 293 133 L 284 128 L 276 127 L 275 126 L 266 127 Z M 246 125 L 245 127 L 236 126 L 235 127 L 227 128 L 217 134 L 211 142 L 209 141 L 209 139 L 213 132 L 218 127 L 225 123 L 232 121 L 239 121 L 242 123 L 244 123 Z M 304 111 L 306 112 L 306 115 L 307 116 L 307 118 L 305 120 L 304 120 L 301 116 L 301 113 Z M 207 111 L 211 114 L 208 119 L 206 119 L 204 117 L 205 113 Z M 277 106 L 278 105 L 281 105 L 292 111 L 301 122 L 301 127 L 298 128 L 293 123 L 287 120 L 279 118 L 278 117 L 279 109 Z M 232 105 L 233 106 L 232 109 L 232 115 L 233 117 L 224 120 L 217 124 L 213 128 L 211 128 L 210 127 L 210 123 L 215 115 L 222 109 Z M 255 96 L 262 102 L 264 107 L 264 112 L 262 116 L 258 120 L 252 119 L 248 114 L 248 105 L 250 101 Z M 266 85 L 267 84 L 272 85 L 283 90 L 292 99 L 296 107 L 293 108 L 288 104 L 276 100 L 274 98 L 273 94 L 266 88 Z M 246 85 L 245 89 L 241 91 L 236 100 L 228 102 L 218 108 L 216 107 L 218 101 L 226 92 L 234 87 L 244 84 Z M 255 81 L 257 81 L 263 88 L 263 91 L 264 92 L 263 94 L 264 95 L 265 94 L 268 94 L 272 101 L 271 110 L 274 110 L 275 111 L 275 114 L 271 119 L 267 121 L 264 120 L 264 118 L 266 116 L 266 113 L 267 112 L 266 103 L 263 98 L 257 92 L 255 92 L 251 95 L 245 104 L 244 110 L 245 111 L 245 115 L 248 119 L 247 121 L 240 119 L 235 112 L 236 110 L 240 110 L 239 103 L 241 97 L 244 94 L 248 95 L 248 90 L 250 86 Z M 236 79 L 244 73 L 249 71 L 263 71 L 270 74 L 276 79 L 276 81 L 273 82 L 267 80 L 261 80 L 256 75 L 250 80 L 245 80 L 244 81 L 237 82 Z M 255 51 L 257 51 L 265 60 L 266 66 L 264 68 L 262 67 L 250 67 L 248 68 L 247 67 L 246 62 L 250 56 Z" fill="#B88A44" fill-rule="evenodd"/>
</svg>
