<svg xmlns="http://www.w3.org/2000/svg" viewBox="0 0 512 512" >
  <path d="M 234 278 L 228 276 L 224 276 L 223 275 L 204 275 L 203 276 L 198 276 L 197 277 L 190 278 L 187 280 L 182 281 L 176 284 L 173 287 L 172 295 L 167 309 L 179 322 L 195 334 L 202 337 L 209 336 L 214 333 L 223 323 L 236 304 L 241 292 L 241 286 L 239 282 Z M 231 285 L 234 288 L 234 291 L 231 298 L 216 320 L 207 329 L 199 328 L 188 320 L 176 309 L 177 307 L 179 307 L 193 312 L 200 316 L 206 317 L 207 316 L 206 313 L 191 306 L 180 303 L 177 300 L 181 298 L 205 298 L 216 301 L 218 299 L 217 296 L 204 293 L 184 293 L 180 294 L 179 292 L 184 288 L 205 282 L 222 282 Z M 116 243 L 112 245 L 107 250 L 105 255 L 105 261 L 110 270 L 115 273 L 121 274 L 128 272 L 134 266 L 136 261 L 136 256 L 134 250 L 129 245 L 125 243 Z M 118 250 L 123 250 L 125 251 L 129 256 L 128 262 L 124 266 L 121 267 L 115 265 L 112 261 L 112 256 L 113 254 Z M 426 224 L 411 232 L 394 245 L 381 259 L 374 271 L 380 283 L 392 296 L 413 312 L 428 318 L 428 314 L 403 299 L 387 284 L 386 281 L 389 280 L 415 292 L 419 292 L 420 289 L 382 272 L 383 270 L 420 253 L 417 250 L 387 264 L 385 263 L 388 258 L 404 243 L 417 234 L 428 229 L 429 225 Z M 212 153 L 205 158 L 203 164 L 205 171 L 211 176 L 220 176 L 224 173 L 227 168 L 226 159 L 221 154 Z M 212 159 L 218 159 L 221 162 L 222 165 L 221 168 L 218 171 L 213 171 L 210 169 L 209 167 L 209 162 Z M 56 269 L 63 284 L 87 308 L 145 344 L 199 359 L 255 354 L 273 368 L 302 379 L 322 379 L 334 370 L 316 325 L 366 295 L 393 321 L 419 337 L 445 344 L 456 332 L 432 278 L 434 257 L 455 215 L 452 201 L 435 200 L 408 211 L 367 248 L 308 210 L 325 171 L 322 160 L 307 155 L 287 157 L 244 181 L 242 148 L 232 138 L 217 133 L 200 137 L 188 149 L 184 160 L 188 186 L 157 195 L 110 219 L 79 242 Z M 326 368 L 324 370 L 321 370 L 320 371 L 304 371 L 303 370 L 299 370 L 279 362 L 268 355 L 265 351 L 267 349 L 274 347 L 290 359 L 301 365 L 303 365 L 304 364 L 304 361 L 288 352 L 281 346 L 281 344 L 289 340 L 293 344 L 306 353 L 311 354 L 312 353 L 311 350 L 301 344 L 295 339 L 296 336 L 308 330 L 310 332 L 312 338 L 326 365 Z M 145 210 L 150 216 L 160 239 L 163 253 L 163 276 L 159 294 L 154 308 L 145 325 L 139 332 L 119 321 L 95 304 L 71 281 L 65 273 L 65 270 L 69 264 L 93 241 L 121 222 Z M 317 167 L 317 170 L 314 175 L 314 177 L 305 194 L 302 203 L 300 205 L 288 199 L 286 196 L 303 183 L 301 180 L 289 187 L 281 194 L 277 194 L 271 191 L 271 189 L 277 184 L 293 175 L 295 173 L 294 170 L 292 170 L 282 175 L 269 184 L 264 189 L 254 186 L 254 184 L 264 176 L 275 170 L 289 165 L 305 163 L 306 164 L 312 164 Z M 151 207 L 201 190 L 192 168 L 193 157 L 201 146 L 214 141 L 228 145 L 237 156 L 238 170 L 229 188 L 231 191 L 277 202 L 367 257 L 412 218 L 446 207 L 447 213 L 425 259 L 424 279 L 447 334 L 435 334 L 410 323 L 369 285 L 295 328 L 249 347 L 200 351 L 147 336 L 162 304 L 169 276 L 165 235 Z" fill="#B88A44" fill-rule="evenodd"/>
</svg>
