<svg xmlns="http://www.w3.org/2000/svg" viewBox="0 0 512 512" >
  <path d="M 147 443 L 144 449 L 144 455 L 147 457 L 150 455 L 150 450 Z M 151 430 L 149 439 L 151 443 L 154 443 L 156 441 L 156 437 L 152 430 Z M 137 419 L 135 420 L 131 428 L 131 434 L 134 436 L 137 435 L 139 432 L 139 429 L 137 424 Z M 134 427 L 136 428 L 136 432 L 135 433 L 133 432 L 133 428 Z M 135 388 L 133 389 L 127 400 L 127 402 L 130 406 L 133 406 L 135 405 L 136 403 L 136 395 L 135 394 L 135 390 L 136 389 Z M 133 396 L 134 397 L 134 402 L 131 404 L 130 403 L 130 398 Z M 133 368 L 127 375 L 127 379 L 129 381 L 132 381 L 134 378 L 134 369 Z M 129 376 L 131 375 L 132 377 L 130 378 Z M 161 351 L 161 355 L 159 362 L 162 366 L 164 366 L 167 363 L 167 359 L 164 354 L 163 350 Z M 161 360 L 164 359 L 165 362 L 163 363 Z M 243 170 L 241 169 L 238 172 L 236 172 L 234 174 L 230 175 L 230 176 L 233 176 L 235 179 L 239 179 L 241 176 L 240 173 Z M 235 176 L 237 175 L 238 177 L 236 178 Z M 244 144 L 242 144 L 237 149 L 232 150 L 230 153 L 231 154 L 232 153 L 237 153 L 242 149 L 242 147 Z M 242 136 L 239 135 L 231 136 L 225 141 L 224 145 L 231 139 L 236 137 L 242 137 Z M 201 39 L 203 93 L 195 97 L 188 126 L 159 140 L 129 200 L 133 243 L 142 266 L 139 316 L 152 331 L 133 356 L 141 363 L 146 386 L 143 423 L 152 422 L 152 389 L 162 384 L 152 357 L 170 323 L 168 308 L 235 303 L 230 330 L 183 367 L 159 400 L 158 421 L 173 446 L 205 462 L 260 461 L 286 453 L 313 457 L 346 441 L 332 430 L 338 418 L 360 428 L 367 440 L 377 439 L 385 427 L 380 412 L 343 378 L 350 354 L 345 330 L 307 278 L 326 217 L 325 194 L 279 154 L 270 97 L 265 105 L 233 81 Z M 192 435 L 191 442 L 189 446 L 179 445 L 175 443 L 171 439 L 172 437 L 175 438 L 184 438 L 190 434 Z M 372 433 L 374 432 L 375 434 L 373 435 Z M 377 430 L 379 429 L 380 431 L 378 432 Z M 374 427 L 376 426 L 377 428 L 375 429 Z M 314 405 L 317 410 L 316 423 L 309 434 L 302 439 L 301 437 L 307 429 L 310 419 L 310 413 L 308 407 L 311 405 Z M 146 404 L 148 405 L 149 412 L 150 413 L 150 421 L 148 423 L 147 423 L 144 419 L 144 409 Z M 324 398 L 328 402 L 330 407 L 330 416 L 329 417 L 328 428 L 331 435 L 336 440 L 338 440 L 339 443 L 338 444 L 331 444 L 329 445 L 324 439 L 323 436 L 323 431 L 324 430 L 323 430 L 322 432 L 322 439 L 326 446 L 320 451 L 315 453 L 307 453 L 298 450 L 290 450 L 289 448 L 291 446 L 305 440 L 308 438 L 315 430 L 319 420 L 319 410 L 316 405 L 316 403 L 321 399 Z M 224 398 L 225 398 L 226 400 L 221 407 L 216 422 L 216 433 L 221 446 L 224 450 L 231 456 L 230 458 L 227 458 L 223 456 L 217 450 L 212 438 L 212 421 L 213 420 L 213 417 L 219 404 Z M 225 396 L 227 395 L 228 397 L 226 398 Z M 328 394 L 333 397 L 337 404 L 337 414 L 335 417 L 333 416 L 332 404 L 327 397 Z M 332 391 L 341 383 L 347 383 L 351 385 L 356 390 L 361 402 L 366 407 L 374 411 L 378 415 L 379 421 L 382 426 L 380 427 L 377 424 L 376 421 L 374 421 L 375 424 L 374 425 L 371 425 L 372 427 L 371 429 L 370 429 L 369 427 L 367 427 L 369 432 L 369 434 L 367 435 L 363 426 L 356 422 L 354 422 L 343 417 L 340 414 L 340 405 L 336 396 L 332 393 Z M 157 381 L 159 380 L 160 383 L 158 384 Z M 246 372 L 247 374 L 236 382 L 223 395 L 216 405 L 210 420 L 210 425 L 209 426 L 210 440 L 215 451 L 219 455 L 219 457 L 218 458 L 204 458 L 197 455 L 193 449 L 193 443 L 195 436 L 195 426 L 196 425 L 197 415 L 204 399 L 209 392 L 223 378 L 234 370 L 239 369 L 244 372 Z M 149 365 L 151 366 L 155 375 L 155 378 L 154 379 L 151 377 L 148 367 Z M 138 354 L 139 355 L 139 358 L 136 360 L 135 357 L 136 355 Z M 344 362 L 341 374 L 333 385 L 323 394 L 292 411 L 274 418 L 263 425 L 258 431 L 262 431 L 282 418 L 306 409 L 308 413 L 307 423 L 301 434 L 290 444 L 274 453 L 255 458 L 238 456 L 224 445 L 219 433 L 219 421 L 221 414 L 236 390 L 262 366 L 281 355 L 299 350 L 324 351 L 338 357 Z M 273 349 L 275 348 L 278 350 L 279 352 L 274 355 L 273 354 Z M 243 347 L 244 349 L 242 353 L 236 359 L 227 364 L 231 369 L 219 378 L 209 388 L 203 396 L 195 412 L 193 424 L 191 429 L 184 435 L 174 435 L 170 433 L 165 428 L 161 419 L 161 405 L 164 397 L 173 383 L 193 363 L 217 346 L 224 343 L 235 348 L 241 348 Z M 270 338 L 271 339 L 271 343 L 270 344 L 270 357 L 268 359 L 266 359 L 265 358 L 266 345 L 268 339 Z M 255 337 L 260 343 L 263 341 L 265 342 L 264 353 L 261 362 L 259 365 L 254 369 L 251 369 L 250 370 L 247 370 L 239 366 L 236 366 L 235 363 L 243 356 L 247 350 L 251 338 L 252 337 Z M 274 336 L 276 335 L 281 339 L 286 341 L 301 341 L 305 339 L 308 339 L 313 337 L 318 337 L 319 336 L 328 336 L 329 337 L 338 338 L 341 340 L 343 340 L 345 342 L 345 345 L 346 346 L 346 358 L 343 359 L 340 356 L 331 351 L 322 348 L 317 348 L 316 347 L 301 347 L 300 348 L 295 348 L 290 350 L 282 350 L 275 344 L 274 342 Z M 257 334 L 258 333 L 260 334 L 264 333 L 265 336 L 260 339 L 257 336 Z M 225 340 L 225 339 L 232 333 L 237 336 L 245 336 L 246 335 L 249 336 L 248 340 L 242 345 L 233 345 Z M 259 329 L 261 328 L 262 330 L 260 331 Z M 254 328 L 256 331 L 255 334 L 252 333 L 252 329 Z M 233 331 L 235 328 L 238 326 L 243 330 L 245 333 L 240 335 L 234 333 Z M 156 326 L 157 327 L 156 337 L 152 344 L 149 347 L 146 354 L 142 356 L 141 354 L 143 348 L 151 339 L 154 333 L 154 327 Z M 263 324 L 265 325 L 265 328 L 264 329 L 262 328 L 262 325 Z M 242 325 L 244 324 L 246 327 L 244 328 Z M 268 322 L 270 322 L 274 325 L 273 329 L 270 330 L 270 334 L 269 335 L 267 335 L 265 333 L 265 331 L 267 330 L 267 328 L 270 327 L 270 326 L 267 324 Z M 251 322 L 254 323 L 252 326 L 253 327 L 252 329 L 251 329 L 249 326 L 249 324 Z M 259 322 L 261 321 L 262 323 L 260 324 Z M 265 319 L 267 317 L 270 318 L 269 321 L 266 321 Z M 252 318 L 255 317 L 256 318 L 256 321 L 254 322 L 252 320 Z M 156 315 L 158 317 L 161 324 L 162 336 L 159 343 L 151 353 L 150 360 L 147 364 L 148 373 L 151 381 L 151 388 L 149 389 L 147 385 L 147 381 L 143 372 L 142 364 L 143 363 L 143 359 L 146 357 L 148 351 L 155 343 L 158 336 L 158 333 L 159 332 L 158 325 L 156 321 L 154 321 L 152 319 L 152 318 Z M 239 315 L 241 314 L 243 316 L 248 318 L 249 321 L 247 323 L 244 322 L 239 317 Z M 260 312 L 264 315 L 264 318 L 262 319 L 261 317 L 260 317 L 259 319 L 257 318 L 257 315 Z M 151 312 L 153 311 L 155 314 L 152 315 Z M 343 338 L 341 339 L 337 336 L 330 334 L 317 334 L 316 335 L 311 335 L 298 339 L 287 339 L 282 337 L 281 334 L 293 330 L 303 325 L 311 319 L 317 313 L 319 309 L 323 306 L 336 321 L 341 330 L 341 332 L 343 335 Z M 319 303 L 319 305 L 315 311 L 308 318 L 301 323 L 285 330 L 282 330 L 281 331 L 277 331 L 276 330 L 278 327 L 288 325 L 302 318 L 315 306 L 317 302 Z M 315 296 L 316 299 L 313 305 L 301 316 L 289 322 L 279 325 L 275 322 L 275 321 L 278 319 L 286 317 L 296 312 L 302 308 L 310 300 L 313 295 Z M 188 283 L 190 283 L 192 285 L 194 289 L 194 294 L 195 295 L 194 303 L 191 306 L 188 305 L 190 299 L 189 289 L 187 285 Z M 195 282 L 197 282 L 199 284 L 201 290 L 201 301 L 198 306 L 196 305 L 197 292 L 194 284 Z M 143 271 L 146 269 L 160 269 L 167 272 L 179 285 L 186 288 L 187 291 L 187 302 L 186 303 L 173 305 L 172 304 L 169 304 L 157 297 L 148 297 L 144 299 L 143 296 L 146 293 L 153 292 L 156 290 L 155 289 L 151 289 L 142 292 L 141 291 L 142 288 L 144 286 L 150 284 L 154 284 L 156 283 L 156 282 L 147 282 L 144 284 L 142 284 L 141 281 L 147 277 L 156 276 L 157 274 L 147 274 L 143 276 L 142 275 Z M 306 256 L 305 264 L 304 265 L 304 281 L 307 288 L 310 292 L 310 294 L 306 300 L 298 307 L 285 314 L 273 317 L 271 315 L 267 314 L 264 312 L 261 308 L 259 308 L 255 314 L 252 314 L 251 315 L 248 315 L 241 310 L 240 307 L 240 303 L 241 302 L 253 300 L 270 295 L 280 285 L 297 263 L 299 259 L 303 255 Z M 300 248 L 302 247 L 303 249 L 301 250 Z M 207 243 L 208 244 L 208 255 L 211 262 L 214 266 L 220 270 L 223 274 L 202 281 L 198 279 L 193 279 L 192 280 L 186 280 L 182 283 L 169 270 L 170 267 L 186 256 L 191 255 L 196 251 L 200 246 L 205 243 Z M 303 240 L 304 240 L 307 244 L 306 247 L 301 243 Z M 299 251 L 299 254 L 286 272 L 268 292 L 255 296 L 240 298 L 239 299 L 219 300 L 218 301 L 205 301 L 204 300 L 204 292 L 202 287 L 203 284 L 215 280 L 218 280 L 243 271 L 256 269 L 263 259 L 270 246 L 275 240 L 280 240 L 289 243 L 294 246 Z M 291 239 L 293 238 L 294 241 L 292 242 Z M 305 238 L 307 237 L 309 240 L 307 241 Z M 177 237 L 182 242 L 185 248 L 185 252 L 181 256 L 175 260 L 173 260 L 172 259 L 172 251 L 175 245 L 175 238 Z M 283 237 L 285 236 L 286 238 L 284 239 Z M 189 237 L 191 236 L 192 238 L 190 239 Z M 276 236 L 277 235 L 280 235 L 281 237 L 280 238 L 277 238 Z M 187 234 L 189 233 L 190 235 L 188 236 Z M 303 231 L 304 232 L 304 235 L 303 237 L 301 238 L 300 237 L 301 232 Z M 298 231 L 299 234 L 295 237 L 294 236 L 294 233 L 296 231 Z M 277 231 L 278 230 L 286 230 L 287 233 L 286 234 L 282 234 L 281 233 L 278 233 Z M 176 229 L 182 232 L 188 239 L 191 245 L 191 250 L 190 251 L 188 250 L 187 246 L 182 238 L 175 232 Z M 237 228 L 240 234 L 243 232 L 245 233 L 239 247 L 238 257 L 233 268 L 231 269 L 224 269 L 214 260 L 212 256 L 211 249 L 212 248 L 212 245 L 214 243 L 213 240 L 216 237 L 227 233 L 235 228 Z M 294 226 L 295 229 L 290 233 L 289 230 Z M 285 227 L 287 226 L 288 228 L 286 229 Z M 274 225 L 275 227 L 273 233 L 269 238 L 270 241 L 264 251 L 261 253 L 260 250 L 262 244 L 272 226 Z M 239 225 L 241 224 L 242 226 L 245 224 L 246 227 L 244 229 L 241 229 L 239 227 Z M 258 222 L 259 224 L 248 243 L 246 249 L 246 253 L 245 254 L 244 264 L 241 269 L 237 270 L 236 267 L 239 262 L 240 254 L 241 253 L 241 248 L 244 239 L 253 225 L 256 222 Z M 302 221 L 305 223 L 305 227 L 303 229 L 301 228 L 301 226 L 299 227 L 297 226 L 297 225 Z M 137 219 L 142 221 L 142 225 L 146 234 L 142 248 L 143 249 L 143 255 L 145 258 L 144 260 L 141 258 L 137 245 L 137 239 L 136 238 L 136 220 Z M 279 218 L 280 219 L 279 223 L 275 225 L 274 223 L 276 220 Z M 251 218 L 252 221 L 249 223 L 248 221 L 249 219 Z M 238 218 L 240 219 L 240 222 L 239 223 L 237 222 L 237 219 Z M 242 217 L 243 216 L 246 216 L 247 217 L 247 220 L 245 222 L 243 222 L 242 221 Z M 261 216 L 261 217 L 258 219 L 255 219 L 254 218 L 255 216 L 258 216 L 259 215 Z M 232 215 L 234 214 L 236 217 L 234 218 Z M 134 213 L 136 212 L 140 214 L 141 216 L 138 217 L 136 216 Z M 267 210 L 269 209 L 270 211 L 268 212 Z M 133 206 L 135 205 L 137 207 L 141 208 L 142 210 L 141 211 L 138 211 L 136 210 Z M 228 202 L 230 203 L 230 206 L 231 207 L 230 210 L 227 208 L 227 203 Z M 274 203 L 276 200 L 278 201 L 276 204 Z M 284 199 L 285 200 L 284 203 L 268 228 L 260 243 L 256 260 L 254 264 L 252 266 L 246 267 L 245 265 L 247 261 L 248 248 L 253 235 L 262 221 L 267 216 L 270 215 L 280 204 L 282 200 Z M 284 197 L 286 196 L 287 198 L 285 199 Z M 233 195 L 235 196 L 235 203 L 239 209 L 243 211 L 242 214 L 238 213 L 233 208 L 232 205 L 232 196 Z M 224 195 L 225 196 L 224 199 L 224 207 L 229 217 L 235 222 L 234 226 L 225 231 L 223 231 L 220 233 L 217 233 L 216 232 L 215 224 L 213 223 L 213 231 L 212 234 L 209 237 L 198 243 L 192 232 L 185 225 L 185 223 L 195 212 L 207 201 L 215 197 Z M 283 191 L 284 192 L 281 198 L 278 200 L 277 198 L 281 192 Z M 283 189 L 285 188 L 286 190 L 284 191 Z M 305 184 L 313 186 L 316 188 L 321 194 L 324 203 L 324 210 L 323 211 L 322 219 L 316 232 L 312 237 L 307 233 L 307 230 L 308 229 L 307 227 L 307 215 L 303 218 L 297 221 L 295 221 L 292 224 L 287 224 L 283 222 L 286 212 L 283 213 L 282 210 L 284 208 L 286 203 L 292 194 L 299 187 Z M 297 183 L 298 185 L 289 195 L 287 196 L 286 194 L 291 185 L 293 183 Z M 285 182 L 278 194 L 266 208 L 262 211 L 253 215 L 248 215 L 247 214 L 248 211 L 255 210 L 266 203 L 274 194 L 280 184 L 283 181 Z M 270 171 L 273 170 L 274 172 L 271 173 Z M 211 166 L 215 173 L 218 176 L 218 181 L 220 184 L 220 187 L 218 190 L 218 192 L 216 194 L 213 194 L 207 197 L 200 202 L 181 222 L 177 223 L 176 225 L 173 227 L 170 222 L 170 215 L 172 210 L 172 206 L 171 205 L 171 200 L 169 197 L 169 195 L 171 193 L 171 191 L 175 183 L 175 178 L 177 174 L 176 171 L 179 168 L 182 167 L 187 167 L 193 169 L 203 169 L 209 166 Z M 268 162 L 270 161 L 271 164 L 269 165 Z M 168 164 L 172 169 L 171 171 L 167 168 L 161 166 L 153 166 L 154 168 L 158 168 L 165 170 L 171 176 L 170 178 L 160 173 L 152 173 L 152 174 L 164 177 L 169 182 L 168 184 L 158 180 L 151 180 L 151 181 L 163 184 L 168 190 L 165 191 L 162 188 L 158 188 L 157 187 L 151 188 L 150 189 L 150 192 L 144 202 L 144 204 L 142 206 L 137 204 L 135 201 L 135 199 L 136 198 L 138 187 L 142 178 L 143 173 L 146 168 L 146 166 L 150 162 L 153 161 L 163 162 Z M 207 151 L 210 149 L 216 150 L 218 152 L 219 156 L 212 159 L 207 153 Z M 265 145 L 266 144 L 269 144 L 270 147 L 268 149 L 266 149 L 265 148 Z M 266 134 L 268 137 L 268 140 L 267 141 L 264 140 L 265 137 L 264 135 Z M 199 131 L 201 130 L 202 132 L 200 133 Z M 259 134 L 260 131 L 263 128 L 267 128 L 269 130 L 268 132 L 264 131 L 261 135 Z M 201 130 L 203 127 L 205 128 L 203 131 Z M 199 123 L 201 126 L 196 132 L 194 132 L 193 130 L 195 126 Z M 263 123 L 265 122 L 266 124 L 264 125 Z M 246 123 L 248 122 L 252 127 L 250 128 Z M 224 123 L 238 123 L 248 133 L 251 134 L 258 143 L 260 140 L 263 142 L 263 147 L 265 149 L 262 152 L 262 166 L 267 174 L 279 180 L 268 197 L 255 207 L 244 208 L 240 206 L 237 201 L 238 193 L 241 192 L 243 197 L 245 197 L 244 189 L 249 187 L 255 181 L 260 172 L 260 169 L 255 177 L 248 184 L 244 186 L 236 185 L 222 176 L 216 169 L 214 163 L 221 159 L 223 168 L 226 172 L 231 171 L 234 167 L 232 167 L 230 170 L 227 170 L 221 153 L 214 147 L 204 147 L 202 141 L 203 135 L 206 132 L 214 130 Z M 208 126 L 209 123 L 211 122 L 214 123 L 214 125 L 212 127 L 209 127 Z M 268 122 L 271 121 L 272 124 L 269 125 Z M 237 118 L 240 117 L 244 119 L 245 121 L 243 122 L 240 120 L 238 120 Z M 227 118 L 226 120 L 221 121 L 218 123 L 216 122 L 218 119 L 220 119 L 223 117 L 226 117 Z M 193 118 L 195 117 L 196 119 L 194 120 Z M 262 116 L 264 118 L 264 120 L 259 123 L 259 128 L 257 129 L 256 128 L 256 123 L 258 119 Z M 227 117 L 228 116 L 236 116 L 237 118 L 236 119 L 228 119 Z M 205 114 L 208 113 L 211 116 L 211 118 L 209 120 L 206 120 L 205 119 Z M 200 113 L 202 114 L 202 119 L 204 121 L 203 123 L 202 123 L 199 119 L 199 114 Z M 247 111 L 249 110 L 250 112 L 248 113 Z M 220 112 L 225 110 L 237 110 L 247 114 L 254 120 L 254 123 L 252 124 L 246 118 L 237 114 L 227 114 L 221 116 L 220 115 Z M 211 107 L 213 107 L 217 111 L 217 117 L 215 119 L 213 118 L 214 116 L 213 111 L 212 112 L 209 111 Z M 269 106 L 271 107 L 271 115 L 270 116 L 268 115 L 268 113 L 267 114 L 265 113 L 265 111 Z M 219 107 L 221 104 L 223 105 L 221 108 Z M 230 104 L 232 103 L 234 104 L 235 106 L 233 107 L 231 106 Z M 200 103 L 201 102 L 204 102 L 208 106 L 208 109 L 206 110 L 203 108 L 203 110 L 201 111 L 200 110 Z M 224 87 L 223 89 L 218 90 L 211 94 L 209 93 L 210 91 L 215 88 L 221 86 Z M 224 86 L 227 85 L 228 87 L 225 88 Z M 229 85 L 232 84 L 233 86 L 230 87 Z M 219 80 L 219 81 L 216 83 L 214 83 L 211 85 L 209 84 L 210 82 L 217 79 Z M 219 79 L 220 78 L 223 78 L 224 80 L 223 81 L 220 81 Z M 211 75 L 213 74 L 214 76 L 212 77 Z M 209 60 L 215 67 L 215 70 L 214 71 L 211 70 L 208 71 L 207 70 L 207 61 Z M 203 48 L 205 47 L 208 50 L 208 52 L 204 54 L 203 53 Z" fill="#B88A44" fill-rule="evenodd"/>
</svg>
