<svg xmlns="http://www.w3.org/2000/svg" viewBox="0 0 512 512" >
  <path d="M 68 68 L 66 443 L 313 445 L 332 439 L 364 417 L 417 360 L 446 305 L 447 71 Z M 420 336 L 421 338 L 405 361 L 391 378 L 363 406 L 357 410 L 352 415 L 348 417 L 347 415 L 351 404 L 352 394 L 353 393 L 353 380 L 354 379 L 354 356 L 353 355 L 353 349 L 355 346 L 380 346 L 381 345 L 388 345 L 389 344 L 399 343 Z M 77 77 L 438 78 L 437 303 L 422 324 L 408 331 L 344 340 L 343 399 L 326 430 L 310 436 L 74 435 Z" fill="#B88A44" fill-rule="evenodd"/>
</svg>
