<svg xmlns="http://www.w3.org/2000/svg" viewBox="0 0 512 512" >
  <path d="M 228 351 L 223 355 L 220 360 L 219 370 L 221 376 L 225 382 L 234 391 L 237 392 L 239 391 L 251 378 L 254 370 L 254 364 L 251 356 L 247 352 L 243 351 L 243 354 L 246 360 L 246 370 L 241 379 L 238 382 L 236 382 L 230 376 L 227 370 L 227 361 L 231 353 L 230 351 Z M 269 314 L 268 316 L 271 323 L 271 331 L 267 339 L 260 344 L 259 346 L 271 350 L 284 350 L 292 347 L 298 341 L 301 334 L 301 328 L 298 321 L 294 317 L 292 317 L 292 320 L 294 324 L 294 333 L 289 340 L 282 343 L 275 343 L 274 341 L 278 333 L 278 323 L 275 317 L 271 314 Z M 177 315 L 174 321 L 173 328 L 176 337 L 182 344 L 195 349 L 205 349 L 214 346 L 214 345 L 205 337 L 203 333 L 202 325 L 205 317 L 204 314 L 201 315 L 197 319 L 195 330 L 198 338 L 197 341 L 193 341 L 188 339 L 181 331 L 181 320 L 184 315 L 189 311 L 189 309 L 185 309 Z M 230 308 L 228 309 L 220 318 L 219 321 L 220 331 L 222 335 L 226 339 L 232 342 L 242 342 L 246 340 L 252 334 L 254 329 L 254 320 L 250 313 L 247 310 L 240 307 Z M 235 315 L 241 316 L 246 321 L 246 328 L 245 330 L 240 334 L 233 334 L 229 331 L 227 327 L 227 323 L 229 319 Z M 118 255 L 112 260 L 112 265 L 116 270 L 121 271 L 124 270 L 127 267 L 128 262 L 127 259 L 124 256 Z M 190 208 L 184 213 L 183 215 L 183 222 L 185 226 L 189 229 L 192 229 L 193 230 L 198 229 L 202 226 L 204 222 L 204 215 L 199 209 L 197 208 Z M 192 214 L 195 214 L 198 217 L 198 221 L 196 223 L 191 223 L 189 221 L 189 217 Z M 444 378 L 444 366 L 436 359 L 447 336 L 440 321 L 364 333 L 338 324 L 308 299 L 344 277 L 350 264 L 347 255 L 371 227 L 372 216 L 364 207 L 382 178 L 383 165 L 374 154 L 387 118 L 385 105 L 377 99 L 322 139 L 256 177 L 240 195 L 219 248 L 219 203 L 203 189 L 188 188 L 166 207 L 169 239 L 142 226 L 112 228 L 93 242 L 85 261 L 65 277 L 100 300 L 156 378 L 186 399 L 214 410 L 265 411 L 319 386 L 336 384 L 390 408 L 412 412 L 430 402 Z M 189 197 L 198 197 L 203 199 L 208 203 L 213 212 L 213 225 L 207 237 L 207 242 L 206 243 L 208 252 L 212 257 L 212 259 L 205 264 L 198 264 L 192 261 L 180 250 L 180 246 L 181 245 L 180 237 L 175 228 L 173 221 L 173 216 L 176 207 L 181 201 Z M 436 373 L 414 402 L 392 399 L 338 375 L 315 378 L 264 402 L 212 400 L 163 372 L 105 292 L 79 275 L 93 266 L 106 242 L 127 234 L 157 242 L 194 272 L 213 270 L 261 185 L 327 147 L 376 109 L 367 149 L 324 187 L 373 167 L 367 189 L 345 212 L 315 227 L 361 217 L 360 229 L 341 248 L 296 261 L 339 262 L 338 270 L 313 287 L 275 290 L 295 297 L 323 325 L 356 341 L 389 342 L 436 330 L 435 344 L 419 359 L 356 364 L 385 372 L 433 368 Z" fill="#B88A44" fill-rule="evenodd"/>
</svg>
