<svg xmlns="http://www.w3.org/2000/svg" viewBox="0 0 512 512" >
  <path d="M 255 231 L 246 240 L 242 246 L 237 257 L 235 257 L 227 253 L 216 252 L 214 253 L 212 256 L 212 261 L 213 262 L 213 268 L 215 275 L 221 286 L 227 292 L 237 298 L 244 300 L 248 300 L 249 301 L 265 301 L 281 296 L 292 287 L 298 277 L 301 268 L 301 254 L 298 252 L 292 252 L 277 257 L 275 255 L 273 248 L 267 239 L 260 232 Z M 294 259 L 295 260 L 294 270 L 288 282 L 282 288 L 272 293 L 269 293 L 268 291 L 271 288 L 276 277 L 277 266 L 281 262 L 285 260 Z M 220 258 L 226 259 L 234 263 L 237 266 L 238 277 L 240 283 L 245 290 L 244 293 L 239 292 L 232 288 L 223 278 L 219 267 L 219 259 Z M 255 239 L 258 239 L 264 245 L 269 254 L 271 261 L 271 272 L 269 276 L 269 279 L 262 290 L 258 293 L 255 293 L 251 289 L 245 279 L 243 272 L 243 261 L 245 254 L 248 248 Z M 256 54 L 226 107 L 229 133 L 249 151 L 208 157 L 192 168 L 192 309 L 182 317 L 175 332 L 157 327 L 150 332 L 172 379 L 188 395 L 188 401 L 172 413 L 174 442 L 185 449 L 216 456 L 274 458 L 315 453 L 340 442 L 342 413 L 326 401 L 326 395 L 343 377 L 364 329 L 338 332 L 332 317 L 322 309 L 322 168 L 309 158 L 265 151 L 283 136 L 288 108 L 280 87 Z M 178 426 L 180 425 L 191 430 L 210 434 L 228 436 L 266 437 L 267 436 L 296 435 L 315 432 L 335 425 L 336 426 L 336 436 L 334 439 L 327 443 L 295 450 L 264 451 L 263 452 L 230 451 L 206 448 L 187 443 L 178 437 Z M 178 414 L 181 411 L 192 407 L 194 405 L 195 400 L 207 405 L 225 410 L 249 413 L 265 413 L 289 410 L 301 407 L 319 400 L 321 407 L 331 410 L 336 414 L 336 416 L 327 422 L 301 428 L 281 430 L 233 430 L 206 427 L 184 421 L 178 416 Z M 256 343 L 258 343 L 264 347 L 277 360 L 280 365 L 284 377 L 284 387 L 283 388 L 283 391 L 278 400 L 271 405 L 263 406 L 262 407 L 245 406 L 239 403 L 233 396 L 230 387 L 231 372 L 235 363 L 245 351 Z M 352 335 L 353 337 L 349 345 L 345 358 L 335 378 L 324 389 L 318 393 L 308 398 L 296 402 L 285 404 L 284 401 L 288 395 L 290 388 L 290 376 L 289 375 L 288 366 L 302 356 L 322 346 L 324 346 L 338 339 Z M 161 336 L 164 335 L 183 342 L 196 349 L 198 349 L 206 353 L 224 364 L 226 366 L 226 370 L 224 375 L 224 389 L 227 398 L 230 403 L 227 404 L 206 398 L 194 392 L 186 386 L 175 372 L 168 356 L 167 351 L 165 348 Z M 324 318 L 329 324 L 332 333 L 331 336 L 324 339 L 322 338 L 322 319 Z M 190 318 L 192 319 L 192 338 L 191 339 L 187 338 L 182 335 L 183 328 L 186 322 Z M 199 181 L 237 189 L 277 189 L 298 186 L 312 181 L 315 182 L 315 342 L 284 360 L 270 344 L 256 336 L 240 347 L 229 360 L 198 342 Z M 198 170 L 204 165 L 214 162 L 218 162 L 224 160 L 231 160 L 232 159 L 253 158 L 254 159 L 254 173 L 256 175 L 258 175 L 260 173 L 260 159 L 261 158 L 270 158 L 271 159 L 281 159 L 282 160 L 289 160 L 290 161 L 304 163 L 313 167 L 315 169 L 315 172 L 307 177 L 301 178 L 297 180 L 292 180 L 291 181 L 275 182 L 274 183 L 241 183 L 240 182 L 230 182 L 229 181 L 222 181 L 221 180 L 213 179 L 202 175 Z M 258 117 L 264 125 L 266 135 L 264 140 L 262 142 L 260 141 L 259 138 L 255 138 L 254 139 L 254 142 L 252 143 L 249 139 L 248 131 L 249 130 L 249 127 L 253 120 L 256 117 Z M 256 68 L 258 68 L 265 77 L 274 91 L 279 102 L 279 105 L 281 110 L 281 123 L 278 131 L 274 136 L 272 135 L 271 125 L 267 117 L 260 107 L 257 105 L 253 108 L 243 124 L 242 135 L 241 136 L 237 133 L 234 127 L 234 124 L 233 123 L 233 109 L 235 102 L 241 90 Z" fill="#B88A44" fill-rule="evenodd"/>
</svg>
