<svg xmlns="http://www.w3.org/2000/svg" viewBox="0 0 512 512" >
  <path d="M 76 121 L 78 136 L 65 144 L 66 152 L 77 159 L 65 169 L 71 181 L 118 177 L 141 182 L 84 230 L 68 268 L 75 316 L 100 348 L 117 354 L 130 367 L 156 372 L 174 384 L 201 385 L 217 392 L 249 389 L 281 394 L 300 386 L 323 388 L 351 374 L 378 370 L 410 349 L 434 318 L 442 266 L 433 241 L 402 206 L 371 184 L 384 178 L 439 182 L 446 176 L 445 166 L 435 159 L 447 145 L 434 136 L 433 119 L 379 147 L 342 148 L 332 156 L 296 157 L 282 141 L 255 139 L 225 143 L 217 157 L 180 156 L 171 148 L 128 145 L 85 118 Z M 292 383 L 286 386 L 277 387 L 276 388 L 274 387 L 273 388 L 270 387 L 262 387 L 253 384 L 243 378 L 238 373 L 232 369 L 231 366 L 242 359 L 259 352 L 270 351 L 271 350 L 287 352 L 288 355 L 282 361 L 272 366 L 265 366 L 263 367 L 262 370 L 264 372 L 274 372 L 290 380 Z M 184 359 L 196 353 L 211 348 L 228 348 L 238 351 L 239 353 L 237 355 L 224 362 L 216 363 L 214 366 L 216 369 L 220 369 L 229 374 L 236 380 L 239 384 L 233 386 L 222 386 L 208 382 L 200 377 L 191 368 Z M 341 374 L 335 378 L 325 381 L 309 381 L 299 378 L 286 371 L 284 368 L 298 355 L 305 350 L 317 345 L 331 344 L 333 346 L 333 348 L 330 352 L 322 359 L 316 361 L 314 364 L 315 366 L 317 367 L 326 366 L 338 370 L 341 372 Z M 146 344 L 158 340 L 175 339 L 176 340 L 183 341 L 192 346 L 191 349 L 180 354 L 173 354 L 170 356 L 171 360 L 175 361 L 179 364 L 191 378 L 190 379 L 177 378 L 167 373 L 157 363 Z M 380 329 L 395 329 L 396 330 L 392 343 L 388 349 L 377 349 L 371 347 L 376 339 L 376 337 Z M 372 330 L 372 332 L 367 342 L 359 350 L 359 352 L 361 354 L 365 353 L 366 354 L 381 355 L 382 358 L 377 363 L 364 368 L 351 368 L 350 367 L 343 366 L 332 361 L 332 359 L 336 355 L 345 342 L 350 337 L 362 330 L 365 330 L 366 329 L 371 329 Z M 115 325 L 122 325 L 123 324 L 135 324 L 136 325 L 140 325 L 148 328 L 154 333 L 153 335 L 140 339 L 136 339 L 135 343 L 141 348 L 150 363 L 149 365 L 143 365 L 137 363 L 130 359 L 125 354 L 119 344 L 116 331 L 114 327 Z M 414 304 L 416 309 L 416 319 L 417 320 L 415 331 L 412 337 L 403 346 L 399 347 L 398 346 L 398 343 L 402 334 L 403 324 L 401 322 L 388 323 L 385 322 L 384 319 L 392 311 L 406 305 Z M 96 303 L 102 303 L 106 305 L 109 305 L 117 309 L 124 316 L 123 318 L 111 319 L 106 322 L 110 334 L 110 337 L 112 341 L 112 345 L 111 346 L 103 342 L 98 337 L 95 332 L 93 325 L 93 311 L 94 310 L 94 306 Z M 419 275 L 426 281 L 429 286 L 432 295 L 432 307 L 428 315 L 425 318 L 423 317 L 422 306 L 419 297 L 415 296 L 406 299 L 403 298 L 404 294 L 409 285 Z M 91 274 L 101 284 L 106 293 L 106 296 L 105 297 L 101 297 L 96 295 L 91 296 L 87 307 L 87 313 L 86 315 L 84 316 L 81 313 L 78 307 L 78 302 L 77 300 L 78 299 L 78 294 L 82 284 L 86 278 Z M 412 246 L 415 246 L 425 251 L 432 259 L 435 265 L 435 269 L 436 270 L 436 277 L 434 280 L 433 280 L 429 274 L 420 266 L 411 274 L 409 273 L 408 270 L 409 257 L 410 256 L 410 252 Z M 98 245 L 100 247 L 101 257 L 102 258 L 102 273 L 100 274 L 92 266 L 89 266 L 81 275 L 76 279 L 75 278 L 75 268 L 79 258 L 82 254 L 88 249 Z M 390 226 L 392 224 L 402 224 L 403 225 L 407 225 L 413 227 L 423 236 L 425 241 L 422 242 L 414 239 L 408 239 L 406 240 L 403 259 L 401 260 L 398 257 L 394 247 L 394 243 L 393 242 L 393 238 L 392 237 L 392 233 L 390 229 Z M 121 224 L 122 226 L 119 232 L 117 247 L 113 256 L 110 259 L 108 258 L 107 248 L 106 247 L 106 241 L 104 239 L 98 238 L 91 240 L 88 242 L 86 241 L 86 239 L 90 233 L 93 230 L 102 225 L 105 225 L 106 224 Z M 362 206 L 365 206 L 366 205 L 384 205 L 393 208 L 402 216 L 401 218 L 396 217 L 395 218 L 386 218 L 381 220 L 380 222 L 384 229 L 386 236 L 386 240 L 385 241 L 382 241 L 376 237 L 370 230 L 367 224 L 364 213 L 361 208 Z M 149 206 L 150 209 L 147 214 L 143 227 L 135 237 L 128 241 L 126 241 L 125 240 L 125 236 L 127 229 L 131 223 L 130 219 L 128 218 L 122 218 L 121 217 L 111 217 L 110 215 L 118 208 L 126 205 L 141 204 L 142 205 L 147 205 Z M 403 276 L 396 301 L 385 308 L 375 322 L 359 324 L 339 339 L 317 338 L 297 348 L 266 344 L 249 349 L 227 341 L 200 344 L 183 334 L 164 333 L 151 322 L 134 318 L 123 305 L 114 300 L 107 282 L 109 269 L 117 262 L 124 249 L 137 244 L 149 231 L 168 225 L 183 207 L 219 194 L 234 205 L 247 203 L 254 207 L 263 207 L 273 200 L 277 190 L 328 207 L 342 224 L 363 231 L 374 244 L 387 249 L 395 264 L 402 270 Z M 336 192 L 342 189 L 345 189 L 346 188 L 348 189 L 352 187 L 355 187 L 359 189 L 364 188 L 372 192 L 376 197 L 375 198 L 368 198 L 367 199 L 357 200 L 352 202 L 352 206 L 355 210 L 360 222 L 359 224 L 357 224 L 345 218 L 337 209 L 333 200 L 333 196 Z M 147 188 L 150 188 L 151 189 L 156 187 L 166 188 L 176 192 L 179 196 L 178 202 L 174 210 L 165 219 L 157 223 L 153 223 L 152 220 L 155 214 L 155 212 L 160 205 L 160 203 L 158 201 L 151 199 L 136 198 L 135 197 L 139 192 Z M 280 182 L 286 180 L 300 180 L 327 190 L 328 191 L 326 198 L 324 199 L 281 184 Z M 322 180 L 323 179 L 336 179 L 338 183 L 336 185 L 331 185 L 328 183 L 323 182 Z M 219 180 L 219 187 L 218 188 L 194 196 L 191 198 L 188 198 L 187 199 L 185 198 L 185 194 L 184 193 L 185 190 L 214 179 L 218 179 Z M 174 183 L 176 179 L 188 179 L 189 180 L 188 182 L 180 185 L 176 185 Z M 230 167 L 232 167 L 236 171 L 238 175 L 237 185 L 238 186 L 239 193 L 241 196 L 240 198 L 234 198 L 232 197 L 228 193 L 226 188 L 226 175 Z M 373 168 L 376 166 L 389 165 L 390 164 L 413 164 L 414 165 L 422 165 L 423 166 L 434 168 L 439 172 L 439 174 L 438 175 L 433 175 L 427 173 L 413 172 L 412 171 L 385 171 L 384 172 L 376 172 L 374 173 L 373 172 Z M 73 173 L 73 171 L 75 169 L 77 169 L 80 167 L 84 167 L 89 165 L 95 165 L 96 164 L 125 164 L 126 165 L 137 166 L 139 168 L 139 171 L 138 172 L 130 172 L 129 171 L 97 171 L 96 172 L 89 172 L 88 173 L 83 173 L 75 175 Z M 277 167 L 278 166 L 290 165 L 291 164 L 335 163 L 337 166 L 338 171 L 337 172 L 289 173 L 288 174 L 280 174 L 278 175 L 277 174 Z M 174 171 L 175 166 L 177 163 L 207 163 L 208 164 L 222 164 L 223 165 L 221 171 L 219 173 L 210 173 L 209 172 L 175 172 Z M 170 157 L 171 160 L 168 167 L 168 180 L 165 182 L 163 181 L 160 177 L 160 166 L 163 159 L 165 157 Z M 342 155 L 345 155 L 350 160 L 352 165 L 352 178 L 351 180 L 348 182 L 346 182 L 344 180 L 344 167 L 343 166 L 343 163 L 340 159 L 340 157 Z M 357 154 L 361 155 L 366 162 L 367 174 L 366 175 L 366 178 L 363 182 L 360 182 L 358 180 L 359 168 L 358 167 L 357 160 L 355 157 Z M 155 154 L 157 157 L 155 160 L 153 167 L 153 177 L 154 180 L 152 182 L 150 182 L 146 178 L 145 167 L 148 158 L 151 155 Z M 228 149 L 233 148 L 238 150 L 250 161 L 257 173 L 259 179 L 259 187 L 263 190 L 265 189 L 269 189 L 270 190 L 270 192 L 266 198 L 263 200 L 258 201 L 252 199 L 247 194 L 244 186 L 245 176 L 242 168 L 240 165 L 234 160 L 224 157 L 225 152 Z M 269 149 L 272 147 L 281 148 L 287 153 L 288 157 L 284 159 L 275 160 Z M 247 146 L 249 145 L 255 146 L 258 148 L 266 157 L 271 169 L 271 177 L 268 182 L 265 181 L 265 177 L 259 163 L 254 156 L 246 148 Z M 440 146 L 440 148 L 438 150 L 430 154 L 413 159 L 410 159 L 409 158 L 410 156 L 422 149 L 437 144 Z M 72 146 L 74 144 L 76 144 L 91 149 L 94 152 L 103 156 L 104 158 L 101 159 L 100 158 L 95 158 L 91 156 L 85 155 L 74 150 L 72 148 Z M 428 133 L 426 137 L 420 143 L 405 152 L 378 161 L 373 161 L 371 157 L 374 155 L 391 150 L 410 141 L 424 131 L 426 131 Z M 84 132 L 87 130 L 101 140 L 122 150 L 130 152 L 136 155 L 139 155 L 141 158 L 139 161 L 135 161 L 110 153 L 95 145 L 87 138 Z" fill="#B88A44" fill-rule="evenodd"/>
</svg>
