<svg xmlns="http://www.w3.org/2000/svg" viewBox="0 0 512 512" >
  <path d="M 263 372 L 263 375 L 266 376 L 275 369 L 278 369 L 291 378 L 294 377 L 294 374 L 277 362 Z M 379 354 L 376 356 L 375 359 L 378 363 L 382 363 L 385 358 L 383 355 Z M 263 359 L 264 362 L 267 362 L 277 355 L 286 362 L 289 362 L 290 361 L 290 358 L 277 349 Z M 302 355 L 302 358 L 304 359 L 312 353 L 318 351 L 322 353 L 333 363 L 338 365 L 343 364 L 349 357 L 347 354 L 345 354 L 341 359 L 336 359 L 324 348 L 318 346 L 311 348 Z M 301 372 L 303 376 L 306 376 L 307 370 L 309 368 L 320 366 L 328 372 L 332 380 L 342 381 L 350 379 L 361 367 L 362 372 L 365 374 L 403 374 L 404 383 L 408 385 L 410 377 L 418 382 L 424 383 L 431 380 L 449 367 L 428 352 L 421 351 L 410 357 L 409 350 L 405 349 L 403 368 L 368 368 L 367 346 L 364 345 L 362 347 L 362 361 L 357 363 L 347 375 L 335 375 L 332 369 L 326 363 L 320 361 L 307 363 L 302 368 Z M 421 356 L 427 357 L 438 366 L 438 368 L 427 377 L 421 378 L 417 376 L 410 368 L 411 364 L 417 358 Z M 256 378 L 244 367 L 244 361 L 251 360 L 252 356 L 244 354 L 242 345 L 239 346 L 239 354 L 230 357 L 231 360 L 239 361 L 238 366 L 211 366 L 208 360 L 200 355 L 192 358 L 188 366 L 162 366 L 161 357 L 170 355 L 170 351 L 148 351 L 146 353 L 148 356 L 156 357 L 155 366 L 129 366 L 126 350 L 123 351 L 122 366 L 119 365 L 118 350 L 114 352 L 113 366 L 110 362 L 109 350 L 106 351 L 105 356 L 95 351 L 87 351 L 66 365 L 67 369 L 88 382 L 96 382 L 105 375 L 107 385 L 111 382 L 112 371 L 114 372 L 114 383 L 119 384 L 119 372 L 122 371 L 123 384 L 126 385 L 129 371 L 192 371 L 197 361 L 205 365 L 206 371 L 241 371 L 252 380 Z M 91 355 L 97 357 L 105 366 L 101 372 L 95 377 L 88 377 L 76 367 L 76 366 L 86 357 Z M 181 354 L 182 357 L 185 357 L 191 350 L 196 348 L 203 348 L 207 350 L 214 357 L 216 357 L 218 355 L 213 348 L 203 343 L 195 343 L 188 346 Z M 158 337 L 154 340 L 154 344 L 156 346 L 161 346 L 163 344 L 163 340 Z M 226 319 L 227 322 L 231 322 L 240 315 L 245 314 L 257 323 L 259 323 L 261 321 L 260 318 L 257 317 L 243 307 Z M 378 303 L 375 308 L 377 311 L 381 312 L 384 310 L 385 307 L 382 303 Z M 66 313 L 66 317 L 71 318 L 88 330 L 96 330 L 105 323 L 105 331 L 107 333 L 110 332 L 110 322 L 112 319 L 114 320 L 114 331 L 116 333 L 119 332 L 120 319 L 123 320 L 123 332 L 127 333 L 129 319 L 193 319 L 197 309 L 202 309 L 207 319 L 215 318 L 215 315 L 210 312 L 208 307 L 201 303 L 194 305 L 189 314 L 162 314 L 161 305 L 168 304 L 171 301 L 170 299 L 164 298 L 147 299 L 148 304 L 156 305 L 155 314 L 129 314 L 127 298 L 123 299 L 122 314 L 119 313 L 118 298 L 114 300 L 113 314 L 111 313 L 111 300 L 109 298 L 106 299 L 105 304 L 96 299 L 87 299 Z M 91 303 L 98 306 L 105 314 L 98 323 L 92 326 L 85 323 L 76 315 L 76 314 L 86 305 Z M 268 302 L 270 307 L 277 300 L 284 304 L 278 314 L 279 320 L 284 323 L 296 320 L 310 308 L 317 306 L 321 313 L 315 323 L 316 327 L 324 320 L 326 322 L 345 322 L 347 326 L 352 322 L 403 322 L 404 331 L 408 333 L 410 325 L 417 330 L 426 331 L 449 316 L 424 299 L 418 300 L 410 306 L 409 298 L 405 297 L 403 317 L 352 317 L 352 314 L 363 309 L 366 297 L 362 295 L 360 304 L 352 309 L 351 293 L 348 290 L 345 294 L 346 306 L 344 309 L 336 304 L 336 297 L 331 296 L 332 307 L 337 312 L 345 314 L 345 317 L 326 317 L 324 305 L 313 301 L 291 317 L 285 318 L 283 315 L 287 311 L 289 303 L 284 297 L 276 295 Z M 422 304 L 428 306 L 438 314 L 438 316 L 435 319 L 425 326 L 420 326 L 418 325 L 410 317 L 410 314 L 416 307 Z M 182 301 L 182 304 L 185 305 L 190 299 L 195 296 L 204 296 L 207 297 L 215 305 L 218 304 L 217 299 L 213 295 L 206 291 L 202 291 L 201 290 L 194 291 L 188 294 Z M 229 305 L 230 307 L 232 308 L 240 302 L 245 301 L 254 308 L 257 306 L 256 303 L 246 295 L 246 289 L 245 288 L 242 288 L 241 289 L 241 295 Z M 157 285 L 154 288 L 154 292 L 156 294 L 161 294 L 163 291 L 163 288 L 160 285 Z M 378 250 L 375 253 L 375 255 L 377 258 L 381 259 L 384 257 L 385 254 L 382 250 Z M 66 261 L 67 265 L 91 279 L 105 272 L 107 281 L 110 280 L 110 269 L 112 267 L 114 268 L 114 279 L 119 280 L 119 268 L 122 267 L 123 280 L 126 281 L 129 267 L 190 267 L 197 256 L 204 259 L 207 267 L 253 267 L 260 273 L 264 273 L 264 270 L 254 262 L 211 262 L 202 251 L 192 253 L 187 262 L 162 262 L 161 252 L 169 251 L 171 249 L 169 246 L 148 246 L 146 248 L 148 251 L 156 252 L 156 260 L 153 262 L 129 262 L 127 246 L 123 247 L 122 261 L 119 260 L 118 246 L 114 248 L 113 261 L 110 257 L 109 246 L 106 247 L 105 253 L 96 247 L 87 247 Z M 90 251 L 93 251 L 97 253 L 105 262 L 101 268 L 97 272 L 93 274 L 86 272 L 76 263 L 81 257 Z M 266 249 L 276 259 L 277 267 L 283 271 L 288 270 L 295 264 L 305 271 L 316 264 L 324 271 L 332 269 L 403 269 L 406 281 L 409 280 L 410 273 L 420 279 L 425 279 L 449 263 L 424 247 L 410 253 L 409 245 L 406 244 L 404 246 L 403 264 L 366 264 L 364 240 L 360 242 L 359 264 L 354 263 L 353 240 L 349 242 L 348 264 L 343 263 L 343 242 L 341 240 L 338 242 L 337 264 L 325 265 L 319 258 L 315 258 L 306 265 L 298 258 L 294 258 L 284 266 L 281 261 L 295 250 L 292 246 L 280 255 L 269 247 Z M 421 252 L 427 253 L 438 262 L 438 264 L 425 274 L 420 274 L 418 273 L 410 265 L 410 262 L 413 258 Z M 230 253 L 232 256 L 251 256 L 253 254 L 251 251 L 245 251 L 244 250 L 244 241 L 242 239 L 239 241 L 239 250 L 238 251 L 232 251 Z M 295 242 L 295 244 L 297 246 L 299 245 L 303 240 L 308 240 L 312 245 L 313 248 L 317 252 L 322 254 L 327 253 L 331 250 L 330 247 L 320 248 L 317 245 L 313 238 L 309 235 L 301 235 L 297 238 Z M 183 244 L 184 249 L 187 251 L 195 248 L 202 248 L 203 247 L 203 244 L 196 244 L 193 246 L 190 246 L 189 244 L 194 240 L 203 240 L 208 243 L 213 251 L 216 249 L 216 246 L 213 241 L 209 237 L 204 235 L 193 235 L 187 238 Z M 156 233 L 154 235 L 154 239 L 157 242 L 160 242 L 163 239 L 163 236 L 161 233 Z M 264 215 L 264 217 L 267 219 L 276 212 L 279 211 L 291 220 L 295 220 L 296 219 L 296 217 L 294 215 L 291 214 L 279 205 L 274 207 Z M 380 197 L 377 198 L 375 201 L 376 205 L 380 207 L 382 206 L 385 202 L 384 199 Z M 265 201 L 265 204 L 268 205 L 277 198 L 279 198 L 288 205 L 290 205 L 292 203 L 288 198 L 279 192 L 275 193 Z M 302 197 L 303 201 L 306 201 L 310 195 L 314 195 L 318 198 L 318 201 L 312 208 L 312 213 L 316 217 L 323 217 L 335 208 L 340 208 L 345 217 L 355 217 L 359 214 L 362 214 L 364 217 L 403 217 L 404 227 L 406 229 L 409 228 L 410 220 L 416 225 L 423 227 L 431 224 L 440 216 L 449 211 L 447 208 L 441 206 L 426 195 L 417 196 L 410 201 L 408 192 L 404 194 L 403 212 L 369 212 L 368 190 L 366 188 L 362 190 L 362 204 L 354 212 L 348 212 L 346 207 L 341 203 L 334 203 L 324 211 L 318 212 L 317 210 L 323 202 L 323 197 L 315 190 L 305 192 Z M 410 209 L 418 201 L 420 200 L 426 200 L 438 209 L 439 211 L 428 220 L 422 222 L 419 221 L 413 216 L 410 212 Z M 257 222 L 245 210 L 245 204 L 254 201 L 245 197 L 244 188 L 240 189 L 239 198 L 231 200 L 232 203 L 240 204 L 239 209 L 212 209 L 206 200 L 199 198 L 193 201 L 189 209 L 162 209 L 161 200 L 169 199 L 171 197 L 169 194 L 146 196 L 148 199 L 156 200 L 155 209 L 129 209 L 126 193 L 123 195 L 122 209 L 119 208 L 119 194 L 114 195 L 114 208 L 112 209 L 111 196 L 108 193 L 105 201 L 97 195 L 89 194 L 65 210 L 88 226 L 95 226 L 105 219 L 108 229 L 111 226 L 112 214 L 114 227 L 116 229 L 119 227 L 119 215 L 122 214 L 123 227 L 126 229 L 129 214 L 193 214 L 198 204 L 205 207 L 207 214 L 242 214 L 254 224 Z M 89 199 L 94 199 L 96 200 L 105 209 L 105 211 L 94 221 L 89 221 L 76 211 L 76 209 L 79 206 Z M 182 196 L 182 199 L 183 200 L 186 200 L 192 193 L 196 191 L 204 191 L 207 192 L 215 200 L 217 200 L 219 198 L 217 194 L 213 190 L 205 186 L 195 186 L 192 187 L 186 191 Z M 158 180 L 154 183 L 154 187 L 156 189 L 161 189 L 163 186 L 163 183 Z M 379 145 L 375 149 L 375 151 L 378 155 L 382 155 L 385 150 L 381 145 Z M 65 158 L 66 161 L 89 175 L 97 174 L 105 168 L 108 178 L 111 175 L 110 166 L 112 163 L 114 164 L 114 176 L 116 178 L 119 176 L 119 164 L 122 163 L 123 176 L 126 178 L 129 163 L 192 163 L 198 152 L 205 157 L 206 163 L 250 163 L 259 170 L 264 168 L 252 158 L 211 158 L 202 147 L 194 148 L 188 158 L 162 158 L 161 148 L 169 147 L 171 145 L 169 142 L 148 142 L 146 144 L 148 147 L 156 148 L 155 158 L 129 158 L 126 142 L 123 143 L 122 158 L 119 157 L 118 142 L 114 144 L 113 158 L 110 154 L 111 145 L 109 142 L 106 143 L 105 150 L 98 144 L 87 143 Z M 88 148 L 95 148 L 99 151 L 105 158 L 103 162 L 94 170 L 89 170 L 76 160 L 76 158 Z M 230 149 L 232 152 L 251 152 L 253 150 L 252 147 L 245 147 L 244 146 L 244 136 L 243 135 L 240 135 L 239 136 L 239 146 L 238 147 L 232 147 Z M 265 140 L 265 143 L 276 152 L 276 160 L 281 165 L 287 165 L 296 158 L 305 165 L 310 165 L 319 158 L 326 166 L 344 166 L 347 170 L 352 166 L 403 166 L 404 175 L 407 178 L 410 169 L 419 175 L 426 175 L 449 160 L 448 157 L 427 144 L 419 144 L 410 150 L 408 140 L 404 142 L 403 160 L 352 160 L 352 157 L 364 151 L 366 138 L 362 137 L 360 147 L 356 151 L 352 151 L 349 132 L 345 134 L 344 151 L 340 151 L 336 147 L 335 138 L 330 139 L 332 151 L 338 156 L 344 157 L 344 160 L 327 160 L 319 151 L 308 159 L 296 151 L 283 160 L 281 153 L 295 139 L 290 138 L 280 147 L 269 139 Z M 409 159 L 419 149 L 426 149 L 438 158 L 439 160 L 426 170 L 419 170 Z M 182 144 L 182 148 L 185 149 L 189 142 L 193 138 L 199 137 L 205 140 L 214 149 L 217 148 L 217 145 L 211 138 L 207 135 L 200 132 L 194 132 L 190 134 L 185 139 Z M 156 127 L 154 129 L 155 135 L 156 136 L 162 135 L 163 133 L 162 128 L 161 127 Z" fill="#B88A44" fill-rule="evenodd"/>
</svg>
