<svg xmlns="http://www.w3.org/2000/svg" viewBox="0 0 512 512" >
  <path d="M 258 306 L 252 307 L 249 311 L 250 316 L 255 320 L 259 319 L 262 316 L 262 310 L 261 308 Z M 253 312 L 255 310 L 257 310 L 258 311 L 258 314 L 257 315 L 254 315 Z M 316 243 L 314 244 L 312 247 L 312 252 L 313 254 L 316 256 L 321 256 L 325 252 L 325 247 L 321 243 Z M 316 248 L 317 247 L 320 247 L 321 248 L 321 251 L 320 252 L 317 252 L 316 251 Z M 190 243 L 187 246 L 186 251 L 190 256 L 195 256 L 198 254 L 200 250 L 199 246 L 195 243 Z M 190 248 L 191 247 L 194 247 L 196 250 L 194 252 L 191 252 L 190 251 Z M 259 238 L 250 239 L 246 242 L 242 249 L 242 254 L 244 259 L 249 264 L 255 266 L 264 263 L 269 256 L 269 248 L 267 244 L 263 240 Z M 253 243 L 258 243 L 260 244 L 264 248 L 265 251 L 263 257 L 260 260 L 257 261 L 252 260 L 247 255 L 247 249 L 248 247 Z M 205 200 L 204 301 L 306 302 L 307 201 Z M 259 295 L 271 277 L 302 277 L 303 278 L 303 297 L 302 298 L 260 298 Z M 246 278 L 247 277 L 264 277 L 265 280 L 259 289 L 255 292 L 247 281 Z M 208 278 L 209 277 L 240 277 L 250 291 L 253 297 L 252 298 L 209 298 L 208 297 Z M 274 272 L 283 258 L 286 256 L 297 273 L 296 274 L 275 274 Z M 215 271 L 224 257 L 226 256 L 235 268 L 237 273 L 236 274 L 216 274 Z M 301 231 L 303 232 L 303 270 L 302 271 L 299 269 L 288 252 L 288 250 Z M 209 231 L 212 233 L 223 250 L 222 254 L 210 272 L 208 271 L 208 232 Z M 275 230 L 276 229 L 295 229 L 296 232 L 290 240 L 287 246 L 285 247 L 275 232 Z M 243 229 L 268 229 L 271 232 L 282 249 L 281 255 L 268 274 L 243 274 L 229 253 L 229 249 L 239 235 L 240 232 Z M 215 230 L 216 229 L 235 229 L 236 232 L 229 243 L 225 246 L 219 238 Z M 255 209 L 258 211 L 259 214 L 265 222 L 264 225 L 247 225 L 246 224 Z M 259 205 L 260 204 L 302 204 L 303 205 L 303 224 L 302 225 L 271 225 L 259 207 Z M 208 224 L 208 205 L 209 204 L 252 204 L 253 205 L 240 225 L 209 225 Z M 254 180 L 250 183 L 249 188 L 253 193 L 259 193 L 262 190 L 262 184 L 260 181 Z M 253 186 L 255 184 L 257 184 L 258 185 L 258 188 L 257 189 L 254 189 Z M 254 46 L 246 53 L 254 80 L 238 83 L 254 93 L 232 96 L 253 99 L 253 117 L 237 106 L 223 109 L 224 129 L 176 155 L 138 215 L 117 210 L 111 229 L 122 247 L 102 246 L 100 223 L 96 247 L 85 230 L 83 247 L 55 238 L 47 252 L 59 260 L 83 251 L 88 268 L 89 252 L 97 251 L 101 274 L 103 252 L 122 251 L 113 283 L 122 290 L 138 283 L 177 344 L 225 369 L 224 391 L 254 383 L 253 401 L 232 404 L 254 407 L 238 417 L 254 420 L 246 448 L 257 455 L 266 448 L 258 420 L 274 417 L 258 407 L 280 404 L 259 401 L 258 384 L 288 391 L 287 369 L 332 346 L 373 283 L 396 286 L 400 268 L 390 251 L 408 251 L 413 274 L 415 251 L 426 268 L 428 251 L 455 260 L 464 245 L 452 238 L 428 247 L 423 230 L 422 246 L 415 247 L 411 223 L 409 246 L 390 247 L 400 230 L 397 213 L 381 208 L 373 215 L 348 168 L 289 129 L 291 109 L 278 105 L 258 115 L 260 99 L 280 96 L 258 93 L 274 83 L 258 80 L 266 53 Z M 255 438 L 259 439 L 262 443 L 261 447 L 257 450 L 253 449 L 250 445 L 251 441 Z M 260 373 L 261 372 L 277 371 L 278 372 L 276 376 L 277 382 L 279 383 L 281 382 L 281 377 L 283 375 L 285 375 L 288 378 L 289 381 L 288 384 L 284 388 L 276 389 L 271 387 L 263 379 Z M 223 381 L 224 378 L 227 375 L 229 375 L 231 377 L 231 382 L 232 383 L 235 382 L 236 380 L 236 376 L 234 373 L 235 371 L 250 372 L 251 373 L 251 376 L 249 379 L 241 387 L 236 389 L 228 388 L 224 384 Z M 335 335 L 335 336 L 324 346 L 315 352 L 301 359 L 290 363 L 287 363 L 278 366 L 274 366 L 273 367 L 264 367 L 262 368 L 258 366 L 262 359 L 271 353 L 276 351 L 284 344 L 288 337 L 288 334 L 289 333 L 294 336 L 302 337 L 303 338 L 305 337 L 310 337 L 325 332 L 330 332 Z M 176 335 L 181 332 L 187 332 L 201 337 L 209 338 L 210 337 L 217 336 L 220 334 L 223 334 L 226 342 L 233 349 L 247 357 L 253 363 L 253 366 L 251 368 L 248 367 L 239 367 L 238 366 L 225 364 L 210 359 L 190 348 L 182 342 Z M 227 328 L 229 327 L 237 330 L 249 331 L 250 332 L 262 332 L 263 331 L 270 331 L 283 327 L 285 329 L 285 332 L 283 338 L 277 345 L 264 352 L 260 355 L 257 359 L 255 359 L 249 353 L 236 346 L 230 340 L 227 333 Z M 331 284 L 334 287 L 337 293 L 337 303 L 335 307 L 335 310 L 331 322 L 332 327 L 331 328 L 319 329 L 309 333 L 298 333 L 292 330 L 289 327 L 289 325 L 291 323 L 293 323 L 310 311 L 320 300 L 326 291 L 328 286 Z M 180 284 L 183 285 L 189 297 L 200 310 L 210 318 L 223 325 L 218 331 L 213 333 L 203 333 L 192 329 L 181 328 L 180 327 L 179 317 L 174 301 L 175 291 Z M 378 253 L 385 256 L 393 264 L 395 268 L 395 272 L 396 273 L 395 278 L 393 282 L 389 285 L 383 285 L 379 281 L 379 278 L 381 275 L 387 276 L 389 273 L 385 270 L 380 270 L 379 271 L 376 270 L 377 254 Z M 133 253 L 134 254 L 134 261 L 135 262 L 135 269 L 136 271 L 135 272 L 130 270 L 124 271 L 122 274 L 124 276 L 130 275 L 132 277 L 132 281 L 128 285 L 122 285 L 118 282 L 116 278 L 116 269 L 117 266 L 126 256 Z M 371 252 L 372 253 L 372 265 L 371 266 L 368 283 L 363 297 L 352 317 L 345 326 L 338 332 L 336 329 L 336 319 L 341 304 L 341 292 L 337 284 L 338 283 L 342 283 L 349 279 L 357 269 L 363 257 L 367 253 Z M 140 252 L 144 253 L 148 257 L 152 263 L 156 272 L 162 279 L 169 283 L 173 283 L 174 284 L 170 293 L 170 303 L 175 318 L 175 329 L 173 332 L 167 327 L 160 318 L 149 299 L 149 297 L 144 286 L 144 283 L 142 279 L 141 271 L 140 270 L 140 264 L 139 263 L 139 253 Z M 452 243 L 455 243 L 459 246 L 459 252 L 455 255 L 450 254 L 448 251 L 448 247 Z M 56 243 L 61 244 L 63 247 L 63 251 L 62 253 L 59 255 L 56 255 L 52 252 L 52 246 Z M 332 219 L 340 219 L 344 221 L 351 228 L 357 240 L 364 248 L 364 250 L 356 260 L 352 269 L 346 276 L 341 279 L 333 279 L 332 278 L 335 268 L 336 252 L 337 251 L 336 248 L 336 237 L 335 236 L 334 228 L 331 221 Z M 171 219 L 179 219 L 180 220 L 175 237 L 175 247 L 174 248 L 175 262 L 176 263 L 177 271 L 179 275 L 179 278 L 178 279 L 171 279 L 164 275 L 159 269 L 152 255 L 147 250 L 147 248 L 154 240 L 160 228 L 167 221 Z M 389 213 L 394 217 L 396 224 L 395 230 L 393 234 L 385 242 L 378 245 L 377 244 L 377 237 L 376 236 L 376 229 L 375 227 L 377 226 L 379 228 L 386 228 L 389 224 L 387 222 L 381 223 L 379 221 L 379 217 L 382 213 Z M 125 212 L 129 213 L 132 216 L 132 221 L 129 224 L 124 222 L 122 225 L 125 228 L 132 228 L 134 226 L 136 227 L 135 230 L 135 238 L 133 245 L 125 241 L 118 234 L 116 229 L 116 220 L 118 216 L 120 214 Z M 247 172 L 274 174 L 290 180 L 306 191 L 322 211 L 329 227 L 332 243 L 332 256 L 329 273 L 323 287 L 314 300 L 294 317 L 284 322 L 266 327 L 246 327 L 236 325 L 219 318 L 205 308 L 190 290 L 183 275 L 179 257 L 179 243 L 182 228 L 188 213 L 196 201 L 210 187 L 221 180 Z M 338 166 L 343 170 L 356 188 L 364 204 L 369 219 L 371 234 L 372 235 L 372 246 L 371 247 L 368 246 L 363 241 L 352 222 L 346 217 L 338 214 L 338 212 L 341 206 L 341 195 L 335 176 L 336 169 Z M 173 166 L 175 168 L 175 171 L 176 172 L 176 179 L 171 194 L 170 203 L 171 204 L 171 208 L 174 214 L 165 217 L 157 225 L 149 240 L 143 246 L 140 247 L 139 246 L 139 236 L 140 235 L 141 224 L 148 202 L 155 188 L 161 179 L 169 169 Z M 294 167 L 300 165 L 305 165 L 320 170 L 324 170 L 325 171 L 331 170 L 332 171 L 331 177 L 337 196 L 337 205 L 335 210 L 330 215 L 328 214 L 325 207 L 318 197 L 306 185 L 296 178 L 288 174 Z M 220 169 L 223 174 L 205 185 L 193 197 L 185 209 L 183 214 L 181 215 L 177 211 L 175 207 L 175 195 L 180 181 L 180 172 L 181 171 L 186 171 L 187 170 L 195 169 L 198 167 L 206 166 L 207 165 L 215 166 Z M 227 165 L 229 160 L 233 155 L 251 144 L 255 140 L 257 140 L 262 145 L 276 153 L 282 159 L 284 163 L 284 171 L 281 172 L 269 168 L 251 167 L 250 168 L 238 169 L 228 172 L 227 171 Z M 258 132 L 259 131 L 269 131 L 270 132 L 281 133 L 298 138 L 311 144 L 325 153 L 335 162 L 335 164 L 332 166 L 322 166 L 308 161 L 298 161 L 289 165 L 285 156 L 278 149 L 264 141 L 260 137 Z M 254 132 L 252 137 L 249 140 L 240 145 L 229 153 L 226 157 L 223 165 L 221 165 L 213 161 L 205 161 L 184 167 L 183 166 L 179 166 L 176 163 L 179 159 L 192 149 L 216 137 L 230 133 L 242 132 L 243 131 L 253 131 Z M 224 116 L 230 111 L 236 111 L 244 115 L 250 122 L 251 125 L 250 126 L 236 127 L 235 126 L 236 119 L 233 116 L 230 118 L 231 122 L 229 124 L 227 124 L 224 121 Z M 290 117 L 289 122 L 287 124 L 283 124 L 281 122 L 281 117 L 279 116 L 277 117 L 276 119 L 276 124 L 277 125 L 276 127 L 269 127 L 268 126 L 262 126 L 261 125 L 264 119 L 269 114 L 274 111 L 277 111 L 278 110 L 285 111 Z M 254 51 L 258 51 L 262 56 L 261 60 L 258 62 L 254 62 L 252 61 L 250 58 L 251 54 Z" fill="#B88A44" fill-rule="evenodd"/>
</svg>
