<svg xmlns="http://www.w3.org/2000/svg" viewBox="0 0 512 512" >
  <path d="M 254 239 L 250 244 L 250 249 L 253 252 L 256 252 L 259 249 L 259 244 L 258 242 Z M 254 243 L 257 244 L 257 248 L 255 250 L 252 248 L 252 245 Z M 244 191 L 245 192 L 248 192 L 249 193 L 248 195 L 251 198 L 258 198 L 261 196 L 261 193 L 266 190 L 265 189 L 263 190 L 260 190 L 259 189 L 257 190 L 253 190 L 252 189 L 247 190 L 245 189 Z M 249 193 L 250 192 L 253 193 L 259 192 L 260 194 L 258 196 L 252 196 L 250 195 Z M 306 166 L 306 167 L 308 168 L 312 168 L 315 172 L 318 172 L 320 169 L 322 169 L 322 165 L 319 161 L 313 161 L 311 162 L 308 166 Z M 311 164 L 312 163 L 319 163 L 320 165 L 319 166 L 312 166 Z M 187 169 L 189 169 L 192 172 L 194 172 L 197 168 L 202 168 L 204 166 L 201 166 L 200 164 L 196 161 L 191 161 L 189 162 Z M 190 164 L 192 162 L 197 163 L 198 165 L 197 166 L 191 166 Z M 262 168 L 263 169 L 266 168 L 269 171 L 273 171 L 277 166 L 281 166 L 283 165 L 283 164 L 281 164 L 278 160 L 274 158 L 270 158 L 267 159 L 263 163 Z M 266 162 L 269 160 L 274 160 L 276 161 L 277 163 L 271 165 L 270 164 L 267 164 Z M 226 164 L 228 166 L 232 166 L 234 169 L 237 171 L 240 171 L 243 168 L 247 169 L 246 162 L 243 159 L 240 158 L 233 159 L 229 164 Z M 232 162 L 236 160 L 241 160 L 243 161 L 244 163 L 237 165 L 236 164 L 233 164 Z M 226 154 L 226 156 L 227 156 L 231 153 L 240 153 L 249 159 L 250 168 L 251 169 L 251 178 L 247 180 L 247 184 L 248 185 L 251 185 L 254 187 L 256 187 L 258 185 L 261 185 L 263 183 L 262 179 L 261 179 L 261 182 L 260 183 L 254 184 L 252 182 L 252 179 L 253 178 L 252 161 L 250 158 L 250 156 L 245 151 L 240 149 L 233 149 Z M 255 138 L 251 144 L 251 150 L 253 152 L 257 152 L 259 149 L 259 145 Z M 254 144 L 257 146 L 257 148 L 255 150 L 253 149 L 253 145 Z M 254 40 L 228 97 L 212 63 L 192 111 L 181 106 L 176 184 L 190 207 L 207 212 L 175 233 L 155 273 L 132 236 L 131 187 L 142 175 L 135 135 L 115 166 L 120 190 L 102 212 L 107 249 L 140 312 L 121 317 L 96 271 L 70 317 L 78 334 L 103 347 L 168 337 L 200 283 L 208 318 L 194 344 L 144 346 L 122 360 L 115 406 L 126 426 L 109 456 L 224 467 L 399 457 L 383 425 L 395 394 L 381 352 L 410 360 L 425 336 L 420 317 L 439 312 L 443 289 L 432 276 L 404 275 L 393 286 L 395 310 L 412 317 L 388 323 L 368 313 L 403 249 L 409 205 L 389 167 L 363 151 L 358 187 L 379 235 L 354 274 L 333 232 L 303 214 L 333 185 L 329 107 L 318 112 L 298 63 L 281 96 Z M 112 446 L 118 442 L 122 446 L 136 449 L 201 454 L 308 454 L 367 450 L 384 447 L 393 442 L 397 445 L 398 453 L 382 458 L 343 462 L 214 464 L 167 462 L 122 457 L 112 454 Z M 122 435 L 126 434 L 161 440 L 201 442 L 309 442 L 359 439 L 387 434 L 388 442 L 369 447 L 337 450 L 196 451 L 130 445 L 122 442 Z M 127 430 L 131 427 L 139 430 L 163 433 L 205 435 L 329 434 L 364 431 L 379 427 L 383 431 L 368 435 L 338 438 L 230 440 L 158 437 L 130 433 Z M 324 416 L 327 422 L 326 426 L 324 429 L 321 431 L 314 431 L 313 429 L 315 422 L 322 416 Z M 186 416 L 190 417 L 195 422 L 197 429 L 196 431 L 189 431 L 186 429 L 183 423 Z M 361 415 L 365 420 L 364 426 L 362 428 L 352 429 L 351 426 L 353 421 Z M 281 415 L 286 420 L 288 424 L 287 430 L 285 432 L 272 432 L 271 431 L 271 425 L 273 421 Z M 229 415 L 238 423 L 239 425 L 239 431 L 238 432 L 225 432 L 223 430 L 222 424 L 224 420 Z M 149 415 L 157 421 L 159 426 L 158 429 L 152 429 L 151 428 L 148 428 L 146 426 L 145 420 Z M 348 417 L 350 423 L 346 429 L 344 430 L 332 430 L 331 431 L 328 431 L 327 430 L 329 424 L 334 419 L 343 413 Z M 303 413 L 310 420 L 312 424 L 311 429 L 308 432 L 291 432 L 290 431 L 290 427 L 292 421 Z M 200 420 L 208 413 L 218 421 L 220 431 L 219 432 L 202 432 L 199 429 L 198 426 Z M 162 417 L 167 413 L 176 419 L 180 423 L 183 428 L 183 430 L 182 431 L 178 431 L 177 430 L 166 430 L 161 426 L 161 419 Z M 241 425 L 243 421 L 247 417 L 254 412 L 256 412 L 267 421 L 269 425 L 269 429 L 267 432 L 243 432 L 241 429 Z M 258 409 L 259 408 L 301 408 L 302 410 L 290 419 L 282 412 L 279 412 L 270 420 L 261 413 Z M 208 409 L 209 408 L 251 408 L 252 410 L 239 420 L 231 412 L 228 412 L 220 419 L 210 412 Z M 304 410 L 305 408 L 322 408 L 323 407 L 326 408 L 327 407 L 343 407 L 344 408 L 341 412 L 338 413 L 330 419 L 328 418 L 324 412 L 322 412 L 314 420 L 313 420 Z M 166 408 L 167 407 L 182 407 L 183 408 L 184 407 L 189 407 L 190 408 L 198 407 L 199 408 L 205 408 L 206 411 L 201 415 L 198 419 L 196 419 L 188 412 L 186 412 L 182 418 L 180 419 L 168 411 Z M 345 408 L 346 407 L 374 406 L 375 407 L 375 410 L 373 417 L 370 421 L 368 421 L 366 416 L 362 411 L 352 418 L 346 411 Z M 135 412 L 135 407 L 136 406 L 164 407 L 165 408 L 164 411 L 158 418 L 148 411 L 144 416 L 142 422 L 138 419 Z M 119 401 L 132 405 L 133 414 L 135 419 L 139 424 L 138 426 L 135 426 L 131 424 L 122 415 L 118 406 L 118 402 Z M 391 400 L 392 401 L 391 409 L 387 416 L 379 424 L 375 426 L 372 426 L 371 424 L 377 414 L 378 405 L 379 404 L 386 403 Z M 267 403 L 266 405 L 250 405 L 249 404 L 250 402 L 259 401 L 260 400 L 263 400 Z M 291 404 L 290 405 L 276 405 L 271 403 L 270 401 L 272 399 L 276 399 L 283 397 L 285 398 L 287 401 L 290 402 Z M 391 394 L 391 396 L 389 398 L 383 401 L 380 401 L 379 402 L 376 401 L 376 400 L 385 392 L 389 392 Z M 287 396 L 297 392 L 301 392 L 309 399 L 316 402 L 317 404 L 316 405 L 304 405 L 303 404 L 299 404 L 293 401 L 291 401 L 287 398 Z M 118 394 L 121 392 L 125 392 L 133 401 L 131 402 L 124 400 L 121 398 Z M 245 376 L 247 381 L 245 393 L 241 401 L 238 404 L 234 405 L 233 403 L 240 393 L 242 387 L 243 377 Z M 240 375 L 241 376 L 240 387 L 234 399 L 226 405 L 215 405 L 214 403 L 222 396 L 228 388 L 232 380 L 233 375 L 234 374 Z M 230 374 L 231 375 L 230 379 L 224 390 L 213 401 L 208 404 L 204 405 L 203 402 L 212 396 L 222 385 L 227 375 Z M 245 399 L 248 392 L 249 379 L 250 378 L 254 378 L 258 380 L 260 379 L 255 375 L 255 373 L 258 371 L 263 371 L 274 375 L 300 374 L 305 376 L 309 380 L 317 382 L 320 385 L 319 388 L 301 388 L 281 395 L 273 396 L 272 397 L 261 397 L 260 398 L 254 398 L 249 400 L 246 400 Z M 225 373 L 225 375 L 222 381 L 217 388 L 206 398 L 197 403 L 190 405 L 181 405 L 180 404 L 181 402 L 187 400 L 200 390 L 207 382 L 214 370 L 220 372 L 224 372 Z M 295 369 L 297 367 L 304 366 L 305 367 L 309 367 L 311 368 L 312 370 L 307 372 L 300 372 L 299 371 L 296 371 Z M 270 363 L 274 361 L 283 360 L 289 365 L 292 366 L 293 368 L 291 372 L 274 372 L 271 367 Z M 260 360 L 262 367 L 254 370 L 251 374 L 248 374 L 246 372 L 248 362 L 249 361 L 256 362 Z M 215 366 L 221 364 L 226 360 L 228 361 L 234 361 L 239 363 L 238 368 L 236 371 L 230 371 L 229 370 L 220 369 L 219 368 L 216 368 Z M 264 358 L 267 360 L 267 363 L 269 367 L 268 369 L 265 369 L 264 368 L 264 365 L 263 364 L 263 359 Z M 246 358 L 247 360 L 246 361 L 245 370 L 243 372 L 241 372 L 240 371 L 240 368 L 243 359 Z M 261 351 L 262 353 L 261 355 L 259 356 L 258 354 L 259 352 Z M 403 349 L 406 351 L 406 359 L 405 360 L 403 359 L 403 355 L 402 354 L 402 350 Z M 305 393 L 306 390 L 310 390 L 324 396 L 339 398 L 353 395 L 363 387 L 345 395 L 327 395 L 320 392 L 323 387 L 322 383 L 311 375 L 312 373 L 321 372 L 317 369 L 318 366 L 334 362 L 344 362 L 359 366 L 351 361 L 343 359 L 344 357 L 353 356 L 352 355 L 343 355 L 332 360 L 314 365 L 312 364 L 321 354 L 335 347 L 351 347 L 369 350 L 379 355 L 387 366 L 388 378 L 382 391 L 374 398 L 362 403 L 343 405 L 326 404 L 313 399 Z M 254 347 L 257 349 L 257 352 L 255 354 L 252 352 L 252 349 Z M 121 376 L 122 367 L 125 361 L 132 354 L 144 349 L 159 347 L 178 348 L 186 352 L 194 360 L 190 361 L 169 355 L 158 355 L 157 356 L 162 359 L 155 362 L 151 366 L 165 361 L 180 361 L 196 365 L 197 367 L 182 383 L 176 387 L 163 392 L 149 392 L 142 389 L 146 393 L 159 395 L 173 391 L 184 384 L 195 373 L 199 366 L 211 370 L 205 381 L 192 394 L 182 400 L 170 404 L 152 404 L 137 399 L 126 389 Z M 407 347 L 408 346 L 415 346 L 416 348 L 415 349 L 408 349 Z M 325 349 L 320 352 L 309 364 L 301 363 L 297 365 L 294 365 L 288 361 L 289 358 L 301 354 L 312 346 L 324 347 Z M 185 348 L 186 347 L 194 347 L 197 346 L 201 350 L 209 355 L 219 358 L 221 361 L 212 366 L 208 366 L 204 364 L 201 364 L 199 363 Z M 258 346 L 260 345 L 262 349 L 260 350 Z M 365 345 L 368 344 L 369 346 L 366 347 Z M 245 344 L 246 347 L 245 348 L 245 351 L 243 352 L 242 351 L 243 345 Z M 359 344 L 362 343 L 363 345 L 360 346 Z M 200 344 L 202 343 L 205 346 L 215 351 L 229 355 L 240 356 L 241 358 L 240 359 L 232 359 L 231 358 L 227 358 L 213 354 L 204 349 Z M 309 343 L 309 345 L 307 347 L 295 354 L 277 359 L 270 359 L 269 358 L 270 356 L 279 355 L 293 351 L 301 347 L 307 342 Z M 263 342 L 264 342 L 267 346 L 267 352 L 266 353 L 264 352 L 264 346 L 262 344 Z M 254 341 L 257 342 L 259 345 L 258 346 L 253 345 L 250 348 L 250 353 L 253 356 L 258 355 L 259 357 L 256 359 L 251 358 L 247 353 L 247 348 L 248 346 Z M 406 341 L 407 340 L 418 340 L 419 342 L 416 344 L 409 344 L 407 343 Z M 135 339 L 137 338 L 138 340 L 136 341 Z M 202 340 L 203 338 L 205 337 L 207 339 L 221 345 L 239 347 L 240 348 L 240 352 L 239 353 L 231 353 L 230 352 L 225 352 L 221 350 L 218 350 L 204 343 Z M 243 337 L 245 336 L 246 338 L 244 339 Z M 250 338 L 255 335 L 259 337 L 260 339 L 259 340 L 256 339 L 251 340 Z M 305 336 L 306 340 L 300 345 L 292 349 L 282 352 L 278 352 L 277 353 L 270 353 L 269 352 L 270 350 L 269 347 L 270 346 L 275 346 L 276 345 L 286 343 L 296 338 L 302 333 L 303 333 Z M 422 333 L 422 335 L 420 337 L 415 337 L 414 338 L 409 338 L 408 337 L 409 334 L 414 334 L 419 332 Z M 205 333 L 207 332 L 214 337 L 224 340 L 238 341 L 240 342 L 241 344 L 240 345 L 233 345 L 232 344 L 227 344 L 226 343 L 218 342 L 208 337 Z M 101 331 L 102 330 L 106 330 L 107 332 L 106 333 L 102 333 Z M 382 327 L 383 330 L 380 335 L 380 339 L 379 340 L 380 345 L 378 346 L 376 342 L 376 337 L 378 331 L 380 328 Z M 302 327 L 301 330 L 295 336 L 288 340 L 274 344 L 269 344 L 268 343 L 269 341 L 280 339 L 286 336 L 288 336 L 296 331 L 300 326 Z M 383 326 L 385 325 L 386 327 L 384 328 Z M 379 323 L 380 325 L 377 328 L 374 334 L 374 342 L 372 343 L 371 342 L 371 333 L 373 328 Z M 423 324 L 423 328 L 417 331 L 411 331 L 410 330 L 411 328 L 417 326 L 420 322 Z M 84 322 L 87 324 L 89 333 L 92 338 L 91 340 L 87 337 L 85 333 L 85 330 L 83 326 L 83 323 Z M 127 328 L 128 336 L 125 341 L 119 343 L 115 343 L 114 344 L 103 344 L 96 341 L 92 334 L 90 326 L 92 325 L 95 328 L 99 335 L 107 337 L 110 333 L 114 331 L 120 331 L 119 329 L 115 329 L 114 328 L 119 321 L 120 321 L 123 325 L 125 325 Z M 416 321 L 413 325 L 405 327 L 403 329 L 403 332 L 401 336 L 398 339 L 391 341 L 391 342 L 397 342 L 398 341 L 400 342 L 400 350 L 399 351 L 390 350 L 382 344 L 382 337 L 384 332 L 387 331 L 393 325 L 401 321 L 410 321 L 411 320 L 415 320 Z M 133 320 L 136 322 L 139 329 L 139 337 L 138 338 L 136 337 L 136 329 L 134 324 L 132 322 Z M 126 320 L 131 324 L 134 332 L 133 339 L 130 343 L 128 342 L 130 338 L 130 329 L 125 322 Z M 75 317 L 77 317 L 80 320 L 80 325 L 82 329 L 81 331 L 79 330 L 74 320 Z M 251 313 L 251 315 L 245 321 L 231 329 L 228 329 L 227 330 L 215 330 L 208 326 L 209 324 L 214 326 L 225 326 L 237 321 L 243 317 L 248 312 Z M 416 310 L 418 311 L 418 316 L 417 317 L 415 316 L 415 311 Z M 420 308 L 421 307 L 426 307 L 428 306 L 432 308 L 434 311 L 430 313 L 425 313 L 423 312 Z M 400 308 L 403 306 L 411 306 L 413 309 L 411 311 L 406 312 L 401 310 Z M 78 309 L 79 306 L 82 303 L 88 305 L 108 305 L 115 303 L 118 308 L 118 313 L 116 320 L 110 327 L 107 328 L 98 328 L 93 322 L 89 322 L 85 319 L 82 319 L 79 315 Z M 247 301 L 249 300 L 251 305 L 254 308 L 255 308 L 259 303 L 260 303 L 261 305 L 260 307 L 254 312 L 249 307 Z M 92 301 L 93 300 L 104 300 L 105 302 L 104 303 L 93 303 Z M 108 300 L 110 299 L 111 301 L 109 302 Z M 85 300 L 88 299 L 89 301 L 86 302 Z M 254 298 L 255 298 L 257 301 L 255 305 L 252 303 L 252 301 Z M 262 295 L 265 294 L 266 295 L 266 298 L 264 299 Z M 242 295 L 245 294 L 246 295 L 246 298 L 243 299 L 242 298 Z M 85 294 L 86 293 L 89 294 L 108 294 L 111 293 L 112 295 L 110 297 L 105 297 L 104 298 L 93 298 L 92 297 L 87 297 Z M 248 298 L 249 296 L 255 291 L 261 298 L 262 302 L 260 303 L 255 295 L 254 295 L 250 300 L 249 300 Z M 437 290 L 438 293 L 435 300 L 432 303 L 428 304 L 427 303 L 427 300 L 430 292 Z M 398 289 L 401 289 L 406 292 L 406 299 L 407 300 L 406 303 L 404 303 L 399 298 L 397 292 Z M 266 290 L 269 289 L 270 292 L 267 293 Z M 240 289 L 242 290 L 242 293 L 241 294 L 238 292 Z M 308 284 L 309 284 L 311 287 L 311 290 L 314 294 L 321 316 L 327 327 L 335 334 L 343 338 L 355 342 L 358 342 L 359 343 L 358 345 L 315 344 L 308 338 L 304 323 L 301 319 L 301 304 L 306 287 Z M 269 284 L 272 283 L 273 286 L 270 287 Z M 236 284 L 239 283 L 240 286 L 237 288 L 236 287 Z M 91 289 L 94 287 L 97 283 L 99 283 L 105 288 L 106 290 L 103 292 L 94 292 L 92 291 Z M 427 281 L 430 281 L 432 285 L 432 289 L 431 290 L 429 290 L 427 288 L 426 282 Z M 322 287 L 329 283 L 339 281 L 340 280 L 343 280 L 345 282 L 351 303 L 342 306 L 343 307 L 345 306 L 353 307 L 366 315 L 374 322 L 368 333 L 368 340 L 367 341 L 363 341 L 343 335 L 334 330 L 328 324 L 322 311 L 317 296 L 317 292 Z M 187 287 L 192 292 L 192 295 L 188 307 L 186 310 L 185 315 L 178 327 L 172 332 L 163 336 L 156 337 L 155 338 L 150 338 L 149 339 L 143 339 L 142 338 L 141 326 L 137 320 L 137 318 L 148 310 L 159 305 L 170 306 L 166 303 L 163 303 L 159 301 L 159 298 L 164 281 L 165 280 L 174 281 Z M 407 279 L 410 283 L 407 288 L 404 289 L 403 288 L 403 284 L 404 281 Z M 417 277 L 421 280 L 426 290 L 426 298 L 424 302 L 420 305 L 414 305 L 409 300 L 408 297 L 409 289 L 412 283 Z M 271 277 L 274 276 L 275 277 L 275 280 L 272 281 L 271 280 Z M 233 278 L 236 276 L 238 278 L 238 280 L 235 281 Z M 344 275 L 343 278 L 332 279 L 320 285 L 316 289 L 314 288 L 314 286 L 318 282 L 327 277 L 333 275 L 337 275 L 338 274 L 343 274 Z M 164 276 L 166 274 L 172 274 L 173 275 L 180 276 L 191 282 L 194 285 L 195 288 L 193 289 L 189 285 L 180 280 L 173 278 L 165 278 Z M 95 275 L 96 274 L 100 274 L 102 276 L 102 279 L 100 281 L 97 281 L 95 279 Z M 347 269 L 349 270 L 351 274 L 349 277 L 348 277 L 346 274 L 346 270 Z M 275 269 L 277 270 L 277 273 L 276 274 L 273 273 L 273 271 Z M 231 271 L 234 269 L 236 271 L 236 273 L 233 274 Z M 343 270 L 340 272 L 335 272 L 323 276 L 318 279 L 314 283 L 312 282 L 312 280 L 317 275 L 324 271 L 334 268 L 342 268 Z M 166 269 L 167 268 L 176 268 L 187 272 L 193 276 L 197 280 L 197 282 L 195 283 L 191 279 L 186 276 L 175 272 L 167 271 Z M 162 268 L 163 269 L 163 273 L 162 276 L 160 277 L 158 274 L 160 269 Z M 230 263 L 232 262 L 234 264 L 234 266 L 231 267 L 230 266 Z M 167 262 L 169 261 L 170 264 L 168 265 Z M 279 256 L 282 259 L 282 261 L 280 266 L 277 268 L 275 266 L 275 264 L 278 262 L 277 257 Z M 261 257 L 255 264 L 253 263 L 252 260 L 249 259 L 250 257 L 253 257 L 254 258 L 256 258 L 259 256 Z M 230 256 L 232 257 L 232 260 L 231 261 L 228 260 L 228 258 Z M 392 259 L 393 260 L 393 263 L 388 278 L 384 285 L 383 289 L 376 300 L 366 310 L 363 310 L 355 305 L 353 302 L 348 281 L 351 279 L 353 286 L 355 287 L 355 280 L 357 276 L 368 264 L 375 254 L 377 254 L 379 256 L 387 259 Z M 343 254 L 344 254 L 346 257 L 346 261 L 345 262 L 343 261 L 343 258 L 342 257 Z M 166 254 L 167 255 L 166 261 L 163 263 L 162 262 L 163 256 Z M 117 259 L 124 258 L 135 254 L 143 266 L 152 276 L 154 280 L 154 287 L 155 287 L 158 279 L 161 281 L 159 290 L 157 294 L 157 297 L 154 304 L 143 310 L 133 300 L 121 278 L 116 262 Z M 376 249 L 378 248 L 385 252 L 396 253 L 397 255 L 396 256 L 386 256 L 379 253 Z M 276 248 L 277 250 L 272 265 L 273 267 L 270 271 L 270 275 L 268 278 L 268 281 L 266 284 L 266 287 L 264 289 L 264 291 L 263 292 L 260 292 L 254 287 L 249 292 L 246 292 L 242 287 L 242 283 L 240 281 L 240 277 L 238 274 L 238 269 L 237 268 L 237 264 L 235 261 L 235 257 L 232 254 L 233 250 L 236 249 L 239 251 L 244 252 L 246 254 L 246 259 L 253 267 L 255 268 L 263 259 L 263 254 Z M 134 248 L 130 253 L 125 255 L 114 256 L 112 254 L 113 252 L 123 252 L 130 249 L 132 247 Z M 377 242 L 379 241 L 381 243 L 391 247 L 397 247 L 399 246 L 400 248 L 395 251 L 387 250 L 379 246 Z M 222 240 L 224 240 L 228 244 L 227 246 L 230 248 L 230 253 L 227 255 L 224 255 L 223 254 L 223 249 L 224 247 L 221 248 L 219 245 L 219 243 Z M 133 241 L 133 243 L 129 247 L 121 250 L 113 250 L 110 248 L 111 246 L 121 246 L 128 243 L 131 240 Z M 254 234 L 259 238 L 262 243 L 262 250 L 261 252 L 257 255 L 252 255 L 247 250 L 247 244 L 251 237 Z M 216 234 L 219 233 L 221 237 L 219 239 L 217 239 L 216 238 Z M 285 229 L 286 231 L 284 237 L 277 244 L 268 249 L 266 249 L 265 248 L 265 244 L 273 240 Z M 215 226 L 217 227 L 217 230 L 216 231 L 213 229 Z M 317 224 L 326 229 L 333 237 L 338 249 L 339 258 L 334 266 L 327 267 L 313 274 L 312 271 L 315 262 L 315 252 L 313 253 L 313 259 L 307 277 L 301 283 L 303 285 L 303 289 L 298 305 L 297 326 L 290 332 L 283 335 L 264 339 L 260 335 L 260 333 L 273 320 L 289 297 L 303 270 L 312 244 L 314 234 L 314 225 Z M 310 222 L 311 223 L 311 235 L 310 236 L 308 248 L 302 265 L 292 286 L 290 288 L 285 298 L 271 318 L 262 328 L 257 332 L 254 332 L 253 330 L 257 327 L 269 314 L 281 297 L 286 287 L 288 285 L 301 256 L 306 239 L 307 226 L 308 225 L 307 223 Z M 206 220 L 211 221 L 210 223 L 213 238 L 217 242 L 217 247 L 220 250 L 221 256 L 226 259 L 227 267 L 229 269 L 229 273 L 231 276 L 231 281 L 233 283 L 233 287 L 236 290 L 235 292 L 240 300 L 245 303 L 247 308 L 238 317 L 225 323 L 214 323 L 210 320 L 211 307 L 205 286 L 206 284 L 217 287 L 224 285 L 211 283 L 201 275 L 197 266 L 195 252 L 193 254 L 193 260 L 197 272 L 196 274 L 182 267 L 175 266 L 171 259 L 169 258 L 172 245 L 177 235 L 189 225 Z M 304 220 L 305 221 L 305 232 L 298 258 L 286 284 L 267 313 L 249 331 L 236 338 L 226 338 L 215 335 L 214 334 L 215 332 L 227 332 L 240 327 L 254 315 L 256 315 L 263 307 L 264 303 L 269 299 L 269 297 L 272 294 L 272 291 L 275 287 L 275 283 L 277 281 L 280 273 L 280 269 L 282 267 L 289 250 L 295 229 L 295 220 L 296 219 Z M 120 219 L 121 220 L 121 224 L 120 225 L 119 234 L 116 236 L 115 235 L 116 224 L 117 223 L 117 220 Z M 292 217 L 293 218 L 292 232 L 286 252 L 284 256 L 282 257 L 280 253 L 282 250 L 289 229 L 289 224 L 290 223 L 289 220 L 290 218 Z M 219 217 L 221 218 L 222 224 L 227 232 L 235 239 L 242 242 L 244 244 L 244 248 L 243 249 L 235 246 L 225 237 L 221 231 L 218 223 L 218 218 Z M 284 215 L 285 216 L 285 221 L 280 230 L 271 238 L 267 240 L 263 240 L 261 236 L 266 233 L 268 233 L 275 228 L 281 220 L 282 216 Z M 225 215 L 227 216 L 230 223 L 237 230 L 248 236 L 246 240 L 243 240 L 237 237 L 230 231 L 224 221 L 224 216 Z M 115 207 L 120 211 L 122 215 L 119 216 L 113 212 L 113 214 L 111 217 L 114 219 L 114 225 L 113 226 L 112 235 L 110 236 L 106 225 L 105 212 L 108 208 L 110 207 Z M 278 205 L 280 204 L 282 207 L 286 209 L 291 209 L 298 204 L 301 206 L 300 208 L 300 215 L 299 216 L 296 216 L 290 213 L 286 213 L 283 211 L 280 211 Z M 230 215 L 233 211 L 233 208 L 235 204 L 237 204 L 244 209 L 251 211 L 263 210 L 274 204 L 276 207 L 276 210 L 279 214 L 279 217 L 277 221 L 269 229 L 261 233 L 258 233 L 256 230 L 254 230 L 251 233 L 249 233 L 239 228 L 232 221 Z M 209 215 L 209 206 L 211 204 L 213 204 L 219 209 L 226 208 L 229 205 L 231 206 L 231 208 L 229 211 L 226 211 L 223 213 L 219 213 L 213 216 L 210 216 Z M 405 204 L 405 206 L 403 208 L 401 208 L 396 212 L 394 211 L 394 209 L 399 204 L 401 203 L 404 203 Z M 374 201 L 379 205 L 381 213 L 389 220 L 391 225 L 391 234 L 393 235 L 398 232 L 401 225 L 401 220 L 404 217 L 404 215 L 400 217 L 398 217 L 397 215 L 403 210 L 406 210 L 408 212 L 405 229 L 401 238 L 397 244 L 386 243 L 382 240 L 382 233 L 379 228 L 376 219 L 375 208 L 373 203 Z M 282 201 L 284 200 L 285 202 L 283 203 Z M 215 201 L 217 200 L 220 203 L 223 203 L 226 201 L 227 203 L 224 206 L 219 206 Z M 110 202 L 112 200 L 117 200 L 119 201 L 125 208 L 125 210 L 123 211 L 117 205 L 111 204 Z M 399 196 L 401 198 L 401 200 L 392 206 L 391 205 L 392 201 L 396 197 Z M 294 196 L 295 197 L 294 203 L 290 206 L 286 206 L 285 204 L 286 203 L 290 203 L 292 200 L 292 197 Z M 226 196 L 228 197 L 228 200 L 227 201 L 225 200 L 225 197 Z M 131 196 L 135 208 L 135 219 L 133 226 L 128 234 L 129 239 L 125 242 L 115 244 L 112 242 L 110 237 L 112 236 L 117 239 L 121 236 L 124 219 L 129 213 L 129 206 L 130 205 L 129 197 Z M 288 195 L 290 196 L 290 200 L 289 201 L 286 199 L 286 197 Z M 221 195 L 223 196 L 223 200 L 222 201 L 220 200 L 220 196 Z M 215 195 L 217 194 L 218 196 L 216 197 Z M 115 195 L 116 194 L 122 195 L 126 199 L 127 203 L 125 204 L 121 199 L 117 198 Z M 291 194 L 293 193 L 294 195 L 292 196 Z M 187 193 L 189 192 L 190 194 L 188 195 Z M 124 185 L 127 185 L 128 186 L 128 191 L 126 194 L 122 192 Z M 392 182 L 394 183 L 393 189 L 395 194 L 393 197 L 391 197 L 389 193 L 389 186 Z M 127 182 L 129 181 L 130 183 L 128 184 Z M 123 181 L 126 180 L 127 182 L 124 183 Z M 292 178 L 293 180 L 291 184 L 291 187 L 290 188 L 286 188 L 285 186 L 287 181 Z M 218 178 L 223 181 L 224 184 L 223 187 L 220 188 L 218 187 L 218 182 L 217 181 Z M 292 173 L 294 172 L 295 174 L 293 175 Z M 119 173 L 121 171 L 129 171 L 130 172 L 133 172 L 137 177 L 131 180 L 127 178 L 121 177 L 119 175 Z M 375 165 L 383 166 L 389 173 L 389 181 L 386 187 L 386 193 L 389 199 L 388 206 L 389 208 L 391 209 L 391 213 L 395 216 L 395 218 L 398 221 L 398 226 L 396 229 L 394 228 L 393 222 L 385 209 L 384 198 L 377 188 L 376 185 L 377 179 L 379 177 L 381 177 L 382 175 L 380 174 L 377 175 L 374 178 L 373 181 L 374 188 L 382 200 L 381 202 L 377 199 L 372 198 L 369 196 L 363 190 L 361 186 L 361 177 L 363 173 L 368 168 Z M 293 165 L 296 165 L 297 166 L 295 172 L 293 172 L 291 168 Z M 214 165 L 216 165 L 218 167 L 216 173 L 214 172 L 213 166 Z M 364 166 L 364 165 L 369 161 L 374 161 L 375 162 L 374 164 L 368 165 L 366 167 Z M 118 167 L 122 162 L 124 161 L 130 161 L 131 162 L 134 162 L 138 165 L 139 171 L 136 172 L 130 169 L 119 169 Z M 291 161 L 292 160 L 295 160 L 297 163 L 295 164 L 292 163 Z M 212 164 L 215 159 L 220 162 L 219 164 L 217 163 L 214 165 Z M 129 158 L 131 157 L 132 159 L 130 160 Z M 127 153 L 128 152 L 134 152 L 136 155 L 135 156 L 130 156 L 128 155 Z M 289 146 L 291 147 L 291 151 L 290 152 L 288 151 L 288 147 Z M 221 145 L 222 146 L 221 148 L 221 153 L 219 154 L 218 153 L 218 148 L 219 146 Z M 133 142 L 135 143 L 136 149 L 135 150 L 129 148 L 130 145 Z M 312 140 L 321 140 L 323 142 L 326 155 L 324 156 L 322 154 L 316 152 L 309 155 L 306 159 L 313 156 L 318 156 L 320 157 L 325 162 L 325 166 L 330 180 L 330 183 L 329 184 L 326 184 L 325 183 L 322 184 L 322 185 L 324 186 L 324 189 L 323 190 L 319 190 L 318 189 L 316 190 L 316 191 L 319 193 L 319 196 L 320 197 L 320 203 L 317 205 L 308 205 L 300 202 L 298 200 L 297 194 L 294 190 L 295 181 L 300 168 L 299 158 L 304 146 L 308 142 Z M 189 140 L 197 140 L 200 141 L 206 147 L 210 157 L 210 164 L 209 165 L 210 166 L 210 170 L 215 182 L 215 191 L 212 195 L 212 200 L 210 202 L 202 205 L 192 205 L 189 202 L 189 200 L 193 189 L 187 190 L 186 189 L 186 186 L 188 185 L 186 183 L 180 184 L 179 183 L 185 165 L 185 162 L 192 156 L 197 156 L 203 159 L 202 156 L 194 152 L 189 153 L 186 156 L 184 155 L 186 142 Z M 325 136 L 324 138 L 321 137 L 312 137 L 309 138 L 302 144 L 299 150 L 298 155 L 296 157 L 293 156 L 295 144 L 305 135 L 314 132 L 320 132 Z M 231 137 L 238 135 L 249 135 L 255 132 L 260 135 L 276 136 L 280 138 L 284 143 L 286 151 L 285 155 L 279 150 L 269 149 L 263 152 L 260 156 L 260 158 L 262 158 L 270 153 L 278 153 L 286 157 L 286 170 L 285 171 L 285 177 L 282 188 L 279 194 L 269 204 L 259 208 L 250 208 L 239 203 L 231 195 L 226 184 L 225 176 L 224 175 L 224 167 L 223 166 L 223 153 L 224 152 L 225 144 Z M 185 135 L 190 132 L 195 132 L 196 133 L 200 133 L 206 136 L 214 143 L 216 156 L 215 157 L 212 156 L 210 151 L 210 148 L 205 141 L 198 137 L 188 137 L 186 138 Z M 182 127 L 185 126 L 186 129 L 183 130 Z M 325 125 L 327 126 L 327 131 L 326 132 L 324 131 L 324 126 Z M 256 126 L 257 125 L 259 126 L 266 126 L 267 127 L 272 127 L 276 129 L 279 129 L 286 133 L 291 138 L 291 140 L 289 141 L 285 137 L 276 133 L 260 132 L 256 129 Z M 254 126 L 254 128 L 250 132 L 234 133 L 223 138 L 220 141 L 218 140 L 222 134 L 231 129 L 238 127 L 243 127 L 244 126 L 250 126 L 251 125 Z M 316 125 L 316 128 L 314 130 L 310 130 L 307 132 L 305 132 L 297 138 L 295 137 L 295 134 L 301 129 L 312 124 L 315 124 Z M 193 125 L 194 124 L 198 124 L 207 128 L 214 134 L 214 136 L 211 137 L 208 134 L 202 131 L 194 129 L 193 128 Z M 298 117 L 301 121 L 301 126 L 296 129 L 295 128 L 294 120 Z M 287 117 L 288 117 L 291 121 L 290 124 L 288 124 L 284 121 Z M 217 133 L 224 125 L 230 122 L 237 120 L 241 120 L 242 119 L 250 119 L 254 117 L 256 117 L 259 119 L 268 119 L 269 120 L 277 121 L 284 124 L 291 130 L 290 132 L 288 132 L 285 129 L 283 129 L 278 126 L 275 126 L 270 124 L 258 123 L 254 121 L 247 124 L 235 125 L 225 129 L 219 134 Z M 222 117 L 225 121 L 219 125 L 218 122 L 220 118 Z M 212 117 L 215 119 L 215 125 L 213 128 L 211 128 L 208 125 L 209 120 Z M 325 113 L 326 114 L 326 118 L 322 125 L 322 127 L 320 128 L 319 127 L 319 121 L 322 115 Z M 184 112 L 186 113 L 190 120 L 190 123 L 191 124 L 191 127 L 190 128 L 188 127 L 187 123 L 183 117 L 183 113 Z M 286 112 L 286 115 L 282 119 L 277 119 L 276 118 L 276 116 L 283 111 Z M 223 112 L 226 111 L 233 116 L 233 118 L 232 119 L 227 119 L 224 116 Z M 311 106 L 314 107 L 314 110 L 316 115 L 316 120 L 315 121 L 310 121 L 309 120 L 308 111 Z M 197 106 L 200 108 L 202 112 L 202 115 L 199 121 L 195 121 L 193 119 L 194 112 Z M 281 105 L 282 108 L 276 114 L 274 114 L 273 113 L 274 107 Z M 254 105 L 256 105 L 258 108 L 258 114 L 256 116 L 254 116 L 251 112 L 252 107 Z M 228 106 L 229 105 L 234 106 L 236 108 L 237 114 L 235 115 L 228 109 Z M 296 103 L 299 104 L 305 114 L 305 116 L 307 119 L 307 123 L 306 124 L 304 123 L 301 116 L 298 112 L 293 116 L 290 114 L 290 112 Z M 213 102 L 217 108 L 219 114 L 216 116 L 214 113 L 212 112 L 208 117 L 206 123 L 204 124 L 203 123 L 204 115 L 206 113 L 211 103 Z M 272 98 L 273 97 L 277 97 L 280 100 L 280 102 L 274 104 L 272 101 Z M 229 100 L 232 97 L 237 97 L 238 98 L 236 104 L 230 103 Z M 254 93 L 257 94 L 263 103 L 264 113 L 262 116 L 260 115 L 261 112 L 260 106 L 255 100 L 254 100 L 249 108 L 249 114 L 247 115 L 245 112 L 246 104 Z M 290 90 L 304 90 L 307 93 L 310 100 L 310 104 L 308 107 L 305 109 L 298 97 L 295 98 L 293 103 L 289 108 L 286 107 L 284 104 L 284 101 Z M 199 102 L 200 101 L 200 98 L 205 90 L 219 90 L 224 97 L 226 103 L 224 107 L 220 108 L 215 99 L 213 97 L 211 97 L 206 107 L 203 108 Z M 293 86 L 294 85 L 301 85 L 302 87 L 296 89 L 294 88 Z M 208 86 L 209 85 L 215 85 L 216 87 L 215 88 L 209 88 Z M 254 80 L 257 82 L 263 90 L 270 102 L 271 110 L 268 116 L 266 115 L 266 112 L 267 111 L 266 104 L 260 94 L 255 88 L 254 88 L 248 96 L 243 105 L 243 113 L 244 115 L 242 116 L 239 112 L 239 104 L 240 101 Z M 291 81 L 293 79 L 302 79 L 303 80 L 302 83 L 292 83 Z M 206 80 L 207 79 L 217 79 L 218 82 L 217 83 L 207 83 Z M 254 73 L 255 75 L 253 76 L 249 83 L 243 90 L 242 93 L 240 95 L 236 95 L 234 93 L 234 88 L 237 82 L 237 80 L 242 73 Z M 256 73 L 259 72 L 267 73 L 270 76 L 275 86 L 275 89 L 276 90 L 276 94 L 275 95 L 270 95 L 267 92 L 258 78 L 255 75 Z M 297 70 L 298 70 L 300 73 L 300 76 L 299 77 L 295 77 L 294 76 L 294 74 Z M 212 69 L 214 70 L 216 76 L 213 78 L 209 76 L 209 74 Z M 245 68 L 246 67 L 264 67 L 265 69 L 264 70 L 246 70 Z M 254 45 L 258 48 L 261 53 L 261 55 L 258 56 L 258 58 L 264 59 L 266 61 L 265 64 L 245 64 L 244 63 L 244 61 L 246 59 L 252 57 L 249 55 L 249 53 Z" fill="#B88A44" fill-rule="evenodd"/>
</svg>
