<svg xmlns="http://www.w3.org/2000/svg" viewBox="0 0 512 512" >
  <path d="M 307 289 L 303 291 L 298 296 L 297 299 L 297 307 L 302 314 L 306 316 L 315 316 L 320 313 L 324 306 L 324 299 L 322 295 L 318 291 L 314 289 Z M 197 289 L 190 294 L 187 301 L 187 305 L 189 310 L 194 315 L 196 316 L 205 316 L 209 314 L 213 310 L 215 305 L 215 301 L 212 294 L 209 291 L 205 289 Z M 132 350 L 132 373 L 141 395 L 159 412 L 182 420 L 202 419 L 229 403 L 279 402 L 314 420 L 339 418 L 369 397 L 380 368 L 379 348 L 361 356 L 355 335 L 343 322 L 329 341 L 304 335 L 288 308 L 289 295 L 298 284 L 316 281 L 332 295 L 329 316 L 310 326 L 330 323 L 340 305 L 357 296 L 342 293 L 316 273 L 295 277 L 277 298 L 259 298 L 283 312 L 275 325 L 287 321 L 296 327 L 297 337 L 288 345 L 281 330 L 257 345 L 230 330 L 226 344 L 219 343 L 216 326 L 224 321 L 236 325 L 227 314 L 253 299 L 235 298 L 215 276 L 195 273 L 168 294 L 154 296 L 170 304 L 183 324 L 201 327 L 181 314 L 179 296 L 195 281 L 215 285 L 224 305 L 207 335 L 182 341 L 168 322 L 158 332 L 150 356 Z M 158 379 L 160 378 L 173 390 L 179 392 L 189 391 L 189 399 L 191 400 L 199 398 L 207 393 L 218 379 L 293 379 L 303 392 L 319 400 L 322 399 L 323 391 L 336 391 L 342 388 L 351 379 L 353 382 L 347 395 L 339 403 L 326 409 L 313 409 L 307 407 L 291 395 L 281 391 L 261 389 L 230 391 L 219 396 L 202 408 L 185 409 L 175 405 L 165 396 Z M 305 369 L 310 369 L 314 373 L 314 381 L 316 388 L 316 392 L 315 393 L 309 390 L 303 384 L 300 379 L 300 373 Z M 209 370 L 212 374 L 209 383 L 201 391 L 196 393 L 195 392 L 195 389 L 197 384 L 198 372 L 202 369 L 207 369 Z M 187 356 L 193 351 L 198 349 L 211 349 L 225 355 L 236 358 L 242 358 L 243 359 L 268 359 L 269 358 L 275 358 L 283 356 L 301 349 L 313 349 L 320 352 L 324 356 L 324 358 L 318 363 L 314 363 L 310 361 L 304 361 L 292 367 L 277 371 L 270 371 L 269 372 L 241 372 L 240 371 L 234 371 L 226 369 L 207 361 L 202 361 L 195 364 L 190 361 L 187 358 Z M 345 332 L 348 336 L 351 345 L 351 361 L 349 368 L 346 374 L 337 383 L 331 385 L 323 383 L 320 379 L 319 371 L 325 367 L 334 358 L 340 347 L 343 333 Z M 166 332 L 167 332 L 169 335 L 170 343 L 176 356 L 185 366 L 192 371 L 192 378 L 191 380 L 186 384 L 181 385 L 173 382 L 166 375 L 162 367 L 161 360 L 160 359 L 160 347 L 163 337 Z M 259 280 L 265 287 L 273 288 L 281 281 L 285 274 L 295 265 L 302 262 L 314 261 L 324 264 L 330 268 L 345 283 L 354 284 L 361 278 L 366 266 L 366 262 L 355 266 L 346 266 L 341 264 L 335 258 L 337 250 L 336 245 L 328 248 L 322 248 L 310 244 L 298 244 L 286 252 L 280 264 L 278 265 L 277 256 L 282 247 L 282 245 L 280 245 L 274 248 L 268 255 L 266 261 L 268 276 L 265 277 L 260 271 Z M 145 263 L 149 276 L 154 282 L 158 284 L 164 284 L 168 282 L 184 266 L 197 261 L 205 261 L 216 265 L 227 275 L 231 282 L 239 288 L 244 288 L 248 286 L 253 278 L 252 272 L 246 277 L 243 275 L 245 269 L 244 257 L 242 253 L 236 247 L 232 245 L 229 246 L 234 254 L 234 264 L 233 265 L 231 264 L 230 259 L 227 254 L 221 248 L 213 244 L 201 244 L 190 248 L 183 248 L 175 245 L 175 253 L 177 258 L 172 263 L 165 266 L 157 266 L 147 262 Z M 445 220 L 389 248 L 391 236 L 370 247 L 350 222 L 321 208 L 284 203 L 273 215 L 276 191 L 256 165 L 236 191 L 239 215 L 227 202 L 194 207 L 159 224 L 141 247 L 120 236 L 122 247 L 66 220 L 70 266 L 82 292 L 85 324 L 108 356 L 95 354 L 112 394 L 160 432 L 194 441 L 228 436 L 256 463 L 283 436 L 317 441 L 349 433 L 401 392 L 417 356 L 405 358 L 404 354 L 422 333 L 429 316 L 430 291 L 444 254 Z M 434 238 L 434 249 L 427 275 L 418 290 L 420 298 L 418 316 L 409 332 L 396 341 L 389 325 L 396 318 L 395 311 L 390 307 L 385 307 L 376 313 L 375 308 L 381 300 L 385 298 L 394 298 L 398 300 L 405 309 L 405 319 L 398 330 L 400 331 L 408 324 L 412 313 L 412 307 L 404 291 L 407 281 L 419 267 L 420 262 L 412 264 L 400 271 L 392 280 L 386 292 L 381 291 L 384 275 L 390 264 L 403 251 L 415 244 Z M 78 238 L 92 242 L 110 252 L 120 262 L 127 274 L 130 284 L 129 292 L 126 292 L 123 289 L 118 278 L 110 270 L 97 263 L 91 263 L 93 268 L 105 282 L 107 288 L 107 293 L 100 304 L 100 316 L 108 329 L 113 331 L 106 317 L 107 307 L 113 300 L 117 298 L 126 298 L 136 307 L 135 313 L 127 307 L 122 307 L 116 312 L 115 317 L 117 321 L 123 325 L 116 341 L 108 337 L 101 330 L 95 320 L 92 310 L 93 289 L 89 284 L 82 268 L 77 245 Z M 139 257 L 153 260 L 168 242 L 179 235 L 213 225 L 240 225 L 255 230 L 272 225 L 305 226 L 336 237 L 359 260 L 371 256 L 365 284 L 365 306 L 373 327 L 373 340 L 381 333 L 384 335 L 390 359 L 388 377 L 381 394 L 359 417 L 324 430 L 297 430 L 277 415 L 265 417 L 259 424 L 256 436 L 251 422 L 242 415 L 234 415 L 220 428 L 209 431 L 187 430 L 161 422 L 135 401 L 122 370 L 125 340 L 129 333 L 139 339 L 138 329 L 146 308 L 146 280 Z M 255 179 L 257 179 L 261 184 L 265 191 L 265 194 L 266 195 L 266 198 L 264 203 L 257 209 L 253 208 L 247 202 L 246 199 L 247 191 Z M 379 213 L 363 181 L 360 180 L 354 188 L 335 165 L 317 154 L 317 141 L 307 141 L 307 131 L 294 123 L 294 107 L 277 89 L 275 77 L 256 45 L 238 76 L 236 89 L 219 106 L 218 123 L 207 129 L 204 142 L 196 140 L 195 154 L 176 166 L 158 188 L 152 180 L 149 181 L 134 208 L 132 226 L 139 241 L 151 225 L 147 218 L 149 204 L 161 217 L 193 201 L 227 196 L 231 179 L 255 150 L 281 179 L 285 196 L 319 201 L 351 217 L 362 204 L 365 218 L 360 225 L 372 241 L 379 228 Z M 284 173 L 285 172 L 293 172 L 294 173 L 302 174 L 315 178 L 332 187 L 344 197 L 344 199 L 341 203 L 339 203 L 329 198 L 320 196 L 316 194 L 308 193 L 307 192 L 301 192 L 300 191 L 292 191 L 290 188 L 289 182 Z M 228 173 L 223 182 L 222 188 L 220 191 L 212 191 L 211 192 L 205 192 L 204 193 L 192 195 L 178 200 L 173 203 L 170 203 L 168 200 L 168 197 L 177 189 L 197 178 L 214 173 L 218 173 L 219 172 L 227 172 Z M 212 142 L 214 139 L 222 135 L 225 135 L 230 133 L 236 133 L 237 132 L 248 132 L 249 131 L 263 131 L 264 132 L 282 133 L 283 134 L 287 134 L 293 136 L 299 140 L 298 142 L 296 142 L 291 140 L 287 140 L 281 138 L 274 138 L 273 137 L 240 137 L 239 138 L 226 139 L 214 143 Z M 256 81 L 259 83 L 264 92 L 277 109 L 279 115 L 279 122 L 277 126 L 274 126 L 270 124 L 270 121 L 267 115 L 257 103 L 255 103 L 253 107 L 245 116 L 241 125 L 236 126 L 234 124 L 233 118 L 236 108 L 248 93 L 253 84 Z" fill="#B88A44" fill-rule="evenodd"/>
</svg>
