<svg xmlns="http://www.w3.org/2000/svg" viewBox="0 0 512 512" >
  <path d="M 324 392 L 317 395 L 312 400 L 310 404 L 309 411 L 310 412 L 310 415 L 315 423 L 322 427 L 332 427 L 338 424 L 342 420 L 345 413 L 345 407 L 344 406 L 344 403 L 340 397 L 336 394 L 331 392 Z M 322 397 L 325 397 L 326 396 L 334 398 L 340 405 L 341 408 L 340 415 L 335 421 L 331 423 L 321 422 L 314 414 L 314 406 L 316 402 Z M 181 392 L 174 395 L 169 400 L 167 404 L 167 409 L 166 410 L 167 411 L 167 415 L 171 422 L 179 427 L 189 427 L 195 424 L 199 420 L 202 413 L 202 406 L 200 401 L 196 396 L 188 392 Z M 179 397 L 182 397 L 183 396 L 191 398 L 197 405 L 198 408 L 197 415 L 192 421 L 188 423 L 178 422 L 171 414 L 171 406 L 173 402 Z M 407 303 L 401 306 L 396 312 L 394 318 L 395 327 L 398 332 L 403 336 L 408 338 L 416 338 L 422 335 L 427 330 L 430 321 L 429 315 L 425 308 L 417 303 Z M 409 307 L 418 308 L 425 316 L 425 324 L 424 327 L 419 332 L 414 334 L 409 334 L 405 332 L 400 327 L 398 321 L 400 314 L 406 308 Z M 95 303 L 89 306 L 85 310 L 82 317 L 82 324 L 86 332 L 91 336 L 96 338 L 104 338 L 110 335 L 115 330 L 118 321 L 117 315 L 112 307 L 105 303 Z M 97 307 L 103 307 L 107 309 L 112 314 L 113 317 L 113 324 L 111 328 L 107 332 L 102 334 L 94 333 L 88 327 L 86 321 L 89 312 L 94 308 Z M 407 169 L 400 173 L 396 178 L 394 184 L 395 193 L 401 201 L 407 204 L 417 204 L 424 200 L 427 196 L 430 188 L 429 181 L 425 174 L 417 169 Z M 406 174 L 415 173 L 419 175 L 425 182 L 425 185 L 426 186 L 425 191 L 418 199 L 415 200 L 406 199 L 399 191 L 399 182 L 402 177 Z M 95 169 L 89 172 L 85 176 L 82 183 L 82 190 L 85 197 L 92 203 L 95 204 L 105 204 L 109 202 L 115 196 L 118 187 L 117 181 L 115 177 L 109 171 L 104 169 Z M 97 173 L 103 173 L 107 175 L 112 180 L 113 183 L 112 193 L 107 198 L 103 200 L 97 200 L 92 198 L 88 193 L 86 187 L 89 178 L 94 174 Z M 255 158 L 251 165 L 233 179 L 229 189 L 220 185 L 200 187 L 188 185 L 190 189 L 188 218 L 191 226 L 180 231 L 170 245 L 160 253 L 170 260 L 180 274 L 192 279 L 188 287 L 190 309 L 188 320 L 194 318 L 220 320 L 229 316 L 233 326 L 250 339 L 256 347 L 262 338 L 277 327 L 282 316 L 291 320 L 312 318 L 322 320 L 323 288 L 319 279 L 331 274 L 350 252 L 340 244 L 331 231 L 319 226 L 323 217 L 322 185 L 317 187 L 291 185 L 282 189 L 277 178 L 262 167 Z M 233 312 L 236 310 L 245 313 L 267 313 L 276 310 L 277 311 L 277 318 L 274 324 L 270 328 L 255 338 L 242 329 L 236 323 L 234 319 Z M 313 279 L 317 284 L 319 289 L 319 298 L 317 305 L 317 313 L 316 314 L 309 314 L 308 315 L 302 315 L 301 316 L 292 316 L 283 311 L 282 308 L 293 301 L 302 292 L 307 285 L 310 279 Z M 304 279 L 304 281 L 300 287 L 285 301 L 269 308 L 264 308 L 263 309 L 257 309 L 256 308 L 256 306 L 273 278 L 303 278 Z M 245 279 L 246 278 L 265 278 L 266 281 L 258 295 L 255 296 L 251 291 Z M 199 278 L 202 280 L 207 289 L 219 301 L 229 308 L 225 313 L 218 316 L 210 316 L 209 315 L 195 314 L 194 313 L 194 306 L 192 299 L 192 288 L 195 282 Z M 284 259 L 286 259 L 294 272 L 293 274 L 277 274 L 276 273 Z M 225 259 L 227 259 L 229 261 L 235 272 L 234 274 L 219 274 L 218 273 L 218 271 Z M 314 231 L 322 231 L 326 233 L 333 240 L 337 247 L 342 252 L 331 268 L 322 274 L 314 274 L 313 273 L 315 263 L 316 262 L 316 244 L 313 235 L 313 232 Z M 276 232 L 277 231 L 293 231 L 294 233 L 287 245 L 284 246 Z M 242 231 L 269 231 L 273 236 L 278 246 L 282 251 L 282 253 L 272 271 L 269 274 L 242 274 L 240 272 L 229 252 L 236 241 L 238 236 Z M 217 232 L 218 231 L 234 231 L 235 233 L 228 245 L 225 246 Z M 189 231 L 197 231 L 198 232 L 198 235 L 195 244 L 195 261 L 196 262 L 196 267 L 198 271 L 197 274 L 189 274 L 183 271 L 177 264 L 173 257 L 169 253 L 180 237 Z M 303 227 L 305 227 L 307 230 L 311 243 L 311 248 L 312 249 L 311 263 L 308 273 L 305 278 L 302 277 L 288 253 L 291 246 Z M 207 227 L 209 228 L 223 251 L 223 254 L 221 256 L 209 278 L 238 278 L 255 306 L 254 309 L 243 308 L 227 301 L 213 289 L 206 279 L 201 267 L 199 251 L 200 250 L 201 238 L 204 232 L 204 230 Z M 255 208 L 257 209 L 266 225 L 260 227 L 257 226 L 249 226 L 247 227 L 245 224 Z M 256 197 L 257 196 L 259 197 L 266 197 L 276 200 L 284 204 L 291 209 L 298 216 L 304 226 L 303 227 L 301 226 L 298 227 L 296 226 L 273 226 L 268 220 L 266 215 L 257 201 Z M 255 197 L 255 199 L 246 213 L 244 218 L 238 226 L 235 227 L 232 226 L 216 226 L 215 227 L 212 226 L 211 227 L 208 227 L 207 226 L 211 219 L 226 205 L 241 198 L 252 197 L 253 196 Z M 287 191 L 292 189 L 302 189 L 303 190 L 316 191 L 317 192 L 317 200 L 319 207 L 319 216 L 316 223 L 312 227 L 309 225 L 304 216 L 297 208 L 291 203 L 282 198 L 282 196 Z M 224 191 L 229 196 L 229 198 L 218 205 L 208 215 L 202 225 L 199 227 L 195 223 L 192 217 L 192 206 L 194 199 L 194 192 L 195 191 L 201 191 L 202 190 L 208 190 L 209 189 L 219 189 Z M 233 190 L 236 182 L 242 176 L 256 167 L 270 177 L 274 181 L 277 187 L 277 194 L 274 195 L 264 192 L 247 192 L 246 193 L 242 193 L 238 195 L 235 195 L 233 193 Z M 324 79 L 317 82 L 313 86 L 310 92 L 309 99 L 310 100 L 310 103 L 315 111 L 322 115 L 332 115 L 337 113 L 342 108 L 345 102 L 345 93 L 343 88 L 339 83 L 331 79 Z M 322 84 L 325 84 L 326 83 L 332 84 L 340 91 L 341 94 L 340 103 L 335 109 L 331 111 L 324 111 L 320 109 L 314 102 L 314 93 L 316 89 Z M 180 79 L 174 82 L 169 87 L 167 91 L 166 99 L 167 100 L 167 103 L 172 111 L 179 115 L 189 115 L 195 112 L 199 108 L 202 101 L 202 93 L 198 85 L 193 81 L 188 79 Z M 182 83 L 186 83 L 191 85 L 196 90 L 198 95 L 198 100 L 195 106 L 192 109 L 187 111 L 178 110 L 172 104 L 170 98 L 172 90 L 177 85 Z M 245 39 L 203 46 L 159 64 L 129 84 L 96 117 L 75 148 L 57 190 L 48 234 L 48 273 L 56 313 L 73 353 L 93 383 L 124 415 L 157 438 L 192 454 L 224 462 L 267 464 L 339 446 L 376 424 L 411 392 L 432 364 L 452 322 L 462 280 L 463 237 L 446 168 L 423 127 L 392 92 L 358 67 L 316 48 Z M 114 396 L 131 380 L 137 387 L 128 398 L 138 394 L 142 385 L 136 375 L 157 356 L 172 370 L 201 387 L 226 395 L 252 398 L 253 427 L 238 432 L 237 444 L 242 449 L 242 436 L 252 433 L 254 453 L 258 452 L 259 433 L 269 435 L 270 449 L 274 445 L 274 433 L 259 427 L 259 398 L 285 395 L 310 387 L 354 357 L 375 375 L 369 385 L 372 393 L 383 398 L 374 387 L 380 380 L 398 397 L 359 428 L 320 447 L 285 456 L 245 458 L 216 454 L 181 443 L 139 419 Z M 167 162 L 235 162 L 235 147 L 220 147 L 220 139 L 290 139 L 290 147 L 275 147 L 275 162 L 345 163 L 345 231 L 360 231 L 361 215 L 369 219 L 369 288 L 360 289 L 360 274 L 345 274 L 344 345 L 275 345 L 275 361 L 290 361 L 290 370 L 220 370 L 220 361 L 235 361 L 235 345 L 166 344 L 166 275 L 151 274 L 151 289 L 142 289 L 142 216 L 150 216 L 151 231 L 166 231 Z M 251 115 L 298 122 L 347 151 L 379 195 L 391 240 L 386 293 L 360 343 L 316 379 L 267 393 L 221 389 L 172 364 L 138 324 L 120 268 L 129 203 L 160 157 L 161 226 L 155 226 L 155 210 L 137 210 L 137 295 L 155 295 L 161 279 L 161 349 L 230 350 L 230 356 L 214 358 L 215 374 L 295 374 L 296 357 L 280 356 L 280 350 L 349 349 L 349 279 L 355 279 L 355 295 L 373 295 L 373 210 L 356 210 L 355 226 L 349 226 L 349 158 L 280 158 L 280 152 L 296 151 L 295 134 L 215 134 L 214 151 L 230 152 L 230 158 L 160 157 L 203 126 Z M 401 113 L 419 132 L 438 165 L 450 198 L 457 236 L 456 279 L 445 323 L 429 357 L 402 392 L 384 376 L 392 370 L 403 378 L 395 366 L 388 365 L 379 371 L 359 351 L 375 330 L 387 305 L 396 257 L 427 256 L 433 271 L 444 271 L 449 267 L 435 266 L 433 257 L 450 256 L 453 251 L 433 249 L 436 239 L 449 238 L 444 234 L 432 235 L 427 250 L 396 250 L 386 200 L 374 176 L 359 157 L 380 135 L 394 141 L 402 134 L 403 128 L 393 136 L 385 132 Z M 109 112 L 127 130 L 119 136 L 108 128 L 109 133 L 118 141 L 132 135 L 152 157 L 135 180 L 124 203 L 115 250 L 84 251 L 81 237 L 67 235 L 63 239 L 76 240 L 78 250 L 59 251 L 58 255 L 78 257 L 76 267 L 63 268 L 68 272 L 79 271 L 83 267 L 84 256 L 115 257 L 124 305 L 136 330 L 152 351 L 132 371 L 118 365 L 109 373 L 108 378 L 119 370 L 127 375 L 111 393 L 91 370 L 71 335 L 61 308 L 54 271 L 54 235 L 67 180 L 84 145 Z M 113 108 L 137 86 L 167 67 L 209 51 L 246 45 L 284 47 L 332 61 L 365 79 L 398 107 L 381 126 L 375 118 L 383 107 L 370 116 L 370 123 L 376 131 L 354 152 L 336 136 L 311 122 L 282 113 L 260 111 L 259 80 L 273 75 L 274 61 L 270 57 L 269 71 L 259 73 L 255 53 L 252 73 L 243 72 L 241 57 L 237 62 L 239 76 L 253 80 L 253 110 L 198 123 L 158 151 L 136 131 L 142 119 L 134 108 L 128 107 L 136 117 L 132 126 Z" fill="#B88A44" fill-rule="evenodd"/>
</svg>
