<svg xmlns="http://www.w3.org/2000/svg" viewBox="0 0 512 512" >
  <path d="M 380 234 L 381 237 L 386 243 L 397 261 L 397 263 L 400 268 L 403 277 L 405 287 L 406 287 L 411 280 L 420 271 L 424 269 L 429 264 L 432 259 L 435 257 L 435 256 L 429 257 L 421 265 L 415 268 L 409 275 L 407 275 L 404 265 L 397 251 L 392 244 L 386 238 Z M 132 234 L 127 237 L 117 248 L 110 260 L 106 273 L 104 275 L 95 267 L 91 265 L 83 257 L 81 256 L 76 256 L 79 258 L 83 264 L 89 270 L 92 271 L 100 279 L 104 285 L 107 287 L 109 277 L 114 263 L 120 252 L 131 237 Z M 410 233 L 406 233 L 404 234 L 402 237 L 403 242 L 408 245 L 413 242 L 413 236 Z M 106 233 L 102 233 L 98 238 L 99 242 L 104 245 L 107 244 L 110 239 L 108 234 Z M 390 229 L 395 235 L 396 231 L 401 226 L 403 225 L 409 225 L 412 226 L 418 232 L 422 241 L 424 243 L 424 245 L 418 250 L 412 253 L 405 251 L 408 257 L 410 258 L 417 257 L 426 249 L 434 248 L 427 241 L 421 229 L 413 221 L 410 220 L 400 220 L 395 223 Z M 114 221 L 111 220 L 102 220 L 96 223 L 89 232 L 85 241 L 78 248 L 86 249 L 95 257 L 98 258 L 104 257 L 107 251 L 99 253 L 89 246 L 88 243 L 96 229 L 102 225 L 109 225 L 111 226 L 115 230 L 117 235 L 122 229 L 121 227 Z M 254 196 L 248 201 L 248 207 L 249 209 L 253 212 L 259 212 L 263 208 L 264 202 L 260 197 Z M 405 183 L 404 194 L 400 202 L 383 217 L 384 218 L 398 211 L 402 207 L 406 199 L 408 198 L 410 200 L 416 212 L 425 223 L 430 235 L 432 238 L 437 242 L 434 237 L 432 229 L 428 220 L 418 207 L 414 198 L 411 194 L 410 190 L 408 188 L 406 183 Z M 107 183 L 106 183 L 104 188 L 102 190 L 102 192 L 98 198 L 94 207 L 84 220 L 77 239 L 75 242 L 76 242 L 82 235 L 82 233 L 87 223 L 99 207 L 100 203 L 103 198 L 106 199 L 108 204 L 113 210 L 117 213 L 128 218 L 128 217 L 112 202 L 108 193 Z M 253 154 L 250 160 L 255 167 L 246 182 L 233 195 L 219 203 L 214 199 L 209 199 L 206 202 L 206 206 L 210 210 L 213 210 L 219 205 L 234 214 L 245 225 L 251 234 L 255 243 L 251 246 L 250 250 L 253 254 L 257 255 L 261 252 L 261 246 L 257 243 L 257 241 L 266 226 L 278 214 L 285 209 L 294 205 L 297 209 L 301 210 L 306 206 L 306 203 L 303 199 L 297 199 L 294 203 L 292 203 L 274 191 L 265 181 L 257 167 L 261 162 L 260 155 Z M 255 177 L 257 177 L 263 186 L 276 199 L 283 204 L 282 206 L 274 211 L 264 221 L 256 232 L 254 231 L 247 220 L 239 212 L 229 205 L 230 202 L 233 201 L 248 187 Z M 221 119 L 221 134 L 236 134 L 237 139 L 192 140 L 191 185 L 185 184 L 186 170 L 171 170 L 171 240 L 185 240 L 186 226 L 191 225 L 192 269 L 236 269 L 236 275 L 220 276 L 221 290 L 290 290 L 291 275 L 276 275 L 274 270 L 319 269 L 321 225 L 326 226 L 327 240 L 341 239 L 341 170 L 326 170 L 326 184 L 321 185 L 319 140 L 274 139 L 275 134 L 291 133 L 291 119 Z M 225 281 L 226 280 L 240 280 L 242 279 L 242 264 L 243 263 L 253 263 L 254 264 L 257 264 L 258 263 L 261 263 L 262 264 L 263 263 L 269 263 L 270 264 L 270 279 L 271 280 L 285 280 L 286 281 L 286 284 L 285 285 L 226 285 L 225 284 Z M 314 222 L 315 223 L 315 263 L 314 264 L 273 264 L 272 263 L 273 261 L 278 260 L 288 255 L 300 245 L 306 237 L 312 225 L 312 223 Z M 197 223 L 198 222 L 200 223 L 201 228 L 205 236 L 210 243 L 217 250 L 227 257 L 239 261 L 240 263 L 239 264 L 198 264 L 197 263 Z M 332 174 L 334 174 L 336 176 L 336 234 L 335 235 L 332 235 L 331 234 L 331 220 L 315 220 L 314 219 L 314 213 L 315 212 L 315 196 L 314 195 L 314 191 L 315 190 L 330 190 L 331 189 L 331 175 Z M 177 174 L 180 174 L 181 175 L 181 190 L 197 190 L 198 191 L 197 194 L 197 214 L 198 215 L 198 219 L 197 220 L 181 220 L 181 234 L 180 235 L 177 235 L 176 234 L 176 175 Z M 242 151 L 264 150 L 276 153 L 290 161 L 299 170 L 309 190 L 310 212 L 307 224 L 302 234 L 296 242 L 288 249 L 272 257 L 260 259 L 244 258 L 227 251 L 220 246 L 211 236 L 204 222 L 202 214 L 202 194 L 205 184 L 210 174 L 223 160 Z M 274 146 L 275 145 L 314 145 L 315 146 L 315 186 L 314 187 L 312 186 L 311 181 L 307 173 L 302 166 L 293 157 L 282 150 L 275 148 Z M 197 185 L 197 146 L 198 145 L 237 145 L 238 146 L 237 148 L 230 150 L 219 157 L 209 167 L 205 173 L 200 183 L 200 185 L 199 186 Z M 226 125 L 227 124 L 285 124 L 286 125 L 286 128 L 285 129 L 270 129 L 270 145 L 269 146 L 265 146 L 264 145 L 248 145 L 247 146 L 243 146 L 242 145 L 242 130 L 241 129 L 227 129 L 226 128 Z M 244 102 L 225 106 L 201 117 L 174 142 L 166 154 L 156 178 L 153 193 L 153 217 L 159 241 L 166 255 L 190 283 L 223 301 L 247 306 L 265 306 L 286 302 L 309 292 L 336 269 L 349 249 L 355 234 L 359 215 L 359 194 L 356 178 L 347 156 L 336 139 L 321 124 L 308 115 L 284 105 L 268 102 Z M 245 108 L 267 108 L 286 112 L 315 127 L 326 137 L 340 156 L 348 173 L 353 193 L 351 227 L 341 252 L 331 266 L 304 288 L 285 296 L 266 300 L 231 297 L 216 292 L 197 281 L 180 265 L 172 254 L 165 240 L 159 217 L 158 204 L 162 179 L 167 165 L 181 143 L 194 130 L 210 119 L 230 111 Z M 79 192 L 65 228 L 65 342 L 71 359 L 88 378 L 127 401 L 177 417 L 220 424 L 315 421 L 354 412 L 403 392 L 425 377 L 443 355 L 447 342 L 447 227 L 437 198 L 417 172 L 396 154 L 306 96 L 272 87 L 241 87 L 205 97 L 112 158 Z M 416 337 L 416 345 L 411 355 L 401 365 L 381 377 L 323 396 L 279 402 L 223 401 L 162 389 L 118 370 L 101 355 L 96 345 L 99 330 L 114 316 L 145 303 L 181 297 L 197 308 L 222 318 L 243 322 L 268 322 L 302 314 L 333 296 L 367 303 L 391 312 L 402 319 Z M 72 338 L 77 325 L 98 305 L 160 276 L 172 290 L 132 300 L 107 313 L 91 332 L 93 354 L 113 374 L 146 390 L 235 408 L 300 406 L 344 397 L 392 378 L 414 361 L 422 345 L 417 325 L 385 302 L 341 291 L 352 276 L 414 305 L 434 324 L 440 341 L 424 369 L 375 398 L 312 415 L 246 419 L 180 411 L 121 391 L 84 365 Z M 152 142 L 153 144 L 145 157 L 137 181 L 135 192 L 135 218 L 140 241 L 155 270 L 125 282 L 108 291 L 87 306 L 72 321 L 71 236 L 76 213 L 89 191 L 109 170 L 139 148 Z M 360 141 L 377 150 L 404 170 L 423 190 L 435 210 L 441 233 L 440 321 L 424 305 L 404 291 L 385 281 L 357 270 L 370 244 L 377 215 L 377 194 L 374 176 L 369 161 L 359 143 Z M 246 94 L 267 94 L 289 98 L 311 107 L 331 121 L 347 138 L 359 157 L 366 175 L 370 197 L 366 234 L 357 256 L 345 274 L 314 300 L 297 308 L 269 315 L 242 315 L 223 311 L 203 303 L 183 290 L 156 259 L 145 233 L 142 216 L 142 196 L 146 175 L 156 152 L 169 134 L 199 109 L 228 97 Z" fill="#B88A44" fill-rule="evenodd"/>
</svg>
