<svg xmlns="http://www.w3.org/2000/svg" viewBox="0 0 512 512" >
  <path d="M 238 47 L 225 60 L 214 55 L 203 59 L 198 74 L 180 76 L 174 96 L 158 104 L 158 122 L 147 129 L 148 149 L 138 160 L 145 177 L 139 195 L 148 205 L 145 223 L 157 233 L 159 251 L 172 257 L 174 271 L 193 278 L 201 292 L 237 298 L 244 308 L 246 336 L 229 353 L 207 450 L 225 457 L 248 454 L 250 373 L 256 363 L 261 372 L 262 453 L 286 457 L 305 445 L 282 352 L 266 337 L 268 307 L 275 298 L 311 292 L 319 278 L 338 271 L 340 256 L 353 251 L 355 233 L 368 220 L 364 205 L 373 194 L 367 177 L 374 161 L 364 149 L 365 129 L 354 122 L 355 106 L 338 96 L 332 76 L 316 75 L 304 56 L 287 60 L 274 47 L 257 55 Z M 265 375 L 267 376 L 268 397 L 269 398 L 269 405 L 271 412 L 271 418 L 273 425 L 273 433 L 274 434 L 274 443 L 275 444 L 275 451 L 272 453 L 269 453 L 266 451 L 267 433 L 266 432 L 265 407 L 264 406 L 264 399 L 263 398 L 263 380 Z M 246 375 L 248 379 L 248 398 L 247 399 L 245 424 L 244 425 L 244 449 L 245 451 L 239 453 L 236 451 L 236 441 L 237 440 L 238 424 L 239 423 L 239 417 L 240 416 L 242 398 L 243 397 L 244 376 Z M 273 374 L 275 377 L 276 384 L 278 388 L 278 393 L 280 400 L 280 406 L 281 407 L 284 430 L 285 431 L 287 444 L 289 448 L 289 451 L 285 453 L 281 453 L 279 451 L 277 425 L 275 418 L 275 411 L 273 405 L 272 388 L 271 387 L 271 375 Z M 239 374 L 240 375 L 240 388 L 239 389 L 239 397 L 238 398 L 237 411 L 236 412 L 235 423 L 233 430 L 232 451 L 227 453 L 222 451 L 222 446 L 224 442 L 227 424 L 228 423 L 228 418 L 229 417 L 229 412 L 230 411 L 233 389 L 237 375 Z M 279 373 L 282 375 L 286 385 L 289 403 L 290 404 L 291 415 L 292 416 L 295 431 L 300 444 L 300 447 L 298 449 L 294 449 L 292 447 L 292 444 L 290 440 L 289 430 L 287 424 L 287 418 L 285 412 L 283 393 L 281 388 L 280 380 L 278 376 Z M 232 373 L 233 376 L 228 393 L 228 398 L 227 399 L 227 404 L 226 405 L 226 410 L 225 411 L 225 417 L 223 423 L 222 433 L 221 434 L 218 448 L 217 449 L 213 449 L 210 447 L 210 444 L 213 439 L 216 430 L 216 427 L 220 414 L 222 398 L 223 397 L 225 385 L 229 375 Z M 260 356 L 263 351 L 267 349 L 272 349 L 277 352 L 279 356 L 279 362 L 274 364 L 263 365 L 260 361 Z M 234 353 L 239 349 L 245 349 L 247 350 L 251 355 L 251 362 L 249 365 L 243 365 L 242 364 L 233 363 L 232 362 L 232 357 Z M 255 347 L 258 349 L 258 352 L 256 354 L 255 354 L 253 351 L 253 349 Z M 258 339 L 259 338 L 262 338 L 266 345 L 265 346 L 261 346 L 258 342 Z M 253 338 L 254 340 L 250 347 L 246 345 L 247 341 L 250 338 Z M 248 327 L 249 326 L 262 326 L 264 328 L 264 331 L 261 334 L 251 334 L 248 331 Z M 267 315 L 266 319 L 263 322 L 249 322 L 247 321 L 245 318 L 245 314 L 248 311 L 261 311 L 263 310 Z M 281 281 L 286 282 L 290 286 L 290 291 L 284 296 L 279 295 L 275 290 L 276 285 Z M 228 281 L 233 282 L 236 286 L 236 291 L 235 293 L 230 296 L 224 294 L 222 291 L 222 286 L 223 284 Z M 253 276 L 259 276 L 264 278 L 269 283 L 271 288 L 271 296 L 269 300 L 264 305 L 260 307 L 252 307 L 249 306 L 243 301 L 240 294 L 240 289 L 242 284 L 248 278 Z M 300 268 L 306 268 L 308 269 L 312 273 L 314 277 L 314 280 L 312 285 L 305 290 L 298 289 L 292 282 L 293 274 Z M 206 268 L 214 269 L 218 273 L 220 278 L 218 285 L 211 290 L 204 289 L 199 284 L 198 281 L 199 274 Z M 320 251 L 328 251 L 330 252 L 334 256 L 336 260 L 336 265 L 334 269 L 327 274 L 319 273 L 313 266 L 313 258 L 314 256 Z M 180 253 L 184 251 L 192 251 L 194 252 L 199 258 L 199 266 L 193 273 L 185 274 L 178 269 L 176 265 L 176 260 Z M 340 229 L 346 230 L 352 237 L 352 244 L 350 248 L 343 252 L 340 252 L 335 250 L 330 243 L 330 238 L 332 234 L 335 231 Z M 170 229 L 177 231 L 182 238 L 182 242 L 180 247 L 177 250 L 172 252 L 166 251 L 162 248 L 160 244 L 160 237 L 162 233 L 166 230 L 169 230 Z M 351 205 L 354 205 L 359 207 L 362 210 L 364 215 L 364 219 L 362 223 L 359 226 L 354 228 L 351 228 L 345 225 L 341 218 L 341 215 L 344 209 L 346 207 Z M 158 205 L 161 205 L 167 208 L 170 212 L 170 215 L 171 216 L 170 221 L 168 224 L 161 228 L 158 228 L 153 226 L 148 219 L 148 214 L 150 210 L 153 207 Z M 355 179 L 363 180 L 367 184 L 369 188 L 369 193 L 367 197 L 364 200 L 359 202 L 353 201 L 347 195 L 347 186 L 351 181 Z M 149 180 L 157 179 L 161 181 L 165 186 L 165 189 L 166 190 L 163 198 L 159 201 L 156 201 L 155 202 L 150 201 L 145 197 L 143 193 L 144 185 Z M 355 153 L 362 153 L 364 154 L 369 159 L 370 162 L 369 169 L 362 175 L 353 174 L 349 170 L 347 165 L 349 158 Z M 150 153 L 157 153 L 159 154 L 164 160 L 164 168 L 163 170 L 156 175 L 150 175 L 148 174 L 142 167 L 142 161 L 143 159 Z M 349 127 L 355 127 L 359 129 L 363 135 L 363 142 L 362 144 L 356 149 L 348 149 L 346 148 L 342 144 L 341 141 L 341 135 L 343 131 Z M 157 127 L 163 127 L 167 129 L 171 135 L 170 144 L 164 149 L 156 149 L 154 148 L 149 142 L 149 135 L 151 131 Z M 337 101 L 344 101 L 346 102 L 350 106 L 352 111 L 352 114 L 350 119 L 343 124 L 335 123 L 329 116 L 329 109 L 330 107 Z M 168 101 L 175 101 L 177 102 L 183 109 L 183 116 L 177 123 L 169 124 L 165 122 L 161 117 L 160 114 L 161 107 Z M 320 78 L 329 79 L 333 83 L 335 88 L 332 97 L 325 101 L 318 100 L 312 93 L 312 85 L 313 83 Z M 186 78 L 195 79 L 199 83 L 201 89 L 200 94 L 196 99 L 191 101 L 184 100 L 178 93 L 179 83 Z M 229 75 L 238 79 L 246 79 L 257 72 L 264 78 L 275 79 L 283 74 L 290 85 L 306 86 L 310 99 L 325 106 L 325 117 L 328 123 L 339 129 L 336 137 L 337 143 L 346 153 L 343 167 L 349 177 L 342 188 L 346 202 L 337 214 L 339 224 L 328 232 L 326 245 L 315 249 L 307 264 L 296 265 L 287 278 L 280 277 L 273 281 L 261 272 L 248 273 L 239 281 L 231 277 L 225 278 L 217 266 L 204 263 L 197 249 L 186 245 L 185 234 L 179 227 L 173 225 L 175 214 L 166 202 L 170 188 L 163 176 L 169 166 L 166 153 L 174 146 L 176 139 L 173 129 L 185 121 L 186 106 L 196 104 L 202 99 L 206 86 L 218 87 L 227 80 Z M 295 60 L 302 60 L 306 62 L 310 68 L 310 75 L 304 82 L 296 83 L 292 81 L 288 76 L 288 67 L 289 65 Z M 210 60 L 219 61 L 223 65 L 225 70 L 225 73 L 223 78 L 216 83 L 208 82 L 202 75 L 202 68 L 204 64 Z M 269 51 L 272 51 L 277 53 L 282 60 L 282 67 L 281 69 L 277 73 L 273 75 L 269 75 L 264 73 L 259 66 L 259 60 L 261 56 L 264 53 Z M 240 51 L 243 51 L 248 53 L 253 59 L 253 67 L 252 69 L 248 73 L 244 75 L 240 75 L 235 73 L 230 66 L 230 60 L 232 56 L 235 53 Z" fill="#B88A44" fill-rule="evenodd"/>
</svg>
