<svg xmlns="http://www.w3.org/2000/svg" viewBox="0 0 512 512" >
  <path d="M 119 241 L 116 241 L 112 244 L 111 246 L 111 251 L 113 253 L 119 250 L 121 246 L 121 243 Z M 159 199 L 157 197 L 148 197 L 141 202 L 139 206 L 139 209 L 141 210 L 150 210 L 156 206 Z M 80 122 L 74 150 L 85 170 L 65 182 L 100 208 L 84 251 L 99 266 L 143 264 L 169 333 L 159 401 L 190 400 L 204 340 L 207 368 L 198 400 L 231 401 L 246 322 L 318 325 L 328 352 L 312 392 L 316 402 L 346 399 L 370 330 L 380 366 L 369 398 L 405 400 L 417 331 L 411 296 L 425 238 L 428 281 L 419 315 L 436 335 L 447 314 L 436 287 L 434 233 L 406 199 L 377 189 L 296 195 L 228 183 L 208 170 L 219 136 L 199 110 L 192 142 L 168 156 L 108 149 L 98 136 L 96 110 Z M 176 321 L 178 321 L 189 326 L 197 327 L 198 328 L 198 331 L 193 343 L 192 351 L 191 352 L 191 358 L 190 359 L 191 377 L 184 385 L 184 392 L 183 393 L 167 393 L 166 391 L 170 382 L 174 376 L 177 366 L 177 360 L 178 359 L 178 343 L 177 342 L 177 334 L 176 333 L 176 326 L 175 325 L 175 322 Z M 350 312 L 358 321 L 360 325 L 360 331 L 353 345 L 350 354 L 348 369 L 347 370 L 347 375 L 345 378 L 340 381 L 339 392 L 338 393 L 322 393 L 321 390 L 331 373 L 334 364 L 335 353 L 336 352 L 335 338 L 331 329 L 326 323 L 326 321 L 328 319 L 330 319 L 340 314 L 346 312 Z M 431 296 L 433 296 L 438 303 L 438 315 L 437 316 L 437 319 L 434 323 L 432 322 L 427 313 L 427 303 L 429 298 Z M 92 243 L 93 242 L 95 243 L 95 247 L 97 251 L 102 252 L 103 251 L 102 245 L 99 241 L 95 241 L 94 240 L 95 238 L 97 237 L 120 237 L 122 238 L 126 243 L 126 254 L 123 257 L 120 258 L 98 257 L 93 251 Z M 187 201 L 207 201 L 221 192 L 236 191 L 285 203 L 377 198 L 403 208 L 413 222 L 415 251 L 403 294 L 409 329 L 404 347 L 405 375 L 398 383 L 398 392 L 379 392 L 388 366 L 386 340 L 355 303 L 347 284 L 342 283 L 344 304 L 298 319 L 248 314 L 248 301 L 241 298 L 230 351 L 231 380 L 225 393 L 208 393 L 216 355 L 194 287 L 189 290 L 197 317 L 179 312 L 168 301 L 149 258 L 181 234 L 187 218 Z M 76 183 L 78 181 L 81 181 L 82 180 L 91 180 L 92 181 L 100 182 L 101 183 L 101 186 L 99 188 L 99 190 L 97 193 L 89 193 L 82 190 Z M 217 182 L 217 184 L 212 189 L 203 193 L 195 193 L 185 189 L 181 189 L 178 195 L 179 196 L 179 215 L 174 229 L 165 237 L 137 252 L 135 251 L 133 238 L 127 231 L 123 229 L 104 229 L 103 228 L 108 214 L 106 193 L 110 186 L 114 174 L 120 168 L 126 165 L 139 162 L 153 162 L 163 164 L 169 178 L 180 185 L 185 185 L 198 180 L 212 180 Z M 206 129 L 209 133 L 210 141 L 211 142 L 210 144 L 210 149 L 204 161 L 194 170 L 183 175 L 177 173 L 173 168 L 173 164 L 177 161 L 180 161 L 189 157 L 198 149 L 203 140 L 204 130 Z M 87 128 L 89 129 L 90 140 L 95 149 L 102 156 L 113 161 L 113 163 L 105 172 L 103 172 L 95 167 L 89 161 L 84 153 L 84 150 L 83 149 L 83 136 Z" fill="#B88A44" fill-rule="evenodd"/>
</svg>
