<svg xmlns="http://www.w3.org/2000/svg" viewBox="0 0 512 512" >
  <path d="M 255 65 L 230 116 L 231 133 L 239 150 L 176 154 L 142 166 L 146 193 L 140 199 L 156 236 L 183 257 L 211 263 L 214 277 L 223 281 L 227 290 L 212 323 L 218 353 L 211 369 L 193 379 L 177 397 L 175 406 L 163 417 L 162 431 L 172 440 L 212 446 L 284 447 L 333 442 L 348 436 L 350 419 L 326 386 L 301 369 L 301 359 L 295 353 L 300 320 L 286 288 L 300 275 L 302 263 L 334 255 L 356 237 L 373 198 L 367 193 L 371 166 L 337 154 L 274 150 L 282 132 L 282 113 Z M 169 421 L 171 417 L 177 413 L 190 417 L 228 421 L 299 420 L 322 417 L 336 413 L 343 419 L 344 429 L 342 432 L 337 434 L 312 438 L 285 440 L 229 440 L 202 438 L 176 434 L 169 430 Z M 181 403 L 184 401 L 186 403 L 193 405 L 205 406 L 206 407 L 216 407 L 217 408 L 271 409 L 272 408 L 307 407 L 308 406 L 324 404 L 330 401 L 331 406 L 329 408 L 323 410 L 303 412 L 302 413 L 227 414 L 226 413 L 211 413 L 210 412 L 190 410 L 183 408 L 181 406 Z M 191 393 L 193 389 L 198 384 L 215 375 L 227 378 L 249 379 L 250 380 L 277 379 L 278 378 L 286 378 L 298 375 L 316 385 L 320 390 L 322 396 L 319 398 L 315 398 L 314 399 L 297 400 L 296 401 L 234 402 L 233 401 L 217 401 L 216 400 L 206 400 L 205 399 L 193 398 L 191 396 Z M 218 362 L 221 359 L 233 360 L 234 361 L 247 361 L 248 362 L 265 362 L 266 361 L 278 361 L 279 360 L 292 359 L 295 363 L 295 367 L 293 369 L 286 371 L 266 372 L 265 373 L 248 373 L 247 372 L 236 372 L 235 371 L 222 370 L 218 367 Z M 222 314 L 229 305 L 233 305 L 238 307 L 246 307 L 247 308 L 265 308 L 266 307 L 273 307 L 274 306 L 284 305 L 289 311 L 293 320 L 294 332 L 293 333 L 292 341 L 285 353 L 268 354 L 267 355 L 245 355 L 244 354 L 228 353 L 222 344 L 219 334 L 219 323 Z M 233 284 L 234 283 L 237 284 L 275 284 L 276 283 L 279 283 L 280 284 L 280 287 L 279 288 L 279 295 L 280 297 L 278 299 L 265 300 L 264 301 L 246 301 L 245 300 L 235 299 L 233 297 L 234 294 Z M 219 268 L 222 265 L 226 265 L 227 266 L 251 266 L 252 267 L 291 265 L 293 267 L 294 271 L 291 274 L 284 276 L 277 276 L 276 277 L 237 277 L 236 276 L 229 276 L 222 274 L 219 272 Z M 322 205 L 325 209 L 328 217 L 328 231 L 324 241 L 316 250 L 307 255 L 301 257 L 286 259 L 285 256 L 288 251 L 290 244 L 290 232 L 302 217 L 317 206 Z M 191 205 L 193 205 L 203 211 L 218 225 L 223 233 L 222 236 L 223 245 L 225 252 L 228 257 L 227 259 L 212 257 L 203 254 L 198 251 L 190 243 L 185 233 L 185 230 L 184 229 L 184 219 L 187 210 Z M 362 202 L 363 205 L 361 208 L 359 216 L 351 232 L 348 236 L 339 244 L 329 249 L 328 246 L 330 244 L 334 235 L 334 232 L 335 231 L 335 220 L 337 217 L 345 209 L 351 205 L 358 202 Z M 150 201 L 155 202 L 165 207 L 175 216 L 177 219 L 178 233 L 181 239 L 181 241 L 185 247 L 184 249 L 182 249 L 172 243 L 161 231 L 157 224 L 152 209 L 149 203 Z M 255 200 L 259 201 L 266 206 L 277 217 L 282 226 L 282 229 L 283 230 L 283 244 L 280 252 L 274 259 L 270 259 L 269 260 L 243 260 L 242 259 L 238 259 L 232 251 L 230 245 L 230 241 L 229 240 L 229 236 L 230 235 L 229 233 L 232 223 L 241 211 Z M 150 178 L 153 177 L 166 181 L 198 185 L 239 187 L 314 185 L 341 182 L 360 177 L 363 178 L 359 194 L 346 200 L 334 210 L 322 196 L 302 208 L 289 221 L 286 220 L 281 211 L 272 202 L 255 192 L 242 201 L 224 222 L 212 209 L 191 196 L 187 198 L 179 210 L 170 202 L 154 194 Z M 256 163 L 258 164 L 258 170 L 259 171 L 259 179 L 258 180 L 254 180 L 253 179 L 254 169 Z M 264 158 L 265 157 L 283 157 L 284 158 L 305 158 L 306 159 L 328 160 L 329 161 L 336 161 L 337 162 L 343 162 L 349 164 L 354 164 L 360 166 L 362 169 L 359 171 L 356 171 L 352 173 L 342 174 L 341 175 L 335 175 L 334 176 L 326 176 L 325 177 L 317 177 L 316 178 L 303 178 L 302 179 L 277 179 L 276 180 L 267 180 L 266 179 L 266 173 L 265 172 Z M 249 158 L 247 178 L 245 180 L 237 180 L 236 179 L 210 179 L 209 178 L 197 178 L 196 177 L 178 176 L 177 175 L 161 173 L 150 169 L 152 166 L 155 166 L 159 164 L 169 163 L 170 162 L 176 162 L 177 161 L 184 161 L 185 160 L 206 159 L 207 158 L 227 158 L 228 157 L 248 157 Z M 256 124 L 258 125 L 263 137 L 263 145 L 261 150 L 257 155 L 256 155 L 251 149 L 249 142 L 251 132 Z M 256 81 L 258 82 L 260 87 L 271 104 L 276 117 L 276 127 L 275 128 L 275 132 L 272 137 L 269 136 L 269 132 L 262 118 L 260 116 L 260 114 L 258 112 L 255 112 L 253 114 L 249 123 L 245 129 L 244 134 L 242 137 L 240 136 L 237 129 L 237 116 L 239 110 Z" fill="#B88A44" fill-rule="evenodd"/>
</svg>
