<svg xmlns="http://www.w3.org/2000/svg" viewBox="0 0 512 512" >
  <path d="M 243 161 L 215 167 L 194 176 L 174 189 L 153 210 L 142 226 L 129 256 L 124 285 L 125 310 L 131 335 L 142 359 L 157 380 L 176 398 L 196 411 L 218 420 L 241 425 L 270 425 L 294 420 L 321 408 L 340 395 L 360 374 L 374 352 L 382 332 L 387 309 L 387 276 L 382 253 L 370 226 L 339 190 L 318 176 L 294 166 L 270 161 Z M 247 167 L 292 172 L 314 181 L 334 194 L 348 207 L 365 230 L 376 255 L 381 278 L 381 307 L 377 327 L 363 359 L 348 379 L 333 393 L 311 407 L 287 416 L 260 420 L 240 419 L 212 412 L 173 388 L 154 367 L 140 342 L 130 299 L 131 277 L 138 249 L 148 228 L 162 209 L 178 194 L 202 179 L 220 172 Z M 249 54 L 230 63 L 217 84 L 219 108 L 230 122 L 221 141 L 191 152 L 162 170 L 123 215 L 106 259 L 103 305 L 108 334 L 122 368 L 160 413 L 182 428 L 215 442 L 273 447 L 328 429 L 372 393 L 401 342 L 409 285 L 400 239 L 380 201 L 344 165 L 290 141 L 282 122 L 294 104 L 293 79 L 276 59 Z M 242 147 L 271 147 L 297 152 L 329 166 L 351 182 L 382 221 L 395 252 L 400 279 L 400 306 L 394 335 L 382 363 L 367 385 L 346 406 L 324 421 L 292 434 L 271 438 L 241 438 L 213 432 L 186 420 L 163 404 L 130 364 L 117 333 L 112 309 L 112 276 L 117 252 L 130 221 L 145 199 L 184 166 L 213 153 Z M 231 139 L 238 129 L 238 124 L 239 122 L 243 118 L 249 115 L 254 115 L 255 114 L 262 115 L 267 117 L 272 122 L 274 127 L 274 131 L 279 136 L 278 139 L 272 139 L 271 138 L 242 138 L 241 139 L 235 139 L 234 140 Z M 233 76 L 241 69 L 247 66 L 251 66 L 252 65 L 260 65 L 271 69 L 280 78 L 284 88 L 284 98 L 283 99 L 283 102 L 277 112 L 274 112 L 271 109 L 263 106 L 249 106 L 248 107 L 245 107 L 237 112 L 235 112 L 229 103 L 228 96 L 227 95 L 228 86 Z" fill="#B88A44" fill-rule="evenodd"/>
</svg>
