<svg xmlns="http://www.w3.org/2000/svg" viewBox="0 0 512 512" >
  <path d="M 394 253 L 392 255 L 392 259 L 395 262 L 394 264 L 394 277 L 395 279 L 398 279 L 399 275 L 398 274 L 398 264 L 397 261 L 400 258 L 400 256 L 398 253 Z M 118 253 L 114 253 L 112 255 L 112 258 L 113 260 L 115 261 L 115 263 L 113 266 L 113 278 L 114 279 L 117 278 L 117 275 L 118 274 L 118 265 L 116 263 L 120 258 L 120 255 Z M 392 181 L 391 191 L 383 194 L 380 200 L 383 204 L 381 207 L 381 213 L 383 215 L 381 218 L 381 223 L 385 227 L 392 227 L 393 233 L 386 237 L 379 237 L 375 235 L 372 237 L 373 239 L 381 242 L 392 239 L 393 243 L 383 248 L 375 246 L 373 247 L 373 249 L 375 251 L 384 252 L 397 247 L 405 251 L 411 251 L 417 249 L 418 246 L 414 245 L 407 247 L 397 242 L 398 238 L 408 241 L 418 236 L 417 234 L 414 234 L 406 237 L 397 233 L 397 228 L 405 226 L 409 221 L 409 218 L 405 214 L 408 211 L 408 207 L 405 204 L 408 198 L 406 194 L 403 192 L 396 191 L 396 184 L 394 181 Z M 385 221 L 385 219 L 388 217 L 403 217 L 405 219 L 405 220 L 401 223 L 387 223 Z M 385 211 L 385 209 L 387 207 L 392 207 L 393 206 L 401 206 L 404 208 L 404 210 L 402 212 L 397 212 L 396 213 L 387 213 Z M 385 201 L 385 198 L 388 196 L 402 196 L 404 198 L 401 202 L 386 202 Z M 118 181 L 116 186 L 116 191 L 109 192 L 104 197 L 104 200 L 106 202 L 104 211 L 106 214 L 103 218 L 103 222 L 107 226 L 114 227 L 115 232 L 108 236 L 101 236 L 98 234 L 94 235 L 95 238 L 104 241 L 113 239 L 114 242 L 105 247 L 95 245 L 94 248 L 101 251 L 106 251 L 117 247 L 125 251 L 132 252 L 138 250 L 139 248 L 137 246 L 129 248 L 118 242 L 119 239 L 128 242 L 139 239 L 138 235 L 132 237 L 126 237 L 119 233 L 120 227 L 126 227 L 131 223 L 131 219 L 129 216 L 131 212 L 131 208 L 129 206 L 129 204 L 131 202 L 132 198 L 129 194 L 120 191 L 121 182 Z M 107 219 L 109 217 L 124 217 L 127 219 L 127 221 L 125 223 L 111 223 L 109 222 Z M 108 208 L 111 206 L 125 207 L 127 209 L 127 211 L 125 213 L 109 212 L 108 211 Z M 108 198 L 110 196 L 124 196 L 127 198 L 127 201 L 126 202 L 111 202 Z M 370 185 L 372 187 L 374 187 L 383 182 L 392 174 L 396 175 L 400 179 L 411 185 L 415 185 L 416 182 L 407 178 L 401 174 L 394 167 L 394 165 L 396 163 L 396 159 L 394 157 L 391 157 L 389 159 L 389 163 L 392 167 L 382 177 L 371 183 Z M 96 182 L 97 185 L 101 185 L 107 182 L 119 173 L 125 179 L 132 184 L 138 187 L 141 186 L 141 183 L 130 177 L 120 167 L 123 163 L 123 159 L 121 157 L 118 157 L 116 158 L 115 162 L 118 165 L 118 167 L 111 174 L 105 178 Z M 73 130 L 65 181 L 71 276 L 90 287 L 123 290 L 188 263 L 158 341 L 148 407 L 152 411 L 229 350 L 245 252 L 262 253 L 296 412 L 347 336 L 339 301 L 318 258 L 389 290 L 418 288 L 443 272 L 443 140 L 422 121 L 346 105 L 223 101 L 123 112 Z M 226 236 L 230 243 L 220 257 L 208 287 L 210 287 L 228 252 L 233 246 L 237 248 L 239 252 L 234 274 L 229 321 L 224 346 L 195 365 L 157 397 L 156 388 L 162 351 L 171 315 L 180 290 L 189 272 L 202 254 L 211 245 Z M 280 231 L 288 236 L 302 250 L 318 272 L 334 305 L 341 330 L 340 336 L 317 367 L 299 398 L 295 391 L 285 350 L 267 247 L 272 243 L 276 245 L 286 263 L 298 296 L 297 283 L 292 267 L 277 239 Z M 274 214 L 275 215 L 275 221 L 276 223 L 273 233 L 266 241 L 262 242 L 261 241 L 261 237 L 264 228 L 271 215 Z M 266 197 L 271 201 L 271 205 L 261 221 L 261 223 L 258 228 L 255 237 L 255 240 L 253 241 L 248 236 L 245 230 L 244 230 L 245 236 L 249 244 L 248 245 L 244 245 L 240 243 L 232 234 L 232 232 L 230 229 L 230 224 L 229 223 L 230 213 L 235 202 L 240 197 L 244 195 L 249 195 L 250 196 L 245 204 L 243 210 L 243 214 L 242 215 L 242 222 L 243 224 L 244 223 L 244 218 L 247 209 L 250 204 L 255 199 L 259 197 Z M 437 145 L 440 181 L 440 244 L 437 269 L 429 277 L 410 283 L 386 283 L 369 278 L 303 243 L 285 227 L 286 225 L 304 227 L 342 239 L 317 226 L 282 219 L 286 213 L 320 203 L 320 201 L 280 211 L 277 200 L 308 180 L 341 165 L 391 152 Z M 75 145 L 115 151 L 162 162 L 202 179 L 231 197 L 225 208 L 197 201 L 222 211 L 224 216 L 221 219 L 189 227 L 170 239 L 194 229 L 218 223 L 224 225 L 224 230 L 172 263 L 134 281 L 112 284 L 97 282 L 81 276 L 75 270 L 71 231 Z M 78 135 L 105 123 L 156 113 L 208 108 L 276 107 L 377 116 L 422 128 L 432 133 L 434 137 L 337 160 L 308 173 L 273 194 L 255 189 L 236 192 L 175 160 L 141 150 L 84 140 Z" fill="#B88A44" fill-rule="evenodd"/>
</svg>
