<svg xmlns="http://www.w3.org/2000/svg" viewBox="0 0 512 512" >
  <path d="M 247 65 L 224 70 L 213 82 L 216 110 L 206 122 L 206 132 L 218 145 L 216 206 L 208 228 L 167 290 L 159 320 L 159 345 L 168 379 L 191 411 L 187 426 L 194 436 L 227 446 L 286 446 L 309 441 L 324 431 L 326 421 L 322 411 L 340 389 L 350 365 L 354 321 L 345 288 L 305 227 L 297 203 L 295 145 L 307 132 L 306 119 L 297 110 L 299 79 L 283 68 Z M 197 422 L 199 418 L 203 418 L 214 423 L 222 424 L 223 425 L 228 425 L 229 426 L 237 426 L 238 427 L 276 427 L 277 426 L 284 426 L 285 425 L 295 424 L 305 421 L 310 418 L 313 418 L 315 420 L 316 424 L 313 428 L 307 431 L 297 433 L 296 434 L 292 434 L 291 435 L 276 436 L 275 437 L 239 437 L 238 436 L 222 435 L 221 434 L 217 434 L 216 433 L 206 431 L 200 428 L 198 426 Z M 229 147 L 252 150 L 285 148 L 285 190 L 292 222 L 299 237 L 329 279 L 342 310 L 344 345 L 336 375 L 324 395 L 313 406 L 300 413 L 280 417 L 246 418 L 211 412 L 200 406 L 188 394 L 172 360 L 169 345 L 172 306 L 184 279 L 212 241 L 222 221 L 228 193 Z M 216 124 L 219 120 L 221 120 L 228 123 L 237 124 L 238 125 L 266 126 L 267 125 L 275 125 L 276 124 L 285 123 L 293 120 L 297 124 L 297 130 L 292 135 L 282 138 L 266 139 L 265 140 L 247 140 L 246 139 L 230 138 L 221 135 L 216 130 Z M 223 84 L 225 81 L 235 77 L 246 76 L 247 75 L 266 75 L 267 76 L 278 77 L 284 79 L 289 82 L 289 93 L 288 94 L 287 111 L 280 114 L 267 115 L 266 116 L 246 116 L 245 115 L 238 115 L 237 114 L 229 113 L 226 111 L 225 95 L 224 94 L 224 86 Z" fill="#B88A44" fill-rule="evenodd"/>
</svg>
