<svg xmlns="http://www.w3.org/2000/svg" viewBox="0 0 512 512" >
  <path d="M 138 232 L 139 234 L 150 234 L 151 233 L 156 233 L 165 230 L 175 224 L 182 217 L 185 212 L 185 210 L 187 209 L 201 222 L 205 224 L 219 227 L 228 232 L 236 240 L 240 246 L 240 243 L 237 237 L 230 229 L 218 222 L 204 218 L 200 215 L 191 205 L 186 202 L 184 202 L 181 205 L 180 210 L 176 216 L 168 223 L 155 229 Z M 445 259 L 421 214 L 379 172 L 332 143 L 287 134 L 267 142 L 248 164 L 207 157 L 170 158 L 134 166 L 98 185 L 83 203 L 77 227 L 66 245 L 66 313 L 78 337 L 117 364 L 161 376 L 218 376 L 253 368 L 287 351 L 308 329 L 315 304 L 371 333 L 399 335 L 414 329 L 445 287 Z M 72 276 L 74 275 L 91 292 L 116 306 L 159 318 L 203 320 L 237 315 L 265 306 L 294 288 L 307 298 L 307 313 L 299 330 L 286 343 L 257 359 L 218 369 L 192 371 L 162 369 L 138 364 L 116 356 L 97 345 L 81 330 L 76 322 L 72 308 Z M 72 251 L 73 246 L 76 244 L 78 252 L 88 268 L 111 286 L 140 298 L 163 303 L 184 305 L 220 303 L 252 295 L 272 286 L 284 278 L 289 283 L 277 292 L 261 300 L 236 308 L 201 313 L 161 311 L 125 302 L 96 287 L 80 272 L 74 261 Z M 83 243 L 85 242 L 101 259 L 115 268 L 133 276 L 159 283 L 185 286 L 221 284 L 247 278 L 272 267 L 275 267 L 279 273 L 256 286 L 225 295 L 194 298 L 164 296 L 132 288 L 111 278 L 92 262 L 85 251 Z M 89 230 L 95 216 L 108 202 L 118 195 L 138 186 L 177 178 L 207 178 L 223 180 L 236 184 L 236 199 L 241 216 L 251 236 L 268 261 L 252 269 L 221 277 L 200 279 L 166 277 L 134 269 L 110 257 L 92 240 Z M 242 171 L 239 176 L 207 171 L 179 171 L 148 176 L 132 181 L 115 189 L 102 198 L 93 207 L 90 212 L 88 211 L 88 209 L 94 199 L 107 187 L 125 177 L 145 170 L 181 164 L 205 164 L 234 168 Z M 258 163 L 261 164 L 261 174 L 264 185 L 273 204 L 298 238 L 325 264 L 361 289 L 394 303 L 405 305 L 423 304 L 424 306 L 410 323 L 399 328 L 382 328 L 358 321 L 320 299 L 299 282 L 279 262 L 256 231 L 244 204 L 242 193 L 244 181 Z M 270 152 L 277 145 L 285 142 L 297 141 L 310 143 L 346 158 L 378 180 L 409 210 L 427 235 L 436 254 L 440 270 L 437 287 L 430 294 L 423 297 L 400 297 L 381 291 L 361 281 L 336 264 L 303 233 L 281 204 L 268 174 L 267 161 Z" fill="#B88A44" fill-rule="evenodd"/>
</svg>
