<svg xmlns="http://www.w3.org/2000/svg" width="512" height="512" viewBox="0 0 512 512" aria-hidden="true" focusable="false"><path fill="currentColor" fill-rule="evenodd" clip-rule="evenodd" d="M255 17 L247 60 L252 82 L245 168 L236 215 L228 220 L229 246 L222 257 L217 298 L213 306 L209 305 L206 338 L199 343 L203 354 L196 356 L190 366 L195 379 L182 388 L178 410 L163 420 L140 389 L132 393 L136 382 L123 358 L122 382 L116 396 L119 416 L139 430 L138 437 L128 435 L131 461 L155 473 L155 481 L147 486 L144 496 L368 496 L366 487 L357 481 L357 473 L372 469 L383 458 L384 434 L374 437 L373 431 L394 414 L391 361 L388 359 L377 380 L380 397 L372 389 L349 421 L335 411 L334 395 L318 379 L322 366 L316 356 L309 354 L314 345 L307 338 L304 306 L299 306 L295 297 L291 259 L283 246 L285 221 L276 214 L278 205 L269 176 L262 112 L264 39 Z M149 490 L155 485 L252 485 L255 488 L258 488 L260 485 L357 485 L363 491 L150 492 Z M265 480 L267 472 L353 472 L354 473 L352 481 L266 481 Z M159 473 L160 472 L245 472 L247 480 L246 481 L160 481 Z M255 468 L259 469 L263 473 L263 476 L257 482 L255 482 L249 475 L250 472 Z M270 466 L273 465 L274 467 L271 468 Z M154 459 L156 458 L157 460 L155 461 Z M321 451 L322 453 L318 462 L313 466 L312 464 L316 458 L316 453 Z M233 451 L242 453 L246 456 L246 459 L244 461 L241 459 L238 459 L238 463 L242 466 L241 468 L236 466 L232 460 Z M191 451 L196 453 L197 460 L200 464 L199 466 L194 462 L190 453 Z M279 450 L280 451 L280 461 L276 466 L273 465 L274 459 L268 461 L266 457 L268 454 L274 453 Z M256 450 L262 457 L263 461 L261 465 L258 464 L251 465 L250 464 L250 457 Z M357 460 L353 461 L336 457 L325 459 L324 457 L326 453 L331 449 L336 448 L341 453 L342 448 L345 447 L349 454 L356 458 Z M157 459 L163 454 L164 451 L168 447 L171 449 L172 453 L174 452 L176 448 L179 448 L183 450 L188 457 L187 459 L180 457 L170 458 L165 460 Z M312 443 L313 444 L313 455 L311 457 L306 458 L305 457 L306 446 Z M380 440 L381 447 L380 455 L377 460 L370 466 L364 468 L320 468 L319 467 L320 465 L331 461 L338 461 L350 464 L364 463 L371 459 L374 454 L374 449 L371 450 L368 449 L367 444 L372 440 L375 441 L378 439 Z M132 440 L133 439 L135 441 L141 440 L145 444 L145 448 L143 450 L138 449 L139 456 L148 463 L162 464 L180 461 L186 462 L192 465 L193 467 L192 468 L148 468 L138 463 L132 454 Z M317 438 L320 440 L321 443 L319 447 L316 446 Z M193 437 L196 439 L195 448 L191 445 Z M322 432 L323 431 L345 431 L347 434 L346 437 L348 439 L348 442 L343 443 L341 445 L326 445 L322 439 Z M313 435 L314 431 L318 432 L315 436 Z M193 432 L198 431 L199 434 L195 435 Z M164 443 L164 440 L166 438 L165 434 L167 431 L189 431 L190 432 L190 439 L186 445 L179 444 L172 445 L170 443 L167 444 Z M303 427 L306 428 L310 435 L310 439 L308 441 L306 440 L306 435 L301 436 L299 434 L302 431 Z M208 426 L210 428 L210 431 L213 434 L211 436 L207 434 L206 440 L204 441 L202 439 L202 435 L206 427 Z M256 424 L263 432 L262 442 L265 443 L265 440 L268 438 L273 446 L271 450 L266 451 L264 453 L256 444 L249 453 L239 448 L244 438 L248 441 L248 443 L250 443 L251 439 L249 434 L250 431 Z M353 421 L355 421 L360 426 L359 440 L365 450 L369 453 L368 455 L364 455 L360 453 L354 447 L352 443 L351 426 Z M159 420 L162 430 L160 444 L153 453 L144 455 L143 453 L147 450 L153 441 L154 434 L152 424 Z M301 416 L302 415 L335 415 L339 417 L345 423 L346 426 L345 427 L309 427 Z M167 426 L168 422 L172 418 L178 415 L210 415 L211 416 L210 419 L206 422 L203 427 L168 427 Z M389 413 L390 414 L389 416 L385 416 L386 419 L385 422 L382 423 L381 420 L378 419 L372 424 L370 428 L370 437 L366 439 L365 438 L365 427 L369 420 L378 414 Z M123 412 L134 414 L144 421 L147 427 L148 433 L146 439 L143 437 L142 427 L140 424 L134 419 L132 419 L131 422 L129 423 L126 420 L127 416 L122 415 Z M151 408 L155 412 L156 415 L155 418 L151 415 L149 411 Z M308 408 L310 407 L311 409 L309 410 Z M201 408 L203 407 L204 409 L202 410 Z M314 406 L315 405 L330 405 L331 410 L330 411 L315 411 Z M292 406 L293 405 L304 405 L305 410 L297 411 Z M207 410 L208 405 L220 405 L221 406 L216 411 Z M181 406 L182 405 L197 405 L198 410 L197 411 L182 411 Z M255 403 L257 403 L264 410 L264 412 L279 425 L282 433 L282 438 L287 439 L293 444 L293 448 L295 450 L291 461 L285 467 L282 466 L284 459 L283 444 L277 445 L271 435 L267 433 L261 425 L257 416 L255 416 L247 431 L241 435 L241 438 L237 444 L231 444 L229 446 L230 465 L226 466 L220 459 L220 443 L225 439 L231 438 L231 430 L234 424 L253 407 Z M280 399 L282 399 L288 406 L289 411 L287 416 L284 414 L283 408 L279 409 L276 406 L279 403 Z M232 398 L236 406 L233 409 L229 408 L229 413 L225 416 L223 411 L224 406 Z M284 396 L285 395 L329 395 L331 397 L331 401 L330 402 L289 402 Z M181 401 L181 397 L183 395 L227 395 L228 396 L222 402 L182 402 Z M392 393 L393 400 L390 406 L386 409 L380 410 L379 408 L386 403 L389 399 L390 394 Z M299 418 L299 431 L291 431 L300 439 L302 444 L302 454 L298 464 L300 464 L303 459 L309 461 L301 468 L291 467 L298 455 L298 446 L293 438 L285 434 L285 429 L281 422 L264 406 L256 396 L250 404 L232 421 L228 427 L227 434 L221 437 L214 446 L214 454 L221 467 L208 467 L203 462 L205 457 L201 457 L199 454 L199 444 L204 444 L206 441 L206 451 L208 458 L215 464 L210 454 L210 444 L212 439 L221 430 L214 433 L212 432 L212 421 L214 417 L219 413 L221 415 L221 419 L223 420 L223 426 L256 388 L285 420 L289 428 L289 420 L291 419 L292 413 L294 412 Z M268 384 L272 387 L277 394 L275 403 L272 402 L272 395 L270 394 L266 396 L263 391 L264 389 L266 389 Z M244 384 L246 386 L246 389 L249 388 L250 390 L246 396 L242 394 L240 395 L240 401 L239 404 L237 405 L235 395 L236 392 Z M275 383 L319 383 L327 391 L326 392 L280 392 L274 386 Z M186 389 L194 383 L238 383 L239 384 L234 389 L233 392 L187 392 Z M267 376 L268 375 L313 375 L314 378 L313 379 L268 379 Z M198 376 L199 375 L244 375 L245 378 L244 379 L199 379 Z M389 371 L390 375 L387 380 L389 387 L387 390 L386 399 L380 405 L376 407 L360 424 L357 418 L357 413 L361 408 L363 409 L363 413 L366 412 L365 405 L372 395 L374 394 L376 396 L375 402 L379 402 L384 397 L384 390 L380 386 L380 381 Z M124 369 L126 370 L126 374 L132 380 L132 385 L128 392 L129 398 L133 402 L137 402 L137 395 L139 394 L146 401 L147 404 L146 411 L153 419 L152 424 L141 413 L137 411 L129 410 L121 404 L120 393 L124 392 L123 386 L125 383 L125 379 L122 375 Z M386 369 L388 368 L389 370 L387 371 Z M263 367 L264 366 L318 366 L319 370 L317 372 L265 372 L263 370 Z M194 371 L194 368 L196 366 L249 366 L250 367 L248 372 L195 372 Z M256 364 L258 365 L264 377 L263 385 L264 389 L263 390 L261 389 L259 385 L254 384 L251 389 L249 388 L248 378 Z M259 360 L260 359 L312 359 L313 361 L312 362 L260 362 Z M253 359 L252 362 L200 362 L199 361 L200 359 L250 359 L251 358 Z M207 353 L208 352 L304 352 L305 354 L304 355 L208 355 Z M203 343 L204 342 L308 342 L310 346 L308 348 L204 348 Z M209 337 L210 336 L302 336 L303 338 L302 339 L210 339 Z M284 332 L287 327 L288 320 L297 326 L297 328 L292 332 L289 333 Z M215 326 L220 324 L224 320 L226 322 L226 328 L228 332 L227 333 L221 332 Z M255 319 L257 319 L263 326 L262 332 L252 332 L249 329 L249 326 Z M234 318 L235 323 L232 324 L232 326 L230 327 L229 323 L231 319 Z M279 317 L281 318 L283 322 L282 325 L279 325 L277 322 L277 319 Z M299 311 L301 312 L304 320 L304 329 L301 332 L299 331 L301 327 L300 320 L296 322 L294 321 L294 316 Z M213 311 L219 317 L219 320 L217 322 L212 320 L211 326 L213 331 L211 332 L208 328 L208 321 L211 312 Z M256 296 L258 297 L265 310 L263 315 L264 318 L266 318 L266 316 L270 314 L274 321 L275 326 L271 332 L268 331 L269 323 L265 323 L257 312 L254 313 L252 318 L248 322 L244 322 L243 332 L241 332 L238 328 L238 322 L242 314 L244 313 L247 317 L249 317 L248 308 Z M274 234 L276 234 L280 239 L279 244 L274 241 L273 237 Z M245 234 L267 234 L271 238 L271 244 L285 254 L290 292 L296 308 L289 319 L284 318 L281 312 L275 316 L257 288 L237 316 L231 312 L226 318 L216 310 L223 288 L226 257 L231 249 L242 243 Z M239 235 L238 241 L234 243 L233 237 L236 234 Z M231 224 L252 221 L252 220 L239 219 L238 217 L242 213 L270 213 L274 217 L273 219 L261 220 L261 221 L266 223 L280 223 L281 229 L280 230 L232 230 Z M238 207 L243 204 L268 204 L272 205 L274 208 L273 209 L239 209 Z M241 198 L243 196 L269 196 L271 199 L267 201 L245 201 L242 200 Z M243 188 L246 186 L266 186 L270 190 L268 192 L245 192 Z M245 180 L247 178 L265 178 L268 181 L258 183 L257 182 L246 182 Z M247 172 L249 170 L263 170 L266 172 L265 175 L258 174 L250 175 Z M248 163 L254 161 L260 161 L263 162 L265 165 L264 166 L261 165 L259 167 L252 167 Z M249 155 L257 153 L262 154 L263 157 L262 158 L250 158 Z M251 148 L260 147 L261 149 L252 150 Z M250 142 L254 139 L258 139 L262 141 L262 143 L258 145 L251 144 Z M256 81 L258 82 L258 105 L261 128 L258 130 L258 133 L260 134 L259 136 L254 136 L253 135 L254 130 L252 129 L255 82 Z M253 63 L259 62 L260 64 L254 65 Z M253 54 L259 53 L260 56 L258 58 L254 58 Z M256 31 L258 32 L260 37 L260 41 L258 44 L255 44 L252 41 L253 35 Z"/></svg>
