<svg xmlns="http://www.w3.org/2000/svg" width="512" height="512" viewBox="0 0 512 512" aria-hidden="true" focusable="false"><path fill="currentColor" fill-rule="evenodd" clip-rule="evenodd" d="M253 17 L253 37 L237 68 L239 96 L228 91 L215 126 L218 154 L239 185 L238 212 L234 214 L229 182 L212 165 L207 166 L209 152 L201 139 L189 175 L198 204 L210 208 L216 203 L217 220 L201 238 L192 200 L179 190 L180 203 L159 235 L153 265 L141 256 L142 267 L127 298 L127 337 L134 354 L146 361 L175 350 L161 379 L145 376 L152 391 L166 401 L193 403 L207 394 L211 382 L206 370 L192 368 L186 377 L183 373 L185 364 L195 355 L218 356 L234 369 L242 385 L225 377 L228 388 L224 403 L198 414 L185 413 L197 426 L209 428 L217 444 L233 450 L236 465 L242 467 L257 496 L270 466 L279 459 L279 450 L296 443 L303 428 L315 426 L327 413 L314 414 L288 403 L284 389 L287 377 L271 386 L275 373 L294 356 L314 354 L325 361 L329 372 L326 377 L319 368 L306 370 L301 380 L305 394 L318 403 L354 397 L367 376 L351 379 L337 350 L358 361 L377 355 L385 336 L385 298 L370 268 L371 256 L359 264 L353 235 L332 203 L332 190 L320 200 L311 238 L295 221 L295 204 L307 208 L315 202 L322 177 L310 140 L303 150 L304 165 L280 187 L275 215 L272 188 L294 154 L297 125 L284 91 L278 92 L277 75 L262 51 L260 27 Z M242 442 L244 443 L244 447 L246 451 L251 456 L255 464 L257 464 L260 457 L266 451 L269 442 L273 445 L275 449 L275 458 L272 461 L266 459 L265 469 L257 480 L254 479 L247 469 L246 459 L239 461 L237 458 L237 449 Z M255 423 L258 425 L265 440 L262 449 L256 455 L250 449 L247 442 L248 436 L252 431 Z M316 418 L312 423 L309 424 L302 424 L298 422 L299 432 L297 436 L291 442 L280 446 L276 444 L275 441 L286 437 L290 430 L289 421 L286 419 L282 419 L279 422 L278 427 L275 425 L274 419 L280 410 L287 407 L293 407 L299 409 L310 417 Z M196 418 L202 417 L213 409 L218 407 L225 407 L232 410 L237 416 L238 419 L237 425 L234 427 L233 422 L230 419 L226 419 L223 421 L222 430 L226 437 L237 441 L235 445 L224 444 L215 436 L213 432 L214 422 L210 424 L203 424 L200 423 Z M279 387 L281 389 L283 402 L273 412 L270 419 L271 426 L275 430 L282 430 L284 428 L286 430 L281 435 L274 436 L269 434 L263 428 L261 422 L261 414 L265 401 L269 400 L269 396 L273 391 L276 391 L276 389 Z M232 387 L238 390 L243 396 L243 400 L247 402 L251 414 L251 422 L248 429 L243 434 L238 436 L231 435 L226 430 L227 428 L230 430 L237 430 L241 426 L242 423 L239 412 L229 402 L229 397 Z M271 353 L273 349 L277 350 L273 354 Z M235 350 L239 349 L242 355 L240 356 Z M176 347 L178 346 L179 348 L177 349 Z M258 401 L261 382 L270 363 L285 349 L301 343 L314 343 L327 348 L330 351 L331 356 L335 355 L339 360 L345 380 L351 384 L357 385 L352 393 L344 397 L338 397 L335 395 L332 395 L329 399 L319 399 L314 397 L307 390 L305 384 L306 376 L310 372 L318 372 L321 375 L321 379 L317 381 L316 378 L314 378 L314 384 L317 386 L325 385 L331 379 L333 371 L329 360 L321 353 L314 350 L300 350 L285 357 L277 364 L267 380 L261 401 Z M155 385 L163 383 L168 379 L172 362 L177 355 L181 355 L183 349 L198 343 L211 343 L230 351 L242 363 L251 382 L254 401 L252 402 L250 399 L247 385 L239 369 L228 358 L212 350 L195 351 L187 356 L180 366 L179 372 L181 379 L189 386 L195 386 L199 382 L198 378 L196 378 L195 381 L191 379 L191 375 L194 372 L199 371 L206 376 L206 388 L198 397 L193 399 L183 399 L180 395 L168 397 L160 393 Z M255 336 L257 336 L268 348 L268 351 L264 354 L264 358 L257 378 L254 377 L254 373 L248 358 L248 354 L244 351 L244 348 Z M338 317 L340 316 L341 318 L339 319 Z M255 308 L258 309 L258 311 L260 312 L260 314 L265 319 L269 326 L270 334 L268 340 L259 333 L257 328 L255 328 L253 333 L245 340 L243 339 L242 328 L246 320 L252 314 Z M234 306 L239 306 L247 311 L246 314 L242 318 L238 327 L238 335 L240 340 L239 342 L234 339 L229 325 L230 316 Z M157 304 L159 303 L160 305 L158 306 Z M357 289 L359 290 L360 297 L365 303 L364 306 L359 303 L355 303 L354 306 L352 305 Z M155 289 L159 302 L153 303 L148 306 L147 302 L151 298 L153 294 L153 290 Z M152 286 L154 285 L155 287 L153 288 Z M286 284 L291 292 L291 297 L294 298 L297 302 L299 309 L299 321 L297 323 L296 329 L293 334 L287 340 L282 342 L281 340 L286 331 L286 316 L283 309 L283 302 L275 302 L274 299 L278 292 L282 294 L283 286 Z M226 284 L229 286 L230 294 L234 293 L238 299 L237 302 L229 302 L229 309 L226 316 L225 326 L227 334 L230 339 L229 342 L225 340 L218 333 L213 321 L214 305 L217 298 L221 296 L221 292 Z M152 279 L154 280 L153 285 L151 284 Z M359 278 L361 279 L360 285 L358 284 Z M255 274 L258 275 L261 283 L261 290 L264 292 L267 298 L266 309 L269 309 L273 306 L278 306 L282 316 L283 323 L282 330 L279 337 L274 342 L272 341 L274 334 L273 324 L270 318 L261 308 L257 298 L255 298 L250 309 L248 311 L246 310 L245 297 L247 293 L251 291 L251 282 Z M366 268 L380 295 L381 312 L374 323 L368 326 L363 326 L363 328 L380 327 L381 335 L375 351 L371 355 L362 358 L353 354 L351 345 L355 340 L359 339 L363 343 L359 347 L364 348 L367 345 L367 341 L363 336 L357 335 L351 337 L346 348 L333 341 L327 340 L326 338 L349 317 L353 318 L358 308 L362 310 L363 315 L368 312 L369 303 L363 294 L363 287 L365 284 L364 269 Z M146 268 L148 269 L147 284 L149 294 L143 302 L144 312 L149 315 L150 309 L153 308 L159 318 L163 317 L177 332 L186 338 L185 340 L179 341 L166 348 L164 341 L159 336 L151 335 L147 337 L145 345 L148 348 L153 347 L149 344 L153 339 L157 340 L161 345 L160 352 L156 356 L149 358 L141 355 L136 350 L131 336 L132 327 L148 328 L148 326 L142 325 L135 320 L129 306 L134 290 Z M328 245 L330 246 L342 266 L345 281 L344 293 L341 304 L331 321 L329 319 L332 314 L337 296 L337 282 L334 271 L326 263 L320 262 L316 265 L316 267 L319 268 L317 271 L312 271 L307 266 L306 262 L307 255 L310 251 L313 249 L320 249 L325 253 L327 253 Z M184 245 L185 253 L187 253 L192 249 L199 249 L205 255 L206 261 L204 267 L200 271 L195 271 L193 268 L196 267 L196 265 L192 262 L188 262 L180 268 L175 282 L175 297 L180 315 L182 316 L183 319 L181 321 L174 311 L168 294 L167 281 L168 272 L172 261 L182 246 Z M255 227 L258 228 L259 239 L263 242 L266 249 L264 262 L270 259 L277 271 L277 284 L272 296 L265 287 L263 276 L257 264 L255 264 L249 275 L247 287 L241 296 L237 291 L235 283 L235 271 L238 264 L242 259 L248 262 L246 249 L247 245 L252 240 L253 230 Z M326 200 L336 215 L337 222 L341 222 L349 236 L354 255 L354 285 L350 300 L343 314 L341 312 L348 293 L348 273 L345 262 L334 246 L331 238 L329 238 L324 245 L321 246 L316 237 L316 225 L319 218 L323 217 L323 204 Z M186 200 L189 204 L188 218 L192 217 L196 226 L196 237 L192 245 L189 245 L183 238 L181 238 L178 246 L167 262 L163 283 L166 301 L170 310 L168 313 L163 303 L158 285 L158 255 L163 236 L171 222 L175 222 L175 217 L183 206 L184 201 Z M309 153 L315 161 L318 170 L318 177 L313 187 L313 196 L311 200 L306 204 L304 203 L304 198 L302 196 L298 196 L294 199 L290 206 L291 221 L296 230 L306 240 L304 242 L298 239 L288 229 L282 216 L281 200 L282 194 L287 184 L293 178 L297 180 L297 176 L301 172 L303 173 L303 178 L308 173 L309 167 L306 159 L306 154 Z M203 152 L206 154 L203 164 L203 171 L207 177 L208 174 L211 172 L215 176 L215 180 L218 178 L223 182 L229 192 L231 201 L230 214 L225 227 L215 238 L209 242 L207 242 L206 240 L215 231 L220 223 L222 217 L222 207 L218 199 L214 196 L208 197 L207 204 L205 204 L199 197 L198 186 L195 182 L193 173 L196 162 Z M256 135 L271 160 L264 186 L270 216 L287 236 L307 248 L303 256 L306 271 L318 275 L325 267 L333 281 L329 311 L306 339 L294 340 L302 323 L301 303 L290 275 L281 279 L280 266 L263 236 L256 214 L249 236 L231 268 L230 278 L222 275 L210 306 L210 324 L218 340 L200 335 L180 303 L178 289 L183 271 L187 267 L194 275 L206 271 L209 256 L205 248 L226 235 L246 207 L248 186 L241 160 Z M279 100 L281 101 L285 109 L284 113 L290 116 L293 125 L293 143 L291 151 L287 158 L285 157 L285 149 L283 140 L277 129 L277 126 L275 126 L269 119 L271 110 L274 109 L275 104 Z M258 100 L260 112 L264 120 L271 128 L272 133 L275 134 L279 142 L281 149 L280 164 L277 170 L275 171 L274 155 L270 147 L262 137 L257 125 L255 125 L250 137 L248 138 L248 140 L244 144 L239 153 L237 161 L238 171 L236 172 L231 159 L232 146 L237 135 L241 133 L243 127 L249 120 L252 120 L252 108 L255 101 Z M233 100 L237 104 L238 110 L242 111 L244 120 L239 126 L236 127 L231 136 L228 145 L227 157 L225 158 L223 156 L219 144 L219 126 L222 116 L228 113 L228 108 L231 101 Z M255 44 L257 45 L261 59 L267 66 L267 69 L271 71 L274 79 L274 95 L266 111 L263 107 L264 89 L262 82 L258 76 L257 90 L247 110 L242 103 L243 92 L245 89 L241 81 L241 70 L248 54 Z"/></svg>
