<svg xmlns="http://www.w3.org/2000/svg" width="512" height="512" viewBox="0 0 512 512" aria-hidden="true" focusable="false"><path fill="currentColor" fill-rule="evenodd" clip-rule="evenodd" d="M368 418 L368 411 L364 408 L360 408 L356 412 L268 412 L267 413 L268 415 L355 415 L361 421 L364 421 Z M360 413 L364 412 L365 416 L361 417 Z M144 418 L148 421 L151 421 L157 415 L244 415 L245 413 L244 412 L156 412 L154 409 L148 408 L144 411 Z M147 413 L151 412 L152 416 L149 417 Z M307 378 L310 381 L307 388 L309 394 L315 394 L317 392 L317 388 L314 386 L315 384 L322 384 L325 387 L325 389 L322 390 L321 392 L324 395 L328 393 L329 387 L327 383 L323 381 L324 378 L329 377 L328 375 L324 373 L319 374 L312 373 Z M312 378 L315 377 L316 379 L313 380 Z M277 373 L273 378 L273 380 L277 385 L272 388 L272 391 L275 394 L283 393 L286 395 L295 394 L300 388 L299 383 L293 380 L294 377 L300 378 L301 376 L296 373 L292 374 L289 378 L289 381 L296 386 L296 389 L293 391 L286 391 L284 389 L283 384 L277 379 L278 377 L283 378 L284 375 Z M192 373 L189 376 L189 381 L187 383 L189 385 L189 392 L192 395 L196 394 L198 392 L198 388 L194 387 L193 385 L195 383 L197 384 L201 383 L204 384 L206 388 L205 390 L202 390 L202 393 L204 395 L208 394 L209 385 L206 381 L201 380 L200 378 L201 377 L208 378 L209 375 L206 375 L205 373 L199 374 L195 372 Z M194 378 L196 377 L197 379 L195 380 Z M255 371 L248 377 L249 383 L253 386 L244 394 L246 398 L256 398 L254 407 L248 413 L251 423 L248 428 L235 434 L218 424 L203 435 L184 435 L181 431 L175 430 L171 433 L170 439 L174 443 L180 443 L184 438 L202 438 L218 449 L237 439 L249 446 L252 450 L246 455 L244 464 L253 474 L250 480 L250 490 L257 496 L262 490 L262 479 L259 474 L268 464 L267 456 L260 450 L263 446 L275 439 L292 449 L310 438 L328 438 L332 443 L339 443 L342 435 L337 430 L331 431 L328 435 L309 435 L295 424 L277 434 L261 425 L264 413 L258 407 L258 402 L267 397 L268 393 L260 387 L265 379 L263 374 Z M255 478 L257 478 L259 481 L259 488 L257 491 L255 491 L253 488 L253 481 Z M254 470 L257 469 L258 471 L255 472 Z M255 461 L257 460 L258 462 L256 463 Z M262 456 L264 458 L264 465 L260 468 L259 467 L261 464 L260 457 Z M258 452 L261 456 L260 457 L254 456 L251 459 L251 463 L253 466 L251 468 L248 465 L248 458 L254 452 Z M254 444 L257 443 L258 445 L255 446 Z M258 443 L260 442 L261 444 L259 445 Z M251 443 L253 442 L254 444 L252 445 Z M332 435 L337 434 L338 438 L334 440 L332 438 Z M174 435 L179 434 L180 438 L176 440 L174 438 Z M292 428 L304 436 L301 440 L295 444 L291 444 L281 437 L282 435 L288 432 L289 430 L291 430 Z M219 428 L231 436 L229 439 L221 444 L217 444 L208 437 L209 435 Z M241 436 L254 427 L258 427 L269 434 L271 437 L262 443 L261 433 L257 430 L251 433 L250 442 L244 440 Z M255 411 L257 411 L260 414 L260 419 L257 422 L255 422 L252 419 L252 414 Z M257 388 L258 391 L256 393 L253 393 L252 391 Z M259 376 L261 380 L256 384 L255 383 L256 379 Z M252 377 L254 376 L255 378 L253 379 Z M283 323 L278 328 L279 331 L282 333 L280 337 L280 342 L282 345 L288 345 L291 342 L291 336 L285 330 L287 328 L293 328 L293 325 L288 323 Z M285 337 L288 338 L286 342 L283 340 Z M305 322 L300 326 L300 329 L303 332 L301 336 L301 343 L302 345 L308 345 L311 343 L314 346 L316 346 L318 344 L319 339 L317 334 L314 332 L314 329 L318 328 L318 325 L314 323 L308 324 Z M305 336 L313 335 L315 337 L315 341 L311 342 L309 338 L306 338 Z M305 328 L306 327 L311 328 L312 331 L308 332 Z M194 341 L198 344 L207 343 L217 347 L226 346 L233 341 L233 334 L228 331 L226 328 L231 327 L233 329 L237 329 L239 325 L234 325 L230 322 L226 323 L222 328 L223 333 L228 334 L230 338 L226 342 L215 343 L211 341 L212 338 L211 333 L205 330 L206 328 L210 328 L211 324 L208 325 L201 322 L195 326 L195 330 L198 332 L198 334 L194 337 Z M204 335 L206 334 L207 336 L205 337 Z M201 328 L204 327 L205 329 L202 330 Z M249 324 L248 329 L251 333 L247 335 L245 338 L245 341 L248 345 L250 346 L254 345 L255 341 L257 340 L260 345 L266 346 L273 340 L273 338 L270 338 L266 342 L262 341 L261 339 L262 336 L266 335 L269 331 L268 326 L264 322 L254 321 Z M254 325 L259 324 L262 326 L260 329 L259 335 L252 329 Z M285 276 L280 280 L280 282 L284 285 L280 291 L280 296 L283 299 L288 298 L289 292 L287 289 L295 288 L298 291 L298 294 L296 295 L294 293 L292 296 L293 298 L298 299 L302 296 L302 290 L296 285 L296 283 L298 281 L301 281 L302 279 L295 275 L292 277 L288 275 Z M285 281 L288 280 L292 281 L293 283 L287 284 Z M219 275 L212 282 L217 287 L214 294 L217 298 L222 299 L226 296 L227 291 L225 287 L220 284 L218 281 L220 279 L223 281 L229 281 L230 278 L229 277 L226 278 Z M219 291 L222 290 L223 294 L220 295 Z M275 232 L269 237 L269 239 L273 242 L271 246 L271 250 L274 253 L279 253 L282 249 L282 245 L274 237 L276 236 L279 238 L283 238 L284 234 Z M276 245 L278 246 L277 250 L275 249 Z M264 235 L258 232 L254 233 L251 236 L251 241 L248 242 L248 246 L252 246 L255 249 L248 251 L240 247 L240 242 L243 237 L243 234 L240 235 L237 233 L233 233 L228 237 L228 239 L231 241 L228 245 L228 249 L230 251 L239 251 L244 254 L257 253 L262 248 L262 243 L258 238 L259 237 L263 238 Z M234 237 L236 236 L237 238 L235 239 Z M246 197 L246 205 L243 208 L243 212 L248 216 L252 215 L252 213 L255 211 L258 215 L263 216 L269 212 L270 208 L267 208 L263 212 L259 210 L260 206 L266 202 L266 198 L264 195 L258 192 L254 192 Z M254 196 L259 197 L257 208 L253 206 L251 199 Z M239 173 L235 196 L225 220 L219 221 L218 243 L208 262 L200 263 L200 283 L191 310 L181 311 L180 352 L174 360 L166 361 L164 376 L154 365 L153 352 L161 339 L169 346 L162 344 L160 349 L171 350 L171 336 L166 334 L170 318 L161 310 L162 299 L153 283 L154 301 L148 308 L153 325 L142 323 L140 361 L146 377 L165 389 L157 394 L157 406 L239 407 L239 403 L161 403 L161 396 L177 396 L180 376 L177 372 L170 376 L169 366 L230 365 L217 376 L217 392 L224 394 L223 385 L227 383 L230 393 L236 395 L241 388 L235 387 L239 368 L234 366 L254 365 L265 353 L247 351 L251 361 L181 361 L187 314 L325 314 L331 361 L265 361 L263 365 L342 365 L343 383 L335 385 L335 402 L273 403 L273 407 L354 407 L355 393 L347 389 L365 378 L372 362 L370 323 L359 325 L364 314 L358 300 L359 283 L350 299 L352 309 L342 318 L346 334 L341 336 L340 348 L349 352 L352 346 L345 348 L343 344 L350 339 L359 352 L358 365 L348 376 L347 362 L332 352 L331 311 L321 310 L312 283 L312 263 L305 263 L296 247 L293 221 L287 220 L274 174 L264 183 L255 173 L247 183 Z M338 389 L339 388 L343 389 L343 396 L351 396 L352 402 L351 403 L340 403 Z M161 382 L164 381 L165 383 L162 384 Z M170 378 L174 381 L174 391 L173 392 L169 391 L169 379 Z M222 378 L232 377 L233 380 L224 381 Z M357 304 L360 308 L360 313 L355 320 L355 325 L360 332 L363 330 L365 333 L368 343 L369 356 L368 363 L363 375 L356 382 L352 384 L348 384 L347 382 L359 372 L362 364 L361 346 L358 340 L348 331 L345 324 L347 317 L355 310 L355 305 Z M155 304 L157 305 L157 310 L165 317 L167 321 L166 328 L154 340 L150 350 L150 364 L153 372 L158 377 L156 381 L147 372 L143 356 L144 343 L147 333 L149 330 L152 332 L157 325 L157 320 L152 313 L152 308 Z M250 280 L257 278 L260 280 L261 284 L257 286 L253 285 Z M258 268 L261 267 L262 269 L259 270 Z M195 303 L204 282 L205 267 L250 267 L249 276 L245 280 L249 286 L248 292 L240 294 L244 299 L251 300 L257 288 L259 300 L254 305 L268 299 L272 294 L263 293 L262 285 L267 281 L264 276 L267 267 L307 267 L308 282 L317 303 L317 310 L196 311 Z M212 258 L221 246 L224 225 L288 224 L290 243 L300 258 L300 262 L213 263 Z M241 186 L243 185 L245 187 L252 187 L255 182 L257 182 L260 187 L267 187 L270 185 L273 196 L282 216 L281 220 L232 221 L230 218 L231 212 L239 196 Z M247 154 L250 160 L244 163 L244 166 L246 168 L251 169 L255 166 L258 169 L264 169 L267 167 L268 162 L264 164 L262 163 L265 158 L265 154 L262 151 L252 150 Z M254 153 L259 154 L258 163 L253 161 L252 155 Z M257 17 L253 18 L251 21 L254 27 L254 60 L256 63 L252 65 L252 68 L255 71 L251 73 L251 76 L254 79 L250 81 L249 84 L254 89 L248 92 L248 95 L253 96 L254 98 L246 102 L246 105 L251 106 L252 108 L244 113 L246 121 L242 125 L242 131 L247 134 L252 134 L252 132 L248 130 L249 127 L265 128 L266 130 L245 140 L239 145 L238 149 L240 153 L243 152 L242 147 L245 144 L253 141 L260 141 L267 144 L270 148 L269 152 L273 151 L274 149 L272 143 L263 138 L264 135 L270 132 L270 127 L264 124 L256 123 L257 121 L269 120 L267 116 L264 116 L262 114 L262 111 L267 109 L267 106 L263 104 L265 96 L259 93 L263 90 L263 87 L257 84 L262 80 L262 77 L258 75 L261 72 L259 68 L260 62 L258 60 L258 27 L261 21 Z M248 118 L250 117 L251 119 L249 120 Z M255 112 L257 111 L258 114 L256 115 Z"/></svg>
