<svg xmlns="http://www.w3.org/2000/svg" width="512" height="512" viewBox="0 0 512 512" aria-hidden="true" focusable="false"><path fill="currentColor" fill-rule="evenodd" clip-rule="evenodd" d="M442 146 L440 150 L445 150 L450 154 L450 162 L428 162 L420 171 L420 186 L429 195 L436 197 L434 207 L444 226 L453 232 L465 236 L458 220 L458 209 L470 186 L470 160 L458 147 Z M459 154 L467 168 L467 177 L465 178 L465 183 L461 189 L460 194 L458 195 L457 200 L455 201 L453 210 L454 223 L452 224 L443 215 L440 209 L440 200 L443 194 L446 192 L446 188 L440 189 L439 191 L433 191 L428 188 L425 183 L425 175 L431 167 L438 166 L443 168 L451 168 L456 163 L456 155 Z M371 66 L368 59 L360 50 L350 46 L329 47 L307 59 L295 59 L285 53 L281 53 L285 65 L295 77 L307 83 L319 82 L322 89 L333 98 L347 97 L356 86 L356 77 L353 72 L355 67 L363 69 L367 77 L370 77 Z M360 58 L359 61 L355 61 L350 64 L350 86 L347 90 L339 94 L331 91 L326 86 L328 70 L325 70 L318 77 L306 77 L300 74 L291 65 L292 63 L305 64 L314 62 L326 56 L327 54 L337 52 L338 50 L351 52 Z M18 35 L44 49 L65 47 L69 59 L79 64 L87 63 L93 54 L91 47 L83 44 L80 49 L85 49 L87 55 L83 59 L73 55 L73 41 L81 36 L374 36 L410 49 L419 64 L421 80 L431 47 L477 33 L477 45 L469 57 L474 60 L475 73 L466 87 L452 92 L439 90 L453 77 L453 63 L438 64 L430 71 L426 84 L417 85 L409 69 L394 57 L375 81 L370 96 L338 108 L324 108 L294 96 L281 82 L274 62 L263 53 L243 53 L228 66 L191 50 L164 53 L188 61 L218 94 L246 95 L253 118 L266 111 L284 125 L316 130 L308 151 L318 154 L311 167 L308 208 L348 205 L360 197 L369 208 L387 198 L392 230 L406 249 L399 261 L408 267 L423 268 L420 290 L424 300 L457 329 L464 352 L467 326 L451 292 L464 272 L464 253 L454 241 L428 230 L412 205 L409 180 L419 161 L420 146 L440 139 L458 123 L453 111 L433 101 L432 96 L456 98 L469 108 L478 128 L481 152 L481 426 L472 436 L462 435 L458 426 L465 422 L470 427 L472 421 L460 417 L455 420 L454 434 L470 442 L467 460 L482 490 L495 457 L494 447 L484 436 L485 140 L481 119 L463 96 L480 76 L480 23 L463 35 L435 37 L422 53 L399 36 L367 30 L74 33 L61 23 L49 22 Z M480 440 L482 440 L489 449 L489 461 L482 472 L478 471 L471 457 L471 453 L474 446 Z M457 321 L459 320 L460 322 L458 323 Z M400 188 L405 190 L406 204 L416 224 L429 237 L451 246 L460 256 L460 268 L447 285 L447 297 L457 314 L457 321 L441 310 L430 299 L426 291 L426 275 L432 263 L430 255 L426 255 L421 262 L406 260 L411 255 L412 247 L399 232 L394 216 L394 196 Z M412 155 L414 154 L415 156 L413 157 Z M413 157 L409 170 L402 180 L390 191 L369 200 L367 195 L370 188 L369 182 L349 199 L315 199 L316 167 L333 150 L333 146 L316 148 L315 145 L326 124 L345 109 L349 108 L350 111 L344 121 L344 157 L339 175 L357 168 L395 167 L411 156 Z M441 108 L443 111 L445 111 L450 116 L450 118 L453 121 L450 122 L442 130 L440 130 L435 136 L429 139 L423 139 L422 138 L422 122 L420 120 L429 112 L431 105 L434 107 Z M385 102 L395 102 L401 108 L400 110 L397 111 L395 109 L388 109 L387 111 L385 110 L378 116 L377 125 L380 129 L384 129 L385 125 L391 126 L391 129 L387 133 L384 133 L382 137 L392 136 L397 129 L395 123 L391 119 L385 118 L387 115 L396 115 L398 118 L401 119 L403 123 L402 136 L395 143 L391 144 L376 143 L375 140 L378 137 L378 135 L375 134 L371 137 L368 133 L367 120 L370 113 L377 106 Z M413 117 L417 128 L415 142 L404 156 L396 161 L390 162 L358 162 L356 164 L348 164 L350 121 L354 113 L362 105 L368 102 L371 103 L364 112 L363 121 L361 122 L361 127 L364 134 L364 143 L357 151 L358 156 L369 147 L377 147 L384 150 L396 149 L408 137 L409 123 L405 116 L410 115 Z M415 90 L425 91 L427 99 L424 109 L418 115 L412 111 L407 110 L404 101 L402 100 L402 98 L406 94 Z M447 67 L448 68 L447 76 L439 84 L433 85 L432 81 L434 75 L444 67 Z M397 64 L405 72 L408 77 L410 86 L403 89 L397 96 L378 95 L377 92 L381 82 L388 74 L388 72 L394 67 L394 65 Z M196 60 L203 60 L220 70 L232 70 L241 60 L247 57 L259 57 L270 65 L278 88 L288 98 L302 107 L318 112 L329 112 L330 114 L322 122 L297 123 L282 118 L268 105 L260 106 L255 110 L252 100 L260 87 L253 85 L238 92 L224 91 L208 79 Z M193 58 L196 57 L197 59 L194 60 Z M68 35 L68 37 L62 43 L56 44 L54 46 L43 43 L40 40 L33 37 L36 33 L40 32 L43 29 L53 27 L62 29 Z"/></svg>
