<svg xmlns="http://www.w3.org/2000/svg" width="512" height="512" viewBox="0 0 512 512" aria-hidden="true" focusable="false"><path fill="currentColor" fill-rule="evenodd" clip-rule="evenodd" d="M23 80 L34 91 L62 100 L63 106 L84 118 L100 118 L128 148 L169 157 L163 169 L226 159 L240 149 L247 137 L264 160 L276 150 L290 148 L299 136 L299 125 L290 117 L279 124 L275 113 L280 102 L292 95 L317 101 L335 125 L304 154 L333 179 L360 178 L371 191 L391 195 L408 181 L408 170 L402 162 L414 164 L423 174 L429 192 L425 216 L414 234 L410 229 L406 232 L393 216 L374 212 L378 220 L375 249 L361 294 L360 320 L370 347 L387 364 L385 383 L390 398 L414 424 L425 460 L440 486 L451 495 L451 401 L435 386 L427 386 L416 395 L411 379 L416 375 L422 382 L436 382 L449 365 L449 338 L441 319 L456 297 L457 282 L452 281 L458 239 L446 239 L464 213 L472 187 L465 185 L465 150 L470 143 L455 143 L444 151 L435 138 L435 128 L441 121 L450 121 L457 131 L467 132 L483 118 L488 104 L484 100 L488 77 L482 66 L489 44 L487 17 L472 41 L413 87 L406 104 L409 122 L401 124 L395 117 L394 88 L380 72 L334 68 L325 62 L322 74 L294 64 L263 69 L217 104 L213 92 L201 86 L182 88 L171 79 L173 94 L183 112 L197 124 L176 135 L153 133 L139 120 L139 112 L152 125 L166 117 L167 98 L154 86 L136 85 L118 96 L107 85 L74 78 L41 83 Z M444 425 L448 428 L450 441 L444 466 L443 478 L441 479 L436 471 L431 454 L432 451 L441 441 L443 435 L442 426 Z M418 361 L423 362 L425 369 L423 372 L419 370 L412 371 L408 375 L407 389 L410 395 L417 400 L423 400 L425 399 L426 396 L428 396 L431 400 L431 403 L426 408 L421 408 L415 405 L408 398 L403 387 L403 374 L405 369 L411 363 Z M441 329 L445 342 L443 348 L438 353 L438 358 L444 355 L445 364 L440 374 L432 379 L423 377 L429 369 L428 353 L422 357 L412 358 L405 362 L399 374 L400 391 L413 409 L422 412 L434 410 L434 397 L430 393 L426 396 L424 395 L428 390 L439 392 L447 402 L447 418 L439 420 L433 417 L433 421 L439 428 L439 436 L435 443 L427 450 L424 446 L424 437 L428 431 L428 425 L421 430 L416 419 L398 403 L390 386 L389 371 L396 354 L402 355 L404 348 L417 339 L420 343 L420 348 L422 348 L425 339 Z M375 321 L377 320 L378 322 L376 323 Z M413 297 L414 300 L412 303 L412 310 L413 313 L419 319 L426 321 L433 321 L438 319 L439 321 L437 326 L433 330 L426 333 L422 337 L417 333 L412 338 L402 343 L401 340 L397 337 L394 330 L393 317 L398 305 L406 299 Z M424 280 L429 283 L436 292 L435 294 L433 294 L434 302 L430 307 L424 309 L419 307 L417 302 L419 299 L423 299 L423 297 L418 293 L409 293 L401 297 L391 309 L389 315 L389 328 L394 340 L398 344 L394 349 L385 337 L382 327 L381 319 L384 303 L390 293 L399 285 L410 280 Z M434 274 L435 277 L431 280 L429 277 L432 274 Z M403 259 L408 270 L407 276 L398 281 L386 291 L384 296 L382 297 L382 300 L378 309 L378 315 L376 316 L375 315 L375 305 L379 292 L385 282 L400 264 L401 260 Z M449 245 L450 246 L450 275 L447 282 L443 286 L442 290 L445 291 L448 288 L452 289 L452 296 L448 306 L440 314 L432 317 L423 316 L420 314 L421 312 L425 313 L431 311 L437 305 L438 299 L444 297 L444 294 L442 294 L439 291 L438 286 L435 284 L435 282 L439 277 L438 265 L436 264 L429 272 L423 274 L422 271 L424 265 L424 259 L429 253 L432 255 L433 258 L435 258 L436 253 L440 248 Z M437 217 L438 219 L432 230 L430 231 L429 229 L433 221 Z M383 217 L392 220 L399 227 L401 231 L400 243 L402 246 L405 245 L405 241 L409 237 L412 239 L420 257 L418 272 L412 276 L409 260 L397 250 L398 257 L396 263 L383 277 L372 299 L371 324 L378 344 L389 356 L388 358 L386 358 L374 345 L367 331 L364 319 L365 294 L375 265 L376 256 L379 255 L384 260 L387 260 L386 253 L378 244 Z M429 215 L431 214 L432 216 L430 217 Z M434 203 L435 204 L433 213 L431 214 L430 213 L431 204 Z M384 155 L388 151 L395 148 L410 149 L418 153 L419 155 L421 155 L423 159 L427 162 L427 164 L429 165 L433 173 L436 186 L436 199 L435 200 L433 199 L433 193 L431 189 L429 178 L424 168 L417 161 L408 157 L397 158 L388 164 L386 169 L387 173 L385 174 L381 166 L381 161 Z M460 147 L462 181 L459 190 L454 198 L457 198 L462 194 L464 195 L461 209 L459 210 L454 223 L447 231 L447 233 L437 243 L423 252 L422 248 L436 232 L442 220 L446 207 L448 195 L448 175 L446 166 L447 157 L452 150 Z M338 153 L342 149 L353 144 L355 146 L358 146 L359 149 L356 152 L352 152 L351 155 L355 158 L358 158 L359 161 L357 163 L348 162 L343 159 Z M364 133 L371 132 L372 134 L367 137 Z M338 131 L346 130 L354 132 L364 140 L362 144 L351 140 L349 142 L342 144 L336 150 L330 153 L331 155 L337 158 L342 164 L349 167 L358 168 L358 172 L350 177 L336 176 L330 170 L333 166 L332 163 L323 164 L311 153 L318 145 L323 142 L332 143 L333 141 L330 138 L330 136 Z M381 129 L388 126 L396 126 L402 133 L406 133 L406 129 L408 128 L419 133 L422 136 L423 143 L430 140 L437 147 L441 156 L444 173 L444 196 L438 217 L436 216 L440 200 L438 176 L428 157 L416 147 L408 144 L393 144 L386 147 L377 159 L378 171 L386 179 L394 179 L397 175 L397 172 L392 173 L390 171 L393 166 L397 165 L403 169 L405 176 L399 187 L390 191 L382 191 L374 188 L367 182 L362 169 L362 164 L367 158 L367 154 L363 154 L362 152 L374 138 L383 136 L380 132 Z M246 124 L240 143 L230 152 L224 155 L216 156 L215 152 L217 148 L213 148 L210 150 L208 155 L203 159 L186 162 L174 161 L183 150 L189 146 L194 146 L199 142 L198 139 L196 138 L198 135 L205 136 L202 141 L202 143 L205 143 L209 139 L227 136 L235 132 L244 123 Z M343 123 L345 122 L348 126 L345 127 Z M100 112 L102 110 L105 110 L113 115 L116 118 L117 123 L122 132 L138 146 L136 147 L124 140 L110 126 Z M143 106 L144 108 L141 110 L140 108 Z M459 97 L459 101 L455 105 L442 104 L434 107 L425 116 L422 128 L420 129 L418 127 L419 114 L429 102 L441 97 L447 96 L458 96 Z M363 95 L366 95 L374 99 L379 104 L385 121 L384 123 L378 124 L376 122 L366 119 L363 116 L361 112 L361 109 L363 108 L362 104 Z M124 97 L137 89 L149 89 L156 92 L162 98 L164 103 L164 111 L162 115 L156 120 L149 120 L145 116 L145 113 L149 109 L153 112 L155 108 L150 102 L141 102 L136 107 L134 112 L136 124 L145 133 L152 137 L159 139 L177 139 L184 137 L187 143 L178 148 L157 148 L139 142 L126 131 L120 119 L119 107 Z M300 89 L303 88 L304 90 L301 91 Z M297 87 L297 90 L289 91 L281 95 L275 101 L271 112 L272 121 L278 129 L286 129 L287 126 L285 123 L288 121 L292 122 L295 127 L295 135 L288 144 L281 146 L276 140 L274 141 L273 148 L267 152 L255 141 L252 135 L250 125 L252 114 L258 103 L268 94 L283 88 Z M279 84 L278 86 L273 87 L264 93 L262 93 L254 101 L251 108 L243 119 L232 129 L222 133 L211 135 L207 132 L199 130 L203 126 L216 126 L227 122 L258 91 L269 85 L276 83 Z M280 83 L282 82 L283 84 L281 85 Z M39 87 L50 86 L66 82 L74 82 L83 86 L91 94 L95 94 L95 89 L106 89 L113 95 L115 99 L115 110 L113 111 L106 106 L101 106 L96 109 L95 106 L92 104 L89 104 L79 109 L71 106 L69 104 L69 99 L66 97 L46 92 L40 89 Z M484 77 L483 93 L473 104 L473 106 L481 105 L482 107 L478 118 L472 125 L466 128 L460 128 L455 124 L454 119 L444 116 L434 121 L431 126 L430 132 L426 131 L427 122 L436 111 L442 108 L459 109 L464 100 L463 98 L467 83 L469 81 L476 80 L482 76 Z M441 72 L443 71 L444 73 L442 74 Z M328 72 L359 72 L366 74 L372 80 L374 86 L380 77 L387 84 L392 95 L393 106 L391 118 L389 119 L387 117 L385 107 L380 98 L375 94 L362 90 L356 90 L359 102 L353 106 L356 108 L359 117 L372 127 L365 129 L354 125 L348 119 L341 99 L341 96 L347 95 L347 92 L343 89 L337 88 L334 85 Z M341 112 L338 112 L332 101 L318 87 L309 82 L293 78 L276 79 L259 85 L253 89 L229 115 L216 122 L203 122 L197 119 L190 111 L193 106 L185 103 L177 92 L195 90 L199 95 L202 95 L204 92 L211 97 L211 102 L209 104 L206 103 L205 107 L217 109 L253 78 L269 71 L292 68 L304 70 L322 80 L330 88 L332 95 L337 99 Z M482 66 L483 69 L480 72 L479 69 Z M484 34 L484 48 L480 56 L473 63 L473 66 L475 67 L474 74 L469 77 L464 74 L463 87 L456 92 L439 93 L431 96 L420 105 L415 116 L412 117 L410 111 L411 101 L418 88 L426 80 L437 75 L441 79 L442 84 L444 84 L448 78 L447 68 L450 62 L455 59 L458 66 L460 66 L462 64 L462 56 L464 52 Z"/></svg>
