<svg xmlns="http://www.w3.org/2000/svg" width="512" height="512" viewBox="0 0 512 512" aria-hidden="true" focusable="false"><path fill="currentColor" fill-rule="evenodd" clip-rule="evenodd" d="M494 19 L468 44 L423 52 L409 68 L405 53 L396 58 L368 59 L334 50 L295 49 L264 58 L222 93 L199 145 L185 157 L181 155 L191 149 L201 129 L202 96 L220 87 L234 66 L231 30 L216 52 L181 67 L155 65 L132 85 L113 65 L70 62 L59 57 L63 116 L81 137 L63 155 L63 186 L55 197 L49 221 L32 233 L48 239 L63 237 L77 230 L94 209 L131 208 L80 235 L55 265 L45 287 L42 332 L50 397 L44 410 L61 412 L77 403 L80 420 L59 416 L47 425 L34 476 L19 494 L49 489 L65 473 L70 456 L83 453 L93 443 L100 428 L100 402 L89 380 L119 374 L136 352 L135 323 L119 307 L99 307 L88 319 L90 334 L104 344 L86 344 L75 334 L69 320 L69 297 L75 279 L85 264 L104 249 L108 270 L123 280 L122 267 L161 243 L170 224 L181 230 L225 233 L225 195 L217 177 L230 173 L242 162 L259 131 L270 131 L256 116 L237 115 L245 103 L276 80 L297 75 L320 80 L334 94 L334 112 L329 116 L326 103 L306 98 L294 110 L294 126 L299 136 L314 146 L346 145 L364 129 L372 99 L399 110 L416 110 L436 102 L445 93 L447 79 L467 74 L484 59 L494 37 Z M87 435 L88 436 L86 438 L87 440 L81 446 L78 446 L75 441 L78 440 L81 436 Z M67 423 L77 431 L75 435 L72 438 L70 438 L70 441 L73 442 L73 447 L70 448 L65 443 L65 441 L60 441 L60 447 L63 452 L62 463 L60 464 L58 470 L46 482 L39 485 L38 483 L39 480 L41 479 L42 472 L44 471 L44 465 L46 464 L47 442 L49 441 L51 432 L61 423 Z M208 179 L213 183 L218 196 L217 216 L215 217 L215 222 L182 223 L177 220 L171 213 L176 200 L176 187 L174 184 L194 183 L203 178 Z M177 157 L181 156 L182 158 L178 159 Z M136 141 L150 140 L156 146 L157 152 L153 154 L147 160 L145 164 L139 164 L133 157 L133 147 L135 146 Z M99 140 L103 148 L98 154 L96 162 L98 171 L95 174 L95 179 L106 181 L113 187 L120 189 L133 189 L139 186 L141 188 L130 199 L120 202 L88 202 L85 197 L80 197 L80 204 L82 205 L80 216 L69 227 L50 232 L50 228 L56 223 L65 194 L70 189 L85 186 L85 182 L69 179 L67 167 L70 157 L75 149 L84 143 Z M166 112 L174 127 L174 138 L171 145 L165 149 L161 140 L153 133 L138 133 L131 136 L126 145 L126 159 L136 171 L142 171 L143 174 L130 182 L122 182 L111 177 L103 163 L105 155 L110 151 L110 145 L107 140 L108 114 L118 113 L124 115 L137 112 L141 108 L158 108 Z M68 69 L105 70 L114 74 L123 85 L128 105 L111 106 L104 101 L100 101 L101 119 L99 133 L88 131 L79 126 L70 113 Z M406 67 L408 68 L408 78 L410 80 L411 85 L415 88 L414 90 L403 90 L401 88 L395 87 L400 82 L403 73 L405 72 Z M227 52 L227 64 L213 83 L204 87 L199 85 L190 86 L197 93 L195 95 L194 128 L189 140 L182 147 L179 147 L181 127 L173 109 L173 101 L169 100 L165 103 L148 101 L143 105 L136 106 L135 99 L138 88 L152 74 L173 72 L176 75 L175 85 L177 90 L181 90 L182 78 L190 69 L214 61 Z M484 43 L465 67 L449 73 L433 70 L439 78 L438 90 L414 103 L388 100 L371 90 L357 73 L343 68 L342 72 L357 84 L364 102 L355 129 L335 141 L314 138 L301 125 L301 113 L309 105 L321 109 L316 121 L323 125 L341 114 L341 92 L322 73 L293 68 L252 86 L232 108 L218 137 L221 140 L243 121 L254 123 L238 155 L216 171 L186 177 L164 172 L169 198 L157 236 L114 265 L113 246 L125 233 L120 230 L97 243 L73 268 L62 296 L62 322 L68 337 L84 351 L106 351 L113 342 L112 330 L99 332 L95 320 L101 314 L114 313 L128 325 L131 341 L123 361 L107 372 L92 373 L76 367 L60 351 L63 363 L90 394 L90 431 L85 430 L87 408 L78 390 L68 401 L56 404 L57 370 L49 302 L62 267 L89 237 L143 212 L153 202 L158 189 L132 207 L148 190 L155 161 L164 159 L182 166 L202 153 L220 109 L246 79 L266 65 L289 57 L330 57 L385 67 L399 64 L393 79 L382 88 L390 94 L414 97 L431 87 L431 82 L422 85 L415 76 L421 62 Z"/></svg>
