<svg xmlns="http://www.w3.org/2000/svg" width="512" height="512" viewBox="0 0 512 512" aria-hidden="true" focusable="false"><path fill="currentColor" fill-rule="evenodd" clip-rule="evenodd" d="M73 17 L67 36 L69 76 L59 107 L58 133 L67 155 L90 167 L94 181 L90 187 L66 172 L68 202 L55 247 L54 280 L47 300 L51 337 L48 362 L61 389 L47 418 L47 434 L57 448 L52 487 L90 482 L104 473 L140 496 L176 468 L194 482 L255 488 L281 480 L325 450 L330 451 L330 464 L343 480 L392 484 L429 468 L451 465 L467 450 L444 447 L419 432 L406 432 L393 442 L399 426 L352 406 L320 408 L297 421 L300 408 L315 396 L339 390 L315 374 L279 374 L259 369 L230 382 L238 358 L236 330 L219 341 L201 342 L201 333 L186 334 L187 299 L166 237 L123 280 L111 267 L98 282 L98 262 L109 245 L118 243 L126 252 L136 253 L154 240 L156 180 L146 154 L136 157 L132 137 L111 107 L109 80 L83 44 Z M179 462 L182 453 L188 455 L199 455 L203 459 L218 465 L231 465 L249 457 L257 457 L263 459 L282 472 L266 480 L253 482 L231 480 L223 473 L221 473 L220 479 L211 480 L188 472 Z M58 477 L59 460 L62 452 L69 455 L85 455 L91 453 L93 454 L98 469 L93 474 L84 477 L63 477 L62 478 Z M127 441 L130 440 L131 442 L148 441 L150 443 L149 450 L145 455 L139 460 L137 460 L128 451 Z M452 456 L440 462 L416 460 L420 466 L419 468 L389 479 L373 479 L363 472 L361 472 L360 477 L346 475 L337 466 L335 458 L339 446 L351 440 L358 445 L359 451 L355 455 L352 455 L350 453 L351 449 L349 448 L346 451 L348 460 L360 460 L372 466 L387 465 L402 457 L404 451 L400 446 L402 441 L408 438 L421 439 L436 450 Z M337 438 L337 440 L333 445 L324 444 L314 447 L308 452 L306 452 L299 460 L290 467 L287 467 L281 464 L283 461 L290 458 L295 452 L297 452 L302 446 L305 445 L312 439 L318 438 L321 436 L334 436 Z M176 450 L176 456 L174 457 L172 464 L165 470 L159 470 L140 487 L137 487 L134 483 L123 477 L115 468 L112 470 L107 468 L99 456 L99 448 L110 435 L121 439 L122 453 L138 468 L140 468 L154 454 L156 448 L155 440 L165 434 Z M343 434 L346 433 L347 435 L344 436 Z M241 429 L239 436 L233 442 L227 445 L222 444 L228 433 L229 425 L232 427 Z M395 452 L394 455 L385 459 L373 460 L364 456 L365 445 L361 436 L342 426 L328 426 L310 433 L280 457 L272 459 L268 456 L269 452 L282 444 L302 424 L316 416 L333 411 L349 411 L359 414 L390 429 L391 431 L380 438 L380 440 L389 445 Z M263 416 L265 423 L263 425 L262 432 L257 442 L248 451 L238 457 L229 459 L219 459 L210 456 L211 452 L224 452 L232 450 L234 447 L236 447 L243 441 L247 432 L247 424 L250 421 L248 416 L254 411 L257 411 Z M224 386 L226 389 L223 394 L222 401 L220 402 L216 397 L215 389 Z M138 386 L148 395 L150 400 L154 403 L157 412 L157 421 L155 427 L149 433 L143 436 L130 435 L124 430 L120 423 L121 408 L129 395 Z M197 383 L206 384 L210 387 L209 396 L221 416 L222 431 L220 437 L213 445 L202 450 L190 450 L189 448 L180 445 L174 438 L173 424 L183 413 L194 411 L201 416 L203 426 L199 430 L194 430 L193 424 L190 424 L188 426 L189 434 L196 437 L202 436 L208 430 L209 417 L203 409 L196 406 L183 406 L184 390 L188 386 Z M76 383 L85 384 L92 389 L95 394 L94 406 L80 406 L74 408 L67 416 L67 430 L73 436 L77 437 L83 436 L87 432 L88 427 L85 424 L82 424 L81 430 L75 430 L72 425 L73 418 L82 411 L88 411 L94 414 L102 425 L102 434 L99 440 L93 446 L83 450 L71 450 L63 446 L53 433 L53 420 L67 396 L66 387 Z M322 384 L322 387 L310 393 L300 402 L281 408 L281 410 L292 411 L292 416 L280 436 L262 449 L260 447 L269 431 L270 418 L268 413 L259 406 L252 406 L244 412 L245 418 L241 422 L237 422 L230 418 L226 408 L233 388 L249 377 L261 374 L269 376 L268 388 L287 378 L304 378 Z M142 354 L170 382 L177 396 L176 414 L172 421 L162 429 L162 406 L150 388 L140 377 L137 377 L121 396 L114 408 L113 419 L116 427 L114 430 L103 418 L99 406 L100 395 L106 383 L117 371 L135 356 Z M232 343 L232 356 L230 367 L227 373 L218 383 L208 378 L197 377 L186 380 L181 385 L179 385 L174 379 L173 373 L176 369 L182 373 L190 373 L196 370 L201 362 L202 350 L220 347 L228 342 Z M193 340 L195 350 L195 360 L192 365 L188 368 L184 368 L181 365 L181 362 L183 359 L180 358 L177 359 L171 365 L171 367 L167 370 L163 366 L164 360 L167 355 L178 345 L187 341 Z M84 341 L88 340 L95 342 L107 350 L115 361 L115 366 L112 369 L110 369 L101 359 L96 359 L97 364 L94 368 L87 366 L83 360 Z M142 330 L149 339 L150 344 L149 350 L146 351 L139 344 L131 351 L129 348 L129 345 L131 343 L132 338 L140 330 Z M143 301 L161 323 L166 338 L165 349 L158 359 L155 359 L153 357 L156 349 L155 339 L146 327 L146 325 L142 321 L140 321 L126 336 L124 346 L126 356 L121 359 L114 349 L113 345 L115 332 L120 323 L124 320 L124 318 L141 301 Z M56 291 L59 292 L61 299 L70 313 L89 329 L88 334 L76 333 L78 340 L77 361 L81 369 L88 373 L97 373 L101 369 L104 371 L105 376 L98 385 L93 381 L82 377 L63 379 L59 374 L54 362 L54 348 L56 347 L66 350 L66 348 L56 336 L53 326 L52 311 Z M166 251 L172 270 L169 291 L178 293 L184 314 L183 325 L175 339 L171 337 L170 328 L144 292 L141 292 L119 314 L110 329 L109 338 L106 341 L100 339 L95 331 L92 316 L104 287 L113 279 L118 287 L118 295 L122 297 L126 285 L156 260 L163 251 Z M124 219 L127 226 L126 234 L123 236 L108 239 L99 246 L95 253 L91 266 L91 279 L95 291 L94 294 L91 297 L89 297 L84 290 L81 280 L81 258 L83 250 L91 237 L103 226 Z M75 184 L88 194 L94 202 L97 211 L97 223 L83 237 L76 252 L74 265 L75 281 L78 291 L88 306 L86 319 L69 301 L63 289 L60 274 L61 249 L73 210 Z M141 165 L147 173 L150 182 L150 193 L144 206 L150 207 L151 229 L147 239 L142 244 L131 247 L126 244 L123 238 L130 236 L132 233 L132 220 L129 216 L129 213 L121 213 L120 211 L125 205 L132 191 L137 167 Z M110 159 L112 164 L111 186 L104 204 L101 206 L96 196 L99 184 L98 167 L104 164 L108 159 Z M94 97 L97 98 L118 124 L125 136 L131 157 L131 170 L126 190 L119 204 L107 218 L104 218 L103 216 L111 204 L117 189 L118 162 L110 142 L103 137 L96 136 L96 143 L93 145 L89 145 L84 140 L84 124 L89 116 L94 116 L92 112 L92 100 Z M74 41 L99 74 L105 89 L105 95 L103 96 L96 87 L92 88 L87 99 L87 107 L83 110 L77 129 L78 141 L86 150 L95 151 L102 145 L105 146 L105 154 L95 161 L85 161 L78 157 L69 147 L63 129 L63 117 L65 115 L70 92 L73 88 L75 71 L80 69 L74 57 Z"/></svg>
