<svg xmlns="http://www.w3.org/2000/svg" width="512" height="512" viewBox="0 0 512 512" aria-hidden="true" focusable="false"><path fill="currentColor" fill-rule="evenodd" clip-rule="evenodd" d="M85 17 L85 51 L79 55 L85 76 L73 106 L78 139 L69 137 L71 172 L80 192 L89 199 L104 200 L115 188 L123 201 L124 222 L116 246 L110 251 L105 231 L93 218 L70 214 L79 234 L63 283 L60 322 L66 353 L63 381 L72 415 L66 421 L68 455 L74 469 L60 495 L99 495 L110 487 L123 493 L144 493 L168 484 L200 495 L253 496 L289 480 L307 486 L304 467 L287 455 L289 448 L301 443 L321 444 L331 451 L331 456 L318 465 L317 477 L332 493 L370 489 L399 495 L415 488 L426 475 L442 471 L453 451 L442 457 L419 453 L405 463 L395 462 L396 453 L370 428 L371 414 L360 416 L343 407 L316 405 L317 391 L296 399 L246 384 L224 384 L206 390 L191 403 L184 418 L184 435 L193 451 L174 454 L159 448 L150 438 L159 425 L160 409 L153 386 L143 388 L134 373 L133 361 L105 389 L100 387 L100 367 L107 348 L129 326 L148 324 L135 339 L136 354 L148 367 L172 369 L189 356 L195 340 L190 323 L204 311 L210 298 L204 287 L214 274 L215 260 L210 246 L193 270 L176 277 L159 277 L177 247 L181 196 L170 196 L167 173 L144 135 L136 139 L123 116 L123 105 L109 109 L107 99 L114 85 L114 69 Z M203 486 L213 485 L214 488 L204 489 Z M192 486 L197 485 L198 487 L193 488 Z M223 472 L225 475 L220 477 L219 475 Z M361 461 L363 460 L364 462 L362 463 Z M442 463 L439 467 L434 469 L423 467 L422 471 L413 483 L411 483 L406 487 L398 489 L385 489 L373 485 L369 481 L367 474 L361 469 L362 464 L364 465 L367 464 L372 470 L374 470 L379 475 L386 477 L398 477 L403 475 L414 462 L419 459 L426 459 L430 461 Z M300 472 L297 475 L288 475 L281 477 L267 486 L253 490 L239 490 L238 489 L239 487 L243 486 L251 480 L258 473 L262 466 L266 462 L276 459 L286 460 L293 463 Z M197 455 L198 459 L195 461 L194 457 Z M268 454 L270 453 L271 455 L269 456 Z M282 452 L284 451 L285 453 L283 454 Z M282 442 L283 445 L281 447 L276 447 L275 451 L272 449 L274 445 Z M140 445 L142 442 L146 441 L151 449 L153 449 L164 457 L176 460 L189 459 L190 462 L184 463 L182 465 L174 465 L173 463 L163 462 L150 456 L140 447 Z M350 434 L361 432 L367 433 L373 436 L382 445 L386 451 L386 453 L382 454 L380 458 L384 459 L392 466 L392 470 L385 471 L376 466 L365 454 L360 451 L356 443 L350 437 Z M286 438 L293 434 L309 430 L318 430 L328 433 L336 440 L336 436 L340 435 L351 445 L355 455 L356 464 L350 478 L360 475 L364 485 L355 488 L350 484 L346 484 L342 488 L337 488 L329 485 L325 481 L323 476 L323 469 L327 463 L333 462 L337 466 L337 470 L335 472 L336 474 L340 473 L342 470 L342 458 L336 448 L329 442 L318 438 L301 438 L287 442 Z M75 429 L77 428 L82 431 L106 454 L127 464 L142 475 L154 480 L155 483 L137 488 L117 485 L114 482 L114 473 L116 472 L122 475 L123 472 L115 466 L95 459 L98 465 L96 473 L97 474 L101 469 L105 469 L109 475 L107 483 L99 489 L92 489 L90 484 L88 484 L84 488 L72 492 L71 490 L75 483 L76 474 L79 471 L85 470 L85 468 L80 467 L76 463 L75 457 L73 456 Z M293 428 L295 423 L299 421 L301 418 L310 413 L316 411 L322 411 L324 409 L344 414 L356 421 L362 422 L359 426 L352 430 L348 430 L346 432 L328 425 L319 424 L303 425 L295 429 Z M215 406 L217 407 L216 411 L214 410 Z M239 405 L242 408 L247 408 L251 413 L255 415 L255 421 L260 423 L263 430 L264 446 L258 464 L251 471 L250 474 L231 486 L220 488 L216 485 L234 476 L243 467 L251 450 L251 432 L245 420 L238 413 L231 409 L220 407 L222 404 Z M103 391 L105 392 L104 396 L102 395 Z M307 404 L298 415 L279 419 L287 427 L274 440 L269 439 L269 431 L261 414 L249 403 L238 399 L221 399 L208 406 L211 412 L230 414 L240 422 L246 436 L245 450 L237 465 L227 473 L226 468 L236 448 L234 431 L224 417 L221 420 L212 418 L206 421 L200 428 L201 437 L208 440 L206 429 L212 424 L216 427 L221 425 L230 435 L231 447 L224 463 L217 470 L193 480 L163 478 L139 467 L125 454 L115 434 L116 418 L124 409 L135 425 L129 439 L143 458 L163 468 L190 469 L205 462 L218 445 L216 441 L209 447 L200 447 L191 439 L188 430 L192 412 L209 395 L219 390 L238 388 L263 395 L259 404 L269 400 L286 404 Z M127 372 L130 373 L132 380 L139 389 L137 403 L139 404 L142 399 L148 395 L154 409 L154 421 L152 427 L147 433 L142 435 L140 434 L140 421 L128 405 L126 399 L112 414 L109 415 L111 417 L111 421 L109 422 L108 432 L104 429 L100 421 L100 409 L103 405 L112 407 L110 391 L112 390 L115 383 Z M95 271 L98 276 L99 281 L98 295 L96 300 L88 307 L88 309 L84 314 L80 316 L79 315 L80 293 L89 274 L92 271 Z M207 268 L208 274 L191 300 L192 303 L201 302 L198 310 L188 317 L172 318 L183 323 L187 329 L189 340 L184 354 L172 363 L149 361 L141 350 L142 337 L149 331 L160 332 L164 342 L154 346 L163 350 L170 343 L168 328 L149 317 L135 318 L122 324 L107 338 L97 358 L96 404 L89 393 L87 363 L100 329 L125 308 L157 303 L164 305 L158 309 L163 313 L177 298 L146 297 L127 301 L109 312 L90 336 L82 359 L82 387 L99 432 L114 444 L115 449 L111 451 L82 423 L71 396 L70 357 L82 325 L103 301 L120 290 L145 283 L158 283 L164 287 Z M147 222 L150 232 L153 234 L149 248 L146 250 L144 255 L132 267 L119 273 L118 266 L126 261 L135 250 L144 231 L145 223 Z M83 219 L87 222 L87 225 L93 225 L102 236 L105 247 L103 261 L105 261 L109 256 L112 257 L114 275 L112 284 L109 285 L109 290 L105 293 L104 276 L106 271 L101 271 L95 261 L92 261 L80 278 L76 289 L75 299 L73 301 L73 320 L75 322 L75 329 L69 338 L67 336 L66 324 L67 295 L71 274 L84 241 L85 231 L84 225 L81 221 Z M172 202 L173 236 L167 258 L164 260 L159 269 L150 277 L132 280 L117 286 L116 283 L119 279 L135 271 L152 253 L159 236 L159 230 L157 230 L153 226 L154 217 L163 207 Z M77 147 L103 156 L113 167 L118 165 L131 176 L139 191 L141 200 L139 229 L130 248 L120 260 L117 259 L116 255 L123 244 L130 220 L130 207 L123 188 L115 180 L102 177 L99 174 L97 175 L96 186 L100 182 L105 182 L107 191 L103 195 L96 196 L86 190 L82 185 L82 180 L77 171 Z M100 97 L103 98 L103 107 L106 113 L105 126 L108 127 L110 120 L116 115 L131 138 L131 161 L134 162 L135 153 L142 146 L158 167 L166 190 L164 200 L153 208 L148 217 L146 216 L145 194 L139 178 L124 162 L116 161 L100 139 L95 119 L96 106 Z M91 45 L96 50 L96 55 L100 55 L107 66 L109 74 L107 87 L102 93 L97 90 L90 106 L91 129 L93 130 L96 142 L100 148 L99 150 L86 143 L82 136 L79 123 L79 106 L81 96 L89 80 L89 76 L94 75 L94 69 L90 66 L87 60 L87 57 L90 53 Z"/></svg>
