<svg xmlns="http://www.w3.org/2000/svg" width="512" height="512" viewBox="0 0 512 512" aria-hidden="true" focusable="false"><path fill="currentColor" fill-rule="evenodd" clip-rule="evenodd" d="M458 17 L446 29 L449 54 L433 74 L434 95 L429 102 L433 112 L406 144 L397 165 L387 164 L374 219 L376 238 L387 254 L408 257 L417 251 L421 240 L433 266 L420 264 L422 285 L407 311 L406 292 L392 275 L369 260 L351 259 L358 268 L361 289 L351 301 L350 313 L356 324 L370 329 L366 350 L342 374 L334 336 L324 324 L320 337 L292 368 L291 393 L272 394 L279 405 L282 440 L306 472 L285 474 L268 466 L264 459 L278 451 L275 436 L247 417 L219 412 L211 418 L224 426 L228 438 L213 430 L194 429 L172 445 L151 443 L126 452 L127 460 L105 450 L92 450 L72 460 L72 466 L57 465 L38 480 L25 480 L26 484 L45 488 L62 482 L83 488 L91 483 L91 473 L96 472 L95 481 L113 490 L182 495 L194 487 L195 469 L215 466 L199 494 L215 490 L243 495 L254 488 L276 496 L301 495 L317 489 L332 496 L344 488 L383 496 L420 489 L432 496 L449 489 L484 495 L479 463 L482 446 L474 435 L483 415 L477 382 L480 365 L475 364 L483 331 L474 329 L481 315 L485 264 L479 262 L487 235 L482 231 L477 197 L481 180 L448 193 L434 211 L429 201 L431 179 L442 166 L449 164 L451 177 L463 180 L473 174 L478 163 L481 118 L474 123 L478 100 L469 77 L471 69 L463 67 L467 50 L457 34 Z M248 484 L248 487 L245 490 L238 492 L235 491 L236 485 L241 485 L245 483 Z M240 475 L242 476 L241 481 L238 480 L238 477 Z M321 482 L322 479 L327 475 L336 475 L340 479 L340 475 L342 474 L353 478 L354 483 L361 482 L379 487 L384 487 L384 485 L386 484 L396 487 L405 487 L406 489 L394 492 L381 492 L341 484 L335 486 L335 490 L333 492 L326 492 L323 489 Z M247 477 L250 474 L252 474 L264 482 L283 487 L302 486 L315 481 L317 482 L317 484 L311 488 L299 491 L279 492 L259 487 L251 482 Z M157 470 L154 476 L155 479 L151 483 L147 483 L146 488 L141 490 L134 489 L147 472 L154 469 Z M236 472 L235 476 L233 475 L230 476 L230 481 L234 485 L229 489 L224 489 L216 486 L208 487 L206 486 L208 481 L211 480 L212 478 L221 477 L221 474 L219 471 L223 468 L232 468 Z M450 482 L454 477 L469 480 L470 477 L468 467 L475 466 L477 468 L479 484 L478 490 L459 489 L454 487 Z M114 468 L118 466 L120 463 L123 464 L133 463 L140 469 L138 471 L131 473 L119 473 Z M165 456 L166 458 L162 462 L160 458 L162 456 Z M419 455 L421 456 L423 469 L428 470 L435 477 L437 476 L441 467 L440 457 L442 456 L448 463 L450 469 L450 475 L446 477 L446 485 L440 491 L437 492 L430 491 L427 488 L428 481 L423 481 L419 477 L417 473 L417 459 Z M231 462 L230 464 L224 464 L218 462 L200 463 L192 467 L187 472 L183 473 L180 478 L177 476 L177 471 L180 466 L187 460 L202 455 L218 456 Z M182 456 L183 458 L175 466 L173 471 L173 477 L176 482 L181 483 L184 481 L185 476 L190 476 L192 479 L191 485 L187 489 L177 492 L175 491 L175 488 L172 488 L167 492 L153 491 L152 489 L157 483 L160 482 L163 483 L166 480 L166 478 L163 479 L160 477 L161 471 L164 466 L171 459 L177 458 L178 455 Z M449 454 L462 457 L459 462 L464 467 L465 470 L464 475 L457 474 L454 472 L452 462 L450 458 L448 457 Z M136 477 L136 480 L132 484 L126 486 L114 486 L108 484 L100 477 L102 475 L102 472 L98 468 L88 469 L85 476 L88 478 L88 480 L83 484 L75 484 L64 478 L57 478 L48 483 L45 482 L54 472 L59 469 L67 469 L70 471 L78 470 L80 468 L78 463 L86 457 L93 454 L105 454 L111 457 L114 460 L114 462 L110 463 L109 469 L115 476 Z M236 451 L242 452 L243 462 L248 469 L247 472 L244 472 L239 467 L235 456 Z M183 452 L186 450 L189 450 L192 453 L190 455 L185 456 Z M429 448 L432 450 L438 461 L435 469 L429 466 L425 460 L424 452 Z M133 457 L134 455 L151 447 L165 447 L173 451 L172 453 L164 452 L157 454 L154 457 L157 463 L152 466 L142 465 L137 462 Z M198 449 L204 446 L217 449 L218 451 L217 452 L211 451 L199 452 Z M176 447 L180 446 L181 448 L177 449 Z M476 443 L479 450 L478 456 L474 461 L467 463 L465 461 L466 456 L465 451 L469 449 L474 443 Z M440 441 L449 448 L447 454 L441 447 L439 443 Z M354 439 L359 435 L364 436 L362 440 L363 453 L365 457 L377 467 L386 471 L394 472 L396 474 L413 474 L416 478 L416 481 L413 483 L391 482 L377 477 L367 471 L356 459 L352 451 L352 443 Z M307 435 L311 437 L312 445 L317 455 L325 465 L324 467 L311 454 L306 441 Z M316 435 L320 433 L322 434 L327 450 L334 462 L340 468 L339 470 L331 466 L322 456 L315 441 Z M181 440 L194 433 L208 433 L224 440 L229 445 L230 450 L228 451 L220 446 L211 443 L194 443 L197 447 L197 449 L195 450 L190 445 L183 443 Z M222 418 L231 417 L237 419 L242 427 L244 427 L244 422 L246 421 L256 428 L258 432 L257 439 L263 435 L266 435 L273 441 L274 450 L270 454 L266 454 L264 451 L261 451 L259 455 L261 464 L270 472 L285 478 L302 478 L313 475 L314 477 L310 480 L298 483 L281 483 L267 479 L260 475 L248 462 L246 456 L247 441 L244 437 L242 438 L242 450 L234 445 L231 430 Z M462 402 L463 408 L459 417 L454 422 L447 424 L446 423 L447 408 L456 407 Z M282 397 L293 400 L299 408 L301 408 L302 400 L310 401 L320 410 L322 415 L321 427 L317 431 L310 432 L304 428 L303 425 L306 420 L312 421 L311 417 L309 416 L303 417 L300 420 L300 429 L302 432 L302 440 L306 453 L312 462 L324 471 L322 474 L313 471 L301 461 L305 458 L305 456 L296 454 L291 448 L287 436 L293 434 L284 426 L284 409 L281 400 Z M377 391 L397 390 L403 392 L416 405 L417 414 L413 421 L411 420 L409 411 L405 407 L394 404 L384 408 L376 424 L378 437 L387 449 L398 454 L414 455 L412 467 L409 469 L390 468 L380 464 L370 456 L366 449 L366 440 L370 433 L366 431 L353 433 L351 431 L352 418 L356 408 L366 397 Z M319 386 L329 391 L323 405 L321 405 L318 402 L316 395 Z M449 377 L450 379 L444 385 L443 384 L444 378 Z M422 391 L427 402 L428 414 L424 424 L419 429 L412 432 L405 431 L404 429 L414 426 L418 422 L421 408 L417 398 L410 391 L397 386 L381 386 L364 393 L351 408 L347 421 L347 434 L349 442 L347 447 L343 445 L338 426 L341 407 L347 396 L359 384 L372 377 L380 375 L395 375 L410 380 Z M456 372 L457 374 L454 376 L453 374 Z M319 372 L320 374 L315 384 L313 393 L310 395 L309 394 L310 382 L312 378 Z M472 371 L476 398 L471 403 L470 407 L477 406 L479 415 L478 420 L471 431 L459 434 L464 438 L468 437 L470 439 L470 442 L466 446 L460 448 L448 443 L443 436 L443 431 L445 428 L456 426 L461 422 L466 413 L467 403 L462 394 L456 393 L454 395 L454 397 L456 398 L456 402 L454 404 L451 404 L446 399 L446 391 L452 382 L454 382 L457 386 L460 386 L461 378 L466 373 Z M402 363 L425 374 L434 383 L442 399 L444 410 L442 424 L436 436 L428 444 L416 450 L399 450 L389 445 L381 434 L382 417 L394 408 L401 409 L407 416 L403 425 L394 424 L396 431 L403 435 L419 434 L430 422 L432 407 L427 392 L420 382 L401 372 L380 371 L360 378 L345 393 L335 415 L335 432 L341 448 L361 471 L376 481 L374 483 L352 473 L336 457 L326 434 L326 411 L334 390 L351 372 L370 364 L374 368 L382 362 Z M455 358 L457 357 L458 360 L456 361 Z M395 351 L396 357 L391 358 L390 357 L391 354 Z M442 341 L451 359 L451 369 L448 373 L446 373 L445 369 L443 369 L440 373 L440 378 L437 381 L428 371 L427 358 L432 348 L438 342 Z M401 338 L405 340 L403 350 L404 354 L403 359 L400 357 L398 351 L399 342 Z M474 334 L475 335 L474 343 L476 349 L474 359 L469 365 L463 368 L456 368 L455 366 L463 360 L465 353 L463 350 L461 350 L460 354 L456 354 L454 350 L455 345 L462 338 L468 335 Z M328 333 L331 340 L330 351 L335 352 L335 360 L330 365 L329 369 L336 368 L338 370 L337 378 L331 385 L326 385 L322 382 L322 377 L324 375 L327 375 L326 371 L321 368 L316 369 L309 376 L306 382 L306 394 L303 395 L299 391 L296 391 L294 389 L295 372 L302 361 L304 361 L306 366 L308 366 L309 354 L323 341 L326 334 Z M451 316 L452 326 L456 330 L461 332 L462 334 L454 339 L450 346 L448 345 L447 341 L448 335 L443 335 L437 338 L426 350 L423 359 L423 365 L421 366 L418 358 L418 351 L420 343 L426 331 L436 321 L444 317 Z M383 306 L388 315 L388 327 L385 336 L380 344 L372 353 L370 353 L369 351 L374 340 L374 327 L379 325 L380 332 L383 329 L382 325 L383 311 L381 308 Z M477 272 L479 281 L478 290 L475 297 L467 303 L467 305 L475 304 L477 308 L477 314 L473 323 L467 328 L460 328 L455 322 L459 316 L457 312 L450 311 L438 315 L423 328 L415 345 L415 362 L413 363 L409 361 L407 356 L408 345 L411 336 L416 329 L414 328 L407 334 L404 333 L404 328 L410 317 L428 304 L431 305 L433 311 L437 302 L442 297 L464 287 L471 282 Z M362 263 L376 268 L383 274 L386 282 L386 290 L388 290 L390 284 L394 282 L400 290 L404 300 L404 306 L397 314 L397 317 L403 316 L404 320 L400 325 L393 346 L383 357 L374 360 L372 358 L383 348 L390 336 L392 313 L389 306 L384 301 L376 300 L369 305 L370 308 L374 307 L379 312 L379 316 L375 322 L365 324 L360 322 L355 315 L354 305 L358 297 L364 293 L371 293 L363 284 Z M458 227 L461 236 L461 247 L459 251 L457 265 L454 273 L452 274 L451 273 L451 255 L445 237 L451 235 Z M473 185 L473 199 L479 225 L478 230 L472 235 L471 240 L479 237 L479 247 L471 271 L458 286 L454 287 L453 284 L458 275 L462 258 L464 256 L464 228 L459 219 L451 217 L448 220 L448 222 L452 224 L451 229 L447 232 L442 231 L439 228 L437 217 L441 206 L450 197 L452 198 L453 204 L456 205 L458 196 L465 189 Z M393 171 L404 182 L403 197 L408 194 L414 207 L423 216 L410 214 L403 210 L397 202 L397 195 L395 195 L393 201 L396 210 L403 216 L429 225 L438 234 L445 247 L447 256 L445 282 L436 296 L423 302 L420 300 L426 286 L426 271 L428 270 L433 277 L431 290 L437 278 L437 261 L430 244 L421 234 L410 229 L403 229 L396 236 L397 242 L401 245 L400 237 L404 233 L409 233 L413 236 L415 244 L409 252 L399 254 L387 248 L379 234 L378 222 L389 223 L389 220 L381 213 L380 203 Z M440 135 L442 138 L442 144 L439 145 L426 158 L420 168 L416 182 L416 195 L414 196 L412 192 L411 179 L416 162 L424 149 Z M476 130 L477 135 L475 141 L470 147 L465 150 L465 152 L474 152 L474 162 L468 173 L463 176 L456 175 L453 172 L453 168 L457 165 L454 160 L447 160 L438 164 L431 172 L426 181 L424 190 L425 203 L428 211 L426 213 L420 197 L420 182 L427 164 L438 152 L444 155 L445 148 L451 142 L464 137 Z M455 102 L458 105 L458 112 L456 117 L454 116 L449 107 L451 104 L454 104 Z M464 73 L474 101 L473 113 L468 127 L463 133 L448 139 L441 128 L439 128 L437 132 L422 145 L411 164 L408 177 L406 178 L401 172 L404 156 L410 145 L436 116 L438 104 L440 104 L449 114 L451 120 L449 131 L454 132 L461 116 L462 104 L461 99 L457 94 L455 94 L454 98 L450 100 L447 97 L446 90 L449 82 L455 76 Z M452 31 L456 41 L462 49 L463 60 L455 71 L446 79 L442 89 L443 96 L441 97 L437 91 L436 81 L437 75 L441 67 L444 66 L448 68 L448 61 L453 55 L453 48 L449 39 L449 34 Z"/></svg>
