<svg xmlns="http://www.w3.org/2000/svg" width="512" height="512" viewBox="0 0 512 512" aria-hidden="true" focusable="false"><path fill="currentColor" fill-rule="evenodd" clip-rule="evenodd" d="M480 17 L471 31 L423 58 L419 91 L413 82 L407 90 L402 88 L405 62 L421 51 L423 43 L397 51 L383 74 L368 82 L362 81 L365 69 L351 73 L314 67 L290 76 L289 56 L281 47 L279 57 L253 70 L243 85 L229 70 L214 64 L74 63 L31 47 L35 62 L37 166 L50 191 L71 211 L64 215 L48 198 L35 195 L40 202 L41 236 L49 242 L62 241 L67 250 L63 265 L47 247 L43 250 L44 269 L34 302 L37 337 L53 366 L32 362 L41 376 L41 400 L53 409 L47 421 L54 434 L46 451 L54 482 L44 495 L61 486 L71 461 L87 448 L90 427 L98 422 L90 413 L103 394 L106 379 L104 359 L94 340 L98 329 L82 329 L76 318 L81 310 L69 312 L61 320 L61 307 L74 289 L85 286 L84 304 L91 309 L101 308 L110 296 L104 277 L119 274 L132 259 L144 262 L142 247 L127 237 L145 227 L129 214 L150 203 L151 220 L169 223 L169 194 L208 189 L203 173 L239 144 L255 146 L254 136 L243 127 L260 111 L274 109 L271 125 L287 129 L296 120 L296 108 L312 103 L310 91 L324 92 L336 100 L336 109 L319 105 L321 124 L332 130 L351 122 L385 123 L376 113 L394 118 L423 113 L442 97 L449 82 L457 79 L454 72 L469 58 L480 32 Z M62 435 L63 438 L60 442 L60 448 L63 453 L68 456 L68 462 L67 465 L62 468 L61 479 L58 482 L57 481 L58 478 L57 466 L59 463 L59 460 L55 462 L51 457 L50 444 L56 436 Z M76 429 L77 432 L75 436 L71 439 L70 433 Z M91 418 L92 420 L88 424 L86 430 L86 442 L84 447 L73 456 L70 449 L65 450 L63 448 L63 444 L73 442 L80 433 L82 422 L87 418 Z M78 417 L76 423 L70 429 L66 431 L62 431 L61 428 L57 429 L55 427 L56 422 L62 425 L68 425 L71 423 L76 416 Z M57 412 L63 415 L63 419 L61 421 L56 419 Z M88 404 L89 407 L85 411 L84 407 Z M63 396 L68 400 L71 407 L71 416 L68 421 L66 420 L66 413 L63 410 L58 408 L63 401 L62 398 Z M78 394 L80 393 L81 395 L79 396 Z M63 370 L65 370 L75 381 L80 391 L79 393 L76 391 L73 385 L62 372 Z M54 371 L56 370 L57 372 L55 373 Z M44 368 L46 368 L51 372 L53 375 L54 381 L58 378 L63 381 L71 389 L72 393 L76 397 L79 408 L79 413 L77 416 L74 414 L74 405 L71 398 L65 392 L57 391 L54 393 L53 398 L56 397 L59 398 L59 402 L57 404 L55 403 L50 404 L45 400 L43 395 L43 386 L45 385 L49 387 L49 385 L44 380 L43 375 Z M68 364 L75 365 L79 368 L84 382 L83 387 L81 386 L78 379 L67 366 Z M86 363 L89 364 L92 374 L92 384 L87 399 L85 398 L87 390 L86 377 L82 368 Z M88 332 L90 333 L91 342 L100 358 L103 373 L102 384 L99 394 L92 404 L89 404 L88 402 L92 396 L95 386 L94 366 L90 358 L85 354 L79 355 L79 357 L84 358 L84 360 L81 363 L74 361 L71 355 L71 351 L74 350 L74 346 L76 343 L85 346 L84 336 Z M72 315 L74 318 L73 320 L80 330 L81 337 L79 340 L74 339 L68 351 L69 359 L67 360 L60 351 L59 337 L61 333 L66 334 L64 329 L64 324 L66 320 Z M55 305 L58 306 L57 310 L58 332 L56 335 L54 334 L53 327 L51 325 L51 314 L53 312 L53 307 Z M60 293 L63 292 L64 294 L61 295 Z M51 292 L54 294 L48 313 L48 319 L46 320 L45 319 L46 303 L48 295 Z M66 283 L74 277 L84 274 L97 276 L102 280 L102 286 L106 287 L107 294 L104 301 L101 304 L93 306 L91 304 L91 301 L89 302 L86 301 L85 296 L89 291 L93 291 L94 296 L96 296 L97 291 L94 286 L88 283 L80 283 L66 290 L65 289 Z M45 256 L47 256 L58 265 L59 267 L58 272 L61 272 L63 275 L63 284 L58 290 L53 289 L51 286 L53 283 L56 284 L56 287 L58 286 L58 282 L56 280 L52 280 L48 283 L47 290 L45 293 L42 312 L43 327 L48 344 L58 362 L61 365 L60 369 L58 368 L58 366 L54 363 L54 361 L51 359 L47 353 L46 348 L42 341 L38 326 L37 303 L42 282 L45 275 L47 274 L47 265 L44 258 Z M141 253 L140 256 L130 256 L123 261 L115 260 L116 262 L120 264 L120 268 L116 272 L106 273 L103 272 L99 268 L89 267 L92 263 L96 261 L103 261 L104 260 L102 258 L103 256 L111 253 L115 253 L115 251 L110 251 L100 256 L96 257 L94 256 L101 248 L111 243 L125 242 L126 245 L132 244 L137 247 Z M116 237 L119 236 L120 238 L117 239 Z M70 224 L71 227 L75 230 L78 237 L79 249 L75 261 L67 269 L66 267 L69 262 L70 247 L64 238 L56 235 L55 230 L58 227 L61 227 L63 230 L66 230 L67 225 Z M118 223 L119 225 L111 234 L110 231 L112 227 L116 223 Z M136 222 L135 224 L128 225 L128 227 L131 226 L133 227 L128 233 L121 234 L117 232 L118 229 L125 226 L122 224 L124 220 L131 219 Z M72 212 L79 219 L83 226 L85 232 L85 243 L84 244 L82 243 L80 232 L70 218 Z M104 206 L106 208 L104 216 L101 217 L100 215 L102 213 L102 207 Z M74 204 L82 209 L82 213 L85 217 L88 218 L93 230 L93 245 L91 252 L83 265 L77 271 L67 277 L66 274 L81 260 L88 245 L87 226 L80 214 L71 206 L72 204 Z M44 201 L47 201 L52 206 L53 212 L56 211 L60 215 L60 222 L53 224 L52 234 L54 237 L53 239 L48 238 L43 233 L41 228 L42 218 L43 217 L47 218 L43 210 Z M167 200 L168 208 L163 221 L158 220 L153 216 L152 214 L153 209 L156 207 L159 212 L161 208 L156 202 L151 200 L145 200 L137 203 L123 217 L120 218 L118 217 L123 206 L132 198 L141 193 L156 192 L162 195 Z M139 186 L140 188 L126 198 L119 206 L109 224 L107 232 L100 244 L97 246 L96 245 L97 235 L106 221 L111 201 L115 198 L118 198 L118 195 L125 187 L134 188 Z M138 180 L135 184 L129 185 L126 183 L127 181 L132 181 L135 179 Z M74 179 L78 177 L79 180 L84 181 L85 183 L82 185 L77 184 L74 181 Z M89 177 L91 174 L93 175 L92 179 L93 184 L104 195 L107 195 L111 190 L115 188 L118 182 L119 175 L121 176 L123 181 L121 183 L119 190 L113 193 L105 202 L97 194 L97 192 L94 192 L91 189 L89 184 Z M68 175 L70 174 L71 176 L69 177 Z M152 187 L160 178 L163 179 L162 183 L164 183 L170 172 L175 178 L172 186 L176 186 L177 185 L176 182 L178 180 L180 180 L181 183 L185 183 L186 179 L188 180 L188 182 L196 181 L198 179 L200 179 L203 182 L202 184 L197 184 L185 190 L177 192 L165 190 L164 188 L161 187 L161 185 L159 185 L156 188 Z M117 173 L119 172 L120 174 L118 175 Z M98 172 L100 173 L100 175 L104 173 L105 176 L107 176 L108 172 L112 172 L115 175 L116 179 L115 184 L110 190 L104 192 L96 185 L95 176 Z M175 174 L176 169 L178 170 L178 173 L187 170 L191 171 L189 174 L184 176 L178 176 Z M72 172 L80 167 L84 167 L85 169 L83 170 L83 172 L86 172 L87 174 L85 178 L81 179 L77 175 L74 175 Z M123 167 L124 166 L130 167 L142 173 L144 176 L139 177 L138 175 L134 175 L133 178 L127 179 L125 177 L125 173 L128 172 L128 170 L124 169 Z M183 156 L183 164 L181 166 L176 164 L166 171 L164 176 L160 175 L160 169 L163 162 L169 156 L174 154 L176 156 L179 155 Z M174 145 L175 147 L172 150 L171 147 Z M144 139 L147 144 L147 149 L145 151 L143 158 L134 164 L130 164 L129 162 L134 156 L137 145 L140 141 Z M67 139 L69 139 L75 145 L78 157 L80 161 L83 162 L82 164 L74 163 L68 158 L65 150 L65 144 Z M74 138 L77 138 L81 144 L84 156 L83 158 L81 157 L79 153 L78 146 L73 140 Z M150 133 L153 144 L153 151 L150 159 L143 164 L142 162 L149 151 L148 150 L149 143 L147 141 L147 135 Z M250 136 L249 139 L242 139 L235 142 L210 165 L200 171 L197 170 L200 165 L200 162 L207 157 L228 134 L235 131 L243 131 Z M107 131 L115 141 L118 149 L118 154 L115 161 L112 164 L107 163 L107 156 L105 155 L105 164 L103 165 L102 162 L98 163 L95 160 L93 156 L93 148 L97 140 L105 131 Z M189 130 L193 133 L197 142 L197 148 L191 156 L195 154 L198 155 L197 163 L194 168 L186 167 L187 151 L184 152 L180 151 L180 147 L185 141 Z M64 129 L70 131 L74 135 L72 138 L64 135 L63 153 L65 158 L69 162 L68 164 L62 159 L59 152 L59 141 L61 136 L61 131 Z M149 128 L150 130 L147 131 L147 133 L144 136 L137 140 L134 145 L132 155 L129 158 L128 155 L132 140 L136 138 L141 131 Z M85 118 L89 122 L90 130 L85 137 L85 139 L83 140 L78 133 L78 127 L80 122 Z M126 117 L131 122 L134 128 L134 133 L129 139 L126 137 L121 129 L121 124 Z M105 115 L115 127 L115 131 L117 131 L124 140 L126 147 L124 156 L122 155 L122 152 L120 151 L120 145 L117 139 L107 127 L107 124 L105 124 L103 129 L93 140 L91 144 L90 154 L88 155 L86 152 L87 142 L91 133 L96 132 L96 127 Z M322 114 L324 113 L325 116 L323 117 Z M324 110 L329 108 L332 110 L333 114 L328 115 L327 113 L324 112 Z M87 108 L93 115 L95 122 L93 123 L86 113 L84 113 L77 122 L76 127 L73 129 L72 124 L75 118 L84 107 Z M256 106 L257 108 L243 120 L242 118 L245 114 L254 106 Z M126 106 L129 107 L130 111 L137 120 L139 125 L138 130 L136 129 L136 125 L128 113 L126 113 L118 124 L116 123 L119 113 Z M358 101 L360 101 L368 109 L371 115 L368 118 L364 116 L363 117 L365 120 L363 122 L358 122 L353 117 L354 108 L356 107 L357 109 L359 109 L357 104 Z M205 101 L211 101 L219 107 L221 112 L220 125 L214 135 L210 134 L212 130 L212 118 L210 111 L207 108 L206 109 L207 112 L204 115 L201 114 L199 111 L199 108 L203 107 L203 103 Z M260 103 L270 99 L277 99 L287 103 L293 110 L293 118 L291 122 L285 126 L279 126 L278 121 L275 122 L273 121 L273 117 L276 114 L280 114 L281 119 L283 119 L284 117 L283 111 L275 105 L262 106 Z M289 98 L293 97 L300 99 L301 101 L299 103 L292 103 L289 100 Z M107 96 L114 104 L116 108 L116 113 L112 117 L106 108 L101 116 L98 118 L95 113 L96 105 L100 100 Z M342 93 L349 101 L351 108 L350 116 L343 124 L339 126 L330 126 L324 120 L327 118 L334 118 L339 114 L341 110 L341 105 L337 95 L339 93 Z M290 93 L297 91 L301 92 L302 94 L300 96 L291 95 Z M414 91 L412 101 L408 105 L401 107 L385 105 L372 99 L374 97 L389 101 L396 96 L407 94 L412 90 Z M304 87 L306 86 L307 88 L305 89 Z M90 104 L93 98 L105 85 L107 85 L112 91 L112 93 L115 94 L117 98 L119 99 L121 107 L120 108 L118 107 L116 101 L108 93 L107 90 L105 90 L105 92 L95 102 L92 107 L90 106 Z M308 86 L313 84 L324 85 L325 88 L324 89 L309 88 Z M275 94 L274 96 L265 97 L256 101 L254 100 L254 93 L256 87 L261 82 L263 83 L263 87 L267 92 Z M305 82 L307 81 L308 83 L306 84 Z M319 80 L323 79 L324 81 L320 82 Z M106 76 L169 75 L170 77 L157 92 L156 105 L164 116 L170 118 L177 116 L184 106 L173 102 L175 94 L180 90 L198 86 L212 91 L219 98 L218 100 L206 97 L196 105 L197 118 L209 119 L209 129 L204 140 L201 142 L196 131 L190 125 L182 123 L185 130 L184 136 L179 142 L167 139 L168 150 L158 164 L156 179 L140 187 L139 185 L152 173 L143 169 L156 154 L155 124 L143 126 L132 108 L131 101 L125 103 Z M449 75 L449 77 L445 81 L438 96 L428 106 L422 107 L419 111 L414 110 L414 112 L410 114 L398 115 L380 111 L370 105 L371 103 L373 103 L378 106 L389 109 L408 109 L417 106 L424 102 L430 96 L434 89 L436 80 L441 75 L445 74 Z M164 86 L172 79 L187 74 L204 74 L220 80 L228 89 L232 101 L231 115 L225 131 L221 137 L219 138 L218 135 L224 124 L225 104 L220 94 L216 90 L202 83 L185 84 L174 90 L170 95 L169 109 L174 107 L178 110 L176 112 L173 112 L172 114 L168 114 L162 110 L162 101 L159 100 L160 94 Z M360 77 L353 84 L347 85 L343 82 L343 87 L340 90 L333 90 L328 86 L330 82 L332 83 L332 85 L334 85 L335 83 L334 79 L326 76 L309 77 L298 81 L293 86 L288 88 L282 96 L280 95 L284 87 L293 78 L310 71 L322 70 L340 73 L341 75 Z M48 70 L63 74 L105 76 L100 87 L86 102 L81 101 L79 109 L70 119 L68 126 L56 124 L58 131 L56 154 L62 165 L68 168 L66 171 L59 171 L59 173 L73 186 L86 187 L93 197 L99 200 L99 213 L95 221 L88 211 L61 185 L50 165 L47 149 Z M444 66 L446 70 L438 73 L437 71 L439 68 Z M39 60 L43 64 L44 71 L43 139 L45 159 L52 177 L61 191 L66 196 L65 198 L58 192 L56 192 L47 181 L39 158 L38 151 L38 61 Z M42 59 L45 58 L63 65 L90 67 L198 66 L215 68 L225 72 L236 83 L241 99 L239 116 L235 127 L232 128 L231 124 L235 112 L234 93 L229 84 L223 78 L212 72 L202 70 L175 72 L68 71 L48 66 L43 63 Z M286 58 L285 67 L280 71 L280 73 L283 72 L286 73 L283 83 L278 88 L271 90 L266 86 L266 84 L269 81 L271 81 L272 84 L274 84 L274 80 L269 76 L260 78 L252 88 L251 104 L249 107 L245 109 L244 108 L244 92 L246 90 L246 87 L250 79 L258 71 L262 69 L267 71 L270 66 L274 65 L283 57 Z M407 54 L402 61 L401 68 L397 71 L397 73 L400 72 L403 73 L402 82 L400 86 L394 92 L386 95 L377 94 L378 92 L387 88 L388 85 L380 89 L372 91 L361 90 L355 87 L356 85 L371 85 L380 81 L387 74 L394 59 L401 53 Z M451 54 L452 59 L448 63 L441 63 L435 68 L433 72 L433 82 L431 88 L422 99 L417 101 L416 100 L417 97 L423 91 L426 84 L427 76 L424 73 L423 69 L426 59 L431 54 L442 50 L445 51 L443 56 L447 55 L448 53 Z M473 34 L474 37 L467 44 L464 45 L464 47 L467 48 L467 53 L464 61 L459 66 L452 67 L451 64 L455 60 L455 55 L457 53 L457 51 L451 50 L452 45 L457 40 Z"/></svg>
