<svg xmlns="http://www.w3.org/2000/svg" width="512" height="512" viewBox="0 0 512 512" aria-hidden="true" focusable="false"><path fill="currentColor" fill-rule="evenodd" clip-rule="evenodd" d="M464 17 L418 36 L397 38 L385 47 L380 42 L368 52 L341 60 L331 73 L334 87 L345 93 L341 96 L325 92 L311 80 L322 60 L321 44 L311 51 L287 51 L275 58 L246 58 L225 65 L199 86 L183 113 L177 163 L160 145 L135 181 L128 171 L120 194 L101 184 L87 169 L79 140 L84 121 L95 110 L114 109 L118 115 L113 118 L120 125 L125 115 L113 103 L90 107 L75 129 L75 153 L88 178 L120 200 L121 206 L90 191 L74 174 L63 146 L65 117 L85 92 L98 86 L118 87 L135 100 L137 126 L129 137 L112 140 L104 132 L111 119 L103 119 L98 134 L109 149 L122 155 L144 152 L166 137 L178 117 L182 95 L192 78 L190 55 L179 68 L150 76 L136 91 L119 82 L100 81 L83 87 L69 100 L58 126 L61 159 L79 188 L102 205 L84 204 L68 191 L49 192 L59 207 L64 233 L60 241 L62 256 L80 272 L92 272 L101 265 L113 267 L124 281 L121 299 L109 310 L95 309 L102 294 L91 285 L77 288 L67 306 L73 334 L82 335 L70 356 L67 381 L74 408 L95 436 L86 451 L92 496 L105 470 L129 441 L130 417 L140 408 L130 400 L130 390 L147 386 L156 378 L159 357 L188 312 L191 282 L195 276 L203 276 L201 263 L189 253 L205 243 L225 249 L244 237 L250 214 L247 211 L242 217 L233 217 L229 211 L236 201 L244 199 L254 207 L278 196 L249 180 L232 179 L216 186 L200 209 L195 179 L202 163 L216 150 L231 150 L225 146 L209 149 L187 183 L185 171 L196 150 L213 138 L230 138 L241 148 L241 158 L229 167 L223 152 L220 166 L229 172 L247 172 L245 144 L223 128 L243 112 L267 109 L284 119 L289 139 L281 150 L276 133 L259 133 L252 145 L258 168 L283 187 L312 188 L326 180 L337 166 L360 160 L355 146 L378 137 L409 106 L406 101 L428 80 L434 60 Z M98 378 L101 377 L102 381 L100 382 Z M90 337 L92 339 L86 347 L82 359 L82 380 L86 392 L102 412 L110 432 L107 446 L113 440 L115 428 L113 413 L105 397 L107 394 L110 398 L115 399 L107 387 L108 375 L120 364 L129 364 L137 371 L137 377 L132 382 L125 377 L127 386 L124 399 L131 410 L122 410 L127 424 L124 440 L97 472 L94 471 L92 453 L101 442 L100 433 L83 412 L75 397 L72 384 L74 359 L81 346 Z M192 262 L198 269 L190 273 L185 282 L184 303 L178 320 L166 333 L144 343 L144 345 L162 344 L158 352 L149 352 L155 362 L151 376 L142 382 L141 367 L129 358 L121 358 L108 365 L103 374 L100 374 L102 362 L109 353 L140 335 L157 318 L165 301 L166 292 L154 317 L147 325 L128 339 L122 340 L145 322 L154 308 L160 282 L166 271 L178 261 Z M143 260 L151 270 L154 276 L155 284 L154 293 L152 295 L149 306 L144 314 L137 321 L136 318 L139 314 L142 304 L144 303 L146 292 L145 273 L141 261 Z M160 248 L166 256 L166 263 L158 271 L155 265 L152 263 L152 260 L154 258 L155 252 Z M113 247 L121 250 L134 263 L140 279 L140 295 L132 317 L104 348 L95 364 L94 384 L103 403 L100 405 L87 384 L85 365 L92 346 L105 330 L88 331 L83 329 L73 317 L72 305 L79 293 L90 290 L95 293 L96 301 L94 303 L87 302 L86 307 L96 315 L109 314 L111 321 L114 322 L116 312 L124 304 L128 295 L128 278 L124 269 L111 260 L103 260 L101 253 L96 251 L101 247 Z M109 242 L115 241 L121 243 L125 247 L123 248 L114 244 L110 244 Z M97 245 L98 243 L102 241 L106 242 L105 244 L99 246 Z M96 235 L97 237 L90 244 L89 248 L86 250 L85 246 L87 242 Z M158 232 L161 232 L168 240 L172 250 L171 256 L169 255 L168 251 L162 244 L161 241 L158 242 L149 254 L147 253 L147 249 L150 241 L154 238 L154 236 Z M97 232 L102 229 L107 231 L117 232 L125 236 L133 244 L131 245 L127 241 L115 235 L103 235 L98 237 Z M213 229 L213 231 L209 234 L207 238 L197 239 L187 247 L182 255 L179 254 L178 252 L179 248 L184 239 L189 234 L191 234 L200 228 L208 227 Z M160 211 L165 216 L166 219 L165 226 L161 224 L158 224 L156 226 L154 224 L155 217 Z M61 196 L63 195 L73 199 L79 205 L79 213 L82 217 L84 217 L85 210 L98 211 L115 217 L125 226 L123 216 L126 215 L143 234 L146 240 L143 248 L141 249 L129 235 L115 228 L90 227 L84 225 L89 235 L82 245 L83 256 L90 261 L94 261 L95 264 L86 268 L76 265 L66 252 L65 237 L76 238 L76 236 L65 226 L64 205 Z M159 194 L165 197 L173 208 L174 213 L176 215 L176 225 L170 234 L167 231 L169 227 L167 214 L162 209 L161 205 L159 205 L159 207 L152 216 L151 219 L152 231 L150 233 L147 232 L144 225 L145 211 L149 204 Z M260 194 L254 199 L248 194 L241 193 L235 195 L226 203 L224 211 L225 217 L231 223 L243 224 L242 230 L232 241 L225 244 L217 244 L213 240 L213 236 L216 233 L221 235 L220 229 L215 225 L203 224 L190 230 L177 245 L174 243 L174 238 L177 236 L181 227 L191 218 L201 214 L211 215 L210 211 L207 209 L211 199 L218 191 L228 185 L244 184 Z M160 177 L166 183 L168 187 L167 191 L160 185 L154 191 L152 190 L153 185 Z M160 157 L178 175 L181 182 L179 193 L191 187 L193 188 L193 208 L191 212 L182 219 L180 218 L179 205 L184 201 L184 199 L180 199 L176 202 L171 197 L169 182 L162 175 L161 171 L159 171 L158 175 L150 186 L149 197 L146 200 L138 196 L136 197 L141 204 L139 217 L137 218 L133 215 L127 207 L126 190 L128 184 L130 183 L134 188 L137 188 L141 191 L140 182 L142 177 Z M352 152 L350 155 L347 155 L339 160 L329 158 L331 164 L329 170 L320 178 L311 182 L286 182 L273 174 L274 172 L294 172 L303 168 L311 160 L313 161 L312 165 L314 166 L320 155 L316 151 L319 148 L324 150 L323 145 L320 141 L321 139 L326 140 L332 144 L346 147 Z M320 130 L322 129 L324 132 L322 133 Z M211 131 L216 122 L220 119 L220 117 L231 107 L250 99 L265 98 L267 100 L274 101 L281 104 L291 113 L293 118 L296 120 L298 127 L298 137 L295 146 L292 148 L291 146 L293 141 L293 127 L289 118 L277 108 L264 104 L253 104 L240 108 L229 115 L213 134 L211 133 Z M204 120 L212 109 L231 93 L250 86 L275 87 L296 98 L307 110 L313 125 L314 141 L308 156 L295 167 L282 169 L268 165 L259 156 L257 149 L259 140 L265 136 L272 137 L276 141 L277 151 L270 152 L269 154 L278 159 L293 155 L301 145 L302 124 L296 111 L287 102 L279 97 L265 93 L247 94 L226 104 L213 117 L203 137 L199 140 L198 136 Z M397 73 L398 77 L394 84 L386 92 L380 95 L379 93 L381 83 L389 73 Z M380 71 L382 70 L383 73 L381 74 Z M186 70 L187 78 L182 88 L175 93 L167 95 L167 97 L176 99 L176 105 L165 129 L153 141 L141 148 L118 148 L118 145 L126 144 L135 138 L144 122 L150 116 L153 118 L148 129 L151 128 L160 115 L165 113 L156 108 L158 102 L162 100 L162 97 L155 102 L147 113 L145 113 L143 104 L140 100 L142 90 L154 80 L177 75 Z M374 58 L373 101 L356 122 L342 127 L330 127 L316 119 L318 116 L341 118 L352 113 L365 95 L362 75 L362 89 L357 101 L342 113 L328 114 L314 108 L299 94 L282 84 L287 77 L286 69 L276 81 L245 82 L220 94 L202 114 L195 128 L189 153 L182 159 L183 132 L195 100 L213 79 L240 64 L267 62 L271 64 L271 73 L284 58 L316 56 L309 73 L296 80 L296 83 L308 84 L322 96 L340 102 L354 94 L356 83 L353 81 L348 86 L340 85 L336 80 L338 70 L348 62 Z M445 33 L440 47 L433 54 L421 57 L416 61 L416 63 L427 63 L426 71 L417 87 L406 95 L392 98 L387 102 L387 105 L396 104 L398 108 L379 130 L369 136 L354 140 L340 140 L326 135 L327 131 L340 133 L359 126 L369 117 L378 104 L401 83 L408 63 L416 55 L410 55 L402 62 L398 61 L394 70 L390 71 L385 61 L386 55 L391 48 L400 42 L415 40 L418 48 L425 36 L433 33 Z"/></svg>
