<svg xmlns="http://www.w3.org/2000/svg" width="512" height="512" viewBox="0 0 512 512" aria-hidden="true" focusable="false"><path fill="currentColor" fill-rule="evenodd" clip-rule="evenodd" d="M290 420 L290 423 L295 422 L294 420 Z M168 305 L166 305 L163 316 L165 316 L167 312 Z M102 121 L98 126 L99 127 L103 122 Z M110 110 L110 112 L112 112 L117 118 L123 115 L125 115 L127 119 L129 118 L129 115 L125 113 L121 115 L116 114 L115 108 Z M141 91 L139 91 L138 95 L140 95 Z M155 17 L152 33 L128 61 L132 90 L123 77 L120 86 L89 119 L84 136 L85 159 L76 155 L77 168 L68 190 L69 216 L59 217 L70 256 L83 268 L107 271 L119 262 L123 249 L128 257 L127 272 L108 298 L100 297 L89 278 L69 270 L69 289 L79 296 L59 329 L57 361 L62 377 L53 380 L68 422 L59 429 L67 434 L76 454 L61 469 L60 496 L87 490 L93 476 L113 483 L129 478 L153 484 L193 479 L204 485 L219 485 L249 472 L237 461 L253 448 L265 451 L253 460 L260 472 L302 478 L317 472 L335 456 L355 468 L371 469 L400 457 L415 440 L440 444 L452 439 L460 429 L446 433 L409 421 L387 435 L370 425 L375 414 L322 415 L322 407 L250 403 L232 415 L244 383 L219 389 L209 398 L177 374 L168 404 L149 391 L157 372 L154 344 L145 354 L120 361 L122 346 L130 337 L152 338 L173 325 L188 280 L179 278 L185 249 L175 250 L172 226 L143 178 L161 166 L164 133 L151 150 L135 155 L124 165 L116 182 L109 169 L114 140 L121 134 L125 140 L137 141 L156 121 L155 82 L147 67 L160 40 Z M172 478 L175 477 L176 479 L173 480 Z M181 477 L184 474 L189 475 L188 477 L185 478 Z M194 471 L197 472 L197 474 L200 477 L199 479 L192 474 Z M187 468 L189 467 L190 469 L188 470 Z M191 467 L193 466 L194 468 L192 469 Z M85 468 L91 465 L102 466 L115 471 L116 473 L114 475 L122 474 L123 476 L118 479 L111 479 L101 476 L94 472 L88 472 L85 470 Z M199 464 L206 463 L212 469 L216 470 L217 472 L213 474 L208 474 L206 476 L202 476 L199 472 L201 470 L204 470 L204 468 L200 466 Z M298 460 L300 458 L305 459 L304 462 L299 462 Z M203 480 L204 478 L212 477 L221 471 L224 471 L224 469 L218 467 L215 462 L207 459 L208 457 L221 458 L223 460 L222 465 L231 464 L239 469 L231 476 L219 481 L209 482 Z M167 457 L169 456 L170 458 L168 459 Z M106 462 L105 464 L99 462 L89 462 L88 463 L86 461 L82 462 L82 464 L78 466 L77 475 L79 478 L83 474 L86 477 L86 484 L78 487 L72 487 L71 489 L65 488 L64 474 L67 473 L69 464 L72 461 L75 462 L83 458 L89 458 L95 456 L103 459 Z M138 452 L140 451 L141 453 L139 454 Z M129 445 L131 444 L132 446 L130 447 Z M326 450 L327 458 L314 469 L301 474 L299 473 L297 475 L292 475 L290 473 L289 474 L284 473 L284 471 L291 464 L296 465 L304 464 L308 462 L309 458 L312 458 L314 456 L315 452 L312 453 L307 452 L307 447 L310 444 L317 443 Z M296 455 L295 459 L290 460 L284 468 L277 471 L268 471 L260 465 L260 459 L262 457 L265 457 L267 459 L264 462 L265 465 L270 468 L278 466 L277 462 L280 457 L281 447 L285 451 L285 457 L287 456 L287 451 L284 446 L285 443 L290 445 Z M237 441 L238 444 L236 445 L230 455 L227 456 L226 452 Z M354 445 L354 442 L358 439 L365 440 L364 442 L361 442 L360 444 L356 446 Z M345 440 L347 439 L349 442 L346 443 Z M194 440 L193 444 L185 452 L176 457 L174 456 L175 454 L184 449 L190 443 L192 439 Z M125 440 L127 439 L128 441 L126 442 Z M85 439 L90 442 L90 445 L93 448 L92 450 L89 449 L84 443 Z M241 437 L242 439 L239 441 L238 439 Z M296 447 L303 441 L311 437 L330 436 L339 440 L342 443 L342 446 L349 446 L354 451 L353 452 L349 451 L344 454 L336 453 L331 456 L330 450 L326 444 L320 440 L311 440 L307 442 L303 447 L304 452 L303 455 L297 452 Z M242 444 L246 440 L252 437 L257 436 L265 437 L276 446 L277 454 L276 457 L272 460 L269 450 L264 446 L255 444 L246 448 Z M272 435 L276 434 L278 438 L275 439 Z M251 433 L250 435 L244 438 L242 437 L244 434 L248 432 Z M332 432 L335 431 L336 433 L333 434 Z M327 431 L331 430 L332 432 L328 433 Z M316 431 L319 430 L320 432 L317 433 Z M254 429 L256 428 L269 431 L270 433 L269 434 L255 433 Z M69 427 L79 428 L83 431 L83 434 L86 433 L89 434 L88 437 L80 437 L84 447 L89 451 L88 453 L82 452 L75 444 L68 430 Z M445 437 L442 440 L433 441 L426 439 L421 435 L413 434 L410 436 L411 438 L405 446 L393 456 L381 457 L369 452 L370 457 L375 462 L372 465 L364 465 L363 463 L359 462 L356 464 L348 458 L351 454 L360 458 L357 447 L360 444 L364 444 L368 448 L378 452 L385 450 L380 447 L378 449 L372 448 L365 442 L367 438 L350 438 L348 436 L349 434 L357 434 L365 429 L371 429 L378 432 L385 438 L386 441 L389 442 L394 441 L398 434 L408 426 L417 426 Z M264 425 L266 424 L267 426 L265 427 Z M302 431 L303 429 L310 426 L314 422 L331 416 L347 416 L368 420 L368 422 L360 430 L356 432 L350 432 L348 428 L351 427 L351 425 L341 423 L339 421 L325 421 L324 423 L339 423 L344 425 L346 427 L346 431 L342 432 L342 434 L345 436 L346 438 L345 440 L338 435 L338 432 L341 427 L338 427 L335 429 L329 427 L320 427 L306 432 Z M190 415 L192 420 L192 429 L189 437 L180 447 L174 451 L164 454 L156 454 L146 451 L147 449 L159 448 L169 440 L174 429 L174 417 L173 416 L174 412 L180 415 L187 414 Z M193 410 L196 412 L199 420 L199 429 L195 438 L193 436 L195 433 L196 422 L194 414 L192 412 Z M315 414 L302 426 L295 428 L287 426 L287 428 L294 433 L294 435 L288 439 L281 437 L279 432 L269 428 L267 426 L268 423 L261 422 L260 417 L263 416 L262 414 L245 418 L245 420 L257 417 L258 422 L261 425 L256 426 L253 424 L251 427 L238 434 L220 454 L212 453 L221 442 L234 418 L247 408 L255 406 L263 408 L269 414 L270 422 L281 420 L281 418 L271 418 L271 411 L277 409 Z M75 404 L81 405 L84 408 L85 411 L84 417 L80 418 L78 416 L76 409 L74 407 Z M233 391 L234 393 L229 411 L226 414 L222 415 L221 414 L222 407 L220 407 L219 413 L216 415 L215 407 L213 406 L212 403 L214 398 L222 392 Z M127 390 L128 393 L118 399 L110 408 L107 414 L105 428 L103 429 L101 424 L103 422 L103 417 L108 404 L116 395 Z M87 391 L89 390 L93 395 L91 396 Z M227 418 L215 444 L205 452 L203 447 L199 452 L203 457 L194 462 L188 460 L171 466 L155 466 L134 459 L142 465 L154 468 L176 468 L179 471 L177 474 L155 474 L132 466 L116 452 L109 436 L109 422 L112 415 L124 402 L142 396 L163 405 L170 424 L167 426 L169 431 L166 437 L155 445 L139 443 L136 440 L136 426 L142 420 L146 421 L149 427 L143 429 L144 432 L149 433 L156 426 L156 418 L146 408 L131 407 L124 411 L116 422 L115 435 L120 448 L122 447 L117 436 L120 417 L126 411 L141 409 L141 412 L129 417 L124 431 L121 432 L124 444 L129 446 L133 453 L148 460 L164 462 L177 459 L190 451 L200 437 L202 417 L198 408 L189 401 L184 402 L188 405 L187 408 L177 407 L173 392 L176 382 L202 396 L207 402 L207 408 L211 409 L212 420 L209 428 L212 431 L207 443 L214 430 L211 424 L218 418 Z M62 382 L68 383 L74 386 L78 391 L78 395 L84 393 L88 397 L89 402 L87 406 L72 400 L73 410 L76 416 L78 417 L78 419 L87 425 L86 428 L82 425 L73 423 L70 420 L63 403 L61 386 Z M151 354 L153 355 L154 367 L152 374 L147 377 L149 380 L147 387 L142 391 L140 390 L142 386 L141 369 L122 377 L119 381 L119 385 L121 385 L126 378 L137 374 L139 375 L140 383 L135 391 L132 391 L131 386 L129 385 L110 395 L102 409 L98 421 L98 429 L108 454 L115 461 L129 470 L149 475 L151 477 L157 477 L157 480 L134 476 L107 459 L100 451 L94 439 L90 423 L91 407 L94 402 L98 402 L96 394 L105 380 L111 383 L111 376 L121 366 L128 363 L129 367 L131 367 L133 362 L143 359 Z M82 339 L84 338 L85 340 L83 341 Z M93 334 L94 336 L88 352 L88 371 L91 381 L89 382 L86 378 L84 369 L84 351 L81 351 L80 347 L81 342 L83 341 L84 343 L86 343 L89 335 Z M86 333 L87 335 L84 338 L83 336 Z M114 317 L116 321 L105 333 L97 348 L96 369 L98 376 L101 380 L96 384 L91 372 L90 364 L92 348 L98 334 L105 328 L108 322 Z M135 316 L137 323 L136 325 L137 330 L135 331 L132 328 L132 326 L130 326 L118 334 L118 336 L120 336 L123 332 L127 330 L130 331 L130 333 L121 341 L118 346 L116 354 L117 364 L113 366 L112 365 L112 351 L117 340 L117 338 L115 338 L112 344 L109 356 L111 370 L109 373 L105 373 L104 375 L102 375 L99 364 L99 357 L101 349 L106 339 L124 318 L128 316 L129 317 L128 323 L129 323 L131 319 Z M123 313 L122 316 L116 315 L120 311 Z M148 295 L152 299 L155 305 L155 313 L148 322 L142 323 L139 320 L139 317 L143 315 L143 313 L140 311 L136 311 L135 309 L141 303 L142 300 Z M180 283 L181 284 L180 299 L173 318 L160 331 L153 334 L146 334 L141 328 L142 327 L150 328 L156 325 L154 322 L159 313 L159 305 L164 304 L164 302 L160 299 L163 291 L171 286 Z M73 276 L86 281 L93 288 L96 295 L96 303 L93 311 L96 311 L103 304 L106 309 L104 323 L93 331 L90 329 L90 326 L93 325 L95 315 L91 316 L84 312 L84 315 L91 318 L92 321 L83 329 L79 336 L77 343 L77 364 L81 377 L87 387 L86 389 L84 389 L80 385 L78 379 L75 378 L69 358 L69 342 L75 322 L72 324 L67 341 L67 360 L70 372 L75 380 L74 382 L69 380 L64 372 L60 353 L61 337 L66 321 L83 295 L85 296 L83 306 L85 306 L87 300 L86 290 L81 285 L79 289 L75 289 L72 286 L71 279 Z M103 265 L105 264 L106 266 L104 267 Z M176 256 L178 258 L178 273 L176 275 L175 280 L172 283 L169 283 L168 281 L166 281 L160 293 L153 294 L152 284 L154 282 L156 275 L161 272 L161 268 L165 262 L172 257 Z M90 253 L92 252 L93 254 L91 255 Z M107 237 L113 239 L117 243 L119 249 L116 259 L112 264 L109 265 L107 264 L110 257 L109 250 L106 249 L105 253 L100 253 L97 250 L98 242 L101 239 Z M87 229 L89 228 L90 231 L88 232 Z M107 193 L125 208 L126 221 L123 225 L127 232 L131 234 L127 229 L127 219 L133 211 L151 233 L156 251 L155 268 L151 280 L140 298 L128 310 L125 310 L124 307 L136 294 L146 274 L147 251 L142 238 L140 238 L145 252 L143 275 L133 294 L112 314 L108 302 L123 287 L130 275 L132 266 L131 254 L118 238 L122 237 L129 243 L135 257 L135 269 L128 287 L135 278 L138 255 L132 242 L126 236 L116 232 L103 234 L95 240 L93 245 L91 244 L91 237 L95 229 L106 223 L101 224 L97 221 L96 211 Z M107 179 L109 180 L112 187 L117 193 L116 195 L111 191 L106 181 Z M105 177 L107 176 L108 178 L106 179 Z M82 164 L91 174 L91 186 L97 186 L100 191 L100 196 L96 200 L92 198 L93 211 L92 218 L89 222 L86 220 L83 212 L84 195 L88 193 L86 186 L84 186 L81 200 L81 212 L85 223 L87 224 L87 227 L84 228 L85 235 L83 239 L88 242 L88 246 L91 250 L90 253 L85 251 L85 253 L95 259 L107 258 L103 263 L97 265 L90 264 L79 259 L72 251 L68 237 L68 222 L80 226 L82 225 L74 219 L71 211 L71 194 Z M154 152 L159 153 L156 167 L150 172 L145 170 L145 164 L140 167 L135 173 L134 184 L136 190 L138 190 L136 178 L139 175 L143 189 L166 222 L170 233 L171 244 L168 244 L167 239 L167 253 L164 258 L162 257 L162 233 L157 219 L141 195 L137 196 L137 198 L145 204 L154 218 L161 238 L160 246 L158 245 L157 237 L148 216 L145 218 L139 212 L139 207 L136 207 L134 203 L131 202 L131 196 L129 196 L129 204 L127 205 L122 200 L120 194 L121 179 L123 177 L128 177 L126 175 L127 168 L138 158 Z M99 141 L101 140 L102 142 L100 143 Z M123 126 L124 128 L122 130 L117 131 L111 138 L107 146 L105 153 L105 167 L107 175 L105 176 L103 173 L103 169 L101 168 L101 154 L104 144 L108 136 L116 128 Z M155 35 L156 42 L153 49 L143 57 L143 66 L150 82 L150 96 L146 107 L139 114 L144 115 L152 110 L154 111 L149 127 L145 132 L130 135 L126 132 L126 129 L133 129 L131 121 L118 123 L112 126 L102 139 L98 138 L96 146 L94 142 L98 129 L95 132 L92 150 L96 151 L96 157 L92 158 L92 163 L94 163 L95 159 L97 160 L98 170 L105 185 L103 188 L95 179 L95 175 L89 166 L87 144 L91 125 L98 111 L122 88 L125 91 L121 109 L134 101 L134 99 L128 100 L136 90 L136 81 L131 73 L131 65 L137 54 Z"/></svg>
