<svg xmlns="http://www.w3.org/2000/svg" width="512" height="512" viewBox="0 0 512 512" aria-hidden="true" focusable="false"><path fill="currentColor" fill-rule="evenodd" clip-rule="evenodd" d="M157 324 L154 324 L154 326 L136 345 L135 350 L132 353 L132 356 L130 357 L130 361 L128 363 L128 378 L130 380 L130 384 L132 385 L133 392 L136 394 L138 398 L141 398 L141 395 L138 392 L137 386 L135 385 L135 379 L133 378 L134 376 L133 368 L135 367 L135 361 L137 360 L140 350 L143 348 L144 344 L152 335 L152 333 L156 330 Z M50 19 L55 60 L45 111 L53 130 L83 156 L66 157 L50 167 L42 181 L43 199 L60 216 L73 216 L83 209 L86 198 L80 189 L69 190 L69 195 L76 194 L80 199 L73 209 L59 208 L50 197 L53 174 L68 164 L90 167 L102 181 L106 196 L102 233 L82 269 L64 244 L47 236 L55 259 L55 276 L37 339 L37 377 L51 412 L75 434 L69 452 L72 488 L92 477 L124 469 L148 490 L196 493 L223 482 L277 436 L299 427 L329 431 L342 450 L338 474 L322 485 L304 481 L295 465 L307 453 L312 457 L311 464 L316 464 L316 450 L299 448 L290 457 L290 475 L304 490 L325 491 L341 482 L350 453 L371 477 L387 485 L430 479 L476 485 L424 448 L391 452 L358 417 L331 404 L287 407 L266 418 L240 442 L223 420 L251 400 L284 351 L238 351 L233 322 L237 299 L203 311 L198 294 L168 259 L163 244 L128 285 L116 313 L85 298 L121 244 L129 215 L129 183 L115 147 L78 109 L83 93 L82 72 Z M138 424 L138 441 L128 450 L124 452 L101 452 L100 451 L98 452 L97 451 L97 447 L99 445 L100 440 L112 428 L120 427 L122 425 L135 425 L136 423 Z M187 423 L191 422 L193 424 L206 424 L209 422 L211 424 L219 425 L231 436 L232 440 L231 441 L221 440 L219 442 L214 442 L212 444 L202 444 L201 442 L194 441 L188 435 L189 431 L187 429 Z M170 416 L173 417 L180 424 L180 437 L179 440 L163 456 L155 448 L153 448 L148 443 L148 441 L144 438 L145 436 L144 427 L145 424 L152 417 Z M445 471 L408 478 L386 477 L363 460 L341 431 L320 420 L297 420 L280 426 L222 474 L183 488 L159 486 L144 480 L130 468 L128 458 L143 447 L164 468 L185 442 L198 450 L240 447 L266 425 L287 414 L322 409 L353 422 L387 457 L399 458 L417 453 Z M59 364 L66 371 L67 376 L69 377 L70 384 L72 385 L73 390 L75 391 L78 400 L81 402 L81 404 L91 414 L108 423 L107 425 L101 426 L98 425 L97 423 L92 422 L91 420 L84 417 L72 405 L69 398 L66 396 L64 392 L63 386 L61 385 L60 375 L58 374 Z M68 362 L87 362 L89 365 L96 368 L102 376 L106 387 L114 399 L124 408 L129 409 L133 413 L137 412 L140 416 L117 419 L116 417 L111 417 L95 408 L83 394 L82 389 L80 388 L74 372 L69 366 Z M270 355 L270 358 L265 362 L251 388 L245 396 L233 406 L213 415 L185 414 L186 411 L198 406 L212 392 L223 371 L238 357 L248 354 Z M159 312 L184 338 L196 363 L196 380 L191 393 L178 406 L165 411 L142 406 L129 393 L124 380 L124 363 L130 347 Z M226 309 L228 314 L226 316 L226 321 L228 322 L228 332 L231 340 L231 354 L218 365 L206 389 L199 395 L198 393 L201 385 L203 384 L203 359 L199 353 L198 346 L193 340 L193 336 L195 335 L198 327 L207 318 Z M94 309 L105 313 L116 321 L124 330 L127 338 L125 344 L122 346 L121 353 L119 354 L119 358 L117 360 L117 382 L119 383 L119 389 L122 393 L121 395 L116 391 L115 386 L113 385 L105 368 L97 360 L89 356 L89 340 L93 330 Z M82 302 L84 305 L84 308 L86 309 L86 328 L84 330 L83 337 L83 353 L66 354 L59 356 L58 344 L60 342 L60 338 L63 333 L64 325 L66 324 L74 309 Z M160 260 L185 287 L193 300 L196 320 L190 327 L189 332 L168 312 L163 304 L162 296 L158 296 L154 309 L132 332 L124 320 L127 300 L138 284 L156 267 Z M59 249 L72 264 L75 273 L75 289 L69 306 L65 309 L59 321 L51 345 L51 374 L59 396 L72 414 L85 424 L98 430 L92 441 L89 461 L97 458 L122 459 L122 463 L118 467 L92 470 L82 475 L78 474 L75 454 L77 453 L78 440 L82 437 L83 431 L67 420 L53 402 L45 383 L44 365 L42 364 L45 332 L49 325 L60 285 L61 260 Z M61 53 L66 56 L77 78 L77 89 L72 101 L73 114 L100 139 L110 152 L122 187 L122 215 L116 238 L105 262 L82 294 L80 293 L82 279 L96 261 L110 230 L113 194 L107 173 L91 154 L64 133 L53 114 L52 98 L60 73 Z"/></svg>
