<svg xmlns="http://www.w3.org/2000/svg" width="512" height="512" viewBox="0 0 512 512" aria-hidden="true" focusable="false"><path fill="currentColor" fill-rule="evenodd" clip-rule="evenodd" d="M258 17 L229 65 L224 65 L220 86 L212 71 L215 55 L198 74 L201 88 L190 83 L150 99 L103 138 L75 184 L66 215 L56 228 L53 249 L32 263 L53 279 L55 297 L61 311 L66 312 L74 342 L107 395 L140 424 L168 440 L185 444 L193 456 L205 457 L216 473 L245 483 L255 496 L268 483 L297 473 L308 457 L320 456 L328 443 L342 441 L375 422 L406 394 L438 342 L446 312 L451 311 L459 279 L480 265 L459 249 L457 231 L451 217 L446 216 L437 184 L409 138 L359 97 L323 83 L312 88 L315 73 L299 56 L301 72 L293 86 L289 65 L284 64 Z M251 478 L255 482 L257 482 L260 478 L263 479 L263 484 L258 490 L255 490 L250 485 L249 480 Z M253 473 L258 472 L259 474 L256 476 Z M228 463 L229 462 L231 463 L235 471 L247 475 L246 479 L243 480 L234 476 L228 468 Z M284 459 L285 467 L283 471 L278 476 L267 480 L265 475 L277 471 L282 464 L282 460 Z M274 450 L279 455 L280 461 L278 463 L276 462 L275 455 L273 452 Z M238 450 L239 453 L237 456 L237 463 L235 464 L233 461 L233 457 L236 451 Z M300 449 L303 450 L303 452 L306 455 L305 457 L297 455 Z M207 456 L211 449 L216 454 L215 456 L211 457 Z M255 447 L257 447 L260 450 L266 461 L264 467 L261 469 L257 467 L251 469 L247 465 L248 456 Z M241 444 L243 443 L244 445 L242 446 Z M267 441 L269 440 L271 444 L269 445 Z M243 440 L245 439 L246 441 L244 442 Z M255 434 L259 436 L270 451 L273 459 L272 466 L270 468 L268 467 L269 463 L268 457 L259 445 L257 440 L255 440 L254 444 L244 458 L244 467 L243 468 L241 467 L240 464 L241 454 Z M330 431 L331 433 L329 435 L329 438 L324 443 L319 444 L322 448 L315 454 L308 453 L305 445 L298 446 L293 454 L293 461 L300 460 L301 462 L294 471 L291 471 L290 470 L291 465 L288 464 L288 450 L291 444 L297 438 L301 436 L309 436 L310 439 L322 437 L327 431 Z M182 432 L186 431 L191 437 L199 438 L202 440 L204 440 L205 436 L211 436 L216 438 L223 446 L225 453 L224 463 L221 464 L222 470 L221 471 L217 470 L212 463 L213 460 L219 461 L219 452 L215 446 L208 445 L206 451 L203 454 L197 454 L191 449 L191 447 L194 444 L187 442 Z M256 415 L258 416 L265 430 L264 436 L261 434 L257 425 L255 425 L250 435 L247 434 L248 428 Z M443 296 L446 300 L444 304 L443 314 L437 335 L424 362 L410 383 L402 393 L396 398 L394 402 L371 421 L367 422 L352 432 L332 441 L331 439 L333 435 L357 424 L381 407 L406 381 L417 365 L427 345 L434 326 L436 316 L438 314 L440 298 Z M69 296 L72 297 L74 313 L76 315 L78 326 L86 347 L94 363 L107 382 L135 410 L159 426 L178 434 L181 437 L180 440 L175 439 L155 429 L142 420 L140 420 L127 410 L110 393 L102 383 L88 362 L77 340 L71 322 L67 304 L67 298 Z M439 281 L449 291 L454 292 L452 300 L439 287 L438 283 Z M73 280 L74 281 L73 287 L60 300 L58 292 L63 291 Z M443 275 L445 274 L448 278 L451 278 L451 275 L454 274 L456 276 L455 283 L451 287 L449 287 L444 282 Z M58 274 L61 275 L61 278 L64 278 L67 274 L69 275 L68 282 L63 287 L60 286 L56 281 L56 276 Z M440 263 L442 262 L443 264 L441 265 Z M446 262 L451 261 L452 266 L448 268 L446 266 Z M60 266 L61 261 L65 261 L67 263 L64 268 Z M456 260 L458 260 L461 263 L461 265 L458 268 L455 267 Z M55 259 L57 260 L56 263 L58 267 L57 269 L51 265 L51 263 Z M435 257 L439 259 L435 263 L435 265 L439 269 L438 271 L434 271 L427 265 Z M75 257 L80 259 L85 264 L78 271 L73 270 L77 265 L77 263 L73 260 Z M447 256 L450 255 L451 257 L448 258 Z M61 256 L64 255 L65 257 L62 258 Z M459 253 L463 254 L473 263 L473 265 L462 274 L459 274 L458 272 L464 266 L466 266 L466 263 L457 256 Z M51 253 L53 253 L55 256 L46 263 L46 266 L48 266 L54 272 L53 274 L49 274 L39 265 L39 263 Z M450 241 L456 247 L455 254 L453 254 L450 249 L448 249 L446 253 L443 252 L444 247 Z M61 241 L67 245 L69 249 L68 254 L64 250 L62 250 L59 254 L56 252 L56 247 Z M452 229 L454 236 L449 237 L439 247 L438 245 L440 240 L449 230 Z M60 229 L63 230 L72 240 L74 245 L73 247 L63 237 L58 236 Z M233 96 L239 95 L240 97 L234 98 Z M267 94 L270 93 L273 95 L278 95 L279 97 L273 98 L268 96 Z M289 93 L286 96 L283 97 L280 96 L281 94 L286 92 Z M223 92 L225 91 L231 94 L232 96 L230 97 L224 94 Z M271 77 L274 80 L274 82 L271 86 L266 84 L267 93 L265 94 L262 90 L261 83 L265 78 Z M247 77 L252 83 L252 88 L247 95 L241 97 L240 95 L246 92 L248 85 L245 84 L242 86 L239 81 L242 77 Z M304 74 L312 75 L312 80 L310 82 L305 82 L305 86 L308 90 L316 91 L322 87 L325 87 L342 93 L374 111 L389 123 L403 137 L419 158 L435 188 L441 206 L445 230 L442 233 L440 232 L439 220 L434 202 L425 179 L413 158 L404 147 L404 145 L398 140 L398 138 L372 116 L343 99 L324 92 L319 95 L309 95 L305 93 L301 89 L299 84 L300 79 L303 78 Z M209 72 L210 79 L213 80 L214 85 L213 89 L207 94 L195 95 L189 92 L160 104 L135 120 L117 135 L117 137 L109 144 L109 146 L94 166 L86 181 L74 215 L72 232 L70 233 L67 230 L70 209 L77 188 L87 168 L104 143 L128 119 L158 99 L188 87 L191 87 L197 91 L205 90 L208 87 L208 82 L203 82 L201 80 L201 75 L203 73 L207 74 Z M272 70 L279 76 L280 78 L279 81 L271 73 Z M241 70 L242 73 L235 80 L234 76 Z M277 61 L282 66 L283 72 L287 71 L289 75 L289 83 L287 87 L280 92 L273 91 L274 89 L279 88 L282 84 L282 76 L275 68 L275 64 Z M235 61 L238 63 L238 68 L231 77 L231 84 L236 89 L239 89 L240 90 L239 92 L234 92 L229 90 L224 83 L224 75 L227 71 L230 72 L230 68 Z M257 50 L268 69 L258 81 L264 98 L281 101 L297 94 L310 99 L329 97 L369 118 L403 150 L432 205 L439 237 L435 253 L422 265 L435 275 L439 292 L418 356 L402 380 L375 407 L337 430 L336 422 L318 435 L302 432 L293 436 L282 455 L255 402 L229 458 L227 446 L218 435 L192 434 L176 422 L175 429 L135 405 L105 373 L90 348 L73 292 L77 275 L90 263 L77 253 L73 236 L87 188 L116 142 L152 112 L184 97 L203 99 L216 94 L233 101 L249 98 L255 81 L246 73 L246 66 Z M256 26 L260 30 L270 48 L269 53 L273 52 L275 55 L275 58 L271 63 L268 61 L264 55 L258 41 L255 42 L251 52 L244 63 L242 63 L238 58 L238 55 L240 52 L244 53 L243 48 Z"/></svg>
