<svg xmlns="http://www.w3.org/2000/svg" width="512" height="512" viewBox="0 0 512 512" aria-hidden="true" focusable="false"><path fill="currentColor" fill-rule="evenodd" clip-rule="evenodd" d="M74 88 L74 105 L61 111 L61 215 L72 216 L71 252 L77 257 L71 264 L71 296 L61 297 L61 400 L74 406 L74 423 L90 423 L96 428 L97 438 L219 438 L220 428 L250 428 L256 422 L262 428 L293 428 L296 438 L416 438 L417 428 L423 423 L439 423 L439 406 L452 400 L452 297 L442 296 L442 264 L435 258 L442 252 L441 218 L452 215 L452 111 L439 105 L439 88 L419 88 L416 73 L294 73 L292 85 L263 85 L257 92 L250 85 L221 85 L219 73 L97 73 L96 93 L93 88 Z M95 419 L97 420 L96 424 L94 423 Z M417 418 L419 419 L418 424 L416 423 Z M434 406 L437 410 L436 418 L432 420 L424 419 L422 416 L424 414 L428 416 L428 412 L431 411 L431 407 Z M79 406 L82 407 L82 411 L85 412 L85 416 L87 416 L88 414 L90 415 L89 419 L87 420 L77 419 L76 410 Z M434 401 L438 400 L439 402 L435 403 Z M74 401 L78 400 L79 402 L75 403 Z M439 114 L443 113 L444 115 L440 116 Z M69 114 L72 113 L73 115 L70 116 Z M434 109 L438 108 L439 110 L435 111 Z M74 109 L78 108 L79 110 L75 111 Z M424 92 L432 91 L436 93 L437 99 L434 105 L431 104 L432 100 L429 100 L428 96 L425 97 L423 96 Z M89 92 L90 96 L88 97 L87 95 L85 95 L85 99 L81 100 L82 104 L79 105 L76 100 L77 93 L81 91 Z M417 87 L419 88 L418 93 L416 92 Z M412 83 L414 84 L413 88 L411 87 Z M106 77 L215 77 L216 89 L249 89 L256 97 L264 89 L297 89 L298 77 L407 77 L408 91 L426 100 L438 119 L449 120 L449 211 L438 212 L438 250 L430 257 L438 266 L438 300 L449 301 L449 391 L438 392 L427 411 L408 421 L407 434 L299 435 L298 425 L265 425 L256 417 L248 425 L215 425 L214 435 L106 435 L105 421 L86 411 L75 392 L64 391 L64 302 L75 300 L75 266 L83 259 L75 250 L75 212 L64 211 L64 120 L75 119 L86 100 L105 91 Z M256 30 L236 58 L238 69 L232 67 L230 73 L228 60 L222 64 L87 64 L86 78 L64 79 L64 101 L52 102 L52 217 L47 222 L60 226 L53 230 L62 249 L54 253 L47 246 L32 257 L46 270 L53 263 L62 270 L59 273 L55 266 L54 273 L47 276 L24 259 L45 240 L52 241 L57 249 L58 243 L52 237 L42 237 L17 259 L43 279 L55 277 L53 284 L60 286 L47 290 L52 296 L52 409 L64 410 L64 433 L86 433 L87 447 L221 447 L227 451 L230 440 L232 445 L237 444 L237 457 L257 482 L275 458 L276 444 L281 445 L283 440 L285 452 L292 447 L426 447 L427 433 L449 433 L449 410 L461 409 L461 296 L466 289 L454 287 L460 284 L456 277 L472 278 L496 257 L474 239 L461 237 L455 243 L456 249 L461 241 L468 240 L489 259 L466 276 L457 266 L454 273 L451 270 L455 263 L467 270 L481 257 L467 246 L459 253 L451 249 L460 230 L453 226 L466 222 L461 217 L461 102 L449 101 L449 79 L427 79 L426 64 L291 64 L285 60 L283 73 L281 67 L275 69 L276 56 Z M252 449 L257 448 L262 450 L261 455 L257 460 L253 457 L250 452 Z M276 438 L278 437 L279 439 L277 440 Z M245 437 L247 437 L251 441 L252 444 L249 448 L244 448 L245 452 L249 454 L249 456 L255 463 L256 467 L264 456 L264 453 L268 451 L268 448 L264 448 L261 445 L262 440 L268 437 L269 439 L264 443 L265 444 L268 443 L273 447 L273 455 L271 456 L270 459 L265 460 L266 461 L265 465 L259 471 L257 475 L248 465 L247 460 L241 457 L239 452 L239 448 L241 445 L249 443 L244 439 Z M233 438 L236 437 L237 439 L234 440 Z M255 433 L257 433 L260 436 L258 445 L254 444 L253 436 Z M451 277 L454 280 L452 283 L450 282 Z M61 277 L63 278 L62 283 L59 281 Z M447 259 L447 257 L452 254 L458 255 L460 257 L456 261 L449 261 Z M53 257 L55 255 L61 254 L64 255 L66 259 L63 261 L55 260 Z M464 253 L465 252 L471 253 L475 257 L475 259 L470 263 L464 263 L463 262 L463 257 L465 256 Z M38 257 L42 253 L48 252 L49 253 L48 256 L50 257 L51 261 L49 263 L43 263 L38 259 Z M454 231 L455 233 L451 237 L450 232 Z M58 232 L62 231 L63 236 L61 237 Z M277 73 L279 74 L278 77 L275 76 Z M233 73 L235 72 L239 76 L234 77 Z M255 68 L259 69 L260 77 L257 81 L253 77 Z M67 83 L90 82 L91 68 L223 68 L229 79 L251 78 L256 86 L262 78 L284 79 L290 68 L422 68 L423 82 L445 82 L446 105 L458 106 L458 219 L447 228 L449 252 L441 257 L449 263 L447 286 L458 293 L458 404 L446 405 L446 428 L423 429 L422 443 L290 443 L284 434 L262 435 L257 427 L251 435 L229 434 L223 443 L91 443 L90 429 L68 429 L67 405 L55 404 L55 293 L66 285 L64 263 L71 259 L63 253 L66 228 L55 219 L55 106 L67 105 Z M256 52 L261 57 L262 62 L260 64 L251 62 L252 57 Z M256 37 L267 50 L265 53 L266 54 L270 53 L271 56 L273 57 L273 66 L265 70 L267 73 L269 72 L271 73 L268 76 L263 74 L261 71 L261 68 L265 64 L268 64 L268 61 L264 59 L257 45 L250 55 L249 59 L245 60 L244 62 L245 65 L248 64 L252 69 L251 72 L247 76 L244 76 L243 74 L247 72 L248 70 L242 68 L239 63 L241 55 L243 53 L246 54 L248 53 L246 50 L248 49 L248 47 L254 41 Z"/></svg>
