<svg xmlns="http://www.w3.org/2000/svg" width="512" height="512" viewBox="0 0 512 512" aria-hidden="true" focusable="false"><path fill="currentColor" fill-rule="evenodd" clip-rule="evenodd" d="M62 68 L49 84 L45 98 L45 216 L35 241 L28 244 L21 266 L25 285 L45 302 L45 446 L55 469 L66 479 L87 487 L221 487 L235 496 L254 489 L277 496 L291 487 L425 487 L449 477 L462 462 L467 445 L467 302 L487 285 L491 275 L484 245 L477 241 L467 216 L467 99 L455 73 L437 60 L422 57 L279 59 L257 17 L233 59 L89 57 Z M277 477 L279 482 L274 485 L271 485 L270 483 Z M234 478 L236 477 L242 484 L238 485 L233 482 Z M293 481 L283 490 L278 492 L267 492 L263 490 L258 484 L261 481 L268 488 L278 487 L283 482 L286 481 L285 478 L283 479 L281 478 L284 474 L290 474 L291 479 Z M220 475 L225 473 L228 474 L231 478 L230 479 L227 478 L226 481 L229 482 L232 486 L237 488 L244 488 L249 485 L251 481 L254 484 L249 490 L245 492 L234 492 L229 490 L219 482 L221 479 Z M255 468 L257 468 L260 473 L260 477 L257 480 L255 480 L252 477 L252 473 Z M258 461 L266 470 L265 477 L263 476 L263 472 L257 463 Z M254 461 L255 463 L250 469 L249 476 L247 477 L246 470 Z M254 460 L257 459 L258 461 L255 462 Z M255 435 L258 436 L259 443 L262 443 L263 446 L265 447 L265 449 L263 450 L263 454 L266 455 L268 453 L272 458 L271 465 L275 466 L275 472 L271 478 L269 477 L269 469 L267 465 L262 460 L257 452 L254 453 L253 456 L245 465 L243 469 L242 478 L239 476 L237 472 L237 466 L240 465 L240 458 L244 453 L246 455 L249 454 L248 447 L250 443 L253 443 L253 438 Z M460 289 L462 288 L463 290 L461 291 Z M465 286 L466 282 L470 283 L467 287 Z M42 283 L46 282 L47 286 L45 287 Z M464 251 L465 255 L459 260 L458 257 Z M48 251 L52 254 L53 256 L52 259 L47 255 Z M31 250 L44 256 L52 268 L47 278 L40 279 L34 270 L38 265 L41 265 L44 268 L41 274 L44 274 L47 271 L47 266 L43 262 L34 260 L31 274 L38 285 L54 301 L54 442 L61 461 L74 473 L92 478 L212 478 L218 480 L218 483 L87 483 L72 478 L57 465 L49 448 L49 303 L47 298 L36 291 L25 278 L24 271 L27 270 L26 261 Z M481 249 L486 262 L485 270 L488 271 L484 283 L468 295 L463 303 L463 448 L454 466 L443 476 L425 483 L294 483 L294 480 L300 478 L420 478 L438 473 L451 461 L456 451 L458 440 L458 300 L462 294 L474 285 L481 274 L478 260 L469 262 L465 266 L465 271 L468 274 L471 274 L471 271 L468 270 L471 265 L474 265 L478 270 L472 279 L465 278 L460 272 L462 262 L468 256 Z M468 227 L470 230 L470 236 L473 237 L475 244 L472 251 L469 251 L467 246 L464 245 L456 255 L454 260 L454 269 L458 276 L456 278 L451 272 L449 265 L449 259 L452 257 L451 251 L453 246 L455 244 L460 246 L459 239 L460 234 L463 232 L465 228 Z M44 227 L49 230 L49 232 L51 233 L53 237 L52 246 L57 244 L60 248 L60 256 L63 257 L63 264 L61 272 L54 280 L52 278 L56 274 L58 269 L57 257 L48 245 L45 246 L43 251 L40 251 L37 245 L38 238 L42 237 L42 230 Z M72 76 L93 69 L224 70 L224 80 L234 87 L246 86 L255 79 L278 87 L288 80 L289 69 L419 69 L440 76 L448 84 L455 101 L455 237 L446 265 L459 286 L450 297 L455 314 L455 444 L443 466 L423 475 L297 475 L290 470 L279 474 L277 460 L257 425 L235 460 L233 474 L222 470 L215 475 L88 475 L67 464 L57 444 L57 314 L62 298 L52 285 L66 265 L57 237 L57 100 Z M259 75 L262 74 L267 78 L275 78 L273 72 L277 68 L277 65 L285 61 L426 61 L434 63 L447 71 L456 81 L463 97 L463 226 L460 229 L458 228 L457 97 L449 81 L440 73 L425 67 L285 67 L278 72 L278 76 L283 74 L285 78 L276 84 L266 82 Z M253 74 L249 80 L241 84 L233 83 L227 78 L228 75 L234 76 L233 70 L227 67 L87 67 L79 69 L69 75 L60 85 L56 93 L54 104 L54 229 L51 229 L49 226 L49 96 L54 84 L65 71 L76 64 L86 61 L228 61 L234 64 L239 72 L237 78 L241 79 L247 77 L251 73 Z M255 59 L257 59 L260 63 L260 67 L257 71 L255 71 L252 67 L252 64 Z M255 49 L257 49 L264 57 L266 61 L265 69 L263 68 L262 60 L257 54 L255 54 L250 60 L249 68 L248 69 L246 68 L246 61 Z M255 26 L258 27 L259 34 L264 36 L263 46 L267 46 L269 44 L272 49 L272 56 L275 57 L275 64 L273 68 L270 70 L268 69 L269 61 L257 43 L254 44 L253 48 L243 61 L244 69 L242 70 L237 64 L237 58 L240 57 L240 49 L243 44 L249 46 L249 42 L247 39 L250 35 L253 34 L253 29 Z"/></svg>
