<svg xmlns="http://www.w3.org/2000/svg" width="512" height="512" viewBox="0 0 512 512" aria-hidden="true" focusable="false"><path fill="currentColor" fill-rule="evenodd" clip-rule="evenodd" d="M256 84 L250 90 L243 101 L241 107 L241 117 L243 122 L251 127 L257 128 L262 127 L267 123 L269 123 L272 116 L272 107 L265 93 Z M257 90 L260 93 L260 95 L263 97 L266 103 L267 116 L263 122 L252 123 L247 119 L244 111 L246 109 L247 103 L250 97 Z M252 17 L232 27 L222 47 L225 65 L235 79 L199 108 L164 146 L137 189 L120 228 L103 294 L97 346 L101 445 L112 470 L127 483 L144 489 L240 495 L369 489 L386 483 L401 470 L412 445 L416 346 L405 269 L383 203 L361 163 L327 121 L300 97 L300 93 L312 89 L312 82 L288 63 L291 49 L287 36 L274 22 Z M268 474 L269 477 L266 479 L265 476 Z M244 475 L246 474 L248 478 L246 479 Z M214 475 L215 474 L219 475 L225 474 L229 475 L230 478 L229 479 L219 479 L216 478 Z M312 474 L312 477 L310 479 L304 478 L307 474 L309 473 Z M200 477 L202 473 L209 476 L208 479 L201 479 Z M300 473 L300 475 L294 479 L283 479 L282 478 L284 475 L296 474 L298 472 Z M273 467 L276 467 L281 471 L281 474 L277 478 L275 478 L272 475 L272 472 L270 471 L270 469 Z M240 467 L242 469 L241 475 L238 478 L236 478 L231 472 L235 468 Z M293 466 L295 464 L300 464 L304 467 L304 469 L301 471 L299 470 L299 468 L294 470 Z M281 465 L288 464 L289 468 L285 469 Z M224 468 L225 464 L232 465 L231 467 L227 469 Z M209 467 L213 464 L218 464 L220 466 L220 469 L217 470 L216 468 L214 468 L214 471 L211 472 Z M350 463 L351 464 L350 472 L345 476 L340 476 L339 475 L340 473 L345 472 L348 469 L346 464 Z M307 467 L311 463 L320 463 L325 465 L327 470 L331 471 L332 477 L328 478 L325 476 L323 478 L320 478 L316 474 L317 472 L322 474 L322 469 L320 467 L314 467 L309 469 Z M256 463 L263 470 L263 473 L257 479 L254 478 L252 474 L250 473 L250 469 Z M206 467 L205 469 L199 467 L192 468 L191 474 L193 474 L194 472 L197 473 L193 478 L188 478 L187 476 L184 478 L181 477 L181 474 L187 469 L188 465 L193 463 L202 463 Z M342 462 L344 463 L343 468 L340 467 L340 464 Z M330 463 L336 462 L337 466 L334 467 Z M176 466 L177 462 L183 463 L179 467 Z M163 463 L171 462 L173 464 L171 468 L168 465 L167 466 L168 472 L174 474 L173 476 L168 476 L163 472 L164 469 L162 465 Z M364 452 L366 453 L367 457 L372 458 L375 461 L377 461 L380 456 L382 457 L382 463 L379 467 L369 473 L367 473 L366 471 L370 467 L369 466 L370 463 L366 459 L362 459 L360 461 L361 464 L364 463 L366 464 L366 466 L363 469 L360 470 L355 469 L355 463 L357 458 L360 455 L362 455 Z M149 452 L151 455 L153 455 L156 458 L158 463 L158 469 L157 470 L150 469 L147 464 L148 463 L153 464 L153 461 L151 459 L147 459 L143 463 L147 471 L146 473 L144 473 L138 470 L131 463 L130 459 L134 455 L135 461 L138 461 L146 457 L147 453 Z M392 451 L393 453 L387 460 L385 456 Z M121 451 L129 454 L126 460 L120 453 Z M391 440 L389 442 L389 448 L386 451 L382 449 L384 447 L383 444 L378 444 L373 448 L371 454 L368 452 L369 448 L375 441 L378 440 L384 441 L386 439 Z M123 440 L127 439 L129 441 L132 440 L138 441 L144 449 L141 450 L137 445 L131 444 L129 445 L131 449 L127 451 L124 448 Z M378 433 L382 432 L384 435 L379 436 Z M129 434 L133 431 L135 432 L134 436 L130 436 Z M120 423 L122 424 L121 428 L118 427 Z M390 423 L393 422 L395 426 L392 427 Z M388 415 L390 417 L390 422 L385 425 L387 428 L385 430 L382 426 L382 422 L385 421 L385 417 Z M125 415 L128 417 L128 421 L131 424 L130 427 L126 423 L123 422 L123 418 Z M117 401 L118 405 L123 406 L123 411 L117 419 L116 423 L114 424 L113 423 L113 412 L116 409 L114 406 L114 402 Z M398 394 L400 393 L401 395 L399 396 Z M112 394 L114 393 L115 395 L113 396 Z M383 389 L385 390 L389 402 L392 405 L395 405 L396 401 L399 402 L399 406 L397 408 L400 412 L400 422 L399 423 L397 422 L391 412 L390 407 L387 407 L383 402 L382 398 Z M130 388 L131 389 L130 402 L127 406 L123 406 L122 404 L124 402 L124 398 L127 395 L128 389 Z M127 386 L129 385 L130 387 L128 388 Z M121 379 L122 378 L126 379 L128 383 L126 384 Z M128 375 L130 374 L131 376 L129 377 Z M400 370 L401 371 L400 387 L397 390 L393 390 L391 386 L396 385 L396 382 L389 382 L386 388 L384 389 L383 385 L385 381 L389 378 L392 378 L393 375 Z M113 370 L116 371 L120 375 L120 380 L117 382 L117 385 L122 386 L120 390 L116 390 L113 387 L112 384 L112 371 Z M388 366 L389 369 L385 376 L383 377 L382 367 Z M124 367 L130 366 L131 371 L126 372 Z M117 363 L119 362 L120 364 L118 365 Z M393 362 L395 361 L396 363 L394 364 Z M390 356 L392 355 L395 359 L392 360 Z M122 355 L123 358 L120 360 L119 357 Z M389 354 L390 356 L386 358 L387 361 L385 362 L383 358 L385 355 Z M123 355 L124 354 L128 355 L130 357 L130 360 L127 362 L126 361 L127 358 L124 357 Z M399 352 L401 353 L400 358 L397 356 Z M113 352 L116 354 L114 358 L112 357 Z M398 334 L400 343 L399 347 L393 350 L392 348 L395 347 L396 344 L390 343 L386 350 L384 351 L383 349 L385 344 L389 340 L394 339 L395 336 Z M114 335 L116 334 L119 337 L119 340 L124 340 L128 344 L130 350 L126 351 L125 345 L123 343 L118 343 L118 346 L121 348 L120 350 L116 349 L113 344 Z M386 327 L389 329 L389 333 L386 336 L386 338 L381 342 L380 332 L383 330 L384 327 Z M126 327 L129 328 L129 331 L133 332 L132 342 L125 336 L124 329 Z M117 327 L119 326 L120 329 L118 330 Z M392 326 L397 324 L399 327 L393 328 Z M391 323 L390 325 L386 323 L384 327 L382 326 L382 323 L385 320 L388 320 Z M124 321 L128 320 L131 323 L131 326 L129 327 L128 324 L125 323 Z M123 308 L124 310 L120 314 L119 320 L117 321 L116 320 L117 312 L121 308 Z M389 307 L392 308 L396 312 L397 316 L396 321 L394 320 L393 315 L388 309 Z M393 299 L395 300 L394 304 L390 302 Z M118 300 L120 299 L123 302 L119 304 Z M378 298 L385 306 L385 308 L382 309 L381 312 L377 308 L376 301 Z M135 298 L137 301 L136 308 L132 312 L131 309 L128 308 L128 306 L131 303 L131 301 Z M129 289 L132 288 L134 292 L132 293 Z M384 287 L385 289 L380 293 L379 290 L382 287 Z M391 282 L390 287 L393 289 L393 293 L389 298 L386 298 L384 295 L389 294 L389 291 L385 288 L385 284 L388 281 Z M123 281 L125 281 L128 284 L128 288 L124 292 L124 294 L129 295 L127 298 L124 298 L120 293 L120 289 L123 287 L122 284 Z M373 280 L379 281 L379 285 L376 289 L373 288 L372 282 Z M135 280 L141 281 L139 290 L134 284 Z M379 266 L382 270 L381 271 L376 270 L376 275 L374 276 L372 274 L372 270 L375 266 Z M135 263 L141 270 L141 274 L139 276 L137 275 L137 270 L133 269 L133 266 Z M378 254 L381 254 L388 264 L389 273 L387 275 L385 274 L385 266 L380 258 L377 256 Z M135 254 L136 256 L131 259 L128 269 L128 274 L126 275 L124 273 L125 264 L129 257 L132 254 Z M366 248 L373 253 L371 255 L370 260 L366 256 L365 253 Z M147 247 L148 255 L143 260 L142 255 L140 253 Z M381 246 L383 247 L382 251 L379 250 Z M130 247 L132 246 L134 250 L131 251 Z M149 232 L154 233 L154 236 L152 239 L148 235 Z M358 231 L365 233 L362 239 L357 234 Z M374 229 L377 230 L379 237 L379 241 L376 246 L372 245 L372 243 L376 241 L372 237 L372 232 Z M137 229 L139 229 L141 232 L141 237 L137 240 L138 242 L142 243 L140 246 L137 246 L134 242 L134 237 Z M356 220 L362 214 L366 214 L371 219 L371 226 L370 227 L368 226 L366 219 L362 219 L360 221 L360 225 L364 224 L365 226 L361 229 L356 225 Z M142 219 L147 214 L151 214 L158 220 L158 223 L155 227 L151 228 L150 226 L154 224 L154 221 L152 219 L147 219 L145 226 L143 227 Z M354 207 L356 208 L357 211 L355 215 L353 214 L352 211 Z M158 207 L160 208 L159 214 L157 213 Z M345 205 L349 204 L350 206 L347 209 Z M163 205 L167 204 L168 206 L165 209 Z M355 191 L360 194 L365 202 L364 209 L362 208 L362 206 L357 205 L357 202 L359 199 L354 193 Z M158 191 L159 193 L154 199 L156 203 L153 206 L151 206 L151 208 L149 209 L148 202 L153 194 Z M342 189 L345 189 L348 192 L348 198 L351 199 L350 201 L347 201 L344 199 L343 193 L341 191 Z M171 189 L172 191 L170 193 L170 196 L166 201 L164 201 L162 198 L165 197 L165 192 L168 189 Z M346 178 L350 177 L354 181 L355 185 L354 186 L348 185 L345 182 Z M164 176 L167 179 L167 181 L163 185 L159 186 L158 183 L160 179 Z M169 175 L172 174 L174 177 L171 178 Z M344 171 L347 170 L348 172 L345 173 Z M165 171 L168 170 L169 173 L167 174 Z M173 170 L175 169 L176 171 L174 172 Z M321 168 L323 167 L324 170 L322 171 Z M189 168 L191 167 L192 170 L190 171 Z M334 155 L337 157 L337 161 L340 163 L342 168 L339 170 L338 166 L335 165 L332 168 L332 175 L336 180 L342 180 L343 181 L342 185 L333 183 L331 179 L328 177 L328 166 L332 164 L332 159 Z M179 155 L181 159 L180 164 L183 164 L185 168 L185 177 L178 184 L171 185 L170 182 L177 180 L181 175 L180 167 L173 168 L171 167 L171 164 L176 161 L176 157 Z M306 154 L310 153 L311 155 L307 156 Z M202 154 L204 153 L205 155 L203 156 Z M184 151 L185 150 L187 151 L187 155 L190 158 L193 158 L191 153 L193 151 L196 151 L198 153 L198 159 L195 162 L188 162 L185 159 Z M243 147 L267 146 L296 163 L326 199 L348 246 L365 320 L368 397 L365 429 L347 446 L199 450 L166 446 L148 429 L147 330 L165 246 L199 182 L223 158 Z M259 136 L269 136 L291 147 L316 170 L338 200 L360 250 L369 293 L371 295 L374 327 L376 328 L378 399 L377 422 L372 437 L362 449 L353 455 L318 459 L259 459 L257 457 L258 455 L300 455 L301 453 L329 453 L350 450 L365 438 L370 428 L372 417 L370 322 L368 320 L365 290 L363 288 L360 269 L349 235 L333 202 L312 173 L288 151 L270 142 L258 140 Z M253 136 L254 140 L231 147 L202 172 L186 192 L164 235 L153 269 L150 290 L147 297 L145 320 L143 322 L141 415 L146 435 L156 446 L163 450 L184 453 L211 453 L212 455 L255 455 L256 457 L254 459 L194 459 L160 455 L152 450 L142 439 L136 422 L135 373 L137 329 L139 328 L141 301 L148 267 L150 266 L153 250 L164 222 L176 199 L191 177 L222 147 L244 136 Z M290 135 L293 138 L292 141 L289 139 Z M282 136 L285 135 L286 138 L284 139 Z M227 136 L229 135 L230 138 L228 139 Z M223 135 L224 139 L221 141 L220 137 Z M230 129 L233 128 L235 130 L238 130 L240 133 L239 134 L231 133 Z M227 127 L226 130 L221 130 L217 135 L215 134 L215 130 L217 128 L223 126 Z M299 132 L297 135 L295 135 L291 130 L285 130 L279 134 L273 133 L275 130 L286 127 L288 125 L291 127 L294 127 Z M300 120 L302 121 L305 120 L308 128 L307 135 L303 140 L303 144 L306 144 L307 142 L317 139 L318 136 L320 135 L322 137 L321 142 L325 142 L328 146 L329 156 L325 162 L318 162 L315 159 L315 153 L317 151 L320 151 L322 153 L320 158 L323 158 L326 155 L326 151 L322 146 L315 146 L306 150 L298 145 L297 140 L303 134 L303 131 L298 125 Z M213 118 L215 125 L210 131 L210 134 L216 140 L215 144 L208 150 L205 150 L198 146 L191 146 L188 149 L186 146 L186 143 L192 142 L191 137 L193 135 L195 136 L196 139 L210 144 L210 140 L207 137 L204 128 L207 120 Z M286 113 L287 114 L286 122 L282 123 L281 122 L282 117 Z M227 113 L231 117 L232 120 L231 123 L227 122 L226 116 Z M201 112 L201 134 L197 133 L196 127 L190 130 L148 191 L131 229 L119 270 L109 329 L107 371 L109 428 L117 457 L124 467 L147 478 L233 484 L324 483 L361 479 L380 473 L394 460 L404 429 L406 383 L404 329 L394 270 L382 229 L355 174 L320 127 L311 135 L310 114 L313 113 L349 154 L376 199 L393 242 L405 292 L412 364 L410 432 L400 463 L381 480 L328 489 L185 489 L132 480 L119 471 L108 454 L103 432 L101 364 L103 327 L114 264 L130 215 L153 170 Z M286 112 L288 111 L289 113 L287 114 Z M282 104 L284 103 L286 106 L283 108 Z M229 103 L231 104 L230 108 L227 106 Z M293 90 L295 89 L299 93 L297 94 Z M270 81 L272 80 L280 87 L287 91 L300 102 L309 112 L305 113 L301 108 L298 108 L298 115 L295 117 L294 121 L292 122 L291 121 L293 114 L292 104 L276 92 L275 88 L272 86 Z M243 81 L241 86 L238 88 L237 92 L221 104 L220 114 L221 117 L224 119 L222 122 L220 122 L218 117 L215 115 L215 108 L212 108 L208 113 L204 112 L214 101 L226 91 L233 87 L241 80 Z M257 72 L275 97 L278 107 L278 116 L276 122 L268 130 L260 133 L251 133 L242 128 L237 122 L235 107 L241 92 L248 81 Z M257 52 L263 51 L264 53 L266 53 L278 61 L280 64 L282 64 L289 70 L297 74 L300 78 L305 80 L309 86 L305 89 L300 88 L271 66 L268 65 L267 63 L262 61 L257 56 Z M260 39 L264 41 L267 47 L265 48 L263 46 L258 46 L253 50 L252 56 L255 62 L252 63 L244 55 L244 48 L250 40 Z M272 26 L282 36 L284 45 L286 46 L286 56 L282 59 L274 53 L271 42 L266 37 L261 36 L260 34 L252 34 L242 42 L239 49 L241 59 L249 67 L249 69 L243 74 L238 74 L235 72 L227 56 L227 46 L229 45 L229 41 L233 33 L241 26 L251 22 L262 22 Z"/></svg>
