<svg xmlns="http://www.w3.org/2000/svg" width="512" height="512" viewBox="0 0 512 512" aria-hidden="true" focusable="false"><path fill="currentColor" fill-rule="evenodd" clip-rule="evenodd" d="M256 17 L228 97 L205 116 L188 140 L176 188 L172 189 L161 176 L159 164 L152 174 L147 226 L152 235 L138 251 L132 269 L126 387 L109 421 L108 455 L120 479 L134 490 L153 496 L365 495 L384 487 L399 471 L406 450 L406 430 L387 387 L382 277 L377 255 L361 235 L366 226 L361 174 L354 164 L352 176 L341 190 L337 189 L325 140 L307 115 L285 97 Z M357 481 L356 483 L293 483 L292 482 L293 480 L341 480 L342 479 L352 479 Z M288 480 L279 490 L274 492 L272 491 L279 482 L285 479 Z M225 480 L228 479 L234 482 L241 491 L239 492 L234 490 Z M157 481 L161 479 L170 479 L171 480 L220 480 L221 482 L220 483 L158 483 Z M364 472 L369 471 L375 473 L376 475 L367 479 L366 478 L367 474 L365 474 Z M271 471 L272 481 L270 486 L268 487 L267 486 L268 484 L267 474 Z M242 471 L246 474 L245 478 L246 486 L245 487 L243 486 L241 482 L241 472 Z M138 474 L144 471 L148 472 L146 474 L147 477 L146 479 L140 477 Z M256 470 L261 473 L264 480 L264 486 L261 490 L257 492 L252 490 L249 486 L249 479 Z M371 466 L381 465 L383 468 L381 470 L376 470 L372 468 Z M130 468 L133 465 L143 466 L142 468 L137 470 L132 470 Z M374 459 L376 458 L377 460 L375 461 Z M136 459 L138 458 L139 460 L137 461 Z M392 447 L393 448 L392 456 L389 460 L387 459 L387 454 L384 454 L383 457 L381 456 L382 452 L385 449 Z M120 448 L123 447 L128 449 L131 452 L132 456 L130 457 L129 454 L126 454 L126 459 L124 460 L121 456 Z M126 443 L130 442 L135 449 L133 450 Z M125 437 L127 438 L126 442 L124 441 Z M389 435 L390 436 L389 441 L379 450 L378 448 Z M370 348 L372 349 L371 353 L369 352 Z M255 121 L257 120 L258 122 L256 123 Z M237 113 L256 127 L276 113 L298 132 L315 162 L319 223 L337 232 L343 246 L357 255 L363 270 L369 384 L386 433 L370 462 L356 475 L279 477 L274 468 L265 471 L256 460 L248 471 L239 468 L237 477 L165 477 L143 462 L127 433 L143 392 L148 286 L154 258 L170 246 L181 227 L194 223 L198 162 L211 137 Z M277 87 L280 90 L281 100 L295 110 L319 138 L330 167 L332 211 L338 215 L344 214 L346 208 L343 207 L339 211 L336 205 L341 200 L346 201 L351 207 L351 214 L345 221 L347 224 L355 216 L356 208 L346 196 L345 191 L354 178 L358 179 L353 192 L359 192 L363 209 L360 219 L354 223 L354 226 L359 226 L360 229 L353 234 L367 246 L376 266 L385 397 L397 415 L402 431 L402 449 L395 469 L383 482 L363 491 L284 491 L287 486 L357 486 L376 479 L388 468 L394 457 L396 433 L378 392 L374 307 L367 259 L360 247 L348 239 L344 229 L326 215 L326 185 L320 154 L306 130 L278 105 L278 98 L274 91 Z M238 87 L235 105 L214 122 L194 152 L188 175 L187 215 L169 229 L165 239 L153 247 L146 259 L139 308 L136 387 L132 403 L123 416 L117 433 L119 457 L125 468 L137 479 L156 486 L226 486 L230 491 L150 491 L130 482 L118 469 L111 449 L111 431 L115 417 L129 394 L137 266 L146 246 L160 234 L153 229 L154 226 L159 226 L159 223 L153 219 L150 211 L154 192 L156 191 L157 194 L160 192 L155 178 L159 178 L168 191 L168 195 L157 207 L158 216 L166 224 L168 221 L163 216 L162 207 L167 201 L172 200 L176 203 L174 211 L168 207 L169 214 L175 215 L181 211 L183 168 L194 138 L205 123 L232 100 L233 90 Z M256 59 L258 60 L265 72 L267 79 L266 88 L272 91 L274 99 L276 101 L274 104 L273 111 L265 118 L263 118 L262 116 L254 115 L249 109 L250 101 L256 97 L260 98 L263 101 L263 104 L260 107 L257 107 L258 110 L263 110 L267 105 L266 97 L260 93 L260 73 L257 69 L254 71 L253 74 L255 81 L255 92 L252 95 L250 95 L245 101 L245 110 L247 114 L246 116 L240 111 L239 104 L237 102 L241 91 L247 88 L246 78 L249 70 Z M256 29 L258 30 L261 40 L260 48 L263 48 L265 50 L273 69 L273 77 L271 82 L269 81 L269 72 L266 64 L262 60 L257 50 L255 51 L251 60 L247 64 L244 72 L244 81 L243 82 L241 81 L240 69 L248 50 L250 48 L253 48 L252 40 Z"/></svg>
