<svg xmlns="http://www.w3.org/2000/svg" width="512" height="512" viewBox="0 0 512 512" aria-hidden="true" focusable="false"><path fill="currentColor" fill-rule="evenodd" clip-rule="evenodd" d="M255 17 L245 50 L249 63 L221 106 L181 152 L165 180 L151 169 L150 157 L145 161 L147 209 L134 226 L116 210 L111 199 L109 227 L117 262 L129 273 L127 284 L134 293 L132 390 L127 386 L124 404 L127 449 L116 460 L115 471 L106 469 L107 490 L115 496 L400 495 L405 490 L406 469 L397 471 L396 460 L386 451 L385 386 L378 391 L378 291 L385 283 L383 273 L395 262 L403 226 L402 200 L378 226 L365 209 L367 161 L362 157 L361 169 L348 181 L329 149 L291 106 L263 63 L267 50 Z M374 491 L377 488 L381 488 L384 492 L375 493 Z M127 491 L131 488 L135 488 L138 492 L128 493 Z M404 485 L402 490 L396 494 L386 489 L387 487 L397 489 L401 484 Z M108 485 L111 484 L115 489 L118 489 L121 487 L125 487 L126 489 L119 493 L113 493 L110 490 Z M399 482 L401 481 L402 483 L400 484 Z M110 482 L112 481 L113 483 L111 484 Z M400 473 L401 474 L400 481 L394 485 L393 480 Z M110 472 L113 473 L119 480 L118 485 L112 481 L111 476 L109 474 Z M119 464 L149 463 L150 478 L160 478 L161 486 L351 486 L352 478 L362 478 L363 463 L392 463 L393 476 L389 484 L382 483 L368 493 L144 493 L135 485 L122 483 L119 476 Z M362 457 L363 456 L388 456 L389 459 L388 460 L363 460 Z M123 457 L124 456 L149 456 L150 459 L149 460 L124 460 Z M362 452 L363 451 L383 451 L384 453 L383 454 L363 454 Z M128 452 L129 451 L149 451 L150 453 L149 454 L129 454 Z M377 443 L383 442 L384 444 L378 445 Z M367 443 L369 442 L370 444 L368 445 Z M362 443 L364 442 L365 444 L363 445 Z M141 443 L144 442 L145 444 L142 445 Z M133 443 L137 442 L138 444 L134 445 Z M128 443 L130 442 L131 444 L129 445 Z M374 437 L376 436 L377 438 L375 439 Z M130 398 L132 399 L131 405 L139 413 L139 418 L142 418 L144 420 L144 428 L140 431 L139 427 L137 427 L135 429 L134 436 L131 433 L134 419 L131 418 L131 420 L129 421 L127 418 L127 415 L130 413 L127 407 L127 403 Z M382 397 L385 403 L385 407 L382 411 L385 414 L385 418 L383 421 L381 420 L381 418 L377 420 L381 429 L381 433 L377 437 L376 436 L377 428 L372 427 L372 429 L370 430 L368 428 L368 420 L370 418 L373 418 L372 414 L381 405 L380 398 Z M374 289 L376 291 L376 406 L365 420 L365 429 L368 433 L363 434 L362 291 L366 289 Z M139 289 L150 291 L149 434 L144 433 L147 429 L147 420 L136 406 L136 291 Z M362 286 L363 283 L379 283 L380 284 L378 287 L363 287 Z M132 284 L133 283 L149 283 L150 286 L149 287 L133 287 Z M362 279 L363 278 L378 278 L379 280 L378 281 L363 281 Z M133 279 L134 278 L149 278 L150 280 L149 281 L134 281 Z M362 275 L362 270 L366 268 L381 268 L382 269 L379 276 L363 276 Z M130 269 L131 268 L133 269 L149 268 L150 275 L149 276 L133 276 Z M362 263 L363 262 L387 262 L388 265 L387 266 L363 266 Z M124 263 L125 262 L149 262 L150 265 L149 266 L125 266 Z M362 251 L363 250 L391 250 L393 253 L393 256 L391 259 L363 259 Z M119 253 L121 250 L149 250 L150 258 L149 259 L120 259 Z M154 242 L156 243 L156 472 L165 472 L166 480 L346 480 L347 472 L356 472 L356 244 L359 244 L358 475 L349 475 L348 483 L164 483 L163 475 L153 474 Z M355 240 L357 239 L358 241 L356 242 Z M154 240 L156 239 L157 241 L155 242 Z M353 235 L355 234 L356 236 L354 237 Z M373 227 L377 230 L378 233 L377 237 L370 236 L370 232 Z M347 228 L350 227 L354 232 L352 233 Z M163 227 L164 229 L159 233 L158 231 Z M138 227 L140 228 L142 233 L141 237 L134 236 L134 232 Z M341 225 L343 224 L344 226 L342 227 Z M168 225 L170 224 L171 226 L169 227 Z M173 224 L176 223 L177 225 L174 226 Z M335 223 L337 222 L338 225 L336 226 Z M366 218 L368 218 L370 221 L369 226 L365 222 Z M145 218 L147 222 L143 226 L142 221 Z M401 212 L397 218 L400 221 L399 228 L395 230 L394 229 L395 225 L392 225 L390 227 L390 231 L392 234 L391 246 L381 248 L375 245 L373 245 L372 247 L363 248 L360 235 L355 224 L351 220 L342 215 L343 212 L356 214 L360 218 L366 229 L367 239 L368 240 L376 239 L381 243 L381 245 L383 245 L387 240 L387 234 L382 235 L380 233 L381 227 L385 225 L386 220 L389 219 L392 220 L393 215 L399 211 Z M149 211 L152 212 L150 217 L148 216 Z M361 210 L364 212 L363 217 L358 213 Z M172 211 L168 217 L164 218 L157 224 L153 231 L149 248 L139 247 L138 245 L131 248 L122 247 L119 239 L120 234 L122 232 L122 227 L120 225 L117 225 L118 228 L117 230 L115 230 L112 227 L112 220 L114 217 L111 214 L111 212 L113 211 L119 216 L120 220 L124 219 L127 222 L127 226 L131 227 L132 230 L130 235 L125 234 L125 241 L129 245 L131 245 L131 243 L134 240 L137 239 L144 240 L145 239 L146 229 L150 221 L156 214 L166 213 L170 210 Z M285 184 L289 183 L302 188 L311 196 L314 201 L315 206 L328 209 L335 216 L337 221 L335 222 L333 218 L324 211 L314 210 L312 208 L310 200 L304 193 L296 188 L286 186 Z M227 184 L226 186 L219 187 L208 193 L202 200 L200 208 L198 210 L187 211 L179 218 L177 222 L175 221 L177 216 L184 209 L188 207 L197 206 L199 199 L207 190 L219 184 L223 183 Z M345 182 L346 183 L345 194 L343 195 L339 190 L343 183 Z M278 183 L283 182 L284 184 L279 185 Z M228 183 L233 182 L234 184 L229 185 Z M167 182 L169 183 L173 190 L170 194 L167 193 L166 187 Z M270 182 L275 181 L276 183 L271 184 Z M219 190 L254 181 L293 190 L307 200 L311 213 L326 215 L333 229 L345 231 L352 240 L353 469 L343 470 L342 477 L170 477 L169 470 L159 469 L159 242 L167 231 L179 229 L186 215 L201 213 L205 200 Z M235 182 L240 181 L241 183 L236 184 Z M266 181 L269 180 L270 182 L267 183 Z M242 181 L244 180 L245 182 L243 183 Z M245 180 L247 179 L248 181 L246 182 Z M260 178 L262 177 L263 179 L261 180 Z M249 178 L251 177 L252 179 L250 180 Z M340 173 L341 180 L339 183 L337 183 L336 178 L338 174 Z M172 173 L174 174 L176 178 L176 182 L174 184 L172 183 L170 177 Z M254 173 L257 172 L258 175 L255 176 Z M292 172 L297 171 L300 175 L297 176 L293 174 Z M216 171 L218 174 L213 176 L212 174 Z M333 162 L336 165 L335 172 L333 172 L331 168 Z M178 162 L180 163 L181 166 L179 172 L176 171 L176 165 Z M255 159 L259 161 L257 165 L253 163 Z M268 158 L269 160 L266 165 L266 168 L264 169 L262 164 Z M244 158 L250 164 L248 169 L246 168 L245 162 L243 160 Z M327 154 L330 157 L330 161 L328 163 L325 161 L325 157 Z M276 154 L279 158 L279 164 L270 167 L269 165 L272 161 L274 161 L274 155 Z M184 154 L187 157 L187 161 L185 163 L182 161 L182 157 Z M267 146 L268 152 L264 156 L263 149 Z M245 146 L249 150 L248 156 L244 153 Z M255 145 L257 145 L260 149 L259 155 L252 154 L252 150 Z M192 145 L195 152 L190 156 L188 153 L188 148 Z M320 144 L324 148 L324 153 L322 156 L317 152 Z M311 134 L316 139 L315 148 L309 143 L309 137 Z M201 134 L203 137 L203 143 L197 148 L195 141 L196 138 Z M255 128 L257 128 L261 135 L260 139 L265 140 L265 143 L263 145 L261 145 L257 139 L255 139 L251 145 L247 143 L248 139 L252 139 L251 135 Z M301 123 L303 123 L307 128 L306 138 L299 131 Z M210 123 L212 125 L212 132 L206 138 L205 128 Z M220 112 L222 121 L216 126 L215 116 L218 112 Z M292 111 L297 116 L296 126 L290 121 Z M190 203 L192 202 L192 185 L195 178 L235 133 L255 105 L258 106 L287 145 L311 170 L320 186 L321 204 L319 205 L311 192 L304 186 L293 181 L264 175 L263 173 L267 171 L270 174 L277 173 L284 176 L278 166 L283 162 L285 169 L289 166 L292 167 L288 176 L302 180 L313 187 L307 177 L281 156 L281 147 L271 150 L271 142 L267 140 L258 122 L255 121 L245 140 L241 142 L241 150 L231 147 L231 156 L223 164 L213 169 L197 187 L199 188 L214 178 L224 176 L219 173 L219 168 L222 166 L227 169 L226 164 L228 162 L233 163 L232 158 L235 153 L243 168 L241 169 L240 166 L235 165 L229 176 L235 173 L242 174 L245 171 L249 174 L241 178 L214 183 L201 192 L193 205 Z M284 101 L288 105 L287 115 L281 109 Z M228 101 L231 109 L225 115 L224 105 Z M277 92 L280 94 L279 103 L277 103 L274 99 L274 96 Z M235 91 L238 99 L233 105 L232 104 L232 94 Z M271 83 L274 86 L272 93 L270 93 L268 89 Z M240 82 L242 83 L244 87 L242 93 L240 93 L238 89 L238 85 Z M146 172 L151 173 L153 179 L158 180 L160 186 L164 188 L164 194 L161 197 L157 195 L159 205 L164 206 L162 203 L178 191 L178 182 L185 167 L219 129 L245 93 L249 92 L249 86 L254 77 L257 76 L263 86 L262 92 L267 93 L284 118 L327 167 L333 179 L334 192 L348 203 L347 206 L352 206 L355 200 L353 193 L351 197 L348 195 L348 188 L352 186 L354 180 L359 179 L359 175 L364 171 L366 172 L364 178 L367 185 L364 189 L362 185 L357 188 L360 195 L357 206 L360 208 L354 211 L343 209 L328 197 L327 185 L322 173 L283 129 L256 91 L229 129 L190 173 L185 185 L185 196 L170 208 L162 211 L152 208 L154 206 L152 195 L155 188 L152 185 L149 189 L146 187 L146 180 L149 179 Z M264 71 L267 73 L268 80 L266 84 L264 83 L261 77 Z M248 71 L250 74 L250 79 L248 83 L246 84 L244 81 L244 75 Z M253 60 L260 61 L261 66 L260 71 L258 70 L257 67 L255 67 L253 71 L251 70 Z M255 29 L258 30 L259 42 L262 43 L264 53 L258 58 L254 58 L250 56 L248 52 L250 43 L253 42 L252 37 Z"/></svg>
