<svg xmlns="http://www.w3.org/2000/svg" width="512" height="512" viewBox="0 0 512 512" aria-hidden="true" focusable="false"><path fill="currentColor" fill-rule="evenodd" clip-rule="evenodd" d="M255 78 L253 83 L246 92 L252 99 L255 107 L257 107 L262 97 L266 94 L266 91 L258 79 Z M256 86 L261 91 L260 95 L257 98 L252 93 L252 91 Z M255 20 L238 57 L232 60 L241 73 L232 79 L232 68 L223 61 L210 70 L75 70 L65 74 L57 93 L45 96 L35 111 L35 230 L17 257 L35 283 L36 403 L44 414 L57 418 L65 437 L77 441 L210 441 L223 450 L232 443 L232 432 L241 437 L232 452 L238 454 L238 462 L257 492 L271 470 L274 454 L281 452 L272 438 L274 434 L281 433 L281 444 L290 450 L303 441 L432 441 L451 434 L455 418 L470 413 L477 401 L477 284 L495 255 L477 229 L477 108 L469 97 L455 93 L448 74 L438 70 L304 70 L290 61 L282 66 L282 77 L278 78 L272 73 L281 60 Z M265 464 L266 465 L265 471 L256 480 L254 476 L257 475 L261 465 Z M247 464 L250 464 L255 472 L254 476 L252 476 L249 473 L246 466 Z M270 454 L271 460 L269 464 L266 465 L265 461 L268 455 Z M242 454 L247 460 L246 465 L243 463 L241 459 Z M237 446 L240 445 L241 449 L238 450 Z M272 443 L274 444 L275 447 L274 451 L271 449 Z M251 443 L253 443 L255 446 L261 443 L265 447 L265 454 L263 457 L260 458 L260 461 L257 465 L253 462 L252 458 L249 457 L247 454 L247 448 Z M239 443 L241 442 L242 444 L240 445 Z M272 429 L274 428 L275 430 L273 431 Z M235 428 L237 427 L241 429 L242 431 L240 432 L236 430 Z M255 415 L257 415 L260 419 L260 422 L257 426 L252 421 Z M32 268 L34 269 L35 272 L34 275 L31 273 Z M480 267 L482 270 L481 273 L478 275 L477 272 L478 268 Z M480 249 L485 249 L486 252 L490 255 L490 258 L484 264 L479 263 L477 261 L478 259 L482 260 L484 258 L484 255 L482 253 L478 254 L477 260 L474 258 L475 253 Z M28 249 L32 249 L38 254 L37 259 L35 258 L35 255 L33 253 L30 253 L28 255 L29 259 L36 260 L35 262 L31 264 L28 264 L27 261 L22 257 L23 254 Z M478 238 L482 241 L480 245 L478 244 L477 241 Z M34 238 L35 241 L34 244 L32 245 L31 240 Z M275 82 L277 81 L278 83 L276 84 Z M235 82 L237 81 L238 83 L236 84 Z M272 81 L274 80 L275 82 L273 83 Z M239 80 L241 79 L242 81 L240 82 Z M53 115 L57 113 L56 120 L60 121 L79 106 L80 97 L73 98 L72 94 L83 87 L234 88 L244 85 L256 72 L269 85 L282 88 L435 89 L440 97 L433 96 L434 107 L444 110 L452 121 L456 113 L461 119 L459 397 L456 399 L456 391 L451 391 L444 401 L434 404 L433 415 L439 413 L440 417 L432 423 L273 424 L257 439 L266 421 L257 405 L246 420 L254 436 L239 424 L85 424 L74 419 L73 413 L80 414 L79 405 L57 391 L57 398 L51 392 Z M289 66 L296 67 L300 74 L439 74 L449 81 L452 98 L461 98 L470 104 L474 143 L472 238 L475 248 L470 254 L475 265 L472 274 L473 397 L468 409 L452 413 L451 426 L441 436 L300 437 L293 445 L284 441 L286 436 L290 440 L294 439 L288 427 L432 427 L444 418 L440 406 L449 406 L449 399 L461 401 L466 392 L464 115 L457 109 L449 113 L449 105 L439 106 L444 93 L433 84 L289 84 L294 77 L293 71 L289 75 L284 73 Z M224 66 L229 71 L227 75 L219 72 L224 84 L79 84 L68 94 L74 105 L64 105 L63 113 L55 109 L47 117 L48 397 L53 402 L59 402 L63 397 L63 406 L73 405 L68 417 L80 427 L224 427 L219 439 L222 440 L225 434 L228 442 L217 444 L214 437 L74 437 L63 429 L61 413 L47 411 L40 401 L38 264 L42 259 L39 249 L42 105 L48 99 L61 98 L63 83 L74 74 L214 74 L217 67 Z M272 61 L275 62 L274 67 L271 66 Z M238 62 L242 61 L244 64 L240 67 Z M267 47 L271 51 L270 57 L268 56 L266 52 Z M256 46 L260 50 L260 54 L263 55 L266 60 L265 65 L262 68 L260 68 L257 64 L253 68 L251 68 L248 65 L247 61 L248 56 L253 53 L253 50 Z M246 46 L247 52 L244 56 L241 55 L242 50 Z M256 30 L258 31 L259 35 L265 40 L266 42 L265 48 L261 46 L257 37 L255 37 L255 40 L250 48 L247 47 L248 40 L251 38 L251 36 L254 34 Z"/></svg>
