<svg xmlns="http://www.w3.org/2000/svg" width="512" height="512" viewBox="0 0 512 512" aria-hidden="true" focusable="false"><path fill="currentColor" fill-rule="evenodd" clip-rule="evenodd" d="M250 451 L249 455 L250 458 L253 460 L259 460 L263 456 L263 452 L258 448 L255 448 Z M255 17 L233 65 L228 66 L213 89 L220 112 L212 113 L205 97 L190 113 L185 144 L191 153 L188 160 L175 155 L173 172 L149 185 L142 170 L134 167 L135 155 L127 148 L116 183 L109 184 L110 207 L118 215 L118 230 L125 231 L134 250 L134 307 L131 297 L126 296 L131 288 L126 281 L116 314 L120 336 L116 337 L103 374 L103 389 L116 408 L113 419 L120 452 L132 466 L144 471 L197 471 L213 482 L235 479 L257 496 L278 477 L300 482 L315 471 L369 471 L383 464 L394 446 L396 408 L409 390 L410 379 L397 337 L392 336 L396 312 L386 281 L382 282 L385 295 L378 306 L378 252 L388 231 L395 229 L404 186 L396 183 L385 148 L375 158 L380 165 L370 170 L363 185 L338 170 L337 155 L324 159 L321 153 L328 135 L323 116 L305 95 L301 113 L293 112 L298 88 L279 65 Z M240 475 L245 469 L248 469 L255 477 L257 477 L261 471 L264 469 L268 469 L272 474 L272 478 L270 480 L266 480 L265 483 L256 488 L248 484 L246 480 L242 480 L240 478 Z M298 444 L301 445 L302 448 L301 451 L296 447 Z M214 443 L216 447 L212 450 L211 445 Z M253 442 L262 443 L269 452 L269 457 L267 458 L266 462 L261 466 L252 466 L248 464 L243 457 L244 450 L249 444 Z M276 437 L281 438 L285 442 L285 448 L290 448 L297 455 L295 461 L290 465 L285 465 L285 468 L279 473 L275 472 L271 468 L272 461 L280 457 L281 453 L274 450 L271 446 L271 441 Z M233 437 L237 437 L241 441 L240 449 L232 453 L232 457 L239 460 L242 464 L238 472 L230 472 L227 469 L228 465 L221 464 L215 458 L215 456 L222 448 L228 448 L227 444 L228 440 Z M325 427 L331 434 L330 437 L325 438 L324 433 L318 434 L315 438 L315 441 L313 442 L317 453 L311 454 L306 448 L305 439 L309 431 L314 427 L319 426 Z M185 428 L194 426 L200 428 L204 432 L205 437 L207 438 L207 445 L202 454 L195 453 L197 450 L198 441 L197 437 L194 434 L188 433 L188 436 L186 438 L182 437 L182 431 Z M359 419 L362 421 L363 424 L361 433 L358 432 L358 420 Z M152 418 L154 419 L154 433 L153 434 L151 433 L149 427 Z M240 429 L242 427 L246 427 L247 422 L251 417 L257 414 L265 422 L266 426 L272 429 L273 434 L265 440 L258 433 L257 429 L255 429 L255 432 L246 440 L240 435 Z M392 411 L393 424 L386 439 L375 451 L373 451 L368 456 L360 459 L364 460 L372 458 L386 448 L387 450 L383 457 L375 463 L365 466 L312 466 L306 474 L301 476 L290 477 L287 475 L290 471 L298 471 L299 469 L303 468 L309 459 L350 459 L359 456 L374 443 L380 434 L382 422 L386 418 L386 412 L384 412 L382 415 L378 415 L377 408 L380 405 L386 405 Z M120 411 L126 405 L132 405 L136 409 L134 415 L131 415 L129 412 L127 412 L126 417 L129 420 L135 439 L146 451 L153 456 L162 459 L203 459 L211 469 L214 471 L223 471 L225 475 L223 477 L214 477 L208 475 L203 471 L201 466 L146 466 L136 463 L127 454 L125 450 L126 448 L140 458 L151 460 L151 458 L144 456 L142 453 L140 453 L126 439 L120 427 Z M404 377 L404 388 L399 395 L395 395 L397 399 L395 403 L392 403 L390 400 L387 399 L379 399 L373 403 L371 407 L371 415 L375 420 L374 431 L369 441 L362 448 L347 454 L329 454 L324 452 L319 446 L320 441 L325 443 L330 448 L336 450 L346 450 L353 448 L364 438 L367 431 L367 421 L364 414 L364 404 L367 397 L376 390 L383 389 L385 391 L388 391 L389 386 L391 384 L396 382 L402 376 Z M108 377 L110 376 L115 381 L123 386 L124 391 L127 391 L129 389 L137 390 L146 398 L148 402 L149 411 L146 422 L144 424 L144 429 L146 431 L148 438 L159 448 L166 450 L176 450 L182 448 L184 445 L192 441 L193 447 L184 454 L166 454 L153 450 L150 446 L148 446 L142 439 L138 430 L138 426 L136 425 L136 421 L141 415 L140 404 L133 399 L125 399 L122 402 L117 403 L115 401 L117 395 L113 395 L109 390 Z M127 332 L132 337 L130 343 L128 343 L122 338 L123 336 L125 336 Z M385 331 L388 334 L388 336 L390 336 L391 338 L383 344 L381 341 L381 335 Z M124 308 L126 308 L134 317 L134 322 L140 323 L141 327 L143 328 L144 336 L146 338 L142 350 L138 354 L128 357 L125 360 L124 364 L125 369 L128 373 L133 374 L133 370 L135 369 L143 374 L144 379 L146 381 L146 384 L143 388 L133 380 L123 379 L117 373 L115 369 L115 364 L113 362 L119 346 L121 344 L125 347 L125 351 L128 351 L136 343 L135 331 L129 327 L123 329 L120 327 L121 324 L124 324 L123 320 L121 319 L121 312 Z M388 307 L391 316 L388 324 L391 325 L391 328 L390 329 L387 327 L380 328 L375 337 L375 340 L378 346 L384 351 L387 351 L387 348 L391 344 L393 345 L398 360 L397 370 L394 375 L388 380 L379 380 L372 387 L368 389 L367 378 L369 377 L369 375 L376 369 L378 369 L380 371 L380 374 L382 374 L388 368 L387 360 L380 355 L376 355 L373 353 L367 344 L367 335 L369 333 L371 325 L374 322 L378 322 L379 316 Z M382 230 L383 232 L379 236 L379 243 L374 246 L373 249 L373 316 L370 318 L369 317 L369 231 L372 229 Z M135 229 L144 231 L144 317 L143 318 L140 316 L139 309 L140 306 L140 251 L139 248 L134 243 L134 237 L129 232 L130 230 Z M113 192 L116 191 L120 193 L123 196 L123 205 L127 204 L131 205 L133 207 L134 212 L131 213 L128 208 L125 208 L122 210 L117 209 L115 205 L115 202 L117 201 L117 199 L113 194 Z M399 190 L400 193 L395 199 L395 201 L397 202 L397 206 L392 210 L385 208 L383 212 L380 213 L379 208 L384 204 L389 205 L390 203 L389 196 L393 192 Z M140 179 L142 182 L139 186 L136 187 L134 184 L137 183 L138 180 Z M371 179 L373 178 L374 182 L378 183 L379 185 L377 187 L373 186 L370 182 Z M250 174 L255 179 L257 179 L260 175 L263 175 L265 178 L263 181 L261 181 L261 184 L257 189 L255 189 L252 185 L252 181 L248 180 L248 176 Z M168 206 L200 200 L201 187 L229 181 L245 169 L243 181 L255 198 L269 182 L269 170 L288 183 L311 186 L312 200 L338 202 L350 212 L354 222 L354 437 L348 444 L334 443 L335 429 L326 421 L310 423 L291 443 L284 428 L277 427 L257 405 L235 427 L228 428 L222 443 L197 421 L184 422 L178 428 L178 444 L161 442 L159 220 Z M382 159 L388 166 L386 176 L390 176 L392 182 L390 188 L385 194 L378 198 L373 198 L369 192 L370 191 L374 193 L381 191 L383 187 L382 179 L377 177 L377 173 L382 170 L382 164 L380 163 L380 160 Z M130 159 L133 162 L132 164 L130 164 L130 170 L135 173 L135 176 L128 183 L128 186 L133 192 L142 193 L142 195 L139 198 L130 196 L120 184 L121 177 L122 176 L127 177 L124 168 Z M248 165 L257 155 L266 168 L264 169 L261 167 L257 161 L255 161 L250 168 L248 167 Z M251 130 L255 135 L255 142 L248 158 L233 173 L213 181 L196 182 L194 195 L172 198 L165 202 L156 213 L154 222 L154 398 L152 399 L149 395 L149 357 L147 357 L146 363 L143 367 L139 365 L140 359 L146 354 L150 345 L150 215 L155 205 L166 195 L179 191 L189 191 L191 177 L212 176 L220 174 L221 172 L233 167 L242 157 L249 145 L250 138 L248 131 Z M256 129 L264 131 L263 144 L271 159 L278 166 L300 176 L322 177 L323 191 L334 191 L346 195 L355 202 L362 214 L362 343 L365 352 L373 360 L373 365 L371 367 L367 366 L367 361 L364 355 L362 377 L363 395 L360 399 L358 398 L357 215 L354 209 L346 201 L333 196 L318 195 L317 182 L298 181 L297 179 L285 176 L277 171 L262 154 L257 141 L258 132 L255 131 Z M275 126 L291 117 L306 121 L305 115 L312 108 L318 118 L318 130 L323 133 L323 142 L313 153 L299 154 L290 147 L289 138 L294 133 L301 133 L303 139 L296 142 L299 146 L304 146 L309 141 L309 135 L302 128 L292 128 L286 132 L284 137 L286 152 L296 161 L304 163 L318 162 L318 167 L331 165 L334 173 L341 180 L354 186 L367 198 L371 204 L374 217 L388 217 L389 223 L368 224 L366 211 L362 203 L349 191 L337 186 L328 185 L326 172 L298 170 L282 162 L274 153 L271 145 L271 136 Z M238 128 L241 135 L240 150 L229 163 L214 170 L187 172 L185 174 L184 185 L172 187 L162 192 L151 202 L143 224 L123 223 L124 217 L139 217 L142 203 L146 197 L158 186 L174 178 L179 172 L181 165 L194 167 L194 162 L208 163 L224 155 L228 147 L228 137 L226 132 L220 128 L210 128 L203 136 L203 140 L208 146 L213 146 L216 143 L215 140 L209 139 L212 133 L216 132 L223 138 L223 145 L217 152 L203 154 L196 151 L190 144 L189 134 L192 130 L195 130 L194 119 L200 108 L206 114 L206 121 L221 117 L232 122 Z M255 105 L257 105 L263 111 L264 116 L260 122 L256 118 L253 122 L249 119 L249 112 Z M255 80 L257 80 L264 87 L266 97 L268 95 L272 96 L270 103 L274 102 L277 103 L278 109 L277 116 L269 125 L269 129 L266 132 L264 131 L263 126 L269 119 L269 112 L257 97 L255 97 L243 112 L244 121 L249 126 L247 130 L243 128 L243 125 L235 115 L235 104 L237 102 L242 103 L240 98 L241 95 L245 97 L248 96 L247 89 Z M232 75 L240 82 L242 88 L233 97 L229 109 L227 110 L221 105 L219 95 L220 94 L225 95 L224 91 L225 82 L229 76 Z M280 74 L287 81 L289 87 L287 95 L293 96 L292 102 L284 113 L282 112 L282 104 L279 97 L275 93 L274 90 L271 88 L272 82 L277 77 L279 77 Z M248 73 L255 65 L257 65 L263 71 L265 78 L263 79 L257 73 L257 71 L255 71 L255 73 L251 77 L248 76 Z M256 32 L258 33 L269 52 L269 59 L267 61 L272 62 L274 64 L274 70 L272 75 L269 73 L266 67 L259 60 L257 55 L255 55 L254 59 L244 69 L243 73 L241 75 L239 74 L238 69 L239 62 L240 61 L244 62 L243 56 L244 50 L246 49 L248 43 Z"/></svg>
