<svg xmlns="http://www.w3.org/2000/svg" width="512" height="512" viewBox="0 0 512 512" aria-hidden="true" focusable="false"><path fill="currentColor" fill-rule="evenodd" clip-rule="evenodd" d="M255 17 L236 49 L229 47 L223 68 L202 68 L201 76 L162 86 L146 98 L137 121 L120 126 L110 135 L100 161 L98 224 L91 236 L83 235 L80 257 L65 264 L72 284 L69 291 L99 313 L100 372 L110 400 L137 414 L145 433 L157 443 L176 451 L212 456 L221 472 L245 482 L257 496 L264 484 L291 472 L300 456 L354 444 L367 434 L375 414 L402 400 L412 372 L413 312 L443 291 L440 284 L447 261 L432 257 L429 235 L421 236 L414 224 L412 160 L401 132 L375 121 L365 97 L353 88 L311 76 L310 68 L289 68 L283 47 L276 49 Z M307 449 L306 451 L297 453 L294 456 L289 468 L281 475 L266 478 L263 480 L260 479 L261 476 L277 461 L284 452 L299 448 Z M205 449 L206 448 L219 449 L229 453 L233 457 L236 463 L245 470 L252 479 L249 480 L246 478 L231 475 L223 468 L219 461 L218 456 L215 453 L206 451 Z M276 439 L279 449 L274 458 L272 459 L269 445 L274 439 Z M236 439 L238 439 L243 446 L239 457 L236 455 L233 450 L233 446 Z M255 438 L257 438 L262 444 L268 455 L267 465 L256 476 L254 475 L252 471 L246 467 L244 463 L245 451 Z M255 417 L268 429 L270 438 L267 441 L265 441 L257 432 L255 432 L245 442 L242 438 L242 434 L244 429 L251 423 Z M435 287 L436 289 L422 304 L412 305 L410 309 L408 320 L408 373 L405 385 L398 398 L388 406 L371 411 L365 429 L355 439 L339 446 L337 445 L335 447 L308 450 L307 448 L309 446 L330 444 L349 436 L360 424 L363 418 L365 405 L385 399 L398 386 L402 377 L405 361 L405 314 L408 303 L413 297 L418 295 L418 293 L424 287 Z M77 287 L88 287 L93 292 L93 294 L99 297 L104 303 L107 314 L107 362 L109 374 L114 386 L125 398 L134 402 L146 404 L149 418 L152 424 L166 438 L182 444 L202 446 L204 448 L203 450 L176 447 L174 445 L161 441 L155 437 L147 428 L142 415 L142 411 L133 410 L132 408 L124 406 L114 398 L109 390 L104 374 L104 322 L102 309 L100 305 L90 304 L76 289 Z M433 261 L437 261 L443 264 L441 273 L437 282 L432 282 L430 280 L431 275 L428 277 L425 276 L425 273 L429 269 Z M415 261 L421 273 L422 281 L416 291 L413 294 L409 295 L405 289 L404 278 L408 267 L412 262 Z M97 261 L104 267 L108 278 L107 289 L103 295 L99 294 L90 282 L90 276 L95 263 Z M70 263 L79 261 L83 269 L87 273 L86 277 L81 275 L82 279 L81 282 L74 281 L69 265 Z M424 240 L429 256 L427 265 L423 268 L419 261 L419 255 L417 255 L410 260 L408 260 L403 271 L401 272 L400 264 L406 250 L413 244 Z M88 240 L99 244 L106 250 L112 263 L111 272 L109 271 L107 265 L99 257 L93 255 L93 260 L90 267 L88 268 L85 265 L83 256 Z M174 94 L206 85 L225 97 L242 96 L252 90 L287 97 L305 85 L329 91 L354 107 L362 132 L382 136 L399 156 L401 223 L407 242 L396 264 L397 279 L407 297 L401 314 L399 374 L385 394 L362 400 L357 421 L336 438 L283 448 L279 433 L273 433 L256 407 L239 433 L233 433 L229 448 L183 440 L159 426 L150 400 L130 396 L114 377 L111 315 L105 299 L116 274 L114 256 L105 244 L111 223 L113 156 L128 137 L150 132 L155 111 Z M195 81 L196 82 L195 85 L190 85 L176 89 L160 98 L149 113 L147 127 L145 129 L139 129 L125 134 L113 146 L109 156 L107 168 L106 229 L103 238 L101 240 L97 239 L96 236 L100 231 L104 212 L104 159 L107 148 L111 140 L122 129 L132 125 L140 124 L142 122 L143 113 L147 104 L158 93 L177 84 Z M308 79 L331 83 L352 92 L366 106 L369 113 L370 122 L372 124 L380 125 L390 129 L400 138 L405 148 L408 159 L408 212 L410 225 L413 233 L416 236 L415 239 L411 240 L406 230 L405 169 L403 157 L399 146 L387 134 L374 129 L366 129 L362 111 L348 95 L330 87 L316 85 L314 83 L308 82 L307 81 Z M205 80 L202 83 L197 82 L198 80 L202 79 Z M305 72 L303 80 L294 90 L287 93 L273 93 L268 91 L269 89 L278 85 L284 79 L288 72 L293 70 Z M207 72 L214 70 L222 71 L225 74 L226 78 L231 83 L240 88 L242 91 L239 93 L225 93 L218 90 L210 82 Z M280 53 L285 69 L283 71 L282 76 L274 84 L271 85 L270 83 L273 75 L271 61 L277 54 Z M232 53 L236 55 L241 61 L239 70 L239 76 L242 83 L241 85 L238 84 L229 75 L229 72 L227 69 L227 65 Z M255 51 L257 51 L260 54 L260 56 L266 62 L269 69 L269 77 L267 81 L262 86 L257 88 L250 86 L243 77 L244 66 L247 60 L252 56 L252 54 Z M255 27 L258 28 L261 33 L270 42 L273 48 L273 53 L268 58 L266 57 L257 44 L255 44 L245 57 L243 57 L239 53 L240 45 Z"/></svg>
