<svg xmlns="http://www.w3.org/2000/svg" width="512" height="512" viewBox="0 0 512 512" aria-hidden="true" focusable="false"><path fill="currentColor" fill-rule="evenodd" clip-rule="evenodd" d="M42 29 L41 92 L51 103 L41 101 L46 138 L39 139 L41 235 L17 256 L41 280 L39 375 L46 375 L41 413 L51 411 L42 420 L40 430 L42 485 L59 470 L61 460 L66 466 L73 454 L94 445 L101 433 L122 441 L124 460 L235 460 L236 452 L255 491 L270 471 L277 452 L278 460 L388 460 L391 441 L412 433 L419 444 L435 455 L440 453 L447 466 L452 462 L473 489 L474 436 L467 415 L472 412 L468 375 L474 375 L472 281 L488 261 L496 258 L472 237 L475 139 L468 139 L472 102 L462 103 L473 92 L473 25 L455 44 L453 53 L447 48 L440 61 L436 59 L421 69 L412 82 L391 73 L388 54 L278 54 L277 63 L257 22 L236 62 L235 54 L124 54 L122 73 L102 82 L94 69 L78 59 L73 61 L69 50 L61 50 Z M260 456 L261 462 L259 466 L256 468 L252 463 L251 458 L253 457 L255 460 L258 460 L258 457 Z M265 453 L268 456 L270 463 L269 466 L265 468 L265 471 L259 480 L256 482 L248 472 L248 468 L244 466 L243 460 L244 457 L248 454 L249 464 L255 475 L257 476 L263 466 L265 460 L263 454 Z M47 453 L50 455 L50 458 L54 456 L58 462 L57 467 L54 470 L51 470 L48 475 L46 474 L48 465 L44 463 L44 459 Z M256 438 L258 439 L259 452 L257 454 L254 452 Z M248 435 L257 426 L263 432 L264 437 L262 438 L258 432 L255 432 L251 438 L249 438 Z M444 409 L445 411 L441 417 L442 424 L440 425 L438 422 L438 417 L440 412 Z M460 409 L461 408 L464 409 L467 413 L465 414 Z M68 408 L75 415 L75 423 L73 426 L71 425 L72 416 L67 410 Z M426 407 L428 408 L424 416 L424 425 L425 429 L427 430 L429 434 L433 438 L440 440 L444 444 L445 448 L447 448 L447 441 L451 440 L456 445 L464 448 L467 451 L470 457 L470 464 L466 465 L466 468 L470 473 L469 478 L464 474 L463 469 L459 470 L456 466 L456 461 L459 457 L459 452 L454 447 L451 447 L452 453 L450 457 L446 459 L440 446 L438 446 L437 450 L428 446 L425 442 L425 436 L423 436 L422 438 L419 438 L418 435 L415 433 L414 426 L415 419 L417 418 L418 414 Z M94 412 L96 418 L98 419 L99 424 L98 433 L95 435 L94 438 L88 437 L88 443 L78 450 L75 448 L75 446 L73 446 L73 450 L69 454 L69 457 L67 460 L62 455 L62 447 L58 448 L53 453 L52 451 L54 447 L59 444 L62 440 L71 441 L80 438 L84 435 L84 433 L88 430 L89 427 L89 415 L88 412 L86 411 L86 408 L88 407 Z M436 405 L439 405 L440 407 L435 413 L434 423 L440 430 L446 431 L452 428 L452 426 L448 426 L444 422 L445 416 L450 412 L456 412 L458 416 L463 416 L466 419 L463 422 L463 424 L466 424 L470 428 L471 431 L470 434 L467 434 L471 441 L470 448 L461 441 L458 442 L455 439 L458 434 L463 435 L460 429 L460 425 L455 419 L452 419 L451 423 L454 423 L456 425 L456 431 L453 435 L445 438 L439 437 L430 430 L428 425 L428 417 L431 410 Z M77 405 L83 411 L85 416 L85 426 L81 433 L74 437 L62 436 L57 430 L57 425 L59 423 L63 423 L63 420 L59 419 L54 423 L53 429 L50 433 L50 435 L55 434 L58 437 L58 439 L55 442 L52 441 L46 447 L44 447 L43 440 L46 434 L43 433 L43 429 L47 424 L50 424 L50 422 L47 419 L51 416 L57 416 L58 412 L63 412 L68 415 L69 422 L67 425 L61 426 L61 428 L67 431 L73 430 L76 428 L79 423 L79 414 L73 407 L74 405 Z M60 406 L63 403 L65 403 L67 408 L64 409 L61 408 Z M458 382 L462 384 L467 390 L467 396 L465 397 L467 402 L466 406 L462 405 L461 402 L457 404 L453 401 L456 395 L461 396 L461 391 L457 387 Z M56 381 L57 382 L56 387 L52 392 L52 396 L57 395 L60 401 L58 403 L53 402 L50 406 L47 406 L46 403 L49 398 L49 396 L46 395 L47 389 L50 385 Z M458 373 L461 372 L465 376 L466 380 L465 382 L460 377 L457 376 Z M54 372 L56 376 L53 377 L51 381 L48 380 L49 375 L52 372 Z M467 265 L467 270 L471 273 L469 277 L469 367 L467 369 L462 367 L454 372 L454 391 L447 400 L442 402 L430 402 L420 406 L412 417 L411 428 L401 430 L387 440 L382 457 L287 457 L282 455 L281 448 L275 444 L270 443 L266 446 L272 446 L274 448 L272 453 L261 447 L261 443 L267 439 L277 439 L285 445 L286 450 L289 451 L379 450 L379 444 L383 436 L392 428 L406 424 L409 411 L417 402 L426 397 L444 395 L449 389 L449 371 L451 367 L457 363 L463 363 L463 264 L465 263 Z M47 263 L50 263 L50 363 L56 363 L63 368 L64 376 L66 377 L64 388 L69 395 L85 396 L97 402 L105 413 L106 423 L123 429 L131 437 L134 443 L134 450 L223 451 L227 450 L228 445 L236 439 L246 439 L252 446 L241 453 L239 448 L241 446 L247 446 L240 443 L232 448 L230 456 L131 457 L130 448 L126 440 L113 430 L102 428 L101 416 L92 405 L85 402 L71 402 L64 398 L59 391 L59 372 L52 367 L47 369 L44 367 L44 277 L42 273 L46 270 Z M468 253 L471 253 L474 256 L471 260 L467 260 L465 258 L465 256 Z M39 256 L45 253 L48 256 L48 258 L46 260 L42 260 Z M472 244 L477 244 L478 247 L482 250 L484 254 L488 256 L476 270 L472 270 L471 265 L478 259 L482 258 L482 256 L478 255 L471 248 Z M39 243 L42 244 L43 248 L35 255 L31 256 L31 258 L35 259 L42 265 L43 268 L41 270 L37 270 L25 257 L35 247 L35 245 Z M464 133 L465 134 L464 140 L459 142 L457 139 Z M48 134 L50 133 L56 140 L52 142 L49 139 Z M466 108 L467 112 L465 117 L467 118 L467 124 L463 129 L457 133 L456 131 L461 123 L462 118 L460 118 L457 121 L453 113 L457 110 L461 112 L464 108 Z M47 108 L50 108 L53 112 L58 111 L60 113 L60 116 L57 119 L52 119 L52 123 L56 128 L55 132 L50 129 L46 123 L46 118 L48 117 L48 114 L46 111 Z M60 107 L63 106 L64 108 L61 109 Z M74 90 L75 99 L68 106 L67 104 L71 100 L72 91 Z M440 89 L442 90 L441 96 L445 103 L444 105 L439 100 L438 92 Z M452 78 L456 82 L455 91 L453 90 L453 87 L447 83 L439 85 L435 90 L434 98 L440 107 L439 109 L436 109 L429 100 L428 95 L429 86 L435 79 L439 77 L446 76 Z M248 78 L251 76 L257 83 L260 77 L263 76 L264 81 L256 88 L249 81 Z M64 77 L70 76 L77 78 L84 85 L85 88 L84 101 L77 109 L74 109 L73 107 L79 100 L78 89 L73 84 L70 83 L62 86 L60 91 L57 89 L58 82 Z M139 67 L223 67 L229 76 L243 79 L256 95 L269 79 L282 77 L290 67 L375 67 L388 88 L403 94 L414 115 L444 124 L445 145 L460 156 L460 359 L446 368 L444 390 L413 400 L403 420 L387 427 L375 447 L290 447 L283 438 L269 436 L257 419 L243 436 L230 438 L223 447 L138 447 L131 431 L112 422 L97 397 L69 389 L67 367 L53 359 L53 156 L67 147 L69 125 L97 117 L107 106 L110 94 L128 86 Z M470 66 L471 74 L469 77 L469 80 L471 81 L470 87 L464 92 L466 96 L463 98 L458 98 L456 103 L451 103 L445 98 L444 95 L445 91 L448 88 L450 88 L452 90 L451 92 L452 95 L457 94 L461 88 L463 80 L462 79 L459 80 L455 75 L459 72 L463 73 L463 71 Z M44 66 L49 69 L52 73 L55 72 L59 75 L55 80 L50 78 L54 91 L58 95 L63 94 L62 90 L64 88 L69 91 L68 99 L62 103 L58 103 L56 98 L50 98 L48 96 L50 92 L45 88 L43 84 L43 81 L46 80 L46 78 L43 75 Z M256 61 L259 63 L257 76 L255 75 L254 65 Z M261 68 L273 62 L274 66 L272 68 L267 67 L266 69 L271 72 L280 68 L283 58 L382 57 L383 66 L387 74 L397 83 L411 86 L413 100 L420 108 L429 112 L442 112 L449 116 L454 124 L454 142 L460 147 L469 147 L470 241 L467 243 L467 250 L463 250 L463 152 L454 150 L450 146 L449 138 L447 137 L449 126 L444 119 L426 117 L419 114 L410 105 L407 91 L390 85 L383 78 L379 70 L379 64 L290 63 L286 64 L285 69 L280 74 L272 76 L262 73 Z M252 68 L251 73 L241 76 L233 74 L228 69 L227 64 L223 63 L134 64 L134 71 L131 77 L123 85 L106 91 L105 101 L97 112 L88 117 L69 119 L64 126 L66 136 L63 146 L57 151 L50 152 L50 250 L46 250 L47 246 L43 241 L44 147 L53 147 L59 142 L59 124 L66 115 L72 112 L90 110 L99 102 L102 95 L102 86 L114 84 L120 80 L130 66 L131 57 L230 58 L233 68 L238 70 L245 69 L245 67 L241 68 L239 66 L240 62 Z M66 54 L68 55 L69 60 L73 64 L73 68 L75 68 L75 66 L78 64 L88 71 L89 78 L93 76 L98 81 L99 86 L98 95 L94 102 L88 107 L86 107 L85 105 L89 99 L89 88 L88 84 L84 81 L84 79 L80 76 L73 74 L68 68 L66 69 L66 73 L62 74 L53 65 L53 63 L55 62 L58 66 L63 67 L62 60 Z M268 47 L270 54 L269 57 L264 61 L263 59 L265 54 L263 48 Z M256 46 L261 51 L262 55 L260 58 L257 55 L255 56 L251 55 L253 49 Z M47 39 L51 42 L51 44 L54 44 L58 49 L58 53 L54 58 L50 57 L49 63 L47 62 L44 55 L44 51 L48 49 L46 43 Z M470 35 L471 36 L470 42 L466 49 L468 49 L471 52 L471 55 L467 61 L467 64 L461 68 L458 68 L451 74 L448 73 L449 67 L447 66 L442 73 L432 77 L425 87 L424 95 L425 100 L428 103 L428 106 L427 107 L424 106 L418 100 L417 96 L415 95 L414 90 L415 83 L421 75 L423 76 L423 78 L425 78 L427 71 L432 66 L437 64 L439 68 L441 68 L441 65 L445 60 L445 57 L447 54 L452 60 L452 67 L456 66 L460 61 L460 58 L456 52 L457 47 L459 46 L460 43 L463 43 L464 40 Z M257 31 L263 39 L264 45 L262 46 L258 38 L256 37 L248 52 L248 57 L250 59 L248 61 L244 57 L243 50 L245 46 L248 46 L249 40 Z"/></svg>
