<svg xmlns="http://www.w3.org/2000/svg" width="512" height="512" viewBox="0 0 512 512" aria-hidden="true" focusable="false"><path fill="currentColor" fill-rule="evenodd" clip-rule="evenodd" d="M37 36 L41 63 L47 70 L42 71 L40 80 L46 91 L40 104 L40 238 L17 255 L40 274 L40 407 L46 418 L40 431 L47 441 L40 451 L37 475 L60 470 L69 462 L70 469 L84 470 L92 465 L106 472 L239 472 L257 494 L273 472 L408 472 L421 465 L429 470 L442 468 L439 461 L434 467 L425 462 L429 456 L438 458 L434 448 L425 450 L418 464 L404 469 L277 469 L267 458 L269 455 L286 465 L407 464 L427 444 L444 448 L447 467 L476 475 L468 443 L473 427 L467 420 L473 408 L473 274 L496 257 L473 238 L473 104 L467 93 L473 79 L471 71 L466 70 L473 61 L476 37 L454 41 L444 50 L443 43 L436 41 L421 47 L408 40 L273 40 L257 18 L240 40 L105 40 L92 47 L78 41 L71 43 L69 50 L59 41 Z M266 458 L267 459 L266 463 L270 466 L270 471 L266 476 L264 476 L260 483 L257 486 L255 486 L250 480 L249 476 L247 476 L244 473 L242 468 L249 460 L250 461 L249 469 L255 475 L257 475 L264 469 L262 463 L263 460 Z M74 459 L84 456 L87 458 L88 462 L85 466 L79 467 L76 465 L76 461 Z M460 445 L465 445 L469 449 L470 453 L466 454 L466 456 L468 456 L471 459 L470 469 L461 468 L459 463 L457 463 L457 466 L454 467 L448 462 L448 457 L450 455 L454 458 L461 459 L461 452 L457 448 Z M48 445 L53 445 L56 447 L52 452 L53 459 L57 459 L62 455 L65 456 L65 462 L61 466 L57 467 L56 463 L54 463 L54 466 L52 468 L44 469 L42 468 L43 458 L47 456 L47 454 L44 453 L44 449 Z M68 450 L75 444 L90 445 L95 457 L102 463 L106 464 L231 464 L235 462 L242 455 L244 457 L243 460 L235 469 L108 469 L95 464 L93 460 L91 459 L91 457 L89 456 L89 454 L87 453 L88 449 L80 448 L79 453 L75 452 L74 459 L71 457 L71 455 L68 454 Z M68 442 L69 444 L65 449 L65 451 L57 455 L56 453 L60 446 Z M44 426 L47 423 L50 423 L54 426 L54 431 L52 433 L53 436 L60 435 L63 432 L64 428 L66 427 L67 435 L63 441 L57 443 L52 438 L46 436 L44 432 Z M461 266 L470 275 L470 405 L467 414 L456 424 L451 424 L450 431 L453 435 L460 436 L461 433 L459 431 L459 426 L463 422 L469 426 L470 430 L457 443 L454 443 L446 435 L447 421 L459 416 L466 406 L466 280 L463 274 L457 270 Z M64 85 L66 86 L66 90 L56 94 L47 106 L47 231 L49 236 L56 243 L49 250 L42 248 L35 256 L42 263 L48 261 L56 269 L47 280 L47 405 L53 415 L66 421 L65 427 L62 424 L57 424 L46 414 L43 404 L43 275 L51 267 L48 266 L46 269 L41 270 L35 265 L35 263 L25 256 L31 250 L35 249 L35 246 L40 242 L45 242 L49 246 L51 244 L43 237 L43 107 L48 95 Z M462 74 L466 75 L470 81 L469 85 L466 88 L461 88 L459 86 L459 81 Z M452 69 L457 69 L461 74 L455 75 L450 80 L450 86 L461 91 L468 99 L470 106 L470 237 L466 239 L462 244 L465 246 L468 242 L473 242 L478 246 L478 249 L481 249 L488 255 L472 270 L469 270 L465 265 L463 266 L462 264 L465 261 L471 263 L478 256 L471 248 L464 250 L457 243 L466 232 L466 106 L464 101 L457 94 L447 90 L446 77 Z M61 69 L67 77 L67 83 L65 84 L60 76 L54 75 L52 76 L54 80 L54 86 L52 88 L47 88 L44 85 L44 79 L48 75 L54 72 L56 69 Z M82 44 L88 49 L88 52 L85 55 L80 55 L78 53 L75 54 L74 58 L81 66 L80 68 L76 68 L69 63 L68 56 L71 55 L74 50 L76 50 L77 45 Z M470 43 L471 51 L468 55 L466 55 L466 57 L470 58 L469 62 L464 67 L459 66 L458 63 L461 59 L461 53 L454 53 L452 56 L450 56 L448 54 L448 49 L455 44 L457 45 L457 49 L459 49 L459 46 L462 43 Z M267 54 L270 53 L277 43 L404 43 L417 47 L421 51 L423 56 L433 59 L438 56 L438 53 L435 53 L433 55 L428 55 L425 51 L425 49 L429 45 L433 44 L437 46 L437 50 L439 50 L445 57 L445 62 L437 68 L423 67 L419 56 L413 50 L403 47 L286 47 L279 49 L271 57 L269 57 Z M88 66 L88 60 L92 51 L101 45 L109 43 L236 43 L243 53 L245 54 L242 57 L240 53 L228 47 L110 47 L104 48 L99 51 L94 56 L90 67 Z M42 44 L51 43 L54 46 L54 48 L56 48 L56 45 L58 44 L65 49 L65 55 L62 56 L59 53 L52 53 L52 59 L55 62 L55 65 L50 67 L44 61 L44 59 L48 57 L48 55 L45 55 L43 53 Z M56 57 L64 59 L74 71 L92 70 L98 57 L107 51 L231 51 L243 62 L257 42 L260 53 L270 62 L283 51 L406 51 L416 58 L421 70 L439 71 L454 58 L454 64 L444 72 L443 85 L444 93 L456 98 L463 109 L463 229 L452 241 L462 253 L472 254 L452 270 L463 282 L463 403 L455 414 L444 418 L443 436 L458 455 L436 440 L421 442 L415 455 L406 461 L283 461 L271 449 L256 470 L254 461 L243 450 L230 461 L107 461 L98 455 L93 442 L69 443 L69 418 L58 414 L50 403 L50 282 L61 270 L52 259 L41 257 L61 241 L50 229 L50 109 L57 98 L69 93 L70 75 Z M256 26 L259 28 L264 36 L266 36 L270 41 L270 46 L267 49 L266 54 L262 51 L262 47 L264 43 L257 37 L255 37 L248 44 L248 46 L250 47 L249 52 L247 52 L243 46 L244 39 L247 36 L249 36 L251 31 Z"/></svg>
