<svg xmlns="http://www.w3.org/2000/svg" width="512" height="512" viewBox="0 0 512 512" aria-hidden="true" focusable="false"><path fill="currentColor" fill-rule="evenodd" clip-rule="evenodd" d="M48 419 L49 431 L50 432 L61 432 L60 420 L59 419 Z M252 418 L253 430 L254 431 L265 431 L265 420 Z M203 373 L202 385 L203 386 L214 386 L215 374 L214 373 Z M485 411 L477 406 L467 406 L454 392 L447 389 L441 392 L440 399 L436 399 L429 394 L423 384 L413 379 L404 379 L391 384 L382 395 L379 393 L376 383 L367 396 L369 403 L374 404 L373 409 L362 417 L345 417 L341 413 L346 409 L349 396 L333 363 L317 394 L318 406 L325 413 L320 417 L308 418 L293 409 L291 404 L296 403 L299 397 L290 382 L285 395 L274 383 L262 379 L244 383 L239 391 L227 400 L224 399 L224 391 L215 390 L200 405 L189 406 L180 413 L188 409 L200 410 L207 406 L211 407 L213 404 L225 406 L232 402 L240 402 L252 395 L252 389 L248 386 L255 382 L264 382 L274 387 L283 396 L290 411 L297 417 L316 420 L328 416 L334 423 L339 415 L353 420 L355 431 L367 431 L366 419 L377 410 L384 395 L393 386 L402 382 L415 384 L417 386 L413 390 L415 396 L429 403 L433 402 L440 406 L453 404 L454 407 L458 405 L465 410 L477 409 L484 413 Z M28 471 L28 500 L485 500 L485 471 L441 470 L485 450 L440 432 L426 434 L420 445 L411 447 L407 445 L411 440 L406 439 L402 448 L378 440 L364 441 L354 449 L348 443 L329 447 L321 443 L316 449 L313 443 L292 440 L267 449 L264 439 L259 440 L263 444 L259 447 L250 445 L244 434 L231 432 L183 450 L210 461 L202 463 L201 471 L118 471 L130 444 L129 427 L150 426 L175 411 L145 397 L131 398 L131 383 L116 353 L106 372 L100 373 L101 399 L90 396 L56 411 L81 426 L101 428 L101 445 L114 470 Z M55 484 L57 483 L58 486 L56 487 Z M214 463 L217 462 L218 465 L222 465 L228 470 L227 471 L215 471 Z M436 461 L439 460 L440 462 L437 463 Z M231 461 L233 460 L235 463 L232 464 Z M243 469 L248 464 L249 459 L256 456 L262 456 L263 459 L258 459 L258 461 L264 463 L267 459 L267 454 L285 462 L293 462 L296 460 L305 461 L313 458 L311 456 L312 454 L321 454 L322 456 L320 458 L327 458 L329 456 L334 459 L340 456 L349 458 L349 454 L357 454 L357 458 L365 461 L374 460 L384 462 L402 454 L403 460 L406 463 L411 462 L411 460 L407 459 L409 456 L420 458 L423 466 L427 470 L244 471 Z M417 451 L420 450 L421 452 L418 453 Z M249 452 L250 449 L253 450 L251 453 Z M448 449 L450 448 L454 452 L449 454 Z M216 450 L221 448 L222 453 L219 454 L216 452 Z M434 439 L437 438 L438 440 L435 441 Z M232 439 L235 438 L236 440 L233 441 Z M106 420 L108 419 L109 421 L107 422 Z M121 420 L124 418 L126 419 L125 422 L122 422 Z M121 403 L125 402 L126 405 L123 406 Z M106 405 L107 402 L110 403 L108 406 Z M200 213 L199 251 L207 268 L199 269 L199 271 L208 275 L202 309 L204 328 L211 342 L241 363 L254 365 L239 355 L225 340 L222 323 L228 323 L228 317 L221 315 L217 320 L215 319 L221 305 L226 312 L232 312 L241 301 L245 278 L239 284 L228 288 L241 269 L241 254 L223 234 L219 236 L204 223 L202 213 Z M229 265 L230 266 L229 275 L226 280 L222 282 L217 273 L224 271 Z M226 262 L228 261 L229 263 L227 264 Z M176 226 L163 237 L159 236 L161 227 L146 231 L132 244 L114 213 L99 245 L85 231 L71 227 L76 245 L89 256 L56 271 L88 289 L76 299 L70 317 L88 312 L98 299 L114 332 L132 300 L143 312 L161 317 L156 301 L143 289 L174 271 L145 256 L176 232 Z M131 292 L133 291 L135 294 L132 295 Z M135 289 L137 288 L138 290 L136 291 Z M121 280 L124 278 L126 279 L125 282 L122 282 Z M106 279 L108 278 L109 281 L107 282 Z M121 263 L125 262 L126 265 L123 266 Z M106 265 L107 262 L110 263 L108 266 Z M93 254 L95 253 L97 256 L94 257 Z M97 251 L99 250 L100 252 L98 253 Z M463 199 L461 198 L457 205 L455 219 L443 229 L440 235 L441 241 L449 244 L448 251 L434 261 L429 271 L429 281 L433 291 L445 302 L443 305 L433 306 L433 308 L445 316 L451 316 L456 309 L467 320 L466 328 L457 328 L456 331 L438 330 L440 351 L448 357 L447 359 L426 359 L416 351 L415 347 L422 345 L423 340 L414 325 L412 325 L411 336 L408 338 L398 326 L384 321 L368 326 L363 335 L355 341 L349 342 L349 336 L346 333 L340 333 L323 349 L311 350 L303 356 L311 353 L325 353 L331 349 L335 350 L337 347 L350 349 L361 346 L376 337 L373 328 L380 325 L391 326 L406 338 L412 352 L423 361 L441 363 L457 354 L469 340 L470 321 L467 314 L458 305 L445 299 L437 291 L432 274 L436 267 L440 270 L446 269 L453 256 L452 251 L457 242 L455 230 L458 229 L456 225 L461 217 L460 206 Z M286 174 L264 218 L264 232 L267 238 L252 237 L253 250 L266 252 L273 275 L280 267 L282 268 L282 292 L279 296 L275 291 L272 292 L273 304 L281 306 L287 301 L291 306 L297 306 L304 296 L333 276 L329 272 L322 279 L312 283 L311 287 L306 287 L304 292 L298 291 L296 296 L292 293 L291 273 L294 269 L302 275 L301 269 L307 257 L307 250 L302 244 L309 233 L310 221 L298 193 Z M266 240 L271 244 L268 248 L265 246 Z M387 166 L372 203 L369 226 L363 225 L363 234 L354 238 L354 255 L358 268 L366 275 L377 277 L379 297 L373 299 L374 292 L367 295 L367 301 L372 306 L381 305 L385 299 L389 301 L390 306 L405 303 L406 295 L403 292 L399 292 L401 298 L398 300 L393 295 L396 277 L409 274 L415 268 L419 256 L417 243 L409 231 L410 225 L404 226 L404 213 L388 176 Z M385 276 L388 276 L390 278 L387 285 L383 281 L383 278 Z M403 244 L406 246 L409 251 L410 259 L408 264 L406 263 L406 257 L404 252 L401 251 Z M370 244 L371 251 L368 254 L367 263 L365 264 L363 255 L364 251 L367 250 L367 246 Z M386 218 L388 219 L392 229 L390 236 L388 235 L387 231 L384 236 L382 235 L381 228 Z M49 148 L49 160 L61 160 L61 148 Z M253 147 L254 159 L265 160 L266 159 L265 148 Z M431 138 L419 148 L409 163 L407 171 L408 179 L417 192 L406 192 L406 204 L418 205 L419 192 L424 194 L438 193 L446 187 L450 180 L450 164 L447 158 L444 157 L441 149 Z M382 124 L374 130 L372 134 L372 143 L377 150 L383 153 L389 153 L396 150 L398 146 L400 145 L401 134 L399 130 L392 124 Z M339 110 L337 110 L315 156 L315 168 L322 180 L317 191 L324 204 L323 213 L333 201 L338 235 L342 202 L344 201 L353 212 L352 206 L359 194 L359 186 L355 180 L362 165 L359 149 L352 140 L351 133 Z M49 56 L48 69 L59 69 L61 66 L61 57 L60 56 Z M371 35 L368 37 L365 43 L365 55 L355 57 L355 69 L366 69 L369 67 L376 78 L387 89 L407 100 L406 113 L418 114 L418 102 L396 91 L383 79 L375 68 L370 52 L371 47 L373 45 L375 47 L381 46 L382 41 L377 35 Z M269 34 L271 38 L280 39 L285 41 L288 44 L290 63 L294 78 L302 91 L312 100 L314 100 L314 98 L304 88 L297 72 L296 55 L298 53 L302 53 L305 49 L305 46 L302 40 L293 33 L281 33 L275 35 Z M348 28 L346 33 L332 38 L328 41 L325 46 L322 56 L321 66 L327 83 L336 93 L347 100 L353 102 L360 102 L359 100 L350 98 L340 92 L331 82 L325 68 L325 60 L329 51 L331 51 L334 56 L340 56 L345 52 L350 34 L350 28 Z M421 24 L422 27 L421 33 L423 37 L421 41 L424 42 L422 52 L424 60 L421 61 L421 63 L424 65 L424 68 L421 74 L421 82 L427 92 L439 101 L442 101 L434 90 L430 79 L432 78 L435 81 L440 80 L444 75 L444 66 L441 60 L433 51 L434 47 L432 46 L432 41 L424 33 L424 27 L423 24 Z M449 21 L448 26 L451 32 L451 35 L448 43 L448 49 L453 59 L450 62 L453 64 L453 70 L449 76 L449 83 L454 93 L463 100 L464 99 L458 88 L458 82 L460 81 L462 83 L468 83 L471 79 L471 71 L467 63 L456 52 L453 47 L454 32 L450 26 L450 21 Z M241 17 L236 31 L239 63 L222 95 L202 110 L176 97 L160 95 L160 86 L149 87 L151 76 L142 78 L141 67 L131 67 L129 51 L114 26 L99 58 L100 67 L90 66 L89 78 L80 76 L83 85 L70 86 L71 96 L58 96 L30 112 L57 126 L71 127 L70 136 L82 136 L80 147 L89 144 L90 156 L100 155 L101 170 L116 196 L129 172 L130 155 L141 156 L142 144 L151 148 L152 160 L164 160 L164 148 L152 148 L148 138 L161 136 L160 127 L184 120 L190 127 L219 104 L229 115 L238 113 L240 107 L246 114 L244 130 L231 121 L235 133 L232 144 L230 133 L219 127 L222 133 L199 172 L199 192 L210 207 L212 173 L232 153 L244 154 L246 136 L256 116 L254 98 L245 86 L248 78 L243 77 L248 56 L240 37 Z M144 127 L146 126 L147 128 L145 129 Z M125 121 L127 127 L124 128 L119 133 L117 125 Z M106 121 L113 125 L112 134 L107 128 L104 127 Z M188 118 L190 117 L191 119 L189 120 Z M125 120 L129 113 L139 114 L131 122 L128 122 Z M92 114 L102 113 L105 120 L103 122 L100 122 Z M126 102 L128 100 L131 100 L132 103 L137 108 L129 109 Z M105 102 L102 109 L93 108 L99 103 L100 100 L103 100 Z M119 90 L127 95 L125 101 L117 97 Z M112 89 L113 97 L106 101 L104 95 L107 94 Z M406 13 L406 22 L418 23 L418 13 Z M201 13 L202 23 L214 23 L213 13 Z"/></svg>
