<svg xmlns="http://www.w3.org/2000/svg" width="512" height="512" viewBox="0 0 512 512" aria-hidden="true" focusable="false"><path fill="currentColor" fill-rule="evenodd" clip-rule="evenodd" d="M131 393 L129 397 L133 399 L135 395 Z M125 409 L127 415 L129 412 L132 413 L139 412 L140 413 L136 417 L130 417 L131 419 L132 418 L139 419 L141 417 L144 419 L151 416 L158 416 L160 418 L169 418 L172 417 L173 415 L173 411 L171 411 L170 409 L164 408 L164 400 L171 399 L171 397 L169 396 L165 397 L164 400 L157 398 L156 390 L151 387 L146 387 L141 390 L141 400 L135 402 L135 404 L133 405 L133 407 L137 408 L136 411 L133 411 L131 408 Z M154 411 L156 410 L157 413 L155 414 Z M158 401 L160 400 L161 402 L159 403 Z M146 398 L150 397 L151 399 L147 400 Z M446 386 L435 394 L438 401 L436 402 L431 400 L425 405 L425 407 L432 408 L436 412 L439 412 L439 410 L441 409 L443 411 L443 415 L446 418 L452 419 L455 417 L456 411 L463 412 L463 410 L466 409 L469 399 L462 402 L461 400 L456 398 L458 396 L458 393 L456 393 L455 390 L452 390 L450 387 Z M450 415 L452 414 L453 416 L451 417 Z M444 403 L451 402 L452 405 L451 406 L445 405 Z M39 388 L40 417 L44 420 L47 420 L48 418 L63 418 L64 420 L67 420 L74 416 L76 413 L76 388 L74 385 L46 384 Z M67 403 L69 404 L69 414 L68 415 L66 414 L65 406 Z M44 391 L63 391 L64 392 L64 398 L62 400 L59 400 L58 397 L56 396 L50 396 L48 400 L46 401 L47 406 L51 409 L56 408 L61 403 L64 406 L63 415 L44 415 L43 414 L43 392 Z M67 389 L69 390 L68 400 L66 399 Z M346 384 L341 387 L335 394 L334 397 L335 411 L345 420 L351 420 L348 418 L349 416 L355 416 L359 414 L360 416 L357 419 L354 419 L354 420 L359 420 L365 417 L371 407 L370 395 L368 391 L359 384 L355 383 Z M343 415 L345 414 L346 417 L344 418 Z M347 414 L349 413 L350 415 L348 416 Z M346 409 L349 408 L350 411 L347 412 Z M336 404 L338 403 L339 406 L337 407 Z M350 401 L355 400 L356 404 L351 405 Z M336 399 L339 398 L340 400 L337 401 Z M365 396 L369 399 L368 406 L366 405 L364 398 Z M357 389 L359 390 L359 393 L362 396 L361 403 L362 408 L358 412 L354 410 L355 408 L358 408 L358 396 L355 395 L356 393 L355 391 Z M355 385 L357 387 L356 389 L350 389 L350 395 L347 397 L347 408 L345 409 L343 407 L344 400 L342 397 L347 391 L345 391 L344 389 L350 385 Z M223 409 L223 413 L227 418 L244 420 L256 420 L258 418 L273 419 L278 413 L278 410 L273 410 L270 407 L270 403 L265 403 L264 395 L262 391 L259 389 L259 385 L254 385 L253 383 L245 385 L245 388 L243 389 L244 394 L239 398 L239 400 L236 403 L232 401 L230 407 L228 407 L227 409 Z M269 415 L272 414 L273 416 L270 417 Z M226 412 L231 413 L232 416 L228 417 L225 415 Z M246 412 L248 411 L250 414 L247 415 Z M230 409 L232 408 L233 410 L231 411 Z M259 398 L262 400 L265 409 L262 410 L259 414 L253 415 L252 413 L256 411 L256 408 L252 400 Z M249 397 L250 400 L248 404 L244 408 L239 408 L238 407 L239 401 L243 398 Z M248 387 L250 385 L253 385 L257 389 L255 391 L249 391 Z M453 354 L452 352 L450 352 L449 354 L435 360 L434 362 L445 359 Z M464 342 L456 343 L457 346 L462 350 L460 352 L459 358 L451 358 L450 362 L443 362 L441 366 L434 366 L433 378 L469 378 L468 352 L462 351 L464 348 Z M437 370 L439 371 L438 376 L436 375 Z M445 365 L447 366 L446 370 L444 369 Z M453 360 L455 359 L456 362 L454 363 Z M463 354 L465 355 L465 372 L464 373 L462 372 L462 355 Z M459 345 L461 344 L462 346 L460 347 Z M49 342 L48 345 L43 346 L42 351 L39 352 L40 358 L38 362 L42 365 L42 367 L50 368 L54 365 L55 371 L54 372 L49 371 L48 373 L45 373 L45 379 L46 380 L68 380 L71 378 L71 375 L65 371 L61 371 L60 367 L61 366 L65 368 L73 367 L73 364 L76 363 L77 361 L74 358 L74 355 L76 354 L76 352 L73 351 L72 346 L67 347 L66 342 L64 342 L65 345 L64 347 L61 346 L60 342 L57 343 Z M56 357 L58 358 L57 363 L54 361 Z M52 355 L54 354 L55 356 L53 357 Z M45 355 L47 354 L48 356 L46 357 Z M43 351 L45 350 L46 352 L44 353 Z M363 341 L356 342 L355 345 L347 347 L342 351 L336 351 L338 353 L337 360 L339 364 L343 365 L345 363 L350 365 L349 369 L352 373 L349 374 L344 370 L343 374 L347 375 L348 378 L352 380 L367 378 L370 374 L370 371 L373 370 L375 366 L374 354 L371 348 L367 346 Z M350 364 L352 363 L353 365 L351 366 Z M357 363 L361 362 L365 370 L360 371 L357 368 Z M339 355 L342 353 L345 356 L348 356 L351 354 L352 357 L349 362 L344 362 L343 358 L340 357 Z M361 350 L363 349 L364 351 L362 352 Z M345 350 L350 348 L353 350 L354 354 L352 355 L351 353 L346 352 Z M231 348 L232 358 L236 361 L234 368 L237 370 L237 374 L234 377 L234 379 L248 380 L249 378 L251 378 L254 380 L260 380 L260 377 L263 373 L266 374 L264 379 L267 379 L268 376 L271 375 L276 369 L275 362 L273 360 L270 360 L267 356 L262 358 L261 355 L264 353 L264 351 L259 353 L257 348 L252 345 L252 342 L246 341 L245 343 L241 343 L237 348 Z M249 370 L251 373 L246 378 L245 372 Z M259 368 L261 367 L262 370 L260 371 Z M257 366 L259 365 L260 367 L258 368 Z M250 366 L253 365 L255 368 L253 369 Z M255 358 L258 357 L259 360 L257 361 Z M250 350 L251 352 L247 354 L250 357 L248 360 L245 360 L243 353 L247 350 Z M242 347 L245 346 L247 349 L244 350 Z M144 341 L138 344 L132 350 L130 355 L130 366 L134 373 L139 377 L147 380 L152 380 L158 378 L166 371 L169 363 L169 357 L164 347 L159 343 L154 341 Z M151 371 L153 370 L154 372 L152 373 Z M144 368 L146 367 L147 370 L145 371 Z M139 363 L141 362 L142 364 L140 365 Z M159 356 L161 355 L162 357 L160 358 Z M152 355 L156 358 L156 362 L153 366 L151 365 Z M136 356 L138 355 L139 357 L137 358 Z M148 354 L149 356 L146 360 L147 364 L145 365 L143 362 L143 358 Z M151 349 L154 348 L156 352 L152 353 Z M152 344 L154 343 L155 345 L153 346 Z M463 318 L465 324 L464 333 L466 333 L467 323 L465 318 Z M440 316 L435 324 L436 325 L435 330 L437 333 L438 333 L437 323 Z M228 314 L229 321 L233 328 L239 333 L246 335 L261 334 L263 333 L263 329 L257 331 L256 333 L241 332 L238 331 L233 326 L231 321 L232 319 L241 322 L256 321 L262 319 L266 321 L266 319 L270 316 L271 320 L268 325 L268 327 L270 327 L274 317 L273 312 L270 311 L266 312 L260 311 L261 315 L255 319 L246 319 L241 315 L241 312 L231 311 Z M234 314 L236 313 L237 315 L235 316 Z M258 307 L250 305 L243 308 L242 310 L249 307 L252 307 L253 309 L257 310 Z M123 308 L122 314 L126 315 L127 319 L129 320 L127 330 L132 331 L133 334 L141 334 L144 330 L157 330 L161 331 L164 334 L172 333 L171 325 L176 321 L176 319 L170 318 L168 314 L157 305 L156 302 L146 302 L146 305 L138 310 L135 310 L130 306 L126 306 Z M163 327 L167 326 L169 330 L166 331 Z M136 326 L139 325 L141 327 L141 330 L137 331 Z M157 317 L160 316 L161 318 L158 319 Z M153 313 L155 312 L156 314 L154 315 Z M132 311 L134 312 L135 319 L134 322 L128 316 L128 314 Z M124 311 L126 310 L127 312 L125 313 Z M451 298 L448 300 L444 300 L442 304 L444 306 L445 314 L448 313 L450 314 L449 321 L445 325 L445 328 L450 333 L452 333 L454 330 L457 329 L457 326 L454 324 L452 315 L453 314 L457 315 L461 312 L465 313 L462 306 L459 305 L459 300 L455 300 Z M445 303 L449 301 L456 302 L457 305 L450 307 L446 306 Z M341 303 L341 311 L335 319 L336 327 L338 327 L339 330 L343 332 L342 336 L345 337 L348 335 L367 335 L368 337 L370 337 L370 332 L373 331 L378 324 L378 319 L373 314 L374 310 L371 301 L356 297 L353 300 L348 300 L347 302 Z M370 316 L371 319 L365 321 L368 323 L366 326 L366 331 L361 332 L360 330 L361 327 L363 326 L363 323 L360 320 L360 318 Z M343 316 L353 318 L353 320 L350 323 L353 330 L352 332 L347 331 L347 321 L342 319 Z M66 297 L61 297 L58 295 L56 297 L51 298 L51 301 L48 306 L41 304 L38 307 L40 319 L39 323 L41 324 L42 330 L48 335 L56 336 L68 335 L75 328 L75 325 L77 323 L75 320 L77 317 L75 313 L71 316 L71 319 L69 320 L69 324 L72 326 L70 329 L68 329 L67 326 L65 326 L64 329 L62 329 L59 326 L60 324 L65 323 L66 319 L68 318 L67 312 L69 310 L75 310 L78 307 L74 304 L68 306 L67 305 L68 299 Z M46 326 L48 325 L49 327 L47 328 Z M60 311 L63 310 L65 313 L61 314 Z M48 309 L49 316 L45 319 L42 312 Z M58 305 L60 306 L59 311 L57 310 Z M356 284 L351 286 L351 288 L355 290 L357 288 Z M157 284 L155 288 L159 290 L161 286 Z M168 286 L169 291 L173 295 L340 295 L345 288 L340 280 L172 280 Z M431 240 L431 243 L427 245 L429 251 L428 256 L433 260 L440 262 L442 270 L463 270 L465 269 L464 263 L472 260 L477 256 L476 251 L478 245 L475 244 L474 241 L467 236 L463 237 L460 234 L454 235 L452 233 L449 235 L444 234 L441 237 L437 236 L435 239 Z M440 258 L444 257 L445 255 L449 255 L450 258 L454 258 L455 255 L462 256 L461 260 L453 262 L441 260 Z M471 249 L472 246 L475 247 L473 250 Z M461 250 L461 248 L464 246 L468 247 L464 251 Z M436 247 L441 246 L445 252 L442 253 Z M429 247 L432 246 L434 251 L432 252 L429 249 Z M443 243 L445 242 L446 244 L444 245 Z M461 242 L461 244 L458 246 L458 249 L454 253 L450 253 L446 250 L449 244 L451 243 L456 244 L459 241 Z M39 228 L37 231 L40 234 L41 255 L40 263 L37 266 L37 268 L41 269 L46 266 L68 266 L75 269 L77 267 L74 263 L73 255 L71 259 L66 257 L65 264 L59 263 L59 257 L65 251 L70 250 L72 252 L73 246 L71 245 L70 248 L66 248 L59 241 L58 234 L65 233 L66 239 L71 239 L72 242 L74 242 L74 234 L77 230 L74 228 L68 231 L44 231 Z M43 252 L49 251 L55 257 L56 263 L49 264 L48 257 L45 257 Z M55 233 L56 234 L55 240 L51 243 L51 247 L50 248 L44 247 L42 239 L44 238 L48 240 L48 234 Z M295 227 L286 243 L285 250 L283 251 L284 265 L281 272 L282 273 L310 273 L308 266 L309 251 L307 250 L306 243 L302 236 L300 235 L300 232 Z M285 264 L287 263 L288 265 L286 266 Z M298 239 L300 238 L301 241 L299 242 Z M293 237 L294 241 L290 242 L289 240 Z M296 230 L298 234 L293 237 L292 235 L294 231 Z M216 228 L215 238 L217 242 L215 243 L215 245 L219 241 L227 241 L229 247 L228 248 L218 248 L218 250 L222 251 L218 256 L216 255 L214 248 L212 247 L212 270 L216 273 L230 273 L234 270 L234 246 L230 242 L230 228 L221 227 L221 228 L228 229 L227 234 L220 234 L218 232 L218 228 Z M214 261 L216 260 L218 264 L221 264 L223 267 L227 265 L228 262 L230 262 L232 265 L232 268 L225 270 L215 269 Z M226 257 L228 256 L229 258 L227 259 Z M228 248 L231 250 L230 256 L225 252 Z M143 227 L141 231 L138 232 L137 234 L138 271 L140 271 L141 273 L147 273 L149 272 L149 255 L147 253 L149 252 L150 232 L145 227 Z M140 264 L142 263 L143 266 L141 267 Z M141 239 L144 240 L142 244 L140 243 Z M421 196 L421 199 L429 207 L436 206 L478 207 L485 202 L485 192 L484 190 L478 187 L471 188 L429 187 Z M444 197 L446 196 L447 198 L445 199 Z M427 194 L429 195 L428 200 L426 199 Z M431 193 L433 192 L434 194 L432 195 Z M365 172 L363 174 L363 177 L360 179 L361 218 L370 219 L373 217 L374 180 L373 178 L370 177 L369 172 Z M363 211 L365 210 L366 212 L364 213 Z M368 210 L370 209 L371 211 L369 212 Z M363 189 L364 185 L370 186 L369 188 L365 190 Z M294 172 L294 174 L291 175 L292 181 L288 186 L288 193 L286 196 L285 205 L281 212 L281 217 L282 218 L309 218 L310 211 L306 205 L306 197 L304 194 L303 184 L300 181 L300 174 L298 172 Z M294 184 L296 184 L299 187 L298 192 L301 198 L300 206 L301 209 L304 211 L303 213 L288 213 L287 212 L288 210 L290 210 L291 207 L289 202 L290 197 L292 196 L292 187 Z M208 179 L206 181 L206 216 L208 218 L240 218 L241 180 L229 179 L226 172 L222 172 L222 178 L219 176 L218 179 Z M215 184 L232 184 L236 188 L236 209 L231 214 L216 214 L214 210 L212 209 L212 188 Z M141 172 L139 174 L140 181 L134 188 L129 199 L129 210 L134 217 L149 218 L152 217 L156 213 L158 208 L158 201 L155 192 L153 191 L150 184 L146 181 L148 179 L148 175 L145 172 Z M143 184 L150 192 L154 202 L154 207 L148 214 L136 213 L134 208 L134 200 L136 194 L138 193 L139 189 L141 188 Z M142 175 L146 174 L147 176 L143 177 Z M55 172 L51 176 L51 178 L53 179 L51 182 L45 182 L41 185 L40 188 L38 188 L37 197 L40 205 L50 215 L55 218 L59 218 L72 207 L76 200 L77 192 L72 184 L67 182 L67 184 L64 185 L62 181 L62 175 L58 172 Z M47 187 L52 187 L56 190 L62 187 L67 187 L71 189 L72 196 L68 205 L58 214 L52 211 L46 205 L43 199 L42 193 L43 190 Z M55 181 L58 180 L59 182 L56 183 Z M349 153 L349 158 L351 158 L351 153 Z M365 115 L365 117 L371 117 L373 119 L373 125 L369 129 L364 127 L363 118 L362 118 L361 121 L358 123 L358 126 L363 138 L364 138 L363 133 L364 132 L367 133 L367 139 L365 141 L366 142 L369 141 L374 149 L371 150 L370 147 L367 147 L365 150 L363 150 L362 147 L359 149 L356 149 L355 140 L357 139 L358 142 L361 141 L361 139 L356 138 L357 136 L357 132 L356 132 L353 140 L352 151 L354 151 L355 154 L358 153 L364 154 L371 152 L372 155 L359 161 L354 160 L352 161 L354 162 L361 161 L382 162 L385 161 L388 157 L388 154 L383 149 L384 141 L381 132 L377 131 L378 122 L373 116 Z M386 154 L386 157 L383 160 L378 161 L371 158 L372 155 L381 154 L382 151 L384 151 Z M372 152 L374 151 L375 153 L373 154 Z M370 132 L372 132 L374 135 L377 132 L379 133 L379 136 L376 137 L376 141 L378 142 L378 138 L379 137 L381 138 L382 147 L380 149 L378 149 L372 144 L369 137 Z M293 115 L293 117 L290 118 L289 122 L290 126 L289 127 L286 126 L282 132 L281 149 L284 153 L278 155 L278 159 L282 162 L310 162 L310 160 L313 159 L313 154 L310 151 L310 146 L308 145 L310 143 L309 131 L308 129 L306 129 L307 133 L304 136 L302 136 L301 133 L304 125 L301 121 L301 118 L299 118 L298 115 Z M304 156 L310 155 L311 157 L305 158 Z M283 156 L291 155 L292 157 L284 158 Z M296 148 L300 147 L303 148 L304 150 L297 151 Z M289 138 L293 136 L297 136 L299 140 L293 142 Z M286 128 L290 130 L289 137 L283 134 Z M294 127 L298 128 L297 134 L294 134 L292 131 Z M221 115 L209 136 L208 161 L238 162 L240 160 L240 146 L238 134 L234 126 L229 123 L228 117 L226 115 Z M235 158 L237 157 L238 159 L236 160 Z M213 156 L215 153 L223 153 L225 155 L227 154 L234 155 L233 158 L214 158 Z M232 148 L234 147 L237 150 L233 152 Z M222 140 L225 140 L228 142 L227 146 L224 148 L222 148 L220 145 L220 142 Z M221 136 L222 133 L226 134 L224 138 Z M226 126 L230 128 L234 138 L233 143 L228 140 L228 132 L225 129 Z M221 126 L222 129 L220 131 L220 138 L217 140 L216 149 L214 150 L213 149 L214 136 L218 128 Z M141 115 L142 119 L144 119 L151 128 L153 139 L151 140 L149 137 L146 136 L148 130 L145 127 L145 124 L142 123 L142 125 L139 128 L139 136 L135 139 L135 147 L132 150 L130 150 L129 148 L132 141 L131 137 L134 135 L135 129 L139 122 L134 122 L130 131 L129 140 L125 148 L124 159 L128 162 L158 162 L161 160 L162 154 L158 141 L156 139 L154 127 L146 116 Z M156 153 L158 154 L158 157 L154 158 L153 155 Z M128 154 L131 153 L132 156 L129 157 Z M156 144 L157 151 L154 152 L154 154 L150 158 L147 155 L133 155 L132 152 L136 150 L139 151 L152 150 L151 148 L152 140 Z M138 139 L143 136 L147 140 L147 142 L141 144 Z M141 131 L144 130 L145 134 L143 135 Z M39 116 L39 123 L41 124 L41 129 L43 130 L43 143 L40 143 L40 132 L38 132 L38 160 L40 162 L73 162 L75 160 L75 141 L73 141 L72 158 L68 154 L68 150 L70 148 L67 148 L66 146 L70 144 L70 136 L74 134 L74 118 L71 115 Z M44 158 L45 157 L68 157 L69 159 L66 161 L47 161 Z M57 144 L59 143 L60 145 L58 146 Z M59 133 L60 136 L58 141 L56 142 L54 139 L54 135 L56 133 Z M69 130 L71 129 L72 131 L70 132 Z M55 129 L57 128 L58 130 L56 131 Z M65 119 L70 120 L70 124 L66 125 L68 132 L68 142 L67 143 L64 142 L64 135 L60 132 L61 128 L58 124 L59 122 L64 123 Z M50 119 L51 122 L54 122 L55 124 L53 125 L52 128 L53 132 L49 135 L49 141 L46 149 L43 150 L42 145 L45 144 L45 131 L47 125 L43 124 L43 120 Z M450 114 L450 116 L447 117 L448 121 L437 130 L439 135 L436 137 L435 154 L437 160 L440 162 L465 162 L468 160 L471 154 L471 142 L467 129 L462 127 L463 123 L455 119 L455 114 Z M451 127 L455 127 L456 129 L459 130 L459 132 L462 133 L462 138 L465 144 L465 152 L462 157 L443 157 L441 154 L441 151 L438 150 L438 147 L441 146 L443 139 L443 133 L446 132 Z M449 123 L453 121 L456 124 L450 125 Z M478 99 L478 101 L496 101 L496 99 Z M468 100 L468 101 L473 101 L472 99 Z M361 99 L361 101 L455 101 L455 99 Z M17 99 L17 101 L151 101 L151 99 Z M157 97 L154 99 L154 101 L159 104 L162 101 L162 99 Z M354 96 L352 99 L350 99 L350 101 L356 104 L358 99 Z M168 99 L172 108 L340 108 L345 101 L340 93 L173 93 Z"/></svg>
