<svg xmlns="http://www.w3.org/2000/svg" width="512" height="512" viewBox="0 0 512 512" aria-hidden="true" focusable="false"><path fill="currentColor" fill-rule="evenodd" clip-rule="evenodd" d="M13 13 L13 500 L500 500 L500 13 Z M285 455 L286 456 L285 459 L280 464 L278 464 L277 462 Z M273 444 L278 443 L282 447 L278 448 L274 446 Z M253 444 L246 450 L243 449 L245 446 L251 443 Z M288 441 L290 449 L288 454 L286 455 L285 454 L286 451 L285 444 Z M107 434 L109 433 L110 435 L108 436 Z M254 418 L258 417 L259 419 L255 420 Z M260 410 L262 409 L263 412 L261 413 Z M89 404 L91 403 L92 406 L90 407 Z M390 295 L392 294 L393 296 L391 297 Z M430 294 L432 293 L433 295 L431 296 Z M419 294 L422 293 L423 295 L420 296 Z M413 294 L415 293 L416 295 L414 296 Z M408 294 L410 293 L411 295 L409 296 Z M425 293 L427 292 L429 295 L426 296 Z M396 291 L399 293 L398 296 L401 297 L400 299 L397 299 L395 297 Z M412 288 L414 287 L415 289 L413 290 Z M422 289 L424 286 L427 287 L426 291 L423 291 Z M418 287 L420 286 L421 289 L419 290 Z M395 284 L397 283 L398 286 L396 287 Z M406 278 L411 277 L415 278 L416 280 L409 282 Z M409 269 L412 271 L411 275 L408 273 Z M405 269 L406 277 L395 281 L394 274 L399 272 L400 268 Z M410 253 L413 256 L422 255 L425 252 L427 259 L421 266 L422 269 L425 270 L423 274 L426 276 L429 276 L431 273 L430 265 L435 262 L437 277 L438 277 L437 251 L438 250 L443 251 L441 254 L441 297 L439 299 L435 298 L438 295 L436 291 L429 289 L430 287 L435 286 L435 283 L433 281 L432 284 L429 283 L424 284 L423 280 L418 281 L417 278 L414 278 L412 276 L414 273 L418 274 L415 265 L411 261 L412 259 L409 256 Z M396 250 L398 251 L398 256 L394 257 L393 252 Z M396 242 L398 241 L399 243 L397 244 Z M444 238 L446 238 L448 241 L447 246 L445 245 L445 242 L443 240 Z M437 238 L439 237 L443 241 L443 243 L441 244 L440 242 L437 244 L436 243 Z M427 236 L429 235 L431 238 L428 239 Z M438 235 L440 234 L441 236 L439 237 Z M396 239 L398 237 L397 236 L398 234 L403 235 L400 239 L398 240 Z M431 233 L433 232 L434 234 L437 235 L436 238 L432 237 Z M418 232 L420 232 L424 236 L424 241 L426 242 L425 247 L422 249 L421 252 L417 251 L418 249 L415 245 L415 243 L417 242 L416 240 L419 239 L419 235 L417 234 Z M415 232 L416 234 L414 241 L410 244 L409 243 L410 235 Z M423 218 L425 217 L427 220 L425 221 Z M420 217 L422 216 L423 218 L421 219 Z M403 230 L409 226 L409 224 L412 222 L411 218 L414 216 L415 217 L414 220 L418 217 L425 224 L425 226 L431 231 L431 233 L427 235 L425 233 L425 229 L421 230 L418 227 L416 227 L408 235 L406 235 L403 232 Z M416 211 L418 210 L420 214 L417 215 Z M412 129 L414 128 L417 131 L413 132 Z M413 124 L416 123 L417 125 L414 126 Z M386 128 L386 124 L391 121 L393 121 L394 123 L400 123 L404 121 L407 124 L403 128 L397 128 L392 134 L389 134 Z M430 118 L436 116 L442 118 L449 124 L450 131 L446 134 L437 134 L428 132 L426 129 L429 125 L428 121 Z M403 117 L406 116 L407 118 L404 119 Z M430 114 L432 113 L433 115 L431 116 Z M420 114 L422 113 L423 115 L421 116 Z M412 91 L416 92 L415 98 L418 100 L418 107 L420 109 L419 111 L412 110 L415 103 L414 101 L411 105 L409 105 L408 108 L404 107 L404 103 L409 98 L410 93 Z M404 79 L405 80 L404 83 L405 95 L401 105 L399 106 L398 105 L398 98 L400 93 L399 85 L401 81 Z M431 77 L434 79 L437 89 L437 108 L434 112 L432 111 L432 109 L428 104 L429 102 L432 102 L432 101 L428 98 L429 101 L427 102 L424 97 L420 94 L420 89 L426 88 L428 80 Z M101 75 L102 72 L105 73 L103 76 Z M414 63 L421 63 L427 68 L428 74 L424 82 L419 82 L417 78 L416 81 L413 81 L411 79 L411 72 Z M405 51 L407 50 L410 53 L406 54 Z M96 42 L102 41 L106 46 L101 47 Z M414 40 L418 39 L420 42 L415 43 Z M109 39 L110 40 L109 43 L106 44 L105 41 Z"/></svg>
