<svg xmlns="http://www.w3.org/2000/svg" width="512" height="512" viewBox="0 0 512 512" aria-hidden="true" focusable="false"><path fill="currentColor" fill-rule="evenodd" clip-rule="evenodd" d="M288 381 L289 395 L284 402 L284 410 L288 419 L288 425 L283 433 L282 438 L283 445 L285 449 L291 454 L299 458 L319 459 L319 457 L302 455 L293 448 L292 441 L299 440 L303 436 L304 429 L300 420 L290 407 L290 402 L293 396 L293 391 L290 386 L290 381 Z M253 359 L253 361 L256 362 L259 366 L260 376 L257 385 L252 391 L248 399 L249 410 L261 420 L274 421 L275 420 L274 419 L261 416 L255 410 L254 406 L255 401 L258 398 L260 399 L260 401 L264 401 L268 397 L272 387 L272 382 L270 375 L264 366 L258 361 Z M324 358 L322 359 L323 362 L322 371 L311 386 L307 398 L307 404 L309 411 L316 419 L322 421 L329 419 L334 414 L336 409 L335 396 L337 393 L335 391 L334 381 L332 377 L328 375 L330 379 L329 384 L319 398 L319 406 L325 411 L321 413 L315 409 L312 400 L315 387 L323 376 L325 371 Z M298 323 L291 324 L282 331 L280 336 L282 355 L280 358 L275 360 L275 362 L281 362 L287 360 L294 354 L296 349 L296 342 L293 336 L293 328 L297 326 Z M350 322 L351 333 L346 343 L348 355 L342 356 L346 361 L342 382 L343 395 L346 404 L351 409 L358 410 L361 408 L362 402 L367 402 L373 410 L373 427 L361 461 L362 481 L366 488 L373 494 L374 492 L368 485 L365 477 L365 469 L368 456 L381 429 L381 422 L385 416 L385 406 L378 391 L368 378 L368 374 L371 370 L364 371 L363 360 L352 347 L354 327 L352 322 Z M358 386 L360 385 L361 388 L359 389 Z M357 376 L361 377 L361 382 L359 385 L357 384 L356 380 Z M317 322 L315 325 L306 324 L303 327 L303 333 L306 340 L306 347 L300 360 L306 358 L312 352 L314 348 L315 341 L312 331 L317 327 Z M253 321 L246 321 L237 325 L223 341 L218 355 L218 372 L220 379 L223 385 L230 392 L235 394 L238 394 L238 393 L231 389 L225 379 L225 369 L227 366 L233 367 L237 360 L235 350 L236 331 L244 324 L253 323 L254 322 Z M500 320 L489 333 L452 344 L442 355 L437 380 L452 420 L457 447 L454 469 L445 487 L447 492 L460 485 L476 465 L479 437 L475 414 L486 410 L491 403 L491 399 L487 404 L470 403 L463 410 L465 457 L462 471 L455 481 L461 458 L461 432 L451 384 L457 374 L466 373 L473 380 L471 388 L467 383 L462 387 L468 397 L478 399 L491 390 L500 353 Z M477 371 L481 370 L482 372 L479 374 Z M477 346 L481 346 L485 348 L488 352 L488 359 L485 363 L483 362 L485 355 L481 350 L476 348 Z M200 316 L182 346 L176 365 L175 385 L172 386 L177 437 L195 467 L226 487 L254 494 L349 492 L334 486 L328 479 L331 473 L337 478 L345 470 L341 450 L330 436 L335 450 L321 464 L319 474 L322 482 L335 493 L274 484 L261 478 L255 471 L255 458 L264 455 L264 463 L268 466 L275 461 L275 451 L267 445 L255 446 L247 453 L244 460 L247 478 L239 476 L223 463 L218 455 L218 446 L227 440 L230 443 L224 445 L224 450 L234 453 L239 448 L240 438 L235 431 L225 427 L229 419 L215 418 L212 406 L204 408 L194 389 L189 354 Z M415 300 L407 316 L408 327 L415 342 L415 351 L401 377 L400 389 L392 400 L390 421 L391 435 L397 446 L409 447 L412 444 L411 436 L416 437 L422 443 L426 470 L420 490 L437 462 L438 432 L425 408 L425 403 L433 396 L421 400 L412 411 L408 405 L410 393 L418 387 L420 391 L427 389 L432 376 L430 357 L426 356 L426 343 L412 318 L412 311 L417 301 Z M398 395 L400 396 L401 407 L404 413 L408 417 L407 419 L402 418 L398 413 L397 407 L397 396 Z M425 358 L427 357 L428 359 L426 360 Z M126 298 L102 321 L91 349 L89 393 L96 419 L108 440 L107 443 L93 443 L113 469 L141 485 L176 488 L196 494 L229 494 L192 488 L163 475 L155 466 L162 462 L160 453 L140 436 L141 419 L134 435 L135 448 L127 441 L121 426 L121 411 L128 407 L127 416 L136 418 L142 406 L135 396 L124 393 L126 380 L117 377 L113 353 L108 354 L108 327 L113 314 Z M121 468 L123 467 L124 469 L122 470 Z M31 298 L31 316 L24 325 L24 337 L18 338 L23 352 L18 365 L16 390 L23 408 L15 409 L26 417 L23 448 L28 468 L39 482 L61 493 L111 493 L67 477 L52 458 L51 443 L56 435 L65 438 L60 441 L63 448 L79 442 L82 435 L81 419 L70 398 L51 377 L50 371 L54 366 L45 369 L38 377 L38 368 L47 362 L48 354 L32 329 L35 311 Z M36 408 L43 413 L44 415 L43 421 L40 421 L33 414 Z M195 101 L165 110 L158 103 L155 114 L131 122 L123 133 L125 151 L114 152 L109 137 L107 145 L96 151 L85 125 L82 138 L75 135 L73 147 L51 159 L42 176 L36 176 L32 196 L28 191 L25 195 L24 228 L35 263 L45 275 L76 291 L114 286 L82 283 L73 275 L72 260 L66 257 L79 242 L80 228 L73 240 L56 243 L67 223 L76 219 L70 215 L82 193 L94 192 L78 185 L96 183 L111 194 L111 201 L104 195 L92 200 L91 213 L98 222 L117 225 L135 216 L147 198 L151 178 L158 176 L170 153 L164 152 L155 163 L159 143 L170 141 L165 135 Z M67 209 L68 215 L66 217 L63 217 L62 215 L64 211 Z M33 206 L35 205 L36 207 L34 208 Z M119 193 L122 190 L125 190 L128 195 L126 197 L122 197 Z M137 145 L138 148 L136 153 L131 157 L130 149 Z M155 128 L159 135 L151 139 L150 138 L151 132 Z M303 35 L290 41 L283 55 L276 53 L279 59 L254 85 L245 114 L236 103 L236 118 L215 140 L208 127 L199 122 L202 135 L181 160 L180 185 L168 183 L176 193 L177 214 L167 232 L178 255 L191 272 L225 290 L313 284 L257 276 L251 270 L258 261 L255 252 L237 243 L222 242 L214 234 L222 232 L230 238 L230 230 L256 226 L275 210 L288 190 L291 162 L287 129 L299 122 L280 121 L278 101 L284 97 L272 98 L271 90 L275 85 L288 87 L294 81 L295 45 Z M197 241 L205 244 L203 256 L201 255 L196 244 Z M213 240 L215 241 L218 249 L221 252 L227 255 L231 255 L233 257 L233 263 L235 267 L234 270 L227 267 L225 264 L223 264 L220 257 L212 251 L211 242 Z M211 236 L213 235 L214 237 L212 238 Z M251 211 L249 214 L242 218 L229 220 L227 218 L228 216 L234 214 L239 209 L249 209 Z M246 195 L249 191 L259 185 L273 185 L274 186 L273 189 L269 193 L263 196 L247 196 Z M203 154 L205 158 L204 167 L195 178 L192 185 L192 189 L190 190 L189 189 L190 171 L201 155 Z M243 153 L244 155 L240 159 L239 157 Z M243 150 L245 149 L246 151 L244 152 Z M215 148 L216 147 L221 149 L220 152 L217 153 Z M278 144 L279 145 L278 165 L272 170 L271 167 L274 157 L275 146 Z M258 141 L261 147 L260 163 L257 170 L251 175 L250 174 L251 152 L249 145 L255 144 Z M247 141 L248 142 L247 147 L245 148 L244 144 Z M230 140 L231 141 L231 151 L229 156 L220 162 L216 162 L215 161 L216 157 L218 155 L221 155 L224 152 L225 145 Z M266 128 L268 127 L269 129 L267 130 Z M403 18 L402 44 L379 77 L377 91 L385 116 L373 99 L371 111 L349 121 L349 136 L344 141 L337 123 L337 133 L321 147 L319 160 L315 157 L311 202 L327 220 L330 235 L320 231 L303 234 L318 238 L327 269 L337 271 L340 263 L376 286 L423 291 L473 288 L453 280 L446 272 L445 261 L450 253 L459 253 L462 261 L455 257 L451 266 L463 271 L486 252 L492 229 L492 155 L484 176 L470 190 L470 200 L459 213 L459 223 L467 224 L467 230 L459 235 L456 222 L451 225 L446 217 L422 248 L420 264 L429 282 L396 277 L383 266 L392 262 L392 254 L377 237 L384 226 L382 221 L415 196 L430 159 L428 136 L422 126 L424 103 L419 109 L407 80 L411 71 L399 77 L397 88 L392 80 L393 71 L402 70 L410 51 Z M466 247 L470 246 L474 250 L473 253 L470 254 L466 250 Z M356 230 L359 229 L369 229 L370 230 L369 234 L365 236 L364 249 L370 264 L375 270 L374 272 L371 271 L361 262 L352 247 L351 241 Z M358 195 L360 194 L361 196 L359 197 Z M394 182 L396 184 L396 190 L394 194 L388 200 L380 204 L379 202 L383 191 L383 187 L385 186 L390 188 L392 186 L392 183 Z M338 170 L342 170 L343 172 L342 176 L337 178 L336 174 Z M348 169 L350 168 L351 171 L349 172 Z M378 168 L382 167 L386 169 L392 169 L395 167 L399 167 L400 169 L398 174 L391 173 L383 178 L380 175 Z M346 154 L348 153 L349 155 L347 156 Z M379 147 L382 151 L377 153 L374 158 L371 158 L370 162 L361 169 L360 166 L362 162 L369 155 L374 153 L374 152 L363 153 L362 152 L363 147 L370 145 Z M423 128 L424 129 L424 142 L418 156 L416 157 L415 155 L420 144 L421 129 Z M398 102 L400 105 L400 116 L392 124 L390 113 L387 106 L393 105 Z"/></svg>
