<svg xmlns="http://www.w3.org/2000/svg" width="512" height="512" viewBox="0 0 512 512" aria-hidden="true" focusable="false"><path fill="currentColor" fill-rule="evenodd" clip-rule="evenodd" d="M375 371 L375 373 L377 374 L379 373 L378 370 Z M327 370 L327 374 L331 373 L331 371 Z M423 338 L419 339 L419 341 L424 341 Z M89 338 L88 342 L91 342 L92 339 Z M484 337 L483 341 L484 343 L486 343 L487 340 Z M180 330 L178 331 L178 334 L181 333 Z M144 318 L143 321 L145 322 L145 318 Z M452 306 L449 311 L452 314 L455 314 L458 310 L455 308 L455 306 Z M156 306 L154 311 L151 313 L155 316 L156 319 L158 319 L159 315 L162 314 L162 312 L159 310 L158 306 Z M59 306 L55 314 L57 314 L59 319 L61 319 L62 316 L65 314 L65 312 L61 306 Z M452 265 L450 276 L433 298 L435 306 L430 305 L427 294 L420 304 L416 317 L420 325 L414 327 L410 340 L410 363 L417 380 L427 389 L422 392 L427 396 L436 394 L436 398 L455 400 L478 397 L484 392 L479 389 L495 370 L494 332 L492 326 L487 325 L490 320 L487 304 L480 295 L476 307 L471 307 L474 299 Z M461 367 L463 366 L464 368 L462 369 Z M469 360 L471 359 L472 361 L470 362 Z M442 359 L445 360 L444 368 L438 365 Z M440 357 L441 359 L436 363 L435 360 L438 357 Z M431 343 L433 344 L432 351 L430 350 Z M460 326 L462 325 L466 327 L473 334 L475 340 L474 341 L462 340 Z M446 325 L447 327 L445 328 L445 339 L444 340 L433 340 L432 337 L441 327 Z M451 324 L454 323 L455 325 L452 326 Z M428 311 L430 310 L431 312 L429 313 Z M467 299 L469 298 L470 300 L468 301 Z M453 291 L464 301 L464 305 L468 312 L481 321 L482 329 L486 329 L491 337 L491 354 L489 355 L486 352 L483 359 L482 367 L485 377 L481 382 L477 380 L478 373 L471 375 L466 373 L478 360 L481 348 L479 337 L470 325 L457 319 L443 321 L430 332 L426 342 L426 352 L429 361 L440 373 L437 375 L429 373 L429 382 L425 382 L421 376 L424 368 L424 360 L421 352 L415 352 L415 339 L420 329 L424 328 L426 320 L440 310 L443 301 Z M452 282 L454 281 L455 284 L453 285 Z M255 265 L249 282 L236 297 L237 307 L233 306 L227 293 L219 314 L222 325 L216 327 L212 356 L214 371 L228 389 L226 394 L257 400 L284 394 L282 389 L296 371 L298 353 L294 326 L289 325 L288 303 L282 296 L278 309 L272 307 L275 298 L265 282 L261 283 Z M218 363 L221 362 L222 364 L219 365 Z M263 350 L265 351 L264 354 L261 353 Z M247 346 L249 347 L251 352 L248 354 L245 354 L244 352 Z M278 311 L280 310 L281 312 L279 313 Z M230 311 L232 310 L233 312 L231 313 Z M226 310 L228 309 L229 311 L227 312 Z M281 309 L283 308 L284 310 L282 311 Z M239 299 L241 298 L242 300 L240 301 Z M255 291 L266 302 L268 310 L283 322 L284 328 L290 332 L292 337 L293 347 L290 360 L292 364 L289 366 L288 363 L286 363 L284 366 L283 373 L285 378 L281 383 L279 382 L280 376 L276 378 L273 377 L282 365 L285 357 L284 346 L279 335 L279 325 L274 326 L261 314 L256 304 L252 311 L236 326 L231 325 L231 336 L227 344 L225 354 L229 366 L237 377 L234 378 L230 376 L230 383 L225 378 L227 368 L224 365 L224 362 L221 362 L219 359 L218 337 L220 332 L223 329 L227 329 L227 322 L232 317 L240 313 L243 306 L246 304 L245 301 Z M250 288 L252 287 L253 289 L251 290 Z M253 282 L256 281 L257 284 L254 285 Z M352 264 L350 275 L333 298 L336 307 L331 309 L326 295 L316 314 L319 325 L313 327 L309 355 L311 370 L326 389 L321 391 L327 396 L336 394 L336 398 L354 400 L384 392 L379 389 L394 370 L395 337 L392 327 L386 325 L389 313 L381 293 L374 310 L370 306 L372 297 Z M386 354 L388 353 L390 356 L388 357 Z M386 329 L390 337 L390 350 L387 353 L385 353 L385 356 L381 364 L382 369 L384 371 L383 380 L379 384 L376 385 L375 384 L376 377 L367 379 L366 376 L372 370 L377 361 L380 350 L381 330 Z M320 329 L324 330 L325 350 L328 361 L333 370 L338 375 L337 378 L329 377 L330 382 L329 384 L327 384 L322 378 L322 371 L324 369 L325 364 L321 354 L318 353 L318 348 L315 347 L315 338 Z M324 323 L329 317 L335 315 L339 311 L340 307 L343 305 L343 301 L349 296 L352 291 L354 291 L357 297 L359 297 L363 301 L363 304 L366 307 L367 311 L371 315 L377 317 L381 321 L382 326 L381 327 L376 326 L365 321 L354 310 L352 310 L344 319 L342 319 L338 323 L335 323 L329 326 L325 326 Z M156 264 L153 276 L137 298 L139 306 L134 307 L130 295 L124 303 L123 325 L118 326 L114 357 L117 373 L131 389 L128 394 L158 400 L174 398 L174 394 L183 396 L189 391 L184 388 L199 370 L200 338 L196 326 L191 325 L194 314 L186 293 L177 306 L177 297 Z M128 361 L130 362 L132 378 L131 383 L126 379 L124 375 L126 372 L127 368 L126 364 Z M154 349 L160 349 L161 352 L159 355 L163 356 L163 358 L160 359 L160 361 L157 363 L155 363 L154 360 L152 361 L150 360 L152 358 L152 353 Z M194 346 L195 347 L194 356 L192 358 L189 358 L187 363 L189 376 L185 380 L184 379 L185 372 L180 364 L179 357 L187 353 L190 346 Z M177 346 L179 347 L178 351 L176 350 Z M193 333 L187 340 L179 339 L174 341 L172 335 L161 327 L131 327 L131 332 L127 333 L128 348 L125 350 L119 345 L120 336 L123 330 L127 328 L129 320 L142 311 L146 301 L151 298 L156 290 L168 301 L167 304 L172 312 L181 317 L186 323 L186 328 L189 328 Z M156 281 L158 280 L159 282 L157 283 Z M59 264 L57 275 L40 297 L42 308 L38 307 L31 292 L23 317 L26 325 L18 337 L17 357 L22 377 L34 389 L28 390 L30 393 L61 400 L77 398 L77 394 L85 396 L92 391 L86 389 L101 370 L103 341 L99 327 L94 326 L97 314 L89 293 L83 306 L79 307 L81 299 L67 282 Z M91 373 L92 374 L91 378 L88 382 L86 382 L85 379 Z M54 372 L57 371 L58 373 L55 374 Z M83 311 L85 310 L86 312 L84 313 Z M61 291 L71 301 L71 305 L75 312 L84 317 L89 323 L89 328 L95 331 L98 340 L98 348 L95 349 L94 355 L91 351 L83 349 L82 339 L85 336 L85 333 L82 330 L77 334 L71 328 L64 326 L47 325 L45 329 L40 326 L35 326 L34 330 L36 337 L34 342 L28 347 L28 354 L40 365 L41 373 L37 374 L35 377 L36 383 L34 384 L28 376 L30 362 L22 349 L22 338 L25 331 L28 328 L31 329 L32 321 L45 312 L50 304 L50 300 Z M59 281 L61 280 L62 283 L60 284 Z M382 196 L378 199 L380 203 L384 201 Z M323 196 L321 198 L321 201 L326 203 L328 199 L325 196 Z M479 182 L477 182 L477 187 L480 185 Z M428 182 L428 186 L430 187 L430 182 Z M43 182 L41 186 L45 190 L47 185 L45 184 L45 182 Z M376 180 L374 185 L377 188 L379 183 Z M331 180 L329 180 L329 182 L326 183 L326 185 L328 185 L329 188 L334 184 Z M81 169 L69 174 L68 177 L70 179 L65 186 L53 197 L36 207 L44 206 L55 201 L64 195 L75 183 L81 184 Z M59 161 L58 165 L56 166 L56 169 L58 170 L59 173 L61 173 L62 170 L65 169 L65 166 L63 166 L61 161 Z M157 156 L155 162 L151 165 L158 172 L159 168 L163 166 L163 164 L159 162 L159 159 Z M452 152 L450 157 L452 159 L455 159 L457 157 L457 154 L455 152 Z M352 152 L351 157 L352 160 L354 160 L355 156 L354 153 Z M255 151 L253 158 L251 160 L247 159 L248 163 L242 166 L242 168 L247 171 L247 175 L252 175 L256 181 L257 177 L259 175 L263 175 L263 171 L267 169 L268 166 L262 163 L263 159 L259 160 L257 158 L256 151 Z M60 115 L41 147 L43 156 L38 157 L34 143 L27 153 L24 164 L27 175 L22 176 L19 183 L18 206 L22 225 L34 238 L30 242 L43 248 L62 250 L92 241 L87 238 L102 218 L103 188 L100 178 L94 174 L97 163 L89 143 L83 156 L79 157 L81 148 Z M61 227 L62 224 L82 224 L83 225 L80 228 L76 229 L72 228 L67 231 L65 231 Z M94 214 L95 211 L98 212 L96 215 Z M23 212 L25 211 L26 213 L24 214 Z M61 140 L70 150 L74 160 L79 161 L81 166 L85 166 L89 178 L96 182 L98 198 L95 199 L96 207 L92 208 L90 212 L91 227 L86 232 L84 231 L86 223 L83 220 L83 190 L74 189 L72 200 L62 199 L60 207 L49 207 L48 212 L37 213 L37 220 L34 224 L59 224 L59 228 L55 231 L47 227 L37 227 L35 233 L29 226 L31 213 L23 199 L23 187 L26 180 L32 178 L34 169 L47 160 L50 151 Z M60 130 L62 131 L61 135 L59 134 Z M454 114 L434 144 L433 156 L425 142 L416 166 L420 174 L414 175 L410 190 L411 217 L419 232 L427 238 L423 242 L452 250 L484 241 L479 238 L491 228 L496 211 L495 182 L487 174 L491 167 L487 153 L480 142 L473 155 L474 148 Z M483 218 L485 219 L484 227 L481 225 Z M423 218 L425 219 L427 224 L426 226 L423 226 L421 224 Z M444 189 L446 188 L447 190 L445 191 Z M453 140 L464 150 L464 154 L469 162 L481 170 L482 178 L486 178 L490 183 L492 197 L489 198 L488 206 L484 210 L482 210 L477 203 L480 197 L474 190 L468 188 L469 181 L460 177 L462 169 L452 164 L445 166 L445 172 L449 176 L457 178 L455 185 L451 185 L448 179 L440 180 L438 182 L438 188 L427 197 L430 203 L425 210 L419 205 L418 198 L415 197 L418 181 L424 178 L425 171 L430 166 L437 163 L443 154 L443 150 Z M452 130 L454 129 L455 132 L453 133 Z M352 114 L350 124 L334 144 L334 155 L331 155 L327 141 L316 165 L319 174 L313 177 L310 187 L310 212 L317 230 L326 238 L321 239 L322 242 L354 250 L383 242 L379 238 L394 220 L396 202 L392 176 L386 174 L389 170 L386 151 L379 143 L376 156 L371 155 L373 148 Z M379 158 L381 157 L382 159 L380 160 Z M353 140 L364 151 L367 160 L381 170 L382 178 L386 178 L389 181 L391 195 L388 204 L385 205 L382 211 L382 216 L385 220 L384 223 L377 218 L377 206 L371 192 L367 188 L370 183 L362 178 L366 170 L354 165 L340 170 L344 177 L344 183 L337 189 L330 201 L328 218 L323 223 L321 222 L324 217 L324 211 L318 202 L318 198 L315 197 L317 181 L320 178 L324 178 L325 171 L338 162 L343 154 L343 150 Z M352 130 L354 129 L355 132 L353 133 Z M256 114 L249 131 L245 130 L236 145 L237 156 L228 141 L219 163 L222 174 L216 176 L212 202 L214 219 L229 238 L224 241 L254 250 L271 248 L272 244 L281 245 L286 241 L281 238 L296 220 L297 185 L294 175 L288 174 L291 162 L288 151 L284 151 L283 140 L273 156 L275 147 L258 124 Z M283 220 L285 219 L286 222 L284 223 Z M246 224 L247 219 L253 220 L253 222 L250 225 Z M224 220 L226 219 L227 222 L225 223 Z M218 212 L220 211 L221 213 L219 214 Z M255 139 L265 149 L269 159 L282 168 L283 177 L288 178 L292 185 L292 199 L289 202 L289 207 L284 208 L283 203 L276 196 L280 190 L279 182 L276 179 L266 181 L264 192 L269 199 L266 203 L263 200 L259 201 L258 218 L264 220 L264 226 L260 225 L256 219 L252 219 L251 201 L247 200 L244 203 L241 199 L247 192 L247 184 L242 179 L238 178 L232 181 L230 188 L234 196 L228 202 L226 210 L221 207 L221 202 L218 198 L218 186 L221 179 L227 177 L228 169 L241 159 L246 152 L245 149 Z M255 129 L257 130 L256 134 L253 133 Z M156 113 L154 124 L138 147 L140 156 L135 157 L131 144 L125 152 L124 174 L119 176 L115 190 L115 211 L121 228 L131 238 L126 239 L127 242 L158 250 L187 242 L184 238 L199 218 L200 189 L197 178 L191 174 L194 163 L186 143 L177 156 L178 149 L172 138 L168 138 Z M160 228 L166 227 L167 229 L162 231 Z M148 228 L154 227 L155 229 L151 231 Z M121 212 L123 211 L124 213 L122 214 Z M158 140 L160 145 L167 150 L171 161 L185 170 L186 178 L190 178 L194 185 L195 198 L192 199 L191 202 L188 202 L185 211 L188 227 L184 232 L182 231 L180 203 L184 199 L184 194 L178 183 L178 178 L137 178 L137 183 L131 194 L131 200 L135 206 L132 225 L134 232 L131 233 L126 227 L129 210 L126 203 L120 198 L122 181 L125 178 L129 178 L130 170 L143 161 L147 151 Z M155 131 L158 130 L159 132 L156 133 Z"/></svg>
