<svg xmlns="http://www.w3.org/2000/svg" width="512" height="512" viewBox="0 0 512 512" aria-hidden="true" focusable="false"><path fill="currentColor" fill-rule="evenodd" clip-rule="evenodd" d="M22 435 L22 436 L493 436 L493 435 Z M415 366 L416 369 L415 375 L418 372 L421 375 L423 375 L425 372 L427 372 L429 375 L430 374 L435 375 L437 373 L440 375 L442 374 L451 375 L460 373 L459 364 L456 363 L451 364 L449 367 L446 366 L446 363 L441 363 L438 366 L433 363 L426 364 L425 366 L418 363 Z M424 367 L426 366 L427 368 L425 369 Z M336 365 L337 374 L345 375 L347 372 L349 372 L350 375 L352 373 L357 375 L359 372 L361 372 L363 375 L364 374 L369 375 L371 373 L370 371 L371 365 L367 363 L365 364 L338 363 Z M358 367 L360 366 L361 368 L359 369 Z M233 366 L235 375 L236 374 L241 375 L243 372 L245 373 L245 375 L247 374 L254 375 L256 372 L259 375 L260 374 L264 375 L267 374 L269 375 L277 374 L278 375 L279 374 L278 372 L279 365 L276 363 L271 363 L269 366 L264 363 L262 364 L247 363 L245 365 L239 363 L234 364 Z M255 367 L257 366 L258 368 L256 369 Z M140 365 L141 375 L143 372 L146 375 L148 372 L151 372 L153 375 L158 374 L164 375 L172 374 L173 375 L174 374 L173 372 L174 365 L171 363 L166 363 L163 367 L161 366 L160 363 L152 363 L150 365 L148 365 L147 363 L143 365 L141 363 Z M160 369 L162 368 L163 370 L161 371 Z M51 367 L52 375 L56 374 L58 375 L62 373 L66 373 L68 375 L73 374 L75 375 L83 374 L84 375 L85 374 L84 372 L85 365 L82 363 L80 364 L77 363 L76 365 L64 363 L63 366 L60 365 L59 363 L53 363 Z M61 369 L63 368 L64 370 L62 371 Z M157 329 L157 331 L160 332 L160 330 Z M354 305 L348 311 L348 313 L346 314 L346 317 L349 320 L351 318 L356 319 L357 321 L353 322 L353 324 L356 325 L358 323 L357 320 L358 314 L360 313 L361 317 L363 317 L364 315 L361 311 L358 312 L353 310 L355 307 Z M354 313 L356 314 L355 318 L352 316 Z M348 314 L350 313 L351 316 L349 317 Z M466 278 L461 286 L455 289 L454 296 L448 298 L447 302 L439 308 L442 312 L438 313 L436 311 L436 323 L438 328 L443 332 L450 331 L455 325 L454 319 L450 316 L445 317 L442 323 L440 322 L440 318 L445 312 L453 312 L459 317 L460 329 L458 334 L460 340 L458 341 L455 337 L448 339 L437 337 L433 333 L431 325 L432 318 L430 318 L420 327 L420 332 L410 339 L404 348 L450 348 L455 345 L457 348 L467 348 L467 308 L465 307 L467 304 Z M418 342 L421 341 L422 344 L419 346 Z M463 340 L465 341 L464 346 L460 344 Z M430 338 L432 337 L433 339 L431 340 Z M416 336 L420 335 L421 337 L417 338 Z M422 333 L424 332 L425 334 L423 335 Z M463 321 L465 322 L464 326 L462 325 Z M460 308 L461 311 L458 313 L457 311 Z M463 300 L465 299 L466 301 L464 302 Z M459 299 L461 298 L462 300 L460 301 Z M458 290 L463 289 L465 293 L461 294 Z M353 278 L345 286 L341 296 L335 295 L336 301 L328 307 L322 316 L328 323 L328 319 L331 318 L334 323 L339 325 L338 327 L332 327 L336 330 L336 335 L342 335 L345 342 L350 347 L351 345 L346 340 L346 336 L348 338 L352 337 L354 339 L358 337 L362 338 L363 336 L365 337 L364 340 L358 345 L358 347 L353 350 L356 351 L357 348 L365 342 L367 336 L373 335 L373 330 L382 323 L384 320 L382 315 L384 314 L385 316 L387 316 L387 314 L384 311 L379 312 L378 309 L375 307 L371 307 L368 318 L371 321 L371 324 L374 325 L373 327 L369 326 L364 321 L364 324 L360 325 L360 327 L364 331 L363 334 L360 334 L359 331 L352 330 L350 333 L345 332 L349 326 L346 325 L344 321 L341 325 L339 324 L339 321 L342 318 L342 313 L340 311 L337 311 L336 307 L333 308 L333 305 L339 304 L343 309 L345 309 L345 306 L349 304 L345 300 L346 297 L349 297 L351 300 L358 300 L360 296 L365 297 L364 301 L360 303 L360 305 L362 305 L364 309 L367 309 L367 306 L370 304 L377 305 L377 303 L373 301 L373 295 L367 295 L366 288 L363 284 L361 284 L363 290 L359 293 L355 292 L355 284 L352 286 L352 288 L354 289 L352 292 L346 289 L355 279 Z M352 333 L356 332 L357 335 L354 337 Z M366 328 L368 327 L371 330 L371 332 L369 333 L366 330 Z M343 327 L344 328 L343 332 L339 334 L338 331 Z M374 324 L376 323 L377 325 L375 326 Z M377 321 L379 320 L380 322 L378 323 Z M379 318 L381 317 L382 319 L380 320 Z M333 318 L335 317 L336 319 L334 320 Z M325 315 L327 314 L328 316 L326 317 Z M371 314 L373 313 L378 318 L374 321 L373 318 L371 317 Z M335 314 L338 313 L339 317 L336 318 Z M380 313 L382 312 L383 314 L381 315 Z M330 308 L334 311 L332 317 L327 314 Z M372 298 L371 301 L366 305 L365 304 L366 300 L369 297 Z M338 298 L341 297 L344 302 L341 303 L338 300 Z M354 293 L357 295 L356 298 L352 297 Z M344 294 L346 293 L347 296 L345 297 Z M362 292 L364 291 L365 293 L363 294 Z M257 278 L248 287 L244 286 L242 288 L240 298 L233 298 L227 303 L228 307 L226 310 L230 316 L228 325 L235 329 L241 328 L241 336 L244 342 L250 343 L256 349 L264 344 L265 341 L267 343 L270 341 L272 330 L282 328 L285 324 L281 320 L284 316 L287 317 L289 315 L285 307 L286 303 L280 298 L273 298 L271 288 L265 285 L262 288 Z M247 335 L251 336 L252 339 L249 340 L246 338 Z M260 333 L261 336 L259 337 L259 340 L256 341 L255 336 Z M267 332 L268 335 L265 338 L264 336 L265 333 Z M261 322 L264 323 L265 330 L263 332 L257 329 L257 326 Z M252 322 L255 325 L255 327 L252 328 L251 331 L249 331 L248 328 L250 323 Z M232 316 L235 315 L238 320 L235 321 Z M281 314 L282 316 L279 318 L278 316 Z M230 314 L232 313 L233 315 L231 316 Z M274 313 L276 312 L277 314 L275 315 Z M236 313 L238 312 L239 314 L237 315 Z M277 311 L280 310 L281 312 L278 313 Z M256 310 L260 313 L258 317 L255 317 L253 315 L253 313 Z M250 308 L252 307 L253 309 L251 310 Z M234 308 L236 307 L237 310 L235 311 Z M271 306 L273 313 L271 315 L272 319 L266 321 L265 316 L267 315 L267 313 L264 308 Z M242 306 L246 306 L249 308 L246 312 L246 315 L248 316 L247 321 L241 319 L242 317 L241 307 Z M256 305 L258 304 L259 306 L257 307 Z M235 304 L238 303 L239 306 L236 307 Z M251 299 L253 297 L259 297 L260 299 L263 300 L263 304 L259 305 L257 301 L252 305 Z M267 297 L269 296 L270 298 L268 299 Z M243 295 L245 294 L246 296 L244 297 Z M251 292 L253 291 L254 293 L252 294 Z M259 292 L262 290 L264 291 L263 294 L260 294 Z M263 289 L265 288 L266 290 L264 291 Z M255 289 L258 288 L259 290 L256 291 Z M128 288 L130 301 L128 321 L131 327 L137 322 L139 328 L135 329 L135 331 L142 333 L139 340 L136 339 L133 341 L132 347 L147 347 L149 339 L152 336 L163 335 L166 336 L166 339 L159 342 L159 347 L185 347 L186 341 L184 338 L192 331 L192 324 L184 316 L186 308 L183 306 L183 303 L180 302 L175 305 L174 317 L162 317 L158 312 L160 307 L160 288 L155 289 L153 282 L147 277 L143 282 L143 290 L138 291 L138 301 L140 302 L141 311 L137 317 L132 312 L134 296 L130 288 Z M168 343 L178 342 L176 338 L180 337 L185 344 L184 345 L169 345 Z M180 321 L187 320 L188 322 L186 326 L184 327 Z M131 316 L134 317 L134 320 L132 322 L130 321 Z M176 311 L178 310 L179 312 L177 313 Z M181 309 L183 308 L185 311 L182 312 Z M135 344 L136 342 L140 342 L142 340 L145 329 L148 326 L150 326 L150 324 L146 324 L143 328 L141 328 L139 325 L139 317 L146 308 L149 309 L149 312 L155 311 L156 315 L148 318 L144 318 L142 320 L152 319 L154 317 L156 318 L156 320 L158 320 L160 317 L171 318 L178 320 L181 323 L183 328 L183 333 L181 335 L175 336 L174 339 L170 339 L166 336 L166 329 L169 326 L177 327 L179 329 L180 328 L177 324 L175 325 L169 324 L165 326 L163 333 L161 335 L155 335 L154 328 L156 327 L156 324 L154 323 L154 327 L152 328 L152 333 L149 336 L145 345 Z M145 293 L147 297 L141 298 L140 296 Z M157 291 L158 293 L156 302 L150 306 L147 306 L146 304 L150 302 L149 297 L152 295 L153 292 Z M148 280 L150 281 L149 284 L146 283 Z M67 274 L66 292 L62 309 L57 319 L55 330 L48 332 L49 338 L47 339 L46 343 L42 345 L42 350 L94 350 L95 346 L88 338 L89 332 L82 330 L79 319 L76 315 L70 286 L70 274 Z M67 341 L69 340 L70 343 L68 344 Z M48 342 L50 340 L63 340 L64 341 L63 344 L49 344 Z M70 334 L76 333 L77 337 L75 338 L75 340 L86 340 L89 343 L88 344 L74 344 L70 337 Z M60 337 L61 333 L65 334 L63 338 Z M73 327 L78 326 L80 330 L74 331 Z M56 329 L58 326 L64 327 L63 331 L57 331 Z M67 326 L69 325 L70 327 L68 328 Z M59 319 L62 316 L75 316 L78 319 L78 323 L71 324 L69 321 L67 321 L65 324 L60 324 Z M68 294 L70 295 L69 299 L67 298 Z M34 241 L34 247 L39 247 L40 242 L42 243 L42 247 L55 247 L56 246 L68 247 L68 242 L66 240 L64 241 L58 240 L47 241 L46 240 L44 242 L42 240 L39 242 L37 240 Z M436 238 L436 248 L438 247 L455 248 L456 247 L454 245 L456 240 L453 238 L450 239 L448 238 L446 240 L443 238 Z M351 238 L352 240 L351 248 L356 247 L370 248 L371 247 L369 245 L371 240 L368 238 L365 239 L363 238 L361 241 L357 238 Z M348 239 L345 238 L340 241 L340 246 L342 248 L346 247 L347 242 L349 241 Z M247 239 L248 242 L247 248 L249 247 L265 248 L266 246 L268 248 L273 247 L277 248 L276 245 L277 240 L274 238 L269 238 L268 240 L265 238 Z M253 242 L256 241 L257 243 L254 244 Z M237 238 L236 245 L239 248 L243 247 L245 244 L244 238 Z M140 242 L141 247 L149 248 L150 245 L152 246 L152 248 L160 247 L166 248 L169 247 L170 243 L172 244 L173 248 L181 248 L181 238 L172 239 L141 238 Z M159 244 L161 243 L162 246 L160 247 Z M149 241 L151 240 L152 242 L150 243 Z M159 240 L161 239 L162 242 L160 243 Z M72 241 L73 248 L79 246 L105 248 L106 246 L106 241 L104 238 L103 239 L87 238 L85 241 L82 241 L80 238 L78 240 L73 239 Z M101 243 L103 242 L104 244 L102 245 Z M75 240 L77 241 L76 247 L74 246 Z M274 199 L273 205 L275 207 L280 207 L282 205 L282 200 L279 198 Z M275 201 L279 200 L280 203 L277 205 Z M129 197 L130 200 L133 201 L132 198 Z M218 210 L221 214 L232 214 L240 218 L248 215 L259 218 L268 214 L281 216 L288 209 L297 209 L302 205 L302 202 L297 202 L289 198 L283 189 L276 188 L272 178 L273 188 L267 196 L263 196 L259 193 L258 188 L261 185 L264 187 L264 190 L266 189 L266 186 L260 183 L257 185 L255 193 L248 196 L245 191 L241 191 L239 196 L244 193 L246 195 L243 200 L236 200 L233 197 L233 191 L239 185 L247 185 L250 178 L256 174 L268 175 L264 172 L257 172 L252 174 L245 183 L242 182 L236 184 L232 188 L230 195 L222 197 L218 201 Z M226 196 L230 196 L233 200 L232 202 L229 202 L226 205 L227 208 L229 205 L233 206 L233 210 L228 214 L223 213 L220 208 L220 203 L222 199 Z M265 198 L265 208 L267 212 L262 216 L255 216 L252 214 L254 207 L249 202 L246 203 L245 209 L247 205 L250 205 L251 210 L245 216 L238 216 L234 213 L235 211 L235 205 L233 204 L234 201 L241 203 L245 201 L248 197 L251 197 L253 195 L258 195 Z M266 200 L276 190 L280 190 L285 194 L286 199 L291 200 L296 206 L293 208 L287 207 L284 213 L279 215 L274 215 L267 209 Z M126 193 L127 195 L133 192 L139 193 L140 203 L135 203 L128 212 L128 214 L132 216 L144 217 L152 215 L161 223 L153 213 L153 208 L155 206 L160 208 L166 206 L168 208 L168 213 L164 219 L170 214 L177 217 L194 214 L192 210 L190 210 L190 214 L183 216 L175 215 L170 212 L171 210 L180 210 L174 207 L175 205 L187 207 L196 193 L183 189 L182 175 L168 179 L161 168 L153 179 L139 176 L139 189 Z M151 211 L150 213 L143 216 L139 216 L131 213 L131 211 L135 207 L145 205 L147 206 L147 208 L142 210 Z M167 203 L169 202 L170 204 L168 205 Z M151 203 L153 202 L154 204 L152 205 Z M193 194 L185 204 L180 203 L181 201 L185 199 L182 197 L182 194 L184 192 L189 192 Z M145 186 L149 188 L149 198 L150 199 L149 202 L146 201 L144 196 Z M160 182 L162 183 L165 191 L165 201 L162 205 L159 205 L156 201 L156 191 Z M140 186 L142 178 L145 178 L151 182 L150 184 L147 184 L146 182 L144 182 L142 187 Z M180 177 L182 181 L182 188 L181 189 L179 188 L179 184 L177 182 L174 183 L174 185 L177 186 L178 193 L175 201 L171 203 L170 201 L172 198 L172 186 L170 185 L170 182 Z M160 172 L162 173 L170 191 L169 198 L167 197 L167 191 L161 179 L159 180 L155 188 L154 197 L153 198 L151 197 L152 187 Z M323 205 L323 207 L325 207 L332 202 L338 202 L340 204 L339 206 L331 206 L326 209 L326 211 L334 207 L341 209 L344 206 L344 215 L337 211 L332 212 L337 213 L346 219 L351 219 L358 214 L366 214 L371 218 L379 218 L393 210 L385 206 L383 209 L387 208 L390 211 L381 213 L379 206 L383 203 L389 203 L396 207 L396 205 L387 200 L377 205 L373 205 L367 199 L372 195 L365 195 L362 191 L362 186 L365 180 L371 176 L374 176 L383 187 L387 188 L384 192 L378 193 L374 189 L374 183 L370 181 L367 184 L367 188 L369 190 L373 190 L374 194 L382 195 L393 188 L386 186 L377 176 L370 175 L368 170 L363 166 L354 167 L350 174 L342 176 L336 185 L336 189 L339 193 L343 195 L350 193 L355 200 L354 202 L360 206 L359 208 L355 207 L351 209 L350 207 L352 204 L346 205 L339 200 L331 200 L327 204 Z M347 216 L350 215 L351 217 L348 218 Z M368 212 L371 211 L372 214 L370 215 Z M347 211 L349 210 L352 213 L348 214 Z M360 210 L363 209 L364 211 L361 212 Z M354 210 L358 209 L359 211 L356 213 Z M368 203 L371 206 L369 209 L366 208 Z M359 201 L363 200 L364 202 L360 203 Z M369 185 L372 184 L373 187 L370 188 Z M341 178 L345 176 L349 176 L352 179 L352 181 L359 183 L360 192 L363 197 L356 198 L353 195 L353 192 L351 191 L351 184 L349 182 L345 182 L343 184 L344 188 L346 188 L347 184 L350 185 L349 191 L346 193 L341 192 L338 188 Z M351 173 L357 168 L362 168 L367 173 L367 176 L363 179 L360 173 L356 173 L355 177 L357 177 L358 175 L360 177 L358 180 L355 180 L351 178 Z M70 154 L67 155 L63 166 L56 173 L57 185 L64 193 L63 199 L52 211 L49 209 L51 206 L50 202 L56 197 L53 178 L49 182 L48 187 L53 186 L55 196 L53 197 L50 194 L45 195 L44 192 L46 189 L44 189 L37 203 L38 211 L43 218 L58 224 L66 223 L67 220 L70 220 L71 222 L67 227 L73 223 L79 224 L83 221 L93 219 L88 219 L87 217 L92 214 L93 211 L90 210 L90 207 L95 205 L96 199 L98 200 L98 209 L95 215 L99 211 L99 199 L94 189 L79 174 Z M74 220 L76 219 L77 221 L75 222 Z M58 220 L62 219 L63 221 L59 222 Z M71 218 L73 217 L74 219 L72 220 Z M47 217 L49 216 L50 218 L48 219 Z M55 215 L57 216 L56 219 L53 218 Z M66 213 L70 212 L71 214 L67 215 Z M75 214 L79 211 L80 214 L84 218 L79 219 L76 217 Z M57 211 L59 210 L64 216 L63 217 L58 216 Z M74 210 L76 206 L79 207 L76 211 Z M59 207 L61 206 L63 210 L60 211 Z M74 202 L76 203 L75 207 L73 206 Z M40 202 L42 203 L42 205 L45 205 L47 207 L47 211 L45 212 L44 215 L42 214 L39 207 Z M67 199 L69 198 L71 201 L68 202 Z M89 197 L92 193 L95 195 L94 197 L91 198 Z M88 187 L92 191 L92 193 L87 194 L86 197 L84 198 L83 192 L85 191 L85 188 Z M62 188 L66 187 L68 192 L66 193 L65 191 L62 190 Z M82 181 L84 183 L83 188 L81 189 L82 193 L81 198 L86 202 L86 205 L88 207 L87 211 L83 209 L83 205 L80 205 L74 199 L74 192 L78 190 L78 187 Z M68 180 L71 183 L73 183 L75 186 L75 188 L71 193 L69 192 L70 185 L68 185 L67 187 L65 186 Z M62 176 L63 178 L61 182 L59 183 L57 178 L59 176 Z M65 176 L67 175 L68 178 L66 179 Z M68 160 L78 172 L78 177 L80 178 L80 181 L77 186 L75 185 L76 179 L74 178 L74 174 L70 170 L70 168 L68 168 L68 170 L63 176 L61 175 L61 172 L66 166 Z M444 153 L441 164 L446 170 L441 174 L438 172 L438 168 L434 176 L435 183 L440 189 L440 198 L438 201 L440 209 L438 210 L436 207 L432 206 L431 201 L435 199 L435 190 L432 189 L432 183 L428 178 L427 183 L419 194 L418 203 L423 213 L428 213 L426 215 L427 217 L434 218 L435 221 L441 223 L444 229 L446 229 L452 222 L456 221 L457 218 L463 217 L470 211 L472 206 L472 196 L468 188 L464 190 L461 187 L464 185 L462 178 L459 181 L459 187 L455 192 L456 198 L460 201 L460 207 L457 208 L455 206 L454 210 L451 209 L453 201 L450 191 L455 185 L457 178 L455 170 L450 165 L446 153 Z M451 213 L454 212 L455 214 L452 215 Z M437 213 L440 212 L441 214 L438 215 Z M461 208 L462 211 L458 213 L457 211 Z M431 208 L433 209 L432 213 L430 212 Z M446 201 L447 200 L450 201 L451 204 L448 206 Z M461 199 L465 198 L466 201 L462 203 Z M420 198 L422 197 L423 199 L421 200 Z M467 196 L469 195 L470 197 L468 198 Z M444 196 L446 195 L447 197 L445 198 Z M461 194 L463 193 L464 195 L462 196 Z M459 191 L460 193 L457 196 L456 194 Z M465 191 L467 190 L469 194 L467 195 Z M430 190 L432 189 L433 191 L431 192 Z M449 178 L450 179 L449 189 L448 190 L446 188 L442 189 L441 180 L443 179 L444 182 L446 182 L447 179 Z M109 102 L111 116 L123 124 L390 124 L398 121 L405 111 L403 99 L393 91 L121 91 Z M281 112 L283 111 L284 114 L282 115 Z M175 110 L177 109 L178 112 L176 113 Z M270 107 L272 106 L273 108 L271 109 Z M375 106 L378 105 L381 111 L377 112 Z M162 106 L164 105 L165 107 L163 108 Z M251 104 L253 108 L249 110 L248 108 L249 105 Z M310 104 L312 103 L313 105 L311 106 Z M279 104 L281 103 L282 105 L280 106 Z M210 104 L212 103 L213 106 L211 107 Z M185 102 L188 104 L187 110 L185 109 L184 104 Z M330 102 L332 101 L334 104 L331 105 Z M169 101 L178 100 L179 104 L170 105 Z M139 101 L141 100 L142 102 L140 103 Z M498 81 L498 429 L500 428 L500 82 Z M16 81 L16 429 L18 430 L18 80 Z"/></svg>
