<svg xmlns="http://www.w3.org/2000/svg" width="512" height="512" viewBox="0 0 512 512" aria-hidden="true" focusable="false"><path fill="currentColor" fill-rule="evenodd" clip-rule="evenodd" d="M276 490 L275 492 L276 494 L279 494 L280 491 Z M230 493 L230 497 L239 497 L239 493 L237 491 L243 490 L244 497 L264 497 L264 491 L266 490 L267 497 L271 497 L271 490 L269 489 L268 486 L255 486 L254 487 L246 486 L245 488 L242 486 L238 486 L237 489 L234 490 L233 493 Z M248 491 L250 490 L251 492 L249 493 Z M375 484 L375 486 L379 488 L379 492 L375 494 L376 497 L384 497 L386 490 L391 496 L397 490 L397 485 L395 483 L392 483 L390 485 L384 483 Z M286 483 L286 486 L291 488 L291 490 L286 494 L286 497 L292 497 L293 490 L296 490 L297 494 L301 494 L302 497 L306 497 L307 490 L311 493 L310 495 L311 497 L314 497 L317 492 L319 493 L320 497 L325 497 L327 491 L330 488 L332 488 L333 491 L336 492 L337 495 L339 496 L341 495 L342 490 L346 490 L347 495 L349 496 L351 495 L352 492 L355 492 L356 495 L358 496 L361 494 L367 494 L369 497 L372 497 L372 483 L369 483 L366 486 L363 486 L362 483 L353 483 L352 488 L347 488 L346 483 L342 483 L341 485 L338 484 L336 488 L334 487 L333 484 L328 483 L319 484 L309 483 L308 485 L305 483 L302 483 L297 488 L295 487 L295 483 Z M318 492 L319 487 L325 488 L322 492 L320 493 Z M227 490 L223 489 L224 487 L223 483 L220 483 L219 486 L213 486 L210 490 L208 489 L207 486 L198 486 L196 484 L192 486 L166 486 L164 484 L159 486 L156 484 L154 486 L149 487 L149 496 L158 497 L159 491 L161 490 L162 497 L165 497 L167 495 L169 496 L172 494 L176 494 L178 497 L181 497 L182 490 L187 494 L190 494 L190 491 L192 490 L193 497 L197 497 L197 491 L199 490 L200 497 L209 497 L215 495 L215 491 L219 490 L220 492 L218 493 L218 497 L223 497 L223 495 L227 493 Z M204 491 L206 490 L207 492 L205 493 Z M123 488 L123 491 L126 494 L131 495 L132 497 L136 497 L137 490 L139 491 L139 497 L146 495 L146 486 L137 486 L136 483 L132 483 L131 486 L126 486 Z M24 384 L24 422 L30 424 L24 431 L30 432 L32 450 L24 449 L24 471 L489 471 L489 391 L479 411 L458 434 L458 446 L469 450 L468 456 L450 448 L455 433 L437 388 L433 388 L424 420 L416 430 L421 448 L410 455 L413 436 L390 412 L378 384 L363 412 L342 432 L344 454 L340 455 L332 448 L337 430 L329 420 L320 388 L316 388 L297 437 L274 411 L259 384 L246 412 L232 423 L224 439 L204 388 L200 388 L191 420 L183 430 L186 448 L177 455 L180 436 L157 412 L142 384 L130 412 L107 436 L111 449 L107 455 L99 448 L104 441 L103 427 L96 420 L87 388 L83 388 L65 433 L71 448 L52 456 L50 451 L62 446 L62 434 L41 411 L29 385 Z M362 465 L364 464 L365 466 L363 467 Z M129 465 L131 464 L132 466 L130 467 Z M364 463 L366 462 L367 464 L365 465 Z M153 463 L155 462 L156 464 L154 465 Z M441 460 L442 459 L446 460 L447 464 L442 465 Z M306 461 L311 459 L312 464 L307 465 Z M208 460 L209 459 L213 460 L214 464 L209 465 Z M73 461 L78 459 L79 464 L74 465 Z M429 457 L430 464 L424 465 L423 461 L427 457 Z M323 458 L326 457 L330 461 L330 464 L324 465 Z M196 457 L197 464 L191 465 L190 461 L194 457 Z M90 458 L93 457 L97 461 L97 464 L91 465 Z M399 451 L404 450 L405 455 L401 456 Z M348 451 L353 450 L354 451 L353 455 L350 456 L348 454 Z M283 454 L284 450 L290 451 L287 456 Z M230 451 L236 450 L237 454 L233 456 Z M166 451 L171 450 L172 454 L168 456 Z M115 451 L120 450 L121 451 L120 455 L116 456 Z M469 449 L471 448 L472 450 L470 451 Z M48 449 L50 448 L51 450 L49 451 Z M282 446 L284 447 L283 451 L281 450 Z M237 446 L239 447 L238 451 L236 450 Z M299 439 L300 444 L304 448 L297 451 L297 453 L295 454 L292 449 L295 446 L297 440 Z M221 439 L223 440 L225 446 L228 449 L225 454 L223 453 L223 451 L217 448 L220 444 Z M373 431 L381 432 L381 448 L382 449 L381 453 L379 452 L379 449 L376 449 L373 453 L371 452 L372 432 Z M258 431 L263 432 L263 439 L265 440 L265 450 L264 451 L261 449 L257 451 L255 450 L255 440 L257 439 Z M140 431 L148 432 L148 448 L149 449 L148 453 L144 449 L141 449 L140 453 L138 452 L139 432 Z M480 425 L482 426 L481 430 L479 429 Z M386 426 L388 425 L389 427 L387 428 Z M364 426 L366 425 L367 427 L365 428 Z M272 425 L274 426 L273 430 L271 429 Z M247 425 L249 426 L248 430 L246 429 Z M153 426 L155 425 L156 427 L154 428 Z M39 425 L41 426 L40 430 L38 429 Z M374 424 L378 423 L379 426 L375 427 Z M141 424 L145 423 L146 426 L142 427 Z M257 424 L261 422 L263 426 L258 427 Z M436 420 L437 424 L433 425 L432 423 Z M316 421 L318 420 L321 424 L317 425 Z M203 420 L204 424 L200 425 L199 423 Z M83 421 L85 420 L88 424 L84 425 Z M34 313 L43 318 L66 315 L83 327 L102 329 L106 316 L101 314 L113 311 L114 317 L109 321 L116 323 L114 328 L148 346 L173 345 L187 336 L190 338 L186 346 L201 345 L214 332 L221 334 L224 327 L229 327 L251 345 L254 354 L249 363 L259 380 L271 363 L266 354 L269 345 L291 327 L296 327 L299 334 L306 332 L319 345 L334 346 L330 338 L333 336 L347 345 L372 346 L405 329 L404 323 L411 321 L406 317 L407 311 L419 314 L414 316 L418 329 L437 327 L454 315 L486 316 L485 312 L471 314 L463 309 L439 307 L435 311 L423 302 L411 302 L399 309 L378 305 L355 307 L348 313 L343 307 L340 314 L302 309 L274 324 L262 297 L258 297 L246 324 L223 309 L180 314 L177 307 L173 311 L142 305 L123 309 L109 302 L97 302 L85 311 L78 307 Z M374 329 L375 331 L372 333 L371 331 Z M145 330 L147 329 L149 332 L147 333 Z M334 328 L337 327 L338 325 L341 325 L344 333 L342 334 L341 332 L338 332 Z M306 324 L309 323 L312 327 L307 330 Z M211 323 L214 324 L213 330 L208 327 Z M180 323 L186 329 L177 334 L176 331 L178 330 L178 324 Z M382 317 L384 319 L384 322 L377 328 L376 323 L379 320 L379 318 Z M138 317 L140 317 L144 323 L143 328 L136 322 L136 319 Z M222 190 L216 190 L216 196 L212 201 L211 208 L207 211 L206 229 L200 230 L200 236 L193 248 L197 264 L211 270 L211 276 L216 285 L219 285 L227 276 L228 269 L233 269 L239 265 L245 251 L243 243 L237 236 L237 228 L232 227 L232 220 L227 204 L223 199 Z M216 270 L220 269 L221 271 L217 272 Z M232 249 L234 248 L235 250 L233 251 Z M230 247 L232 246 L233 248 L231 249 Z M206 246 L207 247 L206 250 L203 251 L202 249 Z M217 227 L221 229 L220 235 L215 234 Z M281 188 L279 196 L258 232 L256 254 L264 267 L276 270 L277 281 L284 285 L290 276 L290 270 L297 269 L306 260 L309 242 L306 231 L285 194 L285 188 Z M148 184 L142 192 L142 200 L144 201 L142 212 L137 215 L127 235 L130 258 L141 274 L148 278 L149 281 L170 287 L189 287 L190 283 L177 281 L165 276 L153 264 L148 254 L148 247 L151 243 L155 244 L157 251 L165 251 L169 248 L171 242 L171 234 L169 233 L164 213 L160 211 L157 201 L150 196 L152 185 Z M328 179 L328 219 L335 238 L335 262 L349 281 L362 287 L392 287 L398 283 L405 287 L436 287 L458 271 L464 244 L463 228 L469 221 L468 179 L452 212 L440 220 L426 239 L424 250 L431 259 L427 267 L421 260 L413 259 L420 252 L421 237 L411 222 L400 183 L396 184 L386 220 L381 221 L382 227 L375 238 L377 251 L384 259 L376 260 L370 267 L366 259 L372 253 L371 240 L360 223 L346 213 L332 179 Z M414 272 L416 271 L417 273 L415 274 Z M379 272 L382 271 L383 273 L380 274 Z M404 270 L408 269 L414 274 L414 276 L411 279 L407 279 L406 273 Z M392 269 L393 271 L391 272 L391 278 L386 279 L383 274 L389 269 Z M374 267 L376 266 L377 268 L375 269 Z M397 259 L399 258 L400 261 L398 262 Z M441 257 L442 262 L440 266 L436 268 L434 266 L434 261 Z M356 253 L358 254 L358 258 L363 261 L362 269 L358 266 L357 262 L355 261 Z M409 238 L411 237 L412 240 L410 241 Z M452 227 L456 231 L456 233 L453 235 L451 234 Z M344 225 L346 226 L345 235 L341 233 Z M397 221 L399 220 L402 225 L398 226 Z M50 179 L50 220 L55 228 L53 233 L57 239 L57 262 L60 269 L76 285 L84 287 L114 287 L120 283 L120 274 L118 272 L113 272 L113 278 L107 279 L99 269 L90 266 L87 259 L94 251 L92 239 L88 236 L89 234 L82 224 L67 213 L68 210 L64 208 L64 202 L59 196 L59 190 L55 187 L54 180 Z M77 253 L79 254 L79 258 L85 261 L85 267 L83 269 L80 268 L76 260 Z M65 225 L67 226 L66 235 L62 232 L64 230 Z M447 145 L447 156 L455 164 L460 165 L462 167 L475 167 L482 162 L484 162 L486 156 L488 155 L488 148 L482 140 L475 141 L475 152 L471 154 L461 155 L455 148 L456 139 L451 139 Z M433 137 L433 147 L431 149 L431 163 L435 167 L440 167 L442 163 L444 162 L444 158 L442 156 L438 156 L435 153 L437 149 L437 137 Z M415 135 L412 137 L412 140 L409 146 L409 155 L411 156 L410 159 L414 165 L418 167 L426 167 L427 164 L421 161 L418 157 L420 139 L418 138 L417 135 Z M383 135 L382 140 L384 144 L386 145 L386 148 L388 149 L388 153 L400 165 L404 165 L404 162 L400 159 L399 155 L397 154 L397 151 L395 150 L393 146 L392 139 L387 137 L386 135 Z M369 135 L367 142 L367 158 L371 164 L378 165 L378 143 L374 140 L374 137 L372 135 Z M336 133 L333 134 L332 139 L330 141 L330 145 L328 146 L326 150 L326 159 L330 165 L334 165 L334 156 L336 154 L337 145 L339 144 L339 137 L337 136 Z M359 133 L353 132 L353 136 L351 137 L349 143 L344 149 L344 152 L342 153 L342 160 L344 161 L344 165 L348 165 L362 151 L364 147 L364 141 L362 140 L362 137 L360 136 Z M307 132 L307 135 L311 139 L310 141 L311 143 L309 144 L307 148 L307 154 L311 160 L312 165 L316 165 L323 151 L323 142 L314 132 Z M285 130 L284 138 L279 144 L279 155 L281 156 L281 160 L286 165 L290 167 L295 167 L295 163 L292 163 L288 159 L288 156 L286 155 L287 153 L286 149 L289 146 L292 148 L295 148 L295 137 L288 130 Z M257 125 L253 128 L242 143 L242 156 L244 160 L253 167 L263 167 L265 165 L270 164 L273 161 L274 156 L276 155 L276 146 L274 145 L274 141 L264 129 L264 127 L262 125 Z M214 116 L213 122 L207 127 L206 130 L202 132 L200 138 L195 142 L195 145 L193 146 L193 153 L201 164 L206 166 L208 165 L209 167 L223 167 L234 162 L234 159 L237 156 L237 142 L236 139 L232 138 L229 130 L226 130 L222 126 L222 123 L218 120 L218 116 Z M171 116 L169 125 L163 132 L162 136 L160 137 L160 140 L156 145 L156 157 L160 161 L160 165 L164 165 L172 157 L175 157 L183 165 L187 165 L187 161 L190 156 L190 146 L188 145 L188 141 L183 136 L183 132 L178 126 L178 123 L176 122 L174 116 Z M129 116 L127 122 L123 125 L118 136 L114 138 L113 143 L111 144 L111 147 L107 152 L107 159 L113 167 L123 167 L124 164 L122 162 L122 158 L124 154 L131 148 L139 159 L139 161 L137 162 L137 167 L148 167 L152 163 L152 148 L139 131 L139 128 L136 126 L136 123 L134 122 L132 116 Z M90 116 L90 122 L88 123 L85 134 L83 135 L83 138 L81 139 L81 147 L79 148 L79 159 L85 167 L90 167 L89 157 L90 154 L92 153 L95 158 L95 161 L93 162 L93 167 L97 167 L103 161 L104 148 L101 137 L99 136 L99 132 L97 131 L96 125 L94 124 L94 116 Z M57 116 L55 122 L53 123 L53 126 L48 132 L48 136 L44 139 L44 143 L41 148 L41 155 L43 156 L42 158 L44 163 L50 167 L57 167 L58 165 L60 167 L67 167 L71 165 L75 159 L75 145 L71 140 L71 137 L69 136 L64 123 L60 120 L61 117 Z M439 30 L433 36 L433 54 L435 56 L435 60 L437 61 L438 66 L442 70 L442 72 L458 88 L460 88 L464 92 L469 93 L470 95 L473 95 L474 97 L478 97 L482 99 L483 95 L478 95 L477 93 L466 88 L449 71 L448 67 L444 64 L441 55 L441 44 L448 43 L451 41 L451 35 L446 30 Z M239 25 L238 28 L234 30 L230 30 L229 32 L224 33 L219 36 L219 38 L216 41 L216 45 L214 46 L214 52 L212 54 L212 66 L214 68 L214 72 L216 73 L216 76 L218 77 L221 84 L227 90 L234 93 L238 97 L241 97 L243 99 L249 99 L250 95 L244 95 L240 93 L239 91 L236 91 L223 78 L222 73 L220 71 L220 67 L218 66 L218 54 L220 53 L221 50 L224 50 L227 53 L232 53 L239 46 L241 42 L241 35 L243 33 L243 25 Z M108 26 L107 29 L113 33 L114 68 L118 73 L120 79 L133 92 L140 95 L141 97 L147 97 L148 99 L162 99 L162 95 L154 95 L153 93 L144 90 L139 84 L135 83 L132 80 L132 77 L129 75 L129 72 L127 71 L127 67 L125 66 L125 51 L129 49 L131 45 L131 40 L129 36 L119 26 L115 25 Z M297 21 L293 21 L291 29 L280 39 L272 39 L272 43 L269 44 L256 59 L256 73 L260 81 L267 87 L269 92 L272 92 L273 88 L269 82 L267 73 L269 72 L273 76 L284 76 L294 66 L295 58 L297 56 Z M174 21 L176 32 L170 43 L167 44 L167 50 L165 51 L165 55 L163 57 L163 78 L167 86 L176 95 L184 97 L185 99 L190 99 L190 95 L176 80 L174 70 L178 64 L179 70 L181 72 L192 72 L199 63 L199 53 L197 52 L197 48 L190 38 L190 35 L188 35 L185 31 L185 28 L177 21 Z M178 63 L181 60 L184 60 L186 64 L179 65 Z M408 19 L405 20 L405 24 L409 32 L411 33 L410 40 L389 60 L388 64 L386 65 L386 68 L384 69 L384 73 L381 79 L381 92 L385 91 L386 79 L388 77 L388 73 L392 70 L392 68 L401 58 L405 55 L410 55 L411 57 L419 57 L423 51 L423 35 L414 25 L412 25 L409 22 Z M335 17 L333 18 L333 24 L330 27 L330 31 L328 32 L328 38 L323 42 L323 45 L321 46 L321 50 L318 53 L318 57 L309 65 L307 69 L307 81 L309 82 L309 86 L311 88 L312 93 L314 94 L314 97 L318 97 L318 86 L316 85 L316 77 L318 76 L318 73 L319 72 L321 73 L322 78 L329 78 L334 74 L336 70 L337 34 L335 26 L337 25 L337 18 Z M51 18 L44 32 L43 39 L44 65 L51 79 L62 90 L78 97 L84 97 L85 99 L114 97 L114 93 L103 93 L96 89 L93 90 L82 80 L94 74 L96 66 L94 57 L88 49 L76 42 L72 42 L69 37 L62 39 L55 31 L55 18 Z M356 16 L356 21 L358 22 L358 29 L356 30 L353 37 L354 62 L347 71 L347 82 L349 84 L349 88 L351 89 L351 91 L357 97 L360 97 L360 93 L357 91 L357 77 L359 76 L360 79 L369 79 L371 77 L372 67 L371 62 L369 61 L369 58 L367 57 L364 50 L360 46 L360 42 L358 41 L360 39 L360 33 L362 32 L362 22 L360 20 L360 16 Z"/></svg>
