<svg xmlns="http://www.w3.org/2000/svg" width="512" height="512" viewBox="0 0 512 512" aria-hidden="true" focusable="false"><path fill="currentColor" fill-rule="evenodd" clip-rule="evenodd" d="M22 469 L22 500 L491 500 L491 469 Z M72 481 L74 482 L73 491 L71 490 Z M84 455 L94 454 L102 439 L107 453 L133 455 L145 436 L144 448 L151 455 L173 455 L184 441 L190 454 L211 456 L226 440 L230 453 L251 456 L260 451 L268 436 L267 448 L274 455 L296 455 L308 438 L313 454 L333 456 L341 452 L349 438 L352 453 L374 456 L382 452 L391 436 L392 452 L406 455 L413 449 L421 425 L433 416 L415 415 L403 420 L402 416 L392 419 L391 415 L374 415 L362 421 L361 416 L333 415 L321 421 L322 415 L293 415 L280 421 L279 416 L270 419 L269 415 L251 415 L240 421 L238 416 L229 419 L227 415 L201 419 L199 415 L189 419 L187 415 L170 415 L159 420 L157 416 L147 419 L146 415 L129 415 L117 421 L113 416 L94 428 Z M276 448 L279 447 L280 449 L277 450 Z M234 448 L238 447 L239 449 L235 450 Z M129 445 L130 447 L128 451 L126 452 L125 450 L127 446 Z M282 441 L284 440 L285 443 L283 444 Z M337 433 L338 436 L335 447 L333 448 L332 445 L335 434 Z M380 425 L382 424 L383 426 L381 427 Z M400 420 L402 419 L403 421 L401 422 Z M89 402 L102 403 L112 395 L122 403 L140 403 L150 395 L160 403 L178 403 L186 396 L198 403 L217 403 L225 396 L236 403 L255 403 L263 396 L274 403 L293 403 L302 395 L312 403 L330 403 L340 395 L350 403 L369 403 L379 395 L395 403 L405 395 L412 374 L431 363 L401 358 L389 362 L364 358 L132 358 L104 372 L98 392 Z M349 383 L353 383 L356 386 L356 390 L353 393 L349 391 L349 388 L351 387 L348 385 Z M194 384 L195 383 L202 384 L204 386 L203 391 L199 393 L197 391 L198 386 L195 386 Z M417 364 L408 373 L403 391 L398 398 L388 399 L384 397 L382 394 L382 387 L387 383 L392 384 L394 386 L394 390 L391 393 L389 393 L387 391 L389 386 L387 386 L385 388 L386 394 L394 395 L397 392 L398 387 L396 382 L390 379 L383 380 L379 384 L372 398 L369 399 L366 398 L372 377 L379 369 L388 366 L389 367 L388 374 L389 374 L393 369 L400 365 L407 363 Z M379 364 L371 372 L367 381 L364 394 L359 399 L347 398 L343 393 L343 388 L346 384 L348 385 L346 388 L347 394 L356 395 L359 392 L360 386 L358 382 L352 379 L347 379 L343 381 L340 384 L335 396 L331 399 L328 398 L331 391 L332 381 L335 375 L341 369 L350 366 L351 368 L349 373 L351 374 L355 369 L362 365 L369 363 Z M341 364 L333 372 L330 378 L327 392 L322 398 L310 399 L305 393 L305 388 L310 383 L314 383 L318 385 L318 390 L315 393 L311 390 L313 386 L310 386 L308 388 L308 392 L311 395 L318 395 L321 392 L322 385 L318 380 L315 379 L309 379 L305 381 L302 384 L297 396 L294 399 L289 398 L297 375 L303 369 L312 366 L313 367 L311 372 L312 374 L314 373 L315 370 L317 370 L319 367 L330 363 L340 363 Z M302 364 L294 372 L290 382 L287 395 L281 399 L273 399 L268 395 L267 389 L269 385 L272 383 L276 383 L280 386 L280 391 L277 393 L273 390 L275 386 L271 387 L270 391 L273 395 L279 395 L283 391 L282 383 L279 380 L272 379 L265 383 L259 396 L256 399 L251 398 L254 392 L256 381 L259 374 L263 370 L271 366 L274 366 L275 367 L273 373 L274 375 L281 367 L293 363 Z M264 364 L255 374 L251 390 L246 398 L235 399 L229 393 L229 388 L234 383 L240 384 L242 389 L240 392 L237 393 L235 391 L236 386 L234 386 L232 389 L233 394 L241 395 L244 393 L245 385 L241 380 L238 379 L229 381 L224 388 L221 396 L218 399 L213 398 L217 389 L220 376 L225 370 L233 366 L236 366 L237 369 L234 374 L236 375 L242 368 L247 365 L255 363 Z M226 364 L218 373 L212 393 L207 399 L196 399 L191 394 L192 386 L194 387 L194 393 L196 395 L203 395 L206 393 L207 384 L203 380 L200 379 L192 380 L187 385 L183 395 L179 399 L175 398 L178 391 L180 380 L186 371 L197 366 L198 367 L197 373 L199 373 L204 368 L216 363 Z M189 364 L180 373 L177 380 L175 391 L170 398 L158 399 L153 394 L153 387 L157 383 L161 383 L166 386 L166 390 L163 393 L159 391 L160 386 L158 386 L156 388 L157 394 L166 395 L170 389 L169 384 L167 381 L162 379 L154 380 L149 385 L142 399 L137 398 L143 378 L146 373 L151 369 L159 366 L160 367 L159 374 L161 374 L161 372 L164 369 L171 365 L178 363 L188 363 Z M150 364 L141 373 L136 391 L131 398 L121 399 L115 393 L115 388 L120 383 L124 383 L128 387 L128 390 L125 393 L123 393 L121 391 L122 386 L120 386 L118 388 L119 394 L127 395 L130 392 L131 386 L129 382 L123 379 L116 380 L112 384 L104 399 L99 398 L106 375 L112 369 L122 366 L123 367 L121 371 L121 374 L122 374 L126 369 L133 365 L140 363 Z M392 232 L394 241 L392 259 L384 272 L364 293 L359 303 L362 320 L376 331 L391 329 L399 319 L397 305 L391 300 L384 299 L376 305 L375 312 L382 319 L389 315 L391 317 L385 322 L377 321 L372 314 L372 306 L377 298 L384 295 L393 296 L404 310 L404 320 L400 328 L379 346 L396 345 L412 340 L423 331 L430 316 L425 279 L415 294 L416 273 L413 260 L402 240 Z M123 232 L115 240 L105 258 L101 273 L102 294 L92 279 L87 316 L94 331 L105 340 L121 345 L138 346 L137 343 L127 339 L115 325 L113 310 L116 303 L127 295 L133 295 L143 302 L145 314 L137 322 L130 321 L125 315 L127 312 L134 319 L140 316 L142 308 L137 301 L126 300 L118 309 L120 323 L126 329 L135 332 L144 330 L153 323 L157 316 L158 303 L153 293 L133 272 L124 257 Z M352 167 L352 192 L346 204 L322 231 L319 248 L329 263 L343 267 L357 258 L359 245 L352 236 L346 234 L340 236 L335 242 L336 250 L342 254 L348 251 L350 253 L345 257 L339 257 L332 251 L333 237 L341 231 L349 230 L362 241 L363 257 L346 287 L348 298 L355 305 L361 289 L385 262 L389 250 L389 237 L384 214 L377 228 L374 228 L376 210 L373 196 L361 175 Z M165 167 L154 178 L144 196 L141 211 L143 228 L140 228 L132 214 L128 237 L130 259 L156 289 L162 305 L169 298 L171 286 L154 257 L155 241 L168 230 L176 231 L183 236 L186 247 L178 257 L172 257 L167 253 L169 251 L175 254 L181 250 L182 242 L177 236 L172 234 L165 236 L158 245 L160 258 L174 267 L188 263 L198 248 L195 231 L166 195 Z M257 122 L256 125 L241 142 L239 146 L239 152 L244 161 L250 167 L258 156 L261 158 L265 166 L267 167 L277 155 L278 146 L274 139 L265 130 L260 122 Z M312 103 L313 122 L310 132 L283 164 L279 172 L279 184 L287 197 L303 202 L311 199 L318 191 L318 179 L310 171 L299 172 L294 178 L295 185 L300 189 L308 186 L310 188 L298 192 L290 182 L292 173 L303 166 L309 166 L321 175 L324 182 L323 192 L306 221 L307 231 L314 239 L321 224 L343 200 L348 189 L349 175 L344 150 L336 164 L332 165 L333 135 L326 118 Z M203 103 L191 118 L184 133 L183 165 L177 158 L175 150 L173 151 L168 183 L173 198 L196 224 L202 238 L205 239 L210 231 L211 221 L194 192 L194 179 L205 167 L213 166 L221 169 L226 175 L227 182 L219 192 L212 192 L207 188 L209 186 L217 189 L222 185 L223 178 L217 171 L205 172 L198 182 L198 188 L206 199 L219 202 L230 197 L235 191 L238 172 L231 160 L210 137 L204 122 L205 103 Z M258 16 L232 59 L235 81 L246 94 L249 107 L237 117 L225 112 L225 107 L233 113 L238 112 L243 106 L243 99 L229 86 L223 70 L211 95 L210 119 L217 137 L234 156 L237 140 L259 113 L280 140 L284 156 L304 129 L307 100 L302 83 L293 70 L289 85 L274 99 L274 106 L279 112 L284 113 L291 107 L292 111 L279 117 L269 109 L271 94 L285 72 L285 59 Z"/></svg>
