<svg xmlns="http://www.w3.org/2000/svg" width="512" height="512" viewBox="0 0 512 512" aria-hidden="true" focusable="false"><path fill="currentColor" fill-rule="evenodd" clip-rule="evenodd" d="M113 452 L99 468 L114 482 L116 482 L130 466 L126 462 L125 463 L126 467 L124 469 L120 469 L118 473 L116 472 L116 469 L113 466 L115 472 L113 473 L113 476 L111 477 L106 471 L107 469 L109 469 L110 466 L108 462 L115 461 L117 464 L121 465 L121 462 L123 461 L118 455 Z M112 477 L114 476 L115 478 L113 479 Z M112 457 L115 456 L118 459 L113 460 Z M467 404 L467 406 L475 413 L475 410 L470 405 Z M473 402 L475 406 L475 402 Z M475 380 L475 382 L471 384 L471 387 L468 388 L467 391 L473 388 L473 386 L475 385 Z M470 222 L470 224 L475 228 L475 225 L472 222 Z M468 212 L468 214 L472 218 L474 218 L472 214 Z M475 194 L468 201 L467 206 L469 206 L473 202 L475 198 Z M468 34 L470 38 L473 39 L475 42 L475 39 L470 34 Z M472 20 L475 29 L473 33 L475 35 L475 21 Z M473 13 L471 13 L467 17 L467 20 L470 19 Z M42 13 L41 43 L62 34 L76 46 L64 44 L57 48 L59 56 L64 56 L59 52 L64 48 L71 53 L67 63 L55 64 L44 55 L42 228 L61 220 L75 231 L57 234 L60 243 L64 242 L60 235 L71 239 L71 245 L62 251 L42 241 L42 413 L45 415 L47 408 L65 406 L78 419 L57 419 L60 428 L65 428 L60 422 L64 419 L72 425 L64 436 L42 427 L42 500 L136 500 L146 488 L154 490 L146 496 L149 500 L156 489 L141 476 L121 492 L139 471 L161 489 L154 500 L415 500 L415 440 L421 438 L415 376 L419 365 L408 350 L418 333 L415 290 L421 289 L415 263 L418 180 L409 171 L408 161 L417 152 L421 127 L418 13 L248 13 L247 17 L238 13 L241 23 L247 23 L248 16 L252 18 L246 29 L233 26 L226 13 Z M140 479 L141 480 L140 484 L144 482 L146 484 L138 490 L137 495 L134 498 L133 493 L129 494 L128 492 L136 486 L138 480 Z M331 451 L332 452 L331 456 L335 455 L336 457 L328 462 L326 469 L323 470 L322 469 L323 464 L319 466 L318 463 L325 459 L328 452 Z M92 450 L93 456 L91 462 L87 463 L86 462 L89 451 Z M112 447 L134 465 L134 468 L117 487 L115 487 L94 469 L94 467 L109 452 L109 450 Z M327 448 L328 450 L320 455 L317 462 L315 461 L315 458 L313 459 L311 458 L313 455 L318 452 L320 446 L322 447 L322 449 Z M321 445 L323 444 L324 446 L322 447 Z M294 442 L296 441 L297 443 L295 444 Z M287 442 L289 441 L291 444 L289 445 Z M81 441 L79 444 L71 447 L67 446 L69 442 L76 440 L78 438 Z M320 437 L323 437 L344 455 L326 476 L324 476 L323 473 L326 472 L326 470 L332 465 L338 457 L338 454 L328 445 L322 441 L306 459 L304 458 L307 452 L312 448 L312 446 Z M280 437 L282 436 L286 440 L284 441 Z M292 434 L294 433 L297 437 L295 438 Z M77 431 L80 430 L81 432 L83 432 L85 436 L87 436 L102 449 L102 451 L100 452 L80 436 L77 433 Z M314 429 L316 431 L314 436 L305 444 L305 446 L300 451 L297 452 L295 449 L300 446 L309 436 L312 430 Z M304 430 L306 429 L308 432 L305 434 Z M90 428 L92 428 L98 438 L97 441 L94 439 L89 431 Z M294 427 L297 427 L299 430 L303 432 L301 434 L302 436 L301 438 L293 430 Z M283 427 L284 429 L281 433 L281 436 L279 437 L277 433 L279 431 L279 428 Z M305 424 L309 423 L312 428 L309 429 Z M298 424 L301 423 L302 426 L300 427 Z M271 417 L274 416 L275 418 L272 419 Z M290 417 L295 413 L301 419 L291 420 Z M276 412 L279 411 L282 414 L278 415 Z M262 406 L262 408 L256 411 L253 410 L253 408 L259 405 Z M267 403 L269 402 L271 405 L268 406 Z M274 397 L279 402 L278 406 L276 405 L273 399 Z M250 390 L252 389 L253 392 L251 393 Z M229 384 L231 383 L232 385 L230 386 Z M239 381 L242 382 L241 386 L237 385 Z M223 381 L225 380 L226 382 L224 383 Z M253 380 L244 381 L242 378 L251 375 Z M241 373 L244 372 L245 374 L242 375 Z M214 328 L215 330 L212 332 L211 330 Z M138 321 L145 320 L146 323 L142 325 Z M139 317 L143 316 L144 318 L140 319 Z M146 316 L150 314 L152 315 L151 318 L147 318 Z M148 300 L149 301 L148 305 L152 304 L153 306 L150 309 L144 312 L141 312 L140 310 L144 307 L146 301 Z M144 297 L145 299 L138 304 L136 310 L134 310 L132 307 L129 306 L135 301 L138 295 L140 296 L140 298 Z M146 294 L149 293 L160 303 L160 305 L157 306 L156 303 L150 299 Z M147 292 L145 294 L142 291 L139 291 L123 308 L121 307 L121 305 L138 286 L140 286 Z M106 285 L108 284 L109 286 L107 287 Z M112 283 L115 286 L113 288 L115 292 L114 294 L112 294 L108 288 L109 286 L111 286 Z M103 282 L105 281 L106 283 L104 284 Z M112 271 L117 272 L121 276 L122 273 L124 272 L134 280 L132 284 L116 302 L112 300 L106 293 L107 292 L111 293 L114 297 L116 297 L129 282 L129 280 L125 278 L126 281 L123 284 L120 283 L118 286 L113 280 L112 280 L112 283 L110 284 L109 279 L107 278 L108 276 L114 275 L117 279 L121 280 L115 274 L112 274 L111 273 Z M119 270 L121 269 L123 272 L121 273 Z M331 265 L332 266 L331 270 L335 268 L336 271 L329 275 L326 282 L324 283 L322 278 L319 279 L318 277 L324 274 L328 266 Z M91 264 L92 265 L91 276 L87 278 L86 277 L88 266 Z M113 262 L119 268 L116 269 L112 267 L98 283 L107 291 L106 293 L104 293 L94 284 L94 281 Z M323 258 L324 259 L323 263 L327 262 L328 264 L322 267 L319 270 L318 275 L316 276 L315 272 L312 272 L311 270 L317 267 L320 259 Z M287 256 L289 255 L290 257 L288 258 Z M81 256 L80 258 L69 262 L66 260 L67 257 L72 255 L79 254 Z M283 253 L285 252 L286 254 L284 255 Z M321 251 L327 254 L343 268 L342 272 L326 290 L323 287 L326 286 L326 284 L331 280 L338 271 L338 268 L323 255 L321 255 L306 273 L304 272 L304 270 Z M294 251 L296 250 L297 252 L295 253 Z M299 250 L301 249 L303 252 L301 253 Z M76 246 L78 244 L82 246 L83 249 L85 249 L99 261 L101 265 L100 266 L97 265 L79 250 Z M304 244 L307 243 L308 246 L305 248 Z M282 243 L283 245 L278 249 L277 248 L278 245 Z M89 242 L92 243 L98 253 L97 256 L94 254 L88 245 Z M236 242 L238 241 L239 243 L237 244 Z M291 242 L295 240 L299 244 L301 244 L302 247 L299 249 L296 245 L292 244 Z M294 236 L297 235 L298 237 L295 238 Z M75 235 L77 234 L78 237 L76 238 Z M302 233 L310 239 L316 245 L316 247 L299 266 L297 266 L289 258 L291 257 L298 262 L312 246 L308 241 L300 235 Z M291 233 L292 235 L283 243 L282 241 L286 237 L287 234 Z M273 233 L274 234 L273 240 L270 242 L269 241 L270 234 Z M278 227 L281 226 L282 228 L279 229 Z M274 223 L276 222 L279 226 L277 227 Z M257 222 L260 219 L262 220 L260 223 Z M264 215 L267 214 L268 216 L265 217 Z M274 213 L276 212 L278 216 L275 217 Z M261 212 L263 211 L265 214 L263 215 Z M243 211 L245 212 L244 216 L241 215 Z M247 200 L250 201 L253 205 L253 210 L251 212 L247 210 L248 203 L246 202 Z M236 199 L238 200 L237 204 L241 208 L238 213 L233 212 L232 209 L230 208 L230 206 L233 204 L233 202 Z M251 193 L250 195 L244 195 L241 197 L234 198 L229 204 L227 203 L228 194 L236 187 L239 187 L240 189 L236 191 L234 194 L244 191 Z M148 114 L149 115 L148 119 L152 118 L153 120 L145 125 L143 132 L141 133 L140 128 L137 129 L136 126 L142 123 L146 115 Z M153 111 L161 119 L153 129 L142 139 L140 136 L143 135 L143 133 L155 121 L155 117 L151 113 Z M149 110 L151 109 L152 111 L150 112 Z M139 108 L141 113 L143 111 L145 113 L137 119 L136 125 L133 126 L132 125 L133 122 L130 121 L129 119 L135 115 L137 109 Z M103 105 L106 104 L109 108 L107 109 Z M141 101 L143 104 L138 105 L126 120 L122 122 L121 119 L123 116 L128 112 L138 100 Z M102 96 L105 95 L107 98 L104 99 Z M134 94 L134 96 L116 115 L114 115 L108 110 L110 108 L115 111 L129 96 L130 92 Z M124 89 L127 88 L130 92 L128 93 Z M113 84 L115 84 L126 94 L124 97 L120 97 L118 100 L116 99 L114 95 L112 95 L115 100 L113 102 L115 106 L114 108 L108 102 L109 100 L111 100 L108 96 L109 94 L108 91 L112 89 L119 94 L121 93 L115 88 L111 87 Z M330 79 L331 84 L334 83 L335 86 L327 91 L326 96 L323 98 L322 97 L323 93 L318 95 L317 92 L325 88 L328 80 Z M91 78 L92 79 L91 90 L87 92 L86 91 L88 80 Z M324 78 L326 77 L327 79 L325 80 Z M113 76 L125 87 L122 88 L117 83 L112 81 L99 95 L99 98 L104 103 L102 105 L94 98 L94 96 L103 85 Z M322 73 L323 74 L322 78 L324 79 L324 81 L319 84 L318 90 L316 91 L315 88 L311 87 L310 85 L318 80 L319 74 Z M288 72 L290 71 L293 75 L291 76 Z M81 70 L80 72 L71 76 L68 76 L66 73 L67 71 L70 71 L76 68 L79 68 Z M282 67 L284 66 L285 68 L283 69 Z M321 65 L325 67 L342 82 L340 89 L325 104 L322 101 L325 100 L338 85 L338 83 L323 70 L320 70 L305 87 L303 86 Z M293 64 L295 63 L296 65 L294 66 Z M76 60 L80 58 L83 63 L94 71 L101 79 L99 80 L92 75 Z M313 57 L316 61 L297 81 L293 76 L294 75 L298 76 L312 61 L311 58 Z M89 56 L92 57 L98 67 L97 70 L95 70 L93 65 L90 63 L88 58 Z M290 56 L296 55 L301 60 L303 60 L303 58 L305 57 L307 61 L299 65 L296 60 L291 58 Z M300 55 L302 54 L303 56 L301 57 Z M293 52 L297 50 L301 54 L300 55 L294 54 Z M76 47 L78 48 L77 53 L75 52 Z M298 47 L300 46 L309 55 L307 56 Z M273 45 L274 46 L273 53 L270 56 L269 51 L271 46 Z M295 42 L297 45 L294 46 L278 64 L277 60 L293 42 Z M274 38 L276 37 L280 42 L278 43 Z M271 35 L273 34 L275 37 L273 38 Z M261 35 L260 37 L253 40 L250 39 L251 37 L257 34 Z M266 31 L268 30 L270 33 L268 34 Z M260 26 L262 25 L264 28 L262 29 Z M273 24 L278 30 L277 33 L273 29 L272 26 Z"/></svg>
