<svg xmlns="http://www.w3.org/2000/svg" width="512" height="512" viewBox="0 0 512 512" aria-hidden="true" focusable="false"><path fill="currentColor" fill-rule="evenodd" clip-rule="evenodd" d="M442 244 L440 245 L440 249 L443 248 Z M255 29 L254 46 L248 56 L248 71 L254 73 L247 120 L238 125 L241 132 L232 138 L232 147 L237 151 L228 156 L232 173 L227 174 L223 184 L217 184 L217 194 L225 204 L195 208 L180 187 L180 171 L176 174 L176 188 L189 203 L200 236 L153 239 L138 218 L135 201 L135 222 L148 239 L146 270 L103 273 L89 252 L87 239 L87 257 L97 268 L94 317 L88 320 L77 313 L77 274 L70 245 L66 313 L59 319 L58 332 L50 336 L39 324 L41 311 L36 314 L36 326 L44 338 L38 345 L41 366 L55 370 L53 448 L42 453 L45 470 L40 477 L15 482 L25 486 L130 484 L233 497 L338 495 L344 486 L496 484 L498 480 L473 477 L468 472 L471 453 L460 448 L458 370 L472 366 L475 345 L468 343 L468 336 L477 324 L477 314 L464 332 L455 332 L454 319 L447 317 L447 276 L440 254 L434 317 L427 319 L423 329 L415 274 L427 254 L426 239 L423 253 L404 270 L367 270 L365 236 L379 218 L378 201 L375 217 L354 235 L313 236 L324 202 L333 198 L337 188 L333 168 L334 183 L313 205 L292 206 L289 210 L296 185 L287 183 L286 176 L279 173 L285 159 L276 155 L281 138 L272 135 L274 124 L265 117 L259 73 L265 70 Z M420 446 L422 445 L423 448 L421 449 Z M418 370 L426 372 L427 381 L429 383 L432 381 L432 376 L434 374 L436 375 L435 377 L438 385 L437 440 L409 439 L409 433 L413 429 L413 423 L409 422 L409 389 L413 382 L413 375 Z M88 370 L95 370 L100 375 L100 382 L104 389 L104 422 L98 426 L101 432 L104 433 L103 440 L75 439 L76 377 L79 374 L80 381 L84 383 Z M255 16 L255 20 L257 21 L258 16 Z"/></svg>
