<svg xmlns="http://www.w3.org/2000/svg" width="512" height="512" viewBox="0 0 512 512" aria-hidden="true" focusable="false"><path fill="currentColor" fill-rule="evenodd" clip-rule="evenodd" d="M249 404 L243 409 L233 410 L226 421 L221 422 L213 452 L220 463 L219 471 L234 486 L252 489 L253 492 L269 491 L284 484 L290 474 L297 470 L303 449 L302 438 L295 422 L283 410 L263 404 Z M252 469 L255 468 L256 470 L253 471 Z M266 468 L268 467 L269 469 L267 470 Z M247 468 L249 467 L250 469 L248 470 Z M269 467 L272 464 L274 465 L272 468 Z M241 463 L243 462 L247 467 L246 468 L243 467 Z M276 460 L277 462 L274 465 L273 463 Z M284 460 L286 459 L287 461 L285 462 Z M237 460 L239 459 L242 462 L240 463 Z M236 457 L238 456 L239 458 L237 459 Z M280 443 L282 444 L281 454 L279 453 Z M235 441 L237 442 L237 453 L236 454 L234 453 L234 442 Z M256 440 L261 440 L266 445 L266 451 L262 455 L254 455 L250 451 L250 445 Z M278 439 L280 438 L281 440 L279 441 Z M239 435 L240 437 L239 440 L237 441 L236 437 Z M274 430 L277 432 L279 436 L278 438 L274 435 L273 432 Z M244 428 L245 429 L244 432 L240 435 L239 432 Z M268 428 L270 427 L273 428 L274 430 L270 431 Z M245 428 L247 427 L248 429 L246 430 Z M263 426 L267 425 L268 427 L264 428 Z M249 426 L252 425 L253 427 L250 428 Z M399 380 L401 405 L399 406 L398 419 L401 425 L401 437 L398 439 L398 446 L401 451 L404 451 L408 445 L408 439 L404 435 L404 425 L408 423 L409 419 L408 407 L404 405 L404 393 L407 391 L433 404 L438 410 L447 448 L460 473 L474 483 L488 484 L488 457 L481 457 L469 451 L470 431 L466 431 L463 437 L460 438 L449 411 L448 399 L453 392 L439 390 L432 386 L418 388 Z M42 351 L43 382 L46 385 L41 387 L44 400 L38 404 L40 420 L43 420 L45 424 L51 420 L61 420 L65 423 L65 427 L61 430 L42 428 L41 444 L46 449 L54 449 L57 435 L64 436 L65 442 L53 454 L39 455 L38 465 L43 465 L65 483 L87 448 L87 437 L82 427 L87 417 L87 407 L83 401 L76 404 L71 402 L69 393 L61 393 L61 385 L51 371 L50 357 Z M53 412 L55 411 L56 414 L54 415 Z M249 204 L244 209 L237 209 L234 217 L234 225 L242 232 L239 247 L245 253 L245 261 L248 266 L242 276 L242 283 L237 287 L237 297 L243 297 L252 308 L264 313 L270 310 L270 306 L258 299 L257 291 L250 284 L250 277 L255 270 L255 259 L259 257 L260 263 L268 263 L273 267 L273 256 L278 251 L296 251 L298 238 L292 233 L292 227 L287 224 L285 218 L279 218 L277 221 L268 220 L264 223 L265 211 L259 210 L258 204 Z M24 196 L21 197 L17 201 L17 206 L15 209 L17 211 L17 215 L22 220 L31 222 L33 220 L36 220 L42 214 L43 210 L42 203 L38 197 Z M443 193 L442 196 L438 196 L439 203 L448 207 L449 211 L422 212 L407 222 L406 231 L407 236 L431 225 L442 225 L449 229 L428 236 L420 246 L417 257 L419 262 L428 265 L432 255 L441 246 L460 248 L461 252 L455 253 L446 263 L439 279 L443 279 L448 267 L455 260 L459 263 L459 278 L444 291 L444 295 L452 303 L465 307 L470 288 L483 265 L488 248 L488 215 L483 198 L480 197 L484 216 L482 240 L478 213 L457 196 Z M471 238 L476 240 L476 252 L475 253 L473 252 L473 244 L472 241 L470 240 Z M457 233 L461 233 L463 235 L468 245 L467 250 L462 245 L462 242 L457 240 L456 237 Z M460 217 L462 218 L465 225 L467 226 L466 229 L464 229 L461 226 L461 222 L459 221 Z M450 212 L453 211 L454 214 L452 215 Z M72 193 L64 222 L51 253 L36 272 L30 266 L25 265 L27 271 L24 274 L25 282 L31 286 L38 281 L109 281 L116 286 L123 279 L120 265 L117 265 L111 274 L101 262 L83 224 L77 196 Z M93 271 L97 270 L101 275 L94 276 Z M75 271 L76 270 L87 270 L88 275 L87 276 L76 276 Z M59 271 L69 270 L70 275 L60 276 Z M45 274 L49 270 L54 271 L53 276 L46 276 Z M83 260 L87 259 L91 264 L84 265 Z M67 260 L77 259 L78 264 L68 265 Z M58 259 L62 260 L61 265 L56 264 L56 261 Z M75 248 L80 247 L83 252 L76 253 Z M67 247 L70 248 L69 253 L64 252 L64 250 Z M73 236 L75 237 L76 240 L75 242 L70 241 L70 239 Z M443 21 L425 39 L423 46 L416 48 L398 66 L398 74 L422 94 L425 101 L443 119 L451 119 L469 101 L470 95 L478 92 L498 71 L483 53 L470 46 L469 40 L460 33 L457 26 L450 21 Z M445 99 L448 98 L449 100 L446 101 Z M444 81 L445 78 L448 79 L446 82 Z M440 77 L442 76 L443 78 L441 79 Z M453 75 L455 76 L454 79 L451 78 Z M438 75 L440 74 L441 76 L439 77 Z M428 72 L430 71 L431 73 L429 74 Z M437 68 L439 69 L438 73 L436 72 Z M455 65 L457 66 L458 70 L456 76 L454 75 Z M436 66 L438 65 L439 67 L437 68 Z M451 63 L454 62 L455 65 L453 66 Z M438 65 L442 60 L452 61 L451 63 L443 63 L440 66 Z M444 53 L450 52 L451 54 L445 55 Z M255 20 L255 25 L248 31 L247 39 L248 47 L252 50 L239 58 L235 66 L237 88 L230 101 L215 103 L211 108 L211 114 L218 121 L232 119 L235 116 L238 121 L300 119 L303 116 L302 105 L284 94 L284 66 L282 61 L271 53 L263 51 L268 44 L266 31 L260 20 Z M241 101 L247 94 L248 98 L252 100 L253 102 L252 103 L242 103 Z M273 85 L275 84 L276 86 L274 87 Z M273 82 L275 81 L276 83 L274 84 Z M27 20 L20 33 L20 51 L29 65 L46 75 L33 89 L38 98 L33 100 L33 104 L49 116 L56 111 L57 117 L77 119 L83 114 L89 116 L100 106 L106 106 L106 102 L99 99 L104 93 L103 84 L93 75 L110 65 L119 49 L119 35 L112 21 L109 21 L105 30 L91 29 L97 36 L93 44 L85 48 L77 47 L80 39 L67 23 L67 30 L59 39 L62 47 L53 48 L43 41 L42 34 L46 33 L46 29 L36 28 L33 32 L30 20 Z M82 112 L84 111 L85 113 L83 114 Z M85 106 L87 105 L89 108 L86 109 Z M52 105 L54 106 L53 109 L50 108 Z M93 101 L96 100 L97 102 L94 103 Z M42 103 L43 100 L46 101 L44 104 Z M96 99 L98 98 L99 100 L97 101 Z M40 99 L42 98 L43 100 L41 101 Z"/></svg>
