<svg xmlns="http://www.w3.org/2000/svg" width="512" height="512" viewBox="0 0 512 512" aria-hidden="true" focusable="false"><path fill="currentColor" fill-rule="evenodd" clip-rule="evenodd" d="M172 437 L170 436 L170 439 L168 441 L162 439 L158 440 L156 447 L158 449 L167 448 L171 449 Z M264 436 L265 440 L270 441 L271 445 L275 449 L281 449 L283 447 L283 445 L280 447 L275 445 L276 437 L279 435 L283 436 L283 442 L288 444 L288 449 L314 449 L319 446 L322 446 L325 449 L346 449 L347 447 L349 449 L353 449 L352 443 L354 436 L360 435 L361 440 L365 442 L365 447 L367 449 L370 448 L368 446 L369 441 L374 439 L375 448 L377 449 L388 449 L397 446 L400 449 L421 449 L422 447 L429 449 L431 446 L432 452 L436 450 L436 439 L432 440 L429 447 L427 446 L430 436 L435 434 L431 432 L427 434 L419 432 L420 435 L425 437 L423 441 L420 439 L414 441 L411 439 L386 439 L380 446 L378 443 L380 441 L380 435 L385 433 L384 430 L375 430 L373 432 L365 432 L364 434 L355 432 L350 434 L348 430 L345 435 L350 436 L349 440 L339 440 L338 442 L335 439 L330 441 L328 439 L308 439 L305 442 L302 440 L295 440 L293 442 L287 438 L281 430 L267 433 Z M410 443 L412 442 L413 444 L411 445 Z M374 436 L376 435 L377 438 L375 439 Z M366 435 L370 434 L371 437 L367 438 Z M270 435 L272 434 L273 436 L271 437 Z M72 434 L74 440 L80 442 L78 446 L73 445 L73 447 L75 448 L80 447 L82 451 L88 448 L96 449 L98 447 L100 449 L103 449 L106 447 L106 445 L102 446 L101 444 L104 439 L104 436 L108 435 L108 433 L97 432 L95 433 L95 435 L98 435 L100 438 L98 440 L93 439 L90 442 L88 442 L85 438 L85 435 L88 434 L87 430 L83 431 L80 430 L78 433 L75 430 L74 433 Z M82 445 L84 444 L85 447 L83 448 Z M96 442 L98 443 L97 447 L95 446 Z M79 440 L81 439 L82 441 L80 442 Z M76 436 L80 435 L81 438 L77 439 Z M261 430 L259 429 L251 440 L244 439 L241 442 L238 439 L233 439 L230 442 L228 441 L228 439 L222 440 L219 433 L216 430 L213 433 L205 432 L205 434 L211 437 L209 440 L202 439 L199 441 L198 440 L199 432 L197 430 L195 433 L193 432 L182 433 L182 436 L179 438 L179 441 L183 442 L184 449 L187 449 L187 446 L191 440 L191 436 L195 435 L196 437 L193 442 L193 449 L208 449 L209 448 L219 449 L220 447 L223 449 L226 449 L227 447 L229 447 L230 449 L232 449 L233 447 L235 449 L240 448 L256 449 L255 442 L257 440 L256 436 Z M244 443 L246 442 L247 445 L245 446 Z M219 443 L221 442 L222 444 L220 445 Z M217 435 L218 436 L216 446 L213 447 L212 446 L213 440 L215 436 Z M154 429 L151 429 L149 432 L142 432 L140 430 L134 431 L134 434 L131 435 L131 437 L133 440 L136 439 L138 440 L137 449 L141 447 L142 442 L144 443 L144 449 L146 449 L148 445 L150 446 L150 449 L152 449 L153 440 L151 439 L151 436 L154 434 Z M146 434 L147 436 L146 439 L144 440 L143 436 Z M127 429 L124 429 L121 432 L120 437 L118 439 L113 439 L109 443 L109 448 L111 449 L117 448 L119 453 L121 453 L124 450 L123 444 L127 443 L127 441 L124 440 L124 433 L127 432 Z M391 369 L391 376 L400 375 L405 371 L411 371 L414 374 L417 374 L424 395 L429 400 L442 403 L443 406 L450 410 L453 408 L465 409 L466 407 L475 410 L479 407 L484 412 L494 411 L482 401 L482 395 L479 392 L483 385 L492 382 L494 380 L493 378 L476 375 L469 381 L469 392 L459 396 L459 387 L457 387 L454 393 L451 393 L450 389 L440 389 L432 381 L429 369 L425 365 L425 360 L420 357 L411 355 L400 367 Z M281 350 L285 356 L298 362 L303 367 L303 379 L297 381 L297 383 L303 385 L303 395 L312 390 L314 400 L318 399 L324 403 L331 414 L336 409 L348 414 L348 408 L355 409 L362 406 L365 408 L378 406 L390 413 L404 410 L413 411 L409 403 L394 401 L385 395 L387 388 L381 389 L372 383 L377 378 L375 370 L371 375 L364 370 L358 370 L352 376 L344 370 L339 382 L347 388 L342 393 L337 394 L332 390 L338 387 L330 382 L330 377 L324 377 L307 356 L295 350 Z M363 397 L367 396 L368 398 L365 400 Z M356 385 L358 384 L359 386 L357 387 Z M354 381 L356 380 L357 382 L355 383 Z M124 318 L122 333 L139 336 L140 344 L148 346 L146 355 L159 360 L171 346 L176 355 L161 365 L177 374 L172 382 L159 369 L147 374 L140 393 L122 397 L124 412 L155 410 L157 406 L168 412 L176 403 L180 412 L188 413 L200 400 L213 413 L221 413 L225 404 L233 412 L239 412 L242 406 L265 414 L277 412 L278 396 L262 393 L261 386 L254 382 L255 375 L242 369 L230 382 L226 380 L225 374 L241 364 L226 356 L225 351 L230 346 L242 360 L255 355 L254 346 L261 344 L262 336 L278 333 L278 318 L246 318 L242 323 L233 317 L226 324 L223 317 L210 317 L202 329 L191 317 L179 317 L176 325 L168 317 L160 323 L155 318 Z M222 399 L224 398 L225 400 L223 401 Z M176 399 L178 398 L179 400 L177 401 Z M155 394 L157 393 L158 395 L156 396 Z M141 393 L144 395 L142 400 L139 399 Z M210 391 L213 395 L210 396 L209 399 L207 399 L206 394 Z M191 391 L193 391 L196 395 L194 398 L188 395 Z M245 389 L247 390 L246 396 L244 395 Z M155 390 L157 389 L158 391 L156 392 Z M232 388 L238 386 L240 389 L233 390 Z M175 387 L177 386 L178 388 L176 389 Z M161 388 L164 386 L168 387 L169 389 L162 390 Z M213 377 L217 377 L221 381 L220 383 L216 383 L215 389 L213 388 L212 382 Z M184 377 L189 378 L189 383 L187 385 L185 383 L180 382 Z M214 341 L216 342 L216 345 L219 348 L219 350 L215 352 L212 351 Z M186 341 L189 342 L188 352 L183 351 L181 349 L185 345 Z M149 339 L151 340 L150 345 L148 344 Z M232 341 L233 338 L242 339 L240 342 L237 343 Z M159 339 L168 338 L169 341 L164 343 L160 341 Z M257 333 L260 332 L261 335 L259 336 Z M243 332 L247 333 L246 339 L243 338 L242 334 Z M155 332 L159 333 L158 339 L155 338 L156 336 L154 334 Z M206 336 L207 331 L209 333 L214 331 L216 332 L213 336 L209 338 Z M187 333 L194 331 L196 334 L194 337 L191 337 Z M140 332 L142 331 L144 334 L141 336 Z M223 327 L225 328 L224 331 L221 330 Z M176 328 L178 327 L180 330 L177 331 Z M306 313 L307 318 L313 320 L319 327 L319 337 L317 339 L319 344 L322 344 L328 355 L336 358 L336 356 L338 355 L349 356 L354 360 L358 360 L363 356 L371 353 L381 355 L385 352 L385 349 L379 350 L375 348 L372 343 L365 342 L361 337 L361 332 L345 333 L343 338 L340 340 L339 337 L334 335 L317 316 L311 313 Z M373 313 L373 316 L388 313 L402 316 L398 325 L388 330 L384 329 L386 337 L398 348 L409 345 L416 348 L425 337 L445 344 L479 343 L480 339 L486 342 L496 335 L492 317 L484 317 L480 305 L470 314 L460 307 L451 307 L445 310 L440 317 L436 313 L436 306 L427 306 L424 300 L418 306 L404 304 Z M470 333 L473 332 L475 336 L471 337 Z M472 329 L474 328 L475 330 L473 331 Z M474 328 L476 325 L483 326 L482 328 L476 329 Z M439 320 L440 328 L438 332 L435 332 L432 328 L436 326 L436 322 Z M405 318 L408 318 L417 327 L417 333 L413 338 L408 337 L411 334 L412 330 L411 327 L404 321 Z M465 318 L466 329 L465 332 L461 336 L456 338 L449 338 L442 336 L438 333 L439 331 L443 331 L445 329 L448 329 L451 331 L462 331 L462 326 L458 322 L459 316 L462 315 Z M456 314 L458 313 L459 315 L457 316 Z M68 294 L51 316 L46 315 L47 328 L41 323 L29 343 L29 355 L25 357 L30 380 L43 389 L53 386 L51 394 L67 413 L85 394 L82 387 L93 389 L102 384 L111 367 L111 355 L107 354 L108 343 L96 322 L91 324 L91 316 L80 305 L76 305 Z M63 392 L65 390 L67 391 L71 390 L73 394 L69 398 L67 398 L63 394 Z M101 370 L102 372 L95 380 L93 380 L92 376 L95 374 L95 372 L97 370 Z M35 371 L39 370 L42 373 L43 378 L40 379 L36 375 Z M41 344 L43 343 L44 346 L42 347 Z M97 341 L98 343 L94 346 L93 344 Z M78 340 L79 336 L84 337 L81 341 Z M52 337 L58 336 L59 341 L57 342 Z M67 333 L69 333 L72 336 L71 345 L65 344 L65 338 Z M89 327 L91 326 L92 329 L90 330 Z M325 300 L328 300 L330 302 L337 302 L342 298 L349 302 L352 302 L353 299 L349 295 L350 293 L352 293 L360 300 L358 304 L362 307 L366 307 L370 304 L375 304 L381 298 L385 300 L396 298 L384 291 L380 286 L370 285 L364 281 L350 279 L335 281 L329 287 L327 287 Z M443 255 L434 251 L426 253 L421 256 L420 260 L418 260 L417 263 L418 268 L416 270 L413 270 L412 267 L405 267 L403 270 L394 270 L387 275 L381 277 L384 280 L392 280 L398 278 L407 283 L416 283 L417 287 L423 287 L429 282 L431 283 L431 285 L433 285 L437 282 L438 277 L443 272 L442 263 Z M410 271 L412 270 L417 276 L415 278 L412 278 L410 276 Z M47 239 L42 241 L38 248 L35 248 L35 255 L30 255 L19 264 L16 264 L16 267 L23 273 L24 277 L28 277 L29 284 L33 281 L34 285 L49 292 L54 287 L62 285 L63 283 L67 284 L68 277 L72 276 L80 267 L80 263 L74 262 L65 255 L61 255 L60 249 L57 248 L52 241 Z M81 236 L75 240 L75 243 L80 248 L82 248 L87 243 L87 240 Z M305 234 L303 234 L302 239 L293 251 L290 248 L287 248 L287 266 L293 270 L294 273 L285 283 L283 283 L278 288 L275 298 L284 296 L285 294 L297 297 L300 293 L310 291 L319 281 L322 280 L322 278 L313 277 L312 270 L315 266 L316 260 L312 259 L313 246 Z M112 234 L111 244 L102 244 L102 251 L92 254 L97 264 L93 270 L97 279 L92 288 L102 292 L102 299 L111 299 L112 309 L123 304 L129 309 L135 304 L147 309 L148 299 L157 299 L157 292 L167 288 L162 278 L166 273 L163 263 L167 254 L158 252 L157 244 L149 245 L147 234 L141 235 L136 240 L130 234 L124 240 Z M485 227 L483 227 L480 231 L474 234 L466 242 L466 244 L463 247 L462 257 L463 262 L469 267 L473 266 L474 268 L469 274 L463 278 L452 281 L448 284 L443 290 L443 299 L445 299 L445 294 L452 287 L464 285 L473 280 L481 273 L485 264 L485 248 L483 238 Z M425 226 L421 223 L418 227 L414 226 L405 227 L406 232 L403 235 L403 238 L405 239 L406 242 L406 248 L403 249 L402 251 L395 254 L388 255 L373 254 L373 256 L379 259 L391 260 L404 257 L407 254 L418 250 L420 246 L425 242 L426 238 Z M411 242 L412 244 L409 246 L408 244 Z M324 214 L320 224 L320 234 L321 239 L323 241 L321 246 L327 252 L331 252 L333 254 L333 257 L348 258 L352 262 L353 266 L355 266 L355 259 L353 254 L344 247 L337 245 L333 242 L334 240 L339 239 L342 226 L337 227 L333 222 L333 219 L328 220 L326 217 L326 214 Z M328 232 L330 231 L331 233 L329 234 Z M228 209 L221 220 L213 219 L202 234 L189 263 L191 275 L197 281 L209 277 L209 283 L202 286 L193 283 L189 276 L185 278 L185 286 L193 304 L204 305 L206 309 L214 305 L241 305 L248 309 L250 305 L262 303 L263 294 L269 287 L269 277 L264 273 L265 263 L252 234 L243 223 L238 226 L241 219 L235 219 Z M216 281 L217 283 L215 290 L211 291 L210 289 L213 283 Z M238 280 L241 281 L241 284 L245 289 L244 291 L239 290 L239 286 L237 282 Z M265 276 L265 279 L259 284 L248 286 L247 283 L245 282 L246 277 L250 281 L257 281 L262 278 L263 275 Z M236 275 L238 274 L239 276 L237 277 Z M247 257 L248 258 L247 261 L243 265 L241 272 L238 274 L237 269 L240 266 L241 262 Z M207 257 L216 266 L218 272 L217 277 L215 276 L215 272 L213 271 L212 266 L206 259 Z M214 222 L216 223 L215 227 L213 226 Z M493 182 L491 182 L491 184 L486 189 L481 190 L479 192 L471 193 L462 197 L459 201 L457 201 L451 207 L450 210 L445 215 L442 221 L442 224 L439 227 L438 240 L443 240 L443 233 L447 221 L465 203 L477 199 L478 197 L480 198 L480 200 L478 201 L478 204 L474 208 L472 208 L472 211 L474 213 L481 214 L479 217 L480 219 L487 218 L489 214 L494 211 L496 199 L494 196 L495 185 Z M346 176 L341 184 L338 184 L338 188 L335 194 L331 195 L330 197 L333 198 L334 206 L339 210 L344 210 L345 212 L353 213 L360 207 L362 197 L365 195 L365 193 L361 193 L357 183 L354 184 L352 180 L348 176 Z M79 171 L79 221 L102 221 L103 219 L108 221 L128 221 L119 203 L121 179 L108 179 L105 181 L100 179 L98 182 L89 176 L85 176 Z M40 160 L29 172 L25 180 L18 181 L16 186 L16 204 L21 209 L28 211 L26 220 L34 218 L42 223 L46 218 L56 220 L53 211 L60 209 L65 204 L66 195 L63 183 L56 180 L54 175 L49 172 L42 160 Z M217 157 L217 160 L213 164 L211 164 L211 166 L208 169 L205 169 L205 173 L202 180 L202 188 L204 193 L212 199 L216 200 L228 199 L236 192 L238 188 L237 176 L233 168 L226 164 L220 157 Z M157 157 L154 162 L147 166 L144 174 L140 176 L134 187 L134 191 L127 194 L127 196 L131 198 L133 206 L141 209 L141 215 L145 218 L146 222 L150 222 L159 228 L165 222 L170 222 L174 215 L174 209 L181 207 L184 199 L189 194 L182 191 L177 178 L170 171 L169 167 L166 167 L159 157 Z M443 160 L444 163 L453 164 L452 172 L457 177 L461 175 L466 175 L469 177 L478 175 L482 177 L489 176 L489 174 L483 171 L482 168 L474 168 L471 165 L471 162 L469 160 L463 160 L455 152 L451 152 L448 155 L446 155 L445 159 Z M417 135 L403 144 L399 144 L396 154 L389 156 L383 151 L381 152 L380 162 L375 164 L373 174 L384 193 L373 195 L373 197 L381 205 L389 203 L390 209 L370 221 L365 228 L362 241 L367 241 L368 232 L377 221 L392 215 L400 208 L405 212 L413 212 L410 205 L420 202 L430 191 L432 170 L427 170 L425 167 L424 152 L420 150 Z M484 129 L477 129 L474 126 L471 129 L464 131 L461 136 L453 135 L452 131 L446 131 L443 132 L442 134 L438 134 L437 138 L443 145 L446 145 L449 148 L452 148 L452 144 L454 143 L457 145 L461 145 L467 151 L477 150 L478 146 L484 142 L484 140 L482 139 L484 135 Z M351 121 L348 121 L343 125 L338 125 L338 135 L340 138 L339 145 L342 148 L346 146 L349 147 L346 158 L343 160 L343 162 L336 170 L334 170 L331 174 L329 174 L318 182 L316 185 L317 187 L322 186 L323 184 L328 182 L339 173 L347 164 L351 156 L360 148 L364 140 L364 134 L359 135 L358 129 L354 128 L354 124 Z M170 118 L169 122 L162 129 L159 130 L158 137 L151 141 L151 143 L155 143 L158 146 L158 148 L162 151 L165 151 L169 148 L174 148 L180 151 L184 149 L188 143 L192 143 L192 141 L185 137 L185 133 L183 129 L180 128 L173 121 L172 118 Z M92 122 L89 125 L89 132 L86 135 L86 148 L89 150 L89 157 L91 160 L98 160 L101 163 L114 163 L116 160 L123 160 L126 157 L126 150 L130 146 L128 143 L128 138 L130 136 L126 132 L126 124 L123 122 L116 122 L113 118 L100 119 L99 122 Z M317 113 L315 114 L315 120 L313 124 L304 133 L302 137 L302 144 L309 152 L308 154 L303 156 L303 164 L306 164 L306 160 L308 158 L316 158 L318 160 L324 160 L328 158 L334 152 L335 149 L333 134 L330 129 L325 126 L322 118 Z M269 112 L265 119 L265 125 L262 127 L264 138 L262 140 L262 148 L265 152 L262 154 L262 158 L267 165 L265 167 L267 172 L264 187 L265 195 L263 196 L263 214 L265 219 L262 225 L266 225 L267 229 L271 231 L279 227 L288 229 L299 214 L300 206 L293 192 L295 182 L289 185 L282 175 L288 165 L288 161 L282 162 L287 153 L287 142 L283 135 L271 125 L271 112 Z M57 110 L53 110 L49 113 L46 113 L43 117 L40 117 L33 123 L37 149 L57 150 L64 149 L66 147 L68 138 L70 136 L70 133 L73 132 L74 127 L64 119 L63 116 Z M392 104 L388 104 L388 106 L384 110 L380 110 L379 113 L375 117 L373 117 L373 121 L371 124 L371 130 L369 132 L373 138 L394 139 L400 136 L400 133 L403 131 L404 129 L403 120 L399 112 L397 111 L397 109 Z M382 131 L384 130 L385 132 L383 133 Z M375 126 L378 125 L379 127 L376 128 Z M231 65 L225 82 L221 84 L219 89 L216 90 L215 94 L212 96 L208 109 L208 122 L216 132 L222 132 L225 137 L234 139 L237 137 L239 131 L244 130 L250 124 L254 109 L252 108 L249 94 L245 92 L241 82 L236 76 L236 69 Z M224 105 L226 105 L229 108 L225 114 L223 113 Z M482 64 L465 67 L464 65 L457 63 L455 66 L450 67 L445 74 L443 73 L443 69 L440 69 L438 77 L434 83 L434 90 L437 94 L430 96 L431 100 L437 103 L438 106 L436 108 L426 108 L418 105 L418 107 L425 112 L440 112 L447 110 L451 106 L464 109 L477 103 L477 101 L472 98 L477 96 L477 93 L482 87 L482 85 L479 84 L481 81 Z M102 63 L94 71 L86 70 L85 77 L82 79 L82 82 L77 85 L79 92 L82 93 L85 98 L91 98 L94 96 L101 98 L101 105 L104 109 L106 109 L108 104 L107 99 L109 97 L126 97 L126 94 L132 90 L132 84 L126 82 L124 70 L115 71 L107 63 Z M262 82 L262 85 L269 85 L284 74 L300 74 L310 83 L309 86 L300 85 L299 79 L295 78 L286 82 L283 88 L283 97 L288 102 L298 104 L309 102 L317 97 L329 100 L330 96 L351 100 L367 90 L373 98 L381 100 L399 96 L401 92 L410 88 L409 85 L403 86 L394 79 L387 78 L386 73 L373 76 L371 68 L365 63 L352 64 L353 68 L345 72 L331 70 L330 65 L321 65 L315 68 L316 75 L314 76 L303 65 L297 64 L296 60 L283 69 L271 73 Z M303 93 L305 98 L299 99 L298 97 Z M325 87 L332 86 L333 88 L326 89 Z M376 86 L378 85 L380 88 L378 89 Z M342 89 L345 84 L355 86 L351 90 Z M345 75 L346 76 L345 81 L343 82 L340 79 Z M150 66 L148 73 L155 78 L155 81 L147 86 L143 86 L137 90 L137 92 L140 95 L146 95 L148 93 L155 95 L151 106 L152 111 L156 108 L180 110 L182 106 L183 108 L191 108 L192 112 L194 112 L195 104 L190 96 L193 93 L205 95 L210 92 L210 90 L206 90 L202 86 L191 81 L191 78 L197 74 L196 67 L183 71 L179 63 L174 60 L167 62 L164 66 L164 71 Z M56 59 L44 61 L32 60 L28 63 L25 74 L22 77 L21 90 L34 95 L42 103 L49 102 L55 97 L56 92 L61 92 L67 86 L67 81 L61 74 L60 63 Z"/></svg>
