<svg xmlns="http://www.w3.org/2000/svg" width="512" height="512" viewBox="0 0 512 512" aria-hidden="true" focusable="false"><path fill="currentColor" fill-rule="evenodd" clip-rule="evenodd" d="M408 351 L409 355 L415 354 L414 350 Z M405 331 L397 346 L399 367 L392 367 L391 371 L401 378 L401 391 L407 401 L414 404 L422 402 L425 408 L444 408 L447 405 L447 387 L456 386 L455 404 L459 408 L485 406 L487 378 L494 385 L494 371 L489 350 L476 333 L461 327 L417 326 Z M465 386 L467 389 L467 403 L466 404 L462 404 L460 402 L462 400 L462 387 Z M406 378 L410 379 L408 393 L406 392 L405 387 Z M420 372 L422 373 L424 384 L423 394 L420 392 L413 391 L413 383 L415 376 Z M452 360 L456 358 L457 354 L461 354 L463 359 L465 359 L466 361 L465 362 L453 362 Z M457 347 L460 346 L461 348 L458 349 Z M481 345 L486 355 L486 364 L481 387 L481 403 L471 403 L471 388 L469 380 L466 380 L464 382 L451 382 L448 380 L448 376 L445 376 L442 390 L443 403 L434 404 L434 387 L432 376 L424 366 L432 362 L439 353 L440 363 L446 370 L451 372 L470 371 L477 365 L479 359 L479 346 Z M467 341 L469 342 L469 354 L468 355 L465 353 L466 349 L465 343 Z M450 341 L454 343 L453 352 L451 355 L449 354 L449 342 Z M449 334 L451 333 L452 335 L450 336 Z M457 331 L462 332 L464 334 L461 342 L456 341 L455 334 Z M433 332 L439 331 L440 337 L438 338 Z M424 331 L425 332 L424 338 L425 339 L432 338 L434 341 L434 350 L432 353 L432 356 L426 361 L424 349 L420 349 L420 358 L424 366 L416 370 L414 369 L413 365 L405 367 L403 365 L402 360 L402 348 L406 337 L414 331 Z M63 316 L52 319 L39 328 L33 341 L33 355 L38 368 L58 395 L55 400 L56 413 L72 415 L77 411 L77 401 L73 395 L77 393 L79 386 L96 363 L99 342 L94 331 L85 322 L75 317 Z M59 405 L62 403 L71 403 L73 407 L71 411 L61 411 L59 409 Z M62 395 L68 394 L69 398 L63 399 Z M83 326 L89 332 L94 341 L95 351 L89 365 L83 374 L80 376 L79 374 L84 358 L84 337 L81 328 Z M48 326 L50 328 L48 331 L46 342 L46 354 L50 370 L54 377 L53 379 L50 377 L42 366 L37 353 L38 339 L41 333 Z M60 322 L63 323 L63 381 L62 382 L60 381 L55 367 L53 366 L50 350 L52 333 L55 327 Z M68 321 L71 322 L75 326 L80 338 L80 358 L76 371 L69 383 L67 382 L67 322 Z M190 314 L186 326 L162 343 L165 355 L153 365 L153 371 L163 379 L173 376 L186 380 L186 403 L180 409 L175 410 L172 418 L207 419 L206 409 L201 409 L199 404 L195 403 L195 380 L207 377 L222 378 L227 373 L228 364 L216 355 L219 343 L197 328 Z M158 368 L159 367 L222 367 L223 370 L220 374 L217 375 L209 371 L206 371 L202 375 L196 375 L191 371 L189 371 L185 375 L179 375 L174 371 L169 374 L161 374 Z M164 361 L171 356 L178 354 L181 356 L207 355 L215 359 L217 362 L216 363 L165 363 Z M167 347 L168 346 L214 346 L215 348 L212 351 L203 349 L197 352 L192 349 L189 349 L187 351 L181 351 L178 349 L174 351 L170 351 Z M173 340 L185 332 L192 330 L204 337 L207 341 L206 342 L174 342 Z M316 313 L312 315 L309 329 L303 336 L298 336 L298 344 L305 364 L288 364 L282 356 L282 341 L277 342 L270 350 L271 361 L279 375 L298 378 L299 398 L292 415 L295 415 L301 407 L301 415 L305 416 L308 407 L315 407 L318 416 L322 417 L321 407 L325 405 L328 406 L331 415 L334 415 L335 412 L326 393 L328 384 L332 383 L339 388 L349 389 L360 369 L360 362 L348 351 L343 352 L348 363 L344 373 L324 363 L331 348 L332 336 L326 336 L320 329 Z M303 400 L304 399 L318 399 L319 402 L318 403 L304 403 Z M302 382 L304 381 L316 394 L315 395 L304 395 L302 390 Z M352 373 L350 381 L347 385 L337 382 L341 378 L346 378 L350 372 Z M302 369 L306 368 L310 373 L318 373 L323 369 L326 369 L335 373 L336 376 L334 379 L329 377 L324 382 L322 390 L320 391 L306 377 Z M315 367 L317 366 L318 368 L316 369 Z M353 362 L355 363 L354 368 L352 367 Z M277 362 L280 361 L287 369 L296 368 L298 372 L297 373 L283 373 L280 367 L277 365 Z M277 349 L278 356 L275 358 L274 352 Z M319 348 L323 354 L317 362 L311 362 L307 354 L313 352 L316 353 L317 349 Z M309 347 L316 346 L317 348 L312 350 Z M323 345 L326 344 L327 346 L324 347 Z M310 334 L313 332 L317 332 L320 336 L316 337 L311 336 Z M389 236 L389 242 L396 258 L396 278 L405 280 L410 290 L437 286 L464 288 L478 283 L496 284 L494 280 L489 278 L491 266 L486 264 L486 254 L494 253 L494 249 L483 249 L481 260 L472 254 L444 254 L438 259 L439 263 L435 266 L407 256 L402 237 Z M464 281 L467 280 L468 282 L465 283 Z M452 281 L453 280 L463 281 L464 283 L457 284 L453 283 Z M486 273 L484 279 L476 279 L472 281 L469 280 L468 276 L469 274 L480 272 Z M456 267 L457 266 L476 266 L477 268 L476 269 L457 269 Z M407 264 L409 263 L410 268 L415 269 L429 275 L439 277 L441 279 L445 279 L446 281 L413 286 L408 274 Z M455 260 L456 259 L469 259 L470 261 L469 262 L456 262 Z M443 260 L449 259 L451 261 L452 267 L444 268 Z M395 240 L397 240 L399 243 L401 251 L400 253 L398 252 L394 242 Z M148 221 L145 226 L148 234 L146 283 L152 283 L159 294 L169 296 L179 288 L212 288 L217 285 L228 296 L241 291 L242 271 L232 264 L233 253 L227 248 L222 236 L228 228 L226 224 L165 219 Z M169 289 L171 288 L172 290 L170 291 Z M161 289 L163 288 L164 290 L162 291 Z M236 283 L238 282 L239 285 L237 286 Z M229 283 L231 282 L232 284 L230 285 Z M164 282 L168 281 L169 283 L166 285 Z M173 278 L176 281 L176 285 L174 288 L172 287 Z M232 277 L234 276 L235 278 L233 279 Z M150 277 L153 276 L154 278 L151 279 Z M229 276 L231 275 L232 277 L230 278 Z M161 276 L167 273 L170 274 L172 277 L162 278 Z M202 278 L202 275 L204 272 L212 273 L212 276 L210 279 Z M177 273 L178 272 L197 272 L198 278 L197 279 L180 279 Z M228 269 L230 268 L231 270 L229 271 Z M152 265 L153 264 L171 264 L175 270 L174 271 L172 270 L153 271 Z M224 254 L225 262 L223 272 L220 279 L216 281 L215 279 L218 271 L221 255 Z M190 252 L192 253 L193 263 L195 265 L201 265 L202 266 L201 268 L190 268 L189 267 L189 253 Z M153 249 L158 251 L160 255 L159 260 L152 259 Z M219 243 L222 246 L221 250 L219 249 L218 245 Z M216 239 L218 238 L219 240 L217 241 Z M215 235 L217 234 L218 236 L216 237 Z M190 233 L209 233 L214 248 L216 250 L215 253 L209 253 L207 255 L210 258 L214 259 L211 268 L208 268 L205 262 L198 260 L196 256 L197 252 L194 246 L189 244 L189 234 Z M153 233 L184 233 L185 234 L185 267 L184 268 L179 268 L173 260 L164 259 L164 254 L162 249 L152 244 L152 234 Z M150 227 L152 224 L158 223 L159 224 L206 226 L207 228 L206 229 L151 229 Z M362 218 L300 232 L299 240 L305 243 L297 247 L287 247 L271 257 L266 264 L268 275 L280 288 L299 296 L326 297 L346 291 L364 273 L365 252 L336 241 L324 243 L323 236 L362 228 L364 224 L355 224 Z M345 285 L344 287 L337 290 L322 293 L301 292 L288 287 L289 285 L293 285 L304 288 L326 288 L343 284 Z M284 263 L285 265 L282 267 L281 265 Z M270 268 L271 264 L277 258 L280 257 L281 260 L275 267 L276 269 L281 267 L282 268 L281 272 L286 271 L292 272 L293 277 L295 277 L302 271 L303 274 L300 277 L301 280 L304 278 L308 278 L316 281 L316 278 L314 276 L315 274 L319 275 L324 280 L327 280 L329 276 L334 279 L338 279 L348 274 L351 271 L353 265 L359 263 L361 266 L359 271 L353 276 L339 282 L327 284 L305 284 L290 281 L280 277 L274 273 Z M300 256 L302 255 L303 257 L301 258 Z M295 256 L297 255 L298 257 L296 258 Z M340 258 L345 254 L347 254 L349 261 L345 262 L341 260 Z M352 253 L357 252 L360 255 L354 259 L352 256 Z M335 247 L336 246 L342 247 L343 250 L337 254 L335 252 Z M317 232 L319 233 L319 253 L318 254 L316 253 L316 233 Z M29 215 L28 218 L35 226 L23 229 L18 240 L28 241 L26 256 L30 261 L37 252 L39 253 L36 284 L18 296 L18 301 L111 301 L110 295 L80 284 L83 274 L88 274 L89 269 L85 264 L78 263 L76 258 L68 253 L64 255 L66 261 L57 267 L57 270 L63 271 L57 282 L40 282 L44 248 L48 249 L51 262 L54 263 L60 255 L60 246 L69 248 L70 242 L63 232 L50 231 L44 218 L38 215 Z M71 290 L72 289 L83 289 L91 293 L92 295 L91 296 L77 296 Z M29 294 L37 288 L44 286 L55 286 L62 289 L67 295 L66 296 L30 296 Z M76 276 L77 281 L76 284 L73 285 L63 285 L62 284 L66 276 L68 277 L69 282 L72 282 L72 277 L74 275 Z M52 244 L56 248 L55 252 L53 251 L51 246 Z M35 243 L36 245 L31 250 L30 249 L31 246 Z M54 236 L57 235 L58 237 L55 238 Z M28 233 L30 231 L35 232 L34 235 L29 235 Z M89 211 L85 213 L84 221 L78 216 L76 216 L75 219 L76 221 L80 223 L80 225 L78 227 L70 228 L70 230 L73 231 L78 230 L80 232 L80 234 L75 238 L76 242 L83 236 L85 237 L86 246 L89 245 L89 238 L92 236 L94 237 L96 241 L99 241 L100 238 L95 233 L97 230 L99 231 L104 230 L104 227 L95 226 L95 224 L100 219 L99 216 L97 216 L92 221 L89 220 Z M83 227 L85 225 L90 225 L91 231 L85 232 Z M313 148 L313 150 L317 153 L324 150 L323 147 Z M431 128 L429 131 L432 134 L435 134 L436 132 L435 128 Z M402 105 L393 120 L393 134 L406 148 L393 152 L393 156 L407 163 L403 176 L390 174 L391 185 L407 189 L422 172 L424 192 L458 192 L460 189 L486 192 L489 162 L496 165 L495 138 L487 114 L464 101 L410 101 Z M459 176 L461 177 L460 184 L458 183 Z M466 169 L469 170 L470 180 L469 187 L465 186 L464 171 Z M429 164 L436 166 L436 179 L434 188 L426 187 L427 169 Z M417 164 L418 166 L416 168 L415 173 L412 179 L407 184 L398 185 L394 181 L396 179 L399 182 L403 182 L407 179 L409 174 L410 165 L412 163 Z M424 155 L426 154 L427 156 L425 157 Z M487 130 L489 141 L487 156 L483 168 L483 187 L474 187 L472 167 L476 162 L477 155 L473 155 L472 160 L467 165 L461 166 L460 161 L455 162 L454 187 L447 188 L444 165 L440 161 L432 160 L431 158 L446 149 L448 149 L453 154 L462 153 L472 147 Z M411 156 L413 122 L417 115 L426 107 L466 106 L474 109 L484 118 L485 122 L481 131 L465 146 L459 149 L452 148 L454 130 L452 122 L449 121 L450 134 L448 141 L444 145 L429 151 L429 144 L426 144 L417 156 Z M416 105 L417 108 L412 114 L408 124 L407 140 L404 141 L397 133 L397 122 L400 115 L406 108 L409 106 Z M186 95 L181 109 L169 124 L167 118 L163 117 L164 130 L155 138 L152 132 L148 132 L149 143 L145 149 L153 152 L151 179 L145 182 L145 191 L228 192 L229 181 L223 179 L221 152 L230 149 L225 142 L227 133 L222 132 L222 137 L219 138 L210 129 L212 118 L209 117 L207 123 L201 119 L190 96 Z M150 185 L151 184 L224 184 L225 187 L224 188 L151 188 Z M155 178 L156 177 L218 177 L219 179 L218 180 L156 180 Z M185 155 L190 155 L192 157 L192 172 L191 173 L183 172 L183 157 Z M213 150 L217 151 L217 172 L216 173 L212 172 L212 151 Z M160 150 L162 151 L162 172 L161 173 L159 172 L158 166 Z M169 143 L171 144 L171 172 L167 173 L166 172 L166 145 Z M204 142 L208 145 L208 172 L207 173 L203 172 L203 143 Z M198 141 L199 142 L199 156 L197 157 L191 151 L182 152 L179 156 L179 172 L177 173 L175 171 L175 142 L176 141 Z M176 135 L187 123 L198 134 L197 137 L177 137 Z M153 145 L179 120 L179 118 L181 117 L185 109 L188 107 L198 122 L221 146 L218 147 L195 125 L188 115 L185 116 L181 123 L164 141 L156 147 L154 147 Z M42 95 L26 104 L24 115 L34 127 L30 140 L39 149 L41 159 L35 183 L45 194 L58 202 L65 199 L65 194 L55 188 L52 180 L46 175 L50 155 L53 153 L57 159 L71 165 L70 149 L73 146 L90 146 L92 133 L88 129 L87 120 L79 112 L68 116 L60 115 L60 107 L53 101 L52 96 Z M56 194 L58 193 L60 196 L58 197 Z M41 177 L48 182 L49 188 L52 190 L51 193 L40 182 Z M32 104 L40 103 L44 99 L47 99 L49 104 L55 108 L55 121 L62 119 L70 120 L77 116 L83 122 L83 128 L88 135 L88 140 L70 143 L66 147 L64 156 L60 155 L58 150 L55 148 L50 148 L44 153 L42 145 L36 140 L39 130 L38 125 L29 114 L30 106 Z M306 93 L283 118 L274 148 L278 156 L279 173 L281 176 L289 175 L283 186 L296 195 L315 196 L332 187 L327 176 L337 174 L337 159 L342 140 L336 136 L336 127 L331 116 L311 94 Z M311 189 L315 188 L316 190 L312 191 Z M300 189 L303 188 L304 190 L301 191 Z M296 188 L298 187 L299 189 L297 190 Z M293 187 L295 186 L296 188 L294 189 Z M324 186 L323 188 L319 190 L317 189 L318 187 L322 185 Z M305 183 L310 182 L311 184 L306 185 Z M313 182 L315 181 L316 183 L314 184 Z M323 179 L322 181 L318 183 L316 182 L317 180 L321 178 Z M293 179 L295 178 L301 181 L302 183 L301 184 L297 183 Z M331 165 L334 167 L333 171 L330 170 Z M283 165 L285 166 L284 171 L282 170 Z M336 142 L337 146 L336 149 L334 150 L333 146 L334 143 Z M287 144 L293 142 L300 142 L303 145 L302 147 L297 148 L292 147 L291 150 L296 153 L299 151 L302 152 L302 160 L305 164 L300 165 L300 168 L304 170 L304 173 L306 175 L310 175 L312 173 L312 170 L315 168 L315 165 L311 164 L313 162 L312 158 L306 157 L308 151 L308 145 L314 144 L316 142 L328 143 L329 144 L328 160 L324 170 L319 175 L311 178 L298 176 L291 169 L287 154 Z M280 142 L282 143 L283 149 L282 151 L279 148 Z M287 136 L288 133 L294 128 L299 129 L321 128 L324 129 L328 133 L329 139 L327 140 L319 137 L312 139 L310 143 L308 144 L304 139 L298 137 L288 139 Z M287 123 L288 127 L285 129 L284 127 L285 124 Z M327 123 L329 122 L331 126 L328 127 Z M318 118 L319 115 L322 116 L320 119 Z M310 116 L312 115 L313 117 L311 118 Z M302 115 L304 114 L305 116 L303 117 Z M294 115 L296 114 L298 117 L295 118 Z M314 109 L317 108 L318 110 L315 111 Z M306 109 L308 108 L309 110 L307 111 Z"/></svg>
