<svg xmlns="http://www.w3.org/2000/svg" width="512" height="512" viewBox="0 0 512 512" aria-hidden="true" focusable="false"><path fill="currentColor" fill-rule="evenodd" clip-rule="evenodd" d="M333 483 L332 492 L335 493 L342 493 L343 491 L350 493 L356 492 L355 483 L353 482 L351 483 L347 482 L344 489 L342 488 L342 483 L339 482 Z M307 483 L306 490 L308 493 L316 492 L317 487 L319 488 L319 493 L322 492 L329 493 L329 482 Z M186 482 L186 484 L189 486 L186 492 L193 493 L197 490 L202 490 L203 493 L207 493 L209 483 L211 484 L212 489 L211 492 L215 493 L223 492 L234 493 L235 492 L235 482 L224 482 L226 484 L225 490 L222 489 L221 483 L219 482 L216 483 Z M196 484 L198 483 L199 485 L197 486 Z M173 483 L174 486 L173 492 L177 493 L183 492 L181 490 L181 486 L183 485 L183 483 L178 482 Z M286 478 L280 483 L279 486 L280 491 L285 496 L293 496 L298 492 L299 484 L293 478 Z M153 478 L147 483 L146 486 L147 491 L152 496 L160 496 L163 494 L165 490 L165 483 L159 478 Z M190 389 L188 390 L186 395 L182 398 L180 407 L178 410 L178 418 L176 421 L176 431 L178 433 L200 433 L203 430 L203 422 L201 419 L201 410 L199 407 L199 403 L196 397 L192 394 Z M179 425 L182 422 L188 423 L197 422 L198 423 L197 427 L192 428 L183 428 L180 427 Z M190 410 L193 411 L194 413 L191 416 L191 418 L188 420 L187 415 L185 415 L184 413 Z M194 403 L196 404 L196 407 L198 409 L197 411 L193 408 Z M189 403 L191 404 L190 408 L187 406 Z M191 399 L193 398 L194 400 L192 401 Z M187 398 L188 400 L186 403 L186 408 L181 414 L180 410 L182 408 L182 403 Z M228 375 L212 369 L220 376 L220 382 L229 386 L235 400 L232 409 L235 422 L227 439 L216 432 L221 419 L218 397 L209 386 L200 381 L188 379 L171 385 L163 393 L157 410 L159 424 L170 439 L183 445 L195 445 L210 438 L216 450 L202 457 L195 457 L192 454 L180 457 L163 449 L161 441 L151 435 L146 416 L149 409 L146 402 L150 391 L148 389 L140 414 L144 417 L152 446 L190 464 L218 451 L231 462 L238 461 L240 454 L228 440 L234 432 L242 410 L238 406 Z M189 456 L192 457 L191 461 L187 459 Z M226 443 L237 453 L236 459 L232 460 L221 449 L222 447 L225 446 Z M154 441 L157 440 L159 443 L155 445 Z M221 437 L225 442 L221 443 L218 446 L216 442 Z M214 434 L216 435 L215 438 L212 437 Z M234 410 L238 409 L239 412 L236 414 Z M142 410 L146 409 L147 412 L143 414 Z M160 403 L162 402 L163 404 L161 405 Z M185 386 L193 386 L205 391 L211 398 L215 412 L211 427 L203 435 L191 439 L182 438 L174 434 L166 425 L164 418 L164 407 L167 398 L175 390 Z M222 378 L226 377 L227 380 L224 382 Z M177 364 L169 367 L159 374 L155 374 L152 377 L152 384 L158 384 L161 382 L162 379 L160 376 L171 368 L177 366 Z M154 378 L158 377 L159 380 L155 382 Z M284 373 L272 390 L268 406 L268 428 L281 445 L306 460 L312 455 L314 459 L362 459 L359 451 L362 434 L358 436 L355 426 L349 428 L349 420 L342 422 L339 414 L334 422 L328 420 L327 428 L321 426 L319 435 L314 433 L315 453 L304 447 L297 432 L302 416 L311 422 L306 429 L344 405 L349 409 L354 399 L363 411 L360 432 L367 401 L365 390 L371 380 L358 384 L348 370 L324 360 L303 362 Z M305 456 L307 455 L308 457 L306 458 Z M300 454 L303 453 L305 456 L303 457 Z M306 452 L308 451 L309 453 L307 454 Z M300 449 L303 448 L304 450 L301 451 Z M337 445 L340 446 L339 452 L336 451 Z M328 443 L330 444 L329 450 L327 449 Z M334 440 L342 439 L343 444 L341 445 L339 442 L335 443 Z M353 438 L356 437 L357 439 L354 440 Z M319 438 L322 437 L323 439 L320 440 Z M293 436 L298 437 L301 443 L301 448 L298 449 L297 453 L287 448 L288 445 L294 446 L296 445 L292 441 Z M278 435 L279 434 L289 434 L290 435 L289 442 L287 443 L283 441 L282 437 L279 437 Z M347 433 L348 430 L353 431 L351 434 Z M336 431 L339 430 L340 432 L337 433 Z M324 431 L328 430 L329 433 L326 435 Z M342 426 L345 425 L346 428 L344 429 Z M331 425 L333 424 L334 427 L332 428 Z M270 425 L272 424 L274 427 L272 428 Z M367 382 L368 384 L362 390 L363 399 L361 400 L359 395 L355 393 L355 390 L350 388 L349 386 L351 385 L360 387 L365 382 Z M286 379 L288 381 L285 389 L291 398 L291 404 L289 405 L289 409 L294 414 L295 427 L293 428 L291 433 L280 432 L273 429 L274 427 L276 427 L273 416 L274 400 L280 385 L282 384 L281 381 Z M291 381 L295 381 L302 378 L303 381 L307 383 L306 393 L312 390 L318 391 L320 389 L325 391 L327 398 L331 402 L331 408 L329 410 L318 410 L318 412 L327 412 L328 414 L318 421 L316 420 L316 417 L314 415 L313 420 L307 419 L305 414 L300 414 L299 418 L297 419 L295 411 L291 408 L294 401 L292 395 L289 392 L289 384 Z M288 375 L304 367 L313 365 L324 365 L342 371 L343 373 L346 371 L346 375 L350 375 L356 382 L353 383 L352 381 L344 381 L341 383 L341 386 L350 391 L351 393 L347 396 L341 396 L340 400 L343 403 L333 410 L332 400 L328 396 L328 392 L323 387 L319 387 L317 389 L310 389 L309 382 L303 376 L300 375 L294 379 L289 379 Z M180 363 L180 365 L186 365 L188 368 L193 368 L195 365 L201 365 L210 368 L210 366 L206 364 L198 363 L191 358 L183 363 Z M188 362 L192 361 L193 365 L189 366 Z M430 324 L431 332 L440 332 L441 324 L443 325 L444 332 L471 332 L472 331 L479 332 L481 325 L479 322 L476 321 L470 321 L469 323 L464 321 L461 322 L457 321 L455 325 L453 324 L453 322 L450 321 L444 321 L443 323 L432 321 Z M454 327 L456 328 L455 331 L452 330 Z M306 323 L308 328 L307 332 L311 331 L317 332 L315 329 L316 327 L318 327 L319 330 L323 332 L327 332 L329 330 L336 332 L342 332 L343 327 L345 328 L345 331 L350 332 L356 331 L355 322 L352 321 L350 322 L347 321 L345 324 L340 321 L338 322 L334 321 L332 324 L332 327 L330 328 L328 326 L326 330 L324 329 L324 326 L326 325 L325 322 L319 327 L317 326 L318 324 L317 322 L311 321 Z M182 332 L187 331 L192 332 L192 329 L195 328 L196 329 L195 332 L199 331 L232 332 L231 330 L232 324 L231 321 L224 321 L221 322 L221 325 L219 326 L218 321 L208 321 L208 327 L206 328 L204 326 L204 321 L196 321 L195 327 L192 326 L193 322 L187 321 L183 322 Z M204 329 L206 328 L207 330 L205 331 Z M219 327 L221 328 L220 331 L217 330 Z M184 325 L186 324 L187 326 L185 327 Z M55 321 L55 325 L57 327 L56 330 L59 331 L66 331 L65 328 L68 326 L69 332 L77 332 L77 328 L79 324 L81 325 L81 331 L87 332 L92 331 L102 332 L105 328 L104 322 L101 321 L95 321 L94 323 L91 321 L86 321 L81 323 L77 323 L74 321 L70 323 L64 323 L63 321 L60 322 Z M91 328 L93 327 L94 329 L92 330 Z M88 328 L90 327 L91 329 L89 330 Z M408 318 L404 324 L404 328 L406 332 L410 335 L420 334 L424 328 L424 324 L422 320 L418 317 Z M286 317 L280 323 L280 330 L286 335 L293 335 L298 331 L299 323 L293 317 Z M160 318 L156 324 L156 328 L158 332 L162 335 L172 334 L175 329 L175 325 L172 319 L169 317 Z M36 317 L30 322 L29 329 L35 335 L42 335 L48 330 L48 322 L42 317 Z M441 225 L434 234 L426 232 L425 242 L419 244 L418 248 L423 257 L420 261 L420 264 L428 268 L437 267 L443 271 L447 267 L456 268 L465 263 L461 256 L464 254 L467 246 L460 242 L460 235 L458 233 L450 234 L448 230 L443 225 Z M441 260 L445 262 L445 265 L443 267 L441 267 L439 264 Z M451 264 L452 262 L455 262 L456 259 L461 261 L457 265 Z M433 258 L434 260 L431 261 L430 265 L424 262 L425 260 L429 258 Z M456 254 L458 253 L459 255 L457 256 Z M442 248 L445 251 L445 254 L443 257 L440 256 L440 250 Z M453 249 L457 246 L463 247 L463 250 L460 254 L458 253 L459 249 L457 249 L455 252 L453 251 Z M422 246 L428 247 L426 249 L427 252 L426 254 L423 252 L421 248 Z M438 244 L439 246 L437 252 L435 253 L434 247 L436 244 Z M438 242 L440 241 L441 243 L439 244 Z M441 238 L443 238 L447 244 L450 245 L451 251 L449 254 L447 253 L447 248 L445 247 L444 243 L440 241 Z M453 236 L457 237 L456 244 L451 239 Z M429 236 L434 238 L433 240 L431 240 L430 244 L427 242 L427 238 Z M444 234 L446 233 L447 235 L445 236 Z M440 231 L443 229 L445 232 L441 233 Z M194 204 L192 206 L192 211 L188 217 L192 223 L189 225 L186 221 L185 232 L183 233 L181 230 L181 238 L178 239 L176 245 L176 252 L180 259 L185 262 L189 262 L195 267 L199 262 L206 261 L210 257 L212 253 L211 239 L208 238 L208 230 L204 230 L203 222 L200 224 L197 223 L199 220 L199 215 Z M193 261 L195 260 L196 262 L194 263 Z M207 252 L208 256 L205 259 L201 260 L200 257 Z M179 253 L180 252 L184 253 L188 257 L188 259 L186 260 L182 258 Z M193 252 L195 251 L196 253 L194 254 Z M203 248 L204 251 L201 254 L200 252 L201 249 Z M195 233 L203 247 L201 248 L194 239 L188 248 L189 253 L187 254 L184 252 L183 249 L186 246 L187 242 L189 241 L189 238 L193 233 Z M186 228 L188 227 L189 229 L187 230 Z M192 214 L194 213 L195 215 L193 216 Z M438 200 L421 206 L411 215 L405 225 L402 240 L394 246 L394 262 L405 271 L411 270 L413 267 L413 241 L410 237 L410 232 L414 224 L424 214 L432 210 L453 210 L465 217 L474 229 L476 237 L473 240 L472 266 L475 272 L469 278 L461 282 L452 283 L448 279 L437 279 L433 282 L433 286 L436 289 L448 289 L452 285 L459 285 L469 281 L478 271 L487 266 L491 260 L491 248 L489 244 L483 240 L481 228 L475 217 L466 208 L455 202 Z M437 282 L447 282 L449 285 L446 287 L439 287 L436 285 Z M484 244 L489 248 L489 261 L486 264 L483 263 L483 245 Z M400 244 L402 245 L402 263 L399 264 L396 260 L396 249 Z M476 240 L479 240 L481 243 L481 266 L479 268 L475 267 L475 241 Z M407 240 L410 242 L410 267 L409 268 L405 267 L405 242 Z M472 221 L474 220 L475 222 L473 223 Z M411 220 L413 219 L414 221 L412 222 Z M418 213 L419 215 L415 218 L414 216 Z M419 212 L421 211 L422 213 L420 214 Z M421 210 L424 209 L425 211 L422 212 Z M424 208 L436 203 L449 203 L462 208 L472 218 L470 219 L461 211 L452 207 L437 206 L426 210 Z M169 201 L167 209 L165 210 L162 206 L160 216 L155 215 L154 223 L157 227 L150 225 L150 232 L155 238 L153 239 L150 236 L147 236 L148 242 L155 248 L147 248 L152 256 L157 257 L151 259 L151 262 L158 267 L156 271 L164 275 L163 280 L169 281 L174 278 L175 280 L171 285 L182 285 L186 291 L190 291 L195 296 L208 284 L216 286 L218 280 L226 280 L225 275 L233 271 L231 267 L238 262 L238 259 L232 257 L237 256 L241 251 L241 248 L236 247 L241 241 L241 236 L237 235 L238 225 L232 227 L235 219 L233 215 L229 214 L227 206 L222 211 L222 205 L219 201 L215 203 L207 199 L208 205 L212 207 L209 211 L216 214 L215 217 L224 228 L223 232 L226 236 L224 238 L226 243 L224 253 L221 254 L221 258 L213 268 L206 271 L204 275 L198 275 L194 270 L190 275 L184 277 L181 270 L175 268 L167 255 L162 254 L165 249 L164 246 L157 252 L154 250 L164 241 L161 236 L166 231 L164 228 L174 213 L179 211 L177 207 L181 199 L176 200 L173 204 Z M201 283 L203 282 L204 284 L202 285 Z M214 279 L216 278 L217 280 L215 281 Z M202 278 L204 277 L205 279 L203 280 Z M183 278 L185 277 L186 279 L184 280 Z M193 275 L195 274 L196 276 L194 277 Z M175 274 L177 273 L178 276 L176 277 Z M158 266 L161 265 L162 267 L159 268 Z M163 264 L165 263 L166 265 L164 266 Z M160 256 L162 255 L163 257 L161 258 Z M225 255 L227 254 L228 256 L226 257 Z M228 247 L230 246 L231 248 L229 249 Z M158 237 L160 236 L161 238 L159 239 Z M234 236 L237 235 L238 237 L235 238 Z M158 229 L160 228 L161 230 L159 231 Z M228 216 L230 215 L231 217 L229 218 Z M318 191 L316 197 L293 216 L287 233 L278 240 L275 254 L280 267 L274 273 L285 282 L282 288 L295 282 L300 290 L297 296 L308 292 L319 281 L332 294 L341 297 L338 292 L341 283 L356 288 L353 282 L364 273 L357 267 L362 257 L362 246 L350 232 L346 218 L328 204 Z M300 282 L305 288 L304 290 L300 287 L299 284 Z M339 279 L340 280 L339 285 L334 291 L332 291 L331 289 L335 285 L337 280 Z M283 276 L285 275 L289 279 L287 280 Z M344 275 L348 270 L357 270 L359 272 L352 280 L349 280 L348 278 L352 276 L353 273 L348 276 Z M279 271 L289 270 L292 272 L293 275 L291 276 L284 273 L284 275 L282 276 Z M349 261 L353 262 L351 268 L348 265 Z M285 262 L288 261 L290 264 L286 266 Z M344 260 L346 263 L345 270 L341 274 L336 275 L335 273 L338 272 L340 269 L339 267 L336 270 L335 269 L336 266 Z M293 260 L300 264 L299 266 L297 266 L297 269 L299 271 L298 274 L294 272 L292 266 Z M345 253 L347 252 L348 254 L346 255 Z M326 250 L328 251 L330 257 L330 273 L335 278 L335 281 L331 286 L326 284 L321 279 L320 275 L321 255 L323 254 L325 258 Z M339 250 L343 249 L344 251 L340 252 Z M313 249 L314 251 L312 258 L315 255 L317 256 L318 276 L314 282 L306 286 L303 278 L308 273 L309 254 L311 250 Z M319 247 L321 246 L322 248 L320 249 Z M343 244 L345 245 L344 249 L342 248 Z M299 242 L300 244 L297 247 L296 244 Z M339 239 L341 240 L340 246 L337 244 Z M315 239 L317 238 L318 241 L316 242 Z M295 238 L296 240 L294 242 L290 242 L291 250 L287 251 L288 257 L283 258 L281 254 L281 249 L283 244 L288 239 Z M321 237 L324 240 L325 243 L324 245 L321 242 L320 239 Z M333 234 L338 233 L340 238 L336 239 Z M300 232 L303 234 L303 237 L301 239 L298 238 Z M346 231 L348 230 L349 232 L347 233 Z M326 224 L329 222 L332 222 L335 229 L333 230 L331 225 L327 226 Z M316 217 L318 218 L318 221 L329 231 L329 236 L334 237 L332 245 L335 245 L338 248 L338 251 L335 257 L341 254 L344 255 L343 258 L339 260 L334 266 L331 265 L331 254 L322 229 L315 230 L306 255 L305 265 L303 265 L300 261 L291 255 L292 252 L294 254 L301 255 L301 246 L306 245 L305 237 L306 236 L310 237 L307 234 L307 230 L313 229 L312 226 L308 226 L305 223 L306 222 L312 223 L313 219 Z M295 218 L298 215 L303 216 L304 214 L312 210 L310 206 L314 202 L319 203 L324 208 L328 206 L329 207 L328 211 L330 211 L334 215 L338 213 L339 214 L338 218 L340 220 L342 218 L345 220 L343 222 L343 226 L345 230 L345 238 L348 238 L350 236 L351 240 L353 238 L356 239 L354 243 L356 245 L357 257 L356 258 L349 257 L350 251 L346 249 L348 242 L342 241 L340 230 L337 229 L333 219 L326 220 L326 222 L324 223 L318 217 L319 215 L322 214 L319 210 L313 219 L310 220 L304 219 L301 229 L298 230 L296 235 L293 234 L294 226 L297 222 Z M110 207 L90 207 L109 230 L109 248 L105 255 L105 265 L109 272 L104 277 L100 272 L102 258 L99 232 L96 236 L94 258 L96 272 L94 275 L89 272 L86 239 L76 216 L72 188 L67 218 L57 240 L59 249 L55 252 L56 267 L51 277 L47 270 L49 258 L46 232 L43 237 L43 256 L39 259 L34 248 L34 230 L53 207 L33 207 L32 242 L26 257 L29 276 L25 290 L34 296 L40 293 L43 297 L100 297 L103 293 L109 296 L116 292 L119 287 L114 272 L118 265 L118 254 L111 242 Z M83 288 L87 287 L88 289 L84 290 Z M75 288 L80 287 L81 289 L76 290 Z M64 288 L66 287 L67 289 L65 290 Z M56 288 L62 287 L63 289 L57 290 Z M51 288 L54 287 L55 289 L52 290 Z M108 282 L110 283 L109 287 L107 286 Z M35 282 L37 283 L36 287 L33 285 Z M99 280 L100 283 L95 287 L94 284 L97 280 Z M45 280 L49 282 L48 288 L46 287 L46 284 L44 283 Z M70 271 L74 270 L75 274 L71 275 Z M41 260 L43 264 L43 272 L41 276 L39 277 L34 272 L34 268 L38 265 L39 261 Z M27 260 L29 259 L30 261 L28 262 Z M110 258 L112 257 L113 259 L111 260 Z M77 253 L84 252 L85 260 L83 261 L82 259 L79 259 Z M58 253 L64 252 L65 258 L59 259 Z M71 251 L76 257 L75 260 L73 258 L70 258 L69 260 L67 259 L67 256 Z M73 239 L82 238 L84 243 L77 245 L74 243 Z M59 242 L61 238 L70 239 L67 245 L61 245 Z M66 226 L69 224 L75 224 L78 228 L77 229 L73 228 L67 229 Z M430 154 L431 164 L435 162 L438 164 L441 161 L439 159 L440 156 L443 156 L447 159 L446 161 L443 162 L445 164 L448 161 L453 164 L454 163 L459 164 L460 163 L466 164 L470 163 L471 164 L473 162 L478 164 L479 160 L481 159 L480 153 L477 152 L475 153 L470 152 L469 154 L467 153 L460 154 L459 152 L457 152 L455 155 L446 152 L443 155 L440 155 L438 152 L432 152 Z M467 160 L469 159 L470 161 L468 162 Z M467 156 L469 155 L470 157 L468 158 Z M456 155 L457 160 L454 162 L451 160 L451 158 Z M448 153 L450 154 L449 157 L446 156 Z M332 154 L332 157 L334 158 L333 163 L342 163 L341 161 L342 157 L345 158 L345 163 L350 164 L356 163 L356 155 L353 152 L351 152 L350 154 L348 152 L346 154 L338 152 Z M307 153 L307 163 L308 164 L309 163 L316 164 L317 163 L320 164 L330 163 L330 159 L328 157 L327 152 L322 152 L320 158 L318 157 L318 153 L313 152 Z M208 154 L213 164 L214 161 L219 156 L222 158 L220 162 L221 164 L224 163 L227 164 L232 162 L232 153 L221 152 L221 154 L219 155 L212 152 L211 154 Z M183 153 L184 159 L182 160 L183 163 L188 162 L199 164 L206 162 L206 158 L204 157 L203 152 L196 153 L196 157 L193 160 L191 159 L191 156 L193 155 L193 153 L188 152 Z M198 156 L201 155 L202 157 L199 158 Z M55 161 L56 164 L58 162 L61 164 L66 162 L69 164 L70 163 L73 164 L74 163 L78 164 L79 163 L84 164 L85 163 L87 164 L88 163 L91 164 L92 163 L95 164 L102 163 L104 164 L106 153 L103 152 L98 154 L93 154 L91 152 L56 153 Z M67 154 L69 155 L68 160 L66 159 Z M407 150 L404 155 L404 159 L408 165 L418 166 L423 162 L424 155 L421 150 L417 148 L411 148 Z M284 149 L280 154 L281 162 L286 166 L294 166 L299 161 L298 152 L293 148 Z M163 148 L157 153 L156 157 L157 161 L162 166 L170 166 L175 161 L175 154 L171 149 Z M36 148 L31 151 L29 160 L35 166 L43 166 L48 161 L49 158 L48 153 L42 148 Z M340 67 L339 71 L344 72 L345 67 Z M289 66 L289 100 L291 103 L347 104 L350 102 L351 66 L344 59 L337 59 L334 62 L328 54 L312 54 L306 62 L293 62 Z M315 83 L322 82 L326 85 L326 90 L325 91 L322 90 L322 92 L325 93 L324 95 L316 94 L318 91 L318 87 L314 85 Z M319 74 L322 75 L321 80 L319 80 L317 77 Z M322 67 L329 69 L336 78 L337 82 L336 88 L332 94 L330 94 L327 89 L327 83 L324 80 L325 76 L321 69 Z M318 67 L319 69 L316 74 L316 80 L313 83 L312 92 L308 94 L304 85 L305 78 L307 73 L311 69 Z M292 67 L296 64 L307 64 L310 62 L312 57 L328 57 L332 64 L347 65 L348 100 L346 102 L328 101 L337 91 L338 78 L335 72 L330 67 L324 64 L316 64 L308 68 L302 78 L303 91 L312 101 L294 102 L291 97 Z M194 43 L184 57 L184 64 L181 68 L178 90 L174 104 L214 105 L215 100 L211 89 L212 84 L209 70 L206 65 L206 59 L204 54 Z M179 97 L180 96 L210 96 L211 98 L210 99 L180 99 Z M183 85 L186 82 L192 84 L198 83 L205 84 L204 87 L188 88 L184 87 Z M205 72 L207 73 L206 81 L204 80 Z M203 70 L205 69 L206 71 L204 72 Z M188 71 L194 67 L200 70 L202 80 L200 81 L198 79 L193 82 L191 74 L189 74 Z M194 58 L197 60 L197 65 L195 67 L191 63 L191 61 Z M192 52 L193 54 L189 60 L190 67 L186 70 L185 80 L182 82 L181 77 L182 71 L185 67 L185 60 L188 54 Z M197 51 L202 55 L203 66 L205 67 L204 69 L199 66 L199 58 L196 53 Z M315 31 L296 38 L285 48 L279 58 L276 69 L273 70 L272 66 L269 66 L269 73 L266 77 L266 86 L274 93 L274 100 L290 120 L306 129 L324 131 L341 126 L356 113 L360 105 L364 102 L366 94 L372 88 L373 81 L370 77 L370 67 L368 66 L357 83 L360 94 L356 105 L351 111 L352 114 L349 117 L346 116 L333 124 L323 126 L311 125 L300 121 L289 113 L282 99 L278 98 L279 90 L282 88 L282 82 L277 76 L280 75 L282 64 L288 53 L300 42 L317 36 L333 38 L345 44 L352 52 L358 64 L359 71 L361 71 L359 62 L360 57 L349 42 L330 32 Z M366 82 L368 81 L369 83 L367 84 Z M427 29 L409 48 L409 74 L405 75 L400 63 L397 63 L393 83 L400 89 L399 99 L404 107 L400 117 L401 129 L409 127 L431 133 L450 133 L474 127 L482 129 L484 117 L478 108 L490 84 L486 63 L476 79 L481 96 L478 104 L472 81 L454 72 L460 58 L450 40 L434 39 L428 46 L428 54 L424 56 L430 72 L408 83 L407 76 L412 77 L409 66 L412 47 L423 34 L438 28 L456 31 L468 41 L475 57 L472 76 L475 74 L476 51 L463 33 L448 26 Z M448 124 L457 123 L459 127 L451 130 Z M481 119 L482 122 L479 125 L478 123 L479 120 Z M428 118 L430 117 L431 119 L429 120 Z M470 114 L472 116 L473 122 L472 123 L469 122 L470 126 L467 128 L464 128 L458 120 L459 119 L466 120 L467 118 L465 118 L464 116 L467 114 Z M446 115 L449 114 L452 117 L452 119 L446 120 L445 119 Z M459 111 L460 114 L457 117 L456 115 L457 112 Z M432 105 L430 108 L424 111 L421 109 L422 107 L430 104 Z M443 103 L442 110 L433 119 L431 118 L432 114 L426 116 L421 115 L422 113 L426 113 L430 111 L435 106 L439 105 L441 102 Z M448 98 L450 99 L449 103 L447 102 Z M442 97 L436 103 L434 102 L434 100 L425 104 L421 103 L422 101 L438 93 Z M470 88 L472 89 L477 111 L476 118 L473 117 L474 114 L472 112 L467 111 L472 105 L471 104 L467 108 L464 107 L467 104 L470 97 L469 92 Z M408 86 L409 87 L407 102 L404 103 L403 96 L405 94 L405 88 Z M485 83 L487 82 L488 84 L486 85 Z M468 80 L469 82 L466 88 L464 98 L463 99 L459 98 L457 107 L453 109 L452 112 L449 114 L448 111 L455 91 L456 79 L458 77 L461 77 Z M453 77 L454 78 L453 89 L451 97 L449 98 L448 94 L450 89 L451 78 Z M431 75 L433 76 L433 78 L436 78 L438 82 L436 83 L429 80 L426 80 L426 82 L434 85 L437 85 L439 83 L441 87 L432 94 L424 98 L422 97 L421 93 L419 93 L419 104 L417 114 L411 115 L411 117 L416 117 L426 124 L431 124 L435 122 L438 128 L434 130 L430 130 L426 128 L418 128 L407 122 L407 112 L410 101 L411 89 L413 84 L416 81 Z M437 74 L439 73 L440 75 L443 75 L444 77 L439 78 Z M444 75 L447 72 L449 73 L446 76 Z M439 62 L442 61 L444 65 L441 67 Z M439 40 L445 40 L449 42 L454 48 L454 65 L452 66 L451 70 L449 70 L448 67 L446 66 L451 61 L451 57 L448 55 L444 56 L442 59 L440 58 L440 56 L437 55 L433 56 L433 61 L435 62 L437 66 L433 70 L432 66 L430 65 L430 48 L435 42 Z M193 23 L181 35 L160 41 L160 84 L150 72 L146 92 L155 109 L164 112 L178 128 L195 136 L213 127 L225 112 L238 105 L243 84 L240 83 L240 72 L234 82 L230 82 L230 41 L207 35 Z M205 121 L207 120 L208 122 L206 123 Z M227 106 L229 105 L230 107 L228 108 Z M160 103 L162 104 L163 107 L162 109 L158 107 Z M163 103 L165 102 L166 104 L164 105 Z M231 92 L235 94 L234 100 L229 99 L229 95 Z M159 91 L160 99 L155 100 L154 94 Z M196 34 L204 41 L223 48 L222 100 L215 115 L211 114 L200 119 L194 110 L188 119 L181 116 L178 119 L171 111 L166 97 L165 50 Z M70 17 L67 38 L51 44 L36 58 L29 73 L29 86 L23 82 L22 100 L25 105 L32 106 L35 112 L31 115 L36 120 L53 128 L65 128 L72 134 L77 128 L90 128 L108 119 L110 107 L119 103 L120 94 L119 82 L112 86 L111 68 L104 55 L93 45 L74 38 Z M101 111 L102 117 L97 119 L96 115 Z M103 107 L105 106 L106 109 L104 110 Z M49 101 L52 102 L52 114 L50 116 L48 115 L48 102 Z M71 88 L73 89 L73 91 L78 98 L77 104 L74 102 L72 98 L70 98 L66 103 L64 102 L64 97 L68 92 L68 90 Z M48 85 L50 84 L51 87 L49 88 Z M91 82 L93 83 L94 86 L93 88 L90 87 Z M77 69 L81 68 L82 70 L78 71 Z M60 69 L64 68 L65 70 L61 71 Z M73 60 L76 59 L77 61 L74 62 Z M64 60 L68 59 L69 62 L67 63 Z M77 42 L85 44 L94 49 L102 57 L109 70 L110 90 L112 92 L109 93 L105 97 L105 105 L101 106 L98 109 L96 108 L96 99 L97 95 L102 90 L103 75 L100 74 L100 76 L96 80 L92 80 L91 70 L89 70 L87 74 L85 73 L84 66 L79 58 L79 54 L76 49 Z M66 42 L67 44 L63 54 L63 58 L57 68 L57 71 L55 73 L53 72 L53 70 L51 71 L51 79 L46 81 L41 76 L41 74 L39 75 L40 82 L39 88 L40 91 L43 92 L45 96 L45 108 L43 109 L41 106 L39 107 L45 113 L45 119 L43 120 L39 117 L40 112 L38 110 L36 111 L34 110 L37 104 L37 99 L32 92 L31 88 L32 71 L37 60 L46 50 L56 44 Z"/></svg>
