<svg xmlns="http://www.w3.org/2000/svg" width="512" height="512" viewBox="0 0 512 512" aria-hidden="true" focusable="false"><path fill="currentColor" fill-rule="evenodd" clip-rule="evenodd" d="M296 257 L297 261 L300 259 L307 260 L307 272 L305 274 L306 286 L315 286 L315 259 L326 260 L325 286 L334 286 L333 274 L337 272 L343 273 L344 286 L364 286 L364 279 L367 276 L374 276 L379 286 L398 285 L397 252 L389 253 L388 282 L383 277 L382 272 L375 261 L376 259 L371 252 L367 254 L366 261 L359 270 L358 277 L354 282 L352 281 L351 252 L344 252 L343 265 L333 264 L333 252 L298 252 L298 256 Z M129 252 L128 253 L128 286 L136 286 L136 253 Z M125 286 L124 278 L120 275 L116 262 L111 255 L111 251 L107 251 L98 274 L92 282 L90 281 L89 252 L81 252 L81 265 L71 264 L71 258 L73 257 L72 252 L37 252 L34 257 L35 261 L39 259 L44 260 L44 286 L52 286 L53 259 L63 260 L63 286 L73 286 L71 274 L74 272 L82 273 L82 286 L101 286 L101 282 L106 276 L113 276 L116 286 Z M413 137 L408 152 L412 165 L410 187 L405 188 L402 212 L405 246 L418 262 L443 274 L453 296 L435 279 L415 281 L413 290 L423 291 L429 304 L407 300 L400 305 L415 318 L415 330 L407 345 L396 346 L393 357 L401 355 L404 363 L364 363 L322 342 L299 313 L287 275 L291 233 L315 195 L346 172 L386 159 L401 160 L402 156 L358 159 L320 178 L293 207 L277 253 L278 289 L293 327 L326 360 L373 378 L419 373 L456 354 L488 316 L498 284 L477 288 L493 276 L494 241 L466 250 L471 234 L488 232 L488 210 L447 173 L454 208 L448 210 L444 190 L418 153 Z M420 366 L423 365 L424 367 L421 368 Z M420 358 L423 357 L424 359 L421 360 Z M409 358 L414 357 L417 361 L414 363 Z M334 358 L338 357 L346 362 L352 363 L353 365 L366 366 L368 368 L382 368 L384 370 L387 370 L389 368 L399 368 L400 366 L402 367 L404 366 L408 368 L409 370 L403 372 L389 372 L387 374 L383 374 L381 372 L361 371 L359 369 L351 368 L350 366 L345 364 L343 365 L342 363 L335 360 Z M407 356 L409 355 L410 357 L408 358 Z M330 355 L332 354 L335 357 L332 358 Z M426 353 L428 352 L429 354 L427 355 Z M325 352 L327 351 L330 352 L331 354 L327 355 Z M399 350 L403 349 L404 351 L400 352 Z M321 349 L324 348 L326 351 L323 352 Z M318 347 L320 346 L321 348 L319 349 Z M448 351 L448 347 L450 346 L451 343 L459 344 L455 349 L453 349 L450 352 Z M442 333 L444 332 L445 334 L443 335 Z M472 331 L471 333 L469 333 L468 336 L463 335 L463 333 L468 329 Z M302 327 L317 342 L318 344 L317 346 L304 334 L304 332 L301 329 Z M421 324 L423 325 L424 328 L423 333 L418 332 Z M299 322 L302 325 L301 328 L299 327 L298 324 Z M296 320 L298 319 L299 322 L297 323 Z M457 316 L458 319 L456 321 L456 326 L451 331 L450 326 L452 324 L452 317 Z M428 317 L430 316 L431 318 L429 319 Z M293 315 L295 314 L296 316 L294 317 Z M482 311 L483 315 L477 322 L474 321 L475 315 Z M466 310 L468 309 L469 311 L467 312 Z M290 309 L292 308 L293 310 L291 311 Z M468 303 L470 304 L469 309 L467 308 Z M410 304 L412 303 L414 305 L422 306 L428 312 L429 316 L427 317 L418 309 L413 308 Z M289 303 L291 304 L290 308 L288 307 Z M435 302 L438 303 L440 306 L440 309 L443 315 L442 317 L437 313 L436 307 L434 305 Z M287 301 L289 300 L290 302 L288 303 Z M285 296 L287 295 L288 297 L286 298 Z M481 292 L485 291 L491 292 L487 303 L480 302 Z M439 290 L441 289 L442 291 L440 292 Z M284 290 L286 289 L287 291 L285 292 Z M436 287 L438 286 L440 289 L438 290 Z M418 285 L421 283 L431 283 L434 284 L435 286 L434 287 L431 286 L419 287 Z M282 284 L284 283 L285 285 L283 286 Z M467 278 L469 279 L469 289 L468 290 L466 289 L466 286 L464 285 L463 282 Z M280 268 L282 267 L283 270 L281 271 Z M479 262 L481 269 L475 273 L472 270 L472 268 Z M436 263 L439 262 L441 264 L449 265 L453 269 L449 270 L448 268 L438 267 Z M280 260 L282 259 L283 262 L281 263 Z M472 254 L474 253 L475 255 L473 256 Z M485 252 L487 251 L488 253 L486 254 Z M464 251 L466 250 L467 253 L465 254 Z M486 247 L485 252 L479 252 L477 254 L474 253 L479 248 L483 248 L484 246 Z M446 245 L450 246 L449 255 L445 251 Z M412 246 L414 245 L415 247 L413 248 Z M410 240 L413 242 L412 246 L410 245 L409 242 Z M432 237 L434 238 L435 249 L437 250 L436 254 L430 254 L428 248 L426 247 L426 243 L429 242 Z M407 223 L410 224 L409 229 L406 228 Z M471 219 L473 222 L473 226 L465 234 L464 239 L462 240 L461 255 L459 256 L458 255 L459 235 L467 222 Z M483 217 L486 219 L486 226 L484 228 L482 227 Z M457 215 L459 217 L456 225 L454 226 L453 231 L449 233 L447 231 L447 227 Z M447 210 L448 213 L450 214 L450 218 L443 225 L442 231 L440 232 L440 239 L438 240 L437 239 L437 226 L434 226 L427 232 L426 225 L428 224 L428 220 L432 216 L442 216 L444 212 Z M431 201 L434 209 L430 211 L424 218 L423 231 L419 233 L418 232 L418 221 L420 219 L421 213 Z M456 189 L457 188 L461 189 L459 193 L459 197 L461 198 L463 202 L467 202 L471 199 L477 205 L476 207 L477 209 L475 210 L472 207 L469 207 L464 213 L461 207 L455 203 Z M430 182 L432 182 L435 186 L434 191 L428 188 Z M417 159 L424 167 L424 174 L421 177 L421 186 L424 187 L423 198 L418 202 L415 209 L411 213 L407 205 L412 197 L418 197 L420 195 L420 188 L413 182 L415 171 L417 170 L417 166 L415 165 L414 160 Z M151 135 L147 139 L149 186 L144 188 L139 215 L142 243 L152 259 L179 273 L190 293 L169 278 L152 283 L152 290 L160 291 L167 304 L155 300 L139 303 L153 318 L147 342 L131 351 L131 358 L138 355 L141 363 L102 363 L69 349 L41 319 L25 278 L30 231 L51 198 L95 167 L140 160 L141 156 L95 159 L54 181 L31 207 L15 251 L20 303 L39 338 L74 366 L112 378 L158 373 L190 357 L222 323 L235 282 L217 286 L233 273 L233 242 L217 243 L203 253 L210 234 L222 235 L228 229 L225 207 L220 207 L219 201 L189 173 L185 174 L190 189 L188 217 L178 237 L176 226 L165 231 L166 221 L184 211 L185 199 L173 172 L157 154 Z M158 366 L162 365 L163 367 L159 368 Z M215 287 L217 286 L218 288 L216 289 Z"/></svg>
