<svg xmlns="http://www.w3.org/2000/svg" width="512" height="512" viewBox="0 0 512 512" aria-hidden="true" focusable="false"><path fill="currentColor" fill-rule="evenodd" clip-rule="evenodd" d="M290 491 L290 495 L298 495 L297 488 L293 488 Z M278 485 L276 489 L277 491 L281 491 L282 486 Z M217 491 L218 495 L229 495 L230 491 L227 489 L227 487 L234 486 L236 488 L235 490 L236 495 L261 495 L262 494 L261 488 L264 486 L265 495 L271 494 L271 489 L268 487 L268 481 L250 481 L248 485 L246 484 L245 481 L238 481 L237 483 L235 483 L234 481 L227 481 L226 482 L227 484 L223 485 L222 489 Z M241 487 L244 486 L245 489 L242 490 Z M322 492 L327 493 L327 490 L330 488 L334 492 L334 495 L346 495 L347 491 L350 495 L355 495 L355 490 L360 488 L361 493 L366 493 L366 490 L369 489 L370 495 L375 495 L375 490 L379 488 L381 489 L382 493 L386 493 L387 491 L395 493 L396 489 L398 488 L400 495 L418 495 L418 492 L421 490 L422 486 L424 487 L424 492 L429 493 L434 486 L434 479 L431 476 L428 476 L425 479 L420 479 L417 476 L407 476 L405 479 L399 479 L399 482 L397 483 L396 479 L390 479 L388 476 L385 476 L382 479 L377 479 L374 476 L364 476 L362 479 L358 476 L355 476 L353 479 L347 479 L344 476 L341 476 L340 481 L343 483 L343 489 L338 490 L336 483 L332 482 L332 477 L328 476 L326 479 L327 482 L322 488 Z M359 485 L362 484 L363 487 L360 488 Z M348 485 L353 484 L354 489 L349 490 Z M410 482 L415 483 L414 490 L409 489 Z M317 476 L313 477 L313 480 L311 481 L311 484 L308 486 L308 489 L306 491 L306 495 L312 494 L311 492 L314 490 L314 487 L316 486 L316 483 L318 481 Z M290 477 L291 482 L296 482 L298 486 L302 486 L301 476 L291 476 Z M214 486 L209 484 L208 476 L205 476 L203 481 L195 481 L192 485 L190 485 L188 481 L182 481 L178 483 L175 479 L170 479 L169 481 L135 481 L134 479 L129 479 L128 481 L126 481 L125 479 L120 479 L119 481 L113 481 L113 495 L125 495 L126 486 L129 487 L129 495 L134 495 L135 493 L140 493 L142 491 L148 491 L149 495 L154 495 L156 486 L161 491 L165 491 L166 487 L168 486 L170 488 L170 495 L175 495 L176 486 L179 487 L179 495 L190 495 L192 493 L198 493 L198 487 L203 486 L204 489 L201 491 L201 494 L209 495 L209 492 L214 490 Z M184 487 L187 486 L188 489 L185 490 Z M79 483 L79 488 L82 491 L85 491 L86 493 L89 493 L91 495 L95 495 L96 490 L95 488 L97 486 L99 487 L99 495 L104 495 L105 493 L109 493 L109 481 L96 481 L95 477 L91 476 L89 481 L82 481 Z M254 17 L249 73 L222 127 L208 133 L193 122 L190 112 L184 112 L183 130 L192 143 L191 158 L160 158 L148 146 L148 138 L140 138 L145 179 L129 211 L119 219 L108 220 L111 234 L135 236 L138 242 L138 284 L129 288 L128 299 L117 300 L117 312 L121 316 L392 316 L396 300 L385 299 L384 288 L375 282 L375 239 L397 236 L405 228 L405 220 L394 219 L384 211 L368 179 L373 138 L366 137 L365 146 L353 158 L324 158 L321 146 L330 133 L330 113 L323 112 L320 122 L305 133 L286 120 L266 79 L259 17 Z M344 236 L358 237 L358 246 L361 248 L361 268 L358 271 L359 283 L358 285 L342 285 L339 282 L339 241 Z M156 236 L171 236 L174 239 L174 284 L173 285 L155 285 L154 284 L155 280 L152 276 L155 273 L155 268 L152 266 L152 255 L155 253 L155 237 Z M190 220 L195 224 L195 234 L192 235 L191 231 L186 227 L186 224 Z M321 218 L327 224 L327 227 L322 231 L321 235 L318 234 L318 219 Z M211 201 L300 199 L304 203 L304 282 L301 285 L283 285 L280 282 L280 234 L272 221 L263 217 L250 217 L233 234 L233 282 L230 285 L212 285 L209 282 Z M227 178 L239 167 L239 164 L246 157 L250 150 L257 145 L263 150 L267 157 L274 164 L274 167 L283 175 L283 178 L286 180 L286 182 L228 183 Z M157 203 L170 202 L189 184 L192 184 L207 169 L207 166 L214 159 L218 158 L218 155 L234 138 L234 135 L243 124 L246 116 L250 113 L250 107 L257 99 L261 103 L267 119 L279 135 L279 138 L302 162 L302 165 L305 165 L306 169 L310 170 L311 174 L314 174 L336 197 L339 197 L343 202 L355 202 L356 207 L351 210 L344 210 L329 196 L326 196 L293 163 L293 160 L289 159 L289 156 L280 148 L280 145 L268 132 L264 122 L261 120 L262 118 L258 114 L254 115 L254 118 L249 122 L245 132 L233 145 L233 148 L222 158 L222 161 L189 194 L186 194 L169 210 L160 210 L157 207 Z"/></svg>
