<svg xmlns="http://www.w3.org/2000/svg" width="512" height="512" viewBox="0 0 512 512" aria-hidden="true" focusable="false"><path fill="currentColor" fill-rule="evenodd" clip-rule="evenodd" d="M304 493 L305 495 L311 494 L310 491 L305 491 Z M279 486 L280 490 L285 490 L285 486 Z M238 486 L238 493 L240 495 L244 494 L242 490 L243 488 L247 489 L247 493 L249 495 L262 495 L263 488 L265 489 L265 495 L274 495 L274 486 L272 484 L240 484 Z M251 489 L253 488 L254 490 L252 491 Z M290 490 L290 495 L299 495 L303 486 L307 488 L313 488 L316 495 L319 495 L323 490 L324 494 L329 495 L330 497 L333 497 L335 495 L345 495 L346 490 L348 491 L348 495 L352 495 L352 493 L355 490 L359 491 L359 495 L363 495 L365 490 L368 491 L368 495 L372 495 L373 493 L381 493 L383 495 L386 495 L388 493 L388 481 L369 480 L366 482 L364 480 L358 480 L355 482 L353 480 L347 480 L345 482 L340 482 L338 480 L334 480 L333 482 L329 482 L328 480 L325 480 L324 482 L322 482 L320 480 L315 480 L310 484 L308 480 L304 480 L302 482 L297 482 L293 480 L292 484 L297 485 L297 490 Z M381 489 L383 488 L384 490 L382 491 Z M331 488 L333 489 L332 493 L330 492 Z M367 487 L370 486 L371 490 L368 491 Z M378 485 L381 484 L382 488 L380 489 Z M329 484 L330 488 L324 491 L323 487 Z M122 484 L122 489 L126 493 L126 495 L135 495 L136 488 L138 489 L138 495 L159 495 L159 489 L161 488 L162 495 L166 495 L168 493 L173 497 L182 495 L183 488 L185 489 L185 495 L193 495 L194 493 L196 495 L207 495 L212 493 L215 495 L225 495 L227 492 L229 492 L229 489 L231 488 L231 484 L226 484 L225 479 L222 479 L220 484 L215 484 L213 486 L211 484 L204 484 L201 486 L199 480 L197 480 L193 484 L169 484 L167 486 L165 480 L161 482 L155 480 L154 484 L149 484 L148 491 L146 490 L146 484 L138 486 L135 483 L135 479 L131 479 L130 484 Z M173 491 L177 490 L178 492 L174 493 Z M216 489 L221 488 L222 490 L217 491 Z M206 489 L208 488 L209 490 L207 491 Z M193 487 L195 486 L196 488 L194 489 Z M108 385 L108 394 L110 396 L118 396 L123 393 L122 385 L118 383 L110 383 Z M391 407 L391 415 L395 420 L395 441 L397 443 L464 443 L464 422 L470 409 L460 399 L455 399 L452 403 L447 399 L441 401 L427 399 L425 377 L418 380 L417 399 L412 399 L410 403 L406 399 L401 399 Z M424 436 L424 431 L431 430 L433 425 L459 425 L460 426 L459 432 L457 431 L456 432 L438 432 L437 437 L425 437 Z M401 436 L401 426 L402 425 L418 425 L420 427 L420 431 L413 432 L412 437 L402 437 Z M415 417 L417 416 L418 418 L416 419 Z M460 407 L464 410 L463 415 L459 414 Z M401 407 L402 413 L401 414 L396 413 L395 410 Z M442 406 L445 405 L446 407 L452 409 L453 414 L450 415 L448 413 L445 413 L444 408 Z M421 411 L425 407 L430 405 L438 410 L438 415 L433 419 L430 413 L427 414 L427 416 L425 417 L421 413 Z M406 410 L416 405 L417 415 L416 416 L409 415 L406 412 Z M437 365 L435 367 L435 394 L440 394 L441 393 L441 366 Z M312 365 L315 387 L311 392 L304 388 L301 388 L300 392 L292 390 L294 398 L288 400 L292 405 L286 409 L290 413 L288 426 L293 429 L292 435 L300 436 L301 441 L313 438 L318 443 L321 443 L322 439 L334 443 L333 436 L343 437 L339 428 L343 426 L341 413 L345 412 L345 409 L341 405 L341 399 L337 398 L339 392 L332 394 L330 390 L325 389 L323 367 L321 365 Z M300 417 L305 416 L306 418 L302 421 Z M303 401 L307 401 L308 398 L311 400 L315 398 L319 399 L319 403 L323 406 L322 408 L319 408 L319 412 L321 413 L319 416 L319 426 L320 427 L327 424 L327 420 L325 418 L327 415 L327 412 L323 408 L327 406 L328 401 L331 401 L333 413 L335 415 L333 418 L335 423 L332 424 L332 429 L328 430 L327 433 L319 432 L318 435 L315 433 L303 432 L301 430 L302 428 L301 426 L298 425 L299 423 L302 423 L307 428 L312 428 L312 424 L309 423 L312 419 L312 415 L307 414 L309 412 L309 409 L305 408 L302 412 L298 411 L299 409 L301 409 L301 403 Z M214 363 L211 363 L211 369 L209 370 L207 394 L205 395 L200 388 L192 388 L189 385 L185 385 L183 390 L178 390 L178 394 L171 399 L171 403 L167 407 L167 410 L170 410 L171 412 L164 417 L164 428 L171 428 L173 432 L177 431 L177 424 L180 423 L182 410 L186 408 L187 403 L191 403 L191 401 L195 399 L195 395 L197 394 L202 399 L201 405 L203 408 L203 440 L207 441 L207 433 L209 432 L209 424 L211 423 L211 415 L213 413 L213 402 L215 401 Z M46 363 L46 367 L55 371 L47 372 L41 376 L41 379 L46 382 L39 392 L39 401 L43 401 L43 397 L49 391 L61 390 L50 408 L48 425 L52 425 L52 419 L56 418 L57 425 L70 426 L69 428 L57 428 L55 437 L59 441 L79 443 L79 439 L75 435 L84 434 L86 428 L92 428 L95 436 L86 437 L86 441 L101 441 L103 445 L117 443 L116 433 L102 431 L103 428 L110 429 L113 426 L113 421 L109 417 L61 416 L67 396 L71 396 L73 399 L72 414 L79 414 L83 408 L82 392 L89 398 L91 404 L95 405 L94 393 L83 384 L88 383 L100 389 L101 383 L96 377 L85 373 L88 371 L88 367 L81 365 L69 370 L60 361 Z M101 438 L102 437 L104 438 L112 437 L113 440 L112 441 L102 441 Z M65 433 L74 432 L75 434 L66 435 Z M99 429 L101 428 L102 431 L100 432 Z M74 429 L75 421 L107 421 L108 422 L107 424 L97 424 L96 426 L94 426 L93 424 L79 424 L79 429 L78 430 Z M45 379 L49 378 L50 380 L46 381 Z M104 265 L96 263 L90 265 L87 269 L76 267 L73 269 L70 278 L47 283 L44 286 L44 296 L50 307 L59 316 L74 322 L91 322 L104 316 L115 305 L119 296 L119 286 L106 275 Z M113 294 L113 297 L111 298 L111 301 L106 305 L106 308 L102 309 L98 314 L94 314 L92 316 L71 316 L70 314 L67 314 L66 312 L60 310 L54 304 L54 302 L52 301 L52 298 L50 297 L51 293 L58 293 L60 295 L76 295 L77 298 L81 302 L88 302 L90 300 L90 297 L92 296 L93 300 L96 300 L97 302 L102 302 L106 300 L106 294 L109 291 Z M95 292 L98 291 L100 295 L98 296 Z M85 291 L86 295 L82 296 L81 294 Z M74 289 L76 288 L77 290 L75 291 Z M70 288 L72 287 L73 290 L71 291 Z M101 283 L105 282 L106 284 L102 285 Z M83 278 L85 277 L86 279 L84 280 Z M77 274 L81 273 L82 277 L78 278 Z M99 269 L100 272 L97 275 L97 279 L95 280 L94 270 Z M401 267 L398 271 L397 300 L406 318 L422 327 L444 326 L457 318 L466 300 L466 286 L459 271 L444 260 L435 258 L412 263 L409 267 Z M431 314 L436 313 L437 315 L432 316 Z M415 308 L418 307 L419 309 L416 310 Z M441 311 L442 306 L449 307 L445 312 Z M419 308 L420 304 L424 305 L421 309 Z M450 303 L452 302 L453 304 L451 305 Z M430 305 L433 304 L434 302 L437 303 L436 307 L431 307 Z M435 296 L437 295 L438 297 L436 298 Z M442 294 L445 293 L446 295 L443 296 Z M452 288 L455 289 L454 296 L448 293 Z M442 288 L444 289 L443 293 L441 292 Z M409 287 L413 290 L412 296 L408 295 Z M414 279 L417 278 L421 282 L423 282 L426 286 L432 287 L433 290 L431 291 L431 293 L423 294 L417 288 L417 284 L414 281 Z M448 277 L449 281 L445 285 L444 281 Z M422 271 L426 272 L425 278 L419 275 Z M426 270 L435 269 L437 271 L441 271 L442 273 L445 273 L446 275 L442 276 L441 278 L435 278 L434 280 L431 280 L430 278 L433 277 L433 273 L427 272 Z M303 260 L303 266 L298 267 L295 272 L295 277 L303 290 L285 300 L279 301 L277 304 L290 308 L286 312 L287 315 L293 313 L317 315 L329 309 L328 320 L333 320 L333 323 L339 325 L339 316 L347 316 L348 320 L352 320 L352 314 L356 312 L356 306 L348 304 L347 295 L341 287 L327 283 L327 276 L334 262 L326 264 L325 258 L321 258 L318 264 L310 265 L310 272 L308 273 L307 260 Z M307 294 L309 293 L310 295 L308 296 Z M314 285 L316 284 L317 287 L319 288 L323 287 L325 289 L329 289 L330 291 L336 291 L341 296 L342 304 L344 308 L339 309 L338 311 L335 311 L334 305 L323 305 L322 307 L319 307 L317 309 L316 304 L314 302 L314 295 L312 293 L312 289 Z M210 254 L190 256 L186 264 L175 265 L169 273 L165 296 L183 298 L183 303 L178 309 L178 329 L184 329 L182 316 L185 311 L189 312 L189 322 L202 322 L204 329 L207 329 L207 312 L217 311 L218 329 L222 329 L222 307 L218 298 L235 297 L236 291 L231 271 L225 265 L214 264 Z M202 305 L204 304 L205 306 L203 307 Z M194 304 L196 305 L196 315 L195 316 L193 315 L193 305 Z M227 290 L229 289 L230 291 L228 292 Z M225 272 L222 276 L220 276 L219 278 L216 278 L213 282 L211 282 L211 286 L214 286 L215 284 L218 284 L219 282 L228 279 L229 282 L226 285 L208 294 L204 294 L200 296 L199 298 L195 298 L193 300 L191 300 L189 296 L187 295 L189 287 L195 286 L198 288 L200 287 L198 280 L195 280 L185 285 L184 283 L190 277 L208 268 L220 269 Z M207 261 L206 264 L204 263 L201 267 L198 267 L197 269 L188 272 L180 278 L180 286 L178 287 L177 292 L171 291 L171 283 L173 282 L173 278 L180 269 L189 269 L193 265 L194 260 L206 260 Z M147 194 L147 205 L152 210 L162 210 L168 205 L169 199 L173 204 L215 204 L220 210 L230 210 L236 203 L242 202 L242 167 L245 166 L245 159 L166 159 L162 176 L151 175 L151 190 Z M229 184 L233 183 L234 185 L230 186 Z M204 192 L204 167 L205 166 L235 166 L236 167 L236 178 L235 179 L233 178 L224 179 L223 178 L220 181 L220 188 L215 193 L205 193 Z M171 185 L172 183 L175 182 L173 175 L169 174 L171 166 L197 166 L198 167 L198 174 L192 176 L191 186 L182 186 L179 189 L177 189 Z M288 154 L288 170 L281 201 L282 210 L352 209 L352 193 L345 169 L344 153 Z M298 173 L335 174 L337 176 L339 186 L341 187 L341 201 L343 203 L340 206 L322 206 L319 191 L314 191 L314 199 L312 200 L311 206 L295 206 L292 203 L292 191 L294 190 L294 184 L296 182 L296 178 L298 177 Z M394 151 L388 159 L388 168 L391 174 L386 181 L388 190 L391 190 L393 193 L393 209 L424 210 L424 184 L428 179 L428 157 L421 151 Z M400 192 L404 193 L404 205 L403 206 L399 205 L399 193 Z M413 177 L420 178 L420 205 L419 206 L415 205 L415 191 L408 190 L410 188 L410 180 Z M392 180 L395 177 L401 177 L406 183 L401 188 L398 188 L397 186 L392 185 Z M394 160 L398 156 L418 156 L424 162 L424 167 L420 171 L417 171 L416 173 L400 173 L395 170 Z M435 153 L433 157 L433 170 L435 174 L431 177 L431 188 L438 192 L438 209 L467 210 L470 207 L471 178 L473 177 L473 159 L471 155 L465 151 L455 150 Z M459 202 L463 201 L464 204 L460 206 Z M442 202 L448 201 L449 205 L444 206 Z M440 157 L463 156 L467 158 L467 179 L465 181 L463 195 L443 195 L442 194 L443 192 L446 192 L446 188 L437 185 L437 178 L446 177 L446 173 L443 171 L440 171 L439 168 L437 167 L437 162 Z M95 133 L91 134 L91 142 L83 150 L77 148 L67 159 L61 157 L53 163 L51 168 L53 182 L60 183 L62 179 L65 179 L66 187 L56 193 L52 193 L52 210 L62 210 L79 204 L88 193 L90 184 L97 179 L97 175 L93 175 L92 173 L94 170 L97 170 L101 162 L101 147 L97 143 Z M63 202 L65 201 L66 203 L64 204 Z M68 200 L70 199 L71 201 L69 202 Z M83 181 L84 189 L74 200 L71 200 L70 198 L76 192 L75 189 L77 188 L77 184 Z M83 180 L85 179 L86 181 L84 182 Z M84 170 L86 171 L85 175 L83 174 Z M56 171 L58 168 L60 168 L63 172 L69 172 L70 174 L69 175 L59 175 L57 177 Z M91 161 L93 162 L92 166 L90 165 Z M78 158 L79 161 L71 168 L70 164 L72 160 Z M90 152 L91 156 L86 159 L85 158 L86 153 Z M90 149 L92 148 L93 150 L91 151 Z M420 94 L421 98 L442 98 L442 94 Z M151 51 L151 56 L168 78 L173 78 L173 75 L177 74 L187 80 L186 86 L180 85 L177 90 L171 92 L171 97 L182 105 L196 105 L204 95 L207 81 L218 74 L222 78 L229 76 L242 57 L242 49 L232 30 L224 30 L217 34 L208 30 L199 32 L184 30 L177 36 L170 30 L161 30 Z M186 86 L188 85 L189 87 L187 88 Z M201 82 L200 91 L198 92 L198 94 L192 101 L187 101 L183 99 L182 97 L178 96 L179 94 L183 94 L184 96 L189 96 L193 92 L193 82 L194 81 Z M228 35 L232 43 L234 44 L234 47 L236 48 L236 57 L230 62 L227 69 L223 70 L220 67 L220 53 L222 52 L222 46 L227 45 L227 39 L224 39 L222 41 L220 39 L223 36 Z M183 36 L187 34 L189 36 L210 36 L214 39 L216 43 L216 49 L214 50 L212 48 L206 48 L203 51 L204 58 L212 60 L214 56 L216 57 L214 69 L211 72 L209 71 L209 68 L206 68 L203 75 L201 76 L190 75 L189 70 L178 69 L178 59 L189 58 L189 50 L186 48 L180 50 L180 55 L177 55 L177 44 Z M165 34 L169 38 L173 39 L172 41 L169 41 L169 45 L173 48 L173 67 L170 70 L168 69 L167 66 L166 67 L164 66 L164 63 L160 60 L160 58 L157 55 L157 50 Z M430 23 L426 25 L426 31 L424 32 L424 44 L422 45 L420 56 L417 57 L417 64 L411 71 L411 86 L409 87 L409 91 L406 94 L406 99 L407 100 L410 99 L415 92 L415 75 L417 74 L417 71 L423 66 L423 64 L439 63 L447 75 L447 88 L449 90 L449 95 L455 100 L457 99 L457 94 L455 93 L455 90 L453 89 L453 85 L451 83 L451 70 L446 66 L446 60 L442 56 L437 25 Z M424 57 L426 56 L427 51 L436 51 L437 52 L436 55 L438 58 L437 59 L425 59 Z M66 23 L65 27 L57 31 L57 41 L59 45 L64 48 L64 61 L70 65 L71 70 L73 71 L73 78 L70 85 L70 98 L78 101 L81 105 L89 105 L90 107 L93 107 L95 101 L93 99 L87 99 L81 87 L77 85 L79 70 L87 69 L93 71 L94 66 L92 64 L92 59 L95 56 L106 54 L106 45 L99 40 L99 36 L95 32 L80 34 L77 27 L71 23 Z M77 66 L79 65 L80 67 L78 68 Z M310 16 L306 22 L305 35 L294 45 L292 56 L288 58 L288 63 L292 68 L293 84 L288 87 L288 104 L292 105 L292 92 L295 89 L306 87 L309 84 L309 78 L301 71 L301 57 L322 56 L323 71 L315 78 L317 91 L309 97 L300 97 L299 104 L303 105 L320 96 L321 105 L325 105 L325 98 L321 96 L321 92 L325 87 L330 90 L330 99 L332 105 L335 105 L336 89 L330 82 L332 79 L330 72 L336 60 L332 56 L332 51 L327 42 L321 38 L320 28 L314 16 Z M298 81 L302 80 L303 82 L299 83 Z M298 50 L302 45 L305 45 L306 43 L308 44 L316 43 L318 45 L322 45 L326 51 L322 52 L321 50 L316 50 L315 52 L308 52 L306 50 L303 50 L302 52 L299 52 Z M312 27 L314 28 L313 31 L314 33 L310 34 L309 32 Z"/></svg>
