<svg xmlns="http://www.w3.org/2000/svg" width="512" height="512" viewBox="0 0 512 512" aria-hidden="true" focusable="false"><path fill="currentColor" fill-rule="evenodd" clip-rule="evenodd" d="M458 454 L454 449 L455 444 L453 443 L447 450 L447 456 L449 458 L455 458 L452 464 L447 460 L444 460 L442 463 L319 463 L316 460 L309 463 L307 459 L313 458 L315 456 L315 451 L313 447 L308 444 L308 448 L303 454 L304 463 L311 468 L303 474 L303 480 L308 486 L307 491 L309 492 L315 484 L314 478 L307 476 L309 471 L314 474 L318 474 L319 472 L442 472 L448 474 L453 471 L455 476 L447 478 L447 485 L449 489 L454 492 L454 486 L458 480 L458 475 L451 467 L457 462 Z M60 433 L71 435 L81 442 L86 459 L91 466 L99 470 L113 473 L118 479 L120 479 L115 469 L103 461 L98 454 L101 448 L103 449 L103 454 L106 456 L111 456 L115 453 L117 449 L117 442 L114 436 L109 432 L99 428 L85 427 L63 431 Z M19 420 L19 446 L23 459 L30 470 L36 475 L46 479 L59 479 L63 477 L62 475 L55 475 L50 473 L41 463 L41 458 L43 455 L49 462 L55 460 L55 447 L43 437 L32 432 L21 420 Z M121 419 L121 421 L131 421 L139 430 L142 437 L136 441 L131 440 L131 443 L134 445 L139 444 L141 446 L140 454 L138 455 L138 463 L143 472 L155 479 L167 479 L169 477 L180 476 L166 474 L159 470 L153 463 L152 459 L155 455 L158 456 L157 463 L161 466 L169 464 L172 459 L171 451 L173 449 L169 447 L169 443 L163 434 L160 437 L156 428 L144 420 L133 417 L125 417 Z M151 435 L154 438 L152 443 L148 441 Z M185 406 L188 409 L187 424 L190 429 L188 433 L190 433 L192 437 L191 448 L196 457 L191 462 L192 463 L196 462 L207 474 L216 478 L231 474 L242 463 L244 464 L244 468 L249 472 L255 468 L254 460 L250 457 L246 457 L227 471 L219 472 L211 467 L210 459 L214 453 L221 452 L226 456 L225 458 L221 457 L218 460 L219 465 L225 467 L230 464 L230 456 L232 455 L232 451 L226 443 L213 440 L210 431 L206 432 L203 428 L196 424 L191 418 L190 409 L188 406 Z M201 444 L206 442 L207 446 L203 447 Z M207 433 L209 432 L210 435 L208 436 Z M306 400 L310 400 L317 407 L317 410 L313 411 L313 413 L317 414 L316 425 L318 428 L325 432 L334 431 L334 439 L337 444 L341 442 L341 436 L344 433 L416 433 L421 435 L419 440 L424 444 L427 439 L427 431 L436 432 L443 428 L446 423 L444 414 L450 412 L449 410 L444 410 L445 405 L454 399 L447 398 L440 400 L426 415 L423 415 L420 418 L419 423 L421 425 L417 428 L344 428 L341 425 L341 418 L334 415 L331 409 L322 401 L314 398 L308 398 Z M425 429 L428 425 L434 426 L431 429 L428 430 Z M327 426 L333 425 L336 429 L333 430 L328 428 Z M301 345 L304 369 L302 373 L307 375 L313 381 L320 381 L329 375 L334 379 L337 389 L340 388 L342 384 L341 380 L344 378 L418 378 L421 380 L421 386 L425 388 L428 379 L433 375 L442 381 L449 381 L456 373 L459 374 L458 366 L461 355 L460 345 L456 354 L451 358 L448 358 L447 362 L439 365 L437 373 L429 370 L426 360 L424 360 L421 363 L421 369 L418 372 L344 371 L341 369 L342 365 L340 361 L337 361 L334 369 L325 374 L323 373 L324 368 L322 364 L315 362 L314 358 L311 358 L306 354 Z M446 369 L449 371 L449 374 L447 376 L445 375 Z M317 368 L318 369 L317 375 L315 376 L313 374 L313 371 Z M271 301 L274 317 L273 321 L281 326 L285 326 L291 322 L295 324 L295 328 L298 331 L302 323 L352 323 L355 325 L354 328 L356 331 L358 331 L362 325 L368 330 L369 334 L372 334 L380 342 L388 334 L392 334 L392 330 L398 325 L402 329 L402 332 L404 332 L408 323 L458 323 L461 325 L461 331 L464 332 L467 323 L480 326 L486 320 L489 311 L488 301 L485 307 L474 314 L472 320 L466 318 L464 311 L461 312 L458 320 L408 320 L404 311 L402 311 L398 317 L392 313 L392 309 L389 309 L382 301 L379 301 L372 309 L368 309 L368 313 L362 318 L358 311 L356 311 L354 315 L355 318 L352 320 L302 320 L297 312 L295 318 L289 320 L288 316 L275 307 L274 302 Z M380 324 L382 325 L381 331 L379 330 Z M384 321 L389 320 L390 322 L385 323 Z M370 321 L376 320 L377 322 L371 323 Z M477 319 L479 318 L480 321 L478 322 Z M380 312 L382 313 L381 319 L379 318 Z M140 328 L161 341 L178 345 L178 350 L186 349 L197 357 L204 355 L211 348 L219 349 L220 345 L234 342 L257 329 L235 316 L220 312 L219 307 L211 308 L200 301 L191 304 L186 309 L178 308 L177 313 L163 316 Z M152 328 L155 327 L156 329 L153 330 Z M241 327 L243 326 L245 329 L242 330 Z M225 322 L227 321 L228 323 L226 324 Z M73 274 L60 287 L55 300 L44 300 L43 312 L29 318 L16 330 L25 341 L43 350 L44 361 L55 360 L61 375 L75 386 L86 376 L93 361 L104 361 L104 349 L121 341 L130 329 L119 318 L104 311 L104 301 L93 301 L87 286 Z M73 351 L75 350 L76 352 L74 353 Z M85 342 L87 341 L88 343 L86 344 Z M59 342 L61 341 L62 344 L60 345 Z M93 330 L97 329 L98 331 L94 332 Z M50 330 L53 329 L54 331 L51 332 Z M56 325 L58 326 L57 336 L54 335 Z M71 323 L77 323 L81 329 L80 334 L74 338 L69 336 L66 331 L67 327 Z M59 317 L61 316 L62 318 L60 319 Z M73 308 L75 307 L76 310 L74 311 Z M271 244 L274 265 L280 270 L292 267 L298 276 L302 268 L353 268 L357 275 L362 270 L366 272 L367 279 L373 279 L380 288 L389 279 L395 279 L395 273 L399 270 L404 276 L408 268 L459 268 L463 276 L467 268 L471 267 L475 270 L481 270 L488 265 L487 260 L490 246 L488 244 L487 249 L473 260 L474 264 L472 265 L466 261 L464 256 L461 257 L459 263 L408 263 L405 256 L399 261 L395 258 L395 251 L389 252 L387 247 L381 243 L373 252 L368 251 L367 257 L363 261 L357 255 L354 263 L302 263 L299 256 L297 256 L294 262 L289 263 Z M270 190 L272 210 L279 215 L292 212 L296 221 L302 212 L351 212 L354 214 L353 218 L355 221 L357 221 L361 214 L365 217 L364 226 L373 225 L379 233 L386 225 L393 225 L394 217 L397 213 L401 221 L403 221 L405 218 L404 214 L407 212 L456 212 L459 214 L460 220 L463 221 L466 212 L479 215 L485 211 L486 201 L488 200 L488 190 L486 190 L485 195 L479 198 L477 202 L474 202 L470 209 L465 207 L463 200 L459 203 L457 209 L407 209 L403 200 L401 200 L397 208 L392 203 L393 196 L386 196 L378 188 L372 196 L365 196 L364 204 L361 207 L357 200 L355 200 L351 209 L300 209 L299 203 L295 200 L293 207 L288 209 L286 204 L274 196 L272 190 Z M389 214 L391 213 L392 216 L390 217 Z M367 204 L369 205 L368 209 L366 208 Z M196 147 L175 172 L165 171 L167 180 L156 187 L142 205 L168 226 L166 236 L175 234 L188 252 L199 260 L221 234 L232 236 L229 226 L242 218 L255 202 L229 180 L232 170 L221 172 L212 158 Z M190 211 L191 213 L187 217 L185 217 L184 215 L188 211 Z M205 211 L206 210 L210 211 L213 214 L212 217 L208 216 Z M202 210 L204 213 L205 222 L202 230 L199 233 L197 233 L192 224 L192 215 L194 211 Z M203 209 L205 208 L206 210 L204 211 Z M197 199 L200 199 L202 201 L202 205 L200 207 L196 207 L194 205 L194 202 Z M206 200 L210 197 L220 197 L226 200 L228 204 L223 208 L213 210 L206 207 Z M168 203 L172 199 L177 197 L187 197 L191 199 L191 207 L183 210 L176 209 L170 206 Z M212 189 L213 191 L209 195 L207 195 L206 193 L210 189 Z M184 190 L185 189 L189 190 L192 195 L189 196 L185 193 Z M199 173 L203 178 L205 189 L202 195 L195 196 L192 191 L192 182 L194 177 Z M73 146 L61 156 L55 169 L37 167 L39 184 L31 188 L19 204 L39 221 L37 239 L55 238 L60 249 L76 260 L90 247 L93 237 L110 239 L108 221 L116 218 L128 201 L115 186 L108 184 L110 167 L93 168 L89 158 Z M56 231 L58 230 L59 232 L57 233 Z M65 229 L67 228 L73 235 L75 235 L80 229 L82 231 L75 239 L73 239 L68 235 Z M48 216 L49 218 L46 220 L45 218 Z M95 213 L98 212 L104 219 L100 220 Z M90 213 L94 212 L95 214 L91 215 Z M84 210 L85 212 L81 214 L80 212 Z M68 212 L67 214 L51 215 L50 217 L48 216 L48 214 L53 211 L60 212 L65 209 Z M101 207 L103 206 L104 208 L102 209 Z M41 205 L43 204 L44 206 L42 207 Z M39 202 L41 201 L42 204 L40 205 Z M101 197 L103 196 L106 198 L109 203 L106 205 L105 201 Z M64 196 L65 193 L68 194 L66 197 Z M82 192 L85 193 L83 196 L80 195 Z M101 186 L102 189 L98 193 L94 194 L93 192 Z M45 187 L47 186 L52 192 L50 193 Z M65 177 L66 174 L74 167 L77 168 L81 172 L83 179 L81 180 L74 171 L67 179 Z M270 133 L278 140 L277 143 L274 143 L278 147 L278 155 L284 160 L291 160 L294 169 L297 168 L299 161 L357 161 L361 169 L366 168 L364 176 L377 172 L380 176 L386 172 L398 175 L396 168 L401 169 L404 161 L462 161 L465 168 L468 169 L471 160 L475 161 L482 158 L485 153 L484 146 L488 145 L484 140 L488 135 L492 135 L492 133 L484 133 L478 136 L464 150 L462 156 L405 156 L401 148 L396 149 L398 141 L388 145 L382 141 L376 145 L364 141 L368 153 L366 154 L361 148 L357 156 L299 156 L297 148 L293 148 L284 136 L278 133 Z M470 155 L473 154 L474 156 L471 157 Z M288 155 L291 154 L292 156 L289 157 Z M270 75 L278 82 L275 86 L278 87 L277 94 L279 98 L289 101 L292 109 L296 107 L298 101 L352 101 L355 108 L361 103 L367 106 L368 111 L372 111 L381 122 L390 111 L393 111 L396 105 L401 103 L406 109 L410 101 L464 101 L466 107 L469 108 L473 101 L477 101 L484 96 L484 87 L487 86 L484 81 L488 77 L492 77 L492 75 L481 76 L471 87 L466 89 L466 94 L463 96 L410 96 L405 87 L401 93 L396 91 L394 85 L389 85 L387 79 L382 75 L372 85 L369 85 L368 90 L360 93 L357 87 L351 96 L298 96 L296 90 L282 77 Z M380 96 L384 98 L382 101 L378 99 Z M145 24 L157 59 L144 80 L159 92 L154 93 L157 100 L144 133 L178 120 L186 120 L197 133 L215 120 L253 133 L240 101 L242 93 L238 92 L254 79 L240 65 L239 58 L252 25 L215 38 L198 24 L180 38 Z M197 111 L201 113 L199 117 L196 116 Z M201 108 L204 107 L205 109 L202 110 Z M191 108 L194 107 L195 109 L192 110 Z M211 98 L214 99 L214 106 L212 108 L209 106 Z M184 97 L186 98 L188 102 L188 106 L186 108 L184 108 L182 104 Z M220 92 L223 90 L224 92 L227 92 L230 96 L229 97 L223 96 L220 94 Z M177 92 L175 95 L171 97 L167 96 L167 94 L169 92 L172 92 L173 90 Z M228 83 L230 84 L229 87 L226 86 Z M168 83 L171 86 L170 88 L166 86 Z M188 78 L190 77 L191 79 L189 80 Z M230 77 L232 75 L236 75 L239 79 L236 82 L233 82 L230 79 Z M157 78 L160 75 L164 75 L167 77 L167 79 L164 82 L161 82 Z M226 70 L230 69 L231 72 L228 74 Z M165 70 L170 69 L171 71 L168 74 Z M219 64 L221 61 L224 60 L230 61 L228 64 L223 66 Z M168 61 L173 60 L177 62 L178 64 L176 66 L170 65 Z M210 48 L213 50 L215 54 L212 59 L210 58 L209 55 Z M185 48 L188 50 L188 55 L186 58 L183 57 L183 50 Z M202 48 L204 47 L205 49 L203 50 Z M192 47 L194 46 L195 49 L193 50 Z M173 43 L175 42 L176 44 L174 45 Z M234 40 L236 41 L235 46 L233 45 Z M198 39 L201 42 L199 47 L196 44 L196 41 Z M260 22 L264 23 L268 28 L265 32 L268 33 L267 39 L273 45 L279 45 L283 53 L287 46 L338 46 L343 54 L345 47 L348 46 L379 61 L394 57 L395 54 L414 46 L419 54 L424 46 L474 46 L479 54 L482 45 L493 42 L495 39 L494 33 L497 31 L494 26 L500 23 L500 21 L490 22 L477 35 L476 41 L422 41 L420 34 L414 41 L381 25 L348 41 L345 40 L343 34 L340 41 L286 41 L285 35 L280 33 L278 28 L271 22 Z M74 21 L59 43 L37 44 L39 63 L23 78 L16 80 L22 81 L39 96 L37 117 L59 114 L76 135 L92 115 L113 116 L114 95 L124 82 L132 78 L109 62 L112 41 L90 44 Z M95 101 L95 107 L91 113 L85 110 L81 110 L77 106 L79 103 L83 105 L89 105 L92 98 Z M56 100 L60 98 L62 106 L68 106 L71 103 L73 103 L75 107 L61 113 L58 109 Z M101 81 L104 81 L107 84 L112 93 L109 97 L104 99 L98 98 L95 96 L96 94 L103 92 L103 89 L100 83 Z M42 85 L47 81 L49 81 L51 85 L48 88 L47 92 L51 94 L56 94 L57 96 L53 98 L43 96 L41 94 Z M45 61 L54 62 L53 65 L48 67 L51 75 L49 78 L47 78 L43 74 L40 64 Z M104 59 L108 63 L107 73 L102 78 L100 78 L99 74 L101 72 L101 65 L96 64 L95 62 L98 60 Z M81 47 L88 45 L91 47 L94 54 L94 60 L92 62 L90 61 L90 54 L88 51 L80 54 L79 56 L76 55 L76 53 Z M74 54 L72 56 L67 53 L61 53 L58 62 L56 61 L57 49 L60 45 L68 47 Z"/></svg>
