<svg xmlns="http://www.w3.org/2000/svg" width="512" height="512" viewBox="0 0 512 512" aria-hidden="true" focusable="false"><path fill="currentColor" fill-rule="evenodd" clip-rule="evenodd" d="M244 362 L244 365 L247 364 L262 365 L262 362 L260 360 L246 360 Z M269 365 L272 365 L274 363 L275 365 L277 365 L278 362 L280 361 L281 365 L283 365 L283 362 L285 361 L286 365 L290 364 L305 365 L307 362 L309 363 L309 365 L321 365 L321 359 L320 358 L318 359 L304 358 L302 361 L300 359 L295 361 L294 358 L291 360 L289 360 L288 358 L285 360 L282 358 L281 359 L270 358 L271 362 Z M191 361 L192 365 L207 365 L208 364 L219 365 L220 363 L222 365 L241 364 L241 361 L239 360 L239 358 L236 360 L226 359 L225 360 L211 360 L210 359 L198 360 L196 358 Z M211 319 L215 327 L226 335 L236 333 L244 336 L252 333 L257 337 L263 337 L270 332 L275 338 L279 338 L281 335 L299 338 L311 334 L320 340 L332 334 L344 338 L356 337 L360 334 L363 338 L366 338 L372 333 L379 337 L386 337 L390 334 L402 336 L405 333 L416 335 L421 333 L425 327 L428 327 L431 319 L413 320 L409 327 L406 325 L409 319 L390 319 L385 324 L365 324 L348 335 L339 334 L337 331 L345 330 L350 322 L337 321 L325 324 L320 320 L318 324 L308 324 L304 321 L291 321 L299 331 L306 331 L304 334 L295 335 L275 323 L258 325 L251 319 L234 319 L236 324 L233 326 L230 320 Z M365 328 L370 325 L377 325 L382 327 L384 331 L380 333 L375 331 L369 332 Z M258 331 L262 326 L265 325 L271 325 L277 328 L274 332 L271 332 L270 330 L268 330 L265 333 L261 333 Z M482 314 L471 325 L471 328 L482 339 L485 339 L496 328 L496 325 L485 314 Z M448 314 L445 317 L444 321 L440 322 L437 325 L438 330 L442 331 L450 339 L452 338 L456 331 L461 329 L462 325 L456 322 L454 318 L450 314 Z M19 313 L20 317 L23 318 L23 321 L28 325 L30 330 L36 333 L42 333 L45 331 L45 327 L49 326 L52 332 L57 331 L63 339 L70 331 L77 331 L78 326 L81 326 L85 333 L92 333 L100 328 L100 324 L103 323 L109 315 L109 313 L102 315 L91 314 L88 312 L80 312 L73 315 L64 302 L54 315 L46 312 L28 315 Z M80 321 L86 320 L90 324 L89 325 L82 324 Z M38 323 L39 321 L42 320 L47 321 L45 325 Z M124 313 L133 323 L133 329 L135 331 L142 331 L156 340 L174 339 L184 331 L191 331 L193 329 L193 324 L202 314 L188 313 L181 316 L176 321 L176 314 L171 312 L164 301 L162 301 L159 307 L155 310 L154 314 L150 314 L150 320 L138 313 Z M165 334 L167 330 L170 331 L169 334 L167 335 Z M156 331 L160 330 L161 334 L159 335 Z M181 325 L183 326 L182 330 L179 329 Z M144 324 L147 326 L146 330 L143 329 Z M210 284 L211 288 L218 293 L221 300 L230 301 L234 295 L236 297 L234 302 L245 308 L257 308 L261 304 L285 304 L286 308 L295 308 L300 303 L318 304 L321 302 L324 304 L342 303 L346 308 L355 308 L357 304 L379 304 L385 308 L396 308 L405 302 L409 302 L405 298 L408 294 L411 300 L419 301 L424 297 L424 293 L432 287 L432 284 L428 286 L409 285 L403 290 L394 288 L384 294 L377 294 L378 300 L342 300 L341 298 L344 294 L331 295 L321 288 L312 295 L300 295 L299 300 L264 300 L264 294 L255 293 L249 288 L240 290 L233 285 L213 286 Z M448 277 L441 285 L436 288 L436 290 L439 293 L441 293 L445 297 L445 299 L450 302 L463 289 L451 277 Z M480 277 L478 281 L475 282 L474 285 L471 286 L470 290 L481 302 L486 302 L496 292 L496 286 L493 285 L491 281 L489 281 L485 276 Z M216 254 L219 261 L229 268 L238 266 L242 269 L252 267 L256 270 L260 270 L268 263 L274 263 L275 265 L271 266 L271 268 L275 270 L308 267 L318 268 L320 271 L324 268 L335 267 L367 270 L371 267 L368 265 L369 263 L374 263 L382 270 L391 267 L400 269 L404 266 L413 268 L423 261 L427 255 L410 255 L409 259 L406 260 L405 257 L407 254 L390 254 L386 259 L386 263 L372 260 L358 263 L357 260 L359 258 L357 257 L347 259 L339 257 L332 260 L332 256 L321 260 L310 256 L309 258 L287 257 L284 258 L284 263 L271 260 L258 264 L251 254 L236 254 L236 260 L232 255 Z M119 260 L125 266 L126 271 L131 275 L132 279 L136 279 L139 282 L148 281 L149 284 L154 286 L161 294 L168 286 L171 285 L173 281 L181 282 L185 279 L189 279 L190 275 L195 271 L198 263 L201 262 L203 258 L185 259 L181 264 L178 263 L179 258 L172 259 L168 262 L161 254 L159 254 L157 259 L152 262 L148 259 L141 259 L143 262 L142 264 L140 264 L136 259 L126 258 Z M147 272 L150 271 L151 273 L148 274 Z M17 267 L17 269 L27 272 L32 277 L30 281 L34 280 L45 285 L56 286 L63 299 L67 295 L71 286 L80 286 L90 281 L97 281 L95 277 L100 272 L110 269 L110 267 L92 265 L91 263 L80 264 L76 268 L73 260 L64 248 L54 260 L52 271 L49 270 L49 266 L47 264 L43 263 Z M74 269 L76 268 L77 270 L75 271 Z M62 261 L66 262 L64 269 L62 268 L61 263 Z M483 247 L480 252 L476 250 L474 251 L476 257 L471 260 L475 263 L474 269 L480 268 L482 272 L485 272 L487 268 L493 269 L492 264 L495 262 L496 259 L491 257 L493 250 L487 252 Z M449 246 L445 249 L442 249 L439 252 L439 255 L436 261 L439 264 L439 268 L441 270 L446 271 L448 273 L452 273 L454 271 L457 271 L460 268 L463 258 L459 250 L454 249 Z M182 153 L178 164 L170 174 L170 180 L165 179 L161 191 L155 197 L154 210 L161 221 L167 224 L168 228 L184 242 L199 228 L200 224 L206 221 L212 212 L213 206 L212 198 L202 184 L202 179 L197 178 L197 174 L187 161 L185 153 Z M186 217 L189 216 L190 218 L187 219 Z M177 217 L179 216 L180 218 L178 219 Z M198 200 L200 203 L200 208 L197 213 L195 212 L196 210 L195 201 Z M169 200 L171 201 L171 211 L170 212 L167 209 L167 203 Z M196 185 L197 188 L191 195 L188 192 L188 190 Z M170 186 L172 185 L178 190 L178 192 L175 193 L171 191 Z M182 183 L184 182 L185 184 L183 185 Z M455 152 L439 179 L430 171 L428 189 L419 185 L421 190 L419 214 L426 227 L437 233 L447 233 L454 229 L464 233 L474 233 L484 227 L491 215 L489 199 L491 184 L487 188 L483 187 L480 170 L472 180 L466 171 L466 166 L462 164 Z M475 204 L477 207 L477 215 L476 218 L473 220 L470 209 Z M436 204 L440 208 L438 220 L435 218 L433 213 L433 209 Z M456 184 L461 187 L462 197 L461 201 L462 204 L466 208 L465 211 L461 212 L457 206 L455 206 L451 212 L445 210 L450 200 L449 198 L449 187 Z M358 152 L349 169 L344 171 L343 183 L338 181 L334 172 L330 196 L328 197 L323 192 L325 216 L338 230 L354 230 L360 235 L364 230 L378 231 L390 221 L394 215 L396 192 L388 196 L385 174 L382 173 L377 183 L374 171 L369 168 L361 152 Z M336 207 L338 206 L340 208 L346 208 L349 203 L348 194 L356 190 L357 181 L360 180 L362 182 L362 190 L370 194 L369 197 L370 205 L373 208 L378 208 L381 206 L382 211 L380 215 L376 211 L374 211 L374 214 L370 217 L364 214 L361 207 L358 207 L353 216 L347 217 L344 214 L344 211 L342 211 L338 215 L336 212 Z M358 169 L360 168 L361 171 L359 172 Z M269 152 L266 163 L254 182 L247 173 L247 181 L242 190 L235 184 L235 216 L242 228 L253 233 L266 231 L287 233 L298 228 L304 218 L305 184 L297 192 L292 179 L293 174 L286 182 Z M287 208 L289 208 L291 211 L291 215 L288 220 L285 217 L285 210 Z M251 208 L256 211 L256 216 L253 220 L249 217 L249 211 Z M265 187 L275 187 L276 188 L275 205 L278 210 L281 211 L280 213 L275 213 L271 207 L269 207 L265 214 L260 212 L266 204 L265 201 L266 194 L264 190 Z M269 174 L271 174 L273 177 L271 181 L267 179 L267 176 Z M113 151 L102 177 L96 184 L97 191 L92 192 L91 199 L87 203 L88 210 L85 211 L85 218 L89 225 L97 229 L97 232 L106 234 L115 243 L121 234 L129 233 L132 228 L140 223 L142 210 L135 192 L130 192 L130 180 L125 177 L122 165 L115 151 Z M113 213 L117 216 L114 222 L110 218 Z M125 194 L126 196 L122 200 L120 197 L123 194 Z M101 195 L105 194 L107 198 L104 200 Z M43 149 L40 159 L37 160 L33 171 L29 172 L27 182 L24 183 L23 189 L20 191 L20 196 L17 198 L17 207 L25 222 L30 227 L36 227 L37 231 L45 238 L52 227 L55 228 L62 223 L70 211 L72 198 L69 197 L65 185 L60 182 L59 173 L55 171 L51 160 L48 159 L45 149 Z M43 196 L45 196 L50 203 L49 210 L45 206 L42 206 L40 209 L37 207 L39 200 Z"/></svg>
