<svg xmlns="http://www.w3.org/2000/svg" width="512" height="512" viewBox="0 0 512 512" aria-hidden="true" focusable="false"><path fill="currentColor" fill-rule="evenodd" clip-rule="evenodd" d="M453 415 L453 418 L459 417 L477 418 L477 415 Z M433 415 L433 418 L448 418 L448 415 Z M420 415 L420 418 L428 418 L428 415 Z M395 415 L395 418 L416 418 L416 416 Z M363 415 L363 418 L390 418 L390 415 Z M302 418 L343 418 L344 415 L302 415 Z M287 415 L287 418 L291 419 L298 418 L297 415 Z M193 415 L193 418 L221 418 L222 419 L231 418 L228 415 L217 415 L216 417 L214 417 L213 415 Z M180 416 L180 418 L189 418 L188 415 Z M160 418 L166 419 L177 418 L176 415 L161 415 Z M141 415 L141 418 L156 418 L156 415 Z M121 415 L121 418 L137 418 L137 415 Z M101 415 L101 418 L110 418 L113 416 L117 418 L116 415 L112 416 Z M357 414 L355 416 L356 419 L360 419 L360 416 Z M238 415 L239 419 L283 418 L283 415 L274 415 L273 417 L269 415 L243 415 L242 414 Z M65 415 L66 419 L96 418 L96 415 L85 415 L84 416 L78 415 L71 416 L69 414 Z M54 414 L32 415 L28 416 L28 420 L51 419 L54 417 Z M23 397 L24 401 L36 401 L37 397 Z M118 396 L118 401 L131 401 L131 396 Z M85 397 L85 401 L102 401 L102 396 L86 396 Z M55 397 L55 400 L60 401 L69 400 L69 397 L64 396 Z M284 392 L284 396 L309 396 L309 392 Z M251 392 L251 396 L276 396 L277 393 L275 392 Z M218 392 L218 396 L226 397 L242 396 L242 392 Z M184 392 L184 396 L206 396 L207 395 L207 392 Z M317 392 L317 396 L343 396 L343 392 L333 391 Z M362 389 L361 392 L362 397 L365 400 L370 401 L369 403 L364 403 L364 406 L372 407 L371 398 L365 398 L364 396 L365 395 L375 395 L375 391 L364 392 Z M452 387 L450 389 L450 398 L452 399 L452 406 L461 407 L460 401 L463 398 L463 389 L461 387 Z M452 396 L455 395 L456 392 L461 393 L460 398 L453 398 Z M482 386 L480 393 L477 396 L478 401 L475 403 L475 407 L483 406 L492 407 L493 403 L488 401 L491 397 L488 394 L487 388 L485 386 Z M480 400 L484 397 L487 401 L481 402 Z M428 386 L428 388 L433 390 L433 393 L431 394 L429 391 L426 390 L425 399 L427 399 L428 401 L424 403 L424 406 L432 407 L432 403 L429 400 L432 397 L434 397 L435 392 L432 387 Z M397 386 L397 389 L399 390 L398 393 L393 392 L393 397 L396 400 L394 403 L394 407 L403 407 L403 403 L398 403 L397 401 L403 399 L404 392 L399 386 Z M399 394 L401 393 L402 396 L400 397 Z M365 387 L371 388 L371 386 Z M324 381 L324 384 L337 384 L337 381 L328 382 Z M268 381 L268 384 L272 383 L272 381 Z M254 381 L254 383 L258 384 L258 381 Z M288 381 L288 383 L296 385 L306 383 L306 381 L297 380 Z M262 380 L261 384 L264 385 L265 381 Z M224 380 L224 384 L231 383 L235 385 L236 381 L231 383 L230 381 Z M191 381 L191 384 L196 385 L203 384 L203 381 L197 380 Z M389 378 L389 382 L409 382 L409 378 Z M452 379 L453 382 L460 381 L460 377 L458 378 L454 377 Z M432 378 L431 377 L425 378 L424 382 L432 382 Z M366 372 L365 373 L369 377 L365 378 L365 382 L372 382 L372 378 L369 376 L369 373 Z M165 371 L154 380 L153 383 L149 385 L149 387 L144 391 L144 394 L147 395 L146 400 L151 401 L162 401 L163 400 L163 395 L165 393 Z M158 394 L161 393 L162 395 L159 396 Z M148 396 L149 393 L156 394 L155 396 L150 397 Z M123 371 L115 379 L115 384 L118 387 L118 389 L126 393 L133 386 L135 381 L134 378 L131 377 L131 375 Z M95 371 L91 372 L87 377 L85 377 L84 380 L85 386 L88 387 L90 391 L93 393 L97 391 L98 388 L101 387 L104 383 L102 377 L99 377 L98 373 Z M52 375 L53 387 L56 388 L54 393 L60 393 L61 390 L63 391 L63 393 L69 393 L75 387 L71 379 L68 380 L68 384 L65 387 L63 386 L64 376 L60 371 L57 375 L55 376 Z M30 369 L27 382 L22 387 L21 393 L22 394 L39 394 L38 387 L35 385 L35 382 L33 381 L31 369 Z M423 367 L424 375 L426 374 L429 375 L434 372 L433 370 L432 372 L427 373 L426 371 L431 369 L431 367 Z M459 365 L458 364 L451 370 L459 373 L457 369 Z M364 363 L362 364 L362 369 L363 369 Z M484 362 L483 364 L486 366 L487 371 L482 372 L479 369 L478 373 L481 373 L483 375 L482 377 L479 378 L480 382 L489 381 L489 379 L485 377 L485 374 L489 373 L488 366 Z M396 362 L395 366 L392 367 L391 369 L395 370 L397 375 L401 375 L401 373 L399 373 L398 371 L406 370 L406 367 L401 362 Z M117 366 L130 366 L131 363 L130 362 L118 362 Z M45 363 L44 362 L17 363 L17 365 L45 366 Z M153 361 L153 366 L160 366 L161 362 Z M85 362 L85 366 L101 366 L102 364 L101 362 L96 361 L93 362 L86 361 Z M52 363 L52 366 L71 366 L71 363 L69 361 L67 362 L54 361 Z M432 355 L431 354 L425 355 L425 358 L432 358 Z M478 348 L478 351 L482 352 L480 355 L480 358 L488 357 L488 352 L490 349 L481 350 L480 348 Z M482 352 L487 351 L488 353 L483 354 Z M363 344 L363 351 L369 352 L367 355 L365 355 L365 358 L372 358 L373 350 L371 350 L370 347 L365 348 Z M72 349 L69 347 L69 344 L62 346 L54 345 L54 347 L51 349 L53 351 L52 356 L60 356 L61 353 L63 354 L63 356 L71 356 L70 351 Z M452 343 L454 353 L450 355 L450 358 L462 358 L463 355 L454 354 L456 350 L460 352 L461 351 L462 343 L460 343 L459 346 L455 346 L454 343 Z M105 352 L101 353 L100 352 L101 348 L97 347 L96 343 L94 343 L93 346 L88 345 L86 348 L81 350 L82 355 L86 356 L95 355 L99 356 L100 354 L103 354 Z M86 353 L88 352 L89 354 L87 355 Z M370 342 L374 346 L374 344 Z M113 351 L113 353 L118 356 L132 356 L133 354 L138 353 L138 351 L133 349 L136 345 L132 345 L131 343 L120 342 L117 349 Z M128 349 L131 348 L132 350 L129 351 Z M480 341 L482 347 L485 347 L487 343 L483 343 L482 341 Z M252 341 L251 343 L252 362 L263 362 L264 363 L263 365 L256 365 L255 369 L274 369 L273 365 L267 365 L266 363 L278 361 L278 341 L267 341 L266 340 Z M254 346 L257 343 L264 344 L272 343 L276 347 L275 357 L270 361 L257 360 L254 357 Z M220 342 L218 351 L219 360 L221 362 L229 363 L228 365 L221 365 L221 369 L239 369 L239 365 L231 365 L230 363 L238 362 L241 359 L240 342 L230 340 Z M235 343 L238 346 L238 358 L235 361 L224 361 L220 357 L220 347 L223 344 Z M185 342 L183 351 L184 360 L186 362 L195 363 L194 365 L188 365 L187 369 L206 369 L205 365 L198 365 L197 363 L205 362 L208 360 L207 342 L197 340 Z M190 343 L203 344 L205 346 L205 357 L202 360 L192 361 L186 357 L186 347 Z M428 339 L424 342 L423 347 L427 351 L431 351 L434 348 L434 343 L432 342 L432 340 Z M428 341 L433 343 L433 347 L431 349 L427 349 L424 346 Z M393 339 L392 340 L393 345 L392 350 L396 352 L397 351 L400 352 L398 355 L394 355 L395 358 L403 358 L403 352 L405 350 L404 346 L405 340 L404 339 L399 340 Z M400 352 L402 351 L403 353 L401 354 Z M400 348 L402 347 L403 349 L401 350 Z M400 342 L402 341 L403 343 L401 344 Z M394 342 L396 341 L397 343 L395 344 Z M321 341 L318 351 L321 359 L326 360 L328 362 L327 365 L324 364 L322 365 L322 369 L339 369 L338 365 L333 364 L330 365 L329 363 L340 359 L343 351 L340 341 L332 338 Z M324 343 L331 341 L338 344 L340 351 L337 358 L327 359 L323 357 L321 349 Z M295 339 L290 344 L288 352 L293 360 L297 362 L301 362 L302 364 L301 365 L292 364 L292 369 L308 369 L308 365 L304 365 L303 363 L311 356 L312 346 L307 340 L303 338 Z M297 341 L306 342 L310 349 L308 356 L303 360 L296 360 L290 353 L291 346 Z M158 336 L153 343 L150 344 L147 349 L148 353 L155 358 L158 358 L167 352 L166 347 L164 344 L161 343 Z M352 327 L353 336 L427 336 L429 334 L429 328 L427 326 L353 326 Z M185 328 L185 335 L187 337 L269 337 L272 336 L273 328 L270 326 L187 326 Z M17 328 L18 336 L29 338 L29 344 L23 346 L19 351 L19 354 L22 357 L29 358 L38 357 L40 351 L39 348 L31 343 L32 337 L106 337 L109 334 L109 329 L106 326 L19 326 Z M478 313 L478 317 L486 318 L491 316 L490 313 Z M447 314 L447 317 L450 318 L464 317 L464 313 L448 313 Z M419 313 L419 318 L431 318 L431 313 Z M390 313 L390 318 L399 318 L399 313 Z M353 318 L355 316 L359 318 L361 317 L370 318 L371 313 L355 313 Z M313 314 L314 318 L331 318 L331 313 Z M285 314 L285 317 L291 318 L293 317 L293 313 Z M253 313 L253 318 L261 318 L261 313 Z M220 313 L220 318 L232 318 L232 313 L225 314 Z M187 313 L187 318 L205 317 L204 313 Z M125 313 L125 317 L133 317 L132 313 Z M416 302 L416 304 L420 307 L420 309 L425 310 L435 309 L434 306 L435 301 L432 300 L432 296 L427 298 L420 296 L419 300 Z M406 300 L402 298 L397 298 L395 295 L392 299 L388 298 L385 299 L384 301 L385 305 L392 306 L393 301 L398 299 L399 301 L396 305 L403 306 L405 305 Z M285 294 L286 296 L290 297 L292 301 L289 304 L287 304 L284 300 L282 300 L282 303 L285 307 L292 308 L297 303 L298 297 L294 299 L292 295 Z M257 296 L253 294 L250 295 L247 298 L247 301 L249 301 L250 297 L257 297 Z M192 294 L192 299 L189 301 L189 303 L194 305 L197 309 L204 309 L203 307 L205 305 L204 297 L195 296 L194 294 Z M492 292 L483 293 L482 299 L481 300 L479 299 L475 302 L476 310 L485 309 L486 306 L485 303 L493 299 L491 295 Z M364 292 L361 292 L358 294 L357 297 L357 305 L360 308 L360 310 L363 305 L368 307 L368 297 L366 296 Z M324 291 L320 292 L316 306 L318 306 L319 304 L321 306 L323 306 L324 304 L327 304 L327 299 Z M225 291 L222 294 L218 294 L219 297 L217 302 L219 303 L219 305 L226 310 L228 307 L232 305 L234 300 L232 298 L233 294 L228 294 Z M102 290 L100 290 L99 292 L91 292 L90 295 L88 294 L85 299 L86 307 L89 310 L95 309 L97 311 L96 313 L91 314 L92 317 L100 317 L100 313 L98 311 L105 309 L106 293 Z M454 289 L454 294 L449 300 L449 307 L451 307 L452 310 L458 310 L461 307 L461 300 L457 294 L456 289 Z M167 289 L163 289 L161 293 L152 298 L152 303 L150 304 L151 317 L168 316 L167 311 L169 310 L169 297 L168 296 L166 298 L162 297 L164 293 L167 293 Z M159 311 L165 310 L166 312 L163 314 L160 313 Z M152 311 L155 310 L156 312 L153 313 Z M151 305 L153 304 L154 307 L152 308 Z M130 288 L127 288 L124 293 L119 294 L119 297 L123 299 L121 309 L123 310 L127 310 L129 308 L138 305 L138 300 L135 292 Z M127 302 L129 301 L130 303 L128 304 Z M58 289 L52 296 L52 302 L55 303 L55 307 L57 307 L60 310 L64 310 L65 312 L64 313 L54 313 L54 317 L72 317 L72 314 L67 312 L66 308 L73 305 L74 296 L71 293 L71 291 L68 289 L64 288 Z M29 288 L24 294 L21 294 L20 300 L26 305 L23 309 L25 312 L22 314 L23 317 L36 317 L36 313 L26 312 L27 310 L36 310 L35 304 L38 303 L40 300 L37 292 Z M477 283 L481 285 L484 285 L486 283 L489 285 L495 283 L494 280 L478 280 Z M445 281 L447 285 L452 284 L458 285 L464 283 L464 280 L446 280 Z M185 280 L186 284 L196 284 L198 282 L201 284 L211 283 L210 280 L199 280 L198 281 Z M313 280 L314 284 L318 282 L321 284 L331 283 L331 280 L329 279 L326 280 L314 279 Z M280 280 L281 284 L297 284 L296 279 L294 280 L281 279 Z M235 280 L234 279 L219 280 L218 284 L233 284 Z M89 279 L90 283 L101 283 L102 282 L102 278 Z M58 278 L59 283 L68 282 L67 278 Z M151 268 L151 272 L153 274 L152 268 Z M232 264 L232 272 L234 273 L235 271 L234 264 Z M220 262 L218 265 L218 273 L219 273 Z M282 262 L282 266 L279 272 L282 272 L284 275 L290 270 L295 275 L298 274 L298 272 L295 272 L293 270 L294 268 L297 267 L297 261 L294 260 L289 263 L286 260 L284 260 Z M282 270 L284 269 L285 271 L283 272 Z M85 263 L86 270 L88 267 L93 268 L102 267 L104 271 L106 269 L106 263 L100 262 L97 259 L94 260 L99 263 L98 266 L92 266 L91 263 L88 262 Z M370 261 L365 261 L364 258 L361 258 L359 261 L355 261 L354 265 L355 274 L360 274 L362 279 L353 280 L354 285 L361 284 L365 285 L371 283 L371 280 L363 279 L365 275 L370 274 L371 270 Z M366 270 L368 269 L369 271 L367 272 Z M356 270 L358 269 L359 271 L357 272 Z M364 264 L367 263 L368 265 L365 266 Z M381 256 L381 264 L387 270 L388 275 L392 278 L391 280 L384 280 L383 284 L384 285 L404 285 L405 281 L398 280 L397 278 L400 277 L400 274 L402 273 L402 268 L407 265 L408 261 L407 256 L405 256 L400 261 L397 261 L395 258 L389 261 L385 259 L383 256 Z M387 266 L389 265 L390 267 L388 268 Z M308 266 L309 271 L315 272 L317 274 L322 273 L326 274 L330 272 L333 272 L334 274 L336 273 L336 266 L334 266 L334 269 L332 270 L331 266 L329 266 L326 263 L326 258 L324 258 L324 264 L323 265 L320 264 L320 256 L318 256 L318 263 L314 266 L313 270 L311 270 L310 266 Z M318 267 L319 270 L316 272 L315 269 Z M51 264 L51 267 L53 268 L52 274 L54 275 L57 273 L72 274 L74 272 L72 270 L74 266 L73 262 L67 263 L60 256 L58 256 L55 259 L55 261 Z M227 255 L225 256 L225 265 L223 267 L223 273 L221 274 L221 276 L225 276 L226 273 L229 273 L229 267 L227 266 L227 262 L230 261 L230 259 L227 258 Z M186 256 L188 260 L188 266 L190 269 L193 270 L193 272 L190 273 L190 275 L196 276 L197 273 L200 272 L203 276 L205 276 L206 274 L204 270 L206 267 L198 264 L192 255 Z M195 264 L198 265 L197 270 L194 269 Z M156 255 L155 256 L156 262 L164 263 L167 269 L166 272 L162 274 L161 265 L157 267 L159 273 L156 274 L156 283 L164 283 L163 276 L168 273 L167 257 L164 257 L163 255 L160 256 Z M158 257 L160 256 L161 258 L159 259 Z M256 254 L256 259 L250 261 L250 265 L247 266 L247 270 L250 270 L257 278 L248 279 L248 283 L249 284 L264 284 L266 280 L258 279 L257 277 L264 270 L267 270 L266 263 L263 263 L262 260 L258 258 L258 254 Z M29 254 L24 259 L20 260 L21 261 L20 269 L26 276 L25 278 L22 278 L23 283 L27 282 L35 283 L36 282 L35 276 L37 272 L39 271 L39 264 L37 262 L40 261 L40 259 L35 259 L34 255 Z M22 262 L24 261 L25 264 L23 265 Z M127 253 L125 255 L122 255 L122 259 L120 261 L120 265 L118 266 L118 270 L122 271 L123 276 L122 282 L123 283 L135 283 L136 281 L133 276 L135 272 L139 269 L139 266 L137 265 L137 261 L135 260 L135 255 L131 255 Z M122 266 L124 265 L125 267 L123 268 Z M131 261 L133 260 L134 262 L132 263 Z M482 252 L476 256 L474 260 L474 268 L481 275 L489 275 L494 271 L496 267 L496 260 L490 253 Z M486 265 L488 266 L489 269 L488 271 L484 269 Z M456 252 L447 256 L447 268 L454 277 L457 276 L462 269 L462 256 Z M453 271 L455 270 L456 272 L454 273 Z M457 262 L459 263 L458 267 L456 266 Z M450 258 L452 257 L453 259 L451 260 Z M352 242 L353 251 L424 251 L425 252 L424 257 L421 261 L419 261 L418 275 L424 277 L425 279 L417 280 L417 283 L419 285 L434 284 L434 280 L426 279 L427 277 L433 275 L433 268 L431 267 L432 261 L428 259 L428 256 L426 254 L426 252 L429 249 L429 243 L427 241 Z M185 243 L186 251 L266 251 L268 249 L268 244 L265 241 L187 241 Z M17 243 L18 251 L108 251 L109 250 L109 243 L107 241 L19 241 Z M478 227 L478 230 L491 230 L491 227 Z M449 227 L449 230 L458 230 L458 227 Z M418 227 L418 230 L430 230 L430 227 Z M391 230 L399 230 L400 227 L391 227 Z M362 227 L362 230 L365 229 L369 230 L369 227 Z M254 226 L254 230 L263 229 L262 226 Z M218 226 L218 230 L235 230 L235 226 Z M186 233 L187 235 L203 235 L204 234 L203 232 L198 231 L199 229 L202 229 L201 226 L188 226 L188 231 Z M154 226 L154 229 L175 229 L175 226 Z M105 227 L108 229 L121 229 L122 228 L121 226 Z M46 229 L59 229 L63 228 L64 226 L47 226 Z M17 226 L17 228 L20 230 L20 234 L22 235 L29 235 L30 229 L36 229 L36 227 Z M320 227 L320 229 L323 230 L335 228 L335 226 L329 225 Z M305 231 L300 231 L299 225 L286 226 L286 230 L281 231 L281 235 L292 234 L295 236 L296 234 L305 234 Z M131 225 L131 228 L135 229 L147 229 L148 226 Z M75 226 L75 229 L92 229 L92 226 L80 226 L79 225 Z M22 213 L20 213 L21 218 Z M477 209 L477 211 L474 213 L475 216 L472 218 L473 220 L476 221 L476 223 L491 224 L492 222 L494 222 L495 217 L493 216 L494 214 L491 209 L485 207 Z M478 221 L479 220 L491 220 L492 222 L491 223 L479 223 Z M482 214 L485 213 L486 216 L483 217 Z M64 207 L62 207 L62 212 L64 211 Z M134 206 L132 206 L131 208 L132 216 L133 210 L135 208 Z M48 205 L46 205 L45 207 L46 212 Z M453 202 L449 209 L448 223 L458 224 L459 223 L458 208 L456 207 L455 202 Z M423 202 L421 203 L420 207 L421 212 L419 215 L419 221 L422 224 L428 224 L430 222 L430 215 L428 212 L428 203 Z M421 212 L426 211 L427 213 L422 214 Z M423 205 L426 204 L427 206 L424 207 Z M393 202 L391 207 L391 222 L393 224 L398 224 L399 223 L399 206 L397 205 L397 202 Z M365 201 L363 203 L363 206 L358 208 L358 215 L356 222 L372 223 L374 222 L373 209 L369 207 L368 203 Z M367 217 L369 216 L370 218 L368 219 Z M360 217 L363 216 L365 219 L363 220 Z M362 211 L364 210 L365 212 L363 213 Z M292 197 L290 198 L288 202 L288 205 L290 206 L290 208 L287 209 L285 207 L284 221 L285 222 L301 222 L302 221 L301 207 L299 206 L296 198 Z M286 216 L288 215 L289 217 L287 218 Z M28 197 L25 198 L22 206 L23 209 L26 209 L29 211 L28 213 L26 213 L28 217 L25 218 L23 221 L25 221 L26 219 L30 221 L33 218 L33 214 L31 211 Z M138 196 L137 203 L140 211 L136 212 L135 220 L138 220 L139 217 L141 218 L141 220 L144 220 L143 210 L148 209 L146 206 L143 208 L141 207 L140 205 L142 202 L141 196 Z M115 195 L107 198 L106 202 L103 205 L104 212 L105 213 L107 211 L109 212 L111 216 L111 220 L113 220 L114 218 L113 216 L114 212 L117 215 L119 212 L114 211 L113 205 L115 204 L118 207 L118 209 L120 210 L121 209 L120 204 L117 202 L118 197 Z M108 204 L111 205 L109 210 L106 209 Z M111 202 L113 201 L114 203 L112 204 Z M81 195 L81 197 L78 198 L79 204 L74 206 L74 215 L76 217 L78 215 L78 212 L80 211 L81 218 L79 220 L87 220 L89 219 L89 216 L92 215 L92 206 L89 206 L87 204 L88 198 L86 198 L85 195 Z M85 216 L87 215 L88 218 L86 219 Z M258 193 L256 198 L256 205 L252 207 L252 210 L254 212 L251 213 L251 216 L247 219 L247 222 L249 222 L250 219 L254 223 L270 222 L270 219 L266 216 L265 213 L266 208 L262 205 L262 198 L260 196 L260 193 Z M259 206 L260 208 L257 211 L256 208 Z M226 193 L223 197 L222 207 L219 210 L218 219 L216 220 L216 222 L235 223 L237 221 L235 220 L235 217 L232 216 L234 214 L234 211 L230 206 L229 195 Z M224 211 L228 210 L229 212 L225 213 Z M194 193 L193 198 L190 202 L190 208 L188 212 L183 215 L185 220 L187 221 L198 222 L199 220 L205 220 L206 215 L201 210 L201 205 L198 199 L198 194 Z M186 216 L188 215 L189 217 L187 218 Z M164 193 L162 194 L162 198 L157 214 L162 217 L166 215 L168 208 Z M327 192 L326 199 L322 202 L317 201 L318 215 L324 221 L329 222 L332 221 L339 213 L338 209 L339 201 L334 202 L331 199 L329 192 Z M54 192 L54 199 L52 200 L53 206 L51 207 L51 213 L48 214 L48 216 L50 217 L52 215 L56 215 L58 218 L59 215 L57 214 L59 211 L58 206 L61 204 L61 202 L58 202 L56 200 L56 192 Z M116 176 L116 181 L129 181 L128 176 Z M83 176 L83 180 L92 181 L99 180 L99 176 Z M52 176 L52 181 L69 180 L68 176 L64 177 Z M17 177 L18 181 L44 181 L44 176 L41 177 L39 176 L35 177 L18 176 Z M483 171 L480 177 L480 181 L482 182 L482 187 L480 188 L480 190 L486 190 L487 193 L486 194 L477 193 L476 197 L491 198 L493 195 L489 193 L489 179 L487 176 L487 173 Z M453 171 L452 174 L454 176 L450 178 L447 186 L447 191 L449 193 L445 194 L445 196 L447 198 L462 198 L462 194 L459 193 L459 191 L461 190 L461 187 L457 186 L457 183 L459 182 L458 178 L455 177 L456 172 Z M450 191 L455 190 L456 193 L453 194 Z M423 171 L423 173 L419 174 L418 177 L417 198 L432 198 L431 177 L430 174 L428 174 L426 171 Z M424 177 L429 179 L429 186 L427 189 L421 188 L421 179 Z M393 171 L392 177 L390 178 L388 183 L388 187 L392 193 L387 194 L387 198 L403 198 L404 194 L398 193 L402 188 L401 179 L399 178 L398 173 L396 171 Z M395 178 L397 179 L399 183 L399 187 L397 189 L394 189 L391 186 Z M364 171 L363 174 L357 178 L357 185 L362 191 L362 193 L360 195 L357 195 L358 198 L373 198 L373 194 L369 194 L368 191 L373 186 L374 179 L372 176 L367 174 L367 171 Z M361 178 L364 179 L369 178 L371 180 L370 185 L366 189 L363 188 L359 183 L359 180 Z M246 149 L245 153 L246 158 L254 166 L254 172 L259 175 L258 177 L253 178 L254 182 L251 183 L251 187 L263 187 L264 188 L270 187 L270 183 L267 182 L267 178 L264 177 L263 175 L268 173 L270 169 L270 165 L276 159 L277 150 L274 150 L272 153 L268 155 L267 158 L262 152 L260 152 L258 157 L256 158 L255 155 L250 153 L248 149 Z M87 147 L84 150 L82 150 L82 155 L79 156 L79 162 L82 165 L82 168 L84 168 L85 170 L95 171 L98 168 L100 168 L100 166 L102 165 L103 155 L100 154 L100 150 L98 150 L97 148 Z M329 146 L326 154 L323 158 L321 158 L320 164 L322 166 L322 171 L320 174 L325 174 L327 172 L328 174 L331 174 L332 176 L323 177 L323 182 L316 183 L316 187 L327 187 L328 186 L343 187 L343 183 L340 184 L333 183 L334 181 L337 180 L335 175 L339 174 L337 171 L337 166 L339 164 L338 159 L335 158 L332 152 L331 146 Z M327 163 L331 162 L332 165 L329 166 Z M154 146 L152 147 L152 152 L150 155 L148 154 L149 150 L144 150 L143 157 L140 159 L140 161 L143 164 L143 170 L148 170 L153 174 L152 176 L146 176 L146 181 L163 180 L163 176 L154 175 L155 173 L154 169 L159 167 L160 170 L164 170 L164 166 L161 164 L162 161 L166 162 L167 159 L164 157 L163 150 L158 150 L157 151 L159 152 L159 154 L157 155 L154 152 L155 149 Z M147 167 L150 166 L151 168 L148 169 Z M154 164 L156 163 L157 165 L155 166 Z M145 163 L147 162 L148 164 L146 165 Z M161 157 L163 156 L164 159 L162 160 Z M143 158 L146 155 L148 156 L145 159 Z M154 155 L156 154 L159 158 L156 159 Z M59 146 L58 148 L55 148 L56 150 L55 153 L50 154 L49 160 L51 160 L52 163 L58 164 L58 167 L52 168 L52 170 L61 173 L68 170 L67 168 L63 168 L61 164 L67 163 L67 161 L70 160 L71 158 L68 151 L66 151 L65 148 Z M22 146 L21 167 L20 168 L21 172 L25 172 L26 166 L28 167 L28 169 L31 169 L31 167 L33 166 L34 172 L38 172 L37 146 L35 146 L35 155 L33 157 L31 156 L31 151 L29 151 L27 165 L25 164 L24 160 L25 158 L24 146 Z M31 163 L33 162 L34 164 L32 165 Z M31 159 L33 158 L34 160 L32 161 Z M225 144 L220 152 L221 160 L216 165 L216 170 L218 171 L218 173 L222 175 L221 177 L218 177 L217 187 L223 188 L235 187 L235 178 L227 177 L228 175 L233 173 L236 169 L235 157 L232 153 L226 150 L226 144 Z M227 182 L230 181 L231 183 L228 184 Z M194 144 L191 151 L184 154 L185 163 L189 164 L189 162 L191 161 L193 165 L192 167 L190 166 L188 168 L188 170 L192 171 L191 173 L188 173 L188 175 L191 176 L190 183 L184 184 L184 187 L205 187 L205 184 L199 183 L199 178 L193 177 L194 175 L203 175 L206 173 L206 161 L207 160 L206 154 L201 152 L199 148 L196 146 L196 144 Z M199 171 L202 170 L203 172 L200 173 Z M193 156 L197 155 L198 157 L194 158 Z M121 144 L121 149 L119 151 L120 155 L118 156 L118 161 L116 162 L116 167 L114 171 L115 172 L120 171 L129 172 L127 162 L125 161 L125 156 L123 155 L124 153 L123 144 Z M423 142 L419 149 L417 167 L432 167 L432 163 L430 162 L430 150 L427 143 Z M421 158 L427 157 L428 159 L422 160 Z M393 142 L389 150 L388 156 L389 163 L387 167 L403 167 L404 165 L402 163 L403 157 L401 155 L401 149 L397 142 Z M390 158 L398 157 L399 159 L391 160 Z M359 142 L358 143 L357 167 L363 168 L373 167 L372 142 Z M361 149 L363 148 L364 150 L362 151 Z M367 145 L369 144 L370 146 L368 147 Z M299 142 L296 144 L296 148 L293 151 L294 156 L290 158 L289 169 L291 170 L291 176 L288 178 L288 182 L283 184 L283 187 L310 187 L311 184 L303 183 L305 181 L305 175 L308 166 L306 158 L302 157 L303 151 L300 149 Z M297 175 L299 174 L300 176 L298 177 Z M451 142 L447 149 L447 153 L445 156 L447 162 L443 163 L442 167 L444 168 L451 167 L466 168 L466 164 L461 162 L462 155 L459 146 L455 141 Z M450 157 L452 156 L453 158 L451 159 Z M483 139 L482 143 L476 151 L476 158 L478 161 L476 164 L476 167 L492 168 L492 164 L490 161 L492 159 L493 154 L490 147 L490 143 L488 143 L486 139 Z M482 147 L487 148 L489 151 L489 158 L487 160 L482 160 L479 157 L479 153 Z M352 130 L352 137 L355 139 L422 139 L426 135 L426 132 L422 128 L354 128 Z M185 131 L185 136 L188 139 L264 139 L267 138 L268 131 L265 128 L188 128 Z M17 130 L17 137 L20 139 L96 139 L99 137 L99 130 L97 128 L19 128 Z M283 115 L281 116 L281 119 L283 119 L284 116 Z M242 115 L239 116 L238 118 L241 118 Z M196 115 L197 118 L200 118 L200 116 Z M329 115 L329 120 L359 121 L359 114 L352 115 L330 114 Z M288 115 L288 121 L293 121 L294 119 L300 121 L317 120 L317 114 L310 115 L308 114 L289 114 Z M246 116 L247 120 L251 121 L268 121 L269 118 L271 119 L271 121 L276 121 L276 116 L274 114 L254 114 L253 116 L248 114 Z M204 114 L206 121 L209 120 L225 121 L226 119 L233 121 L233 114 L227 115 L225 114 L212 114 L211 115 Z M162 115 L162 119 L165 121 L169 119 L175 121 L192 121 L193 116 L190 114 L174 114 L170 116 L168 114 Z M175 117 L177 116 L178 118 L176 119 Z M212 100 L211 103 L213 104 L215 102 Z M137 97 L134 101 L132 101 L132 103 L137 108 L139 108 L139 106 L143 102 Z M379 96 L373 102 L378 108 L380 108 L385 103 L385 101 L383 101 Z M354 95 L352 99 L353 102 L352 109 L364 109 L362 105 L362 102 L364 101 L364 99 L359 95 Z M291 96 L291 108 L293 108 L294 103 L297 105 L297 107 L301 108 L301 102 L304 101 L305 102 L304 108 L311 109 L316 108 L318 105 L320 105 L321 109 L324 109 L325 106 L327 106 L328 109 L331 109 L333 99 L339 101 L335 109 L341 106 L343 106 L346 109 L349 108 L344 103 L345 100 L349 100 L349 99 L344 98 L343 95 L340 95 L339 98 L333 98 L332 95 L329 95 L328 97 L321 95 L321 97 L319 98 L320 100 L319 104 L316 103 L317 101 L316 95 L305 95 L303 100 L301 99 L300 96 L297 99 L294 96 Z M279 96 L277 99 L277 105 L280 108 L285 108 L288 104 L288 99 L284 95 Z M282 98 L284 98 L286 101 L286 103 L283 106 L280 104 L280 100 Z M259 97 L259 108 L262 108 L263 103 L268 108 L275 107 L274 105 L268 104 L268 100 L270 98 L275 98 L272 95 L267 97 L264 101 L262 100 L261 95 Z M224 97 L223 108 L231 109 L233 107 L234 109 L238 109 L246 107 L247 109 L251 108 L255 109 L256 98 L253 97 L252 95 L250 95 L249 98 L244 95 L242 95 L241 98 L239 98 L237 95 L225 95 Z M250 104 L252 103 L253 105 L251 106 Z M239 99 L241 100 L242 104 L240 107 L238 106 Z M153 96 L153 109 L155 108 L166 109 L167 101 L171 103 L171 109 L177 108 L182 109 L185 107 L187 109 L193 109 L194 106 L197 106 L198 109 L200 109 L200 107 L203 106 L201 95 L195 96 L188 95 L188 105 L187 106 L185 105 L184 97 L182 95 L172 95 L169 101 L165 98 L166 95 L162 96 L154 95 Z M173 105 L175 104 L176 106 L174 107 Z"/></svg>
