<svg xmlns="http://www.w3.org/2000/svg" width="512" height="512" viewBox="0 0 512 512" aria-hidden="true" focusable="false"><path fill="currentColor" fill-rule="evenodd" clip-rule="evenodd" d="M256 15 L249 67 L192 148 L177 120 L177 138 L188 175 L167 176 L161 172 L154 158 L154 134 L150 134 L149 146 L150 162 L155 168 L152 176 L112 170 L102 157 L103 193 L90 242 L81 239 L83 230 L75 216 L76 251 L89 262 L87 277 L52 297 L45 295 L42 280 L37 277 L35 299 L40 311 L58 315 L60 328 L86 333 L85 337 L78 335 L78 343 L84 344 L84 405 L75 415 L75 436 L70 442 L76 463 L65 465 L66 474 L187 474 L185 498 L328 498 L326 472 L445 471 L446 464 L434 463 L440 443 L438 412 L430 406 L430 344 L434 342 L430 332 L453 328 L455 315 L473 311 L478 296 L474 275 L466 296 L459 297 L432 282 L422 271 L423 262 L437 251 L434 233 L438 231 L438 216 L430 228 L432 238 L420 241 L405 180 L409 152 L398 170 L359 178 L358 135 L352 172 L325 175 L328 147 L336 127 L321 148 L287 106 L262 67 Z M188 473 L190 472 L191 474 L189 475 Z M397 332 L402 333 L402 345 L405 346 L405 407 L404 408 L396 406 L396 350 L397 349 L396 333 Z M339 332 L382 332 L386 342 L383 343 L383 349 L386 351 L388 360 L386 368 L387 407 L338 406 Z M300 332 L301 333 L301 406 L296 408 L295 407 L295 338 L297 336 L297 333 Z M213 332 L218 333 L218 350 L216 351 L216 406 L215 407 L212 406 L212 333 Z M130 332 L175 333 L174 407 L125 406 L125 351 L127 349 L125 341 Z M112 332 L114 333 L114 340 L116 341 L112 346 L113 350 L116 351 L116 406 L108 407 L107 406 L107 346 L110 344 L110 335 Z"/></svg>
