<svg xmlns="http://www.w3.org/2000/svg" width="512" height="512" viewBox="0 0 512 512" aria-hidden="true" focusable="false"><path fill="currentColor" fill-rule="evenodd" clip-rule="evenodd" d="M280 414 L281 419 L289 418 L292 419 L310 419 L311 418 L326 419 L327 418 L326 414 L323 415 L321 414 L318 415 L316 414 L309 415 L307 414 L297 415 Z M179 415 L180 419 L191 416 L196 417 L198 419 L213 419 L214 418 L234 419 L235 417 L237 419 L242 419 L244 417 L249 419 L268 419 L269 418 L274 419 L274 414 L272 415 L270 414 L264 415 L251 414 L245 415 L244 417 L241 414 L239 415 L237 414 L228 415 L226 414 L198 414 L197 415 L188 414 L187 416 Z M167 413 L165 417 L166 419 L171 419 L172 416 L169 413 Z M337 412 L337 414 L334 417 L336 419 L341 419 L342 416 L339 412 Z M463 399 L464 404 L466 402 L482 403 L483 398 L479 399 L468 398 L467 400 L465 398 Z M417 398 L418 403 L424 404 L437 403 L437 398 L423 398 L422 399 Z M370 398 L371 403 L381 402 L390 403 L391 398 L388 399 Z M323 403 L326 404 L338 402 L344 403 L345 399 L344 398 L340 399 L325 398 L323 399 Z M277 400 L281 404 L298 403 L297 398 L294 399 L279 398 Z M231 398 L231 404 L252 403 L252 398 Z M185 398 L185 403 L190 404 L191 401 L195 401 L196 403 L205 403 L204 398 L195 399 Z M139 398 L139 402 L151 404 L155 403 L154 399 L152 398 L143 399 Z M91 399 L93 403 L96 402 L112 403 L113 402 L113 399 L111 398 L92 398 Z M46 398 L46 403 L57 403 L58 404 L66 403 L66 398 Z M450 396 L448 399 L448 403 L451 406 L456 405 L458 402 L458 399 L455 396 Z M404 396 L402 399 L402 403 L405 406 L411 405 L412 398 L409 396 Z M359 396 L356 399 L356 403 L360 406 L363 406 L366 400 L363 396 Z M312 396 L310 398 L310 403 L311 405 L316 406 L319 403 L319 399 L316 396 Z M266 396 L263 399 L263 403 L266 406 L269 406 L273 403 L272 402 L273 399 L270 396 Z M219 396 L217 398 L217 404 L219 406 L223 406 L227 403 L227 399 L226 397 Z M173 396 L170 399 L171 405 L174 406 L179 405 L180 398 L178 396 Z M126 396 L124 399 L124 403 L127 406 L131 406 L134 400 L131 396 Z M79 396 L77 399 L77 403 L80 406 L84 406 L87 402 L87 399 L84 396 Z M32 397 L31 403 L34 406 L38 406 L41 404 L41 399 L38 396 Z M94 386 L93 390 L95 390 Z M42 386 L42 391 L50 392 L51 388 L53 389 L54 392 L56 391 L70 392 L69 390 L70 387 L73 387 L74 391 L77 390 L84 391 L86 388 L88 388 L90 391 L90 386 Z M36 385 L35 392 L37 392 Z M23 386 L23 391 L31 390 L30 387 L24 385 Z M322 366 L323 371 L325 370 L342 371 L343 370 L343 366 Z M295 366 L295 371 L299 370 L310 371 L310 366 Z M266 366 L266 371 L281 370 L281 366 Z M241 367 L242 371 L246 370 L251 371 L251 366 Z M216 366 L216 370 L226 371 L227 366 Z M189 367 L189 371 L193 370 L203 371 L203 366 L199 367 L190 366 Z M162 371 L176 370 L177 366 L163 366 Z M127 364 L128 374 L143 375 L143 370 L136 369 L137 364 Z M58 364 L58 368 L62 370 L62 372 L60 373 L61 375 L73 375 L75 373 L74 370 L68 369 L69 367 L68 364 Z M352 358 L352 367 L353 367 L353 358 Z M352 349 L352 353 L353 353 L353 349 Z M331 336 L325 346 L322 362 L340 363 L342 361 L339 346 L335 338 Z M301 336 L294 346 L293 358 L297 362 L304 363 L309 361 L312 358 L311 346 L307 341 L307 338 L304 336 Z M272 336 L264 347 L264 357 L268 362 L276 363 L283 356 L283 348 L278 340 L274 336 Z M245 336 L245 338 L243 339 L243 345 L241 346 L241 351 L238 355 L237 362 L255 363 L256 362 L255 355 L252 353 L252 347 L249 345 L249 339 L247 336 Z M218 336 L218 363 L225 363 L225 336 Z M195 336 L193 339 L193 345 L191 346 L190 353 L188 354 L187 362 L188 363 L204 363 L205 362 L204 354 L202 353 L202 349 L199 345 L199 340 L197 336 Z M132 336 L124 342 L123 353 L125 357 L129 360 L139 361 L145 357 L148 347 L146 342 L141 337 Z M96 336 L90 342 L88 347 L88 351 L91 357 L99 362 L98 364 L92 365 L93 373 L95 375 L109 375 L108 370 L102 369 L101 362 L110 358 L113 353 L113 344 L108 338 L104 336 Z M60 337 L55 342 L53 347 L56 357 L62 361 L73 360 L79 353 L79 345 L77 341 L70 336 Z M29 336 L25 338 L21 343 L20 352 L26 360 L32 362 L31 364 L25 364 L25 369 L29 370 L29 375 L40 375 L41 370 L35 369 L34 362 L40 360 L45 355 L46 345 L41 338 L37 336 Z M170 335 L167 336 L167 338 L163 341 L160 348 L161 358 L166 363 L174 362 L177 359 L179 354 L178 345 Z M496 366 L490 359 L488 345 L486 345 L485 355 L481 354 L475 333 L473 333 L467 358 L465 359 L462 355 L465 360 L458 373 L456 372 L459 368 L459 345 L457 343 L362 343 L360 345 L360 368 L363 371 L454 371 L455 375 L488 375 L495 373 Z M166 325 L165 327 L166 330 L168 331 L169 325 Z M415 326 L417 331 L422 330 L444 331 L444 324 L438 325 L416 324 Z M378 324 L378 331 L381 330 L383 331 L407 331 L407 325 L405 324 L389 324 L385 326 L382 324 Z M362 325 L362 328 L366 329 L366 325 L365 324 Z M218 325 L219 331 L226 330 L232 331 L233 330 L232 324 L219 324 Z M181 325 L181 331 L194 331 L195 330 L201 331 L202 327 L204 328 L205 331 L209 331 L209 324 Z M76 325 L76 329 L79 331 L81 330 L89 331 L89 324 Z M38 326 L39 331 L58 331 L60 327 L62 328 L62 330 L67 331 L67 325 L39 324 Z M31 324 L31 331 L33 331 L33 324 Z M23 324 L24 327 L23 331 L25 331 L26 324 Z M230 308 L230 311 L254 311 L254 308 L249 307 Z M193 307 L193 311 L217 311 L216 307 L204 307 L203 308 Z M159 308 L160 311 L178 311 L178 308 L173 307 Z M125 307 L125 311 L143 311 L142 307 L133 308 Z M90 309 L90 311 L110 311 L109 307 L96 307 Z M57 307 L57 310 L61 311 L76 311 L76 307 Z M456 304 L456 308 L475 308 L475 304 L462 304 L461 305 Z M402 304 L402 308 L422 308 L422 304 Z M346 304 L347 308 L348 307 L364 308 L364 304 L351 304 L350 305 Z M291 305 L292 308 L297 307 L309 308 L309 304 Z M452 295 L452 300 L462 299 L474 300 L475 299 L475 296 L472 295 L461 296 L460 298 L457 295 Z M415 295 L415 300 L421 299 L423 301 L424 299 L427 298 L432 300 L434 299 L434 295 L424 295 L423 298 L420 295 Z M398 295 L400 300 L409 300 L407 296 Z M390 295 L390 300 L396 299 L395 295 Z M367 299 L372 300 L375 299 L377 296 L368 295 Z M332 295 L332 300 L338 300 L338 295 Z M299 295 L299 300 L313 298 L313 296 L310 295 Z M364 295 L363 294 L357 295 L357 299 L358 300 L364 299 Z M351 295 L349 294 L346 296 L343 296 L341 300 L347 299 L350 300 Z M285 295 L286 300 L293 299 L293 296 L289 297 L288 294 Z M380 293 L380 310 L382 310 L382 294 Z M489 291 L489 309 L491 309 L491 291 Z M322 291 L322 310 L324 310 L324 291 Z M158 298 L158 300 L161 301 L162 303 L166 300 L172 301 L174 303 L176 300 L179 300 L179 297 L175 296 L170 291 L162 291 Z M163 296 L164 295 L168 296 L168 294 L170 293 L172 298 L165 299 Z M56 296 L57 299 L63 303 L69 303 L74 301 L76 297 L74 293 L67 290 L60 292 Z M60 298 L62 294 L70 294 L73 296 L69 300 L63 300 Z M249 291 L247 289 L245 290 L247 293 L244 300 L237 300 L235 295 L233 295 L233 303 L249 303 Z M196 289 L196 303 L214 303 L215 302 L214 292 L212 290 Z M198 292 L205 291 L206 295 L199 296 Z M99 289 L97 293 L95 294 L95 302 L98 304 L103 304 L105 303 L105 294 L101 289 Z M24 289 L25 293 L30 297 L29 302 L32 306 L23 307 L23 310 L24 311 L42 311 L42 307 L32 306 L35 302 L34 297 L36 296 L36 294 L32 295 L28 293 L26 289 Z M131 289 L126 295 L126 303 L127 304 L140 304 L141 303 L140 294 L135 288 Z M278 279 L277 282 L278 284 L280 284 L281 280 Z M23 278 L22 284 L24 284 Z M291 278 L291 284 L296 283 L298 284 L317 284 L318 283 L333 284 L332 277 L299 277 L298 278 L292 277 Z M38 278 L38 284 L43 283 L45 284 L55 283 L67 284 L68 281 L70 282 L70 284 L81 284 L82 283 L95 284 L96 283 L95 277 L90 278 L76 277 L74 279 L71 277 L68 278 L65 277 L40 278 L39 277 Z M73 281 L75 280 L76 282 L74 283 Z M31 277 L30 284 L32 284 Z M258 270 L259 272 L262 271 L262 270 Z M16 270 L17 272 L26 271 L26 270 Z M174 265 L175 267 L179 267 L179 265 Z M98 265 L99 267 L104 267 L104 265 Z M199 264 L197 265 L197 267 L199 266 Z M49 264 L47 265 L47 267 L49 266 Z M307 260 L307 263 L314 264 L314 260 Z M287 260 L288 264 L295 264 L295 260 Z M212 259 L214 260 L232 258 L231 254 L228 255 L213 254 Z M174 257 L174 259 L189 260 L194 259 L195 255 L194 254 L190 255 L176 254 Z M137 255 L137 259 L154 260 L158 258 L157 254 Z M99 255 L99 259 L102 260 L120 258 L118 254 Z M62 255 L62 258 L64 259 L81 259 L82 258 L81 254 L79 255 L63 254 Z M24 254 L24 259 L27 260 L45 258 L44 255 Z M221 235 L218 245 L215 249 L219 249 L221 247 L224 249 L228 249 L225 244 L225 241 L228 240 L227 235 Z M178 239 L177 246 L179 248 L190 248 L192 246 L191 244 L192 239 L188 238 L186 235 Z M141 235 L139 242 L141 244 L141 248 L146 249 L153 248 L155 243 L153 235 L150 235 L150 238 L148 240 L145 238 L145 235 Z M80 235 L76 235 L76 237 L78 238 L77 240 L69 239 L70 242 L65 243 L65 248 L79 249 Z M103 235 L102 240 L108 247 L111 247 L117 241 L117 236 L115 234 Z M33 234 L28 240 L29 249 L40 249 L41 240 L36 234 Z M49 227 L46 225 L46 223 L42 222 L42 218 L38 219 L36 215 L33 215 L31 218 L27 218 L26 222 L22 226 L20 226 L19 240 L21 240 L21 233 L26 227 L36 224 L40 227 L43 227 L47 231 L48 234 L49 234 Z M370 214 L368 216 L368 219 L362 223 L359 236 L361 245 L364 248 L368 249 L369 251 L363 253 L362 260 L354 260 L353 263 L354 264 L365 264 L366 259 L369 258 L370 264 L380 263 L388 264 L388 260 L382 260 L381 262 L377 261 L377 258 L380 257 L380 253 L375 252 L374 250 L381 249 L381 246 L384 240 L384 235 L382 231 L381 223 L375 219 L375 216 Z M324 213 L320 218 L320 221 L315 226 L314 247 L316 249 L321 250 L320 252 L316 254 L318 258 L318 263 L326 264 L325 259 L330 257 L331 264 L341 264 L342 260 L334 260 L333 253 L326 251 L327 249 L334 249 L335 247 L335 234 L334 233 L335 229 L333 224 L328 220 L328 216 Z M319 258 L323 257 L324 259 L320 260 Z M94 227 L95 234 L101 227 L111 224 L120 228 L124 234 L124 227 L122 223 L112 213 L107 213 L106 215 L102 216 L101 220 L97 222 L96 226 Z M277 212 L273 217 L273 220 L266 227 L265 234 L266 244 L269 248 L276 250 L275 252 L269 252 L268 260 L257 260 L256 259 L256 223 L254 223 L254 265 L263 263 L274 264 L273 261 L274 258 L277 259 L277 264 L284 264 L285 252 L277 253 L276 251 L278 249 L287 249 L287 245 L289 244 L288 229 L285 224 L279 220 L280 216 L277 214 Z M278 258 L281 257 L282 259 L279 260 Z M71 212 L71 214 L67 218 L65 218 L64 221 L61 222 L57 226 L56 229 L57 231 L56 233 L56 264 L61 267 L74 267 L75 265 L59 265 L58 264 L58 233 L60 232 L62 228 L70 224 L73 224 L82 228 L86 234 L86 264 L78 265 L78 267 L86 267 L87 265 L87 228 L84 225 L84 223 L81 222 L79 218 L76 218 L73 215 L73 212 Z M475 213 L487 213 L486 211 L476 211 Z M464 211 L464 213 L466 214 L465 220 L461 223 L461 227 L459 229 L459 233 L457 237 L458 248 L464 250 L463 252 L460 252 L460 258 L463 258 L464 260 L463 261 L452 260 L452 264 L460 263 L471 264 L472 262 L484 264 L484 260 L474 259 L476 257 L476 252 L472 252 L471 250 L478 248 L479 237 L477 233 L477 229 L475 227 L475 223 L470 220 L471 216 L468 213 L468 211 Z M460 211 L448 211 L448 213 L445 214 L445 265 L447 265 L447 214 L448 213 L460 213 L461 212 Z M405 211 L405 213 L416 213 L417 214 L416 220 L414 222 L414 226 L409 233 L409 247 L411 249 L416 249 L417 251 L411 252 L411 259 L403 260 L403 264 L419 264 L420 263 L435 264 L435 260 L428 259 L427 252 L422 253 L420 252 L421 249 L429 249 L430 234 L425 226 L420 211 Z M419 260 L422 257 L427 258 L426 260 L423 261 Z M283 212 L283 213 L292 213 L292 211 Z M184 211 L180 216 L177 216 L175 223 L169 227 L169 236 L171 236 L171 233 L175 228 L183 224 L186 224 L194 228 L197 231 L198 241 L199 241 L199 227 L197 223 L192 220 L192 217 L188 216 L186 212 Z M222 210 L217 216 L214 216 L214 221 L210 222 L210 224 L206 228 L207 231 L206 233 L206 264 L208 265 L208 233 L210 230 L220 224 L223 224 L225 226 L230 227 L236 234 L235 223 L231 222 L229 217 L226 217 Z M146 210 L146 212 L142 216 L140 216 L139 221 L135 222 L135 225 L132 226 L132 233 L133 234 L137 228 L147 223 L159 229 L161 234 L161 264 L160 265 L161 267 L162 265 L162 228 L160 223 L155 220 L155 217 L151 216 L148 210 Z M268 202 L267 205 L270 206 L270 202 Z M26 202 L24 202 L23 207 L25 207 Z M281 203 L282 207 L286 206 L289 207 L296 206 L324 207 L325 206 L324 201 L314 201 L311 203 L309 201 L289 201 L288 202 L282 201 Z M38 202 L39 207 L46 206 L72 207 L75 204 L78 207 L82 206 L82 202 L80 201 L77 202 L53 201 L52 203 L50 201 L46 202 L39 201 Z M31 201 L31 207 L33 207 L33 201 Z M247 197 L247 268 L249 269 L249 197 Z M229 179 L229 185 L232 184 L248 185 L250 184 L250 179 L240 180 Z M205 180 L206 184 L210 185 L214 184 L215 179 Z M175 180 L175 184 L178 185 L186 184 L186 179 Z M146 180 L146 185 L155 183 L154 179 Z M119 179 L120 184 L127 184 L126 179 L122 180 Z M88 180 L89 184 L98 184 L98 179 Z M58 181 L58 183 L60 184 L69 184 L69 179 L61 179 Z M29 179 L29 184 L40 185 L40 179 Z M459 177 L459 181 L469 180 L479 181 L480 176 L460 176 Z M400 176 L400 181 L427 181 L426 176 Z M345 178 L346 181 L348 180 L366 181 L366 176 L350 176 L349 178 L346 176 Z M289 176 L289 181 L296 180 L305 181 L306 179 L309 181 L311 180 L309 177 L305 176 L300 177 Z M396 172 L391 173 L386 177 L385 184 L392 182 L395 178 Z M437 189 L488 189 L488 187 L491 186 L491 172 L489 171 L489 186 L488 187 L455 187 L451 174 L448 171 L447 176 L445 178 L444 186 L437 187 Z M376 172 L374 171 L374 186 L373 187 L337 187 L336 184 L340 181 L341 177 L335 172 L327 176 L327 178 L329 179 L329 182 L333 186 L324 187 L324 189 L373 189 L373 187 L376 186 Z M432 170 L430 171 L430 186 L429 187 L380 187 L380 189 L429 189 L429 187 L432 186 Z M269 170 L269 186 L271 186 L272 189 L317 189 L317 187 L286 187 L285 186 L286 179 L283 177 L282 172 L276 174 L275 179 L276 186 L272 187 L271 186 L271 171 Z M27 161 L27 168 L29 169 L33 168 L39 169 L42 167 L41 165 L42 162 L36 156 L33 156 Z M173 157 L174 163 L178 162 L179 164 L181 164 L183 162 L184 164 L186 164 L188 162 L188 158 L186 155 L175 155 Z M175 160 L176 157 L180 158 L177 161 Z M119 155 L117 157 L117 162 L115 164 L115 167 L117 168 L129 167 L127 158 Z M88 155 L86 157 L86 162 L91 168 L94 168 L99 163 L100 157 L98 155 L94 156 Z M70 155 L67 155 L68 159 L66 161 L63 161 L62 159 L59 160 L60 164 L57 165 L56 168 L70 168 Z M208 154 L203 157 L203 163 L207 168 L212 168 L216 163 L216 156 Z M149 154 L149 159 L147 160 L147 165 L145 166 L145 169 L158 169 L156 165 L156 161 L154 159 L154 155 Z M458 153 L458 158 L468 158 L469 157 L479 158 L479 153 Z M400 153 L400 156 L402 158 L411 157 L422 158 L423 157 L422 153 Z M345 153 L345 158 L355 158 L356 157 L359 158 L361 156 L361 154 L359 153 L357 154 Z M291 153 L292 158 L306 159 L308 157 L308 153 Z M239 151 L233 162 L233 165 L236 169 L240 171 L241 169 L244 168 L246 162 L241 156 L240 151 Z M452 150 L441 150 L440 151 L441 157 L446 162 L453 155 Z M386 150 L385 162 L387 162 L388 158 L390 158 L391 161 L394 162 L393 150 Z M328 150 L329 156 L333 158 L332 161 L336 162 L340 158 L340 156 L335 155 L335 150 L332 151 Z M278 150 L275 154 L275 159 L279 162 L282 162 L286 159 L286 151 Z M374 148 L374 163 L376 163 L376 148 Z M437 145 L437 147 L488 147 L489 148 L489 163 L491 163 L491 148 L489 148 L488 145 Z M425 145 L425 147 L430 148 L430 163 L432 163 L432 148 L430 148 L429 145 Z M381 145 L381 147 L418 147 L417 145 Z M325 145 L325 147 L337 147 L337 145 Z M275 145 L275 147 L280 147 L280 145 Z M282 134 L280 135 L280 140 L282 140 Z M274 134 L273 140 L276 140 L276 134 Z M32 134 L31 141 L33 141 Z M24 134 L23 136 L24 138 L26 138 Z M287 135 L287 140 L294 139 L296 140 L330 140 L330 135 L328 133 L324 134 L310 133 L309 135 L305 133 L303 134 L297 133 L291 134 L290 133 Z M89 133 L84 133 L83 135 L81 134 L73 135 L72 134 L70 139 L72 139 L72 137 L74 136 L77 140 L82 140 L83 138 L87 138 L89 140 Z M38 137 L39 140 L48 141 L58 140 L58 138 L60 137 L61 141 L66 140 L67 135 L66 134 L53 135 L41 133 L39 134 Z M259 131 L259 190 L261 190 L261 131 Z M331 128 L331 129 L353 129 L353 128 Z M306 128 L306 129 L328 129 L328 128 Z M288 128 L288 129 L301 129 L301 128 Z M266 128 L266 129 L280 129 L280 128 Z M428 118 L438 119 L438 117 Z M301 120 L302 122 L303 119 L305 118 L307 124 L311 123 L312 121 L316 124 L321 121 L325 124 L327 123 L329 124 L331 122 L334 124 L335 123 L335 118 L332 117 L329 118 L323 117 L321 120 L319 119 L319 117 L313 118 L302 117 Z M284 117 L285 124 L291 123 L293 124 L298 122 L298 118 L296 117 Z M240 118 L240 124 L242 123 L245 124 L246 120 L248 121 L249 124 L253 123 L264 124 L268 122 L275 123 L275 117 L263 117 L262 118 L255 117 L253 119 L246 119 L243 117 Z M179 117 L179 122 L184 124 L185 123 L197 124 L201 122 L203 124 L207 123 L212 124 L216 120 L222 124 L223 123 L237 124 L237 118 L235 117 L233 118 L231 117 L194 117 L193 118 Z M106 117 L106 119 L111 119 L111 117 Z M81 117 L81 119 L88 119 L88 117 Z M60 117 L61 119 L67 119 L67 117 Z M467 116 L463 117 L463 119 L467 120 Z M386 117 L387 120 L390 119 L389 116 Z M45 117 L45 119 L53 119 L53 117 L47 116 Z M126 115 L123 117 L116 117 L116 119 L121 118 L126 120 Z M204 99 L198 99 L197 110 L200 112 L205 109 L205 106 L203 104 Z M200 102 L202 103 L203 107 L201 110 L199 109 Z M192 99 L190 99 L191 108 L189 112 L194 110 L194 101 Z M140 100 L140 111 L145 112 L150 110 L152 112 L154 111 L163 112 L162 100 L159 105 L154 102 L150 103 L146 99 Z M143 107 L145 106 L146 109 L144 110 Z M148 104 L150 103 L151 105 L149 106 Z M143 102 L145 101 L146 103 L144 104 Z M299 98 L297 100 L294 113 L296 113 L300 101 Z M215 98 L213 99 L213 112 L215 112 Z M165 106 L166 110 L169 112 L182 111 L182 104 L177 101 L177 98 L173 99 L174 101 L173 103 L169 102 Z M167 106 L170 105 L173 106 L174 108 L169 110 Z M497 128 L486 128 L485 127 L488 122 L491 122 L495 119 L495 114 L493 114 L492 109 L489 108 L489 105 L487 104 L485 97 L480 108 L478 109 L478 112 L476 113 L477 120 L484 124 L485 126 L484 128 L356 128 L356 129 L497 129 Z M357 99 L356 100 L356 111 L358 112 L359 109 L364 109 L366 112 L369 112 L369 100 L368 99 L366 102 L363 102 L362 101 L364 99 L363 97 L360 99 Z M345 97 L345 99 L343 100 L343 106 L341 111 L344 110 L349 112 L351 108 L352 99 L348 100 Z M345 106 L348 105 L349 108 L346 109 Z M307 98 L306 111 L337 112 L337 110 L335 109 L336 107 L335 103 L337 100 L336 98 L331 97 L328 99 L326 97 L323 100 L323 104 L326 105 L328 108 L327 110 L320 109 L320 97 L316 98 L315 100 L313 99 L313 97 Z M257 101 L257 109 L261 111 L268 112 L269 109 L273 108 L274 111 L281 112 L281 110 L283 109 L284 112 L286 112 L288 109 L287 98 L285 97 L274 98 L273 108 L270 106 L271 99 L268 97 L263 98 L259 97 Z M250 97 L247 97 L245 100 L241 101 L243 105 L241 109 L246 112 L248 112 L249 110 L254 110 L252 106 L254 99 Z M236 97 L225 98 L224 101 L225 112 L236 112 L237 106 Z M16 128 L16 129 L257 129 L257 128 L29 128 L28 127 L29 124 L36 119 L37 112 L33 108 L28 96 L27 101 L24 105 L24 108 L21 109 L21 113 L17 116 L18 119 L21 122 L25 122 L28 127 L27 128 Z"/></svg>
