<svg xmlns="http://www.w3.org/2000/svg" width="512" height="512" viewBox="0 0 512 512" aria-hidden="true" focusable="false"><path fill="currentColor" fill-rule="evenodd" clip-rule="evenodd" d="M404 432 L397 437 L395 441 L395 449 L400 456 L412 457 L415 454 L417 454 L417 452 L420 449 L420 440 L412 432 Z M406 452 L408 451 L409 453 L407 454 Z M405 437 L408 436 L409 438 L406 439 Z M98 408 L82 419 L77 430 L77 438 L62 442 L54 450 L54 454 L72 456 L73 458 L70 459 L72 464 L86 468 L98 479 L103 479 L106 484 L129 465 L141 462 L141 459 L136 458 L137 456 L156 454 L156 451 L147 442 L133 438 L129 421 L119 411 L113 408 Z M127 446 L129 445 L130 447 L128 448 Z M108 439 L110 440 L109 449 L107 448 Z M367 407 L372 428 L376 433 L374 439 L383 444 L375 450 L377 456 L369 470 L368 485 L389 481 L396 475 L400 478 L407 468 L414 478 L419 476 L427 481 L446 484 L445 468 L440 461 L439 450 L433 445 L440 439 L438 433 L445 422 L446 406 L437 406 L419 414 L413 412 L409 419 L409 428 L418 431 L426 444 L421 456 L432 458 L421 463 L419 459 L407 463 L392 453 L390 446 L392 437 L399 430 L406 428 L402 411 L398 411 L396 415 L389 409 L378 406 Z M422 469 L424 468 L425 470 L423 471 Z M391 469 L393 468 L394 470 L392 471 Z M377 468 L379 467 L380 471 L391 470 L392 472 L385 474 L383 476 L380 476 L377 473 Z M437 466 L436 474 L427 474 L424 472 L425 470 L434 471 L434 466 L435 465 Z M419 466 L421 465 L422 467 L420 468 Z M431 460 L433 459 L434 461 L432 462 Z M391 460 L393 459 L395 462 L393 463 Z M380 460 L382 459 L383 462 L381 463 Z M383 458 L391 457 L392 459 L384 460 Z M433 428 L434 430 L431 432 L430 430 Z M422 429 L424 428 L425 430 L423 431 Z M393 428 L394 430 L391 432 L390 430 Z M382 429 L384 428 L385 431 L383 432 Z M380 427 L382 426 L383 428 L381 429 Z M421 420 L423 421 L422 429 L420 428 L419 425 Z M391 420 L394 419 L395 422 L393 423 Z M423 418 L425 417 L426 419 L424 420 Z M388 418 L391 417 L392 419 L389 420 Z M430 414 L437 415 L437 425 L436 426 L434 425 L434 419 L429 417 Z M384 414 L385 417 L381 418 L380 422 L378 423 L377 417 L380 414 Z M251 389 L244 397 L237 415 L228 409 L216 410 L219 428 L224 430 L204 437 L198 442 L198 447 L219 458 L216 479 L237 476 L244 490 L253 498 L267 476 L286 479 L286 467 L280 458 L301 450 L306 442 L289 431 L280 430 L286 422 L286 409 L267 411 L265 415 L260 397 Z M278 463 L280 462 L281 464 L279 465 Z M223 463 L225 462 L226 464 L224 465 Z M267 460 L268 459 L271 460 L272 464 L270 465 Z M243 460 L245 459 L246 461 L244 462 Z M235 459 L236 461 L235 464 L233 465 L231 462 Z M238 456 L239 458 L236 460 L235 458 Z M244 454 L247 455 L245 459 L243 458 Z M246 452 L248 451 L249 454 L247 455 Z M265 450 L267 458 L265 459 L264 457 L261 457 L261 462 L259 463 L257 455 L263 454 L263 451 Z M255 451 L257 450 L258 453 L256 454 Z M239 448 L241 449 L240 453 L238 452 Z M257 443 L262 441 L263 445 L261 446 L258 445 Z M260 438 L262 437 L263 439 L261 440 Z M257 437 L259 436 L260 438 L258 439 Z M244 437 L246 436 L247 438 L245 439 Z M255 434 L257 433 L258 435 L256 436 Z M262 431 L265 430 L266 434 L269 434 L270 436 L264 438 Z M244 428 L246 429 L245 432 L242 431 Z M269 425 L270 427 L267 429 L266 427 Z M243 426 L245 425 L246 427 L244 428 Z M259 423 L261 424 L260 432 L258 431 Z M230 423 L234 422 L235 425 L240 429 L241 437 L244 438 L243 442 L238 437 L235 437 L234 439 L232 438 L232 435 L238 434 L238 431 L233 426 L230 426 L229 425 Z M399 267 L385 272 L383 289 L371 290 L361 301 L380 303 L382 308 L390 309 L397 316 L403 330 L406 355 L413 363 L418 365 L419 362 L413 350 L414 324 L422 311 L432 308 L434 303 L451 301 L451 298 L440 289 L428 288 L430 275 L426 270 L415 269 L414 267 Z M405 304 L408 303 L409 305 L406 306 Z M396 301 L399 300 L400 302 L397 303 Z M429 298 L431 299 L430 303 L428 302 Z M422 299 L424 298 L425 300 L423 301 Z M102 264 L94 274 L94 282 L83 288 L85 297 L77 296 L70 301 L69 307 L59 307 L51 315 L51 320 L59 328 L69 328 L71 337 L84 337 L85 351 L94 355 L94 363 L99 369 L108 371 L115 364 L115 355 L124 351 L125 340 L122 336 L128 339 L137 337 L142 328 L151 328 L158 321 L158 314 L149 307 L142 307 L133 296 L125 298 L124 284 L116 283 L113 269 Z M87 333 L90 332 L91 334 L88 335 Z M119 332 L121 331 L122 334 L120 335 Z M112 332 L115 331 L116 333 L113 334 Z M93 330 L95 329 L97 333 L94 334 Z M90 327 L92 326 L93 328 L91 329 Z M118 326 L120 325 L121 328 L119 329 Z M118 307 L120 306 L121 309 L119 310 Z M90 307 L92 306 L93 308 L91 309 Z M112 302 L115 301 L116 303 L113 304 Z M94 301 L97 302 L95 306 L93 305 Z M119 301 L121 300 L122 303 L120 304 Z M102 301 L106 300 L107 302 L103 303 Z M87 301 L90 300 L91 302 L88 303 Z M250 262 L238 283 L213 278 L215 294 L222 303 L209 306 L198 317 L218 329 L213 354 L231 351 L240 345 L241 357 L249 368 L253 368 L260 360 L263 345 L269 351 L289 354 L284 329 L305 315 L288 304 L280 305 L286 298 L289 278 L275 279 L264 286 L263 278 Z M247 329 L254 328 L255 331 L248 332 Z M264 312 L266 312 L269 315 L269 317 L266 320 L263 319 Z M233 313 L238 312 L239 317 L243 318 L244 320 L243 321 L236 320 L233 317 L234 315 Z M254 309 L256 316 L252 317 L252 320 L250 321 L249 318 L246 317 L246 315 L249 314 L249 312 Z M247 299 L254 298 L255 303 L254 304 L248 303 Z M237 285 L240 284 L241 286 L238 287 Z M99 142 L93 155 L85 156 L79 167 L71 173 L70 186 L65 192 L65 210 L82 232 L91 234 L97 232 L99 227 L104 227 L105 232 L116 234 L125 229 L125 225 L135 216 L138 210 L138 190 L133 184 L129 169 L124 167 L119 158 L110 155 L104 142 Z M77 195 L79 196 L78 202 L76 201 Z M252 140 L246 147 L246 152 L242 157 L242 166 L239 168 L241 178 L249 182 L245 187 L236 179 L227 178 L226 182 L215 182 L201 188 L201 192 L219 200 L226 199 L228 203 L238 201 L242 193 L247 197 L247 200 L241 204 L238 215 L242 216 L242 225 L249 241 L254 239 L260 224 L260 216 L264 215 L263 207 L255 200 L259 195 L264 201 L275 204 L276 199 L285 200 L301 193 L301 188 L285 182 L276 182 L275 178 L264 181 L260 188 L255 182 L263 176 L264 165 L260 164 L260 155 Z M247 209 L250 203 L255 204 L255 206 L252 207 L251 210 Z M261 190 L263 189 L264 192 L262 193 Z M238 190 L241 189 L242 192 L239 193 Z M249 173 L251 172 L252 175 L255 176 L255 178 L250 179 Z M405 130 L347 191 L405 249 L409 249 L467 189 Z M420 225 L422 224 L423 226 L421 227 Z M419 218 L420 215 L423 216 L421 219 Z M391 216 L394 215 L395 218 L393 219 Z M431 214 L433 213 L434 215 L432 216 Z M382 207 L391 206 L392 207 L391 214 L389 215 Z M431 206 L432 208 L423 216 L422 215 L422 205 L424 204 L425 206 Z M443 202 L445 201 L446 203 L444 204 Z M436 201 L437 203 L434 205 L433 203 Z M377 202 L379 201 L381 204 L379 205 Z M446 199 L448 198 L449 200 L447 201 Z M448 182 L450 181 L451 183 L449 184 Z M363 182 L365 181 L366 183 L364 184 Z M445 179 L447 178 L448 180 L446 181 Z M443 177 L445 176 L446 178 L444 179 Z M366 177 L370 176 L371 178 L367 179 Z M433 176 L435 175 L437 178 L434 179 Z M379 175 L381 176 L380 179 L377 178 Z M388 166 L391 167 L392 171 L391 176 L383 173 L383 171 Z M422 165 L424 164 L431 171 L431 173 L423 176 L422 175 Z M380 163 L382 162 L383 164 L381 165 Z M428 162 L430 161 L431 163 L429 164 Z M419 162 L421 161 L423 164 L420 165 Z M393 161 L395 162 L394 165 L391 164 Z M417 160 L419 159 L420 161 L418 162 Z M392 151 L394 150 L395 152 L393 153 Z M411 145 L413 144 L414 146 L412 147 Z M251 32 L242 39 L237 56 L229 52 L213 52 L196 65 L196 68 L211 68 L213 78 L223 79 L233 84 L244 96 L249 97 L249 101 L271 82 L286 78 L288 76 L286 70 L305 67 L301 60 L288 52 L272 52 L264 55 L260 42 Z M249 74 L251 73 L252 75 L250 76 Z M397 23 L381 32 L385 53 L372 46 L361 52 L358 79 L363 93 L373 95 L386 91 L381 108 L387 115 L412 118 L428 111 L428 98 L420 90 L424 85 L428 91 L440 95 L448 91 L451 57 L446 48 L441 46 L431 48 L424 56 L423 49 L428 42 L426 28 Z M385 89 L390 88 L391 90 L386 91 Z M404 78 L406 77 L407 79 L405 80 Z M403 69 L407 68 L408 71 L404 73 Z M417 57 L419 56 L420 58 L418 59 Z M391 57 L393 56 L394 58 L392 59 Z M100 15 L88 31 L87 37 L82 39 L84 51 L70 51 L68 56 L56 60 L46 70 L69 85 L70 90 L82 88 L82 102 L87 103 L94 119 L103 124 L112 114 L116 103 L121 102 L119 89 L133 90 L135 84 L151 76 L156 68 L144 59 L134 56 L133 51 L120 53 L121 39 L116 38 L110 23 Z M88 80 L90 79 L91 81 L89 82 Z M98 64 L104 64 L107 66 L108 72 L104 76 L99 76 L95 72 L95 67 Z"/></svg>
