<svg xmlns="http://www.w3.org/2000/svg" width="512" height="512" viewBox="0 0 512 512" aria-hidden="true" focusable="false"><path fill="currentColor" fill-rule="evenodd" clip-rule="evenodd" d="M481 401 L480 407 L483 408 L481 412 L483 412 L485 408 L487 407 L488 413 L490 413 L490 408 L493 407 L493 405 L490 403 L490 400 Z M436 400 L435 413 L438 412 L446 413 L448 404 L447 401 L444 400 L442 402 L440 400 Z M348 403 L350 409 L349 413 L360 413 L361 412 L376 413 L375 403 L373 403 L372 400 L367 400 L363 404 L355 400 Z M361 405 L364 406 L363 412 L359 410 Z M244 402 L245 413 L256 413 L258 411 L260 413 L270 413 L270 411 L272 410 L270 406 L271 404 L270 400 L268 401 L261 400 L259 402 L258 411 L256 410 L256 402 L254 400 L250 401 L246 400 Z M174 400 L171 402 L171 411 L176 411 L177 413 L179 413 L180 411 L183 410 L183 402 L182 400 Z M131 400 L126 405 L128 409 L126 412 L127 413 L137 413 L138 404 L133 400 Z M31 402 L31 408 L33 409 L32 413 L39 412 L57 413 L57 406 L59 404 L62 405 L61 407 L62 413 L65 412 L73 413 L74 404 L73 400 L71 401 L63 400 L61 403 L59 403 L56 400 L54 402 L51 400 L47 400 L46 404 L44 403 L43 400 L33 400 Z M44 405 L47 407 L46 412 L44 411 L43 407 Z M477 403 L473 403 L471 399 L470 409 L464 411 L462 408 L463 400 L452 400 L450 405 L451 407 L450 412 L455 413 L478 412 L477 410 L475 411 L472 409 L473 406 L477 406 Z M168 401 L166 401 L165 399 L162 401 L159 400 L157 401 L156 403 L157 413 L159 413 L161 410 L163 411 L163 413 L167 412 Z M142 400 L141 412 L153 413 L154 412 L153 402 L148 399 L146 401 Z M170 362 L167 365 L167 368 L170 372 L172 372 L176 368 L176 365 L173 362 Z M135 362 L132 368 L135 371 L140 371 L142 368 L142 365 L140 365 L139 362 Z M339 355 L338 361 L343 362 L345 360 L344 355 Z M328 344 L327 349 L330 350 L332 348 L332 345 Z M496 340 L484 339 L481 341 L480 352 L465 351 L463 358 L449 358 L447 364 L434 364 L433 385 L462 386 L464 384 L465 386 L495 386 Z M436 366 L444 367 L444 383 L443 384 L435 383 L435 367 Z M451 360 L460 361 L460 383 L459 384 L450 383 L450 361 Z M468 353 L476 354 L476 383 L475 384 L467 383 L467 354 Z M488 341 L493 341 L495 344 L495 381 L493 384 L484 383 L484 343 Z M331 333 L329 335 L329 339 L331 341 L334 341 L337 338 L337 335 L335 333 Z M331 336 L333 335 L335 338 L332 339 Z M170 330 L167 333 L167 337 L173 340 L176 334 L173 333 L172 330 Z M138 330 L136 330 L133 333 L133 337 L136 340 L142 335 Z M330 359 L332 367 L342 373 L343 379 L348 378 L347 383 L350 383 L351 379 L358 382 L366 382 L365 376 L374 373 L370 367 L376 361 L379 364 L382 375 L394 381 L404 379 L406 375 L399 371 L397 360 L391 353 L395 350 L397 337 L403 329 L400 327 L386 329 L382 333 L378 345 L373 348 L364 340 L369 333 L368 327 L370 324 L359 324 L353 328 L349 339 L336 349 Z M360 376 L362 377 L361 380 L358 379 Z M358 367 L361 369 L360 375 L356 373 Z M381 365 L383 364 L384 366 L382 367 Z M368 362 L370 363 L369 367 L367 366 Z M352 362 L355 361 L356 363 L353 364 Z M357 359 L359 358 L364 363 L359 365 Z M366 358 L368 357 L369 359 L367 360 Z M352 357 L354 356 L355 358 L353 359 Z M387 354 L394 358 L396 369 L402 375 L401 378 L397 378 L396 374 L393 373 L390 374 L393 376 L391 378 L388 377 L382 370 L383 368 L387 370 L386 364 L384 361 L385 358 L388 360 L389 364 L392 367 L390 360 L386 356 Z M362 355 L364 354 L365 357 L363 358 Z M382 353 L385 352 L386 354 L383 355 Z M356 352 L358 351 L360 355 L357 356 Z M366 351 L368 350 L369 352 L367 353 Z M370 348 L376 351 L377 355 L375 359 L373 359 L371 356 L371 351 L369 350 Z M353 349 L355 348 L356 350 L354 351 Z M340 348 L344 348 L349 353 L350 362 L347 367 L348 370 L347 372 L344 370 L338 369 L336 362 L334 361 L335 354 Z M358 348 L360 347 L361 349 L359 350 Z M346 345 L350 344 L351 349 L349 350 Z M360 344 L363 343 L364 345 L361 346 Z M353 344 L356 343 L357 345 L354 346 Z M367 331 L366 334 L361 335 L358 334 L359 332 L365 330 Z M398 329 L399 331 L395 337 L394 348 L388 352 L387 350 L390 346 L392 339 L389 340 L388 346 L385 348 L384 346 L388 337 L388 335 L386 335 L385 333 L392 329 Z M363 327 L362 329 L357 331 L355 334 L353 333 L357 327 L360 326 Z M491 318 L482 319 L477 321 L480 324 L477 328 L480 332 L477 335 L475 334 L475 332 L473 332 L459 343 L444 349 L436 350 L435 353 L446 353 L460 349 L474 341 L486 330 L491 331 Z M481 328 L483 325 L482 323 L483 321 L489 322 L488 327 L485 327 L483 329 Z M292 324 L276 318 L273 321 L259 319 L251 324 L245 322 L246 331 L243 334 L233 326 L231 328 L233 337 L226 345 L234 339 L233 330 L236 329 L240 335 L238 346 L232 345 L224 354 L222 353 L224 347 L220 351 L220 359 L226 373 L225 384 L229 387 L252 387 L253 381 L258 380 L265 388 L291 387 L293 380 L286 375 L294 366 L294 361 L289 354 L293 345 Z M275 381 L277 380 L278 383 L276 384 Z M281 377 L283 377 L286 380 L284 385 L282 384 L280 379 Z M226 354 L228 353 L229 355 L227 356 Z M260 355 L272 355 L276 352 L278 353 L278 355 L282 355 L283 357 L280 362 L280 365 L284 371 L281 372 L277 376 L274 375 L274 362 L273 361 L266 362 L265 360 L260 360 L259 359 Z M254 353 L256 352 L257 355 L255 356 Z M228 359 L233 354 L240 352 L244 353 L248 352 L249 355 L253 358 L253 361 L259 362 L261 365 L267 364 L270 366 L272 369 L273 385 L267 386 L264 383 L263 377 L258 372 L259 367 L257 367 L255 370 L256 375 L255 377 L252 376 L248 377 L247 376 L248 365 L242 359 L238 359 L238 361 L245 363 L246 371 L241 377 L236 377 L236 379 L242 379 L243 384 L242 385 L228 384 L226 382 L227 376 L229 374 L235 374 L237 372 L237 368 L234 366 L232 367 L232 369 L234 370 L233 372 L227 371 L226 364 Z M260 351 L262 350 L263 352 L261 353 Z M281 351 L282 348 L287 349 L284 352 Z M287 348 L289 347 L290 349 L288 350 Z M252 345 L254 344 L255 346 L253 347 Z M251 340 L254 339 L255 341 L252 342 Z M243 336 L245 337 L249 348 L247 350 L238 350 L237 347 L241 345 Z M285 336 L288 335 L289 339 L287 340 Z M247 336 L251 335 L252 339 L250 340 Z M286 330 L288 329 L289 331 L287 332 Z M282 325 L289 324 L290 326 L287 329 L285 329 Z M272 324 L275 323 L278 326 L275 328 L272 326 Z M259 323 L265 326 L266 330 L272 335 L274 335 L278 329 L281 329 L283 331 L275 338 L268 337 L266 340 L266 343 L269 343 L272 346 L278 346 L279 347 L278 349 L268 351 L267 349 L264 348 L264 345 L261 344 L260 338 L253 336 L254 334 L260 333 L261 329 L256 327 Z M262 321 L264 320 L265 322 L263 323 Z M145 315 L131 322 L122 333 L118 345 L119 361 L126 374 L130 372 L133 376 L132 380 L146 387 L166 386 L177 380 L187 368 L191 352 L190 342 L184 329 L178 328 L178 323 L173 319 L158 314 Z M178 372 L180 371 L181 373 L179 374 Z M120 359 L122 358 L123 360 L121 361 Z M148 346 L149 345 L159 345 L160 346 L160 356 L159 357 L149 357 L148 356 Z M161 342 L163 341 L164 343 L162 344 Z M131 325 L133 324 L134 326 L132 327 Z M146 321 L151 322 L149 324 L150 327 L147 328 L149 331 L148 336 L151 334 L153 336 L156 334 L160 336 L157 330 L161 329 L159 327 L159 322 L163 321 L173 326 L179 332 L184 343 L184 354 L179 353 L181 345 L178 344 L172 345 L169 353 L171 357 L176 353 L177 356 L183 358 L181 367 L171 377 L166 374 L166 378 L161 381 L158 377 L161 373 L155 364 L163 363 L166 360 L166 341 L164 339 L143 340 L143 361 L145 363 L153 364 L147 373 L147 375 L150 376 L149 381 L136 376 L129 369 L125 360 L126 356 L132 358 L139 357 L138 345 L129 344 L127 346 L128 350 L126 354 L124 353 L124 345 L131 330 L137 325 L142 327 L142 323 Z M142 318 L144 317 L145 319 L143 320 Z M58 309 L56 309 L56 319 L52 316 L53 312 L50 314 L54 322 L53 325 L49 324 L42 315 L40 315 L37 324 L28 324 L30 332 L35 335 L33 339 L27 334 L20 335 L24 345 L20 347 L18 352 L23 355 L31 351 L35 352 L27 360 L28 368 L32 371 L38 370 L42 366 L43 359 L49 365 L48 375 L32 383 L30 387 L80 387 L76 382 L61 375 L60 364 L66 359 L67 367 L70 370 L77 371 L80 369 L82 361 L74 352 L78 351 L83 355 L91 352 L90 350 L83 353 L80 350 L83 347 L87 348 L85 344 L89 334 L79 335 L81 324 L74 324 L71 327 L70 315 L63 318 L60 324 L57 324 L56 321 L60 316 Z M39 383 L41 382 L42 384 L40 385 Z M52 383 L55 381 L58 382 L59 384 L53 385 Z M45 382 L48 381 L49 383 L46 384 Z M58 380 L61 379 L62 382 L59 383 Z M50 359 L54 360 L55 367 L58 368 L58 376 L56 379 L52 379 L50 376 L51 374 L51 364 L49 361 Z M66 350 L68 349 L69 351 L67 352 Z M50 349 L51 354 L45 355 L44 353 L48 349 Z M69 349 L72 347 L74 348 L73 351 L70 351 Z M21 349 L26 347 L28 351 L24 353 L21 351 Z M73 345 L75 344 L76 347 L74 348 Z M37 339 L38 340 L37 348 L35 349 L33 347 L32 341 Z M62 337 L63 338 L62 345 L64 348 L56 350 L55 347 L58 343 L59 338 Z M85 336 L86 339 L83 342 L80 342 L79 339 Z M23 337 L24 336 L28 337 L29 342 L28 343 L25 342 Z M73 334 L78 335 L76 344 L74 343 L74 339 L72 336 Z M52 330 L55 331 L54 340 L51 338 Z M66 329 L69 328 L71 333 L70 334 L67 333 Z M40 329 L43 328 L44 332 L41 333 Z M63 327 L64 331 L58 337 L57 329 L60 327 Z M73 327 L78 326 L79 328 L76 331 Z M46 327 L49 326 L50 328 L47 329 Z M32 326 L36 327 L37 331 L34 332 L31 329 Z M66 318 L69 319 L69 324 L67 326 L64 325 L64 320 Z M42 318 L46 321 L46 324 L44 326 L40 323 L40 320 Z M449 268 L450 278 L462 278 L463 270 L465 271 L465 276 L467 278 L472 277 L477 278 L476 275 L477 269 L475 265 L468 265 L465 268 L463 268 L460 265 L455 266 L451 265 Z M372 268 L373 271 L372 278 L384 278 L382 271 L384 267 L381 265 L376 265 Z M358 265 L357 266 L358 278 L363 277 L369 278 L368 275 L369 266 L368 265 Z M342 265 L343 268 L342 272 L344 277 L347 278 L354 277 L353 274 L355 272 L354 266 Z M241 269 L241 271 L243 272 L243 275 L241 276 L241 278 L259 278 L261 276 L264 278 L268 278 L269 271 L272 273 L272 278 L276 277 L283 278 L282 275 L283 266 L282 265 L273 265 L271 266 L270 269 L268 268 L268 266 L257 266 L257 268 L254 269 L249 265 L247 265 Z M253 272 L256 271 L259 274 L257 276 L254 276 Z M142 265 L141 278 L144 277 L152 278 L154 270 L156 271 L157 277 L169 278 L168 267 L164 265 L159 265 L155 268 L153 268 L152 265 L150 265 L149 268 L147 267 L147 265 Z M63 266 L63 277 L74 278 L75 277 L74 266 L72 265 Z M33 265 L32 278 L35 277 L44 278 L44 271 L46 269 L48 270 L47 274 L49 275 L49 278 L51 278 L52 275 L54 275 L55 278 L57 278 L57 276 L60 275 L60 267 L58 267 L57 265 L55 265 L54 267 L49 265 L46 268 L44 267 L44 265 L42 265 L41 268 L39 268 L38 265 Z M65 225 L63 225 L59 234 L62 233 L62 231 L65 228 Z M40 223 L42 230 L46 234 L47 232 L42 223 Z M380 220 L379 232 L381 234 L384 234 L386 232 L385 221 Z M344 220 L342 232 L344 234 L349 233 L348 226 L349 221 Z M362 218 L354 225 L353 231 L357 236 L360 237 L360 239 L366 240 L374 233 L375 227 L368 219 Z M357 231 L359 230 L360 232 L358 233 Z M368 225 L370 224 L372 227 L369 228 Z M357 225 L359 224 L360 226 L358 227 Z M389 215 L388 216 L389 220 L388 226 L392 230 L394 228 L393 217 Z M337 215 L336 221 L334 222 L335 229 L338 229 L340 227 L339 222 L340 216 Z M462 214 L453 221 L451 224 L450 231 L452 237 L456 241 L468 242 L474 237 L476 228 L473 221 L464 214 Z M468 220 L473 225 L473 233 L470 237 L468 236 L469 234 L468 230 L464 228 L465 224 L468 225 L467 222 Z M457 220 L459 221 L458 227 L462 231 L462 234 L459 235 L458 238 L453 233 L453 225 Z M464 220 L466 219 L467 221 L465 222 Z M459 220 L461 219 L462 221 L460 222 Z M57 199 L57 200 L63 201 L62 199 Z M43 201 L49 200 L49 199 L44 199 Z M224 206 L223 214 L229 232 L240 245 L252 249 L272 249 L282 246 L294 233 L300 218 L298 204 L280 205 L275 199 L262 193 L254 195 L244 205 L228 203 Z M299 212 L297 221 L289 237 L283 243 L270 247 L254 247 L242 243 L232 232 L226 218 L226 214 L230 213 L231 215 L245 221 L274 222 L285 219 L294 214 L296 211 Z M297 206 L291 213 L283 217 L281 216 L282 206 L290 204 L294 204 Z M226 207 L230 204 L241 206 L242 207 L241 214 L243 216 L241 217 L234 214 L229 210 L227 210 Z M243 212 L249 201 L257 196 L269 197 L277 204 L280 210 L280 213 L278 215 L271 217 L253 217 L246 215 Z M121 189 L120 196 L127 203 L127 210 L120 237 L126 240 L128 246 L134 248 L150 246 L156 249 L164 249 L170 246 L184 249 L194 246 L195 237 L189 232 L195 226 L189 223 L189 218 L183 208 L178 209 L174 205 L177 203 L168 197 L152 197 L147 200 L145 192 L141 190 L143 201 L134 213 L137 223 L133 226 L128 217 L129 205 L132 203 L126 200 L130 197 L127 197 Z M141 240 L143 239 L144 241 L142 242 Z M152 239 L155 238 L156 242 L154 243 Z M129 239 L132 238 L135 241 L133 242 L130 241 Z M193 238 L192 241 L187 243 L186 241 L190 237 Z M172 238 L175 237 L176 240 L174 241 Z M146 238 L148 237 L149 239 L147 240 Z M153 234 L155 233 L156 235 L154 236 Z M148 232 L150 231 L153 234 L150 235 Z M177 233 L184 229 L187 232 L187 235 L178 236 Z M186 227 L190 226 L191 228 L187 229 Z M139 224 L141 224 L146 229 L146 233 L143 237 L140 237 L139 235 L134 233 Z M124 226 L127 223 L130 227 L125 228 Z M163 221 L165 222 L164 226 L162 225 Z M180 217 L182 216 L183 218 L181 219 Z M136 213 L138 212 L144 219 L147 219 L150 225 L158 228 L175 227 L181 224 L185 219 L187 220 L187 222 L177 230 L171 232 L158 232 L150 229 L136 216 Z M167 212 L173 211 L178 219 L173 222 L168 223 L167 222 Z M154 209 L161 212 L160 222 L152 221 L149 217 L149 215 Z M148 202 L149 206 L146 209 L146 211 L141 212 L140 209 Z M153 200 L156 198 L166 198 L171 200 L173 203 L171 206 L163 208 L155 205 Z M132 188 L131 191 L135 192 L135 189 Z M125 185 L125 187 L132 185 L140 187 L138 184 L134 183 Z M461 176 L456 181 L446 181 L444 185 L449 195 L446 199 L448 202 L435 218 L432 238 L439 248 L446 251 L476 252 L487 248 L494 238 L494 228 L489 216 L492 209 L487 205 L493 199 L493 193 L485 191 L481 181 L471 181 L469 177 Z M485 208 L488 207 L490 210 L488 211 Z M451 202 L454 203 L451 210 L452 212 L459 202 L467 202 L474 213 L478 213 L480 208 L485 212 L492 229 L492 237 L485 247 L475 250 L452 250 L441 246 L436 241 L434 236 L436 221 L441 212 Z M454 199 L455 198 L471 198 L472 200 L471 201 L455 201 Z M446 185 L449 182 L457 183 L459 179 L465 178 L470 180 L471 183 L480 183 L482 186 L482 190 L478 191 L475 195 L472 195 L471 194 L472 189 L471 189 L466 197 L462 197 L458 195 L455 188 L454 189 L455 194 L451 195 L447 190 Z M360 171 L357 173 L355 179 L346 178 L343 182 L339 183 L340 197 L335 200 L336 209 L328 216 L327 227 L330 235 L341 245 L343 250 L363 253 L378 252 L385 250 L391 240 L375 245 L348 244 L334 237 L329 225 L330 217 L335 211 L348 214 L370 215 L385 213 L391 210 L398 216 L400 226 L395 235 L398 235 L401 227 L401 219 L399 214 L392 209 L393 201 L388 196 L390 189 L382 181 L372 181 L367 171 Z M351 248 L352 247 L376 247 L377 249 L376 250 L352 250 Z M377 247 L381 246 L382 248 L378 249 Z M346 247 L350 246 L351 248 L347 249 Z M382 246 L384 245 L385 247 L383 248 Z M382 209 L384 208 L385 210 L383 211 Z M362 202 L364 201 L365 203 L363 204 Z M369 201 L373 200 L374 202 L370 203 Z M337 201 L339 200 L342 203 L357 205 L380 204 L385 203 L389 200 L391 201 L391 203 L385 207 L362 209 L340 206 L337 203 Z M382 200 L384 199 L385 201 L383 202 Z M343 197 L344 196 L356 197 L357 199 L355 200 L354 203 L349 203 L348 200 L344 200 Z M383 196 L385 195 L386 197 L384 198 Z M373 196 L375 194 L379 194 L381 198 L378 200 L374 200 Z M362 194 L366 195 L364 200 L359 199 Z M348 193 L351 190 L353 190 L356 194 L349 195 Z M380 190 L387 189 L388 192 L381 194 Z M373 189 L374 193 L370 195 L368 191 L370 189 Z M379 185 L381 184 L382 186 L380 187 Z M356 185 L357 184 L360 185 L362 189 L357 190 Z M364 189 L370 183 L376 184 L375 187 L371 186 L366 190 Z M352 183 L354 184 L353 188 L351 187 Z M359 174 L361 173 L362 176 L360 177 Z M49 169 L38 176 L35 189 L21 187 L17 191 L20 197 L33 196 L36 214 L30 220 L25 211 L20 213 L22 245 L29 252 L37 250 L79 253 L86 246 L88 232 L85 227 L88 222 L93 221 L94 214 L90 209 L81 211 L82 221 L79 225 L69 213 L71 197 L84 198 L88 195 L88 190 L85 187 L71 189 L69 178 L65 173 Z M49 248 L56 247 L57 249 L50 250 Z M74 247 L77 246 L81 247 L82 249 L76 251 Z M70 241 L72 242 L71 247 L69 246 Z M29 239 L31 240 L32 245 L30 250 L26 248 L28 245 L27 241 Z M32 237 L34 236 L35 238 L33 239 Z M69 232 L72 231 L78 234 L79 237 L73 240 L70 237 Z M25 230 L27 230 L29 233 L28 237 L26 236 L24 232 Z M76 230 L79 229 L81 232 L79 233 Z M88 218 L90 217 L91 219 L89 220 Z M67 214 L74 220 L76 226 L68 227 L67 242 L65 244 L51 245 L50 242 L53 239 L57 238 L55 231 L57 230 L62 218 Z M37 214 L41 215 L44 218 L45 223 L51 232 L49 236 L49 241 L46 244 L41 244 L38 242 L37 232 L33 231 L31 227 L31 222 Z M82 213 L84 212 L85 214 L83 215 Z M87 212 L89 211 L90 213 L88 214 Z M46 211 L48 210 L50 214 L53 215 L55 212 L59 210 L60 216 L55 217 L55 221 L52 222 L51 217 L46 216 Z M39 196 L41 194 L43 194 L44 196 L48 196 L47 194 L48 192 L57 192 L58 193 L57 196 L62 196 L64 194 L66 196 L65 212 L63 213 L62 209 L57 204 L55 204 L54 206 L49 204 L44 209 L44 212 L42 213 L40 210 Z M86 191 L86 194 L83 196 L71 193 L72 191 L82 189 Z M20 190 L21 189 L31 190 L34 193 L26 196 L21 196 Z M58 182 L61 181 L65 183 L68 186 L68 188 L65 189 L62 187 L59 187 Z M48 182 L47 187 L43 187 L40 189 L38 188 L38 186 L41 183 L45 181 Z M44 176 L48 172 L55 171 L61 174 L62 178 L58 179 L54 177 L50 177 L45 179 Z M92 111 L93 128 L105 138 L412 138 L424 128 L424 108 L415 100 L102 100 Z M346 123 L354 122 L355 124 L347 125 Z M340 123 L342 122 L343 124 L341 125 Z M370 122 L372 121 L373 123 L371 124 Z M269 122 L271 121 L272 123 L270 124 Z M399 119 L402 120 L401 126 L399 125 L398 121 Z M366 118 L368 117 L369 119 L367 120 Z M247 118 L249 117 L252 118 L253 120 L248 121 Z M121 116 L123 117 L122 121 L126 121 L129 118 L130 121 L133 122 L132 124 L130 124 L129 129 L127 128 L127 124 L118 123 L118 120 Z M193 115 L195 116 L194 121 L191 120 Z M330 114 L332 115 L331 121 L328 120 Z M238 114 L240 115 L240 118 L242 119 L241 122 L236 121 L236 116 Z M270 113 L272 114 L272 118 L267 119 L266 117 L269 116 Z M363 113 L365 112 L366 114 L364 115 Z M126 108 L130 109 L129 116 L124 113 Z"/></svg>
