<svg xmlns="http://www.w3.org/2000/svg" width="512" height="512" viewBox="0 0 512 512" aria-hidden="true" focusable="false"><path fill="currentColor" fill-rule="evenodd" clip-rule="evenodd" d="M213 355 L214 364 L218 366 L230 366 L250 358 L253 359 L243 367 L259 365 L277 357 L292 364 L310 367 L312 365 L305 362 L304 358 L324 366 L336 366 L343 360 L335 342 L336 334 L334 334 L328 346 L324 342 L324 336 L321 337 L319 343 L320 354 L301 347 L286 331 L279 309 L277 309 L272 325 L255 346 L235 354 L236 341 L233 335 L231 335 L232 339 L229 345 L225 343 L223 336 L220 335 L220 343 Z M329 356 L331 357 L330 360 L327 359 Z M223 357 L226 356 L228 359 L224 360 Z M219 355 L221 356 L220 360 L218 359 Z M334 355 L336 354 L337 357 L335 358 Z M276 334 L278 333 L279 336 L277 337 Z M356 361 L358 366 L367 366 L368 368 L391 365 L401 370 L418 373 L436 371 L450 366 L475 369 L476 366 L485 365 L481 352 L477 355 L478 362 L472 362 L460 356 L452 348 L449 340 L447 340 L444 349 L439 350 L424 314 L422 299 L419 300 L411 333 L401 351 L393 340 L389 348 L378 358 L361 364 L360 362 L363 361 L365 356 L360 352 L360 356 Z M478 362 L480 361 L481 363 L479 364 Z M431 347 L437 354 L435 358 L433 357 L430 350 Z M411 347 L412 350 L409 357 L407 358 L405 354 L408 349 Z M420 338 L422 339 L423 345 L430 359 L429 362 L421 365 L412 361 Z M189 350 L179 337 L179 325 L171 335 L174 355 L152 350 L134 341 L112 322 L111 298 L109 298 L106 308 L99 300 L99 320 L90 331 L77 340 L55 351 L36 355 L39 336 L32 327 L31 336 L22 347 L20 354 L24 359 L42 361 L34 363 L33 366 L46 366 L80 358 L105 346 L144 363 L176 366 L175 363 L166 361 L185 359 L189 356 Z M160 360 L162 359 L163 361 L161 362 Z M155 359 L157 358 L158 360 L156 361 Z M178 346 L182 350 L182 353 L180 355 L177 354 Z M32 346 L33 351 L32 354 L30 355 L28 351 L29 348 Z M86 347 L89 344 L91 345 L88 348 Z M117 344 L119 343 L122 346 L119 347 Z M358 283 L361 285 L385 267 L380 277 L392 289 L399 286 L406 277 L404 270 L420 283 L434 272 L437 280 L446 288 L451 287 L461 277 L462 272 L483 285 L477 268 L472 266 L468 259 L464 265 L437 237 L422 214 L396 247 L377 265 L373 259 L372 264 L365 268 Z M439 267 L441 266 L442 268 L440 269 Z M448 260 L448 262 L442 266 L441 265 L442 260 L437 254 L433 252 L431 248 L424 242 L418 241 L413 245 L410 251 L406 252 L399 260 L399 263 L404 268 L403 271 L394 263 L391 262 L413 240 L413 238 L420 228 L422 229 L433 245 Z M351 274 L346 266 L343 268 L342 275 L331 271 L322 262 L320 254 L316 256 L312 264 L303 260 L288 243 L283 233 L278 214 L268 241 L251 261 L243 264 L238 254 L236 254 L234 261 L227 269 L213 275 L212 268 L208 265 L204 276 L208 279 L218 278 L238 266 L243 272 L250 276 L266 279 L269 277 L266 265 L263 266 L262 275 L256 274 L250 269 L257 263 L267 261 L276 272 L279 272 L286 264 L287 260 L297 263 L306 269 L294 275 L293 268 L290 266 L285 274 L285 277 L289 279 L307 275 L317 266 L327 274 L342 279 L351 277 Z M284 251 L286 250 L287 252 L285 253 Z M273 245 L274 248 L270 252 L269 249 Z M280 245 L282 244 L284 248 L282 249 Z M276 238 L278 237 L279 239 L277 240 Z M17 266 L20 274 L33 276 L34 280 L63 278 L81 272 L94 264 L96 266 L93 271 L103 280 L107 280 L115 273 L116 265 L137 275 L159 280 L176 280 L177 276 L185 276 L192 272 L192 265 L182 249 L182 242 L175 250 L175 261 L180 270 L160 267 L137 256 L124 246 L113 233 L105 214 L93 238 L71 257 L55 265 L31 271 L35 251 L27 241 L28 251 Z M182 261 L184 262 L186 266 L184 270 L180 266 L180 263 Z M27 261 L29 262 L28 271 L24 269 L24 265 Z M103 240 L105 239 L107 242 L104 243 Z M207 196 L209 203 L216 209 L235 206 L254 192 L275 163 L275 169 L265 186 L243 209 L264 204 L277 194 L295 206 L312 209 L291 187 L283 175 L281 166 L295 185 L313 202 L326 208 L339 209 L343 207 L347 199 L347 195 L342 188 L342 181 L339 183 L338 190 L335 193 L336 199 L342 200 L339 204 L328 203 L317 196 L296 173 L279 141 L276 141 L260 172 L237 197 L227 203 L216 204 L213 200 L220 198 L220 192 L217 190 L217 184 L214 180 L213 189 Z M278 180 L284 189 L282 190 L279 186 L276 186 L274 190 L269 194 L268 192 Z M276 160 L278 159 L279 161 L277 162 Z M18 199 L21 207 L31 212 L43 211 L72 202 L88 191 L104 207 L108 206 L122 192 L137 202 L172 212 L185 210 L191 203 L191 197 L185 190 L184 182 L179 193 L176 194 L176 200 L179 203 L185 203 L180 207 L161 203 L156 186 L150 195 L128 175 L105 141 L84 172 L62 194 L53 185 L53 190 L49 195 L50 202 L30 207 L25 203 L31 203 L34 195 L30 192 L30 186 L25 182 L23 194 Z M112 180 L110 182 L104 179 L98 184 L96 183 L104 171 L107 173 Z M354 180 L354 198 L364 206 L379 206 L399 201 L417 192 L424 183 L435 193 L456 202 L470 205 L489 204 L496 195 L496 179 L488 180 L477 188 L479 202 L473 201 L464 195 L439 169 L426 140 L423 141 L410 170 L379 201 L371 202 L372 188 L360 180 Z M365 199 L367 198 L368 201 L366 202 Z M422 167 L423 170 L421 175 L408 188 L407 185 L411 182 L418 173 L419 169 Z M424 162 L428 165 L436 179 L443 185 L442 187 L440 187 L434 181 L426 167 L422 165 Z"/></svg>
