<svg xmlns="http://www.w3.org/2000/svg" width="512" height="512" viewBox="0 0 512 512" aria-hidden="true" focusable="false"><path fill="currentColor" fill-rule="evenodd" clip-rule="evenodd" d="M213 434 L211 434 L211 437 L208 441 L207 446 L200 457 L192 465 L183 470 L176 472 L159 471 L159 473 L165 476 L179 476 L186 474 L187 472 L194 469 L207 454 L211 445 Z M121 364 L118 364 L118 367 L115 373 L112 375 L112 377 L108 381 L106 381 L104 384 L100 385 L100 387 L107 386 L116 378 L120 372 Z M242 327 L242 332 L249 336 L259 333 L260 327 L256 323 L246 323 Z M247 329 L249 327 L255 328 L256 330 L248 331 Z M324 227 L321 230 L321 234 L325 238 L332 238 L334 236 L334 231 L330 227 Z M325 231 L328 230 L331 233 L326 234 Z M172 227 L168 231 L168 236 L170 238 L177 238 L180 236 L181 230 L179 227 Z M171 232 L174 230 L177 231 L176 234 L172 234 Z M229 166 L236 175 L239 177 L241 176 L242 178 L246 179 L255 179 L263 177 L269 173 L273 167 L271 165 L266 170 L257 174 L245 174 L239 172 L231 165 Z M286 128 L273 122 L273 125 L275 127 L274 130 L255 130 L252 132 L245 130 L233 131 L228 130 L226 128 L227 124 L225 123 L222 126 L215 128 L217 138 L220 138 L221 132 L225 132 L236 146 L244 149 L244 153 L236 149 L234 150 L241 157 L256 158 L262 156 L269 149 L269 147 L266 147 L265 145 L273 138 L273 136 L278 131 L281 131 L283 133 L283 138 L285 138 Z M264 148 L262 152 L253 154 L248 153 L249 149 L258 149 L262 147 Z M244 142 L245 141 L249 143 L256 142 L257 145 L247 146 Z M261 133 L262 135 L258 137 L257 135 Z M229 113 L229 118 L233 122 L236 123 L242 122 L245 124 L246 128 L248 128 L249 126 L256 125 L259 122 L263 123 L269 122 L271 118 L273 117 L273 114 L267 107 L259 105 L260 110 L264 110 L268 113 L268 116 L266 118 L258 117 L256 120 L248 121 L244 119 L243 117 L239 117 L236 119 L234 117 L234 112 L236 110 L242 110 L243 105 L234 107 Z M266 97 L267 100 L275 98 L286 98 L289 100 L301 99 L301 96 L296 98 L289 93 L287 93 L284 90 L283 86 L275 86 L273 88 L270 88 L268 90 L268 95 Z M236 100 L234 96 L234 91 L227 86 L219 86 L218 90 L215 93 L211 94 L206 98 L201 96 L201 99 L203 100 L212 100 L216 98 L226 98 L231 100 Z M263 84 L266 84 L270 82 L271 80 L278 78 L284 78 L291 80 L294 83 L300 85 L299 81 L293 75 L286 72 L273 73 L265 78 Z M202 82 L202 84 L206 84 L211 80 L223 78 L231 80 L237 85 L239 85 L238 80 L233 75 L224 72 L212 73 Z M244 63 L244 68 L247 70 L254 70 L257 67 L257 62 L254 59 L249 59 Z M248 64 L252 63 L254 66 L250 68 Z M211 27 L192 47 L185 78 L171 86 L171 119 L158 139 L122 158 L96 192 L80 192 L72 199 L58 201 L50 210 L70 237 L54 258 L40 319 L28 342 L27 365 L33 379 L24 414 L29 429 L42 442 L65 447 L82 469 L100 475 L127 475 L138 487 L153 491 L188 485 L207 488 L223 482 L244 486 L254 478 L267 482 L291 480 L300 493 L346 495 L359 492 L375 472 L407 477 L450 464 L462 447 L439 425 L464 421 L475 407 L476 390 L488 377 L485 354 L473 335 L467 291 L457 264 L431 235 L428 220 L413 211 L392 168 L334 127 L329 110 L331 87 L325 80 L316 79 L312 53 L298 33 L262 17 L239 17 Z M316 487 L319 486 L320 489 L317 490 Z M297 478 L299 477 L300 481 L308 482 L311 486 L309 488 L300 488 L299 485 L297 484 Z M231 473 L233 472 L237 477 L236 478 L233 477 Z M246 472 L249 471 L250 474 L247 475 Z M217 462 L218 465 L220 466 L222 478 L214 482 L208 483 L200 482 L199 480 Z M299 456 L299 460 L296 465 L296 470 L288 475 L281 477 L266 477 L255 473 L255 469 L258 466 L260 461 L263 461 L268 465 L281 466 L294 460 L294 458 L297 455 Z M300 448 L302 447 L303 450 L301 451 Z M299 474 L307 451 L314 442 L320 439 L335 439 L346 444 L370 468 L367 477 L357 487 L352 485 L353 476 L350 477 L347 486 L342 486 L343 474 L341 474 L337 485 L332 486 L333 491 L328 489 L331 476 L328 476 L325 485 L321 485 L317 482 L318 474 L312 480 L303 479 Z M397 432 L399 433 L398 437 L396 436 Z M284 430 L286 431 L287 438 L285 442 L283 441 L283 431 Z M394 424 L396 423 L397 425 L395 426 Z M390 423 L392 422 L393 424 L391 425 Z M268 422 L275 425 L276 428 L278 429 L280 439 L277 444 L271 443 L268 441 L268 439 L263 438 L264 431 Z M391 420 L393 416 L399 417 L395 421 Z M251 402 L258 407 L262 414 L262 424 L259 429 L255 430 L259 442 L258 455 L251 466 L245 467 L244 461 L241 460 L238 450 L236 450 L238 466 L241 471 L239 472 L234 464 L230 462 L229 464 L232 468 L230 472 L225 469 L221 458 L221 449 L225 436 L228 413 L237 403 Z M395 398 L398 398 L400 401 L400 404 L398 406 L396 406 L393 403 Z M262 398 L264 397 L265 399 L263 400 Z M269 396 L273 399 L275 406 L278 408 L280 413 L285 418 L287 424 L286 426 L281 423 L276 422 L268 414 L267 410 L265 409 L264 406 L265 403 L268 404 L271 410 L273 409 L268 398 Z M235 397 L223 412 L220 437 L218 438 L215 453 L199 474 L187 481 L167 486 L148 485 L134 477 L133 471 L139 465 L156 463 L176 453 L187 443 L199 427 L205 428 L201 439 L203 442 L217 409 L215 407 L208 419 L207 414 L213 402 L223 395 Z M211 394 L213 393 L214 395 L212 396 Z M267 392 L269 391 L270 393 L268 394 Z M241 392 L243 391 L244 393 L242 394 Z M323 390 L324 392 L321 400 L321 404 L316 411 L307 418 L305 426 L300 433 L299 437 L297 438 L294 453 L289 458 L282 461 L274 462 L263 459 L262 457 L265 442 L267 442 L269 446 L275 449 L283 448 L290 443 L294 435 L294 430 L292 428 L291 419 L287 413 L297 411 L307 406 Z M274 391 L276 390 L277 392 L275 393 Z M260 390 L262 389 L263 392 L261 393 Z M396 386 L398 386 L401 389 L399 393 L394 392 L394 388 Z M265 385 L267 384 L268 386 L266 387 Z M237 384 L238 385 L237 390 L234 391 L233 388 Z M36 384 L48 391 L53 392 L57 396 L53 407 L54 427 L60 439 L57 442 L45 438 L37 431 L37 429 L33 425 L31 419 L31 412 L29 411 L29 402 L31 400 L33 388 Z M249 383 L254 384 L257 387 L258 397 L257 400 L255 398 L251 398 L248 396 L248 384 Z M196 377 L197 376 L210 376 L211 382 L216 387 L214 388 L207 384 L198 384 L196 381 Z M397 374 L401 376 L401 380 L399 382 L396 382 L394 380 L394 376 Z M211 396 L194 427 L179 444 L155 458 L138 460 L127 470 L96 469 L83 464 L74 454 L124 453 L152 437 L169 418 L136 442 L100 453 L72 445 L63 435 L58 420 L62 397 L97 400 L123 389 L140 371 L173 375 L175 379 L154 383 L178 382 L186 389 L151 416 L128 427 L81 429 L102 435 L129 432 L159 416 L187 392 L204 389 L170 433 L173 435 L196 405 Z M407 369 L411 369 L413 372 L410 376 L407 376 L405 374 L405 371 Z M383 370 L388 369 L390 371 L390 374 L388 376 L385 376 L383 374 Z M188 369 L189 368 L211 369 L212 373 L211 374 L201 374 L199 372 L189 371 Z M259 365 L260 366 L259 375 L254 379 L251 379 L250 371 Z M270 364 L279 366 L287 373 L289 378 L284 382 L282 386 L279 387 L275 386 L265 375 L267 373 L275 380 L279 378 L279 373 L273 368 L270 368 L269 367 Z M233 364 L234 366 L224 373 L223 378 L225 380 L228 380 L234 375 L236 376 L236 378 L233 380 L233 382 L229 386 L223 387 L215 379 L215 374 L224 366 Z M254 360 L255 362 L249 367 L247 374 L244 376 L242 372 L243 365 L248 360 L251 359 Z M415 358 L418 358 L421 361 L421 363 L418 366 L415 366 L412 363 L412 361 Z M374 361 L377 358 L379 358 L382 364 L377 366 L374 363 Z M335 359 L332 368 L325 380 L305 401 L295 407 L284 409 L279 404 L278 400 L276 399 L277 396 L290 396 L300 392 L310 384 L312 384 L312 382 L320 374 L318 372 L302 386 L294 390 L284 392 L283 390 L291 382 L293 375 L303 375 L309 373 L308 371 L292 373 L290 370 L291 368 L307 368 L308 366 L318 365 L330 359 Z M263 359 L266 358 L267 360 L264 361 Z M238 359 L240 358 L241 360 L239 361 Z M227 358 L235 357 L236 359 L228 360 Z M448 351 L462 366 L468 377 L471 388 L471 401 L468 410 L460 417 L454 419 L441 418 L447 399 L446 374 L444 373 L444 366 L446 364 Z M145 350 L148 348 L165 360 L168 360 L172 363 L181 366 L186 366 L187 368 L184 369 L184 371 L190 374 L191 377 L189 378 L175 370 L160 368 L159 366 L144 366 L143 362 L144 357 L146 355 Z M421 345 L423 345 L426 348 L426 351 L424 353 L418 352 L418 348 Z M374 345 L376 347 L376 352 L374 354 L371 354 L369 352 L369 348 Z M421 333 L426 332 L428 334 L428 337 L426 339 L423 339 L421 337 Z M365 335 L371 332 L374 335 L374 338 L372 340 L368 340 L365 337 Z M143 328 L145 327 L147 331 L153 337 L155 337 L162 343 L166 344 L168 347 L171 347 L184 353 L199 355 L201 357 L209 358 L223 357 L224 361 L222 363 L217 364 L196 364 L176 359 L155 348 L144 337 Z M360 322 L361 326 L348 337 L342 345 L342 347 L331 354 L325 356 L324 358 L313 361 L308 361 L306 363 L280 363 L276 360 L267 359 L268 357 L293 357 L295 355 L307 354 L327 347 L328 345 L335 342 L344 334 L347 333 L357 321 Z M368 318 L370 318 L373 321 L373 323 L369 327 L365 325 L365 321 Z M423 317 L426 317 L428 319 L428 322 L425 326 L421 324 L421 319 Z M436 316 L442 336 L441 364 L418 419 L416 435 L426 448 L437 448 L422 438 L421 425 L441 384 L442 399 L434 429 L440 437 L454 443 L451 458 L420 462 L402 458 L388 449 L394 458 L420 467 L393 472 L372 464 L353 443 L337 434 L316 435 L301 444 L311 429 L337 419 L358 423 L383 442 L359 418 L339 414 L311 423 L360 391 L359 388 L326 405 L353 359 L332 385 L339 361 L360 332 L367 344 L365 352 L372 359 L371 366 L391 384 L391 412 L386 423 L390 444 L413 442 L401 414 L404 383 L414 379 L416 370 L425 363 L423 358 L430 351 L428 343 L432 338 L431 314 Z M364 313 L365 315 L362 317 L362 320 L359 321 L358 319 L360 314 Z M439 305 L441 306 L440 312 L437 309 Z M367 308 L369 305 L373 305 L375 310 L373 312 L369 312 Z M385 303 L393 303 L396 307 L401 307 L405 311 L411 312 L417 318 L419 329 L417 332 L418 342 L415 345 L415 354 L410 358 L410 364 L405 365 L400 370 L394 370 L390 365 L385 364 L385 358 L380 354 L380 346 L375 342 L378 338 L378 334 L375 330 L375 315 L379 311 L379 306 Z M375 292 L380 293 L380 298 L378 300 L375 300 L373 298 L373 294 Z M366 292 L369 293 L368 301 L365 300 Z M131 313 L138 329 L141 352 L133 373 L112 389 L88 396 L70 395 L56 389 L45 374 L44 366 L44 379 L41 380 L33 368 L33 343 L40 327 L67 296 L71 298 L59 318 L58 327 L78 295 L82 298 L77 321 L87 296 L91 307 L92 294 L104 320 L100 299 L104 294 L127 330 L123 313 L108 292 L109 288 Z M54 285 L55 292 L53 297 L53 304 L48 309 L47 299 L49 295 L49 291 Z M392 265 L402 262 L403 260 L412 260 L425 265 L433 273 L438 283 L439 294 L438 299 L428 310 L421 313 L418 312 L418 310 L426 303 L430 294 L427 294 L425 299 L418 306 L412 308 L408 306 L417 295 L420 289 L419 286 L417 286 L416 290 L408 300 L402 303 L397 301 L409 283 L408 279 L406 279 L398 294 L392 298 L386 298 L385 295 L389 291 L397 274 L397 269 L395 269 L390 279 L386 283 L384 282 L386 271 Z M246 261 L248 259 L252 259 L254 261 L254 264 L251 266 L248 266 L246 264 Z M260 261 L263 258 L267 258 L269 260 L269 263 L267 265 L264 265 Z M235 257 L239 259 L239 262 L237 264 L234 263 Z M110 255 L112 254 L113 257 L111 258 Z M277 253 L281 253 L283 255 L282 258 L279 260 L275 258 L275 255 Z M220 253 L225 252 L226 257 L221 258 Z M387 255 L399 248 L407 246 L428 246 L438 250 L453 267 L462 291 L465 323 L467 324 L469 339 L473 347 L478 351 L477 353 L464 340 L462 327 L460 326 L457 289 L455 288 L456 286 L451 273 L435 255 L425 250 L422 251 L422 253 L430 255 L436 260 L447 275 L452 290 L455 326 L459 340 L463 348 L483 367 L483 376 L477 384 L474 381 L472 373 L449 342 L446 327 L446 295 L444 294 L442 279 L437 270 L427 260 L414 255 L403 255 L386 264 L380 276 L375 280 L375 272 Z M286 249 L288 244 L291 244 L294 247 L290 252 Z M139 288 L157 253 L171 255 L204 244 L206 252 L215 254 L219 262 L253 270 L283 263 L300 244 L321 253 L345 254 L358 276 L360 299 L352 320 L325 342 L294 352 L245 356 L189 349 L162 337 L142 314 Z M209 246 L211 243 L214 243 L216 245 L216 248 L214 250 L211 250 Z M107 241 L110 241 L113 244 L114 247 L112 250 L106 243 Z M66 244 L74 241 L92 241 L101 244 L105 248 L105 254 L89 249 L76 251 L76 253 L95 254 L108 262 L107 266 L96 264 L75 264 L76 267 L97 268 L107 273 L105 279 L97 278 L96 276 L82 276 L80 278 L75 278 L75 280 L99 281 L103 284 L101 289 L85 289 L66 292 L60 286 L58 262 L60 256 L63 254 Z M219 243 L241 238 L262 238 L269 239 L271 241 L281 242 L283 246 L281 249 L276 249 L270 254 L262 254 L257 258 L252 255 L249 255 L244 258 L238 253 L231 254 L227 248 L221 247 Z M297 233 L301 235 L301 238 L299 241 L296 241 L294 239 L294 236 Z M203 233 L206 233 L208 236 L208 238 L205 241 L203 241 L201 238 L201 235 Z M82 232 L85 231 L86 235 L84 236 Z M117 223 L121 226 L124 234 L126 235 L129 247 L129 254 L133 255 L131 263 L129 264 L126 274 L123 278 L121 290 L117 288 L118 284 L117 260 L120 257 L120 252 L118 251 L118 243 L113 237 L108 235 L108 233 Z M303 222 L307 223 L306 229 L303 229 L300 226 Z M197 222 L200 222 L202 225 L199 229 L195 227 L195 224 Z M425 224 L425 232 L417 231 L415 229 L408 229 L406 231 L401 231 L393 234 L380 245 L375 252 L374 257 L376 257 L379 251 L387 243 L389 243 L397 237 L406 236 L407 234 L416 234 L418 236 L427 238 L429 240 L428 242 L410 241 L397 244 L384 252 L376 261 L373 268 L370 268 L367 257 L369 246 L383 227 L392 221 L403 217 L414 217 Z M306 212 L311 211 L312 215 L308 217 L306 215 Z M190 212 L195 211 L196 216 L192 217 L190 215 Z M116 216 L115 219 L107 226 L101 237 L99 236 L99 234 L101 231 L102 223 L100 223 L99 226 L97 227 L94 236 L92 237 L90 225 L87 225 L86 231 L84 230 L84 226 L82 225 L83 223 L80 219 L79 212 L80 211 L90 212 L97 207 L102 207 Z M71 207 L74 208 L75 216 L78 220 L77 222 L73 221 L74 226 L79 234 L78 236 L74 234 L70 226 L60 216 L62 212 L64 212 Z M64 204 L65 207 L62 210 L58 211 L57 209 L61 205 Z M96 202 L97 201 L110 201 L115 207 L115 209 L112 210 L105 204 L97 204 Z M312 199 L315 199 L317 201 L315 205 L312 205 L310 203 Z M185 201 L187 199 L191 199 L192 204 L187 205 Z M75 202 L83 196 L90 196 L94 199 L94 204 L89 207 L82 207 L79 204 L76 204 Z M312 189 L314 186 L317 186 L320 190 L318 192 L314 192 Z M185 186 L188 186 L190 188 L188 192 L184 191 L183 188 Z M324 173 L333 175 L347 209 L350 233 L347 245 L336 250 L319 247 L305 241 L305 234 L311 229 L311 222 L316 217 L316 209 L321 205 L320 196 L323 191 L322 181 Z M315 173 L318 173 L320 175 L320 178 L318 180 L315 180 L313 178 L313 175 Z M183 174 L187 173 L189 175 L189 178 L185 180 L183 178 Z M192 171 L197 167 L235 188 L260 189 L280 183 L307 167 L312 182 L308 188 L310 195 L306 199 L307 207 L302 211 L297 229 L291 233 L291 240 L259 233 L235 234 L217 241 L213 239 L211 232 L206 229 L205 221 L200 218 L200 210 L192 195 Z M311 164 L314 163 L316 167 L313 168 Z M188 162 L191 163 L191 166 L189 168 L186 167 Z M152 148 L154 165 L161 172 L179 174 L181 203 L199 241 L171 250 L161 249 L154 243 L153 219 L166 183 L164 179 L150 210 L147 227 L149 251 L138 274 L132 306 L126 298 L126 289 L138 255 L138 219 L144 191 L134 213 L133 243 L122 220 L123 211 L118 202 L109 196 L102 197 L101 193 L122 165 Z M350 146 L370 155 L385 167 L399 187 L407 208 L406 212 L387 218 L369 236 L370 201 L368 190 L363 179 L360 179 L365 199 L362 254 L369 276 L370 290 L365 289 L363 275 L354 257 L353 214 L338 178 L338 173 L349 162 Z M177 105 L179 106 L178 110 L176 109 Z M324 103 L326 104 L327 125 L331 129 L334 135 L341 142 L344 149 L344 160 L337 168 L334 169 L325 168 L317 160 L316 156 L318 148 L321 143 L321 119 L318 113 L322 112 Z M319 98 L321 99 L321 109 L320 110 L317 109 L317 103 Z M183 98 L185 103 L185 109 L181 118 L180 138 L181 143 L183 144 L182 147 L185 151 L186 156 L184 161 L177 168 L169 169 L163 167 L158 161 L157 154 L159 145 L162 143 L162 141 L175 125 L176 113 L181 112 L181 99 Z M184 87 L187 88 L186 93 L182 90 Z M316 86 L319 89 L317 93 L313 91 Z M179 86 L180 89 L178 91 L178 104 L176 105 L175 104 L175 90 Z M323 85 L325 86 L327 92 L326 95 L323 93 L322 89 Z M240 22 L262 22 L287 31 L304 48 L311 66 L315 146 L298 167 L263 184 L232 183 L224 179 L224 174 L203 167 L192 156 L185 136 L191 104 L190 70 L196 50 L213 32 Z"/></svg>
