<svg xmlns="http://www.w3.org/2000/svg" width="512" height="512" viewBox="0 0 512 512" aria-hidden="true" focusable="false"><path fill="currentColor" fill-rule="evenodd" clip-rule="evenodd" d="M36 430 L37 431 L36 435 L38 438 L42 436 L43 439 L47 439 L48 431 L51 430 L52 431 L51 435 L53 436 L53 438 L58 439 L62 437 L63 428 L57 427 L40 428 L38 427 Z M469 427 L470 435 L469 439 L482 439 L481 437 L482 428 L480 426 Z M439 431 L439 433 L441 434 L441 439 L447 436 L452 438 L453 435 L461 439 L462 437 L465 437 L466 435 L466 427 L461 426 L455 427 L454 433 L452 432 L451 426 L442 426 L442 428 Z M348 429 L348 431 L350 432 L348 437 L352 436 L353 438 L375 438 L375 428 L374 427 L361 428 L350 426 L350 428 Z M364 430 L367 429 L368 431 L365 432 Z M236 426 L235 431 L236 438 L247 438 L246 434 L248 432 L252 433 L250 438 L254 439 L256 438 L260 439 L276 438 L275 434 L276 427 L265 427 L264 429 L260 429 L257 426 L256 429 L251 427 L251 429 L248 430 L247 427 Z M141 428 L142 432 L140 435 L142 436 L142 439 L144 439 L145 435 L148 437 L148 439 L152 438 L152 434 L154 432 L157 434 L157 439 L160 438 L166 439 L167 427 L154 428 L149 426 L147 427 L142 426 Z M152 430 L154 429 L155 431 L153 432 Z M256 380 L253 382 L245 383 L243 385 L243 403 L248 408 L258 410 L267 407 L270 403 L270 384 L263 383 Z M257 400 L260 399 L261 401 L258 402 Z M253 400 L255 399 L256 401 L254 402 Z M246 385 L250 385 L256 382 L263 385 L267 385 L268 386 L268 402 L263 406 L260 407 L257 406 L258 404 L263 403 L264 399 L260 397 L262 390 L256 386 L250 391 L252 397 L250 398 L250 402 L255 404 L256 406 L253 407 L248 405 L245 402 L245 386 Z M238 379 L237 381 L237 412 L238 414 L243 418 L270 418 L274 415 L276 411 L276 381 L275 379 L273 380 L274 382 L274 411 L269 416 L244 416 L240 413 L239 411 L239 382 L240 380 Z M482 364 L475 365 L472 359 L466 361 L460 354 L454 361 L448 359 L444 365 L438 364 L437 369 L433 370 L429 377 L432 387 L423 392 L424 400 L435 409 L435 412 L440 414 L471 415 L483 413 L484 409 L494 402 L496 391 L487 387 L491 377 L487 376 L488 371 L483 370 Z M450 412 L452 411 L453 413 L451 414 Z M426 397 L428 396 L433 398 L453 400 L480 399 L492 397 L493 400 L487 405 L480 407 L479 409 L465 409 L464 410 L442 409 L440 410 L439 407 L428 402 Z M462 395 L467 394 L468 396 L463 397 Z M451 395 L456 394 L457 396 L452 397 Z M492 392 L491 394 L478 397 L474 396 L475 394 L478 394 L484 390 L488 390 Z M427 392 L436 390 L444 394 L445 396 L444 397 L434 396 L428 394 Z M488 380 L486 385 L481 390 L473 393 L467 392 L473 380 L475 379 L477 380 L475 384 L481 384 L480 380 L483 378 Z M432 379 L440 378 L441 380 L438 382 L439 384 L444 384 L444 382 L442 381 L443 379 L447 380 L449 382 L449 387 L451 392 L446 393 L437 389 L433 384 Z M478 374 L484 373 L485 375 L479 376 Z M435 373 L439 372 L441 375 L436 376 Z M459 371 L465 374 L468 380 L467 390 L461 393 L456 392 L451 386 L452 378 Z M450 371 L452 370 L453 373 L451 374 Z M445 370 L447 371 L447 373 L451 374 L449 379 L443 376 Z M472 368 L476 372 L476 376 L474 378 L469 377 L469 375 L472 373 L471 370 Z M477 368 L480 367 L481 370 L478 371 Z M441 366 L444 368 L442 371 L439 369 Z M468 363 L471 362 L473 365 L469 367 Z M447 364 L449 362 L452 363 L451 366 L448 366 Z M459 358 L462 359 L462 361 L459 362 L459 364 L462 366 L461 369 L458 369 L457 366 L455 365 L456 361 Z M360 341 L346 379 L345 416 L347 418 L377 418 L380 415 L379 382 L376 378 L376 369 L373 361 L371 360 L363 341 Z M347 414 L348 413 L376 413 L377 415 L376 416 L348 416 Z M364 404 L368 405 L366 411 L364 410 L363 407 Z M360 395 L363 394 L364 396 L361 397 Z M368 391 L370 396 L368 397 L367 400 L361 403 L359 400 L363 399 L365 397 L365 392 Z M356 391 L358 392 L357 400 L355 399 L354 396 Z M359 389 L363 387 L365 391 L360 392 Z M366 385 L372 384 L373 388 L372 389 L368 388 Z M348 385 L357 384 L358 386 L352 389 Z M348 381 L350 380 L351 382 L349 383 Z M360 372 L363 371 L364 373 L361 374 Z M361 346 L364 347 L367 353 L367 356 L369 360 L371 361 L372 368 L374 370 L373 372 L369 372 L366 368 L362 354 L360 355 L356 371 L355 372 L351 371 L353 362 Z M245 343 L243 345 L245 357 L241 359 L241 363 L244 366 L244 375 L246 375 L248 369 L265 369 L267 375 L269 375 L268 368 L272 362 L272 359 L268 357 L270 345 L266 342 L259 341 Z M243 361 L244 360 L268 360 L269 362 L268 363 L244 363 Z M245 346 L248 344 L264 344 L267 346 L266 356 L264 358 L248 358 L246 354 Z M153 341 L148 348 L145 358 L143 359 L144 414 L149 419 L160 419 L165 414 L166 359 L161 352 L161 346 L157 345 L156 341 Z M150 415 L159 414 L160 416 L151 417 Z M153 408 L155 407 L157 411 L154 412 Z M152 398 L155 397 L156 399 L153 400 Z M152 386 L154 385 L157 388 L153 389 Z M159 364 L163 365 L163 407 L162 408 L159 405 L160 392 L158 390 L159 386 L157 385 L160 381 L160 378 L156 366 Z M150 364 L153 365 L154 367 L152 370 L152 374 L150 375 L150 406 L149 410 L147 411 L146 410 L146 365 Z M147 356 L153 351 L157 351 L162 357 L160 359 L151 359 L148 358 Z M22 357 L24 364 L18 413 L23 413 L27 417 L42 415 L44 419 L49 417 L55 419 L60 415 L72 417 L83 412 L77 379 L78 357 L76 355 L62 357 L58 354 L58 345 L54 341 L47 341 L42 346 L42 355 Z M69 408 L71 407 L72 409 L70 410 Z M21 404 L23 403 L24 406 L22 407 Z M75 388 L77 389 L78 398 L77 408 L74 407 L74 389 Z M45 389 L47 388 L48 391 L46 392 Z M28 388 L31 387 L33 389 L34 388 L38 389 L41 387 L42 390 L45 391 L46 394 L49 396 L49 398 L47 399 L47 404 L49 405 L49 408 L48 409 L35 409 L34 406 L36 405 L36 400 L31 400 L30 402 L28 401 Z M71 386 L72 387 L72 401 L70 402 L63 399 L62 400 L64 406 L63 409 L52 409 L51 405 L53 404 L53 398 L51 397 L51 395 L57 391 L59 386 L62 389 L64 388 L67 389 Z M54 383 L56 384 L55 387 L52 386 Z M45 382 L47 383 L46 387 L44 386 Z M51 380 L53 379 L54 381 L52 382 Z M28 369 L35 368 L36 361 L64 362 L65 363 L64 365 L67 367 L67 369 L69 368 L69 365 L71 364 L72 365 L72 384 L70 385 L63 381 L59 385 L56 379 L54 379 L51 376 L52 366 L51 364 L49 364 L47 370 L47 373 L49 374 L49 376 L45 378 L40 385 L37 383 L37 381 L29 385 L28 384 Z M73 358 L75 357 L76 359 L74 360 Z M44 348 L46 347 L49 353 L54 352 L55 353 L54 356 L48 357 L44 351 Z M53 345 L55 344 L56 346 L54 347 Z M46 344 L48 343 L49 345 L47 346 Z M435 313 L434 319 L438 319 L439 321 L437 324 L440 324 L441 320 L445 319 L444 313 Z M476 312 L475 313 L476 324 L485 324 L486 318 L485 313 Z M448 312 L448 324 L452 323 L456 324 L460 320 L462 321 L462 324 L464 324 L465 322 L467 324 L471 323 L472 313 L462 312 L460 314 L459 312 Z M334 316 L336 318 L334 322 L338 322 L339 324 L356 324 L359 318 L362 319 L362 324 L367 323 L380 324 L381 322 L385 324 L387 322 L387 314 L384 312 L376 312 L375 319 L373 318 L373 314 L371 312 L364 312 L361 317 L359 316 L359 312 L349 313 L348 317 L346 316 L346 313 L344 312 L339 313 L336 312 Z M346 320 L348 319 L349 321 L347 322 Z M230 314 L230 316 L232 317 L230 324 L233 322 L235 324 L238 324 L240 322 L241 316 L243 317 L243 323 L247 324 L252 323 L255 318 L257 319 L258 324 L261 324 L262 322 L269 324 L274 324 L276 322 L277 324 L279 324 L281 322 L281 313 L278 312 L270 312 L269 314 L261 312 L258 313 L255 317 L252 316 L250 313 L237 314 L234 312 L233 314 Z M234 320 L236 319 L237 321 L235 322 Z M140 324 L146 323 L152 324 L153 318 L155 319 L155 324 L164 323 L172 324 L173 322 L178 324 L180 322 L179 320 L180 313 L168 312 L167 318 L165 317 L165 314 L163 312 L156 312 L154 316 L148 312 L142 313 Z M138 314 L135 314 L134 312 L132 312 L131 315 L127 315 L127 317 L129 318 L127 323 L133 324 L135 322 L138 322 L137 319 Z M22 322 L26 324 L31 324 L33 321 L35 322 L35 324 L47 324 L46 320 L48 318 L50 319 L50 324 L59 323 L67 324 L68 322 L73 324 L75 322 L74 313 L71 312 L69 313 L64 312 L62 318 L60 317 L60 314 L58 312 L51 312 L49 316 L47 315 L47 312 L37 312 L35 316 L31 316 L29 313 L27 313 L26 315 L23 316 Z M28 316 L31 317 L31 320 L29 322 L27 321 Z M141 299 L145 303 L152 305 L162 304 L169 300 L167 299 L162 302 L154 303 Z M363 248 L360 249 L359 258 L357 263 L358 269 L354 272 L353 284 L350 287 L348 298 L353 299 L376 298 L374 287 L371 284 L370 272 L367 270 L367 263 L364 258 Z M372 288 L371 290 L368 290 L369 295 L367 297 L356 296 L355 290 L352 289 L355 286 L363 286 L364 284 L367 284 L368 286 Z M361 261 L365 263 L364 271 L368 273 L368 275 L365 276 L364 284 L359 282 L359 276 L356 275 L356 273 L360 271 L359 263 Z M46 233 L41 239 L40 246 L29 247 L22 253 L19 259 L19 272 L27 288 L32 286 L37 291 L34 294 L36 297 L39 297 L47 304 L51 304 L64 295 L62 291 L74 275 L76 277 L69 289 L75 284 L80 271 L80 260 L73 249 L58 245 L55 234 Z M61 292 L62 294 L59 296 L58 294 Z M37 293 L40 292 L42 295 L47 298 L52 298 L56 295 L58 297 L53 301 L48 302 L41 297 L39 297 Z M28 284 L30 283 L31 285 L29 286 Z M22 274 L24 273 L26 277 L24 278 Z M74 273 L76 272 L77 274 L75 275 Z M22 268 L24 269 L23 273 L21 272 Z M76 261 L78 262 L77 272 L75 271 Z M21 261 L23 260 L24 262 L22 263 Z M29 255 L41 253 L48 258 L51 258 L58 253 L67 254 L73 261 L73 271 L67 284 L55 294 L50 296 L40 292 L31 283 L26 272 L25 265 Z M48 253 L50 252 L51 254 L49 255 Z M27 252 L29 253 L28 256 L25 255 Z M66 250 L67 249 L70 250 L74 255 L72 256 Z M42 250 L44 249 L48 253 L46 254 Z M57 249 L65 248 L66 250 L58 251 Z M33 249 L41 248 L42 250 L34 251 Z M54 246 L51 249 L47 248 L48 246 L52 245 Z M48 241 L50 240 L51 243 L49 244 Z M47 236 L48 238 L46 240 L46 244 L44 245 L43 240 Z M51 235 L56 240 L55 245 L53 244 L53 240 L50 237 Z M459 232 L454 237 L456 245 L452 247 L451 252 L449 253 L448 302 L450 304 L471 304 L473 302 L472 253 L470 252 L469 247 L465 245 L467 240 L466 235 L462 232 Z M450 296 L451 295 L470 295 L471 300 L469 302 L452 302 L450 300 Z M456 287 L463 286 L464 292 L457 293 Z M462 279 L464 278 L465 281 L463 282 Z M456 279 L458 278 L459 281 L457 282 Z M456 273 L458 272 L459 275 L457 276 Z M458 271 L462 270 L464 274 L462 275 Z M463 260 L469 260 L471 264 L471 292 L470 293 L467 292 L467 274 L464 269 L464 265 L462 262 Z M458 260 L459 262 L457 264 L457 269 L454 272 L454 292 L451 293 L450 292 L450 264 L452 260 Z M459 241 L462 241 L463 244 L466 246 L467 250 L463 251 L463 253 L469 253 L470 254 L469 258 L452 258 L451 257 L452 253 L458 253 L458 251 L454 251 L453 249 L458 244 Z M361 232 L356 237 L357 243 L352 251 L351 257 L347 261 L348 267 L345 270 L345 279 L341 285 L341 300 L344 304 L380 304 L383 301 L384 288 L380 280 L377 260 L368 244 L368 236 Z M360 240 L365 241 L372 259 L375 261 L374 267 L378 273 L377 280 L381 285 L381 300 L379 302 L345 302 L343 300 L343 286 L347 281 L347 271 L350 267 L350 261 L353 258 Z M231 244 L229 246 L229 303 L231 305 L281 305 L284 301 L283 246 L265 244 L264 237 L259 232 L250 235 L248 244 Z M236 250 L277 251 L277 297 L275 299 L238 299 L235 296 Z M231 246 L235 247 L233 251 L233 297 L236 300 L277 300 L279 298 L279 250 L277 249 L277 247 L280 246 L283 250 L283 299 L280 303 L233 303 L230 300 L230 247 Z M253 243 L258 242 L259 247 L254 248 Z M258 235 L260 234 L261 236 L259 237 Z M153 232 L148 238 L151 251 L146 258 L144 257 L144 253 L139 259 L133 277 L133 287 L137 296 L142 294 L144 297 L150 299 L162 299 L169 294 L171 296 L174 295 L178 287 L178 278 L171 259 L162 248 L161 244 L163 239 L161 234 Z M174 273 L176 278 L176 286 L174 292 L172 293 L171 292 L173 286 L172 274 Z M164 256 L166 255 L167 257 L165 258 Z M162 253 L164 252 L165 254 L163 255 Z M154 250 L158 252 L165 262 L171 279 L171 285 L169 291 L164 296 L161 297 L147 296 L143 293 L139 284 L142 268 Z M159 249 L161 248 L162 250 L160 251 Z M153 243 L157 242 L158 246 L154 247 Z M151 236 L153 235 L154 237 L152 238 Z M367 208 L368 217 L379 217 L382 213 L384 214 L385 217 L388 216 L393 217 L393 210 L395 207 L399 209 L398 218 L401 215 L401 209 L399 205 L397 206 L386 205 L383 210 L381 209 L382 205 L379 207 L375 205 L373 208 L368 206 Z M369 209 L371 208 L372 211 L370 212 Z M391 207 L392 213 L389 215 L388 212 L389 208 Z M433 210 L435 212 L436 217 L440 216 L451 217 L453 214 L456 217 L458 214 L462 217 L465 213 L469 217 L470 212 L473 212 L476 215 L476 217 L486 216 L485 214 L486 205 L478 205 L477 207 L474 207 L473 210 L469 208 L469 204 L466 206 L462 204 L461 208 L455 204 L448 205 L448 213 L446 214 L445 206 L439 204 L435 205 Z M459 214 L460 211 L463 212 L461 215 Z M323 207 L324 217 L327 214 L330 217 L335 216 L337 217 L347 217 L348 216 L358 217 L361 214 L360 206 L358 204 L351 205 L350 208 L348 207 L348 205 L332 206 L331 204 L329 204 L328 206 L324 204 Z M243 212 L244 217 L246 216 L252 217 L252 212 L254 210 L258 212 L258 217 L262 216 L265 217 L267 215 L271 217 L275 217 L276 214 L280 217 L280 215 L282 214 L281 205 L271 204 L269 206 L267 206 L266 204 L259 205 L256 209 L253 208 L252 205 L248 204 L244 206 Z M234 204 L233 206 L231 206 L231 217 L239 217 L240 216 L240 206 L237 206 Z M129 217 L141 217 L142 216 L152 217 L154 215 L158 217 L165 217 L167 215 L170 217 L174 217 L176 214 L179 217 L182 214 L182 206 L174 204 L170 206 L158 205 L157 207 L152 205 L145 205 L141 209 L139 205 L134 204 L131 205 Z M140 212 L142 211 L143 214 L141 215 Z M23 209 L24 217 L25 216 L29 217 L31 215 L34 217 L39 216 L48 217 L50 211 L52 212 L53 217 L56 216 L69 217 L71 214 L74 217 L77 214 L76 205 L68 204 L64 206 L61 206 L60 204 L53 205 L51 209 L45 204 L43 206 L39 206 L36 208 L34 207 L34 205 L31 206 L30 204 L24 205 Z M34 213 L36 212 L37 214 L35 215 Z M357 125 L353 129 L352 135 L343 144 L341 160 L334 174 L334 186 L344 196 L377 196 L384 191 L386 185 L385 171 L379 159 L379 148 L374 139 L368 135 L368 129 Z M377 185 L378 187 L375 189 L374 187 Z M343 186 L345 185 L347 187 L355 187 L360 185 L362 187 L373 187 L374 189 L373 190 L347 190 Z M337 174 L339 175 L339 185 L340 186 L339 189 L336 186 L336 175 Z M344 171 L345 175 L342 177 L341 175 L342 172 Z M337 172 L339 171 L340 173 L338 174 Z M376 169 L378 170 L379 173 L378 177 L375 175 Z M343 169 L345 168 L346 170 L344 171 Z M372 166 L373 176 L372 177 L370 176 L370 169 L368 169 L366 176 L362 180 L374 177 L377 180 L377 182 L374 185 L360 185 L359 184 L347 185 L345 183 L344 180 L347 177 L348 171 L351 174 L350 178 L359 180 L359 178 L355 176 L355 173 L352 172 L352 169 L356 168 L357 170 L363 171 L363 168 L365 167 L366 163 L369 163 Z M349 167 L350 163 L355 164 L353 168 Z M348 160 L350 161 L349 164 L346 163 Z M370 158 L372 157 L373 160 L371 161 Z M347 156 L349 155 L350 157 L348 158 Z M356 147 L363 146 L366 148 L367 151 L364 160 L362 160 L361 158 L359 158 L358 160 L356 159 L354 149 Z M352 145 L353 146 L352 150 L349 152 L348 149 Z M352 144 L355 141 L363 140 L371 146 L373 151 L371 152 L364 144 L357 144 L355 146 L353 146 Z M355 136 L359 135 L360 137 L356 138 Z M364 130 L366 131 L365 139 L361 137 Z M355 130 L357 131 L356 135 L354 134 Z M254 125 L255 129 L249 130 L249 136 L242 142 L238 150 L235 192 L238 196 L275 196 L278 193 L275 149 L264 135 L263 128 L259 125 Z M272 192 L274 191 L275 193 L273 194 Z M238 192 L240 191 L241 193 L239 194 Z M256 150 L260 152 L258 161 L264 164 L264 166 L261 169 L261 172 L258 174 L258 176 L260 175 L262 176 L263 181 L261 190 L251 189 L252 167 L250 167 L249 164 L255 161 L254 152 Z M246 142 L248 141 L249 143 L247 144 Z M255 140 L258 140 L261 142 L265 140 L268 143 L266 147 L271 158 L272 188 L270 190 L264 189 L265 181 L267 180 L266 178 L267 165 L266 162 L261 159 L262 152 L258 147 L257 143 L251 154 L252 159 L248 161 L247 163 L247 175 L245 179 L245 183 L249 184 L249 189 L248 190 L242 189 L243 155 L248 144 Z M257 136 L260 135 L261 137 L258 138 Z M252 135 L255 134 L256 137 L253 138 Z M154 125 L150 128 L148 137 L150 142 L153 140 L155 141 L151 150 L152 159 L145 162 L144 176 L142 177 L141 160 L147 144 L144 142 L141 143 L136 157 L136 173 L132 180 L132 194 L134 196 L177 196 L180 194 L181 188 L180 179 L176 172 L173 150 L169 142 L164 144 L170 160 L170 175 L168 176 L167 164 L160 159 L161 151 L157 143 L158 141 L162 142 L164 139 L163 130 L158 125 Z M175 192 L177 191 L178 193 L176 194 Z M137 182 L141 181 L144 178 L151 178 L152 180 L159 180 L162 178 L167 178 L170 181 L173 180 L175 181 L175 189 L174 190 L138 190 Z M165 164 L165 167 L161 168 L161 172 L157 175 L152 174 L151 168 L149 168 L150 171 L148 176 L146 175 L146 165 L149 162 L158 161 L163 162 Z M155 149 L159 151 L159 156 L157 158 L153 156 L153 151 Z M30 125 L25 130 L24 195 L73 196 L76 194 L74 128 L70 125 Z M29 189 L31 188 L32 190 L30 191 Z M34 185 L36 183 L62 183 L64 186 L63 187 L35 187 Z M36 179 L37 178 L61 178 L62 180 L61 181 L37 181 Z M50 170 L52 171 L51 176 L49 175 Z M39 170 L42 168 L46 169 L47 171 L40 172 Z M53 168 L55 167 L59 169 L60 171 L54 172 Z M49 143 L52 144 L51 150 L47 148 L47 145 Z M47 136 L48 140 L45 144 L46 151 L43 152 L43 154 L47 154 L48 152 L55 154 L57 157 L54 158 L53 164 L51 166 L47 166 L46 159 L43 159 L42 156 L40 156 L39 168 L36 170 L35 177 L33 178 L32 173 L35 147 L37 143 L43 137 Z M56 132 L68 132 L69 133 L69 152 L68 153 L66 152 L66 148 L63 141 L61 141 L64 149 L64 155 L66 157 L67 180 L70 181 L69 191 L67 190 L66 183 L64 181 L62 168 L60 166 L60 157 L54 151 L54 143 L52 142 L51 138 L52 136 L58 138 L58 136 L55 134 Z M44 132 L45 134 L36 140 L33 150 L31 151 L30 150 L31 133 L32 132 Z M31 128 L32 127 L69 127 L70 129 L69 130 L32 130 Z M459 124 L456 127 L462 127 L463 129 L453 129 L453 138 L457 135 L463 138 L452 142 L441 155 L440 153 L445 144 L442 146 L436 158 L434 177 L436 185 L442 194 L448 197 L471 197 L476 195 L484 184 L485 165 L482 154 L475 145 L477 141 L467 134 L467 130 L463 125 Z M465 193 L470 192 L471 194 L466 195 Z M448 193 L453 192 L454 194 L449 195 Z M471 193 L474 190 L476 191 L473 194 Z M480 184 L481 186 L477 190 L476 188 Z M438 184 L440 183 L442 187 L448 193 L447 194 L444 193 L440 189 Z M479 182 L481 181 L482 183 L480 184 Z M437 180 L439 179 L440 182 L438 183 Z M480 175 L482 174 L483 177 L481 178 Z M437 170 L439 171 L438 175 L436 174 Z M481 166 L483 167 L482 171 L480 170 Z M437 163 L439 162 L440 164 L438 165 Z M478 157 L480 156 L481 158 L479 159 Z M469 140 L476 146 L479 152 L477 154 L472 147 L470 148 L475 154 L478 164 L478 181 L476 187 L471 190 L449 190 L443 185 L441 178 L441 166 L444 155 L454 143 L461 141 L467 144 L467 141 Z M119 90 L123 105 L134 112 L374 112 L383 108 L388 99 L386 82 L373 74 L135 74 L126 78 Z M338 95 L343 97 L342 99 L340 99 L339 103 L337 102 L336 98 Z M309 95 L311 96 L310 100 L308 99 Z M307 89 L309 88 L310 90 L308 91 Z"/></svg>
