<svg xmlns="http://www.w3.org/2000/svg" width="512" height="512" viewBox="0 0 512 512" aria-hidden="true" focusable="false"><path fill="currentColor" fill-rule="evenodd" clip-rule="evenodd" d="M259 17 L247 62 L249 80 L238 98 L236 113 L261 148 L260 165 L248 179 L251 151 L237 126 L227 120 L223 153 L210 170 L213 185 L206 178 L193 203 L195 221 L207 238 L210 273 L238 309 L234 312 L224 300 L206 290 L198 278 L188 284 L186 274 L201 268 L203 250 L187 228 L186 210 L176 203 L178 215 L162 270 L167 289 L182 306 L180 323 L160 308 L127 305 L141 319 L151 357 L130 356 L111 363 L148 393 L169 400 L161 413 L150 416 L158 425 L186 431 L220 418 L227 434 L237 443 L229 455 L214 457 L206 451 L210 440 L216 442 L214 450 L221 445 L220 439 L212 435 L195 444 L191 437 L189 444 L193 449 L200 447 L213 462 L225 462 L238 454 L238 468 L252 484 L255 496 L274 468 L274 454 L284 461 L298 462 L323 444 L321 437 L317 444 L300 435 L292 439 L291 445 L298 450 L297 441 L306 443 L301 456 L280 453 L275 443 L292 418 L322 430 L352 426 L362 416 L351 413 L342 400 L364 393 L388 370 L401 365 L388 357 L362 357 L371 319 L384 305 L355 307 L332 323 L330 306 L349 278 L349 259 L341 246 L342 233 L334 215 L336 203 L326 210 L322 224 L310 202 L316 183 L306 168 L306 146 L303 144 L302 154 L290 166 L292 142 L276 109 L276 97 L264 111 L270 75 L261 56 L263 31 Z M265 453 L270 461 L269 468 L255 482 L252 476 L244 470 L242 464 L243 458 L247 454 L249 454 L253 458 L255 463 L257 463 L259 458 Z M268 449 L270 448 L272 451 L270 452 Z M243 448 L244 450 L241 452 L240 450 Z M236 399 L238 400 L234 408 L234 415 L236 421 L253 438 L255 442 L257 442 L259 438 L276 421 L278 415 L278 408 L274 400 L275 399 L278 400 L286 410 L287 418 L284 426 L257 453 L255 453 L244 441 L238 437 L227 424 L225 417 L226 410 L228 406 Z M254 396 L258 396 L266 399 L272 405 L274 411 L274 414 L271 420 L257 434 L255 434 L241 420 L238 413 L239 407 L242 402 Z M281 396 L284 395 L291 398 L315 401 L325 406 L329 410 L330 408 L322 401 L302 394 L303 392 L322 393 L334 399 L341 406 L350 420 L343 424 L333 424 L323 420 L322 424 L304 421 L293 412 L288 403 Z M231 396 L225 402 L220 411 L208 421 L189 425 L189 420 L180 424 L169 424 L162 420 L172 405 L178 399 L187 394 L195 392 L209 393 L205 397 L200 397 L192 400 L184 407 L187 407 L201 400 L222 398 L228 395 Z M319 384 L322 381 L324 382 L321 385 Z M388 363 L370 382 L355 392 L349 394 L337 394 L336 393 L337 391 L346 389 L354 384 L361 378 L361 376 L345 385 L335 388 L332 387 L333 385 L346 377 L355 367 L362 363 L369 361 L382 361 Z M125 363 L129 361 L143 361 L150 363 L157 367 L166 377 L179 385 L180 387 L176 388 L160 382 L156 378 L152 377 L152 379 L159 385 L176 392 L175 394 L158 393 L148 387 L125 365 Z M255 319 L272 336 L281 358 L280 371 L274 383 L267 389 L257 392 L247 390 L238 383 L231 365 L232 354 L238 339 Z M143 309 L160 313 L167 318 L175 327 L178 335 L178 353 L180 361 L184 368 L183 370 L177 364 L172 354 L170 343 L166 333 L160 326 L152 323 L153 326 L155 326 L161 332 L169 357 L174 367 L184 378 L191 382 L190 384 L176 378 L159 361 L152 347 L147 321 L142 312 Z M370 308 L371 310 L365 321 L361 343 L355 358 L340 375 L325 383 L324 381 L339 366 L343 358 L350 334 L357 326 L359 326 L360 323 L352 326 L346 333 L342 343 L340 354 L334 366 L330 369 L329 367 L334 353 L335 332 L337 327 L345 318 L352 313 Z M324 306 L330 338 L329 353 L323 368 L316 377 L298 388 L297 386 L306 378 L313 367 L316 352 L314 351 L312 361 L303 376 L290 385 L289 383 L296 372 L298 364 L298 352 L294 340 L294 333 L299 323 L315 309 Z M188 306 L191 306 L204 314 L213 323 L218 332 L219 337 L214 352 L214 363 L217 374 L224 384 L223 386 L213 380 L206 372 L200 361 L198 350 L196 351 L196 357 L199 367 L213 386 L211 387 L197 378 L186 362 L182 338 Z M255 297 L261 301 L280 323 L292 347 L292 368 L288 377 L280 386 L278 384 L285 370 L284 350 L274 331 L261 317 L257 310 L255 310 L251 317 L239 330 L229 347 L227 354 L227 369 L233 383 L232 385 L226 380 L220 368 L219 352 L222 341 L235 319 Z M316 287 L319 294 L319 303 L304 312 L296 319 L292 327 L289 329 L282 319 L283 313 L292 303 L306 296 Z M196 287 L206 296 L220 303 L229 313 L230 319 L223 329 L220 327 L218 322 L215 320 L215 318 L204 309 L193 303 L193 293 Z M231 284 L234 283 L241 287 L253 287 L254 290 L248 298 L243 302 L236 294 Z M285 272 L287 271 L288 273 L286 274 Z M172 251 L174 250 L175 252 L173 253 Z M339 248 L341 247 L342 249 L340 250 Z M255 234 L258 234 L261 239 L264 239 L275 249 L281 264 L281 275 L279 283 L275 292 L268 301 L263 297 L256 287 L266 275 L266 259 L261 253 L254 251 L248 254 L246 258 L247 265 L245 266 L242 264 L240 258 L241 248 Z M323 224 L325 225 L324 229 L322 228 Z M292 222 L296 227 L299 237 L301 239 L302 257 L299 264 L297 274 L291 284 L289 285 L288 283 L291 278 L295 265 L295 246 L290 234 L287 231 L289 227 L289 223 Z M330 218 L333 222 L337 233 L337 242 L332 251 L331 256 L332 259 L342 257 L344 259 L345 270 L344 277 L338 291 L330 299 L325 301 L324 293 L328 288 L331 279 L330 270 L328 265 L326 264 L322 269 L317 268 L314 263 L313 255 L315 246 L329 230 L328 219 Z M182 218 L184 219 L183 230 L195 243 L198 249 L198 255 L200 257 L195 268 L190 269 L186 264 L184 265 L182 270 L181 278 L183 286 L188 293 L187 301 L182 299 L174 291 L167 270 L168 259 L170 257 L176 259 L180 259 L181 257 L180 251 L175 242 L175 233 L179 222 Z M290 166 L293 180 L285 188 L281 185 L268 199 L264 209 L264 216 L268 225 L272 229 L282 232 L289 242 L291 250 L289 270 L286 270 L285 259 L281 249 L262 232 L257 221 L255 221 L252 230 L238 244 L235 259 L240 269 L250 272 L256 268 L256 262 L253 264 L250 262 L250 258 L255 255 L262 262 L262 271 L255 281 L241 282 L231 275 L225 261 L224 250 L229 231 L240 214 L254 200 L274 185 Z M303 161 L303 171 L310 181 L311 190 L301 200 L301 205 L305 201 L307 202 L318 230 L318 236 L310 247 L309 263 L316 273 L325 273 L326 279 L324 284 L321 285 L314 278 L312 284 L306 290 L288 300 L277 312 L273 307 L282 301 L297 283 L304 267 L306 253 L304 235 L298 222 L293 217 L285 215 L281 217 L285 221 L284 225 L278 227 L269 217 L269 208 L278 195 L287 200 L289 190 L297 182 L295 168 Z M233 134 L236 141 L246 152 L248 159 L247 167 L243 172 L237 169 L236 163 L233 164 L232 169 L234 173 L238 175 L237 184 L234 191 L215 217 L210 230 L207 231 L199 217 L199 198 L205 187 L214 192 L218 190 L215 170 L221 159 L227 160 L227 141 Z M256 55 L266 81 L259 100 L259 110 L265 121 L272 113 L279 122 L277 135 L286 138 L287 155 L279 173 L239 208 L223 233 L220 243 L220 261 L230 291 L228 293 L216 276 L211 260 L210 246 L215 228 L222 215 L257 179 L267 160 L264 142 L246 124 L241 112 L242 101 L253 83 L252 61 Z"/></svg>
