<svg xmlns="http://www.w3.org/2000/svg" width="512" height="512" viewBox="0 0 512 512" aria-hidden="true" focusable="false"><path fill="currentColor" fill-rule="evenodd" clip-rule="evenodd" d="M352 401 L349 404 L347 416 L334 430 L330 445 L330 458 L336 477 L347 485 L360 486 L370 481 L376 473 L379 462 L379 441 L373 425 L362 412 L361 403 Z M355 420 L365 423 L369 427 L375 448 L374 463 L370 474 L365 479 L359 481 L348 480 L340 474 L335 460 L337 435 L346 422 Z M307 396 L305 399 L307 403 L300 405 L290 419 L290 485 L326 485 L327 421 L323 412 Z M310 407 L315 413 L320 413 L319 417 L322 423 L322 479 L293 480 L292 450 L295 449 L295 441 L292 440 L292 428 L295 427 L295 421 L300 413 Z M309 404 L311 403 L312 406 L310 407 Z M262 389 L245 400 L238 411 L238 478 L240 484 L245 487 L277 487 L283 484 L285 479 L285 410 L281 402 L272 399 Z M249 407 L273 407 L277 411 L278 475 L274 480 L249 480 L245 475 L245 414 Z M260 392 L262 391 L263 394 L261 395 Z M420 385 L417 388 L414 405 L411 406 L394 445 L394 459 L397 467 L403 474 L411 478 L418 490 L429 477 L441 468 L445 459 L443 439 L421 396 Z M422 479 L423 481 L420 485 L416 483 L417 481 L420 481 Z M423 470 L425 471 L424 475 L422 474 Z M434 466 L432 469 L424 468 L425 466 L432 465 Z M421 463 L424 462 L425 465 L423 466 Z M431 458 L433 457 L436 462 L434 463 Z M406 457 L408 458 L406 461 L406 464 L408 466 L412 466 L412 464 L415 463 L416 465 L414 468 L407 469 L403 465 L403 461 Z M439 456 L443 458 L440 463 L438 462 L437 459 Z M399 456 L401 457 L400 463 L397 461 Z M426 455 L428 454 L429 457 L427 458 Z M439 446 L442 449 L440 453 L437 452 Z M398 445 L401 447 L402 450 L400 454 L397 452 Z M408 444 L416 450 L418 455 L417 457 L412 452 L409 451 L409 448 L407 447 Z M431 443 L434 447 L430 451 L427 452 L426 455 L421 457 L420 456 L421 450 L426 448 Z M419 441 L423 444 L420 447 L417 445 Z M400 442 L402 441 L403 443 L401 444 Z M430 441 L433 440 L434 442 L431 443 Z M437 440 L439 439 L440 441 L438 442 Z M406 437 L410 438 L408 444 L405 441 Z M428 436 L431 435 L432 437 L429 438 Z M420 436 L422 435 L423 438 L421 439 Z M434 433 L436 432 L437 435 L435 436 Z M402 433 L404 432 L405 435 L403 436 Z M417 431 L420 430 L421 432 L418 433 Z M417 426 L418 428 L416 429 L414 434 L411 435 L410 433 L414 427 Z M422 425 L429 433 L428 436 L424 434 L421 427 Z M427 424 L429 423 L430 425 L428 426 Z M407 423 L409 422 L410 424 L408 425 Z M411 414 L414 415 L413 420 L411 420 L409 417 Z M428 413 L429 418 L425 422 L423 418 L425 414 Z M415 413 L417 412 L418 414 L416 415 Z M419 402 L423 404 L422 406 L422 410 L424 413 L423 415 L420 413 L420 411 L417 410 L416 404 Z M471 377 L467 383 L466 392 L472 405 L467 407 L465 404 L466 400 L462 403 L461 412 L463 420 L457 429 L455 441 L457 448 L465 458 L457 466 L457 471 L460 473 L464 468 L469 469 L471 479 L468 480 L465 477 L463 483 L467 487 L474 488 L484 484 L491 475 L493 467 L493 443 L482 448 L480 451 L479 460 L482 464 L480 468 L474 458 L476 452 L475 449 L470 447 L469 439 L473 433 L478 433 L480 436 L476 437 L476 441 L478 443 L486 442 L492 433 L492 416 L486 417 L488 405 L480 396 L478 388 L473 387 L473 377 Z M470 482 L471 479 L476 480 L473 483 Z M486 474 L487 478 L483 480 L482 478 Z M481 471 L482 473 L480 477 L478 478 L477 477 L478 472 Z M473 463 L476 465 L474 467 L475 469 L474 472 L469 469 L469 467 L472 466 Z M464 463 L466 462 L467 465 L465 466 Z M486 460 L489 459 L490 462 L487 463 Z M469 456 L472 458 L471 463 L468 460 Z M490 448 L491 452 L486 456 L483 456 L482 452 Z M461 441 L463 440 L464 442 L462 443 Z M460 434 L461 437 L458 440 L457 438 L458 435 Z M484 433 L486 432 L487 435 L485 436 Z M465 430 L467 429 L468 432 L466 433 Z M471 431 L474 428 L478 429 L477 431 L473 432 Z M461 426 L463 425 L464 428 L462 429 Z M470 424 L471 427 L468 429 L467 427 Z M487 423 L489 424 L490 427 L489 430 L485 428 Z M482 413 L484 414 L484 418 L480 419 L479 417 Z M463 412 L468 411 L470 413 L471 418 L469 419 Z M481 406 L485 405 L486 410 L483 411 Z M469 392 L470 391 L476 392 L477 394 L475 395 L475 397 L479 395 L481 399 L481 403 L476 404 L470 397 Z M60 367 L54 372 L55 383 L31 420 L20 459 L20 480 L33 489 L89 489 L103 479 L101 447 L92 418 L70 383 L71 371 Z M57 482 L60 481 L61 483 L58 484 Z M67 466 L70 465 L71 468 L68 469 Z M51 467 L53 465 L56 465 L57 469 L54 470 Z M81 464 L83 465 L82 468 L79 467 Z M75 464 L77 465 L76 469 L73 468 Z M61 464 L65 467 L62 470 L59 469 L59 466 Z M45 465 L47 464 L49 468 L46 469 Z M39 465 L42 464 L43 467 L40 468 Z M28 461 L29 463 L26 465 L25 463 Z M81 454 L80 460 L78 461 L70 460 L70 457 L72 455 L78 453 Z M41 456 L44 453 L53 456 L53 460 L45 461 L41 458 Z M70 452 L73 449 L77 450 L76 452 L72 453 Z M59 449 L64 448 L65 450 L60 451 Z M46 449 L51 448 L54 452 L53 453 L48 452 Z M29 446 L31 445 L32 447 L30 448 Z M35 433 L37 432 L38 434 L36 435 Z M87 430 L89 429 L90 432 L88 433 Z M48 433 L56 425 L58 426 L58 428 L66 428 L68 426 L72 428 L75 433 L76 444 L68 449 L67 447 L70 444 L71 434 L69 434 L68 440 L64 445 L58 445 L55 435 L53 435 L53 438 L51 439 L51 441 L56 448 L55 449 L51 448 L46 443 Z M40 423 L41 426 L38 428 L37 425 Z M57 397 L69 397 L68 401 L72 406 L78 419 L89 456 L90 470 L88 474 L86 473 L83 454 L81 454 L79 450 L77 433 L75 429 L71 426 L72 417 L66 406 L64 406 L64 410 L69 415 L69 422 L67 423 L67 425 L58 426 L55 422 L55 414 L59 412 L62 404 L59 405 L53 414 L53 425 L46 432 L43 451 L39 454 L39 461 L37 464 L36 472 L33 472 L34 457 L39 436 L46 417 L56 402 L55 399 Z M50 394 L53 393 L54 396 L51 397 Z M72 392 L75 393 L73 397 L71 396 Z M57 392 L59 391 L60 394 L58 395 Z M58 384 L59 385 L58 390 L55 391 L53 388 Z M55 378 L57 377 L58 379 L56 380 Z M60 374 L64 373 L66 377 L61 378 Z M169 360 L141 401 L144 406 L134 409 L127 453 L129 478 L134 485 L172 496 L211 481 L214 449 L206 407 L194 398 L189 384 Z M181 483 L183 482 L184 484 L182 485 Z M155 484 L157 482 L161 482 L163 485 L156 486 Z M165 480 L167 479 L168 481 L166 482 Z M206 478 L208 479 L207 483 L204 482 Z M138 479 L140 478 L141 480 L139 481 Z M133 479 L135 478 L136 481 L134 482 Z M193 480 L196 477 L198 477 L202 480 L202 483 L200 484 L198 481 L194 482 Z M201 471 L203 470 L204 472 L202 473 Z M137 471 L139 470 L140 472 L138 473 Z M198 463 L200 464 L199 471 L197 470 Z M206 462 L211 461 L212 463 L208 465 Z M130 462 L134 461 L135 464 L132 465 Z M137 457 L140 458 L139 463 L136 460 Z M132 455 L134 454 L135 456 L133 457 Z M210 448 L212 452 L206 454 L206 457 L204 460 L205 465 L203 466 L200 461 L201 456 L205 451 Z M128 451 L131 448 L134 452 L129 453 Z M130 441 L132 440 L133 442 L131 443 Z M208 440 L210 439 L211 441 L209 442 Z M135 425 L137 424 L138 427 L136 428 Z M139 421 L142 420 L143 422 L140 423 Z M135 417 L138 416 L139 418 L136 419 Z M200 407 L202 406 L203 408 L201 409 Z M170 393 L178 397 L185 408 L194 407 L196 422 L200 423 L199 457 L197 456 L197 427 L195 428 L195 471 L189 476 L173 476 L172 479 L168 476 L152 476 L145 471 L145 414 Z M186 393 L189 392 L191 395 L188 396 Z M162 392 L163 395 L156 399 L155 396 Z M174 392 L177 390 L178 392 L184 395 L185 398 L183 399 L175 394 Z M152 391 L154 390 L155 392 L153 393 Z M156 383 L157 386 L154 388 L153 386 Z M176 377 L178 376 L179 378 L177 379 Z M173 369 L172 373 L169 373 L168 375 L164 374 L169 368 Z M428 317 L425 319 L426 329 L427 328 L426 321 L429 319 Z M435 312 L433 312 L431 316 L433 316 Z M443 305 L437 308 L437 310 L440 310 L443 307 Z M310 300 L306 303 L308 304 Z M175 280 L173 280 L171 297 L173 296 Z M188 203 L181 209 L182 220 L144 259 L142 272 L147 282 L145 326 L149 337 L191 351 L230 336 L234 320 L231 283 L237 263 L198 220 L198 207 Z M191 334 L193 333 L194 335 L192 336 Z M185 334 L187 333 L190 334 L191 336 L188 337 Z M195 329 L198 328 L199 330 L196 331 Z M206 328 L208 327 L209 329 L207 330 Z M177 329 L180 327 L183 330 L178 331 Z M170 328 L172 327 L173 329 L171 330 Z M212 327 L214 326 L215 328 L213 329 Z M164 327 L166 326 L167 328 L165 329 Z M211 321 L213 320 L214 322 L212 323 Z M204 321 L208 320 L209 322 L205 323 Z M197 320 L200 320 L202 322 L199 326 L195 324 Z M185 322 L190 320 L193 323 L188 325 Z M170 321 L171 320 L181 320 L183 323 L180 325 L174 325 Z M165 321 L167 320 L168 322 L166 323 Z M215 309 L212 314 L202 313 L201 315 L198 315 L195 313 L196 311 L209 306 L212 306 Z M190 310 L193 306 L198 307 L197 309 L192 311 Z M163 309 L167 305 L169 305 L170 307 L178 307 L182 309 L183 312 L180 315 L178 314 L178 312 L167 314 L164 312 Z M205 296 L206 298 L200 302 L199 299 L202 296 Z M188 291 L189 298 L187 300 L183 300 L182 298 L184 297 L184 293 Z M199 277 L203 278 L205 281 L206 287 L205 294 L200 292 L201 281 L200 281 L199 287 L198 288 L195 287 L197 279 Z M196 269 L198 268 L199 270 L197 271 Z M233 268 L235 267 L236 269 L234 270 Z M197 264 L199 263 L200 266 L198 267 Z M185 262 L191 261 L192 264 L191 265 L186 264 Z M193 254 L195 253 L196 256 L194 257 Z M221 253 L223 252 L224 254 L222 255 Z M189 245 L191 244 L192 246 L190 247 Z M193 229 L195 231 L194 234 L213 253 L218 253 L219 256 L217 258 L220 261 L224 261 L222 263 L223 272 L219 277 L221 323 L217 324 L216 306 L207 302 L209 296 L207 281 L200 274 L204 262 L191 236 L189 236 L177 257 L175 266 L179 272 L176 278 L186 274 L192 275 L188 283 L190 287 L186 289 L178 284 L176 295 L179 300 L173 299 L172 302 L163 306 L163 315 L160 317 L162 323 L159 325 L157 322 L157 305 L160 278 L156 271 L157 260 L161 260 L167 254 L164 250 L182 233 L187 234 Z M200 227 L202 226 L203 228 L201 229 Z M188 211 L192 210 L193 212 L189 213 Z M188 206 L190 205 L191 207 L189 208 Z M312 199 L305 206 L308 217 L295 230 L285 233 L283 243 L273 243 L269 248 L270 278 L261 301 L261 318 L268 333 L275 331 L274 339 L316 357 L363 332 L369 303 L360 278 L360 247 L324 219 L324 203 Z M309 346 L311 345 L312 347 L310 348 Z M313 342 L315 341 L316 343 L314 344 Z M324 341 L326 340 L327 342 L325 343 Z M319 341 L321 340 L322 342 L320 343 Z M288 340 L290 339 L292 342 L290 343 Z M307 338 L309 339 L308 344 L306 343 Z M314 336 L316 335 L317 338 L315 339 Z M309 335 L311 334 L312 336 L310 337 Z M290 335 L292 334 L293 336 L291 337 Z M317 334 L319 333 L320 335 L318 336 Z M272 324 L275 325 L273 329 L271 328 Z M280 323 L282 324 L281 328 L279 327 Z M349 322 L351 323 L352 326 L351 328 L347 327 L347 324 Z M354 321 L356 320 L361 325 L357 327 L354 324 Z M350 317 L352 316 L353 318 L351 319 Z M345 302 L349 315 L349 320 L345 324 L340 323 L337 325 L336 322 L339 319 L339 316 L342 315 L343 311 L341 311 L340 308 Z M324 292 L327 291 L328 293 L325 294 Z M310 286 L311 289 L315 288 L318 291 L314 298 L318 295 L321 296 L318 301 L318 304 L313 306 L313 308 L316 309 L316 317 L312 317 L312 319 L315 320 L314 327 L318 332 L313 333 L312 331 L306 333 L305 331 L297 331 L295 333 L294 327 L291 326 L291 324 L293 323 L293 315 L295 314 L295 312 L291 313 L290 323 L285 325 L282 321 L285 300 L290 294 L302 289 L307 289 L307 287 Z M327 285 L330 287 L339 289 L341 293 L338 300 L334 324 L336 325 L336 331 L334 333 L330 331 L325 331 L325 333 L323 334 L316 327 L316 323 L318 320 L321 320 L323 309 L320 308 L322 298 L324 295 L326 296 L330 294 L328 292 L328 289 L325 287 Z M317 283 L318 280 L322 281 L319 284 Z M309 281 L312 280 L314 284 L311 285 Z M350 272 L353 271 L354 273 L351 274 Z M325 269 L326 272 L324 277 L321 278 L320 272 L322 269 Z M303 266 L305 265 L307 268 L315 268 L318 273 L317 274 L310 273 L309 274 L312 277 L311 278 L307 277 L303 272 Z M323 264 L325 263 L326 266 L324 267 Z M311 262 L318 261 L319 264 L312 266 Z M354 256 L356 255 L357 257 L355 258 Z M353 252 L355 251 L356 254 L354 255 Z M277 248 L278 249 L277 257 L274 259 L273 254 L275 249 Z M355 246 L357 245 L358 247 L356 248 Z M344 246 L346 245 L350 247 L351 249 L349 250 L345 248 Z M340 242 L342 241 L345 245 L343 246 Z M284 246 L287 243 L291 245 L301 238 L316 234 L324 238 L330 238 L342 249 L350 252 L352 260 L349 267 L349 278 L359 310 L350 314 L347 298 L342 288 L326 282 L332 271 L327 252 L327 257 L321 259 L320 262 L317 257 L314 257 L311 262 L307 262 L306 265 L302 262 L302 256 L307 249 L319 248 L324 250 L319 246 L311 246 L302 252 L300 263 L297 266 L305 285 L284 297 L280 314 L272 311 L272 300 L282 276 L278 258 L279 254 L286 250 Z M318 218 L320 217 L321 220 L319 221 Z M309 217 L313 216 L314 219 L317 220 L318 222 L314 225 L312 221 L308 220 Z M313 214 L315 213 L316 215 L314 216 Z M311 208 L313 206 L317 206 L318 210 L312 211 Z M440 197 L433 202 L431 217 L413 231 L402 247 L394 274 L393 299 L405 336 L426 351 L448 353 L461 349 L478 335 L488 310 L489 279 L480 246 L470 231 L454 219 L449 200 Z M445 348 L447 347 L448 349 L446 350 Z M427 343 L430 342 L432 345 L430 346 Z M420 342 L422 341 L423 343 L421 344 Z M434 339 L436 338 L437 340 L435 341 Z M439 330 L442 329 L443 332 L440 333 Z M399 315 L401 314 L402 316 L400 317 Z M470 313 L472 312 L473 314 L471 315 Z M471 304 L473 303 L475 306 L472 307 Z M466 297 L470 300 L468 306 L466 317 L462 319 L461 321 L459 321 L459 323 L461 324 L460 332 L455 336 L450 336 L443 327 L445 324 L448 324 L449 318 L446 317 L450 306 L454 308 L453 312 L455 312 L456 307 L454 305 L456 302 L458 302 L460 296 Z M446 296 L448 295 L449 298 L447 299 Z M453 295 L456 294 L457 296 L454 297 Z M434 294 L436 296 L436 299 L441 297 L442 302 L444 302 L446 299 L449 302 L446 306 L446 311 L443 314 L443 318 L439 319 L438 321 L440 323 L440 326 L435 333 L430 337 L424 334 L422 330 L418 328 L419 325 L415 324 L414 318 L410 316 L407 307 L411 303 L417 302 L418 305 L416 306 L415 311 L417 312 L419 305 L425 307 L428 306 L421 304 L419 301 L427 297 L431 298 L432 295 Z M429 284 L431 283 L432 286 L430 287 Z M396 278 L399 277 L400 281 L397 282 Z M426 269 L428 268 L429 270 L427 271 Z M447 249 L450 250 L454 256 L452 260 L452 264 L454 268 L452 269 L449 267 L449 265 L444 265 L444 272 L450 272 L451 274 L455 274 L456 276 L452 281 L453 283 L452 288 L445 294 L439 295 L432 289 L436 287 L438 290 L443 290 L445 287 L447 287 L447 285 L435 285 L434 282 L435 281 L439 282 L447 281 L446 277 L443 276 L441 280 L435 277 L434 281 L430 282 L427 278 L427 275 L430 274 L431 272 L440 273 L440 270 L437 269 L437 265 L435 265 L434 263 L437 261 L439 263 L442 263 L443 261 L448 262 L448 260 L445 260 L444 258 L437 258 L436 260 L434 260 L434 263 L430 265 L428 256 L433 250 Z M467 242 L470 244 L468 247 L465 245 Z M470 240 L472 239 L473 241 L471 242 Z M412 239 L413 241 L410 243 L409 241 Z M469 251 L477 275 L476 300 L453 290 L463 274 L463 269 L459 266 L459 256 L452 247 L445 244 L438 244 L432 246 L425 252 L423 266 L420 267 L419 270 L420 276 L427 285 L430 293 L421 298 L409 302 L406 301 L406 271 L410 258 L415 251 L414 247 L418 243 L422 244 L433 238 L444 237 L457 241 Z M439 231 L441 230 L442 233 L440 234 Z M434 231 L436 230 L437 232 L435 233 Z M423 227 L424 230 L421 232 L420 229 Z M428 227 L430 226 L431 228 L429 229 Z M441 219 L445 223 L444 227 L438 226 L438 223 Z M439 205 L443 204 L445 207 L440 208 Z M436 202 L438 201 L439 203 L437 204 Z M68 196 L61 200 L61 210 L42 227 L31 245 L23 275 L23 308 L36 342 L49 349 L72 352 L91 348 L107 335 L114 312 L115 279 L102 236 L77 210 L77 201 Z M53 346 L55 345 L56 347 L54 348 Z M80 346 L83 344 L85 347 L81 348 Z M46 344 L49 343 L50 345 L47 346 Z M65 334 L72 333 L73 335 L71 337 L67 337 Z M86 333 L88 332 L89 334 L87 335 Z M76 334 L79 332 L82 333 L83 335 L77 336 Z M56 334 L59 332 L61 333 L60 336 L57 336 Z M47 333 L51 332 L52 334 L48 335 Z M78 323 L82 324 L83 327 L81 329 L76 328 L76 325 Z M64 326 L67 323 L71 323 L74 326 L74 329 L65 330 Z M56 324 L60 323 L62 325 L62 328 L57 329 Z M93 323 L97 322 L99 325 L95 327 Z M84 324 L90 322 L92 326 L90 329 L86 329 Z M49 322 L54 324 L54 328 L52 330 L47 327 L47 324 Z M40 323 L44 322 L45 326 L41 327 Z M72 320 L74 319 L75 322 L73 323 Z M99 315 L101 314 L102 317 L100 318 Z M108 314 L110 313 L111 315 L109 316 Z M79 309 L78 311 L75 311 L72 313 L70 312 L74 308 Z M98 310 L98 313 L93 317 L87 317 L83 315 L78 317 L75 315 L76 313 L83 310 L90 309 L91 307 L95 307 Z M40 310 L43 307 L47 306 L48 308 L50 308 L52 306 L53 309 L59 309 L66 315 L57 317 L54 314 L51 315 L50 317 L45 317 L40 313 Z M72 304 L74 303 L75 305 L73 306 Z M61 304 L64 303 L65 305 L62 306 Z M110 289 L112 288 L113 290 L111 291 Z M86 284 L88 286 L89 298 L85 302 L81 303 L80 300 L83 297 L82 290 L84 285 Z M110 281 L112 280 L113 282 L111 283 Z M84 279 L86 280 L85 284 L83 283 Z M78 279 L80 281 L79 288 L76 290 L75 285 L76 280 Z M65 261 L67 262 L66 267 L64 266 Z M65 257 L72 256 L73 258 L70 261 L68 261 Z M70 239 L72 238 L73 241 L71 242 Z M67 238 L68 239 L64 251 L62 252 L60 256 L61 268 L58 269 L57 265 L53 263 L56 260 L55 254 L58 253 L58 248 L61 247 L61 244 Z M71 227 L80 230 L88 237 L91 236 L93 238 L92 242 L94 243 L100 256 L105 280 L105 302 L102 314 L100 313 L99 307 L88 303 L90 299 L88 279 L84 274 L81 273 L86 264 L86 257 L82 257 L84 260 L84 264 L81 265 L82 268 L78 271 L76 270 L78 265 L78 257 L76 252 L73 250 L72 244 L75 243 L77 245 L77 247 L80 249 L80 253 L84 254 L84 250 L71 232 Z M67 227 L68 229 L58 243 L53 253 L52 264 L58 273 L53 275 L49 280 L48 299 L50 300 L50 287 L52 279 L55 276 L71 272 L72 275 L68 281 L70 284 L68 290 L69 300 L60 300 L63 297 L61 294 L63 293 L62 290 L64 288 L60 288 L56 283 L55 297 L59 303 L56 304 L52 301 L50 304 L40 306 L38 309 L39 317 L37 318 L33 304 L33 277 L36 262 L46 240 L58 230 Z M89 227 L91 226 L92 228 L90 229 Z M66 216 L67 218 L64 221 L63 219 Z M70 216 L72 215 L73 218 L71 219 Z M66 204 L70 203 L71 205 L67 206 Z M63 201 L65 200 L66 202 L64 203 Z M326 127 L326 130 L329 130 L329 127 Z M346 114 L345 116 L348 118 Z M310 113 L308 114 L306 118 L307 120 Z M443 25 L438 41 L426 43 L423 49 L410 49 L404 55 L404 172 L409 178 L485 178 L491 170 L490 54 L457 40 L455 28 Z M475 159 L474 162 L421 162 L420 161 L421 159 L472 159 L473 158 Z M423 153 L424 152 L470 152 L471 156 L470 157 L424 157 Z M427 147 L428 143 L468 143 L469 144 L467 148 L428 148 Z M427 136 L428 135 L466 135 L467 137 L465 139 L429 139 Z M430 130 L431 127 L464 127 L465 128 L463 131 L431 131 Z M431 119 L434 116 L437 116 L438 118 L443 120 L446 119 L451 120 L456 118 L457 116 L461 116 L464 119 L464 122 L463 123 L432 123 Z M437 112 L439 111 L440 113 L438 114 Z M446 95 L449 95 L457 99 L456 101 L452 103 L451 112 L454 115 L450 118 L443 118 L439 115 L440 113 L443 112 L443 105 L441 101 L438 101 L437 99 L444 97 Z M449 67 L454 67 L461 70 L468 76 L471 85 L474 120 L474 149 L473 150 L470 149 L471 144 L468 140 L469 134 L467 133 L467 125 L465 124 L466 119 L464 116 L459 113 L459 99 L457 99 L456 96 L453 94 L454 87 L449 78 L448 73 Z M478 59 L480 61 L479 101 L477 100 L477 89 L473 76 L465 67 L454 62 L440 62 L431 66 L432 71 L442 67 L446 68 L444 81 L449 81 L452 88 L446 93 L442 89 L443 84 L441 84 L441 94 L435 99 L435 113 L429 118 L425 148 L421 150 L420 130 L422 93 L424 84 L429 75 L424 73 L419 82 L417 110 L415 111 L414 62 L417 59 Z M410 51 L421 52 L420 54 L413 55 L413 57 L410 58 L409 61 L409 167 L411 168 L411 171 L415 173 L480 173 L484 170 L485 59 L482 55 L474 54 L473 52 L484 51 L488 54 L488 173 L485 176 L411 176 L407 174 L406 57 Z M464 47 L466 46 L467 48 L465 49 Z M428 47 L430 46 L431 48 L429 49 Z M450 44 L452 43 L453 45 L451 46 Z M444 42 L445 44 L442 47 L441 44 Z M444 33 L448 31 L451 35 L450 36 L445 35 Z M325 17 L316 27 L319 42 L295 64 L284 87 L278 134 L280 169 L284 176 L298 180 L363 179 L373 173 L376 161 L372 91 L361 65 L336 42 L337 22 Z M321 176 L323 175 L324 177 L322 178 Z M358 175 L361 174 L362 176 L359 177 Z M352 174 L354 173 L355 175 L353 176 Z M343 166 L348 165 L349 167 L344 168 Z M334 166 L336 165 L337 167 L335 168 Z M317 166 L320 165 L321 167 L318 168 Z M351 165 L354 164 L355 166 L352 167 Z M355 164 L357 163 L358 165 L356 166 Z M296 164 L297 163 L311 165 L312 167 L311 168 L297 166 Z M368 162 L372 161 L373 163 L369 164 Z M324 160 L329 159 L330 162 L326 164 Z M334 157 L335 162 L332 164 L331 163 L332 158 Z M324 157 L325 159 L320 162 L319 159 L321 157 Z M284 157 L286 156 L287 158 L285 159 Z M349 158 L348 161 L344 160 L343 163 L338 162 L339 157 L346 155 Z M305 157 L310 155 L316 157 L317 161 L314 163 L311 163 L309 159 L306 159 Z M358 154 L359 158 L352 162 L350 157 Z M326 155 L328 154 L329 156 L327 157 Z M295 154 L297 153 L303 157 L303 160 L300 161 L298 157 L295 156 Z M321 152 L325 150 L330 150 L333 153 L332 154 L329 153 L322 154 Z M299 151 L303 150 L306 151 L307 153 L302 154 Z M358 150 L357 152 L352 153 L351 156 L346 153 L347 151 L355 149 Z M368 149 L370 148 L371 150 L369 151 Z M360 146 L362 145 L363 148 L361 149 Z M292 148 L293 145 L296 146 L294 149 Z M318 134 L320 133 L321 135 L319 136 Z M295 136 L298 133 L301 133 L302 135 L311 135 L322 139 L323 142 L326 143 L326 146 L323 148 L319 148 L315 151 L310 146 L301 148 L296 145 Z M359 134 L360 141 L353 148 L338 150 L331 149 L329 147 L331 144 L335 142 L339 143 L340 139 L348 135 L352 135 L354 132 Z M345 133 L343 136 L333 141 L330 140 L333 133 L338 134 L343 132 Z M346 131 L348 130 L349 132 L347 133 Z M368 126 L370 125 L371 127 L369 128 Z M282 116 L284 115 L285 117 L283 118 Z M370 108 L373 111 L372 114 L367 113 Z M366 103 L368 102 L369 104 L367 105 Z M283 101 L286 100 L289 103 L284 104 Z M362 87 L363 83 L367 84 L364 88 Z M290 83 L291 85 L288 87 L287 85 Z M294 76 L296 75 L297 77 L295 78 Z M294 71 L296 70 L297 72 L295 73 Z M356 67 L358 66 L359 69 L357 70 Z M302 65 L304 64 L305 66 L303 67 Z M319 61 L333 60 L342 66 L344 63 L348 66 L345 69 L355 83 L360 100 L362 134 L351 128 L354 123 L354 115 L349 101 L352 123 L348 128 L341 127 L340 131 L325 134 L314 130 L317 125 L311 128 L304 125 L306 104 L312 98 L317 99 L317 105 L313 107 L313 110 L317 108 L321 102 L319 90 L324 87 L323 82 L327 84 L327 99 L318 123 L327 106 L336 120 L329 101 L329 90 L332 88 L337 91 L334 101 L344 112 L337 102 L338 99 L345 99 L341 95 L343 84 L339 76 L331 70 L321 71 L317 75 L316 81 L313 83 L315 95 L310 97 L303 107 L301 116 L303 128 L292 132 L293 111 L298 88 L306 72 Z M313 61 L315 60 L316 62 L314 63 Z M350 60 L352 59 L353 61 L351 62 Z M338 60 L340 59 L341 61 L339 62 Z M347 57 L349 56 L351 59 L348 60 Z M309 53 L312 52 L313 56 L311 57 Z M338 49 L340 48 L347 55 L346 56 L340 55 Z M316 48 L317 49 L316 52 L313 53 L312 51 Z M328 44 L330 45 L329 50 L331 52 L329 55 L327 54 L326 46 Z M324 26 L329 25 L331 28 L325 29 Z M333 24 L335 23 L336 26 L334 27 Z M321 22 L323 20 L328 19 L332 20 L334 23 L333 24 L331 23 L322 24 Z M198 17 L190 24 L192 35 L181 52 L151 74 L152 100 L139 143 L150 168 L201 192 L255 162 L260 131 L248 100 L249 74 L219 52 L209 36 L210 22 Z M204 184 L207 183 L208 185 L205 186 Z M196 178 L198 177 L201 178 L202 180 L199 181 Z M215 179 L218 176 L220 177 L217 180 Z M208 174 L210 173 L211 175 L209 176 Z M225 174 L226 171 L229 172 L227 175 Z M171 172 L175 171 L178 174 L178 176 L176 177 Z M153 165 L155 164 L156 166 L154 167 Z M176 161 L177 160 L183 161 L185 165 L192 165 L199 171 L201 171 L208 164 L215 165 L217 161 L219 160 L226 164 L226 168 L221 169 L219 171 L217 170 L217 168 L215 168 L199 176 L182 166 L180 166 L180 169 L178 170 L176 167 L178 163 Z M157 160 L159 159 L160 161 L158 162 Z M224 159 L226 158 L227 160 L225 161 Z M173 159 L175 158 L176 160 L174 161 Z M153 156 L155 155 L156 157 L154 158 Z M159 156 L164 154 L165 159 L163 160 Z M146 154 L149 157 L148 160 L145 157 Z M247 156 L244 163 L242 162 L238 164 L236 163 L237 161 L241 159 L240 158 L236 159 L235 158 L236 155 L243 153 Z M173 154 L175 153 L176 155 L174 156 Z M246 153 L248 152 L249 154 L247 155 Z M156 153 L158 152 L159 155 L157 156 Z M150 151 L152 150 L153 152 L151 153 Z M228 149 L230 148 L231 150 L229 151 Z M201 149 L204 148 L205 151 L212 152 L220 151 L221 153 L216 156 L211 155 L210 159 L208 160 L207 156 L204 155 Z M199 149 L196 155 L193 156 L192 158 L189 157 L188 155 L182 155 L176 153 L177 151 L191 152 L194 151 L195 148 Z M243 148 L245 147 L246 150 L244 151 Z M248 147 L250 146 L251 148 L249 149 Z M203 143 L205 142 L206 144 L204 145 Z M234 137 L240 142 L235 145 L236 146 L235 148 L231 148 L230 144 Z M196 137 L200 138 L199 143 L194 141 Z M191 135 L192 140 L190 142 L185 142 L184 137 Z M213 134 L212 136 L205 139 L202 138 L208 133 Z M230 133 L230 137 L227 142 L222 141 L221 143 L216 142 L214 146 L211 146 L208 144 L211 140 L214 140 L217 136 L223 135 L224 131 Z M169 135 L171 132 L175 131 L176 133 L181 133 L182 138 L173 142 L169 138 Z M205 129 L207 128 L208 130 L206 131 Z M210 128 L212 127 L213 129 L211 130 Z M222 119 L223 120 L222 124 L216 127 L215 122 L217 120 Z M226 117 L228 118 L228 123 L230 125 L229 130 L224 127 Z M219 112 L222 115 L221 118 L216 116 Z M158 110 L160 109 L161 111 L159 112 Z M234 106 L237 108 L246 129 L247 134 L246 143 L244 142 L244 139 L241 137 L243 134 L242 128 L240 128 L239 134 L235 136 L229 132 L230 129 L236 129 L237 125 L236 120 L232 114 Z M165 106 L168 109 L168 115 L165 118 L167 122 L166 123 L163 122 L163 125 L165 126 L166 130 L168 129 L171 130 L171 132 L168 133 L167 135 L167 140 L170 144 L169 149 L165 148 L164 145 L160 143 L164 138 L164 135 L161 132 L160 128 L158 128 L157 130 L156 141 L155 142 L153 141 L154 129 L163 108 Z M192 95 L197 95 L201 97 L193 106 L195 107 L200 102 L202 103 L200 106 L201 110 L196 111 L200 116 L200 118 L192 120 L189 113 L191 108 L186 106 L185 117 L182 120 L192 129 L195 129 L196 130 L195 133 L186 129 L182 124 L179 123 L182 101 L184 98 Z M208 94 L216 98 L213 113 L210 115 L212 117 L210 122 L205 120 L206 113 L204 110 L206 108 L203 106 L205 103 L209 104 L210 98 L207 97 Z M193 83 L194 82 L206 82 L207 85 L206 86 L194 86 Z M198 78 L201 77 L202 79 L199 80 Z M237 76 L241 78 L238 94 L239 103 L242 109 L241 112 L238 109 L235 99 L235 90 L237 84 L236 77 Z M163 76 L164 78 L162 79 L162 82 L165 91 L165 99 L163 106 L161 107 L160 106 L161 87 L159 83 L159 78 Z M153 75 L155 74 L156 76 L154 77 Z M243 74 L245 73 L247 77 L245 78 Z M173 72 L171 76 L166 78 L164 77 L171 71 Z M193 72 L197 70 L203 70 L207 72 L207 75 L206 76 L203 75 L194 76 Z M236 76 L235 78 L231 76 L229 77 L236 82 L233 89 L233 99 L235 102 L230 102 L229 107 L224 114 L219 96 L208 91 L212 83 L209 73 L203 68 L195 69 L191 73 L189 85 L193 92 L181 98 L177 117 L178 127 L176 129 L170 129 L170 125 L173 122 L174 111 L170 104 L165 101 L167 98 L167 91 L164 81 L171 78 L179 71 L176 67 L182 61 L184 64 L196 60 L204 60 L214 64 L218 61 L228 72 Z M211 59 L213 58 L214 60 L212 61 Z M208 50 L210 49 L211 52 L209 53 Z M209 45 L215 44 L217 48 L214 49 L213 47 L210 47 Z M185 45 L190 44 L191 46 L186 47 Z M200 43 L202 44 L201 49 L198 48 Z M193 38 L195 37 L196 39 L194 40 Z M204 37 L206 36 L207 38 L205 39 Z M200 31 L202 32 L201 35 L198 34 Z M206 26 L208 25 L209 27 L207 28 Z M197 26 L201 24 L204 28 L203 29 L198 28 Z M193 24 L195 25 L196 30 L195 32 L192 30 Z M194 22 L196 21 L197 23 L195 24 Z M202 21 L204 20 L207 24 L205 25 Z M198 20 L201 19 L202 21 L199 22 Z M64 17 L58 22 L58 32 L33 45 L28 53 L28 171 L41 182 L91 182 L105 172 L105 52 L98 43 L76 32 L73 19 Z M92 174 L94 173 L95 175 L93 176 Z M58 174 L53 179 L50 178 L53 174 L55 173 Z M38 174 L40 173 L41 175 L39 176 Z M98 169 L101 168 L102 170 L99 171 Z M31 168 L34 167 L35 170 L32 171 Z M30 160 L33 159 L34 161 L31 162 Z M72 158 L75 157 L76 159 L73 160 Z M64 158 L67 157 L70 160 L65 161 Z M101 152 L103 153 L102 157 L99 155 Z M64 153 L67 151 L70 152 L69 155 L65 155 Z M69 148 L71 147 L72 150 L70 151 Z M32 145 L34 144 L35 146 L33 147 Z M71 117 L74 116 L75 119 L72 120 Z M71 113 L73 112 L74 114 L72 115 Z M63 107 L66 108 L67 110 L66 115 L68 116 L67 120 L67 141 L68 143 L67 144 L61 139 L60 115 L61 109 Z M77 103 L79 102 L80 104 L78 105 Z M67 99 L68 102 L67 106 L65 107 L64 101 Z M50 95 L52 94 L54 97 L51 98 Z M56 94 L58 93 L59 95 L57 96 Z M75 88 L77 87 L78 90 L76 91 Z M57 88 L65 84 L69 84 L70 86 L67 91 L68 96 L65 97 L64 95 L62 95 L60 91 L57 90 Z M30 81 L32 80 L33 82 L31 83 Z M68 77 L70 76 L71 78 L69 79 Z M99 69 L101 68 L103 72 L101 73 Z M99 63 L101 62 L102 64 L100 65 Z M69 53 L90 53 L93 56 L93 165 L90 168 L81 167 L84 164 L83 154 L73 147 L75 143 L82 141 L83 134 L81 124 L84 117 L81 90 L79 86 L73 83 L74 71 L69 61 Z M65 53 L65 61 L60 70 L61 84 L49 88 L48 97 L51 103 L59 104 L52 138 L54 142 L63 145 L65 149 L57 149 L51 154 L51 161 L48 163 L53 167 L44 168 L40 165 L40 57 L44 53 Z M97 49 L99 48 L100 50 L98 51 Z M90 45 L92 44 L93 46 L91 47 Z M71 37 L74 36 L76 41 L73 42 Z M59 39 L60 36 L63 37 L61 40 Z M64 25 L68 24 L69 26 L65 27 Z"/></svg>
