<svg xmlns="http://www.w3.org/2000/svg" width="512" height="512" viewBox="0 0 512 512" aria-hidden="true" focusable="false"><path fill="currentColor" fill-rule="evenodd" clip-rule="evenodd" d="M436 424 L438 425 L441 424 L443 425 L448 424 L462 425 L462 422 L464 421 L465 425 L467 425 L468 422 L470 423 L470 425 L472 425 L475 422 L475 415 L473 413 L470 413 L469 415 L467 413 L465 413 L464 415 L461 413 L451 413 L451 421 L448 422 L446 413 L441 413 L437 416 Z M342 415 L342 425 L353 425 L355 422 L357 423 L357 425 L362 424 L367 425 L369 421 L371 422 L370 425 L373 425 L374 420 L376 421 L377 425 L381 425 L380 413 L376 414 L371 413 L369 420 L367 419 L366 414 L357 413 L358 419 L355 422 L353 421 L353 414 L345 413 Z M262 413 L260 417 L261 425 L271 424 L272 422 L271 415 L268 413 Z M248 415 L246 418 L247 420 L246 425 L257 425 L256 421 L257 417 L255 414 L251 413 Z M158 414 L159 425 L168 425 L169 418 L171 419 L171 424 L183 425 L182 416 L180 415 L180 413 L174 413 L172 414 L171 417 L169 417 L166 413 Z M154 414 L149 413 L144 415 L145 425 L154 424 L155 419 Z M131 413 L130 414 L131 425 L141 425 L142 424 L141 413 Z M40 413 L41 420 L40 424 L42 425 L58 425 L59 424 L64 425 L66 421 L69 422 L69 425 L71 425 L72 422 L74 423 L74 425 L76 425 L76 423 L79 422 L79 415 L77 415 L76 413 L74 413 L73 415 L70 413 L68 415 L61 413 L59 414 L55 413 L53 415 L54 418 L52 420 L50 419 L50 413 Z M64 416 L66 415 L67 418 L65 419 Z M129 390 L127 390 L126 396 L128 396 Z M155 330 L154 334 L158 336 L159 330 Z M358 303 L349 309 L343 321 L350 336 L339 340 L335 345 L333 379 L325 385 L324 396 L327 398 L327 385 L337 381 L339 385 L356 390 L354 393 L335 391 L334 397 L338 400 L329 400 L331 403 L345 405 L362 401 L389 404 L397 399 L398 386 L394 399 L386 394 L374 401 L370 396 L372 392 L385 387 L388 382 L393 382 L390 380 L393 368 L387 339 L372 334 L378 323 L374 318 L374 312 L370 306 Z M366 397 L369 396 L370 400 L368 401 Z M360 397 L362 396 L363 398 L361 399 Z M348 396 L351 395 L352 397 L349 398 Z M380 385 L379 387 L360 395 L357 394 L358 389 L363 389 L368 386 L372 386 L376 384 Z M381 379 L380 381 L365 386 L362 385 L365 379 L371 380 L372 378 L378 377 Z M357 374 L363 373 L364 376 L359 377 Z M367 372 L369 373 L368 378 L366 377 Z M346 372 L348 371 L349 374 L347 375 Z M359 361 L362 360 L363 362 L360 363 Z M345 360 L348 359 L349 361 L346 362 Z M386 355 L389 358 L390 365 L389 372 L390 375 L387 380 L385 379 L385 376 L382 374 L382 372 L386 371 L386 369 L383 369 L381 365 Z M362 356 L364 355 L365 357 L363 358 Z M384 349 L386 348 L388 352 L385 353 Z M366 340 L367 342 L364 344 L363 342 Z M349 339 L353 339 L358 342 L357 344 L352 343 L351 344 L357 346 L360 342 L363 343 L364 350 L357 359 L356 365 L361 367 L362 370 L360 371 L356 369 L352 373 L351 370 L347 369 L348 367 L353 365 L353 363 L350 362 L350 359 L359 353 L358 352 L350 357 L346 357 L344 351 L342 351 L343 358 L340 372 L342 372 L348 379 L352 378 L352 376 L354 375 L357 382 L356 384 L344 382 L343 380 L336 379 L334 376 L335 357 L338 343 Z M382 339 L385 342 L379 357 L377 368 L376 369 L373 368 L375 359 L373 359 L371 369 L370 370 L366 369 L365 364 L371 341 L377 338 Z M369 333 L369 335 L363 339 L357 339 L355 337 L356 335 L362 336 L366 332 Z M360 326 L363 325 L364 327 L361 328 Z M370 324 L371 328 L368 331 L365 327 Z M349 324 L351 323 L356 327 L356 329 L364 330 L365 332 L356 333 L355 331 L352 331 L350 329 Z M349 320 L350 317 L353 318 L351 321 Z M358 317 L362 316 L363 319 L359 321 Z M349 312 L351 308 L358 305 L362 305 L367 307 L371 311 L372 315 L368 317 L366 314 L359 312 L358 314 L354 314 L354 316 L352 317 Z M160 292 L150 294 L145 301 L140 321 L141 333 L135 346 L139 349 L134 359 L136 369 L130 368 L131 374 L126 375 L132 353 L130 351 L118 402 L123 387 L129 386 L131 379 L133 392 L130 400 L125 403 L183 403 L184 400 L189 400 L180 397 L178 401 L173 395 L178 395 L175 388 L182 386 L177 382 L183 380 L179 377 L184 373 L182 371 L180 376 L177 376 L180 364 L177 348 L184 354 L190 384 L187 385 L189 390 L185 393 L193 396 L188 359 L174 334 L170 302 L166 299 L167 296 Z M170 399 L172 398 L173 400 L171 401 Z M146 399 L148 398 L149 400 L147 401 Z M158 397 L164 396 L165 399 L159 401 Z M172 390 L174 389 L175 392 L173 393 Z M160 393 L164 388 L170 391 L169 393 L164 394 Z M139 386 L140 387 L139 396 L135 398 L134 397 L135 390 Z M140 382 L142 381 L143 383 L141 384 Z M146 380 L148 381 L147 385 L145 384 Z M124 379 L126 378 L127 380 L125 381 Z M171 377 L173 378 L172 383 L170 382 Z M136 375 L140 378 L137 384 L135 383 Z M158 373 L161 379 L162 385 L160 387 L154 388 L153 381 L156 374 Z M171 370 L174 371 L173 377 L171 376 L170 372 Z M168 367 L170 368 L169 372 L167 371 Z M165 365 L166 367 L164 375 L162 376 L159 372 L159 368 L162 365 Z M172 359 L175 360 L174 369 L172 368 L171 363 Z M140 359 L142 360 L142 362 L140 363 L140 366 L142 366 L142 364 L144 363 L145 367 L143 369 L142 374 L138 375 L137 374 L138 370 L137 361 Z M150 352 L154 353 L157 358 L153 364 L156 366 L153 374 L151 373 L149 369 L150 365 L149 353 Z M165 351 L166 358 L164 361 L160 363 L158 357 L162 351 Z M150 342 L152 340 L155 341 L163 340 L165 344 L161 347 L154 347 L150 344 Z M146 338 L148 337 L149 339 L147 340 Z M164 322 L166 321 L167 323 L165 324 Z M147 322 L149 321 L150 323 L148 324 Z M152 314 L163 314 L166 317 L165 319 L159 319 L157 317 L160 325 L167 326 L165 336 L160 339 L153 338 L149 334 L148 331 L149 325 L151 326 L156 325 L156 323 L154 322 L154 319 L149 318 Z M153 296 L155 294 L160 294 L161 298 L160 299 L157 298 L156 300 L154 300 Z M55 292 L48 299 L46 312 L43 312 L43 308 L40 309 L38 337 L33 325 L30 328 L26 323 L25 330 L21 325 L17 343 L24 352 L21 356 L25 357 L25 365 L20 375 L17 402 L21 391 L25 393 L25 402 L32 402 L33 399 L37 401 L36 391 L45 392 L46 389 L56 399 L47 403 L59 402 L66 395 L71 380 L73 388 L81 384 L75 402 L79 402 L80 398 L84 402 L83 394 L93 392 L97 402 L93 370 L83 359 L72 318 L76 307 L71 303 L72 309 L69 311 L66 299 Z M29 385 L31 384 L32 386 L30 387 Z M62 378 L63 381 L60 387 L55 391 L51 380 L52 379 L58 380 Z M23 374 L25 375 L25 385 L24 386 L21 385 Z M75 373 L78 374 L76 379 L74 378 Z M50 372 L51 371 L56 372 L62 371 L63 373 L59 376 L56 376 L51 374 Z M83 365 L85 365 L91 370 L93 383 L92 386 L84 387 L83 386 L84 379 L82 379 L81 382 L79 381 L79 377 L81 373 L78 371 L78 369 L82 368 Z M76 364 L80 363 L81 365 L77 366 Z M31 364 L34 363 L38 364 L36 368 L39 370 L41 377 L45 381 L44 385 L46 388 L45 390 L37 389 L33 384 L33 380 L29 379 L29 366 Z M36 357 L38 356 L39 358 L37 359 Z M30 356 L32 357 L31 362 L29 361 Z M33 348 L35 347 L36 349 L34 350 Z M32 343 L33 342 L36 343 L37 346 L35 347 Z M25 341 L27 340 L28 342 L26 343 Z M57 335 L60 337 L61 340 L64 340 L67 338 L69 339 L67 348 L64 352 L58 355 L52 354 L52 356 L56 357 L62 355 L65 356 L66 360 L63 366 L61 364 L53 364 L48 362 L50 351 L47 347 L46 340 L47 339 L53 340 L54 341 L53 348 L56 351 L58 351 L59 349 L61 349 L61 347 L56 346 L56 336 Z M49 336 L52 335 L53 337 L50 338 Z M66 335 L68 334 L69 336 L67 337 Z M46 335 L48 334 L49 336 L47 337 Z M58 327 L61 325 L64 325 L68 328 L68 332 L62 333 L61 330 L58 329 Z M56 327 L52 333 L46 332 L49 326 L53 325 Z M63 320 L65 319 L66 321 L64 322 Z M58 309 L60 312 L54 316 L53 315 L54 311 Z M457 290 L451 308 L447 311 L449 318 L442 320 L439 328 L422 318 L419 319 L419 327 L425 341 L421 349 L421 362 L424 370 L433 378 L429 387 L438 399 L452 404 L456 402 L459 406 L475 400 L486 386 L481 379 L492 368 L494 358 L490 342 L496 321 L494 318 L476 328 Z M447 399 L449 398 L450 400 L448 401 Z M442 396 L444 395 L447 398 L444 400 Z M472 394 L473 397 L470 400 L466 401 L465 398 Z M459 395 L461 394 L462 396 L460 397 Z M473 394 L476 393 L477 395 L474 396 Z M451 388 L452 387 L456 388 L462 387 L464 390 L457 393 L452 391 Z M478 386 L480 385 L481 387 L479 388 Z M476 385 L475 389 L470 394 L465 396 L462 395 L463 393 L469 390 L467 388 L469 384 L472 387 L474 384 Z M432 385 L435 384 L437 388 L440 390 L438 385 L440 383 L446 391 L452 393 L453 395 L449 396 L443 393 L442 396 L439 396 L437 392 L434 391 L434 387 Z M477 376 L479 375 L480 377 L478 378 Z M480 373 L483 372 L484 374 L481 375 Z M451 373 L452 372 L463 372 L464 376 L462 379 L453 379 L451 377 Z M431 373 L435 372 L436 374 L432 375 Z M487 367 L488 369 L483 372 L482 369 Z M481 365 L482 367 L476 373 L475 371 L477 366 Z M434 364 L437 366 L439 370 L438 372 L435 371 L433 367 Z M428 364 L430 365 L429 370 L426 369 Z M430 363 L432 362 L433 364 L431 365 Z M482 362 L484 361 L485 363 L483 364 Z M466 362 L469 361 L470 363 L467 364 Z M487 361 L490 360 L491 363 L488 365 Z M427 359 L428 361 L427 364 L425 365 L424 361 Z M446 357 L451 363 L447 367 L444 365 L446 363 L445 360 Z M483 356 L485 355 L486 357 L484 358 Z M488 352 L491 353 L490 358 L488 357 L487 354 Z M465 350 L467 349 L470 352 L470 354 L466 355 Z M439 348 L442 351 L441 354 L438 354 L436 352 Z M485 346 L488 345 L489 348 L486 349 Z M428 345 L429 347 L427 357 L425 358 L423 353 L425 352 L425 348 Z M485 349 L484 353 L482 353 L481 351 L479 351 L476 354 L472 353 L474 350 L479 348 L480 344 Z M435 343 L436 344 L433 353 L431 354 L430 350 L433 344 Z M452 343 L459 342 L463 344 L462 348 L460 349 L459 355 L461 355 L464 360 L461 361 L460 363 L456 363 L452 361 L448 357 L448 355 L444 354 L444 352 L447 350 L451 351 L452 355 L455 353 L456 350 L452 348 L451 345 Z M425 338 L427 337 L428 339 L426 340 Z M464 338 L468 336 L474 336 L478 338 L478 341 L475 342 L474 340 L465 341 Z M437 338 L441 336 L447 336 L451 338 L452 343 L450 344 L447 340 L438 341 Z M450 335 L453 334 L454 336 L451 337 Z M462 333 L464 334 L463 338 L461 337 Z M428 334 L430 333 L431 336 L429 337 Z M423 330 L425 331 L426 334 L425 336 L422 334 Z M489 329 L492 330 L491 337 L489 336 L488 333 Z M433 329 L435 330 L434 334 L432 333 Z M480 329 L482 328 L483 331 L481 332 Z M463 328 L466 326 L470 326 L471 329 L474 330 L474 333 L468 334 L467 332 L463 331 Z M437 333 L438 331 L443 331 L442 328 L445 326 L454 328 L453 332 L448 332 L447 334 Z M460 326 L462 325 L463 327 L461 328 Z M456 326 L458 325 L459 327 L457 328 Z M489 325 L488 327 L484 329 L482 328 L483 325 L487 324 Z M425 325 L427 324 L431 326 L433 329 L430 330 Z M421 324 L423 323 L424 325 L422 326 Z M491 323 L493 322 L494 324 L492 325 Z M461 315 L464 317 L463 321 L461 320 L460 317 Z M450 319 L450 317 L453 315 L457 316 L457 318 L453 321 Z M458 302 L460 301 L461 303 L459 304 Z M454 301 L456 300 L457 303 L455 304 Z M457 295 L459 296 L458 300 L456 299 Z M258 290 L247 310 L246 318 L251 330 L239 334 L235 339 L233 364 L237 369 L223 373 L219 380 L220 386 L226 374 L228 377 L241 376 L259 380 L267 375 L276 377 L256 385 L242 387 L239 384 L240 387 L234 389 L226 386 L217 393 L218 400 L223 404 L233 405 L294 404 L299 400 L299 392 L294 389 L297 378 L294 373 L282 369 L282 340 L278 334 L268 330 L269 308 L264 304 Z M265 400 L269 396 L276 397 L276 401 L272 403 L267 403 Z M229 398 L231 396 L238 396 L239 401 L237 403 L231 402 Z M296 395 L297 400 L294 402 L291 402 L290 399 L294 395 Z M286 395 L288 397 L288 400 L284 403 L280 403 L278 401 L278 398 Z M253 397 L258 395 L263 396 L264 401 L261 403 L256 403 L253 400 Z M241 398 L245 395 L249 396 L251 398 L251 402 L245 403 L241 400 Z M220 396 L221 395 L225 396 L227 401 L226 402 L221 401 Z M276 395 L278 394 L279 396 L277 397 Z M264 395 L266 394 L267 396 L265 397 Z M238 395 L240 394 L241 396 L239 397 Z M262 387 L261 390 L251 390 L250 389 L251 387 L258 386 Z M295 378 L294 387 L290 389 L281 389 L271 386 L270 390 L265 390 L263 386 L264 384 L279 378 L288 377 L289 374 L291 374 Z M262 372 L264 371 L265 374 L263 375 Z M277 371 L279 370 L280 372 L278 373 Z M258 367 L261 364 L267 365 L266 369 L259 369 Z M270 356 L272 357 L271 363 L269 362 Z M264 354 L267 353 L268 355 L265 356 Z M258 348 L260 350 L258 355 L258 365 L255 368 L253 364 L251 368 L248 368 L247 360 L250 359 L250 356 L254 354 L254 351 Z M270 340 L271 343 L269 350 L266 351 L265 350 L266 343 L268 340 Z M277 336 L280 340 L282 363 L277 370 L271 372 L270 370 L272 369 L272 366 L277 361 L279 361 L279 359 L276 359 L274 357 L276 346 L274 345 L273 342 L275 337 Z M260 330 L262 329 L264 332 L261 333 Z M257 329 L258 332 L256 333 L256 335 L262 336 L260 340 L260 344 L251 350 L247 350 L244 347 L244 344 L242 344 L243 348 L240 362 L243 362 L244 366 L247 367 L248 370 L253 371 L252 373 L248 373 L239 367 L237 367 L235 363 L237 339 L239 336 L247 334 L254 329 Z M259 314 L262 315 L263 318 L265 319 L265 324 L262 327 L259 326 L260 322 L258 320 Z M259 311 L263 310 L264 312 L260 313 Z M254 310 L258 311 L256 326 L254 326 L251 321 L251 319 L254 318 L255 313 L253 312 Z M435 268 L435 277 L446 277 L446 267 L436 267 Z M450 266 L450 278 L460 277 L461 274 L464 275 L464 278 L466 278 L467 275 L469 277 L472 277 L474 275 L474 267 L464 266 L462 268 L460 266 Z M460 269 L462 268 L463 271 L461 272 Z M363 267 L364 278 L369 277 L378 278 L381 276 L387 277 L384 274 L386 271 L386 267 L377 267 L379 274 L376 277 L372 275 L374 272 L374 267 L368 266 Z M336 267 L337 275 L335 278 L361 277 L360 272 L358 270 L360 267 L359 266 L350 266 L349 267 L354 269 L353 271 L350 272 L351 273 L350 275 L345 274 L345 267 L341 266 Z M273 266 L271 276 L280 278 L282 271 L280 270 L280 267 Z M258 266 L257 267 L257 277 L268 278 L268 267 Z M254 269 L250 268 L249 266 L242 270 L243 278 L253 278 Z M129 266 L130 276 L132 278 L138 277 L142 273 L144 274 L143 277 L153 278 L155 273 L158 274 L159 277 L161 274 L163 274 L164 278 L166 278 L167 274 L170 274 L171 277 L173 278 L182 277 L181 275 L182 266 L172 266 L170 269 L165 266 L163 267 L159 266 L156 269 L154 267 L149 266 L143 269 L141 268 L141 266 Z M154 270 L156 269 L157 272 L155 273 Z M140 270 L142 269 L143 271 L141 272 Z M62 266 L60 274 L62 275 L62 278 L64 275 L66 275 L67 278 L69 278 L69 276 L72 275 L72 269 L68 266 L66 267 Z M46 269 L47 271 L46 277 L50 278 L57 277 L57 271 L54 266 L50 266 Z M306 153 L302 168 L284 179 L286 201 L279 197 L281 192 L273 193 L274 183 L263 164 L251 183 L250 195 L240 190 L237 177 L222 169 L218 154 L213 157 L212 188 L220 204 L237 216 L233 219 L232 227 L242 235 L236 239 L241 246 L247 244 L263 254 L275 245 L284 246 L288 242 L282 236 L291 227 L291 220 L287 215 L302 205 L312 187 L313 166 Z M261 248 L263 247 L264 250 L262 251 Z M268 244 L270 243 L271 245 L269 246 Z M250 243 L254 242 L257 245 L253 247 Z M270 241 L272 240 L273 243 L271 244 Z M256 243 L257 241 L260 240 L265 241 L264 243 L259 244 Z M242 240 L244 239 L245 241 L243 242 Z M276 232 L277 234 L273 238 L271 235 L274 232 Z M265 231 L266 233 L262 237 L261 233 Z M269 229 L271 228 L272 230 L270 231 Z M256 225 L258 226 L258 230 L253 231 L252 229 L255 228 Z M282 223 L283 226 L281 230 L278 232 L275 228 L279 224 Z M252 224 L254 223 L255 225 L253 226 Z M272 221 L274 220 L275 222 L273 223 Z M249 221 L251 220 L252 222 L250 223 Z M282 218 L286 219 L289 222 L289 227 L287 229 L284 228 L285 223 L282 222 L281 220 Z M234 222 L237 219 L241 218 L244 221 L243 224 L246 226 L248 230 L244 231 L240 226 L239 229 L237 230 L234 227 Z M275 211 L278 212 L277 216 L273 215 Z M241 209 L243 210 L242 214 L240 213 Z M283 209 L285 208 L286 210 L284 211 Z M268 208 L271 214 L267 219 L264 220 L263 217 L266 214 L265 209 Z M237 209 L239 208 L240 210 L238 211 Z M233 206 L235 205 L236 207 L234 208 Z M287 205 L289 204 L290 207 L288 208 Z M271 204 L273 203 L274 206 L272 207 Z M250 203 L259 209 L259 215 L261 217 L260 220 L258 220 L253 215 L254 210 L250 208 L249 205 Z M278 202 L280 203 L279 206 L276 205 Z M244 203 L246 202 L247 204 L245 205 Z M292 201 L294 202 L293 205 L290 204 Z M229 202 L232 201 L233 204 L230 205 Z M260 200 L263 199 L264 201 L261 202 Z M287 195 L289 194 L290 196 L288 197 Z M300 193 L302 197 L298 198 L299 200 L298 202 L295 202 L294 198 L296 197 L296 194 Z M224 193 L227 194 L228 198 L227 202 L225 201 L225 198 L222 197 Z M265 191 L267 190 L268 193 L266 194 Z M258 190 L261 191 L259 195 L257 194 Z M304 190 L306 189 L307 191 L305 192 Z M289 190 L291 189 L293 192 L290 193 Z M237 189 L240 190 L245 195 L244 197 L241 198 L240 201 L237 201 L236 197 L234 196 L235 194 L238 195 L236 191 Z M231 190 L233 189 L234 192 L232 193 Z M291 187 L294 186 L295 188 L292 189 Z M234 186 L236 185 L237 187 L235 188 Z M291 183 L294 182 L295 184 L292 185 Z M234 181 L236 180 L237 182 L235 183 Z M286 180 L288 179 L289 182 L287 183 Z M214 172 L219 177 L223 178 L225 190 L222 193 L220 192 L221 188 L218 187 L213 181 L213 179 L215 178 L213 174 Z M215 160 L217 161 L218 166 L223 173 L222 176 L217 172 L215 168 L215 165 L213 163 Z M308 158 L309 167 L304 174 L304 176 L310 171 L311 173 L308 179 L310 179 L311 181 L306 187 L302 189 L304 192 L301 193 L299 190 L300 183 L299 178 L300 173 L305 166 L306 159 Z M457 142 L453 145 L451 160 L446 162 L444 169 L440 168 L439 177 L435 180 L435 200 L438 206 L444 208 L435 213 L441 215 L441 221 L435 227 L431 225 L433 217 L429 225 L426 225 L426 190 L422 188 L418 194 L421 209 L417 215 L417 224 L427 246 L422 252 L422 259 L438 257 L439 260 L469 260 L469 254 L479 259 L489 258 L489 253 L483 246 L492 223 L489 209 L492 202 L484 190 L479 201 L482 225 L478 216 L466 209 L475 200 L475 180 L471 178 L470 167 L466 169 L465 161 L461 160 Z M480 251 L484 250 L487 253 L487 256 L485 257 L481 255 Z M424 256 L424 253 L426 250 L431 251 L430 255 L426 257 Z M473 247 L478 246 L479 248 L474 249 Z M441 246 L443 245 L444 247 L442 248 Z M427 239 L433 238 L435 240 L435 243 L432 245 L428 245 Z M471 236 L474 238 L474 242 L472 244 L470 243 Z M478 231 L481 232 L483 239 L482 243 L476 241 L477 238 L475 237 L474 234 Z M433 232 L434 235 L429 237 L428 233 L430 231 Z M440 230 L443 233 L443 235 L441 238 L438 239 L436 232 Z M487 226 L488 231 L484 235 L482 229 L485 226 Z M422 226 L425 226 L427 229 L427 232 L425 235 L422 233 L421 230 Z M448 220 L452 221 L454 225 L457 225 L456 223 L457 221 L462 222 L460 231 L457 236 L453 236 L451 234 L449 224 L447 222 Z M425 218 L422 221 L419 220 L420 218 L423 217 Z M488 215 L490 216 L489 221 L487 220 Z M446 216 L448 215 L449 217 L447 218 Z M476 217 L479 225 L474 228 L473 223 L471 222 L471 228 L467 232 L469 236 L468 242 L466 244 L449 245 L444 244 L442 242 L442 239 L444 238 L446 233 L449 235 L451 239 L457 240 L463 233 L464 226 L468 222 L469 215 L472 214 Z M449 208 L450 207 L452 208 L460 207 L462 212 L458 214 L450 215 Z M467 195 L472 196 L469 205 L467 204 L466 200 Z M443 195 L444 196 L443 204 L441 205 L437 197 Z M451 184 L458 184 L463 187 L462 189 L458 189 L458 194 L464 195 L463 201 L458 206 L456 205 L458 199 L457 198 L453 198 L454 201 L453 206 L447 201 L446 195 L452 194 L452 189 L447 188 Z M460 171 L465 170 L466 174 L462 175 Z M444 171 L447 170 L450 172 L450 174 L446 175 Z M449 169 L451 168 L452 170 L450 171 Z M457 162 L459 161 L460 163 L458 164 Z M63 142 L53 154 L55 159 L60 154 L62 158 L54 163 L49 160 L46 169 L35 174 L41 190 L35 203 L32 203 L33 182 L29 173 L21 192 L30 232 L39 232 L55 245 L49 253 L29 246 L26 235 L26 245 L38 255 L84 255 L97 244 L94 222 L102 204 L102 195 L94 189 L98 180 L96 176 L91 180 L95 180 L96 184 L91 184 L89 207 L82 194 L89 174 L79 170 L75 160 L70 163 L63 159 L71 158 Z M62 241 L64 243 L64 248 L59 252 L55 252 L54 250 L58 246 L58 244 Z M93 233 L95 237 L95 242 L90 248 L85 250 L77 250 L76 253 L66 250 L66 245 L69 244 L71 241 L75 240 L78 237 L84 236 L86 233 L91 232 Z M89 229 L91 228 L92 230 L90 231 Z M30 223 L32 222 L33 225 L35 225 L36 227 L32 229 L30 226 Z M82 220 L88 219 L90 221 L90 224 L88 226 L83 226 Z M68 216 L69 218 L66 220 L65 218 Z M86 213 L88 212 L89 214 L87 215 Z M80 211 L82 212 L81 217 L79 216 Z M42 211 L43 218 L45 219 L45 223 L40 228 L37 228 L35 219 L33 219 L32 217 L34 215 L38 217 L40 215 L40 212 Z M91 209 L97 212 L94 219 L92 218 L90 213 Z M55 209 L57 208 L61 213 L59 214 Z M27 207 L32 208 L30 215 L27 212 L26 209 Z M77 197 L81 198 L85 202 L86 205 L85 210 L81 211 L80 206 L78 206 L77 210 L75 209 Z M38 201 L41 198 L46 197 L51 211 L57 217 L57 219 L61 221 L60 223 L57 224 L63 228 L74 226 L76 231 L67 235 L57 235 L47 232 L45 228 L47 223 L47 216 L45 215 L45 206 L37 207 L36 205 Z M98 194 L100 195 L99 205 L96 204 L96 196 Z M25 190 L29 192 L27 194 L26 201 L23 200 L23 192 Z M82 176 L85 178 L85 184 L80 193 L77 194 L75 191 L78 189 L79 186 L77 183 L80 182 L77 180 L77 178 L79 176 Z M42 176 L45 176 L47 178 L47 180 L44 181 L44 184 L48 191 L46 194 L44 193 L40 186 L39 178 Z M42 173 L44 172 L45 174 L43 175 Z M54 171 L60 171 L61 176 L63 176 L64 171 L70 171 L74 175 L73 177 L71 176 L66 177 L66 182 L73 181 L74 186 L71 190 L67 190 L65 205 L69 208 L76 210 L77 213 L76 219 L77 224 L76 225 L71 224 L67 226 L63 226 L60 224 L61 222 L67 222 L71 220 L73 215 L69 211 L64 211 L58 206 L57 190 L52 190 L50 186 L51 181 L57 182 L56 180 L57 176 L52 177 L50 176 Z M158 141 L147 151 L150 156 L153 149 L155 155 L147 161 L143 156 L138 175 L134 176 L131 182 L137 188 L144 188 L138 192 L143 199 L148 198 L149 194 L163 192 L168 196 L168 200 L165 203 L140 202 L133 205 L134 213 L129 216 L130 210 L127 211 L122 226 L129 244 L126 250 L152 258 L169 256 L183 250 L180 244 L186 237 L181 234 L184 231 L189 234 L193 212 L185 212 L189 200 L185 183 L177 175 L162 170 L161 163 L157 161 Z M152 248 L160 247 L161 249 L153 250 Z M141 247 L146 246 L150 247 L151 249 L147 250 L142 249 Z M169 246 L167 249 L163 248 L164 246 L167 245 Z M136 244 L139 243 L141 246 L137 247 Z M171 245 L173 242 L177 243 L174 246 Z M179 238 L182 239 L180 242 L177 241 Z M128 238 L132 237 L137 243 L133 244 Z M156 236 L158 235 L159 237 L157 238 Z M179 223 L181 222 L182 225 L180 226 Z M142 227 L143 224 L146 222 L157 224 L168 224 L169 223 L171 224 L171 226 L167 228 L165 232 L159 233 L147 232 Z M126 220 L129 221 L129 232 L128 233 L125 232 L124 228 Z M162 220 L165 219 L166 221 L163 222 Z M186 217 L188 218 L187 220 L188 228 L187 229 L185 228 L184 222 L181 221 L182 219 L185 219 Z M182 208 L184 207 L185 209 L183 210 Z M151 208 L152 205 L157 205 L158 207 L160 205 L162 206 L160 210 Z M139 205 L140 209 L136 211 L135 207 Z M183 205 L185 204 L186 206 L184 207 Z M146 205 L148 204 L149 206 L147 207 Z M140 205 L143 204 L146 208 L143 209 Z M170 197 L173 196 L174 198 L171 199 Z M184 195 L186 194 L187 196 L185 197 Z M181 185 L183 184 L185 188 L183 189 Z M162 183 L163 184 L162 188 L159 190 L158 189 L159 184 Z M134 182 L137 181 L138 183 L135 184 Z M167 178 L168 180 L172 180 L173 182 L175 182 L181 189 L183 199 L180 201 L181 206 L177 207 L177 211 L169 217 L167 216 L162 217 L161 215 L157 217 L155 215 L150 215 L149 213 L141 216 L140 218 L138 218 L136 222 L137 226 L136 230 L141 236 L146 239 L161 240 L173 234 L179 226 L182 227 L183 229 L180 235 L178 235 L174 240 L168 243 L164 243 L162 245 L159 244 L147 245 L135 239 L135 236 L132 234 L131 231 L131 221 L133 218 L135 218 L135 215 L141 211 L150 210 L163 212 L174 206 L176 201 L176 195 L174 190 L166 184 L165 179 Z M174 178 L176 177 L180 179 L181 182 L179 183 Z M138 179 L141 177 L146 182 L139 183 Z M170 175 L172 174 L173 176 L171 177 Z M166 174 L169 173 L170 175 L167 176 Z M162 172 L164 174 L163 178 L158 181 L157 188 L154 191 L151 190 L152 182 L148 180 L150 174 L153 173 L154 174 L153 177 L157 178 Z M155 173 L157 172 L158 174 L156 175 Z M142 170 L145 169 L146 172 L143 173 Z M152 160 L155 160 L157 163 L154 168 L152 167 L151 163 Z M361 140 L354 165 L347 174 L343 174 L344 189 L348 196 L341 197 L335 194 L337 203 L331 215 L330 234 L335 238 L343 238 L344 241 L333 254 L354 255 L363 247 L364 256 L389 255 L390 252 L380 240 L390 238 L394 233 L393 215 L387 203 L389 193 L383 197 L376 196 L381 173 L376 174 L370 164 L370 158 L367 157 L364 141 Z M372 251 L374 250 L375 252 L373 253 Z M343 251 L345 250 L346 252 L344 253 Z M337 251 L341 250 L342 252 L338 253 Z M354 250 L356 249 L357 251 L355 252 Z M348 250 L352 249 L353 252 L349 253 Z M366 249 L369 248 L370 251 L367 252 Z M369 246 L371 245 L372 247 L370 248 Z M353 245 L355 246 L354 249 L351 248 Z M360 243 L364 242 L365 244 L361 245 Z M360 235 L364 234 L365 237 L361 238 Z M348 233 L350 232 L351 234 L349 235 Z M373 231 L375 230 L376 232 L374 233 Z M358 224 L360 232 L353 233 L352 228 Z M362 227 L364 223 L368 223 L374 229 L370 233 L364 233 Z M337 221 L341 221 L342 224 L337 225 L336 227 L345 228 L344 236 L335 236 L334 234 L337 233 L337 230 L335 230 L334 234 L332 233 L332 226 Z M389 220 L391 222 L391 228 L387 231 L391 230 L392 233 L389 236 L379 236 L376 229 L379 227 L388 227 L388 225 L383 225 L382 222 Z M368 221 L370 220 L371 222 L369 223 Z M376 219 L378 219 L379 222 L377 225 L374 225 L373 221 Z M345 220 L349 219 L352 221 L352 223 L350 225 L347 225 Z M368 214 L372 211 L373 213 L376 213 L377 216 L375 218 L371 218 L368 216 Z M344 212 L348 210 L353 211 L354 213 L357 213 L358 215 L363 215 L365 220 L361 222 L356 222 L355 221 L356 216 L352 220 Z M367 208 L369 207 L370 210 L368 211 Z M380 205 L384 204 L386 206 L384 212 L379 209 Z M370 206 L373 204 L375 205 L374 208 L371 208 Z M351 203 L354 204 L353 208 L349 207 Z M343 204 L345 206 L345 209 L342 210 L341 212 L337 212 L336 208 L340 203 Z M359 200 L364 199 L365 201 L360 202 Z M356 199 L358 198 L359 200 L357 201 Z M361 187 L363 186 L364 188 L362 189 Z M369 185 L371 184 L372 186 L370 187 Z M374 184 L376 183 L377 185 L375 186 Z M351 184 L353 183 L355 186 L352 188 Z M360 181 L364 180 L365 184 L363 185 Z M367 179 L369 178 L370 180 L368 181 Z M346 179 L348 178 L349 180 L347 181 Z M364 165 L366 164 L367 167 L365 168 Z M359 164 L360 166 L357 169 L356 166 Z M362 163 L364 162 L365 164 L363 165 Z M86 104 L89 119 L99 127 L424 128 L433 125 L441 114 L440 99 L424 88 L104 88 L95 91 Z M257 114 L259 113 L260 116 L258 117 Z M148 113 L150 114 L149 117 L146 116 Z M412 113 L414 112 L415 114 L413 115 Z M118 113 L120 112 L121 114 L119 115 Z M407 108 L409 107 L410 109 L408 110 Z M352 107 L353 109 L350 111 L349 109 Z M259 108 L261 107 L262 110 L260 111 Z M204 106 L205 109 L201 111 L200 109 Z M184 106 L186 107 L185 111 L183 110 Z M153 107 L155 106 L156 108 L154 109 Z M373 105 L377 104 L381 108 L374 109 Z M412 103 L414 102 L415 104 L413 105 Z M356 102 L358 103 L357 113 L355 112 Z M350 101 L352 100 L353 102 L351 103 Z M378 100 L380 99 L381 101 L379 102 Z M372 100 L375 99 L376 101 L373 102 Z M306 99 L308 100 L307 108 L305 107 L305 105 L300 104 L301 102 L305 102 Z"/></svg>
