<svg xmlns="http://www.w3.org/2000/svg" width="512" height="512" viewBox="0 0 512 512" aria-hidden="true" focusable="false"><path fill="currentColor" fill-rule="evenodd" clip-rule="evenodd" d="M13 337 L17 362 L33 381 L47 386 L468 386 L484 381 L500 362 L500 323 L489 315 L489 307 L481 307 L485 299 L474 274 L473 290 L454 308 L449 333 L462 345 L473 341 L476 332 L480 348 L456 346 L463 360 L456 368 L305 368 L293 356 L284 357 L282 346 L266 347 L259 340 L251 347 L238 344 L234 357 L223 356 L214 368 L63 368 L53 363 L61 346 L38 349 L36 344 L41 332 L44 341 L54 345 L68 333 L63 308 L59 309 L44 290 L44 274 L32 299 L35 307 L28 307 L28 315 L16 323 L18 335 Z M285 373 L287 372 L288 374 L286 375 Z M229 373 L231 372 L232 374 L230 375 Z M266 364 L268 363 L269 365 L267 366 Z M248 364 L250 363 L251 365 L249 366 Z M277 359 L280 360 L280 363 L278 365 L276 364 Z M236 360 L240 359 L241 361 L238 364 Z M471 331 L473 330 L474 332 L472 333 Z M455 327 L457 326 L458 328 L456 329 Z M59 327 L61 326 L62 328 L60 329 Z M38 318 L39 315 L44 316 L43 318 L40 319 Z M473 316 L478 314 L479 318 L476 319 Z M237 297 L243 305 L245 315 L254 319 L253 324 L258 332 L264 332 L268 325 L279 330 L294 329 L297 332 L303 329 L318 330 L329 325 L333 332 L339 332 L344 319 L353 314 L354 305 L360 300 L360 297 L347 292 L346 288 L332 291 L333 283 L329 272 L317 271 L309 276 L299 267 L288 276 L280 271 L270 271 L266 274 L265 291 L251 288 L250 292 Z M298 316 L301 319 L300 323 L296 322 L296 319 Z M258 310 L260 309 L263 313 L259 314 Z M338 308 L339 313 L335 314 L334 311 Z M340 306 L343 305 L344 307 L341 308 Z M253 306 L255 305 L256 307 L254 308 Z M295 304 L299 301 L303 306 L302 307 L299 305 L296 306 Z M287 297 L289 300 L285 302 L284 299 Z M310 296 L313 299 L312 302 L308 300 Z M322 290 L330 292 L330 294 L325 301 L323 300 L323 296 L321 292 Z M275 290 L276 292 L274 300 L272 301 L267 292 Z M319 286 L321 285 L322 287 L320 288 Z M298 283 L300 284 L301 287 L300 289 L296 288 Z M404 239 L402 240 L408 247 L408 253 L400 271 L389 286 L388 294 L391 300 L386 305 L363 303 L364 310 L373 319 L386 327 L399 330 L414 328 L423 323 L435 306 L436 296 L446 295 L452 287 L450 275 L417 245 Z M406 296 L407 303 L404 308 L398 312 L391 313 L390 312 L391 302 L392 301 L400 302 Z M421 287 L423 291 L419 293 L418 290 Z M405 273 L408 272 L410 277 L407 278 Z M431 268 L434 270 L433 275 L430 273 Z M416 257 L421 261 L421 266 L417 268 L414 267 L414 259 Z M499 239 L491 234 L485 233 L483 228 L475 229 L467 235 L459 251 L452 258 L445 262 L448 264 L459 262 L475 250 L477 251 L479 257 L483 259 L487 258 L490 256 L492 252 L492 246 L496 244 Z M436 213 L429 222 L427 229 L431 234 L442 234 L446 230 L446 226 L438 214 Z M436 226 L439 227 L439 230 L437 232 L434 230 Z M493 203 L488 196 L481 195 L463 206 L459 207 L451 206 L451 207 L460 211 L464 211 L471 209 L478 205 L479 211 L483 214 L486 214 L490 211 L491 205 Z M437 177 L428 185 L427 190 L438 199 L447 190 L447 187 Z M439 148 L434 154 L433 158 L427 160 L427 166 L431 170 L433 170 L434 165 L440 159 L445 165 L446 170 L448 170 L452 166 L452 160 L447 159 L445 154 Z M148 144 L130 176 L121 176 L120 184 L114 167 L97 171 L70 164 L77 190 L74 207 L82 212 L90 209 L90 215 L83 215 L82 224 L50 240 L82 258 L93 278 L101 274 L94 283 L85 278 L89 274 L85 269 L74 274 L77 292 L70 318 L96 311 L114 315 L118 301 L111 304 L106 299 L107 289 L114 286 L111 296 L120 298 L121 305 L130 306 L146 338 L166 305 L176 305 L180 315 L198 310 L224 318 L217 291 L221 274 L204 270 L212 266 L213 258 L245 242 L213 224 L202 204 L194 207 L201 199 L210 203 L208 212 L221 207 L217 190 L225 164 L198 171 L180 167 L177 181 L185 179 L189 184 L188 192 L180 195 L184 186 L165 176 Z M148 313 L150 312 L151 314 L149 315 Z M81 303 L83 302 L84 304 L82 305 Z M146 302 L148 301 L149 303 L147 304 Z M187 288 L189 295 L188 300 L185 303 L183 303 L181 300 L178 300 L174 304 L173 300 L175 298 L184 296 L183 291 L180 290 L179 287 L181 286 L183 288 Z M163 287 L164 285 L168 284 L172 285 L170 288 Z M123 285 L124 284 L133 285 L134 287 L125 288 Z M156 275 L159 274 L160 276 L157 277 Z M135 275 L137 274 L138 276 L136 277 Z M210 277 L206 282 L201 283 L199 281 L196 282 L192 274 L196 273 L199 277 L202 278 L202 275 L205 272 L206 275 Z M172 266 L173 265 L176 266 L177 269 L184 267 L188 274 L182 276 L182 279 L179 281 L174 278 L176 271 L173 270 Z M101 258 L103 259 L104 262 L103 265 L100 264 Z M194 257 L195 264 L192 266 L190 263 L192 258 Z M182 249 L184 250 L183 254 L181 253 Z M112 249 L114 250 L113 257 L111 256 Z M169 243 L173 248 L172 250 L167 251 L170 257 L171 264 L169 265 L165 263 L161 263 L159 261 L157 261 L157 264 L155 266 L151 264 L149 261 L159 257 L165 250 L166 245 Z M218 243 L220 242 L221 244 L219 245 Z M154 243 L156 242 L157 244 L155 245 Z M127 242 L131 252 L139 259 L145 260 L146 262 L140 266 L137 264 L136 261 L125 265 L118 272 L120 274 L120 278 L114 282 L113 278 L107 273 L110 267 L117 269 L117 267 L120 266 L125 261 L125 256 L128 252 L122 250 L121 248 Z M73 242 L75 241 L76 244 L74 245 Z M218 238 L220 237 L221 239 L219 240 Z M154 238 L156 237 L157 239 L155 240 Z M73 240 L74 237 L77 238 L75 241 Z M182 227 L184 228 L183 232 L181 231 Z M112 226 L114 227 L113 232 L111 231 Z M143 226 L151 225 L152 227 L144 228 Z M192 217 L195 218 L194 225 L192 224 L191 220 Z M101 217 L104 218 L102 224 L100 223 Z M140 215 L146 221 L137 224 L130 231 L128 238 L126 239 L122 234 L123 231 L128 230 L125 226 L124 219 L128 218 L136 221 L138 216 Z M156 206 L158 205 L159 207 L157 208 Z M135 206 L137 205 L138 207 L136 208 Z M181 201 L182 205 L189 206 L190 208 L184 214 L178 212 L171 219 L169 228 L167 230 L172 231 L173 233 L168 239 L165 231 L160 226 L155 223 L149 222 L148 220 L154 215 L156 216 L158 221 L168 218 L173 214 L173 211 L176 210 L174 204 Z M105 207 L113 205 L113 201 L115 200 L120 204 L120 207 L118 210 L121 211 L122 215 L120 216 L116 212 L110 214 L109 211 Z M85 203 L88 200 L93 199 L99 202 L101 208 L99 209 L97 206 L93 204 L92 208 L90 209 L85 205 Z M165 194 L168 193 L172 194 L173 196 L169 198 Z M130 194 L128 197 L122 196 L123 194 L127 193 Z M146 179 L148 178 L149 180 L147 181 Z M111 178 L113 179 L113 182 L117 183 L115 186 L110 186 L111 189 L116 193 L114 196 L108 193 L106 188 L106 183 Z M148 168 L150 167 L151 169 L149 170 Z M143 168 L145 167 L146 169 L144 170 Z M493 137 L481 138 L469 149 L467 153 L467 160 L473 165 L477 162 L480 167 L479 173 L472 179 L473 182 L480 182 L485 179 L489 171 L488 158 L498 155 L499 148 L495 144 L497 140 Z M389 133 L384 140 L387 148 L375 158 L373 165 L368 167 L369 170 L362 187 L364 196 L370 202 L370 212 L377 215 L377 222 L373 226 L376 231 L375 244 L378 245 L389 244 L398 239 L416 215 L413 205 L417 198 L412 193 L415 181 L408 181 L408 177 L402 173 L402 165 L395 166 L398 157 L394 153 L395 146 L389 141 Z M391 192 L394 199 L394 205 L392 207 L383 206 L373 207 L372 206 L373 203 L384 202 L387 199 L387 191 L389 190 Z M368 185 L370 184 L371 187 L369 188 Z M386 174 L392 173 L393 176 L389 177 Z M297 127 L291 143 L271 171 L271 183 L256 183 L257 193 L237 199 L247 208 L245 220 L255 226 L251 237 L260 247 L280 255 L283 245 L299 253 L311 244 L317 255 L334 248 L344 237 L340 226 L350 221 L348 208 L356 204 L357 198 L338 193 L339 183 L325 183 L325 172 L319 162 L315 162 Z M292 234 L294 233 L295 235 L293 236 Z M310 228 L311 227 L322 228 L327 232 L328 237 L326 238 L323 232 L318 232 L314 234 Z M286 228 L282 234 L278 232 L273 232 L271 234 L271 237 L270 238 L268 237 L268 233 L272 229 L276 227 Z M320 212 L324 210 L332 209 L339 211 L341 214 L333 218 L329 215 L321 214 Z M254 214 L255 212 L264 209 L272 210 L276 212 L275 214 L266 215 L261 219 L257 215 Z M297 184 L300 185 L300 189 L298 191 L295 189 L295 186 Z M308 184 L310 183 L311 185 L309 186 Z M285 184 L287 183 L288 185 L286 186 Z M300 166 L304 167 L304 171 L302 174 L298 170 Z M293 166 L297 167 L297 171 L295 174 L291 170 Z"/></svg>
