<svg xmlns="http://www.w3.org/2000/svg" width="512" height="512" viewBox="0 0 512 512" aria-hidden="true" focusable="false"><path fill="currentColor" fill-rule="evenodd" clip-rule="evenodd" d="M128 454 L126 454 L121 469 L125 465 Z M262 411 L258 415 L258 422 L262 420 L263 424 L268 425 L264 421 L267 419 L273 421 L269 417 L270 412 Z M250 411 L242 412 L242 417 L238 421 L243 419 L246 420 L247 422 L244 423 L243 425 L248 424 L247 421 L248 419 L253 419 L253 416 L250 413 Z M243 404 L244 406 L254 406 L254 403 L256 402 L257 406 L267 406 L268 404 L261 404 L260 400 L252 400 L251 404 Z M91 402 L107 402 L107 400 L105 400 L104 397 L92 397 Z M98 365 L59 399 L63 423 L54 446 L54 459 L64 473 L100 487 L121 475 L135 472 L143 461 L144 448 L135 425 L138 398 L122 381 Z M93 472 L94 474 L90 478 L88 478 L87 476 Z M93 465 L83 475 L79 474 L79 471 L84 468 L87 464 L91 463 Z M88 460 L86 464 L78 468 L76 467 L77 465 L86 459 Z M90 456 L92 457 L91 460 L88 459 Z M137 456 L139 455 L140 457 L138 458 Z M97 451 L100 452 L98 456 L95 454 Z M98 441 L100 442 L99 446 L97 445 Z M89 436 L92 441 L95 442 L96 446 L95 449 L90 453 L88 453 L87 450 L73 446 L73 448 L87 452 L88 454 L71 466 L69 466 L68 464 L65 464 L65 467 L63 468 L61 464 L59 463 L57 455 L59 448 L63 444 L69 443 L71 441 L84 437 L85 439 L79 444 L80 445 L84 442 L87 442 L89 446 L90 442 L87 441 L87 437 Z M133 440 L134 446 L127 471 L120 472 L117 476 L106 480 L105 478 L112 465 L114 459 L113 457 L107 472 L99 479 L98 477 L105 461 L110 446 L112 435 L114 434 L115 436 L118 435 Z M112 427 L111 430 L104 436 L96 437 L87 432 L85 425 L87 424 L89 426 L89 430 L94 428 L95 432 L98 431 L102 432 L103 428 L108 428 L109 423 L111 424 Z M91 424 L93 422 L98 423 L105 422 L106 423 L105 426 L92 426 Z M111 408 L113 407 L114 409 L112 410 Z M83 408 L85 407 L86 412 L90 412 L91 415 L97 414 L98 410 L100 411 L100 414 L105 415 L108 411 L112 412 L114 410 L115 415 L110 423 L105 418 L102 420 L95 420 L93 418 L87 424 L83 417 Z M83 391 L88 386 L93 384 L104 384 L110 387 L115 393 L115 395 L113 396 L113 406 L111 407 L106 405 L98 408 L89 405 L85 407 L83 400 L81 399 Z M248 364 L233 370 L216 387 L206 413 L205 436 L211 461 L229 485 L246 493 L263 493 L283 484 L295 470 L303 452 L306 422 L292 383 L270 366 Z M260 488 L263 487 L264 489 L261 490 Z M246 488 L250 487 L251 489 L247 490 Z M243 487 L245 486 L246 488 L244 489 Z M270 486 L267 489 L264 488 L265 486 L268 485 Z M241 454 L243 453 L244 455 L242 456 Z M221 459 L238 452 L239 454 L234 458 L234 460 L241 459 L246 463 L244 456 L246 455 L252 465 L255 459 L258 461 L258 465 L244 475 L236 478 L226 469 Z M297 450 L299 449 L300 451 L298 452 Z M210 447 L212 446 L213 448 L211 449 Z M298 446 L300 445 L301 447 L299 448 Z M240 446 L244 445 L245 442 L247 441 L251 447 L258 448 L259 445 L265 441 L266 444 L270 445 L271 447 L262 454 L252 455 L249 454 L245 450 L243 450 Z M209 442 L211 441 L212 444 L210 445 Z M299 441 L301 440 L302 442 L300 443 Z M244 437 L247 433 L254 435 L264 433 L267 439 L266 440 L245 440 Z M209 432 L211 433 L210 438 L208 437 Z M301 421 L303 422 L303 435 L302 436 L300 435 L300 422 Z M209 419 L211 420 L210 425 L208 424 Z M291 391 L293 390 L295 394 L293 395 Z M220 388 L221 390 L218 393 L217 391 Z M289 388 L291 387 L292 389 L290 390 Z M242 388 L252 384 L259 384 L269 388 L276 395 L278 400 L277 408 L274 409 L276 427 L271 435 L269 435 L261 426 L261 431 L254 432 L250 431 L248 428 L242 435 L238 435 L235 427 L237 401 L234 400 L234 397 Z M223 384 L224 386 L221 388 L220 386 Z M285 383 L287 382 L290 386 L288 387 Z M276 379 L288 392 L295 409 L297 439 L294 451 L290 452 L275 445 L276 439 L281 437 L286 424 L286 415 L281 412 L282 404 L278 392 L266 383 L253 381 L239 386 L231 396 L230 412 L225 415 L225 423 L230 436 L235 439 L237 448 L219 455 L214 440 L214 418 L219 400 L225 389 L236 378 L248 373 L263 373 Z M268 370 L270 369 L276 372 L284 380 L282 381 L278 377 L270 373 Z M243 370 L241 373 L234 376 L226 383 L224 382 L228 377 L241 369 Z M265 369 L267 368 L268 370 L266 371 Z M243 369 L245 368 L246 370 L244 371 Z M260 368 L264 367 L265 369 L261 370 Z M246 368 L251 367 L252 369 L247 370 Z M97 355 L53 399 L57 422 L48 446 L48 460 L59 477 L99 496 L140 476 L148 465 L150 448 L141 425 L143 395 Z M97 361 L124 378 L140 396 L143 406 L138 424 L147 446 L146 462 L136 475 L100 492 L62 476 L54 468 L49 453 L60 421 L55 408 L57 396 Z M411 354 L408 368 L398 381 L401 408 L389 412 L384 419 L381 447 L384 456 L368 463 L364 491 L395 495 L456 493 L459 491 L455 477 L457 466 L451 459 L441 456 L440 419 L436 412 L425 408 L426 380 L419 373 Z M432 463 L431 465 L422 470 L414 473 L411 472 L412 468 L420 464 L427 464 L430 462 Z M427 458 L425 461 L421 462 L419 461 L420 458 L425 457 Z M384 446 L386 445 L388 447 L391 447 L400 458 L405 457 L406 461 L402 463 L388 455 L384 450 Z M396 438 L398 439 L397 448 L394 447 Z M418 410 L419 412 L414 423 L410 422 L407 429 L403 430 L402 429 L403 427 L401 426 L401 429 L399 430 L396 426 L395 420 L393 421 L394 422 L394 438 L392 440 L391 445 L386 445 L385 436 L386 435 L386 423 L388 417 L392 413 L402 411 L407 407 L413 408 L414 410 Z M416 393 L420 394 L418 401 L415 398 Z M405 393 L410 394 L409 396 L409 401 L411 402 L410 404 L406 402 L404 397 Z M404 385 L407 382 L412 384 L413 383 L420 384 L419 387 L416 387 L413 389 L409 387 L405 387 Z M74 199 L57 218 L53 333 L60 339 L137 339 L145 331 L139 213 L129 202 L112 196 Z M56 331 L58 330 L60 334 L58 335 Z M133 328 L135 327 L136 329 L134 330 Z M61 327 L63 326 L64 328 L62 329 Z M142 313 L142 331 L137 336 L61 336 L60 335 L61 333 L136 333 L139 330 L139 313 L140 312 Z M68 313 L69 312 L128 312 L130 316 L124 319 L73 319 L68 317 Z M70 303 L72 301 L77 302 L94 302 L95 301 L97 302 L114 302 L115 301 L121 302 L125 301 L127 305 L125 307 L72 307 Z M57 298 L59 299 L59 315 L58 316 L56 315 L56 299 Z M73 292 L74 291 L123 291 L125 294 L123 296 L92 297 L91 296 L75 296 Z M139 283 L141 284 L141 301 L140 302 L138 301 L138 284 Z M76 280 L81 277 L84 277 L85 280 L99 281 L103 279 L108 279 L109 281 L114 280 L114 278 L116 277 L119 278 L122 281 L122 283 L118 286 L79 286 L76 284 Z M58 269 L60 270 L60 284 L59 285 L57 284 L57 270 Z M138 256 L140 257 L140 272 L139 273 L137 272 L137 257 Z M85 253 L90 250 L110 251 L113 254 L114 259 L114 272 L110 275 L108 274 L110 271 L110 260 L109 256 L107 256 L104 262 L104 272 L99 274 L93 273 L92 272 L93 263 L90 257 L87 256 L86 269 L91 274 L89 276 L83 271 Z M59 240 L61 241 L61 258 L60 259 L58 258 L58 241 Z M137 229 L139 230 L139 245 L138 246 L136 245 L136 230 Z M60 222 L62 223 L61 233 L59 232 Z M136 219 L138 220 L137 225 L135 224 Z M133 211 L135 212 L137 216 L136 218 L134 217 L132 213 Z M72 210 L85 205 L104 204 L118 207 L130 216 L133 229 L135 321 L129 310 L130 303 L126 299 L127 291 L123 288 L125 280 L116 274 L115 254 L113 250 L106 247 L107 234 L101 222 L99 208 L89 235 L92 247 L82 254 L81 274 L73 280 L71 299 L68 301 L65 319 L62 319 L65 223 Z M78 201 L79 202 L78 204 L72 206 L66 211 L63 217 L63 220 L61 221 L60 217 L64 209 L75 201 Z M79 201 L92 197 L106 197 L120 201 L128 205 L129 207 L126 208 L120 204 L108 201 L88 201 L80 203 Z M411 188 L368 240 L370 329 L383 341 L442 341 L454 330 L457 244 Z M440 316 L442 319 L442 324 L439 327 L435 328 L433 326 L433 320 L436 317 Z M421 319 L425 316 L428 316 L431 320 L431 324 L422 326 Z M384 316 L388 317 L391 320 L390 327 L385 327 L382 324 L382 318 Z M412 315 L417 318 L419 323 L415 325 L414 327 L408 327 L406 322 L407 319 Z M397 315 L400 315 L404 319 L404 323 L401 324 L400 328 L396 327 L393 324 L393 320 Z M431 315 L433 314 L434 316 L432 317 Z M418 315 L420 314 L421 316 L419 317 Z M404 315 L406 314 L407 316 L405 317 Z M390 315 L392 314 L393 316 L391 317 Z M439 304 L439 309 L436 311 L414 311 L413 310 L414 308 L422 305 L432 303 L433 300 L437 301 Z M385 307 L385 303 L391 299 L394 302 L415 303 L416 304 L415 306 L397 311 L389 311 Z M417 298 L419 297 L420 299 L418 300 Z M404 298 L408 297 L409 299 L405 300 Z M427 267 L429 269 L431 282 L431 292 L425 297 L422 296 L427 290 L426 278 L424 278 L421 292 L419 294 L409 295 L405 293 L405 282 L406 281 L403 279 L401 273 L400 273 L400 281 L398 290 L404 298 L402 299 L393 291 L395 270 L398 267 L407 264 L413 265 L416 263 L417 265 L411 274 L411 276 L413 277 L413 280 L415 279 L415 275 L419 265 Z M417 260 L419 259 L420 261 L418 262 Z M441 230 L443 229 L448 235 L446 236 Z M431 219 L433 218 L441 227 L439 228 Z M413 210 L444 245 L445 253 L440 261 L442 265 L442 299 L440 300 L433 296 L432 269 L420 261 L423 247 L420 239 L416 236 L414 219 L411 219 L409 235 L405 238 L402 247 L405 262 L397 265 L392 271 L391 293 L393 296 L383 301 L383 260 L380 257 L379 248 L384 239 Z M423 209 L425 208 L432 217 L430 218 L423 211 Z M412 193 L424 206 L424 208 L422 209 L413 199 L411 199 L381 233 L373 245 L373 256 L376 261 L376 328 L380 333 L385 335 L392 335 L393 331 L404 332 L405 335 L421 335 L423 331 L430 331 L431 335 L439 335 L446 332 L448 328 L448 261 L451 255 L451 245 L447 238 L449 236 L454 245 L454 256 L451 262 L451 329 L447 335 L441 338 L383 338 L378 336 L373 329 L373 263 L369 252 L370 244 L374 236 Z M255 188 L230 214 L216 242 L210 271 L214 314 L209 337 L239 342 L297 340 L302 337 L297 314 L301 295 L297 249 L281 214 Z M234 337 L235 336 L275 336 L276 338 L275 339 L235 339 Z M285 336 L290 335 L291 337 L286 338 Z M221 336 L227 335 L228 337 L222 338 Z M293 335 L296 334 L297 336 L294 337 Z M214 335 L217 334 L218 336 L215 337 Z M274 328 L281 327 L282 330 L278 332 Z M263 328 L270 327 L272 330 L270 332 L264 332 Z M250 328 L260 327 L261 330 L255 333 L252 332 Z M239 329 L241 327 L246 327 L247 331 L241 332 Z M284 327 L290 326 L291 330 L287 331 L284 329 Z M229 330 L229 328 L232 326 L237 328 L235 331 L232 332 Z M220 327 L226 326 L227 329 L224 331 L221 331 Z M293 326 L297 325 L298 328 L295 329 Z M213 325 L216 324 L218 327 L214 329 Z M216 316 L219 315 L228 317 L283 317 L294 315 L295 319 L294 320 L289 319 L287 321 L280 320 L278 322 L274 322 L273 320 L269 322 L264 322 L263 320 L261 320 L260 322 L251 322 L250 320 L248 320 L247 322 L241 322 L240 320 L238 320 L237 322 L233 322 L231 320 L224 321 L222 319 L217 320 Z M294 302 L296 301 L297 304 L295 305 Z M271 302 L270 304 L259 309 L254 308 L255 305 L260 304 L262 302 L269 301 Z M214 302 L216 301 L217 304 L215 305 Z M290 303 L290 310 L287 313 L282 313 L280 310 L270 310 L269 309 L270 307 L276 304 L282 303 L283 299 Z M220 306 L221 303 L227 299 L229 299 L230 302 L238 302 L247 304 L246 309 L242 309 L232 305 L231 307 L239 311 L236 314 L227 310 L224 313 L221 310 Z M262 297 L267 296 L268 298 L263 299 Z M243 297 L249 295 L250 299 L245 300 Z M295 295 L297 294 L298 296 L296 297 Z M213 295 L215 294 L216 297 L214 298 Z M278 279 L280 281 L280 290 L275 295 L272 295 L271 291 L275 288 L274 281 Z M233 279 L238 281 L237 285 L235 286 L235 288 L237 288 L240 291 L238 296 L234 294 L231 290 L231 282 Z M296 267 L298 268 L297 272 L295 271 Z M214 267 L216 268 L215 272 L213 271 Z M238 262 L241 262 L245 267 L248 269 L251 269 L255 273 L252 276 L250 283 L248 284 L246 283 L246 279 L241 272 L241 267 L239 267 L238 274 L234 272 L234 266 Z M272 261 L277 266 L277 272 L273 274 L272 268 L270 268 L269 275 L265 279 L264 292 L259 294 L249 293 L248 292 L249 289 L252 288 L256 284 L260 277 L262 270 Z M294 261 L296 260 L297 263 L295 264 Z M214 261 L216 260 L217 263 L215 264 Z M249 259 L251 257 L253 258 L260 257 L262 260 L259 262 L251 262 Z M293 256 L295 255 L296 257 L294 258 Z M269 256 L271 255 L272 257 L270 258 Z M215 256 L217 255 L218 257 L216 258 Z M292 252 L294 251 L295 253 L293 254 Z M216 252 L218 251 L219 253 L217 254 Z M291 248 L293 247 L294 249 L292 250 Z M217 248 L219 247 L220 249 L218 250 Z M263 243 L264 247 L262 252 L259 255 L257 255 L256 253 L258 251 L258 245 Z M248 243 L253 245 L253 251 L255 252 L254 255 L252 255 L248 251 L247 247 Z M248 236 L251 234 L254 235 L260 234 L263 237 L258 238 L255 241 L253 238 L249 238 Z M241 205 L256 191 L270 205 L270 207 L268 208 L256 196 L243 207 Z M405 44 L395 55 L392 76 L377 91 L377 128 L362 137 L360 155 L375 165 L453 164 L462 157 L464 143 L457 133 L446 128 L449 117 L446 90 L431 76 L433 67 L426 49 L415 43 Z M460 141 L461 148 L459 155 L453 160 L447 161 L432 160 L414 155 L417 151 L432 144 L447 143 L447 141 L445 140 L445 137 L440 134 L441 132 L449 132 L455 135 Z M363 152 L363 142 L365 138 L374 132 L383 132 L400 136 L399 138 L381 139 L377 141 L378 143 L385 141 L409 141 L413 140 L418 136 L428 136 L433 134 L439 137 L437 140 L428 142 L405 154 L388 160 L375 161 L369 159 Z M412 101 L414 102 L417 114 L422 124 L428 130 L426 133 L406 135 L398 133 L396 131 L399 126 L403 123 L408 113 L410 103 Z M410 72 L411 87 L403 115 L394 127 L390 129 L384 129 L380 126 L378 120 L378 102 L380 93 L383 87 L388 82 L393 80 L395 81 L398 91 L384 113 L386 114 L401 90 L397 79 L397 74 L402 72 Z M415 72 L424 72 L426 80 L423 86 L423 92 L438 115 L440 115 L440 113 L428 94 L426 88 L430 81 L434 81 L442 89 L445 101 L445 122 L441 129 L432 129 L422 117 L414 90 L413 77 Z M397 57 L404 48 L413 46 L423 51 L425 54 L426 60 L424 61 L423 58 L419 56 L414 56 L413 58 L409 56 L405 56 L401 58 L400 62 L398 63 Z M251 34 L242 40 L237 55 L245 73 L226 82 L222 89 L218 123 L222 133 L204 141 L203 158 L216 166 L300 165 L308 159 L310 146 L304 137 L293 133 L296 119 L287 81 L266 73 L273 60 L270 42 L260 34 Z M278 160 L280 159 L281 161 L279 162 Z M283 155 L289 154 L290 157 L289 158 L284 157 Z M243 147 L246 146 L252 148 L258 148 L265 146 L267 151 L267 156 L266 157 L264 156 L260 157 L243 156 L242 155 Z M287 141 L285 144 L281 145 L272 151 L269 150 L269 145 L271 143 L276 143 L280 140 Z M293 136 L300 138 L306 144 L307 151 L303 158 L301 156 L295 158 L292 157 L293 152 L291 151 L291 146 L292 145 L297 146 L297 144 L294 142 L294 139 L292 138 Z M211 138 L214 138 L216 136 L222 136 L223 139 L221 140 L222 142 L230 143 L240 148 L239 154 L235 155 L221 148 L221 150 L224 151 L226 154 L235 158 L235 160 L232 162 L221 160 L213 153 L212 145 L210 145 L209 148 L206 147 L206 144 Z M276 136 L273 140 L263 144 L260 143 L264 139 L260 137 L261 135 L274 134 Z M275 131 L277 129 L281 130 L285 136 L282 137 Z M268 130 L270 129 L271 131 L269 132 Z M273 124 L274 126 L271 129 L270 126 Z M248 124 L249 126 L248 128 L243 130 L238 129 L240 126 L242 126 L245 123 Z M288 121 L289 130 L285 132 L280 129 L279 126 L284 125 L284 122 Z M237 122 L239 121 L240 123 L238 124 Z M288 116 L290 115 L291 117 L289 118 Z M284 115 L286 114 L287 116 L285 117 Z M254 113 L255 114 L254 118 L248 123 L247 121 L251 117 L251 115 Z M283 108 L285 105 L290 106 L289 108 L285 109 Z M259 103 L261 102 L262 104 L260 105 Z M255 102 L256 104 L251 112 L245 118 L245 120 L242 121 L240 116 Z M254 96 L255 98 L245 109 L239 112 L237 108 L245 100 L247 100 L251 96 Z M247 94 L248 96 L240 102 L239 100 Z M284 93 L286 92 L287 95 L285 96 Z M255 88 L256 89 L255 92 L253 94 L250 94 L249 92 Z M236 82 L240 86 L248 87 L249 89 L236 98 L234 97 L234 95 L232 95 L230 118 L225 119 L225 121 L227 121 L239 135 L245 134 L249 135 L247 138 L250 141 L246 143 L238 140 L229 134 L222 127 L226 87 L230 83 Z M283 82 L284 84 L280 97 L278 99 L275 99 L273 106 L268 115 L268 117 L271 118 L268 124 L268 127 L264 132 L260 134 L254 134 L253 132 L255 127 L261 118 L258 115 L262 110 L264 104 L261 101 L262 95 L267 92 L270 80 L274 79 Z M239 81 L242 79 L247 81 L247 79 L250 78 L252 82 L254 80 L257 80 L258 82 L251 88 L249 88 L248 85 L241 84 Z M247 69 L251 68 L254 71 L257 71 L258 69 L262 69 L263 72 L259 75 L252 75 L247 71 Z M247 40 L251 38 L260 38 L266 43 L266 52 L265 53 L259 52 L257 54 L257 58 L261 58 L264 55 L266 56 L266 61 L263 65 L259 61 L257 63 L251 62 L249 65 L245 62 L244 59 L245 56 L249 58 L251 57 L254 58 L253 53 L245 52 L245 43 Z M96 17 L94 29 L87 39 L89 58 L83 60 L78 68 L76 113 L80 119 L86 115 L84 131 L90 146 L79 152 L76 170 L85 174 L101 175 L114 173 L121 165 L118 154 L105 147 L107 137 L112 135 L118 71 L116 63 L104 57 L107 38 Z M117 166 L115 169 L107 171 L89 171 L80 168 L81 166 L90 168 L105 168 L115 165 Z M115 159 L113 162 L105 164 L92 164 L86 163 L83 161 L84 159 L99 161 L108 160 L113 158 Z M96 153 L98 154 L97 157 L94 156 Z M83 153 L86 152 L87 155 L85 156 Z M107 152 L110 151 L113 152 L114 154 L111 156 L108 156 Z M100 149 L102 148 L103 151 L101 152 Z M91 149 L93 148 L94 150 L92 151 Z M92 145 L94 144 L95 147 L93 148 Z M101 138 L103 137 L104 139 L102 140 Z M90 136 L93 135 L95 138 L91 139 Z M79 106 L81 105 L82 108 L80 109 Z M111 96 L112 98 L109 106 L105 126 L105 130 L108 130 L109 133 L105 135 L98 135 L97 128 L100 102 L105 100 L108 96 Z M113 83 L116 84 L115 92 L111 91 Z M95 83 L96 92 L94 99 L98 100 L95 130 L93 133 L91 133 L89 126 L90 121 L87 107 L87 98 L89 90 L91 89 L90 85 Z M113 79 L115 78 L116 80 L114 81 Z M109 75 L111 74 L112 76 L110 77 Z M106 73 L104 85 L105 95 L104 98 L101 99 L100 98 L101 75 L103 72 Z M104 70 L106 69 L107 71 L105 72 Z M105 66 L107 65 L108 67 L106 68 Z M110 64 L113 63 L115 67 L114 68 L111 67 Z M100 58 L102 60 L100 71 L92 81 L89 80 L85 68 L84 69 L85 88 L84 93 L82 94 L81 93 L81 66 L83 63 L90 61 L94 58 Z M99 47 L102 48 L101 53 L98 50 Z M101 40 L103 44 L102 45 L98 44 L98 48 L95 51 L93 51 L92 42 L94 40 Z M93 36 L101 35 L102 37 L94 38 Z"/></svg>
