<svg xmlns="http://www.w3.org/2000/svg" width="512" height="512" viewBox="0 0 512 512" aria-hidden="true" focusable="false"><path fill="currentColor" fill-rule="evenodd" clip-rule="evenodd" d="M17 355 L24 378 L38 392 L48 380 L56 358 L41 328 L43 312 L58 297 L70 293 L102 295 L146 308 L154 317 L180 318 L188 310 L214 306 L238 322 L257 317 L276 322 L300 306 L326 310 L333 318 L360 317 L367 308 L432 291 L455 297 L470 312 L472 328 L458 352 L458 361 L475 392 L488 380 L496 359 L481 327 L484 316 L480 295 L465 276 L453 270 L419 268 L371 283 L360 274 L333 276 L321 285 L328 267 L323 239 L349 204 L356 168 L345 141 L329 127 L310 121 L278 128 L257 150 L241 132 L221 122 L197 122 L177 132 L163 149 L157 178 L165 205 L191 237 L185 264 L193 285 L180 276 L153 274 L143 283 L94 268 L60 270 L36 289 L29 317 L32 328 Z M476 354 L479 356 L479 362 L484 367 L484 371 L479 374 L478 379 L476 379 L474 377 L474 374 L469 371 L470 365 L474 362 Z M36 354 L39 356 L39 362 L44 367 L44 371 L39 374 L39 377 L37 380 L35 379 L34 374 L29 370 L30 366 L34 362 L34 357 Z M466 352 L468 353 L467 359 L464 358 L464 355 Z M46 352 L49 355 L48 359 L45 357 Z M27 352 L28 357 L25 359 L24 355 Z M485 350 L489 354 L488 359 L485 357 L484 352 Z M478 344 L480 343 L485 349 L483 350 Z M474 343 L475 345 L469 350 L468 348 Z M38 344 L40 343 L45 349 L43 350 Z M34 343 L35 345 L29 350 L28 348 Z M475 334 L477 333 L478 336 L476 337 Z M35 334 L37 333 L38 336 L36 337 Z M475 319 L477 318 L478 320 L476 321 Z M35 319 L37 318 L38 320 L36 321 Z M176 304 L178 305 L179 308 L178 310 L175 307 Z M293 302 L290 306 L285 310 L279 312 L278 314 L267 314 L266 311 L270 307 L276 306 L282 303 L286 299 Z M307 299 L313 293 L328 293 L329 294 L328 302 L308 301 Z M175 292 L177 293 L176 303 L174 302 Z M235 293 L241 288 L244 288 L248 292 L249 296 L242 299 L237 297 Z M336 287 L338 288 L339 291 L339 304 L337 309 L335 308 L336 304 L335 288 Z M275 291 L275 293 L256 310 L250 312 L249 314 L236 314 L233 311 L229 310 L222 303 L223 300 L229 299 L238 306 L239 305 L247 306 L257 300 L270 287 Z M334 285 L336 284 L337 286 L335 287 Z M178 284 L179 287 L178 291 L176 292 L175 288 L176 285 Z M345 283 L348 284 L350 291 L350 302 L347 310 L345 309 L346 305 L346 289 L344 285 Z M166 283 L169 284 L167 292 L167 303 L168 304 L167 310 L164 307 L163 291 Z M356 281 L358 282 L360 288 L360 305 L358 309 L356 308 L357 304 L357 289 L355 283 Z M157 281 L158 282 L156 291 L157 308 L155 309 L153 304 L153 289 L155 282 Z M237 281 L233 286 L227 290 L206 300 L196 302 L185 302 L184 301 L185 293 L198 293 L201 291 L203 292 L205 290 L219 286 L221 283 L225 282 L231 277 L233 277 Z M474 299 L474 301 L472 302 L465 295 L456 289 L439 285 L427 284 L425 286 L409 288 L389 296 L369 301 L367 300 L367 291 L388 287 L395 283 L414 278 L416 276 L441 275 L459 281 L469 290 L472 298 Z M41 297 L45 289 L53 282 L64 278 L66 276 L72 275 L97 276 L99 278 L109 280 L126 287 L146 291 L146 299 L138 300 L136 298 L115 293 L108 289 L89 286 L87 284 L74 285 L55 290 L43 300 L41 299 Z M265 266 L271 267 L279 275 L288 281 L290 285 L286 289 L279 285 L263 271 Z M305 257 L306 266 L304 267 L301 274 L296 278 L295 276 L291 275 L288 271 Z M207 258 L212 257 L226 270 L226 272 L217 278 L210 270 L209 265 L207 264 Z M300 249 L290 260 L282 266 L278 265 L274 260 L277 255 L279 255 L288 248 L296 247 Z M216 248 L223 247 L252 275 L261 286 L256 290 L216 250 Z M316 246 L321 256 L320 271 L318 272 L315 280 L300 296 L297 296 L293 292 L300 286 L311 272 L311 269 L313 267 L313 255 L310 249 Z M310 239 L309 246 L307 246 L302 241 L288 240 L285 243 L276 247 L268 255 L266 255 L255 267 L249 263 L249 261 L252 258 L254 258 L265 246 L284 233 L299 232 L305 234 Z M251 248 L251 250 L248 253 L244 253 L240 248 L238 248 L226 240 L219 239 L211 241 L204 247 L200 255 L200 265 L202 267 L203 273 L209 281 L205 283 L201 283 L196 276 L192 261 L193 253 L199 241 L203 237 L205 237 L207 234 L219 231 L227 232 L234 235 L240 240 L242 240 L247 246 Z M165 170 L172 150 L184 137 L210 129 L229 134 L244 145 L251 165 L241 175 L243 181 L256 171 L271 181 L273 176 L263 166 L267 149 L281 136 L306 129 L328 136 L339 147 L348 180 L341 202 L318 232 L302 225 L286 225 L256 244 L229 225 L210 225 L195 231 L172 201 Z"/></svg>
