<svg xmlns="http://www.w3.org/2000/svg" width="512" height="512" viewBox="0 0 512 512" aria-hidden="true" focusable="false"><path fill="currentColor" fill-rule="evenodd" clip-rule="evenodd" d="M255 296 L241 308 L238 314 L228 321 L220 333 L231 347 L239 350 L239 354 L247 362 L258 368 L272 357 L276 349 L281 348 L286 343 L293 330 L282 316 L276 314 L260 297 Z M265 353 L265 356 L262 359 L260 359 L258 362 L256 362 L249 356 L250 353 L256 357 L258 357 L263 352 Z M253 342 L254 344 L252 349 L250 350 L249 345 L251 342 Z M261 341 L264 344 L263 347 L260 344 Z M252 340 L254 339 L255 341 L253 342 Z M271 338 L274 337 L275 339 L272 340 Z M238 338 L241 336 L243 337 L242 340 L239 340 Z M267 336 L269 335 L270 337 L268 338 Z M247 334 L249 333 L250 335 L248 336 Z M256 326 L259 327 L257 331 L255 330 Z M283 325 L287 333 L280 340 L279 338 L282 333 L280 326 Z M272 326 L270 329 L267 330 L264 329 L266 326 L270 325 Z M243 326 L245 325 L249 327 L250 329 L249 330 L244 329 Z M233 324 L235 325 L235 329 L232 330 L231 333 L235 336 L236 338 L235 340 L232 340 L227 334 L228 328 Z M263 315 L264 319 L261 322 L260 319 L261 316 Z M250 314 L253 317 L252 321 L249 318 Z M249 309 L250 306 L256 302 L264 306 L263 309 L260 309 L259 307 L255 307 L251 310 Z M56 356 L106 358 L156 346 L208 321 L257 283 L304 320 L357 346 L399 357 L458 358 L455 354 L431 352 L388 341 L334 318 L294 291 L267 262 L257 244 L245 264 L225 286 L180 318 L109 346 Z M17 319 L21 335 L28 340 L55 346 L94 341 L144 325 L182 307 L213 285 L241 255 L257 222 L272 254 L295 280 L324 302 L397 335 L452 346 L484 341 L496 328 L493 309 L466 268 L467 247 L450 268 L448 292 L463 323 L464 300 L469 298 L474 304 L479 323 L468 331 L445 329 L401 313 L327 268 L281 216 L257 144 L231 219 L209 247 L178 275 L113 313 L69 329 L45 331 L35 321 L39 305 L49 299 L51 324 L66 288 L63 266 L45 244 L47 270 Z"/></svg>
