<svg xmlns="http://www.w3.org/2000/svg" width="512" height="512" viewBox="0 0 512 512" aria-hidden="true" focusable="false"><path fill="currentColor" fill-rule="evenodd" clip-rule="evenodd" d="M122 415 L123 423 L130 425 L130 428 L128 430 L129 432 L132 431 L133 429 L132 421 L134 417 L130 414 Z M126 417 L128 416 L129 418 L127 419 Z M389 399 L393 402 L393 407 L395 409 L398 407 L403 409 L405 406 L407 406 L407 404 L405 403 L403 399 L400 399 L397 397 Z M395 403 L398 402 L399 404 L396 405 Z M145 398 L145 400 L148 401 L149 409 L152 409 L154 407 L158 409 L161 406 L163 406 L163 404 L160 403 L159 399 L152 397 Z M150 403 L155 402 L156 404 L151 405 Z M417 374 L415 386 L421 391 L421 409 L433 426 L426 428 L428 434 L481 434 L483 432 L482 428 L474 428 L473 424 L468 425 L467 421 L463 420 L462 412 L458 411 L457 400 L462 399 L463 390 L481 390 L482 404 L479 411 L479 423 L487 409 L487 391 L492 387 L492 376 L477 374 L461 366 L447 366 L436 369 L431 374 Z M430 389 L440 389 L443 391 L444 399 L454 400 L454 402 L452 403 L452 411 L448 413 L446 421 L441 422 L431 413 L428 405 L428 393 Z M370 350 L369 359 L366 362 L364 368 L365 375 L360 386 L361 390 L352 396 L348 391 L335 392 L333 395 L336 396 L335 402 L347 402 L349 399 L354 398 L359 400 L355 404 L355 409 L359 410 L361 409 L361 406 L364 405 L371 410 L373 413 L369 414 L366 417 L366 419 L369 424 L375 425 L375 428 L372 430 L373 432 L378 428 L379 418 L374 415 L373 412 L378 412 L383 407 L383 400 L381 396 L383 388 L378 384 L377 378 L373 373 Z M358 395 L360 394 L361 396 L359 397 Z M361 399 L368 397 L367 393 L370 392 L379 397 L380 407 L378 409 L374 409 L368 404 L362 402 Z M362 390 L368 386 L375 386 L378 387 L381 391 L377 392 L374 390 L369 390 L363 392 Z M126 349 L124 352 L124 360 L120 368 L121 374 L117 380 L116 385 L117 390 L106 397 L104 396 L104 391 L90 392 L88 394 L92 396 L90 398 L90 402 L95 402 L96 398 L98 399 L98 402 L102 402 L105 399 L110 398 L114 400 L110 404 L110 408 L113 410 L117 409 L118 405 L121 406 L126 411 L133 412 L138 408 L138 401 L136 394 L139 392 L139 388 L133 384 L132 378 L130 377 L130 374 L128 372 Z M123 392 L128 393 L134 397 L135 399 L134 408 L129 409 L122 403 L117 401 L118 398 L123 398 L122 394 Z M117 390 L123 386 L131 386 L136 389 L135 392 L132 392 L129 390 L118 392 Z M248 344 L243 366 L247 368 L236 370 L235 383 L232 383 L230 362 L228 362 L223 380 L224 384 L229 387 L221 394 L221 381 L216 380 L211 390 L215 398 L212 407 L217 409 L212 412 L212 417 L219 417 L221 415 L220 409 L224 405 L228 410 L223 419 L226 428 L230 424 L242 424 L245 418 L250 424 L270 424 L272 417 L281 416 L282 405 L279 402 L283 399 L284 389 L280 385 L281 379 L278 378 L277 366 L274 364 L274 372 L270 381 L272 390 L270 391 L259 383 L261 381 L260 373 L250 368 Z M238 415 L240 414 L241 416 L239 417 Z M251 414 L253 413 L254 415 L252 416 Z M270 406 L274 409 L272 416 L266 414 L266 412 L269 411 Z M259 406 L261 407 L261 410 L263 412 L262 418 L257 416 L257 410 Z M238 405 L242 408 L240 412 L238 411 L237 408 Z M265 404 L267 403 L268 405 L266 406 Z M225 401 L227 400 L228 403 L226 404 Z M260 400 L262 399 L263 402 L261 403 Z M242 398 L244 397 L245 399 L243 400 Z M220 398 L222 397 L223 399 L221 400 Z M231 396 L233 397 L232 402 L230 401 Z M270 393 L273 395 L271 399 L269 398 Z M251 393 L254 390 L259 390 L264 393 L264 397 L262 398 L260 394 L255 394 L252 396 Z M232 395 L232 393 L237 389 L240 389 L244 392 L243 394 L238 393 L235 394 L234 396 Z M241 382 L249 381 L250 385 L246 387 L242 385 Z M240 376 L242 375 L243 370 L248 370 L253 372 L252 379 L241 379 Z M357 317 L357 320 L359 322 L365 322 L370 326 L376 326 L382 323 L385 326 L389 327 L390 323 L389 319 L391 318 L391 315 L387 312 L378 311 L373 312 L372 310 L369 310 L368 313 L362 312 Z M383 315 L385 316 L384 320 L381 318 Z M150 295 L150 299 L155 303 L158 303 L161 300 L161 296 L167 291 L168 294 L165 296 L164 300 L171 303 L172 296 L175 293 L175 290 L172 291 L169 288 L161 289 L157 288 Z M125 292 L125 296 L129 297 L126 301 L131 301 L136 304 L142 304 L145 303 L147 300 L147 295 L145 294 L147 289 L132 287 Z M134 298 L138 297 L139 300 L136 301 Z M386 284 L380 290 L372 288 L373 282 L368 287 L359 287 L355 292 L354 302 L348 306 L341 301 L348 294 L346 285 L349 272 L340 267 L327 279 L340 283 L344 295 L335 288 L323 288 L316 294 L318 302 L325 302 L334 296 L335 302 L338 303 L334 311 L328 306 L313 312 L306 301 L298 300 L293 307 L305 307 L307 310 L304 313 L297 311 L292 315 L292 310 L287 313 L261 312 L260 309 L213 312 L212 309 L217 303 L215 302 L205 312 L198 309 L192 313 L180 309 L166 309 L163 312 L158 309 L152 312 L142 309 L134 314 L131 311 L125 319 L125 324 L150 325 L155 322 L158 325 L173 325 L181 318 L182 325 L196 325 L191 330 L192 334 L201 331 L210 333 L211 327 L220 321 L235 326 L243 318 L247 319 L244 323 L252 322 L262 326 L268 321 L275 326 L275 318 L280 314 L283 316 L278 321 L285 326 L289 321 L298 327 L305 318 L311 326 L335 326 L345 312 L351 319 L352 338 L345 343 L347 330 L341 327 L336 331 L336 336 L342 338 L335 344 L349 346 L356 336 L352 309 L357 302 L381 302 L384 299 L382 293 Z M205 320 L207 321 L209 325 L206 328 L204 328 L202 325 Z M325 320 L327 319 L328 321 L326 322 Z M332 319 L334 318 L336 321 L333 323 Z M256 319 L260 318 L262 321 L259 323 L256 321 Z M175 319 L172 323 L165 322 L166 320 L171 320 L173 318 Z M216 318 L218 317 L219 319 L217 320 Z M190 318 L193 316 L195 319 L191 320 Z M153 319 L154 316 L159 317 L158 319 L155 320 Z M206 316 L208 315 L209 317 L207 318 Z M135 315 L137 318 L133 320 L132 317 Z M310 314 L311 316 L307 318 L306 316 Z M264 317 L265 314 L271 315 L268 319 Z M338 308 L340 309 L339 312 L336 311 Z M373 297 L375 296 L378 299 L375 301 Z M173 273 L171 272 L171 269 L166 264 L162 263 L153 268 L154 272 L151 274 L151 278 L159 277 L169 278 Z M281 252 L278 252 L274 257 L269 257 L263 254 L259 255 L256 258 L244 257 L237 261 L236 267 L234 268 L232 273 L247 279 L250 279 L257 274 L269 278 L275 274 L278 270 L278 267 L273 265 L271 262 L275 261 L280 256 Z M251 267 L253 269 L253 272 L247 275 L246 273 L248 271 L248 268 Z M258 265 L260 263 L263 263 L271 269 L271 271 L268 274 L266 274 L262 271 L262 268 L259 267 Z M254 263 L256 262 L257 264 L255 265 Z M149 233 L151 236 L156 236 L159 234 L167 235 L169 232 L172 235 L176 235 L176 230 L179 227 L179 225 L172 222 L169 223 L159 222 L152 226 L152 229 Z M170 226 L173 227 L171 230 L168 229 Z M212 217 L211 224 L205 230 L205 238 L208 241 L216 241 L219 239 L220 236 L217 233 L212 234 L209 233 L215 225 L215 219 Z M449 216 L442 242 L449 246 L432 254 L432 269 L427 270 L428 258 L425 241 L422 240 L422 250 L416 266 L418 271 L426 272 L413 283 L413 266 L405 265 L400 277 L406 278 L402 282 L406 289 L402 300 L408 302 L407 306 L401 307 L402 314 L412 313 L411 301 L415 297 L425 305 L415 317 L414 322 L420 324 L418 328 L425 323 L434 322 L436 318 L442 323 L443 315 L449 315 L451 323 L458 323 L462 318 L465 323 L478 323 L480 315 L472 308 L477 306 L480 298 L484 304 L483 314 L493 312 L492 302 L495 299 L487 293 L493 293 L496 289 L494 285 L497 277 L493 276 L494 264 L488 258 L487 243 L484 243 L484 253 L479 265 L482 272 L482 293 L479 294 L477 278 L463 268 L466 263 L458 263 L464 260 L464 254 L452 249 Z M432 310 L433 312 L430 314 L429 312 Z M453 309 L455 308 L457 311 L454 312 Z M441 309 L444 308 L448 309 L449 311 L445 313 Z M444 302 L447 301 L448 303 L445 304 Z M459 298 L467 299 L468 301 L467 306 L468 310 L470 311 L468 316 L460 314 L460 307 L462 303 L455 302 Z M447 298 L450 297 L451 299 L448 300 Z M435 297 L443 301 L438 308 L439 312 L438 315 L434 314 L436 304 L433 301 Z M474 294 L476 295 L475 298 L472 297 Z M448 293 L450 292 L451 294 L449 295 Z M455 291 L457 290 L458 292 L456 293 Z M420 290 L422 291 L425 299 L428 301 L427 303 L424 302 L418 295 L418 292 Z M431 288 L434 287 L437 292 L432 293 Z M406 288 L408 286 L411 288 L414 287 L415 290 L412 292 L407 290 Z M487 284 L489 283 L490 285 L488 286 Z M473 279 L476 281 L475 289 L472 288 Z M453 280 L458 277 L463 277 L470 282 L470 294 L467 297 L465 296 L466 290 L465 283 L457 284 L454 287 L452 283 Z M445 281 L444 284 L437 285 L436 283 L430 285 L429 289 L430 297 L428 298 L425 292 L425 288 L428 281 L433 277 L439 277 Z M456 275 L455 277 L451 279 L449 278 L450 276 L454 274 Z M456 273 L458 272 L459 274 L457 275 Z M439 273 L438 275 L430 276 L424 282 L422 288 L419 286 L419 284 L428 274 L432 272 Z M407 273 L409 272 L410 274 L408 275 Z M408 269 L410 268 L411 270 L409 271 Z M439 267 L444 265 L452 265 L453 271 L450 274 L447 274 L441 271 Z M458 258 L459 255 L462 256 L460 259 Z M437 260 L440 257 L439 255 L440 252 L453 252 L456 254 L456 261 L454 263 L438 263 Z M66 215 L59 242 L65 248 L49 254 L52 262 L45 271 L40 240 L34 270 L43 272 L32 284 L29 280 L30 265 L22 265 L19 269 L20 275 L16 277 L21 279 L19 287 L23 289 L18 300 L24 302 L18 308 L18 314 L30 313 L29 301 L32 297 L41 305 L32 321 L38 324 L36 328 L41 323 L52 322 L54 318 L59 323 L60 315 L66 315 L68 323 L76 323 L79 318 L82 323 L95 323 L98 315 L88 308 L95 305 L97 297 L102 304 L99 308 L100 314 L109 313 L111 299 L104 293 L113 289 L111 285 L114 277 L110 276 L110 264 L106 262 L103 242 L101 256 L96 265 L100 284 L97 289 L95 278 L79 268 L82 263 L54 262 L58 252 L71 252 L74 260 L81 259 L79 252 L69 249 Z M40 311 L42 310 L43 312 L41 313 Z M69 309 L72 308 L74 311 L71 312 Z M58 309 L61 308 L65 309 L66 311 L64 313 L61 313 Z M73 300 L82 298 L84 299 L84 306 L87 311 L84 316 L76 314 L78 312 L77 307 L79 303 L78 302 L73 303 L72 302 Z M64 298 L67 297 L68 299 L65 300 Z M52 297 L60 301 L56 306 L55 315 L52 314 L53 304 L51 303 Z M89 297 L91 296 L92 298 L90 299 Z M64 293 L67 292 L68 294 L65 295 Z M95 292 L98 291 L99 293 L96 294 Z M72 291 L74 290 L75 292 L73 293 Z M37 290 L39 291 L39 294 L44 301 L43 303 L34 294 Z M59 288 L61 287 L62 289 L60 290 Z M49 288 L52 287 L54 292 L50 293 Z M23 288 L32 287 L33 290 L29 292 L24 290 Z M104 284 L106 283 L107 285 L105 286 Z M90 279 L92 280 L91 289 L89 288 Z M69 281 L75 277 L80 277 L86 282 L86 295 L85 296 L82 295 L82 283 L80 284 L76 283 L71 287 Z M62 281 L61 284 L51 283 L47 285 L46 287 L47 297 L45 298 L42 294 L42 286 L44 282 L49 277 L56 277 Z M83 276 L85 275 L86 277 L84 278 Z M44 275 L45 277 L42 280 L40 286 L37 288 L35 285 L40 278 Z M45 274 L47 273 L48 275 L46 276 Z M79 273 L81 272 L84 275 L82 276 Z M77 273 L76 275 L68 279 L66 278 L67 276 L74 272 Z M48 273 L55 272 L56 274 L49 275 Z M57 267 L61 265 L68 265 L69 272 L66 274 L63 274 L57 270 Z M76 256 L78 255 L79 257 L77 258 Z M370 188 L368 188 L369 213 L366 215 L362 232 L364 237 L362 239 L359 237 L353 246 L348 248 L341 245 L342 243 L345 243 L345 228 L339 224 L330 226 L328 228 L330 232 L329 235 L335 237 L342 236 L343 242 L338 245 L331 244 L326 250 L326 257 L329 260 L333 260 L335 258 L348 260 L352 256 L359 258 L362 255 L370 255 L374 259 L381 259 L387 255 L388 249 L386 237 L380 230 L379 221 L372 214 Z M342 254 L344 253 L347 256 L344 257 Z M352 249 L355 251 L354 255 L350 253 Z M370 243 L373 242 L374 243 L373 247 L379 252 L381 251 L382 246 L384 245 L385 254 L380 257 L377 257 L376 253 L371 251 Z M368 234 L370 232 L374 232 L380 234 L382 237 L372 238 Z M284 175 L284 178 L287 177 L288 178 L287 182 L292 186 L295 186 L297 181 L299 181 L305 187 L309 185 L307 172 L302 171 L295 172 L292 170 L288 170 Z M288 177 L290 176 L291 178 L289 179 Z M224 164 L221 166 L212 165 L211 162 L209 162 L205 167 L199 166 L196 168 L193 175 L195 175 L196 178 L203 176 L210 181 L216 180 L222 175 L222 172 L220 171 L220 169 L224 166 Z M341 134 L339 135 L339 156 L337 157 L337 166 L333 167 L332 177 L334 179 L330 182 L330 186 L327 189 L330 194 L335 196 L334 201 L337 206 L327 206 L321 213 L324 215 L324 217 L331 217 L335 221 L343 218 L351 220 L352 209 L349 206 L355 201 L355 182 L350 175 L347 160 L343 159 L341 153 Z M337 194 L339 192 L344 195 L348 195 L351 193 L352 198 L347 203 L341 203 L340 201 L342 197 L338 196 Z M349 188 L351 187 L352 189 L350 190 Z M338 187 L340 186 L342 190 L340 191 Z M338 177 L344 176 L348 179 L348 181 L346 182 L339 179 Z M162 122 L162 146 L147 172 L147 190 L157 198 L148 209 L151 214 L169 211 L176 214 L178 206 L181 219 L194 235 L177 254 L174 244 L161 242 L151 246 L149 255 L151 239 L144 235 L145 223 L136 187 L135 213 L121 237 L122 256 L135 259 L143 255 L147 265 L149 256 L157 256 L164 250 L169 256 L176 254 L179 267 L187 273 L177 282 L183 295 L194 296 L201 291 L210 294 L200 301 L227 296 L237 286 L234 277 L220 281 L227 274 L229 261 L219 257 L217 251 L209 257 L200 252 L204 211 L213 205 L226 208 L230 219 L218 228 L223 228 L222 233 L242 247 L258 248 L271 238 L280 243 L284 222 L257 223 L251 218 L244 222 L239 234 L236 224 L240 216 L233 218 L234 211 L245 209 L253 215 L263 209 L275 217 L280 211 L289 210 L296 217 L296 241 L288 253 L288 260 L294 265 L288 276 L295 278 L296 293 L300 239 L304 232 L300 229 L300 214 L288 206 L272 210 L264 205 L231 207 L229 202 L239 191 L247 194 L251 202 L260 193 L269 194 L275 202 L287 195 L298 195 L315 209 L316 254 L308 270 L308 280 L317 287 L319 253 L324 239 L318 243 L317 205 L299 191 L276 195 L270 190 L251 192 L236 188 L227 192 L217 185 L198 187 L181 202 L172 199 L164 202 L160 198 L167 193 L161 187 L163 180 L173 187 L177 168 L170 173 L159 170 L150 180 L153 169 L162 165 L173 167 Z M234 282 L233 286 L227 293 L216 295 L213 294 L220 286 L225 286 L231 280 Z M181 286 L181 282 L186 278 L190 278 L207 283 L213 283 L216 281 L218 282 L217 285 L211 290 L206 289 L203 285 L200 284 L199 288 L192 293 L184 291 Z M314 263 L316 264 L316 281 L315 282 L311 279 L311 271 Z M225 264 L225 269 L223 272 L211 280 L202 279 L197 277 L200 274 L209 274 L215 271 L222 262 Z M213 255 L215 254 L216 256 L214 257 Z M294 248 L296 249 L296 260 L295 261 L290 257 L291 252 Z M124 246 L127 245 L128 247 L136 248 L138 245 L140 245 L142 250 L139 252 L133 252 L133 256 L128 257 L124 253 Z M181 257 L183 253 L191 245 L197 242 L198 243 L197 253 L200 258 L207 261 L213 261 L216 259 L218 261 L213 267 L209 269 L193 270 L188 268 L182 263 Z M143 238 L144 241 L141 243 L140 241 Z M140 233 L139 236 L134 235 L126 242 L124 241 L128 233 L133 231 L138 231 Z M264 231 L264 233 L258 238 L247 238 L246 237 L250 232 L256 233 L260 229 Z M276 224 L277 227 L272 232 L269 228 L273 224 Z M263 225 L265 224 L267 227 L265 228 Z M168 206 L169 203 L173 204 L171 207 Z M219 190 L226 197 L226 202 L224 203 L220 201 L212 201 L206 203 L200 210 L198 217 L198 228 L196 229 L183 213 L184 207 L191 197 L203 189 L215 188 Z M151 186 L159 187 L160 192 L155 193 L150 189 Z M296 110 L296 136 L295 137 L296 142 L294 144 L295 149 L291 151 L293 155 L288 159 L288 164 L293 168 L304 168 L306 166 L305 155 L301 152 L302 147 L299 146 L300 144 L302 144 L302 142 L299 139 L300 137 L302 137 L302 135 L299 133 L298 110 Z M293 160 L295 161 L294 165 L291 163 Z M211 101 L210 102 L210 124 L208 126 L209 131 L207 133 L207 136 L209 137 L209 139 L203 142 L206 145 L200 150 L200 154 L206 159 L216 159 L219 156 L219 151 L217 149 L218 145 L213 142 L216 136 L214 134 L215 129 L213 127 L212 102 Z M255 80 L252 114 L253 120 L248 123 L249 126 L245 130 L246 138 L252 141 L247 145 L247 151 L250 154 L248 159 L249 164 L243 168 L242 173 L236 174 L235 179 L238 184 L271 185 L275 183 L276 177 L274 174 L268 173 L266 166 L262 164 L260 156 L264 149 L262 144 L257 142 L265 135 L264 132 L260 129 L261 118 L259 116 L259 106 L257 105 Z M239 177 L244 175 L271 176 L272 180 L271 181 L241 181 Z M246 169 L250 166 L262 167 L264 171 L261 173 L250 173 Z M252 160 L256 159 L258 163 L254 165 Z M250 130 L252 131 L251 137 L248 134 Z"/></svg>
