<svg xmlns="http://www.w3.org/2000/svg" width="512" height="512" viewBox="0 0 512 512" aria-hidden="true" focusable="false"><path fill="currentColor" fill-rule="evenodd" clip-rule="evenodd" d="M182 444 L184 447 L183 465 L186 466 L188 461 L188 450 L191 445 L187 448 Z M180 427 L171 436 L167 438 L159 438 L158 440 L152 437 L153 434 L152 433 L149 440 L150 441 L155 440 L159 442 L169 442 L176 438 L179 441 L177 437 L177 432 Z M166 439 L168 438 L169 440 L167 441 Z M169 438 L171 437 L172 439 L170 440 Z M222 421 L215 423 L215 424 L220 423 Z M151 421 L153 423 L158 424 L158 423 Z M53 419 L53 423 L56 423 L55 419 Z M283 381 L274 401 L273 415 L279 427 L296 443 L286 453 L289 459 L311 464 L337 461 L344 455 L334 445 L339 438 L352 459 L362 460 L368 455 L370 446 L360 443 L356 437 L361 423 L356 393 L344 379 L330 375 L300 375 Z M312 460 L314 459 L315 461 L313 462 Z M333 459 L332 461 L328 462 L318 462 L317 461 L318 459 L328 458 Z M291 457 L294 456 L303 459 L310 459 L311 461 L302 462 L294 460 Z M309 452 L310 451 L313 452 L320 451 L321 453 L316 458 L313 458 Z M295 452 L299 451 L300 454 L296 455 Z M329 451 L326 456 L323 457 L320 456 L320 454 L323 451 L326 450 Z M301 451 L304 450 L305 452 L309 454 L309 456 L304 457 Z M332 449 L334 450 L335 453 L334 455 L330 454 L330 451 Z M369 448 L369 450 L365 452 L366 455 L363 458 L354 459 L352 457 L353 455 L352 452 L355 451 L356 449 L360 448 L363 450 L362 448 L363 446 L366 446 Z M322 447 L324 446 L325 448 L323 449 Z M304 447 L307 446 L308 448 L305 449 Z M311 441 L318 440 L319 442 L312 443 Z M302 440 L306 439 L307 441 L303 442 Z M330 439 L327 442 L319 441 L320 439 L328 438 Z M297 439 L300 438 L301 440 L298 441 Z M326 418 L328 418 L336 429 L336 433 L328 435 L327 437 L323 437 L322 435 L325 433 L322 433 L321 431 Z M359 416 L360 417 L360 422 L358 423 L359 428 L357 432 L354 432 L351 429 L351 427 L356 422 L356 417 Z M324 414 L325 416 L322 417 L324 419 L324 422 L320 432 L315 437 L310 437 L308 434 L313 426 L317 424 L315 422 L316 418 L319 417 L317 414 L318 413 Z M319 405 L322 404 L325 407 L322 409 Z M328 402 L331 401 L332 403 L329 404 Z M335 401 L337 400 L338 402 L336 403 Z M292 401 L295 400 L296 402 L293 403 Z M350 399 L354 401 L353 404 L355 410 L353 415 L353 420 L349 425 L343 425 L343 426 L347 427 L346 430 L356 438 L359 444 L357 448 L352 450 L347 449 L346 444 L340 434 L342 431 L340 432 L338 431 L337 428 L326 414 L327 412 L330 411 L341 422 L342 420 L334 411 L335 408 L333 407 L333 405 L348 401 Z M339 400 L341 399 L342 401 L340 402 Z M288 400 L290 399 L291 401 L289 402 Z M278 399 L293 404 L314 406 L317 409 L313 425 L307 433 L305 433 L304 435 L299 435 L282 428 L282 426 L277 421 L277 418 L274 413 L274 407 Z M350 394 L350 397 L347 399 L344 397 L340 399 L329 401 L303 401 L302 404 L299 403 L300 400 L290 399 L283 396 L280 398 L278 396 L283 386 L293 390 L297 388 L298 391 L301 391 L302 389 L309 389 L310 392 L322 392 L323 389 L326 389 L327 391 L340 389 L340 387 L344 384 L347 386 Z M296 382 L299 381 L300 383 L302 383 L305 376 L307 378 L323 378 L325 376 L326 380 L333 379 L335 382 L338 382 L339 385 L335 387 L325 388 L301 388 L296 386 Z M146 383 L149 406 L138 407 L133 411 L144 420 L148 418 L145 415 L142 417 L138 409 L150 409 L165 425 L164 427 L155 427 L147 423 L155 431 L160 428 L169 428 L173 424 L175 426 L179 424 L183 426 L196 425 L197 427 L192 429 L197 432 L197 437 L193 444 L198 438 L205 442 L224 440 L220 433 L220 438 L205 437 L207 439 L205 441 L201 438 L202 435 L199 434 L197 429 L202 426 L218 431 L226 423 L218 427 L209 427 L208 425 L223 409 L235 409 L232 415 L227 416 L228 421 L239 411 L237 408 L224 406 L227 385 L225 383 L219 386 L224 387 L221 400 L223 405 L219 406 L220 411 L214 417 L206 420 L215 392 L212 390 L209 372 L198 380 L195 379 L196 386 L186 379 L180 387 L176 386 L176 382 L181 375 L174 380 L164 372 L161 389 L157 391 L160 395 L161 406 L167 417 L165 420 L153 411 L155 408 L151 408 L153 404 L148 386 L155 387 Z M200 415 L202 414 L203 416 L201 417 Z M197 413 L198 416 L191 422 L190 418 L193 417 L195 413 Z M164 408 L167 407 L170 409 L170 411 L167 413 L164 410 Z M208 405 L209 409 L204 414 L203 413 L204 407 Z M162 405 L164 404 L165 406 L163 407 Z M208 403 L210 402 L211 404 L209 405 Z M187 382 L192 386 L192 388 L199 397 L200 406 L197 407 L197 409 L199 409 L200 412 L190 413 L189 417 L187 416 L187 413 L186 413 L186 419 L180 421 L174 415 L174 412 L176 411 L176 404 L175 404 L175 408 L173 409 L172 403 L180 387 Z M207 374 L211 387 L212 399 L205 400 L205 402 L202 403 L197 392 L197 386 L200 380 Z M166 374 L173 380 L175 384 L176 392 L173 398 L169 400 L168 403 L162 403 L161 402 L162 400 L167 399 L167 396 L161 395 L161 391 Z M186 366 L183 372 L187 370 L194 377 Z M91 365 L88 367 L90 369 L88 372 L91 370 L89 368 Z M88 358 L88 363 L89 363 L89 358 Z M52 357 L47 367 L47 373 L53 381 L48 393 L41 390 L41 384 L47 384 L48 379 L43 376 L40 383 L40 391 L48 397 L48 414 L41 422 L42 430 L31 434 L29 439 L39 449 L53 453 L56 460 L62 461 L60 466 L52 465 L52 461 L47 464 L46 469 L63 474 L96 471 L99 466 L90 457 L91 454 L107 448 L116 436 L101 427 L101 418 L97 410 L90 424 L84 422 L90 376 L87 377 L84 390 L83 373 L80 373 L82 385 L78 386 L74 380 L76 373 L73 364 L73 390 L76 391 L75 422 L65 425 L64 418 L59 414 L61 408 L58 402 L60 395 L67 391 L68 382 L65 373 L55 379 L60 368 L56 362 L51 363 L54 360 Z M73 471 L81 470 L82 472 L74 473 Z M63 471 L68 470 L69 472 L64 473 Z M86 470 L88 469 L89 471 L87 472 Z M55 470 L58 469 L59 471 L56 472 Z M51 469 L53 468 L54 470 L52 471 Z M89 461 L91 460 L93 464 L91 465 Z M62 464 L65 460 L69 460 L71 463 L71 460 L73 459 L74 464 L75 464 L77 460 L83 459 L88 462 L89 466 L88 467 L84 466 L82 463 L83 466 L81 468 L78 467 L63 468 Z M71 456 L73 455 L74 457 L72 458 Z M77 450 L80 448 L83 448 L86 452 L78 453 Z M69 450 L73 448 L76 450 L76 452 L73 454 L70 454 Z M60 450 L64 448 L67 449 L68 452 L62 453 Z M92 445 L94 450 L90 452 L88 449 Z M68 446 L70 445 L71 447 L69 448 Z M64 446 L66 445 L67 447 L65 448 Z M51 446 L54 445 L57 450 L52 451 Z M100 444 L101 448 L98 451 L96 451 L95 449 Z M43 445 L45 444 L48 449 L47 450 L44 449 Z M56 442 L58 441 L59 443 L57 444 Z M70 439 L72 438 L73 440 L71 441 Z M114 436 L115 438 L112 440 L111 438 Z M30 436 L32 435 L33 438 L31 439 Z M101 433 L104 432 L105 434 L102 435 Z M84 433 L86 432 L87 434 L85 435 Z M72 433 L74 432 L75 434 L73 435 Z M68 431 L70 433 L69 438 L62 439 L61 437 L66 434 L66 432 Z M71 429 L73 428 L74 430 L72 431 Z M91 428 L93 427 L94 429 L92 430 Z M82 428 L84 427 L85 429 L83 430 Z M99 420 L100 428 L98 435 L92 439 L89 436 L89 433 L93 431 L95 434 L96 432 L95 427 L92 425 L92 421 Z M51 411 L56 411 L57 415 L59 416 L58 418 L59 422 L64 423 L61 434 L55 440 L51 440 L45 435 L42 423 L45 421 L46 418 L48 419 L48 422 L49 422 L48 416 Z M51 393 L53 394 L52 399 L50 398 Z M81 390 L85 391 L84 398 L82 397 L82 393 L80 392 Z M56 382 L62 381 L63 385 L66 382 L67 388 L60 393 L55 387 Z M63 376 L65 377 L64 380 L61 379 Z M50 365 L58 366 L59 370 L56 371 L56 374 L54 376 L52 376 L48 372 L48 367 Z M73 351 L72 355 L76 360 L73 355 L74 352 Z M451 350 L445 360 L446 370 L438 375 L440 365 L437 362 L437 366 L429 374 L430 381 L426 381 L422 390 L424 405 L422 406 L417 401 L418 391 L411 403 L409 415 L413 425 L419 426 L420 424 L419 413 L415 413 L416 419 L412 417 L412 407 L425 411 L426 416 L422 416 L421 420 L427 426 L422 427 L432 426 L427 431 L418 430 L427 432 L433 428 L433 422 L426 421 L429 415 L435 415 L440 421 L439 431 L432 439 L428 439 L427 442 L431 443 L428 446 L421 443 L420 436 L406 423 L409 432 L405 435 L403 442 L406 446 L412 444 L411 438 L416 442 L409 465 L412 472 L419 477 L424 477 L421 467 L425 462 L420 464 L420 459 L416 470 L414 463 L417 457 L426 451 L428 453 L423 457 L438 454 L442 458 L440 463 L437 460 L430 463 L432 471 L444 473 L446 471 L440 471 L443 468 L435 467 L443 462 L443 457 L435 453 L435 450 L440 451 L443 448 L453 454 L458 448 L463 453 L460 456 L455 455 L460 458 L456 462 L446 455 L448 470 L453 463 L467 462 L472 456 L470 450 L472 446 L481 450 L480 446 L471 440 L463 442 L459 447 L456 445 L452 451 L448 448 L461 434 L465 420 L461 398 L456 401 L453 397 L454 391 L448 396 L445 392 L447 386 L453 388 L458 381 L458 371 L455 370 L450 356 Z M433 469 L435 468 L438 471 L436 472 Z M434 462 L436 461 L437 463 L435 464 Z M467 459 L465 462 L461 461 L462 459 L465 458 Z M467 456 L469 455 L470 457 L468 458 Z M414 455 L415 458 L413 464 L411 465 L410 464 L411 458 Z M417 451 L418 453 L415 455 L414 453 Z M430 451 L432 450 L433 452 L431 453 Z M420 448 L421 450 L418 452 L417 450 Z M461 446 L467 450 L467 455 L465 457 L463 456 L464 451 L460 450 Z M421 447 L423 446 L424 448 L422 449 Z M462 446 L464 443 L469 441 L475 443 L469 448 Z M431 441 L433 440 L434 442 L432 443 Z M434 439 L436 438 L437 440 L435 441 Z M419 437 L420 439 L419 441 L417 441 L413 437 L409 438 L408 441 L411 443 L410 445 L407 445 L404 441 L405 437 L408 434 L413 433 Z M442 429 L443 431 L441 435 L439 436 L438 434 L440 430 Z M462 421 L463 424 L461 429 L457 433 L454 434 L456 436 L455 439 L449 442 L448 445 L442 446 L441 444 L450 438 L454 424 Z M452 411 L453 412 L452 417 L453 424 L449 434 L443 439 L442 437 L448 425 L448 419 L446 418 L446 416 Z M460 405 L462 408 L462 418 L459 421 L455 421 L454 416 L458 412 L458 406 Z M427 408 L435 409 L437 405 L440 405 L444 409 L446 414 L445 415 L441 414 L441 415 L444 416 L446 419 L446 421 L444 422 L444 425 L446 426 L445 429 L441 428 L440 418 L436 414 L433 413 L429 414 L428 411 L426 410 Z M432 406 L433 403 L436 404 L434 407 Z M425 403 L427 402 L429 405 L427 406 Z M451 397 L453 398 L457 406 L456 410 L453 409 L450 403 Z M433 396 L434 398 L432 400 L432 403 L430 404 L429 398 Z M425 387 L431 394 L427 398 L423 396 Z M451 384 L453 383 L454 385 L452 386 Z M435 371 L437 378 L434 382 L432 382 L430 375 L432 372 Z M449 359 L451 360 L454 366 L453 373 L452 374 L449 373 L451 376 L455 374 L457 375 L455 380 L456 383 L455 384 L453 382 L448 383 L444 388 L445 395 L451 406 L450 408 L448 406 L446 407 L444 406 L446 403 L444 404 L442 403 L444 400 L441 395 L441 386 L445 380 L442 382 L440 386 L440 395 L443 400 L442 402 L439 402 L437 400 L436 394 L434 392 L435 382 L438 381 L438 379 L442 377 L448 370 L449 363 L448 360 Z M80 347 L81 357 L79 360 L79 363 L83 368 L80 363 L80 360 L84 358 L84 354 Z M327 307 L327 308 L332 308 L332 307 Z M281 307 L281 308 L285 308 L285 307 Z M335 306 L335 307 L339 307 L339 306 Z M175 289 L170 295 L173 293 Z M197 274 L191 273 L185 274 L177 278 L176 280 L181 277 L184 280 L190 276 L197 275 Z M43 249 L45 254 L47 254 Z M63 245 L63 249 L60 252 L63 251 L64 253 L68 254 L70 258 L70 255 L63 251 L64 245 Z M94 237 L91 239 L91 241 Z M85 236 L83 236 L85 238 L84 244 L80 247 L80 250 L81 250 L81 247 L84 245 L87 245 L89 247 L85 243 L86 238 Z M79 230 L79 236 L80 236 L80 230 Z M55 228 L53 230 L53 233 L49 237 L54 233 Z M383 284 L372 283 L363 290 L361 287 L366 284 L363 275 L355 278 L350 272 L343 280 L334 279 L339 248 L373 249 L372 245 L350 244 L347 237 L347 243 L333 242 L333 237 L330 241 L306 238 L317 231 L324 231 L319 237 L333 229 L340 229 L344 235 L346 231 L368 242 L346 229 L340 219 L330 228 L320 229 L300 238 L302 241 L335 248 L331 281 L325 286 L322 285 L322 279 L317 272 L324 266 L314 255 L308 254 L293 261 L304 273 L297 284 L289 281 L293 284 L290 287 L288 284 L285 286 L283 280 L280 283 L275 280 L273 285 L267 284 L263 293 L250 289 L246 292 L270 313 L289 317 L311 317 L318 326 L323 326 L325 322 L322 315 L347 312 L364 306 Z M310 310 L319 315 L317 319 L320 318 L322 320 L320 324 L318 324 L309 312 Z M264 306 L267 305 L268 307 L265 308 Z M354 304 L356 303 L357 305 L355 306 Z M347 303 L346 305 L342 305 L345 307 L344 311 L342 309 L340 309 L339 312 L337 310 L333 310 L332 313 L330 313 L329 311 L324 311 L323 314 L316 311 L317 309 L323 309 L323 308 L311 308 L310 307 L311 305 L326 305 L342 302 Z M270 303 L273 302 L279 304 L300 305 L301 306 L300 308 L289 308 L289 309 L301 309 L302 307 L305 307 L307 312 L303 313 L301 316 L291 315 L292 313 L300 313 L300 312 L288 312 L288 314 L286 315 L284 313 L278 313 L277 310 L273 310 L271 307 L272 306 L277 307 L277 306 L273 306 Z M363 301 L364 304 L359 307 L357 303 Z M354 300 L355 302 L352 303 L354 305 L354 308 L352 309 L350 307 L350 309 L348 310 L345 307 L346 305 L349 305 L347 302 Z M355 300 L358 299 L359 301 L356 302 Z M359 299 L361 298 L362 300 L360 301 Z M362 298 L364 297 L365 299 L363 300 Z M330 295 L331 296 L330 299 L327 300 L326 298 Z M279 294 L280 291 L286 292 L284 296 L281 296 Z M347 290 L349 293 L345 298 L342 298 L338 294 L339 291 L344 292 Z M290 290 L293 291 L291 295 L288 294 Z M352 291 L353 288 L360 289 L356 294 Z M339 288 L339 290 L335 292 L334 294 L329 294 L327 292 L328 289 L333 290 L336 289 L337 287 Z M323 288 L325 287 L326 289 L324 290 Z M273 287 L274 286 L277 287 L278 290 L276 291 Z M267 287 L270 286 L272 291 L268 292 Z M345 287 L348 285 L351 286 L350 289 L346 289 Z M334 286 L336 285 L337 287 L335 288 Z M341 285 L344 284 L345 286 L342 287 Z M358 283 L360 282 L361 284 L359 285 Z M352 284 L354 282 L357 283 L356 286 L353 286 Z M349 281 L351 280 L352 283 L350 284 Z M345 280 L347 279 L348 281 L346 282 Z M292 289 L295 286 L298 287 L300 280 L304 275 L309 274 L313 278 L316 278 L319 276 L322 287 L321 295 L323 297 L323 300 L322 301 L307 301 L304 298 L305 296 L310 296 L305 292 L305 288 L307 287 L308 284 L307 282 L306 282 L304 289 L301 292 L298 292 L296 290 L293 291 Z M303 269 L305 268 L306 270 L304 271 Z M296 262 L298 260 L304 261 L310 258 L311 260 L314 260 L315 262 L320 264 L322 267 L318 269 L306 268 L300 266 Z M309 256 L312 255 L313 257 L310 258 Z M44 219 L44 223 L45 223 L45 219 Z M201 213 L194 214 L193 211 L189 212 L189 218 L187 219 L185 216 L181 224 L178 223 L178 220 L176 221 L177 227 L175 230 L173 229 L173 224 L169 234 L165 234 L159 261 L156 260 L153 252 L146 245 L141 244 L150 256 L156 278 L156 293 L153 301 L151 288 L147 280 L139 273 L134 272 L141 279 L147 298 L147 316 L143 326 L149 325 L166 311 L179 310 L183 312 L180 308 L172 305 L175 301 L183 300 L192 304 L185 296 L168 297 L163 304 L160 303 L169 288 L165 291 L163 290 L171 271 L177 265 L185 264 L186 259 L194 259 L195 261 L192 263 L198 263 L201 267 L204 267 L209 280 L209 274 L211 273 L212 284 L214 287 L217 286 L217 273 L212 268 L214 263 L204 255 L195 257 L193 254 L196 249 L205 250 L212 246 L214 248 L212 252 L216 252 L218 255 L220 251 L221 256 L219 258 L232 271 L231 259 L225 253 L226 249 L220 246 L218 242 L210 242 L209 239 L205 239 L199 245 L197 241 L193 242 L185 252 L181 250 L165 282 L162 282 L174 252 L196 234 L217 226 L216 223 L209 222 L205 225 L196 225 L192 231 L188 230 L189 234 L185 233 L182 236 L183 239 L179 240 L164 268 L164 257 L171 240 L174 239 L172 236 L176 233 L177 237 L181 229 L196 219 L192 217 L194 215 L199 216 Z M165 308 L167 307 L168 309 L166 310 Z M169 307 L173 306 L174 308 L170 309 Z M171 300 L174 297 L178 298 L177 300 L174 301 Z M157 289 L159 288 L160 290 L158 291 Z M213 281 L215 280 L216 283 L214 284 Z M144 280 L147 282 L151 292 L151 302 L150 303 L148 302 L148 297 L143 282 Z M158 280 L160 279 L161 281 L159 282 Z M213 273 L215 272 L216 274 L214 275 Z M207 266 L209 267 L208 271 L206 270 Z M228 266 L230 265 L231 267 L229 268 Z M200 263 L202 262 L203 264 L201 265 Z M208 262 L210 261 L212 264 L210 265 Z M180 262 L183 261 L184 263 L181 264 Z M226 258 L228 257 L229 259 L227 260 Z M200 257 L203 256 L204 258 L201 259 Z M182 257 L184 256 L185 258 L183 259 Z M186 256 L188 255 L189 257 L187 258 Z M152 255 L155 258 L156 261 L155 263 L152 260 L151 257 Z M179 254 L181 253 L182 255 L180 256 Z M187 252 L191 251 L192 253 L188 254 Z M220 248 L222 247 L223 249 L221 250 Z M199 247 L202 246 L203 248 L200 249 Z M204 246 L206 245 L207 247 L205 248 Z M192 245 L194 244 L195 246 L193 247 Z M213 243 L215 242 L216 244 L214 245 Z M182 242 L184 241 L185 243 L183 244 Z M202 242 L207 240 L210 243 L203 244 Z M188 236 L190 235 L191 237 L189 238 Z M196 231 L199 230 L200 232 L197 233 Z M203 227 L206 226 L207 228 L204 229 Z M195 227 L197 226 L198 228 L196 229 Z M209 224 L214 223 L215 225 L210 226 Z M181 226 L184 223 L187 224 L184 227 Z M54 195 L49 196 L49 199 L45 200 L44 203 L37 203 L35 205 L34 214 L31 215 L32 219 L34 220 L34 224 L42 235 L41 244 L37 247 L38 252 L40 254 L41 253 L39 251 L39 248 L42 245 L42 240 L44 239 L46 242 L48 241 L46 240 L46 235 L42 234 L42 231 L39 226 L35 223 L34 216 L36 206 L38 204 L45 204 L47 201 L54 197 L58 197 L60 199 L59 204 L62 206 L65 205 L67 209 L64 224 L59 226 L65 233 L65 240 L63 242 L65 240 L71 241 L65 238 L66 234 L63 230 L63 226 L74 219 L79 222 L82 222 L84 227 L83 220 L85 217 L90 218 L92 222 L97 226 L97 236 L106 244 L104 247 L104 253 L101 255 L94 253 L94 246 L92 246 L94 248 L92 254 L81 253 L77 260 L74 261 L74 272 L72 272 L69 269 L62 269 L62 262 L56 262 L54 259 L52 273 L50 274 L49 269 L47 267 L47 261 L45 259 L45 267 L48 270 L49 277 L42 284 L36 306 L38 309 L37 314 L39 314 L39 311 L43 309 L44 314 L49 315 L49 321 L56 321 L61 324 L62 328 L69 328 L72 325 L72 323 L66 317 L62 318 L58 314 L56 303 L53 301 L53 296 L51 294 L48 295 L46 292 L51 277 L53 275 L54 264 L60 264 L60 271 L68 270 L72 273 L72 277 L75 279 L73 282 L80 281 L81 279 L79 272 L76 269 L75 263 L82 255 L86 254 L98 255 L101 257 L105 254 L107 244 L105 243 L105 240 L102 239 L98 234 L99 227 L90 217 L84 216 L81 220 L73 218 L67 222 L66 220 L68 205 L62 205 L62 199 L59 196 Z M44 284 L47 285 L45 291 L47 297 L51 296 L52 302 L55 304 L56 314 L61 319 L66 319 L70 324 L69 326 L64 325 L62 322 L56 319 L53 319 L48 313 L48 311 L44 309 L42 304 L38 303 L38 300 Z M74 274 L75 271 L78 272 L76 275 Z M444 187 L441 210 L426 236 L421 234 L417 225 L418 248 L408 253 L400 244 L399 258 L418 286 L417 305 L412 312 L404 313 L419 315 L414 316 L416 319 L404 322 L402 318 L410 316 L400 313 L396 328 L493 328 L490 313 L477 311 L471 292 L475 278 L490 259 L488 243 L482 254 L471 247 L474 243 L473 226 L470 236 L459 231 L450 214 Z M474 325 L476 323 L492 323 L493 324 L492 327 L475 327 Z M397 324 L398 323 L415 323 L416 326 L415 327 L398 327 Z M470 314 L471 313 L488 313 L489 315 L480 316 L480 317 L488 318 L485 322 L477 322 L476 320 L471 319 L472 317 L475 317 L475 316 L471 316 Z M466 313 L469 314 L469 317 L473 324 L472 327 L468 326 L468 323 L465 317 Z M428 314 L431 313 L432 315 L436 315 L437 313 L453 313 L454 315 L456 315 L457 313 L460 313 L461 316 L459 317 L460 320 L455 321 L454 324 L436 324 L435 321 L430 320 L430 317 L428 316 Z M423 313 L424 318 L422 322 L422 326 L418 327 L417 323 L420 315 Z M443 309 L447 308 L448 310 L444 311 Z M465 307 L472 306 L473 308 L466 309 Z M417 307 L424 306 L425 308 L418 309 Z M441 303 L446 302 L448 305 L442 306 Z M442 299 L445 297 L447 300 L443 301 Z M462 294 L465 295 L464 300 L461 299 Z M472 271 L474 272 L475 275 L474 277 L471 274 Z M415 270 L417 269 L419 273 L417 274 Z M478 269 L480 268 L481 270 L479 271 Z M422 268 L424 269 L424 295 L429 297 L428 303 L424 301 L424 298 L421 301 L419 300 L419 284 L417 282 L420 281 L420 270 Z M408 269 L410 268 L411 270 L409 271 Z M475 263 L477 262 L478 265 L476 266 Z M483 260 L485 259 L486 261 L484 262 Z M465 259 L467 258 L468 260 L466 261 Z M407 259 L409 258 L410 260 L408 261 Z M475 257 L477 256 L478 258 L476 259 Z M427 255 L434 256 L443 254 L444 261 L437 278 L445 265 L454 281 L455 280 L447 267 L445 257 L447 255 L450 257 L452 255 L463 256 L464 274 L466 268 L470 272 L471 298 L469 301 L466 300 L465 279 L464 282 L458 284 L462 291 L456 312 L452 312 L449 309 L454 305 L454 301 L451 298 L452 292 L449 295 L448 291 L443 293 L439 289 L437 293 L440 291 L442 297 L435 301 L435 304 L440 308 L440 310 L437 312 L433 311 L428 292 L430 285 L425 280 L425 262 Z M411 255 L413 254 L415 257 L412 259 Z M416 254 L418 253 L419 255 L417 256 Z M468 252 L472 251 L473 254 L470 255 Z M486 250 L488 249 L489 251 L487 252 Z M421 250 L423 249 L424 251 L422 252 Z M456 249 L459 248 L460 251 L457 252 Z M419 245 L423 244 L424 246 L420 247 Z M467 242 L469 243 L468 247 L464 245 Z M469 240 L471 239 L472 241 L470 242 Z M461 240 L463 239 L465 243 L463 244 Z M443 240 L445 239 L446 241 L444 242 Z M420 239 L421 241 L420 244 L418 245 L417 241 Z M426 239 L428 238 L429 241 L427 242 Z M466 238 L468 237 L469 240 L467 241 Z M429 237 L431 236 L432 238 L430 239 Z M457 236 L459 235 L460 237 L458 238 Z M431 233 L433 232 L434 234 L432 235 Z M454 232 L456 231 L457 233 L455 234 Z M453 229 L455 228 L456 230 L454 231 Z M434 228 L436 227 L437 230 L435 231 Z M439 222 L440 225 L437 228 L436 226 L437 223 Z M448 221 L451 220 L452 223 L450 224 Z M440 216 L442 215 L443 218 L441 219 Z M446 217 L447 214 L450 215 L448 218 Z M444 210 L447 209 L448 212 L446 213 Z M443 205 L446 204 L447 207 L444 208 Z M487 158 L484 160 L475 159 L475 160 L484 161 Z M294 91 L292 95 L294 95 L296 98 L296 95 L299 92 Z M294 87 L294 88 L297 88 L297 87 Z M490 72 L468 69 L407 85 L411 93 L405 114 L399 121 L404 128 L408 122 L411 128 L398 139 L407 145 L414 144 L408 149 L405 147 L403 159 L410 163 L419 161 L412 167 L404 166 L399 160 L400 146 L398 160 L402 166 L415 167 L422 155 L455 156 L463 152 L473 157 L472 153 L475 152 L476 155 L489 156 L492 140 L496 138 L492 111 L493 76 L492 81 L442 89 L421 81 L429 78 L442 80 L439 77 L447 74 L464 77 L460 73 L469 70 Z M409 159 L411 158 L412 160 L410 161 Z M413 152 L415 151 L416 153 L414 154 Z M407 152 L409 151 L410 153 L408 154 Z M486 151 L484 154 L480 153 L481 151 L484 150 Z M404 151 L406 150 L407 152 L405 153 Z M441 153 L442 151 L447 150 L447 149 L444 150 L441 149 L441 147 L444 146 L445 144 L454 146 L453 148 L450 148 L450 149 L453 148 L457 149 L455 152 L451 152 L447 154 Z M415 145 L417 144 L418 146 L416 147 Z M480 144 L483 143 L486 146 L484 147 L481 146 Z M469 142 L472 143 L470 148 L468 147 Z M478 141 L484 137 L488 140 L489 143 L487 144 L484 141 L482 141 L479 144 Z M491 136 L494 135 L495 137 L492 138 Z M457 131 L460 131 L463 133 L463 147 L462 148 L456 146 L456 132 Z M401 138 L401 136 L408 131 L419 132 L423 136 L422 138 L420 137 L413 137 L408 139 Z M465 129 L467 130 L467 147 L466 148 L464 147 L464 130 Z M460 129 L462 128 L463 130 L461 131 Z M450 128 L451 131 L455 132 L454 135 L450 135 L450 136 L455 137 L455 143 L454 144 L444 143 L442 145 L441 138 L443 135 L446 135 L443 133 L443 131 L448 130 Z M418 126 L420 127 L419 131 L417 130 Z M492 125 L491 133 L489 133 L486 130 L481 129 L478 131 L482 130 L483 132 L476 139 L475 142 L472 141 L474 135 L470 141 L468 140 L468 127 L469 126 L471 128 L478 127 L479 124 L481 126 L489 124 Z M443 123 L448 122 L449 125 L444 126 Z M428 121 L430 120 L431 123 L429 124 Z M411 121 L413 120 L415 123 L412 124 Z M400 119 L403 118 L404 121 L401 122 Z M441 119 L443 117 L453 119 L459 118 L462 120 L464 124 L461 128 L459 127 L459 125 L457 127 L451 127 L450 126 L451 122 L457 123 L457 122 L445 120 L442 121 Z M423 114 L426 114 L429 116 L426 123 L428 126 L433 128 L433 141 L434 141 L433 119 L435 115 L439 116 L439 119 L436 120 L436 123 L439 124 L439 151 L437 153 L435 151 L432 153 L425 152 L423 150 L424 147 L427 147 L427 142 L422 133 L420 125 L420 119 Z M413 115 L418 114 L419 117 L415 118 Z M407 113 L412 114 L409 121 L407 120 L406 116 Z M416 108 L422 107 L425 111 L417 112 Z M407 108 L409 107 L411 110 L408 111 Z M465 105 L469 104 L471 107 L473 104 L478 105 L483 104 L487 106 L487 112 L484 113 L482 110 L481 114 L477 114 L475 112 L474 115 L471 115 L470 110 L469 110 L469 116 L466 117 L465 116 Z M447 104 L451 103 L452 104 L451 108 L452 108 L452 105 L454 103 L463 103 L464 104 L463 116 L462 117 L452 117 L451 113 L449 116 L446 116 L445 110 Z M439 95 L440 96 L439 111 L436 112 L433 109 L435 105 L436 97 Z M417 90 L433 91 L435 93 L433 104 L431 108 L426 108 L422 106 L415 107 L412 106 L414 95 Z M461 89 L462 99 L461 100 L448 100 L445 105 L444 116 L442 117 L441 116 L442 92 Z M488 86 L488 101 L487 102 L468 100 L468 88 L469 87 L475 87 L476 89 L480 89 L479 87 L480 85 Z M264 81 L264 88 L269 89 L267 95 L270 92 L267 83 L275 88 L271 109 L279 109 L284 96 L284 85 L288 87 L295 79 L306 82 L305 94 L310 97 L305 98 L310 103 L309 106 L313 107 L310 112 L306 112 L308 108 L296 111 L297 104 L294 104 L292 110 L286 109 L283 117 L272 120 L263 111 L266 97 L261 106 L263 115 L273 122 L271 126 L281 125 L294 113 L300 113 L302 136 L300 149 L294 160 L296 164 L310 164 L315 145 L317 158 L330 158 L331 163 L316 160 L314 163 L319 166 L330 165 L332 133 L340 134 L345 142 L342 163 L357 162 L358 146 L361 149 L361 164 L370 165 L377 161 L370 140 L371 129 L374 129 L375 139 L380 145 L382 136 L377 131 L377 114 L372 100 L373 119 L369 131 L372 149 L365 152 L351 135 L352 123 L355 124 L353 127 L363 125 L364 96 L370 98 L363 90 L351 84 L331 82 L326 76 L318 75 L309 56 L288 74 L275 108 L271 104 L276 87 L273 83 Z M343 159 L346 156 L355 157 L356 161 L354 163 L350 163 L348 160 L344 161 Z M297 158 L299 156 L309 157 L310 162 L306 163 L304 161 L298 160 Z M376 158 L374 162 L372 161 L366 162 L362 160 L364 156 L374 155 Z M344 136 L349 137 L357 144 L355 152 L351 153 L346 151 L347 146 L343 138 Z M378 134 L381 136 L380 140 L376 138 Z M350 124 L348 134 L336 133 L333 130 L334 126 L342 125 L345 127 L344 125 L345 123 Z M312 122 L313 128 L310 130 L314 134 L315 140 L310 154 L308 155 L307 153 L304 153 L301 151 L301 144 L303 137 L303 130 L307 127 L308 124 Z M348 116 L350 115 L351 117 L349 118 Z M343 116 L345 115 L346 117 L344 118 Z M358 115 L360 114 L361 116 L359 117 Z M352 117 L355 114 L357 115 L355 118 Z M311 114 L313 113 L314 115 L312 116 Z M313 112 L315 111 L316 113 L314 114 Z M290 111 L291 113 L288 118 L280 124 L279 122 L283 119 L283 117 L286 115 L287 112 Z M318 108 L319 110 L316 112 L315 110 Z M311 88 L313 89 L312 93 L310 92 Z M341 83 L353 86 L355 88 L357 95 L357 110 L356 111 L350 111 L343 108 L342 91 L340 87 Z M318 76 L324 76 L329 81 L326 84 L328 85 L330 83 L333 86 L331 89 L334 93 L335 109 L338 109 L341 115 L340 117 L338 117 L334 113 L334 122 L331 123 L331 131 L328 134 L329 152 L325 153 L324 156 L321 155 L321 152 L317 146 L313 122 L323 111 L329 91 L317 106 L313 104 L311 97 L314 93 L315 84 L323 79 L317 80 L311 87 L309 86 L309 84 L314 78 Z M298 70 L306 69 L307 71 L310 71 L312 74 L308 75 L303 72 L299 72 Z M306 62 L308 61 L309 64 L307 65 Z M195 40 L190 72 L163 113 L156 106 L156 100 L153 105 L156 128 L144 139 L138 127 L136 148 L140 152 L151 154 L153 166 L156 161 L160 161 L163 166 L164 148 L171 142 L177 145 L192 143 L195 147 L195 142 L202 145 L223 143 L227 148 L229 166 L232 161 L236 161 L239 166 L239 157 L245 152 L252 152 L245 149 L250 148 L252 142 L254 149 L256 148 L256 132 L253 128 L246 140 L236 129 L238 104 L235 100 L235 113 L229 113 L223 107 L202 72 Z M229 154 L231 153 L232 155 L230 156 Z M157 153 L162 152 L163 155 L158 156 Z M156 149 L162 148 L163 150 L157 151 Z M232 146 L234 145 L235 147 L233 148 Z M162 144 L165 143 L166 145 L163 146 Z M137 148 L137 144 L139 142 L141 143 L140 146 L142 148 L145 147 L148 143 L152 144 L152 146 L145 151 L140 151 Z M248 141 L250 140 L251 143 L249 144 Z M213 140 L215 139 L216 142 L214 143 Z M206 140 L209 139 L210 142 L207 143 Z M146 139 L148 140 L147 144 L145 143 Z M137 137 L140 136 L141 138 L138 139 Z M222 136 L224 135 L225 137 L223 138 Z M218 136 L220 135 L221 137 L219 138 Z M211 136 L216 135 L217 137 L212 138 Z M205 136 L209 135 L210 137 L206 138 Z M194 136 L196 135 L197 137 L195 138 Z M175 136 L184 135 L185 137 L176 138 Z M171 136 L173 135 L174 137 L172 138 Z M152 135 L154 134 L155 136 L153 137 Z M230 133 L232 132 L235 136 L238 134 L239 135 L238 139 L242 142 L245 147 L242 148 L235 141 L235 139 L233 139 L230 136 Z M233 131 L235 130 L236 132 L234 133 Z M228 131 L230 130 L231 132 L229 133 Z M195 130 L197 129 L198 131 L196 132 Z M163 129 L164 133 L154 144 L152 144 L151 142 L157 135 L156 131 L158 130 L160 132 Z M170 126 L172 125 L173 127 L171 128 Z M203 127 L204 124 L207 125 L205 128 Z M211 124 L213 123 L214 125 L212 126 Z M195 122 L198 124 L197 128 L194 125 Z M177 123 L179 122 L180 124 L178 125 Z M206 121 L209 120 L210 123 L207 124 Z M198 121 L200 120 L201 122 L199 123 Z M191 120 L193 119 L194 121 L192 122 Z M201 118 L204 117 L205 121 L203 122 Z M212 116 L215 117 L213 121 L211 120 Z M194 116 L196 115 L198 118 L195 119 Z M169 117 L169 119 L163 126 L156 125 L155 123 L156 117 L159 116 L161 117 L158 120 L160 123 L163 122 L164 115 Z M231 114 L233 115 L232 119 L230 118 Z M193 113 L194 114 L193 117 L187 123 L189 125 L189 128 L185 130 L184 121 L186 120 L188 116 L190 116 Z M179 113 L182 114 L180 119 L177 118 L177 115 Z M219 113 L221 112 L224 115 L227 113 L228 116 L226 118 L230 123 L233 122 L233 118 L235 117 L237 119 L237 123 L234 126 L229 126 L219 115 Z M210 113 L212 112 L213 114 L211 115 Z M172 111 L173 114 L169 116 L168 113 Z M155 110 L157 109 L159 112 L156 113 Z M221 109 L223 108 L224 110 L222 111 Z M206 111 L207 108 L210 109 L208 112 Z M167 109 L169 108 L170 110 L168 111 Z M183 107 L186 109 L184 113 L182 112 Z M171 104 L173 103 L174 105 L172 106 Z M203 101 L205 102 L204 106 L201 104 Z M186 102 L188 101 L191 104 L197 106 L198 111 L195 112 L194 108 L191 109 L190 106 L186 104 Z M175 98 L177 97 L178 99 L176 100 Z M189 97 L191 96 L193 100 L190 101 Z M210 93 L212 92 L213 94 L211 95 Z M194 93 L197 92 L198 94 L195 95 Z M185 92 L186 95 L184 99 L180 103 L177 109 L174 110 L173 108 L176 102 L179 100 L180 96 Z M207 88 L209 87 L210 89 L208 90 Z M194 88 L196 87 L197 89 L195 90 Z M204 82 L206 81 L207 84 L205 85 Z M198 78 L201 79 L210 96 L216 105 L219 107 L218 112 L216 111 L197 81 Z M193 78 L194 82 L190 89 L186 92 L185 89 L191 79 Z M187 78 L189 77 L190 79 L188 80 Z M195 66 L198 68 L196 75 L193 74 L193 70 Z M195 53 L198 56 L197 60 L194 59 Z M73 35 L73 50 L58 80 L51 72 L49 91 L45 91 L39 81 L40 94 L36 103 L30 103 L24 97 L24 114 L20 117 L18 112 L17 115 L18 124 L24 129 L21 165 L124 164 L121 142 L120 152 L116 151 L120 130 L127 123 L127 113 L120 114 L120 96 L114 103 L105 98 L106 82 L101 90 L95 91 L94 73 L87 80 L75 58 Z M108 161 L109 160 L121 160 L123 163 L122 164 L109 164 Z M93 161 L94 160 L106 160 L107 163 L106 164 L94 164 Z M59 161 L60 160 L85 160 L86 163 L85 164 L60 164 Z M37 162 L39 160 L51 160 L52 161 L51 164 L38 164 Z M22 161 L23 160 L35 160 L36 163 L35 164 L23 164 Z M116 157 L119 156 L120 158 L117 159 Z M96 156 L100 155 L104 156 L105 158 L97 159 Z M49 156 L48 159 L39 158 L40 156 L46 155 Z M26 156 L34 155 L35 158 L27 159 Z M88 154 L91 155 L92 161 L91 164 L88 163 L87 158 Z M55 154 L57 155 L56 164 L53 163 L53 158 Z M109 154 L113 153 L114 158 L109 159 L108 158 Z M78 153 L80 152 L81 155 L79 156 Z M64 153 L66 152 L67 155 L65 156 Z M35 153 L37 152 L38 154 L36 155 Z M37 145 L39 144 L40 146 L38 147 Z M114 143 L116 144 L115 151 L113 150 Z M105 143 L107 144 L106 150 L104 149 Z M30 143 L32 144 L31 152 L29 151 Z M94 140 L96 141 L95 147 L93 146 Z M108 139 L110 138 L111 140 L109 141 Z M26 133 L28 134 L28 153 L27 154 L25 153 L25 134 Z M104 132 L107 129 L112 129 L113 131 L116 132 L116 137 L111 139 L110 137 L112 135 L111 133 L109 133 L108 137 L105 138 Z M29 131 L32 129 L37 129 L40 132 L40 136 L37 137 L34 132 L33 134 L34 137 L30 138 Z M101 126 L103 127 L103 151 L104 152 L103 154 L99 153 L99 137 Z M77 127 L79 126 L80 128 L78 129 Z M44 126 L45 127 L45 151 L42 154 L41 153 L41 132 L42 127 Z M67 125 L69 124 L70 126 L68 127 Z M74 123 L76 122 L77 124 L75 125 Z M113 121 L115 120 L116 122 L114 123 Z M93 118 L98 119 L99 124 L99 134 L98 135 L95 134 L95 130 L93 133 L91 132 L91 120 Z M88 118 L90 119 L90 148 L89 149 L87 148 L87 119 Z M48 118 L54 119 L54 133 L53 134 L51 132 L49 132 L48 134 L46 133 L46 121 Z M56 117 L58 118 L58 149 L57 150 L55 149 L55 118 Z M42 117 L44 116 L45 119 L43 120 Z M116 115 L119 114 L120 116 L117 117 Z M108 114 L110 113 L111 115 L109 116 Z M74 112 L85 112 L86 113 L86 152 L84 156 L82 155 L81 149 L82 127 L80 127 L79 124 L76 122 L73 116 Z M71 112 L72 113 L71 118 L63 127 L64 148 L63 153 L60 154 L59 153 L59 113 L60 112 Z M34 113 L37 112 L38 114 L35 115 Z M25 113 L28 112 L29 115 L26 116 Z M106 111 L108 110 L109 112 L107 113 Z M102 109 L104 108 L106 111 L104 112 Z M40 109 L42 108 L43 110 L41 111 Z M55 100 L57 99 L58 102 L56 103 Z M91 97 L93 96 L95 100 L93 101 Z M62 97 L64 96 L65 98 L63 99 Z M96 95 L98 94 L101 98 L98 99 Z M69 86 L72 85 L73 87 L70 88 Z M85 84 L87 83 L88 85 L86 86 Z M58 83 L59 87 L56 90 L55 89 L56 84 Z M81 80 L84 79 L85 81 L82 82 Z M71 77 L73 76 L74 78 L72 79 Z M62 75 L64 76 L63 82 L60 81 Z M64 73 L66 72 L67 74 L65 75 Z M78 72 L80 71 L81 74 L79 75 Z M76 69 L78 68 L79 70 L77 71 Z M74 64 L76 63 L77 66 L75 67 Z M71 56 L73 55 L74 57 L72 58 Z"/></svg>
