<svg xmlns="http://www.w3.org/2000/svg" width="512" height="512" viewBox="0 0 512 512" aria-hidden="true" focusable="false"><path fill="currentColor" fill-rule="evenodd" clip-rule="evenodd" d="M128 454 L126 454 L122 468 L124 468 L126 464 Z M76 446 L76 448 L87 451 L87 449 Z M89 441 L88 444 L92 445 L91 441 Z M258 414 L258 420 L268 418 L272 419 L272 417 L268 414 L268 409 L261 410 Z M242 410 L243 415 L240 417 L240 419 L251 418 L252 420 L254 420 L254 415 L251 410 L247 409 Z M111 405 L106 404 L101 406 L101 411 L106 416 L103 419 L92 418 L89 422 L90 429 L94 428 L96 431 L102 431 L104 428 L109 427 L110 422 L106 421 L106 416 L108 415 L108 412 L111 411 Z M92 422 L93 421 L98 422 L106 421 L107 425 L106 426 L93 425 Z M88 405 L88 408 L86 409 L86 411 L95 411 L96 413 L98 413 L98 406 L93 404 Z M247 398 L247 404 L253 405 L265 404 L264 398 L260 398 L261 400 L260 403 L252 403 L251 401 L253 398 Z M94 401 L103 401 L105 396 L95 396 Z M99 364 L61 397 L59 406 L64 420 L55 445 L59 467 L98 488 L137 470 L144 457 L143 443 L135 424 L139 400 L123 381 Z M95 470 L96 472 L90 479 L87 479 L86 477 Z M140 452 L141 458 L138 465 L134 468 L133 465 L138 457 L138 453 Z M137 448 L139 449 L138 453 L136 452 Z M106 445 L107 447 L99 455 L101 460 L87 473 L81 476 L79 474 L79 471 L88 465 L89 463 L87 462 L79 468 L77 468 L76 466 L104 445 Z M99 440 L101 441 L100 445 L98 444 Z M96 440 L96 445 L98 447 L73 465 L69 466 L68 462 L66 461 L66 467 L64 468 L59 463 L58 449 L64 443 L75 440 L83 436 L85 438 L81 441 L81 443 L88 439 L89 436 L91 436 Z M133 439 L135 442 L128 471 L121 472 L116 478 L106 481 L105 479 L110 472 L115 457 L113 457 L107 473 L105 474 L103 478 L101 478 L100 475 L107 458 L113 437 L121 435 Z M96 381 L103 381 L110 384 L114 388 L117 395 L114 401 L116 414 L113 420 L113 427 L109 433 L102 437 L97 437 L87 430 L85 426 L86 420 L83 416 L83 390 L87 385 Z M135 397 L137 404 L132 416 L133 427 L136 434 L134 437 L115 430 L115 426 L121 422 L124 414 L124 406 L119 403 L119 393 L117 388 L106 380 L93 380 L88 382 L81 389 L79 403 L76 404 L74 408 L78 423 L83 426 L84 432 L76 437 L62 442 L60 441 L60 437 L66 424 L66 413 L62 405 L63 398 L66 395 L73 393 L74 387 L79 381 L99 368 L118 380 L124 386 L127 394 Z M251 362 L229 372 L217 385 L207 411 L206 438 L212 462 L229 485 L244 493 L263 494 L281 486 L295 470 L304 446 L305 416 L289 378 L269 364 Z M258 471 L259 475 L251 485 L247 485 L245 482 L254 476 L256 472 Z M265 455 L266 457 L261 462 L260 457 Z M298 452 L299 455 L296 458 L295 456 L296 453 Z M242 453 L245 452 L246 454 L243 455 Z M221 458 L238 451 L239 453 L234 457 L234 459 L242 456 L243 457 L242 461 L247 462 L245 455 L247 454 L252 457 L252 463 L254 463 L255 458 L257 458 L260 463 L255 468 L253 468 L251 471 L246 473 L245 475 L239 477 L238 479 L235 479 L226 470 L221 461 Z M292 455 L291 461 L287 468 L277 479 L265 485 L260 486 L254 485 L263 473 L266 466 L269 463 L272 463 L278 449 Z M297 449 L299 448 L300 451 L298 452 Z M211 448 L212 447 L214 448 L216 457 L225 473 L236 483 L248 488 L264 488 L274 484 L287 472 L294 459 L296 458 L297 460 L287 477 L275 487 L264 491 L248 491 L236 487 L222 474 L214 460 Z M299 443 L301 444 L300 448 L298 447 Z M211 442 L213 443 L212 447 L210 446 Z M239 441 L240 440 L249 441 L251 445 L253 446 L259 446 L261 442 L265 441 L266 443 L270 443 L271 446 L269 448 L266 448 L261 453 L254 454 L249 452 L246 448 L244 448 L240 444 Z M300 437 L302 438 L301 442 L299 441 Z M210 433 L212 434 L211 440 L209 439 Z M245 436 L248 432 L252 432 L255 434 L264 432 L267 437 L266 438 L246 438 Z M301 422 L303 423 L302 433 L300 432 Z M282 418 L284 419 L283 423 L281 422 Z M210 415 L212 416 L211 423 L209 422 Z M300 413 L302 414 L301 419 L299 418 Z M211 409 L213 410 L212 414 L210 413 Z M298 409 L300 408 L301 411 L299 412 Z M211 406 L213 405 L214 408 L212 409 Z M297 405 L299 404 L300 407 L298 408 Z M296 402 L298 401 L299 403 L297 404 Z M249 382 L259 381 L269 385 L276 392 L279 404 L277 405 L276 401 L274 401 L277 424 L273 435 L269 433 L264 426 L262 426 L261 430 L257 431 L251 430 L250 426 L248 426 L239 436 L237 435 L235 417 L238 406 L233 402 L233 398 L237 390 Z M231 381 L246 372 L262 371 L274 376 L285 386 L292 398 L297 417 L297 438 L293 452 L275 444 L276 439 L281 436 L287 420 L287 415 L282 410 L279 392 L268 382 L250 380 L242 383 L234 390 L231 396 L230 410 L225 415 L230 435 L235 438 L238 446 L228 452 L218 454 L214 436 L215 413 L219 399 Z M212 404 L213 399 L224 380 L236 370 L249 365 L263 365 L272 368 L280 373 L289 382 L298 399 L297 401 L295 400 L289 387 L277 375 L266 369 L250 368 L243 370 L232 377 L220 391 L214 405 Z M98 354 L54 397 L58 421 L49 445 L49 460 L59 476 L100 496 L141 475 L149 462 L150 447 L141 423 L146 408 L142 392 Z M99 359 L141 395 L143 406 L138 422 L147 446 L143 469 L100 493 L62 475 L50 455 L60 424 L57 396 Z M413 352 L397 380 L399 407 L385 415 L384 455 L371 459 L367 465 L369 476 L364 488 L367 492 L441 494 L459 490 L455 462 L440 454 L439 417 L436 411 L424 406 L426 379 L416 367 Z M403 489 L404 488 L419 488 L420 490 L419 491 L404 491 Z M384 481 L385 480 L439 480 L440 482 L439 483 L385 483 Z M453 479 L450 482 L442 481 L443 479 L451 478 Z M370 479 L371 478 L380 479 L381 481 L374 482 L371 481 Z M399 474 L401 473 L402 475 L400 476 Z M454 467 L453 473 L448 477 L445 476 L445 473 L443 474 L425 474 L424 473 L425 470 L435 465 L442 464 L443 462 L447 462 L448 460 L452 462 Z M434 462 L433 464 L413 473 L410 472 L411 467 L416 466 L419 463 L425 463 L431 460 Z M370 472 L370 465 L375 460 L380 459 L381 462 L391 462 L405 466 L404 469 L396 473 L390 474 L382 473 L381 477 L373 476 Z M418 457 L426 456 L427 459 L423 461 L419 461 Z M399 451 L404 450 L405 452 L400 453 Z M439 445 L440 446 L439 451 L436 454 L433 453 L430 455 L429 454 L430 448 L433 445 Z M410 441 L409 445 L405 449 L400 447 L401 445 L405 444 L407 440 Z M397 440 L398 441 L397 446 L395 447 L394 443 Z M408 434 L409 436 L407 440 L401 442 L400 438 Z M435 429 L438 430 L439 435 L438 443 L435 442 L434 438 L432 437 Z M433 413 L436 415 L437 419 L436 425 L433 424 L432 416 Z M425 409 L430 411 L430 415 L424 431 L426 435 L425 438 L423 439 L422 452 L417 453 L416 449 L414 448 L414 445 L417 436 L421 411 Z M416 406 L419 408 L419 411 L414 422 L409 423 L409 425 L403 430 L399 430 L395 424 L395 419 L393 419 L394 427 L392 442 L388 443 L388 445 L394 450 L399 457 L402 456 L405 457 L405 460 L402 462 L391 456 L385 450 L387 418 L390 413 L404 409 L406 406 L410 407 Z M413 401 L415 400 L416 402 L414 403 Z M404 391 L409 393 L408 398 L410 401 L409 403 L405 400 L403 396 Z M420 389 L421 390 L420 397 L416 401 L414 393 Z M403 388 L405 387 L406 389 L404 390 Z M403 383 L405 381 L418 381 L420 385 L410 388 L409 386 L404 386 Z M410 365 L412 364 L413 366 L411 367 Z M76 198 L62 208 L57 221 L54 334 L63 340 L140 339 L145 334 L140 213 L131 202 L117 196 Z M62 329 L63 328 L136 328 L137 330 L136 331 L63 331 Z M141 324 L143 325 L142 331 L140 330 Z M56 323 L57 322 L59 323 L59 331 L65 334 L75 333 L133 334 L138 333 L140 331 L142 332 L142 334 L137 337 L61 337 L57 334 Z M69 314 L70 313 L129 313 L130 318 L128 320 L70 320 Z M71 303 L72 302 L126 302 L128 304 L128 307 L126 309 L72 309 Z M58 292 L60 293 L60 318 L59 319 L57 318 L57 293 Z M74 293 L78 291 L80 292 L83 291 L117 291 L124 292 L125 296 L123 298 L75 298 Z M140 290 L142 291 L142 321 L141 322 L139 321 L139 291 Z M76 282 L78 279 L83 277 L86 277 L91 281 L102 281 L106 279 L115 281 L116 278 L119 278 L123 281 L123 285 L117 289 L82 289 L77 286 Z M59 261 L61 262 L61 287 L60 288 L58 287 L58 262 Z M139 258 L141 259 L141 289 L140 290 L138 289 L138 259 Z M60 233 L62 234 L62 257 L61 258 L59 257 L59 234 Z M100 226 L105 230 L106 240 L103 243 L102 248 L109 250 L113 253 L115 262 L115 271 L109 276 L107 275 L111 270 L111 261 L110 257 L108 257 L105 264 L106 272 L102 274 L94 273 L93 272 L94 269 L93 262 L90 256 L88 256 L88 270 L93 275 L91 277 L84 271 L85 254 L89 250 L93 250 L97 248 L97 245 L93 240 L94 230 Z M73 209 L87 204 L105 203 L119 206 L131 215 L134 225 L136 322 L133 320 L127 291 L124 289 L125 280 L117 275 L116 253 L107 247 L109 236 L103 225 L100 209 L90 234 L92 247 L83 253 L82 275 L74 281 L75 289 L71 294 L66 320 L62 320 L65 226 L68 214 Z M63 211 L65 210 L67 206 L73 202 L86 198 L105 197 L113 198 L125 202 L135 210 L139 219 L140 256 L139 257 L137 256 L136 219 L132 211 L126 206 L116 202 L103 200 L87 201 L77 204 L70 208 L65 214 L63 220 L63 230 L61 231 L60 230 L60 219 Z M410 189 L368 243 L370 328 L381 341 L443 341 L453 329 L455 242 Z M440 317 L442 324 L439 328 L434 329 L432 327 L433 320 L437 317 Z M396 317 L399 317 L403 321 L403 324 L400 325 L399 328 L396 328 L393 325 L393 320 Z M383 317 L386 317 L390 320 L391 326 L390 328 L385 328 L382 325 Z M427 316 L430 321 L430 326 L428 328 L423 329 L420 327 L420 320 Z M409 317 L412 316 L416 319 L418 323 L416 328 L409 329 L406 327 L405 322 Z M412 311 L415 310 L416 312 L413 313 Z M440 304 L439 311 L436 313 L424 313 L419 310 L420 308 L426 305 L433 304 L434 301 L437 301 Z M383 307 L387 301 L390 301 L391 303 L400 303 L407 305 L414 305 L417 303 L420 304 L417 307 L406 309 L396 313 L386 312 Z M402 299 L406 298 L407 300 L403 301 Z M432 291 L432 293 L427 298 L422 297 L428 290 Z M405 284 L407 285 L407 287 L412 288 L408 295 L404 294 L406 292 L406 290 L404 289 Z M429 275 L431 276 L432 281 L431 288 L428 288 L426 286 L426 282 Z M421 262 L423 264 L426 264 L430 268 L431 273 L428 274 L427 272 L425 272 L420 293 L418 296 L413 296 L412 294 L416 287 L415 278 L419 263 Z M416 261 L417 264 L413 270 L414 275 L408 284 L406 283 L406 279 L402 279 L400 274 L398 274 L396 291 L401 296 L401 298 L399 299 L391 292 L393 269 L396 265 L405 263 L408 260 Z M378 260 L380 259 L381 261 L379 262 Z M406 248 L409 248 L411 251 L409 256 L406 254 L405 250 Z M408 240 L418 241 L418 253 L415 257 L413 256 L414 252 L413 249 L415 245 L414 244 L411 248 L405 245 Z M411 209 L439 238 L444 248 L444 255 L440 261 L440 300 L433 297 L435 292 L433 269 L430 264 L420 260 L423 245 L421 238 L417 234 L413 216 L410 218 L407 234 L404 235 L400 246 L402 258 L405 260 L392 266 L389 284 L391 297 L385 300 L382 299 L382 265 L384 262 L381 260 L379 249 L385 237 Z M410 204 L412 203 L413 205 L411 206 Z M411 193 L434 220 L441 226 L441 228 L446 232 L446 234 L444 235 L413 199 L410 199 L376 240 L373 248 L373 255 L377 262 L376 328 L379 333 L384 335 L438 335 L443 334 L446 331 L447 261 L450 255 L450 247 L445 237 L445 235 L447 234 L451 239 L453 245 L453 256 L450 262 L450 330 L449 333 L443 338 L380 338 L375 334 L373 329 L373 262 L370 256 L370 246 L377 233 Z M255 188 L233 211 L218 237 L210 273 L214 315 L209 337 L254 343 L298 340 L302 337 L297 315 L301 273 L296 247 L281 214 Z M299 335 L296 338 L272 339 L271 340 L241 340 L240 339 L223 339 L215 337 L216 335 L242 336 L243 337 L288 336 L296 334 Z M212 335 L214 334 L215 336 L213 337 Z M264 328 L270 327 L272 329 L272 332 L266 333 L264 331 Z M250 329 L252 327 L259 327 L261 331 L259 333 L252 333 Z M239 329 L241 327 L247 327 L248 331 L246 333 L240 333 Z M274 327 L279 326 L282 328 L283 331 L281 333 L277 333 L274 330 Z M232 326 L237 327 L237 331 L234 333 L229 332 L229 329 Z M221 326 L227 327 L224 332 L220 331 L219 328 Z M287 325 L292 327 L291 332 L287 332 L285 330 L285 327 Z M293 325 L296 324 L298 326 L298 329 L295 330 Z M215 324 L218 325 L216 330 L213 329 L213 326 Z M273 319 L279 318 L280 322 L274 323 Z M263 319 L270 318 L271 321 L269 323 L264 323 Z M250 319 L259 318 L261 321 L258 324 L254 324 L250 321 Z M241 319 L247 318 L248 323 L247 324 L242 323 Z M231 319 L237 318 L238 322 L232 323 Z M291 318 L294 317 L295 320 L292 321 Z M282 318 L288 317 L289 321 L283 322 Z M222 318 L228 317 L229 321 L224 322 Z M216 317 L220 316 L221 321 L220 322 L217 321 Z M292 310 L294 309 L295 312 L293 313 Z M217 308 L219 309 L218 313 L216 312 Z M293 306 L295 305 L296 308 L294 309 Z M216 303 L218 304 L217 308 L215 307 Z M271 303 L265 308 L256 311 L254 310 L256 305 L261 305 L263 303 L269 302 Z M271 302 L273 301 L274 303 L272 304 Z M290 305 L290 311 L287 314 L283 314 L282 311 L274 312 L269 310 L270 308 L276 305 L282 304 L283 300 L286 300 Z M221 307 L222 303 L227 300 L230 300 L231 303 L245 304 L248 306 L246 310 L242 310 L232 306 L233 309 L239 312 L238 315 L225 314 Z M295 299 L297 300 L296 304 L294 303 Z M244 298 L249 297 L250 300 L245 301 Z M215 297 L217 298 L216 303 L214 302 Z M261 297 L262 296 L267 297 L268 299 L262 301 Z M296 289 L298 290 L297 298 L295 297 Z M241 283 L244 285 L242 289 L240 288 Z M269 282 L271 283 L270 289 L268 288 Z M278 280 L280 282 L280 291 L275 296 L271 296 L270 295 L271 292 L276 288 L276 286 L273 285 L273 281 Z M233 280 L238 281 L238 285 L235 286 L235 288 L241 293 L238 297 L231 291 L231 284 Z M296 269 L298 270 L297 278 L295 277 Z M214 269 L216 270 L216 296 L215 297 L213 296 L213 270 Z M254 265 L256 264 L257 267 L255 268 Z M274 263 L276 265 L277 272 L273 274 L272 268 L270 268 L269 275 L265 279 L266 282 L264 291 L266 293 L259 295 L249 294 L248 292 L258 282 L262 270 L267 267 L270 263 Z M295 262 L297 263 L296 268 L294 267 Z M261 264 L263 262 L266 263 L265 266 L262 266 Z M246 263 L248 262 L250 265 L247 266 Z M239 262 L241 262 L242 265 L249 270 L252 270 L255 273 L254 275 L252 275 L253 284 L251 286 L246 284 L246 279 L243 276 L241 269 L239 269 L238 274 L235 273 L234 271 L235 266 Z M294 257 L296 258 L295 262 L293 261 Z M249 259 L252 257 L261 258 L262 260 L259 263 L253 263 Z M293 252 L295 253 L294 257 L292 256 Z M265 252 L267 251 L268 254 L266 255 Z M291 250 L293 249 L294 251 L292 252 Z M247 241 L249 240 L250 244 L254 243 L256 244 L253 247 L254 253 L258 252 L258 245 L263 244 L264 249 L262 253 L256 257 L253 256 L248 250 Z M288 237 L291 240 L293 246 L292 249 L290 248 L287 239 Z M249 236 L250 235 L263 235 L264 237 L255 241 Z M224 235 L225 238 L220 250 L217 268 L215 269 L214 263 L218 246 L222 236 Z M283 228 L285 227 L286 229 L284 230 Z M228 226 L229 228 L226 234 L224 235 L223 233 L226 227 Z M229 222 L231 221 L232 223 L230 224 Z M279 221 L281 220 L283 224 L281 225 Z M231 219 L233 218 L234 220 L232 221 Z M276 217 L278 216 L280 219 L278 220 Z M236 214 L237 216 L234 218 L233 216 Z M273 213 L275 212 L277 215 L275 216 Z M240 209 L241 211 L237 214 L236 212 Z M251 206 L252 208 L248 217 L246 227 L241 233 L236 232 L238 247 L236 251 L237 257 L239 260 L234 262 L230 257 L228 257 L230 269 L229 293 L231 296 L221 300 L219 298 L218 276 L223 249 L227 238 L235 223 L241 215 Z M260 205 L268 212 L279 227 L288 248 L293 273 L293 293 L291 300 L281 296 L283 290 L281 271 L283 266 L283 258 L281 258 L277 262 L273 260 L275 255 L275 249 L273 248 L275 240 L275 232 L271 233 L266 227 L263 221 L263 216 L259 208 Z M257 196 L259 195 L273 210 L271 211 Z M254 194 L257 193 L258 195 L255 196 Z M240 84 L240 86 L242 87 L247 87 L247 85 Z M403 45 L395 53 L392 77 L378 89 L374 112 L377 129 L360 141 L360 157 L372 166 L453 165 L460 160 L463 146 L458 136 L445 130 L448 117 L445 91 L430 77 L432 67 L426 51 L417 44 Z M461 147 L461 150 L457 159 L450 163 L436 163 L412 157 L413 155 L436 144 L446 145 L447 143 L445 142 L444 138 L439 136 L441 133 L447 133 L455 137 L458 140 Z M362 153 L362 144 L364 140 L369 135 L375 133 L388 134 L402 138 L401 140 L383 140 L376 143 L377 145 L391 141 L413 141 L417 137 L428 137 L433 135 L441 139 L440 141 L432 142 L405 156 L384 163 L370 162 L364 157 Z M410 101 L413 102 L417 117 L422 126 L428 132 L427 134 L407 137 L394 133 L402 123 Z M409 70 L410 88 L403 114 L398 124 L391 131 L384 132 L379 127 L377 119 L378 100 L380 93 L387 83 L391 81 L395 83 L397 91 L385 110 L383 115 L385 116 L401 90 L397 81 L397 76 L399 75 L399 72 Z M413 69 L423 70 L425 81 L422 87 L422 92 L436 113 L438 113 L438 111 L426 93 L425 88 L429 81 L432 81 L436 83 L441 89 L444 100 L445 117 L443 127 L438 132 L431 131 L424 124 L419 114 L412 85 Z M397 57 L403 49 L407 47 L417 47 L424 53 L426 62 L424 63 L423 60 L418 56 L412 58 L404 56 L399 60 L397 59 Z M250 35 L243 40 L238 54 L246 74 L228 82 L223 89 L219 121 L223 135 L205 143 L203 159 L212 167 L304 166 L311 158 L311 146 L304 138 L294 135 L297 122 L288 81 L267 73 L274 60 L269 40 L259 34 Z M276 161 L279 160 L282 161 L283 163 L279 164 Z M267 148 L268 155 L267 159 L252 160 L242 158 L243 151 L245 148 L254 150 L263 149 L265 147 Z M288 143 L287 146 L283 147 L272 154 L270 153 L269 147 L271 145 L276 145 L285 141 Z M292 138 L301 139 L308 146 L309 154 L307 160 L304 163 L301 164 L299 163 L300 161 L303 160 L303 158 L297 160 L287 160 L279 157 L280 155 L295 156 L295 154 L293 153 L293 148 L296 147 L297 145 L295 144 L295 141 L291 140 Z M208 143 L211 140 L219 137 L229 138 L231 140 L230 142 L223 142 L223 143 L241 149 L240 157 L239 158 L235 157 L223 151 L225 155 L237 161 L236 163 L233 164 L225 164 L219 161 L213 155 L212 150 L209 151 L206 150 Z M257 146 L258 144 L264 141 L264 139 L262 138 L263 136 L268 137 L275 136 L277 138 L274 142 L259 147 Z M276 133 L280 131 L285 136 L285 138 L282 139 Z M275 123 L276 124 L275 129 L269 135 L268 133 L273 124 Z M291 122 L292 130 L288 132 L287 134 L279 129 L282 126 L286 127 L286 125 L284 124 L285 122 Z M255 114 L256 117 L253 122 L255 122 L256 124 L249 130 L245 132 L240 132 L238 129 L247 124 L252 116 Z M288 111 L292 115 L293 118 L292 120 L283 118 L287 114 Z M274 110 L276 109 L277 111 L275 112 Z M291 107 L284 113 L282 112 L286 106 Z M254 106 L255 107 L254 110 L247 118 L247 120 L241 125 L240 124 L242 121 L241 117 Z M276 105 L278 104 L279 106 L277 107 Z M253 104 L255 103 L256 105 L254 106 Z M277 102 L279 101 L280 103 L278 104 Z M243 98 L244 100 L240 103 L239 101 Z M285 93 L287 92 L288 95 L286 96 Z M256 88 L257 89 L256 93 L258 95 L253 101 L253 103 L245 111 L241 113 L239 108 L247 101 L247 99 L245 99 L244 97 Z M284 83 L285 85 L283 89 L281 100 L279 101 L278 98 L276 98 L274 107 L268 118 L270 119 L272 116 L274 117 L268 130 L263 135 L256 136 L254 133 L260 122 L258 118 L265 104 L265 101 L262 100 L264 92 L268 91 L269 85 L272 79 Z M250 78 L251 80 L257 80 L258 82 L237 99 L235 98 L235 96 L233 96 L231 117 L229 121 L225 122 L225 123 L228 123 L241 137 L244 136 L252 137 L251 139 L249 139 L252 143 L245 145 L228 135 L222 129 L222 120 L224 111 L225 93 L227 87 L243 79 L248 81 L248 79 Z M262 72 L259 76 L254 76 L251 74 L252 71 L258 72 L260 70 Z M266 59 L267 62 L263 65 L261 62 L264 59 Z M245 60 L248 59 L251 63 L248 65 L245 62 Z M251 59 L256 58 L258 60 L258 63 L254 64 L251 61 Z M254 52 L257 51 L258 54 L255 55 Z M245 42 L249 38 L260 37 L267 42 L268 45 L267 52 L260 53 L259 49 L253 49 L252 52 L246 54 L244 47 Z M97 17 L95 29 L89 37 L88 48 L91 58 L83 61 L79 67 L77 114 L81 120 L87 116 L85 132 L91 142 L91 148 L80 154 L77 171 L89 176 L110 176 L121 171 L118 154 L106 149 L106 143 L113 137 L120 77 L118 64 L107 58 L108 37 Z M80 168 L83 167 L87 169 L111 169 L117 167 L118 169 L113 172 L108 173 L90 173 L83 171 Z M116 161 L112 165 L108 166 L91 166 L84 163 L85 161 L89 162 L108 162 L113 160 Z M97 154 L99 155 L98 159 L95 158 Z M107 158 L110 153 L115 155 L113 158 L109 159 Z M86 153 L88 154 L87 158 L83 156 Z M102 143 L104 144 L105 152 L104 154 L101 153 Z M95 142 L96 150 L93 153 L92 152 L93 143 Z M91 138 L92 137 L105 138 L106 140 L105 141 L93 141 Z M81 105 L83 106 L82 110 L80 109 Z M111 97 L112 102 L106 132 L108 132 L108 129 L110 128 L111 135 L101 137 L98 135 L101 103 L106 101 L107 98 Z M115 83 L117 84 L116 91 L113 90 Z M97 82 L98 84 L96 89 L95 100 L99 101 L98 120 L96 134 L92 135 L91 128 L88 126 L90 124 L88 99 L90 91 L92 89 L91 85 Z M112 75 L113 79 L112 82 L110 83 L109 77 Z M106 71 L107 72 L106 98 L102 100 L101 96 L102 95 L103 72 Z M112 65 L114 64 L116 67 L113 68 Z M101 58 L103 60 L101 72 L92 82 L90 81 L90 77 L88 76 L87 70 L85 70 L86 89 L85 94 L83 95 L82 94 L82 65 L95 58 Z M97 54 L99 53 L100 55 L98 56 Z M94 40 L104 41 L104 51 L102 54 L100 53 L100 50 L97 50 L95 52 L93 51 L93 41 Z M103 38 L105 37 L106 40 L104 41 Z M93 36 L101 35 L102 37 L94 38 Z M97 26 L99 25 L100 27 L98 28 Z"/></svg>
