<svg xmlns="http://www.w3.org/2000/svg" width="512" height="512" viewBox="0 0 512 512" aria-hidden="true" focusable="false"><path fill="currentColor" fill-rule="evenodd" clip-rule="evenodd" d="M21 431 L22 433 L25 434 L488 434 L492 432 L492 431 L489 432 L24 432 Z M242 389 L244 397 L251 396 L254 391 L256 392 L255 396 L265 395 L265 385 L255 385 L254 386 L244 385 Z M253 388 L255 387 L256 389 L254 390 Z M66 388 L66 395 L68 396 L75 396 L77 390 L79 391 L79 396 L84 397 L89 396 L87 385 L80 385 L79 390 L77 389 L76 385 L72 386 L68 385 Z M407 388 L407 390 L409 391 L408 393 L409 396 L422 395 L425 397 L427 395 L430 395 L431 393 L436 396 L438 395 L441 396 L442 394 L447 396 L456 395 L454 389 L455 385 L420 385 L417 386 L416 384 L414 384 L413 386 L409 385 L409 387 Z M442 388 L444 387 L445 390 L443 391 Z M429 388 L432 387 L433 390 L431 391 Z M355 389 L352 384 L332 385 L331 395 L332 396 L340 395 L352 397 L354 395 Z M154 386 L155 396 L171 396 L173 394 L175 396 L177 395 L177 386 L175 384 L168 385 L166 387 L160 386 L158 384 Z M269 361 L269 365 L271 366 L271 361 Z M350 356 L348 356 L341 363 L338 360 L335 360 L335 361 L341 367 L350 358 Z M65 362 L69 361 L88 362 L90 353 L87 354 L71 353 L70 355 L66 353 Z M247 346 L245 348 L245 352 L247 354 L253 355 L247 362 L247 364 L254 359 L256 365 L261 366 L263 363 L262 359 L254 358 L259 352 L260 348 L254 353 L253 348 L250 346 Z M257 361 L259 360 L260 363 L258 364 Z M247 350 L250 349 L251 351 L248 352 Z M233 339 L232 351 L235 353 L235 358 L232 360 L232 370 L234 373 L279 373 L281 371 L281 360 L278 357 L278 354 L281 351 L281 340 L279 338 Z M235 341 L237 339 L268 339 L270 344 L269 358 L271 358 L271 340 L277 339 L279 341 L279 349 L276 352 L276 359 L279 362 L279 370 L277 372 L272 372 L271 369 L269 369 L268 372 L236 372 L235 362 L238 358 L238 353 L235 349 Z M326 339 L324 341 L324 373 L328 376 L360 375 L362 373 L362 341 L360 339 L355 339 L353 335 L351 335 L350 339 L336 339 L334 335 L332 335 L331 339 Z M325 350 L326 349 L354 349 L355 350 L360 349 L361 350 L361 372 L358 374 L328 374 L325 371 Z M325 343 L327 341 L331 341 L332 344 L334 344 L336 340 L350 340 L351 344 L354 344 L354 341 L358 340 L361 343 L361 346 L360 347 L326 347 Z M161 335 L162 342 L152 356 L151 365 L153 370 L157 374 L165 376 L165 374 L162 371 L162 367 L168 363 L172 367 L172 372 L170 374 L170 376 L179 373 L183 368 L184 364 L183 356 L181 354 L181 351 L178 348 L174 352 L171 341 L166 336 Z M165 339 L167 339 L170 344 L170 354 L172 356 L176 355 L177 353 L180 354 L181 367 L177 372 L175 371 L174 366 L169 361 L168 358 L165 358 L164 363 L160 365 L159 372 L153 366 L153 358 L163 345 Z M79 335 L73 338 L67 338 L63 343 L59 345 L59 350 L56 354 L56 358 L59 360 L58 366 L62 368 L66 374 L73 374 L77 377 L81 374 L88 374 L92 368 L95 368 L98 358 L96 345 L91 343 L88 338 L82 338 Z M69 339 L75 339 L77 337 L81 339 L86 339 L88 343 L94 347 L93 352 L96 355 L93 360 L94 365 L90 367 L86 373 L82 372 L79 374 L76 374 L73 372 L68 372 L66 368 L61 365 L61 360 L59 357 L61 352 L61 347 L66 344 Z M428 333 L421 351 L421 361 L415 364 L412 367 L412 369 L417 376 L421 376 L431 366 L442 376 L446 376 L451 369 L451 367 L441 360 L441 349 L438 343 L436 334 Z M447 366 L448 370 L445 374 L442 374 L441 371 L445 366 Z M416 366 L418 366 L422 371 L420 374 L418 374 L414 369 Z M433 350 L439 351 L439 361 L442 364 L442 367 L440 369 L438 369 L432 364 L432 351 Z M430 341 L431 342 L431 362 L429 366 L423 369 L420 366 L420 364 L423 361 L423 353 L427 351 L428 342 Z M428 337 L430 336 L431 338 L429 339 Z M139 297 L139 305 L151 305 L152 303 L155 305 L165 305 L164 303 L165 297 L156 297 L154 299 L151 297 L146 297 L145 304 L141 303 L141 297 Z M421 295 L422 303 L421 306 L443 305 L443 296 L434 295 L431 298 L430 295 Z M332 299 L335 302 L332 306 L335 305 L340 306 L344 298 L346 299 L346 302 L344 304 L346 304 L347 306 L351 306 L352 304 L355 304 L354 302 L355 296 L344 296 L342 298 L340 295 L335 295 Z M243 297 L243 306 L246 305 L254 306 L255 304 L258 306 L266 305 L264 302 L264 296 L261 295 L257 296 L257 302 L255 304 L253 303 L252 296 L244 295 Z M169 297 L170 306 L186 306 L187 305 L192 306 L193 297 L190 297 L189 295 L187 297 L185 297 L184 295 L182 297 L178 295 Z M66 296 L67 301 L65 303 L67 304 L67 306 L75 306 L76 304 L78 304 L79 306 L88 306 L87 304 L88 297 L72 295 Z M75 299 L77 298 L78 301 L76 302 Z M245 267 L246 269 L259 269 L259 267 Z M245 261 L245 263 L263 263 L263 261 Z M154 261 L154 270 L164 270 L166 268 L170 270 L178 269 L176 267 L178 261 L169 261 L168 263 L166 261 L160 261 L159 268 L155 267 L155 261 Z M64 247 L58 251 L56 255 L56 263 L61 272 L75 285 L78 285 L89 276 L97 266 L97 253 L91 247 L83 247 L77 251 L71 247 Z M65 249 L72 250 L76 255 L84 249 L89 249 L95 255 L96 260 L94 266 L77 283 L63 271 L58 261 L59 254 Z M352 246 L349 248 L348 254 L337 261 L333 260 L328 261 L326 264 L326 268 L329 271 L339 271 L348 277 L348 280 L351 284 L356 284 L359 280 L358 275 L347 274 L337 268 L338 263 L348 257 L354 258 L358 255 L359 253 L358 248 L355 246 Z M351 277 L356 276 L357 280 L355 282 L352 282 Z M331 262 L334 264 L333 269 L328 268 L328 264 Z M351 250 L356 249 L357 253 L355 255 L352 255 Z M430 245 L429 248 L424 251 L420 256 L419 271 L415 275 L415 279 L416 280 L426 280 L430 285 L434 285 L436 284 L438 280 L449 280 L450 276 L446 272 L445 269 L444 255 L434 245 Z M430 281 L433 280 L434 282 L431 283 Z M425 253 L429 251 L436 251 L442 256 L443 270 L447 276 L446 278 L418 278 L417 277 L421 272 L422 258 Z M264 247 L256 244 L251 244 L243 247 L237 253 L234 262 L235 270 L238 276 L237 285 L244 283 L256 285 L264 282 L269 277 L272 271 L272 258 L269 252 Z M250 247 L258 247 L263 249 L266 252 L270 261 L270 269 L267 276 L258 282 L249 282 L246 280 L241 281 L240 274 L237 269 L238 257 L244 250 Z M178 248 L170 244 L161 244 L151 250 L146 260 L146 268 L149 274 L149 285 L155 283 L161 285 L171 285 L181 279 L185 270 L185 258 Z M163 246 L172 247 L179 252 L184 263 L183 271 L181 275 L172 282 L163 283 L157 280 L152 282 L151 274 L148 267 L149 257 L157 248 Z M434 205 L433 214 L443 215 L442 205 Z M421 207 L423 215 L429 215 L431 207 L428 205 Z M327 205 L327 214 L331 216 L336 216 L338 212 L340 213 L340 215 L354 214 L355 216 L357 216 L358 214 L361 214 L360 206 L357 205 L351 206 Z M242 207 L243 209 L242 216 L248 215 L252 216 L253 210 L255 211 L255 213 L260 216 L262 216 L265 213 L263 205 L255 206 L243 205 Z M154 208 L154 210 L157 211 L155 214 L159 216 L163 214 L164 210 L166 211 L166 215 L177 215 L177 205 L166 205 L165 208 L162 205 L156 205 Z M157 207 L159 206 L160 208 L158 209 Z M66 206 L67 216 L70 215 L76 216 L76 208 L78 206 L80 207 L80 215 L83 214 L88 215 L89 205 L79 205 L78 206 L68 205 Z M352 187 L350 189 L350 194 L352 196 L355 196 L358 193 L358 190 L355 187 Z M352 190 L354 189 L356 192 L353 194 Z M334 187 L331 190 L331 193 L334 196 L337 196 L339 194 L339 189 L337 187 Z M335 189 L337 190 L336 193 L333 192 Z M169 177 L168 178 L168 194 L170 196 L185 195 L186 194 L186 178 L184 176 Z M170 180 L177 178 L183 178 L185 180 L185 192 L184 193 L171 193 L170 192 Z M148 176 L146 178 L146 194 L148 196 L163 195 L164 194 L164 179 L161 176 Z M152 178 L161 179 L161 192 L160 193 L149 193 L148 192 L148 180 Z M427 156 L423 161 L422 167 L424 171 L428 174 L428 176 L420 179 L417 182 L414 189 L414 194 L415 195 L450 195 L449 184 L442 178 L437 176 L437 174 L442 168 L441 160 L435 155 Z M417 188 L422 181 L426 179 L434 178 L442 181 L446 185 L448 192 L447 193 L418 193 Z M428 158 L434 157 L440 163 L440 167 L435 173 L430 173 L425 168 L425 162 Z M322 154 L322 157 L327 158 L331 182 L334 184 L355 184 L358 182 L361 169 L360 162 L330 162 L328 155 Z M330 166 L331 165 L358 165 L359 170 L357 178 L355 181 L334 181 L332 177 Z M242 157 L238 161 L235 167 L235 177 L237 181 L247 189 L256 189 L264 186 L271 194 L274 194 L274 192 L265 184 L269 176 L269 167 L266 161 L262 157 L254 154 L250 154 Z M247 157 L257 157 L261 159 L266 166 L267 169 L266 178 L258 186 L254 187 L246 186 L238 178 L237 168 L240 163 Z M169 154 L168 155 L168 171 L169 172 L185 172 L186 171 L186 156 L184 154 Z M170 157 L171 156 L183 156 L185 158 L185 169 L183 171 L171 171 L170 170 Z M147 154 L146 155 L146 171 L147 172 L163 172 L164 170 L163 154 Z M149 156 L160 156 L161 157 L161 170 L160 171 L149 171 L148 170 L148 157 Z M77 153 L54 174 L59 175 L59 195 L72 196 L74 194 L74 183 L81 182 L82 195 L94 196 L95 174 L101 174 Z M77 156 L93 170 L93 193 L92 194 L83 193 L83 181 L82 180 L72 180 L70 194 L61 193 L61 171 Z M131 108 L132 119 L141 127 L377 127 L387 117 L385 103 L376 97 L143 97 Z M288 112 L290 113 L289 117 L287 116 Z M185 110 L187 109 L189 113 L186 114 Z M358 108 L360 107 L362 110 L359 111 Z M325 107 L327 108 L327 118 L326 119 L324 118 L324 108 Z M196 108 L198 107 L199 109 L197 110 Z M495 85 L495 427 L497 426 L497 86 Z M16 86 L16 426 L18 427 L18 85 Z M21 80 L21 81 L24 80 L489 80 L492 81 L489 78 L25 78 Z"/></svg>
