<svg xmlns="http://www.w3.org/2000/svg" width="512" height="512" viewBox="0 0 512 512" aria-hidden="true" focusable="false"><path fill="currentColor" fill-rule="evenodd" clip-rule="evenodd" d="M75 423 L76 428 L81 428 L89 423 L90 426 L86 429 L86 432 L89 435 L94 434 L100 429 L102 429 L105 432 L108 432 L110 436 L112 436 L115 431 L120 435 L123 434 L117 429 L114 429 L111 431 L108 428 L99 427 L94 430 L93 426 L97 425 L97 423 L90 422 L87 417 L83 418 L86 421 L82 425 L79 423 Z M88 430 L90 429 L93 432 L90 433 Z M83 413 L80 413 L79 410 L75 408 L73 411 L75 416 L72 417 L69 415 L68 417 L70 420 L74 420 L77 414 L82 415 Z M105 396 L104 394 L101 394 L100 392 L98 394 L94 394 L91 396 L86 394 L81 394 L78 396 L80 402 L82 402 L83 399 L85 400 L85 402 L89 402 L90 400 L94 402 L98 402 L101 400 L104 402 Z M102 396 L100 399 L96 398 L97 396 L100 395 Z M121 400 L123 402 L132 402 L134 400 L137 402 L146 401 L148 395 L145 393 L136 394 L133 393 L132 390 L129 391 L125 390 L122 392 Z M128 398 L130 397 L131 399 L129 400 Z M124 396 L126 395 L127 397 L125 398 Z M115 389 L113 389 L113 392 L109 398 L109 402 L106 404 L107 412 L117 412 L120 409 L120 403 L118 400 L118 397 L115 394 Z M116 402 L119 404 L119 408 L117 410 L113 408 Z M101 386 L98 387 L98 389 L100 389 Z M374 387 L379 389 L376 392 L376 396 L379 398 L376 402 L380 404 L380 402 L382 401 L383 404 L386 404 L387 401 L389 400 L386 394 L386 391 L380 385 Z M58 378 L57 381 L60 390 L59 396 L61 397 L59 400 L59 408 L63 411 L67 409 L68 404 L67 399 L65 398 L65 395 L61 388 L59 378 Z M170 377 L168 378 L167 388 L163 392 L163 395 L160 397 L160 400 L156 407 L154 406 L155 400 L154 399 L152 400 L151 409 L157 413 L156 416 L154 416 L153 413 L146 411 L145 413 L142 414 L143 418 L141 419 L140 423 L135 419 L131 421 L130 420 L131 415 L122 418 L122 421 L129 422 L127 425 L123 427 L127 431 L126 434 L129 434 L130 432 L129 428 L133 423 L140 426 L143 422 L147 422 L147 418 L145 417 L146 415 L149 415 L152 419 L156 419 L159 416 L158 410 L166 408 L165 403 L167 402 L166 398 L168 396 L165 393 L168 391 L170 387 Z M249 377 L245 386 L246 392 L248 393 L247 383 L250 379 L252 379 L254 388 L252 390 L252 394 L250 397 L252 398 L263 397 L267 392 L268 387 L267 381 L262 376 Z M252 394 L259 392 L261 395 L253 396 Z M260 378 L264 380 L266 383 L266 390 L264 394 L257 389 L257 385 Z M342 375 L343 380 L347 381 L350 379 L350 374 Z M438 373 L437 374 L438 378 L441 380 L444 380 L447 378 L453 380 L452 382 L449 382 L447 384 L447 388 L442 392 L442 396 L438 400 L439 408 L441 410 L465 410 L465 408 L468 407 L468 400 L464 396 L463 391 L459 389 L459 385 L455 381 L455 376 L457 375 L459 379 L461 377 L467 379 L468 374 L466 373 L463 374 L461 373 L456 374 Z M439 402 L443 399 L452 398 L463 399 L466 402 L466 407 L465 408 L442 408 L439 405 Z M444 393 L446 391 L460 391 L462 395 L456 396 L455 394 L453 394 L447 397 L444 395 Z M449 385 L456 384 L457 388 L455 390 L452 390 L449 387 Z M400 374 L400 378 L402 380 L410 379 L411 375 L410 373 Z M355 373 L353 375 L353 380 L355 382 L352 384 L351 390 L348 392 L356 392 L357 394 L353 398 L349 398 L347 394 L345 394 L345 398 L342 401 L342 408 L344 411 L347 412 L370 411 L372 409 L372 401 L370 399 L370 393 L364 390 L364 385 L358 381 L358 378 L361 376 L362 380 L366 379 L370 380 L371 375 L365 373 L362 374 Z M344 403 L347 400 L354 400 L358 398 L360 400 L368 400 L371 403 L371 407 L366 410 L348 410 L344 407 Z M357 393 L366 392 L368 396 L366 398 L359 397 Z M353 386 L355 384 L360 384 L362 388 L360 391 L355 391 L353 389 Z M353 424 L358 432 L368 433 L384 416 L403 416 L404 421 L400 423 L400 427 L402 429 L400 434 L410 436 L413 432 L410 430 L410 420 L412 416 L428 416 L433 421 L435 420 L433 418 L435 415 L453 416 L453 419 L442 419 L440 421 L442 423 L441 426 L436 423 L436 425 L445 433 L455 433 L459 427 L459 420 L456 416 L451 414 L429 414 L425 411 L425 409 L421 405 L422 403 L424 403 L424 396 L436 396 L436 390 L431 389 L416 390 L416 395 L421 396 L422 403 L420 404 L415 399 L414 401 L425 412 L424 414 L388 415 L387 413 L403 395 L404 392 L413 397 L408 391 L410 386 L405 388 L396 377 L396 373 L399 369 L409 368 L412 369 L415 373 L415 377 L411 384 L415 381 L416 372 L412 366 L404 365 L397 368 L395 371 L395 379 L403 388 L403 393 L382 415 L360 415 L354 420 Z M360 429 L363 428 L364 430 L361 431 Z M458 422 L456 429 L451 432 L444 430 L442 428 L443 426 L447 425 L453 427 L456 421 Z M356 426 L356 421 L362 416 L379 416 L380 417 L369 430 L367 429 L368 422 L366 420 L362 420 L361 424 L358 427 Z M244 374 L243 363 L239 363 L238 366 L227 367 L227 370 L233 371 L234 374 Z M234 371 L236 370 L237 372 L235 373 Z M85 365 L85 373 L88 374 L87 371 L90 369 L92 374 L95 375 L95 377 L92 378 L93 382 L89 385 L90 388 L94 388 L97 384 L101 383 L101 380 L99 379 L101 373 L104 373 L107 376 L105 379 L105 383 L109 386 L121 386 L124 379 L122 375 L128 374 L131 387 L134 385 L135 382 L138 381 L141 374 L138 371 L138 359 L126 353 L122 353 L114 357 L111 357 L110 355 L104 353 L99 353 L91 358 L93 362 L90 368 Z M117 382 L120 381 L121 383 L118 384 Z M109 382 L113 381 L114 383 L110 384 Z M134 373 L136 372 L137 375 L135 376 Z M105 372 L107 371 L108 373 L106 374 Z M118 367 L120 366 L122 369 L119 371 Z M106 367 L108 366 L109 369 L107 370 Z M129 362 L132 364 L132 372 L130 374 L128 373 L128 370 L126 370 L124 367 L125 365 L128 366 Z M135 361 L137 362 L136 370 L134 369 Z M117 363 L121 359 L125 359 L129 361 L128 363 L122 363 L120 366 Z M107 360 L108 362 L104 363 L102 366 L105 369 L104 371 L98 371 L97 367 L99 363 L97 364 L96 366 L97 374 L95 375 L93 372 L94 363 L99 359 Z M128 358 L130 357 L131 359 L129 360 Z M94 358 L96 357 L97 359 L95 360 Z M207 327 L207 342 L205 347 L206 352 L204 365 L203 366 L200 365 L199 354 L197 350 L197 338 L195 338 L195 354 L193 359 L194 364 L192 366 L192 369 L193 370 L214 370 L215 369 L223 370 L224 360 L222 354 L222 339 L220 338 L220 352 L218 357 L218 364 L214 366 L212 362 L211 354 L212 345 L209 337 L209 327 Z M304 325 L298 365 L293 364 L290 338 L288 365 L281 362 L279 365 L266 367 L266 370 L273 370 L276 376 L287 375 L282 389 L272 399 L266 398 L265 402 L259 404 L247 403 L243 396 L239 399 L231 392 L231 385 L226 385 L223 373 L219 373 L220 384 L217 390 L213 384 L214 373 L206 373 L206 380 L203 382 L205 391 L209 390 L219 404 L213 410 L202 394 L199 375 L194 373 L189 379 L194 382 L199 406 L202 405 L211 418 L223 426 L224 431 L228 429 L246 433 L253 438 L258 434 L269 433 L277 436 L281 429 L291 429 L291 423 L298 423 L299 416 L309 404 L313 406 L312 398 L320 372 L316 339 L311 361 L313 364 L308 366 Z M236 424 L238 423 L238 420 L240 419 L253 422 L254 426 L251 429 L245 429 L240 426 L237 426 Z M225 419 L231 417 L232 421 L234 421 L235 424 L233 425 L231 423 L228 423 Z M241 413 L245 411 L246 409 L252 410 L264 409 L265 410 L264 415 L261 415 L260 413 L258 413 L257 416 L247 416 L242 415 Z M221 406 L223 407 L225 412 L224 419 L222 418 L222 413 L220 409 Z M302 403 L302 406 L299 408 L298 411 L293 409 L293 411 L290 414 L290 417 L287 420 L273 427 L264 429 L261 428 L262 421 L267 421 L268 423 L272 423 L274 417 L279 416 L283 418 L287 415 L286 412 L291 406 L294 404 L299 404 L300 402 Z M285 402 L286 404 L283 406 L283 408 L277 410 L278 412 L277 414 L274 413 L273 410 L271 409 L271 407 L278 401 Z M220 391 L223 391 L227 395 L227 397 L238 406 L237 412 L234 411 L233 406 L229 407 L223 403 L218 395 Z M298 376 L299 379 L292 397 L286 403 L285 402 L286 399 L284 396 L286 395 L286 392 L288 390 L292 389 L292 387 L290 386 L290 381 L292 378 L295 378 Z M289 371 L291 370 L292 372 L290 373 Z M313 370 L315 369 L316 371 L314 372 Z M295 369 L313 371 L311 374 L312 376 L311 389 L307 395 L307 398 L304 401 L300 400 L298 402 L297 399 L298 396 L300 395 L301 390 L306 387 L304 385 L305 374 L297 373 L294 371 Z M284 366 L287 369 L286 372 L283 371 Z M153 315 L153 333 L149 343 L150 347 L146 349 L151 354 L148 357 L149 365 L147 367 L147 370 L149 375 L146 378 L146 383 L148 384 L147 391 L149 393 L152 392 L158 393 L160 389 L159 387 L161 380 L161 374 L159 373 L160 369 L159 363 L160 362 L158 360 L160 357 L160 355 L158 354 L160 351 L159 350 L160 346 L157 334 L155 332 L155 316 Z M154 378 L156 379 L156 384 L152 385 L151 382 L153 381 Z M150 350 L153 347 L155 351 L151 352 Z M70 315 L70 333 L69 336 L67 337 L66 343 L67 347 L63 349 L68 354 L66 357 L67 364 L66 371 L69 375 L66 376 L65 378 L67 383 L66 391 L68 393 L77 391 L76 384 L77 377 L74 376 L74 373 L76 371 L76 364 L78 360 L76 359 L74 355 L75 337 L72 332 L72 316 Z M70 383 L73 384 L74 387 L73 390 L69 387 Z M68 378 L72 377 L73 379 L69 380 Z M71 357 L73 358 L73 364 L75 365 L74 367 L70 365 Z M71 351 L73 350 L74 352 L72 353 Z M66 350 L68 349 L69 351 L67 352 Z M360 334 L390 334 L391 344 L388 345 L384 351 L385 356 L389 360 L420 360 L425 355 L425 348 L418 343 L418 335 L424 333 L429 334 L431 332 L435 334 L437 330 L439 331 L439 334 L447 334 L450 328 L440 326 L431 327 L424 330 L424 324 L421 323 L420 327 L417 328 L419 333 L416 334 L413 332 L412 326 L406 323 L406 317 L410 315 L411 319 L415 317 L420 319 L421 314 L419 311 L410 312 L408 314 L403 311 L400 313 L399 317 L397 316 L396 311 L393 313 L389 311 L387 312 L387 317 L389 319 L393 320 L398 317 L404 321 L403 324 L400 324 L397 327 L396 333 L393 328 L383 329 L376 327 L370 329 L361 328 Z M386 351 L389 347 L401 346 L406 342 L408 345 L421 347 L423 349 L423 355 L419 358 L390 358 L387 355 Z M393 337 L395 335 L415 335 L418 340 L414 344 L411 344 L407 341 L406 338 L404 338 L401 343 L395 344 L393 342 Z M399 328 L402 326 L409 326 L411 328 L411 331 L409 333 L401 333 L399 331 Z M274 311 L273 312 L273 335 L271 343 L271 347 L273 350 L270 358 L272 360 L278 360 L279 356 L276 350 L278 347 L278 342 L275 331 L275 312 Z M236 311 L235 312 L235 331 L232 342 L232 347 L234 349 L231 356 L232 360 L240 359 L237 350 L239 347 L239 343 L237 335 L237 312 Z M90 303 L90 321 L86 331 L87 335 L83 336 L83 338 L88 342 L88 344 L86 345 L86 351 L90 351 L92 349 L94 352 L96 352 L95 350 L96 346 L94 344 L94 341 L96 340 L96 328 L94 321 L92 320 L92 303 Z M134 302 L134 321 L132 322 L130 331 L133 338 L131 339 L130 336 L127 336 L127 338 L132 342 L131 344 L128 344 L127 346 L130 351 L133 351 L134 349 L139 351 L140 344 L137 343 L139 341 L139 329 L136 321 L136 302 Z M404 286 L400 305 L402 307 L408 307 L409 301 L407 299 L407 293 L405 291 L406 286 Z M254 280 L254 303 L251 314 L253 319 L249 323 L247 322 L245 296 L245 320 L243 326 L242 341 L249 343 L247 349 L244 352 L244 358 L246 360 L258 361 L257 364 L249 364 L247 368 L249 370 L251 369 L254 373 L260 373 L263 371 L262 363 L266 358 L266 351 L264 349 L263 343 L267 342 L267 337 L264 337 L263 335 L267 333 L264 297 L263 320 L260 322 L257 319 L258 308 L256 302 L256 280 Z M261 333 L262 335 L259 337 L258 335 Z M261 324 L262 328 L261 331 L259 332 L257 327 Z M249 324 L253 327 L252 329 L253 336 L251 338 L248 335 L249 333 L248 325 Z M115 280 L113 280 L113 298 L111 299 L109 305 L110 311 L106 313 L106 316 L111 319 L110 324 L107 325 L107 328 L111 331 L110 333 L107 334 L107 340 L115 342 L114 344 L106 345 L106 350 L109 352 L114 352 L114 350 L117 349 L116 346 L118 334 L116 333 L116 330 L119 327 L119 325 L115 321 L116 318 L118 317 L118 307 L115 298 Z M310 243 L308 241 L302 241 L301 239 L291 241 L291 245 L294 247 L293 250 L296 252 L301 251 L304 247 L308 247 Z M471 233 L469 233 L467 242 L465 241 L465 232 L463 233 L463 239 L461 242 L462 254 L459 256 L451 255 L449 253 L447 255 L431 253 L428 249 L416 250 L415 248 L412 248 L410 245 L408 245 L405 249 L408 249 L411 252 L416 252 L417 254 L427 255 L441 259 L456 259 L457 260 L470 259 L471 258 L470 255 L471 253 L470 251 Z M466 244 L468 245 L467 252 L464 251 Z M189 231 L180 234 L183 241 L183 255 L184 255 L185 239 L186 236 L189 234 Z M364 230 L362 238 L357 239 L357 242 L361 243 L363 241 L367 241 L372 244 L373 240 L368 238 L368 233 Z M224 238 L225 242 L229 240 L234 240 L236 242 L239 241 L239 239 L234 236 L234 230 L231 230 L230 235 Z M427 196 L427 199 L429 199 L430 201 L434 199 L435 202 L438 203 L437 199 L434 199 L431 196 Z M369 179 L367 179 L364 182 L362 181 L355 182 L356 186 L358 188 L369 187 L369 185 L367 184 Z M267 154 L268 160 L270 159 L276 160 L279 157 L273 153 Z M243 143 L239 151 L239 163 L242 171 L246 175 L241 162 L241 152 L244 147 L244 143 Z M427 108 L426 111 L428 112 L428 114 L435 121 L439 121 L440 122 L439 125 L446 130 L446 138 L450 142 L453 154 L452 160 L453 164 L450 167 L451 175 L453 175 L456 169 L455 167 L457 165 L456 161 L458 160 L455 150 L457 146 L454 143 L452 138 L453 131 L445 124 L445 122 L440 117 L436 116 L429 108 Z M391 89 L389 95 L389 114 L398 130 L409 143 L409 148 L406 152 L406 154 L409 155 L413 149 L413 141 L410 138 L410 136 L404 132 L403 129 L399 126 L399 124 L393 117 L393 112 L391 107 L391 94 L393 90 Z M182 89 L180 105 L176 109 L176 112 L180 113 L181 116 L174 118 L175 121 L172 126 L178 128 L173 134 L174 142 L178 145 L185 145 L186 147 L182 154 L178 151 L177 157 L170 157 L162 162 L165 167 L171 165 L177 166 L175 170 L168 170 L168 175 L173 179 L177 179 L179 185 L172 189 L167 188 L160 181 L159 175 L157 175 L158 184 L163 193 L171 198 L177 199 L176 210 L174 211 L174 215 L177 218 L174 219 L174 222 L182 224 L181 226 L176 226 L177 230 L184 230 L184 227 L189 226 L192 220 L192 216 L184 216 L191 210 L191 202 L188 198 L180 196 L183 188 L185 187 L191 193 L197 193 L202 189 L205 181 L204 171 L197 162 L201 158 L198 153 L192 154 L191 150 L186 146 L189 141 L188 133 L191 132 L189 126 L191 121 L183 120 L182 118 L189 117 L189 114 L180 112 L181 110 L185 110 Z M179 217 L181 216 L182 219 L180 220 Z M181 212 L183 211 L184 213 L182 214 Z M199 169 L201 172 L200 180 L193 185 L190 184 L187 181 L187 179 L195 169 Z M185 162 L188 165 L185 171 L180 175 L179 172 L181 169 L181 163 Z M183 124 L185 123 L186 125 L184 126 Z M301 88 L294 106 L296 113 L289 123 L276 122 L273 129 L278 128 L279 132 L259 132 L246 141 L260 134 L333 134 L354 146 L357 163 L341 182 L327 171 L338 158 L333 147 L321 146 L313 151 L311 144 L306 149 L264 146 L259 158 L269 171 L256 181 L249 178 L252 184 L244 193 L240 187 L242 180 L228 181 L228 185 L236 186 L242 194 L238 204 L241 221 L260 235 L280 235 L298 225 L314 235 L333 236 L346 232 L359 215 L357 198 L345 184 L358 166 L358 150 L347 137 L326 132 L328 127 L324 123 L318 123 L317 131 L312 131 L312 123 L302 112 Z M324 221 L327 219 L329 222 L325 223 Z M335 214 L336 215 L335 219 L331 221 L330 216 Z M317 211 L319 212 L320 215 L319 218 L316 216 Z M260 212 L262 211 L265 214 L270 212 L272 220 L268 223 L265 222 L262 219 Z M328 211 L330 210 L331 213 L329 214 Z M289 209 L292 208 L294 211 L305 211 L306 213 L303 218 L297 221 L291 214 Z M333 208 L335 207 L336 210 L334 211 Z M317 208 L318 205 L323 200 L327 200 L332 203 L334 206 L333 208 L324 207 L319 209 Z M288 207 L289 201 L296 196 L304 198 L309 203 L308 205 L292 204 L290 208 Z M275 193 L276 186 L278 187 L283 186 L286 188 L285 190 L278 194 Z M334 181 L336 180 L340 184 L336 186 L334 184 Z M302 183 L323 171 L334 179 L331 182 L315 181 L314 186 L316 188 L326 187 L332 189 L329 194 L325 196 L303 185 Z M240 205 L243 196 L251 186 L256 185 L263 190 L258 182 L270 171 L275 171 L296 184 L288 188 L287 181 L264 181 L264 186 L270 186 L276 195 L272 197 L267 193 L269 199 L258 210 L258 217 L263 223 L275 224 L283 216 L282 208 L278 203 L276 204 L281 211 L278 220 L275 219 L277 209 L264 208 L263 206 L298 185 L321 198 L314 208 L314 216 L321 224 L330 224 L337 220 L339 209 L328 196 L342 185 L355 198 L357 213 L354 222 L347 229 L333 234 L315 233 L300 224 L309 212 L309 200 L302 194 L295 194 L289 198 L287 209 L296 224 L282 232 L267 234 L250 228 L244 222 Z M317 161 L318 160 L332 160 L333 162 L323 168 Z M276 168 L282 162 L284 156 L290 153 L292 156 L294 155 L312 156 L314 162 L313 163 L287 162 L285 163 L285 169 L290 168 L291 169 L307 169 L308 170 L313 169 L315 170 L316 167 L318 166 L320 170 L304 180 L298 182 L283 174 Z M318 151 L323 148 L330 148 L334 152 L328 153 L325 155 L323 153 L319 153 Z M272 146 L277 147 L282 151 L282 158 L274 167 L265 163 L261 156 L262 151 L265 148 Z M320 129 L322 128 L323 131 L321 132 Z M282 129 L285 127 L288 131 L283 132 Z M288 126 L289 125 L310 125 L311 127 L310 128 L289 128 Z M291 121 L298 120 L299 122 L292 123 Z M296 116 L301 115 L302 118 L299 119 Z M72 86 L71 112 L67 114 L68 120 L72 121 L68 124 L72 134 L69 139 L73 140 L68 143 L68 175 L71 176 L68 180 L68 213 L72 216 L67 222 L72 253 L78 224 L83 229 L84 253 L88 225 L96 226 L97 253 L99 226 L108 226 L112 252 L112 226 L120 225 L124 253 L125 226 L129 224 L127 198 L131 194 L125 183 L129 114 L125 112 L124 85 L121 112 L117 115 L113 112 L111 86 L108 112 L100 112 L98 85 L96 112 L87 113 L89 105 L84 86 L83 113 L76 114 Z M83 222 L85 221 L86 223 L84 224 Z M71 222 L73 221 L74 223 L72 224 Z M108 221 L112 220 L113 222 L110 224 Z M97 221 L99 220 L100 222 L98 223 Z M122 220 L124 219 L126 222 L123 223 Z M104 214 L106 215 L105 222 L102 221 L102 216 Z M96 215 L98 214 L99 217 L97 218 Z M116 213 L122 215 L121 217 L119 217 L118 222 L116 221 L115 216 Z M108 211 L111 210 L112 212 L109 213 Z M102 211 L104 210 L105 212 L103 213 Z M122 208 L124 207 L125 210 L123 211 Z M96 201 L98 200 L99 202 L97 203 Z M103 197 L108 199 L105 204 L102 203 Z M121 197 L123 196 L124 198 L122 199 Z M118 194 L120 197 L119 202 L122 202 L123 204 L119 205 L119 208 L121 210 L116 213 L115 212 L116 207 L114 203 L116 195 Z M77 192 L80 193 L81 201 L84 203 L81 206 L80 214 L81 221 L80 222 L76 221 L76 198 L77 197 L76 193 Z M120 191 L122 190 L123 193 L121 194 Z M90 190 L93 190 L95 194 L94 204 L96 206 L94 208 L94 212 L96 215 L94 216 L93 222 L89 221 L90 213 L89 205 L86 204 L87 202 L89 202 L90 196 L89 191 Z M70 187 L72 186 L73 188 L71 189 Z M113 190 L115 188 L114 183 L115 181 L117 181 L119 185 L125 186 L124 188 L119 188 L119 191 L117 193 Z M120 178 L123 177 L124 179 L121 180 Z M96 170 L99 171 L97 175 L95 174 Z M116 166 L118 167 L118 170 L122 171 L117 176 L115 175 Z M121 163 L123 162 L124 164 L122 165 Z M95 163 L97 162 L99 165 L97 166 Z M90 153 L94 155 L92 159 L92 162 L94 163 L93 165 L94 169 L93 173 L95 182 L94 189 L89 186 L88 181 L89 176 L88 157 Z M115 151 L119 154 L119 156 L122 157 L121 159 L119 159 L118 162 L115 161 L116 159 L115 157 L111 156 L112 154 L114 154 Z M98 147 L99 150 L97 152 L93 150 L94 148 Z M70 147 L72 146 L73 148 L71 149 Z M84 143 L86 142 L87 144 L85 145 Z M120 140 L124 139 L125 141 L121 142 Z M90 134 L92 135 L94 139 L98 140 L97 142 L93 142 L94 144 L93 147 L89 146 L89 135 Z M121 129 L123 128 L124 130 L122 131 Z M95 129 L97 128 L98 130 L96 131 Z M76 125 L81 129 L80 139 L82 140 L81 148 L84 149 L81 152 L80 156 L82 159 L81 163 L83 163 L84 166 L81 168 L82 171 L81 183 L83 185 L79 192 L77 191 L75 186 L76 178 L73 177 L76 173 L77 167 L76 164 L76 153 L77 152 L76 129 L75 128 Z M80 121 L83 120 L84 122 L81 123 Z M118 117 L121 124 L119 127 L120 140 L119 144 L117 145 L117 148 L115 149 L113 145 L115 138 L112 135 L115 131 L113 125 L115 124 L114 118 Z M90 117 L92 118 L94 124 L92 127 L93 130 L92 134 L88 131 L88 124 L86 123 Z M76 118 L79 117 L80 121 L78 122 Z M105 116 L106 120 L109 121 L105 125 L106 130 L105 142 L107 143 L105 147 L106 148 L106 158 L108 160 L107 162 L105 162 L108 165 L106 167 L107 175 L106 187 L108 188 L108 190 L103 194 L101 190 L103 188 L103 186 L101 185 L102 165 L101 162 L99 162 L98 160 L101 159 L100 151 L101 147 L99 146 L101 142 L101 125 L102 124 L101 118 Z M122 116 L124 115 L125 117 L123 118 Z M109 116 L112 115 L113 118 L111 119 Z M96 116 L98 115 L99 118 L97 119 Z M82 116 L86 115 L87 117 L83 118 Z M449 82 L445 88 L439 91 L438 96 L435 99 L431 99 L431 100 L435 100 L438 103 L439 108 L443 112 L446 112 L450 118 L452 118 L452 114 L456 113 L460 109 L462 104 L470 100 L462 98 L460 91 L456 89 L455 87 L453 87 L451 83 Z M457 97 L459 96 L460 99 L458 100 Z M400 82 L396 93 L396 110 L400 119 L405 119 L403 123 L412 133 L417 133 L418 140 L422 139 L420 144 L423 153 L414 164 L400 156 L392 161 L392 165 L397 166 L401 179 L395 190 L397 217 L392 226 L388 218 L387 200 L393 176 L385 184 L385 228 L392 230 L389 235 L396 242 L404 242 L409 233 L445 247 L447 239 L441 237 L440 231 L448 228 L451 232 L455 225 L458 230 L462 223 L460 217 L452 217 L448 207 L453 204 L456 211 L459 211 L463 201 L457 183 L456 199 L453 202 L441 200 L446 208 L437 206 L433 209 L423 205 L425 191 L433 192 L440 186 L449 189 L451 184 L448 177 L435 175 L442 167 L441 144 L429 126 L417 121 L407 112 L401 100 Z M414 232 L416 231 L417 233 L415 234 Z M431 229 L435 231 L438 236 L437 239 L435 238 L434 235 L431 234 L430 232 Z M425 224 L427 223 L429 226 L427 227 Z M405 180 L406 182 L404 184 L404 187 L401 190 L400 202 L404 205 L404 207 L401 213 L399 214 L396 205 L397 200 L396 192 L399 189 L399 185 L403 180 Z M283 42 L280 41 L279 43 L275 45 L275 50 L269 53 L268 61 L266 60 L266 51 L264 51 L264 59 L261 61 L259 60 L259 52 L251 51 L255 42 L251 43 L250 46 L248 45 L248 43 L243 44 L243 47 L245 50 L240 52 L239 63 L237 62 L237 51 L234 51 L233 61 L230 60 L229 51 L226 51 L224 54 L220 51 L214 51 L211 53 L209 51 L201 51 L199 55 L205 58 L203 61 L204 66 L208 65 L208 57 L214 56 L215 54 L220 55 L220 59 L216 61 L217 66 L221 66 L223 64 L226 66 L231 65 L237 66 L239 64 L242 66 L249 66 L251 64 L252 56 L256 57 L256 66 L260 65 L266 66 L268 61 L270 62 L271 66 L273 66 L276 62 L278 63 L278 66 L281 66 L281 53 L279 50 L281 49 L281 45 Z M243 60 L247 59 L248 62 L244 63 Z M223 57 L226 56 L227 59 L224 61 Z M245 50 L247 49 L248 52 L246 53 Z M22 18 L16 29 L28 38 L28 474 L18 479 L17 489 L27 493 L31 476 L482 476 L483 489 L492 493 L497 482 L486 474 L486 38 L496 32 L496 23 L486 19 L482 36 L31 36 L30 22 Z M27 477 L28 478 L28 488 L25 491 L23 491 L19 487 L19 482 L24 477 Z M486 476 L492 479 L495 484 L491 491 L488 491 L485 487 L485 477 Z M30 38 L482 37 L483 473 L31 474 Z M491 21 L494 24 L495 28 L490 34 L486 35 L485 25 L488 21 Z M22 21 L26 21 L28 24 L28 34 L27 35 L23 34 L19 29 L19 25 Z"/></svg>
