<svg xmlns="http://www.w3.org/2000/svg" width="512" height="512" viewBox="0 0 512 512" aria-hidden="true" focusable="false"><path fill="currentColor" fill-rule="evenodd" clip-rule="evenodd" d="M249 401 L250 403 L253 404 L255 403 L264 404 L268 402 L262 399 L254 399 Z M408 349 L401 356 L403 366 L386 384 L375 409 L366 456 L366 486 L372 493 L392 497 L442 495 L452 490 L455 477 L449 420 L436 385 L425 375 L428 368 L420 362 L416 350 Z M400 490 L403 489 L405 492 L401 493 Z M423 492 L424 488 L430 489 L429 491 L425 493 Z M417 489 L419 488 L421 492 L418 493 Z M410 488 L412 489 L411 493 L409 492 Z M393 489 L395 488 L396 490 L394 491 Z M383 488 L387 487 L388 489 L384 490 Z M378 488 L381 487 L382 489 L379 490 Z M445 487 L448 486 L449 489 L447 490 Z M441 487 L443 486 L444 489 L442 490 Z M443 483 L445 482 L446 484 L444 485 Z M372 472 L374 473 L373 479 L370 478 L370 475 Z M382 473 L384 471 L398 473 L424 473 L436 471 L439 477 L431 479 L417 479 L416 480 L383 478 Z M385 468 L386 467 L402 468 L404 465 L406 465 L407 469 L429 468 L430 467 L435 467 L436 469 L432 471 L424 472 L398 472 L388 471 Z M449 459 L451 458 L452 460 L450 461 Z M372 457 L374 456 L375 458 L373 459 Z M412 457 L415 454 L417 455 L414 458 Z M385 456 L388 452 L394 451 L395 453 L392 454 L392 456 L404 455 L407 456 L408 459 L397 463 L389 463 L386 461 Z M373 449 L375 448 L376 450 L374 451 Z M444 444 L447 443 L450 446 L448 447 L445 446 Z M443 432 L445 431 L447 435 L444 436 Z M375 432 L377 431 L378 433 L376 434 Z M373 426 L375 425 L376 427 L374 428 Z M418 423 L419 425 L415 435 L415 447 L412 449 L404 448 L402 446 L403 438 L409 435 L414 429 L416 424 Z M424 422 L427 426 L428 431 L428 446 L424 450 L419 451 L418 447 L421 446 L425 442 L423 438 L423 428 L420 427 L421 423 Z M406 417 L414 418 L415 421 L406 433 L402 433 L401 430 L399 430 L397 443 L401 448 L404 448 L405 450 L408 451 L407 453 L399 452 L398 449 L394 447 L393 438 L394 428 L396 423 L399 421 L405 420 Z M439 416 L441 415 L442 417 L440 418 Z M441 411 L443 410 L444 413 L442 414 Z M413 409 L416 410 L414 415 L412 414 Z M406 409 L410 410 L408 416 L406 415 L405 411 Z M408 403 L412 402 L413 404 L410 407 Z M426 383 L428 382 L429 384 L427 385 Z M411 379 L424 386 L423 389 L427 393 L436 416 L441 442 L442 474 L440 475 L437 469 L436 455 L435 460 L431 463 L413 462 L415 459 L429 456 L429 454 L433 452 L429 450 L429 425 L427 421 L420 418 L420 400 L410 384 L408 391 L401 401 L401 418 L396 420 L392 427 L392 449 L384 455 L383 470 L381 472 L381 480 L379 481 L378 454 L380 452 L379 445 L381 444 L385 416 L394 393 L398 389 L395 386 L402 381 L405 382 Z M414 375 L417 372 L419 373 L416 376 Z M415 363 L417 362 L422 367 L420 368 Z M404 362 L406 361 L407 363 L405 364 Z M409 356 L411 355 L412 357 L410 358 Z M406 354 L407 355 L406 360 L404 361 L403 357 Z M413 353 L415 352 L418 355 L418 357 L416 358 Z M406 354 L409 351 L413 352 L412 354 L408 355 Z M256 348 L238 365 L238 373 L217 402 L212 441 L217 464 L231 484 L247 493 L266 494 L282 487 L296 472 L303 453 L305 428 L294 391 L284 378 L286 384 L279 384 L280 374 L268 363 L267 352 Z M267 489 L269 488 L270 490 L268 491 Z M271 487 L273 486 L274 488 L272 489 Z M255 486 L258 485 L259 488 L256 489 Z M240 484 L242 483 L243 485 L241 486 Z M276 482 L278 481 L279 483 L277 484 Z M243 480 L245 479 L246 481 L244 482 Z M231 480 L233 479 L235 482 L233 483 Z M284 473 L286 472 L287 474 L285 475 Z M237 473 L239 472 L240 474 L238 475 Z M279 467 L277 471 L274 471 L272 474 L269 474 L261 479 L260 483 L257 483 L255 478 L252 478 L251 476 L245 474 L239 469 L240 467 L242 467 L251 472 L266 472 L277 466 Z M230 467 L234 466 L235 468 L231 469 Z M292 461 L295 460 L296 463 L293 464 Z M278 464 L278 462 L282 460 L285 462 L284 464 L280 465 Z M221 461 L223 460 L224 462 L222 463 Z M232 459 L234 458 L236 461 L239 462 L238 465 L233 464 Z M292 452 L294 451 L295 453 L293 454 Z M288 448 L290 449 L289 454 L286 453 Z M266 446 L267 449 L263 451 L262 448 Z M282 448 L280 455 L278 456 L278 458 L272 465 L261 469 L256 469 L251 466 L252 463 L257 465 L258 462 L260 462 L265 457 L267 457 L269 455 L269 452 L273 444 L278 445 Z M250 444 L260 449 L260 455 L257 456 L251 454 L254 460 L251 463 L246 465 L239 458 L235 449 L245 444 Z M224 444 L227 443 L228 447 L225 448 Z M250 440 L253 439 L256 442 L267 440 L268 442 L258 447 L251 443 Z M247 436 L249 435 L250 437 L248 438 Z M265 434 L264 437 L254 437 L253 436 L254 434 L263 433 Z M246 428 L247 427 L252 428 L253 432 L249 434 L246 431 Z M271 427 L271 431 L269 435 L267 435 L265 431 L256 432 L254 429 L255 427 L267 428 L268 426 Z M295 424 L298 423 L299 425 L296 426 Z M218 424 L220 423 L221 425 L219 426 Z M268 422 L270 421 L271 423 L269 424 Z M245 424 L246 421 L250 422 L247 425 Z M298 420 L301 419 L302 422 L299 423 Z M291 418 L296 421 L294 423 L295 428 L294 433 L297 434 L295 437 L292 438 L290 437 L291 434 L290 419 Z M215 418 L217 419 L216 424 L214 423 Z M294 415 L296 414 L297 416 L295 417 Z M218 415 L220 414 L221 416 L219 417 Z M260 413 L265 412 L266 417 L263 418 Z M227 412 L228 413 L226 422 L227 438 L225 439 L224 437 L220 436 L223 433 L221 428 L223 424 L221 423 L221 421 L224 419 L225 417 L224 414 Z M220 408 L222 407 L224 410 L221 411 Z M287 404 L290 404 L293 409 L296 406 L299 407 L296 412 L292 412 L291 418 L289 417 L286 407 Z M227 404 L231 405 L229 410 L227 409 L226 406 Z M219 403 L222 402 L223 404 L220 405 Z M294 402 L296 401 L298 405 L296 406 Z M237 393 L240 392 L241 396 L238 397 Z M244 395 L254 391 L263 391 L271 395 L275 395 L278 398 L277 401 L283 410 L286 421 L286 437 L283 446 L271 441 L271 437 L274 435 L277 427 L277 420 L275 418 L273 407 L273 412 L270 419 L268 418 L268 413 L266 413 L263 408 L254 408 L252 410 L253 412 L257 410 L260 411 L256 416 L258 416 L259 420 L262 420 L263 422 L258 423 L254 418 L250 418 L248 420 L246 419 L246 406 L243 409 L244 414 L240 420 L240 427 L243 435 L246 437 L246 442 L238 446 L233 445 L231 437 L231 421 L234 410 Z M280 388 L284 387 L285 391 L283 392 Z M231 390 L232 387 L236 388 L233 391 Z M285 386 L287 385 L288 387 L286 388 Z M261 384 L263 383 L264 386 L262 387 Z M245 382 L247 383 L246 389 L244 388 L243 385 Z M257 382 L259 381 L260 383 L258 384 Z M274 380 L275 381 L274 385 L271 388 L269 385 Z M237 378 L239 380 L238 384 L232 385 L231 383 Z M239 377 L241 376 L242 378 L240 379 Z M249 374 L251 375 L250 379 L248 378 Z M273 374 L276 373 L277 375 L274 376 Z M271 372 L273 371 L274 373 L272 374 Z M255 372 L257 371 L258 373 L256 374 Z M257 369 L260 368 L261 370 L258 371 Z M266 366 L271 369 L270 373 L272 374 L271 376 L267 374 L267 371 L265 369 Z M254 352 L255 354 L252 357 L251 355 Z M261 352 L263 351 L266 355 L262 356 Z M257 351 L259 350 L260 352 L258 353 Z M97 345 L97 351 L90 352 L92 360 L58 393 L49 412 L55 422 L51 438 L55 463 L66 474 L101 493 L144 464 L149 447 L145 421 L150 409 L138 389 L114 366 L106 348 Z M98 481 L100 480 L101 482 L99 483 Z M117 474 L119 473 L120 475 L118 476 Z M76 472 L79 471 L80 473 L77 474 Z M93 471 L98 470 L100 472 L102 470 L105 470 L106 472 L97 476 L96 473 L94 473 Z M68 469 L70 468 L71 470 L69 471 Z M129 468 L131 467 L132 469 L130 470 Z M112 467 L114 465 L117 466 L116 469 L113 469 Z M81 469 L83 465 L87 467 L86 469 L83 470 Z M134 464 L135 466 L132 468 L131 466 Z M62 462 L64 461 L65 463 L63 464 Z M68 460 L70 459 L71 462 L69 463 Z M131 458 L132 461 L128 464 L127 461 Z M139 456 L140 459 L137 462 L136 459 Z M113 457 L115 456 L116 458 L114 459 Z M73 454 L76 455 L74 459 L72 458 Z M129 450 L131 449 L132 451 L130 452 Z M126 443 L128 442 L129 444 L127 445 Z M140 441 L142 440 L144 443 L141 445 Z M71 442 L73 440 L83 437 L85 441 L92 442 L94 444 L93 446 L90 446 L90 448 L94 447 L95 449 L97 449 L98 447 L103 446 L104 449 L103 450 L100 449 L101 454 L103 455 L104 460 L96 461 L93 459 L93 456 L91 454 L87 455 L81 454 L80 449 L77 450 L75 446 L71 445 Z M113 435 L122 438 L124 440 L121 446 L122 452 L120 454 L115 454 L114 456 L108 453 Z M123 435 L125 434 L126 436 L124 437 Z M74 435 L76 434 L77 436 L75 437 Z M104 433 L107 434 L106 440 L102 438 L102 435 Z M84 437 L88 435 L91 436 L93 433 L95 433 L97 435 L97 440 L99 442 L96 443 L85 439 Z M127 430 L129 429 L130 432 L128 433 Z M138 429 L140 428 L141 430 L139 431 Z M105 428 L103 432 L98 431 L99 429 L103 427 Z M90 426 L92 425 L93 427 L91 428 Z M89 416 L92 415 L95 419 L91 422 L89 420 Z M131 415 L133 414 L134 416 L132 417 Z M109 412 L110 418 L106 422 L104 418 Z M98 412 L102 416 L102 419 L104 422 L103 424 L96 423 L98 418 L95 415 Z M141 408 L143 407 L144 409 L142 410 Z M90 400 L97 395 L104 396 L108 399 L109 405 L111 408 L108 410 L106 409 L101 410 L99 404 L102 403 L102 401 L96 401 L96 403 L98 404 L98 409 L91 410 Z M118 389 L120 388 L121 390 L119 391 Z M86 384 L100 380 L105 383 L113 384 L114 393 L116 395 L125 396 L126 402 L129 404 L133 413 L128 413 L127 420 L123 423 L120 435 L109 431 L110 425 L115 418 L116 412 L113 410 L113 403 L111 399 L109 399 L107 395 L101 393 L94 394 L87 400 L86 410 L83 412 L86 423 L90 427 L90 431 L84 435 L78 435 L76 422 L74 424 L72 423 L72 414 L68 413 L67 410 L73 400 L85 393 L84 386 Z M92 370 L94 369 L95 371 L93 372 Z M104 369 L108 368 L109 370 L105 371 Z M100 368 L102 367 L103 370 L101 371 Z M92 353 L94 352 L95 355 L93 356 Z M97 348 L100 347 L101 349 L98 350 Z M110 259 L110 269 L112 269 L112 259 Z M83 230 L94 225 L105 225 L111 228 L112 226 L105 223 L93 223 L84 227 Z M96 186 L82 203 L57 212 L55 332 L76 338 L137 337 L144 325 L141 213 L119 203 L104 187 Z M111 333 L113 332 L114 334 L112 335 Z M86 331 L88 330 L89 332 L87 333 Z M83 331 L85 330 L86 332 L84 333 Z M73 330 L75 331 L74 335 L72 334 Z M73 319 L74 318 L90 318 L91 316 L106 316 L108 318 L124 318 L125 320 L124 321 L74 321 Z M126 311 L128 312 L127 316 L125 315 Z M56 309 L60 308 L61 310 L57 311 Z M74 309 L76 307 L81 308 L120 308 L122 307 L124 310 L122 313 L111 313 L110 316 L108 314 L91 314 L89 316 L88 313 L76 313 Z M77 299 L93 297 L94 299 L106 299 L107 297 L120 298 L121 302 L120 303 L78 303 Z M56 293 L60 292 L61 294 L57 295 Z M80 290 L87 291 L118 290 L119 293 L117 295 L82 295 L79 293 Z M81 282 L85 279 L88 279 L89 281 L94 283 L103 283 L108 282 L110 279 L113 279 L117 282 L117 285 L116 286 L102 286 L101 289 L98 289 L97 286 L83 286 Z M88 274 L90 273 L93 278 L91 279 L88 276 Z M56 268 L60 267 L61 269 L57 270 Z M136 260 L140 259 L141 261 L137 262 Z M57 247 L60 246 L61 248 L58 249 Z M57 242 L61 241 L62 244 L60 245 Z M58 227 L61 226 L62 228 L59 229 Z M69 218 L122 217 L131 220 L131 326 L66 324 L67 319 L73 323 L125 323 L129 318 L128 256 L120 233 L118 235 L124 245 L127 267 L127 311 L123 305 L119 280 L111 274 L108 279 L105 278 L108 273 L107 262 L104 276 L94 276 L94 269 L101 264 L105 256 L108 256 L105 253 L106 245 L100 229 L93 241 L93 253 L90 256 L96 254 L103 256 L97 264 L91 262 L90 271 L86 259 L86 276 L79 281 L74 314 L70 315 L71 262 L77 237 L70 258 L69 295 L66 306 L63 280 L66 279 Z M62 215 L65 211 L68 213 L65 216 Z M90 211 L93 209 L95 210 L94 213 L91 213 Z M122 209 L124 208 L125 210 L123 211 Z M109 209 L111 208 L112 211 L110 212 Z M88 208 L89 210 L86 213 L84 213 L83 211 L86 208 Z M106 206 L108 205 L109 207 L107 208 Z M87 205 L89 204 L92 207 L88 208 Z M111 203 L114 202 L116 205 L112 206 Z M82 203 L84 202 L85 204 L83 205 Z M98 193 L100 193 L103 196 L102 204 L99 202 L100 200 L99 197 L97 199 L95 198 Z M98 188 L100 187 L104 191 L102 192 Z M411 184 L405 189 L407 201 L367 250 L369 317 L374 328 L387 337 L433 338 L447 333 L457 321 L461 255 L444 228 L439 229 L439 222 L424 206 L428 199 L420 187 Z M421 330 L423 329 L424 331 L422 332 Z M412 328 L414 327 L415 330 L413 331 Z M404 326 L407 327 L405 331 L402 330 Z M439 326 L442 325 L443 328 L440 329 Z M382 324 L384 323 L385 325 L383 326 Z M439 317 L441 316 L443 319 L440 321 Z M439 314 L441 313 L442 315 L440 316 Z M404 307 L406 308 L405 312 L403 311 Z M412 306 L414 307 L413 312 L411 311 Z M384 306 L386 305 L387 307 L385 308 Z M433 304 L437 304 L439 310 L438 315 L435 317 L433 316 L432 313 Z M389 302 L394 303 L393 307 L394 313 L392 317 L388 315 L389 307 L388 303 Z M416 297 L418 296 L419 298 L417 299 Z M384 302 L385 296 L390 298 L386 303 Z M405 292 L407 291 L408 293 L406 294 Z M401 290 L403 289 L404 291 L402 292 Z M425 285 L426 286 L425 291 L422 294 L420 294 L419 292 L423 289 L423 286 Z M416 282 L418 286 L418 290 L416 292 L408 292 L407 291 L408 285 L412 283 L413 288 L414 288 L414 283 Z M415 280 L417 279 L418 281 L416 282 Z M422 274 L425 276 L424 284 L422 283 L421 278 Z M415 270 L416 272 L414 276 L408 281 L406 280 L405 277 L402 276 L403 273 L411 270 Z M440 267 L442 268 L442 308 L441 309 L439 308 L439 268 Z M441 264 L443 263 L444 266 L442 267 Z M408 264 L410 263 L411 265 L409 266 Z M432 258 L435 257 L436 261 L434 262 Z M412 258 L415 257 L416 260 L413 261 Z M391 257 L393 258 L392 262 L390 261 Z M382 257 L384 258 L384 262 L386 259 L389 261 L389 263 L385 265 L386 266 L385 268 L382 267 L382 263 L379 260 Z M443 256 L445 257 L444 263 L442 262 Z M398 254 L406 255 L405 259 L406 270 L400 275 L400 279 L404 279 L405 282 L403 287 L401 286 L401 282 L399 282 L400 293 L397 295 L398 296 L400 295 L402 298 L403 297 L414 297 L415 298 L414 300 L403 303 L397 303 L395 299 L392 298 L392 267 L393 263 L395 262 L395 258 Z M438 253 L441 256 L440 261 L438 260 L437 255 Z M392 253 L394 252 L395 254 L393 255 Z M410 243 L411 248 L406 253 L405 249 Z M446 241 L451 240 L452 242 L447 243 Z M404 228 L407 230 L411 227 L414 230 L414 233 L423 241 L423 244 L425 244 L426 247 L429 247 L431 249 L430 252 L424 252 L423 248 L420 246 L419 243 L417 243 L418 248 L421 250 L421 253 L427 254 L430 256 L430 260 L433 263 L434 267 L434 291 L437 290 L438 294 L434 295 L434 297 L431 298 L431 301 L429 303 L415 302 L416 300 L427 298 L429 295 L427 293 L428 290 L427 276 L424 272 L419 270 L421 260 L413 243 L416 240 L412 237 L412 239 L403 248 L402 252 L395 251 L396 248 L399 248 L403 240 L410 234 L410 232 L407 233 L404 237 L402 235 L398 237 L401 240 L401 242 L395 246 L389 254 L384 251 L384 247 L386 245 L389 245 L388 242 L390 240 L393 240 L395 238 L395 235 Z M385 228 L387 227 L388 229 L386 230 Z M413 227 L415 226 L416 228 L414 229 Z M391 221 L393 220 L394 222 L392 223 Z M408 220 L416 219 L422 225 L422 229 L426 233 L429 233 L436 239 L435 242 L441 245 L441 249 L438 250 L438 252 L436 253 L432 247 L425 242 L426 239 L429 241 L431 240 L427 236 L425 236 L425 238 L423 239 L416 231 L417 229 L419 229 L419 227 L415 223 L413 224 L414 226 L411 227 L408 224 Z M431 219 L434 218 L435 221 L432 222 Z M397 214 L399 213 L400 215 L398 216 Z M402 213 L404 212 L405 214 L403 215 Z M409 210 L411 209 L412 211 L410 212 Z M411 204 L414 203 L415 206 L412 207 Z M410 200 L411 197 L415 198 L412 201 Z M407 195 L409 194 L410 196 L408 197 Z M256 182 L216 244 L210 276 L214 324 L221 338 L288 339 L296 335 L302 318 L302 258 L290 226 L274 210 L265 185 Z M278 335 L281 334 L282 336 L279 337 Z M234 335 L236 334 L237 336 L235 337 Z M269 334 L271 333 L272 335 L270 336 Z M263 333 L264 335 L261 337 L260 335 Z M241 334 L243 333 L244 335 L242 336 Z M226 332 L229 331 L230 333 L227 334 Z M256 331 L258 330 L259 332 L257 333 Z M264 330 L268 329 L269 331 L265 332 Z M245 332 L246 329 L251 330 L250 332 L247 333 Z M276 329 L280 328 L281 330 L277 331 Z M233 329 L237 328 L238 330 L234 331 Z M292 326 L294 325 L295 328 L293 329 Z M289 326 L291 325 L292 327 L290 328 Z M219 328 L220 325 L223 326 L221 329 Z M258 324 L264 323 L265 327 L263 328 L262 326 L259 326 Z M249 327 L250 323 L257 324 L256 326 L252 326 L251 328 Z M273 323 L275 322 L276 324 L274 325 Z M239 323 L241 322 L242 324 L240 325 Z M215 319 L217 318 L218 320 L216 321 Z M297 317 L300 318 L300 321 L298 324 L295 321 Z M231 317 L237 316 L252 318 L253 317 L283 316 L284 319 L277 321 L275 320 L273 321 L268 320 L266 321 L242 321 L241 320 L237 321 L236 319 L232 320 Z M262 313 L271 312 L272 314 L263 315 Z M255 313 L259 312 L260 314 L256 315 Z M248 313 L252 312 L253 314 L249 315 Z M242 313 L246 312 L247 314 L243 315 Z M273 314 L276 311 L282 312 L281 314 L276 315 Z M232 311 L234 310 L235 312 L233 313 Z M256 308 L262 306 L264 309 L257 310 Z M260 303 L263 300 L266 301 L265 303 L262 304 Z M213 300 L215 301 L214 305 L212 304 Z M217 300 L219 299 L220 301 L218 302 Z M295 299 L297 298 L298 300 L296 301 Z M276 299 L279 298 L280 300 L277 301 Z M242 299 L244 298 L247 301 L252 301 L254 305 L244 307 Z M296 294 L299 291 L301 292 L299 295 Z M263 291 L265 290 L266 292 L264 293 Z M277 288 L280 291 L278 296 L275 295 Z M273 282 L274 292 L270 297 L267 297 L266 295 L270 290 L270 283 Z M245 283 L244 293 L240 295 L239 294 L241 288 L240 285 L242 282 Z M298 281 L300 282 L299 286 L297 285 Z M218 281 L219 284 L216 286 L215 284 Z M211 277 L213 276 L214 278 L212 279 Z M268 273 L269 276 L266 282 L265 288 L263 289 L262 279 L264 278 L265 274 Z M248 273 L253 276 L252 279 L254 282 L254 286 L252 291 L250 290 L250 284 L247 278 Z M296 273 L298 272 L299 274 L297 275 Z M215 273 L218 272 L219 274 L216 275 Z M270 271 L273 272 L272 277 L270 276 L269 273 Z M243 271 L246 272 L245 277 L241 276 L241 273 Z M255 268 L259 267 L260 269 L256 270 Z M243 265 L245 264 L246 266 L244 267 Z M270 261 L272 262 L271 267 L269 266 Z M296 259 L299 260 L299 263 L297 265 L294 264 Z M260 257 L263 258 L262 264 L260 263 L259 260 Z M252 258 L255 257 L256 260 L253 262 Z M218 253 L221 252 L222 254 L219 255 Z M255 251 L259 250 L260 253 L256 255 Z M288 243 L292 242 L293 245 L290 246 Z M226 235 L229 234 L230 236 L227 237 Z M288 232 L289 234 L286 237 L285 234 Z M257 231 L259 230 L260 233 L258 234 Z M236 231 L238 230 L239 232 L237 233 Z M279 224 L282 223 L283 227 L280 228 Z M238 223 L241 222 L243 227 L240 228 Z M260 220 L266 222 L268 225 L271 223 L275 227 L273 230 L280 239 L287 256 L290 271 L290 300 L287 309 L285 308 L285 305 L280 309 L270 310 L267 309 L267 305 L270 303 L279 302 L280 300 L285 302 L283 300 L283 296 L285 295 L286 292 L285 285 L286 272 L284 272 L284 274 L278 281 L276 280 L274 271 L274 260 L272 254 L269 253 L270 246 L268 246 L264 240 L264 235 L259 223 Z M258 219 L259 221 L256 223 L251 235 L251 241 L248 246 L244 247 L245 253 L241 261 L241 272 L239 280 L237 281 L231 274 L231 272 L229 272 L230 277 L229 293 L233 299 L240 299 L241 301 L240 304 L235 305 L234 308 L232 307 L232 301 L230 301 L230 307 L228 308 L226 306 L225 299 L225 271 L231 248 L237 236 L242 230 L242 228 L245 227 L249 222 Z M265 213 L267 212 L268 215 L266 216 Z M246 213 L249 212 L250 214 L247 215 Z M246 209 L248 208 L249 210 L247 211 Z M263 205 L265 204 L266 206 L264 207 Z M250 204 L252 203 L253 206 L251 207 Z M254 199 L258 196 L261 200 L255 201 Z M261 193 L263 192 L264 195 L262 196 Z M259 185 L261 184 L262 186 L260 187 Z M256 184 L258 183 L259 185 L257 186 Z M414 23 L410 32 L406 30 L409 42 L387 59 L372 86 L365 115 L365 147 L369 158 L386 169 L440 170 L453 165 L462 154 L462 105 L453 77 L430 51 L433 42 L424 35 L422 26 Z M410 165 L413 164 L414 166 L411 167 Z M430 164 L434 163 L435 165 L431 166 Z M394 164 L396 163 L397 165 L395 166 Z M386 162 L388 161 L389 163 L387 164 Z M451 156 L454 157 L452 160 L449 159 Z M375 157 L378 156 L381 159 L376 160 Z M455 151 L457 152 L456 155 L453 154 Z M380 153 L381 149 L386 151 L406 153 L423 153 L424 152 L437 152 L447 149 L449 150 L445 155 L437 158 L394 158 L387 157 Z M401 148 L411 145 L419 147 L420 150 L419 151 L408 151 L402 150 Z M371 143 L373 144 L372 148 L370 147 Z M456 137 L458 136 L460 139 L457 140 Z M445 136 L445 144 L439 147 L426 147 L416 145 L414 143 L415 141 L427 135 L438 134 L439 132 Z M396 130 L400 129 L401 131 L397 132 Z M459 123 L461 122 L462 124 L460 125 Z M456 121 L458 120 L459 123 L457 124 Z M413 111 L416 112 L423 126 L422 129 L417 129 L414 131 L412 129 L406 128 Z M371 107 L374 106 L375 109 L372 110 Z M454 106 L456 105 L457 108 L455 109 Z M373 99 L375 98 L376 101 L374 102 Z M448 87 L450 86 L451 88 L449 89 Z M378 86 L380 87 L379 90 L376 89 Z M445 81 L447 80 L448 82 L446 83 Z M387 72 L389 71 L392 74 L390 75 Z M398 69 L418 64 L429 69 L433 68 L433 72 L438 73 L437 77 L445 92 L450 112 L450 144 L447 143 L446 134 L435 128 L437 112 L432 96 L430 97 L434 106 L435 123 L431 128 L423 125 L415 105 L415 96 L423 96 L421 104 L431 121 L431 115 L424 105 L424 98 L428 93 L426 82 L423 80 L423 86 L405 85 L407 79 L412 76 L421 78 L417 74 L409 75 L404 80 L401 89 L406 103 L403 104 L397 121 L408 105 L406 96 L413 96 L413 107 L406 125 L398 128 L394 124 L394 110 L398 98 L396 97 L392 109 L394 128 L385 132 L408 135 L401 131 L410 130 L414 133 L419 130 L431 129 L432 131 L397 147 L386 146 L382 141 L383 135 L381 143 L377 142 L378 115 L382 95 L392 75 Z M393 60 L396 59 L397 61 L394 62 Z M427 52 L429 53 L428 62 L423 61 L421 59 L421 57 L425 56 Z M400 53 L403 52 L405 57 L407 57 L408 59 L406 61 L401 62 L399 60 Z M413 46 L417 47 L418 51 L416 54 L411 52 Z M410 45 L412 44 L413 46 L411 47 Z M422 39 L426 38 L427 40 L423 41 Z M409 37 L411 36 L412 38 L410 39 Z M417 27 L419 26 L421 29 L418 30 Z M413 26 L415 25 L416 27 L414 28 Z M256 21 L250 27 L251 42 L245 43 L235 59 L218 71 L216 95 L206 116 L206 132 L217 148 L261 172 L288 152 L303 147 L311 136 L313 120 L301 91 L299 70 L272 43 L274 38 L266 24 Z M263 163 L261 167 L256 165 L257 163 L261 162 Z M263 161 L266 159 L269 160 L270 163 L269 164 L264 163 Z M249 159 L251 158 L257 163 L256 164 L251 163 Z M245 156 L247 155 L248 158 L246 159 Z M236 156 L238 155 L239 157 L237 158 Z M242 154 L243 156 L240 159 L239 157 Z M236 151 L238 150 L239 152 L237 153 Z M233 146 L235 145 L236 148 L234 149 Z M226 144 L228 143 L229 145 L227 146 Z M235 145 L236 140 L238 139 L243 143 L247 144 L250 143 L259 149 L263 145 L266 145 L267 143 L271 144 L279 140 L281 141 L279 145 L261 157 L258 157 L252 154 L251 152 L249 152 L248 150 L239 144 L237 146 Z M281 137 L283 136 L284 138 L282 139 Z M262 137 L264 136 L265 138 L263 139 Z M255 137 L257 136 L258 138 L256 139 Z M229 136 L231 137 L230 141 L228 140 Z M231 135 L234 134 L235 137 L232 138 Z M213 132 L218 138 L217 140 L213 138 L212 135 Z M266 127 L268 125 L277 128 L279 131 L273 132 L270 130 L267 130 Z M244 126 L248 124 L252 126 L253 129 L252 130 L245 129 Z M256 123 L263 124 L262 133 L255 129 Z M237 123 L240 126 L239 129 L236 128 Z M276 123 L278 122 L281 125 L277 126 Z M239 122 L242 121 L243 125 L241 126 Z M210 120 L212 119 L213 121 L211 122 Z M211 115 L213 114 L214 116 L212 117 Z M209 113 L211 112 L212 114 L210 115 Z M269 112 L272 111 L274 113 L274 116 L272 117 Z M243 112 L246 111 L249 115 L245 116 Z M303 106 L305 105 L306 108 L304 109 Z M228 100 L229 103 L226 109 L229 112 L229 115 L223 117 L223 121 L221 122 L220 125 L221 131 L228 137 L227 138 L222 137 L220 139 L218 136 L219 132 L217 129 L217 119 L224 104 Z M215 100 L217 101 L216 106 L213 105 Z M267 91 L268 96 L266 101 L264 102 L265 106 L264 107 L260 106 L259 104 L261 97 Z M222 82 L223 91 L221 97 L217 99 L216 97 L219 90 L219 83 Z M297 80 L299 81 L299 89 L301 94 L300 99 L297 98 L295 91 L295 83 Z M255 73 L261 72 L262 74 L256 75 Z M289 71 L291 70 L292 72 L290 73 Z M229 71 L231 70 L232 72 L230 73 Z M221 71 L223 70 L224 72 L222 73 Z M291 69 L294 68 L295 70 L292 71 Z M223 69 L226 68 L227 70 L224 71 Z M282 68 L284 67 L285 69 L283 70 Z M233 68 L235 67 L236 69 L234 70 Z M236 67 L238 66 L239 68 L237 69 Z M244 65 L269 64 L274 67 L277 73 L282 73 L281 77 L289 80 L289 94 L301 119 L301 130 L295 137 L291 138 L290 141 L288 141 L285 136 L290 136 L294 133 L297 126 L294 122 L295 118 L293 115 L289 114 L291 106 L287 97 L285 97 L282 105 L283 119 L292 124 L292 127 L285 131 L283 123 L274 118 L277 113 L275 97 L272 91 L266 88 L268 80 L262 78 L266 76 L262 71 L255 71 L252 73 L250 84 L253 89 L247 91 L254 95 L256 105 L251 107 L250 100 L247 100 L247 108 L244 109 L244 95 L242 105 L243 118 L236 121 L234 124 L234 133 L226 128 L225 124 L232 121 L235 115 L234 100 L229 96 L229 80 L236 78 L236 74 L241 72 Z M240 56 L241 60 L233 66 L232 64 Z M278 55 L280 56 L282 61 L287 65 L286 67 L278 63 L276 59 Z M266 55 L269 54 L270 57 L267 58 Z M254 54 L263 53 L264 57 L262 60 L256 60 L254 57 Z M261 41 L263 40 L264 42 L262 43 Z M265 35 L268 34 L269 37 L267 38 Z M259 34 L262 36 L262 38 L256 44 L255 43 L256 36 Z M261 25 L263 24 L265 27 L263 28 Z M95 16 L89 22 L88 32 L73 37 L63 47 L64 164 L73 172 L115 174 L130 169 L134 162 L135 52 L129 40 L108 30 L104 17 Z M118 169 L120 168 L121 170 L119 171 Z M106 169 L109 168 L110 170 L107 171 Z M100 169 L102 168 L103 170 L101 171 Z M76 169 L79 168 L80 170 L77 171 Z M124 165 L126 164 L127 167 L125 168 Z M73 164 L75 165 L74 169 L72 168 Z M77 163 L79 162 L80 164 L78 165 Z M130 157 L132 158 L131 163 L128 161 Z M65 158 L68 157 L70 160 L66 162 Z M64 152 L66 151 L67 154 L65 155 Z M130 150 L132 149 L133 151 L131 152 Z M100 150 L103 149 L104 152 L101 153 Z M97 147 L99 146 L100 149 L98 150 Z M122 143 L124 142 L125 144 L123 145 Z M96 142 L99 141 L100 143 L97 144 Z M132 136 L134 137 L132 140 L134 142 L133 144 L129 140 L129 138 Z M64 137 L66 136 L67 138 L65 139 Z M130 133 L132 132 L133 134 L131 135 Z M64 133 L66 132 L67 134 L65 135 Z M64 129 L66 128 L67 130 L65 131 Z M131 109 L133 108 L134 110 L132 111 Z M110 95 L111 97 L108 99 L107 97 Z M89 86 L91 87 L91 98 L90 99 L87 96 Z M101 86 L103 85 L104 88 L102 89 Z M94 85 L97 86 L98 91 L97 103 L98 105 L101 106 L100 111 L102 112 L101 117 L103 118 L102 120 L99 120 L97 125 L102 125 L103 128 L97 132 L94 131 L94 120 L92 112 L92 102 L94 98 L93 90 Z M103 81 L105 80 L106 82 L104 83 Z M102 76 L96 83 L89 82 L89 80 L94 78 L95 76 L100 75 Z M99 70 L101 69 L102 71 L100 72 Z M130 66 L132 65 L133 68 L131 69 Z M64 66 L66 65 L68 68 L65 69 Z M73 63 L76 64 L76 67 L74 69 L72 68 Z M129 54 L133 53 L134 55 L131 57 Z M71 53 L73 52 L74 54 L72 55 Z M130 49 L132 48 L133 50 L131 51 Z M121 47 L125 52 L120 54 L120 150 L124 149 L125 154 L119 155 L118 158 L81 158 L78 156 L78 133 L74 134 L74 131 L78 128 L78 51 L82 49 L98 50 L97 56 L92 63 L93 75 L86 81 L86 104 L89 106 L85 109 L86 118 L91 120 L87 128 L93 135 L97 136 L97 141 L95 142 L94 139 L89 140 L86 151 L89 154 L110 153 L109 142 L103 139 L103 134 L108 128 L109 107 L113 91 L110 78 L104 75 L105 66 L99 50 Z M114 45 L116 44 L117 46 L115 47 Z M96 41 L99 38 L101 42 L97 43 Z M103 32 L106 33 L105 37 L101 36 Z M90 33 L94 32 L95 36 L94 37 L91 36 Z"/></svg>
