<svg xmlns="http://www.w3.org/2000/svg" width="512" height="512" viewBox="0 0 512 512" aria-hidden="true" focusable="false"><path fill="currentColor" fill-rule="evenodd" clip-rule="evenodd" d="M171 318 L171 321 L165 326 L165 328 L171 328 L172 332 L177 332 L180 330 L180 328 L178 328 L177 326 L184 324 L184 322 L177 321 L175 317 Z M164 321 L166 321 L168 316 L173 314 L177 314 L181 317 L189 317 L190 313 L188 313 L187 315 L183 315 L179 312 L171 312 L166 315 L164 318 Z M267 176 L270 179 L274 180 L281 179 L284 177 L282 176 L274 178 Z M284 170 L283 169 L278 171 L270 170 L269 172 L277 173 L282 172 Z M269 146 L271 151 L268 153 L274 159 L277 159 L281 157 L282 154 L284 154 L284 152 L279 151 L282 146 L277 148 L272 148 L271 146 Z M280 138 L287 139 L291 135 L281 135 Z M275 17 L267 75 L261 78 L263 92 L259 98 L253 96 L247 118 L239 112 L251 165 L234 151 L245 177 L231 179 L232 184 L217 204 L210 233 L201 222 L203 206 L196 189 L206 175 L205 165 L195 153 L195 140 L202 134 L206 111 L195 99 L198 113 L192 121 L186 84 L181 119 L177 116 L179 99 L168 112 L173 135 L179 140 L179 152 L169 174 L178 188 L177 215 L184 233 L202 261 L216 268 L240 232 L245 251 L237 277 L188 274 L181 250 L173 274 L156 284 L137 319 L127 323 L121 306 L138 272 L139 256 L119 235 L103 229 L111 241 L111 255 L124 260 L102 298 L98 315 L101 334 L112 352 L88 346 L85 350 L104 363 L131 361 L116 369 L97 369 L110 378 L125 378 L143 370 L150 375 L161 367 L176 371 L165 409 L169 428 L145 433 L137 440 L127 472 L129 480 L155 484 L168 494 L197 491 L201 486 L199 473 L236 479 L248 469 L301 473 L306 482 L322 489 L369 484 L399 488 L422 449 L411 444 L422 437 L427 426 L420 405 L423 392 L417 382 L417 364 L413 360 L406 382 L408 392 L402 402 L391 372 L378 356 L388 343 L395 315 L380 321 L379 334 L372 333 L371 315 L360 300 L333 289 L365 260 L371 217 L354 235 L348 203 L342 205 L327 183 L327 173 L307 175 L318 149 L305 156 L301 164 L312 110 L304 117 L297 95 L292 98 L287 91 L289 77 L283 74 Z M179 489 L182 486 L184 486 L187 489 L187 491 L180 492 Z M167 487 L170 484 L172 484 L175 486 L176 491 L175 492 L168 491 Z M161 480 L165 484 L163 488 L159 486 L159 482 Z M395 484 L396 479 L402 480 L402 482 L399 485 Z M146 478 L151 475 L154 477 L155 480 L147 481 Z M135 476 L137 474 L140 474 L143 477 L143 480 L142 481 L136 480 Z M130 473 L132 472 L133 475 L131 476 Z M400 467 L404 469 L403 476 L399 476 L397 474 L397 470 Z M405 462 L408 461 L409 464 L406 465 Z M263 461 L265 460 L266 462 L264 463 Z M397 457 L400 458 L402 462 L401 465 L397 465 L394 462 L394 460 Z M406 447 L410 448 L410 454 L408 458 L404 455 L404 451 Z M386 445 L387 447 L383 449 L382 447 Z M282 439 L296 441 L294 446 L294 453 L296 453 L296 447 L300 440 L309 441 L302 453 L301 459 L299 462 L289 463 L279 461 L279 463 L288 465 L296 465 L299 463 L300 464 L299 469 L280 470 L270 468 L278 452 L280 442 Z M391 437 L397 436 L403 441 L403 449 L401 454 L394 448 L391 447 L391 443 L389 440 Z M264 435 L265 441 L262 451 L256 462 L252 465 L251 461 L260 436 Z M178 435 L180 434 L181 436 L179 437 Z M418 433 L419 435 L415 439 L413 439 L412 437 Z M182 438 L182 442 L174 446 L170 450 L166 458 L164 458 L160 454 L158 456 L155 453 L153 454 L154 457 L159 461 L158 463 L153 463 L156 465 L162 465 L164 467 L164 470 L158 478 L152 473 L144 474 L140 471 L135 471 L132 468 L135 463 L138 465 L139 464 L136 461 L137 447 L145 437 L152 434 L170 432 L177 439 L179 439 L180 437 Z M345 430 L347 431 L346 434 L349 436 L348 438 L342 434 Z M309 430 L310 431 L309 434 L305 437 L303 434 Z M353 429 L355 430 L356 437 L355 439 L352 437 Z M312 430 L317 429 L318 432 L313 433 Z M300 430 L302 429 L303 432 L301 433 Z M284 430 L286 429 L287 431 L285 432 Z M321 429 L323 428 L324 430 L322 431 Z M256 429 L258 428 L261 429 L262 431 L259 432 Z M419 428 L422 427 L423 430 L420 432 Z M394 427 L395 432 L391 434 L390 432 L392 428 Z M272 427 L275 426 L278 430 L275 431 Z M347 425 L349 424 L351 427 L348 429 Z M261 423 L264 422 L266 426 L265 427 L262 426 Z M256 423 L258 422 L259 425 L257 426 Z M412 422 L414 421 L415 423 L413 424 Z M270 421 L272 420 L273 422 L271 423 Z M257 421 L258 417 L263 418 L260 422 Z M403 416 L407 419 L408 424 L412 427 L413 426 L416 427 L413 433 L409 434 L405 431 L402 422 Z M353 416 L355 417 L354 426 L351 423 Z M335 417 L337 416 L338 418 L336 419 Z M329 417 L332 416 L333 418 L330 419 Z M295 417 L301 415 L303 418 L300 420 L296 419 Z M311 418 L313 414 L316 414 L318 416 L316 419 Z M283 417 L284 414 L288 415 L286 418 Z M188 414 L192 418 L192 424 L187 430 L186 434 L184 435 L181 430 L181 428 L183 427 L182 422 L183 419 Z M174 414 L177 417 L177 426 L179 430 L178 432 L173 429 L172 425 L172 417 Z M276 413 L278 412 L279 414 L277 415 Z M257 413 L261 412 L262 414 L258 415 Z M411 411 L413 410 L417 413 L420 413 L424 421 L422 422 L420 418 L414 415 Z M382 410 L384 409 L385 412 L383 413 Z M306 409 L308 408 L309 410 L307 411 Z M171 408 L172 413 L168 415 L167 411 Z M391 421 L384 440 L376 449 L367 454 L357 455 L339 469 L346 472 L355 460 L364 457 L378 460 L378 456 L383 458 L382 454 L390 450 L395 453 L393 464 L396 467 L395 477 L390 485 L379 481 L377 476 L375 480 L323 486 L312 482 L306 476 L303 461 L307 449 L315 440 L359 441 L357 430 L359 407 Z M259 408 L262 407 L263 409 L260 410 Z M200 407 L203 410 L200 424 L200 429 L203 438 L197 440 L192 433 L192 429 L194 427 L195 421 L191 413 L193 409 Z M415 407 L418 406 L419 408 L416 409 Z M350 407 L354 406 L355 408 L351 409 Z M178 406 L181 408 L180 413 L178 412 L177 408 Z M311 406 L313 405 L314 407 L312 408 Z M214 404 L216 407 L209 417 L206 427 L204 428 L203 427 L204 416 L206 412 L209 410 L211 405 Z M332 403 L334 404 L333 410 L331 409 Z M407 402 L409 403 L408 411 L412 416 L415 417 L414 419 L409 418 L405 413 L405 404 Z M349 403 L351 402 L352 404 L350 405 Z M337 401 L339 402 L338 407 L336 406 Z M282 400 L284 401 L285 404 L284 406 L281 403 Z M416 400 L418 399 L419 401 L417 402 Z M410 400 L412 399 L413 402 L411 403 Z M351 398 L355 397 L356 400 L354 401 Z M320 397 L321 398 L320 402 L316 403 L315 401 Z M228 398 L228 400 L223 403 L219 402 L220 398 L225 397 Z M294 397 L297 396 L298 398 L295 399 Z M419 395 L421 396 L420 399 L417 398 Z M333 396 L335 395 L336 398 L334 399 Z M209 394 L211 393 L212 395 L210 396 Z M408 393 L410 392 L411 394 L409 395 Z M277 392 L279 393 L279 408 L278 409 L275 408 Z M308 391 L312 395 L310 399 L305 398 L305 394 Z M417 390 L419 389 L420 392 L418 393 Z M349 390 L351 389 L352 391 L350 392 Z M313 389 L316 392 L315 396 L312 393 Z M319 389 L323 388 L324 390 L320 391 Z M297 388 L299 389 L298 394 L296 393 Z M216 389 L218 388 L219 390 L217 391 Z M334 387 L337 388 L335 392 L333 391 Z M304 388 L306 387 L307 389 L305 390 Z M307 385 L310 384 L312 387 L310 388 Z M282 385 L285 384 L286 386 L283 387 Z M222 384 L224 383 L225 385 L223 386 Z M180 384 L182 383 L186 385 L187 389 L184 390 Z M313 380 L315 379 L317 383 L315 384 Z M286 380 L288 379 L289 381 L287 382 Z M352 376 L354 377 L353 381 L351 380 Z M265 377 L267 376 L268 379 L266 380 Z M226 376 L228 375 L229 377 L227 378 Z M336 375 L338 374 L341 378 L338 379 Z M414 373 L416 374 L416 379 L413 382 L413 385 L416 388 L415 390 L411 389 L408 386 L408 383 L410 379 L413 377 Z M299 373 L300 377 L298 381 L295 384 L292 383 L291 381 L293 377 L297 373 Z M309 371 L313 376 L305 379 L304 376 Z M263 372 L265 371 L266 373 L264 374 Z M337 371 L339 370 L340 372 L338 373 Z M325 371 L328 370 L329 373 L327 374 Z M234 370 L235 372 L232 374 L231 372 Z M351 370 L353 369 L354 371 L352 372 Z M313 370 L316 369 L324 376 L327 383 L323 385 L318 379 L318 375 L315 374 Z M300 370 L302 369 L305 372 L301 373 Z M279 370 L281 369 L282 372 L280 373 Z M126 372 L126 374 L122 376 L113 376 L109 374 L110 372 L115 372 L123 369 Z M288 367 L290 366 L294 370 L291 371 Z M339 366 L341 365 L342 367 L340 368 Z M321 366 L323 365 L324 367 L322 368 Z M235 366 L237 365 L238 367 L236 368 Z M279 365 L281 364 L282 367 L280 368 Z M212 363 L214 366 L213 372 L215 374 L218 374 L219 376 L212 383 L203 389 L195 392 L191 392 L189 387 L199 385 L206 381 L207 379 L195 384 L187 384 L181 381 L179 376 L180 374 L182 375 L197 374 L205 370 Z M320 361 L322 360 L323 362 L321 363 Z M309 360 L311 359 L312 361 L310 362 Z M361 358 L374 357 L387 372 L394 385 L398 398 L399 421 L401 430 L406 436 L411 437 L411 440 L403 438 L397 428 L396 416 L394 414 L396 406 L392 394 L392 403 L386 404 L374 399 L360 389 Z M351 356 L353 355 L354 357 L352 358 Z M117 356 L118 355 L123 356 L124 359 L119 360 Z M321 355 L324 354 L325 356 L322 357 Z M152 357 L152 359 L145 366 L138 369 L137 371 L132 372 L129 370 L129 368 L145 354 L148 354 Z M96 355 L97 354 L112 355 L114 360 L113 361 L104 360 L97 357 Z M290 354 L294 353 L296 356 L293 357 Z M210 354 L210 360 L202 370 L194 373 L184 373 L180 371 L181 369 L191 368 L198 365 L205 359 L208 353 Z M375 351 L371 355 L364 354 L365 352 L370 351 L372 349 Z M353 350 L357 349 L362 354 L361 355 L357 354 Z M296 349 L298 348 L301 352 L299 353 Z M320 348 L324 347 L325 350 L321 351 Z M343 346 L346 345 L347 347 L344 348 Z M257 345 L259 375 L254 434 L258 436 L254 437 L246 467 L234 476 L192 469 L194 473 L188 474 L198 479 L198 486 L193 490 L186 484 L167 482 L162 476 L171 470 L169 459 L177 448 L204 441 L225 444 L221 439 L207 437 L208 426 L214 412 L229 402 L229 389 L232 386 L237 387 L239 379 L245 379 L243 370 L254 358 L251 349 Z M315 345 L317 344 L318 346 L316 347 Z M351 344 L353 343 L354 345 L352 346 Z M293 344 L295 343 L296 345 L294 346 Z M366 342 L367 344 L364 346 L363 344 Z M311 342 L313 341 L314 343 L312 344 Z M373 340 L374 342 L370 345 L369 343 Z M335 340 L339 344 L338 348 L334 344 Z M324 339 L328 343 L327 345 L322 343 Z M330 339 L332 338 L333 340 L331 341 Z M297 339 L300 338 L301 341 L298 342 Z M387 337 L383 344 L381 343 L381 340 L378 341 L376 340 L379 337 L384 338 L385 336 Z M368 339 L370 336 L374 337 L373 339 L370 340 Z M334 336 L336 335 L343 338 L345 341 L343 342 L336 339 Z M359 337 L362 334 L364 335 L362 338 Z M292 349 L291 350 L278 349 L270 341 L269 338 L279 337 L287 334 Z M341 333 L343 332 L348 334 L349 337 L348 338 L342 337 Z M308 333 L310 332 L313 333 L314 335 L311 337 L308 335 Z M334 331 L337 329 L339 332 L335 333 Z M354 328 L357 329 L356 335 L353 334 Z M324 329 L326 328 L327 330 L325 331 Z M294 329 L296 328 L297 330 L295 331 Z M345 329 L349 327 L352 329 L352 331 L346 332 Z M332 327 L333 330 L329 336 L326 338 L325 335 L327 331 Z M313 327 L315 326 L316 328 L314 329 Z M309 327 L311 326 L313 330 L311 331 Z M359 326 L361 325 L362 328 L360 329 Z M332 326 L334 325 L335 327 L333 328 Z M342 323 L343 326 L339 328 L338 326 Z M346 323 L348 322 L349 324 L347 325 Z M287 324 L287 326 L283 329 L277 331 L273 330 L276 325 L280 322 L284 322 Z M268 323 L271 322 L272 324 L269 325 Z M386 321 L387 323 L384 327 L381 326 L382 323 Z M337 320 L338 323 L335 325 L334 322 Z M364 318 L366 317 L367 319 L365 320 Z M352 317 L354 316 L358 319 L358 321 L354 322 Z M308 317 L310 316 L311 318 L309 319 Z M286 315 L288 314 L289 317 L287 318 Z M356 314 L358 313 L360 316 L358 317 Z M349 314 L352 313 L353 315 L350 316 Z M315 313 L317 312 L318 314 L316 315 Z M295 313 L297 312 L298 314 L296 315 Z M336 314 L337 311 L340 312 L338 315 Z M247 314 L251 318 L253 324 L259 330 L253 340 L245 345 L243 344 L241 338 L239 338 L242 350 L239 353 L228 358 L228 360 L219 370 L213 358 L213 354 L216 353 L218 336 L222 333 L224 335 L225 341 L226 335 L222 330 L222 325 L227 322 L233 323 L231 320 L223 321 L222 319 L227 313 L231 311 L239 311 L243 314 Z M269 311 L271 310 L272 312 L270 313 Z M321 310 L323 309 L324 311 L322 312 Z M350 309 L352 308 L353 310 L351 311 Z M311 309 L314 308 L315 311 L312 313 Z M222 308 L224 305 L229 303 L239 303 L244 305 L252 312 L251 313 L244 312 L237 308 L229 309 L223 312 Z M334 300 L336 299 L337 301 L335 302 Z M313 300 L315 299 L316 301 L314 302 Z M269 302 L270 299 L274 300 L272 303 Z M293 299 L298 298 L301 301 L296 302 Z M286 299 L288 298 L289 300 L287 301 Z M317 296 L319 295 L320 297 L318 298 Z M243 296 L248 295 L249 297 L244 298 Z M197 295 L200 296 L202 300 L200 301 L196 298 Z M173 296 L175 295 L176 297 L174 298 Z M183 295 L185 294 L186 296 L184 297 Z M301 294 L305 293 L306 297 L303 299 Z M295 294 L298 293 L299 295 L296 296 Z M239 291 L243 290 L244 292 L241 294 Z M304 289 L306 288 L307 290 L305 291 Z M239 286 L241 285 L242 287 L240 288 Z M173 284 L175 283 L176 285 L174 286 Z M270 282 L272 281 L274 285 L271 286 Z M278 280 L280 279 L281 282 L279 283 Z M190 280 L192 278 L203 278 L213 282 L221 290 L222 294 L213 298 L202 291 L194 289 Z M303 277 L310 271 L315 270 L326 276 L329 276 L332 280 L332 283 L327 288 L324 288 L321 286 L315 291 L314 290 L315 285 L312 288 L310 287 L310 285 L315 280 L315 278 L309 283 L307 282 L312 276 L312 274 L306 279 L304 279 Z M352 267 L353 269 L350 271 L349 269 Z M179 267 L181 268 L180 271 L177 270 Z M308 264 L310 263 L311 265 L309 266 Z M356 264 L357 261 L360 262 L358 265 Z M262 260 L264 259 L265 261 L263 262 Z M250 259 L251 264 L246 266 L245 262 Z M179 259 L181 258 L182 260 L180 261 Z M245 257 L247 256 L248 258 L246 259 Z M363 254 L364 256 L363 259 L361 260 L360 256 Z M263 252 L264 255 L262 259 L256 262 L254 258 L256 256 L259 256 L260 252 Z M295 271 L294 273 L289 275 L287 273 L280 274 L274 269 L273 263 L271 263 L271 269 L268 272 L264 272 L262 275 L259 275 L255 272 L256 270 L268 263 L279 251 L282 253 L286 262 L288 262 L289 265 L293 267 Z M360 251 L362 250 L363 252 L361 253 Z M326 247 L330 248 L331 251 L330 255 L325 249 Z M266 248 L268 246 L271 246 L272 250 L268 251 Z M329 245 L331 244 L333 247 L330 248 Z M326 243 L328 242 L329 244 L327 245 Z M317 242 L319 241 L320 244 L318 245 Z M356 238 L359 237 L360 241 L358 242 Z M310 237 L314 239 L316 246 L320 250 L326 253 L325 260 L327 262 L327 265 L324 270 L320 270 L313 266 L314 263 L313 255 L308 256 L306 254 L306 246 Z M320 236 L323 238 L322 242 L319 239 Z M112 236 L119 238 L117 247 L120 250 L124 250 L125 246 L129 247 L137 259 L135 272 L117 306 L119 314 L116 316 L123 322 L123 329 L127 326 L130 331 L132 326 L137 332 L139 322 L144 323 L144 318 L153 316 L164 306 L185 303 L202 308 L205 313 L202 318 L205 334 L216 325 L217 319 L220 329 L210 343 L206 340 L205 354 L198 362 L187 366 L164 362 L154 367 L155 361 L165 353 L167 356 L173 353 L174 348 L169 348 L171 344 L167 344 L159 356 L145 351 L145 346 L137 353 L124 351 L122 346 L117 347 L108 336 L109 331 L105 328 L106 301 L128 263 L125 255 L117 257 L113 254 L115 240 Z M365 232 L366 237 L363 239 L361 236 Z M282 232 L284 231 L286 234 L283 236 Z M224 228 L233 233 L233 238 L223 258 L216 265 L214 265 L207 261 L199 253 L194 242 L196 241 L201 243 L202 238 L206 235 L217 244 L219 251 L221 251 L220 244 L213 235 L214 232 L218 229 Z M284 228 L287 227 L288 229 L285 230 Z M363 226 L365 227 L364 231 L362 230 Z M338 225 L344 226 L350 231 L356 246 L355 255 L352 261 L349 263 L348 267 L343 272 L340 269 L339 262 L333 264 L332 260 L337 248 L342 244 L346 244 L346 242 L336 244 L328 233 L330 229 Z M317 224 L320 226 L319 230 L314 229 Z M229 223 L231 222 L232 224 L230 225 Z M332 216 L334 217 L333 221 L331 220 Z M181 213 L186 215 L185 223 L183 222 L180 216 Z M181 209 L183 208 L184 210 L182 211 Z M301 207 L302 209 L296 214 L295 221 L291 223 L291 227 L288 228 L287 227 L288 220 L290 218 L292 219 L293 218 L291 215 L294 213 L295 208 Z M290 201 L291 203 L285 215 L280 221 L277 221 L275 218 L281 212 L283 206 L287 205 L288 202 Z M259 201 L261 202 L262 205 L266 206 L268 212 L270 213 L272 217 L271 221 L267 221 L261 215 L258 208 Z M303 193 L305 195 L305 202 L301 204 L299 201 L302 200 L301 194 Z M195 193 L197 194 L197 199 L201 208 L200 218 L197 225 L195 224 L193 219 L193 215 L196 208 L196 204 L194 200 Z M306 186 L311 185 L312 187 L307 188 Z M235 185 L245 189 L243 195 L252 196 L251 207 L255 218 L265 227 L265 230 L267 232 L266 240 L258 248 L251 252 L248 249 L243 230 L245 229 L249 231 L260 230 L260 228 L251 229 L244 227 L241 224 L240 220 L237 217 L235 202 L232 203 L233 210 L235 212 L234 216 L225 213 L222 205 L225 195 Z M323 184 L331 192 L335 200 L333 210 L320 218 L318 215 L319 204 L317 203 L313 221 L302 250 L303 259 L299 261 L292 257 L287 249 L287 244 L297 230 L302 230 L306 228 L306 226 L300 226 L301 222 L308 211 L315 193 L317 191 L318 185 Z M308 179 L311 178 L314 181 L309 183 Z M201 174 L203 175 L202 178 L199 177 Z M173 170 L175 171 L174 177 L172 176 Z M180 168 L183 170 L184 180 L183 186 L181 186 L178 181 L178 171 Z M195 167 L198 172 L198 179 L195 186 L192 185 L192 168 Z M259 175 L262 172 L264 164 L274 168 L287 164 L293 177 L286 183 L280 185 L275 183 L273 185 L270 185 L261 181 L259 178 Z M180 148 L181 145 L186 144 L195 146 L192 150 L182 150 Z M251 138 L253 137 L254 139 L252 140 Z M300 134 L301 136 L298 139 L297 137 Z M257 130 L267 129 L271 132 L271 135 L270 136 L258 135 Z M293 130 L294 142 L292 151 L289 157 L283 163 L279 165 L273 165 L268 163 L262 157 L259 151 L257 137 L259 136 L265 140 L271 139 L272 143 L274 144 L274 135 L272 132 L273 129 L277 129 L278 131 L285 128 Z M293 126 L292 128 L288 126 L283 126 L278 128 L277 125 L274 124 L273 129 L267 126 L262 127 L260 129 L258 128 L259 122 L262 119 L276 120 L278 118 L290 119 Z M172 111 L174 112 L173 117 L171 116 Z M200 110 L203 111 L204 115 L203 118 L201 118 L199 115 Z M186 106 L188 107 L189 115 L188 118 L184 117 Z M274 93 L276 92 L277 94 L275 95 Z M274 28 L276 29 L275 33 L273 32 Z"/></svg>
