<svg xmlns="http://www.w3.org/2000/svg" width="512" height="512" viewBox="0 0 512 512" aria-hidden="true" focusable="false"><path fill="currentColor" fill-rule="evenodd" clip-rule="evenodd" d="M284 253 L285 258 L290 257 L288 253 Z M225 253 L223 257 L228 258 L229 253 Z M33 60 L24 79 L26 110 L20 107 L17 128 L26 148 L21 152 L22 166 L37 187 L31 188 L32 199 L51 219 L47 226 L69 244 L67 251 L76 260 L90 263 L87 269 L93 276 L112 279 L105 285 L126 296 L124 302 L147 310 L135 327 L136 347 L149 364 L175 375 L176 387 L185 389 L179 394 L157 388 L144 393 L140 413 L147 416 L149 432 L161 439 L164 428 L189 416 L199 423 L198 430 L208 428 L215 419 L219 430 L228 433 L256 468 L285 433 L294 430 L298 419 L306 429 L315 430 L314 422 L323 416 L349 428 L352 439 L357 439 L366 428 L366 416 L373 412 L373 398 L358 388 L343 394 L328 389 L337 387 L338 375 L368 360 L377 346 L378 327 L366 310 L382 307 L391 294 L408 286 L405 279 L424 273 L427 267 L422 264 L435 261 L447 250 L445 244 L465 228 L462 219 L481 199 L482 188 L477 186 L491 166 L492 152 L487 148 L496 128 L494 109 L487 109 L489 79 L481 61 L476 60 L471 92 L461 109 L433 138 L426 136 L413 151 L408 151 L410 135 L405 121 L397 120 L382 107 L366 110 L359 116 L357 130 L370 123 L376 125 L375 136 L380 144 L375 160 L356 174 L343 192 L334 190 L307 199 L311 180 L302 179 L300 164 L309 150 L309 135 L304 131 L297 142 L286 126 L285 105 L266 79 L268 68 L256 45 L245 68 L247 79 L228 105 L228 125 L219 141 L209 131 L204 135 L204 150 L214 171 L210 180 L202 180 L207 198 L195 199 L179 190 L170 192 L162 179 L138 160 L133 144 L137 126 L144 123 L155 131 L154 116 L141 107 L131 107 L116 120 L107 121 L105 151 L100 151 L57 113 L43 93 L37 60 Z M219 405 L225 396 L233 398 L234 405 L238 412 L244 415 L255 435 L259 434 L269 415 L274 413 L279 404 L279 399 L287 396 L294 405 L292 410 L294 416 L292 417 L292 420 L288 422 L280 413 L278 413 L281 423 L280 432 L278 435 L274 432 L270 432 L271 436 L268 445 L256 459 L243 441 L243 432 L239 432 L237 435 L233 432 L232 424 L235 412 L233 412 L225 422 L222 422 L219 417 L221 412 Z M241 392 L245 393 L245 395 L250 401 L250 403 L253 405 L256 411 L258 410 L260 404 L266 398 L269 392 L273 393 L274 398 L273 405 L272 406 L268 404 L265 405 L265 411 L263 416 L260 418 L257 424 L255 423 L253 418 L250 416 L248 411 L248 405 L247 404 L243 406 L240 405 L239 397 Z M219 391 L220 393 L216 398 L216 401 L214 402 L214 405 L212 407 L210 407 L208 404 L204 402 L212 393 Z M292 391 L294 390 L298 393 L301 393 L309 402 L305 404 L303 407 L301 407 Z M218 389 L220 388 L221 390 L219 391 Z M326 381 L330 380 L331 382 L327 383 Z M182 381 L186 380 L187 382 L183 383 Z M240 381 L245 376 L252 377 L253 378 L252 386 L254 388 L259 388 L261 386 L260 378 L268 376 L273 381 L273 384 L269 387 L263 387 L263 393 L256 401 L250 393 L250 387 L247 388 L240 384 Z M194 376 L196 377 L195 380 L192 379 Z M314 376 L318 375 L321 378 L321 380 L319 381 Z M196 376 L198 375 L199 377 L197 378 Z M297 377 L300 374 L304 373 L312 383 L317 385 L318 388 L332 400 L335 399 L336 401 L342 401 L354 395 L360 395 L364 397 L368 402 L367 404 L363 402 L358 402 L356 404 L339 405 L343 409 L351 409 L352 411 L355 411 L360 417 L361 426 L358 427 L353 419 L343 419 L338 417 L337 414 L329 413 L327 411 L324 411 L323 409 L317 411 L316 415 L312 417 L312 419 L308 423 L306 420 L306 410 L309 407 L314 407 L317 404 L317 401 L306 391 L305 387 L299 387 L297 385 Z M216 377 L216 385 L214 387 L208 387 L207 391 L196 401 L196 404 L199 407 L205 407 L207 409 L207 421 L205 423 L202 421 L201 417 L197 415 L196 411 L189 409 L183 413 L176 414 L176 416 L173 418 L160 419 L155 426 L153 425 L152 420 L154 415 L162 409 L172 408 L172 404 L157 404 L155 402 L150 402 L146 404 L145 402 L148 397 L153 395 L159 395 L167 400 L169 399 L170 401 L177 401 L178 399 L180 400 L186 397 L195 388 L196 385 L201 383 L207 377 L209 373 L213 374 Z M325 373 L327 372 L328 374 L326 375 Z M185 373 L187 372 L188 374 L186 375 Z M296 367 L297 369 L291 375 L287 372 L289 369 L293 369 Z M256 367 L261 371 L260 377 L252 376 L252 371 Z M216 368 L218 367 L220 369 L224 369 L226 372 L222 375 Z M317 367 L320 366 L325 372 L323 373 Z M195 366 L196 368 L190 372 L189 370 L193 366 Z M325 360 L331 359 L335 365 L329 367 L325 363 Z M222 360 L230 359 L232 363 L224 364 Z M187 359 L188 363 L183 368 L181 368 L179 366 L179 361 L182 359 Z M293 360 L289 364 L284 365 L281 364 L281 361 L283 359 L287 359 L290 357 Z M346 355 L348 359 L348 363 L340 365 L338 363 L337 358 L340 356 Z M166 356 L168 355 L174 357 L175 363 L173 365 L168 365 L165 362 Z M360 351 L362 356 L354 362 L352 360 L353 353 Z M325 351 L326 353 L323 354 L312 365 L312 368 L309 371 L307 367 L305 366 L305 363 L307 360 L316 352 Z M296 358 L297 351 L303 351 L305 353 L300 359 Z M208 353 L210 351 L216 352 L218 357 L216 359 L213 359 Z M153 351 L160 353 L161 359 L159 362 L151 356 Z M186 352 L188 350 L197 352 L206 360 L209 366 L205 370 L203 370 L201 368 L201 365 L191 355 L187 354 Z M343 348 L342 352 L338 354 L333 353 L333 350 L337 347 L341 346 Z M169 349 L173 346 L179 349 L180 353 L177 355 L173 352 L170 352 Z M369 344 L370 346 L368 350 L365 351 L364 347 L367 344 Z M315 345 L311 349 L308 348 L312 344 Z M293 345 L292 348 L284 354 L278 353 L279 350 L286 349 L291 344 Z M220 345 L222 344 L226 348 L233 350 L235 353 L230 354 L229 352 L225 352 L221 348 Z M143 345 L146 344 L149 347 L149 350 L146 351 Z M198 344 L200 343 L203 346 L205 346 L206 349 L205 350 L198 346 Z M254 342 L260 343 L261 357 L263 358 L264 363 L263 365 L258 360 L255 360 L251 365 L249 364 L250 358 L252 357 Z M369 342 L371 341 L372 343 L370 344 Z M141 342 L143 341 L144 343 L142 344 Z M176 341 L178 340 L180 343 L177 344 Z M355 339 L357 342 L357 346 L349 350 L347 347 L347 344 L351 340 Z M158 339 L162 340 L166 344 L166 347 L164 350 L158 349 L156 347 L156 342 Z M324 333 L332 337 L332 339 L327 345 L321 345 L318 343 L318 341 L320 340 L321 336 Z M266 333 L268 334 L271 353 L273 355 L276 367 L279 369 L280 373 L290 382 L289 386 L282 392 L274 391 L281 383 L281 381 L271 370 L268 357 L266 355 L264 336 Z M247 333 L249 336 L247 355 L245 357 L242 370 L232 381 L232 383 L239 391 L233 392 L230 391 L228 388 L226 388 L223 382 L233 373 L234 369 L237 367 L240 355 L242 353 L244 336 Z M181 337 L184 334 L189 333 L192 336 L195 343 L192 345 L186 345 L181 339 Z M362 331 L368 336 L368 338 L364 342 L362 342 L361 339 L358 337 L358 335 Z M152 330 L154 332 L155 337 L149 343 L144 337 Z M344 329 L346 329 L351 334 L346 340 L340 339 L338 337 Z M252 330 L260 329 L261 331 L256 335 Z M167 329 L169 329 L175 336 L170 341 L168 341 L162 335 Z M277 325 L280 326 L279 333 L277 333 L275 330 L275 327 Z M233 326 L236 325 L238 327 L238 330 L233 332 L232 331 Z M287 324 L290 325 L289 329 L285 327 Z M223 328 L224 324 L229 325 L226 329 Z M367 321 L372 327 L373 332 L372 334 L364 327 L364 324 Z M146 321 L149 324 L149 327 L141 334 L140 333 L141 327 Z M351 318 L356 320 L359 323 L359 327 L356 330 L354 330 L348 325 L348 322 Z M162 318 L165 322 L165 325 L159 330 L157 330 L154 327 L154 323 L159 318 Z M256 317 L260 320 L260 322 L257 325 L253 322 L253 320 Z M356 315 L360 314 L363 317 L362 320 L359 319 Z M295 317 L296 315 L299 314 L302 315 L299 318 Z M265 314 L268 314 L274 320 L271 323 L271 325 L268 326 L267 328 L264 326 L264 324 L266 323 L266 319 L264 318 Z M245 314 L249 315 L249 318 L247 319 L247 323 L249 324 L249 326 L247 328 L243 326 L239 321 Z M211 315 L214 314 L217 315 L218 317 L214 318 Z M156 314 L157 316 L152 320 L150 317 L153 314 Z M343 310 L347 314 L347 317 L344 321 L339 319 L334 320 L335 322 L340 324 L341 327 L337 330 L336 333 L333 333 L327 327 L334 313 L337 310 Z M170 310 L176 310 L179 313 L183 323 L186 326 L186 329 L181 331 L179 334 L172 327 L172 325 L177 323 L179 320 L174 319 L169 321 L166 317 L166 314 Z M328 309 L329 311 L327 316 L321 325 L321 327 L318 329 L318 331 L306 342 L297 346 L296 344 L309 333 L309 330 L314 328 L317 325 L318 320 L320 319 L323 311 Z M318 310 L313 322 L304 326 L299 336 L295 339 L286 340 L286 342 L282 345 L275 344 L274 339 L275 336 L282 339 L286 333 L293 334 L295 332 L296 323 L301 323 L308 320 L309 317 L307 316 L307 313 L311 309 Z M195 310 L202 309 L206 313 L206 316 L204 317 L205 320 L211 323 L217 323 L218 332 L220 334 L227 334 L231 339 L238 336 L239 337 L238 344 L231 345 L227 342 L227 340 L219 339 L214 336 L211 329 L207 325 L203 324 L198 319 Z M185 309 L190 311 L196 325 L202 329 L204 333 L212 341 L217 344 L216 346 L207 342 L195 331 L195 329 L192 327 L192 325 L186 316 L184 311 Z M254 310 L256 308 L259 309 L258 312 L255 312 Z M287 308 L284 312 L277 315 L275 314 L276 310 L279 310 L284 307 Z M226 308 L229 307 L236 310 L237 313 L236 314 L231 313 Z M298 304 L299 308 L295 314 L292 315 L287 320 L285 320 L284 323 L281 323 L280 320 L290 313 Z M289 304 L290 306 L287 308 L286 306 Z M223 305 L225 304 L227 307 L225 308 Z M213 304 L215 303 L217 307 L223 313 L226 314 L233 320 L234 323 L229 324 L228 320 L226 320 L222 316 L219 317 L218 312 L214 308 Z M262 304 L268 301 L270 303 L270 308 L265 309 Z M263 298 L262 304 L260 304 L256 300 L248 309 L243 308 L243 304 L245 302 L250 303 L250 298 L256 292 Z M300 276 L306 276 L309 279 L308 281 L316 297 L320 301 L319 304 L315 304 L299 296 L296 291 L296 283 L297 279 Z M213 276 L216 279 L217 291 L214 293 L214 295 L211 298 L204 300 L198 304 L194 304 L193 301 L197 297 L205 281 L204 279 L207 276 Z M314 277 L324 272 L328 280 L339 293 L339 295 L346 301 L347 304 L346 305 L336 303 L329 304 L326 301 L326 299 L322 296 L321 292 L318 289 L314 280 Z M223 288 L235 282 L246 272 L248 272 L255 279 L258 279 L265 272 L267 272 L278 282 L288 287 L290 289 L290 295 L283 302 L276 304 L273 297 L270 294 L266 294 L259 286 L259 284 L254 284 L254 286 L248 293 L243 294 L242 297 L239 299 L238 303 L235 304 L230 302 L223 295 Z M199 277 L199 280 L195 289 L185 303 L177 303 L168 305 L166 304 L167 301 L174 295 L174 293 L185 280 L189 272 Z M331 272 L341 267 L359 286 L369 294 L371 294 L373 297 L379 299 L380 301 L376 303 L363 303 L351 298 L338 285 L337 282 L331 275 Z M182 272 L182 275 L175 283 L175 285 L162 298 L150 303 L137 303 L133 301 L134 299 L140 297 L142 294 L144 294 L154 286 L172 267 Z M296 267 L294 275 L292 276 L290 282 L286 281 L274 272 L275 270 L284 270 L286 268 L290 268 L293 266 Z M217 267 L220 266 L223 268 L227 268 L229 270 L238 270 L239 272 L227 281 L223 282 L221 276 L219 275 Z M256 261 L260 264 L260 270 L257 273 L253 270 L253 264 Z M346 263 L357 260 L374 273 L387 279 L388 281 L398 284 L399 286 L392 289 L377 289 L371 287 L362 281 L346 265 Z M167 264 L151 281 L142 287 L136 289 L121 289 L114 286 L115 284 L125 281 L126 279 L139 273 L156 260 Z M305 260 L308 259 L316 267 L316 269 L314 271 L305 269 L304 268 Z M207 259 L209 267 L202 271 L199 271 L197 267 L205 259 Z M363 253 L365 251 L371 250 L376 252 L378 255 L387 258 L388 260 L397 262 L404 266 L415 268 L416 271 L408 274 L393 274 L385 272 L375 267 L368 261 L366 261 L363 257 Z M151 255 L147 261 L145 261 L138 267 L128 272 L120 274 L105 274 L97 270 L98 268 L112 265 L125 258 L135 255 L136 253 L142 250 L148 251 Z M309 249 L315 245 L325 255 L334 260 L335 263 L330 266 L323 265 L311 255 L309 252 Z M204 249 L204 252 L195 262 L191 263 L190 265 L182 266 L177 264 L179 260 L188 255 L198 245 Z M321 243 L327 240 L333 240 L339 245 L353 251 L354 254 L350 257 L340 257 L331 253 Z M250 241 L253 240 L257 244 L260 240 L262 240 L263 244 L256 250 L250 244 Z M192 243 L182 253 L173 257 L163 257 L158 253 L159 251 L164 250 L174 245 L180 240 L186 240 Z M378 246 L384 239 L403 245 L419 247 L428 250 L435 250 L436 253 L426 258 L419 258 L418 260 L411 260 L410 258 L402 258 L391 255 L390 253 L380 250 Z M135 246 L133 250 L123 253 L122 255 L111 258 L105 258 L103 260 L95 260 L94 258 L84 257 L77 253 L78 250 L86 250 L94 247 L110 245 L129 239 Z M268 238 L271 235 L273 236 L271 239 Z M240 236 L242 235 L243 237 L241 238 Z M280 235 L286 234 L287 236 L281 237 Z M226 235 L231 234 L232 236 L227 237 Z M337 236 L344 231 L348 231 L356 235 L369 237 L373 239 L374 241 L366 246 L354 246 L338 239 Z M176 236 L175 239 L159 246 L147 246 L139 241 L140 239 L144 237 L157 235 L165 231 L169 231 Z M256 229 L260 232 L257 236 L253 233 Z M392 235 L400 226 L406 227 L453 227 L456 226 L457 227 L450 235 L441 238 L439 240 L433 241 L411 241 Z M56 227 L57 226 L60 227 L113 226 L121 235 L102 241 L80 241 L74 240 L70 237 L63 235 Z M289 222 L291 221 L292 223 L290 224 Z M221 222 L223 221 L224 223 L222 224 Z M353 228 L353 226 L361 220 L373 222 L392 222 L394 224 L388 230 L382 232 L365 232 L356 230 Z M160 228 L148 232 L131 232 L123 229 L117 222 L118 221 L120 222 L139 222 L152 220 L159 225 Z M297 215 L300 210 L304 212 L303 214 L299 216 Z M209 212 L213 210 L216 215 L214 216 L210 214 Z M290 209 L286 218 L277 227 L269 231 L266 231 L264 229 L263 226 L274 221 L281 214 L284 208 Z M224 209 L229 208 L232 214 L239 221 L250 226 L249 229 L245 231 L235 226 L227 218 L226 214 L224 213 Z M318 205 L325 220 L325 231 L323 235 L312 240 L311 234 L307 234 L301 253 L293 261 L284 263 L283 265 L272 265 L266 263 L260 257 L260 254 L265 250 L265 248 L268 245 L274 246 L276 241 L288 242 L290 244 L294 234 L292 230 L296 229 L297 222 L311 215 L311 211 L306 206 Z M193 207 L195 205 L206 205 L207 207 L202 211 L202 215 L216 222 L216 227 L221 235 L221 242 L223 244 L225 242 L237 241 L239 246 L245 245 L253 254 L253 257 L247 263 L241 265 L230 265 L229 263 L220 261 L212 253 L208 245 L206 234 L202 234 L202 239 L199 240 L188 233 L188 220 Z M238 208 L241 204 L246 205 L250 208 L256 209 L263 208 L267 205 L272 204 L276 211 L267 219 L249 220 L238 213 Z M414 201 L409 209 L404 213 L396 216 L373 217 L370 215 L376 208 L379 208 L380 206 L399 205 L407 203 L412 200 Z M323 201 L326 200 L327 203 L324 204 Z M187 201 L189 200 L190 203 L188 204 Z M99 201 L101 200 L106 203 L114 205 L135 206 L143 215 L140 217 L117 216 L109 213 L104 209 L99 203 Z M335 196 L337 205 L334 210 L337 216 L337 228 L334 231 L331 231 L330 230 L330 217 L328 215 L326 207 L332 206 L333 204 L332 199 Z M178 196 L181 199 L180 204 L182 206 L187 207 L185 215 L183 217 L183 230 L182 231 L179 231 L176 228 L176 215 L179 210 L176 205 Z M39 197 L44 196 L45 198 L62 201 L64 203 L88 206 L90 208 L96 208 L104 216 L106 216 L108 220 L106 222 L81 222 L64 219 L63 217 L54 214 L48 210 L39 200 Z M476 196 L471 204 L465 210 L459 214 L450 217 L449 219 L432 222 L407 222 L405 220 L405 218 L409 216 L417 208 L422 208 L424 206 L440 205 L449 203 L451 201 L468 198 L469 196 L471 197 L473 195 Z M239 197 L240 195 L247 193 L254 194 L266 193 L270 195 L273 194 L276 195 L274 198 L269 198 L260 203 L253 203 L251 201 L248 201 L246 199 Z M302 188 L301 196 L298 200 L295 201 L282 201 L281 200 L284 196 L287 198 L292 198 L296 194 L297 189 L300 187 Z M211 188 L212 187 L215 188 L217 191 L217 194 L221 198 L226 198 L229 196 L232 200 L229 202 L215 200 L212 196 Z M276 180 L280 179 L281 181 L277 182 Z M269 180 L271 179 L272 181 L270 182 Z M243 179 L244 181 L240 183 L239 181 Z M232 180 L234 179 L235 181 L233 182 Z M295 177 L297 179 L294 187 L292 188 L292 190 L289 192 L288 186 L291 182 L291 179 Z M218 177 L222 179 L222 183 L226 189 L224 192 L221 190 L221 187 L217 183 Z M426 176 L420 188 L413 194 L402 199 L391 201 L383 200 L385 195 L391 190 L401 188 L413 182 L418 178 L420 178 L422 175 Z M87 175 L90 174 L93 178 L95 178 L100 182 L112 188 L122 190 L128 195 L130 200 L129 201 L116 200 L108 198 L100 194 L89 183 Z M281 173 L284 171 L286 172 L285 175 L282 175 Z M278 170 L280 171 L279 174 L276 173 Z M251 175 L251 173 L255 168 L258 168 L262 172 L265 173 L258 179 L255 179 Z M237 172 L236 174 L231 175 L227 174 L228 171 L231 172 L233 168 Z M390 169 L391 172 L387 182 L373 203 L366 210 L362 211 L352 220 L344 224 L341 212 L342 199 L351 196 L351 190 L354 184 L379 164 L382 164 L383 166 Z M279 165 L282 164 L283 166 L280 167 Z M231 165 L233 164 L234 167 L232 168 Z M126 167 L134 164 L157 182 L157 184 L161 187 L162 196 L171 199 L172 212 L169 224 L161 220 L151 211 L147 210 L135 197 L122 172 Z M486 162 L479 176 L465 189 L453 195 L447 196 L445 198 L422 202 L420 201 L421 195 L425 191 L428 185 L442 182 L443 180 L452 178 L483 161 Z M27 162 L30 161 L61 178 L83 185 L92 195 L93 201 L91 202 L68 198 L66 196 L60 195 L48 189 L34 176 Z M385 159 L388 158 L389 160 L386 161 Z M124 159 L127 158 L128 160 L125 161 Z M396 157 L398 156 L399 158 L397 159 Z M281 155 L278 161 L271 158 L272 156 L277 156 L279 154 Z M232 155 L234 154 L236 156 L240 156 L241 158 L235 161 Z M392 154 L394 153 L395 155 L393 156 Z M120 153 L121 155 L115 159 L114 158 L115 155 Z M383 150 L385 149 L386 151 L384 152 Z M127 150 L129 149 L130 151 L128 152 Z M428 147 L429 153 L427 155 L427 159 L424 166 L412 177 L406 180 L403 180 L402 182 L397 184 L394 184 L393 181 L396 173 L400 169 L400 165 L414 156 L416 156 L418 153 L420 153 L426 147 Z M212 147 L216 148 L224 156 L225 165 L223 166 L221 172 L219 171 L217 162 L218 158 L212 155 L211 152 Z M85 146 L93 153 L95 153 L97 156 L99 156 L105 161 L113 165 L113 169 L117 173 L120 181 L119 184 L110 182 L109 180 L101 177 L89 166 L86 159 L86 155 L84 153 Z M303 145 L304 147 L302 149 L301 155 L295 158 L296 161 L294 171 L292 172 L291 168 L288 165 L289 156 L297 148 Z M235 148 L241 143 L252 144 L255 148 L258 148 L261 144 L264 143 L272 143 L278 149 L276 151 L265 152 L261 156 L260 162 L254 163 L252 156 L248 152 L237 151 Z M260 136 L264 135 L265 137 L261 138 Z M248 136 L251 135 L252 137 L249 138 Z M256 127 L259 129 L261 133 L260 135 L252 134 Z M488 122 L489 123 L488 134 L486 140 L484 141 L479 150 L460 167 L438 178 L432 179 L431 164 L448 153 L450 153 L466 140 L468 140 L474 133 L476 133 Z M24 123 L26 122 L42 137 L45 138 L60 151 L75 159 L77 162 L81 163 L82 178 L81 179 L75 178 L71 175 L64 173 L51 166 L35 151 L29 143 L29 141 L27 140 L24 130 Z M224 143 L226 141 L227 135 L235 127 L240 126 L240 123 L242 121 L249 119 L251 117 L262 117 L264 119 L271 121 L274 126 L278 127 L286 135 L287 141 L289 143 L289 148 L286 150 L284 146 L278 140 L270 136 L269 130 L263 127 L257 121 L254 122 L249 127 L248 130 L244 130 L243 137 L235 140 L228 147 L227 150 L224 148 Z M484 113 L486 112 L487 114 L485 115 Z M369 115 L375 114 L376 112 L386 115 L393 123 L394 128 L399 127 L401 128 L404 134 L404 146 L401 150 L390 145 L389 141 L380 134 L380 131 L383 128 L382 123 L377 118 L369 118 L368 117 Z M279 112 L281 113 L280 121 L278 121 L275 118 L275 115 Z M233 112 L238 115 L234 121 L232 120 Z M144 115 L145 116 L144 118 L136 118 L131 123 L130 128 L133 134 L124 141 L123 145 L112 150 L109 146 L109 134 L113 127 L119 128 L120 123 L127 115 L134 114 L136 112 L138 114 Z M26 113 L28 112 L29 114 L27 115 Z M486 111 L488 110 L489 112 L487 113 Z M256 96 L258 97 L258 99 L264 107 L263 110 L260 108 L258 104 L255 104 L251 110 L249 109 L249 106 L252 104 Z M482 80 L484 85 L483 102 L476 119 L474 120 L474 122 L467 131 L454 143 L438 154 L435 154 L434 144 L444 136 L462 117 L468 107 L470 106 L473 98 L476 95 L479 81 Z M31 80 L34 81 L36 91 L47 108 L47 110 L56 119 L56 121 L79 144 L78 154 L75 154 L59 143 L47 132 L41 125 L39 120 L37 119 L30 102 L29 83 Z M256 58 L258 59 L261 70 L263 71 L260 74 L260 81 L265 87 L265 89 L268 91 L268 97 L272 96 L274 98 L275 106 L274 109 L270 112 L268 103 L263 97 L263 95 L260 93 L258 85 L255 85 L252 94 L249 96 L249 98 L245 103 L244 106 L245 112 L243 113 L239 109 L239 98 L241 96 L245 97 L245 91 L247 90 L247 88 L253 80 L253 74 L250 71 L252 70 L252 67 Z"/></svg>
