<svg xmlns="http://www.w3.org/2000/svg" width="512" height="512" viewBox="0 0 512 512" aria-hidden="true" focusable="false"><path fill="currentColor" fill-rule="evenodd" clip-rule="evenodd" d="M201 17 L203 32 L193 51 L196 70 L189 90 L195 102 L212 117 L213 129 L209 132 L184 100 L178 128 L187 140 L181 148 L172 134 L167 136 L159 159 L160 176 L174 192 L189 195 L189 174 L206 163 L210 170 L219 169 L221 175 L201 174 L192 186 L208 179 L224 185 L229 175 L239 174 L231 189 L201 186 L188 199 L200 208 L214 208 L242 187 L247 170 L244 163 L264 141 L268 158 L256 168 L255 179 L270 181 L254 183 L247 190 L266 189 L274 194 L284 209 L282 236 L268 252 L245 258 L264 248 L277 229 L275 206 L266 197 L255 196 L248 203 L249 212 L253 216 L262 213 L262 209 L254 209 L258 202 L270 211 L264 223 L270 227 L266 237 L248 249 L207 250 L196 269 L188 263 L188 253 L204 241 L235 242 L243 230 L240 219 L230 213 L204 220 L179 214 L175 201 L149 181 L146 211 L169 250 L175 252 L179 246 L185 269 L199 278 L192 293 L209 282 L210 271 L205 264 L209 256 L226 256 L237 268 L234 284 L186 329 L172 354 L168 392 L185 430 L180 433 L160 421 L153 424 L163 436 L166 455 L177 467 L208 470 L214 463 L212 453 L202 453 L201 457 L208 459 L202 465 L195 461 L194 452 L203 444 L211 444 L221 452 L237 480 L258 496 L286 469 L294 450 L302 444 L313 444 L320 452 L315 464 L307 461 L313 456 L309 450 L301 455 L301 464 L309 470 L336 467 L348 455 L353 432 L361 421 L348 422 L334 433 L327 428 L346 417 L342 412 L357 401 L366 385 L364 319 L351 331 L348 321 L362 310 L367 295 L359 275 L362 253 L355 240 L355 259 L341 278 L345 303 L354 295 L353 288 L347 286 L351 273 L361 295 L359 304 L342 319 L348 345 L356 335 L362 349 L361 359 L354 364 L354 369 L360 370 L352 383 L360 384 L351 399 L336 401 L347 386 L350 372 L345 349 L336 343 L328 344 L324 354 L330 357 L329 351 L335 351 L335 358 L328 364 L314 351 L314 342 L321 342 L323 326 L329 335 L334 334 L334 315 L343 310 L340 300 L327 316 L320 316 L308 346 L301 352 L295 348 L277 365 L275 381 L264 377 L268 356 L301 323 L317 297 L325 273 L326 243 L319 215 L305 197 L312 180 L302 180 L286 166 L272 161 L272 143 L261 123 L255 127 L256 143 L244 154 L235 144 L250 131 L251 104 L246 105 L235 89 L230 102 L215 90 L226 76 L226 65 L212 47 L212 26 Z M270 476 L268 479 L258 485 L255 485 L252 482 L244 478 L244 476 L248 472 L253 472 L254 474 L258 475 L260 472 L265 471 Z M257 440 L261 443 L261 448 L263 448 L266 452 L265 457 L260 461 L252 460 L248 455 L249 449 L252 448 L252 444 Z M230 417 L242 422 L241 424 L238 425 L233 435 L229 434 L222 429 Z M312 416 L310 420 L305 419 L305 422 L307 424 L306 426 L301 426 L291 429 L282 436 L280 435 L279 430 L275 424 L276 422 L287 420 L291 417 L300 414 L310 414 Z M168 437 L170 435 L177 437 L181 442 L187 444 L186 437 L189 433 L211 431 L227 438 L237 449 L238 437 L242 431 L246 434 L249 432 L249 419 L257 411 L266 423 L265 432 L272 432 L275 435 L277 449 L288 437 L302 431 L322 433 L328 437 L328 443 L333 442 L336 437 L345 434 L346 442 L341 454 L332 462 L327 463 L326 457 L332 451 L327 451 L314 438 L302 438 L291 444 L283 463 L279 467 L263 469 L259 466 L271 459 L272 450 L269 443 L256 429 L242 449 L243 459 L254 467 L238 469 L231 463 L227 450 L221 443 L211 438 L202 438 L194 442 L188 451 L183 450 L182 452 L188 457 L189 462 L181 462 L172 453 Z M225 414 L223 418 L213 427 L209 426 L193 427 L184 416 L185 413 L191 414 L201 412 L202 410 L208 408 L213 403 L216 405 L216 407 Z M243 390 L245 390 L255 401 L252 407 L246 406 L240 402 Z M206 386 L209 398 L202 405 L193 408 L183 407 L178 403 L174 392 L175 387 L182 390 L191 390 L199 388 L203 385 Z M239 373 L241 374 L240 379 L236 377 Z M223 373 L227 375 L230 378 L230 380 L233 380 L241 384 L237 392 L237 396 L235 398 L227 391 L226 387 L224 386 L222 379 Z M325 369 L332 370 L330 380 L327 378 L327 375 L324 373 Z M175 365 L178 362 L185 366 L197 366 L204 364 L205 366 L203 368 L203 378 L198 382 L192 383 L190 385 L182 385 L174 378 Z M342 356 L345 363 L345 375 L343 377 L339 390 L336 392 L331 399 L327 399 L326 396 L333 388 L336 380 L336 365 L339 362 L340 357 Z M227 354 L232 359 L234 364 L239 366 L237 370 L233 373 L230 373 L223 365 L224 358 Z M309 353 L312 361 L321 369 L321 374 L318 377 L318 381 L324 381 L321 392 L310 398 L310 400 L312 402 L332 403 L335 401 L337 407 L332 409 L332 413 L335 417 L331 420 L320 420 L318 418 L318 413 L315 410 L302 408 L279 417 L271 418 L268 415 L269 412 L275 412 L293 405 L306 393 L310 381 L308 379 L308 375 L304 371 L297 369 L292 373 L293 378 L295 376 L300 378 L299 384 L295 387 L286 386 L280 379 L280 372 L288 362 L294 359 L302 364 L305 355 Z M248 348 L249 350 L245 355 L242 362 L240 362 L233 354 L234 350 L239 350 L241 348 Z M180 350 L187 339 L189 339 L196 344 L209 344 L210 345 L207 356 L205 358 L198 360 L183 359 L180 356 Z M240 336 L241 344 L234 345 L233 343 Z M254 322 L255 327 L251 330 L251 333 L259 333 L260 335 L253 344 L246 344 L244 339 L244 334 L247 328 Z M193 335 L193 330 L204 319 L211 324 L224 326 L224 328 L214 338 L200 339 L196 338 Z M267 307 L269 312 L265 316 L265 318 L273 319 L274 321 L267 328 L260 328 L258 325 L258 320 L264 311 L264 309 Z M210 317 L210 314 L223 304 L225 304 L228 307 L233 307 L234 309 L241 310 L232 319 L218 320 Z M290 300 L289 304 L282 312 L279 313 L273 312 L272 310 L273 303 L284 302 L287 299 Z M278 292 L280 296 L274 299 L273 297 Z M229 301 L229 298 L238 289 L243 291 L250 291 L255 289 L257 290 L257 293 L249 302 L238 304 L231 303 Z M283 274 L287 277 L285 283 L293 282 L296 278 L298 277 L300 278 L297 289 L293 293 L290 293 L289 295 L286 295 L282 289 L280 278 Z M264 271 L263 280 L260 283 L249 286 L243 285 L241 283 L244 273 L248 275 L260 270 Z M261 263 L258 267 L250 270 L247 270 L242 267 L243 263 L256 263 L257 262 Z M274 255 L276 257 L277 263 L276 277 L268 296 L257 310 L230 337 L227 343 L224 345 L217 361 L217 384 L224 397 L230 403 L232 403 L235 407 L246 412 L244 416 L240 416 L231 412 L217 399 L212 385 L210 384 L210 361 L212 360 L215 349 L223 338 L223 336 L256 304 L256 302 L262 295 L270 276 L269 258 Z M302 253 L304 260 L301 268 L293 275 L290 274 L285 269 L285 267 L289 263 L288 262 L283 263 L281 256 L283 255 L285 257 L288 257 L291 259 L292 262 L294 262 L296 257 L300 253 Z M286 241 L288 241 L289 243 L296 243 L299 245 L298 249 L293 254 L288 254 L283 249 L282 246 Z M180 238 L184 236 L192 238 L193 240 L191 242 L182 241 Z M168 238 L170 234 L175 235 L172 240 Z M298 231 L300 238 L296 240 L294 238 L294 234 Z M291 223 L293 224 L292 229 L290 228 Z M299 201 L303 203 L300 209 L307 210 L314 219 L313 224 L307 223 L307 225 L317 234 L320 248 L317 249 L313 247 L313 252 L319 259 L319 272 L316 273 L312 270 L314 287 L310 297 L305 293 L304 308 L301 313 L297 316 L296 313 L293 312 L289 327 L284 332 L280 328 L277 331 L275 341 L270 346 L268 343 L264 344 L261 359 L254 361 L258 376 L256 379 L257 386 L260 387 L263 383 L269 392 L271 392 L272 387 L278 387 L284 392 L296 394 L289 400 L268 401 L252 391 L248 383 L247 368 L252 354 L291 311 L305 284 L308 269 L308 245 L306 235 L297 215 L289 206 L290 203 Z M152 196 L155 194 L162 197 L171 205 L172 208 L171 221 L172 222 L177 220 L184 220 L194 226 L199 227 L218 220 L220 218 L226 218 L235 223 L236 232 L231 237 L223 237 L221 235 L221 231 L227 230 L227 228 L223 225 L217 225 L209 230 L199 233 L193 233 L184 230 L178 224 L173 228 L169 229 L162 227 L158 221 L158 218 L163 214 L163 210 L160 207 L153 208 L151 206 Z M209 193 L212 192 L216 194 L217 198 L213 201 L212 196 Z M267 171 L272 168 L277 168 L282 170 L287 176 L286 183 L295 182 L301 185 L303 189 L297 195 L293 197 L283 196 L274 187 L277 181 L276 177 L272 173 L268 173 Z M169 148 L172 148 L178 154 L178 162 L181 162 L182 160 L184 160 L187 163 L187 169 L183 175 L177 170 L175 171 L179 179 L182 180 L181 187 L174 185 L170 179 L167 177 L165 161 Z M186 116 L196 122 L202 130 L201 143 L195 150 L192 158 L190 158 L187 154 L187 150 L193 142 L194 134 L192 130 L186 130 L184 128 L184 120 Z M238 104 L240 106 L238 115 L241 117 L244 113 L246 113 L247 123 L245 124 L245 127 L242 132 L236 137 L232 138 L231 136 L236 131 L236 118 L233 108 L236 104 Z M204 43 L206 44 L208 53 L216 60 L220 67 L219 77 L212 77 L208 81 L209 92 L226 108 L224 112 L230 117 L231 121 L229 134 L230 139 L220 147 L219 158 L223 162 L229 161 L230 155 L226 156 L224 152 L229 148 L233 149 L238 154 L238 162 L234 167 L225 168 L219 162 L215 161 L210 153 L208 153 L203 159 L199 158 L201 150 L215 138 L219 130 L219 117 L214 109 L200 98 L195 88 L196 79 L206 70 L206 64 L201 63 L199 60 L199 54 Z"/></svg>
