<svg xmlns="http://www.w3.org/2000/svg" width="512" height="512" viewBox="0 0 512 512" aria-hidden="true" focusable="false"><path fill="currentColor" fill-rule="evenodd" clip-rule="evenodd" d="M183 412 L181 411 L172 415 L172 417 L177 416 Z M320 411 L325 416 L340 423 L351 424 L363 421 L363 419 L352 422 L341 421 L325 414 L322 410 Z M138 411 L147 416 L164 417 L164 415 L153 415 L140 410 Z M193 404 L191 403 L188 406 L188 408 Z M177 400 L175 399 L170 402 L161 403 L161 405 L170 404 Z M209 283 L209 286 L211 287 Z M253 224 L252 227 L253 229 L252 236 L254 237 L253 241 L255 243 L256 250 L259 256 L261 256 L258 249 L256 248 L257 244 L255 230 L257 229 L257 227 L255 226 L255 224 Z M253 193 L253 197 L250 198 L250 200 L253 200 L254 203 L248 206 L248 208 L251 207 L253 208 L253 211 L251 212 L251 214 L254 215 L253 221 L259 222 L259 220 L256 219 L256 215 L258 214 L258 212 L255 211 L255 208 L256 207 L261 208 L261 206 L256 204 L256 201 L259 200 L259 198 L256 197 L257 193 Z M291 176 L284 171 L278 172 L277 175 L274 176 L273 178 L274 181 L273 189 L282 188 L285 186 L288 182 L288 179 Z M276 176 L278 175 L279 177 L277 178 Z M279 176 L282 173 L285 174 L284 176 L281 177 Z M222 173 L220 177 L222 184 L227 188 L234 188 L235 190 L237 190 L236 185 L237 179 L235 175 L229 171 Z M225 174 L227 173 L230 174 L231 176 L228 177 Z M270 171 L272 171 L278 164 L283 162 L288 163 L291 166 L293 165 L286 159 L279 159 L273 163 L270 168 Z M219 163 L219 164 L225 162 L230 163 L236 168 L238 172 L240 172 L238 165 L230 159 L224 159 Z M254 142 L252 146 L249 145 L247 151 L244 155 L244 160 L250 164 L250 167 L252 168 L251 174 L253 176 L253 180 L256 181 L256 176 L259 173 L258 170 L259 164 L264 162 L265 155 L262 148 L260 146 L258 147 L256 142 Z M248 155 L250 156 L249 160 L247 159 Z M253 155 L255 154 L257 157 L254 158 Z M257 148 L260 150 L262 154 L261 160 L259 159 L259 154 L256 151 Z M252 148 L253 151 L249 155 L248 153 L250 149 Z M254 17 L245 49 L228 73 L228 96 L218 85 L203 130 L193 117 L194 150 L175 155 L160 173 L175 186 L195 222 L169 241 L149 277 L136 254 L143 231 L141 208 L136 205 L139 189 L144 187 L144 196 L148 197 L157 179 L153 164 L148 173 L143 171 L148 150 L145 131 L132 153 L132 169 L121 162 L123 151 L112 156 L104 168 L104 188 L116 200 L120 187 L129 187 L126 204 L109 219 L105 230 L109 261 L106 275 L111 291 L142 341 L161 345 L182 336 L183 342 L178 349 L144 351 L126 358 L112 381 L114 399 L126 418 L117 421 L103 417 L123 435 L126 446 L135 454 L155 453 L164 465 L177 471 L190 471 L210 460 L214 467 L230 467 L256 496 L280 466 L290 469 L304 462 L318 471 L336 473 L352 465 L360 453 L378 454 L388 445 L391 433 L401 428 L409 410 L396 418 L388 417 L400 386 L394 369 L378 356 L387 339 L380 320 L393 303 L401 275 L401 288 L407 284 L403 220 L377 200 L379 190 L390 181 L392 159 L385 160 L371 140 L360 161 L352 160 L354 180 L367 190 L372 202 L367 205 L366 224 L374 253 L359 279 L343 242 L315 221 L319 208 L349 172 L332 153 L316 150 L317 117 L306 130 L293 86 L284 96 L281 94 L281 72 L262 44 Z M250 486 L254 482 L260 487 L256 491 L254 491 Z M262 479 L265 478 L266 480 L263 481 Z M244 479 L246 478 L247 480 L245 481 Z M325 468 L335 467 L336 469 L326 470 Z M236 468 L238 467 L240 470 L238 471 Z M337 467 L339 466 L340 468 L338 469 Z M321 467 L323 466 L324 468 L322 469 Z M314 464 L316 463 L320 465 L321 467 L319 468 L315 466 Z M282 462 L284 461 L285 463 L283 464 Z M254 461 L258 463 L256 469 L254 469 L252 465 Z M305 458 L310 457 L311 462 L309 463 Z M280 457 L281 460 L279 462 L279 465 L277 466 L273 461 L278 457 Z M306 453 L295 464 L290 466 L288 465 L288 463 L294 459 L298 454 L302 452 Z M370 450 L375 449 L376 452 L371 453 Z M138 450 L142 449 L143 451 L140 453 Z M146 449 L148 448 L149 450 L147 451 Z M214 445 L215 448 L212 454 L210 455 L209 454 L210 448 Z M367 443 L368 444 L367 450 L364 451 L363 448 L365 444 Z M363 442 L365 441 L366 443 L364 444 Z M129 443 L134 441 L136 444 L133 447 Z M382 441 L384 440 L385 443 L383 444 Z M359 440 L349 455 L349 457 L351 457 L352 459 L348 464 L346 464 L345 461 L343 461 L335 465 L326 465 L314 459 L314 455 L312 453 L313 450 L321 455 L334 457 L342 454 L342 452 L338 454 L325 454 L320 452 L318 449 L332 446 L338 443 L343 443 L344 445 L346 445 L351 441 L357 439 Z M186 438 L188 437 L189 439 L187 440 Z M304 437 L306 436 L307 438 L305 439 Z M382 435 L386 434 L387 439 L385 440 L382 437 Z M300 434 L302 433 L303 435 L301 436 Z M255 432 L256 437 L252 438 L251 436 Z M140 428 L144 427 L155 437 L150 439 L144 439 L140 435 Z M294 427 L296 426 L297 428 L295 429 Z M224 424 L226 423 L227 425 L225 426 Z M112 424 L116 423 L121 424 L122 426 L117 430 L113 427 Z M126 422 L132 423 L135 426 L134 428 L132 428 L132 437 L128 439 L126 438 L125 435 L127 427 L125 426 Z M390 422 L389 426 L385 427 L385 429 L387 430 L386 432 L377 430 L374 432 L374 435 L369 439 L359 436 L363 432 L378 426 L384 421 Z M296 421 L298 420 L302 426 L300 427 Z M288 421 L290 420 L291 423 L289 424 Z M401 420 L398 426 L395 424 L393 425 L391 424 L393 421 L396 421 L399 419 Z M289 412 L290 414 L286 417 L285 414 Z M283 405 L286 404 L287 406 L284 407 Z M262 404 L264 405 L267 435 L270 444 L276 454 L274 457 L271 457 L267 454 L262 442 L260 430 L260 409 Z M253 404 L257 409 L257 417 L248 435 L242 452 L237 457 L234 458 L233 462 L228 463 L226 459 L219 464 L215 464 L213 460 L215 457 L220 456 L224 451 L223 445 L225 440 L232 432 L236 430 L244 422 L249 413 L251 405 Z M229 402 L232 401 L233 403 L230 404 Z M267 399 L271 399 L274 401 L277 418 L284 433 L301 446 L301 449 L290 459 L287 459 L277 450 L272 441 L267 421 L267 406 L266 405 Z M243 399 L245 401 L243 410 L245 410 L246 412 L242 420 L237 425 L235 420 L238 412 L238 400 Z M253 399 L255 398 L256 400 L254 401 Z M278 391 L284 390 L285 392 L279 393 Z M253 390 L255 389 L256 391 L254 392 Z M298 386 L297 390 L294 391 L290 390 L291 387 L295 387 L296 385 Z M268 384 L270 383 L271 385 L269 386 Z M303 382 L305 381 L306 383 L304 384 Z M281 381 L283 380 L284 382 L282 383 Z M219 379 L223 378 L224 380 L221 383 Z M285 380 L286 378 L289 377 L295 378 L294 380 L290 382 Z M267 378 L269 377 L273 381 L273 383 L271 384 Z M254 377 L259 381 L259 384 L257 386 L251 385 L251 380 Z M238 380 L241 377 L243 378 L240 381 Z M312 376 L313 378 L309 382 L307 382 L306 380 Z M233 377 L235 376 L236 378 L234 379 Z M277 376 L281 375 L282 377 L278 378 Z M228 376 L231 375 L232 377 L229 378 Z M282 375 L285 374 L286 376 L283 377 Z M224 375 L227 374 L228 376 L225 377 Z M299 373 L302 374 L300 378 L298 377 Z M221 374 L223 373 L224 375 L222 376 Z M218 373 L220 372 L221 374 L219 375 Z M215 372 L217 371 L218 373 L216 374 Z M304 373 L305 370 L308 371 L306 374 Z M228 371 L232 370 L233 372 L229 373 Z M201 371 L203 370 L204 372 L202 373 Z M262 370 L264 369 L265 371 L263 372 Z M301 369 L300 371 L289 376 L286 375 L287 373 L292 372 L299 368 Z M217 367 L220 366 L221 368 L218 369 Z M333 372 L336 368 L343 365 L357 367 L356 369 L348 371 L341 371 L335 373 Z M250 366 L252 365 L253 367 L251 368 Z M232 366 L234 365 L235 367 L233 368 Z M223 367 L227 365 L229 368 L224 369 Z M306 364 L308 363 L309 365 L307 366 Z M243 364 L246 363 L247 365 L244 366 Z M239 363 L241 364 L240 367 L237 366 Z M253 363 L256 362 L257 364 L254 365 Z M391 370 L396 380 L396 395 L390 408 L379 420 L355 431 L338 431 L317 423 L329 431 L351 435 L345 439 L330 440 L316 435 L302 422 L291 395 L295 394 L306 410 L298 393 L305 394 L305 390 L310 388 L321 391 L315 385 L331 376 L344 373 L367 376 L361 370 L369 369 L361 366 L373 360 L382 362 Z M310 361 L312 360 L313 362 L311 363 Z M197 361 L199 360 L200 362 L198 363 Z M260 356 L262 355 L263 357 L261 358 Z M331 354 L334 358 L333 361 L337 362 L338 364 L324 377 L316 381 L315 380 L316 377 L321 372 L319 369 L327 360 L329 355 Z M192 355 L194 354 L195 356 L193 357 Z M130 359 L145 354 L165 357 L175 366 L150 365 L145 368 L161 367 L183 373 L192 380 L181 385 L197 382 L204 386 L203 390 L210 389 L206 400 L213 390 L222 393 L222 411 L212 435 L188 451 L176 451 L187 454 L203 446 L202 454 L186 463 L170 459 L175 464 L188 465 L204 456 L198 465 L190 468 L172 466 L150 444 L156 445 L164 455 L166 453 L157 440 L184 449 L175 441 L190 442 L202 437 L189 438 L208 421 L215 403 L207 419 L193 432 L179 437 L159 434 L158 430 L173 429 L183 424 L154 427 L141 423 L127 413 L116 395 L117 374 Z M177 354 L180 353 L181 356 L179 357 Z M166 354 L168 353 L175 356 L178 360 L182 358 L184 361 L184 366 L189 367 L188 369 L189 372 L188 373 L185 372 L175 361 L167 356 Z M265 354 L266 351 L269 352 L267 355 Z M270 350 L271 347 L274 348 L272 351 Z M334 352 L334 349 L336 348 L340 356 L342 357 L341 350 L345 347 L348 355 L350 356 L349 349 L353 346 L360 357 L361 355 L359 350 L361 347 L363 347 L367 353 L369 353 L375 346 L379 347 L379 350 L368 361 L363 361 L361 363 L348 363 L341 361 L336 357 Z M341 343 L343 342 L345 346 L342 347 Z M371 341 L373 344 L370 347 L367 347 L366 345 L369 344 L369 342 Z M275 342 L278 341 L279 344 L276 345 Z M357 337 L364 336 L365 338 L361 340 L358 339 Z M343 337 L351 336 L352 338 L345 340 Z M383 335 L384 338 L381 340 L380 338 Z M279 336 L282 335 L283 338 L280 339 Z M283 330 L285 329 L286 332 L284 333 Z M186 327 L187 332 L184 334 L183 329 Z M285 324 L288 323 L289 326 L286 328 Z M344 325 L347 322 L351 322 L354 325 L354 327 L352 329 L345 329 Z M253 323 L256 322 L257 325 L254 326 Z M356 325 L358 322 L361 321 L365 324 L366 327 L364 329 L357 329 Z M368 321 L372 320 L375 323 L375 326 L369 328 Z M337 320 L342 321 L340 328 L333 326 L334 324 L336 324 Z M287 320 L288 317 L291 318 L289 321 Z M235 316 L238 315 L239 318 L237 319 Z M350 316 L353 313 L355 313 L359 316 L359 318 L356 320 L353 320 L350 318 Z M363 311 L366 312 L368 315 L366 319 L362 318 L361 313 Z M345 311 L348 314 L347 318 L343 319 L341 317 L341 314 Z M234 310 L236 311 L235 315 L232 314 Z M349 308 L353 304 L355 304 L359 307 L359 310 L351 311 Z M231 304 L234 306 L233 309 L229 308 Z M228 299 L231 298 L232 302 L230 303 Z M312 298 L314 297 L316 301 L314 302 Z M197 295 L198 301 L196 305 L194 306 L193 301 L195 299 L195 296 Z M190 340 L192 317 L202 302 L202 294 L211 298 L225 296 L230 316 L234 318 L235 324 L243 330 L243 334 L247 335 L254 344 L267 333 L276 319 L284 318 L278 334 L268 346 L257 354 L240 361 L217 363 L204 360 L197 354 Z M310 293 L308 303 L311 303 L317 312 L321 326 L321 338 L316 350 L307 360 L295 368 L281 373 L269 371 L266 365 L263 365 L261 362 L281 345 L291 327 L295 306 L299 298 Z M355 295 L357 300 L350 302 L348 305 L338 307 L339 310 L338 316 L331 320 L330 323 L328 323 L323 313 L321 305 L330 297 L342 292 L345 293 L349 292 Z M229 291 L232 293 L231 296 L227 294 Z M320 291 L322 290 L323 293 L321 294 Z M151 288 L153 289 L154 295 L153 300 L146 303 L146 305 L150 306 L147 319 L149 326 L153 333 L163 339 L160 342 L154 342 L144 338 L138 332 L135 323 L138 308 Z M227 285 L229 284 L231 288 L228 289 Z M331 284 L335 283 L336 285 L332 286 Z M113 284 L116 283 L117 285 L114 286 Z M227 278 L230 280 L228 283 L225 281 Z M119 276 L121 275 L122 277 L120 278 Z M250 275 L252 274 L253 277 L251 278 Z M231 275 L233 274 L238 275 L240 277 L247 277 L254 285 L256 285 L258 281 L261 279 L267 281 L276 288 L278 292 L278 296 L274 300 L273 298 L275 294 L273 290 L269 287 L261 287 L255 292 L253 296 L254 307 L248 313 L241 312 L235 303 L234 286 Z M224 274 L227 273 L228 275 L225 276 Z M352 272 L355 275 L354 280 L350 278 L350 275 Z M140 272 L148 282 L148 284 L146 287 L146 291 L143 293 L143 295 L139 299 L135 307 L133 317 L131 318 L125 311 L120 302 L117 289 L124 279 L129 278 L138 272 Z M116 272 L118 273 L117 278 L115 277 Z M170 271 L173 273 L172 279 L174 287 L172 289 L169 287 L168 273 Z M380 271 L384 270 L385 272 L381 273 Z M371 270 L381 276 L396 278 L390 301 L385 310 L377 319 L371 316 L370 311 L362 305 L360 299 L360 285 Z M222 269 L224 268 L225 270 L223 271 Z M238 268 L240 267 L242 271 L246 271 L247 273 L242 275 L239 272 Z M228 268 L230 267 L231 269 L229 270 Z M292 267 L296 266 L297 268 L293 269 Z M334 266 L336 265 L337 267 L335 268 Z M396 265 L398 264 L399 266 L397 267 Z M164 264 L167 268 L167 289 L164 290 L161 286 L161 291 L159 295 L169 291 L177 290 L175 275 L176 265 L178 266 L182 296 L176 302 L174 307 L170 308 L172 316 L174 316 L175 309 L180 301 L184 302 L185 288 L187 284 L189 285 L191 297 L189 313 L185 320 L178 324 L178 326 L175 328 L166 327 L165 324 L159 319 L156 310 L157 277 L160 274 L161 279 L163 279 L162 269 Z M133 263 L127 268 L125 267 L131 262 Z M289 260 L294 259 L295 262 L291 263 Z M215 260 L220 259 L221 261 L217 263 Z M344 260 L347 258 L349 261 L345 262 Z M164 255 L167 256 L167 259 L169 259 L172 264 L171 270 L169 269 L168 264 L164 260 L163 257 Z M230 255 L232 254 L238 256 L239 258 L236 259 L231 257 Z M295 254 L299 253 L300 255 L297 257 Z M210 254 L213 253 L214 256 L212 257 Z M169 252 L171 253 L170 257 L168 256 Z M342 251 L344 252 L343 256 L340 255 Z M276 252 L279 250 L283 254 L278 256 Z M280 249 L283 248 L286 252 L283 253 Z M229 248 L231 251 L227 254 L225 251 Z M122 248 L123 252 L121 259 L119 260 L118 259 L119 249 Z M205 246 L208 245 L209 247 L206 248 Z M299 245 L301 244 L304 245 L305 247 L301 248 Z M221 242 L227 247 L224 251 L219 247 Z M303 242 L305 241 L306 244 L304 245 Z M204 241 L206 240 L207 242 L205 243 Z M218 240 L220 239 L221 241 L219 242 Z M275 235 L278 237 L278 239 L282 241 L282 244 L276 249 L274 248 L273 237 Z M223 239 L228 238 L233 234 L235 247 L232 248 Z M205 232 L206 233 L205 236 L202 237 L201 235 Z M308 230 L309 235 L305 237 L303 233 Z M321 228 L329 232 L337 241 L339 246 L338 255 L326 272 L322 281 L316 287 L314 285 L317 278 L318 257 L314 256 L315 277 L310 288 L301 295 L300 288 L302 286 L298 281 L300 259 L302 253 L306 251 L307 243 L310 241 L310 239 L312 237 L321 238 L321 235 L318 232 L318 229 Z M192 228 L193 231 L189 235 L189 238 L198 237 L200 239 L204 251 L213 262 L213 265 L216 266 L220 272 L225 289 L224 296 L212 296 L201 288 L196 276 L197 258 L194 268 L196 287 L193 286 L193 282 L187 278 L180 263 L175 259 L173 247 L177 245 L176 240 L183 232 Z M229 222 L233 226 L233 229 L231 232 L225 230 Z M140 223 L139 239 L137 246 L131 255 L133 258 L129 262 L125 262 L124 257 L127 244 L131 239 L131 235 L135 233 L134 225 L137 222 Z M371 220 L375 223 L376 225 L375 231 L379 233 L386 247 L389 246 L398 260 L396 263 L386 262 L378 256 L379 253 L373 243 L371 236 L371 230 L369 224 Z M396 218 L399 220 L402 226 L404 236 L404 244 L401 252 L399 251 L393 240 L396 235 L391 234 L389 239 L386 238 L387 232 L390 229 L396 228 L397 226 L391 226 L388 227 L384 232 L382 231 L384 225 L387 222 L392 221 Z M124 217 L129 221 L131 226 L129 227 L125 223 L122 222 L115 222 L116 224 L124 225 L128 233 L126 234 L122 230 L113 229 L114 231 L120 232 L124 236 L125 240 L122 243 L120 238 L116 239 L118 243 L118 247 L115 259 L112 261 L107 249 L108 229 L111 222 L115 218 Z M219 215 L224 219 L224 224 L221 230 L217 229 L215 220 L218 219 Z M379 223 L380 219 L385 214 L392 214 L395 216 L392 219 L385 220 L381 224 Z M291 214 L294 219 L294 225 L292 230 L289 232 L285 224 L285 219 Z M136 210 L138 211 L137 215 L135 214 Z M370 209 L372 208 L374 211 L371 212 Z M121 212 L125 208 L127 208 L132 213 L132 216 L130 217 L126 214 L122 215 Z M384 205 L387 209 L383 210 L379 215 L376 214 L377 210 L382 205 Z M132 201 L133 205 L130 207 L129 204 Z M370 190 L375 189 L376 192 L372 194 Z M149 188 L151 187 L152 189 L150 190 Z M132 186 L135 185 L136 188 L133 189 Z M143 182 L145 181 L146 183 L144 184 Z M134 178 L136 177 L137 179 L135 180 Z M145 176 L147 177 L146 181 L144 180 Z M387 175 L388 177 L386 181 L382 184 L381 183 L382 176 Z M371 167 L373 167 L378 174 L378 182 L375 186 L371 186 L367 182 L366 179 L367 173 Z M357 167 L359 168 L359 173 L363 175 L362 177 L360 177 L360 179 L364 180 L363 185 L357 179 L356 176 Z M136 168 L138 167 L139 169 L137 170 Z M386 166 L388 167 L387 171 L385 170 Z M185 162 L194 162 L201 167 L200 169 L194 168 L189 170 L189 172 L197 170 L203 172 L207 176 L206 178 L198 180 L194 185 L193 190 L200 181 L207 180 L208 182 L203 186 L205 189 L203 201 L205 193 L209 189 L211 191 L210 194 L212 202 L215 206 L215 213 L213 218 L200 228 L197 228 L196 226 L203 223 L203 221 L199 222 L197 220 L196 212 L192 206 L183 198 L178 184 L170 177 Z M379 161 L382 162 L382 167 L380 170 L377 167 L377 163 Z M363 161 L365 161 L368 165 L365 170 L362 167 Z M322 161 L328 163 L339 175 L339 177 L331 185 L327 197 L318 205 L314 211 L313 221 L306 221 L301 216 L304 221 L314 226 L311 228 L303 224 L297 218 L294 208 L297 204 L301 189 L305 194 L306 202 L306 192 L304 189 L306 185 L302 182 L303 180 L310 181 L316 188 L312 180 L303 178 L302 176 L309 171 L319 171 L319 169 L309 169 L308 167 L315 162 Z M117 157 L118 158 L117 162 L120 165 L120 167 L125 171 L129 172 L130 174 L127 177 L128 180 L127 182 L121 183 L116 187 L112 185 L111 177 L109 178 L110 184 L114 190 L111 193 L107 188 L105 181 L105 175 L109 164 L114 158 Z M303 165 L310 157 L316 154 L326 154 L330 156 L336 162 L341 171 L339 172 L332 163 L326 159 L316 159 L305 167 Z M169 171 L173 163 L180 156 L184 154 L194 154 L198 156 L205 162 L208 167 L206 169 L203 165 L193 159 L184 159 L179 162 L171 172 Z M137 155 L140 154 L141 158 L139 159 Z M304 154 L306 150 L309 152 L306 155 Z M204 150 L205 154 L201 155 L200 153 Z M371 148 L374 150 L377 155 L377 159 L375 161 L372 159 L370 161 L367 160 L367 154 Z M308 144 L310 143 L311 145 L309 146 Z M301 143 L303 142 L304 144 L302 145 Z M206 143 L208 142 L209 144 L207 145 Z M141 142 L144 143 L143 148 L138 147 Z M312 142 L314 141 L315 143 L313 144 Z M293 141 L295 140 L296 142 L294 143 Z M306 136 L308 135 L309 138 L307 139 Z M199 136 L202 135 L203 137 L200 138 Z M237 133 L250 133 L254 137 L260 133 L277 134 L295 149 L298 183 L294 203 L284 215 L277 202 L278 222 L289 240 L276 231 L273 214 L270 246 L274 256 L294 277 L297 295 L293 305 L276 316 L263 313 L256 298 L261 291 L268 290 L271 295 L265 293 L264 301 L273 305 L280 300 L279 287 L245 263 L236 227 L230 219 L232 205 L224 215 L214 198 L215 149 L223 139 Z M292 128 L294 127 L295 129 L293 130 Z M266 129 L269 127 L273 127 L283 130 L288 133 L292 138 L290 139 L281 133 L274 131 L267 131 Z M242 128 L241 131 L235 131 L223 136 L218 140 L216 139 L218 136 L227 130 L237 127 Z M207 128 L209 127 L210 129 L208 130 Z M217 127 L219 126 L220 128 L218 129 Z M286 123 L290 122 L291 124 L287 125 Z M212 123 L214 122 L215 124 L213 125 Z M294 122 L297 121 L299 124 L295 125 Z M284 119 L285 122 L282 125 L281 123 L282 120 Z M224 120 L227 119 L228 121 L225 122 Z M232 117 L234 116 L235 118 L233 119 Z M218 119 L221 116 L224 117 L221 120 Z M285 116 L287 115 L292 117 L295 121 L293 122 L291 120 L288 120 Z M272 111 L273 110 L279 111 L283 113 L284 115 L279 116 L278 114 L274 114 Z M265 111 L267 110 L268 113 L266 114 Z M254 110 L256 110 L258 113 L258 117 L256 119 L253 119 L251 116 Z M241 111 L243 110 L244 112 L242 113 Z M238 111 L236 114 L232 114 L230 117 L226 115 L227 113 L234 110 Z M223 107 L224 108 L223 111 L219 113 L218 111 Z M285 107 L287 106 L290 109 L290 111 L288 112 Z M291 104 L293 103 L295 107 L292 108 Z M219 101 L220 103 L219 106 L217 107 L216 104 Z M276 100 L281 105 L280 108 L276 106 L275 103 Z M234 99 L235 101 L233 107 L228 109 L227 108 L228 105 Z M267 95 L270 96 L273 103 L272 105 L269 104 L266 98 Z M243 95 L244 97 L241 103 L237 105 L236 103 L239 98 Z M288 95 L290 94 L291 97 L289 98 Z M218 95 L220 94 L222 97 L220 98 Z M250 92 L252 91 L253 93 L251 94 Z M253 87 L255 86 L257 89 L254 90 Z M245 77 L247 76 L248 79 L246 80 Z M235 74 L237 73 L238 75 L236 76 Z M254 71 L256 71 L259 75 L258 80 L256 78 L253 79 L250 78 Z M271 70 L273 69 L274 71 L272 72 Z M269 67 L271 66 L272 68 L270 69 Z M253 63 L255 62 L256 64 L254 65 Z M255 29 L257 33 L253 35 L252 33 L253 30 Z"/></svg>
