<svg xmlns="http://www.w3.org/2000/svg" width="512" height="512" viewBox="0 0 512 512" aria-hidden="true" focusable="false"><path fill="currentColor" fill-rule="evenodd" clip-rule="evenodd" d="M73 23 L71 38 L55 62 L45 102 L45 123 L52 137 L46 137 L46 149 L59 175 L55 177 L57 188 L73 209 L75 223 L100 253 L112 259 L108 262 L113 267 L139 276 L127 279 L138 288 L169 297 L140 307 L127 326 L128 344 L136 359 L169 383 L179 397 L167 415 L150 398 L137 397 L127 405 L124 419 L127 422 L133 416 L131 434 L135 442 L139 443 L141 431 L152 431 L175 450 L182 464 L177 472 L186 471 L194 462 L186 436 L198 422 L198 408 L206 405 L201 418 L204 437 L218 457 L232 467 L225 450 L242 433 L235 444 L235 458 L257 495 L277 458 L277 445 L267 427 L286 449 L280 467 L284 466 L311 431 L311 418 L305 408 L311 404 L317 415 L315 422 L326 436 L318 462 L326 471 L335 472 L330 462 L341 443 L364 430 L372 433 L373 443 L377 442 L381 433 L379 416 L388 419 L386 406 L375 397 L360 399 L348 414 L334 402 L339 387 L374 361 L385 339 L383 321 L372 307 L343 298 L382 283 L384 279 L372 277 L393 272 L405 262 L401 259 L421 244 L456 187 L457 179 L449 180 L466 153 L467 137 L462 141 L460 138 L468 121 L467 97 L460 89 L457 60 L442 38 L440 23 L434 25 L429 36 L434 75 L420 105 L402 97 L392 82 L379 84 L373 97 L384 95 L392 115 L382 136 L384 142 L361 166 L335 176 L327 174 L310 184 L311 165 L303 169 L302 164 L311 145 L312 122 L295 135 L297 123 L280 107 L277 89 L266 77 L265 42 L257 17 L247 43 L246 78 L241 88 L235 89 L232 108 L215 122 L215 135 L201 122 L202 145 L212 168 L202 165 L204 184 L190 180 L186 174 L178 176 L152 166 L130 144 L119 116 L129 95 L140 96 L135 85 L121 82 L111 97 L91 103 L78 69 L84 36 Z M323 455 L326 456 L325 463 L322 461 Z M187 455 L189 456 L188 463 L186 462 Z M242 445 L244 446 L244 450 L255 472 L257 472 L260 463 L263 461 L269 447 L271 448 L272 460 L264 471 L264 473 L260 476 L260 478 L256 482 L248 473 L248 471 L245 469 L244 465 L241 463 L240 449 Z M244 425 L245 429 L243 432 L241 432 L240 430 L242 426 Z M373 423 L377 425 L376 430 L373 428 L372 425 Z M294 423 L297 424 L301 429 L302 434 L300 436 L298 435 L297 429 L293 425 Z M218 423 L219 425 L214 431 L213 436 L211 437 L210 436 L211 429 L215 424 Z M139 423 L140 425 L136 429 L135 425 Z M251 421 L254 424 L255 452 L257 452 L258 424 L260 421 L263 422 L265 430 L265 446 L257 460 L255 460 L251 456 L247 446 L247 430 Z M189 420 L191 419 L192 421 L190 422 Z M160 420 L162 419 L164 422 L162 423 Z M373 417 L367 425 L365 424 L365 422 L363 422 L362 425 L355 429 L350 435 L342 439 L338 439 L336 445 L333 447 L332 456 L330 456 L329 453 L325 450 L329 445 L331 433 L337 431 L341 427 L352 426 L361 418 L365 418 L367 416 Z M140 417 L145 416 L147 418 L151 418 L160 426 L173 428 L175 431 L179 432 L182 436 L182 442 L186 448 L182 456 L179 455 L179 447 L175 443 L175 439 L171 439 L169 437 L164 436 L155 427 L151 426 L149 423 L145 425 L143 421 L140 419 Z M240 416 L241 418 L236 430 L224 442 L222 449 L220 450 L218 446 L218 435 L220 430 L233 415 L235 416 L232 421 L233 423 Z M277 413 L292 430 L294 435 L294 446 L292 450 L290 449 L287 442 L275 428 L271 417 L273 416 L276 421 L279 423 L280 421 L276 415 Z M376 406 L378 405 L380 408 L377 409 Z M134 405 L136 406 L135 409 L132 408 Z M285 403 L288 404 L291 402 L305 414 L307 418 L306 428 L300 421 L295 418 L287 410 L284 405 Z M140 403 L142 402 L150 408 L155 414 L150 415 L146 410 L141 412 Z M373 402 L371 406 L372 410 L371 412 L366 410 L363 414 L358 416 L356 415 L364 407 L367 406 L371 401 Z M228 402 L229 404 L226 409 L206 427 L205 419 L207 414 L222 401 L225 403 Z M202 391 L204 392 L203 396 L201 395 Z M239 394 L243 390 L245 393 L245 396 L249 396 L253 400 L255 407 L257 407 L260 399 L263 396 L267 396 L268 391 L270 390 L273 394 L274 401 L268 408 L266 408 L263 412 L255 417 L239 403 Z M289 388 L296 386 L303 393 L303 396 L306 400 L303 402 L295 400 L291 396 L289 392 Z M223 388 L221 397 L216 401 L209 402 L206 400 L209 395 L209 392 L217 386 L220 386 Z M325 385 L327 384 L329 387 L327 388 Z M186 384 L187 386 L184 388 L183 386 Z M314 383 L316 383 L328 393 L328 397 L332 410 L330 412 L326 412 L324 416 L321 414 L315 402 L316 398 L315 391 L313 390 L310 395 L308 394 L309 390 L313 386 Z M197 383 L200 386 L200 388 L197 389 L196 394 L197 402 L192 413 L188 415 L186 412 L181 412 L180 407 L184 399 L184 393 L191 388 L193 388 L193 386 Z M276 377 L279 379 L284 386 L283 393 L280 397 L277 396 L276 391 L273 386 L273 382 Z M237 377 L240 382 L240 385 L236 393 L232 396 L228 391 L228 386 L234 378 Z M185 376 L187 375 L188 377 L186 378 Z M311 373 L312 376 L309 384 L304 388 L300 383 L307 374 Z M272 374 L272 376 L268 379 L268 382 L264 385 L263 390 L257 397 L251 393 L249 386 L245 385 L245 381 L241 377 L241 375 L243 374 L255 389 L255 392 L257 392 L259 385 L265 380 L266 377 L270 373 Z M202 373 L205 374 L210 381 L213 383 L208 388 L202 382 L201 379 Z M336 372 L339 378 L332 380 L330 377 L330 374 Z M176 372 L182 374 L182 376 L179 379 L172 378 Z M232 373 L231 376 L226 381 L222 382 L216 380 L226 370 Z M348 369 L350 373 L347 376 L343 377 L341 374 L341 371 Z M278 371 L284 369 L296 380 L291 382 L286 381 Z M164 369 L171 371 L171 374 L169 377 L165 376 L162 373 Z M319 369 L322 368 L324 372 L321 373 Z M208 369 L210 368 L211 370 L209 371 Z M190 366 L193 368 L193 371 L191 373 L188 372 Z M361 365 L361 367 L357 370 L352 369 L354 365 L357 364 Z M151 366 L154 364 L159 366 L160 369 L157 371 Z M325 365 L332 363 L335 369 L328 371 Z M180 363 L187 365 L184 371 L177 369 Z M307 361 L311 364 L311 366 L308 369 L304 367 L304 364 Z M295 361 L298 367 L292 370 L287 364 Z M213 366 L218 361 L224 362 L226 364 L220 370 L216 369 Z M204 361 L207 362 L207 366 L205 368 L201 366 L201 364 Z M336 362 L340 360 L344 360 L346 365 L339 368 L336 365 Z M166 365 L168 360 L174 361 L176 363 L173 368 Z M327 356 L330 358 L328 361 L325 360 Z M182 359 L184 356 L187 358 L186 361 L183 361 Z M356 355 L359 358 L359 360 L357 362 L350 364 L347 358 L353 355 Z M300 355 L304 357 L304 359 L301 362 L297 358 Z M273 356 L275 355 L277 359 L275 360 Z M209 355 L212 355 L215 357 L212 362 L207 358 Z M153 360 L155 355 L158 355 L164 358 L161 363 L155 362 Z M282 355 L286 354 L289 358 L286 361 L284 361 L282 359 Z M312 353 L314 353 L317 356 L317 359 L314 362 L309 358 Z M228 353 L231 354 L231 358 L229 360 L225 358 L225 356 Z M198 353 L200 353 L203 356 L203 358 L199 362 L195 359 L195 356 Z M280 353 L282 352 L283 354 L281 355 Z M253 353 L258 352 L259 355 L256 357 Z M170 354 L172 352 L178 353 L180 357 L178 359 L175 359 L171 357 Z M339 351 L342 355 L334 359 L331 356 L331 354 Z M368 350 L370 353 L370 356 L365 359 L362 359 L360 354 Z M143 351 L145 350 L150 352 L152 354 L151 358 L146 359 L142 356 Z M251 348 L253 347 L255 351 L252 352 Z M176 348 L178 347 L179 349 L177 350 Z M376 346 L377 349 L373 353 L371 348 Z M351 346 L354 351 L346 355 L343 349 Z M318 346 L322 349 L321 352 L318 352 L316 350 Z M194 346 L196 350 L191 354 L189 349 Z M161 346 L169 350 L166 355 L158 351 Z M136 346 L141 348 L139 353 L135 350 Z M271 345 L274 350 L274 354 L269 356 L271 360 L271 365 L269 369 L260 377 L260 379 L255 382 L254 379 L242 367 L241 364 L242 355 L238 359 L236 358 L239 349 L241 346 L243 346 L245 348 L247 358 L248 359 L251 358 L255 363 L255 365 L257 365 L261 358 L263 359 L265 358 L267 349 Z M262 344 L264 345 L263 348 L260 347 Z M248 344 L250 343 L252 346 L249 347 Z M363 341 L365 343 L365 347 L361 350 L357 350 L355 344 L360 341 Z M146 344 L149 341 L152 341 L156 343 L157 346 L155 350 L151 350 L146 346 Z M349 342 L348 344 L343 346 L338 345 L343 339 L346 339 Z M326 339 L328 339 L332 343 L329 347 L325 347 L322 344 Z M184 339 L189 342 L189 345 L187 347 L183 347 L180 344 Z M315 339 L316 342 L311 346 L307 347 L305 350 L297 352 L295 351 L296 348 L300 348 L308 344 L313 338 Z M163 342 L168 338 L174 345 L171 347 L164 344 Z M277 339 L280 336 L286 337 L289 340 L281 342 L278 341 Z M234 337 L234 340 L230 342 L223 340 L226 337 L232 336 Z M366 338 L374 335 L378 342 L374 344 L370 344 Z M138 335 L145 338 L142 345 L134 341 Z M338 332 L342 336 L335 341 L331 336 L334 333 Z M170 335 L176 332 L177 334 L181 336 L181 338 L176 341 Z M155 332 L160 333 L164 336 L160 342 L152 337 Z M356 331 L360 337 L355 341 L351 342 L348 336 Z M237 332 L239 331 L240 334 L238 335 Z M330 330 L332 329 L333 331 L331 332 Z M251 330 L254 329 L255 331 L252 332 Z M304 329 L296 337 L292 335 L293 329 L300 328 Z M261 328 L262 331 L258 333 L257 331 Z M208 329 L209 328 L220 329 L221 334 L217 338 Z M285 327 L289 329 L287 334 L283 334 L281 332 L282 330 L284 330 Z M225 327 L228 328 L229 332 L228 334 L224 333 Z M367 325 L371 329 L371 332 L364 335 L360 331 L360 329 Z M341 328 L346 325 L350 325 L352 327 L352 330 L349 333 L344 333 L341 330 Z M160 327 L162 325 L166 325 L171 330 L167 334 L165 334 L160 330 Z M145 325 L152 329 L149 335 L146 335 L141 332 L141 329 Z M241 325 L243 324 L244 326 L242 327 Z M292 323 L294 322 L295 324 L293 325 Z M255 323 L257 322 L258 325 L256 326 Z M247 323 L249 322 L250 324 L248 325 Z M262 322 L264 321 L265 323 L263 324 Z M374 320 L377 320 L379 323 L379 327 L377 329 L375 329 L371 325 L371 322 Z M269 320 L273 323 L270 328 L268 327 Z M135 319 L141 323 L138 329 L135 329 L133 327 L133 323 Z M338 318 L344 321 L344 323 L339 327 L337 327 L334 324 Z M311 318 L312 319 L311 322 L307 324 L305 320 Z M252 318 L253 320 L250 322 L249 320 Z M233 319 L235 318 L236 320 L234 321 Z M213 318 L215 319 L214 321 L216 323 L215 325 L211 324 L211 321 Z M200 319 L201 318 L206 319 L207 322 L203 324 Z M172 318 L174 318 L178 323 L175 327 L168 323 L168 321 Z M357 317 L359 317 L363 321 L363 323 L359 326 L355 326 L352 323 L352 321 Z M297 317 L301 320 L302 323 L301 325 L297 324 L298 322 L296 319 Z M153 317 L160 321 L160 323 L156 327 L151 325 L148 322 Z M289 313 L292 317 L284 323 L283 322 L284 315 L286 313 Z M224 313 L227 314 L226 321 L221 317 Z M254 313 L257 312 L260 315 L260 317 L258 318 L257 316 L254 315 Z M366 311 L370 311 L374 315 L369 320 L367 320 L362 315 Z M142 311 L145 311 L150 314 L145 320 L137 317 Z M348 310 L350 310 L355 314 L349 319 L343 316 L343 314 Z M157 314 L160 311 L164 310 L169 314 L169 316 L163 319 Z M338 311 L340 307 L343 308 L341 312 Z M168 308 L172 307 L174 311 L171 312 Z M354 307 L359 306 L362 307 L363 309 L360 312 L358 312 L354 309 Z M148 308 L152 306 L158 307 L158 309 L154 312 L152 312 Z M334 305 L335 306 L334 313 L331 317 L330 322 L324 333 L321 335 L321 337 L317 339 L315 336 L318 334 L325 324 L329 316 L330 310 L332 306 Z M327 305 L328 307 L325 317 L317 329 L317 331 L311 337 L308 338 L305 342 L292 346 L291 345 L292 343 L300 339 L308 332 L317 320 L322 307 L324 305 Z M213 306 L216 305 L217 308 L214 309 Z M186 305 L188 305 L191 308 L195 320 L202 330 L205 332 L205 334 L216 342 L222 344 L221 346 L217 346 L209 343 L196 332 L193 326 L190 324 L185 310 Z M178 305 L180 306 L188 327 L191 329 L197 338 L199 338 L201 341 L203 341 L208 346 L215 348 L217 350 L216 352 L208 350 L207 348 L201 346 L190 336 L181 321 L177 308 Z M299 304 L300 307 L296 311 L294 307 L296 304 Z M345 304 L347 303 L348 305 L346 306 Z M304 314 L310 309 L310 307 L306 306 L307 303 L318 305 L318 307 L313 312 L311 312 L309 315 Z M195 304 L205 303 L207 305 L206 307 L202 307 L202 309 L205 312 L204 315 L195 308 L194 306 Z M269 300 L271 299 L272 301 L270 302 Z M325 298 L329 297 L330 299 L326 300 Z M238 304 L240 303 L243 307 L246 304 L249 304 L248 301 L249 297 L254 292 L257 291 L263 296 L264 304 L268 307 L271 304 L274 304 L275 309 L272 314 L265 316 L263 310 L260 309 L257 301 L255 301 L254 306 L250 309 L248 315 L246 316 L242 315 L239 312 Z M215 275 L216 285 L208 297 L206 297 L205 299 L199 300 L190 299 L183 300 L182 299 L183 297 L186 297 L188 295 L194 295 L208 282 L213 274 Z M298 273 L300 274 L307 285 L315 293 L322 297 L321 300 L308 299 L301 293 L301 291 L297 287 L297 284 L295 282 L297 279 Z M254 268 L258 267 L259 269 L256 271 Z M304 266 L310 265 L320 277 L336 292 L332 293 L321 290 L311 280 Z M209 266 L201 281 L193 289 L183 293 L177 292 L192 278 L200 267 L203 265 Z M294 263 L295 266 L292 273 L293 292 L291 297 L283 305 L280 305 L276 300 L274 293 L267 295 L259 287 L257 278 L266 266 L285 265 Z M217 262 L228 265 L238 266 L245 265 L248 267 L255 277 L254 286 L245 295 L238 293 L238 297 L232 306 L229 305 L220 294 L221 276 L219 268 L216 264 Z M265 258 L267 257 L268 259 L266 260 Z M308 257 L310 256 L312 259 L310 260 Z M316 256 L325 255 L331 259 L334 263 L341 267 L344 271 L358 277 L361 280 L367 281 L369 284 L361 288 L354 288 L352 286 L341 283 L322 266 L316 258 Z M246 255 L248 256 L247 260 L245 259 Z M202 256 L204 255 L205 258 L203 259 Z M196 256 L196 259 L188 269 L172 283 L162 286 L160 288 L153 288 L151 286 L147 286 L144 284 L146 281 L152 280 L155 277 L163 274 L178 264 L185 257 L189 255 Z M180 252 L182 251 L183 253 L181 254 Z M210 251 L213 250 L225 255 L237 255 L240 261 L239 262 L228 261 L226 259 L214 256 Z M303 250 L302 253 L297 257 L286 259 L284 261 L274 260 L275 255 L287 255 L295 253 L301 249 Z M336 249 L338 246 L345 246 L364 257 L369 258 L378 263 L390 265 L391 267 L388 268 L387 270 L379 272 L364 270 L363 268 L349 262 Z M177 247 L177 251 L170 257 L168 257 L165 261 L163 261 L152 268 L149 268 L148 270 L134 272 L128 271 L122 267 L123 265 L134 263 L146 257 L149 257 L165 247 L168 246 Z M323 246 L325 245 L330 251 L328 252 L325 250 Z M312 244 L316 247 L315 250 L312 250 L310 248 Z M201 243 L203 247 L200 250 L196 250 L195 248 Z M191 242 L192 246 L184 252 L183 250 Z M162 242 L164 241 L165 243 L163 244 Z M347 241 L349 240 L352 243 L349 244 Z M330 240 L335 239 L336 241 L331 242 Z M177 240 L181 239 L182 241 L178 242 Z M345 239 L347 238 L348 240 L346 241 Z M166 238 L168 239 L167 242 L164 241 Z M354 238 L357 236 L363 235 L383 242 L387 242 L389 244 L400 246 L410 246 L411 248 L406 250 L402 254 L388 255 L368 248 L359 243 Z M340 236 L342 235 L345 239 L344 240 L341 239 Z M172 235 L173 238 L169 240 L168 238 Z M159 238 L158 240 L145 248 L142 248 L133 253 L125 255 L111 254 L102 248 L103 246 L113 246 L124 244 L126 242 L140 239 L149 235 L157 236 Z M349 231 L353 230 L354 232 L350 233 Z M158 231 L163 230 L164 232 L159 233 Z M364 229 L367 228 L368 230 L365 231 Z M152 228 L151 230 L145 232 L143 231 L146 228 L149 227 Z M358 227 L360 226 L361 228 L359 229 Z M152 227 L154 226 L155 228 L153 229 Z M247 223 L250 222 L255 228 L255 230 L257 230 L261 222 L265 222 L266 226 L262 227 L262 229 L257 234 L255 234 L250 228 L247 227 Z M371 226 L372 224 L380 221 L405 224 L422 223 L427 221 L431 222 L429 226 L427 226 L420 232 L408 236 L393 235 L392 233 L384 232 L378 229 L375 229 Z M82 222 L85 221 L106 224 L132 221 L140 224 L141 226 L138 229 L125 233 L121 233 L120 235 L106 236 L99 235 L86 228 L82 224 Z M142 220 L145 219 L146 221 L143 222 Z M366 220 L369 218 L371 221 L367 222 Z M267 215 L271 214 L272 216 L268 217 Z M83 215 L85 214 L86 216 L84 217 Z M375 214 L377 213 L378 215 L376 216 Z M137 214 L135 217 L130 216 L131 214 L135 213 Z M287 212 L288 218 L281 219 L280 216 L285 212 Z M224 214 L227 212 L232 216 L232 218 L226 219 Z M242 211 L243 213 L240 215 L239 213 Z M278 207 L281 206 L282 208 L279 209 Z M231 207 L234 206 L235 208 L232 209 Z M126 206 L129 205 L131 208 L128 209 Z M386 204 L387 207 L383 209 L382 207 Z M293 203 L296 202 L297 204 L294 205 Z M284 203 L287 202 L288 204 L285 205 Z M216 203 L218 202 L219 204 L217 205 Z M339 202 L344 201 L345 203 L340 204 Z M168 201 L172 200 L174 201 L173 208 L168 207 L167 203 Z M222 198 L224 197 L225 199 L223 200 Z M404 197 L403 200 L395 201 L389 200 L391 197 L399 196 Z M286 197 L288 196 L291 199 L287 200 Z M103 197 L104 196 L118 197 L121 200 L120 201 L104 199 Z M297 195 L298 192 L301 193 L299 196 Z M212 193 L214 192 L215 195 L213 196 Z M167 191 L171 192 L169 197 L167 196 L166 193 Z M64 191 L66 190 L78 196 L84 197 L88 200 L119 205 L122 208 L123 212 L122 213 L95 213 L86 211 L74 204 L65 194 Z M449 190 L447 195 L440 203 L427 211 L406 214 L391 212 L391 208 L394 205 L425 200 L429 197 L440 194 L447 189 Z M75 189 L78 188 L79 190 L76 191 Z M436 188 L438 187 L439 189 L437 190 Z M401 186 L402 188 L399 190 L398 188 Z M233 189 L235 186 L237 186 L240 188 L248 189 L254 194 L259 194 L265 189 L269 189 L277 186 L280 190 L280 193 L272 201 L258 205 L242 202 L233 194 Z M332 189 L335 197 L335 208 L332 217 L325 221 L324 219 L327 215 L325 213 L310 236 L302 244 L287 250 L264 249 L258 243 L258 239 L266 233 L270 226 L273 226 L277 222 L292 223 L292 213 L302 207 L301 200 L310 188 L327 185 Z M251 186 L260 185 L261 187 L259 189 L254 189 Z M180 190 L186 185 L198 186 L204 189 L212 201 L211 207 L221 213 L221 223 L235 222 L243 226 L246 232 L254 238 L255 242 L245 250 L225 250 L209 243 L188 214 L186 214 L187 221 L181 218 L177 203 Z M109 186 L110 185 L113 186 L114 189 L112 190 Z M163 184 L166 185 L164 188 L161 187 Z M345 184 L348 183 L351 187 L350 188 L346 187 Z M334 184 L338 183 L339 186 L335 188 Z M342 181 L344 180 L345 182 L343 183 Z M180 180 L182 183 L175 190 L173 188 L173 184 L178 180 Z M170 179 L171 181 L168 183 L167 181 Z M59 178 L61 177 L64 181 L62 182 Z M103 177 L105 176 L106 178 L104 179 Z M209 176 L212 175 L213 177 L210 178 Z M302 174 L305 175 L303 180 L300 177 Z M286 172 L289 171 L291 174 L287 175 Z M281 171 L282 174 L274 183 L269 185 L268 181 L270 179 L275 178 L278 173 Z M222 172 L224 171 L226 174 L223 175 Z M91 172 L95 171 L96 173 L92 174 Z M230 171 L232 170 L239 179 L243 179 L245 181 L245 184 L243 185 L239 183 L232 176 Z M426 170 L425 172 L421 174 L417 173 L420 170 L423 169 Z M267 170 L267 172 L263 173 L257 182 L253 180 L250 173 L246 172 L247 169 L250 169 L254 172 L255 177 L257 177 L261 168 Z M297 164 L298 166 L294 169 L293 166 Z M276 165 L278 164 L279 166 L277 167 Z M215 165 L218 164 L220 168 L218 169 Z M439 161 L440 163 L436 165 L435 163 Z M413 162 L415 161 L416 163 L414 164 Z M97 162 L99 161 L100 163 L98 164 Z M73 162 L75 161 L79 165 L77 166 Z M441 159 L443 158 L444 160 L442 161 Z M64 155 L66 154 L69 158 L67 159 Z M53 155 L55 154 L69 166 L86 176 L101 182 L108 192 L104 193 L96 191 L72 181 L58 168 L55 163 Z M460 154 L456 166 L452 169 L452 171 L447 176 L441 179 L439 182 L414 192 L407 193 L405 192 L406 189 L412 182 L441 168 L458 153 Z M61 152 L63 151 L65 154 L63 155 Z M302 150 L303 152 L299 156 L298 153 L300 150 Z M283 150 L285 151 L288 157 L285 163 L283 163 L277 158 L280 152 Z M242 160 L245 157 L249 157 L253 150 L259 150 L263 154 L263 157 L268 157 L271 160 L271 164 L269 165 L266 161 L262 161 L256 167 L250 161 L247 161 L243 165 Z M230 150 L236 158 L230 161 L230 163 L228 164 L225 159 L225 156 Z M210 151 L213 150 L215 155 L213 156 Z M292 149 L295 150 L293 155 L291 154 Z M219 149 L222 151 L221 155 L218 152 Z M413 150 L412 156 L409 159 L404 173 L401 175 L396 185 L383 201 L379 203 L361 219 L353 223 L351 226 L334 233 L331 236 L323 238 L318 242 L313 240 L317 233 L325 227 L327 227 L329 224 L331 223 L339 224 L340 221 L346 215 L352 215 L355 210 L368 202 L376 195 L378 195 L395 176 L408 150 L410 148 Z M100 150 L102 148 L104 149 L117 175 L131 192 L139 197 L141 200 L143 200 L158 210 L161 215 L166 215 L168 218 L172 220 L174 224 L181 223 L184 226 L188 227 L197 235 L200 240 L197 241 L179 235 L168 228 L162 226 L140 209 L138 209 L127 198 L116 184 L113 177 L110 175 L101 156 Z M456 146 L457 148 L447 157 L446 155 Z M275 144 L281 143 L282 146 L279 148 Z M230 144 L237 143 L238 145 L231 146 Z M53 144 L55 143 L59 148 L57 149 Z M458 142 L460 141 L461 143 L459 144 Z M404 144 L404 151 L385 182 L376 191 L356 204 L355 199 L357 191 L355 184 L351 180 L352 175 L357 171 L364 169 L386 147 L390 141 L394 141 L398 146 L400 144 Z M268 142 L271 141 L272 143 L269 144 Z M109 144 L116 144 L118 141 L123 141 L148 169 L156 171 L160 174 L161 180 L156 188 L156 203 L139 193 L126 180 L114 161 L112 155 L110 154 L108 149 Z M408 141 L411 140 L412 142 L409 143 Z M101 141 L104 140 L105 142 L102 143 Z M51 141 L53 140 L54 142 L52 143 Z M206 139 L208 138 L215 140 L217 143 L212 146 Z M307 138 L306 141 L301 145 L295 143 L297 140 L302 140 L305 137 Z M389 135 L392 134 L394 137 L392 138 Z M118 137 L121 134 L124 135 L121 138 Z M103 135 L105 134 L106 136 L104 137 Z M408 135 L410 133 L413 134 L412 137 L409 137 Z M231 138 L232 136 L240 133 L254 133 L255 134 L273 133 L277 135 L276 138 L266 138 L263 140 L259 146 L254 146 L246 138 L238 138 L235 140 Z M106 134 L108 133 L109 135 L107 136 Z M110 133 L112 132 L113 134 L111 135 Z M442 128 L443 130 L440 132 L439 130 Z M255 128 L257 127 L258 129 L256 130 Z M227 127 L229 126 L230 128 L228 129 Z M68 127 L70 126 L71 128 L69 129 Z M276 123 L279 122 L280 124 L277 125 Z M233 123 L236 122 L237 124 L234 125 Z M254 123 L256 120 L259 122 L258 125 L255 125 Z M260 118 L262 117 L263 119 L261 120 Z M62 116 L69 124 L68 126 L61 118 Z M452 114 L453 115 L448 124 L444 127 L443 125 L450 115 Z M252 114 L254 113 L255 115 L253 116 Z M59 114 L61 113 L62 115 L60 116 Z M254 112 L257 110 L259 113 L255 114 Z M235 111 L237 110 L238 112 L236 113 Z M51 110 L53 111 L56 119 L63 128 L63 130 L90 155 L91 160 L94 164 L93 167 L73 155 L56 137 L50 122 L50 111 Z M462 109 L463 110 L462 125 L456 138 L437 157 L435 157 L426 164 L419 167 L418 165 L422 159 L423 154 L430 148 L432 148 L448 132 L448 130 L459 115 L460 110 Z M273 109 L275 108 L278 112 L275 113 Z M264 108 L266 107 L267 109 L265 110 Z M246 107 L247 109 L243 112 L242 109 Z M456 106 L457 109 L455 112 L453 112 L452 110 Z M57 106 L59 107 L61 111 L60 113 L58 113 L56 110 Z M54 103 L56 102 L57 104 L55 105 Z M53 100 L55 99 L56 101 L54 102 Z M264 95 L266 94 L267 96 L265 97 Z M245 95 L248 94 L249 97 L246 98 Z M255 92 L257 91 L258 93 L256 94 Z M459 91 L461 90 L462 92 L460 93 Z M383 87 L391 87 L394 90 L396 97 L401 102 L409 103 L414 107 L415 120 L413 124 L405 125 L404 129 L401 129 L398 127 L399 125 L398 121 L399 120 L402 121 L403 119 L396 113 L394 108 L394 101 L392 97 L385 90 L382 89 Z M130 87 L131 89 L124 93 L119 100 L119 106 L117 113 L113 117 L114 122 L108 125 L100 124 L97 118 L98 108 L102 104 L110 103 L114 100 L118 94 L118 91 L122 87 Z M245 87 L249 86 L250 88 L246 89 Z M255 83 L257 82 L258 84 L256 85 Z M438 80 L440 83 L438 99 L436 101 L431 115 L424 124 L424 126 L420 128 L419 127 L419 113 L426 104 L428 99 L430 98 L434 89 L435 83 Z M74 79 L77 81 L78 87 L83 99 L86 101 L86 103 L92 111 L92 117 L94 118 L94 124 L91 128 L89 127 L87 122 L84 120 L79 110 L77 102 L75 100 L73 89 Z M255 69 L257 69 L259 72 L257 76 L254 75 Z M254 56 L258 55 L259 58 L255 59 Z M437 36 L439 42 L450 57 L454 70 L456 72 L456 88 L454 90 L454 94 L449 109 L445 113 L445 115 L443 116 L439 124 L427 136 L426 135 L427 128 L433 121 L440 107 L443 95 L442 68 L433 45 L433 37 Z M256 36 L258 37 L262 48 L259 49 L257 46 L255 46 L255 49 L252 50 L251 44 Z M76 36 L78 36 L80 39 L80 45 L78 52 L73 60 L70 71 L69 90 L73 108 L81 123 L86 128 L87 134 L86 136 L77 128 L69 117 L69 115 L66 113 L60 99 L56 84 L57 71 L59 69 L63 57 L74 42 Z"/></svg>
