<svg xmlns="http://www.w3.org/2000/svg" width="512" height="512" viewBox="0 0 512 512" aria-hidden="true" focusable="false"><path fill="currentColor" fill-rule="evenodd" clip-rule="evenodd" d="M113 394 L114 397 L127 408 L139 412 L159 411 L170 407 L171 405 L180 399 L179 397 L175 402 L161 408 L145 410 L133 408 L123 403 L115 395 L115 393 Z M202 288 L202 291 L204 292 L208 291 L208 289 Z M261 261 L261 263 L265 267 L270 268 L270 266 L266 264 L265 261 Z M253 248 L253 250 L256 251 L255 254 L258 255 L257 257 L258 260 L261 258 L261 256 L258 255 L260 252 L258 250 L258 247 Z M251 235 L251 237 L253 238 L251 245 L257 244 L255 240 L256 235 Z M250 226 L251 232 L255 232 L256 226 L255 225 Z M250 219 L250 221 L257 221 L257 219 L255 218 Z M250 212 L251 214 L257 213 L255 211 Z M207 209 L205 209 L203 214 L195 221 L195 223 L198 222 L204 216 Z M250 205 L250 206 L257 206 L256 204 Z M251 197 L251 199 L258 199 L258 197 Z M248 192 L248 194 L251 193 L261 194 L261 192 L259 191 Z M254 169 L252 174 L250 175 L250 178 L253 180 L254 183 L256 183 L260 175 L256 172 L256 169 Z M294 169 L292 169 L291 167 L283 166 L283 169 L277 173 L275 181 L277 182 L285 178 L288 179 Z M216 169 L220 178 L223 180 L228 179 L229 181 L233 182 L235 181 L231 172 L226 169 L226 166 L221 166 Z M295 159 L288 154 L282 154 L279 155 L274 160 L272 165 L274 166 L275 163 L282 158 L289 158 L293 160 Z M215 159 L217 160 L220 158 L226 158 L229 159 L236 167 L238 166 L234 158 L228 154 L222 154 Z M256 135 L254 135 L253 143 L251 146 L252 151 L249 152 L247 150 L250 143 L249 138 L247 138 L247 142 L244 148 L245 153 L247 155 L250 155 L251 158 L255 162 L259 155 L262 155 L265 153 L264 143 L262 140 L260 140 L260 144 L258 145 L256 143 L257 141 Z M253 156 L255 155 L256 157 L254 158 Z M260 146 L262 147 L261 152 L258 151 Z M254 17 L246 42 L231 69 L226 69 L227 78 L215 82 L201 117 L188 107 L191 144 L172 148 L151 177 L150 160 L140 159 L146 141 L141 118 L128 137 L123 161 L112 154 L115 141 L106 144 L96 159 L96 174 L104 187 L110 174 L121 176 L115 187 L117 195 L109 199 L93 225 L98 267 L112 303 L125 317 L126 335 L139 349 L119 354 L104 366 L98 388 L105 409 L99 408 L87 393 L86 414 L90 430 L101 438 L102 447 L111 446 L128 461 L143 462 L163 476 L188 473 L206 487 L242 487 L258 496 L271 486 L301 493 L312 488 L314 474 L332 480 L348 478 L369 462 L389 459 L401 446 L409 449 L412 438 L423 429 L427 408 L425 393 L415 407 L407 409 L413 393 L411 372 L398 357 L379 351 L389 326 L381 318 L394 304 L405 270 L410 268 L406 287 L411 294 L423 285 L420 258 L412 244 L414 223 L390 193 L396 154 L387 143 L376 141 L364 149 L360 158 L363 181 L377 199 L373 230 L378 247 L366 270 L348 238 L321 219 L339 188 L357 177 L335 146 L318 143 L322 108 L309 117 L295 83 L282 77 L283 69 L278 68 Z M252 485 L253 484 L255 486 L260 485 L261 489 L258 492 L255 492 L252 489 Z M262 484 L267 483 L268 485 L264 487 Z M249 480 L251 484 L247 488 L245 486 L245 482 Z M296 476 L298 475 L299 477 L297 478 Z M195 475 L201 473 L211 479 L230 481 L241 479 L242 481 L232 486 L219 486 L199 480 L198 478 L195 477 Z M226 478 L228 474 L231 472 L233 472 L234 475 L236 474 L238 475 L235 478 L230 479 Z M255 471 L257 470 L258 472 L256 473 Z M246 469 L248 468 L249 470 L247 471 Z M360 463 L353 470 L349 470 L348 467 L343 469 L336 469 L334 467 L335 465 L339 463 L348 464 L353 462 Z M327 463 L329 462 L330 464 L328 465 Z M248 463 L251 462 L252 464 L249 465 Z M205 464 L202 469 L198 468 L196 472 L191 472 L188 469 L189 467 L193 467 L201 462 Z M312 458 L314 457 L315 459 L313 460 Z M173 458 L173 461 L169 464 L164 466 L158 466 L157 468 L155 468 L151 464 L152 462 L163 462 L165 457 Z M213 453 L214 458 L207 462 L205 459 Z M327 453 L328 452 L335 453 L338 456 L337 459 L328 456 Z M167 452 L169 451 L170 453 L168 454 Z M180 451 L182 450 L183 452 L181 453 Z M151 451 L152 450 L159 451 L164 458 L163 459 L157 458 Z M364 449 L362 453 L354 459 L345 461 L342 459 L343 456 L348 456 L353 454 L353 453 L349 453 L348 452 L349 450 L357 450 L362 448 Z M297 450 L306 448 L309 451 L309 456 L304 457 Z M246 448 L248 459 L245 462 L242 461 L244 449 Z M286 447 L289 446 L301 458 L301 462 L307 466 L314 467 L315 464 L318 464 L332 471 L337 472 L342 471 L344 474 L342 476 L330 476 L318 471 L307 471 L296 463 L286 449 Z M207 446 L202 457 L195 463 L186 465 L178 471 L172 473 L163 472 L159 470 L160 468 L166 468 L174 465 L182 458 L185 458 L186 461 L188 461 L198 455 L203 450 L202 447 L204 445 Z M117 445 L121 444 L123 447 L126 447 L130 452 L140 456 L148 455 L149 457 L146 459 L129 458 L118 450 Z M373 443 L374 445 L371 447 L370 445 Z M211 444 L213 443 L214 446 L212 447 Z M190 443 L194 446 L195 450 L192 452 L187 452 L186 450 L190 449 L189 445 Z M396 446 L396 448 L386 457 L380 459 L364 459 L363 458 L365 454 L368 456 L373 456 L384 451 L385 448 L387 446 L390 446 L392 442 Z M206 441 L208 440 L209 442 L207 443 Z M409 441 L408 443 L405 442 L397 443 L396 438 L399 437 L403 439 L403 437 L405 436 Z M380 436 L384 444 L378 451 L374 453 L368 453 L367 452 L368 449 L377 448 L379 446 L379 442 L377 441 L377 438 Z M204 436 L205 438 L203 442 L200 445 L198 445 L196 443 L195 438 L197 437 L198 439 L200 439 L202 436 Z M133 436 L137 439 L137 441 L133 444 L133 446 L137 449 L144 448 L146 450 L145 453 L136 452 L131 448 L129 445 L129 441 L132 439 Z M104 442 L104 440 L108 436 L111 438 L117 439 L117 441 L114 444 Z M293 435 L295 436 L296 441 L300 442 L299 445 L293 444 L292 440 Z M123 436 L127 435 L128 439 L125 441 Z M387 434 L390 435 L390 438 L388 441 L384 438 Z M257 439 L264 434 L266 435 L266 438 L273 449 L285 458 L290 470 L295 475 L294 479 L298 482 L302 482 L305 484 L305 486 L302 489 L295 489 L291 486 L289 488 L281 486 L266 468 L254 460 L251 455 L251 446 Z M253 435 L256 430 L260 431 L259 434 L255 436 Z M122 430 L125 429 L126 431 L123 432 Z M389 428 L391 429 L390 432 L387 431 Z M291 427 L295 432 L287 436 L286 433 L289 432 L289 428 Z M409 427 L408 429 L402 429 L398 431 L396 434 L393 433 L395 429 L401 425 L406 425 Z M208 428 L209 425 L212 426 L210 429 Z M104 427 L107 425 L112 425 L118 429 L119 434 L117 435 L113 430 L105 429 Z M287 424 L288 427 L285 429 L284 427 Z M92 423 L97 422 L99 428 L105 431 L106 433 L105 434 L97 433 L94 430 Z M267 421 L269 420 L270 422 L268 423 Z M279 419 L281 420 L281 428 L284 435 L282 439 L285 440 L284 444 L278 438 L275 429 L275 423 Z M206 420 L212 418 L216 419 L213 425 L211 424 L211 422 L207 423 Z M289 413 L291 414 L292 421 L291 423 L286 421 L286 417 Z M278 413 L282 412 L283 414 L279 415 Z M245 411 L249 413 L253 418 L252 429 L242 444 L237 464 L232 469 L225 472 L223 476 L217 477 L216 475 L221 472 L221 464 L218 463 L218 459 L222 449 L222 437 L230 425 L232 410 L235 409 Z M216 408 L217 412 L212 413 L210 415 L209 412 L213 410 L214 408 Z M269 406 L276 414 L276 417 L274 419 L272 418 L268 409 Z M262 404 L265 406 L265 410 L267 413 L266 417 L263 416 L261 407 Z M224 404 L226 410 L225 417 L221 428 L216 433 L215 431 L222 413 L222 405 Z M421 403 L423 406 L423 415 L417 418 L417 421 L420 422 L418 431 L415 433 L408 434 L407 432 L410 431 L414 427 L414 420 L408 420 L407 417 L411 412 L415 411 L418 413 L419 404 Z M92 403 L94 404 L94 412 L95 413 L102 412 L105 415 L106 418 L105 421 L102 421 L101 417 L99 417 L99 421 L97 422 L96 419 L90 415 L89 409 Z M256 402 L257 405 L253 408 L252 406 Z M303 401 L305 402 L306 418 L312 430 L322 441 L324 441 L327 444 L337 449 L343 451 L342 453 L328 450 L324 446 L321 445 L320 447 L325 449 L325 452 L322 453 L307 439 L299 425 L301 423 L304 429 L306 429 L301 415 L301 406 Z M275 402 L277 401 L282 405 L286 405 L289 409 L287 411 L283 411 L275 405 Z M211 404 L212 401 L217 402 L215 405 Z M239 403 L240 400 L243 401 L241 404 Z M229 397 L232 398 L230 402 L227 400 Z M258 396 L261 397 L261 400 L259 402 L256 401 Z M252 397 L254 396 L255 398 L253 399 Z M268 395 L270 396 L270 402 L265 403 L264 401 L267 400 Z M245 396 L246 395 L249 396 L251 401 L247 402 L245 399 Z M265 393 L267 392 L268 394 L266 395 Z M242 392 L243 394 L239 395 L239 401 L237 402 L236 394 L238 392 Z M202 392 L205 394 L204 403 L199 402 Z M226 390 L227 392 L223 394 L223 397 L219 398 L218 393 Z M251 390 L254 389 L255 391 L252 392 Z M210 387 L212 386 L213 388 L211 389 Z M303 386 L299 390 L296 390 L293 392 L288 391 L291 388 L299 387 L301 385 Z M239 384 L241 383 L242 385 L240 386 Z M201 383 L204 382 L208 386 L205 387 Z M275 381 L276 383 L273 388 L269 390 L268 388 L271 385 L271 382 Z M259 382 L261 381 L262 384 L260 385 Z M231 382 L234 381 L236 386 L239 389 L238 390 L235 389 L232 386 Z M278 383 L279 379 L288 380 L285 383 L281 384 Z M253 378 L257 382 L255 386 L250 385 L250 381 Z M218 378 L219 377 L225 378 L227 382 L224 383 L222 381 L219 381 Z M257 377 L259 376 L260 378 L258 379 Z M213 377 L215 376 L216 378 L214 379 Z M296 378 L297 375 L301 376 L298 379 Z M195 376 L197 375 L202 382 L200 383 L195 378 Z M301 375 L303 374 L304 376 L302 377 Z M279 375 L281 374 L282 376 L280 377 Z M250 374 L251 376 L247 379 L246 377 Z M207 375 L209 374 L210 376 L208 377 Z M286 374 L288 373 L289 375 L287 376 Z M222 374 L225 373 L226 375 L223 376 Z M312 373 L314 372 L315 374 L313 375 Z M290 373 L292 372 L293 374 L291 375 Z M193 373 L195 372 L196 375 L194 376 Z M271 371 L274 372 L273 379 L271 378 L271 376 L268 375 Z M252 372 L254 371 L255 373 L253 374 Z M202 372 L204 371 L205 373 L203 374 Z M232 371 L233 370 L237 371 L239 376 L242 376 L243 378 L240 380 L236 377 L236 379 L234 380 L232 378 Z M338 368 L340 372 L336 374 L334 371 Z M191 367 L194 370 L193 373 L191 372 L190 369 Z M320 365 L321 367 L316 371 L315 369 Z M246 365 L247 367 L242 373 L241 369 L244 365 Z M188 365 L190 364 L191 367 L189 368 Z M163 364 L166 363 L167 365 L164 366 Z M344 364 L345 362 L348 361 L354 362 L353 364 L347 367 Z M283 360 L284 363 L280 365 L279 363 Z M341 360 L329 371 L316 388 L313 389 L306 396 L304 396 L297 403 L292 404 L286 403 L280 399 L276 394 L277 391 L280 391 L284 393 L286 397 L295 396 L307 387 L307 385 L304 384 L307 380 L309 381 L309 383 L311 383 L332 362 L337 359 Z M253 355 L258 360 L258 366 L261 365 L264 366 L265 368 L264 373 L262 372 L262 369 L258 370 L256 368 L254 362 L252 362 L251 368 L249 370 L247 369 L249 365 L248 361 Z M398 361 L408 375 L410 388 L403 409 L391 423 L368 442 L355 447 L336 445 L317 431 L308 413 L308 401 L312 395 L320 423 L335 435 L359 439 L335 431 L361 433 L378 426 L351 431 L336 428 L333 431 L318 414 L320 412 L331 422 L337 423 L322 411 L317 402 L317 393 L320 393 L325 405 L341 418 L357 422 L374 420 L395 405 L402 388 L387 410 L365 419 L350 418 L334 411 L325 401 L322 390 L329 382 L346 373 L372 371 L355 366 L363 364 L365 359 L374 354 L386 355 Z M336 355 L335 357 L330 359 L323 365 L321 364 L322 361 L326 359 L328 356 L333 354 Z M160 354 L163 353 L171 357 L185 372 L188 371 L193 379 L189 381 L181 376 L174 367 Z M128 354 L153 355 L163 362 L158 364 L145 360 L148 365 L139 365 L132 370 L158 369 L187 384 L186 391 L192 388 L184 407 L172 417 L162 420 L142 420 L119 409 L136 421 L161 423 L176 417 L187 407 L194 390 L197 390 L197 400 L192 411 L179 425 L158 432 L136 427 L143 432 L161 436 L153 440 L168 441 L177 437 L172 434 L185 424 L200 403 L203 409 L200 418 L182 441 L170 448 L150 446 L113 414 L104 399 L102 381 L109 365 Z M289 352 L291 351 L292 353 L290 354 Z M173 352 L175 351 L183 355 L187 359 L189 364 L187 365 L181 358 L174 354 Z M191 348 L196 347 L197 349 L192 350 Z M201 346 L204 345 L205 347 L202 348 Z M205 344 L207 343 L208 345 L206 346 Z M250 343 L256 342 L257 344 L255 346 L252 346 Z M337 341 L339 342 L339 347 L341 351 L340 353 L336 349 Z M329 341 L331 340 L332 343 L330 344 Z M381 339 L382 342 L379 345 L375 346 L374 343 L377 340 Z M342 341 L343 340 L346 341 L347 348 L350 353 L352 353 L349 344 L350 339 L355 340 L356 348 L360 353 L362 352 L359 348 L358 344 L359 340 L362 340 L365 346 L368 348 L370 348 L371 345 L374 345 L375 349 L366 356 L358 358 L355 357 L351 358 L342 355 L344 353 L342 348 Z M259 339 L261 338 L262 340 L260 341 Z M245 338 L247 337 L248 340 L246 341 Z M219 334 L220 336 L216 340 L214 340 L213 338 Z M366 333 L368 334 L367 338 L365 337 Z M182 334 L182 338 L178 342 L179 344 L175 348 L169 348 L167 350 L161 350 L159 348 L160 346 L162 346 L168 341 L176 338 L180 333 Z M373 332 L374 336 L370 339 L369 338 L370 334 Z M336 333 L339 332 L340 334 L337 335 Z M158 333 L160 332 L161 334 L159 335 Z M380 331 L381 333 L378 335 L377 333 Z M330 332 L332 331 L334 334 L332 335 Z M252 350 L251 353 L238 368 L225 365 L227 368 L226 370 L211 366 L196 356 L198 353 L201 353 L211 348 L232 329 L234 330 L235 336 L241 339 Z M267 329 L270 328 L271 331 L268 332 Z M238 328 L240 329 L240 332 L243 335 L242 337 L237 332 Z M253 327 L256 329 L254 332 L251 330 Z M226 327 L227 330 L223 333 L222 330 Z M300 325 L301 326 L300 335 L298 342 L296 343 L294 341 L295 326 Z M262 322 L265 321 L266 323 L263 324 Z M241 322 L244 321 L245 323 L242 324 Z M366 321 L370 317 L375 317 L378 319 L379 323 L376 325 L367 325 Z M349 322 L351 318 L358 317 L363 320 L363 325 L362 326 L350 326 Z M332 322 L336 317 L343 317 L346 321 L346 325 L345 326 L335 325 Z M235 317 L236 318 L235 323 L233 324 L231 320 Z M291 316 L292 317 L292 336 L287 350 L277 361 L267 365 L260 358 L255 350 L264 342 L265 339 L268 339 L272 336 L274 328 L282 318 Z M273 316 L276 317 L274 324 L272 323 Z M231 312 L233 315 L228 317 L227 315 Z M364 307 L370 310 L370 313 L365 317 L358 313 L358 311 Z M342 311 L344 308 L348 307 L354 311 L354 314 L348 317 L343 314 Z M225 307 L228 306 L230 309 L226 311 Z M319 300 L320 308 L325 319 L325 322 L322 325 L327 331 L327 339 L323 350 L309 362 L301 366 L282 371 L281 369 L291 361 L300 346 L303 336 L306 314 L310 305 Z M172 301 L174 300 L175 303 L173 304 Z M225 299 L228 300 L226 304 L223 303 Z M354 298 L357 298 L362 302 L362 305 L357 309 L350 305 L351 301 Z M278 298 L281 297 L282 299 L279 300 Z M252 297 L255 296 L256 298 L253 299 Z M362 294 L366 295 L369 302 L368 305 L365 304 L364 300 L361 297 Z M358 293 L357 295 L350 297 L347 304 L340 308 L338 314 L333 316 L331 315 L328 307 L333 301 L337 298 L352 292 Z M224 291 L226 292 L225 296 L223 295 Z M334 289 L335 291 L332 293 L331 291 Z M148 289 L154 291 L153 304 L151 306 L141 307 L135 312 L135 314 L139 311 L146 310 L147 311 L146 322 L149 330 L153 335 L162 340 L161 343 L150 346 L136 343 L132 339 L128 330 L128 318 L133 303 L140 291 Z M336 287 L339 286 L340 288 L337 289 Z M241 287 L243 286 L244 288 L242 289 Z M223 285 L226 286 L224 289 L221 288 Z M235 282 L237 281 L238 283 L236 284 Z M221 281 L223 280 L224 282 L222 283 Z M167 279 L171 280 L170 287 L166 286 Z M227 279 L229 278 L232 281 L232 284 L236 288 L239 289 L241 294 L245 298 L248 298 L253 303 L255 303 L256 301 L263 297 L265 307 L270 314 L266 318 L257 319 L255 317 L252 317 L250 319 L247 319 L244 317 L240 318 L231 306 Z M182 278 L186 279 L185 286 L181 285 Z M412 278 L415 277 L416 279 L413 280 Z M243 276 L246 279 L245 282 L243 281 L242 278 Z M174 276 L177 277 L179 280 L179 283 L177 286 L173 285 Z M415 276 L419 275 L420 277 L416 278 Z M233 276 L235 275 L236 278 L234 279 Z M349 275 L351 274 L352 276 L350 277 Z M362 273 L364 274 L365 277 L364 279 L361 277 Z M145 270 L146 273 L143 276 L142 273 Z M182 269 L185 270 L184 276 L181 275 Z M313 268 L314 270 L309 275 L308 273 L310 269 Z M392 267 L397 266 L398 268 L393 269 Z M351 267 L355 266 L356 268 L352 269 Z M226 267 L228 266 L229 268 L227 269 Z M163 266 L165 267 L165 272 L163 279 L164 285 L162 291 L179 287 L186 289 L186 294 L184 297 L178 300 L175 295 L173 295 L172 298 L167 302 L174 310 L175 316 L178 305 L184 299 L188 301 L187 298 L190 294 L190 283 L192 281 L195 282 L195 300 L192 312 L184 322 L176 324 L174 328 L166 327 L164 325 L164 322 L161 321 L157 312 L156 300 L158 282 Z M109 267 L112 266 L113 268 L110 269 Z M387 266 L389 265 L390 267 L388 268 Z M375 265 L390 272 L401 273 L398 287 L393 299 L388 307 L381 314 L379 314 L374 307 L369 294 L370 288 L368 285 L368 275 Z M229 266 L231 265 L232 267 L230 268 Z M131 265 L139 275 L139 278 L136 284 L136 291 L127 309 L127 312 L125 313 L118 306 L113 298 L107 281 L106 273 L117 272 Z M115 266 L118 265 L119 267 L116 268 Z M103 266 L105 265 L106 267 L104 268 Z M382 264 L384 263 L385 265 L383 266 Z M297 262 L298 263 L297 267 L294 268 L292 264 Z M378 261 L380 260 L381 262 L379 263 Z M402 260 L404 259 L405 261 L403 262 Z M219 260 L221 259 L225 261 L227 264 L224 266 L221 266 L219 264 Z M182 259 L184 260 L185 263 L184 267 L181 266 Z M115 260 L117 259 L118 261 L116 262 Z M354 259 L356 258 L358 262 L355 263 Z M169 258 L172 260 L172 264 L170 267 L171 276 L167 277 L166 276 L167 263 Z M150 259 L152 258 L153 261 L151 262 Z M383 258 L385 257 L386 259 L384 260 Z M297 258 L299 257 L300 259 L298 260 Z M411 255 L413 254 L414 256 L412 257 Z M226 255 L228 254 L230 258 L227 259 Z M293 253 L295 256 L294 259 L290 260 L287 263 L286 262 L288 256 L292 257 L290 254 Z M175 252 L177 253 L179 257 L179 261 L177 265 L179 271 L177 275 L174 274 L174 253 Z M214 251 L219 256 L216 260 L212 258 Z M220 251 L223 250 L224 252 L221 253 Z M312 250 L314 249 L315 251 L313 252 Z M282 250 L285 249 L286 251 L283 252 Z M313 247 L315 246 L316 248 L314 249 Z M281 247 L283 246 L284 248 L282 249 Z M105 247 L109 246 L110 249 L107 251 Z M298 245 L300 244 L301 246 L299 247 Z M288 245 L290 244 L291 247 L289 248 Z M216 245 L218 244 L219 246 L217 247 Z M209 245 L211 244 L212 246 L210 247 Z M290 243 L292 242 L293 244 L291 245 Z M298 240 L300 239 L301 241 L299 242 Z M208 239 L210 240 L210 244 L206 245 L205 243 L207 242 Z M203 237 L205 236 L206 238 L204 239 Z M396 234 L398 235 L400 245 L399 249 L396 248 L395 239 Z M323 234 L324 235 L322 251 L319 254 L318 250 L320 246 L321 235 Z M301 234 L304 236 L303 240 L301 239 L300 236 Z M112 233 L113 234 L112 239 L109 240 L108 237 Z M228 231 L232 233 L233 243 L232 246 L230 246 L222 236 Z M277 230 L285 238 L280 244 L275 247 L273 245 L274 233 Z M310 229 L313 232 L313 241 L310 252 L313 252 L314 254 L306 270 L304 272 L300 272 L299 269 L305 254 L308 241 L307 233 L308 230 Z M330 228 L340 235 L347 243 L352 253 L351 261 L349 262 L348 270 L345 271 L345 275 L330 283 L328 282 L327 267 L325 267 L325 280 L322 291 L317 298 L308 303 L303 315 L302 324 L300 325 L299 310 L304 303 L306 294 L309 293 L307 289 L321 264 L327 243 L327 229 Z M184 226 L186 227 L185 234 L200 231 L202 246 L205 248 L210 261 L215 264 L220 301 L226 320 L218 330 L196 344 L186 342 L186 324 L193 317 L199 299 L213 301 L217 298 L204 298 L198 295 L198 280 L190 277 L187 258 L179 250 L174 249 L171 254 L169 253 L163 263 L159 264 L156 260 L156 253 L165 239 Z M97 226 L100 229 L99 233 L103 232 L105 234 L105 238 L103 240 L101 247 L99 246 L96 235 Z M280 228 L283 225 L285 225 L289 232 L285 233 Z M206 224 L208 225 L207 229 L205 228 Z M301 223 L303 224 L303 227 L305 229 L304 231 L300 230 Z M404 221 L410 222 L411 226 L410 236 L407 235 L408 226 L403 228 L400 227 L400 225 Z M308 222 L311 221 L314 225 L311 226 Z M99 221 L104 222 L107 226 L107 229 L105 230 L103 227 L97 225 Z M228 218 L231 222 L231 225 L227 229 L220 232 L219 230 L224 220 Z M282 217 L284 221 L277 226 L276 224 L278 220 Z M407 216 L406 218 L402 219 L397 225 L394 224 L394 221 L400 214 L405 214 Z M101 215 L107 214 L113 221 L113 224 L110 225 L104 218 L101 217 Z M399 206 L402 210 L398 212 L393 218 L390 217 L391 212 L396 207 Z M108 206 L111 207 L116 212 L118 218 L117 220 L106 210 Z M380 204 L384 206 L386 211 L385 225 L391 231 L392 234 L391 244 L393 245 L394 250 L397 253 L399 253 L403 249 L405 250 L400 258 L393 258 L386 255 L385 253 L387 251 L384 250 L379 243 L377 235 L377 222 L380 212 L379 207 Z M126 204 L127 205 L126 209 L127 217 L130 222 L130 235 L128 237 L127 244 L121 250 L123 252 L121 255 L114 258 L106 258 L105 256 L113 250 L113 247 L116 244 L115 240 L116 233 L118 228 L122 225 L121 212 L123 206 Z M111 201 L116 200 L118 203 L114 206 L111 204 Z M394 199 L396 203 L391 205 L390 202 Z M381 199 L383 198 L384 200 L382 201 Z M378 195 L380 194 L381 196 L379 197 Z M121 194 L124 195 L123 200 L120 199 Z M375 192 L377 191 L378 193 L376 194 Z M119 189 L121 188 L124 189 L125 191 L122 192 Z M367 179 L369 178 L370 181 L368 182 Z M134 179 L136 178 L137 180 L135 181 Z M151 177 L154 181 L161 182 L171 189 L175 201 L187 212 L189 220 L176 226 L161 238 L147 258 L147 262 L139 270 L133 262 L134 256 L129 247 L133 226 L129 211 L130 203 L127 198 L132 194 L132 183 L138 187 L141 182 L148 181 L148 178 Z M141 177 L143 176 L144 178 L142 179 Z M143 175 L145 174 L146 176 L144 177 Z M136 169 L137 171 L134 174 L133 172 Z M129 167 L132 169 L130 173 L127 172 L127 169 Z M123 165 L125 164 L126 167 L124 168 Z M116 162 L118 161 L119 164 L117 165 Z M329 158 L336 163 L345 179 L335 188 L331 200 L320 210 L317 217 L317 224 L315 225 L314 220 L306 215 L304 208 L302 208 L302 210 L309 221 L307 222 L302 217 L298 205 L302 193 L305 194 L306 200 L308 200 L308 195 L304 188 L307 183 L310 184 L313 187 L315 193 L317 193 L314 184 L308 179 L310 173 L318 174 L325 181 L321 173 L312 169 L313 167 L317 167 L314 162 L323 161 L332 167 L332 165 L326 160 Z M181 158 L184 160 L180 163 L180 165 L190 160 L195 163 L194 167 L197 167 L198 169 L190 172 L188 176 L194 173 L200 173 L201 179 L195 185 L193 192 L195 192 L196 188 L203 183 L205 188 L201 196 L201 201 L203 201 L204 194 L207 192 L211 205 L207 217 L194 228 L191 227 L192 216 L190 211 L179 201 L173 186 L164 179 L169 173 L173 164 Z M131 158 L135 162 L136 166 L135 168 L133 167 L131 163 L129 164 L127 163 Z M323 158 L325 157 L326 159 L324 160 Z M184 158 L186 157 L187 159 L185 160 Z M365 153 L367 152 L368 154 L366 155 Z M137 152 L139 151 L140 153 L138 154 Z M378 150 L384 152 L388 158 L388 167 L383 182 L383 187 L381 190 L379 189 L373 180 L369 169 L370 157 L375 151 Z M108 148 L109 155 L112 160 L105 163 L109 171 L102 178 L99 172 L99 161 L104 151 Z M309 155 L314 150 L320 147 L331 148 L340 155 L348 173 L346 174 L343 171 L340 164 L335 158 L327 154 L320 155 L312 160 L309 159 Z M201 155 L200 160 L197 160 L187 154 L179 155 L170 163 L165 173 L163 175 L161 174 L169 156 L178 148 L189 147 L196 150 Z M382 146 L384 145 L385 147 L383 148 Z M316 131 L318 132 L317 136 L315 135 Z M303 132 L306 131 L307 133 L304 134 Z M203 132 L205 131 L207 134 L204 135 Z M193 131 L196 132 L194 137 L192 136 Z M140 128 L141 129 L140 138 L142 138 L143 140 L141 142 L135 140 L132 141 L131 140 L133 135 L136 136 L137 130 Z M233 125 L254 129 L266 124 L283 127 L293 135 L301 157 L296 204 L288 214 L278 199 L283 212 L277 216 L274 208 L270 238 L274 257 L294 272 L302 284 L302 300 L287 314 L275 313 L267 303 L274 290 L284 294 L283 298 L278 294 L275 301 L286 303 L291 296 L287 286 L252 274 L239 256 L233 211 L231 216 L226 212 L230 199 L221 214 L213 204 L209 156 L217 135 Z M198 125 L200 124 L201 126 L199 127 Z M319 120 L319 123 L317 126 L312 127 L309 126 L312 122 L315 123 L317 119 Z M214 120 L216 119 L217 121 L215 122 Z M293 118 L295 119 L294 122 L291 121 Z M192 118 L194 119 L195 123 L194 126 L191 123 Z M256 116 L258 115 L259 117 L257 118 Z M297 115 L299 114 L300 116 L298 117 Z M286 115 L288 114 L290 117 L287 118 Z M210 115 L212 114 L213 116 L211 117 Z M243 113 L245 112 L246 114 L244 115 Z M292 112 L294 111 L295 113 L293 114 Z M274 111 L276 110 L277 113 L275 114 Z M218 110 L220 109 L221 111 L219 112 Z M300 106 L302 105 L303 107 L301 108 Z M254 105 L258 107 L257 113 L252 112 L252 108 Z M222 105 L225 107 L224 110 L220 109 Z M207 106 L209 105 L210 107 L208 108 Z M270 105 L276 104 L277 107 L273 109 L270 107 Z M233 104 L240 105 L237 108 L236 115 L232 113 Z M264 104 L266 103 L267 106 L265 107 Z M245 102 L246 103 L245 111 L243 112 L242 106 L243 103 Z M251 101 L253 100 L254 102 L252 103 Z M218 100 L219 102 L217 106 L215 107 L212 103 Z M290 100 L292 99 L296 101 L298 104 L295 107 L293 107 Z M235 99 L237 98 L238 100 L236 101 Z M246 98 L248 97 L249 99 L247 100 Z M260 96 L262 95 L264 99 L262 100 Z M278 95 L280 94 L286 96 L288 99 L284 103 L281 103 L278 98 Z M232 95 L232 99 L229 103 L226 103 L221 99 L224 96 L230 94 Z M268 92 L270 91 L272 94 L269 95 Z M239 92 L241 91 L242 94 L240 95 Z M256 91 L258 90 L260 94 L258 95 Z M253 90 L254 92 L251 95 L250 92 Z M262 88 L266 87 L267 89 L263 90 Z M255 86 L257 87 L256 90 L253 89 Z M242 87 L244 86 L245 88 L243 89 Z M259 84 L262 81 L264 82 L262 85 Z M246 82 L249 79 L252 83 L247 84 Z M265 76 L269 75 L280 79 L288 86 L288 88 L284 89 L271 85 Z M245 76 L239 85 L226 89 L222 88 L222 86 L230 79 L241 75 Z M256 75 L258 74 L259 77 L257 78 Z M256 70 L258 73 L254 74 L254 77 L252 78 L251 74 L254 70 Z M260 68 L261 67 L270 68 L271 71 L270 72 L261 71 Z M239 71 L240 68 L245 67 L250 68 L249 71 L244 72 Z M272 65 L274 64 L275 66 L273 67 Z M256 59 L257 58 L267 59 L270 61 L270 63 L268 65 L258 64 Z M254 59 L252 64 L238 66 L236 65 L241 60 L248 58 Z M249 35 L251 34 L252 36 L250 37 Z M253 28 L256 27 L258 30 L254 31 Z"/></svg>
