<svg xmlns="http://www.w3.org/2000/svg" width="512" height="512" viewBox="0 0 512 512" aria-hidden="true" focusable="false"><path fill="currentColor" fill-rule="evenodd" clip-rule="evenodd" d="M274 367 L272 367 L269 371 L264 370 L265 377 L263 378 L262 376 L260 376 L260 379 L256 385 L250 380 L250 376 L248 376 L247 378 L244 376 L245 371 L242 371 L239 368 L237 369 L242 374 L242 377 L253 387 L255 391 L258 386 L267 378 L268 374 L272 371 Z M387 244 L387 246 L393 248 L393 246 Z M245 195 L245 197 L251 199 L251 197 Z M270 195 L268 194 L264 197 L261 197 L261 199 L264 199 Z M271 185 L269 184 L268 186 L260 191 L253 191 L247 187 L246 189 L253 193 L259 193 L267 189 Z M66 174 L66 176 L72 176 L72 174 Z M463 98 L461 97 L459 101 L461 101 Z M471 85 L469 85 L466 92 L468 92 Z M40 82 L44 91 L46 91 L42 82 Z M477 28 L463 75 L436 106 L427 106 L409 120 L394 98 L371 97 L366 108 L374 105 L386 115 L388 123 L378 147 L351 174 L305 183 L307 171 L297 174 L309 138 L309 114 L295 126 L294 119 L272 95 L274 86 L267 74 L256 17 L247 74 L240 85 L242 94 L225 110 L219 127 L204 114 L204 138 L218 170 L217 174 L206 171 L208 184 L195 183 L187 176 L161 174 L135 149 L124 128 L125 118 L138 105 L146 108 L142 97 L120 97 L103 120 L72 102 L48 73 L32 30 L25 48 L25 72 L19 78 L25 114 L19 116 L20 128 L30 148 L25 149 L26 157 L49 194 L49 201 L64 213 L63 219 L77 230 L79 238 L93 245 L97 253 L110 257 L112 265 L158 284 L140 298 L135 310 L136 328 L149 348 L184 370 L184 376 L170 386 L159 385 L143 374 L126 381 L124 408 L128 412 L134 405 L133 416 L138 423 L140 414 L151 406 L181 412 L177 426 L158 428 L161 437 L191 453 L209 451 L203 464 L224 462 L237 481 L240 474 L256 496 L268 475 L273 481 L286 463 L307 464 L301 451 L323 452 L349 436 L352 428 L333 426 L327 419 L329 412 L359 406 L370 415 L369 423 L375 420 L378 407 L383 412 L386 401 L379 390 L386 393 L387 387 L380 378 L363 375 L351 385 L340 386 L326 376 L326 370 L358 351 L374 330 L374 304 L352 284 L386 273 L385 268 L402 264 L402 258 L431 240 L450 219 L449 213 L463 202 L462 196 L486 159 L488 149 L483 148 L493 127 L493 115 L487 115 L493 74 L487 74 L487 48 Z M260 450 L261 451 L260 461 L257 467 L254 468 L251 463 L249 453 L251 451 L253 452 L254 460 L255 460 L257 452 Z M289 442 L291 442 L294 445 L296 454 L300 459 L299 462 L294 461 L291 457 L286 456 L285 449 L287 448 L288 450 L290 450 L288 445 Z M245 441 L248 443 L247 459 L254 474 L254 477 L256 477 L256 474 L263 460 L262 444 L264 441 L267 442 L267 445 L270 451 L270 457 L266 459 L269 464 L268 469 L264 474 L261 475 L261 479 L256 486 L252 484 L249 479 L249 475 L245 474 L242 468 L243 458 L240 457 L240 452 L243 443 Z M222 441 L223 443 L220 447 L225 448 L224 457 L222 459 L218 458 L215 461 L210 462 L209 460 L214 454 L217 444 Z M241 438 L242 440 L239 446 L237 456 L238 464 L236 469 L233 471 L229 465 L228 454 L229 451 L231 450 L232 460 L233 460 L236 445 L238 440 Z M268 435 L270 436 L274 444 L276 451 L276 458 L277 459 L278 458 L279 450 L282 453 L282 462 L277 472 L275 471 L272 464 L273 453 L271 445 L267 438 Z M281 433 L285 432 L288 437 L286 438 Z M222 437 L225 432 L229 433 L226 437 L224 438 Z M272 427 L275 429 L284 441 L282 443 L283 446 L282 448 L279 449 L277 448 L276 442 L271 432 Z M238 427 L240 432 L235 440 L233 449 L231 450 L230 448 L227 448 L225 446 L225 443 L232 435 L235 429 Z M321 422 L323 421 L327 425 L326 428 L323 427 Z M188 421 L189 424 L184 428 L183 425 Z M294 421 L296 420 L302 429 L312 439 L323 444 L324 446 L319 449 L311 449 L297 444 L296 441 L293 440 L294 437 L301 438 L302 436 L296 429 Z M303 420 L306 418 L307 421 L310 422 L316 429 L324 433 L329 434 L327 432 L327 429 L329 428 L339 433 L343 433 L344 435 L341 438 L336 440 L327 439 L321 440 L313 436 L308 431 L303 424 Z M216 418 L217 421 L210 435 L213 437 L217 436 L218 438 L207 447 L203 447 L200 449 L188 448 L186 445 L198 439 L208 429 L213 420 Z M207 418 L207 424 L196 436 L189 440 L187 440 L186 438 L182 440 L174 440 L165 435 L166 433 L171 433 L181 428 L183 429 L184 433 L191 431 L205 417 Z M191 418 L193 417 L194 419 L192 420 Z M315 417 L317 416 L319 419 L316 421 Z M279 417 L282 416 L283 418 L280 419 Z M275 422 L278 421 L279 423 L283 423 L287 425 L285 416 L287 415 L292 423 L293 429 L292 430 L288 430 L285 428 L282 429 L276 425 Z M224 415 L225 417 L223 424 L229 422 L232 423 L233 425 L231 427 L228 428 L225 427 L218 431 L217 428 L220 418 Z M227 418 L229 414 L234 415 L232 418 L229 419 Z M297 409 L299 409 L302 412 L300 419 L298 418 L298 414 L296 411 Z M213 409 L214 410 L213 413 L209 415 L208 412 Z M287 408 L289 407 L293 412 L289 414 L287 412 Z M222 407 L223 410 L220 413 L220 415 L216 416 L215 413 Z M370 405 L373 407 L374 410 L373 412 L369 408 Z M311 405 L312 406 L310 411 L311 418 L308 419 L303 409 Z M198 405 L207 409 L200 420 L198 419 L199 410 L197 408 Z M140 405 L141 408 L137 411 L136 410 L137 406 Z M245 402 L247 403 L246 418 L255 436 L264 418 L265 411 L264 406 L267 405 L270 411 L270 423 L268 426 L266 425 L264 426 L265 429 L264 434 L256 445 L253 444 L250 438 L245 433 L245 425 L243 427 L241 426 L240 412 Z M251 400 L253 401 L254 416 L256 415 L258 408 L257 402 L258 401 L260 402 L262 408 L262 414 L256 426 L253 425 L248 414 L248 408 Z M268 400 L274 398 L280 408 L279 409 L273 408 Z M237 397 L238 400 L241 401 L241 403 L238 408 L234 408 L231 410 L230 407 L235 398 Z M375 396 L378 395 L380 399 L377 400 Z M134 395 L135 398 L130 400 L129 398 L132 395 Z M295 405 L297 402 L301 401 L306 396 L307 392 L311 392 L322 398 L319 402 L315 402 L314 399 L311 398 L311 400 L308 403 L300 406 Z M188 398 L196 393 L203 392 L205 398 L210 402 L212 402 L213 404 L206 405 L202 403 L198 398 L195 399 L193 402 L191 402 Z M359 390 L372 388 L375 391 L371 394 L362 393 Z M297 389 L302 388 L304 392 L301 393 Z M206 391 L208 388 L213 389 L211 392 Z M130 388 L131 391 L127 394 L126 391 Z M135 390 L140 387 L143 389 L148 389 L149 391 L146 393 L138 394 Z M274 389 L276 388 L280 392 L283 392 L289 395 L289 393 L284 389 L285 386 L289 386 L292 389 L292 391 L298 396 L298 398 L294 400 L288 398 L282 399 L275 392 Z M150 385 L152 384 L153 386 L151 387 Z M204 384 L205 381 L208 382 L206 385 Z M372 381 L375 380 L378 383 L374 384 Z M295 381 L298 380 L299 382 L296 383 Z M132 381 L136 380 L137 383 L134 384 Z M369 379 L368 384 L359 387 L357 386 L357 384 L365 378 Z M141 379 L142 378 L146 379 L148 384 L142 385 Z M308 385 L312 384 L311 379 L313 377 L322 377 L335 389 L341 390 L351 389 L352 392 L348 393 L348 395 L368 396 L371 400 L367 403 L365 407 L362 405 L361 400 L355 403 L347 401 L345 404 L342 405 L334 403 L332 407 L324 410 L325 414 L322 417 L320 414 L318 413 L314 414 L313 412 L316 409 L316 407 L322 405 L328 399 L328 397 L312 389 Z M201 385 L197 389 L191 391 L184 397 L182 397 L182 399 L188 405 L192 406 L196 411 L195 413 L192 413 L188 418 L185 415 L186 410 L179 408 L176 405 L176 403 L168 405 L163 403 L162 401 L157 403 L148 401 L147 406 L144 408 L143 403 L139 400 L142 396 L160 395 L161 394 L159 392 L160 389 L163 390 L174 389 L177 385 L182 383 L188 377 L197 377 L198 378 L197 383 Z M276 385 L276 383 L279 382 L277 378 L278 376 L288 381 L286 385 L281 388 L279 388 Z M232 376 L233 378 L229 382 L229 384 L233 382 L235 384 L230 389 L220 394 L223 395 L226 393 L230 393 L232 390 L234 390 L235 392 L233 395 L226 400 L224 400 L223 398 L219 400 L212 399 L211 397 L224 384 L222 381 Z M214 376 L217 377 L217 380 L215 382 L213 381 Z M200 376 L204 375 L205 380 L203 381 Z M305 375 L307 374 L308 376 L306 377 Z M293 374 L295 373 L297 377 L294 378 Z M282 371 L286 370 L288 372 L288 375 L287 376 L284 375 Z M228 370 L229 373 L222 377 L221 374 L225 370 Z M213 368 L215 367 L216 369 L214 370 Z M323 362 L327 364 L324 368 L321 365 Z M185 362 L189 364 L189 367 L191 368 L190 370 L187 369 L183 365 Z M282 361 L285 360 L286 362 L283 363 Z M225 359 L226 360 L225 367 L222 368 L221 363 Z M313 358 L319 361 L314 369 L311 368 L312 364 L309 363 Z M214 359 L218 358 L219 361 L215 363 Z M184 357 L186 356 L187 358 L185 359 Z M319 355 L323 354 L325 357 L321 358 Z M310 354 L311 357 L305 363 L304 359 L308 354 Z M249 353 L252 354 L254 361 L256 361 L259 353 L262 355 L262 359 L259 360 L259 364 L256 369 L252 366 L251 362 L247 360 Z M202 353 L206 361 L204 362 L202 360 L199 360 L200 367 L197 369 L196 365 L191 364 L191 361 L194 359 L197 359 L197 357 Z M328 355 L332 352 L336 352 L339 355 L339 357 L336 359 L329 358 Z M172 352 L175 351 L180 353 L181 357 L178 359 L172 358 L171 357 Z M288 350 L290 349 L291 351 L289 352 Z M211 347 L213 346 L216 348 L218 352 L214 353 Z M161 349 L164 346 L167 346 L172 351 L168 354 L165 354 L161 351 Z M339 352 L339 350 L344 345 L350 350 L346 354 L341 354 Z M317 345 L320 347 L321 350 L320 352 L317 352 L314 349 Z M300 345 L301 347 L294 354 L292 351 Z M246 345 L248 347 L246 356 L243 360 L245 362 L245 365 L251 368 L254 376 L256 376 L261 366 L265 366 L265 357 L263 352 L264 346 L266 347 L272 360 L279 366 L277 372 L271 375 L272 378 L271 381 L256 395 L254 395 L249 389 L240 382 L239 375 L237 375 L231 368 L231 366 L241 356 L244 347 Z M194 345 L195 349 L190 354 L189 349 L192 345 Z M321 344 L327 343 L331 349 L328 352 L326 352 L322 348 Z M308 343 L309 346 L305 350 L302 349 L303 346 L306 343 Z M271 344 L275 343 L277 347 L279 346 L283 352 L280 354 L273 354 L271 350 Z M201 344 L205 343 L208 349 L206 350 Z M188 343 L189 346 L184 352 L179 349 L184 343 Z M242 341 L237 347 L239 350 L237 354 L230 354 L227 352 L232 347 L230 345 L232 341 L234 343 L237 343 L240 340 Z M353 338 L356 339 L359 342 L359 344 L354 348 L351 348 L348 344 L352 341 Z M174 338 L181 342 L176 348 L173 348 L167 345 Z M152 339 L155 338 L162 345 L159 348 L154 347 L151 344 Z M283 335 L287 334 L288 336 L295 339 L297 343 L292 346 L283 346 L282 343 L287 341 L287 339 Z M259 334 L262 343 L258 345 L258 349 L255 352 L252 348 L252 345 L249 344 L250 336 L252 335 L254 344 L256 344 L257 335 Z M227 335 L223 339 L223 341 L228 343 L226 346 L223 347 L218 346 L212 342 L213 340 L222 336 L223 334 Z M365 333 L366 336 L362 340 L360 340 L358 337 L363 333 Z M352 337 L349 341 L346 342 L342 341 L344 345 L338 348 L334 348 L330 343 L331 341 L338 338 L344 333 L348 333 Z M164 333 L171 336 L171 338 L166 342 L162 341 L159 338 Z M320 333 L322 332 L325 335 L321 337 Z M317 332 L318 333 L317 337 L314 340 L311 340 L310 339 L311 335 Z M193 333 L197 332 L199 334 L200 339 L198 340 L193 335 Z M185 334 L189 332 L191 336 L188 337 Z M144 334 L147 332 L153 338 L148 340 Z M241 330 L242 333 L240 334 L238 339 L236 341 L233 341 L230 337 L238 330 Z M267 330 L270 329 L274 331 L280 338 L277 341 L275 341 L270 336 Z M184 329 L186 328 L187 330 L185 331 Z M348 331 L355 326 L361 329 L361 332 L357 335 L353 335 L349 333 Z M155 326 L161 330 L161 332 L156 336 L150 332 L151 328 Z M329 331 L331 325 L336 327 L336 329 L333 332 Z M327 324 L328 328 L326 331 L324 331 L323 328 Z M281 325 L283 323 L287 323 L289 326 L293 326 L296 330 L294 331 L294 334 L291 335 Z M231 324 L222 334 L220 335 L217 334 L217 331 L215 330 L216 328 L223 323 Z M294 323 L295 322 L303 323 L307 326 L312 326 L313 328 L309 332 L305 333 L306 338 L303 339 L301 335 L298 334 L299 332 L303 331 L303 329 L295 326 Z M216 322 L217 323 L216 325 L209 328 L209 331 L211 331 L212 333 L209 335 L207 339 L204 339 L202 336 L205 335 L205 333 L203 333 L198 327 L203 326 L207 323 Z M349 321 L352 324 L350 327 L347 329 L344 329 L341 327 L346 321 Z M275 321 L273 326 L268 326 L266 324 L267 321 L272 320 Z M261 320 L263 324 L260 325 L255 331 L253 327 L256 325 L258 320 Z M248 322 L252 320 L254 323 L249 324 Z M237 320 L244 321 L245 324 L243 326 L239 326 L236 323 Z M164 320 L169 325 L167 329 L164 329 L159 325 Z M140 323 L143 320 L147 319 L153 324 L153 326 L146 329 L142 327 Z M363 318 L366 318 L370 323 L365 329 L360 328 L358 325 L358 323 Z M168 320 L173 317 L176 317 L181 324 L182 331 L178 332 Z M336 316 L340 317 L343 320 L339 325 L335 325 L332 323 L333 319 Z M331 315 L332 318 L329 320 L328 317 Z M183 316 L185 315 L187 318 L184 319 Z M287 315 L286 320 L279 319 L280 317 L284 317 L285 314 Z M222 315 L226 314 L231 319 L225 320 Z M370 313 L372 314 L371 320 L367 317 Z M317 313 L320 314 L319 316 L320 320 L324 322 L324 324 L319 330 L317 329 L319 324 L311 320 L311 318 Z M291 315 L298 313 L299 315 L302 315 L303 313 L308 314 L309 316 L305 317 L304 320 L297 320 L293 318 Z M201 315 L204 313 L207 313 L208 315 L212 315 L216 313 L219 316 L211 321 L207 321 Z M139 314 L141 313 L144 317 L140 319 Z M190 312 L192 312 L200 318 L197 323 L192 324 L193 327 L192 329 L187 324 L189 320 L194 321 L194 319 L189 314 Z M266 309 L271 313 L268 317 L266 316 L265 311 Z M252 311 L256 309 L260 313 L260 316 L258 317 L253 315 Z M244 309 L246 310 L245 318 L241 314 L241 312 Z M340 311 L343 308 L345 308 L352 312 L357 313 L363 318 L354 323 L352 320 L349 319 L351 314 L349 314 L346 317 L343 317 L340 315 Z M307 311 L308 309 L311 308 L323 308 L324 309 L321 314 L319 313 L319 311 L312 313 Z M279 308 L280 313 L277 315 L276 310 Z M232 308 L235 310 L234 314 L229 312 Z M187 309 L189 308 L190 311 L188 312 Z M173 313 L172 316 L163 317 L157 323 L150 318 L150 316 L156 312 L162 315 L161 311 L166 308 L169 308 L170 311 Z M225 308 L228 307 L229 310 L227 311 Z M174 306 L178 306 L180 308 L179 314 L174 313 L172 309 Z M334 305 L339 307 L339 310 L336 313 L331 312 L331 307 Z M297 305 L298 310 L291 312 L290 310 L295 305 Z M357 311 L361 304 L369 308 L369 310 L365 314 L361 314 Z M286 304 L287 309 L285 311 L281 310 L280 308 Z M213 305 L216 304 L221 311 L220 312 L214 311 Z M142 308 L150 304 L155 310 L149 314 L146 314 L142 310 Z M257 304 L259 303 L262 306 L259 308 Z M248 305 L252 303 L254 304 L253 307 L249 307 Z M364 301 L367 300 L368 302 L365 303 Z M350 299 L353 299 L359 302 L359 304 L357 305 L355 309 L351 309 L346 306 L347 302 Z M147 299 L148 301 L143 304 L142 302 L145 299 Z M161 298 L165 306 L160 309 L157 309 L152 303 Z M316 298 L317 304 L316 306 L303 306 L301 304 L302 302 L309 301 L311 297 Z M252 300 L256 297 L259 300 L259 302 L253 303 Z M193 310 L194 308 L197 308 L197 306 L194 305 L196 303 L196 301 L193 299 L194 297 L199 297 L200 300 L211 303 L209 306 L204 306 L202 312 L195 312 Z M338 295 L342 295 L347 298 L346 301 L342 305 L336 304 L334 302 Z M217 295 L226 303 L225 308 L216 299 Z M164 298 L166 296 L173 295 L174 298 L177 297 L179 298 L178 300 L179 303 L169 305 L165 301 Z M302 294 L303 298 L300 300 L299 297 Z M295 294 L296 298 L292 304 L287 305 L286 303 Z M354 294 L356 292 L359 292 L364 297 L362 299 L357 299 L354 297 Z M301 292 L303 291 L304 293 L302 294 Z M205 292 L209 291 L212 298 L210 299 L205 294 Z M155 291 L158 296 L153 299 L149 299 L148 295 Z M316 291 L315 295 L309 296 L307 295 L311 291 L314 290 Z M192 293 L195 290 L204 293 L205 295 L204 296 L193 295 Z M188 291 L190 290 L192 293 L190 294 Z M182 290 L186 289 L188 290 L186 292 L186 295 L191 301 L189 305 L187 304 L187 301 L183 300 L184 297 L181 293 Z M341 291 L344 288 L353 290 L351 295 L345 295 Z M338 288 L339 290 L336 292 L335 290 Z M329 288 L330 292 L327 297 L328 300 L324 301 L325 304 L322 305 L319 301 L326 294 L326 292 L322 294 L319 294 L318 292 Z M172 289 L174 288 L176 291 L174 292 Z M159 290 L163 288 L168 288 L169 293 L161 295 L159 293 Z M234 299 L243 292 L252 278 L254 279 L254 282 L256 282 L260 278 L268 291 L274 297 L277 298 L278 301 L275 303 L266 304 L265 300 L261 298 L257 291 L254 291 L253 294 L249 298 L247 298 L247 301 L244 305 L235 302 Z M253 272 L258 271 L259 273 L255 275 Z M258 269 L260 268 L261 270 L259 271 Z M251 267 L253 266 L254 269 L252 270 Z M299 265 L301 266 L306 278 L312 285 L311 288 L303 287 L296 279 L295 274 L297 273 L298 275 L300 275 L298 269 Z M213 265 L214 269 L212 272 L212 275 L216 273 L217 274 L216 279 L209 287 L200 288 L199 286 L205 280 L210 271 L211 266 Z M292 264 L293 268 L287 279 L288 281 L290 280 L292 281 L292 286 L290 290 L285 295 L279 293 L276 290 L272 292 L270 290 L272 286 L268 282 L264 271 L267 270 L269 267 L281 267 Z M262 265 L264 264 L266 267 L264 268 Z M250 263 L251 266 L247 268 L246 266 Z M218 264 L220 263 L230 267 L243 267 L247 272 L247 275 L249 276 L249 278 L245 279 L243 282 L245 286 L243 288 L241 287 L238 288 L229 295 L226 295 L221 289 L219 284 L221 280 L224 281 L225 279 L221 274 Z M304 265 L307 264 L308 266 L310 266 L309 262 L312 261 L320 275 L327 282 L327 284 L323 286 L317 285 L308 276 Z M208 265 L204 276 L198 283 L192 286 L188 286 L184 284 L192 275 L200 261 L203 262 L202 266 L204 266 L205 264 Z M317 262 L320 260 L325 269 L328 270 L323 260 L323 258 L325 257 L329 262 L330 266 L332 267 L332 269 L344 280 L344 283 L337 284 L336 282 L330 281 L323 274 Z M195 261 L193 268 L182 281 L174 282 L173 284 L166 283 L180 269 L180 267 L182 266 L183 262 L187 257 L189 258 L188 264 L190 264 L192 260 Z M301 257 L303 256 L305 260 L302 261 Z M278 257 L280 256 L281 259 L279 260 Z M231 257 L233 256 L234 258 L232 259 Z M209 255 L212 258 L210 261 L207 260 Z M255 254 L257 254 L260 258 L257 263 L254 262 L252 259 Z M220 255 L221 254 L227 255 L228 258 L226 259 L221 257 Z M329 257 L333 256 L338 263 L341 265 L342 263 L339 261 L339 259 L336 256 L336 253 L339 252 L342 255 L346 263 L354 271 L356 271 L362 278 L360 280 L354 280 L348 277 L345 277 L337 270 Z M288 252 L289 253 L288 257 L284 259 L283 254 L285 252 Z M262 253 L263 252 L268 253 L273 259 L269 263 L266 262 L267 258 L263 257 Z M249 252 L251 255 L249 257 L246 257 L245 258 L246 262 L243 263 L239 258 L244 253 Z M183 257 L177 267 L166 277 L159 280 L152 280 L150 278 L157 270 L159 270 L166 263 L166 261 L173 252 L176 252 L177 254 L170 263 L171 265 L173 264 L179 255 Z M292 251 L294 250 L295 252 L293 253 Z M343 252 L345 250 L349 250 L349 248 L352 247 L365 261 L376 267 L379 271 L376 273 L367 273 L359 270 L348 260 Z M258 248 L260 247 L261 250 L259 251 Z M251 248 L253 247 L254 250 L252 251 Z M169 252 L164 260 L153 270 L145 273 L136 273 L133 271 L137 266 L147 261 L157 251 L158 248 L163 247 Z M254 244 L257 243 L258 245 L255 246 Z M357 246 L362 241 L367 241 L376 250 L391 257 L394 260 L394 263 L389 265 L382 265 L375 263 L366 257 L358 249 Z M307 241 L309 242 L311 248 L314 250 L317 256 L316 258 L312 258 L306 254 L305 246 Z M155 246 L154 249 L145 258 L137 263 L125 265 L116 262 L121 257 L136 250 L146 241 L151 241 Z M205 240 L207 251 L202 257 L196 258 L195 256 L202 245 L203 241 Z M313 242 L319 238 L327 249 L328 253 L324 254 L319 252 L313 245 Z M199 242 L197 248 L193 252 L188 254 L184 253 L185 249 L193 238 Z M324 238 L330 234 L341 248 L334 249 L330 247 L325 242 Z M188 239 L187 242 L179 249 L171 248 L172 245 L182 234 L184 235 L184 238 Z M308 234 L311 233 L313 237 L312 238 L309 237 Z M371 238 L375 235 L376 232 L379 232 L391 241 L397 244 L404 245 L409 248 L410 251 L403 254 L392 254 L386 252 L377 246 L371 240 Z M141 239 L135 246 L123 253 L111 254 L106 253 L102 250 L108 245 L115 244 L121 241 L133 232 L136 232 L137 235 Z M334 234 L335 233 L341 234 L341 232 L343 231 L354 242 L352 244 L341 242 L337 239 Z M201 231 L204 234 L202 238 L199 237 L199 233 Z M178 234 L176 238 L171 242 L166 244 L160 244 L158 242 L169 230 L171 231 L169 235 L170 237 L174 233 Z M253 229 L258 228 L259 230 L256 233 Z M346 228 L350 227 L352 224 L355 224 L361 229 L369 233 L370 235 L363 238 L355 237 L350 234 L346 230 Z M259 225 L261 224 L262 226 L260 227 Z M250 225 L253 224 L254 226 L251 227 Z M166 229 L161 235 L157 237 L149 238 L142 235 L143 233 L154 227 L157 224 L160 225 L159 229 L161 229 L162 227 Z M312 227 L318 223 L323 230 L324 234 L323 235 L317 234 L313 230 Z M198 225 L199 229 L193 235 L189 235 L188 231 L194 223 Z M384 229 L388 227 L403 236 L410 238 L412 237 L412 236 L406 235 L394 229 L393 227 L391 227 L390 223 L393 222 L407 229 L426 233 L429 235 L429 237 L419 242 L406 243 L395 239 L385 232 Z M128 229 L128 231 L119 238 L106 243 L95 242 L86 239 L84 237 L86 233 L99 231 L110 226 L113 226 L119 222 L122 223 L122 226 L120 228 L116 229 L115 231 L110 232 L109 234 L106 234 L100 237 L102 238 L109 236 L125 227 Z M267 222 L268 221 L274 222 L275 225 L274 226 L269 225 Z M237 224 L238 222 L242 221 L246 222 L245 224 L241 225 Z M322 223 L323 222 L327 223 L327 221 L329 220 L336 229 L329 230 Z M190 223 L188 227 L183 230 L176 229 L183 220 Z M274 220 L276 219 L277 221 L275 222 Z M359 221 L365 216 L367 216 L373 220 L383 223 L384 225 L380 228 L370 229 L362 226 L359 223 Z M333 220 L341 216 L348 223 L345 225 L339 225 Z M164 223 L171 216 L178 221 L177 223 L173 225 L167 225 Z M154 222 L150 226 L141 229 L136 229 L128 225 L129 223 L139 220 L145 216 L147 216 L150 220 Z M280 214 L282 213 L283 215 L281 216 Z M397 219 L399 217 L403 217 L415 222 L425 223 L425 221 L411 219 L403 215 L402 210 L405 209 L420 216 L442 218 L443 220 L433 227 L422 229 L408 226 L398 221 Z M344 213 L349 212 L349 210 L352 209 L358 213 L360 216 L358 218 L352 219 L347 217 Z M288 210 L290 209 L291 211 L289 212 Z M271 209 L272 210 L271 216 L267 218 L264 212 Z M256 209 L260 212 L257 217 L255 216 Z M242 209 L249 212 L248 214 L246 214 L245 218 L241 216 Z M223 209 L225 210 L224 213 L221 212 Z M152 216 L155 212 L160 209 L162 209 L163 212 L166 211 L168 212 L168 214 L165 217 L160 219 L154 218 Z M115 218 L114 221 L104 226 L96 228 L80 227 L69 220 L70 218 L74 217 L86 217 L94 215 L107 209 L110 210 L111 213 L110 215 L100 219 L87 221 L87 223 L101 221 L112 216 Z M370 214 L374 210 L380 214 L381 212 L376 209 L377 207 L382 207 L386 209 L394 210 L397 212 L394 216 L386 219 L380 219 Z M336 207 L338 206 L339 209 L337 210 Z M142 214 L132 219 L125 219 L117 215 L115 212 L134 206 L136 208 L134 212 L139 211 Z M287 206 L289 205 L290 207 L288 208 Z M234 205 L238 207 L235 212 L231 209 Z M355 206 L358 205 L361 207 L364 207 L363 205 L360 204 L361 202 L370 205 L372 208 L370 210 L362 212 L358 210 Z M140 207 L149 202 L151 203 L149 207 L154 205 L156 206 L155 209 L149 212 L141 209 Z M408 206 L410 203 L426 207 L431 206 L414 202 L413 200 L415 198 L424 199 L429 201 L449 201 L450 200 L457 201 L451 208 L437 214 L422 213 Z M382 204 L384 201 L395 202 L395 200 L393 199 L394 197 L408 197 L409 198 L405 203 L399 206 L390 207 Z M337 198 L339 197 L340 199 L338 200 Z M172 198 L177 197 L179 199 L179 202 L175 203 L172 200 Z M105 206 L101 209 L90 213 L77 214 L67 211 L58 205 L55 201 L56 200 L80 201 L98 197 L99 200 L97 202 L88 204 L87 206 L80 205 L79 207 L92 206 L100 203 L103 203 Z M388 197 L390 196 L391 199 L389 200 Z M382 198 L377 203 L371 203 L367 201 L368 199 L376 200 L377 196 Z M291 197 L294 196 L295 199 L293 200 Z M104 198 L124 196 L125 199 L119 200 L119 202 L128 201 L130 204 L122 207 L117 207 L109 204 Z M285 195 L287 196 L286 200 L283 198 Z M130 198 L138 195 L139 197 L137 198 L137 200 L143 199 L144 201 L142 203 L135 203 Z M216 191 L218 192 L218 195 L220 197 L219 199 L217 199 L214 196 Z M293 191 L296 190 L298 193 L296 194 Z M323 187 L327 198 L326 214 L313 221 L312 216 L316 208 L314 207 L310 213 L306 230 L300 241 L293 247 L285 250 L274 251 L265 247 L263 244 L267 230 L269 228 L276 230 L281 221 L286 223 L286 217 L294 215 L292 203 L303 198 L300 190 L310 186 Z M188 189 L196 186 L210 188 L212 192 L209 195 L209 198 L221 203 L218 214 L224 215 L226 222 L232 221 L236 229 L242 228 L245 230 L249 246 L238 251 L228 250 L218 246 L209 236 L203 215 L198 207 L196 206 L195 208 L199 213 L200 221 L189 217 L186 214 L185 199 Z M377 192 L378 190 L385 189 L382 187 L383 185 L392 187 L387 193 L379 194 Z M174 191 L177 185 L182 186 L176 192 Z M121 187 L129 185 L130 187 L128 189 L133 190 L134 193 L133 194 L125 193 Z M386 182 L389 181 L390 183 L387 184 Z M470 181 L470 183 L461 192 L451 197 L431 198 L415 193 L416 191 L423 190 L425 192 L432 191 L432 190 L426 190 L422 188 L421 186 L423 184 L450 185 L459 183 L465 180 Z M420 181 L420 183 L412 191 L408 193 L396 194 L393 192 L396 188 L404 188 L404 186 L397 185 L399 182 L407 182 L415 180 Z M93 181 L98 180 L106 182 L113 182 L115 185 L109 186 L109 188 L117 188 L119 192 L117 194 L105 193 L101 191 L98 187 L96 187 Z M233 188 L236 186 L238 179 L244 180 L254 187 L259 187 L265 182 L274 179 L276 181 L277 187 L279 187 L280 190 L277 196 L269 203 L263 205 L249 205 L242 202 L235 195 Z M43 180 L45 179 L55 183 L66 185 L90 184 L91 185 L90 188 L86 190 L80 190 L80 191 L85 192 L87 190 L94 189 L97 193 L79 198 L63 197 L52 192 L43 183 Z M391 181 L392 178 L396 179 L394 182 Z M116 179 L120 178 L121 181 L118 182 Z M295 178 L300 177 L301 180 L296 181 Z M211 178 L216 177 L217 179 L213 181 Z M285 171 L287 170 L288 172 L286 173 Z M243 171 L249 170 L255 178 L258 178 L264 170 L270 170 L271 172 L264 176 L263 180 L260 183 L253 183 L250 177 Z M271 169 L273 168 L274 170 L272 171 Z M239 169 L241 168 L242 170 L240 171 Z M226 168 L228 169 L227 173 L224 172 Z M401 167 L402 170 L397 174 L394 169 L396 167 Z M290 167 L292 168 L291 173 L289 172 Z M110 168 L116 167 L117 170 L113 173 Z M293 165 L295 164 L296 166 L294 167 Z M217 165 L221 164 L222 166 L219 168 Z M223 162 L225 161 L226 163 L224 164 Z M430 161 L427 167 L419 175 L407 179 L402 178 L402 175 L404 173 L410 172 L406 170 L409 165 L416 164 L426 160 Z M404 161 L402 164 L398 163 L399 161 L402 160 Z M108 161 L110 160 L113 161 L114 163 L110 164 Z M83 161 L87 160 L96 164 L103 165 L106 168 L105 171 L98 169 L96 170 L109 174 L111 178 L105 179 L94 175 L87 169 Z M482 156 L476 168 L462 178 L448 182 L430 182 L425 180 L426 177 L440 177 L440 175 L430 175 L428 173 L430 170 L432 171 L444 170 L451 167 L461 165 L479 155 Z M31 156 L32 155 L37 156 L48 163 L59 167 L63 167 L71 170 L83 170 L85 172 L84 174 L75 175 L75 177 L87 176 L88 180 L80 182 L71 182 L52 178 L40 171 L36 167 Z M408 154 L409 155 L408 158 L404 161 L403 156 L405 154 Z M105 154 L109 156 L108 161 L104 158 Z M279 149 L280 151 L284 153 L284 162 L281 169 L277 172 L276 170 L278 167 L278 160 L276 158 L272 158 L271 154 Z M398 154 L386 176 L369 195 L362 197 L359 200 L344 207 L342 206 L342 200 L344 199 L345 194 L338 186 L338 183 L341 180 L347 178 L357 179 L356 174 L383 148 L386 149 L387 155 L395 153 Z M114 154 L117 153 L125 155 L126 149 L129 148 L156 174 L154 180 L158 178 L171 180 L174 185 L171 192 L167 194 L168 199 L170 200 L170 206 L167 207 L156 202 L150 197 L143 195 L125 175 Z M120 149 L122 148 L123 150 L121 151 Z M242 161 L249 154 L250 150 L254 146 L257 145 L263 150 L263 154 L266 155 L271 162 L267 164 L266 160 L263 159 L256 167 L250 159 L248 159 L246 164 L244 164 Z M399 143 L404 142 L405 144 L401 147 Z M230 142 L234 145 L235 149 L239 153 L242 154 L242 157 L237 158 L234 162 L237 170 L236 173 L233 171 L229 162 L229 153 L232 150 L230 148 L229 144 Z M107 143 L114 142 L115 145 L110 147 Z M283 141 L284 142 L283 148 L280 149 L279 145 Z M117 142 L119 141 L120 143 L118 144 Z M410 141 L412 140 L413 143 L411 144 Z M294 140 L297 141 L300 147 L295 152 L295 155 L298 156 L295 161 L290 159 L291 149 L293 146 L288 145 L290 142 Z M217 140 L223 142 L226 145 L225 147 L220 144 L219 145 L222 149 L222 155 L224 159 L223 161 L219 161 L215 157 L215 155 L217 154 L217 150 L214 149 L213 147 Z M100 139 L103 142 L102 145 L99 142 Z M434 138 L435 143 L431 151 L425 157 L412 161 L411 160 L412 157 L419 154 L419 152 L416 153 L414 152 L414 146 L421 145 Z M388 139 L391 138 L392 140 L395 141 L394 144 L392 145 L388 141 Z M77 139 L80 138 L91 145 L97 145 L99 147 L97 152 L92 151 L92 153 L100 156 L101 160 L97 161 L88 157 L81 150 Z M229 138 L231 137 L232 139 L230 140 Z M123 137 L125 138 L124 142 L121 140 Z M291 135 L293 134 L294 136 L292 137 Z M218 134 L220 133 L222 136 L219 137 Z M296 130 L299 133 L298 135 L294 133 Z M214 131 L217 130 L219 133 L215 135 Z M259 130 L261 128 L264 129 L271 128 L280 131 L281 134 L279 137 L270 135 L263 140 L261 138 L262 132 L260 132 Z M259 141 L258 142 L254 141 L255 134 L252 134 L252 140 L250 141 L245 136 L242 135 L232 137 L231 133 L238 129 L252 128 L258 133 Z M411 125 L413 124 L414 127 L412 128 Z M304 124 L306 125 L305 130 L302 129 L302 126 Z M208 124 L211 126 L210 130 L207 129 Z M489 124 L487 134 L482 144 L472 155 L453 164 L444 166 L434 166 L433 165 L434 161 L453 156 L462 152 L462 150 L453 154 L438 158 L435 157 L436 153 L452 148 L467 139 L486 123 Z M98 124 L100 123 L102 126 L99 128 Z M23 123 L25 122 L30 125 L42 136 L52 143 L63 149 L76 153 L77 157 L74 158 L51 150 L51 152 L62 157 L78 161 L80 165 L79 166 L66 165 L55 162 L44 157 L31 144 L26 134 Z M272 120 L274 119 L276 122 L274 123 Z M238 120 L240 119 L241 122 L239 123 Z M78 119 L82 121 L88 129 L92 131 L95 130 L97 131 L96 135 L93 136 L93 138 L96 140 L95 144 L88 140 L81 133 L77 121 Z M255 119 L257 118 L258 121 L256 122 Z M86 114 L96 122 L95 129 L88 124 L85 117 Z M428 113 L429 115 L421 128 L424 129 L431 121 L434 120 L435 124 L433 130 L426 139 L417 144 L416 140 L422 136 L422 134 L418 135 L416 132 L417 127 L419 125 L417 122 Z M242 112 L245 111 L246 115 L243 116 Z M273 110 L275 111 L274 114 L271 113 Z M254 112 L257 110 L259 113 L255 114 Z M390 106 L398 108 L400 110 L400 114 L402 118 L406 122 L408 130 L407 134 L403 137 L399 135 L399 132 L393 126 L394 114 L389 111 Z M122 106 L123 111 L119 114 L120 122 L119 127 L116 131 L113 132 L113 135 L109 137 L105 133 L106 123 L111 117 L113 109 Z M267 105 L268 108 L266 112 L264 113 L263 107 Z M245 105 L247 104 L249 108 L246 109 Z M381 101 L384 100 L385 102 L382 103 Z M375 100 L377 99 L378 101 L376 102 Z M255 100 L257 99 L259 102 L256 103 Z M138 100 L133 105 L128 102 L129 100 L131 101 L135 99 Z M489 83 L490 84 L489 100 L485 112 L479 123 L470 132 L457 141 L438 149 L437 145 L439 142 L453 135 L459 129 L442 138 L439 137 L439 134 L450 127 L469 110 L475 100 L478 98 L479 94 Z M23 83 L26 84 L26 86 L32 92 L32 94 L37 99 L43 109 L54 120 L73 134 L73 137 L71 138 L62 134 L53 127 L51 127 L54 131 L61 136 L74 142 L76 146 L75 149 L68 147 L53 139 L40 130 L33 122 L25 105 L22 88 Z M264 82 L266 81 L268 85 L265 86 Z M248 80 L250 81 L249 85 L247 84 Z M258 78 L259 82 L253 86 L252 84 L254 80 Z M260 76 L262 75 L263 77 L261 78 Z M23 74 L25 73 L26 75 L24 76 Z M261 70 L263 69 L264 71 L262 72 Z M255 67 L257 66 L259 70 L256 71 Z M255 47 L259 48 L262 58 L261 63 L259 63 L258 61 L254 63 L252 62 L252 56 Z M481 44 L484 52 L484 71 L480 86 L475 96 L455 118 L440 129 L438 129 L438 123 L449 113 L448 111 L444 115 L439 117 L438 109 L460 87 L473 64 L478 45 Z M31 42 L33 43 L35 54 L51 85 L54 87 L54 89 L71 107 L75 109 L74 115 L69 115 L53 100 L51 96 L49 96 L49 98 L65 115 L75 123 L75 129 L60 120 L43 103 L36 93 L32 85 L28 69 L28 52 Z M255 32 L257 31 L258 34 L256 35 Z"/></svg>
