<svg xmlns="http://www.w3.org/2000/svg" width="512" height="512" viewBox="0 0 512 512" aria-hidden="true" focusable="false"><path fill="currentColor" fill-rule="evenodd" clip-rule="evenodd" d="M384 413 L382 413 L373 420 L363 423 L345 423 L329 417 L327 418 L337 423 L345 425 L365 425 L378 420 L384 415 Z M199 411 L196 413 L196 415 L199 413 Z M179 408 L177 407 L170 415 L156 421 L142 422 L135 420 L131 417 L129 417 L129 419 L140 424 L154 424 L167 419 L176 412 Z M214 401 L212 402 L211 405 L213 405 Z M198 398 L192 407 L192 409 L187 413 L187 415 L172 424 L172 426 L181 422 L192 411 Z M241 224 L241 226 L251 230 L261 230 L268 227 L268 226 L265 226 L260 228 L252 228 Z M267 217 L261 219 L248 218 L248 220 L261 221 L267 219 Z M263 172 L268 174 L273 174 L279 169 L278 168 L271 169 L266 168 L263 170 Z M258 168 L258 177 L260 177 L260 168 Z M257 147 L253 155 L253 158 L255 160 L258 160 L260 158 L260 154 Z M258 17 L237 81 L233 82 L236 99 L224 117 L217 116 L206 77 L196 114 L199 124 L190 124 L191 170 L186 187 L191 190 L196 208 L209 209 L211 218 L176 240 L157 284 L136 251 L142 226 L137 196 L154 191 L154 173 L137 161 L119 170 L116 188 L130 194 L132 201 L113 223 L111 244 L118 271 L147 321 L128 337 L120 338 L114 330 L117 311 L101 290 L86 316 L89 338 L98 356 L118 363 L180 343 L209 317 L211 331 L197 358 L142 370 L115 386 L111 408 L121 424 L111 427 L129 451 L150 460 L148 468 L171 476 L189 474 L198 480 L238 480 L253 496 L271 481 L286 483 L294 477 L311 480 L321 474 L338 476 L362 468 L359 460 L379 452 L398 427 L388 424 L398 406 L396 390 L388 380 L363 369 L317 360 L308 348 L343 348 L380 368 L407 367 L419 353 L418 331 L427 320 L425 303 L408 287 L389 310 L399 338 L385 343 L361 324 L376 305 L397 261 L398 228 L391 213 L381 205 L397 182 L393 153 L386 161 L386 182 L381 178 L385 170 L378 134 L369 182 L365 179 L368 160 L361 153 L357 182 L372 199 L368 225 L374 252 L368 268 L353 284 L335 240 L302 218 L302 210 L315 209 L327 187 L321 152 L322 121 L315 124 L318 116 L309 78 L293 118 L278 100 L281 83 L277 82 L273 59 L263 44 Z M249 487 L250 484 L252 484 L254 487 L258 484 L261 485 L260 488 L256 492 L254 492 Z M263 482 L265 481 L266 483 L264 484 Z M207 475 L209 474 L210 476 L208 477 Z M298 474 L300 473 L302 476 L300 477 Z M291 473 L293 472 L294 474 L292 475 Z M221 469 L222 471 L217 475 L216 473 Z M287 469 L289 468 L292 472 L289 473 Z M343 467 L345 466 L346 468 L344 469 Z M276 466 L281 467 L286 472 L286 475 L283 477 L278 476 L274 470 Z M254 466 L256 466 L257 469 L261 468 L263 471 L262 478 L256 483 L252 482 L246 475 L247 470 L249 469 L250 471 L252 471 L252 468 Z M233 466 L235 469 L234 473 L228 477 L224 476 L223 474 L225 469 Z M222 467 L225 466 L226 468 L223 469 Z M312 466 L313 465 L316 466 L320 471 L317 473 L313 469 Z M196 465 L197 468 L194 470 L193 473 L190 472 L189 470 Z M296 466 L301 464 L306 465 L312 470 L312 472 L309 474 L303 473 Z M214 466 L207 473 L201 474 L197 472 L198 469 L204 465 L209 464 Z M168 463 L169 465 L166 467 L165 465 Z M338 463 L340 462 L344 466 L342 467 Z M323 463 L333 462 L339 468 L337 470 L333 470 L325 466 Z M170 468 L174 463 L177 462 L187 463 L186 465 L177 470 Z M345 462 L347 460 L353 460 L357 462 L358 464 L348 465 Z M152 464 L156 460 L165 461 L163 464 L158 465 Z M254 451 L256 451 L259 455 L259 458 L255 463 L250 458 L251 454 Z M276 450 L277 454 L275 458 L273 459 L272 457 L274 454 L274 451 Z M366 450 L368 449 L369 451 L367 452 Z M138 449 L140 448 L142 451 L139 452 Z M131 447 L133 446 L135 449 L133 450 Z M274 445 L276 444 L277 447 L275 448 Z M233 444 L235 445 L235 453 L237 456 L236 458 L234 457 L232 453 Z M343 440 L345 442 L345 447 L342 452 L345 455 L342 457 L339 455 L332 459 L328 459 L327 457 L331 453 L333 447 L339 441 Z M166 440 L174 443 L181 457 L180 459 L172 457 L171 455 L169 455 L168 457 L165 455 L167 453 L164 447 L164 442 Z M356 440 L358 439 L359 441 L357 442 Z M335 439 L336 441 L333 443 L332 441 Z M173 440 L175 439 L177 442 L174 443 Z M367 438 L368 444 L366 449 L356 456 L351 457 L350 455 L354 451 L358 442 Z M141 439 L144 438 L149 441 L159 456 L157 457 L147 453 L141 444 Z M346 436 L349 437 L351 444 L347 453 L345 452 L347 448 L347 441 L345 438 Z M323 436 L326 440 L327 448 L326 453 L321 457 L320 454 L323 451 L323 443 L321 440 L321 437 Z M278 435 L281 435 L283 437 L280 442 L278 441 L277 437 Z M254 435 L263 443 L266 452 L263 458 L261 457 L260 451 L256 447 L254 447 L249 452 L247 458 L244 455 L243 452 L246 443 Z M228 435 L232 436 L230 441 L226 438 Z M201 436 L205 435 L207 437 L207 440 L204 441 L201 438 Z M137 435 L139 436 L138 446 L136 445 L135 442 Z M386 434 L387 435 L386 439 L382 445 L378 448 L377 445 L380 439 Z M332 434 L333 437 L329 440 L327 437 L330 434 Z M321 434 L322 435 L321 437 L313 441 L313 443 L316 441 L321 442 L322 447 L320 453 L315 458 L308 461 L304 461 L303 459 L309 450 L309 446 L307 448 L305 447 L306 444 L313 437 Z M307 434 L308 438 L304 442 L302 440 L302 437 Z M296 434 L303 446 L303 451 L298 459 L296 458 L299 452 L299 446 L296 439 L293 438 L289 440 L288 443 L292 441 L295 442 L297 446 L296 454 L290 460 L286 462 L278 463 L277 461 L281 458 L284 448 L286 447 L286 445 L282 446 L281 444 L283 443 L285 439 L293 434 Z M264 434 L267 436 L271 443 L272 451 L270 455 L268 454 L267 444 L263 439 Z M245 434 L247 438 L242 444 L241 453 L239 454 L238 444 L242 436 Z M213 434 L218 435 L224 439 L226 443 L228 444 L227 446 L225 445 L223 446 L225 448 L228 458 L232 459 L231 463 L223 462 L219 460 L213 454 L212 446 L214 442 L217 441 L221 443 L221 441 L216 438 L213 439 L213 442 L210 446 L210 452 L213 457 L211 458 L208 455 L206 446 Z M177 435 L179 434 L180 436 L178 437 Z M355 433 L356 435 L352 438 L351 436 Z M347 434 L346 436 L338 440 L336 439 L338 436 L344 433 Z M188 433 L195 436 L202 442 L204 447 L202 448 L200 446 L200 448 L206 459 L205 461 L198 460 L189 453 L188 442 L193 441 L198 444 L198 442 L191 438 L188 438 L186 443 L186 451 L189 454 L189 456 L187 457 L184 454 L182 449 L182 444 L184 438 Z M165 433 L170 435 L173 439 L171 440 L164 436 L162 440 L163 450 L161 451 L158 443 L162 434 Z M153 434 L155 433 L157 437 L155 438 Z M123 433 L129 438 L129 440 L133 441 L131 447 L124 440 L122 436 Z M369 431 L371 432 L374 439 L374 442 L371 448 L369 447 L370 445 L369 435 L365 436 L363 435 L364 433 Z M138 432 L139 431 L147 434 L148 436 L146 437 L143 435 L139 435 Z M378 429 L379 431 L375 434 L374 431 Z M130 430 L131 429 L134 430 L135 433 L133 434 Z M220 428 L224 427 L225 430 L221 431 Z M302 425 L304 424 L312 428 L313 430 L309 431 L303 429 Z M230 423 L231 426 L228 428 L227 425 Z M271 422 L272 424 L268 426 L268 428 L266 429 L265 424 Z M254 422 L259 426 L262 431 L260 435 L257 433 L256 429 L254 429 L250 435 L248 434 L248 430 Z M245 423 L247 422 L248 424 L246 425 Z M240 422 L242 421 L243 423 L241 424 Z M220 419 L222 418 L223 420 L221 421 Z M232 418 L234 417 L235 420 L233 421 Z M229 414 L231 413 L232 415 L230 416 Z M235 413 L237 412 L238 414 L236 415 Z M268 405 L270 405 L276 411 L281 421 L280 423 L271 415 L271 413 L266 408 Z M245 406 L247 405 L248 407 L246 408 Z M232 407 L235 405 L238 405 L239 411 L237 412 L236 409 L233 409 Z M236 396 L239 395 L240 398 L237 400 Z M251 393 L253 394 L255 400 L254 408 L252 410 L250 409 L251 403 L250 394 Z M222 388 L225 390 L225 401 L221 412 L217 416 L216 413 L220 402 L220 389 Z M259 396 L260 392 L266 391 L267 387 L271 383 L278 382 L288 386 L299 386 L309 382 L316 382 L321 386 L323 385 L328 386 L324 391 L308 393 L280 402 L266 403 L263 405 L261 404 Z M265 382 L267 381 L268 383 L266 384 Z M244 381 L245 385 L242 388 L241 387 L242 382 Z M253 381 L256 380 L257 382 L254 383 Z M239 379 L240 382 L236 387 L231 388 L229 386 L234 381 Z M270 379 L272 378 L273 380 L271 381 Z M245 377 L248 376 L249 378 L246 379 Z M263 374 L265 373 L266 375 L264 376 Z M113 398 L122 382 L142 373 L159 374 L173 381 L165 383 L149 380 L155 381 L156 384 L144 388 L170 384 L208 388 L205 404 L212 389 L218 392 L213 416 L204 426 L193 430 L190 428 L206 413 L182 429 L171 431 L168 426 L142 429 L127 424 L118 416 Z M395 395 L395 407 L389 418 L376 427 L362 430 L328 426 L308 413 L313 420 L331 430 L313 427 L296 416 L299 424 L286 419 L294 427 L290 429 L280 416 L285 414 L275 407 L277 404 L282 405 L311 395 L337 394 L339 387 L362 390 L351 385 L352 382 L365 382 L362 380 L337 384 L349 375 L331 384 L319 382 L325 375 L338 369 L342 372 L357 370 L379 377 L392 388 Z M240 368 L242 367 L245 371 L243 372 Z M252 366 L257 365 L258 370 L256 372 L253 371 Z M241 365 L243 364 L244 366 L242 367 Z M225 365 L232 364 L234 367 L231 370 L229 370 L226 368 Z M335 366 L333 369 L328 371 L316 380 L311 381 L307 380 L300 384 L288 384 L278 381 L274 378 L277 375 L286 379 L301 378 L305 375 L297 378 L287 378 L284 375 L292 371 L303 371 L300 368 L306 364 L308 366 L315 363 L320 364 L319 366 L307 374 L324 366 L328 365 Z M282 363 L283 366 L281 367 L281 369 L277 370 L275 366 L277 364 Z M154 370 L160 368 L167 368 L176 370 L178 372 L181 372 L187 375 L184 372 L174 368 L173 366 L180 365 L196 370 L195 368 L189 365 L189 363 L192 362 L202 365 L203 367 L206 365 L210 368 L208 371 L218 371 L227 375 L226 377 L217 379 L210 377 L201 372 L201 374 L208 378 L221 380 L231 375 L235 376 L236 378 L233 382 L227 384 L226 386 L213 387 L206 385 L197 380 L199 383 L198 385 L180 383 L175 379 L165 374 L155 372 Z M292 362 L289 366 L285 365 L286 362 L290 361 Z M219 362 L223 361 L225 365 L220 367 Z M309 361 L311 360 L312 362 L310 363 Z M408 359 L410 358 L411 360 L409 361 Z M213 358 L216 359 L215 364 L212 362 Z M256 354 L258 353 L259 355 L257 356 Z M416 352 L415 354 L411 356 L408 355 L409 353 L414 351 Z M306 351 L308 355 L303 360 L296 364 L292 361 L294 358 L297 359 L304 351 Z M253 352 L256 351 L257 353 L254 354 Z M202 353 L206 351 L211 355 L212 359 L211 360 L209 358 L206 359 L202 355 Z M402 350 L403 353 L400 356 L399 353 Z M416 344 L417 346 L411 350 L410 348 Z M405 340 L406 343 L399 346 L399 350 L394 355 L390 356 L390 358 L392 357 L401 358 L403 361 L403 364 L400 366 L390 366 L387 364 L384 364 L382 362 L381 356 L382 353 L386 350 L388 346 L395 341 Z M97 338 L98 340 L95 343 L94 341 Z M413 338 L415 337 L416 339 L414 340 Z M259 351 L272 337 L279 341 L283 341 L286 345 L292 345 L297 347 L296 350 L288 354 L273 358 L269 357 L268 354 L262 354 Z M254 334 L256 333 L257 335 L255 336 Z M106 333 L107 338 L105 339 L103 346 L101 347 L100 340 L103 338 L104 334 Z M270 334 L270 336 L258 347 L254 347 L249 353 L244 353 L242 357 L238 358 L235 355 L246 348 L250 344 L250 342 L248 342 L234 353 L229 355 L225 354 L226 351 L239 344 L246 337 L247 334 L252 336 L254 342 L256 342 L263 333 L268 332 Z M98 330 L99 332 L93 337 L92 335 Z M108 328 L110 328 L111 331 L116 336 L118 340 L118 346 L121 348 L121 355 L118 359 L111 359 L104 355 L104 350 L106 347 L111 349 L109 345 L110 335 L107 330 Z M357 325 L375 342 L370 348 L368 357 L360 355 L347 348 L353 342 L355 338 Z M94 324 L95 326 L91 330 L90 328 Z M151 323 L155 340 L160 346 L153 350 L135 355 L133 351 L134 345 L131 343 L130 339 L148 324 Z M401 322 L408 320 L410 322 L414 321 L415 323 L412 325 L403 325 Z M242 317 L245 323 L236 332 L236 334 L238 334 L245 327 L247 328 L247 334 L244 335 L236 343 L226 349 L220 351 L213 349 L210 345 L218 343 L224 340 L224 338 L218 341 L210 342 L209 337 L222 333 L229 328 L240 317 Z M193 317 L195 316 L196 318 L194 319 Z M246 316 L248 315 L249 317 L247 318 Z M407 312 L409 311 L410 314 L408 315 Z M90 311 L96 306 L100 307 L109 306 L113 309 L115 314 L115 322 L113 325 L111 325 L109 321 L107 321 L103 325 L100 325 L99 317 L97 317 L93 321 L91 320 Z M248 306 L250 305 L251 307 L249 308 Z M402 303 L413 302 L418 305 L420 310 L420 317 L417 322 L415 321 L416 319 L415 317 L417 313 L414 310 L415 307 L412 305 L409 308 L403 307 L401 314 L402 321 L400 322 L398 320 L397 317 L398 308 Z M257 301 L264 300 L270 302 L279 309 L290 325 L293 326 L293 334 L289 339 L282 339 L276 336 L266 325 L259 324 L261 321 L266 320 L266 318 L261 318 L258 320 L256 318 L261 314 L267 313 L267 311 L257 313 L256 310 L263 307 L268 307 L268 305 L263 304 L256 305 L255 303 Z M95 303 L98 300 L106 301 L105 303 L98 304 Z M311 296 L318 313 L318 318 L310 321 L304 321 L302 319 L302 314 L308 297 Z M232 293 L234 298 L235 307 L238 309 L239 314 L228 326 L219 332 L214 333 L213 332 L213 321 L209 309 L214 304 L219 292 Z M183 294 L186 298 L185 301 L181 303 L178 308 L165 312 L163 316 L170 312 L179 310 L181 313 L181 317 L184 318 L184 321 L188 321 L193 325 L193 327 L180 340 L170 344 L162 343 L158 339 L155 331 L156 315 L161 296 L169 292 L176 293 L177 295 Z M344 293 L349 300 L353 321 L353 335 L350 341 L339 346 L306 344 L304 341 L307 334 L307 324 L327 318 L342 319 L342 317 L336 315 L324 316 L318 298 L323 297 L325 294 L330 295 L332 293 L337 293 L338 290 L341 293 Z M307 288 L308 291 L300 312 L299 319 L298 320 L291 319 L290 318 L291 314 L296 308 L304 290 Z M254 289 L256 288 L257 291 L255 292 Z M317 288 L319 287 L320 289 L318 290 Z M271 287 L272 290 L266 296 L265 295 L266 291 Z M240 287 L246 291 L246 298 L249 299 L245 305 L243 304 L239 292 Z M333 282 L328 288 L323 289 L321 287 L323 284 L331 281 Z M175 284 L178 281 L183 283 L185 286 L181 288 L176 286 Z M238 275 L240 276 L239 280 L236 279 Z M273 275 L278 273 L280 274 L278 279 L275 278 Z M232 274 L234 273 L235 275 L233 276 Z M274 270 L276 269 L277 271 L275 272 Z M254 270 L257 269 L258 272 L255 273 Z M205 269 L207 270 L206 274 L204 273 Z M279 269 L281 268 L282 270 L280 271 Z M213 268 L216 284 L214 300 L204 311 L202 312 L196 311 L190 306 L192 303 L190 301 L188 292 L188 273 L189 272 L192 273 L191 280 L201 276 L207 276 L210 280 L206 284 L202 292 L199 290 L201 299 L202 299 L208 284 L211 285 L211 269 Z M372 267 L376 270 L377 273 L380 272 L385 273 L386 277 L370 309 L362 318 L357 320 L354 315 L351 293 L357 284 Z M188 268 L190 267 L191 269 L189 270 Z M125 272 L134 273 L135 270 L140 267 L157 287 L158 298 L154 311 L154 315 L152 318 L148 317 L138 304 L124 274 Z M385 266 L387 265 L388 267 L386 268 Z M340 266 L342 265 L343 267 L341 268 Z M379 264 L381 263 L382 265 L380 266 Z M229 264 L231 263 L232 265 L230 266 Z M270 262 L271 264 L274 265 L274 267 L268 279 L265 282 L262 282 L259 280 L258 275 L263 269 L265 269 L267 263 Z M242 262 L246 266 L246 269 L249 269 L254 276 L254 278 L250 282 L246 282 L240 273 L238 265 Z M196 260 L197 261 L196 266 L197 275 L194 277 L193 276 L193 262 Z M270 259 L272 258 L273 260 L271 261 Z M239 259 L241 258 L242 260 L240 261 Z M199 258 L202 259 L201 266 L203 273 L201 275 L198 272 L198 259 Z M283 256 L285 255 L286 257 L284 258 Z M278 254 L280 253 L281 255 L279 256 Z M230 254 L232 253 L233 255 L231 256 Z M247 253 L249 252 L250 255 L248 256 Z M197 252 L198 256 L195 258 L194 254 Z M285 251 L288 250 L289 252 L286 253 Z M255 248 L258 250 L257 254 L254 252 Z M200 248 L202 249 L201 255 L199 254 Z M242 246 L244 245 L245 247 L243 248 Z M377 238 L379 239 L379 252 L378 253 L376 252 L376 239 Z M304 238 L305 239 L304 250 L298 270 L296 273 L292 271 L284 289 L281 290 L280 285 L291 265 L293 258 L295 255 L298 255 L298 251 L296 250 L297 248 L299 248 L298 242 Z M278 233 L280 234 L279 237 L276 236 Z M138 232 L139 237 L137 244 L132 251 L133 255 L127 259 L124 259 L123 256 L124 253 L127 251 L127 245 L129 240 L135 236 L136 232 Z M319 231 L327 235 L335 245 L339 257 L339 264 L334 275 L330 274 L328 277 L323 276 L322 279 L313 283 L312 280 L315 274 L317 260 L315 261 L315 267 L312 277 L310 280 L308 278 L315 249 L315 232 Z M302 231 L305 232 L304 237 L301 234 Z M312 230 L314 235 L314 244 L309 269 L301 291 L292 309 L287 315 L285 312 L286 308 L288 307 L288 305 L290 304 L290 302 L292 301 L293 297 L295 296 L304 275 L306 265 L305 265 L297 287 L285 307 L282 309 L278 305 L278 303 L284 290 L287 289 L288 291 L290 291 L291 287 L293 286 L303 262 L306 245 L309 244 L309 231 Z M184 235 L195 230 L211 232 L209 239 L214 241 L213 248 L219 249 L218 255 L222 257 L222 263 L227 264 L232 285 L231 291 L218 289 L216 266 L208 266 L207 250 L201 245 L199 245 L197 249 L194 249 L193 254 L189 256 L186 267 L186 275 L181 277 L179 274 L174 272 L171 262 L172 256 L177 243 Z M384 228 L391 231 L393 230 L396 231 L397 237 L396 249 L391 260 L385 260 L382 258 L381 250 L383 249 L384 252 L386 252 L385 245 L389 238 L386 232 L384 232 L382 237 L380 236 L380 232 Z M116 225 L118 226 L117 228 L118 230 L122 228 L126 228 L129 231 L128 234 L126 234 L125 231 L120 233 L120 237 L123 240 L123 243 L118 254 L116 253 L113 241 L113 232 Z M391 224 L394 225 L393 229 L389 227 Z M386 224 L379 230 L377 229 L381 223 Z M132 223 L134 222 L135 224 L133 225 Z M124 223 L128 222 L132 228 L130 229 Z M376 222 L378 219 L381 218 L385 219 L384 221 L381 221 L378 223 Z M129 219 L131 218 L133 221 L131 222 Z M288 218 L291 217 L292 220 L290 221 Z M220 218 L222 217 L223 220 L221 221 Z M125 218 L128 217 L129 219 L126 220 Z M136 215 L138 216 L139 219 L138 222 L135 219 Z M372 214 L374 215 L373 221 L371 220 Z M385 214 L387 213 L388 215 L386 216 Z M383 212 L385 211 L386 213 L384 214 Z M126 210 L127 212 L122 216 L121 214 Z M127 210 L130 207 L132 208 L129 211 Z M231 222 L235 219 L239 206 L243 208 L245 211 L254 214 L263 213 L269 210 L271 207 L274 207 L275 214 L281 222 L281 225 L279 229 L270 237 L265 239 L259 239 L257 237 L253 239 L247 239 L239 235 L234 230 Z M228 207 L230 206 L231 208 L229 209 Z M133 192 L135 191 L136 193 L134 194 Z M141 192 L142 190 L145 189 L148 190 L145 193 Z M286 186 L287 190 L284 192 L283 189 Z M227 186 L230 189 L229 193 L226 192 Z M121 187 L123 186 L127 190 L124 191 Z M222 176 L225 179 L224 182 L222 181 L221 178 Z M150 176 L151 177 L150 182 L145 186 L144 185 L145 178 Z M122 174 L124 174 L127 177 L126 184 L121 179 Z M292 173 L293 175 L290 183 L287 185 L286 183 L288 180 L288 175 Z M220 174 L222 173 L223 175 L221 176 Z M393 172 L394 182 L390 186 L389 183 L391 180 L391 173 Z M361 172 L363 173 L364 182 L363 185 L360 182 Z M222 171 L224 170 L225 172 L223 173 Z M143 170 L145 169 L147 173 L145 174 Z M129 168 L130 170 L127 173 L126 170 Z M136 166 L139 168 L142 175 L142 182 L138 187 L134 187 L130 183 L129 180 L130 175 Z M195 166 L197 165 L198 167 L196 168 Z M379 162 L381 163 L382 168 L381 172 L378 169 Z M375 161 L376 169 L373 172 L372 171 L373 162 Z M294 155 L296 154 L297 156 L295 157 Z M216 154 L218 153 L219 155 L217 156 Z M317 149 L320 152 L321 162 L319 163 L314 160 L310 160 L304 163 L304 165 L308 163 L316 164 L318 167 L315 171 L307 169 L307 172 L311 173 L312 175 L318 174 L317 168 L319 167 L326 185 L318 186 L316 184 L317 188 L319 188 L320 190 L312 192 L312 194 L316 195 L316 205 L314 207 L304 207 L297 204 L297 206 L300 208 L299 214 L292 214 L291 211 L293 208 L294 195 L291 193 L292 184 L296 175 L298 162 L301 160 L304 152 L310 149 Z M196 149 L203 149 L208 151 L211 154 L212 159 L215 161 L217 175 L221 184 L222 193 L219 195 L219 207 L222 211 L221 214 L213 213 L212 208 L216 206 L216 204 L209 207 L199 207 L196 204 L196 196 L201 194 L201 192 L192 190 L197 186 L197 184 L195 186 L188 185 L188 181 L194 167 L196 168 L195 174 L202 175 L206 172 L206 170 L200 170 L199 164 L205 163 L209 165 L208 162 L203 160 L199 160 L193 165 L191 164 L193 154 Z M280 142 L282 141 L283 143 L281 144 Z M296 141 L298 140 L299 142 L297 143 Z M285 141 L287 140 L288 142 L286 143 Z M272 141 L280 146 L284 161 L282 162 L276 157 L267 157 L261 163 L267 162 L268 165 L274 165 L268 161 L276 160 L284 164 L282 185 L278 196 L268 207 L260 211 L253 211 L243 206 L236 198 L231 186 L229 164 L237 160 L244 160 L244 163 L238 164 L234 169 L241 174 L250 172 L250 170 L247 168 L242 169 L239 167 L240 165 L246 165 L247 162 L252 165 L253 178 L252 182 L249 183 L249 187 L255 191 L246 192 L246 195 L254 202 L259 202 L262 196 L267 195 L267 192 L258 191 L264 187 L264 183 L255 187 L255 168 L252 161 L246 157 L237 157 L230 162 L231 151 L241 141 L253 141 L255 143 L265 140 Z M214 141 L216 140 L217 142 L215 143 Z M283 137 L285 136 L286 138 L284 139 Z M279 133 L281 132 L282 135 L280 136 Z M291 132 L293 131 L294 133 L292 134 Z M274 129 L277 131 L275 135 L273 134 Z M296 129 L298 128 L299 130 L297 131 Z M239 129 L241 128 L242 130 L240 131 Z M256 127 L259 129 L257 133 L255 132 Z M308 125 L312 128 L313 130 L312 133 L307 128 Z M214 126 L216 125 L217 127 L215 128 Z M205 125 L206 128 L204 131 L202 131 L201 129 Z M303 124 L306 127 L305 133 L301 132 L301 127 Z M211 124 L213 132 L208 134 L207 133 L208 125 Z M228 124 L230 123 L231 126 L229 127 Z M248 123 L250 122 L251 125 L249 126 Z M280 121 L283 120 L286 126 L283 127 Z M233 119 L234 121 L231 124 L230 121 Z M266 119 L268 118 L269 120 L267 121 Z M272 117 L275 119 L274 123 L271 122 Z M245 117 L247 118 L246 122 L244 121 Z M236 120 L240 117 L242 118 L241 122 L237 122 Z M258 117 L260 116 L261 119 L259 120 Z M254 115 L257 113 L259 116 L255 117 Z M299 110 L301 109 L302 111 L300 112 Z M305 108 L307 107 L308 109 L306 110 Z M205 108 L207 107 L208 109 L206 110 Z M268 99 L270 99 L275 107 L274 109 L272 109 L267 104 Z M246 98 L247 100 L244 107 L240 109 L239 106 L241 101 Z M206 94 L208 93 L209 95 L207 96 Z M255 93 L257 92 L258 94 L256 95 Z M205 88 L207 87 L208 90 L206 91 Z M307 86 L309 87 L308 91 L305 90 Z M255 85 L257 84 L258 86 L256 87 Z M248 70 L249 73 L247 77 L246 84 L244 85 L243 78 L246 71 Z M265 69 L267 70 L271 81 L270 85 L267 84 L266 75 L264 71 Z M254 64 L256 61 L259 63 L258 66 L255 66 Z M255 54 L257 53 L258 55 L256 56 Z M255 38 L258 37 L259 39 L256 40 Z M256 28 L259 30 L260 33 L259 35 L254 34 Z"/></svg>
