<svg xmlns="http://www.w3.org/2000/svg" width="512" height="512" viewBox="0 0 512 512" aria-hidden="true" focusable="false"><path fill="currentColor" fill-rule="evenodd" clip-rule="evenodd" d="M159 466 L158 470 L162 469 L162 467 Z M222 463 L222 465 L225 466 L225 463 Z M415 307 L414 311 L417 311 L417 307 Z M252 17 L245 26 L237 58 L239 68 L232 75 L237 82 L226 86 L230 90 L226 93 L227 103 L222 110 L216 108 L217 115 L207 124 L205 136 L199 137 L200 132 L194 128 L189 133 L194 148 L187 154 L193 158 L190 161 L180 156 L180 147 L172 148 L162 138 L162 119 L158 118 L159 105 L154 97 L138 86 L120 82 L111 86 L110 114 L117 132 L141 143 L149 156 L137 173 L125 176 L127 183 L120 185 L118 198 L99 220 L95 268 L115 279 L143 276 L146 280 L149 276 L152 280 L155 275 L158 280 L159 274 L182 273 L181 280 L188 284 L190 298 L202 316 L199 322 L188 321 L188 314 L183 314 L181 308 L178 324 L173 327 L176 339 L168 332 L166 339 L143 341 L140 338 L145 333 L131 327 L118 350 L107 353 L105 358 L92 354 L98 377 L95 383 L99 383 L104 404 L143 431 L143 455 L137 454 L121 472 L125 490 L138 488 L138 493 L165 495 L163 490 L172 491 L173 486 L181 492 L188 487 L210 488 L218 480 L219 468 L214 463 L223 454 L249 484 L273 495 L313 487 L315 478 L318 484 L325 477 L329 482 L344 478 L345 483 L351 479 L375 480 L382 473 L386 475 L399 456 L399 438 L417 410 L411 401 L419 392 L415 357 L385 322 L394 309 L403 310 L419 301 L419 280 L412 270 L417 263 L413 247 L399 264 L392 284 L395 292 L369 307 L376 296 L370 295 L372 287 L353 251 L352 227 L337 234 L331 223 L320 221 L326 213 L318 213 L322 208 L319 205 L307 212 L296 211 L301 199 L295 197 L305 188 L301 185 L304 177 L297 175 L304 173 L299 169 L306 166 L303 161 L309 162 L311 135 L306 131 L297 142 L297 129 L287 109 L275 103 L275 88 L266 81 L268 67 Z M271 487 L275 485 L280 486 L281 488 L272 489 Z M297 483 L299 482 L300 484 L298 485 Z M131 483 L133 482 L134 484 L132 485 Z M283 482 L286 481 L288 484 L284 485 Z M278 482 L280 481 L281 483 L279 484 Z M306 480 L308 479 L309 481 L307 482 Z M266 479 L267 481 L265 482 L265 485 L260 486 L259 484 L262 482 L262 480 Z M255 480 L258 479 L260 483 L258 484 Z M299 478 L301 477 L302 479 L300 480 Z M275 478 L278 477 L279 480 L276 481 Z M248 478 L251 477 L252 479 L249 480 Z M150 477 L153 485 L146 488 L145 485 L147 482 L147 479 Z M278 475 L282 474 L283 477 L281 478 Z M138 474 L139 478 L136 482 L133 482 L132 479 Z M366 474 L368 473 L369 475 L367 476 Z M131 473 L132 475 L128 477 L127 475 Z M314 473 L319 472 L320 474 L317 477 Z M144 473 L147 472 L148 474 L145 475 Z M362 471 L364 472 L363 476 L361 475 Z M286 470 L289 471 L288 476 L284 475 Z M266 471 L268 470 L269 472 L267 473 Z M255 471 L261 470 L263 473 L256 474 Z M132 471 L134 470 L135 472 L133 473 Z M242 470 L244 469 L245 471 L243 472 Z M351 468 L356 467 L357 471 L356 472 L352 471 Z M139 468 L146 467 L147 469 L140 470 Z M342 467 L344 466 L345 468 L343 469 Z M306 466 L307 471 L303 475 L300 475 L299 472 L304 470 L304 467 Z M278 464 L281 463 L282 465 L279 466 Z M358 463 L361 462 L362 464 L359 465 Z M303 462 L304 466 L301 469 L294 472 L292 467 Z M249 463 L251 462 L252 464 L250 465 Z M375 462 L376 461 L380 462 L381 465 L378 466 Z M387 459 L389 458 L390 461 L388 462 Z M336 460 L341 458 L345 462 L345 464 L343 465 L340 462 L337 462 Z M183 459 L186 458 L187 460 L184 461 Z M264 457 L266 466 L259 468 L258 465 L262 462 L262 458 Z M212 471 L212 474 L208 476 L208 480 L206 483 L204 481 L200 481 L198 478 L195 478 L194 484 L185 482 L170 483 L165 479 L164 474 L162 474 L162 479 L165 484 L164 486 L159 485 L156 479 L157 476 L156 474 L148 473 L153 469 L150 466 L151 463 L163 462 L166 465 L168 465 L167 461 L168 459 L172 459 L173 465 L176 466 L179 463 L191 464 L195 462 L200 462 L202 467 L204 467 L202 459 L205 457 L208 459 L210 463 L208 468 L209 470 Z M191 458 L194 457 L195 459 L192 460 Z M389 457 L391 456 L392 458 L390 459 Z M367 457 L373 456 L374 460 L369 462 Z M349 456 L351 457 L350 463 L347 460 Z M249 457 L252 456 L253 458 L250 459 Z M378 458 L380 454 L387 456 L386 458 L381 459 Z M361 453 L362 455 L355 461 L354 456 L358 453 Z M271 453 L274 456 L272 461 L270 460 Z M235 453 L238 456 L237 459 L233 457 Z M367 452 L369 451 L370 453 L368 454 Z M345 452 L347 451 L348 453 L346 454 Z M258 452 L260 451 L261 453 L259 454 Z M352 451 L354 450 L355 452 L353 453 Z M323 450 L325 451 L326 456 L329 461 L328 463 L326 462 L322 453 Z M237 451 L240 450 L242 454 L240 455 Z M335 449 L339 452 L340 455 L339 457 L334 452 Z M227 450 L230 449 L231 452 L229 453 Z M209 453 L213 449 L219 452 L217 456 L215 456 L214 454 L210 455 Z M192 450 L194 449 L196 452 L193 453 Z M377 447 L379 448 L378 453 L375 452 L375 449 Z M243 448 L244 447 L251 448 L252 450 L249 453 L245 451 Z M232 448 L234 447 L235 449 L233 450 Z M219 448 L221 447 L222 450 L220 451 Z M348 447 L351 446 L352 449 L350 450 Z M339 448 L343 446 L345 450 L342 451 Z M321 447 L323 446 L324 449 L322 450 Z M306 446 L308 445 L309 448 L307 449 Z M147 446 L149 445 L150 447 L148 448 Z M329 445 L331 444 L332 446 L330 447 Z M359 443 L363 445 L364 449 L363 451 L358 446 Z M224 444 L226 443 L227 445 L225 446 Z M343 443 L347 442 L348 444 L344 445 Z M180 443 L182 442 L183 444 L181 445 Z M167 443 L164 449 L164 452 L168 454 L167 457 L164 457 L162 454 L160 454 L160 459 L158 460 L156 456 L154 456 L153 458 L149 458 L146 456 L146 454 L149 451 L149 448 L153 446 L152 445 L153 443 L156 444 L157 448 L159 448 L165 442 Z M386 442 L388 441 L389 443 L387 444 Z M366 440 L369 439 L372 442 L367 443 Z M282 439 L286 443 L285 446 L286 453 L277 455 L276 451 L278 450 L278 447 L275 448 L274 445 L280 439 Z M199 439 L200 441 L196 444 L195 442 Z M303 441 L304 444 L301 445 L297 449 L298 450 L303 449 L304 450 L303 455 L299 457 L294 463 L289 463 L288 462 L289 456 L295 454 L295 452 L289 451 L289 445 L292 444 L291 440 L294 438 L297 443 L299 440 Z M158 439 L162 438 L163 440 L160 442 Z M356 438 L358 437 L359 439 L357 440 Z M348 437 L350 438 L349 442 L347 441 Z M267 437 L268 440 L265 443 L263 443 L261 440 Z M243 438 L244 437 L251 438 L252 440 L247 441 L244 440 Z M273 436 L276 435 L277 437 L274 438 Z M239 435 L241 439 L233 442 L232 440 L237 435 Z M170 435 L173 436 L171 440 L168 439 Z M153 435 L155 434 L156 436 L154 437 Z M365 434 L367 433 L368 435 L366 436 Z M330 434 L334 433 L335 438 L333 439 Z M267 434 L269 433 L270 435 L268 436 Z M359 433 L361 432 L363 436 L361 437 Z M343 432 L344 433 L343 439 L337 443 L336 442 L337 439 L340 438 L339 433 Z M379 432 L382 431 L383 433 L380 434 Z M239 432 L242 431 L243 433 L240 434 Z M192 432 L194 431 L195 433 L193 434 Z M309 431 L311 430 L312 432 L310 433 Z M295 430 L299 429 L300 431 L296 432 Z M213 429 L219 430 L214 435 L214 437 L220 438 L219 443 L212 444 L208 440 L210 436 L208 436 L207 434 L212 433 Z M350 429 L353 428 L354 430 L351 431 Z M311 429 L313 428 L314 430 L312 431 Z M247 429 L250 428 L251 431 L248 432 Z M235 427 L236 429 L233 431 L232 429 Z M353 426 L355 425 L356 428 L354 429 Z M314 426 L316 425 L317 427 L315 428 Z M270 425 L274 427 L272 430 L268 428 Z M260 426 L262 425 L263 427 L261 428 Z M398 426 L401 424 L404 427 L399 428 Z M396 425 L394 429 L390 430 L388 429 L393 424 Z M372 424 L373 426 L371 427 L371 430 L369 431 L368 425 Z M304 425 L306 424 L308 427 L305 429 Z M204 425 L206 424 L207 426 L205 427 Z M361 426 L364 423 L367 424 L364 427 Z M165 424 L167 423 L168 425 L166 426 Z M290 424 L294 422 L296 423 L295 426 L291 426 Z M249 422 L253 421 L254 424 L250 425 Z M389 420 L391 419 L392 421 L390 422 Z M308 422 L310 419 L314 420 L311 423 Z M260 419 L261 422 L257 424 L256 421 Z M207 420 L210 419 L212 423 L210 424 Z M199 420 L201 419 L202 421 L200 422 Z M319 418 L322 420 L320 425 L317 423 Z M375 417 L378 420 L377 425 L374 423 Z M276 417 L279 419 L278 425 L275 424 Z M237 418 L242 417 L243 419 L239 421 Z M345 417 L347 416 L348 418 L346 419 Z M193 417 L195 416 L196 418 L194 419 Z M169 417 L171 416 L173 419 L170 420 Z M300 415 L302 416 L303 419 L301 423 L298 422 L298 418 Z M268 416 L270 415 L271 417 L269 418 Z M249 416 L251 415 L252 417 L250 418 Z M368 414 L370 415 L371 418 L370 420 L367 417 Z M329 414 L334 420 L331 423 L328 420 Z M402 414 L406 413 L408 418 L404 420 Z M159 413 L160 415 L158 416 L157 419 L152 424 L150 424 L149 420 L153 418 L157 413 Z M141 414 L143 413 L144 415 L142 416 Z M393 413 L397 412 L398 414 L394 415 Z M362 412 L364 413 L366 418 L363 422 L357 421 L356 420 L357 418 L361 418 Z M195 415 L198 412 L201 413 L200 417 L196 417 Z M384 412 L387 411 L388 413 L385 414 Z M322 415 L324 411 L328 413 L325 417 Z M296 412 L298 411 L299 413 L297 414 Z M226 411 L228 412 L229 415 L228 418 L223 417 Z M206 412 L212 411 L213 413 L210 416 L208 416 Z M352 411 L354 410 L355 412 L353 413 Z M286 410 L288 411 L289 415 L288 417 L285 415 Z M269 411 L271 410 L272 412 L270 413 Z M125 412 L130 410 L131 415 L129 416 Z M363 410 L365 409 L366 411 L364 412 Z M340 409 L342 410 L341 416 L339 415 Z M253 409 L257 408 L258 412 L255 413 Z M333 408 L336 407 L337 410 L334 411 Z M181 407 L186 414 L183 422 L181 423 L182 428 L186 430 L183 423 L191 422 L193 426 L190 427 L189 433 L190 435 L193 436 L193 438 L189 442 L188 440 L185 440 L182 437 L181 441 L177 442 L177 444 L174 445 L173 442 L176 440 L177 437 L172 435 L172 432 L170 431 L170 429 L177 428 L177 426 L174 423 L176 419 L181 419 L178 415 L179 408 Z M149 408 L152 407 L153 410 L150 411 Z M294 407 L297 406 L298 408 L295 409 Z M161 406 L164 407 L162 411 L159 410 Z M275 406 L277 405 L278 407 L276 408 Z M143 406 L145 405 L146 407 L144 408 Z M130 406 L133 405 L136 408 L132 410 Z M407 405 L409 404 L411 408 L409 409 Z M304 405 L306 404 L307 407 L305 408 Z M211 405 L213 404 L214 406 L212 407 Z M167 405 L169 404 L171 407 L168 408 Z M215 404 L217 403 L218 405 L216 406 Z M397 402 L401 405 L400 408 L398 408 L395 405 Z M389 403 L392 402 L393 405 L391 406 Z M326 407 L329 402 L335 405 L334 407 L331 407 L330 409 Z M356 400 L357 402 L353 404 L352 402 Z M338 401 L340 400 L341 402 L339 403 Z M245 401 L247 400 L248 402 L246 403 Z M347 400 L349 399 L350 401 L348 402 Z M324 400 L326 399 L327 401 L325 402 Z M240 399 L243 401 L242 405 L237 404 L237 402 Z M119 399 L120 402 L114 405 L113 402 Z M225 398 L226 403 L223 410 L221 411 L220 410 L223 399 Z M199 399 L202 398 L203 401 L200 402 Z M191 399 L194 398 L195 400 L192 401 Z M168 399 L170 398 L171 400 L169 401 Z M146 398 L149 399 L147 405 L145 404 Z M128 399 L132 398 L133 401 L131 402 Z M271 398 L274 397 L275 399 L272 400 Z M153 398 L155 397 L158 398 L159 400 L154 402 Z M379 399 L381 396 L384 398 L383 401 L380 401 Z M333 397 L337 396 L338 399 L335 400 Z M288 397 L291 396 L292 400 L289 401 Z M284 396 L286 397 L285 403 L283 402 Z M237 396 L238 398 L235 401 L233 401 L232 399 L235 396 Z M211 396 L214 397 L212 400 L209 399 Z M134 397 L136 396 L137 398 L135 399 Z M359 400 L362 394 L367 397 L364 400 L361 401 Z M309 394 L310 398 L306 399 L306 401 L304 402 L303 398 Z M379 394 L381 393 L382 395 L380 396 Z M349 393 L352 394 L350 398 L347 397 Z M191 394 L193 393 L194 395 L192 396 Z M158 394 L160 393 L161 396 L159 397 Z M313 392 L318 395 L318 399 L320 401 L319 405 L317 404 L316 401 L312 400 Z M147 393 L150 392 L151 395 L149 396 Z M325 391 L327 392 L326 396 L324 395 Z M277 392 L280 391 L281 393 L278 394 Z M271 392 L274 391 L276 394 L272 396 Z M209 392 L211 391 L212 393 L210 394 Z M331 390 L333 391 L332 395 L329 394 Z M184 391 L187 390 L188 392 L185 393 Z M164 390 L166 391 L165 401 L163 400 Z M121 391 L124 390 L125 393 L123 394 Z M106 391 L108 390 L109 392 L107 393 Z M304 390 L307 389 L308 391 L305 392 Z M299 390 L301 389 L302 392 L300 393 Z M110 390 L112 389 L113 391 L111 392 Z M344 388 L346 389 L345 393 L342 391 Z M225 388 L227 389 L226 396 L224 395 Z M138 389 L141 388 L144 394 L143 395 L139 394 Z M313 388 L315 387 L316 389 L314 390 Z M235 388 L237 387 L238 389 L236 390 Z M131 387 L134 386 L136 391 L135 392 L132 391 Z M381 386 L386 385 L388 388 L392 388 L393 394 L392 395 L385 394 Z M356 386 L363 385 L364 387 L361 389 L357 388 Z M350 386 L352 385 L353 387 L351 388 Z M238 386 L240 385 L241 387 L239 388 Z M156 386 L158 385 L159 387 L157 388 Z M144 386 L146 385 L147 388 L145 389 Z M125 386 L128 385 L129 387 L126 388 Z M115 385 L117 386 L116 390 L114 389 Z M371 384 L372 388 L368 392 L365 392 L364 390 L368 388 L368 386 Z M232 385 L234 384 L235 386 L233 387 Z M216 384 L217 386 L214 388 L213 386 Z M201 385 L203 384 L204 386 L202 387 Z M172 384 L174 385 L175 390 L174 392 L170 389 Z M105 385 L107 384 L108 387 L106 388 Z M333 385 L337 383 L341 387 L337 388 L334 387 Z M413 381 L414 384 L410 385 L408 388 L408 390 L410 390 L411 393 L409 396 L406 395 L408 399 L404 403 L401 400 L399 393 L401 391 L403 391 L404 393 L406 392 L403 388 L405 382 Z M373 382 L375 381 L376 383 L374 384 Z M271 381 L273 382 L272 388 L267 386 L268 384 L270 384 Z M147 382 L149 381 L152 386 L151 387 L148 386 Z M131 382 L138 381 L139 385 L136 386 L135 384 L132 384 Z M349 380 L351 379 L352 381 L350 382 Z M343 380 L345 379 L347 383 L345 384 Z M284 379 L285 381 L283 383 L283 386 L281 387 L279 384 L279 381 Z M253 378 L256 380 L256 393 L255 394 L257 396 L256 403 L252 401 L252 379 Z M259 378 L261 377 L263 381 L261 382 Z M226 377 L228 378 L227 382 L225 381 Z M178 378 L180 377 L184 381 L184 383 L181 384 L178 381 Z M156 378 L158 377 L159 379 L157 380 Z M106 380 L107 377 L111 378 L109 382 Z M241 377 L243 376 L244 378 L242 379 Z M193 381 L196 376 L200 376 L203 378 L202 381 L197 379 L198 381 L197 384 Z M295 375 L297 375 L298 377 L296 381 L293 381 L292 378 Z M114 376 L116 375 L117 377 L115 378 Z M343 375 L345 374 L346 377 L344 378 Z M329 375 L333 374 L336 378 L330 379 Z M300 374 L303 376 L302 380 L299 378 Z M207 375 L209 374 L210 376 L208 377 Z M286 374 L288 373 L289 375 L287 376 Z M167 373 L170 376 L171 379 L170 381 L166 381 L164 378 L164 376 Z M321 372 L324 375 L321 379 L321 382 L318 385 L314 385 L313 383 L316 382 L319 376 L315 378 L313 376 L316 372 Z M123 372 L127 381 L125 382 L124 380 L122 380 L123 385 L120 386 L119 377 L120 374 Z M106 373 L108 372 L109 374 L107 375 Z M130 373 L133 371 L135 374 L131 375 Z M278 370 L279 374 L275 376 L274 373 L276 370 Z M185 370 L188 371 L186 378 L184 377 Z M140 371 L143 370 L145 374 L141 375 Z M100 371 L102 370 L103 373 L101 374 Z M323 369 L328 368 L329 371 L325 372 Z M149 369 L151 368 L152 370 L150 371 Z M108 369 L110 368 L111 370 L109 371 Z M306 370 L308 367 L313 368 L312 370 L309 371 Z M126 367 L128 366 L131 369 L128 370 Z M342 366 L344 365 L345 367 L343 368 Z M165 365 L166 368 L162 370 L161 368 Z M110 367 L112 365 L115 366 L114 369 L111 369 Z M413 364 L414 369 L411 370 L411 375 L408 376 L406 367 L410 364 Z M278 365 L280 364 L281 366 L279 367 Z M175 364 L179 366 L177 372 L174 370 L173 367 Z M118 365 L121 364 L122 366 L119 367 Z M323 364 L326 363 L327 365 L324 366 Z M138 362 L139 364 L138 367 L136 368 L134 364 Z M213 361 L215 362 L214 369 L212 368 Z M145 362 L147 361 L148 363 L146 364 Z M98 362 L100 361 L102 365 L100 366 Z M311 360 L313 361 L312 365 L309 364 Z M411 358 L412 361 L409 364 L406 364 L404 362 L405 360 L408 360 Z M190 359 L192 358 L195 363 L193 364 L190 361 Z M309 358 L311 357 L312 359 L310 360 Z M247 357 L248 359 L245 361 L244 359 Z M226 358 L228 357 L229 359 L227 360 Z M112 358 L114 357 L116 360 L114 361 Z M199 357 L201 356 L202 358 L200 359 Z M332 356 L335 355 L336 357 L333 358 Z M293 356 L295 355 L296 357 L294 358 Z M251 360 L255 355 L260 356 L257 360 L254 361 Z M174 355 L176 360 L171 362 L170 359 Z M320 355 L323 354 L324 357 L321 358 Z M298 355 L300 354 L301 356 L299 357 Z M180 355 L183 354 L184 357 L181 358 Z M154 355 L157 354 L158 357 L156 358 Z M139 355 L143 354 L144 357 L141 358 Z M409 353 L408 355 L404 357 L402 356 L406 352 Z M246 353 L248 352 L249 354 L247 355 Z M167 353 L170 352 L171 354 L168 355 Z M126 352 L128 355 L124 360 L121 359 L122 353 Z M316 352 L321 351 L322 353 L317 354 Z M136 352 L139 351 L140 354 L138 355 Z M323 350 L326 349 L328 353 L327 354 L324 353 Z M254 350 L257 349 L258 352 L256 353 Z M172 349 L174 348 L175 350 L173 351 Z M148 349 L151 348 L152 351 L150 352 Z M237 347 L238 351 L232 354 L231 353 L232 350 Z M224 348 L227 347 L229 350 L225 351 Z M163 348 L165 347 L166 349 L164 350 Z M333 347 L335 346 L339 351 L335 352 L333 350 Z M238 346 L240 345 L241 347 L239 348 Z M319 344 L321 345 L320 349 L318 348 Z M314 345 L316 344 L317 346 L315 347 Z M261 345 L263 344 L264 347 L262 348 Z M150 345 L152 344 L153 346 L151 347 Z M398 344 L399 343 L402 344 L403 347 L402 348 L399 347 Z M192 343 L194 342 L195 344 L193 345 Z M168 343 L169 342 L172 343 L173 346 L171 347 Z M127 343 L130 342 L131 344 L128 345 Z M274 342 L276 341 L277 343 L275 344 Z M224 338 L225 340 L222 345 L219 346 L217 343 L220 342 Z M279 337 L281 336 L282 338 L280 339 Z M388 340 L390 335 L395 338 L391 342 Z M186 336 L188 335 L189 338 L187 339 Z M272 334 L273 338 L270 340 L271 344 L268 345 L264 338 Z M215 334 L217 333 L218 335 L216 336 Z M135 332 L137 331 L138 333 L136 334 Z M180 330 L182 331 L183 334 L182 338 L179 335 Z M207 330 L212 329 L213 331 L209 333 Z M275 328 L279 330 L277 333 L273 331 Z M384 327 L386 331 L381 333 L379 329 Z M219 324 L221 323 L222 325 L220 326 Z M189 324 L193 323 L194 326 L192 327 Z M376 323 L381 322 L382 324 L378 326 Z M304 320 L306 321 L305 325 L303 324 Z M285 320 L287 321 L286 324 L283 323 Z M214 318 L213 322 L208 323 L206 322 L206 320 L210 317 Z M246 317 L250 316 L251 318 L247 319 Z M223 328 L226 327 L230 331 L233 331 L238 326 L232 325 L229 322 L229 320 L237 316 L238 318 L236 319 L236 322 L238 323 L242 322 L245 318 L247 319 L247 322 L250 323 L257 322 L258 327 L255 332 L257 333 L262 328 L263 335 L261 336 L260 342 L258 343 L254 342 L253 338 L249 339 L245 337 L242 334 L244 330 L241 331 L238 330 L237 337 L230 338 L227 336 L227 334 L223 332 Z M271 314 L279 315 L281 317 L280 324 L283 323 L284 326 L279 327 L277 325 L276 319 L273 319 L270 322 L268 320 Z M319 312 L321 313 L322 317 L321 319 L317 317 Z M262 310 L267 309 L269 312 L265 316 L262 313 Z M302 330 L308 328 L312 321 L322 322 L323 325 L328 322 L334 328 L337 321 L348 319 L366 308 L373 309 L373 320 L370 321 L374 326 L372 330 L399 357 L397 361 L402 364 L399 366 L399 369 L403 370 L402 380 L398 382 L399 387 L393 389 L389 383 L380 383 L379 373 L373 379 L368 377 L364 382 L359 382 L356 379 L356 372 L351 375 L351 371 L356 369 L354 364 L357 360 L346 358 L342 354 L345 347 L338 347 L335 341 L335 335 L339 334 L338 331 L333 334 L329 333 L331 337 L328 340 L317 341 L318 334 L314 334 L309 339 Z M253 309 L257 308 L258 310 L254 311 Z M227 311 L228 308 L231 309 L229 312 Z M380 306 L383 309 L382 313 L377 311 Z M296 310 L298 306 L302 308 L299 311 Z M404 304 L406 303 L407 305 L405 306 Z M407 298 L410 297 L411 299 L408 300 Z M239 298 L241 297 L243 300 L240 301 Z M233 296 L235 295 L236 298 L234 299 Z M224 296 L227 295 L228 298 L226 299 Z M302 293 L304 296 L302 297 L302 300 L299 303 L298 294 Z M313 291 L315 290 L316 292 L314 293 Z M230 289 L233 290 L231 295 L229 294 Z M214 288 L217 290 L217 292 L212 297 L219 296 L224 301 L222 308 L218 310 L218 312 L221 314 L219 319 L214 314 L207 317 L205 315 L205 313 L207 312 L207 307 L202 306 L203 304 L206 303 L206 299 L203 299 L202 301 L198 299 L198 297 L203 292 L212 293 L212 290 Z M218 286 L221 285 L222 287 L219 288 Z M406 284 L407 288 L403 290 L402 289 L403 285 Z M196 285 L199 284 L200 286 L197 287 Z M311 280 L313 279 L315 283 L312 284 Z M303 278 L305 279 L305 282 L308 284 L307 286 L304 286 L301 284 Z M208 278 L211 283 L211 286 L205 290 L204 285 L206 283 L206 279 Z M212 278 L214 277 L216 280 L213 281 Z M410 276 L411 280 L408 282 L407 280 L408 277 Z M403 277 L405 276 L406 279 L404 280 Z M325 278 L327 276 L331 276 L333 279 L326 280 Z M242 278 L243 275 L247 276 L245 279 Z M209 275 L211 274 L212 276 L210 277 Z M406 272 L409 271 L410 273 L407 274 Z M256 271 L261 274 L261 280 L266 276 L268 276 L269 274 L272 274 L275 272 L278 274 L274 279 L276 281 L276 284 L280 286 L280 289 L276 292 L278 294 L282 293 L283 297 L280 298 L280 300 L274 305 L272 305 L271 307 L268 307 L266 303 L263 303 L262 305 L256 304 L250 301 L249 297 L243 296 L241 294 L242 292 L244 292 L245 289 L248 288 L249 293 L251 296 L253 296 L248 283 L250 281 L253 281 L253 274 Z M203 268 L206 274 L201 277 L202 281 L192 282 L189 279 L191 274 L194 273 L195 275 L199 276 L196 271 Z M236 266 L238 265 L239 267 L237 268 Z M206 266 L208 265 L209 267 L207 268 Z M262 265 L266 264 L267 267 L263 268 Z M251 264 L252 267 L250 268 L250 271 L248 272 L247 268 Z M223 263 L225 263 L226 267 L230 268 L231 271 L235 270 L237 272 L227 282 L224 283 L220 280 L220 278 L224 275 L223 274 L217 275 L214 271 L214 268 L217 266 L223 268 L222 265 Z M212 262 L214 261 L215 264 L213 265 Z M319 261 L322 260 L323 262 L320 263 Z M352 258 L357 266 L355 272 L359 271 L360 274 L358 277 L363 277 L363 280 L360 282 L365 284 L366 292 L362 294 L362 297 L366 298 L366 302 L361 309 L347 315 L339 313 L336 314 L334 318 L328 318 L328 313 L322 313 L321 307 L317 309 L314 308 L318 302 L313 297 L320 295 L319 286 L323 285 L324 288 L327 288 L328 283 L330 284 L330 287 L336 285 L341 286 L343 283 L346 285 L346 288 L349 288 L352 280 L348 282 L346 281 L347 278 L339 280 L338 278 L340 275 L336 277 L332 270 L336 268 L341 272 L345 272 L339 264 L342 263 L345 265 L350 263 L350 259 Z M273 259 L277 258 L278 261 L275 262 Z M205 259 L208 258 L209 261 L206 262 Z M149 259 L151 258 L152 260 L150 261 Z M339 256 L341 259 L335 262 L334 259 Z M176 256 L180 257 L179 266 L174 265 L175 263 L174 260 Z M168 257 L170 256 L171 258 L169 259 Z M313 255 L314 257 L311 260 L310 257 Z M239 255 L242 254 L243 256 L240 257 Z M324 251 L327 252 L328 256 L327 258 L324 256 L323 253 Z M306 251 L308 252 L307 256 L305 255 Z M206 252 L209 251 L210 254 L207 256 Z M292 249 L296 251 L296 255 L300 253 L303 254 L302 260 L296 262 L296 264 L300 265 L301 267 L297 275 L294 274 L292 276 L293 280 L292 281 L287 280 L287 283 L284 284 L281 275 L284 272 L284 269 L281 270 L279 269 L280 261 L285 258 L285 251 L287 249 Z M201 249 L202 251 L196 257 L198 260 L202 258 L203 264 L201 265 L200 268 L195 268 L186 272 L185 268 L188 267 L188 264 L192 262 L192 260 L189 259 L184 260 L183 254 L190 252 L196 252 L197 249 Z M168 252 L169 249 L172 250 L170 253 Z M316 248 L320 247 L321 249 L317 250 Z M232 247 L234 246 L235 248 L233 249 Z M148 245 L151 247 L152 251 L151 255 L149 254 L147 247 Z M321 245 L323 244 L324 246 L322 247 Z M234 245 L236 244 L237 246 L235 247 Z M279 244 L281 243 L282 246 L280 247 Z M139 242 L141 243 L140 246 L137 245 Z M221 241 L223 240 L224 242 L222 243 Z M251 240 L254 239 L255 241 L252 242 Z M241 240 L243 239 L244 241 L242 242 Z M285 239 L287 238 L288 241 L286 242 Z M293 238 L295 237 L296 239 L294 240 Z M154 237 L156 236 L157 238 L155 239 Z M216 236 L219 235 L220 238 L218 239 Z M200 236 L202 235 L203 237 L201 238 Z M164 236 L166 235 L167 237 L165 238 Z M268 234 L260 240 L258 239 L260 236 L266 233 Z M326 233 L329 232 L331 235 L328 236 Z M255 230 L259 229 L260 232 L256 234 Z M211 230 L213 229 L214 231 L212 232 Z M262 228 L264 227 L265 229 L263 230 Z M325 228 L324 231 L325 238 L322 240 L319 237 L317 237 L315 246 L308 247 L306 244 L303 244 L301 250 L298 251 L295 250 L294 244 L297 242 L300 242 L303 239 L301 234 L303 233 L307 238 L308 237 L308 232 L305 231 L306 229 L310 228 L311 230 L316 230 L316 227 L318 224 Z M183 225 L185 224 L186 226 L184 227 Z M192 224 L194 223 L195 225 L193 226 Z M312 223 L314 222 L315 224 L313 225 Z M276 222 L277 224 L273 228 L272 226 Z M262 222 L264 221 L265 223 L263 224 Z M172 222 L175 221 L177 224 L177 227 L182 226 L184 227 L184 231 L187 232 L184 237 L184 241 L188 240 L194 234 L197 236 L196 243 L189 244 L187 248 L185 248 L184 245 L179 244 L181 249 L176 251 L173 245 L176 243 L178 238 L168 232 L169 229 L175 228 Z M214 219 L216 220 L218 227 L227 236 L226 238 L221 235 L216 229 L213 223 Z M130 223 L131 219 L138 220 L137 222 L134 222 L132 224 Z M295 216 L297 215 L298 218 L296 219 Z M125 216 L127 215 L128 217 L126 218 Z M110 215 L114 217 L117 224 L122 223 L124 229 L134 225 L138 226 L138 229 L133 231 L136 238 L134 243 L130 244 L131 249 L126 254 L124 251 L121 254 L126 262 L130 261 L128 256 L132 252 L140 252 L144 254 L145 257 L141 260 L141 265 L144 269 L141 273 L128 273 L126 268 L118 269 L118 271 L115 272 L112 270 L111 266 L103 265 L103 258 L98 257 L99 239 L104 234 L102 230 L105 223 L109 223 L108 218 Z M245 215 L247 214 L250 217 L250 219 L246 220 Z M188 215 L190 214 L191 216 L189 217 Z M213 214 L215 213 L216 216 L214 217 Z M200 213 L201 215 L198 217 L197 215 Z M180 213 L182 212 L184 215 L182 216 Z M200 212 L203 211 L204 213 L201 214 Z M124 211 L126 210 L127 213 L125 214 Z M134 210 L136 209 L137 211 L135 212 Z M120 209 L121 212 L118 214 L117 212 Z M250 209 L253 208 L256 212 L252 213 Z M224 208 L230 209 L232 213 L236 212 L240 213 L237 225 L245 224 L246 222 L248 223 L247 227 L245 228 L245 231 L240 237 L234 236 L233 229 L232 228 L226 229 L224 227 L224 222 L219 220 L220 215 L225 215 L225 211 L223 210 Z M198 207 L199 209 L194 212 L193 210 L196 207 Z M260 208 L266 205 L270 206 L269 210 L262 211 Z M241 205 L244 204 L245 207 L242 208 Z M119 205 L122 204 L123 206 L120 207 Z M295 203 L296 207 L294 210 L289 211 L288 210 L289 206 Z M176 205 L183 203 L184 208 L183 209 L178 208 Z M280 202 L282 203 L281 210 L276 207 Z M254 202 L256 201 L257 203 L255 204 Z M123 202 L125 201 L126 204 L124 205 Z M226 200 L228 201 L227 205 L225 204 Z M269 199 L272 198 L273 200 L270 201 Z M276 198 L278 197 L279 199 L277 200 Z M282 197 L284 196 L286 199 L283 200 Z M245 196 L247 195 L251 201 L246 202 Z M189 195 L192 196 L190 199 L194 201 L193 204 L190 204 L187 201 L187 198 Z M262 194 L264 193 L265 195 L263 196 Z M235 193 L238 196 L238 198 L233 201 L231 196 Z M130 193 L132 192 L134 196 L132 197 Z M187 191 L188 195 L184 197 L183 195 Z M178 194 L181 199 L175 201 L174 206 L170 208 L171 210 L174 211 L174 213 L171 214 L169 217 L167 217 L166 221 L163 222 L162 220 L160 220 L158 224 L149 226 L148 223 L144 221 L146 211 L150 207 L153 209 L153 214 L152 215 L149 214 L148 216 L152 218 L155 215 L156 210 L154 205 L155 203 L154 200 L156 198 L158 200 L160 199 L159 196 L156 195 L157 193 L164 195 L165 191 L168 190 L170 195 Z M181 189 L183 188 L184 190 L182 191 Z M241 188 L243 187 L246 190 L242 191 Z M171 186 L173 187 L172 191 L170 190 Z M296 186 L294 189 L290 191 L288 190 L289 187 L293 185 Z M256 185 L258 184 L259 186 L257 187 Z M176 184 L178 183 L179 186 L177 187 Z M254 183 L256 182 L257 184 L255 185 Z M276 182 L279 181 L280 184 L278 185 Z M244 182 L246 181 L247 184 L245 185 Z M260 177 L262 176 L264 179 L269 179 L270 181 L268 182 L268 184 L274 185 L275 188 L277 188 L279 192 L275 195 L272 193 L273 189 L265 188 L264 187 L265 183 L259 180 Z M220 177 L222 176 L223 178 L221 179 Z M201 176 L204 183 L201 186 L199 186 L199 194 L197 195 L193 191 L196 187 L194 184 L197 181 L196 178 L198 176 Z M183 175 L185 174 L186 176 L184 177 Z M288 173 L290 175 L287 178 L287 180 L289 181 L288 186 L284 188 L280 188 L279 186 L284 183 L284 181 L281 181 L280 179 L285 174 Z M244 173 L247 172 L248 174 L258 174 L259 176 L257 178 L245 176 Z M211 173 L213 172 L214 174 L212 175 Z M215 171 L218 170 L219 173 L217 174 Z M283 170 L283 172 L278 177 L272 175 L273 173 L276 173 L276 171 L279 169 Z M172 170 L177 169 L178 174 L176 175 Z M271 168 L273 166 L276 167 L275 170 L272 170 Z M240 165 L241 169 L238 170 L238 173 L240 174 L241 177 L240 178 L233 177 L235 181 L231 182 L232 188 L227 189 L226 188 L227 182 L230 179 L228 174 L233 173 L235 171 L235 169 L232 169 L231 167 Z M196 163 L198 166 L198 168 L195 170 L196 175 L194 178 L194 181 L189 184 L188 183 L189 174 L191 173 L191 171 L188 171 L186 167 Z M266 161 L269 160 L270 163 L267 165 Z M246 161 L248 160 L249 162 L247 163 Z M248 158 L250 157 L251 160 L249 161 Z M169 158 L175 157 L176 159 L170 160 Z M233 155 L238 160 L237 163 L232 161 L231 157 Z M263 154 L266 156 L267 159 L266 161 L261 157 Z M178 164 L177 166 L173 166 L170 168 L169 172 L171 172 L174 176 L170 178 L168 175 L166 175 L168 183 L167 184 L163 183 L162 188 L156 187 L155 191 L148 191 L145 187 L141 188 L138 187 L139 183 L137 183 L136 180 L137 179 L141 180 L143 178 L141 174 L143 172 L146 172 L145 168 L151 160 L154 161 L156 159 L154 157 L156 154 L165 156 L166 160 L170 163 Z M204 154 L206 153 L210 155 L211 157 L208 158 Z M271 152 L274 153 L272 156 L269 155 Z M281 153 L283 151 L285 153 L289 152 L293 157 L292 158 L284 157 Z M301 151 L303 150 L304 152 L302 153 Z M256 150 L260 151 L258 156 L255 155 Z M249 150 L252 151 L253 155 L252 157 L246 155 Z M162 154 L164 150 L170 151 L169 153 L166 153 L164 155 Z M197 149 L199 148 L201 151 L198 152 Z M238 147 L241 146 L244 149 L239 150 Z M266 145 L267 148 L264 150 L263 147 Z M288 145 L287 147 L281 149 L277 146 L278 144 L284 145 L285 143 Z M236 144 L238 143 L239 145 L237 146 Z M266 143 L269 142 L270 145 L267 146 Z M252 143 L257 142 L258 145 L253 146 Z M270 141 L272 139 L276 140 L275 143 L271 143 Z M258 140 L260 139 L261 142 L259 143 Z M252 140 L252 143 L248 145 L241 143 L242 140 L244 140 L245 142 L248 142 L249 139 Z M218 138 L219 140 L216 142 L215 140 Z M228 136 L230 135 L231 137 L229 138 Z M253 134 L256 133 L257 135 L254 136 Z M233 134 L235 133 L236 135 L234 136 Z M146 133 L148 132 L149 134 L147 135 Z M265 131 L267 130 L268 133 L266 134 Z M135 130 L138 131 L136 136 L134 135 Z M153 129 L155 128 L156 130 L154 131 Z M223 126 L226 125 L227 127 L224 128 Z M127 124 L129 123 L130 125 L128 126 Z M143 122 L146 121 L147 123 L144 124 Z M131 121 L133 120 L134 122 L132 123 Z M233 119 L235 120 L234 123 L231 122 Z M151 120 L154 119 L155 121 L152 122 Z M122 119 L124 118 L126 121 L124 122 Z M254 119 L258 117 L260 121 L255 122 Z M241 118 L243 117 L244 119 L242 120 Z M134 118 L136 117 L137 119 L135 120 Z M223 117 L227 116 L228 119 L226 120 Z M236 116 L238 115 L239 117 L237 118 Z M125 116 L127 115 L128 117 L126 118 Z M138 113 L140 112 L141 115 L139 116 Z M267 112 L269 111 L270 114 L268 115 Z M244 111 L246 110 L247 112 L245 113 Z M256 108 L257 110 L254 113 L253 110 Z M128 106 L132 110 L130 113 L127 110 Z M131 104 L133 103 L134 106 L132 107 Z M230 99 L232 98 L234 101 L232 102 Z M131 93 L132 96 L127 100 L126 96 Z M251 87 L254 85 L256 88 L252 89 Z M254 77 L256 76 L257 78 L255 79 Z"/></svg>
