<svg xmlns="http://www.w3.org/2000/svg" width="512" height="512" viewBox="0 0 512 512" aria-hidden="true" focusable="false"><path fill="currentColor" fill-rule="evenodd" clip-rule="evenodd" d="M255 287 L251 293 L255 295 L253 303 L255 303 L257 306 L256 310 L259 311 L260 314 L259 317 L263 318 L270 326 L273 327 L277 332 L279 332 L283 336 L286 342 L288 342 L285 334 L266 316 L263 310 L263 306 L260 303 L261 299 L258 297 L258 294 L261 292 L257 289 L257 287 Z M250 282 L250 284 L261 284 L257 280 Z M250 273 L250 275 L260 275 L261 274 L257 270 Z M250 264 L251 266 L261 266 L262 265 L261 263 L257 261 Z M295 230 L284 230 L281 232 L277 238 L277 244 L279 244 L280 241 L285 243 L291 239 L292 234 L295 232 Z M217 230 L217 232 L221 236 L221 239 L227 243 L232 242 L233 244 L235 244 L235 238 L231 232 L228 230 Z M298 220 L296 220 L294 217 L283 217 L275 224 L273 227 L273 232 L276 232 L278 227 L283 223 L290 221 L297 222 Z M214 220 L215 222 L221 221 L229 223 L235 228 L235 230 L240 232 L237 224 L229 217 L219 217 L216 220 Z M255 196 L255 199 L251 204 L251 208 L248 209 L246 214 L246 221 L248 224 L253 226 L251 230 L255 234 L255 238 L257 238 L257 234 L261 230 L259 226 L264 224 L266 221 L266 214 L264 209 L261 208 L261 204 L258 201 L257 196 Z M259 219 L261 218 L262 220 L260 221 Z M250 219 L252 218 L253 220 L251 221 Z M259 212 L261 211 L262 213 L260 214 Z M250 210 L252 209 L254 212 L251 214 Z M255 17 L242 42 L244 59 L235 54 L229 66 L234 80 L196 98 L176 120 L163 149 L161 185 L167 206 L147 214 L184 279 L161 296 L139 327 L133 319 L139 289 L130 269 L136 244 L145 238 L144 224 L139 224 L144 209 L143 186 L138 186 L125 203 L124 222 L114 214 L113 200 L101 209 L96 221 L96 238 L108 256 L113 257 L117 241 L123 242 L120 265 L112 267 L99 284 L94 311 L100 327 L98 339 L105 344 L111 366 L124 381 L128 400 L148 414 L135 416 L144 428 L158 426 L160 438 L171 445 L184 438 L182 424 L209 431 L211 436 L192 441 L191 456 L197 460 L205 452 L203 441 L214 441 L224 449 L221 467 L230 474 L240 472 L244 484 L257 496 L272 472 L282 474 L290 469 L289 450 L298 441 L309 440 L308 453 L315 461 L320 458 L321 442 L311 436 L300 437 L305 430 L330 424 L329 439 L341 445 L350 441 L354 426 L368 428 L375 423 L377 416 L368 417 L362 412 L379 402 L384 385 L401 366 L407 345 L414 339 L412 327 L418 301 L412 282 L403 268 L394 265 L392 257 L396 248 L409 241 L411 225 L405 225 L402 212 L389 200 L373 211 L370 224 L364 225 L367 241 L380 248 L383 269 L377 273 L373 290 L379 317 L374 334 L351 296 L328 279 L365 214 L345 206 L351 186 L349 149 L337 121 L316 98 L278 80 L283 65 L277 54 L268 59 L270 42 Z M249 468 L253 469 L255 473 L257 473 L261 468 L263 468 L266 471 L265 479 L257 488 L246 477 L246 471 Z M254 462 L257 461 L258 465 L256 466 Z M272 452 L280 451 L286 456 L287 462 L283 468 L277 469 L274 466 L277 462 L279 462 L279 460 L270 458 L270 454 Z M232 451 L238 451 L243 455 L241 459 L233 460 L233 462 L235 462 L238 465 L235 469 L229 468 L226 464 L226 456 Z M314 446 L317 447 L316 451 L312 449 Z M195 450 L196 446 L201 447 L198 451 Z M254 428 L258 428 L262 435 L262 437 L257 442 L255 442 L250 437 Z M342 421 L347 426 L349 433 L343 439 L336 439 L333 436 L334 430 L338 430 L341 435 L344 433 L344 427 L340 423 Z M174 419 L175 421 L168 428 L168 433 L171 435 L172 432 L175 429 L177 429 L180 435 L176 439 L169 439 L164 433 L164 428 L170 421 Z M333 419 L336 418 L337 420 L334 421 Z M248 421 L254 415 L258 415 L264 421 L266 427 L264 428 L258 422 L253 423 L248 428 L246 427 Z M272 414 L275 414 L279 420 L279 427 L275 431 L272 430 L272 425 L268 418 Z M237 414 L240 414 L244 417 L241 422 L239 431 L237 431 L233 427 L233 420 Z M361 414 L361 418 L364 421 L363 423 L352 423 L344 416 L330 415 L329 419 L326 418 L324 420 L316 420 L310 423 L307 423 L292 435 L284 447 L280 446 L279 440 L277 440 L276 442 L272 443 L268 447 L268 449 L265 451 L265 457 L270 461 L269 467 L264 466 L263 460 L258 456 L259 447 L262 445 L262 443 L265 440 L279 435 L289 425 L320 413 L329 405 L331 405 L335 409 L340 409 L346 413 Z M151 414 L166 409 L175 400 L179 398 L182 404 L192 413 L216 422 L227 428 L233 435 L247 440 L250 443 L251 447 L253 448 L254 456 L249 460 L249 465 L244 466 L242 461 L247 459 L247 451 L240 443 L236 442 L234 439 L232 439 L233 445 L228 447 L220 435 L205 423 L196 420 L184 420 L182 415 L168 416 L160 424 L149 423 L148 421 L151 418 Z M243 409 L248 402 L255 396 L257 396 L265 403 L269 411 L268 415 L266 416 L257 406 L255 406 L245 416 Z M152 393 L153 392 L160 394 L172 393 L173 395 L168 398 L159 398 L153 395 Z M146 388 L147 387 L150 388 L153 392 L149 393 Z M331 386 L333 387 L333 391 L335 393 L336 398 L335 402 L333 401 L330 393 Z M339 383 L343 385 L344 396 L347 403 L351 406 L350 408 L346 407 L340 400 L338 392 Z M378 378 L380 381 L380 386 L376 397 L368 405 L360 408 L354 408 L349 396 L349 392 L347 390 L347 381 L349 380 L352 383 L353 392 L357 400 L363 403 L364 402 L360 397 L357 384 L360 382 L364 392 L367 395 L370 395 L370 392 L372 389 L375 388 L373 379 L375 377 Z M256 388 L241 402 L239 407 L234 408 L227 422 L199 410 L199 407 L208 396 L236 376 L240 379 L239 382 L220 396 L210 406 L209 411 L211 411 L229 394 L234 392 L237 388 L239 388 L245 383 L254 386 Z M327 375 L327 368 L333 365 L370 365 L376 368 L376 371 L371 373 L368 376 L366 381 L361 377 L354 378 L351 376 L346 376 L343 378 L337 378 L334 380 L330 380 Z M136 364 L138 365 L138 367 L135 370 L135 372 L139 373 L138 382 L140 389 L149 399 L157 402 L162 402 L163 404 L161 406 L153 408 L144 407 L139 405 L131 396 L129 382 L133 367 Z M257 356 L261 360 L260 363 L257 363 L255 361 L255 358 Z M331 359 L336 354 L365 354 L370 357 L369 361 L332 361 Z M271 346 L276 352 L276 356 L270 363 L267 364 L266 362 L270 357 L269 347 Z M344 348 L348 344 L352 343 L359 349 L356 351 L353 350 L346 351 Z M232 345 L232 341 L236 340 L237 343 L234 346 Z M380 336 L387 341 L403 344 L401 354 L399 355 L394 368 L390 371 L390 373 L386 377 L383 374 L381 362 L376 360 L374 354 L370 350 L370 348 L376 341 L377 338 Z M132 336 L135 338 L135 340 L138 343 L138 348 L135 355 L132 357 L126 373 L123 374 L117 365 L113 354 L111 353 L109 345 L114 343 L123 342 Z M222 334 L224 334 L227 338 L228 349 L232 351 L231 362 L233 371 L230 374 L228 373 L228 369 L226 367 L225 361 L226 355 L224 353 L224 347 L222 346 L222 343 L224 342 L221 336 Z M136 331 L138 330 L139 332 L137 333 Z M179 330 L181 329 L182 332 L180 333 Z M130 330 L124 336 L118 337 L116 339 L106 339 L105 338 L108 334 L118 334 L124 332 L126 329 Z M115 330 L117 329 L118 331 L116 332 Z M382 329 L385 328 L387 331 L394 334 L406 334 L407 338 L406 339 L396 339 L394 337 L388 336 L382 331 Z M245 328 L249 332 L249 334 L247 336 L242 337 L241 331 Z M235 328 L237 327 L238 330 L236 331 Z M220 327 L224 326 L225 328 L221 329 Z M359 323 L364 327 L369 338 L369 341 L366 346 L350 338 L352 332 Z M226 322 L231 325 L231 330 L232 332 L235 333 L234 335 L228 332 L227 328 L225 327 Z M112 323 L114 322 L115 324 L113 325 Z M171 317 L173 321 L176 353 L169 357 L165 364 L165 377 L167 377 L169 365 L176 358 L181 356 L181 342 L185 336 L188 337 L188 367 L178 384 L174 385 L172 388 L160 389 L159 386 L152 384 L145 374 L143 363 L144 329 L146 328 L148 352 L152 352 L151 320 L154 318 L155 343 L157 344 L155 350 L171 348 L172 346 L169 342 L168 318 Z M218 316 L223 319 L222 321 L220 321 L219 327 L216 324 Z M299 315 L302 314 L303 316 L300 317 Z M294 313 L295 315 L292 317 L291 315 Z M209 315 L215 312 L218 316 L211 318 Z M161 312 L163 313 L165 325 L166 345 L164 347 L160 345 L160 335 L159 334 L158 319 L159 314 Z M302 312 L304 311 L305 313 L303 314 Z M295 312 L297 311 L298 313 L296 314 Z M207 311 L209 310 L210 313 L208 314 Z M298 309 L300 308 L301 310 L299 311 Z M218 308 L220 307 L225 312 L230 314 L232 317 L238 318 L239 321 L237 322 L228 318 Z M295 303 L296 305 L290 311 L287 312 L286 309 L290 305 Z M345 298 L357 313 L358 317 L347 331 L342 342 L323 361 L322 359 L327 350 L327 344 L326 343 L324 344 L320 355 L318 354 L318 350 L321 345 L324 331 L327 328 L333 315 L335 314 L340 301 L343 298 Z M298 298 L299 301 L296 303 L295 300 Z M281 296 L283 295 L288 297 L289 300 L285 304 L283 304 L281 302 Z M214 291 L216 290 L222 295 L230 295 L232 299 L234 310 L231 311 L218 299 Z M333 287 L339 292 L339 295 L318 334 L307 375 L298 391 L281 408 L285 410 L299 397 L308 384 L315 364 L319 361 L322 362 L322 377 L327 400 L319 408 L285 422 L277 406 L273 407 L271 402 L256 388 L281 385 L299 371 L306 353 L305 339 L300 327 L302 322 L308 318 L308 310 L313 305 L314 290 L330 290 Z M179 287 L182 290 L197 290 L199 305 L203 309 L204 318 L210 322 L217 333 L221 367 L224 371 L224 378 L211 387 L194 407 L180 397 L183 386 L191 373 L192 359 L200 362 L207 362 L210 359 L200 357 L194 352 L191 346 L192 335 L185 329 L184 321 L179 328 L176 314 L162 306 L169 294 Z M309 286 L310 296 L307 301 L307 305 L302 307 L301 305 L303 300 L305 299 L307 287 Z M203 286 L205 287 L206 298 L209 301 L212 308 L211 310 L204 304 L202 296 Z M117 288 L122 293 L121 296 L117 292 L113 291 L107 292 L106 296 L114 296 L118 300 L120 305 L117 309 L115 308 L114 302 L107 305 L107 308 L110 310 L107 322 L104 325 L101 319 L99 308 L101 292 L105 286 L107 288 L111 287 Z M390 284 L394 280 L402 280 L405 282 L404 284 L396 283 L393 285 Z M107 283 L111 280 L118 280 L123 285 L121 286 L116 283 L112 283 L108 285 Z M382 279 L385 280 L383 286 L383 297 L385 298 L389 310 L391 311 L392 317 L394 317 L395 314 L397 313 L402 319 L405 318 L401 303 L397 303 L396 309 L394 308 L392 304 L398 296 L401 295 L406 296 L405 292 L399 291 L391 296 L390 295 L391 292 L395 288 L399 287 L405 288 L406 284 L409 286 L413 304 L412 315 L407 327 L405 329 L402 329 L401 331 L399 329 L392 328 L386 323 L387 319 L383 316 L379 306 L379 302 L377 301 L377 292 L379 290 Z M130 279 L133 289 L135 291 L135 302 L133 304 L133 307 L129 316 L125 319 L126 323 L121 327 L120 326 L120 314 L121 311 L123 310 L124 305 L127 302 L126 300 L129 297 L130 288 L128 284 L128 280 Z M297 274 L301 278 L301 285 L299 287 L293 281 L293 277 Z M215 274 L220 279 L212 287 L211 278 Z M388 273 L391 272 L392 270 L397 270 L400 274 L390 276 Z M113 272 L116 270 L121 270 L124 274 L122 276 L114 275 Z M385 248 L388 247 L390 250 L386 251 Z M127 246 L129 245 L130 247 L128 248 Z M406 233 L405 237 L400 243 L397 244 L396 242 L399 236 L403 232 Z M370 231 L376 235 L377 240 L380 242 L379 244 L376 243 L370 237 L369 234 Z M132 223 L135 226 L135 231 L133 233 L132 239 L128 240 L126 234 L128 231 L129 225 Z M387 220 L390 221 L390 223 L392 224 L395 230 L394 238 L389 243 L387 243 L381 236 L382 226 Z M397 218 L399 219 L401 223 L400 229 L398 228 L398 225 L395 221 Z M378 218 L380 222 L375 228 L374 227 L376 219 Z M131 216 L134 215 L135 217 L132 218 Z M106 212 L116 224 L123 227 L122 235 L113 238 L107 247 L103 243 L101 236 L101 223 L103 216 Z M383 214 L386 208 L388 208 L391 211 L390 213 L387 213 L385 215 Z M329 204 L340 208 L350 216 L357 218 L358 221 L347 234 L343 249 L325 267 L323 284 L321 285 L310 281 L302 272 L302 266 L308 252 L309 240 L311 239 L317 244 L316 238 L309 234 L310 227 L320 219 L326 217 L335 218 L345 223 L349 222 L332 213 L323 213 L311 219 L309 218 L309 213 L313 209 Z M184 204 L199 209 L203 213 L203 218 L201 219 L189 213 L181 213 L163 222 L167 223 L177 218 L185 217 L192 219 L202 227 L203 234 L196 238 L195 244 L201 239 L203 240 L204 252 L210 266 L210 272 L202 281 L192 285 L189 284 L187 267 L169 249 L165 234 L160 225 L154 220 L171 209 L183 206 Z M136 197 L139 207 L137 210 L132 210 L130 208 L130 204 L133 201 L133 199 Z M302 193 L304 192 L305 194 L303 195 Z M209 192 L210 194 L207 197 L206 195 Z M169 190 L172 192 L174 200 L173 202 L170 201 L168 194 Z M319 187 L320 192 L318 193 L316 199 L310 205 L308 205 L306 199 L309 197 L310 194 L316 192 L317 188 Z M193 187 L195 188 L197 193 L200 193 L203 195 L204 198 L205 197 L207 198 L204 206 L196 199 L194 193 L192 192 Z M344 186 L345 190 L342 201 L340 202 L339 196 L342 190 L342 187 Z M232 184 L245 184 L256 191 L267 184 L286 186 L299 197 L305 212 L305 243 L298 265 L291 272 L280 258 L284 281 L294 291 L281 287 L280 272 L276 290 L280 312 L299 337 L300 356 L289 374 L271 383 L246 378 L236 364 L238 349 L248 341 L263 345 L264 353 L254 349 L248 356 L250 364 L258 369 L277 364 L280 350 L242 316 L235 296 L234 272 L231 288 L220 287 L228 281 L232 258 L220 272 L207 242 L207 214 L213 197 Z M168 184 L170 185 L169 190 L167 189 Z M209 190 L215 182 L231 173 L238 172 L248 173 L255 178 L257 178 L264 173 L274 172 L284 174 L298 183 L303 191 L301 192 L294 185 L286 180 L275 178 L264 179 L257 184 L248 179 L242 178 L230 179 L218 185 L211 192 Z M319 166 L320 175 L317 177 L317 179 L320 179 L321 182 L316 183 L315 180 L312 180 L309 183 L309 185 L312 185 L313 187 L309 189 L306 185 L307 179 L309 175 L312 172 L314 172 Z M193 166 L198 172 L203 175 L205 179 L206 185 L203 189 L199 187 L200 185 L203 185 L203 183 L200 180 L197 180 L196 183 L191 182 L192 179 L195 179 L195 177 L192 175 Z M167 161 L169 162 L169 183 L168 184 L166 183 L166 162 Z M281 159 L284 158 L297 165 L304 172 L303 176 L301 178 L298 178 L292 172 L280 169 L279 166 L281 163 Z M230 158 L233 168 L219 173 L214 178 L211 179 L208 172 L215 165 Z M255 153 L260 155 L264 160 L264 166 L259 171 L253 171 L248 166 L249 158 Z M274 151 L277 161 L270 168 L268 155 Z M238 151 L244 155 L242 168 L235 161 Z M254 144 L257 143 L258 146 L255 147 Z M173 142 L174 145 L172 149 L172 153 L170 154 L170 160 L168 161 L167 154 L170 143 Z M272 138 L276 137 L278 139 L289 143 L299 153 L301 160 L299 161 L286 154 L282 154 L279 151 L277 146 L273 144 Z M240 138 L239 144 L235 146 L232 152 L219 157 L214 161 L211 160 L214 152 L223 143 L234 139 L236 137 Z M336 134 L338 135 L343 145 L346 160 L346 184 L345 185 L343 184 L342 154 L340 153 L339 144 L335 136 Z M176 134 L177 135 L176 139 L173 142 L172 141 L173 137 Z M243 130 L245 129 L246 131 L244 132 Z M258 127 L262 131 L262 133 L268 141 L269 146 L265 151 L263 151 L262 141 L257 136 L255 136 L249 143 L250 151 L247 153 L243 146 L243 143 L251 132 L251 130 L254 127 Z M261 121 L268 120 L274 122 L277 126 L274 127 L263 125 Z M251 121 L249 125 L238 127 L236 126 L238 122 L244 120 Z M251 115 L254 112 L258 112 L261 115 L261 119 L259 120 L257 117 L255 117 L252 120 Z M242 111 L243 108 L254 97 L254 95 L257 94 L258 97 L269 108 L270 116 L267 117 L264 114 L263 110 L257 104 L255 104 L248 111 L247 115 L243 116 Z M284 89 L287 88 L297 92 L300 95 L310 100 L316 106 L318 106 L334 126 L337 133 L336 134 L333 133 L332 129 L325 119 L311 105 L292 93 L285 91 Z M228 89 L227 91 L209 99 L201 105 L184 123 L178 134 L175 133 L184 118 L200 102 L215 92 L225 88 Z M175 154 L184 131 L195 117 L217 100 L244 91 L247 87 L228 88 L245 83 L251 76 L251 68 L257 64 L267 83 L284 88 L265 87 L269 92 L302 104 L328 131 L338 160 L337 190 L333 200 L322 199 L327 183 L323 177 L324 156 L307 168 L305 154 L275 118 L274 107 L257 85 L236 111 L238 117 L229 124 L207 154 L205 168 L188 156 L189 177 L185 182 L189 200 L180 200 L176 194 Z M276 63 L278 68 L277 73 L273 77 L268 77 L266 73 L271 67 L271 65 L273 63 Z M236 63 L239 63 L243 67 L243 70 L246 73 L244 77 L240 77 L235 73 Z M255 31 L257 31 L261 35 L265 43 L263 59 L264 61 L268 62 L269 65 L268 67 L266 67 L257 56 L257 53 L259 51 L258 44 L254 44 L251 48 L255 53 L253 60 L246 67 L243 66 L244 62 L248 61 L249 59 L247 43 L251 35 Z"/></svg>
