<svg xmlns="http://www.w3.org/2000/svg" width="512" height="512" viewBox="0 0 512 512" aria-hidden="true" focusable="false"><path fill="currentColor" fill-rule="evenodd" clip-rule="evenodd" d="M207 102 L217 107 L224 107 L227 106 L235 98 L237 98 L240 95 L240 93 L232 94 L226 91 L217 91 L211 95 L207 100 Z M226 100 L227 97 L230 98 L228 101 Z M290 17 L282 33 L270 43 L207 67 L192 93 L168 109 L164 124 L174 120 L199 123 L210 135 L210 146 L189 188 L188 214 L201 246 L238 284 L237 291 L227 300 L212 303 L202 317 L183 314 L181 311 L195 302 L195 286 L153 242 L147 287 L141 290 L151 321 L165 332 L180 335 L177 359 L187 372 L202 374 L214 365 L213 350 L201 344 L220 333 L230 332 L247 341 L259 338 L278 356 L282 368 L278 389 L267 398 L258 393 L250 405 L256 421 L255 442 L266 458 L263 479 L278 496 L277 476 L288 457 L305 441 L319 417 L332 438 L348 394 L353 345 L339 298 L371 295 L348 277 L363 246 L363 211 L353 225 L353 231 L359 226 L353 258 L345 269 L338 262 L347 230 L342 213 L333 203 L330 186 L342 178 L345 183 L339 186 L339 194 L351 200 L363 190 L364 176 L354 158 L353 144 L347 147 L342 123 L338 122 L341 106 L332 85 L327 106 L312 130 L303 183 L309 198 L340 221 L342 240 L336 253 L305 200 L278 169 L277 116 L271 96 L287 77 L284 55 L292 39 Z M243 323 L246 323 L248 325 L245 331 L242 329 Z M204 322 L212 330 L205 335 L203 335 L198 340 L195 346 L195 355 L198 358 L200 358 L200 354 L203 351 L206 351 L209 353 L211 359 L207 366 L202 369 L196 370 L190 368 L184 363 L181 354 L181 347 L187 334 L198 324 Z M256 321 L263 322 L271 326 L273 329 L277 330 L288 341 L294 353 L293 361 L289 370 L287 369 L285 358 L278 347 L264 335 L252 330 L252 325 Z M238 318 L239 319 L238 327 L235 328 L234 322 Z M216 318 L219 317 L220 321 L217 322 Z M231 317 L230 323 L228 326 L226 326 L225 319 L228 316 Z M212 311 L213 315 L209 317 L208 315 Z M264 316 L263 317 L255 316 L248 321 L246 319 L247 314 L241 316 L240 314 L248 309 L253 310 L256 308 Z M216 307 L220 305 L231 305 L236 310 L220 314 L219 312 L222 311 L222 309 L217 309 Z M282 302 L284 302 L287 305 L294 322 L296 335 L295 342 L277 324 L271 321 L269 312 L277 307 Z M325 295 L332 296 L337 306 L339 307 L347 335 L349 358 L348 372 L343 394 L329 424 L326 422 L326 406 L335 370 L336 344 L333 323 L324 298 Z M307 288 L317 294 L325 311 L331 337 L331 366 L322 401 L308 428 L292 447 L285 437 L294 431 L295 423 L287 421 L291 425 L291 429 L283 432 L279 427 L279 421 L283 416 L296 408 L306 395 L312 383 L318 356 L317 325 L311 302 L305 290 Z M255 293 L252 297 L243 302 L240 302 L238 300 L244 287 Z M291 282 L297 285 L309 309 L313 327 L314 352 L309 378 L303 391 L291 406 L277 415 L274 421 L279 439 L285 445 L285 454 L270 481 L268 469 L271 457 L263 448 L259 438 L259 430 L264 418 L256 414 L255 405 L258 400 L264 403 L274 400 L288 384 L297 365 L300 350 L300 328 L296 313 L288 300 L289 283 Z M158 256 L173 269 L175 273 L175 282 L179 282 L182 278 L190 287 L192 296 L186 304 L179 304 L178 297 L176 297 L172 302 L176 314 L180 318 L192 322 L186 328 L174 322 L169 317 L165 308 L165 298 L169 290 L176 289 L184 295 L182 287 L173 285 L166 281 L165 289 L160 300 L162 314 L167 322 L173 327 L172 329 L159 322 L150 309 L148 295 L152 294 L155 296 L157 293 L152 286 L151 276 L155 261 Z M240 234 L244 232 L249 235 L259 235 L276 253 L287 262 L308 274 L309 276 L329 285 L346 290 L351 290 L352 292 L334 292 L332 290 L327 290 L307 284 L287 275 L260 257 L242 239 Z M263 232 L264 231 L272 232 L277 229 L298 252 L304 256 L309 262 L337 280 L338 282 L336 283 L325 278 L322 278 L302 267 L279 250 L264 235 Z M280 226 L287 225 L293 222 L297 226 L297 228 L302 232 L316 252 L322 257 L322 259 L335 273 L334 274 L331 273 L329 270 L327 270 L308 256 L284 232 Z M296 216 L301 216 L305 213 L308 214 L317 232 L320 234 L323 240 L325 247 L332 259 L331 262 L317 247 L307 234 L307 232 L304 230 L304 228 L295 219 Z M225 194 L231 180 L239 174 L249 171 L263 172 L286 185 L303 209 L296 212 L281 200 L280 202 L290 214 L287 219 L281 220 L267 209 L275 221 L271 227 L263 226 L251 214 L257 227 L255 230 L246 229 L237 216 L235 216 L238 225 L236 228 L226 209 Z M348 156 L359 176 L360 183 L358 190 L354 194 L351 195 L345 194 L343 192 L343 187 L345 185 L349 185 L349 179 L344 174 L335 174 L331 176 L326 183 L327 199 L325 200 L323 197 L322 191 L320 189 L325 173 L332 166 Z M190 115 L195 114 L196 117 L194 118 L191 117 Z M334 104 L335 116 L332 123 L332 133 L336 131 L339 133 L342 142 L342 148 L337 158 L329 162 L319 173 L316 182 L316 191 L318 196 L316 198 L309 188 L307 171 L313 154 L315 153 L317 156 L319 154 L319 147 L316 138 L318 128 L330 111 L332 105 Z M197 107 L196 110 L185 110 L174 114 L172 113 L179 105 L191 99 L193 100 L194 104 Z M229 79 L248 82 L260 91 L272 114 L270 120 L264 111 L254 112 L255 122 L258 115 L265 120 L259 130 L250 129 L246 118 L242 127 L256 136 L273 122 L274 170 L261 166 L239 168 L224 182 L220 199 L225 221 L243 248 L288 281 L284 294 L266 309 L260 306 L265 296 L261 280 L259 289 L249 285 L214 255 L201 236 L192 205 L196 184 L215 145 L214 132 L200 113 L204 107 L197 99 L211 86 Z M261 54 L261 59 L255 62 L253 66 L253 70 L255 72 L257 72 L258 66 L262 66 L264 68 L264 75 L261 78 L251 79 L240 75 L220 76 L211 80 L203 87 L199 93 L197 92 L200 83 L206 75 L219 65 L231 60 L255 55 L259 53 Z M286 36 L287 40 L284 48 L282 49 L281 53 L279 54 L276 60 L277 66 L280 64 L282 65 L282 74 L280 81 L272 90 L266 91 L260 85 L260 83 L268 78 L270 74 L269 66 L265 62 L265 54 L270 48 L279 43 Z"/></svg>
