<svg xmlns="http://www.w3.org/2000/svg" width="512" height="512" viewBox="0 0 512 512" aria-hidden="true" focusable="false"><path fill="currentColor" fill-rule="evenodd" clip-rule="evenodd" d="M204 17 L191 37 L162 54 L157 49 L151 60 L129 75 L115 95 L109 116 L93 105 L89 89 L82 101 L77 144 L88 167 L98 173 L98 163 L108 172 L112 164 L145 166 L120 180 L114 175 L109 184 L103 176 L100 178 L102 202 L121 225 L118 237 L135 225 L138 203 L144 197 L155 200 L152 216 L115 265 L105 297 L110 329 L129 365 L132 418 L127 419 L117 452 L99 448 L84 459 L84 480 L91 477 L96 487 L102 481 L120 484 L125 493 L131 486 L136 496 L142 489 L177 492 L198 484 L205 491 L213 479 L208 451 L224 428 L242 382 L275 374 L280 385 L302 401 L302 413 L296 415 L280 449 L259 446 L251 452 L243 467 L246 479 L250 475 L257 483 L259 477 L268 482 L270 478 L301 480 L316 475 L318 481 L327 473 L327 451 L368 402 L380 409 L383 418 L379 420 L375 451 L353 451 L345 456 L336 469 L337 485 L343 482 L350 491 L352 484 L361 489 L363 485 L399 486 L413 481 L416 487 L424 477 L420 452 L436 409 L435 336 L426 339 L403 364 L399 356 L406 331 L403 304 L421 281 L421 250 L403 229 L362 221 L355 215 L359 205 L369 211 L383 211 L403 196 L408 177 L402 179 L400 169 L413 148 L417 129 L414 106 L401 130 L376 140 L357 161 L336 175 L326 198 L335 227 L354 239 L392 244 L402 256 L399 269 L392 272 L362 260 L332 258 L329 244 L322 252 L298 260 L295 235 L286 246 L265 254 L262 251 L269 232 L268 218 L261 227 L248 230 L248 223 L259 215 L272 188 L263 186 L274 159 L262 160 L267 129 L258 133 L255 105 L247 109 L254 87 L253 71 L235 88 L213 80 L214 72 L202 72 L210 34 Z M132 477 L133 479 L130 482 L129 480 Z M140 474 L143 473 L144 474 L143 478 L146 477 L148 478 L147 485 L142 485 L141 484 L142 480 L140 480 L139 482 L136 481 L137 477 Z M365 471 L369 476 L368 480 L363 481 L359 484 L357 481 L357 477 L362 471 Z M203 471 L206 471 L209 475 L209 481 L207 483 L200 478 L200 474 Z M109 472 L107 477 L101 476 L106 471 Z M254 474 L255 470 L260 471 L256 475 Z M415 469 L418 469 L420 471 L419 479 L417 479 L413 475 L413 471 Z M354 467 L356 471 L354 475 L354 479 L348 483 L347 475 L352 474 L349 471 Z M258 468 L260 467 L261 469 L259 470 Z M123 467 L125 470 L120 475 L119 474 L120 470 Z M107 467 L106 469 L100 472 L98 471 L103 466 Z M318 465 L322 465 L324 468 L322 474 L316 470 Z M272 464 L275 467 L275 471 L273 473 L266 475 L264 473 L265 468 L269 464 Z M147 464 L140 470 L133 467 L135 464 L141 462 L144 462 Z M260 461 L263 464 L261 467 L257 464 Z M181 461 L185 462 L185 466 L183 468 L180 468 L177 465 Z M364 460 L365 463 L360 467 L358 467 L355 464 L358 461 Z M147 471 L148 469 L156 470 L156 468 L151 465 L153 460 L156 460 L158 462 L168 462 L172 464 L176 468 L176 470 L179 472 L185 472 L188 469 L192 470 L198 466 L202 467 L198 472 L197 481 L189 481 L185 485 L178 487 L170 486 L161 488 L153 487 L152 477 Z M202 460 L201 462 L198 462 L192 465 L188 465 L186 463 L187 461 L195 459 Z M173 460 L175 459 L178 463 L176 464 Z M365 467 L375 466 L374 464 L367 462 L368 459 L374 458 L377 460 L385 460 L396 469 L401 469 L403 466 L410 465 L413 466 L411 469 L410 477 L405 476 L402 480 L395 483 L385 482 L379 484 L374 484 L371 482 L371 474 L369 470 L366 469 Z M88 459 L90 458 L91 460 L89 461 Z M415 458 L414 460 L410 460 L407 463 L400 461 L399 465 L394 463 L398 458 L408 458 L409 457 Z M139 458 L138 461 L134 461 L132 463 L127 462 L131 458 L134 457 Z M99 459 L105 457 L107 460 L104 462 L101 462 Z M389 457 L391 456 L392 458 L390 459 Z M361 456 L360 458 L355 459 L351 462 L348 460 L350 457 L354 455 Z M120 455 L123 460 L119 464 L118 468 L115 470 L114 479 L111 480 L110 478 L112 471 L108 464 L115 463 L115 461 L113 461 L112 458 L116 455 Z M379 455 L381 454 L382 456 L380 457 Z M300 458 L300 456 L303 454 L305 455 L322 454 L323 455 L321 458 L313 459 L307 458 L306 460 L302 460 Z M262 458 L264 455 L272 454 L274 456 L273 458 L270 458 L267 460 L264 460 Z M168 454 L166 458 L161 459 L159 457 L160 455 L163 455 L166 453 Z M383 453 L385 452 L386 454 L384 455 Z M272 461 L279 460 L279 458 L276 457 L275 454 L282 452 L283 454 L291 454 L302 464 L312 463 L316 461 L318 462 L318 464 L315 466 L313 472 L308 472 L304 475 L278 476 L277 467 Z M94 455 L97 452 L103 453 L102 455 L99 455 L97 457 Z M266 450 L265 452 L258 456 L256 455 L258 451 L263 449 Z M182 450 L184 449 L185 451 L183 452 Z M143 449 L145 450 L144 454 L142 453 Z M289 449 L292 448 L293 450 L290 451 Z M201 450 L198 454 L193 455 L191 457 L181 457 L179 455 L180 453 L186 454 L190 452 L191 448 L195 450 L198 449 Z M154 447 L156 450 L155 453 L148 455 L147 453 L149 449 Z M415 448 L410 453 L406 454 L402 453 L404 447 L406 447 L407 449 L410 449 L410 447 L413 446 Z M323 445 L323 448 L319 451 L313 452 L309 451 L312 446 L315 446 L318 448 L321 444 Z M205 446 L206 443 L209 444 L207 447 Z M199 445 L200 442 L203 443 L201 446 Z M391 441 L393 444 L393 447 L389 452 L387 452 L386 450 L388 448 L389 442 Z M141 442 L143 441 L144 443 L142 444 Z M135 441 L137 444 L137 447 L132 451 L131 448 L133 445 L133 442 Z M381 440 L384 440 L386 443 L386 447 L383 450 L379 449 L379 442 Z M173 440 L176 444 L176 448 L172 453 L169 453 L168 451 L170 449 L170 442 Z M301 438 L302 439 L301 445 L297 448 L294 447 L293 444 L298 442 L298 439 Z M156 439 L156 441 L151 444 L146 443 L147 441 L154 438 Z M128 438 L130 440 L130 446 L128 448 L125 448 L124 442 Z M330 437 L332 442 L329 444 L325 444 L324 442 Z M164 437 L167 442 L167 447 L164 451 L161 452 L159 449 L159 443 Z M419 436 L422 440 L419 443 L414 444 L413 442 Z M293 434 L294 443 L289 446 L288 440 L289 437 Z M158 434 L159 436 L156 439 L155 436 Z M342 430 L336 437 L331 436 L335 430 L340 429 Z M128 430 L131 429 L133 433 L131 434 Z M383 428 L386 430 L388 434 L387 436 L383 434 L382 431 Z M218 429 L218 431 L214 434 L214 436 L211 439 L206 440 L204 442 L202 441 L206 433 L209 430 L213 430 L216 428 Z M166 427 L168 428 L170 432 L169 436 L166 434 L166 431 L164 430 Z M295 426 L297 425 L299 428 L297 429 Z M429 421 L430 423 L428 424 L426 431 L423 434 L419 435 L418 433 L420 432 L422 423 Z M348 416 L351 415 L352 417 L349 418 Z M347 416 L348 422 L345 425 L340 425 L339 422 L341 421 L344 415 Z M431 404 L432 411 L430 416 L428 418 L423 419 L422 418 L423 408 Z M359 401 L357 407 L354 410 L349 410 L347 412 L345 411 L349 398 Z M233 391 L234 394 L231 401 L228 404 L223 404 L219 408 L219 413 L223 410 L226 411 L225 415 L222 416 L222 421 L216 422 L212 425 L211 422 L214 415 L217 398 L220 395 L226 397 L227 392 Z M133 360 L154 369 L161 370 L166 380 L168 412 L166 416 L163 416 L162 424 L158 425 L156 432 L149 438 L140 438 L136 435 L137 392 L132 365 Z M303 359 L309 361 L313 371 L323 383 L345 397 L342 411 L339 413 L333 427 L322 439 L315 442 L309 442 L308 440 L319 437 L325 431 L334 416 L336 406 L334 406 L329 420 L317 434 L309 436 L303 432 L302 423 L306 413 L306 402 L309 399 L292 391 L283 382 L279 373 L286 367 Z M427 344 L429 355 L425 362 L425 366 L427 366 L428 363 L431 365 L432 379 L428 383 L425 383 L424 388 L427 391 L427 388 L430 385 L432 385 L433 392 L428 397 L426 403 L423 404 L420 384 L424 381 L425 371 L419 366 L416 366 L412 370 L412 375 L414 377 L417 377 L417 375 L415 374 L417 370 L419 370 L422 373 L422 375 L419 381 L414 382 L410 380 L407 376 L406 367 L414 356 L416 357 L417 360 L420 358 L421 350 Z M128 332 L131 331 L133 332 L132 338 L128 336 L127 334 Z M115 329 L118 328 L124 336 L124 339 L128 340 L136 348 L138 348 L143 353 L155 360 L156 363 L153 364 L139 358 L134 353 L132 353 L122 343 Z M253 325 L254 328 L252 334 L250 336 L245 337 L244 341 L249 341 L246 355 L241 360 L235 359 L231 364 L232 369 L236 364 L243 364 L242 371 L238 375 L236 375 L238 381 L234 386 L227 387 L221 392 L221 382 L227 380 L232 375 L232 373 L227 375 L222 374 L225 355 L235 353 L238 347 L238 339 L232 333 L228 333 L223 337 L223 343 L226 346 L230 346 L231 344 L227 343 L226 339 L231 337 L234 340 L234 346 L230 350 L223 350 L217 344 L217 332 L224 326 L226 326 L229 329 L235 323 L237 324 L235 329 L239 329 L244 325 Z M121 321 L126 326 L125 331 L121 327 L120 324 Z M139 317 L141 318 L140 325 L136 322 Z M146 316 L149 318 L149 322 L147 326 L147 342 L150 350 L149 353 L146 352 L141 347 L137 340 L137 330 L140 329 L144 331 L144 321 Z M114 312 L116 313 L115 318 L113 317 Z M148 312 L152 311 L153 313 L150 315 Z M165 308 L168 307 L169 310 L167 311 Z M139 306 L141 307 L142 310 L141 313 L139 312 L138 309 Z M130 304 L132 309 L130 313 L124 317 L118 307 L120 306 L122 310 L124 310 Z M153 304 L155 303 L156 306 L154 307 Z M147 299 L150 301 L149 305 L146 303 Z M126 299 L127 301 L123 304 L121 301 Z M185 298 L186 301 L183 304 L181 301 Z M153 298 L158 297 L159 302 L155 303 L153 301 Z M161 296 L165 295 L166 300 L164 301 L161 298 Z M200 295 L202 294 L203 296 L201 297 Z M195 293 L197 292 L199 295 L197 296 Z M178 290 L180 289 L182 293 L179 294 Z M188 287 L190 286 L193 291 L191 292 Z M237 285 L244 288 L242 297 L244 305 L243 307 L238 303 L236 298 L235 291 Z M123 285 L125 285 L127 289 L125 296 L122 296 L120 293 L120 289 Z M194 284 L197 283 L198 287 L196 288 Z M207 283 L209 282 L210 284 L208 285 Z M139 282 L144 292 L141 298 L136 301 L136 304 L134 305 L131 302 L134 299 L136 294 L135 284 Z M160 281 L162 280 L163 282 L161 283 Z M146 278 L151 278 L154 281 L154 284 L151 287 L149 286 L150 282 L144 281 Z M125 278 L127 278 L130 281 L133 287 L132 294 L130 293 L130 287 L127 282 L124 280 Z M209 277 L211 276 L212 278 L210 279 Z M199 275 L198 278 L184 284 L166 289 L161 292 L150 295 L148 294 L148 292 L153 289 L177 283 L196 274 Z M166 274 L172 273 L175 275 L171 282 L167 281 L168 277 L165 276 Z M398 305 L402 333 L394 367 L402 368 L404 379 L416 387 L419 420 L408 442 L401 441 L413 426 L411 395 L409 428 L396 438 L391 435 L386 411 L379 401 L332 385 L311 357 L310 330 L313 351 L322 366 L312 325 L317 309 L321 315 L330 298 L338 300 L344 293 L368 298 L374 305 L370 310 L377 316 L375 327 L367 329 L363 337 L352 337 L354 332 L346 330 L345 323 L350 320 L353 327 L361 328 L367 315 L358 304 L341 304 L324 320 L321 348 L325 362 L340 381 L357 391 L375 392 L346 381 L334 369 L325 350 L327 323 L341 308 L355 307 L363 314 L359 325 L352 317 L343 320 L342 331 L347 339 L367 339 L379 328 L377 302 L359 289 L347 288 L340 292 L337 289 L316 302 L305 325 L305 353 L261 374 L246 376 L248 363 L268 359 L291 345 L250 358 L263 318 L243 321 L226 315 L212 336 L216 352 L205 339 L207 350 L221 358 L207 425 L195 442 L179 443 L191 439 L199 429 L208 374 L196 427 L187 437 L178 437 L170 425 L168 372 L150 337 L158 309 L169 318 L176 305 L188 308 L191 297 L204 304 L208 290 L221 289 L223 279 L233 282 L235 306 L255 314 L266 306 L263 291 L268 287 L329 272 L366 277 L386 289 Z M403 298 L400 300 L395 294 L399 288 L399 283 L397 283 L397 285 L394 288 L389 288 L385 284 L373 277 L371 274 L375 272 L386 274 L387 276 L383 277 L382 279 L392 282 L393 277 L396 274 L400 275 L401 272 L405 270 L406 275 L402 284 L406 285 L406 289 L403 292 Z M217 271 L219 270 L221 273 L219 274 Z M124 271 L126 270 L127 272 L125 273 Z M235 270 L238 269 L239 271 L236 272 Z M181 270 L187 269 L189 273 L185 276 L184 275 L185 273 L182 272 Z M222 268 L225 267 L226 269 L223 270 Z M198 266 L200 265 L201 267 L199 268 Z M130 263 L133 264 L136 276 L134 280 L132 279 L130 275 L130 270 L126 269 L126 267 Z M234 263 L236 262 L237 264 L235 265 Z M326 267 L329 262 L338 261 L339 263 L336 264 L336 266 L341 265 L345 262 L352 262 L354 264 L354 267 L365 265 L370 267 L371 270 L367 274 L354 270 L327 269 Z M312 262 L312 266 L307 269 L294 269 L293 270 L291 269 L295 263 L297 264 L297 266 L300 266 L304 262 L309 261 Z M239 263 L240 260 L243 261 L241 264 Z M225 259 L221 264 L210 271 L208 271 L205 275 L203 274 L205 267 L211 267 L223 258 Z M256 257 L259 256 L260 258 L257 259 Z M326 256 L324 259 L324 265 L319 270 L303 276 L295 275 L292 278 L287 277 L289 273 L302 272 L313 269 L313 265 L320 256 L324 255 Z M228 254 L231 255 L229 258 L226 257 Z M128 252 L129 260 L126 262 L125 255 Z M293 245 L294 249 L290 255 L291 262 L289 264 L283 265 L285 268 L281 271 L281 274 L279 275 L279 280 L264 285 L254 296 L254 300 L256 300 L258 297 L261 297 L263 299 L263 304 L259 308 L250 307 L246 301 L246 294 L248 288 L259 278 L273 274 L274 271 L271 270 L270 265 L268 265 L267 269 L264 272 L256 275 L250 281 L247 277 L246 284 L243 287 L242 281 L239 279 L239 275 L242 271 L242 268 L249 266 L250 263 L255 263 L255 270 L259 269 L262 261 L267 258 L271 258 L272 256 L275 256 L276 261 L278 261 L280 259 L281 253 L285 250 L289 251 L289 248 Z M221 243 L221 245 L218 248 L193 262 L190 262 L177 267 L175 269 L171 269 L160 273 L144 276 L140 275 L141 272 L159 269 L160 267 L168 266 L184 261 L189 258 L192 258 L193 256 L198 255 L211 247 L213 247 L219 242 Z M204 233 L205 235 L200 242 L199 249 L192 252 L191 249 L195 239 Z M217 215 L219 220 L219 236 L217 238 L212 237 L213 241 L207 246 L204 246 L203 244 L211 233 L214 226 L205 230 L203 229 L203 227 L208 220 L213 216 Z M236 214 L237 216 L233 219 L232 216 Z M113 206 L119 209 L122 209 L125 214 L126 214 L125 211 L126 209 L131 206 L134 208 L135 214 L133 216 L130 216 L130 225 L126 229 L124 228 L122 215 L118 217 L113 212 L112 209 Z M179 205 L180 208 L175 222 L169 229 L160 249 L159 263 L139 269 L135 260 L135 254 L133 253 L135 244 L153 222 L159 209 L164 211 L174 211 L173 209 L164 208 L160 205 L161 203 Z M351 203 L353 202 L354 204 L352 205 Z M222 198 L227 200 L228 206 L231 211 L229 216 L229 222 L226 228 L227 238 L234 248 L241 251 L246 251 L246 249 L239 248 L236 246 L230 235 L232 225 L235 222 L241 221 L244 224 L244 230 L240 232 L238 229 L236 229 L236 233 L242 239 L245 240 L245 244 L248 244 L250 242 L250 237 L254 233 L258 236 L260 231 L263 229 L265 230 L264 236 L259 240 L259 242 L261 243 L260 248 L256 252 L253 252 L251 255 L247 255 L244 257 L242 255 L232 252 L226 245 L223 237 L222 228 L223 204 L221 204 L221 209 L219 213 L214 212 L214 210 Z M358 196 L359 197 L358 201 L354 203 L353 200 Z M238 196 L239 198 L236 206 L233 209 L230 201 L234 200 Z M262 195 L263 197 L260 202 L254 206 L254 208 L256 209 L256 212 L248 219 L243 218 L241 211 L246 209 L247 206 L241 207 L240 205 L242 201 L246 197 Z M260 189 L262 188 L263 190 L261 191 Z M114 183 L122 189 L122 192 L120 194 L117 194 L114 191 L113 187 Z M147 181 L146 183 L141 184 L134 190 L131 196 L131 200 L127 205 L121 206 L116 203 L109 203 L106 200 L107 198 L118 200 L123 199 L130 189 L128 185 L132 181 L137 182 L142 180 Z M158 179 L156 182 L153 183 L151 182 L155 178 Z M336 185 L338 186 L338 191 L339 188 L342 187 L343 193 L346 193 L350 182 L358 176 L368 175 L369 178 L367 181 L371 181 L374 176 L379 177 L376 187 L372 191 L366 186 L366 193 L358 191 L349 199 L347 203 L347 211 L351 218 L356 222 L355 224 L349 221 L342 213 L339 204 L341 200 L340 196 L338 196 L337 199 L338 213 L346 223 L356 228 L384 227 L403 234 L414 246 L419 259 L419 273 L413 286 L411 285 L410 269 L403 249 L395 241 L378 236 L354 235 L343 229 L336 222 L331 209 L332 192 Z M222 174 L223 180 L218 197 L215 200 L211 210 L194 233 L189 243 L187 254 L182 257 L181 256 L182 249 L185 245 L188 236 L206 208 L209 206 L218 185 L220 175 Z M229 173 L231 177 L230 186 L227 192 L224 193 L223 191 L226 184 L227 174 Z M222 168 L224 169 L223 174 L221 173 Z M244 166 L245 170 L241 190 L231 197 L230 195 L233 187 L233 175 L236 174 L237 170 L240 171 L241 168 Z M265 165 L266 168 L264 172 L260 175 L261 180 L259 184 L253 191 L245 193 L244 192 L245 187 L250 185 L253 179 L255 178 L253 176 L252 179 L248 180 L247 179 L248 173 L256 167 Z M363 162 L364 171 L352 175 L347 180 L346 184 L342 187 L341 185 L343 181 L343 175 L351 167 Z M148 161 L164 165 L163 173 L159 179 L157 178 L156 174 L160 170 L159 167 L156 170 L150 169 L147 164 Z M126 159 L128 158 L129 160 L127 161 Z M146 157 L142 161 L138 160 L139 158 L142 158 L144 156 Z M119 156 L120 155 L124 156 L126 159 L124 160 L120 158 Z M92 152 L94 151 L95 153 L93 154 Z M112 151 L114 150 L115 152 L113 153 Z M105 150 L112 153 L112 156 L109 159 L107 165 L104 163 L102 159 L102 153 Z M149 145 L157 145 L162 148 L163 150 L161 152 L165 153 L166 156 L169 156 L172 153 L179 155 L179 161 L176 165 L176 167 L178 168 L177 173 L167 182 L163 181 L166 175 L166 168 L169 161 L160 161 L153 153 L145 154 L144 153 L145 148 L148 147 Z M114 146 L118 145 L121 149 L130 152 L139 151 L140 155 L138 157 L131 157 L129 155 L120 153 Z M229 144 L231 145 L233 154 L233 168 L232 169 L228 168 L227 148 Z M102 147 L105 144 L108 145 L105 148 Z M260 139 L261 144 L258 148 L258 150 L260 151 L259 157 L252 165 L250 165 L249 159 L253 154 L247 151 L247 147 L250 143 Z M224 138 L227 137 L228 141 L226 142 Z M240 133 L243 141 L241 149 L244 150 L244 159 L237 166 L234 150 L234 142 L232 140 L232 136 L234 135 L237 137 L237 135 Z M410 126 L412 132 L411 139 L402 147 L402 150 L406 149 L407 152 L400 160 L395 161 L392 156 L388 162 L391 170 L395 166 L397 167 L397 182 L391 187 L390 193 L392 193 L394 189 L401 187 L402 189 L396 197 L389 197 L392 202 L383 207 L375 208 L367 206 L362 202 L362 196 L366 195 L367 192 L371 194 L378 194 L381 192 L387 182 L386 170 L381 172 L379 166 L380 157 L386 151 L381 151 L378 154 L375 161 L374 170 L371 170 L368 166 L370 152 L379 143 L385 140 L391 139 L392 142 L394 142 L395 139 L400 134 L405 133 Z M194 126 L196 127 L196 131 L198 132 L198 135 L196 137 L189 133 L189 130 Z M94 126 L98 128 L98 131 L95 134 L93 134 L91 131 L91 129 Z M211 123 L212 129 L214 132 L213 144 L215 144 L217 140 L219 140 L221 144 L221 155 L220 156 L221 160 L218 167 L213 171 L209 171 L207 174 L207 176 L210 175 L214 176 L210 183 L204 188 L195 189 L194 186 L203 174 L205 163 L209 161 L213 155 L212 148 L210 148 L210 152 L208 155 L205 154 L202 143 L200 141 L200 138 L202 136 L205 138 L207 137 L205 135 L205 130 L208 125 Z M138 125 L139 122 L143 123 L141 126 Z M116 121 L118 121 L122 127 L119 131 L116 129 L115 123 Z M82 147 L83 144 L90 144 L94 142 L99 136 L108 132 L110 121 L112 122 L115 129 L113 133 L118 131 L128 131 L135 139 L145 142 L144 144 L141 144 L139 147 L127 148 L120 142 L120 140 L116 139 L101 142 L96 148 L90 150 L84 149 Z M187 118 L189 125 L186 132 L180 135 L193 139 L199 146 L202 155 L200 171 L196 179 L183 188 L175 191 L161 188 L159 190 L168 194 L190 191 L195 194 L192 196 L193 199 L200 197 L202 193 L210 188 L212 191 L202 210 L183 237 L178 258 L162 263 L161 260 L169 236 L182 214 L183 205 L189 201 L175 197 L171 200 L165 199 L158 192 L144 193 L137 198 L135 196 L143 187 L166 186 L172 184 L180 176 L183 156 L187 149 L171 150 L161 142 L153 139 L162 130 L176 130 Z M149 116 L156 122 L156 129 L151 136 L141 137 L140 136 L141 134 L146 134 L151 130 L152 125 L150 124 L147 118 Z M251 115 L252 121 L250 124 L253 126 L252 136 L249 139 L246 139 L245 135 L247 133 L248 128 L244 129 L243 124 L245 120 Z M138 111 L140 110 L141 112 L139 113 Z M91 109 L93 111 L94 117 L98 115 L103 119 L105 127 L103 130 L101 130 L100 125 L93 120 L92 123 L88 127 L88 133 L90 135 L90 139 L85 141 L81 137 L81 128 L83 121 L85 119 L89 119 L89 114 L87 110 Z M199 108 L203 112 L202 115 L203 126 L201 128 L198 127 L197 120 L193 123 L191 122 L193 111 L194 110 L198 111 Z M145 109 L147 108 L148 110 L146 111 Z M132 106 L134 111 L130 116 L130 125 L127 127 L125 115 L127 110 Z M118 105 L122 112 L119 113 L115 117 L113 114 L113 111 Z M151 111 L156 110 L156 108 L154 107 L156 103 L160 103 L169 110 L167 113 L165 113 L166 116 L177 115 L181 116 L182 118 L179 121 L176 121 L175 126 L167 127 L160 120 L162 119 L167 122 L169 122 L169 120 L165 119 L160 113 L158 113 L159 116 L157 117 Z M200 102 L203 100 L207 105 L204 106 Z M153 101 L152 103 L149 103 L148 106 L140 107 L137 106 L137 104 L142 100 L151 99 Z M121 95 L124 98 L123 102 L121 101 L120 97 Z M202 94 L206 93 L211 99 L208 100 Z M135 88 L137 93 L130 98 L129 95 L132 90 Z M248 84 L249 85 L248 94 L239 105 L244 106 L241 120 L232 131 L221 132 L216 127 L215 124 L216 119 L220 114 L226 114 L229 120 L223 124 L223 126 L228 126 L233 120 L231 111 L234 102 L220 107 L215 112 L214 115 L208 119 L207 115 L209 109 L217 99 L228 94 L230 94 L231 97 L233 97 L238 89 Z M198 85 L198 92 L193 97 L197 99 L197 102 L193 106 L191 106 L189 104 L191 99 L189 99 L189 101 L187 102 L187 106 L190 110 L186 111 L185 113 L181 113 L178 111 L177 107 L170 106 L165 101 L160 99 L159 96 L146 96 L145 95 L146 93 L153 92 L156 90 L158 92 L161 91 L175 94 L176 98 L179 98 L180 94 L184 89 L187 89 L189 91 L196 84 Z M201 85 L210 83 L216 85 L220 90 L214 91 L216 94 L214 96 L211 93 L210 89 L205 89 Z M172 78 L174 79 L175 85 L179 88 L177 91 L168 87 Z M201 80 L202 77 L206 78 L204 81 Z M177 71 L180 70 L181 73 L178 74 Z M185 64 L183 67 L178 67 L177 71 L169 77 L168 81 L165 84 L158 87 L152 87 L151 86 L152 84 L150 83 L148 84 L145 90 L141 92 L138 91 L142 87 L143 81 L148 76 L158 73 L159 77 L157 80 L160 81 L164 77 L165 70 L172 64 L177 65 L179 63 Z M155 61 L156 64 L154 66 L154 70 L142 76 L140 80 L136 80 L130 88 L126 91 L125 89 L131 79 L134 76 L136 76 L141 70 Z M201 37 L204 40 L203 45 L196 53 L196 55 L200 53 L202 54 L200 67 L194 73 L196 76 L189 83 L181 84 L178 82 L177 79 L190 71 L191 66 L189 65 L190 54 L188 54 L188 56 L185 59 L174 60 L167 63 L163 67 L160 65 L160 62 L165 56 L171 52 L176 51 L177 55 L179 55 L184 45 L190 41 L194 42 L198 37 Z M199 33 L201 32 L202 34 L200 35 Z"/></svg>
