<svg xmlns="http://www.w3.org/2000/svg" width="512" height="512" viewBox="0 0 512 512" aria-hidden="true" focusable="false"><path fill="currentColor" fill-rule="evenodd" clip-rule="evenodd" d="M304 343 L303 348 L305 350 L309 350 L310 344 Z M203 343 L202 344 L203 350 L207 350 L209 348 L208 343 Z M255 17 L241 46 L244 60 L231 75 L228 86 L190 116 L165 150 L149 204 L140 190 L135 195 L125 240 L127 254 L122 253 L113 279 L115 302 L110 307 L114 344 L130 366 L132 400 L158 414 L240 417 L241 438 L216 421 L203 420 L184 427 L175 418 L136 415 L147 429 L181 451 L201 449 L207 442 L205 436 L212 435 L222 454 L221 465 L227 470 L238 469 L238 465 L226 464 L232 454 L225 452 L221 444 L238 444 L244 468 L241 479 L257 496 L271 479 L268 468 L275 443 L291 444 L287 452 L280 454 L286 464 L274 465 L274 469 L284 470 L291 465 L290 454 L300 435 L307 436 L306 445 L313 450 L334 450 L364 430 L376 415 L337 418 L327 427 L319 408 L356 413 L379 401 L384 385 L382 366 L400 337 L402 303 L397 301 L400 282 L390 253 L385 254 L387 240 L379 220 L381 204 L372 190 L363 204 L347 150 L322 116 L283 85 L281 75 L268 60 L271 46 Z M247 474 L249 472 L252 473 L263 472 L265 476 L260 477 L259 484 L255 486 L252 483 L252 477 L248 477 Z M251 439 L261 439 L269 445 L269 448 L267 450 L261 448 L258 449 L258 453 L262 459 L264 455 L267 456 L266 463 L261 467 L257 468 L251 467 L245 461 L246 455 L248 455 L250 459 L255 452 L254 448 L247 450 L243 448 L243 445 Z M326 430 L328 429 L331 434 L326 435 L325 434 Z M184 429 L186 430 L187 433 L186 435 L181 434 Z M244 431 L251 427 L261 427 L266 429 L268 433 L266 436 L260 434 L252 434 L246 436 L244 434 Z M364 422 L358 429 L353 431 L346 431 L347 434 L346 438 L343 441 L332 446 L319 447 L317 445 L311 444 L310 439 L315 438 L312 433 L308 431 L298 431 L289 437 L283 436 L284 433 L293 427 L299 426 L301 424 L308 423 L313 424 L317 422 L318 429 L321 431 L318 434 L318 436 L323 439 L332 439 L339 434 L339 429 L335 431 L333 430 L333 426 L337 422 L346 422 L347 426 L349 426 L354 421 Z M148 422 L158 421 L163 426 L165 426 L166 422 L176 423 L179 426 L179 429 L178 430 L173 429 L173 434 L180 439 L192 438 L194 434 L191 432 L191 430 L198 426 L201 426 L203 423 L211 424 L213 426 L219 427 L229 434 L230 436 L223 437 L214 431 L204 431 L200 433 L197 438 L202 439 L201 444 L194 445 L193 447 L180 446 L169 441 L165 436 L166 431 L156 430 Z M245 418 L249 415 L260 415 L265 417 L267 419 L267 422 L266 423 L262 422 L246 423 Z M316 416 L311 421 L303 419 L306 415 L314 413 Z M314 405 L313 409 L302 412 L295 422 L286 426 L274 439 L272 438 L272 428 L271 427 L272 420 L282 415 L287 416 L290 413 L291 409 L297 406 L301 407 L307 406 L310 404 Z M197 404 L198 403 L204 404 L206 411 L201 412 L198 409 Z M296 399 L298 398 L302 400 L303 403 L302 404 L297 403 Z M182 394 L184 393 L185 395 L183 396 Z M287 391 L292 395 L291 399 L292 404 L286 410 L284 410 L281 407 L280 411 L277 414 L275 414 L273 409 L275 404 L274 400 L278 399 L282 395 L283 391 Z M200 391 L204 392 L202 400 L200 400 L196 396 Z M297 384 L303 386 L300 392 L297 392 L293 389 Z M213 381 L216 382 L212 390 L212 404 L215 410 L214 412 L210 409 L207 399 L209 386 Z M206 380 L207 382 L205 386 L199 388 L198 387 L199 383 L202 380 Z M195 379 L196 381 L194 384 L192 393 L192 401 L195 411 L193 412 L189 405 L188 394 L191 382 Z M304 373 L307 379 L302 382 L300 378 L301 375 Z M210 374 L212 373 L213 375 L211 376 Z M216 390 L221 383 L242 373 L253 372 L262 375 L269 381 L269 385 L258 380 L252 380 L252 383 L266 387 L271 394 L268 395 L253 389 L252 392 L265 397 L270 404 L268 405 L258 400 L252 400 L251 403 L265 406 L270 412 L265 413 L252 410 L241 413 L229 413 L221 410 L216 403 Z M216 373 L219 372 L221 375 L219 376 Z M316 365 L317 366 L317 379 L315 385 L312 390 L306 396 L304 396 L303 394 L308 388 L313 378 L314 366 Z M236 364 L237 370 L233 372 L231 368 Z M304 361 L307 361 L309 364 L308 370 L303 368 Z M297 357 L299 361 L299 369 L297 376 L288 386 L285 386 L284 384 L290 378 L293 371 L294 358 Z M321 357 L324 356 L325 360 L322 361 Z M188 356 L190 356 L194 368 L193 373 L181 370 Z M374 355 L379 373 L379 389 L376 397 L370 403 L359 407 L339 407 L325 404 L312 398 L317 390 L326 387 L321 377 L322 366 L342 369 L363 376 L356 369 L344 366 L343 364 L370 353 Z M139 353 L177 366 L176 369 L157 369 L148 377 L158 373 L169 372 L184 375 L189 378 L186 387 L178 393 L180 399 L183 400 L186 405 L186 412 L162 410 L142 403 L136 397 L133 389 L133 373 Z M370 346 L369 349 L356 355 L333 361 L331 360 L332 357 L355 351 L358 348 L361 348 L366 345 Z M327 345 L330 345 L332 347 L331 353 L327 351 L326 348 Z M184 345 L186 347 L185 351 L181 353 L180 347 Z M142 346 L145 345 L162 353 L180 357 L181 359 L174 360 L156 355 L143 349 Z M337 343 L340 343 L343 346 L344 349 L342 351 L338 351 L335 348 L335 345 Z M172 343 L175 343 L177 345 L177 348 L174 351 L170 351 L168 349 Z M347 340 L350 339 L352 340 L353 343 L351 347 L348 347 L346 345 Z M159 342 L162 339 L167 341 L168 343 L163 348 L161 348 Z M359 335 L362 337 L363 342 L360 344 L358 344 L356 340 L356 337 Z M152 335 L156 337 L154 344 L149 342 L150 337 Z M117 333 L124 337 L123 342 L134 351 L131 361 L128 360 L128 358 L125 356 L125 354 L121 350 L116 337 Z M365 333 L367 332 L378 343 L373 344 L371 341 L366 338 Z M146 331 L147 332 L146 338 L141 341 L140 344 L135 344 L134 342 Z M243 334 L254 330 L264 331 L280 345 L290 358 L290 367 L286 377 L283 380 L273 379 L267 373 L257 368 L242 367 L242 364 L247 361 L256 361 L255 357 L245 359 L241 358 L244 353 L256 351 L256 348 L247 348 L241 350 L240 347 L246 342 L257 340 L256 337 L242 339 L241 336 Z M363 325 L363 327 L360 330 L353 334 L332 341 L328 340 L329 337 L340 335 L343 332 L349 331 L361 324 Z M240 324 L241 331 L236 334 L233 328 L235 325 Z M149 325 L151 324 L161 330 L169 332 L172 335 L183 337 L184 340 L181 341 L164 336 L151 329 Z M285 320 L289 324 L289 332 L287 337 L282 342 L271 331 L271 325 L273 324 L277 326 L278 333 L281 334 L283 332 L283 321 Z M245 324 L248 321 L261 320 L266 322 L267 326 L266 327 L262 326 L246 327 Z M228 320 L229 321 L228 326 L229 332 L236 339 L237 343 L236 357 L229 364 L216 369 L199 368 L197 365 L198 361 L213 362 L221 360 L229 353 L230 341 L225 337 L223 332 L223 324 Z M135 318 L138 317 L144 323 L144 326 L142 327 Z M379 315 L380 317 L373 322 L372 327 L370 328 L368 323 L375 316 Z M132 316 L134 315 L135 317 L133 318 Z M396 314 L397 324 L392 330 L388 332 L389 335 L392 335 L395 333 L396 337 L391 350 L389 351 L387 356 L384 358 L384 360 L381 361 L378 351 L389 342 L389 339 L384 336 L385 328 L383 328 L381 331 L380 336 L377 336 L372 331 L372 329 L379 322 L386 320 L392 315 Z M115 315 L116 314 L120 315 L125 319 L132 321 L137 326 L138 333 L132 337 L131 332 L128 329 L126 333 L120 330 L115 324 Z M152 316 L155 313 L159 317 L164 317 L166 315 L167 316 L166 320 L177 325 L180 325 L181 330 L176 331 L156 323 L152 320 Z M360 316 L360 320 L356 323 L336 331 L331 330 L332 325 L345 321 L346 315 L350 319 L355 316 L355 313 L357 312 Z M274 313 L281 312 L282 313 L281 318 L279 320 L273 318 Z M229 312 L230 311 L236 312 L238 314 L238 318 L233 320 Z M243 313 L245 310 L250 308 L261 308 L267 310 L269 313 L269 316 L266 317 L262 315 L250 315 L244 317 Z M303 301 L305 304 L305 309 L303 311 L297 311 L294 307 Z M207 303 L210 301 L216 305 L218 308 L214 311 L209 311 L207 309 Z M253 299 L257 298 L259 300 L259 303 L254 304 Z M235 298 L237 297 L238 299 L236 300 Z M272 298 L275 296 L277 297 L276 300 L273 300 Z M310 295 L315 300 L316 307 L314 309 L315 314 L313 322 L305 323 L301 321 L296 322 L291 320 L286 314 L287 309 L289 309 L292 313 L297 315 L308 316 L309 303 L307 300 L307 297 Z M197 300 L202 295 L205 297 L205 300 L203 303 L204 316 L215 315 L222 309 L226 310 L225 316 L221 320 L216 322 L211 321 L207 323 L200 323 L197 314 L198 309 L196 307 Z M286 294 L284 297 L280 296 L281 294 L284 293 Z M226 294 L228 293 L231 296 L228 297 Z M289 291 L292 289 L294 290 L293 293 L290 293 Z M218 290 L220 289 L222 292 L219 293 Z M343 286 L354 302 L352 312 L343 311 L339 319 L333 320 L331 318 L330 308 L328 308 L328 319 L326 321 L324 336 L320 344 L312 351 L312 353 L317 353 L316 358 L314 359 L297 352 L290 351 L287 348 L287 344 L292 336 L293 327 L303 326 L317 328 L318 312 L320 309 L319 298 L335 293 L340 286 Z M268 296 L267 298 L264 298 L263 296 L255 292 L246 299 L244 298 L245 293 L248 290 L256 286 L259 286 L264 290 Z M169 286 L172 286 L177 293 L193 298 L192 309 L195 319 L195 328 L219 326 L220 336 L225 344 L225 349 L221 354 L213 358 L201 358 L195 355 L196 352 L200 353 L200 351 L192 344 L188 336 L186 324 L184 322 L184 308 L182 308 L179 320 L173 319 L169 311 L160 312 L158 302 Z M301 281 L303 282 L302 285 L299 284 Z M250 282 L259 281 L260 283 L251 284 Z M209 282 L211 281 L213 284 L210 285 Z M319 282 L322 276 L324 276 L327 279 L323 283 Z M185 279 L188 276 L190 276 L193 282 L189 283 Z M317 275 L312 285 L299 298 L282 307 L278 308 L272 307 L273 305 L278 304 L280 301 L285 301 L289 297 L295 296 L299 290 L303 289 L307 285 L307 282 L311 279 L312 274 Z M305 277 L306 273 L311 274 L308 278 Z M253 275 L257 273 L259 276 L254 277 Z M195 275 L206 273 L207 277 L206 278 L201 277 L201 280 L205 282 L205 285 L210 290 L213 290 L217 296 L222 296 L226 301 L231 301 L233 304 L238 304 L241 307 L240 308 L230 307 L213 298 L200 285 Z M344 273 L341 279 L336 281 L336 285 L330 291 L325 293 L317 293 L313 291 L316 287 L323 287 L329 284 L329 282 L333 280 L332 277 L333 275 L339 274 L341 271 Z M301 272 L299 277 L287 288 L274 293 L271 292 L272 289 L277 288 L287 283 L299 271 Z M211 272 L213 271 L221 280 L235 288 L240 289 L241 292 L237 293 L225 288 L212 276 Z M168 273 L171 271 L173 274 L179 275 L180 276 L179 280 L182 281 L183 284 L189 287 L196 287 L198 291 L195 293 L187 293 L182 291 L177 287 L176 285 L177 281 L172 280 L169 277 Z M389 264 L391 269 L391 274 L389 277 L395 280 L396 294 L393 301 L389 304 L392 307 L392 309 L387 314 L380 316 L379 314 L385 306 L388 297 L387 282 L385 278 L381 275 L383 269 Z M123 264 L129 269 L131 273 L124 284 L124 297 L128 308 L133 314 L132 316 L127 315 L120 310 L119 307 L122 306 L123 303 L119 300 L116 293 L117 280 L123 277 L121 274 L121 269 Z M259 266 L262 264 L268 263 L271 264 L287 263 L288 266 L292 270 L292 272 L285 279 L277 283 L269 285 L267 280 L263 278 L263 274 Z M219 271 L225 263 L249 264 L253 267 L249 274 L249 278 L245 280 L243 285 L235 283 L227 279 Z M252 259 L255 256 L257 256 L260 260 L257 262 L254 262 Z M325 250 L325 255 L323 259 L319 263 L314 265 L306 264 L299 258 L298 255 L297 259 L300 263 L299 266 L295 266 L291 261 L291 259 L299 250 L301 251 L303 256 L309 261 L315 261 L319 259 L321 250 L322 249 Z M187 250 L188 249 L191 250 L191 255 L193 259 L197 261 L205 260 L209 256 L210 253 L214 251 L220 258 L220 263 L217 266 L213 266 L212 264 L214 259 L212 259 L203 265 L195 264 L189 259 L187 255 Z M283 246 L279 250 L273 249 L274 247 L278 247 L281 245 Z M229 246 L231 245 L234 247 L238 247 L239 249 L232 250 L229 248 Z M274 242 L276 241 L277 243 L275 244 Z M235 242 L237 241 L238 243 L236 244 Z M206 237 L209 236 L210 238 L207 239 Z M324 235 L326 239 L322 247 L316 248 L315 247 L316 244 L322 240 L322 236 Z M302 238 L303 235 L307 236 L305 239 Z M186 236 L189 235 L190 240 L197 245 L196 249 L190 247 L190 245 L185 238 Z M275 234 L276 237 L271 239 L270 237 Z M236 235 L238 234 L242 238 L239 239 L236 237 Z M247 232 L248 231 L251 232 L264 231 L265 233 L261 235 L250 235 Z M283 229 L285 231 L289 230 L291 231 L289 235 L289 240 L285 246 L282 245 L286 237 L286 235 L282 234 Z M222 230 L227 231 L228 229 L230 230 L230 234 L227 235 L227 240 L230 244 L229 246 L227 246 L224 243 L223 235 L221 232 Z M203 230 L206 229 L207 231 L204 232 Z M299 229 L297 244 L295 248 L293 249 L293 251 L287 257 L280 260 L273 260 L269 258 L265 253 L260 254 L258 252 L261 249 L265 249 L273 254 L279 254 L285 252 L289 249 L292 244 L295 230 L297 228 Z M213 229 L215 228 L217 230 L220 244 L224 250 L232 254 L238 254 L247 249 L251 249 L253 252 L251 254 L247 253 L242 259 L239 260 L232 260 L225 257 L219 251 L219 249 L217 248 L215 244 Z M306 227 L309 229 L308 232 L304 231 Z M274 222 L276 221 L277 223 L275 224 Z M315 215 L314 221 L309 226 L308 224 L310 221 L310 217 L312 214 Z M198 214 L202 215 L202 220 L204 224 L203 226 L198 221 L197 218 Z M241 222 L243 219 L248 219 L252 213 L260 213 L264 219 L268 219 L270 221 L270 225 L268 226 L266 223 L264 223 L260 228 L255 229 L252 228 L248 223 L246 223 L243 226 Z M307 208 L308 209 L307 216 L305 217 L303 215 L303 212 Z M267 206 L268 209 L267 212 L265 213 L262 209 Z M244 207 L246 206 L250 210 L246 213 Z M255 199 L259 201 L257 208 L255 207 L255 204 L253 203 Z M316 197 L319 198 L320 201 L317 208 L314 210 L313 209 L314 205 L311 201 Z M196 197 L202 201 L198 205 L199 207 L198 209 L195 208 L192 199 Z M214 195 L218 198 L218 200 L221 203 L228 202 L228 200 L231 197 L238 197 L242 199 L243 202 L242 204 L233 203 L227 208 L221 208 L221 210 L227 214 L228 219 L232 221 L231 223 L228 223 L226 225 L215 223 L213 227 L211 227 L207 223 L204 209 L206 208 L209 211 L210 221 L212 221 L214 218 L212 210 L212 200 Z M269 200 L272 197 L281 197 L283 199 L283 202 L290 203 L294 200 L295 195 L297 194 L299 196 L300 201 L300 210 L298 218 L300 221 L304 221 L305 223 L301 227 L299 227 L296 222 L291 225 L286 225 L284 223 L281 223 L280 221 L285 217 L285 214 L288 213 L292 209 L292 207 L285 208 L279 203 L273 203 L269 205 L268 204 Z M312 189 L313 195 L305 201 L304 200 L305 195 Z M200 189 L206 194 L208 198 L207 201 L204 198 L201 198 L199 196 Z M217 190 L221 187 L238 183 L252 183 L255 186 L257 186 L260 183 L274 183 L292 188 L294 191 L289 195 L285 195 L282 192 L276 191 L270 193 L266 199 L263 201 L262 200 L263 192 L259 195 L256 193 L253 195 L249 192 L250 199 L247 200 L242 193 L233 191 L224 196 Z M190 183 L195 185 L196 189 L194 194 L190 191 L189 187 Z M322 182 L323 188 L322 191 L318 194 L317 185 Z M263 176 L268 175 L270 173 L288 176 L295 179 L303 188 L303 191 L301 192 L300 189 L289 182 L275 178 L264 178 Z M250 176 L249 178 L230 179 L228 181 L217 185 L212 190 L209 189 L215 180 L227 175 L242 173 L244 175 Z M255 171 L260 176 L257 180 L255 180 L252 177 Z M247 171 L248 168 L251 169 L249 172 Z M260 168 L263 167 L265 169 L265 172 L263 173 Z M297 166 L299 165 L300 167 L298 168 Z M268 167 L271 165 L274 165 L296 171 L299 174 L295 175 L286 171 L272 170 L269 169 Z M243 167 L240 170 L226 171 L217 175 L213 174 L216 171 L229 167 L234 167 L238 165 L241 165 Z M212 166 L214 165 L215 167 L213 168 Z M221 163 L223 162 L224 164 L222 165 Z M255 158 L257 158 L260 162 L259 166 L256 164 L254 166 L252 165 L252 162 Z M269 148 L273 147 L278 149 L286 156 L286 158 L284 159 L280 155 L274 157 L270 152 Z M243 148 L238 157 L232 155 L228 159 L225 158 L234 149 L239 147 Z M245 153 L248 149 L251 149 L251 147 L255 143 L257 143 L261 149 L264 149 L266 151 L267 155 L262 157 L257 151 L255 151 L250 157 L248 157 L245 155 Z M268 135 L274 134 L276 137 L272 138 L269 137 Z M236 137 L238 134 L244 135 L243 137 L240 138 Z M247 139 L255 130 L257 130 L260 133 L260 135 L264 137 L265 141 L262 142 L257 137 L255 137 L250 142 L248 142 Z M268 121 L272 123 L273 126 L272 129 L267 128 Z M242 121 L245 122 L244 129 L239 128 L240 123 Z M255 116 L257 116 L260 119 L262 123 L261 127 L257 123 L255 123 L252 127 L250 126 L250 122 Z M245 117 L249 110 L255 105 L259 106 L262 109 L262 111 L267 115 L267 118 L265 119 L259 111 L255 109 L247 119 Z M257 97 L260 96 L264 98 L266 101 L262 102 Z M255 97 L252 101 L250 102 L247 101 L248 98 L252 96 Z M283 92 L291 95 L305 106 L318 118 L334 137 L334 139 L343 152 L350 166 L350 169 L354 178 L360 203 L360 212 L358 215 L354 214 L351 188 L345 169 L343 168 L340 159 L331 145 L331 143 L309 117 L300 109 L298 109 L293 105 L290 101 L288 101 L282 96 Z M229 92 L230 96 L205 115 L190 131 L190 133 L183 140 L183 142 L180 144 L179 148 L171 161 L169 168 L167 169 L161 189 L158 214 L154 215 L152 212 L153 197 L155 195 L158 178 L161 172 L162 166 L169 152 L178 139 L178 137 L193 119 L209 104 L221 95 Z M247 89 L252 85 L257 84 L263 87 L265 91 L263 93 L258 91 L249 93 Z M260 64 L265 63 L280 86 L276 98 L318 133 L344 178 L350 210 L345 245 L354 255 L370 254 L365 263 L365 286 L373 296 L366 309 L373 305 L378 295 L377 286 L369 285 L372 279 L369 264 L377 241 L369 223 L356 235 L358 244 L362 243 L364 231 L370 235 L364 251 L354 250 L348 236 L356 219 L363 221 L363 214 L372 202 L377 205 L373 222 L380 227 L383 246 L376 264 L376 276 L384 286 L384 295 L379 307 L367 318 L356 295 L345 282 L349 272 L347 261 L329 272 L318 269 L330 254 L328 222 L312 244 L316 255 L310 257 L306 254 L304 244 L319 220 L329 172 L310 185 L311 175 L305 171 L303 161 L296 161 L282 146 L285 134 L278 130 L274 120 L277 111 L271 106 L269 88 L263 81 Z M252 64 L249 81 L243 88 L241 106 L235 111 L238 120 L234 130 L227 134 L230 146 L216 161 L209 161 L207 171 L201 175 L202 185 L183 172 L193 219 L207 244 L206 254 L202 257 L196 255 L200 243 L184 222 L182 254 L194 269 L183 272 L165 261 L163 273 L167 282 L156 295 L146 319 L132 306 L128 286 L136 276 L129 246 L132 227 L139 222 L135 214 L136 202 L139 201 L148 212 L149 220 L154 218 L164 236 L158 250 L148 251 L142 235 L148 231 L152 244 L156 235 L143 223 L135 241 L143 265 L139 277 L143 285 L135 286 L134 295 L140 306 L146 309 L139 295 L147 286 L147 263 L142 254 L158 255 L167 245 L162 211 L168 178 L194 133 L236 98 L232 86 L247 63 Z M255 52 L257 52 L260 57 L259 63 L257 61 L255 61 L254 63 L252 62 L252 56 Z M255 29 L258 30 L267 48 L267 53 L265 55 L263 54 L256 40 L249 54 L247 55 L245 53 L246 44 L250 40 Z"/></svg>
