<svg xmlns="http://www.w3.org/2000/svg" width="512" height="512" viewBox="0 0 512 512" aria-hidden="true" focusable="false"><path fill="currentColor" fill-rule="evenodd" clip-rule="evenodd" d="M137 414 L142 425 L150 431 L162 436 L168 437 L177 436 L177 435 L160 433 L151 429 L141 420 L139 414 Z M219 409 L198 415 L199 416 L206 415 L207 417 L200 421 L192 423 L175 423 L164 419 L160 415 L159 416 L166 422 L173 425 L187 426 L197 424 L208 419 L212 413 Z M215 309 L214 314 L216 315 L219 314 L220 311 L218 309 Z M236 187 L236 189 L245 188 L255 191 L266 188 L276 189 L275 187 L271 186 L254 189 L242 185 L243 183 L251 185 L261 185 L269 183 L269 182 L261 183 L240 182 L241 185 L239 187 Z M255 17 L247 46 L243 46 L232 67 L234 85 L228 88 L227 74 L219 85 L219 115 L212 119 L210 101 L185 140 L186 176 L181 176 L178 156 L171 173 L169 196 L178 205 L170 207 L173 226 L191 259 L175 276 L169 239 L163 253 L159 252 L163 231 L153 215 L149 188 L137 240 L138 254 L150 274 L147 285 L140 274 L135 274 L136 265 L127 254 L125 289 L118 310 L119 334 L131 359 L155 380 L144 383 L121 352 L113 348 L119 387 L129 396 L126 416 L132 429 L123 434 L123 445 L139 451 L147 464 L166 465 L189 481 L210 479 L224 488 L242 484 L256 496 L269 485 L287 488 L301 480 L322 481 L344 464 L366 463 L373 451 L389 445 L389 434 L380 429 L386 417 L383 396 L392 388 L399 345 L367 382 L358 379 L375 367 L393 331 L389 289 L384 291 L388 285 L384 254 L376 263 L376 273 L364 285 L361 273 L375 245 L362 189 L357 201 L359 213 L348 232 L348 241 L357 250 L349 254 L342 241 L336 273 L321 259 L338 228 L341 207 L333 205 L343 193 L335 157 L328 160 L325 137 L301 100 L299 118 L292 115 L293 87 L285 74 L283 88 L277 85 L279 66 L269 47 L264 46 Z M244 479 L246 478 L248 480 L252 480 L255 483 L257 483 L260 479 L263 479 L266 482 L264 484 L262 483 L261 485 L259 485 L259 487 L255 490 L250 485 L250 483 L247 484 L244 481 Z M254 479 L255 476 L258 477 L256 480 Z M270 475 L273 474 L276 478 L280 480 L286 479 L288 477 L288 473 L286 471 L282 471 L282 473 L284 474 L283 477 L280 477 L277 474 L277 471 L279 468 L283 466 L287 466 L292 469 L293 474 L296 474 L297 478 L296 479 L291 478 L290 483 L280 485 L273 483 L270 480 Z M213 474 L214 473 L218 474 L221 471 L222 467 L228 466 L232 469 L234 474 L231 477 L228 477 L226 474 L230 472 L225 471 L223 474 L224 478 L231 480 L234 479 L239 474 L241 476 L241 480 L238 483 L232 485 L226 485 L220 482 L220 478 L214 479 Z M265 450 L270 450 L276 459 L276 465 L270 472 L267 471 L269 466 L269 460 L264 452 Z M279 454 L284 450 L292 449 L297 451 L299 455 L305 459 L305 461 L303 462 L302 465 L299 465 L296 460 L294 466 L288 464 L280 464 L279 463 L280 460 L283 458 L288 458 L287 456 L281 457 Z M255 448 L264 456 L266 461 L266 466 L264 470 L259 473 L252 473 L245 467 L245 461 L247 456 Z M274 445 L277 445 L279 447 L276 451 L272 448 Z M229 447 L233 445 L237 445 L239 448 L234 452 Z M332 447 L337 452 L337 458 L340 461 L339 465 L335 469 L331 469 L327 467 L327 472 L322 477 L314 479 L306 478 L300 473 L295 471 L297 467 L301 468 L306 465 L317 467 L321 465 L326 459 L328 459 L329 464 L331 464 L332 461 L331 458 L328 456 L325 456 L321 452 L316 452 L314 454 L314 458 L316 457 L317 454 L322 457 L321 461 L316 464 L311 463 L307 459 L306 455 L307 452 L313 446 L319 444 L325 444 Z M305 444 L306 449 L304 452 L301 452 L297 447 Z M203 445 L204 444 L211 445 L212 446 L211 452 L207 453 Z M172 460 L175 457 L174 452 L179 447 L187 444 L198 446 L204 452 L205 458 L201 463 L195 464 L190 460 L190 457 L194 455 L197 458 L198 455 L195 452 L191 452 L186 456 L180 458 L178 462 L180 464 L183 464 L182 461 L186 459 L188 463 L194 467 L200 466 L214 467 L217 463 L216 461 L214 461 L214 463 L211 465 L207 459 L215 451 L224 449 L229 451 L233 455 L232 458 L225 456 L226 458 L232 461 L231 464 L223 464 L217 468 L215 473 L211 473 L207 477 L201 479 L189 477 L186 474 L184 467 L181 469 L174 467 L172 465 Z M310 440 L312 439 L313 441 L311 442 Z M291 440 L294 439 L295 441 L292 442 Z M256 435 L266 446 L265 450 L263 451 L255 442 L255 444 L246 453 L242 460 L242 466 L244 471 L241 472 L235 464 L236 457 L239 456 L238 453 L242 448 L246 449 L245 447 L246 444 Z M185 436 L187 435 L188 437 L186 438 Z M260 434 L262 433 L263 435 L261 436 Z M249 434 L251 433 L252 435 L250 436 Z M387 438 L386 443 L384 445 L381 446 L374 445 L371 449 L369 448 L367 457 L363 461 L358 463 L346 462 L341 457 L340 451 L335 446 L336 444 L339 443 L345 448 L349 454 L352 456 L355 456 L360 453 L361 449 L358 445 L355 445 L353 448 L356 447 L358 451 L356 453 L350 452 L348 449 L348 446 L351 443 L363 440 L367 440 L370 443 L376 442 L380 439 L380 437 L378 437 L376 440 L374 439 L374 435 L377 432 L384 434 Z M125 439 L130 433 L135 432 L139 435 L137 439 L135 439 L134 437 L132 438 L135 442 L142 443 L145 440 L150 440 L161 443 L163 445 L163 450 L160 453 L156 453 L153 450 L155 447 L158 448 L157 445 L154 445 L151 448 L151 452 L156 456 L163 454 L168 445 L175 444 L176 446 L172 450 L171 456 L168 460 L162 463 L154 463 L149 461 L144 456 L143 448 L140 449 L138 445 L137 446 L128 445 Z M264 429 L270 427 L276 436 L283 442 L279 443 L270 439 L265 433 Z M274 427 L277 425 L290 437 L290 439 L287 440 L283 438 L275 430 Z M242 425 L243 428 L240 430 L239 428 Z M281 424 L284 422 L288 423 L299 433 L307 437 L308 440 L307 441 L302 440 L290 434 Z M290 421 L294 420 L296 424 L294 425 Z M252 415 L253 418 L251 426 L245 435 L235 442 L226 443 L225 442 L226 440 L232 437 L236 433 L240 433 L245 428 L246 424 L242 423 L244 418 L246 417 L248 420 L250 416 Z M246 415 L248 414 L249 416 L247 417 Z M244 412 L237 427 L232 432 L230 432 L226 437 L215 442 L208 441 L209 439 L222 433 L232 423 L240 412 L242 411 Z M236 411 L228 424 L219 432 L215 432 L213 435 L205 439 L198 441 L196 440 L197 437 L208 431 L221 420 L221 418 L228 411 L232 409 Z M323 400 L317 406 L307 408 L306 410 L297 414 L294 414 L270 424 L256 428 L253 427 L257 414 L259 412 L261 412 L262 414 L264 412 L267 413 L268 412 L267 407 L272 403 L282 404 L290 403 L303 396 L307 396 L311 400 L321 398 Z M262 395 L259 398 L256 397 L257 395 L260 394 Z M309 393 L311 392 L312 394 L310 395 Z M182 392 L188 391 L190 389 L194 389 L199 391 L203 396 L200 397 L191 394 L183 394 Z M382 402 L383 413 L379 424 L369 434 L355 439 L354 437 L371 424 L375 412 L373 412 L371 420 L361 430 L339 440 L323 440 L323 437 L330 437 L333 434 L308 434 L295 426 L299 423 L314 430 L332 431 L347 425 L352 419 L341 426 L316 428 L303 423 L304 421 L311 423 L313 421 L299 419 L298 417 L312 410 L324 408 L329 404 L335 404 L343 408 L339 404 L330 403 L328 400 L332 398 L350 397 L360 401 L356 397 L346 394 L350 391 L360 392 L356 389 L359 386 L373 390 Z M170 387 L172 386 L175 389 L171 390 Z M211 385 L212 389 L211 392 L209 393 L208 387 Z M129 407 L134 395 L142 388 L152 384 L165 384 L165 388 L157 388 L152 391 L163 390 L169 393 L159 395 L151 401 L167 396 L167 399 L182 396 L225 407 L226 410 L214 423 L202 430 L183 430 L187 432 L183 435 L184 439 L160 440 L145 435 L134 425 Z M389 384 L388 389 L384 392 L378 391 L376 389 L376 386 L378 384 L380 385 L380 387 L383 387 L385 383 Z M213 391 L215 388 L221 387 L225 383 L235 383 L244 386 L245 389 L233 391 L233 393 L239 393 L250 397 L254 396 L255 399 L253 401 L244 401 L240 399 L236 399 L234 401 L232 400 L228 401 L214 396 Z M331 383 L334 382 L335 384 L332 385 Z M296 383 L297 382 L304 383 L309 388 L306 391 L302 392 L300 386 L297 385 Z M296 389 L295 396 L283 401 L275 399 L268 402 L264 406 L250 408 L240 406 L237 404 L238 402 L253 403 L270 396 L274 392 L277 393 L277 391 L274 390 L264 390 L263 387 L266 385 L271 385 L281 382 L290 385 Z M173 383 L177 382 L180 385 L175 386 Z M352 381 L353 386 L349 388 L347 383 L349 381 Z M348 378 L347 380 L342 382 L340 386 L337 385 L337 383 L339 382 L341 378 L343 377 Z M162 376 L165 375 L166 377 L163 378 Z M302 378 L307 377 L310 379 L311 378 L307 376 L305 373 L311 372 L315 374 L325 384 L324 387 L316 384 L318 387 L322 389 L331 388 L338 389 L339 391 L332 394 L322 393 L315 389 L311 385 L310 382 L308 383 Z M358 370 L360 373 L354 376 L352 373 Z M151 372 L154 370 L159 373 L161 376 L158 377 L152 374 Z M294 370 L296 369 L297 371 L295 372 Z M290 369 L291 371 L289 375 L286 377 L285 373 L288 369 Z M343 368 L345 367 L346 370 L344 371 Z M357 366 L359 365 L360 367 L358 368 Z M300 368 L301 365 L304 366 L302 369 Z M143 366 L146 365 L149 368 L146 369 Z M367 364 L368 367 L366 369 L363 369 L362 367 Z M255 362 L257 363 L259 367 L257 370 L254 370 L252 368 Z M119 359 L125 363 L127 375 L131 376 L132 374 L134 374 L139 378 L137 381 L130 381 L128 383 L128 387 L131 387 L132 383 L135 385 L135 389 L132 392 L125 391 L122 387 L122 384 L125 383 L126 381 L124 381 L120 375 L121 368 L117 362 Z M393 358 L394 362 L390 369 L391 370 L390 379 L384 382 L376 381 L372 385 L371 384 L372 379 L377 374 L379 374 L380 376 L383 376 L385 374 L386 363 L389 362 Z M294 358 L296 363 L293 366 L291 366 L290 361 Z M278 358 L279 360 L275 364 L274 362 Z M283 357 L285 368 L282 374 L277 380 L271 380 L270 378 L275 373 L276 369 L278 368 L281 358 Z M301 355 L305 354 L306 356 L302 357 Z M280 352 L282 351 L283 354 L281 355 Z M251 349 L252 352 L251 357 L246 366 L247 374 L244 377 L237 380 L230 379 L230 376 L238 371 L241 368 L241 366 L233 372 L219 377 L211 376 L207 372 L208 370 L217 370 L233 364 L238 359 L240 359 L249 348 Z M136 345 L138 346 L140 350 L139 352 L137 351 L135 347 Z M376 343 L377 345 L374 348 L373 346 Z M302 344 L305 343 L307 347 L305 348 Z M375 341 L377 340 L378 342 L376 343 Z M253 340 L256 339 L258 343 L254 344 Z M249 345 L238 357 L223 366 L210 368 L206 366 L207 363 L213 363 L222 360 L233 351 L232 350 L225 356 L216 360 L211 359 L209 355 L210 351 L220 350 L228 346 L237 339 Z M133 340 L135 339 L136 341 L134 342 Z M364 339 L368 338 L369 340 L366 343 Z M294 337 L297 339 L297 342 L295 345 L293 344 Z M281 337 L282 344 L275 358 L268 369 L270 368 L273 364 L275 365 L275 368 L272 373 L262 383 L256 384 L244 383 L242 380 L249 375 L251 375 L253 379 L256 381 L259 376 L262 374 L264 371 L265 360 L273 350 L279 338 Z M262 337 L264 338 L263 341 L260 340 Z M247 337 L249 338 L248 342 L245 340 Z M376 337 L378 336 L379 339 L377 340 Z M313 335 L315 352 L308 362 L305 363 L303 360 L306 359 L311 352 L311 347 L307 343 L309 342 L311 336 Z M238 334 L241 333 L242 336 L240 337 Z M309 332 L310 333 L307 341 L304 342 L303 340 L305 333 Z M278 331 L279 333 L273 346 L268 354 L262 360 L259 353 L261 347 L260 345 L266 344 L269 340 L271 340 L274 337 L275 333 Z M234 333 L235 338 L228 342 L226 345 L218 348 L212 347 L213 345 L217 345 L224 342 L225 339 L219 342 L212 342 L209 337 L210 334 L218 334 L228 330 L231 330 Z M210 331 L211 329 L216 328 L221 329 L220 331 L216 332 Z M364 327 L365 328 L363 332 L364 338 L359 342 L356 336 L361 328 Z M272 328 L274 327 L275 329 L273 330 Z M149 327 L154 333 L154 340 L151 342 L149 339 L142 345 L141 344 L142 339 L148 336 L148 332 L146 328 Z M248 326 L250 326 L251 329 L256 333 L255 336 L252 337 L245 334 L244 331 Z M316 325 L318 326 L317 331 L315 330 Z M279 325 L282 326 L280 330 L278 329 Z M201 325 L203 325 L206 330 L206 336 L209 343 L206 349 L207 358 L202 364 L191 352 L191 347 L197 328 Z M329 324 L330 327 L328 333 L325 334 L325 337 L318 343 L317 339 L321 326 L324 324 Z M267 324 L269 325 L268 330 L266 329 Z M338 321 L343 331 L346 356 L343 363 L337 370 L332 373 L328 373 L328 375 L333 375 L334 378 L332 380 L327 380 L316 372 L308 370 L307 368 L315 365 L322 366 L321 364 L311 363 L317 354 L326 348 L334 348 L338 350 L337 347 L324 344 L325 341 L333 339 L328 337 L332 327 L331 322 Z M195 322 L197 321 L198 323 L196 324 Z M173 321 L194 327 L189 346 L187 348 L176 347 L176 349 L182 349 L186 351 L210 379 L210 381 L207 383 L205 391 L202 390 L201 387 L199 388 L181 376 L165 358 L170 323 Z M311 321 L313 320 L315 323 L312 324 Z M317 320 L320 319 L321 322 L319 323 Z M271 319 L272 322 L269 324 L268 322 Z M228 323 L228 327 L225 329 L223 329 L222 326 L217 327 L207 327 L206 326 L207 323 L214 323 L226 319 Z M189 320 L191 319 L192 322 L190 323 Z M208 319 L211 318 L212 320 L209 321 Z M325 318 L328 317 L329 320 L326 321 Z M182 318 L184 317 L185 320 L183 321 Z M332 316 L335 315 L336 317 L333 318 Z M248 315 L250 317 L249 321 L247 322 L246 326 L242 329 L239 323 Z M174 316 L176 315 L177 317 L175 318 Z M341 312 L343 311 L344 314 L342 315 Z M227 312 L230 311 L232 314 L229 316 Z M278 311 L280 310 L282 313 L279 314 Z M373 309 L376 309 L379 314 L381 324 L379 336 L377 335 L377 321 L372 311 Z M240 309 L242 316 L237 320 L234 316 L234 313 Z M139 308 L140 310 L136 316 L134 323 L135 338 L133 339 L131 334 L131 320 L135 309 Z M288 305 L290 306 L289 310 L287 309 Z M376 304 L379 303 L380 305 L377 306 Z M370 303 L373 305 L372 309 L369 307 Z M280 304 L283 303 L284 307 L281 308 Z M132 304 L134 303 L135 305 L133 306 Z M145 303 L141 308 L137 307 L140 303 L142 302 Z M258 300 L261 301 L259 311 L257 310 L256 306 Z M372 299 L374 298 L375 300 L373 301 Z M366 298 L367 300 L364 302 L363 300 Z M260 298 L262 297 L263 299 L261 300 Z M386 296 L388 300 L391 315 L390 330 L384 348 L372 364 L370 364 L369 361 L376 352 L383 334 L383 320 L379 308 L381 307 L385 314 L385 309 L380 302 L379 298 Z M145 297 L147 296 L149 300 L147 301 Z M223 296 L225 295 L227 299 L224 300 Z M261 295 L263 294 L264 296 L262 297 Z M151 292 L154 293 L153 297 L149 296 Z M376 291 L378 292 L379 295 L377 298 L374 295 Z M134 290 L137 291 L137 295 L132 299 L132 301 L128 305 L126 314 L128 313 L128 310 L131 307 L132 310 L128 322 L129 337 L134 350 L143 361 L142 363 L139 363 L130 353 L125 343 L121 327 L121 310 L124 298 L126 296 L130 297 L133 294 Z M222 290 L224 289 L225 291 L223 292 Z M146 289 L148 288 L149 291 L147 292 Z M280 286 L281 293 L279 299 L262 329 L257 334 L255 328 L263 318 L264 314 L263 311 L267 306 L269 307 L272 306 L270 304 L270 300 L277 291 L278 287 Z M359 286 L361 285 L365 289 L364 292 L361 291 L359 289 Z M339 284 L342 285 L344 290 L352 297 L353 300 L359 301 L369 310 L375 326 L374 337 L372 338 L369 335 L367 324 L364 322 L363 316 L361 315 L361 313 L359 313 L358 320 L359 327 L355 333 L355 341 L362 348 L358 349 L358 356 L351 364 L348 363 L349 346 L345 328 L347 312 L342 304 L342 301 L340 300 L338 290 Z M151 284 L154 285 L152 289 L150 288 Z M228 282 L230 283 L237 293 L237 295 L235 296 L235 300 L241 301 L241 303 L236 308 L233 308 L229 301 L230 297 L228 294 L227 286 Z M173 282 L174 285 L172 300 L164 313 L166 330 L162 348 L163 362 L160 364 L153 355 L154 349 L153 348 L151 350 L149 349 L149 347 L154 344 L157 339 L156 332 L153 328 L152 313 L150 313 L147 322 L144 324 L144 331 L140 337 L137 336 L137 322 L143 309 L154 300 L159 299 L160 296 L168 289 L168 287 Z M220 281 L223 280 L224 283 L221 284 Z M250 279 L251 280 L250 292 L247 298 L247 302 L245 303 L244 295 L246 291 L246 286 L244 281 Z M353 277 L356 276 L357 279 L354 281 Z M277 276 L279 275 L280 277 L278 278 Z M220 275 L222 274 L223 276 L221 277 Z M270 273 L273 272 L274 276 L271 277 Z M231 273 L233 272 L234 275 L232 276 Z M341 271 L346 272 L346 275 L349 281 L362 294 L361 297 L355 296 L345 286 L340 275 Z M170 271 L171 276 L168 283 L164 288 L162 288 L162 290 L158 294 L156 294 L155 289 L161 283 L164 283 L163 279 L165 277 L166 272 Z M327 270 L332 277 L335 288 L335 296 L332 305 L336 304 L337 306 L334 312 L327 314 L325 312 L326 307 L325 300 L322 315 L314 318 L312 308 L317 297 L324 273 Z M269 267 L270 268 L270 273 L268 274 L269 288 L267 292 L265 293 L264 291 L266 287 L266 283 L264 278 L267 268 Z M241 267 L243 268 L246 275 L245 280 L241 280 L239 278 L239 271 Z M130 267 L133 268 L132 274 L135 281 L139 282 L143 287 L144 291 L143 297 L140 301 L138 300 L139 296 L138 288 L135 285 L132 285 L132 287 L130 288 L126 283 L126 276 Z M277 266 L279 267 L278 274 L276 273 Z M219 267 L222 266 L223 268 L220 269 Z M380 265 L385 275 L385 284 L382 288 L380 288 L379 285 L375 286 L373 289 L373 297 L370 298 L368 296 L368 288 L370 284 L376 281 L379 275 L378 266 Z M361 264 L362 268 L361 269 L359 268 L359 272 L357 274 L354 274 L353 273 L354 268 Z M151 263 L153 263 L158 269 L159 275 L157 280 L155 279 L153 271 L149 266 Z M226 260 L228 259 L229 261 L227 262 Z M272 257 L273 258 L272 263 L270 264 L268 259 Z M309 256 L315 259 L315 268 L305 302 L311 291 L317 270 L317 265 L321 263 L324 266 L318 285 L313 296 L312 302 L303 319 L302 324 L299 326 L298 321 L300 312 L300 303 L306 266 L305 257 Z M240 255 L243 256 L241 267 L239 266 L238 261 Z M216 255 L217 265 L206 265 L216 270 L220 299 L225 310 L225 315 L219 319 L212 317 L205 310 L198 290 L195 293 L199 303 L197 317 L195 318 L176 312 L174 301 L178 280 L182 272 L191 263 L205 257 Z M234 254 L237 255 L235 260 L233 259 Z M149 254 L158 255 L161 258 L164 266 L163 274 L160 273 L161 271 L158 265 L148 256 Z M301 253 L304 258 L304 268 L301 279 L301 286 L298 300 L296 316 L296 330 L292 331 L291 346 L295 348 L296 345 L298 344 L300 348 L304 350 L305 352 L304 353 L299 352 L287 359 L285 351 L285 333 L286 327 L289 323 L291 311 L294 303 L296 284 L294 284 L292 301 L288 303 L287 302 L288 283 L290 272 L291 271 L293 273 L295 272 L297 261 L296 254 Z M226 254 L229 253 L231 258 L230 259 L227 258 Z M191 254 L194 253 L197 257 L194 258 Z M343 252 L345 253 L345 256 L348 257 L344 268 L342 268 L339 263 L340 256 Z M280 253 L283 252 L284 256 L282 257 Z M275 252 L278 253 L277 260 L275 259 L274 254 Z M266 253 L268 252 L270 256 L268 257 Z M255 252 L259 253 L261 258 L260 262 L262 261 L263 254 L266 257 L266 265 L262 266 L259 276 L260 283 L263 284 L264 286 L262 291 L256 299 L255 308 L258 314 L257 318 L255 317 L249 305 L249 298 L253 287 L253 280 L248 267 L244 266 L244 258 L247 253 L249 254 L248 256 L249 264 L250 255 L254 254 Z M167 251 L169 252 L172 260 L172 263 L170 265 L167 265 L164 259 Z M285 249 L287 248 L288 250 L286 251 Z M155 249 L157 248 L158 250 L156 251 Z M193 248 L195 247 L196 249 L194 250 Z M323 246 L325 249 L317 257 L316 254 Z M266 242 L268 246 L265 247 L264 250 L261 249 L260 246 Z M243 244 L246 242 L251 246 L251 248 L247 250 Z M292 239 L294 238 L295 240 L293 241 Z M270 238 L272 237 L274 241 L272 242 Z M188 238 L190 237 L191 239 L189 240 Z M187 235 L189 234 L190 236 L188 237 Z M322 232 L324 231 L325 233 L323 234 Z M259 232 L263 230 L267 231 L271 234 L271 237 L268 238 L267 234 L260 235 Z M252 232 L251 235 L248 234 L244 237 L241 237 L240 241 L238 243 L236 242 L239 235 L242 232 L247 230 L250 230 Z M186 231 L188 230 L189 233 L187 234 Z M365 229 L367 230 L366 234 L364 233 Z M287 226 L290 225 L291 227 L288 228 Z M220 226 L223 225 L224 227 L221 228 Z M324 224 L326 225 L325 231 L323 230 Z M186 219 L188 220 L187 230 L185 229 Z M216 213 L218 212 L219 214 L217 215 Z M262 211 L264 212 L265 217 L267 218 L265 221 L261 220 Z M226 212 L228 211 L231 214 L235 211 L237 213 L235 216 L243 217 L249 211 L250 220 L245 222 L242 227 L234 234 L233 227 L226 219 Z M187 211 L189 210 L190 212 L188 213 Z M291 209 L292 208 L295 209 L296 212 L293 213 Z M150 205 L151 206 L150 215 L153 219 L152 224 L158 227 L160 232 L160 240 L157 244 L154 242 L151 247 L151 252 L149 254 L147 253 L146 248 L145 249 L146 257 L144 258 L140 251 L140 241 L142 237 L144 237 L145 240 L147 240 L152 234 L152 229 L150 225 L147 225 L144 220 L145 210 Z M362 203 L367 212 L367 221 L365 224 L362 224 L359 230 L359 234 L364 240 L366 240 L368 237 L370 238 L369 241 L371 242 L372 245 L371 252 L369 256 L366 258 L365 257 L366 254 L365 246 L365 251 L363 256 L355 263 L352 267 L351 273 L349 274 L348 273 L349 261 L351 258 L353 258 L352 257 L353 255 L356 255 L360 251 L360 247 L357 242 L354 243 L351 239 L351 232 L352 229 L355 228 L359 224 L358 219 L361 215 L360 204 Z M265 206 L271 203 L272 205 L276 205 L277 208 L270 210 L266 209 Z M234 207 L237 203 L241 203 L242 205 L246 206 L245 209 L241 210 L235 209 Z M263 203 L264 200 L267 201 L265 204 Z M244 201 L247 200 L248 203 L246 204 Z M215 201 L217 200 L219 203 L217 204 Z M261 199 L262 202 L260 203 L259 206 L259 217 L260 223 L262 223 L263 226 L257 230 L254 230 L249 226 L251 224 L252 218 L252 206 L249 201 L254 199 L258 200 Z M270 199 L274 198 L275 200 L271 201 Z M241 199 L240 201 L236 202 L232 206 L233 207 L232 209 L228 208 L229 209 L228 211 L225 210 L226 202 L229 202 L236 198 Z M284 197 L286 200 L285 219 L281 223 L281 225 L278 227 L278 232 L276 233 L272 227 L267 225 L267 218 L275 216 L276 211 L280 214 L283 211 L282 210 L283 208 L280 209 L278 208 L279 206 L277 204 L277 201 L280 200 L283 202 L282 198 Z M324 178 L325 181 L322 183 L321 181 Z M292 178 L294 179 L293 184 L290 183 Z M187 177 L189 178 L190 181 L189 183 L186 181 Z M226 199 L229 181 L235 175 L240 173 L250 173 L255 176 L262 173 L271 173 L278 176 L279 180 L281 180 L283 184 L283 193 L281 195 L269 193 L260 199 L258 193 L256 197 L252 193 L252 198 L250 199 L245 194 L236 193 L231 195 L228 200 Z M221 174 L223 173 L224 176 L222 177 Z M288 171 L290 172 L289 177 L287 176 Z M225 172 L228 171 L229 173 L226 174 Z M325 169 L328 169 L330 171 L329 177 L326 177 L324 175 Z M334 168 L338 177 L338 182 L335 188 L339 189 L340 193 L338 199 L335 202 L331 202 L329 200 L328 201 L331 205 L330 210 L332 212 L334 211 L336 212 L336 222 L331 238 L327 246 L325 247 L323 244 L328 232 L329 224 L332 221 L332 217 L327 214 L325 209 L325 199 L330 194 L332 195 L332 198 L333 198 L334 193 L333 192 L326 193 L323 197 L323 202 L321 206 L319 205 L319 195 L323 188 L330 186 L330 181 L333 177 L332 169 Z M177 168 L179 169 L178 176 L181 181 L182 188 L188 188 L192 196 L192 204 L190 205 L188 201 L188 197 L185 193 L183 192 L177 193 L178 198 L181 195 L183 195 L186 199 L186 210 L185 213 L179 217 L179 220 L183 224 L184 235 L192 250 L191 253 L184 246 L177 230 L175 221 L175 212 L176 211 L179 212 L180 205 L183 202 L182 200 L180 202 L176 202 L172 197 L172 189 L176 188 L173 181 L173 177 Z M281 165 L282 169 L279 171 L278 169 L279 166 Z M270 165 L272 164 L273 166 L271 167 Z M275 164 L277 163 L278 165 L276 166 Z M238 164 L240 163 L241 165 L239 166 Z M191 163 L193 164 L192 169 L190 168 Z M242 163 L244 162 L245 164 L243 165 Z M234 162 L236 163 L237 166 L236 168 L233 165 Z M329 161 L330 165 L327 168 L326 165 L327 162 Z M268 161 L269 164 L266 167 L265 164 Z M261 162 L263 161 L264 164 L262 165 Z M258 156 L261 163 L259 165 L257 172 L255 173 L251 164 L248 166 L247 163 L250 160 L252 160 L252 158 L254 157 L255 165 L256 165 L256 157 Z M246 147 L248 146 L249 148 L247 149 Z M304 136 L307 136 L308 139 L311 140 L319 154 L321 161 L320 169 L318 168 L316 156 L306 140 L303 138 Z M260 137 L262 136 L263 138 L261 139 Z M208 135 L209 137 L200 147 L194 161 L192 162 L191 157 L196 146 L204 136 Z M257 134 L260 135 L258 139 L256 138 Z M251 134 L253 128 L257 127 L259 132 L255 133 L254 135 Z M295 124 L298 125 L298 128 L301 132 L300 134 L292 128 Z M219 121 L220 122 L218 125 L219 128 L211 134 L210 132 L213 128 L213 123 L216 121 Z M285 120 L287 119 L290 123 L288 124 Z M289 118 L291 117 L294 121 L291 123 Z M304 113 L307 115 L308 118 L307 123 L309 125 L310 123 L313 124 L323 141 L325 147 L325 158 L324 159 L322 158 L322 155 L316 143 L310 136 L311 132 L308 130 L308 132 L305 133 L301 129 L300 123 Z M207 113 L209 116 L210 120 L209 124 L211 125 L211 127 L206 133 L204 133 L203 130 L200 132 L201 136 L195 143 L190 153 L189 159 L187 160 L186 159 L186 149 L189 139 L195 128 L200 123 L203 125 L204 115 Z M255 107 L258 109 L257 113 L253 112 Z M249 107 L251 106 L252 108 L250 109 Z M256 102 L258 101 L259 103 L257 104 Z M255 99 L256 101 L253 104 L252 102 Z M231 93 L233 92 L234 94 L232 95 Z M289 88 L291 92 L291 96 L289 99 L286 100 L286 106 L288 107 L288 113 L285 117 L283 117 L280 109 L281 99 L284 97 L284 93 L286 89 Z M270 89 L275 88 L279 91 L280 94 L278 95 L276 92 L271 91 Z M237 89 L240 88 L241 90 L238 91 Z M223 87 L225 88 L231 102 L231 110 L225 122 L220 119 L225 106 L225 101 L221 98 L220 95 L221 89 Z M266 75 L268 74 L269 76 L267 77 Z M243 73 L245 72 L246 74 L244 75 Z M256 67 L267 81 L267 92 L277 99 L278 113 L284 125 L307 145 L314 158 L320 232 L313 247 L305 252 L297 241 L294 228 L301 199 L297 196 L297 176 L282 156 L283 145 L278 145 L278 134 L270 124 L270 115 L265 115 L266 109 L256 83 L245 110 L246 115 L241 115 L241 125 L233 134 L233 145 L228 145 L228 159 L214 177 L214 196 L210 199 L217 229 L210 252 L205 254 L196 244 L190 226 L195 206 L196 162 L205 144 L228 124 L234 99 L244 92 L244 82 Z M245 71 L252 62 L254 57 L256 56 L267 73 L265 74 L260 69 L260 67 L257 65 L256 62 L247 73 Z M255 28 L258 30 L260 34 L261 48 L264 55 L268 54 L276 67 L277 77 L275 79 L273 78 L272 74 L259 57 L256 50 L256 46 L255 46 L255 51 L253 56 L238 76 L238 79 L236 80 L234 75 L235 67 L243 54 L247 55 L250 49 L250 37 Z"/></svg>
