<svg xmlns="http://www.w3.org/2000/svg" width="512" height="512" viewBox="0 0 512 512" aria-hidden="true" focusable="false"><path fill="currentColor" fill-rule="evenodd" clip-rule="evenodd" d="M369 497 L369 500 L371 500 L371 497 Z M126 497 L124 497 L121 500 L124 500 Z M281 495 L282 497 L285 498 L286 497 L284 495 Z M232 495 L230 495 L229 498 L225 500 L229 500 L232 497 Z M187 495 L185 495 L184 497 L186 498 Z M301 494 L299 494 L297 498 L301 497 Z M275 488 L273 487 L271 490 L269 490 L269 492 L272 492 Z M222 488 L222 490 L224 491 L224 494 L227 495 L227 493 L230 492 L230 490 L228 490 L227 487 Z M205 485 L206 488 L209 488 L209 486 Z M182 484 L183 486 L187 487 L184 483 Z M262 481 L258 485 L259 486 L258 493 L257 494 L254 493 L254 495 L250 496 L250 498 L247 500 L257 500 L260 499 L261 496 L265 495 L265 493 L261 493 L259 491 L260 489 L262 489 L262 487 L260 486 L261 484 L263 484 Z M247 482 L245 481 L244 485 L246 485 Z M328 480 L331 482 L331 484 L333 484 L333 480 Z M299 482 L295 482 L292 480 L284 481 L283 485 L279 488 L283 490 L296 483 L299 484 Z M235 478 L233 481 L235 480 Z M393 475 L391 475 L390 480 L392 480 Z M111 475 L111 477 L114 478 L115 480 L119 480 L120 482 L122 482 L122 480 L116 479 L115 476 Z M190 472 L190 475 L192 477 L191 480 L194 479 L193 473 Z M186 471 L184 471 L181 478 L177 478 L177 479 L180 480 L186 479 L187 478 Z M118 470 L120 474 L125 473 L126 477 L130 473 L125 470 L122 471 L120 469 Z M252 466 L248 467 L248 470 L253 469 Z M308 465 L307 471 L311 469 L314 469 L315 471 L317 469 L319 470 L315 482 L313 480 L307 481 L307 483 L311 485 L309 489 L314 487 L314 483 L317 482 L318 484 L321 485 L321 488 L320 489 L316 488 L315 496 L317 497 L317 500 L322 498 L321 494 L323 490 L325 491 L326 496 L332 499 L333 496 L329 488 L326 488 L323 486 L326 482 L323 481 L321 483 L317 479 L318 476 L325 475 L324 472 L325 468 L318 467 L316 469 L313 466 Z M174 464 L173 467 L174 472 L177 471 L177 469 Z M167 464 L165 474 L170 476 L171 474 L167 472 L169 468 L169 465 Z M146 464 L145 463 L142 465 L142 467 L144 467 Z M378 460 L374 461 L369 458 L368 460 L360 461 L362 464 L360 467 L357 466 L357 461 L352 462 L348 471 L344 472 L346 480 L342 483 L342 485 L348 486 L349 488 L346 489 L345 492 L341 492 L339 490 L340 494 L336 495 L336 498 L339 498 L341 500 L341 497 L345 496 L350 498 L354 497 L355 500 L357 500 L361 496 L365 497 L365 486 L369 488 L369 491 L371 493 L378 491 L380 492 L379 494 L374 495 L374 497 L383 497 L383 489 L385 490 L385 493 L390 493 L390 491 L388 491 L387 488 L385 488 L384 485 L381 484 L383 480 L379 480 L377 478 L378 469 L381 468 Z M372 478 L373 480 L367 485 L366 481 Z M358 472 L364 475 L363 481 L357 482 L360 487 L359 489 L356 486 L349 484 L346 481 L346 479 L350 475 L355 477 Z M356 467 L357 470 L355 471 L354 474 L352 474 L351 470 L354 467 Z M374 467 L376 466 L377 469 L375 470 Z M199 465 L201 470 L197 472 L197 477 L201 481 L197 483 L198 484 L203 483 L203 481 L201 480 L203 475 L205 476 L206 479 L210 479 L215 473 L217 474 L217 476 L220 476 L223 478 L223 482 L228 481 L229 483 L231 483 L229 481 L231 477 L229 475 L230 468 L228 468 L225 472 L222 471 L222 467 L217 468 L215 466 L214 469 L211 469 L208 467 L208 465 L211 464 L210 458 L207 458 L209 460 L207 464 L205 463 L205 460 L203 460 L203 463 Z M222 475 L225 474 L226 477 L223 478 Z M208 475 L209 472 L211 471 L214 472 L211 476 Z M218 471 L221 470 L222 472 L219 473 Z M217 457 L217 461 L222 463 L223 465 L225 465 L228 462 L228 460 L220 462 L219 456 Z M376 455 L376 457 L380 458 L380 456 Z M226 447 L223 445 L221 448 L217 449 L217 451 L219 452 L221 448 L226 449 Z M393 445 L391 444 L389 445 L389 447 Z M304 445 L306 449 L308 449 L309 447 L312 447 L309 444 Z M237 449 L241 453 L243 451 L248 451 L247 446 L244 446 L242 444 Z M318 440 L320 447 L316 449 L314 459 L318 458 L319 459 L318 463 L320 463 L322 461 L321 457 L324 454 L324 452 L321 451 L323 447 L323 443 Z M148 439 L148 443 L150 443 L150 439 Z M89 429 L87 430 L87 432 L89 433 L89 437 L94 435 L94 432 L92 432 Z M320 424 L317 426 L317 428 L320 426 Z M96 416 L94 416 L93 420 L96 418 Z M423 389 L420 390 L420 396 L422 398 L424 395 L427 396 L428 392 L424 392 Z M429 388 L429 390 L431 391 L431 396 L429 397 L427 401 L425 400 L421 404 L427 405 L428 403 L430 403 L433 405 L433 408 L436 408 L436 406 L432 402 L434 400 L433 395 L434 388 Z M422 380 L422 382 L425 382 L425 380 Z M462 363 L460 363 L459 365 L451 364 L450 367 L446 369 L446 371 L448 372 L448 374 L451 374 L451 369 L454 366 L459 368 L459 366 L462 365 Z M427 362 L425 363 L425 370 L427 370 L428 365 Z M434 355 L435 357 L438 357 L438 355 Z M420 357 L427 356 L428 354 L424 354 L422 352 Z M434 347 L433 349 L431 349 L431 351 L435 352 L436 348 Z M469 344 L470 349 L472 349 L471 344 Z M339 336 L337 337 L337 339 L339 338 Z M477 322 L475 326 L477 326 L478 323 Z M469 316 L471 319 L474 319 L471 316 Z M483 313 L484 320 L487 320 L485 318 L485 313 Z M465 311 L458 313 L456 316 L457 317 L462 316 L462 314 L465 313 Z M451 308 L452 312 L454 313 L455 310 Z M223 308 L227 316 L229 316 L228 311 L225 308 Z M231 295 L232 298 L235 298 L237 300 L236 296 Z M84 284 L84 286 L88 287 L88 285 Z M91 276 L89 276 L86 281 L88 281 Z M108 272 L106 272 L104 275 L107 275 Z M482 266 L480 268 L476 267 L476 269 L478 270 L482 269 Z M421 254 L422 256 L424 256 Z M450 254 L450 257 L454 256 L461 257 L457 254 L458 252 L455 250 L453 250 L453 253 Z M465 249 L465 252 L467 253 L467 249 Z M427 247 L425 247 L425 249 L423 250 L424 252 L427 250 Z M207 236 L207 240 L211 240 L209 236 Z M423 232 L423 234 L427 236 L425 232 Z M406 227 L400 230 L401 231 L400 236 L405 232 Z M460 204 L459 206 L461 208 L456 209 L456 218 L458 218 L459 216 L462 217 L462 215 L460 215 L459 213 L461 210 L465 210 L465 208 L463 208 L462 205 Z M274 198 L276 203 L281 208 L285 207 L283 203 L281 204 L277 203 L278 197 Z M423 181 L416 188 L424 185 L420 194 L425 197 L413 198 L414 202 L405 207 L412 208 L409 214 L414 213 L417 217 L414 207 L419 205 L422 210 L421 222 L426 223 L424 229 L433 227 L426 223 L424 217 L428 208 L433 210 L436 207 L439 214 L436 221 L445 221 L445 230 L437 235 L449 235 L450 241 L459 237 L462 241 L478 235 L471 233 L472 220 L482 225 L488 236 L479 237 L479 240 L485 241 L480 244 L477 242 L476 247 L471 243 L471 255 L477 248 L481 252 L473 261 L480 258 L490 261 L489 255 L494 256 L499 252 L500 259 L495 264 L494 276 L487 267 L484 276 L471 276 L466 269 L459 276 L453 268 L456 264 L445 258 L445 254 L439 256 L435 251 L437 239 L434 238 L429 251 L434 255 L429 256 L427 265 L422 265 L433 269 L437 265 L448 271 L447 277 L437 277 L442 280 L441 285 L452 283 L450 292 L463 289 L463 283 L470 287 L470 291 L475 285 L478 291 L475 302 L481 308 L487 303 L493 307 L493 312 L488 315 L494 323 L480 325 L486 330 L486 337 L480 341 L475 352 L467 354 L462 343 L463 354 L456 350 L453 358 L467 357 L468 365 L475 365 L473 360 L476 359 L482 366 L480 372 L485 372 L487 368 L488 374 L493 374 L491 380 L498 377 L500 382 L500 195 L494 199 L495 207 L492 208 L492 202 L480 205 L479 201 L476 203 L472 200 L472 195 L461 189 L460 193 L457 190 L457 197 L445 205 L438 195 L446 193 L434 190 L432 194 L424 194 L429 183 L425 186 Z M492 357 L494 358 L494 361 L490 362 L489 360 Z M484 355 L486 354 L487 356 L485 357 Z M455 355 L457 354 L458 356 L456 357 Z M477 354 L479 353 L481 356 L478 357 Z M484 340 L487 343 L488 349 L487 352 L484 351 L484 347 L482 348 L480 347 L481 342 Z M497 338 L499 339 L498 343 L496 342 Z M488 337 L491 340 L490 344 L488 343 L487 339 Z M499 329 L500 334 L497 335 L496 337 L493 337 L492 335 L497 329 Z M493 301 L495 302 L494 306 L492 305 Z M478 301 L483 300 L484 302 L479 303 Z M489 295 L491 296 L490 301 L488 300 Z M478 295 L481 294 L482 297 L479 298 Z M469 280 L472 279 L473 281 L470 282 Z M466 280 L468 279 L469 281 L467 282 Z M494 278 L496 277 L497 279 L495 280 Z M449 278 L452 277 L453 279 L450 280 Z M438 260 L441 259 L442 261 L439 262 Z M485 255 L488 254 L489 256 L486 257 Z M491 251 L495 250 L496 252 L492 253 Z M467 235 L466 238 L460 237 L461 235 L465 234 Z M449 233 L452 232 L454 235 L450 236 Z M467 227 L470 226 L471 229 L469 230 Z M484 226 L486 225 L488 229 L485 230 Z M495 223 L497 222 L499 226 L496 227 Z M478 215 L482 216 L482 219 L480 222 L478 221 L477 217 Z M470 216 L472 211 L478 214 L477 216 L474 217 Z M486 206 L488 205 L489 207 L487 208 Z M460 194 L462 195 L460 199 L466 202 L470 206 L471 212 L468 214 L469 217 L463 220 L462 226 L464 230 L463 233 L461 233 L460 231 L458 233 L456 232 L457 229 L455 228 L455 226 L452 226 L451 223 L447 222 L448 217 L443 219 L440 218 L442 216 L442 212 L440 211 L440 209 L442 207 L447 208 L448 203 L452 203 L453 205 L450 206 L450 208 L454 208 L455 201 L457 200 Z M435 193 L436 196 L430 199 L429 196 Z M480 176 L481 180 L484 179 L484 177 Z M411 175 L411 177 L413 177 L414 180 L416 180 L417 176 Z M425 174 L421 176 L424 176 Z M403 169 L406 173 L408 172 L405 169 Z M298 168 L294 169 L294 171 L298 170 Z M416 163 L412 167 L412 169 L419 172 L420 169 L419 163 Z M302 160 L298 163 L303 167 L303 171 L305 172 L307 171 L307 168 L303 166 L304 161 Z M297 156 L296 159 L298 160 Z M402 151 L400 152 L400 154 L402 154 Z M345 150 L343 150 L339 154 L342 154 L345 152 Z M323 150 L319 151 L319 153 L323 152 Z M314 146 L314 150 L315 150 L316 147 Z M333 144 L332 146 L329 147 L329 149 L333 149 L335 152 L336 151 L334 148 L335 145 Z M281 142 L280 144 L281 147 L283 148 L282 142 Z M306 139 L299 143 L299 146 L297 149 L293 145 L291 145 L290 142 L287 141 L287 143 L290 149 L293 149 L295 152 L298 153 L298 150 L303 147 Z M323 127 L325 132 L326 131 L325 127 Z M269 100 L266 99 L266 103 L264 104 L264 106 L268 104 Z M244 95 L245 99 L247 99 L246 95 Z M260 89 L258 89 L257 92 L260 91 Z M214 13 L214 15 L216 15 L216 13 Z M203 13 L203 16 L209 15 L209 13 Z M13 13 L25 17 L13 23 L13 64 L18 67 L13 82 L13 138 L18 139 L13 144 L13 162 L19 168 L13 210 L20 217 L13 220 L13 235 L21 238 L13 251 L20 261 L17 266 L22 267 L15 273 L13 288 L18 288 L13 316 L22 313 L27 317 L13 335 L19 356 L15 365 L23 368 L13 381 L18 397 L13 410 L13 431 L18 437 L16 470 L21 471 L15 479 L22 478 L13 489 L13 498 L31 500 L32 494 L40 498 L35 500 L96 497 L98 494 L87 494 L82 489 L88 477 L93 480 L89 483 L91 490 L103 479 L108 485 L106 493 L113 497 L107 479 L96 475 L88 463 L91 458 L89 445 L83 439 L87 421 L93 424 L88 419 L93 412 L86 412 L81 405 L86 391 L80 391 L79 396 L66 388 L71 379 L79 380 L86 371 L84 359 L93 362 L98 358 L95 347 L84 347 L82 352 L78 345 L87 334 L78 330 L84 328 L84 319 L88 322 L84 315 L89 313 L78 307 L78 302 L85 300 L80 299 L80 278 L84 277 L83 260 L91 262 L88 256 L92 251 L82 228 L75 231 L74 226 L79 218 L86 218 L92 207 L91 195 L82 191 L93 187 L85 185 L89 179 L80 176 L86 168 L88 172 L93 170 L87 164 L100 166 L97 154 L101 159 L110 159 L108 172 L95 174 L110 175 L113 162 L99 142 L113 138 L107 133 L114 115 L126 111 L131 114 L137 108 L141 114 L134 114 L134 120 L129 118 L128 130 L122 136 L128 143 L125 150 L133 155 L119 162 L118 177 L126 186 L123 193 L129 203 L137 205 L136 211 L141 214 L138 227 L144 229 L136 234 L139 237 L132 240 L129 249 L122 250 L117 270 L122 280 L121 303 L130 307 L141 339 L141 373 L133 398 L110 406 L108 429 L115 436 L122 430 L123 437 L134 432 L141 438 L148 431 L154 434 L157 430 L161 435 L159 429 L163 428 L165 438 L183 443 L185 450 L196 442 L220 444 L217 439 L229 440 L225 436 L228 433 L241 435 L233 431 L232 415 L236 416 L236 407 L240 407 L237 398 L243 396 L243 384 L249 384 L246 377 L251 375 L247 370 L254 367 L249 362 L264 356 L263 362 L280 379 L287 380 L289 389 L283 390 L284 395 L275 402 L262 401 L249 417 L259 437 L271 438 L275 433 L285 437 L292 430 L308 428 L310 419 L321 411 L321 403 L328 401 L330 391 L337 392 L337 377 L345 380 L344 376 L351 374 L359 382 L359 395 L353 407 L335 406 L335 417 L329 417 L325 435 L342 445 L353 446 L356 442 L358 449 L362 443 L374 440 L379 447 L381 439 L389 440 L390 436 L396 443 L399 440 L399 446 L387 456 L392 471 L399 475 L405 465 L417 482 L412 485 L410 480 L401 481 L406 485 L401 494 L390 498 L436 500 L446 496 L446 500 L469 500 L486 496 L500 500 L500 398 L495 393 L500 392 L499 384 L499 390 L494 390 L491 383 L484 387 L492 393 L486 399 L488 404 L466 397 L457 401 L442 398 L439 406 L443 401 L450 402 L447 409 L456 411 L442 431 L436 429 L432 417 L436 413 L450 414 L443 409 L431 416 L426 412 L415 414 L414 419 L422 415 L429 419 L418 427 L419 435 L405 432 L402 439 L396 436 L394 415 L403 405 L398 396 L404 387 L402 378 L409 373 L404 370 L409 367 L405 360 L418 348 L413 338 L407 337 L411 333 L407 323 L395 334 L387 331 L388 326 L382 322 L389 315 L383 311 L399 298 L408 298 L404 294 L411 293 L409 287 L415 284 L411 280 L417 271 L412 269 L397 234 L394 237 L392 230 L386 231 L388 220 L378 205 L379 199 L389 204 L391 200 L383 196 L390 193 L389 188 L396 192 L396 183 L410 185 L391 182 L396 173 L392 166 L398 165 L399 159 L392 144 L398 143 L399 149 L404 144 L407 152 L412 149 L412 159 L424 158 L433 171 L439 169 L451 175 L456 167 L461 176 L457 179 L454 174 L453 186 L461 178 L476 178 L474 171 L464 176 L459 168 L469 161 L459 161 L450 171 L447 164 L451 159 L442 168 L440 164 L442 155 L452 154 L451 147 L457 145 L449 144 L450 132 L464 129 L459 124 L460 115 L475 126 L485 103 L488 110 L481 122 L484 130 L477 129 L484 143 L473 144 L470 138 L474 134 L469 134 L465 147 L459 150 L470 157 L477 149 L481 157 L475 165 L482 164 L481 172 L500 172 L500 13 L449 13 L449 23 L441 13 L302 13 L299 19 L291 18 L294 13 L264 13 L262 22 L257 13 L242 13 L255 19 L258 27 L256 31 L248 28 L237 33 L234 26 L245 22 L238 25 L227 18 L229 13 L219 13 L222 17 L217 27 L208 23 L204 27 L197 13 L186 13 L194 17 L180 24 L177 19 L172 22 L173 13 L139 13 L138 17 L116 13 L115 25 L106 18 L108 13 Z M450 497 L452 496 L453 498 L451 499 Z M419 497 L422 496 L423 499 L420 500 Z M410 497 L412 492 L418 493 L417 497 L414 498 Z M421 492 L423 491 L424 493 L422 494 Z M25 491 L27 490 L28 492 L26 493 Z M467 488 L468 489 L467 493 L464 495 L461 495 L460 493 L462 492 L462 490 Z M445 488 L447 492 L442 495 L441 494 L442 489 Z M414 488 L416 487 L417 489 L415 490 Z M59 492 L60 490 L62 490 L63 487 L68 489 L67 492 L63 493 Z M459 487 L461 486 L462 488 L460 489 Z M446 486 L454 485 L457 491 L450 496 L449 490 Z M78 486 L82 485 L83 487 L79 488 Z M436 485 L438 484 L439 487 L437 488 Z M461 480 L463 481 L464 484 L463 487 L461 486 L460 483 Z M33 481 L35 480 L36 482 L34 483 Z M25 480 L27 479 L28 481 L26 482 Z M66 479 L68 478 L69 480 L67 481 Z M36 481 L37 478 L41 479 L38 482 Z M459 478 L461 477 L462 479 L460 480 Z M455 473 L457 474 L459 483 L458 486 L456 486 L454 482 Z M438 474 L440 473 L444 479 L441 480 Z M74 473 L77 472 L78 475 L75 476 Z M83 471 L84 470 L88 471 L89 474 L85 477 Z M448 469 L451 472 L450 475 L446 473 Z M493 468 L496 467 L497 469 L494 470 Z M72 468 L74 467 L75 469 L73 470 Z M438 467 L440 466 L441 468 L439 469 Z M415 467 L419 465 L423 471 L428 471 L427 466 L431 465 L433 468 L430 477 L433 478 L435 482 L431 483 L430 480 L428 480 L429 483 L425 484 L421 479 L422 473 L418 473 L415 470 Z M85 466 L87 465 L88 467 L86 468 Z M36 470 L40 465 L46 468 L45 470 L39 471 Z M455 467 L456 464 L460 465 L457 468 Z M398 465 L401 464 L402 466 L399 467 Z M52 465 L56 464 L57 466 L54 468 Z M433 462 L435 461 L436 463 L434 464 Z M392 458 L397 459 L396 469 L394 468 L393 462 L391 460 Z M88 457 L89 459 L86 462 L85 459 Z M25 458 L28 457 L29 459 L26 460 Z M460 459 L463 456 L466 460 L461 461 Z M396 457 L398 456 L399 458 L397 459 Z M478 453 L479 454 L478 458 L472 461 L471 459 L474 456 L474 454 Z M422 454 L424 453 L425 455 L423 456 Z M402 454 L404 453 L405 456 L403 457 Z M39 454 L41 453 L42 456 L40 457 Z M35 453 L36 455 L34 456 L34 459 L32 460 L31 456 L33 453 Z M446 453 L448 452 L449 454 L447 455 Z M392 452 L395 451 L396 453 L393 454 Z M448 450 L450 449 L451 452 L449 453 Z M421 450 L423 449 L424 451 L422 452 Z M419 447 L421 446 L422 448 L420 449 Z M81 447 L84 446 L85 448 L82 449 Z M23 453 L24 446 L30 448 L29 451 L26 450 L25 454 Z M42 444 L44 445 L43 449 L41 448 Z M456 443 L458 444 L461 454 L455 456 L453 452 L454 445 Z M19 442 L21 441 L22 443 L20 444 Z M429 441 L431 440 L432 443 L430 444 Z M344 440 L346 439 L347 441 L345 442 Z M180 440 L182 439 L183 441 L181 442 Z M431 439 L433 438 L434 440 L432 441 Z M198 438 L200 437 L201 439 L199 440 Z M24 438 L26 437 L27 439 L25 440 Z M77 437 L79 436 L80 438 L78 439 Z M415 436 L416 440 L414 442 L409 443 L407 446 L402 444 L403 440 L407 438 L408 435 L411 438 Z M355 435 L357 434 L358 436 L356 437 Z M440 434 L444 433 L445 436 L442 437 Z M205 434 L207 433 L208 436 L206 437 Z M455 432 L456 434 L452 436 L451 434 Z M353 433 L355 432 L356 434 L354 435 Z M193 433 L195 432 L196 435 L194 436 Z M264 430 L266 431 L267 434 L266 436 L263 435 Z M460 430 L462 429 L463 431 L461 432 Z M178 430 L181 429 L182 431 L179 432 Z M343 428 L345 429 L344 432 L341 431 Z M170 428 L172 429 L171 432 L168 431 Z M15 429 L17 428 L18 430 L16 431 Z M187 428 L189 427 L190 429 L188 430 Z M334 427 L336 426 L337 428 L335 429 Z M23 427 L25 426 L26 428 L24 429 Z M394 424 L395 425 L393 433 L391 434 L390 433 L391 426 Z M387 423 L388 427 L386 431 L384 432 L380 429 L380 426 L381 425 L385 426 L385 424 Z M361 423 L364 423 L365 425 L368 425 L369 423 L373 424 L375 431 L377 432 L379 436 L373 437 L371 434 L365 435 L367 438 L366 440 L360 440 L359 439 L360 432 L362 431 L362 427 L360 426 Z M19 424 L23 423 L24 425 L20 426 Z M272 423 L274 422 L275 425 L273 426 Z M225 429 L224 432 L218 430 L216 436 L208 434 L207 431 L204 431 L203 433 L200 434 L198 433 L198 431 L204 424 L206 426 L210 425 L211 428 L215 428 L215 425 L212 424 L213 422 L217 423 L219 426 Z M295 422 L297 421 L298 424 L296 425 Z M200 421 L201 423 L196 427 L194 424 Z M336 421 L338 420 L339 422 L337 423 Z M223 421 L227 420 L228 423 L225 424 Z M205 421 L207 420 L208 422 L206 423 Z M463 420 L467 419 L468 422 L466 423 Z M391 420 L393 419 L394 421 L392 422 Z M347 420 L351 419 L354 422 L354 424 L351 426 L350 424 L347 423 Z M185 419 L186 423 L182 425 L181 422 Z M82 420 L86 419 L87 421 L83 422 Z M379 419 L383 418 L384 420 L380 421 Z M372 419 L375 418 L376 420 L373 421 Z M258 418 L259 420 L256 422 L255 420 Z M174 418 L177 421 L176 424 L173 422 Z M166 419 L168 418 L169 420 L167 421 Z M300 418 L305 417 L306 421 L303 422 L300 420 Z M195 417 L196 420 L190 424 L189 421 Z M366 417 L368 416 L371 419 L369 420 Z M341 419 L342 416 L347 417 L344 420 Z M217 417 L221 416 L222 418 L218 419 Z M207 416 L209 415 L212 416 L213 418 L210 419 Z M187 416 L189 415 L190 417 L188 418 Z M177 416 L182 415 L183 417 L179 419 Z M168 416 L170 415 L171 417 L169 418 Z M374 415 L376 414 L377 416 L375 417 Z M293 415 L294 417 L292 419 L292 422 L286 425 L286 428 L282 430 L280 422 L283 421 L283 419 L281 418 L281 415 L282 414 L285 416 Z M275 414 L280 418 L278 422 L273 419 L273 416 Z M161 413 L164 414 L164 417 L162 420 L160 419 Z M152 414 L156 419 L156 421 L151 422 L152 425 L151 427 L148 424 L146 424 L146 427 L144 429 L141 429 L140 421 L139 420 L136 422 L134 420 L137 413 L142 414 L145 412 L146 416 L143 417 L144 419 L150 418 L150 415 Z M484 412 L486 411 L487 413 L485 414 Z M262 410 L263 412 L259 415 L258 413 Z M211 411 L212 410 L219 411 L220 413 L213 414 Z M196 411 L199 410 L204 412 L205 414 L202 415 L197 413 Z M350 410 L352 409 L353 411 L351 412 Z M337 410 L341 409 L342 412 L338 414 Z M278 409 L281 408 L282 412 L279 413 Z M271 408 L273 409 L272 413 L270 412 Z M150 409 L153 408 L154 410 L151 411 Z M116 408 L118 409 L117 414 L114 412 Z M262 410 L265 407 L267 408 L264 411 Z M364 407 L366 406 L367 409 L369 409 L370 411 L368 413 L365 412 Z M357 408 L360 406 L362 409 L358 410 Z M309 409 L310 406 L315 407 L313 410 Z M127 406 L130 407 L129 415 L126 413 Z M120 407 L122 406 L123 408 L121 409 Z M153 404 L159 403 L160 405 L154 406 Z M471 402 L472 403 L471 412 L469 414 L464 414 L462 416 L459 415 L457 411 L461 407 L465 407 L466 404 Z M458 403 L460 402 L461 404 L459 405 Z M138 403 L140 402 L141 404 L139 405 Z M288 402 L293 401 L294 403 L291 406 Z M194 402 L198 401 L200 403 L200 406 L195 407 Z M359 401 L362 400 L363 402 L360 403 Z M204 400 L206 399 L208 402 L206 403 Z M231 399 L233 398 L234 400 L232 401 Z M136 398 L139 397 L140 399 L137 400 Z M75 397 L78 400 L77 407 L75 407 L74 404 L72 403 Z M384 397 L386 396 L387 399 L385 400 Z M209 397 L212 396 L213 398 L210 399 Z M147 397 L149 396 L150 399 L148 400 Z M228 394 L229 396 L226 399 L225 397 Z M314 394 L316 393 L317 395 L315 396 Z M146 394 L148 393 L149 395 L147 396 Z M385 393 L387 392 L388 395 L386 396 Z M324 390 L326 389 L327 391 L325 392 Z M228 390 L230 389 L231 391 L229 392 Z M154 389 L156 390 L157 394 L156 396 L152 394 Z M386 389 L388 388 L389 391 L387 392 Z M319 387 L320 389 L317 391 L316 389 Z M238 386 L239 389 L235 392 L234 390 Z M229 387 L231 386 L232 388 L230 389 Z M235 384 L238 383 L239 385 L236 386 Z M62 384 L65 383 L66 387 L64 388 Z M387 383 L389 382 L390 385 L388 386 Z M173 382 L174 384 L171 387 L170 385 Z M398 381 L399 384 L397 388 L393 390 L392 389 L393 386 Z M320 382 L322 381 L323 383 L321 384 Z M330 380 L332 379 L333 381 L331 382 Z M234 376 L235 378 L232 381 L231 378 Z M387 376 L390 375 L391 378 L388 379 Z M394 374 L396 370 L399 371 L396 375 Z M340 373 L341 370 L345 371 L343 374 Z M234 369 L236 370 L235 375 L232 374 Z M244 364 L245 365 L244 370 L241 373 L239 373 L238 371 L241 369 L241 365 Z M329 363 L330 368 L325 370 L322 366 Z M196 363 L197 367 L194 370 L194 372 L197 373 L197 384 L195 388 L192 389 L192 392 L194 394 L192 397 L191 403 L186 406 L187 409 L186 412 L182 411 L181 408 L177 407 L176 408 L177 411 L174 413 L171 408 L171 404 L173 403 L174 398 L176 399 L176 401 L178 399 L176 396 L176 393 L174 393 L173 391 L175 388 L178 391 L180 391 L180 388 L177 385 L177 382 L181 381 L179 377 L182 372 L182 369 L189 367 L190 364 L194 366 L194 364 Z M72 364 L73 363 L76 364 L77 368 L73 369 Z M179 362 L180 366 L177 376 L174 379 L173 377 L177 363 Z M389 360 L392 361 L391 370 L388 370 L386 368 L387 366 L389 366 L388 363 Z M237 356 L238 361 L237 366 L235 367 L234 360 L235 357 Z M19 357 L23 356 L24 358 L20 359 Z M389 355 L391 354 L392 357 L390 358 Z M242 355 L245 354 L246 356 L243 357 Z M194 353 L195 357 L189 360 L189 363 L186 364 L185 361 L188 357 L190 357 L189 354 Z M72 354 L74 353 L75 356 L73 357 Z M312 353 L314 352 L316 356 L320 356 L323 360 L316 365 L315 364 L316 359 L311 358 Z M250 354 L253 352 L255 353 L254 356 L251 356 Z M258 354 L259 351 L263 352 L260 355 Z M79 352 L81 351 L82 353 L80 354 Z M394 351 L396 350 L397 352 L395 353 Z M406 351 L407 348 L412 349 L410 352 Z M307 347 L310 346 L311 349 L308 350 Z M48 347 L50 346 L51 348 L49 349 Z M182 345 L183 348 L181 352 L179 353 L178 348 L180 345 Z M253 345 L256 344 L257 347 L254 348 Z M243 343 L245 344 L246 347 L249 348 L247 352 L245 352 L242 349 Z M40 344 L41 343 L46 344 L47 347 L44 348 Z M275 346 L278 349 L280 348 L281 344 L286 346 L286 343 L288 342 L289 345 L295 345 L298 349 L299 345 L302 343 L303 348 L306 350 L304 355 L307 358 L304 360 L304 363 L308 364 L306 367 L307 372 L313 370 L316 374 L320 375 L320 378 L314 381 L316 387 L311 388 L312 394 L304 403 L300 400 L300 398 L294 395 L295 390 L293 388 L293 382 L295 380 L289 377 L290 373 L294 369 L287 369 L282 373 L276 363 L272 363 L270 361 L267 353 L270 352 L272 354 L275 351 Z M387 342 L391 340 L392 342 L395 342 L396 344 L394 346 L388 345 Z M237 340 L240 341 L239 349 L235 350 L234 348 Z M43 340 L46 339 L47 341 L44 342 Z M184 340 L188 338 L190 342 L185 343 Z M21 339 L23 338 L24 340 L22 341 Z M377 343 L377 339 L379 336 L382 336 L385 339 L384 342 L380 342 L379 344 Z M313 337 L316 336 L317 339 L315 340 Z M302 337 L306 336 L308 339 L304 340 Z M290 337 L292 336 L293 338 L291 339 Z M248 337 L250 336 L251 338 L249 339 Z M175 338 L177 336 L180 337 L179 340 L176 340 Z M398 335 L403 337 L400 342 L396 338 Z M238 335 L240 334 L241 336 L239 337 Z M47 333 L49 332 L50 334 L48 335 Z M382 332 L386 331 L389 337 L388 338 L383 337 Z M180 332 L183 331 L185 335 L181 337 Z M242 330 L244 331 L243 334 L240 333 Z M170 331 L173 330 L175 335 L170 337 L169 336 Z M154 330 L157 332 L156 337 L162 335 L167 339 L175 342 L175 347 L177 350 L176 352 L174 352 L176 361 L171 377 L162 394 L156 390 L155 387 L150 386 L149 388 L147 388 L145 385 L146 383 L154 380 L154 378 L151 378 L149 374 L144 373 L145 371 L148 371 L148 354 L145 353 L145 348 L148 347 L148 344 L152 341 L151 335 Z M311 330 L314 329 L315 333 L313 334 Z M148 328 L151 329 L149 334 L146 332 Z M185 326 L187 325 L188 328 L186 329 Z M373 325 L378 324 L379 326 L374 327 Z M52 325 L54 324 L55 326 L53 327 Z M293 324 L295 323 L298 326 L295 327 Z M166 323 L171 325 L169 330 L165 326 Z M310 323 L312 322 L313 324 L311 325 Z M171 319 L175 320 L176 324 L179 322 L181 323 L178 331 L173 330 L174 325 L170 322 Z M153 320 L155 319 L156 321 L154 322 Z M26 321 L34 319 L35 327 L34 328 L31 327 Z M182 318 L189 317 L190 319 L184 321 Z M143 317 L146 322 L140 324 L139 321 Z M36 318 L39 317 L40 319 L37 320 Z M299 317 L301 316 L304 319 L300 320 Z M249 316 L255 315 L256 318 L252 319 Z M166 316 L168 315 L169 317 L167 318 Z M147 316 L149 315 L150 317 L148 318 Z M41 316 L43 315 L44 317 L42 318 Z M291 315 L293 314 L294 316 L292 317 Z M174 313 L176 312 L182 318 L179 319 L175 317 Z M34 313 L36 312 L38 315 L35 316 Z M341 311 L343 310 L345 314 L342 315 Z M295 311 L297 310 L298 312 L296 313 Z M144 310 L146 309 L147 311 L145 312 Z M332 309 L334 308 L335 310 L333 311 Z M290 309 L292 308 L293 310 L291 311 Z M190 308 L191 311 L189 315 L185 316 L184 310 Z M170 307 L172 308 L171 313 L169 312 Z M322 306 L323 307 L323 312 L321 313 L322 317 L312 319 L311 315 L316 312 L314 308 L316 307 L318 310 L320 310 L320 307 Z M136 306 L138 306 L141 311 L141 314 L137 316 L134 313 L134 308 Z M35 306 L36 311 L32 312 L32 314 L30 315 L29 314 L30 310 Z M189 306 L191 305 L192 307 L190 308 Z M152 306 L155 305 L156 307 L153 308 Z M347 305 L349 304 L350 307 L348 308 Z M301 305 L304 304 L305 308 L303 309 Z M178 303 L180 302 L181 304 L179 305 Z M52 303 L54 302 L55 304 L53 305 Z M340 300 L341 303 L339 306 L337 306 L336 304 Z M172 298 L175 299 L174 304 L171 301 Z M346 298 L349 297 L350 299 L347 300 Z M302 298 L306 297 L307 299 L303 300 Z M160 298 L158 301 L154 300 L155 298 L158 297 Z M325 297 L327 296 L331 300 L330 301 L326 300 Z M318 297 L322 296 L323 298 L319 299 Z M296 296 L298 297 L297 303 L295 302 Z M198 297 L200 296 L201 298 L199 299 Z M163 297 L165 296 L166 298 L164 299 Z M212 296 L214 295 L215 297 L213 298 Z M195 295 L196 296 L195 302 L194 303 L190 302 L189 300 Z M134 297 L140 295 L141 298 L143 299 L143 302 L141 303 L138 299 L135 299 Z M208 295 L210 294 L212 297 L209 298 Z M76 295 L78 294 L79 296 L77 297 Z M174 294 L179 293 L180 295 L175 296 Z M351 293 L353 292 L354 294 L352 295 Z M378 292 L381 291 L382 293 L379 294 Z M337 291 L338 294 L334 296 L333 293 Z M131 291 L133 292 L133 295 L129 296 L128 293 Z M51 292 L53 291 L54 293 L52 294 Z M393 290 L394 294 L391 295 L390 299 L384 300 L383 298 L391 290 Z M191 291 L188 294 L184 295 L181 294 L182 292 L188 290 Z M146 291 L148 290 L149 292 L147 293 Z M317 290 L319 289 L321 293 L318 294 Z M344 289 L347 288 L349 292 L346 293 Z M352 287 L355 288 L353 291 L350 290 Z M300 287 L301 288 L300 292 L297 294 L296 292 L298 288 Z M213 288 L210 291 L207 290 L208 288 L211 287 Z M170 287 L172 288 L171 291 L168 290 Z M158 287 L159 290 L156 292 L155 289 Z M61 288 L64 287 L66 291 L63 292 Z M202 285 L203 287 L198 290 L197 288 Z M180 288 L181 285 L184 286 L182 289 Z M395 284 L401 290 L401 293 L399 295 L395 291 L394 287 Z M362 284 L365 287 L360 291 L360 296 L371 287 L371 293 L374 292 L376 294 L374 297 L378 298 L376 305 L379 307 L372 310 L371 314 L380 316 L372 326 L368 325 L377 330 L373 356 L379 357 L379 352 L382 351 L382 357 L386 358 L381 364 L385 368 L385 381 L380 404 L377 407 L371 405 L375 398 L370 397 L366 400 L363 398 L366 393 L363 392 L360 378 L351 369 L345 367 L344 363 L338 364 L332 357 L327 358 L321 350 L322 343 L319 348 L316 345 L321 338 L317 335 L317 323 L327 316 L331 322 L337 324 L337 319 L344 321 L343 318 L351 316 L352 311 L361 318 L353 307 L360 303 L356 295 L357 289 Z M319 285 L321 284 L322 287 L320 288 Z M379 284 L385 283 L386 286 L381 287 Z M133 284 L135 283 L138 287 L135 288 Z M317 283 L319 282 L320 284 L318 285 Z M216 283 L219 282 L220 284 L217 285 Z M167 283 L169 282 L171 285 L169 286 Z M146 282 L147 284 L144 286 L143 284 Z M364 282 L366 281 L368 284 L365 285 Z M333 281 L338 284 L337 287 L334 289 L332 288 Z M29 282 L31 281 L32 283 L30 284 Z M352 281 L354 280 L355 282 L353 283 Z M305 280 L306 283 L302 285 L301 283 Z M71 280 L74 282 L73 286 L70 285 Z M359 279 L362 280 L360 284 L357 282 Z M220 280 L223 279 L224 282 L221 283 Z M174 280 L177 279 L179 282 L176 284 Z M407 278 L408 280 L401 287 L397 281 Z M199 279 L201 278 L202 281 L200 282 Z M147 279 L149 278 L150 280 L148 281 Z M323 276 L320 279 L317 278 L318 276 L321 275 Z M307 276 L309 275 L310 277 L308 278 Z M219 275 L220 277 L215 280 L214 278 Z M185 278 L194 275 L195 276 L194 279 L197 283 L192 284 L186 281 Z M323 275 L325 274 L326 276 L324 277 Z M175 275 L179 274 L180 276 L176 277 Z M140 275 L142 274 L144 278 L142 279 Z M219 274 L221 273 L222 275 L220 276 Z M160 274 L163 273 L164 275 L161 276 Z M352 272 L357 275 L355 279 L351 276 Z M332 272 L335 273 L335 276 L333 278 L331 277 Z M230 272 L231 274 L228 276 L227 274 Z M182 273 L185 272 L186 274 L183 275 Z M400 272 L405 271 L406 274 L404 276 L401 276 Z M35 271 L40 275 L38 278 L36 278 L38 280 L37 282 L35 282 L33 279 L33 277 L35 276 L34 274 Z M204 271 L206 270 L207 273 L205 274 Z M322 269 L323 271 L320 273 L319 271 Z M302 270 L305 269 L306 271 L303 272 Z M211 267 L215 268 L216 272 L214 273 L213 271 L210 270 Z M199 268 L197 271 L190 274 L188 273 L189 270 L196 267 Z M159 267 L160 270 L156 273 L155 270 Z M140 267 L142 266 L143 268 L141 269 Z M147 266 L149 265 L150 267 L148 268 Z M131 266 L133 268 L135 265 L137 266 L137 271 L135 273 L130 269 Z M322 264 L323 266 L320 268 L319 266 Z M236 265 L238 264 L239 266 L237 267 Z M169 265 L172 264 L174 269 L172 270 L169 267 Z M344 264 L346 263 L347 266 L345 267 Z M406 262 L407 264 L405 265 L405 267 L401 268 L400 266 Z M330 263 L332 262 L333 264 L331 265 Z M308 262 L310 263 L309 267 L307 266 Z M182 262 L186 263 L186 267 L184 269 L182 268 L182 266 L180 267 L178 266 Z M138 263 L140 262 L141 264 L139 265 Z M206 262 L208 261 L209 263 L207 264 Z M209 260 L211 259 L212 261 L210 262 Z M77 259 L78 260 L77 264 L79 266 L76 268 L76 274 L74 275 L73 269 L71 268 L71 264 L73 263 L74 259 Z M194 259 L196 258 L197 261 L195 262 Z M164 258 L165 261 L162 264 L160 260 Z M154 259 L156 258 L157 260 L155 261 Z M215 256 L216 258 L213 260 L212 258 Z M39 257 L42 256 L43 258 L40 259 Z M240 259 L242 255 L245 256 L242 260 Z M345 254 L347 255 L346 258 L343 257 Z M337 254 L339 255 L338 259 L336 258 Z M302 261 L296 273 L301 272 L303 276 L297 279 L293 295 L285 297 L280 318 L286 317 L284 326 L293 331 L284 340 L274 339 L272 344 L266 342 L260 347 L255 337 L260 337 L257 331 L262 319 L260 307 L264 304 L259 304 L249 313 L242 304 L244 312 L239 313 L238 321 L234 320 L238 331 L229 347 L233 354 L229 359 L230 372 L224 376 L228 381 L222 389 L221 400 L215 403 L216 393 L205 395 L206 389 L200 381 L204 375 L200 374 L203 369 L199 366 L197 343 L191 334 L194 331 L199 337 L196 324 L191 324 L195 317 L192 310 L201 309 L202 303 L209 307 L211 301 L215 302 L214 307 L218 307 L216 297 L223 294 L216 292 L225 290 L229 293 L225 287 L234 287 L228 280 L233 276 L240 278 L238 272 L254 255 L258 258 L260 254 L266 257 L267 253 L281 256 L288 264 L293 260 L295 264 Z M158 254 L161 253 L162 255 L159 256 Z M53 254 L55 253 L56 255 L54 256 Z M153 253 L155 252 L156 254 L154 255 Z M146 253 L150 252 L151 254 L147 255 Z M70 253 L73 252 L74 254 L71 255 Z M45 253 L48 252 L51 258 L49 259 L48 257 L46 257 Z M20 256 L23 252 L28 253 L27 256 L24 258 Z M402 251 L404 255 L402 256 L402 260 L399 261 L397 258 L400 252 Z M133 251 L135 252 L134 256 L132 255 Z M222 250 L223 252 L219 255 L218 253 Z M170 250 L172 255 L168 257 L166 253 Z M336 250 L338 249 L339 251 L337 252 Z M87 250 L89 249 L90 251 L88 252 Z M249 248 L247 252 L242 251 L243 248 L247 247 Z M22 248 L24 247 L25 249 L23 250 Z M30 251 L32 246 L36 248 L33 252 Z M398 245 L399 246 L398 252 L395 253 L393 251 L394 247 Z M337 248 L339 245 L343 246 L341 249 Z M261 245 L264 244 L265 248 L263 249 Z M199 243 L203 246 L202 250 L196 248 Z M273 246 L278 242 L284 250 L279 252 L278 248 L276 247 L274 249 Z M230 243 L232 242 L234 245 L232 246 Z M149 244 L153 242 L157 246 L154 248 L150 247 Z M50 244 L56 242 L57 247 L52 248 Z M392 241 L394 242 L394 247 L390 248 L388 244 Z M161 242 L165 241 L166 244 L164 245 Z M249 243 L251 240 L255 241 L254 243 L251 244 Z M27 241 L29 240 L30 242 L28 243 Z M234 240 L236 239 L237 241 L235 242 Z M160 239 L162 238 L163 240 L161 241 Z M264 238 L262 241 L258 240 L259 238 L262 237 Z M147 238 L149 237 L150 239 L148 240 Z M171 237 L173 236 L174 238 L172 239 Z M378 236 L383 235 L387 239 L384 241 L381 241 L378 239 Z M252 236 L257 235 L258 237 L253 238 Z M67 236 L69 235 L70 237 L68 238 Z M223 235 L225 234 L226 236 L224 237 Z M351 235 L356 235 L358 233 L359 238 L365 236 L366 238 L364 240 L368 242 L371 240 L377 242 L381 250 L385 248 L389 252 L387 255 L394 258 L396 266 L390 272 L395 275 L396 278 L394 280 L392 278 L389 278 L392 282 L391 284 L386 283 L385 280 L381 279 L379 282 L372 280 L371 277 L373 275 L377 275 L371 269 L370 263 L368 263 L369 268 L371 269 L370 273 L361 273 L360 268 L358 271 L356 270 L356 264 L363 257 L360 256 L359 259 L355 259 L353 261 L351 260 L351 257 L353 256 L353 254 L349 253 L351 246 L347 245 L347 239 L350 238 Z M240 233 L242 232 L245 235 L242 236 Z M264 232 L266 231 L267 233 L265 234 Z M248 232 L250 231 L251 233 L249 234 Z M222 232 L224 231 L225 233 L223 234 Z M174 230 L176 231 L175 235 L173 234 Z M154 231 L156 230 L157 232 L155 233 Z M373 228 L375 233 L368 235 L367 233 Z M348 229 L350 228 L351 230 L349 231 Z M266 231 L269 228 L272 229 L269 232 Z M190 227 L192 230 L196 231 L196 234 L194 236 L198 238 L193 249 L189 250 L189 254 L191 255 L191 257 L189 258 L182 256 L180 257 L180 260 L175 263 L173 261 L173 256 L179 255 L179 253 L176 251 L173 251 L169 246 L174 244 L179 249 L175 240 L176 239 L181 240 L182 236 L184 236 L185 238 L188 238 L185 236 L185 233 L189 231 L188 228 Z M179 228 L181 227 L182 229 L180 230 Z M380 226 L382 225 L383 227 L381 228 Z M367 225 L368 227 L363 232 L362 230 L364 226 Z M167 225 L168 227 L163 233 L162 232 L163 227 Z M70 225 L73 226 L73 231 L75 233 L80 234 L78 237 L86 239 L86 243 L84 244 L84 248 L82 250 L77 249 L73 246 L74 244 L78 244 L78 242 L73 242 L72 239 L75 236 L71 236 L67 232 Z M272 225 L274 224 L275 226 L273 227 Z M232 227 L235 224 L237 228 L233 229 Z M268 222 L269 224 L265 226 L264 224 Z M181 223 L183 222 L184 224 L182 225 Z M225 222 L228 221 L229 223 L226 224 Z M66 222 L68 221 L70 225 L68 226 Z M377 220 L380 221 L380 226 L378 228 L376 227 Z M360 220 L361 226 L359 229 L357 229 L356 225 L358 221 Z M21 221 L23 220 L24 222 L22 223 Z M354 219 L356 220 L356 223 L352 224 L351 221 Z M150 222 L153 219 L155 220 L153 223 Z M232 219 L236 218 L237 220 L233 221 Z M248 217 L251 219 L249 223 L247 222 Z M216 217 L217 223 L215 224 L214 233 L218 235 L219 238 L215 244 L212 243 L209 246 L206 244 L206 242 L203 241 L201 236 L207 231 L207 228 L210 226 L210 223 Z M196 217 L201 218 L202 220 L206 219 L208 220 L208 223 L205 224 L204 231 L202 230 L202 225 L195 228 L192 224 L193 221 L196 223 L196 221 L194 220 Z M157 218 L162 217 L163 219 L160 221 Z M353 216 L355 215 L357 218 L355 219 Z M145 216 L148 215 L149 217 L146 218 Z M180 218 L182 214 L185 216 L182 219 Z M78 215 L83 214 L84 216 L79 217 Z M170 214 L172 213 L175 216 L172 217 Z M350 213 L352 212 L354 215 L351 216 Z M161 213 L167 212 L168 214 L162 215 Z M159 213 L158 215 L153 217 L151 216 L152 214 L156 212 Z M66 213 L69 212 L70 214 L67 215 Z M345 211 L347 211 L348 214 L351 216 L348 220 L345 219 L346 216 L344 213 Z M263 211 L264 212 L263 218 L258 222 L259 224 L257 225 L254 222 L254 220 L260 217 L259 214 Z M256 211 L258 212 L257 217 L255 216 Z M228 212 L229 211 L232 213 L236 212 L237 215 L231 216 Z M209 212 L214 211 L215 213 L210 214 Z M192 212 L194 211 L195 214 L193 215 Z M245 210 L248 209 L249 212 L246 213 Z M146 210 L149 209 L150 211 L147 212 Z M189 208 L190 210 L187 213 L186 210 Z M220 208 L222 207 L223 210 L221 211 Z M208 206 L210 205 L211 207 L209 208 Z M347 205 L349 204 L350 206 L348 207 Z M202 204 L204 205 L204 211 L200 212 L199 210 L201 209 Z M178 204 L180 208 L176 211 L175 207 Z M252 204 L254 203 L255 205 L253 206 Z M377 202 L378 211 L372 215 L373 218 L372 220 L368 221 L367 216 L362 217 L361 216 L362 212 L356 211 L359 205 L362 208 L364 205 L367 205 L369 209 L367 211 L368 214 L374 208 L373 203 L375 201 Z M353 202 L355 201 L356 203 L354 204 Z M245 204 L246 201 L250 202 L248 205 Z M139 202 L142 201 L143 203 L140 204 Z M341 200 L344 201 L343 207 L340 206 Z M227 203 L230 200 L232 201 L229 204 Z M199 199 L201 198 L202 200 L200 201 Z M164 203 L165 198 L169 198 L171 200 L169 204 Z M85 199 L88 198 L89 200 L86 201 Z M156 198 L159 197 L162 203 L159 204 Z M362 196 L363 199 L360 201 L358 198 Z M346 197 L349 196 L350 200 L347 201 Z M240 196 L244 198 L242 201 L238 199 Z M371 196 L376 195 L377 197 L372 198 Z M255 196 L257 195 L258 197 L256 198 Z M173 196 L176 195 L177 198 L175 199 Z M81 196 L83 195 L84 198 L82 199 Z M355 195 L357 194 L358 196 L356 197 Z M216 196 L220 194 L223 197 L223 199 L218 200 Z M208 195 L211 194 L212 197 L210 198 Z M184 195 L188 194 L189 196 L185 197 Z M366 192 L368 191 L369 193 L367 194 Z M354 192 L356 191 L357 193 L355 194 Z M236 191 L237 192 L236 196 L232 198 L231 197 L232 193 Z M168 191 L170 190 L171 192 L169 193 Z M150 191 L153 190 L154 192 L151 193 Z M32 189 L34 190 L33 193 L30 192 Z M350 188 L352 189 L351 193 L348 192 Z M338 188 L344 193 L344 196 L340 197 L339 202 L337 201 L336 194 Z M247 188 L253 193 L252 199 L250 199 L248 195 L244 193 Z M266 187 L269 186 L270 188 L267 189 Z M179 186 L182 189 L181 192 L178 191 Z M137 186 L142 188 L140 194 L137 191 L136 188 Z M373 185 L375 186 L374 189 L371 188 Z M358 186 L360 185 L361 187 L359 188 Z M216 188 L217 185 L220 186 L218 189 Z M199 185 L201 184 L202 186 L200 187 Z M190 185 L191 184 L194 185 L195 188 L194 189 L191 188 Z M161 185 L164 184 L165 186 L162 187 Z M146 185 L151 184 L152 186 L147 187 Z M50 184 L54 188 L55 193 L54 199 L52 197 L47 196 L48 191 L46 189 L49 187 Z M341 184 L344 183 L345 186 L343 187 Z M243 184 L245 183 L246 185 L244 186 Z M169 186 L170 184 L173 183 L176 184 L175 186 L172 187 Z M35 184 L37 183 L38 185 L36 186 Z M210 182 L214 186 L213 191 L211 190 L209 185 Z M153 184 L155 182 L159 182 L161 185 L154 186 Z M79 181 L81 182 L80 185 L77 184 Z M48 182 L47 186 L40 184 L41 182 L46 181 Z M383 181 L385 180 L386 183 L384 184 Z M354 183 L357 180 L359 181 L356 184 Z M258 181 L260 180 L261 182 L259 183 Z M249 181 L252 180 L253 182 L250 183 Z M49 181 L51 180 L52 183 L50 184 Z M375 180 L377 179 L378 181 L376 182 Z M367 180 L369 179 L370 182 L368 183 Z M194 180 L198 179 L199 181 L195 182 Z M127 180 L129 179 L130 181 L128 182 Z M52 180 L56 179 L57 183 L54 185 Z M37 180 L39 179 L40 182 L38 183 Z M150 179 L152 178 L153 180 L151 181 Z M133 179 L137 178 L138 180 L134 181 Z M260 178 L262 177 L263 179 L261 180 Z M212 178 L214 177 L216 180 L213 181 Z M185 178 L182 181 L179 180 L180 178 L183 177 Z M354 176 L355 178 L352 180 L351 178 Z M190 177 L192 176 L193 178 L191 179 Z M173 176 L174 178 L171 181 L169 178 Z M144 179 L145 176 L148 177 L146 180 Z M59 177 L60 176 L63 177 L64 180 L61 181 Z M207 176 L209 175 L210 177 L208 178 Z M364 175 L366 174 L367 176 L365 177 Z M357 175 L359 174 L360 176 L358 177 Z M255 174 L257 175 L256 178 L253 177 Z M45 175 L47 174 L48 176 L46 177 Z M185 174 L187 173 L188 175 L186 176 Z M371 174 L373 172 L378 173 L377 176 L372 176 Z M259 173 L263 172 L266 176 L263 178 L262 176 L259 175 Z M234 172 L238 176 L236 181 L234 180 L233 174 Z M61 173 L63 172 L64 174 L62 175 Z M345 171 L347 172 L346 179 L342 176 Z M219 172 L220 171 L225 172 L227 175 L221 176 Z M243 171 L246 170 L248 174 L244 176 Z M125 170 L127 169 L130 172 L126 174 Z M380 168 L383 170 L382 175 L380 174 L379 170 Z M364 169 L367 168 L368 170 L365 171 Z M250 167 L252 166 L253 168 L251 169 Z M201 166 L204 168 L202 172 L200 171 Z M189 168 L191 166 L194 167 L193 170 L190 170 Z M143 167 L145 166 L146 168 L144 169 Z M32 166 L35 167 L36 173 L39 175 L38 179 L33 177 L34 174 L31 168 Z M497 165 L500 166 L498 172 L496 171 Z M490 166 L493 165 L494 167 L491 168 Z M387 165 L389 166 L388 172 L385 171 L385 168 Z M357 165 L358 168 L354 172 L353 170 L355 166 Z M236 166 L240 165 L241 167 L237 168 Z M169 166 L171 165 L173 168 L170 169 Z M158 165 L165 168 L162 174 L157 169 Z M230 165 L233 164 L234 167 L231 168 Z M175 165 L178 164 L180 168 L177 169 Z M371 164 L374 163 L375 166 L372 167 Z M72 164 L75 163 L76 165 L73 166 Z M361 162 L363 163 L362 168 L360 167 Z M355 163 L357 162 L358 164 L356 165 Z M261 162 L263 165 L260 169 L257 170 L256 169 L257 164 Z M242 162 L244 161 L245 163 L243 164 Z M157 161 L158 165 L156 166 L156 170 L154 173 L151 173 L149 171 L149 163 Z M127 162 L129 161 L130 164 L128 165 Z M17 162 L19 161 L20 164 L18 165 Z M255 159 L256 162 L252 164 L251 162 Z M167 158 L170 157 L171 160 L169 161 Z M159 158 L161 157 L164 160 L160 162 Z M380 156 L381 157 L380 160 L377 161 L376 159 Z M206 163 L207 161 L212 160 L215 156 L217 157 L215 160 L216 164 L221 161 L224 161 L225 159 L228 160 L228 162 L225 163 L221 168 L216 167 L215 170 L213 169 L211 164 Z M417 155 L420 154 L421 156 L418 157 Z M358 154 L359 156 L356 159 L355 157 Z M425 154 L432 153 L433 157 L429 158 Z M386 153 L387 157 L383 161 L382 159 L384 154 Z M369 153 L370 156 L362 162 L361 161 L362 158 L367 153 Z M261 154 L263 153 L264 155 L267 155 L268 158 L264 160 L261 157 Z M488 152 L489 155 L485 157 L484 154 Z M246 152 L248 153 L247 158 L245 157 Z M75 154 L74 158 L68 159 L65 158 L66 156 L70 155 L72 152 Z M414 152 L416 151 L417 154 L415 155 Z M240 152 L242 151 L243 153 L241 154 Z M163 156 L163 154 L166 151 L170 152 L169 155 L166 155 L165 157 Z M100 151 L104 150 L107 152 L107 154 L101 155 Z M154 150 L156 149 L157 152 L155 153 Z M419 151 L420 148 L423 149 L421 152 Z M210 149 L213 148 L214 150 L217 151 L216 154 L212 155 Z M132 148 L137 147 L138 149 L135 151 Z M70 147 L71 151 L67 152 L66 150 Z M424 147 L427 146 L428 148 L425 149 Z M253 146 L256 147 L254 152 L252 151 Z M237 146 L238 148 L234 151 L233 149 Z M246 146 L248 145 L249 147 L247 148 Z M195 146 L198 145 L201 148 L205 148 L206 150 L201 152 Z M229 145 L231 144 L232 146 L230 147 Z M241 146 L242 143 L245 144 L243 147 Z M382 142 L384 143 L383 147 L381 146 Z M488 142 L491 141 L493 144 L490 145 Z M400 141 L402 140 L403 142 L401 143 Z M202 141 L204 140 L205 142 L203 143 Z M142 140 L143 142 L141 143 L140 146 L137 145 L138 141 Z M59 141 L63 140 L67 146 L66 147 L60 146 Z M253 140 L255 139 L256 141 L254 142 Z M196 140 L198 139 L199 141 L197 142 Z M67 140 L71 139 L72 142 L70 143 Z M262 139 L264 138 L265 140 L263 141 Z M186 139 L188 138 L189 141 L187 142 Z M445 138 L447 137 L448 139 L446 140 Z M415 138 L418 137 L422 138 L420 146 L418 146 L417 144 L415 145 L413 144 Z M237 136 L241 138 L239 141 L235 139 Z M143 137 L146 136 L150 138 L152 141 L149 143 L144 142 Z M192 136 L194 135 L195 137 L193 138 Z M382 134 L383 137 L382 141 L380 142 L379 137 Z M241 135 L243 134 L244 136 L242 137 Z M413 137 L415 133 L418 134 L415 138 Z M389 135 L394 133 L399 133 L401 135 L400 140 L398 141 L390 139 Z M255 134 L258 133 L259 137 L257 138 Z M129 134 L132 133 L133 135 L130 136 Z M95 134 L97 133 L98 135 L96 136 Z M50 133 L51 137 L56 139 L57 144 L54 150 L51 149 L45 150 L43 154 L51 152 L52 153 L52 156 L50 157 L51 162 L45 163 L44 162 L46 159 L45 157 L42 160 L42 163 L45 164 L44 169 L42 170 L37 166 L36 156 L35 159 L31 160 L31 162 L29 163 L30 169 L27 170 L24 167 L24 165 L27 162 L26 158 L31 153 L36 153 L37 151 L41 152 L41 150 L38 149 L37 146 L40 144 L44 144 L44 142 L48 138 L48 134 Z M222 132 L224 133 L223 137 L221 136 Z M169 132 L170 135 L166 137 L165 134 Z M235 131 L236 133 L231 136 L230 134 Z M255 130 L256 133 L250 138 L249 136 L251 132 Z M201 133 L202 130 L206 131 L204 134 Z M186 131 L190 130 L191 132 L187 133 Z M61 131 L64 130 L66 133 L70 132 L72 137 L70 138 L69 136 L65 136 L66 139 L64 140 L63 138 L60 137 Z M426 129 L427 131 L425 136 L422 137 L420 134 L423 133 L424 130 Z M154 130 L156 129 L157 131 L155 132 Z M238 129 L240 128 L241 130 L239 131 Z M210 129 L212 128 L213 130 L211 131 Z M196 128 L198 129 L197 133 L195 132 Z M177 129 L179 128 L180 130 L178 131 Z M160 129 L162 128 L165 131 L163 132 Z M441 127 L444 130 L442 134 L438 132 L438 130 Z M381 128 L383 127 L386 130 L382 131 Z M51 128 L54 127 L55 129 L52 130 Z M488 128 L493 127 L495 125 L498 128 L499 132 L493 134 L492 133 L493 130 L489 130 Z M458 125 L461 126 L459 130 L456 129 Z M245 126 L247 125 L248 127 L246 128 Z M203 125 L205 124 L208 127 L205 128 Z M198 124 L200 123 L201 125 L199 126 Z M187 123 L197 122 L198 124 L188 125 Z M233 121 L237 120 L238 122 L235 125 Z M487 120 L489 119 L490 121 L488 122 Z M443 120 L445 119 L446 121 L444 122 Z M316 120 L318 119 L319 121 L317 122 Z M211 120 L213 119 L214 121 L212 122 Z M448 122 L449 118 L453 119 L450 123 Z M158 119 L160 118 L161 120 L159 121 Z M417 118 L420 117 L421 121 L419 122 Z M152 118 L154 117 L155 120 L153 121 Z M107 117 L109 118 L108 123 L106 122 Z M226 117 L230 116 L231 119 L228 120 Z M92 117 L94 116 L95 119 L93 120 Z M96 116 L97 115 L101 116 L103 120 L100 123 L97 122 Z M82 116 L84 115 L85 118 L83 119 Z M412 114 L414 116 L413 122 L409 125 L408 124 L408 121 L410 120 L409 115 Z M194 115 L196 114 L197 117 L195 118 Z M163 115 L165 114 L166 117 L164 118 Z M415 114 L417 113 L419 116 L416 117 Z M316 114 L318 113 L319 115 L317 116 Z M150 113 L151 114 L150 117 L147 118 L146 116 Z M472 115 L475 112 L477 113 L474 116 Z M458 113 L460 112 L461 114 L459 115 Z M345 115 L346 113 L350 112 L354 113 L350 117 Z M206 114 L209 112 L211 113 L210 116 L207 116 Z M169 113 L171 112 L173 116 L171 117 Z M93 112 L95 111 L96 114 L94 115 Z M446 111 L447 114 L445 116 L443 115 L441 116 L439 124 L433 126 L435 131 L432 132 L435 134 L432 137 L435 137 L437 139 L439 136 L442 135 L443 136 L442 140 L439 142 L434 141 L434 144 L432 145 L429 142 L427 136 L429 130 L428 124 L432 123 L432 120 L425 119 L424 116 L428 115 L427 112 L430 110 L433 111 L433 115 L436 114 L439 115 L440 113 Z M183 111 L186 110 L188 113 L184 114 Z M200 109 L203 110 L201 115 L198 112 Z M450 109 L452 108 L453 110 L451 111 Z M234 108 L237 111 L239 116 L238 118 L232 112 Z M154 109 L156 108 L157 110 L155 111 Z M43 109 L46 108 L47 110 L44 111 Z M148 108 L151 107 L153 110 L149 111 Z M114 108 L116 107 L117 110 L115 111 Z M74 108 L76 107 L77 109 L75 110 Z M471 107 L474 106 L475 108 L472 109 Z M212 106 L214 105 L219 109 L218 112 L213 111 Z M401 105 L403 104 L405 107 L402 108 Z M394 104 L397 105 L397 108 L400 109 L400 112 L406 115 L403 121 L403 125 L406 125 L407 128 L403 129 L401 132 L393 131 L390 129 L390 123 L393 122 L395 118 L401 118 L401 116 L395 117 L393 116 L392 119 L389 120 L386 115 L388 112 L390 114 L397 112 L392 109 Z M319 111 L323 110 L325 107 L331 104 L333 104 L335 107 L337 107 L338 105 L340 106 L339 116 L337 116 L336 113 L331 112 L333 114 L332 117 L330 115 L326 115 L323 117 L322 114 L319 113 Z M205 105 L207 104 L210 107 L206 108 Z M163 107 L164 104 L167 105 L165 108 Z M157 105 L159 104 L160 107 L158 108 Z M388 104 L392 103 L393 105 L389 106 Z M351 106 L354 103 L359 106 L360 109 L357 110 L355 108 L354 110 L352 110 Z M48 104 L50 103 L51 105 L49 106 Z M433 102 L435 101 L436 103 L434 104 Z M100 101 L104 102 L106 108 L102 109 L101 112 L99 111 Z M446 101 L449 100 L452 103 L447 104 Z M218 101 L220 100 L221 102 L219 103 Z M193 102 L197 100 L199 105 L197 106 Z M176 103 L177 100 L180 101 L178 104 Z M318 100 L320 99 L321 102 L319 103 Z M142 100 L144 99 L145 101 L143 102 Z M398 99 L401 98 L402 100 L399 101 Z M384 99 L386 98 L387 101 L385 102 Z M457 98 L460 96 L462 99 L458 100 Z M433 97 L435 96 L436 99 L434 100 Z M401 97 L404 96 L405 98 L402 99 Z M314 97 L316 96 L317 98 L315 99 Z M163 96 L165 97 L164 101 L162 100 Z M454 95 L456 96 L455 101 L451 99 L451 97 Z M395 96 L397 95 L398 97 L396 98 Z M230 95 L231 97 L229 98 L229 101 L231 102 L231 105 L225 106 L224 98 Z M170 96 L172 95 L173 97 L171 98 Z M353 95 L356 94 L357 96 L354 97 Z M160 95 L162 94 L163 96 L161 97 Z M448 94 L450 93 L451 96 L449 97 Z M416 93 L418 93 L421 96 L423 95 L425 96 L424 101 L421 104 L414 102 L414 100 L416 99 L415 95 Z M386 94 L390 93 L391 95 L388 98 Z M342 94 L348 93 L349 95 L347 97 L344 97 Z M198 94 L202 93 L203 96 L201 97 Z M191 93 L193 94 L192 99 L188 97 Z M180 93 L183 96 L182 98 L178 96 Z M97 93 L100 96 L97 98 L94 98 L95 105 L92 108 L91 103 L88 101 L88 98 L90 97 L91 94 L95 95 Z M84 96 L85 93 L89 94 L87 97 Z M439 92 L441 93 L440 97 L438 96 Z M408 92 L410 92 L412 95 L413 105 L411 108 L405 105 L405 102 L407 101 Z M383 93 L385 92 L386 94 L384 95 Z M320 93 L322 92 L323 94 L321 95 Z M281 93 L283 92 L284 94 L282 95 Z M215 92 L217 93 L216 99 L214 98 Z M445 92 L447 91 L448 93 L446 94 Z M298 92 L301 91 L302 93 L299 94 Z M184 92 L187 91 L188 93 L185 94 Z M494 91 L496 90 L497 92 L495 93 Z M315 91 L318 90 L319 93 L316 94 Z M27 91 L29 90 L30 93 L28 94 Z M457 89 L459 90 L460 93 L459 95 L456 92 Z M337 89 L340 91 L339 95 L336 93 Z M275 90 L278 89 L279 91 L276 92 Z M219 90 L223 89 L224 91 L220 92 Z M154 90 L152 94 L148 95 L146 94 L147 91 L152 89 Z M326 89 L331 88 L332 90 L327 91 Z M224 89 L226 88 L227 90 L225 91 Z M165 89 L168 88 L170 93 L169 94 L166 93 Z M29 89 L31 88 L32 90 L30 91 Z M455 88 L453 93 L447 91 L448 89 L453 87 Z M286 87 L291 93 L294 94 L294 97 L297 98 L296 101 L290 100 L288 103 L284 103 L281 100 L282 98 L284 98 L284 95 L286 94 L283 92 L283 90 Z M204 86 L207 89 L206 92 L203 89 Z M182 87 L184 86 L185 88 L183 89 Z M176 86 L177 88 L174 90 L173 88 Z M456 86 L459 85 L460 87 L457 88 Z M280 86 L282 85 L283 88 L281 89 Z M101 86 L103 85 L104 88 L102 89 Z M191 84 L193 85 L192 88 L189 87 Z M462 83 L464 84 L463 90 L461 89 Z M271 84 L273 83 L274 85 L272 86 Z M198 84 L201 83 L202 85 L199 86 Z M105 94 L106 89 L110 86 L111 83 L113 84 L113 86 L115 83 L119 83 L122 86 L121 90 L118 90 L116 88 L115 94 L108 93 L107 95 Z M77 84 L81 83 L83 86 L83 89 L80 90 Z M284 83 L286 82 L287 85 L285 86 Z M332 82 L334 81 L335 84 L333 85 Z M289 81 L293 80 L294 82 L290 83 Z M251 80 L255 86 L268 85 L263 90 L271 97 L279 95 L281 108 L291 104 L288 113 L276 113 L282 125 L286 116 L293 114 L292 107 L296 114 L299 110 L305 113 L313 105 L310 99 L318 103 L311 120 L298 118 L300 134 L323 119 L324 124 L328 121 L330 127 L342 133 L340 137 L346 133 L351 139 L356 125 L358 132 L366 126 L365 119 L357 121 L358 115 L368 114 L366 106 L373 113 L379 106 L385 110 L378 126 L369 132 L371 136 L348 153 L349 160 L335 185 L330 184 L334 189 L328 195 L334 200 L333 212 L349 233 L336 237 L339 241 L333 241 L327 260 L319 255 L286 255 L290 244 L284 246 L276 236 L281 230 L276 222 L278 216 L267 217 L269 210 L275 211 L263 203 L272 194 L268 182 L278 158 L272 159 L269 153 L276 147 L270 142 L268 152 L264 146 L269 136 L262 133 L266 127 L260 120 L266 119 L258 118 L254 125 L246 122 L247 115 L242 115 L235 103 L240 97 L230 95 L240 88 L249 88 L253 93 Z M213 81 L220 80 L221 84 L216 86 Z M335 80 L338 79 L340 82 L337 83 Z M305 80 L309 79 L310 81 L306 82 Z M245 80 L247 78 L250 79 L249 82 L246 82 Z M209 78 L210 81 L207 83 L206 81 Z M396 78 L399 77 L400 79 L397 80 Z M49 77 L51 77 L52 80 L54 81 L50 85 L48 85 L46 81 Z M420 80 L422 76 L425 77 L422 81 Z M273 77 L275 76 L276 78 L274 79 Z M71 79 L79 76 L81 78 L84 78 L85 80 L88 80 L89 82 L87 84 L82 83 L81 81 L76 81 L75 83 L72 83 Z M59 77 L62 76 L63 78 L60 79 Z M432 76 L435 75 L436 77 L433 78 Z M254 76 L260 75 L265 80 L261 84 L258 84 L256 80 L254 79 Z M229 76 L231 75 L232 77 L230 78 Z M194 75 L196 76 L196 79 L198 78 L200 79 L197 85 L193 81 Z M437 73 L441 75 L442 79 L443 79 L444 74 L447 75 L447 81 L449 82 L449 84 L447 85 L446 88 L440 85 L440 81 L437 80 L438 77 L436 75 Z M272 73 L273 75 L268 80 L267 75 Z M90 76 L91 73 L94 74 L92 77 Z M53 74 L55 73 L56 75 L54 76 Z M344 72 L349 71 L350 73 L345 74 Z M422 71 L424 70 L425 72 L423 73 Z M185 71 L188 70 L190 73 L186 75 Z M95 71 L97 70 L98 72 L96 73 Z M75 71 L77 70 L78 73 L76 74 Z M119 69 L120 71 L116 75 L115 70 Z M113 69 L114 70 L112 73 L113 76 L109 77 L107 72 Z M342 69 L344 68 L345 70 L343 71 Z M195 69 L197 68 L198 70 L196 71 Z M168 68 L170 72 L169 74 L170 78 L169 79 L165 78 L164 84 L158 90 L156 90 L155 88 L158 85 L158 82 L161 81 L161 79 L159 79 L158 76 L160 74 L165 75 L165 70 Z M261 67 L264 68 L265 72 L264 75 L258 72 Z M446 65 L449 65 L455 70 L455 76 L460 77 L459 82 L453 81 L452 80 L453 77 L447 74 L447 69 L444 68 Z M352 66 L356 65 L357 68 L354 70 Z M331 65 L333 66 L332 70 L329 69 Z M284 66 L288 65 L289 67 L285 68 Z M202 66 L204 65 L206 68 L206 71 L208 72 L214 71 L215 72 L214 75 L216 75 L217 77 L213 79 L210 75 L203 76 Z M427 65 L433 63 L435 67 L431 68 L428 67 Z M292 63 L297 64 L299 69 L303 72 L301 74 L302 83 L300 89 L296 88 L298 83 L298 77 L294 78 L293 74 L289 72 Z M249 63 L251 63 L252 65 L256 64 L258 68 L257 70 L254 71 L254 73 L251 76 L249 76 L247 73 Z M209 63 L211 64 L212 67 L211 71 L207 68 L207 65 Z M178 63 L181 65 L182 69 L180 71 L177 70 L177 74 L175 75 L174 73 L171 72 L171 70 L174 67 L176 67 L176 64 Z M116 64 L119 63 L122 66 L122 68 L119 69 L116 66 Z M109 64 L111 63 L112 65 L110 66 Z M318 62 L321 65 L321 68 L319 70 L316 69 Z M217 63 L219 62 L220 64 L218 65 Z M399 61 L402 62 L401 66 L404 69 L403 73 L398 70 L397 65 Z M240 61 L242 60 L243 62 L241 63 Z M408 59 L411 61 L412 64 L411 67 L409 66 L409 64 L406 63 Z M334 59 L337 62 L336 66 L332 65 L332 62 Z M252 60 L254 59 L255 62 L253 63 Z M262 59 L266 58 L267 60 L263 61 Z M255 59 L259 58 L260 60 L256 61 Z M202 59 L204 58 L205 60 L203 61 Z M196 58 L199 61 L198 65 L194 64 Z M95 59 L98 58 L99 60 L96 61 Z M383 57 L384 63 L380 65 L381 66 L380 68 L377 67 L378 58 Z M322 57 L324 56 L325 58 L323 59 Z M70 57 L74 56 L77 60 L71 61 Z M269 55 L271 54 L272 56 L270 57 Z M189 54 L192 57 L191 60 L188 58 Z M150 57 L153 56 L154 54 L156 55 L155 59 L151 59 Z M343 56 L347 53 L349 57 L355 58 L359 54 L360 55 L359 59 L361 60 L361 62 L354 63 L351 60 L350 63 L348 64 L347 60 Z M442 52 L443 54 L441 55 L440 62 L438 63 L435 60 L435 57 L440 52 Z M424 54 L430 52 L433 56 L430 58 L426 58 Z M351 55 L352 52 L358 53 L357 55 L353 56 Z M316 53 L319 52 L320 54 L317 55 Z M65 53 L68 52 L69 55 L67 56 Z M296 52 L298 55 L295 56 L294 62 L292 61 L292 58 L290 57 L289 59 L287 59 L286 62 L284 62 L283 65 L281 65 L281 67 L284 69 L284 73 L282 75 L278 76 L277 74 L279 72 L276 71 L275 66 L268 64 L268 61 L271 59 L272 56 L274 56 L275 51 L278 54 L284 55 L285 52 L289 52 L290 54 L292 54 L293 52 Z M222 51 L221 59 L216 58 L214 60 L207 59 L207 56 L210 55 L211 53 L217 54 L218 51 L220 50 Z M146 51 L149 50 L150 53 L147 54 Z M295 50 L297 49 L298 51 L296 52 Z M166 49 L170 48 L171 51 L168 52 Z M377 47 L379 48 L380 54 L373 55 L372 51 L376 49 Z M317 48 L320 47 L321 49 L318 50 Z M291 48 L293 47 L294 49 L292 50 Z M229 47 L232 49 L233 52 L231 56 L238 57 L237 62 L241 68 L239 71 L236 70 L235 72 L233 72 L230 68 L228 68 L227 66 L223 64 L225 61 L228 60 L226 52 Z M192 47 L194 48 L193 51 L190 50 Z M185 48 L187 47 L188 50 L186 51 Z M111 48 L115 48 L117 50 L117 48 L120 47 L122 51 L118 53 L118 55 L127 53 L128 55 L125 56 L123 59 L128 60 L131 63 L133 61 L133 56 L136 54 L139 54 L140 55 L139 59 L147 60 L148 64 L146 65 L146 69 L144 71 L138 70 L137 72 L134 69 L135 75 L132 82 L129 83 L127 79 L124 77 L124 73 L128 71 L122 70 L123 68 L125 68 L125 65 L120 62 L120 59 L115 61 L113 60 L113 57 L115 55 L110 50 Z M77 46 L78 48 L74 51 L73 48 Z M359 44 L360 45 L359 50 L356 51 L355 49 L357 45 Z M140 44 L143 45 L142 52 L140 51 L140 48 L137 47 Z M299 42 L301 43 L303 47 L302 49 L295 48 L296 46 L298 46 Z M170 43 L172 42 L173 44 L171 45 Z M164 43 L166 42 L167 44 L165 45 Z M453 41 L455 40 L456 42 L454 43 Z M216 40 L221 43 L221 46 L219 49 L214 50 L212 46 L215 45 L217 47 L217 44 L215 43 Z M379 40 L381 39 L382 41 L380 42 Z M285 39 L288 40 L287 44 L283 43 Z M303 38 L305 39 L304 43 L302 42 Z M133 39 L135 38 L136 41 L134 42 Z M440 41 L443 37 L448 38 L444 43 Z M418 38 L420 37 L421 39 L419 40 Z M169 38 L171 37 L172 39 L170 40 Z M257 37 L259 36 L260 38 L258 39 Z M248 37 L242 42 L240 41 L240 39 L243 38 L244 36 Z M312 36 L317 35 L318 37 L313 38 Z M291 35 L293 36 L292 39 L289 38 Z M164 34 L166 33 L167 36 L165 37 Z M96 32 L97 34 L94 36 L93 34 Z M29 33 L31 32 L32 34 L30 35 Z M314 32 L316 31 L317 33 L315 34 Z M243 32 L247 31 L250 33 L250 35 L247 36 Z M128 31 L130 32 L128 41 L131 42 L130 45 L126 44 L125 40 L123 39 L124 34 L127 33 Z M117 32 L119 31 L120 33 L118 34 Z M230 30 L232 31 L232 34 L230 35 L230 37 L234 36 L237 40 L236 43 L232 40 L226 39 L225 34 Z M158 29 L161 28 L162 30 L159 31 Z M163 28 L166 27 L167 30 L164 31 Z M478 27 L480 26 L481 28 L479 29 Z M442 27 L444 26 L445 29 L443 30 Z M450 26 L453 25 L456 28 L453 29 Z M168 32 L173 31 L175 26 L177 25 L178 27 L182 29 L183 34 L181 35 L180 32 L177 31 L176 34 L169 35 Z M194 25 L196 24 L197 26 L195 27 Z M91 24 L92 26 L88 28 L87 26 Z M359 23 L362 22 L364 24 L367 24 L370 28 L378 29 L379 31 L377 33 L379 36 L376 37 L376 39 L373 41 L370 37 L367 36 L371 32 L366 33 L364 31 L361 31 Z M387 22 L389 21 L390 23 L388 24 Z M120 22 L122 21 L123 23 L121 24 Z M40 22 L42 21 L43 23 L41 24 Z M274 21 L277 20 L280 23 L277 24 Z M158 20 L162 19 L164 22 L160 25 Z M133 22 L136 19 L139 19 L142 21 L145 21 L146 24 L145 25 L134 25 Z M27 20 L29 19 L30 22 L28 23 Z M369 21 L370 18 L374 18 L375 20 L377 18 L381 19 L378 24 Z M419 17 L421 18 L420 24 L418 23 Z M124 18 L127 17 L132 22 L125 23 Z M266 16 L271 17 L272 23 L271 25 L269 24 L268 19 L265 18 Z M322 18 L327 17 L328 15 L333 16 L332 21 L328 23 L326 22 L326 20 L323 20 Z M157 15 L158 18 L154 21 L153 18 Z M139 16 L145 15 L146 18 L143 19 L140 18 Z M54 16 L56 15 L57 17 L55 18 Z"/></svg>
