<svg xmlns="http://www.w3.org/2000/svg" width="512" height="512" viewBox="0 0 512 512" aria-hidden="true" focusable="false"><path fill="currentColor" fill-rule="evenodd" clip-rule="evenodd" d="M254 492 L254 495 L257 496 L257 492 Z M254 483 L252 485 L253 489 L258 489 L259 485 L257 483 Z M312 264 L312 279 L310 281 L309 286 L311 291 L307 293 L309 297 L306 300 L308 303 L305 306 L305 308 L311 310 L310 312 L306 314 L308 318 L313 319 L316 316 L317 312 L319 313 L320 317 L316 322 L308 323 L309 325 L317 325 L322 320 L322 313 L315 307 L316 305 L320 305 L319 295 L316 294 L318 290 L314 288 L316 286 L315 283 L316 279 L314 278 L314 265 Z M366 258 L364 260 L365 264 L372 265 L372 270 L366 271 L364 275 L366 277 L370 277 L372 280 L372 282 L367 285 L367 288 L371 291 L371 293 L368 294 L368 298 L373 300 L374 292 L376 290 L379 290 L382 287 L380 283 L377 283 L374 280 L375 278 L378 279 L381 277 L381 273 L376 271 L376 267 L380 266 L381 262 L378 259 L372 260 L369 258 Z M136 218 L136 240 L133 242 L134 246 L132 247 L132 249 L135 252 L131 254 L133 259 L130 260 L130 264 L136 266 L135 269 L131 269 L130 274 L135 276 L134 279 L130 280 L130 284 L135 285 L136 288 L134 290 L131 290 L129 294 L136 297 L136 303 L139 305 L142 303 L139 297 L144 294 L144 291 L139 290 L138 287 L140 285 L144 285 L146 281 L138 278 L139 274 L141 275 L145 274 L145 269 L141 268 L138 263 L139 261 L144 259 L144 257 L141 255 L142 250 L139 248 L141 244 L140 239 L138 237 L138 217 Z M134 258 L136 257 L137 259 L135 260 Z M137 207 L135 208 L135 210 L138 212 L140 209 Z M371 204 L371 227 L370 228 L371 232 L368 234 L370 239 L368 241 L369 244 L366 247 L366 249 L371 252 L372 256 L374 255 L378 256 L381 254 L381 251 L379 249 L376 250 L374 249 L375 246 L379 246 L379 243 L376 241 L378 239 L378 236 L374 235 L377 232 L377 230 L374 229 L373 204 Z M369 196 L371 198 L374 198 L373 194 Z M190 157 L190 170 L188 172 L189 176 L187 177 L187 179 L190 182 L186 184 L184 193 L189 195 L191 202 L189 203 L187 201 L183 201 L182 207 L183 208 L189 207 L191 211 L189 213 L183 213 L182 218 L191 219 L191 221 L187 222 L186 225 L191 234 L191 241 L193 241 L193 230 L196 229 L197 227 L196 225 L193 224 L193 222 L199 220 L198 207 L201 201 L197 198 L198 193 L196 191 L197 186 L195 184 L196 181 L193 169 L193 161 L192 157 Z M193 214 L195 213 L196 215 L194 216 Z M193 206 L196 205 L197 207 L194 208 Z M194 198 L196 197 L197 199 L195 200 Z M309 142 L306 153 L307 160 L304 161 L305 164 L302 166 L304 171 L299 175 L288 178 L285 183 L284 192 L287 200 L284 210 L288 219 L299 221 L305 226 L303 230 L306 237 L309 238 L311 251 L313 237 L317 230 L316 226 L321 221 L331 219 L340 200 L350 200 L350 197 L344 197 L342 194 L337 193 L331 178 L314 171 L317 166 L313 164 L313 154 L310 147 L311 143 Z M303 221 L310 217 L316 222 L309 225 L307 223 L304 223 Z M312 213 L315 211 L321 215 L326 214 L327 217 L324 219 L317 219 L312 216 Z M311 208 L311 213 L302 219 L295 219 L292 217 L293 214 L299 215 L303 212 L307 212 L307 209 L309 207 Z M295 207 L297 206 L298 208 L296 209 Z M317 206 L322 205 L324 208 L320 212 L316 208 Z M327 200 L332 204 L332 212 L328 215 L326 214 L327 207 L323 203 L324 201 Z M290 200 L296 202 L292 207 L291 215 L287 212 L287 204 Z M296 198 L298 197 L299 200 L297 201 Z M332 196 L334 197 L333 201 L331 200 Z M308 194 L310 194 L314 198 L310 204 L304 199 L305 196 Z M299 193 L302 192 L303 195 L301 196 Z M321 185 L323 190 L321 192 L318 192 L316 189 Z M298 185 L302 188 L299 192 L295 190 Z M329 182 L332 186 L332 192 L322 202 L319 198 L327 190 L326 183 Z M290 182 L292 183 L292 190 L294 193 L292 197 L290 197 L287 193 L287 186 Z M292 180 L299 177 L304 179 L310 184 L315 179 L322 177 L326 179 L327 182 L319 183 L315 187 L312 187 L311 190 L308 190 L307 187 L304 187 L300 183 L293 183 Z M304 175 L310 172 L314 174 L315 176 L311 179 L308 179 Z M193 128 L191 128 L182 140 L180 140 L166 154 L162 161 L156 167 L144 193 L143 197 L144 205 L150 185 L156 173 L167 158 L191 134 L193 131 Z M266 92 L262 91 L259 95 L257 95 L251 101 L251 109 L253 112 L257 114 L261 114 L267 110 L267 104 L265 100 L266 99 L270 100 L271 97 Z M262 97 L263 100 L257 104 L257 107 L259 109 L257 111 L254 108 L254 101 L257 98 Z M281 85 L282 92 L286 99 L297 110 L318 126 L336 143 L352 166 L359 181 L361 191 L364 192 L358 171 L343 147 L322 125 L296 105 L285 92 L283 85 Z M279 78 L279 81 L282 81 L282 79 Z M214 67 L215 79 L201 110 L201 128 L239 204 L231 221 L197 256 L194 246 L164 260 L167 271 L176 272 L173 324 L182 348 L167 357 L167 374 L188 406 L197 404 L207 410 L212 404 L218 407 L224 396 L216 386 L202 387 L200 380 L214 379 L236 388 L255 389 L252 399 L238 412 L237 427 L202 414 L191 416 L164 402 L155 392 L157 377 L148 358 L142 368 L142 387 L134 372 L131 351 L145 336 L144 307 L131 310 L135 329 L141 326 L142 336 L123 344 L124 367 L145 397 L183 418 L176 420 L135 392 L116 350 L128 318 L124 300 L112 287 L119 279 L117 256 L102 284 L101 296 L109 306 L117 306 L120 320 L105 307 L100 311 L107 320 L105 327 L115 334 L115 360 L130 390 L198 443 L227 446 L230 442 L220 445 L218 440 L209 440 L214 427 L223 425 L217 435 L224 433 L236 440 L221 453 L236 453 L257 478 L275 453 L291 452 L275 439 L294 434 L290 424 L302 433 L302 439 L294 439 L293 444 L282 442 L284 445 L315 441 L317 438 L309 437 L306 430 L312 435 L322 434 L376 394 L397 355 L395 329 L407 321 L400 316 L406 315 L412 304 L405 303 L391 313 L393 303 L398 298 L402 302 L410 293 L409 278 L394 250 L392 274 L399 282 L387 296 L383 312 L391 337 L395 336 L395 350 L381 383 L357 406 L334 418 L326 416 L366 394 L387 365 L389 341 L369 332 L369 322 L376 324 L380 305 L367 302 L366 332 L380 347 L372 380 L368 380 L369 364 L363 355 L362 366 L354 375 L356 389 L343 405 L274 426 L273 412 L259 399 L257 391 L326 404 L330 384 L324 388 L312 382 L300 367 L306 362 L309 366 L315 360 L320 362 L328 354 L333 356 L334 364 L342 350 L349 356 L355 330 L348 327 L348 332 L336 329 L309 336 L297 321 L276 318 L273 323 L249 322 L237 312 L234 295 L238 290 L257 295 L271 276 L285 282 L292 273 L290 264 L280 258 L276 249 L262 251 L278 220 L277 194 L265 169 L237 145 L222 125 L218 112 L221 77 Z M236 447 L240 446 L244 452 L249 452 L253 456 L257 465 L256 466 L254 464 L249 465 L248 459 L244 460 L240 455 L240 450 L237 450 Z M272 444 L275 447 L275 449 L272 450 L271 456 L267 460 L263 459 L263 463 L261 465 L258 464 L257 458 L261 457 L262 453 L265 453 L266 451 L269 450 L268 448 Z M265 439 L267 444 L265 448 L261 450 L260 448 L263 444 L263 440 Z M246 439 L248 440 L248 444 L252 449 L251 451 L247 449 L244 445 L244 442 Z M254 435 L259 436 L261 440 L260 444 L256 448 L251 444 L251 439 Z M239 434 L241 433 L242 435 L240 436 Z M267 433 L274 432 L276 437 L273 438 Z M254 420 L257 420 L261 426 L260 431 L258 433 L252 432 L250 428 L251 423 Z M184 425 L188 424 L189 420 L193 422 L193 425 L203 425 L204 428 L200 430 L206 431 L207 434 L203 438 L199 439 L198 437 L200 436 L200 434 L192 434 L190 432 L192 427 L185 427 Z M251 417 L252 419 L248 424 L248 428 L246 429 L245 423 Z M239 418 L241 416 L244 416 L245 420 L240 421 Z M193 422 L193 418 L196 416 L201 416 L203 418 L202 420 L200 420 L199 423 Z M306 417 L308 415 L317 415 L318 419 L322 417 L323 422 L327 422 L328 424 L325 426 L320 426 L320 431 L317 433 L313 433 L312 424 L317 423 L317 421 L309 421 Z M257 416 L259 415 L264 421 L262 422 Z M260 409 L265 408 L268 411 L268 416 L271 417 L272 420 L268 421 L263 416 L263 411 L261 411 Z M250 408 L251 409 L250 412 L244 415 L243 414 L244 410 L246 408 Z M251 405 L253 404 L254 407 L252 408 Z M255 404 L259 403 L261 408 L258 409 Z M208 398 L210 397 L211 399 L209 400 Z M322 397 L324 396 L325 398 L323 399 Z M313 394 L315 393 L316 396 L314 397 Z M305 394 L307 393 L308 395 L306 396 Z M211 394 L213 393 L214 395 L212 396 Z M324 393 L326 392 L327 394 L325 395 Z M207 391 L206 395 L203 395 L202 397 L198 397 L200 400 L199 402 L197 402 L196 400 L190 397 L191 394 L197 393 L201 390 Z M297 390 L300 389 L301 391 L298 392 Z M190 389 L192 388 L193 391 L191 392 Z M196 388 L198 387 L199 389 L197 390 Z M273 386 L275 385 L277 388 L274 389 Z M178 387 L186 385 L190 395 L189 396 L186 395 Z M189 384 L191 383 L192 385 L190 386 Z M367 382 L369 381 L370 383 L368 384 Z M282 382 L284 381 L285 383 L283 384 Z M266 383 L271 381 L273 385 L272 386 L267 385 Z M147 380 L150 381 L149 386 L146 383 Z M256 380 L259 379 L260 382 L258 383 Z M183 380 L186 379 L187 382 L185 383 Z M364 378 L365 381 L363 385 L361 386 L360 385 L361 379 Z M298 379 L300 378 L313 390 L310 392 L307 389 L304 389 L302 384 L298 383 Z M192 379 L194 378 L195 380 L193 381 Z M262 378 L265 377 L266 380 L263 381 Z M243 378 L245 377 L246 379 L244 380 Z M183 377 L184 379 L182 380 L182 382 L178 384 L177 383 L178 379 Z M219 377 L221 376 L222 378 L220 379 Z M151 377 L153 376 L155 380 L153 381 Z M287 376 L290 375 L291 377 L294 376 L295 381 L293 383 L288 382 Z M265 374 L269 373 L270 375 L266 376 Z M248 374 L251 373 L253 376 L249 377 Z M260 372 L262 373 L261 377 L258 375 Z M144 371 L146 370 L150 374 L150 376 L147 377 Z M242 369 L245 370 L245 373 L243 375 L241 374 Z M203 369 L206 368 L207 370 L204 371 Z M169 369 L171 368 L172 370 L170 371 Z M128 369 L130 368 L131 370 L129 371 Z M245 368 L250 367 L251 370 L248 371 Z M366 366 L367 370 L363 375 L360 375 L358 377 L357 374 L359 372 L362 372 L362 370 Z M260 367 L262 366 L263 368 L261 369 Z M238 366 L239 371 L237 374 L235 374 L234 369 Z M191 371 L192 367 L194 366 L196 372 L206 373 L207 371 L213 372 L214 370 L217 370 L218 373 L211 377 L199 377 L194 375 Z M173 371 L174 370 L181 371 L180 368 L181 366 L188 369 L188 371 L185 373 L184 376 L177 375 Z M273 365 L279 368 L284 367 L288 370 L287 373 L284 373 L284 377 L282 379 L278 377 L276 371 L274 372 L271 368 Z M211 365 L213 366 L212 370 L210 369 Z M127 366 L129 365 L130 367 L128 368 Z M199 364 L202 365 L201 370 L197 369 Z M204 364 L207 363 L208 366 L206 367 Z M172 364 L173 363 L176 364 L177 368 L175 369 Z M384 360 L385 362 L384 365 L382 366 L381 363 Z M244 360 L247 361 L245 365 L242 364 Z M184 361 L186 360 L187 363 L185 364 Z M210 360 L211 359 L216 360 L217 362 L212 365 Z M279 359 L281 358 L284 361 L280 362 Z M190 358 L193 359 L192 364 L190 363 L189 360 Z M254 357 L256 360 L250 363 L249 360 Z M234 357 L236 356 L237 361 L241 361 L242 363 L236 365 L234 363 Z M203 356 L206 358 L205 362 L201 361 L201 358 Z M274 356 L274 358 L272 359 L272 362 L269 364 L264 364 L258 359 L259 357 L262 356 L267 357 L268 355 Z M196 356 L198 355 L199 358 L197 359 Z M215 355 L218 354 L219 357 L216 358 Z M181 354 L182 361 L179 364 L178 363 L179 355 Z M236 354 L238 353 L240 356 L237 357 Z M302 355 L304 351 L308 353 L307 355 L304 356 Z M210 355 L212 351 L216 353 L215 355 L212 356 Z M185 351 L188 352 L189 357 L188 359 L184 357 Z M196 349 L197 354 L192 356 L191 354 Z M201 348 L205 350 L203 355 L199 353 Z M334 347 L337 348 L336 353 L334 352 L333 349 Z M238 350 L244 347 L247 350 L247 354 L249 355 L249 357 L246 358 L245 355 L243 355 L242 352 L239 352 Z M211 347 L212 346 L215 347 L216 350 L214 351 Z M258 345 L261 344 L262 346 L259 347 Z M246 347 L250 343 L253 344 L252 349 L259 350 L262 347 L266 347 L267 350 L257 355 L255 353 L251 353 L250 350 L247 349 Z M184 347 L186 343 L191 344 L190 347 L186 348 Z M194 344 L197 341 L200 342 L197 346 Z M327 339 L330 337 L334 341 L329 343 Z M314 337 L316 338 L315 342 L317 342 L318 340 L324 341 L323 343 L320 343 L321 347 L319 349 L316 349 L314 347 L312 347 L311 349 L309 348 L309 344 Z M262 338 L266 336 L268 340 L272 340 L273 342 L281 342 L289 348 L294 348 L307 339 L309 341 L307 345 L303 347 L302 352 L295 352 L287 357 L286 353 L284 353 L282 356 L276 356 L272 352 L272 350 L276 349 L276 347 L273 347 L270 344 L266 345 L265 341 Z M244 337 L247 336 L248 339 L246 340 Z M204 337 L207 336 L208 340 L205 341 Z M277 336 L279 335 L282 336 L283 338 L279 339 Z M196 336 L200 335 L201 338 L198 339 Z M179 336 L185 335 L188 340 L184 342 L180 339 Z M117 336 L119 335 L120 337 L118 338 Z M346 335 L350 334 L351 336 L347 337 Z M235 334 L238 336 L238 340 L243 341 L243 344 L238 347 L234 344 L232 337 Z M283 334 L286 333 L287 336 L284 338 Z M342 332 L344 335 L344 339 L337 342 L335 339 L338 336 L338 334 Z M301 333 L304 332 L305 335 L303 336 Z M192 332 L194 333 L193 341 L189 337 Z M288 331 L294 330 L298 334 L298 336 L296 337 L294 335 L289 335 Z M277 331 L280 330 L281 332 L278 333 Z M246 331 L248 330 L249 333 L247 334 Z M225 328 L231 332 L229 339 L223 335 L223 330 Z M112 329 L116 328 L117 332 L115 333 Z M236 331 L237 327 L242 328 L239 333 Z M298 326 L300 327 L299 330 L296 329 Z M252 327 L254 326 L255 329 L253 330 Z M198 326 L203 327 L200 333 L197 331 Z M109 326 L111 325 L112 328 L110 329 Z M244 324 L245 323 L248 324 L249 327 L247 328 Z M186 327 L188 326 L189 323 L195 325 L194 330 L191 328 L189 331 L187 331 Z M177 322 L182 323 L184 329 L183 333 L180 333 L177 330 L176 325 Z M400 322 L402 321 L403 323 L401 324 Z M231 321 L235 323 L232 328 L230 328 L228 325 L228 323 Z M216 328 L216 324 L219 321 L223 326 L218 329 Z M109 321 L111 320 L112 322 L110 323 Z M237 319 L239 318 L241 322 L239 323 Z M370 316 L372 315 L373 317 L371 318 Z M222 315 L228 314 L230 319 L224 322 L222 320 Z M188 314 L192 318 L190 320 L187 320 L187 322 L185 323 L183 320 L183 317 Z M231 313 L233 312 L234 314 L232 315 Z M137 313 L139 312 L141 316 L138 317 Z M215 311 L216 318 L213 321 L211 319 L211 315 Z M183 310 L185 309 L186 311 L184 312 Z M177 308 L179 309 L179 314 L181 316 L179 319 L176 317 Z M370 308 L373 307 L374 311 L371 312 Z M181 308 L183 307 L184 309 L182 310 Z M191 306 L195 308 L195 310 L192 313 L189 311 Z M230 303 L232 304 L231 309 L228 307 Z M120 303 L122 303 L125 309 L124 315 L122 314 L122 311 L119 305 Z M221 302 L226 306 L226 310 L219 313 L218 307 L216 305 Z M212 302 L213 307 L209 309 L208 306 Z M389 301 L390 302 L389 315 L387 316 L386 315 L386 305 L387 302 Z M183 304 L187 300 L190 302 L188 305 Z M180 299 L181 302 L178 304 L177 302 Z M104 295 L106 294 L107 297 L105 298 Z M229 293 L231 294 L230 297 L227 296 Z M215 294 L218 292 L222 292 L225 295 L225 300 L218 301 Z M191 292 L194 293 L194 297 L192 299 L189 296 Z M212 290 L213 291 L212 297 L208 298 L207 295 Z M404 292 L405 289 L408 290 L406 293 Z M401 287 L402 291 L400 295 L392 300 L391 295 L395 291 L398 292 L399 288 Z M189 287 L190 290 L186 293 L185 289 Z M258 284 L260 283 L261 286 L259 287 Z M106 283 L110 284 L112 296 L114 297 L116 295 L119 298 L118 303 L110 300 L109 293 L107 293 L104 288 Z M244 282 L246 281 L247 284 L245 285 Z M255 281 L257 280 L258 282 L256 283 Z M218 281 L224 280 L227 283 L225 291 L216 289 L216 283 Z M212 280 L214 281 L213 284 L210 283 Z M188 281 L193 279 L195 282 L195 285 L192 286 L191 283 L189 283 Z M402 278 L406 280 L407 282 L406 286 L401 283 Z M239 279 L241 278 L242 280 L240 281 Z M280 278 L283 277 L284 279 L281 280 Z M264 277 L266 276 L267 278 L265 279 Z M116 276 L117 277 L116 280 L111 282 L110 279 L113 276 Z M199 275 L200 277 L197 279 L196 277 Z M262 274 L264 273 L265 275 L263 276 Z M189 274 L191 273 L192 276 L190 277 Z M243 273 L245 272 L246 275 L244 276 Z M278 271 L280 274 L276 276 L275 273 Z M395 271 L397 270 L398 272 L400 272 L401 276 L400 277 L397 276 Z M222 271 L225 270 L230 271 L231 276 L228 280 L220 277 L220 274 Z M184 270 L186 274 L182 282 L180 283 L179 282 L180 277 L178 275 L179 274 L182 275 L183 274 L180 271 Z M214 273 L215 269 L219 270 L217 274 Z M264 268 L266 267 L269 271 L268 272 L265 271 Z M246 269 L249 267 L251 270 L247 271 Z M190 272 L193 267 L198 270 L196 273 Z M240 267 L242 266 L243 268 L241 269 Z M201 267 L205 266 L206 270 L202 271 Z M183 265 L185 264 L186 266 L184 267 Z M266 262 L270 261 L272 263 L276 263 L277 264 L276 267 L279 267 L280 269 L274 270 L274 272 L272 273 L271 270 L269 269 L269 266 L266 264 Z M245 262 L247 261 L248 264 L246 265 Z M202 261 L203 263 L200 266 L199 264 Z M230 260 L235 260 L237 263 L237 266 L234 270 L230 270 L229 268 L226 267 L226 265 Z M205 261 L209 260 L210 262 L206 263 Z M182 262 L178 268 L173 269 L169 268 L170 266 L175 265 L176 262 L179 260 Z M213 259 L216 259 L217 262 L210 273 L210 277 L207 282 L205 294 L206 311 L209 321 L213 328 L225 340 L233 345 L234 352 L229 362 L232 364 L232 375 L236 382 L235 384 L232 383 L227 376 L228 365 L225 361 L224 361 L224 369 L222 370 L218 368 L218 364 L221 363 L221 361 L219 360 L219 358 L221 357 L221 353 L219 353 L217 350 L218 345 L220 344 L221 349 L230 351 L230 349 L228 347 L224 348 L222 343 L217 342 L216 339 L211 340 L210 338 L213 337 L213 335 L205 332 L207 328 L202 324 L204 321 L201 318 L201 315 L198 317 L194 316 L194 314 L197 311 L200 312 L199 304 L196 305 L194 303 L196 299 L200 301 L199 298 L200 293 L194 290 L194 286 L198 285 L200 290 L201 289 L201 282 L205 278 L204 273 L208 271 L209 265 L212 264 Z M247 259 L249 258 L250 260 L248 261 Z M220 262 L222 257 L226 259 L224 263 Z M175 257 L179 256 L180 258 L176 259 Z M201 256 L203 255 L206 258 L204 259 Z M261 254 L263 258 L257 262 L256 261 L257 257 Z M184 254 L191 256 L190 258 L188 258 L189 261 L188 263 L183 262 L182 256 Z M210 256 L213 253 L215 254 L213 257 Z M236 252 L242 252 L245 255 L241 261 L233 257 Z M270 252 L273 251 L274 254 L271 255 Z M232 250 L232 253 L230 255 L220 254 L219 256 L217 255 L218 250 L225 248 L227 250 L229 249 Z M206 251 L208 248 L213 249 L210 252 Z M259 244 L261 243 L262 245 L260 246 Z M244 243 L251 244 L251 250 L248 253 L239 249 Z M212 244 L218 241 L222 245 L220 247 L215 248 Z M240 241 L240 244 L237 247 L232 247 L230 244 L231 242 L235 243 L238 240 Z M246 239 L251 235 L253 235 L257 238 L257 242 L255 245 L253 245 Z M267 234 L268 236 L265 238 L264 236 Z M256 232 L260 231 L261 236 L259 237 Z M233 229 L234 231 L230 239 L227 239 L224 242 L219 239 L221 235 L228 234 L225 232 L227 229 Z M270 224 L272 223 L273 225 L271 226 Z M233 222 L236 221 L240 223 L243 231 L248 234 L246 239 L244 237 L241 238 L239 237 L237 230 L234 230 L233 227 L231 226 Z M262 220 L264 220 L267 223 L267 227 L264 230 L257 228 L259 222 Z M256 218 L257 223 L252 226 L251 230 L248 229 L249 225 L246 222 L249 221 L250 223 L252 223 L253 220 Z M270 209 L271 210 L270 218 L267 220 L262 217 L263 211 Z M260 209 L261 211 L258 214 L257 212 Z M248 208 L249 210 L244 217 L244 220 L240 223 L237 218 L240 214 L242 214 L240 210 L242 208 Z M260 198 L262 199 L261 205 L259 204 Z M242 200 L245 198 L249 198 L251 206 L248 207 L245 205 L242 205 L241 204 Z M255 197 L257 198 L257 205 L253 206 L252 199 Z M268 196 L270 197 L271 200 L271 207 L265 208 L264 207 L265 198 Z M264 193 L267 191 L269 192 L268 195 L265 195 Z M256 188 L258 187 L259 189 L257 190 Z M243 187 L247 189 L249 194 L248 196 L242 196 L240 194 L240 190 Z M261 185 L264 184 L266 188 L262 189 Z M253 183 L255 182 L256 184 L254 185 Z M257 179 L260 178 L261 181 L259 182 Z M240 178 L243 184 L237 187 L236 181 Z M246 178 L249 177 L250 180 L248 181 Z M253 173 L255 172 L256 174 L254 175 Z M232 172 L234 172 L237 176 L234 180 L231 179 Z M238 168 L240 167 L242 170 L240 171 Z M224 167 L228 166 L231 167 L232 169 L226 173 Z M231 164 L235 163 L236 165 L232 166 Z M242 162 L244 161 L245 163 L243 164 Z M223 161 L225 164 L221 166 L220 163 Z M242 156 L244 155 L245 157 L243 158 Z M216 156 L220 155 L221 159 L218 161 L216 159 Z M228 153 L230 154 L229 158 L226 156 Z M219 150 L222 148 L225 152 L221 153 Z M212 149 L214 148 L216 152 L214 153 Z M209 143 L211 142 L212 144 L210 145 Z M214 141 L216 140 L220 144 L220 146 L217 147 Z M222 139 L224 138 L225 140 L223 141 Z M207 137 L209 136 L210 139 L208 140 Z M212 135 L214 134 L215 136 L213 137 Z M209 122 L212 123 L211 128 L209 127 L208 124 Z M209 114 L211 115 L210 119 L208 118 Z M255 17 L254 34 L255 37 L252 39 L251 45 L252 49 L250 51 L251 56 L249 58 L250 63 L247 65 L247 69 L255 70 L256 73 L254 75 L247 74 L246 80 L249 82 L255 80 L256 84 L244 92 L239 100 L238 107 L239 112 L243 119 L252 125 L249 131 L251 133 L256 134 L255 136 L253 136 L253 139 L256 142 L257 156 L259 156 L260 150 L259 144 L261 143 L262 139 L259 138 L258 136 L264 134 L264 130 L261 127 L266 124 L266 120 L263 117 L262 118 L260 117 L255 122 L252 122 L243 114 L241 109 L242 99 L249 91 L255 89 L258 86 L266 87 L269 84 L264 79 L261 80 L257 79 L258 75 L265 75 L267 71 L263 67 L265 64 L263 56 L259 54 L260 52 L262 52 L262 49 L258 47 L259 45 L261 45 L261 43 L259 41 L260 37 L257 35 L258 33 L257 17 Z M256 127 L258 126 L259 128 L257 129 Z M259 122 L261 121 L262 123 L260 124 Z M249 77 L251 76 L252 78 L250 79 Z M257 67 L261 66 L262 68 L258 69 Z"/></svg>
