<svg xmlns="http://www.w3.org/2000/svg" width="512" height="512" viewBox="0 0 512 512" aria-hidden="true" focusable="false"><path fill="currentColor" fill-rule="evenodd" clip-rule="evenodd" d="M277 279 L274 280 L275 284 L277 284 L278 281 Z M257 17 L238 65 L224 79 L224 87 L218 85 L198 121 L191 125 L183 154 L176 154 L174 167 L180 185 L178 198 L171 197 L169 219 L176 220 L173 231 L181 240 L173 246 L178 269 L192 287 L186 285 L185 290 L168 300 L146 343 L138 343 L127 322 L133 298 L127 294 L138 278 L144 252 L135 251 L136 242 L165 236 L168 226 L163 214 L146 209 L145 197 L133 176 L117 208 L105 212 L96 222 L103 239 L116 242 L102 264 L92 308 L95 323 L100 322 L113 377 L131 399 L130 415 L136 430 L147 436 L166 432 L182 424 L180 420 L190 411 L196 411 L203 397 L205 403 L194 420 L198 424 L185 451 L172 460 L206 484 L234 488 L245 478 L248 488 L259 496 L272 478 L289 490 L305 489 L333 460 L344 456 L371 424 L376 407 L388 402 L406 371 L411 333 L421 310 L410 248 L414 224 L390 200 L382 183 L363 225 L367 260 L371 261 L383 297 L389 299 L385 326 L377 341 L370 343 L371 349 L348 302 L327 287 L326 281 L340 267 L337 259 L342 248 L335 240 L341 225 L338 221 L344 219 L343 198 L336 192 L338 185 L334 181 L341 166 L339 156 L323 165 L331 151 L324 125 L317 122 L297 85 L291 90 L281 66 L274 70 L274 52 Z M256 488 L258 487 L259 489 L257 490 Z M296 481 L299 480 L300 483 L297 484 Z M303 479 L305 478 L306 480 L304 481 Z M224 483 L227 478 L229 480 L231 480 L232 478 L234 479 L234 481 L230 484 Z M309 477 L312 475 L314 478 L310 479 Z M254 475 L256 474 L257 476 L255 477 Z M238 474 L241 475 L241 478 L239 480 L236 479 Z M280 474 L282 473 L283 475 L281 476 Z M302 472 L303 475 L299 477 L298 475 Z M287 473 L289 472 L290 474 L288 475 Z M316 471 L318 470 L319 472 L317 473 Z M223 470 L224 472 L221 475 L220 473 Z M208 470 L210 471 L209 477 L206 476 L206 473 Z M279 469 L281 468 L282 470 L280 471 Z M282 468 L289 467 L290 469 L283 470 Z M194 470 L195 467 L197 466 L200 467 L197 471 Z M320 466 L324 465 L325 468 L321 470 Z M269 466 L271 465 L272 467 L270 468 Z M315 463 L316 466 L312 469 L310 466 L313 463 Z M272 463 L274 462 L275 464 L273 465 Z M240 462 L242 461 L243 463 L241 464 Z M296 461 L300 460 L302 466 L300 467 Z M257 460 L260 462 L260 465 L258 467 L256 467 L254 464 L254 462 Z M230 461 L232 460 L233 462 L231 463 Z M220 460 L222 459 L225 462 L221 463 Z M305 459 L307 458 L308 460 L306 461 Z M183 457 L185 458 L184 462 L181 461 Z M289 457 L292 456 L293 458 L290 459 Z M267 455 L270 454 L271 456 L268 457 Z M248 455 L250 454 L251 456 L249 457 Z M243 455 L245 454 L246 456 L244 457 Z M309 454 L311 453 L312 456 L310 457 Z M336 446 L338 445 L339 447 L337 448 Z M257 439 L261 443 L260 446 L258 444 L256 446 L254 445 L254 442 Z M213 440 L215 439 L216 441 L214 442 Z M331 444 L331 446 L326 449 L326 451 L330 450 L332 451 L332 454 L327 463 L325 462 L317 463 L315 461 L317 457 L315 454 L315 451 L318 448 L318 446 L314 447 L312 452 L309 451 L308 455 L301 457 L300 459 L298 458 L301 451 L305 446 L310 447 L311 441 L321 440 L323 438 L325 441 L321 443 L321 447 L324 447 L328 441 Z M203 432 L207 431 L208 433 L204 434 Z M216 430 L218 429 L219 431 L217 432 Z M308 426 L312 428 L310 432 L308 431 L307 428 Z M222 427 L226 426 L227 428 L223 429 Z M296 423 L298 422 L300 426 L298 427 Z M243 422 L245 421 L246 423 L244 424 Z M204 421 L206 420 L207 422 L205 423 Z M305 419 L308 418 L310 421 L306 422 Z M227 420 L232 417 L235 423 L234 424 L228 423 Z M304 412 L308 411 L309 415 L305 416 Z M240 412 L242 411 L243 413 L241 414 Z M292 408 L296 407 L297 409 L293 410 Z M253 411 L255 407 L259 408 L256 412 Z M228 407 L230 406 L231 409 L229 410 Z M211 407 L213 406 L214 408 L212 409 Z M218 405 L220 404 L221 406 L219 407 Z M282 404 L283 422 L287 435 L286 442 L289 441 L291 444 L289 447 L278 447 L277 450 L270 451 L269 449 L271 446 L267 446 L267 443 L264 442 L258 435 L260 431 L260 424 L255 427 L257 434 L253 440 L249 442 L246 451 L233 449 L230 444 L225 446 L219 444 L222 442 L222 438 L224 436 L238 431 L253 421 L259 421 L259 417 L276 402 Z M298 401 L301 402 L300 407 L297 405 Z M258 399 L259 404 L255 405 L254 403 Z M281 396 L283 397 L282 401 L279 399 Z M135 396 L139 395 L140 399 L136 400 Z M165 394 L169 404 L172 406 L172 411 L178 410 L179 416 L169 426 L159 431 L144 432 L140 430 L134 418 L133 410 L135 409 L135 405 L141 403 L144 399 L148 401 L148 398 L151 396 Z M299 394 L301 393 L302 395 L300 396 Z M235 393 L237 394 L236 397 L233 396 Z M264 392 L266 393 L265 398 L263 397 Z M179 392 L183 395 L180 401 L178 400 L177 397 Z M277 389 L278 391 L275 393 L274 391 Z M244 386 L245 390 L241 393 L240 390 Z M313 385 L314 386 L313 390 L309 392 L309 395 L311 396 L310 403 L308 406 L304 406 L303 404 L306 386 Z M291 390 L294 385 L298 386 L297 390 L293 391 Z M256 386 L258 385 L259 387 L257 388 Z M281 383 L283 382 L284 384 L282 385 Z M300 380 L301 384 L298 386 L297 384 L298 381 Z M276 381 L278 380 L279 383 L277 384 Z M249 381 L251 380 L252 382 L250 383 Z M296 379 L298 378 L299 380 L297 381 Z M286 376 L287 378 L286 381 L284 382 L283 378 Z M317 376 L315 381 L312 382 L308 381 L310 376 L313 375 Z M324 372 L326 375 L325 380 L328 380 L330 382 L334 394 L334 397 L332 398 L332 400 L335 400 L337 405 L334 409 L331 409 L332 413 L330 417 L326 419 L326 423 L318 428 L314 425 L312 417 L312 413 L314 412 L314 410 L312 409 L312 405 L321 373 Z M356 368 L358 372 L362 371 L367 374 L372 404 L369 405 L369 408 L372 411 L372 414 L365 426 L356 435 L352 434 L352 438 L350 439 L342 428 L334 424 L333 418 L338 416 L337 411 L339 408 L349 404 L351 400 L356 400 L356 398 L340 401 L338 398 L340 394 L336 392 L332 377 L337 373 Z M173 374 L173 376 L170 377 L169 384 L167 385 L165 390 L160 392 L151 393 L145 396 L140 395 L137 392 L141 379 L143 376 L146 375 L145 372 L147 370 L154 371 L156 368 L159 368 Z M194 367 L197 366 L198 369 L195 370 Z M299 364 L301 363 L302 365 L300 366 Z M146 364 L149 363 L150 365 L147 366 Z M316 361 L321 364 L318 373 L313 372 L313 370 L317 367 L314 365 Z M255 362 L257 361 L258 363 L256 364 Z M295 361 L297 360 L298 362 L296 363 Z M341 359 L343 360 L342 363 L339 362 Z M290 358 L293 359 L291 364 L288 363 Z M269 358 L271 357 L272 359 L270 360 Z M310 354 L311 357 L307 365 L303 364 L302 361 L306 359 L308 355 Z M263 355 L265 354 L267 358 L264 359 Z M196 355 L199 354 L204 361 L199 362 L198 357 Z M189 354 L193 356 L194 361 L190 363 L186 363 L185 366 L189 369 L192 369 L194 372 L191 378 L191 380 L195 381 L194 385 L200 384 L202 387 L200 390 L195 391 L194 395 L190 395 L186 393 L187 389 L183 388 L185 381 L182 381 L180 379 L180 377 L183 376 L182 371 L179 369 L179 362 L182 360 L183 356 L185 357 L188 356 Z M298 354 L300 353 L301 355 L299 356 Z M210 353 L212 355 L212 367 L209 368 L208 370 L209 380 L207 381 L205 385 L202 385 L201 380 L198 379 L197 377 L200 368 L203 367 L204 365 L209 364 L207 358 L208 354 Z M365 353 L367 352 L368 355 L366 356 Z M180 352 L181 349 L184 350 L182 353 Z M147 349 L148 352 L145 355 L144 351 Z M311 349 L313 348 L314 350 L312 351 Z M300 349 L302 348 L303 350 L301 351 Z M276 348 L278 347 L279 349 L277 350 Z M207 348 L209 347 L211 350 L208 351 Z M197 346 L198 350 L197 354 L195 355 L194 348 Z M140 346 L142 345 L143 347 L141 348 Z M326 345 L327 349 L323 358 L321 360 L317 360 L316 358 L321 346 L323 344 Z M187 345 L190 344 L191 348 L188 349 Z M354 344 L356 343 L357 345 L355 346 Z M201 343 L204 344 L203 351 L200 350 Z M349 343 L351 342 L352 344 L350 345 Z M288 343 L290 342 L291 344 L289 345 Z M161 342 L163 341 L164 343 L162 344 Z M314 341 L316 340 L317 342 L315 343 Z M181 341 L184 340 L185 343 L182 345 Z M253 339 L256 338 L259 344 L257 345 L253 341 Z M356 337 L358 338 L357 342 L354 340 Z M310 338 L312 337 L313 340 L311 341 Z M190 337 L191 339 L188 342 L187 339 Z M323 341 L325 336 L329 337 L329 340 L327 342 Z M305 337 L307 336 L308 338 L306 339 Z M153 336 L155 335 L156 337 L154 338 Z M291 335 L293 334 L294 336 L292 337 Z M262 335 L264 334 L266 337 L264 338 Z M195 334 L198 335 L197 340 L194 339 Z M252 333 L254 334 L253 337 L250 336 Z M185 333 L186 336 L183 339 L182 337 L183 334 Z M316 333 L318 332 L319 335 L317 336 Z M154 332 L156 331 L157 333 L155 334 Z M280 329 L281 332 L277 334 L279 337 L277 339 L272 339 L274 342 L267 345 L264 340 L270 338 L270 334 L272 332 L275 332 L277 329 Z M246 332 L247 329 L250 330 L248 333 Z M201 329 L203 330 L204 333 L202 337 L200 336 Z M194 330 L197 329 L198 331 L195 332 Z M328 328 L330 329 L329 334 L326 333 L326 330 Z M264 328 L268 327 L269 331 L267 332 Z M190 327 L192 328 L191 335 L189 334 Z M408 328 L409 332 L398 375 L390 391 L386 395 L381 395 L379 400 L376 400 L371 381 L371 376 L373 375 L371 370 L373 359 L371 356 L376 354 L374 350 L379 348 L378 344 L384 335 L388 335 L386 332 L387 328 L394 326 L402 331 L405 331 L405 329 Z M318 325 L320 324 L321 327 L319 328 Z M281 325 L285 324 L286 326 L283 329 Z M228 324 L230 323 L233 324 L234 326 L230 328 Z M279 323 L281 322 L282 324 L280 325 Z M274 323 L277 322 L278 324 L275 325 Z M256 323 L258 322 L259 324 L257 325 Z M105 324 L108 325 L108 328 L111 328 L113 324 L117 323 L118 326 L120 326 L120 323 L124 322 L128 330 L126 333 L130 334 L139 350 L137 353 L141 355 L142 359 L138 361 L138 364 L140 365 L139 375 L136 376 L138 381 L136 386 L132 388 L134 391 L132 394 L129 393 L129 390 L123 388 L112 365 L105 337 Z M191 321 L193 322 L192 326 L190 325 Z M196 318 L198 319 L197 327 L195 326 Z M292 318 L294 317 L295 320 L293 321 Z M222 316 L223 326 L226 327 L229 333 L238 329 L249 340 L249 345 L254 346 L253 354 L244 367 L246 369 L251 367 L253 372 L231 394 L220 400 L216 398 L215 402 L209 403 L206 392 L212 380 L216 378 L214 372 L226 372 L229 374 L232 369 L222 370 L215 368 L214 343 L216 341 L206 342 L206 338 L209 337 L210 333 L206 332 L205 320 L216 316 L216 320 L219 320 Z M400 316 L403 315 L404 317 L401 318 Z M321 316 L323 315 L324 317 L322 318 Z M401 311 L405 310 L406 312 L402 313 Z M298 311 L300 310 L301 312 L299 313 Z M292 311 L294 310 L295 312 L293 313 Z M214 311 L216 310 L217 312 L215 313 Z M103 307 L105 306 L106 308 L104 309 Z M281 304 L283 303 L284 305 L282 306 Z M299 303 L301 302 L302 304 L300 305 Z M411 300 L413 299 L414 301 L412 302 Z M286 299 L288 298 L289 300 L287 301 Z M115 298 L116 302 L113 304 L112 300 Z M101 299 L103 298 L104 301 L102 302 Z M395 298 L399 297 L401 301 L399 302 Z M333 295 L340 300 L340 303 L344 303 L348 308 L353 318 L351 323 L355 325 L354 335 L348 336 L347 342 L343 344 L343 346 L346 348 L345 350 L337 349 L336 353 L329 355 L328 353 L332 341 L332 326 L329 325 L328 323 L330 317 L331 296 Z M305 295 L307 294 L308 296 L306 297 Z M206 294 L208 293 L209 296 L207 297 Z M291 292 L293 291 L294 293 L292 294 Z M194 291 L196 295 L199 295 L200 298 L203 299 L202 303 L205 303 L207 300 L209 301 L208 306 L205 309 L205 312 L208 312 L209 315 L199 315 L196 312 L194 314 L191 314 L187 325 L182 328 L179 340 L175 341 L175 344 L177 346 L173 347 L171 350 L168 350 L167 347 L170 345 L170 343 L166 341 L165 337 L162 337 L160 335 L159 329 L162 328 L163 324 L161 322 L163 314 L167 307 L176 298 L187 292 L192 294 L192 292 Z M395 290 L397 294 L391 296 L389 293 Z M398 289 L400 288 L401 290 L399 291 Z M125 287 L127 286 L128 288 L126 289 Z M120 286 L122 287 L122 298 L121 299 L118 298 L118 292 Z M206 286 L208 285 L209 287 L207 288 Z M304 285 L306 284 L307 286 L305 287 Z M383 282 L389 281 L391 288 L386 291 L382 285 Z M196 281 L198 280 L199 282 L197 283 Z M392 279 L394 278 L395 281 L393 282 Z M252 279 L253 278 L264 278 L266 283 L262 285 L261 282 L259 281 L258 285 L254 285 Z M321 278 L323 277 L324 279 L322 280 Z M385 275 L386 277 L380 281 L379 278 L382 275 Z M299 276 L301 275 L302 278 L300 279 Z M126 275 L128 276 L127 280 L125 279 Z M285 273 L288 272 L289 274 L286 275 Z M257 272 L260 271 L261 275 L258 276 Z M228 271 L230 272 L229 275 L226 274 Z M133 272 L135 271 L136 274 L134 275 Z M263 271 L267 270 L268 273 L264 275 Z M249 271 L250 270 L253 271 L254 274 L250 275 Z M114 270 L121 269 L122 274 L116 275 Z M329 269 L331 268 L332 270 L330 271 Z M290 269 L292 268 L293 270 L291 271 Z M203 267 L204 269 L200 271 L199 269 Z M228 280 L233 276 L236 277 L235 272 L238 271 L240 266 L242 266 L245 268 L244 274 L249 277 L250 283 L249 284 L245 283 L243 279 L237 284 L239 286 L243 284 L247 286 L246 288 L250 290 L252 287 L261 287 L262 290 L264 290 L269 285 L272 289 L273 288 L272 283 L268 281 L267 277 L271 274 L269 269 L274 266 L279 268 L279 271 L277 272 L277 274 L280 274 L286 280 L286 284 L285 285 L282 284 L278 294 L272 298 L265 300 L260 300 L258 298 L249 300 L245 298 L245 295 L241 294 L239 296 L237 293 L235 293 L233 291 L234 287 L232 284 L228 282 Z M135 266 L137 265 L138 268 L136 269 Z M376 264 L379 265 L380 271 L379 273 L376 271 L375 266 Z M305 264 L307 265 L306 269 L304 268 Z M407 263 L413 266 L414 268 L413 271 L415 275 L415 280 L413 284 L415 286 L414 291 L415 296 L411 298 L408 298 L405 293 L407 288 L404 288 L402 286 L402 284 L406 282 L406 279 L399 276 L402 272 L405 272 L405 267 L403 267 L402 265 Z M397 263 L398 267 L394 268 L394 270 L391 272 L390 271 L391 267 L395 263 Z M230 264 L232 263 L233 266 L231 267 Z M122 263 L124 262 L126 266 L123 267 Z M390 260 L392 259 L393 261 L391 262 Z M331 262 L332 259 L335 260 L333 263 Z M282 259 L284 260 L285 265 L284 267 L281 265 Z M321 257 L323 258 L322 262 L320 261 Z M126 258 L129 257 L131 261 L129 262 Z M411 256 L411 259 L408 262 L403 262 L398 260 L401 256 L407 257 L408 255 Z M395 256 L397 255 L398 257 L396 258 Z M388 255 L389 257 L385 261 L384 256 Z M120 256 L122 255 L123 257 L121 258 Z M117 255 L118 259 L112 260 L112 262 L117 263 L117 266 L113 267 L113 269 L111 270 L111 274 L116 276 L116 278 L112 282 L112 284 L116 285 L116 289 L113 296 L109 298 L109 303 L107 304 L105 296 L101 294 L99 291 L100 288 L103 286 L101 284 L101 279 L103 271 L108 269 L104 267 L106 264 L107 258 L113 255 Z M374 254 L376 255 L375 258 L372 257 Z M308 253 L310 254 L310 258 L305 259 L304 256 L307 255 Z M181 254 L183 253 L185 257 L183 258 Z M260 252 L262 251 L263 253 L261 254 Z M396 250 L398 249 L399 251 L397 252 Z M182 247 L185 245 L188 249 L185 250 Z M126 246 L126 248 L119 253 L113 252 L114 250 L124 245 Z M334 243 L335 245 L327 252 L326 249 L332 243 Z M401 243 L403 242 L409 250 L404 251 L402 247 L400 246 Z M393 244 L392 247 L389 247 L389 250 L386 253 L384 252 L381 253 L380 250 L378 249 L379 246 L382 245 L383 243 L387 243 L388 241 Z M289 242 L290 239 L293 240 L291 243 Z M393 239 L396 238 L398 241 L394 242 Z M251 238 L252 237 L258 238 L259 241 L258 242 L254 241 Z M322 236 L324 235 L325 237 L323 238 Z M404 233 L405 236 L401 238 L399 235 Z M333 233 L334 235 L331 237 L330 235 Z M179 231 L181 230 L182 232 L180 233 Z M133 231 L138 230 L139 232 L134 233 Z M118 230 L123 229 L126 230 L127 232 L123 233 L119 232 Z M185 226 L187 225 L188 227 L186 228 Z M143 226 L147 225 L148 230 L144 232 Z M233 223 L237 225 L240 230 L245 230 L247 225 L253 226 L253 233 L251 235 L249 233 L246 234 L249 236 L249 242 L253 243 L254 245 L250 248 L247 245 L244 248 L247 251 L246 253 L247 254 L249 251 L251 252 L252 257 L250 258 L251 261 L250 265 L247 265 L245 261 L241 262 L240 257 L237 256 L237 253 L234 254 L232 251 L233 244 L231 239 L228 238 L227 232 L229 231 L229 226 L232 225 Z M398 223 L401 227 L399 233 L394 234 L393 230 L391 230 L390 232 L386 233 L386 236 L384 237 L383 241 L380 243 L375 242 L374 238 L376 237 L376 235 L373 235 L371 230 L372 229 L377 230 L378 232 L382 233 L382 230 L376 229 L378 224 L381 224 L388 228 L389 225 L392 225 L395 222 Z M288 223 L289 226 L286 227 L285 231 L288 232 L287 239 L285 244 L282 245 L283 248 L282 252 L278 253 L279 257 L278 258 L275 257 L275 261 L273 263 L270 261 L269 265 L266 265 L261 268 L254 268 L253 267 L254 263 L252 262 L252 260 L257 258 L258 261 L261 261 L263 259 L263 256 L268 254 L267 251 L273 248 L269 246 L266 248 L264 247 L264 243 L268 239 L267 238 L269 235 L268 233 L265 233 L263 240 L257 237 L255 233 L259 230 L258 226 L260 224 L266 225 L267 228 L270 226 L271 230 L273 231 L282 222 L284 224 Z M130 221 L132 222 L131 226 L129 225 Z M385 221 L389 220 L390 222 L387 224 Z M294 221 L296 220 L297 222 L295 223 Z M328 220 L330 219 L331 221 L329 222 Z M111 219 L112 220 L111 224 L106 225 L105 223 Z M370 219 L373 218 L374 220 L371 221 Z M148 218 L151 217 L153 221 L149 223 Z M378 217 L383 216 L384 218 L379 219 Z M140 217 L143 216 L144 219 L142 220 Z M119 216 L120 217 L119 226 L115 230 L112 230 L111 227 L113 224 L116 223 L116 219 Z M270 215 L272 216 L272 219 L268 220 L267 217 Z M241 218 L243 215 L245 215 L248 219 L242 220 Z M184 215 L186 216 L185 220 L183 219 Z M122 216 L124 215 L125 217 L123 218 Z M338 214 L339 216 L335 219 L334 216 Z M329 215 L331 214 L332 217 L330 218 Z M297 215 L299 214 L300 216 L298 217 Z M216 215 L218 214 L219 216 L217 217 Z M248 212 L251 213 L253 218 L252 220 L247 214 Z M337 212 L339 211 L340 213 L338 214 Z M267 211 L268 212 L267 216 L263 218 L262 215 Z M286 210 L289 213 L288 220 L284 219 Z M226 211 L228 210 L229 212 L227 213 Z M272 210 L276 209 L280 210 L281 212 L279 214 L273 213 Z M239 209 L240 212 L235 214 L238 218 L233 219 L232 216 L230 216 L229 224 L227 225 L225 221 L225 217 L228 215 L229 212 Z M374 208 L376 206 L379 207 L378 210 L375 210 Z M183 204 L185 205 L184 212 L182 211 Z M330 200 L332 201 L331 205 L329 204 Z M216 200 L218 199 L220 202 L218 203 Z M183 200 L185 199 L186 201 L184 202 Z M298 198 L299 200 L296 202 L295 200 Z M208 199 L210 198 L211 200 L209 201 Z M328 196 L330 195 L331 197 L329 198 Z M227 205 L229 196 L232 195 L235 197 L235 192 L238 190 L245 190 L246 193 L248 193 L249 190 L253 190 L257 193 L263 190 L272 190 L273 193 L279 191 L284 194 L282 196 L282 199 L287 200 L286 207 L280 207 L279 203 L277 203 L276 205 L272 205 L265 208 L261 213 L262 218 L260 223 L255 222 L257 215 L253 214 L252 207 L249 208 L243 205 L238 205 L237 203 L235 203 L235 206 L233 208 L228 207 Z M187 190 L188 193 L185 196 L184 194 L185 191 Z M327 189 L330 192 L329 195 L327 194 L326 191 Z M226 189 L228 188 L229 190 L227 191 Z M132 187 L135 188 L134 193 L131 192 Z M189 186 L191 185 L192 187 L190 188 Z M191 183 L193 182 L194 185 L192 186 Z M325 180 L327 179 L329 183 L327 184 Z M281 180 L283 179 L284 181 L282 182 Z M188 179 L189 182 L186 184 L185 182 Z M314 178 L317 180 L317 183 L321 189 L319 192 L321 194 L324 194 L326 198 L326 220 L320 236 L311 250 L306 251 L305 247 L303 247 L298 252 L297 250 L303 232 L302 227 L306 225 L304 219 L306 216 L309 215 L306 213 L307 206 L312 204 L312 201 L310 200 L310 194 L313 183 L310 183 L308 187 L305 186 L305 183 L308 179 Z M247 178 L249 177 L250 179 L248 180 Z M255 177 L257 176 L259 180 L257 181 Z M329 176 L331 175 L332 177 L330 178 Z M313 176 L315 175 L316 177 L314 178 Z M180 173 L183 172 L185 177 L182 178 Z M184 172 L187 171 L188 173 L185 174 Z M335 173 L334 176 L332 176 L331 174 L326 174 L324 176 L323 182 L326 187 L323 188 L320 183 L320 178 L322 174 L326 170 L330 170 Z M180 165 L182 164 L184 168 L181 169 Z M333 163 L335 164 L334 168 L331 167 Z M313 161 L315 160 L316 163 L314 164 Z M259 160 L261 159 L262 161 L260 162 Z M245 159 L247 158 L248 161 L246 162 Z M191 159 L193 158 L194 160 L192 161 Z M181 159 L186 157 L188 162 L185 163 Z M199 156 L201 157 L200 164 L198 163 Z M264 155 L266 154 L267 156 L265 157 Z M247 155 L249 154 L250 157 L248 158 Z M314 152 L316 153 L315 158 L313 157 Z M188 155 L189 151 L195 152 L194 154 L190 156 Z M323 151 L325 150 L326 153 L324 154 Z M252 150 L254 149 L255 151 L253 152 Z M200 148 L202 149 L201 153 L199 152 Z M258 146 L260 145 L261 147 L259 148 Z M311 142 L313 141 L314 143 L312 144 Z M203 139 L204 142 L201 145 L200 143 L201 140 Z M322 136 L325 139 L324 143 L321 140 Z M202 137 L204 136 L205 138 L203 139 Z M191 137 L193 136 L194 138 L192 139 Z M310 135 L313 138 L312 141 L310 140 L309 137 Z M319 125 L322 126 L320 130 L318 129 Z M193 125 L195 124 L196 127 L194 128 Z M312 122 L314 121 L315 123 L313 124 Z M304 121 L306 122 L310 130 L309 132 L307 131 L303 123 Z M200 122 L202 121 L203 123 L201 124 Z M211 120 L212 122 L206 135 L204 136 L203 135 L204 131 L209 121 Z M214 115 L215 117 L212 120 L211 118 Z M299 115 L301 114 L303 118 L301 119 Z M258 112 L259 114 L256 116 L255 114 Z M214 113 L216 112 L217 114 L215 115 Z M296 111 L298 110 L299 112 L297 113 Z M207 110 L209 111 L208 115 L206 114 Z M219 108 L220 110 L217 112 L216 110 Z M294 108 L296 107 L297 109 L295 110 Z M208 107 L210 106 L211 108 L209 109 Z M222 104 L223 106 L220 108 L219 106 Z M225 99 L227 98 L228 100 L226 101 Z M291 97 L293 96 L294 98 L292 99 Z M285 90 L288 89 L289 91 L286 92 Z M269 86 L273 88 L295 114 L307 137 L311 157 L308 160 L310 160 L311 163 L306 168 L312 166 L315 172 L309 173 L306 171 L308 175 L306 180 L303 180 L301 174 L295 171 L291 160 L285 157 L285 146 L282 142 L281 134 L275 130 L276 125 L274 124 L273 127 L270 126 L273 119 L273 111 L269 109 L270 105 L267 103 L266 99 L263 98 L263 90 Z M256 87 L258 86 L259 88 L257 89 Z M227 86 L230 88 L230 91 L228 93 L226 92 Z M277 82 L279 81 L280 84 L278 85 Z M234 82 L237 81 L238 83 L235 84 Z M252 79 L256 82 L254 86 L251 85 L252 91 L251 96 L247 98 L249 102 L247 110 L242 112 L243 124 L239 126 L239 133 L234 134 L230 146 L231 155 L227 160 L223 160 L220 172 L211 176 L210 186 L207 187 L206 181 L204 181 L199 190 L200 192 L204 191 L203 204 L208 209 L206 215 L210 217 L209 225 L215 241 L215 246 L209 247 L207 252 L211 262 L209 269 L208 263 L205 262 L204 252 L189 222 L189 196 L193 194 L197 180 L200 179 L199 176 L206 176 L210 171 L205 170 L204 173 L195 174 L203 166 L208 167 L204 162 L204 150 L214 123 L228 103 Z M279 76 L281 75 L283 78 L281 79 Z M271 76 L273 75 L274 77 L272 78 Z M242 75 L244 76 L243 79 L240 78 Z M233 75 L235 76 L234 79 L231 78 Z M256 73 L258 73 L262 77 L262 81 L266 81 L268 83 L266 86 L262 87 L260 86 L258 78 L254 76 Z M243 72 L245 71 L247 74 L244 76 Z M247 70 L249 69 L250 71 L248 72 Z M254 67 L256 66 L257 68 L255 69 Z M238 66 L241 69 L240 74 L237 71 Z M271 63 L273 62 L274 64 L272 65 Z M267 60 L268 62 L265 64 L264 62 Z M251 59 L253 58 L254 60 L252 61 Z M243 57 L245 58 L244 63 L242 62 Z M269 57 L271 56 L272 59 L270 60 Z M258 54 L260 53 L261 55 L259 56 Z M253 53 L255 52 L257 55 L255 56 Z M251 43 L252 45 L249 47 L248 45 Z M259 41 L262 42 L262 45 L265 44 L267 46 L268 50 L266 54 L264 53 L264 48 L260 47 L258 43 Z M258 27 L259 28 L258 34 L261 34 L262 37 L257 40 L256 44 L254 45 L252 36 L256 28 Z"/></svg>
