<svg xmlns="http://www.w3.org/2000/svg" width="512" height="512" viewBox="0 0 512 512" aria-hidden="true" focusable="false"><path fill="currentColor" fill-rule="evenodd" clip-rule="evenodd" d="M332 408 L330 409 L331 416 L330 421 L327 425 L328 426 L330 425 L333 419 Z M259 406 L259 414 L261 418 L263 418 L261 413 L261 406 Z M181 406 L179 411 L179 419 L182 425 L185 427 L186 426 L183 423 L181 416 L183 407 Z M254 404 L252 405 L252 410 L249 419 L251 419 L253 415 Z M294 367 L292 367 L291 369 L293 370 Z M281 360 L283 363 L285 360 Z M227 360 L229 363 L231 360 Z M291 357 L290 360 L293 360 L294 357 Z M218 357 L219 360 L222 360 L221 357 Z M302 352 L299 353 L299 356 L302 354 Z M210 352 L210 354 L213 355 L213 353 Z M288 349 L288 352 L290 352 L291 349 Z M221 349 L224 352 L224 349 Z M215 346 L218 349 L218 346 Z M297 345 L295 345 L294 348 L296 348 Z M417 302 L416 302 L417 316 L414 327 L416 326 L419 319 L419 307 Z M242 278 L242 279 L248 279 L255 282 L264 279 L270 279 L269 277 L261 277 L257 279 L251 277 Z M166 274 L163 284 L163 295 L169 307 L178 312 L185 312 L193 309 L193 307 L186 307 L175 301 L170 293 L168 287 L168 275 Z M346 273 L344 274 L344 288 L340 297 L335 303 L326 307 L320 307 L320 309 L327 312 L335 312 L340 310 L343 307 L349 296 L349 283 Z M359 245 L363 250 L367 252 L371 252 L362 247 L361 245 Z M289 232 L277 233 L268 237 L265 240 L263 245 L264 253 L266 253 L267 248 L273 242 L275 242 L281 237 L288 234 Z M223 232 L224 234 L242 244 L246 250 L246 253 L248 253 L249 244 L244 237 L235 233 Z M309 219 L304 216 L292 213 L272 216 L265 221 L262 231 L272 225 L280 224 L285 221 L296 219 L305 220 Z M203 219 L204 220 L216 219 L227 221 L232 224 L243 226 L250 231 L248 222 L240 216 L234 216 L227 213 L214 214 Z M200 204 L201 206 L208 203 L223 202 L240 207 L247 207 L252 209 L255 212 L266 207 L272 207 L282 203 L298 202 L311 205 L311 203 L303 199 L287 195 L282 195 L274 198 L264 198 L257 202 L248 198 L238 198 L231 195 L224 195 L209 199 Z M255 17 L244 57 L236 65 L229 94 L224 94 L220 105 L221 119 L204 117 L207 133 L185 148 L188 160 L176 168 L169 162 L162 187 L108 165 L109 220 L130 260 L125 265 L140 275 L132 297 L135 329 L126 324 L121 330 L113 322 L115 314 L122 319 L128 313 L128 288 L124 287 L124 270 L104 240 L99 224 L93 239 L97 250 L93 265 L102 282 L86 269 L80 316 L90 351 L103 361 L116 362 L100 391 L111 392 L122 410 L136 413 L146 408 L149 397 L146 392 L136 397 L135 389 L143 384 L153 387 L163 400 L172 431 L200 448 L207 464 L227 466 L230 475 L257 496 L282 475 L285 466 L305 464 L318 443 L340 431 L350 398 L359 387 L369 384 L377 388 L376 397 L369 397 L367 392 L363 398 L365 406 L376 413 L390 410 L401 392 L412 391 L396 362 L415 358 L426 344 L432 298 L425 269 L410 283 L419 266 L414 224 L387 273 L384 312 L390 319 L396 313 L399 322 L392 330 L387 325 L377 329 L380 295 L373 275 L386 267 L388 262 L382 260 L389 254 L403 221 L404 164 L351 187 L343 162 L335 167 L324 160 L327 147 L305 133 L308 117 L291 119 L289 94 L284 94 Z M265 444 L267 445 L266 448 L263 447 Z M245 445 L247 444 L250 448 L249 449 L246 448 Z M290 429 L291 431 L285 438 L282 446 L275 445 L274 443 L280 438 L282 434 L282 429 L283 428 Z M221 430 L229 428 L231 436 L238 444 L230 446 L228 439 Z M323 412 L324 418 L322 422 L316 427 L312 426 L302 427 L301 426 L310 418 L313 410 L315 410 L317 413 L319 413 L320 411 Z M189 412 L192 411 L193 413 L195 413 L197 410 L199 410 L203 419 L211 426 L210 427 L201 426 L197 427 L193 425 L188 418 Z M341 382 L342 385 L339 387 L338 384 Z M301 381 L302 386 L300 393 L296 399 L293 401 L290 383 Z M211 381 L222 383 L219 401 L213 395 L210 385 Z M171 381 L174 384 L173 387 L169 384 Z M372 380 L371 382 L358 384 L351 389 L345 400 L340 423 L331 434 L321 439 L314 438 L313 442 L307 439 L300 439 L294 444 L294 452 L297 455 L301 455 L305 451 L303 449 L299 452 L299 445 L304 445 L308 448 L309 454 L303 461 L292 462 L281 455 L269 456 L264 461 L264 468 L267 471 L271 471 L274 466 L269 468 L268 462 L275 461 L277 458 L283 461 L282 463 L278 462 L280 471 L272 478 L265 476 L264 483 L257 490 L248 483 L247 476 L240 478 L232 471 L234 462 L230 463 L229 461 L236 458 L237 461 L241 460 L245 464 L243 468 L239 467 L239 470 L245 471 L250 466 L250 474 L254 466 L258 465 L259 471 L262 474 L259 459 L266 452 L274 449 L286 451 L289 438 L300 431 L309 431 L311 433 L323 426 L327 420 L327 412 L324 408 L317 407 L317 401 L321 395 L324 396 L326 390 L329 391 L335 405 L337 405 L341 391 L348 384 L363 378 Z M138 381 L144 378 L155 379 L166 385 L174 397 L175 405 L177 405 L181 394 L186 390 L188 392 L188 396 L191 395 L195 401 L195 407 L190 407 L185 412 L185 419 L192 428 L191 430 L188 429 L188 431 L191 432 L191 430 L194 429 L201 433 L203 431 L215 432 L223 438 L225 451 L232 449 L242 450 L249 454 L253 461 L249 464 L247 459 L241 455 L232 455 L220 462 L209 461 L203 454 L205 447 L213 445 L215 450 L213 452 L208 452 L211 455 L215 455 L219 450 L218 444 L212 439 L205 439 L199 442 L199 436 L196 439 L191 439 L181 434 L171 420 L167 399 L164 393 L154 384 L147 382 L139 383 Z M225 388 L228 384 L243 378 L265 377 L281 382 L286 386 L287 390 L285 391 L277 386 L261 383 L251 383 L240 386 L235 386 L227 391 L225 390 Z M313 376 L314 378 L311 385 L306 391 L305 388 L311 377 Z M199 376 L201 377 L207 388 L206 391 L202 387 L198 378 Z M165 369 L171 368 L178 374 L181 381 L181 387 L179 394 L177 393 L176 382 L171 376 L167 376 L169 378 L168 381 L165 381 L162 379 L160 373 Z M350 371 L352 375 L349 380 L344 381 L343 378 L345 377 L344 375 L339 377 L335 385 L335 392 L333 393 L331 382 L334 374 L338 370 L340 370 L341 367 Z M335 366 L323 388 L311 397 L306 408 L308 414 L302 420 L295 422 L288 420 L287 424 L282 423 L272 415 L266 402 L267 411 L278 430 L271 439 L263 426 L264 437 L259 444 L257 441 L254 444 L250 441 L249 426 L244 431 L242 439 L234 430 L244 414 L246 402 L242 412 L234 421 L228 424 L224 423 L226 419 L212 421 L204 413 L206 408 L202 398 L190 389 L177 368 L179 365 L185 365 L194 376 L202 393 L222 409 L225 408 L224 397 L227 394 L251 386 L267 387 L287 395 L287 408 L290 409 L309 395 L318 376 L326 368 L322 368 L322 364 Z M186 365 L190 364 L192 367 L188 368 Z M360 360 L364 360 L368 363 L366 366 L367 368 L375 368 L381 370 L388 378 L389 384 L391 384 L391 381 L386 371 L376 366 L375 364 L376 363 L391 364 L398 370 L401 376 L403 387 L400 388 L396 386 L396 396 L391 404 L389 403 L388 398 L385 406 L381 408 L374 408 L368 404 L369 401 L377 401 L382 397 L383 387 L379 380 L372 376 L364 375 L360 376 L357 373 L357 367 Z M152 360 L155 367 L155 373 L152 376 L141 376 L136 378 L129 387 L129 394 L131 398 L135 401 L143 401 L144 404 L138 408 L131 408 L127 406 L124 398 L123 399 L124 404 L122 405 L116 395 L117 385 L115 385 L111 389 L109 388 L113 372 L117 367 L122 364 L126 363 L137 364 L136 366 L130 368 L125 373 L121 385 L123 385 L124 379 L130 371 L136 368 L144 368 L145 367 L144 363 L148 360 Z M348 355 L353 356 L355 358 L354 365 L352 367 L347 361 Z M165 355 L166 356 L165 361 L160 367 L158 364 L157 358 L159 356 Z M342 356 L342 361 L340 363 L324 359 L326 355 L338 354 Z M170 361 L171 356 L175 354 L186 355 L188 358 L187 360 L183 360 L175 363 L172 363 Z M327 349 L327 344 L329 342 L338 340 L345 341 L342 346 L343 348 L356 341 L361 341 L366 343 L366 345 L358 355 L345 351 Z M186 349 L167 351 L154 355 L146 343 L156 341 L169 348 L170 346 L167 341 L175 340 L185 343 Z M370 332 L371 335 L367 341 L364 340 L363 338 Z M141 333 L143 332 L149 339 L145 341 Z M228 333 L232 329 L241 329 L252 333 L265 332 L271 329 L280 329 L284 333 L284 335 L281 339 L278 337 L272 337 L269 339 L265 344 L265 347 L259 352 L257 351 L257 343 L255 343 L255 351 L253 352 L248 348 L246 342 L240 337 L234 337 L231 339 Z M122 295 L123 297 L121 300 L121 303 L124 305 L125 310 L123 312 L120 310 L114 310 L109 315 L109 324 L111 328 L118 333 L118 335 L115 336 L107 329 L103 319 L103 312 L105 306 L112 298 Z M319 272 L321 271 L322 273 L320 274 Z M190 272 L192 271 L193 273 L191 274 Z M414 238 L415 245 L411 249 L410 255 L414 256 L415 266 L407 276 L407 286 L415 293 L415 285 L419 280 L423 280 L429 298 L429 311 L426 317 L428 321 L420 337 L413 343 L406 346 L385 345 L377 348 L377 350 L382 348 L411 349 L415 347 L419 349 L414 354 L404 358 L396 357 L392 354 L382 355 L369 361 L363 355 L372 345 L375 336 L384 332 L384 337 L396 332 L403 324 L403 314 L398 310 L388 311 L388 306 L391 303 L390 295 L400 298 L406 304 L409 312 L407 326 L392 340 L406 334 L411 326 L413 313 L401 287 L403 274 L401 273 L399 278 L399 293 L393 289 L390 278 L398 262 L400 261 L401 265 L403 265 L403 249 Z M98 238 L109 248 L108 263 L111 264 L113 261 L118 267 L122 281 L120 288 L114 293 L113 278 L111 273 L109 274 L111 288 L99 313 L102 327 L99 327 L95 315 L97 300 L93 308 L95 324 L99 330 L102 328 L111 337 L121 340 L121 335 L128 337 L128 332 L136 335 L140 345 L149 355 L143 361 L131 355 L118 354 L116 357 L104 357 L94 350 L97 347 L101 349 L130 348 L137 351 L137 349 L128 345 L103 345 L95 340 L87 329 L83 300 L89 280 L91 279 L95 282 L98 292 L103 289 L106 283 L106 278 L97 265 L98 257 L102 256 L102 251 L97 245 Z M337 229 L337 237 L332 246 L337 246 L338 248 L332 255 L323 259 L314 259 L301 262 L294 267 L287 277 L281 278 L278 276 L277 273 L284 267 L286 255 L291 248 L301 243 L303 243 L305 247 L309 241 L316 235 L320 235 L320 240 L324 235 L331 232 L335 228 Z M175 229 L177 228 L181 232 L188 235 L192 240 L192 235 L196 235 L203 241 L207 247 L209 243 L215 244 L220 247 L227 257 L229 268 L235 273 L234 276 L231 278 L225 277 L219 268 L211 262 L201 259 L190 259 L180 255 L174 247 L175 245 L179 245 L175 237 Z M398 193 L400 199 L400 214 L398 222 L391 235 L387 239 L379 243 L378 240 L381 234 L383 233 L383 231 L379 230 L378 224 L384 221 L384 219 L380 220 L379 218 L385 215 L385 212 L374 207 L375 205 L383 202 L383 200 L377 201 L374 203 L372 201 L377 196 L386 192 L392 192 L393 197 L395 197 L396 194 Z M114 193 L117 196 L119 196 L120 192 L126 192 L133 195 L139 200 L138 202 L132 201 L132 203 L137 205 L138 207 L127 212 L127 215 L133 218 L132 220 L130 220 L130 222 L134 224 L133 230 L132 231 L128 230 L134 240 L133 243 L128 241 L122 236 L115 224 L112 212 L112 200 Z M190 197 L224 187 L243 189 L255 196 L286 187 L328 201 L342 217 L353 252 L374 291 L376 303 L372 304 L368 328 L355 337 L326 337 L328 329 L341 326 L341 331 L358 325 L364 310 L363 285 L348 258 L357 287 L350 318 L323 327 L308 310 L319 329 L302 342 L320 333 L321 339 L306 350 L319 345 L322 350 L315 350 L303 361 L315 357 L319 361 L300 365 L315 367 L295 379 L266 373 L259 367 L258 357 L283 342 L291 330 L288 293 L316 288 L329 272 L320 292 L301 297 L322 295 L342 261 L330 267 L301 270 L299 278 L304 282 L309 280 L311 270 L317 272 L310 286 L299 286 L293 280 L295 271 L304 263 L330 260 L340 252 L344 237 L337 217 L327 230 L319 226 L289 245 L279 268 L274 268 L266 256 L268 267 L284 283 L276 294 L283 292 L288 325 L252 329 L225 327 L229 292 L236 293 L228 283 L244 268 L246 256 L240 267 L233 268 L222 244 L204 237 L193 226 L189 231 L182 228 L176 216 L168 237 L172 252 L186 261 L208 263 L220 276 L215 285 L206 287 L196 280 L195 272 L201 270 L202 278 L209 282 L214 276 L211 270 L182 267 L170 260 L183 287 L194 297 L211 297 L192 292 L184 282 L185 272 L198 289 L222 291 L226 297 L222 333 L254 357 L254 366 L240 376 L217 379 L206 375 L197 366 L212 365 L194 362 L193 358 L210 359 L191 351 L190 346 L206 350 L191 339 L192 333 L210 342 L194 329 L207 307 L189 327 L167 322 L161 316 L155 288 L163 261 L149 286 L148 309 L154 325 L170 331 L172 326 L187 331 L186 337 L149 333 L140 319 L140 304 L136 303 L172 214 Z M262 186 L259 189 L256 188 L257 186 L260 185 Z M250 186 L252 185 L253 187 L251 188 Z M345 184 L347 191 L345 197 L341 198 L338 194 L340 193 L341 187 Z M167 184 L171 187 L172 193 L174 194 L171 198 L167 197 L166 193 Z M173 182 L176 182 L178 184 L178 191 L176 193 L174 192 L175 189 L172 184 Z M336 181 L339 183 L337 193 L334 191 L334 184 Z M171 176 L173 177 L172 182 L170 181 Z M339 176 L341 175 L342 178 L340 179 Z M382 266 L372 270 L365 265 L354 244 L347 220 L335 202 L315 189 L298 184 L281 183 L281 178 L293 178 L306 181 L331 193 L346 209 L356 233 L361 240 L362 238 L354 218 L347 206 L350 197 L357 189 L365 184 L391 178 L399 174 L399 182 L394 187 L390 185 L371 193 L365 200 L361 210 L360 220 L368 214 L374 214 L370 228 L366 233 L374 235 L375 238 L366 246 L388 246 L382 256 L376 259 L370 258 L372 261 Z M131 266 L141 259 L132 257 L126 251 L125 245 L128 247 L136 247 L138 245 L145 247 L146 249 L141 252 L147 251 L152 247 L148 247 L147 244 L141 243 L137 238 L138 235 L146 233 L138 214 L144 214 L152 219 L151 210 L148 201 L141 193 L122 185 L118 187 L113 181 L113 174 L125 179 L147 184 L155 189 L162 197 L165 206 L157 221 L152 237 L156 233 L165 211 L181 193 L195 185 L214 179 L229 177 L233 181 L232 183 L206 186 L183 197 L167 216 L156 249 L145 268 L138 270 Z M171 174 L173 173 L174 175 L172 176 Z M255 163 L257 163 L260 166 L263 173 L263 177 L258 182 L254 182 L250 178 L249 175 L250 170 Z M283 162 L284 161 L294 162 L312 167 L329 175 L333 178 L333 181 L331 185 L327 187 L314 180 L305 177 L285 174 Z M229 162 L227 174 L204 178 L184 188 L182 187 L180 183 L180 178 L193 170 L214 163 L224 161 Z M278 160 L280 165 L280 173 L278 177 L272 183 L269 184 L268 182 L274 175 L274 171 L271 170 L270 166 L273 165 L273 163 L276 160 Z M234 160 L236 160 L239 164 L243 165 L242 168 L238 170 L238 175 L245 182 L244 184 L240 183 L233 175 L232 166 Z M193 155 L195 154 L196 156 L194 157 Z M317 152 L320 153 L318 157 L316 156 Z M282 153 L289 152 L314 159 L328 166 L335 173 L333 174 L324 168 L303 160 L284 157 Z M230 153 L228 157 L206 161 L195 165 L179 174 L177 173 L180 169 L186 165 L201 158 L224 152 Z M277 154 L278 151 L282 152 L279 155 Z M231 152 L234 151 L235 154 L233 155 Z M257 150 L262 156 L264 162 L262 163 L256 154 L253 160 L248 165 L247 163 L250 156 L255 150 Z M209 151 L211 148 L216 149 L215 151 L211 152 Z M297 149 L300 147 L302 150 L298 151 Z M277 144 L281 143 L283 146 L279 147 Z M274 143 L276 142 L277 145 L275 146 Z M228 147 L231 142 L233 144 L235 144 L236 142 L238 143 L236 147 L232 148 Z M231 140 L233 139 L234 141 L232 142 Z M270 137 L275 136 L279 140 L271 141 Z M234 138 L237 136 L241 136 L242 141 L240 142 L238 140 L235 140 Z M256 128 L258 129 L264 139 L263 146 L268 144 L273 152 L273 156 L269 163 L267 162 L267 153 L266 152 L263 153 L258 146 L257 139 L255 139 L255 144 L249 153 L246 152 L245 153 L246 160 L244 163 L242 162 L239 156 L239 152 L243 145 L246 144 L247 146 L249 146 L248 141 L249 137 Z M225 132 L226 130 L236 128 L249 128 L250 129 L246 134 L231 135 Z M263 129 L265 127 L286 130 L287 132 L279 135 L266 134 L263 131 Z M288 123 L290 124 L289 128 L286 126 Z M222 124 L224 123 L226 126 L224 127 Z M231 139 L224 146 L221 147 L212 143 L206 143 L206 145 L202 149 L197 149 L195 151 L191 148 L192 146 L195 145 L200 146 L201 145 L200 141 L205 137 L213 138 L210 131 L212 121 L215 121 L218 124 L220 131 L223 134 L221 136 L217 131 L215 131 L218 137 L223 139 L228 138 Z M283 140 L292 138 L296 135 L297 131 L295 131 L291 136 L289 134 L292 131 L294 124 L297 121 L301 120 L302 121 L301 123 L302 132 L299 138 L307 137 L312 141 L311 144 L312 146 L318 145 L321 148 L317 150 L310 149 L306 145 L306 143 L300 143 L295 146 L287 146 L283 142 Z M232 113 L234 112 L235 115 L233 116 Z M255 107 L257 107 L262 114 L262 121 L260 123 L257 120 L255 120 L252 123 L250 120 L250 114 Z M259 105 L261 104 L263 107 L261 108 Z M253 103 L254 105 L251 107 L250 105 Z M285 100 L289 110 L288 116 L283 123 L279 125 L275 125 L274 123 L279 120 L282 115 L282 113 L278 112 L278 105 Z M227 100 L233 103 L235 106 L234 111 L230 112 L231 117 L238 123 L237 125 L233 125 L228 122 L224 116 L224 107 Z M255 100 L257 99 L258 101 L256 102 Z M275 85 L278 86 L280 92 L277 100 L274 99 L275 93 L271 92 L271 88 Z M235 85 L238 85 L242 89 L242 92 L240 94 L237 94 L238 96 L237 100 L235 100 L233 97 L233 89 Z M255 77 L258 78 L264 87 L263 98 L265 98 L265 96 L267 95 L274 107 L274 116 L271 121 L269 120 L269 109 L266 107 L261 100 L257 92 L257 88 L255 88 L253 97 L243 111 L243 120 L241 121 L238 115 L239 105 L245 95 L247 96 L247 98 L249 98 L248 88 Z M253 47 L261 48 L265 57 L265 64 L269 63 L273 69 L274 77 L269 84 L267 83 L266 72 L264 72 L265 77 L263 78 L258 70 L257 57 L255 57 L255 66 L251 76 L248 78 L247 77 L248 72 L246 72 L245 74 L246 84 L244 85 L239 79 L238 76 L239 69 L243 63 L247 64 L247 57 Z M256 28 L258 29 L260 34 L260 38 L257 42 L255 42 L252 38 L253 32 Z"/></svg>
