<svg xmlns="http://www.w3.org/2000/svg" width="512" height="512" viewBox="0 0 512 512" aria-hidden="true" focusable="false"><path fill="currentColor" fill-rule="evenodd" clip-rule="evenodd" d="M139 447 L139 449 L144 453 L145 458 L147 458 L146 451 L143 448 Z M254 355 L254 357 L259 358 L259 356 Z M256 17 L233 42 L228 57 L205 64 L194 85 L183 74 L163 107 L154 101 L146 122 L148 134 L135 137 L125 150 L126 182 L139 199 L145 200 L147 195 L151 198 L145 214 L155 240 L168 250 L158 265 L154 255 L145 262 L142 316 L127 309 L103 309 L77 328 L70 350 L79 366 L70 379 L63 406 L65 429 L77 455 L112 482 L145 485 L175 475 L182 489 L189 484 L196 494 L202 489 L218 496 L219 492 L260 484 L267 468 L295 463 L302 479 L309 475 L315 483 L323 478 L336 485 L338 481 L402 467 L429 433 L430 399 L418 408 L416 404 L420 391 L438 377 L448 358 L449 321 L429 284 L428 262 L415 266 L402 286 L389 277 L382 265 L384 254 L402 262 L414 254 L420 207 L413 164 L400 150 L399 166 L382 194 L373 195 L353 226 L346 262 L360 292 L411 327 L417 341 L415 356 L390 325 L344 300 L320 275 L315 265 L323 239 L318 220 L307 233 L293 229 L312 202 L316 165 L309 159 L317 143 L317 97 L308 83 L292 105 L279 104 L281 96 L275 93 L274 77 L261 77 L268 55 L263 52 L265 32 Z M214 481 L219 483 L219 486 L215 490 L213 489 Z M195 479 L200 478 L201 483 L199 485 L196 485 Z M183 472 L187 475 L187 478 L184 481 L181 479 Z M333 470 L335 470 L338 473 L338 475 L334 479 L332 478 L331 475 Z M319 468 L321 470 L321 473 L316 476 L315 469 Z M154 465 L156 464 L157 466 L155 467 Z M302 463 L307 467 L307 469 L304 472 L301 471 Z M113 462 L116 461 L118 465 L117 466 L114 465 Z M183 466 L193 456 L205 453 L216 453 L239 458 L244 461 L258 463 L261 465 L261 473 L256 481 L244 484 L235 484 L232 486 L224 486 L222 480 L215 476 L217 471 L224 466 L223 464 L218 465 L212 470 L208 484 L205 483 L202 475 L196 473 L198 468 L205 462 L205 460 L197 463 L191 472 L184 469 Z M395 451 L396 452 L395 458 L397 458 L399 462 L387 467 L385 457 Z M174 445 L175 454 L173 456 L169 455 L169 459 L164 463 L161 463 L160 461 L166 456 L168 449 Z M213 446 L215 444 L223 445 L221 449 L214 448 Z M98 444 L104 449 L107 456 L109 457 L108 462 L104 458 L104 455 L101 456 L98 455 L97 453 Z M302 456 L307 449 L316 444 L335 443 L356 449 L367 457 L371 462 L372 467 L369 471 L363 472 L361 474 L351 474 L348 476 L343 476 L337 467 L332 466 L334 461 L341 456 L341 454 L335 455 L330 460 L328 464 L328 471 L326 473 L324 472 L324 468 L316 462 L317 457 L322 452 L321 450 L317 452 L310 461 L303 460 Z M257 448 L258 446 L262 446 L264 443 L273 445 L268 450 Z M128 444 L138 442 L144 444 L151 451 L152 459 L149 465 L143 470 L139 469 L140 467 L142 467 L142 464 L135 465 L127 461 L127 464 L132 468 L130 470 L122 463 L121 454 Z M245 441 L248 440 L250 444 L247 446 L245 444 Z M333 437 L338 435 L343 435 L352 437 L354 439 L364 442 L371 447 L379 456 L381 463 L380 467 L378 469 L376 468 L376 463 L373 456 L367 450 L365 450 L354 443 L334 439 Z M321 438 L322 435 L326 436 L324 439 Z M230 434 L232 437 L232 440 L230 443 L226 444 L225 438 Z M291 434 L294 437 L294 439 L300 448 L298 453 L296 455 L293 455 L289 460 L271 463 L270 461 L272 459 L273 452 L280 445 L284 437 L286 436 L287 433 Z M223 432 L224 434 L222 438 L220 439 L219 435 Z M326 427 L328 428 L327 432 L324 431 Z M342 427 L340 430 L337 430 L335 432 L331 431 L332 427 L338 426 Z M293 430 L294 427 L297 427 L300 425 L316 426 L321 428 L304 446 L302 445 L302 442 L298 435 Z M226 427 L230 423 L235 421 L238 427 L237 434 L241 435 L240 443 L237 444 L237 448 L242 448 L253 451 L255 453 L266 455 L267 458 L265 460 L260 460 L258 458 L233 453 L231 451 L225 451 L224 450 L225 448 L232 447 L236 441 L236 437 L232 429 L230 429 L227 432 Z M80 418 L87 420 L100 430 L102 430 L110 438 L110 440 L117 449 L116 458 L113 457 L107 448 L94 437 L92 438 L93 446 L91 447 L89 445 L88 441 L84 437 L82 427 L79 422 Z M193 416 L194 419 L192 421 L191 429 L188 438 L184 442 L184 444 L182 446 L179 444 L180 438 L178 437 L170 443 L163 452 L163 454 L157 458 L155 451 L163 438 L173 428 L175 428 Z M427 408 L428 409 L427 417 L418 425 L418 428 L421 427 L424 428 L424 431 L421 437 L415 441 L409 442 L409 444 L413 447 L409 453 L406 455 L400 455 L399 451 L404 449 L404 447 L402 447 L401 445 L408 437 L413 434 L409 432 L409 421 L411 416 L414 414 L415 420 L417 420 L418 415 L424 409 Z M175 406 L174 416 L170 425 L159 435 L153 444 L139 437 L133 437 L120 444 L110 431 L102 424 L98 413 L99 406 L113 409 L114 411 L112 414 L106 411 L103 411 L103 413 L109 419 L122 425 L145 426 L162 420 L169 414 L169 411 L164 412 L163 409 L173 405 Z M117 415 L123 406 L131 402 L142 402 L153 410 L155 417 L153 419 L144 421 L129 421 L120 419 L117 417 Z M207 386 L217 392 L230 395 L231 399 L229 410 L227 411 L224 423 L221 426 L216 426 L212 431 L211 441 L208 447 L200 449 L199 447 L202 444 L209 421 L209 402 L205 387 Z M107 389 L108 383 L113 386 L121 388 L123 390 L130 391 L149 390 L150 388 L160 386 L164 383 L166 384 L160 399 L155 404 L153 404 L147 399 L135 397 L126 399 L119 404 L117 404 L112 398 L109 390 Z M199 374 L201 373 L204 376 L202 377 Z M314 370 L316 371 L316 384 L319 397 L325 408 L335 419 L334 422 L312 421 L298 418 L296 416 L301 407 L302 400 L305 394 L307 393 L310 376 Z M121 380 L124 375 L131 370 L142 370 L151 378 L152 383 L149 385 L130 386 L123 385 L121 383 Z M314 367 L316 366 L317 368 L315 369 Z M421 358 L422 361 L427 364 L427 366 L419 373 L418 371 L421 367 L421 364 L418 363 L418 360 Z M309 358 L310 364 L308 371 L297 382 L297 385 L300 384 L303 385 L303 389 L300 396 L290 403 L290 406 L293 405 L295 406 L294 410 L291 415 L287 416 L286 418 L287 424 L284 426 L283 431 L279 436 L279 438 L277 440 L269 442 L268 440 L281 419 L283 410 L286 407 L289 397 L296 392 L296 390 L292 392 L290 391 L291 372 L295 365 L297 365 L301 369 L302 362 L307 358 Z M175 357 L184 366 L188 367 L192 371 L202 393 L204 406 L203 424 L195 446 L175 468 L166 472 L164 475 L142 479 L139 481 L137 479 L124 479 L107 474 L85 456 L77 445 L71 431 L69 402 L71 391 L78 375 L89 362 L93 363 L78 386 L74 404 L76 429 L84 447 L98 462 L112 470 L130 475 L150 474 L161 470 L176 461 L188 448 L197 427 L197 394 L189 376 L171 358 L172 356 Z M421 355 L423 354 L424 356 L422 357 Z M78 409 L83 388 L92 373 L107 360 L111 360 L116 356 L125 357 L127 353 L133 352 L157 356 L174 366 L187 382 L192 402 L194 403 L194 410 L179 419 L180 404 L178 401 L172 400 L165 404 L163 403 L169 392 L171 377 L165 376 L156 379 L154 373 L148 367 L133 364 L125 367 L116 379 L107 376 L102 377 L102 386 L108 401 L95 400 L93 402 L94 419 Z M83 352 L84 354 L82 358 L80 359 L77 354 Z M161 351 L163 350 L169 353 L171 356 L169 357 L164 355 Z M154 349 L157 348 L160 351 L158 352 L155 351 Z M89 347 L95 350 L94 358 L88 352 Z M137 346 L145 345 L151 346 L152 348 L143 349 L138 348 Z M101 344 L105 344 L107 346 L107 352 L105 354 L100 349 Z M76 343 L78 342 L79 345 L77 346 Z M118 341 L124 344 L122 351 L118 348 L117 344 Z M354 332 L375 336 L395 352 L394 355 L381 353 L369 361 L367 373 L373 381 L379 383 L387 378 L385 367 L379 369 L383 372 L380 378 L372 374 L374 362 L381 358 L396 362 L403 375 L396 402 L406 416 L407 427 L400 440 L384 453 L381 449 L395 437 L401 424 L390 405 L393 388 L388 392 L387 408 L396 425 L392 434 L381 444 L347 432 L349 426 L368 427 L376 421 L358 423 L343 418 L332 409 L322 388 L321 373 L326 353 L340 337 Z M174 317 L182 316 L183 319 L177 322 Z M425 313 L427 314 L430 320 L432 328 L434 330 L435 337 L434 350 L429 360 L427 360 L426 358 L428 357 L430 351 L431 340 L428 325 L424 320 Z M81 333 L84 327 L94 318 L106 314 L117 313 L136 318 L146 327 L154 341 L140 341 L139 335 L136 332 L134 341 L128 345 L125 338 L116 336 L119 324 L117 324 L111 331 L111 343 L104 339 L97 339 L99 328 L97 328 L93 333 L92 343 L84 344 L84 335 Z M195 308 L194 316 L196 317 L195 326 L192 328 L190 324 L188 324 L187 333 L178 341 L171 334 L170 324 L168 324 L166 328 L164 327 L163 316 L166 314 L166 310 L168 309 L169 317 L176 326 L176 329 L178 329 L188 319 L189 310 L192 307 Z M419 306 L421 307 L420 313 L418 312 Z M164 300 L165 306 L163 307 L163 316 L161 317 L159 314 L159 309 L161 302 Z M200 299 L202 300 L205 306 L205 312 L201 319 L196 317 L198 312 L198 301 Z M150 296 L156 300 L154 306 L156 323 L160 324 L162 332 L179 348 L198 330 L199 325 L206 321 L210 312 L210 302 L231 301 L226 309 L222 327 L222 344 L225 358 L234 374 L231 391 L206 380 L205 376 L216 378 L218 376 L199 369 L185 353 L180 355 L161 344 L149 321 L148 299 Z M150 286 L156 283 L158 285 L156 289 L161 288 L162 294 L161 295 L156 294 Z M236 283 L237 289 L230 294 L220 295 L218 293 L215 293 L214 297 L205 296 L203 294 L203 291 L206 289 L211 288 L228 289 L231 283 L234 282 Z M196 281 L198 286 L197 295 L192 301 L190 301 L187 306 L185 306 L178 311 L171 301 L169 300 L168 294 L171 293 L177 301 L177 303 L181 303 L191 293 L190 283 Z M183 281 L187 286 L187 292 L181 297 L179 297 L176 294 L175 290 L177 285 Z M174 280 L175 282 L172 289 L168 290 L167 288 L170 281 Z M255 285 L252 287 L242 287 L237 282 L251 275 L252 278 L249 280 L253 281 Z M230 276 L230 278 L222 285 L206 281 L207 279 L215 278 L217 276 L224 274 Z M159 277 L160 274 L163 275 L161 278 Z M310 269 L335 300 L379 324 L401 344 L413 368 L413 401 L408 411 L401 403 L407 371 L387 338 L370 329 L345 329 L325 344 L316 362 L314 347 L322 332 L323 314 L312 339 L305 317 L296 310 L282 309 L268 321 L268 338 L279 346 L291 343 L295 336 L291 325 L281 327 L281 332 L290 332 L282 342 L273 336 L272 326 L278 316 L292 314 L302 320 L307 341 L303 354 L289 365 L287 389 L271 428 L262 441 L254 441 L246 434 L239 415 L232 414 L239 379 L250 379 L232 361 L227 347 L227 319 L234 301 L247 292 L239 315 L239 335 L252 353 L243 328 L249 301 L257 290 L280 276 Z M236 270 L239 269 L240 271 L237 272 Z M420 268 L422 269 L421 276 L424 285 L424 294 L426 295 L429 294 L437 305 L438 310 L443 319 L445 331 L444 353 L441 362 L439 363 L436 371 L422 384 L420 383 L420 378 L423 377 L428 372 L428 370 L435 360 L437 353 L438 337 L435 321 L428 308 L424 305 L424 303 L421 300 L420 290 L417 289 L417 299 L413 301 L413 303 L415 304 L414 307 L410 305 L407 298 L407 289 L408 288 L414 289 L413 277 Z M275 272 L270 279 L264 282 L260 282 L255 279 L257 275 L260 276 L266 275 L266 273 L264 273 L263 270 L268 267 L270 268 L270 270 Z M187 266 L191 274 L193 275 L193 277 L188 278 L185 274 L183 274 L176 281 L175 276 Z M150 265 L152 266 L151 274 L148 273 L148 267 Z M164 261 L167 263 L169 268 L173 270 L171 274 L168 274 L163 267 Z M273 264 L279 259 L288 260 L292 270 L284 271 L283 269 L280 269 L274 266 Z M263 259 L263 263 L257 271 L248 272 L247 269 L244 269 L243 271 L241 270 L242 267 L250 265 L251 267 L254 267 L258 263 L259 259 L261 258 Z M365 255 L367 256 L368 267 L374 276 L379 281 L381 281 L381 279 L383 278 L393 287 L398 289 L402 293 L401 298 L382 288 L369 276 L364 264 Z M291 252 L294 254 L292 257 L289 256 Z M365 247 L367 248 L366 253 L364 252 Z M289 246 L289 248 L285 252 L281 253 L279 249 L271 255 L269 254 L279 245 Z M273 243 L273 245 L264 252 L236 266 L224 269 L213 274 L202 276 L198 275 L199 272 L205 269 L220 266 L227 262 L241 258 L255 251 L256 249 L260 248 L265 244 L267 244 L270 241 Z M194 241 L195 244 L193 247 L191 247 L190 245 Z M287 239 L290 242 L289 245 L287 244 L286 241 Z M290 235 L292 234 L294 238 L292 239 Z M316 233 L317 242 L312 248 L310 248 L310 252 L313 251 L315 252 L314 255 L308 264 L299 269 L296 269 L295 266 L298 263 L298 259 L304 253 L305 248 L303 245 L300 245 L302 249 L300 251 L297 251 L295 249 L295 243 L301 238 L308 240 L309 237 L311 237 L314 233 Z M192 228 L193 229 L192 235 L190 236 L188 234 L188 231 Z M160 227 L172 228 L176 232 L178 237 L180 236 L178 232 L179 231 L183 232 L183 235 L185 238 L184 248 L178 255 L176 254 L175 247 L168 240 L164 238 L163 234 L160 235 L158 234 L158 229 Z M287 226 L288 230 L284 234 L283 229 L285 226 Z M276 222 L273 225 L274 231 L268 237 L256 245 L228 258 L199 267 L193 267 L190 260 L187 260 L178 267 L172 263 L183 258 L189 250 L197 247 L201 236 L197 226 L199 221 L209 221 L210 223 L234 230 L252 227 L268 217 Z M149 211 L150 210 L155 211 L156 213 L151 214 Z M275 209 L279 211 L279 215 L277 217 L275 217 L272 214 Z M177 207 L179 207 L183 212 L180 216 L176 214 Z M378 201 L381 202 L384 210 L386 210 L387 207 L390 209 L390 215 L381 222 L383 228 L372 239 L370 244 L367 244 L366 240 L369 234 L378 224 L379 216 L376 217 L374 224 L366 233 L360 246 L360 266 L366 279 L375 289 L402 304 L421 322 L427 337 L427 348 L425 349 L424 354 L422 353 L422 338 L414 322 L408 316 L389 306 L388 304 L376 299 L367 292 L366 289 L359 283 L353 270 L351 253 L354 236 L366 216 L372 215 L373 208 Z M154 194 L158 193 L159 195 L165 195 L167 193 L170 193 L177 200 L172 207 L170 206 L157 207 L156 198 Z M219 187 L219 193 L213 198 L197 200 L192 204 L190 204 L186 209 L183 207 L181 203 L182 194 L184 189 L191 193 L196 193 L198 195 L201 195 L203 193 L208 193 L212 191 L217 186 Z M138 190 L139 186 L147 183 L168 186 L166 190 L150 189 L142 191 Z M174 181 L178 181 L181 183 L180 189 L177 192 L173 188 Z M311 173 L310 181 L301 191 L301 196 L303 196 L305 193 L308 194 L307 203 L305 204 L304 208 L295 217 L288 219 L282 219 L281 216 L284 212 L291 210 L296 205 L297 187 L300 184 L298 183 L295 185 L293 203 L290 206 L282 208 L281 205 L285 204 L288 201 L288 198 L284 195 L284 191 L286 189 L290 190 L290 182 L295 177 L300 175 L305 175 L308 172 Z M282 183 L281 172 L283 171 L286 174 L288 171 L293 171 L294 173 L287 178 L285 184 Z M259 172 L258 174 L254 175 L252 174 L255 170 Z M300 168 L302 167 L303 169 L301 170 Z M406 162 L409 174 L407 181 L400 189 L400 197 L402 197 L404 190 L409 186 L410 197 L415 210 L415 218 L413 225 L404 237 L412 237 L413 243 L411 244 L409 251 L399 258 L392 254 L394 247 L401 248 L401 246 L396 242 L390 242 L381 249 L378 255 L378 268 L382 276 L380 278 L376 274 L372 264 L372 250 L378 240 L385 235 L389 237 L393 236 L401 229 L403 224 L404 208 L403 203 L401 203 L402 214 L400 221 L393 227 L388 227 L389 222 L395 217 L396 202 L393 202 L391 205 L388 201 L387 194 L389 186 L400 174 L404 163 Z M309 161 L310 165 L304 169 L303 166 Z M256 150 L270 160 L275 167 L277 186 L272 204 L260 217 L249 223 L228 224 L215 219 L214 216 L216 214 L222 214 L231 218 L247 216 L255 211 L265 198 L268 185 L266 173 L260 167 L252 167 L248 171 L248 175 L252 179 L256 179 L260 173 L264 179 L259 200 L253 207 L244 212 L227 212 L230 204 L238 197 L239 181 L237 174 L231 169 L224 167 L223 163 L229 157 L247 149 Z M277 149 L279 148 L280 150 L278 151 Z M234 148 L236 147 L237 149 L235 150 Z M198 143 L202 142 L203 145 L200 147 Z M132 146 L138 141 L143 140 L150 141 L154 143 L160 149 L161 158 L158 162 L151 163 L148 159 L151 157 L153 160 L154 155 L152 153 L148 153 L145 156 L145 164 L140 166 L135 162 L134 156 L130 155 Z M210 136 L217 142 L217 149 L213 155 L211 154 L213 150 L213 143 L209 138 Z M155 134 L159 138 L158 140 L153 137 Z M290 128 L291 133 L294 138 L294 147 L293 150 L285 157 L284 156 L284 146 L282 143 L276 144 L275 141 L277 136 L283 130 Z M234 149 L219 161 L218 167 L212 169 L203 177 L192 176 L181 165 L176 165 L166 172 L153 173 L153 175 L164 177 L175 170 L180 170 L192 181 L204 182 L217 172 L227 172 L234 182 L234 193 L229 204 L218 210 L199 213 L186 226 L176 226 L169 223 L155 224 L153 222 L157 217 L183 219 L196 206 L214 203 L222 198 L224 193 L223 183 L214 182 L208 188 L193 189 L185 183 L182 177 L174 176 L167 181 L144 178 L136 183 L131 179 L139 177 L141 174 L131 174 L130 167 L149 174 L151 168 L159 167 L166 159 L165 146 L177 150 L175 146 L165 141 L162 137 L163 133 L168 136 L168 131 L172 128 L175 132 L174 136 L176 136 L177 128 L182 127 L182 137 L175 143 L187 146 L190 155 L200 162 L214 160 L223 147 Z M164 126 L167 127 L165 132 L162 131 Z M187 138 L188 132 L193 125 L198 123 L201 126 L206 120 L211 119 L223 120 L224 123 L220 125 L220 127 L226 128 L227 129 L226 134 L230 136 L237 135 L237 133 L232 132 L235 128 L241 128 L244 126 L246 127 L243 135 L236 142 L233 143 L225 142 L219 137 L218 134 L209 129 L201 129 L189 139 Z M175 114 L178 116 L180 120 L180 124 L177 127 L173 123 L170 125 L168 124 L169 120 Z M156 109 L164 113 L166 115 L166 118 L161 122 L158 130 L153 130 L151 123 L153 120 L156 120 L155 114 Z M274 109 L276 108 L277 110 L275 111 Z M184 117 L196 108 L201 106 L214 104 L216 102 L228 102 L229 104 L240 105 L251 109 L263 118 L263 122 L260 125 L258 134 L256 136 L257 146 L248 146 L241 148 L240 145 L246 140 L252 127 L251 116 L249 116 L240 123 L234 123 L232 125 L229 124 L230 116 L228 114 L208 114 L204 116 L199 116 L196 120 L191 121 L189 125 L184 121 Z M310 95 L312 100 L312 117 L309 126 L303 132 L305 135 L310 133 L312 134 L312 141 L309 151 L299 163 L293 165 L292 167 L281 167 L279 163 L289 160 L294 156 L297 150 L298 141 L295 128 L296 124 L301 120 L301 118 L286 123 L274 132 L270 138 L270 148 L273 152 L272 155 L269 155 L262 147 L261 139 L263 130 L273 118 L289 111 L293 112 Z M272 85 L270 89 L270 93 L268 95 L265 95 L265 101 L261 103 L261 105 L263 105 L271 112 L270 115 L263 112 L261 109 L249 104 L248 102 L231 98 L214 98 L203 100 L190 106 L183 112 L181 111 L182 108 L190 100 L205 92 L214 90 L222 90 L224 88 L231 88 L233 90 L240 90 L250 93 L262 94 L262 92 L254 89 L255 84 L263 85 L270 83 Z M186 81 L189 86 L189 91 L192 91 L193 93 L190 94 L187 98 L183 100 L181 104 L170 113 L169 112 L170 101 L176 92 L182 87 L183 83 Z M257 26 L260 33 L260 47 L251 61 L254 63 L257 59 L261 60 L259 71 L251 79 L244 80 L239 78 L236 85 L215 85 L215 81 L220 76 L235 71 L241 65 L243 58 L240 57 L239 62 L234 67 L218 72 L212 77 L208 87 L200 88 L199 84 L204 73 L215 64 L221 62 L223 64 L229 63 L234 58 L234 51 L237 46 L247 38 Z"/></svg>
