<svg xmlns="http://www.w3.org/2000/svg" width="512" height="512" viewBox="0 0 512 512" aria-hidden="true" focusable="false"><path fill="currentColor" fill-rule="evenodd" clip-rule="evenodd" d="M362 291 L360 300 L346 314 L340 326 L338 339 L340 348 L351 361 L368 365 L367 368 L361 370 L360 380 L366 386 L375 386 L381 383 L388 374 L389 362 L383 350 L383 342 L379 341 L379 320 L372 321 L370 299 Z M365 356 L370 355 L374 360 L374 362 L372 363 L367 361 Z M379 348 L381 353 L381 358 L384 360 L383 375 L375 382 L368 382 L364 379 L363 374 L366 371 L369 371 L371 373 L370 378 L374 375 L374 366 L377 365 L377 362 L373 354 Z M374 327 L376 334 L375 341 L372 344 L368 344 L366 340 L370 338 L369 337 L363 338 L362 344 L367 350 L365 352 L359 347 L357 343 L358 336 L365 329 L369 327 Z M365 301 L367 306 L365 313 L369 315 L368 321 L364 326 L360 327 L358 325 L359 322 L358 320 L355 324 L356 334 L353 335 L353 344 L355 348 L364 355 L362 360 L358 360 L350 355 L344 347 L343 333 L346 332 L349 334 L349 330 L346 327 L346 322 L349 317 Z M190 161 L183 160 L183 162 L190 165 L199 175 L201 181 L200 194 L193 206 L190 207 L187 211 L178 214 L170 214 L169 216 L183 216 L192 212 L200 204 L203 197 L204 177 L201 171 Z M167 122 L162 123 L160 125 L160 128 L163 129 L166 126 Z M227 17 L225 27 L204 43 L201 53 L193 50 L191 58 L178 68 L172 89 L168 88 L165 71 L131 93 L117 111 L112 108 L102 141 L91 141 L84 132 L79 135 L79 171 L92 188 L98 191 L101 186 L110 192 L112 185 L137 185 L149 191 L132 191 L120 202 L114 196 L110 203 L102 197 L106 223 L124 241 L122 250 L127 251 L121 257 L113 254 L101 288 L91 299 L108 344 L99 424 L92 422 L82 451 L67 448 L57 453 L50 477 L62 485 L67 481 L71 487 L76 482 L117 484 L124 480 L133 461 L166 418 L164 414 L174 400 L174 395 L166 397 L163 393 L168 385 L180 395 L186 429 L178 429 L180 437 L173 458 L158 455 L148 461 L142 483 L157 493 L161 487 L169 496 L171 490 L213 488 L222 480 L236 447 L248 391 L284 383 L290 396 L308 409 L309 422 L300 425 L285 449 L268 446 L254 465 L256 478 L261 475 L265 482 L271 478 L276 485 L279 481 L327 479 L377 404 L368 406 L364 399 L356 398 L356 390 L394 406 L405 426 L404 430 L398 428 L391 457 L373 455 L366 460 L359 478 L363 487 L368 485 L376 491 L379 486 L386 495 L390 489 L432 487 L457 443 L463 393 L458 374 L463 354 L460 349 L455 357 L440 363 L435 376 L430 377 L425 368 L429 328 L453 309 L460 272 L451 245 L417 215 L413 203 L408 206 L406 219 L401 220 L373 210 L361 196 L365 180 L374 189 L384 188 L391 178 L389 170 L401 158 L401 106 L393 97 L390 112 L378 123 L372 120 L367 131 L360 132 L339 151 L328 175 L327 197 L331 209 L348 227 L405 246 L423 257 L434 277 L430 296 L425 299 L413 283 L391 269 L365 264 L351 241 L340 259 L323 266 L289 266 L278 242 L270 255 L259 255 L255 250 L260 224 L249 233 L242 228 L244 208 L256 182 L248 181 L259 146 L244 152 L249 107 L233 118 L228 101 L236 71 L236 34 Z M154 479 L159 478 L160 482 L155 484 Z M376 476 L378 478 L378 481 L373 483 L372 479 Z M150 472 L153 476 L147 480 L146 476 Z M369 471 L371 475 L369 478 L365 479 L364 475 L367 471 Z M63 469 L67 471 L67 474 L64 476 L61 475 L61 471 Z M265 473 L267 468 L271 469 L270 473 L267 474 Z M59 464 L60 467 L57 471 L54 472 L53 471 L54 467 L57 464 Z M263 462 L265 465 L261 469 L258 470 L257 468 L259 463 Z M311 462 L314 461 L319 463 L329 463 L330 465 L329 466 L316 466 L312 464 Z M158 470 L165 466 L166 461 L175 461 L179 466 L185 470 L198 473 L199 475 L211 475 L213 473 L218 473 L219 477 L214 483 L209 485 L192 484 L184 487 L177 487 L174 484 L172 484 L171 486 L167 487 L165 485 L167 478 L172 473 L178 473 L178 471 L170 470 L162 477 L159 474 Z M105 462 L106 461 L118 463 L126 462 L127 465 L120 467 L107 466 Z M150 467 L150 465 L154 461 L157 460 L165 461 L164 463 L159 464 L154 469 Z M368 466 L373 460 L381 459 L386 461 L394 461 L399 467 L407 471 L417 473 L419 475 L430 475 L431 473 L436 473 L437 475 L436 478 L429 484 L424 485 L407 484 L404 486 L397 487 L392 485 L390 482 L386 487 L384 487 L383 482 L385 477 L389 473 L396 471 L393 469 L388 469 L380 476 L375 471 L378 467 L385 466 L385 463 L378 463 L372 468 L369 468 Z M178 458 L181 457 L185 461 L201 467 L213 467 L218 464 L221 464 L222 466 L218 469 L209 471 L197 470 L186 466 Z M59 457 L63 453 L71 452 L75 454 L83 454 L91 462 L101 468 L111 470 L123 470 L124 473 L118 479 L97 478 L91 480 L82 480 L79 477 L76 477 L73 480 L71 480 L70 477 L74 472 L74 470 L78 467 L85 467 L85 465 L79 462 L73 464 L72 467 L69 469 L66 466 L66 463 L71 459 L75 459 L75 457 L68 457 L63 461 L61 461 Z M425 451 L428 457 L424 463 L422 462 L422 457 L419 457 L418 462 L415 462 L413 460 L419 453 Z M324 459 L325 454 L327 452 L330 451 L333 452 L341 451 L342 452 L336 459 L334 457 L331 457 L328 460 Z M293 452 L294 451 L297 452 L304 458 L310 460 L311 462 L308 463 L297 458 Z M320 450 L321 456 L319 459 L317 460 L314 459 L316 456 L315 454 L310 457 L308 456 L312 451 Z M263 456 L268 451 L271 450 L288 453 L296 461 L304 466 L314 469 L323 469 L326 470 L327 473 L324 476 L319 478 L302 476 L292 479 L287 479 L283 475 L276 478 L274 475 L277 469 L283 464 L290 464 L290 463 L287 461 L280 461 L273 467 L269 462 L273 458 L278 457 L278 454 L273 454 L268 459 L264 459 Z M87 451 L89 450 L92 452 L93 454 L102 459 L103 462 L100 463 L96 461 L87 453 Z M448 450 L448 453 L443 459 L438 457 L436 458 L435 462 L432 463 L429 462 L430 454 L432 452 L437 451 L438 453 L440 453 L442 450 L446 449 Z M291 450 L293 449 L294 451 L292 452 Z M207 449 L208 453 L210 454 L209 460 L206 462 L204 455 L201 457 L201 460 L197 461 L196 456 L199 453 Z M127 449 L129 452 L127 454 L127 457 L125 459 L119 460 L118 458 L120 455 L120 452 L124 449 Z M396 458 L400 456 L400 449 L403 448 L407 451 L407 457 L403 458 L406 462 L420 467 L432 467 L438 464 L440 465 L440 467 L433 470 L424 471 L416 470 L407 467 L398 461 Z M183 448 L186 448 L188 450 L189 453 L188 458 L182 454 Z M131 455 L130 452 L131 448 L139 449 L135 455 L133 456 Z M230 447 L225 457 L222 454 L219 455 L219 457 L217 458 L215 462 L212 461 L213 453 L216 450 L221 452 L224 448 L228 446 Z M112 446 L115 446 L117 448 L117 455 L114 458 L112 457 L112 452 L108 452 L105 455 L103 454 L106 450 Z M298 442 L300 442 L302 445 L302 449 L300 451 L298 451 L295 448 L295 444 Z M92 441 L94 441 L97 445 L97 449 L95 452 L91 448 Z M403 436 L416 447 L416 450 L412 455 L410 454 L409 448 L404 443 L401 442 L401 439 Z M183 437 L185 436 L198 446 L198 450 L194 452 L186 443 L183 442 Z M451 435 L452 438 L450 442 L447 445 L443 445 L442 443 L444 436 Z M303 432 L306 434 L308 440 L312 445 L312 447 L306 453 L304 452 L305 444 L301 435 Z M233 431 L234 434 L230 441 L225 444 L224 442 L226 440 L230 430 Z M95 430 L97 430 L102 437 L106 440 L106 445 L103 448 L101 447 L100 441 L97 439 L96 435 L94 434 Z M361 426 L360 430 L353 435 L349 434 L353 427 L357 425 Z M158 418 L159 420 L150 430 L147 430 L146 428 L150 421 L153 422 L156 418 Z M243 393 L244 397 L242 399 L241 404 L235 410 L235 414 L237 413 L239 414 L238 421 L231 428 L230 424 L232 419 L233 401 L237 400 L237 396 Z M160 381 L161 382 L159 387 L160 398 L158 399 L158 401 L167 400 L168 402 L165 405 L160 406 L162 410 L159 413 L157 412 L157 408 L155 408 L154 414 L148 418 L146 424 L140 432 L140 434 L146 435 L143 441 L138 442 L137 440 L135 440 L129 444 L121 444 L120 442 L126 440 L138 427 L149 405 L151 397 L150 394 L151 388 L156 381 Z M236 377 L241 376 L242 379 L237 381 Z M290 380 L324 366 L334 366 L340 377 L351 387 L349 396 L352 402 L359 401 L363 404 L358 410 L364 408 L369 410 L364 414 L363 421 L359 422 L355 418 L344 436 L345 439 L350 439 L342 448 L338 448 L337 445 L333 448 L324 446 L343 429 L352 409 L348 408 L342 423 L326 441 L315 442 L309 432 L313 422 L313 410 L309 404 L293 393 L289 384 Z M268 358 L270 360 L270 364 L264 370 L263 367 L265 365 L265 360 Z M330 357 L331 360 L330 362 L313 366 L307 370 L291 375 L290 377 L261 384 L257 383 L261 375 L287 370 L294 366 L311 361 L314 358 L318 358 L322 356 Z M116 347 L133 366 L150 376 L152 380 L148 387 L146 403 L137 421 L125 436 L113 441 L104 433 L102 427 L107 406 L107 394 L110 391 L110 388 L106 385 L106 378 L109 373 L112 373 L109 356 Z M119 342 L123 340 L132 351 L147 364 L154 367 L157 370 L171 375 L170 380 L168 381 L165 379 L162 379 L142 368 L140 365 L138 365 L125 353 L121 348 Z M285 332 L288 331 L289 333 L294 332 L295 335 L291 337 L286 337 Z M261 335 L262 339 L253 362 L243 372 L236 373 L232 376 L233 381 L235 381 L237 384 L242 383 L243 386 L238 391 L236 391 L235 388 L232 388 L232 392 L235 395 L232 399 L230 399 L230 414 L226 431 L221 441 L217 445 L213 445 L212 443 L218 437 L223 423 L224 411 L226 408 L224 386 L227 384 L227 382 L222 381 L218 376 L218 344 L213 340 L213 337 L209 336 L210 342 L208 344 L204 344 L201 338 L208 331 L213 331 L223 339 L227 348 L225 372 L228 377 L230 375 L229 371 L238 365 L246 356 L251 342 Z M293 327 L297 326 L303 329 L308 328 L309 330 L307 333 L301 334 L296 330 L294 330 Z M269 325 L271 327 L270 338 L268 340 L264 359 L256 373 L256 377 L251 383 L247 385 L246 380 L248 374 L257 362 L262 352 L265 341 L267 326 Z M280 324 L282 326 L280 345 L278 347 L275 357 L272 358 L268 355 L268 353 L271 349 L273 341 L274 327 Z M112 323 L113 325 L109 328 L108 326 Z M284 324 L285 322 L288 321 L292 322 L291 324 L287 325 Z M253 322 L256 321 L257 323 L254 324 Z M325 322 L322 326 L319 327 L306 326 L304 323 L305 321 L308 321 L312 324 L315 324 L320 320 Z M245 319 L246 318 L249 319 L249 324 L252 329 L257 327 L261 321 L263 321 L265 324 L264 327 L253 336 L251 336 L247 331 L247 327 L245 326 Z M313 317 L315 318 L314 321 L311 320 Z M129 318 L132 317 L133 321 L131 322 Z M121 316 L126 322 L126 326 L124 329 L120 329 L119 337 L112 343 L109 339 L109 336 L111 335 L112 331 L117 326 L118 317 Z M141 314 L144 315 L142 317 L141 329 L143 337 L148 347 L155 354 L159 356 L161 362 L164 365 L163 368 L154 364 L144 357 L134 348 L125 336 L126 334 L129 333 L137 323 L138 317 Z M272 311 L274 310 L275 313 L273 314 Z M254 307 L256 304 L260 304 L262 309 L260 311 L256 311 Z M242 305 L244 304 L245 306 L243 307 Z M324 303 L325 305 L322 307 L321 305 Z M278 302 L281 305 L281 308 L283 309 L286 315 L279 319 L278 321 L271 322 L268 320 L268 318 L278 315 L278 311 L272 303 Z M258 297 L263 298 L267 302 L268 312 L263 318 L256 319 L249 315 L247 305 L253 298 L255 298 L256 300 L252 303 L252 306 L250 307 L250 309 L255 315 L258 316 L264 313 L265 305 L257 299 Z M108 295 L111 295 L113 297 L113 303 L110 306 L105 302 L105 299 Z M242 293 L248 295 L249 298 L240 300 L238 302 L239 308 L245 311 L244 315 L239 315 L236 312 L236 308 L232 306 L231 300 L236 296 L239 296 Z M136 287 L137 293 L143 293 L148 298 L149 301 L143 307 L140 307 L140 309 L137 312 L130 315 L126 313 L124 310 L126 308 L134 307 L139 302 L139 300 L134 294 L126 293 L125 290 L129 287 Z M112 286 L115 289 L117 289 L125 299 L128 297 L131 297 L133 299 L133 302 L129 306 L125 302 L119 311 L106 323 L105 322 L106 317 L101 310 L101 306 L103 305 L105 309 L110 311 L118 302 L118 299 L116 298 L116 295 L113 292 L109 291 L103 296 L101 306 L97 305 L96 300 L106 289 Z M343 285 L344 282 L347 283 L345 286 Z M301 284 L302 281 L307 282 L304 285 Z M252 289 L259 283 L266 280 L270 287 L270 290 L272 291 L272 297 L270 299 L267 298 L267 292 L264 287 L258 290 L255 294 L252 293 Z M138 283 L143 281 L153 280 L157 287 L161 290 L164 290 L170 293 L172 293 L170 286 L175 283 L178 287 L177 294 L179 299 L178 300 L170 299 L166 295 L164 297 L161 297 L155 289 L153 289 L154 294 L150 295 Z M293 279 L295 278 L296 280 L294 281 Z M364 277 L385 282 L406 297 L412 308 L403 320 L408 329 L426 328 L421 370 L431 386 L444 365 L460 359 L452 372 L456 384 L448 392 L450 398 L454 391 L459 393 L451 408 L455 423 L449 431 L444 375 L439 387 L444 425 L435 448 L428 447 L439 422 L435 389 L434 430 L421 445 L410 437 L407 416 L398 404 L358 387 L343 374 L332 351 L332 339 L328 353 L273 368 L284 341 L310 335 L330 324 L352 302 Z M335 278 L335 281 L326 296 L314 307 L298 316 L292 317 L287 310 L285 304 L283 304 L279 300 L285 290 L287 280 L289 278 L294 281 L298 289 L303 289 L304 287 L308 287 L326 278 Z M158 279 L161 277 L167 277 L168 278 L167 285 L166 286 L160 285 L158 283 Z M127 275 L129 278 L129 283 L122 287 L121 277 Z M114 275 L118 278 L117 285 L110 283 L110 279 Z M359 276 L360 280 L358 281 L357 285 L351 288 L349 292 L345 293 L345 295 L349 295 L351 298 L343 306 L336 306 L336 308 L339 309 L340 311 L333 317 L328 317 L327 319 L319 318 L317 316 L319 313 L326 315 L333 311 L328 307 L328 305 L331 302 L338 303 L344 300 L344 298 L340 298 L338 300 L334 299 L335 297 L339 296 L340 290 L347 289 L352 281 L345 280 L344 275 L346 274 L347 277 L353 278 Z M172 276 L176 274 L184 283 L194 284 L194 278 L197 274 L199 274 L202 279 L201 283 L202 291 L195 292 L192 289 L187 291 Z M186 269 L191 272 L190 279 L182 276 L182 272 Z M364 269 L365 268 L379 269 L380 271 L384 271 L400 278 L409 285 L418 295 L424 307 L425 311 L424 320 L416 327 L411 326 L408 323 L408 318 L412 316 L415 319 L417 319 L417 309 L412 299 L409 296 L409 294 L392 281 L387 280 L386 278 L377 275 L367 274 L364 272 Z M336 270 L335 274 L319 276 L298 276 L296 274 L297 271 L318 271 L320 269 L334 268 Z M350 264 L351 266 L349 269 L345 271 L344 267 Z M339 264 L342 267 L341 275 L339 274 L338 266 Z M192 267 L198 264 L201 269 L197 271 L193 269 Z M116 264 L118 264 L123 270 L121 275 L119 275 L116 269 L114 268 Z M267 260 L270 262 L272 268 L270 280 L268 279 L268 275 L266 274 L267 272 L266 261 Z M246 260 L262 271 L263 276 L248 291 L238 291 L225 298 L231 312 L240 319 L247 337 L244 352 L230 365 L230 345 L222 331 L208 327 L198 335 L200 346 L213 346 L216 351 L213 375 L221 389 L217 430 L208 442 L201 443 L190 435 L190 417 L183 394 L187 390 L183 384 L181 387 L176 384 L177 373 L169 367 L161 350 L160 336 L165 324 L158 329 L155 348 L146 332 L146 318 L150 305 L157 298 L185 304 L183 293 L210 295 L206 283 L221 285 L239 280 L241 275 L235 273 L231 265 Z M359 259 L361 261 L360 271 L354 275 L350 275 L349 273 L354 267 L354 261 L356 259 Z M202 271 L204 270 L212 273 L221 273 L219 269 L218 260 L222 259 L226 263 L229 272 L233 277 L225 281 L216 277 L215 281 L211 281 L202 274 Z M202 261 L207 257 L211 258 L213 260 L214 267 L213 268 L206 267 L203 265 Z M249 256 L253 255 L259 258 L263 262 L263 265 L260 266 L256 264 L249 258 Z M280 251 L282 258 L279 262 L279 267 L281 267 L281 264 L283 263 L284 271 L281 275 L279 275 L276 278 L276 281 L279 283 L280 280 L282 279 L283 283 L280 289 L275 290 L272 285 L272 281 L274 274 L277 272 L277 270 L274 268 L272 258 L277 254 L278 251 Z M355 250 L357 255 L353 256 L351 260 L343 264 L342 262 L349 256 L353 250 Z M218 249 L220 251 L220 254 L215 257 L212 253 L216 249 Z M419 246 L421 247 L431 246 L438 255 L439 259 L441 260 L444 270 L445 286 L443 294 L437 305 L431 310 L428 309 L427 304 L434 297 L437 290 L437 273 L433 263 L418 248 Z M224 240 L229 242 L231 245 L227 249 L223 249 L220 246 L220 244 Z M256 235 L256 239 L253 246 L248 252 L240 253 L241 255 L240 258 L228 259 L223 256 L224 253 L229 253 L231 251 L235 251 L236 249 L240 248 L240 246 L235 246 L233 244 L233 242 L230 239 L231 237 L233 236 L237 237 L238 241 L241 244 L243 244 L245 242 L245 240 L243 239 L244 237 L250 237 L254 234 Z M222 234 L218 243 L213 248 L210 249 L205 255 L203 255 L194 262 L186 266 L176 269 L171 272 L147 277 L133 277 L130 273 L131 271 L144 271 L146 269 L157 268 L178 262 L179 260 L195 253 L196 251 L202 248 L216 233 Z M135 228 L137 231 L137 235 L135 236 L134 240 L129 244 L127 236 L124 235 L121 230 Z M361 225 L365 222 L366 224 L370 223 L381 229 L401 233 L405 236 L410 237 L416 245 L413 246 L401 240 L376 235 L375 233 L372 233 L364 229 Z M226 221 L227 225 L225 229 L220 231 L219 230 L220 223 L222 221 Z M140 219 L143 219 L147 225 L146 234 L142 241 L139 240 L141 231 L138 225 L138 222 Z M113 219 L118 222 L117 227 L115 227 L111 223 Z M410 215 L413 215 L417 221 L432 230 L443 241 L452 257 L455 268 L456 278 L455 290 L450 306 L447 308 L445 313 L440 318 L432 322 L428 320 L428 316 L440 307 L447 293 L448 287 L447 267 L442 254 L432 242 L429 236 L427 236 L428 241 L424 243 L420 242 L415 238 L415 235 L410 225 L409 220 Z M355 216 L357 215 L360 218 L360 220 L358 221 L355 218 Z M238 215 L239 216 L238 219 L239 231 L230 233 L229 229 L231 219 Z M217 221 L210 235 L198 246 L183 255 L158 264 L131 267 L130 264 L151 246 L149 244 L126 265 L123 263 L128 255 L137 247 L143 245 L147 240 L151 221 L156 226 L154 239 L157 237 L160 225 L171 228 L185 227 L196 222 L204 215 Z M107 214 L109 213 L110 215 L108 216 Z M110 206 L112 207 L111 210 L108 209 Z M148 205 L147 209 L140 209 L137 212 L132 224 L127 226 L123 225 L123 223 L130 217 L133 207 L136 204 L138 205 L147 204 Z M113 203 L115 202 L122 208 L122 210 L120 212 L117 212 L114 209 Z M219 191 L224 191 L229 199 L223 202 L222 205 L215 205 L213 201 L214 200 L218 201 L220 198 L222 198 L222 194 L220 194 L219 198 L215 197 L216 193 Z M250 188 L244 196 L239 195 L232 204 L232 206 L235 206 L236 204 L240 205 L240 207 L235 212 L229 213 L226 216 L222 216 L220 213 L218 213 L217 217 L208 213 L211 207 L214 209 L224 209 L228 207 L228 204 L232 198 L235 196 L234 194 L229 193 L229 189 L231 187 L241 186 Z M221 178 L222 184 L220 188 L218 189 L217 180 Z M108 176 L109 181 L105 185 L103 182 L103 178 L105 176 Z M90 177 L96 176 L97 178 L91 179 Z M97 176 L99 175 L100 177 L98 178 Z M112 175 L114 174 L118 178 L116 179 Z M334 173 L337 174 L340 180 L339 194 L341 202 L347 214 L355 222 L354 224 L347 221 L339 213 L334 205 L330 192 L331 179 Z M146 174 L149 172 L151 175 L147 176 Z M153 179 L157 183 L159 192 L156 199 L154 201 L149 202 L146 201 L135 202 L130 207 L128 216 L125 219 L117 218 L116 215 L122 214 L124 212 L125 207 L127 206 L130 200 L132 200 L135 197 L148 197 L154 191 L152 184 L143 185 L138 180 L138 178 L135 176 L131 176 L124 180 L120 180 L119 178 L130 174 L132 171 L137 171 L140 177 L145 182 L148 182 L151 179 Z M235 170 L236 172 L232 175 L231 173 Z M86 173 L87 170 L94 171 L93 173 L89 174 Z M361 169 L365 169 L371 172 L370 175 L366 175 L362 177 L357 184 L356 194 L362 206 L370 213 L378 216 L379 218 L406 225 L409 230 L408 232 L386 227 L383 225 L377 224 L373 221 L370 221 L357 210 L352 199 L351 190 L353 180 Z M116 170 L125 169 L127 172 L120 174 Z M101 171 L103 169 L108 169 L110 172 L102 173 Z M162 168 L170 170 L176 178 L176 181 L171 184 L171 188 L173 188 L175 185 L179 185 L183 190 L176 197 L171 197 L172 203 L169 206 L163 209 L156 209 L152 205 L160 201 L167 192 L166 185 L161 185 L157 178 L157 175 L154 174 L156 170 Z M371 166 L380 167 L386 174 L385 182 L380 186 L377 186 L372 182 L373 176 L380 177 L380 175 L376 170 L370 168 Z M131 166 L133 164 L140 162 L145 170 L141 172 L137 167 L132 168 Z M358 160 L361 166 L353 173 L348 182 L347 194 L348 200 L352 206 L352 210 L350 211 L347 207 L347 204 L344 198 L343 190 L344 181 L348 170 Z M100 159 L103 158 L104 162 L108 162 L110 165 L101 167 Z M253 156 L254 158 L252 162 L247 165 L247 168 L250 169 L248 174 L245 177 L242 176 L241 177 L242 180 L238 183 L227 184 L226 183 L227 180 L236 178 L240 172 L241 166 L238 165 L240 160 L243 157 Z M190 153 L203 165 L208 166 L212 174 L212 194 L204 210 L195 218 L182 223 L163 222 L150 215 L144 214 L144 211 L169 211 L179 202 L184 194 L188 193 L188 189 L181 182 L178 174 L171 166 L177 165 L178 160 L175 162 L172 161 L176 154 Z M380 151 L379 159 L377 162 L369 162 L365 165 L362 164 L365 156 L368 153 L371 153 L377 150 Z M398 149 L399 151 L396 159 L390 165 L384 166 L381 162 L383 160 L388 161 L390 151 L393 149 Z M149 142 L152 141 L155 145 L152 148 L150 148 Z M82 142 L84 141 L88 144 L95 145 L100 150 L102 150 L102 146 L104 144 L108 144 L115 150 L115 152 L117 153 L117 156 L119 155 L119 151 L121 150 L127 158 L127 163 L122 167 L117 167 L109 161 L105 155 L101 155 L97 157 L95 166 L91 168 L85 163 L84 159 L85 151 L83 149 Z M142 139 L146 142 L146 148 L143 152 L141 151 L142 149 L141 140 Z M127 139 L129 141 L128 145 L126 147 L122 147 L121 144 Z M227 138 L228 147 L226 155 L224 156 L222 148 L217 142 Z M111 133 L113 133 L115 136 L113 142 L111 141 L109 137 Z M187 122 L198 135 L193 150 L189 149 L175 150 L168 156 L168 162 L170 164 L169 166 L156 165 L152 168 L148 168 L143 158 L149 156 L160 145 L167 144 L174 141 L181 131 L181 127 L183 123 Z M245 118 L246 121 L244 132 L238 139 L238 141 L241 142 L240 150 L237 157 L232 161 L234 165 L225 174 L216 175 L214 173 L214 169 L216 167 L222 166 L228 159 L230 151 L232 149 L230 142 L232 137 L238 131 L238 129 L227 134 L218 136 L208 144 L207 153 L212 156 L212 153 L210 152 L211 147 L216 147 L219 150 L219 156 L213 162 L204 161 L200 157 L199 145 L202 138 L207 133 L219 127 L232 124 L241 120 L242 118 Z M114 118 L119 123 L118 129 L122 130 L122 137 L120 140 L118 139 L119 136 L116 134 L114 130 L114 124 L112 123 Z M186 112 L188 111 L194 116 L196 116 L203 125 L205 130 L201 132 L195 124 L185 116 Z M125 124 L134 115 L139 114 L140 118 L142 118 L143 114 L148 111 L161 111 L162 113 L159 118 L164 118 L169 112 L182 113 L181 120 L178 123 L178 125 L171 127 L169 129 L170 131 L174 132 L173 136 L170 139 L163 141 L153 138 L151 135 L145 133 L139 133 L133 137 L131 136 L136 130 L142 129 L143 127 L158 132 L158 129 L149 124 L138 125 L129 134 L127 133 Z M397 108 L400 119 L399 125 L395 131 L392 131 L389 134 L389 139 L393 141 L392 136 L394 134 L398 134 L399 140 L394 146 L388 148 L387 150 L388 156 L384 157 L382 155 L383 145 L382 143 L380 143 L377 147 L364 151 L353 158 L346 166 L344 172 L341 174 L339 172 L339 162 L347 147 L351 143 L359 139 L361 141 L361 145 L357 148 L357 150 L360 150 L364 146 L365 137 L372 130 L375 131 L375 136 L372 138 L372 141 L376 140 L380 134 L379 127 L393 115 L395 109 Z M226 107 L228 110 L228 120 L226 122 L219 123 L215 116 L221 113 L223 108 Z M167 106 L173 105 L174 107 L168 108 Z M157 105 L162 104 L163 106 L158 107 Z M166 96 L168 94 L174 94 L187 97 L195 101 L210 115 L214 121 L214 125 L209 128 L202 118 L192 109 L189 108 L187 105 L170 102 L169 100 L165 99 Z M165 81 L164 92 L159 99 L152 100 L150 97 L154 93 L149 93 L145 98 L137 102 L122 119 L120 118 L120 112 L124 106 L140 91 L157 84 L162 80 Z M201 79 L202 80 L201 84 L202 92 L198 97 L195 97 L194 87 L191 86 L190 83 L192 81 Z M229 70 L230 71 L229 77 L222 82 L224 85 L219 88 L220 95 L222 95 L223 89 L226 90 L226 95 L218 109 L212 112 L209 109 L209 106 L212 103 L214 98 L215 90 L218 83 L217 81 L213 80 L214 75 L220 71 Z M195 59 L199 63 L195 71 L201 69 L203 62 L211 60 L214 61 L215 70 L210 76 L210 82 L213 85 L213 90 L209 101 L206 104 L204 104 L201 101 L205 95 L206 90 L205 85 L206 71 L197 77 L190 78 L187 81 L186 88 L191 90 L189 94 L179 91 L176 86 L179 73 L182 71 L184 74 L186 74 L186 67 L189 64 L191 64 Z M231 31 L230 42 L222 50 L223 54 L226 54 L227 50 L230 51 L230 59 L227 65 L221 68 L218 65 L219 61 L218 55 L214 54 L208 58 L205 55 L205 50 L208 45 L218 40 L228 30 Z"/></svg>
