<svg xmlns="http://www.w3.org/2000/svg" width="512" height="512" viewBox="0 0 512 512" aria-hidden="true" focusable="false"><path fill="currentColor" fill-rule="evenodd" clip-rule="evenodd" d="M355 221 L354 220 L351 222 L351 224 L354 224 Z M119 17 L116 33 L96 44 L77 72 L74 62 L53 103 L55 124 L50 123 L47 166 L53 201 L65 222 L67 238 L81 246 L75 249 L88 262 L88 271 L104 287 L115 291 L111 295 L121 305 L128 303 L130 313 L142 314 L143 320 L136 327 L139 351 L166 382 L169 392 L164 398 L172 395 L173 403 L147 410 L137 390 L126 380 L111 379 L105 384 L107 391 L93 405 L94 411 L103 406 L94 417 L98 427 L103 430 L110 422 L121 420 L148 447 L149 461 L142 463 L148 469 L162 463 L164 443 L179 431 L188 434 L186 440 L191 446 L199 443 L196 449 L207 464 L214 463 L230 480 L238 476 L254 496 L274 476 L282 480 L298 463 L305 465 L313 449 L321 447 L331 431 L348 444 L350 463 L357 469 L366 468 L370 463 L361 458 L367 457 L365 447 L371 437 L380 434 L391 420 L402 422 L410 432 L415 425 L412 412 L419 411 L419 404 L410 389 L404 390 L407 383 L401 379 L385 381 L366 409 L348 408 L348 400 L339 403 L340 396 L348 394 L344 386 L362 371 L373 351 L371 314 L379 315 L385 303 L402 295 L399 292 L414 282 L434 253 L438 254 L432 246 L441 246 L439 241 L446 239 L448 227 L452 227 L449 221 L458 207 L466 166 L465 129 L456 90 L448 85 L439 62 L437 75 L422 48 L401 37 L393 18 L389 35 L396 58 L401 59 L401 72 L407 76 L405 82 L409 83 L409 101 L392 140 L377 139 L358 116 L355 128 L361 152 L378 159 L372 160 L369 167 L373 170 L372 180 L349 205 L333 202 L335 197 L330 193 L323 197 L321 207 L316 206 L313 191 L321 178 L319 169 L326 162 L322 156 L327 146 L326 130 L313 143 L301 141 L302 134 L285 123 L287 109 L278 113 L279 101 L272 100 L270 74 L261 60 L263 34 L256 19 L250 42 L251 65 L240 98 L224 115 L228 123 L219 131 L214 129 L212 141 L199 142 L198 135 L188 130 L184 138 L188 140 L188 162 L195 171 L192 178 L201 201 L192 205 L192 197 L181 193 L182 200 L168 206 L141 180 L142 164 L131 162 L142 153 L146 156 L152 152 L159 134 L156 117 L140 137 L121 140 L107 108 L104 82 L124 36 Z M256 477 L260 478 L261 485 L259 487 L253 486 L251 484 L252 482 L254 482 L254 479 Z M265 475 L269 474 L270 476 L266 477 Z M242 477 L243 474 L248 475 L247 477 L244 478 Z M278 469 L280 470 L279 474 L276 473 Z M233 469 L235 470 L234 474 L232 473 Z M269 469 L274 468 L275 470 L270 471 Z M237 469 L242 468 L243 470 L238 471 Z M221 468 L226 467 L227 469 L223 471 Z M261 463 L262 467 L260 468 L260 470 L262 470 L263 472 L260 476 L258 474 L251 474 L249 472 L252 468 L257 468 L258 465 Z M252 462 L253 465 L248 467 L247 465 Z M267 462 L269 461 L270 463 L268 464 Z M243 461 L245 462 L244 466 L242 465 Z M236 462 L239 461 L240 464 L237 466 Z M283 461 L291 460 L292 467 L289 470 L283 470 L281 466 L281 463 Z M352 457 L356 456 L358 460 L353 462 Z M298 457 L300 456 L302 460 L299 461 Z M274 456 L276 457 L275 462 L271 460 L271 458 Z M238 457 L240 456 L241 458 L239 459 Z M229 457 L231 456 L232 458 L230 459 Z M154 457 L159 456 L160 461 L157 462 L154 459 Z M304 456 L306 455 L307 457 L305 458 Z M216 454 L220 453 L222 458 L229 460 L231 462 L231 466 L227 468 L225 464 L221 463 L222 461 L216 458 Z M292 452 L296 454 L296 458 L294 462 L292 461 L292 457 L290 456 Z M263 452 L259 458 L257 456 L253 457 L250 454 L251 452 L253 453 L257 453 L259 451 Z M349 450 L352 449 L353 452 L350 453 Z M280 449 L283 451 L284 454 L283 457 L276 455 Z M226 449 L227 452 L224 454 L223 452 Z M159 450 L162 449 L163 452 L160 453 Z M232 447 L234 448 L233 451 L236 453 L235 456 L232 456 L229 453 Z M152 447 L154 448 L155 452 L154 454 L151 452 Z M240 445 L241 447 L239 451 L237 452 L236 449 Z M290 444 L291 447 L286 451 L283 447 L286 446 L287 444 Z M272 444 L275 446 L274 450 L271 447 Z M275 443 L277 442 L278 444 L276 445 Z M154 442 L157 441 L158 445 L155 446 Z M220 440 L224 444 L223 447 L218 444 Z M248 438 L250 441 L248 442 L247 446 L244 446 L242 442 Z M254 440 L255 437 L259 438 L257 441 Z M292 439 L296 438 L299 435 L303 435 L306 437 L309 443 L307 447 L309 451 L301 452 L299 450 L301 441 L295 442 L293 444 L291 442 Z M269 435 L271 436 L270 442 L268 441 Z M218 439 L217 441 L211 441 L213 445 L213 450 L210 453 L203 453 L202 450 L205 447 L202 444 L203 440 L209 435 Z M362 434 L366 440 L363 444 L359 444 L358 445 L359 448 L357 449 L352 442 L353 441 L358 442 L356 436 Z M153 435 L154 437 L152 440 L148 442 L146 440 L150 434 Z M168 432 L169 434 L162 440 L160 437 L163 436 L165 432 Z M344 430 L347 431 L347 435 L350 437 L349 441 L347 441 L343 435 Z M260 431 L262 430 L263 432 L261 433 Z M321 428 L323 427 L325 430 L323 431 Z M232 427 L234 428 L233 433 L231 432 Z M277 427 L280 426 L283 430 L281 432 L278 432 Z M268 426 L271 429 L270 433 L267 430 Z M307 429 L311 425 L313 425 L319 430 L320 434 L310 437 L307 434 Z M245 425 L246 427 L243 429 L242 427 Z M197 426 L199 425 L206 431 L206 433 L201 436 L200 433 L196 429 Z M406 424 L408 423 L409 425 L407 426 Z M381 424 L381 426 L374 432 L367 431 L368 425 L374 427 L375 424 L379 423 Z M327 424 L329 423 L331 426 L328 427 Z M208 423 L212 424 L211 431 L207 427 Z M305 422 L307 423 L306 427 L304 426 Z M259 422 L260 425 L258 427 L255 427 L254 424 Z M130 423 L132 422 L138 425 L136 429 L133 428 Z M227 422 L229 421 L230 423 L228 424 Z M368 423 L367 426 L363 428 L360 427 L361 422 L363 420 Z M149 420 L151 422 L151 426 L147 427 L146 430 L142 432 L141 427 L144 424 L146 424 L146 422 Z M351 420 L353 419 L354 421 L352 422 Z M246 420 L248 419 L249 422 L247 423 Z M135 420 L138 419 L139 421 L136 422 Z M409 419 L411 418 L412 420 L410 421 Z M213 419 L215 418 L218 419 L219 421 L215 422 Z M195 419 L197 418 L199 422 L196 423 Z M100 419 L102 418 L103 420 L101 421 Z M319 417 L322 418 L321 423 L316 422 L316 420 Z M298 417 L299 420 L296 422 L295 419 Z M139 418 L141 417 L142 420 L140 421 Z M281 416 L284 417 L285 420 L284 423 L282 422 L280 418 Z M364 414 L366 413 L367 415 L365 416 Z M223 413 L225 414 L224 421 L218 418 Z M216 414 L218 413 L219 415 L217 416 Z M145 414 L147 413 L150 417 L148 418 Z M134 413 L136 414 L135 417 L132 416 Z M383 415 L384 412 L387 413 L385 416 Z M374 412 L379 415 L378 417 L379 420 L377 422 L370 420 L371 418 L374 418 L373 415 Z M287 413 L289 412 L290 414 L288 415 Z M341 411 L346 414 L343 418 L341 418 L339 415 Z M266 412 L268 411 L269 413 L267 414 Z M237 411 L242 415 L241 418 L239 418 L235 414 Z M300 411 L303 410 L304 413 L301 414 Z M276 410 L278 413 L272 418 L270 415 Z M406 409 L407 411 L404 414 L404 417 L400 419 L398 417 L398 412 Z M165 411 L167 409 L170 409 L173 411 L173 414 L168 416 L165 413 Z M308 408 L313 413 L310 420 L307 420 L305 418 Z M204 408 L206 409 L205 413 L207 414 L206 419 L204 419 L199 414 L200 411 Z M186 408 L188 409 L187 416 L184 413 Z M116 408 L117 411 L115 412 L115 415 L110 416 L108 412 L113 411 Z M253 408 L255 407 L256 409 L254 410 Z M135 409 L134 412 L131 412 L129 414 L125 413 L132 407 Z M320 406 L325 407 L327 411 L325 415 L319 411 Z M219 406 L221 407 L220 412 L217 411 L217 408 Z M409 406 L412 405 L414 408 L411 409 Z M289 406 L291 405 L292 407 L290 408 Z M374 404 L376 405 L375 409 L373 408 Z M258 405 L262 404 L263 408 L259 409 Z M209 404 L211 403 L212 406 L210 407 Z M228 403 L230 402 L231 404 L229 405 Z M308 402 L310 401 L311 403 L309 404 Z M201 402 L203 401 L204 403 L202 404 Z M98 401 L100 400 L101 402 L99 403 Z M394 400 L397 399 L398 401 L395 402 Z M387 400 L390 399 L391 401 L394 401 L395 405 L392 406 Z M113 401 L118 399 L123 400 L124 402 L121 407 L118 407 L117 406 L118 402 L114 403 Z M123 399 L125 398 L126 400 L124 401 Z M406 398 L410 397 L413 401 L409 402 L406 400 Z M104 397 L106 398 L105 402 L103 401 Z M258 397 L260 396 L261 398 L259 399 Z M251 397 L253 396 L254 398 L252 399 Z M247 396 L249 397 L249 402 L245 403 L244 401 L246 400 Z M273 393 L276 394 L275 401 L272 400 Z M266 394 L268 393 L269 395 L267 396 Z M401 393 L403 392 L404 394 L402 395 Z M307 397 L310 392 L315 393 L316 395 L320 397 L324 394 L327 394 L328 401 L331 400 L333 402 L333 405 L325 406 L324 402 L314 404 L313 399 L308 399 Z M222 396 L224 392 L228 394 L226 397 Z M202 392 L204 397 L203 398 L197 397 L199 401 L199 405 L197 406 L196 404 L194 404 L193 411 L186 406 L180 405 L179 402 L184 398 L185 394 L187 394 L189 398 L193 396 L194 392 L196 393 Z M109 392 L111 393 L110 397 L108 396 Z M277 392 L279 391 L280 393 L278 394 Z M245 392 L244 397 L241 398 L237 396 L238 394 L242 394 L243 391 Z M384 390 L387 391 L387 394 L385 396 L383 395 Z M293 391 L296 390 L297 392 L294 393 Z M303 390 L306 389 L307 392 L304 393 Z M205 390 L207 389 L208 391 L206 392 Z M333 388 L336 387 L337 389 L334 390 Z M297 388 L299 387 L300 389 L298 390 Z M124 387 L126 389 L131 390 L128 395 L126 395 L125 391 L122 390 Z M238 386 L239 390 L233 395 L232 392 L234 391 L235 387 Z M109 387 L113 386 L114 388 L110 389 Z M399 382 L396 385 L393 384 L394 382 L397 381 Z M299 382 L301 381 L302 383 L300 384 Z M208 384 L209 381 L213 382 L210 385 Z M114 382 L116 381 L118 384 L116 385 Z M289 379 L290 380 L289 387 L286 388 L284 383 Z M225 379 L226 384 L220 386 L219 383 L223 379 Z M306 379 L308 378 L310 381 L307 382 Z M280 379 L282 378 L283 380 L281 381 Z M204 379 L206 378 L207 380 L205 381 Z M259 378 L264 377 L265 380 L262 381 Z M339 375 L341 375 L343 378 L341 381 L339 381 L337 378 Z M267 374 L269 373 L270 375 L268 376 Z M249 373 L254 374 L254 378 L251 381 L247 379 L247 375 Z M326 373 L330 372 L331 374 L327 375 Z M297 373 L299 372 L300 374 L298 375 Z M348 372 L350 371 L351 373 L349 374 Z M307 372 L309 371 L310 373 L308 374 Z M234 372 L236 371 L238 374 L236 375 Z M201 372 L203 371 L204 373 L202 374 Z M192 372 L195 371 L196 374 L193 375 Z M316 370 L319 371 L320 375 L318 376 L315 373 Z M273 372 L276 370 L278 371 L277 374 L274 374 Z M190 371 L188 375 L182 374 L183 371 L187 370 Z M221 370 L223 369 L224 371 L222 372 Z M334 367 L337 368 L335 373 L332 370 Z M253 368 L258 367 L259 369 L255 371 Z M230 368 L232 367 L233 369 L231 370 Z M175 368 L180 367 L181 369 L177 371 Z M296 368 L294 372 L288 371 L288 369 L293 366 Z M162 367 L164 366 L166 369 L164 370 Z M349 364 L351 365 L350 369 L347 368 Z M190 365 L192 364 L193 366 L191 367 Z M288 364 L290 363 L291 365 L289 366 Z M320 362 L322 363 L321 367 L319 366 Z M232 363 L234 362 L235 364 L233 365 Z M264 362 L266 361 L268 364 L266 365 Z M247 361 L250 364 L247 365 L247 369 L244 371 L243 370 L244 364 Z M217 362 L219 361 L220 363 L218 364 Z M307 361 L313 360 L314 365 L313 366 L308 365 Z M292 363 L295 360 L297 361 L294 364 Z M277 360 L280 363 L282 368 L281 370 L279 369 L276 362 Z M207 361 L208 360 L211 361 L212 364 L208 366 Z M199 360 L201 360 L204 363 L200 367 L196 365 L196 363 Z M148 360 L151 359 L152 361 L149 362 Z M360 361 L361 358 L364 359 L362 362 Z M283 359 L287 358 L288 360 L285 362 Z M254 360 L255 357 L258 358 L256 361 Z M339 357 L340 356 L346 357 L347 361 L342 364 L339 360 Z M325 356 L328 358 L329 364 L328 366 L322 360 Z M224 357 L226 356 L228 360 L225 361 Z M185 356 L190 359 L187 365 L184 364 Z M165 357 L166 356 L172 357 L173 360 L168 364 L165 362 Z M301 356 L303 355 L304 357 L302 358 Z M207 355 L209 354 L210 356 L208 357 Z M312 353 L314 354 L313 357 L310 356 Z M242 353 L244 354 L243 357 L240 356 Z M158 353 L159 355 L158 358 L156 359 L155 356 Z M349 355 L350 352 L353 353 L351 356 Z M273 353 L276 352 L277 355 L274 356 Z M306 352 L308 351 L309 353 L307 354 Z M291 352 L293 351 L294 354 L292 355 Z M217 351 L220 353 L219 357 L216 355 Z M187 352 L189 351 L190 353 L188 354 Z M161 352 L163 351 L164 354 L162 355 Z M358 350 L359 349 L364 350 L365 354 L362 356 Z M178 349 L180 350 L179 354 L176 353 Z M149 350 L151 349 L152 351 L150 352 Z M210 349 L212 348 L213 350 L211 351 Z M297 348 L299 347 L300 349 L298 350 Z M200 348 L202 347 L203 349 L201 350 Z M241 347 L243 346 L244 348 L242 349 Z M328 345 L330 344 L332 347 L329 348 Z M248 345 L250 344 L251 346 L249 347 Z M197 345 L199 344 L201 347 L199 348 Z M367 344 L370 343 L371 347 L369 348 Z M343 344 L347 343 L348 345 L345 347 Z M315 343 L316 345 L313 347 L312 345 Z M166 344 L168 343 L169 345 L167 346 Z M163 343 L164 346 L161 349 L159 349 L158 345 Z M269 342 L271 343 L270 348 L268 347 Z M189 343 L191 342 L192 344 L190 345 Z M279 342 L283 341 L284 343 L280 344 Z M308 340 L310 341 L309 344 L306 343 Z M299 340 L300 342 L295 346 L294 344 Z M225 344 L226 341 L230 340 L234 341 L233 344 L230 345 Z M194 341 L196 340 L198 343 L196 344 Z M154 341 L157 340 L158 344 L155 345 Z M143 340 L146 343 L144 347 L141 346 L141 343 Z M362 339 L365 340 L363 345 L361 345 L359 342 Z M307 338 L309 337 L310 339 L308 340 Z M163 338 L165 337 L167 340 L164 341 Z M324 337 L326 336 L327 338 L325 339 Z M286 337 L288 336 L293 338 L294 340 L291 341 L287 339 Z M185 337 L188 336 L189 338 L186 339 Z M365 336 L367 335 L368 337 L366 338 Z M267 336 L269 335 L270 337 L268 338 Z M348 335 L351 334 L352 338 L350 339 Z M333 335 L335 334 L336 337 L334 338 Z M311 334 L313 333 L314 336 L312 337 Z M218 334 L219 333 L223 334 L225 338 L221 340 Z M236 333 L238 332 L239 334 L237 335 Z M170 332 L172 333 L171 338 L167 336 Z M343 330 L346 332 L345 336 L341 334 Z M351 330 L355 329 L358 333 L356 334 L352 332 Z M229 330 L231 329 L232 331 L230 332 Z M144 330 L146 329 L151 335 L146 338 Z M368 328 L369 331 L364 336 L362 333 L366 328 Z M328 329 L330 328 L331 330 L329 331 Z M261 328 L263 327 L264 329 L262 330 Z M150 328 L152 327 L153 330 L151 331 Z M358 327 L360 326 L361 328 L359 329 Z M337 327 L339 326 L340 328 L338 329 Z M300 326 L301 328 L298 330 L297 328 Z M314 325 L318 324 L319 326 L315 327 Z M201 325 L203 324 L205 328 L203 329 Z M163 325 L165 324 L167 328 L164 329 Z M344 328 L346 323 L349 323 L351 326 L349 329 Z M356 325 L357 322 L360 323 L358 326 Z M330 323 L333 322 L335 326 L334 327 L331 326 Z M210 322 L216 328 L214 332 L212 331 L212 328 L209 325 Z M159 322 L162 321 L163 323 L160 324 Z M150 322 L155 321 L156 326 L154 327 Z M302 321 L304 320 L306 323 L303 324 Z M340 320 L343 319 L344 322 L342 323 Z M172 319 L173 321 L170 323 L169 321 Z M199 319 L201 318 L202 320 L200 321 Z M272 318 L274 317 L275 319 L273 320 Z M353 316 L355 315 L356 318 L354 319 Z M185 315 L188 316 L190 323 L189 326 L185 322 L184 319 Z M325 315 L328 314 L329 317 L327 318 Z M190 313 L192 312 L195 313 L196 315 L192 316 Z M156 312 L158 313 L158 316 L160 317 L159 319 L155 317 Z M290 311 L292 310 L293 312 L291 313 Z M344 308 L349 310 L347 316 L342 311 Z M333 309 L337 308 L338 312 L337 313 L334 312 Z M175 308 L178 308 L180 311 L178 316 L175 314 L174 311 Z M166 308 L169 309 L168 317 L164 314 L163 311 Z M255 308 L257 307 L258 309 L256 310 Z M237 316 L239 315 L240 318 L245 318 L246 314 L248 313 L249 307 L252 310 L251 312 L252 314 L257 315 L258 313 L263 314 L263 312 L261 312 L260 310 L264 307 L265 311 L268 314 L268 318 L272 319 L275 325 L273 327 L267 327 L265 324 L265 319 L262 319 L262 321 L260 322 L257 318 L254 319 L248 318 L248 322 L243 323 L240 326 L238 324 Z M373 309 L374 306 L377 307 L375 310 Z M316 306 L318 305 L320 308 L317 309 Z M193 306 L195 305 L196 308 L194 309 Z M185 305 L187 304 L188 306 L186 307 Z M307 304 L309 303 L310 305 L308 306 Z M290 303 L291 304 L290 307 L286 309 L287 312 L284 313 L282 307 Z M297 303 L300 302 L301 305 L299 306 Z M177 303 L179 302 L180 304 L178 305 Z M167 303 L169 302 L170 304 L168 305 Z M368 301 L371 304 L370 310 L363 311 L362 307 Z M145 301 L151 305 L151 309 L149 311 L142 310 L143 303 Z M201 300 L200 304 L196 306 L195 303 L198 299 Z M318 299 L321 298 L322 300 L319 301 Z M312 299 L314 298 L315 300 L313 301 Z M302 299 L305 298 L306 302 L304 303 Z M191 299 L193 298 L194 300 L192 301 Z M172 298 L175 301 L174 303 L170 302 Z M350 297 L352 298 L353 303 L352 305 L349 303 Z M207 298 L209 297 L210 299 L208 300 Z M187 298 L184 303 L179 302 L179 300 L183 297 Z M328 295 L332 299 L331 304 L326 299 Z M119 296 L122 295 L123 298 L121 299 Z M155 294 L157 296 L163 297 L165 300 L165 302 L160 306 L157 306 L156 303 L152 302 L152 297 Z M251 294 L254 293 L255 296 L252 297 Z M354 292 L362 297 L362 300 L359 301 L360 304 L359 309 L355 307 L356 298 L353 295 Z M332 293 L335 292 L337 295 L333 296 Z M272 293 L274 292 L275 294 L273 295 Z M180 292 L181 294 L177 296 L176 294 Z M346 291 L347 294 L343 297 L341 293 L343 291 Z M168 291 L172 293 L172 295 L169 298 L165 295 Z M394 296 L393 298 L389 300 L385 300 L384 298 L380 300 L375 300 L370 297 L370 293 L373 292 L379 295 L384 290 L386 292 L385 296 L389 295 Z M322 291 L325 290 L326 292 L323 293 Z M240 290 L241 292 L238 294 L237 292 Z M187 290 L190 291 L189 295 L185 293 Z M294 290 L296 289 L297 291 L295 292 Z M276 302 L282 296 L282 292 L280 291 L281 289 L284 289 L293 298 L291 301 L285 300 L284 302 L279 303 Z M254 290 L257 289 L259 292 L255 293 Z M163 288 L164 289 L163 292 L159 294 L158 292 Z M374 291 L376 287 L380 289 L377 292 Z M125 293 L127 292 L130 294 L130 290 L136 287 L141 288 L142 290 L146 289 L151 291 L151 294 L149 296 L146 297 L145 294 L143 294 L142 298 L138 300 L136 299 L138 292 L134 292 L134 296 L130 301 L127 299 L127 296 Z M348 286 L351 288 L349 292 L347 291 Z M336 289 L337 286 L341 287 L339 291 Z M307 287 L309 286 L310 288 L308 289 Z M173 286 L176 287 L175 291 L171 289 Z M360 285 L365 288 L365 291 L368 294 L367 297 L363 295 L363 292 L359 292 L357 290 Z M317 286 L320 285 L321 287 L318 288 Z M189 286 L193 285 L194 287 L190 288 Z M149 287 L154 284 L157 287 L157 289 L154 290 L150 289 Z M366 284 L369 283 L371 287 L370 288 L367 287 Z M230 284 L233 283 L234 286 L231 287 Z M196 286 L197 283 L201 284 L199 287 Z M350 282 L355 281 L356 284 L352 285 Z M286 283 L295 281 L296 286 L290 289 L286 285 Z M220 281 L224 282 L225 285 L231 287 L229 297 L232 297 L233 299 L236 300 L235 303 L231 301 L225 301 L225 303 L228 303 L231 306 L229 310 L226 310 L218 305 L219 303 L221 303 L221 300 L219 297 L226 295 L226 292 L221 288 L222 285 L219 283 Z M148 281 L149 284 L145 286 L144 283 Z M332 283 L333 281 L336 280 L339 281 L338 283 L335 284 Z M311 280 L314 283 L313 285 L309 283 Z M158 283 L159 280 L164 281 L162 284 Z M212 280 L214 279 L215 281 L213 282 Z M325 279 L326 278 L329 279 L330 282 L327 283 Z M202 279 L205 278 L206 280 L203 281 Z M174 280 L178 278 L179 281 L181 281 L182 283 L181 284 L175 283 Z M133 279 L136 278 L140 282 L139 283 L135 282 Z M312 278 L316 277 L318 280 L316 281 L313 280 Z M184 278 L188 277 L189 281 L185 283 Z M358 277 L360 276 L363 281 L361 282 L358 279 Z M198 276 L199 279 L196 281 L195 279 Z M132 283 L131 287 L127 287 L126 285 L120 285 L119 288 L115 288 L108 285 L108 282 L110 280 L113 280 L116 278 L121 280 L121 277 L123 275 L125 276 L126 281 L130 280 Z M373 281 L374 280 L377 281 L377 279 L379 278 L390 282 L390 280 L382 277 L384 274 L386 274 L388 276 L393 277 L395 279 L395 283 L398 283 L400 280 L407 281 L408 283 L404 286 L395 288 L394 285 L389 285 L388 287 L382 287 L381 283 L375 284 Z M329 275 L333 274 L336 278 L335 279 L330 278 Z M234 274 L236 273 L237 275 L235 276 Z M164 274 L169 273 L170 277 L165 278 Z M129 273 L133 277 L132 280 L128 277 Z M399 273 L401 272 L402 275 L400 276 Z M362 273 L364 272 L365 274 L363 275 Z M189 276 L191 272 L195 273 L193 277 Z M179 275 L181 272 L186 274 L185 277 L180 277 Z M339 272 L340 271 L343 272 L344 276 L340 277 Z M239 272 L241 271 L242 273 L240 274 Z M143 272 L151 271 L152 273 L148 277 L146 277 Z M317 271 L320 270 L322 274 L319 276 Z M135 270 L138 269 L139 271 L136 272 Z M346 269 L348 268 L355 274 L349 277 Z M337 268 L339 271 L335 274 L334 272 L335 269 Z M253 268 L255 271 L258 271 L260 274 L257 277 L252 275 L251 278 L253 282 L247 284 L246 280 L248 279 L248 277 L245 277 L244 274 L246 273 L247 269 Z M180 268 L181 269 L180 272 L175 276 L171 273 L172 271 L177 271 L177 269 Z M391 274 L393 272 L392 269 L393 267 L399 268 L401 270 L396 275 Z M186 268 L188 267 L189 269 L187 270 Z M166 270 L167 267 L171 268 L168 271 Z M405 272 L405 269 L409 268 L410 266 L420 268 L418 271 L410 275 L408 275 Z M381 267 L383 266 L384 268 L382 269 Z M269 266 L271 268 L271 275 L264 277 L264 279 L267 281 L266 284 L261 283 L259 279 L264 274 L263 270 L265 267 Z M126 268 L125 272 L121 270 L120 275 L117 275 L115 272 L112 271 L114 268 L124 266 Z M328 265 L330 264 L331 266 L329 267 Z M242 265 L244 264 L247 267 L247 269 L245 270 L242 267 Z M181 267 L182 264 L185 265 L183 268 Z M398 264 L403 263 L404 266 L399 267 Z M339 264 L341 263 L343 267 L341 268 Z M115 264 L114 267 L111 266 L107 267 L109 272 L105 275 L100 274 L93 269 L94 267 L104 266 L110 263 Z M172 263 L175 262 L176 265 L173 266 Z M132 262 L133 266 L129 269 L127 264 Z M88 263 L91 262 L92 264 L89 265 Z M423 262 L427 261 L428 263 L424 264 Z M162 262 L164 261 L166 265 L164 266 Z M368 264 L367 266 L364 265 L364 267 L360 269 L353 267 L354 264 L361 265 L360 262 L361 260 L363 260 Z M122 262 L123 259 L126 260 L124 263 Z M188 258 L190 259 L189 263 L186 261 Z M169 259 L171 258 L172 261 L170 262 Z M387 257 L389 258 L388 261 L385 260 Z M343 257 L345 257 L348 260 L347 265 L345 265 L341 260 Z M367 257 L369 256 L370 258 L368 259 Z M326 257 L329 256 L330 259 L327 260 Z M277 257 L280 256 L281 260 L284 263 L280 264 Z M247 257 L249 256 L250 258 L248 259 Z M231 256 L234 255 L235 259 L233 260 Z M406 254 L412 256 L409 262 L404 260 Z M160 254 L162 258 L152 263 L152 265 L154 265 L155 268 L154 269 L150 268 L149 261 L153 259 L155 256 L157 256 L158 254 Z M348 255 L352 253 L357 258 L353 260 Z M150 252 L151 257 L146 259 L144 254 Z M428 252 L430 251 L431 253 L429 254 Z M424 251 L425 254 L422 255 L422 259 L419 261 L416 261 L415 259 L420 254 L420 252 Z M400 252 L400 255 L396 258 L389 254 L390 252 L396 254 L397 251 Z M373 257 L376 251 L379 251 L382 253 L377 258 Z M154 252 L157 251 L158 253 L155 254 Z M131 253 L134 251 L137 251 L138 255 L140 255 L141 258 L138 259 L133 256 Z M355 252 L361 250 L364 253 L360 255 L356 254 Z M84 253 L85 252 L95 253 L95 250 L99 249 L102 252 L102 254 L107 254 L108 256 L116 255 L122 253 L123 255 L112 261 L108 261 L106 258 L104 258 L103 261 L95 261 L91 259 L90 255 L86 257 Z M410 247 L414 249 L414 252 L412 254 L408 251 Z M365 248 L367 247 L368 249 L366 250 Z M103 248 L106 247 L107 251 L104 252 Z M428 247 L430 246 L431 248 L429 249 Z M252 250 L252 248 L255 246 L259 247 L258 250 L254 251 Z M225 246 L227 245 L228 247 L226 248 Z M151 244 L152 247 L146 250 L145 248 Z M128 245 L130 244 L131 247 L129 248 Z M390 244 L389 247 L385 248 L381 247 L382 244 L388 243 Z M371 244 L374 242 L376 243 L375 246 L372 246 Z M212 242 L215 243 L213 245 L213 248 L216 249 L214 255 L220 255 L221 258 L224 259 L224 261 L231 260 L233 261 L233 263 L230 264 L232 269 L229 270 L229 273 L232 274 L231 277 L226 277 L225 279 L217 277 L212 273 L213 268 L207 267 L205 262 L203 261 L201 254 L203 253 L203 249 L205 247 L209 247 Z M300 241 L305 247 L305 249 L312 250 L311 257 L308 260 L307 265 L304 268 L301 268 L301 272 L297 276 L289 275 L290 277 L289 279 L287 279 L286 277 L283 277 L281 279 L280 276 L285 271 L283 264 L287 263 L289 258 L292 258 L292 254 L294 253 L297 247 L297 242 Z M284 241 L287 242 L288 245 L287 248 L285 247 L283 243 Z M140 241 L141 242 L140 246 L137 247 L136 243 Z M405 241 L407 240 L408 242 L406 243 Z M267 240 L269 239 L270 241 L268 242 Z M192 239 L193 240 L192 243 L193 251 L191 254 L189 254 L188 252 L190 251 L190 247 L185 248 L184 245 L187 244 Z M400 239 L403 238 L405 241 L403 242 Z M305 239 L307 238 L309 242 L313 241 L314 244 L312 246 L308 246 L306 244 Z M203 238 L208 239 L205 246 L199 244 L199 242 L202 241 Z M108 241 L111 238 L113 239 L110 242 Z M237 238 L239 237 L243 241 L239 242 Z M409 237 L412 236 L414 239 L411 240 Z M379 237 L380 236 L389 238 L390 240 L388 242 L383 242 L379 240 Z M133 237 L133 240 L130 242 L125 242 L123 240 L124 238 L131 236 Z M98 239 L99 236 L104 237 L102 240 Z M347 234 L352 233 L354 237 L350 239 L347 236 Z M218 234 L220 233 L221 235 L219 236 Z M389 232 L393 231 L394 234 L390 235 Z M367 231 L368 233 L367 236 L365 237 L363 234 Z M329 232 L334 231 L335 233 L330 234 Z M118 232 L122 231 L123 234 L119 235 Z M74 233 L85 231 L86 232 L85 237 L93 237 L94 240 L98 241 L100 244 L91 245 L90 242 L85 240 L78 241 L73 237 Z M378 231 L380 230 L383 233 L381 234 Z M130 233 L133 230 L135 231 L132 234 Z M89 231 L96 230 L97 234 L90 235 Z M415 233 L417 229 L437 232 L440 237 L434 242 L428 244 L423 242 L422 245 L417 245 L416 244 L417 237 L430 238 L430 235 L416 235 Z M267 229 L268 232 L264 234 L263 232 Z M245 230 L247 229 L250 233 L249 234 L246 233 Z M402 228 L404 227 L405 229 L403 230 Z M374 227 L375 229 L372 231 L371 229 Z M311 227 L315 227 L316 230 L318 231 L318 234 L320 234 L321 232 L326 232 L328 234 L328 240 L325 241 L328 244 L328 247 L324 248 L325 252 L323 254 L318 249 L322 244 L323 237 L321 237 L318 240 L313 235 L310 236 L309 234 L312 232 L310 229 Z M318 227 L320 226 L322 229 L319 230 Z M110 226 L112 226 L114 230 L116 231 L115 234 L108 229 Z M393 228 L394 225 L399 226 L396 229 Z M272 230 L273 226 L275 225 L279 226 L278 229 L274 231 Z M192 225 L202 228 L200 231 L200 235 L195 239 L193 238 L193 236 L195 235 L196 230 L193 230 L192 235 L188 237 L185 236 L187 230 L191 229 Z M114 226 L118 225 L119 227 L115 228 Z M446 225 L448 224 L449 226 L447 227 Z M416 225 L418 224 L419 226 L417 227 Z M232 225 L233 224 L237 225 L240 227 L240 229 L237 230 Z M94 225 L96 224 L97 226 L95 227 Z M385 223 L387 222 L389 226 L387 227 Z M332 223 L334 222 L335 224 L333 225 Z M200 223 L202 221 L205 222 L204 225 L201 225 Z M381 220 L382 223 L379 225 L378 222 Z M291 221 L293 220 L294 222 L292 223 Z M88 221 L92 220 L93 222 L89 223 Z M435 226 L430 227 L427 223 L424 223 L423 221 L434 219 Z M336 220 L338 219 L339 221 L337 222 Z M237 220 L239 218 L243 218 L245 222 L243 224 L238 224 Z M193 219 L195 218 L196 221 L194 222 Z M173 221 L174 218 L177 219 L175 222 Z M399 218 L404 217 L405 221 L400 222 Z M316 218 L318 217 L321 220 L318 222 Z M391 216 L395 218 L394 223 L388 220 Z M122 216 L125 220 L119 223 L118 220 Z M105 217 L106 216 L113 217 L114 219 L111 222 L109 222 Z M76 213 L79 212 L80 216 L77 217 Z M64 215 L71 212 L79 224 L83 220 L85 220 L86 226 L85 227 L76 226 L65 219 Z M434 213 L436 211 L438 212 L448 211 L451 215 L448 219 L444 217 L445 221 L441 223 L438 221 L440 217 L439 216 L435 217 Z M411 212 L413 211 L414 213 L412 214 Z M308 212 L310 211 L312 215 L309 216 Z M280 211 L283 215 L281 218 L279 218 L279 221 L275 224 L272 224 L271 226 L268 226 L267 223 L269 219 L274 218 L273 213 Z M265 211 L267 219 L263 221 L262 229 L260 230 L259 227 L251 228 L250 226 L252 222 L250 219 L251 218 L258 219 L259 215 Z M246 211 L252 214 L249 220 L245 218 Z M236 211 L237 214 L231 218 L230 214 L233 211 Z M203 211 L205 212 L204 216 L202 215 Z M99 215 L100 211 L105 212 L102 217 Z M394 211 L395 210 L403 211 L405 214 L396 215 Z M317 211 L319 210 L320 212 L318 213 Z M112 214 L114 210 L118 210 L120 212 L119 214 L115 215 Z M80 208 L84 207 L85 209 L81 210 Z M301 207 L303 206 L304 208 L302 209 Z M263 205 L264 207 L260 210 L259 208 Z M439 205 L438 209 L433 210 L428 209 L429 207 L433 207 L437 204 Z M421 204 L424 203 L425 205 L422 206 Z M392 204 L394 203 L395 205 L393 206 Z M239 203 L241 204 L240 209 L238 208 Z M107 204 L109 203 L110 205 L108 206 Z M404 204 L410 202 L411 207 L406 208 Z M101 206 L102 202 L106 203 L104 207 Z M57 203 L59 202 L61 205 L59 206 Z M74 207 L74 204 L77 201 L84 203 L83 205 L80 205 L79 209 L76 209 Z M280 200 L282 201 L283 204 L282 206 L279 203 Z M231 201 L233 200 L234 202 L232 203 Z M442 199 L444 199 L446 202 L445 206 L440 204 L440 201 Z M416 199 L418 200 L417 205 L414 204 Z M261 200 L263 199 L264 201 L262 202 Z M67 201 L69 199 L73 200 L74 204 L68 206 Z M105 198 L109 197 L110 199 L106 200 Z M416 197 L415 199 L412 200 L405 199 L406 197 L413 196 Z M97 197 L100 196 L101 198 L98 199 Z M418 196 L422 195 L423 197 L419 198 Z M90 196 L92 195 L93 197 L91 198 Z M440 192 L442 193 L441 197 L439 196 Z M404 193 L408 192 L409 194 L405 195 Z M389 193 L391 192 L392 194 L390 195 Z M104 193 L108 192 L109 194 L105 195 Z M73 192 L75 193 L74 197 L72 196 Z M59 189 L68 191 L68 194 L66 195 L66 199 L63 201 L61 200 L62 197 L60 195 L58 196 L56 195 Z M455 188 L457 195 L450 201 L448 199 L449 194 L445 193 L444 191 Z M77 189 L80 188 L81 190 L78 191 Z M432 190 L435 187 L438 188 L436 191 Z M419 186 L420 191 L416 193 L413 189 Z M396 187 L398 186 L399 188 L397 189 Z M309 187 L311 186 L312 188 L310 189 Z M95 186 L99 188 L100 192 L99 194 L94 191 Z M271 191 L274 185 L280 186 L280 188 L277 189 L276 191 L274 192 Z M233 186 L239 185 L241 187 L241 191 L239 192 L237 189 L234 189 Z M67 185 L71 184 L73 187 L70 188 Z M132 183 L135 184 L136 190 L138 189 L137 184 L139 183 L156 200 L157 204 L155 206 L159 209 L159 216 L161 216 L163 208 L171 210 L172 217 L170 220 L168 220 L168 224 L166 226 L163 226 L165 233 L160 238 L157 236 L159 232 L155 232 L153 226 L148 228 L142 225 L136 220 L136 217 L132 216 L125 207 L124 203 L127 201 L127 199 L122 199 L121 197 L123 193 L127 194 L128 189 L130 188 L130 185 Z M412 183 L415 182 L416 184 L413 185 Z M380 183 L383 185 L383 192 L388 194 L391 199 L388 207 L381 216 L369 226 L365 228 L361 228 L360 226 L358 226 L358 234 L352 232 L350 226 L346 226 L343 224 L341 217 L342 213 L345 212 L346 208 L349 208 L351 212 L346 214 L346 217 L348 217 L349 215 L354 216 L353 210 L355 207 L357 207 L357 205 L355 204 L356 201 L370 187 L375 188 L375 182 Z M441 180 L446 183 L446 186 L443 188 L440 187 L439 182 Z M416 181 L418 180 L419 183 L417 184 Z M263 184 L264 179 L267 179 L269 181 L267 184 L265 185 Z M92 180 L94 179 L96 181 L101 182 L102 184 L98 185 L94 183 Z M426 178 L428 177 L429 180 L427 181 Z M284 180 L288 177 L289 180 L294 179 L295 181 L293 185 L290 184 L287 186 Z M227 177 L228 180 L224 184 L220 185 L218 183 L219 179 L222 179 L223 177 Z M84 178 L86 177 L88 180 L86 181 Z M446 177 L447 176 L452 177 L453 181 L451 183 L447 182 Z M261 176 L263 180 L260 181 L260 184 L263 185 L264 190 L260 191 L260 194 L254 198 L252 196 L254 193 L254 190 L251 190 L248 184 L246 184 L246 186 L244 187 L243 182 L245 180 L249 180 L250 178 L256 180 Z M392 175 L395 176 L394 180 L390 178 Z M118 176 L121 175 L124 178 L119 180 Z M414 174 L416 178 L411 180 L410 178 Z M417 173 L421 172 L422 175 L419 177 Z M91 171 L93 172 L92 175 L89 174 Z M66 174 L68 170 L74 171 L73 173 L71 173 L70 176 Z M439 171 L444 169 L447 171 L447 173 L445 176 L443 176 L442 173 L440 173 Z M303 169 L305 168 L307 172 L305 173 Z M252 169 L253 168 L260 169 L261 171 L258 172 L257 176 L255 176 L254 173 L252 172 Z M234 169 L238 168 L239 170 L235 171 Z M220 169 L222 168 L223 170 L221 171 Z M207 169 L209 168 L210 170 L208 171 Z M290 168 L292 167 L293 170 L291 171 Z M438 167 L437 170 L434 171 L431 170 L432 168 L436 166 Z M448 166 L455 165 L461 169 L459 175 L456 178 L454 177 L452 172 L449 171 L447 168 Z M280 166 L282 165 L284 168 L282 169 Z M231 165 L232 167 L229 169 L228 167 Z M96 166 L95 168 L91 170 L84 169 L85 166 L88 167 L92 165 Z M439 165 L441 164 L442 166 L440 167 Z M417 167 L423 164 L427 165 L429 168 L426 171 L419 170 Z M71 165 L73 164 L74 166 L72 167 Z M231 164 L234 163 L235 165 L232 166 Z M458 163 L462 162 L463 164 L459 165 Z M308 162 L310 161 L311 163 L309 164 Z M107 162 L113 161 L116 162 L117 165 L108 166 Z M51 161 L56 164 L66 167 L63 173 L63 175 L67 178 L66 182 L64 183 L61 182 L54 175 L52 171 L54 167 L50 166 Z M426 162 L428 160 L431 161 L430 164 L427 164 Z M81 160 L82 159 L85 160 L86 163 L83 164 Z M94 159 L96 158 L98 162 L95 163 Z M66 159 L73 158 L77 162 L67 163 Z M421 157 L422 161 L418 163 L417 159 Z M410 157 L408 163 L405 166 L396 165 L396 163 L399 162 L405 156 Z M378 157 L380 156 L381 158 L379 159 Z M273 157 L276 156 L277 158 L274 159 Z M103 156 L108 155 L109 158 L104 159 Z M312 155 L314 154 L315 156 L313 157 Z M286 153 L288 152 L291 156 L287 157 Z M429 151 L430 153 L425 158 L424 155 L427 151 Z M193 152 L195 151 L196 153 L194 154 Z M463 150 L464 153 L459 158 L458 156 Z M49 151 L51 150 L53 154 L51 155 Z M455 151 L456 155 L447 164 L441 163 L438 161 L442 157 L447 158 L446 154 L449 152 L450 149 Z M423 149 L424 151 L421 154 L419 154 L418 152 Z M387 149 L390 150 L394 149 L397 152 L394 162 L388 161 L388 158 L386 155 Z M246 150 L248 149 L249 151 L247 152 Z M83 151 L88 149 L93 150 L95 153 L94 154 L89 153 L90 157 L88 158 L83 153 Z M61 149 L66 153 L66 157 L62 159 L58 156 L59 151 Z M441 149 L438 153 L436 154 L433 153 L435 150 L439 148 Z M234 148 L235 151 L230 153 L229 150 L231 148 Z M103 149 L105 148 L106 151 L104 152 Z M72 149 L74 148 L78 150 L79 153 L77 154 Z M408 147 L410 148 L411 151 L410 153 L407 152 Z M274 150 L277 147 L282 148 L284 152 L276 153 Z M204 148 L207 147 L209 152 L207 153 Z M308 146 L309 149 L305 153 L304 147 Z M270 146 L273 147 L272 154 L268 154 L266 152 Z M242 146 L243 148 L241 152 L237 153 L236 151 Z M373 145 L376 147 L374 152 L372 151 Z M400 145 L402 144 L405 147 L405 149 L403 150 L400 147 Z M446 143 L449 149 L444 152 L441 147 Z M427 145 L430 143 L433 144 L431 148 L429 148 Z M113 143 L114 144 L113 147 L109 149 L108 148 L109 145 Z M81 144 L84 143 L85 145 L82 146 Z M64 144 L68 143 L72 148 L68 151 L63 146 Z M388 142 L389 144 L387 148 L381 150 L380 149 L381 144 Z M141 144 L140 152 L138 151 L137 148 L130 149 L127 151 L128 159 L126 163 L117 162 L115 160 L116 152 L120 151 L119 149 L120 147 L126 147 L128 142 L134 145 L138 145 L139 143 Z M440 141 L441 143 L436 146 L435 144 L438 141 Z M422 141 L424 144 L418 148 L417 146 Z M405 141 L410 140 L411 142 L406 143 Z M101 141 L107 140 L108 142 L106 144 L103 144 Z M226 140 L228 139 L229 141 L227 142 Z M114 140 L116 139 L117 141 L115 142 Z M440 139 L442 138 L443 140 L441 141 Z M366 139 L368 138 L369 141 L367 142 Z M144 139 L146 138 L147 141 L145 142 Z M87 139 L89 138 L90 140 L88 141 Z M70 139 L72 138 L77 144 L76 145 L73 144 L70 141 Z M239 138 L241 137 L242 139 L240 140 Z M294 137 L296 136 L297 138 L295 139 Z M75 137 L77 136 L78 138 L76 139 Z M457 135 L462 138 L462 140 L459 141 L461 145 L458 150 L456 150 L455 147 L450 142 Z M419 136 L421 135 L422 137 L420 138 Z M56 135 L62 140 L62 142 L59 143 L54 148 L52 145 L51 138 Z M439 134 L440 136 L436 139 L435 137 Z M429 133 L430 136 L428 139 L426 139 L425 135 Z M253 134 L256 131 L259 133 L260 136 L254 137 Z M99 132 L102 131 L103 134 L100 135 Z M414 130 L415 132 L411 136 L410 132 Z M82 131 L83 130 L89 131 L92 135 L91 136 L84 135 Z M262 130 L264 129 L265 131 L263 132 Z M359 128 L361 127 L362 130 L360 131 Z M429 126 L431 127 L430 130 L427 129 Z M54 127 L56 126 L57 128 L55 129 Z M439 125 L441 124 L442 127 L440 128 Z M238 125 L240 124 L241 126 L239 127 Z M108 124 L110 125 L108 130 L112 131 L112 135 L110 137 L106 136 L104 126 Z M97 124 L99 125 L98 128 L95 127 Z M71 125 L73 124 L74 127 L72 128 Z M415 124 L417 123 L418 125 L416 126 Z M404 123 L409 125 L409 131 L406 137 L403 137 L401 135 L402 127 Z M458 123 L460 122 L461 124 L459 125 Z M434 122 L436 121 L437 123 L435 124 Z M424 121 L426 120 L427 122 L425 123 Z M75 121 L77 120 L80 125 L77 126 Z M64 120 L67 123 L65 125 L65 129 L69 127 L71 128 L71 131 L68 133 L67 136 L63 133 L59 126 L60 122 Z M91 120 L93 119 L94 121 L92 122 Z M422 117 L423 119 L420 122 L419 120 Z M103 119 L106 117 L108 118 L107 121 L104 121 Z M407 116 L411 117 L409 121 L405 119 Z M86 115 L88 116 L87 120 L85 119 Z M440 113 L444 115 L445 120 L443 124 L441 123 L439 118 Z M95 114 L97 113 L99 116 L97 117 Z M72 113 L74 117 L69 122 L67 118 L69 117 L69 114 Z M417 111 L418 115 L415 117 L414 115 L415 112 Z M436 110 L439 113 L434 118 L433 117 L434 111 Z M101 111 L104 110 L105 113 L102 114 Z M78 109 L79 111 L76 114 L75 111 Z M409 109 L411 108 L412 111 L410 112 Z M433 105 L434 108 L431 110 L430 108 Z M456 103 L457 106 L455 107 L455 109 L457 110 L457 119 L449 135 L446 136 L445 133 L442 131 L442 128 L443 127 L447 128 L446 123 L449 120 L451 120 L450 117 L451 110 L447 110 L446 107 L448 105 L451 106 L453 103 Z M255 104 L257 103 L259 106 L256 107 Z M57 103 L64 103 L67 107 L66 109 L62 110 L64 117 L62 118 L61 121 L58 121 L56 118 L56 104 Z M436 100 L437 102 L434 105 L433 103 Z M86 100 L88 99 L89 101 L87 102 Z M245 100 L247 97 L251 98 L249 101 Z M76 97 L79 99 L80 104 L82 105 L81 107 L78 106 L75 99 Z M443 96 L444 97 L443 103 L440 104 L439 103 L440 99 Z M70 96 L73 99 L74 102 L73 104 L70 102 L69 99 Z M451 96 L454 95 L456 100 L451 101 L450 100 Z M58 96 L61 95 L62 99 L59 100 Z M410 94 L412 93 L413 95 L411 96 Z M442 93 L444 92 L445 94 L443 95 Z M430 96 L431 92 L435 93 L433 97 Z M79 93 L82 92 L83 95 L80 96 Z M414 90 L416 89 L417 91 L415 92 Z M96 90 L98 89 L99 91 L97 92 Z M91 87 L94 88 L93 93 L90 92 Z M420 86 L423 87 L422 93 L419 92 Z M256 86 L258 87 L257 90 L254 89 Z M79 87 L82 86 L83 89 L80 90 Z M426 82 L428 83 L427 87 L425 86 Z M98 83 L100 82 L101 85 L99 86 Z M85 83 L87 82 L88 85 L86 86 Z M412 82 L414 81 L415 84 L413 85 Z M432 76 L434 77 L435 80 L434 88 L430 87 L429 80 L431 79 Z M80 76 L83 78 L81 82 L78 80 Z M442 75 L444 76 L445 81 L444 83 L440 81 Z M423 74 L425 73 L426 76 L424 77 Z M428 71 L430 70 L431 72 L429 73 Z M103 71 L105 70 L106 72 L104 73 Z M100 70 L104 74 L96 82 L92 81 L91 79 L94 71 Z M410 62 L415 63 L415 68 L419 73 L418 77 L422 79 L421 81 L417 83 L415 82 L414 74 L407 70 L407 66 L409 65 Z M92 60 L94 70 L92 71 L90 75 L85 75 L83 69 L85 68 L86 70 L88 70 L88 61 Z M407 60 L409 59 L410 62 L408 63 Z M107 56 L110 58 L109 64 L104 70 L102 70 L101 68 L98 67 L99 62 L105 56 Z M402 55 L403 54 L406 55 L407 59 L404 60 Z M415 47 L421 52 L425 60 L424 69 L422 69 L421 66 L417 63 L416 58 L418 56 L412 53 Z M405 48 L406 47 L409 48 L410 51 L407 52 Z M397 43 L402 45 L401 48 L399 49 L396 46 Z M116 46 L116 48 L112 51 L107 51 L99 55 L96 60 L92 59 L91 54 L99 46 L104 44 L106 49 L107 45 L110 43 Z M253 42 L255 40 L259 40 L260 45 L254 46 Z M392 33 L394 32 L395 34 L393 35 Z M256 32 L259 35 L258 38 L255 37 Z M121 31 L122 32 L121 36 L115 41 L114 39 Z"/></svg>
