<svg xmlns="http://www.w3.org/2000/svg" width="512" height="512" viewBox="0 0 512 512" aria-hidden="true" focusable="false"><path fill="currentColor" fill-rule="evenodd" clip-rule="evenodd" d="M361 455 L361 457 L366 462 L368 462 L368 460 L363 455 Z M368 350 L369 354 L371 354 L370 350 Z M241 289 L241 291 L254 295 L261 295 L271 292 L271 290 L269 290 L266 292 L257 293 L248 292 Z M244 280 L244 282 L253 285 L262 285 L268 283 L268 281 L254 283 Z M244 248 L245 251 L248 251 L250 253 L252 260 L255 259 L262 260 L263 255 L260 255 L259 253 L264 252 L266 254 L266 252 L270 250 L270 247 L265 248 L262 246 L259 247 L253 246 L250 248 L246 247 Z M251 253 L255 252 L256 254 L252 255 Z M247 234 L248 240 L256 243 L259 243 L267 239 L267 233 L265 234 L264 238 L261 238 L259 240 L250 238 L248 236 L250 233 L249 232 Z M260 215 L260 219 L261 219 L261 215 Z M292 211 L286 211 L281 214 L267 214 L265 217 L280 219 Z M222 211 L234 219 L241 219 L245 217 L249 217 L247 214 L233 214 L228 211 Z M272 203 L272 204 L275 203 L285 204 L282 202 Z M293 200 L284 195 L272 196 L263 203 L261 212 L262 212 L264 205 L270 200 L286 199 L292 202 Z M223 199 L224 201 L227 199 L240 199 L243 201 L242 203 L240 202 L233 202 L233 203 L243 204 L243 202 L246 201 L251 206 L253 212 L253 234 L254 234 L254 210 L250 201 L245 197 L239 195 L231 195 Z M258 187 L254 191 L254 196 L256 198 L260 197 L261 192 Z M257 191 L259 192 L258 195 L255 194 Z M256 17 L252 27 L192 81 L176 114 L166 110 L163 125 L141 158 L137 181 L128 179 L130 191 L118 224 L119 250 L110 250 L113 277 L126 300 L147 309 L109 398 L115 413 L106 436 L107 471 L117 478 L124 470 L134 428 L123 464 L114 475 L108 461 L108 443 L113 423 L124 407 L121 398 L155 390 L157 398 L149 397 L155 402 L130 408 L145 407 L126 418 L114 436 L115 443 L123 425 L139 416 L138 469 L130 490 L144 471 L155 428 L153 469 L146 484 L133 495 L152 493 L166 485 L187 496 L212 495 L233 485 L260 495 L290 495 L311 489 L329 493 L342 486 L361 495 L349 487 L334 460 L325 453 L333 450 L346 457 L367 488 L383 494 L363 480 L354 459 L336 446 L364 434 L388 438 L377 431 L352 433 L370 417 L342 435 L354 411 L355 391 L362 388 L370 400 L391 399 L405 444 L404 468 L391 477 L369 466 L386 479 L401 479 L391 487 L375 482 L382 488 L395 489 L404 481 L407 437 L399 411 L405 396 L381 333 L367 309 L387 301 L397 290 L402 274 L401 256 L405 250 L395 251 L397 226 L385 192 L386 178 L378 180 L371 152 L351 124 L349 110 L340 115 L320 78 L273 38 Z M338 479 L340 478 L342 482 L339 483 Z M335 471 L337 472 L336 480 L334 479 Z M238 470 L241 469 L246 475 L244 476 L240 474 Z M330 468 L332 469 L333 479 L331 483 L329 482 L329 469 Z M260 469 L267 468 L268 470 L266 472 L263 472 Z M246 469 L248 468 L251 470 L253 474 L251 475 Z M229 466 L233 474 L230 476 L229 481 L225 481 L221 478 L221 474 Z M226 485 L225 487 L219 490 L209 493 L187 494 L173 488 L171 486 L170 481 L173 478 L175 478 L175 475 L180 467 L195 471 L204 469 L215 464 L216 465 L215 475 L205 481 L199 483 L185 483 L178 479 L177 481 L187 486 L199 486 L211 482 L212 480 L218 479 L220 482 Z M328 474 L327 482 L325 484 L314 485 L287 493 L257 492 L248 488 L236 479 L237 477 L241 477 L248 482 L257 484 L259 487 L264 484 L274 484 L281 478 L291 476 L291 474 L270 474 L268 468 L283 465 L296 460 L307 460 L317 464 L321 462 L325 466 Z M262 456 L266 464 L259 466 L255 470 L250 465 Z M217 448 L217 451 L213 454 L213 456 L216 456 L217 458 L204 466 L197 468 L190 468 L185 466 L182 463 L185 454 L190 458 L199 459 L199 457 L191 456 L188 453 L189 451 L193 453 L201 453 L215 447 Z M261 446 L261 453 L247 464 L239 465 L232 464 L235 460 L249 452 L258 444 Z M337 439 L337 441 L327 448 L324 447 L326 444 L335 438 Z M188 436 L191 435 L192 438 L202 443 L210 443 L211 445 L201 450 L193 450 L187 446 Z M184 431 L185 439 L183 452 L176 469 L172 475 L162 485 L153 490 L146 491 L145 489 L151 483 L156 481 L153 479 L157 465 L161 462 L163 466 L167 461 L169 454 L172 452 L173 454 L171 460 L164 471 L164 473 L167 471 L172 463 L175 452 L178 451 L180 443 L180 436 L182 432 Z M340 427 L341 429 L339 432 L333 437 L331 437 L330 435 L338 427 Z M261 426 L262 431 L261 437 L259 440 L249 449 L231 460 L219 471 L218 470 L219 464 L226 452 L237 443 L246 439 Z M189 428 L192 424 L194 424 L206 432 L215 433 L225 431 L226 433 L220 439 L212 441 L205 441 L192 436 Z M158 421 L165 428 L178 433 L170 447 L160 458 L158 457 L159 453 L158 428 L157 427 Z M296 416 L297 418 L294 420 L293 418 Z M150 408 L151 410 L155 411 L155 414 L151 423 L144 465 L142 466 L141 465 L142 459 L141 424 L145 413 Z M243 408 L240 416 L233 425 L220 430 L208 430 L200 426 L194 420 L195 415 L205 419 L214 419 L228 415 L241 407 Z M395 396 L400 396 L402 399 L401 405 L399 407 L396 405 L396 401 L394 399 Z M159 395 L161 394 L162 396 L160 397 Z M350 393 L351 402 L347 403 L345 399 L346 396 Z M234 394 L236 393 L239 395 L242 395 L246 397 L247 399 L242 400 L236 397 Z M123 391 L124 393 L119 399 L118 405 L115 406 L113 403 L113 396 L116 393 Z M365 388 L366 385 L371 386 L368 390 Z M270 384 L272 386 L272 395 L270 399 L267 400 L253 414 L253 416 L270 401 L271 405 L268 413 L266 415 L263 414 L254 421 L249 423 L250 425 L257 421 L259 422 L258 425 L250 433 L223 448 L222 447 L223 441 L228 436 L235 433 L243 427 L242 423 L244 420 L245 411 L250 400 Z M327 381 L329 385 L330 416 L328 429 L324 442 L321 448 L311 458 L303 456 L311 446 L315 437 L318 434 L327 406 L325 406 L323 416 L321 418 L320 423 L312 439 L303 451 L297 455 L296 453 L298 448 L298 438 L301 437 L301 435 L304 434 L308 430 L314 421 L322 401 L325 388 L325 382 Z M158 381 L160 382 L159 389 L155 386 L155 384 Z M280 379 L281 401 L284 402 L284 406 L282 408 L285 409 L293 427 L295 444 L292 444 L292 435 L290 435 L290 445 L286 459 L282 462 L273 463 L268 453 L267 445 L263 445 L263 436 L267 423 L271 422 L274 416 L276 408 L274 401 L277 400 L277 396 L275 395 L275 386 L277 385 L276 380 Z M307 361 L308 370 L305 391 L299 406 L296 411 L291 415 L288 407 L297 393 L302 380 L305 362 Z M205 353 L210 354 L216 377 L223 388 L231 396 L242 402 L239 406 L227 412 L221 412 L215 407 L213 407 L220 413 L219 415 L215 416 L204 416 L198 414 L195 411 L202 402 L206 391 L207 377 L204 359 Z M173 352 L177 353 L178 362 L175 365 L172 364 L172 353 Z M188 349 L191 352 L192 358 L191 361 L187 360 L187 350 Z M304 348 L305 354 L300 379 L291 399 L288 401 L286 399 L287 380 L290 376 L294 376 L301 357 L302 349 Z M257 348 L260 351 L260 357 L258 359 L254 355 L255 350 Z M262 343 L264 342 L265 344 L263 345 Z M249 343 L251 342 L252 344 L250 345 Z M178 339 L177 348 L173 350 L172 349 L174 343 L173 341 L175 338 Z M188 336 L190 337 L189 347 L187 346 Z M170 335 L172 336 L172 340 L169 345 L170 353 L167 356 L170 360 L168 370 L182 364 L193 364 L193 374 L185 384 L184 396 L189 382 L193 378 L196 379 L195 372 L197 364 L195 355 L198 349 L200 350 L203 364 L204 384 L201 397 L198 403 L187 411 L188 415 L186 419 L180 422 L171 420 L165 412 L165 408 L169 406 L163 387 L163 358 L165 346 Z M306 334 L308 335 L308 346 L304 347 L303 346 L304 337 Z M254 335 L255 334 L258 335 L259 338 L257 339 Z M261 332 L263 331 L264 333 L262 334 Z M251 332 L253 331 L254 333 L252 334 Z M324 329 L330 332 L335 339 L336 350 L334 352 L331 352 L329 356 L327 355 L326 343 L323 333 Z M170 327 L172 326 L173 328 L171 329 Z M235 325 L237 324 L238 326 L236 327 Z M190 323 L191 333 L188 335 L187 334 L188 324 Z M176 323 L178 323 L180 326 L179 334 L177 336 L174 335 Z M272 322 L273 326 L268 330 L267 328 Z M256 321 L260 323 L260 327 L258 330 L253 327 Z M267 320 L269 319 L271 322 L269 323 Z M245 319 L247 320 L245 323 L247 327 L246 329 L241 325 L241 323 Z M218 318 L225 322 L225 333 L228 333 L231 327 L236 330 L235 342 L237 345 L242 343 L242 332 L249 334 L251 338 L247 345 L253 349 L253 358 L257 363 L262 357 L261 349 L267 345 L264 338 L266 334 L272 332 L272 342 L277 345 L279 343 L278 330 L283 327 L285 332 L289 333 L291 331 L290 322 L294 318 L297 319 L295 335 L286 357 L278 369 L268 372 L270 380 L259 389 L251 390 L240 385 L226 369 L218 344 Z M184 318 L186 321 L186 328 L184 333 L185 343 L182 349 L185 352 L184 355 L185 361 L180 363 L179 362 L179 342 L181 334 L181 323 L182 319 Z M238 318 L240 317 L241 319 L239 320 Z M310 316 L319 326 L324 349 L327 377 L324 378 L323 388 L316 411 L302 434 L299 435 L296 426 L305 404 L311 369 L311 337 L308 319 Z M224 317 L226 316 L229 319 L226 320 Z M290 314 L291 317 L287 320 L286 316 Z M302 313 L303 314 L302 342 L295 369 L293 373 L291 374 L289 371 L284 369 L284 366 L294 348 L300 327 L300 314 Z M256 314 L258 313 L259 315 L257 316 Z M207 313 L208 315 L206 322 L206 334 L205 335 L206 346 L204 347 L203 345 L199 345 L194 349 L193 348 L194 327 Z M292 309 L294 308 L295 311 L293 312 Z M219 309 L221 308 L222 310 L220 311 Z M213 303 L215 304 L214 310 L215 345 L220 364 L225 374 L231 382 L236 385 L238 388 L250 393 L249 395 L245 395 L237 391 L235 391 L235 393 L232 394 L223 384 L216 370 L211 349 L211 318 L210 315 Z M299 302 L301 301 L302 304 L300 305 Z M213 300 L215 299 L216 301 L214 302 Z M363 298 L365 297 L366 299 L364 300 Z M313 296 L315 297 L318 304 L323 306 L324 309 L327 308 L330 309 L336 328 L335 332 L328 328 L324 322 L321 323 L315 318 L315 314 L313 313 L313 310 L310 309 L309 305 L310 299 Z M202 296 L205 300 L205 307 L200 313 L200 316 L197 317 L196 321 L194 322 L191 319 L188 319 L184 313 L187 307 L191 309 L191 307 L194 306 L200 297 Z M354 294 L356 293 L357 295 L355 296 Z M156 293 L158 292 L159 294 L157 295 Z M144 292 L146 291 L147 293 L145 294 Z M359 291 L362 290 L363 292 L360 293 Z M302 290 L306 294 L307 298 L306 301 L303 298 L301 292 Z M212 290 L213 294 L211 301 L209 302 L208 297 L210 291 Z M307 290 L309 289 L310 291 L308 292 Z M204 289 L206 288 L208 292 L206 293 Z M334 287 L354 299 L368 315 L379 338 L388 369 L386 370 L375 358 L373 360 L393 381 L396 389 L390 391 L388 395 L373 398 L369 395 L374 384 L356 342 L354 344 L368 381 L356 384 L356 387 L350 390 L346 389 L347 344 L343 327 L345 371 L342 401 L350 411 L345 420 L331 429 L340 380 L333 407 L330 369 L339 349 L340 339 L331 308 L321 299 Z M182 287 L184 292 L194 299 L194 303 L190 303 L190 299 L187 300 L180 319 L173 319 L179 309 L173 314 L162 347 L159 373 L146 386 L122 388 L123 384 L141 373 L151 362 L149 360 L136 373 L125 380 L123 379 L139 362 L137 360 L129 368 L127 367 L144 319 L157 302 Z M138 287 L140 286 L143 290 L142 291 L139 290 Z M131 286 L135 285 L138 291 L147 296 L148 298 L146 299 L136 294 L132 290 Z M384 282 L385 285 L383 289 L377 295 L368 299 L367 297 L376 291 L373 288 L374 287 L378 288 L379 284 Z M300 281 L302 282 L301 286 L299 285 Z M214 281 L216 282 L215 286 L213 285 Z M146 275 L148 274 L149 276 L147 277 Z M294 274 L297 273 L298 275 L295 276 Z M366 273 L368 272 L369 274 L367 275 Z M388 271 L390 273 L389 277 L384 278 L383 276 Z M127 271 L131 275 L130 278 L127 278 L125 276 L125 273 Z M151 269 L154 270 L154 275 L156 279 L155 281 L152 278 L150 271 Z M363 266 L364 274 L362 279 L360 280 L359 279 L361 267 Z M230 267 L233 266 L251 276 L264 276 L283 266 L285 276 L292 284 L294 290 L289 304 L280 313 L272 316 L264 316 L259 311 L255 311 L250 317 L237 314 L229 308 L221 293 L222 286 L230 274 Z M397 257 L399 274 L397 283 L393 291 L381 302 L374 305 L365 306 L363 304 L364 301 L371 301 L381 295 L386 289 L387 281 L393 275 L392 267 L395 258 Z M117 256 L119 257 L123 268 L122 276 L128 281 L128 287 L130 291 L141 300 L151 301 L152 303 L149 306 L140 305 L132 301 L121 290 L116 276 L116 257 Z M378 256 L380 255 L381 257 L379 258 Z M133 253 L135 252 L136 255 L134 256 Z M307 251 L311 252 L314 271 L313 276 L307 274 L304 268 L304 264 L307 260 L306 255 Z M355 244 L361 248 L363 251 L363 256 L368 257 L370 262 L369 272 L367 271 L366 265 L362 260 L354 261 L353 263 L354 265 L356 264 L359 265 L359 267 L356 270 L353 270 L349 266 L348 261 L354 249 Z M207 244 L209 246 L208 261 L210 264 L210 270 L207 274 L201 277 L200 274 L204 253 L204 245 Z M159 244 L166 259 L166 265 L162 270 L158 270 L156 268 L156 265 L157 264 L160 265 L161 262 L158 260 L153 260 L150 262 L148 267 L148 273 L146 274 L144 268 L145 260 L148 255 L152 256 L152 250 Z M297 239 L299 238 L300 240 L298 241 Z M211 238 L216 237 L217 240 L215 241 L212 240 Z M213 233 L215 232 L216 234 L214 235 Z M302 232 L304 231 L305 233 L303 234 Z M372 212 L374 213 L375 219 L382 233 L383 248 L381 255 L379 254 L380 248 L379 234 L375 226 L369 220 L366 219 L362 222 L362 225 L364 225 L365 223 L368 224 L368 227 L366 229 L361 228 L358 224 L358 220 L362 216 L371 217 Z M153 216 L157 221 L156 225 L153 228 L149 229 L147 227 L147 224 L148 223 L150 225 L153 224 L150 220 L146 220 L141 224 L136 233 L135 251 L133 252 L132 251 L132 235 L134 228 L140 217 L140 213 L142 212 L144 214 L143 217 L146 217 L149 215 Z M209 211 L210 213 L207 215 L206 213 Z M306 210 L308 211 L307 215 L305 214 Z M309 209 L312 208 L313 210 L310 211 Z M149 205 L151 204 L152 206 L150 207 Z M368 203 L370 202 L371 204 L369 205 Z M363 203 L365 202 L366 204 L364 205 Z M202 201 L207 200 L210 204 L209 205 L203 204 Z M313 202 L312 204 L307 205 L305 204 L309 199 Z M312 195 L314 194 L315 197 L313 198 Z M134 187 L136 188 L141 207 L140 208 L135 207 L135 216 L131 223 L129 230 L128 239 L129 252 L136 271 L140 277 L143 279 L144 282 L154 290 L153 292 L147 289 L133 274 L126 262 L121 245 L121 224 Z M381 186 L383 196 L390 211 L393 222 L394 243 L389 261 L385 269 L378 279 L369 288 L363 291 L362 289 L374 278 L374 276 L378 272 L382 264 L386 250 L386 232 L379 214 L380 207 L376 208 L374 207 L374 203 L377 197 L377 192 L379 187 Z M208 181 L210 180 L211 182 L209 183 Z M233 172 L282 172 L294 181 L297 188 L299 214 L293 244 L275 268 L262 273 L238 267 L227 255 L220 239 L216 196 L222 179 Z M215 166 L219 167 L217 172 L213 170 Z M296 163 L299 164 L302 170 L301 172 L296 170 L296 167 L294 166 Z M283 160 L288 159 L289 162 L286 163 Z M257 158 L259 159 L258 168 L256 167 Z M218 165 L218 163 L224 158 L229 157 L230 160 L234 160 L236 158 L238 159 L237 162 L231 165 L227 163 L220 166 Z M277 160 L279 155 L282 155 L284 157 L283 160 L280 161 Z M346 150 L356 159 L356 161 L360 165 L367 185 L367 200 L366 201 L364 200 L364 187 L362 178 L355 164 L345 154 Z M169 150 L170 153 L161 162 L154 174 L151 184 L151 202 L149 203 L148 202 L148 183 L150 176 L157 161 L160 159 L160 157 L165 152 Z M171 151 L174 147 L176 148 L176 152 L178 152 L180 149 L182 150 L182 152 L178 155 L174 155 Z M256 145 L260 147 L258 150 L254 148 Z M223 138 L226 137 L227 140 L225 141 Z M272 134 L271 138 L263 137 L264 135 L269 133 Z M248 136 L249 134 L252 133 L255 134 L252 137 Z M221 134 L224 133 L225 136 L222 137 Z M290 133 L292 132 L293 135 L291 136 Z M264 127 L266 126 L267 128 L265 129 Z M270 119 L272 120 L271 125 L269 124 Z M344 118 L346 119 L347 123 L355 134 L355 141 L357 141 L358 139 L360 140 L372 164 L375 179 L374 194 L371 202 L369 201 L370 195 L369 181 L362 163 L350 148 L348 144 L348 139 L344 142 L340 141 L340 134 L343 133 L342 121 Z M171 118 L173 123 L172 133 L175 136 L175 140 L171 142 L167 139 L166 146 L155 159 L149 170 L145 184 L146 202 L144 203 L140 190 L140 176 L142 166 L146 155 L155 140 L159 140 L160 133 L167 124 L169 119 Z M277 118 L279 117 L280 120 L278 121 Z M236 117 L238 118 L237 122 L235 121 Z M246 114 L247 115 L246 122 L244 123 L243 118 L244 115 Z M268 113 L271 116 L270 119 L268 118 L267 115 Z M252 114 L258 113 L259 114 L258 119 L261 114 L265 116 L265 118 L262 120 L262 126 L260 128 L257 128 L254 125 L255 121 L253 121 L252 118 L251 119 L249 118 Z M242 105 L243 109 L239 111 L238 109 Z M273 104 L275 105 L277 109 L276 112 L274 111 L274 109 L271 108 Z M254 94 L255 97 L251 102 L252 112 L249 113 L247 101 L249 97 L252 94 Z M259 92 L263 94 L267 100 L266 109 L268 112 L267 114 L263 112 L263 101 L258 94 Z M264 86 L267 85 L268 87 L265 88 Z M248 85 L250 86 L249 89 L246 88 Z M256 83 L258 82 L259 84 L257 85 Z M261 82 L263 81 L264 84 L262 85 Z M258 72 L260 76 L255 79 L254 76 Z M256 60 L271 67 L281 83 L285 83 L291 89 L302 132 L321 173 L323 197 L318 243 L321 261 L330 282 L330 287 L325 293 L313 291 L318 279 L313 246 L316 203 L319 202 L318 189 L312 173 L316 168 L301 150 L300 139 L295 127 L291 124 L292 112 L285 104 L284 96 L279 91 L272 89 L258 67 L245 82 L243 89 L234 92 L230 97 L230 103 L223 110 L223 125 L219 127 L214 149 L199 167 L202 174 L197 187 L196 200 L201 220 L201 252 L197 282 L201 291 L189 293 L185 289 L185 281 L193 263 L195 249 L198 247 L192 200 L194 172 L214 128 L224 88 L234 82 L246 65 Z M258 38 L325 104 L332 123 L331 154 L344 156 L361 184 L355 225 L366 238 L370 228 L374 229 L375 259 L351 237 L345 263 L357 277 L345 289 L332 282 L322 250 L326 181 L321 163 L304 128 L295 89 L271 63 L255 57 L242 64 L219 90 L209 132 L189 177 L193 224 L190 262 L183 282 L168 289 L157 275 L169 266 L165 239 L147 249 L142 260 L138 253 L141 229 L149 238 L160 224 L153 200 L155 179 L168 158 L184 153 L183 122 L194 97 Z M177 115 L184 99 L195 83 L216 62 L247 37 L258 25 L276 45 L302 65 L318 81 L329 96 L337 113 L339 133 L335 150 L339 152 L338 148 L341 147 L342 153 L340 155 L336 155 L332 151 L334 125 L328 104 L322 94 L300 70 L268 45 L261 38 L258 32 L244 47 L210 74 L194 92 L185 108 L181 122 L181 147 L179 146 L176 135 Z"/></svg>
