<svg xmlns="http://www.w3.org/2000/svg" width="512" height="512" viewBox="0 0 512 512" aria-hidden="true" focusable="false"><path fill="currentColor" fill-rule="evenodd" clip-rule="evenodd" d="M192 124 L195 127 L202 126 L202 124 L195 123 Z M193 116 L201 117 L207 121 L207 119 L200 114 Z M249 17 L204 81 L194 86 L186 84 L176 135 L180 150 L189 153 L191 164 L147 191 L136 209 L126 190 L122 167 L147 145 L148 136 L140 134 L144 123 L137 127 L133 121 L105 169 L117 219 L128 237 L141 234 L162 217 L174 233 L184 266 L179 271 L169 266 L173 291 L184 301 L193 329 L224 357 L220 375 L230 370 L233 361 L247 372 L246 382 L231 402 L231 425 L241 449 L256 450 L252 442 L265 439 L248 426 L249 418 L260 420 L258 412 L248 410 L250 400 L269 383 L279 394 L279 423 L269 454 L259 469 L240 471 L231 477 L233 489 L240 485 L242 496 L247 490 L273 481 L291 479 L296 484 L293 473 L281 470 L313 389 L314 366 L322 358 L306 360 L296 373 L285 351 L362 348 L373 342 L350 337 L385 330 L403 321 L388 315 L405 294 L389 300 L387 293 L402 264 L406 235 L397 240 L395 236 L406 215 L383 230 L371 214 L373 206 L363 210 L362 205 L370 196 L384 204 L394 201 L408 176 L400 178 L404 143 L396 153 L393 145 L407 122 L402 90 L393 119 L373 143 L370 162 L363 162 L344 182 L332 211 L336 235 L343 245 L358 252 L361 269 L356 270 L324 242 L280 225 L261 185 L233 166 L243 161 L258 133 L237 142 L232 151 L226 148 L251 103 L249 100 L239 107 L233 95 L239 41 Z M250 485 L253 484 L254 487 L251 488 Z M242 479 L245 478 L247 481 L243 483 Z M283 476 L285 475 L286 478 L284 479 Z M241 474 L244 473 L245 475 L242 476 Z M256 484 L263 478 L263 476 L261 476 L259 479 L256 478 L259 475 L259 472 L262 470 L268 473 L277 473 L282 476 L280 479 L274 478 L267 482 L263 482 L262 484 L259 485 Z M270 466 L275 465 L276 467 L271 468 Z M264 464 L267 463 L270 466 L268 467 L265 466 Z M246 442 L248 441 L249 443 L247 444 Z M252 436 L255 435 L256 437 L253 438 Z M242 431 L244 432 L243 436 L241 435 Z M294 422 L296 421 L297 423 L295 424 Z M296 415 L298 414 L299 417 L297 418 Z M235 413 L246 412 L247 414 L250 413 L252 414 L251 417 L247 417 L245 419 L246 427 L249 430 L248 433 L245 431 L242 426 L240 426 L239 428 L234 427 L233 416 Z M234 406 L236 405 L237 407 L235 408 Z M303 403 L304 406 L300 410 L299 406 Z M303 398 L305 397 L306 399 L304 400 Z M309 389 L310 391 L308 396 L306 397 L304 392 L306 389 Z M301 389 L303 388 L304 390 L302 391 Z M284 386 L280 390 L277 389 L278 386 L281 385 Z M283 382 L287 381 L288 383 L284 384 Z M294 379 L297 383 L297 390 L291 416 L277 459 L273 460 L270 457 L277 442 L282 418 L282 394 L281 392 L288 387 L292 380 Z M274 380 L276 379 L277 381 L275 382 Z M308 375 L312 377 L312 382 L309 386 L307 385 Z M288 376 L290 375 L291 378 L289 379 Z M301 374 L302 377 L297 379 L296 377 L299 374 Z M263 374 L264 376 L260 380 L260 386 L253 387 L249 391 L247 396 L242 401 L239 401 L238 399 L250 379 Z M249 374 L251 373 L252 375 L250 376 Z M269 372 L272 371 L273 374 L270 375 Z M264 370 L266 369 L267 371 L265 372 Z M248 368 L250 367 L251 369 L249 370 Z M280 365 L283 365 L285 367 L283 372 L284 375 L283 379 L275 375 L276 368 L279 367 Z M269 367 L271 365 L274 366 L273 369 L270 369 Z M257 363 L260 362 L261 365 L259 366 Z M312 361 L313 364 L310 370 L308 371 L306 368 L306 373 L304 374 L302 371 L303 366 L307 362 Z M238 359 L240 358 L241 360 L239 361 Z M263 366 L266 355 L275 360 L274 363 L268 364 L266 367 Z M259 356 L262 355 L263 358 L260 359 Z M253 355 L256 354 L257 357 L254 359 Z M272 354 L276 353 L278 355 L281 354 L282 356 L278 358 L273 357 Z M247 354 L250 353 L251 355 L248 356 Z M268 348 L271 349 L271 352 L269 354 L267 353 Z M262 348 L265 349 L263 353 L260 352 Z M280 348 L282 347 L283 349 L281 350 Z M274 350 L275 347 L278 348 L276 351 Z M248 348 L249 347 L252 347 L254 349 L258 348 L259 350 L257 352 L249 351 Z M234 347 L236 346 L237 349 L235 350 Z M242 349 L243 345 L247 346 L245 350 Z M229 347 L230 344 L233 345 L231 348 Z M317 344 L319 341 L321 341 L329 345 L330 347 L327 349 L320 348 Z M272 341 L273 343 L269 346 L268 343 Z M249 344 L251 339 L254 339 L255 341 L258 340 L267 341 L267 343 L264 346 L262 345 L262 343 L260 343 L258 346 L256 346 L255 344 L252 345 Z M243 340 L247 339 L248 342 L244 344 Z M230 340 L232 339 L233 341 L231 342 Z M234 338 L235 337 L240 338 L241 342 L237 343 Z M264 337 L266 336 L267 338 L265 339 Z M225 337 L227 336 L228 338 L226 339 Z M293 335 L296 334 L297 336 L294 337 Z M206 335 L208 334 L209 336 L207 337 Z M259 333 L262 334 L262 337 L260 339 L257 338 Z M321 333 L323 332 L324 334 L322 335 Z M309 333 L313 332 L314 334 L321 335 L332 339 L334 341 L343 342 L343 341 L325 336 L324 334 L327 333 L351 341 L359 342 L361 345 L346 347 L340 346 L337 344 L331 344 L310 335 Z M244 337 L246 332 L249 332 L250 334 L252 334 L253 332 L256 333 L256 336 L254 338 Z M265 332 L271 331 L277 336 L281 334 L287 338 L290 338 L291 336 L294 337 L293 341 L295 341 L299 337 L304 337 L315 342 L317 346 L314 347 L302 341 L303 343 L310 347 L309 349 L306 349 L301 346 L297 347 L291 343 L287 345 L277 340 L273 336 L267 335 Z M237 336 L239 331 L243 332 L243 335 L241 337 Z M218 331 L220 330 L221 332 L219 333 Z M212 330 L216 331 L221 344 L220 347 L218 347 L217 343 L211 338 L213 336 L211 333 Z M224 331 L226 329 L235 330 L236 334 L233 335 L230 332 L226 335 Z M262 329 L264 328 L266 331 L264 332 Z M202 329 L204 328 L205 330 L203 331 Z M331 330 L332 329 L336 330 L337 327 L352 330 L355 333 L350 335 L345 332 L342 335 L337 332 L334 334 Z M355 327 L360 326 L361 329 L359 330 L356 329 Z M314 326 L319 325 L328 328 L331 331 L330 332 L315 328 Z M246 326 L250 325 L254 329 L253 330 L250 329 L247 331 Z M310 324 L312 323 L313 325 L311 326 Z M304 325 L302 328 L295 328 L294 333 L287 333 L281 330 L283 325 L285 326 L285 328 L290 328 L291 325 L297 323 Z M337 323 L340 322 L341 324 L338 325 Z M221 322 L222 321 L230 322 L231 326 L226 327 L222 325 Z M209 321 L210 323 L207 325 L206 323 Z M284 321 L286 320 L287 322 L285 323 Z M216 320 L219 323 L218 326 L215 324 Z M390 321 L390 323 L387 324 L385 327 L376 330 L370 329 L371 327 L375 327 L375 325 L371 326 L366 325 L367 323 L385 319 Z M341 320 L342 319 L352 320 L354 323 L353 324 L343 324 Z M301 319 L304 318 L305 320 L302 321 Z M193 318 L195 319 L194 323 L191 321 Z M254 318 L256 317 L268 324 L277 326 L280 329 L277 332 L276 330 L272 328 L265 327 L264 325 L257 322 Z M315 317 L317 316 L324 319 L331 320 L332 322 L331 323 L323 322 L317 320 Z M235 316 L244 317 L246 319 L246 321 L244 322 L243 329 L240 328 L241 323 L238 321 L238 327 L236 329 L233 328 L233 324 L235 323 L234 318 Z M285 316 L289 315 L293 316 L294 318 L290 319 L286 318 Z M200 316 L202 315 L203 317 L201 318 Z M337 315 L340 314 L341 316 L338 317 Z M355 314 L358 313 L359 315 L356 316 Z M331 314 L334 313 L335 315 L332 316 Z M306 314 L308 313 L311 316 L309 317 Z M295 314 L298 313 L300 316 L296 317 Z M271 314 L274 313 L277 316 L274 317 Z M349 313 L352 312 L353 316 L350 317 Z M326 313 L329 312 L330 314 L327 315 Z M262 313 L264 312 L268 316 L267 319 L261 317 Z M323 312 L325 311 L326 313 L324 314 Z M252 311 L257 310 L258 313 L256 314 L253 313 Z M201 311 L206 310 L207 314 L204 315 Z M366 310 L368 309 L369 311 L367 312 Z M299 310 L304 309 L305 311 L300 312 Z M239 309 L241 313 L237 315 L236 313 L237 310 Z M381 308 L382 310 L378 312 L377 310 Z M234 308 L235 312 L231 314 L230 313 L231 309 Z M281 307 L283 307 L285 310 L283 314 L278 312 Z M349 307 L352 306 L353 308 L350 309 Z M273 308 L275 306 L278 307 L277 310 L274 310 Z M266 307 L269 306 L271 310 L268 311 Z M337 306 L340 305 L344 306 L345 308 L339 309 Z M307 305 L309 306 L308 311 L306 310 Z M286 306 L290 305 L291 307 L287 308 Z M220 305 L222 305 L223 308 L225 307 L229 308 L229 311 L226 312 L227 317 L229 317 L230 315 L233 315 L234 317 L232 320 L229 321 L226 319 L220 318 L223 313 L222 310 L220 311 L218 310 L218 307 Z M297 305 L300 304 L301 306 L298 307 Z M259 305 L260 304 L263 305 L264 308 L260 309 Z M187 304 L190 305 L189 310 L187 309 L186 306 Z M395 303 L393 308 L390 311 L380 317 L377 316 L378 314 L383 312 L382 308 L385 304 L389 302 Z M232 305 L233 301 L237 302 L235 306 Z M380 300 L381 301 L380 304 L374 309 L372 309 L370 304 L374 301 Z M354 306 L354 303 L356 301 L359 300 L365 301 L358 307 Z M278 301 L281 300 L284 301 L285 303 L280 305 Z M264 302 L274 300 L276 304 L269 305 L265 304 Z M245 301 L249 300 L251 306 L249 307 Z M338 300 L341 299 L342 302 L339 303 Z M226 299 L229 300 L230 304 L225 305 L224 304 Z M215 300 L217 299 L218 301 L216 302 Z M205 300 L207 299 L208 302 L206 303 Z M319 299 L315 303 L312 302 L313 300 L317 298 Z M292 299 L296 298 L297 300 L293 301 Z M186 299 L188 298 L189 301 L187 302 Z M221 297 L223 298 L222 302 L220 301 Z M302 297 L306 296 L307 299 L303 300 Z M282 297 L284 296 L285 298 L283 299 Z M256 297 L258 296 L261 299 L261 301 L257 302 Z M208 297 L210 296 L211 298 L209 299 Z M249 296 L250 295 L253 296 L254 299 L250 301 Z M233 296 L235 295 L236 298 L234 299 Z M286 295 L289 294 L290 297 L287 299 Z M379 293 L380 295 L375 298 L374 295 Z M274 294 L277 293 L280 295 L280 297 L276 299 L274 297 Z M267 294 L271 293 L272 296 L268 297 Z M239 292 L241 293 L240 298 L238 297 Z M232 292 L233 296 L228 298 L227 296 L230 295 L230 293 Z M210 293 L212 292 L213 294 L211 295 Z M315 292 L318 291 L321 293 L321 295 L317 296 Z M258 293 L261 291 L264 291 L265 295 L259 296 Z M304 293 L305 290 L312 291 L310 294 Z M200 290 L203 291 L202 295 L198 293 Z M177 291 L181 290 L182 293 L179 295 Z M252 290 L253 289 L257 290 L258 293 L253 294 Z M277 290 L282 288 L283 292 L281 293 L278 292 Z M239 289 L241 288 L242 290 L240 291 Z M232 289 L235 288 L236 290 L233 291 Z M212 289 L214 288 L215 290 L213 291 Z M381 287 L385 290 L384 293 L382 293 L379 290 Z M296 287 L300 288 L301 292 L295 293 L294 292 Z M288 288 L290 287 L292 291 L289 292 Z M245 287 L250 289 L250 291 L247 293 L246 299 L243 296 Z M175 288 L177 287 L178 289 L176 290 Z M269 286 L273 285 L275 290 L270 291 Z M357 285 L359 284 L360 286 L358 287 Z M255 284 L259 283 L260 286 L256 287 Z M230 284 L232 283 L233 285 L231 286 Z M206 284 L208 283 L209 285 L207 286 Z M301 285 L304 282 L308 286 L305 288 L302 287 Z M294 283 L297 282 L300 285 L297 286 Z M277 284 L280 282 L283 283 L282 286 L278 286 Z M290 280 L291 283 L289 285 L286 285 L285 283 Z M270 280 L273 279 L274 282 L271 283 Z M198 280 L200 279 L201 281 L199 282 Z M377 278 L379 281 L378 285 L368 295 L365 296 L363 290 L366 287 L367 284 L372 285 L375 279 Z M360 279 L361 278 L364 279 L366 283 L365 284 L361 283 Z M241 283 L246 278 L253 281 L253 284 L251 286 L242 285 Z M257 278 L260 277 L261 280 L258 281 Z M354 276 L358 277 L356 282 L354 281 L353 278 Z M277 279 L278 276 L282 277 L280 280 Z M265 276 L267 277 L266 282 L263 281 Z M394 275 L395 277 L392 283 L389 286 L384 287 L383 285 L388 282 L387 279 L388 276 L390 274 Z M282 274 L284 273 L287 274 L288 276 L285 278 Z M175 274 L178 273 L179 275 L176 276 Z M243 273 L245 272 L246 274 L244 275 Z M232 273 L234 272 L235 274 L233 275 Z M374 269 L376 268 L377 270 L375 271 Z M341 268 L343 267 L344 269 L342 270 Z M365 263 L366 270 L365 273 L363 274 L362 273 L363 264 Z M220 263 L222 262 L223 265 L221 266 Z M258 261 L259 262 L258 266 L259 267 L262 266 L263 269 L260 270 L260 272 L257 273 L256 275 L252 276 L251 273 L256 271 L256 269 L254 269 L253 266 L255 262 Z M249 262 L251 261 L252 263 L250 264 Z M210 260 L213 261 L211 265 L208 263 Z M371 259 L373 260 L373 263 L369 264 L368 261 Z M240 256 L241 260 L237 262 L236 261 L237 257 Z M201 253 L203 252 L205 256 L203 257 Z M370 251 L372 250 L373 252 L371 253 Z M325 251 L327 249 L333 251 L339 255 L347 263 L348 266 L346 267 L343 265 L337 264 L337 267 L339 269 L339 271 L337 272 L329 264 L327 258 L324 257 Z M191 250 L193 249 L199 258 L206 265 L211 268 L216 269 L225 268 L226 269 L225 272 L221 276 L212 281 L209 279 L205 280 L200 276 L198 276 L195 280 L192 281 L189 275 L192 264 Z M385 248 L387 251 L387 257 L384 262 L386 264 L386 268 L383 275 L378 278 L377 275 L381 259 L377 261 L376 255 L379 254 L382 248 Z M253 248 L259 250 L263 254 L265 258 L265 263 L263 265 L261 264 L260 257 L258 257 L257 254 L253 252 L252 250 Z M196 245 L198 244 L201 249 L199 250 Z M247 243 L249 244 L250 249 L249 255 L245 252 L245 247 Z M181 244 L183 243 L184 246 L182 247 Z M358 242 L361 243 L361 246 L359 249 L355 245 Z M400 241 L401 251 L396 257 L400 259 L400 263 L398 268 L394 272 L391 273 L390 272 L392 268 L391 265 L395 253 L390 253 L389 250 L391 248 L395 249 L395 245 Z M390 240 L392 241 L391 245 L389 244 Z M360 238 L362 237 L363 239 L367 239 L372 249 L367 250 L361 242 Z M355 231 L359 235 L357 238 L354 237 Z M362 228 L364 227 L365 230 L363 231 Z M197 232 L209 233 L219 227 L223 230 L222 237 L223 245 L228 252 L228 256 L224 261 L215 260 L208 255 L201 246 L196 236 Z M400 226 L398 230 L392 234 L389 234 L387 238 L385 237 L385 232 L387 229 L391 229 L395 225 Z M371 225 L375 224 L376 229 L378 229 L379 232 L381 233 L383 237 L382 246 L380 245 L380 242 L378 241 L377 237 L370 227 Z M359 224 L361 223 L363 226 L361 227 Z M348 223 L353 226 L351 233 L344 228 L345 226 L347 226 Z M399 223 L401 222 L402 224 L400 225 Z M336 217 L342 219 L345 222 L345 226 L342 227 L342 229 L348 236 L346 238 L346 240 L348 241 L347 244 L343 242 L340 238 L340 236 L343 234 L339 233 L336 229 L337 224 L335 219 Z M351 214 L353 213 L354 215 L352 216 Z M347 213 L349 214 L350 217 L349 219 L346 216 Z M255 218 L261 213 L268 214 L277 227 L286 230 L308 241 L309 244 L307 247 L307 251 L303 253 L301 251 L286 247 L270 240 L261 230 L255 221 Z M367 211 L369 212 L369 217 L371 219 L370 225 L368 224 L368 222 L364 221 L364 215 Z M350 210 L352 209 L353 211 L351 212 Z M249 210 L251 209 L252 211 L250 212 Z M216 208 L220 207 L223 210 L223 213 L221 214 Z M185 208 L187 207 L188 209 L186 210 Z M158 208 L160 207 L161 210 L159 211 Z M238 205 L242 206 L244 212 L268 242 L304 254 L308 258 L325 262 L335 274 L337 285 L342 288 L341 283 L343 282 L347 291 L341 295 L329 294 L294 274 L277 269 L276 263 L268 265 L265 253 L248 240 L248 232 L242 237 L243 253 L238 253 L233 245 L225 242 L226 231 L232 222 Z M198 204 L208 205 L213 208 L216 212 L218 223 L211 230 L208 231 L199 230 L195 231 L194 230 L192 221 L192 212 L193 208 L196 207 Z M176 203 L179 203 L181 207 L180 223 L183 239 L182 243 L180 242 L177 236 L178 231 L175 230 L169 224 L167 219 L167 211 L169 207 Z M207 201 L209 200 L210 202 L208 203 Z M263 200 L265 199 L266 201 L264 202 Z M199 200 L201 199 L202 201 L200 202 Z M348 195 L349 196 L348 212 L346 213 L345 212 L345 199 L346 196 Z M341 195 L344 196 L342 214 L340 213 L339 201 Z M380 198 L384 196 L385 194 L390 196 L389 201 L381 201 Z M387 191 L389 189 L392 190 L391 193 L388 193 Z M377 190 L379 189 L380 191 L378 192 Z M119 189 L122 189 L124 191 L135 213 L136 220 L138 220 L138 213 L143 208 L150 208 L156 215 L156 218 L140 231 L132 235 L129 235 L125 230 L117 212 L113 192 Z M370 189 L373 188 L375 193 L371 194 Z M190 188 L192 187 L193 190 L191 191 Z M400 182 L401 188 L399 194 L395 197 L391 197 L390 195 L393 194 L393 192 L397 188 L398 183 Z M378 184 L380 182 L387 183 L388 186 L383 190 L382 186 L379 186 Z M374 181 L376 182 L376 185 L372 186 L371 183 Z M358 182 L354 186 L350 185 L349 188 L345 192 L343 191 L344 186 L351 178 L355 179 Z M361 177 L363 176 L364 178 L362 179 Z M173 175 L175 178 L172 184 L177 188 L176 196 L173 197 L172 193 L170 193 L170 198 L167 200 L167 203 L165 204 L161 200 L162 195 L158 193 L158 190 L163 183 L169 177 Z M112 176 L114 175 L115 178 L113 179 Z M378 175 L379 177 L378 180 L372 180 L363 186 L362 192 L365 195 L364 197 L361 196 L360 194 L354 193 L355 190 L367 178 L376 174 Z M357 173 L361 171 L364 174 L360 177 Z M241 171 L246 174 L252 181 L256 188 L256 194 L250 195 L251 202 L246 206 L237 196 L235 196 L235 198 L237 199 L237 202 L230 216 L228 217 L225 205 L220 205 L216 201 L212 200 L210 197 L213 194 L221 195 L224 186 L233 181 L231 174 L236 171 Z M391 171 L390 175 L387 178 L382 176 L389 170 Z M379 168 L377 172 L367 176 L364 173 L364 170 L371 164 L374 164 L375 166 Z M381 159 L382 163 L379 165 L378 163 L379 160 Z M216 158 L218 157 L219 159 L217 160 Z M398 155 L399 157 L397 163 L400 164 L400 170 L397 178 L393 181 L391 177 L395 173 L396 169 L393 167 L392 161 L395 156 Z M219 153 L221 152 L222 155 L220 156 Z M128 153 L130 152 L131 155 L129 156 Z M244 151 L245 153 L242 156 L241 153 Z M391 147 L392 155 L390 162 L386 168 L383 169 L382 167 L388 156 L388 148 Z M377 147 L381 150 L383 154 L382 158 L380 157 L380 155 L378 156 L374 155 L377 152 L376 149 Z M209 145 L213 158 L218 165 L218 167 L207 178 L199 181 L193 180 L189 176 L189 171 L193 170 L192 153 L201 150 Z M245 145 L247 144 L248 146 L246 147 Z M218 142 L220 141 L221 144 L219 145 Z M123 141 L129 147 L126 150 L124 158 L118 166 L118 168 L111 171 L109 169 L111 159 L117 147 Z M127 140 L129 139 L130 141 L128 142 Z M179 138 L181 137 L182 139 L180 140 Z M216 133 L220 131 L222 136 L219 137 Z M183 122 L184 125 L180 128 L179 127 L180 123 Z M395 121 L396 122 L395 128 L388 130 L388 132 L390 132 L391 134 L388 136 L385 136 L385 144 L383 145 L382 135 L385 129 Z M225 116 L227 115 L228 117 L226 118 Z M403 114 L404 115 L404 125 L403 128 L399 131 L397 128 L400 125 L401 115 Z M227 114 L231 112 L232 115 L235 116 L235 118 L232 119 Z M241 111 L244 110 L245 112 L242 113 Z M238 110 L239 115 L235 116 L234 113 Z M219 111 L221 110 L223 114 L221 115 Z M399 105 L401 106 L402 112 L401 114 L397 113 L397 108 Z M231 103 L232 108 L229 110 L227 105 Z M188 101 L192 101 L194 103 L203 103 L207 105 L211 109 L212 117 L215 124 L215 129 L210 141 L200 148 L191 150 L184 149 L180 144 L181 142 L186 143 L187 140 L192 140 L192 138 L189 138 L187 136 L190 131 L183 131 L188 121 L188 119 L184 120 L182 118 L184 113 L188 115 L188 113 L184 109 Z M225 101 L227 100 L228 102 L226 103 Z M230 98 L232 97 L233 99 L231 100 Z M227 97 L229 96 L230 98 L228 99 Z M189 93 L192 92 L193 94 L190 95 Z M222 91 L224 92 L223 95 L220 94 Z M209 92 L211 91 L214 94 L212 95 Z M217 79 L220 78 L224 82 L220 83 L217 81 Z M211 78 L213 77 L214 79 L212 80 Z M213 70 L215 69 L216 71 L214 72 Z M223 66 L225 65 L226 67 L224 68 Z M226 60 L228 59 L229 62 L227 63 Z M241 33 L242 35 L239 38 L238 35 Z"/></svg>
