<svg xmlns="http://www.w3.org/2000/svg" width="512" height="512" viewBox="0 0 512 512" aria-hidden="true" focusable="false"><path fill="currentColor" fill-rule="evenodd" clip-rule="evenodd" d="M263 17 L256 25 L246 57 L249 71 L243 77 L242 92 L236 91 L241 116 L231 127 L224 124 L229 150 L223 153 L214 148 L215 168 L203 173 L194 188 L186 186 L180 205 L173 202 L174 217 L170 220 L140 188 L141 210 L146 215 L145 239 L153 269 L158 270 L162 283 L152 284 L150 275 L140 279 L134 267 L126 265 L127 253 L116 241 L113 294 L73 336 L67 323 L58 335 L56 350 L33 393 L28 412 L30 431 L45 447 L72 453 L120 440 L171 406 L177 415 L167 430 L185 431 L188 448 L183 453 L191 453 L198 444 L201 464 L208 461 L208 452 L220 448 L216 461 L225 471 L223 479 L242 463 L243 470 L257 484 L257 496 L267 482 L263 468 L271 459 L283 468 L286 478 L292 479 L289 473 L293 465 L298 465 L300 454 L307 452 L307 461 L318 463 L316 441 L324 453 L331 453 L326 436 L334 428 L348 430 L338 414 L343 406 L375 433 L431 452 L454 452 L479 439 L485 423 L483 403 L465 370 L451 328 L446 324 L440 336 L407 299 L405 242 L394 251 L394 265 L388 267 L380 282 L375 274 L369 284 L360 278 L375 243 L380 189 L348 224 L347 204 L339 202 L334 185 L327 188 L306 166 L308 148 L295 151 L297 124 L290 127 L286 118 L280 117 L286 92 L279 91 L278 75 L273 71 L275 54 L264 32 Z M285 461 L289 463 L288 469 L286 468 L284 464 Z M230 461 L231 465 L227 469 L226 463 Z M262 460 L263 463 L260 470 L258 471 L257 470 L258 464 Z M290 459 L293 458 L296 460 L296 462 L292 463 Z M253 457 L258 458 L255 467 L256 472 L255 474 L252 472 L250 468 L251 459 Z M227 458 L223 463 L219 462 L222 458 L225 457 Z M263 457 L266 456 L267 459 L265 460 Z M275 456 L280 455 L282 458 L278 461 Z M261 453 L262 456 L258 458 L257 455 Z M310 450 L313 449 L314 453 L312 454 Z M202 449 L205 450 L203 454 L201 453 Z M294 449 L295 448 L298 449 L300 453 L299 454 L296 453 Z M244 448 L248 449 L248 453 L250 455 L249 458 L243 454 Z M250 448 L252 447 L253 450 L251 451 Z M283 445 L284 446 L283 451 L279 453 L278 448 Z M266 445 L269 448 L268 454 L265 453 Z M259 444 L262 443 L263 447 L260 448 Z M271 443 L273 442 L274 444 L272 445 Z M247 442 L249 443 L248 446 L245 445 Z M289 441 L292 442 L293 452 L292 454 L290 454 L287 450 Z M321 441 L323 440 L324 442 L322 443 Z M214 440 L215 442 L211 444 L210 442 Z M202 441 L204 440 L205 442 L203 443 Z M277 443 L280 439 L283 440 L282 443 L279 444 Z M233 439 L238 441 L236 446 L237 457 L235 458 L234 461 L232 460 L233 451 L230 446 Z M192 438 L194 439 L193 444 L191 443 Z M99 441 L100 438 L103 439 L101 442 Z M228 436 L229 437 L227 441 L228 450 L225 454 L222 453 L223 451 L222 441 L225 436 Z M405 435 L408 434 L409 436 L406 437 Z M320 435 L322 434 L323 436 L321 437 Z M325 433 L327 432 L328 434 L326 435 Z M306 433 L308 432 L310 435 L308 436 Z M197 432 L198 434 L193 437 L192 435 Z M190 431 L191 433 L188 435 L187 433 Z M311 431 L315 430 L319 432 L320 434 L319 435 L314 434 Z M199 433 L202 430 L204 431 L202 434 Z M411 429 L415 430 L413 435 L411 435 L409 432 Z M214 429 L219 431 L216 436 L211 435 Z M299 428 L303 431 L304 434 L304 440 L303 441 L300 440 L302 444 L301 447 L296 443 L295 438 L298 437 L296 431 Z M115 428 L118 427 L119 430 L116 431 Z M80 428 L82 427 L83 429 L81 430 Z M419 425 L422 424 L424 429 L422 430 L419 427 Z M308 425 L311 424 L312 427 L309 428 Z M203 427 L204 424 L207 425 L205 428 Z M93 424 L94 428 L90 430 L89 429 L90 425 Z M446 425 L452 423 L459 424 L458 427 L454 426 L452 428 L448 428 Z M200 425 L197 428 L193 427 L196 423 Z M427 422 L429 423 L428 427 L426 426 Z M372 423 L374 422 L375 424 L373 425 Z M314 424 L318 422 L321 427 L317 428 Z M183 426 L184 422 L189 423 L186 427 Z M139 423 L141 422 L142 424 L140 425 Z M108 423 L110 422 L111 424 L109 425 Z M97 422 L99 423 L105 432 L103 435 L100 435 L97 430 L96 424 Z M399 423 L403 421 L405 424 L400 425 Z M327 421 L330 422 L328 425 L325 424 Z M180 421 L181 423 L177 427 L176 426 L177 422 Z M74 417 L80 421 L79 425 L76 427 L73 427 L71 425 Z M422 416 L423 420 L417 423 L417 426 L414 427 L413 425 L416 418 L418 416 Z M327 417 L329 416 L330 418 L328 419 Z M311 417 L313 416 L315 420 L313 421 Z M181 415 L183 416 L182 419 L179 418 Z M134 415 L136 419 L134 421 L131 421 L130 418 Z M85 422 L89 415 L97 417 L96 419 L94 419 L93 422 L89 421 L88 423 Z M376 414 L374 417 L370 419 L367 418 L368 416 L374 413 Z M331 414 L333 413 L336 417 L333 418 Z M199 414 L197 418 L195 419 L191 418 L197 413 Z M315 413 L317 412 L318 414 L316 415 Z M447 411 L449 414 L448 418 L443 421 L443 425 L441 427 L437 426 L434 420 L440 416 L443 416 L445 412 Z M405 412 L409 411 L410 416 L407 417 L405 415 Z M126 413 L127 410 L130 411 L128 414 Z M69 410 L72 413 L70 418 L63 420 L62 417 L64 413 L67 410 Z M318 408 L320 407 L321 409 L319 410 Z M122 408 L125 407 L126 409 L123 410 Z M196 406 L197 409 L195 413 L191 414 L190 412 Z M420 405 L422 406 L421 410 L419 409 Z M328 408 L329 405 L334 406 L333 408 L330 409 Z M181 406 L185 405 L186 407 L182 408 Z M441 403 L442 408 L439 410 L438 409 L439 404 Z M88 403 L90 409 L86 411 L86 414 L84 416 L77 417 L75 414 L76 413 L81 414 L80 412 L81 406 L84 403 Z M180 400 L181 402 L177 405 L176 403 Z M389 400 L392 399 L393 403 L391 404 Z M383 400 L385 399 L386 401 L384 402 Z M333 400 L335 399 L336 402 L334 403 Z M170 402 L171 399 L174 400 L172 403 Z M432 398 L438 399 L437 401 L434 401 L431 407 L429 407 L429 409 L431 409 L437 414 L435 417 L430 417 L428 415 L428 411 L424 408 L424 404 L429 403 L429 401 Z M339 399 L341 398 L344 402 L342 403 Z M127 399 L129 398 L130 401 L128 402 Z M80 398 L81 399 L80 403 L74 405 L78 406 L79 408 L77 410 L73 410 L71 408 L71 402 L76 398 Z M384 397 L386 396 L387 398 L385 399 Z M419 396 L424 395 L425 399 L420 400 Z M186 395 L188 396 L187 400 L183 398 Z M126 396 L128 395 L129 397 L127 398 Z M323 395 L326 394 L330 396 L331 398 L327 400 Z M408 394 L410 393 L411 396 L409 397 Z M385 394 L387 393 L388 395 L386 396 Z M102 394 L104 393 L105 395 L103 396 Z M424 393 L426 392 L427 394 L425 395 Z M90 392 L94 394 L94 404 L93 405 L87 400 Z M432 394 L435 391 L437 395 L433 396 Z M393 391 L396 393 L395 396 L391 395 Z M119 391 L123 393 L121 396 L117 395 Z M332 391 L334 390 L335 392 L333 393 Z M126 390 L128 391 L127 395 L125 394 Z M321 390 L319 399 L317 403 L314 405 L312 411 L307 417 L302 418 L302 422 L299 425 L283 435 L268 439 L252 439 L251 436 L249 436 L249 438 L247 439 L228 433 L226 430 L216 425 L207 416 L200 405 L202 401 L197 399 L197 396 L201 395 L207 406 L216 415 L216 419 L220 418 L222 424 L224 425 L228 423 L235 427 L245 430 L263 431 L278 428 L294 420 L306 408 L310 408 L309 404 L315 391 L317 389 Z M182 389 L185 391 L184 394 L180 392 Z M83 389 L84 391 L82 395 L80 396 L79 390 Z M435 389 L443 388 L446 389 L447 391 L439 393 L436 392 Z M193 388 L198 387 L200 392 L195 393 Z M406 387 L408 386 L409 388 L407 389 Z M325 387 L329 386 L330 388 L326 389 Z M187 387 L189 386 L190 388 L188 389 Z M104 387 L106 386 L107 388 L105 389 Z M176 386 L179 385 L180 388 L177 389 Z M386 384 L388 383 L389 386 L387 387 Z M118 383 L120 382 L121 385 L119 386 Z M320 381 L322 381 L323 384 L321 387 L318 387 L317 385 Z M338 379 L337 381 L331 384 L326 383 L327 381 L335 378 Z M192 379 L196 378 L197 381 L193 383 Z M178 378 L180 377 L183 381 L182 382 L179 381 Z M184 377 L187 376 L188 378 L185 379 Z M115 377 L117 376 L118 378 L116 379 Z M128 374 L124 378 L120 377 L124 373 Z M464 376 L473 388 L480 406 L481 424 L477 435 L468 443 L451 448 L428 447 L412 442 L410 439 L418 438 L422 432 L425 432 L427 435 L429 432 L442 432 L443 428 L446 430 L459 430 L463 428 L457 418 L453 417 L459 414 L450 411 L450 407 L454 406 L454 404 L447 403 L445 405 L443 398 L448 397 L448 394 L452 391 L459 393 L460 397 L467 397 L467 395 L455 387 L443 385 L441 381 L438 381 L437 385 L431 385 L430 383 L447 372 L450 372 L453 377 L455 375 Z M321 372 L323 373 L322 379 L320 378 Z M192 373 L195 372 L196 374 L193 375 Z M49 376 L58 375 L60 377 L63 372 L71 374 L73 379 L77 378 L83 383 L82 385 L72 385 L69 381 L67 385 L50 391 L45 398 L53 397 L53 394 L60 390 L75 388 L76 391 L74 393 L66 395 L66 397 L70 397 L71 399 L59 404 L64 409 L61 413 L55 414 L53 425 L60 423 L64 426 L61 430 L70 428 L75 432 L82 432 L84 435 L87 432 L91 432 L96 438 L95 444 L78 448 L62 448 L47 444 L36 435 L32 424 L32 410 L36 396 Z M328 372 L332 371 L336 375 L332 377 L331 374 L329 374 Z M179 373 L184 371 L185 375 L182 376 Z M404 368 L405 370 L400 374 L399 370 Z M395 368 L397 369 L396 373 L394 372 Z M111 368 L115 369 L114 374 L112 374 L109 371 Z M122 366 L124 367 L123 371 L121 370 Z M83 366 L85 365 L86 368 L84 369 Z M386 364 L388 365 L387 369 L384 368 Z M432 364 L434 363 L435 365 L433 366 Z M77 364 L79 363 L80 365 L78 366 Z M125 362 L127 361 L131 367 L127 368 Z M62 362 L63 359 L66 360 L64 363 Z M130 359 L132 358 L133 361 L131 362 Z M119 359 L118 365 L110 367 L107 366 L109 360 L113 358 Z M73 359 L75 358 L76 360 L74 361 Z M437 358 L439 357 L440 360 L438 361 Z M399 357 L401 359 L401 362 L404 363 L404 365 L394 366 L392 368 L391 362 L395 358 Z M131 356 L133 355 L134 357 L132 358 Z M417 355 L419 354 L420 356 L418 357 Z M412 355 L414 354 L415 357 L413 358 Z M99 354 L102 355 L102 358 L104 360 L103 362 L98 360 Z M454 354 L456 353 L458 357 L456 358 Z M58 353 L59 355 L56 357 L55 355 Z M191 352 L193 351 L195 354 L192 355 Z M116 352 L121 351 L122 355 L119 356 L116 354 Z M315 350 L318 347 L320 348 L318 351 Z M194 348 L196 347 L199 350 L196 351 Z M452 345 L453 348 L449 351 L448 348 Z M436 345 L439 346 L437 351 L435 350 Z M412 346 L414 349 L411 351 L405 352 L405 356 L403 357 L401 352 L402 347 L405 345 Z M134 346 L136 345 L137 348 L135 349 Z M130 345 L132 348 L128 351 L128 354 L125 356 L123 349 L127 345 Z M101 347 L104 345 L108 345 L111 347 L112 350 L109 353 L102 352 Z M75 346 L77 345 L78 348 L76 349 Z M384 344 L387 345 L391 349 L388 355 L384 353 L384 349 L382 347 Z M421 351 L424 342 L426 342 L432 347 L432 349 L429 351 L423 352 Z M81 346 L88 342 L89 345 L91 346 L91 350 L84 351 L81 349 Z M61 342 L62 344 L59 347 L58 345 Z M430 339 L432 338 L433 341 L431 342 Z M373 339 L377 338 L378 340 L374 341 Z M80 339 L82 338 L83 341 L81 342 Z M407 339 L410 337 L414 340 L417 340 L418 342 L416 344 L413 344 L408 342 Z M75 337 L77 338 L76 342 L74 341 Z M101 337 L103 336 L105 338 L110 338 L113 341 L113 344 L117 346 L117 349 L115 350 L110 344 L105 343 L104 340 L101 339 Z M394 335 L398 338 L401 338 L404 342 L403 345 L398 350 L394 346 L399 344 L399 342 L396 342 L393 344 L391 343 L392 337 Z M125 335 L128 337 L127 342 L124 340 Z M381 335 L383 334 L384 336 L382 337 Z M448 333 L450 334 L449 339 L446 338 Z M64 333 L66 334 L67 337 L66 341 L63 340 Z M382 330 L386 329 L388 332 L384 335 Z M318 330 L317 333 L308 332 L309 330 L315 329 Z M196 330 L197 329 L204 330 L205 332 L198 333 Z M132 330 L135 329 L136 331 L133 332 Z M108 329 L112 328 L116 332 L118 339 L121 339 L122 342 L121 343 L116 342 L113 334 L108 335 L107 334 Z M321 329 L324 327 L330 327 L331 330 L333 330 L334 327 L338 327 L341 329 L341 331 L346 330 L350 333 L349 335 L350 337 L354 336 L357 338 L357 343 L351 344 L348 342 L348 339 L345 340 L331 338 L330 336 L322 338 L320 334 Z M375 326 L378 325 L379 327 L376 328 Z M408 327 L410 324 L414 324 L416 327 L422 327 L425 330 L430 330 L431 334 L427 337 L421 335 L420 337 L417 338 L412 335 L411 330 Z M388 325 L390 324 L391 326 L389 327 Z M384 325 L386 324 L387 326 L385 327 Z M105 326 L105 328 L101 331 L101 335 L98 337 L96 336 L96 333 L93 333 L93 335 L90 337 L86 337 L82 334 L82 331 L84 328 L89 329 L90 327 L95 327 L96 329 L98 329 L99 324 L103 324 Z M404 322 L407 323 L406 326 L407 331 L405 336 L398 333 L398 331 L400 330 Z M379 323 L381 322 L382 324 L380 325 Z M368 323 L370 322 L372 325 L370 326 Z M117 322 L122 328 L120 331 L118 331 L115 328 L115 324 Z M107 322 L110 323 L109 328 L106 326 Z M91 324 L94 321 L96 322 L94 325 Z M422 320 L423 323 L421 325 L418 325 L417 323 Z M137 321 L140 320 L141 323 L139 324 Z M381 320 L383 319 L384 321 L382 322 Z M376 320 L378 319 L379 321 L377 322 Z M314 322 L315 319 L318 320 L316 323 Z M141 320 L144 319 L145 321 L142 322 Z M324 319 L326 318 L327 320 L325 321 Z M307 319 L309 318 L310 321 L308 322 Z M205 319 L207 318 L208 321 L206 322 Z M195 321 L197 318 L200 319 L199 323 L196 323 Z M101 317 L104 319 L103 322 L99 321 Z M415 314 L416 318 L413 322 L410 322 L409 321 L410 317 L413 314 Z M389 315 L391 314 L392 316 L390 317 Z M312 315 L314 314 L315 316 L313 317 Z M398 313 L399 314 L398 317 L395 320 L392 320 L391 318 L394 317 Z M207 314 L209 313 L210 315 L208 316 Z M331 312 L334 315 L340 313 L341 318 L347 316 L353 320 L356 327 L362 329 L363 336 L368 338 L379 367 L383 393 L377 406 L368 414 L359 413 L349 404 L342 383 L345 380 L343 376 L345 372 L333 366 L326 369 L322 368 L324 360 L329 357 L334 359 L340 357 L342 361 L346 360 L351 363 L347 356 L340 353 L323 352 L322 347 L326 346 L328 342 L331 342 L332 345 L337 342 L341 343 L342 346 L346 345 L350 348 L350 352 L356 350 L357 343 L361 344 L363 342 L357 334 L357 330 L354 331 L337 322 L331 322 L328 317 Z M234 314 L282 313 L287 322 L293 320 L301 328 L296 337 L308 338 L303 349 L310 348 L306 354 L313 362 L309 370 L316 370 L313 388 L304 405 L279 424 L248 427 L234 423 L211 405 L203 390 L199 370 L205 368 L200 357 L208 357 L204 348 L211 344 L206 340 L210 335 L220 338 L214 328 L226 319 L234 321 Z M183 312 L190 319 L189 321 L167 326 L150 339 L154 341 L158 337 L161 338 L164 332 L172 328 L174 330 L178 330 L179 327 L187 327 L188 330 L192 328 L197 339 L186 336 L172 339 L157 350 L163 352 L164 347 L171 347 L174 342 L190 344 L192 347 L188 353 L171 354 L162 363 L173 357 L178 359 L184 357 L189 360 L192 368 L189 369 L180 364 L178 368 L169 372 L168 380 L171 381 L165 403 L156 412 L150 414 L145 410 L142 412 L135 404 L130 390 L143 343 L147 343 L145 338 L152 329 L157 328 L156 324 L160 320 L171 318 L173 313 Z M353 311 L355 312 L354 316 L351 314 Z M321 312 L324 311 L325 313 L322 314 Z M190 312 L192 311 L193 313 L191 314 Z M357 313 L360 310 L364 311 L360 316 Z M300 310 L301 312 L298 315 L297 313 Z M134 310 L136 310 L138 313 L136 317 L134 316 L133 313 Z M386 309 L387 313 L383 316 L382 313 Z M411 308 L413 311 L408 316 L405 316 L403 314 L403 311 L406 308 Z M397 309 L399 308 L400 311 L398 312 Z M121 308 L124 309 L123 313 L127 316 L128 318 L127 320 L125 320 L121 316 L120 313 Z M261 307 L265 306 L266 309 L262 310 Z M249 307 L253 306 L254 309 L251 310 Z M352 307 L354 305 L357 306 L356 309 L353 309 Z M169 307 L165 313 L163 314 L159 313 L160 308 L162 306 L166 305 Z M148 306 L150 305 L151 307 L149 308 Z M99 310 L108 305 L112 310 L112 314 L114 318 L111 320 L107 319 L104 315 L105 311 L100 312 Z M276 304 L278 305 L278 308 L274 309 L273 306 Z M200 304 L202 303 L203 306 L201 307 Z M302 303 L307 302 L313 303 L314 305 L307 307 L304 306 Z M282 302 L285 303 L285 306 L283 308 L280 306 Z M237 302 L240 303 L238 308 L235 307 L235 304 Z M191 303 L193 302 L196 306 L194 307 Z M128 302 L131 301 L132 304 L130 305 Z M112 300 L114 301 L113 306 L111 305 Z M377 299 L380 299 L382 302 L382 307 L379 313 L376 310 L376 307 L378 305 L376 301 Z M290 299 L292 299 L293 302 L297 304 L296 310 L293 314 L290 312 L290 308 L288 305 L288 301 Z M219 300 L218 304 L215 306 L210 307 L208 305 L209 303 L212 303 L217 299 Z M180 300 L182 299 L183 301 L181 302 Z M262 302 L265 298 L273 299 L273 301 L269 303 Z M250 299 L256 298 L259 302 L252 303 Z M227 298 L231 300 L233 303 L228 314 L226 314 L224 310 L224 307 L227 305 L226 302 Z M142 298 L144 302 L141 305 L138 304 L139 300 Z M344 297 L346 296 L347 298 L345 299 Z M326 297 L329 296 L330 299 L328 300 Z M280 296 L281 299 L276 301 L275 298 L277 296 Z M239 297 L243 296 L245 300 L244 301 L240 300 Z M189 297 L191 296 L194 297 L195 299 L191 302 Z M174 297 L178 296 L179 300 L177 301 Z M146 297 L148 296 L149 298 L147 299 Z M130 297 L132 296 L135 299 L135 301 L132 302 Z M401 296 L403 295 L404 297 L402 298 Z M372 296 L374 295 L375 297 L373 298 Z M318 295 L322 299 L321 305 L319 307 L317 306 L319 302 L317 298 Z M203 295 L204 297 L202 301 L200 302 L199 298 Z M124 296 L126 295 L128 299 L126 300 Z M384 295 L388 294 L391 295 L392 297 L389 301 L386 302 Z M305 295 L309 294 L310 299 L308 300 Z M209 295 L212 294 L214 296 L214 299 L210 300 Z M134 295 L137 294 L138 297 L136 298 Z M219 294 L221 293 L222 295 L220 296 Z M255 293 L261 292 L262 296 L261 297 L256 296 Z M356 291 L358 292 L359 298 L358 302 L354 302 L351 299 L352 297 L355 297 L354 294 Z M297 292 L299 291 L301 295 L298 296 Z M221 292 L223 291 L224 293 L222 294 Z M164 291 L169 296 L166 302 L161 301 Z M401 291 L403 290 L404 292 L402 293 Z M286 294 L287 292 L291 290 L297 291 L296 293 L291 293 L288 295 Z M224 291 L230 290 L234 292 L235 294 L232 295 L229 293 L225 293 Z M378 290 L381 289 L382 291 L379 292 Z M339 290 L341 289 L342 291 L340 292 Z M205 290 L207 289 L208 291 L206 292 Z M276 289 L277 292 L276 294 L272 295 L264 294 L266 291 L268 291 L271 288 Z M247 288 L250 289 L249 295 L246 294 Z M194 289 L197 288 L198 291 L196 292 Z M139 289 L141 288 L143 291 L140 292 Z M368 288 L370 287 L371 289 L369 290 Z M356 288 L358 287 L359 290 L357 291 Z M350 287 L352 288 L351 292 L349 291 Z M317 290 L320 287 L324 288 L323 293 L320 293 Z M218 287 L219 289 L215 293 L214 289 Z M299 287 L301 286 L304 287 L305 289 L302 290 Z M176 287 L178 286 L182 292 L180 293 Z M126 287 L129 286 L130 290 L128 291 Z M266 286 L264 289 L256 288 L257 286 L263 285 Z M343 284 L345 283 L346 285 L344 286 Z M390 282 L393 284 L395 289 L394 291 L391 290 L389 285 Z M330 282 L332 281 L333 283 L331 284 Z M287 285 L293 281 L297 282 L296 287 L294 286 L288 287 Z M269 281 L271 282 L270 285 L267 284 Z M226 281 L228 282 L227 286 L225 285 Z M394 281 L400 280 L403 284 L397 285 Z M350 283 L351 280 L355 281 L352 284 Z M118 284 L120 280 L125 282 L123 285 Z M178 279 L180 278 L181 280 L179 281 Z M125 277 L127 278 L126 282 L124 281 Z M292 276 L301 275 L302 277 L293 278 Z M219 276 L227 275 L228 277 L220 278 Z M352 275 L356 274 L357 277 L354 278 Z M231 274 L233 273 L234 275 L232 276 Z M390 273 L392 272 L393 274 L391 275 Z M214 272 L216 276 L212 278 L213 285 L211 286 L207 281 L207 276 Z M176 270 L178 269 L179 271 L177 272 Z M170 268 L172 267 L173 269 L171 270 Z M169 265 L171 264 L172 266 L170 267 Z M117 265 L119 264 L120 266 L118 267 Z M402 263 L404 264 L403 268 L401 267 Z M273 264 L275 263 L277 267 L275 268 Z M187 268 L190 265 L192 266 L195 263 L198 263 L199 267 L203 267 L208 270 L207 276 L204 279 L197 279 L194 275 L187 278 L186 277 Z M158 264 L161 263 L162 266 L160 267 Z M328 262 L329 263 L328 266 L334 270 L336 277 L328 279 L327 276 L324 275 L323 279 L316 279 L308 285 L307 283 L310 278 L311 272 L315 268 L321 267 L323 263 Z M214 262 L218 263 L217 270 L213 267 Z M361 260 L363 261 L362 265 L359 263 Z M199 261 L201 260 L202 263 L200 264 Z M177 260 L181 264 L180 267 L174 266 L174 263 Z M346 259 L347 264 L345 270 L343 271 L340 268 L340 265 L342 261 Z M276 262 L277 259 L281 260 L278 263 Z M240 260 L244 259 L245 261 L241 262 Z M302 255 L305 256 L308 262 L308 265 L305 270 L303 269 L304 264 L300 260 L300 257 Z M361 254 L364 253 L365 255 L362 256 Z M328 254 L327 257 L322 261 L321 265 L314 264 L321 258 L323 253 Z M297 253 L298 257 L291 259 L289 266 L287 267 L286 266 L287 259 L292 254 Z M273 254 L275 253 L276 256 L274 257 Z M214 258 L218 254 L227 253 L230 254 L234 258 L235 264 L233 265 L232 262 L228 258 L222 258 L218 261 L215 260 Z M193 254 L198 253 L200 257 L195 259 L193 257 Z M397 253 L399 252 L400 255 L398 256 Z M120 253 L122 252 L124 256 L122 257 Z M347 251 L350 254 L352 252 L354 253 L354 260 L351 267 L349 266 L350 258 L348 256 L342 255 L343 253 Z M237 275 L241 271 L244 271 L248 275 L250 267 L254 263 L258 262 L257 259 L258 252 L261 251 L264 252 L268 257 L268 259 L264 260 L261 264 L263 264 L264 262 L267 263 L271 267 L273 275 L277 276 L275 272 L280 271 L284 275 L284 282 L280 285 L279 279 L274 280 L270 279 L269 281 L266 280 L263 283 L254 282 L254 285 L252 286 L250 284 L251 281 L250 279 L248 280 L242 279 L241 283 L239 284 L237 282 Z M252 252 L248 257 L244 256 L245 253 L248 253 L250 251 Z M177 252 L179 255 L172 256 L171 262 L169 263 L167 253 L169 251 Z M278 250 L280 249 L281 251 L279 252 Z M184 247 L186 248 L185 251 L182 250 Z M160 247 L162 250 L161 251 L157 250 L158 254 L156 255 L154 252 L154 249 L157 247 Z M334 247 L337 246 L338 249 L335 250 Z M306 246 L308 245 L313 252 L309 254 L307 252 L308 249 L306 248 Z M289 246 L291 245 L292 247 L290 248 Z M267 245 L268 247 L265 250 L264 247 Z M366 244 L367 249 L366 252 L364 253 L363 250 L360 250 L359 248 Z M214 244 L215 248 L212 249 L208 253 L207 250 Z M200 245 L206 244 L207 246 L203 249 Z M175 245 L177 244 L179 247 L176 249 Z M314 248 L316 243 L320 246 L318 249 Z M292 244 L294 243 L295 245 L293 246 Z M226 244 L228 243 L229 245 L227 246 Z M295 243 L303 242 L304 245 L303 246 L296 245 Z M251 243 L253 242 L254 244 L252 245 Z M216 243 L225 242 L226 244 L217 245 Z M206 243 L208 242 L209 244 L207 245 Z M165 242 L168 243 L167 249 L163 247 Z M355 241 L357 242 L358 246 L356 249 L353 248 L354 246 L353 243 Z M235 242 L238 241 L240 246 L237 247 Z M173 242 L175 241 L176 243 L174 244 Z M283 240 L285 241 L286 246 L284 248 L281 248 L280 245 Z M262 240 L264 241 L263 245 L261 244 Z M170 240 L172 239 L173 241 L171 242 Z M353 239 L352 243 L348 245 L344 244 L348 239 L350 238 Z M163 237 L165 238 L164 242 L162 241 Z M342 237 L344 236 L345 238 L343 239 Z M153 237 L155 236 L156 238 L154 239 Z M261 235 L262 236 L261 241 L257 243 L256 242 L257 238 Z M249 235 L251 236 L250 243 L247 241 L247 238 Z M194 238 L195 235 L198 236 L196 239 Z M180 235 L181 237 L177 239 L176 237 Z M365 238 L366 233 L370 235 L367 239 Z M331 234 L329 237 L326 237 L325 239 L322 238 L324 234 L327 233 Z M287 236 L295 233 L297 237 L288 238 Z M268 234 L270 233 L271 235 L269 236 Z M223 236 L229 233 L232 235 L232 238 L229 240 L226 240 Z M190 234 L194 233 L195 235 L191 236 Z M165 232 L168 231 L169 233 L166 234 Z M346 231 L348 230 L349 232 L347 233 Z M313 234 L315 230 L322 231 L319 235 Z M298 231 L306 230 L309 234 L305 237 L302 236 Z M210 233 L211 231 L216 230 L223 231 L218 236 L212 235 Z M205 230 L207 235 L203 238 L201 233 Z M171 231 L173 230 L174 232 L172 233 Z M149 230 L153 229 L154 232 L150 233 Z M156 229 L157 226 L161 227 L158 230 Z M353 225 L355 226 L354 231 L357 230 L359 231 L356 234 L352 234 L349 229 Z M256 225 L259 226 L259 230 L257 233 L254 231 Z M202 226 L204 225 L205 227 L203 228 Z M322 225 L324 224 L325 226 L323 227 Z M263 224 L267 226 L265 234 L262 232 Z M314 224 L316 223 L319 227 L316 228 Z M177 224 L179 223 L180 225 L178 226 Z M199 222 L200 224 L195 229 L194 228 L195 225 Z M149 223 L153 222 L154 225 L150 226 Z M367 223 L370 221 L372 222 L371 225 L368 225 Z M333 221 L335 222 L334 228 L331 226 Z M200 219 L202 218 L203 220 L201 221 Z M161 218 L162 222 L158 224 L157 222 Z M366 218 L368 217 L369 219 L367 220 Z M335 217 L337 218 L336 221 L333 220 Z M316 218 L318 217 L323 223 L321 224 Z M199 214 L200 216 L197 218 L196 216 Z M254 214 L256 213 L258 216 L256 217 Z M328 215 L331 212 L333 213 L330 216 Z M269 218 L277 217 L279 212 L291 212 L301 214 L307 218 L307 221 L309 221 L310 219 L312 220 L313 227 L309 228 L306 226 L306 224 L304 224 L303 227 L297 227 L291 229 L283 235 L279 241 L277 241 L273 233 L273 229 L270 227 Z M208 221 L220 214 L229 212 L241 212 L244 217 L246 216 L251 217 L254 222 L253 223 L250 222 L249 226 L246 228 L246 230 L248 230 L249 232 L246 234 L245 241 L243 242 L236 233 L228 228 L224 227 L210 228 L208 226 Z M212 213 L206 218 L204 217 L209 212 Z M341 212 L343 211 L344 213 L342 214 Z M177 212 L179 211 L182 215 L178 216 Z M305 211 L307 210 L313 213 L315 216 L313 217 L307 214 Z M270 211 L272 210 L273 213 L271 214 Z M259 211 L261 210 L262 212 L260 213 Z M248 211 L251 210 L252 212 L249 213 Z M212 211 L214 210 L215 212 L213 213 Z M315 210 L317 209 L318 211 L316 212 Z M299 209 L301 208 L302 210 L300 211 Z M219 209 L221 208 L222 210 L220 211 Z M149 209 L151 208 L152 210 L150 211 Z M284 207 L286 206 L287 208 L285 209 Z M273 205 L275 206 L274 211 L272 210 Z M245 206 L247 205 L248 207 L246 208 Z M211 206 L213 205 L214 207 L212 208 Z M373 205 L375 204 L376 207 L374 208 Z M324 204 L327 207 L326 211 L322 210 Z M195 205 L197 204 L198 206 L196 207 Z M185 204 L186 206 L182 209 L181 207 Z M334 204 L336 203 L338 206 L336 207 Z M145 204 L147 203 L149 207 L146 208 Z M189 200 L190 202 L187 204 L186 202 Z M314 200 L317 199 L319 201 L319 204 L314 206 L313 205 Z M212 200 L216 199 L217 202 L214 203 Z M204 198 L206 199 L205 203 L207 204 L206 206 L202 204 L202 201 Z M240 198 L242 197 L243 199 L241 200 Z M194 196 L195 198 L192 200 L191 198 Z M324 196 L326 195 L332 201 L330 202 Z M305 196 L307 195 L310 198 L310 200 L306 202 Z M297 193 L299 193 L301 196 L301 198 L298 201 L295 200 Z M282 193 L283 195 L281 197 L281 200 L279 201 L278 194 Z M223 193 L225 194 L224 200 L220 198 Z M197 194 L199 193 L200 195 L198 196 Z M318 193 L320 192 L323 195 L321 196 Z M314 191 L316 190 L317 192 L315 193 Z M244 190 L245 192 L240 197 L238 194 L242 190 Z M303 188 L305 187 L306 189 L304 190 Z M214 188 L216 187 L217 189 L215 190 Z M299 187 L301 186 L302 188 L300 189 Z M258 185 L264 186 L265 188 L263 190 L268 193 L268 197 L263 203 L258 203 L254 198 L254 191 Z M276 182 L278 183 L277 187 L275 186 Z M243 182 L245 181 L246 183 L244 184 Z M213 182 L215 181 L216 183 L214 184 Z M313 181 L315 180 L316 182 L314 183 Z M305 181 L307 180 L308 182 L306 183 Z M204 181 L206 180 L207 182 L205 183 Z M227 180 L229 179 L230 181 L228 182 Z M292 179 L294 178 L295 180 L293 181 Z M274 178 L275 180 L271 182 L270 180 Z M309 178 L311 177 L312 179 L310 180 Z M279 178 L281 177 L283 181 L281 182 Z M245 179 L247 177 L251 178 L250 181 L246 181 Z M241 177 L242 179 L239 182 L238 180 Z M298 171 L300 170 L301 173 L299 174 Z M269 170 L270 173 L266 175 L264 172 Z M236 170 L237 172 L230 177 L229 175 L234 170 Z M292 170 L294 169 L295 171 L293 172 Z M285 169 L287 170 L288 173 L287 176 L283 175 L283 171 Z M278 169 L280 165 L283 166 L281 170 Z M255 166 L258 165 L259 169 L257 170 Z M261 165 L264 164 L266 166 L266 169 L263 170 L261 168 Z M238 165 L240 164 L245 169 L244 172 L241 171 Z M289 164 L292 161 L295 163 L294 166 L290 166 Z M245 162 L247 161 L248 163 L246 164 Z M228 160 L231 162 L232 164 L231 166 L229 166 L226 163 Z M218 161 L220 160 L221 162 L219 163 Z M277 159 L278 162 L274 165 L273 162 Z M302 155 L304 154 L305 156 L303 157 Z M236 153 L238 152 L239 154 L237 155 Z M282 151 L284 152 L283 156 L281 155 Z M244 151 L245 150 L248 151 L249 154 L247 155 Z M258 150 L261 148 L265 153 L263 154 L259 152 Z M262 142 L264 141 L265 143 L263 144 Z M228 138 L230 137 L231 139 L229 140 Z M228 132 L230 131 L231 133 L229 134 Z M293 130 L294 132 L291 134 L290 132 Z M268 131 L270 130 L271 132 L269 133 Z M260 130 L263 132 L262 137 L258 135 L258 132 Z M250 131 L252 130 L253 132 L251 133 Z M252 125 L255 124 L256 126 L253 127 Z M266 124 L268 123 L270 126 L268 127 Z M276 119 L278 118 L279 120 L277 121 Z M260 114 L264 118 L263 121 L257 120 Z M277 104 L279 103 L280 106 L278 107 Z M241 104 L243 103 L244 105 L242 106 Z M259 102 L261 101 L262 103 L260 104 Z M246 102 L248 101 L250 105 L248 106 Z M240 98 L243 97 L244 99 L241 100 Z M278 97 L280 96 L281 98 L279 99 Z M245 95 L247 94 L248 96 L246 97 Z M257 96 L261 93 L264 97 L258 98 Z M273 85 L275 84 L276 86 L274 87 Z M248 84 L249 86 L246 88 L245 86 Z M258 85 L262 83 L264 87 L261 88 Z M259 73 L262 72 L263 74 L260 75 Z M271 58 L272 59 L271 65 L268 69 L266 69 L265 67 L267 65 L267 59 Z M260 56 L262 57 L264 62 L259 64 L258 59 Z M260 29 L266 41 L266 46 L269 48 L271 55 L265 56 L262 51 L262 47 L260 47 L255 58 L256 67 L254 68 L251 65 L251 56 L254 53 L254 47 L258 41 L258 30 Z"/></svg>
