<svg xmlns="http://www.w3.org/2000/svg" width="512" height="512" viewBox="0 0 512 512" aria-hidden="true" focusable="false"><path fill="currentColor" fill-rule="evenodd" clip-rule="evenodd" d="M246 436 L244 436 L231 445 L243 440 Z M253 431 L251 430 L248 433 L248 435 Z M294 386 L292 386 L291 391 L284 408 L282 410 L282 413 L279 416 L279 419 L272 430 L273 432 L277 428 L286 410 L286 407 L290 400 Z M201 368 L202 373 L204 374 L207 373 L207 371 L204 371 Z M304 352 L301 355 L298 368 L300 367 L300 363 L304 356 Z M244 290 L250 293 L263 293 L269 291 L268 289 L263 291 L250 291 L245 289 Z M248 279 L250 281 L262 281 L262 280 Z M242 243 L242 245 L248 247 L248 250 L252 253 L252 256 L254 255 L261 256 L261 253 L265 250 L265 247 L270 245 L270 242 L266 243 L261 240 L257 242 L252 240 L247 243 L244 242 Z M249 247 L252 246 L257 248 L262 246 L263 249 L259 251 L251 250 Z M328 207 L328 209 L342 217 L347 212 L345 210 Z M290 207 L285 207 L279 210 L268 209 L265 211 L265 213 L273 216 L280 216 L287 210 L290 209 Z M185 207 L168 210 L166 212 L171 217 L185 209 Z M335 202 L335 204 L343 203 L340 201 Z M270 202 L270 204 L273 203 L283 204 L283 202 L280 201 Z M223 207 L223 209 L226 210 L233 216 L240 216 L248 212 L245 209 L234 210 L229 207 L229 205 L233 203 L243 204 L243 202 L240 201 L230 202 L229 204 L227 204 L226 207 Z M170 202 L170 204 L173 203 L178 204 L178 202 L175 201 Z M291 198 L281 192 L275 192 L269 194 L263 199 L260 204 L259 216 L260 216 L261 206 L266 200 L276 196 L281 196 L289 200 L291 200 Z M223 197 L223 199 L225 199 L228 197 L237 196 L247 200 L251 204 L252 208 L252 232 L250 233 L249 229 L247 229 L246 233 L248 235 L252 235 L255 237 L266 234 L267 232 L266 229 L264 229 L263 233 L259 234 L254 233 L253 231 L254 208 L250 199 L246 195 L237 192 L232 192 Z M256 180 L253 188 L253 194 L255 194 L257 197 L260 194 L260 189 L257 183 L257 180 Z M256 186 L258 187 L259 190 L258 192 L254 191 Z M255 17 L246 52 L238 62 L240 72 L230 84 L223 111 L209 83 L187 134 L175 143 L163 127 L159 158 L162 209 L153 232 L161 236 L167 252 L165 260 L173 266 L187 265 L193 284 L150 311 L132 340 L128 369 L107 344 L100 319 L109 293 L108 274 L100 254 L103 238 L111 228 L104 222 L108 212 L94 175 L83 212 L87 222 L79 229 L88 238 L90 248 L80 258 L67 311 L72 345 L98 398 L75 438 L84 447 L86 458 L100 467 L117 470 L128 466 L155 440 L181 374 L194 418 L192 430 L170 467 L210 487 L225 485 L226 490 L232 490 L242 483 L255 496 L271 484 L281 490 L288 485 L303 487 L305 482 L315 482 L343 466 L334 457 L333 445 L321 432 L318 421 L321 399 L332 374 L357 441 L396 480 L411 469 L419 451 L420 426 L430 408 L424 380 L443 329 L442 276 L426 254 L413 250 L419 231 L441 228 L433 219 L435 202 L428 200 L415 179 L408 192 L402 193 L402 203 L397 204 L398 222 L411 230 L402 264 L404 296 L412 315 L404 321 L404 339 L384 369 L380 339 L364 311 L347 296 L325 290 L320 284 L323 268 L343 265 L348 259 L351 236 L360 232 L351 209 L349 180 L354 159 L349 126 L336 144 L324 132 L325 123 L304 83 L290 110 L282 82 L272 69 L275 62 L267 52 L266 36 Z M252 486 L254 485 L256 489 L259 486 L260 490 L257 493 L255 493 L252 490 Z M279 485 L283 484 L284 486 L280 487 Z M262 485 L265 484 L266 486 L263 487 Z M229 485 L233 484 L234 486 L230 487 Z M282 481 L284 480 L285 482 L283 483 Z M264 481 L266 480 L267 483 L265 484 Z M228 481 L230 480 L231 483 L229 484 Z M253 480 L255 479 L256 481 L254 482 Z M247 479 L252 482 L252 484 L249 487 L246 485 Z M293 479 L295 478 L297 481 L300 478 L301 484 L300 485 L294 484 Z M212 478 L214 477 L215 480 L218 481 L219 483 L216 485 L213 485 Z M302 476 L303 475 L306 475 L309 477 L312 476 L313 479 L308 480 L306 478 L303 478 Z M237 476 L238 475 L244 476 L245 478 L240 479 Z M206 476 L209 475 L210 477 L207 478 Z M276 476 L273 479 L268 478 L269 476 L272 476 L273 474 Z M309 473 L311 472 L312 474 L310 475 Z M201 472 L203 473 L203 477 L205 478 L204 480 L200 479 Z M314 471 L316 470 L317 472 L315 473 Z M195 471 L197 470 L198 472 L196 473 Z M186 471 L188 470 L191 471 L192 473 L188 474 Z M322 466 L324 466 L326 469 L325 474 L320 473 L321 471 L323 471 L323 469 L321 468 Z M331 465 L336 463 L338 466 L333 468 Z M175 465 L178 462 L182 466 L176 467 Z M307 462 L309 461 L311 464 L308 465 Z M302 461 L303 464 L301 465 L301 467 L296 469 L295 467 L299 464 L298 462 Z M275 461 L279 461 L283 466 L278 472 L274 471 L278 467 L278 465 L274 463 Z M234 461 L239 462 L238 464 L234 465 L234 467 L239 470 L238 472 L234 472 L230 467 L230 465 Z M284 463 L285 460 L288 461 L286 464 Z M253 461 L257 460 L261 463 L259 466 L260 469 L259 472 L257 470 L254 472 L251 469 L251 465 Z M225 461 L227 460 L228 462 L226 463 Z M197 461 L199 460 L200 462 L198 463 Z M396 459 L399 458 L407 461 L409 463 L409 467 L405 469 L404 466 L396 462 Z M315 459 L318 458 L319 460 L316 461 Z M292 459 L295 458 L296 461 L293 462 Z M202 459 L204 458 L205 461 L203 462 Z M192 458 L195 457 L196 459 L193 460 Z M299 457 L301 456 L302 458 L300 459 Z M211 456 L218 458 L220 460 L219 462 L214 463 L218 467 L217 469 L213 468 L212 465 L210 464 L212 462 L210 458 Z M205 456 L207 455 L208 457 L206 458 Z M267 456 L269 454 L273 454 L276 456 L275 459 L273 457 L268 458 Z M237 458 L239 454 L244 455 L243 457 L240 457 L239 459 Z M194 454 L196 453 L197 455 L195 456 Z M200 453 L202 452 L205 455 L202 456 Z M397 453 L399 450 L404 450 L411 453 L413 455 L413 459 L410 460 L398 455 Z M255 451 L257 450 L258 452 L256 453 Z M196 451 L198 450 L199 452 L197 453 Z M193 449 L195 448 L196 450 L194 451 Z M262 448 L264 447 L265 449 L263 450 Z M247 448 L250 447 L253 450 L250 451 Z M187 447 L190 448 L189 453 L184 452 Z M328 447 L330 446 L331 448 L329 449 Z M324 446 L326 447 L328 451 L327 453 L324 453 L322 451 L322 448 Z M309 449 L312 446 L314 447 L311 450 Z M197 446 L199 445 L205 448 L206 450 L204 451 L198 448 Z M121 446 L126 445 L127 447 L122 448 Z M314 445 L316 444 L317 446 L315 447 Z M398 444 L400 442 L412 443 L416 446 L416 451 L413 452 L411 450 L401 448 Z M193 443 L195 442 L197 445 L195 446 Z M256 440 L260 444 L259 449 L257 448 L257 445 L254 449 L252 448 L252 444 Z M124 440 L126 441 L125 444 L122 443 Z M323 438 L324 440 L319 444 L318 442 Z M189 439 L191 438 L192 440 L190 441 Z M95 439 L97 437 L101 438 L101 452 L105 460 L107 459 L104 453 L104 439 L105 438 L108 438 L110 441 L110 451 L114 458 L115 456 L113 453 L112 443 L113 438 L117 442 L118 450 L122 455 L126 456 L127 454 L131 452 L130 448 L134 444 L137 447 L137 451 L135 456 L126 464 L120 465 L117 467 L113 467 L110 465 L104 466 L95 460 L97 458 L95 453 Z M414 435 L418 437 L417 442 L413 442 L411 440 Z M375 435 L376 438 L372 442 L371 439 Z M88 435 L92 436 L92 452 L95 457 L94 460 L91 459 L87 455 L86 442 Z M407 435 L409 434 L410 437 L408 438 Z M78 434 L81 434 L83 436 L84 439 L83 443 L79 440 L77 436 Z M404 432 L406 438 L402 439 L398 437 L395 439 L392 439 L393 441 L392 448 L389 451 L384 452 L384 453 L391 454 L388 466 L387 467 L380 463 L377 456 L377 449 L379 447 L379 443 L382 437 L390 431 Z M211 432 L214 431 L215 433 L212 434 Z M378 431 L380 430 L381 432 L379 433 Z M204 428 L207 429 L206 434 L203 433 Z M213 427 L218 426 L220 429 L224 428 L225 430 L216 433 Z M205 424 L207 423 L208 425 L206 426 Z M119 423 L123 422 L124 427 L123 428 L120 427 Z M101 421 L104 422 L103 428 L98 427 L98 424 Z M221 420 L224 419 L225 422 L229 421 L230 424 L234 423 L235 425 L228 429 L227 425 L224 426 L222 425 Z M123 422 L124 419 L127 420 L125 423 Z M111 419 L112 421 L107 425 L106 424 L107 421 Z M114 419 L116 418 L117 421 L115 422 Z M103 419 L105 418 L106 421 L104 422 Z M99 417 L100 419 L96 423 L95 418 Z M87 419 L89 416 L92 417 L91 421 L88 421 Z M288 416 L290 415 L291 417 L289 418 Z M230 415 L232 416 L233 419 L232 421 L230 421 L228 418 Z M128 416 L130 415 L132 418 L130 419 Z M235 412 L238 413 L236 418 L233 415 Z M116 413 L118 412 L119 414 L117 415 Z M108 413 L112 412 L113 415 L109 416 Z M101 413 L105 412 L106 415 L104 416 Z M252 409 L255 414 L246 423 L241 421 L240 419 L246 414 L248 414 L248 411 Z M291 409 L293 408 L294 410 L292 411 Z M124 406 L126 405 L127 407 L125 408 Z M253 405 L255 404 L256 406 L254 407 Z M293 404 L295 403 L296 405 L294 406 Z M257 404 L259 403 L260 405 L258 406 Z M247 403 L249 407 L242 414 L238 410 Z M418 399 L419 404 L414 414 L416 419 L411 420 L404 427 L402 421 L408 415 L415 404 L416 400 Z M390 398 L392 399 L391 405 L389 404 Z M108 400 L109 397 L117 396 L119 398 L117 401 Z M104 396 L106 397 L105 401 L101 399 Z M296 396 L298 395 L299 397 L297 398 Z M297 393 L299 392 L300 394 L298 395 Z M107 393 L109 392 L110 394 L108 395 Z M268 392 L270 391 L271 393 L269 394 Z M241 392 L244 391 L245 393 L242 394 Z M298 390 L300 389 L301 391 L299 392 Z M412 388 L416 391 L416 395 L407 412 L401 417 L397 405 L398 396 L403 389 Z M239 389 L241 388 L242 391 L240 392 Z M255 387 L259 389 L259 392 L257 394 L253 391 Z M393 387 L395 386 L396 388 L394 389 Z M299 387 L301 386 L302 388 L300 389 Z M282 387 L269 419 L267 420 L258 435 L249 444 L247 444 L242 451 L229 453 L211 449 L201 443 L202 441 L215 441 L229 437 L244 428 L255 418 L267 401 L271 398 L271 396 L278 391 L278 388 L280 386 Z M268 387 L270 386 L271 388 L269 389 Z M110 384 L113 387 L112 391 L108 390 L108 387 Z M407 384 L410 383 L411 385 L408 386 Z M300 384 L302 383 L303 385 L301 386 Z M380 380 L382 379 L383 382 L381 383 Z M129 380 L131 379 L132 382 L130 383 Z M259 381 L260 378 L263 379 L261 382 Z M251 378 L253 379 L252 383 L250 382 Z M273 377 L275 376 L276 378 L274 379 Z M133 377 L135 376 L136 378 L134 379 Z M325 375 L326 378 L315 411 L315 422 L319 437 L302 449 L284 453 L275 452 L273 449 L288 430 L294 418 L306 381 Z M257 376 L259 375 L260 377 L258 378 Z M368 374 L374 382 L383 388 L387 408 L384 409 L380 406 L370 405 L362 410 L369 408 L380 409 L388 416 L389 421 L387 426 L382 426 L371 434 L365 446 L358 438 L353 428 L342 386 L354 378 Z M253 375 L255 374 L256 376 L254 377 Z M144 374 L159 378 L171 387 L161 416 L159 427 L150 441 L147 440 L146 435 L139 427 L138 420 L130 408 L140 405 L148 407 L153 411 L155 410 L144 403 L127 404 L130 387 L139 382 Z M255 373 L257 372 L258 374 L256 375 Z M341 370 L343 371 L344 374 L343 376 L340 375 Z M279 369 L280 370 L279 376 L276 377 L275 374 L277 373 L277 370 Z M372 369 L374 368 L375 371 L373 372 Z M136 369 L139 368 L140 371 L137 372 Z M354 368 L356 367 L357 369 L355 370 Z M306 367 L307 368 L304 381 L302 382 L301 378 L304 368 Z M157 366 L159 367 L158 370 L155 369 Z M352 365 L354 364 L355 366 L353 367 Z M305 365 L307 364 L308 366 L306 367 Z M306 362 L308 361 L309 363 L307 364 Z M283 360 L285 359 L286 361 L284 362 Z M307 359 L309 358 L310 360 L308 361 Z M279 354 L281 356 L281 358 L279 359 L279 362 L276 364 L271 374 L266 378 L264 376 L265 372 L276 356 Z M366 353 L368 352 L371 356 L370 357 L367 356 Z M255 353 L257 352 L258 354 L256 355 Z M142 351 L144 350 L146 353 L144 354 Z M377 350 L379 349 L381 353 L379 354 Z M253 350 L255 349 L256 352 L254 353 Z M258 348 L260 349 L259 353 L257 352 Z M132 349 L134 348 L135 351 L133 352 Z M84 354 L91 353 L104 345 L106 346 L121 366 L121 368 L128 375 L126 381 L127 391 L124 398 L117 394 L116 388 L111 380 L108 382 L105 387 L105 391 L102 394 L98 392 L83 358 Z M79 346 L83 345 L84 347 L80 348 Z M262 345 L264 344 L265 346 L263 347 Z M369 346 L370 343 L373 344 L371 347 Z M139 344 L142 343 L144 346 L142 347 Z M86 343 L88 344 L87 347 L84 346 Z M277 343 L280 342 L281 344 L278 345 Z M247 343 L250 342 L251 346 L249 347 Z M232 343 L235 342 L236 344 L233 345 Z M430 351 L421 379 L411 376 L402 377 L394 382 L388 391 L386 390 L387 385 L385 374 L387 373 L388 369 L394 362 L395 358 L406 341 L418 348 L428 349 Z M92 343 L92 341 L95 339 L99 340 L95 344 Z M272 339 L274 338 L275 340 L273 341 Z M222 340 L227 337 L232 349 L235 349 L241 343 L243 343 L248 352 L250 352 L256 360 L262 352 L266 350 L270 343 L277 348 L277 351 L262 372 L260 372 L256 368 L246 380 L241 381 L235 378 L227 366 L222 348 Z M412 336 L418 335 L421 340 L419 341 L413 338 Z M373 334 L375 335 L374 339 L371 338 Z M313 334 L314 337 L308 350 L301 375 L299 376 L296 372 L294 381 L298 377 L300 379 L295 395 L283 422 L286 427 L284 430 L282 429 L282 427 L280 427 L279 431 L281 431 L282 434 L274 445 L269 449 L266 444 L259 439 L259 436 L267 427 L276 411 L287 379 L293 372 L296 363 L296 356 L301 349 L304 339 L307 337 L309 342 L309 338 Z M290 335 L292 334 L293 336 L291 337 Z M220 335 L222 334 L223 336 L221 337 Z M138 335 L140 334 L141 336 L139 337 Z M72 334 L74 333 L75 335 L73 336 Z M408 333 L410 332 L411 334 L409 335 Z M259 333 L262 332 L263 335 L260 336 Z M249 333 L253 332 L254 334 L250 335 Z M241 333 L243 332 L244 334 L242 335 Z M303 331 L307 330 L308 333 L306 334 Z M430 330 L432 329 L433 331 L431 332 Z M322 328 L323 330 L316 343 L312 355 L309 358 L308 356 L313 343 L320 329 Z M215 328 L216 330 L213 332 L212 330 Z M92 329 L94 328 L95 330 L93 331 Z M204 328 L206 327 L207 330 L209 330 L210 332 L205 334 Z M313 326 L318 328 L315 334 L313 333 L314 329 L312 328 Z M317 325 L319 324 L320 326 L318 327 Z M323 324 L325 323 L326 325 L324 326 Z M299 322 L301 321 L302 323 L300 324 Z M283 324 L284 321 L288 322 L285 325 Z M238 322 L240 321 L241 323 L239 324 Z M210 322 L212 321 L213 323 L211 324 Z M94 322 L97 321 L98 324 L95 325 Z M319 321 L321 320 L322 322 L320 323 Z M315 320 L316 323 L312 325 L311 323 Z M255 320 L259 321 L258 327 L254 326 L253 322 Z M223 321 L225 320 L232 322 L233 325 L230 326 L224 323 Z M297 319 L299 318 L300 320 L298 321 Z M292 318 L293 315 L296 316 L294 319 Z M202 315 L204 314 L205 316 L203 317 Z M228 313 L230 312 L235 314 L236 316 L231 317 Z M331 312 L333 311 L334 313 L332 314 Z M259 312 L262 311 L263 315 L261 316 Z M250 312 L253 311 L254 314 L251 315 Z M298 310 L300 309 L301 312 L299 313 Z M289 310 L287 314 L284 314 L281 317 L276 316 L277 314 L287 309 Z M430 309 L432 308 L433 311 L431 312 Z M257 309 L259 308 L260 310 L258 311 Z M253 309 L255 308 L256 310 L254 311 Z M245 309 L247 308 L248 310 L246 311 Z M222 309 L224 308 L228 312 L226 313 Z M334 307 L336 306 L337 309 L335 310 Z M330 306 L331 307 L330 310 L324 319 L322 320 L318 311 L321 308 L328 308 Z M255 307 L257 306 L258 308 L256 309 Z M209 307 L211 306 L214 311 L212 312 Z M218 304 L220 303 L221 305 L219 306 Z M202 304 L204 303 L205 305 L203 306 Z M352 303 L362 313 L369 329 L369 337 L364 352 L362 354 L358 352 L350 358 L345 355 L345 359 L341 362 L339 357 L344 341 L342 340 L336 357 L330 366 L322 373 L309 377 L313 358 L326 329 L344 304 L347 302 Z M317 303 L319 302 L320 304 L318 305 Z M303 303 L305 302 L306 304 L304 305 Z M294 302 L295 304 L292 306 L291 304 Z M206 302 L208 301 L210 305 L208 306 Z M95 301 L97 302 L98 307 L96 319 L94 318 L94 302 Z M216 301 L218 300 L219 302 L217 303 Z M168 300 L196 309 L192 319 L202 321 L202 337 L213 336 L220 372 L244 400 L219 418 L208 421 L197 419 L195 402 L186 376 L203 380 L218 377 L201 377 L189 372 L178 360 L170 340 L168 342 L172 359 L167 359 L169 355 L163 358 L148 351 L144 337 L146 324 L154 310 Z M341 300 L343 299 L344 301 L342 302 Z M326 299 L328 300 L327 304 L325 303 Z M294 300 L296 299 L297 301 L295 302 Z M179 299 L181 298 L182 300 L180 301 Z M335 296 L336 299 L332 301 L331 299 Z M208 297 L210 296 L211 298 L209 299 Z M323 295 L325 294 L326 296 L324 297 Z M320 292 L322 291 L323 293 L321 294 Z M190 292 L193 291 L194 293 L191 294 Z M106 278 L107 279 L107 293 L104 304 L101 307 L100 306 L100 293 L102 291 L102 284 L104 282 L104 279 Z M300 271 L302 272 L301 276 L297 274 Z M211 272 L213 271 L215 274 L212 276 Z M417 268 L425 268 L429 270 L434 268 L441 282 L443 296 L439 320 L435 327 L430 327 L419 323 L415 319 L417 313 L412 308 L408 300 L405 284 L406 280 L411 286 L411 290 L419 304 L420 314 L422 314 L422 305 L424 304 L428 312 L428 320 L435 317 L436 309 L433 302 L430 300 L428 293 L424 290 L421 296 L417 294 L419 288 L423 284 L433 284 L422 282 L415 289 L413 288 L413 285 L419 276 L426 276 L432 278 L433 276 L429 274 L420 273 L411 281 L410 278 Z M407 268 L409 269 L410 272 L408 276 L406 275 Z M93 268 L99 273 L100 275 L99 278 L93 273 L86 274 L80 277 L81 279 L93 276 L99 284 L98 287 L92 282 L81 284 L81 286 L90 284 L95 289 L94 292 L92 292 L90 289 L85 292 L87 294 L87 299 L90 306 L90 311 L87 319 L91 320 L91 326 L83 331 L75 332 L73 329 L70 315 L70 303 L73 288 L78 274 L89 268 Z M101 266 L103 267 L104 270 L103 272 L100 270 Z M209 265 L211 264 L212 266 L210 267 Z M306 262 L308 261 L309 263 L307 264 Z M204 262 L206 261 L207 263 L205 264 Z M220 285 L228 276 L231 260 L251 271 L268 269 L282 260 L284 274 L293 287 L290 293 L292 296 L289 299 L285 297 L272 305 L262 307 L256 302 L251 307 L238 304 L228 297 L224 300 L221 297 L223 293 Z M192 264 L197 260 L201 259 L202 260 L201 266 L202 267 L207 266 L209 270 L209 273 L206 275 L206 277 L209 279 L213 279 L222 271 L224 267 L224 261 L226 260 L227 261 L226 273 L222 280 L217 280 L196 288 L195 287 L196 277 Z M286 263 L287 262 L289 263 L289 268 L296 277 L300 279 L304 279 L306 278 L304 269 L306 267 L311 266 L311 259 L313 258 L319 262 L321 266 L317 275 L318 287 L316 288 L314 286 L310 286 L296 280 L291 280 L287 273 Z M303 258 L305 257 L306 259 L304 260 Z M207 258 L209 257 L210 259 L208 260 Z M96 257 L98 258 L97 266 L94 265 L94 259 Z M307 257 L309 256 L310 258 L308 259 Z M203 257 L205 256 L206 258 L204 259 Z M406 261 L413 254 L419 254 L424 256 L430 262 L432 266 L430 267 L424 265 L422 263 L422 260 L415 259 L409 264 L407 264 Z M209 253 L211 252 L212 254 L210 255 Z M93 251 L94 254 L90 256 L88 265 L82 268 L81 265 L83 259 L88 252 Z M202 251 L204 250 L205 252 L203 253 Z M408 246 L410 245 L411 247 L409 248 Z M91 238 L94 236 L98 236 L100 239 L92 240 Z M411 236 L413 235 L414 237 L412 238 Z M205 234 L208 233 L210 237 L206 239 Z M305 232 L307 233 L306 237 L303 236 Z M86 233 L88 232 L89 234 L87 235 Z M103 231 L105 230 L106 233 L104 234 Z M414 228 L416 229 L415 233 L413 232 Z M94 228 L96 227 L98 230 L95 232 Z M82 228 L84 227 L85 229 L83 230 Z M106 227 L108 226 L109 229 L107 230 Z M97 225 L99 224 L100 226 L98 227 Z M423 229 L429 223 L435 224 L435 226 L429 230 Z M92 225 L94 221 L98 222 L94 226 Z M102 215 L103 217 L100 220 L99 218 Z M88 216 L90 215 L91 217 L89 218 Z M429 207 L431 211 L431 217 L429 223 L424 226 L421 226 L420 223 L424 216 L424 213 L426 209 Z M400 207 L406 212 L407 218 L410 223 L409 225 L404 225 L400 221 L399 218 L400 212 L399 208 Z M306 207 L309 210 L307 224 L301 237 L298 238 L294 236 L295 231 L300 230 L304 222 L303 209 Z M207 207 L210 209 L209 213 L210 225 L213 230 L216 230 L218 232 L218 236 L214 238 L212 237 L211 233 L208 230 L203 210 L206 209 Z M414 201 L416 201 L421 208 L421 211 L418 212 L418 218 L416 222 L413 220 L412 212 L409 211 L409 208 Z M300 206 L305 201 L310 202 L309 205 L304 205 L302 207 Z M203 202 L208 201 L213 206 L211 207 L209 205 L204 205 Z M421 198 L423 198 L426 202 L426 205 L424 207 L422 206 L420 202 Z M407 196 L410 202 L408 206 L405 208 L404 203 L405 197 Z M92 194 L94 195 L94 213 L93 214 L87 210 Z M418 194 L420 193 L421 195 L419 196 Z M97 191 L99 192 L104 211 L99 214 L96 213 L96 192 Z M299 191 L302 190 L303 193 L301 194 Z M210 191 L213 190 L214 192 L211 193 Z M318 189 L320 192 L315 197 L314 192 Z M194 188 L199 192 L198 197 L193 191 Z M308 186 L310 187 L309 191 L307 190 Z M203 184 L206 187 L205 191 L203 190 L202 186 Z M324 178 L325 180 L320 186 L319 182 Z M301 179 L304 178 L305 181 L302 182 Z M291 179 L293 178 L295 182 L293 183 Z M209 178 L211 179 L210 183 L208 182 Z M341 176 L346 179 L350 198 L348 199 L341 193 L334 193 L326 200 L338 196 L349 202 L349 209 L357 231 L347 232 L346 228 L348 226 L344 228 L344 232 L349 235 L349 238 L343 241 L339 240 L338 244 L347 245 L342 250 L345 259 L340 263 L331 263 L313 256 L312 238 L309 236 L308 226 L313 207 L317 203 L325 184 L331 178 Z M222 176 L223 179 L220 185 L218 186 L217 182 L219 178 Z M172 176 L179 177 L188 184 L196 203 L200 207 L205 227 L204 236 L201 238 L202 248 L200 255 L193 260 L182 263 L173 263 L168 260 L168 254 L171 250 L166 245 L175 244 L174 240 L170 241 L163 238 L163 235 L169 232 L169 228 L165 226 L166 232 L156 231 L156 226 L163 212 L163 203 L175 196 L185 199 L179 193 L172 193 L165 199 L163 198 L166 181 Z M328 175 L330 174 L331 176 L329 177 Z M319 175 L321 174 L322 176 L320 177 Z M191 175 L193 174 L194 176 L192 177 Z M211 174 L214 173 L215 175 L212 176 Z M205 174 L207 173 L208 176 L206 177 Z M285 173 L287 172 L289 175 L287 176 Z M235 173 L281 174 L289 181 L296 201 L295 225 L286 249 L275 261 L262 268 L252 268 L238 261 L228 251 L219 231 L217 201 L224 181 Z M176 173 L178 172 L179 174 L177 175 Z M169 173 L171 172 L172 174 L170 175 Z M328 170 L329 172 L325 174 L324 172 Z M184 171 L187 170 L189 173 L187 174 Z M279 170 L281 169 L282 171 L280 172 Z M231 170 L233 169 L234 171 L232 172 Z M181 170 L183 169 L184 171 L182 172 Z M333 167 L335 168 L334 171 L331 170 Z M286 168 L288 167 L289 169 L287 170 Z M224 168 L226 167 L227 169 L225 170 Z M200 168 L202 167 L203 170 L201 171 Z M281 166 L284 165 L285 167 L282 168 Z M215 166 L218 165 L219 167 L216 168 Z M189 165 L192 164 L193 166 L190 167 Z M275 164 L278 163 L280 166 L276 167 Z M238 164 L236 167 L231 168 L228 167 L229 165 L236 163 Z M349 162 L352 161 L353 164 L351 165 Z M248 162 L250 161 L251 163 L249 164 Z M161 160 L163 161 L162 165 L160 164 Z M179 160 L181 159 L182 161 L180 162 Z M282 158 L284 157 L285 159 L283 160 Z M252 158 L254 155 L260 156 L260 160 L257 162 L253 160 Z M344 155 L347 154 L348 157 L345 158 Z M165 155 L167 154 L168 157 L166 158 Z M311 154 L313 153 L314 155 L312 156 Z M199 154 L201 153 L202 155 L200 156 Z M259 151 L263 150 L264 154 L262 155 Z M251 150 L252 154 L249 157 L248 156 L249 151 Z M347 150 L350 149 L351 152 L348 153 Z M304 150 L306 149 L307 151 L305 152 Z M292 148 L294 149 L293 153 L291 152 Z M162 149 L164 148 L165 151 L163 152 Z M253 148 L255 147 L256 149 L254 150 Z M255 146 L257 145 L258 147 L256 148 Z M309 147 L312 144 L314 148 L310 149 Z M288 145 L290 144 L291 146 L289 147 Z M222 145 L224 144 L226 147 L224 148 Z M328 139 L330 141 L330 146 L326 148 L323 142 Z M278 140 L280 139 L281 141 L279 142 Z M232 140 L234 139 L235 141 L233 142 Z M292 140 L295 137 L297 141 L293 142 Z M218 137 L220 138 L219 141 L216 140 Z M188 137 L189 139 L192 140 L192 142 L186 148 L183 144 L183 141 Z M313 136 L319 142 L318 147 L315 146 L312 138 Z M266 135 L271 136 L271 144 L269 148 L267 147 L265 137 Z M243 135 L247 136 L247 147 L246 148 L243 147 L241 141 Z M256 134 L260 137 L261 141 L260 143 L257 140 L255 141 L253 140 L253 137 Z M208 133 L209 134 L208 142 L203 144 L204 148 L200 149 L199 144 L195 147 L194 142 L196 139 L203 133 L205 135 Z M305 132 L308 132 L309 134 L312 135 L310 138 L311 139 L310 143 L305 142 L303 135 Z M192 131 L194 129 L197 129 L200 134 L194 136 Z M315 128 L321 131 L322 135 L321 139 L318 138 L314 133 Z M298 129 L301 128 L302 130 L299 131 Z M223 128 L224 131 L221 134 L220 130 Z M303 128 L312 127 L313 129 L304 130 Z M287 128 L288 127 L291 128 L293 130 L293 133 L291 134 Z M200 128 L208 127 L209 129 L201 130 Z M260 128 L265 126 L268 130 L268 133 L267 134 L264 133 Z M248 126 L252 128 L250 132 L246 130 Z M233 126 L234 128 L230 135 L230 139 L229 140 L225 139 L224 135 L226 131 L231 126 Z M280 125 L286 130 L289 136 L288 139 L283 138 L282 133 L279 128 Z M272 124 L279 131 L277 137 L275 137 L273 134 L271 126 Z M241 124 L242 126 L240 130 L239 138 L237 139 L234 134 L234 131 Z M286 123 L289 122 L290 125 L288 126 Z M224 123 L227 122 L228 124 L225 125 Z M230 123 L231 121 L235 120 L240 121 L239 123 L236 124 Z M266 120 L267 119 L279 121 L284 120 L286 123 L285 124 L268 123 Z M242 120 L246 119 L247 122 L243 123 Z M196 118 L198 119 L197 124 L195 123 Z M302 119 L304 117 L307 117 L309 119 L309 122 L315 121 L317 119 L320 124 L319 125 L317 124 L308 125 Z M280 117 L282 116 L283 118 L281 119 Z M230 117 L232 116 L233 118 L231 119 Z M220 117 L222 116 L223 118 L221 119 Z M208 116 L211 119 L211 121 L207 125 L203 125 L202 123 L204 122 L204 119 Z M274 116 L276 115 L277 117 L275 118 Z M256 115 L259 117 L262 123 L260 127 L258 126 L257 122 L254 127 L251 125 L252 120 Z M309 107 L312 106 L313 109 L310 110 Z M304 106 L307 107 L306 111 L302 110 Z M199 108 L201 106 L204 107 L203 110 L200 110 Z M208 105 L211 107 L210 111 L205 109 Z M273 105 L277 104 L278 107 L282 106 L283 109 L278 110 Z M267 105 L269 104 L270 106 L268 107 Z M238 105 L236 109 L234 110 L230 109 L232 105 L235 104 Z M246 103 L247 106 L246 110 L244 111 L243 105 Z M251 108 L256 102 L263 106 L263 109 L260 111 L257 110 L254 111 Z M262 98 L263 97 L266 98 L267 102 L265 103 Z M246 100 L249 97 L251 98 L249 101 Z M306 97 L308 96 L309 99 L307 100 Z M205 95 L207 96 L206 100 L203 98 Z M274 93 L276 92 L277 94 L275 95 Z M255 93 L257 92 L258 94 L256 95 Z M236 93 L238 92 L240 95 L237 96 Z M302 90 L304 89 L306 92 L303 93 Z M263 90 L266 89 L268 93 L264 94 Z M210 89 L211 92 L207 95 L206 93 Z M247 87 L250 88 L249 96 L247 96 L245 93 Z M255 85 L257 84 L258 86 L256 87 Z M276 81 L278 82 L281 89 L280 91 L277 88 L275 83 Z M237 81 L238 82 L237 86 L234 89 L233 86 L235 82 Z M245 78 L246 81 L243 86 L243 89 L241 90 L239 86 L241 81 Z M268 73 L271 75 L270 79 L274 86 L273 90 L270 89 L267 81 L266 75 Z M256 70 L258 71 L260 78 L262 79 L261 82 L258 81 L257 77 L254 82 L251 81 Z M258 67 L259 66 L265 67 L266 69 L260 70 Z M255 67 L253 70 L247 69 L248 67 L252 66 Z M255 62 L256 59 L259 60 L257 63 Z M247 55 L251 54 L252 56 L248 57 Z M253 55 L255 53 L258 53 L260 56 L254 57 Z M254 45 L258 44 L261 47 L255 48 Z M256 22 L258 23 L259 29 L261 31 L261 34 L263 37 L262 39 L250 39 L249 38 L254 29 Z"/></svg>
