<svg xmlns="http://www.w3.org/2000/svg" width="512" height="512" viewBox="0 0 512 512" aria-hidden="true" focusable="false"><path fill="currentColor" fill-rule="evenodd" clip-rule="evenodd" d="M257 419 L248 427 L245 433 L245 442 L252 449 L260 449 L264 447 L268 441 L267 431 Z M255 431 L257 431 L261 436 L261 441 L263 442 L261 445 L259 444 L259 442 L254 442 L252 440 L252 435 Z M253 428 L254 430 L251 433 L250 437 L248 438 L247 435 L249 431 Z M259 427 L263 430 L266 438 L264 440 L262 439 L262 434 L258 429 Z M257 424 L258 426 L254 428 L253 426 Z M255 17 L240 60 L245 82 L232 105 L225 108 L221 136 L213 143 L215 161 L210 169 L203 168 L201 178 L176 202 L170 216 L163 216 L161 239 L140 227 L128 209 L123 214 L131 266 L154 317 L151 320 L138 306 L129 304 L134 345 L151 362 L170 362 L183 349 L185 363 L134 388 L114 389 L100 380 L98 385 L122 428 L141 442 L162 445 L167 460 L182 477 L200 475 L221 465 L257 496 L293 464 L313 475 L333 475 L345 461 L350 445 L372 442 L389 430 L413 394 L415 380 L399 389 L382 389 L336 370 L327 361 L326 354 L331 350 L343 362 L361 362 L379 344 L379 316 L384 304 L376 305 L360 321 L358 317 L382 265 L390 216 L385 209 L373 227 L352 239 L349 215 L343 216 L336 201 L312 178 L310 168 L303 169 L288 109 L281 106 L275 88 L268 82 L272 57 Z M234 468 L236 469 L235 474 L232 472 Z M325 468 L327 467 L330 472 L328 473 L325 470 Z M187 467 L188 470 L184 473 L183 472 L184 468 Z M308 464 L311 463 L321 466 L323 472 L320 473 L310 470 L308 468 Z M252 464 L259 463 L260 467 L256 470 L253 468 Z M205 464 L205 467 L203 470 L193 473 L190 472 L190 469 L192 466 L202 463 Z M246 465 L248 462 L250 462 L251 469 L255 473 L257 473 L261 469 L262 463 L264 462 L266 464 L265 472 L256 480 L248 473 Z M241 462 L244 463 L245 474 L254 483 L258 483 L263 479 L265 480 L266 484 L257 493 L247 485 L247 480 L244 481 L242 479 L239 471 L239 464 Z M270 461 L273 463 L274 469 L272 477 L268 481 L265 477 L269 470 L268 462 Z M338 457 L341 461 L332 470 L329 465 L336 457 Z M288 457 L290 459 L288 465 L285 469 L281 468 L281 472 L278 474 L277 468 Z M224 457 L226 457 L229 463 L232 465 L232 468 L230 470 L226 467 L223 462 Z M175 457 L177 457 L182 463 L180 470 L172 461 Z M248 456 L249 455 L253 456 L264 455 L265 457 L255 460 L252 458 L249 458 Z M218 455 L219 456 L218 460 L214 464 L208 467 L207 461 L211 457 Z M272 448 L277 451 L277 455 L275 456 L274 459 L267 456 L268 453 L272 454 L271 451 Z M241 448 L242 449 L241 454 L245 452 L246 455 L239 459 L235 451 Z M285 447 L286 448 L285 453 L282 459 L279 461 L278 459 L280 457 L281 450 Z M227 446 L231 449 L233 456 L232 458 L228 454 L226 448 Z M202 446 L204 445 L205 447 L203 448 Z M291 444 L295 448 L294 454 L295 455 L298 454 L306 461 L305 467 L299 464 L294 459 L294 457 L291 456 L289 452 L289 448 Z M220 444 L223 445 L224 452 L222 454 L217 451 Z M343 442 L346 444 L346 448 L344 455 L341 457 L338 455 L340 445 Z M170 442 L172 443 L175 455 L172 457 L169 456 L167 450 L167 444 Z M338 440 L337 448 L333 456 L330 458 L329 456 L332 449 L332 443 L335 439 Z M176 438 L178 438 L181 443 L180 448 L185 458 L184 460 L179 455 L175 445 Z M347 436 L348 435 L354 436 L361 435 L364 440 L353 442 L349 441 Z M301 436 L300 438 L294 440 L289 439 L292 436 L296 435 Z M212 436 L217 435 L222 437 L223 439 L219 440 L213 438 Z M149 440 L152 435 L157 436 L165 435 L166 436 L165 440 L160 442 Z M320 435 L317 440 L314 441 L311 440 L312 437 L318 434 Z M235 435 L237 434 L238 436 L236 437 Z M193 435 L195 434 L207 440 L207 442 L205 443 L201 441 L196 441 Z M340 434 L343 433 L345 435 L345 438 L342 439 Z M170 433 L172 434 L171 439 L168 438 L168 435 Z M327 430 L329 432 L330 439 L324 440 L329 445 L325 460 L323 462 L317 462 L306 457 L298 448 L297 443 L302 441 L304 446 L309 451 L316 454 L313 447 L309 448 L306 445 L305 441 L307 440 L309 444 L320 443 L322 439 L322 433 Z M315 431 L314 433 L306 436 L303 435 L304 433 L311 430 Z M199 431 L202 430 L209 433 L210 435 L209 436 L200 433 Z M184 431 L187 430 L191 433 L191 439 L193 443 L197 443 L201 445 L200 449 L196 452 L196 454 L204 451 L208 447 L211 441 L216 443 L212 452 L205 458 L199 461 L190 463 L188 461 L183 446 L184 444 L188 443 L188 440 L184 440 L182 438 Z M382 430 L379 434 L370 439 L368 439 L365 436 L366 433 L368 433 L376 427 Z M209 428 L212 427 L213 430 L211 431 Z M130 430 L136 427 L143 432 L147 433 L148 436 L145 439 L143 439 L132 433 Z M332 426 L336 429 L337 432 L336 435 L331 430 Z M300 427 L302 426 L304 429 L301 431 Z M181 426 L182 429 L180 433 L177 435 L176 430 L179 426 Z M323 426 L319 430 L316 429 L320 425 Z M233 425 L240 426 L240 429 L236 430 L233 434 L234 439 L239 443 L237 447 L234 447 L231 445 L232 441 L230 441 L227 436 L227 433 L233 429 L232 427 Z M276 424 L279 425 L286 434 L286 437 L284 438 L284 440 L282 441 L282 444 L279 447 L276 447 L274 445 L274 443 L280 437 L278 431 L273 429 L273 426 Z M188 425 L191 424 L196 429 L194 430 L190 428 Z M227 423 L229 422 L230 424 L228 425 Z M290 421 L298 424 L297 429 L293 432 L290 432 L286 428 Z M223 421 L227 428 L224 431 L219 432 L216 429 L215 425 Z M332 418 L333 420 L329 424 L327 424 L326 422 Z M296 419 L299 418 L300 420 L297 421 Z M179 419 L182 418 L187 423 L184 424 Z M302 423 L306 416 L310 417 L315 416 L319 420 L317 423 L309 427 L305 426 Z M193 421 L197 416 L200 417 L206 416 L208 419 L213 417 L217 419 L216 421 L211 421 L211 423 L205 427 Z M392 414 L393 418 L390 423 L386 427 L381 426 L380 423 L387 414 Z M255 414 L259 415 L266 422 L271 432 L271 441 L269 446 L264 451 L257 453 L247 450 L244 447 L242 440 L240 438 L242 435 L243 427 Z M119 415 L126 414 L133 425 L130 427 L126 427 L122 422 Z M311 412 L313 411 L314 413 L312 414 Z M269 411 L272 411 L276 416 L276 420 L272 424 L270 423 L271 418 L267 419 L265 417 Z M241 411 L243 411 L248 415 L245 419 L241 417 L243 421 L242 424 L236 420 L237 415 Z M348 410 L351 411 L349 414 L346 413 Z M221 411 L222 410 L226 411 L228 413 L228 417 L227 418 L223 417 L221 415 Z M197 411 L199 410 L202 413 L200 414 Z M341 409 L342 412 L336 417 L335 414 Z M170 410 L172 409 L178 416 L176 417 Z M162 410 L164 409 L166 413 L164 414 Z M215 409 L217 408 L218 411 L216 412 Z M326 407 L329 411 L328 415 L324 418 L319 417 L317 415 L319 409 Z M300 408 L298 411 L294 412 L294 414 L290 417 L284 418 L283 415 L281 416 L279 415 L282 412 L286 412 L298 407 Z M186 407 L193 408 L195 415 L191 418 L187 417 L184 413 Z M382 414 L379 420 L374 425 L368 429 L359 432 L351 432 L344 430 L337 424 L338 421 L345 425 L351 425 L363 422 L365 420 L362 411 L363 406 L365 406 L367 409 L371 408 L377 410 Z M131 414 L134 411 L141 408 L147 409 L147 407 L150 405 L151 410 L148 418 L148 422 L161 424 L163 426 L168 425 L173 421 L175 421 L176 424 L172 428 L166 431 L154 432 L147 430 L140 426 L133 419 Z M354 403 L357 405 L356 411 L360 413 L360 419 L356 421 L349 419 L349 421 L346 422 L342 419 L342 417 L353 415 L353 409 L351 405 Z M158 403 L162 405 L160 408 L160 415 L170 417 L170 419 L167 422 L164 422 L163 420 L156 421 L152 418 L153 413 L157 411 L155 406 Z M310 403 L306 407 L302 409 L300 408 L308 402 Z M203 403 L205 402 L212 406 L213 408 L208 410 L203 405 Z M247 407 L249 404 L251 404 L255 398 L257 398 L266 408 L265 412 L263 413 L261 409 L258 410 L253 407 L251 409 L251 412 L249 413 L247 411 Z M341 398 L342 399 L341 402 L332 411 L329 405 L330 399 L334 397 Z M172 398 L179 397 L184 399 L184 405 L181 411 L174 405 L171 400 Z M350 395 L351 398 L348 404 L344 407 L343 405 L348 396 Z M163 395 L165 396 L165 398 L170 405 L169 407 L165 404 L162 398 Z M192 395 L194 394 L201 401 L199 402 Z M391 394 L390 396 L383 399 L376 405 L369 404 L370 402 L380 397 L381 392 Z M122 394 L133 392 L134 394 L132 395 L132 397 L140 400 L143 404 L142 405 L134 404 L130 399 L124 397 Z M359 390 L360 393 L357 395 L356 393 Z M152 391 L155 390 L156 393 L153 394 Z M411 388 L409 394 L404 399 L395 401 L395 403 L401 402 L403 403 L399 408 L391 411 L382 411 L379 409 L379 407 L386 400 L390 399 L396 393 L401 392 L409 387 Z M102 388 L104 387 L112 392 L117 393 L121 398 L127 400 L134 407 L134 409 L131 411 L122 411 L114 408 L110 403 L111 402 L118 403 L118 401 L109 399 L103 393 Z M355 399 L356 397 L360 397 L364 394 L364 391 L360 387 L361 385 L365 386 L367 389 L371 389 L375 394 L375 396 L369 400 L366 398 L363 398 L362 403 L360 403 Z M337 386 L342 385 L345 388 L346 392 L343 395 L339 395 L336 389 Z M170 385 L177 387 L176 393 L174 395 L169 395 L167 393 L167 389 Z M150 385 L152 387 L149 391 L149 394 L152 397 L158 398 L157 400 L153 402 L150 402 L149 398 L142 399 L138 396 L139 392 L142 389 L146 389 L146 387 Z M159 383 L161 384 L162 388 L161 392 L159 391 L158 388 Z M354 381 L355 386 L354 390 L352 391 L351 387 L352 382 Z M341 378 L344 377 L348 379 L349 384 L346 385 L341 381 Z M223 404 L228 399 L231 392 L231 377 L246 378 L252 380 L256 384 L266 378 L281 377 L282 393 L290 406 L278 410 L273 407 L269 407 L257 391 L243 407 L239 407 L237 410 L226 408 L223 406 Z M170 377 L171 382 L165 385 L163 381 L166 378 Z M301 373 L303 385 L307 389 L307 391 L311 393 L311 395 L298 404 L292 404 L288 400 L284 391 L285 377 L293 374 Z M212 373 L227 376 L229 381 L228 393 L225 399 L219 405 L208 400 L202 395 L203 391 L208 388 L210 384 Z M256 372 L260 376 L257 379 L253 377 L253 375 Z M203 369 L209 373 L209 379 L204 390 L198 392 L192 386 L189 380 L196 372 L200 369 Z M191 369 L192 372 L187 377 L186 372 Z M316 366 L320 376 L324 381 L320 387 L315 392 L313 392 L308 388 L304 380 L304 373 Z M259 366 L263 362 L270 362 L274 365 L275 368 L280 370 L282 373 L272 374 L271 369 L268 366 L265 366 L264 372 L267 369 L268 373 L266 375 L263 375 L259 371 Z M254 367 L254 371 L249 375 L244 373 L245 369 L247 370 L247 372 L249 371 L249 367 L247 366 L243 367 L242 371 L239 374 L231 373 L233 370 L237 369 L242 362 L249 362 Z M321 361 L324 363 L327 370 L327 374 L325 376 L321 373 L319 369 L319 363 Z M189 362 L192 361 L193 363 L190 364 Z M260 359 L262 355 L265 357 L263 360 Z M248 356 L250 355 L252 359 L250 360 Z M256 350 L260 353 L257 356 L257 358 L259 359 L259 363 L257 366 L253 362 L253 353 Z M349 351 L352 350 L353 347 L356 347 L359 349 L359 351 L364 356 L361 358 L354 358 L350 355 Z M163 353 L162 356 L159 358 L152 358 L149 356 L154 351 L154 349 L157 347 L160 348 L158 353 L161 352 Z M171 346 L175 348 L175 352 L171 357 L168 358 L167 357 L168 347 Z M143 348 L148 346 L150 349 L144 350 Z M363 348 L368 345 L370 349 L364 350 Z M274 343 L277 342 L279 345 L277 346 Z M235 343 L237 342 L238 344 L236 345 Z M185 343 L187 342 L188 344 L186 345 Z M271 342 L273 341 L274 343 L272 344 Z M192 356 L194 354 L201 359 L212 361 L213 358 L223 358 L227 356 L236 348 L245 345 L247 342 L256 341 L266 342 L268 345 L277 348 L284 355 L290 358 L299 358 L300 361 L309 360 L320 352 L322 353 L314 363 L312 363 L308 367 L295 371 L286 370 L279 367 L273 360 L268 359 L266 354 L257 346 L246 355 L245 359 L240 360 L234 367 L222 371 L207 368 L200 364 Z M149 342 L154 341 L155 343 L150 344 Z M365 341 L362 344 L357 343 L358 341 L363 340 Z M184 340 L186 339 L187 341 L185 342 Z M341 338 L345 339 L344 344 L347 347 L345 349 L346 353 L345 358 L342 357 L338 353 L338 349 L341 348 L340 341 Z M334 338 L336 339 L335 346 L333 345 Z M326 339 L328 338 L329 340 L327 341 Z M177 338 L180 339 L179 345 L177 344 L176 340 Z M169 337 L173 339 L171 343 L167 342 Z M348 336 L351 335 L354 341 L351 342 L348 339 Z M164 335 L165 336 L164 340 L160 341 L159 340 L160 337 Z M336 333 L340 332 L341 334 L337 335 Z M183 332 L186 334 L185 339 L183 338 L182 334 Z M172 333 L176 332 L177 334 L173 335 Z M330 331 L331 332 L330 337 L328 338 L327 334 Z M206 342 L212 341 L216 344 L221 344 L228 340 L228 338 L233 333 L241 330 L254 330 L256 333 L259 330 L272 330 L280 333 L283 336 L283 338 L292 344 L297 344 L301 341 L305 341 L306 344 L302 348 L294 350 L288 348 L276 338 L252 338 L251 339 L237 338 L233 340 L225 348 L216 350 L209 347 Z M354 330 L356 329 L357 331 L355 332 Z M181 330 L183 329 L184 331 L182 332 Z M162 330 L164 329 L165 331 L163 332 Z M156 330 L158 329 L159 331 L157 332 Z M349 326 L351 327 L350 332 L348 331 Z M355 324 L357 323 L358 325 L356 326 Z M294 323 L296 325 L295 329 L292 333 L289 333 L286 330 L286 326 L288 324 Z M217 324 L218 323 L225 324 L227 326 L226 331 L221 333 L218 330 Z M155 324 L157 323 L158 325 L156 326 Z M353 319 L350 323 L346 322 L349 318 Z M159 319 L164 317 L167 322 L163 323 Z M326 316 L327 317 L325 332 L323 334 L320 334 L319 338 L323 339 L319 349 L313 355 L304 359 L301 358 L303 354 L298 356 L290 355 L289 354 L290 352 L297 353 L303 351 L307 347 L309 349 L312 348 L315 341 L315 334 L318 331 L323 318 Z M255 317 L257 316 L258 318 L256 319 Z M186 317 L188 316 L190 318 L191 324 L198 335 L198 342 L201 348 L205 347 L212 352 L215 353 L223 352 L224 354 L220 356 L215 356 L210 354 L210 356 L212 357 L211 359 L200 355 L193 348 L191 343 L191 339 L194 338 L194 335 L190 334 L187 331 Z M252 316 L254 315 L255 317 L253 318 Z M221 318 L225 315 L228 315 L237 320 L243 321 L251 320 L254 322 L259 322 L262 320 L268 321 L276 320 L285 315 L288 315 L292 318 L291 321 L284 320 L272 326 L253 327 L237 325 L229 320 L222 321 Z M173 313 L176 316 L175 320 L172 319 Z M138 313 L141 316 L141 322 L144 323 L145 321 L148 322 L151 325 L153 330 L151 335 L147 334 L148 330 L145 330 L142 333 L143 341 L142 344 L140 344 L136 338 L136 331 L140 330 L140 327 L137 323 Z M375 312 L376 322 L372 328 L372 331 L375 331 L377 333 L376 341 L371 344 L370 343 L371 340 L370 332 L368 330 L364 330 L366 334 L362 335 L360 328 L366 321 L368 322 L368 324 L371 323 L372 321 L371 317 L373 313 Z M338 312 L341 314 L340 320 L337 319 Z M262 316 L263 314 L267 312 L273 313 L280 312 L281 313 L280 315 L274 317 L263 317 Z M235 314 L245 312 L249 314 L250 316 L249 317 L238 317 Z M232 313 L234 312 L235 314 L233 315 Z M157 313 L159 312 L160 314 L158 315 Z M306 311 L307 314 L302 319 L299 320 L296 317 L297 315 Z M207 311 L211 312 L217 317 L213 320 L206 314 Z M352 309 L354 308 L357 313 L354 314 Z M348 306 L349 308 L347 312 L344 314 L343 311 Z M283 310 L287 306 L293 308 L296 312 L293 314 L290 312 L284 312 Z M229 309 L228 312 L223 312 L219 315 L217 314 L217 311 L224 306 L226 306 Z M165 306 L169 310 L168 314 L165 311 L164 308 Z M357 307 L358 304 L361 305 L359 308 Z M152 305 L155 304 L156 307 L154 308 Z M197 301 L199 302 L200 309 L203 316 L208 321 L214 324 L216 333 L214 334 L213 338 L202 334 L194 323 L193 310 L195 303 Z M161 302 L163 301 L164 303 L162 304 Z M351 300 L352 302 L349 305 L348 303 Z M315 300 L318 304 L320 312 L318 324 L312 333 L305 337 L300 338 L299 336 L301 335 L301 333 L299 334 L297 333 L299 324 L305 321 L309 317 L313 308 L313 301 Z M360 299 L362 298 L363 300 L361 301 Z M150 299 L152 298 L153 300 L151 301 Z M350 298 L352 297 L353 299 L351 300 Z M359 291 L361 292 L360 296 L358 295 Z M363 290 L366 289 L367 292 L364 293 Z M146 290 L149 289 L150 291 L153 291 L156 297 L154 298 L152 295 L147 294 Z M272 288 L279 287 L282 290 L281 291 L273 290 Z M232 290 L234 287 L241 288 L240 290 L234 291 Z M280 284 L282 283 L283 285 L281 286 Z M361 283 L362 280 L365 281 L363 284 Z M277 280 L278 282 L275 284 L274 282 Z M347 279 L350 285 L349 294 L344 306 L340 309 L339 307 L343 300 L340 289 L343 282 Z M306 279 L308 283 L303 288 L302 287 L303 280 Z M208 279 L210 280 L209 287 L204 283 Z M165 279 L169 281 L172 287 L172 293 L170 296 L170 300 L174 307 L173 309 L171 309 L168 305 L164 295 L163 283 Z M150 279 L152 280 L151 284 L148 282 Z M373 276 L374 278 L372 282 L367 286 L365 282 L366 277 Z M288 276 L290 277 L289 280 L286 279 Z M230 300 L234 294 L239 294 L241 298 L245 287 L248 284 L255 282 L255 280 L251 280 L250 278 L253 276 L260 276 L263 279 L258 280 L258 282 L261 282 L268 287 L272 298 L274 294 L279 294 L282 298 L283 304 L279 308 L276 303 L272 303 L263 311 L253 312 L248 310 L241 303 L237 303 L235 307 L232 308 L230 305 Z M161 276 L163 277 L160 285 L161 294 L163 298 L162 301 L160 300 L155 282 L155 279 Z M140 276 L145 276 L147 278 L148 282 L146 286 L141 282 L139 278 Z M266 275 L275 277 L271 281 L272 283 L271 286 L265 282 Z M247 275 L248 276 L247 282 L242 285 L241 284 L242 281 L238 277 Z M282 292 L284 291 L290 294 L301 293 L311 283 L316 283 L320 281 L326 274 L326 272 L328 271 L330 273 L330 280 L329 281 L327 280 L326 282 L330 285 L334 294 L333 320 L331 322 L329 321 L331 311 L326 313 L323 312 L322 304 L314 293 L310 295 L310 306 L308 308 L299 310 L293 304 L286 302 L286 297 Z M183 272 L185 271 L193 281 L201 283 L212 293 L223 294 L230 291 L231 293 L227 296 L226 302 L220 304 L213 310 L209 308 L204 308 L202 294 L199 293 L198 295 L196 295 L190 306 L190 312 L187 313 L182 311 L183 321 L181 322 L178 312 L178 298 L181 288 L185 283 L188 282 L187 280 L184 282 L182 281 Z M155 268 L162 267 L167 269 L173 275 L175 281 L173 282 L168 276 L162 273 L156 277 Z M357 266 L358 267 L357 269 L358 282 L354 296 L352 297 L351 296 L352 282 L350 277 L351 276 L355 277 L355 276 L351 273 L345 276 L340 282 L338 281 L338 279 L344 270 L347 268 Z M251 259 L254 259 L257 257 L262 260 L261 268 L264 273 L263 275 L261 274 L250 275 L249 274 L251 270 L250 262 Z M336 254 L339 257 L337 262 L335 261 Z M261 254 L266 253 L269 256 L269 260 L267 261 L266 258 L262 256 Z M250 253 L251 255 L248 257 L247 259 L248 262 L246 263 L244 261 L244 256 L247 253 Z M176 253 L178 254 L177 260 L174 259 L174 256 Z M149 258 L152 257 L152 254 L154 253 L161 259 L163 264 L161 265 L159 262 L154 262 L150 260 Z M347 250 L349 251 L349 253 L352 254 L348 260 L343 258 Z M263 266 L265 265 L266 268 L268 269 L273 268 L279 258 L283 254 L293 250 L303 253 L304 256 L313 257 L314 259 L311 261 L313 263 L318 262 L327 255 L330 256 L328 263 L324 267 L321 268 L324 270 L324 272 L319 279 L309 279 L300 271 L289 271 L285 273 L279 280 L277 279 L279 274 L286 267 L291 265 L299 266 L310 275 L313 276 L319 273 L318 271 L314 274 L310 272 L303 265 L298 263 L289 263 L281 266 L273 274 L267 273 L264 270 Z M182 256 L186 255 L190 257 L193 261 L200 263 L201 262 L199 260 L200 257 L209 255 L210 253 L214 251 L220 250 L228 253 L235 260 L240 268 L245 269 L249 265 L250 269 L246 273 L240 274 L232 266 L228 264 L215 263 L210 265 L199 274 L195 271 L194 273 L200 276 L212 267 L217 265 L222 265 L227 267 L233 273 L239 283 L237 284 L233 278 L224 271 L213 271 L205 278 L198 280 L192 277 L189 272 L189 270 L192 268 L189 267 L185 263 Z M165 250 L170 256 L169 258 L167 258 L166 261 L162 257 Z M338 250 L341 249 L342 251 L339 252 Z M171 250 L173 249 L174 251 L172 252 Z M327 249 L329 248 L330 251 L328 252 Z M256 247 L261 251 L259 255 L257 254 L257 252 L255 254 L252 252 Z M341 247 L343 246 L344 248 L342 249 Z M185 246 L186 249 L183 252 L182 250 L183 247 Z M169 247 L171 246 L172 248 L170 249 Z M335 242 L337 243 L338 247 L337 249 L334 246 Z M131 241 L145 247 L148 250 L148 255 L145 256 L145 258 L151 263 L152 266 L151 270 L147 269 L150 272 L149 274 L139 272 L136 269 L134 260 L136 259 L139 262 L141 262 L141 259 L133 255 L130 247 Z M382 240 L383 247 L381 252 L371 260 L371 262 L373 262 L376 259 L379 260 L376 270 L374 272 L363 275 L362 273 L366 269 L362 270 L361 265 L367 259 L369 254 L367 254 L363 260 L352 264 L350 262 L357 254 L360 253 L361 256 L363 256 L364 251 L368 247 Z M346 234 L347 239 L346 242 L343 243 L342 237 Z M166 233 L171 237 L170 243 L168 243 L166 240 L165 236 Z M204 230 L203 232 L197 234 L183 243 L181 242 L184 238 L191 235 L200 229 Z M257 241 L266 231 L272 228 L280 228 L300 232 L317 238 L321 242 L325 252 L321 255 L318 253 L312 254 L298 247 L289 247 L280 251 L273 259 L271 256 L271 252 L274 247 L272 247 L268 252 L263 251 L257 243 Z M256 241 L249 251 L244 251 L242 248 L240 248 L242 252 L242 256 L240 259 L235 253 L224 247 L215 247 L201 254 L195 253 L192 255 L188 252 L191 243 L196 238 L205 234 L226 229 L241 228 L247 231 Z M204 229 L206 228 L207 230 L205 231 Z M249 229 L252 227 L257 232 L261 227 L263 228 L263 230 L257 236 Z M295 226 L299 225 L309 228 L311 231 L309 232 L296 228 Z M311 225 L313 224 L329 231 L332 234 L331 236 L328 236 L327 234 L322 233 L318 229 L315 230 L322 235 L326 236 L330 241 L328 242 L323 238 L312 233 L311 231 L313 227 Z M218 225 L222 224 L223 226 L219 227 Z M218 226 L217 228 L210 230 L207 229 L208 227 L214 224 Z M325 224 L330 223 L332 227 L329 229 L325 226 Z M180 225 L182 223 L188 224 L188 226 L183 229 L181 228 Z M346 222 L348 225 L348 229 L342 233 L340 237 L337 239 L336 238 L337 229 L341 226 L343 222 Z M305 223 L308 222 L311 225 L308 226 Z M276 223 L284 222 L288 223 L289 225 L288 226 L277 225 Z M254 223 L258 222 L259 224 L255 225 Z M224 225 L225 223 L228 222 L237 223 L236 225 L228 226 Z M208 223 L204 227 L200 227 L187 233 L185 236 L182 237 L180 236 L183 232 L192 227 L205 222 Z M166 222 L170 223 L177 231 L176 239 L174 239 L173 236 L165 229 Z M334 224 L335 221 L339 222 L336 225 Z M208 222 L210 221 L211 223 L209 224 Z M174 222 L178 221 L179 223 L175 224 Z M387 221 L385 231 L379 239 L373 243 L368 241 L361 250 L353 254 L351 253 L350 248 L354 242 L359 240 L360 244 L362 244 L363 238 L365 235 L377 228 L384 220 Z M219 220 L218 222 L215 223 L211 222 L212 220 L216 219 Z M126 220 L128 219 L137 229 L145 233 L149 237 L149 241 L151 244 L153 244 L152 242 L153 240 L156 240 L162 246 L161 253 L159 254 L152 250 L146 242 L142 244 L135 240 L128 231 Z M314 219 L321 218 L323 221 L321 223 L318 223 Z M246 219 L248 218 L254 223 L253 224 L249 223 Z M190 220 L192 218 L196 218 L198 221 L192 224 Z M280 218 L281 217 L294 218 L304 221 L305 223 L298 224 L297 222 L281 220 Z M233 218 L232 220 L228 221 L219 220 L220 218 L227 217 Z M302 215 L305 213 L309 213 L312 216 L311 219 L303 218 Z M201 219 L201 215 L203 213 L207 213 L210 215 L209 218 L203 220 Z M325 212 L328 213 L330 216 L330 219 L328 221 L325 220 L324 217 Z M188 212 L189 213 L188 220 L186 221 L183 219 L184 214 Z M289 212 L292 210 L296 210 L298 212 L298 215 L293 216 L290 215 Z M311 210 L319 209 L321 211 L321 214 L315 216 Z M215 212 L218 209 L220 209 L224 212 L224 214 L220 216 L216 216 Z M192 214 L192 211 L194 209 L202 210 L198 216 L194 216 Z M332 205 L336 207 L338 211 L337 214 L333 212 L331 207 Z M180 205 L181 208 L179 213 L176 214 L175 211 L177 207 Z M295 206 L299 204 L305 204 L307 207 L307 210 L301 212 Z M206 210 L206 206 L208 204 L213 204 L216 206 L216 208 L212 212 Z M276 201 L278 203 L279 211 L277 216 L273 218 L272 216 L275 213 L276 208 L273 208 L272 204 Z M256 201 L260 204 L263 209 L263 211 L260 212 L257 216 L254 215 L253 212 L249 211 L251 206 Z M236 201 L238 201 L241 205 L240 208 L237 208 L238 214 L241 216 L240 218 L237 218 L234 212 L234 205 Z M223 201 L231 202 L231 212 L230 213 L221 207 L221 203 Z M288 200 L292 203 L292 207 L283 214 L282 213 L282 203 Z M319 200 L321 199 L331 204 L329 206 L330 209 L328 210 L320 205 Z M193 199 L194 201 L192 206 L184 210 L183 209 L184 206 L182 204 Z M296 193 L301 192 L314 196 L316 198 L317 203 L314 204 L298 199 L296 196 Z M217 193 L216 198 L213 200 L206 201 L199 204 L196 203 L197 198 L199 196 L212 192 Z M256 189 L260 192 L263 198 L266 200 L269 205 L269 215 L267 220 L261 224 L259 222 L264 219 L266 215 L266 209 L264 204 L257 196 L249 204 L247 208 L247 215 L246 216 L244 215 L245 203 L247 202 L247 199 Z M276 189 L280 188 L292 190 L294 197 L291 198 L278 196 Z M236 189 L235 196 L222 198 L218 197 L221 190 L233 188 Z M312 184 L314 183 L320 188 L325 195 L322 196 L314 193 Z M287 174 L294 175 L296 180 L300 177 L310 186 L311 190 L307 191 L303 189 L295 188 L290 179 L286 177 Z M205 175 L207 174 L208 176 L206 177 Z M305 174 L307 173 L308 176 L306 177 Z M271 179 L277 172 L280 172 L287 178 L290 185 L289 186 L276 185 L272 182 Z M241 177 L241 182 L239 184 L223 186 L222 184 L224 180 L222 180 L218 188 L206 190 L191 196 L188 195 L189 192 L199 182 L201 183 L200 187 L201 189 L204 184 L213 177 L216 180 L219 175 L225 174 L227 177 L233 172 L235 172 Z M266 174 L267 171 L273 172 L270 177 L268 177 Z M248 171 L245 176 L242 176 L239 173 L240 171 L246 170 Z M256 165 L258 166 L265 177 L266 181 L264 184 L264 187 L266 187 L268 184 L272 187 L274 193 L273 198 L270 199 L269 194 L265 193 L256 181 L251 190 L248 193 L245 192 L244 199 L241 200 L239 198 L239 191 L243 184 L245 184 L247 188 L249 187 L248 177 Z M294 163 L297 164 L299 167 L298 173 L295 171 L295 168 L293 165 Z M220 163 L221 165 L218 167 L217 172 L215 173 L214 166 Z M258 159 L259 158 L269 158 L288 161 L292 167 L292 170 L290 171 L281 169 L278 163 L276 164 L275 168 L262 167 Z M255 159 L253 164 L250 167 L236 168 L235 166 L238 163 L236 162 L232 169 L223 171 L220 170 L220 168 L225 161 L244 158 L254 158 Z M293 154 L296 155 L294 159 L291 158 Z M217 155 L219 154 L221 158 L219 159 Z M275 153 L279 152 L280 155 L277 156 Z M295 145 L297 149 L290 153 L289 156 L287 157 L286 156 L287 151 L292 146 Z M256 145 L262 151 L260 154 L252 153 L252 149 Z M216 146 L217 145 L221 146 L226 151 L227 156 L225 157 L223 153 L218 151 L216 149 Z M285 146 L283 150 L279 149 L273 153 L271 152 L271 150 L280 142 Z M231 142 L235 143 L238 146 L238 148 L242 150 L241 152 L238 152 L237 156 L233 155 L233 152 L235 150 L234 149 L231 152 L229 151 L228 145 Z M269 142 L272 141 L273 144 L271 145 Z M241 140 L244 141 L242 145 L239 143 Z M272 137 L275 136 L278 137 L279 139 L275 140 Z M237 137 L239 136 L240 138 L238 139 Z M245 146 L247 143 L250 143 L250 140 L257 134 L263 140 L263 143 L267 145 L269 150 L265 154 L263 147 L259 143 L255 142 L250 147 L249 153 L246 154 Z M279 127 L283 128 L282 134 L278 132 Z M234 127 L235 128 L234 132 L230 134 L229 129 L231 127 Z M267 126 L268 125 L274 126 L275 132 L269 133 L267 131 Z M239 126 L245 125 L246 131 L244 133 L239 133 L238 132 Z M248 128 L250 125 L258 124 L263 125 L265 128 L265 131 L259 132 L256 129 L253 132 L249 132 Z M255 114 L257 113 L258 115 L256 116 Z M228 114 L231 113 L234 117 L232 118 Z M285 112 L286 114 L280 118 L279 116 Z M264 108 L265 107 L268 109 L272 108 L274 110 L279 109 L280 111 L275 117 L272 117 L271 116 L272 112 L267 114 Z M251 108 L257 107 L262 112 L260 113 L256 110 L252 113 Z M250 108 L246 115 L243 113 L236 115 L233 111 L234 109 L239 110 L241 108 L244 110 L247 107 Z M272 102 L274 101 L276 104 L274 105 Z M238 102 L240 101 L241 103 L239 104 Z M253 100 L257 97 L260 102 L254 103 Z M271 94 L272 98 L270 100 L270 103 L267 104 L266 99 Z M242 94 L247 99 L246 104 L244 104 L241 99 Z M260 91 L265 92 L265 97 L263 100 L261 99 L259 95 Z M250 90 L254 93 L251 99 L248 97 L248 92 Z M265 87 L267 86 L270 90 L267 91 Z M247 86 L248 87 L247 90 L244 91 L243 89 Z M252 86 L257 84 L260 85 L261 87 L256 91 Z M247 80 L249 78 L259 77 L265 79 L266 81 L265 82 L260 81 L248 82 Z M265 74 L267 73 L268 75 L266 76 Z M250 72 L251 71 L262 71 L263 73 L262 74 L251 74 Z M256 63 L259 65 L257 68 L254 66 Z M259 61 L261 60 L262 62 L260 63 Z M253 60 L254 62 L253 65 L251 66 L250 62 Z M265 57 L269 59 L269 66 L266 69 L264 68 L264 58 Z M246 57 L249 59 L248 69 L244 66 L244 59 Z M256 52 L260 56 L259 60 L253 59 L253 56 Z M256 26 L258 27 L260 32 L261 41 L265 43 L266 47 L265 52 L263 51 L262 46 L259 49 L257 44 L254 48 L251 46 L249 52 L247 51 L248 42 L252 41 L252 35 Z"/></svg>
