<svg xmlns="http://www.w3.org/2000/svg" width="512" height="512" viewBox="0 0 512 512" aria-hidden="true" focusable="false"><path fill="currentColor" fill-rule="evenodd" clip-rule="evenodd" d="M378 150 L376 152 L377 162 L376 163 L376 175 L374 181 L375 185 L372 193 L373 198 L377 202 L371 205 L372 213 L368 224 L369 226 L378 226 L379 228 L368 229 L366 231 L366 235 L372 235 L379 233 L386 236 L392 236 L393 231 L387 227 L390 220 L387 217 L383 216 L384 214 L387 213 L386 211 L387 205 L381 202 L385 197 L385 190 L382 186 L383 177 L381 175 L380 167 L381 151 Z M378 188 L381 190 L380 197 L376 195 L376 191 Z M323 86 L321 88 L323 95 L320 126 L318 129 L318 138 L321 142 L315 146 L315 151 L321 152 L322 154 L315 155 L313 158 L316 164 L311 167 L311 172 L313 172 L314 174 L309 178 L309 181 L314 182 L318 180 L324 180 L331 183 L338 183 L338 178 L332 172 L335 169 L334 164 L326 161 L327 159 L332 159 L333 156 L331 152 L324 150 L325 148 L331 148 L331 144 L327 141 L330 134 L327 125 L326 111 L327 87 Z M314 173 L317 171 L320 171 L327 174 L328 176 L325 177 L321 175 L315 175 Z M323 128 L325 129 L326 132 L324 137 L322 136 Z M256 17 L250 64 L254 76 L249 80 L251 89 L245 108 L263 113 L247 111 L243 118 L258 117 L266 122 L245 125 L235 144 L241 163 L254 171 L254 283 L247 295 L200 330 L193 329 L193 225 L179 216 L176 202 L184 190 L199 190 L206 198 L202 213 L197 214 L201 201 L196 195 L189 194 L181 203 L186 216 L199 219 L208 212 L210 198 L201 186 L184 184 L206 182 L199 172 L202 164 L191 159 L200 158 L196 151 L199 144 L193 142 L197 130 L191 86 L187 88 L184 132 L188 143 L182 147 L189 154 L181 158 L179 172 L183 174 L177 182 L182 186 L171 202 L176 219 L189 229 L189 329 L185 333 L142 308 L136 299 L136 277 L120 262 L121 251 L129 243 L139 243 L147 252 L146 260 L134 265 L129 255 L138 253 L133 258 L138 262 L143 254 L139 248 L129 249 L125 260 L131 268 L142 269 L151 259 L147 243 L131 235 L149 236 L144 227 L143 204 L138 201 L141 189 L135 150 L128 192 L133 202 L126 207 L122 230 L127 239 L119 245 L115 258 L119 271 L133 281 L132 302 L126 306 L132 320 L132 376 L126 389 L133 405 L126 412 L129 405 L122 402 L120 413 L136 431 L149 411 L146 402 L136 405 L141 379 L187 346 L189 420 L183 430 L190 448 L180 445 L177 454 L193 474 L207 454 L204 445 L197 447 L200 455 L193 449 L200 426 L248 391 L253 392 L254 442 L248 452 L254 474 L251 476 L251 468 L245 467 L242 476 L259 496 L272 476 L269 467 L262 469 L262 475 L259 472 L265 454 L259 439 L260 392 L278 399 L313 426 L320 449 L312 454 L316 446 L310 445 L307 454 L321 474 L336 454 L334 445 L324 450 L330 431 L324 420 L325 347 L372 379 L376 409 L369 411 L373 403 L367 402 L364 412 L377 431 L392 414 L391 402 L384 404 L389 409 L386 412 L380 407 L387 389 L386 380 L380 376 L380 320 L387 314 L387 307 L380 301 L380 278 L368 269 L365 253 L375 243 L391 249 L393 258 L385 267 L377 266 L373 257 L382 252 L384 258 L377 261 L384 263 L387 252 L382 248 L371 251 L369 262 L379 271 L392 268 L397 253 L385 239 L373 239 L363 247 L361 265 L376 280 L376 302 L335 331 L325 330 L324 225 L310 216 L307 202 L317 189 L331 191 L337 200 L332 213 L317 210 L320 199 L327 201 L326 206 L321 205 L323 210 L331 207 L331 199 L325 194 L312 202 L313 212 L321 219 L329 219 L337 214 L342 201 L330 185 L316 185 L307 191 L303 209 L320 228 L320 329 L315 331 L266 295 L259 283 L259 169 L240 152 L240 139 L253 126 L266 128 L274 146 L267 156 L255 156 L250 150 L251 141 L263 141 L261 147 L256 145 L258 151 L265 150 L268 142 L261 133 L254 133 L246 141 L246 152 L252 159 L267 161 L279 146 L279 138 L268 124 L273 119 L266 108 L269 101 L258 94 L265 94 L267 89 L258 84 L265 83 L265 79 L259 75 L264 64 L260 56 L260 18 Z M256 478 L258 478 L262 482 L258 487 L256 487 L251 483 Z M191 456 L197 459 L197 461 L193 465 L191 465 L187 461 L187 459 Z M321 455 L326 459 L326 461 L322 465 L316 461 Z M325 452 L331 451 L332 453 L329 455 L326 454 Z M181 452 L187 451 L188 453 L184 455 Z M252 450 L254 447 L259 447 L261 449 L261 452 L259 454 L254 454 Z M188 426 L194 425 L196 427 L196 430 L191 433 L188 431 Z M317 427 L322 424 L325 426 L326 429 L324 432 L319 432 L317 430 Z M378 413 L380 413 L384 417 L380 422 L378 422 L373 418 Z M133 413 L139 416 L139 418 L135 422 L133 422 L129 418 L129 416 Z M138 409 L143 408 L144 410 L139 411 Z M376 382 L380 381 L383 384 L383 387 L381 389 L376 389 L374 386 Z M134 381 L138 384 L138 387 L136 389 L132 389 L130 387 L130 384 Z M254 379 L261 381 L262 385 L259 389 L255 389 L252 386 L252 381 Z M194 347 L199 347 L248 382 L248 385 L198 422 L193 420 Z M316 346 L320 348 L320 420 L317 422 L313 421 L266 386 L266 382 Z M321 333 L324 334 L327 338 L323 344 L320 344 L316 339 L316 337 Z M191 333 L197 337 L196 342 L193 344 L190 344 L187 341 L187 336 Z M368 315 L371 315 L376 319 L375 376 L330 342 L332 337 Z M143 314 L181 337 L183 342 L138 376 L136 372 L136 319 Z M377 306 L380 306 L383 309 L383 312 L381 314 L377 314 L374 311 Z M132 306 L135 306 L138 308 L138 312 L136 314 L132 314 L130 312 L130 308 Z M263 299 L271 303 L313 336 L313 342 L265 377 L259 374 L259 302 Z M248 299 L254 302 L254 374 L250 378 L200 342 L201 334 Z M256 287 L262 291 L261 296 L259 298 L255 298 L252 296 L252 290 Z M135 216 L137 215 L138 217 L136 218 Z M187 209 L190 208 L194 210 L195 213 L191 214 L187 211 Z M186 202 L190 199 L193 199 L197 202 L197 204 L195 206 L193 206 L192 204 L187 205 Z M135 189 L137 190 L138 193 L136 197 L133 195 L133 191 Z M183 173 L189 172 L194 174 L195 176 L194 177 L184 175 Z M191 148 L193 147 L196 150 L193 151 Z M190 129 L192 130 L191 137 L188 135 L188 132 Z M257 103 L260 102 L262 105 L260 106 Z M252 98 L254 97 L255 99 L253 100 Z M256 57 L258 58 L260 64 L260 67 L258 69 L254 67 Z"/></svg>
