<svg xmlns="http://www.w3.org/2000/svg" width="512" height="512" viewBox="0 0 512 512" aria-hidden="true" focusable="false"><path fill="currentColor" fill-rule="evenodd" clip-rule="evenodd" d="M322 237 L323 243 L326 246 L332 246 L334 244 L334 242 L331 243 L327 242 L324 237 Z M191 237 L189 237 L184 243 L179 242 L179 244 L181 246 L185 246 L189 244 Z M258 219 L254 220 L252 228 L248 231 L244 240 L238 246 L235 253 L235 258 L230 259 L229 278 L230 281 L237 287 L245 287 L247 285 L247 282 L238 283 L233 278 L232 265 L235 264 L238 267 L241 267 L240 263 L238 262 L238 254 L244 244 L246 245 L246 247 L248 247 L248 239 L255 229 L257 229 L265 240 L264 247 L266 247 L266 245 L268 244 L272 251 L273 263 L271 265 L270 270 L272 270 L277 264 L279 265 L281 270 L281 274 L278 280 L274 283 L266 282 L266 285 L269 287 L277 286 L278 284 L281 283 L284 277 L283 259 L278 258 L275 247 L272 245 L271 241 L267 240 L265 232 L261 229 Z M317 208 L315 226 L321 233 L325 235 L330 233 L332 230 L334 231 L334 234 L339 240 L340 246 L334 253 L332 253 L332 255 L338 254 L343 249 L343 245 L346 244 L351 239 L351 232 L347 227 L345 227 L348 237 L346 240 L343 240 L336 231 L339 226 L339 221 L337 217 L334 214 L329 212 L323 212 L319 208 Z M320 215 L321 214 L330 215 L335 221 L335 224 L331 225 L330 221 L326 220 L324 222 L324 227 L326 228 L325 231 L322 230 L318 225 L318 220 L320 218 Z M41 163 L39 167 L44 168 L46 164 Z M62 168 L65 169 L67 174 L73 178 L81 178 L88 172 L94 171 L94 169 L91 169 L88 166 L88 164 L81 159 L73 159 L66 165 L64 165 Z M60 157 L60 159 L65 159 L68 156 L72 155 L73 153 L82 153 L87 156 L93 163 L96 163 L94 158 L87 151 L80 150 L79 148 L68 152 L63 157 Z M253 17 L231 56 L231 83 L218 81 L218 98 L206 119 L208 142 L183 145 L203 167 L203 173 L163 197 L135 232 L132 187 L123 164 L100 142 L71 136 L71 118 L63 106 L63 97 L56 91 L51 112 L46 113 L41 124 L41 134 L32 134 L35 151 L27 165 L29 187 L59 216 L65 281 L77 307 L56 339 L54 374 L59 372 L60 360 L73 360 L75 371 L88 375 L96 368 L96 361 L87 359 L88 352 L97 352 L102 363 L96 388 L89 384 L94 394 L88 399 L75 400 L75 383 L43 377 L32 401 L35 405 L42 400 L43 408 L50 405 L56 411 L64 405 L83 406 L95 401 L103 386 L106 365 L116 355 L128 384 L113 400 L109 420 L101 413 L89 412 L76 423 L73 434 L84 451 L104 452 L122 464 L148 463 L157 476 L174 484 L200 479 L213 491 L227 496 L255 490 L283 496 L309 480 L337 484 L358 467 L385 468 L405 452 L425 452 L435 444 L439 426 L430 435 L417 437 L405 431 L397 419 L403 416 L408 422 L412 419 L422 423 L426 418 L446 417 L457 410 L463 397 L463 380 L444 346 L465 343 L480 330 L486 290 L480 265 L477 275 L449 302 L449 320 L445 320 L429 306 L437 298 L437 289 L408 269 L370 215 L345 192 L302 170 L324 145 L317 141 L299 143 L303 124 L289 97 L290 80 L266 99 L278 78 L278 62 Z M241 475 L238 479 L232 478 L233 475 L237 475 L238 473 Z M267 468 L269 467 L270 469 L268 470 Z M255 450 L259 453 L261 458 L264 461 L264 467 L259 473 L256 471 L252 473 L247 467 L247 461 L250 455 Z M158 438 L160 437 L161 439 L159 440 Z M256 427 L264 437 L265 441 L264 448 L269 448 L271 450 L271 453 L273 456 L273 462 L271 464 L267 463 L267 458 L265 453 L260 449 L256 441 L254 441 L254 444 L244 456 L243 467 L241 468 L238 466 L237 461 L238 454 L240 453 L242 448 L247 447 L247 438 L249 433 L253 430 L254 427 Z M164 441 L170 435 L179 432 L185 425 L189 423 L203 422 L213 426 L223 437 L225 444 L223 450 L221 451 L221 460 L225 469 L232 476 L223 476 L208 462 L207 447 L204 442 L197 437 L186 437 L176 446 L176 456 L183 463 L187 464 L182 468 L179 466 L173 466 L166 461 L162 452 Z M78 430 L85 419 L97 417 L101 420 L90 429 L90 436 L95 442 L110 441 L110 439 L101 440 L95 435 L94 431 L100 424 L104 424 L106 429 L110 428 L116 431 L113 438 L125 450 L139 450 L158 440 L159 459 L165 467 L173 471 L191 469 L196 463 L196 457 L186 459 L180 452 L186 442 L196 442 L203 450 L204 465 L215 477 L226 482 L242 482 L251 478 L268 482 L284 482 L295 477 L306 465 L321 473 L339 470 L348 461 L353 465 L345 474 L335 479 L318 479 L307 474 L297 485 L282 491 L270 491 L256 485 L246 490 L228 491 L212 484 L202 473 L188 479 L175 479 L165 475 L157 469 L151 457 L130 460 L116 456 L107 447 L90 448 L82 443 Z M255 402 L258 404 L259 408 L266 418 L266 425 L270 424 L274 428 L281 441 L281 445 L278 449 L284 450 L283 465 L275 473 L273 473 L272 471 L276 468 L277 464 L276 451 L271 445 L269 438 L264 429 L260 426 L256 418 L254 418 L252 424 L244 433 L240 445 L237 447 L235 455 L233 456 L233 463 L237 471 L236 472 L233 471 L226 462 L226 449 L231 448 L230 444 L231 438 L236 431 L237 427 L240 424 L244 425 L244 419 Z M148 402 L151 405 L150 413 L149 414 L144 413 L143 416 L139 418 L138 413 L140 408 L144 403 Z M432 399 L434 403 L433 408 L431 410 L428 409 L422 415 L421 409 L423 408 L423 404 L427 399 Z M138 399 L139 400 L138 407 L134 411 L130 411 L130 413 L127 414 L126 409 L129 402 L133 399 Z M127 397 L128 399 L122 408 L116 412 L115 409 L117 403 L123 397 Z M420 396 L421 400 L418 407 L415 408 L409 414 L408 410 L412 399 L416 396 Z M409 395 L410 397 L406 402 L406 405 L402 407 L401 410 L399 411 L398 406 L400 404 L401 399 L404 396 Z M336 391 L340 397 L339 400 L335 403 L333 402 L327 403 L326 402 L327 397 L332 392 Z M325 389 L327 392 L323 395 L321 401 L317 402 L316 397 L318 392 Z M369 386 L370 388 L367 391 L366 388 Z M71 386 L73 390 L72 395 L70 397 L66 396 L65 398 L61 398 L60 396 L63 390 L67 386 Z M356 381 L359 380 L360 383 L363 384 L364 386 L361 388 L356 383 Z M51 380 L52 384 L55 383 L60 384 L60 389 L56 394 L50 398 L48 397 L50 386 L46 389 L43 394 L39 394 L38 392 L41 387 L46 382 Z M430 441 L421 448 L402 447 L393 459 L383 463 L361 462 L345 453 L343 461 L336 466 L321 468 L310 460 L310 448 L316 442 L326 442 L330 446 L330 454 L324 459 L327 460 L334 455 L335 446 L326 437 L315 437 L306 445 L304 460 L292 474 L277 479 L268 476 L271 472 L278 475 L289 462 L289 438 L308 425 L329 426 L367 452 L388 451 L394 438 L386 430 L384 434 L389 442 L383 448 L371 448 L367 443 L364 445 L341 426 L326 420 L309 420 L298 424 L285 436 L281 432 L293 420 L312 414 L316 408 L324 414 L329 409 L347 411 L365 406 L374 394 L378 379 L397 382 L404 388 L393 404 L395 418 L373 420 L368 425 L367 437 L378 443 L379 440 L372 437 L372 428 L378 423 L388 422 L400 429 L401 436 L418 442 Z M369 376 L372 378 L371 383 L367 381 Z M355 376 L357 375 L358 377 L356 378 Z M446 374 L446 377 L443 380 L436 379 L437 377 L440 377 L444 373 Z M330 375 L341 371 L349 375 L352 378 L353 386 L356 389 L361 390 L366 395 L366 397 L361 402 L355 405 L341 405 L340 404 L341 391 L336 386 L329 385 L332 381 Z M113 424 L120 418 L122 425 L128 423 L137 428 L144 423 L160 423 L175 418 L183 409 L189 392 L190 371 L243 384 L290 384 L318 378 L328 382 L327 385 L317 385 L312 393 L311 411 L287 419 L281 430 L256 392 L233 426 L222 414 L211 408 L191 407 L186 410 L214 414 L225 422 L230 430 L228 435 L212 420 L192 417 L184 420 L176 429 L163 430 L139 445 L129 446 L118 439 L118 435 L126 430 Z M437 369 L439 368 L440 371 L438 372 Z M432 368 L435 369 L434 375 L432 375 L430 372 Z M162 368 L165 368 L167 370 L167 375 L165 378 L163 377 L163 372 L160 371 Z M347 369 L353 367 L357 371 L353 373 L349 373 Z M164 361 L166 360 L173 361 L172 371 L170 370 L168 366 L163 364 Z M430 360 L430 366 L428 368 L423 366 L420 371 L413 369 L411 367 L412 361 L418 362 L422 360 L424 363 L426 363 L428 359 Z M80 359 L82 360 L81 366 L85 371 L84 373 L78 370 L77 364 Z M446 358 L450 362 L449 368 L443 362 Z M156 357 L158 359 L156 362 L155 369 L156 372 L161 375 L160 379 L157 379 L151 373 L151 364 L152 361 Z M124 358 L128 357 L132 360 L133 357 L136 356 L139 358 L140 361 L139 365 L136 368 L132 368 L124 361 Z M150 355 L151 358 L147 364 L147 374 L158 385 L166 382 L175 372 L177 368 L175 366 L176 361 L181 362 L183 369 L184 384 L181 387 L176 387 L180 392 L180 400 L177 401 L174 398 L173 392 L170 394 L170 398 L178 404 L178 407 L171 414 L168 414 L165 417 L154 418 L153 414 L155 413 L155 404 L148 397 L143 397 L141 395 L132 393 L132 389 L138 386 L144 386 L146 388 L155 390 L155 388 L150 384 L134 383 L132 377 L130 376 L131 371 L138 371 L144 363 L144 357 Z M262 352 L265 352 L267 354 L289 354 L290 355 L289 364 L286 371 L281 377 L278 379 L251 379 L250 378 L258 367 Z M160 353 L162 352 L163 354 L161 355 Z M76 353 L78 352 L79 354 L77 355 Z M396 352 L397 351 L407 351 L409 354 L408 361 L404 363 L397 363 L395 361 Z M392 350 L394 355 L392 356 L391 360 L383 361 L377 358 L381 350 L387 349 Z M321 350 L320 365 L318 366 L318 369 L313 374 L296 378 L286 377 L290 369 L292 368 L295 352 L311 351 L319 349 Z M59 352 L61 349 L65 351 L72 349 L74 350 L73 354 L66 359 L64 359 L60 355 Z M231 348 L258 353 L252 370 L241 378 L231 377 L229 375 L218 374 L215 372 L215 370 L218 369 L226 360 L226 357 Z M435 346 L443 354 L440 357 L440 360 L438 361 L437 364 L434 363 L434 347 Z M414 346 L417 346 L419 348 L420 355 L418 358 L415 358 L413 356 L412 348 Z M338 344 L340 351 L345 358 L346 362 L336 368 L325 371 L323 367 L324 349 L329 346 Z M116 344 L115 346 L112 347 L112 350 L109 354 L103 353 L103 350 L107 348 L109 345 L112 343 Z M369 342 L376 343 L378 346 L377 352 L371 356 L363 353 L363 351 L367 347 Z M344 342 L348 340 L351 346 L361 356 L368 360 L382 363 L383 365 L391 363 L399 367 L405 366 L410 371 L417 374 L426 373 L429 379 L436 384 L445 383 L449 378 L449 374 L454 371 L458 381 L458 395 L455 396 L452 390 L449 390 L449 395 L454 399 L454 405 L445 412 L437 413 L437 399 L432 394 L426 395 L421 391 L412 392 L409 390 L409 385 L403 379 L394 375 L369 371 L368 369 L358 365 L346 351 Z M203 340 L208 340 L210 342 L212 341 L213 343 L223 345 L226 347 L225 353 L218 364 L210 369 L199 368 L186 362 L187 358 L190 358 L198 351 Z M354 337 L359 340 L364 339 L366 340 L366 342 L364 343 L364 346 L361 349 L358 349 L356 345 L352 342 L352 339 Z M129 337 L134 339 L134 343 L136 346 L134 352 L131 355 L127 354 L121 347 L121 342 Z M79 336 L84 341 L84 346 L86 347 L85 350 L82 352 L79 352 L76 348 L77 345 L76 337 Z M88 345 L88 341 L90 340 L89 337 L90 335 L94 335 L96 341 L92 344 L92 346 L95 346 L99 340 L106 338 L108 339 L108 341 L101 348 L96 350 L91 349 Z M422 334 L427 338 L427 341 L429 342 L430 346 L429 352 L424 352 L420 347 Z M380 342 L383 341 L387 335 L393 334 L398 342 L400 342 L402 339 L405 339 L408 341 L408 344 L403 345 L403 348 L399 349 L397 347 L397 344 L384 347 L380 345 Z M358 335 L360 334 L361 336 L359 337 Z M98 335 L102 334 L103 337 L100 338 Z M143 333 L151 334 L150 343 L152 348 L148 352 L142 352 L141 350 L144 348 L144 345 L141 345 L138 342 L138 337 Z M66 332 L69 335 L73 336 L72 345 L69 348 L65 347 L63 343 L61 342 Z M364 333 L366 331 L370 332 L369 335 L365 335 Z M198 336 L197 343 L192 351 L189 350 L190 344 L187 344 L181 356 L174 357 L167 355 L166 352 L168 350 L174 349 L178 344 L180 344 L180 342 L183 340 L185 333 L187 331 Z M181 332 L181 335 L178 340 L174 344 L167 346 L166 348 L161 348 L155 344 L158 341 L160 341 L161 343 L164 343 L170 337 L175 338 L175 335 L179 331 Z M180 330 L182 329 L183 331 L181 332 Z M153 335 L160 328 L162 328 L166 332 L166 337 L164 339 L161 338 L155 339 Z M401 328 L402 327 L408 328 L410 335 L413 335 L413 332 L415 331 L418 335 L419 341 L416 344 L413 344 L412 339 L404 336 Z M88 326 L92 327 L92 332 L90 334 L87 333 Z M177 324 L178 328 L174 332 L170 332 L168 330 L169 328 L173 328 Z M407 324 L408 323 L412 324 L413 328 L409 329 Z M386 324 L387 323 L395 324 L398 329 L398 332 L393 334 L387 333 L384 330 L385 328 L387 328 Z M382 323 L383 326 L381 327 L381 329 L384 330 L384 336 L381 339 L371 340 L370 338 L373 335 L373 328 L379 323 Z M145 325 L144 330 L140 331 L136 335 L132 331 L129 331 L126 335 L122 332 L123 327 L127 323 L137 319 L139 320 L139 322 L142 322 Z M74 319 L79 325 L81 324 L84 326 L83 333 L81 332 L72 333 L69 330 L69 325 Z M398 319 L401 318 L404 321 L404 324 L402 325 L399 323 Z M146 321 L148 318 L155 318 L156 320 L160 321 L162 325 L156 327 L151 331 L147 328 Z M166 317 L172 318 L174 320 L173 324 L169 326 L168 328 L166 327 L166 324 L164 322 L164 319 Z M389 319 L393 316 L395 317 L394 321 L390 321 Z M227 318 L231 315 L256 316 L257 317 L280 316 L283 317 L287 322 L288 328 L279 331 L278 329 L258 329 L238 326 L236 324 L232 324 L230 320 L228 320 Z M80 314 L84 318 L82 321 L78 320 L78 316 Z M341 315 L342 312 L346 313 L343 316 Z M163 313 L165 312 L166 314 L164 315 Z M139 311 L139 313 L136 314 L135 317 L131 318 L128 317 L129 314 L134 310 Z M122 313 L117 325 L115 335 L112 334 L113 329 L105 330 L96 323 L97 321 L106 320 L107 318 L113 316 L119 310 Z M237 310 L238 309 L252 309 L253 310 L288 309 L292 313 L292 316 L295 322 L291 323 L286 314 L250 314 L246 312 L238 312 Z M153 311 L160 309 L161 316 L160 317 L153 316 L152 315 Z M150 310 L150 314 L147 317 L140 319 L138 318 L139 315 L142 312 L144 312 L145 309 Z M474 306 L477 306 L478 311 L480 312 L480 315 L478 316 L476 320 L474 319 L474 313 L472 311 L472 308 Z M403 313 L405 311 L415 309 L422 306 L439 322 L447 327 L468 328 L474 326 L475 328 L463 338 L456 340 L439 339 L433 337 L420 323 L418 323 L409 316 L404 315 Z M235 309 L234 312 L228 312 L222 321 L218 320 L221 312 L224 310 L226 306 Z M196 307 L199 306 L201 309 L198 310 Z M156 304 L155 306 L145 305 L146 303 L152 303 L153 301 Z M187 301 L192 299 L195 305 L193 306 Z M217 297 L221 305 L218 313 L216 314 L215 317 L213 317 L212 314 L217 304 L214 298 Z M299 295 L301 296 L301 298 L298 304 L298 309 L301 317 L303 318 L304 321 L303 324 L300 323 L292 307 L295 299 Z M141 296 L139 300 L136 301 L129 307 L125 305 L128 298 L135 298 L139 295 Z M180 295 L183 294 L185 298 L183 299 Z M124 298 L123 302 L113 312 L103 317 L98 318 L91 317 L86 312 L86 310 L83 308 L84 305 L91 306 L101 304 L107 300 L112 294 L116 294 Z M222 293 L224 293 L227 297 L226 302 L221 297 Z M145 293 L147 292 L150 297 L146 298 Z M412 290 L411 293 L403 295 L401 297 L398 297 L392 300 L389 299 L391 295 L395 294 L396 290 L399 293 L404 292 L408 289 Z M479 287 L481 289 L480 298 L477 301 L471 298 L458 310 L459 318 L461 318 L460 313 L463 310 L467 311 L470 314 L469 320 L464 323 L456 322 L452 314 L452 309 L455 302 L457 301 L458 298 L460 300 L464 300 L464 294 L468 289 L470 290 L470 293 L472 293 L475 287 Z M387 301 L386 303 L377 306 L370 311 L355 318 L354 320 L343 324 L342 326 L327 330 L325 332 L301 335 L299 337 L290 338 L256 337 L255 335 L240 334 L228 331 L219 327 L220 325 L231 328 L241 329 L243 331 L260 333 L293 333 L296 332 L298 329 L300 330 L300 332 L310 331 L312 329 L327 327 L330 324 L332 325 L334 323 L345 320 L346 318 L357 314 L358 312 L367 307 L367 305 L364 304 L364 301 L359 289 L360 287 L363 288 L367 296 L369 304 L374 304 L382 299 L385 299 Z M329 287 L333 290 L333 292 L337 292 L340 295 L340 302 L338 304 L335 303 L335 299 L333 297 L328 298 L328 300 L332 301 L328 305 L325 305 L322 302 L321 298 L322 294 Z M424 287 L423 289 L417 292 L414 291 L416 287 L421 286 Z M184 285 L187 283 L192 283 L197 291 L195 295 L192 294 L191 288 L189 288 L187 292 L185 293 L183 291 Z M215 281 L219 283 L220 285 L219 289 L215 287 L214 285 Z M139 281 L143 286 L143 288 L136 293 L131 292 L130 288 Z M197 280 L199 280 L202 283 L203 287 L207 291 L208 284 L212 287 L214 291 L213 294 L209 293 L210 300 L213 302 L213 305 L207 314 L201 310 L202 305 L200 305 L196 301 L197 297 L200 294 L200 288 L196 282 Z M414 282 L411 286 L408 286 L405 288 L401 287 L408 278 Z M125 275 L127 275 L130 278 L130 283 L127 284 L126 289 L121 284 L122 278 Z M347 273 L350 272 L352 274 L356 274 L358 278 L360 279 L360 281 L356 282 L353 278 L348 277 Z M153 271 L156 273 L158 277 L157 279 L153 276 L152 274 Z M344 272 L344 276 L332 275 L332 277 L338 278 L340 280 L350 281 L356 290 L361 305 L350 312 L348 312 L347 309 L342 311 L339 310 L338 308 L344 302 L344 294 L340 289 L335 289 L331 283 L327 284 L318 293 L318 302 L322 307 L322 320 L328 317 L328 315 L324 314 L324 311 L329 309 L331 306 L340 314 L340 316 L334 320 L317 324 L315 326 L310 326 L304 311 L301 308 L301 305 L315 280 L318 277 L327 276 L327 274 L324 272 L325 270 Z M159 271 L167 270 L168 274 L162 275 Z M256 269 L260 273 L257 280 L252 275 Z M321 269 L322 272 L316 273 L310 282 L310 284 L307 286 L305 292 L301 293 L300 290 L305 283 L312 268 L315 267 L316 269 Z M207 278 L207 281 L204 282 L199 273 L194 273 L192 280 L187 280 L180 285 L179 294 L168 284 L166 280 L167 278 L179 277 L179 275 L173 274 L174 270 L189 270 L195 269 L197 267 L201 268 L201 270 Z M131 263 L136 274 L135 277 L128 271 L122 272 L119 276 L116 276 L114 272 L112 273 L113 278 L115 279 L115 281 L117 282 L121 289 L121 291 L119 292 L111 285 L111 283 L107 279 L105 269 L106 268 L120 269 Z M147 260 L150 262 L153 269 L152 271 L150 270 L146 263 Z M126 260 L124 263 L120 265 L112 264 L113 260 L116 261 L124 259 Z M99 257 L101 256 L103 259 L101 260 Z M116 256 L119 255 L120 257 L117 258 Z M310 256 L314 254 L317 259 L334 261 L336 263 L354 264 L359 258 L361 260 L361 263 L356 269 L345 269 L343 267 L313 264 Z M104 255 L106 254 L107 256 L105 257 Z M67 253 L69 252 L77 255 L92 254 L95 260 L101 266 L104 281 L111 290 L111 293 L105 298 L98 301 L92 301 L91 303 L85 303 L84 301 L79 300 L73 289 L74 287 L80 289 L89 289 L98 286 L99 283 L94 283 L89 286 L79 286 L78 284 L75 284 L71 281 L70 271 L90 271 L96 269 L96 266 L89 267 L87 269 L74 267 L69 264 L67 260 Z M255 250 L258 251 L258 253 L264 260 L264 266 L262 269 L259 267 L258 263 L255 263 L252 269 L249 268 L248 262 L250 256 L254 253 Z M142 250 L145 251 L147 257 L146 259 L144 258 L141 252 Z M380 249 L393 255 L404 272 L404 277 L400 282 L397 282 L395 280 L397 276 L397 269 L396 266 L394 266 L393 269 L395 271 L395 274 L393 275 L390 273 L388 278 L384 278 L383 277 L384 264 L386 263 L390 265 L390 263 L385 258 L381 258 L381 264 L379 270 L380 279 L384 282 L389 281 L392 282 L392 286 L384 292 L378 292 L374 288 L371 277 L369 275 L369 271 Z M378 240 L383 242 L386 246 L385 247 L377 246 L375 248 L372 259 L366 271 L366 276 L370 287 L373 291 L373 294 L377 297 L376 299 L373 299 L370 297 L366 284 L363 280 L361 271 L368 258 L370 250 L372 249 L374 241 Z M132 239 L135 239 L141 260 L158 288 L164 292 L164 289 L157 281 L159 279 L184 305 L213 321 L215 325 L213 326 L191 314 L172 299 L180 310 L209 328 L238 337 L260 340 L296 340 L318 337 L349 326 L399 300 L429 291 L432 292 L432 295 L417 303 L391 311 L343 337 L321 344 L297 348 L258 348 L256 346 L230 343 L211 337 L190 326 L176 316 L156 296 L136 263 Z M111 237 L113 238 L113 241 L116 243 L117 246 L114 252 L109 251 L111 244 L109 244 L105 248 L103 247 L104 243 L108 241 Z M144 236 L146 237 L150 245 L153 255 L156 257 L156 259 L159 260 L158 264 L154 264 L152 262 L149 253 L147 252 L147 247 L144 244 L143 240 Z M219 235 L220 239 L218 245 L216 246 L212 259 L209 263 L210 269 L213 273 L213 276 L210 277 L208 272 L206 271 L204 262 L207 259 L210 248 L215 238 Z M97 232 L100 233 L98 240 L98 248 L100 253 L99 256 L96 254 L94 247 L94 240 Z M374 232 L376 231 L378 234 L376 235 Z M213 231 L213 235 L209 241 L206 252 L204 253 L201 262 L199 264 L192 264 L184 266 L164 266 L163 265 L164 261 L185 261 L196 259 L207 238 L210 230 Z M149 226 L150 227 L149 230 L145 233 L144 232 L145 227 Z M103 225 L104 228 L100 230 L99 228 Z M222 224 L225 225 L225 229 L223 232 L220 230 L220 226 Z M100 221 L94 229 L92 237 L90 239 L90 247 L92 249 L91 252 L77 252 L67 246 L67 239 L70 237 L77 238 L79 240 L85 240 L88 238 L88 236 L81 237 L73 235 L67 230 L68 225 L70 225 L71 223 L76 225 L88 225 L97 220 Z M217 216 L220 218 L219 222 L216 227 L213 227 L212 224 L215 217 Z M295 215 L297 216 L300 226 L309 242 L312 250 L311 253 L307 252 L304 242 L294 223 L293 217 Z M236 216 L264 214 L277 216 L299 263 L299 268 L283 295 L267 298 L259 292 L260 280 L267 276 L273 280 L273 276 L266 271 L267 259 L258 242 L254 243 L244 261 L246 271 L239 276 L240 280 L246 276 L253 282 L253 292 L248 297 L239 297 L230 294 L221 282 L213 263 Z M187 214 L191 214 L193 220 L195 221 L195 225 L189 231 L187 230 L187 228 L189 227 L189 222 L187 220 L184 220 L184 223 L186 224 L184 227 L181 229 L178 227 L179 218 Z M237 208 L238 212 L231 215 L228 221 L225 221 L224 218 L227 211 L232 208 Z M242 207 L267 206 L283 209 L299 240 L301 248 L303 249 L306 259 L309 262 L309 268 L307 269 L293 297 L287 304 L240 305 L232 303 L233 299 L249 300 L255 295 L257 295 L260 299 L264 301 L285 299 L287 298 L290 290 L293 288 L303 268 L303 262 L299 256 L299 253 L292 239 L292 236 L290 235 L286 223 L281 216 L281 214 L275 212 L266 212 L264 210 L247 210 L246 212 L242 212 L241 211 Z M109 204 L111 208 L110 212 L104 218 L102 218 L100 214 L105 211 L104 206 L106 204 Z M223 196 L226 195 L230 199 L248 197 L249 201 L244 203 L228 204 L223 199 Z M313 190 L319 191 L338 203 L360 228 L363 237 L352 260 L329 258 L317 253 L298 211 L299 205 Z M199 190 L214 206 L215 210 L195 254 L183 258 L176 258 L175 255 L180 255 L180 253 L176 252 L173 246 L174 239 L178 235 L182 236 L184 233 L188 235 L197 228 L196 215 L192 214 L191 210 L189 210 L188 212 L180 213 L175 218 L175 233 L169 241 L164 236 L168 230 L168 226 L162 231 L161 237 L170 246 L173 257 L167 258 L160 256 L151 241 L150 234 L153 227 L173 205 L194 191 Z M126 189 L128 197 L128 213 L127 214 L127 250 L128 252 L125 255 L121 256 L118 252 L120 248 L120 243 L116 236 L117 227 L115 227 L109 235 L105 235 L104 232 L105 229 L121 212 L122 195 L124 193 L124 190 Z M208 188 L214 193 L220 200 L220 202 L225 206 L224 211 L221 214 L218 213 L219 207 L206 192 Z M214 187 L217 185 L222 191 L218 193 L214 189 Z M115 185 L117 192 L113 199 L118 200 L117 212 L115 214 L113 213 L113 204 L110 199 L108 201 L101 203 L101 209 L97 211 L96 204 L98 203 L99 199 L103 196 L107 198 L107 192 Z M261 184 L267 189 L266 193 L258 192 L258 187 Z M317 183 L329 188 L335 193 L337 193 L339 196 L344 198 L351 204 L357 211 L357 213 L361 216 L369 232 L372 234 L372 237 L370 239 L366 253 L363 256 L361 256 L360 254 L367 238 L367 234 L363 226 L355 216 L355 214 L330 193 L316 186 Z M311 180 L312 185 L301 196 L301 198 L294 206 L294 213 L290 214 L288 211 L288 205 L304 187 L306 183 L309 180 Z M205 184 L203 188 L200 186 L197 186 L183 193 L167 206 L165 209 L163 209 L161 213 L151 224 L149 223 L152 217 L155 215 L155 213 L176 193 L178 193 L184 188 L200 180 Z M267 178 L270 179 L269 186 L267 185 L266 180 Z M237 181 L241 178 L247 179 L244 182 L245 184 L244 186 L240 186 L237 183 Z M304 177 L304 180 L284 204 L253 201 L253 198 L257 196 L266 198 L282 199 L290 190 L290 188 L299 180 L299 177 L300 176 Z M255 176 L257 176 L259 180 L257 184 L253 182 L253 178 Z M209 176 L213 177 L213 182 L211 184 L207 180 Z M255 170 L256 169 L279 170 L280 172 L291 174 L294 177 L293 182 L283 191 L283 193 L280 196 L271 195 L270 190 L282 181 L282 179 L276 179 L271 175 L261 176 Z M254 169 L255 171 L251 176 L241 175 L236 179 L229 179 L229 181 L239 189 L246 189 L248 185 L251 184 L254 190 L252 193 L248 195 L232 196 L217 180 L217 178 L222 173 L230 172 L232 170 Z M244 156 L246 155 L249 157 L255 158 L263 155 L264 157 L258 163 L252 164 L249 163 Z M311 149 L306 159 L301 164 L295 167 L289 168 L284 167 L282 165 L266 163 L272 158 L293 159 L291 155 L296 151 L300 150 L301 148 L308 147 Z M198 148 L203 147 L213 152 L216 155 L217 159 L235 158 L238 159 L241 163 L231 165 L229 167 L222 168 L213 167 L203 161 L200 155 L198 154 Z M40 153 L48 152 L54 155 L55 152 L51 149 L67 142 L84 142 L96 146 L115 162 L121 181 L119 182 L111 173 L112 183 L93 203 L95 218 L88 221 L75 220 L46 199 L38 187 L45 186 L60 195 L75 197 L72 191 L61 191 L45 181 L32 181 L32 166 Z M36 143 L38 142 L41 146 L38 147 Z M48 139 L50 138 L51 140 L49 141 Z M53 123 L54 125 L50 128 L49 134 L45 135 L44 130 L46 128 L48 122 Z M66 122 L69 125 L69 130 L67 132 L67 135 L62 138 L56 138 L54 134 L54 130 L56 128 L59 128 L61 130 L60 134 L62 134 L64 132 L64 127 L60 122 L61 121 Z M253 117 L255 117 L258 120 L258 122 L263 127 L266 134 L265 145 L256 152 L249 151 L242 144 L241 139 L243 129 Z M62 111 L64 114 L64 117 L61 121 L58 121 L54 124 L53 119 L56 118 L57 112 Z M55 105 L57 104 L58 106 L56 107 Z M241 94 L242 98 L239 100 L237 96 Z M281 91 L283 92 L284 98 L286 100 L286 105 L284 107 L284 110 L287 111 L288 108 L292 109 L295 116 L296 123 L298 125 L298 128 L296 130 L296 136 L293 143 L284 151 L282 151 L281 148 L286 139 L286 124 L282 116 L279 116 L277 114 L273 106 L276 96 Z M225 91 L232 97 L233 101 L235 102 L235 107 L229 116 L225 117 L223 125 L221 127 L221 136 L223 137 L224 145 L228 150 L227 152 L223 151 L215 143 L212 137 L212 134 L210 133 L210 122 L213 118 L215 111 L219 108 L221 112 L224 112 L223 105 L221 104 L221 101 L223 99 Z M254 90 L266 107 L266 113 L270 113 L277 121 L279 128 L281 130 L281 138 L276 148 L273 151 L267 153 L266 151 L271 145 L270 128 L267 126 L267 124 L257 112 L255 107 L253 107 L237 129 L236 142 L237 146 L243 153 L241 155 L232 148 L227 140 L227 128 L231 120 L235 117 L237 113 L241 115 L242 114 L241 108 L244 102 L248 99 L249 95 Z M232 88 L234 87 L238 92 L236 93 Z M253 58 L259 64 L264 74 L264 88 L262 90 L260 89 L255 77 L253 77 L250 81 L248 88 L246 90 L244 89 L243 84 L244 73 Z M253 29 L257 32 L261 41 L265 46 L266 49 L265 57 L267 57 L268 55 L271 57 L273 64 L273 75 L271 78 L269 77 L269 74 L267 72 L263 60 L259 57 L258 52 L254 46 L248 55 L248 57 L244 61 L237 78 L235 77 L233 68 L236 58 L238 55 L242 56 L241 53 L242 47 Z"/></svg>
