<svg xmlns="http://www.w3.org/2000/svg" width="512" height="512" viewBox="0 0 512 512" aria-hidden="true" focusable="false"><path fill="currentColor" fill-rule="evenodd" clip-rule="evenodd" d="M262 17 L268 39 L264 66 L236 126 L234 143 L228 143 L219 172 L189 223 L164 292 L170 327 L189 343 L205 345 L218 336 L219 327 L205 326 L209 314 L220 313 L231 320 L240 346 L234 375 L216 399 L196 409 L198 388 L188 373 L171 369 L152 377 L138 377 L118 371 L102 354 L98 357 L105 399 L136 443 L193 482 L246 495 L271 494 L312 482 L358 449 L389 392 L414 316 L413 283 L388 214 L297 80 L279 35 Z M177 441 L179 440 L180 442 L178 443 Z M159 439 L166 439 L171 443 L181 446 L183 448 L185 447 L186 449 L197 451 L253 452 L255 454 L255 459 L261 461 L262 463 L252 468 L244 469 L217 468 L216 466 L206 465 L184 457 L163 444 Z M318 431 L313 441 L303 451 L295 456 L287 457 L283 455 L266 455 L262 457 L260 456 L261 452 L264 449 L278 444 L298 433 L309 430 Z M131 428 L135 426 L145 432 L155 443 L175 457 L207 470 L227 472 L229 474 L252 472 L263 468 L269 459 L278 459 L306 468 L318 468 L319 470 L298 481 L269 488 L236 488 L234 486 L218 484 L195 476 L167 461 L143 442 Z M127 423 L129 422 L130 425 L128 426 Z M138 422 L140 421 L141 423 L150 425 L151 429 L149 430 L143 426 L140 426 Z M369 421 L362 434 L341 455 L318 463 L306 463 L297 460 L298 458 L310 452 L317 445 L323 434 L332 427 L360 423 L365 420 Z M134 421 L136 420 L137 422 L135 423 Z M124 420 L126 419 L128 422 L126 423 Z M125 415 L127 414 L128 416 L126 417 Z M122 404 L123 403 L130 407 L130 409 L126 410 Z M118 401 L120 400 L122 403 L120 404 Z M339 399 L340 400 L339 408 L336 415 L333 417 L333 419 L326 425 L316 425 L315 423 L326 412 L335 399 Z M192 387 L193 390 L192 402 L190 403 L189 407 L177 418 L164 421 L149 420 L138 417 L132 413 L133 409 L150 413 L169 411 L179 405 L188 394 L189 387 L190 386 Z M388 376 L380 395 L375 403 L367 411 L360 416 L346 420 L338 419 L340 414 L342 413 L346 397 L346 393 L339 393 L343 387 L351 381 L361 378 L381 377 L383 375 Z M107 374 L113 373 L121 378 L140 382 L161 381 L168 379 L175 374 L179 374 L184 379 L184 389 L182 395 L172 404 L156 408 L144 407 L133 404 L124 398 L110 383 Z M104 368 L106 367 L108 370 L105 371 Z M375 339 L373 342 L364 341 L365 339 L372 338 Z M287 327 L296 336 L299 343 L299 363 L290 390 L274 413 L257 429 L233 442 L208 447 L185 445 L184 443 L189 440 L204 439 L226 431 L253 408 L263 394 L271 376 L276 340 Z M230 297 L238 302 L249 314 L257 334 L258 353 L252 377 L241 396 L217 418 L199 425 L178 426 L177 424 L184 419 L206 412 L227 397 L239 379 L245 361 L246 345 L244 332 L238 319 L226 308 L214 306 L205 309 L200 315 L199 329 L196 327 L194 321 L195 310 L203 300 L215 295 Z M284 282 L288 290 L296 297 L300 306 L299 323 L296 326 L293 326 L290 323 L290 321 L286 318 L286 316 L284 316 L283 321 L280 326 L277 328 L272 324 L272 320 L270 314 L268 313 L267 307 L268 302 L271 297 L275 294 L280 284 Z M240 283 L251 292 L259 303 L266 318 L270 335 L270 353 L266 371 L257 392 L250 403 L236 417 L212 431 L184 437 L155 432 L153 430 L155 426 L189 430 L213 424 L233 411 L251 388 L260 365 L261 336 L257 319 L249 307 L237 296 L226 291 L211 291 L201 296 L194 303 L190 312 L190 323 L199 335 L206 337 L205 339 L196 338 L187 330 L182 314 L183 305 L189 292 L198 283 L213 277 L229 278 Z M375 277 L387 291 L392 307 L391 324 L385 335 L377 338 L385 312 L375 294 L364 288 L349 288 L338 293 L325 314 L324 352 L317 379 L307 399 L285 426 L306 407 L322 380 L329 352 L330 316 L335 304 L349 293 L370 296 L381 311 L378 326 L372 333 L357 333 L352 328 L352 317 L363 313 L368 320 L370 313 L364 307 L353 308 L344 322 L342 370 L335 389 L307 424 L269 443 L255 447 L238 446 L279 414 L297 386 L305 357 L305 309 L315 288 L327 277 L344 270 L360 270 Z M177 264 L180 265 L182 271 L190 280 L189 285 L181 296 L179 302 L179 308 L177 310 L177 317 L179 319 L180 324 L179 328 L175 324 L172 313 L170 311 L170 288 L172 286 L173 276 Z M400 258 L407 277 L409 308 L408 317 L401 334 L389 345 L389 347 L397 345 L398 349 L394 357 L378 370 L356 373 L346 378 L345 375 L348 370 L350 350 L354 346 L375 347 L387 341 L396 326 L396 301 L384 279 Z M189 239 L194 239 L196 244 L199 246 L199 248 L211 260 L215 267 L215 271 L213 273 L208 273 L201 275 L197 278 L194 278 L187 271 L185 261 L183 259 L183 253 L185 251 L185 247 Z M190 235 L192 234 L193 236 L191 237 Z M283 232 L297 251 L298 259 L296 267 L303 261 L309 270 L311 286 L302 298 L287 279 L285 270 L282 269 L276 283 L263 300 L255 289 L255 278 L257 277 L263 262 L270 267 L272 266 L270 252 Z M382 216 L388 226 L391 235 L392 252 L387 266 L379 275 L373 270 L358 264 L358 252 L364 238 L377 223 L378 219 Z M283 193 L316 233 L328 252 L333 268 L317 278 L311 263 L288 232 L285 223 L281 222 L278 233 L267 246 L266 252 L261 255 L253 270 L251 282 L248 283 L238 276 L241 260 Z M215 185 L218 187 L220 193 L238 212 L240 222 L231 237 L227 232 L220 228 L226 238 L227 246 L219 261 L217 261 L203 245 L199 235 L200 215 L206 204 L212 205 L212 192 Z M358 178 L370 194 L372 201 L372 214 L366 229 L359 236 L355 248 L352 249 L342 230 L339 228 L338 214 L353 182 L356 178 Z M222 272 L236 237 L263 193 L279 161 L327 218 L342 240 L350 258 L349 264 L338 265 L330 244 L315 222 L288 190 L280 184 L242 246 L235 260 L233 273 Z M232 154 L235 155 L240 164 L242 165 L242 167 L252 178 L255 186 L255 195 L245 212 L243 212 L237 204 L237 202 L235 202 L228 195 L224 185 L224 171 Z M331 137 L335 139 L341 148 L346 166 L348 167 L348 177 L346 179 L345 187 L336 203 L332 216 L313 194 L313 181 L318 168 L324 159 Z M277 120 L284 128 L286 133 L290 136 L290 138 L296 146 L298 155 L296 167 L293 169 L281 153 L278 152 L270 170 L266 171 L261 162 L261 151 Z M249 112 L254 114 L264 127 L264 133 L257 146 L257 151 L255 153 L257 166 L264 177 L263 179 L258 178 L254 174 L254 172 L245 162 L240 151 L239 142 L240 134 Z M274 40 L277 42 L286 73 L293 85 L294 97 L290 115 L297 106 L299 96 L302 95 L322 128 L322 150 L311 172 L308 186 L298 175 L303 162 L304 140 L300 142 L288 126 L277 103 L270 123 L267 125 L258 109 L258 91 L271 65 Z"/></svg>
