<svg xmlns="http://www.w3.org/2000/svg" width="512" height="512" viewBox="0 0 512 512" aria-hidden="true" focusable="false"><path fill="currentColor" fill-rule="evenodd" clip-rule="evenodd" d="M254 343 L250 344 L246 348 L246 352 L248 354 L246 357 L246 361 L248 364 L254 367 L253 371 L255 375 L253 376 L252 381 L253 384 L257 384 L260 381 L260 378 L257 375 L257 372 L266 362 L265 355 L266 348 L261 344 Z M258 346 L259 348 L257 352 L261 354 L263 357 L262 358 L257 357 L254 359 L253 362 L251 362 L249 359 L253 355 L255 355 L255 353 L251 352 L250 349 L255 346 Z M255 306 L252 308 L252 315 L258 316 L260 314 L260 308 Z M343 304 L343 308 L345 310 L350 310 L353 307 L352 303 L349 301 L348 302 L346 301 Z M346 305 L348 304 L349 307 L347 308 Z M164 301 L160 304 L160 307 L163 310 L167 310 L169 309 L169 303 L167 301 L166 302 Z M163 305 L165 304 L166 307 L164 308 Z M346 225 L346 241 L344 243 L344 246 L346 248 L340 251 L340 254 L345 255 L346 257 L339 258 L337 260 L337 263 L338 264 L347 263 L350 266 L345 267 L338 271 L335 277 L335 281 L339 288 L350 290 L358 286 L359 276 L356 272 L350 272 L349 270 L357 269 L359 267 L359 264 L357 262 L350 261 L351 258 L356 258 L356 254 L349 252 L354 247 L349 244 L350 242 L349 224 Z M346 278 L348 277 L349 280 L347 281 Z M352 277 L354 276 L355 278 L353 279 Z M342 272 L345 273 L343 277 L343 282 L345 284 L344 286 L341 285 L339 281 L339 277 Z M345 207 L343 209 L343 214 L345 216 L350 216 L353 211 L351 208 Z M346 211 L348 210 L349 212 L347 213 Z M163 207 L160 210 L160 214 L162 216 L168 216 L169 209 L167 207 Z M163 211 L166 210 L167 212 L164 213 Z M256 201 L254 209 L254 224 L250 228 L252 232 L248 235 L248 241 L244 244 L244 249 L250 250 L254 247 L257 249 L249 255 L239 259 L234 266 L235 273 L242 279 L238 285 L238 293 L240 297 L251 303 L261 303 L272 297 L274 290 L272 287 L266 285 L258 286 L254 290 L254 293 L257 297 L249 297 L245 293 L245 285 L250 281 L254 281 L255 278 L246 276 L241 271 L241 266 L249 261 L264 261 L272 266 L272 269 L269 272 L264 270 L265 266 L262 266 L259 269 L259 272 L264 277 L275 276 L278 271 L277 263 L273 259 L258 254 L259 252 L267 252 L268 245 L265 243 L263 231 L259 227 L258 205 Z M262 289 L265 289 L267 291 L267 294 L264 297 L262 296 L263 294 L261 291 Z M255 115 L242 129 L192 145 L158 174 L138 205 L127 247 L113 261 L127 273 L133 303 L148 333 L173 361 L212 384 L246 391 L257 404 L270 390 L300 384 L326 371 L356 344 L375 313 L384 275 L398 259 L385 247 L371 198 L354 174 L320 145 L270 129 Z M324 327 L329 328 L329 331 L327 333 L323 332 L322 329 Z M254 328 L257 327 L258 331 L255 332 Z M186 326 L190 329 L188 333 L185 333 L183 331 L183 329 Z M156 279 L158 278 L163 285 L160 286 L157 283 Z M162 271 L163 274 L158 278 L157 275 Z M325 268 L324 322 L317 328 L262 327 L262 325 L321 267 Z M187 268 L191 267 L246 321 L249 327 L195 328 L188 322 Z M325 257 L329 259 L327 262 L323 261 Z M184 258 L187 257 L189 261 L185 262 Z M252 197 L260 197 L319 256 L319 264 L260 323 L252 323 L193 264 L193 256 Z M263 192 L317 191 L325 199 L325 252 L321 253 L263 195 Z M248 191 L249 195 L191 253 L188 253 L187 199 L195 191 Z M254 189 L257 188 L258 191 L255 192 Z M323 188 L327 187 L329 191 L324 192 Z M183 189 L185 187 L188 187 L189 191 L184 192 Z M256 177 L258 178 L257 182 L255 181 Z M234 134 L255 134 L253 159 L245 176 L249 187 L195 188 L184 176 L173 188 L184 199 L184 252 L177 263 L167 260 L173 255 L167 252 L171 247 L164 224 L164 248 L158 254 L165 256 L155 259 L156 264 L167 265 L153 276 L155 286 L162 290 L171 289 L177 282 L175 273 L166 270 L175 269 L177 263 L184 268 L184 321 L173 328 L184 344 L195 332 L248 332 L254 337 L264 332 L317 332 L325 344 L339 333 L338 327 L328 321 L328 268 L334 263 L328 252 L328 199 L339 187 L326 176 L317 188 L264 188 L261 183 L267 176 L258 157 L258 133 L294 138 L335 161 L363 193 L380 236 L380 284 L362 329 L326 366 L278 386 L224 384 L186 366 L150 329 L132 284 L133 231 L151 190 L186 154 Z M255 17 L254 45 L248 58 L253 65 L244 65 L245 75 L240 80 L242 84 L255 72 L239 96 L244 113 L234 117 L228 112 L229 107 L237 110 L231 99 L233 89 L221 106 L225 123 L191 135 L154 164 L133 194 L121 229 L101 226 L88 236 L99 236 L107 242 L110 238 L104 233 L110 232 L114 236 L111 248 L93 244 L70 262 L82 246 L65 249 L67 256 L57 253 L40 259 L32 255 L30 263 L46 261 L59 267 L66 263 L66 272 L83 274 L72 263 L75 261 L94 276 L111 272 L114 284 L110 288 L104 287 L110 282 L107 278 L99 284 L87 282 L102 294 L121 291 L131 323 L151 353 L191 385 L223 396 L221 414 L233 431 L231 420 L237 410 L229 413 L228 407 L233 403 L244 407 L239 424 L255 448 L242 435 L243 452 L250 450 L254 456 L248 460 L255 476 L252 494 L258 496 L257 476 L264 460 L258 456 L262 450 L268 453 L272 439 L270 435 L257 448 L273 424 L268 407 L273 403 L284 407 L283 413 L275 410 L281 420 L279 431 L290 418 L289 396 L323 384 L363 351 L381 323 L391 292 L410 294 L426 281 L413 284 L405 278 L402 282 L408 287 L402 288 L398 284 L402 271 L418 276 L439 261 L430 274 L445 273 L443 266 L447 263 L452 267 L466 261 L481 264 L482 257 L467 259 L454 253 L446 256 L444 246 L431 245 L443 259 L440 262 L419 244 L401 248 L398 236 L402 232 L408 233 L402 238 L405 242 L413 236 L424 236 L411 226 L391 228 L381 197 L361 167 L323 136 L287 123 L291 106 L279 89 L281 99 L275 110 L283 107 L284 112 L278 117 L268 113 L273 96 L258 73 L270 84 L272 81 L268 65 L263 69 L259 64 L264 58 L257 37 L260 19 Z M249 415 L251 415 L254 418 L252 423 L255 421 L260 423 L259 417 L261 415 L266 418 L265 427 L258 433 L254 433 L247 427 L246 418 Z M413 250 L417 250 L421 252 L426 259 L424 264 L417 270 L413 270 L410 267 L411 263 L417 264 L417 262 L415 261 L417 256 L410 255 L410 253 Z M95 250 L99 250 L103 254 L102 256 L97 255 L95 256 L97 259 L95 264 L101 263 L103 265 L99 270 L93 269 L85 260 L85 258 L91 252 Z M254 107 L269 123 L314 136 L344 156 L372 190 L392 248 L407 257 L406 263 L392 271 L380 315 L353 355 L321 380 L269 397 L258 413 L243 397 L201 385 L162 358 L133 317 L120 271 L105 262 L107 255 L120 248 L131 208 L157 167 L194 138 L241 124 Z M256 85 L266 95 L266 102 L262 105 L259 103 L259 98 L253 98 L253 103 L251 105 L246 102 L247 93 Z M254 69 L257 68 L259 71 L255 72 Z"/></svg>
