<svg xmlns="http://www.w3.org/2000/svg" width="512" height="512" viewBox="0 0 512 512" aria-hidden="true" focusable="false"><path fill="currentColor" fill-rule="evenodd" clip-rule="evenodd" d="M258 17 L245 47 L228 68 L221 89 L216 88 L195 120 L190 158 L165 140 L138 137 L119 126 L119 148 L129 162 L129 175 L139 197 L99 216 L91 223 L93 229 L82 230 L57 247 L33 255 L75 280 L93 284 L91 290 L100 298 L137 316 L129 350 L118 368 L119 386 L136 376 L166 372 L191 353 L196 393 L211 418 L221 423 L227 442 L251 475 L256 495 L263 473 L285 444 L292 423 L297 424 L318 392 L322 352 L337 367 L374 375 L394 386 L394 364 L384 350 L376 316 L413 298 L422 290 L420 284 L438 280 L456 266 L480 258 L439 233 L421 228 L421 222 L401 207 L372 196 L395 145 L394 126 L375 137 L348 140 L323 158 L318 120 L297 88 L292 89 L285 68 L263 38 Z M303 329 L305 328 L306 330 L304 331 Z M208 328 L210 329 L208 358 L211 370 L220 387 L251 424 L255 439 L258 439 L264 421 L289 392 L301 372 L305 358 L305 335 L309 334 L317 354 L317 371 L312 388 L296 413 L281 408 L285 417 L284 432 L262 461 L257 473 L230 434 L228 417 L232 408 L217 413 L201 387 L196 369 L196 356 L202 337 Z M287 313 L289 312 L290 314 L288 315 Z M224 312 L230 331 L251 352 L256 364 L262 352 L284 330 L288 317 L293 318 L298 332 L300 352 L295 370 L257 423 L228 387 L215 360 L213 341 Z M218 304 L219 306 L207 318 L207 320 L203 322 L202 320 L204 316 L215 305 Z M292 303 L294 302 L309 316 L312 322 L311 323 L308 322 L306 318 Z M250 284 L265 285 L276 298 L281 314 L278 328 L257 351 L235 328 L232 315 L234 304 L239 294 Z M412 287 L412 289 L401 298 L385 306 L373 309 L351 309 L340 306 L331 300 L332 298 L353 300 L370 296 L384 288 L399 274 L403 275 L406 281 Z M285 265 L320 301 L338 314 L333 324 L333 335 L338 343 L349 345 L356 339 L355 332 L347 328 L346 332 L349 333 L349 339 L344 339 L339 334 L340 323 L348 317 L361 318 L372 327 L377 337 L377 343 L369 345 L369 348 L375 350 L384 359 L388 369 L387 373 L379 369 L348 365 L334 355 L327 345 L320 323 L312 309 L303 300 L272 283 Z M228 265 L241 283 L210 300 L201 309 L194 321 L186 345 L178 356 L163 366 L139 368 L126 373 L125 369 L129 359 L137 351 L144 348 L144 345 L136 343 L137 334 L142 326 L152 318 L165 317 L174 325 L174 334 L166 339 L164 337 L166 330 L160 330 L157 339 L164 345 L175 343 L180 335 L180 324 L175 314 L193 301 Z M286 256 L308 238 L322 236 L331 240 L345 257 L330 274 L324 276 L313 276 L304 272 Z M168 256 L182 240 L188 237 L197 236 L205 238 L224 254 L224 260 L218 263 L204 275 L188 276 L182 273 Z M55 256 L81 238 L87 236 L108 238 L111 242 L106 247 L96 253 L85 255 L85 257 L105 265 L129 288 L143 296 L161 300 L179 298 L182 300 L175 305 L161 309 L141 309 L128 306 L112 298 L101 289 L109 275 L99 278 L87 278 L77 273 Z M254 233 L263 234 L271 238 L276 244 L279 253 L276 268 L268 275 L259 279 L251 278 L242 273 L237 268 L234 259 L235 249 L239 241 Z M319 227 L338 220 L365 222 L383 232 L409 257 L385 279 L367 290 L353 293 L326 290 L323 284 L334 279 L351 260 L359 256 L350 252 L333 233 Z M104 256 L129 233 L148 222 L174 220 L190 224 L190 230 L180 233 L163 252 L154 256 L162 260 L179 279 L195 285 L187 290 L172 293 L149 291 L132 282 Z M177 212 L179 211 L182 214 L180 215 Z M175 209 L174 213 L158 213 L145 216 L129 225 L113 240 L109 237 L108 234 L101 226 L101 224 L107 219 L109 219 L111 216 L131 206 L142 204 L160 204 Z M332 212 L342 206 L358 203 L383 206 L398 213 L413 224 L404 238 L418 234 L431 237 L457 254 L458 257 L426 278 L404 275 L402 271 L408 265 L428 257 L428 255 L423 255 L410 249 L388 228 L371 217 L356 213 L333 214 Z M223 198 L225 197 L227 201 L225 202 Z M311 189 L312 191 L306 200 L299 207 L294 209 L293 207 L306 194 L306 192 Z M202 189 L220 207 L219 210 L217 210 L204 197 L201 191 Z M256 161 L277 182 L280 189 L279 207 L275 215 L263 228 L248 227 L238 215 L233 203 L233 189 L236 182 Z M387 139 L388 143 L384 153 L370 164 L370 168 L377 169 L376 179 L372 185 L361 194 L345 194 L339 187 L340 177 L347 173 L350 176 L348 182 L353 182 L356 179 L356 173 L349 167 L338 169 L333 177 L333 188 L338 198 L325 207 L293 242 L285 247 L272 229 L301 214 L310 206 L318 194 L331 161 L348 147 L375 144 Z M126 139 L137 144 L167 148 L182 161 L190 177 L195 195 L201 204 L211 214 L241 230 L228 247 L224 246 L192 211 L175 199 L180 189 L180 177 L175 169 L164 167 L157 173 L160 182 L165 182 L164 175 L166 173 L174 179 L174 187 L166 195 L152 194 L141 185 L137 179 L136 169 L143 168 L143 164 L139 163 L129 153 L125 143 Z M294 99 L296 99 L301 104 L306 114 L308 115 L312 124 L315 138 L317 140 L317 159 L315 161 L311 176 L306 182 L304 181 L305 154 L303 145 L293 125 L279 109 L280 106 Z M256 89 L285 125 L297 148 L300 171 L297 181 L294 182 L294 192 L289 199 L284 182 L263 161 L257 147 L250 161 L229 182 L225 195 L220 194 L215 180 L213 160 L218 142 Z M257 40 L263 52 L284 80 L284 100 L277 106 L263 89 L258 73 L255 73 L249 91 L220 125 L211 142 L208 154 L208 178 L210 182 L208 184 L201 174 L196 159 L196 139 L201 124 L217 99 L229 105 L232 104 L228 95 L229 80 Z"/></svg>
