<svg xmlns="http://www.w3.org/2000/svg" width="512" height="512" viewBox="0 0 512 512" aria-hidden="true" focusable="false"><path fill="currentColor" fill-rule="evenodd" clip-rule="evenodd" d="M355 460 L359 463 L356 469 L364 479 L355 481 L356 486 L496 485 L496 481 L488 480 L490 474 L494 472 L493 463 L496 459 L487 459 L483 455 L475 459 L470 455 L450 460 L445 463 L439 473 L432 475 L431 473 L441 465 L441 450 L435 450 L428 438 L425 438 L417 450 L411 450 L413 453 L411 464 L415 470 L422 472 L420 475 L415 474 L406 462 L393 457 L380 455 L377 459 L368 455 L365 459 Z M477 477 L476 481 L470 480 L471 478 L475 476 Z M441 479 L446 476 L449 476 L451 480 L442 481 Z M374 477 L377 476 L381 478 L382 480 L375 481 Z M368 474 L370 473 L371 475 L369 476 Z M442 472 L445 471 L446 473 L443 474 Z M425 472 L427 471 L428 473 L426 474 Z M408 471 L410 475 L408 477 L409 480 L403 481 L402 477 L405 476 L406 472 Z M450 471 L453 470 L454 472 L456 472 L459 470 L460 474 L453 475 Z M392 471 L393 470 L396 472 L400 471 L401 473 L395 476 L392 474 Z M370 468 L373 467 L374 469 L371 470 Z M448 467 L451 466 L452 469 L450 470 Z M400 469 L401 466 L404 467 L402 470 Z M367 467 L369 466 L370 468 L368 469 Z M468 463 L470 462 L471 464 L469 465 Z M426 462 L428 463 L427 469 L424 467 L424 464 Z M383 462 L384 464 L381 467 L380 465 Z M489 461 L492 460 L493 463 L491 464 Z M435 461 L438 460 L439 463 L436 464 Z M393 460 L394 462 L392 467 L390 468 L389 467 L390 461 Z M465 460 L467 459 L469 462 L467 463 Z M461 459 L463 460 L462 464 L464 465 L462 470 L460 469 L460 465 L458 462 Z M423 459 L424 461 L420 465 L419 462 L421 459 Z M386 459 L387 461 L384 463 L383 461 Z M477 460 L480 458 L481 460 L484 460 L485 462 L480 463 Z M375 460 L374 462 L371 463 L366 462 L367 460 L370 460 L372 458 Z M415 455 L418 454 L419 456 L416 457 Z M425 452 L433 461 L432 466 L428 462 L427 458 L423 457 Z M429 450 L431 449 L432 451 L430 452 Z M426 442 L429 444 L428 447 L424 446 Z M17 471 L17 480 L19 482 L21 479 L23 486 L39 484 L45 477 L50 477 L57 471 L56 465 L53 468 L50 466 L52 461 L68 464 L68 461 L65 460 L68 449 L67 439 L71 438 L72 449 L75 451 L75 460 L72 463 L76 465 L80 461 L85 462 L88 458 L90 459 L90 466 L88 468 L86 465 L83 466 L86 474 L97 479 L101 478 L100 482 L108 487 L116 487 L124 478 L123 468 L114 459 L113 454 L110 455 L107 463 L94 440 L91 439 L88 432 L84 431 L82 421 L78 420 L71 400 L69 400 L62 420 L58 421 L56 431 L52 432 L48 440 L45 440 L44 446 L37 453 L34 462 L31 462 L31 457 L27 454 Z M117 481 L119 480 L120 482 L118 483 Z M116 476 L117 478 L114 481 L112 481 L111 479 Z M23 477 L24 476 L27 477 L28 480 L27 481 L24 480 Z M91 473 L93 472 L94 474 L92 475 Z M19 471 L21 472 L20 479 L18 478 Z M114 471 L116 470 L117 472 L115 473 Z M107 467 L109 468 L110 474 L109 476 L106 474 Z M33 466 L34 474 L30 477 L29 474 L31 473 L31 467 Z M36 465 L38 464 L39 466 L37 467 Z M27 461 L28 464 L20 471 L19 470 L20 467 Z M111 460 L114 459 L115 462 L119 466 L118 467 L113 466 Z M57 446 L59 447 L58 450 L55 449 Z M49 445 L50 447 L46 451 L45 447 Z M80 441 L82 445 L85 447 L85 449 L80 450 L80 452 L78 453 L76 447 L78 442 Z M61 441 L63 442 L62 445 L59 444 Z M56 437 L58 436 L59 439 L57 440 Z M81 436 L83 435 L84 437 L82 438 Z M71 434 L73 433 L75 437 L73 438 Z M68 433 L69 434 L68 438 L65 439 L64 437 Z M73 428 L76 427 L77 430 L75 431 Z M64 427 L66 426 L67 428 L65 429 Z M77 425 L79 424 L80 427 L78 428 Z M60 425 L63 424 L64 426 L61 427 Z M73 419 L75 418 L76 420 L74 421 Z M64 419 L66 418 L67 420 L65 421 Z M68 410 L71 409 L72 411 L69 412 Z M181 400 L163 409 L152 422 L146 440 L147 457 L153 471 L163 478 L165 484 L183 491 L206 490 L220 483 L232 469 L238 451 L236 431 L227 415 L215 405 L197 399 Z M197 469 L200 468 L203 471 L203 474 L201 475 Z M185 468 L186 470 L183 473 L183 475 L180 476 L179 473 L181 469 Z M221 476 L220 479 L216 478 L211 482 L204 485 L195 487 L192 486 L199 478 L205 478 L207 476 L208 468 L210 466 L212 467 L211 472 L213 474 L218 474 Z M164 475 L171 474 L171 468 L174 466 L176 468 L175 471 L176 476 L179 478 L184 477 L189 482 L190 485 L182 486 L176 484 L167 478 L165 478 Z M176 464 L178 463 L181 467 L178 468 Z M181 462 L187 460 L192 465 L194 461 L197 460 L202 461 L203 463 L199 466 L195 466 L194 470 L189 470 L188 466 L184 466 Z M180 456 L183 454 L186 458 L183 459 Z M169 451 L170 455 L167 456 L166 459 L163 459 L161 456 L165 454 L167 451 Z M215 450 L221 455 L220 459 L218 459 L217 456 L214 455 Z M231 448 L232 453 L230 460 L225 469 L222 471 L220 465 L214 465 L213 463 L221 462 L223 460 L224 454 L226 451 Z M153 448 L160 454 L160 458 L163 462 L169 461 L171 463 L170 465 L163 466 L162 473 L158 469 L152 453 Z M219 445 L221 444 L222 446 L220 447 Z M161 445 L164 444 L165 447 L163 448 Z M200 443 L202 444 L201 448 L198 447 Z M191 442 L193 442 L196 446 L195 451 L193 453 L189 452 L187 449 L188 445 Z M212 441 L215 444 L215 447 L212 450 L210 455 L207 457 L204 452 L207 450 L208 444 Z M184 439 L185 442 L182 445 L181 442 Z M165 437 L169 436 L170 441 L168 442 Z M217 434 L220 433 L221 436 L218 437 Z M189 433 L192 432 L196 438 L193 439 L192 437 L190 437 Z M161 435 L163 432 L166 433 L165 437 L162 437 Z M213 427 L217 426 L218 429 L214 430 Z M166 427 L170 426 L171 429 L167 430 Z M203 425 L205 424 L206 427 L204 428 Z M177 425 L180 424 L181 426 L178 427 Z M208 432 L211 439 L204 440 L203 436 L199 437 L197 433 L191 428 L185 437 L181 436 L180 440 L174 440 L177 450 L180 451 L177 458 L175 459 L174 456 L171 455 L171 450 L169 449 L168 443 L171 442 L170 435 L172 434 L174 436 L176 431 L184 426 L188 426 L189 422 L194 422 L196 426 L203 427 Z M208 422 L211 421 L212 424 L210 425 Z M197 422 L199 421 L200 423 L198 424 Z M222 420 L225 421 L230 431 L232 438 L231 444 L224 438 L223 432 L219 429 L219 426 L221 425 Z M162 419 L164 429 L160 434 L160 438 L153 445 L152 444 L153 432 L158 422 Z M199 421 L201 416 L205 417 L204 420 L202 420 L201 422 Z M178 417 L181 416 L187 423 L182 424 L181 421 L178 419 Z M190 416 L193 415 L194 417 L191 418 Z M188 411 L190 410 L191 412 L189 413 Z M191 409 L193 408 L194 410 L192 411 Z M193 406 L200 405 L207 407 L216 412 L219 416 L209 419 L206 414 L200 414 L197 410 L193 408 Z M189 405 L190 407 L184 414 L178 414 L176 416 L175 425 L171 423 L170 417 L165 416 L168 412 L175 408 Z M306 384 L304 387 L308 389 L305 390 L305 393 L323 409 L325 413 L325 422 L331 424 L334 429 L334 473 L332 478 L328 481 L320 482 L319 478 L314 478 L307 467 L305 467 L304 471 L297 478 L292 478 L292 482 L280 479 L278 474 L278 428 L281 423 L287 422 L288 409 L300 399 L296 393 L294 395 L296 399 L291 405 L287 403 L284 404 L280 416 L272 425 L272 481 L275 484 L272 488 L277 492 L319 493 L322 491 L333 492 L339 489 L337 486 L339 482 L339 426 L337 421 L331 417 L327 404 Z M317 488 L319 487 L321 490 L318 491 Z M293 487 L295 488 L294 491 L291 490 Z M283 485 L285 487 L284 490 L280 491 L277 489 L279 486 Z M320 485 L322 484 L323 486 L321 487 Z M289 485 L291 484 L292 486 L290 487 Z M327 484 L329 483 L330 485 L334 487 L334 489 L332 491 L329 491 L327 489 L328 487 Z M307 483 L309 482 L310 484 L308 485 Z M302 483 L304 482 L308 488 L303 489 L301 487 Z M282 483 L284 482 L285 484 L283 485 Z M316 480 L317 483 L315 486 L313 486 L312 483 Z M295 481 L297 480 L300 484 L297 485 Z M331 480 L334 479 L335 481 L332 482 Z M275 483 L277 478 L281 480 L280 483 L277 484 Z M304 472 L307 471 L308 474 L305 475 Z M332 420 L337 424 L338 427 L338 475 L336 479 L334 478 L335 475 L335 428 L334 425 L331 423 Z M324 405 L327 406 L329 411 L328 413 L325 411 L323 407 Z M316 399 L319 398 L320 401 L318 402 Z M311 395 L314 394 L315 397 L313 398 Z M211 315 L215 320 L216 318 L213 315 Z M48 349 L55 358 L50 348 L50 339 L53 332 L65 324 L53 340 L54 350 L61 359 L59 364 L86 371 L122 363 L121 369 L128 370 L132 364 L136 369 L140 367 L139 360 L131 354 L137 349 L146 347 L145 356 L153 358 L158 351 L156 345 L163 341 L168 345 L166 351 L172 350 L173 341 L171 345 L164 340 L150 343 L153 339 L149 337 L161 334 L171 339 L166 334 L154 331 L173 320 L185 320 L188 325 L192 320 L197 320 L202 325 L201 332 L197 329 L183 330 L187 341 L194 345 L204 344 L214 337 L222 344 L236 343 L242 337 L229 336 L224 331 L228 326 L219 322 L213 327 L205 315 L195 310 L198 308 L209 314 L205 309 L182 304 L159 313 L157 317 L170 309 L176 309 L162 318 L163 322 L159 325 L154 321 L155 312 L150 314 L144 327 L128 344 L132 316 L139 314 L140 309 L128 306 L122 310 L109 301 L112 298 L110 296 L104 304 L108 326 L105 333 L109 332 L113 336 L111 346 L102 342 L98 345 L102 349 L98 355 L97 350 L93 356 L83 358 L80 353 L77 356 L68 356 L61 352 L58 341 L64 333 L74 336 L74 340 L68 340 L67 345 L76 349 L82 345 L84 335 L92 332 L88 329 L91 321 L88 316 L82 321 L66 321 L57 325 L49 335 Z M96 365 L93 368 L76 368 L75 367 L76 365 L91 365 L92 364 Z M71 365 L73 364 L74 366 L72 367 Z M68 364 L70 363 L71 365 L69 366 Z M60 361 L63 360 L67 362 L68 364 L66 365 L61 363 Z M96 358 L95 360 L88 363 L75 363 L68 360 L69 358 L78 358 L81 360 L87 360 L94 357 Z M125 358 L127 356 L130 356 L131 358 L135 359 L137 362 L136 363 L129 362 L129 366 L127 367 L125 363 L126 361 Z M59 353 L61 352 L62 354 L60 355 Z M150 344 L153 345 L155 348 L154 355 L151 354 L152 350 L149 346 Z M123 352 L127 344 L129 345 L133 344 L135 346 L133 350 L127 351 L125 353 Z M137 344 L139 343 L140 345 L138 346 Z M190 341 L191 339 L194 338 L198 340 L204 338 L206 339 L204 342 L199 344 L196 344 Z M146 338 L148 337 L149 339 L147 340 Z M137 338 L141 337 L144 341 L140 344 Z M82 337 L82 340 L78 346 L73 347 L69 345 L70 343 L75 343 L79 339 L80 336 Z M196 334 L198 333 L202 337 L198 338 Z M186 333 L189 332 L190 335 L187 336 Z M77 332 L79 331 L81 335 L79 336 Z M147 330 L150 329 L151 332 L148 333 Z M115 329 L118 333 L118 343 L115 349 L108 356 L102 359 L101 356 L104 351 L102 344 L103 343 L106 344 L108 348 L113 347 L115 343 L115 335 L112 333 L112 331 Z M81 330 L85 328 L88 331 L84 333 Z M215 328 L216 327 L219 328 L226 336 L234 339 L235 341 L231 342 L226 339 L224 339 L223 342 L220 341 L217 337 L217 332 Z M144 328 L146 327 L147 329 L145 330 Z M117 327 L119 326 L121 330 L119 331 Z M66 324 L76 323 L77 326 L76 327 L67 326 Z M88 322 L85 326 L81 325 L85 321 Z M150 318 L152 319 L153 322 L152 324 L147 323 L147 321 Z M165 318 L168 317 L169 319 L166 320 Z M169 317 L171 316 L172 318 L170 319 Z M172 316 L176 315 L177 317 L173 318 Z M115 312 L117 314 L117 320 L114 322 L117 325 L113 327 L108 323 L107 318 L110 317 Z M182 312 L191 311 L201 315 L207 323 L207 332 L206 333 L204 332 L204 325 L200 320 L197 318 L186 319 L185 314 L183 314 Z M135 308 L136 310 L130 316 L128 335 L125 343 L123 344 L122 343 L123 329 L121 326 L122 323 L120 323 L119 321 L124 318 L123 314 L127 309 Z M192 308 L194 307 L195 309 L193 310 Z M176 308 L179 307 L180 309 L177 310 Z M113 308 L115 307 L118 308 L119 310 L116 311 Z M183 307 L187 306 L188 308 L184 309 Z M107 306 L110 305 L113 308 L108 309 Z M291 290 L291 369 L385 369 L386 363 L367 360 L362 357 L363 353 L358 353 L348 344 L336 344 L335 340 L329 341 L320 335 L310 338 L308 345 L313 351 L307 351 L305 344 L302 343 L302 338 L307 331 L310 334 L314 333 L320 320 L314 319 L314 305 L308 302 L305 297 L305 290 L303 290 L299 300 L296 299 L296 290 Z M364 361 L366 360 L367 362 L365 363 Z M341 360 L345 359 L346 362 L343 363 Z M349 361 L351 360 L352 357 L356 357 L361 362 L360 363 L355 362 L350 363 Z M298 356 L300 355 L301 358 L299 359 Z M324 355 L326 354 L328 358 L326 359 Z M312 355 L315 354 L316 356 L313 357 Z M341 352 L342 353 L341 356 L337 359 L334 356 L334 354 L337 352 Z M303 351 L305 351 L306 355 L309 356 L307 361 L301 356 Z M344 351 L345 350 L348 351 L348 348 L350 347 L355 352 L355 354 L353 355 L350 352 L349 355 L346 355 Z M312 346 L314 345 L315 347 L313 348 Z M340 345 L345 344 L348 346 L347 349 L341 348 Z M319 344 L323 348 L323 352 L321 355 L319 354 L318 349 Z M330 343 L333 342 L334 345 L331 346 Z M310 342 L312 341 L313 344 L311 345 Z M323 341 L325 340 L327 344 L324 345 Z M312 339 L314 337 L322 337 L324 340 L323 341 L321 340 L313 341 Z M310 330 L312 329 L313 331 L311 332 Z M316 322 L317 324 L313 328 L311 324 Z M307 322 L308 324 L304 327 L307 327 L308 329 L302 333 L298 333 L297 329 L303 322 Z M310 309 L312 310 L313 313 L311 318 L309 317 Z M296 318 L297 309 L300 312 L305 313 L304 315 L300 315 L298 319 Z M307 305 L309 306 L308 311 L306 310 Z M301 303 L303 304 L302 309 L300 308 Z M302 300 L304 299 L305 302 L303 303 Z M264 255 L270 259 L284 258 L287 260 L286 264 L297 264 L302 261 L303 258 L308 256 L311 256 L312 259 L317 259 L318 262 L324 262 L327 259 L326 250 L328 247 L335 247 L338 249 L343 249 L343 247 L338 241 L332 238 L325 238 L317 241 L313 241 L310 239 L310 243 L313 248 L307 252 L300 252 L299 250 L303 249 L303 246 L301 244 L297 244 L294 248 L294 251 L296 254 L294 256 L290 253 L290 243 L288 242 L288 240 L279 238 L279 249 L270 250 L264 253 Z M318 258 L323 257 L324 259 L319 260 Z M297 255 L301 254 L302 256 L298 257 Z M286 255 L289 254 L290 256 L287 257 Z M283 253 L285 252 L286 254 L284 255 Z M272 252 L274 253 L273 257 L269 255 Z M317 247 L318 254 L314 256 L313 253 L315 248 Z M322 246 L324 247 L325 250 L324 255 L320 254 L320 248 Z M283 246 L285 245 L286 247 L284 248 Z M318 243 L321 242 L322 244 L319 245 Z M335 259 L338 260 L339 265 L341 262 L349 262 L353 264 L365 263 L373 267 L379 262 L392 264 L399 261 L406 264 L409 256 L396 251 L399 244 L402 251 L407 249 L408 246 L415 247 L418 250 L423 248 L425 253 L423 255 L417 253 L416 255 L417 260 L422 263 L427 262 L428 259 L432 260 L435 256 L444 260 L446 264 L458 264 L458 260 L461 258 L474 259 L481 254 L473 250 L467 250 L466 239 L464 238 L456 241 L454 253 L451 255 L449 254 L449 245 L443 244 L441 248 L445 251 L440 256 L439 252 L435 254 L432 248 L435 239 L427 241 L412 238 L401 245 L400 242 L393 240 L394 234 L386 235 L384 228 L376 230 L372 225 L368 230 L360 228 L358 234 L351 233 L351 240 L345 242 L350 253 L343 252 L338 254 Z M373 260 L375 259 L376 262 L374 263 Z M420 258 L425 257 L426 259 L421 260 Z M379 258 L383 257 L384 260 L381 261 Z M359 261 L360 257 L365 258 L363 261 L361 262 Z M398 257 L402 256 L403 258 L399 259 Z M340 257 L346 256 L349 259 L341 260 Z M455 255 L458 254 L459 256 L456 257 Z M445 255 L447 254 L448 256 L446 257 Z M471 253 L473 252 L475 256 L472 257 Z M459 253 L461 252 L462 254 L460 255 Z M428 249 L431 252 L430 255 L427 254 Z M445 248 L447 247 L448 249 L446 250 Z M458 246 L460 245 L461 248 L459 249 Z M394 243 L395 247 L394 250 L392 251 L391 248 L392 244 Z M349 243 L352 244 L353 248 L352 252 L350 251 L348 245 Z M423 243 L425 242 L426 244 L424 245 Z M357 242 L360 244 L359 252 L356 250 Z M372 240 L377 245 L377 252 L374 255 L369 254 L366 250 L367 245 Z M387 238 L390 243 L387 244 L387 248 L385 249 L383 240 Z M387 237 L390 236 L391 238 L388 239 Z M379 232 L381 231 L382 234 L380 235 Z M364 231 L365 235 L362 240 L357 242 L355 238 L356 237 L360 238 L362 232 Z M372 229 L376 233 L377 236 L376 238 L373 237 L373 234 L370 236 L368 235 L368 233 Z M236 259 L235 256 L231 255 L228 257 L211 257 L208 254 L201 256 L202 250 L190 251 L186 242 L179 255 L175 256 L174 253 L177 252 L175 240 L169 247 L169 237 L164 228 L157 241 L157 251 L160 254 L165 251 L166 254 L162 258 L155 258 L153 243 L151 240 L148 244 L145 243 L146 239 L138 225 L133 192 L125 229 L122 231 L122 236 L119 238 L120 244 L118 245 L113 240 L111 251 L107 251 L108 241 L102 228 L100 228 L95 236 L97 243 L94 245 L89 240 L85 249 L77 242 L73 250 L61 250 L60 254 L55 254 L52 257 L34 257 L31 255 L24 258 L31 260 L68 260 L71 258 L82 263 L95 260 L100 264 L110 264 L118 258 L127 258 L129 246 L133 244 L136 247 L138 258 L144 257 L155 264 L164 264 L169 261 L181 263 L189 261 L193 257 L196 260 Z M175 259 L178 258 L179 260 L176 261 Z M86 259 L88 258 L89 260 L87 261 Z M139 254 L142 253 L143 255 L140 256 Z M122 254 L125 253 L126 255 L123 256 Z M196 253 L198 252 L199 254 L197 255 Z M109 253 L108 258 L103 258 L99 255 L100 253 L107 252 Z M76 252 L78 253 L79 257 L78 259 L76 259 L73 256 L73 254 Z M186 251 L190 254 L188 259 L185 258 Z M84 252 L86 251 L87 253 L85 254 Z M182 250 L185 249 L186 251 L183 252 Z M169 249 L171 251 L171 255 L165 261 L164 258 L167 256 L167 250 Z M95 249 L97 250 L96 252 L98 257 L97 260 L95 259 L93 254 Z M125 246 L127 247 L126 251 L124 250 Z M137 244 L139 243 L140 245 L138 246 Z M102 241 L104 240 L105 242 L103 243 Z M162 239 L163 241 L160 243 L159 241 Z M130 240 L134 239 L138 243 L136 244 L134 242 L131 242 Z M165 238 L167 237 L168 239 L166 240 Z M163 235 L165 234 L166 236 L164 237 Z M131 235 L133 234 L134 236 L132 237 Z M134 231 L136 230 L137 233 L135 234 Z M202 55 L188 73 L183 85 L174 79 L172 101 L160 101 L169 118 L193 133 L194 137 L187 141 L181 133 L174 133 L176 141 L172 142 L172 130 L163 120 L156 122 L162 128 L166 143 L177 149 L182 156 L191 157 L200 168 L211 157 L221 156 L226 149 L233 147 L238 141 L242 126 L248 125 L246 121 L239 120 L229 133 L221 133 L215 140 L208 138 L210 132 L220 129 L232 120 L242 101 L231 101 L228 79 L220 85 Z M195 154 L198 153 L200 156 L200 159 L202 160 L203 154 L206 153 L208 155 L208 158 L201 165 L199 165 L197 160 L195 159 Z M223 148 L221 152 L219 151 L211 152 L210 151 L211 149 L215 149 L217 147 Z M179 148 L186 147 L188 149 L192 149 L193 151 L186 152 L185 154 L183 154 L179 150 Z M202 148 L203 145 L206 146 L204 149 Z M198 144 L200 145 L200 148 L203 150 L202 152 L198 151 L197 148 Z M224 144 L226 143 L227 145 L225 146 Z M176 145 L177 142 L180 143 L178 146 Z M212 142 L214 141 L215 143 L213 144 Z M200 140 L202 139 L203 141 L201 142 Z M223 136 L224 138 L221 141 L222 144 L218 145 L217 144 L218 139 L221 136 Z M231 135 L232 139 L228 142 L227 137 Z M197 136 L199 135 L200 137 L198 138 Z M177 136 L180 135 L185 140 L186 143 L182 145 L181 141 L177 138 Z M202 135 L204 134 L206 137 L204 138 Z M198 133 L201 131 L203 132 L202 135 L199 135 Z M193 129 L194 128 L197 129 L198 132 L194 133 Z M203 128 L205 127 L209 129 L210 132 L209 133 L204 132 Z M210 127 L213 126 L214 128 L211 129 Z M188 127 L191 126 L192 128 L189 129 Z M164 124 L168 127 L168 130 L170 131 L168 139 L166 138 L163 128 Z M241 122 L242 124 L239 126 L237 136 L235 137 L232 131 L234 130 L235 126 Z M235 104 L236 107 L233 114 L229 119 L223 122 L222 120 L227 115 L230 107 L233 104 Z M215 104 L217 105 L218 109 L217 111 L214 108 Z M207 103 L210 104 L212 108 L211 111 L206 105 Z M194 103 L195 104 L192 113 L190 114 L189 109 L191 105 Z M166 103 L172 106 L175 114 L178 117 L177 121 L175 121 L168 113 L167 107 L165 105 Z M190 100 L191 102 L188 105 L187 112 L185 113 L184 112 L185 104 L188 100 Z M226 98 L228 97 L229 99 L227 100 Z M210 95 L212 94 L213 96 L211 97 Z M201 92 L206 97 L206 104 L204 106 L208 112 L206 120 L204 122 L197 121 L194 116 L194 112 L196 108 L201 103 L203 103 L202 98 L200 98 L198 103 L195 101 L196 97 Z M208 92 L210 91 L211 93 L209 94 Z M221 88 L223 89 L225 100 L224 108 L222 111 L220 110 L216 95 L217 91 L220 90 Z M210 88 L212 87 L213 89 L211 90 Z M190 87 L193 90 L192 94 L190 93 L189 90 Z M213 86 L215 85 L216 87 L214 88 Z M178 85 L187 94 L184 97 L185 101 L183 104 L182 113 L179 111 L177 106 L178 93 L176 97 L176 104 L175 105 L173 104 L173 96 L176 90 L176 87 Z M185 85 L187 84 L188 86 L186 87 Z M200 76 L202 76 L207 81 L207 89 L205 91 L203 90 L202 86 L200 87 L198 91 L194 87 L195 81 Z M194 75 L196 74 L197 76 L195 77 Z M190 74 L192 73 L193 75 L191 76 Z M207 71 L209 70 L211 74 L208 75 Z M205 69 L207 68 L208 70 L206 71 Z M202 61 L206 67 L203 68 L198 74 L195 68 Z M317 53 L315 60 L301 79 L305 90 L302 92 L295 87 L294 92 L285 96 L272 108 L272 111 L288 125 L293 126 L295 131 L301 127 L305 128 L301 139 L319 162 L335 138 L330 129 L335 127 L341 131 L342 127 L349 124 L364 108 L354 102 L348 94 L343 93 L341 87 L335 92 L330 89 L335 80 Z M317 149 L319 148 L320 151 L318 152 Z M326 139 L327 143 L321 148 L320 144 L324 139 Z M312 138 L314 139 L314 142 L317 146 L316 149 L313 147 L313 145 L310 144 L309 140 Z M316 137 L319 136 L321 140 L318 142 L316 140 Z M323 134 L327 131 L330 133 L329 136 L327 135 L324 136 Z M306 133 L309 130 L310 132 L314 133 L315 136 L312 137 L311 135 L307 135 Z M337 124 L339 123 L340 125 L338 126 Z M319 124 L321 123 L322 125 L320 126 Z M334 120 L335 123 L331 125 L329 128 L325 126 L327 123 L330 123 L331 120 Z M297 121 L299 120 L301 122 L305 120 L306 123 L309 123 L311 125 L311 127 L308 128 L305 125 L298 125 Z M338 116 L340 117 L339 121 L337 120 Z M316 117 L320 116 L324 122 L322 123 L320 121 L317 121 Z M326 115 L328 116 L327 120 L325 119 Z M343 114 L348 113 L351 119 L348 122 L346 120 L343 120 L342 119 Z M288 113 L294 115 L293 119 L291 120 L287 116 Z M348 112 L351 111 L352 113 L349 114 Z M284 112 L286 111 L287 113 L285 114 Z M325 111 L327 110 L328 112 L326 113 Z M342 107 L343 106 L346 107 L347 110 L343 112 Z M292 106 L294 107 L293 112 L289 109 Z M280 107 L282 106 L283 109 L281 110 Z M316 104 L320 104 L322 106 L320 114 L316 114 L313 110 L313 107 Z M330 103 L334 106 L332 110 L335 111 L332 115 L330 115 L328 111 L329 109 L328 106 Z M304 103 L307 104 L306 113 L302 113 L299 110 L299 108 Z M297 100 L299 101 L298 105 L296 104 Z M308 99 L309 98 L313 99 L314 102 L310 104 Z M284 106 L287 103 L287 101 L285 100 L286 98 L293 100 L294 102 L293 104 L288 105 L287 107 Z M336 98 L339 97 L341 102 L337 103 Z M316 98 L319 97 L321 101 L317 102 Z M346 96 L349 98 L348 101 L352 106 L351 108 L348 105 L342 103 L342 100 Z M321 96 L323 95 L324 97 L322 98 Z M331 95 L334 94 L335 98 L333 99 Z M303 94 L306 95 L305 100 L302 98 Z M335 94 L337 93 L338 95 L336 96 Z M298 94 L300 93 L301 95 L299 96 Z M327 90 L329 90 L331 93 L328 96 L325 94 Z M317 90 L319 89 L322 94 L320 95 Z M311 88 L312 91 L309 96 L306 95 L305 93 L307 92 L309 88 Z M306 84 L311 83 L312 85 L307 86 Z M321 83 L329 82 L330 85 L327 87 L322 85 Z M318 75 L321 78 L319 83 L316 82 L316 78 Z M307 76 L310 75 L311 73 L314 74 L313 79 L310 79 Z M316 68 L317 71 L314 74 L313 70 Z M318 66 L320 67 L323 66 L325 68 L324 73 L327 75 L326 79 L324 79 L317 68 Z M83 25 L77 30 L76 49 L61 71 L56 90 L49 88 L50 94 L43 109 L41 138 L50 150 L60 153 L51 154 L56 168 L50 173 L80 172 L109 157 L107 153 L118 140 L115 136 L118 114 L115 113 L114 97 L101 78 L96 62 L91 62 L93 50 L82 31 Z M57 169 L59 168 L60 170 L58 171 Z M80 168 L82 167 L83 169 L81 170 Z M74 168 L76 167 L77 169 L75 170 Z M83 167 L84 163 L89 164 L85 168 Z M77 159 L76 163 L71 168 L67 170 L61 169 L61 167 L67 161 L70 164 L74 157 Z M62 158 L64 157 L65 159 L63 160 Z M56 157 L60 159 L61 161 L60 165 L56 162 L55 160 Z M97 152 L103 157 L100 160 L95 161 L92 158 L97 156 L96 154 Z M69 152 L71 153 L70 157 L68 156 Z M82 146 L88 150 L85 154 L80 151 L80 148 Z M63 144 L66 144 L70 147 L69 149 L65 150 L66 152 L65 154 L63 154 L61 151 Z M99 149 L100 146 L105 144 L102 142 L103 139 L105 139 L106 141 L110 139 L115 140 L112 146 L108 150 L106 150 L105 148 L101 150 Z M46 138 L49 140 L49 143 L51 145 L50 147 L48 147 L45 142 Z M68 137 L72 138 L76 144 L77 152 L75 155 L73 154 L72 147 L69 146 L69 143 L67 141 Z M87 134 L90 137 L88 143 L86 142 Z M107 129 L108 133 L105 136 L103 136 L102 131 L104 129 Z M43 130 L45 129 L47 133 L45 134 Z M58 131 L65 129 L67 124 L69 123 L72 129 L78 134 L80 138 L80 142 L78 143 L75 139 L72 138 L71 131 L69 131 L66 134 L65 140 L62 141 L57 135 Z M43 124 L44 123 L47 124 L48 127 L44 128 Z M86 120 L89 119 L90 122 L88 123 Z M114 118 L116 127 L114 132 L111 134 L108 129 L112 127 L112 125 L110 125 L109 122 Z M105 118 L107 119 L106 125 L101 122 Z M97 115 L100 116 L98 120 L96 119 Z M46 115 L48 114 L52 119 L46 121 L45 120 Z M86 112 L88 116 L84 118 L84 123 L86 125 L92 125 L92 123 L94 122 L99 129 L100 139 L94 152 L85 161 L83 161 L82 159 L90 152 L95 143 L96 138 L95 133 L93 131 L82 131 L83 133 L82 135 L78 134 L73 126 L72 119 L73 118 L77 119 L77 126 L78 128 L81 129 L79 124 L79 118 L82 114 Z M65 108 L71 111 L71 116 L69 120 L67 119 L67 115 L64 114 Z M70 108 L72 107 L73 110 L71 111 Z M112 103 L113 112 L110 114 L109 105 Z M87 101 L91 103 L94 108 L92 119 L90 118 L90 112 L88 110 L88 107 L86 106 Z M94 100 L98 102 L100 107 L100 110 L98 113 L96 112 L95 105 L91 103 Z M82 98 L84 104 L79 109 L78 115 L75 116 L74 115 L75 111 L79 104 L80 99 Z M51 97 L53 98 L54 104 L61 109 L62 117 L60 120 L65 121 L65 124 L63 127 L56 126 L52 132 L54 140 L59 145 L58 147 L51 141 L49 135 L49 132 L53 123 L57 122 L57 120 L55 119 L57 117 L57 114 L55 111 L51 111 L48 106 L49 100 Z M85 97 L87 96 L88 99 L86 100 Z M101 95 L103 98 L99 101 L98 98 Z M93 96 L95 95 L96 97 L94 98 Z M56 94 L60 97 L59 102 L55 101 Z M63 93 L65 94 L65 98 L68 104 L67 106 L63 102 L62 98 Z M104 91 L106 90 L108 94 L105 95 Z M86 90 L91 88 L93 93 L89 94 Z M80 89 L82 88 L83 90 L81 91 Z M100 86 L102 85 L104 89 L101 90 Z M83 79 L84 81 L82 82 L82 86 L77 88 L78 96 L72 99 L71 92 L73 88 L79 84 L80 80 Z M73 78 L76 82 L71 85 L68 82 Z M61 79 L63 78 L65 82 L62 83 Z M81 74 L79 78 L74 77 L75 75 L79 73 Z M95 69 L98 73 L98 78 L94 79 L91 85 L89 86 L87 84 L87 79 L89 77 L92 77 L93 70 Z M68 66 L71 68 L70 71 L66 70 Z M91 63 L92 64 L91 71 L86 74 L85 72 L87 69 L87 66 Z M82 55 L83 56 L82 62 L79 63 L77 67 L77 71 L75 72 L73 68 L74 64 L72 63 L72 60 L74 57 L78 58 L79 55 Z M90 52 L91 55 L89 61 L85 64 L84 63 L85 54 Z M80 34 L84 36 L87 43 L87 50 L85 52 L82 51 L79 45 L80 41 L79 35 Z M434 20 L417 49 L410 44 L400 71 L393 63 L391 79 L399 102 L399 140 L391 158 L402 176 L465 177 L478 161 L471 140 L471 101 L479 78 L477 63 L469 71 L469 61 L460 44 L454 47 Z M459 173 L463 171 L466 174 L460 175 Z M405 172 L409 171 L410 174 L406 175 Z M421 170 L422 173 L421 176 L419 177 L417 174 Z M443 170 L444 169 L449 170 L450 173 L452 173 L453 175 L451 177 L447 177 Z M467 167 L469 166 L470 168 L468 169 Z M451 167 L455 166 L456 168 L452 169 Z M432 166 L436 169 L435 173 L433 172 L433 170 L430 169 Z M402 166 L404 165 L405 167 L403 168 Z M433 165 L436 164 L439 166 L439 168 L437 169 Z M446 163 L447 167 L443 168 L442 166 Z M423 164 L425 163 L428 167 L424 168 Z M469 163 L471 162 L472 164 L470 165 Z M465 161 L466 163 L462 167 L459 168 L458 166 Z M398 162 L400 161 L401 163 L399 164 Z M403 161 L405 160 L412 167 L410 168 L405 166 Z M465 157 L467 156 L468 159 L466 160 Z M473 154 L476 155 L475 162 L473 161 L473 158 L470 157 Z M434 154 L438 156 L436 160 L432 158 Z M395 153 L400 156 L396 162 L394 161 Z M397 150 L399 149 L400 151 L398 152 Z M466 153 L468 148 L472 150 L468 154 Z M401 93 L403 94 L402 98 L400 97 Z M472 86 L476 87 L474 92 L471 91 Z M394 89 L395 86 L398 87 L396 90 Z M401 81 L403 80 L404 82 L402 83 Z M464 76 L468 79 L469 82 L468 85 L466 84 L463 78 Z M404 77 L406 76 L407 78 L405 79 Z M471 73 L476 74 L476 81 L473 84 L471 83 L470 79 Z M395 73 L400 75 L400 77 L398 78 L399 81 L398 83 L394 81 Z M405 69 L407 68 L408 70 L406 71 Z M407 67 L408 63 L412 64 L409 68 Z M455 62 L456 61 L460 62 L463 65 L465 71 L463 72 L462 69 Z M411 62 L413 61 L414 63 L412 64 Z M404 60 L406 59 L407 61 L405 62 Z M420 53 L421 55 L419 58 L419 62 L417 63 L416 58 L417 55 Z M461 50 L462 55 L460 58 L457 58 L456 54 Z M423 50 L424 52 L421 54 L420 52 Z M453 49 L455 48 L456 50 L454 51 Z M423 49 L426 48 L427 50 L424 51 Z M410 48 L412 49 L412 52 L414 53 L413 59 L410 59 L408 55 Z M434 40 L453 55 L452 61 L437 46 L449 58 L449 65 L459 68 L465 87 L464 155 L454 165 L450 161 L445 162 L436 149 L419 165 L409 163 L405 152 L405 84 L410 78 L410 70 L421 65 L422 57 L432 49 L426 47 Z M439 38 L441 37 L442 39 L440 40 Z M437 31 L439 30 L440 33 L438 34 Z M431 30 L433 29 L434 32 L432 33 Z M434 27 L436 26 L437 28 L435 29 Z"/></svg>
