<svg xmlns="http://www.w3.org/2000/svg" width="512" height="512" viewBox="0 0 512 512" aria-hidden="true" focusable="false"><path fill="currentColor" fill-rule="evenodd" clip-rule="evenodd" d="M125 286 L128 311 L139 324 L134 349 L139 374 L152 386 L163 385 L165 376 L174 381 L176 397 L165 400 L176 432 L203 450 L215 465 L242 478 L255 496 L269 479 L293 468 L309 450 L336 432 L347 400 L336 397 L334 389 L338 381 L347 376 L349 385 L360 386 L376 367 L373 324 L384 311 L387 286 L351 324 L354 342 L343 348 L335 339 L311 367 L306 388 L322 417 L313 428 L300 433 L299 439 L315 433 L328 417 L328 408 L317 402 L312 390 L318 366 L336 348 L338 358 L356 349 L357 324 L377 310 L367 325 L373 348 L368 372 L357 381 L350 373 L339 375 L330 395 L328 383 L337 371 L352 368 L357 373 L358 368 L347 363 L329 372 L323 382 L323 396 L332 410 L339 408 L337 419 L325 435 L304 446 L289 464 L263 475 L274 461 L291 450 L294 428 L287 411 L279 415 L257 382 L233 414 L225 411 L217 436 L221 450 L238 461 L257 457 L262 449 L259 441 L253 440 L256 449 L252 453 L240 446 L243 435 L255 424 L272 439 L271 455 L253 481 L223 464 L177 423 L173 407 L181 409 L189 396 L189 382 L172 364 L156 366 L155 373 L160 368 L169 369 L156 380 L144 372 L139 349 L145 323 L136 311 L155 324 L156 349 L174 358 L176 348 L194 366 L200 389 L197 399 L184 408 L184 417 L197 433 L213 439 L213 433 L199 428 L190 417 L206 388 L201 367 L177 339 L169 348 L158 342 L161 323 Z M329 398 L332 397 L335 402 L332 403 Z M255 395 L257 395 L271 411 L275 419 L275 424 L282 420 L285 421 L290 434 L289 442 L285 448 L278 453 L277 438 L274 432 L266 424 L264 424 L259 419 L257 413 L255 413 L253 419 L237 433 L235 445 L238 454 L236 455 L226 447 L223 442 L222 432 L228 420 L237 424 L237 418 L240 412 Z M178 378 L182 379 L185 388 L184 398 L180 403 L177 402 L181 394 L181 387 L177 380 Z M171 371 L174 370 L177 374 L174 376 L171 374 Z M223 255 L229 262 L237 278 L241 294 L244 300 L245 297 L243 288 L241 286 L239 276 L235 266 L231 262 L229 257 L226 254 Z M301 207 L300 211 L303 211 L304 207 Z M209 207 L208 210 L212 211 L213 208 Z M313 202 L313 205 L318 205 L318 201 Z M328 199 L327 202 L330 203 L331 200 Z M181 199 L181 202 L184 203 L185 200 Z M303 199 L304 202 L309 201 L309 198 Z M204 198 L205 202 L209 201 L208 198 Z M317 192 L317 196 L319 196 L320 192 Z M192 192 L192 195 L195 196 L195 192 Z M206 177 L206 181 L210 182 L210 178 Z M320 168 L317 170 L318 173 L321 172 Z M319 157 L318 161 L321 161 L322 157 Z M191 157 L190 160 L191 162 L193 162 L194 158 Z M255 17 L221 60 L207 108 L179 94 L160 94 L141 101 L127 114 L114 140 L116 154 L123 158 L130 141 L145 140 L170 169 L142 174 L120 191 L110 210 L108 236 L116 255 L130 266 L136 266 L130 258 L131 248 L144 239 L159 238 L201 249 L217 268 L232 308 L246 327 L247 373 L230 332 L205 303 L175 287 L156 286 L152 290 L171 300 L201 350 L241 396 L253 378 L251 329 L258 328 L258 376 L271 396 L311 350 L341 300 L360 290 L356 286 L337 287 L307 303 L278 338 L265 372 L266 327 L280 308 L301 251 L365 238 L381 248 L382 258 L376 266 L382 266 L401 246 L404 219 L395 196 L384 183 L368 173 L342 169 L350 155 L368 140 L382 141 L389 158 L396 154 L398 140 L385 114 L371 101 L353 94 L334 94 L305 108 L291 60 Z M336 294 L337 297 L330 304 L308 345 L304 348 L300 355 L278 375 L278 370 L300 337 L296 337 L278 366 L275 367 L274 364 L277 354 L287 334 L290 332 L294 324 L313 305 L331 295 Z M176 294 L196 303 L207 312 L220 327 L235 354 L238 364 L237 367 L234 366 L218 340 L215 339 L215 341 L234 370 L234 375 L223 366 L204 345 L182 304 L175 297 Z M292 248 L295 250 L292 265 L289 272 L285 276 L271 313 L265 318 L264 316 L267 302 L266 279 L262 263 L260 262 L256 251 L261 247 L268 245 L281 245 Z M212 247 L225 244 L235 245 L243 248 L253 258 L262 286 L262 307 L256 322 L248 320 L241 313 L227 275 L211 251 Z M264 212 L266 213 L265 217 L263 216 Z M301 178 L303 187 L293 195 L292 193 L299 179 Z M277 237 L310 214 L341 209 L320 208 L298 217 L292 212 L293 219 L282 228 L279 227 L288 211 L306 191 L320 182 L341 175 L363 177 L377 185 L391 200 L398 220 L398 236 L395 240 L380 218 L365 211 L387 231 L391 240 L389 251 L378 237 L366 232 L353 232 L315 245 L295 244 Z M114 220 L120 202 L134 186 L150 177 L171 175 L190 181 L206 191 L224 211 L232 227 L219 219 L220 212 L214 217 L197 210 L197 201 L194 201 L195 209 L171 209 L202 214 L220 224 L234 238 L193 244 L159 232 L147 232 L133 238 L123 251 L121 240 L127 228 L142 214 L125 225 L117 240 L114 236 Z M389 139 L391 138 L392 140 L390 141 Z M120 139 L122 138 L123 140 L121 141 Z M230 131 L235 135 L238 143 L237 148 L231 142 L229 136 Z M281 130 L282 136 L280 142 L278 143 L277 146 L274 147 L273 146 L274 139 L277 133 Z M374 110 L381 121 L370 118 L357 120 L373 122 L389 135 L369 134 L357 139 L333 172 L318 176 L306 184 L306 176 L301 175 L304 169 L308 172 L312 169 L311 166 L307 168 L305 166 L322 140 L320 138 L305 159 L269 231 L269 222 L278 194 L301 155 L305 116 L321 104 L335 100 L356 101 Z M254 100 L258 102 L258 114 L256 118 L253 116 L253 111 L251 107 Z M137 111 L156 101 L178 100 L191 104 L207 116 L212 155 L234 195 L242 231 L210 164 L192 138 L190 140 L207 166 L200 169 L203 172 L207 169 L210 171 L220 196 L192 175 L195 168 L191 169 L190 174 L179 172 L155 139 L143 134 L127 137 L123 135 L129 128 L144 121 L160 121 L173 126 L168 121 L157 118 L132 121 L131 118 Z M255 29 L283 58 L293 78 L300 108 L295 154 L266 212 L269 166 L273 155 L284 145 L287 129 L284 125 L275 127 L268 139 L259 185 L258 123 L264 103 L256 93 L256 51 L253 95 L247 100 L247 116 L253 129 L252 198 L243 140 L232 125 L227 125 L223 134 L239 160 L246 212 L235 183 L220 160 L212 126 L214 94 L231 55 Z"/></svg>
