<svg xmlns="http://www.w3.org/2000/svg" width="512" height="512" viewBox="0 0 512 512" aria-hidden="true" focusable="false"><path fill="currentColor" fill-rule="evenodd" clip-rule="evenodd" d="M320 275 L320 286 L321 287 L326 287 L328 284 L441 284 L442 283 L441 279 L330 279 L329 277 Z M198 281 L197 279 L193 278 L193 275 L189 275 L187 277 L184 277 L183 279 L72 279 L71 283 L72 284 L187 284 L188 288 L192 289 L193 285 L197 284 Z M292 275 L289 273 L285 273 L282 276 L283 280 L280 282 L280 286 L284 287 L285 284 L292 279 Z M221 275 L221 279 L224 282 L228 282 L231 278 L231 276 L228 273 L224 273 Z M221 293 L221 297 L222 298 L226 297 L228 299 L227 301 L230 304 L239 304 L239 299 L243 293 L247 296 L247 299 L251 300 L252 302 L261 302 L262 300 L264 300 L270 304 L283 304 L286 300 L289 300 L291 297 L293 298 L294 297 L293 292 L286 292 L285 290 L280 290 L278 288 L269 289 L269 293 L276 294 L275 299 L267 297 L265 290 L261 290 L257 295 L254 295 L252 293 L253 291 L252 288 L254 286 L256 287 L266 286 L266 282 L263 280 L266 277 L266 274 L260 268 L251 270 L249 272 L250 278 L247 281 L244 281 L241 278 L242 276 L241 275 L237 275 L236 279 L239 281 L238 283 L241 285 L241 287 L235 290 L228 290 L227 292 Z M246 285 L248 284 L249 287 L247 288 Z M270 262 L269 266 L274 267 L275 265 L274 262 Z M241 262 L241 266 L245 267 L246 262 Z M492 258 L488 257 L485 260 L485 267 L479 268 L478 272 L474 273 L473 277 L463 275 L462 279 L448 279 L447 283 L457 284 L460 287 L462 287 L465 282 L470 282 L472 284 L471 286 L472 289 L480 289 L483 286 L483 283 L488 281 L488 278 L485 275 L489 271 L492 271 Z M21 255 L21 271 L32 274 L32 282 L34 283 L35 289 L43 289 L45 282 L47 283 L48 289 L51 289 L56 284 L66 283 L65 279 L51 279 L50 275 L47 275 L45 270 L38 270 L35 267 L35 264 L30 262 L26 258 L26 255 Z M254 209 L254 228 L252 229 L252 234 L249 237 L250 247 L247 249 L247 255 L253 256 L254 262 L259 262 L259 255 L264 250 L263 248 L266 246 L266 243 L264 241 L264 237 L261 234 L261 229 L259 228 L259 209 Z"/></svg>
