<svg xmlns="http://www.w3.org/2000/svg" width="512" height="512" viewBox="0 0 512 512" aria-hidden="true" focusable="false"><path fill="currentColor" fill-rule="evenodd" clip-rule="evenodd" d="M364 341 L362 341 L362 350 L360 352 L360 355 L357 358 L356 364 L353 366 L353 368 L355 369 L354 372 L358 373 L355 380 L359 384 L359 387 L355 391 L354 396 L356 396 L357 400 L359 401 L358 405 L360 407 L358 414 L361 415 L361 422 L363 422 L363 415 L365 413 L366 404 L369 402 L369 399 L367 396 L370 393 L369 387 L371 386 L371 373 L369 374 L367 373 L371 369 L369 364 L370 359 L364 358 L366 356 L364 348 Z M361 390 L364 389 L367 393 L364 394 L361 392 Z M364 388 L367 385 L369 386 L366 389 Z M363 373 L364 370 L367 371 L365 374 Z M153 341 L153 349 L151 352 L151 355 L148 358 L147 366 L148 369 L147 381 L152 387 L149 388 L147 392 L150 405 L152 407 L151 411 L153 412 L153 421 L155 421 L155 414 L157 413 L157 409 L159 408 L157 404 L161 402 L162 397 L161 395 L162 391 L160 388 L162 387 L161 384 L163 379 L158 374 L158 371 L162 369 L161 360 L163 358 L158 357 L157 353 L158 348 L155 347 L155 341 Z M153 390 L156 389 L157 393 L155 394 Z M158 379 L160 378 L161 380 L159 381 Z M403 161 L404 169 L402 176 L404 178 L400 180 L403 184 L399 187 L399 190 L403 190 L404 192 L397 196 L397 200 L394 208 L397 213 L394 218 L394 224 L400 230 L409 230 L415 224 L415 221 L412 217 L414 208 L412 199 L407 197 L410 191 L406 189 L405 187 L409 185 L409 183 L406 181 L407 178 L409 177 L409 174 L407 174 L405 171 L406 169 L405 161 Z M411 220 L412 223 L409 226 L408 224 L409 221 Z M404 218 L408 217 L409 219 L405 220 Z M405 211 L407 210 L409 214 L406 215 Z M399 208 L402 207 L403 209 L400 210 Z M404 206 L406 202 L411 204 L408 207 Z M111 159 L111 173 L110 174 L111 178 L109 179 L109 182 L111 182 L112 184 L107 187 L109 193 L105 196 L103 206 L104 208 L110 207 L111 210 L103 217 L102 223 L105 228 L114 231 L119 229 L119 227 L122 226 L123 224 L123 220 L121 217 L121 212 L123 209 L120 203 L121 200 L119 198 L118 190 L113 188 L114 186 L117 185 L117 183 L114 181 L116 178 L114 175 L114 172 L116 171 L116 169 L113 167 L114 161 L113 159 Z M120 220 L121 221 L120 226 L115 228 L114 226 Z M112 218 L115 217 L116 219 L113 220 Z M114 210 L117 212 L116 215 L112 214 Z M115 204 L118 203 L119 205 L116 206 Z M112 195 L116 194 L117 197 L114 198 Z M154 108 L153 110 L151 110 L151 112 L153 112 L154 114 L152 122 L150 124 L151 131 L149 133 L150 139 L147 141 L147 144 L150 145 L151 147 L149 148 L147 152 L146 167 L147 174 L152 175 L153 182 L156 182 L157 180 L161 180 L163 178 L161 176 L163 166 L161 165 L160 162 L164 160 L163 152 L166 144 L159 141 L161 138 L161 136 L158 134 L160 129 L156 128 L159 124 L158 122 L159 115 L156 114 L156 108 Z M156 175 L158 174 L160 178 L157 179 Z M152 170 L154 167 L158 168 L155 171 Z M157 166 L160 165 L161 167 L158 168 Z M154 148 L158 147 L159 149 L155 150 Z M155 141 L158 140 L159 142 L156 143 Z M363 107 L361 124 L359 126 L361 131 L357 134 L358 137 L356 138 L356 142 L353 144 L357 148 L356 158 L354 159 L356 163 L355 173 L357 174 L355 178 L361 178 L362 182 L365 182 L366 175 L368 176 L368 178 L372 176 L371 174 L372 166 L370 163 L372 162 L373 159 L371 153 L364 149 L365 147 L368 148 L371 147 L372 144 L364 142 L365 140 L369 140 L370 137 L368 135 L368 129 L365 128 L367 126 L367 123 L364 113 L365 107 Z M357 173 L358 170 L361 171 L359 174 Z M358 167 L367 166 L368 169 L361 171 Z M357 161 L359 160 L362 163 L358 164 Z M367 155 L369 154 L370 156 L368 157 Z M258 17 L257 52 L253 54 L256 60 L250 70 L257 75 L249 77 L246 85 L258 100 L253 129 L249 130 L249 137 L257 134 L258 139 L252 145 L243 145 L234 136 L228 137 L242 113 L234 79 L224 113 L219 113 L216 102 L211 126 L199 125 L191 142 L184 144 L184 150 L194 144 L206 147 L206 137 L215 152 L179 170 L180 140 L174 130 L169 154 L174 171 L151 201 L149 193 L137 183 L141 179 L135 172 L128 224 L135 245 L131 256 L128 247 L108 240 L84 257 L57 262 L94 270 L98 267 L101 271 L97 294 L102 303 L108 303 L105 313 L115 321 L109 333 L112 346 L115 337 L125 330 L125 321 L118 308 L122 296 L111 295 L107 281 L122 278 L129 264 L134 268 L134 284 L125 302 L130 304 L136 322 L129 333 L136 362 L141 342 L148 338 L148 328 L153 325 L161 332 L149 313 L165 328 L154 309 L167 310 L176 296 L184 298 L185 327 L181 335 L186 337 L185 333 L194 334 L196 330 L219 332 L218 348 L208 344 L201 356 L188 350 L179 336 L167 332 L171 338 L163 336 L162 340 L174 353 L167 368 L172 370 L174 388 L182 362 L177 361 L181 353 L196 366 L205 367 L206 372 L212 371 L208 382 L200 372 L194 376 L186 373 L184 377 L190 377 L190 387 L198 396 L209 399 L216 420 L220 412 L224 413 L234 443 L240 437 L241 408 L228 386 L242 379 L253 380 L250 391 L258 392 L252 396 L252 403 L257 407 L255 421 L260 428 L252 425 L246 433 L253 440 L249 446 L255 449 L251 454 L258 471 L260 496 L264 470 L260 461 L268 450 L262 445 L270 438 L270 430 L259 423 L265 408 L260 403 L266 401 L267 392 L260 383 L273 379 L290 387 L276 409 L283 443 L293 410 L299 410 L300 421 L305 396 L319 396 L327 377 L334 373 L315 373 L310 383 L303 371 L340 354 L336 379 L342 387 L345 370 L350 367 L343 353 L349 353 L352 339 L363 326 L369 327 L373 335 L369 338 L376 343 L376 357 L381 361 L386 328 L378 324 L378 316 L386 322 L389 319 L385 318 L385 309 L390 308 L383 269 L389 267 L390 277 L406 281 L405 288 L409 289 L406 296 L397 298 L399 307 L392 320 L405 347 L408 333 L402 321 L411 314 L419 294 L418 282 L411 273 L417 270 L414 266 L421 265 L425 271 L456 260 L431 259 L427 251 L421 252 L406 238 L392 246 L388 258 L383 255 L382 242 L389 227 L386 204 L380 201 L389 189 L382 171 L368 203 L358 186 L353 186 L364 206 L349 190 L364 215 L359 217 L353 211 L346 215 L347 223 L333 224 L333 191 L353 182 L350 172 L343 169 L349 157 L343 130 L338 136 L340 156 L332 166 L300 151 L308 147 L310 140 L317 152 L323 145 L332 147 L332 142 L327 142 L320 126 L303 120 L301 102 L297 114 L293 113 L281 79 L276 115 L289 137 L268 144 L260 101 L269 91 L266 79 L271 72 L260 64 L266 58 L260 48 L263 42 Z M260 453 L264 452 L265 454 L261 455 Z M256 442 L258 441 L259 443 L257 444 Z M259 442 L260 439 L263 440 L261 443 Z M255 436 L258 435 L259 437 L256 438 Z M252 430 L255 431 L254 436 L251 434 Z M236 409 L238 408 L239 410 L237 411 Z M228 408 L231 407 L232 409 L229 410 Z M283 405 L285 401 L291 403 L290 405 L287 405 L286 407 Z M293 399 L296 398 L297 400 L294 401 Z M282 399 L285 398 L286 400 L283 401 Z M235 398 L236 401 L234 402 L234 404 L230 405 L229 403 Z M223 397 L227 396 L228 398 L224 399 Z M208 396 L211 395 L212 398 L209 399 Z M292 394 L293 391 L296 392 L294 395 Z M306 390 L308 389 L309 391 L307 392 Z M289 382 L292 381 L294 384 L290 385 Z M233 381 L235 380 L236 382 L234 383 Z M228 380 L229 384 L225 388 L223 388 L222 385 Z M213 381 L215 378 L219 379 L216 382 Z M282 378 L284 377 L285 379 L283 380 Z M315 376 L317 375 L318 377 L316 378 Z M247 375 L252 374 L253 376 L248 377 Z M220 375 L222 374 L223 376 L221 377 Z M197 375 L199 374 L201 377 L198 378 Z M273 374 L275 373 L276 375 L274 376 Z M231 372 L232 371 L240 372 L243 375 L238 376 L232 374 Z M298 369 L296 372 L279 376 L277 375 L279 372 L288 371 L296 368 Z M220 369 L222 368 L228 370 L229 372 L225 373 L222 372 Z M311 364 L307 368 L303 367 L304 365 L308 363 Z M205 363 L207 362 L211 364 L213 367 L211 368 L206 366 Z M174 362 L176 361 L177 363 L175 364 Z M212 362 L214 357 L218 360 L216 363 Z M325 356 L323 360 L317 362 L316 364 L314 363 L316 359 L320 358 L323 355 Z M255 356 L261 355 L262 358 L258 361 Z M203 356 L204 355 L208 356 L209 359 L207 360 Z M191 355 L193 354 L196 357 L200 358 L202 362 L200 363 L193 359 Z M186 353 L189 352 L190 354 L187 355 Z M328 351 L332 350 L333 353 L330 354 Z M209 351 L212 350 L213 352 L210 353 Z M261 351 L266 349 L269 352 L265 355 Z M219 349 L221 350 L220 356 L218 355 Z M182 351 L184 349 L187 350 L186 353 L183 353 Z M306 348 L308 349 L307 353 L305 352 Z M339 346 L342 347 L341 352 L339 351 L338 348 Z M303 347 L305 346 L306 348 L304 349 Z M273 345 L274 349 L271 351 L270 347 Z M242 347 L244 345 L247 345 L252 348 L255 352 L252 355 L250 352 L244 350 Z M275 344 L278 341 L282 342 L279 346 Z M345 339 L347 338 L348 341 L346 342 Z M374 337 L377 336 L379 339 L376 340 Z M222 337 L224 336 L226 338 L230 338 L232 342 L238 348 L250 355 L256 361 L257 366 L249 371 L242 371 L222 366 L220 359 L223 357 L223 354 L225 352 L225 350 L222 347 L223 341 L221 340 Z M380 336 L382 335 L383 337 L381 338 Z M280 339 L281 335 L286 336 L284 340 Z M139 336 L141 335 L142 337 L140 338 Z M349 334 L351 333 L352 335 L350 336 Z M352 332 L354 331 L355 333 L353 334 Z M336 338 L332 344 L333 347 L302 364 L297 362 L293 367 L276 371 L265 371 L260 368 L262 361 L268 355 L281 347 L289 337 L295 337 L298 346 L292 351 L294 354 L293 360 L301 359 L302 357 L311 354 L312 350 L309 344 L304 344 L303 347 L300 346 L301 343 L297 337 L299 330 L321 330 L322 334 L331 332 L332 337 Z M257 328 L260 327 L261 329 L258 330 Z M117 328 L119 327 L120 329 L118 330 Z M292 326 L295 328 L294 330 L296 332 L295 334 L290 333 Z M225 326 L228 327 L227 333 L225 333 L222 329 Z M396 326 L398 325 L399 327 L397 328 Z M313 325 L315 326 L314 330 L312 329 Z M206 326 L209 325 L210 329 L207 330 Z M318 324 L321 326 L320 329 L316 328 Z M286 323 L288 324 L287 329 L285 328 Z M262 324 L264 323 L265 325 L263 326 Z M222 325 L219 328 L216 329 L213 328 L213 326 L216 324 L220 323 Z M294 324 L297 322 L301 325 L301 327 L299 328 L295 326 Z M256 320 L259 321 L257 326 L254 325 Z M231 320 L233 321 L232 330 L230 329 Z M186 321 L191 320 L192 321 L191 325 L197 326 L201 324 L202 328 L201 329 L195 328 L190 329 L189 327 L186 326 Z M330 319 L331 326 L328 329 L322 327 L323 325 L327 325 L326 320 Z M261 320 L263 319 L264 322 L262 323 Z M371 318 L375 320 L375 323 L372 326 L370 325 Z M363 318 L364 319 L363 323 L358 329 L356 329 L355 327 L360 320 Z M145 318 L147 319 L146 326 L144 325 Z M136 315 L139 316 L140 320 L139 322 L135 321 Z M120 314 L122 315 L121 319 L119 318 Z M327 313 L331 312 L332 314 L328 315 Z M231 313 L233 312 L234 315 L232 316 Z M368 311 L369 313 L364 319 L363 315 L366 311 Z M400 310 L401 312 L396 317 L395 316 L396 312 Z M141 310 L144 309 L146 312 L143 313 Z M278 308 L280 310 L283 320 L282 323 L283 327 L279 329 L279 331 L281 332 L280 336 L267 346 L262 345 L260 342 L260 333 L265 330 L267 326 L266 318 L261 317 L261 319 L259 320 L257 316 L260 314 L261 311 Z M374 308 L378 307 L380 312 L379 313 L376 312 Z M240 307 L245 308 L248 312 L250 310 L258 311 L258 313 L255 314 L255 317 L251 319 L251 326 L253 330 L256 330 L258 333 L258 336 L255 337 L255 340 L257 340 L258 344 L261 345 L261 347 L258 349 L255 348 L255 345 L251 346 L246 344 L244 341 L237 344 L235 342 L236 339 L233 339 L231 336 L231 334 L234 333 L237 337 L239 337 L237 335 L235 328 L235 318 L238 309 Z M234 307 L236 306 L237 308 L235 309 Z M264 306 L266 305 L267 307 L265 308 Z M252 306 L254 305 L255 307 L253 308 Z M186 305 L190 306 L191 311 L190 316 L187 316 L185 313 Z M268 305 L270 304 L271 306 L269 307 Z M246 305 L249 304 L250 306 L247 307 Z M272 304 L274 303 L275 305 L273 306 Z M352 303 L354 302 L355 304 L353 305 Z M111 303 L115 302 L116 304 L112 305 Z M400 302 L403 301 L404 304 L401 305 Z M411 300 L412 302 L409 304 L408 302 Z M371 300 L374 301 L372 305 L370 304 Z M284 300 L283 302 L279 304 L277 303 L278 301 L282 299 Z M234 300 L236 299 L239 302 L237 303 Z M144 300 L146 299 L148 303 L145 304 Z M399 299 L401 298 L402 300 L400 301 Z M342 297 L346 299 L347 306 L350 309 L357 310 L360 308 L363 310 L363 312 L353 327 L348 332 L345 332 L344 336 L338 336 L337 335 L338 331 L335 331 L333 329 L334 306 L337 305 L337 302 Z M305 298 L307 297 L308 299 L306 300 Z M284 298 L286 297 L287 299 L285 300 Z M328 296 L331 296 L333 300 L333 305 L331 308 L328 307 L327 299 Z M137 297 L139 296 L140 298 L138 299 Z M277 295 L279 294 L280 296 L278 297 Z M381 294 L385 293 L386 295 L382 296 Z M226 294 L228 293 L231 297 L229 298 Z M237 292 L241 296 L240 299 L237 298 L235 295 Z M141 293 L143 292 L145 296 L143 297 Z M248 298 L250 296 L256 297 L256 291 L258 290 L262 292 L263 297 L267 298 L273 296 L274 300 L272 302 L258 304 L250 303 L248 301 Z M376 289 L377 293 L374 295 L373 292 Z M333 290 L335 289 L338 294 L334 296 L332 294 Z M303 289 L304 293 L298 295 L297 293 L301 289 Z M274 290 L276 289 L277 291 L275 292 Z M239 290 L243 289 L246 291 L249 291 L250 293 L244 294 L240 292 Z M213 290 L215 289 L217 293 L214 294 Z M380 288 L382 287 L383 290 L381 291 Z M323 288 L325 287 L328 289 L329 293 L326 294 Z M220 288 L222 287 L224 290 L222 291 Z M136 287 L137 288 L136 295 L132 298 L131 295 L134 292 L134 288 Z M100 287 L102 288 L103 293 L102 298 L100 297 L99 293 Z M416 286 L417 294 L416 297 L414 298 L413 297 L414 287 Z M270 286 L272 285 L273 287 L271 288 Z M188 292 L194 286 L198 285 L199 287 L201 287 L204 285 L207 287 L208 290 L206 297 L203 299 L206 305 L200 309 L205 314 L207 310 L213 312 L213 310 L215 309 L218 311 L219 301 L215 299 L216 297 L220 297 L222 299 L226 298 L233 303 L233 306 L229 307 L230 309 L229 313 L222 320 L215 323 L201 323 L193 320 L193 316 L196 315 L196 313 L192 312 L191 300 L193 294 L195 293 L195 290 L193 291 L189 301 L185 300 Z M250 285 L253 284 L254 287 L251 289 Z M244 285 L247 284 L248 287 L246 288 Z M218 285 L220 284 L221 286 L219 287 Z M100 284 L102 283 L103 285 L101 286 Z M316 285 L324 293 L326 297 L327 306 L323 308 L323 312 L325 313 L325 319 L321 320 L318 323 L302 323 L294 318 L292 318 L292 320 L290 321 L288 318 L290 313 L288 312 L285 306 L285 303 L288 301 L291 302 L292 299 L296 295 L300 297 L301 299 L298 302 L295 302 L295 305 L297 305 L300 309 L311 310 L315 315 L318 316 L314 307 L312 306 L312 301 L315 298 L311 294 L310 291 L311 289 L310 288 L306 289 L303 286 L304 284 L308 282 L311 283 L311 286 L313 284 Z M338 282 L335 285 L332 284 L333 282 L336 281 Z M207 283 L212 281 L214 283 L214 286 L208 287 Z M180 282 L182 281 L185 282 L186 284 L181 285 Z M339 280 L342 279 L343 282 L340 283 Z M312 280 L315 279 L316 281 L313 282 Z M273 280 L276 279 L277 282 L275 283 Z M270 279 L271 280 L270 283 L267 284 L267 288 L269 292 L266 293 L265 291 L262 290 L262 288 L266 280 Z M244 280 L246 279 L247 281 L245 282 Z M308 278 L310 277 L311 279 L309 280 Z M204 280 L207 277 L209 278 L206 281 Z M301 277 L303 276 L304 278 L302 279 Z M213 275 L215 274 L216 276 L214 277 Z M137 273 L139 272 L140 274 L138 275 Z M380 271 L381 272 L379 283 L377 284 L376 283 L377 272 Z M303 272 L305 271 L306 273 L304 274 Z M212 272 L214 271 L215 273 L213 274 Z M113 271 L115 270 L116 272 L114 273 Z M251 268 L253 268 L255 273 L258 275 L261 275 L262 272 L266 275 L262 283 L255 282 L256 277 L251 274 L250 270 Z M281 268 L283 267 L284 269 L282 270 Z M398 267 L400 266 L401 268 L399 269 Z M351 270 L351 266 L354 265 L356 268 L353 271 Z M107 266 L105 269 L101 268 L102 266 L105 265 Z M98 266 L100 265 L101 267 L99 268 Z M162 264 L172 273 L174 277 L173 279 L169 278 L167 274 L163 271 L163 269 L160 267 Z M118 264 L120 265 L119 269 L116 268 Z M326 264 L328 263 L329 265 L327 266 Z M286 264 L289 263 L290 265 L287 266 Z M428 262 L430 263 L429 267 L427 266 Z M405 263 L406 262 L411 264 L410 267 L408 268 Z M373 262 L375 265 L373 267 L373 269 L375 270 L375 276 L368 301 L362 303 L361 301 L363 300 L364 296 L362 293 L358 293 L356 291 L352 292 L352 296 L350 298 L343 295 L341 293 L341 289 L339 289 L338 287 L348 282 L364 264 L370 265 L370 263 Z M262 262 L265 262 L267 264 L268 270 L266 272 L264 271 L263 266 L261 264 Z M145 263 L148 262 L149 265 L155 265 L162 272 L168 281 L176 286 L181 287 L186 292 L185 296 L183 297 L179 290 L178 293 L175 295 L172 295 L171 299 L168 301 L166 293 L164 291 L161 291 L159 294 L154 295 L154 299 L156 301 L151 302 L148 298 L150 295 L149 291 L145 289 L142 273 L142 268 L145 267 Z M86 263 L88 262 L89 264 L87 265 Z M392 261 L397 260 L398 262 L394 265 Z M329 261 L331 260 L332 262 L330 263 Z M410 260 L412 259 L414 262 L411 263 Z M358 261 L361 259 L364 260 L363 263 L359 263 Z M159 258 L160 260 L157 263 L155 263 L154 260 L156 258 Z M119 259 L124 258 L127 259 L128 261 L124 264 L121 264 Z M258 257 L260 256 L261 258 L259 259 Z M109 257 L111 256 L112 259 L110 260 Z M253 255 L258 260 L258 263 L255 266 L251 265 L253 261 L252 258 Z M397 254 L399 253 L400 256 L398 257 Z M304 254 L306 253 L307 255 L305 256 Z M117 254 L119 253 L120 256 L118 257 Z M211 253 L213 252 L214 254 L212 255 Z M416 250 L419 253 L418 256 L415 256 L413 254 Z M165 250 L168 253 L163 257 L162 256 L163 251 Z M303 250 L305 249 L306 252 L304 253 Z M100 249 L102 250 L102 252 L105 253 L102 257 L97 254 Z M302 247 L304 246 L305 248 L303 249 Z M213 247 L215 246 L216 248 L214 249 Z M118 246 L120 245 L121 247 L119 248 Z M377 244 L379 243 L380 246 L378 247 Z M311 243 L312 245 L308 247 L307 245 Z M214 244 L216 243 L217 245 L215 246 Z M206 244 L209 243 L211 246 L209 247 Z M345 242 L353 249 L354 253 L357 254 L355 258 L350 255 L346 247 L343 245 Z M311 248 L319 244 L322 246 L323 243 L326 244 L327 242 L332 242 L335 247 L338 247 L340 245 L341 248 L345 251 L344 255 L351 256 L350 264 L348 267 L345 268 L346 269 L345 272 L350 277 L346 280 L342 276 L338 275 L336 279 L327 281 L316 278 L314 273 L310 275 L308 272 L310 266 L319 264 L321 271 L323 271 L324 269 L327 269 L329 271 L329 267 L332 263 L334 265 L337 265 L338 262 L341 262 L339 257 L335 260 L333 257 L331 257 L328 254 L322 254 L320 257 L316 257 L315 260 L310 262 L309 255 L313 253 Z M168 245 L171 242 L174 243 L174 247 L177 246 L183 247 L183 244 L185 242 L192 242 L195 244 L195 247 L197 247 L198 244 L202 245 L204 247 L203 249 L209 253 L208 257 L201 257 L198 259 L195 254 L190 254 L188 252 L186 253 L187 257 L186 260 L176 260 L176 262 L178 262 L179 265 L182 262 L186 263 L188 267 L188 271 L190 271 L191 269 L197 270 L197 266 L202 265 L202 263 L207 260 L208 267 L205 271 L208 272 L209 274 L206 276 L202 274 L201 278 L191 281 L183 280 L181 276 L177 277 L173 272 L174 270 L172 267 L169 268 L167 265 L169 260 L167 257 L173 254 L172 253 L173 250 L170 249 Z M300 242 L302 241 L303 243 L301 244 Z M313 241 L315 240 L316 243 L314 244 Z M216 240 L218 239 L219 241 L217 242 Z M193 239 L196 238 L197 240 L194 241 Z M376 238 L378 237 L379 239 L377 240 Z M326 238 L336 237 L339 239 L339 241 L337 242 L333 240 L327 240 Z M316 238 L320 237 L321 241 L318 242 Z M177 241 L178 238 L182 237 L190 238 L189 240 L185 240 L181 242 Z M211 234 L214 236 L214 240 L212 242 L208 240 L208 237 Z M222 233 L223 235 L220 237 L219 235 Z M328 233 L330 232 L331 234 L329 235 Z M294 233 L296 232 L298 235 L296 236 Z M192 232 L194 231 L196 235 L194 236 Z M135 231 L137 230 L138 233 L136 234 Z M291 229 L293 228 L294 230 L292 231 Z M215 228 L218 230 L216 235 L214 234 Z M185 227 L187 228 L189 232 L188 235 L184 235 L181 233 Z M380 227 L382 226 L383 228 L381 229 Z M331 228 L334 226 L337 230 L334 231 Z M353 226 L355 225 L356 227 L354 228 Z M228 226 L230 225 L231 228 L229 229 Z M286 225 L288 224 L291 227 L291 229 L289 230 Z M210 224 L212 225 L211 230 L209 229 Z M187 225 L190 224 L191 226 L188 227 Z M145 224 L146 226 L144 229 L144 232 L141 234 L140 232 L142 225 Z M373 223 L376 226 L378 233 L377 235 L374 233 L374 230 L372 227 Z M329 223 L330 227 L328 231 L323 235 L322 233 L326 225 Z M305 226 L308 223 L310 224 L307 227 Z M283 223 L285 222 L286 224 L284 225 Z M232 223 L234 222 L235 224 L233 225 Z M160 223 L163 222 L164 224 L161 225 Z M266 220 L283 226 L285 231 L288 231 L292 234 L292 239 L296 239 L301 250 L299 262 L303 263 L302 269 L300 272 L298 272 L300 276 L293 287 L295 292 L291 296 L289 295 L290 289 L284 291 L283 295 L280 294 L283 282 L289 281 L288 272 L292 271 L293 266 L296 264 L291 260 L292 255 L290 248 L288 247 L288 243 L290 241 L285 241 L283 253 L280 256 L279 269 L285 273 L285 278 L281 280 L270 270 L269 264 L271 261 L267 260 L269 249 L264 247 L266 245 L267 236 L261 229 L261 226 L265 223 Z M252 220 L253 222 L257 223 L256 231 L253 232 L252 242 L254 245 L249 249 L249 251 L253 252 L253 255 L250 256 L251 260 L248 266 L249 275 L238 279 L233 278 L236 276 L239 270 L239 261 L237 260 L239 253 L236 252 L233 246 L235 241 L230 239 L228 241 L230 244 L228 253 L223 258 L222 262 L225 265 L224 269 L227 272 L227 278 L235 281 L236 284 L232 290 L226 290 L226 284 L219 279 L218 276 L220 273 L218 273 L216 270 L215 258 L216 255 L220 253 L220 251 L217 250 L222 238 L226 240 L224 236 L230 231 L231 228 L243 222 Z M347 223 L351 224 L351 228 L353 230 L358 230 L359 228 L362 227 L362 222 L359 219 L360 218 L367 219 L368 223 L366 224 L366 227 L369 227 L371 229 L375 246 L375 253 L372 255 L371 260 L364 258 L363 253 L360 254 L348 241 L348 237 L343 238 L337 235 L339 230 L342 231 L342 228 L346 226 Z M275 219 L277 218 L280 221 L278 222 Z M145 219 L147 218 L148 220 L146 221 Z M240 220 L243 217 L245 218 L242 221 Z M171 221 L172 226 L175 227 L175 231 L179 232 L181 235 L174 238 L170 237 L170 240 L163 248 L163 250 L155 257 L151 259 L147 257 L146 259 L144 259 L142 255 L143 243 L151 218 L153 217 L157 219 L155 222 L155 227 L159 228 L160 230 L166 229 L167 222 Z M369 217 L371 216 L373 219 L370 220 Z M269 217 L271 216 L272 218 L270 219 Z M215 217 L217 216 L218 218 L216 219 Z M250 216 L252 215 L253 217 L251 218 Z M156 216 L158 215 L159 218 L157 219 Z M162 215 L163 214 L167 215 L168 218 L166 219 Z M133 215 L135 214 L137 217 L134 218 Z M149 211 L151 210 L152 212 L150 213 Z M139 211 L142 210 L143 213 L140 214 Z M376 210 L378 209 L379 212 L377 213 Z M366 210 L368 209 L370 213 L368 214 Z M154 202 L156 201 L157 203 L155 204 Z M136 202 L138 201 L139 204 L137 205 Z M291 200 L293 201 L292 204 L289 203 Z M224 200 L226 199 L228 202 L226 203 Z M327 198 L331 199 L331 209 L332 210 L331 219 L327 218 L328 213 L325 202 Z M323 199 L324 204 L322 205 L322 207 L325 208 L326 222 L324 228 L311 240 L304 239 L303 236 L311 230 L313 219 L311 216 L315 209 L313 208 L311 209 L310 212 L306 213 L302 212 L298 216 L298 222 L301 221 L302 224 L305 226 L306 231 L303 235 L301 234 L302 228 L299 225 L291 224 L285 219 L285 216 L292 206 L292 204 L297 201 L301 203 L302 199 L313 198 L316 202 L318 199 Z M217 199 L226 205 L233 219 L230 222 L227 220 L225 222 L226 225 L222 228 L220 225 L216 223 L217 221 L222 221 L219 214 L215 212 L211 213 L207 209 L204 208 L203 209 L206 217 L203 222 L206 224 L206 228 L209 234 L207 237 L203 238 L195 230 L192 223 L192 212 L194 200 L205 198 Z M230 197 L232 196 L233 198 L231 199 Z M373 195 L375 194 L376 196 L374 197 Z M296 196 L298 194 L301 195 L300 198 L297 198 Z M217 195 L219 194 L223 196 L225 199 L223 200 L218 198 Z M142 195 L144 194 L145 196 L143 197 Z M304 194 L307 193 L308 195 L305 196 Z M158 197 L159 193 L163 194 L161 198 Z M314 196 L314 194 L317 192 L327 193 L325 196 L322 197 Z M209 193 L211 192 L212 195 L210 196 Z M193 193 L200 192 L202 196 L196 197 L193 195 Z M187 193 L189 192 L190 194 L188 195 Z M328 192 L330 191 L331 194 L329 195 Z M285 191 L288 194 L287 199 L285 198 L284 194 Z M224 192 L227 191 L228 195 L226 196 Z M294 188 L296 190 L296 193 L291 196 L289 190 Z M383 187 L384 190 L381 192 L380 190 Z M167 186 L169 187 L168 190 L173 191 L172 188 L174 186 L178 186 L179 188 L182 188 L186 194 L186 204 L184 212 L185 223 L180 226 L175 225 L172 222 L171 215 L168 212 L161 211 L159 215 L155 212 L162 198 L166 195 L162 191 L162 189 Z M134 186 L137 189 L136 192 L133 189 Z M282 182 L284 183 L285 186 L284 188 L280 186 Z M239 181 L240 183 L238 186 L234 188 L233 187 L234 183 Z M169 182 L172 181 L173 183 L170 184 Z M344 179 L346 178 L347 180 L345 181 Z M276 178 L278 177 L280 180 L277 181 Z M253 177 L255 180 L255 185 L258 186 L257 193 L251 197 L251 203 L254 206 L258 207 L258 211 L255 213 L240 215 L235 203 L235 197 L237 190 L244 181 Z M239 178 L241 177 L242 179 L240 180 Z M269 177 L270 174 L275 175 L272 178 Z M245 175 L248 174 L249 177 L246 178 Z M258 173 L264 175 L262 178 L266 177 L273 181 L281 190 L282 195 L280 196 L280 198 L283 199 L281 209 L277 215 L260 212 L260 207 L264 206 L267 203 L266 196 L262 193 L262 190 L260 187 L261 184 L260 180 L258 180 L256 177 Z M212 174 L214 173 L215 175 L213 176 Z M328 171 L332 170 L335 171 L336 173 L333 175 L332 173 L329 173 Z M304 169 L307 172 L306 176 L303 175 Z M264 169 L268 171 L266 175 L262 172 Z M252 169 L255 170 L253 175 L250 172 Z M185 170 L188 169 L190 172 L186 173 Z M213 169 L215 168 L217 171 L214 172 Z M220 168 L222 167 L223 169 L221 170 Z M322 165 L325 164 L328 169 L327 170 L324 169 Z M296 165 L298 164 L300 168 L298 169 Z M196 164 L197 166 L191 170 L190 167 L193 164 Z M340 163 L341 168 L337 171 L334 168 L334 165 L337 163 Z M256 166 L260 163 L262 167 L257 168 Z M202 160 L203 163 L199 165 L198 163 Z M313 160 L314 159 L317 160 L320 164 L319 165 L315 164 Z M299 159 L304 161 L305 164 L304 167 L298 164 L297 161 Z M303 156 L304 155 L309 156 L310 159 L308 160 L304 158 Z M209 158 L212 155 L216 156 L215 158 L212 159 Z M261 156 L267 155 L270 152 L295 157 L296 162 L293 164 L291 172 L293 174 L300 175 L302 180 L307 178 L309 174 L312 173 L311 169 L307 166 L308 163 L312 163 L315 165 L315 168 L320 168 L331 174 L336 186 L332 188 L329 187 L327 190 L317 190 L316 187 L314 190 L308 190 L305 187 L303 190 L299 191 L297 189 L299 180 L296 180 L295 183 L288 185 L285 181 L286 178 L282 178 L278 174 L268 169 L262 163 Z M258 156 L255 164 L250 169 L239 175 L230 185 L224 186 L223 184 L225 182 L220 180 L221 189 L219 192 L210 189 L191 190 L181 185 L182 182 L186 179 L187 174 L206 163 L208 166 L205 173 L208 173 L211 178 L215 178 L221 174 L227 176 L227 168 L224 166 L225 163 L216 165 L214 162 L215 160 L240 153 L249 153 L251 155 L254 152 Z M226 152 L224 155 L221 156 L219 155 L220 152 L224 151 Z M288 151 L291 150 L292 153 L290 154 Z M280 150 L284 149 L285 151 L281 152 Z M260 150 L262 149 L263 151 L261 152 Z M255 150 L257 149 L258 151 L256 152 Z M275 149 L277 148 L278 150 L276 151 Z M237 149 L241 148 L242 150 L238 151 Z M265 148 L269 147 L270 149 L266 150 Z M249 148 L252 147 L253 149 L250 150 Z M221 147 L223 146 L224 148 L222 149 Z M283 145 L285 144 L286 146 L284 147 Z M236 140 L237 141 L236 145 L233 147 L232 146 L233 141 Z M294 136 L295 139 L291 142 L290 139 L292 136 Z M222 137 L225 136 L229 140 L229 142 L227 143 L226 141 L224 141 Z M260 136 L262 135 L263 138 L261 139 Z M317 133 L319 132 L320 134 L318 135 Z M305 132 L307 131 L308 133 L306 134 Z M259 130 L262 129 L263 131 L260 132 Z M224 127 L226 128 L225 132 L223 131 Z M305 125 L307 124 L308 126 L306 127 Z M290 125 L292 124 L294 127 L291 128 Z M220 124 L224 122 L226 125 L221 126 Z M288 119 L291 118 L292 120 L289 121 Z M227 119 L230 118 L231 120 L228 121 Z M259 94 L261 93 L262 96 L260 97 Z M264 84 L267 87 L266 90 L263 89 Z M250 84 L253 83 L254 87 L251 88 Z M255 79 L257 78 L258 80 L256 81 Z M258 78 L260 77 L261 79 L259 80 Z"/></svg>
