<svg xmlns="http://www.w3.org/2000/svg" width="512" height="512" viewBox="0 0 512 512" aria-hidden="true" focusable="false"><path fill="currentColor" fill-rule="evenodd" clip-rule="evenodd" d="M253 393 L250 396 L249 406 L261 408 L263 406 L264 396 Z M254 396 L261 398 L260 405 L252 404 L252 398 Z M272 392 L271 393 L273 398 L273 403 L270 410 L272 409 L274 403 L274 397 Z M292 383 L288 393 L293 396 L298 397 L300 395 L302 386 Z M294 386 L299 388 L299 391 L297 394 L291 392 Z M247 386 L248 387 L251 385 L258 384 L266 387 L265 385 L259 383 L254 383 Z M214 383 L211 388 L210 393 L219 397 L222 394 L224 387 L222 385 Z M216 386 L221 388 L221 391 L218 394 L213 392 Z M304 377 L294 374 L288 376 L284 380 L291 376 L300 376 L303 378 Z M326 308 L325 314 L319 319 L322 319 L325 322 L325 325 L327 327 L328 321 L334 318 L328 315 L327 308 Z M186 308 L185 314 L179 319 L182 319 L185 322 L186 328 L187 328 L188 322 L194 318 L188 315 L187 308 Z M296 290 L294 292 L294 295 L296 297 L300 297 L301 292 L299 290 Z M296 293 L298 292 L299 294 L297 295 Z M213 290 L211 292 L211 295 L213 297 L217 297 L218 291 Z M213 293 L215 292 L216 294 L214 295 Z M380 277 L379 294 L381 297 L377 301 L377 303 L380 304 L380 307 L375 308 L375 314 L373 316 L373 319 L376 320 L377 322 L373 324 L371 330 L375 335 L380 337 L378 340 L378 343 L380 345 L380 351 L382 351 L382 345 L384 343 L384 340 L382 337 L387 335 L390 332 L390 327 L389 325 L382 323 L383 321 L388 321 L389 316 L387 311 L383 312 L381 310 L382 308 L386 307 L386 304 L381 302 L384 295 L381 293 L382 277 Z M373 328 L375 325 L378 324 L380 331 L384 331 L386 327 L388 328 L388 331 L384 334 L378 334 L374 331 Z M377 320 L379 319 L380 321 L378 322 Z M382 316 L384 315 L386 318 L384 319 Z M377 313 L380 312 L381 314 L378 315 Z M131 277 L130 283 L131 292 L129 294 L131 299 L127 302 L127 304 L129 304 L130 307 L125 309 L125 312 L130 312 L131 314 L123 316 L123 320 L125 321 L125 323 L122 326 L122 332 L131 337 L128 342 L130 344 L130 348 L132 351 L132 345 L134 343 L134 340 L132 337 L140 333 L141 327 L135 323 L140 318 L138 315 L138 312 L132 311 L132 309 L136 308 L137 306 L136 304 L131 303 L134 299 L132 295 L134 291 L132 289 L132 277 Z M139 328 L139 330 L134 334 L128 334 L126 332 L128 329 L131 331 L134 331 L136 326 Z M129 324 L130 325 L129 328 L125 329 L124 327 Z M128 320 L132 319 L133 321 L129 322 Z M134 317 L136 316 L137 318 L135 319 Z M280 269 L287 275 L282 269 Z M284 266 L287 268 L286 266 Z M230 265 L226 267 L230 269 L226 275 L232 270 L230 268 Z M285 261 L289 264 L294 265 L288 261 Z M287 257 L287 258 L290 258 L290 257 Z M226 257 L222 259 L223 263 L219 265 L228 262 L228 261 L223 260 Z M286 253 L286 254 L298 254 L298 253 Z M215 253 L215 254 L227 254 L227 253 Z M219 240 L219 242 L225 245 L223 248 L227 249 L229 245 Z M287 231 L280 237 L280 238 L283 236 L285 237 L283 241 L285 240 L287 241 L285 245 L294 241 L293 240 L289 242 L286 239 L285 234 Z M297 203 L295 204 L294 208 L295 210 L299 211 L301 209 L301 205 Z M214 203 L212 204 L211 209 L216 211 L218 209 L218 205 Z M256 194 L255 209 L253 211 L256 217 L250 221 L251 223 L255 223 L256 226 L248 231 L245 235 L246 244 L251 248 L254 248 L255 250 L253 252 L247 253 L239 260 L236 267 L236 276 L240 284 L246 290 L257 295 L261 291 L261 288 L259 286 L250 289 L240 279 L239 266 L241 262 L251 254 L262 254 L271 260 L274 267 L273 273 L268 279 L262 281 L256 280 L253 277 L256 275 L264 275 L267 271 L266 264 L262 261 L257 260 L249 265 L248 275 L251 280 L257 283 L265 283 L271 280 L276 273 L276 264 L271 256 L259 250 L260 248 L263 248 L268 244 L269 238 L262 231 L264 223 L258 223 L256 221 L258 218 L261 217 L261 215 L257 212 L258 202 Z M250 273 L251 267 L256 263 L260 263 L264 267 L264 271 L262 273 L258 272 L260 268 L257 268 L254 274 Z M247 238 L251 232 L255 231 L256 234 L254 236 L254 241 L257 243 L260 242 L262 238 L259 238 L258 236 L263 235 L266 238 L266 242 L261 246 L254 246 L248 242 Z M258 227 L260 228 L259 231 L256 230 Z M385 180 L385 201 L381 213 L380 228 L385 237 L392 239 L397 236 L402 242 L401 247 L391 246 L385 242 L390 256 L394 260 L399 260 L402 265 L401 271 L398 272 L397 278 L388 287 L389 289 L406 280 L406 278 L415 271 L419 262 L420 249 L418 248 L418 240 L414 230 L401 213 L398 199 L392 191 L390 184 Z M397 280 L399 279 L400 281 L398 282 Z M400 276 L402 275 L403 277 L401 278 Z M407 259 L408 266 L406 271 L404 272 L403 271 L403 261 Z M401 257 L403 256 L404 259 L402 260 Z M417 252 L418 254 L416 264 L413 270 L409 273 L408 272 L410 266 L409 258 L414 253 Z M390 248 L394 248 L396 250 L395 257 L391 254 L389 250 Z M414 237 L416 241 L416 248 L410 254 L408 254 L407 252 L410 246 L410 240 Z M390 232 L392 231 L394 235 L392 236 Z M395 229 L398 229 L405 234 L408 240 L408 246 L406 249 L404 248 L404 242 L402 237 L394 232 Z M384 219 L388 220 L392 226 L391 228 L388 227 L387 235 L383 231 L382 225 L385 224 L383 221 Z M392 210 L395 210 L396 208 L399 210 L399 215 L398 216 L395 215 L397 223 L399 223 L399 220 L402 218 L406 226 L408 226 L411 230 L410 236 L404 230 L403 225 L401 227 L397 227 L391 222 L390 214 Z M389 191 L390 194 L394 196 L396 200 L396 205 L391 208 L388 215 L386 216 L384 214 L384 208 L387 202 L390 203 L390 200 L387 196 L387 192 Z M127 180 L123 183 L120 191 L115 197 L111 213 L98 230 L94 240 L94 248 L92 249 L93 262 L96 270 L108 281 L123 289 L124 287 L115 278 L114 272 L111 271 L111 263 L113 260 L118 260 L123 255 L127 243 L122 246 L116 245 L111 247 L110 242 L115 236 L120 239 L126 238 L132 229 L131 213 L126 190 Z M112 280 L114 279 L116 282 L114 283 Z M109 276 L111 275 L112 277 L110 278 Z M106 266 L109 267 L108 273 L105 270 Z M106 259 L109 261 L108 265 L104 264 L104 261 Z M109 256 L111 255 L112 258 L110 259 Z M99 255 L103 258 L102 260 L102 267 L104 271 L103 273 L99 270 L95 261 L96 257 Z M94 253 L96 252 L97 254 L95 255 Z M117 249 L121 252 L119 256 L116 253 Z M112 250 L114 249 L115 251 L113 252 Z M120 249 L122 248 L123 250 L121 251 Z M98 236 L100 236 L101 239 L103 240 L102 246 L105 252 L104 255 L96 247 L96 241 Z M119 229 L122 232 L121 235 L119 236 L118 233 L114 234 L109 239 L108 248 L106 249 L104 246 L104 241 L106 236 L112 230 Z M106 225 L107 232 L103 236 L101 234 L101 230 Z M128 219 L129 222 L127 224 L130 225 L130 228 L128 233 L124 236 L123 235 L124 227 L121 228 L120 226 L124 220 Z M110 218 L115 224 L115 226 L112 228 L110 228 L108 225 L108 221 Z M121 213 L122 220 L118 224 L115 222 L115 220 L118 217 L118 215 Z M113 215 L114 209 L120 210 L120 212 L115 216 Z M120 195 L123 198 L122 201 L123 204 L126 204 L128 208 L128 214 L126 216 L124 215 L122 209 L118 207 L116 204 L116 200 Z M123 191 L125 192 L124 196 L122 195 Z M326 172 L325 178 L318 182 L322 183 L325 186 L326 191 L327 191 L328 185 L335 181 L330 180 Z M186 172 L185 178 L178 182 L182 183 L185 186 L186 192 L187 192 L188 185 L195 181 L190 180 Z M256 17 L233 63 L190 74 L160 88 L109 131 L80 178 L69 212 L65 245 L59 252 L65 257 L68 289 L79 326 L106 371 L131 397 L177 430 L234 446 L235 457 L257 496 L277 459 L279 446 L333 431 L376 401 L407 369 L434 321 L446 257 L453 250 L446 244 L442 210 L430 174 L403 131 L378 106 L347 85 L279 63 Z M255 484 L257 483 L258 485 L256 486 Z M261 457 L264 459 L263 464 L266 470 L264 473 L262 471 L260 472 L262 476 L260 481 L254 483 L251 477 L252 470 L250 473 L247 471 L247 468 L249 465 L248 459 L254 458 L257 463 L258 459 Z M241 456 L247 459 L247 464 L245 466 L240 460 Z M272 455 L273 459 L270 464 L267 465 L266 459 Z M260 451 L261 448 L265 444 L271 444 L276 450 L275 453 L269 450 L265 450 L266 452 L265 456 L263 456 Z M237 449 L242 444 L248 444 L252 448 L252 455 L247 457 L244 454 L247 450 L238 452 Z M253 442 L261 443 L257 451 L255 450 L252 444 Z M271 441 L271 439 L276 436 L295 438 L294 440 L286 443 L274 443 Z M242 441 L239 443 L227 443 L220 441 L219 438 L237 436 Z M307 432 L309 431 L310 433 L308 434 Z M202 432 L204 431 L205 433 L203 434 Z M326 430 L323 433 L319 434 L314 433 L315 431 L324 429 Z M317 428 L319 427 L320 429 L318 430 Z M192 428 L194 427 L195 429 L193 430 Z M320 427 L323 425 L330 425 L332 428 L330 430 L327 430 L326 428 L321 429 Z M180 427 L182 425 L189 425 L192 428 L191 429 L187 428 L187 429 L196 431 L197 433 L196 434 L189 433 L182 430 Z M229 424 L229 422 L231 421 L242 425 L264 426 L275 424 L281 421 L284 422 L277 432 L272 436 L264 439 L245 438 L238 434 Z M322 419 L323 422 L319 424 L318 422 Z M188 420 L190 419 L194 423 L192 424 Z M220 416 L222 415 L223 417 L221 418 Z M292 412 L295 414 L293 417 L290 416 Z M343 411 L344 413 L338 417 L337 415 L341 411 Z M287 412 L287 415 L283 418 L273 422 L270 421 L276 415 L278 411 L284 410 Z M225 413 L229 410 L232 410 L237 414 L242 421 L241 422 L236 421 L228 417 Z M338 407 L340 410 L336 413 L335 409 Z M305 404 L308 409 L308 419 L304 426 L293 433 L281 434 L280 432 L293 418 L299 414 L301 415 L303 414 L302 411 L296 414 L294 410 Z M207 404 L221 412 L219 416 L212 412 L211 413 L218 417 L229 429 L228 431 L224 430 L226 432 L225 434 L219 433 L213 430 L206 423 L204 419 L204 410 Z M233 398 L232 402 L226 407 L223 408 L218 407 L219 405 L226 403 L231 397 Z M168 396 L172 398 L177 408 L176 413 L174 412 L174 409 L167 398 Z M330 395 L333 401 L333 409 L330 416 L327 419 L323 417 L327 409 L327 405 L326 405 L325 411 L322 416 L316 422 L310 424 L309 422 L317 410 L316 409 L312 413 L311 409 L313 406 L322 398 Z M183 395 L193 400 L200 407 L201 412 L199 413 L197 410 L196 411 L200 419 L203 422 L202 424 L196 422 L188 414 L185 404 L184 406 L188 417 L185 419 L182 416 L179 409 L179 401 Z M195 392 L195 394 L192 396 L187 394 L188 392 L193 391 Z M171 392 L176 391 L179 392 L180 394 L174 395 Z M159 387 L161 387 L167 392 L164 397 L170 404 L170 409 L175 415 L174 417 L171 416 L162 406 L156 392 Z M326 391 L328 386 L333 388 L332 391 L328 392 Z M357 385 L358 388 L351 404 L346 411 L343 410 L342 403 L345 401 L349 395 L345 398 L342 403 L339 402 L340 399 L347 390 Z M154 388 L155 385 L158 386 L156 389 Z M168 384 L170 383 L176 386 L194 385 L195 388 L191 390 L178 390 L170 387 Z M342 381 L344 382 L346 386 L345 389 L343 388 L341 383 Z M237 381 L239 380 L240 383 L238 384 Z M250 380 L258 379 L267 382 L274 388 L278 397 L278 403 L274 413 L270 417 L262 421 L256 421 L255 419 L265 416 L266 414 L262 416 L251 416 L245 413 L248 416 L254 418 L254 420 L251 421 L243 417 L236 407 L236 403 L238 402 L241 409 L243 410 L240 400 L244 389 L240 394 L239 400 L236 401 L235 398 L240 387 Z M320 377 L326 374 L332 374 L333 375 L332 377 L326 377 L322 380 L326 378 L336 379 L334 377 L335 375 L340 378 L338 381 L342 386 L342 392 L337 399 L333 396 L336 386 L331 384 L326 385 L324 394 L318 398 L316 397 L318 395 L318 386 L320 383 L319 382 L317 384 L316 382 Z M168 377 L172 374 L175 375 L180 374 L181 376 L179 377 L179 379 L181 381 L180 382 L174 380 L170 381 Z M196 373 L199 372 L201 375 L198 376 Z M322 372 L321 374 L317 376 L311 375 L312 373 L320 371 Z M298 371 L306 374 L312 380 L314 385 L314 396 L312 400 L308 403 L307 401 L311 394 L311 387 L308 382 L310 387 L310 393 L308 398 L302 403 L290 404 L283 399 L286 403 L294 406 L293 408 L289 408 L282 404 L280 401 L280 398 L282 397 L281 386 L283 382 L281 383 L279 389 L277 388 L277 385 L279 380 L285 374 L292 371 Z M210 372 L215 371 L216 374 L208 377 L204 381 L201 388 L203 398 L204 398 L202 391 L203 385 L210 377 L221 376 L221 373 L223 372 L226 373 L235 383 L236 389 L234 390 L232 388 L230 381 L226 378 L231 385 L232 392 L230 397 L222 404 L212 404 L208 400 L205 400 L205 402 L203 403 L199 398 L198 394 L199 383 L201 379 Z M322 371 L324 370 L325 372 L323 373 Z M300 366 L303 365 L304 367 L301 368 Z M313 362 L322 361 L323 363 L320 368 L315 368 L314 367 L315 364 Z M301 362 L304 361 L305 363 L302 364 Z M295 362 L296 361 L299 362 L300 366 L295 368 L294 367 L296 365 Z M210 362 L211 361 L220 364 L221 367 L212 368 L211 367 L212 364 Z M202 362 L200 368 L192 367 L195 362 L199 361 Z M217 347 L219 346 L231 354 L245 358 L268 358 L282 354 L294 346 L296 349 L290 364 L280 375 L270 379 L263 377 L251 377 L243 379 L233 375 L227 370 L220 358 Z M295 340 L294 343 L285 350 L270 355 L249 356 L239 354 L237 352 L238 349 L250 353 L268 352 L278 347 L282 339 L293 338 Z M218 340 L220 338 L231 339 L233 341 L233 345 L237 348 L236 351 L234 352 L225 348 L219 343 Z M342 336 L346 336 L349 340 L346 345 L342 345 L339 342 L339 339 Z M166 336 L171 336 L173 338 L173 342 L170 345 L167 345 L164 342 L164 338 Z M236 342 L238 338 L244 332 L250 329 L257 328 L263 329 L269 332 L275 338 L277 344 L265 350 L248 350 L238 346 Z M254 324 L258 323 L259 325 L255 326 Z M259 321 L259 319 L271 307 L306 307 L307 308 L280 337 L277 337 L271 330 L264 327 L262 323 Z M206 308 L207 307 L242 307 L254 319 L254 321 L249 327 L242 330 L236 337 L233 337 L210 314 Z M342 284 L341 334 L337 337 L296 337 L287 334 L337 282 Z M339 280 L341 279 L342 281 L340 282 Z M170 279 L172 278 L226 334 L217 337 L175 337 L171 334 Z M307 271 L308 272 L308 304 L307 305 L303 304 L276 305 L275 303 Z M204 271 L206 270 L238 304 L237 305 L211 305 L210 304 L205 305 L204 304 Z M430 266 L431 275 L427 296 L420 317 L410 338 L400 354 L388 369 L373 384 L362 393 L360 393 L359 391 L377 376 L388 364 L398 351 L409 333 L422 301 L427 279 L427 271 L428 267 Z M81 256 L83 257 L84 274 L89 299 L97 321 L104 335 L119 358 L144 384 L153 391 L152 393 L150 393 L139 384 L122 367 L114 357 L100 335 L89 310 L83 289 L80 268 L80 257 Z M442 255 L444 257 L443 274 L437 304 L430 324 L418 348 L401 372 L383 391 L363 407 L348 416 L347 414 L355 401 L384 377 L410 343 L426 308 L433 279 L434 264 L437 263 L437 258 Z M429 255 L432 258 L431 265 L428 264 Z M69 255 L74 257 L74 263 L78 263 L78 275 L83 299 L91 322 L100 340 L111 357 L126 375 L158 402 L165 414 L164 416 L146 405 L131 393 L109 370 L93 347 L81 323 L73 299 L67 260 Z M442 250 L444 248 L448 248 L450 251 L447 254 L445 254 Z M64 248 L67 248 L69 250 L67 254 L64 254 L62 252 Z M434 246 L436 246 L440 250 L435 256 L430 251 Z M366 246 L370 246 L373 249 L373 252 L370 255 L366 255 L364 253 L364 248 Z M331 246 L334 246 L337 250 L337 252 L334 255 L331 255 L328 252 L328 249 Z M179 246 L182 246 L185 249 L185 252 L182 255 L179 255 L176 252 L176 249 Z M142 246 L146 246 L149 249 L149 252 L147 255 L142 255 L140 253 L140 248 Z M76 246 L81 250 L81 252 L77 256 L72 252 L72 250 Z M201 197 L202 234 L189 248 L183 244 L178 244 L171 249 L171 252 L178 257 L183 257 L189 253 L202 266 L202 299 L198 301 L151 254 L151 247 Z M311 196 L361 246 L361 255 L312 304 L310 303 L311 266 L324 253 L330 257 L335 257 L342 252 L342 249 L335 244 L330 244 L324 248 L311 234 Z M276 197 L277 196 L307 196 L308 197 L308 228 L306 229 L277 200 Z M204 229 L204 197 L205 196 L236 196 L237 199 L206 230 Z M255 183 L321 248 L321 253 L259 316 L254 316 L190 251 Z M255 168 L258 168 L261 171 L261 174 L258 177 L255 177 L252 174 L252 171 Z M284 161 L337 161 L342 166 L341 222 L283 163 Z M229 161 L230 163 L171 222 L170 166 L175 161 Z M342 154 L346 154 L348 156 L348 161 L345 163 L342 163 L339 159 L339 157 Z M166 154 L171 154 L173 156 L173 160 L170 163 L167 163 L164 160 L164 156 Z M206 191 L254 142 L259 142 L307 192 L272 194 L259 181 L263 175 L263 170 L259 166 L257 156 L254 166 L250 170 L250 175 L254 181 L242 193 L207 193 Z M255 130 L258 130 L261 133 L261 137 L257 140 L255 140 L252 137 L252 133 Z M247 118 L251 117 L252 119 L248 120 Z M259 114 L261 115 L260 119 L258 118 Z M253 104 L255 103 L256 105 L254 106 Z M280 79 L286 79 L307 84 L326 91 L344 100 L367 116 L389 137 L409 165 L422 193 L427 209 L431 229 L432 244 L430 246 L428 245 L428 234 L426 221 L418 192 L405 165 L388 141 L369 122 L344 104 L312 89 L289 83 L280 82 L279 81 Z M233 79 L234 80 L233 82 L208 87 L193 92 L170 103 L148 118 L125 140 L107 165 L96 187 L89 207 L84 231 L83 245 L81 246 L80 236 L82 221 L91 190 L106 160 L125 135 L149 113 L172 98 L184 92 L206 84 L227 79 Z M143 125 L189 96 L247 83 L254 76 L256 97 L250 100 L252 105 L247 110 L257 113 L247 115 L245 121 L265 123 L266 111 L257 109 L264 106 L257 101 L261 97 L257 93 L259 76 L266 83 L304 89 L338 103 L386 142 L407 173 L420 205 L426 235 L426 270 L421 297 L406 334 L368 381 L349 385 L344 377 L328 371 L325 360 L296 357 L299 339 L333 339 L341 347 L351 342 L345 333 L344 275 L363 256 L369 258 L375 253 L372 244 L363 245 L344 224 L344 166 L351 157 L343 151 L336 159 L279 159 L261 141 L264 135 L259 128 L251 130 L252 141 L234 159 L177 159 L172 152 L165 152 L162 161 L168 166 L168 226 L150 245 L141 244 L137 250 L143 258 L150 256 L168 274 L168 333 L162 337 L163 345 L171 347 L177 339 L213 339 L216 356 L190 360 L186 370 L170 372 L161 384 L146 383 L126 363 L95 310 L87 280 L85 244 L100 183 L119 151 Z M284 69 L291 68 L311 73 L343 86 L375 107 L396 127 L415 152 L432 186 L442 223 L444 239 L442 247 L437 244 L437 239 L434 238 L428 204 L419 179 L407 157 L394 139 L371 116 L352 102 L318 85 L283 77 L282 73 Z M229 67 L230 77 L204 82 L167 98 L140 117 L119 138 L105 157 L92 181 L82 210 L78 238 L74 239 L74 245 L70 247 L68 245 L69 227 L80 185 L95 155 L116 127 L136 108 L162 90 L195 75 Z M256 61 L259 64 L257 76 L255 75 L254 67 Z M269 53 L271 53 L276 61 L276 67 L271 72 L269 72 L266 69 L265 70 L266 73 L271 75 L278 68 L280 69 L279 76 L275 80 L268 81 L264 79 L260 72 L263 64 L268 63 L272 66 L272 64 L267 59 L267 55 Z M242 53 L246 55 L246 58 L241 66 L245 63 L248 63 L252 67 L253 70 L251 77 L245 81 L240 81 L233 75 L234 68 L241 75 L244 75 L247 72 L247 70 L242 72 L237 67 L237 60 Z M256 27 L258 28 L262 37 L262 41 L260 43 L261 47 L263 44 L265 44 L267 47 L267 51 L265 54 L265 60 L262 62 L259 60 L257 54 L252 62 L247 60 L248 54 L246 51 L246 47 L248 43 L252 47 L253 44 L251 41 L251 37 Z"/></svg>
