<svg xmlns="http://www.w3.org/2000/svg" width="512" height="512" viewBox="0 0 512 512" aria-hidden="true" focusable="false"><path fill="currentColor" fill-rule="evenodd" clip-rule="evenodd" d="M256 17 L243 48 L224 74 L219 100 L197 112 L194 138 L149 174 L128 216 L127 244 L131 244 L135 211 L149 184 L175 157 L197 143 L205 145 L158 183 L143 206 L137 226 L138 247 L133 256 L140 267 L132 274 L143 306 L156 318 L178 325 L162 353 L155 353 L136 339 L115 313 L113 293 L119 289 L123 297 L129 289 L129 278 L122 270 L122 244 L111 227 L107 227 L107 247 L92 272 L88 299 L102 332 L144 363 L126 365 L102 357 L140 420 L166 438 L198 439 L200 456 L214 466 L229 463 L234 451 L222 444 L220 448 L227 451 L227 456 L217 461 L207 455 L207 437 L218 431 L233 434 L241 446 L238 471 L259 496 L276 471 L273 446 L282 433 L297 431 L308 439 L310 449 L302 459 L288 457 L292 444 L280 451 L286 464 L300 466 L313 457 L316 439 L353 436 L379 414 L411 357 L352 372 L396 347 L412 332 L424 310 L425 284 L407 247 L403 227 L391 246 L392 270 L384 280 L385 291 L391 297 L394 290 L400 293 L398 313 L371 344 L358 353 L351 352 L335 325 L357 318 L378 290 L381 272 L373 267 L380 256 L375 247 L375 220 L353 180 L309 146 L317 143 L336 155 L363 182 L378 210 L383 244 L387 240 L384 212 L359 168 L320 138 L318 113 L296 100 L291 75 Z M351 405 L347 410 L336 416 L297 420 L278 428 L267 444 L267 454 L271 460 L271 468 L258 485 L245 472 L243 460 L247 454 L247 444 L245 438 L236 428 L217 420 L178 416 L163 406 L171 395 L177 401 L189 398 L193 410 L231 415 L240 420 L251 431 L256 441 L259 441 L266 427 L277 418 L293 412 L320 410 L325 398 L336 401 L343 394 L345 401 Z M256 379 L259 381 L259 384 L265 394 L275 404 L284 408 L283 410 L280 410 L268 417 L258 428 L256 428 L246 417 L232 409 L234 406 L242 401 L250 392 Z M120 372 L140 372 L154 377 L163 386 L165 395 L161 400 L159 400 L156 394 L156 388 L153 387 L151 390 L152 400 L155 406 L165 416 L178 421 L179 423 L205 425 L209 428 L197 433 L181 434 L169 432 L157 427 L143 414 L137 405 L127 382 Z M395 370 L384 387 L377 405 L362 424 L351 430 L332 434 L317 433 L307 429 L309 425 L331 424 L349 416 L358 407 L362 399 L361 387 L358 388 L357 397 L355 399 L352 399 L349 396 L349 390 L358 378 L374 372 Z M146 365 L148 364 L157 369 L158 371 L156 372 L151 369 L148 369 Z M155 361 L157 360 L158 362 L156 363 Z M282 317 L321 324 L342 343 L346 356 L344 379 L334 394 L319 390 L316 404 L297 406 L285 403 L273 394 L264 381 L260 367 L260 333 L266 330 L270 342 L268 351 L273 354 L279 352 L280 346 L274 340 L269 326 L271 323 L285 332 L288 340 L298 337 L298 331 L280 321 Z M234 315 L236 319 L226 328 L217 330 L215 337 L225 340 L234 327 L243 323 L240 339 L233 347 L240 354 L246 350 L243 341 L247 331 L253 332 L253 369 L244 390 L232 401 L217 406 L198 404 L194 389 L179 394 L170 381 L167 369 L168 352 L174 339 L192 324 Z M232 290 L239 284 L246 284 L250 286 L256 294 L258 294 L264 286 L268 284 L275 284 L282 290 L284 298 L274 314 L256 327 L245 317 L243 317 L234 307 L231 300 Z M114 246 L116 246 L118 250 L118 263 L114 274 L120 276 L123 283 L114 284 L108 290 L106 296 L108 312 L119 330 L133 344 L154 359 L153 361 L125 345 L105 327 L95 308 L95 282 L102 266 Z M399 245 L418 279 L420 287 L420 301 L418 310 L406 330 L399 337 L393 340 L389 345 L356 363 L356 360 L375 348 L394 330 L405 312 L407 303 L406 291 L400 284 L391 283 L391 279 L395 275 L400 274 L395 258 L396 248 Z M372 252 L366 269 L374 277 L370 293 L360 308 L344 317 L331 319 L286 310 L288 306 L297 306 L299 309 L305 307 L302 300 L290 300 L290 295 L308 291 L317 294 L320 290 L318 282 L292 290 L287 288 L287 282 L297 274 L308 271 L308 265 L303 261 L282 281 L279 279 L306 241 L323 231 L342 230 L354 234 Z M142 251 L156 236 L166 231 L187 230 L201 236 L214 248 L235 279 L230 280 L210 261 L205 265 L205 271 L218 275 L227 283 L226 289 L196 282 L193 285 L194 292 L223 295 L223 300 L211 300 L208 306 L210 309 L226 306 L228 310 L182 319 L170 317 L153 308 L144 295 L140 275 L148 269 L141 256 Z M241 168 L256 180 L273 168 L297 189 L304 205 L301 235 L272 278 L268 278 L267 274 L282 242 L279 239 L271 241 L272 251 L261 275 L260 231 L263 222 L260 219 L251 222 L254 231 L253 276 L242 252 L242 240 L232 241 L246 278 L239 275 L210 228 L208 213 L213 194 Z M142 228 L147 211 L163 186 L186 165 L222 145 L220 125 L231 123 L241 129 L254 125 L256 120 L245 107 L245 96 L258 77 L271 100 L259 123 L269 129 L284 123 L297 128 L291 134 L291 143 L329 166 L352 188 L366 210 L372 239 L341 224 L309 231 L311 208 L300 183 L274 161 L258 171 L239 161 L218 178 L202 209 L204 231 L172 224 L143 238 Z M258 32 L267 52 L287 80 L290 89 L289 108 L301 108 L308 111 L315 119 L315 134 L300 144 L296 140 L296 137 L301 136 L302 133 L299 121 L286 116 L274 123 L267 122 L275 111 L276 97 L260 67 L255 66 L238 99 L240 112 L247 122 L241 123 L229 116 L222 117 L212 127 L213 134 L218 137 L218 140 L212 145 L210 140 L205 140 L199 133 L200 118 L213 108 L225 108 L224 91 L228 79 L247 53 Z"/></svg>
