<svg xmlns="http://www.w3.org/2000/svg" width="512" height="512" viewBox="0 0 512 512" aria-hidden="true" focusable="false"><path fill="currentColor" fill-rule="evenodd" clip-rule="evenodd" d="M362 407 L362 410 L364 412 L372 407 L374 407 L379 412 L382 411 L382 407 L377 406 L374 402 L375 397 L372 394 L369 397 L370 402 L368 405 Z M139 394 L137 396 L138 400 L137 403 L134 406 L131 406 L129 409 L132 412 L137 407 L143 408 L147 412 L150 408 L143 404 L141 401 L142 396 Z M358 368 L354 366 L348 366 L345 368 L343 372 L343 378 L340 382 L332 385 L324 384 L324 386 L336 387 L343 384 L347 378 L347 372 L350 369 L352 369 L355 372 L351 380 L357 378 L359 374 Z M390 363 L388 364 L386 381 L383 384 L383 389 L379 395 L381 400 L387 404 L394 401 L397 396 L396 389 L391 383 L391 379 L389 378 L389 376 L391 375 Z M390 393 L392 392 L394 395 L392 396 Z M385 393 L387 392 L388 394 L386 395 Z M121 363 L122 367 L120 374 L123 378 L120 380 L120 383 L116 388 L114 396 L117 399 L117 401 L122 404 L125 404 L130 400 L132 397 L132 394 L128 389 L128 383 L126 381 L124 366 Z M121 392 L122 391 L125 392 L126 395 L123 396 Z M241 239 L233 244 L233 247 L236 250 L246 248 L249 251 L249 254 L234 261 L230 265 L229 271 L233 277 L244 282 L247 282 L248 279 L258 271 L267 271 L273 276 L275 280 L275 288 L271 298 L263 307 L265 308 L275 302 L284 289 L285 279 L282 271 L277 266 L270 263 L279 255 L279 244 L274 239 L266 238 L256 246 L251 239 Z M272 250 L272 254 L267 259 L266 263 L260 263 L254 265 L247 270 L244 274 L241 274 L238 272 L238 268 L242 264 L253 259 L264 248 L270 248 Z M270 226 L258 231 L249 230 L244 227 L241 227 L241 229 L249 236 L260 237 L268 232 L270 229 Z M251 215 L249 218 L249 221 L252 226 L255 227 L260 226 L262 222 L262 217 L259 214 Z M185 194 L178 202 L177 206 L180 210 L183 211 L184 226 L187 227 L188 226 L187 223 L188 211 L193 208 L194 203 L187 196 L187 194 Z M184 209 L186 208 L187 210 L185 211 Z M181 204 L183 203 L184 205 L182 206 Z M184 202 L186 201 L190 205 L189 206 L185 205 Z M209 172 L206 168 L200 169 L196 167 L187 175 L184 175 L175 170 L169 174 L168 182 L170 184 L176 183 L179 189 L183 189 L185 187 L184 181 L188 180 L189 190 L193 192 L198 192 L202 188 L202 182 L208 178 Z M191 184 L194 182 L197 182 L199 184 L199 187 L197 189 L194 189 L191 186 Z M174 174 L177 174 L179 176 L177 180 L172 177 Z M189 178 L190 176 L194 175 L195 171 L198 171 L199 173 L205 171 L207 174 L205 177 L200 180 Z M365 113 L364 143 L365 148 L362 150 L364 155 L361 156 L361 159 L364 160 L365 162 L360 165 L360 167 L364 168 L365 171 L361 175 L363 183 L359 187 L358 191 L363 196 L368 195 L369 198 L359 208 L355 210 L354 213 L358 215 L355 219 L355 222 L359 226 L365 227 L363 235 L364 238 L366 239 L367 263 L369 263 L370 240 L372 237 L372 229 L368 223 L373 222 L376 217 L375 214 L379 209 L377 208 L367 209 L365 207 L372 199 L375 192 L373 185 L369 182 L370 180 L369 173 L372 172 L372 169 L369 167 L369 165 L372 163 L372 161 L368 158 L371 155 L371 153 L367 151 L369 149 L368 113 Z M366 235 L368 234 L369 236 L367 237 Z M366 219 L362 223 L358 221 L359 219 L363 218 Z M367 214 L369 213 L373 217 L369 218 Z M371 211 L373 210 L374 212 L372 213 Z M361 211 L365 210 L366 212 L362 213 Z M362 191 L366 190 L367 192 L363 193 Z M142 113 L140 143 L141 148 L139 149 L140 155 L137 157 L137 159 L141 160 L142 162 L136 165 L136 167 L140 168 L142 171 L137 176 L139 183 L135 187 L135 193 L139 196 L145 195 L146 197 L139 205 L129 212 L134 214 L134 216 L131 219 L133 225 L141 227 L139 235 L142 240 L143 262 L145 262 L146 248 L145 240 L148 237 L148 229 L145 223 L152 219 L153 217 L152 214 L156 209 L152 207 L147 208 L142 207 L149 198 L151 193 L150 187 L145 183 L147 179 L147 176 L145 174 L149 171 L149 169 L146 168 L145 166 L149 163 L149 161 L144 158 L145 156 L147 156 L147 153 L144 151 L145 149 L144 113 Z M141 217 L142 220 L138 223 L134 221 L135 219 L138 219 Z M143 214 L146 213 L149 217 L146 218 Z M148 210 L150 209 L151 211 L149 212 Z M137 210 L141 209 L142 212 L139 213 Z M323 47 L321 47 L320 54 L321 79 L319 83 L320 87 L318 89 L318 92 L320 94 L316 96 L316 98 L320 100 L321 102 L315 105 L316 107 L320 108 L321 111 L316 116 L319 123 L315 126 L314 133 L317 136 L321 136 L324 133 L326 135 L315 147 L309 151 L309 153 L314 154 L311 158 L311 162 L315 165 L323 161 L327 161 L331 159 L331 153 L335 150 L335 148 L333 147 L327 147 L324 149 L321 147 L321 145 L327 139 L330 133 L329 126 L324 122 L326 118 L324 113 L328 111 L328 109 L325 108 L323 105 L328 102 L322 98 L323 96 L326 95 L322 91 L325 88 L323 85 Z M320 157 L321 159 L319 161 L316 162 L314 160 L315 158 Z M323 155 L326 154 L328 157 L326 158 Z M191 47 L189 47 L188 54 L189 70 L187 87 L189 89 L185 92 L188 96 L184 99 L188 102 L188 104 L183 106 L183 108 L188 109 L189 111 L184 116 L187 123 L182 126 L181 131 L184 135 L186 136 L192 135 L193 137 L190 139 L190 141 L185 146 L180 148 L177 151 L177 153 L182 154 L178 158 L179 163 L184 165 L192 161 L198 160 L199 154 L203 150 L203 148 L201 147 L194 148 L190 147 L190 145 L198 134 L198 128 L193 123 L194 117 L192 115 L194 112 L196 112 L196 110 L191 108 L192 105 L196 104 L195 101 L191 99 L194 96 L194 94 L191 92 L193 89 L191 85 Z M188 157 L189 159 L187 161 L184 162 L182 160 L183 158 Z M191 154 L192 153 L195 154 L196 157 L194 158 Z M184 150 L188 149 L189 152 L187 153 Z M254 17 L254 61 L250 64 L254 69 L248 75 L255 79 L246 99 L251 111 L236 123 L240 129 L254 129 L254 134 L208 192 L189 239 L153 237 L164 249 L164 278 L145 282 L156 293 L164 328 L145 341 L154 344 L164 359 L181 371 L180 379 L225 382 L232 394 L218 396 L210 403 L191 390 L172 391 L161 386 L159 369 L170 385 L183 387 L169 379 L165 367 L154 367 L152 374 L144 370 L150 360 L124 332 L138 331 L135 316 L145 305 L138 277 L126 277 L126 272 L133 270 L129 244 L120 279 L126 285 L133 284 L134 289 L119 295 L127 306 L136 304 L126 301 L138 295 L141 304 L130 320 L127 310 L126 326 L111 331 L123 339 L145 377 L158 389 L176 396 L166 410 L172 424 L184 422 L184 416 L180 418 L177 411 L189 406 L202 425 L219 437 L235 439 L235 432 L248 430 L249 434 L238 443 L255 460 L252 466 L257 496 L257 459 L274 443 L262 432 L292 427 L307 402 L324 396 L340 405 L342 416 L337 422 L336 408 L321 404 L301 429 L276 439 L302 432 L323 406 L334 410 L332 418 L327 416 L328 423 L339 424 L345 409 L336 396 L366 378 L387 341 L401 329 L385 325 L383 307 L391 295 L386 289 L377 289 L392 276 L383 246 L378 269 L385 272 L385 277 L373 277 L366 305 L377 318 L373 331 L387 332 L363 358 L362 366 L368 370 L352 386 L339 391 L321 390 L301 404 L291 395 L279 394 L287 382 L331 379 L330 371 L344 363 L360 342 L367 341 L360 334 L346 331 L355 294 L366 281 L348 278 L347 251 L359 237 L343 234 L324 240 L301 189 L307 183 L311 189 L319 186 L325 193 L317 206 L323 211 L326 234 L328 211 L334 206 L327 193 L340 177 L339 170 L325 168 L317 175 L305 171 L298 185 L259 137 L258 129 L272 129 L276 122 L262 111 L266 99 L259 91 L263 77 L257 65 L258 17 Z M254 442 L256 441 L257 443 L255 444 Z M263 441 L267 440 L268 443 L264 444 Z M243 441 L247 440 L248 444 L247 445 L244 444 Z M256 429 L258 430 L257 434 L254 433 Z M249 427 L251 426 L252 428 L250 429 Z M217 420 L219 419 L222 423 L220 424 Z M254 407 L255 404 L258 405 L256 408 Z M234 400 L237 404 L237 410 L234 414 L231 415 L230 413 L233 410 L232 401 Z M272 398 L274 399 L272 403 L272 411 L276 416 L278 417 L285 416 L286 410 L283 408 L284 405 L287 405 L291 410 L289 418 L283 424 L275 427 L269 427 L264 425 L259 421 L256 416 L262 406 Z M279 399 L283 397 L287 397 L292 399 L295 402 L297 406 L297 415 L293 422 L291 421 L293 417 L293 407 L289 403 L281 403 L278 406 L278 410 L281 413 L280 415 L275 411 L274 406 L275 403 Z M237 397 L244 401 L256 415 L249 424 L242 427 L236 427 L230 425 L221 416 L221 409 L223 406 L226 409 L225 414 L228 417 L233 417 L239 412 L240 406 L239 402 L236 399 Z M228 397 L230 399 L230 402 L223 403 L219 406 L218 416 L216 417 L214 414 L215 404 L221 398 Z M170 407 L177 399 L187 396 L194 397 L203 401 L208 406 L214 422 L221 428 L230 431 L231 435 L230 436 L222 435 L209 428 L202 420 L197 409 L190 404 L180 404 L176 407 L174 410 L174 416 L177 421 L174 422 L170 418 L169 415 Z M151 377 L153 376 L156 380 L153 381 Z M226 373 L226 376 L224 378 L218 380 L208 380 L202 378 L203 376 L214 376 L223 372 Z M285 372 L287 371 L297 376 L308 376 L309 378 L304 380 L293 380 L288 378 Z M235 367 L237 368 L236 372 L237 383 L253 399 L255 403 L254 405 L232 388 L229 381 L229 377 L231 371 Z M275 366 L281 372 L282 383 L280 387 L273 394 L258 404 L257 402 L261 396 L267 392 L275 382 L276 375 L275 370 L273 368 Z M242 367 L244 368 L243 377 L245 377 L246 369 L247 368 L249 369 L248 371 L249 379 L251 379 L250 372 L254 365 L257 365 L261 370 L260 380 L262 380 L264 369 L266 370 L266 373 L268 373 L269 368 L272 370 L273 381 L271 385 L256 399 L243 388 L239 382 L238 374 Z M142 366 L144 365 L145 367 L143 368 Z M140 360 L145 359 L147 362 L141 363 Z M372 357 L373 359 L370 365 L366 364 L365 361 L369 357 Z M138 356 L140 355 L141 357 L139 358 Z M135 353 L137 352 L138 354 L136 355 Z M326 372 L325 373 L320 372 L296 373 L288 370 L281 363 L296 358 L308 358 L316 362 L317 361 L314 358 L306 355 L310 351 L315 351 L322 356 L325 363 Z M185 372 L186 364 L189 357 L194 352 L197 351 L202 352 L202 356 L196 360 L197 361 L203 358 L215 358 L230 363 L227 368 L216 373 L199 373 L198 372 L186 373 Z M375 351 L377 350 L378 352 L376 353 Z M226 349 L228 350 L229 353 L228 355 L225 355 L223 353 Z M133 350 L135 349 L136 351 L134 352 Z M378 346 L380 345 L381 347 L379 348 Z M324 342 L326 341 L327 343 L325 344 Z M183 341 L185 340 L186 342 L184 343 Z M313 340 L315 339 L316 341 L314 342 Z M356 337 L357 339 L351 345 L343 358 L336 364 L330 366 L326 355 L321 350 L333 344 L342 336 Z M155 337 L170 336 L177 343 L190 350 L186 354 L182 366 L174 363 L167 356 L158 342 L154 339 Z M302 315 L308 326 L307 340 L303 347 L294 354 L293 352 L297 347 L301 335 L301 331 L300 331 L299 334 L300 336 L298 338 L297 344 L288 353 L287 351 L284 350 L285 342 L281 329 L285 323 Z M209 314 L215 318 L222 320 L230 328 L227 338 L227 348 L225 349 L224 347 L222 347 L223 350 L222 352 L215 345 L212 335 L211 335 L211 339 L215 348 L217 349 L216 353 L207 345 L204 340 L203 328 Z M381 313 L383 314 L382 319 L380 318 Z M255 310 L276 329 L281 340 L281 347 L276 356 L274 355 L273 343 L271 343 L271 351 L269 351 L266 345 L264 345 L266 354 L260 361 L257 360 L257 351 L255 351 L254 361 L251 361 L246 355 L247 347 L256 338 L258 338 L257 333 L255 333 L244 347 L243 357 L239 352 L240 344 L237 346 L237 357 L233 354 L231 349 L231 337 L234 331 Z M350 296 L351 298 L348 319 L339 334 L328 342 L327 340 L334 333 L339 324 L344 301 L347 296 Z M374 295 L377 295 L379 300 L386 301 L383 304 L377 304 L381 307 L382 310 L381 312 L378 312 L370 304 L370 299 Z M236 295 L238 293 L241 293 L243 295 L243 298 L238 299 Z M349 292 L351 291 L352 294 L350 295 Z M307 290 L309 291 L316 302 L321 314 L321 330 L319 336 L316 339 L315 338 L316 334 L314 333 L314 336 L310 344 L308 343 L310 335 L309 324 L303 310 L299 314 L284 320 L279 326 L273 321 L275 315 L280 310 L298 300 Z M205 290 L212 299 L230 309 L237 316 L238 321 L232 326 L227 320 L214 315 L208 309 L207 315 L202 325 L202 338 L204 344 L202 345 L198 337 L197 330 L195 331 L196 337 L198 339 L197 341 L194 339 L190 329 L190 316 L195 303 L202 292 Z M352 283 L353 286 L350 287 L342 300 L338 320 L334 329 L323 340 L322 337 L325 330 L326 320 L320 300 L332 288 L344 283 Z M158 282 L168 283 L178 287 L185 292 L191 299 L192 302 L186 315 L186 329 L190 338 L189 340 L180 335 L183 339 L181 341 L170 331 L166 325 L162 313 L160 296 L161 292 L164 294 L168 302 L172 323 L176 331 L179 333 L173 319 L169 299 L165 292 L157 284 Z M192 280 L194 279 L195 281 L193 282 Z M317 278 L319 277 L320 279 L318 280 Z M191 276 L193 275 L194 278 L192 279 Z M190 256 L193 257 L192 265 L193 274 L192 275 L190 274 L189 270 L189 257 Z M318 248 L322 250 L323 265 L320 277 L318 276 L319 258 L317 251 Z M343 239 L344 241 L339 250 L339 261 L341 269 L340 280 L328 286 L320 296 L317 297 L316 296 L317 292 L319 291 L323 283 L326 273 L327 256 L325 244 L332 240 Z M167 238 L179 240 L186 244 L185 271 L188 282 L193 292 L195 293 L194 297 L182 285 L171 280 L171 266 L173 252 L170 244 L166 240 Z M310 227 L313 229 L320 243 L319 246 L315 245 L312 238 L307 232 Z M201 227 L204 230 L204 233 L197 241 L194 253 L190 254 L189 252 L192 241 L197 231 Z M305 216 L308 217 L308 226 L306 231 L304 230 L304 217 Z M204 216 L208 217 L206 229 L204 228 L203 224 Z M327 204 L329 203 L330 205 L328 206 Z M326 201 L327 204 L322 207 L321 204 Z M323 183 L328 182 L330 184 L330 187 L328 189 L324 189 Z M255 182 L261 190 L261 198 L265 197 L271 205 L271 216 L278 212 L287 221 L293 237 L291 247 L297 247 L302 260 L298 277 L285 293 L284 304 L270 317 L257 304 L243 317 L228 304 L229 295 L237 304 L261 297 L267 290 L267 281 L263 277 L255 278 L260 285 L257 292 L238 286 L226 293 L213 279 L209 267 L212 251 L221 247 L219 234 L224 222 L234 212 L240 215 L240 206 L247 197 L251 198 L250 191 Z M315 180 L317 179 L320 183 L317 184 Z M306 174 L309 174 L311 176 L308 181 L303 177 Z M320 178 L321 176 L325 176 L326 171 L330 173 L335 171 L337 173 L337 175 L330 180 L328 179 L322 180 Z M255 154 L290 193 L299 207 L303 220 L303 233 L310 239 L315 250 L316 274 L311 287 L305 282 L303 290 L292 300 L287 300 L290 291 L303 274 L304 255 L296 241 L292 223 L274 206 L258 179 L257 165 L255 165 L254 178 L237 207 L220 222 L216 241 L207 257 L209 277 L214 286 L224 295 L223 302 L209 291 L207 281 L202 286 L199 285 L195 272 L196 252 L202 238 L209 233 L209 217 L213 206 Z M204 209 L211 194 L214 192 L214 190 L217 188 L217 186 L239 164 L250 150 L254 142 L256 141 L271 162 L293 184 L293 186 L302 196 L308 213 L307 214 L303 213 L297 198 L295 197 L293 192 L264 160 L259 153 L257 147 L255 147 L252 154 L242 167 L217 194 L208 214 L204 213 Z M240 122 L241 121 L271 121 L272 124 L270 126 L242 126 Z M246 115 L247 114 L265 114 L266 117 L265 118 L247 118 Z M254 96 L257 95 L258 97 L255 98 Z"/></svg>
