<svg xmlns="http://www.w3.org/2000/svg" width="512" height="512" viewBox="0 0 512 512" aria-hidden="true" focusable="false"><path fill="currentColor" fill-rule="evenodd" clip-rule="evenodd" d="M281 454 L279 454 L278 462 L280 461 L282 457 Z M326 415 L324 416 L324 424 L322 425 L322 428 L320 429 L322 434 L318 437 L319 440 L322 442 L328 442 L332 438 L331 435 L329 434 L330 430 L328 429 L326 422 Z M283 403 L287 404 L287 402 L284 401 L285 399 L296 400 L296 398 L284 397 Z M274 381 L275 383 L279 384 L282 394 L293 394 L293 392 L285 392 L284 390 L288 388 L297 387 L297 385 L282 388 L281 387 L282 385 L293 381 L293 380 L286 381 L280 384 L279 382 L282 379 L287 377 L284 375 L280 376 L282 378 L281 380 Z M279 371 L277 371 L276 374 L278 374 Z M225 367 L226 373 L223 374 L219 372 L219 374 L227 377 L225 375 L227 373 L227 368 Z M325 367 L318 366 L311 371 L308 388 L303 399 L312 394 L314 396 L311 398 L310 402 L305 407 L305 409 L302 411 L299 418 L301 418 L304 413 L311 410 L315 410 L315 406 L320 398 L323 396 L324 397 L323 403 L318 414 L314 418 L314 420 L321 413 L327 399 L327 393 L330 392 L330 390 L327 389 L328 377 L324 376 Z M308 407 L313 406 L314 408 L309 409 Z M318 395 L319 397 L317 401 L315 402 L314 400 L316 396 Z M310 387 L312 386 L313 388 L311 389 Z M323 383 L325 384 L324 394 L322 393 Z M324 378 L326 379 L325 383 L323 382 Z M320 373 L322 374 L323 377 L322 380 L319 379 Z M317 372 L318 373 L318 384 L317 389 L314 391 L313 389 L315 381 L315 373 Z M267 366 L265 369 L267 373 L269 374 L271 368 Z M244 364 L242 364 L241 367 L242 371 L241 372 L237 371 L240 375 L242 371 L245 374 L248 369 Z M231 363 L230 364 L234 367 L234 365 Z M364 298 L362 298 L362 303 L357 318 L358 320 L361 320 L362 322 L357 328 L357 332 L355 333 L354 336 L354 344 L360 348 L367 347 L371 342 L370 339 L366 337 L369 331 L362 326 L364 321 L367 320 L366 316 L367 312 L364 305 Z M365 344 L367 343 L368 345 L366 346 Z M357 339 L359 340 L358 344 L356 343 Z M347 285 L351 282 L357 283 L360 279 L368 279 L369 276 L361 277 L359 273 L357 272 L352 273 L349 272 L348 273 L349 281 Z M333 257 L335 260 L334 263 L339 262 L335 257 Z M232 257 L232 263 L230 265 L226 276 L228 281 L228 287 L232 292 L235 291 L234 286 L239 284 L239 277 L236 265 L234 264 L234 257 Z M232 280 L234 279 L235 282 L233 283 Z M191 214 L192 218 L191 224 L195 227 L199 225 L201 227 L204 227 L203 217 L199 213 L196 215 Z M199 222 L201 221 L202 223 L200 224 Z M195 219 L197 218 L198 220 L196 221 Z M176 197 L174 198 L175 200 L177 200 Z M322 166 L327 174 L327 179 L322 181 L326 191 L333 194 L336 200 L340 196 L344 197 L345 195 L350 196 L353 200 L352 202 L347 202 L347 204 L354 212 L351 215 L354 224 L348 223 L343 214 L342 219 L344 230 L350 232 L352 235 L352 245 L357 257 L367 259 L368 261 L364 262 L364 264 L375 269 L386 269 L394 265 L397 261 L395 254 L397 249 L391 243 L396 240 L397 235 L394 231 L385 229 L388 225 L396 225 L396 222 L390 221 L395 216 L388 214 L393 211 L393 208 L388 207 L392 204 L388 195 L388 171 L386 172 L386 198 L383 200 L386 204 L382 206 L386 211 L380 214 L380 220 L378 222 L379 224 L385 224 L378 233 L379 239 L384 243 L378 249 L378 258 L382 262 L380 265 L373 262 L372 256 L368 258 L366 255 L365 247 L369 234 L369 220 L365 209 L360 204 L360 199 L356 199 L353 194 L349 195 L341 191 L337 187 L335 175 L326 167 Z M395 257 L395 260 L392 264 L389 265 L384 264 L385 262 L391 261 L393 256 Z M388 254 L390 253 L391 255 L389 256 Z M380 252 L382 253 L381 257 L379 256 Z M385 250 L388 249 L389 251 L386 252 Z M390 249 L392 248 L393 251 L391 252 Z M360 247 L362 246 L363 249 L361 250 Z M386 244 L389 243 L390 245 L387 246 Z M354 241 L357 240 L358 244 L355 245 Z M394 234 L395 236 L392 239 L391 236 Z M351 230 L353 229 L354 231 L352 232 Z M356 224 L359 223 L360 226 L357 227 Z M383 217 L385 216 L386 218 L384 219 Z M357 217 L359 216 L360 218 L358 219 Z M356 209 L358 208 L359 210 L357 211 Z M191 166 L179 173 L175 180 L175 191 L171 190 L159 196 L149 207 L143 225 L148 247 L145 258 L141 257 L138 263 L133 265 L124 265 L118 261 L120 259 L124 262 L129 262 L135 258 L135 249 L129 244 L135 237 L135 234 L130 230 L130 227 L135 223 L133 215 L126 214 L132 210 L127 207 L130 203 L127 195 L127 172 L125 171 L125 189 L123 194 L125 198 L122 200 L125 204 L121 205 L121 209 L124 211 L119 213 L119 219 L117 221 L118 224 L123 223 L124 225 L116 232 L117 240 L122 243 L117 248 L118 254 L116 256 L116 261 L120 266 L127 269 L138 269 L146 266 L155 258 L161 240 L157 238 L161 237 L162 232 L168 231 L171 219 L170 214 L165 223 L159 224 L162 216 L161 211 L167 204 L167 202 L161 202 L160 199 L166 195 L170 197 L176 194 L182 194 L188 189 L191 181 L186 183 L185 176 Z M119 250 L121 249 L122 251 L120 252 Z M127 248 L129 247 L130 249 L128 250 Z M124 244 L126 243 L127 245 L125 246 Z M153 235 L155 234 L156 236 L154 237 Z M119 233 L121 234 L120 238 L118 237 Z M127 233 L129 232 L130 234 L128 235 Z M159 230 L161 229 L162 232 L160 233 Z M122 228 L124 227 L125 230 L123 231 Z M162 226 L166 225 L167 228 L164 229 Z M153 226 L155 225 L156 227 L154 228 Z M123 218 L125 217 L128 219 L131 219 L132 221 L127 223 L124 221 Z M153 217 L155 216 L156 218 L154 219 Z M153 209 L156 208 L157 210 L154 211 Z M179 182 L182 181 L183 183 L180 184 Z M364 109 L363 128 L361 130 L363 134 L359 136 L360 140 L358 141 L357 148 L355 150 L355 152 L357 153 L362 152 L363 154 L359 157 L358 160 L355 161 L355 166 L361 172 L356 177 L357 181 L356 191 L362 196 L363 199 L367 199 L367 194 L366 193 L361 194 L360 192 L362 190 L365 190 L368 186 L370 187 L370 190 L374 189 L373 188 L374 186 L372 184 L374 177 L368 173 L370 169 L373 168 L373 163 L366 159 L367 156 L372 156 L374 153 L371 151 L366 152 L364 150 L365 148 L372 147 L370 144 L365 143 L366 141 L370 141 L371 139 L368 136 L369 133 L365 131 L367 127 L366 126 L366 110 Z M370 176 L371 177 L370 182 L368 183 L367 178 Z M361 176 L364 178 L363 181 L359 180 Z M364 173 L366 172 L367 174 L365 175 Z M362 164 L364 163 L365 165 L363 166 Z M366 161 L371 164 L370 169 L368 168 L368 165 L365 163 Z M358 161 L360 162 L361 166 L360 168 L357 166 Z M359 146 L363 145 L364 147 L360 148 Z M148 108 L147 109 L147 128 L145 129 L147 134 L143 136 L144 140 L141 143 L143 145 L147 145 L148 147 L146 149 L142 148 L139 150 L141 153 L145 152 L147 153 L143 158 L140 159 L139 163 L140 169 L142 169 L145 172 L140 178 L140 181 L142 184 L140 185 L139 189 L146 196 L147 200 L150 199 L150 193 L148 192 L150 188 L152 187 L155 190 L158 188 L157 185 L158 177 L157 175 L152 173 L156 169 L157 164 L155 164 L154 161 L149 159 L150 155 L155 156 L157 155 L157 152 L149 151 L150 148 L155 148 L156 145 L148 143 L149 141 L154 141 L154 139 L151 136 L152 132 L149 131 L151 127 L149 126 L149 109 Z M145 191 L147 190 L148 193 L146 194 Z M142 186 L144 185 L146 188 L143 189 Z M144 177 L147 178 L146 182 L142 180 Z M154 176 L155 178 L153 180 L153 183 L148 185 L147 181 L150 180 L152 176 Z M147 173 L149 172 L150 174 L148 175 Z M151 162 L155 164 L155 167 L152 170 L150 169 Z M142 161 L144 162 L145 167 L144 169 L141 167 Z M256 16 L256 53 L250 65 L257 69 L249 71 L253 76 L245 86 L246 91 L254 90 L255 94 L233 117 L226 133 L219 131 L222 124 L216 114 L208 163 L200 158 L198 149 L196 159 L201 180 L206 183 L197 190 L211 192 L237 176 L223 174 L222 167 L235 159 L236 143 L243 140 L242 132 L252 120 L256 133 L247 148 L247 164 L256 165 L252 183 L229 206 L180 202 L184 251 L162 273 L144 276 L162 282 L184 304 L184 342 L175 354 L172 345 L167 345 L167 333 L167 364 L163 366 L154 356 L159 341 L154 337 L157 330 L150 327 L155 319 L151 297 L144 347 L136 346 L134 335 L128 341 L129 329 L136 330 L140 318 L132 299 L122 297 L125 289 L116 271 L113 302 L118 313 L114 314 L111 335 L115 355 L126 365 L118 369 L133 387 L150 386 L140 399 L123 388 L127 400 L133 403 L139 433 L155 448 L185 457 L177 463 L156 458 L174 469 L185 470 L185 474 L204 477 L202 483 L220 484 L219 489 L244 484 L257 497 L268 484 L294 489 L293 484 L311 483 L309 477 L327 474 L320 469 L321 464 L332 471 L357 458 L351 456 L335 463 L327 457 L356 449 L363 444 L364 435 L370 437 L374 432 L379 403 L386 399 L390 388 L374 399 L363 399 L363 386 L372 383 L379 387 L395 369 L385 367 L398 354 L402 332 L398 314 L396 324 L392 322 L399 304 L398 269 L387 291 L391 296 L382 297 L371 316 L374 328 L384 330 L385 339 L382 342 L379 335 L375 348 L359 353 L346 373 L343 387 L341 372 L348 358 L346 334 L335 352 L329 342 L329 304 L345 286 L333 295 L329 284 L343 280 L345 267 L341 273 L326 277 L327 302 L315 314 L322 267 L305 234 L327 252 L329 272 L329 213 L335 205 L332 199 L323 206 L284 206 L261 183 L257 165 L266 162 L253 162 L266 155 L266 150 L258 146 L262 143 L257 135 L259 117 L270 130 L270 140 L277 143 L278 159 L290 165 L289 174 L276 176 L299 191 L316 190 L307 184 L315 172 L316 149 L306 163 L297 114 L291 124 L293 130 L287 133 L280 117 L258 94 L258 88 L267 90 L269 86 L257 82 L266 77 L261 74 L264 68 L257 66 L262 59 L258 57 L261 51 L257 49 Z M224 484 L226 483 L227 485 L225 486 Z M246 482 L249 481 L250 484 L248 485 Z M295 479 L297 478 L298 481 L296 482 Z M288 479 L289 476 L292 477 L290 480 Z M302 473 L303 476 L299 478 L298 475 Z M269 474 L274 471 L275 472 L274 475 L277 476 L277 474 L281 472 L285 477 L280 483 L276 482 L276 484 L274 485 L270 481 L271 477 L269 476 Z M251 472 L257 471 L259 473 L259 478 L266 481 L266 484 L260 489 L256 487 L256 489 L254 490 L250 487 L254 483 L254 480 L251 482 L249 479 Z M228 476 L229 475 L232 476 L235 471 L239 471 L240 473 L244 474 L244 476 L242 477 L243 481 L241 484 L239 483 L239 481 L230 483 L229 482 L230 478 Z M313 471 L315 470 L316 473 L314 474 Z M209 475 L215 469 L218 469 L220 473 L223 472 L227 473 L224 480 L221 478 L218 480 L216 477 L210 478 Z M207 470 L209 469 L210 471 L208 472 Z M295 468 L296 474 L289 475 L288 473 Z M196 469 L198 468 L199 470 L197 471 Z M200 467 L203 466 L205 469 L201 470 Z M188 466 L191 465 L193 469 L192 470 L189 469 Z M261 464 L264 463 L265 466 L262 467 Z M248 464 L250 463 L252 467 L250 468 Z M207 463 L210 462 L212 465 L208 466 Z M285 457 L287 456 L288 459 L286 460 Z M316 458 L317 456 L320 455 L323 456 L322 458 L319 459 Z M190 456 L193 455 L196 458 L193 459 Z M244 455 L246 454 L247 456 L245 457 Z M312 452 L313 453 L312 461 L308 464 L305 463 L303 460 L305 453 Z M197 452 L202 452 L204 450 L208 453 L209 459 L203 463 L201 461 L202 459 L201 455 L198 457 L196 454 Z M176 451 L178 450 L179 452 L177 453 Z M314 448 L317 449 L316 454 L314 453 L313 450 Z M236 448 L242 455 L242 462 L239 464 L235 463 L236 466 L231 467 L229 465 L230 461 L228 457 L230 456 L233 459 L234 455 L229 456 L228 453 Z M193 449 L196 448 L197 451 L195 452 Z M165 446 L168 445 L169 447 L166 448 Z M345 445 L347 444 L348 447 L346 448 Z M261 444 L263 447 L260 450 L258 450 L257 448 Z M240 445 L244 444 L245 448 L242 450 L240 448 Z M287 443 L289 448 L288 449 L285 448 L285 457 L283 460 L284 464 L281 467 L276 467 L274 464 L274 461 L271 460 L271 457 L274 456 L273 451 L277 447 Z M253 443 L255 444 L255 449 L257 449 L260 453 L264 449 L267 451 L267 454 L264 455 L264 457 L260 459 L261 464 L259 465 L257 469 L254 467 L253 458 L251 457 L251 460 L250 461 L248 460 L249 454 L253 452 L249 450 L248 448 Z M225 443 L229 444 L228 450 L224 448 Z M339 443 L341 442 L342 444 L340 445 Z M299 442 L300 447 L302 447 L303 449 L299 450 L298 453 L295 453 L293 458 L296 460 L296 463 L293 466 L288 466 L287 464 L289 461 L291 450 L295 448 L294 444 Z M214 442 L216 442 L223 449 L221 451 L223 456 L223 460 L221 461 L222 464 L221 466 L215 462 L216 459 L219 458 L218 453 L215 453 L213 451 L212 445 Z M272 440 L273 447 L269 448 L266 443 Z M239 441 L241 440 L242 443 L240 444 Z M356 440 L358 439 L359 442 L357 443 Z M302 440 L304 439 L305 441 L303 442 Z M255 440 L257 439 L258 441 L256 442 Z M207 440 L209 439 L212 442 L209 443 Z M168 440 L170 439 L171 441 L169 442 Z M162 438 L163 440 L160 443 L158 440 Z M145 436 L148 435 L149 437 L146 438 Z M263 434 L267 436 L268 440 L266 443 L262 442 L263 438 L261 436 Z M243 435 L250 434 L252 436 L252 441 L248 443 L243 439 Z M340 431 L342 430 L343 432 L341 433 Z M251 429 L256 433 L255 437 L250 431 Z M145 430 L147 429 L148 431 L146 432 Z M348 428 L349 431 L346 434 L345 430 Z M170 428 L172 429 L171 434 L169 433 Z M142 429 L144 428 L145 430 L143 431 Z M246 428 L248 427 L249 429 L247 430 Z M163 428 L165 427 L166 429 L164 430 Z M253 426 L255 425 L258 426 L259 428 L256 430 Z M338 424 L340 423 L341 425 L339 426 Z M357 422 L358 423 L357 428 L354 434 L352 435 L351 434 L352 424 L354 422 Z M259 422 L262 421 L264 425 L261 426 Z M360 421 L362 420 L363 422 L361 423 Z M164 420 L167 421 L165 425 L163 424 Z M374 420 L376 419 L377 421 L375 422 Z M340 420 L342 419 L343 421 L341 422 Z M255 420 L257 419 L258 421 L256 422 Z M244 421 L248 419 L251 421 L251 424 L248 425 Z M267 419 L269 418 L270 421 L268 422 Z M343 418 L345 417 L346 419 L344 420 Z M167 415 L169 416 L168 420 L166 419 Z M140 415 L143 414 L144 417 L141 418 Z M366 413 L368 412 L369 414 L367 415 Z M143 413 L145 412 L146 414 L144 415 Z M369 410 L371 409 L372 411 L370 412 Z M267 410 L269 409 L270 411 L268 412 Z M140 410 L142 409 L143 411 L141 412 Z M365 407 L367 406 L368 409 L366 410 Z M199 407 L204 406 L205 408 L200 409 Z M144 407 L146 406 L148 410 L146 411 Z M366 403 L368 402 L369 404 L367 405 Z M258 402 L261 405 L260 411 L257 409 Z M254 401 L256 402 L255 408 L252 407 L252 404 Z M244 401 L246 402 L245 406 L243 405 Z M134 400 L136 399 L137 401 L135 402 Z M378 398 L379 401 L376 403 L375 400 Z M158 399 L160 398 L161 400 L159 401 Z M130 398 L132 397 L133 399 L131 400 Z M356 397 L358 396 L359 398 L357 399 Z M195 396 L200 402 L199 404 L194 398 Z M146 396 L148 395 L150 399 L148 400 Z M265 394 L267 395 L268 398 L267 401 L264 400 Z M352 390 L354 389 L355 392 L353 393 Z M250 389 L253 392 L252 395 L249 394 Z M223 390 L229 389 L230 391 L224 392 Z M196 389 L198 388 L199 390 L197 391 Z M200 388 L202 387 L203 390 L201 391 Z M254 386 L258 384 L260 385 L259 388 L255 388 Z M199 384 L201 383 L202 385 L200 386 Z M168 383 L170 384 L169 387 L171 389 L170 391 L166 389 Z M159 384 L161 383 L162 385 L160 386 Z M350 383 L352 382 L353 384 L351 385 Z M361 382 L363 381 L364 383 L362 384 Z M148 382 L150 381 L151 383 L149 384 Z M196 380 L198 381 L197 388 L195 387 Z M188 380 L190 381 L189 385 L187 384 Z M162 380 L165 379 L166 382 L163 383 Z M144 379 L147 378 L148 380 L145 381 Z M377 378 L380 377 L381 380 L379 381 Z M365 380 L366 378 L369 377 L376 378 L375 380 L368 381 Z M351 377 L353 376 L354 378 L352 379 Z M159 377 L161 376 L162 379 L160 380 Z M138 377 L140 376 L142 379 L139 380 Z M194 376 L197 375 L198 377 L195 378 Z M258 374 L261 375 L276 399 L277 411 L276 415 L273 418 L270 416 L273 407 L272 401 L268 393 L257 378 Z M134 374 L136 373 L138 376 L136 377 Z M191 371 L193 372 L192 379 L190 378 Z M143 370 L145 369 L148 372 L144 374 Z M377 369 L379 368 L382 371 L382 373 L377 375 L376 374 Z M257 368 L258 371 L256 373 L256 377 L249 387 L249 389 L243 396 L240 403 L240 410 L244 417 L244 420 L242 421 L236 413 L237 398 L251 377 L254 370 Z M132 368 L134 367 L136 370 L133 371 Z M168 366 L171 369 L172 374 L171 381 L167 380 L167 375 L164 369 L165 367 Z M367 364 L368 367 L364 370 L363 367 Z M146 364 L150 367 L149 371 L147 370 L145 366 Z M342 360 L344 359 L345 361 L343 362 Z M344 354 L346 353 L347 356 L345 357 Z M125 353 L127 354 L126 358 L124 357 Z M380 349 L382 348 L383 351 L381 352 Z M144 351 L147 350 L148 348 L152 349 L152 352 L150 354 L145 353 Z M395 347 L396 351 L393 353 L392 351 L393 348 Z M391 346 L393 345 L394 347 L392 348 Z M118 346 L121 345 L123 348 L121 349 Z M154 342 L156 341 L157 343 L155 344 Z M255 340 L257 339 L258 341 L256 342 Z M124 338 L126 339 L126 342 L128 344 L127 347 L125 346 L123 342 Z M396 337 L398 336 L399 338 L397 339 Z M193 337 L195 336 L196 339 L194 340 Z M198 336 L201 335 L202 337 L199 338 Z M389 332 L390 341 L388 346 L386 347 L385 343 L387 340 L387 333 Z M396 330 L398 329 L399 332 L397 333 Z M260 341 L272 341 L297 329 L283 347 L262 348 L279 348 L274 357 L285 348 L322 348 L326 353 L341 358 L333 364 L335 383 L340 391 L347 389 L343 395 L351 398 L355 407 L352 410 L358 419 L345 424 L348 419 L345 404 L341 416 L336 416 L339 404 L333 391 L330 405 L336 419 L333 430 L340 435 L334 445 L307 448 L311 437 L300 436 L310 423 L298 434 L296 441 L284 438 L285 418 L298 404 L289 406 L283 418 L279 444 L273 436 L276 429 L259 433 L276 419 L280 408 L275 391 L257 363 L258 359 L262 359 L262 351 L257 347 Z M114 330 L116 329 L119 334 L115 335 Z M128 326 L129 328 L124 334 L123 330 L126 326 Z M388 323 L390 322 L391 324 L389 325 Z M379 323 L383 322 L387 324 L389 329 L386 330 Z M214 323 L218 322 L223 324 L233 324 L237 322 L241 331 L249 339 L248 340 L242 339 L228 334 L218 328 Z M129 323 L133 322 L134 324 L130 325 Z M301 325 L302 322 L304 321 L307 322 L303 326 Z M253 321 L261 322 L261 326 L257 330 L251 324 Z M135 322 L138 321 L139 324 L137 325 Z M375 320 L377 321 L376 326 L374 325 Z M257 334 L262 329 L265 320 L269 319 L273 320 L270 330 L273 329 L276 322 L280 324 L290 324 L294 322 L299 323 L296 327 L290 331 L271 339 L266 340 L262 339 L268 334 L268 332 L260 338 L258 337 Z M241 319 L249 321 L249 325 L251 329 L255 332 L254 338 L251 337 L242 328 L240 324 Z M386 319 L388 318 L389 320 L387 321 Z M247 317 L251 316 L252 318 L248 319 Z M243 316 L245 315 L246 317 L244 318 Z M313 314 L314 316 L307 322 L306 320 L311 314 Z M278 316 L281 314 L285 314 L287 316 L293 316 L294 320 L289 322 L282 322 L279 320 Z M269 315 L271 314 L272 316 L270 317 Z M237 318 L236 320 L231 322 L224 322 L219 320 L220 316 L226 316 L229 314 L232 314 Z M118 314 L120 315 L121 318 L120 321 L117 319 Z M133 314 L136 313 L137 317 L135 318 Z M380 308 L382 313 L379 314 L379 318 L377 319 L376 318 L377 309 Z M326 308 L327 309 L327 343 L323 347 L289 347 L288 346 L289 342 L292 341 L306 327 L308 328 L309 332 L308 338 L312 342 L315 342 L318 340 L320 342 L322 341 L321 338 L322 332 L317 328 L312 329 L308 328 L307 326 Z M187 308 L206 326 L191 330 L191 342 L204 339 L205 330 L222 341 L215 331 L217 329 L234 339 L253 341 L256 346 L251 353 L251 359 L256 360 L234 400 L222 395 L235 390 L231 382 L239 379 L237 376 L225 381 L231 388 L217 385 L216 393 L221 395 L218 400 L229 400 L222 407 L209 398 L200 369 L188 367 L188 376 L184 377 L187 403 L202 425 L191 407 L189 389 L198 410 L207 412 L212 418 L212 413 L202 401 L205 396 L221 410 L226 404 L233 405 L236 418 L244 426 L237 430 L240 436 L235 443 L231 439 L230 419 L225 412 L229 423 L228 439 L216 441 L215 434 L207 428 L212 437 L201 437 L206 442 L206 448 L177 444 L173 439 L175 434 L180 435 L184 442 L194 439 L187 415 L184 434 L179 434 L176 420 L182 408 L179 392 L175 404 L177 414 L173 416 L170 413 L171 406 L168 404 L164 410 L165 419 L159 421 L162 431 L157 432 L154 419 L161 410 L158 407 L178 381 L179 364 L173 361 L178 353 L187 353 L191 348 L251 348 L230 347 L227 344 L225 347 L190 347 L186 343 Z M130 309 L132 308 L133 310 L131 311 Z M219 307 L222 306 L227 311 L227 313 L220 314 Z M292 305 L294 307 L293 313 L286 314 L285 312 Z M390 306 L391 303 L395 304 L393 307 Z M239 302 L241 301 L246 303 L247 305 L243 306 Z M275 301 L270 306 L263 306 L261 304 L262 301 L265 301 L266 303 L270 303 L273 300 Z M266 298 L268 297 L269 299 L267 300 Z M250 297 L253 298 L254 301 L253 304 L250 303 L249 300 Z M214 297 L216 297 L219 301 L219 304 L217 306 L216 315 L217 318 L216 319 L213 318 L211 312 L211 301 Z M297 296 L302 301 L302 310 L299 319 L296 318 L297 316 L296 307 L293 303 Z M265 292 L270 291 L274 294 L275 297 L273 298 L269 294 L266 295 Z M244 291 L245 293 L239 297 L238 295 Z M195 285 L197 285 L200 289 L202 289 L205 294 L210 296 L208 303 L208 308 L210 313 L209 318 L204 314 L196 300 L194 291 Z M319 282 L320 285 L316 302 L311 311 L304 318 L303 317 L304 300 L302 296 L309 293 Z M199 280 L202 279 L206 283 L210 285 L212 284 L214 292 L209 293 L203 290 L199 285 Z M317 279 L316 282 L309 290 L303 293 L299 292 L301 284 L306 284 L310 279 L314 278 Z M261 277 L265 282 L265 287 L260 297 L256 300 L251 294 L251 292 L260 287 L257 278 Z M255 277 L256 280 L253 283 L253 288 L250 290 L248 288 L248 281 L252 277 Z M194 277 L196 276 L199 277 L200 279 L196 280 Z M306 274 L308 278 L305 282 L302 282 L301 276 Z M210 272 L212 273 L212 281 L208 282 L204 279 L203 276 Z M299 262 L303 261 L307 263 L315 272 L314 275 L310 276 L309 273 L304 270 L301 270 Z M213 261 L214 264 L212 270 L207 271 L204 273 L203 276 L199 276 L197 274 L203 265 L210 261 Z M213 244 L217 245 L216 252 L218 256 L216 259 L211 254 L211 246 Z M291 242 L293 243 L292 250 L288 247 L288 245 Z M196 242 L199 243 L200 245 L197 249 L192 262 L191 276 L187 277 L183 276 L182 273 L172 273 L170 275 L171 276 L170 280 L172 282 L180 282 L183 279 L187 278 L191 280 L191 288 L195 302 L202 315 L206 319 L205 321 L186 302 L186 283 L184 283 L183 292 L184 297 L182 298 L164 281 L164 274 L182 256 L184 257 L183 269 L184 272 L186 272 L186 254 L190 252 L189 249 Z M305 241 L308 241 L316 253 L319 264 L318 270 L316 270 L308 261 L302 258 L304 254 L304 242 Z M226 241 L228 244 L224 246 L223 249 L221 250 L219 248 L220 243 L223 241 Z M264 240 L276 245 L286 254 L291 254 L289 259 L293 266 L295 279 L292 292 L288 298 L291 300 L291 302 L284 309 L280 307 L268 314 L259 315 L264 316 L265 318 L256 320 L256 316 L245 314 L244 309 L251 307 L255 308 L258 306 L268 309 L272 308 L278 301 L276 292 L281 292 L282 286 L286 285 L287 282 L284 276 L284 268 L281 263 L281 256 L279 256 L279 263 L276 267 L274 276 L274 286 L276 289 L273 291 L267 288 L267 281 L262 275 L265 268 L261 263 L257 250 L257 241 Z M255 240 L256 252 L254 255 L256 257 L252 258 L252 261 L249 264 L249 271 L252 275 L246 281 L246 288 L239 291 L235 297 L235 302 L239 306 L240 310 L238 311 L233 307 L229 309 L221 301 L224 297 L218 280 L219 269 L224 258 L222 253 L232 244 L236 246 L249 240 Z M298 239 L300 240 L302 246 L302 254 L299 258 L295 256 L297 251 L295 243 Z M209 239 L210 242 L208 250 L211 258 L205 261 L194 273 L193 268 L197 253 L202 244 L207 239 Z M220 235 L221 239 L220 240 L217 239 L217 241 L214 242 L213 241 L214 238 Z M302 232 L304 233 L303 238 L301 237 Z M276 236 L282 232 L286 232 L290 236 L295 235 L296 238 L293 240 L286 239 L284 241 L281 241 Z M223 234 L230 232 L233 233 L236 236 L236 238 L232 241 L229 241 L225 238 Z M207 232 L208 234 L201 241 L200 238 Z M252 229 L254 227 L259 227 L261 229 L261 232 L254 233 Z M312 221 L314 220 L315 222 L313 223 Z M254 217 L255 223 L250 228 L249 233 L241 236 L240 230 L243 225 Z M244 218 L245 222 L241 224 L238 230 L235 231 L225 230 L220 232 L216 230 L224 223 L240 217 Z M258 216 L260 216 L273 230 L272 236 L264 233 L263 228 L257 222 Z M263 216 L265 215 L284 221 L293 226 L297 230 L297 232 L295 233 L288 230 L282 230 L276 232 L273 226 Z M247 216 L249 215 L250 218 L248 219 Z M288 209 L289 208 L323 208 L327 212 L327 246 L325 247 L321 245 L320 242 L307 229 L308 227 L312 227 L313 224 L316 227 L321 224 L323 220 L322 214 L318 215 L313 214 L313 216 L309 218 L310 223 L308 227 L306 228 Z M267 209 L268 208 L283 208 L303 229 L301 230 L289 221 L279 216 L268 214 Z M224 208 L225 210 L187 247 L186 246 L186 212 L190 208 Z M255 194 L257 193 L258 196 L256 197 Z M255 190 L255 193 L251 195 L251 201 L255 203 L256 208 L253 214 L246 213 L234 216 L219 224 L212 230 L210 229 L228 210 L231 211 L232 208 L251 208 L250 206 L235 206 L234 204 L250 188 Z M253 185 L259 184 L279 205 L278 206 L263 206 L262 207 L263 210 L258 211 L257 210 L258 203 L262 200 L262 194 L259 193 L258 190 L253 187 Z M299 181 L301 180 L302 182 L300 183 Z M294 180 L296 179 L297 181 L295 182 Z M211 182 L212 179 L218 180 L217 182 L213 183 Z M305 167 L307 166 L308 169 L306 170 Z M294 166 L296 167 L295 171 L293 170 Z M213 167 L216 166 L217 169 L214 170 Z M292 160 L294 159 L295 161 L293 162 Z M209 160 L211 159 L212 161 L210 162 Z M295 158 L297 157 L298 159 L296 160 Z M215 158 L217 157 L218 159 L216 160 Z M253 156 L255 155 L256 157 L254 158 Z M231 155 L232 158 L228 160 L227 158 Z M291 155 L293 154 L294 156 L292 157 Z M211 154 L213 153 L214 156 L212 157 Z M293 153 L295 152 L296 154 L294 155 Z M297 151 L299 150 L300 152 L298 153 Z M254 151 L256 150 L257 152 L255 153 Z M261 149 L264 151 L263 156 L260 155 Z M284 149 L286 148 L288 152 L286 153 Z M228 148 L229 150 L226 153 L225 151 Z M255 145 L256 147 L253 149 L253 153 L250 154 L249 149 L253 145 Z M278 138 L280 137 L281 140 L279 141 Z M232 139 L233 136 L236 137 L234 140 Z M227 136 L229 137 L228 142 L226 141 Z M295 136 L297 135 L298 138 L296 139 Z M283 136 L286 135 L287 139 L285 140 Z M214 134 L216 133 L217 136 L215 137 Z M228 131 L230 130 L231 132 L229 133 Z M270 124 L272 123 L273 125 L271 126 Z M253 118 L255 117 L256 119 L254 120 Z M264 117 L267 116 L268 119 L266 120 Z M245 119 L246 116 L249 117 L247 120 Z M242 109 L244 108 L245 111 L243 112 Z M254 108 L257 106 L259 109 L255 110 Z M264 104 L266 105 L265 112 L261 109 Z M248 104 L251 106 L251 109 L249 112 L247 111 Z M251 101 L253 100 L254 102 L252 103 Z M256 94 L259 97 L258 102 L256 102 L254 98 Z M254 85 L256 84 L257 86 L255 87 Z"/></svg>
