<svg xmlns="http://www.w3.org/2000/svg" width="512" height="512" viewBox="0 0 512 512" aria-hidden="true" focusable="false"><path fill="currentColor" fill-rule="evenodd" clip-rule="evenodd" d="M115 414 L118 421 L119 419 L117 414 Z M385 402 L385 404 L391 404 L390 402 Z M381 389 L381 391 L391 390 L397 392 L397 390 L392 388 Z M387 363 L382 373 L370 383 L371 388 L374 382 L380 382 L379 378 L383 373 L393 374 L401 386 L405 385 L411 403 L419 406 L421 417 L425 418 L425 442 L420 443 L417 436 L399 430 L407 415 L403 396 L399 393 L401 400 L398 406 L386 410 L380 405 L379 410 L380 413 L395 413 L395 409 L399 408 L399 425 L382 424 L393 419 L381 421 L377 425 L377 402 L374 395 L369 415 L378 433 L355 444 L355 405 L366 402 L366 387 L349 412 L349 477 L358 486 L419 486 L427 476 L426 408 L416 398 L412 388 Z M419 480 L421 479 L422 481 L420 482 Z M412 476 L410 480 L405 479 L406 477 L409 477 L410 475 Z M386 476 L388 475 L389 477 L387 478 Z M407 473 L409 472 L410 474 L408 475 Z M400 471 L402 472 L403 475 L402 477 L399 476 Z M366 471 L370 473 L368 475 L369 478 L368 480 L364 478 Z M373 471 L379 470 L381 472 L380 477 L375 479 Z M389 465 L390 469 L384 472 L383 470 Z M392 447 L391 454 L387 456 L387 458 L389 458 L390 460 L387 461 L381 469 L372 467 L368 469 L367 468 L368 466 L364 464 L369 458 L381 451 L385 447 L388 446 Z M419 442 L421 447 L425 449 L425 473 L421 475 L419 480 L415 481 L414 479 L417 477 L417 466 L420 458 L420 455 L417 454 L418 450 L416 449 L416 443 Z M414 437 L415 441 L412 452 L408 453 L405 467 L404 468 L394 468 L391 462 L394 454 L398 455 L401 445 L402 435 L404 434 Z M390 435 L391 437 L388 444 L384 446 L380 444 L382 448 L364 460 L362 459 L362 456 L361 456 L361 467 L359 468 L359 474 L362 480 L360 481 L356 479 L354 474 L354 449 L356 444 L367 440 L368 443 L376 445 L377 443 L370 442 L369 440 L381 434 L383 435 L384 439 L386 439 L387 435 Z M393 434 L395 433 L396 435 L394 436 Z M379 428 L384 427 L386 430 L389 430 L391 427 L396 427 L397 429 L391 433 L385 433 L381 431 Z M264 361 L247 388 L244 400 L239 399 L240 405 L228 418 L223 434 L224 447 L236 464 L236 473 L245 477 L250 469 L256 467 L258 471 L253 473 L251 481 L263 486 L267 480 L266 489 L274 481 L279 481 L277 473 L272 471 L274 467 L286 477 L295 472 L294 463 L300 459 L306 446 L307 431 L302 418 L290 405 L288 394 L283 393 L283 388 Z M239 472 L242 471 L244 474 L242 475 Z M242 466 L245 465 L246 467 L243 468 Z M290 464 L291 473 L286 475 L285 473 L287 472 L287 469 L285 466 Z M246 465 L251 464 L252 466 L247 467 Z M278 465 L283 463 L285 466 L279 467 Z M258 463 L260 462 L261 464 L259 465 Z M265 461 L267 462 L266 465 L263 464 Z M292 454 L294 460 L290 462 L289 461 L290 455 Z M238 454 L241 455 L240 462 L237 461 Z M244 453 L248 456 L247 461 L244 460 L243 456 Z M227 448 L230 446 L234 448 L237 445 L239 445 L244 453 L241 454 L240 452 L236 450 L236 454 L233 455 L230 453 L230 451 Z M247 441 L251 443 L250 445 L250 450 L252 451 L251 454 L246 450 L245 447 Z M291 440 L293 439 L294 442 L292 443 Z M264 439 L267 440 L269 442 L269 445 L272 445 L274 449 L273 455 L271 455 L269 450 L267 450 L268 457 L266 459 L261 457 L262 451 L260 451 L259 454 L255 452 L256 448 L258 446 L261 446 L261 443 Z M273 436 L277 439 L275 444 L273 443 L273 441 L270 440 Z M257 436 L260 440 L254 445 L253 440 L254 437 Z M304 436 L304 441 L301 445 L301 450 L299 451 L298 454 L294 455 L293 452 L291 451 L286 455 L282 456 L279 453 L280 446 L278 445 L278 443 L280 441 L284 442 L283 451 L285 452 L291 444 L297 445 L300 442 L299 439 L300 436 L302 435 Z M230 434 L231 439 L230 444 L228 445 L226 443 L225 436 Z M302 428 L303 430 L300 433 L299 431 Z M226 429 L229 428 L230 430 L227 431 Z M272 426 L276 430 L275 433 L273 432 L271 428 Z M258 426 L259 429 L255 432 L254 429 Z M289 426 L290 425 L294 426 L296 431 L294 432 Z M238 425 L240 426 L239 433 L234 431 L234 429 Z M259 430 L260 429 L263 430 L263 425 L265 424 L267 426 L267 429 L270 430 L271 433 L260 435 Z M258 425 L260 424 L261 426 L259 427 Z M260 423 L262 422 L263 424 L261 425 Z M285 421 L288 422 L288 427 L286 430 L284 430 L282 427 Z M275 420 L277 421 L280 428 L285 433 L289 434 L290 443 L288 446 L286 445 L285 437 L282 437 L281 439 L279 439 L275 434 L276 432 L278 432 L276 426 L273 423 Z M241 421 L242 420 L245 421 L247 426 L243 427 L242 426 L243 423 Z M258 419 L259 421 L251 431 L251 434 L253 434 L254 436 L244 437 L244 443 L242 444 L240 441 L241 434 L246 432 L249 429 L249 427 Z M254 414 L258 413 L259 415 L255 416 Z M242 409 L244 411 L244 415 L240 416 L238 418 L239 422 L235 424 L232 428 L230 428 L229 424 L233 422 L233 416 L236 415 L237 412 L240 412 L240 410 Z M276 408 L277 410 L275 415 L272 416 L271 412 Z M252 411 L253 408 L256 409 L254 412 Z M246 407 L248 407 L252 411 L252 418 L248 422 L244 419 L247 413 L245 409 Z M282 407 L284 408 L283 415 L285 415 L285 411 L287 410 L288 406 L297 415 L298 418 L297 424 L299 423 L301 424 L300 428 L297 428 L294 423 L291 422 L290 416 L287 416 L282 421 L279 420 L277 414 Z M264 409 L265 406 L268 407 L266 410 Z M259 402 L261 401 L262 403 L260 404 Z M246 401 L248 400 L250 404 L248 405 Z M272 399 L275 398 L276 400 L273 401 Z M255 399 L257 398 L258 401 L256 402 Z M261 397 L264 394 L266 394 L269 397 L269 400 L267 401 L265 399 L262 401 Z M278 392 L281 393 L280 398 L277 395 Z M267 389 L269 388 L272 391 L272 393 L269 394 Z M259 390 L261 388 L264 389 L263 392 L260 392 Z M256 386 L257 390 L253 392 L253 397 L251 398 L249 396 L251 387 Z M273 387 L278 385 L279 389 L274 390 Z M263 384 L266 383 L267 387 L264 388 Z M267 379 L273 378 L274 382 L269 383 Z M262 378 L263 379 L262 382 L259 385 L256 384 L257 379 Z M265 366 L267 367 L267 371 L269 372 L268 378 L261 375 L261 373 L264 372 Z M128 354 L90 406 L85 490 L173 491 L173 478 L168 478 L171 474 L170 409 L159 389 L146 379 Z M152 487 L154 486 L155 488 L153 489 Z M154 483 L157 482 L158 484 L155 485 Z M145 483 L148 482 L149 484 L146 485 Z M128 483 L138 482 L141 485 L140 486 L136 485 L135 488 L132 489 L131 486 L128 485 Z M108 483 L114 482 L115 484 L109 485 Z M100 483 L104 481 L106 482 L105 485 L101 485 Z M142 475 L142 477 L139 479 L133 478 L134 476 L138 474 Z M129 474 L132 476 L130 480 L128 479 Z M117 475 L121 474 L123 478 L122 479 L118 478 Z M112 475 L114 474 L115 477 L113 478 Z M150 473 L151 477 L145 479 L144 475 Z M161 473 L157 477 L152 476 L156 472 Z M101 473 L102 472 L105 473 L106 476 L105 477 L102 476 Z M141 469 L143 468 L144 471 L142 472 Z M158 466 L160 465 L161 468 L159 469 Z M125 462 L127 461 L128 463 L126 464 Z M131 462 L134 458 L139 459 L136 462 L133 463 Z M157 460 L157 464 L154 467 L152 467 L151 465 L143 466 L141 468 L135 466 L137 463 L143 460 L150 459 L151 457 L154 457 Z M102 461 L104 457 L108 457 L109 459 L119 459 L124 464 L121 467 L118 464 L108 465 L107 467 L105 467 Z M135 450 L137 449 L138 451 L136 452 Z M147 447 L148 448 L147 451 L141 454 L140 450 L144 447 Z M167 437 L169 438 L168 443 L166 442 Z M145 436 L147 437 L148 443 L146 445 L144 445 L141 441 L141 438 Z M137 436 L139 437 L138 441 L136 440 Z M138 431 L140 432 L139 436 L137 435 Z M138 428 L143 427 L146 430 L146 434 L144 435 L143 431 L139 431 Z M132 424 L133 426 L130 432 L128 433 L129 445 L127 450 L124 452 L122 452 L121 449 L124 444 L125 438 L121 438 L119 434 L117 434 L117 441 L115 447 L118 449 L119 452 L117 454 L111 448 L113 431 L117 427 L127 424 L129 425 Z M91 419 L93 420 L92 424 L90 423 Z M92 410 L95 411 L93 415 L91 414 Z M166 408 L168 409 L167 413 L165 412 Z M132 408 L134 410 L134 418 L132 419 L131 417 L128 417 L126 419 L124 414 L125 410 Z M163 406 L165 405 L166 407 L164 408 Z M157 406 L159 405 L160 407 L158 408 Z M130 393 L132 392 L133 394 L131 395 Z M128 390 L130 389 L131 392 L129 393 Z M127 383 L128 384 L127 388 L122 393 L116 404 L116 406 L120 405 L120 401 L123 400 L123 396 L124 395 L128 396 L125 404 L121 409 L121 416 L123 423 L120 425 L116 425 L113 427 L111 431 L109 446 L111 453 L104 455 L103 458 L100 458 L99 457 L100 411 L105 406 L109 405 L109 398 L116 388 Z M130 379 L133 380 L133 383 L143 389 L147 387 L150 390 L147 393 L151 400 L151 406 L157 407 L161 417 L160 459 L154 455 L147 453 L150 449 L148 431 L145 426 L137 422 L138 416 L137 407 L133 403 L131 396 L134 395 L136 397 L136 400 L138 400 L139 404 L141 405 L142 413 L141 418 L143 418 L144 415 L143 404 L139 396 L128 382 Z M125 364 L127 363 L128 365 L126 366 Z M130 363 L133 362 L134 365 L132 366 Z M129 358 L131 359 L130 363 L128 362 Z M364 229 L362 237 L352 248 L342 244 L343 249 L338 259 L326 256 L328 273 L317 274 L326 295 L317 303 L337 312 L337 320 L355 317 L367 328 L368 325 L357 317 L356 311 L360 314 L361 309 L368 307 L369 316 L393 320 L392 312 L412 303 L403 294 L413 274 L401 273 L403 256 L391 259 L387 243 L380 248 L374 244 L373 250 L364 241 L359 251 L354 253 L355 245 L364 235 L370 239 Z M371 314 L373 313 L374 315 L372 316 Z M391 305 L393 306 L392 310 L390 309 Z M376 307 L380 305 L383 306 L388 311 L389 316 L388 317 L378 316 L376 314 L377 312 Z M352 304 L354 306 L354 310 L352 312 L353 315 L350 317 L341 317 L340 315 L343 309 L348 305 Z M340 303 L341 304 L340 309 L337 310 L336 306 Z M326 302 L330 300 L335 301 L336 305 L334 306 L327 304 Z M322 300 L325 299 L326 301 L323 302 Z M407 300 L404 304 L399 304 L398 308 L393 305 L393 302 L399 301 L400 298 L404 298 Z M394 295 L395 298 L390 300 L389 298 Z M382 282 L383 284 L386 285 L387 288 L383 289 L382 295 L384 297 L381 300 L378 299 L379 288 L377 287 L377 285 Z M354 283 L356 282 L357 284 L355 285 Z M344 281 L349 282 L354 287 L352 290 L351 300 L349 299 L349 296 L347 297 L345 296 L347 294 L347 291 L343 290 Z M364 279 L374 287 L376 292 L376 296 L374 297 L372 290 L370 290 L371 296 L368 297 L368 300 L366 303 L364 303 L362 299 L358 298 L356 300 L354 298 L355 289 Z M331 280 L333 279 L334 281 L332 282 Z M407 276 L408 278 L404 289 L399 295 L396 294 L395 291 L397 290 L402 281 L402 277 Z M323 276 L328 277 L333 291 L335 293 L338 292 L340 293 L340 298 L343 299 L342 301 L338 300 L337 296 L332 297 L328 294 L322 279 Z M385 271 L387 270 L388 272 L386 273 Z M361 270 L363 269 L366 272 L366 274 L363 275 L361 273 Z M343 269 L345 268 L346 270 L344 271 Z M331 268 L333 269 L332 277 L330 276 Z M363 261 L366 260 L367 263 L364 264 Z M398 259 L399 260 L399 279 L398 280 L396 279 L396 269 L394 269 L394 281 L392 287 L390 288 L388 284 L389 277 L387 276 L388 274 L390 274 L390 271 L388 270 L388 266 L392 261 Z M331 258 L337 261 L341 265 L341 269 L338 270 L342 275 L340 277 L341 279 L340 289 L338 288 L337 282 L335 279 L335 266 L331 265 L330 261 Z M345 249 L348 249 L352 253 L352 255 L349 256 L347 264 L341 261 L341 258 Z M383 247 L385 248 L385 251 L388 257 L388 259 L385 260 L384 265 L382 264 L381 260 L378 258 L379 256 L381 256 L378 253 Z M364 246 L373 255 L374 260 L378 261 L381 266 L380 270 L382 271 L382 276 L379 281 L376 280 L377 272 L375 267 L371 264 L365 255 L358 266 L355 267 L352 274 L353 279 L350 280 L348 278 L347 271 L349 270 L349 265 L351 261 L359 253 L361 253 L361 249 Z M26 214 L20 225 L20 255 L29 275 L47 288 L35 295 L36 305 L53 318 L50 321 L42 319 L38 326 L46 333 L55 328 L73 345 L93 327 L99 333 L106 330 L108 323 L95 318 L111 305 L112 295 L99 288 L118 275 L128 254 L128 226 L122 214 L119 214 L112 238 L107 236 L102 255 L90 262 L89 245 L77 230 L73 218 L66 236 L58 245 L59 261 L48 260 L50 266 L42 259 L47 250 L40 238 L33 234 Z M71 333 L74 332 L75 336 L72 337 Z M77 330 L79 329 L80 332 L78 333 Z M80 327 L82 326 L83 328 L81 329 Z M83 325 L85 324 L86 326 L84 327 Z M48 324 L51 323 L52 326 L50 327 Z M71 323 L74 322 L75 325 L72 326 Z M43 322 L45 321 L46 323 L44 324 Z M79 318 L81 317 L84 321 L83 322 L80 321 Z M58 314 L60 315 L60 318 L62 319 L60 322 L57 319 Z M84 313 L90 315 L91 319 L89 323 L87 323 L83 319 L82 315 Z M72 309 L75 310 L74 316 L70 314 Z M81 308 L83 307 L84 309 L82 310 Z M84 306 L87 305 L88 307 L85 308 Z M59 306 L61 305 L62 307 L60 308 Z M44 304 L46 303 L47 305 L45 306 Z M56 303 L58 302 L59 305 L57 306 Z M93 299 L94 301 L92 302 L92 304 L88 306 L87 304 L89 300 Z M53 300 L55 299 L56 301 L54 302 Z M86 291 L88 290 L89 292 L87 293 Z M75 283 L82 283 L84 290 L84 294 L77 298 L74 297 L74 284 Z M65 283 L72 284 L72 297 L71 298 L63 294 Z M50 284 L56 283 L57 285 L54 287 L51 286 Z M94 282 L95 285 L91 288 L90 284 Z M96 281 L98 280 L99 282 L97 283 Z M43 280 L45 279 L46 281 L44 282 Z M101 279 L103 278 L104 281 L102 282 Z M39 277 L43 276 L44 278 L40 279 Z M94 275 L96 274 L97 276 L95 277 Z M50 274 L52 273 L53 275 L51 276 Z M38 274 L40 273 L41 275 L39 276 Z M72 267 L74 266 L75 268 L73 269 Z M113 265 L115 264 L116 267 L114 268 Z M90 264 L91 268 L88 271 L87 277 L83 279 L82 281 L77 281 L76 280 L77 275 L83 271 L87 264 Z M33 264 L35 265 L34 268 L31 267 Z M58 263 L61 265 L63 270 L69 275 L70 277 L69 281 L66 281 L65 279 L62 279 L60 277 L59 271 L56 270 L56 265 Z M27 264 L29 263 L30 265 L28 266 Z M120 263 L122 262 L123 264 L121 265 Z M30 261 L33 260 L34 262 L31 263 Z M26 259 L28 258 L30 261 L28 262 Z M104 257 L105 259 L103 263 L99 267 L97 267 L96 262 L97 261 L99 262 Z M24 257 L26 256 L27 258 L25 259 Z M70 248 L71 245 L79 246 L78 248 L74 249 Z M125 241 L126 244 L123 248 L125 252 L120 256 L120 257 L123 257 L124 259 L117 262 L115 256 L117 255 L115 253 L116 248 L120 247 Z M26 225 L28 226 L29 231 L34 238 L33 245 L29 246 L29 248 L33 251 L33 253 L31 254 L33 256 L32 258 L27 257 L23 252 L24 250 L26 250 L22 244 L22 242 L25 241 L23 235 L25 234 L27 238 L29 238 L25 229 Z M122 224 L123 227 L120 236 L124 234 L125 237 L123 241 L117 246 L116 245 L117 242 L116 241 L113 243 L112 239 L115 237 L119 230 L120 225 Z M455 207 L455 236 L453 240 L459 244 L453 245 L451 250 L460 254 L462 259 L460 260 L456 256 L450 258 L449 263 L455 272 L444 273 L443 280 L440 283 L436 282 L432 295 L429 296 L428 313 L438 328 L453 336 L457 345 L465 332 L477 328 L487 313 L487 301 L484 292 L478 286 L478 281 L473 282 L469 274 L462 273 L456 267 L463 262 L464 256 L454 249 L462 246 L462 241 L457 239 L459 233 L457 232 L457 207 Z M455 339 L457 338 L458 340 L456 341 Z M449 328 L451 327 L452 329 L450 330 Z M468 327 L471 326 L472 328 L469 329 Z M443 327 L446 326 L447 329 L445 330 Z M434 319 L436 318 L437 320 L435 321 Z M480 315 L482 316 L481 320 L479 319 Z M452 314 L455 313 L456 315 L453 316 Z M481 313 L483 312 L484 314 L482 315 Z M432 311 L435 314 L433 317 L431 316 Z M459 304 L461 305 L460 309 L458 308 Z M481 303 L484 302 L485 306 L482 307 Z M439 299 L441 298 L442 300 L440 301 Z M443 293 L444 295 L441 297 L440 295 Z M438 302 L439 301 L441 302 L443 312 L445 312 L443 307 L445 296 L450 292 L452 292 L453 294 L447 299 L446 307 L452 314 L451 315 L447 314 L447 316 L456 318 L463 315 L466 311 L465 302 L466 300 L469 303 L469 311 L467 314 L467 316 L469 316 L472 309 L472 305 L468 297 L470 295 L475 304 L475 310 L472 317 L474 320 L471 323 L469 321 L466 322 L465 318 L457 321 L447 320 L440 314 L438 309 Z M453 292 L463 291 L467 292 L468 295 L466 296 L463 294 L454 294 Z M477 288 L479 292 L475 296 L472 295 L470 291 L472 289 Z M438 288 L439 291 L436 293 L435 290 Z M467 285 L470 284 L472 287 L470 288 Z M459 283 L461 284 L460 288 L458 287 Z M442 286 L443 283 L446 284 L444 287 Z M451 279 L455 278 L456 281 L452 282 Z M455 257 L457 260 L454 261 L454 263 L452 264 L451 260 Z M182 201 L172 229 L173 235 L170 236 L173 246 L167 248 L168 255 L162 261 L157 261 L155 266 L149 259 L149 279 L154 294 L143 287 L142 296 L150 311 L156 312 L160 308 L166 310 L164 316 L144 325 L156 332 L159 340 L167 340 L170 345 L175 343 L179 346 L180 337 L184 336 L187 346 L190 342 L195 344 L197 340 L206 340 L207 334 L220 325 L199 312 L202 309 L213 312 L218 308 L222 286 L214 295 L211 294 L216 278 L216 259 L209 265 L197 255 L198 249 L192 244 L195 239 L193 227 Z M192 339 L194 338 L195 340 L193 341 Z M170 339 L172 338 L173 340 L171 341 Z M172 336 L174 335 L175 337 L173 338 Z M189 335 L192 334 L193 337 L191 338 Z M197 332 L203 331 L204 337 L202 338 L201 335 L198 334 Z M161 334 L163 329 L167 332 L165 335 Z M192 329 L194 328 L195 330 L193 331 Z M170 329 L172 328 L173 330 L171 331 Z M154 327 L157 326 L158 329 L155 330 Z M196 326 L199 325 L200 327 L197 328 Z M158 326 L160 325 L161 327 L159 328 Z M163 324 L165 323 L168 327 L166 328 Z M167 316 L171 314 L185 317 L187 315 L196 314 L199 319 L192 325 L185 326 L182 324 L179 327 L171 324 L167 320 Z M181 309 L183 308 L184 310 L182 311 Z M186 307 L190 306 L191 309 L187 310 Z M174 307 L178 306 L179 309 L175 310 Z M195 306 L197 305 L198 307 L196 308 Z M215 304 L217 303 L218 305 L216 306 Z M166 302 L169 302 L171 304 L168 310 L166 309 L165 305 Z M211 300 L215 295 L220 296 L215 301 Z M145 296 L147 295 L148 297 L146 298 Z M164 290 L166 289 L168 292 L165 293 Z M179 288 L181 286 L184 286 L186 290 L182 292 L179 290 Z M202 285 L203 289 L200 293 L198 293 L197 291 L200 289 L200 286 Z M162 285 L164 284 L165 286 L163 287 Z M153 282 L155 281 L156 283 L154 284 Z M182 277 L184 278 L183 282 L181 281 Z M193 277 L197 276 L201 280 L198 281 L194 279 Z M162 273 L165 272 L168 276 L173 276 L174 278 L165 282 L164 281 L165 276 L163 276 Z M155 273 L157 272 L158 274 L156 275 Z M196 272 L200 271 L203 274 L200 276 Z M184 272 L188 271 L191 277 L187 278 Z M174 274 L175 270 L183 271 L180 274 L176 275 Z M210 269 L212 268 L213 270 L211 271 Z M152 269 L154 268 L155 271 L153 272 Z M181 262 L184 261 L185 264 L182 266 Z M162 261 L165 260 L167 263 L163 264 Z M168 260 L170 259 L171 262 L169 263 Z M189 258 L193 257 L194 259 L197 259 L199 264 L196 265 L195 263 L192 263 Z M171 257 L173 256 L176 259 L172 260 Z M181 256 L183 255 L184 257 L182 258 Z M181 249 L183 248 L184 250 L182 251 Z M184 225 L187 224 L188 226 L185 227 Z M267 189 L261 209 L253 217 L255 239 L246 238 L244 253 L240 255 L241 272 L251 277 L246 283 L246 296 L241 305 L237 304 L241 317 L252 323 L253 329 L245 329 L240 343 L294 345 L290 328 L287 331 L282 329 L283 321 L291 319 L298 308 L297 304 L292 304 L288 292 L290 287 L285 278 L294 273 L295 255 L289 244 L290 239 L281 239 L283 217 L274 209 Z M266 341 L268 340 L269 342 L267 343 Z M248 341 L253 340 L254 342 L249 343 Z M243 341 L247 340 L248 342 L244 343 Z M293 341 L292 343 L281 343 L280 342 L281 340 L291 339 Z M269 341 L273 339 L278 339 L280 342 L270 343 Z M254 341 L256 339 L264 339 L266 342 L265 343 L255 343 Z M269 333 L270 335 L267 338 L265 335 Z M245 334 L248 333 L252 336 L252 338 L250 339 Z M289 331 L290 334 L287 336 L286 334 Z M252 334 L255 331 L259 333 L258 336 L253 336 Z M273 332 L277 329 L278 331 L281 332 L281 335 L274 336 Z M274 323 L279 322 L280 324 L275 325 Z M254 323 L259 322 L260 324 L255 325 Z M267 318 L270 319 L268 326 L266 325 Z M244 316 L248 315 L249 317 L245 318 Z M278 313 L282 312 L283 314 L279 315 Z M257 310 L258 311 L257 315 L254 316 L253 313 Z M294 308 L295 310 L293 314 L289 317 L288 313 L292 308 Z M240 309 L243 308 L244 312 L242 313 Z M286 305 L288 304 L289 306 L287 307 Z M265 303 L267 302 L268 304 L266 305 Z M285 291 L287 296 L284 299 L285 301 L283 303 L277 302 L275 300 L276 293 Z M248 293 L250 291 L257 292 L259 294 L260 300 L253 303 L251 301 L251 297 L248 296 Z M254 288 L258 287 L259 289 L255 290 Z M275 287 L284 286 L285 288 L282 290 L277 290 Z M275 277 L277 276 L278 278 L276 279 Z M257 277 L260 276 L261 278 L258 279 Z M265 271 L267 270 L268 267 L270 267 L273 270 L273 273 L270 275 L266 275 Z M253 268 L255 267 L256 269 L254 270 Z M291 262 L293 264 L293 271 L289 274 L285 273 L282 274 L281 270 L282 269 L285 270 L286 267 L289 267 L289 263 Z M245 261 L247 262 L247 265 L251 267 L252 269 L251 273 L245 273 L243 271 L243 266 Z M267 258 L271 259 L271 263 L269 266 L263 266 L262 262 Z M275 252 L277 252 L279 258 L276 261 L274 261 L272 258 L272 255 Z M260 251 L263 252 L264 259 L261 261 L259 260 L259 258 L255 257 L256 255 L258 255 Z M275 249 L277 248 L278 250 L276 251 Z M286 245 L288 245 L290 248 L290 253 L288 255 L283 254 L284 247 Z M249 245 L251 246 L252 250 L251 254 L249 254 L246 251 Z M267 242 L268 239 L273 240 L271 243 Z M262 240 L264 239 L265 241 L263 242 Z M208 157 L209 163 L212 162 L217 163 L216 155 L214 156 L210 155 Z M196 155 L193 158 L194 162 L201 163 L202 156 Z M180 155 L178 157 L179 162 L186 163 L187 156 Z M163 157 L164 163 L173 162 L173 158 L170 155 L168 156 L165 155 Z M150 155 L147 158 L148 161 L150 163 L155 163 L158 160 L157 157 L155 155 L153 156 Z M263 148 L257 154 L258 165 L262 169 L265 170 L274 169 L279 163 L278 152 L273 148 L269 147 Z M260 162 L263 161 L264 165 L262 166 Z M263 160 L265 159 L266 161 L264 162 Z M269 158 L271 157 L272 160 L270 161 Z M267 156 L269 155 L270 157 L268 158 Z M274 152 L277 157 L277 162 L273 167 L267 168 L266 166 L271 164 L274 160 L274 157 L272 154 Z M265 153 L268 150 L272 151 L271 153 L267 154 Z M210 144 L208 146 L208 151 L216 152 L217 145 Z M211 147 L214 146 L215 148 L212 149 Z M179 145 L180 152 L188 151 L187 144 Z M250 137 L250 142 L253 145 L261 145 L267 141 L272 142 L277 145 L283 145 L286 142 L286 136 L281 133 L275 134 L271 137 L267 137 L265 135 L255 133 Z M272 139 L276 136 L283 136 L284 142 L277 143 L273 141 Z M252 139 L255 136 L260 136 L264 140 L259 143 L255 143 Z M208 133 L208 140 L217 140 L216 132 Z M195 132 L193 134 L194 151 L201 152 L203 150 L202 143 L203 136 L201 132 Z M178 134 L179 140 L188 139 L188 133 L180 132 Z M165 132 L163 134 L163 139 L164 140 L168 139 L170 143 L168 145 L166 144 L163 145 L164 151 L172 151 L173 150 L172 143 L173 133 Z M150 132 L149 133 L150 140 L149 151 L156 151 L158 149 L158 146 L156 144 L156 140 L158 137 L155 132 L153 133 Z M71 125 L71 129 L74 130 L75 129 L74 125 Z M251 121 L252 127 L256 130 L261 130 L268 126 L271 126 L274 129 L280 130 L284 128 L285 126 L285 120 L282 117 L275 117 L270 121 L268 121 L261 116 L256 116 Z M271 123 L277 119 L281 119 L283 121 L283 125 L279 128 L275 127 Z M253 121 L259 118 L264 120 L266 124 L261 127 L256 127 Z M214 54 L212 55 L212 78 L209 95 L210 99 L209 109 L211 111 L209 113 L208 118 L210 122 L208 124 L209 127 L218 126 L217 120 L218 100 L213 99 L211 97 L212 95 L218 97 L216 94 L217 90 L214 78 L215 76 Z M153 53 L152 53 L152 77 L150 81 L150 92 L149 93 L150 107 L147 109 L149 111 L149 117 L147 119 L149 122 L147 125 L148 127 L156 127 L158 125 L157 121 L158 111 L155 100 L156 90 L153 78 Z M154 121 L156 122 L155 125 L152 124 Z M150 95 L151 94 L154 95 L155 98 L152 99 Z M200 47 L198 47 L198 77 L196 82 L197 84 L195 91 L196 99 L194 101 L195 103 L194 109 L200 110 L201 112 L194 113 L193 120 L195 121 L195 123 L193 124 L193 127 L203 127 L204 125 L203 120 L204 104 L203 99 L201 98 L204 94 L202 91 L203 87 L200 67 Z M199 122 L201 121 L202 124 L200 125 Z M198 91 L200 90 L201 92 L199 93 Z M166 47 L166 77 L164 85 L165 90 L163 92 L165 99 L163 101 L164 103 L163 110 L169 110 L170 112 L163 113 L164 123 L162 127 L171 127 L173 126 L172 120 L173 109 L171 98 L172 93 L170 91 L171 84 L168 68 L168 47 Z M72 37 L67 65 L54 60 L45 71 L35 71 L33 85 L24 89 L25 104 L17 112 L25 117 L24 131 L35 139 L35 149 L50 152 L54 160 L64 158 L74 171 L82 158 L91 160 L101 149 L112 149 L114 135 L123 131 L121 117 L130 110 L121 104 L123 90 L114 85 L112 71 L85 67 L93 62 L79 59 Z M71 163 L74 162 L75 164 L72 165 Z M77 156 L79 155 L80 157 L78 158 Z M64 155 L67 154 L68 156 L65 157 Z M93 153 L90 157 L84 155 L85 153 L90 152 Z M56 153 L57 152 L61 153 L62 156 L57 157 Z M38 143 L41 142 L43 146 L42 147 L39 146 Z M107 141 L109 140 L110 142 L108 143 Z M75 148 L77 144 L78 136 L96 136 L98 138 L97 142 L89 146 L79 149 Z M46 142 L50 136 L67 136 L69 145 L71 146 L70 149 L62 148 L51 142 L49 142 L48 144 Z M95 130 L97 131 L96 134 L93 133 Z M50 127 L52 128 L51 134 L49 133 Z M115 127 L118 126 L119 129 L117 130 Z M94 126 L96 125 L97 127 L95 128 Z M29 123 L31 124 L32 127 L30 131 L28 130 Z M36 114 L39 114 L41 116 L45 114 L47 115 L47 133 L44 136 L42 135 L35 119 Z M111 110 L112 114 L109 125 L104 135 L102 136 L99 133 L99 116 L100 115 L107 116 L109 114 L109 111 Z M34 111 L36 110 L37 112 L35 113 Z M44 109 L46 108 L47 110 L45 111 Z M121 108 L123 107 L126 111 L123 113 Z M23 107 L25 108 L24 114 L19 111 Z M97 114 L97 123 L87 124 L86 134 L75 134 L74 133 L60 134 L59 133 L60 131 L59 122 L57 122 L56 124 L51 125 L49 124 L49 114 L51 113 L53 109 L55 110 L56 113 L59 113 L69 123 L71 122 L72 118 L77 123 L78 122 L76 106 L77 103 L83 108 L83 116 L86 113 L90 113 L92 111 L94 111 Z M68 102 L69 111 L68 118 L66 119 L63 114 L63 108 Z M72 102 L74 101 L75 103 L73 104 Z M89 99 L92 99 L95 97 L97 98 L96 108 L88 101 Z M74 94 L76 93 L82 98 L90 108 L87 109 L75 98 Z M70 93 L71 96 L67 100 L67 102 L64 103 L59 110 L56 109 L55 107 Z M95 91 L97 92 L96 95 L93 94 Z M71 91 L73 90 L74 92 L72 93 Z M29 89 L32 90 L32 94 L30 96 L27 93 Z M114 88 L119 92 L118 96 L114 93 L113 90 Z M39 85 L47 86 L47 106 L42 107 L41 105 L39 105 L36 108 L35 102 L39 92 L37 89 Z M105 75 L108 74 L109 77 L106 78 Z M38 75 L40 74 L41 76 L39 77 Z M75 73 L82 72 L92 76 L97 80 L101 78 L105 82 L103 86 L109 95 L112 108 L105 110 L103 106 L99 105 L99 86 L100 85 L99 83 L96 85 L93 85 L92 89 L88 89 L88 94 L85 97 L74 88 L74 86 L77 84 Z M70 72 L71 76 L69 78 L68 84 L71 86 L71 88 L61 97 L57 90 L58 88 L60 88 L60 86 L58 86 L52 92 L52 98 L57 99 L58 101 L50 108 L49 107 L49 89 L52 88 L52 86 L47 83 L49 80 L48 76 L50 74 L55 76 L64 72 Z M70 69 L72 68 L73 70 L71 71 Z M55 65 L58 64 L59 67 L57 68 Z M70 51 L73 48 L77 52 L71 53 Z M267 36 L267 64 L266 65 L267 69 L265 70 L265 73 L267 74 L267 76 L264 77 L267 83 L263 86 L264 88 L267 89 L267 91 L259 98 L258 105 L263 112 L273 113 L276 111 L278 107 L278 101 L276 98 L267 97 L264 100 L264 104 L267 107 L272 107 L273 108 L272 110 L267 111 L261 106 L262 98 L265 95 L275 91 L273 88 L269 86 L270 84 L273 83 L273 81 L270 79 L271 73 L269 61 L269 36 Z M266 102 L268 101 L270 104 L268 105 Z M269 98 L272 98 L275 100 L276 105 L274 108 L272 107 L273 103 L268 100 Z M182 35 L182 62 L179 78 L180 81 L179 85 L181 89 L178 91 L178 95 L180 97 L178 101 L179 103 L178 108 L180 110 L185 109 L186 112 L178 113 L179 123 L177 127 L186 128 L188 126 L188 108 L187 107 L188 92 L186 90 L187 81 L186 80 L186 68 L184 63 L184 35 Z M183 93 L185 92 L186 95 L184 96 Z M351 34 L341 56 L333 58 L327 77 L323 65 L317 74 L315 68 L309 73 L310 84 L317 82 L310 104 L319 128 L314 133 L330 134 L339 140 L329 152 L332 145 L317 147 L311 143 L310 135 L309 159 L313 169 L325 172 L385 171 L392 168 L395 160 L391 149 L395 139 L386 120 L395 110 L391 93 L396 89 L394 79 L381 77 L378 89 L385 92 L381 103 L380 95 L371 90 L378 81 L373 59 L367 60 Z M382 162 L383 158 L388 159 L386 163 Z M379 158 L380 161 L377 162 L376 165 L374 166 L373 161 L376 158 Z M368 158 L371 161 L371 163 L363 167 L361 165 L361 160 Z M334 159 L335 158 L340 159 L343 162 L343 165 L341 167 L338 166 L337 162 L335 162 Z M325 159 L331 158 L332 159 L331 164 L328 165 Z M345 162 L348 159 L353 157 L359 160 L360 164 L358 166 L354 166 L353 164 L350 165 L349 163 L346 164 Z M318 157 L322 160 L321 164 L317 162 Z M311 158 L314 157 L315 161 L313 162 Z M390 156 L392 155 L393 158 L391 159 Z M331 156 L333 155 L334 158 L332 159 Z M342 155 L344 154 L346 157 L344 158 Z M381 154 L383 153 L384 155 L382 156 Z M360 154 L362 153 L363 155 L361 156 Z M319 154 L323 153 L325 156 L323 157 L320 156 Z M389 151 L391 152 L390 156 L388 155 Z M342 142 L343 143 L342 148 L337 152 L336 150 L339 143 Z M350 140 L357 141 L356 143 L357 145 L353 150 L348 147 L348 143 Z M360 140 L362 139 L363 141 L361 142 Z M392 137 L392 144 L390 148 L374 147 L374 149 L371 152 L368 150 L366 151 L359 150 L362 144 L366 144 L367 147 L369 146 L370 143 L365 140 L367 136 L372 137 L373 134 L388 133 Z M366 133 L363 136 L360 135 L361 133 L364 132 Z M348 127 L350 128 L349 132 L346 131 Z M319 123 L322 122 L327 127 L321 128 Z M378 114 L379 117 L374 120 L372 116 L374 114 Z M382 113 L385 112 L386 114 L383 115 Z M345 113 L347 112 L351 118 L349 119 Z M329 113 L332 112 L333 115 L330 117 Z M351 109 L354 111 L352 115 L350 114 Z M318 109 L321 110 L321 115 L319 117 L316 114 Z M381 104 L383 103 L384 105 L382 106 Z M344 103 L346 102 L348 106 L346 107 Z M328 100 L329 108 L331 111 L327 112 L327 116 L325 117 L323 111 L326 109 L326 101 Z M371 92 L378 99 L378 102 L375 106 L372 105 L373 101 L370 101 L370 108 L368 112 L371 119 L371 125 L363 131 L354 132 L353 127 L358 124 L362 118 L363 113 L363 104 L361 103 L362 99 L364 97 L367 97 L368 93 Z M315 89 L318 90 L317 95 L313 94 Z M327 81 L334 88 L334 90 L330 93 L335 92 L337 94 L340 103 L343 105 L343 107 L341 108 L341 116 L342 119 L346 123 L345 127 L336 128 L333 125 L333 119 L336 112 L336 106 L334 104 L334 101 L328 96 L326 96 L323 102 L321 101 L323 97 L323 90 L321 87 Z M342 79 L346 80 L346 83 L344 86 L341 85 Z M373 78 L374 79 L373 83 L367 89 L365 87 L367 79 Z M330 76 L333 76 L334 78 L337 79 L337 83 L340 86 L338 89 L335 87 L335 85 L332 84 L332 81 L329 79 Z M372 74 L374 73 L375 75 L373 76 Z M314 73 L316 74 L317 77 L316 79 L312 78 Z M353 67 L359 66 L363 69 L363 72 L357 73 Z M346 66 L351 67 L348 72 L357 73 L356 75 L357 80 L359 80 L362 75 L364 76 L363 85 L361 88 L359 88 L356 91 L355 94 L355 100 L360 107 L360 114 L355 119 L353 118 L353 116 L356 114 L356 111 L352 106 L349 105 L346 95 L347 92 L346 86 L348 79 L346 76 L346 73 L342 72 L342 69 Z M470 22 L462 34 L465 45 L459 48 L456 42 L449 57 L443 56 L441 65 L434 70 L430 103 L446 132 L433 136 L428 124 L424 123 L426 127 L417 145 L417 155 L425 163 L418 163 L415 170 L429 175 L434 169 L433 177 L455 179 L463 174 L470 177 L496 170 L489 164 L492 158 L490 143 L474 134 L471 116 L457 107 L452 99 L454 92 L459 103 L467 94 L479 68 L479 51 L471 35 Z M442 173 L445 172 L446 175 L444 176 Z M459 171 L460 174 L458 176 L453 178 L448 177 L449 175 L455 174 L456 170 Z M425 168 L427 167 L428 169 L426 170 Z M420 168 L422 167 L423 169 L421 170 Z M431 152 L433 151 L434 153 L432 154 Z M419 149 L421 148 L422 150 L420 151 Z M465 144 L467 143 L468 146 L466 147 Z M434 139 L436 138 L437 140 L435 141 Z M467 137 L469 136 L470 138 L468 139 Z M456 136 L458 135 L459 137 L457 138 Z M426 135 L427 134 L430 135 L431 138 L429 139 Z M466 129 L468 128 L471 129 L472 131 L468 132 Z M461 121 L463 120 L465 124 L463 125 Z M448 117 L450 116 L451 118 L449 119 Z M449 105 L452 104 L453 106 L450 107 Z M438 102 L440 101 L441 103 L439 104 Z M440 99 L442 98 L443 100 L441 101 Z M431 99 L433 98 L434 100 L432 101 Z M447 96 L449 95 L450 97 L448 98 Z M437 96 L439 95 L440 98 L438 99 Z M446 83 L448 82 L451 85 L449 86 Z M436 78 L438 77 L439 80 L437 81 Z M435 72 L437 71 L440 74 L437 75 Z M455 70 L456 72 L453 75 L448 77 L447 82 L443 80 L443 77 L445 76 L446 73 L450 73 L451 70 Z M450 60 L452 59 L453 61 L451 62 Z M474 58 L476 57 L477 59 L475 60 Z M471 44 L473 43 L474 46 L472 47 Z M464 37 L467 36 L470 40 L466 41 Z"/></svg>
