<svg xmlns="http://www.w3.org/2000/svg" width="512" height="512" viewBox="0 0 512 512" aria-hidden="true" focusable="false"><path fill="currentColor" fill-rule="evenodd" clip-rule="evenodd" d="M256 328 L255 334 L249 343 L249 347 L252 350 L254 350 L253 344 L257 342 L260 344 L261 347 L260 352 L262 352 L264 349 L264 340 L259 331 L259 328 Z M141 328 L140 330 L142 331 L144 329 Z M370 326 L369 332 L371 332 L371 329 L373 327 Z M387 297 L385 298 L384 305 L378 312 L378 316 L382 322 L382 330 L385 329 L386 325 L392 318 L392 313 L389 310 L390 302 Z M385 310 L389 314 L389 316 L386 319 L384 318 Z M125 297 L123 300 L123 309 L122 312 L120 313 L120 317 L128 329 L130 329 L131 320 L134 317 L135 313 L129 306 L127 298 Z M126 311 L130 313 L130 316 L127 319 L124 317 L124 314 Z M303 285 L307 289 L309 289 L305 284 Z M381 274 L382 276 L400 281 L400 279 L395 277 Z M132 274 L118 277 L113 279 L113 281 L131 276 Z M312 272 L315 275 L327 281 L330 281 L330 279 L314 271 Z M320 259 L321 261 L330 263 L330 261 Z M377 252 L377 254 L379 255 L398 256 L398 254 Z M136 252 L115 254 L115 256 L133 255 L136 254 Z M292 237 L292 239 L295 240 L295 238 Z M416 232 L369 236 L368 238 L412 235 L416 234 Z M97 232 L97 234 L100 235 L145 238 L144 236 L140 235 Z M251 229 L249 229 L246 233 L244 239 L238 248 L239 249 L248 237 Z M208 238 L216 239 L225 234 L223 233 L213 235 L212 229 L210 229 L210 234 Z M298 217 L298 219 L301 220 L301 217 Z M212 217 L212 220 L215 220 L215 217 Z M187 220 L192 220 L194 218 L190 217 Z M392 215 L370 220 L369 222 L375 222 L392 217 Z M120 215 L120 217 L127 218 L138 222 L145 221 L144 219 L140 220 L132 217 Z M195 208 L192 208 L192 211 Z M322 206 L318 208 L319 211 L321 211 Z M315 199 L315 201 L326 201 L326 199 L320 198 Z M198 198 L187 199 L187 201 L199 201 Z M293 196 L292 199 L295 199 L295 196 Z M218 196 L218 198 L221 199 L221 196 Z M374 184 L372 183 L364 189 L362 189 L358 193 L358 195 Z M137 182 L137 184 L139 184 L155 195 L155 193 L151 189 Z M195 180 L195 182 L206 185 L205 182 Z M320 179 L308 182 L307 185 L320 181 Z M255 175 L256 211 L255 212 L252 211 L252 208 L246 196 L239 187 L238 189 L240 190 L245 202 L249 207 L248 211 L245 211 L230 201 L225 199 L224 201 L244 213 L246 216 L218 217 L218 219 L242 221 L243 225 L230 232 L230 234 L232 234 L247 225 L247 219 L249 218 L250 222 L255 227 L255 233 L257 234 L259 232 L259 229 L261 228 L265 236 L273 246 L274 245 L264 229 L265 226 L268 226 L285 236 L289 237 L289 235 L276 227 L266 224 L264 222 L264 218 L266 217 L268 220 L291 220 L295 219 L295 217 L268 216 L269 213 L288 202 L288 200 L278 204 L277 206 L266 212 L264 209 L276 188 L275 187 L273 188 L267 197 L264 205 L261 206 L259 204 L259 185 L257 180 L259 175 Z M253 217 L258 215 L261 219 L258 222 L256 222 L253 220 Z M260 207 L262 208 L261 212 L258 211 Z M303 174 L302 177 L305 178 L305 175 Z M210 174 L208 175 L208 178 L211 177 Z M308 163 L301 165 L295 169 L294 172 L298 171 L307 165 Z M351 152 L347 154 L347 156 L342 161 L342 163 L347 159 L347 157 L351 154 Z M223 151 L222 152 L230 163 L233 164 L233 162 L228 155 Z M383 150 L381 150 L376 156 L374 156 L370 161 L350 178 L350 181 L352 181 L377 156 L379 156 L383 152 Z M291 150 L281 161 L281 164 L284 163 L284 161 L292 151 Z M341 128 L337 129 L337 131 L335 132 L335 134 L333 135 L333 137 L331 138 L329 142 L330 144 Z M256 17 L238 58 L231 94 L222 90 L219 106 L188 143 L171 126 L186 146 L175 163 L163 153 L172 167 L164 181 L132 152 L163 182 L160 207 L154 209 L113 190 L111 193 L160 211 L162 228 L152 216 L148 233 L149 248 L158 255 L152 261 L142 250 L135 294 L140 309 L168 348 L165 351 L141 340 L117 341 L130 351 L151 391 L150 398 L139 400 L120 415 L134 414 L161 429 L177 430 L180 437 L190 435 L210 442 L190 455 L177 457 L170 447 L176 444 L179 451 L182 444 L173 440 L167 444 L166 453 L182 465 L208 460 L214 473 L226 468 L219 461 L216 469 L214 459 L226 455 L258 496 L264 481 L285 456 L294 455 L300 460 L296 470 L292 467 L294 461 L288 464 L292 473 L299 473 L305 460 L331 465 L347 454 L342 440 L332 443 L336 457 L302 442 L323 435 L333 437 L333 430 L355 428 L373 416 L393 415 L374 400 L358 396 L374 373 L381 353 L395 341 L367 341 L349 350 L345 345 L373 308 L377 295 L370 250 L360 264 L355 258 L364 246 L363 223 L359 217 L357 225 L352 226 L352 214 L402 191 L359 209 L352 207 L341 166 L298 111 L291 91 L283 94 L275 56 Z M252 453 L255 456 L254 459 L255 460 L260 454 L263 456 L262 460 L257 466 L251 459 Z M270 448 L267 452 L263 451 L267 447 Z M218 450 L217 452 L214 452 L197 461 L192 462 L186 461 L187 459 L197 455 L203 450 L210 447 L216 447 Z M256 446 L259 448 L257 452 L254 449 Z M246 446 L250 450 L249 452 L246 452 L244 450 Z M337 444 L341 444 L343 446 L344 450 L342 453 L340 452 L338 448 L335 447 Z M259 442 L261 441 L262 443 L260 444 Z M257 432 L261 438 L258 440 L255 440 L252 443 L251 440 L255 433 Z M217 444 L233 440 L241 433 L243 433 L248 427 L252 427 L253 430 L248 437 L248 441 L237 446 L236 448 L247 457 L247 460 L256 475 L259 473 L260 469 L265 463 L266 457 L278 448 L278 446 L274 446 L266 441 L264 435 L261 432 L262 427 L265 427 L275 437 L287 442 L291 442 L295 447 L303 447 L308 449 L318 456 L327 459 L328 461 L317 461 L307 457 L298 451 L289 450 L278 456 L270 469 L266 472 L256 486 L253 479 L242 467 L237 458 L225 450 L220 450 Z M270 426 L272 425 L273 427 L271 428 Z M275 431 L277 427 L282 429 L287 429 L287 427 L279 425 L278 423 L280 421 L286 421 L287 419 L291 419 L294 417 L309 418 L318 423 L325 429 L322 432 L319 432 L310 437 L301 439 L287 438 L280 435 Z M189 430 L195 423 L208 417 L219 417 L222 419 L226 419 L227 421 L233 421 L235 423 L232 426 L226 427 L226 429 L231 429 L241 425 L243 426 L239 431 L232 436 L223 439 L206 438 L197 433 L191 432 Z M313 409 L315 408 L316 410 L314 411 Z M191 408 L195 407 L196 409 L192 410 Z M300 407 L302 406 L303 408 L301 409 Z M210 407 L212 406 L213 408 L211 409 Z M376 407 L375 412 L368 415 L359 422 L343 427 L336 427 L324 424 L314 416 L315 414 L328 413 L334 411 L352 402 L366 402 L368 406 L371 404 Z M134 408 L146 402 L152 401 L162 402 L179 411 L194 414 L195 419 L189 424 L177 427 L171 427 L161 425 L151 420 L142 413 L135 411 Z M275 380 L277 379 L278 381 L276 382 Z M256 365 L275 386 L280 400 L278 410 L274 416 L268 421 L259 424 L250 423 L244 420 L237 413 L234 406 L234 396 L237 388 L244 379 L249 376 Z M284 363 L285 366 L279 377 L273 378 L271 375 Z M229 363 L242 375 L238 381 L235 380 L234 375 L228 366 Z M380 344 L381 346 L374 359 L372 367 L361 387 L343 403 L331 408 L319 410 L319 407 L326 405 L345 393 L360 369 L358 367 L352 379 L339 393 L316 404 L315 401 L321 393 L325 383 L339 363 L357 349 L372 344 Z M131 345 L145 345 L158 350 L177 367 L195 397 L194 402 L192 403 L175 394 L163 382 L154 368 L153 370 L165 390 L186 405 L184 408 L180 407 L159 395 L146 379 Z M194 342 L202 345 L212 353 L228 372 L233 385 L230 396 L231 409 L228 413 L218 407 L207 395 L201 379 L199 379 L199 383 L204 396 L209 401 L207 405 L201 400 L194 387 L189 370 L191 351 Z M319 340 L323 358 L323 376 L319 387 L311 401 L306 405 L304 401 L311 392 L314 379 L312 379 L306 395 L295 407 L285 413 L282 410 L283 394 L280 388 L285 372 L301 353 Z M344 331 L347 330 L348 334 L345 335 Z M257 315 L261 318 L265 326 L267 327 L271 336 L271 339 L273 341 L273 345 L270 354 L268 356 L265 356 L265 359 L262 362 L260 361 L258 356 L255 356 L254 361 L251 362 L243 354 L242 341 Z M294 314 L296 313 L297 315 L295 316 Z M292 312 L294 311 L295 313 L293 314 Z M221 308 L223 307 L224 309 L222 310 Z M289 302 L291 303 L293 307 L292 309 L290 309 L287 306 Z M357 301 L358 304 L355 311 L353 312 L352 311 L353 304 L355 301 Z M327 301 L329 302 L331 314 L339 328 L342 339 L340 355 L337 358 L336 362 L331 366 L329 371 L327 370 L327 357 L325 349 L326 330 L322 331 L303 347 L301 346 L301 331 L305 321 L322 304 Z M186 301 L190 305 L192 305 L206 319 L212 332 L212 346 L208 346 L190 330 L187 330 L188 348 L186 356 L186 370 L184 371 L180 364 L176 361 L172 353 L171 337 L174 327 L182 313 L184 302 Z M155 299 L157 299 L159 302 L159 307 L161 311 L160 314 L158 313 L154 301 Z M274 297 L276 297 L291 317 L298 337 L297 351 L286 364 L284 363 L284 361 L288 352 L289 337 L285 324 L273 303 Z M357 287 L360 288 L360 294 L358 298 L355 295 L355 289 Z M267 287 L271 289 L270 295 L267 294 L266 291 Z M257 284 L261 285 L263 295 L268 305 L281 324 L285 337 L285 347 L280 361 L275 367 L267 372 L263 366 L268 363 L275 354 L277 341 L274 331 L256 303 L252 318 L242 331 L237 341 L238 354 L249 368 L245 372 L233 361 L229 352 L228 343 L234 324 L252 300 Z M154 282 L157 283 L155 295 L152 292 L152 284 Z M251 281 L252 282 L251 293 L245 302 L245 304 L235 315 L225 335 L225 352 L229 361 L229 363 L227 364 L216 351 L215 344 L216 332 L219 323 L224 314 L247 286 L247 282 Z M355 273 L359 275 L358 282 L354 281 L353 275 Z M144 268 L152 270 L149 279 L149 296 L156 315 L158 316 L163 325 L168 330 L167 335 L153 322 L141 302 L139 295 L140 288 L139 278 L141 271 Z M262 265 L263 270 L258 279 L255 280 L253 277 L253 274 L257 266 Z M252 263 L253 268 L247 280 L244 282 L241 282 L242 286 L238 290 L235 290 L236 293 L228 302 L227 305 L223 304 L222 299 L224 294 L232 283 L246 269 L248 265 Z M366 262 L373 277 L374 283 L373 297 L367 310 L360 321 L350 330 L348 326 L358 311 L362 302 L364 289 L361 270 L364 269 L364 263 Z M349 259 L351 259 L354 262 L353 267 L350 266 L348 262 Z M260 257 L262 258 L261 263 L259 262 Z M252 258 L254 257 L255 259 L253 260 Z M341 240 L345 242 L343 245 L339 243 Z M338 236 L341 235 L342 238 L340 239 Z M347 235 L349 234 L350 237 L348 238 Z M162 234 L164 233 L166 237 L163 238 Z M155 233 L159 234 L159 240 L162 243 L171 240 L172 237 L174 237 L177 241 L176 243 L168 247 L164 246 L166 251 L166 257 L160 270 L158 279 L154 277 L154 273 L161 259 L161 252 L158 248 L154 247 L152 244 L152 239 Z M357 230 L361 243 L358 248 L355 248 L350 254 L347 255 L346 254 L348 249 L347 244 L352 242 L354 239 L354 233 Z M235 171 L259 167 L281 172 L295 182 L307 200 L309 232 L288 268 L285 300 L269 278 L257 237 L246 262 L222 289 L210 290 L206 286 L210 268 L201 265 L202 254 L194 254 L204 233 L204 207 L214 187 Z M227 102 L228 112 L226 117 L203 142 L188 161 L173 190 L170 204 L170 222 L172 232 L169 233 L166 228 L164 218 L164 202 L172 175 L176 171 L178 165 L180 164 L181 160 L187 151 L206 129 L206 127 L217 116 L224 103 Z M287 100 L289 101 L291 107 L299 119 L304 123 L304 125 L307 127 L324 148 L334 163 L337 171 L341 175 L341 178 L347 192 L349 205 L349 215 L347 226 L343 233 L339 232 L341 229 L343 218 L343 207 L340 191 L326 162 L308 139 L289 119 L285 110 Z M274 81 L279 86 L280 100 L282 102 L281 106 L278 105 L278 103 L275 101 L271 93 L271 86 L274 84 L273 83 Z M256 57 L270 100 L323 165 L336 194 L339 220 L331 245 L343 253 L351 281 L351 301 L342 323 L333 308 L334 292 L299 320 L291 274 L310 242 L314 221 L328 218 L314 215 L310 196 L297 178 L269 164 L275 138 L266 163 L259 163 L262 156 L257 114 L254 164 L248 163 L239 137 L245 165 L223 172 L206 164 L220 175 L203 197 L197 220 L200 231 L189 252 L198 261 L202 288 L219 295 L215 313 L218 318 L213 323 L182 293 L171 323 L163 307 L162 277 L170 251 L182 245 L173 217 L178 190 L191 164 L242 104 L254 77 Z M258 33 L273 63 L273 68 L269 72 L271 74 L270 85 L269 86 L267 85 L263 75 L265 71 L265 64 L262 56 L260 55 L259 50 L255 50 L249 63 L249 71 L251 75 L247 85 L245 87 L242 87 L242 95 L240 99 L238 100 L238 102 L236 103 L236 105 L234 106 L232 104 L234 99 L234 88 L238 81 L241 84 L244 81 L241 69 L242 61 L255 34 Z"/></svg>
