<svg xmlns="http://www.w3.org/2000/svg" width="512" height="512" viewBox="0 0 512 512" aria-hidden="true" focusable="false"><path fill="currentColor" fill-rule="evenodd" clip-rule="evenodd" d="M459 114 L436 132 L434 146 L413 144 L396 155 L395 168 L405 176 L400 181 L388 181 L350 163 L326 168 L335 149 L321 149 L304 141 L251 141 L228 145 L212 154 L209 137 L202 145 L177 150 L170 160 L170 169 L176 174 L173 178 L147 132 L139 138 L113 81 L101 97 L94 93 L92 82 L103 77 L106 67 L93 37 L95 23 L91 17 L77 39 L79 54 L65 76 L69 102 L88 120 L56 111 L60 120 L56 155 L66 171 L79 174 L90 168 L93 158 L89 149 L93 148 L104 157 L108 174 L99 196 L78 182 L57 178 L62 193 L55 223 L55 342 L60 351 L72 355 L80 350 L83 341 L88 359 L82 376 L71 365 L59 362 L56 496 L84 476 L103 438 L91 435 L76 440 L81 417 L88 413 L88 427 L105 432 L116 425 L123 406 L118 391 L106 383 L114 346 L106 347 L104 338 L107 327 L119 336 L133 330 L138 294 L146 279 L119 285 L97 298 L95 295 L102 272 L114 265 L119 249 L127 240 L137 240 L126 232 L146 227 L162 236 L162 246 L148 239 L134 252 L136 266 L144 274 L157 277 L181 263 L188 242 L199 242 L209 235 L226 200 L214 191 L234 187 L246 195 L246 200 L237 199 L228 209 L230 222 L245 230 L268 217 L279 228 L304 228 L304 219 L319 220 L349 201 L346 192 L359 194 L360 207 L368 212 L379 211 L389 203 L413 203 L433 187 L441 172 L434 166 L449 157 L449 136 L457 128 Z M96 402 L101 407 L102 414 L100 415 L94 409 L85 409 L78 414 L73 424 L71 446 L67 450 L66 449 L67 425 L72 411 L78 404 L83 401 L90 400 Z M63 400 L66 404 L70 405 L70 408 L65 419 L63 431 L63 478 L65 478 L65 475 L67 473 L74 471 L73 468 L68 469 L67 466 L71 462 L76 463 L78 456 L76 456 L73 459 L69 460 L68 456 L71 451 L78 444 L82 445 L83 442 L86 440 L93 439 L94 442 L91 447 L89 456 L85 460 L80 461 L80 463 L84 465 L80 474 L77 477 L75 477 L73 480 L61 486 L59 482 L59 421 L62 404 L61 401 Z M115 399 L117 398 L118 401 L116 402 Z M72 390 L74 390 L77 393 L78 398 L76 401 L72 399 L69 402 L68 397 L70 394 L72 394 L71 392 Z M88 382 L90 381 L91 383 L89 384 Z M91 377 L93 376 L94 378 L92 379 Z M94 371 L96 370 L97 372 L95 373 Z M68 368 L76 375 L77 381 L75 384 L71 384 L69 387 L69 393 L64 397 L61 393 L61 384 L63 380 L66 380 L65 369 Z M90 368 L92 367 L93 369 L91 370 Z M108 352 L110 356 L109 364 L106 367 L104 367 L104 370 L107 370 L108 372 L104 380 L99 384 L96 389 L99 390 L101 388 L108 388 L115 393 L111 402 L116 409 L116 416 L112 423 L108 422 L107 427 L98 429 L95 427 L96 423 L94 424 L91 423 L91 419 L94 416 L97 416 L99 418 L99 421 L101 421 L106 415 L105 408 L98 399 L92 397 L91 395 L88 397 L85 397 L84 395 L93 386 L99 375 L101 364 L99 365 L97 364 L98 358 L106 352 Z M117 314 L119 317 L111 318 L108 320 L104 326 L103 331 L101 332 L100 327 L103 320 L112 313 Z M81 305 L83 305 L89 313 L88 319 L85 319 L83 317 L78 318 L76 316 L76 312 Z M92 287 L93 290 L91 296 L91 306 L89 307 L86 303 L87 293 L89 289 Z M136 287 L134 301 L130 306 L127 307 L128 309 L134 310 L134 317 L132 323 L129 326 L125 325 L125 327 L127 328 L125 331 L122 332 L116 331 L113 328 L112 324 L114 320 L118 320 L120 323 L124 322 L124 316 L119 310 L120 306 L118 306 L115 310 L111 310 L104 314 L99 323 L92 322 L93 311 L97 310 L96 305 L103 297 L107 295 L109 297 L109 300 L112 301 L113 294 L116 291 L122 289 L123 293 L125 293 L128 287 L132 286 Z M62 282 L70 288 L71 292 L73 292 L76 297 L75 309 L71 313 L72 320 L86 322 L95 330 L100 341 L101 351 L99 353 L97 352 L95 343 L93 344 L95 351 L93 363 L91 362 L90 344 L84 336 L75 333 L67 339 L69 344 L71 344 L71 341 L73 339 L76 340 L78 343 L78 346 L72 347 L70 351 L65 350 L64 348 L66 346 L61 345 L59 342 L59 327 L66 327 L66 324 L60 320 L58 315 L58 301 L63 300 L60 295 Z M70 253 L71 254 L69 262 L67 263 L66 262 L67 255 Z M156 246 L157 251 L155 253 L152 253 L151 251 Z M117 242 L118 244 L115 248 L113 255 L110 258 L108 258 L111 261 L111 263 L106 268 L104 267 L103 263 L100 264 L101 268 L97 274 L95 282 L93 284 L89 284 L85 293 L85 297 L83 298 L82 297 L83 287 L92 262 L100 252 L104 255 L106 248 L109 245 Z M74 242 L77 248 L71 251 L70 248 L72 243 Z M61 239 L63 239 L65 243 L65 253 L63 260 L65 273 L64 277 L61 276 L59 265 L59 247 Z M201 232 L202 228 L208 229 L205 233 Z M83 226 L85 226 L87 229 L86 235 L84 237 L82 237 L80 234 L81 228 Z M173 228 L175 233 L175 243 L171 252 L164 257 L160 257 L159 255 L165 251 L167 246 L167 239 L163 230 L151 224 L136 224 L119 231 L93 255 L84 271 L81 282 L78 282 L81 265 L90 246 L95 239 L115 221 L135 213 L152 213 L166 219 Z M82 210 L88 215 L87 219 L88 222 L86 223 L84 220 L82 220 L81 224 L76 230 L75 224 L78 222 L78 216 L80 211 Z M99 208 L102 212 L102 218 L95 224 L92 214 L95 213 L97 209 Z M109 206 L110 208 L106 211 L105 208 Z M199 229 L199 233 L201 235 L199 238 L195 238 L194 235 L192 235 L191 238 L188 238 L186 236 L186 232 L184 232 L183 249 L177 262 L171 268 L163 272 L154 273 L150 271 L150 268 L145 270 L140 265 L138 261 L138 252 L143 245 L151 243 L152 246 L148 252 L148 254 L152 257 L151 262 L154 260 L164 260 L171 256 L176 250 L178 244 L178 232 L176 226 L170 218 L158 211 L141 209 L122 214 L107 223 L89 242 L79 261 L75 275 L75 282 L73 284 L71 283 L74 263 L87 238 L101 223 L121 210 L136 205 L154 205 L161 207 L174 215 L179 220 L181 226 L185 225 Z M272 204 L273 203 L282 204 L286 208 L284 212 L286 213 L289 211 L293 213 L297 217 L299 222 L291 224 L286 224 L285 222 L283 222 L282 224 L277 223 L273 218 L276 213 L271 211 Z M291 199 L297 198 L298 200 L296 203 L294 203 Z M138 198 L136 202 L132 203 L130 202 L133 197 Z M126 196 L127 200 L121 207 L116 209 L115 207 L119 200 Z M147 199 L158 195 L172 196 L174 198 L174 201 L180 200 L184 204 L192 206 L194 209 L192 211 L185 210 L175 204 L172 204 L167 199 L165 201 L162 200 L148 201 Z M105 195 L106 199 L104 203 L102 204 L101 199 Z M219 201 L218 209 L215 216 L210 221 L206 221 L205 224 L195 225 L187 222 L170 208 L171 206 L173 206 L185 213 L195 214 L202 207 L202 202 L199 205 L195 205 L193 203 L193 200 L196 196 L202 199 L200 195 L201 193 L211 194 L214 197 L212 202 L216 200 Z M342 197 L329 208 L324 207 L326 211 L323 214 L315 217 L310 217 L308 215 L308 211 L305 215 L301 215 L290 207 L291 205 L307 206 L319 198 L322 193 L326 192 L334 193 Z M268 193 L267 195 L268 208 L266 214 L260 221 L255 222 L252 219 L250 219 L252 224 L244 226 L238 224 L233 219 L232 209 L234 206 L238 207 L239 203 L243 203 L246 206 L246 209 L242 211 L245 215 L251 215 L256 212 L259 212 L259 207 L261 205 L260 194 L263 190 Z M135 191 L137 190 L138 192 L136 193 Z M160 187 L160 189 L157 192 L154 193 L151 192 L157 186 Z M168 184 L169 186 L167 190 L163 192 L162 191 L163 185 Z M66 183 L78 187 L81 190 L82 198 L84 198 L86 193 L89 193 L94 197 L96 202 L95 207 L91 212 L86 208 L85 204 L82 207 L77 202 L76 203 L77 213 L73 217 L72 223 L70 224 L72 234 L69 235 L70 238 L69 241 L66 239 L66 236 L60 232 L59 228 L60 217 L68 216 L63 210 L64 201 L66 199 L71 200 L70 198 L66 196 L65 189 Z M252 183 L254 182 L258 186 L255 187 Z M324 187 L329 183 L337 180 L354 181 L364 186 L376 196 L375 200 L379 199 L382 204 L377 206 L376 208 L372 208 L370 203 L368 207 L364 206 L362 204 L362 201 L364 199 L368 200 L368 197 L363 192 L354 188 L341 188 L336 190 L335 189 L325 189 Z M179 179 L181 178 L182 180 L180 181 Z M185 197 L191 191 L208 181 L222 177 L236 177 L246 181 L255 190 L258 196 L258 202 L257 205 L250 211 L249 207 L251 204 L251 196 L249 192 L242 186 L233 183 L218 184 L207 189 L199 190 L187 199 Z M164 173 L167 175 L167 180 L165 182 L161 180 L161 177 Z M286 168 L291 167 L293 169 L293 172 L289 175 Z M201 178 L209 172 L220 168 L242 167 L252 170 L274 181 L285 182 L286 184 L284 186 L272 186 L252 177 L238 173 L219 174 L209 177 L204 180 L202 180 Z M294 163 L296 163 L300 167 L301 170 L299 179 L296 182 L294 181 L296 177 L296 169 L293 165 Z M174 165 L179 163 L182 166 L182 169 L177 170 L174 168 Z M277 147 L278 150 L275 153 L271 163 L271 169 L273 174 L270 175 L257 169 L256 167 L260 163 L264 155 L266 153 L269 153 L269 151 L272 148 Z M207 146 L208 150 L206 155 L201 160 L196 162 L197 164 L202 165 L196 181 L193 184 L188 183 L189 188 L187 190 L176 194 L171 193 L170 191 L172 188 L175 188 L181 185 L188 178 L190 178 L188 165 L184 163 L176 162 L175 158 L182 152 L189 150 L193 151 L197 149 L202 149 Z M329 155 L323 162 L313 163 L314 167 L312 172 L322 170 L323 174 L318 187 L311 194 L306 194 L304 192 L302 193 L302 195 L305 197 L304 199 L299 200 L296 194 L289 195 L285 193 L287 197 L286 199 L275 200 L268 193 L268 188 L285 190 L295 187 L303 182 L304 168 L298 158 L289 160 L285 163 L284 171 L288 175 L287 177 L283 177 L279 174 L281 169 L275 169 L275 161 L283 153 L287 153 L287 148 L289 146 L303 145 L309 147 L310 149 Z M264 146 L260 156 L257 159 L251 159 L254 162 L254 164 L251 166 L246 165 L244 161 L241 161 L239 163 L224 162 L220 165 L212 167 L207 170 L205 169 L206 165 L218 154 L222 154 L224 151 L229 149 L238 148 L239 154 L242 154 L243 150 L250 145 L261 144 Z M146 140 L152 147 L151 152 L154 150 L157 153 L160 164 L159 168 L155 171 L155 173 L159 174 L157 180 L151 187 L147 188 L147 191 L149 194 L142 197 L141 189 L138 190 L137 186 L140 178 L145 176 L150 169 L150 163 L148 159 L146 159 L145 162 L143 162 L141 159 L141 148 L144 141 Z M80 140 L85 138 L93 138 L102 142 L109 149 L114 158 L116 165 L116 176 L114 182 L112 181 L112 171 L110 161 L107 155 L99 147 L92 144 L87 144 L80 148 L78 153 L84 152 L88 155 L89 160 L87 163 L82 161 L77 155 L74 154 L74 147 Z M95 133 L98 132 L102 137 L100 138 L96 136 Z M446 131 L447 153 L439 161 L433 162 L428 160 L429 165 L425 174 L433 173 L428 187 L415 198 L397 201 L382 196 L383 193 L397 194 L405 192 L414 185 L419 176 L419 169 L417 165 L412 162 L407 163 L414 168 L415 177 L407 187 L398 191 L389 192 L379 190 L360 180 L346 176 L325 180 L326 175 L331 172 L332 169 L337 167 L350 167 L360 170 L388 185 L403 184 L409 179 L410 170 L404 172 L400 169 L403 164 L398 163 L400 156 L412 148 L439 150 L438 137 L444 130 Z M131 129 L134 134 L137 144 L137 153 L132 158 L132 160 L137 159 L138 165 L145 166 L146 168 L144 172 L135 171 L136 176 L131 177 L131 180 L134 182 L134 185 L128 193 L124 194 L123 192 L126 187 L129 174 L129 158 L127 151 L127 143 L125 142 L122 134 L124 132 L128 132 Z M64 117 L75 120 L77 122 L79 130 L81 130 L83 124 L89 126 L92 129 L91 135 L79 136 L74 134 L76 139 L72 143 L70 150 L67 151 L67 153 L70 153 L75 160 L80 160 L83 163 L84 167 L79 170 L75 170 L68 167 L63 162 L64 158 L62 158 L60 155 L59 150 L60 141 L62 138 L68 139 L68 136 L65 135 L63 132 L64 127 L63 118 Z M93 116 L104 120 L115 130 L120 139 L119 149 L122 149 L124 151 L125 175 L122 186 L117 195 L115 195 L114 193 L117 188 L120 172 L118 158 L111 146 L109 138 L106 136 L106 129 L102 124 L100 128 L97 128 L92 123 Z M109 90 L111 91 L116 102 L114 110 L116 110 L117 107 L120 106 L126 115 L127 125 L124 131 L119 130 L114 123 L114 118 L109 120 L104 117 L101 113 L101 105 L106 102 L105 98 Z M86 79 L89 80 L88 87 L90 94 L95 99 L94 101 L91 100 L85 93 L84 82 Z M101 66 L102 72 L98 77 L96 77 L94 75 L94 71 Z M87 33 L89 34 L90 38 L89 45 L92 44 L94 45 L99 58 L96 64 L85 73 L81 80 L81 84 L77 85 L77 87 L81 90 L81 93 L85 100 L97 108 L96 112 L92 111 L87 106 L85 107 L84 110 L80 108 L72 99 L72 97 L75 96 L75 94 L71 94 L69 91 L69 77 L71 70 L75 68 L80 71 L77 61 L81 55 L87 57 L85 52 L80 47 L81 40 Z"/></svg>
