<svg xmlns="http://www.w3.org/2000/svg" width="512" height="512" viewBox="0 0 512 512" aria-hidden="true" focusable="false"><path fill="currentColor" fill-rule="evenodd" clip-rule="evenodd" d="M345 416 L343 415 L341 416 L341 418 Z M341 343 L340 342 L335 346 L335 348 L337 348 Z M121 392 L129 398 L134 415 L144 421 L140 426 L154 439 L154 453 L181 465 L188 459 L187 469 L175 471 L207 478 L205 485 L230 487 L239 483 L256 497 L272 483 L281 487 L309 485 L310 479 L335 471 L335 462 L356 453 L354 443 L371 426 L368 420 L374 421 L389 387 L372 400 L369 389 L380 380 L375 372 L379 368 L376 357 L369 350 L374 338 L367 331 L361 340 L364 364 L356 364 L349 393 L339 393 L339 370 L333 362 L332 378 L327 382 L332 392 L322 399 L335 421 L330 428 L320 422 L317 431 L309 432 L315 414 L309 414 L314 404 L307 395 L307 381 L297 405 L297 425 L304 429 L301 433 L289 433 L286 418 L292 411 L286 404 L288 375 L315 364 L333 349 L304 367 L292 370 L290 365 L279 370 L287 377 L277 405 L284 420 L283 430 L266 432 L257 426 L270 416 L273 400 L264 387 L259 388 L256 374 L234 404 L227 396 L224 379 L232 369 L209 368 L175 347 L188 360 L223 377 L221 389 L225 392 L221 401 L225 404 L218 411 L226 425 L221 426 L223 434 L207 431 L214 422 L211 406 L206 403 L210 400 L206 398 L204 380 L201 405 L195 413 L204 432 L190 430 L191 422 L179 428 L179 416 L185 415 L191 405 L186 405 L179 392 L184 383 L175 362 L171 379 L174 386 L166 403 L170 412 L177 412 L173 415 L174 425 L169 427 L161 415 L162 407 L149 409 L151 400 L160 403 L158 398 L164 391 L160 390 L154 364 L147 367 L151 352 L141 330 L136 343 L142 348 L136 350 L131 381 L141 387 L140 393 L132 396 L125 388 Z M256 487 L258 486 L259 489 L257 490 Z M259 485 L261 484 L262 487 L260 488 Z M250 484 L252 485 L251 489 L249 488 Z M286 483 L288 482 L289 484 L287 485 Z M278 482 L281 481 L284 482 L285 484 L282 485 L279 484 Z M275 480 L278 479 L279 481 L276 482 Z M303 479 L305 478 L306 481 L304 482 Z M263 482 L263 480 L266 478 L270 479 L268 483 Z M236 479 L236 481 L232 484 L228 485 L225 484 L226 482 L231 481 L234 478 Z M223 478 L226 477 L227 479 L224 480 Z M213 477 L216 479 L215 483 L211 481 Z M241 476 L246 478 L246 481 L244 484 L242 483 L240 479 Z M260 476 L262 475 L263 477 L261 478 Z M219 474 L221 475 L220 480 L217 479 L217 476 Z M257 473 L259 475 L257 485 L254 486 L251 482 L253 480 L252 478 Z M279 472 L285 473 L283 480 L281 480 L276 476 Z M232 473 L234 472 L235 475 L233 476 Z M295 473 L292 477 L290 475 L288 477 L286 476 L287 471 L292 470 Z M206 471 L209 470 L210 472 L207 473 Z M199 471 L201 470 L202 472 L200 473 Z M308 470 L311 469 L312 472 L309 473 Z M220 470 L223 468 L226 472 L222 473 Z M301 467 L305 466 L306 469 L304 470 Z M207 467 L210 466 L211 468 L208 469 Z M196 467 L199 466 L200 468 L197 469 Z M316 465 L318 464 L319 466 L317 467 Z M272 465 L274 464 L275 466 L273 467 Z M260 464 L262 463 L263 465 L261 466 Z M322 464 L326 462 L330 464 L332 468 L331 469 L324 468 Z M241 461 L243 460 L244 462 L242 463 Z M227 461 L229 460 L230 462 L228 463 Z M261 460 L263 459 L264 461 L262 462 Z M217 460 L219 459 L220 461 L218 462 Z M315 457 L317 456 L318 458 L316 459 Z M282 457 L284 456 L287 460 L283 461 Z M337 456 L340 455 L341 457 L338 458 Z M330 456 L332 455 L335 459 L331 460 Z M222 456 L224 455 L225 457 L223 458 Z M191 456 L195 455 L196 457 L193 459 Z M169 456 L172 455 L173 457 L170 458 Z M267 454 L270 455 L269 461 L266 460 Z M175 455 L177 454 L178 457 L176 458 Z M304 452 L305 456 L300 462 L298 462 L297 459 L300 453 Z M279 451 L280 455 L277 457 L276 460 L274 460 L273 455 L276 454 L277 451 Z M208 451 L210 452 L212 456 L211 460 L207 458 L205 455 L205 453 Z M180 450 L182 450 L184 454 L182 457 L180 456 L179 453 Z M327 450 L329 449 L331 452 L328 453 Z M312 451 L315 449 L317 450 L316 453 L313 453 Z M274 450 L276 449 L277 451 L275 452 Z M212 451 L217 449 L219 454 L214 455 Z M192 450 L195 449 L196 452 L193 453 Z M348 449 L350 448 L351 450 L349 451 Z M263 449 L265 448 L268 451 L264 453 Z M320 448 L322 447 L323 449 L321 450 Z M286 448 L288 447 L289 449 L287 450 Z M246 447 L248 447 L249 449 L256 447 L258 451 L261 451 L263 453 L262 456 L260 455 L258 456 L259 463 L256 464 L255 468 L250 467 L252 465 L251 462 L252 455 L250 455 L249 461 L248 462 L246 461 L246 455 L248 454 L248 451 L246 451 L243 457 L240 456 L243 449 Z M234 447 L236 449 L234 454 L237 455 L238 458 L232 461 L228 451 Z M187 448 L189 447 L190 449 L188 450 Z M342 447 L347 446 L348 449 L343 451 Z M299 446 L300 448 L297 455 L291 456 L290 455 L291 452 L296 447 Z M164 446 L171 447 L173 452 L168 453 L167 451 L163 449 Z M302 447 L305 445 L307 446 L306 449 L303 449 Z M282 444 L285 447 L284 452 L279 451 L279 449 L282 448 L281 446 Z M159 444 L162 446 L161 451 L158 450 Z M292 443 L294 442 L295 444 L293 445 Z M285 443 L287 442 L288 444 L286 445 Z M258 443 L260 442 L261 444 L259 445 Z M223 443 L226 442 L227 444 L224 445 Z M350 441 L353 444 L352 447 L350 446 L349 443 Z M252 441 L253 445 L249 447 L248 445 Z M275 441 L269 446 L267 445 L267 443 L271 440 Z M163 441 L165 440 L167 443 L164 444 Z M345 440 L347 439 L348 441 L346 442 Z M256 440 L258 439 L259 442 L257 443 Z M241 440 L244 439 L246 442 L242 444 Z M211 440 L215 439 L218 443 L214 444 L211 442 Z M296 439 L299 438 L300 442 L298 443 Z M254 438 L256 437 L257 439 L255 440 Z M225 438 L228 437 L229 440 L227 441 Z M200 438 L203 437 L204 439 L201 440 Z M317 436 L319 437 L318 441 L315 440 Z M170 437 L172 436 L173 438 L171 439 Z M327 436 L331 435 L332 437 L328 438 Z M290 436 L293 435 L294 437 L291 438 Z M278 440 L280 435 L285 438 L283 441 Z M218 436 L220 435 L221 437 L219 438 Z M338 435 L341 434 L342 436 L339 437 Z M180 439 L182 434 L186 435 L186 437 L183 440 Z M283 434 L285 433 L287 436 L285 437 Z M245 434 L249 433 L250 437 L247 438 Z M191 439 L195 433 L200 436 L199 438 L196 438 L195 440 Z M155 434 L160 433 L164 437 L160 438 L156 436 Z M361 433 L360 435 L352 437 L348 436 L349 433 L358 432 Z M336 433 L338 432 L339 434 L337 435 Z M273 435 L274 432 L279 433 L276 436 Z M264 432 L267 436 L262 439 L258 435 Z M231 433 L237 432 L238 434 L232 435 Z M189 433 L193 432 L194 434 L190 435 Z M323 431 L321 435 L317 435 L316 437 L312 436 L314 433 L319 432 L320 430 Z M176 430 L179 429 L180 431 L177 432 Z M166 430 L169 429 L170 431 L167 432 Z M349 424 L351 425 L352 428 L350 431 L346 428 Z M358 423 L360 422 L361 424 L359 425 Z M201 421 L203 420 L204 422 L202 423 Z M176 420 L179 419 L180 421 L177 422 Z M147 420 L149 419 L152 424 L149 425 Z M363 418 L364 420 L361 423 L360 421 Z M145 418 L147 417 L148 419 L146 420 Z M364 415 L366 414 L367 416 L365 417 Z M252 414 L254 413 L255 415 L253 416 Z M257 413 L259 412 L260 414 L258 415 Z M205 411 L207 410 L208 412 L206 413 Z M142 411 L144 410 L145 413 L143 414 Z M303 410 L305 409 L306 412 L304 413 Z M259 412 L262 409 L264 410 L261 413 Z M246 409 L248 408 L250 412 L248 413 Z M257 408 L259 407 L260 409 L258 410 Z M226 406 L233 405 L234 407 L237 407 L240 415 L246 421 L249 422 L253 427 L249 430 L246 430 L245 432 L233 429 L231 432 L227 432 L224 429 L224 427 L231 424 L231 422 L227 420 L227 417 L229 416 L231 412 L231 408 L227 408 Z M307 404 L309 403 L310 405 L308 406 Z M301 403 L303 402 L304 404 L302 405 Z M248 402 L249 405 L246 408 L245 406 L246 403 Z M264 399 L265 403 L262 405 L261 401 Z M143 398 L144 402 L143 406 L141 407 L140 402 L141 399 Z M339 397 L341 399 L340 406 L338 408 L333 408 L332 407 L333 405 L338 404 L337 398 Z M171 397 L174 398 L172 400 L172 404 L178 406 L177 408 L173 408 L170 406 L169 399 Z M337 397 L336 399 L331 399 L328 403 L326 402 L330 396 Z M178 397 L180 396 L181 398 L179 399 Z M350 395 L351 403 L354 401 L359 401 L361 403 L361 410 L358 411 L352 407 L350 409 L350 415 L348 416 L348 423 L337 428 L336 425 L338 414 L340 412 L340 408 L343 406 L344 403 L343 398 L345 396 Z M154 396 L156 395 L157 397 L155 398 Z M368 394 L370 397 L370 409 L368 413 L366 414 L365 412 L367 407 L367 401 L365 396 Z M354 396 L357 394 L361 395 L364 398 L365 402 L363 403 L360 398 L355 398 Z M243 394 L245 393 L246 395 L244 396 Z M257 390 L262 396 L260 399 L257 398 L256 394 Z M245 391 L254 390 L255 391 L253 393 L254 397 L250 400 L248 398 L250 393 L246 393 Z M155 390 L157 389 L158 391 L156 392 Z M334 385 L338 384 L339 386 L335 387 Z M141 384 L143 383 L145 386 L142 387 Z M366 383 L368 382 L369 384 L367 385 Z M353 383 L355 382 L356 384 L354 385 Z M358 381 L360 382 L359 387 L357 386 Z M372 378 L374 377 L375 380 L373 381 Z M147 377 L150 376 L151 378 L148 379 Z M136 376 L138 377 L137 381 L135 380 Z M358 371 L359 374 L355 378 L354 375 Z M370 371 L372 370 L373 373 L371 374 Z M137 371 L141 370 L143 372 L143 375 L140 376 L137 373 Z M138 366 L140 365 L141 367 L139 368 Z M370 358 L372 357 L374 361 L371 362 Z M138 357 L140 358 L139 362 L136 361 Z M145 348 L146 350 L144 353 L144 356 L142 357 L141 352 Z M400 296 L396 298 L396 304 L393 305 L393 307 L396 308 L396 310 L393 312 L394 314 L393 317 L395 319 L392 320 L391 324 L389 324 L391 331 L387 332 L387 336 L390 337 L390 340 L395 341 L394 347 L396 358 L398 358 L398 355 L400 354 L401 347 L403 345 L403 341 L405 340 L404 333 L398 331 L399 329 L403 328 L402 318 L399 316 L400 313 L398 308 L398 300 L400 299 Z M394 332 L396 333 L395 336 L392 335 Z M397 191 L395 191 L395 210 L391 216 L392 218 L391 221 L394 223 L394 225 L390 226 L390 228 L388 229 L389 233 L388 236 L390 238 L394 238 L396 241 L388 242 L386 248 L388 246 L392 246 L397 243 L404 243 L406 237 L403 236 L405 229 L403 229 L402 231 L399 230 L399 228 L402 226 L402 219 L400 218 L400 215 L398 214 L399 210 L397 207 Z M391 231 L394 230 L396 233 L392 234 Z M397 220 L399 219 L400 221 L398 222 Z M259 140 L261 145 L266 149 L268 149 L264 143 Z M334 136 L332 140 L334 151 L328 170 L325 171 L329 177 L329 191 L334 191 L341 198 L344 190 L349 198 L345 205 L341 205 L340 201 L330 203 L326 193 L322 197 L336 209 L335 214 L341 218 L339 226 L352 242 L350 247 L354 265 L356 266 L355 254 L360 249 L354 247 L353 241 L343 227 L344 223 L351 226 L359 237 L367 237 L365 241 L378 263 L376 268 L381 271 L381 275 L376 277 L359 269 L369 277 L357 275 L354 292 L364 291 L370 286 L373 290 L370 300 L358 318 L353 318 L353 322 L348 325 L347 333 L342 340 L355 329 L357 322 L360 323 L360 316 L378 292 L382 294 L386 307 L383 323 L379 330 L373 333 L379 338 L378 334 L383 332 L384 322 L389 321 L389 317 L386 316 L387 294 L384 295 L382 290 L386 285 L392 294 L402 292 L412 282 L405 268 L400 267 L408 261 L409 256 L403 249 L391 249 L385 258 L387 267 L392 266 L394 269 L390 271 L381 269 L382 261 L378 259 L368 241 L376 222 L381 218 L380 213 L373 207 L373 190 L365 186 L365 182 L351 169 L347 160 L344 163 L340 159 L343 146 L337 146 Z M401 285 L404 284 L405 286 L402 287 Z M390 281 L392 281 L394 284 L392 287 L390 287 L388 284 Z M369 283 L369 285 L363 289 L358 288 L365 281 Z M395 281 L398 280 L399 282 L396 283 Z M371 280 L373 279 L374 281 L372 282 Z M359 280 L361 279 L362 281 L360 282 Z M380 279 L382 278 L384 281 L382 282 Z M384 277 L386 276 L388 279 L386 280 Z M398 275 L403 274 L404 278 L401 279 Z M388 274 L392 273 L394 277 L389 279 Z M393 262 L399 261 L400 264 L396 266 L393 264 Z M388 257 L391 256 L393 260 L390 261 Z M402 256 L405 255 L406 259 L403 260 Z M391 253 L393 252 L394 255 L392 256 Z M358 227 L360 226 L362 230 L359 231 Z M363 225 L369 224 L370 228 L365 229 Z M352 215 L354 216 L353 220 L351 219 Z M375 212 L376 217 L370 221 L367 221 L366 218 L369 217 L372 212 Z M339 211 L342 210 L343 212 L340 213 Z M360 208 L362 207 L363 209 L361 210 Z M352 209 L356 207 L358 210 L353 211 Z M362 199 L365 198 L367 202 L365 203 Z M342 180 L344 181 L343 184 L340 183 Z M360 179 L362 183 L359 185 L356 185 L355 182 Z M350 180 L352 179 L353 181 L351 182 Z M334 175 L336 174 L337 176 L335 177 Z M339 172 L343 171 L345 174 L343 175 L340 174 Z M349 171 L352 170 L353 172 L350 173 Z M337 151 L339 150 L340 153 L338 154 Z M294 112 L292 115 L291 123 L293 126 L291 132 L291 140 L293 143 L291 145 L295 150 L294 160 L297 164 L297 167 L302 169 L302 175 L306 179 L309 186 L318 193 L318 191 L314 187 L315 183 L311 181 L313 172 L316 170 L313 165 L315 161 L318 160 L318 157 L316 156 L316 151 L313 144 L310 141 L310 138 L306 139 L305 138 L306 135 L300 134 L302 130 L302 124 L296 119 Z M299 161 L301 160 L302 162 L300 163 Z M298 154 L302 153 L303 156 L299 157 Z M306 142 L307 143 L306 148 L302 150 L301 145 Z M300 140 L302 139 L303 141 L301 142 Z M295 130 L297 129 L298 131 L296 132 Z M256 16 L247 69 L256 76 L243 76 L246 94 L253 89 L255 92 L246 110 L239 113 L234 128 L243 140 L249 132 L253 134 L249 141 L255 144 L253 165 L249 166 L252 172 L243 184 L248 195 L237 190 L231 176 L245 146 L237 151 L225 180 L233 154 L228 160 L220 194 L211 194 L180 216 L174 212 L175 208 L181 210 L179 205 L184 205 L211 175 L209 169 L219 158 L216 151 L221 134 L216 112 L208 126 L209 136 L196 142 L195 167 L200 180 L189 194 L185 193 L187 198 L167 206 L162 199 L167 194 L177 196 L178 190 L183 192 L185 168 L177 154 L181 143 L177 137 L167 153 L170 159 L141 186 L138 209 L131 212 L130 218 L144 238 L133 249 L128 271 L121 265 L127 255 L118 241 L123 232 L117 233 L122 224 L115 211 L113 191 L112 214 L106 228 L113 237 L105 243 L121 249 L105 247 L101 259 L107 271 L101 285 L107 294 L125 285 L129 289 L121 298 L121 314 L113 304 L116 297 L111 298 L107 328 L112 331 L106 333 L113 338 L106 343 L112 347 L111 356 L115 355 L115 341 L123 336 L118 325 L122 318 L126 330 L136 337 L125 314 L131 291 L156 324 L156 330 L171 343 L162 324 L153 319 L141 294 L135 291 L138 286 L142 292 L153 291 L160 284 L150 271 L158 262 L158 244 L167 229 L196 205 L214 198 L224 201 L228 197 L235 200 L256 196 L249 206 L234 214 L221 210 L210 218 L194 219 L190 243 L180 250 L181 261 L165 284 L181 309 L180 319 L190 324 L193 348 L233 354 L249 364 L252 372 L278 354 L318 349 L320 326 L326 324 L320 316 L330 318 L329 308 L346 285 L328 262 L335 251 L321 245 L317 218 L289 210 L277 215 L257 203 L259 193 L268 201 L272 193 L279 192 L277 199 L302 200 L335 220 L330 210 L293 195 L279 153 L269 151 L279 170 L279 180 L263 195 L270 181 L257 172 L262 169 L261 157 L253 140 L261 128 L251 127 L251 118 L259 117 L263 127 L274 129 L270 135 L263 132 L268 137 L276 133 L275 122 L270 122 L272 113 L265 109 L255 90 L264 94 L269 87 L266 79 L256 78 L264 75 L263 64 L258 62 L261 56 L256 43 Z M233 350 L235 349 L236 351 L234 352 Z M222 350 L224 349 L225 351 L223 352 Z M254 344 L259 336 L265 337 L266 340 L264 343 L260 343 L256 345 Z M245 337 L251 336 L253 340 L250 343 L248 343 L245 341 Z M234 336 L237 336 L239 334 L243 336 L244 343 L248 345 L255 353 L252 359 L249 359 L248 357 L236 349 L235 345 L236 342 L233 340 Z M276 333 L277 334 L277 337 L275 338 L275 340 L277 341 L276 346 L266 356 L263 356 L260 360 L258 360 L256 351 L257 350 L260 351 L260 348 L266 344 L268 340 L268 336 L270 334 Z M113 334 L117 333 L118 335 L114 336 Z M280 331 L282 330 L283 332 L281 333 Z M267 331 L264 334 L256 333 L257 331 L265 330 Z M243 331 L244 330 L254 331 L255 333 L247 334 L244 333 Z M227 330 L229 329 L233 331 L235 334 L234 335 L230 334 Z M269 331 L272 328 L275 329 L274 331 L271 332 Z M316 327 L318 326 L319 328 L317 329 Z M230 326 L233 325 L240 328 L241 330 L237 331 L231 328 Z M281 323 L283 322 L284 325 L282 326 Z M301 325 L301 327 L298 328 L297 331 L293 331 L290 333 L287 332 L287 326 L289 324 L295 325 L295 322 L297 321 Z M223 321 L226 320 L229 324 L226 325 Z M240 320 L243 319 L244 321 L241 322 Z M214 319 L216 320 L216 325 L220 326 L222 324 L225 327 L222 332 L220 332 L219 330 L215 331 L213 330 L211 323 L213 322 Z M318 318 L320 319 L319 324 L317 323 Z M279 319 L281 318 L282 320 L280 321 Z M226 318 L228 317 L229 319 L227 320 Z M114 318 L116 317 L117 319 L115 320 Z M300 316 L302 317 L301 320 L298 319 Z M260 317 L263 316 L264 319 L261 320 Z M246 316 L248 315 L249 317 L247 318 Z M188 315 L190 316 L189 320 L187 319 Z M316 315 L318 314 L319 316 L317 317 Z M217 315 L219 314 L221 318 L219 319 Z M211 314 L213 315 L212 319 L209 318 Z M193 313 L195 314 L194 317 L195 330 L194 331 L192 330 L191 317 Z M287 313 L288 312 L293 313 L294 316 L289 319 Z M311 311 L313 313 L312 318 L315 319 L314 330 L312 332 L312 338 L308 342 L306 341 L303 342 L301 340 L298 344 L287 343 L286 339 L283 339 L281 336 L283 332 L285 332 L288 335 L301 333 L303 337 L306 336 L308 332 L304 331 L304 326 L307 325 L305 321 L305 315 Z M261 311 L262 313 L259 315 L258 313 Z M200 311 L203 310 L209 311 L208 313 L204 314 L206 320 L204 325 L207 326 L207 330 L202 333 L203 336 L208 337 L210 333 L220 335 L227 333 L229 335 L229 338 L225 340 L224 343 L220 343 L218 341 L216 344 L212 344 L210 340 L208 340 L207 342 L201 341 L201 337 L198 336 L197 332 L199 330 L199 327 L197 327 L195 321 L199 319 L197 315 Z M247 310 L249 309 L250 311 L248 312 Z M213 310 L216 309 L217 311 L214 312 Z M289 309 L291 308 L292 310 L290 311 Z M284 309 L282 312 L277 311 L278 309 L282 308 Z M251 308 L253 307 L254 309 L252 310 Z M218 308 L221 307 L222 310 L220 311 Z M212 307 L214 306 L215 308 L213 309 Z M296 306 L298 305 L299 308 L297 309 Z M261 306 L263 305 L264 307 L262 308 Z M248 306 L250 305 L251 307 L249 308 Z M184 306 L186 305 L187 307 L185 308 Z M268 311 L268 308 L271 304 L278 305 L277 307 L273 307 L270 312 Z M241 304 L242 308 L238 312 L236 309 Z M221 305 L223 304 L224 306 L222 307 Z M261 302 L264 301 L265 303 L262 304 Z M247 302 L249 301 L250 303 L248 304 Z M330 300 L331 301 L330 304 L326 307 L325 305 Z M232 299 L234 300 L235 305 L234 307 L231 307 L229 301 Z M209 298 L211 299 L213 303 L212 305 L208 301 Z M287 298 L290 297 L291 299 L288 300 Z M278 298 L280 297 L282 300 L279 301 Z M302 296 L303 297 L302 302 L299 304 L298 302 L300 297 Z M302 291 L304 292 L303 296 L301 295 Z M278 293 L280 292 L281 289 L283 289 L286 294 L282 296 L279 295 Z M229 289 L231 290 L233 294 L231 297 L227 297 L225 295 L225 292 Z M285 288 L288 287 L289 289 L286 290 Z M297 287 L299 286 L300 288 L298 289 Z M207 286 L209 287 L210 294 L209 298 L207 297 L206 293 Z M114 287 L117 286 L118 288 L115 289 Z M288 286 L290 285 L291 287 L289 288 Z M273 286 L276 285 L277 287 L274 288 Z M225 286 L227 285 L228 287 L226 288 Z M220 286 L222 285 L223 288 L221 289 Z M176 285 L182 284 L187 286 L191 291 L194 292 L194 295 L199 299 L205 298 L207 305 L204 307 L200 307 L199 305 L197 305 L196 308 L190 305 L187 305 L186 303 L188 301 L183 299 L180 294 L182 289 L178 289 Z M192 282 L195 282 L197 285 L203 288 L199 296 L196 295 L195 290 L193 289 L193 286 L191 285 Z M131 283 L133 282 L134 284 L132 285 Z M103 283 L107 282 L110 288 L107 289 Z M140 283 L147 280 L149 286 L152 286 L153 288 L147 289 L141 286 Z M297 280 L299 279 L300 281 L298 282 Z M236 280 L238 279 L239 282 L237 283 Z M110 280 L112 279 L114 282 L112 283 Z M136 279 L138 278 L139 281 L137 282 Z M127 279 L129 278 L130 280 L128 281 Z M228 278 L230 277 L231 279 L229 280 Z M122 278 L124 277 L125 279 L123 280 Z M288 275 L290 274 L291 276 L289 277 Z M245 275 L246 274 L248 275 L264 274 L266 294 L265 295 L247 295 L245 290 Z M196 282 L195 275 L203 274 L204 277 L200 279 L198 283 Z M142 275 L145 274 L146 277 L143 279 Z M215 274 L218 273 L219 275 L216 276 Z M302 272 L304 273 L305 277 L304 286 L302 285 L301 278 Z M117 272 L122 274 L121 277 L117 278 L115 276 Z M289 272 L291 271 L292 273 L290 274 Z M111 271 L112 272 L111 277 L104 281 L103 278 L108 272 Z M223 270 L226 269 L228 271 L228 269 L230 268 L232 270 L233 276 L231 277 L229 274 L226 274 Z M278 267 L283 268 L282 275 L284 276 L283 278 L280 278 L278 276 L277 269 Z M210 267 L211 271 L209 278 L207 279 L206 275 L208 268 Z M180 267 L181 269 L178 272 L177 270 Z M116 268 L118 267 L119 269 L117 270 Z M107 266 L110 265 L111 267 L108 268 Z M256 265 L258 264 L260 267 L257 268 Z M288 264 L290 263 L291 265 L289 266 Z M298 262 L302 266 L303 269 L302 271 L299 269 L297 264 Z M184 262 L186 263 L185 266 L182 265 Z M307 261 L317 261 L318 265 L320 266 L323 264 L329 271 L333 281 L337 282 L335 285 L332 285 L332 291 L329 297 L326 300 L323 300 L324 303 L321 306 L316 305 L315 308 L304 307 L303 306 L304 301 L306 300 L308 303 L312 304 L309 300 L310 299 L316 300 L317 299 L316 295 L318 292 L323 291 L321 287 L327 285 L327 283 L324 283 L322 281 L323 277 L320 278 L319 274 L315 274 L314 276 L315 279 L318 279 L320 281 L320 287 L316 290 L315 293 L312 293 L311 297 L308 296 L307 289 L315 284 L310 282 L310 279 L307 277 L307 274 L309 272 L314 272 L316 269 L313 268 L312 270 L306 271 L303 263 Z M223 262 L225 261 L226 263 L224 264 Z M208 263 L206 267 L203 267 L200 270 L196 269 L192 277 L188 276 L189 280 L188 282 L182 283 L178 280 L179 277 L182 277 L180 274 L182 272 L185 272 L186 265 L190 266 L192 265 L194 261 L203 261 Z M323 261 L325 260 L328 262 L330 267 L328 268 L327 265 L323 263 Z M271 262 L274 260 L276 263 L272 264 Z M236 260 L238 261 L237 264 L234 263 Z M287 259 L288 264 L285 267 L284 264 L285 260 Z M212 260 L214 259 L215 262 L213 263 Z M206 260 L208 259 L209 261 L207 262 Z M186 260 L188 259 L189 261 L187 262 Z M289 259 L291 258 L293 261 L290 262 Z M294 258 L297 257 L298 261 L296 262 Z M261 264 L262 257 L268 259 L268 261 L265 262 L263 265 Z M246 258 L249 257 L250 259 L247 260 Z M219 258 L221 257 L222 260 L220 261 Z M271 257 L273 256 L274 258 L272 259 Z M214 256 L217 255 L218 257 L215 258 Z M121 255 L122 260 L119 263 L117 260 L117 257 Z M305 253 L307 254 L306 258 L303 257 Z M259 252 L261 253 L260 256 L257 255 Z M192 253 L194 252 L195 254 L193 255 Z M113 252 L116 251 L117 254 L115 255 Z M111 252 L108 255 L104 254 L105 252 L109 251 Z M251 250 L253 251 L254 254 L253 256 L250 255 Z M322 249 L325 249 L328 252 L326 258 L324 257 L324 253 L322 254 L320 253 Z M223 249 L224 252 L219 254 L218 252 L221 249 Z M234 249 L236 248 L237 250 L235 251 Z M228 249 L230 248 L231 250 L229 251 Z M189 248 L190 255 L185 258 L184 254 L187 253 L187 249 Z M278 248 L280 247 L281 249 L284 249 L285 251 L279 252 Z M240 248 L243 247 L244 249 L241 250 Z M266 247 L268 246 L269 248 L267 249 Z M217 248 L215 251 L211 252 L208 251 L213 246 Z M192 246 L194 247 L193 252 L191 251 Z M318 244 L320 245 L319 250 L317 249 Z M283 245 L285 244 L292 250 L292 252 L290 253 L284 248 Z M300 241 L301 242 L300 246 L302 249 L297 253 L294 250 L296 242 Z M258 241 L260 240 L261 242 L259 243 Z M246 241 L248 240 L249 242 L247 243 Z M240 239 L238 242 L229 245 L227 247 L225 246 L227 243 L234 239 L238 238 Z M209 241 L211 238 L214 238 L216 243 L215 244 L212 242 L210 243 Z M192 239 L194 238 L195 241 L193 242 Z M270 238 L272 237 L277 239 L280 243 L277 244 L271 241 Z M296 236 L298 238 L297 241 L289 245 L287 243 L290 237 L293 238 Z M263 237 L267 236 L268 239 L265 240 Z M276 236 L278 235 L281 238 L279 239 Z M253 236 L251 239 L245 240 L242 239 L245 236 L251 235 Z M142 232 L145 231 L146 233 L143 234 Z M148 229 L150 228 L151 230 L149 231 Z M160 226 L164 232 L163 233 L160 232 L161 236 L156 243 L155 247 L150 249 L150 251 L153 252 L153 258 L156 259 L154 265 L151 269 L132 278 L129 275 L129 272 L139 248 L146 239 L149 239 L148 237 L149 235 L152 237 L154 235 L153 232 Z M109 229 L110 226 L113 227 L111 230 Z M282 229 L286 225 L291 223 L300 223 L308 226 L309 230 L312 231 L314 238 L313 240 L311 240 L311 243 L315 244 L314 248 L310 249 L310 251 L313 252 L314 254 L310 255 L309 253 L305 252 L305 249 L307 248 L307 245 L303 241 L303 239 L306 237 L305 233 L301 235 L296 234 L292 235 L290 232 L288 235 L285 236 L281 234 Z M225 225 L228 229 L231 238 L230 239 L226 238 L226 241 L221 245 L219 245 L218 243 L220 241 L220 238 L224 237 L223 233 L220 232 L219 235 L216 234 L211 235 L210 232 L208 232 L206 236 L204 237 L207 240 L207 246 L203 248 L206 252 L206 255 L199 257 L197 255 L197 253 L199 252 L199 249 L196 250 L195 245 L201 242 L201 238 L198 237 L198 233 L203 229 L203 226 L206 224 L220 223 Z M168 222 L169 225 L165 229 L163 227 L163 224 L165 222 Z M146 222 L147 226 L145 229 L143 229 L142 227 L144 223 Z M263 228 L262 230 L257 231 L255 227 L251 233 L245 230 L248 226 L251 226 L254 221 L256 221 Z M216 217 L219 216 L222 218 L222 220 L217 221 Z M170 217 L173 216 L174 218 L171 219 Z M147 218 L150 216 L153 219 L148 220 Z M238 214 L239 216 L234 220 L233 218 Z M137 212 L140 213 L141 216 L145 220 L140 221 L135 218 Z M267 212 L269 211 L270 213 L268 214 Z M252 211 L255 217 L252 220 L249 219 L250 223 L244 226 L243 234 L242 235 L240 233 L235 234 L233 232 L235 223 L242 216 Z M160 211 L164 215 L162 219 L160 219 L159 215 L157 214 Z M255 208 L257 208 L269 217 L271 217 L271 215 L273 214 L277 218 L277 220 L275 221 L275 224 L277 227 L274 233 L271 233 L270 235 L268 234 L268 229 L270 228 L270 225 L265 225 L256 218 L254 211 Z M168 208 L171 210 L170 214 L165 213 Z M157 206 L158 210 L153 212 L152 211 L153 208 Z M148 207 L150 206 L151 208 L149 209 Z M228 192 L234 191 L238 195 L231 196 L228 194 Z M165 192 L167 191 L168 193 L166 194 Z M145 190 L147 189 L148 192 L146 193 Z M254 189 L257 188 L258 190 L255 191 Z M259 187 L262 186 L263 189 L260 190 Z M248 187 L250 186 L251 188 L249 189 Z M286 181 L287 183 L285 184 L285 188 L287 188 L288 191 L283 195 L282 193 L279 192 L278 187 L281 182 Z M229 180 L231 183 L231 186 L226 191 L224 191 L223 184 Z M261 180 L263 179 L264 181 L262 182 Z M256 180 L258 179 L260 183 L257 184 Z M165 180 L168 179 L169 182 L167 183 Z M249 178 L250 180 L249 183 L247 184 L246 180 Z M251 175 L258 174 L262 178 L261 179 L257 177 L252 178 Z M167 171 L170 170 L172 175 L169 176 Z M160 170 L161 171 L160 174 L157 175 L156 173 Z M204 170 L206 169 L207 171 L205 172 Z M199 163 L201 162 L202 164 L200 165 Z M208 161 L211 160 L212 162 L209 163 Z M278 159 L280 160 L286 174 L285 179 L281 178 L281 169 L277 161 Z M275 156 L277 155 L278 157 L276 158 Z M208 155 L212 154 L213 156 L209 157 Z M171 150 L173 151 L172 155 L170 154 Z M205 151 L206 147 L210 148 L207 152 Z M202 145 L203 147 L198 151 L197 150 L198 147 Z M208 140 L210 139 L211 141 L209 142 Z M253 131 L256 130 L257 132 L254 133 Z M237 131 L237 129 L240 126 L245 126 L247 128 L247 130 L242 135 L240 135 Z M267 117 L269 116 L270 118 L268 119 Z M263 117 L264 114 L267 115 L265 118 Z M249 114 L248 118 L245 119 L241 118 L242 116 L245 116 L246 113 Z M248 113 L250 109 L254 108 L260 109 L262 111 L260 115 L257 115 L256 113 L253 112 L251 114 Z M258 106 L260 105 L261 107 L259 108 Z M252 99 L257 97 L260 102 L257 104 L256 102 L253 102 Z M252 81 L254 82 L253 86 L251 85 Z M252 64 L254 63 L255 65 L253 66 Z"/></svg>
