<svg xmlns="http://www.w3.org/2000/svg" width="512" height="512" viewBox="0 0 512 512" aria-hidden="true" focusable="false"><path fill="currentColor" fill-rule="evenodd" clip-rule="evenodd" d="M250 17 L247 19 L252 33 L237 58 L247 88 L199 129 L186 168 L166 160 L171 176 L147 239 L148 266 L155 283 L172 302 L188 310 L221 312 L243 299 L248 288 L244 266 L232 259 L216 264 L229 254 L241 254 L256 262 L273 290 L274 319 L268 338 L255 327 L237 332 L222 324 L188 327 L181 322 L181 312 L171 324 L174 352 L186 363 L200 364 L199 377 L205 387 L186 407 L200 449 L194 486 L217 496 L231 487 L259 486 L289 467 L318 436 L327 414 L344 394 L355 390 L348 379 L364 358 L363 339 L349 322 L363 311 L366 293 L362 282 L344 271 L352 258 L350 235 L362 224 L344 222 L329 227 L332 211 L326 200 L307 192 L305 165 L309 153 L297 155 L277 168 L277 155 L287 149 L293 128 L282 113 L272 108 L280 95 L280 83 L274 71 L257 59 L259 30 Z M193 406 L198 407 L206 416 L214 438 L213 465 L211 467 L206 482 L202 486 L200 486 L197 483 L197 481 L201 473 L201 469 L203 467 L204 462 L204 441 L203 435 L201 434 L201 431 L198 425 L198 422 L190 411 L190 408 Z M199 400 L203 400 L213 409 L217 416 L221 429 L221 434 L223 436 L223 462 L221 464 L221 468 L217 480 L212 488 L209 488 L208 486 L211 479 L213 478 L216 469 L218 457 L218 439 L215 425 L207 410 L198 402 Z M209 396 L216 396 L225 404 L230 414 L231 419 L233 421 L236 437 L236 459 L233 474 L227 485 L219 492 L217 492 L216 489 L223 477 L226 467 L227 437 L223 420 L216 406 L208 398 Z M347 385 L339 393 L330 408 L316 415 L307 416 L307 418 L322 420 L310 438 L296 445 L279 445 L283 448 L298 451 L292 459 L273 470 L257 468 L265 475 L258 482 L252 484 L234 483 L239 467 L249 465 L259 459 L268 450 L273 439 L281 438 L290 431 L297 420 L298 408 L313 397 L319 385 L328 381 L339 381 Z M323 371 L327 375 L326 378 L322 377 Z M175 327 L178 325 L184 331 L217 327 L228 331 L235 343 L243 333 L251 331 L258 334 L263 341 L263 356 L267 358 L269 365 L264 388 L247 405 L233 411 L225 397 L237 392 L245 384 L248 375 L245 360 L238 355 L227 357 L221 365 L226 375 L233 374 L226 369 L226 364 L230 360 L237 360 L244 367 L244 377 L230 391 L214 391 L207 385 L204 366 L215 351 L195 360 L185 358 L176 346 Z M348 327 L356 335 L361 349 L355 368 L345 375 L333 374 L327 368 L327 358 L335 353 L340 357 L340 361 L344 362 L343 352 L338 349 L324 352 L319 360 L314 387 L303 401 L293 403 L294 416 L288 427 L278 435 L267 436 L265 447 L253 458 L240 463 L240 438 L255 430 L266 418 L269 408 L288 395 L295 381 L295 364 L307 352 L312 335 L329 324 L338 323 Z M328 312 L330 311 L336 319 L329 320 Z M342 290 L341 292 L334 293 L329 299 L328 303 L325 302 L326 296 L331 289 L338 288 Z M186 283 L188 282 L189 284 L187 285 Z M178 277 L180 276 L186 281 L186 283 L184 284 L178 279 Z M242 270 L245 280 L244 289 L234 302 L222 307 L208 307 L201 304 L196 299 L193 291 L194 282 L203 291 L207 293 L221 294 L229 288 L231 284 L231 275 L226 278 L222 278 L219 274 L220 269 L224 265 L233 264 Z M283 256 L295 262 L305 277 L306 292 L298 308 L307 320 L307 339 L302 352 L295 359 L289 361 L292 377 L284 394 L272 402 L266 402 L264 413 L260 419 L249 429 L240 432 L235 415 L253 406 L267 391 L273 377 L273 371 L285 351 L292 326 L293 294 L285 267 L279 258 Z M219 239 L227 237 L250 239 L262 246 L280 267 L286 282 L289 311 L284 341 L274 362 L269 356 L268 351 L277 324 L278 297 L274 280 L266 266 L257 257 L239 249 L225 250 L214 258 L210 265 L210 273 L215 280 L226 285 L220 290 L214 291 L205 287 L199 280 L197 272 L199 259 L204 251 Z M307 237 L308 236 L312 237 L318 236 L319 238 L313 245 L311 245 Z M173 233 L175 233 L179 239 L184 241 L179 247 L176 255 L176 269 L178 274 L177 276 L173 273 L173 270 L170 266 L168 256 L170 239 Z M347 227 L348 254 L346 262 L341 268 L328 274 L324 282 L336 275 L352 278 L361 289 L362 304 L354 315 L340 316 L334 310 L333 301 L339 295 L345 301 L347 291 L338 284 L328 287 L322 296 L325 319 L314 331 L309 314 L304 308 L310 292 L307 273 L309 262 L322 240 L333 231 Z M179 266 L180 255 L184 247 L192 241 L201 241 L201 232 L203 231 L205 224 L213 217 L229 217 L237 223 L238 228 L241 228 L250 222 L262 221 L272 226 L282 240 L282 250 L277 255 L261 240 L250 235 L240 233 L219 235 L206 243 L197 254 L194 263 L194 280 L185 277 Z M233 186 L235 185 L237 188 L247 192 L255 192 L268 186 L269 190 L267 196 L267 205 L266 206 L259 205 L257 203 L254 203 L242 198 L234 190 Z M176 168 L183 172 L187 182 L186 193 L178 204 L186 203 L192 206 L198 212 L200 221 L196 233 L188 237 L184 237 L179 233 L179 228 L184 226 L188 229 L188 224 L184 220 L175 222 L170 228 L166 239 L165 263 L171 278 L189 291 L190 297 L195 303 L194 306 L180 302 L162 286 L151 259 L152 232 L154 231 L158 215 L173 187 Z M300 159 L302 160 L300 169 L304 180 L304 190 L298 200 L314 198 L319 200 L327 211 L327 221 L324 227 L313 233 L310 233 L303 225 L306 218 L312 218 L309 212 L302 212 L296 219 L297 231 L309 249 L304 266 L294 256 L286 253 L285 236 L274 222 L271 214 L271 196 L279 176 L290 164 Z M235 136 L255 136 L262 140 L273 154 L273 170 L269 177 L257 187 L242 186 L234 174 L236 163 L243 157 L251 158 L254 162 L252 168 L247 168 L248 172 L257 170 L258 160 L252 153 L241 152 L236 154 L230 160 L226 170 L226 181 L231 193 L245 205 L266 209 L267 219 L260 217 L242 219 L232 215 L218 203 L211 189 L209 180 L211 161 L218 148 Z M285 122 L288 128 L288 138 L285 145 L277 150 L266 138 L255 132 L236 132 L223 139 L210 154 L206 167 L206 178 L203 178 L203 166 L208 147 L217 134 L228 124 L239 117 L259 112 L273 113 Z M252 42 L250 55 L254 62 L270 73 L275 80 L275 98 L268 105 L232 116 L220 125 L206 142 L199 160 L199 183 L204 198 L214 213 L205 217 L198 205 L188 199 L191 187 L191 161 L197 142 L206 127 L221 112 L250 92 L253 82 L242 66 L241 58 L246 48 Z"/></svg>
