<svg xmlns="http://www.w3.org/2000/svg" width="512" height="512" viewBox="0 0 512 512" aria-hidden="true" focusable="false"><path fill="currentColor" fill-rule="evenodd" clip-rule="evenodd" d="M214 334 L208 335 L208 341 L206 342 L207 346 L210 347 L213 346 L212 342 L217 339 L217 337 Z M183 333 L183 335 L185 336 L184 340 L186 340 L188 336 L185 333 Z M330 332 L330 334 L334 335 L334 333 Z M298 332 L297 339 L301 342 L303 346 L306 346 L307 343 L305 339 L303 338 L303 335 L300 332 Z M336 326 L336 328 L340 329 L340 327 Z M175 330 L181 328 L181 326 L176 326 Z M143 322 L143 325 L152 324 L152 322 L150 323 Z M379 307 L378 313 L381 319 L386 320 L387 322 L390 321 L399 322 L401 325 L403 325 L404 323 L407 323 L415 327 L414 324 L402 319 L400 313 L397 313 L396 310 L393 310 L389 305 L383 304 Z M382 316 L385 315 L386 317 L383 318 Z M383 307 L386 306 L387 308 L384 309 Z M326 304 L323 304 L303 325 L304 328 L306 328 L309 325 L311 326 L308 332 L312 333 L314 338 L317 338 L335 320 L335 318 L338 315 L338 313 L333 314 L332 310 L328 309 Z M315 330 L316 332 L313 334 L312 332 Z M317 327 L319 326 L320 328 L318 329 Z M329 316 L330 318 L325 322 L324 320 Z M322 312 L323 315 L316 320 L315 318 Z M315 304 L313 304 L311 308 L313 308 Z M186 304 L185 306 L183 306 L182 309 L180 309 L183 316 L181 317 L178 314 L176 314 L176 317 L184 325 L188 326 L188 329 L197 338 L197 340 L200 340 L200 337 L205 335 L205 332 L210 327 L210 325 L188 304 Z M195 330 L198 329 L201 333 L198 334 Z M200 325 L203 324 L205 328 L203 329 Z M192 313 L198 320 L188 326 L185 320 L186 319 L192 320 L192 318 L189 315 L190 313 Z M184 309 L187 308 L188 311 L186 312 Z M134 308 L128 304 L124 305 L120 313 L116 313 L115 316 L112 316 L108 321 L98 325 L98 327 L110 322 L113 323 L118 321 L120 322 L123 321 L126 323 L128 320 L135 319 L136 316 L134 315 Z M126 316 L130 315 L131 317 L127 318 Z M130 310 L132 309 L133 311 L131 312 Z M126 307 L128 306 L129 308 L127 309 Z M183 298 L177 298 L169 306 L169 308 L174 307 L177 304 L180 304 Z M338 238 L338 249 L337 250 L338 252 L338 266 L337 267 L338 275 L341 276 L349 275 L350 269 L353 270 L353 275 L356 275 L356 238 L353 238 L352 243 L349 242 L349 238 L343 237 Z M343 263 L345 264 L345 274 L344 275 L342 274 L342 264 Z M350 259 L353 260 L352 267 L349 266 Z M343 243 L345 244 L345 254 L349 254 L350 248 L353 249 L353 257 L346 259 L344 262 L342 261 L342 244 Z M342 239 L344 238 L345 241 L343 242 Z M280 222 L279 235 L276 237 L279 244 L276 245 L277 248 L272 253 L275 259 L278 259 L279 256 L281 257 L281 260 L279 261 L281 266 L286 266 L288 265 L286 260 L288 259 L290 253 L288 250 L289 246 L286 243 L285 236 L282 230 L283 223 Z M281 260 L283 259 L284 261 L282 262 Z M281 253 L287 252 L288 254 L282 255 Z M280 248 L283 247 L284 249 L281 250 Z M361 189 L361 191 L365 190 L367 192 L373 190 L373 188 Z M174 183 L176 187 L180 185 L180 183 L177 182 Z M329 179 L329 181 L333 183 L333 181 Z M310 177 L309 181 L305 182 L303 189 L312 198 L315 198 L316 202 L324 210 L327 210 L328 205 L330 206 L333 205 L330 199 L332 198 L337 200 L337 197 L328 188 L328 184 L324 184 L316 176 Z M318 197 L320 196 L321 198 L319 199 Z M320 191 L324 190 L327 193 L321 194 Z M316 185 L318 184 L319 186 L317 187 Z M199 176 L196 176 L191 181 L186 180 L188 175 L186 175 L185 177 L180 177 L182 181 L185 180 L187 181 L188 187 L190 187 L192 190 L190 193 L187 193 L186 189 L183 189 L175 197 L175 200 L179 201 L180 205 L185 204 L187 205 L185 210 L188 210 L209 190 L209 186 L206 186 L202 191 L200 190 L204 184 L204 179 L200 178 Z M190 199 L192 198 L193 200 L191 201 Z M182 197 L183 199 L180 201 L179 199 Z M196 183 L198 182 L199 184 L197 185 Z M239 157 L239 161 L242 162 L242 164 L239 165 L239 168 L245 169 L244 171 L239 172 L240 176 L273 176 L274 175 L274 172 L268 171 L269 168 L274 168 L274 165 L271 164 L271 162 L274 161 L274 157 Z M260 169 L265 168 L266 171 L261 172 Z M249 169 L254 168 L257 169 L258 171 L250 172 Z M243 162 L244 161 L266 161 L267 164 L266 165 L257 164 L244 165 Z M406 99 L404 99 L396 108 L398 109 L406 101 Z M256 17 L251 71 L243 79 L240 68 L234 69 L239 82 L234 91 L238 95 L229 95 L233 106 L223 109 L233 130 L223 134 L219 129 L222 135 L250 133 L254 140 L213 141 L202 111 L189 99 L196 123 L194 131 L202 137 L202 145 L186 160 L193 144 L188 142 L191 148 L185 152 L184 136 L179 130 L172 142 L154 123 L154 139 L161 143 L150 142 L144 130 L107 99 L129 127 L130 135 L139 134 L138 140 L142 138 L146 143 L146 151 L141 153 L129 146 L139 167 L125 167 L146 184 L152 182 L140 190 L149 190 L164 174 L168 178 L145 202 L138 202 L126 191 L122 194 L98 187 L115 196 L125 209 L137 204 L136 213 L141 213 L141 239 L137 241 L141 254 L133 250 L132 216 L127 221 L133 223 L131 229 L110 221 L114 230 L103 233 L94 228 L96 238 L82 239 L70 233 L73 241 L96 248 L87 256 L75 249 L70 256 L60 250 L28 257 L81 266 L80 259 L92 260 L95 267 L79 271 L70 280 L83 274 L94 285 L99 280 L113 281 L110 292 L131 284 L129 296 L139 288 L137 309 L145 311 L171 337 L163 339 L158 328 L152 327 L152 332 L136 334 L136 339 L125 344 L130 348 L139 346 L128 367 L143 358 L146 369 L133 381 L129 379 L130 386 L123 389 L109 412 L139 388 L149 371 L160 370 L152 379 L156 390 L172 371 L179 383 L184 377 L184 361 L188 372 L193 369 L189 360 L174 350 L175 343 L202 368 L203 377 L195 381 L198 391 L194 392 L190 413 L211 386 L213 372 L254 374 L250 380 L224 377 L219 383 L229 380 L223 403 L233 399 L230 418 L238 418 L239 430 L234 444 L243 434 L248 416 L256 426 L253 436 L249 432 L248 437 L253 442 L250 451 L257 496 L261 464 L257 460 L262 458 L264 448 L260 444 L265 439 L259 421 L268 419 L270 432 L279 444 L275 417 L284 418 L281 404 L290 403 L281 382 L290 379 L291 384 L295 383 L289 377 L263 380 L259 374 L299 372 L300 377 L307 376 L303 386 L323 413 L319 381 L310 374 L318 361 L322 371 L329 361 L335 382 L341 371 L359 390 L359 378 L353 370 L367 373 L370 383 L376 383 L374 388 L383 391 L403 411 L383 386 L384 379 L374 379 L375 374 L367 370 L370 359 L384 366 L374 346 L388 344 L370 332 L360 331 L370 325 L367 321 L352 338 L345 336 L366 313 L376 309 L372 260 L380 259 L381 297 L387 292 L380 290 L382 284 L403 292 L399 281 L414 280 L419 285 L419 280 L428 275 L443 280 L417 265 L426 257 L437 265 L443 256 L452 265 L456 260 L485 256 L480 252 L478 256 L461 254 L457 249 L443 252 L432 245 L437 239 L442 241 L443 233 L430 239 L419 228 L400 232 L403 221 L382 229 L384 217 L379 220 L381 245 L372 254 L372 213 L389 208 L393 200 L415 189 L381 194 L380 208 L355 189 L362 181 L378 179 L379 173 L388 169 L384 164 L371 168 L385 146 L373 150 L370 156 L367 143 L376 140 L375 135 L380 136 L382 126 L391 123 L394 112 L379 121 L368 139 L355 142 L361 133 L359 123 L352 125 L351 133 L341 142 L335 131 L329 153 L323 149 L324 143 L320 144 L327 160 L311 145 L319 132 L324 99 L304 125 L300 141 L258 140 L263 133 L293 135 L295 130 L283 132 L290 111 L281 106 L284 95 L273 101 L279 69 L266 95 L258 89 L265 75 L257 70 L264 67 L257 63 L264 56 L258 49 Z M252 456 L255 455 L256 457 L253 458 Z M254 449 L257 448 L259 452 L258 453 L255 452 Z M256 441 L259 440 L260 442 L257 443 Z M260 431 L263 434 L262 437 L260 436 L259 433 Z M258 410 L260 409 L261 411 L259 412 Z M252 410 L254 409 L255 412 L253 413 Z M243 408 L244 411 L241 412 L241 415 L239 416 L238 411 L241 408 Z M270 408 L272 407 L273 409 L271 410 Z M245 408 L247 407 L249 410 L247 411 Z M264 409 L267 406 L269 407 L267 410 Z M275 406 L277 405 L278 407 L276 408 Z M235 406 L237 405 L238 408 L236 409 Z M247 403 L249 402 L250 404 L248 405 Z M252 402 L255 401 L259 407 L256 408 L255 406 L253 406 Z M264 396 L265 399 L259 405 L257 402 L258 398 Z M243 397 L245 396 L246 398 L244 399 Z M248 397 L250 394 L254 396 L254 398 L251 400 Z M254 392 L258 391 L259 394 L256 396 Z M270 390 L271 396 L268 399 L267 398 L268 391 Z M280 390 L282 389 L283 391 L281 392 Z M234 386 L235 391 L231 392 L230 390 Z M275 388 L276 385 L280 386 L277 389 Z M262 385 L266 388 L265 392 L262 391 L261 388 Z M203 389 L205 385 L208 386 L205 390 Z M252 384 L253 385 L251 387 L252 391 L248 392 L247 391 L248 386 Z M306 382 L308 383 L309 387 L308 389 L305 386 Z M198 381 L200 380 L201 382 L199 383 Z M353 380 L355 379 L356 381 L354 382 Z M275 380 L278 379 L279 381 L276 382 Z M257 378 L259 377 L260 379 L258 380 Z M254 377 L256 378 L255 382 L252 381 Z M205 377 L208 376 L209 378 L206 379 Z M167 369 L169 368 L170 370 L168 371 Z M344 366 L346 367 L345 371 L343 370 Z M147 369 L149 365 L156 366 L155 368 L150 370 Z M358 366 L359 365 L362 366 L364 364 L366 366 L366 369 L365 370 L361 369 Z M349 364 L353 363 L354 365 L350 366 Z M211 365 L213 363 L300 363 L302 367 L298 371 L259 371 L258 369 L255 369 L254 371 L213 371 Z M159 364 L161 363 L162 365 L160 366 Z M340 363 L342 362 L343 364 L341 365 Z M336 362 L338 363 L339 366 L338 368 L335 367 Z M176 362 L178 363 L178 368 L174 369 L173 367 Z M159 358 L161 357 L162 359 L160 360 Z M358 354 L360 355 L359 362 L356 361 Z M154 354 L156 355 L156 358 L158 360 L157 362 L155 362 L153 359 Z M168 353 L169 355 L165 358 L164 356 Z M370 353 L373 352 L374 354 L371 355 Z M344 353 L346 352 L347 354 L345 355 Z M139 353 L141 352 L142 354 L140 355 Z M361 353 L364 351 L366 354 L362 355 Z M161 351 L163 350 L164 352 L162 353 Z M261 350 L270 349 L271 352 L262 353 Z M247 350 L250 349 L251 352 L248 353 Z M148 350 L150 349 L151 351 L149 352 Z M361 348 L363 347 L364 349 L362 350 Z M158 347 L159 348 L158 351 L155 352 L154 350 Z M369 347 L371 346 L372 348 L370 349 Z M141 347 L145 346 L146 348 L142 349 Z M158 346 L161 345 L162 347 L159 348 Z M338 343 L339 349 L333 356 L330 356 L325 360 L321 361 L320 359 L329 350 L329 348 L332 347 L335 343 Z M138 344 L140 343 L141 345 L139 346 Z M259 343 L262 342 L263 345 L260 346 Z M249 343 L253 342 L254 345 L250 346 Z M241 343 L244 342 L245 345 L242 346 Z M371 340 L374 341 L373 346 L371 346 L369 343 Z M362 338 L363 337 L367 338 L368 341 L366 342 Z M151 338 L147 342 L143 340 L144 338 L148 337 Z M215 355 L223 337 L227 333 L287 333 L292 341 L299 360 L268 361 L268 357 L274 357 L274 346 L269 345 L270 342 L274 342 L273 338 L260 338 L258 343 L254 341 L254 338 L238 339 L239 349 L243 350 L242 353 L239 353 L239 357 L254 357 L254 348 L258 347 L260 350 L259 357 L264 357 L264 361 L218 361 Z M260 325 L261 324 L264 325 L264 322 L269 316 L277 320 L280 324 L283 323 L285 325 L286 330 L285 331 L268 331 L267 330 L261 331 Z M256 328 L255 331 L249 330 L229 331 L228 325 L233 324 L235 320 L240 319 L245 316 L247 320 Z M248 311 L253 310 L255 312 L256 319 L258 316 L258 312 L260 310 L264 310 L266 313 L266 316 L258 324 L255 324 L248 318 Z M205 309 L208 307 L221 307 L227 318 L226 325 L221 326 Z M372 306 L374 305 L375 307 L373 308 Z M138 306 L140 305 L141 307 L139 308 Z M287 305 L288 307 L285 316 L282 319 L276 318 L271 315 L273 308 L276 309 L278 312 L280 312 L279 307 L283 304 Z M226 304 L230 303 L234 307 L233 311 L235 311 L237 307 L241 308 L243 314 L239 317 L230 319 L228 315 L228 309 L225 308 Z M227 298 L229 297 L230 299 L228 300 Z M248 291 L250 290 L251 292 L249 293 Z M150 303 L153 304 L155 309 L159 299 L181 290 L223 332 L211 359 L207 356 L208 353 L204 351 L206 360 L209 363 L206 367 L178 342 L177 337 L174 337 L146 309 Z M303 289 L305 292 L305 303 L300 305 L291 304 L289 300 L293 296 L295 296 L297 299 L300 299 L300 297 L296 296 L295 294 L299 291 L300 288 Z M208 291 L213 288 L217 296 L223 299 L224 302 L220 305 L209 304 L208 303 Z M294 288 L296 287 L297 289 L295 290 Z M365 304 L365 311 L339 337 L336 337 L335 342 L307 367 L305 363 L309 361 L308 356 L301 358 L291 336 L292 327 L285 325 L285 319 L290 309 L303 307 L306 310 L307 291 L320 285 L325 285 L335 291 L332 302 L336 304 L339 311 L344 304 L337 298 L338 293 L342 297 L347 296 L352 302 L356 300 Z M281 285 L283 284 L284 286 L282 287 Z M294 285 L293 288 L291 287 L289 288 L288 294 L290 296 L287 299 L284 300 L282 297 L270 303 L265 304 L243 303 L240 301 L239 298 L236 300 L230 296 L231 293 L235 293 L236 295 L249 296 L255 293 L261 294 L264 296 L274 295 L280 293 L286 287 L288 282 L291 282 Z M260 290 L263 289 L268 282 L273 287 L272 293 L269 293 L268 290 L265 293 L263 293 Z M217 283 L225 282 L229 290 L229 293 L226 294 L223 290 L220 293 L217 290 L218 288 L220 288 Z M228 282 L230 281 L233 287 L238 287 L239 285 L241 285 L241 282 L243 281 L247 287 L247 292 L239 293 L232 290 L229 287 Z M390 279 L392 280 L391 284 L388 282 Z M281 279 L283 278 L284 280 L282 281 Z M229 279 L231 278 L232 280 L230 281 Z M127 279 L123 284 L119 283 L122 279 L124 278 Z M273 278 L275 277 L276 280 L274 281 Z M406 277 L408 276 L409 278 L407 279 Z M278 277 L281 276 L282 278 L279 279 Z M231 277 L235 276 L236 278 L232 279 Z M111 277 L113 276 L114 278 L112 279 Z M103 277 L106 276 L107 278 L104 279 Z M90 277 L95 275 L97 278 L91 279 Z M417 274 L421 276 L419 280 L416 278 Z M270 274 L273 273 L274 277 L271 278 Z M249 273 L251 272 L253 276 L251 277 Z M103 272 L105 271 L106 273 L104 274 Z M99 270 L102 273 L101 276 L97 274 Z M407 273 L411 269 L415 271 L413 274 Z M313 269 L317 273 L319 282 L313 285 L312 287 L305 287 L303 283 L306 279 L315 281 L315 279 L308 276 L308 272 Z M395 269 L399 268 L400 270 L396 271 Z M252 269 L254 268 L255 270 L253 271 Z M202 268 L205 270 L205 276 L198 279 L198 281 L204 282 L204 280 L207 279 L210 283 L210 285 L207 287 L198 286 L197 284 L193 282 L195 275 Z M113 269 L116 268 L117 270 L114 271 Z M259 267 L262 272 L257 277 L256 276 L258 272 L257 268 Z M408 265 L410 264 L411 267 L409 268 Z M101 264 L104 263 L105 267 L103 268 Z M160 262 L163 261 L164 265 L161 266 Z M127 262 L127 264 L123 267 L118 267 L115 265 L116 263 L122 261 Z M260 260 L261 262 L265 263 L268 270 L267 272 L268 276 L262 288 L258 290 L254 290 L251 288 L251 284 L249 285 L247 284 L244 277 L246 276 L248 279 L257 280 L262 276 L263 269 L257 263 L257 261 Z M139 260 L141 267 L140 277 L141 284 L134 286 L133 285 L134 276 L131 267 L135 266 L136 260 Z M73 261 L75 260 L78 263 L76 264 Z M102 260 L104 259 L105 261 L103 262 Z M183 257 L187 259 L188 265 L192 265 L196 268 L189 285 L193 285 L197 287 L198 289 L206 291 L205 293 L206 301 L204 308 L185 290 L185 286 L183 285 L182 280 L182 268 L183 267 L182 258 Z M63 257 L65 256 L66 258 L64 259 Z M396 256 L393 260 L389 259 L390 257 L394 255 Z M80 256 L82 255 L83 258 L81 259 Z M118 254 L120 255 L119 259 L117 258 Z M71 255 L73 254 L74 256 L72 257 Z M120 254 L122 253 L123 255 L121 256 Z M328 252 L331 254 L330 261 L331 277 L328 278 L328 281 L331 283 L330 286 L325 285 L322 282 L320 277 L322 273 L317 270 L317 268 L321 266 L323 262 L328 258 L328 256 L326 255 Z M130 253 L133 252 L134 254 L131 255 Z M79 253 L81 252 L82 254 L80 255 Z M227 252 L230 251 L234 252 L235 254 L230 256 Z M76 252 L78 251 L79 253 L77 254 Z M431 252 L436 250 L439 251 L441 254 L432 255 Z M161 249 L164 250 L162 258 L160 257 Z M311 248 L317 248 L324 256 L324 258 L317 266 L310 265 L310 260 L315 257 L315 256 L310 255 Z M196 248 L204 249 L203 255 L197 257 L197 260 L199 260 L201 257 L203 258 L204 264 L203 267 L200 265 L199 266 L195 265 L189 257 Z M388 265 L389 261 L394 262 L395 260 L401 257 L404 257 L398 253 L397 250 L398 247 L401 248 L405 252 L407 252 L406 249 L408 248 L412 252 L407 257 L409 259 L413 258 L414 261 L409 263 L408 265 L406 264 L407 261 L404 261 L403 263 L395 264 L394 267 L390 267 Z M389 247 L392 246 L394 250 L390 251 Z M230 247 L232 246 L234 249 L231 250 Z M128 250 L127 252 L115 251 L114 255 L109 256 L115 259 L115 262 L112 264 L107 260 L105 260 L103 257 L105 254 L103 250 L105 248 L107 249 L107 251 L109 251 L116 246 L123 246 Z M402 246 L404 245 L406 248 L403 249 Z M428 242 L429 245 L431 246 L431 252 L428 255 L424 255 L419 251 L419 249 L422 248 L423 245 Z M114 243 L116 242 L117 244 L115 245 Z M410 242 L412 241 L413 243 L411 244 Z M101 240 L103 239 L105 242 L102 243 Z M417 235 L420 234 L421 237 L418 238 Z M406 235 L408 234 L409 236 L407 237 Z M393 234 L395 233 L396 235 L394 236 Z M386 233 L388 232 L389 234 L387 235 Z M390 230 L392 229 L393 231 L391 232 Z M118 229 L120 228 L123 229 L124 231 L121 232 Z M306 227 L311 227 L319 231 L316 242 L311 246 L308 243 L308 238 L310 237 L310 235 L305 234 L303 230 Z M296 228 L298 227 L299 229 L297 230 Z M201 227 L207 227 L210 229 L209 233 L206 235 L198 233 L198 235 L202 236 L203 240 L205 241 L204 246 L200 245 L196 241 L194 235 L194 232 Z M153 214 L161 216 L180 226 L179 274 L175 274 L175 259 L171 259 L171 267 L168 267 L168 255 L176 253 L176 239 L171 238 L171 252 L169 253 L168 239 L157 238 L157 275 L160 275 L161 271 L164 272 L164 275 L168 275 L168 271 L170 270 L171 275 L180 277 L180 287 L156 299 L152 298 Z M358 213 L361 214 L360 299 L333 287 L333 226 Z M368 212 L370 214 L370 254 L368 256 L370 259 L370 300 L369 301 L366 300 L364 302 L363 301 L363 214 Z M143 212 L150 214 L150 255 L149 256 L150 260 L150 301 L149 302 L147 300 L145 301 L142 300 L142 259 L144 258 L144 255 L142 254 L142 213 Z M259 211 L268 211 L282 217 L299 235 L304 251 L304 263 L297 282 L295 281 L296 264 L294 264 L293 269 L287 276 L283 276 L282 274 L271 271 L268 265 L269 261 L264 261 L260 258 L263 254 L262 246 L259 246 L257 250 L259 253 L257 257 L252 253 L258 243 L264 242 L262 237 L263 233 L260 231 L259 222 L257 221 Z M255 210 L255 222 L251 227 L251 233 L248 235 L249 240 L254 244 L251 249 L253 259 L249 261 L252 261 L253 265 L250 267 L246 262 L244 262 L245 266 L243 273 L239 274 L236 272 L229 275 L225 271 L221 271 L219 262 L217 262 L218 280 L216 281 L212 274 L214 271 L210 268 L209 262 L210 247 L216 232 L223 223 L226 222 L230 224 L231 230 L222 255 L224 256 L225 261 L232 266 L232 259 L238 259 L240 254 L235 249 L237 244 L235 243 L236 240 L235 233 L233 232 L233 222 L231 222 L230 219 L239 213 L250 211 L252 213 L252 211 Z M208 223 L207 219 L209 210 L213 210 L214 212 L223 211 L225 213 L222 217 L214 215 L216 219 L216 223 L214 225 L210 225 Z M294 209 L296 210 L296 212 L298 212 L299 210 L305 211 L305 222 L301 226 L298 224 L298 220 L296 219 L295 216 L292 217 L290 216 L291 211 Z M309 207 L311 207 L327 223 L326 228 L329 227 L331 230 L331 241 L329 251 L323 251 L319 247 L320 244 L318 242 L321 235 L324 234 L325 232 L324 229 L320 229 L316 226 L311 225 L308 222 L307 210 Z M372 206 L374 205 L375 208 L373 209 Z M126 205 L128 204 L129 206 L127 207 Z M270 199 L282 195 L287 203 L286 211 L284 212 L281 210 L279 207 L280 202 L278 202 L277 205 L274 207 L270 206 L268 204 Z M225 208 L226 202 L228 201 L230 195 L240 198 L245 204 L244 206 L237 207 L235 203 L233 203 L231 205 L232 210 L229 212 L227 212 Z M127 196 L130 195 L131 197 L128 198 Z M258 183 L284 183 L285 187 L290 186 L307 203 L307 205 L305 207 L297 206 L291 207 L285 195 L285 190 L281 193 L268 198 L267 197 L268 193 L265 194 L261 191 L257 186 Z M227 184 L228 183 L252 183 L253 187 L257 189 L266 198 L266 203 L265 204 L258 203 L257 194 L256 194 L255 198 L256 203 L249 204 L247 201 L247 198 L252 194 L253 190 L248 194 L244 193 L240 196 L232 193 L228 189 Z M347 174 L349 174 L352 177 L352 180 L354 179 L356 180 L357 184 L355 188 L345 179 Z M139 173 L141 172 L142 175 L140 176 Z M369 170 L370 173 L367 176 L364 176 L363 175 L364 172 Z M144 171 L146 170 L149 174 L145 175 Z M144 166 L146 165 L147 167 L145 168 Z M367 165 L369 164 L370 167 L368 168 Z M352 165 L356 164 L357 166 L353 167 Z M157 161 L159 162 L158 167 L156 166 Z M352 159 L353 161 L350 163 L349 161 Z M140 160 L142 159 L143 161 L141 162 Z M370 159 L373 158 L374 160 L371 161 Z M331 158 L340 164 L338 170 L335 170 L329 163 Z M182 158 L184 163 L175 171 L174 165 Z M149 158 L151 159 L152 164 L151 166 L148 163 Z M364 157 L366 160 L364 165 L362 166 L361 165 L362 158 Z M159 154 L162 153 L163 155 L160 156 Z M214 156 L218 152 L295 152 L299 154 L290 176 L283 181 L231 181 L223 176 Z M357 151 L360 154 L359 159 L357 158 L356 153 Z M154 151 L159 152 L157 155 L158 159 L157 161 L153 158 Z M340 149 L342 148 L343 150 L341 151 Z M170 149 L172 148 L173 150 L171 151 Z M303 149 L306 147 L311 148 L336 173 L336 176 L339 176 L365 202 L366 208 L361 209 L356 205 L355 213 L338 220 L337 216 L341 216 L342 210 L345 208 L342 207 L332 213 L334 222 L329 221 L297 189 L297 185 L293 185 L290 181 L292 176 L296 176 L299 180 L304 179 L307 166 L300 173 L293 173 L300 156 L308 157 Z M352 147 L354 146 L355 148 L353 149 Z M205 146 L209 149 L204 157 L205 161 L208 161 L207 157 L211 155 L219 172 L215 174 L209 167 L206 168 L205 173 L211 180 L221 176 L223 181 L219 187 L225 188 L228 194 L222 207 L206 207 L204 224 L189 229 L196 246 L184 253 L182 246 L182 232 L186 228 L184 224 L217 189 L181 223 L178 222 L180 213 L177 210 L172 210 L174 218 L170 219 L167 214 L162 215 L155 212 L156 206 L149 209 L146 204 L174 176 L177 176 L179 171 Z M176 145 L178 146 L177 151 L174 148 Z M360 145 L365 143 L366 147 L363 148 Z M336 143 L339 146 L337 151 L335 150 Z M148 143 L153 145 L151 148 L150 154 L148 153 L147 145 Z M343 143 L345 142 L347 146 L344 147 Z M332 143 L334 142 L335 144 L333 145 Z M211 149 L213 147 L212 144 L213 142 L254 142 L256 144 L259 142 L298 142 L302 146 L301 149 L216 149 L215 150 Z M168 142 L170 143 L169 147 L166 146 Z M352 142 L354 141 L355 143 L353 144 Z M305 135 L307 134 L308 136 L306 137 Z M206 135 L208 134 L209 136 L207 137 Z M257 135 L258 132 L261 133 L259 136 Z M199 133 L203 132 L204 134 L200 135 Z M277 132 L279 131 L280 133 L278 134 Z M252 132 L254 131 L256 135 L254 136 Z M353 131 L355 130 L356 132 L354 133 Z M313 131 L315 130 L316 132 L314 133 Z M204 131 L206 130 L207 132 L205 133 Z M269 130 L271 129 L272 131 L270 132 Z M196 130 L198 129 L199 131 L197 132 Z M158 129 L160 130 L159 134 L157 133 Z M314 127 L316 126 L317 128 L315 129 Z M305 127 L307 126 L308 129 L306 130 Z M205 127 L207 126 L208 128 L206 129 Z M234 126 L236 125 L237 127 L235 128 Z M308 124 L310 123 L311 125 L309 126 Z M231 123 L233 122 L234 124 L232 125 Z M282 120 L283 123 L281 126 L279 126 L278 124 Z M261 125 L262 120 L267 121 L264 126 Z M268 117 L270 116 L271 119 L269 120 Z M256 116 L259 118 L258 122 L254 121 Z M243 116 L245 117 L244 122 L242 121 Z M272 115 L274 114 L275 116 L273 117 Z M249 113 L253 116 L253 119 L250 125 L247 124 L247 122 L249 121 L248 117 Z M243 114 L245 113 L246 115 L244 116 Z M253 107 L256 108 L255 114 L252 112 Z M261 106 L263 105 L264 107 L262 108 Z M249 105 L252 104 L253 106 L250 107 Z M235 105 L237 104 L238 107 L236 108 Z M256 103 L259 105 L259 107 L262 108 L262 110 L266 115 L265 117 L263 117 L262 120 L260 119 L257 113 L257 108 L255 107 Z M258 100 L260 99 L261 101 L259 102 Z M262 74 L263 79 L260 82 L259 81 L260 75 Z M252 74 L254 79 L252 84 L255 85 L256 87 L253 90 L253 92 L247 96 L244 92 L245 90 L242 85 L245 83 L244 82 L245 80 L250 81 L250 75 Z M253 71 L255 70 L256 72 L254 73 Z M252 58 L255 57 L256 59 L253 60 Z M257 55 L260 54 L261 56 L258 57 Z"/></svg>
