<svg xmlns="http://www.w3.org/2000/svg" width="512" height="512" viewBox="0 0 512 512" aria-hidden="true" focusable="false"><path fill="currentColor" fill-rule="evenodd" clip-rule="evenodd" d="M255 384 L247 402 L242 404 L235 425 L230 426 L229 448 L236 459 L249 465 L257 472 L262 466 L275 460 L280 455 L283 448 L283 437 L281 433 L282 426 L277 425 L270 404 L266 403 Z M253 463 L258 462 L259 464 L255 466 Z M239 456 L241 455 L242 457 L240 458 Z M266 446 L268 445 L269 447 L267 448 Z M279 441 L280 447 L277 454 L273 457 L272 454 L276 448 L276 442 Z M255 439 L259 440 L263 444 L263 450 L258 454 L253 454 L249 450 L249 444 Z M262 437 L264 436 L266 439 L264 440 Z M249 436 L250 438 L247 440 L246 438 Z M277 433 L279 435 L279 438 L277 439 L276 442 L272 442 L270 439 L275 433 Z M235 433 L237 433 L242 439 L240 442 L237 442 L237 450 L240 454 L239 456 L236 455 L232 446 L232 441 L234 440 Z M255 423 L259 425 L258 431 L253 430 L253 425 Z M258 419 L260 418 L262 421 L260 422 Z M254 417 L255 419 L251 422 L250 420 Z M254 415 L257 414 L258 416 L255 417 Z M266 410 L269 412 L274 422 L274 427 L269 436 L267 435 L267 432 L270 427 L269 421 L265 420 L262 416 Z M246 409 L250 416 L248 418 L244 418 L244 424 L242 425 L242 427 L245 432 L245 435 L243 436 L238 427 L238 422 L244 410 Z M257 393 L261 399 L261 402 L263 403 L262 412 L261 413 L259 412 L257 404 L255 404 L254 411 L251 414 L249 403 L253 396 Z M250 17 L236 31 L237 45 L246 59 L229 76 L224 88 L219 85 L217 108 L171 150 L153 173 L136 207 L125 248 L121 244 L124 229 L119 224 L111 245 L114 258 L110 258 L99 284 L98 310 L110 360 L134 398 L165 426 L180 430 L199 454 L240 478 L257 496 L271 479 L312 455 L332 430 L347 426 L383 392 L408 344 L414 289 L403 257 L398 257 L401 244 L393 225 L388 230 L391 244 L387 249 L377 209 L363 179 L342 151 L296 109 L293 84 L288 87 L265 57 L276 43 L274 26 L265 18 Z M308 441 L309 443 L303 449 L299 451 L298 449 L304 443 Z M203 442 L205 441 L210 444 L213 448 L216 445 L218 445 L222 449 L223 454 L227 461 L233 466 L246 473 L254 481 L255 484 L257 484 L259 480 L269 471 L282 464 L287 458 L290 452 L290 449 L294 445 L296 446 L296 449 L293 451 L290 460 L284 467 L267 478 L257 489 L255 489 L244 477 L231 469 L223 461 L220 456 L219 451 L217 450 L213 451 L209 449 Z M325 426 L328 430 L327 435 L322 440 L317 441 L315 447 L308 454 L294 461 L293 459 L297 455 L304 452 L311 445 L313 438 L321 434 L323 431 L323 427 Z M187 426 L189 427 L189 431 L191 434 L195 437 L198 437 L202 446 L208 452 L215 455 L219 459 L218 461 L204 454 L197 447 L195 441 L190 440 L185 435 L184 430 Z M316 423 L320 427 L320 430 L317 434 L314 433 Z M195 423 L197 424 L197 428 L199 432 L198 434 L195 434 L192 431 L192 427 Z M172 413 L174 411 L178 411 L179 413 L176 414 L176 416 L181 420 L185 418 L187 422 L184 424 L177 422 L173 418 Z M282 409 L284 408 L285 410 L283 411 Z M209 408 L211 409 L212 417 L217 421 L216 423 L211 421 L210 418 L208 417 L207 411 Z M226 408 L228 407 L230 410 L228 411 Z M339 407 L346 406 L347 409 L342 411 Z M165 409 L166 406 L173 407 L170 411 Z M199 405 L200 407 L196 417 L187 419 L186 417 L189 415 L191 411 L195 412 L196 407 Z M312 405 L313 404 L315 405 L318 413 L321 412 L324 416 L330 419 L333 419 L336 416 L336 414 L334 413 L335 411 L338 411 L340 413 L340 416 L333 423 L322 424 L321 421 L323 418 L318 419 L316 417 L316 414 L314 412 Z M284 404 L286 403 L287 405 L285 406 Z M321 402 L322 401 L329 402 L332 404 L338 405 L339 407 L332 409 L331 414 L329 415 L325 412 Z M290 401 L292 401 L298 409 L298 414 L294 418 L291 416 L291 414 L287 413 L290 406 L289 404 Z M223 402 L222 406 L225 413 L221 414 L221 416 L218 418 L214 413 L214 409 L216 405 L220 401 Z M191 402 L187 412 L183 415 L181 414 L180 409 L173 407 L174 405 L188 401 Z M283 401 L285 400 L286 402 L284 403 Z M301 393 L302 392 L320 393 L323 394 L324 396 L320 399 L315 398 L314 400 L305 397 Z M273 393 L274 392 L282 396 L284 399 L282 400 L275 396 Z M211 393 L207 397 L198 400 L197 398 L194 399 L191 398 L193 393 L206 393 L207 392 Z M207 387 L209 386 L210 388 L208 389 Z M326 383 L327 385 L325 390 L323 391 L322 387 Z M187 383 L189 384 L190 387 L189 390 L187 389 L186 386 Z M249 377 L250 380 L247 387 L239 395 L232 398 L229 401 L228 406 L226 407 L225 403 L227 399 L239 391 L245 384 L247 378 Z M273 376 L279 382 L278 385 L282 383 L283 384 L282 387 L286 389 L300 391 L301 393 L299 396 L307 403 L313 415 L312 430 L310 434 L304 440 L300 442 L293 441 L290 437 L292 436 L298 439 L301 438 L306 433 L308 429 L307 412 L305 410 L303 419 L298 423 L295 422 L296 420 L299 419 L301 415 L301 408 L294 399 L290 397 L289 395 L280 392 L270 383 L269 379 L272 378 Z M241 373 L244 376 L244 379 L242 383 L240 384 L240 386 L236 388 L235 390 L233 390 L232 392 L223 395 L212 406 L208 406 L204 416 L204 429 L206 433 L211 438 L214 439 L219 437 L221 438 L219 441 L212 442 L208 440 L201 432 L199 426 L200 412 L204 404 L213 396 L211 393 L212 391 L223 390 L236 384 L235 380 Z M249 372 L251 373 L250 377 L248 376 Z M209 372 L213 376 L213 383 L211 386 L209 385 L210 383 L210 377 L208 375 Z M305 371 L306 373 L302 377 L302 382 L305 386 L303 388 L299 383 L299 377 Z M256 364 L263 388 L281 403 L280 408 L276 406 L276 411 L281 415 L287 413 L288 421 L294 426 L306 423 L303 433 L298 436 L293 434 L294 429 L288 431 L290 445 L285 456 L257 478 L228 457 L222 445 L225 432 L218 429 L219 434 L214 436 L206 425 L208 422 L218 426 L224 422 L225 413 L231 415 L236 411 L236 406 L232 408 L231 403 L250 387 Z M243 354 L245 355 L244 364 L242 363 Z M266 353 L270 354 L269 363 L267 362 L267 357 L265 356 Z M250 352 L252 353 L252 370 L251 371 L249 370 L249 353 Z M261 351 L263 352 L264 376 L267 384 L273 391 L272 393 L264 385 L260 371 L260 352 Z M255 351 L258 352 L258 357 L256 359 L254 358 Z M188 350 L188 354 L185 357 L175 360 L173 359 L173 348 L176 344 L181 345 L178 353 L184 351 L185 349 Z M333 343 L336 344 L339 348 L339 358 L338 359 L328 358 L325 355 L326 349 L328 351 L333 351 L331 346 Z M161 339 L163 340 L162 344 L160 343 Z M357 333 L362 336 L363 339 L362 348 L353 347 L349 343 L350 339 L352 340 L352 342 L359 343 L358 336 L356 335 Z M154 333 L156 334 L154 336 L154 342 L160 343 L161 345 L156 348 L150 348 L149 339 L151 335 Z M252 333 L260 332 L262 334 L262 340 L260 343 L254 344 L251 342 L250 336 Z M213 325 L222 324 L235 331 L243 339 L246 350 L245 351 L241 350 L238 342 L233 336 L225 331 L214 329 Z M333 323 L332 326 L301 326 L299 329 L287 331 L275 341 L270 352 L266 349 L270 338 L276 332 L290 324 L293 325 L309 322 L312 323 L332 322 Z M179 323 L180 322 L184 323 L203 322 L212 323 L213 325 L212 326 L180 326 Z M337 322 L340 319 L342 320 L339 323 Z M170 320 L172 319 L173 321 L171 322 Z M344 317 L346 318 L345 321 L342 320 Z M166 318 L168 317 L170 320 L167 321 Z M348 314 L349 316 L346 318 L345 316 Z M163 315 L165 314 L167 317 L165 318 Z M250 312 L252 313 L251 321 L249 320 Z M367 311 L373 311 L379 315 L377 320 L372 325 L368 325 L366 321 L368 319 L374 318 L375 316 L370 317 L366 316 L365 313 Z M135 313 L141 311 L147 312 L146 316 L143 317 L137 316 L138 318 L144 319 L146 321 L144 325 L140 325 L136 321 L133 316 Z M261 307 L263 308 L263 320 L262 321 L260 320 L260 308 Z M323 301 L325 302 L327 307 L327 311 L325 314 L322 313 L323 306 L321 306 L318 311 L315 310 L315 307 L320 302 Z M185 307 L187 302 L189 301 L195 304 L198 309 L194 311 L192 308 L190 308 L190 313 L188 314 L185 310 Z M400 300 L402 305 L402 316 L398 338 L393 353 L385 370 L383 371 L378 381 L361 399 L353 403 L341 404 L327 400 L326 398 L328 396 L331 396 L338 400 L348 401 L349 397 L352 397 L358 394 L365 385 L365 378 L361 374 L362 372 L367 375 L369 380 L368 385 L370 385 L371 381 L376 376 L386 360 L393 343 L398 321 L398 311 L399 310 L398 301 Z M112 300 L114 301 L115 326 L121 348 L130 367 L141 381 L142 384 L144 384 L145 375 L150 372 L151 374 L147 378 L147 384 L153 393 L160 397 L163 397 L164 401 L171 401 L182 396 L186 398 L185 400 L172 404 L159 403 L150 398 L135 382 L129 373 L128 369 L126 368 L115 341 L110 313 L110 307 Z M249 300 L251 299 L252 302 L250 303 Z M294 298 L295 302 L293 309 L291 310 L288 304 Z M261 297 L263 298 L262 305 L260 304 Z M218 297 L222 300 L224 304 L224 307 L222 310 L220 310 L217 301 Z M255 296 L258 297 L258 320 L257 321 L254 320 L254 297 Z M296 295 L300 298 L304 304 L301 310 L299 310 L298 307 L296 306 L297 299 L295 297 Z M216 295 L217 296 L215 299 L216 306 L214 307 L213 310 L211 310 L208 305 L213 297 Z M343 292 L348 297 L345 298 L343 295 L342 296 L343 300 L340 303 L339 296 Z M170 292 L172 293 L173 296 L172 303 L169 300 L170 298 L169 296 L165 301 L163 300 L163 297 Z M255 276 L259 277 L262 280 L262 286 L258 289 L254 289 L250 286 L250 279 Z M366 271 L368 272 L371 279 L371 286 L369 288 L367 288 L365 284 L366 276 L364 276 L363 282 L361 283 L360 286 L356 284 L357 279 Z M309 277 L312 275 L318 280 L319 279 L317 276 L319 274 L318 272 L320 271 L323 275 L322 284 L318 285 L311 282 Z M192 271 L194 272 L193 274 L195 276 L194 278 L195 279 L200 275 L203 276 L203 280 L200 283 L194 285 L191 284 L189 275 Z M145 271 L153 276 L156 280 L156 284 L154 286 L151 285 L148 276 L146 276 L148 282 L146 284 L146 287 L143 288 L141 286 L141 279 Z M175 270 L176 271 L175 276 L167 281 L166 278 L169 277 L170 272 Z M347 267 L349 269 L349 274 L347 279 L344 281 L337 276 L336 272 L338 271 L339 273 L342 273 L343 276 L345 276 L344 271 L345 268 Z M165 267 L167 268 L168 275 L166 277 L163 274 L163 269 Z M312 256 L311 258 L293 261 L290 265 L283 267 L276 273 L273 274 L271 278 L268 277 L268 274 L279 263 L282 263 L296 256 L298 257 L305 255 Z M200 256 L201 255 L208 255 L213 257 L217 256 L228 262 L233 263 L245 274 L244 278 L242 279 L240 275 L235 271 L221 264 L219 261 L201 258 Z M234 247 L236 246 L237 248 L235 249 Z M278 245 L279 248 L276 251 L275 248 Z M233 243 L235 246 L232 247 L231 251 L229 252 L228 251 L229 244 Z M396 242 L397 250 L395 253 L395 261 L404 269 L409 281 L410 293 L412 297 L412 306 L410 309 L410 318 L406 339 L392 373 L379 392 L357 413 L353 412 L346 423 L338 426 L337 424 L342 419 L343 415 L359 405 L379 385 L391 366 L401 341 L405 321 L405 303 L402 291 L395 285 L392 285 L387 290 L387 294 L389 296 L391 296 L392 291 L397 294 L396 299 L392 302 L387 301 L383 297 L381 291 L387 272 L393 276 L393 280 L396 278 L396 274 L387 266 L386 258 L394 247 L394 243 Z M281 242 L283 243 L284 246 L283 252 L281 251 L281 246 L278 245 Z M116 242 L118 243 L120 250 L126 258 L126 264 L117 273 L116 278 L119 280 L119 276 L125 272 L130 284 L131 293 L125 301 L120 302 L117 300 L115 295 L118 291 L120 291 L122 293 L121 296 L124 296 L125 289 L122 286 L117 285 L111 290 L107 304 L107 319 L111 340 L116 355 L131 382 L147 400 L169 415 L170 419 L175 424 L174 426 L166 423 L161 417 L160 413 L156 414 L134 393 L119 371 L108 345 L102 316 L102 300 L100 297 L102 295 L103 282 L107 271 L117 262 L118 259 L115 249 Z M355 231 L358 232 L360 240 L359 245 L356 248 L353 247 L355 245 L355 243 L353 242 L355 236 L353 236 L348 243 L345 242 L345 236 Z M155 231 L163 233 L167 236 L166 239 L161 239 L160 237 L158 237 L159 240 L158 248 L155 247 L153 244 L153 235 Z M331 227 L334 229 L335 239 L332 242 L330 241 L329 237 L330 234 L328 234 L325 239 L322 238 L322 233 L326 229 Z M180 227 L190 232 L189 235 L185 235 L183 231 L181 231 L183 235 L182 242 L180 242 L177 239 L177 233 Z M303 224 L306 226 L311 234 L310 239 L307 241 L304 239 L303 230 L301 231 L300 239 L297 240 L295 238 L295 232 Z M208 224 L218 234 L215 240 L212 239 L212 234 L210 229 L209 229 L208 239 L204 240 L202 238 L202 232 Z M254 210 L258 210 L262 214 L262 219 L258 223 L254 223 L250 219 L250 214 Z M254 207 L257 206 L258 208 L255 209 Z M225 202 L226 201 L231 202 L237 207 L242 209 L244 211 L244 214 L242 215 L232 210 L230 206 L226 204 Z M292 203 L301 197 L314 196 L316 198 L317 208 L314 210 L311 210 L300 206 L295 206 Z M294 197 L292 200 L282 206 L280 210 L275 211 L270 215 L268 214 L268 211 L270 209 L277 206 L282 201 L286 201 L292 196 Z M195 208 L196 198 L198 196 L211 197 L221 203 L218 206 L214 206 L202 210 L198 210 Z M218 196 L220 195 L224 200 L222 201 L218 198 Z M168 194 L171 195 L172 199 L170 204 L168 204 L166 201 L166 197 Z M340 193 L339 198 L335 202 L333 200 L333 196 L337 192 Z M173 192 L175 192 L179 196 L179 200 L177 202 L175 201 L172 195 Z M341 190 L344 192 L346 196 L346 202 L344 204 L342 203 L341 200 L342 195 L340 192 Z M276 183 L279 185 L278 190 L275 188 Z M280 182 L282 181 L285 185 L282 186 Z M231 181 L232 184 L228 188 L227 185 Z M277 180 L279 179 L280 181 L278 182 Z M233 179 L237 183 L237 188 L235 190 L233 189 L234 185 L232 181 Z M260 173 L261 176 L259 181 L259 198 L256 201 L253 200 L253 186 L256 185 L256 176 Z M324 169 L326 170 L329 178 L327 183 L325 183 L323 180 L324 176 L323 174 L319 181 L315 179 L316 175 Z M186 170 L188 169 L196 175 L197 180 L194 181 L189 174 L188 175 L189 180 L187 183 L185 183 L184 175 Z M302 156 L304 157 L305 162 L308 165 L308 172 L305 175 L303 175 L300 172 L300 166 L302 160 L299 163 L298 169 L296 172 L293 173 L291 171 L292 164 Z M209 156 L215 159 L221 165 L222 169 L219 173 L216 172 L212 162 L211 162 L212 173 L210 175 L207 175 L204 172 L204 166 Z M231 138 L232 137 L235 138 L238 141 L239 145 L237 146 L236 144 L234 144 Z M230 135 L231 137 L229 138 L231 145 L229 146 L229 149 L226 150 L224 146 L224 142 L227 136 Z M283 134 L285 135 L288 142 L288 148 L286 150 L283 149 L282 141 L280 141 L277 148 L273 145 L274 141 Z M252 128 L260 128 L264 132 L264 138 L258 144 L252 143 L248 138 L248 133 Z M253 117 L257 115 L259 118 L255 120 Z M290 111 L295 112 L334 148 L351 168 L361 183 L372 205 L378 223 L384 253 L382 258 L380 257 L378 241 L371 215 L355 181 L353 180 L351 175 L348 173 L348 171 L345 169 L345 167 L342 165 L342 163 L336 158 L336 156 L289 113 Z M222 111 L223 113 L177 155 L177 157 L171 162 L171 164 L168 166 L168 168 L164 171 L164 173 L158 180 L142 213 L136 233 L132 258 L130 259 L129 258 L129 248 L134 224 L142 201 L150 185 L170 157 L198 129 L219 111 Z M269 106 L270 110 L266 114 L265 111 L267 109 L265 107 Z M243 106 L248 107 L245 113 L243 112 L242 109 Z M255 105 L259 108 L257 112 L254 111 Z M238 105 L242 115 L252 121 L245 133 L252 147 L251 163 L244 160 L245 152 L237 155 L242 142 L229 127 L221 147 L233 155 L235 161 L230 164 L248 175 L250 205 L245 208 L231 198 L240 189 L236 172 L224 184 L227 195 L221 193 L215 177 L225 168 L208 148 L202 173 L212 178 L213 191 L196 186 L199 175 L186 162 L181 183 L197 192 L187 195 L191 211 L177 207 L182 196 L170 181 L163 201 L187 216 L189 223 L214 210 L237 214 L248 230 L248 267 L244 269 L235 261 L240 247 L229 236 L225 248 L229 258 L213 249 L211 244 L221 234 L209 216 L199 235 L208 244 L208 252 L189 244 L193 232 L177 220 L176 243 L185 244 L190 254 L170 251 L169 234 L153 224 L150 245 L175 259 L160 268 L164 287 L177 278 L176 265 L184 261 L206 262 L199 270 L192 268 L187 273 L187 291 L205 281 L203 271 L207 268 L230 271 L244 288 L245 330 L241 332 L221 319 L219 314 L227 304 L214 287 L206 305 L215 314 L214 320 L198 318 L199 305 L186 295 L182 310 L193 319 L169 315 L166 307 L176 302 L174 287 L161 295 L160 308 L151 291 L159 280 L145 263 L138 286 L148 292 L159 316 L151 318 L144 308 L126 312 L139 328 L145 328 L150 321 L169 325 L161 333 L151 331 L147 335 L143 353 L162 349 L166 344 L164 335 L171 331 L194 329 L184 343 L172 343 L171 365 L190 356 L187 345 L193 339 L215 332 L235 344 L238 369 L231 379 L220 382 L211 369 L202 368 L199 378 L207 377 L202 388 L194 390 L185 379 L178 384 L178 389 L184 389 L181 394 L160 394 L150 384 L152 377 L157 380 L157 371 L147 369 L140 375 L121 337 L117 305 L133 297 L140 231 L161 182 L176 162 Z M251 105 L253 104 L254 106 L252 107 Z M257 103 L259 102 L260 104 L258 105 Z M291 93 L294 98 L294 104 L291 108 L286 107 L286 105 L289 104 L288 101 L286 101 L281 107 L280 106 L281 100 Z M254 93 L255 94 L254 97 L250 98 L249 102 L247 103 L246 102 L247 94 L249 93 L250 95 L252 95 Z M221 93 L232 101 L231 108 L229 107 L229 104 L226 101 L224 102 L226 107 L225 108 L220 107 L218 103 L218 99 Z M255 81 L257 81 L260 85 L260 94 L264 93 L266 95 L267 100 L265 103 L263 102 L262 97 L261 98 L258 97 L257 91 L254 92 L252 91 L252 86 Z M270 70 L272 70 L282 81 L285 89 L284 95 L281 94 L280 85 L274 76 L269 72 Z M242 70 L243 72 L238 76 L233 83 L231 88 L231 94 L229 95 L228 86 L230 81 L240 70 Z M255 64 L275 83 L278 109 L329 154 L356 190 L373 233 L379 296 L383 302 L395 305 L392 334 L379 366 L372 375 L365 369 L355 371 L354 378 L360 377 L362 384 L352 394 L331 394 L328 389 L335 386 L328 379 L318 390 L310 388 L305 382 L308 375 L314 376 L310 368 L300 370 L292 382 L280 378 L274 368 L276 346 L284 337 L298 332 L318 338 L325 345 L322 356 L341 365 L341 344 L328 343 L318 329 L341 331 L348 335 L346 344 L350 349 L369 353 L364 333 L352 333 L343 325 L362 321 L365 327 L373 328 L386 312 L368 308 L361 318 L353 316 L364 292 L374 287 L368 263 L353 280 L361 292 L352 308 L351 295 L338 286 L336 302 L346 307 L343 315 L320 319 L330 310 L326 295 L314 304 L314 318 L298 320 L306 307 L298 286 L286 302 L293 316 L268 332 L267 292 L284 270 L309 270 L307 281 L325 292 L325 272 L313 270 L306 262 L328 261 L336 265 L335 278 L348 287 L352 267 L338 259 L348 250 L361 248 L362 223 L342 236 L345 249 L327 255 L323 250 L338 239 L337 220 L320 231 L323 244 L305 252 L304 244 L312 240 L313 234 L304 216 L292 231 L300 248 L283 258 L287 251 L283 236 L272 248 L278 260 L265 268 L264 231 L274 215 L299 210 L324 223 L323 217 L346 206 L349 197 L342 181 L330 197 L336 206 L321 211 L326 195 L319 196 L316 191 L332 180 L326 162 L313 175 L317 185 L299 191 L301 179 L311 170 L304 149 L288 166 L289 174 L297 177 L292 192 L285 194 L288 183 L276 172 L272 188 L281 198 L267 208 L263 206 L263 178 L270 168 L283 163 L277 159 L281 152 L290 150 L291 142 L284 127 L270 143 L275 155 L267 152 L268 160 L261 163 L261 146 L267 132 L260 121 L271 114 L274 103 L269 103 L267 87 L263 87 L257 72 L245 87 L242 103 L235 102 L238 82 Z M254 55 L255 57 L253 61 L244 70 L243 67 Z M255 52 L259 54 L263 61 L270 68 L269 71 L262 65 L257 56 L254 55 Z M249 29 L253 27 L259 27 L265 31 L266 40 L261 46 L259 46 L257 42 L255 42 L253 46 L251 46 L248 43 L246 39 L246 34 Z M248 21 L260 20 L266 22 L270 26 L273 32 L273 40 L270 47 L266 51 L262 52 L261 50 L265 48 L269 42 L269 32 L261 24 L251 24 L243 32 L244 44 L251 51 L250 52 L246 51 L241 45 L239 40 L240 30 L243 25 Z"/></svg>
