<svg xmlns="http://www.w3.org/2000/svg" width="512" height="512" viewBox="0 0 512 512" aria-hidden="true" focusable="false"><path fill="currentColor" fill-rule="evenodd" clip-rule="evenodd" d="M255 18 L237 65 L200 122 L194 154 L187 147 L160 186 L153 209 L156 240 L128 229 L130 253 L124 272 L123 306 L134 337 L164 361 L155 371 L162 379 L182 387 L188 409 L239 464 L257 495 L273 462 L321 412 L330 387 L356 373 L347 360 L364 351 L381 330 L389 289 L381 249 L382 229 L355 240 L357 205 L350 184 L327 149 L318 149 L313 126 L275 67 Z M254 417 L258 417 L259 420 L266 425 L266 427 L271 432 L274 438 L273 448 L261 462 L259 468 L256 471 L253 469 L248 459 L242 454 L237 444 L238 435 Z M254 370 L285 399 L292 411 L292 427 L284 438 L282 437 L281 430 L262 410 L257 401 L253 402 L248 411 L234 424 L227 438 L220 429 L219 413 L221 406 L228 396 Z M191 387 L210 373 L221 349 L233 334 L256 323 L274 331 L285 342 L299 370 L308 380 L320 387 L320 393 L310 411 L303 415 L298 401 L287 386 L257 355 L253 355 L219 392 L208 416 L196 404 Z M273 317 L292 316 L294 318 L301 319 L312 326 L320 334 L331 353 L332 359 L342 372 L331 377 L322 377 L315 374 L306 364 L305 358 L303 357 L296 341 L280 324 L274 321 Z M239 318 L221 333 L214 343 L205 364 L196 374 L189 377 L179 377 L169 371 L177 362 L190 336 L203 323 L220 316 L237 316 Z M318 276 L328 277 L333 280 L340 293 L338 307 L330 316 L323 319 L317 319 L304 310 L289 307 L289 303 L296 297 L302 288 L311 279 Z M173 287 L179 280 L184 277 L197 277 L198 279 L202 280 L212 291 L212 293 L220 300 L222 306 L220 308 L207 310 L194 319 L189 319 L182 316 L173 307 Z M141 244 L155 252 L174 271 L163 286 L162 302 L167 314 L185 328 L171 352 L164 351 L153 344 L145 336 L134 315 L131 287 Z M371 243 L379 282 L378 312 L367 334 L352 348 L340 352 L327 329 L328 326 L342 317 L349 303 L348 285 L337 271 L354 254 Z M255 229 L273 252 L281 271 L281 286 L273 304 L259 315 L252 315 L239 305 L231 290 L230 282 L231 269 L235 259 Z M326 164 L343 192 L347 212 L349 213 L349 226 L346 238 L338 254 L326 267 L319 268 L317 262 L321 249 L320 224 L316 211 L306 192 Z M185 164 L205 192 L192 219 L191 233 L189 235 L189 245 L191 246 L192 259 L195 264 L194 268 L184 267 L170 249 L163 230 L163 208 L167 194 Z M254 137 L291 187 L310 224 L310 256 L291 287 L287 259 L257 208 L224 259 L220 285 L206 268 L199 246 L202 221 L210 204 Z M254 50 L259 52 L270 78 L295 113 L306 136 L309 165 L302 183 L264 132 L257 112 L242 141 L212 183 L206 178 L202 161 L203 141 L210 123 L238 83 Z"/></svg>
