<svg xmlns="http://www.w3.org/2000/svg" width="512" height="512" viewBox="0 0 512 512" aria-hidden="true" focusable="false"><path fill="currentColor" fill-rule="evenodd" clip-rule="evenodd" d="M301 17 L298 47 L260 89 L253 106 L257 130 L246 122 L240 151 L246 175 L262 185 L282 177 L281 192 L253 224 L244 195 L223 169 L222 198 L178 263 L171 286 L172 305 L165 298 L162 333 L172 356 L165 358 L177 382 L194 396 L191 401 L221 417 L264 419 L279 432 L276 451 L275 436 L267 425 L254 422 L238 432 L233 449 L246 481 L234 496 L270 490 L306 469 L331 440 L344 402 L343 370 L339 370 L333 336 L342 323 L350 288 L327 308 L308 316 L299 328 L293 326 L264 346 L254 363 L254 391 L241 382 L233 366 L235 346 L249 335 L246 311 L250 301 L234 307 L215 332 L226 291 L250 266 L270 258 L289 266 L292 275 L287 284 L282 285 L276 274 L266 276 L261 283 L261 294 L268 304 L288 309 L312 296 L335 253 L339 197 L336 195 L320 219 L310 223 L322 198 L324 171 L319 153 L298 117 L300 99 L289 101 L312 53 L310 31 Z M301 359 L309 364 L312 372 L308 379 L303 373 L297 374 L294 380 L294 390 L298 396 L308 401 L307 411 L310 419 L310 435 L300 456 L286 469 L273 475 L273 469 L285 461 L290 455 L295 444 L296 432 L293 421 L274 396 L272 380 L277 368 L282 363 L290 359 Z M169 313 L177 317 L182 324 L185 321 L187 322 L188 337 L192 351 L199 366 L210 381 L228 396 L265 412 L264 414 L258 412 L222 412 L203 403 L204 400 L214 395 L214 393 L204 393 L192 389 L181 379 L175 369 L176 366 L187 366 L195 369 L193 363 L179 357 L173 350 L167 328 L167 316 Z M240 310 L241 320 L244 326 L244 333 L241 337 L236 338 L230 345 L228 351 L228 365 L231 374 L229 375 L225 370 L221 358 L220 350 L221 338 L227 323 Z M217 250 L224 257 L225 269 L212 285 L203 308 L201 338 L207 358 L231 386 L274 406 L286 418 L291 431 L288 450 L280 460 L267 465 L263 482 L287 473 L307 454 L315 434 L312 405 L325 392 L310 396 L298 385 L307 385 L316 377 L315 362 L319 354 L316 338 L312 358 L294 353 L275 363 L268 376 L268 397 L258 383 L261 360 L274 344 L290 334 L296 340 L295 349 L302 345 L306 325 L339 305 L337 322 L328 334 L334 356 L334 371 L328 384 L339 382 L338 407 L331 429 L320 447 L298 469 L255 489 L249 488 L251 472 L239 452 L240 438 L249 429 L263 429 L270 437 L270 446 L261 453 L254 444 L251 453 L255 459 L267 462 L283 451 L285 431 L271 411 L220 385 L208 372 L197 351 L191 326 L192 297 L203 266 Z M201 239 L203 243 L202 252 L203 258 L199 263 L190 284 L187 297 L186 319 L184 320 L178 309 L176 301 L177 284 L180 272 L189 253 L197 241 Z M332 215 L333 224 L329 237 L321 247 L311 253 L329 252 L325 263 L318 270 L310 272 L311 275 L317 276 L312 287 L304 296 L291 303 L282 304 L272 300 L266 292 L266 286 L270 280 L273 287 L283 291 L292 286 L297 276 L294 263 L288 258 L274 253 L275 246 L283 239 L297 234 L296 245 L299 243 L303 232 L318 227 Z M232 186 L240 198 L243 208 L243 215 L236 229 L242 224 L246 224 L248 230 L247 248 L241 259 L270 244 L272 246 L265 255 L254 258 L240 267 L226 282 L216 300 L210 328 L212 346 L217 360 L215 363 L206 342 L205 318 L214 290 L230 269 L230 257 L219 243 L221 237 L229 228 L227 227 L220 233 L216 239 L216 244 L207 252 L205 251 L206 241 L203 233 L222 209 Z M290 109 L292 110 L293 118 L299 130 L311 149 L317 164 L319 174 L318 193 L314 205 L302 223 L292 231 L290 231 L289 229 L300 217 L310 199 L313 186 L313 171 L310 159 L305 149 L294 137 L292 137 L291 135 L287 134 L284 131 L282 124 L283 118 Z M306 43 L303 66 L284 95 L285 109 L280 117 L279 127 L281 133 L300 150 L306 162 L309 175 L307 194 L297 214 L281 231 L253 247 L253 232 L276 211 L287 190 L288 174 L280 156 L289 160 L296 170 L297 191 L287 211 L262 236 L272 231 L287 217 L301 192 L301 170 L297 161 L289 154 L271 151 L263 157 L264 168 L269 160 L276 161 L278 165 L276 176 L264 180 L250 171 L246 162 L246 146 L251 134 L265 147 L266 136 L258 117 L261 99 L271 84 L295 62 Z"/></svg>
