<svg xmlns="http://www.w3.org/2000/svg" width="512" height="512" viewBox="0 0 512 512" aria-hidden="true" focusable="false"><path fill="currentColor" fill-rule="evenodd" clip-rule="evenodd" d="M93 361 L94 388 L101 392 L94 400 L97 415 L113 422 L123 446 L145 470 L180 490 L199 495 L234 496 L258 490 L278 496 L305 496 L335 489 L369 469 L391 444 L400 421 L411 418 L418 409 L418 400 L411 393 L418 388 L419 361 L416 360 L409 383 L401 389 L401 397 L387 406 L376 438 L346 466 L306 480 L278 480 L257 471 L234 480 L206 480 L168 467 L143 446 L135 435 L125 405 L118 398 L111 398 L111 389 L104 383 L96 360 Z M106 402 L108 401 L109 403 L107 404 Z M98 402 L102 397 L102 405 L105 408 L111 408 L114 403 L121 407 L126 426 L133 440 L157 465 L184 479 L221 485 L240 483 L255 477 L277 484 L306 484 L334 477 L357 464 L373 449 L388 424 L390 410 L395 404 L398 403 L401 408 L407 408 L410 405 L409 398 L411 397 L414 401 L412 412 L406 416 L403 416 L401 412 L396 414 L395 424 L389 439 L369 463 L352 476 L337 483 L304 492 L279 492 L265 489 L259 485 L233 492 L209 492 L191 489 L168 480 L147 466 L124 439 L116 412 L112 412 L109 416 L104 415 L99 410 Z M404 393 L406 392 L407 395 L405 396 Z M256 17 L255 89 L249 92 L247 107 L251 112 L245 119 L264 124 L270 136 L261 143 L261 131 L255 125 L240 131 L241 140 L254 148 L251 205 L256 210 L249 218 L251 226 L246 233 L261 238 L245 242 L239 256 L248 266 L260 265 L264 260 L261 249 L252 249 L247 257 L243 254 L250 244 L260 243 L271 257 L251 280 L243 278 L238 283 L239 289 L253 288 L258 293 L253 301 L243 301 L237 307 L241 314 L252 312 L257 317 L250 327 L242 325 L237 330 L240 337 L252 336 L257 341 L251 351 L240 350 L238 359 L251 359 L257 367 L251 374 L251 417 L241 439 L227 448 L234 459 L247 455 L232 453 L237 444 L253 453 L240 464 L221 462 L204 446 L197 421 L196 375 L201 364 L196 358 L202 352 L213 353 L214 347 L208 342 L201 344 L195 336 L200 331 L212 332 L214 326 L196 318 L200 310 L211 312 L212 302 L202 302 L185 285 L187 276 L195 273 L202 276 L203 282 L196 286 L198 278 L193 277 L189 281 L193 289 L210 287 L207 275 L197 269 L203 263 L197 255 L197 200 L210 191 L211 184 L196 170 L206 166 L198 159 L203 152 L198 142 L196 83 L193 131 L189 136 L192 146 L187 148 L193 155 L185 158 L192 165 L183 170 L190 177 L181 182 L180 190 L193 200 L193 243 L189 246 L193 253 L186 263 L194 263 L193 269 L183 274 L181 286 L198 306 L192 312 L183 307 L179 317 L191 318 L198 327 L193 332 L182 329 L179 339 L192 340 L199 349 L193 355 L182 352 L179 362 L196 365 L192 375 L194 429 L209 465 L182 457 L164 445 L148 426 L140 400 L139 371 L144 365 L157 366 L158 359 L154 355 L145 357 L139 349 L144 344 L155 346 L158 338 L145 336 L138 329 L143 323 L154 326 L157 318 L145 316 L128 298 L134 288 L147 293 L141 300 L140 291 L133 294 L137 304 L151 298 L149 288 L141 283 L147 276 L141 272 L144 263 L140 237 L154 220 L140 207 L149 200 L142 197 L147 191 L141 187 L145 182 L140 168 L139 125 L131 186 L136 192 L129 196 L131 203 L126 208 L135 213 L123 220 L124 228 L136 235 L136 260 L132 263 L136 270 L129 278 L137 281 L123 297 L126 306 L141 319 L136 324 L124 322 L121 328 L126 333 L134 331 L141 341 L136 346 L126 342 L121 350 L127 355 L137 354 L142 362 L138 367 L127 364 L121 372 L125 377 L136 377 L136 403 L144 427 L173 457 L213 470 L241 468 L256 457 L275 469 L300 470 L325 464 L356 444 L373 417 L376 377 L384 378 L391 372 L385 364 L374 367 L370 362 L375 354 L391 351 L388 343 L376 346 L370 340 L377 332 L386 333 L391 328 L388 322 L376 324 L370 320 L389 298 L387 290 L377 283 L383 279 L377 271 L377 235 L389 227 L390 219 L376 207 L386 201 L379 197 L382 189 L378 187 L381 182 L373 126 L367 189 L374 192 L365 195 L372 202 L364 206 L372 213 L363 215 L360 226 L373 235 L373 260 L369 263 L373 271 L365 278 L374 279 L363 288 L361 298 L375 307 L367 316 L358 315 L355 322 L359 326 L370 324 L374 329 L354 339 L357 346 L368 344 L373 349 L367 357 L358 355 L354 359 L358 367 L368 365 L373 371 L372 401 L364 426 L347 446 L330 457 L298 466 L311 450 L319 426 L322 383 L317 365 L335 361 L331 352 L320 355 L314 349 L321 340 L331 342 L335 338 L331 329 L320 332 L315 327 L321 318 L335 317 L330 307 L321 312 L315 306 L332 286 L330 274 L321 269 L328 263 L322 255 L322 200 L336 189 L335 180 L322 171 L331 163 L323 159 L328 153 L324 150 L319 83 L313 147 L318 155 L310 159 L318 165 L309 169 L318 177 L304 184 L305 192 L317 200 L317 255 L311 263 L319 264 L307 275 L303 287 L321 288 L321 277 L315 278 L316 286 L310 282 L310 277 L318 273 L327 278 L328 285 L312 302 L301 302 L302 312 L314 310 L318 316 L312 323 L302 322 L299 326 L301 332 L313 331 L318 336 L312 345 L304 342 L299 347 L301 354 L311 352 L317 358 L312 364 L317 377 L315 424 L300 456 L283 465 L266 461 L259 453 L265 446 L275 444 L280 448 L277 455 L265 452 L272 459 L280 458 L285 447 L271 439 L259 408 L257 374 L260 370 L270 374 L276 364 L270 358 L260 363 L254 356 L261 346 L272 348 L276 343 L273 335 L260 338 L254 331 L262 321 L270 324 L276 318 L272 310 L259 313 L254 308 L261 298 L272 299 L276 294 L272 286 L260 290 L254 284 L275 260 L274 249 L266 241 L271 235 L259 229 L266 222 L258 217 L262 205 L259 149 L273 140 L275 131 L268 121 L257 116 L270 109 L259 104 L266 96 L260 84 Z M212 463 L214 462 L216 465 L213 466 Z M256 413 L258 414 L258 419 L262 423 L261 431 L264 431 L267 434 L266 438 L257 447 L255 447 L246 437 L246 433 L248 431 L251 431 L250 424 L254 420 Z M379 370 L382 368 L385 368 L387 372 L383 374 Z M125 372 L127 368 L130 368 L133 370 L129 374 Z M265 365 L270 363 L272 367 L268 369 L265 367 Z M360 359 L362 360 L361 363 L358 362 Z M150 360 L152 359 L154 362 L151 363 Z M324 358 L326 356 L329 356 L330 360 L326 361 Z M183 357 L187 356 L189 359 L187 361 L184 361 Z M241 355 L244 353 L246 356 L242 357 Z M380 348 L382 346 L387 347 L385 351 L382 351 Z M303 347 L305 346 L307 349 L304 350 Z M208 346 L210 347 L209 350 L206 349 Z M125 347 L129 346 L131 350 L127 351 Z M358 340 L362 339 L363 341 L359 342 Z M149 340 L153 339 L154 341 L150 342 Z M265 341 L268 338 L272 340 L271 343 L266 343 Z M325 337 L326 334 L331 335 L329 338 Z M182 335 L187 334 L188 337 L184 338 Z M384 325 L386 326 L385 329 L382 328 Z M305 325 L307 326 L306 329 L303 328 Z M207 325 L209 326 L208 329 L205 328 Z M126 326 L128 325 L130 328 L127 329 Z M359 319 L362 318 L364 321 L361 322 Z M150 318 L152 319 L151 322 L148 321 Z M268 314 L272 316 L270 319 L266 318 Z M327 313 L329 312 L330 314 L328 315 Z M183 313 L185 312 L186 314 L184 315 Z M307 304 L308 307 L305 309 L304 306 Z M205 305 L207 304 L209 308 L207 309 Z M374 295 L375 298 L371 300 L370 298 Z M268 290 L272 292 L270 296 L266 293 Z M370 288 L378 288 L382 291 L384 298 L380 306 L377 305 L377 302 L379 300 L379 294 L376 291 L372 291 L367 297 L365 296 L365 293 Z M246 282 L248 285 L246 287 L243 287 L242 285 Z M257 252 L260 255 L260 258 L256 262 L252 262 L251 259 L255 258 L255 253 Z M253 223 L255 222 L256 224 L254 225 Z M366 219 L371 219 L374 222 L374 226 L372 229 L369 229 L364 224 L364 221 Z M130 219 L135 219 L137 221 L137 225 L135 229 L129 227 L128 221 Z M375 212 L381 214 L386 221 L385 225 L380 229 L378 228 L378 220 L374 215 Z M139 212 L145 214 L149 220 L149 223 L145 228 L142 227 L142 220 L140 219 L138 215 Z M311 183 L317 183 L319 185 L319 191 L317 194 L314 194 L310 191 L309 185 Z M187 183 L192 183 L195 187 L194 192 L192 194 L189 194 L184 190 L184 186 Z M321 176 L326 177 L331 183 L331 189 L326 194 L323 193 L324 184 L319 180 Z M196 176 L199 176 L207 185 L206 189 L200 194 L198 193 L199 185 L195 180 Z M248 130 L253 130 L257 134 L257 137 L253 143 L248 141 L245 137 L245 133 Z M253 109 L255 108 L256 110 L254 111 Z M253 98 L255 97 L256 99 L254 100 Z"/></svg>
