<svg xmlns="http://www.w3.org/2000/svg" width="512" height="512" viewBox="0 0 512 512" aria-hidden="true" focusable="false"><path fill="currentColor" fill-rule="evenodd" clip-rule="evenodd" d="M256 272 L236 292 L236 298 L223 303 L214 316 L209 318 L209 322 L223 339 L235 341 L236 350 L255 371 L258 371 L274 355 L277 342 L290 339 L304 319 L290 303 L278 299 L277 292 Z M267 347 L266 351 L262 355 L258 356 L257 358 L251 355 L247 351 L247 348 L249 347 L255 353 L258 353 L265 346 Z M259 328 L263 332 L264 337 L266 339 L265 344 L263 343 L260 333 L258 332 Z M254 328 L255 333 L250 343 L248 344 L247 339 L249 337 L250 332 Z M230 329 L235 328 L236 330 L231 331 Z M288 327 L286 331 L277 330 L278 328 L283 328 L285 326 Z M255 324 L257 323 L260 327 L256 328 Z M263 323 L264 322 L271 323 L275 325 L276 328 L275 329 L270 328 L269 326 L264 325 Z M248 323 L243 328 L240 329 L237 328 L237 326 L245 322 Z M261 320 L263 319 L264 322 L262 323 Z M255 315 L257 314 L258 316 L256 317 Z M267 316 L275 311 L286 311 L289 312 L291 317 L293 318 L293 324 L291 325 L288 322 L288 318 L285 317 L285 314 L277 314 L270 318 L268 318 Z M220 324 L220 318 L222 317 L223 313 L227 311 L238 311 L246 316 L245 318 L243 318 L236 314 L228 314 L228 317 L225 318 L225 322 L228 325 L224 328 Z M254 284 L259 284 L266 291 L267 296 L266 302 L264 303 L263 309 L260 314 L258 313 L258 309 L260 307 L261 302 L263 301 L263 293 L261 293 L258 288 L255 288 L253 292 L250 293 L250 301 L252 302 L253 307 L255 309 L254 312 L250 309 L249 303 L247 302 L246 297 L247 291 Z M19 341 L23 361 L40 371 L80 371 L110 362 L138 384 L164 395 L207 398 L219 389 L220 374 L201 352 L202 334 L191 346 L190 369 L198 382 L200 370 L207 373 L209 384 L205 388 L166 382 L124 358 L169 338 L198 317 L230 283 L257 241 L283 283 L314 316 L344 338 L389 358 L360 377 L317 390 L325 354 L312 336 L312 352 L293 375 L294 389 L306 398 L349 395 L375 384 L403 362 L434 371 L472 371 L486 365 L494 352 L491 331 L464 295 L467 271 L448 290 L443 318 L456 350 L461 348 L461 326 L466 325 L472 332 L475 349 L468 356 L456 358 L419 347 L392 331 L356 300 L315 248 L293 210 L269 154 L258 113 L241 164 L214 222 L179 275 L148 309 L94 347 L57 358 L45 356 L38 349 L43 329 L53 327 L55 349 L70 320 L67 294 L46 271 L49 295 Z M312 369 L313 379 L311 382 L305 383 L304 378 L306 377 L307 372 L310 369 Z M160 324 L189 296 L219 255 L257 179 L280 230 L301 265 L324 296 L353 325 L348 325 L325 310 L299 286 L271 245 L257 215 L236 256 L214 286 L178 317 L165 325 Z"/></svg>
