<svg xmlns="http://www.w3.org/2000/svg" width="512" height="512" viewBox="0 0 512 512" aria-hidden="true" focusable="false"><path fill="currentColor" fill-rule="evenodd" clip-rule="evenodd" d="M253 288 L237 293 L228 302 L223 311 L221 328 L223 337 L231 350 L243 358 L261 360 L273 356 L282 349 L290 335 L291 318 L288 308 L275 293 Z M244 299 L250 297 L268 299 L281 313 L283 321 L282 333 L279 340 L268 350 L251 352 L241 348 L232 338 L229 328 L231 313 Z M255 17 L237 66 L198 125 L196 152 L179 146 L181 157 L161 189 L158 213 L167 230 L110 223 L111 244 L121 262 L91 267 L65 280 L48 279 L57 303 L81 318 L72 338 L76 368 L91 379 L111 379 L105 403 L93 424 L112 429 L119 451 L132 465 L156 476 L181 480 L194 495 L205 459 L215 455 L228 473 L257 496 L299 455 L307 458 L311 481 L320 495 L331 480 L379 466 L393 451 L400 429 L419 424 L411 413 L401 379 L421 379 L436 368 L441 344 L431 318 L456 302 L464 279 L447 280 L421 267 L392 263 L401 245 L402 223 L346 230 L353 218 L354 198 L332 159 L333 146 L316 152 L314 125 L274 64 Z M220 450 L225 444 L233 451 L246 451 L253 458 L255 463 L257 463 L266 451 L279 451 L288 444 L292 450 L292 456 L289 462 L279 472 L264 481 L258 488 L254 488 L249 482 L237 475 L223 462 L220 457 Z M256 443 L262 448 L261 452 L257 456 L255 456 L251 452 L251 448 Z M396 428 L393 443 L381 460 L363 470 L334 474 L325 479 L320 486 L317 484 L310 461 L310 438 L316 421 L324 413 L329 411 L334 412 L326 421 L325 438 L333 451 L343 456 L356 456 L368 452 L377 443 L385 423 Z M236 419 L238 414 L241 411 L243 411 L255 421 L257 421 L269 411 L271 411 L276 417 L277 427 L275 431 L273 431 L268 426 L263 426 L257 431 L255 431 L249 426 L244 426 L239 431 L236 430 Z M117 428 L128 423 L135 443 L143 451 L151 455 L168 456 L180 450 L187 438 L187 425 L185 419 L178 412 L183 411 L188 413 L198 425 L203 445 L201 467 L195 485 L192 486 L188 480 L177 474 L147 469 L131 460 L118 440 Z M275 398 L281 403 L285 411 L288 414 L290 422 L290 431 L288 437 L281 445 L270 448 L265 446 L262 443 L261 433 L263 430 L266 429 L270 432 L268 434 L269 437 L275 437 L281 429 L281 418 L277 411 L272 407 L273 399 Z M237 398 L239 399 L240 407 L232 417 L231 420 L232 431 L237 437 L242 438 L246 436 L246 434 L243 434 L242 432 L247 429 L250 431 L253 436 L250 443 L247 446 L241 448 L231 445 L224 437 L222 429 L222 422 L224 414 L227 411 L229 406 Z M245 395 L250 395 L253 393 L267 395 L270 399 L270 402 L268 406 L261 413 L255 416 L245 407 L242 402 Z M296 393 L302 391 L321 390 L332 392 L342 396 L352 405 L356 411 L358 419 L357 425 L352 431 L347 431 L346 429 L349 425 L348 419 L343 411 L336 408 L323 409 L312 419 L306 403 Z M216 393 L206 403 L200 419 L189 409 L176 408 L171 410 L164 419 L163 425 L166 429 L165 431 L160 431 L155 425 L156 411 L159 406 L172 395 L192 390 L210 391 Z M277 388 L293 396 L301 404 L307 414 L308 433 L304 453 L299 451 L293 445 L291 441 L293 434 L292 415 L285 402 L275 393 L275 390 Z M235 388 L238 393 L227 402 L220 415 L219 419 L219 434 L221 438 L220 444 L212 452 L208 453 L206 438 L204 433 L204 419 L206 412 L211 404 L220 395 L227 391 L231 391 Z M259 375 L266 374 L271 375 L273 380 L273 388 L271 390 L261 391 L258 388 L257 380 Z M242 374 L254 376 L255 384 L254 388 L251 391 L243 391 L240 389 L239 381 Z M299 376 L306 375 L312 369 L331 369 L341 371 L359 380 L370 391 L378 407 L379 426 L372 442 L363 450 L354 453 L343 452 L337 448 L328 435 L329 423 L335 418 L341 418 L345 424 L343 427 L339 427 L340 433 L346 436 L353 435 L358 431 L361 423 L358 406 L346 394 L326 386 L294 388 L293 386 Z M213 376 L218 385 L217 387 L182 387 L166 394 L154 406 L151 413 L151 424 L157 434 L161 436 L171 434 L173 427 L167 425 L171 418 L177 418 L183 425 L183 438 L175 448 L169 452 L157 453 L149 450 L140 442 L133 427 L133 413 L138 397 L147 385 L164 374 L181 369 L200 369 L206 375 Z M287 365 L293 372 L294 378 L289 385 L280 386 L276 382 L274 372 Z M225 365 L238 372 L236 382 L232 386 L225 386 L219 381 L218 374 Z M300 348 L308 351 L313 357 L311 364 L304 371 L296 370 L290 363 L290 361 L296 355 Z M210 348 L213 349 L216 355 L222 361 L222 363 L215 371 L207 371 L199 361 L199 356 L201 353 Z M315 352 L324 345 L342 344 L374 354 L392 372 L400 388 L406 413 L412 422 L408 425 L399 425 L387 419 L383 414 L378 396 L363 378 L344 368 L326 365 L316 366 Z M196 352 L196 366 L171 367 L149 378 L135 394 L129 414 L125 419 L113 425 L104 425 L100 422 L107 410 L111 390 L119 373 L138 354 L168 344 L188 345 Z M307 326 L315 326 L320 331 L320 336 L322 338 L320 339 L319 344 L315 348 L309 348 L302 344 L303 336 L305 335 L305 329 Z M195 327 L197 326 L207 327 L207 333 L209 335 L210 341 L209 345 L203 348 L197 348 L193 344 L192 331 Z M325 338 L328 335 L345 327 L360 324 L377 324 L393 328 L401 333 L408 340 L410 344 L410 351 L408 352 L401 345 L397 345 L389 352 L388 358 L386 359 L378 352 L365 345 L347 341 L326 341 Z M102 352 L103 342 L111 333 L119 328 L135 324 L154 324 L164 326 L184 335 L187 338 L186 341 L162 341 L147 345 L134 352 L126 359 L124 358 L123 352 L115 345 L111 345 L104 353 Z M303 303 L314 301 L318 305 L320 316 L319 319 L315 323 L305 322 L305 314 L303 313 L302 308 Z M198 301 L203 301 L210 304 L206 323 L197 323 L193 319 L192 311 L195 303 Z M324 312 L346 302 L366 298 L400 301 L416 309 L429 322 L437 341 L436 358 L425 373 L418 376 L407 376 L401 373 L393 362 L393 354 L396 350 L403 351 L403 356 L398 355 L402 361 L412 357 L413 341 L405 331 L380 320 L364 319 L343 324 L325 332 L320 325 Z M188 312 L192 325 L187 332 L170 324 L148 319 L132 320 L111 328 L99 342 L100 357 L109 361 L114 357 L113 354 L108 355 L109 351 L116 350 L120 359 L118 366 L105 376 L94 376 L87 373 L77 360 L75 341 L78 331 L91 313 L109 302 L127 298 L154 299 Z M298 279 L303 279 L311 288 L311 295 L302 301 L299 300 L291 288 L291 286 Z M243 280 L266 279 L279 284 L290 294 L298 308 L300 332 L297 343 L284 360 L270 368 L252 370 L234 365 L221 353 L214 340 L212 317 L216 303 L228 288 Z M209 279 L214 279 L221 286 L221 288 L215 295 L212 301 L204 298 L201 295 L202 286 Z M279 266 L286 265 L293 271 L294 277 L288 284 L278 279 L275 276 L277 268 Z M230 265 L235 269 L237 276 L234 279 L224 284 L219 279 L218 274 L219 271 L224 266 Z M316 298 L330 276 L353 264 L358 265 L353 281 L372 269 L396 266 L411 268 L447 284 L459 285 L449 304 L436 313 L428 313 L414 302 L391 294 L363 294 L326 307 Z M196 297 L186 307 L150 294 L121 294 L101 300 L81 314 L69 309 L59 299 L53 285 L65 284 L87 273 L114 266 L136 268 L159 281 L155 265 L160 264 L170 268 L184 279 Z M261 258 L264 257 L270 258 L274 262 L274 269 L271 275 L257 272 L258 261 Z M238 261 L244 257 L251 258 L254 261 L255 272 L241 275 L239 273 L237 266 Z M289 253 L291 254 L290 263 L284 261 Z M222 253 L228 259 L227 262 L223 263 L221 262 Z M340 236 L341 239 L339 246 L337 247 L335 260 L333 264 L334 269 L320 281 L320 283 L315 287 L309 279 L308 275 L310 259 L316 249 L322 243 L333 237 Z M172 236 L179 237 L187 241 L196 249 L202 259 L204 275 L203 279 L197 287 L195 287 L192 281 L178 269 L179 264 L176 256 L175 246 L173 245 L173 242 L171 239 Z M398 231 L397 243 L394 251 L383 262 L369 266 L362 271 L360 270 L362 259 L351 260 L337 267 L335 266 L340 258 L344 242 L353 233 L363 230 Z M114 231 L149 230 L161 234 L167 240 L172 258 L177 266 L175 267 L158 259 L150 259 L152 269 L150 271 L142 266 L131 263 L119 253 L115 242 Z M255 224 L257 224 L263 231 L268 242 L267 249 L265 250 L263 254 L259 256 L253 256 L249 254 L247 250 L245 249 L244 245 L247 234 Z M231 224 L233 225 L239 234 L240 248 L242 251 L242 254 L234 260 L229 255 L224 245 L224 235 L228 227 Z M281 223 L285 228 L286 233 L288 235 L288 245 L282 257 L278 260 L270 254 L270 251 L272 247 L273 234 L279 226 L279 224 Z M206 218 L214 223 L224 222 L226 223 L222 229 L221 238 L219 241 L215 238 L213 233 L210 231 L209 227 L205 222 Z M307 217 L308 220 L305 227 L302 229 L302 231 L300 232 L296 240 L293 242 L288 224 L301 222 Z M234 215 L236 214 L237 216 L235 217 Z M298 202 L301 200 L303 203 L299 204 Z M209 202 L212 200 L214 203 L210 204 Z M255 192 L258 193 L259 197 L261 198 L273 218 L273 227 L270 233 L259 221 L257 216 L255 216 L255 218 L243 233 L241 232 L239 226 L240 216 L249 203 L251 198 L253 197 Z M165 190 L169 191 L171 194 L172 200 L174 203 L177 204 L178 221 L183 231 L182 233 L172 229 L167 224 L162 214 L162 198 Z M345 189 L348 191 L351 202 L351 210 L349 218 L339 230 L330 233 L329 231 L333 225 L335 216 L335 205 L339 203 L341 194 L343 190 Z M311 181 L322 187 L327 193 L332 211 L328 226 L322 237 L309 251 L303 266 L303 273 L301 274 L294 261 L294 254 L299 241 L310 225 L313 207 L306 198 L297 197 L292 202 L292 209 L298 212 L298 208 L300 207 L303 213 L299 219 L293 220 L284 213 L282 200 L284 193 L289 187 L301 181 Z M201 181 L218 183 L225 189 L230 199 L230 209 L228 213 L219 220 L212 218 L209 214 L209 210 L212 207 L214 208 L214 212 L220 209 L221 204 L215 197 L206 198 L199 207 L201 222 L218 252 L218 261 L210 275 L207 274 L209 271 L207 259 L203 251 L188 234 L181 219 L180 212 L181 201 L185 193 L193 185 Z M207 175 L209 174 L211 177 L209 178 Z M305 171 L306 174 L302 178 L301 176 L303 172 Z M273 161 L277 166 L278 172 L271 194 L272 203 L269 204 L259 188 L257 180 L255 180 L252 190 L245 202 L241 204 L240 189 L235 177 L235 167 L237 163 L240 161 L247 161 L251 163 L255 169 L257 169 L261 163 L269 160 Z M325 153 L327 154 L327 158 L333 166 L340 180 L340 186 L338 188 L335 200 L333 199 L333 196 L328 188 L322 182 L312 177 L314 174 L314 169 L318 159 Z M187 153 L194 159 L197 165 L199 178 L190 182 L181 192 L179 199 L177 200 L176 194 L172 185 L173 177 L184 160 L185 154 Z M219 101 L221 103 L223 110 L223 120 L222 121 L223 126 L220 129 L218 134 L215 136 L209 148 L209 151 L207 152 L206 163 L204 164 L201 157 L201 153 L199 152 L199 136 L201 134 L206 118 L209 115 L214 105 Z M293 100 L296 102 L301 109 L302 113 L305 115 L309 124 L311 134 L313 136 L313 151 L308 166 L306 165 L305 152 L303 151 L303 148 L298 137 L296 136 L296 134 L293 132 L293 130 L289 125 L290 123 L289 111 Z M256 82 L282 124 L282 132 L277 142 L280 153 L281 141 L287 129 L297 144 L302 159 L300 173 L282 190 L278 207 L275 203 L275 192 L281 180 L282 167 L275 157 L266 156 L255 162 L249 157 L240 156 L232 162 L230 175 L237 192 L235 207 L229 188 L214 176 L210 166 L212 151 L225 129 L231 141 L230 153 L233 152 L235 142 L230 125 Z M256 34 L258 35 L267 59 L284 90 L285 106 L283 116 L276 109 L268 96 L257 69 L255 69 L248 88 L238 106 L230 116 L228 115 L228 90 L241 64 L244 62 Z"/></svg>
