<svg xmlns="http://www.w3.org/2000/svg" width="512" height="512" viewBox="0 0 512 512" aria-hidden="true" focusable="false"><path fill="currentColor" fill-rule="evenodd" clip-rule="evenodd" d="M476 18 L470 36 L455 57 L459 75 L454 76 L453 84 L432 111 L431 140 L419 139 L418 152 L411 162 L411 179 L418 190 L414 197 L417 218 L423 224 L438 224 L444 213 L433 204 L439 202 L448 207 L454 220 L452 253 L431 280 L427 280 L431 262 L426 250 L409 241 L392 245 L389 250 L401 255 L402 265 L380 296 L374 317 L361 303 L334 334 L325 355 L314 351 L297 354 L297 394 L277 393 L261 399 L252 412 L265 420 L242 425 L228 437 L216 439 L221 450 L215 454 L200 454 L190 443 L207 436 L207 419 L196 411 L174 410 L159 417 L144 435 L163 439 L159 441 L161 454 L138 437 L112 433 L98 438 L79 455 L62 452 L38 467 L19 472 L43 478 L67 471 L88 485 L105 486 L118 481 L131 486 L135 481 L122 480 L120 468 L129 460 L139 460 L150 465 L140 475 L139 486 L153 481 L173 489 L204 490 L222 482 L240 484 L255 475 L263 484 L278 488 L289 484 L297 469 L289 460 L283 460 L278 471 L290 465 L291 476 L281 482 L266 480 L258 471 L257 456 L267 441 L280 436 L291 445 L319 449 L337 441 L352 425 L361 437 L361 449 L349 461 L338 454 L330 462 L328 495 L366 480 L381 463 L401 479 L447 482 L468 495 L466 468 L449 450 L470 435 L479 417 L479 398 L469 377 L474 363 L454 365 L435 382 L436 401 L444 406 L455 404 L454 417 L444 429 L414 436 L395 425 L413 407 L418 364 L423 356 L417 352 L397 353 L398 333 L406 318 L420 308 L438 307 L449 319 L447 323 L434 320 L428 327 L429 338 L446 349 L462 346 L475 334 L479 308 L493 286 L492 263 L472 279 L487 260 L494 236 L488 180 L493 158 L472 166 L467 160 L467 146 L483 138 L489 111 L475 109 L484 90 L474 62 L479 42 Z M263 436 L264 438 L257 445 L253 453 L252 470 L249 472 L247 476 L238 478 L237 476 L240 470 L242 469 L242 465 L249 448 L259 437 Z M380 428 L391 427 L400 438 L417 449 L435 451 L447 455 L462 470 L464 483 L460 484 L458 481 L445 477 L407 476 L391 468 L384 458 L385 446 L405 459 L421 463 L436 464 L438 466 L440 463 L434 460 L418 458 L399 451 L385 438 L380 431 Z M369 425 L374 429 L376 434 L378 435 L380 443 L379 457 L375 465 L367 473 L359 478 L344 482 L343 484 L336 486 L334 476 L332 475 L332 469 L334 468 L335 463 L338 462 L342 466 L351 466 L357 463 L362 458 L365 452 L366 438 L365 433 L363 432 L360 425 L362 423 Z M269 426 L247 443 L239 461 L226 475 L206 485 L184 486 L147 477 L150 471 L160 467 L139 455 L122 458 L115 468 L115 476 L107 481 L88 480 L65 465 L42 472 L56 460 L66 456 L80 463 L91 463 L97 458 L89 453 L101 442 L110 438 L127 438 L146 447 L171 471 L185 476 L206 476 L227 466 L233 458 L208 471 L184 471 L166 453 L165 444 L170 443 L169 438 L154 431 L163 420 L179 414 L198 417 L203 422 L204 431 L199 437 L191 432 L187 433 L186 446 L191 454 L202 459 L212 459 L227 453 L230 447 L225 444 L245 429 L256 425 Z M260 408 L271 399 L289 398 L300 403 L304 411 L314 421 L327 427 L326 429 L312 429 L296 423 L300 429 L316 434 L332 432 L341 427 L343 429 L336 436 L325 442 L315 443 L313 445 L297 442 L289 438 L278 427 L274 420 Z M296 395 L298 394 L299 396 L297 397 Z M360 381 L361 384 L366 388 L370 395 L371 407 L369 412 L361 419 L352 419 L347 415 L343 409 L343 400 L345 394 L358 381 Z M465 368 L464 380 L470 389 L475 402 L475 414 L470 427 L459 439 L449 443 L448 445 L425 446 L416 443 L416 440 L431 440 L442 436 L453 428 L457 422 L459 416 L458 398 L454 393 L452 393 L451 398 L448 401 L443 400 L439 395 L439 386 L441 381 L449 373 L460 368 Z M361 350 L382 378 L384 386 L384 400 L382 406 L376 413 L374 412 L376 404 L375 394 L359 373 L340 393 L339 400 L337 401 L339 411 L337 412 L331 404 L330 392 L332 383 L344 366 L349 363 Z M363 314 L388 348 L387 366 L399 358 L409 356 L414 359 L411 398 L406 409 L394 420 L386 423 L375 422 L375 418 L387 407 L389 386 L379 364 L360 341 L328 380 L327 407 L340 420 L339 423 L331 423 L317 417 L306 405 L303 393 L305 358 L312 356 L331 364 L330 352 L336 339 Z M489 277 L485 295 L479 302 L466 306 L466 308 L475 312 L475 320 L471 331 L463 340 L455 343 L443 343 L436 339 L433 334 L433 328 L435 327 L442 331 L449 328 L453 322 L453 315 L443 304 L427 302 L411 308 L401 318 L394 331 L393 342 L389 341 L388 326 L397 305 L410 294 L425 288 L469 288 L484 280 L487 276 Z M467 251 L469 250 L470 253 L468 254 Z M410 246 L418 250 L423 255 L424 259 L426 260 L426 271 L424 272 L422 280 L416 286 L402 293 L394 301 L385 318 L384 329 L382 330 L378 326 L380 307 L388 292 L392 289 L392 287 L405 272 L406 254 L401 247 Z M471 244 L472 247 L469 250 L468 246 Z M433 186 L439 186 L440 188 L448 190 L455 196 L455 198 L461 204 L464 215 L466 217 L467 225 L466 243 L464 244 L462 256 L459 258 L457 265 L454 267 L452 272 L445 279 L439 282 L437 280 L448 269 L457 252 L459 241 L459 224 L457 215 L455 214 L456 212 L453 209 L452 205 L450 205 L448 201 L442 198 L434 198 L427 203 L427 212 L429 214 L432 214 L433 211 L438 211 L438 219 L433 221 L426 220 L419 213 L418 202 L420 195 L425 190 L432 188 Z M483 164 L483 177 L486 194 L488 196 L490 213 L490 230 L488 244 L486 246 L483 257 L481 258 L475 270 L466 279 L457 284 L447 284 L447 281 L451 280 L465 268 L465 266 L471 259 L479 241 L480 207 L474 188 L471 185 L471 178 L474 171 Z M437 156 L439 155 L441 158 L439 159 Z M449 150 L451 149 L452 151 L450 152 Z M425 145 L431 148 L433 160 L441 168 L444 168 L444 161 L447 158 L449 162 L457 169 L471 191 L476 211 L476 231 L472 244 L470 243 L470 215 L468 214 L467 207 L462 197 L451 186 L443 184 L442 182 L429 182 L422 186 L418 183 L415 176 L415 167 Z M479 114 L480 115 L479 135 L474 140 L466 140 L463 145 L462 156 L463 163 L466 167 L466 170 L464 171 L459 165 L457 154 L455 153 L454 137 L458 125 L466 116 L468 117 L468 121 L470 122 L475 116 Z M472 44 L473 46 L470 56 L468 57 L468 63 L479 82 L479 93 L470 110 L467 107 L463 107 L461 114 L458 116 L451 129 L450 149 L442 153 L436 143 L433 125 L435 124 L435 118 L441 104 L448 98 L448 96 L453 93 L458 86 L461 88 L461 92 L466 88 L466 76 L461 69 L459 60 L461 59 L463 52 L470 44 Z M471 42 L473 41 L474 43 L472 44 Z"/></svg>
