<svg xmlns="http://www.w3.org/2000/svg" width="512" height="512" viewBox="0 0 512 512" aria-hidden="true" focusable="false"><path fill="currentColor" fill-rule="evenodd" clip-rule="evenodd" d="M246 317 L246 324 L248 327 L255 326 L262 327 L265 324 L266 314 L264 313 L259 315 L249 313 Z M257 319 L261 318 L262 323 L259 324 L257 322 Z M250 318 L253 317 L254 319 L251 320 Z M311 249 L306 254 L306 256 L310 261 L317 262 L318 265 L316 267 L313 267 L309 264 L306 266 L311 270 L318 270 L323 264 L323 262 L320 259 L320 257 L322 256 L322 253 L317 249 Z M313 252 L317 254 L318 257 L317 259 L315 259 L311 255 Z M194 249 L189 254 L189 256 L193 258 L189 264 L194 270 L200 270 L205 266 L205 264 L202 261 L205 256 L205 253 L200 249 Z M194 263 L197 262 L199 266 L196 267 Z M196 252 L199 252 L201 254 L198 258 L194 257 L194 254 Z M422 249 L423 259 L422 270 L426 274 L434 273 L437 267 L441 271 L443 271 L446 267 L450 268 L452 265 L456 266 L457 264 L460 265 L466 262 L485 262 L487 261 L487 259 L485 258 L468 258 L462 257 L459 254 L454 259 L452 251 L446 254 L444 249 L442 249 L439 253 L437 253 L435 249 L430 245 L427 245 Z M425 269 L426 264 L433 266 L430 271 Z M440 259 L442 258 L443 261 L441 262 Z M428 249 L430 249 L434 255 L435 261 L433 265 L431 264 L429 260 L431 255 L430 254 L427 256 L425 255 L425 252 Z M90 251 L86 246 L81 245 L76 248 L74 254 L72 253 L70 249 L68 249 L66 253 L59 251 L57 259 L52 254 L47 258 L26 258 L25 261 L26 262 L45 262 L47 264 L54 264 L55 266 L59 265 L62 269 L66 268 L68 271 L70 271 L72 267 L74 266 L76 271 L79 274 L85 274 L90 269 L90 263 L88 260 L90 256 Z M78 266 L85 264 L86 269 L82 271 Z M69 258 L71 259 L70 263 L68 262 Z M78 255 L82 259 L79 264 L77 263 Z M81 249 L84 249 L86 251 L85 256 L78 254 Z M251 241 L246 243 L240 249 L237 258 L237 265 L243 276 L250 280 L257 281 L265 278 L268 275 L269 258 L265 252 L265 250 L268 249 L268 246 L261 241 Z M252 256 L255 253 L260 253 L265 259 L264 260 L253 258 Z M251 245 L260 245 L264 248 L263 250 L254 249 L250 251 L249 255 L252 257 L251 262 L261 263 L263 265 L260 268 L250 266 L249 270 L255 272 L264 271 L265 273 L262 276 L254 277 L248 275 L244 272 L241 265 L241 256 L243 252 Z M250 196 L248 199 L250 209 L262 209 L264 206 L264 196 L259 195 L257 197 L254 195 Z M254 17 L252 51 L244 72 L250 78 L241 86 L245 94 L254 96 L254 102 L235 128 L239 146 L198 172 L175 172 L169 161 L160 164 L159 172 L169 177 L169 201 L153 221 L144 244 L121 241 L92 262 L122 280 L144 277 L155 304 L169 320 L169 344 L159 349 L161 357 L172 358 L175 349 L198 349 L221 367 L239 374 L235 393 L257 425 L245 426 L241 433 L249 442 L245 449 L253 463 L257 496 L259 463 L266 449 L262 442 L269 437 L267 427 L257 422 L275 396 L273 374 L292 366 L313 349 L336 349 L342 359 L352 355 L352 348 L342 344 L342 320 L355 306 L368 277 L393 279 L419 260 L391 241 L367 243 L358 220 L342 200 L342 176 L351 174 L351 163 L342 161 L336 172 L314 172 L273 146 L276 127 L256 96 L266 94 L269 84 L262 78 L266 75 L262 70 L265 63 L261 62 Z M254 446 L256 445 L257 447 L255 448 Z M251 437 L256 434 L259 438 L252 439 Z M260 429 L263 429 L266 433 L265 436 L262 438 L260 437 L261 435 L259 432 Z M251 429 L252 432 L250 433 L250 436 L247 437 L245 435 L245 432 L248 429 Z M244 375 L249 376 L252 381 L252 383 L248 386 L248 392 L250 397 L261 397 L262 396 L263 389 L262 384 L259 381 L263 375 L267 375 L272 381 L273 385 L272 393 L267 401 L256 412 L246 403 L238 390 L238 384 L240 382 L240 379 Z M255 369 L258 372 L258 376 L256 378 L253 376 Z M259 366 L259 363 L263 358 L279 349 L305 349 L306 350 L298 358 L280 368 L262 372 Z M205 350 L206 349 L233 349 L246 356 L253 363 L253 365 L249 372 L237 370 L218 361 Z M344 348 L347 348 L349 350 L349 352 L346 355 L343 355 L341 353 L341 351 Z M165 348 L170 350 L169 355 L165 355 L163 353 L163 350 Z M173 327 L175 326 L191 342 L190 345 L174 345 L173 344 Z M338 325 L339 326 L338 344 L337 345 L320 345 L319 343 L323 341 L324 338 L327 337 L328 334 Z M253 302 L258 301 L259 305 L255 307 L253 305 Z M338 299 L339 300 L339 318 L313 345 L293 345 L292 343 L308 332 L321 320 L335 301 Z M173 300 L174 299 L176 300 L184 312 L198 327 L209 336 L219 342 L220 344 L219 345 L199 345 L173 319 Z M199 320 L225 295 L227 316 L236 331 L253 348 L254 353 L258 352 L260 346 L274 333 L282 322 L286 311 L287 295 L313 322 L291 339 L269 350 L255 360 L246 352 L216 336 L203 326 Z M235 286 L249 300 L249 306 L254 311 L258 311 L262 308 L263 300 L276 286 L281 292 L283 300 L281 315 L273 329 L257 344 L255 344 L237 327 L231 316 L229 298 L231 291 Z M359 264 L366 268 L364 278 L356 297 L347 310 L344 312 L343 311 L343 286 L349 273 L357 264 Z M152 264 L155 264 L159 268 L169 287 L169 311 L168 312 L160 304 L150 286 L146 272 L146 267 Z M363 260 L369 258 L372 259 L373 261 L371 263 L365 263 Z M139 260 L144 258 L147 259 L148 261 L146 263 L141 263 Z M387 257 L391 259 L391 262 L389 264 L386 264 L383 262 L383 260 Z M297 257 L300 259 L300 262 L298 264 L294 262 L294 260 Z M214 257 L218 260 L215 264 L211 262 L211 260 Z M123 257 L125 257 L128 260 L128 262 L125 264 L123 264 L120 261 Z M369 252 L374 246 L378 244 L388 244 L394 247 L408 261 L392 275 L387 277 L380 277 L375 275 L370 270 L370 268 L377 263 L379 263 L386 268 L389 268 L395 262 L395 259 L389 253 L385 253 L377 259 Z M104 260 L119 246 L123 244 L133 244 L141 250 L142 254 L134 259 L128 256 L126 253 L122 253 L116 261 L123 268 L126 268 L132 263 L135 263 L142 269 L138 274 L134 276 L125 277 L116 273 Z M282 282 L282 279 L294 268 L299 268 L304 264 L304 259 L300 254 L293 254 L282 243 L282 240 L289 236 L307 235 L313 237 L326 246 L339 260 L322 279 L312 285 L294 287 Z M172 260 L188 244 L201 236 L219 235 L230 240 L230 243 L219 254 L212 254 L208 258 L208 265 L212 268 L218 268 L229 280 L228 283 L222 286 L207 287 L194 282 Z M251 227 L261 227 L291 257 L291 265 L260 297 L252 297 L221 265 L221 257 Z M255 216 L259 218 L259 221 L257 223 L253 221 L253 218 Z M343 208 L347 211 L355 222 L362 237 L366 254 L360 258 L358 258 L351 251 L344 239 L342 221 L343 213 L342 209 Z M168 208 L169 209 L169 236 L163 248 L154 258 L152 258 L146 254 L147 245 L156 223 L165 210 Z M315 204 L326 214 L336 229 L343 246 L355 260 L346 272 L334 296 L317 318 L290 291 L308 290 L319 286 L342 264 L347 263 L348 260 L342 258 L321 237 L306 231 L290 230 Z M195 204 L221 230 L206 231 L192 236 L170 258 L165 259 L164 262 L171 265 L191 285 L204 290 L222 291 L196 318 L183 304 L164 269 L157 261 L169 245 L179 224 Z M255 178 L279 203 L283 215 L281 230 L279 234 L275 236 L262 223 L262 215 L254 212 L250 215 L250 223 L235 237 L229 225 L230 209 L238 195 Z M319 176 L320 175 L338 175 L339 176 L339 194 L337 195 Z M287 176 L288 175 L312 175 L339 202 L339 223 L337 224 L335 222 L331 214 L321 202 L303 187 L300 186 L297 182 L293 181 Z M222 175 L223 177 L220 180 L213 183 L210 187 L200 194 L188 205 L176 223 L174 224 L173 223 L173 202 L189 185 L200 175 Z M173 194 L173 176 L174 175 L192 175 L193 176 L175 195 Z M343 165 L347 165 L349 168 L346 172 L344 172 L341 169 Z M165 165 L169 165 L171 167 L168 172 L165 172 L163 170 L163 167 Z M199 200 L213 188 L244 171 L256 162 L261 167 L300 189 L313 201 L287 226 L283 202 L278 194 L259 175 L257 169 L254 170 L248 181 L231 198 L226 209 L225 227 Z M259 155 L262 149 L275 151 L292 159 L293 161 L301 165 L307 171 L306 172 L302 171 L277 172 L265 165 L259 159 Z M253 156 L253 158 L248 164 L235 172 L228 171 L206 172 L205 171 L208 167 L216 161 L236 151 L249 149 Z M255 143 L258 145 L258 150 L256 152 L253 149 L253 146 Z M254 128 L258 127 L259 129 L255 130 Z M255 109 L257 109 L268 121 L273 129 L273 138 L267 146 L263 146 L259 140 L263 133 L263 127 L259 123 L253 123 L248 127 L248 133 L252 139 L249 146 L243 145 L240 142 L240 139 L238 137 L238 130 L244 120 Z M245 85 L252 81 L259 81 L264 83 L266 88 L263 91 L260 91 L259 88 L261 85 L256 86 L249 85 L252 90 L248 91 L245 88 Z M253 73 L256 72 L257 74 L254 75 Z"/></svg>
