<svg xmlns="http://www.w3.org/2000/svg" width="512" height="512" viewBox="0 0 512 512" aria-hidden="true" focusable="false"><path fill="currentColor" fill-rule="evenodd" clip-rule="evenodd" d="M264 17 L245 69 L250 98 L247 101 L235 93 L237 101 L221 130 L220 146 L226 162 L210 155 L212 166 L202 188 L202 207 L188 195 L189 207 L167 244 L163 261 L166 289 L177 311 L199 333 L228 347 L231 362 L221 360 L215 350 L207 356 L202 369 L181 366 L178 359 L187 348 L185 336 L168 317 L162 299 L147 291 L151 302 L143 325 L144 344 L139 347 L152 385 L179 400 L176 412 L181 421 L203 428 L209 424 L211 409 L230 419 L233 432 L208 435 L220 455 L232 460 L255 496 L304 435 L279 432 L282 419 L301 409 L307 427 L318 428 L331 421 L336 413 L333 400 L361 384 L374 349 L368 344 L369 324 L362 307 L365 291 L351 298 L344 316 L328 334 L326 351 L335 360 L331 366 L310 369 L297 350 L292 359 L280 363 L282 348 L313 333 L336 310 L347 288 L350 262 L345 240 L322 201 L322 187 L311 196 L306 221 L291 243 L291 259 L298 271 L292 271 L270 237 L305 204 L311 168 L291 127 L292 118 L281 124 L285 106 L278 81 L272 83 L268 77 L270 55 L264 38 Z M218 439 L230 436 L241 437 L245 441 L255 463 L257 463 L260 454 L271 437 L282 436 L293 438 L294 442 L286 454 L276 454 L276 462 L273 468 L257 485 L255 485 L239 468 L236 462 L236 454 L226 454 L220 447 Z M255 414 L258 415 L263 425 L265 434 L263 443 L257 451 L255 451 L250 445 L247 436 L248 427 Z M181 406 L188 398 L195 395 L209 395 L215 399 L224 400 L229 403 L237 412 L242 421 L241 423 L243 425 L244 432 L243 433 L239 432 L237 423 L227 409 L220 406 L206 405 L203 407 L202 410 L207 414 L207 419 L201 424 L195 424 L192 421 L192 418 L190 416 L185 419 L181 415 Z M331 406 L332 412 L330 417 L326 419 L322 416 L320 418 L320 422 L317 424 L311 424 L306 420 L305 414 L308 411 L310 411 L310 408 L308 406 L295 405 L287 408 L280 414 L274 426 L273 432 L270 434 L268 433 L269 425 L274 413 L282 404 L288 400 L297 399 L303 395 L310 394 L317 395 L324 398 Z M281 389 L285 397 L273 407 L272 401 L277 392 Z M231 389 L237 395 L240 403 L239 407 L228 397 Z M335 370 L333 377 L329 381 L326 382 L311 382 L310 381 L310 375 L314 372 L329 371 L333 369 Z M177 370 L180 369 L183 371 L198 372 L201 374 L202 381 L201 382 L184 381 L178 375 Z M300 357 L305 366 L304 377 L307 378 L303 390 L297 395 L291 396 L286 392 L285 389 L287 386 L292 386 L293 383 L290 381 L284 381 L280 383 L273 391 L268 400 L266 410 L267 420 L265 421 L260 411 L260 401 L266 383 L277 371 L285 366 L287 367 L287 371 L290 372 L292 364 L298 357 Z M255 357 L263 365 L265 371 L264 380 L261 383 L257 395 L254 394 L252 386 L249 380 L247 379 L248 366 Z M212 357 L214 357 L220 364 L222 372 L225 371 L225 367 L227 366 L236 372 L246 383 L252 401 L252 410 L247 421 L245 420 L246 409 L244 400 L239 391 L232 383 L228 381 L220 382 L220 386 L225 386 L227 389 L226 392 L221 396 L218 396 L209 390 L205 378 L208 377 L207 366 Z M345 347 L348 352 L348 359 L345 368 L340 373 L339 364 L337 360 L344 355 L343 348 Z M167 347 L169 348 L168 351 L169 356 L172 359 L176 360 L173 366 L172 373 L168 369 L165 362 L165 350 Z M275 344 L278 343 L279 345 L276 346 Z M232 344 L234 343 L235 345 L233 346 Z M213 336 L216 335 L217 337 L214 338 Z M302 333 L299 337 L292 340 L290 339 L291 337 L300 332 Z M255 332 L266 341 L267 343 L266 348 L267 349 L271 348 L275 353 L276 367 L270 373 L268 372 L268 367 L265 360 L258 353 L257 350 L254 350 L252 355 L245 362 L242 372 L235 365 L235 357 L238 349 L240 347 L244 349 L246 340 Z M208 333 L210 332 L211 334 L209 335 Z M357 299 L358 307 L365 326 L365 339 L363 344 L357 350 L358 353 L363 350 L366 351 L365 365 L361 376 L353 386 L339 394 L326 395 L316 390 L309 390 L308 388 L311 386 L333 384 L339 381 L347 373 L352 359 L350 346 L346 343 L340 343 L338 346 L340 353 L336 355 L331 352 L330 340 L334 333 L343 325 L349 327 L348 311 L351 304 Z M155 299 L161 304 L164 310 L165 319 L163 326 L167 327 L169 325 L180 335 L183 343 L182 351 L177 355 L172 353 L175 349 L175 346 L172 343 L166 343 L163 345 L161 349 L161 362 L164 371 L172 380 L179 384 L201 386 L204 388 L203 390 L196 390 L185 395 L173 394 L162 388 L152 377 L148 368 L146 351 L149 350 L152 353 L155 352 L147 338 L147 327 L154 308 Z M256 285 L269 301 L272 308 L272 316 L268 324 L262 329 L260 329 L257 324 L254 324 L254 326 L250 330 L240 320 L239 307 L244 297 Z M255 255 L276 277 L279 285 L277 296 L287 292 L290 303 L290 313 L287 321 L278 331 L266 336 L264 332 L274 321 L276 308 L269 294 L258 282 L257 277 L254 277 L253 282 L238 298 L235 306 L235 318 L238 325 L246 332 L244 336 L234 332 L226 325 L220 311 L223 293 L225 292 L233 297 L232 282 L235 276 Z M319 252 L325 258 L327 262 L329 271 L329 282 L328 288 L322 303 L317 311 L312 315 L311 314 L312 311 L311 293 L305 282 L299 276 L299 271 L301 270 L306 272 L311 272 L315 270 L319 266 L320 262 L317 254 Z M191 252 L193 252 L194 254 L191 257 L190 264 L194 270 L199 272 L204 272 L208 270 L211 271 L210 276 L203 284 L198 296 L198 311 L197 312 L194 310 L190 304 L183 284 L183 266 L186 257 Z M255 224 L286 263 L289 273 L288 282 L296 277 L304 287 L308 298 L308 311 L303 322 L294 331 L279 339 L277 337 L286 330 L293 318 L292 288 L283 287 L280 275 L262 257 L257 246 L233 271 L228 287 L218 288 L217 317 L222 327 L234 338 L224 336 L215 330 L206 320 L202 310 L202 297 L205 288 L213 277 L221 282 L221 270 L224 262 L231 253 L235 253 L235 248 Z M228 209 L232 211 L236 219 L237 224 L236 234 L232 244 L228 249 L228 251 L221 259 L217 271 L215 272 L211 268 L214 265 L218 257 L218 249 L216 247 L215 241 L207 230 L207 224 L202 223 L202 216 L204 215 L207 220 L213 224 L222 226 L227 224 L230 219 L229 214 L224 211 L225 209 Z M193 207 L198 215 L198 232 L203 230 L210 240 L213 256 L206 267 L199 268 L195 264 L194 259 L197 256 L203 256 L202 252 L198 248 L189 249 L183 255 L179 265 L179 284 L186 305 L192 315 L204 328 L203 330 L196 326 L179 307 L172 293 L167 273 L170 248 L175 236 Z M317 197 L321 208 L338 234 L345 254 L346 269 L344 283 L334 306 L316 326 L304 333 L303 331 L319 316 L327 303 L333 282 L332 264 L329 256 L323 249 L315 246 L307 250 L306 255 L312 255 L315 258 L315 264 L309 268 L301 266 L294 254 L296 242 L307 228 L311 232 L313 230 L310 212 L312 204 Z M228 165 L240 174 L251 179 L261 191 L263 197 L263 207 L261 214 L259 216 L255 214 L254 203 L250 195 L237 181 L237 178 L233 179 L231 178 L230 172 L227 168 Z M216 162 L224 169 L227 175 L228 189 L231 190 L232 186 L235 184 L249 201 L251 208 L251 222 L249 227 L242 235 L240 234 L241 223 L239 215 L232 206 L223 205 L220 208 L220 214 L226 217 L221 222 L214 220 L206 209 L205 194 Z M288 128 L306 165 L306 190 L301 203 L292 215 L273 230 L266 232 L265 230 L276 223 L285 213 L292 196 L292 177 L288 167 L281 163 L279 164 L280 172 L277 176 L281 177 L286 173 L289 188 L285 204 L276 215 L278 192 L272 180 L273 175 L264 165 L264 159 L270 147 L276 144 L278 148 L281 148 L282 135 L285 129 Z M280 126 L281 128 L278 136 L272 137 L272 140 L270 141 L268 139 L269 134 Z M262 120 L263 125 L259 134 L259 138 L262 137 L264 138 L266 146 L262 152 L260 164 L257 165 L250 158 L247 152 L246 143 L250 133 L257 127 L259 122 Z M260 41 L266 56 L264 78 L268 84 L268 93 L271 94 L274 89 L276 90 L281 112 L276 124 L267 129 L265 109 L263 104 L259 103 L258 117 L241 142 L246 160 L266 178 L273 189 L273 208 L263 225 L261 222 L267 208 L265 190 L256 178 L231 161 L224 145 L226 128 L241 101 L244 103 L247 113 L250 112 L254 90 L249 78 L249 69 L258 52 Z"/></svg>
