<svg xmlns="http://www.w3.org/2000/svg" width="512" height="512" viewBox="0 0 512 512" aria-hidden="true" focusable="false"><path fill="currentColor" fill-rule="evenodd" clip-rule="evenodd" d="M273 17 L266 38 L243 66 L241 82 L228 83 L231 95 L224 122 L211 118 L210 133 L189 155 L176 180 L161 174 L163 182 L149 214 L146 237 L134 236 L136 253 L130 285 L119 286 L126 325 L137 345 L130 353 L162 386 L186 392 L183 406 L194 407 L212 423 L224 424 L239 414 L259 429 L260 445 L253 433 L242 429 L223 439 L221 454 L232 475 L226 495 L249 493 L271 482 L293 461 L304 442 L310 403 L318 393 L296 394 L289 368 L296 342 L309 335 L322 338 L327 343 L327 356 L314 359 L310 350 L315 345 L307 345 L302 357 L305 370 L324 382 L346 380 L366 368 L377 355 L394 298 L382 295 L383 273 L371 238 L374 226 L362 226 L362 213 L342 172 L329 190 L322 186 L329 169 L327 141 L331 134 L315 136 L312 116 L291 83 L290 67 L280 68 L283 40 Z M243 434 L248 436 L252 440 L253 448 L250 453 L244 454 L240 451 L241 446 L239 445 L237 447 L237 453 L242 458 L251 458 L256 455 L257 462 L253 474 L248 481 L240 488 L236 489 L235 488 L237 481 L236 472 L233 465 L226 455 L226 445 L233 436 L238 434 Z M273 421 L275 420 L276 422 L274 423 Z M270 415 L272 414 L273 416 L271 417 Z M267 410 L269 409 L271 413 L269 414 Z M305 398 L306 401 L302 432 L294 451 L289 457 L288 455 L291 448 L293 436 L293 416 L292 415 L293 408 L298 401 Z M289 396 L291 395 L292 397 L290 398 Z M247 393 L249 392 L258 397 L268 408 L266 409 Z M190 399 L201 391 L212 390 L219 393 L218 395 L214 396 L214 398 L236 397 L244 399 L255 405 L266 416 L270 423 L273 434 L272 447 L263 462 L261 461 L261 456 L265 447 L265 433 L261 424 L254 416 L243 410 L226 410 L217 407 L219 411 L227 413 L228 416 L224 419 L212 418 Z M224 348 L232 349 L240 354 L240 344 L242 340 L251 342 L257 348 L261 359 L261 371 L259 372 L255 370 L248 370 L242 365 L241 367 L246 377 L253 374 L263 382 L267 389 L270 398 L269 400 L258 391 L241 384 L230 374 L224 360 Z M170 330 L176 330 L180 327 L182 328 L184 345 L187 357 L189 360 L188 362 L183 358 L175 347 L171 339 L169 332 Z M320 326 L328 332 L332 339 L331 341 L320 332 L306 331 L296 336 L291 341 L286 350 L284 365 L291 394 L289 395 L280 371 L280 365 L278 363 L282 344 L286 337 L295 328 L306 324 L313 324 Z M244 321 L254 324 L262 332 L264 339 L261 346 L252 338 L244 335 L245 327 L243 323 Z M309 270 L325 284 L331 294 L332 309 L328 318 L338 313 L352 317 L357 328 L355 339 L349 339 L351 353 L345 367 L337 374 L325 377 L314 372 L307 361 L324 364 L334 357 L337 342 L332 331 L323 323 L314 320 L298 322 L286 330 L277 347 L276 370 L288 406 L289 440 L276 470 L264 481 L252 486 L258 473 L274 456 L282 435 L280 412 L266 373 L267 341 L281 313 L302 289 Z M142 243 L174 279 L181 292 L183 304 L181 317 L175 325 L169 325 L164 320 L165 334 L170 348 L179 361 L201 380 L198 381 L182 371 L159 344 L151 319 L157 289 L165 291 L172 298 L175 311 L177 302 L169 289 L152 280 L150 281 L152 293 L147 308 L150 334 L167 362 L196 383 L197 387 L180 387 L166 382 L149 367 L140 353 L149 349 L138 340 L133 331 L128 293 L139 296 L135 285 L135 273 Z M328 235 L334 249 L331 269 L340 261 L346 260 L346 266 L353 284 L353 293 L350 301 L344 307 L338 309 L337 297 L330 282 L313 267 L307 265 L307 260 L305 260 L298 266 L298 269 L302 270 L302 279 L298 288 L266 329 L262 321 L262 311 L274 290 L274 283 L280 283 L287 289 L285 273 L289 263 L298 254 L320 242 Z M276 225 L277 227 L272 234 L269 234 L259 243 L255 251 L251 249 L250 252 L233 268 L229 278 L228 288 L220 288 L220 294 L215 305 L214 322 L217 333 L223 343 L216 345 L216 347 L218 348 L221 367 L225 375 L231 381 L229 383 L214 366 L206 347 L204 337 L204 322 L207 306 L216 285 L230 265 L249 245 L262 234 Z M323 193 L314 205 L310 203 L305 207 L302 208 L300 207 L310 194 L317 191 L320 191 Z M342 186 L357 214 L358 224 L352 241 L366 234 L378 274 L378 292 L369 309 L386 303 L382 330 L370 356 L358 368 L344 374 L354 360 L356 347 L366 339 L359 336 L361 322 L350 310 L358 291 L351 266 L353 255 L338 256 L332 222 L321 236 L286 260 L279 277 L267 277 L270 287 L258 306 L257 319 L237 317 L233 320 L241 329 L236 345 L232 345 L222 333 L219 311 L225 295 L239 304 L233 292 L239 269 L250 258 L261 269 L261 250 L269 241 L277 250 L276 239 L284 224 L309 211 L314 225 L318 206 Z M236 174 L246 181 L251 191 L250 201 L244 208 L233 210 L227 205 L226 201 L230 195 L234 194 L238 196 L239 194 L233 187 L226 185 L218 186 L209 191 L197 208 L192 225 L192 243 L199 274 L195 282 L191 284 L184 257 L179 255 L173 247 L172 238 L175 225 L180 225 L185 233 L187 233 L188 212 L199 189 L211 178 L219 174 Z M268 145 L277 153 L282 165 L281 182 L274 195 L272 194 L272 182 L270 175 L260 159 L262 150 Z M219 127 L232 148 L262 170 L267 181 L267 195 L261 209 L203 265 L196 233 L202 209 L210 197 L226 190 L222 196 L222 206 L232 215 L246 213 L256 199 L252 181 L240 171 L226 166 L219 155 L216 156 L214 170 L200 182 L189 198 L183 220 L169 217 L168 246 L172 255 L182 264 L187 285 L185 290 L180 279 L153 246 L152 223 L167 184 L173 187 L180 200 L180 185 L187 167 Z M266 102 L286 126 L292 139 L295 153 L292 183 L279 209 L219 271 L209 288 L200 316 L200 342 L204 356 L218 378 L235 392 L229 394 L211 383 L196 365 L188 343 L188 313 L194 292 L215 258 L269 209 L283 190 L287 176 L283 153 L269 138 L266 138 L258 147 L254 160 L248 154 L245 144 L247 131 L253 122 L259 125 L257 117 Z M273 33 L278 41 L278 54 L274 65 L276 83 L283 75 L307 118 L310 143 L306 156 L321 140 L324 158 L320 180 L281 217 L279 215 L296 185 L299 154 L290 125 L264 89 L265 65 L261 71 L260 101 L243 128 L240 149 L233 142 L229 131 L229 117 L236 88 L242 89 L250 96 L246 83 L247 70 Z"/></svg>
