<svg xmlns="http://www.w3.org/2000/svg" width="512" height="512" viewBox="0 0 512 512" aria-hidden="true" focusable="false"><path fill="currentColor" fill-rule="evenodd" clip-rule="evenodd" d="M496 219 L484 233 L456 241 L448 258 L431 252 L411 252 L382 270 L376 289 L361 296 L352 310 L353 323 L362 335 L383 339 L366 351 L347 348 L319 316 L292 307 L273 290 L287 268 L286 242 L273 225 L257 221 L235 207 L209 208 L188 222 L179 244 L184 269 L196 281 L210 285 L225 282 L234 274 L238 255 L230 243 L215 241 L206 249 L212 261 L215 247 L224 246 L232 253 L230 270 L218 279 L197 275 L186 261 L184 245 L188 232 L202 217 L221 211 L237 213 L277 237 L282 251 L280 270 L270 284 L253 292 L267 293 L285 306 L251 319 L224 344 L214 311 L198 296 L172 290 L144 302 L136 292 L134 271 L147 250 L169 242 L166 218 L173 200 L195 186 L208 196 L204 173 L214 158 L224 154 L241 157 L252 175 L247 187 L236 189 L231 182 L240 174 L230 173 L225 180 L230 192 L245 194 L256 182 L253 161 L229 146 L224 136 L226 122 L247 95 L250 100 L243 115 L244 125 L272 144 L272 167 L282 160 L290 171 L291 185 L285 197 L296 193 L317 196 L327 206 L330 219 L352 225 L365 241 L365 271 L351 288 L324 295 L301 280 L299 260 L312 247 L324 247 L332 256 L327 268 L321 267 L322 261 L315 263 L316 270 L326 274 L336 267 L336 251 L323 241 L307 243 L296 254 L293 273 L297 284 L311 297 L336 300 L351 295 L367 279 L372 265 L367 233 L355 221 L336 214 L322 193 L296 187 L296 171 L280 153 L276 140 L249 122 L255 93 L242 75 L242 93 L219 126 L224 148 L204 161 L197 180 L179 187 L169 197 L161 215 L162 237 L139 250 L129 269 L130 291 L110 300 L100 314 L99 332 L105 344 L122 356 L141 354 L153 368 L143 375 L132 375 L101 358 L82 355 L65 362 L49 387 L30 380 L17 383 L26 385 L44 401 L56 403 L64 400 L76 383 L86 381 L120 409 L161 423 L204 420 L239 403 L251 420 L271 433 L303 437 L326 432 L341 423 L357 401 L389 396 L420 374 L436 341 L439 296 L473 282 L475 255 L493 240 Z M123 299 L134 299 L142 307 L135 321 L134 336 L137 349 L133 351 L124 351 L115 347 L109 340 L105 331 L105 319 L108 311 L114 304 Z M214 323 L218 351 L213 373 L203 389 L180 407 L160 412 L137 410 L123 404 L87 376 L73 378 L58 397 L44 394 L57 387 L69 366 L83 360 L102 364 L129 380 L145 380 L159 369 L175 370 L189 363 L197 353 L199 340 L188 323 L174 322 L164 333 L169 344 L177 342 L169 336 L175 327 L185 328 L192 336 L193 348 L182 361 L161 363 L143 347 L139 332 L142 319 L161 299 L189 298 L200 304 Z M445 284 L433 297 L431 339 L416 370 L390 390 L374 395 L354 395 L347 409 L326 426 L301 432 L276 429 L264 424 L249 410 L242 393 L205 414 L168 417 L189 409 L208 396 L257 349 L279 341 L302 345 L311 356 L313 371 L306 382 L296 384 L296 365 L288 361 L275 363 L266 377 L270 399 L291 414 L318 412 L335 399 L342 381 L357 383 L380 378 L404 360 L417 337 L421 287 L429 281 Z M487 239 L471 251 L471 274 L464 283 L456 285 L437 275 L417 283 L413 294 L413 331 L401 355 L370 376 L335 374 L334 389 L321 405 L294 409 L283 405 L273 393 L272 376 L282 366 L293 371 L286 382 L294 390 L306 389 L317 376 L314 350 L297 337 L276 336 L258 342 L218 375 L226 351 L247 328 L285 312 L317 321 L347 354 L363 357 L378 352 L395 331 L395 317 L388 309 L378 309 L375 319 L386 315 L389 324 L380 333 L370 333 L361 326 L358 311 L368 298 L381 296 L386 274 L412 258 L452 263 L460 245 Z"/></svg>
