<svg xmlns="http://www.w3.org/2000/svg" width="512" height="512" viewBox="0 0 512 512" aria-hidden="true" focusable="false"><path fill="currentColor" fill-rule="evenodd" clip-rule="evenodd" d="M279 464 L269 463 L265 461 L258 464 L257 461 L260 457 L257 457 L252 462 L245 459 L238 460 L234 463 L234 465 L238 467 L236 471 L236 476 L241 479 L247 479 L252 475 L253 477 L259 480 L259 482 L256 485 L241 488 L241 491 L243 491 L248 496 L261 495 L267 489 L266 486 L267 481 L263 480 L267 475 L267 470 L265 467 L267 466 L275 468 L275 472 L270 475 L270 478 L276 481 L278 480 L280 476 L284 474 L284 471 L281 472 L279 471 Z M250 492 L253 489 L257 490 L255 493 Z M260 469 L261 471 L258 473 L257 471 Z M256 463 L257 467 L255 469 L252 469 L251 466 Z M438 433 L436 436 L436 441 L438 444 L437 449 L431 456 L423 456 L421 459 L421 464 L424 467 L429 467 L434 460 L449 460 L455 467 L460 467 L463 464 L462 457 L460 456 L452 457 L445 446 L447 442 L446 434 L444 432 Z M456 461 L458 460 L459 462 L457 463 Z M425 461 L427 460 L428 462 L426 463 Z M438 456 L441 450 L445 453 L445 455 L442 457 Z M440 437 L442 436 L444 439 L441 440 Z M69 432 L66 436 L66 442 L68 446 L65 452 L61 457 L58 456 L51 457 L50 464 L53 467 L58 467 L64 460 L79 460 L84 467 L89 467 L92 464 L91 457 L81 456 L74 446 L77 441 L77 436 L75 433 Z M85 461 L87 460 L88 462 L86 463 Z M54 461 L56 460 L57 462 L55 463 Z M71 450 L75 454 L74 457 L71 457 L68 455 L68 453 Z M71 436 L73 437 L72 440 L69 439 Z M313 373 L315 384 L321 386 L323 390 L325 390 L326 388 L330 389 L328 392 L316 394 L316 397 L319 397 L324 401 L331 401 L340 396 L341 397 L340 403 L342 403 L345 399 L345 395 L341 391 L342 387 L338 385 L337 382 L331 384 L325 384 L322 382 L324 379 L324 375 L322 374 L323 371 L327 371 L329 373 L329 379 L331 380 L337 379 L339 377 L339 374 L342 372 L350 374 L351 378 L348 379 L346 382 L347 386 L350 388 L352 388 L362 380 L362 378 L358 379 L356 378 L355 372 L353 370 L345 368 L334 370 L328 367 L323 367 Z M326 396 L328 395 L329 397 L327 398 Z M164 368 L157 375 L157 382 L162 386 L168 386 L171 382 L170 379 L171 375 L177 372 L180 372 L181 376 L178 377 L179 384 L183 387 L183 389 L180 391 L179 395 L181 398 L184 399 L184 403 L181 405 L181 408 L186 409 L188 395 L185 387 L188 384 L188 381 L194 376 L193 373 L189 374 L186 370 L181 367 Z M170 373 L168 377 L162 376 L167 371 Z M234 363 L236 371 L245 377 L252 377 L258 372 L261 372 L268 377 L272 377 L279 370 L277 363 L280 360 L280 358 L271 356 L266 361 L266 364 L270 366 L269 372 L266 371 L262 367 L263 360 L262 357 L259 358 L257 356 L254 356 L247 361 L242 356 L239 356 L235 360 Z M239 366 L247 362 L249 365 L252 366 L252 371 L245 372 L241 370 Z M297 292 L297 300 L302 305 L306 305 L308 302 L308 298 L306 296 L301 296 L300 294 L302 292 L305 293 L308 291 L310 292 L310 294 L313 295 L312 303 L316 306 L320 306 L325 302 L325 299 L323 297 L324 295 L327 295 L332 298 L331 304 L333 306 L337 306 L340 301 L344 302 L347 306 L351 306 L354 302 L359 299 L359 298 L355 299 L353 298 L353 287 L349 288 L348 290 L345 290 L339 287 L334 290 L323 287 L318 287 L311 291 L309 289 L305 289 L304 287 L302 287 Z M346 295 L348 294 L349 297 L347 298 Z M339 295 L341 293 L344 294 L343 297 L340 297 Z M158 292 L161 294 L160 302 L164 305 L169 305 L173 302 L176 302 L185 306 L183 313 L187 317 L188 324 L191 323 L191 309 L189 302 L193 299 L196 299 L199 305 L204 304 L208 305 L214 300 L217 306 L221 306 L222 303 L228 299 L228 297 L224 299 L222 298 L221 295 L222 289 L218 287 L215 287 L213 290 L202 287 L196 291 L195 296 L190 295 L190 293 L193 290 L187 287 L181 290 L179 289 L179 287 L175 289 L169 287 L163 287 Z M182 300 L184 299 L185 301 L183 302 Z M205 295 L206 297 L201 301 L200 298 Z M179 295 L181 294 L182 296 L180 297 Z M177 291 L179 290 L180 292 L178 293 Z M56 287 L57 290 L61 291 L57 296 L57 299 L62 304 L69 304 L76 299 L81 304 L84 305 L85 313 L90 317 L90 323 L93 323 L93 308 L89 306 L88 304 L94 297 L94 294 L91 290 L96 287 L95 286 L91 286 L89 284 L82 286 L81 283 L74 286 L68 283 L62 283 L58 287 Z M85 297 L87 298 L86 301 L83 300 Z M64 295 L66 294 L67 296 L65 297 Z M80 293 L82 292 L83 295 L81 296 Z M81 288 L80 291 L77 292 L74 291 L78 287 Z M455 278 L452 277 L450 283 L445 287 L439 287 L433 284 L426 284 L422 286 L419 289 L420 293 L422 294 L421 303 L426 307 L431 306 L433 296 L440 295 L442 297 L440 301 L441 305 L448 306 L449 303 L454 301 L456 298 L450 299 L448 294 L445 291 L452 286 L455 281 Z M429 289 L434 288 L435 290 L430 291 Z M215 240 L215 243 L217 244 L217 251 L222 255 L224 255 L227 251 L228 244 L235 246 L233 253 L237 255 L240 255 L246 251 L249 254 L259 253 L262 248 L264 249 L264 253 L266 255 L271 254 L271 252 L274 250 L282 255 L285 255 L293 250 L296 254 L302 255 L303 252 L308 248 L307 245 L303 244 L303 239 L300 237 L296 239 L292 239 L289 237 L280 237 L274 242 L272 241 L272 238 L264 237 L262 239 L251 237 L244 242 L243 238 L225 238 L220 236 Z M253 245 L254 247 L251 249 L250 247 Z M296 246 L297 243 L300 244 L298 247 Z M288 243 L290 242 L291 244 L289 245 Z M164 213 L164 216 L167 219 L166 225 L169 228 L172 228 L175 223 L181 223 L184 225 L184 227 L189 228 L198 222 L198 220 L195 220 L192 223 L188 224 L187 221 L189 218 L189 213 L186 210 L181 208 L170 209 Z M172 213 L180 212 L181 219 L175 220 Z M215 200 L215 202 L220 205 L218 208 L218 211 L220 213 L226 213 L228 207 L233 207 L236 213 L240 213 L244 210 L241 202 L244 199 L243 196 L240 197 L237 195 L234 196 L230 200 L229 196 L225 197 L221 195 L217 197 Z M225 201 L229 200 L230 203 L227 204 Z M104 177 L89 211 L90 240 L105 271 L129 296 L105 317 L93 336 L87 357 L87 382 L97 411 L118 435 L147 450 L190 453 L224 444 L257 423 L299 448 L350 453 L387 441 L410 420 L425 387 L425 350 L413 323 L387 298 L387 291 L417 255 L424 233 L424 213 L411 180 L393 162 L354 147 L157 147 L135 153 Z M183 342 L202 362 L208 376 L208 389 L204 399 L195 409 L182 414 L171 414 L158 409 L152 403 L147 393 L146 379 L154 361 Z M330 341 L355 356 L367 376 L367 389 L361 403 L352 411 L343 414 L330 414 L319 410 L310 401 L304 387 L305 372 L310 362 Z M250 332 L262 332 L275 337 L283 346 L286 356 L285 373 L279 389 L257 415 L236 393 L227 370 L227 354 L230 345 L239 336 Z M422 359 L420 390 L407 416 L383 438 L346 449 L298 443 L260 419 L280 396 L291 370 L291 354 L284 339 L269 329 L244 329 L228 340 L221 358 L222 373 L231 394 L252 419 L233 434 L205 446 L165 449 L132 439 L106 416 L91 379 L92 353 L102 329 L132 299 L178 338 L150 359 L141 377 L147 403 L168 418 L186 418 L199 412 L212 391 L211 370 L189 339 L255 301 L325 338 L300 373 L303 399 L324 417 L349 417 L369 398 L372 375 L366 362 L335 337 L379 298 L408 324 Z M264 296 L328 259 L337 263 L376 294 L330 335 L266 300 Z M139 293 L177 261 L185 258 L250 295 L251 298 L183 336 L141 300 Z M306 225 L309 224 L312 227 L315 227 L317 223 L319 222 L330 228 L338 228 L344 226 L348 222 L349 226 L352 228 L359 226 L360 230 L350 241 L348 241 L339 247 L338 249 L332 252 L329 252 L313 238 L308 231 Z M319 218 L321 217 L322 219 L320 220 Z M336 217 L338 216 L339 218 L337 219 Z M310 216 L312 215 L313 217 L311 218 Z M304 214 L307 215 L306 222 L303 219 Z M345 214 L352 213 L354 216 L354 219 L351 220 Z M284 206 L287 205 L288 207 L285 208 Z M270 204 L276 203 L277 209 L271 210 L269 208 Z M287 202 L290 201 L292 204 L288 206 Z M286 195 L289 194 L290 196 L287 197 Z M304 208 L310 198 L316 193 L323 190 L337 189 L350 193 L358 200 L363 211 L363 218 L362 219 L357 218 L358 212 L355 209 L350 210 L346 208 L342 208 L335 214 L334 218 L331 218 L329 214 L332 211 L332 209 L323 208 L318 212 L314 208 L311 208 L308 212 L305 212 Z M177 188 L185 188 L197 192 L203 197 L209 207 L209 220 L204 230 L183 251 L161 238 L156 233 L150 219 L154 201 L162 193 Z M93 215 L107 181 L128 162 L153 152 L352 151 L381 160 L405 180 L417 204 L420 230 L408 262 L380 291 L336 257 L361 237 L367 224 L366 206 L356 192 L340 184 L326 184 L311 191 L300 204 L295 203 L292 186 L286 186 L283 195 L274 200 L268 195 L252 195 L246 200 L252 213 L258 211 L256 200 L261 201 L264 211 L273 214 L284 209 L294 213 L299 207 L303 232 L324 254 L255 293 L188 254 L209 231 L214 207 L201 189 L175 183 L151 197 L146 222 L154 237 L177 256 L132 291 L105 263 L96 243 Z M308 125 L308 129 L311 131 L309 134 L309 137 L313 140 L317 137 L318 134 L324 135 L327 140 L330 140 L336 135 L336 132 L332 135 L328 134 L328 132 L331 129 L331 126 L323 120 L316 120 Z M319 125 L322 126 L321 131 L317 130 Z M178 126 L178 128 L182 130 L182 132 L179 134 L179 137 L183 140 L185 140 L187 136 L190 134 L194 135 L195 138 L198 140 L201 140 L207 135 L207 132 L203 135 L201 134 L201 126 L196 121 L193 120 L183 121 Z M186 127 L192 125 L193 130 L188 131 Z M256 17 L254 21 L255 38 L252 41 L254 47 L250 49 L250 53 L254 53 L255 56 L248 59 L249 64 L245 69 L245 74 L249 78 L248 82 L255 88 L245 97 L246 107 L234 109 L230 114 L230 119 L220 124 L218 135 L223 140 L290 140 L296 133 L294 125 L283 120 L283 113 L280 109 L268 107 L269 98 L262 90 L261 80 L264 74 L261 69 L266 68 L266 64 L262 61 L264 54 L258 52 L262 45 L259 42 L261 36 Z M222 129 L225 126 L231 125 L284 125 L288 126 L291 129 L291 133 L289 135 L224 135 L222 133 Z M234 115 L237 112 L276 112 L279 115 L279 118 L277 120 L236 120 L234 118 Z M249 98 L254 94 L259 94 L265 100 L264 105 L260 108 L253 108 L249 105 Z"/></svg>
