<svg xmlns="http://www.w3.org/2000/svg" width="512" height="512" viewBox="0 0 512 512" aria-hidden="true" focusable="false"><path fill="currentColor" fill-rule="evenodd" clip-rule="evenodd" d="M255 17 L225 75 L223 89 L206 107 L197 133 L204 167 L234 200 L231 228 L206 261 L186 240 L185 219 L191 217 L189 226 L205 224 L212 204 L197 187 L189 163 L174 147 L171 176 L159 204 L159 230 L155 231 L156 252 L162 264 L195 279 L193 305 L188 308 L193 341 L210 355 L228 356 L228 364 L217 375 L195 383 L175 378 L166 369 L177 355 L175 337 L182 321 L180 294 L170 298 L155 268 L156 261 L148 264 L139 251 L131 215 L119 227 L110 252 L105 253 L100 272 L104 292 L99 294 L111 326 L142 341 L140 357 L129 353 L117 339 L112 352 L120 375 L92 369 L85 354 L103 349 L106 332 L91 318 L81 291 L65 278 L64 302 L52 329 L52 352 L38 347 L42 383 L55 400 L65 405 L42 412 L22 400 L22 418 L47 457 L64 459 L67 482 L81 495 L87 482 L109 463 L151 446 L183 439 L203 446 L247 445 L255 451 L271 444 L301 448 L321 439 L357 445 L408 466 L425 482 L428 494 L434 494 L445 482 L448 459 L465 457 L473 440 L485 429 L491 401 L470 412 L451 408 L470 383 L474 347 L460 352 L460 329 L448 302 L447 278 L431 291 L421 317 L406 332 L407 346 L414 353 L427 354 L424 364 L415 373 L393 376 L398 355 L395 339 L383 353 L372 357 L370 341 L395 330 L405 320 L413 295 L408 292 L412 273 L407 253 L381 215 L373 251 L364 264 L357 262 L342 298 L335 294 L331 298 L331 326 L337 336 L335 355 L346 369 L337 378 L317 383 L295 375 L284 364 L284 356 L302 355 L319 341 L324 308 L317 309 L317 279 L349 265 L356 252 L357 229 L353 204 L339 169 L338 147 L323 163 L316 186 L304 195 L300 205 L307 224 L322 226 L321 217 L327 219 L326 240 L306 261 L281 228 L278 200 L308 167 L315 133 L306 107 L289 89 L287 75 Z M318 424 L319 429 L317 434 L312 439 L307 440 L305 442 L292 442 L281 438 L284 433 L291 433 L293 435 L303 434 L308 430 L308 427 L302 423 L302 421 L305 419 L312 419 Z M255 419 L257 419 L264 428 L264 435 L257 443 L253 442 L248 434 L248 428 Z M195 422 L199 419 L204 419 L206 424 L204 427 L204 430 L212 435 L228 433 L229 434 L228 440 L220 442 L207 442 L205 440 L200 439 L195 434 L193 429 Z M482 416 L483 418 L477 429 L469 436 L461 439 L466 444 L466 447 L457 454 L448 451 L445 447 L444 442 L447 437 L451 437 L455 441 L457 437 L455 431 L452 429 L445 429 L437 437 L431 431 L432 422 L437 417 L450 415 L463 418 L473 418 Z M235 415 L237 415 L242 419 L247 420 L243 424 L241 437 L238 436 L231 427 L231 421 Z M34 417 L49 418 L55 416 L68 415 L76 418 L79 421 L81 425 L81 431 L76 437 L74 437 L72 432 L69 430 L60 429 L55 434 L55 437 L57 441 L61 437 L65 437 L67 439 L66 441 L67 447 L64 451 L55 454 L54 452 L50 451 L46 447 L46 444 L51 439 L46 436 L43 436 L33 426 L31 420 Z M73 403 L77 403 L80 406 L84 413 L83 416 L79 412 L72 410 L70 408 Z M439 403 L442 408 L432 413 L429 416 L428 413 L432 406 L436 402 Z M255 395 L257 395 L267 405 L269 411 L267 419 L270 419 L275 415 L277 415 L278 418 L280 419 L281 427 L278 430 L278 432 L272 437 L269 436 L270 433 L269 424 L264 420 L257 409 L255 409 L247 419 L245 418 L243 414 L245 405 Z M356 388 L358 387 L359 390 L357 391 Z M408 379 L407 382 L401 389 L398 406 L387 402 L383 399 L370 395 L371 393 L374 393 L380 390 L383 386 L387 385 L394 380 L401 378 Z M104 379 L105 378 L115 379 L129 386 L132 390 L136 392 L136 396 L134 398 L129 399 L123 403 L114 406 L112 391 Z M83 467 L87 453 L108 433 L158 413 L214 402 L236 391 L253 370 L258 370 L271 387 L298 402 L354 413 L404 433 L425 453 L429 472 L383 446 L325 432 L321 418 L312 413 L301 415 L295 421 L295 427 L288 428 L280 408 L273 405 L257 383 L230 411 L224 428 L218 428 L212 416 L199 413 L189 421 L187 432 L129 446 L104 458 L86 473 Z M47 363 L50 363 L53 361 L64 370 L71 373 L83 383 L91 395 L92 400 L91 411 L87 407 L86 403 L79 396 L63 397 L59 395 L52 388 L47 377 L46 371 Z M123 361 L129 359 L132 362 L137 364 L142 369 L146 379 L150 382 L152 386 L156 388 L155 391 L152 391 L151 389 L146 390 L136 385 L126 374 L123 366 Z M465 358 L466 359 L465 377 L460 388 L453 395 L449 397 L433 396 L426 403 L425 407 L421 411 L420 400 L422 393 L424 392 L424 390 L429 383 L439 374 L448 370 L459 361 Z M389 357 L391 362 L389 363 L386 374 L383 376 L383 378 L376 385 L374 385 L369 389 L363 390 L361 385 L362 382 L368 376 L370 369 L379 361 Z M432 344 L436 348 L435 354 L438 355 L438 358 L436 360 L433 371 L421 383 L414 397 L414 414 L412 415 L405 409 L405 396 L409 387 L412 385 L412 383 L426 370 L429 364 L429 360 L431 359 L431 348 L429 345 Z M80 344 L83 345 L81 348 L81 360 L83 361 L83 364 L86 370 L96 379 L96 383 L100 384 L104 388 L107 396 L107 409 L100 415 L98 414 L98 398 L96 392 L91 383 L79 371 L75 362 L76 360 L74 358 L74 354 L76 352 L75 349 Z M267 344 L281 337 L295 338 L292 350 L283 347 L278 350 L276 356 L278 367 L294 382 L313 389 L367 400 L384 406 L393 411 L396 416 L403 416 L417 425 L432 440 L440 454 L442 471 L439 479 L434 478 L435 463 L431 450 L421 438 L403 425 L367 410 L301 396 L279 385 L264 368 L262 356 Z M245 344 L249 351 L250 360 L244 374 L233 385 L214 395 L145 410 L109 425 L98 432 L85 445 L77 463 L77 473 L80 482 L77 484 L73 480 L70 469 L72 454 L80 440 L95 425 L114 413 L145 400 L199 389 L218 382 L234 367 L236 356 L234 350 L229 347 L221 349 L218 346 L217 338 L231 337 Z M174 314 L175 325 L170 334 L164 337 L156 344 L156 347 L164 344 L169 344 L171 347 L170 356 L167 359 L159 360 L160 370 L169 380 L177 385 L176 387 L169 388 L159 384 L150 374 L149 368 L146 364 L146 348 L151 335 L156 328 L169 314 Z M338 313 L342 313 L360 333 L366 348 L366 363 L361 375 L358 378 L355 378 L354 383 L345 387 L337 387 L336 384 L343 380 L352 370 L353 361 L347 360 L342 356 L341 347 L344 344 L348 344 L357 349 L357 346 L352 340 L344 336 L337 325 Z M337 308 L339 307 L340 310 L338 311 Z M172 308 L174 307 L175 310 L173 311 Z M107 302 L109 301 L110 303 L108 304 Z M255 300 L257 300 L266 311 L268 316 L268 325 L264 333 L257 341 L255 341 L254 338 L248 333 L244 325 L245 313 Z M438 292 L440 293 L441 301 L451 321 L454 333 L453 356 L444 365 L442 364 L442 361 L444 360 L444 350 L442 349 L442 345 L439 339 L433 336 L428 336 L422 342 L421 347 L417 347 L412 340 L414 329 L417 326 L427 324 L427 314 L429 306 Z M74 292 L84 309 L84 324 L89 324 L97 328 L100 334 L100 341 L95 347 L91 347 L90 341 L85 336 L79 336 L73 339 L70 348 L68 349 L68 361 L70 363 L68 365 L59 356 L58 332 L61 321 L63 320 L68 305 L71 301 L72 293 Z M382 286 L382 298 L380 299 L381 303 L379 308 L374 311 L366 319 L362 317 L363 305 L368 298 L368 296 L379 285 Z M133 285 L144 296 L149 306 L150 318 L148 321 L139 312 L135 310 L131 304 L130 299 L130 286 Z M255 250 L260 253 L271 271 L269 289 L272 290 L280 284 L289 300 L290 315 L288 322 L278 332 L274 329 L274 314 L258 289 L257 284 L255 284 L254 289 L238 314 L239 333 L232 331 L225 324 L222 316 L223 300 L230 286 L233 284 L244 291 L241 283 L241 271 Z M124 234 L127 235 L131 249 L142 265 L145 276 L147 277 L148 274 L151 274 L162 289 L164 295 L164 310 L157 316 L152 298 L144 287 L133 277 L129 268 L126 267 L124 285 L125 305 L142 323 L144 328 L143 332 L120 324 L113 317 L109 308 L112 303 L117 303 L118 300 L112 295 L107 284 L107 267 L110 266 L115 270 L117 269 L116 249 L120 238 Z M388 233 L394 242 L396 255 L398 256 L395 269 L397 270 L402 266 L405 267 L405 283 L400 295 L394 302 L402 303 L404 301 L405 304 L401 314 L391 325 L369 332 L369 325 L387 305 L388 285 L386 267 L383 268 L378 278 L360 298 L355 317 L348 310 L348 295 L360 275 L368 275 L368 269 L379 253 L385 234 Z M255 210 L286 245 L288 263 L285 269 L299 261 L313 289 L313 303 L302 320 L317 318 L317 329 L304 347 L301 346 L301 331 L290 330 L297 312 L293 292 L282 273 L277 273 L274 262 L257 235 L238 262 L235 273 L230 273 L219 291 L215 312 L222 330 L211 331 L211 343 L207 345 L197 335 L194 319 L210 320 L199 304 L199 289 L213 261 L227 269 L224 249 Z M332 163 L335 179 L346 203 L348 213 L347 230 L337 247 L349 244 L350 250 L346 259 L340 264 L322 267 L314 272 L311 269 L315 261 L333 241 L335 221 L334 217 L326 209 L320 209 L315 214 L315 219 L311 219 L307 213 L307 203 L312 195 L319 196 L319 194 L322 193 L323 177 Z M180 163 L188 174 L190 193 L201 196 L205 203 L205 213 L201 219 L197 219 L197 214 L192 209 L186 209 L177 220 L179 241 L197 261 L201 268 L199 272 L193 270 L191 267 L170 263 L165 258 L160 245 L162 243 L170 247 L175 247 L165 230 L164 213 L166 203 L177 179 Z M255 138 L257 138 L258 141 L260 142 L265 153 L265 158 L267 160 L267 166 L265 168 L264 176 L259 185 L257 184 L257 182 L254 183 L251 182 L247 171 L247 166 L245 165 L245 160 L247 158 L248 150 L251 143 L254 141 Z M255 92 L258 93 L282 130 L287 147 L282 160 L273 168 L271 166 L269 148 L257 125 L255 125 L243 148 L241 168 L239 169 L228 157 L225 146 L229 132 Z M257 37 L281 78 L283 97 L280 107 L294 100 L306 122 L309 143 L302 164 L282 182 L271 200 L270 208 L265 209 L264 190 L288 163 L293 151 L293 141 L288 127 L255 74 L247 94 L224 127 L219 141 L219 151 L224 163 L248 190 L250 203 L248 210 L243 213 L236 190 L210 164 L205 154 L203 138 L206 122 L216 103 L221 100 L232 107 L229 97 L231 78 Z"/></svg>
