<svg xmlns="http://www.w3.org/2000/svg" width="512" height="512" viewBox="0 0 512 512" aria-hidden="true" focusable="false"><path fill="currentColor" fill-rule="evenodd" clip-rule="evenodd" d="M17 262 L23 279 L45 289 L43 311 L55 331 L75 336 L91 327 L93 315 L89 309 L81 308 L76 315 L71 309 L83 296 L102 304 L124 329 L96 334 L81 352 L79 367 L87 368 L86 385 L97 401 L117 404 L127 399 L129 381 L120 378 L118 387 L111 383 L115 373 L126 371 L187 397 L213 397 L238 388 L242 400 L255 413 L270 400 L274 388 L298 397 L326 397 L387 371 L397 373 L401 383 L395 387 L392 378 L385 379 L380 386 L384 398 L393 404 L415 401 L426 385 L425 368 L433 366 L431 352 L418 335 L388 329 L410 304 L429 296 L441 309 L436 316 L432 308 L423 309 L419 315 L422 328 L438 336 L455 332 L468 316 L467 289 L489 279 L496 264 L464 246 L437 241 L442 223 L423 221 L384 240 L360 274 L346 215 L350 207 L361 205 L365 214 L356 218 L360 227 L373 229 L384 221 L387 196 L373 179 L383 166 L366 154 L337 153 L319 161 L300 182 L291 151 L257 100 L222 150 L213 182 L193 160 L176 153 L151 153 L130 166 L139 179 L125 196 L128 222 L139 229 L152 227 L156 217 L150 218 L147 209 L155 204 L166 214 L152 274 L127 239 L107 226 L88 221 L71 223 L74 241 L49 246 Z M254 377 L257 377 L267 384 L269 387 L268 394 L257 405 L255 405 L249 400 L243 392 L244 385 Z M422 377 L416 393 L404 400 L394 399 L386 392 L387 387 L393 392 L399 392 L404 388 L406 383 L404 373 L400 369 L394 367 L375 369 L342 387 L321 393 L293 391 L270 380 L272 377 L278 376 L285 380 L302 384 L329 382 L339 379 L362 367 L366 363 L386 355 L401 355 L408 357 L417 365 L420 376 Z M90 376 L93 368 L101 359 L112 355 L125 355 L143 361 L176 380 L188 383 L218 383 L234 376 L241 377 L242 380 L219 391 L192 393 L170 387 L135 368 L118 367 L112 369 L108 373 L106 384 L113 392 L118 392 L124 387 L126 391 L120 398 L108 400 L102 398 L95 392 L91 385 Z M301 351 L303 350 L304 352 L302 353 Z M305 350 L307 349 L308 351 L306 352 Z M204 350 L206 349 L207 351 L205 352 Z M308 349 L310 348 L311 350 L309 351 Z M180 346 L182 345 L191 350 L192 352 L190 353 L185 351 Z M335 345 L334 347 L322 353 L320 352 L321 350 L332 344 Z M255 340 L261 345 L261 347 L266 352 L267 362 L265 366 L262 369 L258 370 L250 369 L246 365 L245 362 L246 352 Z M328 339 L329 341 L326 343 L325 341 Z M428 358 L427 362 L423 362 L408 352 L401 351 L399 349 L390 349 L388 351 L380 352 L370 356 L358 364 L326 378 L312 380 L294 378 L288 374 L289 371 L298 373 L313 373 L335 368 L352 359 L371 344 L391 335 L405 335 L416 340 L424 348 Z M84 359 L89 347 L98 339 L109 335 L121 335 L141 344 L153 354 L177 368 L200 373 L215 373 L222 371 L227 371 L228 373 L214 379 L203 380 L187 378 L185 376 L173 373 L136 353 L124 351 L122 349 L113 349 L111 351 L102 353 L89 362 L85 362 Z M278 327 L286 340 L288 348 L288 357 L285 364 L279 370 L272 373 L268 373 L267 371 L271 364 L271 354 L266 343 L269 342 L269 338 L272 332 Z M234 327 L239 331 L243 339 L243 342 L246 343 L241 353 L241 364 L245 371 L244 373 L240 373 L233 370 L227 364 L225 357 L223 355 L223 348 L225 346 L226 340 Z M255 303 L257 303 L266 314 L270 323 L270 329 L268 332 L266 343 L260 338 L257 331 L255 331 L253 336 L247 343 L245 342 L245 337 L242 330 L242 323 L247 312 L251 309 L251 307 Z M255 280 L257 280 L265 288 L273 299 L277 307 L277 317 L275 320 L273 319 L271 313 L259 298 L257 291 L255 291 L252 299 L246 305 L246 307 L241 313 L239 318 L237 319 L235 317 L235 307 L237 302 L246 289 Z M464 294 L464 313 L458 323 L448 330 L435 331 L426 325 L425 315 L427 314 L433 320 L440 319 L445 313 L445 304 L438 294 L421 292 L404 303 L369 341 L346 357 L330 365 L317 368 L290 366 L292 362 L309 361 L327 356 L348 344 L372 321 L399 289 L416 277 L431 273 L446 275 L459 285 Z M49 292 L61 278 L67 275 L80 273 L94 276 L115 291 L146 327 L166 345 L188 357 L220 362 L222 366 L218 368 L191 367 L158 352 L142 340 L103 299 L91 292 L76 293 L67 304 L68 315 L74 320 L79 320 L86 313 L87 324 L77 331 L64 330 L50 317 L47 304 Z M490 266 L484 277 L474 282 L463 282 L455 274 L441 268 L427 268 L403 279 L355 332 L340 344 L335 344 L357 320 L386 275 L408 255 L422 249 L448 247 L463 251 L481 263 Z M23 266 L52 250 L64 247 L86 248 L106 256 L124 272 L161 327 L179 345 L174 345 L161 335 L121 290 L99 273 L85 268 L72 268 L59 273 L49 282 L38 282 L25 273 Z M255 241 L258 242 L277 269 L277 291 L280 290 L281 285 L288 279 L293 279 L298 284 L298 300 L287 316 L282 316 L279 299 L257 272 L251 276 L233 299 L229 317 L219 310 L214 300 L213 287 L218 279 L226 280 L231 286 L232 291 L235 291 L233 282 L234 271 Z M302 233 L313 237 L321 245 L330 265 L331 285 L323 307 L316 317 L301 330 L289 334 L288 332 L296 327 L310 313 L317 300 L320 289 L319 267 L312 252 L308 248 L301 245 L294 245 L290 247 L287 255 L284 254 L282 249 L282 244 L288 236 L296 233 Z M210 233 L216 233 L224 236 L230 244 L230 249 L227 255 L223 258 L221 257 L223 254 L223 249 L219 245 L207 246 L201 251 L193 267 L192 289 L196 302 L203 314 L216 327 L220 329 L219 333 L207 327 L193 313 L183 293 L181 284 L182 265 L191 245 L199 237 Z M435 226 L435 233 L429 241 L403 252 L386 267 L348 324 L330 340 L329 338 L349 316 L357 300 L364 279 L378 254 L392 240 L411 229 L421 226 Z M77 226 L91 226 L99 228 L115 236 L134 254 L146 274 L155 299 L164 317 L171 326 L189 342 L188 344 L175 335 L163 322 L135 278 L125 266 L112 254 L97 246 L87 244 L79 236 L76 230 Z M255 197 L259 199 L268 214 L270 238 L282 260 L293 262 L297 258 L296 250 L299 249 L309 257 L314 270 L316 282 L312 298 L303 314 L286 327 L282 324 L296 314 L305 294 L304 285 L298 276 L282 273 L278 260 L257 230 L254 231 L250 240 L234 260 L229 274 L217 274 L208 284 L209 302 L216 314 L229 324 L228 327 L223 326 L206 310 L196 284 L199 266 L203 257 L210 250 L217 250 L215 259 L218 262 L230 260 L242 237 L244 214 Z M293 189 L297 203 L298 216 L301 224 L304 227 L303 228 L292 228 L291 230 L285 232 L279 239 L277 239 L275 237 L273 230 L274 214 L282 199 Z M219 189 L223 191 L231 200 L236 208 L236 211 L239 217 L239 230 L235 239 L233 239 L226 231 L221 230 L220 228 L209 228 L208 227 L214 215 L216 199 Z M368 182 L379 191 L383 199 L383 212 L379 219 L373 224 L364 223 L370 216 L370 209 L365 201 L360 199 L349 201 L340 216 L341 229 L348 245 L354 271 L352 296 L347 309 L335 326 L313 343 L296 348 L296 345 L311 339 L330 322 L345 293 L345 263 L328 221 L328 202 L335 190 L342 184 L350 181 Z M147 181 L162 181 L172 185 L178 191 L184 203 L185 218 L167 263 L167 292 L170 302 L184 324 L203 340 L216 345 L216 348 L200 343 L186 334 L170 317 L162 301 L157 273 L172 222 L170 211 L167 205 L159 199 L147 201 L142 207 L142 216 L148 222 L145 225 L134 221 L129 211 L129 199 L139 185 Z M255 174 L257 174 L266 183 L271 190 L272 194 L274 195 L275 201 L271 207 L269 206 L266 200 L256 188 L242 207 L237 201 L238 195 L243 187 Z M368 160 L376 165 L369 174 L364 176 L351 175 L339 180 L325 196 L323 220 L339 260 L341 271 L340 292 L334 308 L326 319 L311 333 L294 341 L295 337 L309 330 L323 316 L330 304 L335 288 L335 268 L332 255 L323 239 L310 227 L301 208 L302 193 L310 177 L327 162 L342 157 L358 157 Z M145 160 L156 157 L171 157 L185 161 L201 174 L211 195 L211 208 L205 222 L190 238 L181 253 L177 267 L177 287 L182 304 L188 314 L202 329 L216 337 L217 341 L200 332 L187 320 L180 311 L172 291 L170 272 L179 243 L189 221 L188 198 L175 181 L161 175 L145 175 L138 167 Z M228 186 L236 171 L241 167 L241 165 L255 150 L257 150 L272 166 L272 168 L277 172 L283 183 L284 190 L280 194 L277 193 L269 180 L257 168 L255 168 L243 180 L235 193 L232 194 L228 190 Z M280 146 L283 147 L288 160 L290 161 L292 171 L292 178 L290 185 L287 184 L283 173 L273 162 L274 155 Z M233 145 L239 155 L240 161 L232 169 L225 183 L223 184 L221 182 L220 176 L221 164 L229 148 Z M255 112 L258 113 L259 116 L262 118 L262 120 L265 122 L276 142 L270 156 L265 153 L257 144 L255 144 L244 155 L241 153 L239 148 L239 136 Z"/></svg>
