<svg xmlns="http://www.w3.org/2000/svg" width="512" height="512" viewBox="0 0 512 512" aria-hidden="true" focusable="false"><path fill="currentColor" fill-rule="evenodd" clip-rule="evenodd" d="M274 479 L269 483 L260 481 L244 482 L241 484 L239 488 L240 493 L245 496 L248 495 L251 492 L251 488 L249 486 L251 484 L254 484 L260 486 L259 494 L262 496 L265 496 L268 493 L268 489 L273 484 Z M374 441 L376 444 L382 447 L377 452 L377 454 L382 458 L385 458 L387 456 L388 449 L392 450 L401 449 L402 450 L401 456 L403 458 L408 458 L410 455 L411 446 L408 443 L413 439 L413 437 L409 438 L406 436 L403 436 L397 442 L399 445 L398 447 L387 444 L391 440 L392 436 L388 438 L385 436 L380 436 Z M268 433 L263 432 L264 439 L262 441 L259 440 L259 435 L256 434 L252 435 L251 441 L254 445 L245 447 L237 454 L237 457 L243 460 L241 463 L237 465 L237 467 L241 468 L244 474 L248 473 L252 468 L259 474 L264 474 L269 469 L269 463 L266 463 L263 457 L269 451 L270 446 L268 446 L268 448 L263 452 L258 451 L255 447 L256 445 L263 444 L268 439 Z M264 464 L265 467 L263 469 L260 469 L258 467 L259 465 Z M251 450 L254 453 L254 455 L260 458 L260 460 L257 465 L253 464 L248 468 L246 468 L245 465 L248 462 L248 458 L244 455 L244 453 L248 450 Z M115 432 L110 434 L103 440 L103 444 L108 449 L105 451 L102 450 L101 455 L110 459 L120 456 L121 458 L119 459 L117 466 L119 468 L124 468 L126 465 L126 459 L124 456 L128 451 L124 445 L128 441 L128 437 L123 433 Z M124 446 L115 454 L110 453 L117 444 Z M110 438 L114 436 L118 436 L119 437 L118 443 L115 444 Z M192 361 L191 360 L187 364 L178 362 L165 363 L161 366 L160 370 L164 375 L169 375 L171 372 L171 367 L178 366 L179 367 L178 373 L180 375 L185 375 L187 373 L187 369 L191 366 Z M321 359 L319 362 L321 373 L325 373 L325 361 L324 359 Z M332 342 L332 344 L336 345 L334 347 L333 354 L334 356 L341 357 L344 355 L345 346 L351 347 L353 349 L351 354 L354 357 L359 355 L359 350 L362 347 L362 345 L358 344 L362 339 L362 337 L357 338 L355 336 L351 336 L346 338 L343 336 L339 336 Z M336 349 L338 348 L339 351 L337 352 Z M349 341 L353 340 L355 343 L353 344 L350 343 Z M303 341 L303 344 L307 345 L307 347 L303 352 L308 356 L312 355 L313 350 L318 352 L320 356 L323 356 L324 353 L327 354 L329 351 L329 349 L325 346 L318 348 L312 345 L312 343 L316 340 L319 340 L322 342 L325 339 L325 337 L318 336 L315 338 L312 336 L309 336 Z M160 318 L155 324 L151 326 L151 328 L155 326 L160 326 L168 329 L169 332 L159 338 L159 340 L163 343 L162 345 L159 346 L159 349 L162 350 L165 355 L170 354 L172 350 L174 350 L178 355 L184 355 L185 352 L189 349 L189 346 L184 343 L180 343 L178 348 L173 347 L168 349 L167 346 L169 345 L169 341 L166 337 L173 336 L177 340 L183 340 L186 338 L189 338 L197 331 L199 324 L197 324 L196 327 L190 334 L183 335 L181 327 L174 320 L169 317 Z M178 348 L183 347 L184 349 L179 350 Z M169 324 L171 323 L172 325 L170 326 Z M243 307 L243 309 L240 312 L240 315 L244 316 L245 318 L241 322 L241 324 L252 332 L259 332 L263 330 L269 324 L270 317 L267 314 L272 309 L272 307 L268 308 L265 305 L263 305 L258 312 L258 315 L260 316 L259 318 L250 315 L250 313 L254 310 L254 308 L252 308 L249 305 L246 305 Z M248 322 L252 320 L258 323 L264 320 L265 324 L259 327 L251 326 Z M406 295 L393 308 L395 326 L387 328 L377 339 L376 349 L380 357 L365 365 L363 386 L377 397 L454 396 L465 384 L465 372 L462 365 L448 357 L451 341 L442 329 L432 326 L434 308 L431 302 L422 295 Z M366 372 L376 363 L403 364 L415 357 L424 364 L451 363 L460 370 L461 383 L450 393 L377 393 L367 385 Z M381 342 L384 336 L390 332 L401 332 L406 334 L437 332 L444 337 L446 342 L446 350 L440 358 L429 360 L422 358 L417 353 L416 349 L412 348 L411 352 L405 358 L393 360 L389 359 L383 354 Z M405 300 L417 298 L422 300 L428 306 L428 308 L430 309 L431 316 L430 321 L424 328 L417 330 L405 329 L398 323 L397 309 Z M91 295 L79 308 L81 326 L71 329 L63 338 L65 357 L50 367 L48 382 L51 390 L63 397 L136 397 L144 394 L151 384 L151 371 L143 360 L134 357 L137 350 L134 335 L118 326 L119 305 L108 295 Z M52 373 L62 363 L89 364 L100 356 L110 364 L137 363 L142 365 L147 371 L148 378 L145 387 L136 393 L63 393 L53 385 Z M67 341 L72 334 L80 331 L92 334 L107 334 L119 331 L127 334 L132 341 L132 350 L126 358 L115 360 L108 358 L103 353 L102 349 L98 348 L97 352 L91 358 L79 360 L73 358 L67 350 Z M91 300 L96 298 L103 298 L110 301 L115 307 L117 314 L116 321 L112 325 L111 328 L103 330 L96 330 L88 327 L85 324 L85 322 L83 321 L83 309 Z M81 442 L81 457 L87 468 L106 479 L140 479 L155 474 L203 424 L309 424 L351 469 L372 479 L416 476 L432 453 L427 433 L411 420 L311 419 L260 363 L284 334 L289 310 L279 293 L258 285 L239 289 L224 309 L230 336 L252 363 L202 419 L105 419 L90 427 Z M317 425 L407 424 L418 429 L425 438 L426 458 L423 464 L410 474 L368 474 L353 465 Z M86 456 L88 437 L94 429 L105 424 L196 425 L157 467 L144 474 L106 475 L98 472 Z M210 417 L257 366 L303 418 L211 419 Z M254 289 L268 291 L281 302 L284 310 L284 322 L279 334 L257 358 L236 337 L229 322 L229 309 L233 300 L245 291 Z M322 189 L315 196 L315 198 L322 199 L326 202 L324 205 L319 206 L318 210 L323 215 L327 215 L332 210 L332 205 L334 202 L333 199 L330 199 L329 197 L334 195 L335 190 L329 191 L327 189 Z M324 207 L326 206 L328 209 L325 210 Z M171 195 L171 198 L176 199 L172 205 L172 211 L174 213 L182 214 L185 210 L185 206 L181 203 L182 201 L190 201 L193 203 L194 206 L192 207 L192 211 L195 214 L198 214 L201 211 L201 201 L199 199 L195 199 L191 197 L190 194 L193 193 L197 196 L200 196 L203 190 L199 192 L193 188 L187 192 L179 188 Z M175 205 L177 204 L178 206 L176 207 Z M180 195 L182 194 L183 196 L181 197 Z M126 195 L127 198 L130 198 L133 200 L131 203 L126 206 L126 209 L132 214 L135 214 L138 211 L138 206 L136 205 L136 203 L140 201 L145 205 L143 210 L146 213 L156 215 L159 214 L166 206 L166 201 L163 197 L168 191 L166 190 L163 192 L160 188 L158 188 L157 191 L152 195 L152 198 L157 199 L161 202 L161 208 L157 210 L150 209 L149 202 L141 196 L142 194 L147 195 L150 192 L150 189 L143 189 L140 192 L134 188 Z M427 190 L420 198 L418 198 L417 194 L410 189 L402 192 L392 187 L384 187 L377 194 L374 194 L368 189 L362 189 L356 196 L353 196 L352 195 L353 192 L346 189 L341 194 L341 198 L343 200 L339 205 L339 210 L342 214 L345 215 L349 214 L352 211 L353 207 L352 205 L345 204 L344 202 L356 200 L359 198 L360 195 L366 194 L368 197 L356 208 L361 214 L365 215 L370 214 L379 203 L377 201 L373 203 L372 200 L375 198 L381 198 L389 201 L392 204 L387 209 L387 211 L390 214 L394 215 L396 212 L397 200 L382 194 L384 191 L390 191 L391 193 L401 197 L404 197 L408 194 L412 196 L414 200 L407 208 L407 211 L411 215 L416 214 L417 205 L425 198 Z M363 206 L368 205 L370 209 L365 210 Z M91 195 L91 198 L96 199 L97 202 L91 206 L91 209 L94 210 L96 214 L98 214 L101 211 L102 207 L109 208 L110 212 L112 214 L115 214 L121 206 L121 204 L115 203 L119 198 L118 193 L113 189 L106 187 L99 188 Z M98 194 L99 193 L110 193 L111 194 L109 197 L110 203 L109 204 L101 203 L100 202 L101 197 Z M244 160 L232 171 L232 194 L219 198 L210 209 L214 233 L199 237 L190 248 L192 271 L208 281 L312 278 L321 267 L322 253 L312 237 L297 233 L302 222 L300 206 L280 194 L282 178 L274 164 L264 158 Z M193 254 L197 245 L204 239 L242 238 L256 227 L269 238 L302 238 L310 241 L318 254 L318 262 L309 275 L302 277 L208 277 L195 267 Z M213 213 L215 208 L224 200 L236 199 L244 203 L268 203 L276 199 L289 201 L295 207 L298 213 L298 222 L288 234 L274 235 L266 232 L258 220 L254 219 L244 232 L237 235 L226 235 L216 228 L213 221 Z M239 169 L249 163 L266 164 L275 172 L278 179 L278 186 L275 192 L268 198 L249 199 L242 197 L236 191 L234 186 L234 178 Z M278 124 L278 126 L281 126 L287 129 L281 136 L281 138 L287 143 L289 143 L292 140 L293 133 L298 134 L305 133 L306 140 L309 143 L312 143 L315 140 L316 129 L314 125 L317 123 L319 119 L317 118 L314 120 L311 117 L308 117 L302 124 L303 127 L302 130 L292 127 L292 125 L296 121 L296 118 L290 119 L286 117 L283 120 L281 120 Z M306 134 L307 131 L310 132 L308 135 Z M252 116 L240 125 L241 129 L248 131 L247 134 L240 135 L240 138 L245 143 L252 144 L258 140 L259 143 L255 147 L257 149 L257 153 L261 153 L264 149 L264 144 L262 141 L265 137 L265 133 L263 129 L266 123 L261 117 Z M256 120 L258 123 L255 125 L255 127 L261 132 L256 137 L249 138 L248 136 L252 132 L252 127 L249 126 L248 123 L250 121 Z M194 123 L195 125 L200 127 L200 129 L195 134 L202 141 L208 144 L219 144 L228 137 L230 133 L230 129 L226 124 L229 123 L232 120 L232 118 L228 119 L225 116 L222 116 L217 123 L218 126 L217 129 L205 125 L206 123 L212 120 L212 117 L207 118 L205 116 L201 116 Z M203 134 L205 130 L208 130 L214 134 L217 134 L222 130 L225 131 L225 135 L218 139 L209 139 L205 137 Z M257 17 L255 17 L254 20 L254 36 L252 41 L252 45 L257 49 L248 56 L248 59 L256 61 L257 65 L249 69 L244 74 L244 77 L257 76 L262 78 L264 81 L261 82 L256 79 L250 80 L248 83 L245 84 L243 90 L245 99 L255 105 L263 104 L265 101 L269 99 L272 95 L273 89 L271 81 L265 75 L257 70 L258 68 L266 68 L268 66 L264 61 L262 61 L260 58 L256 56 L259 52 L264 50 L264 48 L257 42 L259 37 L259 22 Z M248 92 L250 91 L252 95 L250 96 Z M267 83 L269 87 L267 95 L261 99 L257 100 L253 99 L251 96 L252 95 L259 96 L264 90 L263 85 Z"/></svg>
