<svg xmlns="http://www.w3.org/2000/svg" width="512" height="512" viewBox="0 0 512 512" aria-hidden="true" focusable="false"><path fill="currentColor" fill-rule="evenodd" clip-rule="evenodd" d="M271 436 L270 437 L273 440 L273 444 L274 445 L278 444 L279 439 Z M261 356 L257 359 L255 359 L252 356 L248 357 L248 362 L250 364 L249 370 L251 371 L252 377 L251 381 L253 383 L256 398 L261 376 L261 371 L263 369 L262 364 L264 362 L264 359 Z M256 364 L258 363 L259 365 L257 366 Z M250 360 L253 359 L254 361 L251 362 Z M161 309 L161 311 L165 315 L168 316 L168 314 L163 309 Z M134 297 L138 301 L138 299 Z M368 279 L364 281 L365 284 L359 297 L357 298 L355 303 L351 306 L351 308 L355 306 L355 304 L358 302 L359 298 L361 297 L366 285 L369 282 Z M144 279 L143 282 L146 285 L152 299 L156 305 L160 307 L160 305 L153 296 L147 284 L148 281 Z M359 269 L355 270 L355 276 L344 298 L347 296 L351 290 L357 275 L359 273 Z M153 269 L153 273 L155 275 L156 280 L162 292 L167 299 L173 304 L173 302 L167 297 L167 295 L161 286 L157 276 L157 270 Z M346 263 L343 264 L343 270 L341 276 L334 288 L337 287 L343 276 L345 268 L347 266 Z M166 263 L165 266 L167 268 L170 279 L177 290 L181 293 L183 298 L186 301 L188 301 L188 299 L181 293 L181 291 L175 284 L169 271 L169 264 Z M318 261 L319 266 L324 269 L327 269 L332 265 L332 258 L330 258 L329 260 L327 260 L326 258 L320 258 Z M180 258 L180 265 L183 268 L188 269 L193 266 L194 260 L192 258 L186 258 L185 260 Z M263 257 L260 257 L258 259 L250 258 L248 266 L252 267 L253 269 L245 272 L242 275 L241 278 L242 286 L248 291 L262 292 L270 286 L269 284 L262 290 L254 291 L252 289 L249 289 L244 284 L244 277 L248 273 L252 272 L254 274 L249 278 L249 281 L252 284 L261 285 L266 281 L267 276 L262 271 L262 269 L265 266 L265 264 L262 261 Z M252 279 L254 278 L255 281 L253 282 Z M262 276 L264 277 L263 281 L261 280 Z M255 263 L257 262 L258 265 L256 266 Z M256 250 L253 251 L254 256 L257 256 L259 254 Z M324 213 L324 239 L319 253 L328 255 L329 253 L331 253 L330 245 L328 244 L327 241 L326 213 Z M188 213 L186 213 L186 236 L184 238 L184 244 L182 245 L182 248 L180 250 L180 252 L183 253 L184 255 L192 254 L191 245 L189 244 L188 239 Z M163 192 L161 192 L159 196 L161 196 Z M297 183 L296 184 L296 216 L295 217 L297 221 L293 223 L297 228 L292 229 L292 232 L294 233 L297 232 L298 235 L291 236 L290 239 L298 240 L302 245 L300 246 L298 244 L291 244 L289 246 L289 253 L295 257 L301 256 L305 251 L305 246 L302 241 L304 238 L304 235 L300 233 L302 231 L302 228 L298 224 L300 220 L298 218 L299 214 L298 213 L298 184 Z M302 246 L303 251 L299 255 L296 255 L295 253 L298 252 L300 250 L300 247 Z M215 183 L214 184 L214 218 L212 220 L214 224 L210 228 L211 233 L208 235 L208 239 L210 241 L207 245 L208 253 L214 257 L220 256 L223 253 L223 246 L221 244 L215 244 L212 247 L212 250 L217 253 L216 255 L213 255 L209 251 L210 244 L214 240 L222 239 L221 236 L214 235 L215 233 L220 232 L219 229 L215 228 L219 224 L215 221 L217 218 L216 216 L216 184 Z M255 132 L252 151 L257 155 L251 157 L250 161 L256 164 L249 169 L256 171 L250 178 L257 182 L252 186 L256 192 L250 194 L255 200 L248 202 L248 206 L254 210 L241 232 L241 236 L248 242 L231 254 L224 273 L214 272 L200 283 L188 283 L189 287 L197 286 L214 299 L224 298 L231 290 L253 306 L241 318 L224 323 L223 316 L231 315 L230 311 L213 312 L193 304 L203 311 L221 315 L220 323 L211 324 L185 313 L175 305 L179 311 L196 321 L217 325 L221 328 L220 335 L194 331 L170 318 L186 330 L204 336 L220 337 L221 345 L246 345 L257 355 L266 345 L291 345 L292 337 L308 336 L328 329 L343 317 L312 333 L291 334 L292 325 L316 321 L343 301 L319 317 L298 324 L291 322 L292 314 L311 310 L324 300 L303 311 L281 312 L281 315 L289 316 L289 322 L283 323 L268 316 L259 306 L276 294 L253 301 L241 297 L232 288 L228 278 L230 260 L239 249 L251 244 L266 245 L281 258 L284 277 L277 292 L283 290 L288 298 L298 299 L311 288 L324 286 L324 283 L312 283 L298 272 L288 273 L281 254 L265 242 L271 232 L258 210 L265 203 L257 200 L262 197 L257 192 L262 180 L257 176 L263 174 L257 166 L263 165 L263 162 L257 160 L261 154 L256 150 L259 144 Z M254 347 L257 346 L258 348 L255 349 Z M253 339 L256 337 L258 338 L257 341 L254 341 Z M223 338 L240 334 L248 330 L254 325 L258 324 L261 328 L269 333 L282 337 L288 337 L289 341 L285 343 L268 343 L258 337 L258 332 L254 332 L253 338 L244 343 L228 343 L224 342 Z M258 321 L264 318 L268 318 L276 323 L288 325 L289 334 L284 335 L272 332 L259 324 Z M253 321 L253 323 L249 327 L240 332 L228 335 L223 334 L224 325 L233 324 L240 321 L245 317 Z M255 308 L257 308 L263 315 L259 319 L253 319 L249 316 Z M292 274 L297 274 L301 276 L310 284 L309 287 L296 297 L290 296 L286 292 L285 288 L286 279 Z M215 274 L222 275 L225 278 L227 283 L226 291 L220 297 L216 297 L212 295 L202 286 L203 283 Z M255 214 L259 216 L267 230 L267 236 L261 240 L257 239 L258 224 L254 224 L255 228 L255 239 L254 240 L249 239 L245 236 L245 230 Z M255 82 L241 96 L241 98 L255 112 L257 112 L262 106 L262 104 L271 98 L271 96 L257 82 Z M254 105 L256 104 L257 107 L255 108 Z M264 96 L266 95 L267 98 L265 99 Z M245 96 L247 95 L248 98 L246 99 Z M254 87 L257 86 L258 89 L255 90 Z M255 17 L255 43 L247 67 L254 75 L247 82 L239 76 L243 86 L229 96 L242 108 L234 113 L214 103 L210 108 L215 109 L204 133 L188 133 L180 127 L185 142 L180 169 L186 171 L184 166 L190 159 L194 162 L200 149 L205 150 L218 138 L221 127 L229 127 L246 112 L248 115 L101 261 L98 258 L154 201 L100 252 L97 238 L87 248 L82 244 L87 238 L80 217 L81 195 L77 195 L78 215 L70 239 L74 245 L68 250 L63 244 L61 250 L69 253 L79 244 L95 261 L78 249 L65 262 L73 269 L72 274 L60 264 L63 255 L46 257 L44 262 L50 261 L66 273 L61 277 L63 282 L70 276 L77 284 L81 307 L89 318 L110 324 L115 320 L107 319 L104 310 L92 304 L93 298 L105 299 L98 289 L102 282 L231 411 L208 405 L218 423 L235 433 L255 410 L266 417 L413 273 L267 423 L255 414 L241 430 L250 442 L241 436 L233 439 L235 445 L241 438 L246 444 L243 453 L254 470 L257 495 L258 470 L268 448 L265 442 L257 449 L252 445 L271 430 L267 423 L272 422 L277 433 L292 425 L304 404 L281 411 L410 282 L414 289 L407 300 L419 297 L420 304 L397 320 L402 324 L424 317 L432 304 L435 284 L442 276 L449 282 L451 277 L445 273 L468 259 L448 255 L452 264 L433 282 L428 276 L434 277 L447 262 L438 259 L434 249 L419 262 L425 273 L415 262 L433 244 L443 253 L451 250 L449 244 L444 250 L438 245 L442 239 L434 215 L435 195 L431 195 L432 217 L425 238 L428 247 L415 238 L413 251 L406 248 L414 258 L411 261 L263 112 L255 117 L236 98 L257 77 L276 96 L265 109 L268 115 L275 116 L284 128 L291 127 L296 141 L306 150 L311 148 L311 156 L404 247 L330 173 L327 142 L333 128 L324 133 L307 132 L297 114 L302 107 L298 103 L276 113 L275 105 L283 96 L269 86 L273 76 L265 82 L258 75 L265 67 L258 49 Z M252 463 L253 460 L255 462 L257 462 L258 460 L260 461 L256 467 Z M263 447 L266 448 L265 455 L262 454 Z M247 447 L250 448 L249 455 L246 454 Z M264 429 L266 428 L267 430 L265 431 Z M245 429 L247 428 L248 430 L246 431 Z M276 423 L278 422 L279 425 L277 426 Z M233 423 L235 422 L236 425 L234 426 Z M272 420 L274 419 L275 421 L273 422 Z M254 420 L257 419 L258 421 L255 422 Z M293 414 L290 417 L291 422 L286 425 L284 424 L284 420 L275 419 L276 417 L282 415 L283 417 L286 417 L288 413 Z M292 412 L294 411 L295 413 L293 414 Z M217 412 L219 411 L220 413 L224 413 L226 417 L228 417 L229 415 L232 415 L236 417 L237 419 L236 420 L230 419 L227 425 L222 424 L220 422 L222 417 L219 416 Z M195 362 L197 361 L199 364 L197 365 Z M412 309 L415 310 L413 314 L410 312 Z M97 310 L100 309 L102 312 L99 314 Z M427 300 L429 304 L426 310 L418 318 L412 321 L408 321 L407 319 L410 316 L413 316 L414 314 L418 314 L419 310 L422 307 L423 302 Z M83 301 L84 300 L88 301 L94 313 L98 314 L99 316 L102 316 L103 320 L100 321 L91 316 L84 307 Z M416 277 L419 278 L419 283 L421 285 L425 284 L428 287 L430 291 L429 298 L427 297 L426 292 L422 288 L419 290 L417 289 L415 285 Z M95 277 L97 279 L97 285 L95 289 L93 290 L90 288 L85 293 L85 297 L83 298 L81 295 L84 287 L86 285 L91 285 L93 283 L93 278 Z M121 274 L122 273 L125 274 L127 278 L125 279 Z M416 273 L419 272 L422 276 L418 277 Z M395 272 L397 273 L396 276 L393 275 Z M390 272 L391 275 L386 278 L385 276 Z M113 273 L117 272 L119 277 L117 278 Z M94 272 L95 273 L94 276 L91 277 L90 275 Z M98 272 L100 271 L244 415 L244 417 L241 418 L99 276 Z M432 271 L434 270 L435 272 L433 273 Z M403 266 L405 265 L406 267 L404 268 Z M389 264 L393 266 L390 270 L387 269 L387 266 Z M119 265 L123 264 L125 266 L125 269 L122 270 L119 267 Z M95 265 L79 282 L74 278 L75 274 L79 277 L93 264 Z M112 262 L118 263 L118 266 L116 267 L115 270 L111 267 Z M439 262 L441 261 L443 264 L440 266 Z M423 262 L425 261 L426 264 L424 265 Z M86 262 L88 261 L89 263 L87 264 Z M400 260 L401 267 L397 269 L394 266 L394 264 L398 263 L398 261 Z M403 260 L405 259 L409 264 L405 265 Z M117 258 L119 257 L120 260 L118 261 Z M109 257 L111 258 L108 263 L109 267 L107 268 L105 266 L105 269 L129 293 L128 295 L100 268 Z M451 257 L453 256 L455 259 L452 260 Z M391 257 L393 256 L395 260 L393 261 Z M431 254 L433 253 L435 256 L432 257 Z M79 253 L81 254 L80 257 L77 256 Z M94 250 L96 249 L97 252 L95 253 Z M417 247 L420 246 L421 248 L418 249 Z M320 160 L322 159 L324 162 L322 163 Z M324 154 L328 157 L327 161 L325 160 L323 156 Z M313 155 L315 154 L316 156 L314 157 Z M188 154 L189 156 L185 160 L184 157 Z M187 152 L189 151 L190 153 L188 154 Z M315 149 L317 148 L320 151 L320 153 L318 154 L315 151 Z M196 148 L197 150 L193 154 L192 152 Z M186 147 L188 148 L187 152 L185 151 Z M323 146 L327 149 L327 151 L324 154 L322 153 Z M196 136 L199 135 L200 137 L197 138 Z M309 135 L313 134 L316 137 L312 138 Z M260 121 L389 250 L380 287 L390 285 L390 279 L412 268 L269 411 L255 404 L246 413 L198 366 L202 363 L187 347 L195 362 L128 296 L132 295 L128 289 L132 285 L122 257 L123 250 L252 121 Z M260 117 L262 116 L391 246 L389 247 Z M251 116 L252 118 L121 248 L120 246 Z M270 112 L272 111 L273 113 L271 114 Z M239 112 L241 111 L242 113 L240 114 Z M280 114 L282 112 L289 114 L289 110 L294 106 L295 111 L291 116 L298 117 L300 119 L301 124 L298 125 L298 127 L304 131 L308 139 L317 141 L321 135 L327 135 L328 138 L326 140 L321 140 L321 143 L319 145 L308 145 L297 135 L295 131 L294 123 L288 118 L285 118 L285 121 L283 122 L280 119 Z M268 107 L271 106 L272 108 L269 109 Z M232 114 L232 119 L229 122 L227 121 L227 118 L218 122 L217 131 L215 135 L207 143 L203 145 L193 145 L191 143 L191 140 L186 140 L183 137 L184 135 L191 135 L194 140 L204 139 L208 131 L214 126 L211 124 L212 119 L215 116 L217 117 L221 116 L217 111 L218 106 L223 110 L223 114 L226 114 L228 112 Z M269 79 L271 78 L272 80 L270 81 Z M240 79 L242 78 L243 80 L241 81 Z"/></svg>
