<svg xmlns="http://www.w3.org/2000/svg" width="512" height="512" viewBox="0 0 512 512" aria-hidden="true" focusable="false"><path fill="currentColor" fill-rule="evenodd" clip-rule="evenodd" d="M260 19 L255 22 L251 51 L236 84 L196 138 L183 171 L188 216 L228 282 L233 283 L196 332 L188 353 L188 384 L209 420 L187 396 L180 362 L192 327 L218 297 L218 287 L205 262 L177 232 L170 215 L170 200 L139 234 L124 269 L124 294 L113 288 L103 330 L109 380 L129 413 L159 437 L230 464 L247 480 L254 494 L259 494 L266 480 L288 461 L347 440 L368 427 L397 394 L410 348 L409 323 L400 290 L396 288 L389 294 L384 254 L367 224 L346 200 L342 201 L343 220 L338 231 L310 262 L296 288 L298 300 L324 332 L333 360 L331 383 L319 406 L326 376 L322 342 L277 278 L258 224 L241 271 L231 281 L223 235 L231 214 L256 184 L279 206 L292 229 L286 281 L320 231 L333 196 L328 154 L280 82 L267 52 Z M226 446 L227 445 L238 447 L240 446 L241 448 L272 448 L273 446 L275 447 L286 445 L287 447 L275 453 L271 458 L269 458 L259 468 L258 471 L255 471 L254 468 L242 456 L240 456 L238 453 L227 448 Z M287 444 L291 443 L292 445 L288 446 Z M221 444 L225 443 L226 445 L222 446 Z M295 441 L299 440 L300 442 L296 443 Z M213 441 L217 440 L218 442 L214 443 Z M317 405 L318 409 L306 420 L305 418 L313 410 L313 408 Z M257 262 L275 303 L303 345 L308 384 L305 396 L289 418 L255 433 L230 423 L216 409 L205 383 L205 364 L216 334 L238 305 Z M160 228 L203 286 L203 296 L188 310 L173 335 L168 353 L170 388 L183 415 L212 441 L188 435 L153 416 L131 393 L118 361 L116 329 L120 313 L150 327 L153 325 L139 302 L136 275 L144 250 Z M353 226 L369 250 L377 275 L374 302 L360 325 L369 325 L392 314 L397 337 L392 371 L379 396 L355 420 L325 435 L300 441 L328 417 L345 379 L345 353 L340 335 L310 290 Z M258 66 L275 101 L310 150 L318 170 L318 202 L305 229 L297 208 L271 178 L261 154 L255 156 L244 179 L221 205 L212 229 L198 203 L197 178 L203 157 L238 108 Z"/></svg>
