<svg xmlns="http://www.w3.org/2000/svg" width="512" height="512" viewBox="0 0 512 512" aria-hidden="true" focusable="false"><path fill="currentColor" fill-rule="evenodd" clip-rule="evenodd" d="M247 17 L248 33 L233 56 L244 85 L199 122 L188 141 L182 166 L164 162 L168 181 L150 216 L144 239 L149 278 L161 296 L178 308 L197 314 L220 314 L236 306 L247 290 L247 277 L242 266 L229 257 L248 261 L267 291 L269 313 L264 332 L257 328 L236 332 L221 323 L184 328 L179 312 L169 322 L170 349 L179 360 L198 363 L198 379 L204 388 L173 409 L193 439 L191 471 L181 484 L182 491 L190 495 L218 496 L228 489 L254 489 L293 466 L323 431 L343 395 L358 389 L349 379 L361 367 L364 356 L362 338 L352 322 L367 306 L367 291 L356 276 L346 271 L352 255 L352 231 L361 221 L330 227 L330 204 L308 194 L306 163 L311 153 L297 155 L279 166 L279 155 L292 143 L294 128 L282 111 L269 107 L277 95 L277 80 L252 54 L257 30 Z M182 405 L192 406 L204 418 L208 431 L210 432 L212 444 L210 469 L208 470 L204 482 L197 489 L189 490 L186 488 L186 486 L192 479 L195 469 L197 468 L199 454 L198 440 L191 422 L179 410 L179 407 Z M194 399 L200 400 L207 405 L212 411 L214 416 L217 419 L222 437 L223 446 L222 462 L220 464 L218 476 L212 487 L208 490 L205 490 L204 488 L207 485 L208 481 L211 479 L214 468 L214 463 L216 462 L216 438 L214 436 L214 432 L210 420 L204 412 L204 410 L193 401 Z M208 393 L216 396 L224 404 L227 412 L229 413 L233 427 L233 432 L235 434 L235 444 L236 445 L235 461 L233 463 L231 475 L224 487 L218 491 L216 490 L216 488 L223 476 L226 464 L226 436 L223 422 L217 409 L205 397 Z M346 385 L327 411 L317 415 L305 416 L305 418 L324 419 L317 432 L309 440 L296 445 L277 444 L279 447 L300 450 L290 462 L275 470 L257 467 L259 471 L268 475 L257 483 L249 485 L232 484 L239 468 L249 466 L260 459 L268 451 L272 441 L282 439 L293 429 L299 416 L299 408 L312 399 L320 384 L333 380 Z M321 372 L323 371 L327 376 L322 378 Z M173 326 L182 332 L223 328 L230 332 L235 342 L246 331 L258 333 L264 343 L263 355 L269 362 L266 385 L251 402 L233 411 L224 396 L243 384 L247 373 L244 361 L234 355 L227 356 L220 365 L222 372 L229 376 L231 372 L225 370 L225 363 L228 360 L236 360 L242 367 L242 376 L230 389 L214 390 L205 383 L201 373 L205 360 L213 351 L196 359 L184 358 L174 346 Z M348 327 L356 336 L359 345 L356 366 L348 374 L336 376 L329 372 L326 361 L333 354 L338 355 L340 361 L343 361 L343 354 L336 349 L324 353 L311 392 L301 402 L293 403 L294 416 L291 424 L277 436 L268 435 L264 449 L253 459 L239 465 L239 438 L254 431 L266 418 L269 407 L286 398 L295 381 L295 365 L306 354 L313 336 L328 324 L341 323 Z M235 266 L242 275 L243 288 L241 293 L233 303 L225 308 L213 310 L203 307 L194 300 L191 293 L192 283 L197 287 L199 291 L206 295 L210 296 L221 295 L229 288 L231 284 L230 275 L228 274 L226 279 L220 280 L217 277 L217 270 L223 265 Z M285 258 L300 269 L306 281 L306 294 L299 305 L299 309 L305 315 L308 324 L306 344 L299 356 L289 362 L292 368 L292 377 L286 390 L276 400 L266 402 L260 418 L250 428 L239 434 L235 416 L250 409 L266 394 L273 381 L274 370 L280 363 L292 336 L294 324 L293 290 L288 274 L279 260 L280 258 Z M308 238 L317 237 L318 239 L314 244 L312 244 Z M212 243 L229 237 L253 242 L262 248 L280 268 L288 289 L290 315 L286 340 L275 361 L267 352 L268 337 L273 320 L273 297 L266 275 L246 255 L233 252 L224 253 L212 263 L210 268 L212 280 L218 284 L223 284 L224 287 L218 291 L204 289 L195 277 L195 265 L200 254 Z M172 232 L174 239 L176 239 L179 242 L179 245 L175 248 L173 253 L172 270 L170 271 L167 263 L166 250 L168 238 L170 233 Z M348 227 L346 261 L337 272 L327 277 L323 286 L336 277 L353 279 L362 291 L362 307 L353 317 L342 318 L332 309 L332 299 L336 295 L342 295 L347 302 L349 295 L340 287 L332 290 L326 298 L326 320 L314 330 L311 316 L304 307 L311 289 L310 279 L307 275 L308 266 L315 249 L328 235 Z M175 266 L176 256 L180 249 L189 242 L199 242 L201 227 L206 221 L215 216 L229 218 L238 228 L252 222 L265 223 L277 233 L281 241 L281 252 L278 258 L271 249 L250 236 L242 234 L219 235 L208 241 L194 256 L191 267 L191 281 L184 280 L177 273 Z M202 215 L204 214 L205 216 L203 217 Z M187 196 L189 195 L193 201 L192 202 L186 200 Z M206 194 L209 196 L211 202 L219 211 L218 213 L208 203 L205 196 Z M204 192 L206 191 L207 193 L205 194 Z M203 187 L205 186 L206 189 L204 190 Z M227 174 L228 173 L230 174 L230 177 L233 183 L242 190 L258 191 L268 186 L269 190 L267 196 L267 206 L259 207 L242 201 L234 195 L229 186 L229 183 L227 182 Z M277 169 L279 168 L280 170 L278 171 Z M174 167 L181 173 L185 183 L182 198 L174 206 L184 204 L191 207 L197 212 L199 223 L194 234 L185 239 L178 236 L176 229 L182 227 L186 230 L186 222 L179 220 L170 225 L163 239 L162 262 L169 279 L187 293 L189 300 L194 306 L193 308 L178 303 L163 291 L151 272 L148 248 L151 227 L172 183 Z M300 159 L302 160 L301 169 L306 187 L299 202 L308 198 L317 199 L329 212 L324 228 L313 234 L306 232 L302 223 L307 218 L313 223 L314 216 L310 212 L304 212 L299 217 L298 231 L309 248 L304 266 L285 253 L285 239 L280 229 L273 223 L270 212 L271 196 L277 180 L291 164 Z M233 137 L255 136 L265 141 L273 150 L275 156 L273 173 L265 183 L259 186 L248 187 L240 184 L233 173 L236 162 L245 157 L252 161 L251 167 L246 170 L248 172 L256 171 L258 159 L251 152 L235 153 L226 163 L223 174 L227 193 L244 207 L266 211 L267 220 L264 218 L251 218 L249 220 L236 218 L223 211 L212 199 L207 183 L208 166 L214 153 Z M287 123 L289 128 L289 139 L281 148 L278 148 L264 135 L255 132 L239 132 L223 139 L213 148 L207 159 L205 185 L203 186 L201 184 L201 165 L203 163 L206 150 L216 134 L226 124 L242 115 L255 111 L273 112 Z M249 40 L249 58 L273 80 L273 95 L265 104 L242 110 L227 118 L206 140 L200 152 L197 166 L198 187 L201 198 L207 207 L205 209 L195 197 L189 180 L189 153 L195 137 L202 126 L216 112 L240 97 L248 88 L249 79 L238 64 L238 55 L244 44 Z M249 38 L251 37 L252 39 L250 40 Z"/></svg>
