<svg xmlns="http://www.w3.org/2000/svg" width="512" height="512" viewBox="0 0 512 512" aria-hidden="true" focusable="false"><path fill="currentColor" fill-rule="evenodd" clip-rule="evenodd" d="M271 17 L265 27 L270 50 L240 79 L237 95 L243 108 L227 118 L220 136 L224 147 L237 155 L240 177 L253 188 L265 189 L278 180 L281 167 L271 154 L279 155 L288 169 L286 191 L274 205 L247 213 L243 190 L229 166 L213 155 L203 156 L209 170 L200 190 L202 205 L183 213 L180 235 L147 231 L157 244 L156 271 L161 281 L146 292 L142 310 L145 319 L161 330 L148 342 L143 363 L148 376 L165 386 L153 400 L165 404 L183 425 L189 441 L223 474 L260 490 L280 489 L288 496 L323 496 L332 485 L315 467 L313 446 L320 430 L338 417 L303 399 L311 388 L311 373 L327 371 L338 361 L343 347 L342 327 L337 320 L334 332 L326 338 L290 334 L275 344 L259 338 L243 347 L238 308 L244 289 L258 271 L286 261 L299 271 L282 270 L272 278 L269 295 L273 306 L294 320 L332 316 L349 306 L364 287 L371 264 L371 244 L345 179 L351 163 L331 171 L327 142 L317 123 L273 86 L274 78 L286 65 L288 52 L273 31 Z M323 412 L330 414 L332 417 L324 421 L314 432 L309 445 L309 461 L315 476 L327 488 L323 492 L314 492 L305 484 L302 479 L297 464 L296 450 L298 438 L305 423 L315 414 Z M313 408 L314 410 L300 424 L293 442 L293 465 L297 478 L305 490 L304 492 L300 492 L294 486 L288 473 L286 463 L286 444 L290 429 L298 415 L305 409 Z M301 404 L302 407 L299 408 L293 416 L286 429 L282 444 L282 464 L284 473 L289 485 L293 490 L292 492 L288 492 L282 485 L277 472 L275 459 L276 441 L279 428 L287 413 L296 405 Z M162 395 L170 391 L180 391 L189 395 L200 410 L212 417 L212 425 L218 436 L230 446 L238 448 L251 465 L273 474 L277 484 L274 486 L260 486 L248 481 L251 475 L237 476 L225 470 L214 458 L233 454 L233 452 L215 453 L201 447 L193 439 L188 429 L200 428 L205 425 L192 425 L183 421 Z M183 366 L185 367 L188 375 L189 382 L188 389 L173 386 L182 377 L183 374 L182 367 Z M339 335 L337 353 L327 366 L314 368 L298 361 L308 376 L307 387 L299 397 L284 400 L274 396 L269 390 L267 380 L274 370 L282 370 L287 376 L282 383 L277 378 L279 385 L289 383 L290 372 L284 367 L274 366 L266 372 L264 377 L266 392 L272 399 L286 407 L278 420 L266 415 L249 399 L243 387 L242 373 L247 363 L247 352 L256 342 L263 341 L269 344 L275 352 L289 338 L303 337 L327 341 Z M177 303 L180 305 L181 308 L181 315 L179 320 L178 330 L175 328 L169 327 L176 319 L177 316 L176 304 Z M173 301 L175 300 L177 303 L175 304 Z M299 275 L301 274 L302 276 L300 277 Z M275 281 L279 276 L283 274 L290 274 L297 280 L298 286 L294 291 L288 291 L286 289 L286 285 L284 285 L283 291 L289 299 L293 301 L302 302 L309 300 L317 293 L322 292 L324 294 L323 302 L321 306 L310 315 L306 316 L291 315 L282 310 L274 299 L273 286 Z M224 267 L230 266 L231 269 L223 282 L217 301 L216 331 L218 342 L227 365 L238 380 L240 391 L246 402 L260 415 L277 424 L272 441 L256 433 L248 424 L245 413 L232 408 L225 400 L218 385 L221 370 L208 361 L202 348 L201 332 L204 324 L210 318 L203 305 L204 288 L214 273 Z M302 249 L312 258 L318 271 L317 285 L308 296 L303 298 L294 296 L304 288 L306 274 L300 264 L288 258 L275 258 L263 263 L243 282 L234 309 L234 331 L243 357 L239 370 L236 371 L224 349 L219 325 L220 305 L230 277 L236 267 L249 254 L261 247 L283 243 Z M209 239 L210 240 L209 245 L204 254 L199 259 L195 257 L194 254 L186 245 L187 243 L192 245 L199 245 Z M180 239 L182 238 L185 242 L183 243 Z M158 234 L178 243 L197 267 L199 306 L204 315 L197 334 L199 351 L205 364 L215 372 L215 389 L222 403 L242 417 L255 437 L272 446 L271 469 L253 462 L242 445 L232 443 L221 434 L216 424 L217 413 L207 411 L199 403 L190 368 L183 359 L171 357 L165 362 L166 371 L171 364 L179 370 L171 381 L158 380 L149 371 L148 351 L159 336 L175 332 L193 341 L183 331 L185 307 L178 297 L168 295 L161 300 L161 307 L168 303 L173 308 L173 315 L167 322 L155 323 L147 315 L147 299 L156 287 L170 285 L180 289 L161 272 Z M343 233 L346 238 L349 249 L349 267 L347 274 L341 285 L336 290 L328 294 L327 291 L335 284 L340 272 L339 258 L337 253 L332 247 L332 243 L337 241 L340 238 L341 234 Z M231 245 L240 233 L250 228 L265 229 L271 234 L271 237 L273 237 L276 230 L282 225 L298 223 L304 225 L312 232 L316 243 L323 244 L332 252 L336 262 L335 275 L330 283 L322 288 L322 273 L317 259 L304 246 L293 241 L272 240 L264 242 L250 249 L234 264 L230 259 Z M298 212 L300 211 L301 213 L299 214 Z M301 207 L303 206 L304 209 L302 210 Z M325 196 L329 205 L318 213 L315 219 L315 226 L313 227 L305 220 L316 209 L323 197 Z M342 168 L343 187 L359 215 L365 233 L368 261 L364 277 L351 299 L338 309 L322 314 L321 312 L327 300 L338 294 L347 284 L353 266 L353 248 L347 230 L341 224 L332 224 L329 231 L335 228 L337 235 L329 239 L319 229 L319 221 L322 215 L329 210 L335 209 L330 196 L330 183 L335 173 Z M214 160 L229 173 L237 186 L242 201 L242 219 L239 229 L227 245 L227 262 L214 268 L204 278 L200 265 L213 246 L213 233 L209 227 L202 225 L198 227 L197 234 L203 230 L205 232 L204 238 L193 241 L185 235 L183 224 L191 212 L199 209 L208 212 L216 222 L215 214 L204 198 L205 187 L212 174 L212 161 Z M284 138 L298 150 L306 167 L307 184 L303 199 L296 211 L278 224 L272 226 L249 224 L245 226 L247 218 L269 212 L284 201 L291 189 L293 175 L287 158 L278 150 L267 149 L259 155 L258 165 L262 169 L266 169 L268 167 L262 165 L263 161 L271 159 L277 168 L276 175 L267 184 L254 184 L244 176 L241 170 L240 157 L242 151 L250 141 L262 135 L275 135 Z M235 117 L252 111 L266 112 L285 120 L300 133 L310 149 L315 167 L314 187 L311 197 L305 207 L303 205 L308 193 L310 177 L308 164 L300 147 L283 134 L265 131 L254 134 L248 138 L238 150 L235 150 L228 145 L225 139 L225 130 Z M274 39 L281 46 L284 57 L282 63 L270 78 L270 89 L280 100 L296 108 L308 119 L317 131 L325 151 L325 180 L314 204 L312 202 L317 189 L318 166 L316 155 L309 139 L292 120 L283 114 L265 108 L249 108 L241 94 L241 88 L246 77 L264 63 L274 51 Z"/></svg>
