<svg xmlns="http://www.w3.org/2000/svg" width="512" height="512" viewBox="0 0 512 512" aria-hidden="true" focusable="false"><path fill="currentColor" fill-rule="evenodd" clip-rule="evenodd" d="M135 339 L136 343 L139 344 L139 339 Z M382 337 L379 339 L380 343 L383 340 Z M484 260 L469 277 L449 284 L427 284 L423 279 L415 282 L370 268 L343 269 L315 278 L315 285 L307 287 L306 296 L298 296 L297 307 L292 308 L297 318 L289 328 L296 335 L309 325 L310 334 L340 331 L335 341 L317 344 L328 344 L327 350 L334 346 L346 359 L357 360 L358 365 L383 367 L390 360 L398 363 L397 357 L404 350 L410 353 L418 349 L418 334 L421 343 L427 335 L435 336 L437 321 L444 319 L444 300 L469 287 L485 267 Z M368 356 L369 355 L379 355 L382 358 L381 359 L369 359 Z M362 356 L364 355 L365 357 L363 358 Z M386 350 L389 351 L390 353 L389 356 L385 355 L384 352 Z M394 345 L397 343 L400 347 L397 348 Z M402 336 L407 337 L406 344 L400 339 Z M422 328 L427 326 L430 329 L428 331 L424 331 Z M407 328 L409 326 L417 327 L418 329 L408 330 Z M360 327 L362 326 L363 328 L361 329 Z M340 324 L343 322 L347 326 L344 327 L341 326 Z M377 321 L376 325 L370 327 L365 326 L372 318 L374 318 Z M308 317 L310 318 L309 321 L306 320 Z M345 317 L347 316 L349 319 L347 320 Z M434 311 L435 314 L433 316 L433 322 L428 324 L427 323 L428 320 L427 313 Z M332 311 L335 310 L337 315 L332 316 L331 315 Z M302 311 L304 310 L305 312 L303 313 Z M311 314 L313 312 L316 312 L317 316 L321 317 L322 309 L325 308 L326 309 L325 313 L331 317 L331 321 L328 322 L322 320 L313 320 Z M424 312 L421 321 L416 320 L417 312 L414 313 L415 318 L414 321 L407 323 L406 318 L402 317 L401 330 L395 337 L391 336 L390 337 L391 341 L381 349 L375 350 L373 347 L370 347 L368 351 L364 351 L362 347 L357 347 L355 350 L350 352 L344 347 L345 342 L343 341 L342 338 L343 336 L346 337 L349 344 L352 345 L353 344 L353 338 L351 336 L352 334 L355 334 L356 337 L361 339 L361 341 L364 341 L363 338 L364 334 L373 336 L373 332 L380 329 L382 330 L383 334 L387 335 L388 324 L404 311 L408 313 L410 311 L408 308 L416 303 L418 304 L418 308 Z M391 303 L392 306 L394 307 L395 312 L392 314 L391 309 L388 308 L387 317 L383 321 L381 321 L380 318 L382 317 L383 312 L379 311 L375 315 L374 311 L380 307 L383 307 Z M316 302 L317 304 L313 306 L312 304 Z M423 302 L427 301 L428 306 L424 307 Z M401 304 L402 301 L405 302 L403 305 Z M337 302 L339 301 L340 303 L338 304 Z M438 300 L441 301 L442 305 L440 307 L435 307 L434 306 L435 302 Z M318 301 L323 300 L324 302 L319 303 Z M311 298 L312 300 L308 303 L307 300 Z M396 293 L395 296 L385 298 L381 301 L373 303 L372 305 L368 306 L348 307 L344 305 L345 302 L348 303 L368 302 L375 300 L376 298 L387 295 L389 293 L394 292 Z M399 292 L402 291 L403 293 L400 294 Z M435 294 L435 291 L438 289 L445 290 L444 293 L439 293 L437 295 Z M316 289 L321 295 L320 297 L315 296 L314 293 Z M446 291 L448 288 L452 289 L449 292 Z M406 285 L410 284 L411 286 L426 288 L427 290 L425 294 L414 294 L413 289 L407 289 Z M321 285 L327 281 L331 283 L332 278 L337 281 L338 276 L347 278 L348 275 L351 273 L364 273 L365 277 L370 277 L371 274 L377 274 L379 276 L382 276 L384 280 L389 284 L394 284 L397 281 L401 283 L400 288 L389 289 L387 291 L366 298 L344 298 L336 296 L326 296 Z M255 21 L243 55 L229 78 L224 77 L219 95 L208 105 L211 117 L187 117 L191 128 L183 134 L181 152 L174 155 L181 157 L175 168 L160 161 L127 168 L127 174 L109 193 L100 192 L83 207 L73 204 L68 210 L62 205 L66 218 L58 223 L37 207 L17 200 L31 220 L28 225 L34 249 L29 253 L42 255 L43 262 L51 260 L56 267 L59 263 L76 264 L77 271 L88 260 L98 263 L100 257 L108 254 L111 258 L118 250 L131 253 L140 250 L141 245 L152 244 L155 252 L161 245 L180 249 L215 275 L224 289 L220 301 L226 298 L230 306 L223 321 L217 320 L217 302 L207 295 L215 283 L204 291 L198 285 L199 279 L194 281 L160 264 L101 281 L94 278 L86 284 L55 282 L39 273 L36 265 L29 266 L28 273 L33 273 L59 300 L69 299 L63 306 L74 315 L72 321 L81 334 L90 339 L99 334 L96 345 L102 352 L108 349 L110 356 L120 359 L121 364 L132 363 L133 368 L137 364 L159 364 L165 355 L170 359 L171 352 L178 354 L179 346 L194 349 L197 339 L179 341 L181 332 L190 336 L206 326 L210 332 L219 331 L229 319 L243 317 L242 313 L235 315 L234 306 L240 298 L233 299 L230 290 L239 284 L237 272 L249 272 L245 284 L253 291 L254 299 L245 312 L256 316 L260 325 L254 326 L255 334 L227 352 L225 380 L248 400 L235 429 L255 459 L254 486 L258 491 L268 463 L259 423 L288 381 L288 356 L281 353 L276 342 L267 344 L265 326 L273 326 L275 316 L287 317 L284 303 L288 297 L293 298 L290 290 L302 271 L331 250 L341 253 L342 247 L363 245 L362 252 L369 245 L410 255 L415 262 L420 259 L437 263 L439 268 L462 260 L467 263 L471 255 L479 255 L482 222 L488 221 L488 215 L493 216 L496 200 L485 200 L485 207 L477 207 L461 222 L448 226 L447 217 L455 211 L452 204 L445 209 L442 205 L434 207 L432 202 L427 207 L426 197 L402 193 L392 174 L384 173 L375 163 L340 159 L344 165 L338 168 L332 162 L334 152 L330 136 L322 128 L322 115 L302 119 L302 99 L294 97 L275 64 L274 51 L264 39 L267 35 Z M260 463 L262 462 L263 464 L261 465 Z M259 457 L263 456 L264 458 L260 459 Z M254 448 L260 447 L261 450 L256 451 Z M250 443 L254 442 L255 444 L252 446 Z M253 431 L254 435 L249 436 L247 438 L245 433 Z M254 417 L255 420 L253 426 L245 428 L244 427 L245 423 L249 422 L249 420 L246 417 L248 415 Z M250 409 L253 406 L255 406 L260 411 L258 413 L253 413 L250 411 Z M266 393 L270 400 L261 408 L257 402 Z M267 378 L268 381 L262 382 L261 383 L263 387 L260 388 L258 385 L258 381 L264 378 Z M241 380 L246 378 L251 382 L254 382 L255 389 L251 390 L248 388 L247 385 L242 387 L241 385 L243 384 L243 382 Z M278 373 L279 379 L282 380 L282 383 L279 387 L275 387 L278 390 L276 393 L271 393 L270 387 L274 380 L274 374 Z M240 369 L242 372 L241 379 L237 382 L234 376 L236 375 L236 370 Z M278 369 L282 368 L283 373 L279 374 Z M266 368 L269 371 L268 375 L265 374 Z M246 363 L248 362 L251 365 L253 365 L254 370 L259 369 L260 373 L258 375 L252 375 L251 370 L246 369 Z M240 361 L241 364 L237 366 L236 370 L234 370 L233 362 Z M277 358 L280 362 L277 363 L278 368 L274 369 L273 361 Z M138 358 L139 355 L149 355 L150 356 L149 358 L146 359 Z M252 354 L255 354 L256 356 L260 357 L260 360 L257 363 L255 363 L249 358 Z M272 353 L273 354 L272 358 L269 361 L266 361 L264 359 L264 356 Z M260 352 L263 351 L264 355 L261 356 Z M239 351 L244 355 L241 361 L235 357 Z M125 352 L128 351 L131 354 L131 357 L129 358 L126 356 Z M275 347 L277 346 L278 348 L276 349 Z M246 345 L248 345 L250 348 L248 351 L246 351 L244 348 Z M118 345 L121 347 L119 352 L115 349 Z M253 342 L254 341 L257 342 L258 345 L255 346 Z M115 340 L113 344 L106 343 L107 341 L111 341 L112 338 Z M167 332 L172 333 L173 340 L176 342 L175 344 L171 346 L165 343 L166 341 L163 337 L163 335 Z M108 331 L110 332 L112 336 L111 338 L106 336 Z M183 330 L184 327 L187 328 L185 331 Z M85 329 L87 327 L91 328 L90 331 L86 331 Z M159 327 L161 326 L162 328 L160 329 Z M95 328 L98 325 L102 326 L101 330 L96 330 Z M112 322 L115 321 L115 319 L117 318 L119 320 L119 330 L121 330 L121 323 L123 322 L125 325 L129 327 L127 330 L128 331 L133 329 L144 332 L145 337 L149 341 L152 341 L152 338 L149 335 L154 334 L157 339 L161 339 L163 341 L163 344 L165 345 L164 350 L161 351 L155 347 L153 351 L148 351 L147 348 L144 346 L142 346 L140 350 L132 349 L130 346 L126 345 L116 335 L114 330 L111 328 Z M203 318 L205 317 L206 319 L204 320 Z M198 312 L202 314 L199 320 L196 319 Z M191 312 L192 319 L190 321 L187 321 L186 320 L187 314 Z M180 310 L182 314 L182 321 L175 325 L173 319 L176 316 L177 311 Z M112 314 L106 323 L96 320 L98 316 L103 315 L107 310 Z M101 306 L98 315 L95 316 L92 321 L87 324 L80 323 L80 316 L78 314 L79 311 L84 312 L85 314 L83 315 L83 319 L88 320 L90 318 L90 314 L92 313 L93 307 L96 306 L97 304 Z M121 304 L124 303 L128 306 L134 308 L133 312 L138 310 L139 314 L136 315 L136 317 L138 318 L138 320 L142 319 L148 326 L147 327 L141 326 L130 321 L128 319 L127 312 L125 312 L124 316 L121 315 L119 313 Z M196 303 L206 302 L211 312 L209 313 L203 307 L197 305 Z M147 303 L153 302 L156 303 L157 306 L151 307 L148 306 Z M166 305 L167 302 L171 301 L177 302 L176 305 L171 306 Z M110 302 L115 301 L116 307 L113 308 L110 305 Z M89 301 L90 305 L86 309 L85 302 Z M76 301 L79 302 L79 305 L77 307 L74 306 L74 303 Z M192 301 L194 300 L195 302 L193 303 Z M177 301 L185 300 L186 302 L178 303 Z M122 295 L125 294 L137 298 L138 300 L143 301 L144 304 L141 305 L140 303 L132 301 L128 298 L123 297 Z M197 290 L202 295 L200 299 L196 297 Z M69 290 L74 289 L77 291 L76 294 L70 293 Z M61 289 L66 288 L68 291 L65 292 L62 291 Z M104 284 L105 288 L100 289 L100 293 L98 294 L97 287 L102 286 Z M256 276 L259 278 L257 282 L254 280 Z M119 286 L120 280 L122 278 L130 277 L131 279 L140 279 L141 274 L146 277 L148 273 L157 273 L158 277 L164 278 L165 274 L177 277 L178 283 L181 284 L181 292 L183 292 L183 284 L185 281 L190 283 L193 287 L191 296 L177 296 L175 293 L171 293 L169 298 L151 298 L149 293 L147 293 L144 297 L127 291 L126 289 L120 289 Z M227 269 L231 271 L235 279 L234 281 L225 280 L224 274 Z M262 268 L264 268 L266 271 L271 268 L273 271 L273 278 L275 279 L274 284 L279 284 L284 288 L282 297 L280 301 L277 302 L277 305 L279 306 L279 312 L277 313 L273 311 L272 316 L269 317 L268 320 L266 320 L263 316 L264 314 L267 313 L267 310 L264 309 L264 304 L268 303 L268 301 L265 300 L265 297 L258 298 L257 295 L255 294 L256 291 L262 289 L260 286 L261 284 L268 283 L267 277 L264 277 L260 272 Z M248 269 L250 268 L251 270 L249 271 Z M225 263 L227 266 L223 268 L222 265 Z M256 260 L258 261 L257 267 L253 263 Z M229 260 L232 257 L237 257 L239 259 L243 257 L244 258 L243 266 L234 268 L231 266 L231 263 Z M275 253 L277 255 L281 255 L282 259 L284 260 L282 266 L279 269 L277 269 L276 266 L273 265 L269 259 Z M55 254 L56 253 L66 253 L67 257 L61 258 L57 257 Z M441 253 L442 252 L450 253 L451 257 L446 258 Z M468 251 L467 253 L459 255 L458 257 L455 256 L456 253 L462 252 L464 249 Z M421 250 L423 249 L424 251 L422 252 Z M260 250 L263 248 L264 250 L267 250 L268 252 L265 254 L261 254 Z M250 248 L254 250 L252 254 L248 253 L248 250 Z M433 247 L437 249 L434 255 L429 253 Z M45 248 L47 247 L50 250 L50 252 L46 253 L44 251 Z M77 249 L81 246 L82 248 L86 248 L90 252 L79 255 Z M456 246 L458 245 L459 247 L457 248 Z M220 246 L223 244 L230 244 L234 248 L235 251 L232 252 L231 254 L226 255 Z M202 245 L207 244 L209 242 L211 245 L211 250 L213 252 L217 251 L222 257 L222 259 L215 262 L205 252 L202 251 L203 249 Z M305 241 L308 245 L311 246 L311 251 L302 258 L302 260 L293 269 L293 271 L288 278 L284 277 L282 275 L284 268 L287 267 L287 264 L293 254 Z M273 240 L277 241 L275 245 L271 243 Z M240 240 L243 241 L243 244 L241 246 L238 245 L238 242 Z M445 239 L446 242 L444 245 L442 245 L441 241 Z M254 239 L258 238 L260 243 L255 244 Z M419 236 L421 236 L424 239 L420 250 L411 246 L411 240 L417 239 Z M436 235 L441 236 L438 243 L435 241 Z M467 234 L473 234 L477 236 L478 240 L473 246 L469 245 L466 248 L465 247 L466 245 L465 237 Z M78 234 L79 235 L78 241 L69 246 L67 241 L69 239 L72 239 Z M62 234 L63 239 L60 243 L58 243 L57 238 Z M450 234 L452 233 L455 235 L458 240 L456 242 L452 241 L450 239 Z M313 233 L315 233 L322 242 L318 246 L316 245 L316 243 L312 241 L310 237 Z M200 233 L203 237 L202 240 L200 241 L200 245 L197 247 L192 243 L192 240 L198 233 Z M412 232 L415 231 L416 233 L413 234 Z M79 235 L80 232 L83 230 L90 231 L83 237 Z M423 231 L431 229 L433 233 L430 236 L428 236 Z M455 229 L456 228 L465 229 L466 233 L461 235 L460 231 L456 231 Z M278 225 L279 233 L275 236 L274 226 Z M434 227 L439 224 L446 230 L446 233 L444 235 L440 235 L439 232 Z M246 232 L249 230 L254 231 L254 226 L257 224 L263 227 L261 230 L263 233 L267 234 L267 237 L260 239 L259 238 L260 234 L255 234 L254 238 L247 238 Z M236 224 L239 225 L238 230 L234 229 L234 226 Z M76 224 L79 227 L79 230 L77 231 L76 234 L69 235 L67 231 Z M470 224 L472 223 L474 225 L477 225 L479 230 L478 231 L473 230 L469 227 Z M63 225 L64 221 L68 222 L65 226 Z M58 229 L57 231 L51 231 L45 234 L45 237 L47 240 L42 243 L38 243 L35 239 L35 235 L42 231 L42 229 L35 227 L36 225 L39 225 L41 221 L43 222 L44 226 L46 226 L48 229 L52 227 Z M465 219 L467 218 L468 220 L466 221 Z M261 218 L263 216 L266 216 L268 221 L266 222 L262 220 Z M89 216 L90 220 L86 221 L86 223 L83 224 L82 220 L86 216 Z M93 215 L97 217 L98 223 L91 225 L90 221 L92 220 Z M433 216 L432 222 L428 225 L424 225 L423 222 L426 220 L426 216 L429 214 Z M418 214 L421 216 L421 219 L417 223 L412 221 L413 217 Z M320 228 L325 225 L326 229 L330 229 L330 222 L337 219 L343 218 L344 221 L349 221 L354 219 L355 215 L370 214 L386 216 L387 221 L390 219 L396 220 L397 226 L399 228 L404 224 L408 227 L406 234 L412 233 L413 236 L411 239 L405 239 L402 242 L390 238 L389 236 L379 234 L355 233 L341 235 L340 233 L336 233 L335 238 L325 242 Z M318 214 L320 215 L321 218 L320 221 L317 221 L315 217 Z M307 215 L309 214 L311 218 L308 219 Z M193 228 L188 240 L181 238 L183 235 L183 230 L180 229 L177 233 L173 233 L172 235 L159 233 L129 235 L112 241 L98 249 L92 246 L89 239 L95 234 L97 234 L100 238 L106 238 L106 234 L103 233 L102 230 L104 228 L110 229 L110 225 L112 223 L116 226 L119 226 L120 223 L126 223 L126 219 L129 216 L132 216 L133 219 L136 220 L136 216 L142 214 L147 214 L148 219 L151 219 L154 215 L167 216 L176 220 L174 226 L177 226 L178 221 L180 220 L183 222 L183 226 L185 228 L188 228 L189 226 Z M478 213 L479 214 L478 219 L476 220 L474 215 Z M207 214 L203 220 L200 221 L193 220 L194 215 L203 215 L205 213 Z M269 213 L273 212 L274 215 L271 217 Z M243 212 L244 213 L243 218 L240 221 L237 221 L236 219 L239 214 Z M34 213 L37 212 L40 218 L36 220 Z M79 212 L77 215 L73 214 L74 212 L77 211 Z M189 210 L191 213 L188 214 L188 216 L186 217 L185 216 L186 211 Z M402 210 L403 209 L407 210 L408 214 L403 215 Z M324 210 L327 209 L330 212 L330 214 L326 216 L324 214 Z M99 209 L103 211 L104 215 L103 217 L100 217 L99 214 L97 213 Z M420 209 L422 208 L423 210 L421 211 Z M111 208 L115 207 L116 210 L112 212 Z M87 211 L89 207 L93 209 L90 212 Z M241 209 L244 206 L248 207 L245 210 Z M313 205 L316 204 L318 209 L314 210 Z M121 205 L124 204 L126 209 L121 210 L120 209 Z M394 203 L399 206 L397 211 L394 211 L392 209 Z M327 202 L329 201 L330 203 L328 204 Z M152 202 L154 201 L155 203 L153 204 Z M263 202 L266 200 L268 201 L267 204 L264 204 Z M257 200 L262 210 L258 216 L254 215 L253 220 L247 221 L246 219 L251 209 L257 206 L254 204 L255 201 Z M184 200 L186 201 L185 204 L182 203 Z M376 200 L382 199 L383 203 L379 205 Z M360 202 L359 204 L351 204 L350 210 L341 211 L340 209 L336 208 L337 204 L339 204 L341 207 L345 207 L345 203 L351 199 L357 200 Z M162 198 L166 201 L165 204 L171 209 L170 211 L164 210 L160 207 L160 200 Z M413 197 L416 200 L416 203 L410 206 L407 206 L404 200 L406 198 L408 200 L411 200 L411 198 Z M130 200 L134 199 L135 202 L139 202 L139 198 L142 197 L146 204 L151 204 L152 206 L142 207 L140 209 L132 209 Z M114 198 L116 197 L117 199 L115 200 Z M95 202 L100 197 L104 197 L105 201 L108 201 L109 204 L104 207 L101 204 L101 202 L97 204 Z M369 196 L374 197 L376 199 L374 201 L374 205 L379 205 L380 206 L379 209 L371 209 L370 207 L365 208 L363 207 L364 204 L368 202 L367 198 Z M179 195 L181 196 L180 200 L177 199 Z M340 195 L344 194 L345 196 L341 197 Z M254 190 L255 193 L253 198 L248 203 L246 201 L246 198 L249 196 L250 192 Z M147 192 L150 190 L153 192 L156 192 L157 195 L151 196 Z M376 187 L379 188 L378 193 L375 192 Z M353 188 L354 187 L356 188 L356 192 L360 192 L364 190 L366 193 L362 196 L356 196 L353 193 Z M332 188 L335 187 L336 190 L333 192 Z M258 188 L261 187 L262 190 L259 191 Z M251 188 L253 187 L254 189 L252 190 Z M177 188 L180 187 L181 190 L179 191 Z M136 187 L138 188 L137 193 L134 192 L134 189 Z M167 186 L173 192 L172 196 L169 197 L165 196 Z M358 183 L360 182 L361 184 L359 185 Z M174 183 L176 182 L178 185 L176 186 Z M125 182 L130 186 L131 189 L127 195 L125 194 L124 190 L120 189 L120 187 Z M386 181 L388 181 L391 186 L390 188 L392 192 L391 196 L386 195 L385 192 L382 190 L382 185 Z M344 181 L348 183 L349 186 L346 190 L341 190 L340 186 L343 184 Z M312 181 L313 180 L315 181 L318 188 L320 189 L324 188 L327 192 L323 193 L321 196 L313 197 L310 194 L312 190 Z M200 180 L202 195 L195 201 L191 201 L190 200 L191 194 L186 192 L186 188 L194 185 Z M153 181 L155 180 L156 182 L154 183 Z M163 179 L167 183 L166 186 L162 183 Z M341 179 L343 178 L344 180 L342 181 Z M378 177 L379 181 L374 182 L374 187 L370 188 L367 182 L371 180 L373 177 Z M256 177 L258 178 L257 182 L255 181 Z M134 178 L142 177 L144 181 L146 182 L144 187 L139 186 L138 183 L134 181 Z M351 177 L353 176 L355 179 L352 180 Z M161 177 L163 176 L164 178 L162 179 Z M363 175 L365 174 L367 178 L365 179 Z M319 178 L325 174 L326 177 L330 179 L330 182 L329 183 L321 182 Z M189 174 L192 177 L192 181 L187 185 L185 185 L182 178 Z M305 174 L307 173 L308 175 L306 176 Z M296 174 L301 173 L302 175 L299 177 Z M206 174 L212 173 L213 175 L207 176 Z M369 169 L373 168 L375 172 L371 173 Z M346 169 L350 168 L351 171 L347 172 Z M330 168 L334 171 L333 176 L327 172 Z M313 168 L317 169 L317 172 L315 175 L313 175 L311 171 Z M179 173 L180 168 L183 168 L185 170 L181 174 Z M164 169 L166 168 L167 171 L165 172 Z M355 167 L363 166 L364 171 L361 173 L358 173 L355 171 Z M198 166 L203 170 L202 173 L199 175 L194 172 L195 168 Z M138 172 L140 168 L147 166 L157 166 L158 167 L157 172 L150 171 L152 175 L149 177 L145 176 L144 173 Z M311 162 L311 165 L303 170 L300 169 L302 162 L306 159 Z M204 162 L212 161 L213 159 L215 159 L216 163 L212 166 L212 168 L216 168 L217 170 L216 171 L210 170 L206 167 Z M195 156 L196 161 L192 163 L192 165 L189 167 L187 165 L186 160 L190 156 Z M200 155 L202 154 L203 156 L201 157 Z M289 154 L291 153 L292 156 L290 157 Z M221 154 L223 153 L224 156 L222 157 Z M187 149 L189 150 L188 156 L184 154 Z M326 148 L327 153 L325 154 L325 157 L327 158 L326 165 L323 167 L317 162 L317 150 Z M285 148 L287 147 L288 149 L286 150 Z M225 148 L227 147 L228 149 L226 150 Z M299 147 L302 146 L303 149 L301 150 Z M212 145 L214 148 L211 152 L207 152 L204 149 L205 146 L207 148 L210 148 L210 146 Z M193 144 L197 146 L195 152 L192 151 Z M283 135 L287 141 L280 144 L278 141 L279 138 Z M230 135 L235 141 L232 145 L230 144 L229 140 Z M211 134 L214 138 L211 139 L209 142 L207 142 L205 139 L208 138 L209 135 Z M256 133 L261 136 L259 140 L263 143 L268 140 L271 147 L278 149 L278 154 L283 154 L282 159 L287 160 L289 168 L286 176 L291 176 L292 185 L301 184 L302 189 L298 190 L301 197 L311 200 L305 204 L300 201 L302 219 L312 227 L301 229 L302 236 L289 242 L292 248 L287 255 L280 248 L289 234 L284 232 L282 215 L265 185 L265 175 L260 172 L263 165 L259 163 L258 157 L255 157 L255 163 L250 165 L253 172 L232 213 L229 239 L224 241 L220 238 L216 241 L212 237 L213 229 L202 228 L204 224 L210 225 L209 220 L215 220 L212 215 L217 214 L216 209 L211 206 L212 200 L209 204 L203 200 L212 196 L211 187 L222 183 L220 179 L227 175 L225 164 L231 153 L236 153 L235 149 L248 138 L254 139 Z M262 129 L269 128 L270 130 L269 133 L267 134 Z M284 128 L290 127 L294 131 L291 135 L289 135 L284 131 Z M275 127 L278 131 L273 137 L271 137 L270 134 L272 133 L272 130 Z M238 127 L240 128 L241 134 L243 135 L240 138 L238 137 L238 134 L235 131 Z M203 126 L204 129 L201 130 L201 134 L205 135 L205 139 L200 143 L192 142 L191 138 L196 136 L196 134 L194 133 L195 128 Z M301 125 L303 124 L304 126 L302 127 Z M207 123 L210 122 L211 124 L208 125 Z M317 120 L318 121 L317 126 L319 133 L316 134 L316 138 L321 137 L322 143 L317 144 L315 140 L312 142 L309 140 L304 142 L302 140 L301 135 L311 134 L311 131 L308 128 Z M232 120 L234 121 L233 127 L231 126 Z M265 121 L263 125 L259 126 L258 124 L255 124 L255 126 L252 129 L248 128 L249 131 L248 133 L246 133 L245 129 L243 128 L244 124 L246 123 L250 124 L249 120 L252 118 L255 119 L261 118 Z M275 118 L280 117 L282 121 L280 122 L279 120 L276 120 Z M217 115 L228 115 L229 116 L227 119 L224 119 L224 123 L226 123 L229 128 L228 132 L226 131 L226 129 L223 129 L217 126 L216 124 Z M269 112 L271 111 L273 114 L270 116 Z M255 112 L257 111 L258 114 L256 115 Z M240 112 L245 110 L246 115 L243 116 L240 114 Z M229 110 L232 109 L233 111 L230 112 Z M293 107 L295 106 L296 108 L294 109 Z M284 99 L291 100 L291 104 L289 108 L284 109 L284 111 L293 120 L297 121 L296 125 L287 124 L286 117 L279 109 L279 104 L283 103 Z M246 96 L250 96 L251 99 L255 102 L255 106 L252 110 L246 110 L245 108 L239 105 L240 102 L245 103 Z M250 90 L251 89 L253 90 L262 89 L263 90 L262 96 L269 96 L271 98 L270 100 L263 103 L263 105 L273 103 L274 105 L271 106 L268 110 L264 110 L262 112 L259 108 L258 103 L255 102 L256 100 L258 100 L258 98 L253 96 Z M285 86 L287 91 L284 93 L282 97 L278 98 L273 93 L273 90 L279 88 L283 89 L283 87 Z M241 90 L240 93 L237 92 L234 93 L234 95 L237 96 L234 104 L230 105 L228 108 L225 108 L222 104 L222 97 L226 95 L228 98 L231 98 L231 95 L226 90 L228 88 L232 89 L234 86 Z M254 85 L257 82 L259 86 L255 87 Z M278 82 L281 81 L282 84 L279 85 Z M231 82 L234 81 L235 85 L233 86 Z M274 79 L275 84 L272 86 L269 86 L268 82 Z M239 74 L243 75 L243 81 L245 82 L244 87 L241 87 L238 84 Z M269 64 L274 69 L275 72 L274 74 L268 73 Z M252 43 L254 44 L255 47 L258 47 L259 44 L261 43 L263 45 L265 52 L267 53 L266 56 L263 56 L263 58 L265 59 L264 70 L262 71 L263 75 L269 77 L267 81 L262 81 L260 79 L257 67 L255 68 L254 74 L249 74 L249 76 L252 77 L253 79 L250 81 L245 79 L245 74 L243 73 L243 70 L248 68 L249 66 L248 59 L250 58 L250 56 L247 56 L246 54 L248 53 L248 50 Z M256 36 L259 39 L258 42 L254 40 Z"/></svg>
