<svg xmlns="http://www.w3.org/2000/svg" width="512" height="512" viewBox="0 0 512 512" aria-hidden="true" focusable="false"><path fill="currentColor" fill-rule="evenodd" clip-rule="evenodd" d="M256 17 L229 94 L217 95 L218 104 L208 126 L212 149 L233 165 L240 177 L232 185 L212 155 L190 145 L193 164 L176 202 L148 186 L133 185 L145 210 L145 252 L123 250 L109 254 L122 267 L139 303 L169 325 L156 333 L146 347 L162 348 L195 365 L178 373 L159 372 L138 353 L137 341 L128 351 L126 370 L114 365 L103 351 L100 336 L108 327 L110 340 L121 342 L133 328 L129 309 L101 283 L96 266 L73 242 L68 223 L62 253 L67 266 L69 329 L77 354 L102 381 L128 392 L123 405 L162 404 L190 385 L190 411 L196 423 L210 434 L227 436 L238 465 L258 495 L286 435 L306 433 L320 420 L323 385 L351 404 L390 405 L385 392 L410 382 L427 367 L444 330 L446 266 L451 246 L445 223 L439 244 L416 268 L412 283 L384 309 L381 327 L389 340 L402 341 L405 327 L413 336 L411 349 L398 366 L387 370 L387 357 L379 341 L374 355 L354 372 L336 373 L318 365 L351 348 L367 347 L356 332 L344 325 L370 308 L390 269 L404 254 L391 250 L368 252 L368 210 L380 185 L366 186 L337 202 L321 166 L324 145 L299 157 L281 185 L273 177 L275 170 L301 149 L305 123 L296 106 L297 94 L284 94 Z M215 359 L218 384 L246 413 L256 439 L268 412 L286 397 L295 384 L297 359 L309 370 L315 382 L319 404 L312 422 L300 430 L290 430 L281 422 L281 416 L290 411 L292 416 L289 420 L293 421 L298 417 L297 410 L292 406 L285 406 L278 411 L276 423 L281 434 L276 447 L267 441 L272 458 L257 479 L241 458 L246 441 L237 447 L233 440 L237 424 L236 412 L229 406 L222 406 L216 411 L216 418 L220 421 L225 420 L221 417 L223 411 L232 416 L232 422 L224 430 L208 428 L197 413 L194 402 L201 375 Z M131 358 L134 357 L138 361 L144 364 L152 374 L159 378 L177 379 L187 376 L190 373 L192 375 L175 391 L165 397 L158 398 L156 400 L143 400 L142 398 L134 398 L133 396 L135 394 L143 391 L155 390 L155 387 L143 385 L134 377 L131 371 L130 364 Z M382 358 L383 368 L377 380 L368 386 L358 387 L358 389 L361 391 L370 391 L378 394 L380 396 L379 398 L372 398 L371 400 L357 400 L355 398 L346 396 L338 391 L321 375 L323 373 L329 377 L337 379 L355 378 L360 375 L366 369 L367 366 L375 361 L379 356 Z M281 346 L291 362 L291 378 L285 390 L262 412 L256 421 L249 408 L235 397 L224 384 L221 371 L222 363 L229 349 L233 347 L233 364 L238 373 L251 386 L255 397 L258 397 L263 385 L276 372 L280 365 L281 353 L279 347 Z M248 340 L266 340 L273 346 L276 352 L276 360 L273 367 L257 385 L243 371 L238 363 L238 350 L240 346 Z M279 337 L306 329 L332 328 L348 333 L357 341 L350 343 L329 355 L322 357 L308 357 L293 351 L289 346 L281 341 Z M157 341 L162 335 L172 330 L181 328 L207 329 L233 336 L235 338 L219 352 L205 357 L192 357 L184 355 L166 344 Z M256 282 L276 305 L278 310 L278 322 L274 329 L267 334 L249 335 L243 332 L237 326 L235 321 L235 311 L241 299 Z M392 255 L393 258 L387 264 L376 289 L370 299 L367 301 L367 303 L355 314 L340 321 L330 322 L330 319 L349 304 L349 302 L358 290 L363 279 L367 260 L375 256 Z M121 255 L134 255 L145 258 L147 260 L148 271 L155 289 L166 304 L166 306 L183 319 L183 322 L173 321 L158 314 L146 303 L146 301 L143 299 L128 267 L120 257 Z M445 247 L445 258 L437 268 L437 271 L441 272 L442 285 L439 292 L428 304 L425 317 L427 317 L434 306 L439 306 L438 331 L432 350 L425 361 L408 377 L390 385 L381 386 L380 384 L384 379 L393 376 L409 362 L417 345 L416 329 L409 322 L400 321 L394 327 L394 331 L400 332 L399 336 L393 336 L386 328 L388 313 L396 304 L411 295 L414 301 L412 313 L415 314 L419 307 L418 276 L425 266 Z M68 247 L87 264 L95 276 L94 306 L98 314 L100 313 L99 302 L102 294 L120 306 L126 314 L127 328 L121 336 L114 336 L113 332 L119 331 L118 326 L113 321 L104 322 L96 332 L96 345 L104 362 L120 376 L129 379 L133 384 L132 386 L118 383 L104 376 L88 361 L81 350 L75 330 L74 306 L80 307 L86 317 L88 317 L88 311 L71 285 L72 272 L76 271 L76 268 L68 258 Z M256 205 L295 250 L307 283 L301 312 L282 331 L283 307 L264 285 L257 271 L230 308 L232 330 L216 318 L208 298 L208 277 L217 253 Z M368 192 L363 208 L363 253 L357 280 L347 298 L331 313 L319 320 L307 323 L306 321 L323 297 L327 282 L327 255 L321 237 L324 226 L342 205 Z M146 192 L170 204 L189 226 L192 238 L186 257 L186 280 L191 299 L207 321 L206 323 L182 313 L167 299 L156 279 L151 260 L151 214 Z M256 164 L309 225 L320 248 L322 282 L310 309 L311 276 L308 264 L296 242 L268 213 L258 191 L255 191 L246 212 L215 245 L205 265 L202 278 L203 307 L193 290 L191 259 L198 237 L212 215 Z M310 155 L314 156 L316 171 L319 174 L332 202 L332 207 L324 216 L317 228 L304 210 L286 191 L287 184 L292 173 Z M203 155 L221 173 L226 183 L227 191 L205 215 L198 227 L195 228 L190 217 L181 207 L181 203 L196 174 L199 156 Z M256 118 L265 128 L270 139 L269 147 L266 152 L261 156 L257 152 L255 152 L254 155 L252 156 L246 150 L245 144 L243 142 L247 130 L249 129 L249 127 Z M289 100 L290 107 L300 124 L300 139 L296 147 L289 154 L284 156 L283 153 L287 144 L287 134 L285 127 L277 114 L277 110 L284 102 Z M225 100 L229 102 L235 108 L237 112 L229 125 L226 136 L227 148 L232 155 L231 157 L223 153 L217 147 L213 138 L213 125 L217 116 L223 108 Z M257 96 L277 123 L282 134 L282 144 L278 152 L271 159 L271 161 L274 161 L275 163 L268 170 L262 161 L266 159 L273 151 L275 140 L272 129 L266 123 L259 110 L256 108 L251 117 L247 121 L247 123 L243 126 L239 136 L240 150 L244 156 L251 161 L246 170 L244 171 L238 163 L239 161 L242 161 L242 159 L233 148 L233 145 L231 143 L231 135 L233 133 L236 123 L243 114 L243 112 L249 107 L254 98 Z M256 37 L258 38 L267 59 L267 67 L265 68 L263 74 L266 74 L270 71 L278 88 L278 99 L273 108 L266 101 L257 84 L241 108 L239 107 L235 98 L235 89 L241 78 L242 72 L244 71 L247 74 L250 74 L250 71 L246 65 L246 59 Z"/></svg>
