<svg xmlns="http://www.w3.org/2000/svg" width="512" height="512" viewBox="0 0 512 512" aria-hidden="true" focusable="false"><path fill="currentColor" fill-rule="evenodd" clip-rule="evenodd" d="M93 18 L94 33 L84 60 L83 81 L88 94 L104 108 L107 121 L81 103 L81 122 L87 132 L89 421 L106 360 L117 366 L121 374 L117 389 L121 389 L130 379 L138 356 L137 335 L131 324 L118 312 L111 312 L114 318 L110 322 L97 315 L97 295 L106 283 L118 294 L118 308 L126 304 L141 320 L147 336 L147 360 L130 394 L122 402 L107 402 L105 429 L85 428 L88 462 L98 476 L88 485 L87 495 L119 495 L131 489 L144 495 L368 495 L365 482 L394 495 L425 491 L431 482 L410 482 L372 456 L351 459 L323 475 L324 467 L338 459 L347 442 L330 442 L295 423 L279 423 L260 431 L257 407 L262 395 L243 396 L221 412 L218 435 L234 443 L232 451 L216 469 L187 477 L203 456 L204 433 L211 423 L204 417 L220 403 L230 386 L233 356 L225 338 L208 327 L204 314 L194 304 L192 285 L178 295 L170 324 L166 324 L160 294 L146 274 L163 256 L158 219 L120 248 L117 201 L127 205 L144 201 L151 180 L143 163 L141 137 L121 150 L130 126 L130 101 L123 84 L111 73 L106 33 Z M93 487 L98 482 L103 480 L109 482 L115 482 L117 484 L119 482 L124 482 L127 484 L124 488 L116 490 L112 489 L94 490 Z M307 487 L316 481 L326 481 L328 479 L331 479 L348 468 L350 465 L358 462 L374 462 L387 469 L401 483 L408 486 L409 489 L402 490 L388 488 L369 478 L351 479 L351 482 L355 483 L360 488 L359 490 L312 490 L308 489 Z M298 453 L297 458 L290 453 L280 453 L272 461 L271 476 L272 479 L281 487 L280 489 L235 490 L224 488 L225 486 L238 479 L258 459 L258 457 L262 453 L274 446 L291 446 Z M131 435 L141 443 L141 445 L144 447 L147 452 L148 456 L147 469 L140 476 L132 479 L123 476 L117 470 L116 467 L116 454 L118 449 Z M170 434 L171 435 L170 462 L167 467 L159 475 L151 476 L150 473 L154 465 L153 453 L150 447 L151 443 L159 436 Z M94 434 L102 435 L113 443 L114 447 L112 448 L110 456 L110 465 L114 473 L113 476 L105 475 L101 470 L98 469 L94 462 L93 457 L93 435 Z M200 424 L201 428 L200 435 L198 437 L198 452 L194 462 L184 472 L180 473 L179 475 L168 476 L167 474 L171 470 L175 462 L175 441 L177 438 L177 434 L187 426 Z M113 408 L114 411 L111 413 L110 410 Z M338 449 L329 459 L314 458 L319 465 L317 472 L300 485 L282 482 L275 472 L275 466 L283 458 L292 461 L290 471 L299 468 L304 460 L302 449 L290 440 L275 440 L267 443 L239 472 L219 485 L183 490 L142 489 L137 485 L146 482 L202 481 L221 472 L233 460 L240 446 L238 431 L235 430 L234 435 L229 438 L224 434 L223 421 L232 408 L246 401 L253 402 L254 431 L248 445 L252 445 L268 432 L287 428 L304 432 L324 445 Z M131 401 L141 409 L150 419 L154 431 L148 440 L143 439 L134 430 L134 428 L128 429 L128 431 L118 441 L114 438 L114 436 L110 434 L110 427 L114 417 Z M166 331 L168 332 L171 348 L179 358 L184 361 L192 361 L197 358 L201 365 L201 380 L197 391 L182 409 L178 408 L178 399 L173 391 L173 384 L167 372 L162 373 L161 380 L141 401 L135 396 L153 372 L156 365 L155 363 L160 355 L161 347 L163 346 L164 333 Z M92 318 L102 327 L112 327 L119 319 L127 327 L134 345 L131 365 L127 372 L124 370 L123 365 L117 358 L108 352 L98 351 L101 359 L101 367 L94 381 L91 381 Z M186 297 L188 305 L201 320 L200 339 L204 338 L206 332 L210 332 L218 337 L224 346 L228 359 L227 378 L221 393 L200 415 L176 428 L159 430 L157 421 L147 408 L150 397 L165 382 L167 383 L168 390 L165 397 L171 397 L174 402 L174 411 L170 416 L162 418 L165 421 L172 421 L193 406 L204 388 L207 368 L201 354 L193 349 L192 353 L186 356 L178 350 L174 341 L174 322 L178 306 Z M114 253 L116 252 L117 254 L115 255 Z M151 231 L154 232 L154 237 L151 241 L151 244 L154 244 L157 248 L157 257 L151 264 L144 264 L141 261 L141 256 L148 255 L148 252 L145 249 L143 249 L137 254 L137 264 L140 266 L141 278 L144 280 L148 288 L152 291 L155 299 L157 300 L158 310 L160 312 L159 323 L157 322 L154 309 L148 301 L148 299 L136 286 L136 284 L128 274 L125 257 L127 255 L128 248 L131 245 L131 243 L135 239 Z M92 205 L94 206 L95 223 L97 225 L98 232 L100 233 L101 241 L103 242 L111 261 L114 263 L120 274 L124 277 L131 288 L138 294 L138 296 L147 306 L148 312 L150 313 L152 326 L154 327 L153 348 L151 347 L150 330 L144 315 L131 301 L124 297 L123 291 L114 283 L108 269 L104 271 L102 279 L95 287 L94 291 L91 291 Z M137 148 L138 161 L135 168 L140 168 L144 172 L145 189 L139 198 L130 200 L126 199 L121 194 L121 188 L125 184 L133 185 L131 179 L122 179 L117 184 L112 196 L110 209 L111 235 L113 236 L112 240 L115 247 L115 251 L113 252 L108 244 L106 234 L104 233 L101 224 L100 211 L98 210 L98 196 L100 195 L101 183 L111 166 L119 158 Z M100 38 L103 42 L102 50 L107 61 L107 69 L101 77 L101 85 L104 85 L106 80 L110 78 L121 92 L125 105 L125 123 L117 147 L95 184 L94 200 L92 201 L91 130 L88 127 L86 116 L89 115 L101 125 L104 132 L103 144 L107 142 L111 132 L110 107 L91 88 L87 76 L91 55 Z"/></svg>
