<svg xmlns="http://www.w3.org/2000/svg" width="512" height="512" viewBox="0 0 512 512" aria-hidden="true" focusable="false"><path fill="currentColor" fill-rule="evenodd" clip-rule="evenodd" d="M349 245 L345 247 L343 250 L344 255 L343 263 L344 265 L347 266 L355 266 L359 263 L364 256 L356 247 Z M160 245 L153 249 L149 257 L157 266 L162 268 L168 265 L169 249 L163 245 Z M250 234 L244 237 L236 245 L233 254 L234 264 L244 276 L251 279 L261 279 L271 274 L277 267 L279 262 L279 251 L275 243 L267 236 L262 234 Z M248 244 L258 242 L263 244 L269 250 L271 254 L271 259 L263 269 L252 270 L247 267 L242 261 L241 258 L242 252 Z M243 222 L223 238 L218 252 L219 267 L227 280 L241 290 L248 292 L271 290 L280 285 L293 268 L293 246 L288 236 L272 223 Z M248 228 L265 228 L274 233 L285 248 L286 262 L283 270 L274 280 L263 285 L248 285 L240 281 L228 268 L225 258 L230 242 L240 232 Z M255 19 L249 37 L225 69 L218 91 L209 88 L198 110 L196 128 L200 139 L174 135 L144 148 L136 144 L132 153 L131 176 L147 193 L169 190 L174 183 L173 169 L186 162 L201 166 L216 179 L221 203 L200 184 L187 184 L170 192 L169 221 L179 234 L190 239 L189 243 L161 231 L151 207 L141 197 L118 193 L86 208 L90 217 L69 222 L17 257 L30 261 L68 290 L89 296 L86 305 L119 320 L142 315 L152 304 L158 285 L188 269 L190 274 L180 277 L170 289 L169 320 L146 320 L135 330 L130 343 L136 368 L144 364 L162 375 L200 374 L196 385 L198 403 L210 424 L218 422 L225 444 L257 494 L264 475 L288 443 L294 422 L303 424 L315 401 L313 374 L345 376 L369 364 L375 368 L382 354 L381 336 L372 324 L362 319 L344 322 L340 317 L344 293 L338 282 L322 274 L325 269 L354 284 L369 314 L393 320 L426 305 L423 296 L444 290 L482 261 L496 256 L478 249 L445 223 L423 217 L427 208 L395 193 L370 198 L362 206 L356 225 L325 244 L322 239 L338 231 L344 220 L340 196 L344 191 L362 194 L373 188 L381 177 L382 159 L375 145 L369 149 L355 139 L338 135 L313 139 L316 116 L304 88 L294 91 L288 70 Z M226 406 L229 407 L229 416 L235 429 L255 453 L255 457 L257 457 L258 452 L263 444 L277 430 L283 419 L284 407 L288 407 L290 415 L288 431 L282 444 L275 451 L257 477 L252 473 L251 469 L235 450 L233 445 L230 443 L227 434 L225 433 L223 426 L223 413 Z M235 402 L238 404 L238 410 L242 420 L250 427 L250 429 L255 434 L255 436 L257 436 L262 428 L272 418 L274 413 L275 403 L277 402 L279 404 L279 416 L274 426 L268 431 L268 433 L257 445 L253 444 L250 438 L240 428 L238 423 L236 422 L233 412 Z M245 393 L249 396 L255 407 L257 407 L260 404 L260 402 L262 401 L266 393 L271 398 L272 402 L271 411 L269 412 L266 419 L257 428 L253 426 L245 417 L244 413 L242 412 L241 400 Z M322 364 L330 363 L331 365 L323 366 Z M182 364 L189 363 L190 365 L183 366 Z M193 363 L196 362 L197 364 L194 365 Z M306 359 L308 358 L311 360 L314 360 L315 362 L318 362 L319 364 L315 365 L312 363 L309 363 L306 361 Z M207 359 L207 361 L204 363 L200 364 L198 363 L199 360 L205 358 Z M300 356 L302 355 L306 359 L304 360 Z M214 353 L215 355 L208 360 L207 358 Z M266 352 L269 358 L271 359 L271 365 L268 371 L258 381 L255 382 L245 372 L244 368 L242 367 L242 358 L246 353 L248 353 L256 362 Z M221 347 L222 350 L217 353 L216 351 Z M288 345 L290 344 L299 354 L297 355 L293 352 Z M222 344 L224 343 L225 345 L223 346 Z M278 342 L282 344 L287 353 L306 371 L310 379 L311 396 L305 410 L302 413 L298 412 L290 402 L277 397 L271 390 L271 385 L269 384 L271 381 L273 381 L278 387 L284 390 L290 389 L296 384 L296 373 L292 369 L284 369 L282 373 L284 379 L286 379 L288 374 L291 376 L291 381 L288 384 L284 384 L278 379 L277 360 L271 350 L271 348 Z M234 342 L242 349 L236 357 L235 378 L229 384 L225 384 L220 379 L220 377 L225 374 L229 378 L230 370 L221 369 L218 370 L215 376 L215 380 L219 386 L226 390 L232 389 L239 382 L242 383 L242 388 L236 397 L221 403 L211 414 L203 401 L201 393 L203 377 L205 376 L206 372 L218 360 L222 358 L222 356 L230 347 L231 343 Z M285 341 L287 340 L289 343 L287 344 Z M227 338 L228 341 L225 343 L224 341 Z M286 327 L287 326 L289 327 L296 341 L311 352 L318 354 L332 354 L343 348 L344 345 L349 346 L348 350 L339 357 L333 359 L315 358 L303 352 L291 340 Z M227 327 L222 339 L219 341 L218 344 L210 351 L199 357 L192 359 L180 359 L172 357 L170 354 L165 351 L164 346 L167 345 L174 352 L180 354 L193 354 L201 352 L204 349 L209 347 L218 338 L225 326 Z M369 327 L375 335 L377 341 L376 357 L375 358 L370 357 L368 360 L366 360 L365 362 L353 369 L345 371 L336 371 L335 370 L336 368 L341 367 L342 365 L344 365 L351 359 L355 352 L355 345 L359 342 L359 334 L354 330 L351 330 L348 332 L348 337 L353 336 L354 340 L352 342 L345 341 L343 338 L344 329 L351 324 L362 324 Z M144 327 L150 324 L161 324 L168 328 L170 336 L166 342 L161 342 L158 339 L160 336 L165 337 L164 332 L158 330 L153 335 L153 341 L157 345 L157 351 L159 356 L168 365 L173 368 L176 368 L177 369 L176 371 L168 371 L160 369 L150 364 L142 357 L139 358 L137 357 L135 350 L136 339 Z M230 323 L231 319 L234 316 L244 315 L246 317 L245 321 L246 330 L256 340 L266 331 L267 328 L266 318 L269 315 L279 316 L282 320 L282 326 L280 328 L278 335 L256 354 L234 334 L233 330 L231 329 Z M290 312 L293 310 L296 317 L304 325 L312 329 L325 329 L327 327 L332 326 L342 321 L343 323 L340 325 L338 330 L338 338 L340 343 L335 348 L331 349 L319 349 L312 347 L306 342 L304 342 L300 338 L299 335 L296 333 L293 323 L290 318 Z M223 312 L222 320 L220 322 L216 334 L204 345 L194 349 L181 349 L176 347 L173 344 L174 329 L173 326 L171 325 L172 323 L178 324 L187 329 L200 329 L210 324 L216 318 L220 310 Z M246 304 L248 301 L265 301 L266 310 L262 314 L253 315 L247 312 Z M313 296 L316 299 L316 303 L312 307 L307 307 L306 305 L303 304 L305 301 L307 301 L310 297 Z M284 294 L290 301 L289 306 L285 310 L282 311 L273 311 L269 304 L269 300 L271 298 L278 297 L281 294 Z M228 294 L234 297 L240 298 L242 300 L242 307 L238 311 L230 311 L224 307 L223 300 Z M198 295 L200 294 L201 297 L209 304 L206 305 L205 307 L201 307 L196 303 Z M359 283 L361 282 L362 284 L360 285 Z M150 283 L152 282 L153 284 L151 285 Z M194 281 L198 282 L199 292 L198 294 L194 293 L191 290 L191 284 Z M326 280 L331 282 L337 289 L340 300 L339 308 L336 313 L333 313 L334 317 L333 320 L325 324 L312 324 L304 319 L297 309 L300 308 L307 312 L314 312 L321 306 L321 296 L326 291 L326 284 L324 282 Z M316 280 L321 283 L321 290 L318 293 L314 294 L313 293 L315 289 L314 281 Z M183 281 L186 280 L188 281 L186 285 L187 293 L191 296 L191 305 L194 309 L198 312 L206 312 L214 307 L216 308 L211 317 L200 324 L187 324 L180 320 L179 314 L175 312 L173 306 L173 296 L176 288 Z M305 277 L310 283 L308 292 L303 297 L293 298 L289 290 L301 276 Z M209 276 L211 276 L213 280 L217 283 L217 285 L220 286 L224 290 L222 295 L218 298 L209 297 L203 290 L203 282 Z M364 291 L369 283 L373 281 L380 281 L383 283 L386 290 L382 293 L379 293 L379 287 L375 287 L372 291 L372 294 L378 299 L385 298 L390 292 L390 283 L385 277 L381 276 L380 273 L383 270 L391 271 L400 280 L400 283 L405 293 L416 303 L400 313 L384 315 L377 313 L368 307 L365 301 Z M129 270 L132 275 L125 279 L121 285 L121 290 L126 298 L137 298 L140 295 L140 290 L137 287 L134 287 L135 292 L129 293 L127 288 L131 282 L140 281 L144 283 L147 287 L148 300 L144 307 L133 314 L120 315 L111 313 L110 311 L104 309 L97 302 L108 292 L113 279 L120 272 Z M405 239 L409 239 L411 241 L419 243 L433 256 L419 270 L409 272 L408 274 L406 272 L401 272 L393 268 L395 265 L410 258 L410 255 L408 255 L400 249 L393 246 L397 242 L403 241 Z M103 239 L106 239 L107 241 L112 241 L120 245 L119 247 L114 248 L106 254 L102 255 L102 258 L108 260 L111 263 L119 267 L116 270 L105 273 L93 270 L79 257 L93 243 L101 241 Z M311 237 L315 238 L317 242 L319 243 L319 252 L317 254 L317 258 L319 261 L319 268 L314 275 L308 275 L304 272 L306 265 L306 248 L304 241 Z M200 237 L205 238 L208 241 L206 250 L206 263 L208 272 L201 276 L198 275 L195 272 L194 268 L192 267 L192 262 L196 258 L196 255 L192 251 L192 246 L194 245 L194 242 Z M324 251 L335 247 L348 237 L360 236 L367 239 L382 257 L365 275 L352 277 L346 275 L332 264 L325 263 L323 258 Z M130 256 L138 245 L147 238 L161 236 L165 237 L179 248 L185 249 L190 257 L186 263 L177 266 L166 275 L161 277 L153 277 L142 271 Z M404 234 L407 232 L421 233 L430 238 L450 257 L445 260 L428 276 L416 281 L405 280 L404 279 L405 276 L415 276 L419 274 L425 269 L427 269 L433 261 L440 258 L441 256 L436 254 L426 243 L416 237 L405 236 Z M63 256 L85 236 L94 232 L105 232 L108 234 L107 236 L96 237 L91 239 L88 243 L86 243 L71 257 L78 260 L87 270 L97 276 L108 276 L109 278 L103 281 L92 280 L81 274 Z M359 229 L361 228 L362 230 L360 231 Z M150 229 L153 228 L154 230 L151 231 Z M408 225 L412 222 L427 222 L429 224 L439 226 L451 233 L454 237 L456 237 L480 257 L442 285 L428 289 L426 291 L413 291 L408 287 L409 285 L419 285 L421 283 L427 282 L437 275 L452 260 L460 258 L460 255 L451 252 L429 232 L420 228 L409 227 Z M32 256 L38 253 L55 238 L71 227 L84 222 L100 222 L104 225 L103 227 L91 228 L90 230 L82 232 L67 247 L59 253 L52 255 L52 258 L59 260 L75 275 L84 281 L93 285 L103 285 L104 288 L98 291 L86 291 L84 289 L74 287 L62 280 L54 272 L52 272 Z M314 219 L321 222 L321 229 L317 232 L315 231 L315 224 L313 222 Z M198 219 L199 220 L198 231 L194 232 L192 230 L191 223 L194 220 Z M231 222 L249 216 L268 217 L281 222 L294 233 L301 246 L302 262 L299 273 L288 286 L267 296 L252 297 L232 291 L217 278 L211 264 L211 249 L214 239 Z M293 215 L302 215 L307 219 L308 224 L310 226 L310 230 L303 237 L289 223 Z M218 215 L222 218 L223 223 L215 230 L213 235 L210 237 L203 231 L203 223 L210 215 Z M304 209 L307 206 L312 206 L316 209 L316 214 L312 217 Z M206 206 L209 210 L205 212 L199 219 L196 213 L196 210 L199 206 Z M240 202 L242 206 L242 211 L244 212 L243 214 L228 218 L223 213 L223 208 L227 203 L233 201 Z M273 202 L276 202 L279 200 L281 202 L284 202 L289 207 L289 213 L284 219 L279 216 L269 213 L269 209 Z M383 198 L402 200 L415 210 L405 220 L399 234 L390 242 L383 242 L379 239 L380 237 L383 237 L390 230 L390 220 L388 216 L383 214 L377 214 L372 219 L373 224 L378 226 L377 222 L380 219 L386 223 L384 228 L379 232 L373 232 L369 230 L364 222 L364 216 L367 207 L375 201 Z M247 201 L253 198 L260 198 L266 203 L266 210 L264 212 L248 212 L246 208 Z M100 206 L118 198 L134 199 L145 207 L148 213 L148 223 L144 230 L139 232 L133 232 L128 228 L128 221 L134 220 L134 226 L137 226 L140 223 L140 218 L135 214 L126 215 L121 222 L121 227 L123 228 L123 231 L132 238 L132 240 L130 242 L122 242 L113 234 L112 229 L105 217 L97 211 Z M308 190 L310 191 L312 189 L317 188 L326 189 L333 194 L333 200 L336 200 L338 202 L340 211 L339 219 L337 224 L334 226 L332 230 L326 233 L324 232 L326 229 L326 222 L321 216 L321 207 L314 201 L306 201 L299 205 L297 204 L301 196 L304 193 L306 193 Z M201 189 L211 196 L216 205 L214 206 L206 201 L198 201 L195 203 L191 208 L191 217 L187 220 L186 223 L187 231 L186 232 L182 231 L176 225 L173 217 L173 207 L175 201 L179 199 L179 194 L187 189 L193 188 Z M285 171 L287 170 L288 172 L286 173 Z M224 168 L228 172 L227 175 L225 174 L223 170 Z M288 167 L290 166 L291 168 L289 169 Z M340 169 L338 175 L338 183 L344 190 L343 192 L327 186 L325 184 L312 184 L310 186 L305 187 L300 191 L295 197 L293 203 L290 201 L290 195 L293 190 L296 180 L309 167 L318 164 L328 163 L335 165 Z M294 161 L295 163 L292 165 L291 163 Z M216 161 L217 160 L220 161 L224 167 L222 168 Z M231 184 L233 183 L234 179 L240 172 L255 159 L258 159 L262 165 L264 165 L278 178 L280 185 L282 187 L282 193 L280 195 L276 195 L274 197 L269 198 L266 195 L267 193 L266 182 L257 174 L257 172 L255 172 L253 177 L249 179 L249 181 L246 183 L245 187 L246 196 L244 198 L231 194 Z M304 155 L299 160 L296 159 L298 156 L302 154 Z M165 162 L172 156 L178 154 L198 155 L209 162 L211 162 L220 171 L227 186 L225 187 L218 175 L208 165 L202 161 L195 159 L180 159 L174 161 L167 168 L164 167 Z M207 154 L208 153 L211 154 L214 158 L212 159 Z M317 149 L316 151 L306 155 L304 154 L308 150 L311 150 L314 148 Z M330 148 L332 147 L333 149 L331 150 Z M319 148 L324 147 L325 149 L320 150 Z M179 148 L180 147 L199 148 L206 151 L207 154 L205 155 L199 151 L194 150 L180 150 Z M376 156 L376 175 L374 179 L364 188 L348 188 L343 181 L343 174 L346 171 L346 168 L344 168 L340 162 L333 159 L317 159 L309 162 L295 174 L289 186 L286 186 L290 174 L298 165 L300 165 L303 161 L310 157 L319 154 L338 155 L348 163 L350 171 L354 173 L353 177 L348 176 L348 181 L356 182 L359 179 L359 171 L355 166 L355 160 L352 155 L342 146 L331 144 L329 142 L330 140 L339 140 L341 142 L351 143 L369 153 L370 156 Z M181 140 L182 142 L180 144 L172 145 L166 150 L164 150 L158 159 L157 168 L153 172 L154 179 L157 182 L163 182 L165 177 L160 177 L158 174 L161 171 L166 171 L170 175 L170 180 L168 185 L160 189 L151 189 L144 186 L136 174 L135 163 L138 155 L143 156 L144 153 L159 144 L171 142 L173 140 Z M255 131 L258 132 L262 137 L266 139 L271 148 L271 154 L269 155 L267 160 L264 160 L262 156 L258 153 L257 150 L255 150 L255 152 L252 154 L252 156 L248 160 L246 160 L242 155 L242 146 L244 145 L245 141 Z M302 100 L305 103 L311 117 L310 134 L307 140 L285 161 L282 169 L278 170 L271 164 L276 156 L278 149 L278 134 L283 129 L288 129 L291 132 L291 137 L289 139 L287 138 L286 134 L284 134 L282 137 L282 140 L285 144 L293 143 L298 134 L296 129 L288 123 L280 124 L272 132 L271 123 L275 117 L291 110 L298 101 Z M211 99 L220 109 L236 116 L242 125 L242 130 L239 131 L232 124 L225 123 L219 126 L215 132 L215 137 L221 144 L228 144 L230 142 L229 134 L227 134 L225 139 L220 136 L224 129 L229 129 L235 135 L235 151 L242 164 L234 171 L231 170 L225 159 L207 142 L203 136 L201 127 L202 114 Z M255 85 L257 85 L269 98 L269 101 L271 102 L272 111 L271 115 L269 116 L267 120 L265 119 L265 117 L257 105 L255 105 L246 120 L244 119 L241 113 L242 101 L244 100 L245 96 Z M254 68 L257 68 L271 83 L274 89 L277 91 L279 97 L279 109 L278 110 L275 108 L272 95 L262 85 L257 77 L255 77 L253 81 L246 88 L245 91 L242 93 L239 99 L238 108 L236 111 L234 110 L233 100 L235 92 L238 90 L240 85 L249 76 Z M255 36 L260 39 L264 47 L277 62 L288 82 L290 98 L286 107 L284 106 L282 91 L273 78 L263 69 L258 61 L257 56 L255 56 L255 60 L252 62 L251 66 L236 82 L229 95 L229 106 L226 107 L224 104 L223 87 L225 80 L227 79 L234 64 L250 45 Z"/></svg>
