<svg xmlns="http://www.w3.org/2000/svg" width="512" height="512" viewBox="0 0 512 512" aria-hidden="true" focusable="false"><path fill="currentColor" fill-rule="evenodd" clip-rule="evenodd" d="M72 473 L67 475 L68 478 Z M350 437 L354 461 L367 472 L363 474 L361 472 L348 473 L354 482 L361 485 L372 484 L375 481 L383 487 L393 487 L395 484 L386 484 L389 476 L396 477 L399 482 L401 469 L397 464 L390 465 L391 468 L393 466 L396 468 L395 472 L392 473 L388 470 L387 474 L384 474 L382 468 L384 458 L379 454 L380 449 L384 450 L388 460 L396 455 L405 466 L412 463 L410 454 L425 459 L425 462 L417 466 L417 470 L419 472 L422 468 L430 470 L425 478 L428 486 L432 486 L436 479 L470 487 L482 485 L491 479 L473 478 L474 468 L469 469 L465 478 L459 476 L462 472 L460 466 L454 473 L447 463 L455 460 L457 464 L462 457 L457 454 L456 450 L443 447 L429 434 L427 434 L429 445 L425 445 L416 438 L414 443 L394 442 L373 452 L360 450 L362 456 L355 451 L357 446 L353 435 L351 434 Z M368 477 L369 479 L365 483 L363 483 L362 479 Z M353 478 L359 477 L360 479 L357 481 L354 480 Z M429 476 L431 477 L430 484 L427 482 L427 478 Z M396 475 L398 474 L399 476 L397 477 Z M371 474 L374 475 L374 478 L372 480 L368 477 Z M431 474 L437 473 L438 476 L432 477 Z M376 471 L380 470 L382 474 L385 476 L383 481 L380 482 L378 481 L380 477 L375 473 Z M369 469 L371 468 L372 470 L370 471 Z M432 467 L434 466 L435 468 L433 469 Z M363 464 L366 463 L368 466 L364 467 Z M436 463 L439 462 L440 466 L442 466 L444 469 L447 469 L450 472 L450 474 L446 475 L440 470 L436 471 L435 470 L437 468 Z M372 459 L374 460 L373 464 L371 463 Z M356 460 L359 458 L363 459 L363 461 L359 463 Z M364 455 L371 454 L372 456 L365 457 Z M454 454 L456 453 L457 456 L455 457 Z M395 452 L391 456 L388 455 L392 451 Z M404 450 L407 453 L405 455 L405 459 L408 462 L407 464 L405 464 L401 460 L400 456 Z M409 450 L412 449 L413 451 L410 452 Z M384 449 L387 446 L389 447 L386 450 Z M418 446 L421 445 L423 447 L426 447 L430 451 L431 457 L429 458 L426 455 L426 452 L421 453 L418 449 Z M389 446 L391 445 L392 447 L390 448 Z M433 443 L436 442 L440 446 L440 448 L437 449 L438 454 L442 454 L442 451 L444 449 L447 449 L449 452 L452 453 L451 456 L445 455 L441 460 L438 458 L434 458 L432 454 L432 449 L434 448 Z M86 404 L86 406 L90 406 L89 404 Z M187 373 L169 400 L167 416 L163 416 L162 409 L146 443 L148 456 L153 463 L151 466 L162 476 L162 482 L169 488 L176 480 L179 483 L176 489 L184 496 L195 488 L193 481 L196 480 L202 488 L209 482 L209 476 L219 466 L225 446 L222 432 L215 425 L211 412 L208 410 L208 414 L203 416 L203 402 L191 386 Z M183 484 L190 487 L186 493 L183 491 L184 489 L182 487 Z M191 478 L193 479 L192 482 L189 481 Z M165 477 L168 478 L167 483 L164 481 Z M202 475 L205 475 L207 478 L207 481 L205 483 L203 482 L203 478 L201 477 Z M169 472 L171 471 L172 474 L170 475 Z M206 470 L209 469 L210 472 L207 473 Z M179 470 L181 469 L182 472 L180 473 Z M161 470 L163 469 L164 472 L162 473 Z M210 463 L213 460 L216 461 L213 464 Z M182 462 L184 459 L187 459 L189 464 L187 466 L183 466 Z M155 460 L157 459 L160 463 L159 464 L156 463 Z M161 459 L163 458 L165 462 L163 463 Z M214 457 L217 456 L218 458 L215 459 Z M180 457 L182 456 L183 458 L181 459 Z M152 457 L156 456 L157 458 L153 459 Z M204 455 L205 456 L204 461 L200 463 L199 462 L200 456 Z M166 455 L171 456 L172 461 L171 464 L168 463 L165 457 Z M175 457 L177 453 L180 454 L179 457 L177 458 Z M187 449 L189 448 L190 450 L188 451 Z M180 449 L182 448 L183 450 L181 451 Z M152 447 L154 448 L153 452 L151 451 Z M193 443 L195 443 L198 446 L201 445 L203 446 L202 449 L200 450 L199 455 L196 452 L196 448 L192 447 Z M183 441 L185 440 L188 445 L184 446 Z M216 440 L220 439 L221 442 L217 443 Z M209 440 L211 439 L212 441 L210 442 Z M150 442 L151 439 L154 440 L152 443 Z M160 438 L162 437 L163 439 L161 440 Z M201 436 L204 436 L206 440 L209 442 L210 447 L209 450 L206 448 L206 444 L204 444 L203 440 L200 438 Z M182 436 L183 440 L179 443 L178 438 Z M167 436 L171 437 L167 441 L167 443 L170 445 L175 445 L177 443 L179 444 L178 447 L175 448 L175 451 L172 456 L170 455 L171 450 L166 445 L164 445 L164 450 L163 451 L161 450 L161 445 Z M215 431 L217 432 L216 437 L214 436 Z M171 430 L174 429 L175 431 L172 432 Z M191 428 L193 429 L193 442 L192 443 L187 438 L187 434 L184 433 L185 431 Z M180 429 L184 428 L185 430 L181 431 Z M176 426 L179 425 L180 428 L177 429 Z M153 435 L154 432 L157 431 L158 425 L161 426 L164 425 L165 428 L168 429 L167 432 L160 433 L155 436 Z M202 428 L205 427 L206 423 L208 424 L209 427 L212 426 L214 427 L213 431 L208 433 L205 432 Z M200 422 L201 423 L200 431 L197 432 L196 425 Z M168 421 L170 420 L176 425 L171 426 Z M161 419 L163 418 L165 421 L163 422 Z M176 415 L182 412 L185 418 L183 419 L181 416 L177 418 Z M169 413 L171 412 L172 414 L170 415 Z M198 409 L200 408 L201 410 L199 411 Z M171 407 L173 406 L174 408 L172 409 Z M186 406 L188 405 L190 409 L188 410 Z M194 397 L196 398 L196 401 L198 402 L197 406 L190 404 L191 399 Z M189 387 L190 388 L189 392 L191 392 L192 395 L190 396 L188 394 L185 394 L182 399 L179 399 L178 396 L182 394 L182 391 L180 389 Z M186 380 L187 383 L184 385 L183 382 Z M285 361 L264 384 L265 391 L256 393 L255 399 L251 398 L246 410 L250 442 L254 448 L249 486 L252 481 L256 482 L255 494 L267 490 L284 496 L303 490 L317 494 L324 485 L319 445 L327 410 L321 398 L309 392 L309 386 L301 378 L301 388 L295 379 L289 379 L298 375 Z M282 490 L287 488 L290 490 L290 492 L283 493 Z M318 481 L322 483 L320 488 L318 487 L317 484 Z M254 471 L256 472 L255 476 L253 475 Z M256 448 L258 449 L258 468 L257 469 L255 468 L255 449 Z M253 438 L254 435 L257 436 L255 439 Z M250 430 L252 429 L253 431 L251 432 Z M250 422 L252 421 L253 424 L251 425 Z M249 413 L253 412 L256 415 L258 419 L258 422 L256 425 L254 424 L254 417 L253 416 L250 417 L248 415 Z M250 407 L252 406 L253 408 L251 409 Z M312 406 L314 405 L315 407 L313 408 Z M258 405 L259 406 L258 411 L256 412 L254 407 Z M310 400 L312 399 L313 401 L311 402 Z M257 401 L261 399 L263 404 L261 405 Z M285 398 L302 404 L310 417 L309 479 L303 483 L268 483 L262 477 L262 414 L266 412 L270 404 Z M264 399 L266 398 L267 400 L265 401 Z M309 394 L310 396 L306 399 L305 396 Z M301 394 L302 391 L305 392 L303 395 Z M267 392 L270 391 L271 393 L268 394 Z M297 391 L299 390 L300 392 L298 393 Z M280 390 L282 389 L283 391 L281 392 Z M276 386 L278 385 L279 387 L277 388 Z M270 381 L273 382 L275 386 L273 387 L272 385 L269 384 Z M275 375 L277 376 L276 382 L273 380 Z M284 373 L286 372 L287 374 L285 375 Z M280 370 L282 369 L283 372 L281 373 Z M284 365 L287 364 L288 367 L285 368 Z M82 361 L42 410 L41 483 L53 495 L112 495 L120 491 L124 484 L124 413 L107 388 L104 392 L108 405 L113 405 L119 414 L119 444 L96 436 L105 418 L100 399 L88 389 L78 389 L68 396 L65 411 L61 414 L71 439 L49 451 L60 448 L61 451 L76 455 L69 464 L74 465 L73 461 L79 461 L79 456 L84 458 L85 463 L71 484 L61 483 L62 476 L55 477 L64 467 L56 471 L52 464 L53 481 L59 483 L50 488 L46 482 L48 409 L58 405 L61 390 L67 386 L73 387 L78 382 L82 386 L88 384 L95 387 L100 382 Z M97 492 L99 491 L100 493 L98 494 Z M71 492 L73 491 L74 493 L72 494 Z M99 487 L101 486 L102 488 L100 489 Z M65 485 L67 486 L66 491 L63 490 Z M82 485 L84 484 L85 486 L83 487 Z M81 474 L83 473 L84 476 L82 477 Z M117 461 L119 462 L118 470 L115 469 Z M91 440 L92 441 L91 446 L88 447 L86 443 Z M62 447 L69 443 L73 444 L73 441 L76 440 L79 442 L83 442 L87 450 L82 451 L77 456 L76 452 L64 450 Z M96 439 L112 444 L114 446 L109 469 L105 471 L107 476 L103 478 L103 480 L110 481 L112 477 L112 473 L114 472 L115 477 L119 479 L118 485 L116 487 L110 484 L96 483 L91 481 L85 472 L87 465 L91 464 L89 460 L93 447 L95 444 L97 444 L97 442 L95 441 Z M92 412 L97 410 L98 415 L95 416 Z M69 409 L72 410 L71 415 L68 414 Z M78 391 L88 391 L93 393 L98 400 L98 402 L96 403 L95 409 L92 409 L91 411 L87 409 L88 417 L93 417 L98 419 L95 427 L92 428 L89 425 L89 423 L82 425 L79 422 L77 422 L78 426 L81 427 L88 426 L89 429 L88 430 L73 429 L73 431 L80 432 L81 435 L85 435 L86 432 L89 432 L90 430 L94 430 L95 431 L94 434 L86 440 L80 440 L75 437 L70 431 L70 425 L68 422 L69 417 L78 416 L78 409 L71 409 L70 406 L67 405 L68 398 L73 393 Z M67 381 L69 380 L70 383 L68 384 Z M77 373 L79 372 L80 374 L78 375 Z M454 301 L454 304 L456 304 L457 301 Z M339 273 L338 273 L335 292 L336 296 L338 296 L337 292 L340 276 Z M454 224 L433 240 L420 264 L414 294 L414 331 L417 338 L429 343 L481 343 L490 340 L495 331 L491 265 L479 241 Z M440 337 L441 336 L470 336 L471 338 L470 339 L441 339 Z M473 336 L479 335 L480 337 L474 338 Z M431 336 L435 335 L436 337 L432 338 Z M447 329 L452 328 L453 330 L455 330 L455 328 L457 327 L461 328 L464 332 L462 334 L453 334 L448 333 Z M433 329 L435 327 L442 328 L444 332 L440 334 L438 332 L434 332 Z M477 329 L476 332 L473 331 L470 334 L466 332 L467 328 L473 326 Z M423 327 L427 326 L431 329 L431 331 L428 332 L424 330 Z M486 325 L487 329 L480 332 L479 329 Z M488 318 L490 317 L491 320 L489 321 Z M463 315 L465 316 L464 320 L461 319 Z M488 308 L488 315 L483 320 L477 321 L476 319 L474 319 L474 321 L472 322 L471 319 L466 318 L468 316 L468 313 L474 309 L480 308 L482 306 Z M472 307 L471 309 L461 314 L458 313 L458 311 L462 307 L469 306 Z M422 310 L424 307 L428 306 L429 308 L440 309 L448 312 L452 311 L455 313 L455 316 L452 320 L448 320 L445 322 L442 321 L442 318 L433 319 L432 321 L429 321 L423 318 Z M436 276 L442 274 L445 275 L446 278 L448 278 L448 267 L454 266 L455 275 L445 298 L448 297 L455 281 L457 282 L462 295 L464 295 L457 278 L457 268 L462 267 L464 270 L463 277 L468 284 L470 283 L466 279 L466 275 L471 274 L476 277 L480 291 L479 299 L476 302 L468 300 L468 305 L460 305 L456 308 L450 305 L444 305 L443 300 L438 302 L434 301 L432 295 L436 294 L437 290 L441 287 L440 285 L434 292 L432 291 L433 283 Z M448 251 L449 250 L460 251 L464 254 L464 258 L463 259 L461 258 L448 259 L447 258 Z M441 235 L444 237 L450 232 L457 230 L465 236 L470 235 L476 241 L474 244 L483 258 L488 275 L491 298 L490 308 L480 302 L482 298 L480 282 L476 275 L469 270 L472 260 L470 259 L466 248 L457 240 L452 241 L451 245 L443 250 L442 256 L439 260 L442 271 L432 280 L429 292 L430 302 L422 307 L419 306 L420 289 L424 269 L431 252 L438 243 L436 240 Z M24 219 L17 241 L20 266 L27 280 L44 292 L33 300 L33 308 L51 322 L48 326 L43 324 L39 330 L47 338 L57 332 L58 338 L67 340 L69 345 L83 338 L84 332 L92 337 L99 334 L101 327 L98 324 L92 326 L89 322 L106 310 L108 301 L96 292 L113 280 L123 262 L125 235 L119 219 L113 236 L107 238 L104 248 L98 253 L99 261 L86 268 L85 253 L76 244 L71 227 L65 244 L56 253 L55 268 L42 260 L43 253 L37 248 L34 238 L29 237 Z M69 334 L72 336 L71 340 L68 337 Z M71 299 L74 298 L75 300 L72 301 Z M66 299 L68 298 L69 300 L67 301 Z M85 295 L87 294 L88 296 L86 297 Z M61 295 L66 294 L69 291 L72 291 L75 294 L79 294 L80 297 L78 299 L75 299 L74 296 L69 295 L66 298 L62 298 Z M75 289 L77 288 L78 291 L76 292 Z M62 289 L64 288 L65 291 L63 292 Z M45 286 L48 285 L50 287 L50 290 L47 291 Z M94 284 L95 288 L92 291 L89 291 L87 293 L86 289 L89 286 Z M94 283 L99 282 L100 285 L97 286 Z M41 285 L42 282 L45 283 L43 286 Z M47 280 L49 279 L50 281 L48 282 Z M91 279 L93 278 L94 281 L92 282 Z M94 278 L96 277 L97 279 L95 280 Z M43 278 L45 277 L46 279 L44 280 Z M32 277 L34 276 L35 279 L33 280 Z M86 270 L88 275 L84 276 L83 282 L79 283 L78 286 L74 286 L73 281 L78 279 L81 276 L83 270 Z M55 270 L58 270 L61 278 L66 280 L68 284 L67 286 L63 286 L62 284 L58 283 L57 277 L53 276 L53 273 Z M45 268 L48 267 L49 270 L46 271 Z M92 270 L93 267 L95 266 L98 267 L94 271 Z M111 266 L113 265 L114 267 L112 268 Z M114 265 L116 264 L117 266 L115 267 Z M24 265 L26 264 L27 266 L25 267 Z M40 262 L44 265 L43 269 L41 268 L39 264 Z M107 262 L109 261 L110 263 L108 264 Z M101 261 L102 264 L99 266 L98 264 Z M22 258 L25 257 L29 262 L26 263 L22 260 Z M19 256 L21 255 L22 257 L20 258 Z M20 247 L28 255 L27 258 L19 249 Z M121 239 L122 241 L118 248 L122 249 L119 253 L122 256 L118 261 L113 263 L112 261 L115 259 L113 257 L115 253 L113 251 L113 248 Z M20 237 L22 238 L25 244 L27 242 L31 243 L29 246 L27 246 L28 248 L27 250 L22 246 L19 239 Z M23 230 L25 231 L27 236 L26 238 L23 237 L22 234 Z M119 229 L120 233 L116 243 L114 244 L112 240 L117 230 Z M263 213 L262 217 L260 218 L251 232 L250 245 L253 248 L251 244 L252 235 L254 234 L254 230 L257 228 L259 223 L264 218 L269 223 L270 227 L273 229 L273 233 L275 235 L276 241 L274 248 L276 248 L278 244 L277 233 L273 225 L271 224 L271 222 L266 217 L265 213 Z M357 199 L335 224 L331 240 L321 251 L319 337 L323 343 L338 347 L384 346 L395 338 L394 254 L384 240 L380 224 Z M342 340 L343 339 L373 339 L374 341 L373 342 L343 342 Z M376 339 L382 338 L383 340 L377 341 Z M333 339 L338 338 L339 340 L334 341 Z M383 338 L386 337 L387 339 L384 340 Z M329 338 L331 337 L332 339 L330 340 Z M387 337 L389 336 L391 340 L389 341 Z M369 335 L372 334 L373 336 L370 337 Z M364 335 L366 334 L367 336 L365 337 Z M359 335 L361 334 L362 336 L360 337 Z M347 335 L350 334 L351 336 L348 337 Z M339 335 L344 334 L345 336 L340 337 Z M332 334 L334 333 L335 335 L333 336 Z M379 335 L380 333 L384 332 L388 333 L387 335 L383 336 Z M328 333 L330 332 L331 334 L329 335 Z M375 330 L379 329 L380 331 L376 332 Z M356 332 L357 329 L362 330 L359 333 Z M366 328 L369 330 L368 333 L364 331 Z M344 330 L348 328 L351 331 L346 333 Z M383 328 L386 327 L387 329 L384 330 Z M386 324 L389 323 L390 325 L387 326 Z M347 322 L349 321 L351 324 L348 325 Z M373 325 L374 321 L376 320 L380 321 L379 324 L375 326 Z M369 320 L370 321 L369 324 L365 325 L364 323 Z M353 322 L358 320 L362 322 L362 325 L357 326 Z M335 322 L339 320 L342 324 L337 325 Z M385 319 L386 322 L382 324 L381 321 Z M328 320 L330 319 L331 321 L329 322 Z M323 319 L325 318 L326 321 L324 322 Z M359 313 L361 312 L362 314 L360 315 Z M358 308 L360 307 L361 309 L359 310 Z M388 307 L391 306 L392 309 L389 310 Z M324 306 L326 307 L325 311 L323 310 Z M361 308 L362 305 L366 306 L363 309 Z M386 306 L386 311 L382 313 L380 312 L371 313 L370 315 L366 315 L364 313 L364 311 L368 308 L378 306 L379 304 L383 304 Z M328 308 L330 304 L333 304 L334 306 L342 305 L352 307 L355 310 L348 311 L347 313 L345 313 L344 311 L331 313 Z M347 301 L351 300 L352 302 L348 303 Z M367 291 L369 290 L370 292 L368 293 Z M352 288 L356 291 L355 299 L348 297 L349 291 Z M353 283 L355 282 L356 285 L354 286 Z M368 270 L374 272 L376 275 L378 294 L374 299 L370 297 L370 295 L373 293 L373 291 L370 289 L373 283 L372 275 L370 275 L368 284 L366 285 L364 283 Z M349 266 L351 265 L352 267 L350 268 Z M358 258 L362 257 L363 260 L361 261 Z M352 258 L355 257 L356 260 L354 261 Z M353 251 L359 250 L360 255 L356 256 Z M355 205 L359 208 L362 207 L366 211 L365 215 L371 221 L375 221 L374 225 L380 235 L380 245 L388 250 L388 305 L377 300 L379 296 L377 274 L373 269 L366 266 L367 250 L362 245 L359 232 L357 232 L355 241 L349 249 L350 264 L344 262 L343 247 L357 227 L362 230 L372 247 L371 262 L374 258 L373 245 L360 224 L359 218 L346 236 L340 251 L341 259 L346 266 L342 271 L356 266 L356 271 L359 273 L354 282 L350 284 L343 276 L342 293 L347 291 L346 301 L340 299 L330 302 L329 305 L326 304 L326 252 L328 249 L326 246 L336 244 L336 234 L342 224 L340 221 L345 220 L355 210 L353 208 Z M263 199 L243 223 L230 254 L232 344 L241 349 L287 349 L295 345 L298 337 L298 255 L289 242 L286 225 Z M267 336 L271 334 L274 335 L273 338 L268 338 Z M262 335 L265 334 L266 336 L263 337 Z M256 335 L258 334 L260 337 L257 338 Z M267 326 L269 325 L270 327 L268 328 Z M260 323 L262 324 L261 328 L259 327 Z M273 313 L276 312 L277 316 L275 317 Z M278 311 L280 310 L281 312 L279 313 Z M249 310 L251 309 L252 311 L250 312 Z M254 308 L256 309 L255 317 L253 316 Z M277 308 L279 307 L280 309 L278 310 Z M272 277 L273 278 L273 294 L271 303 L273 304 L275 302 L276 305 L273 307 L271 312 L269 313 L267 311 L266 306 L268 279 Z M277 273 L279 274 L278 280 L276 279 Z M248 271 L250 270 L252 274 L249 275 Z M276 265 L278 266 L277 270 L275 269 Z M274 254 L277 257 L276 260 L272 259 Z M258 252 L262 252 L263 254 L266 255 L266 258 L264 260 L265 270 L264 314 L262 317 L257 315 L257 299 L255 293 L256 287 L255 283 L257 277 L257 271 L260 268 L260 266 L256 263 L255 259 L252 258 L252 256 Z M262 238 L265 237 L266 239 L263 240 Z M263 208 L276 215 L274 218 L284 235 L283 246 L293 248 L291 250 L292 339 L288 343 L283 342 L282 331 L271 326 L272 322 L280 319 L284 314 L280 302 L283 283 L279 257 L270 249 L271 236 L264 223 L257 236 L258 249 L246 262 L247 275 L254 277 L246 314 L258 325 L247 331 L248 338 L244 343 L236 340 L236 252 L244 246 L244 234 L251 221 L250 217 L255 216 Z M173 199 L164 226 L165 234 L162 235 L166 242 L159 247 L161 254 L148 266 L141 261 L147 291 L136 286 L140 307 L146 311 L158 309 L156 315 L138 323 L151 333 L153 339 L160 338 L175 347 L181 341 L196 339 L197 333 L211 323 L191 314 L189 310 L193 307 L203 311 L209 307 L212 286 L201 291 L208 261 L200 267 L187 254 L189 247 L182 242 L186 236 L183 234 L184 226 Z M164 334 L166 333 L167 335 L165 336 Z M188 330 L190 329 L191 332 L189 333 Z M156 330 L158 329 L159 332 L157 333 Z M194 325 L196 324 L197 326 L195 327 Z M149 324 L152 323 L154 326 L151 327 Z M189 321 L191 320 L192 323 L190 324 Z M188 314 L188 319 L186 320 L186 322 L178 325 L176 324 L176 322 L174 322 L172 325 L169 325 L164 323 L162 320 L163 317 L167 316 L168 313 L171 313 L173 315 L180 313 L181 316 L183 316 L185 312 Z M162 313 L164 312 L165 315 L163 316 Z M168 304 L170 305 L169 308 L166 307 Z M178 304 L180 303 L181 306 L179 307 Z M205 301 L207 300 L208 302 L206 303 Z M205 294 L207 293 L208 295 L206 296 Z M157 296 L158 293 L161 294 L159 297 Z M138 293 L140 292 L141 294 L139 295 Z M158 289 L160 288 L161 290 L159 291 Z M193 285 L194 288 L191 291 L189 291 L188 288 Z M172 285 L175 284 L177 288 L173 290 Z M183 276 L185 275 L186 277 L184 278 Z M165 276 L164 278 L160 280 L158 279 L159 277 L163 275 Z M172 275 L175 274 L176 277 L173 278 Z M199 271 L202 270 L203 272 L200 273 Z M175 271 L178 269 L189 271 L190 273 L182 274 L179 277 Z M172 271 L169 276 L164 273 L160 275 L157 274 L161 270 L170 269 Z M191 267 L193 266 L194 268 L192 269 Z M181 264 L183 263 L184 265 L182 266 Z M166 264 L168 263 L169 265 L167 266 Z M170 262 L172 261 L175 264 L173 265 Z M172 258 L174 257 L175 259 L173 260 Z M158 259 L160 257 L163 258 L162 261 L159 261 Z M175 254 L177 253 L178 255 L188 257 L190 260 L189 261 L180 260 L175 257 Z M173 254 L172 257 L168 260 L163 258 L166 254 L170 253 Z M175 223 L179 222 L180 224 L176 225 Z M172 222 L173 225 L168 227 L167 225 L170 222 Z M206 155 L208 162 L216 161 L215 154 Z M194 154 L192 156 L193 161 L199 162 L201 160 L201 155 Z M177 156 L178 161 L180 162 L186 161 L186 154 L179 154 Z M162 156 L164 162 L172 161 L171 154 L164 154 Z M150 154 L148 156 L149 161 L155 162 L157 160 L157 154 Z M263 145 L260 146 L255 151 L254 160 L259 167 L263 169 L267 169 L272 167 L276 162 L276 152 L272 147 Z M262 159 L267 158 L268 160 L263 161 Z M264 154 L267 153 L268 155 L265 156 Z M263 148 L268 148 L273 152 L274 156 L273 162 L268 166 L262 166 L257 162 L259 160 L262 163 L267 163 L267 161 L270 160 L271 158 L269 152 L261 151 Z M206 145 L208 150 L216 149 L215 143 L208 143 Z M210 145 L212 144 L213 147 L211 148 Z M177 144 L178 150 L187 149 L187 144 L185 143 Z M247 136 L248 141 L251 143 L255 143 L264 139 L267 139 L275 143 L279 143 L283 140 L283 135 L280 132 L274 132 L268 135 L264 135 L259 132 L251 132 Z M270 136 L278 133 L281 136 L281 139 L279 141 L275 141 L271 139 Z M249 136 L253 133 L257 133 L261 136 L261 138 L258 140 L252 141 L249 138 Z M207 132 L206 136 L207 138 L216 137 L215 131 Z M193 131 L192 132 L193 138 L192 149 L200 150 L202 148 L200 142 L201 132 Z M195 146 L197 145 L198 147 L196 148 Z M177 132 L178 138 L187 137 L187 132 L185 131 Z M181 133 L183 132 L184 135 L182 136 Z M163 131 L162 137 L168 138 L169 141 L162 145 L162 149 L171 150 L172 149 L171 132 Z M149 131 L148 132 L149 143 L147 148 L149 150 L156 150 L157 149 L156 143 L157 131 Z M85 126 L86 130 L85 133 L94 132 L93 129 L94 126 Z M249 118 L249 123 L253 127 L261 127 L266 124 L272 127 L277 127 L281 124 L281 118 L278 115 L273 115 L267 119 L260 113 L253 113 Z M269 121 L274 117 L277 117 L279 119 L279 123 L277 125 L272 125 Z M251 118 L255 115 L258 115 L264 120 L264 122 L256 126 L251 122 Z M211 53 L211 78 L209 83 L208 104 L207 107 L209 108 L207 120 L209 120 L210 122 L207 125 L214 127 L217 123 L216 118 L217 108 L216 107 L216 88 L213 72 L213 53 Z M210 121 L214 120 L215 123 L213 124 Z M153 53 L151 54 L151 77 L149 84 L150 91 L148 93 L149 98 L147 106 L150 109 L148 111 L149 116 L147 117 L147 119 L150 121 L147 124 L148 126 L151 125 L155 126 L157 123 L156 88 L153 74 Z M151 121 L154 120 L155 123 L153 124 Z M151 109 L153 108 L154 110 L152 111 Z M199 47 L197 47 L197 75 L195 79 L195 86 L197 88 L194 89 L194 102 L192 105 L193 107 L196 108 L199 107 L200 109 L197 112 L195 110 L192 111 L193 114 L192 118 L194 120 L192 123 L193 126 L194 125 L200 126 L203 123 L202 85 L199 69 L199 54 L200 53 Z M198 121 L200 120 L201 122 L199 123 Z M198 114 L200 113 L201 115 L199 116 Z M167 46 L165 47 L165 70 L163 79 L164 88 L162 89 L163 103 L161 105 L163 107 L168 107 L169 109 L167 111 L162 110 L163 113 L161 116 L163 120 L161 123 L162 126 L165 125 L170 126 L172 123 L171 90 L167 71 L168 69 Z M347 36 L334 62 L328 63 L329 71 L325 76 L320 74 L320 65 L315 72 L313 68 L307 72 L311 88 L307 91 L305 106 L315 129 L306 136 L305 158 L308 167 L319 170 L362 171 L363 166 L366 170 L382 169 L390 160 L387 148 L390 138 L382 122 L391 110 L390 81 L384 78 L377 81 L375 90 L381 94 L377 106 L366 91 L372 83 L366 71 L368 64 L362 63 L359 51 Z M354 167 L356 166 L357 168 L355 169 Z M339 167 L342 166 L343 168 L340 169 Z M373 166 L376 165 L377 167 L374 168 Z M319 166 L321 165 L322 167 L320 168 Z M342 159 L344 157 L346 157 L349 160 L354 158 L355 163 L350 164 L348 162 L343 161 Z M333 158 L336 157 L339 160 L339 163 L334 164 Z M386 156 L388 157 L387 161 L385 160 Z M378 157 L382 156 L384 160 L379 162 Z M375 156 L377 160 L375 162 L370 163 L369 158 Z M364 156 L367 159 L367 162 L365 164 L362 163 L359 165 L358 159 Z M322 156 L327 158 L326 163 L320 161 L320 158 Z M312 157 L317 156 L318 160 L313 161 Z M307 156 L309 155 L310 158 L308 159 Z M357 153 L361 152 L362 154 L358 155 Z M317 148 L320 147 L321 149 L318 150 Z M367 146 L370 145 L372 148 L369 149 Z M357 144 L361 143 L362 146 L359 147 Z M345 146 L346 140 L348 139 L355 140 L351 147 Z M361 139 L364 138 L367 140 L367 142 L363 144 Z M346 134 L348 133 L349 135 L347 136 Z M383 132 L387 136 L388 139 L386 141 L387 145 L384 148 L376 149 L374 144 L369 144 L367 142 L368 140 L371 141 L369 139 L370 137 L368 135 L369 133 Z M358 133 L360 132 L361 134 L359 135 Z M308 137 L312 132 L317 131 L333 136 L340 142 L338 147 L335 150 L333 150 L331 147 L327 148 L325 145 L320 146 L316 144 L315 148 L313 149 L310 146 L311 143 Z M342 130 L345 128 L347 129 L346 132 L343 132 Z M375 126 L378 127 L377 132 L374 131 Z M316 124 L318 123 L322 127 L319 128 Z M376 123 L378 122 L379 124 L377 125 Z M368 115 L375 114 L376 117 L370 121 Z M378 110 L383 114 L383 116 L380 119 L377 117 Z M347 111 L349 110 L350 112 L348 113 Z M320 108 L329 113 L325 119 L322 119 L319 116 Z M313 108 L317 109 L317 115 L315 118 L313 117 L311 113 Z M355 107 L357 110 L357 113 L352 118 L351 116 L354 113 L353 108 Z M342 107 L344 106 L347 110 L343 112 Z M349 106 L351 105 L352 107 L350 108 Z M382 105 L385 104 L386 107 L383 108 Z M381 102 L383 101 L384 103 L382 104 Z M365 93 L372 99 L374 104 L373 106 L368 107 L367 106 L368 102 L365 101 L365 109 L362 111 L362 113 L364 113 L366 116 L367 125 L360 131 L350 132 L349 131 L350 128 L348 125 L357 120 L359 113 L359 104 L363 94 Z M328 94 L331 93 L333 94 L333 97 L336 101 L338 108 L338 118 L345 125 L344 128 L341 127 L332 128 L329 124 L329 118 L334 111 L331 108 L331 101 L328 101 L325 99 L325 97 Z M310 91 L313 90 L314 92 L311 93 Z M322 81 L323 83 L326 84 L327 87 L330 88 L330 91 L326 93 L322 99 L318 102 L317 101 L319 95 L318 86 L320 82 Z M338 80 L342 82 L342 85 L340 88 L338 87 L337 83 Z M367 74 L369 76 L370 82 L368 83 L366 88 L361 90 L360 87 L362 85 L362 80 L364 78 L363 75 Z M329 74 L332 75 L331 79 L334 80 L334 85 L336 87 L335 89 L330 87 L328 83 L326 82 L327 76 Z M310 75 L312 74 L313 76 L311 77 Z M342 68 L347 69 L345 71 L346 75 L351 74 L351 71 L349 70 L350 68 L356 69 L359 73 L358 75 L354 75 L354 78 L352 80 L352 82 L358 80 L359 85 L357 89 L355 88 L355 86 L353 86 L354 90 L352 93 L351 101 L349 100 L349 88 L347 88 L347 99 L346 100 L344 99 L344 89 L343 88 L344 80 L342 79 L343 75 L338 74 L338 71 Z M181 37 L181 65 L180 75 L178 77 L179 86 L177 89 L178 93 L177 106 L184 107 L185 109 L181 112 L177 111 L178 116 L176 118 L178 121 L176 125 L177 126 L182 125 L184 127 L187 123 L186 118 L187 116 L187 106 L186 105 L187 90 L185 82 L186 78 L184 73 L183 36 Z M183 119 L185 120 L184 124 L182 123 Z M264 34 L265 35 L265 56 L263 60 L264 63 L262 71 L264 71 L265 73 L261 75 L261 77 L264 78 L265 80 L259 83 L259 85 L263 85 L264 88 L257 93 L255 97 L255 103 L256 106 L260 110 L269 111 L275 106 L276 99 L273 94 L265 92 L266 90 L272 88 L271 85 L266 84 L268 81 L270 81 L270 78 L266 76 L267 74 L269 74 L269 71 L266 70 L268 66 L266 60 L266 33 Z M265 96 L267 97 L266 102 L263 100 Z M262 92 L264 93 L261 98 L261 101 L263 104 L269 103 L268 98 L269 96 L271 96 L273 99 L272 105 L268 108 L263 108 L258 104 L257 99 L258 96 Z M72 26 L65 52 L69 61 L64 65 L52 62 L48 70 L38 70 L37 79 L27 84 L28 93 L20 100 L25 108 L20 118 L26 124 L24 134 L33 138 L33 149 L44 149 L47 159 L58 157 L64 164 L75 159 L83 164 L88 157 L99 158 L102 148 L112 148 L112 138 L120 134 L118 124 L125 117 L119 109 L123 100 L116 94 L117 84 L107 80 L106 70 L95 70 L92 62 L79 65 L74 61 L80 55 Z M80 157 L84 156 L85 158 L81 159 Z M63 157 L66 156 L67 159 L65 160 Z M49 153 L51 152 L52 154 L50 155 Z M94 152 L96 151 L97 153 L95 154 Z M71 145 L73 144 L74 146 L72 147 Z M37 144 L39 143 L40 145 L38 146 Z M105 143 L107 142 L108 144 L106 145 Z M104 138 L106 137 L107 139 L105 140 Z M113 131 L116 130 L117 132 L114 133 Z M27 132 L30 130 L32 133 L28 134 Z M71 120 L74 119 L75 121 L72 122 Z M55 116 L58 115 L63 119 L70 127 L70 129 L68 130 Z M24 116 L26 115 L27 117 L25 118 Z M96 114 L97 115 L97 137 L96 138 L74 138 L72 133 L75 130 L74 128 L75 125 L81 121 L86 115 L89 116 L87 119 L88 121 Z M47 115 L49 114 L57 122 L55 126 L50 127 L51 133 L59 133 L59 127 L61 126 L71 137 L70 138 L48 138 L47 137 Z M111 111 L112 119 L110 126 L104 138 L100 140 L99 139 L99 115 L101 114 L103 117 L106 117 Z M54 110 L55 112 L52 114 L51 112 Z M32 111 L34 110 L35 114 L41 118 L43 115 L45 116 L45 139 L99 139 L100 145 L98 146 L96 144 L89 149 L78 151 L77 150 L78 143 L68 142 L67 148 L73 150 L72 152 L59 150 L50 146 L47 143 L44 145 L38 141 L38 139 L41 137 L35 128 L32 117 Z M78 105 L81 106 L83 110 L83 115 L81 119 L78 118 L76 112 Z M64 105 L68 106 L66 120 L63 119 L61 114 L61 111 Z M115 98 L117 97 L118 99 L116 100 Z M28 97 L29 98 L28 105 L26 106 L25 100 Z M73 88 L74 87 L88 87 L89 91 L85 92 L84 95 L86 100 L91 100 L93 98 L94 88 L96 87 L97 88 L97 109 L95 110 L88 103 L86 103 L86 105 L91 109 L90 111 L88 111 L83 107 L82 104 L75 99 Z M47 109 L47 88 L48 87 L70 87 L71 88 L69 99 L64 103 L63 106 L61 106 L56 111 L54 109 L60 103 L59 92 L51 92 L51 98 L53 100 L56 100 L57 102 L49 110 Z M109 86 L111 85 L112 87 L110 88 Z M44 85 L45 86 L45 104 L34 108 L33 103 L40 87 Z M32 85 L34 86 L33 90 L31 89 Z M100 83 L102 84 L102 86 L109 96 L112 106 L111 110 L108 107 L101 108 L99 107 L99 84 Z M40 77 L41 74 L45 75 L43 78 Z M102 73 L104 74 L103 78 L100 77 Z M76 73 L77 72 L83 73 L95 78 L99 84 L98 85 L77 85 L76 84 L77 82 Z M69 73 L67 85 L46 85 L45 84 L47 80 L50 79 L51 77 L66 72 Z M88 68 L90 67 L91 69 L89 70 Z M72 62 L74 63 L73 67 L70 66 Z M467 17 L460 36 L456 36 L448 53 L444 51 L444 57 L434 66 L428 83 L428 102 L441 119 L444 129 L430 134 L425 122 L420 119 L412 152 L422 160 L408 165 L417 172 L451 176 L459 172 L482 172 L492 167 L486 162 L490 153 L488 143 L470 133 L468 116 L453 101 L466 88 L476 62 Z M453 170 L455 169 L456 171 L454 172 Z M437 170 L439 169 L440 171 L438 172 Z M458 159 L460 158 L461 160 L459 161 Z M453 159 L455 158 L456 160 L454 161 Z M449 156 L451 155 L452 157 L450 158 Z M463 152 L465 153 L464 157 L462 156 Z M414 146 L417 145 L418 148 L415 149 Z M462 140 L464 139 L465 141 L463 142 Z M449 135 L451 134 L452 136 L450 137 Z M453 133 L455 132 L456 134 L454 135 Z M417 137 L420 132 L426 133 L425 136 L421 136 L419 138 Z M464 132 L466 131 L468 134 L465 135 Z M456 130 L458 129 L459 132 L457 133 Z M464 125 L466 124 L468 127 L465 129 Z M453 123 L455 122 L456 124 L454 125 Z M455 110 L458 109 L459 111 L456 112 Z M436 93 L438 92 L439 94 L437 95 Z M452 86 L455 87 L453 99 L450 97 L449 93 L450 88 Z M443 79 L446 78 L449 82 L446 83 Z M448 70 L449 72 L444 76 L443 75 L444 72 Z M461 69 L463 68 L464 70 L462 71 Z M449 69 L452 68 L453 70 L450 71 Z M460 38 L462 39 L461 43 L459 42 Z"/></svg>
