<svg xmlns="http://www.w3.org/2000/svg" width="512" height="512" viewBox="0 0 512 512" aria-hidden="true" focusable="false"><path fill="currentColor" fill-rule="evenodd" clip-rule="evenodd" d="M252 245 L247 247 L240 253 L238 258 L238 268 L241 274 L251 280 L261 280 L271 274 L271 272 L274 269 L275 260 L273 254 L267 248 L261 245 Z M252 250 L263 251 L270 260 L270 265 L268 269 L261 275 L251 275 L243 267 L243 258 L248 252 Z M255 17 L245 46 L219 78 L218 94 L211 90 L194 108 L188 123 L189 144 L174 137 L171 178 L191 206 L186 208 L158 182 L135 181 L140 192 L121 191 L107 197 L89 215 L96 221 L77 223 L48 249 L28 260 L45 267 L75 296 L93 300 L89 305 L111 325 L140 327 L135 338 L161 336 L182 315 L190 315 L171 343 L175 381 L189 374 L188 395 L194 410 L211 428 L219 423 L223 446 L245 470 L257 496 L266 472 L291 443 L294 424 L301 428 L319 409 L325 391 L324 375 L337 381 L341 341 L323 314 L329 314 L354 337 L378 338 L372 327 L387 329 L405 323 L424 305 L420 300 L439 295 L467 267 L485 257 L466 250 L438 224 L416 221 L423 214 L401 194 L373 191 L378 181 L354 182 L328 207 L322 206 L342 176 L337 135 L324 143 L325 127 L318 107 L301 90 L294 95 L293 77 L268 47 Z M255 357 L259 358 L259 367 L262 374 L271 382 L269 391 L257 406 L247 396 L242 388 L242 382 L248 377 L252 371 Z M221 356 L223 358 L218 364 L220 375 L226 381 L237 384 L239 394 L252 408 L256 417 L261 407 L272 396 L276 384 L284 382 L291 377 L294 372 L294 360 L298 365 L299 374 L294 388 L277 407 L271 406 L272 416 L270 422 L257 441 L254 440 L242 422 L240 415 L241 405 L236 408 L217 386 L214 378 L214 366 Z M287 356 L289 355 L292 358 L290 359 Z M285 326 L291 341 L313 362 L319 377 L319 393 L314 407 L302 420 L287 413 L288 437 L256 479 L225 439 L223 424 L226 414 L218 414 L210 420 L199 408 L194 396 L193 379 L201 360 L222 340 L229 327 L245 344 L249 356 L248 367 L241 376 L229 377 L223 371 L223 364 L229 360 L233 366 L236 358 L231 351 L224 350 L212 359 L209 378 L214 391 L235 415 L239 427 L257 453 L275 424 L277 415 L295 396 L303 380 L302 362 L291 351 L280 352 L276 359 L279 366 L282 361 L289 364 L285 376 L273 377 L264 366 L268 343 Z M333 311 L334 310 L342 311 L346 310 L355 319 L364 325 L367 333 L366 334 L357 333 L349 329 Z M179 311 L162 330 L151 334 L145 333 L149 324 L161 316 L166 310 L178 310 Z M289 309 L301 315 L316 317 L322 321 L332 332 L336 341 L337 348 L332 373 L327 369 L324 361 L321 361 L319 363 L306 347 L303 346 L303 344 L305 343 L319 350 L319 344 L321 340 L321 332 L319 328 L316 326 L311 326 L311 329 L316 332 L315 338 L310 335 L309 331 L306 332 L305 337 L301 336 L294 329 L290 322 L288 315 Z M224 309 L225 312 L222 323 L218 330 L210 337 L207 336 L206 331 L204 331 L199 338 L196 337 L197 331 L202 329 L202 326 L196 326 L193 329 L191 334 L193 349 L196 350 L201 345 L207 343 L209 345 L193 363 L191 362 L191 360 L189 360 L186 368 L181 372 L179 369 L176 355 L176 343 L182 330 L198 316 L211 315 Z M248 290 L265 290 L269 300 L268 307 L264 314 L257 321 L255 321 L249 315 L244 306 L244 297 Z M239 287 L243 288 L239 298 L240 309 L244 316 L256 329 L272 310 L273 297 L270 290 L271 287 L273 287 L277 291 L282 301 L283 312 L279 324 L257 349 L235 327 L230 316 L230 302 L234 293 Z M284 269 L288 267 L299 269 L306 275 L310 286 L300 291 L296 291 L288 288 L281 281 L281 277 L284 272 Z M228 269 L232 280 L227 286 L217 291 L209 290 L203 286 L203 282 L206 276 L212 270 L221 267 L225 267 Z M301 262 L316 265 L326 274 L331 284 L333 296 L336 303 L335 306 L330 306 L317 310 L303 310 L293 305 L285 297 L282 292 L283 290 L294 295 L302 295 L315 289 L314 280 L311 273 L300 264 Z M211 262 L212 264 L207 267 L201 274 L197 289 L210 295 L219 295 L229 290 L230 293 L225 300 L215 308 L203 311 L194 310 L183 306 L177 306 L176 304 L180 294 L181 286 L187 273 L196 265 Z M404 259 L396 268 L388 274 L380 274 L374 267 L363 262 L347 263 L333 271 L330 271 L325 265 L319 261 L319 259 L323 257 L330 249 L333 249 L338 253 L349 258 L363 258 L374 253 L382 245 L390 247 Z M108 259 L122 247 L130 245 L133 246 L140 254 L149 258 L166 257 L182 249 L187 255 L193 259 L193 261 L183 271 L179 271 L174 267 L163 262 L149 262 L140 266 L133 274 L128 275 L121 272 Z M244 243 L252 240 L261 240 L267 242 L276 250 L280 261 L279 269 L276 275 L268 283 L251 285 L243 282 L235 273 L233 268 L233 258 L238 248 Z M310 235 L306 247 L300 253 L289 257 L284 256 L281 245 L282 242 L289 235 L298 232 L306 233 Z M203 235 L206 233 L215 232 L226 237 L232 246 L227 257 L218 256 L212 253 L207 248 L203 239 Z M367 216 L377 216 L388 221 L405 238 L402 241 L403 243 L411 243 L433 259 L414 275 L404 276 L403 280 L405 282 L388 299 L377 304 L364 303 L357 296 L359 295 L363 299 L367 300 L372 299 L380 292 L383 279 L388 279 L394 276 L405 265 L413 261 L414 258 L405 254 L393 243 L384 241 L379 227 L373 222 L366 221 L358 226 L356 225 L362 218 Z M135 216 L146 216 L152 219 L155 223 L153 224 L147 221 L138 223 L131 232 L130 240 L118 244 L106 255 L98 258 L98 260 L106 264 L120 277 L130 279 L132 291 L141 299 L146 300 L154 295 L156 296 L152 301 L145 304 L135 304 L123 298 L108 283 L108 280 L110 279 L109 276 L101 276 L80 260 L81 257 L99 244 L109 243 L110 241 L108 237 L123 222 Z M335 215 L336 217 L333 224 L332 232 L326 246 L320 253 L313 257 L305 258 L304 256 L308 253 L313 244 L315 231 L305 228 L293 228 L284 234 L282 233 L288 221 L299 212 L313 210 Z M178 215 L198 210 L207 210 L218 215 L225 222 L230 232 L228 233 L219 228 L207 228 L198 231 L197 234 L200 246 L208 256 L207 258 L203 258 L194 254 L187 247 L181 234 L177 219 Z M255 205 L257 205 L266 214 L269 223 L268 230 L264 236 L262 235 L248 236 L245 232 L244 228 L245 217 L247 213 Z M377 196 L394 197 L405 203 L413 211 L407 222 L408 228 L425 224 L436 229 L469 258 L433 293 L419 295 L409 292 L413 309 L391 323 L376 323 L360 316 L338 297 L333 277 L350 267 L369 270 L376 278 L376 289 L369 295 L364 294 L361 287 L365 283 L358 280 L351 287 L351 296 L362 308 L379 309 L393 302 L413 280 L446 258 L412 239 L389 215 L378 211 L360 213 L350 227 L352 236 L357 240 L365 237 L361 229 L367 225 L376 231 L376 242 L369 250 L350 253 L334 245 L338 224 L362 202 Z M125 196 L139 197 L153 204 L174 223 L179 244 L163 253 L150 253 L142 249 L136 241 L137 230 L148 226 L152 232 L147 236 L155 240 L162 233 L162 225 L154 214 L135 211 L124 215 L100 239 L66 260 L99 280 L118 301 L134 309 L150 308 L158 303 L162 295 L161 286 L154 280 L147 284 L152 288 L150 293 L144 295 L137 290 L136 279 L143 270 L162 267 L178 275 L173 298 L151 317 L137 323 L111 319 L98 307 L104 292 L94 295 L78 292 L52 265 L43 260 L77 229 L89 224 L105 228 L105 221 L99 212 L111 201 Z M367 187 L364 194 L353 202 L346 210 L343 209 L334 210 L333 209 L341 201 L341 199 L346 195 L346 193 L351 189 L358 186 Z M146 187 L153 186 L161 189 L169 196 L169 198 L173 201 L173 203 L179 209 L178 210 L171 209 L167 210 L158 201 L149 195 Z M255 175 L257 175 L278 198 L283 211 L282 222 L276 235 L271 238 L270 235 L273 229 L272 216 L269 210 L256 196 L241 214 L239 227 L242 238 L240 239 L235 233 L231 224 L230 207 L235 197 Z M181 146 L185 149 L189 160 L193 156 L197 164 L208 175 L207 177 L200 175 L196 171 L193 171 L193 178 L191 182 L193 191 L196 194 L201 195 L202 192 L197 189 L197 184 L199 183 L204 190 L206 190 L208 184 L211 185 L219 193 L222 199 L225 210 L224 213 L212 206 L200 205 L194 202 L185 194 L180 187 L176 177 L176 162 Z M332 145 L337 166 L337 174 L333 186 L329 192 L317 203 L313 205 L301 206 L289 212 L288 206 L291 197 L301 185 L305 184 L306 189 L309 189 L310 186 L315 183 L316 188 L311 191 L311 195 L315 195 L319 192 L321 188 L319 171 L316 171 L311 176 L305 178 L303 176 L312 168 L319 157 L324 160 L326 151 Z M256 114 L268 128 L271 135 L271 139 L266 143 L260 153 L258 165 L254 164 L252 152 L242 140 L241 137 L243 130 Z M257 77 L271 99 L271 114 L277 112 L294 132 L299 147 L298 157 L293 163 L293 147 L286 140 L276 137 L272 125 L262 114 L256 102 L253 110 L240 126 L237 132 L237 137 L225 141 L218 150 L218 158 L221 163 L219 164 L214 156 L215 139 L221 128 L236 112 L241 114 L241 100 L245 91 Z M256 37 L288 79 L290 92 L287 106 L296 104 L302 98 L313 109 L319 124 L316 152 L293 178 L285 197 L268 180 L262 162 L267 150 L279 143 L289 150 L290 155 L285 162 L278 157 L277 167 L283 172 L295 170 L303 157 L303 141 L296 125 L277 104 L257 64 L239 91 L235 104 L215 127 L209 142 L210 159 L221 172 L229 172 L236 165 L234 157 L229 162 L223 158 L223 151 L228 145 L238 144 L248 155 L249 167 L244 181 L229 196 L220 179 L199 157 L193 140 L193 126 L199 110 L210 98 L218 105 L226 105 L224 80 Z"/></svg>
