<svg xmlns="http://www.w3.org/2000/svg" width="512" height="512" viewBox="0 0 512 512" aria-hidden="true" focusable="false"><path fill="currentColor" fill-rule="evenodd" clip-rule="evenodd" d="M486 26 L471 35 L462 57 L458 86 L428 120 L429 158 L410 142 L410 162 L390 191 L390 220 L399 231 L414 236 L410 245 L386 260 L381 241 L384 214 L376 198 L367 216 L336 246 L329 262 L329 277 L324 264 L288 314 L282 355 L295 380 L288 391 L306 388 L318 395 L328 411 L328 424 L317 441 L307 424 L291 419 L279 399 L272 397 L257 361 L241 396 L234 399 L223 418 L206 424 L196 441 L190 436 L184 420 L189 401 L207 388 L223 392 L218 380 L230 357 L225 316 L189 264 L184 274 L176 245 L144 214 L137 198 L128 218 L132 242 L126 259 L103 245 L99 236 L111 233 L123 220 L123 191 L103 162 L102 143 L84 157 L85 121 L55 86 L46 43 L27 27 L35 46 L28 93 L42 125 L33 125 L37 133 L30 171 L33 217 L24 214 L26 232 L21 251 L22 278 L30 295 L19 291 L17 295 L38 359 L63 380 L86 383 L98 379 L108 364 L106 351 L95 340 L112 338 L127 344 L140 362 L140 392 L129 387 L115 387 L108 392 L122 405 L141 452 L158 470 L180 483 L220 488 L234 483 L249 469 L254 454 L252 438 L229 417 L239 408 L241 421 L248 418 L245 398 L256 377 L268 398 L265 418 L272 421 L270 412 L276 407 L284 417 L266 429 L259 445 L260 462 L273 479 L293 488 L316 488 L352 472 L377 443 L391 403 L404 393 L397 387 L372 391 L371 369 L377 353 L396 339 L416 339 L418 342 L405 355 L407 371 L416 380 L438 383 L469 366 L486 333 L496 292 L482 296 L491 275 L492 254 L487 232 L489 214 L480 216 L483 173 L476 146 L478 125 L470 125 L483 99 L478 41 Z M218 463 L220 462 L221 464 L219 465 Z M71 329 L77 323 L95 316 L122 318 L137 327 L155 354 L157 376 L151 401 L151 420 L162 447 L187 468 L197 472 L219 472 L233 461 L233 446 L226 440 L219 440 L216 445 L222 445 L225 451 L220 457 L214 458 L204 451 L203 438 L213 426 L230 425 L242 433 L248 444 L247 461 L241 471 L223 481 L202 483 L180 477 L162 466 L141 441 L127 402 L121 394 L132 394 L144 406 L147 368 L139 348 L120 334 L102 332 L94 334 L84 344 L84 347 L91 350 L91 357 L78 360 L68 348 Z M438 325 L444 334 L445 348 L435 360 L422 357 L422 349 L429 348 L423 337 L411 332 L393 334 L373 349 L366 365 L369 406 L381 394 L391 394 L372 440 L349 467 L333 477 L311 483 L290 481 L272 471 L266 462 L265 443 L270 433 L282 425 L300 426 L310 439 L309 450 L299 458 L288 452 L288 447 L297 445 L297 442 L286 440 L280 445 L281 463 L294 472 L308 473 L323 469 L337 461 L351 446 L360 427 L362 410 L356 381 L357 356 L364 340 L378 325 L406 315 L424 317 Z M30 307 L32 306 L40 310 L61 311 L71 315 L74 319 L66 326 L62 338 L62 348 L65 356 L75 365 L86 366 L96 359 L97 353 L99 352 L102 356 L101 368 L94 375 L88 377 L73 377 L64 374 L52 366 L38 347 L33 332 Z M483 305 L482 322 L475 346 L461 366 L449 374 L440 377 L425 377 L419 375 L412 368 L410 360 L414 350 L416 351 L418 361 L427 366 L438 365 L448 356 L451 345 L450 334 L444 323 L439 319 L441 315 L451 311 L471 310 Z M439 290 L438 298 L426 309 L399 310 L387 313 L374 321 L362 333 L353 350 L350 364 L352 391 L356 403 L356 418 L352 432 L345 445 L327 461 L311 467 L297 467 L296 463 L315 461 L327 455 L337 445 L345 432 L347 406 L337 380 L335 363 L340 341 L351 323 L368 307 L390 296 L408 291 Z M74 290 L105 291 L123 296 L143 306 L163 325 L172 340 L177 356 L177 373 L165 410 L169 436 L187 456 L200 462 L217 463 L216 467 L201 467 L185 461 L171 449 L163 438 L157 423 L156 412 L162 381 L162 360 L157 344 L149 331 L135 318 L114 310 L87 309 L76 300 Z M181 283 L184 284 L183 287 L184 302 L183 303 L180 303 L173 293 L173 290 Z M330 282 L334 285 L334 287 L336 287 L340 291 L339 294 L331 303 L328 301 Z M190 282 L214 308 L220 319 L225 342 L220 368 L209 380 L204 381 L188 393 L179 411 L180 429 L187 441 L198 449 L198 454 L190 451 L180 442 L171 423 L171 407 L174 398 L183 387 L204 370 L211 349 L208 327 L204 321 L201 321 L206 339 L204 358 L198 369 L181 381 L183 362 L177 337 L179 319 L183 316 L189 323 L189 329 L184 331 L185 334 L190 334 L195 328 L193 317 L188 310 Z M322 280 L324 313 L318 321 L318 331 L323 334 L330 332 L329 329 L326 331 L323 328 L324 322 L329 317 L333 318 L335 324 L335 341 L330 355 L331 379 L327 380 L313 367 L308 357 L307 334 L312 320 L309 320 L304 327 L302 354 L309 371 L328 386 L339 399 L342 418 L334 440 L324 450 L314 455 L315 449 L328 438 L333 427 L333 409 L319 388 L302 379 L294 371 L288 354 L288 333 L299 307 Z M467 266 L464 275 L462 276 L462 278 L456 284 L450 287 L447 286 L447 282 L434 285 L410 285 L409 287 L401 288 L396 287 L397 285 L406 283 L410 280 L423 276 L424 274 L426 274 L433 269 L443 259 L445 260 L445 262 L454 262 L460 265 L464 264 Z M46 266 L49 264 L53 265 L57 262 L68 262 L68 260 L70 259 L85 273 L97 279 L102 280 L104 282 L110 283 L114 285 L115 287 L114 288 L105 287 L102 285 L78 285 L72 284 L67 280 L65 281 L65 286 L63 287 L57 284 L49 276 Z M32 227 L40 234 L43 242 L46 245 L49 256 L51 257 L49 260 L46 260 L42 257 L39 258 L39 265 L41 267 L44 278 L53 288 L62 291 L63 293 L67 293 L70 301 L81 312 L80 314 L77 314 L75 311 L65 306 L47 304 L38 297 L33 289 L30 277 L28 276 L27 268 L28 248 L30 247 Z M481 226 L482 239 L486 253 L486 271 L480 289 L474 298 L464 305 L448 306 L432 315 L431 312 L442 302 L444 295 L461 287 L469 278 L474 258 L471 257 L467 260 L464 260 L462 257 L464 256 L471 237 Z M377 213 L379 229 L377 236 L368 246 L367 255 L375 247 L378 248 L382 259 L382 279 L372 298 L360 306 L341 325 L339 321 L341 316 L366 288 L368 271 L360 263 L352 266 L352 274 L355 274 L355 270 L358 268 L363 273 L361 286 L336 312 L334 308 L344 295 L345 287 L337 282 L334 272 L335 263 L346 243 Z M136 213 L162 237 L177 259 L178 276 L176 281 L167 288 L169 296 L178 307 L176 313 L154 290 L150 282 L150 273 L153 268 L162 273 L160 265 L151 263 L145 271 L147 289 L167 309 L173 319 L171 326 L158 311 L138 295 L131 280 L130 264 L135 248 L137 247 L146 256 L145 247 L136 236 L134 230 L134 216 Z M428 159 L431 160 L433 165 L438 171 L438 177 L436 179 L433 179 L431 175 L429 174 L429 166 L427 162 Z M85 159 L86 161 L84 166 L84 174 L78 180 L75 177 L74 172 L80 165 L82 160 Z M419 157 L423 165 L423 176 L429 183 L429 197 L433 199 L434 191 L440 182 L443 183 L451 206 L449 238 L443 250 L425 268 L386 287 L386 282 L394 275 L417 263 L428 251 L433 241 L436 225 L432 213 L427 207 L415 204 L410 209 L411 216 L414 218 L415 211 L420 209 L427 215 L429 221 L426 244 L411 261 L392 272 L388 271 L391 264 L401 260 L416 246 L421 235 L420 226 L416 229 L406 229 L398 222 L394 213 L396 192 Z M94 157 L117 192 L119 212 L111 226 L107 229 L92 228 L92 235 L100 250 L123 266 L124 272 L102 261 L90 249 L85 239 L82 226 L86 215 L93 209 L98 211 L99 218 L103 214 L98 204 L92 204 L82 211 L77 224 L77 232 L81 245 L89 256 L101 267 L125 280 L125 285 L85 266 L66 244 L60 223 L63 200 L70 183 L74 183 L79 192 L79 201 L84 197 L84 183 L89 177 L90 165 Z M49 125 L55 129 L60 138 L61 150 L52 176 L50 195 L52 197 L55 211 L55 228 L57 230 L60 244 L68 256 L67 258 L62 256 L48 239 L38 216 L36 204 L36 172 L41 156 L44 137 L49 141 L52 150 L54 150 L54 141 L48 132 Z M464 124 L465 129 L459 140 L459 150 L461 150 L464 141 L469 136 L477 172 L477 204 L469 232 L459 248 L451 256 L445 259 L444 257 L454 241 L456 229 L458 227 L458 210 L461 202 L461 194 L463 192 L459 170 L455 163 L451 145 L454 134 Z M472 53 L478 87 L476 103 L474 108 L451 128 L447 138 L447 154 L456 182 L456 193 L454 194 L450 188 L447 174 L434 156 L431 145 L431 133 L434 121 L439 112 L459 94 L464 86 L467 72 L467 60 L469 54 Z M40 51 L43 52 L44 62 L46 63 L46 77 L49 88 L73 111 L80 124 L82 134 L79 156 L66 174 L63 188 L59 194 L57 194 L55 190 L57 188 L59 172 L65 158 L66 139 L60 126 L42 112 L36 101 L35 81 Z"/></svg>
