<svg xmlns="http://www.w3.org/2000/svg" width="512" height="512" viewBox="0 0 512 512" aria-hidden="true" focusable="false"><path fill="currentColor" fill-rule="evenodd" clip-rule="evenodd" d="M255 17 L242 52 L205 95 L198 116 L200 135 L182 129 L180 148 L150 186 L148 211 L136 212 L139 224 L132 248 L134 271 L152 295 L183 318 L188 329 L186 345 L179 356 L168 357 L147 386 L88 413 L103 430 L127 434 L122 473 L166 464 L170 484 L184 496 L209 451 L211 438 L234 411 L229 400 L257 360 L283 399 L279 412 L300 437 L327 495 L332 496 L345 479 L346 464 L390 473 L386 434 L413 428 L425 410 L410 409 L405 402 L394 402 L366 386 L344 357 L333 356 L326 343 L325 326 L332 314 L362 294 L377 277 L381 262 L374 225 L377 212 L365 211 L364 188 L333 148 L331 128 L313 135 L315 114 L309 96 L272 51 L261 19 Z M340 438 L342 437 L344 440 L341 441 Z M307 437 L319 435 L320 436 L320 447 L330 458 L338 463 L340 473 L337 481 L333 485 L331 485 L327 481 L325 476 L326 469 L325 459 L322 459 L320 461 L316 459 L316 457 L312 454 L308 441 L306 440 Z M204 437 L205 442 L201 453 L198 455 L198 457 L195 459 L193 463 L191 462 L191 459 L188 459 L186 471 L187 477 L183 483 L180 485 L173 476 L174 464 L176 461 L184 457 L191 449 L191 446 L193 445 L194 435 Z M326 436 L330 432 L333 433 L332 439 L338 445 L342 446 L343 448 L351 447 L352 450 L357 450 L358 448 L368 449 L369 441 L374 440 L379 443 L381 446 L381 449 L383 451 L384 464 L383 465 L367 464 L362 462 L356 453 L352 455 L351 459 L341 457 L331 451 L326 445 Z M187 437 L186 446 L174 456 L161 459 L160 454 L156 453 L151 462 L137 465 L129 464 L130 449 L132 447 L132 444 L140 439 L142 439 L145 442 L143 444 L144 449 L156 448 L158 450 L161 450 L162 448 L168 448 L170 446 L175 445 L180 439 L181 432 Z M307 429 L311 428 L312 430 L308 431 Z M201 429 L204 428 L205 430 L202 431 Z M190 424 L192 423 L197 426 L200 426 L201 429 L200 430 L193 429 L190 427 Z M326 423 L326 425 L320 429 L315 430 L312 429 L312 427 L315 425 L318 425 L323 422 Z M351 414 L353 415 L353 418 L357 421 L356 426 L359 431 L359 436 L361 439 L360 441 L352 437 L344 436 L342 429 L338 427 Z M162 414 L163 419 L167 419 L174 425 L174 427 L170 430 L169 433 L171 440 L167 442 L164 437 L161 437 L151 442 L150 440 L153 437 L154 430 L157 425 L155 421 Z M150 412 L152 411 L154 414 L151 415 Z M360 411 L368 410 L374 415 L374 417 L377 420 L379 430 L378 436 L370 437 L367 434 L367 431 L369 429 L369 424 L365 416 L359 414 Z M147 410 L149 415 L144 422 L144 434 L142 437 L134 436 L133 433 L135 427 L135 421 L137 417 L143 411 Z M163 405 L167 403 L176 413 L185 419 L186 421 L184 423 L179 422 L163 407 Z M359 401 L365 392 L368 392 L371 395 L378 398 L386 405 L392 406 L393 408 L390 410 L391 415 L396 415 L401 412 L405 412 L412 416 L411 421 L408 424 L403 426 L397 426 L392 422 L387 423 L387 426 L385 427 L383 419 L379 411 L374 408 L372 405 L369 404 L360 405 Z M154 403 L153 405 L144 404 L139 406 L133 412 L129 420 L128 427 L126 426 L126 423 L121 422 L116 426 L106 425 L100 419 L101 415 L106 414 L108 412 L112 412 L114 414 L120 415 L123 413 L123 410 L120 408 L121 406 L126 405 L133 399 L145 392 L148 392 L150 394 L150 397 L152 398 Z M155 385 L157 386 L157 388 L164 399 L163 402 L159 400 L155 393 L154 389 Z M358 384 L359 388 L357 394 L349 406 L349 408 L334 422 L331 423 L327 422 L326 420 L332 417 L347 402 L347 400 L350 398 L356 385 Z M351 377 L349 388 L347 389 L347 391 L337 404 L321 417 L314 419 L307 423 L297 424 L292 420 L290 416 L292 413 L305 411 L318 404 L333 389 L333 387 L338 382 L339 377 L342 372 L347 371 Z M167 369 L170 370 L176 384 L179 386 L182 392 L192 402 L200 406 L202 409 L214 413 L220 413 L222 415 L222 417 L217 423 L212 424 L200 421 L187 414 L173 401 L167 393 L167 391 L164 389 L161 381 L161 378 Z M322 313 L324 312 L325 314 L323 315 Z M329 304 L331 307 L325 312 L324 310 L326 306 Z M256 230 L258 231 L259 249 L257 256 L255 255 L254 252 L254 235 Z M368 218 L375 254 L372 272 L365 281 L363 281 L363 284 L358 289 L342 298 L335 304 L333 304 L331 301 L346 290 L359 275 L361 266 L363 265 L363 252 L361 248 L353 249 L350 246 L349 238 L351 231 L360 222 Z M145 218 L153 222 L162 231 L164 238 L162 248 L152 248 L150 252 L150 264 L152 265 L154 275 L157 280 L168 291 L177 297 L187 307 L191 314 L190 316 L175 301 L154 288 L142 274 L139 265 L139 245 L143 233 Z M273 142 L275 143 L276 146 L275 151 L272 149 Z M239 140 L241 141 L240 147 L237 146 Z M263 139 L290 249 L296 246 L279 189 L275 151 L293 214 L308 246 L319 341 L336 369 L323 391 L300 406 L293 405 L270 373 L259 343 L259 279 L265 251 L259 202 L259 145 Z M250 139 L254 190 L248 253 L254 335 L247 365 L216 407 L201 401 L186 387 L177 367 L194 339 L205 245 L220 212 L238 149 L234 186 L217 249 L223 248 Z M271 139 L273 138 L274 140 L272 141 Z M265 112 L269 113 L272 132 L271 135 L267 134 L266 132 L262 132 L261 134 L259 133 L259 124 Z M248 112 L252 119 L252 128 L254 130 L254 133 L251 134 L249 132 L246 132 L241 136 L240 134 L242 129 L244 113 Z M257 38 L303 99 L309 119 L306 146 L312 151 L323 138 L326 149 L358 191 L358 215 L343 235 L345 251 L357 257 L356 267 L321 304 L315 251 L298 208 L271 107 L257 112 L242 107 L238 111 L220 190 L198 248 L192 303 L162 276 L156 257 L165 254 L170 246 L169 231 L154 212 L157 186 L183 155 L190 138 L201 151 L205 149 L205 114 L210 100 L247 57 Z"/></svg>
