<svg xmlns="http://www.w3.org/2000/svg" width="512" height="512" viewBox="0 0 512 512" aria-hidden="true" focusable="false"><path fill="currentColor" fill-rule="evenodd" clip-rule="evenodd" d="M237 370 L235 370 L236 374 Z M277 149 L273 150 L273 152 L275 153 L273 156 L267 156 L262 161 L260 166 L261 169 L263 168 L265 162 L268 159 L274 159 L278 155 Z M334 45 L325 59 L313 121 L300 129 L308 156 L306 169 L320 186 L303 199 L284 181 L278 194 L286 230 L287 266 L299 272 L313 257 L316 266 L305 284 L267 293 L248 306 L245 329 L235 336 L241 343 L233 351 L243 357 L243 363 L248 356 L240 349 L247 343 L243 337 L251 307 L275 294 L291 290 L298 293 L270 303 L259 314 L257 341 L253 335 L250 337 L256 352 L277 378 L274 380 L254 358 L227 394 L225 407 L232 428 L217 407 L219 391 L226 379 L231 381 L231 372 L224 373 L225 361 L217 346 L189 327 L183 316 L203 303 L234 249 L233 236 L225 235 L213 243 L206 265 L201 267 L199 249 L192 238 L194 234 L203 239 L219 226 L220 213 L230 194 L230 182 L224 185 L218 179 L211 141 L190 172 L182 164 L183 175 L177 173 L175 207 L168 208 L172 219 L147 231 L136 247 L132 282 L111 338 L118 354 L108 368 L120 358 L132 368 L131 377 L103 387 L104 367 L99 372 L99 389 L114 403 L129 410 L138 409 L125 405 L123 400 L147 407 L133 417 L113 411 L93 389 L90 369 L102 362 L104 350 L86 331 L87 323 L75 298 L78 277 L92 262 L93 246 L103 264 L84 280 L80 300 L86 318 L102 334 L89 315 L86 299 L93 285 L105 282 L104 271 L115 255 L121 213 L125 209 L130 212 L136 199 L163 184 L174 156 L203 136 L208 116 L195 130 L173 141 L163 167 L158 153 L150 174 L146 171 L112 200 L102 222 L102 248 L90 234 L87 254 L73 281 L76 313 L66 308 L66 348 L75 360 L78 392 L94 413 L116 424 L107 427 L140 444 L166 438 L160 451 L184 456 L197 453 L200 465 L210 473 L223 471 L231 460 L234 475 L242 479 L253 496 L268 478 L274 477 L280 459 L286 472 L297 474 L309 466 L313 453 L328 456 L352 451 L345 438 L357 444 L372 444 L401 431 L404 426 L393 425 L413 417 L431 398 L437 382 L437 361 L446 349 L446 308 L436 314 L440 286 L425 257 L423 238 L416 241 L411 212 L381 181 L411 221 L413 243 L406 273 L414 288 L404 282 L401 271 L408 229 L391 206 L392 217 L401 220 L405 231 L398 276 L408 290 L419 296 L419 316 L403 335 L398 350 L395 341 L386 352 L363 360 L356 371 L357 387 L350 394 L330 396 L311 406 L312 388 L303 387 L313 376 L325 385 L341 383 L347 371 L341 364 L337 372 L332 372 L330 361 L339 354 L381 348 L398 317 L408 308 L388 307 L386 284 L375 256 L385 202 L376 189 L376 170 L367 182 L359 179 L366 170 L367 154 L355 160 L362 124 L354 129 L339 104 L332 71 Z M245 474 L248 473 L255 481 L256 478 L261 473 L263 473 L264 479 L254 489 L245 479 Z M272 463 L274 468 L273 472 L270 475 L264 474 L263 472 Z M236 464 L238 463 L240 467 L246 473 L239 475 L236 471 Z M242 462 L243 461 L246 462 L246 460 L248 459 L254 468 L260 461 L263 462 L266 461 L267 465 L254 475 L243 466 Z M218 450 L220 454 L214 458 L213 457 L214 453 Z M292 448 L294 449 L296 453 L295 457 L290 454 Z M271 442 L273 445 L273 453 L268 459 L266 459 L265 455 L267 453 L269 443 Z M288 441 L295 441 L302 444 L308 452 L309 456 L306 465 L299 470 L290 470 L285 465 L285 461 L287 458 L292 459 L291 462 L292 464 L296 464 L299 460 L299 453 L297 449 L289 445 L287 443 Z M239 441 L241 442 L240 447 L244 455 L243 459 L240 458 L236 453 L236 445 Z M214 441 L223 442 L222 444 L217 445 L211 451 L210 455 L211 461 L214 464 L218 463 L219 458 L222 458 L224 460 L224 465 L218 470 L209 469 L203 464 L201 460 L201 454 L203 449 L209 443 Z M273 438 L280 440 L286 449 L276 459 L273 458 L277 450 L275 442 L272 440 Z M233 438 L235 440 L231 444 L231 448 L236 457 L235 459 L232 458 L224 450 L226 444 Z M288 436 L297 433 L312 433 L320 437 L321 439 L314 444 L310 444 L296 438 L289 438 Z M190 440 L192 436 L203 432 L219 434 L222 436 L221 438 L213 438 L200 444 L194 443 Z M254 429 L264 439 L266 444 L265 450 L255 462 L247 454 L244 448 L244 442 L246 438 Z M300 428 L310 423 L324 424 L335 432 L336 434 L335 438 L341 443 L344 449 L340 451 L336 451 L327 448 L326 453 L317 452 L313 448 L324 442 L327 442 L326 438 L320 433 L315 431 L301 430 Z M210 428 L209 430 L194 431 L190 433 L183 440 L183 442 L187 442 L192 446 L198 447 L193 452 L184 452 L182 448 L178 450 L167 450 L166 447 L170 444 L172 440 L176 438 L175 432 L184 425 L190 423 L199 423 L204 424 Z M394 432 L381 437 L366 433 L369 440 L360 441 L351 437 L347 430 L345 430 L345 434 L342 435 L332 424 L320 419 L322 416 L335 414 L348 419 L358 427 L360 426 L343 413 L329 412 L319 415 L312 420 L307 421 L306 419 L318 406 L333 399 L350 400 L357 398 L358 402 L350 409 L362 411 L363 414 L360 418 L374 418 L381 425 L392 429 Z M118 432 L119 429 L134 422 L137 418 L149 418 L146 413 L148 411 L156 410 L156 408 L149 405 L147 401 L148 398 L154 400 L176 399 L191 405 L203 418 L202 420 L198 420 L195 417 L183 412 L168 413 L158 419 L151 426 L153 427 L163 419 L177 414 L190 417 L191 419 L180 423 L169 435 L167 435 L164 430 L158 438 L150 441 L143 440 L144 433 L132 437 Z M201 407 L199 408 L197 405 L195 405 L190 400 L184 398 L183 396 L200 394 L201 395 Z M116 393 L118 394 L117 400 L112 397 Z M305 392 L306 393 L306 409 L303 419 L293 430 L277 435 L276 433 L285 428 L291 421 L296 408 L297 396 Z M205 392 L210 394 L214 398 L214 408 L218 420 L225 427 L234 433 L233 435 L226 434 L219 431 L209 422 L204 409 L204 393 Z M254 388 L266 401 L270 411 L269 421 L262 430 L260 430 L256 426 L255 423 L252 425 L252 427 L249 430 L247 430 L241 423 L239 416 L240 408 L243 402 Z M217 383 L218 386 L214 392 L208 389 L211 384 Z M114 386 L123 380 L130 381 L135 386 L141 386 L158 392 L168 393 L169 395 L168 396 L152 396 L145 391 L143 391 L142 395 L143 401 L141 402 L126 398 L121 393 L121 391 L117 393 L114 389 Z M297 379 L301 389 L295 393 L291 385 L291 382 Z M282 377 L284 381 L286 382 L286 384 L288 385 L293 400 L293 407 L288 419 L280 427 L277 428 L276 426 L278 425 L283 415 L284 410 L283 396 L277 384 L277 382 Z M138 374 L140 372 L156 374 L162 388 L160 389 L141 383 L139 380 Z M181 372 L183 371 L185 374 L183 375 Z M305 369 L307 371 L309 379 L305 382 L302 382 L301 373 Z M310 366 L312 367 L311 373 L309 372 Z M254 364 L270 381 L271 388 L276 389 L281 403 L280 413 L277 420 L273 423 L272 406 L269 400 L259 389 L254 381 L253 385 L246 392 L246 394 L238 404 L236 411 L236 418 L238 423 L236 424 L232 420 L229 412 L229 400 L233 390 L235 388 L238 388 L239 382 Z M84 355 L86 356 L88 360 L87 382 L92 395 L96 401 L105 410 L112 413 L113 415 L122 418 L123 419 L122 421 L116 421 L102 415 L94 409 L87 401 L80 387 L77 374 L78 369 L81 368 L80 364 Z M428 354 L431 362 L430 369 L434 370 L434 378 L431 389 L424 402 L417 410 L405 418 L396 421 L385 422 L384 421 L385 419 L393 418 L408 409 L419 396 L424 382 L423 361 L425 356 Z M393 351 L394 352 L393 358 L387 366 L391 365 L394 372 L395 379 L393 388 L385 398 L380 400 L379 398 L384 391 L384 383 L381 378 L376 377 L375 380 L377 380 L381 385 L381 389 L379 393 L369 401 L363 402 L362 401 L363 392 L360 391 L359 389 L361 386 L369 387 L373 385 L373 381 L369 377 L369 375 L373 371 L378 371 L383 373 L387 379 L387 383 L389 383 L389 379 L386 372 L382 369 L373 368 L366 373 L365 379 L367 383 L364 384 L361 381 L359 376 L361 368 L367 362 L377 358 L378 361 L380 361 L384 356 Z M319 342 L322 341 L323 343 L320 344 Z M156 342 L150 354 L144 360 L139 362 L130 362 L121 353 L122 348 L130 350 L140 349 L147 346 L153 341 Z M167 338 L170 348 L168 362 L161 370 L155 370 L154 368 L159 364 L163 357 L165 351 L165 339 Z M315 338 L316 339 L314 346 L315 352 L312 357 L312 360 L308 364 L305 365 L304 364 L305 362 L305 338 L308 337 L310 339 L308 353 L310 352 L312 340 Z M172 335 L183 340 L196 349 L208 363 L210 368 L210 379 L204 388 L198 388 L195 392 L173 391 L162 383 L159 374 L162 373 L165 379 L166 370 L168 367 L175 369 L184 380 L188 381 L187 376 L191 376 L191 374 L185 369 L172 364 L173 362 L180 361 L193 365 L193 363 L189 361 L172 358 Z M161 334 L163 337 L163 349 L159 360 L151 368 L148 369 L142 369 L135 366 L136 364 L146 361 L152 355 L158 343 L159 335 Z M186 329 L204 339 L219 355 L222 363 L222 369 L220 375 L215 380 L213 379 L214 372 L212 364 L206 355 L185 331 Z M173 330 L177 327 L183 333 L183 335 L181 336 L175 333 Z M159 328 L157 333 L149 341 L137 346 L125 346 L115 340 L116 335 L126 340 L142 339 L152 333 L157 327 Z M377 329 L377 331 L374 334 L365 338 L342 338 L341 337 L342 335 L365 331 L373 326 Z M168 325 L170 324 L171 326 L169 327 Z M440 320 L443 331 L443 347 L440 354 L433 358 L432 352 L434 350 L434 347 L432 347 L426 350 L422 354 L417 364 L413 364 L409 357 L412 346 L417 341 L426 336 L428 337 L427 341 L429 341 L431 338 L432 330 L433 329 L437 330 L438 321 Z M72 320 L74 321 L74 328 L78 328 L80 330 L80 336 L82 340 L84 340 L84 337 L86 336 L90 338 L91 340 L93 340 L99 346 L101 356 L98 362 L92 363 L90 355 L82 348 L78 348 L80 353 L78 357 L76 357 L71 352 L69 346 L69 332 Z M180 318 L183 321 L182 324 L179 323 Z M77 319 L79 318 L85 326 L81 327 L78 324 Z M168 315 L170 315 L172 318 L171 322 L168 320 L167 317 Z M117 332 L117 325 L120 317 L123 314 L129 319 L138 323 L154 325 L154 327 L149 332 L136 338 L126 337 Z M161 312 L163 313 L162 320 L163 322 L168 324 L167 326 L162 326 L158 322 L158 317 Z M398 312 L391 323 L390 330 L387 336 L379 345 L365 350 L341 350 L329 356 L326 362 L326 369 L333 376 L339 375 L342 372 L343 375 L339 380 L335 382 L328 382 L323 380 L317 374 L315 370 L315 359 L323 347 L330 343 L338 341 L367 341 L373 339 L382 329 L383 325 L378 325 L380 319 L389 312 Z M432 310 L433 312 L425 324 L427 324 L433 318 L435 319 L435 323 L430 328 L427 328 L423 334 L413 340 L406 351 L407 363 L404 365 L406 370 L406 383 L404 389 L393 402 L378 408 L377 410 L387 409 L398 402 L404 395 L409 385 L410 374 L408 368 L420 367 L421 380 L414 397 L399 411 L384 417 L378 417 L366 409 L361 408 L361 405 L379 405 L391 397 L398 383 L395 360 L398 354 L401 355 L402 343 L407 334 L420 324 Z M167 311 L169 310 L170 312 L168 313 Z M197 301 L199 300 L200 302 L198 303 Z M124 307 L129 306 L128 301 L130 300 L133 304 L139 308 L138 310 L136 310 L136 312 L141 314 L142 317 L144 318 L154 319 L155 321 L146 322 L135 319 L124 310 Z M328 292 L331 295 L334 315 L345 328 L344 330 L332 327 L323 319 L322 321 L335 333 L323 332 L314 324 L308 311 L309 319 L317 330 L317 334 L306 328 L299 313 L297 315 L304 332 L290 313 L288 315 L292 319 L296 331 L289 327 L284 320 L279 319 L297 335 L295 338 L282 335 L280 337 L291 341 L302 340 L293 348 L283 347 L285 350 L303 347 L295 358 L284 360 L293 361 L303 357 L298 372 L288 379 L284 372 L281 372 L263 356 L261 340 L271 350 L261 330 L263 313 L272 306 L288 300 Z M334 293 L336 291 L341 292 L356 308 L366 313 L373 314 L377 313 L378 314 L377 318 L371 324 L364 328 L353 329 L346 326 L341 322 L337 316 L334 307 Z M343 289 L346 288 L350 290 L362 300 L369 303 L383 302 L384 307 L378 310 L368 310 L362 308 L357 305 Z M298 288 L307 287 L311 291 L307 293 L303 291 L300 292 Z M331 287 L333 286 L334 288 L332 289 Z M419 283 L423 286 L427 295 L427 307 L426 308 L424 307 L424 298 L417 288 L417 285 Z M310 283 L312 282 L316 286 L311 287 Z M384 297 L381 300 L376 301 L365 299 L360 296 L354 289 L358 288 L367 292 L368 290 L364 288 L365 286 L371 285 L374 282 L380 280 L382 282 L383 288 L378 291 L372 291 L372 293 L383 292 Z M324 281 L327 280 L328 283 L325 284 Z M421 280 L423 279 L426 283 L424 284 Z M341 279 L345 278 L346 280 L342 281 Z M158 289 L158 286 L164 281 L173 278 L177 280 L179 286 L178 294 L180 294 L180 291 L184 287 L192 283 L197 278 L200 279 L204 284 L203 290 L195 298 L195 300 L179 311 L174 310 L167 303 L167 301 L163 298 Z M351 278 L354 277 L355 279 L352 280 Z M336 277 L338 280 L338 283 L334 287 L333 286 L335 282 L334 278 Z M356 277 L358 276 L359 278 L357 279 Z M322 276 L324 277 L323 280 L320 279 Z M378 276 L377 278 L370 282 L367 281 L368 279 L376 275 Z M359 276 L361 275 L362 277 L360 278 Z M172 274 L174 273 L175 275 L173 276 Z M102 276 L102 280 L99 283 L97 281 L94 281 L88 286 L86 285 L87 281 L94 274 L99 273 Z M325 273 L329 272 L331 274 L331 277 L329 278 Z M377 271 L371 276 L367 277 L365 275 L372 269 Z M204 269 L209 270 L214 275 L215 278 L211 280 L203 272 Z M172 266 L173 270 L166 272 L166 274 L168 274 L169 276 L156 283 L155 281 L160 277 L162 277 L163 275 L161 274 L156 278 L153 278 L152 274 L160 268 Z M319 264 L320 263 L323 264 L326 267 L326 269 L324 271 L321 271 L319 269 Z M173 252 L179 254 L183 259 L183 270 L181 275 L179 275 L177 272 L176 264 L174 263 L172 255 Z M419 251 L422 253 L421 266 L425 265 L428 268 L436 284 L437 298 L435 307 L433 310 L431 309 L433 303 L433 291 L429 281 L417 270 L416 270 L415 276 L418 278 L418 280 L416 282 L409 275 L409 265 L412 258 L415 255 L418 255 Z M307 251 L310 253 L308 258 L306 257 Z M188 251 L189 255 L186 257 L184 254 Z M216 250 L218 252 L221 251 L224 254 L224 257 L226 258 L224 264 L217 272 L215 272 L208 266 L208 257 L212 255 Z M371 248 L372 258 L374 263 L365 270 L352 274 L351 272 L360 264 L360 262 L366 255 L367 251 Z M290 246 L294 247 L301 246 L304 249 L305 258 L307 259 L307 261 L298 269 L295 269 L288 260 L288 248 Z M193 245 L196 249 L197 267 L190 272 L189 268 L192 257 L192 251 L190 247 Z M170 239 L172 238 L184 250 L178 251 L171 244 Z M367 243 L367 246 L359 259 L346 272 L339 270 L323 261 L307 245 L308 242 L316 236 L318 239 L340 249 L344 252 L344 254 L346 254 L344 247 L350 235 L360 238 L361 240 Z M292 236 L294 235 L295 237 L293 238 Z M350 231 L351 230 L358 231 L360 234 L359 235 L353 234 Z M300 231 L303 230 L304 232 L307 231 L308 233 L306 236 L302 238 L301 237 L302 234 L300 233 Z M154 230 L157 230 L162 238 L167 242 L171 261 L170 263 L162 264 L151 270 L146 259 L143 258 L152 285 L163 302 L163 306 L158 311 L142 306 L131 295 L131 292 L134 289 L136 265 L140 247 L146 236 Z M365 230 L367 229 L368 231 L366 232 Z M375 228 L376 231 L374 235 L371 236 L369 234 L370 230 Z M161 226 L166 227 L171 236 L170 239 L167 238 L160 230 Z M363 226 L365 223 L368 222 L372 223 L371 226 L369 225 L365 227 Z M352 227 L354 222 L360 223 L357 228 Z M332 222 L334 221 L335 223 L333 224 Z M331 214 L332 217 L329 223 L327 233 L325 234 L321 224 L321 215 L323 214 L324 217 L327 217 Z M326 210 L329 209 L330 211 L327 212 Z M346 205 L346 208 L342 210 L339 210 L336 208 L337 206 L344 204 Z M298 203 L300 205 L300 208 L305 211 L305 220 L304 225 L295 232 L290 227 L287 221 L285 210 L288 209 L289 207 L296 206 L296 204 Z M328 203 L330 202 L331 204 L329 205 Z M335 202 L338 201 L339 203 L336 204 Z M186 202 L189 201 L190 204 L187 206 Z M319 199 L322 202 L321 204 L317 202 Z M219 200 L221 202 L220 208 L217 208 L211 204 L208 205 L208 207 L212 207 L215 210 L214 212 L211 212 L208 210 L208 212 L210 215 L216 216 L216 223 L214 224 L210 222 L209 226 L205 225 L204 226 L206 231 L203 235 L198 234 L191 227 L189 220 L187 220 L187 223 L191 232 L187 236 L186 239 L184 240 L178 235 L173 227 L173 223 L177 219 L183 216 L189 217 L189 215 L186 212 L191 211 L192 209 L195 209 L198 205 L203 203 L206 199 L214 198 Z M346 198 L348 197 L349 199 L347 200 Z M323 198 L325 197 L326 199 L324 200 Z M359 197 L358 201 L355 203 L352 203 L351 201 L356 196 Z M349 196 L351 195 L352 197 L350 198 Z M178 193 L184 197 L183 211 L179 215 L176 214 L176 211 L178 209 L177 202 Z M314 192 L317 193 L317 197 L314 201 L314 205 L316 207 L315 210 L316 229 L315 230 L311 228 L309 219 L307 217 L307 210 L305 205 L305 202 L308 197 Z M375 192 L380 198 L382 204 L382 212 L377 225 L375 224 L374 217 L371 217 L365 220 L358 219 L357 218 L358 212 L356 211 L353 219 L349 223 L349 227 L346 233 L343 235 L337 235 L337 236 L344 237 L342 244 L338 245 L332 241 L332 237 L336 224 L342 213 L347 212 L351 206 L359 205 L364 196 L366 196 L372 191 Z M368 190 L366 193 L363 194 L360 193 L362 190 L366 189 Z M222 191 L224 189 L227 190 L226 193 L223 193 Z M200 194 L205 190 L214 189 L218 190 L222 194 L222 196 L219 197 L215 195 L208 195 L201 198 Z M357 188 L358 191 L355 193 L354 190 Z M373 182 L374 185 L369 188 L368 185 Z M178 183 L180 182 L188 187 L196 189 L198 192 L197 193 L189 192 L179 186 Z M184 179 L187 176 L192 174 L199 175 L215 180 L220 185 L220 187 L216 188 L214 186 L208 186 L206 188 L201 188 L186 182 Z M209 174 L215 173 L216 175 L210 176 Z M206 173 L208 172 L209 174 L207 175 Z M202 172 L205 171 L206 173 L203 174 Z M358 171 L360 170 L361 172 L359 173 Z M195 169 L197 168 L201 170 L202 172 L201 173 L196 172 Z M343 167 L347 175 L352 179 L352 183 L342 192 L337 194 L332 194 L329 191 L330 189 L332 189 L330 182 L337 176 L340 168 Z M353 164 L355 163 L356 166 L354 167 Z M159 164 L162 174 L159 183 L152 188 L148 189 L146 187 L144 189 L139 190 L140 194 L134 196 L131 199 L130 205 L128 206 L127 204 L125 204 L118 212 L113 225 L112 253 L110 260 L107 262 L104 254 L105 225 L111 207 L115 201 L137 181 L143 177 L146 179 L151 178 L153 175 L154 165 L156 163 Z M362 161 L363 165 L359 166 L358 164 Z M340 161 L343 160 L344 163 L341 164 Z M209 153 L212 155 L212 159 L214 163 L212 167 L202 164 L202 161 Z M343 149 L347 150 L347 153 L345 156 L342 153 Z M318 138 L326 139 L331 148 L335 151 L335 153 L337 155 L339 154 L341 155 L340 161 L338 162 L339 166 L337 172 L331 178 L322 181 L318 179 L319 173 L321 172 L321 170 L317 171 L315 170 L316 164 L314 164 L313 167 L308 166 L310 163 L311 158 L310 153 L311 152 L314 153 L314 158 L317 159 L324 154 L322 153 L317 155 L315 152 L317 149 L323 150 L324 148 L322 147 L316 147 L311 152 L307 150 L307 143 L309 141 Z M358 131 L359 135 L357 140 L354 143 L354 145 L356 145 L357 147 L354 153 L354 156 L350 161 L350 165 L353 169 L353 172 L351 173 L348 170 L346 165 L350 154 L349 144 L351 140 L348 142 L345 141 L341 143 L339 141 L345 136 L350 137 L352 134 Z M307 134 L314 131 L325 130 L330 132 L334 136 L336 143 L333 145 L331 140 L327 136 L324 135 L317 135 L309 138 Z M201 131 L199 137 L194 142 L189 142 L187 144 L180 146 L174 151 L171 156 L169 155 L173 147 L179 141 L187 136 L190 136 L191 138 L193 138 L198 133 L199 130 Z M202 126 L203 128 L200 130 L199 128 Z M311 127 L314 124 L321 121 L333 120 L345 123 L351 130 L338 137 L332 129 L326 127 L317 127 L312 129 Z M315 114 L317 113 L318 115 L316 116 Z M338 111 L340 110 L342 114 L339 115 Z M325 114 L327 109 L331 111 L330 114 L327 115 Z M320 101 L322 100 L323 103 L321 104 Z M325 101 L327 98 L330 99 L329 103 L326 103 Z M327 84 L330 87 L329 90 L326 89 Z M326 73 L329 72 L330 75 L327 76 Z M257 17 L246 59 L241 61 L238 84 L242 92 L238 95 L227 83 L227 96 L218 115 L218 125 L224 137 L245 147 L252 155 L253 164 L245 156 L239 156 L238 149 L234 151 L238 159 L247 162 L254 173 L255 182 L260 154 L267 147 L283 141 L293 127 L293 112 L284 94 L284 83 L274 95 L270 92 L274 74 L271 61 L266 59 L266 52 L261 44 Z M255 108 L258 109 L268 125 L267 135 L262 142 L257 153 L254 152 L252 146 L247 140 L244 133 L245 122 Z M232 93 L234 94 L235 97 L235 103 L230 113 L230 126 L232 132 L239 139 L238 141 L230 138 L225 133 L221 121 L222 112 L224 111 L225 113 L227 113 L225 105 Z M280 92 L287 106 L285 111 L290 113 L290 125 L286 134 L280 139 L274 141 L273 139 L278 134 L282 124 L281 111 L277 104 L277 95 Z M255 78 L258 80 L269 97 L268 107 L273 103 L278 114 L279 123 L273 135 L271 134 L270 120 L267 117 L267 115 L263 112 L261 107 L258 105 L257 99 L255 99 L251 109 L248 111 L248 113 L245 115 L241 122 L240 135 L237 133 L233 124 L233 116 L235 109 L238 104 L240 104 L243 107 L242 100 L243 96 L253 83 Z M257 40 L263 54 L261 63 L265 64 L263 74 L268 70 L270 72 L271 80 L269 85 L266 87 L261 81 L260 76 L257 72 L257 69 L255 69 L252 79 L247 86 L244 87 L241 82 L241 75 L244 70 L249 73 L247 64 L252 63 L249 57 L249 54 L253 47 L254 42 Z"/></svg>
