<svg xmlns="http://www.w3.org/2000/svg" width="512" height="512" viewBox="0 0 512 512" aria-hidden="true" focusable="false"><path fill="currentColor" fill-rule="evenodd" clip-rule="evenodd" d="M186 397 L184 397 L171 412 L162 432 L164 432 L180 417 L182 412 L189 403 L189 401 L185 403 L183 402 Z M178 410 L179 411 L178 414 L175 415 L174 413 Z M181 406 L182 408 L179 410 L178 408 Z M181 404 L183 403 L184 405 L182 406 Z M326 396 L329 401 L328 402 L324 401 L324 403 L333 417 L349 432 L351 432 L351 430 L342 415 L342 412 L328 396 Z M334 411 L336 410 L339 413 L339 415 L337 416 Z M331 407 L333 406 L334 408 L332 409 Z M328 403 L330 402 L331 404 L329 405 Z M346 374 L346 376 L354 384 L361 388 L361 391 L365 395 L364 397 L361 395 L358 395 L342 379 L343 383 L353 393 L354 397 L360 398 L376 409 L378 409 L377 405 L370 398 L370 396 L365 392 L364 386 L348 374 Z M174 376 L155 395 L150 396 L149 394 L151 392 L151 389 L163 380 L169 374 L169 372 L167 372 L158 380 L151 384 L148 387 L146 394 L138 402 L135 408 L138 408 L153 398 L159 397 L162 390 L174 378 Z M167 350 L165 350 L163 347 L163 344 L161 344 L145 352 L134 351 L130 353 L126 360 L122 362 L122 364 L117 367 L117 369 L106 378 L104 382 L117 378 L124 378 L132 375 L140 375 L144 373 L147 369 L147 366 L151 362 L167 352 Z M141 357 L141 359 L138 361 L138 364 L140 364 L141 362 L144 363 L144 367 L141 371 L134 372 L133 370 L131 370 L130 372 L127 372 L124 375 L117 374 L121 368 L125 367 L128 363 L130 363 L129 360 L132 356 L139 355 Z M341 340 L341 342 L347 345 L347 353 L363 363 L366 370 L370 374 L381 375 L389 378 L396 378 L407 381 L407 379 L390 364 L389 361 L386 359 L385 356 L381 352 L375 351 L370 353 Z M372 357 L375 354 L379 355 L383 359 L382 363 L384 363 L387 367 L389 366 L395 372 L395 374 L389 375 L385 371 L379 370 L378 372 L374 372 L370 370 L368 364 L370 362 L374 363 Z M345 316 L345 324 L386 338 L392 343 L398 342 L432 346 L432 344 L416 337 L412 333 L408 332 L405 329 L401 329 L398 326 L386 325 Z M389 335 L392 334 L391 331 L392 329 L396 329 L398 332 L403 332 L407 334 L412 339 L411 340 L401 340 L398 337 L395 337 L394 339 L392 339 L389 337 Z M167 316 L122 326 L115 326 L112 329 L108 329 L104 331 L103 333 L99 334 L97 337 L81 344 L81 346 L104 343 L110 344 L114 342 L120 343 L127 338 L164 325 L164 322 L167 321 Z M122 330 L120 332 L120 334 L123 335 L121 339 L118 339 L116 336 L112 340 L101 340 L100 339 L101 337 L109 332 L115 333 L116 329 Z M122 329 L124 328 L125 330 L123 331 Z M346 299 L346 301 L399 307 L405 310 L415 306 L439 304 L439 302 L412 298 L409 295 L402 296 L350 295 L350 298 Z M352 298 L353 297 L383 298 L384 299 L404 299 L406 298 L408 300 L413 301 L414 303 L404 306 L400 304 L353 300 Z M73 304 L97 306 L105 310 L108 310 L114 307 L167 301 L167 299 L164 299 L163 295 L141 295 L140 296 L104 295 L96 299 L73 302 Z M160 298 L159 300 L120 303 L109 306 L105 306 L103 304 L98 303 L99 301 L102 301 L106 298 L109 299 L129 299 L146 297 L159 297 Z M341 274 L345 280 L383 278 L388 282 L395 283 L401 281 L408 275 L413 275 L414 273 L418 273 L431 265 L444 261 L444 259 L428 259 L410 256 L402 258 L396 254 L388 254 L378 264 L341 272 Z M378 273 L382 272 L383 274 L379 275 Z M364 270 L366 269 L367 271 L365 272 Z M369 269 L371 268 L372 270 L370 271 Z M373 268 L376 267 L377 269 L374 270 Z M379 267 L381 266 L382 268 L380 269 Z M384 267 L385 261 L391 257 L395 257 L398 260 L398 264 L406 260 L412 262 L413 260 L424 261 L426 263 L425 265 L417 270 L410 269 L409 272 L402 271 L402 275 L397 279 L390 279 L386 276 L387 271 L392 272 L391 266 L388 268 Z M69 259 L69 261 L83 266 L95 273 L98 273 L99 275 L105 275 L117 283 L125 282 L130 278 L169 280 L169 275 L172 274 L172 272 L134 264 L124 254 L117 254 L111 258 L102 256 L84 259 Z M140 274 L142 273 L143 275 L141 276 Z M131 273 L134 272 L135 274 L132 275 Z M146 270 L148 269 L149 271 L147 272 Z M140 269 L143 268 L144 270 L141 271 Z M135 268 L137 267 L138 269 L136 270 Z M130 267 L133 266 L134 268 L131 269 Z M129 265 L127 268 L122 269 L122 271 L125 271 L127 275 L123 279 L116 279 L110 274 L110 272 L103 272 L102 269 L95 270 L89 266 L87 263 L89 261 L98 260 L104 263 L104 261 L106 260 L114 264 L113 261 L114 259 L116 259 L117 257 L123 257 L124 259 L128 261 Z M434 214 L412 220 L400 220 L390 228 L359 243 L352 245 L338 252 L338 254 L341 253 L342 255 L340 257 L342 257 L393 238 L408 235 L410 230 L427 219 L434 216 Z M412 224 L405 232 L397 233 L392 236 L378 240 L355 250 L353 249 L354 247 L397 228 L402 223 Z M79 214 L80 217 L100 228 L105 235 L114 236 L170 256 L177 260 L179 259 L176 257 L178 255 L177 253 L123 228 L112 220 L101 220 Z M173 255 L175 254 L176 256 L174 257 Z M101 224 L110 223 L114 227 L134 237 L137 237 L157 246 L160 249 L158 250 L127 237 L124 237 L112 232 L107 232 L106 229 Z M96 169 L96 171 L109 185 L113 193 L120 198 L120 201 L129 205 L129 212 L134 218 L148 219 L185 241 L185 239 L180 236 L181 232 L177 229 L180 226 L156 205 L155 198 L150 192 L146 190 L137 190 L132 184 Z M171 230 L173 229 L174 231 L172 232 Z M168 228 L170 227 L171 229 L169 230 Z M172 224 L174 223 L175 225 L173 226 Z M161 223 L163 222 L164 224 L162 225 Z M168 221 L170 220 L171 222 L169 223 Z M158 221 L160 220 L161 222 L159 223 Z M148 214 L149 213 L152 214 L158 220 L156 221 L151 218 Z M152 209 L154 208 L156 211 L153 212 Z M110 181 L113 180 L118 183 L124 184 L127 190 L131 189 L137 194 L138 197 L140 197 L141 193 L147 194 L152 199 L153 202 L152 206 L149 208 L146 206 L142 207 L143 209 L147 211 L147 213 L144 216 L139 216 L135 214 L132 210 L132 207 L135 204 L133 202 L128 201 L123 194 L118 193 Z M417 168 L398 178 L389 180 L384 184 L380 184 L376 190 L368 190 L363 192 L358 197 L357 205 L330 228 L333 230 L329 234 L331 238 L335 238 L365 219 L377 219 L380 217 L384 211 L384 205 L387 202 L392 201 L393 198 L399 194 L400 190 L417 170 Z M340 229 L342 228 L343 230 L341 231 Z M336 226 L337 228 L334 230 L333 228 Z M349 223 L351 222 L352 224 L350 225 Z M341 222 L342 224 L339 226 L338 224 Z M352 221 L354 220 L355 222 L353 223 Z M345 219 L346 221 L343 223 L342 221 Z M365 214 L363 217 L357 221 L355 220 L362 213 Z M401 180 L402 182 L397 190 L393 194 L390 194 L385 201 L378 204 L381 207 L380 211 L374 216 L367 215 L366 211 L370 209 L371 207 L367 205 L366 207 L363 208 L360 205 L360 200 L362 197 L369 193 L372 193 L373 196 L375 196 L381 190 L385 190 L389 184 Z M128 136 L128 139 L136 154 L136 157 L139 159 L139 165 L145 168 L187 212 L198 214 L198 212 L194 211 L194 207 L191 205 L191 203 L184 195 L184 193 L181 191 L181 189 L178 187 L178 185 L166 172 L166 170 L159 162 L153 152 L148 151 L130 136 Z M188 208 L191 207 L192 209 L189 210 Z M156 167 L158 166 L160 169 L158 170 Z M138 148 L144 151 L148 157 L150 156 L152 157 L155 162 L154 164 L151 164 L153 168 L152 170 L143 163 L144 159 L139 155 L137 150 Z M386 135 L380 138 L369 148 L358 154 L353 163 L347 170 L347 172 L329 193 L329 195 L323 202 L324 205 L320 206 L319 210 L316 211 L316 213 L324 214 L331 207 L329 203 L332 200 L336 200 L368 168 L373 166 L374 159 L376 158 L377 153 Z M374 148 L375 151 L373 156 L369 159 L370 163 L360 171 L359 169 L361 167 L361 164 L358 166 L356 164 L362 156 L365 157 L366 153 Z M352 106 L350 106 L327 130 L326 137 L319 140 L314 145 L312 163 L297 195 L300 193 L302 194 L299 200 L302 204 L299 209 L301 209 L302 204 L326 170 L336 164 L341 156 L339 146 L344 142 L346 125 Z M311 185 L312 187 L309 190 L308 188 Z M304 185 L306 184 L307 186 L305 187 Z M314 180 L315 182 L312 185 L311 183 Z M343 120 L344 124 L342 133 L337 137 L340 138 L341 140 L331 149 L332 153 L334 150 L336 151 L335 160 L332 163 L326 164 L318 178 L316 179 L315 177 L324 162 L325 158 L327 157 L327 155 L323 155 L311 179 L308 180 L307 178 L316 162 L317 147 L322 143 L325 144 L324 147 L327 146 L329 138 L333 136 L332 131 L333 128 Z M160 105 L169 135 L168 140 L173 145 L172 157 L178 165 L187 170 L207 200 L211 199 L214 204 L215 202 L212 195 L215 194 L215 191 L200 161 L199 145 L186 136 L183 126 L162 105 Z M209 191 L211 190 L212 192 L210 193 Z M202 188 L204 187 L205 189 L203 190 Z M199 183 L201 182 L203 186 L201 187 Z M170 121 L173 122 L180 128 L180 136 L184 138 L185 145 L189 147 L188 144 L191 143 L196 147 L197 150 L196 160 L206 178 L205 180 L201 178 L190 154 L186 155 L186 157 L198 177 L197 179 L195 178 L189 169 L189 167 L186 164 L181 163 L177 159 L176 155 L177 151 L179 150 L181 152 L182 150 L172 140 L173 138 L176 137 L170 131 L169 124 Z M315 75 L313 75 L295 102 L295 107 L289 111 L286 131 L282 141 L283 144 L281 146 L274 175 L275 178 L278 177 L281 179 L279 183 L280 185 L287 172 L305 124 L310 118 L310 100 Z M276 174 L278 173 L279 175 L277 176 Z M277 170 L279 169 L280 172 L278 173 Z M285 166 L286 167 L285 171 L282 174 L281 173 L282 169 Z M278 167 L280 166 L281 168 L279 169 Z M288 154 L290 153 L291 155 L289 156 Z M292 143 L294 142 L295 144 L293 145 Z M307 93 L308 94 L307 107 L304 112 L307 117 L302 123 L300 128 L298 127 L300 120 L298 117 L296 119 L289 140 L284 161 L282 165 L280 166 L279 163 L282 156 L284 144 L286 142 L290 128 L292 114 L294 111 L298 111 L298 105 L302 100 L302 98 Z M198 75 L203 99 L203 118 L207 123 L224 167 L232 183 L236 180 L235 177 L238 177 L239 175 L232 145 L230 143 L231 141 L227 131 L224 111 L218 107 L217 101 L200 75 Z M234 174 L236 173 L237 175 L235 176 Z M233 170 L235 169 L236 171 L234 172 Z M232 167 L234 166 L235 168 L233 169 Z M228 165 L230 166 L232 172 L231 174 L228 171 L227 168 Z M231 163 L233 162 L234 164 L232 165 Z M225 161 L227 160 L228 162 L226 163 Z M221 151 L223 150 L224 152 L222 153 Z M207 94 L209 95 L215 105 L215 111 L219 111 L221 114 L224 131 L233 159 L232 162 L229 160 L225 147 L225 143 L217 119 L215 117 L213 120 L215 127 L213 128 L210 121 L206 117 L209 113 L206 106 L206 95 Z M256 68 L256 153 L252 171 L232 217 L227 216 L219 236 L206 244 L191 284 L182 280 L177 332 L183 349 L194 361 L179 365 L204 395 L217 402 L196 420 L194 438 L199 445 L213 447 L220 436 L227 437 L233 459 L238 460 L257 496 L274 460 L279 460 L284 438 L293 436 L299 447 L309 447 L318 439 L316 419 L295 402 L307 396 L333 365 L318 361 L332 344 L335 314 L330 282 L321 284 L306 244 L293 236 L287 217 L280 217 L257 158 Z M235 437 L240 436 L243 437 L243 443 L256 464 L258 463 L259 458 L269 444 L269 437 L270 436 L277 437 L280 443 L279 450 L276 455 L273 454 L272 451 L270 451 L271 461 L257 484 L254 482 L252 477 L242 463 L241 460 L242 452 L240 452 L237 455 L233 449 L232 444 L233 439 Z M256 424 L265 433 L266 436 L266 442 L257 455 L254 454 L246 440 L247 434 Z M197 429 L199 423 L208 415 L218 414 L227 419 L238 421 L247 417 L255 408 L257 408 L264 416 L274 421 L285 419 L294 414 L304 415 L312 421 L315 427 L315 434 L310 442 L303 445 L298 441 L297 437 L300 434 L306 436 L304 431 L296 430 L286 434 L274 433 L261 423 L257 416 L257 412 L254 415 L252 422 L244 430 L238 433 L226 434 L217 430 L210 430 L207 435 L213 434 L215 439 L214 442 L209 445 L199 438 Z M259 404 L273 401 L283 401 L291 405 L293 409 L284 415 L275 416 L266 413 Z M219 408 L224 403 L229 401 L247 402 L252 404 L251 408 L246 413 L238 416 L231 416 Z M281 379 L283 381 L281 391 L276 396 L272 397 L271 396 L273 391 L272 383 L278 379 Z M230 378 L240 383 L239 390 L241 394 L240 397 L236 396 L229 387 Z M255 370 L257 370 L265 378 L269 386 L269 391 L267 395 L260 400 L253 400 L248 398 L245 395 L243 390 L244 383 Z M322 369 L314 382 L305 392 L298 396 L291 398 L285 398 L283 396 L287 389 L287 380 L290 377 L297 375 L310 374 L310 372 L308 373 L294 372 L288 375 L281 374 L280 372 L283 369 L291 365 L306 365 L308 367 Z M191 369 L204 367 L206 365 L221 365 L229 369 L232 372 L231 374 L223 374 L219 372 L208 372 L207 373 L202 372 L202 374 L205 375 L216 375 L224 378 L226 391 L229 396 L226 398 L222 398 L210 394 L202 387 Z M276 372 L276 375 L274 378 L271 379 L256 361 L251 369 L245 374 L241 380 L237 376 L238 368 L256 351 L273 366 Z M205 327 L207 324 L210 324 L214 328 L208 331 Z M302 322 L307 325 L307 329 L304 331 L298 328 L299 326 L301 326 Z M311 319 L316 324 L317 328 L316 338 L311 347 L302 355 L287 361 L278 367 L274 362 L274 360 L287 354 L295 347 L300 334 L307 334 L311 330 L310 323 L303 321 L306 318 Z M201 319 L207 318 L209 320 L208 322 L205 321 L202 324 L203 332 L205 334 L212 334 L216 345 L219 347 L219 349 L227 355 L238 360 L235 366 L232 366 L227 362 L209 354 L200 345 L196 337 L196 325 Z M256 313 L258 314 L269 332 L268 342 L261 348 L257 344 L254 345 L253 348 L251 348 L245 343 L243 339 L244 330 Z M329 309 L331 314 L331 333 L329 340 L324 349 L318 356 L309 362 L303 361 L302 359 L313 350 L320 338 L321 327 L317 316 L322 310 Z M183 308 L190 310 L196 317 L192 324 L192 337 L196 346 L200 351 L210 359 L209 361 L204 362 L198 359 L188 349 L183 339 L181 331 L181 315 Z M325 289 L327 294 L327 304 L321 306 L315 316 L307 314 L306 311 L309 302 L317 294 Z M187 289 L199 297 L204 303 L206 308 L205 314 L197 317 L196 312 L193 307 L188 306 L185 303 L185 296 Z M256 278 L272 302 L272 311 L275 309 L278 310 L285 325 L284 342 L275 353 L268 356 L263 351 L271 345 L273 331 L261 312 L257 302 L254 304 L239 332 L241 345 L248 350 L249 353 L246 356 L237 353 L229 344 L227 339 L228 322 L236 309 L240 310 L240 303 Z M303 256 L305 256 L310 263 L317 280 L317 290 L309 297 L306 294 L306 288 L303 278 L296 267 L297 261 Z M210 256 L215 260 L215 263 L217 266 L209 279 L206 290 L206 297 L204 298 L195 289 L195 282 L197 274 L203 262 L208 256 Z M255 251 L285 278 L293 295 L292 325 L296 335 L292 344 L286 350 L284 348 L290 334 L288 321 L280 304 L276 303 L262 280 L257 266 L239 296 L237 303 L233 304 L225 318 L223 338 L228 348 L227 350 L221 345 L217 337 L217 331 L220 326 L219 296 L222 286 L228 277 L243 265 Z M255 225 L258 226 L268 243 L292 268 L300 282 L303 292 L303 315 L300 317 L298 325 L296 324 L298 300 L295 287 L289 277 L263 253 L257 242 L254 244 L251 251 L235 265 L220 282 L215 295 L216 319 L214 320 L210 315 L209 296 L214 278 L226 261 L248 238 Z M256 174 L276 215 L274 229 L283 222 L289 231 L289 237 L285 242 L285 249 L290 241 L297 241 L301 245 L302 251 L295 258 L294 263 L269 237 L260 222 L257 212 L254 214 L251 225 L244 236 L220 262 L211 252 L212 244 L218 240 L222 241 L225 249 L227 249 L228 244 L223 237 L223 231 L229 222 L238 231 L236 222 L237 212 L246 198 Z M256 17 L254 19 L252 30 L245 46 L245 54 L241 57 L241 65 L243 70 L245 86 L249 150 L251 151 L250 107 L245 60 L246 59 L251 60 L251 56 L249 54 L249 47 L254 34 L257 32 L264 49 L264 52 L261 57 L261 62 L263 62 L265 59 L268 60 L263 101 L262 140 L261 141 L261 159 L262 159 L264 146 L267 93 L272 58 L271 56 L267 54 L267 45 L262 35 L258 19 Z"/></svg>
