<svg xmlns="http://www.w3.org/2000/svg" width="512" height="512" viewBox="0 0 512 512" aria-hidden="true" focusable="false"><path fill="currentColor" fill-rule="evenodd" clip-rule="evenodd" d="M254 483 L251 486 L251 491 L255 495 L258 495 L262 491 L262 486 L259 483 Z M332 337 L329 346 L334 351 L321 375 L317 376 L312 393 L314 403 L321 410 L329 411 L331 418 L313 427 L303 437 L296 430 L292 461 L318 431 L341 427 L355 434 L357 440 L348 444 L360 461 L370 465 L398 462 L413 441 L421 442 L434 431 L409 432 L401 439 L396 432 L391 436 L381 431 L377 439 L374 433 L383 427 L415 427 L438 418 L448 408 L452 397 L446 379 L448 366 L440 372 L442 385 L432 392 L428 377 L424 376 L412 352 L417 342 L412 337 L406 339 L408 356 L389 389 L391 403 L398 410 L405 411 L406 416 L400 421 L374 424 L368 431 L370 441 L378 442 L379 437 L385 439 L382 446 L374 448 L366 443 L357 427 L336 417 L340 411 L353 405 L356 390 L351 376 L347 375 L335 350 L339 341 Z M392 449 L389 455 L383 456 L381 458 L371 458 L363 453 L364 451 L369 452 L370 454 L381 454 L389 447 Z M445 395 L445 400 L442 406 L436 412 L428 415 L427 417 L417 420 L411 419 L412 414 L415 411 L421 411 L428 407 L428 405 L431 402 L431 398 L433 394 L435 395 L436 398 L439 398 L440 393 L443 393 Z M348 393 L350 394 L349 398 L347 397 Z M396 391 L398 392 L397 400 L395 399 Z M422 387 L425 389 L425 400 L424 401 L422 400 L422 390 L421 389 Z M344 388 L346 387 L347 389 L345 390 Z M320 388 L322 387 L323 390 L321 391 Z M410 386 L414 388 L416 394 L416 400 L413 405 L407 404 L404 399 L405 392 Z M334 386 L337 388 L340 394 L340 402 L335 407 L331 405 L329 401 L327 400 L327 394 L330 389 Z M323 381 L326 380 L327 383 L325 384 Z M326 374 L332 366 L335 366 L340 371 L342 378 L339 379 L336 376 L336 374 L333 374 L331 378 L327 381 Z M410 365 L414 368 L418 374 L419 380 L422 381 L420 385 L412 376 L412 374 L408 376 L408 378 L405 380 L403 384 L400 382 L402 380 L402 375 L404 374 L404 372 Z M411 228 L406 232 L406 236 L410 240 L414 240 L418 236 L418 233 L416 229 Z M333 228 L329 232 L329 237 L332 240 L336 240 L340 237 L340 232 L338 229 Z M254 229 L252 231 L252 236 L256 240 L260 240 L264 236 L264 233 L259 228 Z M178 228 L174 231 L174 238 L177 240 L182 240 L184 238 L184 231 L181 228 Z M101 228 L98 231 L98 238 L100 240 L106 240 L108 238 L108 231 L105 228 Z M395 227 L392 230 L392 238 L395 240 L399 240 L402 237 L402 231 L401 228 Z M317 227 L314 230 L314 237 L317 240 L322 240 L325 236 L325 232 L323 230 L323 227 Z M241 227 L238 230 L237 235 L240 240 L244 240 L248 237 L248 231 L245 227 Z M160 228 L159 237 L162 240 L167 240 L169 238 L169 230 L167 227 Z M85 227 L84 230 L82 231 L82 236 L86 240 L90 240 L92 236 L94 235 L94 233 L91 227 Z M408 21 L406 27 L409 30 L409 92 L404 100 L409 104 L402 109 L402 113 L411 115 L399 128 L410 129 L411 133 L395 146 L398 153 L406 154 L406 158 L398 161 L395 168 L400 173 L405 171 L414 176 L405 177 L392 187 L391 199 L384 197 L391 209 L385 217 L384 225 L402 214 L431 212 L422 221 L429 232 L428 240 L420 245 L400 249 L391 257 L387 266 L391 285 L400 292 L416 296 L405 302 L401 308 L402 316 L412 324 L413 333 L417 330 L418 319 L408 309 L435 285 L438 270 L429 259 L414 259 L406 270 L412 279 L421 276 L419 272 L414 271 L417 265 L426 266 L431 275 L429 281 L420 288 L409 288 L395 278 L394 267 L400 258 L412 252 L426 250 L435 242 L436 230 L431 222 L438 215 L439 201 L435 198 L425 207 L414 208 L405 204 L400 197 L400 189 L406 184 L418 184 L423 189 L421 194 L416 190 L411 191 L413 200 L421 201 L431 191 L429 184 L422 179 L422 175 L429 171 L429 164 L414 156 L416 153 L422 153 L425 145 L422 140 L412 135 L413 132 L420 132 L422 126 L415 122 L421 112 L413 109 L418 105 L418 101 L412 98 L417 92 L414 88 L414 32 L417 23 Z M392 202 L394 201 L395 203 L393 204 Z M391 199 L393 198 L394 200 L392 201 Z M408 164 L417 163 L420 164 L421 167 L418 170 L416 170 L414 168 L409 167 Z M404 148 L410 143 L414 143 L416 145 L415 148 L411 150 Z M332 21 L329 24 L333 32 L331 94 L327 98 L327 102 L331 104 L324 109 L324 113 L333 115 L323 123 L322 129 L333 129 L335 133 L329 134 L319 144 L320 153 L329 154 L329 157 L319 164 L319 170 L336 176 L322 180 L314 189 L313 199 L307 197 L314 212 L307 217 L306 224 L310 224 L321 215 L354 212 L344 221 L351 230 L350 240 L345 244 L323 249 L310 262 L309 275 L313 285 L323 292 L338 296 L326 303 L323 309 L324 314 L333 321 L333 333 L336 333 L342 323 L330 310 L349 296 L359 283 L360 269 L354 261 L347 258 L336 259 L331 264 L330 275 L336 279 L343 276 L343 272 L336 271 L340 265 L348 265 L353 270 L353 279 L342 288 L324 285 L317 277 L316 270 L321 259 L334 252 L348 250 L357 242 L359 231 L354 222 L360 215 L363 204 L361 200 L357 200 L347 207 L337 208 L322 198 L323 188 L328 184 L340 184 L346 190 L343 194 L338 190 L333 191 L333 197 L339 201 L347 200 L353 192 L351 184 L344 179 L344 175 L350 173 L353 166 L337 156 L347 152 L349 147 L335 134 L342 132 L346 126 L336 122 L343 116 L343 112 L337 109 L342 101 L336 98 L339 94 L336 32 L340 24 Z M313 199 L315 198 L316 200 L314 201 Z M330 164 L339 163 L342 164 L343 167 L340 170 L338 170 L337 168 L331 167 Z M326 148 L332 143 L336 143 L338 145 L338 147 L333 150 Z M181 21 L173 24 L177 32 L176 92 L171 101 L176 104 L169 109 L171 115 L179 115 L166 125 L167 130 L178 129 L179 133 L163 145 L165 153 L174 155 L163 164 L163 170 L180 176 L166 180 L160 187 L159 197 L152 197 L159 209 L152 225 L170 214 L198 212 L190 221 L195 239 L190 244 L168 249 L154 266 L157 283 L165 291 L184 296 L169 306 L169 315 L180 324 L173 342 L177 353 L157 389 L159 404 L177 416 L173 421 L158 425 L139 448 L126 441 L133 437 L130 431 L121 437 L115 432 L111 439 L102 432 L91 434 L77 428 L88 441 L100 442 L106 456 L121 465 L143 465 L155 459 L165 444 L160 444 L156 436 L172 427 L195 431 L220 459 L217 431 L211 439 L200 427 L182 418 L184 411 L199 403 L200 389 L180 352 L184 346 L180 333 L186 321 L177 314 L176 308 L203 285 L206 273 L200 262 L184 258 L176 264 L174 273 L186 279 L187 272 L183 272 L182 267 L194 266 L198 277 L193 285 L176 288 L162 275 L163 263 L171 255 L191 251 L203 241 L203 228 L198 222 L207 211 L205 198 L193 207 L182 208 L166 196 L174 184 L190 188 L189 194 L184 190 L177 193 L180 200 L191 200 L197 194 L196 183 L188 177 L197 170 L196 163 L182 156 L190 153 L193 145 L180 136 L190 129 L187 123 L180 122 L189 116 L181 109 L186 101 L180 98 L183 93 L180 32 L184 28 Z M150 452 L148 455 L145 456 L143 455 L144 452 L147 451 Z M120 450 L124 448 L131 454 L141 454 L142 457 L141 458 L129 458 L123 455 L120 452 Z M164 391 L166 392 L165 400 L163 399 Z M191 387 L193 388 L194 391 L193 394 L190 392 Z M178 386 L183 389 L184 394 L186 395 L186 400 L179 407 L173 402 L172 397 L173 392 L176 390 Z M178 364 L186 373 L187 380 L190 381 L188 384 L184 382 L180 374 L177 374 L177 376 L171 384 L167 382 L168 380 L170 380 L170 375 L172 374 L172 372 L177 367 Z M175 165 L177 163 L183 163 L187 165 L187 168 L184 170 L182 168 L176 167 Z M182 145 L182 147 L179 150 L175 150 L172 148 L174 145 L178 143 Z M98 21 L99 92 L94 100 L99 104 L92 113 L102 115 L89 128 L101 129 L102 133 L87 144 L87 152 L98 155 L87 164 L87 170 L104 176 L88 181 L82 197 L75 197 L83 211 L74 224 L78 225 L89 215 L123 211 L113 222 L121 232 L114 244 L91 249 L78 264 L81 283 L91 292 L108 296 L92 308 L94 316 L104 324 L101 338 L96 343 L101 353 L89 375 L85 376 L81 391 L84 405 L88 410 L98 411 L101 419 L85 417 L70 405 L68 395 L73 393 L78 397 L78 388 L71 385 L73 374 L68 366 L65 366 L67 377 L61 400 L77 420 L97 427 L134 428 L139 436 L133 442 L140 442 L145 431 L139 424 L107 418 L107 412 L115 410 L124 400 L124 389 L103 351 L108 346 L103 335 L108 330 L109 319 L99 311 L128 282 L128 267 L116 258 L101 262 L98 272 L104 279 L111 278 L111 272 L105 271 L109 265 L121 269 L121 281 L110 288 L93 285 L85 275 L85 266 L95 255 L115 251 L126 242 L128 231 L122 222 L131 212 L129 198 L117 207 L106 208 L97 205 L90 196 L91 189 L98 184 L113 188 L112 194 L108 190 L101 193 L104 200 L112 201 L121 195 L121 186 L113 178 L121 170 L121 165 L105 156 L115 151 L116 144 L103 134 L114 127 L102 122 L111 116 L111 112 L104 109 L109 103 L104 98 L107 92 L104 87 L107 23 Z M89 398 L91 399 L90 403 L88 402 Z M116 390 L118 391 L117 400 L115 399 Z M91 387 L92 388 L91 395 L89 396 L88 389 Z M102 386 L108 391 L109 394 L109 400 L106 405 L100 405 L97 402 L97 394 L99 388 Z M103 365 L106 368 L106 370 L111 374 L111 380 L113 382 L110 384 L107 378 L103 374 L101 374 L101 376 L93 385 L91 381 L94 380 L95 374 L99 368 Z M107 294 L109 293 L110 295 L108 296 Z M81 198 L83 197 L84 200 L82 201 Z M98 165 L100 163 L107 163 L111 165 L111 169 L107 170 L106 168 L99 167 Z M95 148 L100 143 L104 143 L106 145 L105 148 L101 150 Z M255 18 L255 92 L249 98 L255 104 L246 112 L256 115 L245 123 L245 129 L257 127 L258 132 L242 143 L241 151 L252 156 L241 168 L258 176 L241 183 L237 200 L229 198 L237 209 L229 224 L248 214 L276 214 L268 221 L275 232 L273 239 L241 252 L232 267 L234 281 L241 289 L262 296 L246 309 L258 323 L251 342 L256 351 L235 389 L237 404 L254 417 L230 438 L225 450 L231 468 L246 476 L234 478 L223 472 L204 449 L185 449 L180 445 L173 448 L181 465 L192 474 L200 473 L190 463 L190 457 L196 454 L200 464 L208 464 L228 482 L242 484 L257 475 L277 484 L292 478 L305 464 L313 464 L317 454 L323 461 L312 474 L324 472 L332 465 L340 445 L309 449 L290 472 L278 478 L267 476 L285 463 L286 445 L259 417 L278 401 L278 387 L257 351 L262 346 L258 334 L264 319 L254 308 L275 292 L284 271 L274 259 L260 259 L254 265 L254 275 L265 278 L267 275 L259 269 L270 265 L276 278 L265 288 L255 288 L241 278 L240 267 L249 255 L269 251 L279 244 L282 231 L276 222 L285 212 L285 201 L281 198 L271 207 L260 208 L245 197 L245 189 L252 184 L264 184 L269 189 L267 194 L258 190 L258 200 L270 200 L275 195 L275 184 L267 178 L275 171 L275 164 L260 156 L268 153 L271 145 L257 134 L268 130 L268 125 L259 121 L267 113 L259 109 L265 103 L259 98 L262 21 Z M256 445 L262 450 L264 456 L260 461 L257 459 L253 461 L249 457 L250 451 Z M256 425 L262 431 L270 435 L278 443 L280 450 L279 460 L271 468 L264 469 L261 467 L262 465 L268 462 L269 451 L268 448 L258 440 L258 438 L255 438 L254 441 L251 442 L245 448 L244 451 L244 461 L248 465 L251 465 L252 466 L251 468 L249 469 L242 468 L234 461 L234 458 L232 457 L235 443 L243 435 L251 431 Z M244 389 L245 390 L244 399 L242 400 L241 392 Z M269 387 L271 388 L272 391 L271 401 L269 400 L268 390 Z M244 388 L246 387 L247 389 L245 390 Z M256 386 L261 390 L262 394 L264 395 L262 403 L258 405 L257 407 L253 405 L251 402 L251 392 L254 390 Z M264 381 L267 380 L268 382 L265 383 Z M257 364 L263 372 L263 374 L265 375 L265 380 L263 381 L259 377 L258 374 L255 374 L251 382 L249 384 L246 383 L245 381 L248 380 L248 377 L251 371 Z M262 294 L264 293 L265 295 L263 296 Z M237 201 L239 200 L244 206 L242 207 Z M252 165 L255 163 L263 163 L267 167 L264 170 L262 170 L260 168 L253 167 Z M261 144 L260 149 L255 150 L250 148 L252 145 L256 143 Z"/></svg>
