<svg xmlns="http://www.w3.org/2000/svg" width="512" height="512" viewBox="0 0 512 512" aria-hidden="true" focusable="false"><path fill="currentColor" fill-rule="evenodd" clip-rule="evenodd" d="M256 17 L224 82 L222 107 L214 104 L210 124 L184 158 L179 183 L173 181 L154 217 L149 245 L159 279 L149 267 L146 244 L141 239 L139 250 L117 285 L111 326 L118 348 L135 368 L140 382 L153 390 L165 390 L174 417 L209 441 L214 459 L244 479 L257 496 L270 478 L298 460 L304 441 L337 418 L348 390 L360 390 L374 380 L378 367 L397 343 L402 311 L396 286 L374 251 L372 239 L367 244 L364 266 L354 277 L362 256 L359 218 L340 181 L333 184 L329 159 L304 126 L298 106 L291 107 L285 72 Z M296 444 L295 451 L288 459 L270 468 L258 480 L257 483 L244 469 L225 459 L218 452 L217 444 L223 443 L223 441 L225 440 L238 448 L252 462 L255 469 L258 469 L260 463 L265 457 L280 444 L287 441 L293 436 L295 437 Z M228 394 L231 393 L234 395 L234 397 L231 398 Z M285 392 L286 394 L280 398 L279 395 Z M195 388 L199 377 L204 374 L211 389 L243 416 L256 433 L271 415 L301 390 L309 374 L316 382 L318 396 L314 408 L301 422 L270 442 L256 456 L244 443 L218 427 L201 411 L196 402 Z M256 330 L271 347 L274 353 L274 362 L281 359 L285 369 L283 383 L268 393 L271 395 L272 404 L257 419 L241 404 L243 392 L237 390 L228 378 L230 362 L232 360 L239 362 L240 350 Z M118 312 L124 288 L140 265 L152 286 L176 302 L183 314 L182 327 L170 338 L156 336 L151 326 L156 318 L165 325 L165 312 L155 308 L141 318 L141 336 L158 353 L182 356 L209 348 L241 318 L257 287 L268 313 L295 342 L323 355 L349 355 L370 340 L372 319 L365 311 L351 310 L346 314 L346 323 L350 325 L356 318 L361 329 L355 337 L342 338 L330 327 L330 313 L338 301 L364 282 L374 265 L390 291 L393 328 L383 352 L368 365 L355 367 L367 374 L365 379 L350 382 L337 371 L337 405 L323 421 L299 435 L321 411 L326 387 L317 369 L301 357 L301 374 L286 391 L292 380 L291 362 L255 312 L251 324 L222 362 L221 381 L227 391 L212 375 L212 357 L196 369 L187 386 L191 410 L213 435 L178 409 L173 397 L177 381 L174 369 L163 382 L145 376 L158 367 L147 366 L132 355 L123 341 Z M256 182 L264 190 L270 201 L270 213 L274 211 L278 212 L277 224 L264 236 L257 250 L255 249 L255 246 L247 233 L237 226 L234 218 L236 211 L243 213 L243 200 L248 191 Z M256 122 L267 145 L302 192 L303 211 L296 227 L313 232 L324 249 L322 256 L308 243 L290 246 L280 260 L281 281 L298 300 L309 304 L327 302 L322 315 L324 332 L345 348 L322 347 L300 336 L268 297 L262 279 L262 257 L268 243 L283 229 L286 215 L257 166 L231 201 L227 214 L230 229 L246 245 L251 258 L251 276 L240 305 L228 322 L204 341 L185 348 L166 347 L180 342 L189 331 L191 317 L186 303 L215 300 L232 280 L233 261 L223 246 L205 243 L191 256 L189 248 L206 226 L217 227 L210 212 L211 191 L245 146 Z M256 38 L282 86 L283 119 L293 119 L323 165 L326 190 L321 208 L336 197 L354 228 L351 268 L336 288 L322 295 L299 292 L287 276 L287 263 L298 251 L308 251 L315 259 L311 270 L299 272 L307 279 L321 276 L332 260 L332 247 L324 232 L308 221 L308 186 L268 131 L258 94 L241 137 L206 183 L203 210 L198 211 L201 223 L186 235 L181 246 L184 268 L198 279 L212 274 L212 270 L199 268 L199 256 L205 251 L217 252 L226 264 L221 285 L206 295 L182 292 L167 278 L159 259 L161 220 L175 197 L192 208 L187 193 L191 161 L214 133 L220 118 L230 119 L233 81 Z"/></svg>
