<svg xmlns="http://www.w3.org/2000/svg" width="512" height="512" viewBox="0 0 512 512" aria-hidden="true" focusable="false"><path fill="currentColor" fill-rule="evenodd" clip-rule="evenodd" d="M494 289 L467 294 L452 318 L451 302 L439 313 L434 326 L435 344 L445 359 L449 345 L459 351 L461 358 L455 366 L439 368 L413 358 L357 307 L325 268 L282 197 L257 132 L240 182 L205 246 L172 291 L121 344 L88 365 L61 368 L54 362 L56 349 L65 346 L68 360 L78 347 L80 329 L74 313 L62 302 L63 309 L58 310 L44 293 L36 295 L33 290 L20 289 L26 305 L17 345 L30 369 L56 380 L87 380 L138 370 L172 358 L214 333 L241 306 L258 280 L277 310 L327 350 L392 374 L454 380 L475 374 L492 358 L496 329 L487 297 Z M383 355 L385 354 L386 356 L384 357 Z M133 354 L135 353 L136 355 L134 356 Z M464 321 L465 322 L464 332 L460 334 L456 333 L453 329 L455 327 L458 327 L458 324 L460 321 Z M450 322 L454 321 L455 324 L451 325 Z M49 322 L53 321 L55 323 L55 329 L59 329 L60 332 L56 334 L52 334 L48 328 Z M61 312 L64 313 L63 323 L60 322 Z M42 298 L44 302 L44 310 L39 324 L39 331 L41 337 L46 342 L46 345 L43 348 L43 351 L40 353 L34 344 L33 330 L38 300 Z M473 297 L476 299 L476 308 L478 310 L479 315 L480 340 L478 347 L473 348 L471 350 L467 342 L472 338 L474 332 L474 321 L469 306 L470 300 Z M137 352 L165 331 L201 293 L240 236 L256 201 L265 215 L265 224 L270 225 L278 242 L308 285 L351 331 L378 351 L374 353 L339 335 L316 318 L296 298 L273 263 L257 223 L240 266 L217 300 L187 328 L139 354 Z"/></svg>
