<svg xmlns="http://www.w3.org/2000/svg" width="512" height="512" viewBox="0 0 512 512" aria-hidden="true" focusable="false"><path fill="currentColor" fill-rule="evenodd" clip-rule="evenodd" d="M129 316 L129 318 L139 319 L144 324 L149 325 L150 328 L147 329 L148 331 L153 330 L157 332 L160 331 L165 325 L168 325 L169 330 L164 333 L164 336 L166 339 L172 339 L175 348 L179 351 L182 349 L183 345 L188 345 L188 348 L183 352 L183 365 L185 366 L187 364 L191 370 L194 371 L197 385 L197 373 L199 370 L199 365 L197 363 L199 361 L199 345 L196 340 L188 337 L179 336 L176 332 L173 319 L166 314 L158 314 L152 317 L148 314 L144 314 L143 316 L136 314 Z M194 360 L196 359 L197 361 L195 362 Z M191 355 L193 354 L194 356 L192 357 Z M189 342 L191 341 L192 343 L190 344 Z M177 340 L180 339 L181 341 L178 342 Z M174 337 L176 336 L177 338 L175 339 Z M166 334 L168 333 L169 336 L167 337 Z M171 333 L173 332 L174 334 L172 335 Z M170 330 L172 329 L173 331 L171 332 Z M165 321 L168 320 L169 322 L166 323 Z M387 315 L386 314 L376 316 L375 314 L358 315 L355 313 L348 313 L344 315 L339 321 L338 333 L335 336 L328 336 L319 339 L314 346 L313 357 L315 357 L318 360 L313 370 L313 372 L316 373 L314 383 L315 384 L318 379 L317 375 L319 374 L319 371 L325 365 L328 365 L329 367 L331 366 L330 365 L331 353 L325 347 L329 340 L335 338 L339 341 L338 344 L336 342 L332 343 L332 349 L336 351 L336 349 L340 346 L340 339 L347 338 L350 335 L348 331 L349 327 L357 331 L360 329 L365 330 L366 328 L364 328 L363 326 L366 324 L367 321 L370 321 L373 318 L380 317 L383 320 Z M341 329 L344 328 L345 330 L342 331 Z M345 325 L348 324 L349 327 L346 328 Z M345 320 L348 319 L349 321 L346 322 Z M314 131 L315 142 L313 143 L316 153 L314 154 L315 159 L313 167 L317 175 L320 176 L321 179 L329 178 L331 180 L340 175 L341 178 L338 181 L337 187 L342 198 L347 201 L353 202 L360 200 L368 201 L369 203 L371 203 L372 200 L377 200 L378 203 L381 203 L381 201 L385 199 L379 197 L374 198 L373 195 L368 194 L364 190 L364 188 L367 187 L366 185 L353 185 L347 191 L344 188 L344 185 L348 184 L350 182 L350 179 L347 176 L341 174 L338 167 L334 166 L331 172 L325 170 L325 168 L331 161 L331 149 L329 148 L327 150 L321 146 L321 144 L317 141 L318 137 L316 135 L316 132 Z M340 181 L342 180 L343 182 L341 183 Z M330 173 L332 172 L333 174 L331 175 Z M336 171 L338 170 L339 172 L337 173 Z M320 170 L322 169 L324 173 L322 174 Z M199 131 L197 132 L196 140 L194 141 L194 144 L188 151 L186 151 L185 148 L183 149 L183 163 L188 168 L188 171 L184 175 L177 175 L182 171 L182 166 L177 166 L173 170 L173 176 L165 177 L163 185 L157 183 L151 185 L149 183 L148 185 L151 188 L147 191 L146 194 L141 194 L138 197 L129 198 L135 200 L141 199 L144 201 L167 201 L174 195 L176 187 L176 181 L174 178 L175 176 L180 180 L183 180 L184 178 L193 177 L194 174 L197 173 L200 168 L199 161 L201 160 L201 158 L195 155 L199 151 Z M166 193 L169 192 L170 194 L167 195 Z M173 184 L171 188 L168 187 L167 190 L165 190 L163 187 L164 185 L169 183 Z M166 179 L168 178 L169 180 L167 181 Z M191 169 L193 170 L192 174 L189 173 Z M176 169 L178 168 L179 170 L177 171 Z M189 158 L193 157 L194 161 L192 162 Z M257 16 L247 67 L254 84 L234 105 L229 117 L232 140 L227 144 L234 161 L219 163 L213 156 L215 144 L225 138 L220 118 L224 104 L216 84 L214 106 L204 120 L206 133 L213 134 L203 148 L206 163 L223 171 L240 172 L243 183 L237 187 L182 183 L182 243 L170 239 L168 220 L160 215 L160 207 L135 212 L126 203 L118 203 L107 213 L83 213 L119 224 L122 220 L137 223 L141 216 L154 214 L161 220 L157 235 L168 245 L165 251 L155 249 L150 231 L141 228 L141 235 L120 228 L107 233 L81 256 L68 249 L19 258 L42 258 L50 264 L56 259 L58 266 L68 267 L82 259 L89 269 L119 287 L150 284 L156 271 L154 259 L161 264 L180 261 L178 268 L166 271 L160 278 L158 299 L146 301 L134 293 L104 292 L82 301 L98 305 L108 301 L118 312 L129 309 L133 302 L140 309 L162 306 L170 285 L169 277 L164 281 L163 277 L169 272 L182 272 L184 318 L179 328 L183 333 L195 328 L236 328 L243 332 L236 345 L219 345 L207 358 L213 381 L207 384 L205 396 L213 406 L216 430 L224 401 L219 397 L223 379 L215 371 L214 357 L220 352 L241 354 L247 335 L255 336 L256 344 L250 349 L255 360 L235 361 L229 370 L235 373 L228 381 L234 409 L255 433 L247 445 L249 457 L257 458 L250 461 L257 497 L262 464 L256 461 L263 460 L266 448 L258 434 L285 401 L285 382 L278 373 L285 371 L274 359 L258 360 L263 352 L259 336 L267 333 L271 353 L297 355 L298 370 L291 376 L288 390 L293 396 L288 410 L297 429 L299 406 L308 392 L300 378 L305 356 L294 345 L274 343 L270 331 L320 328 L330 333 L330 272 L342 275 L348 300 L359 307 L378 303 L395 311 L404 303 L430 301 L405 291 L393 301 L388 300 L392 294 L384 293 L360 301 L353 295 L357 287 L352 276 L344 269 L333 268 L334 261 L343 258 L348 266 L359 259 L356 269 L363 283 L372 286 L375 282 L378 287 L399 286 L432 259 L441 266 L494 258 L472 253 L468 258 L467 252 L462 257 L461 251 L455 257 L453 250 L442 249 L423 261 L425 246 L407 233 L387 227 L374 233 L370 228 L360 236 L356 251 L346 249 L343 256 L331 251 L351 240 L355 225 L352 221 L357 215 L370 215 L379 222 L395 218 L408 223 L429 214 L404 212 L395 204 L383 207 L380 213 L352 208 L343 230 L344 238 L349 233 L350 238 L344 243 L330 243 L330 182 L318 187 L270 184 L270 170 L276 164 L280 166 L275 170 L282 173 L305 162 L307 147 L300 134 L307 133 L308 119 L299 106 L298 84 L289 112 L283 115 L258 78 L266 70 Z M256 457 L257 454 L261 455 L258 458 Z M257 449 L259 448 L260 451 L258 452 Z M249 444 L251 443 L254 448 L252 449 Z M261 441 L264 444 L264 447 L262 449 L260 448 Z M258 424 L259 429 L254 431 L253 429 L255 428 L255 425 Z M259 421 L261 420 L262 422 L260 423 Z M251 421 L254 420 L256 424 L252 425 Z M248 419 L250 418 L251 420 L249 421 Z M241 410 L243 409 L244 411 L242 412 Z M239 407 L241 406 L242 409 L240 410 Z M272 405 L274 406 L273 411 L270 410 Z M213 398 L215 399 L214 403 L212 402 Z M278 397 L280 396 L281 398 L279 399 Z M233 397 L235 396 L236 398 L234 399 Z M214 392 L216 391 L217 394 L215 395 Z M296 390 L298 391 L297 396 L294 395 Z M278 391 L281 390 L283 393 L279 394 Z M231 389 L233 388 L234 391 L232 392 Z M293 388 L295 387 L296 389 L294 390 Z M240 387 L242 387 L247 393 L246 399 L250 400 L251 404 L253 405 L252 408 L247 408 L238 397 L237 390 Z M216 388 L218 387 L219 389 L217 390 Z M273 386 L276 389 L276 394 L274 399 L272 400 L263 413 L258 417 L251 414 L250 412 L252 410 L254 410 L255 412 L258 412 L258 409 L263 400 L267 399 L266 396 L267 392 Z M259 389 L262 386 L265 387 L264 389 L261 390 Z M248 387 L251 386 L254 389 L252 390 L249 389 Z M214 386 L216 385 L217 387 L215 388 Z M266 385 L268 384 L269 386 L267 387 Z M244 385 L246 384 L247 386 L245 387 Z M255 381 L257 380 L258 382 L256 383 Z M277 380 L280 379 L281 383 L279 384 Z M232 380 L235 379 L236 383 L234 384 Z M217 380 L219 379 L220 382 L218 383 Z M255 376 L257 375 L258 377 L256 378 Z M276 366 L278 365 L279 367 L277 368 Z M228 350 L232 349 L233 351 L229 352 Z M282 349 L284 348 L285 351 L283 352 Z M224 347 L226 346 L227 349 L225 350 Z M271 346 L274 345 L279 350 L276 351 Z M241 345 L242 347 L236 351 L235 349 Z M255 334 L257 333 L258 335 L256 336 Z M329 327 L331 326 L332 328 L330 329 Z M190 324 L193 322 L195 323 L194 326 L191 326 Z M255 320 L257 319 L258 322 L256 323 Z M260 313 L262 314 L261 317 L258 316 Z M309 304 L311 303 L312 305 L310 306 Z M384 305 L386 301 L389 302 L387 306 Z M126 301 L128 302 L127 306 L124 305 Z M398 300 L400 301 L399 304 L396 303 Z M270 300 L271 305 L269 309 L266 311 L265 310 L266 301 Z M260 299 L262 299 L264 302 L264 305 L261 310 L258 309 L259 307 L258 301 Z M251 299 L255 300 L254 310 L252 310 L249 305 L249 302 Z M113 300 L115 299 L116 302 L120 304 L121 306 L116 307 L113 304 Z M292 298 L293 300 L284 310 L261 332 L259 328 L260 321 L271 311 L273 306 L276 305 L280 308 L282 302 L285 301 L286 298 Z M244 298 L247 299 L247 307 L252 313 L251 315 L243 307 L242 300 Z M158 299 L160 298 L161 300 L159 301 Z M254 324 L249 329 L234 314 L233 316 L241 324 L240 326 L198 326 L196 319 L202 315 L211 315 L210 304 L214 299 L218 298 L219 302 L222 303 L221 301 L222 299 L230 297 L232 307 L234 308 L235 306 L239 305 L242 311 L249 317 L248 321 L252 320 Z M273 297 L277 296 L280 303 L279 304 L276 303 L273 300 Z M118 297 L120 296 L123 301 L120 302 L118 300 Z M277 294 L279 293 L281 296 L278 297 Z M234 293 L240 297 L240 300 L236 304 L234 304 L232 301 L234 299 L234 297 L232 296 Z M215 294 L219 293 L220 295 L216 296 Z M296 292 L298 293 L297 296 L294 295 Z M228 290 L229 294 L227 296 L223 296 L222 292 Z M281 291 L286 289 L287 292 L289 291 L291 292 L291 295 L286 296 Z M346 289 L349 288 L350 292 L348 293 Z M164 288 L166 289 L165 293 L163 292 Z M294 288 L297 287 L298 289 L295 290 Z M286 287 L288 286 L289 288 L287 289 Z M349 285 L351 284 L352 286 L350 287 Z M288 285 L290 284 L291 286 L289 287 Z M388 281 L390 280 L392 283 L389 284 Z M239 289 L241 284 L250 283 L254 284 L255 280 L261 283 L261 287 L263 287 L264 285 L272 285 L274 287 L272 290 L263 293 L250 293 L246 289 L245 290 Z M123 280 L126 282 L125 285 L121 283 Z M394 280 L397 279 L398 281 L395 282 Z M378 280 L380 279 L381 282 L379 283 Z M292 280 L294 279 L297 281 L298 285 L294 286 L291 283 Z M115 280 L119 279 L120 281 L117 283 Z M229 280 L231 278 L234 278 L237 284 L233 285 L230 283 Z M220 278 L222 283 L216 290 L215 283 Z M404 275 L406 274 L407 276 L405 277 Z M252 274 L254 278 L250 282 L247 283 L246 278 L249 274 Z M106 275 L108 274 L109 276 L107 277 Z M344 274 L347 273 L348 276 L345 277 Z M341 272 L343 271 L344 273 L342 274 Z M326 271 L327 322 L322 326 L274 326 L273 323 L294 302 L295 298 L300 300 L303 304 L302 311 L305 315 L308 315 L309 318 L314 316 L316 319 L321 319 L317 314 L318 310 L316 309 L315 303 L312 301 L305 302 L302 299 L301 294 Z M296 277 L299 271 L303 272 L305 275 L302 279 L298 279 Z M238 271 L240 272 L239 279 L236 276 Z M210 272 L214 271 L217 277 L215 279 L211 279 L208 276 Z M273 270 L272 272 L266 272 L264 274 L265 282 L262 283 L259 280 L261 273 L267 268 Z M240 269 L247 268 L248 270 L245 272 L241 271 Z M183 268 L185 267 L186 269 L184 270 Z M128 268 L131 267 L132 270 L130 271 Z M299 266 L302 265 L303 268 L300 269 Z M211 268 L212 265 L215 266 L213 269 Z M95 265 L99 264 L100 269 L95 270 L94 269 Z M291 263 L292 265 L290 272 L287 278 L284 281 L282 281 L285 285 L283 287 L281 285 L277 287 L275 283 L278 279 L278 271 L279 270 L281 271 L281 276 L282 276 L283 268 L286 267 L289 263 Z M125 264 L127 263 L128 265 L126 266 Z M418 262 L419 268 L417 270 L414 270 L413 265 Z M283 263 L285 262 L286 264 L284 265 Z M385 262 L387 261 L388 264 L386 265 Z M255 261 L257 260 L258 263 L256 264 Z M75 261 L71 265 L68 264 L69 261 L73 260 Z M212 260 L214 259 L215 261 L213 262 Z M200 260 L202 259 L203 262 L201 263 Z M192 259 L196 263 L201 264 L202 268 L207 271 L207 274 L205 275 L205 277 L213 282 L213 289 L210 291 L210 293 L212 293 L213 295 L208 302 L200 301 L197 304 L196 314 L188 323 L187 322 L187 276 L191 274 L196 278 L197 277 L187 266 L187 260 Z M458 259 L460 258 L461 260 L459 261 Z M438 259 L440 258 L441 260 L439 261 Z M412 259 L412 262 L396 276 L391 278 L387 276 L387 272 L392 267 L398 268 L398 265 L404 261 L407 262 L409 258 Z M328 258 L331 262 L330 263 L327 262 L327 266 L301 291 L300 282 L309 277 L306 274 L306 271 L310 269 L318 261 Z M315 258 L316 260 L311 266 L306 268 L305 266 L312 259 Z M303 259 L306 258 L307 261 L304 263 Z M101 259 L104 258 L109 260 L111 263 L114 264 L114 268 L121 267 L126 272 L125 276 L122 278 L114 274 L101 262 Z M160 258 L163 257 L166 261 L162 262 Z M372 257 L375 255 L377 258 L373 259 Z M263 255 L266 258 L266 263 L264 268 L259 272 L253 272 L252 271 L253 267 L260 265 L261 263 L260 258 Z M179 256 L181 255 L182 258 L180 259 Z M136 256 L139 255 L141 258 L137 259 Z M333 254 L335 255 L334 259 L331 258 Z M198 254 L200 255 L199 260 L194 258 Z M57 257 L58 254 L61 255 L59 258 Z M348 254 L351 253 L353 257 L351 258 Z M306 254 L308 253 L309 255 L307 256 Z M88 253 L90 253 L93 256 L93 259 L90 261 L87 261 L84 258 Z M355 254 L357 252 L360 253 L359 256 L356 256 Z M299 253 L302 252 L303 255 L301 256 Z M254 252 L255 255 L251 261 L251 265 L248 266 L246 263 L246 258 L250 253 Z M210 252 L211 255 L209 256 L209 260 L208 261 L203 260 L202 258 L205 254 Z M153 253 L156 252 L157 255 L154 256 Z M204 250 L205 252 L201 254 L200 252 Z M385 250 L387 249 L388 252 L386 253 Z M204 248 L206 247 L207 249 L205 250 Z M298 247 L306 246 L310 249 L311 252 L309 253 L305 249 L299 250 Z M209 247 L214 246 L215 249 L212 250 Z M184 247 L181 251 L178 251 L178 254 L175 256 L171 256 L168 254 L168 250 L171 249 L172 247 L180 246 Z M129 245 L130 247 L126 251 L125 249 Z M95 246 L100 245 L101 248 L99 250 L96 250 Z M411 245 L416 244 L420 248 L417 251 L415 251 Z M381 245 L383 244 L384 246 L382 247 Z M167 240 L170 239 L171 242 L169 243 Z M108 239 L110 238 L111 240 L109 241 Z M401 240 L404 237 L407 238 L406 240 L403 241 Z M386 241 L389 237 L393 237 L401 241 L404 247 L408 248 L413 254 L411 256 L405 255 L402 252 L397 250 L398 246 L391 247 Z M285 237 L288 238 L293 254 L292 260 L288 260 L285 254 L282 244 L282 239 Z M127 241 L123 247 L121 248 L116 247 L115 251 L113 251 L106 256 L101 255 L101 252 L108 246 L112 246 L112 243 L114 240 L124 237 Z M228 236 L231 239 L231 245 L229 247 L229 250 L226 256 L227 259 L226 266 L230 268 L230 274 L226 276 L221 264 L221 250 L226 237 Z M299 235 L305 238 L303 242 L300 244 L298 244 L297 240 L295 239 Z M212 235 L218 238 L217 240 L215 240 L214 244 L208 239 Z M393 233 L396 232 L397 234 L394 235 Z M116 233 L120 232 L121 234 L117 235 Z M127 232 L128 231 L133 232 L134 234 L130 235 Z M382 233 L384 230 L392 231 L391 233 L384 234 Z M120 231 L124 230 L125 232 L121 233 Z M349 229 L351 228 L352 230 L350 231 Z M161 228 L163 227 L164 229 L162 230 Z M301 226 L304 225 L319 240 L322 241 L321 246 L329 245 L330 247 L327 250 L327 252 L331 251 L332 253 L328 256 L318 254 L311 246 L306 243 L309 237 L300 233 Z M295 225 L298 226 L298 232 L296 235 L293 235 L292 230 L294 229 Z M280 226 L283 225 L284 228 L282 229 Z M232 225 L233 227 L230 229 L229 227 Z M164 226 L166 225 L167 227 L165 228 Z M346 225 L348 224 L349 226 L347 227 Z M212 224 L213 233 L204 237 L208 243 L202 246 L195 254 L190 256 L184 256 L183 252 Z M216 223 L218 224 L222 233 L221 235 L219 235 L215 231 Z M259 221 L262 224 L264 222 L267 222 L272 225 L275 225 L284 233 L283 236 L280 236 L281 248 L279 249 L277 255 L277 258 L280 260 L281 263 L279 264 L276 262 L277 266 L276 269 L268 265 L268 257 L264 253 L265 246 L262 243 L263 240 L261 238 L260 231 L258 230 Z M255 221 L256 225 L252 233 L250 244 L248 245 L249 251 L244 256 L244 265 L236 269 L235 267 L237 265 L238 259 L236 258 L235 252 L232 247 L232 238 L228 234 L238 225 L241 225 L246 222 Z M293 219 L294 218 L297 219 L298 222 L295 223 Z M290 218 L291 222 L287 223 L287 225 L285 226 L284 220 L287 218 Z M223 219 L227 218 L231 221 L230 224 L224 223 Z M215 219 L218 218 L219 221 L216 222 Z M132 217 L134 216 L135 218 L133 219 Z M113 216 L113 218 L110 221 L104 218 L105 216 L111 215 Z M384 215 L386 214 L387 216 L385 217 Z M122 213 L123 215 L119 218 L118 215 Z M396 212 L400 211 L401 213 L397 214 Z M243 212 L247 211 L248 215 L244 216 Z M233 212 L234 211 L239 212 L241 217 L235 218 Z M278 210 L281 213 L281 219 L279 221 L273 217 L273 214 Z M258 213 L259 210 L264 211 L262 214 Z M113 211 L115 210 L116 212 L114 213 Z M119 209 L121 208 L122 210 L120 211 Z M283 208 L285 207 L292 215 L284 216 L282 213 Z M257 207 L258 209 L256 210 L256 213 L252 215 L250 213 L250 209 Z M265 203 L270 208 L269 211 L266 210 L264 205 Z M207 203 L209 204 L208 208 L206 207 Z M257 193 L259 197 L253 201 L252 198 Z M326 192 L327 193 L327 239 L322 241 L304 222 L301 222 L300 220 L302 216 L305 217 L308 214 L313 214 L316 212 L318 206 L317 201 L321 198 L324 198 L323 195 Z M188 192 L193 197 L194 203 L198 205 L197 208 L198 212 L201 214 L208 213 L213 219 L213 221 L208 223 L191 241 L187 238 L187 193 Z M272 190 L273 189 L322 189 L323 191 L318 192 L318 195 L315 197 L314 200 L304 201 L303 202 L304 211 L301 212 L299 215 L295 216 L291 209 L279 198 L280 195 L279 194 L276 195 Z M254 193 L249 198 L249 200 L252 200 L253 202 L250 203 L247 209 L244 208 L245 204 L242 205 L240 210 L227 205 L226 208 L231 209 L232 211 L228 213 L227 216 L222 216 L221 214 L223 212 L221 211 L217 216 L210 211 L211 208 L210 201 L197 197 L191 190 L192 189 L241 189 L242 192 L244 192 L247 187 L252 187 Z M327 185 L329 184 L332 188 L330 189 Z M183 185 L186 184 L187 186 L184 187 Z M258 184 L261 183 L267 189 L267 193 L270 193 L275 197 L275 201 L278 200 L282 206 L273 210 L270 203 L264 197 L264 193 L261 193 L259 191 L261 187 Z M255 181 L257 180 L258 182 L256 183 Z M241 172 L243 171 L244 173 L242 174 Z M287 167 L289 166 L290 168 L288 169 Z M223 167 L226 166 L227 168 L224 169 Z M252 166 L254 165 L255 167 L253 168 Z M233 165 L237 164 L242 169 L239 170 Z M226 164 L229 163 L230 165 L227 166 Z M213 162 L215 161 L216 163 L214 164 Z M237 156 L248 158 L252 160 L250 167 L252 170 L252 173 L256 174 L252 182 L247 180 L246 171 L243 167 L244 163 L238 163 L235 161 Z M251 156 L254 155 L255 159 L252 160 Z M209 149 L211 150 L210 155 L208 154 Z M302 149 L304 148 L305 150 L303 151 Z M234 144 L236 143 L237 145 L235 146 Z M299 143 L301 142 L302 144 L300 145 Z M255 140 L257 139 L258 142 L256 143 Z M218 132 L221 134 L219 138 L217 137 Z M280 131 L282 135 L278 138 L277 135 L278 132 Z M233 130 L235 131 L236 134 L235 138 L232 135 Z M265 130 L268 129 L269 131 L266 132 Z M260 127 L262 126 L263 128 L261 129 Z M251 127 L253 126 L254 128 L252 129 Z M208 127 L211 126 L212 130 L209 131 Z M302 126 L304 125 L305 128 L303 129 Z M230 126 L231 122 L235 123 L232 127 Z M302 117 L304 118 L303 123 L301 122 Z M294 118 L298 117 L299 121 L297 122 Z M219 117 L220 119 L215 122 L214 119 L216 117 Z M210 117 L212 118 L211 122 L209 121 Z M279 115 L281 116 L280 122 L278 121 Z M234 115 L236 116 L235 121 L232 118 Z M291 114 L293 117 L291 118 L292 129 L290 131 L291 136 L290 140 L292 142 L295 141 L299 145 L300 149 L299 160 L293 163 L291 163 L290 160 L278 161 L274 163 L273 166 L269 168 L267 173 L264 174 L267 176 L266 179 L267 183 L265 184 L260 180 L261 177 L258 176 L258 172 L263 168 L263 163 L258 158 L258 156 L261 155 L266 158 L271 158 L275 156 L277 158 L279 157 L279 153 L281 149 L286 144 L286 142 L284 142 L281 144 L280 147 L278 146 L278 143 L285 135 L284 120 L287 115 Z M299 114 L301 113 L302 115 L300 116 Z M211 114 L213 113 L214 115 L212 116 Z M271 108 L273 107 L274 109 L272 110 Z M252 107 L253 111 L251 114 L248 114 L248 116 L246 117 L247 121 L244 122 L245 125 L241 129 L240 126 L237 124 L238 119 L240 116 L244 115 L243 112 L247 108 Z M239 107 L241 106 L242 108 L240 109 Z M268 104 L271 103 L272 105 L269 106 Z M241 105 L242 102 L246 103 L244 106 Z M259 101 L262 102 L269 109 L270 112 L272 113 L271 117 L276 120 L276 127 L274 129 L272 129 L269 126 L270 123 L267 122 L268 117 L263 116 L262 111 L260 110 L258 106 Z M255 100 L256 105 L252 106 L251 104 Z M255 99 L257 98 L258 100 L256 101 Z M263 91 L262 93 L256 94 L251 97 L246 96 L247 94 L251 94 L251 90 L255 84 L258 85 L258 89 L261 89 Z M260 68 L262 67 L263 69 L261 70 Z M250 68 L252 67 L253 69 L251 70 Z M258 63 L260 62 L261 64 L259 65 Z M257 56 L259 55 L260 57 L258 58 Z M253 53 L255 52 L256 54 L254 55 Z M254 47 L256 46 L257 48 L255 49 Z"/></svg>
