<svg xmlns="http://www.w3.org/2000/svg" width="512" height="512" viewBox="0 0 512 512" aria-hidden="true" focusable="false"><path fill="currentColor" fill-rule="evenodd" clip-rule="evenodd" d="M17 266 L46 292 L49 306 L56 313 L69 318 L85 315 L75 324 L98 327 L113 322 L121 328 L135 327 L142 311 L129 305 L129 298 L141 288 L155 287 L168 292 L152 306 L152 317 L159 326 L173 326 L178 311 L206 328 L232 322 L246 325 L256 339 L267 325 L281 322 L307 328 L334 311 L340 326 L355 325 L361 317 L361 306 L345 292 L358 287 L372 288 L383 296 L385 304 L371 311 L372 321 L380 328 L394 327 L400 321 L415 327 L439 325 L433 318 L457 313 L467 292 L496 268 L488 265 L473 271 L444 272 L437 285 L449 297 L435 303 L416 288 L423 270 L410 274 L379 265 L379 247 L371 255 L346 260 L333 279 L321 284 L312 308 L290 311 L311 293 L315 262 L310 248 L297 258 L295 234 L267 196 L257 173 L218 234 L216 258 L203 248 L199 258 L202 293 L213 304 L223 306 L223 311 L201 308 L192 284 L180 279 L167 260 L142 255 L134 247 L134 265 L103 274 L90 270 L97 288 L78 303 L64 297 L76 286 L69 272 Z M427 316 L429 315 L430 317 L428 318 Z M256 300 L267 311 L266 319 L257 331 L251 325 L246 316 L246 311 Z M271 298 L277 299 L283 307 L283 310 L280 315 L273 320 L271 319 L272 312 L267 305 L268 301 Z M238 298 L242 298 L246 304 L241 313 L242 317 L241 320 L236 318 L230 310 L230 307 L234 301 Z M412 293 L414 292 L415 294 L413 295 Z M462 291 L462 299 L460 303 L453 310 L446 313 L431 312 L421 306 L416 299 L418 297 L430 306 L444 307 L450 304 L454 298 L453 290 L454 284 L459 286 Z M156 308 L165 299 L176 299 L186 304 L187 302 L179 292 L180 285 L185 284 L188 287 L188 294 L190 301 L198 311 L205 315 L212 317 L223 316 L227 314 L229 319 L225 322 L218 324 L204 323 L197 320 L180 307 L172 305 L165 309 L163 312 L163 315 L167 319 L170 315 L172 315 L174 319 L169 323 L162 322 L157 317 Z M51 291 L54 286 L57 284 L60 284 L61 286 L59 291 L59 298 L62 303 L69 307 L83 306 L95 297 L97 299 L92 306 L84 311 L78 313 L67 313 L60 310 L54 304 L51 299 Z M357 309 L356 317 L349 323 L344 323 L339 319 L341 315 L343 315 L345 319 L349 317 L350 312 L348 309 L342 305 L333 307 L316 320 L305 324 L294 324 L283 319 L286 315 L301 317 L308 315 L316 310 L323 301 L325 294 L325 287 L330 283 L333 286 L334 292 L326 302 L327 304 L337 299 L348 299 L355 305 Z M207 291 L211 289 L212 287 L218 289 L217 282 L223 281 L229 285 L232 291 L232 296 L228 302 L220 302 L215 300 Z M158 282 L160 281 L161 283 L159 284 Z M256 280 L269 293 L267 300 L265 302 L260 298 L257 293 L249 302 L246 300 L244 292 Z M352 282 L358 279 L374 279 L384 282 L386 285 L388 285 L394 291 L398 300 L398 304 L394 306 L394 308 L397 311 L396 320 L390 324 L384 324 L377 321 L375 314 L378 310 L381 309 L385 313 L385 316 L388 316 L389 314 L388 310 L389 298 L382 288 L371 283 L353 284 Z M157 280 L158 281 L157 283 L142 283 L133 287 L128 291 L124 298 L125 315 L129 316 L129 312 L132 309 L134 309 L137 312 L137 319 L133 323 L130 324 L123 324 L119 322 L116 319 L118 305 L115 304 L115 300 L119 291 L129 282 L138 279 L147 278 Z M442 286 L443 279 L450 274 L460 273 L470 275 L478 274 L480 275 L478 279 L472 285 L467 287 L462 282 L457 280 L453 281 L453 284 L450 285 L447 289 L445 289 Z M33 275 L34 274 L43 275 L52 273 L63 274 L70 279 L71 286 L68 289 L66 289 L61 284 L61 281 L58 280 L53 281 L48 286 L43 286 L35 279 Z M367 272 L375 269 L383 269 L393 271 L409 278 L416 278 L417 280 L411 285 L400 284 L400 286 L409 291 L409 294 L426 322 L418 323 L410 321 L402 315 L403 301 L398 289 L387 279 L378 275 L368 274 Z M146 272 L145 274 L132 276 L126 279 L116 288 L110 301 L111 315 L107 319 L96 323 L87 322 L93 314 L99 301 L103 296 L101 295 L97 297 L96 295 L102 289 L106 290 L113 286 L113 284 L103 285 L96 280 L97 278 L104 278 L120 271 L130 269 L142 270 Z M309 259 L311 266 L311 278 L309 283 L303 286 L303 289 L306 292 L296 301 L285 302 L281 298 L282 287 L287 282 L295 281 L296 282 L295 289 L298 289 L300 287 L300 274 L284 279 L279 284 L276 293 L274 293 L272 289 L273 281 L277 275 L282 271 Z M203 260 L206 259 L213 264 L216 264 L235 274 L241 284 L240 292 L239 293 L236 292 L236 288 L234 284 L229 279 L225 277 L220 277 L215 274 L213 274 L213 286 L211 287 L206 285 L202 277 Z M375 259 L374 262 L365 269 L364 274 L351 277 L340 285 L337 284 L337 279 L339 274 L350 262 L360 258 L374 258 Z M137 258 L138 257 L153 258 L163 262 L173 272 L176 279 L176 284 L173 285 L162 277 L149 274 L148 273 L149 269 L143 266 Z M256 244 L262 250 L263 257 L267 257 L269 261 L267 268 L260 276 L257 273 L253 276 L245 267 L244 264 L245 258 L250 257 L250 252 Z M256 214 L274 236 L281 250 L281 258 L278 264 L279 268 L271 276 L268 283 L266 283 L263 279 L271 270 L273 260 L271 255 L259 241 L257 236 L244 252 L240 260 L242 270 L250 279 L247 283 L244 282 L242 276 L234 268 L235 265 L232 259 L232 250 L235 242 Z M256 186 L274 211 L273 223 L280 219 L292 239 L292 260 L290 263 L282 267 L280 265 L285 259 L284 245 L277 233 L261 214 L257 204 L250 217 L236 233 L229 245 L228 259 L232 265 L229 266 L223 263 L220 257 L220 242 L224 232 L233 219 L240 223 L239 211 L249 199 Z"/></svg>
