<svg xmlns="http://www.w3.org/2000/svg" width="512" height="512" viewBox="0 0 512 512" aria-hidden="true" focusable="false"><path fill="currentColor" fill-rule="evenodd" clip-rule="evenodd" d="M251 246 L242 252 L240 257 L240 267 L242 271 L248 277 L259 279 L266 276 L270 272 L273 266 L273 259 L268 249 L261 246 Z M252 229 L239 233 L230 241 L224 252 L223 266 L227 279 L236 289 L246 294 L262 295 L275 290 L285 280 L290 260 L286 246 L276 235 L269 231 Z M250 237 L268 239 L268 244 L271 246 L275 245 L282 257 L280 273 L275 279 L263 287 L251 287 L236 278 L233 272 L235 268 L231 266 L231 255 L240 242 Z M255 17 L229 71 L222 71 L223 77 L212 94 L214 106 L193 106 L196 123 L166 132 L178 151 L176 158 L157 147 L158 134 L154 132 L164 114 L171 115 L175 122 L186 115 L174 84 L154 96 L147 87 L135 98 L114 86 L69 76 L82 118 L79 127 L90 143 L81 154 L88 163 L77 183 L93 184 L99 193 L109 197 L114 183 L105 180 L105 175 L121 162 L139 165 L150 184 L139 188 L124 174 L115 202 L101 199 L101 218 L70 229 L71 236 L58 239 L21 262 L69 287 L70 295 L93 305 L101 302 L100 324 L116 322 L123 348 L139 337 L147 340 L140 357 L119 359 L105 348 L114 339 L107 328 L100 328 L92 338 L77 339 L87 358 L80 367 L90 378 L83 384 L69 442 L110 430 L114 433 L134 422 L145 433 L153 425 L174 436 L175 421 L184 415 L185 405 L174 400 L166 409 L153 391 L155 376 L176 364 L176 376 L166 390 L194 398 L193 414 L215 413 L212 424 L223 440 L222 446 L229 446 L257 496 L283 446 L289 446 L299 417 L319 414 L317 399 L346 391 L336 376 L339 367 L348 376 L356 376 L359 393 L343 410 L337 400 L328 404 L328 415 L337 421 L337 436 L358 426 L367 434 L378 421 L383 429 L443 443 L429 385 L422 379 L432 368 L425 359 L435 340 L420 339 L413 329 L406 328 L398 339 L408 347 L391 360 L375 358 L366 340 L374 337 L389 350 L397 322 L412 324 L411 308 L443 295 L443 288 L491 260 L443 236 L443 230 L426 221 L412 222 L412 201 L397 203 L390 174 L374 188 L364 184 L375 165 L392 162 L407 172 L399 184 L406 194 L413 194 L421 185 L437 183 L426 164 L433 154 L425 143 L436 122 L446 76 L404 89 L400 86 L383 92 L379 98 L368 87 L360 96 L339 84 L328 116 L338 122 L343 112 L348 113 L360 130 L357 147 L349 148 L337 159 L334 148 L348 130 L317 123 L320 106 L298 106 L300 94 L290 71 L283 73 L281 61 Z M244 457 L249 462 L255 475 L257 475 L258 470 L263 461 L266 458 L269 461 L266 470 L262 474 L262 476 L260 477 L256 485 L254 484 L251 476 L248 474 L243 465 Z M278 447 L279 449 L274 458 L272 459 L270 457 L270 452 L274 447 Z M237 447 L242 453 L242 456 L240 459 L236 456 L234 452 L234 449 Z M275 441 L278 440 L280 444 L279 445 L276 444 Z M234 439 L236 440 L235 445 L232 444 L232 441 Z M432 434 L435 433 L436 435 L433 436 Z M241 433 L243 434 L244 438 L249 441 L255 438 L261 441 L264 441 L269 436 L270 433 L273 436 L273 441 L270 447 L268 446 L267 443 L265 443 L266 449 L265 455 L262 457 L262 459 L259 461 L256 467 L254 466 L252 460 L246 454 L245 451 L246 442 L244 442 L243 447 L241 446 L239 442 L239 435 Z M261 432 L264 431 L265 434 L262 436 Z M424 431 L426 430 L429 433 L425 434 Z M416 429 L418 428 L421 431 L418 432 Z M291 430 L290 434 L284 440 L280 432 L285 428 Z M221 428 L226 427 L232 432 L228 439 L225 438 L225 432 L222 432 L220 430 Z M403 427 L404 426 L412 428 L413 430 L409 431 L404 429 Z M108 427 L107 429 L104 430 L100 429 L101 427 L105 426 Z M388 424 L392 423 L393 426 L389 427 Z M110 423 L111 425 L108 427 L107 425 Z M76 431 L78 423 L82 424 L80 431 L91 428 L95 429 L93 432 L79 434 Z M432 422 L434 423 L435 429 L434 431 L432 431 L429 428 L429 424 Z M292 423 L295 422 L296 424 L293 425 Z M126 423 L128 422 L129 424 L127 425 Z M114 425 L116 422 L119 423 L118 427 L115 427 Z M269 422 L271 421 L273 424 L277 424 L278 428 L277 429 L273 428 Z M282 420 L285 421 L283 426 L280 424 Z M427 418 L429 417 L430 419 L428 420 Z M119 418 L121 417 L122 419 L120 420 Z M373 416 L374 420 L365 428 L363 426 L363 422 L365 418 L369 416 Z M270 417 L274 416 L275 418 L271 419 Z M82 416 L84 417 L83 420 L80 419 Z M385 416 L387 415 L389 417 L393 417 L394 419 L389 420 Z M151 416 L153 415 L155 418 L159 417 L164 420 L170 421 L173 425 L173 430 L171 431 L167 428 L160 426 L151 418 Z M361 416 L361 418 L349 428 L343 429 L341 431 L338 429 L338 426 L342 421 L348 420 L357 414 Z M289 412 L292 413 L296 418 L290 424 L288 423 L289 421 L288 413 Z M222 412 L223 422 L217 427 L215 420 L217 415 Z M127 412 L128 414 L124 418 L123 416 Z M350 411 L351 414 L346 417 L345 413 Z M160 412 L165 411 L167 415 L163 416 Z M111 411 L112 415 L110 419 L107 422 L102 424 L101 419 L107 418 L109 415 L109 412 Z M261 410 L264 414 L264 418 L262 420 L260 429 L258 431 L253 431 L252 430 L253 426 L250 424 L250 421 L248 418 L250 415 L253 414 L257 416 L259 411 Z M250 411 L252 410 L253 412 L251 413 Z M392 410 L394 409 L395 411 L393 412 Z M229 409 L232 411 L230 416 L231 422 L239 423 L241 418 L243 419 L243 424 L239 428 L231 428 L227 424 L226 415 Z M135 408 L139 408 L142 415 L147 418 L149 423 L147 427 L143 425 L144 423 L143 421 L140 422 L137 418 L138 412 L134 411 Z M370 413 L372 407 L378 408 L378 411 L376 413 L373 414 Z M427 405 L430 408 L429 411 L426 409 Z M332 405 L336 406 L337 409 L343 413 L341 418 L335 417 L330 412 L330 407 Z M357 404 L359 408 L355 412 L352 411 L351 409 Z M232 406 L234 404 L237 405 L236 408 L233 408 Z M180 404 L182 407 L181 413 L178 416 L171 418 L169 416 L170 413 L175 409 L175 407 L178 404 Z M85 404 L86 405 L85 411 L81 414 L80 413 L81 408 Z M274 404 L277 403 L284 412 L280 414 Z M152 402 L154 402 L157 405 L156 410 L152 407 L151 404 Z M416 401 L419 401 L422 404 L421 408 L424 409 L423 411 L421 411 L421 413 L425 415 L426 424 L424 427 L415 426 L412 421 L410 421 L409 423 L405 423 L401 419 L402 417 L410 418 L412 414 L417 411 L417 405 L415 403 Z M372 402 L374 401 L375 403 L373 404 Z M368 401 L369 408 L367 410 L363 410 L362 408 L365 403 Z M246 400 L248 400 L251 403 L250 411 L243 408 L243 404 Z M104 407 L106 400 L110 400 L113 402 L112 406 L107 408 Z M95 400 L96 401 L95 409 L97 412 L100 413 L99 422 L97 425 L86 426 L85 425 L86 417 L90 413 L90 411 L87 410 L88 406 L92 401 Z M294 404 L297 403 L298 400 L306 401 L307 399 L309 399 L314 403 L316 409 L305 411 L303 407 L301 410 L299 410 L294 406 Z M292 400 L294 399 L295 401 L293 402 Z M265 399 L269 403 L270 409 L262 411 L261 402 Z M144 399 L146 400 L145 404 L143 403 Z M387 401 L388 398 L392 399 L389 402 Z M196 409 L198 402 L204 398 L206 398 L207 400 L214 400 L217 398 L220 399 L218 405 L214 409 L210 410 L197 410 Z M362 397 L363 400 L360 403 L359 401 L360 398 Z M125 397 L126 399 L122 405 L119 405 L118 401 L120 398 Z M257 396 L261 395 L262 398 L259 399 Z M148 396 L150 395 L151 398 L149 399 Z M422 396 L426 394 L428 398 L425 399 Z M366 394 L368 393 L369 395 L367 396 Z M402 392 L405 393 L403 397 L406 399 L408 406 L407 409 L399 405 L400 401 L399 394 Z M270 391 L271 395 L267 397 L266 394 Z M241 392 L242 391 L245 392 L246 395 L243 397 L241 395 Z M99 392 L101 391 L102 393 L100 394 Z M86 391 L88 391 L90 395 L87 398 L84 397 L84 393 Z M281 389 L284 391 L285 396 L289 396 L292 398 L290 400 L291 404 L290 406 L286 406 L282 402 L279 395 Z M230 389 L233 395 L231 396 L230 401 L226 405 L222 406 L221 405 L222 399 L220 397 Z M109 389 L111 390 L112 393 L111 399 L106 394 Z M137 389 L140 388 L141 390 L138 391 Z M127 389 L129 388 L130 390 L128 391 Z M386 387 L387 389 L384 391 L383 389 Z M95 387 L96 388 L95 394 L93 395 L92 390 Z M415 386 L419 389 L420 392 L417 397 L415 396 L416 394 L416 390 L414 388 Z M266 387 L263 390 L259 391 L254 390 L255 388 L259 388 L263 386 Z M246 387 L249 386 L252 389 L249 390 Z M277 385 L278 389 L274 390 L273 388 Z M366 385 L368 384 L372 389 L370 390 Z M234 385 L236 384 L239 389 L235 390 Z M390 383 L391 385 L387 388 L386 386 Z M419 383 L422 382 L424 385 L420 386 Z M267 383 L270 382 L271 384 L268 385 Z M89 382 L94 381 L95 383 L91 385 Z M389 381 L391 380 L392 382 L390 383 Z M342 386 L341 388 L332 390 L319 396 L308 396 L298 391 L299 395 L294 396 L283 387 L284 383 L286 382 L288 386 L295 388 L296 386 L299 386 L300 389 L302 389 L303 387 L312 387 L321 385 L329 380 L335 380 Z M151 381 L153 380 L154 383 L152 384 Z M364 379 L366 378 L367 381 L365 382 Z M171 386 L171 384 L179 378 L182 378 L185 381 L197 386 L213 386 L225 382 L229 384 L224 391 L221 392 L219 395 L217 395 L216 392 L213 390 L205 395 L202 395 L200 392 L198 396 L188 394 L178 388 Z M402 375 L404 374 L405 376 L403 377 Z M395 375 L397 374 L398 376 L396 377 Z M239 373 L242 374 L243 380 L242 383 L240 382 L238 377 Z M375 372 L381 372 L385 377 L385 381 L381 386 L373 385 L370 380 L371 376 Z M97 374 L100 372 L103 372 L105 374 L105 377 L99 378 Z M130 372 L133 371 L138 372 L141 375 L141 381 L138 385 L133 386 L128 383 L127 376 Z M122 371 L124 370 L125 372 L123 373 Z M271 369 L274 371 L274 378 L272 380 L270 379 Z M277 367 L281 366 L283 370 L279 372 Z M231 366 L235 367 L233 372 L229 370 Z M102 367 L111 366 L114 369 L104 370 Z M249 367 L253 365 L262 366 L266 371 L266 378 L261 383 L257 384 L251 383 L246 378 L246 371 Z M94 365 L96 366 L97 370 L96 375 L91 373 L91 369 L93 368 Z M347 364 L350 366 L349 370 L345 368 Z M335 365 L337 364 L338 366 L336 367 Z M163 365 L167 364 L168 367 L164 369 Z M427 365 L427 367 L421 374 L417 376 L413 375 L411 379 L407 378 L406 374 L414 371 L416 366 L421 363 Z M313 364 L313 368 L315 369 L314 371 L310 372 L302 371 L302 368 L307 366 L309 363 Z M85 365 L88 363 L92 364 L90 369 L88 369 Z M199 363 L202 362 L204 365 L215 368 L216 370 L215 371 L200 371 L197 369 Z M411 361 L412 364 L409 365 L410 369 L407 371 L402 371 L401 367 Z M123 362 L125 361 L126 363 L124 364 Z M360 360 L362 359 L364 362 L361 363 Z M317 357 L320 359 L319 365 L317 365 L315 362 Z M273 360 L274 357 L277 358 L275 361 Z M365 357 L367 356 L368 358 L366 359 Z M333 364 L331 372 L324 379 L316 383 L310 384 L299 383 L288 380 L285 377 L289 372 L294 373 L296 377 L298 377 L299 375 L311 375 L320 372 L324 367 L324 363 L321 358 L322 355 L328 356 L331 359 Z M408 354 L409 357 L405 361 L400 363 L399 361 Z M180 361 L183 356 L190 354 L195 356 L197 359 L197 362 L195 364 L192 363 L191 359 L189 360 L188 366 L192 371 L192 374 L197 373 L211 375 L223 372 L227 376 L223 380 L211 383 L195 382 L189 379 L181 371 Z M104 355 L106 354 L111 359 L116 361 L117 363 L116 364 L111 363 L104 358 Z M241 353 L243 352 L246 355 L242 356 Z M258 351 L261 350 L262 352 L259 353 Z M250 351 L253 350 L254 352 L251 353 Z M235 351 L237 350 L238 353 L236 354 Z M352 346 L354 350 L352 354 L348 356 L347 363 L345 364 L343 360 L345 348 L348 346 Z M97 347 L101 346 L103 352 L100 353 Z M358 347 L364 345 L368 349 L368 351 L365 353 Z M263 346 L265 345 L268 348 L265 349 Z M149 345 L151 348 L146 353 L144 349 L147 345 Z M154 344 L167 347 L169 354 L168 361 L165 360 L164 355 L152 347 Z M278 344 L282 341 L286 345 L279 346 Z M226 344 L232 341 L234 345 L227 346 Z M427 340 L429 343 L427 344 L426 350 L423 356 L416 362 L414 357 L420 348 L421 342 Z M85 340 L88 340 L91 342 L92 348 L98 357 L97 361 L95 361 L88 354 L84 343 Z M254 340 L255 339 L259 340 L261 342 L261 345 L260 346 L255 345 Z M320 338 L318 349 L315 354 L305 363 L298 366 L285 366 L282 363 L283 361 L286 361 L288 359 L293 359 L303 355 L311 346 L312 342 L316 341 L318 337 Z M223 338 L226 337 L227 339 L224 340 Z M192 338 L197 337 L200 340 L200 342 L206 351 L214 358 L214 360 L216 360 L217 358 L225 359 L226 360 L225 365 L216 366 L203 360 L194 348 L194 343 Z M107 338 L109 337 L110 339 L108 340 Z M222 333 L223 335 L221 337 L221 340 L219 341 L216 338 L216 336 Z M289 333 L290 332 L293 333 L296 336 L296 339 L292 340 Z M250 333 L252 332 L254 335 L252 336 Z M408 331 L411 332 L416 338 L416 347 L413 353 L410 352 L411 340 L404 334 L405 332 Z M106 331 L107 332 L106 336 L103 337 L100 342 L97 342 L96 338 L98 334 L102 331 Z M276 330 L278 335 L276 343 L273 346 L269 347 L268 342 L270 339 L270 332 Z M311 330 L314 329 L316 334 L313 335 Z M258 330 L263 329 L264 332 L260 333 Z M249 330 L251 329 L252 331 L250 332 Z M201 329 L202 331 L198 335 L197 330 Z M237 328 L243 330 L242 338 L249 343 L248 348 L246 347 L246 345 L240 346 L236 342 L235 332 Z M294 327 L295 329 L292 331 L291 329 Z M310 334 L310 339 L307 346 L304 350 L298 354 L293 356 L279 356 L274 353 L275 350 L281 351 L292 349 L301 343 L302 334 L297 329 L298 326 L305 328 Z M208 327 L211 326 L215 327 L215 329 L210 334 L210 341 L213 345 L224 350 L232 350 L233 353 L231 356 L217 355 L206 347 L203 340 L203 335 L205 330 Z M303 322 L306 321 L309 323 L309 325 L307 326 Z M296 320 L297 319 L302 320 L303 322 L297 323 Z M219 320 L218 323 L209 323 L204 327 L201 325 L207 320 L213 319 Z M242 325 L251 318 L255 320 L257 317 L259 317 L264 321 L266 321 L271 326 L271 329 L269 330 L264 326 L257 327 L248 326 L244 328 Z M222 317 L225 317 L230 320 L230 324 L232 327 L230 329 L229 334 L226 333 L225 328 L221 325 Z M287 316 L292 318 L294 323 L288 327 L287 332 L284 334 L282 332 L283 318 Z M184 316 L187 317 L186 321 L182 320 Z M321 313 L327 316 L325 320 L319 316 Z M197 309 L196 313 L192 317 L190 313 L194 308 Z M144 307 L148 307 L150 311 L147 320 L144 317 L143 310 Z M145 300 L147 301 L146 305 L144 304 Z M368 299 L370 306 L370 314 L368 320 L365 321 L361 315 L364 310 L366 300 Z M400 298 L403 299 L407 303 L408 306 L408 320 L407 321 L400 318 L401 314 L398 315 L396 311 L396 308 L398 307 L397 300 Z M333 299 L335 298 L336 300 L334 301 Z M180 299 L182 298 L183 300 L181 301 Z M114 298 L115 307 L117 308 L115 316 L110 320 L106 320 L105 319 L106 303 L111 298 Z M336 294 L338 295 L337 299 L335 298 Z M182 295 L184 294 L188 296 L189 299 L187 300 L183 298 Z M139 290 L144 291 L141 300 L141 305 L139 307 L140 308 L139 311 L141 313 L143 324 L149 329 L149 331 L151 331 L153 327 L151 323 L153 320 L157 320 L161 324 L161 331 L156 336 L148 337 L143 335 L136 328 L133 322 L132 303 L135 293 Z M372 289 L378 294 L378 297 L380 300 L381 305 L380 322 L375 331 L371 335 L367 336 L366 334 L363 334 L362 337 L359 337 L352 332 L352 327 L355 326 L355 321 L359 320 L361 322 L360 329 L364 331 L364 329 L371 323 L374 315 L375 305 L372 302 L371 296 L369 293 L369 291 Z M181 289 L182 291 L179 293 L179 299 L177 300 L175 298 L176 292 L179 289 Z M128 289 L130 290 L131 293 L129 302 L129 319 L130 324 L135 332 L135 337 L129 343 L127 342 L123 335 L119 322 L119 313 L123 305 L123 303 L119 302 L119 299 L123 293 Z M382 288 L385 289 L394 300 L393 303 L389 303 L394 314 L394 321 L390 335 L384 343 L382 343 L377 336 L383 322 L384 306 L386 305 L386 303 L384 303 L382 300 L382 295 L380 292 Z M360 287 L363 290 L363 302 L360 310 L349 321 L334 326 L333 323 L335 318 L346 314 L352 308 L356 298 L356 289 Z M337 292 L336 294 L332 292 L326 292 L322 294 L322 296 L319 298 L319 305 L316 306 L314 304 L314 299 L316 298 L316 296 L313 296 L311 291 L321 287 L328 287 L334 289 Z M185 287 L192 287 L203 291 L199 297 L199 303 L197 305 L194 304 L193 297 L184 291 Z M414 287 L416 286 L417 289 L415 290 Z M153 286 L157 287 L157 298 L160 306 L167 314 L167 317 L176 316 L180 323 L179 326 L171 324 L161 319 L154 312 L150 302 L150 289 Z M438 289 L431 296 L425 295 L422 300 L416 300 L410 295 L411 293 L420 293 L425 291 L429 285 L433 285 Z M76 290 L80 286 L83 285 L90 292 L102 293 L103 295 L100 299 L93 301 L91 299 L91 296 L89 297 L82 296 Z M408 285 L411 284 L412 287 L409 288 Z M388 286 L391 284 L398 286 L407 297 L405 298 L399 295 L395 295 Z M124 285 L124 287 L117 295 L113 295 L109 297 L107 296 L108 292 L114 286 L118 288 L120 284 Z M377 284 L379 283 L380 286 L378 287 Z M133 286 L134 283 L140 284 L138 287 Z M344 282 L345 290 L343 297 L341 298 L340 292 L335 286 Z M436 282 L439 281 L440 283 L437 284 Z M425 281 L426 285 L422 288 L421 283 Z M169 281 L177 286 L176 288 L172 288 L173 293 L171 295 L169 294 L168 289 Z M88 281 L92 283 L90 288 L87 285 Z M152 281 L154 280 L156 283 L154 284 Z M350 279 L353 285 L353 297 L347 309 L339 314 L327 313 L322 307 L323 298 L326 295 L329 295 L330 297 L327 299 L327 305 L331 308 L339 307 L346 299 L348 291 L348 280 Z M163 279 L165 280 L165 293 L167 299 L174 307 L182 308 L186 304 L190 305 L189 310 L184 314 L179 315 L178 312 L172 313 L164 307 L160 298 L161 293 L160 285 Z M395 279 L401 278 L405 280 L406 282 L404 284 L401 284 L397 282 Z M387 278 L389 281 L387 283 L384 283 L383 281 Z M354 279 L357 278 L361 282 L360 283 L355 282 Z M113 279 L103 288 L99 290 L93 289 L94 285 L101 285 L107 280 L111 278 Z M456 277 L454 280 L448 283 L443 282 L443 280 L449 275 L453 275 Z M57 277 L59 275 L63 275 L68 279 L76 281 L77 283 L68 284 L61 281 Z M342 277 L340 280 L335 283 L331 283 L330 280 L327 280 L326 282 L323 281 L327 276 L334 277 L340 274 Z M90 274 L93 275 L91 279 L88 278 Z M415 275 L417 273 L421 273 L425 277 L421 278 L416 277 Z M438 271 L440 273 L440 277 L433 278 L431 275 Z M392 271 L394 272 L393 276 L390 275 Z M359 272 L361 271 L362 273 L360 274 Z M162 271 L164 272 L163 276 L160 275 Z M118 272 L121 271 L123 275 L120 276 Z M455 271 L457 270 L458 273 L456 274 Z M70 274 L75 270 L80 274 L82 274 L83 276 L80 278 L74 278 Z M343 268 L346 270 L344 274 L341 273 Z M400 268 L408 267 L412 272 L409 275 L402 275 Z M103 268 L111 267 L112 268 L111 273 L109 275 L106 275 Z M465 265 L467 269 L463 272 L460 268 Z M394 265 L396 264 L397 267 L395 268 Z M347 265 L349 264 L350 267 L348 268 Z M326 265 L330 264 L331 266 L327 267 Z M163 265 L165 264 L166 267 L164 268 Z M478 261 L480 260 L481 262 L479 263 Z M394 257 L396 256 L397 259 L395 260 Z M347 257 L349 256 L350 259 L348 260 Z M333 260 L342 256 L344 258 L344 260 L342 261 L344 266 L343 267 L337 266 L333 262 Z M326 257 L328 256 L329 259 L327 260 Z M182 257 L185 256 L187 259 L183 260 Z M173 256 L174 258 L177 259 L177 264 L173 267 L170 267 L169 264 L172 262 L169 259 Z M470 255 L472 255 L475 258 L475 264 L471 267 L468 265 L471 262 L471 260 L469 259 Z M164 255 L166 256 L165 260 L163 259 Z M32 260 L42 255 L45 258 L41 260 L41 262 L50 265 L53 269 L49 272 L45 268 L34 263 Z M117 254 L119 255 L118 260 L115 258 Z M84 257 L94 254 L96 256 L100 255 L103 256 L99 260 L100 267 L98 269 L85 265 Z M430 256 L431 253 L434 254 L432 257 Z M449 251 L451 255 L454 255 L459 258 L459 264 L453 268 L450 267 L450 270 L448 272 L446 270 L439 270 L436 262 L438 256 L441 255 L442 253 Z M374 251 L380 255 L382 259 L382 263 L378 270 L375 270 L374 272 L369 272 L364 267 L365 261 L363 257 L368 252 Z M140 251 L147 253 L150 257 L149 268 L143 272 L139 272 L138 270 L135 270 L131 264 L131 259 L133 255 Z M63 251 L71 252 L72 255 L74 255 L78 261 L74 266 L72 266 L71 269 L65 271 L53 263 L53 258 Z M460 249 L464 250 L467 253 L467 257 L464 258 L461 255 L458 254 Z M399 252 L401 250 L406 249 L407 252 L410 253 L410 255 L418 254 L429 257 L432 260 L432 263 L422 268 L418 268 L414 264 L414 261 L411 258 L401 257 L399 255 Z M51 249 L54 254 L46 258 L45 253 Z M391 249 L393 248 L394 251 L392 252 Z M109 248 L111 250 L110 254 L104 257 L101 251 L105 250 L106 248 Z M352 247 L354 250 L352 252 L349 252 L348 250 Z M118 251 L120 247 L124 248 L121 252 Z M414 247 L416 246 L418 249 L416 250 Z M430 248 L434 245 L438 245 L442 247 L443 250 L435 251 L431 250 Z M426 246 L423 250 L419 249 L422 245 Z M450 247 L452 244 L456 245 L454 248 Z M78 244 L80 246 L80 249 L74 253 L73 246 Z M396 244 L398 243 L399 245 L397 246 Z M348 242 L350 241 L351 244 L349 245 Z M335 241 L340 245 L339 248 L341 251 L344 251 L345 254 L344 255 L339 254 L338 251 L327 252 L322 257 L321 261 L322 271 L324 274 L324 276 L322 277 L319 275 L311 262 L317 252 L327 245 L328 241 Z M180 241 L185 245 L187 249 L189 248 L193 249 L201 261 L196 272 L191 277 L189 277 L188 282 L179 283 L173 280 L175 276 L179 277 L186 276 L191 270 L192 262 L190 260 L191 258 L190 255 L184 251 L176 252 L172 248 L172 246 L176 242 Z M382 241 L384 240 L385 242 L383 243 Z M437 240 L445 239 L446 241 L443 244 L438 242 Z M129 239 L130 243 L125 246 L124 241 Z M104 239 L109 238 L114 244 L111 245 L107 243 Z M80 240 L79 242 L72 242 L63 248 L60 248 L57 246 L58 243 L66 239 L74 238 Z M423 237 L426 239 L425 242 L421 240 Z M411 237 L411 239 L402 245 L400 244 L400 242 L404 238 L407 238 L408 236 Z M363 240 L363 238 L366 236 L370 238 L369 240 L366 241 Z M144 237 L147 236 L149 239 L145 240 Z M413 235 L418 234 L419 236 L414 237 Z M92 234 L99 234 L102 236 L101 238 L94 237 L91 240 L91 245 L93 247 L96 246 L97 242 L99 243 L99 248 L96 250 L92 250 L87 246 L88 243 L87 238 Z M178 233 L180 232 L181 234 L179 235 Z M172 231 L176 238 L169 244 L168 236 L169 232 Z M342 230 L344 231 L345 235 L344 243 L342 243 L337 238 Z M114 229 L118 228 L119 231 L122 233 L120 238 L115 237 L111 234 Z M405 229 L403 234 L397 238 L390 239 L388 237 L394 231 L396 227 L399 229 L403 228 Z M175 228 L177 227 L178 229 L176 230 Z M413 226 L415 224 L421 223 L423 225 L422 229 L430 228 L435 232 L435 236 L432 238 L429 238 L425 233 L418 231 Z M178 224 L180 223 L181 225 L179 226 Z M76 234 L82 228 L86 229 L90 228 L91 223 L99 224 L106 231 L105 233 L99 231 L92 231 L87 233 L84 238 Z M366 223 L368 222 L369 224 L367 225 Z M248 222 L265 222 L269 227 L273 225 L278 228 L282 235 L289 238 L297 256 L296 273 L288 288 L279 296 L261 303 L242 300 L241 296 L232 295 L223 286 L216 272 L215 257 L222 240 L237 226 Z M190 221 L191 225 L189 228 L186 230 L183 230 L182 228 L186 225 L186 222 Z M312 232 L316 219 L319 220 L320 227 L327 233 L332 233 L335 230 L335 227 L331 225 L332 223 L336 224 L338 227 L337 232 L334 235 L329 237 L318 237 L315 236 L314 233 Z M197 218 L199 221 L199 228 L202 234 L194 237 L182 236 L181 235 L182 233 L188 232 L193 227 L194 219 Z M159 214 L161 218 L159 220 L157 227 L157 235 L153 236 L150 233 L151 221 L154 215 Z M191 212 L195 211 L196 214 L193 215 Z M327 212 L331 210 L337 210 L339 212 L342 212 L349 218 L353 226 L354 234 L351 235 L350 239 L348 238 L348 232 L344 222 L337 217 L331 217 L328 219 L327 225 L331 228 L330 230 L326 230 L323 227 L322 219 Z M186 212 L190 216 L191 219 L189 220 L182 217 L174 218 L167 226 L165 233 L165 244 L163 245 L161 240 L160 227 L165 217 L176 210 L182 210 Z M349 207 L354 207 L358 211 L362 219 L363 233 L360 237 L356 235 L356 225 L353 218 L348 212 Z M364 206 L369 207 L370 212 L369 219 L366 219 L364 217 L365 212 L361 210 L361 208 Z M325 206 L326 209 L319 217 L317 217 L316 214 L322 207 Z M186 207 L190 206 L192 209 L189 211 Z M407 204 L409 213 L408 219 L404 224 L398 227 L397 226 L398 217 L396 216 L398 209 L401 206 Z M106 204 L111 205 L117 213 L117 216 L115 217 L116 224 L115 226 L109 224 L106 221 L105 218 L105 205 Z M147 203 L149 208 L153 207 L154 209 L148 219 L147 224 L145 225 L143 211 L145 204 Z M335 204 L338 201 L346 203 L348 207 L343 209 L336 207 Z M178 204 L176 207 L171 208 L164 214 L159 214 L157 212 L157 210 L160 207 L167 203 L176 201 Z M200 199 L201 198 L206 199 L208 201 L208 204 L206 205 Z M311 196 L313 200 L307 205 L305 205 L304 202 Z M291 194 L294 193 L295 195 L292 196 Z M313 191 L315 190 L316 192 L314 193 Z M197 191 L199 190 L202 193 L198 195 Z M229 189 L231 197 L230 205 L226 206 L225 209 L221 207 L214 207 L212 203 L220 201 L225 196 L226 190 Z M359 188 L369 189 L373 191 L378 197 L376 201 L378 201 L381 206 L381 218 L378 229 L375 233 L373 233 L371 230 L371 225 L374 219 L374 210 L372 208 L373 206 L370 200 L367 197 L361 197 L360 200 L362 201 L362 203 L359 205 L355 204 L352 200 L353 193 Z M249 190 L252 188 L255 190 L261 188 L263 195 L260 196 L258 193 L250 192 Z M157 189 L161 194 L161 201 L158 204 L154 205 L152 203 L153 198 L151 196 L148 196 L144 199 L141 205 L139 219 L141 221 L141 225 L144 233 L143 234 L137 233 L132 219 L132 206 L135 197 L143 189 L147 188 Z M224 185 L226 184 L227 186 L225 187 Z M404 183 L406 184 L405 189 L402 186 Z M294 183 L296 185 L296 189 L291 193 L290 187 L288 187 L287 194 L293 201 L299 202 L300 205 L298 207 L292 207 L288 210 L285 210 L282 199 L283 190 L286 184 Z M416 179 L417 180 L416 188 L410 191 L409 187 L412 184 L412 180 Z M385 179 L393 196 L394 211 L389 222 L393 221 L394 224 L392 228 L385 235 L382 236 L380 232 L384 219 L384 205 L379 193 L378 187 L379 184 Z M129 179 L135 185 L135 192 L129 204 L129 221 L131 225 L131 229 L126 233 L119 224 L120 221 L123 221 L123 218 L119 211 L119 203 L123 189 L127 183 L127 180 Z M96 179 L100 178 L101 182 L105 186 L107 186 L107 184 L110 183 L111 187 L106 191 L102 191 L97 187 Z M279 177 L287 176 L289 179 L282 183 Z M224 179 L227 176 L234 177 L232 182 L229 182 Z M255 175 L261 177 L261 181 L257 185 L255 184 L254 180 Z M266 174 L275 179 L278 184 L278 187 L275 188 L275 190 L278 190 L279 192 L275 198 L271 198 L268 204 L256 211 L246 205 L244 201 L246 198 L252 199 L257 196 L263 199 L268 196 L271 191 L271 187 L269 183 L263 177 Z M248 174 L249 178 L242 185 L243 196 L237 198 L234 189 L235 184 L241 176 Z M147 177 L149 173 L156 174 L155 177 L153 176 L150 178 Z M368 171 L369 172 L368 176 L366 178 L363 178 L361 174 L365 171 Z M411 171 L414 170 L416 175 L413 176 L411 174 Z M258 171 L262 170 L263 172 L259 173 Z M250 171 L253 170 L254 172 L251 173 Z M99 169 L103 171 L101 177 L97 175 Z M274 170 L279 167 L291 167 L301 171 L308 178 L311 184 L311 188 L308 194 L305 197 L299 199 L298 194 L303 190 L303 184 L299 178 L295 175 L288 173 L275 173 Z M233 167 L235 169 L234 173 L221 174 L217 176 L210 184 L211 192 L218 193 L220 191 L216 188 L216 186 L220 183 L223 189 L222 195 L216 199 L212 199 L208 197 L205 194 L204 189 L202 187 L206 177 L212 171 L218 168 Z M366 165 L368 164 L369 167 L367 168 Z M145 164 L148 165 L149 171 L148 173 L144 172 Z M345 163 L347 163 L348 167 L350 167 L353 170 L353 172 L356 174 L355 177 L346 175 L344 168 Z M255 163 L258 162 L259 165 L256 166 Z M404 162 L407 161 L411 166 L408 168 L404 164 Z M234 162 L238 161 L240 164 L237 166 Z M168 161 L169 168 L167 175 L159 177 L157 174 L159 172 L163 172 L166 162 Z M418 160 L425 167 L428 178 L430 180 L429 183 L425 183 L421 178 L420 171 L416 167 Z M364 160 L365 162 L363 164 L363 168 L361 169 L360 161 Z M339 160 L341 164 L343 178 L350 180 L352 184 L354 182 L360 182 L361 184 L356 186 L350 191 L348 200 L339 198 L333 193 L331 193 L331 197 L329 201 L322 204 L317 204 L316 202 L318 199 L319 193 L328 188 L323 182 L321 173 L331 171 L336 161 Z M152 183 L170 179 L176 160 L183 171 L192 174 L187 190 L194 192 L196 201 L203 207 L220 210 L229 217 L238 202 L254 213 L253 217 L230 224 L219 235 L210 258 L213 279 L221 292 L236 304 L250 308 L267 307 L284 299 L296 286 L302 271 L297 240 L282 224 L259 217 L259 213 L277 202 L286 217 L293 210 L308 208 L315 203 L317 208 L311 228 L305 236 L319 243 L307 261 L311 274 L319 281 L304 292 L311 299 L314 315 L329 324 L331 332 L348 326 L350 334 L358 341 L342 344 L340 355 L335 359 L330 353 L320 351 L327 336 L320 334 L316 324 L303 316 L283 310 L280 320 L274 324 L254 312 L235 321 L227 309 L198 322 L193 333 L185 336 L193 350 L174 357 L170 344 L157 339 L165 326 L181 332 L183 325 L195 320 L200 312 L202 300 L209 290 L194 283 L206 263 L194 242 L208 233 L193 204 L184 201 L180 193 L165 200 L162 189 Z M97 160 L99 164 L93 173 L92 180 L88 183 L84 183 L83 181 L86 177 L90 165 L95 160 Z M355 160 L357 159 L358 161 L356 162 Z M277 159 L278 164 L274 165 L273 162 Z M265 159 L266 162 L262 165 L261 161 Z M247 159 L250 160 L252 164 L250 165 L246 162 Z M399 159 L401 158 L402 160 L400 161 Z M283 159 L285 157 L297 157 L309 162 L314 167 L319 177 L321 187 L319 188 L313 183 L312 178 L303 168 L293 163 L286 163 L283 161 Z M229 159 L225 163 L220 163 L210 168 L204 174 L200 182 L200 185 L198 187 L194 188 L192 187 L195 175 L203 163 L212 158 L217 157 L227 157 Z M149 161 L151 157 L154 158 L151 162 Z M117 158 L116 160 L110 163 L106 167 L103 165 L106 161 L115 157 Z M241 156 L244 155 L245 159 L243 160 Z M155 154 L157 153 L158 155 L156 156 Z M343 158 L347 153 L350 152 L356 152 L359 154 L358 156 L351 157 L348 160 Z M299 153 L301 152 L302 154 L300 155 Z M211 153 L213 152 L214 154 L212 155 Z M161 153 L162 152 L166 153 L170 158 L166 161 L161 156 Z M103 153 L107 152 L109 156 L105 158 Z M403 154 L405 150 L411 153 L411 155 L408 157 L405 157 Z M302 154 L305 153 L305 151 L307 150 L309 152 L316 153 L317 155 L313 160 L311 160 L303 156 Z M207 150 L208 156 L201 160 L200 153 Z M279 149 L283 151 L283 154 L281 156 L278 155 Z M232 148 L234 149 L235 153 L234 156 L231 156 L229 153 L229 151 Z M100 148 L102 147 L103 149 L101 150 Z M415 150 L417 149 L418 146 L420 146 L425 150 L429 156 L427 158 L421 158 L417 155 Z M97 146 L99 150 L97 155 L93 158 L88 158 L86 156 L88 151 L93 146 Z M404 145 L408 143 L412 143 L415 149 L412 150 L410 148 L405 147 Z M393 143 L394 147 L392 151 L388 154 L387 152 L390 149 L391 144 Z M101 143 L103 142 L104 144 L102 145 Z M272 140 L274 142 L274 153 L272 157 L269 158 L268 155 L270 154 L271 149 L270 141 Z M240 140 L242 141 L242 152 L241 153 L238 150 L238 144 Z M286 144 L289 142 L305 139 L306 142 L308 142 L309 139 L319 141 L322 143 L322 146 L327 145 L332 151 L332 155 L330 156 L330 158 L333 159 L332 164 L327 169 L321 169 L316 165 L316 161 L318 159 L321 162 L324 162 L324 156 L320 151 L311 147 L300 147 L289 151 Z M226 144 L223 150 L220 150 L214 147 L203 147 L193 151 L189 156 L189 164 L192 163 L193 159 L197 161 L197 165 L193 169 L186 169 L181 164 L180 160 L181 152 L189 143 L201 139 L212 139 Z M253 137 L259 137 L263 139 L267 145 L266 152 L260 157 L252 157 L246 151 L246 144 Z M420 138 L423 136 L425 139 L421 140 Z M382 135 L386 139 L386 146 L383 150 L379 151 L373 146 L372 142 L376 136 L379 137 Z M137 135 L142 140 L142 144 L137 150 L134 148 L131 150 L127 145 L127 141 L131 140 L132 138 L135 138 L135 136 Z M130 136 L132 135 L133 137 L131 138 Z M389 135 L391 134 L393 138 L391 139 Z M243 134 L246 135 L244 138 L241 137 Z M87 135 L91 134 L94 139 L93 140 L89 139 Z M125 133 L126 136 L122 138 L121 136 Z M126 131 L129 130 L130 132 L127 133 Z M421 130 L421 133 L418 136 L411 138 L406 137 L408 134 L416 133 L419 129 Z M383 130 L385 129 L386 131 L384 132 Z M275 129 L276 131 L273 133 L272 131 Z M259 130 L262 129 L266 131 L271 137 L268 138 L263 133 L260 133 Z M235 130 L238 129 L240 132 L237 133 Z M257 129 L256 132 L252 132 L249 135 L247 134 L248 130 L255 128 Z M399 131 L401 127 L407 128 L403 132 Z M144 127 L146 126 L147 128 L145 129 Z M284 134 L291 127 L295 125 L299 126 L298 130 L301 130 L307 126 L318 126 L338 133 L339 141 L337 143 L330 144 L321 138 L313 136 L300 136 L286 140 L284 138 Z M229 135 L226 140 L213 136 L198 136 L186 141 L183 144 L178 143 L174 139 L176 133 L194 126 L205 126 L214 130 L214 126 L217 125 L221 127 Z M266 125 L269 124 L271 128 L269 129 Z M241 126 L243 124 L246 125 L245 128 L242 128 Z M427 123 L430 124 L430 128 L428 132 L425 131 L425 125 Z M95 123 L97 124 L96 131 L100 134 L106 134 L108 136 L107 138 L100 137 L93 132 L92 127 Z M84 124 L89 123 L90 125 L88 128 L86 128 Z M414 123 L418 122 L421 124 L421 126 L419 127 L415 125 Z M249 122 L254 121 L255 124 L250 125 Z M274 117 L276 118 L275 122 L273 121 Z M367 116 L370 117 L369 122 L366 119 Z M421 115 L423 118 L421 120 L418 120 L417 118 Z M395 115 L397 117 L397 120 L392 124 L390 124 L389 121 L391 117 Z M226 115 L230 118 L233 124 L231 131 L221 123 L222 119 Z M290 113 L291 123 L283 130 L281 130 L280 124 L283 117 L288 113 Z M409 112 L410 117 L408 122 L406 124 L403 124 L402 120 L399 119 L398 115 Z M104 115 L106 112 L114 114 L116 117 L118 117 L119 115 L122 115 L125 118 L126 123 L122 124 L119 121 L112 120 L112 125 L115 131 L111 132 L107 129 L108 124 L106 123 Z M83 113 L85 112 L87 116 L85 117 Z M356 112 L358 111 L361 114 L361 116 L358 117 L356 115 Z M232 111 L235 111 L239 117 L238 121 L231 113 Z M373 111 L378 110 L379 114 L378 115 L374 114 Z M292 121 L294 115 L298 111 L308 110 L316 112 L315 118 L309 123 L307 123 L306 121 L296 122 Z M278 110 L281 112 L279 115 L276 113 Z M196 112 L207 110 L208 113 L210 113 L211 111 L214 111 L217 113 L218 117 L214 121 L210 121 L210 123 L208 124 L205 122 L202 122 L198 118 Z M146 110 L149 114 L146 121 L144 122 L143 114 L144 111 Z M433 109 L434 112 L429 117 L428 116 L429 110 Z M385 108 L387 107 L388 110 L386 111 Z M265 106 L269 108 L270 112 L266 120 L261 116 L262 112 L260 109 L261 107 L264 108 Z M245 106 L251 110 L250 115 L247 116 L243 115 L243 108 Z M81 107 L84 106 L85 108 L82 109 Z M349 104 L352 106 L351 111 L347 109 Z M183 109 L182 116 L178 119 L175 117 L176 112 L171 109 L167 109 L160 113 L151 125 L149 124 L149 121 L152 115 L161 106 L166 103 L177 103 Z M397 102 L400 103 L399 108 L397 107 L396 104 Z M345 103 L346 108 L338 111 L339 116 L337 118 L333 117 L331 115 L332 107 L335 104 L340 102 Z M389 101 L392 102 L390 105 L387 104 Z M430 101 L432 100 L433 102 L431 103 Z M270 101 L275 100 L276 102 L271 103 Z M242 99 L243 101 L239 105 L236 101 Z M115 103 L119 99 L122 99 L127 103 L126 106 L123 104 L116 105 Z M283 97 L286 98 L286 105 L284 108 L281 108 L280 106 L282 103 Z M103 97 L104 96 L108 97 L110 101 L109 102 L104 101 Z M387 95 L388 98 L383 103 L382 99 L385 95 Z M404 99 L409 96 L411 96 L412 99 L414 99 L415 97 L418 97 L420 94 L428 93 L429 94 L428 105 L423 108 L423 110 L425 110 L426 113 L422 114 L421 111 L415 108 L414 105 L410 101 L406 102 Z M366 93 L368 93 L375 100 L376 107 L374 109 L370 105 L366 104 L366 100 L364 97 Z M295 93 L297 96 L296 98 L293 99 L293 101 L295 102 L295 105 L293 107 L290 107 L289 106 L289 96 Z M170 94 L171 97 L170 99 L162 101 L160 104 L153 108 L152 111 L150 110 L150 105 L155 98 L165 93 Z M147 93 L149 95 L148 103 L143 106 L140 114 L136 113 L135 110 L136 109 L139 110 L138 107 L139 100 Z M116 94 L118 93 L119 96 L117 97 Z M89 93 L95 94 L96 97 L100 98 L100 107 L95 110 L95 115 L100 118 L99 120 L95 120 L91 118 L88 113 L88 111 L91 110 L91 108 L87 105 L86 96 Z M399 93 L397 97 L390 96 L392 93 L396 92 Z M345 92 L348 93 L350 97 L352 97 L353 95 L356 96 L362 102 L364 109 L362 110 L350 100 L343 99 L342 97 Z M108 93 L110 92 L112 95 L110 96 Z M270 95 L270 93 L273 90 L280 90 L284 93 L281 96 L276 94 L272 96 Z M240 91 L242 95 L241 96 L234 95 L230 100 L231 106 L228 107 L226 104 L226 97 L228 93 L232 90 Z M413 87 L416 88 L414 92 L411 91 Z M99 87 L101 88 L100 92 L98 91 Z M424 86 L425 90 L421 91 L420 89 Z M252 86 L258 86 L260 88 L261 95 L264 102 L263 106 L258 105 L256 103 L251 108 L248 105 L248 101 L250 99 L250 91 Z M268 88 L269 85 L272 86 L270 89 Z M82 86 L83 85 L93 86 L96 89 L96 91 L94 92 L83 88 Z M428 85 L436 83 L439 86 L438 94 L436 96 L432 95 L435 88 L433 87 L431 89 L428 89 L427 88 Z M77 83 L79 84 L79 87 L83 94 L82 96 L78 95 L76 87 Z M284 78 L287 80 L292 88 L290 91 L287 91 L281 86 Z M228 78 L230 80 L231 86 L224 93 L223 96 L224 107 L222 108 L216 102 L215 96 L217 92 L219 94 L221 93 L221 86 L225 80 Z M277 73 L280 75 L279 80 L277 79 L276 76 Z M234 73 L236 74 L235 79 L232 78 L232 75 Z M269 70 L272 72 L274 77 L273 83 L269 83 L268 80 L266 79 L268 76 Z M272 56 L274 57 L278 64 L277 69 L274 69 L270 63 Z M240 56 L242 60 L242 64 L238 70 L235 70 L234 64 L238 57 Z M257 50 L267 65 L265 70 L266 77 L259 78 L257 80 L253 78 L248 78 L244 80 L243 83 L240 83 L238 81 L240 72 L243 70 L245 75 L247 76 L247 70 L245 65 L253 55 L254 51 Z M255 29 L258 30 L258 33 L261 39 L264 41 L269 51 L268 59 L264 56 L261 51 L257 40 L255 40 L254 45 L249 55 L246 58 L243 57 L243 51 L247 43 L250 41 Z"/></svg>
