<svg xmlns="http://www.w3.org/2000/svg" width="512" height="512" viewBox="0 0 512 512" aria-hidden="true" focusable="false"><path fill="currentColor" fill-rule="evenodd" clip-rule="evenodd" d="M258 171 L253 173 L253 185 L241 186 L241 192 L253 192 L257 198 L235 204 L238 211 L252 210 L258 217 L249 224 L240 220 L228 224 L231 234 L250 231 L258 241 L248 250 L225 245 L220 257 L229 263 L249 258 L262 269 L247 281 L236 275 L220 274 L213 280 L212 289 L220 295 L232 295 L247 288 L262 302 L247 316 L230 309 L212 310 L206 324 L213 331 L226 332 L248 323 L295 352 L319 384 L326 424 L315 458 L289 483 L266 490 L228 486 L201 465 L187 433 L187 412 L200 382 L226 362 L254 359 L279 369 L297 390 L302 418 L296 440 L284 455 L259 465 L241 463 L222 450 L213 433 L213 412 L224 394 L234 388 L264 389 L279 411 L278 424 L268 437 L246 439 L235 425 L244 409 L252 409 L258 415 L256 421 L247 417 L250 427 L262 422 L261 409 L254 404 L239 406 L230 420 L238 440 L249 446 L262 446 L278 436 L284 411 L280 398 L269 386 L255 380 L233 382 L214 397 L206 419 L212 445 L223 459 L244 469 L271 468 L296 451 L306 431 L307 403 L297 380 L271 358 L241 353 L206 368 L185 397 L185 448 L195 467 L211 483 L245 496 L276 494 L301 481 L320 460 L330 432 L329 398 L316 367 L291 342 L253 319 L268 305 L289 314 L299 313 L306 305 L299 292 L284 291 L267 298 L252 285 L266 272 L280 279 L291 279 L298 272 L291 260 L266 265 L253 255 L264 243 L276 249 L288 244 L283 233 L264 236 L253 228 L259 221 L276 223 L281 218 L278 211 L262 213 L255 206 L259 201 L271 202 L274 198 L272 193 L261 194 L255 189 L269 184 L268 179 L258 178 Z M212 323 L212 319 L216 314 L221 313 L229 314 L239 319 L237 322 L226 327 L217 327 Z M275 301 L284 297 L296 297 L300 301 L300 305 L295 309 L287 309 L279 306 L275 303 Z M218 282 L221 280 L232 280 L240 283 L241 285 L236 289 L229 291 L223 291 L218 287 Z M273 269 L276 266 L281 264 L288 264 L292 267 L292 271 L288 274 L279 273 L274 271 Z M224 253 L227 250 L236 250 L239 251 L241 254 L238 257 L227 258 Z M271 240 L274 238 L283 239 L281 243 L274 243 Z M232 227 L234 225 L241 225 L243 228 L240 230 L234 230 Z M268 216 L271 214 L274 214 L276 218 L271 219 Z M241 206 L243 205 L244 207 L242 208 Z M256 17 L250 86 L251 97 L248 103 L250 111 L247 112 L244 118 L245 124 L242 125 L239 135 L235 137 L233 157 L235 162 L245 170 L249 170 L254 166 L254 159 L259 161 L259 166 L263 170 L268 170 L278 161 L280 146 L269 124 L267 112 L262 111 L264 101 L261 97 L263 87 L260 72 L258 17 Z M251 152 L253 153 L252 158 L250 157 Z M259 152 L261 151 L262 153 L260 154 Z M256 144 L259 146 L258 151 L255 151 L253 148 Z M256 77 L258 78 L258 85 L260 90 L258 95 L259 103 L261 104 L258 113 L259 116 L264 119 L262 124 L262 130 L265 133 L269 134 L268 144 L269 145 L273 144 L274 147 L276 148 L274 158 L268 165 L263 164 L267 158 L267 150 L257 136 L247 148 L247 151 L245 153 L247 160 L250 164 L249 165 L243 164 L238 157 L238 145 L245 143 L243 134 L250 132 L251 129 L249 118 L254 115 L254 108 L252 104 L255 99 L253 88 Z"/></svg>
