<svg xmlns="http://www.w3.org/2000/svg" width="512" height="512" viewBox="0 0 512 512" aria-hidden="true" focusable="false"><path fill="currentColor" fill-rule="evenodd" clip-rule="evenodd" d="M248 16 L230 36 L233 58 L222 51 L223 59 L209 92 L203 93 L204 103 L199 99 L195 106 L186 172 L203 201 L189 204 L183 184 L168 180 L162 169 L155 170 L162 186 L174 191 L180 212 L196 215 L208 211 L213 231 L230 243 L227 259 L240 245 L236 232 L239 220 L248 218 L256 225 L257 243 L244 258 L212 279 L197 301 L190 341 L196 380 L167 378 L155 366 L156 357 L176 350 L186 332 L186 321 L176 304 L178 292 L173 293 L176 278 L167 267 L165 251 L159 265 L164 279 L157 281 L147 298 L148 313 L142 313 L146 329 L123 363 L123 384 L134 406 L122 407 L111 391 L102 390 L108 397 L110 414 L127 423 L132 442 L143 453 L187 476 L217 475 L229 483 L243 482 L257 497 L270 482 L284 483 L296 475 L329 475 L370 453 L382 440 L386 423 L403 413 L410 385 L394 405 L378 407 L391 375 L390 350 L378 313 L359 301 L359 296 L333 294 L333 289 L306 298 L324 280 L320 276 L336 254 L330 251 L336 220 L329 223 L327 212 L332 210 L318 190 L325 165 L315 168 L311 177 L306 175 L305 164 L298 170 L300 154 L289 132 L284 147 L276 148 L278 131 L261 109 L260 91 L247 106 L248 76 L244 75 L250 54 L242 37 L248 30 Z M279 470 L282 469 L287 477 L286 478 L280 477 Z M293 469 L295 468 L296 470 L294 471 Z M241 469 L244 467 L254 477 L255 481 L258 480 L258 478 L265 472 L268 467 L272 470 L272 475 L270 478 L265 475 L266 483 L256 490 L247 483 L248 475 L244 478 L242 477 Z M275 466 L277 465 L278 468 L276 469 Z M249 466 L250 465 L262 466 L263 469 L256 474 L250 469 Z M272 464 L274 463 L275 465 L273 466 Z M240 463 L241 465 L234 472 L234 474 L237 475 L238 477 L236 479 L227 478 L226 476 L230 470 L235 465 Z M279 459 L282 458 L283 462 L281 463 Z M264 460 L266 457 L271 455 L275 455 L279 458 L276 461 L274 460 L265 461 Z M233 458 L239 455 L243 455 L249 460 L248 461 L246 460 L237 461 L234 460 Z M285 462 L284 457 L287 456 L288 454 L295 456 L290 462 L288 463 Z M218 456 L224 454 L227 460 L232 459 L233 462 L225 463 Z M256 451 L259 453 L257 457 L254 455 Z M303 450 L305 451 L304 454 L301 453 Z M208 451 L210 450 L211 453 L209 454 Z M325 450 L326 453 L325 457 L316 465 L301 466 L293 464 L294 462 L303 462 L299 460 L300 457 L305 458 L310 456 L315 456 L318 453 L319 447 L322 447 Z M345 447 L349 446 L350 448 L356 450 L357 452 L352 453 L347 450 Z M188 450 L194 446 L195 453 L198 456 L203 456 L208 458 L213 457 L214 460 L211 462 L218 462 L219 464 L212 466 L197 465 L188 457 Z M169 447 L162 453 L156 452 L157 450 L159 450 L164 446 Z M254 445 L257 444 L258 446 L255 447 Z M266 448 L275 443 L278 443 L280 446 L285 443 L286 447 L288 447 L289 449 L284 454 L280 454 L279 452 L281 451 L281 449 L271 448 L267 450 Z M226 452 L226 447 L229 444 L233 446 L235 443 L238 443 L246 447 L245 449 L243 448 L232 449 L232 451 L234 452 L233 454 L229 454 Z M257 432 L261 437 L261 439 L259 440 L257 437 L255 437 L254 440 L252 441 L251 440 L252 436 Z M360 434 L363 431 L366 432 L363 435 Z M147 432 L151 431 L153 434 L149 435 Z M203 431 L206 430 L207 433 L205 434 Z M303 428 L302 444 L301 447 L296 452 L294 452 L292 447 L293 435 L300 427 Z M211 427 L214 428 L219 433 L221 446 L219 447 L220 450 L219 452 L217 452 L211 444 L210 439 L211 437 L210 428 Z M186 426 L188 425 L189 427 L187 428 Z M309 424 L312 423 L313 425 L310 426 Z M323 423 L328 422 L329 424 L324 425 Z M172 423 L175 422 L177 425 L174 426 Z M296 422 L298 421 L299 423 L297 424 Z M216 422 L218 421 L219 423 L217 424 Z M361 420 L364 421 L365 427 L364 429 L357 424 Z M151 420 L154 421 L156 424 L149 429 L148 428 L149 421 Z M257 419 L262 424 L263 429 L267 431 L269 436 L268 440 L265 442 L263 435 L258 430 L257 427 L255 427 L254 431 L251 433 L249 437 L249 442 L247 443 L244 437 L246 430 L250 428 L250 425 Z M196 417 L201 421 L199 426 L196 426 L193 423 Z M182 417 L187 421 L183 426 L180 425 L178 422 L178 419 Z M320 416 L323 422 L318 426 L314 422 L314 420 Z M210 416 L214 419 L214 422 L212 424 L210 424 L207 421 L207 419 Z M331 415 L336 417 L336 420 L333 424 L328 422 L328 419 Z M306 415 L309 421 L306 423 L302 423 L301 419 Z M167 414 L170 415 L172 420 L170 423 L166 423 L164 420 L164 416 Z M344 412 L348 414 L348 418 L345 420 L341 417 Z M273 411 L279 418 L278 420 L272 414 Z M154 411 L156 412 L158 416 L157 418 L151 415 Z M202 410 L204 410 L208 414 L205 420 L203 420 L200 417 L200 412 Z M189 410 L194 415 L191 420 L189 420 L186 417 L186 413 Z M324 409 L329 410 L329 415 L326 419 L320 413 Z M214 409 L218 411 L218 414 L216 416 L212 414 L212 411 Z M175 409 L180 414 L178 419 L174 419 L171 415 L171 413 Z M312 408 L316 411 L316 415 L313 419 L311 419 L308 415 L308 413 Z M368 407 L369 409 L366 411 L365 409 Z M354 411 L356 407 L359 409 L357 412 Z M299 407 L301 407 L304 411 L304 413 L300 417 L298 417 L295 412 Z M112 408 L115 407 L126 412 L132 410 L140 413 L144 417 L145 426 L141 429 L140 424 L138 424 L138 432 L142 436 L149 439 L153 439 L158 436 L156 428 L160 426 L170 427 L179 439 L184 439 L182 435 L188 432 L196 432 L200 434 L206 440 L206 450 L200 453 L198 451 L200 448 L196 444 L191 443 L183 449 L183 455 L177 457 L181 458 L192 468 L198 470 L216 469 L217 471 L208 474 L190 473 L174 466 L173 464 L175 462 L166 463 L162 461 L161 457 L170 451 L177 453 L176 447 L171 443 L162 444 L155 448 L146 447 L140 444 L131 433 L131 424 L134 423 L133 419 L128 416 L118 416 Z M337 406 L342 409 L339 416 L337 416 L335 413 L335 409 Z M227 406 L229 407 L230 410 L233 409 L235 410 L231 417 L229 424 L229 429 L231 433 L230 436 L226 433 L223 427 L222 420 Z M179 407 L185 406 L186 409 L182 413 L179 410 Z M142 407 L144 406 L145 408 L143 409 Z M266 406 L268 405 L269 407 L267 408 Z M158 407 L163 405 L164 409 L167 412 L161 415 L158 412 Z M244 405 L246 404 L247 406 L245 407 Z M402 404 L400 411 L395 416 L385 416 L379 420 L379 423 L382 424 L381 434 L371 445 L363 448 L355 447 L351 442 L339 445 L336 449 L336 453 L339 451 L345 452 L352 457 L351 461 L347 463 L338 462 L340 464 L339 466 L323 473 L306 474 L296 471 L297 469 L319 469 L325 466 L333 458 L330 456 L329 448 L322 443 L314 447 L314 452 L307 450 L307 440 L311 435 L317 432 L325 432 L331 435 L329 439 L334 439 L339 430 L343 427 L354 426 L357 428 L355 432 L356 437 L360 439 L367 438 L374 433 L376 428 L375 424 L373 424 L372 429 L368 426 L368 419 L373 413 L382 410 L390 411 L397 408 L400 403 Z M195 403 L200 407 L197 413 L193 410 L193 406 Z M150 403 L152 403 L154 407 L151 410 L149 410 L147 407 Z M372 402 L373 404 L369 408 L368 405 Z M207 402 L212 405 L209 411 L205 408 L205 404 Z M348 401 L350 401 L353 404 L351 412 L345 408 Z M318 401 L322 404 L322 408 L320 412 L315 407 Z M169 401 L171 401 L174 406 L170 411 L168 411 L165 406 L166 403 Z M329 400 L331 400 L334 403 L332 410 L329 410 L327 406 Z M308 400 L310 402 L310 408 L306 411 L303 407 L303 404 Z M256 400 L265 410 L265 414 L268 414 L272 419 L271 426 L274 424 L276 425 L277 433 L274 439 L272 438 L273 432 L270 431 L267 424 L260 418 L257 412 L255 412 L251 420 L246 422 L245 427 L242 431 L240 431 L240 437 L238 438 L236 436 L236 426 L237 425 L241 426 L240 420 L245 414 L248 415 L248 410 Z M215 401 L222 400 L223 406 L220 407 Z M188 398 L194 401 L190 406 L186 403 L186 400 Z M375 397 L376 400 L373 403 L372 401 L373 398 Z M366 398 L368 397 L369 399 L367 400 Z M358 397 L364 399 L364 404 L362 406 L359 406 L356 404 Z M295 397 L297 398 L299 402 L296 408 L292 406 L290 401 L291 399 Z M175 397 L178 397 L180 400 L180 402 L177 405 L173 402 Z M341 396 L345 399 L345 404 L343 406 L341 406 L338 403 L339 398 Z M200 396 L202 396 L205 399 L205 402 L203 405 L201 405 L198 402 Z M137 397 L139 396 L142 397 L143 402 L142 404 L137 403 L136 401 Z M150 395 L151 400 L146 402 L144 398 L147 395 Z M323 394 L325 394 L327 397 L325 402 L321 399 L321 396 Z M192 397 L193 394 L198 395 L196 399 Z M181 395 L183 394 L185 398 L183 399 Z M170 394 L173 393 L174 396 L171 397 Z M164 393 L167 393 L169 396 L166 402 L163 401 Z M159 393 L161 402 L156 405 L155 404 L156 400 L154 399 L154 396 Z M302 392 L306 395 L303 401 L301 401 L298 397 Z M333 391 L337 394 L336 400 L334 400 L331 397 Z M317 389 L320 394 L315 395 L316 400 L313 403 L310 399 L310 395 Z M308 389 L311 390 L310 395 L306 393 Z M356 389 L362 388 L364 390 L364 395 L363 396 L358 395 Z M326 388 L330 389 L329 394 L327 394 L324 391 Z M289 388 L293 390 L294 394 L292 397 L287 398 L285 395 L285 390 Z M380 387 L381 390 L378 397 L376 398 L375 397 L378 388 Z M348 387 L352 388 L355 392 L355 397 L353 400 L351 400 L348 397 L347 389 Z M342 387 L346 390 L345 395 L341 393 Z M152 390 L154 387 L159 388 L158 392 L153 392 Z M367 386 L371 386 L373 388 L373 393 L370 395 L366 394 L365 388 Z M150 386 L151 387 L150 392 L144 394 L143 393 L144 388 L147 386 Z M137 386 L141 387 L140 394 L135 393 L134 389 Z M334 386 L338 385 L339 390 L338 391 L335 390 Z M294 386 L295 385 L299 386 L301 390 L298 393 L296 393 Z M161 384 L166 382 L171 386 L173 386 L174 384 L179 384 L186 387 L190 387 L190 384 L194 383 L197 389 L193 391 L177 391 L162 386 Z M341 382 L343 381 L344 384 L342 385 Z M278 381 L281 382 L282 385 L281 388 L279 388 L276 384 Z M202 382 L205 381 L211 384 L219 384 L226 394 L226 397 L220 398 L212 395 L205 389 Z M354 381 L359 380 L362 382 L362 385 L356 387 Z M346 381 L350 380 L353 385 L348 386 Z M283 381 L285 380 L290 385 L285 388 Z M144 384 L146 380 L151 381 L149 385 Z M138 378 L143 379 L143 382 L141 385 L136 384 L136 381 Z M363 379 L365 377 L368 377 L371 380 L372 384 L366 385 Z M240 376 L241 379 L238 381 L237 379 Z M153 377 L156 376 L161 381 L161 383 L159 384 Z M131 376 L136 377 L135 382 L133 384 L130 382 Z M344 376 L347 375 L348 377 L345 378 Z M374 374 L377 374 L379 376 L376 382 L374 381 L372 377 Z M273 375 L276 374 L278 378 L274 380 Z M351 374 L353 372 L356 372 L358 377 L353 378 Z M230 372 L236 375 L236 379 L234 381 L231 381 L227 376 Z M292 372 L295 371 L297 375 L294 376 Z M140 374 L141 371 L146 372 L144 376 Z M358 371 L363 369 L367 372 L367 374 L362 376 Z M347 368 L351 367 L352 370 L348 371 Z M267 368 L269 367 L270 369 L268 370 Z M150 367 L153 370 L152 374 L149 371 Z M140 369 L137 374 L131 373 L135 367 L138 367 Z M245 366 L246 367 L245 373 L241 374 L240 372 Z M354 367 L354 365 L357 363 L361 363 L363 365 L362 367 L357 369 Z M235 363 L241 365 L241 368 L237 372 L231 370 L231 367 Z M376 362 L378 365 L377 369 L372 373 L370 373 L367 367 L372 362 Z M299 361 L303 362 L305 366 L301 367 L298 364 Z M290 362 L291 361 L295 362 L297 367 L292 368 L290 366 Z M281 362 L282 361 L285 362 L288 367 L283 368 L281 366 Z M137 363 L139 361 L142 361 L144 364 L142 366 L139 366 Z M221 379 L225 379 L238 400 L239 394 L237 389 L244 380 L246 381 L247 386 L249 384 L248 373 L254 362 L257 360 L270 382 L269 392 L271 393 L271 390 L275 388 L282 400 L280 409 L282 410 L284 407 L286 407 L289 412 L290 427 L286 434 L282 434 L283 421 L281 416 L273 406 L273 399 L271 402 L267 399 L267 396 L263 394 L257 381 L255 381 L252 391 L250 393 L247 391 L246 392 L245 400 L243 402 L240 402 L240 407 L242 410 L235 423 L233 424 L232 421 L237 412 L236 406 L233 407 L231 405 L232 396 L226 389 Z M349 363 L351 359 L356 360 L352 364 Z M196 360 L198 359 L204 363 L212 365 L217 380 L212 381 L203 377 L199 373 Z M149 359 L151 360 L150 367 L148 366 Z M250 358 L251 362 L247 365 L246 363 L248 359 Z M342 360 L345 357 L348 358 L346 361 Z M134 357 L137 358 L135 363 L132 361 Z M226 356 L228 356 L229 359 L232 361 L232 363 L228 367 L225 366 L222 362 Z M377 355 L379 356 L380 359 L379 362 L375 360 L375 357 Z M366 355 L372 359 L372 361 L367 364 L365 364 L362 360 Z M273 357 L275 355 L278 356 L277 359 L274 359 Z M340 363 L339 371 L330 379 L322 381 L309 381 L301 378 L309 366 L320 356 L326 354 L333 355 Z M307 354 L310 356 L309 360 L306 359 Z M240 354 L246 357 L243 363 L238 362 L236 360 Z M298 354 L299 353 L302 354 L304 358 L299 359 Z M288 354 L289 353 L294 354 L296 359 L295 360 L290 359 Z M280 354 L284 353 L287 358 L282 359 L280 357 Z M221 354 L223 353 L224 355 L222 356 Z M144 353 L146 354 L145 358 L143 357 Z M354 356 L357 351 L361 351 L363 353 L363 355 L360 358 Z M336 352 L338 351 L339 353 L337 354 Z M136 352 L138 351 L139 353 L137 354 Z M313 350 L315 349 L317 353 L314 354 Z M353 348 L354 352 L351 355 L347 353 L348 350 Z M371 347 L374 347 L377 350 L374 356 L367 353 Z M330 348 L332 347 L334 350 L331 352 Z M325 347 L326 350 L323 352 L322 349 Z M308 347 L311 349 L310 353 L307 353 L305 351 Z M280 349 L282 347 L285 347 L286 351 L281 352 Z M163 348 L165 347 L168 350 L165 351 Z M143 348 L145 347 L146 350 L144 351 Z M288 347 L293 346 L295 348 L295 351 L290 352 Z M246 346 L252 349 L249 354 L245 354 L242 351 Z M158 347 L160 346 L161 348 L159 349 Z M297 346 L298 345 L302 346 L304 351 L299 352 L297 350 Z M269 345 L272 346 L272 349 L270 351 L268 350 Z M316 345 L319 344 L320 348 L317 349 Z M378 344 L380 343 L381 345 L379 346 Z M362 343 L369 345 L369 347 L365 351 L358 349 Z M150 343 L151 345 L148 348 L147 346 Z M371 343 L374 342 L375 344 L372 345 Z M339 342 L341 345 L337 349 L336 344 Z M155 343 L157 342 L158 344 L156 345 Z M224 341 L227 341 L228 344 L230 345 L229 349 L233 348 L238 352 L238 354 L234 358 L228 356 L227 354 L228 351 L224 352 L221 349 L220 345 Z M160 342 L162 341 L163 343 L161 344 Z M377 341 L379 340 L380 342 L378 343 Z M350 346 L352 341 L354 340 L360 341 L356 347 Z M348 340 L349 341 L348 346 L343 348 L342 343 Z M328 340 L331 341 L331 344 L329 346 L326 344 Z M252 340 L256 342 L254 346 L251 346 L249 344 Z M238 340 L240 340 L244 344 L241 349 L237 349 L234 346 L234 344 Z M311 339 L313 339 L315 342 L313 346 L310 345 Z M272 340 L274 339 L276 343 L274 344 Z M150 339 L152 338 L153 340 L151 341 Z M305 337 L309 339 L308 344 L305 343 L304 340 Z M290 337 L294 340 L293 344 L289 344 L287 341 Z M338 336 L339 339 L335 341 L334 339 Z M321 336 L324 338 L323 343 L319 342 L319 339 Z M296 337 L299 336 L302 339 L302 342 L298 343 L296 341 Z M221 337 L223 336 L224 338 L222 339 Z M156 337 L158 336 L159 338 L157 339 Z M366 333 L369 333 L371 335 L370 341 L366 341 L364 339 Z M241 337 L244 333 L247 333 L250 336 L250 338 L247 341 L244 341 Z M195 337 L198 338 L199 345 L201 346 L203 340 L209 333 L212 334 L211 337 L211 359 L212 361 L211 362 L202 359 L196 353 L194 348 L194 338 Z M232 332 L237 337 L237 339 L233 342 L228 342 L226 336 Z M216 332 L218 333 L217 353 L220 368 L222 372 L221 376 L218 373 L214 355 L214 339 Z M200 335 L201 332 L204 333 L202 336 Z M358 331 L363 334 L361 339 L356 337 L356 333 Z M313 331 L317 332 L318 336 L316 340 L313 339 L312 336 Z M250 332 L253 331 L254 334 L252 335 Z M351 330 L354 331 L354 336 L352 338 L349 337 Z M347 330 L348 336 L342 340 L341 334 L345 330 Z M181 330 L182 333 L180 337 L178 338 L177 337 L178 331 Z M162 331 L164 330 L165 333 L163 334 Z M282 329 L283 333 L279 337 L278 330 Z M237 334 L238 329 L243 331 L240 335 Z M216 330 L218 329 L219 331 L217 332 Z M323 328 L327 330 L326 336 L320 333 Z M303 329 L308 328 L310 331 L310 335 L309 336 L306 335 Z M336 327 L338 332 L332 337 L331 331 Z M298 327 L302 329 L301 335 L295 332 L295 330 Z M222 331 L224 327 L230 329 L227 333 L224 333 Z M210 327 L212 326 L213 328 L211 329 Z M357 326 L359 323 L362 325 L361 328 L358 328 Z M315 322 L318 323 L320 326 L318 330 L313 328 L313 325 Z M229 323 L231 322 L232 324 L230 325 Z M282 322 L284 321 L285 323 L283 324 Z M224 322 L226 321 L227 323 L225 324 Z M344 320 L346 322 L346 327 L340 331 L337 326 L342 320 Z M327 320 L331 324 L331 327 L329 329 L324 325 L324 323 Z M308 319 L310 319 L312 322 L310 326 L305 325 Z M349 318 L352 318 L355 320 L355 325 L351 328 L348 326 L347 320 Z M261 318 L262 317 L266 318 L267 322 L265 323 Z M206 317 L207 319 L203 322 L201 319 Z M149 318 L155 320 L156 317 L159 318 L159 321 L157 323 L157 327 L159 328 L158 330 L155 330 L150 326 L150 323 L148 321 Z M367 317 L369 316 L375 320 L376 323 L381 328 L380 329 L376 328 Z M164 315 L171 320 L172 324 L171 327 L169 327 L162 320 Z M319 314 L322 314 L325 316 L325 319 L322 323 L316 319 Z M247 321 L247 319 L249 318 L249 315 L252 314 L255 320 L251 322 Z M173 315 L178 314 L180 316 L182 323 L180 324 L178 320 L174 321 Z M339 313 L342 316 L342 318 L334 325 L331 318 L334 314 Z M327 316 L328 313 L331 314 L329 317 Z M282 313 L283 315 L277 324 L277 326 L274 329 L272 329 L272 332 L268 339 L265 340 L264 332 L267 330 L267 328 L271 324 L272 314 Z M207 315 L210 313 L213 314 L211 318 L208 317 Z M200 314 L202 313 L203 315 L201 316 Z M297 312 L298 316 L290 323 L289 320 L291 314 L293 312 Z M243 312 L245 311 L247 314 L245 315 Z M168 312 L170 311 L171 314 L169 315 Z M345 311 L347 310 L348 312 L346 313 Z M235 309 L237 309 L240 314 L236 318 L234 317 L234 315 L236 314 L234 311 Z M229 310 L228 314 L222 315 L220 317 L218 316 L221 312 L224 311 L225 308 Z M277 307 L279 308 L278 311 L275 310 Z M296 308 L300 305 L302 309 L297 310 Z M242 306 L244 305 L245 307 L243 308 Z M348 306 L350 304 L360 305 L362 309 L366 308 L369 309 L371 312 L368 314 L366 313 L366 311 L360 313 L349 308 Z M218 304 L220 309 L215 312 L214 310 L216 308 L216 305 Z M319 304 L321 303 L322 305 L320 306 Z M293 303 L294 305 L289 312 L286 313 L285 311 L288 307 L286 307 L285 305 L287 303 Z M170 302 L173 304 L174 307 L171 311 L169 310 Z M232 302 L234 301 L237 304 L235 305 Z M209 301 L210 307 L205 309 L204 305 Z M266 303 L267 300 L270 301 L268 304 Z M256 302 L258 300 L263 301 L265 306 L259 308 Z M246 301 L247 300 L253 301 L254 304 L251 305 L247 303 Z M215 301 L216 298 L219 299 L217 302 Z M319 297 L320 300 L318 301 L317 306 L310 310 L307 310 L306 309 L307 305 L312 300 L315 301 Z M325 304 L328 300 L336 296 L338 296 L339 299 L343 296 L347 296 L350 298 L349 300 L346 300 L343 304 L340 303 L339 305 L326 305 Z M242 296 L244 297 L243 301 L240 299 Z M321 296 L323 295 L324 297 L322 298 Z M300 296 L302 295 L303 298 L301 299 Z M288 297 L290 295 L295 296 L294 299 L289 299 Z M231 295 L233 294 L234 296 L232 297 Z M233 292 L235 291 L236 293 L234 294 Z M276 290 L280 292 L277 296 L274 293 Z M265 291 L272 290 L273 297 L267 298 Z M255 292 L257 290 L262 290 L264 297 L257 298 L255 295 Z M213 291 L216 290 L217 293 L215 294 Z M245 290 L246 289 L252 290 L253 297 L246 298 Z M298 292 L301 286 L308 287 L307 291 L300 293 Z M283 283 L289 282 L290 284 L287 287 L285 287 Z M250 282 L252 283 L251 287 L248 286 Z M309 286 L310 281 L315 283 L312 287 Z M281 280 L282 287 L276 288 L274 285 L274 282 Z M305 279 L307 280 L306 284 L303 283 Z M254 283 L256 279 L262 280 L263 282 L265 282 L266 280 L268 281 L272 280 L273 287 L266 288 L263 285 L262 288 L256 287 Z M246 279 L247 281 L237 290 L236 288 Z M223 278 L224 281 L222 283 L219 283 L218 281 Z M257 276 L260 275 L261 277 L258 278 Z M253 273 L254 275 L251 277 L250 275 Z M230 272 L239 279 L239 281 L232 289 L228 286 L227 280 L228 274 Z M167 272 L170 275 L170 279 L173 280 L172 288 L164 296 L164 302 L166 305 L165 308 L160 307 L159 302 L162 295 L160 294 L157 301 L157 307 L155 308 L156 311 L158 311 L159 313 L154 315 L150 308 L150 302 L153 301 L152 297 L158 290 L162 291 L162 286 L166 283 L165 273 Z M298 271 L299 274 L294 277 L292 274 Z M272 273 L274 271 L278 271 L281 277 L274 278 Z M264 272 L265 271 L270 272 L271 277 L265 278 Z M282 271 L288 270 L290 272 L291 278 L287 280 L284 279 L282 275 Z M314 267 L315 271 L318 274 L313 278 L308 279 L307 276 L309 274 L313 274 L311 270 Z M267 268 L269 267 L270 269 L268 270 Z M162 268 L164 267 L166 271 L164 272 Z M290 266 L292 263 L296 263 L298 268 L292 271 Z M243 263 L245 263 L252 270 L244 277 L240 277 L235 273 L235 269 Z M270 264 L272 262 L277 262 L278 259 L283 259 L285 261 L285 266 L281 267 L280 265 L278 265 L277 269 L273 269 Z M267 259 L269 258 L270 260 L268 261 Z M305 257 L306 262 L303 266 L301 266 L299 263 L299 260 Z M317 256 L319 257 L319 261 L321 261 L322 259 L327 260 L324 267 L321 268 L320 264 L317 264 L315 262 Z M306 254 L308 253 L309 255 L307 256 Z M292 253 L295 260 L289 263 L286 257 Z M255 253 L264 257 L263 260 L256 266 L251 265 L247 261 Z M277 253 L280 252 L281 255 L278 256 Z M295 252 L301 249 L304 252 L304 255 L298 257 L295 254 Z M275 248 L276 251 L272 255 L271 253 L273 249 Z M281 249 L287 246 L290 252 L282 253 Z M274 246 L276 245 L277 247 L275 248 Z M234 243 L236 242 L237 244 L235 245 Z M308 241 L311 247 L306 251 L303 248 L303 245 Z M262 241 L266 243 L270 242 L273 243 L268 253 L260 253 L258 251 L258 248 Z M292 241 L294 240 L299 244 L299 246 L295 249 L292 249 L291 248 Z M282 240 L284 241 L283 245 L281 244 Z M297 238 L300 235 L304 235 L306 237 L306 240 L304 242 L299 242 Z M282 237 L285 235 L289 235 L292 237 L292 240 L289 242 L286 242 L283 240 Z M227 236 L230 235 L233 239 L231 240 Z M331 230 L332 235 L330 239 L325 242 L325 244 L327 244 L328 247 L323 254 L318 256 L317 255 L318 250 L322 248 L322 246 L320 246 L319 243 L322 240 L327 238 L327 237 L321 238 L320 234 L322 233 L324 235 L327 231 Z M273 229 L274 238 L271 240 L265 240 L262 237 L262 231 L263 230 L268 231 Z M290 233 L292 228 L295 228 L300 231 L296 236 Z M308 225 L311 228 L311 234 L309 236 L307 236 L304 233 L304 230 Z M232 225 L229 231 L227 232 L222 231 L224 228 L230 224 Z M261 224 L267 223 L271 224 L272 226 L269 228 L264 228 L261 226 Z M280 223 L281 222 L288 223 L292 226 L292 228 L286 230 L283 228 Z M223 223 L225 222 L226 224 L224 225 Z M300 220 L306 223 L303 228 L299 228 L296 225 Z M289 219 L293 216 L298 218 L295 222 L291 222 Z M277 217 L276 220 L266 220 L265 219 L266 217 L273 216 Z M261 217 L263 216 L264 218 L262 219 Z M219 217 L221 216 L222 218 L220 219 Z M278 215 L281 214 L283 217 L279 219 Z M306 212 L309 213 L308 220 L305 220 L302 218 L303 214 Z M317 209 L325 217 L323 221 L326 223 L326 226 L322 231 L319 228 L320 224 L316 212 Z M302 208 L303 209 L302 213 L300 215 L297 215 L296 213 L298 210 Z M252 210 L251 212 L246 212 L241 214 L234 221 L232 220 L233 215 L238 210 L242 208 L247 208 Z M208 208 L213 205 L216 206 L214 212 L212 210 L209 210 Z M203 205 L204 207 L199 210 L198 208 Z M205 203 L207 202 L208 204 L206 205 Z M298 200 L299 203 L291 209 L291 212 L288 214 L285 214 L284 212 L291 205 L293 201 Z M217 201 L219 200 L220 202 L218 203 Z M236 199 L235 201 L229 204 L222 212 L217 208 L218 205 L223 206 L226 201 L230 198 Z M205 198 L209 196 L213 201 L209 203 L208 200 L206 200 Z M215 194 L217 193 L225 196 L226 198 L225 199 L217 198 Z M244 191 L250 197 L249 200 L243 197 L242 193 Z M310 188 L320 196 L318 199 L322 200 L325 203 L323 207 L318 208 L314 206 L317 203 L313 202 L309 196 Z M211 186 L214 187 L212 193 L209 191 L209 188 Z M265 186 L266 192 L264 196 L266 197 L266 199 L262 204 L255 205 L254 203 L258 201 L261 190 L257 192 L253 188 L257 185 Z M178 185 L181 187 L182 190 L183 206 L187 206 L190 208 L197 208 L198 209 L197 211 L190 212 L181 208 L178 203 L178 191 L177 190 Z M195 184 L197 183 L198 185 L196 186 Z M171 184 L174 183 L175 185 L172 186 Z M244 183 L249 182 L250 184 L245 185 Z M228 183 L231 182 L232 184 L229 185 Z M215 181 L214 183 L210 183 L203 187 L199 186 L200 184 L206 183 L210 180 Z M316 177 L317 178 L316 185 L313 186 L311 184 L308 186 L307 183 L309 181 L312 181 Z M300 175 L303 176 L303 191 L301 193 L297 190 L296 185 L297 178 Z M208 176 L207 178 L203 180 L198 179 L200 176 L206 175 Z M287 175 L289 174 L290 176 L288 177 Z M213 174 L215 172 L215 169 L218 168 L219 169 L218 172 L222 172 L226 175 L233 176 L234 178 L224 181 L219 177 L214 176 Z M292 167 L297 170 L296 178 L291 172 Z M235 177 L250 166 L255 165 L264 166 L271 171 L269 175 L275 175 L283 181 L285 187 L285 195 L282 200 L277 202 L280 204 L277 208 L269 212 L260 212 L257 209 L264 206 L269 201 L271 195 L269 189 L271 180 L266 182 L261 181 L255 182 L254 181 L255 176 L253 176 L249 179 L244 179 L238 183 L235 183 L234 182 L236 179 Z M206 164 L208 164 L211 167 L212 171 L210 176 L207 175 L208 171 L205 167 Z M249 160 L250 163 L246 165 L245 163 Z M292 159 L294 163 L291 164 L288 168 L286 168 L284 173 L282 174 L281 173 L282 167 L284 165 L287 165 L288 161 Z M192 155 L199 158 L201 160 L201 166 L204 167 L200 174 L194 173 L194 167 L196 163 L191 158 Z M265 156 L267 154 L272 154 L278 157 L279 160 L277 162 L279 162 L280 165 L277 167 L270 161 L270 159 L266 160 Z M201 155 L203 154 L206 157 L206 159 L204 160 Z M248 159 L249 153 L251 151 L261 151 L262 152 L261 159 L252 160 Z M233 151 L234 155 L227 158 L226 156 Z M238 150 L242 149 L245 150 L244 152 L245 158 L243 161 L240 160 L241 155 L239 156 L235 155 Z M223 147 L226 151 L220 154 L219 153 L220 149 Z M290 146 L294 152 L289 153 L289 156 L286 158 L284 154 L288 147 Z M257 143 L259 141 L262 141 L264 145 L259 147 Z M238 141 L240 142 L240 146 L236 147 L235 145 L237 144 Z M193 136 L195 135 L201 141 L202 148 L206 145 L212 151 L213 154 L212 155 L207 154 L200 150 L197 147 L196 141 L193 139 Z M249 134 L253 135 L253 138 L251 141 L246 140 Z M233 133 L236 137 L236 141 L234 142 L233 139 L231 138 L231 144 L228 147 L226 140 L229 135 Z M242 132 L244 131 L245 134 L243 135 Z M240 127 L241 129 L238 132 L237 129 Z M234 127 L236 126 L237 128 L235 129 Z M253 124 L257 126 L258 133 L261 134 L259 138 L256 138 L255 134 L251 133 Z M239 115 L241 117 L241 121 L236 125 L235 124 L236 118 Z M199 115 L201 115 L206 122 L207 125 L206 132 L208 133 L208 130 L210 129 L217 137 L219 141 L219 144 L217 146 L215 145 L213 139 L211 140 L212 143 L210 144 L207 142 L206 138 L203 138 L201 136 L200 129 L196 127 L196 121 Z M224 111 L228 114 L231 123 L229 126 L227 125 L226 119 L223 115 Z M255 108 L257 109 L259 114 L265 119 L265 124 L269 123 L272 126 L275 132 L275 141 L273 144 L271 143 L271 136 L268 134 L268 131 L266 130 L265 134 L261 132 L261 125 L254 118 L253 113 Z M243 103 L247 106 L248 113 L245 117 L243 116 L241 110 Z M207 100 L212 104 L214 109 L213 117 L216 120 L217 117 L219 116 L223 121 L224 124 L223 133 L221 132 L221 127 L219 123 L217 123 L219 127 L219 131 L217 132 L213 128 L212 123 L209 122 L204 114 L204 109 Z M238 99 L241 98 L242 100 L239 101 Z M241 87 L242 93 L240 95 L236 94 L234 97 L234 101 L237 107 L237 112 L235 115 L233 115 L230 107 L225 106 L224 103 L226 99 L230 101 L232 92 L235 89 Z M231 85 L233 84 L234 86 L232 87 Z M238 82 L239 84 L236 86 L235 84 Z M221 72 L222 81 L220 88 L217 90 L220 94 L220 99 L222 104 L217 105 L213 98 L212 88 L213 84 L215 82 L217 83 L218 82 L217 76 Z M231 68 L232 70 L230 74 L233 73 L235 75 L235 78 L229 79 L225 83 L224 81 L227 77 L224 75 L225 71 Z M244 65 L245 66 L244 70 L239 74 L238 72 Z M227 62 L228 67 L226 70 L224 70 L223 67 L225 63 Z M239 52 L240 60 L238 65 L235 67 L232 64 L236 61 L237 53 Z M241 48 L243 48 L246 53 L245 59 L246 64 L245 65 L241 62 L242 54 L240 51 Z M239 31 L241 32 L240 34 L241 48 L240 49 L236 47 L233 43 L233 38 Z"/></svg>
