<svg xmlns="http://www.w3.org/2000/svg" width="512" height="512" viewBox="0 0 512 512" aria-hidden="true" focusable="false"><path fill="currentColor" fill-rule="evenodd" clip-rule="evenodd" d="M247 235 L235 246 L232 253 L232 261 L238 273 L247 280 L262 281 L272 275 L276 270 L280 261 L280 253 L275 243 L267 236 L260 234 Z M246 241 L251 239 L261 239 L266 241 L273 249 L274 262 L272 267 L265 274 L259 276 L247 274 L240 267 L238 263 L238 252 L240 247 Z M228 18 L188 26 L137 49 L107 70 L68 110 L49 139 L27 190 L19 235 L20 288 L28 327 L47 371 L70 406 L109 445 L152 472 L193 488 L235 495 L287 494 L325 486 L378 462 L404 444 L444 403 L471 359 L487 316 L493 276 L492 227 L484 188 L460 134 L432 96 L399 66 L358 40 L314 23 L273 17 Z M359 386 L360 398 L357 410 L353 417 L343 427 L346 428 L355 421 L362 408 L363 398 L366 397 L373 419 L372 435 L369 436 L359 424 L356 439 L350 445 L346 446 L345 443 L342 442 L340 447 L330 456 L316 460 L315 457 L319 451 L321 440 L325 433 L338 428 L330 423 L330 416 L336 411 L342 417 L344 417 L355 403 L357 387 Z M229 389 L231 386 L233 387 L233 391 L235 393 L239 404 L253 419 L255 423 L257 423 L259 419 L272 405 L279 391 L280 386 L283 389 L283 396 L279 407 L273 415 L257 432 L255 432 L234 409 L230 401 Z M153 385 L155 386 L157 403 L159 407 L167 414 L167 416 L170 417 L175 412 L179 412 L182 416 L182 423 L174 428 L187 433 L191 440 L193 451 L197 457 L196 460 L182 456 L171 446 L169 442 L167 442 L166 445 L162 445 L155 438 L154 426 L152 424 L150 429 L143 436 L140 435 L139 418 L146 395 L149 398 L149 405 L156 420 L164 427 L168 427 L155 410 L152 399 Z M392 373 L396 375 L404 384 L408 398 L408 408 L407 409 L398 409 L385 406 L379 402 L372 394 L374 392 L381 395 L394 396 L394 382 L391 375 Z M120 373 L121 375 L118 382 L118 396 L131 395 L138 392 L140 394 L127 406 L114 409 L105 409 L104 408 L104 397 L108 384 L117 374 Z M296 358 L300 365 L300 373 L298 379 L291 385 L281 386 L280 382 L289 379 L295 372 L296 365 L294 359 Z M216 358 L218 359 L216 364 L217 372 L223 379 L232 382 L231 385 L226 386 L220 385 L214 379 L212 374 L212 365 Z M379 358 L381 357 L382 359 L380 360 Z M348 349 L349 348 L358 349 L360 352 L370 359 L373 364 L380 369 L388 378 L390 383 L390 390 L381 391 L371 385 L364 376 L359 372 L356 366 L348 357 Z M163 348 L164 357 L156 366 L153 372 L137 388 L130 391 L123 391 L122 383 L125 376 L138 365 L142 359 L155 349 Z M216 346 L224 347 L212 355 L208 363 L208 376 L217 388 L225 391 L228 408 L250 433 L255 445 L261 434 L282 411 L287 391 L296 387 L303 378 L303 361 L300 355 L288 346 L296 346 L303 350 L314 366 L315 386 L310 402 L304 412 L293 403 L295 414 L293 430 L286 440 L280 432 L277 433 L279 445 L275 456 L257 478 L245 468 L233 446 L235 433 L232 432 L226 440 L219 430 L217 423 L219 403 L208 412 L199 395 L196 380 L199 362 Z M235 340 L247 347 L255 359 L266 346 L278 340 L280 344 L275 350 L275 356 L285 356 L290 362 L290 370 L286 375 L274 375 L272 396 L257 414 L246 405 L239 394 L238 375 L228 376 L222 372 L223 359 L227 356 L237 356 L237 350 L232 344 Z M326 336 L329 336 L338 341 L344 350 L344 359 L340 366 L338 365 L338 361 L336 357 L329 349 L328 343 L325 339 Z M186 336 L187 339 L184 343 L183 350 L176 357 L174 361 L174 365 L172 366 L168 359 L168 350 L174 341 L183 336 Z M177 326 L175 334 L168 342 L163 344 L154 344 L148 341 L149 337 L156 336 L163 329 L172 327 L174 325 Z M335 325 L337 324 L342 328 L350 330 L356 336 L363 337 L364 341 L358 344 L349 344 L343 341 L335 329 Z M458 317 L455 330 L448 339 L442 342 L442 345 L445 346 L444 350 L438 356 L425 357 L426 360 L434 365 L436 368 L435 370 L414 371 L393 366 L394 364 L402 364 L417 358 L426 349 L428 343 L426 343 L417 353 L408 358 L395 361 L386 360 L387 358 L404 355 L412 348 L413 345 L415 345 L415 342 L411 340 L411 333 L413 331 L421 330 L427 339 L430 329 L438 322 L446 321 L456 316 Z M54 317 L56 316 L62 320 L74 322 L82 329 L85 339 L91 330 L99 331 L101 338 L97 342 L97 345 L99 345 L106 354 L114 357 L125 358 L126 360 L118 361 L104 358 L95 353 L86 343 L84 343 L86 349 L98 360 L110 364 L118 364 L119 366 L98 371 L77 370 L77 366 L82 361 L86 360 L87 357 L74 356 L67 349 L67 346 L70 345 L70 342 L65 340 L58 332 L54 322 Z M230 315 L233 312 L238 311 L244 317 L257 320 L260 318 L267 317 L274 311 L277 311 L282 315 L282 321 L278 323 L277 331 L269 339 L258 346 L257 349 L255 349 L254 346 L243 339 L235 331 L234 323 L230 321 Z M218 307 L219 306 L224 307 L225 310 L224 311 L220 310 Z M295 306 L292 310 L289 311 L287 310 L288 307 L291 307 L293 305 Z M297 303 L299 302 L300 304 L298 305 Z M212 303 L214 302 L215 304 L213 305 Z M300 302 L302 301 L303 303 L301 304 Z M209 302 L211 301 L212 303 L210 304 Z M301 299 L303 298 L304 300 L302 301 Z M244 291 L246 289 L249 290 L266 289 L269 293 L271 300 L270 309 L267 312 L258 315 L249 314 L245 312 L241 307 L241 299 Z M325 285 L329 289 L331 294 L331 308 L328 318 L328 329 L315 330 L306 333 L293 333 L287 330 L284 327 L287 320 L287 315 L295 314 L298 310 L304 309 L306 307 L308 299 L313 295 L313 288 Z M187 285 L199 288 L199 295 L204 299 L204 302 L208 309 L214 310 L216 314 L226 315 L225 319 L228 326 L225 330 L219 333 L205 333 L197 330 L183 329 L184 319 L181 309 L181 293 Z M307 284 L309 285 L308 294 L305 293 Z M204 284 L206 285 L207 290 L206 294 L203 293 Z M305 282 L307 281 L308 283 L306 284 Z M204 282 L206 281 L207 283 L205 284 Z M290 273 L296 276 L301 281 L302 284 L301 292 L290 303 L287 304 L280 303 L275 298 L272 292 L272 287 L286 273 Z M222 273 L226 273 L240 287 L240 292 L237 298 L232 303 L225 304 L219 301 L211 292 L210 288 L211 281 L216 276 Z M487 259 L485 295 L472 341 L454 377 L430 410 L396 442 L347 471 L300 486 L259 490 L283 448 L289 448 L299 419 L311 422 L310 411 L320 385 L319 367 L312 352 L298 342 L286 341 L282 332 L295 339 L316 336 L333 362 L331 374 L347 366 L352 376 L353 393 L348 405 L327 411 L326 426 L319 432 L312 454 L301 462 L317 465 L356 447 L362 438 L379 443 L373 403 L391 413 L416 417 L412 391 L402 374 L443 376 L438 361 L446 356 L462 326 L463 302 L453 313 L431 320 L425 327 L411 327 L405 335 L407 346 L401 351 L376 353 L364 347 L372 330 L358 332 L336 317 L331 282 L340 287 L341 298 L352 313 L365 319 L386 320 L411 310 L421 311 L419 300 L447 291 L447 284 Z M24 260 L65 284 L65 291 L93 300 L91 311 L101 310 L126 320 L157 315 L168 304 L171 288 L180 282 L176 317 L154 332 L140 330 L147 347 L136 353 L109 350 L103 344 L105 330 L96 325 L87 327 L81 320 L59 313 L49 302 L51 329 L65 354 L74 361 L69 377 L110 374 L100 391 L96 417 L121 413 L138 404 L133 443 L150 437 L156 447 L195 465 L211 462 L199 453 L194 434 L186 426 L186 413 L180 407 L168 409 L163 404 L160 376 L165 366 L181 374 L179 362 L196 336 L217 339 L230 332 L226 341 L208 345 L197 356 L192 386 L202 412 L201 422 L213 419 L223 448 L229 448 L254 489 L212 486 L177 476 L143 460 L106 434 L71 397 L41 344 L29 306 Z M305 242 L310 246 L312 250 L313 259 L311 267 L307 271 L300 273 L288 268 L289 263 L288 247 L294 243 Z M205 243 L214 242 L225 247 L223 253 L224 262 L223 269 L211 273 L205 271 L201 267 L199 255 L200 250 Z M314 231 L318 231 L322 237 L325 236 L331 238 L346 257 L337 270 L331 276 L326 279 L320 279 L319 283 L314 283 L309 277 L309 275 L315 269 L318 258 L315 245 L312 243 L312 241 L309 240 L311 234 Z M194 231 L198 231 L203 238 L203 240 L197 245 L194 256 L197 269 L203 276 L201 281 L198 283 L193 283 L192 279 L186 279 L181 276 L165 258 L181 238 L190 237 Z M248 229 L258 228 L269 231 L280 241 L284 249 L285 259 L281 272 L274 280 L265 285 L251 286 L241 282 L231 272 L228 265 L230 244 L241 232 Z M363 223 L370 224 L375 229 L373 240 L387 239 L394 241 L413 256 L404 267 L392 274 L374 274 L375 285 L368 291 L362 291 L355 286 L355 276 L349 276 L343 281 L338 278 L345 266 L353 259 L358 258 L358 256 L351 254 L339 240 L339 236 L343 233 L349 238 L355 238 L355 229 Z M145 223 L152 224 L157 229 L157 238 L163 238 L169 233 L174 237 L161 254 L154 256 L154 258 L159 259 L167 266 L174 278 L169 281 L163 276 L157 276 L157 286 L150 291 L144 291 L138 287 L136 282 L138 274 L120 274 L109 268 L98 258 L108 247 L120 240 L138 240 L137 229 Z M306 221 L309 222 L308 230 L306 229 L305 224 Z M204 221 L207 222 L205 231 L203 230 L202 225 Z M365 214 L377 216 L384 223 L385 231 L397 231 L405 234 L415 241 L431 256 L431 258 L409 278 L398 283 L385 283 L383 294 L380 297 L373 300 L363 300 L357 297 L356 295 L357 294 L362 296 L372 295 L379 288 L381 280 L389 280 L401 275 L418 260 L421 259 L422 256 L399 238 L389 235 L382 235 L380 233 L379 226 L369 218 L368 219 L362 218 L356 222 L354 221 L359 216 Z M301 215 L303 214 L304 217 L302 218 Z M208 215 L210 214 L211 217 L209 218 Z M141 214 L151 215 L155 219 L152 220 L150 218 L146 219 L143 218 L133 226 L132 233 L130 235 L123 235 L113 238 L90 256 L90 258 L109 274 L123 280 L131 280 L133 288 L140 295 L150 296 L156 292 L158 293 L155 297 L149 300 L139 300 L132 297 L128 292 L127 283 L114 283 L108 281 L99 275 L81 258 L81 256 L98 240 L107 234 L115 231 L127 231 L127 225 L129 220 Z M279 212 L289 211 L296 216 L300 221 L302 226 L301 233 L295 239 L286 242 L283 237 L271 227 L275 216 Z M231 211 L237 216 L241 227 L236 230 L226 242 L221 241 L213 236 L210 231 L210 226 L215 217 L221 212 Z M299 211 L302 210 L303 212 L300 213 Z M209 213 L210 210 L213 211 L211 214 Z M282 205 L291 204 L293 207 L292 208 L283 207 Z M219 207 L221 204 L230 205 L229 207 L222 208 Z M345 218 L356 204 L364 200 L394 201 L411 210 L402 222 L424 219 L435 224 L439 229 L432 235 L433 237 L451 237 L463 244 L477 258 L448 279 L432 279 L440 287 L430 294 L415 296 L403 293 L411 305 L392 314 L367 315 L356 310 L348 302 L346 290 L359 303 L378 303 L385 299 L390 287 L410 283 L432 263 L444 256 L433 252 L411 232 L390 227 L387 219 L377 211 L360 211 L353 215 L347 224 Z M242 205 L247 201 L252 201 L255 199 L265 201 L268 203 L271 207 L271 215 L268 223 L266 225 L261 224 L246 225 L241 215 Z M35 256 L58 238 L79 237 L72 227 L86 219 L110 222 L101 210 L115 202 L126 199 L148 200 L163 211 L167 219 L166 225 L160 216 L152 211 L135 211 L125 219 L122 227 L101 232 L68 258 L77 261 L102 283 L122 287 L126 298 L134 303 L153 303 L165 290 L167 296 L151 313 L139 316 L120 314 L100 304 L109 293 L97 296 L82 294 L72 287 L80 279 L68 280 L54 274 Z M289 183 L294 181 L305 181 L314 184 L329 185 L328 196 L331 206 L331 220 L325 229 L313 226 L313 219 L307 214 L306 207 L299 206 L295 200 L291 201 L287 199 L287 194 L284 188 Z M225 184 L228 188 L225 195 L226 199 L218 200 L213 206 L206 207 L205 214 L199 219 L199 226 L186 229 L181 221 L181 206 L184 195 L183 185 L198 184 L207 181 L218 181 Z M364 174 L363 176 L354 179 L350 184 L342 186 L338 190 L335 189 L337 180 L347 170 L356 169 L361 171 Z M148 174 L155 169 L165 170 L170 173 L175 180 L178 190 L176 191 L174 188 L164 185 L157 178 L149 176 Z M230 194 L234 192 L236 182 L243 175 L253 169 L255 166 L257 166 L276 182 L278 192 L280 192 L283 197 L280 202 L274 204 L269 198 L255 194 L253 196 L243 198 L238 204 L236 204 L230 200 Z M292 157 L295 156 L296 158 L293 159 Z M216 156 L218 155 L220 158 L217 159 Z M340 149 L344 154 L344 164 L339 172 L331 177 L326 178 L325 176 L328 171 L329 165 L336 157 L338 150 Z M172 149 L174 150 L176 157 L182 163 L184 167 L184 171 L187 176 L186 178 L173 172 L168 164 L168 155 Z M382 155 L399 154 L415 160 L426 172 L428 172 L426 165 L418 157 L410 153 L397 150 L396 148 L417 143 L435 144 L435 148 L429 154 L427 154 L425 158 L435 158 L442 162 L445 167 L442 172 L453 181 L457 189 L458 198 L456 199 L450 195 L439 193 L433 190 L430 187 L428 177 L425 177 L425 181 L422 184 L414 184 L411 181 L411 176 L416 172 L415 169 L413 169 L402 159 L396 157 L383 157 Z M130 155 L129 157 L116 157 L110 159 L99 169 L97 169 L96 172 L101 176 L101 181 L98 184 L92 185 L87 181 L87 177 L84 177 L83 185 L77 191 L64 194 L56 199 L54 198 L57 184 L67 173 L70 172 L70 170 L67 168 L70 162 L76 158 L87 157 L87 155 L83 154 L77 148 L77 144 L95 143 L116 148 L115 150 L108 151 L94 157 L86 165 L84 172 L86 172 L92 164 L102 157 L112 154 Z M281 129 L290 129 L297 135 L300 141 L300 149 L297 155 L295 154 L296 146 L292 138 L286 134 L281 134 L280 133 Z M231 129 L232 130 L231 134 L226 134 L220 138 L216 145 L217 154 L215 155 L212 150 L212 141 L214 136 L219 130 Z M389 123 L390 131 L385 141 L377 148 L374 149 L372 153 L357 165 L349 165 L348 164 L349 156 L354 152 L359 142 L374 127 L380 124 Z M122 124 L128 123 L138 127 L153 142 L154 145 L164 157 L164 164 L156 165 L143 156 L139 150 L134 147 L125 138 L122 131 Z M408 105 L409 107 L406 126 L403 132 L394 141 L392 141 L391 139 L394 133 L394 119 L384 119 L375 122 L373 121 L373 119 L384 109 L394 106 Z M103 106 L104 105 L118 106 L128 109 L139 119 L139 121 L137 122 L128 119 L118 119 L118 133 L121 139 L120 141 L118 141 L107 129 Z M255 100 L264 107 L272 119 L274 139 L284 138 L290 144 L290 154 L286 158 L275 158 L275 164 L280 170 L278 174 L274 174 L259 161 L257 154 L255 154 L253 161 L238 174 L234 174 L232 170 L237 164 L237 158 L229 159 L222 154 L222 144 L226 139 L238 139 L240 118 Z M229 118 L231 111 L236 103 L253 84 L257 82 L280 109 L283 118 L283 125 L281 128 L279 127 L279 123 L277 121 L274 112 L259 95 L257 91 L255 91 L253 95 L240 109 L233 123 L232 128 L229 126 Z M315 54 L325 56 L334 61 L340 67 L343 73 L346 69 L351 70 L358 80 L358 90 L361 90 L362 85 L369 78 L372 79 L373 96 L366 119 L363 116 L363 110 L357 96 L346 87 L343 87 L343 89 L345 89 L356 102 L360 116 L359 129 L357 128 L356 115 L350 105 L345 101 L344 97 L342 97 L341 101 L338 103 L334 103 L330 100 L330 92 L337 89 L338 86 L327 83 L324 80 L318 61 L314 56 Z M196 54 L197 57 L193 63 L191 75 L185 83 L174 86 L176 89 L182 92 L182 100 L178 103 L174 103 L169 98 L158 111 L155 120 L155 128 L153 129 L152 116 L156 102 L167 89 L169 89 L169 87 L164 88 L154 97 L150 106 L149 115 L146 118 L139 96 L140 79 L143 78 L150 85 L152 90 L154 88 L154 80 L161 70 L166 69 L169 73 L171 68 L178 61 L187 56 Z M255 35 L265 43 L279 68 L278 82 L286 75 L293 85 L293 111 L304 102 L314 123 L313 152 L307 161 L294 169 L286 167 L296 163 L302 156 L303 136 L297 128 L287 124 L286 111 L282 103 L262 81 L257 69 L230 103 L226 111 L225 124 L215 128 L208 139 L211 158 L226 168 L219 169 L206 163 L197 146 L196 134 L201 114 L208 102 L219 112 L219 84 L225 75 L234 82 L233 68 L236 60 Z M260 23 L292 25 L341 39 L384 63 L426 99 L455 138 L471 170 L485 219 L487 255 L447 231 L448 224 L419 214 L420 203 L411 205 L384 194 L366 195 L351 202 L342 214 L341 226 L330 232 L336 221 L336 197 L360 181 L373 182 L365 168 L369 164 L387 160 L405 166 L408 186 L426 188 L433 196 L452 201 L463 212 L460 183 L438 154 L442 136 L436 140 L402 141 L412 123 L416 97 L388 103 L373 113 L379 72 L362 77 L357 68 L318 49 L301 52 L311 59 L319 82 L326 88 L328 105 L348 109 L353 121 L352 138 L347 148 L331 140 L333 152 L316 178 L296 176 L282 182 L286 173 L299 172 L313 161 L319 149 L320 130 L311 93 L299 95 L289 66 L283 67 Z M252 23 L229 67 L223 66 L217 77 L213 97 L201 93 L202 102 L192 128 L193 149 L199 161 L213 172 L227 174 L230 182 L216 176 L196 178 L179 152 L181 140 L165 148 L160 138 L159 121 L164 109 L184 105 L186 88 L193 82 L201 59 L211 52 L194 49 L160 65 L150 77 L133 72 L139 113 L124 103 L96 97 L100 123 L110 141 L69 137 L74 154 L64 162 L51 185 L49 212 L60 201 L78 196 L86 188 L100 188 L106 183 L107 166 L125 160 L143 164 L147 168 L139 182 L152 181 L176 197 L176 221 L182 232 L171 226 L170 214 L158 200 L128 194 L101 205 L92 203 L93 214 L64 224 L65 231 L25 255 L27 218 L40 172 L57 138 L86 99 L128 63 L171 39 L215 26 Z"/></svg>
