<svg xmlns="http://www.w3.org/2000/svg" width="512" height="512" viewBox="0 0 512 512" aria-hidden="true" focusable="false"><path fill="currentColor" fill-rule="evenodd" clip-rule="evenodd" d="M207 284 L175 300 L164 317 L159 338 L164 372 L176 395 L200 417 L221 428 L254 434 L245 441 L246 453 L255 461 L255 473 L246 487 L254 496 L263 496 L271 483 L262 473 L262 461 L272 450 L272 443 L263 432 L287 422 L306 402 L310 390 L307 359 L296 344 L280 335 L261 334 L247 339 L233 357 L234 374 L243 385 L262 390 L275 383 L279 367 L271 357 L261 356 L254 362 L256 372 L261 373 L264 363 L270 369 L269 376 L259 382 L248 378 L242 366 L248 349 L272 343 L283 346 L296 358 L301 369 L301 388 L292 405 L276 418 L261 423 L232 422 L206 411 L182 387 L170 358 L174 319 L190 300 L207 293 L238 293 L260 300 L220 320 L205 337 L200 353 L204 379 L211 391 L230 406 L253 411 L278 399 L265 403 L236 400 L218 385 L211 371 L211 347 L226 326 L273 306 L316 337 L336 340 L349 332 L353 313 L343 298 L321 289 L294 290 L272 297 L237 284 Z M257 480 L260 480 L263 483 L263 486 L260 490 L257 490 L254 487 L254 483 Z M258 441 L261 442 L265 446 L259 453 L252 448 L252 444 Z M284 302 L301 298 L321 298 L329 300 L341 310 L343 314 L342 325 L336 331 L324 331 L305 320 L301 315 L299 315 Z M329 255 L321 241 L308 235 L280 237 L256 251 L228 237 L208 236 L201 238 L191 247 L188 260 L197 272 L213 277 L232 274 L256 262 L280 276 L305 278 L319 273 L326 266 Z M198 254 L202 248 L209 244 L224 244 L225 246 L237 249 L243 253 L246 257 L236 264 L222 267 L220 269 L212 269 L211 267 L202 265 L199 262 Z M319 258 L316 263 L305 270 L285 269 L262 257 L263 255 L267 254 L278 247 L288 243 L295 242 L309 244 L318 251 Z M211 210 L214 221 L226 229 L238 229 L250 225 L257 220 L269 226 L277 227 L278 229 L290 229 L300 224 L306 214 L302 202 L293 197 L278 198 L259 210 L239 198 L224 197 L219 199 Z M267 214 L272 210 L281 206 L292 206 L296 210 L295 217 L293 219 L286 221 L270 218 Z M221 210 L225 206 L235 206 L245 210 L250 215 L247 218 L241 220 L230 221 L224 219 L221 216 Z M255 17 L251 22 L256 32 L251 81 L254 89 L245 101 L245 122 L235 140 L238 151 L245 160 L238 176 L232 176 L222 168 L222 156 L229 160 L229 164 L234 162 L234 156 L227 148 L227 134 L223 133 L214 153 L214 169 L217 176 L227 183 L228 192 L232 192 L233 187 L238 187 L260 204 L269 192 L278 187 L284 187 L285 192 L291 190 L290 183 L302 173 L303 155 L291 133 L290 148 L283 156 L283 162 L289 165 L287 160 L295 156 L296 165 L288 175 L278 175 L272 158 L279 151 L281 139 L272 122 L272 101 L264 91 L266 80 L262 64 L261 32 L266 23 L261 17 Z M258 157 L261 159 L263 164 L266 166 L269 172 L268 183 L259 191 L253 187 L248 181 L248 172 L252 164 Z M258 119 L260 120 L260 122 L272 136 L273 145 L267 152 L263 149 L261 141 L259 140 L256 141 L254 149 L252 151 L248 151 L244 145 L246 134 L251 129 L252 126 L257 122 Z M258 98 L266 107 L267 112 L265 114 L263 113 L260 106 L257 106 L257 108 L253 113 L250 112 L252 105 Z"/></svg>
