<svg xmlns="http://www.w3.org/2000/svg" width="512" height="512" viewBox="0 0 512 512" aria-hidden="true" focusable="false"><path fill="currentColor" fill-rule="evenodd" clip-rule="evenodd" d="M250 445 L245 448 L244 455 L248 460 L247 465 L249 468 L251 477 L253 479 L253 482 L255 484 L255 493 L256 495 L258 495 L258 481 L261 478 L261 473 L263 471 L263 468 L259 464 L260 463 L264 464 L264 459 L267 455 L267 450 L262 445 Z M248 451 L250 452 L251 455 L250 457 L247 455 Z M261 449 L264 451 L263 456 L261 455 L260 451 Z M320 386 L314 383 L310 383 L308 385 L301 384 L297 388 L298 402 L300 404 L306 403 L306 398 L303 396 L302 390 L303 388 L309 389 L311 387 L314 387 L317 389 L318 398 L314 399 L313 401 L318 403 L321 400 Z M192 382 L189 386 L191 393 L188 395 L188 399 L191 402 L196 401 L198 399 L204 405 L212 404 L214 402 L214 399 L207 402 L204 401 L201 398 L201 396 L198 395 L198 392 L194 390 L192 387 L196 384 L204 384 L212 389 L211 392 L209 390 L205 391 L205 394 L207 396 L214 395 L216 392 L216 388 L207 381 L199 380 Z M296 322 L293 326 L293 330 L288 334 L290 338 L288 341 L288 344 L291 347 L300 348 L305 344 L304 339 L305 333 L302 332 L300 325 L298 324 L298 322 Z M294 340 L296 339 L299 344 L295 345 Z M213 322 L211 326 L211 330 L206 334 L207 338 L206 345 L212 348 L217 348 L222 345 L221 339 L222 333 L219 331 L216 322 Z M212 343 L216 342 L217 344 L213 345 Z M387 295 L382 300 L382 303 L387 308 L383 314 L385 319 L384 326 L388 328 L392 324 L393 327 L395 328 L397 326 L395 321 L401 318 L401 310 L403 308 L404 299 L400 295 L394 296 Z M390 320 L393 319 L394 321 L391 322 Z M387 315 L389 314 L390 316 L388 317 Z M388 299 L395 300 L398 298 L400 300 L400 305 L396 306 L395 311 L398 314 L397 316 L390 313 L389 310 L390 305 L387 303 Z M129 297 L123 294 L119 296 L111 295 L107 300 L107 302 L110 303 L111 306 L123 306 L126 309 L126 315 L124 317 L119 312 L115 313 L113 311 L110 311 L109 313 L110 321 L108 324 L111 324 L118 319 L126 320 L128 318 L129 307 L126 302 L129 299 Z M112 315 L114 314 L115 316 L113 317 Z M120 300 L123 299 L124 301 L121 302 Z M327 292 L327 303 L330 305 L334 303 L341 305 L345 302 L345 300 L343 299 L345 296 L345 292 L343 290 L331 289 Z M337 299 L342 298 L343 300 L339 302 Z M330 293 L337 292 L338 298 L334 299 L333 295 L331 295 Z M165 291 L164 301 L166 304 L170 305 L173 301 L177 304 L181 304 L183 302 L183 291 L180 289 L168 289 Z M171 294 L178 292 L180 294 L180 299 L178 300 L175 298 L172 298 Z M448 250 L448 261 L449 264 L453 267 L458 267 L462 263 L473 263 L476 260 L495 257 L495 255 L485 255 L482 254 L480 251 L476 251 L474 249 L462 248 L461 246 L457 244 L453 244 L449 247 Z M451 260 L453 259 L454 261 L452 262 Z M465 254 L467 255 L466 259 L464 258 Z M456 247 L457 249 L452 253 L451 252 L452 249 Z M64 249 L62 245 L55 243 L50 247 L38 248 L32 253 L18 253 L17 256 L28 256 L30 258 L37 259 L39 261 L50 262 L54 266 L59 266 L64 261 Z M58 259 L60 258 L61 260 L59 261 Z M55 247 L58 246 L61 251 L59 252 Z M256 229 L254 231 L254 234 L250 237 L251 242 L249 244 L249 246 L253 247 L254 249 L244 251 L245 256 L250 255 L252 256 L246 261 L244 265 L244 271 L249 277 L254 278 L256 283 L266 275 L267 268 L266 265 L261 260 L266 259 L269 256 L269 254 L264 251 L265 247 L259 244 L261 237 L257 233 Z M260 266 L262 266 L264 269 L264 272 L262 275 L260 274 L259 268 Z M248 266 L250 267 L252 272 L251 274 L248 272 L247 269 Z M248 264 L250 263 L251 265 L249 266 Z M254 261 L257 258 L261 259 L260 261 L256 262 Z M254 237 L256 236 L258 239 L255 240 Z M329 206 L327 208 L327 220 L330 222 L334 221 L335 217 L333 216 L333 214 L338 213 L341 215 L340 217 L338 217 L338 220 L342 222 L344 220 L345 207 L341 205 Z M164 209 L165 213 L164 218 L166 221 L170 222 L172 220 L172 217 L170 215 L171 209 L173 210 L174 213 L178 213 L180 215 L179 217 L176 217 L176 220 L178 222 L182 221 L183 207 L180 205 L176 206 L168 205 Z M399 190 L393 190 L390 193 L384 192 L383 201 L386 203 L390 203 L394 201 L395 192 L398 193 L400 196 L400 202 L397 204 L396 210 L392 211 L391 208 L387 208 L386 215 L389 217 L393 217 L396 214 L402 215 L404 212 L404 208 L402 206 L403 194 Z M386 197 L390 196 L391 198 L388 200 Z M115 189 L110 192 L111 198 L107 202 L106 209 L110 215 L117 214 L119 217 L122 217 L126 214 L126 211 L123 212 L121 211 L123 206 L116 205 L114 206 L113 211 L111 212 L110 203 L115 199 L114 195 L115 193 L119 196 L124 195 L127 199 L130 198 L131 195 L129 195 L126 191 L119 192 L117 189 Z M292 164 L288 167 L287 174 L288 178 L291 181 L289 186 L290 187 L297 186 L302 187 L304 178 L303 169 L305 168 L305 166 L301 164 L297 165 Z M298 172 L301 175 L298 176 L299 181 L295 184 L293 181 L295 179 L295 173 Z M209 164 L206 167 L205 176 L208 180 L212 180 L213 179 L212 173 L216 172 L217 182 L215 184 L209 184 L208 186 L209 187 L216 186 L220 188 L222 178 L221 170 L223 166 L219 164 L215 165 Z M299 110 L299 114 L297 117 L298 124 L299 125 L306 124 L305 111 L312 110 L318 115 L318 119 L316 122 L311 124 L311 126 L314 129 L318 128 L322 118 L322 114 L319 110 L310 106 L305 106 Z M214 105 L211 106 L206 105 L203 110 L192 109 L186 115 L186 119 L191 122 L190 127 L192 131 L200 132 L204 128 L211 128 L215 125 L217 121 L215 114 L207 112 L208 109 L211 110 L214 107 Z M213 118 L213 121 L208 125 L201 124 L198 128 L194 127 L194 123 L203 117 Z M196 112 L197 113 L196 118 L193 120 L190 117 L190 115 Z M255 18 L245 64 L216 67 L175 81 L149 96 L127 118 L105 105 L117 126 L81 178 L68 218 L65 245 L69 245 L85 180 L103 149 L122 129 L124 136 L88 194 L77 246 L68 252 L70 261 L78 267 L90 322 L123 373 L122 382 L89 339 L78 314 L68 265 L65 272 L82 335 L117 385 L105 406 L130 398 L182 431 L216 442 L245 445 L244 441 L181 426 L151 409 L131 391 L138 388 L189 421 L246 433 L253 441 L259 441 L265 433 L319 423 L374 389 L381 392 L332 426 L266 443 L278 445 L340 427 L384 397 L407 408 L395 386 L419 356 L433 328 L443 297 L446 265 L426 334 L390 384 L387 376 L420 328 L430 300 L435 265 L444 258 L442 250 L435 247 L421 185 L389 136 L390 128 L422 168 L434 196 L443 245 L447 242 L430 174 L410 141 L395 126 L409 104 L395 112 L383 112 L337 80 L299 67 L268 63 Z M254 428 L258 428 L261 431 L260 436 L257 438 L254 438 L251 435 L251 431 Z M123 393 L125 392 L126 394 L124 395 Z M378 378 L382 378 L386 382 L385 385 L381 388 L379 388 L376 384 L376 380 Z M129 377 L133 377 L135 379 L136 382 L134 386 L130 387 L126 384 L126 380 Z M254 365 L260 366 L263 370 L263 376 L259 380 L253 380 L249 376 L249 370 Z M359 356 L361 355 L362 357 L360 358 Z M336 333 L341 333 L346 337 L346 343 L342 347 L335 347 L333 345 L332 337 Z M169 334 L176 333 L180 336 L181 339 L180 344 L177 347 L171 347 L167 344 L166 338 Z M298 302 L330 334 L329 345 L300 363 L282 369 L267 371 L259 361 L294 305 Z M214 302 L253 361 L245 371 L215 364 L194 353 L183 344 L182 334 Z M291 300 L292 303 L282 318 L281 322 L277 328 L274 330 L273 334 L269 338 L268 342 L264 346 L261 353 L258 354 L257 353 L257 341 L260 336 L259 331 L262 330 L263 328 L261 324 L266 323 L265 320 L268 318 L268 314 L263 316 L262 313 L258 310 L258 301 L259 300 Z M220 300 L254 300 L255 301 L255 312 L244 314 L244 317 L255 319 L253 322 L247 323 L254 341 L255 351 L254 356 L252 355 L251 351 L247 347 L241 335 L239 334 L239 332 L237 331 L237 329 L234 327 L229 319 L228 315 L219 302 Z M291 295 L290 297 L259 297 L258 293 L261 291 L268 290 L280 284 Z M221 295 L232 284 L244 290 L252 291 L255 293 L254 297 L222 297 Z M362 258 L370 266 L366 290 L347 326 L343 330 L333 331 L301 298 L358 257 Z M299 293 L299 258 L300 257 L308 258 L309 264 L311 266 L315 266 L318 262 L322 262 L324 259 L327 260 L329 258 L349 257 L350 258 L348 261 L331 272 L330 274 L328 274 L325 278 L317 282 L301 294 Z M292 257 L296 258 L296 291 L293 292 L283 281 L283 279 L289 270 Z M217 257 L221 258 L223 270 L229 279 L229 281 L219 292 L216 291 L216 258 Z M150 257 L158 259 L212 298 L180 331 L169 330 L151 302 L142 266 Z M314 257 L316 256 L317 258 L315 259 Z M163 258 L168 256 L179 258 L182 257 L185 260 L188 259 L190 262 L194 262 L197 266 L201 266 L203 264 L203 261 L207 257 L212 257 L214 263 L214 285 L213 286 L214 293 L212 294 L196 282 L188 278 L185 274 L183 274 L182 272 L164 260 Z M189 255 L191 254 L192 256 L190 257 Z M319 254 L321 253 L322 255 L320 256 Z M433 251 L440 252 L441 256 L437 261 L434 261 L430 257 Z M72 251 L78 250 L82 254 L81 257 L78 260 L74 260 L71 256 Z M371 248 L376 249 L380 253 L380 258 L374 263 L369 262 L365 258 L365 253 Z M135 249 L142 248 L146 251 L147 258 L143 262 L136 262 L132 258 L132 253 Z M251 223 L261 223 L274 228 L283 237 L288 250 L288 262 L282 276 L276 282 L263 288 L250 288 L236 282 L230 276 L224 261 L224 250 L229 237 L238 228 Z M295 220 L296 221 L296 253 L292 254 L290 244 L288 239 L283 233 L283 231 Z M299 220 L300 219 L303 220 L318 231 L326 235 L329 239 L331 239 L332 241 L334 241 L335 243 L348 251 L349 254 L348 255 L340 255 L331 253 L326 254 L323 250 L321 249 L318 250 L315 245 L312 245 L310 247 L310 251 L306 254 L300 254 L299 253 Z M217 219 L229 230 L229 233 L226 236 L222 244 L220 254 L216 253 L216 220 Z M214 219 L213 223 L214 253 L213 254 L207 254 L204 252 L201 245 L197 245 L194 250 L190 249 L187 254 L185 254 L184 252 L179 254 L165 254 L164 253 L166 250 L177 243 L178 241 L180 241 L181 239 L183 239 L189 233 L194 231 L212 218 Z M258 219 L259 215 L290 215 L291 216 L280 228 L270 222 Z M221 216 L222 215 L254 215 L255 219 L245 221 L232 228 Z M333 181 L343 181 L347 185 L363 213 L368 228 L370 245 L362 254 L357 254 L301 215 Z M179 180 L212 214 L155 254 L151 254 L142 245 L144 229 L150 211 L169 181 Z M337 164 L343 165 L347 171 L346 175 L340 179 L335 178 L332 174 L333 167 Z M170 164 L177 164 L179 166 L180 175 L177 178 L171 178 L167 175 L166 169 Z M258 156 L260 157 L261 161 L267 168 L273 180 L275 181 L275 183 L277 184 L283 193 L284 197 L293 210 L292 212 L259 212 L258 211 L258 200 L268 199 L268 195 L259 195 L256 193 L257 191 L266 191 L266 189 L263 186 L263 181 L261 179 L261 175 L258 169 L257 159 Z M254 156 L255 167 L252 177 L249 180 L250 184 L248 185 L247 188 L254 188 L255 190 L245 192 L244 198 L247 200 L253 199 L255 200 L255 211 L254 212 L220 212 L219 210 L228 197 L232 188 L237 183 L240 176 L244 172 L245 168 L249 164 L250 160 Z M358 154 L360 153 L361 155 L359 156 Z M267 140 L286 143 L300 148 L329 167 L330 178 L298 210 L258 150 Z M245 140 L253 148 L253 151 L218 207 L214 210 L182 178 L183 167 L210 149 L223 144 Z M127 137 L136 137 L144 144 L146 155 L152 155 L149 163 L157 158 L154 170 L166 162 L165 180 L148 207 L138 244 L129 251 L130 261 L138 266 L149 306 L165 331 L165 347 L182 348 L220 370 L243 374 L252 383 L304 365 L331 348 L343 350 L341 360 L354 360 L355 368 L362 367 L374 378 L369 390 L324 418 L264 430 L257 424 L257 413 L268 387 L246 387 L246 398 L255 400 L250 403 L255 424 L245 431 L189 418 L144 390 L138 377 L149 369 L147 363 L156 368 L156 360 L164 364 L172 359 L155 341 L158 351 L149 349 L151 355 L146 356 L147 362 L135 375 L124 371 L93 322 L80 263 L86 256 L95 256 L125 268 L125 243 L113 246 L111 252 L106 249 L86 254 L80 243 L93 189 Z M255 130 L259 131 L263 135 L263 141 L258 146 L254 146 L249 141 L249 135 Z M379 125 L383 125 L386 127 L386 132 L384 134 L379 134 L377 132 L377 127 Z M129 125 L135 126 L136 131 L134 134 L129 134 L126 131 L126 128 Z M266 79 L314 88 L356 110 L374 125 L374 135 L368 141 L358 136 L358 149 L349 147 L341 152 L359 170 L368 145 L376 137 L386 137 L407 164 L421 192 L432 248 L426 255 L417 255 L387 243 L390 252 L386 265 L389 269 L410 257 L426 257 L432 264 L429 291 L413 336 L385 375 L376 375 L370 369 L362 348 L354 350 L358 342 L345 350 L350 341 L348 330 L362 309 L374 266 L382 261 L383 251 L374 245 L369 218 L348 181 L350 170 L346 163 L330 163 L298 143 L267 136 L255 126 L269 124 L265 115 L258 114 L263 111 L258 106 L258 87 Z M255 87 L255 98 L247 114 L248 118 L254 119 L244 122 L249 129 L246 135 L212 144 L182 163 L171 161 L171 152 L166 152 L164 148 L157 151 L156 143 L150 147 L150 142 L138 134 L138 126 L147 118 L189 92 L243 79 Z M256 73 L261 76 L261 81 L257 84 L254 83 L251 79 L252 76 Z M385 120 L384 122 L376 123 L349 102 L322 88 L292 79 L265 77 L261 71 L254 70 L247 77 L217 80 L189 89 L163 103 L138 123 L129 121 L130 118 L149 102 L164 92 L189 80 L220 71 L245 68 L247 65 L261 66 L264 64 L268 68 L303 73 L332 83 L363 101 Z M260 60 L262 59 L263 61 L261 62 Z M248 58 L250 57 L254 62 L253 63 L250 62 Z M256 54 L258 53 L259 55 L257 56 Z"/></svg>
