<svg xmlns="http://www.w3.org/2000/svg" width="512" height="512" viewBox="0 0 512 512" aria-hidden="true" focusable="false"><path fill="currentColor" fill-rule="evenodd" clip-rule="evenodd" d="M257 17 L227 70 L222 93 L212 92 L205 128 L195 120 L178 147 L181 161 L187 167 L197 167 L196 174 L183 186 L176 169 L162 162 L162 174 L139 203 L132 229 L121 222 L103 270 L104 296 L94 295 L98 326 L106 345 L128 366 L146 373 L131 381 L119 379 L126 391 L140 402 L149 403 L148 410 L158 414 L171 429 L185 434 L197 432 L204 423 L203 414 L194 409 L197 403 L210 400 L228 408 L235 417 L219 424 L215 439 L224 453 L233 453 L236 466 L247 477 L255 496 L275 468 L280 453 L286 454 L298 438 L293 423 L278 417 L283 409 L300 400 L314 402 L319 409 L309 415 L309 424 L314 431 L327 434 L340 430 L364 410 L361 403 L376 400 L388 389 L393 379 L373 379 L367 372 L386 365 L405 347 L413 332 L419 297 L408 296 L409 267 L392 233 L392 221 L381 229 L373 202 L350 173 L351 162 L335 171 L330 187 L316 173 L316 167 L328 166 L335 149 L318 120 L309 127 L300 92 L290 93 L285 69 L267 43 Z M226 425 L231 423 L237 424 L244 430 L248 437 L248 444 L252 448 L255 459 L258 458 L261 447 L265 444 L264 438 L267 432 L274 425 L285 424 L289 428 L292 437 L290 443 L286 447 L278 441 L277 437 L273 440 L275 455 L272 463 L256 482 L249 471 L242 465 L238 457 L238 448 L240 445 L239 439 L234 436 L235 441 L228 447 L223 443 L221 433 Z M256 406 L258 407 L265 419 L265 426 L260 434 L257 444 L255 443 L253 435 L247 425 L250 414 Z M152 404 L154 403 L156 406 L154 407 Z M215 396 L218 395 L219 398 L217 399 Z M301 393 L314 387 L330 387 L332 389 L342 392 L347 397 L354 408 L350 410 L344 417 L344 419 L336 426 L330 428 L320 428 L315 424 L314 418 L316 416 L322 418 L326 414 L326 407 L324 403 L315 396 L302 395 Z M156 404 L162 404 L162 402 L170 392 L180 389 L182 387 L198 387 L200 389 L212 393 L211 395 L198 396 L191 401 L192 404 L190 409 L187 410 L188 417 L193 418 L197 416 L199 419 L198 423 L193 428 L186 429 L177 426 L166 416 L163 411 L160 413 L158 412 L159 408 Z M327 380 L337 377 L339 375 L351 375 L372 384 L379 385 L382 388 L372 396 L360 398 L353 396 L344 386 L333 382 L328 382 Z M185 380 L184 382 L170 385 L159 396 L152 398 L137 395 L131 388 L134 385 L138 385 L146 382 L159 375 L174 375 L176 377 L179 377 Z M139 363 L141 362 L142 364 L140 365 Z M190 358 L192 358 L202 365 L217 371 L232 385 L239 398 L242 409 L244 410 L243 415 L239 413 L236 406 L232 403 L232 401 L226 395 L209 385 L198 382 L191 376 L188 364 Z M322 357 L324 361 L324 368 L321 377 L315 382 L301 386 L289 393 L279 403 L272 415 L270 416 L268 413 L273 399 L280 386 L284 383 L284 381 L297 370 L310 365 Z M243 334 L245 335 L247 343 L256 356 L265 344 L267 337 L269 335 L275 337 L279 343 L279 351 L276 356 L270 355 L270 363 L268 364 L267 368 L262 372 L262 374 L257 381 L254 379 L249 372 L249 370 L243 364 L243 354 L237 356 L233 349 L234 341 Z M255 325 L260 326 L263 331 L263 337 L257 345 L255 345 L250 338 L251 327 Z M366 307 L373 313 L376 319 L379 330 L379 339 L373 354 L363 364 L353 368 L352 366 L362 354 L363 342 L360 338 L355 336 L354 337 L355 343 L353 345 L348 345 L344 341 L343 335 L345 331 L362 316 L364 308 Z M146 307 L149 308 L150 315 L153 319 L165 328 L169 334 L169 340 L165 345 L160 345 L158 343 L157 336 L152 338 L149 343 L149 349 L151 355 L159 365 L158 368 L151 365 L141 356 L137 350 L134 341 L134 327 L136 320 L140 313 L142 312 L142 310 Z M410 304 L411 312 L409 314 L409 322 L402 341 L390 355 L378 363 L372 365 L371 363 L377 358 L380 353 L384 341 L384 327 L387 321 L398 310 Z M102 304 L104 304 L117 312 L127 323 L129 332 L127 334 L122 332 L122 335 L126 344 L129 346 L132 353 L139 362 L138 364 L125 357 L111 342 L104 324 L101 307 Z M328 306 L310 328 L306 331 L297 334 L287 335 L278 333 L266 325 L270 321 L274 322 L290 321 L301 317 L319 303 L324 303 Z M184 306 L189 303 L194 303 L206 314 L213 318 L231 322 L243 321 L246 325 L241 330 L231 334 L224 335 L215 334 L201 327 L195 320 L195 318 L189 312 L189 310 L185 308 Z M291 273 L290 280 L292 284 L292 294 L289 302 L284 308 L281 307 L282 292 L280 287 L280 280 L288 272 Z M223 272 L233 281 L231 290 L231 305 L232 306 L231 309 L224 303 L221 297 L220 286 L223 279 L222 274 Z M256 261 L272 280 L277 294 L274 311 L268 317 L260 320 L246 318 L239 311 L236 303 L238 285 Z M320 252 L321 255 L319 259 L319 274 L321 277 L319 278 L319 285 L314 298 L302 310 L298 311 L295 314 L286 316 L285 314 L293 306 L298 296 L298 281 L293 272 L289 271 L292 263 L298 257 L311 252 Z M192 252 L201 252 L208 254 L217 259 L221 264 L223 271 L219 273 L215 280 L214 293 L219 305 L228 314 L227 316 L215 313 L213 310 L205 306 L199 299 L195 291 L192 279 Z M126 235 L129 238 L135 252 L135 259 L133 265 L140 264 L144 269 L147 278 L146 282 L139 288 L135 287 L133 285 L133 281 L136 280 L136 277 L132 273 L126 274 L125 269 L123 269 L119 276 L116 286 L116 303 L113 304 L111 302 L108 291 L108 272 L112 258 L121 244 L123 237 Z M387 233 L392 234 L390 236 L390 241 L401 259 L405 274 L404 293 L402 300 L399 304 L396 303 L396 284 L392 272 L389 268 L387 268 L386 273 L381 273 L377 276 L377 280 L380 282 L380 285 L378 287 L373 288 L368 284 L366 280 L367 271 L372 264 L375 263 L376 265 L379 265 L377 257 L378 250 L383 238 L386 236 Z M256 221 L259 223 L263 231 L270 237 L283 258 L284 269 L277 276 L264 263 L257 249 L255 250 L250 261 L237 276 L229 269 L229 260 L241 239 L247 234 Z M257 181 L273 202 L276 210 L276 228 L278 228 L279 223 L284 218 L287 219 L287 223 L296 243 L293 255 L290 257 L287 256 L285 249 L264 223 L256 208 L247 225 L228 248 L225 257 L222 258 L217 250 L217 240 L226 219 L229 218 L233 222 L235 228 L237 228 L237 208 L242 198 Z M342 172 L345 174 L350 184 L365 200 L374 218 L376 226 L375 243 L371 240 L370 234 L363 220 L354 211 L353 216 L342 214 L338 215 L334 219 L334 224 L338 223 L341 227 L340 230 L336 233 L327 231 L323 226 L322 217 L324 212 L329 207 L334 205 L349 205 L341 198 L337 190 L338 177 Z M170 171 L175 178 L176 186 L171 199 L164 205 L179 205 L186 209 L190 215 L190 225 L184 232 L177 233 L172 229 L172 226 L175 223 L179 223 L178 218 L171 214 L160 216 L159 212 L157 211 L150 219 L140 243 L138 244 L136 241 L136 231 L140 214 L146 202 L164 182 L168 172 Z M257 143 L289 180 L323 201 L316 215 L319 232 L337 239 L346 230 L346 220 L362 231 L369 259 L361 271 L361 283 L366 291 L379 293 L388 282 L392 298 L388 313 L381 317 L368 301 L356 297 L357 312 L338 334 L342 348 L356 351 L350 361 L330 372 L327 353 L321 347 L313 357 L286 371 L263 405 L261 385 L284 354 L285 341 L311 334 L339 307 L322 296 L329 247 L300 249 L292 211 L281 211 L276 196 L255 167 L236 197 L232 213 L221 211 L212 249 L183 247 L192 296 L174 306 L201 334 L228 341 L229 355 L252 386 L253 399 L248 406 L235 380 L191 347 L184 357 L183 372 L166 365 L157 351 L173 345 L174 332 L156 313 L158 298 L142 303 L130 318 L123 311 L121 289 L125 283 L131 292 L142 293 L150 286 L152 273 L144 259 L150 232 L167 220 L172 237 L183 239 L191 234 L197 218 L190 201 L227 177 Z M316 131 L318 131 L319 134 L323 137 L328 147 L328 156 L325 160 L318 161 L316 159 L317 153 L312 154 L309 159 L309 169 L314 180 L325 191 L333 195 L335 197 L334 199 L324 196 L312 189 L302 179 L298 170 L297 157 L299 149 L302 144 Z M197 131 L211 145 L215 153 L214 172 L209 181 L201 189 L189 196 L179 199 L178 197 L189 190 L197 182 L204 167 L204 160 L200 154 L196 153 L197 158 L194 161 L188 160 L184 154 L184 148 L188 139 L194 132 Z M256 85 L266 99 L268 113 L286 135 L290 171 L267 149 L257 130 L255 130 L252 139 L244 151 L224 171 L222 170 L226 137 L245 112 L246 101 Z M256 34 L283 79 L285 86 L284 111 L289 102 L296 99 L296 105 L303 121 L303 132 L294 147 L291 133 L275 114 L272 98 L257 73 L242 95 L238 113 L223 130 L219 146 L210 135 L209 124 L217 100 L220 99 L225 105 L226 111 L229 110 L230 103 L227 92 L229 80 Z"/></svg>
