<svg xmlns="http://www.w3.org/2000/svg" width="512" height="512" viewBox="0 0 512 512" aria-hidden="true" focusable="false"><path fill="currentColor" fill-rule="evenodd" clip-rule="evenodd" d="M366 164 L366 189 L363 200 L366 200 L367 203 L362 204 L360 207 L361 211 L359 213 L359 216 L361 218 L361 222 L357 228 L358 235 L357 241 L359 242 L363 240 L371 241 L372 243 L375 242 L374 239 L380 237 L378 233 L379 230 L377 228 L378 218 L370 214 L371 212 L375 211 L373 207 L375 204 L374 201 L369 198 L369 196 L372 193 L369 191 L370 188 L368 186 L368 165 Z M367 238 L370 235 L373 236 L370 239 Z M361 232 L363 231 L364 234 L362 235 Z M374 228 L377 231 L376 234 L373 232 Z M366 228 L368 227 L369 229 L367 230 Z M373 222 L372 224 L367 225 L366 228 L361 227 L368 220 Z M364 217 L366 216 L367 218 L365 219 Z M364 209 L366 208 L367 211 L365 212 Z M336 91 L336 111 L333 114 L336 121 L332 124 L335 129 L331 131 L328 143 L332 145 L332 149 L327 153 L325 157 L325 163 L328 171 L330 172 L328 176 L329 184 L325 192 L328 192 L333 197 L334 202 L337 204 L340 202 L340 198 L344 194 L343 191 L347 189 L345 185 L345 180 L347 179 L345 168 L351 165 L349 163 L349 158 L344 153 L347 141 L342 140 L342 138 L344 137 L344 132 L342 130 L343 123 L339 118 L338 92 Z M339 188 L341 187 L342 189 L340 190 Z M333 186 L335 187 L335 191 L337 192 L336 195 L330 192 Z M337 180 L339 181 L338 185 L336 184 Z M341 175 L343 176 L342 180 L340 179 Z M331 176 L333 175 L334 178 L332 179 Z M334 172 L339 171 L340 173 L335 174 Z M336 168 L337 165 L340 166 L338 169 Z M344 160 L347 161 L345 165 L343 164 Z M329 160 L331 161 L330 166 L328 165 Z M333 158 L335 157 L336 159 L334 160 Z M336 155 L340 154 L341 156 L337 157 Z M335 150 L337 147 L342 148 L341 152 L336 152 Z M331 136 L335 135 L336 138 L333 139 Z M337 133 L340 130 L342 131 L339 134 Z M177 91 L176 113 L173 116 L177 121 L173 124 L173 126 L177 129 L171 132 L169 144 L172 144 L173 148 L165 158 L165 168 L175 171 L168 177 L169 185 L167 187 L167 191 L173 196 L174 202 L178 204 L182 203 L180 198 L187 190 L187 186 L185 184 L185 181 L187 179 L185 169 L189 164 L189 151 L186 153 L182 151 L182 149 L186 147 L187 141 L183 142 L182 139 L184 138 L184 134 L187 133 L187 131 L183 130 L184 124 L181 123 L181 119 L179 118 Z M173 189 L177 191 L176 195 L171 192 Z M177 180 L180 183 L178 186 L176 185 Z M180 179 L181 176 L184 177 L182 180 Z M173 175 L175 176 L174 179 L171 178 Z M175 172 L180 171 L181 173 L178 175 Z M187 160 L187 163 L183 168 L179 169 L175 168 L176 165 L182 164 L184 159 Z M169 156 L171 157 L172 162 L171 164 L168 162 Z M176 155 L180 154 L181 156 L177 157 Z M177 147 L179 148 L178 152 L175 151 Z M174 136 L176 135 L177 137 L175 138 Z M178 131 L182 130 L183 133 L180 134 Z M179 124 L181 123 L182 125 L180 126 Z M256 17 L256 46 L250 57 L249 81 L244 86 L246 92 L253 88 L255 91 L227 136 L221 135 L224 127 L219 120 L212 141 L216 148 L205 153 L204 168 L195 173 L202 190 L208 192 L195 196 L199 205 L183 207 L184 212 L172 224 L161 248 L150 247 L142 254 L152 255 L153 262 L162 260 L167 266 L165 276 L182 312 L193 319 L191 325 L185 326 L176 316 L176 323 L168 324 L169 310 L162 308 L166 292 L154 285 L148 269 L135 261 L133 248 L141 241 L156 243 L158 228 L146 223 L156 220 L151 215 L154 209 L150 206 L147 164 L146 194 L141 198 L147 202 L139 206 L136 216 L140 221 L135 228 L138 242 L131 242 L128 267 L124 267 L124 278 L130 283 L123 284 L119 345 L124 348 L119 351 L125 389 L138 395 L133 400 L145 421 L144 428 L150 432 L134 427 L154 448 L166 451 L157 463 L189 468 L187 476 L211 476 L209 485 L237 486 L244 482 L258 496 L260 487 L275 483 L303 484 L304 476 L322 477 L328 468 L356 462 L350 453 L380 427 L365 431 L382 402 L377 395 L385 395 L392 382 L389 362 L394 351 L390 348 L394 318 L390 311 L394 308 L389 297 L391 283 L384 281 L390 267 L382 242 L376 250 L378 258 L364 272 L361 284 L348 291 L349 305 L355 309 L334 318 L328 327 L322 325 L326 314 L323 310 L333 310 L346 286 L347 265 L370 252 L351 251 L340 220 L319 204 L321 196 L307 192 L317 179 L310 171 L314 162 L301 148 L297 121 L284 128 L258 91 L258 85 L266 89 L270 82 L263 68 L265 61 L260 58 L263 52 L259 49 Z M286 481 L288 480 L289 482 L287 483 Z M224 481 L230 480 L231 482 L227 484 Z M279 474 L282 475 L282 477 L280 478 L282 480 L281 482 L276 479 Z M284 476 L286 473 L292 473 L293 476 L296 476 L299 478 L299 481 L297 482 L295 479 L285 479 Z M203 473 L208 472 L209 474 L204 475 Z M210 472 L212 471 L213 473 L211 474 Z M229 471 L231 470 L232 472 L230 473 Z M253 471 L256 469 L260 469 L261 475 L255 477 L253 475 Z M216 470 L219 469 L220 473 L217 474 Z M269 468 L271 469 L272 474 L271 476 L268 475 Z M269 481 L266 483 L262 481 L261 482 L263 484 L262 487 L258 486 L256 488 L253 488 L252 486 L254 483 L251 482 L251 484 L249 485 L245 482 L243 478 L248 476 L248 474 L250 473 L255 480 L260 479 L263 475 L263 469 L265 468 L266 478 Z M248 469 L250 468 L251 470 L249 471 Z M285 470 L286 467 L289 468 L287 471 Z M279 468 L282 467 L285 472 L283 473 L279 470 Z M218 477 L221 475 L222 471 L226 467 L228 468 L228 470 L225 472 L227 475 L232 475 L235 471 L238 472 L233 479 L219 479 Z M246 466 L247 467 L246 471 L243 472 L242 470 Z M231 470 L232 467 L234 466 L237 467 L233 471 Z M293 465 L298 470 L297 474 L295 474 L294 471 L290 470 Z M309 466 L307 471 L300 469 L306 464 Z M220 467 L223 464 L225 465 L222 468 Z M297 464 L300 463 L301 465 L298 466 Z M310 463 L313 461 L316 461 L317 462 L316 467 L318 468 L320 467 L322 472 L317 473 L316 471 L311 471 L309 467 Z M199 462 L201 461 L202 463 L200 464 Z M299 460 L301 459 L302 461 L300 462 Z M217 464 L213 470 L208 468 L207 471 L200 471 L199 473 L196 473 L195 469 L193 468 L194 466 L200 467 L204 463 L207 465 L209 461 L212 459 L214 460 L213 463 Z M320 459 L322 458 L325 459 L326 461 L323 462 Z M308 459 L310 458 L311 460 L309 461 Z M203 459 L205 458 L206 460 L204 461 Z M263 458 L265 457 L266 460 L264 461 Z M345 457 L349 456 L350 458 L346 459 Z M233 457 L235 456 L236 458 L234 459 Z M180 462 L181 460 L184 459 L186 454 L191 455 L190 457 L187 457 L188 459 L191 458 L194 459 L192 462 L189 463 Z M226 454 L228 453 L229 456 L227 457 Z M297 452 L298 454 L295 456 L294 454 Z M280 453 L282 452 L283 455 L281 456 Z M323 455 L332 454 L334 457 L337 454 L334 451 L337 450 L343 453 L343 458 L338 460 L339 462 L338 464 L334 465 L331 462 L331 458 L324 457 Z M315 451 L317 450 L318 452 L316 453 Z M180 451 L179 453 L177 453 L180 456 L179 459 L176 460 L166 459 L164 457 L165 455 L170 456 L173 451 L176 450 Z M229 448 L233 449 L234 454 L233 457 L229 453 L228 450 Z M342 448 L345 447 L346 449 L343 450 Z M288 448 L290 447 L293 450 L292 453 L287 451 Z M242 447 L245 448 L244 458 L241 455 Z M224 447 L227 450 L226 454 L224 453 L223 449 Z M166 448 L168 447 L169 449 L167 450 Z M272 446 L273 447 L272 456 L270 457 L269 455 L265 455 L264 450 L266 449 L268 451 L270 447 Z M248 446 L251 447 L249 458 L247 457 L246 454 Z M207 449 L211 446 L217 454 L212 455 Z M302 446 L304 445 L305 447 L303 448 Z M293 446 L295 445 L296 447 L294 448 Z M186 446 L188 445 L190 448 L188 449 Z M204 445 L206 444 L207 446 L205 447 Z M354 444 L357 443 L358 445 L355 446 Z M321 443 L324 444 L323 449 L320 446 Z M243 444 L246 443 L247 445 L244 446 Z M235 443 L237 444 L236 450 L234 449 Z M303 443 L305 442 L306 444 L304 445 Z M294 443 L296 442 L297 444 L295 445 Z M217 443 L219 442 L220 444 L218 445 Z M266 442 L268 441 L269 444 L267 445 Z M159 441 L160 442 L159 446 L156 447 L155 445 Z M308 441 L310 440 L311 443 L309 444 Z M150 441 L152 440 L153 442 L151 443 Z M359 440 L361 439 L362 442 L360 443 Z M234 439 L236 440 L235 443 L232 442 Z M221 440 L224 438 L230 438 L232 443 L231 444 L225 443 L225 446 L223 447 Z M340 437 L341 438 L340 444 L334 447 L333 445 L336 440 Z M327 437 L330 440 L329 443 L326 442 Z M249 437 L251 437 L256 442 L262 437 L266 438 L261 448 L262 458 L258 462 L255 462 L252 458 L252 451 L254 446 L248 443 Z M346 436 L347 439 L344 441 L343 438 Z M237 437 L239 436 L240 438 L238 439 Z M202 437 L204 436 L205 438 L203 439 Z M167 437 L169 436 L171 440 L168 441 Z M274 436 L276 435 L277 438 L275 439 Z M189 435 L196 441 L197 444 L194 446 L199 450 L198 452 L191 449 L191 442 L187 444 L184 443 L184 440 L188 438 Z M145 436 L148 435 L149 438 L147 439 Z M172 434 L174 433 L175 435 L173 436 Z M328 433 L331 432 L333 436 L330 437 Z M318 432 L319 433 L318 437 L315 439 L314 438 L315 434 Z M295 432 L298 435 L297 438 L293 435 Z M256 431 L259 432 L258 437 L255 437 L253 435 Z M219 431 L220 434 L219 438 L217 439 L216 434 Z M202 432 L204 431 L205 433 L203 434 Z M291 430 L292 435 L290 436 L290 438 L293 440 L292 446 L290 447 L289 442 L287 442 L286 444 L280 443 L280 447 L278 448 L277 443 L279 438 L281 436 L284 437 L286 433 Z M174 431 L177 430 L178 433 L175 434 Z M161 431 L163 430 L164 432 L162 433 Z M350 430 L352 429 L353 431 L351 432 Z M321 430 L323 429 L324 431 L322 432 Z M240 429 L241 428 L245 429 L248 435 L246 436 L245 434 L243 434 Z M195 428 L199 430 L197 434 L194 432 Z M355 428 L358 427 L359 430 L356 431 Z M283 428 L286 427 L287 430 L284 431 Z M273 427 L274 431 L272 433 L269 433 L268 430 Z M230 427 L232 430 L231 432 L229 432 L227 435 L222 433 L223 430 Z M212 426 L214 428 L214 433 L210 434 L210 442 L208 443 L207 442 L207 431 L210 430 L210 427 Z M190 426 L192 425 L193 427 L191 428 Z M169 425 L171 424 L172 426 L170 427 Z M341 424 L342 423 L346 424 L347 427 L343 428 Z M270 424 L269 428 L267 427 L264 428 L265 430 L264 433 L259 431 L259 427 L261 425 L267 423 Z M244 424 L247 423 L252 425 L255 428 L254 431 L252 432 L250 428 L245 427 Z M151 424 L153 423 L154 425 L152 426 Z M355 423 L357 422 L358 424 L356 425 Z M205 422 L208 423 L208 426 L206 428 L204 427 Z M183 423 L185 422 L186 425 L184 426 Z M156 423 L158 422 L159 424 L157 425 Z M360 422 L362 421 L363 423 L361 424 Z M332 421 L333 428 L327 430 L326 427 L328 423 Z M308 421 L310 423 L312 433 L311 434 L307 433 L307 441 L305 442 L304 434 L300 433 L300 428 L302 425 Z M297 422 L301 421 L302 425 L299 426 Z M293 421 L295 422 L296 426 L295 429 L293 428 L291 424 Z M221 421 L223 423 L223 426 L219 429 L218 425 L219 422 Z M253 421 L255 420 L256 423 L254 424 Z M185 421 L187 420 L188 422 L186 423 Z M192 420 L195 419 L196 422 L193 423 Z M345 420 L347 418 L350 419 L349 422 L346 422 Z M260 419 L263 418 L264 421 L261 423 Z M163 419 L167 418 L169 421 L165 423 Z M327 418 L330 417 L331 419 L328 420 Z M172 419 L175 417 L179 422 L176 423 Z M310 417 L312 416 L313 418 L311 419 Z M340 415 L341 421 L336 423 L335 418 Z M200 416 L203 415 L204 418 L201 419 Z M152 416 L155 415 L156 417 L153 418 Z M321 413 L322 422 L318 425 L317 423 L319 419 L319 414 Z M325 411 L327 412 L326 416 L324 415 Z M209 411 L214 411 L216 414 L216 416 L214 417 L215 420 L214 422 L205 420 Z M147 412 L149 411 L150 414 L148 415 Z M271 410 L274 413 L273 416 L268 414 Z M261 410 L262 412 L258 414 L257 412 Z M242 410 L245 412 L243 416 L240 415 Z M353 408 L354 412 L348 416 L347 415 L348 409 Z M232 408 L236 409 L236 412 L239 418 L242 420 L242 424 L241 425 L237 424 L235 428 L231 427 L230 421 L226 422 L224 419 L225 415 L228 417 L231 416 L231 414 L229 414 L228 412 L231 411 Z M287 414 L288 412 L291 411 L287 409 L288 407 L298 407 L299 408 L296 412 L293 412 L291 415 Z M305 406 L307 407 L306 410 L308 417 L307 420 L298 417 L300 410 Z M164 406 L167 407 L166 412 L161 413 L160 411 L162 410 Z M238 406 L240 405 L241 408 L239 409 Z M249 404 L250 406 L249 409 L247 410 L246 406 Z M188 404 L191 406 L191 408 L187 409 L185 413 L181 412 L180 408 L184 407 L185 404 Z M138 405 L142 404 L143 406 L139 407 Z M153 403 L154 404 L153 411 L150 412 L149 408 L151 407 L151 404 Z M291 401 L292 404 L287 405 L287 408 L283 409 L283 411 L285 412 L283 416 L288 417 L289 421 L288 422 L284 421 L284 424 L282 427 L279 428 L277 424 L273 423 L272 420 L274 418 L279 418 L280 416 L277 414 L278 409 L285 402 Z M264 402 L266 401 L267 403 L265 404 Z M227 401 L231 408 L223 410 L224 412 L223 415 L221 413 L218 413 L216 411 L216 408 L225 407 L224 402 Z M362 402 L364 400 L367 401 L366 404 L363 404 Z M336 401 L338 400 L339 402 L337 403 Z M353 399 L354 402 L351 403 L350 406 L348 406 L347 401 L349 399 Z M139 400 L141 399 L142 401 L140 402 Z M372 398 L377 397 L378 400 L375 402 L372 400 Z M229 398 L234 397 L236 399 L236 403 L235 404 L232 403 Z M150 398 L153 397 L154 400 L151 401 Z M241 396 L243 396 L245 399 L243 405 L241 404 L240 400 Z M291 396 L294 395 L295 398 L292 399 Z M271 395 L274 397 L275 403 L272 405 L270 404 L269 401 Z M253 396 L255 395 L256 397 L254 398 Z M332 395 L335 394 L336 396 L333 397 Z M179 395 L184 394 L185 396 L180 397 Z M325 393 L327 392 L328 394 L326 395 Z M256 393 L258 392 L262 396 L262 398 L259 399 Z M225 392 L229 391 L231 394 L229 395 L226 394 Z M358 391 L363 390 L364 393 L359 394 Z M283 394 L284 392 L288 390 L292 391 L290 394 L287 395 Z M245 391 L247 390 L251 394 L247 397 L245 395 Z M279 389 L282 390 L279 396 L288 398 L287 400 L281 400 L280 405 L278 404 L277 398 L274 394 Z M233 390 L234 389 L237 390 L240 394 L236 396 L233 393 Z M152 390 L154 389 L156 392 L153 394 Z M375 388 L376 390 L373 392 L372 390 Z M250 391 L251 388 L254 389 L252 392 Z M137 389 L139 388 L142 392 L141 393 L138 392 Z M282 388 L284 387 L285 389 L283 390 Z M230 388 L232 387 L233 389 L231 390 Z M270 387 L274 386 L275 389 L271 390 Z M234 385 L237 384 L238 386 L235 387 Z M147 385 L149 384 L150 387 L148 388 Z M330 384 L332 383 L333 386 L331 387 Z M181 384 L183 383 L184 386 L182 387 Z M289 384 L291 382 L298 384 L300 391 L297 392 L296 389 L294 389 L293 387 L290 387 Z M134 383 L136 382 L137 384 L135 385 Z M380 382 L377 386 L373 385 L375 382 L378 381 Z M356 382 L358 381 L359 383 L357 384 Z M336 381 L345 382 L345 384 L351 392 L348 398 L344 398 L343 394 L339 395 L336 393 L336 390 L339 388 L339 386 L335 385 Z M256 381 L259 382 L260 385 L263 386 L270 393 L269 397 L267 397 L264 394 L264 391 L259 390 L258 387 L255 386 L254 383 Z M263 385 L265 380 L271 382 L269 386 Z M222 380 L225 383 L225 386 L219 388 L218 392 L213 390 L214 385 L218 384 L219 381 Z M275 380 L277 379 L278 381 L276 382 Z M385 377 L386 381 L382 383 L381 380 Z M308 377 L309 380 L305 383 L304 379 Z M287 377 L290 378 L288 382 L286 381 Z M259 378 L263 377 L264 380 L261 381 Z M205 378 L208 377 L210 379 L210 382 L207 383 Z M140 378 L143 377 L145 381 L142 383 Z M377 374 L379 373 L380 375 L378 376 Z M332 373 L335 373 L337 376 L337 378 L334 381 L331 379 Z M248 373 L249 376 L254 377 L255 379 L253 381 L250 381 L250 384 L248 386 L244 386 L244 389 L241 391 L239 389 L239 383 L241 382 L240 378 L242 375 Z M251 372 L253 371 L254 373 L252 374 Z M209 372 L211 371 L212 373 L210 374 Z M183 369 L185 371 L185 373 L183 374 L183 379 L178 384 L176 384 L178 392 L175 395 L173 394 L168 395 L169 400 L166 404 L163 404 L161 406 L160 400 L162 394 L166 393 L165 388 L178 374 L178 372 L181 369 Z M303 368 L307 370 L307 372 L304 374 L301 371 Z M377 368 L379 367 L380 370 L378 371 Z M166 368 L168 367 L169 369 L167 370 Z M171 367 L173 366 L175 370 L173 371 Z M267 366 L269 365 L270 367 L268 368 Z M354 368 L358 364 L362 364 L364 366 L362 368 L362 371 L364 371 L365 369 L374 368 L375 372 L373 373 L373 375 L375 377 L367 378 L365 381 L363 381 L361 379 L362 376 L357 375 L355 373 Z M256 364 L259 365 L258 372 L255 371 Z M250 365 L252 364 L253 367 L251 368 Z M386 361 L388 362 L389 365 L387 370 L383 366 Z M138 364 L139 361 L142 362 L140 365 Z M168 361 L170 360 L171 363 L169 364 Z M128 360 L129 365 L126 368 L125 365 L126 361 Z M181 360 L183 359 L184 361 L182 362 Z M371 359 L373 358 L376 363 L373 364 Z M339 357 L341 356 L342 358 L340 359 Z M172 356 L174 355 L175 358 L173 359 Z M383 352 L385 351 L386 353 L384 354 Z M319 351 L323 352 L322 357 L324 357 L327 361 L325 365 L328 364 L331 365 L331 367 L326 371 L327 375 L326 381 L328 386 L326 387 L323 393 L320 394 L320 396 L323 397 L322 403 L324 404 L324 406 L331 403 L334 405 L334 411 L331 413 L328 412 L327 409 L322 409 L317 412 L310 411 L309 408 L315 403 L306 403 L300 407 L294 404 L295 398 L302 392 L303 388 L310 386 L315 381 L316 367 L315 365 L312 364 L312 359 Z M329 351 L332 350 L333 354 L331 355 Z M172 350 L173 352 L170 355 L169 353 Z M123 350 L125 349 L126 351 L124 352 Z M132 348 L134 347 L135 349 L133 350 Z M288 346 L289 349 L286 352 L284 352 L283 350 Z M126 347 L128 346 L129 348 L127 349 Z M324 345 L326 344 L327 347 L325 348 Z M187 345 L189 344 L190 347 L188 348 Z M329 341 L331 340 L332 342 L330 343 Z M180 341 L185 340 L186 343 L181 344 Z M129 342 L132 340 L134 343 L130 344 Z M344 339 L347 342 L346 346 L344 345 L343 341 Z M173 339 L175 338 L177 342 L175 343 Z M370 338 L372 344 L369 348 L369 353 L366 354 L364 352 L365 348 L363 347 L359 352 L359 361 L355 365 L351 365 L349 359 L352 357 L352 355 L349 354 L350 347 L357 340 L362 341 L364 337 Z M286 338 L289 337 L290 340 L287 341 Z M149 337 L151 338 L150 341 L151 343 L157 340 L159 342 L159 345 L164 347 L164 350 L161 351 L158 356 L161 357 L162 355 L165 356 L163 365 L159 366 L160 369 L158 372 L155 372 L156 376 L153 379 L148 379 L145 376 L143 376 L142 371 L140 370 L142 368 L147 369 L150 372 L151 365 L153 363 L156 363 L155 352 L152 348 L149 348 L148 354 L145 353 L146 343 L144 341 L146 338 Z M299 336 L300 338 L293 345 L291 345 L290 343 L296 337 Z M389 335 L391 343 L388 346 L386 346 L385 344 L382 343 L382 341 L385 340 L385 338 Z M171 336 L173 335 L174 337 L172 338 Z M340 335 L342 334 L343 336 L341 337 Z M162 335 L164 334 L165 337 L163 338 Z M227 334 L229 332 L232 332 L235 335 L232 338 L228 336 Z M132 337 L137 332 L139 332 L142 336 L140 340 L135 340 Z M253 332 L253 334 L249 337 L242 339 L240 338 L240 334 L243 332 L249 333 L251 331 Z M166 332 L170 331 L172 334 L170 335 L167 334 Z M344 331 L350 330 L351 333 L345 334 Z M337 330 L339 334 L334 339 L332 336 L332 333 Z M261 332 L264 329 L265 333 L271 332 L272 335 L268 338 L262 335 Z M355 329 L357 328 L358 330 L356 331 Z M328 329 L330 328 L331 330 L329 331 Z M215 330 L219 328 L222 334 L221 335 L216 334 Z M183 329 L185 328 L186 330 L184 331 Z M278 328 L280 327 L281 329 L279 330 Z M233 328 L236 327 L237 330 L235 331 Z M332 327 L334 326 L335 328 L333 329 Z M306 326 L308 329 L304 332 L303 328 Z M172 326 L175 327 L180 332 L178 336 L171 329 Z M255 341 L250 360 L246 361 L245 356 L242 356 L241 375 L236 376 L234 367 L227 366 L229 369 L228 373 L236 376 L235 378 L230 377 L228 382 L224 379 L224 376 L220 376 L218 380 L215 379 L215 370 L209 361 L209 346 L204 345 L205 350 L201 357 L202 364 L198 367 L199 381 L205 387 L211 388 L209 392 L213 397 L216 393 L224 395 L225 398 L221 399 L220 405 L199 403 L205 410 L201 413 L196 413 L194 407 L190 405 L191 392 L186 386 L190 380 L186 376 L189 369 L183 366 L188 360 L190 352 L194 351 L192 340 L195 339 L195 335 L191 334 L191 327 L199 325 L211 336 L209 342 L213 340 L234 361 L235 359 L213 337 L214 335 L238 357 L239 355 L223 339 L224 336 L230 339 L231 343 L249 339 Z M160 326 L163 325 L165 328 L162 329 Z M138 326 L140 325 L141 327 L139 328 Z M126 326 L130 325 L132 326 L132 329 L130 332 L125 328 Z M355 323 L356 326 L350 329 L349 327 L353 323 Z M322 325 L324 331 L319 335 L319 338 L322 339 L322 346 L319 347 L313 354 L311 354 L309 348 L313 344 L308 345 L306 353 L302 358 L302 365 L299 369 L299 379 L296 380 L295 377 L291 377 L290 374 L287 373 L287 370 L285 370 L285 375 L283 378 L280 376 L281 372 L274 374 L275 378 L271 382 L266 376 L267 371 L276 365 L276 363 L274 363 L272 359 L268 361 L264 359 L264 355 L261 352 L258 342 L263 339 L271 341 L272 344 L275 344 L276 341 L280 341 L282 348 L278 354 L281 355 L282 359 L299 342 L303 343 L303 336 L308 332 L317 331 L317 329 L314 328 L317 323 Z M257 322 L258 323 L257 326 L254 327 L253 325 Z M205 322 L207 323 L206 326 L203 325 Z M389 320 L390 321 L389 328 L386 330 L385 334 L380 335 L380 338 L378 340 L374 340 L373 338 L376 336 L374 333 L376 331 L379 331 L380 328 Z M156 321 L158 320 L159 323 L157 324 Z M376 319 L377 322 L373 324 L372 322 Z M240 319 L246 322 L246 325 L243 326 L242 330 L240 330 L238 327 L238 321 Z M352 318 L353 319 L352 322 L349 323 L348 321 Z M313 318 L314 321 L310 324 L309 320 Z M273 318 L276 320 L276 330 L275 331 L271 329 L271 326 L267 325 Z M200 319 L203 318 L204 320 L201 321 Z M161 319 L163 318 L164 321 L162 322 Z M345 317 L348 321 L344 322 L343 329 L341 330 L338 327 L338 325 Z M227 317 L229 320 L228 327 L224 330 L222 326 L225 325 L225 323 L222 322 L222 319 L224 317 Z M124 317 L128 319 L126 323 L123 320 Z M141 316 L142 319 L138 323 L137 319 Z M156 316 L158 315 L159 317 L157 318 Z M287 314 L292 320 L292 322 L290 323 L292 328 L286 336 L276 339 L275 337 L277 333 L281 333 L284 330 L288 330 L288 328 L286 327 L285 315 Z M281 313 L283 314 L284 317 L283 319 L279 318 L279 315 Z M231 314 L232 313 L235 314 L236 318 L232 319 Z M383 312 L387 316 L384 319 L381 318 L381 314 Z M386 312 L388 311 L389 313 L387 314 Z M125 312 L127 311 L128 313 L126 314 Z M359 308 L362 309 L363 312 L367 311 L368 313 L371 314 L369 320 L366 322 L365 325 L361 324 L361 321 L364 318 L364 316 L358 312 Z M187 309 L189 308 L190 311 L188 312 Z M155 308 L157 312 L151 313 L154 315 L154 317 L151 321 L152 325 L150 326 L146 320 L146 315 L142 313 L142 310 L145 309 L148 311 L149 309 Z M372 307 L375 306 L376 309 L374 310 Z M318 309 L319 306 L322 307 L320 310 Z M379 305 L382 306 L380 314 L377 311 L377 308 Z M124 306 L127 305 L128 307 L125 308 Z M387 304 L389 303 L390 305 L388 306 Z M382 304 L385 303 L386 305 L383 306 Z M360 303 L363 302 L364 305 L362 306 Z M150 303 L153 302 L154 305 L151 306 Z M320 302 L323 301 L324 303 L321 304 Z M155 302 L157 301 L158 303 L156 304 Z M145 303 L141 307 L138 306 L141 301 Z M135 302 L137 301 L138 303 L136 304 Z M376 301 L378 300 L379 302 L377 303 Z M327 301 L331 300 L332 303 L328 305 Z M365 302 L368 299 L372 300 L370 304 Z M353 298 L355 297 L356 299 L354 300 Z M127 296 L130 297 L128 301 L126 300 Z M287 296 L289 295 L291 298 L288 299 Z M217 296 L219 295 L221 298 L218 299 Z M323 297 L324 294 L327 295 L325 298 Z M270 294 L271 297 L267 306 L258 316 L256 316 L255 310 L251 310 L249 307 L253 303 L263 305 L264 296 Z M255 295 L256 294 L260 295 L261 300 L259 301 L258 297 L256 297 Z M249 294 L250 297 L245 300 L243 296 Z M375 293 L376 294 L375 297 L372 298 L371 296 Z M223 294 L225 293 L226 295 L224 296 Z M161 296 L160 298 L155 298 L154 300 L150 299 L156 293 Z M384 293 L386 292 L387 294 L385 295 Z M368 291 L369 296 L365 298 L364 300 L362 300 L361 298 L364 295 L363 292 Z M133 291 L135 290 L138 294 L141 295 L144 294 L145 296 L138 300 L136 298 L136 295 L133 294 Z M377 290 L379 289 L381 292 L379 293 Z M382 289 L383 286 L386 287 L384 290 Z M294 287 L296 286 L297 288 L295 289 Z M178 286 L182 287 L186 299 L186 302 L184 304 L182 303 L178 296 L179 292 L175 290 Z M146 287 L148 286 L149 288 L147 289 Z M325 286 L328 285 L329 289 L326 290 Z M246 285 L250 286 L252 291 L251 292 L245 291 L244 290 Z M222 287 L226 285 L228 289 L223 290 Z M186 285 L189 286 L191 297 L197 309 L196 311 L193 310 L187 297 L185 290 Z M285 285 L287 284 L288 287 L286 288 Z M265 283 L269 286 L270 289 L266 292 L263 292 L261 290 L261 285 Z M215 282 L217 283 L218 287 L217 289 L214 287 Z M368 281 L370 282 L369 289 L366 288 L366 284 Z M289 281 L292 280 L293 282 L290 283 Z M377 280 L379 279 L380 281 L378 282 Z M259 279 L261 280 L260 284 L258 283 Z M253 279 L255 280 L256 284 L255 286 L251 285 Z M145 279 L147 280 L146 286 L144 285 Z M134 280 L137 279 L138 281 L135 282 Z M368 275 L370 274 L371 276 L369 277 Z M249 275 L252 274 L253 276 L250 277 Z M143 275 L145 274 L146 276 L144 277 Z M382 274 L381 277 L376 277 L374 280 L372 279 L375 273 L380 272 Z M293 272 L295 273 L294 276 L291 275 Z M133 273 L136 272 L141 276 L142 279 L140 280 L138 277 L134 277 Z M343 270 L344 275 L340 288 L335 298 L333 299 L330 296 L330 293 L334 292 L334 289 L332 288 L333 276 L336 275 L336 273 L339 272 L340 270 Z M371 269 L374 268 L375 271 L372 272 Z M139 269 L142 268 L143 272 L141 273 Z M328 266 L331 267 L330 273 L327 272 Z M382 266 L384 265 L385 267 L383 268 Z M185 263 L188 264 L186 274 L183 273 L183 265 Z M129 266 L130 262 L135 263 L131 267 Z M341 258 L342 259 L341 269 L334 270 L333 264 L335 263 L335 260 Z M176 256 L180 256 L182 258 L181 265 L178 266 L177 269 L175 269 L175 271 L181 272 L181 283 L178 286 L173 285 L169 271 L169 265 L173 263 L172 259 Z M342 256 L344 255 L345 257 L343 258 Z M325 256 L328 255 L329 258 L326 259 Z M355 255 L357 254 L358 256 L356 257 Z M132 255 L134 254 L135 256 L133 257 Z M262 253 L264 257 L263 261 L258 266 L256 266 L254 263 L258 262 L258 254 Z M255 253 L256 256 L253 257 L253 259 L251 260 L250 256 L253 253 Z M186 253 L188 251 L191 252 L190 255 L187 255 Z M164 252 L166 251 L172 257 L168 258 L164 254 Z M170 251 L172 250 L173 252 L171 253 Z M340 250 L342 249 L343 251 L341 252 Z M258 244 L259 250 L255 251 L254 250 L255 246 Z M170 245 L172 244 L173 246 L171 247 Z M318 241 L321 241 L322 244 L324 245 L326 249 L325 252 L323 252 L321 247 L317 244 Z M340 240 L343 242 L344 245 L343 247 L339 245 Z M176 237 L178 236 L179 239 L177 240 Z M197 236 L199 235 L200 237 L198 238 Z M313 234 L317 235 L315 240 L312 238 Z M188 234 L190 241 L186 242 L187 246 L184 251 L184 254 L180 255 L179 249 L177 247 L178 246 L181 247 L180 242 L184 240 L183 236 Z M152 234 L153 236 L149 238 L148 236 Z M336 233 L338 232 L339 234 L337 235 Z M177 232 L178 234 L175 236 L174 234 Z M141 232 L143 233 L142 238 L138 235 Z M208 236 L212 234 L218 236 L219 232 L228 231 L232 235 L236 233 L244 240 L249 234 L252 235 L248 267 L252 266 L254 269 L249 270 L249 275 L244 278 L243 285 L238 287 L238 292 L241 293 L240 298 L243 303 L241 308 L248 311 L254 318 L253 321 L247 320 L246 315 L238 313 L237 309 L221 311 L225 309 L223 299 L230 296 L229 282 L233 281 L231 274 L223 274 L228 272 L225 262 L227 256 L223 254 L223 242 L221 242 L221 253 L216 270 L212 275 L215 282 L209 282 L213 303 L217 303 L219 307 L219 324 L212 326 L211 321 L208 321 L201 312 L191 289 L190 263 L192 256 L196 256 L194 252 L198 244 L205 242 Z M204 230 L206 231 L205 236 L203 235 Z M239 230 L241 229 L242 231 L240 232 Z M272 228 L274 229 L273 233 L271 232 Z M326 229 L329 227 L331 230 L327 231 Z M302 228 L304 227 L311 231 L312 233 L307 235 L306 233 L302 231 Z M257 227 L261 228 L262 234 L268 237 L268 241 L281 232 L300 233 L315 244 L323 259 L324 283 L320 298 L303 327 L298 327 L297 335 L293 333 L296 316 L293 315 L292 310 L295 309 L294 301 L297 296 L301 295 L303 287 L298 282 L301 272 L297 267 L294 257 L296 249 L293 247 L288 253 L290 259 L279 282 L283 290 L279 298 L282 301 L288 301 L286 307 L292 310 L288 312 L284 308 L281 311 L277 309 L267 320 L260 319 L270 305 L275 303 L273 300 L275 286 L268 281 L265 270 L260 269 L264 266 L266 255 L263 250 L265 245 L259 241 L259 234 L251 234 Z M149 226 L150 228 L145 232 L144 229 Z M219 226 L217 230 L214 231 L210 230 L212 226 L216 225 Z M280 226 L285 224 L294 224 L297 226 L296 229 L287 228 L281 229 Z M255 225 L257 224 L258 226 L256 227 Z M223 225 L230 224 L231 228 L224 229 Z M139 227 L140 224 L144 225 L142 228 Z M272 223 L274 222 L275 224 L273 225 Z M182 223 L184 222 L185 224 L183 225 Z M313 220 L319 221 L325 224 L325 227 L323 228 L323 230 L325 230 L326 233 L331 236 L330 240 L334 242 L333 247 L335 246 L337 247 L335 251 L337 252 L338 255 L336 256 L335 259 L331 258 L330 254 L331 248 L327 247 L327 245 L321 238 L320 232 L315 232 L309 227 L309 224 L312 223 Z M270 220 L271 221 L270 226 L267 229 L265 229 L263 226 L264 221 Z M202 220 L204 223 L204 228 L195 234 L198 243 L196 244 L193 242 L194 238 L190 236 L191 228 L189 224 L191 223 L192 225 L194 225 L195 221 Z M322 219 L324 218 L325 220 L323 221 Z M255 219 L259 218 L262 221 L256 222 Z M208 218 L211 219 L210 225 L206 224 L206 220 Z M270 218 L272 217 L273 219 L271 220 Z M327 217 L329 216 L330 219 L328 220 Z M142 216 L144 215 L146 218 L143 220 Z M325 212 L327 211 L328 214 L326 215 Z M257 212 L259 211 L260 213 L258 214 Z M250 211 L252 215 L250 216 L251 219 L250 227 L247 229 L242 225 L242 222 L240 222 L239 219 L243 213 Z M262 211 L265 210 L270 216 L267 218 L264 218 Z M316 209 L318 208 L319 211 L317 212 Z M205 209 L209 208 L210 210 L206 211 Z M143 209 L146 208 L147 210 L144 211 Z M311 208 L313 207 L314 210 L312 211 Z M303 204 L305 205 L304 209 L302 208 Z M254 205 L256 204 L257 207 L255 208 Z M209 205 L211 204 L212 207 L210 208 Z M206 205 L206 208 L202 211 L198 212 L194 211 L196 208 L202 207 L204 204 Z M289 204 L291 203 L292 205 L290 206 Z M214 203 L219 201 L220 205 L218 206 L215 205 Z M319 200 L320 202 L316 203 L315 206 L313 207 L312 206 L313 201 L316 199 Z M287 200 L289 199 L290 202 L288 203 Z M304 201 L305 198 L311 199 L310 201 L306 202 Z M203 199 L205 198 L206 200 L204 201 Z M224 196 L226 195 L227 197 L225 198 Z M292 195 L300 194 L301 195 L300 202 L294 204 Z M260 194 L262 193 L263 196 L261 197 Z M212 194 L216 193 L218 195 L221 195 L222 197 L219 199 L215 199 Z M261 204 L264 203 L265 198 L268 196 L271 196 L270 193 L271 191 L278 192 L279 193 L279 197 L277 198 L278 203 L281 203 L283 206 L281 210 L286 210 L292 215 L300 218 L306 218 L308 220 L308 223 L306 225 L303 225 L297 222 L292 222 L291 219 L286 218 L285 222 L280 220 L280 222 L278 223 L276 220 L277 214 L273 214 L266 207 L262 207 Z M267 188 L268 191 L264 193 L263 190 Z M240 188 L242 190 L240 194 L244 195 L245 201 L247 201 L248 199 L250 200 L249 202 L250 206 L247 207 L243 211 L243 213 L238 216 L234 223 L232 222 L215 223 L213 220 L214 217 L220 216 L224 213 L232 212 L230 207 L234 201 L235 192 L237 191 L238 188 Z M225 189 L227 188 L228 190 L226 191 Z M260 187 L261 190 L259 192 L256 192 L255 190 Z M244 187 L247 186 L250 192 L246 193 Z M208 187 L211 186 L212 189 L209 190 Z M254 183 L255 185 L252 188 L251 185 Z M290 182 L295 181 L296 183 L291 184 Z M218 182 L221 181 L222 183 L219 184 Z M262 181 L264 180 L266 183 L263 185 Z M299 180 L302 179 L303 181 L300 182 Z M209 180 L212 179 L213 181 L210 182 Z M288 179 L290 178 L291 181 L289 182 Z M248 177 L250 178 L250 181 L246 182 L245 180 Z M222 178 L224 177 L226 181 L223 182 Z M290 175 L292 174 L293 177 L291 178 Z M251 175 L253 174 L254 176 L252 177 Z M257 173 L260 172 L263 174 L263 176 L258 177 Z M304 171 L306 172 L305 176 L303 175 Z M206 170 L209 169 L211 174 L209 175 Z M251 169 L253 168 L254 170 L252 171 Z M221 167 L223 168 L222 175 L220 174 Z M215 166 L217 165 L218 167 L216 168 Z M287 162 L289 161 L292 165 L288 166 Z M252 162 L254 161 L255 163 L253 164 Z M295 161 L297 160 L298 162 L296 163 Z M225 162 L228 160 L230 161 L229 164 L226 164 Z M210 161 L212 160 L213 162 L211 163 Z M300 160 L303 159 L304 162 L301 163 Z M230 156 L232 155 L233 157 L231 158 Z M221 156 L223 155 L224 157 L222 158 Z M298 154 L300 153 L301 156 L299 157 Z M213 156 L214 153 L218 154 L216 157 Z M220 151 L221 150 L224 151 L225 154 L223 155 Z M282 138 L284 137 L285 140 L283 141 Z M229 138 L231 137 L234 140 L230 141 Z M248 135 L256 140 L256 144 L254 145 L254 149 L252 151 L253 156 L250 157 L248 170 L244 171 L244 177 L242 180 L242 184 L238 186 L237 188 L235 188 L227 175 L229 173 L229 170 L238 164 L239 162 L238 154 L240 153 L240 151 L238 150 L238 146 L243 144 L243 141 L246 140 L246 136 Z M277 132 L279 131 L280 133 L278 134 Z M285 132 L288 130 L291 130 L293 133 L293 136 L287 137 Z M234 131 L236 130 L237 133 L235 134 Z M249 130 L254 129 L256 131 L256 134 L252 135 Z M263 127 L268 128 L267 130 L263 132 L263 134 L268 135 L268 140 L271 141 L271 146 L274 145 L276 146 L276 156 L275 157 L276 169 L279 170 L283 166 L287 169 L284 172 L285 179 L282 182 L279 189 L277 188 L272 189 L269 181 L265 178 L265 174 L268 170 L270 170 L270 168 L265 168 L263 166 L265 163 L265 160 L261 152 L261 148 L259 147 L258 132 Z M272 125 L277 124 L278 127 L276 129 L273 129 Z M240 124 L242 125 L242 128 L238 129 L237 126 Z M244 123 L247 122 L248 124 L245 125 Z M261 121 L263 125 L258 127 L257 125 Z M240 120 L242 119 L243 121 L241 122 Z M248 119 L253 118 L256 120 L256 123 L253 125 L252 121 L249 121 Z M259 117 L260 116 L265 117 L266 120 L262 121 Z M244 112 L246 111 L248 114 L246 115 Z M268 110 L270 111 L269 115 L266 114 Z M252 111 L254 110 L255 112 L253 113 Z M258 105 L260 104 L261 106 L259 107 Z M247 105 L250 104 L251 107 L248 108 Z M250 99 L252 98 L254 102 L252 103 Z M255 95 L258 94 L260 97 L257 99 Z M254 81 L256 80 L257 82 L255 83 Z M257 76 L260 75 L261 79 L259 80 Z M254 71 L256 70 L257 73 L255 74 Z M255 60 L257 61 L256 65 L254 64 Z"/></svg>
