<svg xmlns="http://www.w3.org/2000/svg" width="512" height="512" viewBox="0 0 512 512" aria-hidden="true" focusable="false"><path fill="currentColor" fill-rule="evenodd" clip-rule="evenodd" d="M105 499 L105 500 L108 500 L108 498 Z M97 493 L96 495 L99 497 L99 494 Z M13 493 L13 495 L20 497 L20 495 L17 492 Z M390 491 L389 495 L393 496 L396 495 L397 500 L398 500 L398 496 L396 495 L397 493 L396 490 Z M111 498 L111 500 L125 500 L126 498 L128 500 L141 500 L142 499 L146 500 L147 499 L146 491 L141 491 L138 494 L136 493 L132 494 L131 492 L127 492 L120 489 L115 491 L115 493 L113 494 L113 497 Z M139 497 L141 496 L142 499 L140 500 Z M133 497 L135 496 L136 498 L134 499 Z M141 495 L143 494 L144 496 L142 497 Z M131 494 L133 495 L132 498 L129 497 Z M136 485 L132 488 L132 490 L134 490 Z M75 485 L72 484 L72 487 L69 488 L69 493 L66 494 L67 497 L69 496 L72 497 L71 491 L74 490 Z M204 486 L207 486 L208 488 L210 488 L208 484 L205 483 Z M21 481 L15 486 L16 488 L23 486 Z M312 479 L308 487 L310 489 L318 488 L318 485 L317 484 L314 485 L312 482 L313 480 L316 480 L316 479 Z M231 478 L231 483 L234 483 L235 481 L233 480 L233 478 Z M222 478 L222 479 L227 479 L227 478 Z M40 476 L41 478 L43 477 L48 478 L47 480 L43 480 L39 482 L40 484 L39 488 L36 487 L34 488 L37 490 L40 490 L43 497 L48 497 L49 500 L51 500 L52 497 L56 499 L57 496 L60 499 L64 498 L63 493 L61 493 L60 490 L58 489 L59 481 L55 480 L57 483 L53 487 L52 486 L52 476 L48 475 Z M48 478 L50 477 L51 479 L49 480 Z M468 474 L470 477 L471 474 Z M205 474 L206 476 L205 479 L208 478 L207 474 Z M39 472 L37 472 L35 475 L37 476 Z M472 466 L473 469 L476 470 L481 475 L483 475 L481 467 L478 469 Z M452 465 L452 467 L454 467 L455 469 L458 468 L459 470 L463 470 L463 468 L458 468 Z M31 464 L26 466 L26 469 L28 470 L28 472 L31 470 L34 471 Z M499 462 L499 466 L500 466 L500 462 Z M77 462 L75 464 L76 467 L79 468 L78 472 L80 473 L83 466 L81 465 L81 463 Z M128 460 L125 460 L125 462 L119 467 L120 470 L122 470 L123 467 L127 467 Z M143 457 L138 458 L138 459 L142 459 Z M21 458 L17 457 L17 459 L15 460 L15 463 L17 463 L17 460 Z M462 457 L462 459 L465 459 L468 464 L470 464 L468 461 L469 459 L478 458 L475 456 L469 456 L467 458 Z M212 457 L212 458 L215 458 L214 456 Z M200 449 L197 451 L200 452 Z M124 445 L123 454 L126 455 L138 454 L139 450 L142 449 L142 444 L140 442 L138 443 L139 446 L136 449 L129 442 L126 445 Z M205 443 L207 445 L206 450 L216 451 L216 449 L213 448 L211 441 L209 443 L206 442 Z M202 440 L194 441 L193 444 L196 441 L202 442 Z M490 420 L489 423 L493 424 Z M56 412 L51 413 L51 416 L48 417 L47 420 L45 420 L46 425 L50 425 L52 423 L51 416 L55 415 Z M215 404 L215 407 L217 407 L217 404 Z M453 400 L453 404 L451 405 L451 407 L455 409 L455 412 L459 410 L461 414 L462 410 L464 409 L468 414 L469 418 L474 417 L476 420 L475 422 L473 422 L473 426 L476 431 L475 435 L468 433 L464 424 L461 425 L461 429 L457 432 L458 434 L459 432 L461 432 L462 429 L465 430 L459 442 L459 444 L463 447 L461 451 L465 453 L466 450 L470 450 L471 448 L477 449 L479 451 L479 442 L482 441 L483 442 L482 451 L484 451 L485 447 L488 447 L489 451 L494 450 L495 454 L499 456 L500 439 L499 442 L497 441 L496 437 L493 437 L492 441 L490 440 L491 428 L489 428 L485 423 L485 418 L487 416 L482 418 L481 416 L476 414 L475 411 L472 410 L472 407 L466 406 L466 403 L472 398 L461 401 L459 399 Z M492 444 L495 443 L496 445 L493 446 Z M485 441 L487 440 L488 442 L486 443 Z M463 439 L465 438 L466 441 L464 442 Z M468 438 L470 437 L471 439 L469 440 Z M483 433 L484 428 L489 430 L486 434 Z M470 412 L472 411 L474 415 L471 416 Z M463 407 L466 406 L467 408 L464 409 Z M446 395 L448 396 L449 394 L451 394 L451 392 L447 392 Z M367 389 L368 395 L370 397 L371 396 L370 390 Z M466 386 L469 389 L474 389 L474 387 L468 385 Z M491 382 L486 384 L485 386 L489 388 L492 385 Z M145 382 L143 384 L144 386 L146 386 Z M472 380 L475 383 L479 382 L476 379 Z M500 372 L496 368 L492 369 L492 371 L490 372 L490 376 L491 377 L493 373 L495 372 L498 377 Z M326 361 L321 365 L322 368 L324 368 L325 364 L327 363 Z M483 364 L479 360 L477 362 L474 361 L472 363 L468 360 L464 363 L463 366 L459 365 L458 368 L460 367 L462 368 L461 372 L462 377 L466 378 L473 374 L474 366 L477 366 L478 371 L481 371 Z M19 359 L17 364 L19 364 L20 361 Z M497 356 L500 360 L500 357 Z M490 356 L494 358 L494 356 Z M399 349 L399 351 L402 352 L402 350 Z M455 348 L456 352 L459 353 L457 348 Z M32 348 L32 350 L35 351 L35 349 Z M499 345 L498 349 L500 350 L500 345 Z M455 341 L455 344 L459 345 L458 341 Z M54 341 L54 343 L58 343 L60 346 L62 346 L60 341 L58 342 L56 340 Z M446 339 L442 340 L440 345 L438 345 L437 343 L433 344 L433 351 L436 351 L437 352 L436 356 L437 357 L439 356 L442 359 L443 358 L441 357 L440 350 L443 345 L447 344 Z M36 339 L35 343 L37 343 Z M478 340 L478 343 L481 342 L482 344 L491 343 L490 341 L484 342 L483 337 L481 340 Z M462 337 L461 339 L463 343 L469 344 L467 337 Z M463 339 L465 338 L466 340 L464 341 Z M495 336 L496 339 L500 341 L497 336 Z M466 329 L467 332 L469 333 L469 330 Z M430 327 L431 332 L432 332 L434 328 Z M20 322 L17 325 L13 325 L13 327 L18 328 L17 330 L13 330 L13 332 L20 337 L18 339 L18 343 L15 345 L16 346 L22 343 L21 340 L23 338 L25 340 L28 340 L26 337 L27 336 L31 337 L32 332 L29 331 L28 333 L23 333 L22 324 Z M21 334 L23 333 L24 335 L22 336 Z M464 319 L464 320 L469 321 L468 319 Z M496 317 L496 321 L498 321 L499 317 Z M17 314 L17 316 L20 315 L20 314 Z M418 304 L417 307 L419 308 L419 304 Z M20 304 L15 308 L20 309 Z M326 282 L326 284 L330 284 L337 291 L336 286 L332 282 Z M21 249 L19 249 L19 251 L16 252 L18 257 L16 261 L18 261 L18 259 L22 258 L22 256 L24 255 Z M26 235 L26 238 L30 239 L28 235 Z M31 234 L32 236 L34 236 L33 234 Z M495 214 L493 214 L492 217 L494 217 Z M33 186 L35 190 L35 187 Z M42 179 L37 178 L34 182 L37 183 L38 181 Z M13 170 L13 178 L15 179 L15 182 L18 183 L18 185 L15 188 L13 188 L13 195 L16 195 L17 199 L26 198 L23 196 L24 194 L31 196 L28 188 L23 187 L22 183 L20 182 L20 178 L22 176 L25 177 L24 179 L25 181 L28 181 L25 178 L27 174 L24 174 L23 172 L20 172 L19 170 Z M16 194 L19 193 L20 195 L17 196 Z M44 169 L38 170 L39 173 L43 172 Z M500 162 L498 162 L498 166 L493 171 L494 173 L500 169 Z M383 157 L380 158 L379 165 L381 165 L381 160 L384 159 Z M13 163 L24 161 L24 159 L22 157 L17 156 L16 160 L13 161 Z M331 153 L333 155 L338 156 L334 153 Z M482 147 L487 148 L487 146 Z M464 143 L463 144 L465 147 L463 149 L464 151 L468 150 L474 154 L476 151 L472 152 L469 149 L469 147 L471 146 L470 142 L468 142 L467 146 Z M477 136 L480 139 L480 137 Z M290 135 L296 132 L296 130 L291 130 Z M500 129 L499 129 L499 135 L496 136 L498 140 L497 143 L491 143 L489 139 L486 138 L486 136 L484 136 L482 140 L484 142 L492 144 L493 148 L489 149 L490 152 L495 149 L497 149 L498 151 L500 150 Z M385 128 L386 137 L389 137 L392 134 L398 133 L394 130 L388 130 L387 128 Z M13 127 L13 134 L20 133 L21 130 L19 130 L17 127 Z M481 123 L480 127 L483 128 L482 131 L488 133 L485 125 Z M131 116 L134 120 L138 120 L137 116 L135 118 L132 115 Z M457 111 L455 111 L452 114 L457 114 Z M448 111 L443 112 L443 114 L440 115 L443 122 L444 122 L444 118 L446 117 L446 114 L448 113 Z M105 111 L100 113 L99 116 L105 113 Z M500 110 L496 110 L496 113 L494 115 L485 115 L483 119 L486 119 L489 116 L494 116 L495 119 L498 120 L498 123 L500 123 Z M466 109 L464 111 L468 113 L469 115 L461 123 L460 127 L458 128 L455 124 L453 124 L453 126 L458 130 L458 132 L460 133 L465 132 L466 135 L469 136 L471 132 L478 133 L479 132 L478 129 L473 128 L474 126 L477 125 L476 124 L472 124 L471 130 L465 129 L466 127 L468 127 L469 118 L474 116 L474 115 L470 115 L468 109 Z M473 108 L474 112 L478 109 L478 108 Z M429 104 L426 108 L428 114 L435 115 L434 112 L435 108 L432 107 L431 104 Z M18 102 L13 103 L13 105 L17 106 Z M447 101 L444 104 L447 104 Z M500 101 L497 100 L492 101 L491 103 L486 103 L484 107 L490 109 L490 107 L493 106 L495 108 L500 105 Z M462 98 L461 101 L465 104 L464 98 Z M430 96 L428 95 L426 98 L430 98 Z M409 95 L406 98 L406 102 L409 102 L410 105 L405 107 L405 109 L407 111 L409 108 L411 108 L413 115 L421 115 L423 105 L417 104 L415 101 L412 100 Z M361 95 L360 98 L365 100 L365 98 Z M191 95 L190 96 L191 101 L195 101 L195 99 L193 98 L195 95 Z M152 94 L154 96 L154 94 Z M493 97 L487 91 L484 91 L482 89 L482 92 L484 93 L484 95 L481 97 L479 95 L475 95 L473 101 L475 101 L476 99 L479 101 L481 99 L493 98 Z M367 89 L366 95 L372 94 L372 92 L370 92 L369 89 Z M363 85 L358 89 L358 93 L363 91 L364 88 Z M139 84 L142 87 L143 91 L145 87 L147 89 L149 88 L148 85 Z M31 81 L31 86 L33 86 L32 81 Z M25 81 L24 84 L27 84 L27 81 Z M374 79 L374 81 L378 82 L378 80 Z M41 66 L38 66 L34 71 L29 71 L28 68 L26 68 L27 73 L26 74 L22 73 L24 75 L23 78 L25 78 L27 73 L31 75 L35 75 L37 72 L41 72 L39 70 Z M136 65 L130 69 L130 72 L132 74 L128 75 L133 79 L132 74 L134 73 Z M27 57 L27 60 L30 60 Z M346 56 L345 60 L347 60 Z M445 54 L443 59 L445 59 L446 56 Z M128 55 L128 57 L132 58 L132 61 L134 59 L137 59 L137 57 L134 57 L131 54 Z M18 46 L16 46 L16 50 L18 52 L16 56 L18 57 L18 59 L13 65 L13 67 L18 65 L18 59 L20 58 L19 53 L20 49 L18 48 Z M32 44 L29 46 L29 48 L32 48 Z M500 39 L496 40 L496 47 L499 44 L498 42 L500 41 Z M160 37 L158 38 L159 44 L154 49 L153 52 L149 53 L148 57 L144 54 L139 60 L139 63 L144 65 L140 69 L145 73 L144 76 L150 77 L149 81 L152 84 L153 88 L155 86 L157 87 L156 92 L158 92 L158 89 L160 88 L160 86 L157 85 L157 82 L154 79 L154 72 L157 71 L157 68 L155 64 L153 64 L151 67 L147 66 L150 60 L149 56 L152 55 L152 53 L155 51 L161 52 L162 54 L160 55 L160 57 L163 59 L163 61 L161 62 L159 60 L158 64 L161 66 L165 64 L166 66 L164 68 L166 70 L167 66 L170 65 L172 62 L169 57 L170 53 L168 53 L167 56 L165 57 L164 54 L162 53 L163 48 L159 47 L160 44 L165 44 L166 46 L168 46 L168 44 L165 41 L163 41 L162 38 Z M148 73 L150 72 L151 74 L149 75 Z M146 69 L148 68 L149 71 L147 72 Z M141 59 L144 58 L145 60 L142 61 Z M244 31 L244 32 L249 32 L249 31 Z M16 29 L18 32 L19 29 Z M317 28 L313 27 L309 30 L306 30 L307 34 L309 34 L310 31 L316 31 Z M129 25 L127 25 L127 28 L125 29 L126 33 L128 33 Z M451 13 L452 17 L448 23 L445 23 L445 25 L450 28 L446 31 L438 29 L438 31 L444 35 L451 30 L452 32 L449 38 L456 37 L460 31 L467 35 L465 38 L461 38 L464 44 L460 52 L455 51 L457 46 L455 43 L452 43 L450 46 L449 54 L453 57 L453 62 L448 63 L448 65 L455 64 L456 58 L453 56 L453 52 L460 54 L462 52 L471 51 L472 53 L465 60 L468 64 L470 64 L470 55 L475 56 L482 53 L482 58 L485 59 L484 69 L486 74 L468 75 L465 73 L458 85 L459 92 L463 86 L475 90 L481 85 L484 87 L487 85 L488 87 L500 91 L497 83 L491 84 L490 78 L486 77 L487 75 L495 75 L496 78 L500 77 L500 74 L497 72 L500 70 L500 63 L496 62 L497 58 L495 53 L491 55 L490 50 L483 52 L482 49 L479 52 L475 47 L475 43 L471 42 L474 40 L471 36 L473 34 L472 27 L475 26 L476 30 L478 29 L475 19 L477 15 L482 16 L481 36 L485 37 L484 43 L490 45 L492 35 L500 36 L500 23 L495 25 L494 22 L489 21 L491 13 Z M483 80 L485 79 L486 81 L484 82 Z M468 85 L470 83 L470 77 L473 75 L483 78 L481 81 L479 80 L476 81 L476 83 L473 84 L471 87 Z M494 56 L495 59 L493 60 L492 63 L489 64 L488 59 Z M466 47 L471 46 L472 48 L467 49 Z M494 31 L497 30 L498 33 L495 34 Z M485 29 L485 27 L489 24 L495 25 L494 27 L491 28 L490 31 Z M449 26 L450 22 L455 23 L456 20 L464 24 L466 21 L469 21 L472 23 L470 25 L470 29 L465 31 L461 30 L462 28 L461 25 L459 27 Z M469 16 L472 15 L473 17 L470 18 Z M418 19 L424 21 L425 25 L427 26 L429 25 L433 26 L434 21 L437 19 L437 16 L441 15 L441 13 L420 13 L420 16 L418 17 Z M310 13 L308 21 L310 21 L311 17 L318 21 L318 13 Z M290 13 L290 16 L288 18 L288 25 L295 27 L296 23 L290 22 L291 17 L293 16 L293 13 Z M279 13 L279 15 L284 16 L284 13 Z M261 13 L261 15 L269 15 L270 18 L272 18 L273 13 Z M235 13 L235 15 L246 15 L247 18 L256 19 L256 16 L258 15 L258 13 L255 13 L255 16 L253 17 L251 15 L248 15 L247 13 Z M226 13 L225 17 L227 17 L228 15 L233 17 L232 13 Z M213 17 L221 16 L221 13 L219 13 L218 15 L214 13 Z M196 13 L196 15 L201 15 L203 18 L205 18 L206 13 Z M177 13 L177 20 L175 23 L173 23 L172 26 L168 28 L170 33 L173 33 L174 31 L176 33 L180 31 L187 32 L188 28 L193 27 L192 23 L187 23 L186 25 L182 24 L181 28 L177 30 L175 26 L178 25 L179 22 L181 22 L181 20 L179 20 L178 18 L179 17 L184 18 L185 13 Z M174 27 L175 29 L171 31 L170 29 Z M174 13 L170 13 L169 19 L171 19 Z M166 13 L151 13 L150 16 L147 15 L146 13 L139 13 L139 15 L141 15 L142 18 L150 17 L153 20 L153 23 L155 24 L157 30 L155 31 L155 34 L153 35 L150 28 L148 28 L146 32 L142 31 L142 28 L145 27 L146 23 L137 22 L136 23 L137 25 L143 26 L142 28 L137 28 L135 31 L133 31 L134 33 L137 34 L136 36 L140 38 L140 42 L138 43 L139 45 L151 44 L152 42 L150 38 L156 35 L157 32 L161 32 L164 29 L165 23 L157 24 L154 22 L153 17 L157 16 L158 18 L163 17 L164 19 L166 19 Z M138 36 L141 31 L143 33 L149 34 L147 38 L144 38 L143 36 L140 37 Z M116 13 L115 13 L114 19 L117 18 Z M26 13 L32 23 L29 29 L34 27 L38 39 L44 41 L42 49 L37 43 L38 51 L32 51 L37 54 L34 57 L42 63 L46 56 L56 68 L50 74 L56 83 L54 90 L74 88 L72 80 L82 83 L76 80 L76 74 L69 80 L64 77 L63 83 L52 76 L57 71 L71 72 L72 65 L67 63 L71 55 L63 54 L63 49 L72 52 L76 46 L92 47 L85 71 L90 72 L90 81 L82 88 L85 92 L77 90 L74 98 L60 91 L52 98 L47 94 L51 88 L38 79 L39 88 L46 92 L25 99 L34 101 L32 96 L40 94 L45 110 L37 115 L23 109 L23 115 L45 116 L48 124 L32 135 L27 122 L28 133 L15 143 L16 148 L24 151 L26 146 L35 152 L38 133 L41 141 L56 134 L57 155 L51 156 L62 160 L47 172 L60 168 L57 172 L62 175 L51 191 L39 191 L43 194 L39 200 L49 197 L50 201 L59 198 L63 203 L77 202 L72 197 L81 197 L84 190 L89 195 L84 204 L66 206 L72 215 L69 220 L85 219 L88 227 L81 226 L80 230 L86 231 L91 223 L81 210 L93 208 L92 214 L99 210 L110 223 L109 227 L103 223 L105 228 L94 238 L86 235 L87 239 L77 242 L75 230 L69 231 L65 221 L54 225 L61 218 L62 205 L53 206 L57 210 L52 213 L44 204 L30 207 L27 203 L24 208 L19 204 L27 216 L25 226 L32 218 L39 222 L32 228 L41 233 L41 239 L34 241 L46 248 L39 261 L32 258 L35 263 L26 271 L37 276 L34 284 L19 272 L25 266 L13 267 L13 276 L18 274 L16 281 L22 283 L16 294 L24 294 L23 300 L30 303 L27 297 L33 295 L25 294 L28 289 L48 289 L48 295 L38 297 L38 311 L56 314 L53 319 L59 323 L49 332 L55 329 L60 333 L57 337 L67 337 L71 345 L76 343 L74 352 L82 355 L76 359 L68 350 L60 354 L50 348 L45 357 L30 357 L39 359 L28 366 L37 371 L33 385 L29 379 L29 388 L35 386 L38 391 L48 386 L46 380 L41 381 L41 364 L50 359 L52 352 L60 363 L64 355 L74 359 L64 366 L67 372 L52 376 L63 384 L58 378 L61 374 L69 386 L69 380 L75 377 L74 396 L66 391 L46 396 L48 405 L52 400 L62 412 L55 419 L57 425 L67 422 L69 430 L76 429 L75 438 L62 436 L72 440 L68 447 L64 441 L52 438 L48 445 L38 441 L52 429 L40 426 L37 419 L44 399 L28 408 L26 400 L33 396 L26 398 L16 419 L25 423 L21 428 L30 428 L26 438 L32 435 L33 448 L38 445 L44 463 L49 463 L48 454 L58 453 L69 463 L69 473 L72 462 L64 456 L73 458 L74 453 L82 456 L88 450 L90 454 L101 450 L100 458 L87 465 L88 474 L80 476 L80 485 L84 484 L84 476 L90 476 L95 485 L103 485 L110 480 L104 472 L113 471 L107 456 L111 450 L114 456 L114 451 L119 451 L117 444 L111 446 L115 433 L112 427 L133 430 L135 434 L128 438 L140 432 L143 440 L162 428 L157 437 L161 443 L167 439 L168 447 L159 448 L152 457 L154 447 L149 444 L149 462 L144 462 L142 468 L135 467 L133 480 L141 482 L135 480 L136 475 L140 476 L137 471 L147 468 L154 477 L152 491 L165 480 L167 490 L181 481 L186 483 L198 471 L210 469 L211 475 L213 466 L219 469 L217 473 L227 475 L216 461 L201 462 L200 456 L195 456 L194 461 L183 462 L188 454 L170 448 L178 438 L183 446 L189 445 L191 436 L178 421 L185 414 L185 419 L193 418 L193 435 L198 437 L197 431 L203 425 L205 434 L211 431 L226 444 L219 448 L230 448 L225 455 L228 463 L234 466 L238 462 L239 471 L245 469 L248 478 L256 482 L253 489 L244 483 L232 490 L219 489 L230 498 L242 491 L244 497 L260 493 L275 500 L277 494 L285 495 L283 489 L294 500 L302 497 L304 484 L291 475 L301 473 L301 479 L308 480 L309 465 L304 460 L313 460 L322 469 L319 473 L326 474 L327 467 L336 468 L329 458 L342 452 L350 456 L343 459 L350 467 L326 482 L331 488 L324 496 L329 496 L336 484 L341 486 L349 480 L348 491 L341 490 L335 499 L368 495 L375 500 L388 484 L396 486 L399 479 L404 500 L412 500 L407 494 L419 491 L409 485 L404 487 L406 478 L392 471 L414 469 L405 465 L400 455 L406 450 L403 442 L415 447 L416 437 L426 444 L415 452 L413 461 L420 452 L427 458 L420 458 L422 464 L417 468 L421 469 L413 476 L430 482 L432 486 L425 490 L433 493 L434 500 L456 497 L452 491 L454 487 L461 491 L459 485 L447 481 L439 484 L438 479 L431 478 L439 463 L445 465 L455 458 L459 462 L458 457 L453 458 L443 449 L447 442 L456 440 L447 437 L446 429 L437 431 L431 424 L460 418 L448 419 L441 407 L435 419 L418 433 L418 416 L431 414 L426 400 L438 394 L440 388 L430 385 L431 392 L425 388 L425 396 L419 400 L406 398 L413 395 L407 382 L406 393 L397 380 L406 378 L407 371 L420 386 L426 380 L438 379 L439 361 L427 360 L428 342 L420 351 L423 361 L417 361 L417 354 L409 355 L408 348 L417 347 L416 338 L426 333 L422 329 L425 320 L417 317 L421 313 L411 307 L409 296 L409 308 L399 313 L399 319 L393 318 L395 305 L403 304 L398 296 L403 284 L399 279 L407 281 L399 276 L396 284 L393 271 L404 272 L408 267 L413 278 L420 276 L415 255 L410 254 L413 248 L428 260 L426 273 L430 268 L435 271 L431 278 L425 277 L420 285 L414 283 L409 289 L413 297 L426 287 L436 291 L434 297 L422 302 L428 310 L434 309 L425 316 L433 314 L439 329 L452 328 L448 337 L458 336 L454 327 L460 324 L462 301 L453 304 L450 296 L463 296 L465 305 L474 312 L471 319 L477 319 L474 337 L478 330 L481 335 L485 319 L494 315 L491 298 L500 298 L500 287 L495 295 L493 290 L497 288 L489 281 L492 277 L500 280 L500 272 L489 276 L495 266 L492 262 L500 262 L500 197 L493 199 L498 206 L495 223 L482 216 L485 219 L475 233 L470 221 L450 226 L454 233 L471 236 L461 245 L463 248 L473 247 L471 242 L476 241 L476 252 L481 257 L478 262 L484 262 L487 271 L482 273 L479 265 L474 269 L464 264 L457 274 L448 274 L440 290 L436 284 L445 273 L442 268 L456 264 L449 263 L446 255 L450 253 L438 251 L440 242 L435 237 L440 235 L455 246 L458 242 L445 234 L441 225 L445 219 L440 215 L458 208 L463 219 L473 213 L477 217 L484 211 L479 202 L485 198 L476 194 L476 204 L471 206 L471 197 L460 193 L459 199 L462 196 L463 202 L469 202 L467 209 L456 203 L449 206 L442 200 L452 195 L444 192 L441 181 L433 184 L429 176 L446 175 L453 193 L461 173 L464 181 L481 179 L486 187 L482 194 L491 197 L489 187 L500 186 L500 181 L494 183 L484 172 L495 164 L490 159 L483 164 L477 157 L469 159 L473 168 L463 164 L460 168 L465 171 L455 173 L443 160 L444 155 L456 159 L464 156 L456 147 L443 149 L438 138 L460 136 L454 136 L449 128 L429 124 L427 117 L422 118 L419 128 L414 125 L405 131 L406 137 L402 136 L411 140 L412 130 L422 142 L418 149 L413 144 L398 148 L392 139 L391 144 L380 143 L378 130 L376 134 L372 130 L381 114 L397 122 L403 118 L409 124 L411 117 L396 118 L401 107 L396 100 L403 98 L407 90 L419 97 L417 90 L427 87 L440 93 L438 102 L446 98 L433 88 L438 74 L434 75 L435 67 L427 64 L436 55 L425 54 L427 50 L440 52 L443 45 L430 42 L427 37 L433 36 L431 32 L420 30 L427 39 L420 40 L419 48 L403 42 L405 35 L389 22 L399 13 L338 13 L333 16 L336 22 L340 17 L354 21 L358 29 L338 44 L351 50 L355 43 L350 37 L358 32 L361 42 L365 32 L377 46 L370 49 L367 42 L368 53 L350 53 L363 58 L352 65 L341 63 L338 54 L344 51 L334 53 L321 66 L330 73 L323 72 L322 83 L312 81 L310 76 L303 84 L298 82 L303 65 L311 65 L309 73 L314 72 L318 53 L327 55 L326 49 L335 45 L326 34 L342 32 L345 24 L341 22 L334 29 L332 23 L330 31 L325 28 L325 34 L310 38 L312 43 L305 49 L300 43 L293 53 L301 54 L296 62 L288 61 L292 71 L287 75 L296 73 L292 66 L300 61 L301 73 L296 81 L303 91 L288 87 L304 103 L307 97 L303 99 L301 94 L307 90 L307 83 L328 93 L311 97 L316 99 L311 106 L316 115 L310 123 L306 115 L302 121 L296 118 L296 101 L279 101 L281 109 L276 115 L271 113 L271 119 L277 118 L272 125 L261 123 L265 116 L260 111 L267 103 L262 91 L269 93 L271 84 L280 90 L268 77 L274 80 L274 73 L286 68 L282 54 L294 42 L283 42 L281 30 L275 30 L278 25 L273 21 L271 26 L255 24 L258 34 L252 42 L240 45 L239 38 L238 46 L220 44 L216 46 L218 53 L205 55 L204 60 L195 56 L198 51 L193 41 L209 39 L208 49 L212 48 L210 43 L223 39 L224 30 L228 32 L234 20 L228 24 L218 21 L220 27 L215 31 L223 33 L221 38 L208 31 L197 34 L191 42 L177 37 L175 49 L185 47 L183 51 L189 56 L176 61 L174 72 L184 64 L188 68 L189 59 L193 60 L194 72 L177 74 L177 87 L167 89 L166 96 L159 96 L162 102 L149 107 L144 105 L146 98 L138 101 L140 92 L132 94 L128 79 L127 86 L117 87 L121 100 L109 99 L106 91 L100 91 L113 81 L107 80 L108 74 L98 75 L100 86 L94 84 L92 73 L100 68 L106 71 L95 57 L103 55 L106 45 L102 46 L104 37 L108 41 L107 31 L96 27 L101 41 L95 51 L84 35 L76 34 L68 41 L61 36 L70 33 L60 22 L66 16 L84 17 L80 32 L85 27 L90 29 L93 21 L114 31 L110 22 L101 20 L103 13 Z M294 496 L297 493 L299 494 L297 497 Z M368 493 L370 492 L371 495 L369 496 Z M228 493 L230 492 L231 494 L229 495 Z M275 490 L277 489 L278 491 L276 492 Z M245 494 L247 489 L252 492 L249 495 Z M366 489 L368 488 L369 490 L367 491 Z M255 489 L257 488 L259 491 L256 492 Z M447 487 L449 488 L448 495 L446 494 L446 492 L444 493 L442 492 Z M402 488 L404 487 L405 489 L403 490 Z M298 484 L299 486 L296 492 L292 491 L291 488 L295 486 L296 484 Z M353 482 L356 482 L359 486 L359 489 L363 491 L359 495 L355 494 L354 491 L352 490 L351 484 Z M332 482 L335 481 L336 484 L333 485 Z M99 482 L101 481 L102 483 L100 484 Z M384 480 L387 479 L388 481 L385 482 Z M259 489 L259 486 L261 484 L264 484 L263 481 L264 479 L266 480 L271 479 L273 484 L275 485 L275 487 L272 489 L267 487 L264 493 L262 492 L262 490 Z M176 480 L180 479 L181 481 L177 482 Z M255 478 L257 477 L258 479 L256 480 Z M180 478 L182 477 L183 479 L181 480 Z M388 476 L390 475 L391 477 L389 478 Z M382 475 L385 474 L386 476 L383 477 Z M342 474 L345 476 L344 480 L341 479 Z M266 475 L268 474 L269 477 L267 478 Z M261 474 L263 475 L262 478 L259 477 Z M157 474 L160 474 L162 477 L160 481 L158 481 L156 478 Z M303 473 L305 472 L306 474 L304 475 Z M187 473 L189 472 L190 474 L188 475 Z M98 471 L100 470 L101 473 L104 474 L104 476 L102 477 L99 475 Z M93 471 L95 470 L96 472 L94 473 Z M175 471 L178 469 L180 470 L179 473 L176 473 Z M166 469 L167 475 L164 477 L163 475 L160 474 L160 472 Z M299 468 L300 470 L296 472 L295 470 Z M182 469 L184 468 L185 470 L183 471 Z M95 469 L97 468 L98 470 L96 471 Z M387 468 L389 467 L390 469 L388 470 Z M434 466 L436 465 L437 467 L435 468 Z M400 466 L405 465 L406 467 L403 469 Z M384 466 L387 465 L388 467 L385 468 Z M300 466 L302 465 L303 467 L301 468 Z M192 465 L194 464 L195 466 L193 467 Z M156 464 L159 467 L155 475 L153 476 L152 473 L154 471 L152 469 L152 465 Z M200 464 L202 463 L203 465 L201 466 Z M424 461 L426 462 L426 468 L422 469 L421 466 L423 465 Z M280 461 L291 462 L292 464 L290 465 L290 468 L293 467 L295 468 L294 470 L289 471 L290 476 L288 477 L287 480 L289 482 L288 485 L286 484 L282 486 L278 485 L272 480 L271 476 L269 475 L273 468 L279 467 Z M352 459 L354 458 L355 460 L353 461 Z M322 459 L324 458 L327 461 L324 462 Z M270 459 L275 458 L276 460 L271 461 Z M105 457 L106 461 L104 463 L104 470 L101 471 L100 470 L101 466 L99 464 Z M445 455 L448 457 L447 461 L443 459 Z M288 459 L294 455 L297 457 L297 462 L295 463 L292 461 L289 461 Z M262 455 L263 457 L260 459 L259 457 Z M383 453 L385 454 L384 458 L382 457 Z M276 454 L278 453 L279 455 L277 456 Z M325 453 L325 456 L323 458 L317 456 L318 454 L322 455 L323 452 Z M298 454 L303 452 L304 454 L309 455 L310 457 L304 459 L300 458 Z M229 456 L233 451 L236 451 L242 454 L241 456 L237 456 L234 458 Z M250 451 L252 450 L253 453 L251 454 Z M244 451 L246 450 L247 452 L245 453 Z M306 450 L307 449 L314 450 L317 454 L314 456 L310 455 L309 452 L307 452 Z M160 450 L167 450 L168 448 L170 448 L172 452 L176 451 L179 453 L179 455 L176 457 L177 461 L175 467 L172 468 L169 461 L167 462 L165 460 L158 459 L157 455 L159 454 Z M424 448 L427 447 L429 450 L431 450 L432 455 L430 456 L429 454 L426 454 Z M353 448 L359 447 L361 450 L365 451 L365 448 L369 447 L370 450 L365 455 L370 459 L373 458 L374 455 L376 456 L376 460 L378 461 L380 466 L383 468 L380 476 L378 475 L378 472 L376 471 L374 467 L373 461 L371 461 L373 467 L370 468 L368 466 L363 468 L360 471 L361 472 L360 475 L363 478 L363 481 L357 482 L356 480 L358 476 L355 475 L356 472 L353 470 L353 467 L355 464 L359 463 L359 460 L362 459 L363 456 L358 455 Z M335 448 L337 447 L338 450 L336 451 Z M266 447 L268 448 L269 451 L268 453 L265 450 Z M44 448 L46 447 L47 449 L45 450 Z M289 446 L293 449 L292 453 L290 453 L287 450 Z M246 447 L248 446 L249 448 L247 449 Z M81 446 L82 448 L78 451 L76 448 L78 446 Z M270 446 L272 445 L273 447 L271 448 Z M51 444 L55 446 L53 451 L49 449 L49 446 Z M378 442 L380 444 L380 448 L376 451 L373 451 L371 449 L371 446 L373 445 L375 447 L376 443 Z M368 443 L372 442 L373 444 L369 445 Z M276 442 L277 441 L282 442 L284 447 L280 449 L279 447 L276 446 Z M239 440 L240 447 L237 449 L235 446 L236 442 Z M337 438 L339 439 L340 442 L338 445 L335 444 Z M366 437 L368 438 L367 445 L364 444 Z M438 438 L441 436 L446 437 L445 441 L443 442 L441 440 L440 443 L438 442 Z M397 437 L399 436 L400 438 L398 439 Z M359 436 L360 438 L357 439 L356 443 L354 443 L353 438 L356 436 Z M242 437 L246 436 L247 439 L243 440 Z M381 436 L383 435 L384 437 L382 438 Z M252 434 L254 435 L253 439 L250 438 Z M183 435 L185 434 L186 436 L184 437 Z M332 433 L334 440 L328 444 L327 440 L330 438 L329 434 Z M78 433 L82 435 L85 440 L85 443 L83 445 L76 440 Z M269 432 L273 433 L274 437 L273 440 L269 438 L268 435 Z M438 432 L440 431 L441 433 L439 434 Z M327 432 L329 431 L330 433 L328 434 Z M310 431 L311 435 L307 439 L310 440 L310 438 L313 436 L318 441 L318 444 L316 445 L314 442 L309 443 L308 445 L302 444 L301 447 L298 448 L298 451 L296 452 L295 451 L296 443 L293 442 L293 438 L299 435 L300 436 L299 442 L301 442 L303 434 L307 430 Z M171 435 L175 430 L182 431 L181 434 L173 436 Z M254 430 L257 429 L258 431 L255 432 Z M245 432 L246 429 L251 430 L249 434 Z M428 429 L431 428 L432 430 L429 431 Z M33 429 L37 428 L39 432 L42 432 L43 434 L34 435 Z M140 428 L142 427 L143 429 L141 430 Z M101 427 L109 427 L110 431 L107 432 L106 435 L110 433 L112 434 L112 437 L108 438 L110 441 L107 443 L106 448 L103 447 L101 443 L105 439 L105 437 L102 436 L103 430 L100 429 Z M354 427 L356 426 L357 428 L355 429 Z M283 427 L286 426 L287 429 L284 430 Z M274 427 L275 426 L279 427 L282 433 L276 435 L274 432 Z M239 426 L241 434 L235 437 L234 436 L235 434 L233 431 L236 429 L237 426 Z M145 427 L150 426 L151 428 L146 429 Z M313 425 L319 427 L323 426 L324 428 L320 430 L321 431 L320 433 L318 433 L317 430 L312 428 Z M241 426 L243 425 L244 427 L242 428 Z M85 424 L89 425 L94 430 L93 433 L91 432 L89 433 L88 438 L83 436 L83 434 L87 432 L87 428 L84 427 Z M265 423 L267 423 L269 426 L268 430 L264 429 Z M150 424 L153 423 L154 425 L151 426 Z M251 423 L253 422 L255 425 L253 426 Z M390 421 L396 423 L397 425 L406 427 L405 430 L400 431 L398 429 L398 432 L396 433 L395 437 L392 434 L390 434 L390 436 L397 441 L396 443 L391 444 L390 441 L387 442 L385 441 L386 433 L388 432 Z M386 421 L387 423 L383 427 L381 427 L380 424 L383 421 Z M262 422 L264 421 L265 423 L263 424 Z M173 422 L176 421 L177 423 L174 424 Z M126 421 L127 426 L124 429 L123 428 L124 422 Z M303 420 L305 427 L300 432 L297 433 L292 427 L293 424 L297 425 L299 424 L301 420 Z M278 421 L280 420 L281 423 L279 424 Z M365 422 L368 419 L371 420 L368 423 Z M305 420 L307 419 L308 421 L306 422 Z M63 419 L64 421 L60 423 L59 421 Z M435 419 L437 418 L438 420 L436 421 Z M213 418 L216 419 L218 424 L222 423 L225 425 L222 428 L222 430 L224 431 L223 434 L217 432 L212 426 Z M25 421 L28 418 L30 419 L28 422 Z M315 418 L317 417 L319 421 L317 422 Z M279 418 L278 421 L273 422 L269 421 L270 418 L276 417 Z M255 418 L257 417 L258 420 L256 421 Z M200 417 L202 420 L202 423 L197 425 L196 423 L198 421 L198 418 Z M311 417 L314 416 L315 418 L312 419 Z M244 417 L248 416 L249 419 L245 421 Z M226 420 L231 416 L233 416 L235 418 L238 417 L239 420 L241 420 L242 422 L240 424 L237 424 L236 421 L232 421 L232 423 L229 424 L226 422 Z M156 417 L158 416 L159 419 L157 420 Z M141 417 L143 416 L144 418 L142 419 Z M381 416 L384 415 L385 417 L382 418 Z M305 416 L308 415 L309 417 L306 418 Z M264 415 L268 414 L269 419 L267 420 L264 417 Z M146 415 L149 414 L150 416 L147 417 Z M20 415 L22 414 L23 417 L21 418 Z M388 414 L391 413 L393 416 L396 415 L397 420 L396 421 L389 420 Z M367 414 L370 413 L371 417 L368 418 Z M348 414 L353 413 L355 416 L358 415 L359 418 L362 418 L363 419 L362 424 L365 425 L365 428 L361 430 L360 426 L356 425 L357 420 L347 418 Z M250 413 L252 412 L253 414 L251 415 Z M193 413 L197 412 L198 414 L194 415 Z M22 413 L27 412 L28 416 L26 417 Z M341 411 L344 417 L344 420 L341 423 L337 423 L339 433 L336 434 L334 429 L331 429 L329 425 L326 424 L323 418 L325 417 L333 421 L333 418 L331 415 L336 414 L338 416 L338 413 Z M412 411 L414 410 L415 412 L413 413 Z M387 411 L389 410 L390 412 L388 413 Z M175 411 L177 410 L178 413 L176 414 Z M118 411 L120 410 L121 412 L119 413 Z M31 411 L33 410 L34 413 L32 414 Z M415 409 L418 408 L419 411 L417 412 Z M382 407 L383 412 L381 413 L379 418 L375 417 L374 415 L378 413 L378 408 Z M288 410 L284 414 L282 412 L276 412 L275 415 L269 411 L270 409 L274 410 L276 408 L284 407 Z M243 407 L245 410 L245 413 L242 415 L236 415 L235 409 Z M96 407 L104 409 L102 413 L102 417 L100 419 L96 419 L94 414 L91 412 Z M394 407 L396 406 L397 408 L395 409 Z M257 407 L259 406 L260 409 L258 410 Z M226 407 L230 406 L231 410 L228 411 Z M397 406 L399 405 L400 407 L398 408 Z M336 406 L338 405 L339 407 L337 408 Z M316 405 L318 406 L318 411 L322 413 L321 416 L318 416 L315 413 Z M151 406 L153 405 L154 407 L152 408 Z M369 405 L372 404 L373 406 L370 407 Z M325 404 L328 405 L326 411 L324 410 Z M246 405 L248 404 L252 409 L249 410 L246 407 Z M189 405 L192 404 L193 406 L190 407 Z M114 404 L115 407 L118 409 L115 413 L118 414 L119 416 L116 417 L113 421 L108 423 L107 421 L109 420 L109 418 L107 416 L106 408 Z M422 404 L424 403 L425 406 L423 407 Z M140 402 L141 407 L138 409 L140 413 L136 414 L135 416 L132 415 L131 418 L129 416 L125 418 L123 413 L126 412 L127 409 L131 409 L133 412 L134 406 L136 405 L136 403 Z M131 403 L133 402 L134 404 L132 405 Z M348 402 L351 401 L353 404 L350 405 Z M328 401 L330 400 L331 402 L329 403 Z M313 401 L317 400 L318 402 L314 403 Z M199 401 L204 400 L205 403 L202 404 Z M342 399 L344 398 L345 401 L343 402 Z M333 399 L335 398 L338 401 L335 402 Z M276 404 L278 398 L286 398 L288 400 L287 403 L284 402 L280 406 Z M228 401 L231 398 L240 398 L241 404 L239 405 L238 403 L235 403 L233 405 L229 403 Z M216 398 L218 399 L219 402 L223 404 L224 410 L227 412 L227 414 L224 415 L224 418 L220 420 L215 416 L215 411 L212 410 L211 406 L212 401 Z M187 401 L188 398 L191 399 L189 402 Z M170 399 L173 398 L174 401 L171 402 Z M305 398 L307 397 L311 399 L312 401 L308 402 L305 400 Z M300 397 L304 401 L305 409 L303 410 L304 414 L295 421 L290 420 L289 423 L286 423 L281 418 L282 417 L287 418 L289 413 L292 414 L293 416 L295 415 L293 413 L293 407 L294 406 L301 407 L301 402 L298 404 L296 403 L297 398 Z M209 398 L211 397 L212 400 L210 401 Z M323 396 L324 398 L321 400 L320 398 Z M247 397 L249 396 L250 398 L248 399 Z M219 397 L221 396 L222 398 L220 399 Z M193 397 L195 396 L196 399 L194 400 Z M184 396 L185 398 L183 403 L181 404 L179 400 Z M51 397 L53 396 L54 399 L52 400 Z M133 395 L134 398 L130 400 L129 397 Z M259 394 L260 396 L257 399 L256 396 Z M64 395 L67 394 L69 398 L73 397 L77 398 L78 400 L81 400 L82 401 L81 406 L84 406 L85 408 L87 408 L87 406 L89 405 L90 406 L89 413 L91 414 L92 421 L89 422 L88 418 L78 421 L76 420 L67 421 L65 419 L66 417 L65 413 L70 411 L71 406 L69 403 L66 403 L65 400 L63 399 Z M394 393 L396 392 L397 394 L395 395 Z M307 393 L309 392 L310 395 L308 396 Z M284 393 L290 392 L293 393 L294 395 L286 397 Z M275 392 L277 393 L277 396 L273 397 L272 394 Z M239 393 L242 392 L244 395 L240 397 Z M215 393 L217 392 L218 394 L216 395 Z M103 393 L105 392 L106 394 L104 395 Z M298 392 L300 391 L301 393 L299 394 Z M261 392 L263 391 L266 395 L264 396 Z M254 391 L255 393 L252 396 L251 393 Z M188 391 L190 392 L189 397 L186 396 Z M327 391 L330 390 L331 393 L328 394 Z M195 389 L196 392 L195 395 L193 396 L192 391 Z M162 390 L164 389 L165 391 L163 392 Z M294 389 L296 388 L297 390 L295 391 Z M168 389 L170 388 L171 390 L169 391 Z M131 388 L134 390 L132 395 L129 394 Z M346 388 L348 387 L349 390 L347 391 Z M315 390 L318 387 L320 388 L317 391 Z M197 388 L199 387 L200 389 L198 390 Z M396 389 L397 386 L400 387 L398 390 Z M259 387 L261 386 L262 388 L260 389 Z M251 387 L249 390 L246 391 L244 390 L248 386 Z M223 387 L227 386 L229 389 L224 390 Z M291 385 L293 386 L292 390 L290 389 Z M302 387 L306 386 L307 384 L310 386 L309 389 L303 389 Z M321 384 L323 383 L324 385 L322 386 Z M252 384 L254 383 L255 385 L253 386 Z M195 383 L196 385 L191 389 L190 386 L193 383 Z M183 383 L185 387 L180 390 L179 394 L176 394 L174 390 L178 387 L180 383 Z M284 383 L286 382 L287 385 L285 386 Z M336 381 L340 383 L340 387 L343 392 L343 394 L340 395 L339 398 L336 396 L337 389 L335 390 L332 389 L332 386 Z M328 382 L330 381 L331 383 L329 384 Z M283 387 L279 389 L277 385 L276 390 L267 392 L266 389 L262 387 L261 385 L263 383 L266 383 L267 385 L269 385 L275 381 L279 381 Z M244 383 L244 386 L242 387 L241 390 L238 390 L236 396 L234 395 L230 396 L227 394 L228 392 L235 391 L239 381 Z M256 380 L258 379 L260 383 L258 384 Z M229 379 L231 378 L232 380 L230 381 Z M182 379 L186 378 L189 380 L189 382 L185 383 Z M86 379 L90 378 L91 381 L87 382 Z M289 377 L291 378 L290 381 L287 380 Z M239 378 L244 377 L245 379 L240 380 Z M178 378 L177 383 L171 386 L170 384 L172 380 L175 377 Z M108 378 L113 377 L114 379 L109 380 Z M294 377 L295 376 L300 377 L303 380 L301 384 L297 383 Z M255 376 L256 378 L249 383 L248 379 L251 378 L252 376 Z M338 376 L342 375 L345 378 L345 380 L348 381 L348 384 L344 385 L338 378 Z M276 379 L273 381 L266 382 L264 379 L261 379 L260 377 L261 376 L270 377 L271 375 L273 375 Z M217 376 L219 375 L223 379 L226 379 L227 381 L225 383 L219 382 L217 379 Z M350 374 L354 376 L352 380 L347 379 Z M281 377 L282 374 L285 375 L283 378 Z M396 374 L399 373 L400 375 L397 376 Z M329 374 L331 373 L332 375 L330 376 Z M108 374 L111 373 L112 375 L109 376 Z M235 372 L237 371 L238 374 L236 375 Z M179 372 L181 371 L183 375 L180 376 Z M117 372 L120 371 L121 373 L118 374 Z M87 372 L89 371 L90 373 L88 374 Z M432 370 L435 371 L433 376 L431 375 Z M377 370 L378 373 L381 374 L381 376 L378 377 L378 379 L373 382 L373 384 L375 385 L375 389 L380 389 L380 387 L377 387 L376 385 L378 383 L382 383 L384 391 L388 394 L390 398 L386 399 L380 397 L378 401 L374 400 L372 403 L368 402 L367 399 L365 398 L353 399 L352 397 L355 395 L361 396 L359 391 L361 390 L362 386 L366 387 L366 383 L364 380 L358 383 L353 382 L354 380 L357 379 L357 376 L359 374 L363 374 L368 377 L369 374 L367 373 L368 371 L372 371 L374 374 L375 371 Z M339 370 L340 371 L339 375 L335 376 L334 374 Z M426 369 L427 372 L426 375 L424 376 L422 371 Z M345 370 L347 369 L349 372 L346 373 Z M210 372 L213 369 L217 374 L211 375 Z M379 369 L383 368 L385 372 L381 373 Z M274 369 L276 368 L277 370 L275 371 Z M172 369 L173 371 L172 376 L168 380 L165 381 L164 383 L159 383 L156 381 L160 375 L164 375 L168 372 L170 368 Z M69 369 L71 368 L72 370 L70 371 Z M412 368 L414 367 L415 369 L413 370 Z M358 368 L360 367 L361 369 L359 370 Z M238 368 L240 367 L241 369 L239 370 Z M386 367 L389 366 L390 370 L387 371 Z M295 367 L298 366 L299 368 L296 369 Z M261 366 L263 367 L262 372 L260 371 Z M309 365 L310 369 L308 371 L305 371 L306 376 L302 377 L301 372 L306 365 Z M171 366 L173 365 L174 367 L172 368 Z M37 365 L41 366 L40 372 L36 368 Z M252 370 L252 367 L255 364 L261 365 L260 367 L257 367 L254 371 Z M208 364 L211 366 L210 369 L206 367 Z M368 364 L370 363 L371 365 L369 366 Z M345 364 L347 363 L348 365 L346 366 Z M270 363 L273 365 L271 368 L268 367 Z M227 364 L229 363 L230 366 L228 367 Z M242 366 L245 362 L250 364 L247 368 Z M239 363 L241 362 L242 364 L240 365 Z M174 363 L176 362 L177 364 L175 365 Z M154 362 L155 364 L152 367 L151 364 Z M146 363 L148 362 L149 365 L147 366 Z M106 363 L108 362 L109 364 L107 365 Z M391 362 L396 361 L401 367 L397 369 L396 367 L391 365 Z M340 362 L342 361 L343 364 L341 365 Z M230 362 L232 361 L233 363 L231 364 Z M356 361 L358 360 L359 362 L357 363 Z M157 361 L160 360 L161 363 L158 364 Z M371 359 L373 360 L372 364 L370 363 Z M348 360 L350 359 L351 361 L349 362 Z M207 360 L209 359 L210 361 L208 362 Z M166 360 L168 359 L169 361 L167 362 Z M142 360 L145 359 L146 361 L143 362 Z M413 359 L415 358 L416 361 L414 362 Z M376 359 L378 358 L379 360 L377 361 Z M362 358 L364 359 L365 364 L364 366 L361 363 Z M265 359 L267 358 L268 360 L266 361 Z M152 359 L154 358 L155 361 L153 362 Z M147 359 L149 358 L150 360 L148 361 Z M395 358 L397 357 L398 359 L396 360 Z M312 357 L314 358 L313 363 L309 360 Z M287 358 L289 357 L290 359 L288 360 Z M80 358 L83 357 L84 359 L81 360 Z M280 356 L282 361 L279 364 L275 365 L274 361 L278 356 Z M258 359 L259 356 L262 357 L260 360 Z M242 357 L244 356 L245 358 L243 359 Z M220 357 L223 356 L225 360 L223 361 Z M203 357 L205 356 L206 358 L204 359 Z M348 356 L351 355 L354 356 L355 358 L352 359 L349 358 Z M254 355 L255 357 L253 360 L249 361 L248 358 Z M163 358 L165 355 L169 356 L168 358 L165 359 Z M60 356 L62 355 L63 357 L61 358 Z M209 355 L211 354 L212 357 L210 358 Z M187 357 L195 354 L197 355 L201 363 L200 369 L198 371 L202 374 L200 369 L204 368 L215 386 L210 392 L207 389 L210 386 L206 383 L206 377 L203 377 L202 379 L195 378 L194 376 L196 375 L196 373 L193 374 L190 373 L193 368 L191 367 L190 369 L188 369 L185 367 L184 364 L186 363 Z M388 360 L389 354 L390 353 L393 354 L395 358 L390 361 Z M300 353 L303 352 L304 354 L301 355 Z M172 353 L175 352 L176 354 L173 355 Z M134 351 L136 352 L137 357 L136 361 L133 360 Z M348 351 L353 350 L354 352 L349 353 Z M316 350 L319 353 L317 357 L313 355 Z M284 350 L288 351 L286 356 L283 355 Z M244 351 L246 350 L247 353 L245 354 Z M232 350 L235 350 L236 354 L238 355 L238 358 L236 360 L234 360 L230 355 Z M163 351 L168 350 L169 352 L164 353 Z M138 351 L140 350 L141 353 L139 354 Z M199 349 L204 354 L203 357 L199 356 L197 352 Z M156 350 L160 349 L161 353 L158 354 Z M174 349 L177 348 L178 350 L175 351 Z M81 348 L83 349 L84 352 L83 354 L80 353 Z M382 347 L384 348 L383 355 L386 357 L384 360 L380 357 L380 350 Z M267 347 L268 349 L265 350 L265 354 L263 355 L262 350 L264 347 Z M203 348 L205 347 L206 349 L204 350 Z M363 347 L366 346 L367 349 L365 350 Z M275 346 L278 348 L279 351 L278 356 L273 359 L269 354 L274 351 L273 347 Z M213 347 L217 346 L218 348 L215 350 Z M151 348 L154 345 L156 346 L153 349 Z M129 346 L131 345 L132 347 L130 348 Z M259 345 L261 344 L262 346 L260 347 Z M378 343 L380 346 L376 347 L376 350 L379 352 L379 355 L373 358 L372 356 L375 355 L376 353 L373 352 L371 348 L373 344 Z M243 343 L245 350 L239 353 L238 350 L241 347 L241 344 Z M202 344 L204 343 L205 346 L203 347 Z M137 344 L138 343 L144 344 L146 349 L145 350 L139 349 Z M91 344 L93 343 L94 345 L92 346 Z M396 342 L399 345 L406 347 L407 353 L403 356 L410 357 L411 358 L410 361 L404 363 L399 357 L399 355 L394 354 Z M248 342 L250 342 L252 345 L251 349 L248 348 L246 345 Z M286 341 L288 342 L287 348 L285 347 Z M168 342 L171 341 L173 344 L171 345 Z M345 343 L348 340 L351 341 L350 343 L347 344 Z M320 340 L324 342 L322 346 L320 346 L318 343 Z M356 340 L358 339 L359 341 L357 342 Z M338 342 L339 344 L336 350 L336 356 L333 357 L335 362 L331 367 L327 368 L326 372 L324 372 L325 374 L324 378 L319 381 L317 381 L316 378 L314 378 L312 381 L307 382 L306 379 L308 377 L311 377 L310 372 L313 369 L315 371 L318 369 L317 362 L320 361 L319 357 L320 356 L323 357 L326 354 L324 348 L326 346 L331 346 L331 344 L328 341 L331 339 L333 342 Z M143 340 L147 339 L148 341 L144 342 Z M288 339 L291 338 L292 342 L289 343 Z M264 339 L269 338 L271 343 L268 344 L264 341 Z M195 338 L199 342 L198 345 L194 345 L192 343 Z M187 338 L194 351 L182 357 L181 350 L183 349 L183 347 L180 346 L179 344 L184 338 Z M158 339 L162 338 L163 341 L160 342 Z M151 337 L152 339 L149 341 L148 339 Z M399 340 L405 339 L404 337 L405 335 L411 335 L412 336 L411 339 L413 339 L414 341 L413 344 L410 345 L409 343 L400 342 Z M382 337 L386 335 L389 337 L389 339 L385 340 Z M285 336 L287 335 L288 338 L286 339 Z M239 337 L242 335 L244 338 L240 339 Z M215 335 L216 337 L213 339 L212 337 Z M132 335 L134 338 L129 342 L128 337 Z M371 335 L374 334 L375 336 L372 337 Z M250 334 L255 337 L253 340 L251 340 L248 337 Z M202 334 L205 335 L205 339 L203 341 L201 340 Z M189 335 L192 334 L193 338 L190 339 Z M416 333 L417 335 L414 337 L413 335 Z M399 333 L400 337 L396 339 L395 336 Z M325 333 L328 336 L326 340 L322 337 Z M258 334 L263 333 L264 336 L261 337 Z M334 332 L336 332 L338 336 L340 337 L339 340 L332 336 Z M298 333 L300 332 L301 334 L299 335 Z M269 333 L271 332 L275 334 L276 336 L278 336 L279 338 L276 340 L273 340 Z M147 333 L149 332 L150 334 L148 335 Z M233 331 L234 335 L232 337 L233 340 L231 342 L231 348 L228 349 L226 347 L226 343 L228 342 L227 337 L229 332 Z M135 332 L137 331 L138 333 L136 334 Z M126 332 L128 331 L129 333 L127 334 Z M378 331 L380 330 L382 333 L379 334 Z M367 333 L368 330 L371 331 L369 334 Z M182 330 L185 336 L177 339 L176 336 L179 335 L179 331 Z M156 331 L158 330 L159 332 L157 333 Z M124 330 L126 329 L127 331 L125 332 Z M388 333 L390 328 L394 329 L393 332 L391 332 L390 334 Z M316 329 L320 328 L322 330 L321 333 L318 334 Z M217 328 L219 329 L218 333 L216 332 Z M78 329 L83 328 L84 332 L82 333 Z M309 328 L312 327 L313 329 L310 330 Z M297 328 L299 327 L300 330 L298 331 Z M194 328 L195 327 L198 328 L199 332 L195 333 Z M377 327 L379 326 L380 329 L378 330 Z M275 326 L278 327 L277 332 L274 329 Z M160 327 L163 326 L165 330 L162 331 Z M100 327 L102 326 L103 328 L101 329 Z M337 326 L339 325 L342 328 L339 330 Z M242 326 L244 325 L250 331 L250 333 L242 335 L241 333 L244 331 Z M93 325 L96 326 L98 335 L97 339 L99 341 L98 343 L94 341 L92 343 L90 342 L91 338 L89 336 L93 334 L92 333 Z M399 325 L401 324 L403 328 L405 328 L406 330 L400 331 Z M362 325 L365 324 L368 330 L363 332 Z M327 324 L331 327 L332 329 L331 332 L329 332 L326 329 Z M265 324 L267 325 L266 328 L263 327 Z M216 325 L218 324 L219 327 L217 328 Z M188 324 L190 325 L191 328 L190 330 L186 329 Z M249 324 L251 323 L253 327 L250 328 Z M120 323 L124 322 L125 324 L121 325 Z M98 323 L100 322 L101 324 L99 325 Z M479 322 L481 321 L482 323 L480 324 Z M399 322 L401 321 L402 323 L400 324 Z M392 322 L395 321 L397 325 L395 326 Z M79 322 L82 321 L83 324 L81 325 Z M346 320 L351 322 L349 333 L345 332 L346 327 L344 322 Z M332 323 L333 320 L336 321 L334 324 Z M284 320 L288 320 L291 326 L291 331 L288 333 L283 332 L286 326 L282 326 L281 323 Z M181 321 L184 320 L186 323 L182 324 Z M169 321 L171 320 L175 323 L178 323 L179 330 L177 331 L176 329 L172 327 L172 332 L168 333 L167 326 L170 325 Z M373 320 L375 319 L376 322 L374 323 Z M296 320 L298 319 L299 321 L297 322 Z M248 319 L250 318 L251 320 L249 321 Z M235 318 L236 324 L233 325 L232 327 L229 326 L230 331 L226 332 L225 330 L227 324 L231 323 L230 319 Z M411 318 L415 317 L416 319 L420 319 L421 320 L420 325 L417 326 L411 321 Z M388 318 L390 317 L391 320 L389 321 Z M353 318 L358 317 L362 321 L357 324 L353 320 Z M323 317 L324 318 L323 324 L316 325 L314 323 L315 321 L319 321 L320 317 Z M192 318 L195 317 L196 320 L202 321 L203 323 L199 327 L198 325 L193 323 Z M401 317 L404 316 L405 318 L402 319 Z M327 317 L329 316 L330 319 L328 320 Z M305 317 L309 316 L310 319 L308 320 Z M142 316 L144 317 L143 321 L141 320 Z M160 316 L163 315 L164 318 L161 319 Z M155 315 L157 319 L159 318 L161 319 L161 323 L160 324 L157 323 L155 328 L150 330 L149 329 L150 324 L147 323 L146 320 L149 319 L151 315 Z M109 316 L111 315 L112 318 L110 319 Z M358 315 L359 314 L366 315 L367 318 L370 319 L371 323 L366 324 L364 319 L362 320 Z M342 315 L344 314 L345 317 L343 318 Z M336 315 L338 314 L339 317 L337 318 Z M220 315 L222 314 L223 316 L221 317 Z M179 314 L181 315 L180 319 L178 318 Z M139 314 L140 316 L137 319 L136 316 Z M388 314 L390 313 L391 315 L389 316 Z M378 313 L380 314 L379 319 L377 318 Z M101 315 L102 318 L98 321 L96 321 L95 318 L93 318 L93 321 L95 322 L94 325 L84 320 L88 315 L91 315 L93 313 L96 316 Z M407 313 L409 312 L412 315 L408 316 Z M286 313 L283 320 L274 319 L275 313 L281 314 L282 312 Z M170 311 L171 313 L167 317 L166 312 Z M183 310 L185 310 L190 314 L189 320 L187 319 L187 316 L182 312 Z M114 311 L113 313 L107 314 L106 316 L103 315 L104 311 L110 310 Z M459 309 L460 315 L459 316 L453 315 L451 319 L447 320 L447 326 L443 327 L441 321 L439 321 L438 317 L436 316 L438 311 L440 310 L442 314 L444 313 L445 309 L448 310 L448 313 L451 313 L453 310 Z M252 310 L256 309 L257 312 L253 314 Z M314 309 L316 308 L320 313 L316 315 Z M303 308 L304 313 L302 316 L299 315 L300 311 Z M218 309 L220 308 L221 310 L219 311 Z M214 308 L217 311 L218 314 L217 317 L214 316 L213 311 Z M61 309 L63 308 L64 310 L62 311 Z M332 307 L334 308 L335 311 L333 315 L330 315 L329 311 L331 310 Z M256 307 L258 306 L259 308 L257 309 Z M159 307 L161 306 L162 308 L160 309 Z M52 307 L54 306 L55 308 L53 309 Z M451 305 L454 306 L452 310 L450 309 Z M367 305 L369 306 L368 310 L366 309 Z M354 305 L358 306 L357 312 L353 311 Z M260 306 L262 305 L263 308 L261 309 Z M44 306 L46 305 L47 308 L45 309 Z M335 305 L337 304 L338 306 L336 307 Z M267 304 L270 305 L268 313 L265 312 Z M223 305 L226 304 L227 307 L224 309 Z M148 305 L149 304 L152 305 L153 309 L149 310 Z M141 305 L144 304 L145 307 L142 308 Z M115 304 L118 305 L118 311 L124 315 L124 318 L119 319 L117 323 L117 330 L123 336 L122 350 L127 350 L128 357 L135 365 L139 374 L141 374 L142 370 L146 371 L150 377 L154 373 L156 374 L152 382 L171 405 L173 419 L167 426 L158 421 L164 417 L169 418 L169 413 L165 412 L164 407 L155 405 L157 395 L155 398 L153 395 L148 398 L144 394 L146 390 L140 387 L125 386 L121 387 L119 392 L112 391 L112 396 L117 397 L118 401 L113 400 L111 402 L106 400 L105 404 L102 401 L100 406 L93 405 L93 397 L90 397 L90 403 L86 398 L88 393 L93 394 L95 392 L94 386 L91 392 L84 390 L81 385 L84 382 L87 384 L94 382 L91 376 L96 371 L97 361 L106 360 L100 371 L106 373 L103 379 L107 380 L100 389 L100 398 L108 396 L106 390 L109 383 L114 380 L120 383 L129 378 L128 375 L124 374 L121 365 L118 364 L116 368 L111 367 L110 365 L113 362 L109 361 L108 356 L102 358 L96 350 L97 346 L100 349 L104 347 L106 352 L115 347 L111 343 L110 335 L107 334 L111 326 L110 321 L114 316 L118 316 L113 309 Z M204 303 L205 304 L204 307 L198 309 L202 311 L201 315 L198 315 L196 312 L193 311 L195 305 Z M51 304 L53 303 L54 305 L52 306 Z M167 303 L168 302 L174 303 L175 307 L168 308 Z M117 303 L119 302 L120 304 L118 305 Z M385 301 L386 303 L383 305 L382 303 Z M300 301 L301 304 L298 310 L293 311 L292 309 L296 308 L298 302 Z M208 302 L213 301 L214 304 L209 305 Z M131 302 L133 301 L134 303 L132 304 Z M94 302 L95 301 L103 302 L105 308 L102 309 L101 311 L95 310 Z M344 300 L350 302 L351 310 L350 312 L345 311 L346 307 L343 303 Z M58 301 L60 300 L61 303 L59 304 Z M310 300 L307 304 L303 303 L304 300 L308 299 Z M215 300 L217 299 L218 302 L216 303 Z M189 299 L193 300 L191 308 L189 308 L186 305 Z M149 300 L151 299 L152 302 L150 303 Z M144 300 L146 299 L147 301 L145 302 Z M43 299 L45 300 L46 303 L45 305 L41 304 Z M371 298 L373 299 L373 303 L376 304 L377 309 L376 311 L372 308 L370 304 Z M366 298 L368 299 L367 303 L365 302 Z M289 299 L291 298 L292 301 L290 302 Z M110 299 L112 298 L113 300 L111 301 Z M378 298 L380 297 L381 299 L379 300 Z M136 298 L138 297 L139 299 L137 300 Z M156 297 L158 296 L159 298 L157 299 Z M324 295 L327 297 L330 302 L330 305 L328 308 L325 306 L324 301 L322 299 Z M264 295 L266 296 L265 300 L263 299 Z M114 298 L117 295 L119 296 L116 299 Z M48 295 L50 296 L49 299 L46 298 Z M392 294 L393 299 L389 300 L388 298 Z M315 294 L318 295 L323 306 L322 309 L318 308 L317 304 L312 303 L312 297 Z M216 295 L218 294 L219 296 L217 297 Z M197 297 L201 294 L205 297 L205 299 L202 300 L198 299 Z M163 294 L166 297 L165 301 L161 300 Z M350 294 L353 293 L355 297 L352 298 Z M234 293 L235 295 L230 300 L229 298 Z M208 295 L213 293 L214 297 L209 298 Z M192 294 L196 293 L197 295 L193 296 Z M102 294 L105 293 L106 295 L103 296 Z M91 296 L94 293 L96 294 L93 297 Z M369 292 L371 293 L370 297 L367 296 Z M149 292 L150 295 L147 297 L146 294 Z M137 293 L139 292 L140 294 L138 295 Z M123 292 L127 294 L129 299 L128 301 L124 299 L124 296 L122 294 Z M79 292 L81 294 L82 300 L89 301 L89 303 L87 304 L87 311 L90 310 L91 312 L86 314 L83 312 L82 309 L80 309 L84 318 L73 322 L73 324 L75 325 L74 327 L69 326 L68 329 L64 330 L63 328 L65 327 L65 325 L62 323 L62 321 L58 319 L58 312 L62 311 L65 315 L68 316 L69 314 L67 313 L67 311 L70 310 L72 307 L70 299 L74 295 L77 295 L77 293 Z M414 292 L416 291 L417 293 L415 294 Z M321 292 L323 291 L324 294 L322 295 Z M296 291 L301 297 L300 299 L296 296 L295 294 Z M484 293 L487 290 L491 291 L490 293 L487 294 Z M386 291 L388 290 L389 292 L387 293 Z M266 291 L271 290 L277 297 L282 307 L280 310 L275 312 L272 311 L272 309 L275 306 L272 304 L272 299 L269 296 L265 295 Z M234 291 L236 290 L237 292 L235 293 Z M128 291 L130 290 L131 292 L129 293 Z M99 291 L101 290 L102 293 L100 294 Z M393 292 L394 289 L398 290 L396 293 Z M359 290 L361 289 L362 291 L360 292 Z M274 290 L276 289 L277 291 L275 292 Z M455 289 L457 288 L458 291 L456 292 Z M313 290 L310 296 L308 297 L303 296 L304 293 L307 293 L308 288 Z M222 289 L224 288 L225 290 L223 291 Z M205 289 L207 288 L210 292 L206 293 Z M197 288 L199 289 L198 293 L196 292 Z M157 288 L158 290 L155 293 L154 291 Z M91 289 L93 288 L94 290 L92 291 Z M227 288 L229 287 L230 289 L228 290 Z M167 287 L168 291 L167 294 L165 295 L164 292 L165 288 Z M355 286 L357 285 L358 287 L356 288 Z M319 285 L320 289 L317 291 L316 288 Z M287 286 L291 285 L294 288 L293 289 L288 288 Z M148 286 L150 285 L154 289 L150 290 Z M118 287 L121 285 L123 286 L122 289 L119 289 Z M446 284 L447 292 L444 293 L444 297 L446 299 L442 303 L440 301 L441 296 L440 292 L443 291 L444 285 Z M388 285 L390 284 L391 287 L389 288 Z M379 284 L380 285 L379 288 L374 292 L373 290 L376 285 Z M352 284 L353 287 L352 290 L350 291 L348 287 Z M164 285 L166 284 L167 286 L165 287 Z M368 284 L370 283 L371 285 L369 286 Z M303 283 L306 284 L306 288 L304 290 L301 290 L299 287 Z M199 284 L204 283 L205 285 L201 287 Z M137 284 L140 283 L141 286 L138 287 Z M43 286 L44 283 L48 284 L46 287 Z M481 282 L482 283 L481 291 L478 292 L476 288 L474 288 L474 291 L478 295 L482 295 L484 298 L481 299 L481 304 L478 305 L478 309 L474 310 L473 307 L468 302 L469 300 L471 300 L470 297 L465 297 L464 293 L462 293 L461 295 L458 295 L457 292 L462 287 L469 288 L472 284 L478 285 L478 283 Z M459 283 L463 282 L464 285 L460 286 Z M125 283 L128 282 L129 285 L126 286 Z M65 282 L66 285 L63 286 L63 292 L60 294 L60 296 L63 296 L64 298 L59 299 L51 296 L52 291 L55 288 L60 290 L60 288 L57 287 L56 285 Z M470 282 L472 281 L473 283 L471 284 Z M361 282 L363 281 L364 283 L362 284 Z M357 282 L359 281 L360 283 L358 284 Z M263 281 L265 281 L268 284 L265 291 L261 290 Z M346 281 L349 280 L350 283 L348 284 Z M293 281 L295 280 L296 283 L294 284 Z M166 283 L167 280 L171 281 L169 284 Z M38 280 L40 286 L35 289 L34 285 L36 284 L36 281 Z M236 279 L243 281 L239 288 L235 287 Z M479 279 L481 278 L482 281 L480 282 Z M254 278 L255 280 L258 281 L257 286 L254 287 L254 293 L251 300 L248 299 L249 295 L247 295 L246 300 L248 301 L248 308 L246 310 L242 310 L243 318 L238 320 L237 319 L238 313 L236 312 L233 313 L232 312 L234 307 L240 308 L240 305 L237 302 L238 301 L243 302 L243 300 L241 300 L240 297 L244 293 L252 279 Z M367 278 L373 276 L377 280 L377 282 L373 283 L371 280 L368 280 Z M78 276 L82 276 L84 278 L93 280 L95 286 L93 287 L91 285 L90 290 L92 291 L91 294 L87 294 L86 296 L81 295 L83 291 L80 290 L80 286 L75 285 L75 283 L78 282 L77 279 Z M386 276 L388 275 L391 279 L388 281 Z M358 276 L363 275 L364 277 L359 278 Z M307 275 L314 276 L318 284 L313 287 L312 286 L313 280 L312 279 L306 281 L305 280 Z M155 276 L157 275 L158 277 L156 278 Z M151 276 L149 281 L143 282 L141 281 L144 277 L147 277 L148 275 Z M37 277 L43 275 L45 278 L39 281 Z M466 277 L469 274 L473 274 L476 279 L475 280 L471 278 L467 279 Z M377 275 L381 274 L382 276 L378 277 Z M348 275 L352 274 L356 278 L350 279 Z M295 279 L297 274 L301 275 L301 277 L298 280 Z M462 273 L464 275 L464 279 L463 280 L460 279 L459 281 L457 281 L456 284 L451 286 L450 283 L453 282 L454 277 L457 276 L458 273 Z M134 276 L135 273 L142 274 L140 278 L137 278 Z M50 276 L53 273 L58 274 L55 278 L52 278 Z M244 272 L246 273 L245 277 L242 275 Z M164 274 L166 272 L171 273 L173 277 L168 278 Z M63 272 L65 272 L67 276 L75 277 L75 282 L70 288 L68 287 L69 283 L66 281 L65 278 L60 282 L57 281 L57 278 Z M335 271 L339 272 L345 285 L345 288 L341 289 L339 294 L341 295 L341 293 L344 291 L346 291 L348 294 L348 297 L341 301 L339 300 L336 294 L334 296 L335 299 L331 300 L321 284 L325 278 L329 278 L330 276 L334 278 L335 276 L333 276 L332 273 Z M288 271 L289 274 L285 276 L284 280 L281 282 L282 285 L278 287 L274 283 L273 280 L281 279 L283 273 Z M255 272 L260 271 L263 276 L259 279 L256 276 Z M228 273 L233 271 L234 276 L232 277 Z M439 271 L441 270 L442 272 L440 273 Z M100 271 L103 270 L104 274 L102 275 Z M322 269 L327 272 L327 276 L323 277 L319 281 L316 274 L319 273 L320 270 Z M200 269 L202 274 L200 277 L196 277 L197 281 L194 282 L195 286 L190 293 L186 293 L185 291 L182 291 L181 288 L179 288 L179 291 L182 292 L187 297 L187 299 L185 301 L182 301 L180 304 L174 303 L173 302 L175 298 L178 299 L181 296 L179 294 L174 296 L173 294 L170 293 L171 291 L174 290 L172 288 L172 285 L175 284 L174 279 L175 278 L179 279 L182 282 L182 286 L184 286 L184 280 L182 280 L177 275 L178 272 L181 271 L184 272 L188 276 L194 275 L193 274 L194 269 Z M384 268 L386 269 L386 273 L381 274 L380 272 L383 271 Z M378 269 L380 268 L381 270 L379 271 Z M247 269 L249 268 L250 270 L248 271 Z M89 277 L89 275 L91 274 L92 268 L95 269 L95 272 L97 271 L99 272 L99 274 L94 275 L93 278 Z M342 267 L346 268 L345 274 L342 274 L340 271 Z M131 268 L134 267 L137 272 L132 273 Z M395 267 L399 266 L400 268 L396 269 Z M236 267 L242 266 L243 269 L240 270 L237 269 Z M58 267 L55 270 L50 269 L51 267 L56 266 Z M73 269 L78 265 L80 265 L82 269 L84 269 L85 271 L84 272 L81 272 L80 270 L74 271 Z M278 264 L279 268 L274 272 L274 275 L272 276 L271 271 L275 267 L275 265 Z M222 264 L224 268 L222 271 L218 273 L221 275 L220 278 L224 282 L220 283 L219 287 L215 291 L212 289 L213 283 L218 279 L214 276 L214 279 L209 281 L203 276 L205 274 L209 275 L212 272 L214 272 L216 266 Z M213 264 L214 267 L210 270 L209 266 Z M184 265 L189 264 L191 268 L187 271 Z M174 264 L176 265 L177 268 L175 271 L171 269 L171 266 Z M137 264 L139 265 L138 271 L136 270 Z M333 263 L334 267 L332 271 L327 272 L326 267 L330 266 Z M205 264 L207 263 L208 265 L206 266 Z M432 264 L436 262 L437 265 L440 267 L440 269 L435 270 L432 267 Z M296 265 L304 262 L306 265 L302 268 L309 269 L311 273 L310 274 L306 273 L302 275 L301 271 L296 267 Z M346 266 L348 261 L352 261 L354 263 L351 268 Z M45 262 L47 261 L48 264 L46 265 Z M444 261 L446 260 L447 262 L445 263 Z M309 260 L312 261 L311 266 L308 263 Z M255 261 L257 260 L258 262 L256 263 Z M114 261 L116 260 L117 262 L115 263 Z M54 263 L55 260 L59 261 L56 264 Z M317 260 L320 259 L321 262 L318 264 Z M440 259 L444 258 L445 260 L441 261 Z M274 258 L277 261 L276 264 L272 262 Z M280 260 L286 257 L288 264 L285 265 L284 263 L281 263 Z M206 258 L209 257 L211 260 L209 261 Z M196 257 L199 259 L198 263 L195 261 Z M174 263 L178 257 L183 260 L182 262 L177 262 L176 264 Z M111 258 L113 257 L114 259 L112 260 Z M80 259 L80 261 L75 265 L70 264 L75 257 Z M61 258 L63 257 L65 260 L62 261 Z M410 256 L413 257 L411 262 L408 261 L408 258 Z M381 259 L382 256 L385 257 L383 260 Z M343 256 L344 259 L338 264 L335 263 L336 258 Z M253 256 L254 257 L253 263 L251 265 L245 265 L244 263 L248 262 L249 257 Z M280 256 L282 255 L283 257 L281 258 Z M266 255 L269 256 L270 260 L269 262 L265 259 Z M261 255 L263 256 L262 260 L260 259 Z M215 257 L217 255 L224 256 L223 259 L216 259 Z M132 256 L134 255 L136 259 L134 260 Z M54 256 L56 255 L57 257 L55 258 Z M225 255 L229 254 L230 257 L236 258 L237 259 L236 263 L229 266 L228 264 L230 261 L226 258 Z M166 255 L168 254 L172 257 L172 259 L168 260 Z M126 254 L127 259 L126 262 L123 264 L124 273 L119 276 L122 278 L122 282 L115 286 L117 288 L117 292 L114 296 L108 295 L105 290 L101 289 L100 285 L102 284 L103 286 L108 285 L110 281 L112 281 L110 276 L113 274 L113 269 L117 263 L120 263 L120 261 Z M443 254 L445 253 L446 255 L444 256 Z M391 253 L394 253 L395 256 L398 258 L398 262 L396 263 L395 267 L391 263 L390 259 Z M271 254 L273 253 L274 256 L272 257 Z M432 252 L434 253 L433 256 L430 255 Z M404 253 L407 252 L408 254 L405 255 Z M397 253 L399 252 L400 255 L398 256 Z M424 251 L426 250 L427 252 L425 253 Z M256 249 L258 250 L257 256 L255 255 Z M478 249 L480 248 L481 250 L479 251 Z M193 249 L195 248 L196 250 L194 251 Z M170 249 L173 248 L176 252 L172 253 Z M125 249 L125 252 L122 255 L119 256 L115 255 L115 253 L120 252 L122 248 Z M419 248 L422 247 L423 249 L420 250 Z M276 247 L278 246 L279 248 L277 249 Z M270 247 L272 246 L273 249 L271 250 Z M259 247 L261 246 L262 249 L260 250 Z M119 247 L121 246 L122 248 L120 249 Z M114 247 L116 246 L117 248 L115 249 Z M54 246 L56 247 L55 250 L52 249 Z M124 247 L127 245 L129 246 L128 249 L125 249 Z M494 245 L496 244 L497 247 L495 248 Z M483 244 L485 245 L484 250 L481 249 L481 246 Z M264 244 L266 243 L267 246 L265 247 Z M159 244 L163 243 L164 246 L160 247 Z M240 242 L242 243 L241 248 L238 247 L238 244 Z M80 242 L83 243 L82 249 L79 247 Z M427 241 L429 242 L428 246 L426 245 Z M377 242 L381 241 L382 246 L378 247 Z M178 241 L180 243 L187 245 L185 255 L182 254 L183 247 L177 245 Z M481 241 L483 240 L484 242 L482 243 Z M324 240 L327 243 L326 246 L323 243 Z M191 241 L193 240 L194 242 L192 243 Z M312 240 L315 239 L316 241 L313 242 Z M226 240 L232 239 L233 240 L232 244 L234 243 L236 244 L238 250 L235 251 L233 254 L228 253 L229 246 L227 246 L227 248 L224 251 L220 250 Z M157 239 L160 240 L159 244 L155 242 Z M487 238 L489 239 L489 242 L491 243 L490 249 L487 248 L487 244 L485 242 Z M477 239 L479 238 L480 241 L478 242 Z M297 240 L300 238 L304 238 L305 239 L304 242 L309 241 L312 244 L312 249 L316 248 L320 252 L315 254 L314 256 L309 255 L308 257 L304 257 L300 251 L302 247 L298 247 L296 245 Z M284 240 L287 240 L289 238 L291 239 L290 246 L291 248 L294 246 L296 247 L300 256 L302 257 L300 260 L293 259 L296 256 L295 254 L292 254 L291 256 L284 254 L284 249 L281 248 L281 244 Z M266 239 L268 238 L269 240 L267 241 Z M261 239 L263 238 L264 240 L262 241 Z M250 239 L253 238 L254 242 L252 243 Z M167 239 L169 238 L170 240 L168 241 Z M415 238 L417 237 L418 239 L416 240 Z M390 248 L392 246 L392 243 L396 240 L397 237 L403 238 L401 241 L403 244 L405 244 L405 240 L407 238 L412 238 L415 240 L415 244 L409 250 L405 248 L403 251 L399 250 L398 252 L395 252 L393 249 Z M182 238 L187 236 L190 239 L183 240 Z M162 236 L164 237 L163 241 L161 240 Z M120 237 L122 236 L123 238 L121 239 Z M71 236 L75 238 L76 245 L75 247 L73 247 L72 251 L67 249 L71 245 L70 241 Z M423 235 L425 235 L427 238 L426 242 L423 241 L422 238 Z M375 235 L377 240 L372 242 L370 240 L370 237 Z M292 238 L293 235 L297 236 L295 239 Z M225 237 L221 243 L215 244 L214 246 L210 246 L210 250 L214 249 L216 251 L214 255 L208 254 L206 256 L201 257 L196 254 L197 252 L200 252 L200 249 L203 245 L211 239 L214 238 L215 240 L217 240 L218 235 Z M199 238 L200 235 L203 236 L201 239 Z M150 236 L152 235 L153 237 L151 238 Z M122 240 L123 238 L128 237 L129 235 L133 235 L135 237 L134 240 L131 238 L128 242 Z M44 236 L46 235 L47 238 L45 239 Z M490 235 L492 234 L493 236 L491 237 Z M408 235 L411 234 L412 236 L409 237 Z M334 235 L336 234 L337 236 L335 237 Z M326 235 L328 234 L331 236 L334 236 L335 242 L330 243 L329 242 L330 239 L327 238 Z M210 234 L211 237 L206 239 L205 237 Z M178 235 L180 234 L181 236 L179 237 Z M61 237 L64 234 L65 236 L68 237 L68 239 L66 241 L63 241 Z M256 234 L259 233 L262 236 L261 239 L258 238 Z M348 232 L353 234 L355 239 L358 237 L361 238 L364 251 L366 250 L366 246 L364 244 L366 240 L368 241 L368 244 L371 245 L371 247 L375 246 L378 249 L377 251 L375 251 L376 254 L375 258 L371 259 L370 266 L374 265 L375 267 L372 269 L372 272 L369 273 L368 275 L365 274 L368 268 L365 268 L362 271 L359 270 L359 268 L364 264 L363 261 L360 262 L358 260 L359 256 L356 255 L358 251 L356 250 L355 247 L351 248 L352 256 L348 258 L344 257 L341 254 L341 251 L335 252 L332 255 L330 254 L336 244 L339 246 L344 243 L342 236 L347 235 Z M303 233 L306 232 L308 235 L310 234 L311 236 L307 238 L303 235 Z M170 232 L171 236 L166 238 L165 236 L168 232 Z M124 233 L127 232 L128 234 L125 235 Z M364 236 L365 233 L368 231 L372 233 L368 237 Z M213 232 L215 231 L216 233 L214 234 Z M430 231 L432 230 L433 232 L431 233 Z M384 238 L385 236 L389 235 L389 233 L387 232 L388 230 L393 231 L394 233 L397 231 L400 232 L399 234 L395 236 L393 240 L391 240 L390 243 Z M357 231 L360 230 L361 232 L358 233 Z M157 231 L159 230 L162 233 L159 234 Z M146 233 L148 230 L152 231 L151 233 L148 234 Z M66 230 L69 231 L67 235 L64 234 Z M494 230 L496 229 L497 231 L495 232 Z M419 230 L423 229 L426 233 L421 234 Z M195 230 L197 229 L198 231 L196 232 Z M465 229 L467 228 L468 230 L466 231 Z M436 230 L442 228 L443 232 L439 233 Z M320 229 L323 228 L324 230 L321 231 Z M279 228 L282 230 L283 237 L281 240 L278 240 L279 244 L276 245 L272 239 L273 234 L269 236 L268 233 L270 230 L277 233 L277 229 Z M129 229 L131 228 L132 230 L130 231 Z M330 228 L332 227 L333 230 L331 231 Z M457 228 L462 226 L464 229 L462 232 L460 232 Z M394 227 L396 226 L397 228 L395 229 Z M372 228 L376 226 L382 227 L379 234 L377 233 L377 230 L373 230 Z M350 227 L353 226 L354 230 L352 231 Z M264 226 L266 227 L265 232 L263 231 Z M249 226 L250 227 L249 233 L243 234 L245 238 L243 240 L240 239 L236 241 L234 236 L237 235 L238 232 L243 231 L244 227 Z M181 227 L185 226 L187 231 L185 232 Z M123 227 L120 232 L112 233 L112 238 L110 240 L105 241 L102 244 L98 244 L94 246 L93 249 L91 249 L88 246 L88 243 L90 242 L91 238 L93 238 L94 241 L96 241 L96 237 L100 236 L101 234 L105 236 L106 238 L108 238 L109 232 L106 232 L105 235 L102 234 L102 232 L105 229 L112 230 L114 227 L118 226 Z M64 227 L63 231 L58 237 L56 237 L56 242 L50 243 L48 238 L50 237 L54 229 L60 228 L61 226 Z M492 226 L494 225 L495 228 L493 229 Z M424 226 L426 225 L427 227 L425 228 Z M409 225 L410 229 L407 231 L406 228 Z M333 226 L335 225 L336 227 L334 228 Z M325 226 L327 225 L328 227 L326 228 Z M419 224 L421 225 L420 229 L418 228 Z M315 225 L317 224 L318 226 L316 227 Z M301 225 L303 224 L305 228 L303 229 Z M298 224 L299 228 L295 231 L294 228 Z M41 225 L46 224 L47 228 L43 229 Z M435 224 L437 223 L438 225 L436 226 Z M155 226 L158 223 L161 224 L160 228 L156 228 Z M317 223 L319 222 L320 224 L318 225 Z M213 223 L215 222 L216 225 L214 226 Z M135 222 L138 224 L142 223 L145 228 L143 231 L143 234 L151 238 L150 243 L152 243 L154 247 L150 248 L150 251 L154 251 L157 247 L160 248 L159 252 L157 253 L158 261 L155 262 L155 265 L158 269 L154 271 L153 273 L145 269 L145 267 L147 266 L147 262 L143 261 L142 256 L140 254 L140 252 L145 249 L145 246 L143 245 L143 243 L137 246 L134 245 L134 240 L135 239 L139 240 L140 235 L136 233 L138 229 L134 227 Z M284 222 L286 221 L287 223 L285 224 Z M196 222 L199 221 L200 224 L197 225 Z M151 221 L152 224 L148 227 L147 224 Z M365 221 L369 220 L370 222 L366 223 Z M358 220 L361 221 L360 227 L357 227 L355 225 Z M254 220 L258 221 L257 228 L255 227 L255 224 L253 222 Z M334 219 L335 220 L334 223 L331 224 L330 222 Z M299 219 L301 218 L303 222 L301 223 Z M284 219 L278 225 L273 224 L274 222 L278 221 L281 218 Z M173 218 L175 217 L176 219 L174 220 Z M437 217 L440 216 L441 218 L438 219 Z M410 216 L414 217 L415 221 L414 224 L409 222 Z M217 216 L218 218 L215 221 L214 219 Z M152 217 L154 216 L155 218 L153 219 Z M51 216 L54 217 L53 222 L51 221 L50 218 Z M425 215 L431 217 L430 222 L434 224 L433 226 L425 224 L423 219 Z M391 216 L393 215 L394 217 L392 218 Z M390 215 L391 217 L388 220 L387 217 Z M351 215 L354 216 L353 222 L351 221 L350 217 Z M325 215 L326 217 L322 220 L321 217 Z M287 217 L289 215 L294 215 L298 221 L290 224 L287 221 Z M267 215 L271 219 L270 222 L268 221 L266 217 Z M191 216 L194 215 L196 219 L194 220 Z M186 216 L188 215 L189 217 L187 218 Z M167 215 L170 216 L170 219 L168 220 L168 222 L171 222 L172 224 L170 225 L168 229 L165 229 L164 227 L167 226 L167 224 L164 223 L164 220 Z M40 216 L42 215 L43 217 L41 218 Z M413 215 L415 214 L416 216 L414 217 Z M402 215 L406 214 L407 217 L405 218 Z M374 223 L374 221 L377 219 L376 215 L379 214 L380 218 L382 218 L383 221 L376 224 Z M314 215 L318 214 L319 216 L315 217 Z M255 216 L260 214 L263 216 L263 218 L260 220 L259 218 L256 218 Z M207 215 L209 214 L211 218 L209 219 Z M157 217 L160 214 L162 215 L160 218 Z M375 214 L371 218 L368 217 L372 213 Z M309 213 L312 214 L310 217 L307 216 Z M122 217 L123 216 L128 217 L128 214 L131 213 L132 219 L135 216 L141 216 L144 219 L133 222 L131 226 L128 226 L124 224 L126 221 L123 220 Z M29 214 L31 213 L32 215 L30 216 Z M318 213 L320 212 L321 214 L319 215 Z M313 212 L315 211 L316 213 L314 214 Z M295 212 L297 211 L298 213 L296 214 Z M195 212 L197 211 L200 215 L199 216 L196 215 Z M469 211 L471 210 L472 213 L470 214 Z M430 211 L433 210 L435 215 L432 216 L430 214 Z M405 211 L408 210 L409 212 L406 213 Z M368 210 L369 212 L366 215 L364 215 L363 213 Z M157 210 L158 212 L155 214 L154 212 Z M421 210 L425 209 L426 211 L422 212 Z M373 210 L375 209 L376 211 L374 212 Z M356 210 L360 209 L361 211 L358 213 Z M273 209 L278 211 L279 215 L278 218 L276 218 L275 214 L271 212 Z M146 210 L148 209 L149 211 L147 212 Z M291 211 L290 213 L287 213 L284 216 L281 215 L281 213 L285 211 L287 208 Z M39 208 L41 209 L40 215 L38 214 Z M324 208 L325 207 L330 208 L331 210 L325 212 Z M292 208 L294 207 L295 209 L293 210 Z M221 208 L223 207 L224 209 L222 210 Z M176 207 L178 207 L186 213 L185 215 L183 215 L186 218 L187 222 L186 224 L182 224 L176 217 L175 212 Z M163 210 L164 207 L168 208 L166 211 Z M71 208 L74 207 L75 209 L72 210 Z M446 207 L448 206 L451 210 L447 211 Z M427 207 L430 206 L431 208 L428 209 Z M110 206 L113 207 L113 211 L115 209 L118 210 L119 213 L118 220 L116 220 L115 218 L109 217 L110 212 L109 207 Z M103 207 L105 206 L106 208 L104 209 Z M215 206 L220 205 L221 207 L216 208 Z M139 205 L143 208 L144 211 L143 213 L141 213 L140 210 L138 209 Z M378 204 L381 204 L382 206 L386 206 L389 209 L388 211 L385 212 L384 217 L377 210 Z M295 205 L297 204 L299 207 L297 208 Z M154 205 L156 204 L158 207 L156 208 Z M207 204 L209 203 L210 205 L208 206 Z M186 203 L191 204 L191 207 L193 208 L192 213 L185 211 Z M402 202 L404 201 L405 203 L403 204 Z M349 201 L351 201 L353 206 L355 207 L354 212 L352 210 L348 211 L346 209 L346 206 L348 205 Z M280 202 L282 201 L287 207 L280 208 L279 207 Z M91 202 L92 201 L99 202 L100 208 L98 209 L97 207 L92 205 Z M322 201 L324 200 L325 202 L323 203 Z M137 201 L143 200 L144 204 L142 205 L141 203 L138 203 Z M366 200 L368 199 L371 202 L369 203 Z M264 199 L271 201 L272 204 L271 206 L266 205 L266 207 L269 208 L268 211 L262 209 Z M362 198 L363 201 L358 203 L357 200 Z M291 199 L293 198 L294 200 L292 201 Z M185 199 L184 202 L180 202 L175 207 L172 207 L170 204 L172 199 L174 201 L179 200 L181 198 Z M145 199 L148 198 L149 200 L146 201 Z M90 199 L92 198 L93 200 L91 201 Z M70 199 L72 198 L73 200 L71 201 Z M284 198 L286 197 L287 199 L285 200 Z M259 197 L261 198 L260 202 L258 201 Z M215 197 L217 198 L216 202 L214 201 Z M189 198 L194 197 L195 202 L191 203 L189 201 Z M153 198 L155 197 L158 201 L155 202 Z M230 199 L231 196 L234 197 L232 200 Z M163 196 L170 197 L167 205 L164 203 L162 199 Z M134 196 L135 200 L131 201 L130 199 Z M443 196 L445 195 L446 197 L444 198 Z M364 196 L366 195 L367 197 L365 198 Z M150 195 L153 196 L151 200 L149 199 Z M143 196 L145 195 L146 197 L144 198 Z M331 194 L335 195 L335 198 L337 200 L336 203 L330 197 Z M318 195 L320 194 L321 196 L319 197 Z M294 195 L296 194 L297 196 L295 197 Z M217 195 L219 194 L220 196 L218 197 Z M115 195 L117 194 L118 196 L116 197 Z M97 195 L101 194 L102 197 L99 199 Z M432 193 L433 196 L430 199 L430 202 L428 203 L427 207 L425 207 L422 203 L419 202 L420 195 Z M234 194 L236 193 L237 195 L235 196 Z M139 194 L143 193 L144 195 L140 196 Z M125 193 L129 194 L127 199 L125 198 L124 195 Z M487 193 L489 192 L490 194 L488 195 Z M352 195 L355 192 L357 193 L355 196 Z M279 192 L282 194 L282 196 L279 197 L278 200 L276 201 L273 195 Z M415 192 L418 191 L419 193 L416 194 Z M381 190 L382 194 L385 195 L386 199 L384 200 L379 198 L378 202 L376 203 L373 200 L373 198 L377 197 L376 192 L378 190 Z M230 191 L233 190 L234 192 L231 193 Z M299 191 L302 189 L304 192 L300 193 Z M135 188 L136 192 L134 195 L132 195 L131 192 Z M90 189 L93 188 L96 194 L93 195 L90 192 Z M368 188 L372 187 L373 190 L369 191 Z M285 188 L287 187 L288 190 L286 191 Z M145 188 L147 187 L148 190 L146 191 Z M427 190 L428 186 L432 187 L429 191 Z M411 186 L413 190 L411 191 L410 194 L407 194 L406 193 L407 188 Z M268 186 L272 190 L272 192 L267 193 L265 197 L261 196 L260 193 L264 191 L266 186 Z M229 187 L231 186 L232 189 L230 190 Z M176 186 L177 187 L176 192 L173 193 L172 191 L174 187 Z M108 187 L112 186 L114 191 L122 188 L123 192 L116 193 L114 197 L111 198 L108 196 L109 193 Z M355 184 L357 185 L356 189 L353 188 Z M271 185 L273 184 L275 187 L273 188 Z M237 185 L239 184 L240 186 L238 187 Z M439 183 L440 184 L439 188 L436 189 L435 187 Z M423 184 L425 183 L426 185 L424 186 Z M359 184 L362 183 L363 185 L360 186 Z M153 184 L156 183 L157 185 L154 186 Z M143 183 L146 184 L145 188 L141 187 Z M393 183 L395 182 L396 184 L394 185 Z M318 182 L322 185 L321 189 L319 188 L317 184 Z M275 182 L277 181 L279 185 L277 186 Z M234 182 L237 181 L238 183 L235 184 Z M195 181 L198 182 L197 189 L198 196 L197 197 L194 196 L194 193 L189 188 L190 186 L194 184 Z M422 180 L424 181 L423 184 L420 183 Z M255 180 L258 183 L257 186 L258 191 L255 192 L255 194 L252 196 L250 195 L250 191 L248 191 L248 195 L250 197 L255 196 L256 199 L253 200 L251 204 L247 203 L246 198 L244 200 L245 203 L247 204 L247 207 L254 208 L252 212 L249 212 L249 214 L251 215 L251 218 L250 219 L246 218 L244 222 L241 221 L241 217 L246 214 L246 210 L244 210 L243 215 L239 216 L238 214 L234 213 L235 216 L231 220 L226 220 L225 225 L219 225 L218 224 L219 221 L221 219 L224 219 L224 217 L222 216 L224 212 L230 207 L230 205 L243 191 L249 186 L251 187 L254 186 L252 181 Z M385 179 L388 181 L387 186 L384 185 Z M267 180 L269 179 L271 182 L269 183 Z M424 179 L426 178 L427 180 L425 181 Z M291 179 L293 178 L294 180 L292 181 Z M239 182 L240 178 L244 179 L241 183 Z M323 178 L325 177 L326 179 L324 180 Z M297 177 L299 178 L298 182 L296 181 Z M99 179 L108 177 L109 184 L107 185 L106 183 L101 183 Z M189 177 L192 176 L195 179 L195 181 L191 182 Z M145 177 L147 176 L148 179 L146 180 Z M363 176 L358 182 L354 181 L358 175 Z M249 176 L251 175 L252 177 L250 178 Z M218 175 L220 176 L219 180 L217 179 Z M480 175 L483 174 L484 176 L481 177 Z M474 175 L476 174 L477 176 L475 177 Z M283 175 L285 174 L286 176 L284 177 Z M263 174 L265 173 L266 175 L264 176 Z M241 174 L243 173 L244 175 L242 176 Z M231 174 L233 173 L234 176 L232 177 Z M162 173 L163 174 L162 180 L159 182 L157 177 L159 174 Z M97 174 L100 173 L101 175 L98 176 Z M323 175 L322 177 L315 177 L317 181 L315 184 L313 184 L313 187 L316 188 L316 191 L310 194 L312 196 L312 199 L306 200 L305 196 L307 194 L308 188 L302 189 L301 186 L308 183 L307 179 L309 178 L308 176 L309 174 L313 175 L316 172 Z M258 172 L260 173 L263 180 L265 181 L264 185 L261 188 L259 187 L260 179 L258 179 L256 176 Z M221 173 L224 172 L225 174 L222 175 Z M186 173 L188 172 L189 174 L187 175 Z M147 173 L150 172 L151 175 L148 176 Z M71 173 L73 172 L74 174 L78 174 L79 176 L77 178 L74 178 L71 176 Z M424 171 L425 175 L422 179 L419 179 L417 181 L413 177 L414 174 L420 174 L422 171 Z M467 171 L469 170 L470 172 L468 173 Z M408 171 L411 170 L412 174 L410 175 Z M291 171 L293 170 L294 172 L292 173 Z M278 170 L280 171 L279 175 L277 174 Z M261 171 L263 170 L264 172 L262 173 Z M298 170 L301 169 L304 171 L305 175 L302 176 Z M431 173 L431 170 L433 168 L441 170 L437 174 Z M190 168 L193 169 L194 171 L203 173 L204 174 L203 178 L207 179 L209 183 L212 183 L213 185 L216 186 L217 191 L215 193 L211 192 L212 196 L211 200 L206 198 L202 191 L203 188 L205 190 L208 189 L207 185 L202 183 L200 179 L193 177 L192 173 L189 172 Z M140 169 L142 168 L143 171 L141 172 Z M74 168 L76 169 L75 172 L72 171 Z M230 170 L234 167 L239 169 L237 173 L231 172 Z M200 168 L203 167 L204 169 L201 170 Z M175 166 L177 167 L176 171 L174 170 Z M264 166 L266 165 L267 168 L265 169 Z M146 166 L150 165 L151 168 L147 169 Z M436 164 L438 163 L439 166 L437 167 Z M235 164 L238 163 L239 165 L236 166 Z M196 164 L199 163 L200 165 L197 166 Z M433 163 L435 162 L436 164 L434 165 Z M250 163 L252 162 L254 166 L251 167 Z M390 161 L393 160 L394 163 L392 164 Z M264 161 L266 160 L267 162 L265 163 Z M103 161 L105 160 L106 162 L104 163 Z M287 159 L290 160 L290 166 L288 171 L286 171 L283 168 Z M275 159 L276 162 L270 167 L269 163 L273 159 Z M241 160 L243 159 L244 161 L242 162 Z M430 157 L432 158 L431 163 L429 162 Z M178 157 L180 158 L180 160 L184 161 L184 163 L180 167 L178 167 L176 163 Z M319 158 L319 164 L315 168 L308 167 L308 169 L306 170 L305 168 L302 167 L302 165 L299 164 L300 160 L312 164 L312 162 L314 161 L313 159 L314 156 Z M252 156 L253 158 L249 161 L248 158 Z M185 157 L187 156 L188 159 L186 160 Z M139 156 L142 155 L145 158 L142 160 Z M102 156 L104 155 L105 157 L103 158 Z M435 155 L437 154 L438 157 L436 158 Z M267 155 L269 154 L270 156 L268 157 Z M349 153 L351 154 L350 157 L347 156 Z M276 158 L279 153 L282 153 L285 155 L282 158 L280 157 L278 159 Z M255 154 L259 153 L262 156 L256 158 Z M235 153 L237 154 L236 159 L232 157 Z M150 153 L152 154 L152 159 L148 160 L147 157 Z M136 153 L137 155 L136 160 L134 161 L134 165 L127 167 L125 169 L127 173 L126 175 L121 175 L117 172 L115 173 L117 174 L117 176 L121 177 L121 179 L116 182 L115 186 L113 185 L110 174 L106 172 L104 169 L102 169 L101 171 L99 170 L100 165 L105 165 L106 163 L109 164 L112 163 L116 165 L114 160 L118 159 L119 162 L121 162 L123 157 L126 155 L129 155 L130 158 L133 159 L133 156 L130 156 L129 154 Z M297 153 L299 152 L303 154 L306 152 L309 154 L310 158 L308 159 L306 157 L303 159 Z M212 152 L215 155 L217 154 L220 155 L216 165 L216 169 L214 170 L216 175 L216 180 L214 183 L211 182 L210 178 L205 176 L206 173 L208 175 L211 174 L209 172 L209 168 L213 162 L213 158 L211 156 Z M64 155 L67 152 L69 153 L67 156 Z M398 152 L400 151 L402 154 L405 154 L407 152 L408 154 L406 157 L401 157 L398 154 Z M89 151 L99 155 L97 157 L99 159 L99 163 L95 164 L95 170 L97 170 L98 172 L91 176 L96 175 L98 176 L97 182 L98 185 L104 188 L103 191 L101 191 L100 189 L94 188 L93 185 L91 184 L91 181 L86 178 L85 181 L90 183 L90 187 L88 188 L81 186 L80 189 L77 188 L78 182 L82 179 L82 175 L84 171 L84 168 L80 168 L78 165 L79 164 L83 165 L84 159 L87 158 L86 155 L88 154 Z M315 150 L316 154 L312 156 L311 153 Z M263 151 L265 150 L266 152 L264 153 Z M248 151 L252 150 L253 152 L249 153 Z M189 150 L192 151 L191 156 L188 155 Z M173 150 L177 154 L177 156 L174 157 L174 160 L172 162 L170 169 L174 170 L175 172 L173 176 L169 175 L168 178 L166 179 L165 176 L163 175 L165 172 L168 171 L166 168 L163 168 L162 170 L160 170 L159 173 L153 171 L154 169 L158 169 L158 165 L154 163 L154 160 L158 159 L159 162 L161 162 L162 158 L154 157 L153 154 L164 152 L165 154 L171 156 L169 151 Z M408 150 L410 149 L411 152 L409 153 Z M402 150 L404 149 L405 151 L403 152 Z M273 150 L275 149 L276 151 L274 152 Z M229 149 L231 150 L231 152 L227 156 L229 156 L232 162 L231 165 L227 164 L227 160 L224 159 L222 155 Z M93 149 L95 148 L96 150 L94 151 Z M242 147 L244 148 L245 152 L244 154 L240 153 Z M236 148 L238 147 L239 150 L237 151 Z M410 147 L412 146 L413 148 L411 149 Z M378 146 L380 147 L381 154 L386 153 L389 154 L395 152 L396 154 L399 155 L397 159 L393 159 L391 157 L390 160 L388 161 L387 167 L385 168 L386 173 L390 172 L389 170 L390 168 L392 168 L393 170 L400 168 L401 171 L396 172 L395 178 L390 177 L388 178 L386 176 L384 180 L379 179 L378 177 L382 175 L377 172 L376 168 L375 168 L375 172 L372 178 L365 175 L368 171 L366 166 L367 165 L371 166 L375 164 L375 160 L372 159 L371 157 L378 156 L376 154 Z M371 147 L374 146 L375 148 L372 149 Z M297 147 L301 146 L303 150 L298 151 Z M187 146 L189 147 L188 151 L186 150 Z M167 147 L170 146 L171 149 L168 150 Z M132 147 L134 146 L135 148 L133 149 Z M77 146 L79 147 L78 151 L76 150 Z M256 145 L259 146 L258 150 L254 149 Z M221 145 L222 146 L221 150 L218 153 L216 153 L215 147 Z M105 148 L106 145 L109 146 L107 149 Z M115 145 L121 144 L122 147 L116 148 Z M422 145 L427 143 L428 146 L431 146 L432 148 L427 149 L425 151 Z M289 143 L292 144 L292 148 L294 147 L296 148 L296 150 L293 151 L293 153 L295 154 L293 157 L288 156 L286 150 L284 149 L284 146 L288 145 Z M212 144 L214 143 L215 145 L213 146 Z M200 144 L202 143 L203 145 L201 146 Z M304 143 L306 142 L307 144 L305 145 Z M261 143 L264 142 L265 144 L262 145 Z M153 143 L155 142 L157 146 L161 145 L162 148 L159 149 L158 151 L155 151 L153 148 Z M98 142 L100 143 L99 146 L96 145 Z M92 143 L93 145 L90 146 L90 148 L88 149 L88 152 L82 154 L81 152 L85 149 L85 144 L88 142 Z M365 142 L367 141 L371 146 L366 148 Z M318 141 L319 147 L318 148 L315 147 L314 150 L311 150 L308 145 Z M278 141 L280 142 L279 150 L276 148 L276 144 Z M236 142 L238 141 L239 143 L237 144 Z M162 140 L163 142 L159 144 L158 142 Z M115 140 L118 139 L119 141 L116 142 Z M96 139 L98 138 L99 140 L97 141 Z M422 138 L424 137 L427 141 L424 142 Z M373 138 L375 137 L376 139 L374 140 Z M253 137 L255 138 L254 142 L252 141 Z M149 136 L151 135 L152 137 L150 138 Z M45 135 L47 134 L48 136 L46 137 Z M359 133 L360 136 L357 138 L356 135 Z M255 134 L257 133 L258 135 L256 136 Z M95 133 L95 136 L92 140 L86 141 L85 143 L81 142 L85 138 L88 138 L86 136 L87 133 L91 134 L92 132 Z M424 132 L426 131 L427 133 L425 134 Z M260 132 L262 131 L263 133 L261 134 Z M213 132 L215 131 L220 136 L215 137 Z M155 132 L157 131 L158 133 L156 134 Z M143 132 L145 131 L146 134 L144 135 Z M416 131 L420 130 L422 134 L420 136 L417 136 Z M121 131 L123 130 L125 133 L128 133 L131 139 L133 139 L133 136 L136 135 L133 131 L139 130 L141 132 L141 136 L138 142 L141 142 L144 137 L146 138 L146 142 L148 142 L151 139 L152 148 L149 149 L148 153 L145 155 L144 151 L141 148 L139 148 L138 145 L134 144 L133 142 L127 143 L125 139 L121 140 L120 137 L122 136 Z M110 129 L113 132 L111 136 L108 135 Z M99 129 L102 128 L103 131 L100 132 Z M427 128 L431 127 L432 129 L428 130 Z M273 127 L276 129 L275 131 L276 136 L273 137 L273 142 L271 143 L270 140 L267 139 L267 136 L265 134 L269 131 L270 128 Z M82 127 L83 129 L81 130 L82 132 L81 135 L76 133 L75 135 L73 135 L74 138 L73 141 L68 139 L69 142 L72 142 L75 144 L75 146 L71 148 L71 151 L68 152 L67 150 L69 145 L65 144 L64 142 L61 142 L58 137 L61 134 L68 135 L69 133 L71 133 L69 131 L70 128 L73 129 L74 127 L78 128 Z M153 127 L156 126 L157 128 L154 129 Z M422 128 L423 125 L426 126 L424 129 Z M265 126 L268 125 L269 127 L266 128 Z M236 125 L237 133 L231 138 L234 145 L228 149 L225 147 L228 140 L225 140 L224 138 L226 134 L230 133 L231 127 L233 125 Z M311 127 L312 130 L311 132 L304 132 L304 135 L307 135 L308 139 L303 140 L301 142 L298 141 L297 144 L295 143 L294 140 L288 137 L287 141 L285 142 L284 136 L286 135 L286 132 L283 132 L282 134 L280 133 L280 130 L282 127 L288 128 L291 126 L297 125 L299 122 L302 123 L303 121 L307 122 L308 126 Z M255 122 L258 121 L259 123 L256 124 Z M71 124 L72 121 L78 122 L76 125 Z M212 121 L214 120 L215 122 L213 123 Z M355 120 L357 119 L358 122 L356 123 Z M328 120 L335 119 L337 120 L338 130 L337 131 L333 130 L333 132 L337 134 L340 132 L342 133 L342 135 L339 136 L341 140 L339 142 L339 146 L343 145 L344 140 L348 139 L351 136 L353 137 L354 143 L357 143 L357 141 L360 140 L361 138 L366 139 L366 141 L363 143 L363 150 L360 151 L363 154 L363 162 L360 164 L363 170 L359 174 L357 173 L358 166 L355 165 L355 162 L357 161 L357 157 L354 150 L346 150 L345 151 L346 156 L342 157 L339 163 L337 162 L337 159 L333 161 L330 157 L329 158 L326 157 L327 155 L326 149 L328 148 L328 146 L326 146 L324 143 L321 142 L321 138 L324 137 L325 134 L320 134 L319 132 L327 130 L325 126 L328 125 L327 122 Z M158 119 L157 123 L154 124 L149 123 L150 121 L154 121 L155 118 Z M52 118 L54 119 L54 121 L58 120 L59 124 L61 125 L61 128 L58 129 L57 132 L54 132 L52 130 L50 122 Z M350 118 L353 117 L354 120 L352 121 Z M291 118 L293 117 L294 119 L292 120 Z M66 118 L68 117 L69 119 L67 120 Z M317 116 L319 117 L318 121 L315 120 Z M150 117 L152 116 L153 118 L151 119 Z M359 115 L360 117 L357 119 L356 117 Z M278 116 L281 115 L282 117 L279 118 Z M370 114 L372 113 L373 115 L371 116 Z M323 113 L324 112 L328 113 L329 116 L326 117 Z M281 113 L283 112 L284 115 L282 116 Z M342 112 L344 111 L345 113 L343 114 Z M245 114 L241 119 L238 118 L237 119 L238 121 L235 122 L234 125 L230 124 L229 126 L227 125 L229 120 L223 118 L223 116 L226 113 L230 112 L233 113 L235 111 Z M349 109 L353 113 L352 116 L348 113 Z M221 110 L223 109 L224 112 L222 113 Z M156 109 L157 111 L154 113 L153 111 Z M121 114 L123 112 L130 113 L131 111 L135 109 L136 113 L142 112 L145 114 L145 116 L148 117 L148 119 L146 120 L146 124 L142 128 L137 128 L136 124 L129 123 L128 121 L124 120 L121 117 Z M334 108 L336 107 L337 109 L335 110 Z M328 107 L330 106 L332 109 L330 110 Z M251 106 L254 107 L257 112 L254 122 L251 123 L250 127 L247 127 L247 129 L251 131 L252 134 L249 139 L242 140 L241 137 L245 136 L245 131 L241 130 L240 122 L244 121 L246 116 L248 115 L252 116 L252 114 L249 112 L249 107 Z M231 106 L232 109 L229 112 L228 110 L229 107 Z M393 106 L395 105 L396 107 L394 108 Z M257 106 L260 105 L261 107 L258 108 Z M222 106 L224 105 L225 107 L223 108 Z M137 107 L142 105 L143 109 L138 110 Z M284 104 L287 105 L286 110 L284 109 L283 106 Z M177 105 L179 104 L180 107 L178 108 Z M161 105 L164 104 L166 109 L162 110 Z M155 105 L158 104 L159 106 L156 107 Z M336 104 L340 103 L341 107 L337 108 Z M64 103 L66 102 L68 105 L65 107 Z M250 102 L256 101 L257 103 L251 104 Z M69 104 L75 101 L78 106 L82 107 L86 106 L87 110 L85 112 L75 113 L76 117 L73 118 L72 117 L73 110 L69 107 Z M131 101 L134 100 L137 106 L135 107 Z M242 100 L245 99 L247 104 L245 105 L242 102 Z M52 99 L57 104 L58 107 L54 109 L53 115 L48 117 L47 113 L50 111 L49 107 L51 105 L46 104 L45 101 Z M343 98 L345 99 L344 103 L341 101 Z M261 98 L264 99 L263 104 L260 103 Z M220 99 L222 98 L223 100 L221 101 Z M248 96 L250 95 L251 98 L249 99 Z M169 96 L171 95 L172 98 L170 99 Z M42 96 L44 95 L45 98 L43 99 Z M255 95 L258 94 L259 96 L256 97 Z M336 94 L338 93 L339 95 L337 96 Z M331 93 L334 95 L333 100 L331 99 L330 95 Z M236 94 L239 93 L242 97 L238 98 Z M183 93 L184 96 L178 99 L176 102 L177 104 L176 106 L171 103 L173 100 L172 98 L175 95 Z M105 94 L107 100 L115 103 L115 109 L111 110 L111 113 L107 115 L110 121 L115 122 L115 126 L114 127 L100 126 L98 128 L96 125 L95 126 L96 129 L94 130 L91 125 L88 125 L88 127 L90 128 L90 131 L88 132 L85 126 L82 125 L85 119 L79 118 L78 115 L85 112 L87 113 L90 111 L96 110 L95 102 L93 104 L89 104 L85 102 L85 99 L81 99 L80 97 L82 95 L88 94 L89 97 L92 98 L95 92 L99 95 Z M175 90 L177 89 L178 92 L176 93 Z M413 89 L415 88 L416 90 L414 91 Z M124 92 L126 88 L129 89 L126 93 Z M403 88 L405 87 L406 90 L404 91 Z M85 88 L88 87 L89 89 L86 90 Z M66 86 L68 85 L69 87 L67 88 Z M255 85 L257 84 L258 86 L256 87 Z M230 85 L233 84 L234 86 L231 87 Z M238 83 L241 85 L242 88 L244 88 L248 92 L245 97 L242 96 L240 91 L234 90 L235 86 Z M430 83 L432 82 L433 84 L431 85 Z M344 83 L346 82 L347 84 L345 85 Z M422 82 L421 86 L418 87 L414 86 L415 84 L418 84 L420 81 Z M265 82 L267 81 L268 84 L266 85 Z M192 79 L194 80 L195 83 L194 85 L191 82 Z M423 78 L425 77 L426 79 L424 80 Z M333 77 L330 81 L326 80 L330 76 Z M322 77 L324 76 L325 78 L323 79 Z M335 76 L337 75 L338 77 L336 78 Z M233 76 L237 75 L239 79 L236 81 Z M356 78 L355 82 L345 79 L341 83 L342 85 L345 86 L343 90 L340 89 L335 91 L332 90 L335 82 L339 80 L340 77 L343 76 L344 74 L350 75 L351 77 Z M403 74 L405 73 L406 75 L404 76 Z M266 72 L265 75 L261 76 L259 75 L260 72 L264 71 Z M229 72 L231 71 L232 73 L230 74 Z M225 72 L228 71 L229 73 L226 74 Z M406 69 L409 69 L411 72 L416 73 L414 81 L412 80 L411 75 L406 73 L405 71 Z M340 68 L342 67 L343 69 L341 70 Z M231 68 L233 67 L234 70 L232 71 Z M263 67 L265 66 L266 68 L264 69 Z M373 66 L375 65 L377 68 L375 69 Z M93 64 L95 63 L96 65 L94 66 Z M202 63 L204 62 L205 64 L203 65 Z M337 58 L338 59 L337 66 L335 68 L329 69 L328 67 L330 66 L331 61 Z M422 59 L423 56 L426 57 L424 60 Z M407 62 L410 61 L411 63 L413 63 L414 60 L411 56 L415 55 L416 58 L420 60 L420 62 L423 62 L425 64 L425 69 L421 70 L417 67 L415 70 L410 69 L409 64 Z M89 54 L92 53 L94 57 L93 58 L90 57 Z M420 53 L422 52 L424 55 L421 56 Z M232 49 L233 53 L229 55 L229 57 L234 59 L232 67 L221 70 L221 72 L225 73 L222 80 L225 82 L224 94 L222 95 L218 90 L209 91 L211 93 L209 97 L211 98 L212 106 L218 102 L222 104 L218 108 L218 116 L220 122 L224 121 L225 123 L217 127 L217 119 L211 115 L215 111 L212 111 L209 105 L207 105 L209 121 L202 124 L206 129 L200 130 L199 135 L195 134 L201 143 L193 142 L190 138 L183 140 L185 143 L183 147 L186 151 L186 156 L184 157 L181 150 L178 150 L176 146 L171 147 L170 142 L174 139 L178 144 L178 129 L183 130 L184 134 L188 134 L190 130 L193 132 L196 128 L191 130 L188 127 L186 129 L186 122 L180 123 L181 128 L175 127 L173 122 L166 118 L170 129 L173 128 L174 130 L171 137 L163 137 L160 135 L165 132 L160 123 L163 117 L159 118 L157 114 L167 115 L177 110 L183 116 L183 110 L186 107 L189 107 L192 113 L198 109 L202 110 L204 102 L198 103 L196 106 L190 106 L183 101 L183 98 L186 97 L185 85 L187 82 L190 83 L190 92 L193 91 L193 87 L198 87 L201 91 L201 86 L197 85 L199 80 L194 78 L194 73 L196 72 L198 77 L199 71 L209 75 L216 69 L216 65 L210 64 L208 66 L206 63 L208 58 L215 58 L217 55 L222 57 L220 53 L223 50 L229 52 Z M48 49 L48 51 L44 52 L43 55 L38 54 L42 49 L45 48 Z M220 48 L222 47 L223 50 L221 51 Z M431 46 L434 45 L435 47 L432 48 Z M99 46 L101 45 L102 47 L100 48 Z M316 47 L321 46 L322 43 L324 44 L323 51 L317 49 Z M257 42 L258 45 L257 51 L255 54 L255 59 L251 63 L251 66 L253 66 L257 70 L252 73 L254 76 L253 79 L248 77 L248 81 L250 82 L251 85 L254 86 L254 89 L250 91 L247 86 L242 86 L240 81 L242 77 L248 74 L249 68 L246 68 L245 64 L243 63 L247 59 L247 57 L243 58 L242 56 L240 56 L238 58 L241 64 L236 68 L234 50 L236 49 L239 52 L246 52 L244 48 L247 45 L254 46 L255 43 Z M393 42 L396 41 L397 44 L394 45 Z M52 41 L54 42 L56 47 L55 52 L53 54 L50 53 L51 50 L50 46 Z M343 41 L347 40 L348 42 L344 43 Z M277 40 L279 44 L276 54 L279 54 L280 56 L277 63 L274 65 L273 63 L275 61 L275 58 L273 52 L271 52 L272 55 L270 57 L273 60 L267 62 L266 59 L261 57 L260 53 L262 51 L260 50 L260 48 L263 45 L267 45 L269 49 L271 45 L274 43 L274 41 Z M399 36 L401 37 L400 41 L398 40 Z M388 37 L391 36 L394 40 L390 41 Z M56 34 L58 35 L59 39 L58 41 L55 40 Z M366 32 L368 31 L369 33 L367 34 Z M265 28 L268 30 L268 32 L265 33 L265 38 L268 38 L269 41 L264 43 L263 45 L260 45 L259 43 L262 42 L262 37 L259 36 L259 33 Z M54 28 L56 27 L57 29 L55 30 Z M61 25 L63 26 L62 31 L59 30 Z M361 25 L363 24 L364 26 L362 27 Z M339 25 L341 24 L342 27 L340 28 Z M387 24 L389 23 L390 25 L388 26 Z M86 19 L89 18 L90 21 L87 22 Z M36 20 L43 18 L46 20 L49 20 L50 18 L52 18 L53 22 L55 23 L55 27 L52 29 L52 31 L55 33 L55 35 L53 36 L52 34 L47 34 L45 32 L47 28 L42 26 L41 23 L37 23 Z M358 17 L360 16 L361 18 L359 19 Z M386 15 L387 23 L384 26 L389 29 L387 32 L389 35 L386 37 L384 45 L386 46 L389 42 L394 52 L396 52 L397 44 L404 45 L405 47 L400 52 L403 60 L400 64 L407 67 L397 71 L403 74 L398 78 L391 78 L391 82 L387 83 L387 86 L398 87 L399 93 L396 94 L395 99 L384 98 L383 93 L381 93 L380 101 L385 107 L390 109 L387 112 L381 110 L378 114 L376 111 L374 113 L369 111 L371 104 L368 103 L362 104 L363 109 L356 108 L357 100 L353 97 L347 99 L344 92 L347 91 L351 94 L354 84 L366 79 L366 77 L362 76 L364 71 L362 68 L359 72 L359 78 L356 77 L355 73 L349 74 L359 62 L367 65 L369 72 L371 70 L378 72 L381 67 L378 68 L377 66 L381 61 L393 62 L390 56 L386 59 L382 51 L372 53 L378 46 L377 39 L383 40 L378 35 L384 33 L376 33 L373 28 L368 30 L367 23 L364 21 L365 17 L368 19 L378 16 L383 18 Z M13 13 L13 15 L16 15 L16 13 Z"/></svg>
