<svg xmlns="http://www.w3.org/2000/svg" width="512" height="512" viewBox="0 0 512 512" aria-hidden="true" focusable="false"><path fill="currentColor" fill-rule="evenodd" clip-rule="evenodd" d="M420 17 L396 27 L380 53 L317 55 L296 62 L282 73 L275 71 L252 80 L224 102 L212 129 L209 123 L213 106 L197 116 L164 151 L147 181 L134 220 L131 258 L116 240 L126 221 L120 205 L121 185 L111 192 L106 202 L109 218 L90 242 L97 263 L83 275 L78 297 L71 306 L70 338 L81 362 L108 378 L115 389 L111 403 L104 408 L90 396 L70 396 L60 404 L55 418 L73 416 L96 446 L118 456 L139 452 L152 431 L171 428 L153 444 L157 466 L190 490 L228 496 L250 488 L282 490 L306 485 L347 464 L389 451 L426 423 L445 392 L458 391 L448 379 L424 379 L423 341 L414 328 L397 318 L402 296 L389 281 L389 295 L370 319 L370 331 L377 343 L363 348 L355 362 L362 379 L373 380 L379 375 L378 385 L363 399 L345 405 L306 399 L281 374 L278 351 L285 339 L295 335 L287 346 L289 362 L302 371 L315 371 L333 358 L338 332 L333 320 L318 306 L294 300 L295 288 L286 271 L303 258 L303 229 L289 241 L252 250 L237 271 L237 253 L222 261 L219 258 L221 231 L237 199 L262 176 L295 163 L326 163 L343 171 L327 179 L313 199 L317 222 L328 235 L344 242 L363 242 L391 225 L401 205 L402 180 L391 155 L371 134 L384 123 L403 85 L383 82 L397 77 L406 65 L409 34 Z M169 459 L171 458 L174 463 L184 469 L200 469 L212 462 L221 473 L221 475 L223 475 L230 481 L234 482 L235 484 L239 485 L240 487 L234 488 L232 490 L219 491 L209 490 L207 488 L193 485 L184 479 L182 479 L175 472 Z M272 443 L275 442 L278 444 L278 446 L274 447 Z M269 415 L271 414 L274 417 L281 420 L282 422 L292 425 L296 428 L309 431 L311 433 L333 437 L350 437 L351 439 L350 440 L326 440 L319 439 L318 437 L301 434 L299 432 L291 430 L275 422 L269 417 Z M65 407 L72 401 L90 402 L90 416 L103 429 L119 429 L148 408 L173 403 L193 411 L208 429 L219 431 L226 427 L227 445 L232 453 L248 464 L283 473 L319 469 L324 471 L304 480 L264 485 L240 480 L227 473 L214 451 L201 463 L187 464 L177 458 L175 447 L171 447 L162 463 L158 447 L165 437 L178 436 L183 441 L181 447 L189 443 L189 435 L180 425 L151 425 L140 436 L136 447 L115 449 L97 440 L89 432 L81 415 Z M421 381 L423 380 L424 382 L422 383 Z M147 355 L156 364 L156 366 L160 371 L161 379 L145 384 L130 392 L121 391 L120 385 L117 381 L117 376 L125 373 L130 368 L133 363 L133 352 L138 351 Z M391 352 L397 359 L401 373 L399 375 L397 387 L390 398 L370 412 L359 414 L336 412 L336 409 L347 409 L359 406 L372 399 L380 391 L385 383 L386 378 L384 367 L378 363 L375 363 L370 366 L372 374 L366 375 L361 370 L361 359 L371 349 L384 349 Z M253 310 L258 314 L259 318 L256 320 L256 322 L248 333 L246 345 L244 347 L244 362 L246 363 L246 369 L250 382 L254 387 L255 391 L258 393 L260 397 L259 399 L247 387 L247 385 L243 382 L243 380 L238 373 L234 360 L232 358 L231 348 L232 335 L234 333 L233 331 L237 323 L247 312 Z M447 386 L405 435 L359 457 L298 462 L273 456 L261 445 L266 441 L274 451 L282 452 L281 440 L259 437 L256 447 L263 456 L292 468 L262 464 L244 456 L231 441 L231 432 L238 428 L236 422 L226 420 L212 425 L199 409 L184 401 L151 401 L118 424 L102 423 L95 415 L111 411 L119 395 L133 397 L155 386 L171 385 L193 391 L214 405 L238 403 L251 409 L260 424 L265 420 L288 434 L330 445 L375 440 L402 426 L400 423 L368 433 L337 433 L293 420 L270 403 L250 367 L250 344 L255 330 L267 317 L282 315 L290 306 L317 312 L333 335 L328 355 L312 366 L301 365 L292 355 L293 346 L301 341 L307 351 L312 349 L312 339 L304 331 L285 333 L273 348 L272 364 L278 380 L305 405 L337 417 L382 418 L410 405 L429 384 Z M138 301 L140 300 L141 302 L139 303 Z M395 293 L397 302 L391 311 L392 322 L395 325 L405 328 L413 335 L419 346 L421 364 L419 376 L409 394 L398 405 L385 411 L384 409 L401 391 L404 375 L406 374 L401 355 L391 344 L378 335 L375 328 L376 318 L383 309 L390 305 L393 299 L393 294 Z M133 276 L137 287 L133 288 L129 294 L123 295 L120 292 L120 290 L126 286 L131 277 Z M229 263 L231 277 L237 287 L236 294 L231 299 L226 299 L224 294 L222 294 L213 305 L209 320 L210 343 L212 345 L214 355 L217 358 L216 360 L224 375 L222 377 L210 360 L207 351 L204 348 L200 331 L200 306 L203 294 L209 282 L222 267 Z M213 261 L215 267 L202 283 L200 291 L198 292 L195 305 L196 334 L194 335 L192 333 L192 329 L190 325 L189 307 L187 305 L189 302 L190 285 L192 278 L197 268 L201 265 L201 263 L204 260 Z M161 259 L175 261 L172 275 L172 283 L170 285 L170 304 L172 306 L173 319 L176 331 L179 336 L178 338 L175 337 L163 307 L160 289 L160 260 Z M298 242 L300 244 L298 256 L291 264 L283 265 L279 271 L279 275 L289 288 L286 304 L273 312 L263 311 L255 304 L254 297 L260 289 L265 289 L271 294 L271 288 L261 280 L263 276 L261 273 L258 285 L249 294 L249 305 L233 319 L227 334 L227 357 L232 372 L243 390 L266 411 L263 414 L233 385 L221 365 L214 342 L214 317 L221 302 L233 304 L241 296 L241 278 L244 267 L255 255 L267 249 L289 247 Z M177 188 L181 198 L195 216 L191 233 L207 222 L215 243 L212 255 L202 255 L193 264 L185 283 L183 305 L187 334 L202 363 L219 381 L218 383 L201 369 L190 353 L181 333 L175 309 L175 282 L181 256 L187 247 L186 236 L180 230 L168 232 L168 242 L170 242 L172 235 L179 236 L182 242 L180 250 L172 255 L163 254 L156 247 L154 241 L157 223 L163 216 L170 218 L168 203 Z M337 180 L348 180 L354 182 L362 192 L362 200 L358 205 L352 204 L351 200 L345 197 L335 203 L333 208 L333 218 L336 226 L346 234 L345 236 L332 231 L323 222 L320 215 L320 209 L318 207 L318 203 L320 201 L320 196 L322 192 L330 184 Z M362 171 L363 182 L355 178 L344 165 L329 158 L308 156 L286 159 L254 175 L233 195 L216 230 L213 227 L212 214 L201 219 L196 207 L207 188 L229 165 L256 148 L276 141 L314 139 L328 142 L347 152 Z M202 119 L209 151 L202 157 L191 152 L181 161 L176 181 L151 224 L149 243 L156 255 L158 306 L168 332 L190 366 L228 396 L222 400 L211 398 L190 384 L168 380 L157 357 L140 346 L116 343 L107 354 L101 346 L104 336 L124 329 L110 314 L111 292 L104 299 L104 312 L112 325 L100 332 L97 349 L105 358 L115 357 L118 348 L124 349 L128 356 L126 365 L114 372 L93 366 L82 354 L75 333 L76 311 L92 316 L83 290 L90 275 L105 267 L95 244 L99 234 L114 220 L114 199 L120 223 L111 232 L111 243 L127 265 L126 277 L116 286 L115 294 L120 300 L133 299 L130 310 L134 317 L144 309 L169 355 L204 386 L173 352 L158 328 L141 287 L137 258 L140 219 L152 183 L175 146 Z M379 83 L382 82 L383 84 L380 85 Z M397 187 L395 207 L386 222 L372 231 L355 232 L341 224 L338 211 L343 203 L352 210 L364 207 L369 191 L368 174 L352 150 L328 137 L287 134 L248 146 L209 177 L193 202 L184 191 L183 170 L192 157 L204 162 L213 156 L219 121 L239 95 L273 77 L278 93 L286 76 L295 68 L336 59 L328 72 L321 99 L303 100 L300 90 L310 84 L300 83 L293 95 L264 102 L247 113 L232 132 L226 149 L279 124 L338 125 L361 135 L383 153 Z M405 30 L399 66 L390 74 L374 78 L370 83 L369 94 L380 90 L392 91 L383 113 L371 128 L363 130 L351 124 L361 114 L362 107 L355 109 L347 104 L347 95 L353 89 L361 87 L350 85 L341 95 L341 104 L353 114 L346 120 L289 117 L258 125 L237 135 L254 114 L278 102 L296 100 L304 107 L320 106 L328 99 L333 75 L341 66 L349 61 L381 59 L387 56 L392 50 L393 39 L400 31 Z"/></svg>
