<svg xmlns="http://www.w3.org/2000/svg" width="512" height="512" viewBox="0 0 512 512" aria-hidden="true" focusable="false"><path fill="currentColor" fill-rule="evenodd" clip-rule="evenodd" d="M17 268 L19 299 L32 317 L46 328 L64 332 L210 332 L219 322 L254 331 L294 323 L303 332 L449 332 L475 323 L496 292 L493 250 L481 240 L481 228 L470 231 L476 220 L470 213 L470 202 L462 195 L465 186 L461 180 L455 195 L459 206 L445 218 L442 231 L436 231 L430 251 L431 265 L440 274 L437 286 L448 298 L438 304 L326 304 L324 299 L332 287 L316 282 L315 276 L307 276 L288 292 L285 281 L296 279 L296 261 L279 257 L270 262 L257 247 L243 262 L234 257 L217 261 L215 276 L228 281 L225 292 L206 276 L182 286 L188 304 L75 304 L65 298 L76 286 L73 274 L82 265 L83 251 L77 231 L71 231 L66 215 L54 206 L58 198 L54 180 L37 220 L43 231 L32 228 L32 240 L24 250 L19 249 L21 264 Z M256 324 L259 326 L258 329 L254 328 Z M272 324 L274 323 L276 326 L273 327 Z M65 324 L67 323 L71 329 L69 330 Z M459 323 L464 322 L465 325 L460 327 Z M448 322 L449 323 L448 326 L444 330 L442 330 L441 328 Z M298 323 L300 322 L301 324 L299 325 Z M212 323 L215 322 L216 324 L213 325 Z M48 323 L52 322 L54 325 L50 327 Z M447 320 L449 319 L450 321 L448 322 Z M63 320 L65 319 L66 321 L64 322 Z M467 321 L469 316 L476 317 L476 319 L472 322 Z M37 318 L43 315 L47 320 L45 322 L41 322 Z M255 312 L257 312 L260 315 L260 318 L258 320 L255 320 L253 318 L253 315 Z M466 311 L467 315 L463 319 L461 319 L460 314 Z M288 318 L293 313 L301 310 L306 311 L310 316 L310 318 L308 319 L308 326 L304 329 L302 327 L305 324 L305 321 L301 317 L302 316 L305 317 L305 315 L301 314 L300 318 L296 318 L290 321 L288 320 Z M211 310 L215 311 L216 313 L211 314 L212 318 L208 322 L208 324 L211 327 L209 329 L205 325 L205 320 L207 317 L204 317 L203 315 L207 311 Z M249 308 L252 309 L250 320 L248 319 L247 312 Z M310 326 L313 319 L312 314 L319 312 L324 307 L438 307 L445 313 L445 320 L438 327 Z M68 314 L75 307 L189 307 L194 312 L201 314 L200 319 L203 326 L75 327 L69 322 Z M459 308 L462 305 L465 306 L462 310 Z M473 304 L474 305 L473 309 L468 312 L467 311 L468 306 Z M39 305 L40 304 L44 305 L53 315 L53 318 L52 319 L49 318 L46 315 L46 312 L40 309 Z M300 306 L304 303 L306 304 L305 308 L301 308 Z M207 304 L209 303 L213 307 L208 308 Z M47 304 L49 303 L52 305 L54 309 L51 310 Z M256 299 L260 302 L261 308 L264 307 L266 310 L266 316 L264 320 L262 319 L262 315 L260 311 L257 308 L254 309 L252 307 L252 304 Z M488 298 L489 300 L485 305 L485 308 L480 313 L475 314 L474 311 L479 303 L484 298 Z M301 298 L302 300 L297 304 L296 302 Z M24 299 L29 298 L36 305 L39 313 L38 314 L33 313 L30 310 L32 306 L28 305 Z M258 296 L260 295 L261 297 L259 298 Z M252 296 L254 295 L255 297 L253 298 Z M267 294 L268 302 L265 305 L264 296 Z M246 294 L249 296 L248 305 L245 303 Z M305 294 L310 292 L318 294 L322 300 L321 306 L317 310 L315 310 L314 308 L317 305 L317 300 L312 296 L306 297 L303 299 L302 297 Z M255 293 L257 292 L258 294 L256 295 Z M191 300 L197 293 L203 292 L212 297 L217 303 L215 304 L207 297 L201 296 L196 300 L197 307 L201 309 L199 311 L196 310 L192 306 Z M54 293 L56 292 L57 294 L55 295 Z M474 291 L475 292 L474 298 L469 303 L466 303 L465 301 L470 296 L471 292 Z M456 292 L458 291 L459 294 L457 295 Z M481 290 L482 294 L480 298 L478 299 L477 298 L478 291 Z M39 290 L45 296 L47 301 L46 303 L42 302 L38 296 Z M32 290 L35 291 L36 296 L35 299 L32 296 L31 293 Z M451 289 L453 290 L453 294 L457 296 L456 298 L452 298 L450 296 L449 292 Z M243 287 L245 291 L240 296 L239 291 L240 288 Z M270 286 L273 288 L274 291 L273 298 L271 297 L271 294 L269 292 Z M300 292 L303 288 L314 284 L320 285 L328 290 L324 296 L317 290 L307 290 L302 293 Z M185 290 L193 285 L200 284 L210 288 L213 292 L211 293 L207 290 L197 290 L189 296 Z M463 283 L465 285 L466 296 L461 302 L459 302 L458 300 L461 298 L462 293 L459 290 L458 286 L461 283 Z M50 283 L52 283 L55 286 L55 289 L52 291 L52 298 L55 300 L54 302 L52 302 L48 298 L46 293 L48 290 L48 285 Z M256 282 L262 288 L263 291 L262 293 L257 288 L252 293 L250 292 L251 288 Z M239 283 L241 282 L242 284 L240 285 Z M72 283 L73 286 L70 289 L62 287 L64 291 L64 295 L61 298 L58 298 L57 296 L60 294 L60 290 L57 288 L57 284 L59 282 Z M485 281 L490 281 L495 286 L495 289 L491 294 L486 293 L487 289 L489 290 L491 289 L489 287 L482 286 L482 284 Z M456 284 L455 289 L453 289 L452 287 L443 289 L440 286 L441 283 L450 281 Z M272 282 L271 284 L268 284 L266 287 L264 286 L266 282 L268 281 Z M242 282 L245 281 L248 284 L246 285 L243 284 Z M22 281 L28 281 L31 283 L32 287 L31 289 L28 287 L24 287 L22 289 L27 290 L26 294 L21 294 L18 290 L19 284 Z M478 279 L479 282 L478 286 L476 287 L475 283 L476 280 Z M312 279 L311 281 L303 284 L300 287 L297 286 L299 283 L309 278 Z M201 279 L202 278 L207 279 L214 283 L216 286 L213 287 L210 284 L202 281 Z M35 276 L38 279 L38 284 L40 288 L39 290 L36 288 L34 284 Z M218 276 L220 275 L221 277 L219 278 Z M483 272 L485 273 L486 277 L485 279 L481 277 L481 274 Z M471 273 L473 272 L474 274 L472 275 Z M283 273 L285 272 L286 274 L284 275 Z M278 273 L280 272 L281 274 L279 275 Z M227 273 L229 272 L230 274 L228 275 Z M449 271 L452 270 L453 272 L450 273 Z M256 270 L259 273 L260 276 L259 278 L254 276 L254 273 Z M67 270 L64 273 L60 272 L61 270 L65 269 Z M55 269 L57 268 L58 270 L56 271 Z M490 267 L492 267 L495 271 L495 274 L493 277 L487 276 L488 271 L490 273 L492 272 L489 270 Z M21 267 L24 268 L22 271 L27 273 L27 275 L23 278 L20 277 L18 274 L18 271 Z M279 270 L282 267 L287 265 L291 266 L295 271 L293 272 L290 269 L285 269 L280 272 Z M233 269 L232 271 L229 269 L224 269 L221 271 L219 275 L217 274 L218 270 L221 267 L226 265 Z M260 264 L262 263 L265 268 L263 269 Z M252 263 L253 265 L249 269 L248 267 Z M37 263 L38 264 L37 272 L35 273 L34 266 Z M454 263 L456 262 L458 265 L456 266 Z M58 262 L59 264 L56 266 L55 264 Z M264 261 L266 260 L267 262 L265 263 Z M249 259 L250 261 L247 263 L246 261 Z M440 276 L441 275 L455 275 L460 271 L461 265 L458 261 L454 260 L455 258 L461 259 L467 265 L469 271 L469 279 L467 281 L463 280 L456 281 L453 279 L441 280 Z M292 261 L291 263 L282 264 L277 269 L276 272 L277 279 L276 280 L266 279 L263 282 L261 281 L261 278 L265 271 L268 273 L269 276 L271 276 L270 268 L277 260 L286 258 Z M220 261 L227 258 L236 260 L243 268 L242 276 L244 276 L245 271 L247 270 L252 278 L252 282 L250 283 L246 279 L240 279 L237 281 L236 280 L237 273 L235 268 L229 263 L221 263 Z M46 265 L52 259 L58 258 L59 260 L55 261 L52 265 L53 271 L58 275 L72 275 L73 279 L72 280 L59 279 L57 281 L53 280 L46 281 L44 279 L44 270 Z M253 260 L257 257 L260 261 L254 262 Z M474 255 L476 254 L478 258 L475 259 Z M454 255 L458 254 L459 256 L455 257 Z M447 254 L448 256 L445 260 L445 265 L443 266 L440 263 L440 259 L443 255 Z M55 255 L57 254 L58 256 L56 257 Z M37 254 L39 255 L38 259 L35 258 Z M489 252 L490 262 L484 265 L481 270 L477 271 L475 265 L476 264 L480 265 L481 259 Z M24 252 L28 253 L31 256 L33 261 L33 264 L31 266 L23 262 Z M252 255 L257 250 L261 256 L259 257 L256 255 L253 257 Z M459 251 L465 248 L471 252 L472 257 L469 259 L465 255 L461 254 Z M447 254 L447 251 L450 248 L455 248 L458 251 L457 253 L453 253 L450 255 Z M57 248 L63 248 L67 254 L73 258 L73 263 L71 266 L68 265 L68 260 L64 255 L55 252 Z M53 251 L52 254 L48 255 L44 259 L41 258 L41 254 L44 250 L49 248 Z M483 244 L485 246 L485 250 L480 255 L477 252 L477 249 L480 247 L481 244 Z M32 243 L35 244 L34 247 L36 248 L36 252 L34 254 L32 254 L28 250 L28 246 Z M437 242 L440 245 L443 245 L445 247 L444 252 L442 253 L441 250 L439 250 L436 256 L436 262 L438 266 L442 269 L441 271 L439 271 L435 267 L432 260 L433 250 Z M76 242 L80 250 L81 260 L78 267 L74 271 L72 271 L71 269 L76 265 L77 256 L74 250 L72 250 L72 252 L70 253 L68 250 L68 247 L70 245 L73 245 Z M438 240 L440 239 L441 241 L439 242 Z M72 240 L74 239 L75 241 L73 242 Z M476 233 L478 236 L477 245 L472 249 L470 247 L470 240 L471 237 Z M37 233 L40 234 L43 240 L43 247 L41 249 L36 245 L35 235 Z M450 232 L452 233 L452 238 L456 243 L455 246 L449 240 L448 235 Z M456 229 L458 230 L458 234 L461 237 L464 237 L467 235 L469 236 L466 244 L462 244 L456 240 L454 236 Z M57 229 L59 233 L57 240 L51 244 L46 244 L44 236 L46 235 L49 237 L52 237 L55 234 L55 230 Z M466 227 L468 228 L467 232 L465 231 Z M45 228 L47 227 L48 230 L46 231 Z M61 225 L62 228 L64 229 L65 236 L62 243 L58 246 L57 243 L61 238 L61 231 L59 228 L59 226 Z M457 218 L463 215 L467 215 L472 218 L473 223 L469 225 L466 221 L458 220 Z M40 223 L41 218 L46 215 L53 216 L57 219 L56 221 L50 220 L46 222 L44 225 Z M460 197 L469 205 L469 208 L466 212 L460 213 L453 217 L452 215 L462 207 L462 203 L458 199 Z M53 196 L55 197 L55 199 L51 203 L51 207 L61 215 L60 217 L53 213 L47 212 L44 208 L45 203 L50 200 Z"/></svg>
