<svg xmlns="http://www.w3.org/2000/svg" width="512" height="512" viewBox="0 0 512 512" aria-hidden="true" focusable="false"><path fill="currentColor" fill-rule="evenodd" clip-rule="evenodd" d="M247 326 L245 326 L233 335 L221 336 L221 338 L234 337 L244 331 L247 328 Z M259 307 L257 307 L251 320 L253 320 Z M220 279 L220 284 L224 284 L225 281 Z M274 230 L262 234 L251 234 L244 231 L241 231 L241 233 L249 236 L264 236 L274 232 Z M244 222 L244 224 L253 227 L261 227 L270 224 L270 222 L264 224 L255 225 Z M231 169 L231 171 L236 172 L239 176 L250 175 L249 171 L240 171 L236 169 Z M232 160 L231 163 L238 161 L244 162 L243 164 L237 165 L237 167 L240 166 L246 167 L246 165 L248 164 L252 168 L253 185 L249 186 L249 191 L253 192 L254 194 L245 195 L245 197 L248 198 L253 205 L261 205 L263 203 L263 200 L268 198 L268 195 L260 194 L261 192 L265 190 L264 185 L261 184 L261 176 L262 175 L275 176 L276 173 L282 171 L282 169 L277 168 L277 165 L270 164 L268 165 L268 167 L274 166 L277 169 L274 171 L265 171 L262 173 L261 170 L263 166 L270 161 L276 161 L281 164 L283 164 L283 162 L280 159 L271 157 L266 159 L261 164 L259 168 L259 187 L260 189 L256 191 L251 188 L252 186 L255 186 L255 169 L253 164 L248 159 L242 157 Z M244 163 L246 162 L247 164 L245 165 Z M256 152 L254 156 L254 161 L259 162 L260 156 L258 152 Z M256 17 L250 43 L198 128 L188 164 L188 180 L204 208 L204 217 L192 229 L184 226 L185 215 L180 217 L181 229 L193 234 L176 251 L165 316 L166 338 L185 358 L174 357 L159 343 L147 315 L148 301 L159 297 L153 277 L154 251 L167 249 L164 233 L177 196 L191 214 L188 223 L194 220 L190 204 L173 186 L173 203 L161 230 L164 248 L158 246 L157 239 L154 241 L150 265 L142 272 L136 294 L141 325 L172 359 L142 365 L128 375 L124 384 L128 404 L117 407 L131 442 L113 454 L134 464 L136 472 L171 475 L171 480 L206 480 L207 484 L237 482 L258 496 L276 482 L307 484 L378 472 L377 466 L400 452 L382 442 L397 407 L385 404 L389 394 L386 376 L374 366 L343 358 L365 337 L378 300 L372 273 L363 264 L362 246 L357 240 L352 249 L349 247 L353 232 L341 205 L341 186 L325 202 L319 218 L326 223 L323 213 L336 197 L349 231 L346 248 L349 252 L359 250 L361 274 L354 295 L358 301 L365 301 L366 317 L355 342 L340 356 L332 356 L348 336 L340 259 L333 243 L321 234 L333 228 L335 221 L329 216 L331 224 L318 228 L309 214 L325 182 L325 161 L319 153 L316 129 L264 44 L265 35 Z M240 479 L243 477 L245 480 L253 484 L256 487 L258 487 L259 484 L264 483 L270 478 L272 478 L273 481 L268 486 L258 491 L255 491 L243 484 Z M256 464 L262 465 L269 474 L269 476 L264 481 L259 483 L258 485 L248 480 L245 477 L247 470 L252 465 Z M266 465 L271 463 L289 464 L295 469 L301 480 L294 482 L282 481 L275 477 Z M247 465 L244 471 L232 481 L219 482 L213 480 L217 471 L225 464 L243 463 Z M294 462 L307 460 L324 461 L333 469 L336 476 L321 480 L312 479 L304 475 L294 464 Z M177 476 L183 466 L190 461 L207 460 L221 462 L210 475 L201 479 L193 480 Z M328 459 L331 456 L341 456 L353 454 L364 458 L371 465 L372 468 L352 474 L345 473 L338 470 Z M142 468 L142 466 L147 460 L161 454 L172 456 L183 456 L186 459 L177 469 L169 473 L161 474 Z M361 453 L362 450 L369 449 L378 445 L386 446 L394 451 L387 458 L377 463 L373 463 L369 458 Z M119 451 L125 447 L135 445 L148 450 L152 450 L153 453 L147 456 L141 462 L137 463 L131 461 L121 454 Z M256 430 L270 444 L269 455 L264 460 L259 462 L246 460 L245 459 L246 456 L243 450 L245 442 Z M276 424 L279 425 L286 441 L285 450 L282 454 L280 453 L282 448 L282 441 L280 436 L274 428 Z M237 424 L240 426 L240 428 L232 440 L232 449 L234 453 L232 455 L228 448 L228 439 L234 426 Z M312 424 L315 423 L316 425 L313 426 Z M198 424 L200 423 L201 426 L199 427 Z M307 420 L309 422 L311 429 L311 439 L307 449 L296 458 L289 460 L283 460 L282 458 L286 454 L289 447 L289 441 L285 430 L295 423 Z M206 420 L219 423 L228 429 L228 433 L225 439 L225 448 L227 453 L231 457 L230 460 L218 458 L214 456 L206 448 L203 441 L203 428 Z M164 421 L166 420 L167 422 L165 423 Z M343 417 L345 426 L345 435 L340 446 L335 451 L325 456 L306 457 L305 455 L312 446 L314 440 L314 433 L316 429 L320 425 L329 420 Z M171 417 L187 421 L197 428 L200 433 L200 441 L202 447 L208 455 L207 457 L194 457 L186 455 L180 452 L173 445 L169 436 L169 424 Z M256 416 L258 416 L273 431 L278 439 L279 447 L276 454 L273 457 L271 456 L273 450 L272 443 L268 437 L260 430 L258 426 L256 426 L244 439 L241 446 L241 452 L243 456 L241 457 L236 451 L235 443 L238 435 Z M311 416 L312 415 L325 416 L326 418 L323 420 L312 420 Z M143 414 L153 417 L163 425 L166 430 L167 440 L173 449 L172 452 L157 450 L146 442 L141 432 L141 420 Z M370 413 L373 422 L373 431 L369 440 L359 449 L353 451 L341 452 L340 450 L345 444 L348 436 L349 427 L357 419 Z M155 414 L157 413 L158 415 L156 416 Z M251 413 L252 410 L255 411 L253 414 Z M389 409 L390 412 L385 432 L379 440 L372 444 L371 442 L375 435 L376 430 L376 419 L382 412 Z M125 409 L134 414 L138 419 L138 432 L143 442 L142 444 L137 442 L129 433 L124 413 Z M253 405 L262 402 L268 402 L278 415 L291 419 L292 421 L291 422 L282 422 L281 420 L277 420 L274 422 L268 421 L261 415 L258 410 L254 409 Z M271 401 L275 398 L282 396 L283 400 L290 407 L292 407 L293 409 L299 412 L309 414 L310 416 L299 419 L288 417 L280 413 L272 405 Z M241 373 L244 372 L245 374 L242 375 Z M330 372 L329 375 L314 379 L282 393 L249 403 L246 402 L252 383 L265 382 L270 376 L275 374 L289 375 L310 370 L316 370 L321 373 L326 371 Z M127 383 L134 373 L143 368 L193 361 L221 375 L188 370 L163 370 L150 376 L186 373 L227 380 L220 397 L211 405 L196 411 L197 413 L216 405 L224 396 L230 381 L247 382 L244 398 L230 416 L247 406 L249 418 L232 422 L213 418 L225 410 L236 392 L222 410 L201 420 L188 419 L186 415 L191 412 L160 412 L144 404 L150 410 L148 412 L138 409 L131 402 Z M304 364 L303 366 L291 371 L274 371 L267 375 L261 376 L247 376 L246 375 L247 373 L254 373 L262 371 L276 364 L276 362 L262 362 L261 360 L277 355 L292 357 L294 355 L298 357 Z M295 351 L303 349 L317 359 L327 358 L375 370 L386 382 L387 392 L384 400 L375 409 L354 416 L349 414 L363 408 L372 396 L360 407 L341 413 L313 413 L295 407 L283 396 L338 374 L362 374 L352 370 L338 371 L330 367 L313 367 Z M268 308 L270 309 L270 322 L274 324 L273 326 L267 325 L267 309 Z M308 287 L311 294 L317 327 L305 337 L301 325 L300 309 L306 288 Z M269 286 L271 287 L270 295 L268 294 Z M206 286 L208 287 L208 291 L211 297 L214 312 L212 329 L208 338 L196 327 L204 288 Z M147 275 L154 285 L156 294 L154 298 L151 296 L151 294 L148 294 L144 305 L145 319 L143 320 L139 307 L139 296 L142 286 L145 285 L144 276 Z M367 274 L369 275 L369 285 L372 287 L374 294 L374 309 L371 318 L369 317 L369 303 L366 295 L363 294 L361 298 L358 297 L358 288 Z M271 251 L272 253 L270 260 L260 280 L251 292 L251 294 L242 303 L230 309 L218 309 L216 306 L214 295 L215 294 L219 295 L230 294 L244 286 L254 275 L268 253 Z M325 240 L336 258 L345 316 L345 335 L333 350 L319 357 L302 346 L321 328 L335 327 L320 324 L311 282 L316 255 L298 301 L297 322 L302 341 L288 353 L254 356 L223 353 L211 342 L217 312 L241 306 L264 277 L264 331 L270 335 L276 328 L279 340 L283 340 L285 345 L292 342 L292 335 L282 333 L280 325 L288 322 L291 332 L293 276 L303 235 L307 232 Z M291 226 L298 228 L299 230 L291 254 L287 273 L285 316 L273 316 L272 304 L275 270 L287 228 Z M274 211 L280 230 L251 273 L235 288 L228 291 L213 289 L198 258 L203 281 L192 325 L178 327 L194 329 L219 357 L252 358 L252 361 L236 364 L255 368 L234 369 L230 373 L216 369 L182 351 L168 334 L179 254 L190 239 L234 224 L240 211 L255 217 Z M286 211 L288 210 L289 212 L287 213 Z M225 209 L228 208 L229 211 L226 213 Z M284 205 L287 204 L288 206 L285 207 Z M287 189 L290 190 L288 194 L286 193 Z M224 190 L226 189 L228 193 L226 194 Z M223 183 L226 184 L225 189 L223 188 L222 185 Z M295 165 L297 166 L296 170 L294 169 Z M218 165 L220 166 L219 171 L217 170 Z M288 158 L290 157 L291 160 L289 161 Z M222 158 L225 157 L226 160 L224 161 Z M240 143 L256 147 L269 143 L276 144 L284 151 L286 179 L282 194 L270 209 L261 213 L252 213 L241 207 L231 192 L227 174 L228 157 L232 148 Z M278 139 L281 138 L282 140 L279 141 Z M225 138 L228 137 L229 139 L226 140 Z M285 137 L287 136 L288 139 L286 140 Z M270 137 L274 136 L275 139 L271 140 Z M233 133 L235 132 L236 134 L234 135 Z M270 131 L272 130 L273 132 L271 133 Z M270 125 L272 124 L273 126 L271 127 Z M262 124 L264 123 L265 125 L263 126 Z M268 118 L270 117 L271 120 L269 121 Z M262 118 L264 117 L265 119 L263 120 Z M249 118 L251 117 L252 119 L250 120 Z M262 111 L266 110 L268 113 L266 114 L263 113 Z M249 111 L251 110 L252 113 L250 114 Z M255 104 L258 103 L259 105 L256 106 Z M263 99 L265 98 L266 100 L264 101 Z M246 96 L248 95 L251 100 L249 101 Z M265 94 L267 93 L268 95 L266 96 Z M255 92 L258 91 L259 94 L256 95 Z M250 80 L252 79 L253 81 L251 82 Z M260 78 L262 77 L263 79 L261 80 Z M255 67 L257 66 L259 69 L256 70 Z M257 28 L261 45 L287 87 L288 103 L296 100 L301 113 L300 125 L307 120 L315 137 L313 165 L321 162 L323 171 L320 185 L306 207 L306 218 L312 229 L283 222 L279 217 L279 205 L284 216 L292 216 L291 199 L300 171 L297 141 L280 122 L269 102 L271 93 L257 54 L245 82 L245 102 L238 109 L234 122 L217 140 L214 172 L222 195 L221 214 L228 217 L235 206 L235 216 L229 223 L201 231 L208 217 L208 208 L191 177 L192 163 L201 165 L198 139 L206 121 L214 125 L213 111 L218 100 L226 103 L228 84 L251 48 Z"/></svg>
