<svg xmlns="http://www.w3.org/2000/svg" width="512" height="512" viewBox="0 0 512 512" aria-hidden="true" focusable="false"><path fill="currentColor" fill-rule="evenodd" clip-rule="evenodd" d="M123 420 L123 421 L132 421 L132 420 Z M259 350 L257 354 L258 358 L261 357 Z M170 328 L171 330 L175 331 L176 330 L174 328 Z M353 327 L350 327 L347 329 L349 330 L352 329 Z M255 219 L255 221 L259 222 L267 221 L267 219 L263 219 L262 217 Z M375 183 L373 187 L373 193 L375 199 L377 199 L375 193 L376 186 Z M387 180 L388 182 L394 181 L393 179 Z M262 139 L260 139 L258 145 L259 150 L263 149 Z M262 17 L251 62 L245 68 L248 77 L242 83 L237 81 L236 104 L227 111 L223 127 L211 115 L225 191 L220 192 L210 181 L208 202 L214 211 L190 219 L192 224 L172 246 L157 287 L142 268 L133 243 L143 222 L144 192 L148 184 L175 179 L190 168 L174 159 L151 155 L140 139 L125 155 L99 159 L82 168 L98 180 L124 183 L131 190 L129 197 L124 195 L111 205 L109 253 L131 314 L151 336 L136 370 L109 405 L105 437 L111 439 L109 462 L117 466 L133 455 L144 427 L146 405 L180 359 L196 318 L192 347 L166 410 L159 450 L167 447 L170 438 L173 440 L171 465 L177 472 L182 451 L189 443 L194 477 L215 470 L203 474 L196 470 L212 462 L198 465 L195 457 L210 452 L210 445 L234 429 L222 453 L236 449 L230 469 L235 469 L257 496 L286 468 L283 455 L295 463 L308 464 L293 460 L281 448 L289 438 L306 440 L304 435 L295 438 L284 430 L288 423 L308 426 L308 431 L323 422 L318 445 L300 452 L310 453 L322 446 L318 460 L310 465 L320 466 L318 480 L324 460 L336 472 L339 447 L350 449 L331 361 L329 326 L350 385 L351 402 L372 427 L361 458 L362 475 L374 463 L380 435 L393 432 L401 403 L394 392 L401 371 L430 335 L424 279 L410 302 L390 320 L391 370 L382 391 L375 377 L370 338 L394 302 L408 263 L408 247 L418 226 L419 205 L402 170 L381 147 L366 182 L369 213 L385 244 L371 277 L362 282 L343 236 L328 218 L310 211 L312 181 L302 191 L297 190 L311 115 L299 127 L294 110 L285 103 L285 81 L280 83 L274 76 L277 68 L270 62 Z M271 477 L273 476 L274 478 L272 479 Z M265 472 L267 471 L268 473 L266 474 Z M253 461 L257 465 L256 469 L254 468 L254 465 L252 464 Z M174 462 L176 461 L177 463 L175 464 Z M332 461 L336 460 L337 462 L334 464 Z M365 459 L368 458 L370 462 L366 463 Z M121 456 L123 455 L124 458 L122 459 Z M262 454 L263 456 L258 461 L256 457 Z M247 455 L249 454 L250 457 L248 458 Z M118 453 L119 455 L116 458 L115 456 Z M111 452 L113 451 L114 453 L112 454 Z M327 449 L328 456 L324 458 L323 457 L324 451 Z M197 450 L202 449 L203 451 L198 452 Z M278 448 L279 450 L275 451 L275 453 L273 454 L272 450 L274 448 Z M130 449 L132 448 L133 450 L131 451 Z M330 448 L332 447 L333 449 L331 450 Z M177 448 L179 447 L180 449 L178 450 Z M256 446 L260 445 L261 447 L258 449 Z M240 444 L245 450 L244 453 L239 450 Z M195 444 L202 443 L203 445 L196 446 Z M174 444 L176 443 L177 445 L175 446 Z M271 442 L272 446 L267 450 L266 448 L268 446 L268 443 Z M246 442 L249 443 L248 448 L245 446 Z M128 442 L129 446 L127 450 L125 451 L124 448 L126 443 Z M122 442 L123 445 L121 450 L119 451 L118 446 L119 443 Z M209 442 L206 445 L203 444 L204 442 L207 441 Z M276 440 L278 441 L277 446 L275 445 Z M181 441 L183 440 L184 442 L182 443 Z M134 440 L137 441 L135 445 L133 444 Z M113 443 L114 440 L117 441 L115 444 Z M234 439 L235 441 L231 449 L228 450 L227 449 L228 446 Z M337 439 L340 438 L341 442 L338 443 Z M198 439 L200 437 L205 438 L204 441 L199 441 Z M188 436 L190 437 L189 441 L187 440 Z M331 436 L333 435 L334 437 L332 438 Z M175 436 L177 435 L179 438 L177 439 Z M164 435 L167 434 L168 436 L165 437 Z M275 433 L277 434 L276 438 L274 437 Z M114 434 L117 433 L118 437 L115 438 Z M281 433 L283 432 L285 436 L283 437 Z M210 432 L215 438 L211 442 L207 438 Z M136 432 L139 433 L137 440 L134 438 L134 435 Z M192 431 L193 430 L199 431 L200 434 L196 435 Z M131 430 L132 438 L128 440 L127 439 L128 432 Z M125 430 L126 431 L125 438 L121 440 L120 439 L121 432 Z M382 430 L387 429 L388 431 L383 432 Z M338 429 L341 431 L340 435 L337 432 Z M208 429 L209 431 L203 435 L201 431 Z M274 428 L276 429 L275 433 L273 432 Z M241 429 L243 428 L244 431 L242 432 Z M310 426 L312 425 L313 427 L311 428 Z M253 426 L255 425 L256 428 L254 429 Z M330 423 L333 422 L334 425 L331 426 Z M301 423 L303 422 L304 424 L302 425 Z M395 422 L392 426 L383 427 L378 425 L379 422 L385 424 L393 421 Z M306 422 L311 421 L312 423 L307 424 Z M296 422 L299 421 L300 423 L297 424 Z M176 422 L179 421 L180 424 L177 426 Z M336 421 L338 420 L339 422 L337 423 Z M166 420 L168 419 L169 421 L167 422 Z M301 419 L304 418 L305 420 L302 421 Z M307 418 L309 417 L310 419 L308 420 Z M229 418 L231 417 L232 419 L230 420 Z M274 417 L277 416 L278 420 L276 421 Z M184 416 L188 417 L186 426 L182 425 L182 420 Z M397 415 L389 422 L387 421 L386 418 L387 416 L393 416 L395 414 Z M368 414 L371 415 L370 421 L367 421 L365 419 L365 417 Z M291 414 L295 413 L296 415 L292 416 Z M339 413 L341 412 L342 414 L340 415 Z M329 413 L331 412 L332 414 L330 415 Z M311 413 L310 415 L306 417 L304 416 L305 413 L308 412 Z M173 413 L175 412 L176 414 L174 415 Z M377 412 L379 411 L380 414 L378 415 Z M272 412 L274 411 L275 414 L273 415 Z M253 411 L258 416 L261 415 L266 416 L266 418 L262 421 L265 428 L264 430 L261 428 L260 424 L256 423 L255 417 L252 415 Z M193 414 L199 411 L210 413 L209 415 L199 414 L201 416 L210 416 L214 414 L220 415 L224 413 L225 415 L220 420 L223 422 L220 425 L221 428 L219 431 L220 435 L217 437 L211 432 L211 428 L212 427 L216 428 L216 425 L218 422 L211 426 L208 426 L207 428 L204 425 L202 428 L197 428 L196 424 L200 423 L200 420 L198 420 L194 424 L193 421 L196 418 Z M229 412 L231 410 L235 411 L234 414 L230 414 Z M314 407 L317 408 L315 412 L320 417 L316 422 L311 417 L313 415 L312 410 Z M290 406 L291 408 L288 410 L287 408 Z M174 407 L176 406 L177 408 L175 409 Z M293 408 L295 405 L303 407 L301 411 L296 411 Z M260 406 L262 405 L263 408 L261 409 Z M170 406 L172 405 L173 407 L171 408 Z M238 404 L240 405 L239 411 L237 410 Z M328 402 L335 404 L334 406 L331 406 L330 411 L328 410 L327 404 Z M223 403 L225 402 L226 404 L224 405 Z M195 402 L197 403 L199 407 L198 409 L196 409 L194 406 Z M274 403 L277 401 L280 405 L276 406 Z M203 409 L204 404 L207 402 L211 401 L214 403 L216 402 L221 403 L216 408 L210 410 Z M398 402 L398 406 L392 414 L389 414 L388 412 L384 411 L385 409 L389 409 L395 400 Z M291 400 L293 399 L294 401 L292 402 Z M178 399 L181 401 L183 405 L182 413 L180 415 L178 414 L179 406 L176 405 Z M386 399 L388 398 L389 400 L387 401 Z M357 398 L359 397 L360 399 L358 400 Z M222 398 L224 397 L225 399 L223 400 Z M212 397 L214 396 L215 398 L213 399 Z M208 397 L210 396 L211 398 L209 399 Z M199 394 L202 394 L203 396 L206 397 L204 404 L199 403 L198 400 Z M375 394 L381 393 L382 395 L376 396 Z M372 393 L377 398 L380 408 L376 410 L369 403 L368 404 L373 411 L367 412 L366 414 L363 415 L361 411 L360 402 L364 400 L364 398 L368 394 Z M317 393 L318 394 L317 400 L314 407 L312 408 L311 406 L308 405 L310 399 L313 399 L313 395 Z M270 392 L272 391 L273 393 L271 394 Z M144 392 L146 391 L147 393 L145 394 Z M192 390 L194 392 L192 398 L192 405 L189 413 L185 414 L184 410 L190 391 Z M187 390 L188 392 L186 398 L183 401 L182 395 Z M265 390 L267 389 L268 391 L266 392 Z M140 392 L144 396 L143 398 L144 416 L141 428 L139 429 L137 427 L131 428 L129 430 L125 429 L123 425 L121 428 L116 425 L117 419 L123 416 L129 410 L131 406 L131 402 L129 402 L128 408 L125 413 L119 415 L118 412 L116 412 L116 417 L113 422 L114 424 L113 430 L111 433 L109 433 L108 426 L111 424 L108 422 L111 407 L115 399 L122 393 L128 392 L130 389 L134 389 Z M240 389 L242 388 L243 390 L241 391 Z M204 389 L206 388 L207 390 L205 391 Z M325 387 L330 388 L331 396 L328 399 L326 398 L324 390 Z M225 388 L227 387 L228 389 L226 390 Z M282 390 L284 386 L287 387 L286 390 L284 391 Z M273 387 L275 386 L277 390 L275 391 Z M242 387 L245 386 L246 388 L243 389 Z M230 386 L233 385 L234 389 L232 390 Z M198 385 L200 386 L199 390 L197 389 Z M136 386 L138 385 L139 387 L137 388 Z M363 385 L365 384 L367 387 L365 388 Z M291 384 L292 388 L289 390 L288 388 L289 385 Z M226 382 L228 381 L229 383 L227 384 Z M391 379 L393 380 L394 383 L393 386 L389 383 Z M217 379 L219 378 L220 380 L218 381 Z M249 376 L251 375 L252 377 L250 378 Z M144 376 L146 375 L148 379 L146 380 Z M296 375 L298 374 L299 376 L297 377 Z M210 375 L212 374 L213 376 L211 377 Z M301 372 L303 373 L302 377 L300 376 Z M260 373 L262 372 L263 374 L261 375 Z M395 369 L398 368 L399 370 L396 371 Z M295 366 L297 365 L299 369 L296 370 Z M310 362 L312 363 L311 367 L308 365 Z M290 362 L292 361 L293 364 L291 365 Z M210 361 L213 360 L214 362 L211 363 Z M318 359 L323 359 L325 362 L327 376 L329 383 L325 387 L322 386 L320 379 L319 367 L317 362 Z M404 358 L406 357 L407 359 L405 360 Z M289 358 L291 357 L292 360 L290 361 Z M397 355 L402 354 L403 358 L399 360 Z M292 355 L294 354 L295 356 L293 357 Z M394 354 L396 353 L397 355 L395 356 Z M213 354 L215 353 L218 356 L214 358 Z M325 353 L327 352 L328 354 L326 355 Z M220 352 L223 351 L224 354 L221 355 Z M306 348 L308 349 L309 353 L308 357 L306 356 L305 352 Z M317 347 L320 348 L320 353 L324 355 L323 357 L317 356 L316 354 Z M287 348 L289 347 L290 350 L288 351 Z M401 347 L403 346 L404 348 L402 349 Z M228 347 L230 346 L232 349 L230 350 Z M304 346 L306 345 L307 347 L305 348 Z M291 344 L294 345 L293 352 L291 351 L290 346 Z M324 344 L326 343 L327 345 L325 346 Z M234 344 L236 343 L237 345 L235 346 Z M416 342 L418 341 L421 344 L419 345 Z M403 342 L406 341 L407 343 L404 344 Z M195 342 L197 341 L198 343 L196 344 Z M409 339 L411 338 L412 340 L410 341 Z M420 338 L422 337 L425 341 L424 342 L421 341 Z M316 337 L319 338 L318 344 L315 343 Z M295 337 L297 338 L296 342 L294 341 Z M289 338 L292 337 L293 341 L290 342 Z M403 337 L405 336 L408 337 L409 339 L406 340 Z M395 335 L399 334 L402 335 L403 337 L400 338 L396 337 Z M243 335 L245 334 L246 336 L244 337 Z M411 334 L412 333 L417 334 L418 336 L414 338 Z M288 333 L290 332 L291 334 L289 335 Z M197 333 L199 332 L200 334 L198 335 Z M426 331 L428 332 L427 335 L424 334 Z M419 330 L422 331 L420 335 L418 334 Z M398 327 L400 328 L399 332 L397 331 Z M324 327 L326 328 L326 334 L322 335 L321 333 L323 332 Z M316 327 L318 328 L317 335 L315 334 Z M407 325 L411 327 L410 331 L405 328 Z M251 325 L253 326 L252 329 L249 328 Z M423 325 L426 324 L427 326 L424 327 Z M401 322 L403 323 L402 326 L399 325 Z M392 322 L395 321 L396 323 L393 324 Z M301 322 L303 321 L304 324 L302 325 Z M414 320 L416 319 L417 321 L415 322 Z M324 319 L326 320 L325 325 L323 324 Z M255 320 L257 319 L258 321 L256 322 Z M408 319 L410 318 L411 320 L409 321 Z M292 319 L295 318 L296 320 L293 321 Z M287 319 L290 318 L291 321 L289 322 Z M411 316 L413 315 L414 317 L412 318 Z M310 312 L312 313 L312 325 L313 326 L313 344 L314 345 L313 352 L310 349 L306 336 L306 325 Z M257 313 L260 312 L261 314 L258 315 Z M200 312 L202 313 L201 317 L199 316 Z M207 310 L211 324 L209 342 L207 349 L201 353 L200 360 L202 361 L202 364 L199 368 L197 380 L195 383 L191 382 L190 386 L188 387 L187 384 L191 374 L193 373 L193 363 L201 340 L204 311 Z M261 309 L263 308 L264 310 L262 311 Z M319 307 L321 306 L323 309 L320 310 Z M289 306 L293 309 L290 313 L287 311 Z M200 305 L204 304 L205 306 L201 307 Z M293 301 L296 304 L294 308 L292 307 Z M417 301 L419 300 L420 302 L418 303 Z M284 301 L286 300 L287 303 L285 304 Z M358 300 L360 299 L362 302 L359 303 Z M288 300 L290 299 L291 301 L289 302 Z M315 298 L317 299 L317 321 L318 322 L317 324 L314 322 L314 299 Z M343 297 L350 298 L358 306 L362 328 L368 339 L371 355 L372 375 L369 377 L361 375 L359 381 L353 383 L343 364 L338 338 L326 307 L329 303 Z M175 297 L192 303 L195 309 L180 354 L170 369 L156 384 L148 372 L142 374 L139 369 L152 340 L162 330 L161 324 L164 305 L172 301 Z M290 297 L293 296 L294 298 L291 299 Z M280 296 L282 298 L282 332 L288 360 L287 370 L281 374 L271 375 L269 371 L266 371 L258 363 L246 375 L241 375 L217 367 L215 362 L217 359 L225 357 L229 352 L251 340 L253 331 L256 328 L259 330 L261 327 L261 318 L266 315 L267 307 L273 304 L275 298 Z M311 294 L312 295 L308 308 L305 310 L306 316 L302 317 L301 316 L302 298 Z M422 287 L424 288 L423 292 L420 290 Z M345 288 L347 287 L348 289 L346 290 Z M276 288 L277 285 L280 286 L278 289 Z M361 285 L363 284 L364 287 L362 288 Z M357 283 L359 282 L360 284 L358 285 Z M291 281 L293 282 L292 287 L290 286 Z M280 280 L282 279 L283 282 L281 283 Z M295 278 L298 279 L296 284 L294 283 Z M232 272 L234 271 L235 273 L233 274 Z M284 271 L286 270 L287 272 L285 273 Z M291 267 L292 271 L291 274 L289 275 L288 271 L289 268 Z M398 271 L399 276 L389 307 L380 323 L371 333 L368 333 L364 327 L361 315 L361 309 L364 307 L362 294 L380 266 L386 267 L389 273 L395 273 Z M256 267 L258 266 L259 268 L257 269 Z M388 266 L391 265 L393 268 L390 269 Z M298 265 L300 264 L301 266 L299 267 Z M285 265 L287 264 L288 266 L286 267 Z M230 265 L232 264 L233 266 L231 267 Z M119 269 L123 268 L128 270 L131 265 L137 263 L158 294 L156 307 L161 310 L158 329 L153 334 L140 323 L131 309 L118 273 Z M257 263 L260 262 L261 264 L258 265 Z M391 261 L393 260 L394 262 L392 263 Z M260 261 L262 260 L263 262 L261 263 Z M235 260 L237 259 L238 261 L236 262 Z M265 259 L267 258 L268 261 L266 262 Z M251 259 L253 258 L254 260 L252 261 Z M123 259 L125 258 L126 261 L124 262 Z M236 265 L239 263 L242 263 L243 259 L247 257 L248 259 L246 261 L249 261 L251 263 L258 277 L261 277 L271 260 L276 260 L278 263 L280 263 L282 259 L284 260 L283 269 L280 272 L280 277 L277 285 L274 286 L274 288 L270 291 L266 292 L261 287 L258 287 L254 293 L245 289 L240 282 L239 272 L236 269 Z M395 256 L401 255 L402 257 L396 258 Z M294 255 L299 257 L297 266 L295 269 L293 268 L294 263 L291 262 L292 257 Z M277 256 L280 255 L281 257 L278 258 Z M392 255 L394 254 L395 256 L393 257 Z M237 255 L241 254 L242 257 L240 258 Z M229 254 L231 255 L232 258 L231 260 L227 258 Z M274 254 L276 253 L277 255 L275 256 Z M280 253 L282 252 L283 254 L281 255 Z M116 253 L121 252 L122 254 L117 255 Z M235 251 L237 250 L238 253 L236 254 Z M230 249 L231 251 L228 253 L227 251 Z M305 248 L304 254 L298 256 L297 253 L300 246 Z M289 247 L292 246 L293 248 L290 249 Z M270 246 L272 245 L273 247 L271 248 Z M295 245 L297 244 L298 246 L296 247 Z M258 245 L261 244 L262 246 L259 247 Z M248 244 L250 243 L251 245 L249 246 Z M214 240 L216 239 L219 243 L218 244 L215 243 Z M231 235 L233 234 L234 236 L232 237 Z M214 235 L216 234 L217 236 L215 237 Z M226 229 L228 228 L229 230 L227 231 Z M326 227 L335 232 L343 242 L348 261 L345 267 L339 268 L339 273 L335 281 L321 287 L319 283 L325 269 L327 251 L325 251 L323 266 L317 282 L312 289 L303 294 L304 279 L314 242 L314 236 L322 234 L321 229 Z M218 227 L220 226 L221 228 L219 229 Z M200 226 L212 236 L211 249 L217 246 L225 247 L230 278 L240 297 L246 301 L255 315 L246 328 L241 328 L231 344 L212 352 L209 350 L214 337 L214 327 L205 294 L219 299 L232 297 L215 295 L204 286 L197 270 L195 251 L193 263 L198 279 L195 284 L185 281 L181 269 L176 271 L172 261 L179 238 L187 231 Z M222 226 L224 225 L225 227 L223 228 Z M233 227 L237 224 L243 230 L240 233 L238 233 Z M287 222 L290 226 L284 231 L281 227 Z M401 221 L404 222 L404 232 L403 233 L401 232 L400 223 Z M305 221 L308 224 L308 235 L307 236 L305 235 L305 224 L304 223 Z M297 222 L299 221 L300 223 L298 224 Z M120 221 L122 220 L123 222 L121 223 Z M410 215 L413 220 L416 221 L416 224 L409 242 L404 247 L405 251 L403 253 L392 252 L388 248 L389 243 L384 237 L376 221 L377 217 L379 216 L381 220 L384 220 L390 226 L394 236 L394 244 L396 247 L398 247 L401 243 L401 240 L406 234 L406 228 L409 225 L407 216 Z M399 215 L401 214 L403 217 L400 218 Z M413 214 L415 213 L416 216 L414 217 Z M372 212 L374 211 L378 216 L374 217 Z M301 212 L303 211 L304 213 L302 214 Z M224 212 L226 211 L227 213 L225 214 Z M411 211 L413 210 L414 212 L412 213 Z M403 211 L405 210 L407 213 L405 214 Z M220 210 L221 214 L219 216 L216 216 L215 215 L216 212 Z M120 211 L122 210 L123 213 L121 214 Z M127 209 L129 210 L128 216 L126 215 Z M398 208 L400 207 L401 209 L399 210 Z M303 206 L305 205 L306 207 L304 208 Z M215 206 L218 205 L219 207 L216 208 Z M405 204 L407 203 L409 207 L407 208 Z M292 203 L294 204 L293 210 L289 206 Z M227 204 L230 203 L233 206 L230 208 Z M138 203 L143 204 L141 214 L139 213 L139 208 L137 206 Z M412 203 L414 202 L416 205 L414 206 Z M284 201 L286 200 L287 202 L285 203 Z M286 216 L285 220 L279 226 L267 231 L256 231 L244 227 L236 218 L236 216 L241 209 L243 201 L245 201 L253 207 L251 212 L257 214 L265 214 L271 212 L269 207 L274 204 L277 200 L279 200 L281 210 Z M132 200 L137 211 L138 222 L140 223 L140 225 L135 235 L129 242 L129 244 L127 245 L128 248 L121 251 L115 250 L110 238 L110 227 L112 221 L116 220 L118 222 L119 228 L117 237 L119 237 L122 226 L126 222 L131 222 L132 211 L130 207 L130 201 Z M396 199 L398 198 L402 202 L399 203 Z M300 199 L302 198 L303 200 L301 201 Z M126 198 L128 201 L125 202 L125 205 L123 207 L121 207 L120 203 L122 199 Z M407 195 L410 197 L408 200 L405 199 Z M222 194 L223 199 L220 201 L219 200 L220 195 Z M141 194 L143 195 L143 200 L139 201 L138 197 Z M400 192 L402 191 L403 194 L401 195 Z M308 189 L310 188 L311 190 L309 191 Z M405 188 L408 187 L411 192 L409 193 Z M134 186 L136 187 L135 193 L133 192 Z M121 180 L123 179 L124 181 L122 182 Z M289 181 L290 178 L293 179 L291 182 Z M229 179 L231 178 L232 181 L230 182 Z M156 179 L158 178 L159 180 L157 181 Z M140 178 L142 179 L143 188 L142 192 L140 192 L138 189 Z M134 179 L136 178 L137 181 L135 182 Z M115 179 L117 178 L118 180 L116 181 Z M160 178 L162 177 L163 179 L161 180 Z M257 177 L262 175 L265 178 L262 180 L259 180 Z M169 176 L166 179 L163 178 L164 176 L167 175 Z M386 173 L392 173 L398 175 L402 179 L401 186 L400 187 L396 186 L394 188 L394 194 L392 196 L392 199 L394 202 L393 207 L397 212 L397 220 L392 221 L391 223 L388 221 L390 216 L384 217 L374 208 L369 197 L369 187 L371 182 L376 177 Z M169 174 L171 173 L172 175 L170 176 Z M99 172 L104 171 L105 174 L108 175 L109 177 L106 178 L102 176 Z M380 171 L382 170 L383 172 L381 173 Z M387 169 L389 168 L391 171 L388 172 Z M182 168 L184 167 L185 170 L183 171 Z M131 168 L133 167 L134 170 L132 171 Z M87 169 L91 167 L93 171 L91 172 L88 171 Z M223 166 L225 165 L226 167 L224 168 Z M160 167 L160 170 L157 173 L146 176 L144 175 L144 173 L148 170 L148 166 L150 164 L153 164 L155 168 L157 166 Z M115 168 L118 165 L126 164 L128 167 L128 170 L132 172 L133 175 L130 176 L121 174 L117 172 Z M170 163 L172 163 L176 168 L173 174 L171 173 L173 169 L172 167 L169 166 Z M144 164 L146 163 L147 165 L145 166 Z M294 163 L296 162 L297 164 L295 165 Z M104 162 L105 163 L104 166 L101 169 L98 168 L99 165 Z M271 151 L272 157 L268 158 L268 160 L266 161 L265 156 L268 152 Z M381 151 L383 150 L384 152 L382 153 Z M233 153 L244 149 L255 153 L257 158 L256 161 L250 154 L242 154 L242 158 L238 157 L235 159 L245 165 L252 164 L257 167 L257 175 L253 176 L253 180 L258 183 L256 185 L250 185 L249 187 L252 188 L257 195 L264 195 L273 186 L271 184 L266 185 L264 183 L269 180 L269 176 L265 174 L265 171 L260 171 L259 167 L267 166 L269 164 L277 165 L285 160 L284 157 L276 158 L274 153 L275 150 L278 149 L286 153 L289 151 L290 163 L288 177 L281 193 L273 201 L264 205 L258 205 L249 201 L237 187 L232 166 Z M216 149 L218 148 L219 150 L217 151 Z M137 146 L140 145 L141 147 L138 148 Z M294 138 L296 134 L299 136 L297 139 Z M215 135 L217 134 L218 136 L216 137 Z M222 134 L225 133 L227 137 L223 138 Z M235 148 L238 137 L241 134 L246 132 L256 132 L260 134 L266 132 L276 132 L281 134 L286 142 L286 145 L283 148 L279 146 L274 146 L267 149 L263 156 L262 161 L259 160 L259 156 L256 150 L252 147 L242 146 L237 149 Z M235 132 L237 131 L238 133 L236 134 Z M213 126 L216 125 L217 127 L214 128 Z M305 125 L307 124 L308 127 L306 128 Z M278 119 L280 118 L281 120 L279 121 Z M249 114 L251 113 L252 115 L250 116 Z M284 108 L286 107 L287 109 L285 110 Z M262 102 L264 101 L265 103 L263 104 Z M257 102 L259 101 L260 103 L258 104 Z M249 101 L250 103 L247 105 L246 103 Z M272 101 L274 100 L276 104 L274 105 Z M255 94 L257 93 L258 95 L256 96 Z M259 90 L262 89 L263 91 L260 92 Z M259 28 L261 27 L263 31 L260 32 Z"/></svg>
