<svg xmlns="http://www.w3.org/2000/svg" width="512" height="512" viewBox="0 0 512 512" aria-hidden="true" focusable="false"><path fill="currentColor" fill-rule="evenodd" clip-rule="evenodd" d="M22 423 L23 425 L490 425 L491 423 Z M419 365 L419 373 L431 373 L432 372 L445 373 L447 368 L449 369 L449 373 L461 373 L462 372 L466 373 L468 369 L468 364 L466 363 L464 364 L461 363 L459 369 L457 368 L457 363 L449 363 L448 366 L444 363 L441 363 L439 366 L434 363 L432 364 L420 363 Z M435 368 L438 366 L441 370 L437 371 Z M427 367 L429 366 L431 370 L428 371 Z M319 366 L322 373 L327 372 L328 370 L330 372 L346 373 L348 368 L350 369 L350 373 L367 373 L370 371 L374 372 L376 371 L375 364 L371 367 L367 363 L365 364 L362 363 L361 365 L359 363 L351 363 L349 366 L346 363 L343 363 L340 367 L338 366 L337 363 L334 363 L333 365 L330 365 L329 367 L327 366 L327 364 L323 363 L320 364 Z M336 368 L339 367 L341 371 L339 372 Z M229 371 L232 373 L235 373 L238 370 L240 372 L256 373 L258 368 L260 369 L261 373 L263 372 L284 373 L286 371 L286 365 L282 363 L282 369 L280 370 L279 364 L277 363 L261 363 L259 366 L256 363 L253 363 L251 366 L249 366 L247 363 L244 363 L243 365 L239 366 L234 363 L231 364 Z M247 368 L249 367 L250 369 L248 370 Z M137 364 L137 370 L139 373 L143 372 L144 370 L146 372 L155 373 L155 370 L153 369 L154 367 L158 368 L160 373 L163 373 L165 368 L167 369 L167 371 L171 371 L172 373 L179 372 L191 373 L192 367 L190 363 L188 364 L189 366 L188 369 L185 368 L185 364 L183 363 L181 364 L178 363 L177 365 L175 363 L167 363 L166 367 L163 365 L163 363 L158 363 L157 365 L155 365 L154 363 L150 363 L149 365 L145 366 L141 363 Z M174 366 L176 365 L177 367 L175 368 Z M38 371 L41 373 L46 372 L47 369 L49 370 L49 372 L54 371 L56 373 L58 372 L65 373 L67 368 L69 369 L69 373 L72 372 L85 373 L88 371 L89 366 L91 367 L91 372 L92 372 L92 364 L88 365 L85 363 L83 364 L69 363 L69 365 L67 366 L65 363 L62 363 L58 367 L56 363 L53 363 L52 365 L49 365 L47 367 L45 364 L42 363 L39 364 Z M55 368 L57 367 L58 369 L56 370 Z M453 332 L454 341 L457 341 L459 339 L463 341 L465 336 L468 338 L470 337 L487 338 L487 334 L484 335 L468 334 L465 336 L463 331 Z M454 337 L456 336 L457 338 L455 339 Z M434 330 L430 332 L425 331 L422 337 L419 334 L417 335 L402 334 L401 337 L417 337 L418 338 L421 337 L425 341 L427 340 L433 341 L434 340 Z M427 335 L429 334 L430 336 L428 337 Z M442 329 L438 333 L438 339 L441 340 L442 342 L445 342 L449 338 L450 335 L447 334 L444 329 Z M123 333 L124 337 L144 336 L147 339 L152 339 L154 336 L160 336 L163 339 L167 336 L175 336 L177 341 L181 340 L182 335 L202 336 L203 337 L206 335 L206 333 L185 334 L181 330 L177 331 L175 334 L167 333 L164 330 L162 330 L160 333 L153 334 L151 329 L146 330 L145 334 Z M176 335 L178 334 L179 336 L177 337 Z M387 334 L386 333 L384 334 L366 333 L360 338 L359 335 L361 334 L361 331 L354 331 L351 325 L349 324 L344 331 L338 331 L337 337 L331 333 L322 334 L312 333 L311 337 L314 338 L315 336 L322 336 L323 338 L326 339 L327 343 L332 342 L328 340 L329 338 L335 339 L340 342 L347 341 L348 344 L350 345 L351 341 L358 342 L361 341 L365 337 L367 338 L367 343 L371 343 L376 336 L383 336 L386 338 Z M366 336 L368 335 L369 337 L367 338 Z M347 330 L350 329 L351 333 L348 334 Z M298 334 L297 333 L295 334 L283 334 L282 333 L276 334 L273 331 L271 331 L270 333 L265 335 L264 331 L261 329 L258 324 L253 330 L251 335 L248 335 L242 331 L239 334 L236 332 L232 334 L219 333 L218 337 L233 336 L234 338 L236 338 L238 336 L244 335 L256 339 L257 342 L259 343 L262 338 L268 336 L273 339 L274 336 L278 336 L280 338 L283 336 L297 337 Z M257 335 L259 336 L258 340 L256 339 Z M256 329 L259 328 L260 330 L257 331 Z M27 333 L27 336 L47 336 L51 339 L59 336 L65 344 L67 343 L71 336 L75 336 L76 338 L79 339 L84 338 L85 336 L105 336 L105 333 L85 334 L83 331 L76 331 L72 333 L67 328 L66 324 L64 325 L64 327 L59 333 L52 330 L49 331 L47 334 Z M67 334 L70 333 L71 335 L68 336 Z M53 334 L55 333 L56 335 L54 336 Z M49 334 L51 333 L52 335 L50 336 Z M64 330 L66 329 L67 331 L65 332 Z M86 258 L87 267 L88 267 L89 259 Z M42 258 L43 261 L42 267 L48 266 L50 263 L50 259 Z M426 258 L426 263 L429 267 L435 267 L436 265 L438 267 L456 267 L457 266 L467 267 L466 258 L460 257 L458 259 L453 257 L451 258 L441 257 Z M335 257 L335 267 L343 267 L344 265 L349 267 L353 266 L375 267 L376 266 L374 258 L367 257 L365 259 L363 257 L356 258 L355 260 L352 260 L350 258 Z M236 263 L237 267 L245 266 L256 267 L257 265 L259 267 L266 267 L267 264 L270 267 L282 267 L284 265 L284 258 L269 257 L268 259 L266 258 L256 259 L252 257 L251 259 L246 259 L240 257 L237 258 Z M253 262 L257 261 L258 263 L254 264 Z M278 260 L280 261 L279 265 L277 264 Z M151 259 L152 267 L153 266 L159 267 L161 265 L163 267 L170 267 L172 265 L174 267 L188 267 L187 264 L188 258 L174 257 L173 259 L163 257 L162 259 L160 259 L158 257 L155 257 L154 259 Z M158 262 L161 261 L162 264 L159 265 Z M180 262 L182 260 L185 261 L184 264 L181 264 Z M148 258 L145 257 L141 258 L140 265 L141 267 L147 266 Z M53 259 L53 267 L55 266 L61 267 L61 265 L59 264 L60 261 L63 262 L65 268 L72 267 L73 265 L75 267 L83 266 L82 263 L83 257 L75 257 L74 259 L66 257 L61 259 L57 257 L56 259 Z M446 166 L445 168 L441 169 L439 173 L432 172 L429 176 L421 177 L419 187 L416 189 L416 194 L411 202 L411 205 L416 211 L416 218 L419 220 L421 230 L427 231 L431 235 L436 235 L445 241 L449 241 L457 235 L462 235 L464 232 L473 228 L474 220 L477 218 L477 214 L474 210 L479 210 L482 205 L482 202 L477 194 L477 189 L473 186 L472 178 L465 176 L463 172 L457 173 L456 180 L463 180 L468 183 L469 194 L474 198 L477 203 L474 209 L468 213 L468 225 L463 227 L456 227 L456 229 L448 236 L441 234 L438 230 L438 227 L426 226 L423 220 L424 212 L418 209 L416 202 L424 193 L423 188 L425 182 L430 180 L438 181 L439 178 L447 172 L454 175 L455 171 Z M471 190 L474 189 L475 191 L472 192 Z M291 170 L263 170 L260 166 L255 170 L228 170 L222 176 L222 236 L227 240 L256 240 L259 243 L261 240 L291 240 L295 235 L297 205 L295 174 Z M236 174 L282 174 L291 184 L291 226 L283 236 L236 236 L234 232 L229 232 L227 184 Z M354 165 L338 170 L332 179 L327 180 L320 195 L319 208 L328 230 L331 229 L334 235 L343 241 L357 243 L372 238 L377 230 L382 229 L389 214 L390 200 L384 182 L375 172 Z M350 171 L364 172 L373 178 L376 176 L384 196 L384 212 L379 226 L372 233 L359 238 L350 238 L337 233 L329 223 L325 212 L325 197 L329 186 L337 177 Z M161 163 L155 170 L136 170 L136 174 L130 176 L130 201 L127 205 L130 206 L130 233 L137 240 L150 240 L156 236 L161 246 L164 246 L166 241 L172 240 L174 236 L186 240 L195 233 L195 206 L198 204 L195 201 L195 176 L190 175 L189 170 L170 170 Z M140 237 L148 236 L149 238 L141 239 Z M131 178 L134 177 L135 179 L132 180 Z M141 175 L183 175 L184 179 L190 183 L190 227 L184 231 L183 235 L141 235 L140 231 L134 227 L134 183 L140 179 Z M161 172 L163 171 L164 173 L162 174 Z M69 160 L59 172 L57 168 L37 169 L37 174 L29 179 L27 206 L29 232 L39 241 L61 241 L66 248 L73 241 L95 241 L104 234 L104 210 L107 207 L103 205 L104 181 L97 174 L97 169 L75 169 Z M43 174 L68 172 L92 175 L92 179 L99 185 L100 207 L99 227 L91 237 L44 237 L43 233 L34 227 L34 186 L42 180 Z M66 164 L68 163 L69 166 L67 167 Z M494 105 L496 109 L497 108 L496 105 Z M19 105 L17 105 L16 108 L17 109 Z M21 102 L126 104 L134 119 L386 119 L392 115 L395 104 L492 104 L395 102 L393 92 L386 87 L134 87 L128 92 L126 102 Z M327 104 L329 103 L330 105 L328 106 Z M262 102 L264 103 L263 107 L261 106 Z M364 102 L366 101 L367 103 L365 104 Z M264 101 L267 100 L268 102 L265 103 Z"/></svg>
