<svg xmlns="http://www.w3.org/2000/svg" width="512" height="512" viewBox="0 0 512 512" aria-hidden="true" focusable="false"><path fill="currentColor" fill-rule="evenodd" clip-rule="evenodd" d="M257 17 L251 27 L246 59 L238 68 L242 78 L232 85 L233 93 L226 99 L228 113 L222 121 L214 121 L216 127 L208 131 L200 121 L195 124 L198 147 L208 163 L207 167 L197 164 L199 178 L195 180 L201 186 L188 191 L171 175 L175 217 L168 231 L155 229 L158 242 L165 247 L161 266 L164 287 L177 295 L203 299 L192 313 L178 313 L184 327 L175 330 L167 320 L147 311 L147 320 L153 325 L152 339 L157 340 L152 345 L158 354 L156 359 L163 361 L161 371 L152 359 L127 359 L136 376 L131 385 L151 418 L178 429 L177 435 L182 438 L184 453 L179 467 L162 471 L151 463 L148 469 L150 486 L163 496 L225 489 L225 467 L221 466 L218 450 L221 441 L216 432 L217 417 L222 413 L238 434 L244 434 L242 464 L256 492 L271 464 L272 440 L268 435 L284 425 L289 413 L297 421 L297 433 L292 444 L295 450 L291 471 L285 477 L287 492 L346 494 L358 491 L365 481 L362 463 L353 471 L332 466 L330 441 L341 425 L375 405 L382 385 L377 376 L385 369 L386 359 L372 363 L363 359 L358 366 L351 366 L349 362 L357 358 L360 344 L351 345 L361 339 L365 312 L355 313 L334 333 L330 328 L335 313 L326 316 L313 305 L316 298 L324 300 L349 287 L355 272 L348 251 L356 243 L358 229 L344 230 L338 218 L341 187 L345 186 L341 182 L343 174 L331 183 L327 193 L315 189 L315 164 L309 169 L305 166 L310 151 L315 149 L315 121 L303 130 L296 125 L296 119 L289 119 L286 96 L280 100 L281 85 L275 87 L270 81 L272 64 L267 60 L263 26 Z M342 489 L344 488 L345 490 L343 491 Z M352 488 L354 487 L355 489 L353 490 Z M255 484 L257 483 L258 485 L256 486 Z M166 483 L168 482 L169 484 L167 485 Z M153 483 L157 482 L158 485 L154 486 Z M324 482 L326 481 L327 484 L325 485 Z M203 482 L206 481 L207 483 L204 484 Z M198 482 L200 481 L201 483 L199 484 Z M357 480 L360 483 L359 486 L355 484 Z M345 481 L347 480 L348 483 L346 484 Z M307 481 L309 480 L310 483 L308 484 Z M298 480 L300 479 L301 482 L299 483 Z M219 480 L221 479 L222 481 L220 482 Z M253 478 L256 477 L257 479 L254 480 Z M349 475 L351 474 L352 476 L350 477 Z M357 474 L359 473 L360 475 L358 476 Z M258 471 L260 470 L261 472 L259 473 Z M252 471 L254 470 L255 472 L253 473 Z M212 470 L217 469 L219 472 L213 473 Z M305 473 L306 470 L310 471 L311 467 L322 467 L325 470 L322 474 L320 473 L320 471 L317 471 L316 474 L306 474 Z M205 470 L206 467 L210 468 L208 472 Z M296 466 L300 467 L300 470 L298 473 L294 472 Z M186 468 L188 466 L201 467 L203 473 L198 474 L196 471 L189 472 Z M261 466 L263 465 L264 467 L262 468 Z M247 466 L250 465 L253 468 L251 469 L248 468 Z M263 463 L265 462 L268 465 L264 466 Z M261 460 L261 463 L259 466 L253 464 L254 460 L256 462 L259 459 Z M246 456 L248 457 L247 460 L244 459 Z M264 456 L266 455 L269 460 L264 462 L263 461 Z M261 442 L263 441 L264 443 L262 444 Z M248 439 L249 441 L246 443 L245 441 Z M263 439 L265 438 L268 442 L267 443 L264 442 Z M256 438 L260 442 L258 446 L256 445 L255 441 Z M213 433 L214 442 L211 443 L210 445 L207 445 L205 448 L203 448 L202 442 L195 441 L192 447 L189 447 L186 443 L186 440 L188 439 L188 437 L185 436 L183 432 L187 431 L190 434 L193 434 L194 431 L199 430 L200 433 L202 433 L202 430 L206 428 L207 430 Z M300 425 L302 424 L304 426 L303 431 L307 431 L309 429 L315 430 L316 436 L320 436 L321 431 L324 432 L325 434 L328 434 L329 436 L326 445 L324 447 L321 447 L318 441 L312 442 L312 445 L310 448 L308 448 L306 445 L301 446 L299 443 Z M269 427 L272 424 L274 425 L272 428 Z M210 425 L212 424 L213 427 L211 428 Z M250 424 L253 423 L254 425 L251 426 Z M322 423 L325 422 L327 425 L324 426 Z M194 422 L196 423 L195 427 L193 426 Z M312 421 L314 420 L315 422 L313 423 Z M198 421 L201 420 L202 423 L200 424 Z M262 419 L263 424 L260 425 L258 430 L255 430 L254 428 L259 423 L259 421 Z M276 422 L278 418 L281 419 L278 423 Z M244 418 L247 417 L248 421 L246 422 Z M204 418 L206 417 L207 419 L205 420 Z M253 416 L256 415 L257 417 L254 418 Z M167 415 L169 414 L170 417 L168 418 Z M162 415 L164 414 L165 416 L163 417 Z M322 413 L324 412 L325 414 L323 415 Z M269 413 L271 412 L272 414 L270 415 Z M329 412 L331 411 L332 413 L330 414 Z M250 412 L252 411 L253 413 L251 414 Z M257 408 L259 407 L260 410 L262 410 L263 412 L258 414 L256 412 Z M276 406 L277 411 L274 413 L273 408 Z M250 407 L252 406 L253 408 L251 409 Z M236 406 L240 410 L239 413 L236 411 L235 408 Z M265 406 L267 405 L268 407 L266 408 Z M245 406 L247 405 L248 408 L246 409 Z M260 405 L262 404 L263 406 L261 407 Z M145 403 L148 402 L149 404 L146 405 Z M363 402 L365 401 L368 404 L364 405 Z M225 402 L227 401 L228 404 L226 405 Z M358 400 L360 399 L361 401 L359 402 Z M325 401 L326 399 L329 398 L333 399 L330 403 L327 403 Z M228 399 L230 398 L231 400 L229 401 Z M181 399 L187 398 L188 400 L185 402 L182 401 Z M273 396 L274 400 L270 402 L269 399 Z M259 396 L260 403 L253 404 L252 403 L253 400 Z M237 397 L239 396 L240 398 L238 399 Z M266 396 L268 395 L269 397 L267 398 Z M309 395 L311 394 L312 396 L310 397 Z M325 394 L329 393 L330 395 L326 396 Z M251 393 L254 394 L252 399 L250 398 Z M240 394 L242 393 L243 396 L241 397 Z M313 395 L316 392 L318 393 L315 396 Z M293 393 L295 392 L296 395 L294 396 Z M195 393 L197 392 L198 395 L196 396 Z M372 392 L374 391 L375 393 L373 394 Z M359 391 L361 394 L356 396 L355 393 Z M255 392 L257 391 L258 393 L256 394 Z M190 391 L192 390 L193 392 L191 393 Z M138 391 L140 390 L141 393 L139 394 Z M363 389 L365 388 L366 390 L364 391 Z M226 389 L228 388 L229 391 L227 392 Z M283 388 L286 387 L287 389 L284 390 Z M336 387 L338 386 L339 388 L337 389 Z M310 387 L312 386 L313 388 L311 389 Z M175 386 L180 388 L181 391 L179 394 L173 391 Z M257 386 L259 385 L260 387 L258 388 Z M340 385 L342 384 L343 386 L341 387 Z M266 385 L268 384 L269 386 L267 387 Z M244 385 L246 384 L247 386 L245 387 Z M187 385 L190 384 L192 387 L188 389 Z M170 385 L172 384 L173 386 L171 387 Z M324 383 L327 389 L325 391 L320 392 L319 388 Z M281 382 L283 381 L284 383 L282 384 Z M327 381 L329 380 L330 382 L328 383 Z M259 381 L261 380 L262 382 L260 383 Z M374 379 L376 380 L375 384 L373 383 Z M334 379 L336 380 L335 385 L333 384 Z M178 379 L180 380 L179 384 L177 383 Z M138 379 L140 380 L139 384 L137 383 Z M353 378 L355 377 L356 380 L354 381 Z M362 376 L364 377 L363 383 L360 381 Z M310 377 L312 376 L313 378 L311 379 Z M245 377 L247 376 L248 379 L246 380 Z M205 377 L208 376 L209 378 L206 379 Z M150 376 L153 379 L153 382 L151 384 L149 383 Z M198 376 L200 375 L202 378 L200 379 Z M327 375 L329 374 L330 376 L328 377 Z M277 375 L279 374 L281 378 L279 379 Z M269 374 L270 377 L266 380 L265 377 Z M258 374 L259 377 L255 380 L254 376 Z M232 377 L233 374 L236 375 L234 378 Z M338 374 L342 373 L343 375 L339 376 Z M260 374 L262 373 L263 375 L261 376 Z M182 374 L184 373 L185 375 L183 376 Z M138 372 L140 371 L141 373 L139 374 Z M351 371 L353 370 L354 372 L352 373 Z M250 371 L253 370 L255 374 L251 376 Z M186 370 L188 369 L191 372 L188 373 Z M360 368 L362 369 L361 372 L358 371 Z M327 368 L328 370 L324 373 L323 370 Z M299 369 L302 368 L303 370 L300 371 Z M200 369 L202 368 L204 372 L202 373 Z M340 369 L342 367 L345 367 L347 371 L344 372 L341 371 Z M168 368 L170 367 L171 370 L169 371 Z M266 366 L268 367 L267 371 L265 370 Z M254 369 L255 366 L258 367 L256 370 Z M316 365 L319 364 L320 366 L317 367 Z M218 365 L220 364 L221 367 L219 368 Z M195 365 L197 364 L198 366 L196 367 Z M166 365 L168 364 L169 366 L167 367 Z M336 366 L337 363 L340 364 L338 367 Z M267 364 L269 363 L270 365 L268 366 Z M224 363 L226 362 L227 364 L225 365 Z M172 363 L174 362 L175 365 L173 366 Z M286 362 L288 361 L289 363 L287 364 Z M334 360 L335 362 L331 365 L330 363 Z M178 361 L180 360 L183 364 L181 365 Z M325 359 L328 358 L329 360 L326 361 Z M320 359 L322 358 L323 360 L321 361 Z M252 363 L254 358 L258 358 L260 361 L259 363 L256 364 Z M184 359 L186 358 L187 360 L185 361 Z M282 358 L284 357 L285 359 L283 360 Z M261 354 L263 355 L262 360 L260 359 Z M250 355 L252 354 L254 358 L251 359 Z M306 353 L313 352 L315 355 L312 357 L310 355 L307 355 Z M292 353 L294 352 L295 354 L293 355 Z M260 351 L261 353 L258 356 L256 356 L255 353 L257 351 Z M209 351 L212 352 L213 356 L212 358 L208 354 Z M204 351 L205 354 L200 356 L199 353 Z M185 351 L187 352 L186 356 L184 355 Z M347 351 L351 350 L352 352 L349 354 Z M301 350 L304 352 L302 356 L300 355 Z M161 351 L166 350 L167 352 L163 354 Z M335 349 L337 348 L338 350 L336 351 Z M223 351 L224 348 L227 349 L225 352 Z M217 349 L219 348 L220 350 L218 351 Z M221 347 L223 346 L224 348 L222 349 Z M320 346 L322 345 L323 347 L321 348 Z M288 345 L290 346 L289 349 L286 348 Z M207 345 L209 346 L208 350 L206 349 Z M306 344 L307 346 L304 349 L303 346 Z M309 344 L317 343 L319 346 L316 348 L315 346 L310 346 Z M295 344 L297 343 L298 345 L296 346 Z M195 344 L202 343 L203 346 L202 347 L196 346 Z M157 344 L159 343 L162 346 L159 347 Z M215 343 L217 342 L218 344 L216 345 Z M220 342 L222 341 L223 343 L221 344 Z M291 340 L293 341 L292 346 L289 343 Z M204 341 L206 340 L207 342 L205 343 Z M178 341 L187 340 L188 342 L182 344 L179 343 Z M209 342 L212 339 L216 340 L215 342 L211 343 Z M187 339 L189 338 L190 340 L188 341 Z M347 338 L344 342 L339 341 L340 339 L343 339 L344 337 Z M312 338 L313 337 L318 338 L320 341 L314 342 Z M275 338 L277 337 L278 339 L276 340 Z M201 338 L199 341 L195 340 L196 338 L199 337 Z M166 338 L168 337 L171 338 L172 340 L168 341 Z M322 339 L325 336 L326 340 L333 340 L334 342 L330 344 L324 344 L322 342 Z M326 336 L328 335 L329 337 L327 338 Z M303 337 L305 335 L310 336 L308 340 L304 339 Z M287 336 L291 335 L292 337 L288 338 Z M254 335 L255 338 L251 342 L250 336 Z M221 336 L223 335 L224 337 L222 338 Z M203 336 L208 335 L211 338 L204 339 Z M174 336 L176 335 L177 337 L175 338 Z M158 336 L160 335 L161 338 L159 339 Z M351 335 L355 334 L356 336 L352 337 Z M338 334 L339 336 L336 338 L335 336 Z M232 335 L236 334 L238 336 L238 339 L236 340 L235 338 L232 337 Z M296 334 L298 333 L299 335 L297 336 Z M261 333 L262 336 L260 338 L260 343 L258 345 L255 345 L254 342 L257 339 L259 334 Z M214 334 L216 333 L217 335 L215 336 Z M191 334 L193 333 L194 336 L192 337 Z M187 333 L189 334 L188 337 L185 336 Z M348 333 L350 332 L351 334 L349 335 Z M313 333 L316 332 L317 334 L321 333 L322 335 L320 337 L314 336 Z M162 333 L164 332 L165 334 L163 335 Z M343 331 L345 332 L344 336 L342 335 Z M196 332 L198 331 L199 333 L197 334 Z M280 331 L282 330 L283 332 L281 333 Z M294 330 L296 329 L297 331 L295 332 Z M355 327 L357 328 L356 333 L354 332 Z M312 327 L314 326 L315 328 L313 329 Z M198 327 L200 326 L201 328 L199 329 Z M157 326 L159 327 L158 333 L156 332 Z M256 325 L260 328 L260 331 L257 336 L255 336 L253 333 L253 328 Z M270 325 L272 324 L273 327 L271 328 Z M241 324 L243 325 L242 329 L240 328 Z M234 324 L235 326 L232 328 L231 326 Z M320 323 L322 322 L323 324 L321 325 Z M226 322 L228 321 L229 324 L227 325 Z M217 322 L220 321 L221 323 L218 324 Z M351 321 L353 320 L354 322 L352 323 Z M245 321 L247 320 L248 322 L246 323 Z M237 321 L239 320 L240 322 L238 323 Z M275 320 L277 319 L278 321 L276 322 Z M250 320 L252 319 L253 322 L251 323 Z M266 318 L268 319 L267 323 L265 322 Z M261 318 L263 319 L262 323 L259 322 Z M184 319 L188 318 L189 322 L187 323 Z M303 317 L305 316 L306 318 L304 319 Z M207 317 L209 316 L210 318 L208 319 Z M281 315 L284 314 L285 316 L282 317 Z M295 314 L297 313 L298 315 L296 316 Z M312 311 L314 310 L316 313 L313 314 Z M198 311 L200 310 L201 312 L199 313 Z M248 307 L250 306 L251 308 L249 309 Z M288 304 L290 303 L291 305 L289 306 Z M283 304 L285 303 L286 305 L284 306 Z M216 301 L221 300 L222 302 L217 303 Z M238 296 L240 295 L241 297 L239 298 Z M317 291 L319 290 L320 292 L318 293 Z M324 289 L326 288 L327 290 L325 291 Z M338 288 L341 287 L342 289 L339 290 Z M171 288 L173 287 L174 289 L172 290 Z M245 285 L250 284 L251 288 L246 289 Z M200 283 L202 282 L203 284 L201 285 Z M334 282 L336 281 L337 283 L335 284 Z M311 282 L313 281 L314 283 L312 284 Z M176 282 L178 281 L179 283 L177 284 Z M182 281 L184 280 L186 284 L184 285 Z M338 279 L340 278 L342 282 L340 283 Z M323 278 L325 279 L324 283 L322 282 Z M317 278 L319 277 L320 279 L318 280 Z M249 280 L250 278 L255 276 L260 277 L256 281 Z M324 275 L327 274 L328 276 L325 277 Z M280 281 L281 286 L279 288 L282 290 L282 294 L280 298 L274 301 L256 302 L255 299 L258 298 L258 296 L251 295 L252 291 L256 291 L255 284 L257 283 L259 279 L263 280 L263 277 L266 276 L267 274 L270 276 L269 278 L270 279 L273 279 L275 281 L277 280 Z M339 277 L340 274 L343 273 L347 274 L346 276 L343 276 L341 278 Z M185 273 L192 278 L190 283 L188 282 L187 277 L183 276 Z M167 274 L171 273 L173 276 L171 277 L168 276 Z M330 272 L335 271 L336 273 L331 274 Z M313 274 L314 271 L317 272 L315 275 Z M307 271 L309 270 L310 273 L308 274 Z M194 271 L196 270 L197 272 L195 273 Z M174 271 L176 270 L177 272 L175 273 Z M267 270 L269 269 L270 271 L268 272 Z M258 270 L261 269 L264 270 L265 272 L259 273 Z M168 262 L170 261 L171 263 L169 264 Z M294 261 L296 260 L297 262 L295 263 Z M303 257 L307 259 L308 263 L307 266 L302 264 L304 262 L304 260 L302 259 Z M260 256 L263 255 L266 257 L266 259 L263 260 Z M304 252 L306 251 L308 255 L306 256 Z M208 251 L209 254 L206 257 L205 253 Z M293 250 L296 249 L297 251 L294 252 Z M262 249 L264 248 L267 252 L263 253 Z M216 249 L219 248 L220 251 L218 252 Z M257 247 L258 251 L254 252 L255 257 L257 257 L258 259 L255 260 L256 263 L262 262 L266 266 L259 267 L253 265 L254 270 L257 271 L256 274 L252 274 L251 272 L249 272 L248 274 L245 274 L245 277 L243 279 L241 279 L239 276 L233 279 L232 277 L234 274 L231 273 L233 269 L230 268 L230 264 L233 262 L233 259 L235 258 L237 260 L239 258 L237 256 L239 253 L243 256 L244 254 L242 251 L244 249 Z M269 247 L271 246 L275 248 L276 250 L272 251 Z M272 242 L275 241 L276 243 L273 244 Z M238 242 L240 241 L241 243 L239 244 Z M192 242 L194 241 L195 243 L193 244 Z M166 242 L169 241 L170 243 L167 244 Z M343 241 L345 240 L346 243 L344 244 Z M178 240 L180 239 L181 241 L179 242 Z M247 238 L249 237 L250 239 L248 240 Z M161 235 L163 234 L164 236 L162 237 Z M290 231 L293 230 L294 232 L291 233 Z M276 231 L278 230 L279 232 L277 233 Z M217 231 L219 230 L220 232 L218 233 Z M196 231 L198 230 L199 232 L197 233 Z M309 230 L311 229 L312 231 L310 232 Z M201 230 L203 229 L204 231 L202 232 Z M187 232 L188 229 L193 230 L192 232 L189 233 Z M180 230 L182 229 L183 231 L181 232 Z M331 229 L333 228 L334 231 L332 232 Z M288 229 L290 228 L291 230 L289 231 Z M255 229 L257 228 L258 230 L256 231 Z M299 228 L301 227 L302 230 L300 231 Z M222 228 L224 227 L225 229 L223 230 Z M232 227 L234 226 L235 228 L233 229 Z M302 225 L304 224 L305 226 L303 227 Z M272 227 L275 224 L277 225 L274 228 Z M248 223 L250 222 L251 225 L249 226 Z M285 222 L287 221 L288 223 L286 224 Z M223 222 L227 221 L228 223 L224 224 Z M319 220 L321 219 L322 222 L320 223 Z M262 220 L264 219 L265 222 L263 223 Z M254 219 L256 220 L255 224 L252 222 Z M180 218 L182 217 L183 219 L181 220 Z M207 217 L210 216 L211 218 L208 219 Z M255 215 L257 214 L258 216 L256 217 Z M259 212 L262 211 L263 213 L260 214 Z M280 211 L282 210 L283 212 L281 213 Z M200 206 L203 205 L204 208 L202 209 Z M267 206 L270 203 L272 204 L270 207 Z M241 204 L243 203 L246 206 L243 207 Z M323 205 L324 202 L327 203 L325 206 Z M187 203 L189 202 L190 205 L188 206 Z M264 201 L267 200 L268 202 L265 203 Z M245 201 L248 200 L249 202 L246 203 Z M257 199 L259 204 L256 205 L256 207 L254 208 L253 205 L255 200 Z M318 195 L319 197 L316 199 L315 197 Z M276 196 L278 195 L279 197 L277 198 Z M234 196 L236 195 L238 198 L236 199 Z M259 196 L261 194 L265 195 L264 198 L260 198 Z M250 195 L252 194 L254 197 L251 198 Z M337 194 L339 193 L340 196 L338 197 Z M231 193 L233 192 L234 194 L232 195 Z M174 192 L176 193 L175 199 L173 198 Z M236 192 L238 191 L241 194 L239 195 Z M336 191 L338 190 L339 192 L337 193 Z M279 190 L282 189 L285 192 L284 197 L279 194 L278 192 Z M255 189 L257 188 L258 190 L256 191 Z M198 192 L198 190 L202 188 L206 190 L203 193 Z M176 188 L178 187 L180 191 L177 192 Z M334 187 L336 186 L337 189 L335 190 Z M286 185 L289 184 L291 188 L287 189 Z M224 184 L228 186 L226 189 L222 188 Z M216 182 L218 181 L219 183 L217 184 Z M270 174 L272 173 L273 175 L271 176 Z M301 171 L303 170 L304 172 L302 173 Z M252 166 L254 165 L255 167 L253 168 Z M264 163 L266 162 L267 164 L265 165 Z M246 163 L248 162 L249 164 L247 165 Z M223 162 L224 159 L232 160 L230 165 Z M282 160 L288 157 L290 164 L283 165 Z M262 157 L264 156 L265 158 L263 159 Z M247 157 L250 156 L251 158 L248 159 Z M259 153 L260 155 L258 164 L255 165 L254 162 L252 162 L251 160 L254 158 L254 156 L257 153 Z M285 146 L287 145 L288 147 L286 148 Z M225 146 L227 145 L228 147 L226 148 Z M256 144 L258 145 L257 149 L254 148 Z M276 144 L278 143 L279 145 L277 146 Z M234 144 L236 143 L237 145 L235 146 Z M282 141 L284 140 L285 142 L283 143 Z M227 140 L229 139 L230 141 L228 142 Z M261 139 L263 138 L268 143 L264 145 Z M257 137 L259 136 L260 138 L258 139 Z M253 136 L254 138 L251 141 L250 145 L248 146 L246 142 L249 137 Z M233 137 L236 134 L238 135 L236 138 Z M264 134 L268 133 L270 136 L272 136 L273 134 L277 134 L282 137 L282 140 L281 141 L278 140 L270 141 Z M247 133 L248 134 L247 139 L244 142 L240 141 L239 137 L242 136 L244 133 Z M299 133 L302 132 L303 134 L300 135 Z M211 133 L213 132 L214 134 L212 135 Z M254 124 L259 123 L260 125 L256 128 Z M268 114 L270 113 L271 115 L269 116 Z M272 109 L274 108 L276 112 L273 113 Z M240 108 L241 110 L238 112 L237 110 Z M264 107 L267 110 L265 113 L263 112 Z M267 106 L269 105 L270 107 L268 108 Z M243 106 L245 105 L246 107 L244 108 Z M231 96 L233 97 L232 101 L230 100 Z M261 91 L263 90 L264 92 L262 93 Z M258 86 L260 85 L261 87 L259 88 Z M255 40 L257 39 L258 42 L256 43 Z M250 40 L252 39 L253 41 L251 42 Z M259 32 L262 35 L261 39 L258 36 Z M254 32 L255 36 L252 39 L251 35 Z M254 28 L257 27 L258 31 L256 32 Z"/></svg>
