<svg xmlns="http://www.w3.org/2000/svg" width="512" height="512" viewBox="0 0 512 512" aria-hidden="true" focusable="false"><path fill="currentColor" fill-rule="evenodd" clip-rule="evenodd" d="M237 346 L237 348 L240 350 L251 353 L261 352 L268 349 L268 347 L259 350 L247 350 Z M237 305 L238 308 L241 308 L243 310 L243 312 L248 316 L248 318 L258 319 L260 318 L259 316 L263 313 L263 310 L265 308 L269 308 L269 304 L262 305 L259 303 L254 304 L246 303 L243 305 L240 304 Z M246 310 L247 309 L251 310 L260 309 L261 311 L258 313 L249 313 Z M394 290 L393 289 L390 292 Z M266 291 L262 287 L263 293 L257 294 L255 297 L252 297 L249 294 L244 294 L243 288 L241 290 L241 295 L245 298 L255 300 L257 298 L262 298 L266 294 Z M290 267 L282 267 L276 270 L265 269 L263 273 L270 275 L280 275 L285 273 L286 271 L290 269 Z M267 262 L267 264 L270 262 L279 262 L283 264 L283 262 L279 260 L270 260 Z M290 257 L287 253 L279 250 L267 252 L261 257 L257 270 L259 269 L259 265 L261 262 L269 257 L277 255 L284 256 L288 259 Z M220 253 L216 258 L216 260 L226 255 L235 256 L237 259 L227 260 L224 263 L222 263 L220 267 L217 267 L217 269 L227 275 L237 275 L244 273 L242 269 L231 270 L223 267 L223 265 L227 262 L237 262 L242 266 L242 264 L237 260 L238 258 L240 258 L246 262 L248 270 L248 285 L250 285 L250 268 L246 258 L238 252 L231 250 Z M252 17 L245 51 L213 89 L205 108 L199 101 L193 127 L186 135 L181 130 L156 166 L142 204 L144 221 L136 212 L113 258 L105 308 L118 347 L140 364 L125 381 L115 412 L114 433 L109 440 L114 462 L122 455 L141 455 L155 461 L160 471 L165 465 L177 483 L165 443 L181 453 L199 455 L171 442 L158 410 L160 445 L136 438 L125 416 L123 404 L130 381 L142 369 L160 363 L174 378 L192 378 L197 413 L210 450 L241 477 L243 486 L254 496 L265 477 L286 463 L298 446 L313 390 L320 402 L319 413 L322 388 L334 372 L331 357 L366 370 L380 388 L384 410 L369 438 L346 446 L348 411 L338 439 L330 447 L307 455 L322 454 L341 444 L331 482 L342 464 L347 472 L348 465 L362 456 L381 454 L392 463 L398 441 L374 362 L392 347 L402 328 L407 273 L394 244 L393 223 L386 233 L385 250 L394 276 L390 284 L381 283 L383 268 L373 208 L366 223 L362 192 L350 164 L326 130 L320 134 L314 127 L308 102 L300 107 L293 89 L265 56 Z M251 487 L254 486 L255 488 L252 489 Z M254 485 L256 484 L257 486 L255 487 Z M252 479 L254 482 L250 486 L249 485 L250 480 Z M265 471 L267 470 L268 472 L266 473 Z M238 471 L240 470 L241 472 L239 473 Z M252 466 L256 468 L256 471 L254 473 L250 470 Z M236 467 L238 466 L239 469 L237 470 Z M263 465 L266 464 L267 466 L264 467 Z M239 465 L242 464 L243 466 L240 467 Z M228 465 L229 462 L232 463 L230 466 Z M276 461 L278 462 L277 465 L274 464 Z M257 459 L259 458 L260 460 L258 461 Z M247 459 L249 458 L250 460 L248 461 Z M222 457 L224 456 L225 458 L223 459 Z M261 453 L263 454 L265 459 L264 461 L260 459 Z M245 453 L247 454 L246 458 L243 457 Z M388 453 L390 452 L391 455 L389 456 Z M115 453 L117 452 L118 455 L116 456 Z M287 451 L289 450 L290 452 L288 453 Z M219 450 L220 452 L217 454 L216 452 Z M254 449 L256 448 L257 451 L255 452 Z M258 447 L261 446 L262 448 L259 449 Z M250 446 L252 447 L252 450 L255 452 L254 454 L252 454 L249 451 Z M244 447 L246 446 L247 448 L245 449 Z M291 445 L294 444 L295 446 L292 447 Z M212 445 L215 444 L216 446 L213 447 Z M376 442 L379 441 L380 444 L378 445 Z M388 441 L390 440 L391 443 L389 444 Z M115 443 L116 440 L119 441 L117 444 Z M267 440 L269 439 L270 441 L268 442 Z M125 440 L126 439 L130 440 L131 443 L127 445 Z M295 438 L297 437 L298 439 L296 440 Z M209 438 L211 437 L212 439 L210 440 Z M253 435 L256 437 L254 440 L251 438 Z M373 438 L375 434 L378 435 L375 439 Z M238 435 L240 434 L241 436 L239 437 Z M278 433 L280 434 L279 437 L276 436 Z M265 434 L267 433 L268 435 L266 436 Z M129 434 L131 433 L132 436 L130 437 Z M262 430 L264 431 L263 434 L260 433 Z M240 434 L243 430 L246 432 L245 434 L242 435 Z M297 430 L300 429 L301 432 L298 433 Z M281 430 L283 429 L284 431 L282 432 Z M206 432 L207 429 L210 430 L208 433 Z M273 427 L276 430 L274 433 L271 433 L269 430 Z M233 427 L236 429 L234 433 L231 432 L231 429 Z M249 427 L251 426 L252 428 L250 429 Z M254 426 L256 425 L257 428 L255 429 Z M383 424 L384 426 L382 428 L382 431 L380 432 L378 427 L380 424 Z M388 424 L390 423 L391 426 L389 427 Z M125 423 L128 426 L127 432 L125 431 L123 426 Z M253 422 L255 423 L254 426 L251 425 Z M228 422 L229 425 L225 427 L224 424 Z M300 422 L302 421 L303 423 L301 424 Z M204 422 L206 421 L207 423 L205 424 Z M219 416 L222 415 L223 418 L220 420 Z M387 413 L388 416 L387 419 L385 420 L384 416 Z M118 414 L120 413 L123 418 L120 419 Z M283 411 L284 418 L280 419 L279 418 L280 413 Z M303 409 L305 408 L306 410 L304 411 Z M287 409 L290 408 L291 411 L288 412 Z M251 408 L254 407 L255 410 L253 411 Z M214 408 L218 407 L220 410 L216 412 Z M270 406 L276 422 L267 427 L261 427 L254 418 L254 415 L260 407 Z M280 403 L282 402 L283 405 L281 406 Z M304 402 L307 401 L308 403 L305 404 Z M198 402 L201 401 L202 403 L199 404 Z M220 401 L222 400 L233 405 L246 407 L247 410 L253 415 L252 419 L245 427 L238 427 L234 425 L232 421 L228 419 L227 415 L223 412 L223 407 L220 405 Z M290 400 L294 399 L295 401 L291 402 Z M252 400 L255 399 L258 402 L253 403 Z M211 402 L212 399 L217 400 L216 402 L213 403 Z M279 398 L281 399 L280 403 L277 402 Z M302 394 L303 395 L302 406 L300 409 L298 420 L294 429 L294 434 L290 437 L290 442 L287 444 L287 447 L283 450 L282 453 L277 458 L270 461 L266 454 L267 449 L269 448 L270 445 L281 441 L285 437 L289 429 L289 421 L291 419 L291 416 L294 413 L295 406 L298 403 L298 399 L300 395 Z M306 394 L309 393 L310 395 L307 396 Z M256 395 L261 393 L264 396 L265 400 L264 401 L258 400 Z M276 395 L279 391 L284 394 L283 397 L281 396 L277 397 Z M250 394 L251 391 L256 392 L254 395 Z M264 391 L268 390 L269 392 L272 392 L273 395 L269 397 L268 395 L264 393 Z M227 393 L228 392 L232 393 L233 390 L236 390 L238 394 L245 392 L250 395 L250 399 L246 401 L243 397 L241 397 L241 399 L238 400 L236 396 L228 397 Z M203 389 L205 389 L207 392 L208 402 L211 406 L212 413 L217 417 L217 421 L221 424 L224 430 L228 431 L230 436 L235 437 L240 443 L241 453 L239 460 L234 461 L230 459 L224 453 L224 451 L216 441 L216 438 L213 434 L213 430 L210 427 L210 421 L208 419 L207 409 L205 406 L204 393 L202 391 Z M288 389 L290 388 L291 391 L289 392 Z M231 387 L227 393 L221 392 L219 394 L215 391 L216 387 L218 389 L228 386 Z M282 386 L284 385 L287 390 L284 391 Z M293 384 L295 383 L296 386 L294 387 Z M252 384 L254 383 L255 385 L253 386 Z M287 385 L289 382 L293 383 L291 386 Z M209 381 L210 380 L220 381 L223 384 L221 387 L218 385 L215 387 L213 385 L210 385 Z M242 382 L244 378 L253 379 L248 384 Z M293 379 L295 377 L300 378 L301 382 L299 383 L298 381 L294 381 Z M264 378 L263 382 L261 383 L256 382 L258 378 L262 377 Z M269 376 L271 377 L270 382 L267 381 Z M202 377 L205 376 L206 380 L204 381 Z M263 376 L265 375 L266 377 L264 378 Z M240 374 L241 377 L239 378 L239 381 L236 382 L233 379 L233 377 L238 376 Z M226 373 L230 374 L228 379 L226 378 L225 375 Z M278 372 L279 373 L278 378 L274 380 L273 378 Z M207 372 L210 373 L209 378 L206 377 Z M181 373 L183 372 L184 374 L182 375 Z M176 372 L178 371 L179 373 L177 374 Z M284 369 L286 370 L285 375 L282 374 Z M223 370 L225 369 L226 371 L224 372 Z M197 368 L205 367 L206 373 L204 374 L201 371 L198 371 Z M171 370 L174 367 L176 368 L174 371 Z M330 366 L331 367 L330 376 L321 384 L320 388 L318 389 L317 387 L319 382 L324 376 L325 372 L328 371 L328 367 Z M309 366 L310 369 L305 371 L306 375 L300 376 L299 371 L304 367 Z M291 366 L292 368 L289 370 L288 368 Z M218 364 L220 365 L221 369 L220 373 L217 371 Z M212 365 L214 364 L215 366 L213 367 Z M302 364 L304 363 L305 365 L303 366 Z M317 363 L319 362 L320 364 L318 365 Z M171 362 L172 365 L168 367 L167 364 Z M325 361 L327 360 L330 365 L328 366 Z M290 363 L292 360 L297 361 L295 364 Z M362 358 L364 359 L363 364 L361 363 Z M169 356 L170 357 L169 361 L166 362 L163 360 L164 357 Z M155 357 L157 356 L158 359 L156 360 Z M294 357 L297 354 L299 355 L296 358 Z M351 352 L354 353 L357 359 L355 360 L350 355 Z M161 351 L168 350 L169 353 L163 354 Z M155 349 L156 352 L153 354 L152 351 Z M178 348 L180 347 L182 350 L179 351 Z M342 346 L346 350 L345 354 L341 350 Z M296 347 L298 346 L299 348 L297 349 Z M325 346 L327 345 L328 347 L326 348 Z M209 346 L211 345 L212 347 L210 348 Z M161 345 L167 344 L168 346 L162 347 Z M182 342 L184 341 L185 343 L183 344 Z M307 340 L312 343 L310 351 L313 352 L312 355 L313 362 L308 364 L306 363 L306 360 L308 359 L308 357 L305 355 L307 344 L304 343 Z M292 341 L294 340 L295 342 L293 343 Z M196 341 L200 340 L203 341 L202 344 L197 344 L197 346 L204 348 L201 357 L206 362 L205 365 L203 363 L199 364 L197 362 L197 359 L193 356 L193 353 L197 352 L196 348 L194 347 L194 344 Z M339 339 L341 338 L342 340 L340 341 Z M180 338 L181 340 L178 342 L177 340 Z M160 338 L163 337 L167 338 L168 340 L164 342 Z M304 336 L306 335 L307 338 L305 339 Z M204 335 L206 334 L208 338 L205 339 Z M338 334 L340 332 L343 333 L342 336 L339 336 Z M318 334 L319 333 L322 334 L324 332 L332 337 L336 341 L337 345 L332 347 L327 341 L322 339 Z M295 333 L297 332 L298 335 L296 336 Z M160 332 L168 331 L169 333 L167 335 L162 335 Z M129 331 L133 333 L133 335 L146 350 L145 352 L142 351 L135 344 L128 334 Z M288 331 L290 330 L291 333 L289 334 Z M192 329 L193 331 L191 335 L187 336 L186 334 L190 329 Z M334 328 L338 330 L336 335 L332 333 Z M214 328 L215 331 L212 334 L211 332 L212 329 Z M183 329 L185 328 L186 330 L184 331 Z M369 325 L373 326 L372 368 L371 369 L367 366 L367 341 Z M173 325 L175 324 L176 326 L174 327 Z M325 323 L331 330 L330 332 L325 328 L324 325 Z M161 323 L169 324 L170 327 L167 329 L163 329 L160 326 Z M215 352 L221 340 L222 323 L224 321 L239 333 L249 337 L264 335 L283 321 L286 342 L292 349 L287 359 L280 365 L258 372 L248 372 L232 368 L225 364 Z M295 321 L298 320 L299 322 L296 323 Z M208 321 L210 320 L211 322 L209 323 Z M174 319 L177 318 L178 320 L175 321 Z M161 319 L170 318 L171 320 L168 322 L164 322 Z M151 317 L154 316 L158 319 L158 321 L153 322 Z M200 315 L201 319 L199 321 L198 326 L196 327 L195 321 L197 317 Z M181 315 L182 318 L179 320 L178 318 Z M307 313 L310 315 L314 323 L313 326 L310 326 L305 318 Z M161 313 L171 312 L172 314 L170 316 L164 316 Z M154 313 L156 312 L157 314 L155 315 Z M300 311 L302 310 L303 313 L301 314 Z M292 310 L294 311 L295 315 L294 319 L292 318 L291 315 Z M367 308 L369 306 L372 306 L373 310 L369 311 Z M195 306 L198 309 L198 311 L194 315 L192 324 L190 325 L189 318 L192 308 Z M161 306 L162 305 L172 306 L173 308 L171 310 L164 310 Z M311 304 L319 311 L320 313 L319 316 L315 316 L308 309 L308 307 Z M398 301 L400 303 L400 310 L396 314 L395 318 L399 316 L400 321 L398 325 L393 328 L393 330 L396 333 L390 340 L382 344 L382 346 L384 346 L385 348 L378 354 L375 354 L374 352 L376 350 L376 345 L381 339 L386 329 L387 323 L392 318 L392 314 L394 312 L394 306 L396 302 Z M182 300 L184 301 L183 305 L180 303 Z M163 301 L171 300 L172 302 L170 304 L165 304 Z M150 304 L153 299 L159 300 L158 302 L155 302 L152 305 Z M391 299 L392 300 L391 310 L388 317 L385 320 L381 333 L377 337 L376 336 L376 326 L379 322 L377 319 L377 316 L381 310 L381 307 L378 305 L379 299 L380 298 Z M315 301 L320 298 L327 306 L322 309 Z M175 299 L177 298 L180 302 L176 303 Z M313 298 L315 297 L316 299 L314 300 Z M168 296 L170 295 L171 297 L169 298 Z M295 292 L297 290 L300 290 L301 294 L296 295 Z M205 291 L210 290 L211 294 L207 295 Z M179 290 L181 289 L182 291 L180 292 Z M369 289 L372 288 L373 292 L371 293 Z M112 288 L116 292 L116 301 L121 302 L126 319 L129 324 L129 326 L127 327 L124 324 L123 319 L121 320 L127 338 L131 342 L131 344 L145 356 L144 361 L140 360 L135 356 L135 354 L128 351 L125 348 L126 346 L128 346 L128 344 L121 341 L114 333 L115 330 L117 331 L118 329 L112 324 L110 320 L111 312 L114 314 L114 316 L116 316 L116 310 L110 303 L110 295 Z M314 282 L316 283 L315 287 L313 286 Z M162 282 L166 280 L169 281 L170 283 L168 286 L163 286 Z M399 279 L398 285 L400 285 L401 288 L395 294 L390 296 L385 296 L379 292 L381 287 L383 288 L391 287 L396 282 L396 279 L397 278 Z M401 277 L403 276 L404 279 L402 280 Z M372 277 L374 276 L375 278 L373 279 Z M303 274 L304 279 L306 281 L303 289 L301 290 L299 288 L300 277 Z M189 278 L190 274 L194 275 L192 279 Z M343 274 L344 273 L346 274 L346 280 L350 286 L354 288 L361 287 L363 292 L356 296 L346 293 L341 287 L341 285 L344 284 Z M314 272 L317 273 L316 282 L314 281 L313 277 Z M203 272 L205 273 L205 276 L207 278 L206 281 L207 287 L205 289 L203 288 L201 281 L203 280 L202 277 Z M191 268 L193 267 L194 269 L192 270 Z M193 266 L195 265 L196 267 L194 268 Z M306 262 L310 261 L311 265 L315 269 L311 270 L305 266 Z M197 260 L200 261 L199 267 L196 266 Z M394 259 L396 258 L397 260 L395 261 Z M371 257 L373 258 L373 263 L375 267 L372 277 L370 276 L367 269 Z M197 250 L202 252 L200 257 L196 253 Z M310 248 L311 252 L307 256 L305 253 L307 249 Z M352 245 L354 246 L353 251 L350 250 Z M258 245 L265 244 L266 246 L259 247 Z M368 243 L370 242 L371 244 L369 245 Z M389 241 L391 242 L391 246 L393 250 L392 252 L390 252 L388 248 Z M352 242 L354 241 L355 244 L353 245 Z M257 241 L259 240 L260 242 L258 243 Z M247 240 L248 246 L242 247 L241 245 L245 244 L245 241 Z M263 240 L266 239 L267 241 L264 242 Z M240 240 L242 239 L243 241 L241 242 Z M252 239 L254 238 L255 240 L253 241 Z M309 237 L308 241 L305 244 L302 241 L296 240 L297 238 L301 238 L304 235 Z M209 234 L211 233 L212 235 L210 236 Z M197 234 L201 233 L203 237 L209 238 L210 240 L205 241 L205 244 L203 245 L198 240 Z M292 233 L296 232 L297 235 L295 236 Z M202 226 L204 225 L207 228 L207 230 L205 231 Z M371 224 L373 225 L374 233 L373 235 L370 234 Z M234 224 L252 229 L249 238 L239 237 L236 241 L237 248 L247 249 L252 256 L259 249 L271 247 L268 237 L257 238 L254 229 L272 224 L286 232 L294 253 L295 278 L289 302 L282 316 L258 333 L236 327 L221 311 L214 293 L212 255 L218 237 Z M207 223 L209 222 L213 224 L214 228 L213 229 L210 228 L207 225 Z M211 220 L213 219 L215 222 L213 223 Z M356 218 L359 218 L363 226 L367 228 L364 255 L359 269 L359 272 L363 274 L360 284 L354 284 L349 280 L349 271 L355 258 L358 247 L358 239 L356 233 L357 230 L359 231 L361 238 L363 238 L362 232 L356 223 L355 220 Z M151 218 L152 223 L149 229 L146 230 L145 225 L147 219 Z M251 217 L255 216 L256 218 L253 221 Z M259 217 L261 215 L264 216 L263 219 L260 219 Z M297 213 L299 214 L298 219 L301 220 L300 225 L303 223 L305 224 L304 228 L300 232 L294 229 L294 223 L292 222 Z M221 215 L225 213 L227 216 L222 217 Z M219 211 L221 215 L218 218 L216 218 L215 215 Z M263 208 L267 207 L268 209 L264 210 Z M252 208 L254 207 L255 209 L253 210 Z M240 208 L244 207 L245 209 L241 210 Z M228 207 L232 206 L234 207 L235 211 L233 215 L228 213 L227 211 Z M288 205 L289 210 L291 210 L292 208 L294 209 L294 214 L289 220 L286 221 L285 220 L286 216 L283 217 L282 215 L286 210 L286 206 Z M254 206 L256 205 L257 207 L255 208 Z M282 204 L283 205 L282 212 L278 215 L274 215 L272 211 L274 207 L278 208 L279 205 Z M258 202 L260 201 L261 203 L259 204 Z M150 193 L154 198 L154 208 L159 206 L161 209 L162 223 L161 226 L154 233 L151 244 L142 248 L132 259 L128 268 L126 278 L126 291 L129 309 L136 327 L147 343 L145 345 L135 332 L130 322 L124 302 L122 287 L123 273 L127 259 L137 246 L137 244 L128 252 L124 259 L120 273 L119 289 L116 287 L115 282 L115 264 L117 261 L120 261 L119 251 L125 240 L128 237 L130 238 L130 240 L133 239 L133 228 L137 222 L140 225 L140 231 L142 231 L144 234 L144 238 L140 246 L149 241 L149 235 L155 223 L154 214 L152 213 L151 215 L148 215 L145 210 L145 205 L147 202 L149 202 L148 194 Z M358 192 L359 193 L358 202 L361 203 L361 212 L358 215 L353 213 L352 216 L353 223 L346 224 L344 219 L345 211 L348 206 L350 207 L350 209 L352 209 L353 207 L352 200 L354 195 Z M250 193 L252 191 L255 191 L256 195 L252 196 Z M263 189 L265 188 L266 190 L264 191 Z M243 188 L244 189 L243 192 L240 193 L239 191 Z M233 187 L235 186 L236 188 L234 189 Z M273 185 L275 186 L274 190 L271 188 Z M223 184 L225 183 L226 186 L224 187 Z M208 183 L215 190 L217 195 L217 205 L215 207 L215 210 L206 219 L202 221 L195 222 L188 220 L186 218 L187 216 L196 216 L202 213 L208 206 L210 201 L210 193 L206 185 Z M254 179 L256 178 L257 180 L255 181 Z M262 177 L265 176 L266 178 L263 179 Z M252 177 L254 176 L255 178 L253 179 Z M241 177 L243 176 L244 178 L242 179 Z M216 174 L218 173 L219 175 L217 176 Z M273 173 L275 172 L276 174 L274 175 Z M268 173 L270 172 L271 175 L269 176 Z M258 173 L260 172 L261 174 L259 175 Z M246 175 L247 172 L250 173 L248 176 Z M236 173 L238 172 L239 174 L237 175 Z M231 173 L233 172 L234 174 L232 175 Z M278 172 L283 171 L284 173 L279 174 Z M221 172 L227 171 L228 173 L222 174 Z M253 165 L257 169 L256 173 L254 172 L254 169 L252 170 L251 173 L249 172 L250 168 Z M274 159 L276 158 L277 160 L275 161 Z M251 153 L254 152 L255 154 L252 155 Z M274 152 L276 151 L277 153 L275 154 Z M232 151 L233 152 L232 158 L230 159 L229 154 Z M259 151 L261 150 L262 152 L260 153 Z M263 148 L268 147 L271 151 L267 153 Z M243 148 L240 152 L236 151 L237 148 L240 147 Z M254 146 L257 145 L259 148 L255 149 Z M252 143 L254 142 L255 145 L253 146 Z M325 139 L327 139 L330 142 L333 155 L335 156 L335 153 L337 152 L342 157 L346 165 L346 169 L349 170 L352 180 L352 193 L351 194 L349 193 L349 186 L343 169 L332 158 L328 157 L336 165 L343 176 L347 190 L346 199 L344 198 L342 183 L335 170 L327 162 L314 156 L316 154 L324 157 L322 152 L322 147 L325 146 L324 142 Z M256 134 L258 133 L259 135 L257 136 Z M243 133 L245 132 L246 134 L244 135 Z M311 131 L313 131 L319 139 L318 143 L316 142 L310 133 Z M254 132 L256 131 L257 133 L255 134 Z M196 131 L197 133 L191 142 L188 143 L187 141 L189 137 L194 131 Z M262 129 L265 130 L263 135 L261 134 Z M244 130 L247 129 L248 131 L245 132 Z M252 129 L254 128 L255 130 L253 131 Z M262 120 L264 119 L265 121 L263 122 Z M254 120 L256 119 L257 121 L255 122 Z M242 120 L244 119 L245 121 L243 122 Z M202 112 L204 114 L203 121 L208 124 L208 129 L206 134 L198 142 L194 150 L193 156 L181 161 L173 167 L173 169 L169 173 L163 191 L163 198 L161 199 L160 190 L164 176 L167 170 L179 158 L179 156 L169 163 L164 169 L160 178 L158 192 L156 193 L155 192 L155 179 L157 172 L161 170 L161 164 L167 154 L170 152 L171 155 L173 156 L175 152 L175 144 L181 137 L183 138 L182 146 L185 147 L185 152 L183 157 L190 154 L191 148 L194 142 L202 131 L201 125 L199 125 L198 128 L196 127 L196 120 L200 116 L200 113 Z M305 111 L307 112 L307 116 L311 120 L311 126 L309 128 L305 127 L305 131 L316 148 L315 153 L313 152 L306 138 L300 133 L299 130 L299 123 L304 120 L303 114 Z M252 109 L254 108 L255 110 L253 111 Z M253 88 L255 89 L256 92 L255 95 L251 94 L251 91 Z M278 87 L281 88 L280 93 L276 91 Z M227 87 L231 89 L229 93 L225 92 L225 89 Z M283 83 L292 93 L292 97 L295 98 L297 102 L297 114 L294 119 L296 123 L295 125 L289 120 L292 114 L292 106 L290 100 L284 93 L282 85 Z M224 83 L225 89 L223 90 L223 93 L218 98 L214 106 L214 114 L217 121 L212 125 L211 123 L213 119 L210 115 L209 109 L210 102 L215 92 Z M253 59 L270 79 L272 92 L286 99 L286 121 L304 141 L312 160 L325 164 L338 181 L338 215 L350 238 L335 280 L342 295 L362 299 L362 355 L349 345 L347 332 L333 321 L331 304 L320 292 L321 259 L315 253 L313 229 L303 206 L295 200 L291 166 L281 161 L273 134 L266 126 L268 119 L254 77 L226 161 L214 169 L213 178 L221 189 L205 177 L192 177 L205 188 L204 205 L193 213 L174 207 L184 221 L195 226 L192 252 L186 256 L187 288 L174 278 L161 277 L146 294 L143 314 L153 344 L135 317 L130 274 L136 258 L154 247 L169 215 L168 183 L182 164 L195 160 L200 145 L221 121 L217 113 L220 100 L235 92 L238 77 Z M252 32 L254 32 L257 37 L257 50 L266 62 L266 65 L269 65 L273 70 L276 76 L276 80 L275 81 L273 80 L270 74 L255 56 L254 51 L252 51 L250 58 L248 59 L246 64 L240 69 L240 71 L236 74 L234 80 L231 82 L230 80 L233 71 L237 66 L240 66 L240 63 L248 53 L250 48 L249 38 Z"/></svg>
