<svg xmlns="http://www.w3.org/2000/svg" width="512" height="512" viewBox="0 0 512 512" aria-hidden="true" focusable="false"><path fill="currentColor" fill-rule="evenodd" clip-rule="evenodd" d="M212 459 L216 463 L220 464 L220 462 L214 458 Z M216 409 L212 410 L210 413 L213 414 L216 411 Z M314 407 L312 407 L306 413 L306 415 L311 420 L319 416 L319 413 L314 409 Z M168 405 L167 408 L164 411 L162 411 L162 413 L166 415 L169 419 L171 419 L172 416 L175 413 L177 413 L177 411 L175 411 L170 405 Z M350 399 L349 402 L344 405 L344 407 L346 407 L350 412 L352 412 L353 409 L357 407 L357 405 L352 399 Z M197 398 L197 401 L199 402 L200 399 Z M182 393 L181 396 L177 398 L176 400 L183 407 L185 407 L186 402 L191 401 L191 399 L187 397 L185 393 Z M157 393 L155 393 L149 399 L149 401 L152 402 L155 407 L163 400 Z M362 387 L359 392 L356 394 L364 401 L366 396 L370 395 L370 393 L365 390 L364 387 Z M340 387 L338 387 L332 393 L338 400 L345 394 L341 390 Z M211 386 L212 389 L215 388 Z M155 386 L155 388 L157 389 L158 387 Z M199 381 L197 381 L194 385 L190 387 L198 395 L202 390 L206 389 L206 387 L203 386 Z M171 381 L169 381 L163 387 L170 395 L172 392 L172 389 L177 388 Z M330 309 L321 310 L318 312 L318 314 L325 311 L330 311 Z M229 272 L223 279 L226 280 L231 286 L236 280 L236 278 L232 275 L231 272 Z M247 207 L251 209 L262 209 L266 207 L265 206 L262 207 L248 206 Z M246 200 L252 203 L263 202 L263 200 L260 201 L252 201 L248 199 Z M252 146 L253 164 L249 165 L249 170 L257 172 L258 174 L244 176 L249 178 L254 185 L259 185 L264 178 L269 176 L267 174 L261 175 L258 173 L259 170 L262 171 L264 169 L263 164 L259 170 L254 169 L253 167 L254 150 Z M264 155 L273 156 L283 151 L284 149 L280 148 L277 145 L269 145 L269 147 L265 149 Z M229 149 L230 151 L240 156 L249 154 L248 149 L245 149 L243 145 L237 145 Z M262 144 L259 149 L259 161 L260 161 L260 150 Z M256 129 L254 136 L257 139 L259 137 L259 134 Z M256 17 L251 50 L240 74 L243 81 L217 117 L203 108 L217 164 L212 196 L203 198 L194 212 L190 196 L179 190 L176 179 L171 180 L168 174 L160 190 L152 191 L157 216 L170 234 L160 289 L162 305 L170 317 L184 315 L195 303 L205 280 L212 298 L212 315 L194 343 L144 374 L138 384 L136 404 L126 395 L100 398 L107 406 L119 406 L122 421 L135 431 L135 443 L129 443 L131 460 L138 470 L133 482 L144 491 L190 496 L365 492 L379 484 L375 470 L382 460 L383 443 L378 443 L378 431 L389 424 L392 408 L406 406 L412 396 L404 399 L387 395 L377 403 L373 382 L358 368 L357 357 L347 353 L348 345 L361 331 L346 295 L349 269 L334 223 L314 209 L310 198 L301 196 L302 183 L296 171 L310 108 L296 117 L270 81 L272 73 L261 47 Z M136 479 L139 478 L151 483 L165 485 L213 487 L332 486 L357 484 L374 478 L377 479 L377 483 L371 488 L345 493 L215 495 L181 494 L177 492 L167 493 L140 487 L136 483 Z M139 475 L142 474 L143 476 L140 477 Z M313 473 L315 472 L316 474 L314 475 Z M341 472 L343 471 L346 474 L344 475 Z M159 472 L161 471 L162 473 L160 474 Z M256 470 L259 472 L261 476 L257 484 L254 482 L252 478 Z M168 470 L170 469 L171 471 L169 472 Z M285 469 L287 468 L288 470 L286 471 Z M307 464 L310 467 L309 471 L307 470 L306 466 Z M269 464 L272 465 L271 475 L269 474 L268 468 Z M206 464 L207 465 L206 470 L204 471 L203 467 Z M194 465 L196 464 L197 466 L195 467 Z M245 463 L246 464 L244 468 L245 472 L242 475 L240 471 L241 465 Z M357 459 L360 462 L360 469 L358 470 L355 467 L351 469 L351 471 L347 474 L346 471 L348 466 L355 459 Z M346 460 L348 459 L349 462 L347 463 Z M333 460 L335 459 L336 462 L334 463 Z M333 463 L334 466 L333 473 L331 473 L329 471 L329 468 L327 468 L327 470 L324 471 L321 476 L318 477 L316 476 L321 467 L321 465 L319 465 L318 463 L322 459 L325 459 L326 461 L330 461 Z M156 459 L160 460 L165 466 L166 470 L168 471 L167 474 L165 474 L162 471 L162 469 L160 469 L159 467 L157 467 L155 470 L153 469 L153 462 Z M264 460 L267 458 L269 459 L268 462 L265 462 Z M177 460 L180 459 L181 461 L187 461 L188 458 L191 459 L194 462 L193 464 L191 464 L191 466 L197 476 L188 477 L185 474 L186 468 L184 468 L184 471 L181 474 L179 472 L180 463 L178 463 Z M275 457 L277 458 L277 461 L281 459 L283 463 L283 469 L281 470 L280 467 L278 466 L277 472 L275 471 L275 467 L273 463 L273 459 Z M379 456 L380 457 L379 460 L373 465 L372 464 L373 461 Z M256 456 L260 459 L262 458 L264 459 L263 463 L267 469 L267 475 L264 479 L262 478 L262 474 L257 466 L251 474 L250 479 L246 475 L246 468 L249 462 Z M248 456 L250 459 L246 463 L244 459 Z M371 456 L373 455 L374 457 L372 458 Z M152 456 L154 455 L155 457 L153 458 Z M353 455 L355 454 L356 456 L354 457 Z M300 454 L307 461 L307 463 L304 464 L305 472 L302 475 L300 470 L298 469 L296 472 L294 472 L291 475 L289 473 L291 467 L289 466 L287 468 L286 465 L291 460 L293 461 L293 464 L301 460 L300 458 L296 460 L294 459 L297 455 Z M278 455 L281 454 L286 460 L285 461 L282 460 Z M232 454 L241 460 L238 463 L239 466 L237 472 L235 471 L235 469 L233 470 L230 469 L229 465 L230 461 L227 460 Z M213 454 L215 454 L226 464 L225 466 L222 467 L225 475 L224 477 L221 476 L219 472 L215 469 L213 470 L211 475 L208 472 L209 464 L207 464 L206 461 L209 460 L209 458 Z M157 455 L159 454 L160 456 L158 457 Z M329 453 L331 454 L330 457 L327 456 Z M314 453 L318 457 L318 459 L312 465 L310 461 L308 460 L308 458 Z M199 453 L205 458 L201 466 L195 459 L195 457 Z M182 454 L184 453 L186 456 L183 457 Z M135 453 L138 453 L141 456 L141 458 L139 459 L140 462 L139 464 L134 461 L133 455 Z M355 453 L358 452 L359 454 L356 455 Z M343 452 L346 455 L347 459 L341 463 L337 458 L337 455 Z M303 453 L307 452 L308 454 L304 455 Z M288 455 L289 452 L295 453 L291 457 Z M267 453 L275 452 L276 454 L270 458 Z M237 453 L245 452 L246 454 L243 457 L241 457 Z M218 453 L226 452 L227 456 L223 458 Z M205 453 L209 452 L210 454 L207 456 Z M170 452 L176 457 L172 463 L167 458 L167 455 Z M333 452 L337 451 L338 453 L334 454 Z M318 452 L324 451 L325 453 L322 456 L320 456 Z M188 452 L194 451 L195 454 L191 456 Z M176 452 L179 451 L180 453 L177 454 Z M347 451 L351 450 L352 452 L349 454 Z M161 451 L165 450 L166 452 L163 454 Z M369 449 L371 451 L371 455 L366 459 L364 456 L364 453 Z M144 449 L149 453 L149 456 L147 459 L142 455 L142 451 Z M360 449 L362 448 L363 450 L361 451 Z M150 449 L152 448 L153 450 L151 451 Z M372 446 L374 445 L375 448 L373 449 Z M256 445 L263 452 L262 457 L257 453 L257 450 L252 457 L250 456 L250 452 Z M365 443 L367 442 L368 444 L366 445 Z M145 443 L147 442 L148 444 L146 445 Z M370 442 L372 441 L373 443 L371 444 Z M365 444 L364 446 L360 447 L338 448 L337 449 L313 449 L312 450 L264 450 L261 447 L262 444 L310 444 L311 443 L337 443 L352 441 L361 441 L362 443 Z M148 444 L151 443 L152 441 L161 441 L175 443 L200 443 L201 444 L251 444 L252 446 L249 450 L201 450 L200 449 L175 449 L174 448 L153 447 L149 446 Z M140 442 L142 441 L143 443 L141 444 Z M223 435 L224 434 L255 434 L256 435 L258 434 L293 434 L294 438 L293 439 L224 439 Z M334 433 L340 432 L341 434 L335 435 Z M172 433 L182 432 L183 434 L173 435 Z M302 431 L305 430 L306 433 L326 433 L327 435 L326 436 L303 436 Z M212 431 L211 436 L188 436 L187 435 L188 433 L208 433 L209 430 Z M273 430 L274 429 L284 429 L285 431 L284 432 L274 432 Z M235 430 L240 429 L241 431 L236 432 Z M230 430 L233 429 L234 431 L231 432 Z M183 429 L184 428 L194 428 L195 430 L194 431 L184 431 Z M358 427 L359 424 L365 425 L364 427 L361 428 Z M287 425 L293 424 L294 426 L288 427 Z M379 426 L382 423 L384 424 L382 427 Z M372 426 L368 433 L362 435 L357 434 L359 430 L365 429 L368 423 Z M148 425 L150 423 L154 423 L156 427 L151 428 Z M142 425 L145 423 L146 427 L150 430 L154 430 L156 434 L150 435 L144 433 Z M129 424 L133 423 L134 426 L131 427 Z M273 422 L277 421 L281 425 L277 426 Z M220 422 L221 420 L224 419 L229 420 L228 422 L225 423 Z M141 418 L143 417 L144 419 L142 420 Z M388 416 L389 417 L388 421 L384 423 L382 419 Z M238 416 L239 419 L237 426 L228 427 L227 425 L231 422 L231 419 Z M153 416 L155 415 L156 417 L154 418 Z M256 415 L258 414 L259 416 L257 417 Z M238 414 L240 413 L242 416 L239 417 Z M148 414 L151 413 L152 415 L149 416 Z M376 411 L380 414 L378 419 L376 418 L375 415 Z M249 411 L251 413 L250 415 L248 415 L248 418 L250 419 L250 426 L243 427 L242 424 L246 423 L246 421 L243 420 L244 414 Z M133 408 L134 412 L137 412 L138 415 L133 420 L126 422 L124 416 L125 415 L131 416 L132 415 L131 409 Z M257 408 L259 407 L260 409 L258 410 Z M242 405 L244 404 L245 406 L243 407 Z M123 405 L125 404 L126 406 L124 407 Z M375 404 L377 403 L378 405 L376 406 Z M392 402 L393 404 L388 407 L387 405 Z M265 403 L268 402 L269 404 L266 405 Z M257 403 L260 402 L261 404 L258 405 Z M401 402 L405 401 L406 403 L402 404 Z M107 402 L111 400 L115 401 L114 404 L108 404 Z M284 399 L285 400 L284 405 L286 406 L286 408 L282 411 L282 413 L286 417 L281 418 L280 416 L278 416 L275 419 L274 418 L275 410 L280 405 L278 402 Z M126 400 L128 399 L130 402 L128 403 Z M389 398 L395 397 L396 399 L390 400 Z M117 398 L121 397 L122 399 L118 400 Z M336 424 L330 425 L326 420 L323 420 L321 423 L318 424 L311 423 L310 428 L305 428 L304 426 L306 425 L306 423 L303 422 L301 418 L299 418 L296 422 L287 421 L286 419 L294 413 L291 410 L289 410 L288 407 L286 406 L287 398 L289 396 L291 397 L291 404 L296 410 L299 411 L298 415 L301 414 L300 410 L308 404 L313 404 L316 397 L320 395 L322 397 L320 404 L323 405 L323 408 L325 410 L327 409 L333 410 L333 414 L331 415 L331 417 L335 420 Z M264 396 L266 395 L267 397 L265 398 Z M257 396 L259 395 L260 398 L258 399 Z M274 393 L278 394 L280 397 L276 399 L273 396 Z M247 393 L249 394 L249 402 L251 405 L248 411 L245 410 Z M238 387 L243 392 L240 393 L234 400 L243 408 L243 410 L235 415 L233 410 L235 405 L232 404 L232 406 L229 407 L225 403 L228 402 L229 399 L231 398 L231 396 L228 395 L228 392 L233 390 L235 387 Z M270 385 L272 386 L271 390 L269 389 Z M261 387 L263 384 L267 385 L265 388 Z M277 384 L279 383 L280 385 L278 386 Z M284 383 L287 382 L288 385 L286 386 Z M268 381 L270 380 L271 382 L269 383 Z M276 380 L278 379 L279 381 L277 382 Z M229 379 L233 378 L234 382 L231 383 Z M278 377 L288 376 L289 379 L285 382 L282 382 L281 380 L278 379 Z M326 378 L327 375 L333 376 L330 379 Z M215 375 L219 374 L223 379 L219 380 Z M230 374 L232 373 L233 375 L231 376 Z M295 372 L296 374 L294 378 L294 384 L292 385 L291 378 L293 373 Z M239 373 L242 372 L243 375 L240 376 Z M205 371 L210 373 L208 378 L205 376 L204 373 Z M218 371 L227 370 L228 372 L219 373 Z M334 366 L335 369 L329 372 L328 369 Z M224 367 L226 366 L227 368 L225 369 Z M338 365 L345 367 L348 370 L348 373 L350 373 L349 368 L352 367 L356 370 L354 373 L359 374 L361 378 L366 377 L368 380 L367 383 L373 389 L374 398 L368 405 L370 410 L366 415 L357 415 L357 421 L352 424 L348 421 L342 426 L339 426 L338 422 L343 419 L344 416 L339 410 L336 410 L333 407 L333 404 L320 391 L322 386 L326 390 L332 389 L333 384 L341 384 L340 382 L332 382 L332 379 L345 378 L346 380 L344 383 L351 389 L353 385 L357 383 L351 378 L351 376 L348 378 L342 377 L341 374 L344 372 L337 368 Z M286 366 L288 365 L289 367 L287 368 Z M282 365 L283 367 L279 370 L278 367 Z M186 368 L191 365 L195 365 L198 367 L197 370 L193 371 L187 370 Z M261 364 L262 371 L259 373 L259 375 L262 377 L262 379 L258 381 L255 379 L254 371 Z M247 364 L253 370 L253 376 L252 379 L248 381 L249 384 L248 386 L244 384 L244 378 L246 375 L248 375 L245 371 Z M239 367 L240 364 L244 365 L241 368 Z M217 365 L219 364 L220 367 L218 368 Z M225 364 L227 363 L228 365 L226 366 Z M213 362 L214 365 L210 367 L209 364 Z M293 361 L295 362 L294 366 L291 364 Z M265 360 L268 363 L267 368 L263 367 L263 362 Z M353 359 L355 360 L356 364 L355 366 L350 363 L350 361 Z M204 359 L207 360 L206 365 L203 363 Z M175 361 L181 359 L182 362 L185 363 L186 368 L181 370 L177 367 Z M144 379 L159 366 L158 372 L152 376 L158 382 L165 377 L161 372 L162 364 L174 358 L175 362 L167 367 L171 373 L181 370 L193 375 L184 374 L176 378 L169 376 L170 378 L178 378 L183 382 L190 378 L199 378 L204 382 L207 380 L216 381 L216 385 L220 382 L224 384 L219 388 L229 396 L221 402 L211 393 L205 399 L211 403 L212 407 L219 401 L222 405 L225 404 L226 406 L219 411 L224 417 L218 419 L211 417 L207 421 L208 415 L197 405 L190 413 L198 419 L204 414 L205 422 L191 424 L183 417 L176 425 L172 425 L171 422 L165 424 L158 418 L158 411 L152 414 L145 405 L140 403 L139 392 L141 391 L144 395 L151 388 Z M197 358 L199 357 L200 359 L198 360 Z M276 354 L277 353 L281 354 L286 359 L278 360 L276 357 Z M269 354 L271 353 L275 358 L274 359 L270 358 Z M190 354 L193 353 L194 356 L191 357 Z M339 356 L341 352 L344 354 L342 357 Z M318 353 L325 359 L323 361 L324 367 L321 382 L315 395 L313 396 L312 394 L316 385 L316 382 L314 382 L308 399 L306 400 L305 397 L310 381 L308 381 L302 401 L300 402 L299 397 L304 378 L302 378 L297 398 L295 399 L294 393 L298 373 L295 371 L295 369 L308 356 L309 353 L312 352 Z M212 355 L218 352 L222 352 L226 354 L225 357 L215 358 Z M241 350 L243 349 L244 351 L242 352 Z M235 349 L236 352 L230 355 L229 351 Z M312 348 L315 347 L316 349 L313 350 Z M335 347 L337 346 L338 348 L336 349 Z M265 347 L267 346 L268 348 L266 349 Z M197 346 L203 345 L209 350 L210 354 L208 355 L202 352 L201 349 L198 348 Z M280 344 L281 347 L276 352 L275 351 L276 345 Z M337 344 L339 343 L340 345 L338 346 Z M217 345 L219 343 L224 344 L226 349 L220 350 L217 347 Z M268 342 L270 341 L271 343 L269 344 Z M270 339 L272 338 L273 340 L271 341 Z M261 339 L263 338 L264 340 L262 341 Z M255 336 L256 338 L252 341 L251 338 Z M238 336 L240 335 L241 337 L239 338 Z M203 335 L205 336 L206 339 L205 343 L201 342 L201 337 Z M300 334 L301 342 L299 343 L298 346 L294 346 L294 349 L302 348 L303 350 L300 353 L298 352 L294 353 L293 358 L291 357 L288 358 L287 356 L289 355 L291 349 L287 346 L287 343 L288 342 L294 343 L295 339 L298 338 L298 335 Z M220 332 L222 331 L223 333 L221 334 Z M265 331 L267 330 L268 332 L266 333 Z M241 331 L243 330 L244 332 L242 333 Z M255 324 L257 323 L258 325 L256 326 Z M229 324 L231 323 L232 325 L230 326 Z M298 323 L300 322 L301 324 L299 325 Z M236 321 L238 321 L240 324 L239 328 L236 328 L234 326 L234 323 Z M253 321 L255 320 L256 322 L254 323 Z M291 316 L287 321 L283 321 L282 324 L280 323 L280 319 L282 317 L285 317 L287 315 Z M345 315 L348 312 L350 316 L346 317 Z M236 312 L238 311 L239 313 L237 314 Z M235 312 L233 316 L225 319 L217 320 L214 317 L216 314 L221 315 L228 314 L229 312 L233 311 Z M255 309 L256 311 L254 315 L248 322 L243 322 L241 320 L242 318 L249 316 L252 311 Z M256 306 L258 305 L259 307 L257 308 Z M232 305 L234 306 L233 310 L231 309 Z M247 303 L249 302 L250 304 L248 305 Z M234 300 L236 299 L237 301 L235 302 Z M300 299 L302 298 L303 301 L301 302 Z M341 297 L343 296 L344 298 L342 299 Z M250 292 L252 291 L253 293 L251 294 Z M193 292 L195 291 L196 293 L194 294 Z M293 285 L294 292 L291 294 L289 298 L290 307 L288 308 L286 304 L284 304 L282 308 L279 310 L280 315 L278 320 L276 321 L273 317 L270 322 L266 324 L265 322 L269 315 L275 312 L272 308 L280 299 L278 297 L280 290 L282 289 L286 294 L287 291 L290 289 L290 287 Z M245 287 L248 285 L249 287 L252 286 L253 288 L251 291 L248 291 Z M255 285 L257 284 L258 286 L256 287 Z M311 286 L328 283 L331 287 L334 287 L338 293 L341 325 L333 344 L324 338 L312 336 L316 315 L314 313 L309 289 Z M320 276 L322 275 L323 277 L321 278 Z M194 274 L200 277 L196 291 L194 290 L194 279 L193 278 Z M336 272 L338 273 L337 278 L335 277 Z M289 272 L294 276 L295 281 L293 284 L288 283 L287 277 Z M337 271 L339 270 L340 272 L338 273 Z M282 269 L286 271 L283 275 L280 272 Z M324 269 L326 268 L327 270 L325 271 Z M329 267 L331 266 L332 268 L330 269 Z M255 265 L259 267 L257 271 L253 268 Z M169 265 L178 268 L184 268 L189 266 L191 267 L191 294 L189 298 L189 301 L191 303 L182 313 L178 315 L173 315 L168 311 L163 298 L163 286 Z M218 265 L220 264 L221 266 L219 267 Z M287 263 L288 265 L284 267 L283 265 Z M298 261 L303 262 L303 268 L301 270 L296 264 Z M270 260 L272 259 L273 261 L271 262 Z M179 258 L183 257 L184 259 L180 260 Z M244 255 L245 258 L243 260 L240 260 L238 265 L235 265 L245 276 L244 278 L246 280 L245 283 L242 284 L236 290 L239 293 L239 295 L234 298 L230 297 L227 300 L216 301 L214 299 L214 295 L216 294 L220 298 L225 292 L225 290 L222 289 L220 285 L218 285 L214 291 L211 289 L211 281 L214 280 L214 278 L210 277 L208 270 L210 268 L216 268 L217 271 L219 272 L224 267 L223 263 L226 260 L231 261 L233 258 Z M228 253 L230 252 L231 254 L229 255 Z M304 251 L306 250 L307 252 L305 253 Z M298 251 L300 250 L301 252 L299 253 Z M222 251 L225 250 L226 252 L223 253 Z M295 249 L296 252 L293 257 L295 257 L296 259 L292 263 L288 261 L287 257 L289 253 L292 252 L293 249 Z M257 249 L258 251 L255 253 L254 251 Z M222 247 L224 246 L225 248 L223 249 Z M279 244 L280 247 L278 250 L276 250 L275 248 Z M269 244 L270 247 L267 250 L266 248 L267 245 Z M245 244 L247 243 L248 245 L246 246 Z M313 242 L315 241 L316 243 L314 244 Z M269 242 L272 240 L275 242 L275 244 L270 245 Z M311 239 L312 241 L309 247 L307 248 L306 246 L309 240 Z M297 237 L301 241 L299 246 L297 245 L296 241 Z M308 234 L309 236 L306 239 L305 237 Z M300 230 L304 233 L303 237 L299 234 Z M255 230 L257 229 L258 232 L256 233 Z M304 227 L306 226 L307 229 L305 230 Z M242 227 L244 226 L245 228 L243 229 Z M272 225 L274 224 L275 227 L273 228 Z M312 222 L314 221 L315 223 L313 224 Z M306 220 L307 223 L304 225 L303 222 Z M324 218 L331 224 L335 232 L333 233 L330 230 L330 228 L327 228 L326 233 L322 234 L322 236 L325 236 L328 242 L332 243 L328 248 L331 248 L333 246 L332 244 L333 238 L336 236 L338 240 L338 244 L336 248 L341 254 L334 255 L331 252 L329 252 L327 256 L320 259 L316 259 L314 262 L311 263 L310 261 L312 259 L308 255 L309 251 L313 250 L316 254 L318 254 L323 248 L315 240 L315 238 L318 236 L315 234 L315 236 L313 237 L312 233 L314 231 L317 231 L317 229 L322 225 L322 222 L320 220 Z M314 219 L316 218 L317 220 L315 221 Z M312 214 L314 213 L315 215 L313 216 Z M216 210 L218 212 L218 215 L214 215 L213 217 L220 219 L221 224 L226 226 L226 230 L231 230 L233 236 L238 235 L239 239 L236 241 L216 246 L206 252 L204 251 L205 245 L201 243 L201 257 L199 258 L195 254 L197 250 L197 247 L194 243 L194 235 L196 231 L195 216 L199 213 Z M290 202 L295 201 L298 204 L292 205 Z M223 201 L225 200 L226 202 L224 203 Z M220 200 L221 202 L218 205 L216 205 L215 203 Z M158 196 L160 197 L159 202 L157 201 Z M232 206 L237 199 L239 189 L251 196 L256 197 L262 196 L274 189 L276 200 L281 206 L281 208 L276 213 L265 215 L262 217 L263 219 L265 217 L272 216 L273 218 L269 221 L263 223 L258 222 L250 223 L238 217 L240 215 L251 219 L250 216 L234 212 Z M214 186 L216 185 L217 187 L215 188 Z M224 183 L226 182 L227 185 L225 186 Z M165 182 L168 183 L167 208 L169 208 L169 193 L172 186 L175 187 L175 208 L177 208 L176 195 L178 192 L181 194 L182 208 L184 208 L184 197 L186 196 L188 198 L189 208 L194 223 L194 228 L191 236 L191 247 L188 249 L181 250 L172 246 L174 236 L166 226 L166 224 L163 222 L164 216 L162 211 L162 193 Z M286 182 L288 181 L289 183 L287 184 Z M287 165 L290 164 L291 166 L288 167 Z M222 165 L225 164 L226 166 L223 167 Z M219 158 L221 157 L222 159 L220 160 Z M291 152 L293 151 L294 153 L292 154 Z M219 151 L221 150 L222 152 L220 153 Z M298 133 L300 132 L301 134 L299 135 Z M256 117 L275 121 L281 127 L285 137 L284 139 L269 137 L263 142 L273 139 L287 141 L286 160 L279 179 L272 187 L260 194 L250 193 L236 182 L226 156 L227 140 L240 139 L250 142 L244 137 L229 139 L232 127 L240 120 Z M260 101 L262 100 L263 102 L261 103 Z M250 101 L252 100 L253 102 L251 103 Z M264 95 L266 94 L267 96 L265 97 Z M246 84 L248 83 L249 85 L247 86 Z M264 85 L267 82 L269 83 L266 86 Z M255 81 L257 80 L258 82 L256 83 Z M255 50 L257 49 L258 52 L256 53 Z M255 29 L257 28 L258 30 L256 31 Z"/></svg>
