<svg xmlns="http://www.w3.org/2000/svg" width="512" height="512" viewBox="0 0 512 512" aria-hidden="true" focusable="false"><path fill="currentColor" fill-rule="evenodd" clip-rule="evenodd" d="M213 478 L219 483 L232 487 L247 487 L254 485 L261 481 L259 480 L255 483 L244 486 L234 486 L222 483 L215 478 Z M209 474 L208 472 L204 470 L192 470 L184 474 L178 475 L167 472 L175 476 L184 476 L196 471 L202 471 Z M226 469 L229 472 L247 473 L250 471 L248 470 L244 472 L236 472 Z M206 448 L207 450 L217 450 L219 452 L221 451 L220 449 L212 447 Z M175 369 L175 373 L173 377 L173 384 L175 386 L179 386 L180 377 L177 369 Z M176 377 L178 378 L177 384 L175 383 Z M168 356 L166 367 L170 370 L172 368 L171 357 Z M175 342 L173 351 L176 355 L178 355 L180 352 L178 342 Z M169 323 L166 331 L166 338 L168 340 L171 340 L173 338 L173 331 L171 328 L171 323 Z M169 331 L171 332 L170 338 L168 337 Z M176 311 L176 315 L174 318 L174 324 L177 327 L179 327 L181 325 L181 319 L179 315 L179 311 Z M177 319 L179 320 L178 324 L176 323 Z M173 310 L169 312 L172 313 Z M270 154 L264 152 L256 154 L254 158 L259 157 L260 160 L265 161 L262 164 L259 164 L258 162 L256 162 L256 167 L259 168 L266 167 L270 163 L270 161 L267 161 L266 158 L261 158 L260 156 L261 155 L270 156 Z M182 118 L184 120 L190 121 L190 119 L186 117 Z M278 17 L267 38 L230 84 L219 112 L215 139 L197 109 L180 105 L165 114 L150 143 L151 199 L166 213 L169 227 L162 236 L160 275 L173 306 L188 274 L204 283 L251 295 L254 304 L249 317 L251 328 L246 328 L200 398 L198 428 L190 427 L184 419 L192 411 L191 403 L185 398 L173 400 L167 383 L164 398 L173 402 L165 421 L155 422 L152 432 L146 429 L151 428 L148 422 L133 432 L138 419 L153 419 L150 415 L137 417 L131 433 L138 438 L128 442 L127 449 L148 468 L164 470 L148 466 L139 453 L128 447 L130 444 L137 451 L143 442 L150 441 L143 452 L157 465 L185 468 L205 464 L234 480 L250 479 L275 457 L292 457 L280 454 L261 463 L265 455 L277 449 L299 453 L301 459 L294 460 L307 469 L317 469 L324 461 L321 451 L310 453 L311 458 L316 457 L313 463 L303 457 L305 447 L315 442 L329 448 L331 465 L323 474 L308 477 L293 465 L273 464 L274 473 L267 471 L265 475 L275 479 L261 489 L229 494 L200 478 L173 483 L146 475 L119 451 L127 433 L118 442 L121 457 L146 477 L175 485 L201 480 L231 496 L255 494 L271 483 L284 489 L296 481 L318 485 L325 479 L335 479 L375 456 L385 439 L394 436 L387 431 L375 446 L378 450 L361 457 L363 462 L347 465 L346 472 L333 472 L332 478 L324 477 L333 466 L342 468 L343 463 L355 458 L354 448 L363 449 L372 443 L376 431 L367 422 L369 418 L380 426 L381 436 L382 426 L374 413 L380 414 L387 407 L388 378 L375 392 L375 399 L370 398 L357 414 L350 398 L350 380 L346 378 L353 419 L348 429 L335 420 L335 399 L325 384 L341 373 L333 369 L337 350 L361 362 L360 378 L365 384 L376 365 L376 355 L354 333 L354 327 L368 311 L368 301 L356 288 L362 283 L362 268 L359 265 L345 286 L347 302 L335 294 L330 282 L334 233 L328 203 L320 195 L328 168 L306 188 L308 177 L325 156 L329 126 L314 83 L281 33 Z M275 484 L278 483 L279 481 L285 481 L287 485 L284 487 L278 487 Z M313 483 L314 479 L320 480 L318 483 L315 484 Z M298 476 L300 475 L305 478 L310 479 L311 483 L309 484 L304 481 L299 480 Z M293 475 L295 476 L294 480 L292 479 Z M289 471 L292 469 L295 473 L291 474 Z M308 466 L310 465 L311 467 L309 468 Z M280 465 L285 464 L289 466 L288 468 L284 469 L281 472 L282 475 L284 475 L285 472 L287 473 L287 476 L290 478 L289 481 L287 481 L286 479 L281 480 L277 477 L276 470 Z M335 456 L338 457 L339 461 L338 463 L334 462 Z M320 453 L322 456 L322 461 L318 466 L313 468 L312 466 L318 461 L319 459 L318 454 Z M264 454 L261 457 L250 457 L249 456 L250 454 L259 453 Z M343 450 L344 453 L343 456 L341 457 L339 454 Z M155 450 L157 448 L160 448 L164 454 L170 455 L171 457 L170 458 L161 457 L155 452 Z M348 446 L351 453 L349 457 L343 461 L342 459 L346 455 L346 447 Z M179 447 L180 446 L183 447 L185 451 L182 453 Z M303 446 L300 451 L296 451 L294 449 L296 446 L300 445 Z M177 453 L176 454 L167 453 L164 451 L165 447 L167 446 L170 448 L173 445 L175 445 Z M172 457 L186 454 L188 451 L187 448 L188 446 L193 448 L195 451 L194 454 L189 457 L190 458 L194 457 L194 455 L197 453 L197 450 L193 448 L193 445 L196 444 L202 451 L201 456 L203 459 L211 460 L213 462 L214 460 L209 458 L210 456 L213 456 L225 467 L227 464 L235 468 L236 467 L244 468 L251 464 L255 465 L258 464 L261 466 L261 468 L259 470 L254 470 L256 473 L249 477 L233 478 L222 474 L211 464 L206 462 L201 462 L200 460 L189 462 L186 465 L177 467 L176 465 L178 462 L187 460 L187 458 L175 460 Z M329 444 L336 443 L339 448 L339 451 L335 454 Z M280 445 L285 443 L290 444 L289 447 L281 447 Z M202 446 L207 443 L218 444 L223 448 L228 448 L232 452 L233 455 L236 452 L242 452 L247 455 L246 457 L236 459 L224 454 L229 459 L235 461 L241 461 L249 458 L258 459 L259 462 L258 463 L251 462 L244 466 L237 466 L230 463 L227 463 L225 465 L217 456 L213 454 L205 454 Z M183 442 L188 441 L190 444 L186 447 L183 445 Z M136 442 L138 441 L139 444 L137 445 Z M173 441 L178 440 L179 443 L174 444 Z M146 448 L148 446 L155 445 L156 442 L161 442 L165 440 L166 443 L154 448 L153 452 L160 459 L173 460 L174 465 L172 466 L169 465 L168 463 L159 463 L154 461 L150 457 L150 454 L146 452 Z M293 440 L298 439 L301 442 L298 444 L294 442 Z M169 439 L171 440 L170 445 L168 444 Z M319 438 L326 437 L327 439 L324 441 L321 441 Z M186 437 L187 436 L192 438 L208 437 L211 438 L212 440 L205 441 L202 443 L197 443 L190 441 Z M355 435 L358 437 L356 442 L353 441 Z M279 436 L281 435 L284 439 L280 440 Z M261 435 L263 436 L263 440 L259 441 L258 437 Z M349 434 L350 435 L349 440 L345 442 L344 447 L341 447 L340 446 L341 438 L344 435 Z M272 434 L274 440 L270 441 L271 446 L267 447 L264 445 L263 442 L267 440 L270 434 Z M249 434 L251 435 L255 443 L253 448 L250 448 L249 444 L246 443 L248 440 Z M172 435 L181 433 L185 435 L186 437 L185 438 L173 438 Z M357 432 L361 431 L367 435 L366 438 L361 441 L360 436 Z M318 433 L325 431 L332 431 L333 433 L338 433 L340 436 L338 440 L336 441 L331 436 L319 435 Z M263 432 L265 431 L266 434 L264 435 Z M251 433 L255 431 L258 434 L254 436 Z M191 432 L200 431 L202 434 L199 436 L192 436 Z M286 431 L288 430 L289 432 L287 433 Z M372 429 L373 437 L371 441 L367 445 L359 447 L357 444 L364 442 L369 437 L370 430 Z M305 430 L307 429 L308 432 L306 433 Z M363 429 L366 428 L367 431 L365 432 Z M274 429 L277 428 L278 430 L275 431 Z M208 429 L210 428 L211 431 L209 432 Z M319 428 L323 427 L324 429 L320 430 Z M266 427 L268 426 L269 429 L267 430 Z M176 427 L178 426 L179 429 L177 430 Z M351 430 L352 425 L359 426 L358 428 L354 428 L353 431 Z M284 425 L286 429 L283 434 L278 433 L277 431 L280 429 L281 426 Z M139 429 L141 425 L144 426 L145 436 L147 434 L152 434 L158 437 L162 435 L163 433 L167 433 L168 435 L166 438 L163 438 L160 440 L155 440 L151 438 L144 439 L139 434 Z M336 424 L338 423 L339 425 L337 426 Z M308 423 L309 426 L305 428 L304 426 Z M233 422 L241 430 L244 426 L247 428 L248 427 L254 428 L253 430 L248 430 L247 433 L242 433 L242 436 L239 437 L242 442 L247 445 L248 449 L247 451 L244 450 L242 445 L238 445 L236 441 L234 440 L236 438 L236 434 L234 433 L231 427 L231 424 Z M334 421 L335 422 L334 427 L332 428 L331 424 Z M260 422 L262 421 L263 424 L261 425 Z M249 424 L249 422 L252 420 L256 421 L255 423 L251 425 Z M199 420 L201 419 L202 421 L200 422 Z M268 418 L269 420 L266 422 L265 420 Z M238 417 L242 418 L244 425 L243 427 L239 426 L237 419 Z M233 418 L235 417 L236 420 L234 421 Z M215 417 L219 418 L218 426 L221 428 L221 430 L218 431 L218 435 L220 439 L219 441 L217 440 L214 434 L213 424 Z M206 418 L208 417 L211 420 L211 422 L209 423 Z M169 417 L174 424 L173 429 L163 431 L156 435 L154 432 L157 430 L157 427 L162 426 L164 424 L168 425 L167 418 Z M307 415 L311 417 L310 423 L306 419 Z M208 415 L210 414 L211 416 L209 417 Z M179 413 L182 415 L182 420 L188 428 L185 432 L181 431 L182 426 L178 418 Z M222 413 L224 412 L225 414 L223 415 Z M369 412 L371 411 L372 413 L370 414 Z M236 411 L238 410 L240 414 L237 415 Z M329 410 L332 409 L334 414 L331 415 Z M278 409 L280 408 L281 410 L279 411 Z M296 406 L298 408 L301 418 L297 419 L297 421 L295 422 L294 430 L290 428 L288 425 L288 422 L292 420 L291 417 L285 417 L286 419 L285 422 L283 420 L275 419 L276 417 L279 417 L281 413 L287 410 L289 410 L292 414 L295 411 L293 407 Z M174 405 L176 406 L175 409 L176 418 L175 419 L172 417 L172 408 Z M273 405 L275 404 L276 407 L274 408 Z M208 405 L210 404 L212 408 L210 409 Z M370 403 L372 407 L366 412 L366 417 L362 418 L363 423 L361 424 L359 421 L359 416 L363 414 L364 406 Z M202 403 L207 406 L209 411 L208 413 L205 412 L205 409 L201 408 Z M375 402 L377 403 L377 406 L373 407 L372 404 Z M304 403 L306 402 L307 404 L305 405 Z M313 401 L316 402 L319 412 L318 422 L315 429 L312 428 L314 419 L314 408 L312 405 Z M178 401 L183 400 L189 404 L190 409 L186 414 L182 412 L183 409 L186 410 L185 406 L178 405 L177 404 Z M324 399 L326 398 L327 401 L325 402 Z M286 399 L289 398 L292 404 L288 405 L286 402 Z M277 399 L281 398 L282 401 L279 402 Z M228 398 L231 397 L232 399 L229 400 Z M224 397 L226 402 L229 405 L225 412 L223 411 L225 406 L223 406 L221 413 L217 415 L216 414 L217 409 L222 398 Z M311 396 L312 398 L309 400 L308 398 Z M323 396 L325 395 L326 397 L324 398 Z M281 396 L283 395 L284 397 L282 398 Z M166 395 L169 394 L170 397 L167 399 Z M379 391 L382 392 L382 397 L385 399 L386 402 L384 409 L381 411 L378 408 L379 399 L377 397 L377 393 Z M274 390 L276 389 L277 391 L275 392 Z M249 389 L251 390 L252 396 L254 397 L254 400 L256 401 L257 404 L256 407 L254 406 L253 403 L251 403 L251 405 L248 406 L249 414 L250 415 L252 412 L255 411 L257 406 L261 407 L259 409 L261 416 L256 420 L254 418 L248 419 L243 409 L240 408 L241 404 L245 405 L245 400 L243 400 L242 398 L248 396 Z M242 389 L243 392 L236 403 L228 422 L227 431 L228 439 L230 443 L228 445 L224 437 L224 423 L230 406 L233 403 L239 391 Z M290 386 L292 392 L286 396 L285 393 L283 392 L283 389 L285 388 L287 391 L288 387 Z M283 384 L284 387 L281 388 L280 391 L278 391 L277 388 L281 384 Z M252 385 L254 384 L255 386 L253 387 Z M213 384 L216 386 L214 390 L217 394 L217 397 L208 402 L206 393 L211 390 L210 385 Z M246 383 L247 386 L243 390 L242 389 L243 385 Z M219 388 L221 383 L223 383 L226 386 L222 390 Z M306 382 L308 381 L309 384 L307 385 Z M320 382 L314 387 L311 386 L317 380 Z M285 380 L286 379 L289 380 L290 383 L286 384 Z M261 379 L265 382 L265 387 L262 389 L262 391 L267 390 L269 394 L272 394 L274 397 L273 403 L270 404 L274 412 L273 414 L268 413 L267 407 L263 406 L266 403 L266 400 L268 397 L264 396 L263 398 L260 397 L261 393 L258 393 L255 391 L255 389 L258 388 L258 385 Z M249 379 L250 382 L247 384 L246 381 Z M268 378 L270 377 L271 380 L269 381 Z M252 375 L253 377 L250 380 L249 377 Z M220 375 L222 376 L221 381 L219 380 Z M223 374 L226 373 L227 377 L225 378 Z M276 372 L281 383 L277 384 L276 387 L269 388 L268 386 L276 381 L275 376 L271 378 L270 374 Z M252 373 L254 372 L255 375 L253 376 Z M297 372 L299 371 L300 373 L298 374 Z M265 371 L267 372 L266 377 L263 376 Z M231 370 L235 371 L235 375 L233 378 L230 377 Z M325 370 L328 369 L329 371 L326 372 Z M288 370 L291 369 L292 374 L294 376 L296 375 L302 376 L303 380 L302 385 L306 386 L303 389 L303 391 L305 390 L307 391 L307 394 L305 396 L298 397 L297 399 L294 398 L292 392 L295 390 L300 380 L294 379 L293 381 L291 381 L290 375 L287 374 Z M254 370 L256 369 L257 371 L255 372 Z M221 369 L227 368 L228 370 L222 371 Z M249 368 L250 370 L241 380 L242 384 L237 385 L238 390 L234 395 L231 395 L230 393 L228 393 L227 391 L245 367 Z M237 368 L239 367 L240 369 L238 370 Z M272 367 L274 366 L275 369 L273 370 Z M312 365 L314 367 L313 373 L310 376 L310 378 L306 381 L303 373 L301 373 L300 370 L301 369 L304 370 L305 365 L307 366 Z M299 366 L301 365 L302 368 L300 369 Z M259 365 L260 367 L257 369 L256 367 Z M270 364 L273 363 L274 365 L271 366 Z M279 361 L286 364 L284 367 L283 373 L280 373 L278 371 L278 369 L280 368 L278 363 Z M253 362 L255 361 L256 363 L254 364 Z M288 361 L290 360 L291 362 L293 362 L295 366 L291 367 Z M234 361 L237 360 L239 365 L235 366 L233 364 Z M227 361 L230 360 L231 363 L228 364 Z M316 360 L319 359 L320 361 L317 362 Z M257 360 L259 359 L260 361 L258 362 Z M306 358 L309 357 L310 360 L313 360 L314 362 L309 363 Z M303 357 L304 359 L300 363 L299 358 Z M262 358 L264 357 L265 359 L263 360 Z M312 357 L315 356 L316 359 L313 360 Z M292 357 L295 356 L296 360 L294 361 Z M244 357 L248 356 L249 358 L245 359 Z M233 355 L235 354 L236 356 L234 357 Z M264 354 L266 353 L267 355 L265 356 Z M326 351 L328 357 L332 357 L333 359 L330 360 L330 364 L323 369 L323 373 L318 375 L318 378 L316 379 L315 374 L318 371 L318 368 L326 363 L323 361 L325 358 L325 356 L323 355 L323 352 Z M254 352 L256 351 L257 353 L255 354 Z M331 351 L333 350 L334 352 L332 353 Z M369 349 L373 354 L374 363 L371 369 L367 373 L364 374 L363 372 L366 370 L365 361 L368 357 L367 350 Z M297 349 L298 348 L302 349 L308 348 L309 351 L303 352 L302 354 L300 354 Z M289 350 L295 348 L296 352 L290 353 Z M283 349 L286 348 L287 350 L284 351 Z M329 346 L331 347 L330 350 L327 349 Z M313 347 L316 345 L319 345 L320 351 L317 352 L316 350 L313 349 Z M241 344 L243 343 L244 345 L242 346 Z M265 343 L267 342 L268 344 L266 345 Z M289 340 L287 343 L281 342 L282 340 L286 339 Z M269 340 L271 339 L272 341 L270 342 Z M259 340 L261 339 L262 341 L260 342 Z M289 338 L290 337 L295 338 L296 340 L292 341 Z M247 337 L251 336 L253 340 L252 341 L248 340 Z M302 338 L306 335 L310 341 L303 343 Z M254 336 L256 335 L257 337 L255 338 Z M313 334 L315 333 L317 337 L315 338 Z M332 333 L331 340 L326 341 L327 344 L326 346 L321 346 L320 342 L325 338 L329 332 Z M313 329 L315 328 L316 330 L314 331 Z M306 328 L308 329 L307 334 L305 333 Z M320 328 L323 327 L324 329 L321 330 Z M349 324 L352 325 L350 330 L348 329 Z M275 324 L277 323 L278 325 L276 326 Z M265 322 L268 324 L266 327 L263 325 Z M335 320 L344 323 L346 325 L346 333 L350 340 L350 343 L347 344 L346 341 L344 340 L341 332 L341 328 L339 328 L340 336 L343 342 L346 343 L348 347 L352 344 L356 344 L360 347 L363 353 L361 358 L352 355 L341 348 L338 342 L338 338 L336 337 L333 330 L333 324 Z M287 321 L289 320 L290 322 L288 323 Z M316 319 L320 320 L319 327 L315 324 Z M292 318 L296 317 L297 319 L293 320 Z M297 315 L299 313 L302 314 L301 317 L298 317 Z M325 311 L332 317 L331 321 L329 321 L325 317 L324 313 Z M351 306 L353 305 L354 307 L352 308 Z M325 302 L327 301 L328 304 L338 312 L341 313 L352 312 L353 314 L347 318 L336 317 L326 307 Z M322 299 L324 298 L325 300 L323 301 Z M268 298 L271 299 L272 302 L271 306 L268 304 L267 301 Z M258 296 L264 297 L262 299 L264 305 L263 307 L259 306 L257 300 Z M358 293 L361 299 L365 300 L366 309 L363 316 L360 319 L349 322 L348 321 L349 319 L355 318 L358 316 L356 312 L359 306 L359 303 L354 295 L355 293 Z M346 291 L349 290 L350 292 L347 293 Z M272 293 L275 290 L288 295 L298 295 L305 293 L307 296 L307 299 L294 310 L287 312 L284 309 L278 308 L277 306 L278 302 L274 301 Z M353 281 L354 283 L349 287 L348 286 L349 283 Z M322 280 L324 281 L324 283 L327 283 L329 285 L332 294 L340 302 L348 306 L347 311 L340 311 L336 309 L328 301 L321 283 Z M358 277 L360 278 L359 283 L357 282 Z M310 275 L313 275 L315 279 L315 285 L318 294 L317 298 L313 297 L312 295 L308 293 L307 281 Z M302 272 L304 271 L305 273 L303 274 Z M303 274 L305 281 L304 285 L301 288 L288 289 L282 286 L282 284 L297 270 Z M245 264 L248 263 L249 265 L246 266 Z M318 261 L322 262 L322 273 L324 273 L324 265 L325 264 L327 265 L327 275 L323 276 L322 278 L317 277 L317 262 Z M325 257 L327 256 L328 259 L326 260 Z M321 254 L323 253 L324 255 L322 256 Z M295 267 L276 286 L264 294 L239 290 L208 279 L208 277 L212 275 L212 266 L261 273 L278 253 L283 254 L285 256 L285 261 L291 261 Z M291 252 L294 251 L295 253 L292 254 Z M327 249 L329 250 L328 255 L326 254 Z M164 247 L166 246 L167 248 L165 249 Z M323 245 L325 246 L324 250 L322 249 Z M241 244 L243 244 L244 247 L247 246 L252 247 L251 256 L247 259 L246 263 L244 262 L244 259 L240 258 L240 256 L238 256 L237 260 L234 257 L235 250 L240 248 Z M241 240 L244 239 L245 241 L242 242 Z M280 236 L281 238 L280 241 L278 242 L277 239 Z M273 236 L266 251 L263 251 L261 248 L258 249 L256 248 L256 244 L260 240 L264 240 L270 235 Z M167 233 L177 232 L184 235 L188 239 L195 262 L197 263 L194 273 L185 271 L177 263 L175 258 L164 254 L167 251 L173 251 L173 249 L170 249 L169 246 L175 245 L175 243 L171 242 L165 243 L164 242 L165 240 L171 238 L171 236 L167 237 L165 236 Z M285 230 L286 232 L282 236 L281 233 L283 230 Z M315 229 L321 231 L323 233 L323 236 L315 258 L310 267 L308 268 L305 265 L306 259 L311 255 L311 253 L306 255 L302 252 L303 250 L302 242 L294 243 L290 239 L301 231 L308 229 Z M190 226 L194 225 L201 228 L234 235 L235 240 L232 243 L231 257 L235 266 L232 267 L217 265 L211 262 L204 261 L202 259 L198 259 L191 240 L187 235 Z M290 224 L292 223 L293 225 L291 226 Z M274 222 L276 221 L277 223 L275 224 Z M208 221 L210 220 L211 223 L209 224 Z M177 220 L179 219 L180 221 L178 222 Z M298 216 L299 213 L302 214 L300 217 Z M217 207 L218 206 L221 207 L240 206 L244 210 L241 217 L248 221 L247 229 L251 229 L252 234 L250 236 L240 237 L239 235 L241 229 L238 229 L236 225 L234 225 L236 230 L235 232 L216 228 L215 226 L217 219 L221 217 Z M306 204 L311 202 L319 206 L323 210 L327 219 L319 220 L319 222 L327 226 L330 231 L329 234 L321 228 L312 226 L304 227 L298 230 L296 229 L296 227 L299 226 L299 222 L301 220 L303 221 L303 223 L308 222 L308 220 L304 221 L302 220 L305 216 L312 213 L319 214 L319 211 L314 209 L307 211 L306 208 L304 207 Z M193 202 L204 205 L204 209 L201 212 L203 216 L203 220 L201 224 L195 223 L192 221 L192 203 Z M249 187 L250 186 L254 187 L255 191 L253 192 Z M212 187 L214 186 L215 188 L213 189 Z M219 184 L222 185 L221 191 L217 188 Z M314 183 L316 182 L317 184 L315 185 Z M319 182 L322 181 L323 183 L320 184 Z M233 182 L235 181 L236 183 L234 184 Z M194 180 L196 179 L197 181 L195 182 Z M222 177 L224 177 L226 180 L223 184 L219 180 Z M201 177 L204 179 L211 193 L221 202 L220 204 L215 202 L200 201 L193 198 L195 189 Z M197 173 L199 172 L200 174 L198 175 Z M283 172 L285 171 L286 174 L284 175 Z M181 172 L183 171 L184 173 L182 174 Z M243 170 L248 171 L248 180 L250 182 L249 186 L246 184 L242 172 Z M215 171 L221 170 L222 174 L220 175 L216 173 Z M214 166 L217 165 L218 167 L215 168 Z M286 159 L289 158 L290 162 L287 163 Z M153 157 L157 159 L167 160 L167 167 L170 183 L165 196 L164 202 L165 207 L164 208 L159 206 L154 200 L152 189 L152 158 Z M216 149 L218 150 L218 153 L222 162 L221 164 L219 163 L215 153 Z M276 149 L278 148 L279 150 L277 151 Z M195 147 L197 146 L198 149 L196 150 Z M214 145 L216 144 L217 147 L215 148 Z M245 144 L251 144 L253 142 L265 143 L283 165 L279 182 L282 183 L282 188 L290 200 L280 212 L273 216 L264 215 L259 207 L272 208 L272 206 L264 206 L263 203 L274 200 L274 198 L269 200 L266 198 L271 195 L277 187 L263 196 L257 196 L254 193 L255 191 L260 190 L264 182 L254 182 L259 179 L259 176 L253 180 L250 178 L250 162 L248 162 L247 166 L241 165 L241 159 L247 160 L246 157 L239 155 L241 147 Z M323 142 L325 141 L326 144 L324 145 Z M270 135 L273 134 L274 136 L271 137 Z M182 132 L183 136 L186 139 L185 153 L177 171 L172 177 L169 163 L170 142 L178 135 L179 132 Z M325 128 L327 129 L326 137 L324 136 Z M218 128 L220 127 L221 130 L219 131 Z M324 122 L326 123 L325 127 L323 126 Z M246 123 L248 122 L249 124 L247 125 Z M219 121 L221 120 L222 122 L220 123 Z M322 118 L324 117 L325 120 L323 121 Z M321 115 L323 114 L324 116 L322 117 Z M320 112 L322 111 L323 113 L321 114 Z M196 112 L195 114 L184 111 L183 113 L194 119 L192 125 L190 126 L182 122 L181 124 L186 126 L188 128 L187 130 L180 129 L179 132 L171 139 L165 141 L166 143 L165 145 L163 146 L159 145 L157 148 L154 146 L156 135 L161 123 L170 111 L179 108 L187 108 Z M318 104 L320 105 L322 109 L321 111 L319 110 L317 106 Z M225 103 L227 102 L228 104 L226 105 Z M315 101 L317 100 L318 102 L316 103 Z M262 99 L264 98 L265 100 L263 101 Z M232 90 L233 92 L230 95 L229 93 Z M309 89 L311 88 L314 93 L312 94 Z M244 70 L246 69 L247 71 L245 72 Z M268 65 L270 64 L271 67 L269 68 Z M275 35 L289 52 L294 69 L303 78 L303 91 L310 94 L308 102 L315 105 L319 114 L322 137 L315 159 L318 163 L312 170 L307 166 L294 177 L301 148 L301 128 L298 125 L290 133 L283 120 L278 117 L280 110 L275 102 L274 67 L269 63 L273 58 L272 48 L255 96 L256 101 L250 109 L251 114 L245 115 L237 133 L230 135 L240 169 L239 172 L232 173 L223 145 L225 115 L229 104 L234 103 L234 94 L240 92 L242 79 L248 71 L253 70 L258 55 L263 51 L261 47 L267 46 L267 41 L272 40 Z"/></svg>
