<svg xmlns="http://www.w3.org/2000/svg" width="512" height="512" viewBox="0 0 512 512" aria-hidden="true" focusable="false"><path fill="currentColor" fill-rule="evenodd" clip-rule="evenodd" d="M496 242 L494 242 L494 245 L492 248 L487 250 L486 254 L482 258 L481 261 L479 261 L478 259 L472 259 L470 260 L468 265 L343 265 L339 262 L333 265 L333 267 L337 268 L339 271 L344 267 L457 267 L459 269 L463 268 L464 273 L470 274 L481 273 L487 270 L492 263 L493 255 L496 254 Z M473 268 L476 267 L477 269 L474 270 Z M483 266 L485 265 L486 267 L484 268 Z M468 265 L471 266 L469 271 L467 270 Z M491 250 L494 251 L493 255 L489 253 Z M330 267 L330 265 L303 261 L300 263 L300 273 L297 273 L296 269 L290 272 L289 270 L296 263 L290 266 L286 262 L277 261 L274 258 L275 254 L269 252 L269 248 L261 249 L256 237 L254 237 L249 250 L242 248 L241 254 L237 254 L236 260 L216 264 L216 269 L211 268 L209 261 L199 261 L195 264 L188 263 L180 266 L172 262 L168 265 L45 265 L42 259 L32 261 L25 249 L19 250 L20 245 L17 242 L17 253 L20 256 L22 265 L29 272 L39 274 L48 273 L57 267 L167 267 L171 271 L176 267 L186 267 L201 273 L202 265 L204 264 L207 268 L205 273 L210 275 L224 272 L233 272 L242 275 L243 272 L248 275 L263 275 L266 272 L272 275 L278 272 L287 272 L300 275 L304 274 L303 270 L305 267 L310 270 L310 273 Z M211 271 L213 270 L214 272 L212 273 Z M43 265 L46 266 L45 271 L43 270 L42 267 Z M27 266 L30 265 L31 269 L29 270 Z M313 265 L315 264 L318 268 L314 269 Z M191 266 L196 264 L197 268 L193 269 Z M276 264 L279 263 L282 265 L288 265 L289 270 L287 271 L282 270 L281 268 L277 268 Z M236 264 L230 270 L224 271 L222 270 L222 266 L225 264 L228 267 L230 267 L232 263 Z M270 261 L273 262 L271 268 L275 270 L272 273 L270 273 L269 270 L263 269 L264 266 L269 266 L268 263 Z M235 271 L236 269 L240 268 L238 263 L239 261 L244 264 L243 267 L247 268 L246 271 L242 270 L241 273 Z M261 254 L263 255 L264 258 L263 261 L260 258 Z M255 254 L257 255 L260 262 L260 267 L256 271 L254 270 L251 263 L252 258 Z M248 255 L250 254 L251 257 L249 258 Z M266 252 L269 255 L268 260 L265 257 Z M244 252 L246 253 L245 261 L242 259 L242 255 Z M255 242 L259 245 L259 248 L261 249 L261 253 L257 254 L256 251 L254 251 L254 253 L251 255 L250 249 L252 248 L252 245 Z"/></svg>
