<svg xmlns="http://www.w3.org/2000/svg" width="512" height="512" viewBox="0 0 512 512" aria-hidden="true" focusable="false"><path fill="currentColor" fill-rule="evenodd" clip-rule="evenodd" d="M232 271 L234 274 L236 273 Z M195 266 L197 270 L194 271 L194 273 L196 273 L200 277 L207 278 L212 276 L212 274 L209 274 L205 271 L205 267 Z M197 270 L201 269 L202 273 L201 274 L198 273 Z M273 260 L273 262 L275 262 L275 260 Z M280 258 L278 258 L278 260 Z M232 258 L233 260 L236 259 Z M229 258 L226 258 L226 260 L222 263 L220 262 L220 260 L218 260 L217 262 L208 264 L208 266 L211 268 L216 268 L223 264 L225 265 L222 271 L220 272 L214 271 L214 273 L216 274 L216 277 L221 278 L222 276 L225 276 L225 273 L223 272 L223 270 L226 268 L231 269 L231 267 L225 265 L226 263 L230 263 Z M218 274 L220 273 L221 275 L219 276 Z M495 248 L493 240 L489 250 L482 258 L482 263 L480 264 L474 262 L470 265 L469 268 L338 268 L336 266 L332 268 L324 268 L320 266 L318 271 L311 274 L311 270 L317 268 L317 266 L309 266 L307 268 L306 274 L302 275 L296 269 L303 267 L304 264 L300 264 L291 259 L286 261 L285 258 L283 258 L282 263 L287 264 L286 266 L284 266 L284 268 L287 268 L288 264 L290 264 L294 268 L294 272 L292 270 L289 270 L289 272 L287 273 L288 277 L294 278 L295 274 L309 278 L321 271 L329 271 L334 274 L338 272 L467 272 L468 274 L466 275 L466 277 L480 278 L485 276 L483 270 L484 265 L486 266 L486 269 L492 269 L493 265 L491 265 L489 268 L487 266 L489 262 L493 262 Z M291 274 L293 273 L294 275 L292 276 Z M469 270 L474 269 L475 271 L470 272 Z M335 269 L337 268 L338 271 L336 272 Z M477 265 L481 268 L481 271 L478 275 L475 274 L477 271 L476 267 Z M484 260 L486 259 L487 262 L485 263 Z M489 251 L492 250 L493 252 L490 253 Z M18 240 L17 254 L19 257 L19 267 L20 269 L26 269 L26 266 L29 265 L30 268 L27 276 L33 278 L46 277 L54 272 L174 272 L178 274 L179 272 L190 271 L192 268 L192 266 L188 268 L179 268 L178 266 L174 268 L43 268 L43 271 L41 272 L40 267 L42 265 L40 263 L35 262 L29 264 L25 261 L26 259 L29 260 L30 258 L28 257 L28 253 L25 251 L20 241 Z M174 270 L177 268 L180 269 L179 272 L175 272 Z M34 265 L36 266 L35 271 L37 273 L36 276 L31 271 Z M22 262 L24 263 L25 266 L24 268 L21 266 Z M255 233 L252 245 L249 247 L244 257 L244 262 L243 263 L239 262 L239 264 L237 265 L238 271 L240 272 L238 277 L241 278 L254 277 L255 279 L260 277 L272 278 L275 275 L280 273 L282 269 L280 268 L279 272 L275 273 L274 275 L272 274 L272 271 L266 271 L264 273 L260 271 L261 269 L266 268 L275 269 L275 265 L268 262 L267 260 L268 256 L265 252 L265 249 L260 243 L257 233 Z M240 269 L246 268 L247 271 L243 272 Z M255 261 L259 265 L258 274 L254 274 L251 272 Z M247 257 L250 258 L248 263 L246 262 Z M261 256 L265 255 L266 260 L265 261 L262 260 Z M254 255 L256 254 L257 256 L255 257 Z M255 241 L258 242 L260 249 L262 250 L261 254 L258 252 L257 249 L255 249 L253 255 L250 253 L250 250 L252 249 L252 245 Z"/></svg>
