<svg xmlns="http://www.w3.org/2000/svg" width="512" height="512" viewBox="0 0 512 512" aria-hidden="true" focusable="false"><path fill="currentColor" fill-rule="evenodd" clip-rule="evenodd" d="M17 252 L18 265 L22 274 L27 274 L26 279 L31 282 L43 282 L50 277 L186 277 L190 280 L203 277 L215 281 L274 280 L275 278 L266 275 L258 262 L259 257 L268 263 L267 267 L272 268 L271 272 L275 271 L280 276 L278 280 L300 281 L310 277 L318 277 L321 280 L327 277 L464 277 L471 282 L485 281 L486 274 L491 275 L487 271 L493 271 L493 266 L496 265 L496 253 L494 253 L485 265 L486 270 L468 271 L463 275 L327 275 L322 271 L316 275 L300 271 L299 275 L295 275 L288 271 L289 266 L286 260 L280 266 L277 265 L276 261 L272 262 L275 256 L266 249 L258 230 L254 235 L257 238 L256 244 L254 245 L253 241 L250 241 L247 250 L240 255 L240 259 L233 267 L227 266 L229 263 L227 260 L224 272 L216 270 L198 275 L192 271 L186 275 L50 275 L46 271 L42 272 L41 269 L32 271 L24 258 L21 259 L19 252 Z M321 275 L323 274 L324 276 L322 277 Z M304 275 L306 274 L307 276 L305 277 Z M301 275 L303 274 L304 276 L302 277 Z M281 275 L283 274 L284 276 L282 277 Z M43 275 L45 274 L46 276 L44 277 Z M29 274 L31 275 L30 279 L28 278 Z M467 273 L469 274 L468 278 L466 277 Z M211 273 L214 274 L213 278 L209 276 Z M189 274 L192 273 L193 277 L190 278 Z M482 273 L484 272 L485 274 L483 275 Z M255 273 L257 272 L258 275 L256 276 Z M214 273 L217 272 L218 274 L215 275 Z M479 271 L481 276 L479 279 L476 280 L475 279 L476 272 Z M40 271 L41 274 L38 275 L38 279 L36 280 L33 274 L35 271 Z M24 271 L26 270 L27 272 L25 273 Z M284 267 L286 268 L285 272 L283 271 Z M240 260 L242 261 L241 265 L239 264 Z M255 258 L254 264 L252 265 L247 273 L247 276 L244 278 L236 278 L235 276 L238 274 L241 274 L240 271 L244 270 L243 266 L248 265 L247 261 L251 256 Z M249 249 L252 248 L253 250 L250 251 Z"/></svg>
