<svg xmlns="http://www.w3.org/2000/svg" width="512" height="512" viewBox="0 0 512 512" aria-hidden="true" focusable="false"><path fill="currentColor" fill-rule="evenodd" clip-rule="evenodd" d="M495 249 L494 248 L491 251 L490 248 L488 247 L485 250 L485 252 L482 254 L481 258 L472 256 L469 257 L468 261 L465 263 L321 263 L320 261 L314 259 L311 263 L307 263 L305 261 L280 258 L278 259 L278 261 L286 260 L287 262 L281 264 L280 266 L278 266 L278 268 L280 268 L281 266 L288 265 L289 269 L292 270 L306 263 L309 265 L312 265 L314 268 L317 268 L319 265 L457 265 L459 268 L467 271 L479 271 L484 269 L486 258 L489 259 L488 264 L490 263 L492 254 L495 253 Z M467 263 L469 262 L470 265 L468 266 Z M313 263 L315 262 L316 264 L314 265 Z M297 262 L298 264 L295 266 L294 264 Z M289 263 L292 262 L294 265 L290 266 Z M476 258 L479 261 L479 267 L470 269 L469 267 L474 264 L474 259 Z M493 242 L493 245 L495 245 L495 242 Z M17 241 L17 253 L19 254 L22 263 L24 264 L23 259 L26 258 L27 262 L29 263 L28 269 L33 271 L46 271 L56 265 L196 265 L202 268 L209 263 L217 266 L218 262 L221 264 L220 268 L225 270 L228 269 L229 265 L237 268 L240 267 L241 270 L276 269 L276 264 L273 263 L276 256 L270 253 L269 248 L267 251 L265 251 L259 242 L257 242 L250 256 L248 255 L249 248 L247 249 L245 255 L241 255 L242 260 L238 260 L240 265 L237 266 L229 262 L230 260 L235 260 L235 258 L211 261 L209 263 L205 263 L202 259 L195 263 L45 263 L42 256 L35 256 L35 258 L32 259 L27 250 L21 251 L20 249 L23 248 L23 246 L21 246 L19 241 Z M43 264 L45 263 L46 265 L44 266 Z M227 261 L228 263 L223 267 L222 263 Z M198 262 L201 261 L203 264 L199 265 Z M249 260 L251 261 L250 267 L247 266 Z M258 259 L261 262 L260 267 L256 265 L256 261 Z M35 258 L42 259 L42 262 L39 263 L41 267 L40 269 L34 267 L33 262 Z M257 255 L259 254 L260 256 L258 257 Z M255 248 L260 246 L261 249 L263 249 L264 251 L262 253 L256 252 Z"/></svg>
