<svg xmlns="http://www.w3.org/2000/svg" width="512" height="512" viewBox="0 0 512 512" aria-hidden="true" focusable="false"><path fill="currentColor" fill-rule="evenodd" clip-rule="evenodd" d="M254 256 L247 260 L245 264 L245 271 L249 277 L254 279 L259 279 L266 274 L268 270 L268 265 L263 258 Z M255 260 L259 261 L263 266 L263 270 L258 275 L253 274 L249 268 L250 264 Z M238 290 L238 286 L235 284 L231 291 L224 288 L217 294 L215 292 L218 289 L199 291 L188 286 L187 280 L179 280 L168 289 L159 290 L179 277 L192 278 L206 286 L220 283 L227 272 L227 264 L220 248 L216 252 L204 254 L201 259 L201 264 L206 269 L213 267 L213 265 L207 264 L210 257 L215 257 L220 262 L220 273 L210 281 L203 280 L188 271 L176 270 L173 271 L177 273 L176 275 L152 288 L136 291 L124 290 L114 285 L108 275 L110 265 L117 260 L123 262 L126 266 L122 275 L116 272 L119 278 L126 279 L133 274 L133 262 L129 257 L121 254 L109 257 L102 266 L101 274 L94 275 L90 284 L87 284 L83 279 L84 275 L89 276 L87 271 L69 267 L71 272 L77 275 L81 287 L62 271 L50 272 L41 282 L26 282 L22 279 L17 281 L17 286 L20 288 L26 285 L64 285 L61 282 L49 281 L51 278 L57 277 L77 291 L88 295 L114 295 L115 293 L120 295 L210 295 L223 298 L233 295 Z M177 289 L183 288 L184 290 L178 291 Z M91 286 L93 284 L98 284 L96 280 L99 279 L110 291 L109 292 L97 291 L92 289 Z M224 242 L226 256 L236 262 L236 275 L225 285 L238 278 L246 286 L242 301 L255 319 L270 302 L266 286 L275 278 L286 286 L282 291 L275 285 L275 291 L289 298 L303 295 L425 295 L455 277 L464 281 L448 285 L486 285 L492 288 L496 284 L493 279 L471 282 L464 273 L451 271 L431 288 L435 275 L443 267 L427 270 L424 276 L428 275 L429 279 L422 284 L419 275 L411 274 L409 263 L395 254 L384 257 L378 266 L379 273 L386 279 L397 273 L391 275 L387 272 L391 261 L398 261 L404 268 L401 282 L388 290 L358 287 L336 275 L339 271 L335 270 L324 271 L303 281 L293 274 L292 263 L303 257 L306 263 L299 266 L307 269 L311 258 L292 248 L285 271 L294 284 L307 286 L320 278 L333 277 L353 289 L349 291 L333 280 L325 280 L326 284 L319 289 L296 290 L295 294 L286 280 L276 275 L277 262 L288 253 L288 241 L278 246 L280 229 L257 194 L234 225 L234 246 L228 243 L228 239 Z M329 289 L335 288 L336 290 L330 291 Z M251 288 L261 288 L265 292 L266 295 L265 301 L262 303 L262 306 L257 311 L250 305 L250 303 L247 300 L247 293 Z M421 286 L420 289 L411 292 L403 291 L413 279 L417 280 L417 282 L414 284 L419 284 Z M254 251 L264 253 L269 258 L272 265 L272 271 L270 276 L264 282 L259 284 L250 283 L243 277 L241 273 L242 260 L247 254 Z M275 249 L277 250 L277 252 L281 250 L283 251 L283 255 L280 258 L275 258 L272 254 L272 252 Z M256 226 L259 228 L261 233 L264 236 L264 243 L260 247 L252 247 L248 242 L248 237 L251 234 L251 231 Z M257 202 L264 213 L264 220 L268 219 L275 230 L276 234 L275 245 L270 251 L266 249 L266 246 L269 241 L268 234 L264 230 L263 226 L259 221 L255 219 L244 235 L244 243 L247 248 L241 252 L237 258 L233 258 L230 256 L229 251 L230 250 L235 251 L236 248 L239 248 L236 238 L237 231 L244 219 L248 220 L249 212 L252 206 Z"/></svg>
