<svg xmlns="http://www.w3.org/2000/svg" width="512" height="512" viewBox="0 0 512 512" aria-hidden="true" focusable="false"><path fill="currentColor" fill-rule="evenodd" clip-rule="evenodd" d="M269 188 L272 188 L277 184 L283 184 L291 188 L297 184 L296 183 L292 184 L284 178 L278 178 L275 179 L269 185 Z M216 184 L219 187 L225 187 L229 184 L235 184 L241 188 L244 188 L244 185 L236 178 L229 178 L221 184 L218 183 Z M267 169 L267 171 L270 171 L275 168 L283 167 L295 173 L297 172 L294 166 L287 161 L277 161 L273 163 Z M258 17 L236 52 L237 62 L230 58 L221 80 L204 93 L195 130 L190 127 L186 110 L180 110 L182 100 L171 88 L165 129 L168 141 L177 148 L177 163 L158 169 L159 163 L118 137 L120 167 L133 185 L157 189 L189 177 L194 199 L190 216 L193 231 L170 242 L154 257 L141 259 L130 270 L108 269 L113 303 L121 313 L108 341 L107 376 L97 403 L111 422 L90 416 L108 452 L131 464 L126 475 L177 487 L240 482 L255 496 L272 482 L335 487 L386 475 L381 464 L405 451 L422 418 L401 421 L414 406 L414 393 L405 378 L404 340 L370 270 L380 259 L387 240 L405 238 L392 281 L401 294 L401 310 L409 319 L422 270 L409 247 L413 231 L407 215 L380 198 L350 208 L341 223 L346 234 L362 241 L357 254 L319 231 L323 224 L319 199 L324 177 L350 188 L378 186 L391 172 L395 137 L356 161 L356 170 L336 163 L334 158 L340 150 L335 148 L345 141 L349 126 L342 88 L331 100 L333 110 L327 111 L319 129 L313 118 L311 96 L292 80 L284 59 L277 60 L277 52 Z M244 482 L244 479 L246 477 L255 485 L261 482 L264 478 L268 479 L267 482 L257 490 L255 490 Z M333 482 L325 484 L305 484 L284 481 L283 479 L323 474 L329 477 Z M178 482 L184 476 L189 474 L228 479 L227 481 L206 484 L186 484 Z M333 474 L336 472 L352 470 L359 474 L362 478 L352 481 L339 482 Z M150 478 L154 473 L161 470 L176 472 L179 474 L172 482 L160 481 Z M235 470 L237 469 L240 473 L238 474 Z M276 468 L277 471 L273 474 L272 472 Z M358 468 L365 466 L374 466 L378 468 L380 471 L371 474 L364 474 Z M269 466 L271 465 L272 467 L270 468 Z M240 466 L242 465 L243 467 L241 468 Z M132 471 L135 467 L140 465 L154 468 L148 474 L135 473 Z M255 462 L260 467 L260 470 L257 474 L255 474 L252 469 L252 466 Z M287 456 L289 458 L289 465 L283 471 L282 466 L279 467 L277 466 L278 460 L284 456 Z M225 456 L232 458 L235 464 L234 466 L230 466 L229 471 L223 465 L223 458 Z M318 448 L320 450 L320 457 L317 463 L310 469 L308 468 L309 464 L307 464 L301 469 L300 468 L301 456 L309 449 Z M192 449 L200 448 L206 451 L211 456 L210 462 L214 470 L212 471 L205 464 L203 464 L203 467 L205 469 L204 470 L201 469 L194 462 L192 458 Z M290 445 L293 446 L298 459 L296 467 L291 472 L289 471 L292 464 L292 458 L289 452 L281 454 L278 453 L278 451 L281 448 Z M219 445 L229 447 L234 451 L232 454 L227 452 L222 453 L220 458 L220 465 L223 470 L222 472 L216 467 L214 461 L215 454 Z M361 444 L361 449 L359 454 L349 464 L344 466 L343 465 L344 460 L342 460 L341 463 L331 469 L328 468 L328 466 L332 461 L334 451 L338 447 L340 447 L341 445 L349 441 L355 441 Z M255 441 L257 441 L261 445 L262 454 L266 454 L268 457 L267 463 L265 466 L258 459 L257 456 L254 457 L248 466 L245 463 L244 457 L246 454 L250 454 L250 446 Z M151 444 L156 441 L162 441 L174 447 L179 454 L179 459 L184 468 L181 469 L171 463 L170 460 L168 460 L170 465 L169 467 L164 465 L154 456 L151 450 Z M329 438 L331 437 L332 439 L330 440 Z M180 438 L182 437 L183 439 L181 440 Z M299 447 L309 439 L323 436 L329 446 L330 450 L329 457 L326 463 L323 466 L321 466 L320 464 L323 460 L324 451 L320 444 L310 445 L301 451 L299 450 Z M189 436 L200 438 L209 443 L213 447 L213 450 L210 451 L204 446 L198 444 L192 444 L188 450 L188 458 L193 466 L192 468 L185 462 L182 454 L182 448 Z M401 434 L398 444 L388 455 L384 456 L383 454 L381 454 L376 459 L370 462 L366 461 L371 454 L374 445 L380 439 L393 433 Z M111 434 L119 433 L131 438 L139 446 L140 452 L145 461 L142 462 L132 455 L130 455 L129 457 L124 455 L114 445 L111 438 Z M332 443 L338 438 L346 434 L354 432 L358 432 L362 436 L366 434 L370 435 L369 437 L370 445 L368 452 L361 460 L359 458 L364 451 L365 440 L359 440 L357 438 L346 439 L338 443 L334 447 L332 446 Z M221 432 L223 433 L224 440 L223 442 L220 442 L217 440 Z M142 435 L145 434 L150 436 L155 431 L162 434 L166 434 L174 438 L180 445 L177 446 L168 440 L160 438 L148 440 L147 448 L148 452 L152 457 L152 459 L150 460 L143 450 Z M289 430 L291 431 L294 440 L291 442 L288 441 L288 431 Z M127 432 L131 430 L138 436 L139 439 L137 440 L128 434 Z M257 427 L267 438 L269 443 L272 445 L275 452 L275 460 L273 463 L271 462 L269 446 L266 446 L256 433 L247 446 L243 447 L243 451 L241 454 L241 464 L239 465 L237 460 L238 449 L240 445 L243 443 L244 439 L255 427 Z M111 428 L114 425 L119 425 L123 427 L122 430 L116 429 L112 430 Z M400 426 L399 429 L385 432 L384 434 L379 436 L375 440 L373 439 L373 437 L378 432 L387 427 L396 424 Z M411 423 L412 426 L410 429 L409 436 L405 444 L402 446 L401 444 L404 438 L404 430 L401 430 L400 428 Z M101 423 L105 424 L109 428 L108 439 L111 445 L110 447 L108 446 L104 439 L100 426 Z M286 423 L288 422 L289 424 L287 425 Z M377 426 L380 419 L387 421 L386 424 L381 425 L379 427 Z M124 422 L126 420 L131 419 L134 425 L131 426 L125 424 Z M117 415 L119 414 L120 416 L118 417 Z M212 414 L214 413 L215 415 L213 416 Z M386 410 L388 409 L389 411 L387 412 Z M281 406 L286 406 L292 411 L295 416 L298 429 L304 437 L302 440 L300 440 L295 434 L292 427 L290 417 L286 411 L280 408 Z M231 406 L232 408 L227 410 L223 415 L219 429 L217 431 L217 434 L212 440 L210 440 L208 437 L211 434 L215 426 L219 412 L224 407 Z M380 406 L382 405 L384 408 L382 409 Z M259 407 L261 407 L265 412 L267 412 L268 410 L271 410 L271 406 L274 405 L275 409 L279 413 L284 425 L286 439 L278 445 L274 443 L269 435 L261 427 L258 421 L257 409 Z M132 405 L127 411 L124 412 L122 411 L130 404 Z M240 403 L241 408 L244 409 L244 412 L246 412 L249 408 L252 408 L254 410 L254 420 L251 426 L249 427 L249 429 L235 445 L226 439 L226 431 L234 411 L236 410 L238 404 Z M123 402 L124 404 L116 409 L113 415 L110 416 L109 415 L110 411 L114 407 Z M260 396 L264 397 L264 400 L267 402 L268 405 L267 407 L258 402 L258 398 Z M252 395 L254 398 L254 402 L252 404 L245 406 L244 404 L245 401 L248 399 L248 396 Z M266 392 L269 393 L271 397 L270 400 L267 398 L265 394 Z M245 392 L246 393 L245 397 L242 399 L241 397 L243 393 Z M390 392 L392 391 L393 393 L391 394 Z M383 391 L385 390 L387 393 L385 394 Z M257 390 L257 388 L260 386 L264 387 L263 390 L260 391 Z M104 387 L106 386 L107 388 L105 389 Z M248 386 L250 385 L257 392 L255 393 L249 390 Z M244 385 L245 387 L242 389 L241 387 Z M379 385 L381 384 L383 388 L381 389 Z M193 384 L197 383 L203 388 L205 388 L214 394 L225 398 L233 399 L235 403 L234 404 L225 403 L218 398 L212 398 L203 393 Z M320 383 L309 393 L300 398 L294 398 L287 402 L280 403 L276 402 L278 399 L283 399 L298 394 L317 382 Z M110 382 L111 384 L107 387 L106 385 Z M384 382 L386 381 L390 387 L387 388 Z M373 398 L376 406 L376 417 L373 425 L365 431 L358 427 L337 435 L325 432 L306 435 L298 418 L302 414 L291 405 L293 402 L300 402 L311 411 L317 420 L338 425 L338 423 L322 416 L305 399 L319 397 L316 392 L320 388 L336 381 L349 381 L359 385 Z M139 397 L155 384 L162 381 L174 381 L185 384 L197 392 L195 397 L206 399 L191 415 L174 423 L174 425 L188 421 L193 422 L211 402 L219 402 L220 405 L209 415 L213 419 L205 436 L189 432 L176 436 L154 427 L149 431 L141 428 L135 415 L135 407 Z M118 381 L119 383 L117 387 L115 388 L115 391 L112 392 L110 395 L110 398 L114 403 L105 410 L102 406 L101 399 L106 395 L107 391 L115 384 L115 382 Z M278 378 L279 384 L275 388 L274 387 L276 383 L275 380 Z M376 378 L378 377 L379 380 L377 381 Z M311 378 L310 381 L305 386 L296 391 L280 396 L275 396 L273 394 L274 392 L280 392 L282 385 L286 382 L296 381 L308 377 Z M234 377 L236 378 L236 383 L238 385 L237 387 L233 384 Z M199 377 L202 376 L212 380 L229 383 L231 392 L235 391 L238 392 L239 394 L237 396 L232 396 L216 391 L204 384 Z M395 375 L397 376 L395 383 L400 387 L401 386 L400 382 L402 381 L408 388 L405 391 L405 395 L411 398 L408 410 L405 411 L402 407 L400 407 L402 412 L401 416 L398 415 L398 412 L396 409 L388 405 L382 400 L384 398 L394 405 L397 405 L397 402 L400 400 L401 398 L400 392 L392 391 L392 389 L394 388 L392 381 Z M385 377 L387 375 L390 376 L389 379 L386 379 Z M215 376 L220 375 L221 377 L216 378 Z M253 375 L255 374 L256 376 L254 377 Z M286 374 L283 378 L281 379 L278 378 L279 375 L282 375 L284 373 Z M260 373 L262 372 L263 374 L261 375 Z M342 371 L344 372 L346 376 L345 378 L341 375 Z M348 371 L351 370 L366 383 L363 384 L354 380 L350 376 Z M126 370 L127 375 L123 376 L125 384 L120 390 L118 387 L121 385 L122 381 L119 378 L119 375 Z M380 368 L382 369 L384 373 L383 376 L379 375 Z M373 368 L375 367 L376 370 L374 371 Z M252 369 L254 367 L259 368 L258 371 L253 371 Z M176 373 L182 366 L184 366 L193 373 L195 378 L190 379 L185 376 L177 376 Z M301 365 L302 371 L305 374 L300 377 L293 378 L292 376 L298 373 L296 366 Z M346 365 L348 364 L349 367 L347 368 Z M278 364 L279 367 L277 372 L272 378 L269 379 L266 375 L268 373 L271 373 L274 370 L275 366 Z M260 365 L262 364 L263 366 L261 367 Z M210 364 L215 366 L213 371 L215 375 L214 377 L205 373 L206 371 L209 370 Z M284 363 L288 366 L287 374 L285 373 L285 368 L283 366 Z M269 363 L272 365 L270 370 L268 369 Z M242 363 L245 364 L244 368 L240 366 Z M233 364 L235 363 L238 369 L248 377 L252 379 L260 379 L264 377 L266 381 L261 383 L250 383 L243 380 L236 373 Z M227 363 L230 364 L228 368 L228 373 L230 375 L229 377 L224 373 L224 367 Z M152 363 L153 364 L152 367 L147 374 L142 378 L141 377 L142 364 Z M354 363 L359 362 L362 363 L362 368 L364 373 L363 376 L355 369 L353 365 Z M204 362 L205 364 L202 367 L203 371 L202 372 L198 371 L197 368 L200 366 L200 363 Z M345 361 L347 360 L348 363 L346 364 Z M169 360 L170 364 L165 377 L162 378 L161 375 L166 367 L167 361 Z M282 359 L285 358 L286 360 L283 361 Z M168 357 L170 356 L171 359 L169 360 Z M337 354 L339 353 L340 356 L338 357 Z M285 354 L287 353 L288 355 L286 356 Z M188 353 L189 354 L188 362 L186 363 L185 356 Z M350 353 L352 352 L355 355 L360 354 L361 357 L357 360 L353 359 Z M264 352 L266 352 L267 355 L266 359 L262 360 L261 358 Z M248 352 L250 353 L251 358 L250 360 L248 360 L246 356 Z M156 353 L155 357 L150 360 L146 360 L140 355 L141 353 L146 355 L152 354 L154 352 Z M324 355 L326 351 L332 352 L330 355 L327 356 Z M343 350 L345 349 L346 352 L344 353 Z M271 349 L274 349 L276 351 L279 359 L278 361 L274 361 L269 358 Z M255 349 L257 349 L260 352 L257 359 L255 359 L253 355 L253 351 Z M243 348 L244 358 L239 361 L235 361 L234 360 L235 353 L240 348 Z M134 348 L138 361 L138 379 L133 394 L126 401 L125 399 L129 395 L132 389 L135 378 L135 361 L132 349 Z M309 348 L307 353 L307 358 L305 360 L293 363 L290 362 L292 350 L302 349 L306 347 Z M170 346 L172 347 L171 354 L169 353 Z M125 347 L127 346 L128 348 L126 349 Z M140 347 L141 344 L148 345 L155 344 L156 345 L149 352 L143 350 Z M258 343 L259 342 L264 343 L265 348 L262 349 Z M254 343 L254 345 L251 348 L244 347 L245 344 L248 344 L251 342 Z M336 342 L338 341 L339 343 L337 344 Z M125 341 L127 342 L126 346 L124 345 Z M188 341 L190 340 L198 345 L201 345 L210 349 L219 350 L221 352 L222 362 L219 363 L211 361 L197 355 L188 348 L187 346 Z M165 340 L166 341 L165 358 L157 376 L152 382 L141 387 L140 383 L148 378 L157 364 L157 361 L160 355 L161 343 Z M131 340 L133 341 L134 345 L133 348 L131 347 L130 344 Z M372 339 L374 340 L373 347 L371 346 Z M361 339 L362 341 L358 350 L353 349 L351 346 Z M322 338 L326 339 L327 341 L318 357 L319 366 L321 369 L325 371 L330 371 L333 368 L333 364 L329 363 L328 367 L325 366 L325 362 L330 358 L334 359 L338 364 L337 372 L333 376 L328 378 L317 375 L313 371 L310 365 L311 353 L314 347 Z M268 338 L270 336 L276 337 L279 340 L279 346 L284 347 L285 349 L279 350 L275 345 L275 341 L269 340 Z M243 336 L245 339 L237 341 L236 347 L229 352 L228 359 L226 360 L224 358 L226 349 L228 347 L233 346 L233 341 L236 337 Z M196 337 L198 336 L199 338 L197 339 Z M124 335 L126 336 L125 340 L123 339 Z M248 335 L252 333 L255 337 L249 338 Z M366 330 L368 331 L368 364 L372 379 L380 394 L379 396 L377 395 L371 385 L366 370 L365 364 L365 331 Z M202 330 L203 332 L200 334 L199 332 Z M372 328 L374 329 L373 338 L371 337 Z M119 328 L120 329 L120 344 L125 357 L125 365 L122 370 L118 366 L116 370 L112 373 L111 372 L111 346 L115 332 Z M333 326 L337 327 L336 333 L332 330 Z M306 327 L309 326 L313 332 L311 333 Z M370 325 L372 324 L373 326 L371 327 Z M174 321 L179 325 L182 334 L185 335 L184 347 L182 351 L180 350 L179 334 L176 327 L173 324 Z M286 320 L287 319 L298 320 L306 324 L307 326 L304 327 L299 324 L289 323 Z M227 320 L226 322 L214 324 L204 330 L202 329 L205 325 L215 320 L219 319 Z M275 314 L277 313 L284 320 L283 321 L279 320 Z M237 312 L238 313 L237 316 L233 320 L230 321 L229 319 Z M274 311 L276 310 L277 312 L275 313 Z M124 314 L128 312 L133 315 L132 317 L129 317 L129 320 L127 323 L128 326 L144 309 L147 310 L146 315 L136 330 L137 332 L139 332 L143 328 L150 313 L156 310 L157 315 L151 329 L149 330 L147 334 L148 335 L152 333 L154 330 L157 321 L162 313 L165 316 L158 336 L164 331 L168 318 L170 319 L170 325 L166 334 L162 338 L155 341 L145 341 L134 337 L126 331 L122 323 Z M268 306 L271 307 L272 316 L280 324 L280 328 L282 330 L287 326 L299 328 L309 336 L311 341 L309 343 L299 346 L296 345 L298 342 L297 341 L294 341 L289 345 L287 345 L283 342 L280 333 L267 332 L264 329 L262 329 L260 327 L260 324 Z M237 306 L239 307 L238 312 L236 311 Z M245 305 L252 322 L251 329 L245 332 L233 333 L230 341 L227 344 L223 344 L219 341 L215 341 L213 345 L210 345 L202 341 L203 337 L210 330 L220 326 L226 326 L229 329 L231 329 L232 324 L241 315 L242 305 L243 304 Z M184 304 L186 305 L188 317 L186 334 L184 333 L184 328 L181 322 L173 315 Z M404 298 L406 299 L406 302 L410 303 L410 307 L407 312 L405 311 L403 304 Z M208 298 L209 295 L216 296 L212 300 Z M304 295 L304 298 L302 300 L297 298 L298 296 L302 294 Z M328 293 L332 295 L329 301 L327 300 Z M290 294 L292 293 L293 295 L291 296 Z M244 291 L246 290 L247 292 L245 293 Z M228 291 L230 290 L232 293 L230 294 Z M286 288 L287 290 L282 294 L281 292 Z M344 287 L357 291 L362 296 L365 304 L365 315 L361 332 L357 339 L350 343 L345 342 L341 339 L340 331 L342 330 L342 327 L336 322 L332 322 L328 319 L331 315 L336 315 L348 320 L348 318 L342 313 L331 311 L330 309 L334 306 L340 306 L350 311 L353 311 L353 309 L350 306 L344 303 L334 301 L337 297 L346 297 L357 302 L357 300 L349 294 L338 292 Z M332 287 L334 288 L333 292 L331 291 Z M148 285 L155 284 L156 286 L149 287 Z M160 284 L163 283 L164 285 L161 286 Z M140 284 L142 283 L143 285 L141 286 Z M164 283 L168 282 L169 284 L165 285 Z M136 283 L138 282 L139 284 L137 285 Z M169 282 L171 281 L172 283 L170 284 Z M133 282 L135 281 L136 283 L134 284 Z M130 281 L132 280 L133 282 L131 283 Z M345 279 L347 278 L350 283 L346 284 Z M111 276 L113 275 L120 282 L130 287 L142 290 L167 289 L181 284 L188 278 L191 280 L185 296 L179 305 L174 309 L166 311 L155 306 L151 308 L148 306 L143 306 L137 311 L134 311 L123 304 L114 288 Z M185 275 L183 278 L178 281 L175 278 L176 275 L181 274 Z M365 273 L372 281 L384 309 L391 317 L397 329 L401 345 L400 374 L394 370 L393 365 L391 365 L389 370 L385 369 L379 362 L379 358 L376 357 L378 330 L374 318 L377 317 L382 320 L388 327 L389 325 L382 316 L368 311 L371 308 L378 307 L376 305 L369 304 L363 292 L358 288 L359 282 Z M118 273 L119 272 L125 273 L128 275 L128 277 L123 279 Z M416 270 L419 272 L419 278 L417 281 L415 280 Z M398 269 L399 270 L398 278 L396 279 L395 273 L396 270 Z M361 269 L362 271 L357 279 L357 282 L354 284 L353 282 L355 278 L355 274 Z M406 265 L409 266 L413 274 L412 282 L409 285 L405 285 L401 278 L401 274 Z M311 264 L313 263 L314 265 L312 266 Z M356 262 L357 266 L353 267 L352 265 Z M197 263 L199 262 L201 265 L199 266 Z M132 275 L140 264 L152 260 L154 262 L161 264 L168 271 L170 277 L163 280 L147 281 L137 279 L133 277 Z M187 257 L190 256 L192 259 L189 260 Z M406 250 L409 252 L408 256 L405 255 Z M380 246 L381 249 L377 257 L364 268 L363 266 L373 257 L378 247 Z M341 246 L353 258 L346 266 L340 284 L331 283 L326 286 L324 280 L322 280 L323 307 L322 313 L319 315 L322 331 L319 333 L308 321 L298 317 L285 316 L280 310 L280 304 L285 297 L297 305 L306 303 L308 300 L307 292 L298 292 L297 288 L308 280 L312 270 L329 260 L337 248 Z M172 246 L175 247 L177 252 L185 261 L202 272 L206 282 L216 288 L215 293 L212 291 L205 293 L204 298 L208 304 L219 304 L226 296 L233 304 L232 312 L229 315 L215 317 L205 321 L196 329 L193 335 L190 333 L193 315 L190 312 L189 296 L194 285 L195 273 L192 270 L173 272 L168 264 L159 258 Z M372 246 L374 245 L375 247 L373 248 Z M366 244 L368 243 L369 246 L367 247 Z M334 243 L335 245 L331 252 L325 259 L320 262 L319 259 L329 250 L332 244 Z M178 242 L180 243 L186 252 L185 254 L183 254 L177 244 Z M256 238 L261 240 L267 246 L272 263 L269 291 L266 291 L267 282 L265 282 L257 321 L255 320 L248 282 L246 282 L246 288 L244 289 L241 276 L241 261 L243 252 L247 244 Z M299 236 L301 237 L303 246 L302 253 L300 252 L300 247 L298 242 Z M214 236 L215 241 L213 246 L213 254 L211 255 L210 254 L210 244 L212 237 Z M362 235 L371 234 L382 236 L383 238 L370 241 L367 238 L364 238 Z M315 234 L329 240 L329 242 L325 245 L326 249 L323 252 L320 249 L318 252 L314 251 L315 248 L314 235 Z M198 234 L199 235 L198 241 L199 253 L194 255 L193 254 L194 250 L192 249 L189 251 L187 249 L188 245 L184 243 L183 241 L189 237 Z M406 232 L408 231 L409 234 L407 235 Z M307 230 L309 232 L311 240 L310 256 L304 270 L295 283 L293 290 L290 291 L289 290 L290 282 L297 269 L299 258 L304 257 L305 239 L303 231 Z M206 228 L210 230 L208 238 L209 258 L212 258 L214 260 L216 270 L219 273 L223 283 L223 294 L222 295 L220 294 L220 290 L216 280 L206 265 L202 253 L202 239 Z M271 220 L275 222 L278 234 L279 272 L281 273 L285 267 L289 250 L289 243 L292 241 L294 242 L291 258 L294 255 L296 256 L294 267 L287 280 L287 283 L277 293 L272 301 L270 299 L273 292 L275 281 L274 253 L269 242 L265 238 L259 235 L261 232 L266 230 L266 227 L260 229 L252 228 L253 224 L255 225 L264 224 Z M240 220 L248 223 L249 225 L246 226 L247 230 L254 234 L253 236 L249 237 L243 243 L238 257 L237 275 L240 293 L244 302 L243 304 L240 302 L236 293 L226 283 L217 261 L217 256 L219 255 L221 257 L219 248 L219 242 L221 241 L224 243 L224 252 L228 267 L231 273 L234 272 L235 233 L238 222 Z M394 219 L396 221 L396 225 L391 230 L390 228 L392 225 L392 220 Z M370 221 L372 219 L377 219 L379 223 L372 224 Z M357 216 L360 217 L358 227 L354 223 L355 218 Z M308 216 L311 215 L312 218 L309 219 Z M201 215 L204 214 L205 218 L202 219 Z M196 214 L198 215 L198 221 L203 224 L202 227 L197 227 L194 224 L194 217 Z M401 214 L403 216 L403 219 L405 220 L405 228 L400 231 L400 234 L398 236 L392 237 L389 236 L388 234 L395 231 L400 227 L400 222 L398 218 L393 215 L394 213 Z M362 219 L370 213 L380 213 L381 214 L380 216 L370 216 L367 219 L367 224 L373 228 L379 227 L383 224 L384 219 L388 220 L388 224 L386 227 L378 231 L370 231 L362 225 Z M361 212 L363 211 L364 213 L362 214 Z M354 210 L359 210 L360 212 L353 216 L350 220 L350 223 L355 229 L360 231 L359 233 L352 233 L348 229 L348 225 L345 223 L346 217 Z M230 217 L236 211 L242 209 L250 210 L254 212 L260 212 L268 209 L277 211 L283 217 L286 227 L285 231 L287 235 L287 243 L285 245 L285 251 L284 252 L282 251 L282 237 L280 225 L277 219 L273 215 L269 213 L263 213 L264 219 L255 221 L247 218 L247 216 L250 215 L250 213 L244 213 L238 216 L234 222 L231 236 L231 253 L229 254 L228 245 L226 241 L226 232 L228 228 Z M364 209 L365 206 L370 205 L373 202 L380 202 L383 203 L385 206 L384 208 L371 207 L366 210 Z M245 199 L247 200 L246 204 L244 203 Z M315 195 L316 196 L315 207 L319 217 L319 223 L316 227 L311 227 L310 224 L315 221 L315 216 L313 209 L309 208 L309 202 L312 200 L312 197 Z M157 183 L159 182 L160 184 L158 185 Z M132 178 L134 177 L135 179 L133 180 Z M313 173 L317 173 L320 176 L321 184 L317 193 L314 193 L313 189 L310 186 L312 182 L315 183 L315 187 L317 187 L318 184 L315 178 L309 177 Z M196 173 L200 174 L200 177 L196 181 L196 187 L198 187 L199 182 L202 183 L202 186 L200 188 L201 201 L204 203 L204 208 L200 209 L198 214 L196 213 L198 207 L198 200 L193 188 L192 182 L193 176 Z M343 172 L346 171 L349 172 L350 174 L348 176 L345 176 Z M163 173 L168 171 L169 175 L165 176 Z M386 169 L387 170 L386 173 L381 178 L380 175 L382 170 Z M178 167 L180 166 L181 168 L179 169 Z M378 167 L377 173 L369 179 L361 180 L353 179 L351 177 L352 173 L362 172 L369 174 L373 172 L375 165 Z M329 165 L331 164 L335 168 L332 169 Z M181 165 L183 164 L184 166 L182 167 Z M372 164 L374 163 L375 165 L373 166 Z M135 167 L137 164 L140 163 L141 165 L139 166 L139 171 L144 174 L151 172 L162 173 L163 177 L153 180 L144 179 L136 173 Z M305 159 L307 158 L308 160 L306 161 Z M384 157 L386 162 L384 167 L382 168 L379 161 Z M374 157 L375 158 L374 160 L369 160 L367 162 L366 168 L364 169 L362 165 L363 160 L367 157 Z M143 157 L146 157 L150 160 L151 165 L148 170 L143 169 L144 167 L147 166 L146 162 L142 159 Z M129 156 L131 157 L131 159 L136 160 L132 164 L131 172 L133 175 L132 178 L129 176 L126 171 L128 169 L127 160 Z M387 156 L389 155 L390 157 L388 158 Z M207 156 L209 155 L210 157 L208 158 Z M123 154 L125 153 L126 155 L124 156 Z M381 152 L383 151 L384 154 L382 155 Z M308 152 L311 151 L312 154 L310 155 Z M134 152 L136 151 L137 153 L135 154 Z M330 150 L333 153 L330 155 L329 159 L324 160 L323 158 L327 157 L325 151 Z M318 153 L319 150 L323 151 L320 154 Z M213 150 L214 152 L210 155 L209 153 Z M201 151 L203 150 L205 153 L202 155 Z M183 150 L188 151 L187 157 L189 158 L188 160 L185 160 L183 158 L183 155 L181 154 Z M298 150 L300 149 L305 155 L303 156 Z M384 148 L387 146 L389 149 L385 150 Z M218 153 L236 146 L277 146 L292 151 L300 158 L305 214 L301 227 L292 237 L289 236 L285 214 L272 205 L269 196 L265 196 L269 201 L267 205 L259 208 L251 206 L251 179 L246 168 L236 161 L222 163 L216 172 L230 167 L241 169 L247 176 L248 194 L241 199 L241 205 L228 214 L223 236 L213 229 L208 216 L211 162 Z M124 146 L126 145 L129 149 L125 150 Z M301 144 L305 143 L306 145 L302 146 Z M189 143 L192 145 L195 152 L194 154 L190 152 L190 147 L188 145 Z M281 142 L282 141 L288 142 L296 146 L298 149 L296 150 L290 146 L282 144 Z M232 142 L231 144 L223 146 L216 151 L214 150 L217 146 L229 141 Z M330 141 L323 147 L321 146 L327 140 Z M275 141 L280 140 L281 142 L276 143 Z M232 141 L237 140 L238 142 L233 143 Z M183 141 L187 140 L188 142 L184 143 Z M269 140 L271 139 L272 141 L270 142 Z M258 141 L260 138 L264 139 L261 142 Z M249 139 L252 138 L255 141 L252 142 Z M239 140 L242 138 L244 141 L240 142 Z M323 135 L324 140 L318 143 L317 140 L320 136 Z M206 138 L210 135 L212 136 L211 140 L207 140 Z M301 135 L303 134 L307 139 L303 140 Z M231 135 L233 134 L234 136 L232 137 Z M190 134 L196 140 L195 144 L190 140 L189 136 Z M343 135 L342 139 L337 144 L335 144 L334 141 L331 140 L337 133 Z M274 134 L280 133 L282 136 L279 137 L275 136 Z M253 134 L259 133 L260 135 L254 136 Z M326 132 L332 131 L333 134 L329 137 Z M316 132 L318 131 L319 133 L317 134 Z M180 132 L186 131 L187 132 L185 137 L182 136 Z M194 131 L196 130 L198 134 L196 135 Z M231 130 L227 137 L221 137 L216 135 L217 133 L225 134 L225 131 L227 129 Z M282 130 L286 128 L288 131 L288 134 L296 133 L297 135 L292 137 L287 137 Z M220 129 L222 128 L223 130 L221 131 Z M310 128 L313 127 L314 129 L311 130 Z M301 128 L303 127 L305 130 L303 131 Z M200 128 L202 127 L203 129 L201 130 Z M213 126 L214 128 L208 132 L207 130 Z M344 125 L345 126 L344 130 L338 133 L335 127 Z M231 126 L237 125 L238 128 L233 129 Z M169 125 L172 125 L177 128 L177 135 L182 140 L178 144 L176 144 L170 137 L170 135 L174 133 L169 129 L168 127 Z M275 125 L276 124 L281 125 L282 127 L276 129 Z M214 125 L216 124 L217 126 L215 127 Z M326 124 L328 123 L329 126 L327 127 Z M294 124 L296 123 L297 125 L295 126 Z M217 125 L220 122 L222 123 L219 126 Z M289 122 L291 121 L294 124 L292 125 Z M243 121 L245 122 L245 131 L247 134 L246 136 L243 134 L242 131 Z M307 121 L309 120 L313 124 L311 125 Z M285 121 L287 120 L288 122 L286 123 Z M256 120 L260 123 L261 126 L257 132 L253 129 L253 124 Z M225 121 L227 120 L228 122 L226 123 Z M205 120 L206 122 L201 126 L200 123 Z M230 120 L232 119 L233 121 L231 122 Z M274 119 L276 118 L277 120 L275 121 Z M236 119 L238 118 L239 120 L237 121 Z M269 117 L272 127 L270 134 L266 137 L265 135 L268 131 L267 118 Z M219 116 L221 115 L222 117 L220 118 Z M299 115 L301 114 L304 119 L302 120 Z M291 117 L293 113 L299 114 L298 116 L295 116 L294 119 Z M217 113 L218 115 L215 116 L212 119 L212 122 L210 123 L209 118 L213 114 Z M284 108 L288 110 L288 114 L286 116 L281 116 L280 114 L283 113 Z M227 108 L231 109 L232 113 L231 116 L227 116 L225 114 L225 110 Z M259 108 L261 107 L267 113 L268 116 L266 117 Z M171 107 L176 110 L181 120 L183 120 L184 118 L186 119 L187 121 L186 126 L183 124 L180 124 L179 126 L177 125 L177 120 L170 114 Z M254 106 L255 108 L244 121 L243 119 L246 113 Z M240 108 L243 106 L245 107 L244 110 L241 110 Z M341 105 L343 109 L343 113 L336 120 L336 125 L334 126 L331 123 L331 120 L333 116 L336 114 L338 106 Z M254 104 L257 102 L259 105 L255 106 Z M262 101 L264 100 L265 102 L263 103 Z M338 99 L339 104 L335 105 L334 103 Z M174 100 L176 99 L179 104 L175 105 Z M273 99 L275 98 L276 100 L274 101 Z M249 98 L251 99 L250 103 L248 102 Z M249 95 L251 94 L252 96 L250 97 Z M260 94 L262 93 L263 95 L261 96 Z M240 93 L242 94 L244 99 L239 101 L238 97 Z M258 91 L260 90 L261 92 L259 93 Z M246 90 L248 89 L249 91 L247 92 Z M257 87 L258 90 L254 92 L253 90 Z M292 85 L300 89 L306 96 L310 107 L310 114 L308 116 L303 111 L303 107 L300 99 L288 91 Z M221 85 L225 91 L214 98 L210 111 L205 116 L204 115 L204 103 L207 96 L212 90 Z M286 74 L288 74 L290 78 L287 86 L285 85 L285 80 L283 77 Z M264 81 L263 83 L259 83 L258 80 L255 80 L254 83 L250 85 L248 84 L249 81 L253 78 L256 73 Z M225 73 L227 73 L230 76 L227 84 L224 83 Z M238 67 L240 66 L241 68 L239 69 Z M228 67 L232 65 L237 67 L238 69 L231 74 L228 70 Z M282 64 L284 65 L286 70 L283 74 L281 74 L275 69 L276 67 L279 67 Z M214 107 L221 97 L233 92 L232 88 L233 78 L238 73 L248 70 L247 61 L256 50 L259 52 L260 55 L264 57 L266 61 L265 70 L273 72 L280 78 L282 83 L280 92 L292 97 L299 106 L298 109 L292 110 L287 103 L280 105 L279 96 L274 89 L272 82 L267 80 L260 71 L258 66 L256 65 L246 80 L242 82 L240 88 L234 97 L234 104 L232 105 L226 103 L221 110 L215 110 Z M269 49 L273 53 L274 57 L273 59 L271 58 L270 55 L267 55 L265 53 Z M248 52 L246 55 L242 57 L240 56 L240 53 L243 49 Z M256 29 L261 33 L261 35 L265 40 L266 45 L262 49 L258 41 L255 41 L253 48 L250 50 L247 43 Z"/></svg>
