<svg xmlns="http://www.w3.org/2000/svg" width="512" height="512" viewBox="0 0 512 512" aria-hidden="true" focusable="false"><path fill="currentColor" fill-rule="evenodd" clip-rule="evenodd" d="M17 251 L17 261 L21 266 L21 271 L30 269 L31 272 L28 275 L30 279 L48 279 L51 274 L183 273 L190 276 L195 272 L201 275 L204 272 L210 272 L208 279 L214 278 L227 284 L241 282 L254 286 L270 284 L271 282 L285 284 L293 281 L296 277 L303 279 L302 271 L308 272 L309 275 L320 273 L322 276 L327 273 L457 273 L464 278 L468 276 L470 280 L482 279 L483 272 L486 271 L487 267 L492 270 L492 265 L496 260 L495 248 L493 254 L486 259 L485 267 L474 265 L474 269 L469 271 L326 271 L323 273 L324 268 L319 271 L297 269 L289 275 L289 261 L285 263 L283 257 L280 256 L278 260 L280 264 L275 269 L279 274 L275 275 L267 273 L262 268 L265 259 L269 263 L267 258 L273 250 L268 249 L265 243 L258 238 L257 227 L253 232 L254 239 L247 242 L244 249 L239 250 L245 258 L244 264 L247 262 L250 264 L250 268 L244 273 L244 281 L240 273 L232 278 L227 275 L236 270 L236 265 L232 264 L234 262 L232 256 L228 258 L227 263 L224 262 L223 275 L215 269 L196 272 L190 268 L183 271 L44 271 L42 266 L35 265 L41 269 L37 273 L42 275 L41 278 L37 278 L33 273 L33 268 L26 259 L22 259 L22 255 Z M225 280 L229 279 L230 281 L226 282 Z M288 279 L285 282 L280 281 L281 279 L286 278 Z M276 279 L278 278 L279 280 L277 281 Z M255 276 L259 278 L257 282 L253 280 Z M292 276 L294 275 L295 277 L293 278 Z M268 276 L270 275 L271 278 L269 279 Z M246 276 L249 275 L251 277 L251 280 L248 281 Z M217 276 L219 275 L220 277 L218 278 Z M44 275 L46 274 L47 276 L45 277 Z M281 276 L282 273 L285 274 L283 277 Z M294 273 L296 272 L297 274 L295 275 Z M263 272 L265 273 L266 276 L265 281 L261 280 Z M247 273 L249 272 L250 274 L248 275 Z M214 273 L217 272 L218 274 L215 275 Z M478 268 L480 270 L480 275 L475 278 L471 278 L470 276 L473 275 L476 272 L476 269 Z M281 266 L285 265 L287 268 L284 269 Z M227 265 L230 266 L228 269 L225 268 Z M262 257 L264 256 L265 259 L263 260 Z M258 245 L260 244 L261 247 L259 248 Z M251 245 L255 244 L256 247 L252 248 Z"/></svg>
