<svg xmlns="http://www.w3.org/2000/svg" width="512" height="512" viewBox="0 0 512 512" aria-hidden="true" focusable="false"><path fill="currentColor" fill-rule="evenodd" clip-rule="evenodd" d="M195 263 L195 266 L197 266 L197 263 Z M17 245 L17 255 L21 260 L22 267 L29 274 L36 276 L49 275 L57 270 L190 270 L197 274 L198 271 L207 269 L220 274 L224 274 L225 270 L229 270 L239 275 L271 275 L278 271 L286 270 L287 274 L291 274 L287 267 L288 265 L296 267 L295 272 L304 268 L313 273 L320 270 L457 270 L464 275 L478 276 L485 274 L482 271 L483 268 L486 268 L484 263 L489 262 L489 266 L492 266 L496 257 L496 247 L494 247 L489 252 L491 256 L487 255 L481 264 L478 261 L472 261 L467 267 L320 267 L313 264 L307 268 L305 265 L278 262 L274 266 L277 264 L286 264 L287 266 L271 273 L271 263 L268 262 L264 249 L259 246 L265 256 L264 259 L256 258 L258 255 L256 250 L249 256 L249 248 L247 248 L243 262 L238 262 L237 266 L232 262 L224 262 L206 267 L200 266 L195 271 L192 266 L46 267 L42 261 L36 261 L34 264 L42 264 L39 269 L43 273 L39 274 L33 266 L29 266 L27 254 Z M27 268 L30 267 L31 271 L29 272 Z M467 267 L469 266 L470 269 L468 270 Z M311 267 L314 266 L317 269 L312 270 Z M260 265 L262 264 L263 266 L261 267 Z M213 268 L224 264 L232 264 L235 265 L236 268 L238 268 L239 265 L244 265 L246 269 L245 270 L240 269 L240 272 L238 273 L230 269 L229 267 L224 267 L220 271 L216 271 Z M471 264 L478 263 L480 266 L479 271 L473 274 L472 271 L474 268 L471 266 Z M24 264 L26 263 L27 265 L25 266 Z M258 261 L260 260 L261 262 L259 263 Z M253 258 L258 262 L258 269 L253 270 L251 272 L249 269 L251 268 L252 264 L249 262 L249 260 Z M247 255 L249 256 L248 260 L245 259 Z M253 255 L255 254 L256 256 L254 257 Z M19 252 L21 251 L23 254 L20 255 Z M256 236 L254 236 L253 243 L250 244 L251 246 L255 242 Z"/></svg>
