<svg xmlns="http://www.w3.org/2000/svg" width="512" height="512" viewBox="0 0 512 512" aria-hidden="true" focusable="false"><path fill="currentColor" fill-rule="evenodd" clip-rule="evenodd" d="M179 279 L178 281 L179 283 L182 283 L183 280 Z M19 253 L19 263 L23 267 L23 272 L27 272 L29 270 L30 274 L27 275 L27 279 L35 281 L37 285 L42 285 L44 283 L43 280 L40 280 L41 270 L43 271 L43 277 L47 281 L49 281 L51 285 L59 283 L60 280 L65 277 L177 277 L178 274 L183 274 L184 277 L194 276 L201 281 L206 281 L206 277 L210 276 L211 284 L214 285 L215 278 L221 276 L221 274 L217 271 L224 270 L224 266 L217 266 L216 268 L212 268 L210 270 L202 270 L201 272 L193 271 L191 273 L184 273 L182 270 L179 270 L177 273 L53 273 L50 277 L47 272 L47 266 L42 266 L40 270 L36 270 L34 265 L29 262 L29 257 L25 257 L23 252 Z M202 275 L205 274 L206 276 L203 277 Z M211 273 L214 272 L215 274 L212 275 Z M227 282 L232 285 L236 281 L239 285 L274 285 L277 281 L281 285 L292 277 L297 277 L298 283 L301 283 L303 276 L311 276 L312 279 L316 279 L319 276 L323 276 L325 279 L329 279 L330 276 L333 276 L334 279 L339 277 L447 277 L458 285 L466 279 L469 285 L476 285 L480 276 L488 275 L488 269 L494 263 L494 253 L490 252 L486 255 L487 261 L481 263 L478 268 L473 270 L471 266 L467 266 L462 269 L461 273 L337 273 L334 270 L322 273 L289 266 L284 268 L283 271 L295 270 L296 272 L292 275 L287 275 L286 279 L279 280 L277 276 L278 268 L275 267 L269 248 L265 249 L269 259 L268 263 L265 262 L261 266 L262 256 L258 250 L255 250 L247 265 L242 265 L242 262 L248 258 L246 253 L248 248 L251 247 L251 243 L256 238 L258 241 L262 241 L259 230 L256 228 L251 242 L247 243 L247 247 L242 252 L238 267 L229 272 L230 276 L234 272 L239 272 L240 276 L235 277 L234 280 L228 279 Z M269 277 L271 276 L272 278 L270 279 Z M262 277 L264 276 L265 278 L263 279 Z M241 277 L243 276 L244 278 L242 279 Z M298 273 L301 272 L303 276 L299 277 Z M472 270 L473 278 L469 280 L468 278 L470 277 L470 271 Z M268 264 L270 263 L271 265 L269 266 Z M252 259 L254 260 L254 264 L259 265 L260 270 L262 271 L262 276 L257 279 L251 274 L251 272 L248 271 L248 266 L251 265 Z"/></svg>
