<svg xmlns="http://www.w3.org/2000/svg" width="512" height="512" viewBox="0 0 512 512" aria-hidden="true" focusable="false"><path fill="currentColor" fill-rule="evenodd" clip-rule="evenodd" d="M299 451 L293 450 L296 458 L290 464 L283 463 L281 454 L278 451 L275 451 L277 458 L276 468 L293 468 L296 466 L301 459 L301 455 Z M211 453 L211 461 L215 467 L236 468 L234 460 L236 450 L231 452 L230 462 L221 464 L216 460 L216 453 L218 450 L214 450 Z M255 112 L205 168 L201 179 L204 197 L188 216 L187 234 L170 238 L158 251 L153 271 L149 417 L162 430 L187 435 L272 437 L346 431 L359 422 L363 412 L354 252 L340 237 L324 234 L323 215 L307 197 L306 168 Z M179 419 L185 415 L326 415 L332 418 L332 424 L330 427 L310 428 L308 430 L202 430 L201 428 L180 427 Z M324 392 L325 396 L327 397 L327 400 L322 407 L314 410 L313 407 L315 400 L320 394 Z M302 392 L307 397 L308 400 L307 408 L305 410 L292 411 L291 409 L293 400 Z M288 395 L289 392 L292 393 L290 396 Z M280 392 L287 402 L286 408 L282 411 L271 411 L270 410 L271 400 L278 392 Z M265 393 L268 392 L269 395 L267 396 Z M255 392 L263 399 L263 402 L265 403 L265 406 L261 411 L249 411 L247 409 L247 401 Z M231 392 L239 398 L241 402 L242 409 L241 411 L228 411 L225 408 L224 405 L225 400 Z M219 393 L221 392 L223 395 L221 396 Z M209 392 L218 400 L219 402 L218 410 L206 410 L203 407 L204 397 Z M187 392 L191 394 L194 397 L195 401 L197 402 L196 405 L198 407 L197 410 L191 409 L185 403 L184 397 Z M242 392 L244 391 L246 394 L243 396 Z M190 381 L192 379 L319 379 L320 388 L316 389 L315 387 L310 387 L308 389 L305 389 L303 387 L300 387 L295 390 L292 387 L288 387 L286 389 L278 387 L273 390 L269 387 L266 387 L264 389 L253 387 L249 390 L245 387 L242 387 L237 390 L234 387 L230 387 L228 389 L225 389 L223 387 L220 387 L218 389 L214 389 L212 387 L207 387 L205 389 L202 389 L201 387 L196 387 L194 389 L191 389 Z M199 372 L201 370 L310 370 L312 373 L311 374 L200 374 Z M206 364 L207 363 L301 363 L302 365 L301 366 L207 366 Z M340 360 L343 360 L353 372 L356 386 L356 415 L355 416 L353 415 L353 388 L351 386 L350 376 L348 372 L342 366 L338 364 Z M171 360 L173 364 L164 370 L161 380 L159 382 L158 414 L155 415 L154 414 L154 389 L156 387 L157 376 L161 367 L167 361 Z M353 351 L355 352 L356 361 L355 363 L349 358 L350 354 Z M157 351 L163 356 L163 358 L158 362 L156 361 Z M203 351 L204 350 L307 350 L308 357 L307 358 L204 358 Z M210 340 L213 338 L297 338 L301 340 L301 344 L300 345 L211 345 Z M215 329 L219 325 L292 325 L296 328 L297 331 L295 333 L216 333 Z M330 292 L333 295 L334 301 L329 306 L329 313 L333 316 L336 314 L338 315 L338 318 L348 329 L350 335 L349 347 L341 355 L331 355 L325 349 L325 344 L329 340 L332 340 L334 342 L332 347 L333 350 L339 349 L343 344 L342 333 L335 325 L328 322 L323 315 L323 305 L326 301 L329 301 Z M182 292 L183 293 L182 299 L188 305 L189 309 L188 316 L182 323 L178 324 L176 327 L174 327 L171 330 L168 336 L168 344 L172 349 L178 350 L179 345 L177 342 L179 340 L183 340 L185 344 L185 349 L182 354 L175 356 L167 353 L164 350 L161 342 L161 337 L164 328 L171 321 L174 315 L178 316 L183 312 L182 305 L177 301 L179 293 Z M226 292 L237 281 L274 281 L281 285 L286 294 L291 319 L222 320 L221 313 L223 311 Z M235 274 L235 268 L238 266 L274 266 L277 270 L274 276 L271 274 L241 274 L237 276 Z M239 257 L242 252 L269 252 L272 255 L272 259 L270 261 L241 261 Z M244 242 L250 239 L266 240 L267 246 L266 247 L245 247 Z M246 229 L248 226 L263 226 L265 228 L265 232 L261 234 L249 234 L246 232 Z M250 213 L252 211 L259 211 L262 214 L262 220 L261 221 L251 221 L249 218 Z M251 201 L253 199 L259 199 L260 205 L252 206 Z M255 120 L301 170 L304 189 L299 198 L318 217 L318 240 L338 242 L349 254 L355 326 L338 306 L332 278 L317 307 L319 320 L333 331 L320 342 L320 351 L343 374 L348 390 L348 422 L341 426 L329 409 L332 394 L325 385 L325 375 L318 374 L311 363 L313 348 L296 321 L291 291 L280 278 L282 268 L267 223 L257 148 L253 149 L250 194 L230 279 L220 292 L215 321 L205 344 L198 348 L200 364 L185 377 L179 395 L182 409 L174 415 L172 426 L163 422 L167 376 L192 348 L185 335 L176 333 L190 323 L194 306 L179 279 L173 306 L157 325 L159 263 L172 243 L193 239 L195 213 L211 199 L206 186 L209 172 Z M251 17 L236 24 L224 44 L225 62 L241 79 L240 84 L194 134 L174 175 L167 159 L161 159 L147 196 L146 216 L131 244 L123 449 L132 464 L148 474 L186 482 L230 482 L258 496 L280 482 L325 482 L368 472 L387 451 L389 417 L384 259 L379 239 L365 216 L358 176 L350 159 L344 159 L342 170 L335 175 L328 149 L304 120 L307 103 L278 75 L288 56 L285 34 L272 21 Z M264 447 L265 449 L262 450 L262 452 L265 456 L265 460 L263 461 L262 465 L255 471 L246 460 L247 454 L249 453 L250 448 Z M366 432 L367 433 L367 443 L364 445 L356 438 Z M144 430 L154 438 L148 445 L146 445 L143 440 Z M254 106 L307 162 L314 181 L312 196 L327 215 L328 230 L347 237 L358 252 L363 284 L366 419 L352 435 L301 442 L191 441 L159 435 L146 423 L148 290 L153 253 L166 236 L183 231 L185 212 L199 196 L201 168 Z M253 80 L297 121 L322 153 L328 167 L328 195 L350 175 L353 189 L348 204 L358 201 L358 214 L344 219 L341 204 L334 213 L343 225 L360 222 L374 246 L381 446 L369 463 L328 474 L277 476 L256 488 L234 476 L184 474 L149 467 L137 459 L130 445 L137 248 L151 222 L169 225 L178 216 L178 225 L154 240 L144 269 L140 445 L144 453 L156 462 L173 462 L173 446 L164 457 L156 457 L150 450 L158 440 L183 445 L182 461 L193 468 L205 461 L206 451 L201 450 L200 459 L190 463 L185 456 L189 446 L246 447 L242 463 L257 477 L270 460 L266 450 L269 447 L322 446 L325 458 L321 463 L309 456 L309 450 L306 459 L312 466 L323 468 L330 458 L327 445 L353 440 L360 448 L359 455 L347 457 L338 446 L338 462 L358 461 L371 446 L364 254 L358 241 L333 225 L328 205 L318 194 L317 169 L306 152 L257 98 L199 160 L193 175 L194 193 L180 214 L173 204 L169 204 L172 213 L167 219 L153 214 L152 204 L163 204 L159 193 L161 176 L166 176 L179 195 L184 194 L183 169 L190 151 Z M255 58 L258 60 L258 64 L302 108 L300 112 L297 112 L289 104 L286 103 L252 67 L251 62 Z M247 42 L253 39 L259 39 L263 41 L267 47 L267 54 L264 56 L258 52 L250 53 L248 56 L246 56 L244 49 Z M236 33 L239 30 L241 30 L243 27 L249 25 L263 25 L269 27 L272 31 L275 32 L275 34 L281 43 L282 53 L277 65 L274 68 L271 68 L268 65 L268 63 L272 60 L273 56 L272 41 L266 35 L260 32 L252 32 L242 38 L240 41 L239 47 L237 49 L237 53 L239 55 L241 62 L245 66 L246 72 L244 73 L239 70 L232 61 L230 54 L231 42 L236 35 Z"/></svg>
