<svg xmlns="http://www.w3.org/2000/svg" width="512" height="512" viewBox="0 0 512 512" aria-hidden="true" focusable="false"><path fill="currentColor" fill-rule="evenodd" clip-rule="evenodd" d="M293 465 L293 467 L301 467 L301 465 L296 464 Z M205 466 L205 467 L219 467 L218 464 L208 464 Z M353 454 L350 460 L350 465 L353 469 L356 469 L359 464 L359 460 L356 457 L356 455 Z M353 462 L355 461 L356 463 L354 464 Z M338 454 L334 461 L334 466 L337 470 L340 470 L344 465 L344 461 L340 456 L340 454 Z M337 461 L339 460 L341 464 L338 465 Z M299 452 L299 454 L307 454 L306 452 Z M205 454 L214 454 L214 452 L212 451 L207 451 Z M183 427 L183 429 L231 429 L226 431 L224 438 L225 452 L229 452 L230 457 L221 453 L218 447 L221 442 L214 440 L215 449 L223 458 L223 463 L234 467 L232 476 L225 482 L227 491 L259 495 L278 493 L287 489 L287 482 L280 476 L278 467 L289 463 L289 458 L297 449 L298 440 L288 442 L286 431 L277 433 L273 425 L264 428 L257 421 L248 428 L239 425 L235 433 L231 431 L234 426 Z M259 489 L269 488 L270 490 L260 491 Z M242 489 L243 488 L253 488 L254 490 L253 491 L243 491 Z M284 485 L284 487 L276 490 L271 489 L272 487 L275 487 L276 485 L282 484 Z M228 485 L229 484 L234 485 L236 487 L240 487 L241 489 L235 490 L229 488 Z M235 479 L239 470 L246 471 L273 470 L275 474 L274 476 L269 475 L269 481 L267 483 L262 483 L259 481 L257 476 L255 476 L254 479 L249 483 L245 483 L243 481 L243 475 L241 475 L237 480 Z M232 450 L233 447 L241 449 L245 453 L245 456 L248 457 L249 451 L255 447 L260 449 L264 453 L264 456 L267 455 L267 452 L269 450 L278 447 L280 448 L278 455 L274 459 L267 461 L239 460 L234 456 Z M293 445 L294 447 L292 451 L287 456 L281 458 L280 456 L282 451 L286 450 L288 445 Z M281 441 L283 440 L284 442 L282 443 Z M228 441 L230 440 L231 442 L229 443 Z M277 442 L275 445 L272 445 L269 447 L266 446 L266 444 L272 439 L274 439 Z M235 442 L238 439 L240 439 L246 444 L246 446 L243 447 L237 445 Z M249 443 L255 438 L257 438 L263 443 L263 445 L260 446 L258 444 L254 444 L250 446 Z M246 438 L248 437 L249 439 L247 440 Z M232 437 L234 436 L235 438 L233 439 Z M263 434 L266 436 L265 440 L261 437 Z M269 429 L273 433 L272 436 L270 436 L267 433 Z M243 429 L245 432 L242 436 L240 436 L239 432 Z M252 429 L255 426 L257 426 L260 432 L253 433 Z M162 358 L160 359 L160 365 L154 372 L154 381 L158 386 L158 395 L160 395 L161 392 L161 385 L157 379 L157 373 L163 365 Z M213 356 L267 356 L267 354 L265 353 L214 353 Z M213 341 L214 344 L273 344 L275 343 L274 340 L214 340 Z M178 333 L176 333 L176 338 L170 344 L168 349 L171 362 L161 374 L161 380 L165 387 L165 391 L167 392 L168 384 L164 379 L164 375 L174 364 L174 356 L172 354 L172 347 L176 344 L177 354 L179 355 L181 361 L179 362 L178 366 L173 370 L171 374 L171 381 L174 386 L173 395 L175 395 L177 391 L177 384 L174 380 L174 375 L184 362 L183 355 L179 349 L181 344 L177 342 L179 338 Z M213 328 L214 331 L294 331 L299 330 L299 328 L294 327 L214 327 Z M213 315 L214 318 L296 318 L299 317 L298 314 L214 314 Z M213 302 L215 306 L297 306 L299 304 L299 302 Z M255 257 L247 270 L237 269 L238 278 L232 282 L232 284 L242 290 L250 289 L255 295 L257 295 L261 290 L273 289 L280 284 L280 282 L274 278 L275 269 L266 270 L262 266 L258 258 Z M254 287 L257 286 L258 289 L255 290 Z M273 282 L274 284 L271 286 L270 284 Z M238 283 L240 282 L242 285 L240 286 Z M261 275 L263 274 L264 277 L262 278 Z M248 275 L250 274 L251 277 L249 278 Z M255 273 L257 273 L259 277 L262 279 L260 283 L252 283 L250 281 L250 279 L253 277 Z M271 272 L272 276 L267 281 L266 274 Z M241 272 L246 274 L245 282 L242 280 L240 276 Z M252 267 L255 263 L257 263 L260 268 L253 269 Z M215 214 L215 219 L217 221 L223 221 L225 218 L230 221 L238 221 L247 214 L255 218 L265 214 L274 221 L286 219 L291 223 L297 218 L296 212 L290 210 L288 205 L285 210 L283 209 L283 203 L280 200 L278 192 L276 192 L273 197 L271 196 L269 183 L264 183 L264 178 L256 164 L247 181 L243 182 L240 196 L238 197 L234 192 L229 201 L229 209 L227 210 L226 206 L223 205 L223 208 L218 210 Z M288 214 L292 213 L293 217 L291 218 Z M283 215 L280 218 L276 217 L280 213 Z M229 215 L232 213 L236 217 L231 218 Z M222 213 L223 215 L219 218 L218 215 Z M262 203 L265 202 L266 204 L263 205 Z M246 203 L249 202 L250 204 L247 205 Z M232 203 L236 200 L238 202 L236 204 L237 209 L241 208 L245 209 L246 211 L242 213 L235 212 L231 207 Z M277 199 L280 205 L279 210 L275 213 L267 212 L266 211 L267 209 L270 208 L274 209 L276 204 L274 204 L273 202 Z M255 198 L257 198 L259 201 L259 207 L256 210 L254 209 L252 205 Z M266 191 L268 194 L268 197 L263 200 L261 196 Z M245 190 L251 196 L249 200 L243 196 Z M250 189 L253 188 L254 192 L252 193 Z M246 185 L248 184 L250 187 L248 188 Z M255 174 L260 179 L259 187 L262 188 L260 192 L258 191 L257 188 L253 187 L251 182 Z M257 17 L236 128 L231 135 L218 134 L205 125 L207 108 L202 113 L204 176 L169 173 L160 164 L158 148 L155 166 L161 186 L157 226 L130 223 L120 214 L121 199 L116 204 L121 236 L109 284 L131 302 L132 383 L126 406 L120 407 L120 413 L113 414 L111 420 L107 413 L114 393 L106 378 L112 370 L111 361 L126 341 L121 338 L116 320 L102 332 L102 311 L96 303 L103 290 L95 272 L87 288 L93 302 L89 308 L89 337 L77 334 L75 354 L86 361 L82 370 L87 379 L79 395 L87 414 L82 422 L97 424 L77 428 L77 438 L86 443 L86 450 L75 455 L75 467 L127 467 L79 464 L78 458 L82 454 L125 454 L89 451 L89 443 L127 442 L93 439 L92 432 L150 429 L115 425 L120 418 L149 418 L148 414 L124 414 L124 410 L150 409 L154 435 L131 440 L130 466 L146 482 L147 492 L186 491 L185 482 L201 466 L201 442 L179 435 L181 417 L291 418 L283 412 L290 408 L296 417 L302 395 L309 425 L289 429 L326 429 L312 426 L313 418 L318 415 L333 419 L309 455 L310 466 L321 480 L320 491 L358 491 L356 480 L368 465 L368 453 L362 440 L348 430 L343 409 L389 411 L350 414 L347 418 L397 420 L396 426 L352 429 L420 432 L419 439 L366 442 L422 443 L422 451 L371 454 L430 454 L434 458 L433 464 L371 467 L437 467 L437 455 L426 450 L426 443 L434 439 L435 428 L400 425 L430 421 L425 414 L432 392 L424 379 L430 367 L425 364 L429 356 L437 354 L435 335 L423 339 L423 307 L419 302 L425 288 L419 272 L409 290 L409 297 L416 303 L410 309 L410 332 L396 319 L386 340 L391 353 L401 361 L400 370 L406 378 L398 393 L405 413 L402 419 L386 405 L380 385 L380 303 L403 283 L390 233 L396 216 L395 202 L391 199 L391 214 L382 223 L354 226 L350 183 L357 158 L353 148 L352 163 L343 173 L308 176 L306 143 L311 116 L305 108 L306 124 L290 135 L281 135 L276 127 L261 60 Z M322 486 L327 485 L329 487 L348 487 L350 485 L355 485 L356 487 L350 490 L328 490 L324 489 Z M158 484 L160 483 L161 485 L159 486 Z M321 461 L323 460 L325 463 L322 464 Z M132 457 L140 457 L142 459 L148 460 L183 460 L198 456 L199 461 L196 468 L188 476 L179 480 L161 481 L149 479 L139 473 L133 464 Z M163 456 L167 455 L168 457 L164 458 Z M364 452 L364 457 L362 461 L363 467 L361 472 L350 479 L325 479 L316 471 L314 466 L317 462 L322 470 L324 470 L328 464 L328 461 L323 454 L317 462 L315 461 L313 454 L318 448 L344 450 L359 447 Z M134 447 L137 446 L154 449 L177 449 L196 446 L197 448 L194 450 L181 452 L149 452 L137 450 Z M350 444 L353 443 L354 445 L351 446 Z M324 444 L327 443 L328 445 L325 446 Z M170 444 L172 443 L173 445 L171 446 Z M159 444 L161 443 L162 445 L160 446 Z M325 438 L326 437 L330 438 L352 437 L353 439 L350 441 L328 441 Z M431 430 L432 436 L427 439 L424 439 L423 432 Z M171 429 L174 430 L173 436 L170 435 Z M159 429 L162 430 L161 436 L158 435 Z M80 430 L84 429 L88 431 L89 438 L85 439 L80 435 Z M336 429 L341 428 L342 430 L337 431 Z M98 424 L99 423 L111 423 L112 425 L111 426 L99 426 Z M171 418 L175 419 L174 426 L170 425 Z M158 418 L162 419 L161 426 L158 425 L157 420 Z M337 417 L339 416 L341 420 L338 421 Z M173 411 L175 410 L176 413 L174 414 Z M157 411 L161 410 L162 413 L158 415 Z M324 410 L325 409 L335 410 L336 412 L334 416 L331 414 L326 416 L324 413 Z M323 408 L324 404 L328 405 L325 409 Z M361 403 L362 402 L380 402 L383 405 L382 406 L362 406 Z M335 406 L337 403 L340 402 L347 402 L350 404 L349 406 L343 406 L342 408 L340 406 L337 407 Z M166 398 L168 399 L168 409 L167 410 L165 409 L165 399 Z M364 396 L366 394 L378 394 L380 398 L379 399 L365 399 Z M131 397 L134 394 L145 394 L147 396 L146 399 L132 399 Z M309 390 L312 389 L316 390 L317 397 L319 399 L321 410 L320 412 L316 410 L313 411 L312 413 L310 412 L307 394 Z M365 388 L366 387 L378 387 L379 390 L378 391 L366 391 Z M290 387 L293 388 L294 390 L299 391 L297 403 L295 407 L291 404 L289 405 L286 404 Z M133 388 L134 387 L145 387 L146 390 L145 391 L134 391 Z M198 387 L200 386 L201 389 L199 390 Z M299 385 L307 384 L308 386 L300 387 Z M413 383 L417 383 L421 391 L427 391 L429 394 L429 401 L421 414 L409 414 L401 400 L403 392 L409 391 Z M406 384 L408 383 L409 385 L407 386 Z M327 383 L330 386 L330 397 L328 400 L323 402 L321 397 L320 386 L323 383 Z M192 383 L195 386 L192 392 L201 394 L200 397 L195 401 L192 400 L188 396 L188 387 Z M103 384 L105 383 L106 385 L104 386 Z M95 383 L99 383 L103 391 L108 391 L110 395 L108 406 L103 414 L90 414 L83 401 L84 392 L91 391 Z M421 374 L422 375 L421 379 L418 380 L417 378 Z M409 375 L411 374 L415 380 L411 381 L409 379 Z M101 374 L103 375 L103 379 L99 380 L98 378 Z M90 375 L92 374 L95 379 L91 380 Z M326 371 L325 375 L319 382 L312 386 L308 385 L309 383 L315 381 L322 374 L324 370 Z M287 370 L289 369 L293 373 L299 373 L303 378 L308 373 L314 373 L317 370 L319 372 L310 380 L300 381 L291 377 Z M406 369 L407 368 L424 368 L425 370 L424 371 L407 371 Z M86 369 L87 368 L105 368 L106 370 L105 371 L87 371 Z M324 368 L326 367 L327 369 L325 370 Z M280 367 L281 366 L283 367 L284 373 L290 380 L295 383 L298 383 L299 385 L295 386 L289 383 L283 377 L280 371 Z M325 362 L327 361 L328 363 L326 364 Z M303 361 L306 364 L304 368 L301 367 L301 364 Z M280 361 L282 362 L281 366 L279 365 Z M404 359 L406 358 L407 360 L405 361 Z M324 357 L326 356 L327 359 L325 360 Z M108 356 L109 358 L106 361 L105 359 Z M302 355 L304 354 L305 356 L303 357 Z M401 354 L403 353 L404 355 L402 356 Z M323 354 L325 353 L326 355 L324 356 Z M283 353 L284 354 L283 359 L281 360 L280 356 Z M108 354 L110 353 L111 355 L109 356 Z M433 347 L435 348 L434 352 L432 351 Z M78 347 L80 348 L79 352 L77 351 Z M285 360 L288 353 L296 346 L308 345 L318 352 L321 357 L322 364 L321 367 L319 368 L316 365 L316 356 L310 357 L304 349 L301 350 L297 357 L291 356 L290 366 L285 365 Z M120 345 L119 350 L114 352 L113 351 L114 347 L117 344 Z M84 344 L88 346 L88 350 L86 352 L83 351 Z M427 343 L429 345 L429 348 L425 352 L423 348 L424 345 Z M392 343 L398 348 L397 352 L392 349 L391 345 Z M313 343 L317 342 L324 349 L324 351 L322 352 Z M293 341 L294 343 L284 351 L283 349 L290 342 Z M294 341 L296 340 L297 342 L295 343 Z M430 340 L432 339 L433 342 L431 343 Z M297 340 L298 339 L309 339 L312 340 L313 342 L312 343 L298 342 Z M80 339 L82 340 L81 343 L78 342 Z M103 338 L108 343 L108 348 L104 354 L102 353 L102 339 Z M408 337 L410 338 L410 350 L406 351 L403 343 L407 340 Z M401 333 L404 332 L405 334 L402 335 Z M395 332 L401 338 L399 341 L394 338 L393 334 Z M117 332 L118 338 L113 341 L112 337 Z M107 333 L110 332 L111 334 L108 335 Z M396 326 L399 325 L400 328 L398 329 Z M112 326 L114 325 L116 328 L113 329 Z M369 311 L376 312 L376 360 L377 361 L377 383 L376 384 L367 383 L368 312 Z M136 311 L143 312 L143 328 L144 329 L144 383 L143 384 L135 383 L135 312 Z M414 310 L419 313 L420 318 L420 364 L419 365 L413 364 L413 311 Z M98 310 L99 311 L98 314 L99 361 L97 365 L93 365 L92 364 L92 317 L93 313 Z M366 299 L369 297 L376 297 L378 300 L376 302 L368 302 Z M133 298 L134 297 L144 297 L145 301 L135 302 Z M363 290 L364 289 L381 289 L382 293 L381 294 L364 294 Z M351 289 L360 290 L360 296 L364 302 L363 309 L365 312 L364 384 L361 398 L357 402 L356 406 L353 405 L350 394 Z M130 290 L131 289 L148 289 L149 293 L148 294 L131 294 Z M418 283 L422 292 L420 293 L416 289 L417 296 L414 298 L412 295 L412 290 L415 284 Z M94 282 L97 284 L100 291 L100 295 L98 298 L95 297 L96 289 L93 290 L92 294 L90 293 L91 287 Z M394 281 L398 280 L399 283 L396 284 Z M333 281 L334 280 L389 280 L392 285 L391 286 L351 286 L350 284 L334 284 Z M120 285 L122 280 L177 280 L178 281 L177 284 L162 284 L161 286 L121 286 Z M113 283 L114 280 L117 281 L115 284 Z M334 273 L335 272 L346 272 L347 275 L345 277 L336 277 Z M164 273 L165 272 L169 273 L176 272 L177 275 L173 277 L167 277 Z M152 290 L162 290 L162 355 L165 356 L165 288 L176 288 L176 328 L179 329 L179 287 L185 279 L180 272 L195 272 L195 379 L188 381 L184 390 L191 404 L281 405 L281 413 L181 416 L182 401 L179 399 L175 406 L171 406 L168 395 L163 395 L161 406 L157 406 L154 399 L150 407 L130 406 L132 402 L148 402 L150 398 L147 384 L147 311 Z M341 265 L344 263 L349 263 L351 267 L349 269 L342 269 Z M160 265 L163 263 L166 263 L169 266 L169 268 L162 269 Z M191 260 L194 261 L194 265 L192 268 L190 267 Z M194 247 L316 250 L319 260 L314 336 L293 337 L277 354 L275 366 L286 385 L283 400 L203 399 L204 383 L279 382 L198 379 L199 284 Z M188 247 L193 256 L184 257 L184 260 L187 262 L187 265 L185 268 L183 268 L179 261 L179 256 L181 254 L182 249 L184 247 Z M357 237 L362 238 L360 245 L357 243 L356 240 Z M150 237 L155 238 L155 241 L153 244 L149 240 Z M133 237 L144 237 L145 238 L145 241 L141 248 L141 253 L144 258 L149 260 L150 264 L153 263 L156 265 L157 268 L161 272 L160 276 L158 277 L126 277 L124 275 L128 265 L131 242 Z M378 236 L380 240 L381 253 L387 276 L386 277 L354 277 L352 276 L351 272 L354 269 L355 265 L358 263 L361 264 L363 260 L370 255 L371 249 L366 238 Z M367 231 L369 230 L370 232 L368 233 Z M357 231 L360 230 L361 232 L358 233 Z M187 231 L321 230 L344 250 L330 253 L332 256 L341 255 L342 259 L331 261 L338 268 L329 269 L330 275 L326 278 L332 289 L333 354 L335 288 L347 288 L347 389 L344 394 L337 394 L339 399 L334 398 L332 382 L335 381 L335 373 L333 372 L330 381 L327 379 L331 367 L330 354 L317 338 L317 294 L322 263 L320 249 L314 243 L185 243 L177 250 L176 262 L180 269 L177 272 L172 268 L173 260 L166 258 L173 255 L175 243 Z M153 231 L155 230 L156 232 L154 233 Z M387 223 L389 224 L389 228 L386 231 L386 236 L388 238 L389 252 L395 274 L394 276 L390 274 L389 267 L386 261 L383 237 L381 232 L371 232 L370 231 L371 229 L382 227 Z M124 223 L132 228 L140 229 L141 231 L140 232 L130 232 L125 262 L123 264 L121 275 L118 277 L117 272 L121 259 L124 240 L124 230 L121 226 Z M302 207 L304 206 L306 209 L304 210 Z M209 206 L210 208 L207 210 L206 208 Z M310 187 L338 187 L339 188 L343 222 L342 227 L335 221 L309 190 Z M201 187 L202 191 L183 214 L169 228 L168 222 L170 213 L171 188 L172 187 L195 187 L196 188 Z M309 181 L330 181 L331 179 L342 177 L347 173 L349 174 L350 179 L347 181 L347 192 L351 229 L353 235 L352 237 L347 233 L347 220 L345 218 L342 184 L309 184 L308 183 Z M199 181 L200 182 L199 184 L169 184 L168 185 L168 198 L167 199 L167 210 L165 212 L164 234 L160 237 L159 232 L164 190 L164 181 L161 179 L162 174 L164 173 L172 178 L179 179 L181 181 Z M200 223 L257 154 L312 226 L201 227 Z M280 146 L294 146 L295 147 L295 158 L296 159 L295 169 L289 163 L279 148 Z M232 146 L233 148 L223 163 L217 169 L216 168 L216 149 L218 146 Z M276 140 L291 139 L302 133 L305 134 L306 139 L301 142 L303 174 L305 176 L304 182 L300 178 L298 143 L276 143 L275 142 Z M271 135 L272 132 L276 133 L274 136 Z M235 133 L240 132 L241 135 L237 136 Z M208 132 L221 139 L237 141 L236 143 L214 143 L212 178 L209 182 L207 181 L207 173 L209 171 L210 141 L206 139 L206 135 Z M144 249 L151 251 L188 214 L226 165 L241 143 L254 118 L257 117 L270 142 L300 185 L339 231 L361 251 L366 247 L367 253 L362 256 L356 254 L325 226 L288 182 L257 138 L253 140 L237 165 L211 198 L170 243 L150 256 L144 252 Z M248 92 L263 91 L266 94 L267 107 L273 127 L272 129 L268 129 L263 122 L257 106 L254 107 L253 113 L244 129 L239 128 L243 117 L246 96 Z M248 86 L259 84 L263 85 L264 87 L263 88 L249 88 Z M250 76 L251 75 L261 75 L262 79 L261 80 L251 80 Z M252 68 L254 66 L258 66 L260 68 L260 71 L253 72 Z M255 54 L258 55 L257 63 L254 62 Z"/></svg>
