<svg xmlns="http://www.w3.org/2000/svg" width="512" height="512" viewBox="0 0 512 512" aria-hidden="true" focusable="false"><path fill="currentColor" fill-rule="evenodd" clip-rule="evenodd" d="M42 261 L47 289 L58 299 L71 300 L70 311 L59 314 L44 296 L51 332 L70 370 L91 396 L121 422 L152 439 L152 444 L135 440 L149 455 L162 459 L182 456 L185 467 L198 474 L210 472 L216 462 L226 473 L240 477 L253 496 L267 477 L279 475 L289 465 L309 474 L323 467 L326 456 L347 459 L365 451 L373 440 L363 444 L350 441 L382 423 L423 384 L441 355 L448 333 L462 317 L464 297 L471 285 L462 281 L466 250 L445 216 L440 186 L426 220 L427 231 L441 243 L440 255 L426 246 L426 257 L420 264 L399 247 L361 245 L338 257 L318 285 L315 312 L325 340 L348 361 L383 367 L405 355 L386 362 L356 359 L337 346 L325 328 L329 327 L346 348 L367 357 L396 354 L408 344 L384 354 L369 354 L347 345 L329 319 L328 296 L334 281 L347 266 L369 256 L389 257 L409 268 L409 260 L415 264 L414 271 L370 314 L354 301 L343 303 L343 309 L367 335 L376 332 L412 284 L422 276 L428 281 L426 288 L422 286 L424 307 L416 342 L411 344 L413 348 L394 379 L367 405 L357 409 L360 395 L371 383 L339 389 L324 398 L324 373 L301 381 L288 396 L253 346 L220 395 L209 382 L186 373 L184 398 L170 389 L136 383 L149 397 L151 408 L146 410 L108 377 L84 334 L101 311 L102 291 L91 264 L92 252 L79 259 L76 247 L67 258 L63 257 L68 239 L82 228 L68 186 L63 216 L47 242 Z M246 476 L250 473 L253 479 L255 479 L256 476 L259 474 L262 477 L262 480 L259 484 L251 485 L248 482 L249 479 Z M267 471 L269 470 L270 472 L268 473 Z M267 463 L269 462 L270 464 L268 465 Z M237 462 L239 461 L241 464 L239 465 Z M150 449 L152 448 L153 450 L151 451 Z M320 456 L319 464 L312 469 L303 469 L299 466 L298 464 L299 460 L302 458 L306 459 L306 456 L302 454 L297 454 L289 458 L286 457 L285 458 L286 461 L284 465 L276 471 L272 469 L277 463 L279 456 L290 448 L292 448 L293 450 L295 450 L296 447 L305 447 L307 450 L311 448 L315 450 Z M269 447 L272 447 L275 452 L275 457 L273 460 L270 459 L270 453 L268 449 Z M236 447 L239 448 L237 459 L235 459 L233 456 L234 450 Z M188 456 L192 451 L197 448 L207 446 L212 447 L213 450 L218 448 L225 452 L225 457 L228 457 L230 459 L231 462 L230 467 L233 466 L236 469 L235 472 L231 471 L223 464 L218 457 L210 454 L204 455 L201 459 L204 458 L208 459 L210 462 L209 466 L205 469 L197 469 L189 464 Z M239 444 L241 443 L242 445 L240 446 Z M269 442 L270 444 L267 447 L266 444 Z M251 442 L253 443 L257 442 L261 446 L261 448 L264 450 L265 453 L264 461 L255 469 L248 466 L243 460 L244 457 L243 452 Z M154 440 L156 439 L157 442 L155 443 Z M302 440 L306 438 L312 439 L311 442 L303 442 Z M196 439 L201 438 L204 441 L197 442 Z M260 438 L263 437 L264 441 L262 442 Z M190 438 L189 442 L176 445 L176 447 L183 445 L186 446 L186 449 L181 452 L169 455 L158 454 L155 452 L155 449 L157 447 L174 438 L178 437 L189 437 Z M317 438 L322 436 L334 438 L353 448 L354 452 L345 455 L332 454 L322 449 L323 445 L328 446 L328 444 L318 442 Z M289 437 L290 439 L289 441 L286 442 L281 441 L287 436 Z M245 435 L248 438 L246 442 L243 441 L243 438 Z M351 430 L352 433 L346 436 L345 433 Z M220 431 L223 430 L225 433 L223 434 Z M255 430 L257 429 L260 432 L260 434 L258 435 Z M252 428 L253 432 L249 436 L247 433 Z M359 426 L360 429 L355 432 L354 428 Z M161 427 L163 426 L164 428 L162 429 Z M354 419 L355 423 L346 428 L345 426 Z M249 417 L251 416 L252 418 L250 419 Z M256 412 L259 415 L260 418 L259 420 L257 419 L255 415 Z M253 411 L255 410 L256 412 L254 413 Z M242 404 L246 405 L247 408 L250 409 L247 414 L247 427 L244 430 L240 427 L237 419 L238 410 Z M355 392 L356 394 L351 410 L346 418 L334 429 L327 432 L318 432 L317 430 L324 426 L334 416 L338 410 L338 408 L336 408 L321 423 L319 420 L322 415 L323 408 L333 397 L339 394 L346 392 Z M156 392 L166 393 L169 395 L169 397 L173 396 L184 406 L187 417 L190 422 L189 424 L185 423 L173 409 L171 409 L171 411 L177 419 L177 423 L179 425 L182 424 L191 430 L190 432 L181 432 L171 427 L161 417 L158 412 L153 397 Z M254 388 L256 389 L262 400 L261 404 L262 405 L266 404 L271 413 L270 424 L265 430 L261 426 L262 415 L255 405 L255 403 L253 403 L252 406 L248 406 L246 403 L246 399 L249 393 Z M317 380 L319 406 L316 417 L313 423 L303 433 L292 439 L290 435 L300 425 L306 409 L306 404 L304 404 L304 408 L299 420 L287 433 L284 434 L283 432 L290 422 L293 398 L302 386 Z M191 380 L203 384 L214 395 L217 406 L217 418 L220 426 L215 427 L212 424 L206 414 L203 404 L201 404 L202 411 L204 413 L208 425 L215 433 L222 438 L226 439 L226 442 L217 440 L206 434 L194 421 L191 415 L189 405 Z M253 358 L255 358 L261 367 L267 372 L268 375 L266 378 L269 379 L268 387 L274 382 L277 384 L279 388 L277 399 L281 397 L283 398 L287 410 L282 426 L272 437 L268 436 L268 432 L274 426 L275 410 L269 398 L265 396 L259 386 L254 374 L250 385 L236 403 L233 410 L234 425 L240 434 L237 436 L232 434 L232 429 L227 428 L222 419 L222 404 L225 397 L230 398 L230 385 L232 383 L236 383 L237 388 L240 389 L240 375 Z M54 317 L61 320 L66 338 L73 354 L94 384 L114 404 L124 412 L146 426 L160 432 L159 435 L147 431 L129 421 L107 404 L90 387 L78 372 L70 360 L67 352 L65 351 L53 321 Z M321 305 L324 306 L326 318 L325 323 L323 323 L321 319 L320 312 Z M322 296 L325 297 L323 303 L320 302 L320 298 Z M462 286 L463 288 L460 295 L457 318 L452 326 L445 330 L438 350 L423 375 L395 406 L376 421 L364 427 L363 424 L368 419 L380 412 L398 396 L410 382 L412 377 L416 374 L431 344 L436 329 L438 316 L446 315 L450 310 L451 305 L449 305 L449 308 L446 311 L440 310 L441 300 L451 289 Z M328 279 L330 283 L328 285 L326 292 L323 293 L322 292 L325 281 Z M441 278 L443 282 L441 284 L438 284 L439 289 L435 301 L434 315 L432 317 L430 331 L417 363 L399 388 L377 409 L359 421 L357 417 L374 405 L390 390 L401 377 L411 362 L413 356 L415 355 L419 347 L426 325 L429 291 L431 287 Z M328 275 L330 274 L333 277 L329 278 Z M338 265 L340 268 L334 273 L332 270 L334 269 L336 265 Z M347 257 L349 261 L343 264 L342 260 Z M387 251 L392 250 L404 255 L406 257 L406 260 L404 261 L394 255 L392 256 L388 254 Z M365 251 L364 254 L358 257 L353 258 L351 256 L352 254 L362 250 Z M382 250 L381 253 L379 252 L369 253 L368 252 L369 249 L376 250 L377 248 L380 248 Z M434 213 L440 214 L443 223 L456 240 L462 254 L462 268 L457 281 L449 286 L447 286 L446 284 L451 274 L453 262 L451 262 L448 272 L445 272 L444 274 L439 274 L439 276 L434 280 L430 278 L426 270 L426 266 L431 253 L436 258 L436 269 L438 269 L438 267 L443 262 L446 253 L446 244 L442 235 L442 231 L440 231 L439 233 L435 233 L431 228 L431 219 Z M69 213 L73 213 L75 216 L76 229 L73 233 L67 231 L60 246 L59 263 L63 272 L71 277 L70 262 L73 259 L76 262 L75 278 L83 295 L83 306 L79 316 L82 315 L86 307 L85 289 L78 279 L78 270 L82 264 L87 266 L96 290 L95 312 L90 322 L78 331 L80 341 L93 366 L109 386 L131 406 L152 418 L153 424 L122 406 L96 381 L77 353 L69 336 L65 320 L74 313 L76 300 L68 288 L63 294 L55 291 L47 273 L47 259 L50 248 L65 224 Z M436 209 L438 208 L439 210 L437 211 Z M124 127 L126 131 L141 142 L171 157 L191 164 L219 169 L219 167 L202 164 L180 157 L176 154 L173 154 L169 151 L142 139 L134 134 L132 131 Z M467 186 L460 158 L439 128 L357 82 L355 71 L342 62 L339 54 L338 17 L333 47 L345 78 L339 99 L308 137 L266 167 L244 167 L205 139 L168 92 L166 77 L177 51 L173 19 L169 62 L156 71 L153 82 L133 97 L81 120 L54 149 L42 181 L41 208 L47 228 L47 178 L69 137 L84 124 L155 89 L188 137 L240 176 L247 199 L214 247 L207 296 L212 318 L209 325 L217 334 L247 335 L256 343 L262 335 L283 337 L298 329 L303 294 L297 250 L264 200 L264 188 L270 176 L320 140 L356 89 L388 108 L383 124 L374 135 L344 151 L292 167 L320 164 L370 143 L349 169 L290 224 L361 164 L379 141 L392 112 L397 118 L388 147 L333 232 L381 169 L400 114 L405 113 L408 120 L408 151 L389 211 L409 165 L412 118 L434 130 L455 159 L464 195 L461 229 Z M253 335 L255 334 L256 336 L254 337 Z M281 330 L285 329 L286 331 L282 332 Z M231 330 L233 329 L234 331 L232 332 Z M265 329 L267 328 L268 331 L266 332 Z M245 327 L246 331 L242 332 L241 330 Z M289 325 L291 324 L293 327 L290 329 Z M216 326 L218 324 L221 324 L223 328 L228 329 L229 331 L224 332 L218 329 Z M254 318 L257 320 L255 324 L253 323 Z M216 317 L218 316 L219 318 L217 319 Z M293 315 L294 317 L291 320 L290 318 Z M249 315 L251 314 L252 316 L250 317 Z M273 313 L275 312 L276 314 L274 315 Z M267 311 L269 312 L269 316 L265 317 L264 313 Z M256 312 L258 311 L259 314 L257 315 Z M242 311 L246 313 L246 316 L244 318 L241 317 Z M283 311 L285 310 L287 314 L285 315 Z M224 310 L229 312 L228 314 L226 314 L225 318 L223 317 Z M252 310 L255 308 L257 311 L253 312 Z M260 307 L265 306 L266 308 L262 310 Z M243 307 L245 306 L246 308 L244 309 Z M273 306 L275 305 L276 307 L274 308 Z M233 306 L236 305 L237 308 L235 309 Z M286 303 L288 302 L289 304 L287 305 Z M221 303 L223 302 L224 304 L222 305 Z M212 301 L214 300 L215 302 L213 303 Z M295 299 L297 298 L298 301 L296 302 Z M282 297 L283 299 L280 302 L279 299 Z M267 297 L268 301 L263 303 L262 300 L265 297 Z M235 296 L236 295 L238 297 L250 296 L252 299 L247 302 L237 302 L235 300 Z M269 295 L272 294 L275 296 L274 299 L270 298 Z M291 291 L292 293 L289 295 L288 293 Z M241 278 L243 277 L244 280 L242 281 Z M260 275 L261 278 L259 282 L259 288 L254 289 L251 282 L258 275 Z M212 273 L214 272 L215 274 L213 275 Z M260 269 L263 269 L267 272 L269 280 L269 287 L267 289 L265 288 L266 282 L264 273 L259 271 Z M250 268 L255 269 L256 274 L251 279 L248 277 L247 273 L243 277 L242 276 L243 272 Z M220 265 L222 264 L224 267 L221 268 Z M289 263 L290 265 L287 268 L286 265 Z M283 252 L285 252 L288 256 L288 259 L286 262 L284 261 L284 256 L282 254 Z M226 251 L228 254 L225 257 L226 261 L224 262 L222 260 L222 256 L224 252 Z M254 250 L256 250 L259 253 L259 261 L256 267 L253 266 L253 263 L250 259 L250 254 Z M285 238 L287 239 L291 248 L290 250 L288 249 L284 240 Z M277 236 L279 237 L281 241 L280 243 L278 242 L276 238 Z M252 236 L253 237 L252 242 L247 249 L246 255 L244 258 L247 262 L247 265 L239 270 L237 278 L237 290 L233 292 L230 299 L228 300 L225 295 L225 275 L227 274 L228 268 L234 266 L237 263 L239 250 L244 241 L249 236 Z M226 235 L227 238 L225 242 L223 243 L222 241 L224 236 Z M234 234 L235 237 L231 241 L230 239 L232 235 Z M281 234 L283 233 L284 235 L282 236 Z M226 233 L228 232 L229 234 L227 235 Z M254 230 L257 231 L269 246 L271 250 L272 262 L274 265 L282 268 L284 277 L284 293 L283 294 L278 294 L276 291 L272 290 L273 288 L272 274 L271 271 L266 266 L263 265 L264 261 L263 250 L260 247 L257 238 L254 237 L252 234 Z M235 230 L237 229 L238 232 L236 233 Z M267 224 L269 223 L270 225 L268 226 Z M233 222 L235 221 L236 223 L234 224 Z M262 217 L264 218 L263 222 L261 221 Z M246 216 L248 217 L249 220 L247 223 L245 222 L244 219 Z M239 214 L241 213 L242 215 L240 216 Z M267 213 L269 212 L270 214 L268 215 Z M253 210 L254 213 L251 215 L250 213 Z M257 209 L259 210 L260 213 L259 216 L256 213 Z M253 208 L256 207 L257 209 L254 210 Z M246 207 L247 209 L244 211 L243 209 Z M253 197 L255 196 L256 198 L254 199 Z M246 173 L249 172 L250 174 L247 175 Z M275 166 L277 165 L278 167 L276 168 Z M285 160 L286 162 L283 164 L282 162 Z M290 156 L293 155 L294 157 L291 158 Z M217 156 L219 155 L220 157 L218 158 Z M210 150 L212 149 L213 151 L211 152 Z M306 143 L307 145 L304 147 L303 145 Z M203 144 L205 143 L206 145 L204 146 Z M311 138 L313 137 L314 139 L312 140 Z M317 132 L319 131 L320 133 L318 134 Z M185 126 L187 125 L188 127 L186 128 Z M323 125 L325 124 L326 127 L324 128 Z M328 120 L330 119 L331 121 L329 122 Z M398 112 L400 111 L401 113 L399 114 Z M392 109 L395 108 L396 110 L393 111 Z M161 93 L163 92 L165 95 L163 96 Z"/></svg>
