<svg xmlns="http://www.w3.org/2000/svg" width="512" height="512" viewBox="0 0 512 512" aria-hidden="true" focusable="false"><path fill="currentColor" fill-rule="evenodd" clip-rule="evenodd" d="M347 409 L344 407 L341 407 L318 430 L316 430 L307 421 L303 421 L301 425 L318 441 L347 412 Z M319 376 L306 379 L287 394 L277 416 L277 431 L284 448 L296 461 L308 468 L330 470 L344 466 L362 451 L369 436 L370 415 L367 403 L352 385 L335 377 Z M333 463 L334 461 L337 460 L340 461 L339 463 L336 464 Z M306 460 L309 459 L316 462 L331 462 L332 465 L331 466 L316 466 L314 464 L307 462 Z M359 443 L360 444 L359 448 L348 459 L343 461 L342 458 L347 454 L349 454 Z M288 444 L290 443 L293 448 L306 460 L304 461 L300 459 L289 448 Z M320 388 L335 390 L347 396 L355 407 L359 419 L358 432 L351 446 L332 458 L324 459 L302 451 L294 442 L289 426 L294 404 L304 394 Z M285 405 L287 404 L290 397 L299 388 L309 383 L317 381 L331 381 L344 385 L349 388 L358 397 L358 399 L360 400 L364 408 L367 424 L363 441 L362 442 L359 441 L362 433 L362 413 L358 403 L350 393 L338 386 L329 384 L313 385 L307 387 L306 389 L301 391 L294 397 L285 415 L285 431 L289 439 L288 444 L285 442 L282 432 L282 414 Z M223 18 L212 26 L207 38 L208 48 L218 61 L200 76 L195 92 L197 109 L211 129 L190 160 L178 154 L177 170 L147 219 L135 207 L130 208 L132 218 L124 247 L131 261 L113 290 L104 331 L104 367 L111 405 L107 425 L118 443 L136 445 L152 459 L201 471 L220 482 L229 495 L242 481 L268 467 L275 475 L291 479 L304 492 L322 487 L342 492 L355 480 L378 470 L382 451 L394 437 L389 420 L390 393 L373 380 L355 352 L368 354 L382 379 L387 360 L409 348 L387 338 L380 318 L375 337 L352 348 L349 361 L321 350 L328 340 L317 292 L306 274 L291 262 L288 237 L280 219 L232 160 L181 219 L172 240 L170 262 L154 275 L140 298 L131 338 L132 377 L146 413 L146 426 L153 421 L171 432 L210 442 L212 450 L208 446 L201 451 L167 443 L145 429 L133 441 L125 441 L113 428 L116 408 L129 420 L127 426 L121 425 L124 432 L139 423 L124 385 L121 362 L123 321 L132 291 L143 273 L161 257 L175 212 L181 215 L183 199 L230 139 L279 202 L280 212 L287 213 L300 257 L315 270 L330 294 L340 356 L343 337 L339 306 L320 265 L328 266 L340 286 L348 311 L350 344 L356 343 L348 291 L330 261 L335 252 L335 237 L328 220 L330 208 L323 208 L312 219 L283 168 L283 155 L269 160 L249 128 L262 113 L266 97 L262 79 L243 62 L253 47 L253 34 L242 20 Z M205 460 L208 459 L209 455 L216 456 L219 459 L216 462 L216 465 L218 467 L224 466 L227 469 L229 475 L232 474 L236 466 L242 465 L241 459 L245 456 L250 455 L251 456 L250 461 L254 460 L256 462 L256 466 L252 472 L249 471 L248 466 L245 466 L246 474 L238 478 L230 485 L224 479 L215 474 L215 468 L213 468 L212 471 L209 472 L205 468 Z M266 453 L268 457 L268 462 L261 464 L259 456 L261 454 Z M230 448 L237 456 L237 459 L232 464 L229 464 L224 459 L224 454 Z M141 442 L146 437 L152 442 L168 447 L170 449 L192 452 L198 454 L200 456 L200 460 L198 463 L194 463 L190 461 L165 458 L163 456 L150 452 L141 444 Z M229 425 L236 431 L238 434 L238 437 L242 439 L243 449 L240 451 L234 445 L232 441 L229 441 L219 452 L216 447 L217 440 L220 437 L222 437 L222 433 L228 428 Z M165 413 L166 412 L228 412 L229 414 L224 424 L218 430 L216 430 L205 425 L196 424 L194 422 L191 423 L187 421 L178 420 L167 416 Z M163 401 L167 396 L256 396 L259 420 L255 427 L254 438 L255 442 L262 449 L258 451 L249 449 L247 435 L250 433 L251 427 L242 430 L235 422 L231 414 L232 412 L255 412 L254 408 L163 408 Z M322 356 L340 366 L361 367 L369 385 L386 398 L383 419 L389 436 L376 450 L373 468 L356 473 L340 487 L330 483 L304 486 L292 473 L277 470 L271 449 L259 437 L265 420 L263 396 L279 385 L285 368 L308 366 Z M178 349 L181 350 L180 354 L181 365 L180 366 L176 366 L172 360 L172 354 Z M380 335 L382 336 L383 340 L392 348 L392 350 L382 360 L380 360 L370 350 L370 348 L377 342 Z M141 265 L142 267 L132 280 L126 293 L126 296 L124 298 L120 312 L117 333 L117 368 L121 393 L124 404 L126 405 L126 407 L124 408 L115 398 L111 380 L109 358 L110 327 L114 303 L117 298 L120 287 L131 268 L135 264 Z M240 244 L245 255 L236 282 L262 297 L265 336 L245 347 L234 349 L226 346 L247 341 L258 331 L256 304 L253 302 L246 334 L242 338 L222 341 L220 349 L204 347 L214 334 L213 321 L205 305 L203 328 L194 349 L229 355 L264 345 L280 349 L287 359 L277 370 L273 383 L259 393 L171 392 L170 382 L268 382 L271 379 L173 377 L170 373 L171 370 L275 368 L244 365 L270 357 L271 352 L220 364 L197 366 L193 361 L189 366 L186 363 L199 295 L225 282 L217 265 L216 250 L221 244 Z M224 235 L227 233 L232 233 L236 237 L234 239 L227 239 L224 237 Z M230 223 L232 224 L233 227 L232 229 L228 228 Z M323 218 L327 233 L329 234 L331 248 L330 252 L328 253 L326 257 L318 261 L314 261 L307 257 L304 251 L308 249 L318 249 L322 245 L322 239 L316 237 L316 229 L319 221 Z M138 218 L143 224 L145 230 L144 237 L139 238 L138 240 L139 247 L145 250 L152 248 L156 252 L156 254 L147 261 L143 261 L141 259 L136 258 L131 253 L130 249 L130 240 Z M231 169 L274 219 L287 266 L302 278 L315 300 L323 342 L319 342 L307 291 L283 266 L279 238 L271 221 L250 197 L228 182 L188 224 L178 266 L156 287 L147 305 L140 336 L140 371 L148 401 L152 398 L145 370 L149 314 L161 288 L181 271 L192 226 L228 188 L241 195 L270 229 L280 271 L298 286 L306 300 L315 354 L295 361 L284 345 L268 341 L268 299 L260 288 L247 283 L253 258 L230 208 L207 259 L213 283 L195 292 L187 336 L169 350 L162 381 L165 391 L152 403 L162 418 L214 435 L209 437 L169 426 L149 410 L137 374 L137 333 L149 291 L174 265 L183 225 Z M275 163 L277 164 L283 180 L298 200 L299 204 L306 215 L310 234 L308 244 L305 248 L302 246 L300 230 L296 219 L294 218 L292 212 L288 207 L288 205 L283 200 L283 198 L267 179 L267 174 Z M184 162 L190 168 L192 174 L194 175 L194 179 L172 206 L172 208 L163 223 L160 237 L158 239 L158 245 L155 246 L152 242 L152 238 L150 235 L154 217 L164 198 L170 191 L174 183 L179 178 L182 170 L182 163 Z M230 108 L232 109 L248 136 L262 154 L265 164 L263 172 L259 170 L255 163 L248 156 L233 133 L231 127 L229 127 L228 132 L226 133 L224 139 L212 155 L212 157 L199 172 L197 171 L196 162 L200 152 L206 145 L208 140 L212 137 Z M219 82 L222 83 L222 86 L227 91 L234 91 L238 87 L240 82 L246 87 L248 98 L245 105 L240 110 L237 108 L237 106 L234 103 L232 96 L229 96 L222 110 L220 110 L215 105 L213 99 L213 93 L216 85 Z M240 67 L246 69 L253 75 L257 81 L260 90 L259 106 L255 114 L247 121 L245 121 L241 115 L249 109 L251 102 L253 100 L253 92 L251 90 L249 83 L239 74 Z M221 67 L222 74 L213 81 L208 90 L209 105 L219 116 L216 121 L213 121 L207 116 L200 102 L200 89 L206 77 L212 71 Z M227 34 L234 34 L238 39 L237 44 L234 46 L234 83 L231 86 L229 86 L226 83 L226 47 L223 42 L223 38 Z M219 26 L226 23 L235 23 L242 26 L245 29 L248 36 L248 44 L246 50 L241 55 L239 54 L239 50 L242 44 L241 34 L237 30 L234 30 L233 28 L225 29 L219 36 L219 45 L222 50 L222 54 L220 55 L215 50 L213 46 L213 36 L215 30 Z"/></svg>
