<svg xmlns="http://www.w3.org/2000/svg" width="512" height="512" viewBox="0 0 512 512" aria-hidden="true" focusable="false"><path fill="currentColor" fill-rule="evenodd" clip-rule="evenodd" d="M211 238 L214 246 L219 246 L221 241 L229 246 L235 246 L244 239 L252 240 L255 238 L259 240 L268 239 L276 246 L282 246 L288 242 L292 246 L297 246 L301 238 L291 228 L287 232 L285 231 L285 225 L281 220 L280 213 L277 213 L277 217 L274 220 L272 219 L271 205 L267 203 L265 207 L263 206 L263 196 L256 183 L253 185 L248 200 L245 203 L241 203 L239 219 L237 220 L234 213 L232 213 L226 225 L226 232 L224 233 L223 228 L221 228 Z M290 238 L294 236 L296 239 L291 240 Z M285 238 L281 242 L277 241 L282 236 Z M226 238 L229 236 L234 241 L230 242 Z M216 238 L219 236 L221 239 L217 240 Z M263 225 L266 224 L267 227 L264 228 Z M241 224 L242 223 L248 224 L249 227 L242 228 Z M279 223 L281 230 L278 235 L273 237 L268 235 L262 236 L260 235 L261 233 L265 231 L278 230 L278 227 L276 227 L275 224 L277 222 Z M230 226 L234 222 L236 224 L236 226 L233 227 L235 231 L238 230 L247 231 L251 235 L250 236 L248 235 L235 236 L231 233 Z M255 219 L259 223 L259 229 L256 234 L254 233 L252 228 L252 224 Z M267 211 L269 217 L266 221 L262 222 L260 216 L263 215 Z M244 211 L248 215 L251 216 L249 223 L244 220 L242 217 Z M244 204 L246 203 L250 208 L247 209 Z M256 193 L260 198 L259 209 L261 210 L261 212 L259 213 L258 211 L254 210 L253 213 L251 214 L250 213 L250 210 L252 208 L251 199 L253 195 Z M254 17 L244 100 L231 140 L233 155 L222 155 L203 143 L202 127 L197 134 L204 163 L201 202 L176 202 L160 195 L152 186 L151 169 L146 187 L154 209 L152 245 L127 244 L111 231 L110 216 L107 220 L112 252 L108 279 L97 306 L85 291 L85 312 L90 318 L103 318 L108 325 L111 408 L100 396 L91 406 L92 425 L83 427 L83 439 L89 448 L74 456 L74 469 L189 468 L187 464 L78 464 L77 460 L83 455 L183 454 L93 451 L93 444 L181 441 L91 440 L88 432 L181 429 L173 418 L173 337 L184 322 L187 307 L197 303 L206 285 L234 285 L234 299 L241 310 L219 333 L198 391 L193 448 L206 469 L239 480 L256 496 L272 480 L294 475 L314 459 L319 432 L313 390 L294 336 L271 311 L277 300 L277 285 L305 285 L315 303 L325 308 L326 322 L338 336 L338 418 L330 429 L424 432 L420 440 L330 441 L418 444 L418 451 L329 454 L429 455 L433 459 L432 464 L324 464 L323 468 L437 469 L438 457 L422 447 L428 439 L428 426 L419 425 L423 416 L420 406 L411 396 L401 407 L403 326 L409 318 L421 318 L426 313 L426 290 L413 305 L403 278 L399 253 L406 232 L403 217 L400 231 L381 245 L360 245 L357 209 L365 188 L360 169 L360 182 L352 194 L335 202 L310 202 L307 163 L311 160 L314 133 L309 126 L310 139 L302 149 L278 155 L281 141 L271 120 L258 20 Z M243 476 L249 475 L253 479 L255 485 L257 484 L258 478 L261 475 L267 475 L268 479 L263 484 L255 489 L251 485 L245 482 Z M254 473 L256 472 L257 474 L255 475 Z M273 463 L271 466 L266 468 L264 467 L264 465 L270 462 Z M238 463 L239 462 L244 463 L246 466 L245 467 L240 466 Z M274 462 L279 461 L280 463 L275 464 Z M255 461 L261 467 L260 471 L256 468 L253 469 L252 471 L250 470 L250 467 Z M231 462 L235 461 L236 463 L232 464 Z M283 461 L285 460 L286 462 L284 463 Z M226 461 L228 460 L229 462 L227 463 Z M287 460 L289 459 L290 461 L288 462 Z M221 460 L223 459 L224 461 L222 462 Z M260 460 L261 457 L267 458 L264 461 Z M244 458 L251 457 L252 459 L250 461 L247 461 Z M276 456 L279 455 L280 457 L277 458 Z M231 456 L234 455 L235 457 L232 458 Z M214 456 L216 455 L218 458 L216 459 Z M209 451 L211 450 L213 453 L211 454 Z M302 449 L303 451 L297 458 L291 461 L290 459 Z M301 447 L303 446 L304 448 L302 449 Z M207 447 L209 446 L210 448 L208 449 Z M218 446 L219 445 L236 445 L237 446 L292 445 L294 450 L287 452 L241 453 L240 452 L219 451 Z M222 440 L225 438 L286 438 L289 441 L288 442 L252 443 L251 442 L223 442 Z M207 436 L209 437 L208 441 L206 440 Z M224 432 L225 431 L286 431 L287 433 L275 435 L235 435 L225 434 Z M207 426 L209 427 L208 434 L206 433 Z M385 424 L386 423 L398 423 L399 425 L398 426 L386 426 Z M339 424 L340 423 L357 423 L358 425 L357 426 L340 426 Z M303 423 L305 424 L304 428 L302 427 Z M154 424 L155 423 L172 423 L173 425 L172 426 L155 426 Z M112 424 L113 423 L125 423 L126 425 L125 426 L113 426 Z M286 421 L285 425 L281 427 L262 427 L261 426 L262 424 L274 422 L277 420 L278 417 L282 417 Z M270 417 L272 416 L273 418 L271 419 Z M234 416 L235 421 L232 427 L228 426 L225 423 L226 419 L229 418 L231 422 L232 417 Z M207 416 L209 415 L210 418 L208 419 Z M208 409 L210 408 L211 410 L209 411 Z M412 405 L414 406 L415 411 L419 413 L418 418 L413 421 L408 420 L405 417 L405 412 L408 411 Z M98 405 L100 405 L103 411 L106 413 L106 417 L100 421 L97 421 L93 418 L93 412 L95 411 Z M299 395 L301 396 L303 407 L302 409 L299 407 L298 400 Z M213 392 L214 393 L213 403 L210 405 L209 404 L211 393 Z M213 386 L215 385 L216 387 L214 388 Z M295 385 L297 384 L298 386 L296 387 Z M215 377 L217 376 L218 378 L216 379 Z M216 374 L218 373 L219 375 L217 376 Z M292 373 L294 372 L295 374 L293 375 Z M290 363 L293 366 L294 370 L293 372 L290 370 L289 367 Z M221 363 L222 367 L219 369 L218 367 L219 364 Z M287 360 L289 359 L290 361 L288 362 Z M221 360 L223 359 L224 361 L222 362 Z M258 358 L263 361 L263 367 L265 368 L259 378 L259 381 L272 387 L273 395 L275 397 L275 408 L270 413 L266 415 L264 414 L270 408 L269 392 L267 392 L268 405 L260 412 L253 413 L252 416 L248 416 L249 419 L261 419 L262 421 L248 425 L237 426 L237 418 L244 414 L249 406 L248 400 L243 393 L240 409 L236 414 L234 413 L236 408 L237 391 L242 385 L252 382 L252 377 L248 374 L246 369 L250 359 Z M286 357 L288 356 L289 358 L287 359 Z M255 346 L258 349 L257 352 L254 351 Z M278 339 L283 344 L285 348 L284 351 L282 350 L282 348 L277 341 Z M233 339 L234 340 L228 351 L226 352 L225 350 L228 344 Z M387 338 L397 339 L396 343 L396 409 L397 415 L395 419 L387 418 L387 341 L386 340 Z M116 338 L125 339 L124 346 L124 411 L125 415 L123 419 L115 418 L115 339 Z M272 334 L274 333 L278 338 L276 339 Z M240 330 L241 332 L234 339 L233 337 Z M255 327 L263 331 L272 340 L287 369 L297 412 L297 444 L291 433 L288 416 L278 412 L277 387 L267 379 L268 362 L261 352 L261 346 L256 335 L253 337 L250 353 L245 358 L242 367 L244 379 L234 388 L233 406 L230 413 L223 416 L217 442 L213 443 L217 395 L226 364 L236 344 Z M264 326 L266 325 L273 332 L271 333 Z M384 325 L385 324 L399 324 L400 326 L398 329 L391 330 L386 329 Z M359 324 L381 325 L381 336 L383 339 L383 420 L380 426 L362 426 L358 418 Z M132 324 L153 325 L153 418 L148 426 L131 426 L128 420 L128 339 Z M112 325 L113 324 L126 324 L127 327 L125 329 L113 329 Z M264 313 L266 313 L268 316 L273 318 L284 329 L296 350 L296 353 L305 376 L308 394 L310 396 L314 426 L313 449 L311 456 L308 458 L308 460 L299 468 L288 472 L278 473 L276 475 L272 474 L271 471 L272 469 L288 467 L303 459 L307 451 L308 437 L310 434 L308 432 L308 418 L304 391 L294 358 L284 338 L268 321 L262 318 L262 315 Z M248 313 L249 318 L235 328 L232 333 L228 336 L221 352 L218 355 L213 374 L210 379 L204 410 L204 418 L202 420 L202 445 L204 447 L204 451 L206 455 L213 462 L220 466 L239 469 L240 470 L239 474 L236 475 L234 473 L224 472 L212 468 L202 459 L198 448 L197 431 L202 391 L204 389 L209 366 L213 359 L217 346 L228 328 L238 318 L243 316 L245 313 Z M416 312 L418 311 L419 313 L417 314 Z M91 312 L94 311 L95 313 L92 314 Z M358 308 L359 307 L401 307 L407 312 L406 315 L366 315 L363 313 L359 315 Z M343 307 L353 308 L352 418 L343 418 L341 414 L341 315 Z M158 307 L170 308 L169 418 L157 417 Z M103 314 L109 307 L153 307 L154 308 L154 312 L151 315 L148 315 L147 313 L142 313 L141 315 L104 315 Z M256 306 L260 310 L257 319 L262 322 L264 325 L262 326 L255 322 L243 330 L242 328 L253 320 L254 316 L252 314 L252 310 Z M248 295 L250 294 L253 296 L259 296 L262 294 L263 297 L259 301 L255 302 L252 301 Z M108 294 L110 295 L109 297 L110 302 L105 303 L104 300 Z M402 293 L404 294 L407 301 L406 303 L401 302 L403 300 L401 295 Z M109 288 L111 287 L112 289 L110 290 Z M399 286 L401 285 L402 288 L400 289 Z M341 286 L342 285 L357 285 L358 288 L354 297 L343 297 L341 292 Z M312 285 L337 285 L338 286 L338 324 L337 325 L331 321 L330 308 L325 302 L320 300 L319 297 L312 291 L311 289 Z M200 285 L201 287 L199 292 L194 295 L191 300 L184 304 L181 309 L181 319 L176 324 L173 323 L173 286 L174 285 Z M153 286 L154 285 L169 285 L170 286 L170 296 L169 297 L157 297 L155 295 Z M110 284 L112 283 L113 285 L111 286 Z M263 279 L266 280 L270 284 L272 288 L272 292 L274 293 L270 304 L264 309 L261 307 L261 305 L267 300 L268 290 L262 283 Z M247 279 L249 280 L249 283 L244 288 L243 296 L244 300 L251 305 L248 309 L245 308 L241 304 L239 299 L240 286 Z M272 279 L275 278 L277 283 L275 284 Z M396 271 L399 273 L401 283 L400 285 L397 283 L395 274 Z M116 267 L117 270 L115 281 L112 283 L111 279 L113 274 L113 268 Z M394 267 L396 266 L397 269 L395 270 Z M262 267 L264 266 L266 268 L347 268 L353 274 L352 275 L274 275 L273 278 L271 279 L269 276 L262 273 Z M116 260 L118 261 L117 265 L115 264 Z M393 260 L395 259 L396 262 L394 263 Z M264 261 L268 258 L271 263 L265 265 Z M364 256 L369 257 L366 264 L362 262 L362 259 Z M149 256 L150 258 L148 262 L145 264 L143 261 L143 257 Z M387 255 L390 258 L390 266 L393 283 L397 296 L396 297 L361 297 L360 291 L362 286 L368 285 L368 282 L375 278 L377 275 L377 266 L371 257 Z M124 255 L139 257 L134 267 L134 275 L143 282 L143 285 L148 286 L152 294 L151 297 L116 297 L115 296 L120 274 L121 261 Z M267 255 L269 254 L270 257 L268 258 Z M249 264 L249 273 L242 276 L237 283 L235 283 L234 281 L239 276 L238 275 L159 275 L158 274 L164 268 L245 268 L246 265 L240 263 L242 260 L241 256 L243 252 L245 253 L245 260 Z M253 250 L259 250 L262 254 L262 258 L258 263 L259 290 L257 292 L253 291 L253 262 L250 259 L250 253 Z M360 250 L366 249 L367 251 L365 253 L362 253 Z M144 250 L150 249 L151 252 L146 253 Z M189 245 L190 247 L186 250 L185 248 Z M398 245 L397 248 L395 249 L394 255 L391 254 L389 251 L380 250 L381 248 L387 247 L394 242 L396 242 Z M317 242 L319 241 L321 244 L319 245 Z M113 242 L115 241 L124 247 L130 248 L131 250 L123 251 L117 257 L116 256 L117 251 L113 247 Z M352 229 L355 231 L355 240 L357 249 L356 255 L353 253 L351 236 Z M160 219 L161 228 L159 248 L157 250 L157 253 L155 254 L154 250 L156 242 L157 221 Z M351 216 L353 217 L352 225 L350 224 Z M320 213 L345 213 L347 215 L347 229 L349 240 L348 246 L346 246 L342 242 L341 239 L319 215 Z M191 213 L192 215 L173 237 L163 246 L162 242 L165 214 L167 212 L169 213 Z M356 198 L356 204 L352 207 L351 212 L348 211 L347 209 L315 209 L314 208 L315 206 L340 205 L350 201 L353 197 Z M155 197 L157 196 L161 201 L172 205 L197 206 L198 208 L197 209 L165 209 L160 214 L159 207 L155 204 Z M195 246 L257 170 L281 205 L318 249 L269 250 L267 254 L260 246 L251 246 L245 252 L196 250 Z M286 166 L295 165 L298 168 L298 183 L297 184 L295 183 L287 172 L287 170 L285 169 Z M225 166 L226 167 L225 171 L218 181 L214 184 L213 183 L214 166 L215 165 Z M307 154 L307 157 L304 159 L303 166 L301 166 L298 161 L289 160 L290 158 L296 157 L301 153 L305 152 Z M205 153 L208 152 L217 158 L221 158 L222 160 L214 161 L211 165 L209 165 L208 160 L205 158 Z M270 144 L276 143 L277 144 L276 149 L274 150 Z M236 143 L241 144 L238 150 L235 148 Z M137 270 L146 271 L177 240 L206 205 L233 167 L256 124 L264 143 L299 197 L340 246 L367 272 L371 266 L374 272 L370 276 L361 274 L326 243 L282 191 L256 152 L214 210 L165 262 L145 276 L141 276 Z M250 100 L261 100 L265 103 L268 124 L273 138 L272 140 L269 140 L267 138 L261 127 L258 115 L254 114 L249 130 L245 137 L242 140 L238 139 L241 133 L244 121 L246 104 Z M248 94 L251 92 L257 92 L260 95 L259 96 L249 96 Z M249 84 L252 82 L257 82 L262 85 L262 88 L261 89 L250 89 Z M251 74 L253 72 L259 72 L261 77 L259 79 L252 79 Z M255 56 L257 57 L258 60 L257 68 L253 67 Z M255 45 L257 46 L256 50 L254 49 Z"/></svg>
