<svg xmlns="http://www.w3.org/2000/svg" width="512" height="512" viewBox="0 0 512 512" aria-hidden="true" focusable="false"><path fill="currentColor" fill-rule="evenodd" clip-rule="evenodd" d="M28 401 L29 406 L39 412 L140 412 L141 411 L141 408 L137 408 L136 406 L40 406 L36 405 L31 401 Z M343 249 L343 261 L341 263 L342 265 L337 271 L335 271 L334 273 L328 273 L327 275 L329 277 L334 277 L340 282 L340 284 L342 285 L341 287 L343 289 L343 301 L346 301 L347 288 L350 282 L357 277 L362 276 L363 273 L358 273 L350 268 L349 263 L347 262 L346 249 Z M344 267 L351 274 L345 281 L339 276 L339 274 L343 270 Z M173 201 L173 210 L171 212 L171 217 L169 222 L163 228 L156 229 L154 233 L163 235 L169 240 L171 251 L173 253 L173 262 L176 261 L176 247 L181 237 L188 234 L196 234 L197 231 L186 229 L178 222 L176 216 L176 202 Z M173 224 L175 224 L177 228 L181 230 L181 233 L175 239 L173 239 L167 232 L167 230 Z M61 146 L55 151 L52 156 L52 166 L53 169 L61 175 L70 176 L76 173 L80 169 L82 165 L82 157 L76 148 L72 146 Z M63 152 L71 152 L76 159 L76 162 L71 169 L63 169 L58 164 L59 156 Z M248 129 L195 143 L166 162 L143 185 L116 235 L109 295 L126 353 L156 394 L209 428 L260 436 L289 432 L322 419 L367 381 L384 356 L397 324 L402 266 L397 239 L384 208 L344 160 L300 136 Z M268 403 L269 404 L268 408 L260 413 L259 412 L260 407 Z M242 403 L245 402 L250 406 L252 406 L253 412 L251 413 L243 408 Z M267 394 L268 391 L271 392 L269 395 Z M241 392 L243 391 L244 393 L242 394 Z M275 389 L284 388 L285 390 L276 391 Z M226 389 L235 388 L236 390 L227 391 Z M255 387 L258 388 L263 395 L262 399 L257 394 L254 394 L252 398 L249 397 L250 393 L253 391 Z M299 385 L296 388 L291 387 L292 385 L296 384 Z M212 385 L217 384 L220 385 L221 387 L216 388 L213 387 Z M261 384 L268 383 L269 385 L264 388 Z M244 384 L249 383 L250 386 L246 387 Z M278 382 L280 381 L281 383 L279 384 Z M208 382 L210 381 L211 383 L209 384 Z M204 378 L206 377 L209 381 L206 382 Z M308 376 L309 379 L304 384 L302 384 L301 382 Z M202 371 L204 372 L205 375 L204 378 L202 377 L201 374 Z M212 371 L217 368 L223 368 L227 370 L286 370 L290 368 L295 369 L297 368 L299 371 L299 374 L298 375 L287 375 L286 377 L248 378 L247 377 L226 377 L224 375 L213 375 Z M312 365 L313 369 L311 376 L309 377 L308 376 L309 367 Z M218 361 L219 360 L228 361 L293 360 L295 363 L294 364 L272 364 L271 365 L242 365 L241 364 L219 364 Z M219 355 L220 352 L255 352 L256 353 L292 352 L293 353 L291 356 L220 356 Z M199 343 L202 344 L201 349 L202 365 L201 366 L198 365 L198 344 Z M291 340 L291 344 L286 347 L267 347 L266 346 L268 343 L278 342 L279 340 L281 340 L282 336 L286 336 L287 338 Z M270 337 L272 336 L273 338 L271 339 Z M231 333 L232 342 L229 347 L223 346 L221 344 L222 339 L224 338 L225 342 L227 342 L229 334 Z M308 320 L311 322 L313 340 L312 343 L309 342 L308 325 L306 324 Z M204 319 L205 320 L204 334 L201 335 L200 334 L202 320 Z M305 306 L308 308 L309 315 L308 317 L305 315 L304 308 Z M208 302 L209 303 L208 310 L205 312 L204 311 L205 303 Z M302 294 L305 296 L306 302 L305 304 L302 303 L301 297 Z M301 292 L303 291 L304 293 L302 294 Z M211 291 L212 292 L211 297 L209 298 L208 294 Z M298 281 L301 282 L302 286 L301 289 L298 287 L297 283 Z M213 279 L215 280 L214 284 L212 283 Z M296 273 L298 274 L297 278 L295 277 Z M262 270 L264 272 L264 280 L267 282 L266 286 L260 290 L260 297 L266 298 L275 303 L278 316 L277 328 L273 330 L271 329 L274 325 L273 313 L271 308 L269 308 L269 323 L263 329 L255 330 L252 336 L247 335 L247 339 L255 340 L256 342 L236 346 L236 336 L240 335 L247 328 L247 316 L243 308 L240 308 L239 324 L237 325 L236 330 L234 332 L232 331 L236 305 L239 301 L252 296 L252 290 L246 285 L245 282 L247 280 L248 272 L250 270 Z M218 268 L219 272 L218 275 L216 276 L215 271 Z M221 260 L222 265 L219 268 L218 264 L219 261 Z M222 256 L224 255 L225 258 L223 259 Z M284 249 L288 251 L294 263 L294 266 L296 269 L295 272 L291 268 L290 262 L288 261 L287 256 L285 255 L283 251 Z M231 243 L232 247 L229 249 L228 253 L225 255 L224 253 L226 247 Z M276 240 L279 239 L285 248 L282 249 Z M235 238 L236 241 L232 244 L231 241 Z M254 232 L261 234 L274 246 L291 278 L304 331 L304 368 L298 358 L294 335 L283 329 L280 301 L269 293 L271 277 L267 267 L264 266 L257 242 L253 243 L249 263 L240 277 L243 293 L233 298 L230 304 L229 324 L226 331 L216 338 L213 353 L215 356 L212 365 L207 366 L208 331 L216 292 L232 254 L239 244 Z M235 237 L244 228 L246 228 L248 225 L253 224 L255 221 L263 225 L266 228 L268 228 L271 232 L273 232 L277 236 L277 238 L275 239 L258 226 L254 226 L248 231 L246 231 L238 239 L236 239 Z M254 219 L256 218 L257 220 L255 221 Z M265 214 L268 214 L287 230 L292 239 L295 241 L301 253 L306 268 L311 277 L313 291 L315 292 L320 316 L320 323 L322 324 L323 347 L325 348 L325 363 L323 364 L323 373 L319 383 L307 394 L302 395 L298 398 L276 403 L274 402 L274 399 L276 397 L295 394 L296 392 L302 391 L312 384 L318 372 L319 345 L314 310 L312 308 L308 287 L306 286 L307 284 L305 282 L304 275 L302 273 L301 266 L299 265 L297 256 L295 255 L287 239 L271 224 L263 219 Z M246 214 L249 216 L249 220 L239 225 L226 238 L221 248 L219 249 L218 254 L216 255 L211 269 L209 270 L208 279 L206 281 L204 293 L202 294 L201 304 L199 306 L197 325 L195 327 L194 351 L192 352 L194 371 L198 381 L207 390 L215 392 L217 394 L235 397 L237 399 L237 402 L235 403 L232 401 L226 401 L224 399 L219 399 L207 395 L194 384 L188 370 L188 337 L190 336 L191 319 L193 317 L195 299 L197 298 L198 289 L200 288 L201 279 L203 277 L209 257 L211 256 L214 247 L223 233 L226 231 L226 229 L233 222 Z M254 191 L258 192 L261 195 L261 200 L259 203 L261 212 L256 218 L253 216 L251 212 L253 208 L253 203 L250 200 L250 195 Z M246 174 L248 173 L250 176 L257 177 L265 173 L267 177 L267 181 L263 187 L260 186 L250 187 L246 183 Z M265 159 L267 159 L273 164 L278 174 L277 188 L274 190 L274 192 L269 197 L267 196 L266 192 L271 186 L271 181 L273 180 L273 176 L271 175 L270 169 L264 164 Z M246 159 L247 164 L240 172 L240 184 L242 185 L243 190 L246 192 L242 196 L236 189 L233 176 L235 174 L236 167 L244 159 Z M268 137 L287 139 L288 141 L296 142 L297 144 L314 149 L315 151 L320 152 L322 155 L331 159 L333 162 L341 166 L363 188 L381 216 L382 222 L384 223 L388 233 L389 242 L391 243 L392 252 L394 255 L396 287 L394 310 L392 311 L388 331 L377 355 L373 360 L371 360 L370 357 L381 336 L385 320 L387 319 L388 308 L390 305 L389 295 L391 294 L391 270 L389 269 L390 261 L388 259 L387 247 L385 245 L381 229 L363 197 L333 167 L327 165 L325 162 L316 158 L315 156 L299 149 L279 145 L277 143 L269 143 L267 141 Z M251 137 L261 138 L259 145 L259 167 L257 170 L253 169 L253 142 L250 140 Z M241 137 L241 144 L211 150 L179 167 L146 201 L123 255 L122 305 L140 355 L163 385 L197 411 L245 423 L201 408 L157 373 L132 327 L125 277 L136 229 L159 192 L196 162 L230 149 L246 148 L232 163 L228 175 L230 191 L246 206 L214 236 L192 289 L183 338 L184 377 L201 398 L236 409 L255 426 L275 409 L306 401 L328 378 L328 325 L304 245 L294 230 L266 206 L280 194 L284 173 L278 160 L264 149 L281 149 L310 159 L341 180 L367 212 L384 254 L387 293 L378 332 L363 362 L335 392 L311 408 L267 423 L284 422 L314 411 L347 387 L367 362 L370 366 L328 408 L300 422 L270 429 L226 426 L174 401 L136 357 L117 301 L115 278 L122 239 L149 188 L185 156 L216 142 Z M336 121 L336 124 L343 131 L353 135 L370 135 L372 137 L469 137 L474 139 L480 145 L482 145 L482 141 L475 134 L468 131 L354 131 L350 128 L344 127 L338 121 Z M176 122 L173 121 L167 127 L160 129 L158 131 L44 131 L35 135 L31 139 L29 146 L31 147 L38 139 L43 137 L140 137 L142 135 L159 135 L168 131 L176 124 Z M333 113 L330 110 L328 103 L325 101 L321 92 L319 91 L318 86 L308 76 L302 75 L299 76 L205 76 L200 79 L194 86 L190 95 L188 96 L187 100 L184 103 L183 107 L178 113 L178 116 L181 117 L181 115 L184 113 L184 111 L194 97 L198 88 L203 83 L208 82 L209 80 L300 80 L307 82 L313 88 L313 90 L315 91 L320 101 L322 102 L322 104 L331 117 L333 117 Z M22 130 L18 138 L18 409 L32 426 L179 429 L228 449 L275 450 L305 443 L333 429 L471 429 L489 418 L495 405 L495 142 L481 121 L457 116 L458 103 L452 94 L383 94 L378 100 L377 118 L358 118 L347 112 L328 78 L313 63 L203 62 L187 73 L158 117 L121 118 L118 100 L112 96 L65 96 L56 103 L55 118 L38 118 Z M346 421 L380 387 L488 388 L488 401 L486 403 L481 401 L472 406 L377 406 L371 408 L371 412 L472 412 L481 408 L485 403 L485 411 L477 419 L468 422 Z M25 388 L131 387 L166 421 L43 422 L30 415 L25 407 Z M26 189 L121 190 L98 244 L94 288 L102 333 L126 379 L124 384 L25 383 L25 199 L105 198 L104 194 L26 194 Z M390 187 L488 190 L487 194 L406 196 L488 199 L487 384 L385 381 L405 346 L418 285 L411 234 Z M240 121 L294 125 L328 139 L351 155 L388 198 L402 227 L410 262 L408 315 L384 372 L338 419 L279 443 L244 444 L216 439 L168 415 L139 387 L119 357 L101 300 L105 242 L132 185 L151 163 L184 139 Z M393 111 L395 112 L394 117 L392 116 Z M63 105 L65 103 L110 103 L112 105 L112 117 L111 118 L64 118 L63 117 Z M416 102 L420 103 L420 116 L419 117 L415 116 L415 103 Z M400 102 L403 103 L403 113 L401 117 L399 116 L399 103 Z M386 102 L388 103 L387 107 L385 106 Z M441 100 L444 101 L444 114 L443 115 L440 114 L440 101 Z M434 100 L436 101 L436 116 L435 117 L433 116 L433 104 L432 103 Z M393 100 L395 101 L394 108 L391 106 L391 102 Z M25 140 L40 125 L160 124 L172 115 L191 80 L205 69 L307 69 L318 77 L337 111 L349 123 L477 128 L488 145 L488 180 L384 181 L339 138 L306 122 L268 114 L234 115 L191 128 L149 156 L127 181 L26 181 Z"/></svg>
