<svg xmlns="http://www.w3.org/2000/svg" width="512" height="512" viewBox="0 0 512 512" aria-hidden="true" focusable="false"><path fill="currentColor" fill-rule="evenodd" clip-rule="evenodd" d="M34 59 L30 83 L19 87 L18 99 L33 119 L33 133 L49 149 L56 166 L48 174 L48 186 L41 196 L30 203 L28 217 L51 255 L48 269 L54 276 L55 289 L70 303 L69 313 L59 326 L58 355 L48 371 L47 418 L69 426 L76 440 L85 446 L88 459 L123 470 L120 484 L124 488 L140 481 L152 484 L164 474 L167 463 L146 440 L127 439 L118 432 L113 406 L103 400 L102 382 L96 377 L85 379 L80 361 L218 363 L224 341 L215 333 L212 298 L224 281 L279 305 L294 301 L315 305 L328 292 L351 285 L346 361 L353 382 L366 395 L395 404 L419 428 L445 404 L474 395 L488 381 L495 356 L490 288 L479 251 L459 218 L458 208 L433 175 L439 165 L439 152 L432 140 L446 123 L446 109 L436 95 L410 92 L396 106 L396 127 L408 140 L400 157 L407 175 L381 209 L355 274 L330 285 L319 272 L293 278 L275 271 L264 278 L260 289 L254 289 L224 271 L227 246 L217 240 L213 229 L225 216 L246 220 L276 216 L285 205 L286 180 L279 162 L265 155 L259 144 L242 137 L237 112 L214 102 L195 85 L172 102 L150 95 L136 107 L136 61 L121 54 L123 35 L111 25 L87 32 L79 30 L69 47 L45 48 Z M404 401 L408 399 L413 400 L417 404 L418 411 L422 411 L422 407 L425 402 L430 399 L434 401 L434 406 L431 410 L427 412 L421 418 L419 418 L413 412 L407 409 L406 403 Z M439 385 L438 388 L435 389 L432 388 L434 385 L437 384 Z M401 385 L403 384 L409 386 L410 388 L405 389 Z M419 382 L425 387 L426 393 L424 394 L419 390 L414 395 L413 391 Z M453 382 L451 385 L445 386 L440 385 L441 382 L451 381 Z M387 382 L388 381 L398 382 L399 385 L398 386 L389 385 Z M383 381 L386 380 L387 382 L384 383 Z M463 379 L457 384 L455 383 L455 381 L459 378 Z M376 378 L379 377 L383 381 L380 382 Z M424 376 L425 375 L439 375 L440 377 L432 379 L430 382 L427 382 Z M399 376 L400 375 L415 375 L416 378 L412 382 L404 378 L400 378 Z M468 374 L469 376 L464 379 L463 377 Z M443 375 L449 374 L450 376 L444 377 Z M391 375 L395 374 L396 376 L392 377 Z M369 372 L372 371 L377 377 L376 378 L372 377 Z M472 369 L473 372 L469 375 L468 373 Z M366 367 L368 366 L370 370 L368 371 Z M380 364 L382 362 L395 362 L396 363 L459 362 L461 367 L460 368 L450 368 L449 370 L411 371 L410 370 L393 370 L391 368 L381 368 Z M474 360 L476 361 L475 367 L473 366 Z M384 353 L385 352 L399 352 L400 353 L455 352 L456 355 L449 357 L390 357 L385 356 Z M475 348 L477 349 L477 359 L476 360 L474 359 L474 349 Z M385 343 L386 342 L454 342 L455 345 L450 348 L394 348 L393 346 L388 347 Z M88 341 L89 340 L193 340 L194 343 L192 345 L90 345 Z M173 333 L177 331 L187 332 L186 335 L174 335 Z M94 333 L97 331 L109 331 L110 332 L109 335 L95 335 Z M429 328 L431 327 L432 329 L430 330 Z M390 327 L392 329 L395 328 L397 329 L395 337 L390 337 L388 335 L388 330 Z M452 329 L452 335 L450 337 L443 338 L427 338 L426 337 L427 334 L436 333 L437 331 L444 330 L445 326 L450 327 Z M433 327 L435 326 L436 328 L434 329 Z M421 324 L425 323 L426 325 L422 326 Z M365 322 L367 323 L366 327 L366 357 L367 359 L366 360 L363 358 L363 324 Z M366 309 L368 310 L367 314 L365 313 Z M473 306 L476 308 L477 335 L478 336 L477 338 L474 337 L474 320 L472 309 Z M219 344 L215 356 L212 355 L82 355 L81 354 L82 352 L85 351 L199 351 L201 349 L201 347 L198 344 L198 339 L200 337 L200 305 L202 303 L204 303 L206 305 L206 308 L208 309 L206 311 L206 324 L208 326 L210 338 Z M370 294 L371 295 L370 303 L367 305 L366 304 L367 295 Z M206 291 L208 290 L209 292 L207 293 Z M190 288 L194 288 L197 291 L197 334 L196 335 L193 334 L193 331 L190 328 L190 315 L189 314 L189 289 Z M85 287 L94 291 L92 326 L89 334 L84 336 L84 345 L76 351 L74 365 L77 381 L83 385 L94 383 L99 407 L107 411 L111 430 L117 440 L127 446 L142 445 L160 463 L161 468 L154 470 L149 478 L139 474 L128 482 L129 466 L126 463 L119 463 L109 455 L103 455 L100 459 L92 454 L91 443 L81 436 L80 428 L73 419 L68 418 L66 411 L57 410 L52 414 L55 369 L61 364 L68 343 L65 337 L66 324 L76 312 L78 296 L80 304 L83 303 Z M469 286 L472 287 L473 294 L472 301 L470 300 L468 288 Z M211 286 L212 288 L209 290 L208 288 Z M200 287 L203 286 L204 288 L201 289 Z M140 285 L147 288 L154 298 L153 335 L128 334 L128 298 L132 294 L132 291 Z M295 283 L298 285 L296 290 L293 289 L293 286 Z M373 278 L374 284 L373 289 L371 290 L370 283 L371 279 Z M318 279 L322 283 L322 290 L320 294 L317 297 L310 298 L308 300 L306 300 L305 298 L302 298 L301 295 L303 294 L304 291 L304 281 L310 278 Z M272 279 L281 278 L286 281 L286 290 L289 294 L287 298 L279 298 L272 295 L268 289 L268 284 L270 283 Z M466 276 L469 277 L468 283 L466 282 L465 278 Z M200 277 L202 276 L203 278 L201 279 Z M76 279 L77 276 L80 277 L78 280 Z M177 272 L184 273 L184 325 L183 326 L176 325 L176 273 Z M99 272 L106 273 L106 325 L105 326 L98 325 L98 273 Z M377 267 L378 268 L377 274 L374 275 L373 274 L374 269 Z M463 264 L465 265 L466 269 L465 271 L462 269 Z M375 265 L378 264 L379 266 L376 267 Z M176 266 L177 263 L181 264 L179 267 Z M160 263 L170 264 L171 266 L170 270 L172 272 L171 280 L169 279 L168 273 L159 265 Z M129 263 L153 263 L158 271 L164 273 L165 282 L171 287 L171 325 L167 335 L158 334 L158 331 L160 330 L160 324 L158 322 L158 301 L160 299 L160 293 L157 288 L143 276 L135 279 L125 288 L122 294 L122 334 L114 334 L112 326 L112 287 L113 284 L117 282 L118 273 L124 271 Z M122 263 L123 265 L114 273 L113 280 L111 281 L110 273 L112 272 L112 264 Z M100 264 L106 263 L107 265 L105 267 L102 267 Z M426 259 L428 261 L430 271 L429 275 L423 280 L423 284 L439 293 L441 315 L440 318 L435 322 L432 321 L437 315 L436 300 L432 298 L429 317 L424 320 L419 320 L417 325 L412 327 L413 329 L422 329 L423 331 L421 333 L400 337 L399 335 L402 331 L402 326 L413 316 L413 307 L411 306 L408 297 L406 297 L403 317 L398 323 L396 322 L400 313 L400 298 L404 290 L417 286 L417 280 L411 275 L413 261 L416 259 Z M379 257 L381 258 L380 263 L377 262 Z M134 251 L136 249 L148 249 L150 252 L149 253 L135 253 Z M385 247 L386 249 L384 255 L381 256 L380 255 L381 251 Z M418 247 L421 246 L422 249 L419 250 Z M149 242 L153 241 L154 244 L150 246 Z M451 239 L454 240 L455 245 L459 253 L461 254 L463 261 L462 263 L459 262 L458 256 L450 241 Z M389 239 L390 241 L388 245 L386 246 L385 243 Z M389 236 L391 235 L392 238 L390 239 Z M447 235 L449 234 L451 238 L449 239 Z M137 233 L139 234 L138 238 L135 237 Z M395 230 L396 233 L392 236 L391 233 Z M443 230 L445 229 L448 232 L448 234 L446 235 L443 232 Z M140 227 L143 228 L144 232 L143 234 L140 233 L139 229 Z M419 216 L437 232 L447 246 L461 280 L469 321 L470 350 L467 361 L462 357 L458 327 L446 320 L446 295 L444 290 L433 282 L436 268 L428 254 L422 232 L418 233 L414 251 L407 260 L407 282 L396 292 L395 314 L392 321 L382 328 L383 337 L378 358 L374 361 L371 356 L371 326 L382 272 L397 239 Z M106 251 L117 241 L117 239 L128 227 L128 225 L131 223 L131 221 L138 213 L138 211 L142 208 L146 213 L146 215 L149 217 L151 223 L155 226 L155 228 L161 233 L161 235 L166 240 L166 242 L176 252 L175 253 L165 253 L164 245 L162 245 L161 242 L157 241 L155 235 L152 236 L150 235 L150 228 L146 227 L145 223 L143 222 L143 219 L139 220 L139 223 L136 229 L132 231 L132 234 L128 235 L125 242 L118 247 L117 253 L107 253 Z M395 230 L397 225 L411 212 L411 210 L419 200 L423 203 L426 209 L444 227 L442 229 L420 206 L418 206 L414 214 L405 223 L403 223 L403 225 L397 231 Z M83 254 L88 253 L99 242 L99 240 L109 231 L109 229 L118 219 L118 217 L123 213 L123 211 L131 202 L136 192 L138 191 L139 187 L142 186 L144 191 L153 202 L155 207 L164 217 L164 219 L168 222 L168 224 L173 229 L173 231 L182 239 L182 241 L194 253 L197 253 L198 255 L192 256 L191 254 L189 254 L181 248 L173 240 L173 238 L167 232 L167 230 L161 225 L161 223 L154 215 L154 213 L151 211 L146 201 L143 199 L143 195 L139 197 L139 199 L137 200 L132 210 L128 213 L128 215 L121 223 L121 225 L114 231 L114 233 L103 244 L101 248 L99 248 L90 256 L84 256 Z M135 177 L137 175 L146 175 L147 181 L149 184 L146 185 L143 179 L139 179 L139 181 L136 182 Z M419 169 L429 179 L430 189 L437 190 L437 202 L445 201 L447 210 L454 213 L454 220 L469 243 L483 283 L488 314 L489 354 L483 378 L472 389 L443 400 L439 395 L440 392 L462 388 L473 381 L480 371 L483 361 L483 319 L472 267 L461 241 L443 216 L429 203 L421 188 L418 189 L410 204 L385 231 L375 249 L364 282 L357 324 L357 357 L360 370 L372 384 L389 391 L399 392 L401 394 L399 399 L379 395 L367 388 L356 374 L352 359 L353 310 L364 261 L371 243 L385 221 L386 212 L393 210 L392 205 L395 200 L403 202 L402 192 L404 189 L410 190 L408 184 Z M432 160 L433 161 L432 167 L430 169 L427 169 L426 166 Z M139 158 L142 157 L143 159 L140 160 Z M430 157 L432 156 L433 159 L431 160 Z M415 157 L419 153 L421 153 L425 156 L425 160 L416 161 Z M428 151 L431 150 L433 152 L433 155 L431 156 Z M421 106 L423 108 L426 108 L430 114 L429 122 L423 127 L423 142 L430 149 L426 150 L423 149 L422 147 L417 147 L414 149 L410 154 L410 162 L412 167 L409 168 L407 164 L407 152 L413 145 L417 143 L415 137 L417 136 L417 128 L415 127 L415 125 L411 123 L410 114 L413 109 Z M431 99 L436 104 L440 113 L440 122 L434 131 L431 133 L429 132 L429 130 L435 125 L436 121 L435 109 L432 107 L432 105 L422 100 L418 100 L408 105 L408 107 L404 112 L404 122 L411 130 L411 132 L409 133 L405 131 L402 126 L402 123 L400 122 L400 111 L402 110 L404 104 L409 99 L424 96 L425 98 Z M47 54 L72 53 L81 37 L111 32 L117 37 L114 61 L131 63 L127 83 L131 94 L126 106 L132 114 L143 112 L153 101 L169 110 L176 109 L194 92 L210 107 L228 112 L235 137 L278 170 L279 201 L271 212 L250 215 L229 209 L212 217 L206 232 L222 252 L214 286 L203 269 L196 282 L189 281 L190 264 L202 257 L201 227 L187 238 L176 226 L178 198 L168 208 L158 204 L160 196 L151 179 L141 124 L133 173 L122 197 L124 203 L115 208 L105 197 L106 226 L95 238 L87 236 L82 228 L78 232 L78 257 L92 264 L94 281 L84 282 L77 269 L69 283 L73 293 L61 287 L61 277 L54 267 L57 254 L33 213 L54 188 L54 176 L62 163 L54 145 L38 129 L39 117 L25 98 L26 91 L37 87 L40 62 Z"/></svg>
