<svg xmlns="http://www.w3.org/2000/svg" width="512" height="512" viewBox="0 0 512 512" aria-hidden="true" focusable="false"><path fill="currentColor" fill-rule="evenodd" clip-rule="evenodd" d="M304 274 L306 277 L372 284 L372 281 L369 280 L317 275 L315 273 L307 272 Z M301 253 L302 256 L367 262 L369 264 L408 267 L408 264 L392 263 L391 261 L304 252 Z M304 232 L304 235 L321 236 L341 238 L343 240 L354 240 L411 246 L410 242 L372 239 L370 237 Z M306 211 L306 214 L310 214 L311 216 L336 217 L337 218 L409 223 L410 224 L414 223 L413 220 L356 216 L354 214 L345 215 L342 213 Z M307 193 L311 195 L357 197 L358 198 L385 199 L399 201 L416 201 L416 198 L337 193 L336 192 L320 192 L318 190 L308 190 Z M156 97 L152 97 L147 100 L131 113 L115 130 L105 144 L90 175 L86 189 L84 205 L82 207 L81 222 L86 223 L86 212 L90 189 L94 176 L96 174 L106 150 L128 121 L152 102 Z M257 53 L256 58 L252 63 L252 68 L257 74 L257 77 L259 77 L260 73 L265 68 L265 63 L260 57 L259 53 Z M258 62 L261 65 L259 70 L255 66 Z M163 42 L158 114 L146 145 L148 152 L141 157 L141 171 L131 170 L123 161 L123 149 L116 157 L124 185 L122 206 L114 209 L104 189 L103 228 L81 227 L71 217 L70 208 L66 228 L74 241 L72 258 L67 261 L57 252 L56 242 L52 245 L55 272 L78 299 L78 336 L72 338 L74 349 L64 358 L64 375 L56 380 L84 386 L145 431 L182 438 L198 458 L233 460 L260 496 L285 459 L313 461 L324 456 L336 438 L375 432 L454 377 L460 360 L457 338 L427 330 L449 182 L449 152 L443 136 L431 128 L268 126 L260 133 L259 157 L267 164 L280 164 L282 253 L289 204 L286 164 L427 170 L435 162 L436 148 L430 139 L421 137 L430 133 L439 139 L445 153 L445 181 L423 321 L423 361 L429 378 L408 376 L403 343 L414 327 L412 305 L392 289 L378 290 L360 303 L355 324 L366 343 L361 372 L334 372 L358 377 L354 394 L368 390 L375 398 L381 379 L386 380 L388 398 L398 390 L410 395 L410 381 L431 386 L367 430 L330 434 L328 445 L317 455 L296 458 L275 450 L306 449 L315 442 L318 427 L325 420 L335 417 L341 424 L364 421 L378 411 L384 400 L357 419 L326 414 L315 423 L313 436 L306 444 L276 445 L260 460 L243 445 L217 446 L209 442 L205 427 L193 414 L181 412 L172 419 L145 411 L133 398 L137 407 L154 420 L174 424 L182 416 L193 420 L210 448 L242 450 L226 457 L204 456 L189 444 L187 433 L163 432 L138 422 L84 380 L101 379 L99 385 L186 385 L188 380 L196 401 L208 415 L222 424 L245 428 L260 443 L273 428 L294 425 L316 410 L329 385 L330 351 L313 304 L270 243 L276 207 L267 197 L253 197 L245 205 L245 234 L250 243 L203 312 L199 312 L199 267 L208 266 L210 293 L211 266 L229 265 L234 258 L216 238 L224 241 L226 236 L227 245 L237 253 L242 245 L225 230 L225 189 L215 209 L205 203 L210 151 L206 149 L207 159 L197 170 L187 171 L187 157 L181 153 L182 144 L177 140 L178 130 L171 114 L168 51 Z M237 458 L247 457 L251 459 L255 463 L258 473 L260 473 L261 467 L269 458 L279 457 L280 461 L276 468 L271 466 L270 474 L260 485 L258 485 L248 474 L246 470 L247 465 L246 464 L242 467 L238 463 L239 461 Z M252 427 L254 423 L258 426 L258 428 L260 428 L263 423 L265 423 L267 426 L267 428 L260 435 Z M258 416 L261 417 L260 422 L257 419 Z M253 414 L254 422 L249 424 L247 422 L248 418 L251 414 Z M275 423 L276 420 L282 420 L282 418 L279 415 L280 413 L288 420 L286 423 L280 424 Z M264 413 L270 417 L271 419 L270 423 L264 422 L265 417 L263 415 Z M243 415 L244 412 L247 413 L245 416 Z M229 420 L237 412 L239 412 L240 414 L236 419 L243 420 L244 422 L240 424 L230 422 Z M277 411 L278 412 L277 415 L274 416 L272 413 Z M285 410 L288 409 L290 412 L288 413 Z M227 412 L230 409 L233 410 L230 413 Z M253 408 L254 407 L267 407 L268 409 L267 410 L254 410 Z M272 406 L276 405 L277 408 L273 409 Z M290 417 L291 415 L297 413 L300 410 L293 406 L294 404 L300 404 L301 407 L309 409 L306 413 L303 413 L303 415 L297 419 L293 419 Z M210 409 L222 403 L225 406 L218 409 L218 411 L224 415 L228 415 L229 417 L226 419 L222 419 L218 417 Z M289 402 L286 406 L279 408 L277 407 L279 404 L287 401 Z M294 398 L295 400 L292 402 L291 400 Z M224 399 L226 398 L234 403 L247 406 L248 408 L244 409 L233 406 L226 402 Z M303 396 L306 399 L305 401 L301 400 Z M211 399 L215 396 L218 400 L212 401 Z M231 396 L232 395 L287 395 L288 397 L283 400 L236 400 L232 398 Z M301 391 L302 393 L296 399 L295 397 L297 393 Z M217 392 L219 391 L222 395 L220 396 Z M321 390 L322 392 L319 395 L315 403 L312 404 L311 406 L308 406 L307 404 L312 401 L312 399 L316 394 L307 394 L306 392 L310 390 L316 391 Z M198 390 L210 390 L212 392 L211 394 L203 394 L203 396 L210 403 L209 405 L206 405 L201 400 L197 393 Z M287 390 L294 389 L295 391 L288 392 Z M224 390 L232 389 L233 391 L225 392 Z M309 386 L310 383 L315 384 L312 387 Z M226 384 L229 381 L289 381 L293 383 L292 386 L282 386 L281 387 L241 387 L240 386 L227 386 Z M304 381 L306 380 L307 382 L305 383 Z M212 380 L215 381 L215 384 L218 389 L217 391 L213 387 L211 382 Z M201 380 L203 379 L204 381 L207 381 L209 383 L209 386 L208 387 L205 386 L201 382 Z M305 377 L307 376 L308 379 L306 380 Z M228 375 L229 374 L250 374 L251 375 L290 374 L291 376 L286 378 L233 378 L229 377 Z M382 373 L384 372 L385 374 L383 375 Z M326 368 L327 371 L325 383 L320 387 L319 384 L321 374 L315 376 L313 374 L315 372 L321 371 Z M193 368 L205 374 L204 376 L197 374 L198 382 L200 385 L199 387 L194 383 L192 371 Z M313 366 L315 365 L316 367 L314 368 Z M253 366 L255 365 L256 367 L254 368 Z M247 363 L249 364 L248 368 L246 367 Z M288 364 L287 370 L266 372 L264 370 L265 368 L282 364 L283 362 Z M231 365 L235 362 L241 363 L244 365 L244 370 L235 371 L231 368 Z M124 363 L127 362 L128 365 L125 366 Z M194 362 L196 361 L197 363 L195 364 Z M210 360 L212 361 L212 371 L211 372 L209 371 L209 361 Z M68 361 L69 360 L105 360 L106 361 L106 374 L105 375 L69 375 L68 374 Z M112 356 L121 358 L121 379 L120 380 L111 379 L111 357 Z M307 355 L310 356 L310 372 L309 373 L306 372 L307 367 L306 356 Z M275 353 L276 355 L271 359 L270 357 Z M75 354 L77 352 L106 352 L107 353 L106 356 L76 356 Z M438 351 L445 353 L445 358 L442 361 L438 360 L437 357 Z M210 352 L212 351 L213 353 L211 354 Z M247 352 L248 349 L251 350 L249 353 Z M324 348 L326 355 L326 362 L322 366 L321 365 L321 354 L315 358 L313 356 L318 351 Z M305 349 L307 348 L308 350 L306 351 Z M398 347 L400 351 L404 385 L403 386 L397 385 L393 389 L391 389 L387 351 L395 347 Z M371 347 L382 350 L382 355 L380 357 L378 373 L374 389 L372 389 L371 386 L369 385 L365 386 L362 385 L368 359 L368 354 L370 352 Z M194 348 L196 347 L203 352 L206 356 L204 357 L200 354 L197 354 L197 358 L194 359 L193 358 Z M311 346 L314 345 L315 348 L312 349 Z M114 346 L116 345 L117 347 L115 348 Z M204 345 L207 344 L208 346 L205 347 Z M304 344 L306 343 L307 345 L305 346 Z M202 343 L204 342 L205 344 L203 345 Z M118 344 L119 340 L123 341 L120 345 Z M83 341 L84 340 L108 340 L109 342 L108 343 L84 343 Z M76 341 L81 340 L82 341 L81 345 L84 348 L79 349 Z M263 339 L264 340 L263 356 L261 358 L255 358 L253 356 L253 350 L255 349 L255 346 Z M449 338 L455 344 L456 349 L455 363 L450 373 L446 377 L439 379 L433 375 L430 369 L430 366 L431 365 L441 366 L447 363 L449 358 L449 349 L441 348 L439 344 L444 339 Z M215 338 L216 339 L215 347 L212 348 L211 345 L213 339 Z M428 336 L434 336 L438 338 L432 354 L427 352 L426 342 Z M270 332 L276 335 L278 345 L277 351 L273 348 L272 338 L270 338 L268 342 L266 341 Z M260 332 L261 335 L259 340 L254 343 L251 343 L249 339 L246 338 L246 344 L244 351 L245 356 L243 357 L241 354 L243 336 L248 332 L253 331 Z M181 332 L184 331 L186 336 L182 337 Z M144 331 L147 332 L146 337 L141 336 L141 334 Z M300 331 L302 330 L303 332 L301 333 Z M133 331 L132 342 L130 344 L128 355 L125 358 L124 353 L127 345 L128 333 L130 330 Z M101 331 L113 329 L114 333 L112 337 L102 337 Z M317 328 L319 329 L320 335 L323 338 L323 342 L321 345 L319 344 L317 335 L315 335 L312 338 L310 337 L311 334 Z M202 328 L208 334 L209 337 L207 338 L204 335 L201 335 L200 345 L198 346 L196 339 L199 329 Z M209 328 L212 327 L214 330 L211 332 Z M309 324 L310 330 L307 332 L306 328 L307 325 Z M219 324 L221 323 L222 325 L220 326 Z M214 321 L216 320 L217 323 L215 324 Z M296 318 L298 319 L302 328 L301 330 L298 328 L295 322 Z M262 316 L265 317 L265 323 L263 325 L261 324 Z M255 316 L258 318 L257 323 L254 321 Z M205 316 L208 317 L208 321 L206 325 L204 324 Z M293 316 L295 315 L296 317 L294 318 Z M306 313 L307 317 L303 321 L302 320 L303 314 Z M212 313 L215 314 L217 319 L215 320 L211 316 Z M258 313 L260 312 L261 314 L259 315 Z M298 312 L300 311 L301 313 L299 314 Z M290 311 L292 310 L293 312 L291 313 Z M308 309 L311 310 L312 315 L315 319 L314 325 L312 324 L309 314 L307 313 Z M229 309 L230 311 L227 316 L224 318 L223 317 L224 314 Z M102 309 L104 310 L104 326 L103 327 L101 326 L101 310 Z M182 307 L184 308 L184 328 L183 329 L181 328 L181 308 Z M382 302 L389 302 L395 305 L400 311 L401 315 L401 323 L398 329 L388 336 L381 336 L377 334 L376 332 L372 330 L370 324 L368 323 L368 316 L371 310 L377 304 Z M146 301 L148 302 L148 322 L147 323 L145 322 L145 302 Z M233 300 L235 299 L236 301 L234 302 Z M282 297 L286 300 L291 308 L290 310 L288 309 L281 299 Z M177 295 L179 296 L179 331 L178 332 L176 331 L176 296 Z M279 295 L281 294 L282 296 L280 297 Z M391 293 L395 297 L406 303 L408 307 L408 316 L410 320 L410 325 L398 341 L392 343 L385 342 L381 344 L374 343 L364 335 L364 329 L360 324 L360 318 L363 313 L365 314 L365 324 L367 330 L374 337 L379 339 L391 339 L395 337 L402 330 L404 326 L404 321 L406 317 L404 315 L401 305 L395 300 L388 299 L386 297 L383 299 L378 299 L369 306 L365 313 L363 312 L364 305 L369 299 L376 297 L383 293 Z M240 292 L241 294 L236 299 L235 297 Z M221 292 L227 301 L227 304 L224 307 L222 299 L220 299 L216 305 L216 308 L214 309 L213 302 L217 298 L218 294 Z M298 291 L300 292 L302 298 L305 301 L306 304 L305 307 L303 306 L300 300 L296 300 L294 305 L292 304 L293 298 Z M277 292 L279 291 L280 293 L278 294 Z M230 291 L233 294 L231 298 L229 297 Z M288 290 L290 291 L289 298 L287 297 Z M94 289 L98 290 L98 316 L99 317 L98 322 L99 336 L98 337 L93 336 L93 290 Z M241 289 L243 288 L244 290 L242 291 Z M244 285 L246 284 L247 286 L245 287 Z M142 284 L144 285 L143 289 L141 288 Z M83 282 L88 282 L90 284 L89 286 L90 288 L90 336 L89 337 L82 336 L82 283 Z M289 281 L293 282 L294 284 L293 289 L288 283 Z M230 282 L227 291 L225 292 L224 285 L227 281 Z M270 280 L277 287 L276 290 L272 287 L269 282 Z M147 278 L150 279 L148 284 L146 283 Z M177 278 L179 277 L180 279 L183 280 L183 282 L180 283 Z M266 277 L268 276 L270 279 L268 280 Z M259 276 L279 300 L298 333 L303 353 L303 375 L299 385 L294 380 L295 373 L291 370 L291 362 L280 357 L280 337 L275 330 L269 328 L269 309 L265 305 L260 287 L258 287 L256 301 L248 315 L251 328 L242 331 L237 349 L239 356 L229 361 L228 370 L224 372 L224 380 L221 384 L218 382 L216 355 L222 332 L236 306 Z M149 277 L151 276 L152 278 L150 279 Z M64 276 L65 275 L85 276 L86 278 L85 279 L65 279 Z M254 274 L255 276 L248 283 L247 281 Z M232 274 L234 275 L236 280 L239 283 L238 288 L235 287 L233 280 L229 279 L229 277 Z M287 273 L290 279 L286 280 L284 284 L282 285 L281 282 L284 275 Z M276 273 L278 274 L279 278 L278 280 L275 280 L273 278 Z M242 273 L247 275 L243 281 L241 280 Z M172 272 L175 271 L176 275 L174 276 Z M257 270 L258 272 L255 274 L254 272 Z M152 271 L154 270 L156 274 L153 275 Z M114 270 L117 272 L117 301 L115 302 L111 296 L111 292 L109 292 L108 298 L102 304 L101 303 L101 287 L102 286 L101 273 L105 269 L109 272 Z M96 268 L99 269 L98 277 L93 276 L93 271 Z M259 266 L267 274 L266 276 L260 270 L257 269 Z M271 265 L272 268 L269 271 L266 267 Z M128 265 L129 266 L129 326 L125 328 L125 336 L121 337 L120 336 L121 266 Z M107 266 L111 265 L112 267 L109 269 Z M254 264 L255 266 L248 273 L247 266 Z M166 265 L168 264 L169 266 L167 267 Z M245 259 L246 264 L243 265 L239 273 L237 274 L236 268 L240 264 L241 261 Z M274 257 L279 262 L279 265 L282 268 L281 271 L276 267 L276 264 L272 263 Z M162 258 L165 257 L167 261 L163 263 Z M57 258 L59 257 L63 261 L64 270 L68 269 L69 265 L73 266 L74 268 L67 274 L63 274 L59 270 L59 267 L61 264 L59 263 Z M215 257 L223 256 L224 260 L217 261 Z M198 255 L208 254 L209 256 L199 257 Z M119 255 L120 254 L130 254 L131 256 L130 257 L120 257 Z M86 257 L87 254 L90 255 L88 258 Z M259 252 L264 257 L265 262 L263 263 L259 259 L258 262 L255 264 L254 261 Z M249 252 L253 254 L250 259 L248 258 Z M77 252 L80 254 L81 257 L80 260 L78 259 L76 255 Z M220 252 L222 251 L223 253 L221 254 Z M211 251 L215 250 L216 253 L213 254 Z M264 249 L267 248 L271 252 L271 254 L267 255 Z M121 248 L128 247 L129 250 L122 251 Z M104 247 L105 250 L102 253 L99 253 L98 257 L89 265 L82 268 L77 264 L78 261 L84 264 L88 259 L91 259 L96 253 L94 251 L95 246 L97 247 L97 250 L99 250 L101 246 Z M211 244 L213 243 L215 246 L212 248 Z M191 242 L196 247 L194 254 L196 264 L196 315 L199 316 L199 320 L188 350 L188 379 L125 380 L126 376 L185 377 L184 373 L129 373 L128 370 L184 369 L184 366 L133 366 L132 363 L184 362 L184 359 L135 359 L134 356 L185 355 L185 352 L136 352 L135 349 L186 348 L186 344 L138 344 L137 342 L188 340 L186 300 L190 290 L190 278 L185 278 L174 265 L166 252 L165 245 L168 242 L177 242 L180 245 Z M160 242 L163 245 L163 249 L155 264 L148 271 L144 279 L142 280 L138 278 L138 290 L143 304 L140 331 L138 332 L137 327 L133 326 L133 245 L137 242 L144 242 L147 245 L149 245 L151 242 Z M203 238 L205 239 L205 250 L204 251 L201 250 Z M82 252 L82 239 L83 238 L96 238 L97 239 L96 241 L85 241 L85 243 L90 243 L91 246 L88 247 L88 249 L84 253 Z M178 238 L183 237 L184 239 L181 241 Z M154 238 L156 237 L157 239 L155 240 Z M145 238 L147 237 L149 240 L147 241 Z M158 235 L168 234 L169 236 L168 239 L164 242 Z M109 234 L110 238 L113 238 L114 241 L107 247 L106 243 L108 241 L106 239 L106 236 Z M258 230 L261 229 L262 231 L259 232 Z M126 228 L128 226 L133 226 L135 228 L142 228 L144 226 L148 226 L150 228 L154 228 L156 226 L162 226 L164 228 L167 228 L169 226 L173 226 L175 228 L183 226 L185 228 L189 228 L190 226 L194 226 L196 228 L202 228 L203 230 L202 231 L127 231 Z M70 224 L73 223 L77 227 L78 230 L83 232 L102 232 L103 234 L102 235 L81 236 L80 246 L78 247 L77 246 L77 236 L74 235 L75 229 Z M262 221 L269 228 L269 236 L264 240 L265 245 L263 248 L261 247 L260 244 L258 244 L257 249 L253 251 L252 248 L255 242 L258 241 L259 238 L263 238 L265 236 L266 230 L262 225 L259 224 L254 229 L254 235 L256 237 L255 240 L251 237 L249 232 L255 223 L258 221 Z M162 221 L165 219 L167 222 L163 223 Z M150 218 L152 217 L153 219 L151 220 Z M248 216 L250 215 L251 217 L249 218 Z M207 214 L209 215 L208 219 L206 218 Z M120 215 L122 214 L123 217 L121 218 Z M188 214 L190 213 L191 215 L189 216 Z M109 213 L114 216 L113 221 L108 215 Z M220 212 L221 214 L218 217 L219 227 L215 230 L216 234 L211 236 L210 233 L212 232 L212 230 L208 228 L198 218 L197 215 L200 214 L204 219 L207 219 L209 224 L216 225 L214 217 Z M165 210 L168 215 L163 218 L161 214 Z M171 209 L173 210 L172 217 L170 216 Z M194 209 L196 208 L198 212 L196 213 Z M159 208 L160 209 L159 217 L157 218 L154 215 L154 213 Z M257 207 L263 207 L266 210 L266 215 L264 217 L261 216 L256 217 L254 215 L254 211 Z M248 208 L250 207 L251 210 L249 211 Z M177 208 L179 207 L181 210 L178 211 Z M200 205 L203 207 L203 212 L201 214 L199 213 Z M105 206 L108 205 L110 209 L108 210 Z M222 204 L223 207 L220 209 L219 206 Z M160 204 L162 203 L163 205 L161 206 Z M252 203 L254 202 L255 204 L253 205 Z M163 200 L166 201 L169 204 L170 208 L168 209 L165 204 L162 203 Z M173 199 L175 200 L174 203 L171 202 Z M163 192 L165 191 L166 193 L164 194 Z M188 187 L191 189 L190 193 L187 191 Z M143 184 L144 187 L139 192 L138 189 Z M184 184 L186 183 L188 187 L186 188 Z M145 179 L147 178 L148 180 L146 181 Z M179 175 L181 174 L183 178 L181 179 Z M177 169 L180 172 L179 175 L176 172 Z M207 167 L208 169 L204 172 L205 179 L201 181 L201 190 L199 191 L198 190 L199 179 L198 178 L196 180 L189 180 L187 177 L198 174 L205 167 Z M121 167 L123 166 L131 174 L140 176 L141 178 L139 180 L133 180 L130 178 L128 181 L126 181 L124 179 L124 171 L121 169 Z M183 163 L185 164 L184 168 L182 167 Z M161 163 L162 165 L156 179 L151 185 L140 207 L135 209 L134 214 L130 217 L130 219 L118 230 L118 234 L114 235 L113 233 L115 232 L115 230 L110 227 L110 222 L112 221 L113 225 L118 225 L120 224 L122 219 L125 219 L126 216 L125 208 L128 206 L129 211 L132 210 L134 205 L132 202 L133 198 L135 197 L136 201 L138 201 L150 182 L159 164 Z M155 163 L156 164 L155 168 L152 169 L151 167 Z M145 163 L147 164 L146 169 L144 168 Z M419 162 L428 161 L429 163 L426 165 L420 164 Z M175 157 L179 156 L182 157 L183 159 L180 160 L176 159 Z M163 156 L167 158 L176 178 L179 181 L186 195 L188 196 L188 198 L192 202 L194 202 L193 198 L194 197 L196 198 L197 203 L195 204 L194 209 L188 207 L188 204 L176 185 L165 161 L162 160 Z M148 157 L151 156 L152 158 L149 159 Z M163 147 L166 148 L165 153 L162 152 Z M150 146 L153 145 L154 147 L151 148 Z M415 148 L423 147 L425 144 L428 144 L432 149 L432 156 L428 157 L425 153 L422 158 L417 157 L415 155 Z M169 144 L171 143 L178 145 L179 147 L178 148 L171 147 Z M154 145 L157 143 L159 146 L155 147 Z M267 133 L268 135 L265 144 L265 150 L267 156 L265 157 L261 151 L261 141 L265 134 Z M153 132 L157 130 L170 130 L174 131 L175 135 L173 138 L167 138 L165 136 L165 133 L163 133 L163 136 L161 138 L155 138 L153 135 Z M269 142 L277 130 L417 132 L411 147 L413 165 L274 160 L270 155 Z M158 119 L161 116 L168 116 L171 121 L170 122 L160 122 Z M161 110 L165 109 L166 111 L162 112 Z M163 93 L165 94 L165 98 L167 100 L166 102 L162 101 Z M173 86 L173 89 L176 89 L186 83 L224 71 L238 71 L247 76 L251 82 L249 92 L243 97 L234 97 L230 93 L230 87 L232 85 L236 85 L239 89 L242 88 L241 83 L237 80 L229 81 L224 89 L204 87 L196 89 L196 91 L217 91 L236 102 L249 99 L255 91 L255 80 L243 67 L242 56 L247 51 L250 43 L259 34 L269 47 L269 50 L274 53 L276 59 L274 67 L261 81 L261 90 L267 99 L281 102 L299 91 L320 91 L320 89 L313 87 L292 89 L287 81 L279 80 L276 82 L276 89 L279 90 L279 86 L284 85 L287 88 L287 92 L282 97 L271 96 L266 88 L268 78 L279 71 L292 71 L320 79 L344 91 L365 107 L380 123 L384 122 L360 97 L337 82 L308 70 L280 67 L279 53 L261 29 L259 17 L257 17 L256 27 L251 37 L245 42 L237 55 L236 67 L224 67 L206 71 Z"/></svg>
