<svg xmlns="http://www.w3.org/2000/svg" width="512" height="512" viewBox="0 0 512 512" aria-hidden="true" focusable="false"><path fill="currentColor" fill-rule="evenodd" clip-rule="evenodd" d="M244 251 L238 258 L239 268 L245 272 L253 272 L257 269 L258 265 L260 264 L260 259 L258 258 L257 254 L254 253 L253 251 Z M250 257 L253 260 L253 263 L249 266 L247 266 L244 263 L244 259 Z M211 251 L206 255 L205 258 L206 268 L212 272 L220 272 L222 269 L224 269 L227 260 L224 254 L221 253 L220 251 Z M211 259 L214 257 L217 257 L220 260 L220 263 L214 266 L211 264 Z M277 251 L271 258 L272 268 L278 272 L286 272 L292 266 L293 259 L290 254 L286 251 L282 250 Z M281 257 L283 257 L286 260 L286 264 L283 265 L282 267 L278 264 L278 259 Z M255 18 L242 46 L243 68 L230 88 L238 100 L233 109 L170 166 L165 179 L149 169 L149 156 L137 166 L136 189 L150 199 L123 244 L113 290 L117 341 L133 378 L124 377 L120 362 L112 357 L111 393 L117 407 L136 421 L154 446 L212 457 L258 495 L299 458 L317 452 L344 452 L364 442 L377 421 L399 403 L401 359 L397 357 L390 376 L380 378 L396 341 L400 291 L390 245 L363 199 L377 189 L376 166 L364 156 L363 170 L348 179 L335 158 L280 109 L275 100 L283 88 L270 68 L270 43 L260 19 Z M207 447 L214 445 L225 446 L240 453 L251 466 L253 475 L255 476 L260 475 L261 468 L267 459 L273 453 L288 446 L305 446 L306 448 L302 451 L294 453 L292 456 L287 458 L268 480 L264 481 L258 486 L255 486 L249 481 L245 480 L228 460 L226 460 L219 453 L211 451 Z M274 443 L275 445 L272 447 L271 445 Z M238 444 L240 443 L242 446 L240 447 Z M256 430 L261 435 L263 440 L263 446 L257 458 L255 457 L250 446 L251 437 Z M369 422 L367 429 L357 439 L351 443 L344 444 L343 446 L319 446 L317 443 L310 442 L309 440 L305 439 L288 439 L277 444 L274 443 L274 441 L282 434 L286 433 L289 430 L299 428 L300 426 L315 425 L324 426 L325 428 L338 429 L345 428 L357 419 Z M144 422 L156 419 L164 426 L175 429 L188 428 L189 426 L197 425 L213 426 L214 428 L221 429 L231 434 L239 441 L239 443 L236 444 L225 439 L208 439 L196 443 L194 446 L170 446 L169 444 L162 443 L157 440 L146 429 Z M256 396 L261 400 L263 404 L270 411 L272 416 L274 417 L276 423 L276 431 L270 437 L267 436 L264 428 L261 426 L258 420 L255 420 L252 426 L249 428 L245 437 L243 437 L237 432 L237 423 L239 417 L241 416 L243 411 Z M306 374 L309 369 L317 369 L320 371 L320 377 L315 380 L309 379 L306 376 Z M347 327 L354 327 L359 330 L360 350 L356 356 L346 355 L346 328 Z M269 327 L277 328 L277 355 L276 356 L269 356 L265 351 L265 331 Z M271 317 L276 303 L286 292 L288 292 L297 286 L306 285 L308 283 L317 283 L319 285 L328 286 L337 291 L348 302 L351 312 L353 314 L353 319 L350 320 L348 311 L345 308 L344 304 L331 292 L328 292 L325 290 L319 290 L318 288 L306 288 L305 290 L294 292 L292 295 L287 297 L284 300 L284 302 L280 305 L276 313 L275 319 L272 320 Z M313 220 L326 245 L326 279 L302 278 L284 286 L271 300 L257 336 L239 336 L212 325 L179 335 L190 306 L178 281 L177 252 L187 227 L203 209 L233 195 L268 194 L294 204 Z M257 122 L275 143 L317 177 L326 199 L359 233 L376 275 L377 317 L368 344 L353 299 L332 281 L334 251 L330 236 L320 219 L298 199 L266 187 L239 187 L205 200 L184 220 L172 246 L170 274 L183 311 L170 341 L189 341 L212 332 L233 341 L257 342 L261 357 L278 363 L284 358 L281 318 L285 309 L301 296 L319 295 L333 301 L341 312 L341 358 L346 364 L339 371 L327 373 L321 364 L309 362 L300 370 L302 382 L319 386 L327 378 L342 377 L356 361 L360 362 L344 382 L321 393 L320 403 L302 403 L278 412 L255 384 L232 412 L211 403 L193 403 L191 392 L169 382 L146 353 L137 324 L136 283 L146 247 L159 225 L186 200 L196 177 Z M250 97 L263 97 L297 135 L334 166 L343 184 L355 185 L372 173 L371 186 L361 190 L356 199 L376 229 L387 257 L393 318 L386 353 L374 376 L360 386 L359 403 L371 409 L378 403 L378 395 L371 392 L373 400 L366 402 L364 392 L397 380 L390 405 L377 414 L364 415 L340 406 L339 411 L350 415 L349 419 L338 423 L281 423 L283 417 L296 411 L326 410 L327 398 L342 391 L363 371 L380 335 L383 285 L376 253 L363 227 L332 195 L323 175 L285 143 L258 110 L228 143 L188 176 L181 195 L155 220 L137 253 L130 283 L133 335 L150 371 L167 388 L186 398 L187 410 L217 411 L230 417 L232 423 L175 423 L164 419 L163 415 L174 411 L173 406 L140 415 L128 410 L118 396 L117 379 L149 392 L147 402 L140 400 L142 392 L136 393 L136 406 L147 409 L155 401 L154 388 L139 376 L127 353 L120 320 L123 265 L137 229 L157 199 L152 190 L141 185 L141 173 L158 185 L170 184 L177 168 L217 134 Z M237 89 L240 85 L273 85 L276 89 L276 92 L274 94 L269 94 L267 92 L246 92 L244 94 L239 94 L237 92 Z M243 76 L245 74 L268 74 L270 78 L269 79 L244 79 Z M249 65 L250 64 L263 64 L264 66 L263 67 L250 67 Z M256 34 L258 35 L265 47 L265 54 L261 57 L252 57 L248 54 L248 47 Z"/></svg>
