<svg xmlns="http://www.w3.org/2000/svg" width="512" height="512" viewBox="0 0 512 512" aria-hidden="true" focusable="false"><path fill="currentColor" fill-rule="evenodd" clip-rule="evenodd" d="M487 276 L469 276 L457 287 L431 343 L403 371 L400 369 L431 332 L431 322 L423 314 L406 318 L385 338 L339 362 L317 382 L301 420 L289 421 L281 428 L281 444 L274 451 L274 458 L293 482 L294 495 L300 495 L301 482 L305 487 L330 489 L339 495 L356 492 L362 486 L361 478 L374 465 L367 447 L428 409 L448 390 L490 285 Z M281 452 L287 451 L301 464 L303 464 L306 467 L314 471 L320 472 L321 474 L328 475 L330 477 L352 478 L355 484 L348 485 L345 488 L340 488 L339 486 L333 484 L332 482 L320 483 L317 482 L314 478 L306 478 L305 476 L295 475 L293 471 L291 470 L291 462 L285 460 L281 456 L282 454 Z M287 432 L290 429 L293 429 L294 435 L297 438 L297 440 L304 447 L306 447 L308 450 L310 450 L313 453 L320 455 L321 457 L327 458 L328 460 L335 461 L337 463 L356 464 L357 462 L359 463 L362 461 L363 456 L365 455 L367 459 L366 467 L355 472 L337 471 L336 469 L322 467 L316 464 L315 462 L310 461 L309 459 L305 458 L301 454 L299 454 L290 445 L287 439 Z M483 283 L470 310 L455 361 L433 396 L372 433 L352 457 L322 450 L304 436 L312 404 L332 376 L381 350 L415 321 L422 322 L424 330 L415 340 L402 336 L411 347 L373 388 L371 394 L377 396 L384 386 L414 372 L429 358 L463 291 L471 283 Z M377 275 L374 278 L374 283 L377 286 L383 286 L386 283 L386 278 L383 275 Z M129 275 L126 278 L126 283 L129 286 L135 286 L138 283 L138 278 L135 275 Z M253 238 L235 268 L219 259 L209 260 L209 295 L196 297 L194 304 L211 325 L201 334 L201 341 L220 347 L240 347 L257 365 L272 347 L292 347 L312 340 L301 325 L314 311 L318 299 L303 295 L302 259 L293 259 L277 268 L259 238 Z M254 334 L258 334 L259 337 L265 343 L265 345 L258 351 L254 351 L246 344 L246 342 L249 341 Z M301 334 L300 337 L294 338 L293 340 L288 341 L278 341 L267 336 L268 334 L285 333 L287 331 L292 330 L297 331 Z M211 334 L215 331 L220 330 L232 334 L242 334 L243 336 L239 338 L238 340 L224 341 L219 338 L212 337 Z M277 315 L279 314 L280 316 L278 317 Z M232 315 L234 314 L235 316 L233 317 Z M310 304 L308 308 L305 310 L305 312 L296 321 L294 321 L293 323 L287 324 L286 326 L282 324 L296 311 L297 307 L302 303 Z M202 304 L211 303 L215 307 L216 311 L230 324 L226 326 L225 324 L219 323 L218 321 L216 321 L207 312 L207 310 L204 308 Z M255 287 L257 287 L260 290 L260 292 L263 294 L267 304 L266 320 L257 328 L253 327 L245 318 L246 300 L249 294 L252 292 L252 290 Z M218 268 L224 269 L232 277 L231 283 L229 285 L229 301 L231 303 L233 312 L232 315 L227 313 L221 305 L221 303 L219 302 L217 291 L215 289 L215 277 L217 276 Z M294 267 L295 277 L297 279 L297 289 L295 291 L295 297 L287 311 L280 315 L279 312 L281 304 L283 303 L283 285 L281 283 L281 276 L288 269 Z M254 252 L258 252 L262 256 L264 262 L267 264 L267 266 L271 271 L274 283 L276 284 L276 302 L275 303 L273 302 L273 299 L266 286 L263 284 L259 275 L253 275 L249 284 L246 286 L239 299 L239 302 L238 303 L236 302 L236 284 L238 283 L239 276 L246 262 L252 256 Z M396 232 L394 230 L377 232 L375 234 L364 235 L359 238 L359 241 L362 243 L363 242 L367 243 L370 241 L381 240 L382 238 L392 237 Z M118 231 L118 237 L130 238 L131 240 L142 241 L145 243 L146 242 L150 243 L153 241 L153 238 L148 235 L137 234 L135 232 L122 230 Z M431 223 L429 224 L429 232 L423 241 L418 242 L417 244 L414 244 L414 249 L424 253 L428 259 L429 267 L431 271 L435 272 L436 263 L438 262 L439 258 L446 251 L451 250 L453 248 L453 245 L448 242 L443 241 L438 234 L436 223 Z M432 241 L434 241 L439 246 L434 252 L432 252 L427 247 Z M76 223 L76 230 L74 231 L73 236 L68 241 L60 244 L59 248 L63 251 L66 251 L73 258 L74 263 L76 265 L76 271 L80 272 L83 269 L84 258 L89 252 L97 250 L98 244 L95 244 L94 242 L89 241 L84 236 L83 224 Z M78 241 L80 241 L81 244 L84 246 L80 252 L78 252 L73 247 Z M273 211 L270 214 L270 218 L272 219 L276 217 L277 220 L273 221 L267 227 L267 236 L270 239 L270 241 L273 241 L276 245 L280 246 L280 252 L284 254 L286 252 L288 242 L290 241 L290 231 L287 228 L282 227 L284 223 L283 214 L278 211 Z M275 228 L277 227 L281 228 L280 232 L284 236 L282 239 L278 240 L277 238 L274 237 L273 232 Z M239 211 L234 211 L231 214 L229 214 L228 223 L230 227 L225 228 L222 233 L222 241 L224 242 L226 252 L228 254 L232 252 L232 246 L236 245 L236 241 L237 240 L242 241 L245 236 L245 229 L243 225 L239 222 L239 220 L242 218 L242 214 Z M232 227 L235 227 L238 229 L238 236 L236 237 L235 241 L228 237 L229 234 L232 234 L231 229 Z M235 218 L237 217 L238 219 L236 220 Z M425 192 L424 200 L427 203 L433 202 L435 199 L435 195 L432 192 Z M82 190 L77 195 L77 199 L79 202 L85 203 L88 200 L88 193 Z M391 180 L384 179 L382 182 L377 183 L369 189 L352 197 L346 202 L346 206 L350 207 L353 206 L354 204 L359 203 L361 200 L365 199 L368 196 L378 192 L384 187 L389 185 L391 183 Z M121 180 L121 183 L124 186 L128 187 L143 197 L151 200 L153 203 L158 204 L159 206 L162 207 L166 206 L166 202 L160 197 L143 189 L128 179 Z M255 172 L253 173 L252 179 L249 182 L249 184 L246 186 L246 188 L242 193 L242 204 L243 207 L246 210 L248 210 L249 213 L252 215 L253 230 L259 230 L260 214 L269 207 L270 193 L267 187 L263 184 L260 179 L259 173 Z M254 187 L259 188 L264 198 L263 203 L257 209 L250 204 L248 201 L249 194 Z M251 155 L226 172 L216 201 L191 245 L178 298 L178 328 L194 352 L233 364 L253 382 L259 382 L279 364 L309 357 L328 342 L334 328 L334 298 L321 245 L297 202 L287 173 L271 159 Z M253 162 L269 166 L285 185 L291 207 L300 217 L318 259 L328 313 L325 332 L317 344 L273 359 L257 373 L239 359 L196 345 L184 319 L191 270 L204 233 L233 175 Z M404 138 L404 144 L407 146 L408 152 L410 153 L411 158 L415 164 L416 170 L418 171 L419 178 L421 180 L425 180 L427 176 L425 174 L424 168 L422 167 L420 157 L417 151 L415 150 L414 145 L412 144 L411 140 L409 138 Z M108 138 L103 138 L100 144 L98 145 L97 150 L95 151 L90 165 L88 167 L87 174 L85 176 L87 180 L91 180 L93 178 L94 171 L96 170 L97 164 L101 158 L103 151 L108 144 Z M366 134 L360 134 L328 169 L328 173 L330 175 L332 175 L366 139 Z M146 134 L146 139 L166 159 L166 161 L180 175 L182 175 L184 173 L184 169 L160 144 L160 142 L152 134 Z M254 118 L252 120 L249 120 L245 124 L245 127 L243 128 L243 135 L252 144 L260 144 L269 135 L269 128 L267 127 L266 123 L263 120 Z M254 125 L256 126 L258 125 L262 129 L261 131 L262 133 L257 137 L252 136 L250 134 L250 129 Z M390 111 L384 117 L384 127 L386 128 L387 131 L390 132 L400 132 L405 127 L405 118 L398 111 Z M394 118 L396 118 L398 121 L398 124 L395 126 L391 124 L391 121 Z M114 111 L107 117 L107 127 L112 132 L125 131 L126 128 L128 127 L128 119 L126 115 L120 111 Z M115 119 L118 118 L121 121 L121 124 L115 125 L114 124 Z M264 104 L246 105 L232 117 L232 145 L209 168 L174 244 L161 299 L163 335 L177 359 L175 364 L141 348 L106 318 L89 314 L81 322 L81 332 L112 369 L109 371 L81 343 L53 285 L40 275 L28 275 L22 281 L61 386 L82 408 L145 447 L139 454 L138 467 L151 478 L150 486 L156 492 L173 495 L203 485 L212 495 L218 495 L219 482 L238 458 L231 444 L231 429 L223 421 L211 420 L203 394 L179 363 L200 374 L227 379 L257 406 L288 378 L326 367 L348 339 L351 299 L338 244 L303 168 L280 145 L280 117 Z M231 454 L231 456 L227 460 L221 462 L221 471 L217 475 L210 476 L208 479 L198 478 L195 482 L192 483 L179 482 L172 488 L167 488 L164 485 L157 484 L158 478 L182 477 L184 475 L191 474 L192 472 L198 471 L206 467 L209 464 L211 464 L225 451 L228 451 Z M225 432 L225 439 L222 445 L213 454 L211 454 L207 458 L203 459 L200 462 L197 462 L196 464 L190 467 L178 469 L176 471 L166 472 L153 471 L146 467 L145 458 L147 455 L149 456 L149 460 L153 463 L155 462 L156 464 L175 463 L177 461 L184 460 L185 458 L191 457 L192 455 L197 454 L202 450 L204 450 L207 446 L209 446 L214 441 L214 439 L218 435 L219 429 Z M29 283 L41 283 L49 291 L81 356 L100 374 L128 386 L135 396 L141 393 L134 381 L101 347 L110 336 L97 340 L88 330 L90 322 L97 321 L132 351 L175 372 L200 404 L208 436 L190 450 L160 457 L142 434 L82 399 L57 361 L38 299 Z M255 110 L268 114 L276 125 L270 148 L282 155 L300 177 L305 197 L331 245 L343 298 L343 329 L335 349 L317 364 L282 373 L258 395 L228 372 L189 361 L177 349 L169 329 L170 289 L181 245 L218 167 L242 148 L236 137 L239 119 Z M328 97 L324 97 L322 99 L315 113 L314 119 L312 120 L307 133 L305 134 L305 138 L308 140 L310 140 L312 136 L314 135 L315 129 L317 128 L322 115 L324 114 L325 109 L327 108 L329 101 Z M184 97 L183 101 L185 108 L187 109 L188 114 L190 115 L192 122 L195 128 L197 129 L198 135 L200 136 L202 140 L204 140 L207 138 L207 134 L205 133 L204 128 L200 120 L198 119 L196 111 L190 99 L188 97 Z M302 55 L302 60 L304 62 L311 63 L320 68 L326 69 L334 73 L335 75 L341 77 L342 79 L344 79 L351 85 L353 85 L356 89 L358 89 L365 96 L368 97 L380 110 L384 111 L386 109 L386 106 L366 86 L364 86 L350 74 L344 72 L343 70 L339 69 L336 66 L330 63 L327 63 L321 59 L308 55 Z M210 55 L204 55 L191 59 L185 63 L182 63 L178 66 L173 67 L168 72 L162 74 L161 76 L153 80 L150 84 L148 84 L126 106 L126 109 L128 111 L132 110 L147 94 L149 94 L154 89 L156 89 L159 85 L161 85 L168 79 L170 79 L171 77 L177 75 L178 73 L186 69 L192 68 L201 63 L208 62 L210 60 Z M232 18 L219 30 L219 49 L237 72 L254 86 L258 86 L290 55 L294 43 L293 30 L280 18 L265 19 L257 26 L248 19 Z M233 25 L244 25 L255 37 L268 25 L279 25 L287 35 L287 44 L280 57 L257 77 L254 77 L244 69 L227 49 L225 35 Z"/></svg>
