<svg xmlns="http://www.w3.org/2000/svg" width="512" height="512" viewBox="0 0 512 512" aria-hidden="true" focusable="false"><path fill="currentColor" fill-rule="evenodd" clip-rule="evenodd" d="M346 361 L342 363 L337 369 L336 377 L338 384 L341 388 L332 396 L329 401 L328 420 L330 420 L331 408 L335 399 L341 393 L346 391 L356 391 L366 397 L368 401 L369 420 L371 420 L372 414 L371 397 L367 392 L360 388 L365 380 L365 370 L362 367 L362 365 L357 362 Z M345 366 L355 365 L361 371 L362 374 L361 380 L357 385 L350 387 L345 385 L341 381 L340 373 L341 370 Z M386 335 L381 339 L377 346 L377 354 L383 362 L383 364 L373 372 L370 378 L370 392 L373 391 L374 378 L381 369 L390 366 L397 366 L406 369 L411 374 L413 379 L413 397 L415 397 L416 376 L414 372 L403 363 L409 354 L409 346 L405 339 L397 334 Z M385 340 L389 338 L398 338 L402 341 L404 346 L404 354 L398 361 L390 362 L382 356 L381 345 Z M108 338 L103 346 L103 353 L109 363 L104 366 L96 376 L97 397 L99 397 L99 379 L101 374 L110 367 L127 367 L136 374 L139 381 L140 393 L143 394 L140 401 L141 419 L143 419 L144 401 L146 397 L156 391 L171 393 L180 404 L181 417 L184 419 L183 401 L171 388 L176 378 L174 367 L166 361 L158 361 L151 364 L147 370 L147 380 L152 388 L143 393 L141 375 L129 364 L135 354 L134 343 L129 337 L123 334 L115 334 Z M154 367 L158 365 L165 365 L171 370 L172 379 L166 386 L160 387 L155 385 L152 382 L150 375 Z M116 338 L126 339 L132 348 L131 355 L122 362 L114 361 L108 354 L108 346 L110 342 Z M333 323 L333 325 L343 333 L343 335 L347 337 L346 330 L347 329 L351 330 L358 334 L366 342 L368 347 L370 347 L367 337 L361 331 L348 324 L350 318 Z M180 323 L162 318 L165 324 L153 330 L147 335 L143 342 L142 348 L144 348 L147 341 L159 331 L165 329 L166 336 L168 336 L176 327 L180 325 Z M233 291 L227 298 L227 302 L221 303 L219 306 L217 336 L255 336 L252 304 L245 302 L243 293 L240 291 Z M223 309 L226 308 L230 311 L231 308 L241 308 L242 310 L245 308 L248 308 L250 314 L251 332 L250 333 L222 333 L221 325 Z M232 296 L239 295 L241 297 L241 302 L232 303 L231 302 Z M333 295 L333 298 L339 299 L346 303 L348 303 L347 297 L351 295 L377 296 L394 303 L407 315 L411 321 L415 333 L415 344 L417 344 L418 332 L414 318 L412 317 L410 312 L400 302 L398 302 L394 298 L384 294 L371 291 L347 292 L346 291 L347 286 L345 286 Z M180 295 L173 291 L167 285 L165 285 L166 289 L165 292 L142 291 L132 293 L117 299 L116 301 L111 303 L99 317 L95 328 L95 343 L97 343 L98 330 L102 320 L106 314 L120 302 L135 296 L161 295 L166 297 L164 303 L166 303 L171 300 L180 298 Z M149 203 L146 207 L145 219 L138 227 L136 237 L132 238 L131 244 L127 251 L127 262 L130 267 L135 271 L144 271 L144 276 L138 285 L144 284 L159 274 L164 265 L165 258 L162 244 L153 236 L156 223 L151 213 Z M134 247 L146 253 L149 256 L151 261 L151 267 L149 269 L147 268 L146 264 L143 262 L140 262 L139 267 L135 267 L130 259 L130 254 Z M149 219 L151 220 L152 223 L152 229 L150 232 L149 238 L157 244 L161 252 L161 262 L158 269 L155 272 L153 271 L154 259 L150 252 L142 245 L140 241 L141 230 Z M363 202 L363 208 L357 221 L357 230 L360 236 L350 245 L348 262 L352 272 L366 283 L374 285 L369 277 L368 270 L379 270 L385 263 L386 255 L380 238 L376 237 L374 227 L367 217 L366 205 Z M379 247 L382 253 L382 260 L380 264 L377 267 L373 267 L372 262 L369 262 L365 266 L365 270 L363 271 L361 265 L363 257 L368 252 Z M364 220 L372 232 L372 241 L368 248 L362 252 L358 261 L359 271 L357 272 L352 264 L351 255 L354 246 L358 241 L363 239 L363 233 L361 231 L360 224 L361 221 Z M229 226 L230 227 L241 226 L245 228 L250 228 L254 225 L253 217 L257 214 L260 217 L259 225 L261 227 L268 228 L272 226 L277 226 L280 228 L284 228 L283 225 L273 222 L273 215 L269 207 L266 206 L260 198 L257 189 L255 190 L254 196 L247 207 L243 209 L239 218 L240 222 Z M267 213 L270 217 L270 221 L267 224 L263 225 L262 222 L266 221 L263 215 Z M246 213 L250 215 L250 217 L247 219 L247 221 L251 222 L250 225 L247 225 L243 221 L243 216 Z M256 199 L259 201 L263 207 L262 213 L259 211 L258 208 L256 208 L253 213 L250 212 L250 207 Z M384 179 L380 178 L359 188 L332 198 L332 201 L369 187 L371 185 L374 185 Z M129 179 L139 185 L142 185 L151 190 L181 201 L180 198 L169 193 L146 185 L133 178 Z M161 168 L162 171 L178 181 L182 182 L184 185 L188 187 L190 186 L189 184 L164 168 Z M352 167 L350 167 L325 183 L323 186 L324 187 L327 186 L329 183 L351 171 Z M297 166 L292 171 L292 173 L295 173 L299 179 L299 184 L297 188 L299 190 L302 183 L302 177 L299 172 L299 166 Z M215 165 L213 165 L214 172 L210 179 L213 189 L215 188 L214 178 L218 173 L221 173 L221 171 Z M366 156 L359 162 L359 164 L364 169 L366 169 L367 166 L371 164 L371 162 L367 159 Z M149 155 L142 162 L143 165 L146 166 L147 170 L149 170 L150 167 L154 164 L154 162 L150 159 Z M361 132 L358 131 L316 168 L314 170 L314 173 L316 173 L323 167 L330 159 L332 159 L357 137 Z M152 131 L152 133 L174 153 L178 155 L197 173 L199 173 L199 171 L188 160 L154 130 Z M282 120 L279 123 L275 147 L277 147 L281 127 L283 125 Z M231 120 L231 127 L235 144 L236 144 L237 138 L233 121 Z M256 119 L247 145 L249 155 L235 181 L211 210 L201 193 L196 198 L195 219 L201 230 L193 234 L178 217 L181 243 L195 250 L185 266 L186 276 L195 286 L195 348 L183 351 L189 367 L184 372 L190 386 L189 405 L199 423 L180 425 L161 409 L164 418 L179 429 L161 428 L150 421 L157 430 L173 435 L143 440 L130 432 L135 425 L133 411 L115 398 L106 410 L85 404 L91 418 L117 445 L142 454 L167 449 L154 462 L164 466 L194 459 L207 471 L223 471 L233 461 L224 447 L234 441 L242 465 L229 471 L236 479 L244 479 L258 496 L269 479 L283 472 L271 465 L278 441 L288 447 L279 460 L290 471 L305 471 L318 459 L334 466 L349 466 L358 462 L346 450 L370 454 L390 448 L421 418 L427 402 L415 410 L406 410 L397 398 L379 411 L376 421 L382 433 L369 440 L340 435 L358 425 L334 429 L345 422 L351 409 L327 427 L313 423 L323 405 L323 382 L329 374 L323 369 L330 350 L318 348 L318 283 L328 273 L319 250 L333 241 L335 216 L320 234 L312 230 L317 223 L314 193 L302 210 L285 190 L264 155 L266 145 Z M250 471 L257 478 L262 471 L264 472 L265 476 L264 481 L257 489 L248 479 L248 475 Z M264 470 L269 468 L274 473 L274 475 L269 476 Z M249 470 L245 475 L243 476 L239 475 L239 473 L244 468 Z M271 445 L273 449 L272 457 L268 461 L265 461 L264 466 L259 468 L258 461 L261 454 L265 449 Z M241 445 L244 446 L252 454 L255 462 L254 468 L249 466 L247 464 L247 461 L241 458 L240 456 L240 446 Z M294 432 L304 435 L312 443 L314 447 L314 457 L312 461 L303 468 L289 467 L284 462 L285 454 L289 455 L288 457 L289 460 L293 460 L298 457 L300 452 L300 443 L296 436 L293 434 Z M265 434 L271 432 L282 432 L289 435 L296 443 L297 446 L296 453 L294 455 L292 454 L291 445 L286 440 L278 438 L269 442 Z M247 434 L244 442 L235 438 L228 439 L222 443 L220 454 L218 455 L216 453 L215 449 L218 440 L225 434 L231 432 L242 432 Z M215 432 L218 432 L219 434 L213 441 L212 452 L215 458 L219 460 L225 459 L223 455 L227 454 L228 461 L227 464 L223 467 L209 468 L200 461 L198 457 L198 449 L201 442 L207 436 Z M256 431 L263 438 L265 443 L264 447 L262 448 L257 456 L255 455 L252 449 L249 448 L248 445 L249 439 Z M301 429 L303 427 L313 427 L315 429 L321 430 L326 433 L336 443 L343 455 L347 459 L347 461 L345 463 L337 463 L330 461 L321 456 L317 451 L314 440 L303 432 Z M211 429 L208 433 L201 437 L201 439 L198 441 L195 451 L191 456 L182 461 L175 463 L167 463 L165 461 L165 459 L172 451 L175 445 L186 433 L193 429 L197 429 L199 427 L209 427 Z M418 414 L418 416 L415 419 L404 424 L406 427 L402 434 L391 443 L382 447 L374 449 L357 449 L339 442 L340 440 L356 444 L367 444 L380 439 L387 432 L394 429 L396 426 L396 421 L393 418 L390 418 L387 420 L387 422 L390 421 L392 422 L392 426 L390 428 L384 427 L380 422 L381 415 L388 409 L397 409 L408 414 L413 413 Z M94 414 L95 413 L104 414 L115 409 L124 409 L131 415 L132 422 L128 427 L122 428 L120 426 L120 422 L121 421 L125 422 L125 420 L123 418 L119 418 L116 422 L116 426 L121 431 L125 432 L132 439 L137 442 L146 444 L157 444 L172 440 L173 442 L155 449 L138 449 L127 446 L118 441 L110 434 L106 427 L108 424 L98 420 Z M256 380 L272 397 L276 405 L275 420 L269 428 L261 430 L257 423 L251 430 L244 428 L238 421 L237 405 L239 400 Z M321 376 L322 378 L319 383 L320 401 L318 409 L315 414 L305 423 L299 426 L296 425 L308 410 L310 401 L309 393 L311 389 L309 388 L306 394 L307 400 L306 406 L303 412 L294 422 L284 427 L283 424 L287 421 L291 413 L292 408 L291 394 L294 389 L308 379 L316 376 Z M191 375 L205 379 L219 389 L222 394 L221 410 L225 420 L228 422 L229 425 L228 427 L218 422 L211 415 L206 405 L206 393 L204 389 L202 390 L203 406 L208 416 L216 425 L213 426 L207 423 L197 414 L192 400 L193 382 L190 377 Z M201 365 L204 364 L209 366 L222 374 L227 381 L225 386 L222 387 L217 382 L210 378 L204 378 Z M290 362 L291 364 L285 371 L283 368 L283 363 Z M268 363 L278 362 L279 368 L282 374 L280 375 Z M244 362 L245 364 L232 375 L231 373 L234 368 L234 363 Z M221 363 L230 362 L231 367 L227 371 Z M257 358 L278 378 L284 386 L288 396 L287 413 L283 420 L278 424 L277 420 L280 413 L278 399 L263 382 L258 372 L256 371 L251 381 L239 393 L234 403 L233 414 L237 423 L235 425 L229 419 L226 413 L224 405 L225 395 L231 383 Z M323 352 L324 356 L322 359 L319 371 L315 374 L313 373 L315 362 L313 362 L310 370 L310 375 L304 379 L297 381 L291 387 L289 387 L286 381 L290 375 L296 370 L309 364 L306 363 L296 367 L294 365 L303 358 L311 354 Z M188 353 L193 352 L202 354 L206 357 L211 358 L217 365 L215 366 L204 362 L200 363 L198 360 L196 360 L199 368 L199 373 L195 374 L192 368 Z M274 326 L275 325 L303 325 L304 326 L303 340 L305 342 L303 345 L304 353 L298 358 L275 358 L274 357 Z M274 321 L275 318 L303 318 L304 319 L303 321 L300 322 L275 322 Z M284 307 L285 306 L294 307 L295 313 L285 314 Z M312 281 L315 284 L315 349 L308 352 L307 351 L307 283 L309 281 Z M202 281 L206 283 L206 351 L205 352 L198 350 L198 284 Z M277 281 L280 281 L283 278 L293 283 L301 279 L303 280 L304 305 L302 314 L298 313 L298 302 L280 302 L279 303 L279 313 L278 314 L274 313 L274 284 Z M265 278 L270 281 L270 357 L269 358 L266 357 L266 286 L263 281 Z M210 278 L219 283 L228 278 L238 283 L247 278 L255 283 L262 282 L261 355 L257 349 L251 358 L215 358 L209 353 Z M212 274 L213 270 L226 270 L227 271 L226 275 L222 278 L217 278 Z M305 273 L305 271 L309 269 L324 271 L323 275 L319 278 L311 278 Z M301 270 L300 275 L296 278 L291 278 L287 274 L288 270 L298 269 Z M283 271 L282 274 L277 278 L270 277 L268 273 L269 270 L276 269 Z M249 271 L260 269 L263 270 L264 273 L261 277 L254 278 L251 276 Z M231 271 L234 269 L244 270 L245 273 L243 277 L235 278 L231 274 Z M208 270 L207 274 L202 278 L194 278 L189 274 L190 270 L203 270 L204 269 Z M298 250 L299 249 L313 249 L322 263 L321 266 L305 266 L300 257 Z M282 250 L283 249 L293 249 L298 259 L299 265 L298 266 L287 266 L285 263 Z M266 250 L267 249 L277 249 L282 265 L281 266 L268 266 Z M251 249 L262 249 L263 250 L263 261 L264 262 L263 266 L250 266 L249 265 Z M236 249 L246 249 L247 250 L245 266 L233 266 L232 265 Z M220 249 L230 249 L231 250 L231 254 L226 266 L215 266 L214 265 L215 259 Z M200 249 L214 249 L215 250 L213 257 L208 266 L192 266 L191 263 Z M205 243 L211 237 L302 237 L308 244 L307 245 L206 245 Z M184 229 L188 230 L189 238 L196 238 L206 230 L214 228 L241 199 L257 174 L272 199 L293 223 L321 239 L325 237 L324 231 L327 229 L329 239 L325 245 L319 245 L303 233 L210 233 L199 243 L188 245 L184 240 Z M199 216 L200 208 L202 207 L206 211 L206 217 L208 217 L226 198 L239 181 L240 176 L244 173 L254 153 L250 147 L257 136 L262 146 L259 153 L276 184 L281 188 L290 202 L293 203 L295 208 L305 217 L308 216 L307 211 L310 207 L312 207 L314 219 L310 225 L304 226 L288 212 L270 189 L261 174 L257 161 L254 171 L243 189 L217 220 L209 226 L204 226 L200 222 Z M337 113 L335 113 L330 120 L327 122 L327 124 L307 152 L306 156 L309 155 L309 153 L312 151 L312 149 L317 144 L319 139 L337 115 Z M176 113 L176 115 L191 135 L195 143 L198 145 L198 147 L203 152 L203 154 L206 155 L206 152 L190 130 L186 122 L183 120 L183 118 L178 113 Z M312 96 L309 97 L306 106 L303 110 L295 134 L291 142 L289 152 L291 152 L305 114 L310 105 Z M201 96 L202 103 L206 109 L206 112 L222 152 L224 152 L222 143 L218 135 L208 106 L205 102 L204 97 Z M256 17 L251 39 L240 64 L240 71 L243 76 L241 85 L237 84 L236 73 L234 73 L227 89 L227 103 L235 114 L239 116 L249 115 L253 109 L249 96 L257 84 L264 95 L264 102 L260 106 L261 111 L266 116 L274 116 L284 108 L287 92 L279 73 L277 74 L276 84 L273 85 L271 82 L273 63 L268 55 L268 50 L260 33 L258 18 Z M280 86 L283 91 L283 101 L280 106 L277 104 L276 101 L274 101 L274 104 L277 109 L274 112 L269 113 L264 108 L271 102 L274 92 Z M233 86 L235 86 L240 93 L241 100 L249 108 L248 111 L242 113 L238 110 L237 106 L234 107 L232 105 L230 100 L230 92 Z M257 66 L264 75 L265 80 L269 84 L270 95 L269 96 L267 95 L258 77 L256 76 L255 81 L246 93 L246 96 L244 97 L243 96 L244 85 L246 81 L248 80 L249 75 L251 74 L254 68 Z M256 35 L258 36 L259 41 L265 53 L265 59 L263 63 L264 64 L267 61 L269 62 L270 69 L268 73 L262 67 L257 56 L247 72 L244 71 L244 63 L245 62 L249 64 L250 63 L248 55 Z"/></svg>
