<svg xmlns="http://www.w3.org/2000/svg" width="512" height="512" viewBox="0 0 512 512" aria-hidden="true" focusable="false"><path fill="currentColor" fill-rule="evenodd" clip-rule="evenodd" d="M253 17 L244 49 L251 64 L243 101 L245 112 L233 128 L233 135 L206 168 L198 192 L201 214 L222 240 L221 256 L210 276 L205 276 L201 261 L185 239 L163 281 L162 312 L150 315 L145 310 L147 295 L162 268 L147 261 L147 171 L139 167 L147 146 L134 112 L124 143 L124 155 L130 164 L124 170 L125 261 L110 267 L120 292 L126 296 L126 312 L119 321 L106 326 L98 304 L60 270 L55 256 L51 274 L57 289 L58 320 L71 348 L84 361 L94 363 L104 373 L122 372 L145 388 L176 396 L202 411 L204 421 L197 433 L179 450 L171 470 L173 481 L213 494 L279 496 L326 488 L340 477 L329 446 L307 421 L312 408 L373 385 L390 372 L409 373 L442 347 L458 310 L462 261 L459 255 L456 266 L415 304 L407 325 L387 311 L388 295 L394 291 L403 266 L389 261 L390 176 L383 166 L389 143 L377 113 L366 146 L367 157 L375 166 L366 172 L367 260 L352 267 L369 308 L364 314 L349 312 L349 280 L342 260 L326 238 L310 260 L306 275 L300 275 L290 259 L289 240 L308 217 L312 192 L305 170 L266 116 L259 66 L266 51 Z M224 485 L225 482 L234 483 L287 482 L288 483 L286 486 L274 486 L273 487 L239 487 Z M290 482 L296 481 L297 483 L291 484 Z M216 482 L222 481 L223 483 L217 484 Z M297 481 L302 480 L303 482 L298 483 Z M303 480 L307 479 L308 481 L304 482 Z M204 480 L209 479 L214 480 L215 482 L210 483 L205 482 Z M191 477 L195 476 L202 478 L203 480 L199 481 L192 479 Z M336 475 L336 477 L333 480 L320 485 L318 487 L296 491 L276 492 L275 493 L224 492 L194 487 L183 482 L184 479 L187 479 L190 481 L194 481 L202 484 L213 485 L215 487 L231 489 L281 489 L314 483 L324 480 L334 474 Z M259 472 L263 471 L264 473 L260 474 Z M274 471 L277 470 L278 472 L275 473 Z M246 472 L249 470 L251 473 L247 474 Z M233 471 L236 470 L237 472 L234 473 Z M284 470 L288 469 L289 471 L285 472 Z M222 470 L224 469 L225 471 L223 472 Z M335 468 L335 472 L330 475 L313 481 L309 480 L310 478 L327 473 L332 467 Z M175 468 L177 467 L181 469 L183 472 L190 475 L191 477 L190 478 L185 477 L179 473 L177 473 L178 476 L175 477 L174 476 L174 472 L176 471 Z M264 466 L266 465 L267 467 L269 467 L271 465 L273 468 L268 472 L264 469 Z M216 468 L217 465 L222 466 L221 468 L218 469 Z M289 464 L294 465 L295 468 L291 469 L288 467 Z M240 464 L242 466 L244 465 L246 466 L246 469 L243 472 L241 472 L238 469 L238 466 Z M199 465 L201 464 L202 466 L200 467 Z M180 463 L182 462 L191 468 L201 470 L207 473 L240 477 L273 477 L274 476 L294 475 L309 472 L311 470 L320 468 L329 462 L331 464 L327 468 L318 473 L301 477 L275 480 L239 480 L211 477 L197 474 L184 468 Z M276 462 L282 461 L283 467 L278 468 L276 466 Z M303 460 L306 459 L307 462 L305 463 Z M235 459 L236 461 L234 466 L231 468 L228 468 L227 462 L229 461 L230 463 L232 463 L232 461 Z M310 459 L312 458 L315 460 L315 458 L317 457 L318 463 L317 464 L313 463 Z M192 458 L194 457 L196 460 L199 459 L200 461 L197 463 L194 463 L192 461 Z M298 456 L302 459 L303 461 L302 464 L298 461 L297 458 Z M238 455 L240 456 L239 459 L236 458 Z M270 452 L273 455 L271 459 L269 458 Z M292 451 L295 454 L294 458 L291 455 Z M219 451 L220 454 L217 457 L215 454 Z M285 450 L288 452 L288 457 L286 461 L282 461 L281 458 Z M319 451 L320 450 L324 451 L326 449 L328 452 L328 455 L326 457 L323 457 Z M274 450 L276 449 L277 452 L281 453 L281 455 L277 457 L274 453 Z M246 449 L248 450 L248 455 L252 460 L251 462 L248 462 L245 458 L244 453 Z M229 450 L231 449 L232 452 L230 453 Z M295 449 L298 448 L299 451 L297 452 Z M264 448 L266 451 L266 457 L264 461 L260 463 L260 467 L256 471 L254 471 L252 468 L254 465 L256 465 L257 461 L262 456 L262 449 Z M239 449 L241 448 L242 451 L240 452 Z M235 448 L237 449 L236 453 L234 452 Z M312 448 L314 447 L318 449 L319 451 L316 453 Z M225 447 L227 448 L228 456 L227 460 L223 458 L223 450 Z M199 448 L196 452 L192 452 L188 457 L183 456 L184 450 L188 452 L197 447 Z M184 448 L186 447 L187 449 L185 450 Z M306 446 L308 447 L309 455 L307 457 L304 456 Z M283 447 L285 446 L286 448 L284 449 Z M258 446 L260 448 L260 455 L256 459 L254 459 L250 454 L250 449 L252 448 L253 451 L256 452 L256 447 Z M204 445 L206 446 L207 458 L208 459 L211 457 L213 458 L213 461 L208 465 L205 464 L204 457 L202 456 L202 449 Z M300 444 L303 447 L302 450 L300 449 L299 446 Z M294 445 L296 444 L297 446 L295 447 Z M216 444 L217 445 L216 449 L212 452 L211 450 Z M315 444 L319 443 L320 446 L317 447 Z M304 444 L306 443 L307 445 L305 446 Z M287 444 L290 443 L291 446 L289 447 Z M190 446 L191 443 L195 444 L192 447 Z M204 443 L206 442 L207 444 L205 445 Z M211 441 L213 440 L214 442 L212 443 Z M268 438 L276 437 L277 439 L269 440 Z M235 438 L240 437 L241 439 L236 440 Z M281 437 L286 436 L287 438 L282 439 Z M224 437 L229 436 L230 438 L225 439 Z M289 436 L291 435 L292 437 L290 438 Z M295 435 L297 434 L298 436 L296 437 Z M213 435 L215 434 L216 436 L214 437 Z M299 434 L301 433 L302 435 L300 436 Z M209 434 L211 433 L212 435 L210 436 Z M269 430 L273 429 L276 432 L275 433 L270 432 Z M254 432 L257 429 L265 429 L266 431 L269 431 L270 434 L257 436 Z M252 430 L246 435 L241 434 L241 432 L246 429 Z M234 431 L236 428 L241 429 L239 432 Z M297 425 L296 428 L288 429 L287 433 L284 432 L286 426 L292 426 L295 424 Z M209 425 L215 424 L223 426 L230 426 L232 429 L227 430 L226 433 L223 433 L221 429 L216 429 L215 427 L210 427 Z M299 424 L301 423 L302 425 L300 426 Z M274 418 L277 417 L278 419 L275 420 Z M252 418 L256 417 L258 420 L253 421 Z M236 416 L239 415 L240 417 L237 418 Z M295 415 L297 414 L298 416 L296 417 Z M214 415 L216 414 L217 416 L215 417 Z M273 406 L275 405 L276 407 L274 408 Z M268 406 L266 409 L262 408 L263 406 L266 405 Z M279 405 L281 404 L282 407 L280 408 Z M250 408 L251 405 L255 404 L260 406 L257 409 Z M235 406 L242 404 L246 405 L247 408 L246 409 L243 409 L241 407 L236 408 Z M225 405 L228 404 L229 406 L226 407 Z M286 405 L289 403 L292 404 L291 407 L287 407 Z M206 403 L208 402 L209 404 L207 405 Z M198 402 L200 401 L201 403 L199 404 Z M236 398 L237 397 L273 397 L274 400 L273 401 L237 401 Z M316 395 L314 398 L293 399 L292 400 L287 399 L289 396 L301 396 L314 394 Z M197 395 L199 394 L210 396 L221 396 L222 399 L220 400 L219 399 L199 398 Z M270 392 L272 391 L273 393 L271 394 Z M221 392 L223 391 L224 393 L222 394 Z M285 390 L286 389 L288 391 L292 390 L293 392 L290 394 L287 394 Z M199 389 L201 388 L202 390 L200 391 Z M219 387 L220 391 L216 393 L215 391 Z M180 387 L182 386 L183 388 L181 389 Z M318 388 L319 385 L322 386 L320 389 Z M283 386 L282 389 L278 390 L276 389 L279 385 Z M228 386 L231 385 L232 387 L229 388 Z M303 384 L304 387 L301 389 L299 386 Z M255 384 L261 390 L259 394 L256 393 L256 389 L253 390 L252 394 L250 393 L250 389 Z M209 384 L212 386 L211 391 L208 389 Z M186 382 L189 382 L191 384 L189 389 L185 386 Z M344 381 L347 383 L346 387 L342 386 Z M322 383 L326 381 L328 384 L323 385 Z M285 381 L289 383 L288 389 L286 388 L284 383 Z M222 385 L223 381 L227 382 L224 386 Z M166 381 L168 381 L170 384 L169 388 L164 386 Z M306 381 L308 380 L309 383 L307 384 Z M279 380 L280 382 L275 385 L274 390 L272 391 L271 386 L276 380 Z M260 381 L264 380 L268 386 L268 392 L266 394 L263 393 L264 389 L259 383 Z M348 380 L351 379 L352 381 L349 382 Z M299 379 L301 382 L298 383 L293 388 L292 385 Z M169 380 L171 379 L172 381 L170 382 Z M209 379 L212 378 L219 384 L219 386 L217 387 L215 384 L211 383 Z M194 378 L200 383 L201 386 L200 388 L197 388 L196 385 L192 382 Z M159 379 L161 378 L163 381 L160 383 Z M319 377 L320 381 L317 384 L315 384 L314 386 L315 389 L312 392 L310 392 L309 389 L311 386 L311 383 L316 378 Z M335 376 L336 384 L332 389 L330 389 L329 379 Z M182 376 L184 378 L182 381 L182 384 L177 385 L176 379 Z M348 374 L349 376 L341 382 L340 381 L341 378 L346 374 Z M225 375 L228 374 L232 379 L234 379 L237 382 L239 387 L237 388 L229 380 L226 381 L224 378 Z M207 374 L209 376 L209 379 L204 385 L203 384 L204 375 Z M162 375 L165 374 L168 377 L166 378 L163 377 Z M362 373 L364 375 L364 378 L359 383 L358 382 L359 378 L356 378 L355 376 Z M308 373 L309 376 L303 379 L302 377 L306 373 Z M284 373 L285 378 L280 379 L279 377 Z M150 373 L156 376 L155 378 L153 378 L153 380 L155 381 L154 385 L149 381 L148 375 Z M378 372 L379 373 L378 376 L375 379 L371 380 L370 378 L372 375 Z M265 376 L268 373 L272 372 L275 377 L273 379 L271 377 L267 379 Z M256 372 L261 377 L260 381 L258 382 L255 378 L253 382 L248 386 L247 393 L245 394 L241 388 L246 381 L250 381 L250 377 Z M239 372 L245 375 L242 381 L240 380 L240 378 L236 377 L236 375 Z M184 373 L186 372 L189 375 L189 377 L187 378 L184 375 Z M134 373 L136 372 L139 374 L142 379 L141 380 L137 379 Z M297 371 L298 376 L292 380 L289 374 L292 373 L293 371 Z M214 372 L215 371 L219 372 L222 375 L222 378 L221 379 L216 378 L214 376 Z M276 371 L279 370 L280 372 L277 373 Z M261 371 L264 370 L265 372 L262 373 Z M246 371 L249 370 L250 372 L247 373 Z M198 370 L199 372 L195 375 L193 372 L195 370 Z M183 370 L184 372 L180 376 L179 371 Z M331 369 L333 374 L331 376 L327 374 L325 378 L323 379 L322 375 Z M314 369 L316 370 L315 376 L311 372 Z M300 372 L301 369 L305 370 L302 373 Z M208 370 L211 369 L212 372 L210 373 Z M129 369 L131 368 L132 370 L130 371 Z M394 368 L396 367 L397 369 L395 370 Z M319 368 L323 367 L324 369 L321 371 Z M168 367 L171 367 L175 371 L173 375 L169 374 L166 371 Z M365 366 L368 369 L367 371 L363 369 Z M344 366 L345 372 L339 375 L337 373 L337 370 Z M185 367 L186 366 L191 367 L192 369 L189 371 Z M175 367 L177 366 L178 368 L176 369 Z M153 367 L156 366 L161 370 L161 372 L159 373 L158 371 L156 371 L154 373 Z M358 365 L359 371 L358 372 L354 371 L351 374 L350 371 Z M335 366 L337 365 L338 367 L336 368 Z M160 365 L164 364 L165 366 L162 368 Z M411 366 L411 368 L408 370 L402 370 L396 367 L397 364 L405 366 L406 362 L408 362 Z M370 362 L372 363 L371 368 L368 366 Z M141 363 L143 362 L149 367 L148 370 L143 369 L141 367 Z M130 363 L132 362 L136 364 L138 369 L136 370 L134 366 L130 365 Z M382 361 L385 362 L384 370 L382 370 L380 366 L379 367 L377 366 Z M186 361 L195 360 L211 362 L245 362 L246 363 L284 362 L285 365 L284 366 L273 366 L272 368 L239 368 L237 366 L193 365 L187 364 Z M336 360 L335 363 L330 364 L300 365 L299 366 L289 366 L288 365 L289 362 L316 361 L330 359 Z M170 360 L171 359 L181 359 L183 363 L182 364 L172 363 Z M119 359 L122 358 L125 362 L122 363 Z M102 368 L104 363 L108 361 L107 360 L108 358 L111 359 L108 366 L112 365 L117 366 L116 368 L113 368 L111 370 L105 370 Z M405 358 L407 357 L408 359 L406 360 Z M89 356 L90 355 L98 356 L99 358 L91 360 Z M424 355 L424 358 L421 360 L413 357 L414 355 L419 356 L420 354 Z M271 352 L273 351 L274 353 L272 354 Z M79 350 L86 349 L87 351 L86 354 L83 355 Z M427 349 L433 348 L434 351 L431 354 L429 354 Z M420 349 L424 348 L425 350 L421 351 Z M88 349 L91 348 L92 350 L89 351 Z M402 347 L401 349 L395 351 L394 353 L390 353 L378 357 L348 362 L338 361 L340 358 L362 356 L373 354 L375 352 L388 350 L399 346 Z M111 347 L113 346 L116 348 L120 348 L132 352 L137 352 L138 354 L167 358 L168 361 L167 362 L156 361 L119 353 L113 350 Z M276 344 L279 346 L278 351 L273 349 Z M251 344 L252 347 L249 348 L248 353 L246 354 L245 348 L248 344 Z M272 343 L273 345 L269 349 L268 347 Z M281 341 L284 342 L285 345 L284 348 L282 347 L280 343 Z M254 338 L259 342 L259 344 L262 344 L265 348 L264 354 L262 353 L262 350 L259 348 L260 353 L258 356 L256 355 L256 351 L254 352 L253 355 L250 353 L251 348 L256 346 L256 343 L253 345 L251 344 Z M277 337 L280 338 L279 342 L275 341 Z M231 337 L233 337 L236 340 L236 342 L238 342 L242 347 L241 354 L239 353 L239 348 L237 345 L235 345 L236 349 L233 351 L230 350 L231 345 L229 345 L227 350 L225 349 L225 343 L229 342 Z M216 338 L218 337 L219 339 L217 340 Z M82 338 L84 337 L87 341 L85 342 Z M292 336 L296 339 L295 343 L289 341 Z M444 336 L442 340 L435 345 L431 344 L432 342 L436 341 L441 335 Z M318 339 L322 335 L328 335 L332 341 L331 342 L319 342 Z M180 338 L182 335 L189 335 L193 341 L192 342 L181 342 Z M95 336 L98 335 L99 338 L97 339 Z M69 336 L70 335 L73 336 L75 340 L81 342 L83 345 L81 346 L74 343 Z M376 334 L380 336 L379 340 L374 339 L374 336 Z M134 336 L136 334 L139 335 L138 338 L135 338 Z M74 335 L76 334 L77 336 L75 337 Z M401 334 L403 333 L404 336 L402 337 Z M372 333 L373 335 L370 338 L369 336 Z M235 334 L236 333 L252 333 L253 335 L244 343 L240 341 L239 338 Z M294 333 L296 332 L298 335 L295 336 Z M275 333 L273 338 L270 339 L270 341 L267 343 L257 335 L258 333 L270 333 L271 332 Z M213 333 L215 332 L216 334 L214 335 Z M149 333 L152 332 L153 334 L150 335 Z M138 333 L140 332 L141 334 L139 335 Z M421 331 L422 333 L416 339 L413 338 L414 333 Z M390 334 L391 331 L394 332 L392 335 Z M112 331 L114 331 L115 333 L113 337 L110 337 L109 333 Z M103 332 L105 331 L106 333 L104 334 Z M405 330 L407 329 L410 333 L408 334 Z M375 329 L378 328 L379 330 L376 331 Z M292 329 L287 339 L285 339 L279 333 L280 331 L290 328 Z M217 329 L218 328 L230 331 L231 333 L225 339 L223 339 Z M135 329 L137 328 L138 330 L136 331 Z M121 327 L123 328 L122 336 L119 333 L119 329 Z M391 327 L393 326 L394 328 L392 329 Z M360 327 L362 326 L364 329 L361 330 Z M70 326 L74 330 L73 332 L68 330 Z M368 328 L369 325 L373 326 L370 329 Z M140 326 L144 325 L145 329 L143 330 Z M127 329 L129 325 L132 326 L129 330 Z M443 324 L447 328 L444 331 L441 331 L440 328 Z M384 323 L386 324 L385 329 L382 326 Z M427 322 L429 323 L428 328 L425 325 Z M192 322 L195 321 L196 323 L193 324 Z M175 322 L176 321 L191 322 L192 324 L191 325 L180 325 L176 324 Z M316 321 L317 320 L319 321 L334 320 L335 323 L334 324 L318 324 Z M440 320 L442 319 L443 321 L441 322 Z M271 320 L276 319 L277 322 L273 323 Z M234 320 L236 319 L237 321 L235 322 Z M70 320 L72 319 L74 322 L72 323 Z M419 319 L423 318 L424 321 L422 322 Z M93 318 L94 320 L87 326 L87 331 L85 332 L84 331 L85 322 L88 319 Z M182 316 L184 315 L185 317 L183 318 Z M62 315 L66 315 L68 317 L66 319 L66 321 L68 322 L67 324 L65 324 L61 319 Z M452 314 L453 315 L452 320 L448 324 L445 323 L447 321 L446 317 Z M432 314 L435 318 L435 321 L437 322 L437 327 L435 329 L435 332 L432 338 L428 341 L427 339 L432 332 L432 320 L429 318 L430 315 Z M80 314 L84 317 L84 320 L81 324 L81 331 L83 335 L82 337 L80 336 L78 329 L76 327 L76 322 L78 321 Z M257 314 L259 313 L260 315 L258 316 Z M417 311 L418 317 L415 319 L414 322 L417 328 L415 329 L412 326 L411 319 L415 312 Z M96 311 L98 312 L102 319 L102 324 L98 329 L96 328 L99 323 L97 317 L95 316 Z M128 315 L131 309 L139 308 L142 310 L145 316 L144 317 L129 317 Z M369 314 L373 307 L382 307 L385 315 L382 317 L372 317 Z M445 306 L446 308 L444 312 L438 317 L437 315 Z M432 307 L440 306 L441 308 L436 312 Z M273 307 L287 306 L300 310 L309 319 L309 322 L318 330 L318 334 L312 341 L312 343 L318 345 L332 345 L338 343 L337 339 L333 336 L333 329 L341 322 L342 319 L356 320 L358 322 L355 335 L350 340 L350 343 L357 346 L362 346 L363 348 L339 351 L335 353 L288 356 L287 354 L295 349 L300 343 L301 332 L293 315 L276 311 Z M237 307 L237 309 L234 311 L217 315 L215 317 L215 323 L210 328 L208 334 L208 339 L213 347 L223 353 L223 356 L185 354 L173 351 L156 350 L153 348 L154 346 L158 346 L163 343 L162 339 L157 335 L155 324 L156 321 L170 319 L173 326 L178 329 L178 336 L174 339 L173 343 L189 346 L199 342 L198 339 L193 336 L193 330 L201 324 L202 320 L212 310 L222 307 Z M73 309 L74 306 L81 307 L77 312 Z M68 306 L75 314 L74 316 L69 312 L67 308 Z M206 306 L208 305 L209 307 L207 308 Z M165 305 L167 306 L166 310 L164 309 Z M453 303 L454 307 L449 312 L448 308 Z M347 303 L348 304 L347 309 L345 310 L343 307 Z M302 303 L305 304 L307 309 L306 311 L303 309 L301 305 Z M87 301 L89 301 L90 304 L93 306 L92 316 L89 315 L88 307 L86 313 L83 311 Z M426 300 L430 310 L427 313 L426 307 L424 306 L424 315 L421 316 L420 306 Z M59 299 L61 299 L63 302 L63 305 L65 308 L64 310 L62 310 L59 307 L58 302 Z M437 298 L439 299 L438 303 L436 302 Z M268 298 L271 304 L269 306 L268 311 L265 313 L263 300 Z M196 297 L199 299 L200 308 L198 313 L196 312 L196 306 L194 307 L193 312 L188 310 L188 306 L192 301 L194 301 Z M175 297 L177 298 L177 301 L180 301 L184 307 L183 313 L177 312 L177 305 L173 304 Z M337 296 L339 300 L339 304 L335 305 L334 309 L330 309 L328 311 L327 308 L330 302 Z M256 296 L262 306 L262 310 L260 311 L256 304 L254 304 L252 307 L252 312 L250 313 L248 310 L249 304 L253 299 L253 297 Z M67 303 L69 296 L74 296 L76 298 L75 302 L73 301 L73 299 L71 299 L69 304 Z M438 297 L443 295 L446 302 L444 303 L442 299 L439 299 Z M315 295 L318 297 L318 299 L322 301 L325 308 L324 313 L322 312 L322 309 L314 310 L312 309 L312 301 Z M275 293 L277 292 L278 294 L276 295 Z M302 291 L304 292 L303 297 L301 296 Z M218 292 L221 291 L222 295 L219 296 Z M290 290 L293 293 L292 295 L288 294 Z M237 290 L238 292 L236 293 L236 296 L233 297 L232 292 Z M437 290 L439 289 L441 293 L439 294 Z M272 290 L275 289 L276 291 L273 292 Z M230 290 L232 289 L233 291 L231 292 Z M453 288 L454 292 L448 298 L446 292 L450 291 Z M436 288 L437 290 L435 292 L434 297 L432 298 L431 297 L432 291 Z M376 291 L377 288 L380 289 L378 292 Z M346 288 L347 294 L344 295 L344 302 L342 303 L339 291 L342 288 Z M135 289 L137 288 L138 291 L136 292 Z M130 288 L132 287 L133 289 L131 290 Z M60 288 L64 289 L65 287 L67 288 L67 294 L65 298 L60 294 L59 292 Z M206 286 L209 294 L206 295 L206 302 L203 304 L199 292 Z M166 286 L168 287 L168 289 L170 289 L173 292 L169 305 L167 304 L166 296 L164 295 Z M75 286 L81 291 L82 294 L81 298 L79 297 L77 291 L75 292 L73 291 L73 288 Z M379 286 L381 285 L383 288 L380 289 Z M267 289 L268 285 L272 286 L269 290 Z M239 286 L243 285 L245 290 L243 291 L239 288 Z M305 284 L309 286 L313 291 L309 303 L306 301 L305 298 L306 293 L303 291 Z M281 285 L283 284 L284 286 L282 287 Z M225 285 L228 284 L229 286 L226 287 Z M379 281 L380 284 L377 285 L377 287 L373 289 L372 287 L375 284 L375 282 Z M325 281 L328 281 L335 291 L334 294 L330 294 L329 299 L327 298 L327 295 L325 295 L325 297 L323 298 L322 294 L318 292 L319 288 L323 287 L323 284 Z M186 281 L194 291 L194 295 L189 300 L187 299 L187 297 L185 297 L185 301 L183 302 L180 298 L180 295 L178 295 L177 292 L180 288 L183 287 L183 284 Z M382 281 L392 280 L393 285 L386 287 Z M363 281 L367 280 L370 287 L368 288 L366 284 L363 283 Z M151 281 L150 284 L147 285 L147 287 L145 288 L144 287 L145 283 L148 280 Z M143 281 L140 288 L133 285 L134 282 L138 282 L140 280 Z M129 281 L132 280 L133 282 L130 283 Z M121 281 L122 280 L125 281 L128 286 L122 287 Z M64 277 L70 282 L71 285 L70 287 L63 279 Z M236 276 L242 275 L243 279 L238 280 Z M170 276 L172 275 L173 278 L171 279 Z M263 275 L272 274 L273 281 L271 282 L270 280 L267 280 Z M287 274 L289 273 L290 275 L288 276 Z M275 274 L280 273 L283 277 L279 278 Z M226 275 L231 273 L234 277 L231 279 L228 279 Z M294 273 L296 272 L297 274 L295 275 Z M214 272 L216 271 L217 274 L215 275 Z M458 270 L459 274 L457 279 L455 281 L453 279 L450 279 L443 287 L442 283 L444 280 L456 270 Z M55 270 L57 270 L60 273 L60 275 L57 278 L55 277 L54 274 Z M174 269 L176 270 L176 272 L179 272 L183 277 L183 280 L181 282 L177 280 L176 284 L174 283 L175 274 L172 273 Z M256 268 L260 275 L258 285 L259 287 L261 287 L262 285 L264 286 L263 293 L264 297 L263 298 L259 297 L258 291 L255 286 L255 282 L253 282 L253 290 L250 298 L248 299 L246 303 L245 309 L247 314 L245 315 L240 309 L240 299 L242 297 L244 298 L246 297 L248 293 L247 287 L248 280 L252 276 L254 269 Z M357 268 L359 267 L360 269 L358 270 Z M338 267 L341 274 L338 275 L338 283 L336 284 L335 280 L330 279 L330 274 L333 271 L336 271 L336 268 Z M314 267 L317 269 L317 271 L320 271 L324 276 L322 280 L319 280 L319 284 L317 287 L315 286 L314 275 L312 276 L310 280 L308 279 Z M198 267 L203 279 L200 280 L199 276 L197 275 L197 286 L195 287 L193 285 L193 282 L189 280 L189 276 Z M154 268 L156 267 L157 269 L155 270 Z M248 267 L250 266 L251 268 L249 269 Z M187 262 L190 266 L190 270 L188 271 L187 268 L185 268 L185 272 L183 273 L181 270 L181 266 L185 262 Z M325 261 L327 261 L330 265 L329 272 L327 271 L327 266 L325 266 L324 270 L322 269 L322 265 Z M248 262 L250 261 L251 263 L249 264 Z M266 261 L270 260 L273 262 L273 264 L269 265 Z M257 261 L260 260 L261 262 L258 263 Z M222 261 L224 260 L225 262 L223 263 Z M240 258 L244 262 L241 266 L238 266 L237 262 L239 261 Z M261 256 L264 255 L265 258 L262 259 Z M245 256 L247 255 L248 258 L246 259 Z M276 255 L278 254 L279 256 L277 257 Z M185 249 L188 250 L189 254 L193 259 L194 262 L193 265 L188 260 L187 255 L185 255 L184 259 L179 264 L177 263 L179 257 Z M326 246 L333 256 L334 260 L331 261 L328 258 L327 254 L325 254 L324 258 L319 264 L318 258 L320 257 L324 247 Z M261 246 L269 245 L270 249 L262 250 Z M246 246 L247 245 L257 245 L259 249 L253 250 L253 252 L251 253 L250 250 L246 249 Z M282 244 L283 247 L279 248 L278 251 L275 252 L273 249 L273 246 Z M225 244 L243 245 L244 249 L243 250 L234 250 L232 248 L227 249 L224 247 Z M285 236 L286 233 L289 234 L287 237 Z M221 234 L224 233 L226 237 L225 238 L222 237 Z M254 230 L256 230 L258 233 L256 238 L252 236 L252 233 Z M216 230 L220 229 L221 231 L217 232 Z M289 231 L290 228 L293 229 L291 232 Z M299 219 L300 224 L295 225 L294 223 Z M210 220 L212 219 L216 225 L215 226 L212 225 L210 223 Z M273 218 L275 217 L276 219 L274 220 Z M207 218 L209 217 L210 219 L208 220 Z M254 216 L256 216 L258 219 L256 223 L252 220 Z M276 216 L278 215 L279 217 L277 218 Z M234 214 L236 215 L235 219 L231 217 Z M304 213 L305 214 L304 218 L300 220 L299 215 Z M241 212 L243 211 L244 213 L242 214 Z M226 211 L230 210 L231 212 L227 213 Z M279 210 L281 209 L284 212 L280 213 Z M270 208 L272 207 L273 210 L271 211 Z M237 208 L239 207 L240 210 L238 211 Z M248 206 L250 205 L251 207 L249 208 Z M203 206 L207 205 L208 209 L206 210 Z M253 205 L255 204 L257 208 L254 209 Z M308 204 L307 207 L304 210 L302 210 L301 207 L305 203 Z M282 204 L284 203 L285 205 L283 206 Z M224 203 L226 202 L227 204 L225 205 Z M233 201 L235 200 L236 202 L234 203 Z M202 199 L205 198 L207 202 L204 204 Z M306 198 L308 197 L309 199 L307 200 Z M223 198 L227 197 L228 199 L224 200 Z M224 191 L226 190 L227 193 L225 194 Z M274 190 L276 189 L277 191 L275 192 Z M264 190 L266 189 L267 191 L265 192 Z M243 190 L245 189 L246 191 L244 192 Z M254 188 L258 189 L261 194 L261 197 L257 201 L251 200 L252 198 L256 198 L258 196 L256 193 L252 193 L252 197 L251 198 L249 197 L249 192 Z M129 188 L134 189 L137 192 L135 195 L135 199 L137 202 L144 202 L144 266 L141 268 L131 268 L128 266 Z M385 187 L386 266 L371 267 L370 203 L375 202 L378 198 L376 192 L380 188 Z M236 186 L237 188 L234 191 L233 188 Z M305 183 L307 184 L306 193 L301 188 L301 186 L304 185 Z M204 183 L208 186 L205 189 L206 191 L205 193 L202 190 Z M274 180 L275 182 L272 185 L271 182 Z M236 180 L239 181 L239 184 L237 186 L235 185 Z M228 181 L230 180 L231 182 L229 183 Z M279 180 L281 179 L282 181 L280 182 Z M267 178 L269 177 L270 179 L268 180 Z M261 174 L265 173 L267 177 L266 178 L262 177 Z M369 174 L371 172 L373 174 L380 174 L385 172 L386 177 L374 182 L369 179 Z M249 173 L251 172 L252 174 L250 175 Z M246 172 L248 176 L241 180 L240 178 Z M207 173 L211 172 L212 176 L208 177 Z M127 173 L128 172 L132 174 L143 173 L144 180 L140 182 L134 180 L132 182 L131 179 L127 177 Z M299 171 L303 173 L303 179 L301 182 L299 181 L298 178 Z M239 171 L241 170 L242 172 L240 173 Z M295 168 L297 167 L298 170 L296 171 Z M269 167 L271 166 L273 169 L270 170 Z M238 167 L240 166 L241 168 L239 169 Z M212 166 L214 167 L215 170 L214 172 L211 171 Z M290 156 L293 158 L292 162 L289 161 Z M220 156 L221 162 L219 165 L217 165 L216 161 L218 157 Z M254 155 L258 157 L256 162 L252 160 L252 157 Z M223 155 L225 154 L226 156 L224 157 Z M285 151 L287 152 L286 157 L283 155 Z M250 150 L252 149 L253 151 L251 152 Z M378 148 L381 153 L381 156 L380 157 L377 156 L377 158 L375 159 L374 154 L376 149 Z M135 148 L137 149 L139 154 L138 159 L136 158 L136 156 L134 157 L132 156 Z M277 145 L280 144 L281 146 L278 147 Z M229 144 L231 143 L232 146 L230 147 Z M254 142 L256 142 L258 145 L256 149 L252 148 L252 144 Z M269 136 L271 133 L274 134 L273 138 L270 138 Z M237 133 L239 134 L238 138 L236 137 Z M377 127 L380 128 L386 144 L385 154 L383 153 L383 150 L378 139 L377 139 L377 142 L373 150 L371 152 L369 151 L370 142 L374 134 L374 131 Z M254 126 L290 174 L296 191 L296 204 L291 218 L270 239 L264 238 L268 232 L268 228 L262 227 L261 224 L263 222 L269 226 L277 224 L285 214 L284 210 L289 205 L290 193 L287 192 L288 184 L284 179 L282 172 L279 172 L273 165 L271 158 L268 160 L265 168 L259 166 L265 159 L264 150 L259 149 L260 143 L257 140 L256 135 L253 135 L249 148 L246 149 L245 159 L251 166 L245 169 L239 158 L237 164 L230 173 L227 173 L227 176 L222 182 L222 192 L220 193 L221 205 L226 210 L224 214 L232 221 L232 223 L238 226 L245 223 L249 225 L242 229 L242 232 L246 237 L245 239 L239 239 L221 221 L214 204 L214 191 L220 174 L247 139 Z M134 126 L137 127 L144 146 L144 153 L143 154 L141 153 L139 146 L135 139 L131 148 L130 154 L128 155 L127 145 Z M241 126 L243 125 L244 127 L242 128 Z M264 124 L266 123 L267 125 L265 126 Z M259 119 L262 118 L263 120 L260 121 Z M252 112 L253 116 L251 120 L248 121 L247 118 L250 116 L250 113 Z M254 107 L258 110 L257 115 L252 112 Z M247 101 L249 99 L261 99 L263 102 L262 103 L256 102 L248 103 Z M253 84 L255 83 L259 87 L255 88 Z M260 53 L262 52 L263 55 L261 56 Z M254 52 L258 55 L257 58 L252 55 Z M248 51 L250 52 L249 56 L247 55 Z M250 47 L252 46 L253 48 L251 49 Z M251 42 L252 41 L258 42 L260 48 L257 50 L255 45 L252 45 Z M254 31 L257 33 L256 39 L252 37 L252 34 Z"/></svg>
