<svg xmlns="http://www.w3.org/2000/svg" width="512" height="512" viewBox="0 0 512 512" aria-hidden="true" focusable="false"><path fill="currentColor" fill-rule="evenodd" clip-rule="evenodd" d="M187 416 L188 418 L192 419 L193 421 L201 425 L213 427 L214 429 L232 431 L231 434 L211 435 L211 438 L226 438 L228 436 L241 434 L249 430 L249 427 L244 428 L243 430 L236 431 L234 427 L212 425 L211 423 L200 421 L199 419 L196 419 L189 415 Z M215 279 L216 283 L219 283 L225 287 L235 290 L241 290 L241 287 L229 285 L227 283 Z M275 221 L271 218 L267 218 L263 221 L258 219 L258 228 L259 232 L262 233 L262 236 L258 239 L254 239 L250 236 L250 234 L246 235 L245 238 L242 240 L240 251 L242 251 L242 249 L244 248 L245 251 L250 252 L252 256 L260 256 L261 253 L267 251 L268 248 L270 249 L270 251 L272 251 L270 240 L267 238 L266 234 L262 233 L261 224 L266 223 L270 225 L272 223 L275 223 Z M244 245 L247 240 L254 243 L262 242 L265 240 L267 242 L268 247 L267 248 L245 248 Z M237 221 L237 223 L240 223 L242 225 L249 223 L249 221 L246 218 L241 218 Z M262 213 L262 215 L275 215 L273 211 L265 211 Z M237 213 L237 215 L250 215 L248 211 L239 211 Z M242 204 L242 206 L250 206 L253 208 L254 207 L259 208 L261 206 L268 206 L267 200 L245 200 L245 202 Z M251 203 L261 202 L262 204 L252 205 Z M254 78 L164 164 L144 192 L131 222 L127 270 L137 313 L137 344 L127 393 L127 423 L144 462 L180 480 L240 485 L332 480 L365 465 L378 448 L385 427 L385 389 L375 341 L375 318 L385 274 L385 239 L373 201 L352 168 Z M218 472 L223 477 L222 479 L219 479 L216 477 L216 474 Z M271 471 L274 473 L275 477 L273 480 L269 480 L267 478 Z M288 470 L293 476 L291 480 L286 480 L284 478 L285 473 Z M250 471 L255 470 L258 473 L258 478 L254 479 Z M234 470 L236 471 L237 477 L235 480 L230 478 Z M204 470 L207 473 L206 478 L201 477 Z M305 469 L308 470 L311 476 L310 478 L302 477 L302 474 L304 473 Z M188 468 L191 469 L191 473 L193 474 L192 476 L184 475 Z M322 467 L326 470 L328 475 L319 477 L318 475 Z M273 465 L274 464 L284 464 L285 466 L283 468 L283 471 L279 474 Z M261 464 L268 465 L266 468 L266 472 L264 474 L261 472 L262 470 L260 466 Z M246 465 L248 464 L249 467 L247 468 Z M239 464 L244 465 L245 472 L243 474 L240 473 L240 468 L238 467 Z M172 464 L174 465 L177 471 L176 473 L169 471 L169 468 Z M340 463 L344 467 L344 469 L342 472 L336 473 L335 471 L338 467 L338 464 Z M290 464 L300 463 L301 464 L300 471 L296 473 Z M222 463 L227 463 L231 465 L229 472 L227 474 L224 472 L224 467 L221 465 Z M217 463 L218 465 L214 469 L214 472 L212 473 L210 471 L210 464 Z M310 461 L319 462 L317 465 L317 469 L314 472 L311 470 L310 466 L307 465 Z M193 462 L203 461 L204 465 L199 469 L198 472 L196 472 Z M176 458 L179 457 L180 459 L188 460 L189 462 L185 464 L183 468 L181 468 L180 463 Z M353 464 L354 456 L364 458 L361 462 L359 462 L356 465 Z M148 458 L158 456 L159 464 L156 465 L152 461 L150 461 Z M349 458 L348 464 L346 464 L343 460 L340 459 L335 460 L334 467 L332 469 L329 469 L327 464 L323 462 L324 460 L332 459 L333 457 L344 455 L345 453 L348 454 Z M163 453 L166 452 L173 456 L174 458 L169 460 L169 462 L165 464 L163 462 L164 458 Z M148 451 L148 449 L151 447 L153 442 L160 449 L159 451 L156 451 L153 453 L150 453 Z M359 441 L361 442 L361 447 L364 449 L362 453 L352 450 Z M374 440 L375 441 L374 445 L369 451 L368 447 L366 446 L366 441 Z M349 441 L351 440 L352 442 L350 443 Z M160 441 L162 440 L163 442 L161 443 Z M139 440 L146 443 L146 446 L144 447 L143 450 L139 446 L138 443 Z M361 437 L362 432 L364 431 L365 428 L373 433 L372 436 L366 436 L364 438 Z M139 433 L147 428 L150 431 L151 437 L148 438 L146 436 L141 436 Z M376 422 L379 423 L379 429 L377 431 L372 427 L372 424 Z M134 421 L141 425 L136 432 L134 431 L133 428 Z M368 410 L369 413 L373 413 L375 417 L366 423 L365 422 L366 411 Z M358 411 L360 410 L361 412 L359 413 Z M146 410 L147 420 L143 421 L139 419 L137 415 L139 413 L143 413 Z M379 403 L381 404 L380 413 L373 408 L374 405 Z M132 401 L134 402 L134 404 L140 406 L140 408 L137 409 L133 413 L131 412 L131 402 Z M158 414 L166 401 L193 396 L197 399 L185 402 L211 406 L237 418 L267 419 L279 415 L278 444 L254 446 L246 443 L262 431 L264 422 L252 436 L242 439 L242 444 L225 443 L227 447 L279 450 L284 447 L284 438 L295 438 L318 427 L315 425 L299 434 L283 434 L284 414 L300 425 L319 418 L317 415 L298 421 L289 414 L299 406 L325 402 L311 401 L315 396 L346 401 L353 410 L354 424 L347 437 L338 442 L326 442 L335 435 L333 432 L317 442 L288 443 L294 447 L349 444 L329 455 L299 459 L213 459 L183 455 L165 447 L164 443 L176 447 L218 444 L195 442 L181 434 L178 436 L184 443 L167 439 L159 428 Z M365 395 L366 394 L373 395 L375 399 L373 401 L370 401 L369 404 L367 405 Z M145 393 L147 394 L147 405 L146 406 L143 404 L143 402 L137 399 L138 396 L144 395 Z M376 383 L379 385 L379 391 L378 392 L371 391 L370 388 Z M134 384 L136 383 L142 388 L142 390 L134 392 L133 391 Z M318 385 L318 387 L314 389 L311 393 L309 393 L307 396 L305 396 L301 400 L296 402 L294 405 L288 408 L278 410 L273 413 L268 414 L254 414 L253 413 L255 410 L262 409 L272 404 L272 401 L257 401 L256 399 L259 397 L274 395 L276 393 L284 396 L290 396 L292 391 L297 387 L298 384 L304 378 L312 379 Z M362 376 L363 375 L370 376 L373 380 L365 386 L362 380 Z M294 373 L294 382 L285 391 L282 389 L270 389 L269 391 L254 393 L243 391 L241 388 L242 381 L244 380 L245 375 L268 375 L271 372 L283 372 L287 380 L287 383 L289 383 L288 373 L289 372 Z M215 381 L219 380 L226 372 L240 372 L241 373 L240 382 L238 383 L237 389 L228 389 L227 391 L223 390 Z M150 372 L151 373 L150 383 L146 386 L139 379 L143 376 L147 376 L148 373 Z M211 371 L220 373 L215 381 L211 378 L210 375 Z M135 374 L137 372 L138 366 L142 367 L145 370 L141 374 L137 375 Z M373 365 L375 366 L375 370 L377 372 L376 375 L368 371 L368 369 Z M275 367 L278 365 L277 363 L278 361 L284 361 L285 365 L290 367 L288 370 L276 370 Z M287 362 L289 359 L294 360 L292 363 Z M367 358 L369 362 L365 364 L364 374 L362 375 L359 359 Z M246 359 L247 358 L266 358 L268 360 L267 363 L260 364 L259 367 L266 367 L267 370 L261 372 L246 371 L245 370 L246 367 L253 367 L252 364 L246 363 Z M211 359 L212 358 L230 359 L231 362 L229 363 L230 368 L228 370 L225 370 L224 368 L213 368 L212 366 L214 364 L219 365 L220 362 L213 362 Z M144 359 L152 358 L154 360 L152 362 L151 369 L143 363 Z M143 348 L147 352 L147 354 L140 357 L139 352 Z M369 347 L373 350 L372 357 L364 352 Z M153 347 L155 348 L154 355 L152 354 Z M144 343 L147 342 L149 345 L145 346 Z M357 336 L360 338 L364 338 L367 341 L365 345 L361 346 L359 353 L357 352 L357 341 L356 340 Z M154 331 L156 332 L155 342 L153 342 L147 337 L149 333 L152 333 Z M368 324 L370 325 L371 335 L365 336 L362 333 L362 328 Z M142 324 L144 323 L149 325 L150 328 L143 331 Z M255 318 L253 327 L251 328 L249 340 L247 342 L245 354 L242 357 L229 357 L228 355 L232 351 L232 349 L229 349 L226 353 L221 355 L213 355 L211 353 L210 350 L211 348 L219 346 L226 341 L228 341 L253 317 Z M357 312 L359 311 L363 315 L366 315 L368 319 L361 321 L359 324 L356 323 Z M153 310 L155 311 L156 320 L155 324 L153 324 L151 321 L148 321 L146 319 L146 316 L151 315 Z M367 306 L372 307 L370 312 L365 310 Z M141 307 L145 306 L147 310 L142 312 Z M139 305 L141 304 L142 306 L140 307 Z M361 294 L363 293 L369 297 L369 301 L361 304 L360 303 Z M149 291 L151 292 L152 297 L151 304 L143 301 L143 297 L147 296 Z M324 289 L327 290 L328 298 L330 300 L332 318 L331 334 L335 335 L337 354 L339 356 L339 374 L333 392 L331 392 L316 376 L311 374 L298 374 L303 367 L312 364 L321 367 L331 375 L330 370 L322 363 L303 362 L305 359 L316 354 L322 354 L328 357 L330 354 L325 351 L313 351 L302 357 L300 356 L301 352 L317 335 L322 325 L323 317 L321 317 L313 335 L307 341 L306 337 L309 333 Z M137 294 L138 289 L144 290 L140 295 Z M376 287 L377 289 L375 290 L375 295 L373 296 L369 292 L369 290 Z M147 286 L149 285 L150 287 L148 288 Z M265 283 L266 286 L264 288 L262 298 L260 300 L261 302 L259 303 L259 305 L226 338 L224 338 L222 341 L214 345 L211 345 L210 342 L215 338 L219 337 L219 335 L217 334 L211 337 L210 333 L213 330 L220 328 L222 325 L224 325 L231 319 L233 319 L248 305 L245 304 L242 308 L240 308 L226 320 L214 326 L213 328 L210 327 L212 318 L233 306 L239 300 L245 298 L252 291 L254 291 Z M364 280 L367 279 L369 282 L372 282 L373 284 L365 285 Z M139 280 L144 279 L146 277 L148 279 L148 285 L147 286 L142 285 L139 282 Z M365 276 L367 275 L368 278 L366 279 Z M376 274 L379 275 L377 282 L373 278 Z M133 272 L134 271 L140 272 L141 274 L135 278 L133 275 Z M270 265 L271 266 L270 273 L266 275 L265 269 Z M243 265 L247 269 L248 282 L253 269 L262 270 L262 280 L214 312 L206 310 L206 327 L199 365 L189 366 L199 370 L220 396 L234 393 L249 396 L249 400 L240 400 L240 402 L255 406 L228 409 L196 392 L181 378 L182 335 L186 301 L191 286 L201 278 L233 266 L236 267 L233 274 L235 277 Z M368 262 L369 265 L374 266 L375 269 L366 275 L365 274 L366 263 Z M282 261 L320 274 L323 277 L294 355 L272 358 L264 354 L250 354 L251 343 L276 266 Z M144 261 L146 262 L147 267 L146 272 L144 272 L143 269 L140 269 L137 267 L138 265 L142 265 Z M379 256 L381 257 L380 266 L373 261 L376 257 Z M131 256 L133 255 L135 257 L138 257 L139 260 L132 264 Z M373 248 L375 252 L367 258 L366 248 L367 247 Z M146 244 L147 251 L146 256 L144 257 L140 253 L137 252 L137 249 L143 248 L144 245 Z M365 241 L367 240 L368 242 L366 243 Z M377 237 L379 238 L379 242 L381 244 L380 248 L372 243 L372 241 Z M133 238 L135 237 L140 241 L140 243 L134 245 Z M285 237 L287 236 L288 239 L286 240 Z M224 236 L226 235 L227 238 L225 239 Z M141 230 L150 231 L148 234 L147 240 L145 240 L143 236 L139 234 Z M362 229 L364 228 L365 230 L371 230 L374 234 L366 240 L364 238 L364 233 Z M148 228 L150 227 L151 229 L149 230 Z M290 222 L293 223 L291 230 L289 229 Z M137 221 L141 219 L146 225 L138 227 Z M372 218 L375 220 L375 224 L377 226 L376 228 L368 225 L368 222 Z M221 218 L225 220 L224 226 L222 228 L220 227 L219 220 Z M356 213 L357 212 L366 213 L368 217 L364 219 L363 222 L361 222 L358 219 Z M155 212 L156 214 L153 219 L154 220 L153 222 L149 222 L148 219 L144 217 L146 213 Z M362 202 L367 201 L370 209 L369 210 L361 209 L360 206 Z M147 200 L150 202 L152 206 L151 209 L143 208 L144 203 Z M349 197 L358 196 L360 198 L357 201 L355 209 L352 207 L351 203 L348 200 Z M156 194 L158 194 L159 196 L165 197 L165 199 L160 205 L158 210 L156 209 L156 202 L154 200 L154 196 Z M167 193 L168 195 L165 197 L164 195 Z M168 189 L170 188 L171 190 L169 191 Z M340 188 L341 187 L344 188 L345 191 L343 192 Z M158 182 L160 183 L160 186 L163 189 L162 192 L160 190 L153 189 Z M335 182 L339 181 L340 185 L338 186 Z M353 180 L356 182 L356 184 L361 190 L360 192 L358 192 L357 190 L353 191 L351 190 Z M247 180 L269 181 L281 191 L285 202 L284 231 L279 248 L273 258 L261 265 L251 265 L236 254 L228 230 L229 194 L237 185 Z M344 179 L348 181 L347 185 L345 185 L342 182 Z M164 181 L166 179 L171 179 L173 181 L176 181 L177 183 L174 186 L172 185 L172 183 L169 183 L166 186 L164 184 Z M178 178 L180 177 L181 179 L179 180 Z M324 172 L326 171 L334 177 L334 179 L332 180 Z M181 176 L182 171 L188 172 L184 177 Z M338 175 L338 173 L343 168 L348 172 L347 175 L341 176 Z M318 168 L321 167 L323 170 L320 171 Z M189 170 L192 167 L194 168 L192 171 Z M164 173 L171 166 L172 169 L176 173 L175 176 L165 175 Z M332 164 L335 167 L334 171 L331 170 Z M179 164 L182 165 L181 172 L178 170 Z M339 164 L341 163 L343 167 L341 168 Z M336 161 L338 160 L339 162 L337 163 Z M322 161 L325 159 L328 159 L332 162 L332 164 L328 166 L325 165 Z M181 161 L184 159 L187 159 L190 161 L190 163 L188 166 L182 164 Z M215 156 L214 158 L209 160 L207 159 L208 156 L212 155 Z M304 159 L307 158 L311 160 L312 155 L316 154 L317 159 L315 162 L318 166 L315 167 L312 164 L306 162 Z M207 159 L206 162 L202 163 L196 168 L193 167 L197 162 L198 154 L202 156 L202 159 L205 158 Z M294 154 L298 153 L304 156 L305 158 L304 159 L298 158 Z M195 173 L229 156 L274 154 L317 173 L343 199 L361 242 L361 276 L352 315 L360 410 L340 392 L344 355 L328 274 L282 256 L284 246 L291 244 L296 232 L297 217 L289 212 L287 189 L266 175 L240 177 L224 193 L223 212 L215 217 L215 227 L234 260 L196 275 L185 286 L174 376 L185 390 L163 397 L151 409 L160 350 L160 314 L151 275 L152 239 L165 206 Z M215 154 L218 153 L219 155 L216 156 Z M303 151 L307 146 L312 146 L315 148 L314 150 L307 152 Z M198 148 L200 146 L206 146 L210 151 L206 152 L199 150 Z M293 154 L291 155 L286 152 L272 150 L271 148 L286 145 L288 150 L290 150 Z M219 154 L221 151 L225 149 L226 145 L241 148 L240 150 L226 152 L221 155 Z M318 143 L320 142 L331 154 L322 155 L319 150 Z M291 143 L295 142 L296 145 L298 145 L299 147 L294 149 Z M220 142 L221 147 L215 148 L214 146 Z M285 138 L283 141 L279 143 L277 142 L282 137 Z M228 137 L230 136 L233 139 L235 139 L236 142 L235 143 L231 142 Z M293 134 L297 134 L301 138 L302 142 L300 146 L298 145 L298 139 L292 136 Z M220 134 L222 137 L217 138 L215 140 L215 145 L213 146 L211 144 L212 137 L216 134 Z M233 126 L238 121 L244 121 L250 123 L253 129 L253 134 L250 140 L246 142 L247 145 L250 145 L255 139 L257 139 L262 145 L266 144 L266 142 L262 139 L259 134 L259 129 L263 122 L268 121 L276 122 L279 125 L279 133 L277 135 L271 135 L268 131 L276 130 L276 128 L272 124 L267 125 L264 128 L264 135 L270 141 L275 142 L275 144 L272 145 L271 148 L261 149 L258 147 L252 147 L248 149 L242 149 L241 145 L238 142 L242 141 L248 136 L248 128 L245 125 L239 125 L237 127 L237 130 L243 130 L244 133 L242 135 L236 135 L233 132 Z M266 111 L267 116 L262 120 L259 113 Z M257 100 L261 110 L255 111 L253 115 L253 120 L249 121 L245 113 L247 111 L251 112 L252 106 L254 102 Z M318 140 L317 143 L307 142 L305 134 L299 130 L294 130 L292 124 L289 121 L287 121 L287 128 L289 132 L287 136 L284 137 L283 123 L277 117 L271 116 L270 107 L263 103 L258 94 L258 91 L254 92 L249 103 L242 107 L240 117 L234 118 L228 126 L226 126 L225 121 L223 121 L218 130 L213 130 L208 135 L206 142 L197 142 L193 146 L190 155 L181 155 L181 153 L196 138 L198 138 L209 126 L211 126 L235 103 L237 103 L255 85 L260 87 L270 98 L272 98 Z M245 19 L231 28 L221 46 L221 60 L232 84 L160 151 L144 171 L122 214 L116 262 L126 336 L116 399 L118 435 L134 468 L171 489 L212 495 L323 493 L353 485 L373 473 L387 455 L394 436 L396 393 L386 331 L396 266 L394 227 L385 200 L365 167 L299 101 L305 95 L305 86 L287 73 L292 54 L287 35 L271 20 Z M255 68 L354 162 L381 205 L390 235 L390 276 L381 324 L391 394 L386 443 L378 459 L359 476 L313 489 L214 490 L167 482 L135 460 L122 428 L122 388 L131 317 L121 249 L130 208 L161 159 Z M253 55 L257 53 L282 77 L285 78 L287 81 L295 84 L297 87 L299 87 L300 91 L296 94 L284 86 L282 86 L259 61 L255 61 L253 59 Z M242 48 L250 40 L260 39 L267 43 L271 51 L271 56 L269 57 L262 49 L254 48 L247 55 L247 60 L249 62 L249 64 L247 65 L242 59 Z M273 28 L279 34 L284 42 L285 60 L283 66 L279 67 L275 63 L276 49 L274 43 L267 36 L261 33 L252 33 L250 35 L245 36 L240 41 L237 47 L236 52 L237 61 L244 69 L244 72 L241 74 L240 77 L238 77 L232 71 L227 60 L227 47 L233 34 L239 28 L252 23 L265 24 L266 26 Z"/></svg>
