<svg xmlns="http://www.w3.org/2000/svg" viewBox="0 0 512 512" >
  <path d="M 252 65 L 227 77 L 215 98 L 215 118 L 229 140 L 226 153 L 192 155 L 181 163 L 177 200 L 110 250 L 101 268 L 100 283 L 115 314 L 114 338 L 123 363 L 135 377 L 156 389 L 166 409 L 185 422 L 206 424 L 234 443 L 261 447 L 281 442 L 307 424 L 336 418 L 349 406 L 361 385 L 384 371 L 397 346 L 398 313 L 410 295 L 413 274 L 401 248 L 336 201 L 335 170 L 326 157 L 286 153 L 284 140 L 298 117 L 296 92 L 278 71 Z M 288 179 L 392 255 L 397 261 L 402 274 L 402 283 L 397 296 L 388 308 L 387 330 L 384 328 L 287 182 Z M 225 179 L 226 181 L 128 329 L 126 330 L 125 309 L 122 303 L 115 295 L 111 284 L 111 273 L 115 262 L 122 254 Z M 243 174 L 244 179 L 217 302 L 196 412 L 193 413 L 183 409 L 172 399 L 165 383 L 160 377 L 144 370 L 135 361 L 130 353 L 129 345 L 189 252 Z M 269 173 L 315 239 L 384 346 L 384 350 L 377 362 L 367 371 L 353 377 L 339 401 L 328 410 L 320 413 L 317 412 L 296 303 L 268 177 Z M 256 170 L 258 171 L 307 407 L 306 414 L 300 415 L 286 427 L 266 435 L 239 433 L 224 425 L 213 415 L 205 413 L 244 218 Z M 288 166 L 289 165 L 312 165 L 313 166 L 319 166 L 323 169 L 325 175 L 325 181 L 324 182 L 325 183 L 325 191 L 322 193 L 295 172 L 291 170 Z M 225 166 L 224 168 L 200 185 L 190 193 L 188 192 L 188 174 L 190 169 L 192 167 L 199 165 L 224 165 Z M 238 147 L 242 138 L 249 131 L 257 129 L 265 132 L 270 137 L 275 148 L 275 153 L 274 154 L 239 154 L 238 153 Z M 258 100 L 262 102 L 265 106 L 265 112 L 264 114 L 259 118 L 253 118 L 248 113 L 247 110 L 249 104 L 252 101 Z M 231 89 L 237 83 L 243 79 L 249 77 L 258 76 L 259 77 L 264 77 L 273 81 L 277 84 L 283 91 L 287 100 L 287 105 L 288 106 L 287 116 L 282 126 L 279 129 L 277 129 L 272 124 L 272 121 L 274 119 L 276 113 L 276 106 L 273 98 L 268 93 L 263 90 L 254 89 L 246 92 L 240 98 L 237 104 L 237 114 L 241 123 L 234 129 L 229 123 L 225 112 L 226 99 Z" fill="currentColor" fill-rule="evenodd"/>
</svg>
