<svg xmlns="http://www.w3.org/2000/svg" viewBox="0 0 512 512" >
  <path d="M 195 66 L 166 119 L 171 142 L 192 158 L 150 172 L 150 350 L 131 361 L 138 383 L 157 400 L 144 436 L 173 446 L 239 441 L 243 428 L 230 400 L 257 363 L 266 386 L 282 400 L 269 428 L 273 441 L 362 442 L 369 430 L 356 400 L 381 365 L 363 350 L 363 174 L 350 163 L 320 158 L 341 143 L 344 110 L 314 66 L 286 116 L 291 143 L 312 158 L 282 163 L 269 175 L 269 350 L 255 361 L 243 350 L 243 173 L 233 164 L 200 158 L 220 145 L 227 120 Z M 277 430 L 290 404 L 298 405 L 303 407 L 313 407 L 314 408 L 334 407 L 335 406 L 347 404 L 349 406 L 349 408 L 360 429 L 360 433 L 358 435 L 348 436 L 347 437 L 340 437 L 339 438 L 297 438 L 296 437 L 290 437 L 289 436 L 280 435 L 277 433 Z M 152 429 L 158 419 L 158 417 L 163 408 L 163 406 L 165 404 L 177 406 L 178 407 L 188 407 L 189 408 L 209 407 L 214 405 L 222 404 L 227 413 L 229 419 L 235 429 L 235 433 L 232 435 L 223 436 L 222 437 L 216 437 L 215 438 L 173 438 L 172 437 L 165 437 L 164 436 L 155 435 L 152 433 Z M 268 373 L 270 372 L 271 373 L 280 374 L 286 376 L 303 377 L 304 378 L 332 378 L 333 377 L 342 377 L 343 376 L 356 375 L 366 372 L 369 372 L 370 374 L 366 381 L 357 390 L 348 395 L 334 399 L 311 400 L 310 399 L 303 399 L 302 398 L 295 397 L 282 391 L 272 381 Z M 142 373 L 143 372 L 146 372 L 156 375 L 169 376 L 170 377 L 179 377 L 180 378 L 208 378 L 209 377 L 226 376 L 227 375 L 231 375 L 232 374 L 236 374 L 243 372 L 244 374 L 241 380 L 230 391 L 220 396 L 210 398 L 209 399 L 203 399 L 202 400 L 186 400 L 185 399 L 178 399 L 177 398 L 170 397 L 164 395 L 155 390 L 146 381 Z M 266 361 L 269 360 L 270 363 L 268 364 Z M 242 363 L 243 360 L 246 361 L 244 364 Z M 362 364 L 362 360 L 363 359 L 367 359 L 371 361 L 369 364 L 366 364 L 365 365 Z M 140 361 L 144 359 L 149 359 L 151 364 L 150 365 L 143 364 L 141 363 Z M 277 342 L 279 341 L 288 344 L 300 345 L 301 346 L 329 346 L 330 345 L 337 345 L 338 344 L 343 344 L 344 343 L 348 343 L 354 341 L 355 342 L 355 363 L 352 366 L 347 368 L 334 369 L 333 370 L 302 370 L 301 369 L 294 369 L 293 368 L 283 367 L 280 366 L 277 363 Z M 235 342 L 235 363 L 232 366 L 229 367 L 219 368 L 218 369 L 210 369 L 209 370 L 178 370 L 177 369 L 165 368 L 160 366 L 158 364 L 158 343 L 159 342 L 163 342 L 164 343 L 173 344 L 174 345 L 181 345 L 182 346 L 210 346 L 211 345 L 217 345 L 218 344 L 228 343 L 233 341 Z M 277 321 L 278 320 L 281 320 L 282 321 L 292 322 L 293 323 L 299 323 L 300 324 L 332 324 L 333 323 L 344 322 L 349 320 L 354 320 L 355 321 L 355 333 L 347 336 L 342 336 L 336 338 L 327 338 L 326 339 L 304 339 L 303 338 L 295 338 L 294 337 L 289 337 L 288 336 L 284 336 L 278 334 L 277 333 Z M 158 321 L 159 320 L 162 320 L 167 322 L 172 322 L 179 324 L 212 324 L 213 323 L 218 323 L 219 322 L 225 322 L 230 320 L 234 320 L 235 321 L 235 333 L 227 336 L 223 336 L 217 338 L 208 338 L 207 339 L 175 338 L 174 337 L 170 337 L 169 336 L 165 336 L 159 334 L 158 333 Z M 278 186 L 288 189 L 310 192 L 332 191 L 351 186 L 355 187 L 354 312 L 328 317 L 301 317 L 284 314 L 277 311 Z M 159 186 L 180 191 L 196 192 L 213 191 L 232 186 L 235 187 L 234 312 L 208 317 L 184 317 L 164 314 L 158 311 Z M 278 174 L 283 171 L 290 169 L 302 168 L 303 167 L 311 167 L 312 168 L 312 174 L 313 176 L 317 177 L 319 176 L 320 174 L 320 168 L 321 167 L 329 167 L 330 168 L 337 168 L 338 169 L 349 171 L 353 173 L 354 176 L 350 179 L 340 181 L 339 182 L 322 183 L 321 184 L 313 184 L 312 183 L 308 184 L 307 183 L 300 183 L 299 182 L 289 181 L 279 177 Z M 159 174 L 161 172 L 170 169 L 183 168 L 184 167 L 192 167 L 193 168 L 193 175 L 195 177 L 198 177 L 200 175 L 200 168 L 201 167 L 209 167 L 210 168 L 222 169 L 232 172 L 234 174 L 234 176 L 230 179 L 224 181 L 220 181 L 219 182 L 206 183 L 205 184 L 203 183 L 200 184 L 190 184 L 189 183 L 180 183 L 179 182 L 166 180 L 161 178 L 159 176 Z M 315 125 L 318 126 L 322 132 L 324 138 L 322 145 L 318 148 L 312 147 L 309 143 L 309 134 Z M 196 125 L 197 125 L 202 131 L 204 136 L 204 142 L 199 148 L 194 148 L 192 147 L 189 142 L 190 133 Z M 315 83 L 317 83 L 319 85 L 320 88 L 333 106 L 337 114 L 337 117 L 338 118 L 338 130 L 336 136 L 331 142 L 329 141 L 329 133 L 326 127 L 322 122 L 319 115 L 316 113 L 313 115 L 303 133 L 303 141 L 302 142 L 298 139 L 294 130 L 294 118 L 296 112 Z M 196 82 L 198 83 L 212 104 L 218 116 L 218 120 L 219 121 L 218 131 L 215 138 L 211 143 L 209 142 L 210 139 L 209 132 L 199 115 L 196 113 L 193 116 L 191 121 L 188 124 L 184 131 L 184 134 L 183 135 L 184 142 L 182 143 L 177 137 L 174 128 L 174 119 L 179 107 Z" fill="currentColor" fill-rule="evenodd"/>
</svg>
