<svg xmlns="http://www.w3.org/2000/svg" viewBox="0 0 512 512" >
  <path d="M 394 179 L 394 188 L 395 189 L 395 198 L 396 199 L 396 208 L 397 209 L 398 222 L 399 223 L 402 240 L 406 251 L 413 263 L 419 270 L 424 274 L 432 278 L 437 278 L 439 276 L 439 274 L 437 272 L 433 271 L 426 267 L 419 260 L 412 248 L 405 226 L 405 222 L 404 221 L 402 208 L 400 203 L 400 198 L 398 193 L 397 184 L 395 179 Z M 361 74 L 325 66 L 297 84 L 198 243 L 117 251 L 68 276 L 77 348 L 134 404 L 136 433 L 198 447 L 265 435 L 277 421 L 271 403 L 325 346 L 335 281 L 359 293 L 336 264 L 326 202 L 331 272 L 314 249 L 321 127 L 334 142 L 346 258 L 384 298 L 351 252 L 340 141 L 313 120 L 323 111 L 351 135 L 369 262 L 406 295 L 371 247 L 350 117 L 334 104 L 305 114 L 319 95 L 341 93 L 360 111 L 389 253 L 424 287 L 392 241 L 363 103 L 327 85 L 294 108 L 315 77 L 348 75 L 377 100 L 419 239 L 449 259 L 425 236 L 399 129 Z M 135 420 L 140 409 L 142 407 L 167 414 L 173 414 L 180 416 L 197 416 L 198 417 L 230 415 L 263 407 L 268 415 L 269 423 L 266 426 L 257 431 L 237 437 L 225 438 L 224 439 L 211 439 L 210 440 L 194 440 L 193 439 L 173 438 L 155 434 L 140 427 L 135 422 Z M 73 305 L 76 304 L 93 315 L 113 322 L 177 332 L 225 332 L 262 328 L 302 318 L 326 304 L 328 307 L 319 342 L 305 367 L 291 382 L 277 392 L 245 405 L 224 409 L 192 410 L 172 408 L 142 400 L 112 383 L 98 369 L 88 354 L 78 330 Z M 221 310 L 221 308 L 242 266 L 244 264 L 253 264 L 254 265 L 267 266 L 268 267 L 273 267 L 278 269 L 286 270 L 301 275 L 310 280 L 314 284 L 314 288 L 308 294 L 300 298 L 285 303 L 273 305 L 272 306 L 262 307 L 261 308 L 245 309 L 244 310 L 235 310 L 234 311 L 222 311 Z M 184 264 L 179 273 L 174 279 L 173 282 L 162 297 L 157 306 L 154 309 L 141 308 L 140 307 L 130 306 L 129 305 L 125 305 L 113 301 L 110 301 L 94 294 L 88 289 L 88 284 L 92 280 L 102 275 L 114 271 L 131 268 L 132 267 L 137 267 L 138 266 L 152 265 L 153 264 L 175 263 L 176 262 L 180 262 Z M 72 285 L 82 272 L 106 261 L 151 252 L 191 250 L 189 256 L 140 260 L 99 270 L 89 275 L 81 288 L 88 297 L 109 307 L 181 318 L 222 318 L 273 312 L 301 304 L 320 290 L 320 283 L 312 274 L 286 264 L 248 258 L 250 252 L 306 264 L 326 278 L 329 288 L 317 303 L 286 316 L 242 324 L 194 326 L 145 322 L 101 311 L 82 301 Z M 250 232 L 250 235 L 245 244 L 245 246 L 243 248 L 243 250 L 236 262 L 236 264 L 232 270 L 232 272 L 230 274 L 230 276 L 222 292 L 220 294 L 220 296 L 215 304 L 215 306 L 211 311 L 209 312 L 190 312 L 189 311 L 168 311 L 164 309 L 164 307 L 204 247 L 207 244 L 208 241 L 211 238 L 221 222 L 225 218 L 229 218 L 238 222 L 244 226 Z M 225 201 L 228 199 L 235 199 L 254 209 L 263 217 L 264 219 L 264 224 L 263 226 L 259 230 L 257 230 L 250 222 L 239 215 L 230 211 L 224 211 L 223 210 L 223 205 Z M 314 150 L 315 151 L 315 165 L 314 166 L 313 180 L 311 186 L 309 204 L 308 205 L 308 213 L 307 214 L 307 248 L 309 256 L 305 257 L 299 254 L 296 254 L 284 250 L 263 247 L 262 246 L 256 246 L 254 244 L 255 240 L 257 238 L 263 236 L 268 231 L 270 227 L 271 218 L 269 213 L 276 203 L 278 198 L 282 193 L 284 188 L 294 173 L 305 153 Z M 281 132 L 292 137 L 299 143 L 300 148 L 284 174 L 282 179 L 269 199 L 265 207 L 263 208 L 257 203 L 240 194 L 239 192 L 274 135 L 277 132 Z M 276 118 L 280 114 L 285 113 L 286 114 L 290 114 L 302 120 L 313 130 L 314 132 L 314 139 L 308 144 L 303 137 L 290 128 L 288 128 L 282 125 L 276 125 L 275 124 Z" fill="currentColor" fill-rule="evenodd"/>
</svg>
