<svg xmlns="http://www.w3.org/2000/svg" viewBox="0 0 512 512" >
  <path d="M 250 255 L 244 259 L 240 266 L 240 275 L 242 279 L 247 284 L 251 286 L 261 286 L 265 284 L 270 279 L 272 274 L 272 266 L 270 262 L 264 256 L 259 254 Z M 252 259 L 260 259 L 262 260 L 267 265 L 268 268 L 268 273 L 266 277 L 259 282 L 250 281 L 246 277 L 244 273 L 245 265 Z M 251 242 L 241 246 L 233 253 L 228 263 L 227 272 L 228 273 L 228 278 L 230 281 L 230 283 L 237 292 L 241 295 L 248 298 L 259 299 L 269 296 L 276 291 L 280 286 L 284 277 L 284 263 L 278 252 L 271 246 L 261 242 Z M 253 246 L 259 246 L 266 248 L 269 250 L 277 258 L 280 265 L 280 275 L 278 281 L 269 291 L 262 294 L 250 294 L 243 291 L 235 283 L 232 276 L 232 265 L 237 255 L 244 249 Z M 254 137 L 246 145 L 254 166 L 239 167 L 254 176 L 237 179 L 253 182 L 254 191 L 244 201 L 197 201 L 189 192 L 180 193 L 174 203 L 183 214 L 183 259 L 166 268 L 162 251 L 161 267 L 156 268 L 152 252 L 150 268 L 129 261 L 123 274 L 135 280 L 150 272 L 153 289 L 155 273 L 160 272 L 165 289 L 165 273 L 174 272 L 184 291 L 177 346 L 186 350 L 197 340 L 244 340 L 254 359 L 238 363 L 253 364 L 254 369 L 239 374 L 254 375 L 246 395 L 259 403 L 266 392 L 258 375 L 274 372 L 258 365 L 275 362 L 259 360 L 258 350 L 268 340 L 315 340 L 322 349 L 331 349 L 337 335 L 328 327 L 328 282 L 345 272 L 350 289 L 351 273 L 356 272 L 359 289 L 362 272 L 382 280 L 389 267 L 376 261 L 362 268 L 360 252 L 356 268 L 351 267 L 350 251 L 345 268 L 329 260 L 328 215 L 337 207 L 336 197 L 324 192 L 315 201 L 268 201 L 258 183 L 275 179 L 259 177 L 258 172 L 273 167 L 258 166 L 266 145 Z M 252 389 L 258 388 L 262 393 L 261 396 L 257 399 L 253 398 L 250 394 L 250 392 Z M 324 332 L 329 332 L 333 336 L 333 341 L 329 345 L 324 345 L 322 344 L 320 341 L 320 336 Z M 253 332 L 259 332 L 263 337 L 263 340 L 259 345 L 253 345 L 249 340 L 249 337 Z M 183 332 L 188 332 L 192 336 L 192 341 L 188 345 L 183 345 L 179 341 L 179 336 Z M 188 282 L 192 279 L 195 279 L 247 330 L 246 334 L 244 336 L 197 336 L 194 331 L 188 327 Z M 322 280 L 324 282 L 324 327 L 319 330 L 315 336 L 268 336 L 266 334 L 265 330 L 318 278 Z M 377 265 L 382 265 L 385 268 L 385 272 L 384 274 L 381 276 L 376 275 L 374 272 L 374 268 Z M 130 265 L 134 265 L 136 266 L 138 269 L 138 272 L 134 276 L 131 276 L 127 273 L 127 268 Z M 323 264 L 330 264 L 333 268 L 333 273 L 331 276 L 329 277 L 324 277 L 321 275 L 320 273 L 320 268 Z M 183 264 L 188 264 L 190 265 L 192 268 L 192 273 L 188 277 L 183 277 L 181 276 L 179 273 L 179 268 L 180 266 Z M 251 213 L 254 214 L 261 213 L 316 266 L 315 269 L 316 274 L 261 328 L 257 327 L 251 328 L 196 274 L 197 271 L 196 266 Z M 266 207 L 268 205 L 315 205 L 317 209 L 324 214 L 324 259 L 318 262 L 311 256 L 265 211 Z M 244 205 L 246 207 L 247 211 L 194 262 L 188 259 L 188 214 L 192 212 L 197 205 Z M 325 196 L 328 196 L 333 200 L 333 206 L 328 210 L 323 209 L 320 205 L 321 199 Z M 254 196 L 260 197 L 263 202 L 262 206 L 257 210 L 251 208 L 249 205 L 250 199 Z M 184 196 L 187 196 L 192 200 L 192 205 L 191 207 L 186 210 L 182 209 L 179 206 L 179 200 Z M 250 146 L 253 142 L 259 142 L 261 144 L 261 149 L 258 152 L 253 152 L 251 150 Z M 67 94 L 68 110 L 95 124 L 81 161 L 81 187 L 99 190 L 105 140 L 105 423 L 407 422 L 409 140 L 413 190 L 431 187 L 430 158 L 417 124 L 444 110 L 442 91 L 427 91 L 396 116 L 311 120 L 115 116 L 85 91 Z M 415 135 L 417 136 L 422 147 L 424 157 L 425 158 L 426 167 L 427 168 L 427 179 L 428 182 L 421 185 L 418 185 L 417 184 L 416 152 L 415 151 L 415 142 L 414 141 L 414 136 Z M 97 135 L 98 136 L 98 139 L 97 140 L 96 162 L 95 163 L 95 184 L 94 185 L 91 185 L 84 182 L 85 167 L 86 166 L 86 161 L 91 144 L 94 137 Z M 113 121 L 190 125 L 400 122 L 403 127 L 401 418 L 282 415 L 109 418 L 112 288 L 109 126 Z M 407 113 L 412 113 L 415 117 L 414 120 L 411 123 L 407 123 L 404 120 L 404 117 Z M 97 116 L 100 113 L 104 113 L 108 117 L 108 120 L 105 123 L 101 123 L 98 120 Z M 442 100 L 441 105 L 437 110 L 431 113 L 427 113 L 426 114 L 420 114 L 417 111 L 418 107 L 427 97 L 431 95 L 438 95 Z M 70 100 L 74 95 L 81 95 L 85 97 L 92 104 L 95 109 L 95 111 L 92 114 L 86 114 L 79 112 L 72 107 Z" fill="currentColor" fill-rule="evenodd"/>
</svg>
