<svg xmlns="http://www.w3.org/2000/svg" viewBox="0 0 512 512" >
  <path d="M 238 263 L 238 295 L 240 297 L 272 297 L 274 295 L 274 263 L 272 261 L 241 261 Z M 245 269 L 246 268 L 266 268 L 267 269 L 267 290 L 266 291 L 246 291 L 245 290 Z M 244 241 L 234 246 L 229 250 L 222 259 L 219 265 L 218 272 L 217 273 L 217 285 L 218 286 L 218 289 L 224 302 L 236 313 L 249 318 L 262 318 L 263 317 L 267 317 L 276 313 L 283 308 L 290 299 L 295 286 L 295 272 L 294 271 L 294 267 L 286 253 L 275 244 L 264 240 L 248 240 L 247 241 Z M 249 243 L 263 243 L 274 247 L 285 257 L 290 266 L 292 273 L 292 285 L 290 292 L 285 301 L 275 310 L 262 315 L 251 315 L 250 314 L 243 313 L 237 310 L 228 302 L 224 296 L 220 284 L 221 269 L 227 257 L 237 248 Z M 276 86 L 274 89 L 274 97 L 277 103 L 281 104 L 283 101 L 283 93 L 281 89 L 278 86 Z M 236 86 L 232 88 L 229 94 L 229 100 L 232 104 L 234 104 L 237 101 L 239 96 L 239 89 Z M 262 57 L 243 60 L 221 84 L 216 102 L 221 128 L 217 147 L 187 161 L 168 137 L 145 132 L 143 141 L 125 145 L 128 154 L 115 163 L 134 192 L 149 203 L 134 256 L 134 292 L 142 329 L 125 343 L 117 360 L 127 392 L 136 389 L 145 402 L 180 380 L 206 398 L 237 410 L 241 446 L 246 450 L 261 441 L 277 409 L 308 397 L 330 381 L 368 402 L 375 389 L 387 389 L 388 375 L 395 371 L 388 345 L 369 329 L 377 291 L 377 254 L 364 203 L 380 190 L 397 161 L 385 154 L 387 144 L 370 141 L 368 132 L 342 139 L 326 161 L 296 147 L 292 139 L 294 90 L 285 74 Z M 267 412 L 268 414 L 265 423 L 261 430 L 251 441 L 249 441 L 248 440 L 248 425 L 247 424 L 247 419 L 245 413 L 246 412 Z M 202 384 L 206 376 L 209 374 L 219 380 L 221 380 L 230 385 L 241 389 L 250 390 L 251 391 L 261 391 L 262 390 L 267 390 L 280 386 L 300 376 L 302 374 L 304 374 L 310 384 L 310 387 L 305 391 L 293 397 L 273 404 L 264 405 L 263 406 L 249 406 L 248 405 L 243 405 L 236 402 L 233 402 L 230 400 L 215 395 L 204 389 L 202 387 Z M 222 372 L 234 346 L 278 346 L 282 353 L 282 355 L 285 360 L 285 362 L 290 373 L 280 379 L 269 383 L 266 383 L 265 384 L 248 384 L 230 378 L 224 375 Z M 369 336 L 376 341 L 384 351 L 388 361 L 388 365 L 387 366 L 382 366 L 381 365 L 377 365 L 376 366 L 376 370 L 377 370 L 382 376 L 382 382 L 379 383 L 368 377 L 366 379 L 366 382 L 368 385 L 368 391 L 365 392 L 355 386 L 351 386 L 346 384 L 338 377 L 338 375 L 346 367 L 357 353 L 366 336 Z M 143 336 L 145 336 L 147 338 L 149 344 L 162 363 L 174 375 L 167 383 L 161 386 L 154 387 L 146 393 L 144 392 L 144 384 L 146 381 L 145 378 L 142 377 L 139 380 L 133 383 L 130 383 L 129 382 L 130 375 L 132 372 L 136 369 L 136 367 L 134 365 L 131 365 L 130 366 L 124 366 L 123 365 L 124 359 L 128 350 L 138 339 Z M 361 320 L 363 322 L 361 331 L 353 347 L 348 354 L 328 375 L 317 383 L 315 383 L 313 381 L 308 371 L 324 358 L 333 348 L 343 333 L 350 317 Z M 149 321 L 159 317 L 162 317 L 163 318 L 164 323 L 171 337 L 178 347 L 190 360 L 203 370 L 203 373 L 197 383 L 193 382 L 180 372 L 165 356 L 152 335 L 152 333 L 148 325 L 148 322 Z M 340 317 L 342 320 L 339 325 L 339 327 L 328 344 L 313 359 L 299 369 L 296 370 L 285 346 L 285 342 L 294 331 L 308 311 L 311 311 L 312 312 L 323 313 L 324 314 L 328 314 L 329 315 Z M 172 317 L 184 315 L 189 313 L 199 312 L 200 311 L 203 311 L 207 315 L 215 327 L 227 342 L 227 346 L 223 353 L 219 365 L 216 370 L 211 368 L 201 361 L 194 355 L 183 343 L 176 333 L 170 321 L 170 319 Z M 210 306 L 212 305 L 218 313 L 230 323 L 238 327 L 245 329 L 249 329 L 250 330 L 262 330 L 263 329 L 268 329 L 274 327 L 289 318 L 295 312 L 300 305 L 302 306 L 302 309 L 296 316 L 283 335 L 278 340 L 233 340 L 210 309 Z M 346 235 L 348 240 L 349 252 L 350 253 L 351 275 L 350 276 L 350 286 L 349 287 L 348 300 L 345 310 L 344 311 L 340 311 L 336 309 L 331 309 L 326 307 L 310 305 L 307 302 L 304 296 L 307 286 L 307 271 L 302 257 L 304 251 L 309 243 L 313 243 L 326 239 L 338 237 L 342 235 Z M 166 235 L 169 235 L 194 242 L 202 243 L 208 251 L 210 257 L 207 263 L 206 271 L 205 272 L 205 286 L 208 296 L 202 305 L 197 305 L 196 306 L 192 306 L 191 307 L 187 307 L 186 308 L 182 308 L 181 309 L 177 309 L 171 311 L 168 311 L 166 309 L 164 297 L 163 296 L 163 291 L 162 290 L 162 282 L 161 281 L 161 259 L 162 258 L 162 250 L 163 249 L 164 240 Z M 250 234 L 267 235 L 279 240 L 292 252 L 298 263 L 300 270 L 300 287 L 296 299 L 290 308 L 281 316 L 272 321 L 265 323 L 258 323 L 257 324 L 247 323 L 238 320 L 231 316 L 219 304 L 214 294 L 212 287 L 212 270 L 218 255 L 229 243 L 235 239 Z M 361 223 L 364 224 L 366 230 L 368 242 L 369 243 L 370 261 L 371 262 L 370 294 L 369 295 L 368 308 L 365 317 L 355 314 L 352 312 L 352 308 L 353 307 L 353 303 L 355 297 L 355 292 L 356 291 L 356 285 L 357 284 L 357 255 L 356 254 L 356 248 L 355 247 L 353 233 L 351 228 Z M 149 223 L 151 223 L 161 228 L 156 246 L 155 266 L 154 267 L 154 271 L 155 272 L 155 287 L 156 288 L 156 294 L 157 295 L 160 312 L 151 316 L 146 316 L 144 311 L 144 307 L 142 301 L 142 294 L 141 293 L 140 263 L 141 262 L 141 254 L 142 253 L 144 237 L 145 236 L 147 226 Z M 210 240 L 235 212 L 277 212 L 284 220 L 286 221 L 302 240 L 302 243 L 300 246 L 297 248 L 292 242 L 280 233 L 267 228 L 260 228 L 259 227 L 246 228 L 234 232 L 221 241 L 215 248 L 212 247 L 210 243 Z M 296 177 L 307 182 L 313 186 L 331 203 L 338 213 L 343 224 L 343 228 L 342 229 L 328 233 L 316 235 L 315 236 L 311 236 L 310 237 L 308 237 L 303 232 L 291 217 L 283 209 L 283 205 L 292 186 L 294 179 Z M 216 177 L 218 179 L 218 181 L 227 200 L 227 202 L 229 205 L 229 209 L 221 217 L 204 237 L 202 237 L 201 236 L 196 236 L 195 235 L 176 231 L 172 229 L 169 229 L 168 226 L 170 223 L 170 221 L 181 203 L 194 190 L 202 184 Z M 223 175 L 228 172 L 236 171 L 237 170 L 242 170 L 243 169 L 270 169 L 271 170 L 276 170 L 277 171 L 287 173 L 289 176 L 282 191 L 280 198 L 276 205 L 236 205 L 233 200 L 233 198 L 230 193 L 230 191 L 227 186 Z M 311 162 L 314 162 L 327 170 L 344 186 L 352 197 L 359 210 L 359 212 L 361 215 L 361 218 L 360 219 L 350 223 L 348 221 L 348 219 L 343 209 L 330 192 L 321 184 L 306 174 L 308 167 Z M 201 161 L 206 171 L 206 174 L 190 185 L 177 198 L 171 206 L 164 219 L 164 221 L 162 223 L 152 219 L 151 218 L 151 215 L 155 208 L 155 206 L 166 189 L 172 182 L 183 172 L 193 165 Z M 205 159 L 213 155 L 233 149 L 247 148 L 248 147 L 265 147 L 266 148 L 274 148 L 275 149 L 288 151 L 306 158 L 307 161 L 301 172 L 283 165 L 274 164 L 273 163 L 267 163 L 266 162 L 247 162 L 246 163 L 234 164 L 220 168 L 211 172 Z M 357 139 L 361 139 L 362 140 L 362 144 L 361 145 L 361 150 L 362 151 L 365 151 L 371 147 L 378 147 L 379 148 L 378 152 L 373 158 L 373 161 L 376 163 L 380 161 L 384 161 L 388 163 L 381 172 L 378 181 L 375 186 L 369 192 L 361 197 L 358 195 L 354 188 L 343 175 L 332 166 L 332 163 L 338 152 L 345 145 L 351 141 Z M 156 139 L 165 143 L 176 154 L 179 159 L 180 166 L 164 181 L 157 190 L 154 196 L 151 197 L 146 194 L 137 185 L 134 180 L 131 171 L 125 163 L 129 161 L 133 161 L 136 163 L 139 162 L 140 159 L 134 151 L 133 148 L 134 147 L 142 147 L 147 151 L 151 151 L 152 150 L 151 140 L 152 139 Z M 251 64 L 261 64 L 268 67 L 278 76 L 287 90 L 289 97 L 289 114 L 285 127 L 285 138 L 286 139 L 286 143 L 285 144 L 279 142 L 261 141 L 260 140 L 241 141 L 240 142 L 234 142 L 229 144 L 226 143 L 227 141 L 227 124 L 223 111 L 224 95 L 226 89 L 232 79 L 243 68 Z" fill="currentColor" fill-rule="evenodd"/>
</svg>
