<svg xmlns="http://www.w3.org/2000/svg" viewBox="0 0 512 512" >
  <path d="M 144 393 L 146 407 L 149 411 L 157 415 L 355 415 L 365 408 L 368 397 L 364 383 L 360 379 L 350 376 L 159 376 L 153 378 L 147 384 Z M 156 353 L 158 364 L 166 370 L 346 370 L 353 365 L 356 357 L 354 348 L 349 343 L 342 341 L 174 341 L 161 344 Z M 166 314 L 167 323 L 170 328 L 176 333 L 182 335 L 329 335 L 340 330 L 345 321 L 345 311 L 342 305 L 336 300 L 330 298 L 312 299 L 279 311 L 266 314 L 239 313 L 207 301 L 193 298 L 181 298 L 174 301 L 169 306 Z M 257 85 L 245 127 L 233 138 L 229 156 L 224 160 L 230 194 L 238 185 L 242 195 L 204 215 L 196 279 L 205 292 L 224 303 L 247 309 L 289 302 L 309 290 L 316 276 L 310 220 L 303 210 L 285 204 L 262 249 L 259 290 L 273 291 L 285 284 L 282 261 L 290 244 L 297 272 L 291 285 L 277 295 L 234 295 L 215 277 L 221 243 L 230 264 L 227 284 L 239 291 L 253 290 L 257 246 L 279 203 L 271 198 L 270 190 L 274 186 L 282 194 L 288 161 L 282 156 L 279 138 L 267 128 Z M 208 54 L 176 73 L 151 98 L 130 133 L 119 166 L 114 199 L 115 451 L 394 453 L 398 446 L 398 207 L 393 167 L 382 134 L 353 89 L 306 55 L 267 45 L 237 46 Z M 205 74 L 246 62 L 293 68 L 330 90 L 352 114 L 366 138 L 379 177 L 383 217 L 383 431 L 380 436 L 129 434 L 129 206 L 133 176 L 143 144 L 157 118 L 183 89 Z" fill="currentColor" fill-rule="evenodd"/>
</svg>
