<svg xmlns="http://www.w3.org/2000/svg" viewBox="0 0 512 512" >
  <path d="M 212 216 L 210 218 L 210 221 L 214 223 L 217 221 L 217 218 L 215 216 Z M 154 210 L 152 211 L 151 214 L 152 216 L 156 217 L 158 216 L 159 213 L 157 210 Z M 260 210 L 259 214 L 261 216 L 264 216 L 266 214 L 266 211 L 264 209 Z M 127 204 L 125 204 L 122 208 L 123 210 L 126 212 L 130 209 L 130 207 Z M 240 198 L 238 200 L 238 204 L 239 205 L 243 205 L 245 201 L 243 198 Z M 186 198 L 184 200 L 184 204 L 189 205 L 191 201 L 189 198 Z M 144 187 L 142 189 L 142 192 L 145 194 L 147 194 L 149 192 L 149 189 L 147 187 Z M 217 184 L 215 186 L 215 189 L 218 191 L 220 191 L 222 189 L 222 186 L 220 184 Z M 178 175 L 174 175 L 172 178 L 175 182 L 179 180 L 179 176 Z M 199 164 L 197 166 L 198 170 L 202 171 L 204 169 L 204 165 L 203 164 Z M 77 201 L 77 222 L 65 241 L 65 331 L 79 352 L 104 365 L 136 374 L 179 379 L 219 378 L 260 371 L 296 357 L 312 344 L 318 331 L 319 308 L 359 350 L 393 370 L 412 369 L 445 339 L 443 302 L 420 253 L 378 201 L 344 178 L 324 175 L 299 191 L 262 176 L 232 151 L 221 150 L 201 136 L 186 135 L 145 164 L 90 187 Z M 73 257 L 75 256 L 85 264 L 112 275 L 145 282 L 183 285 L 218 284 L 248 280 L 294 266 L 310 293 L 310 332 L 299 346 L 281 356 L 257 364 L 231 369 L 171 371 L 145 368 L 112 360 L 85 347 L 73 333 Z M 83 242 L 85 241 L 99 249 L 117 255 L 163 263 L 199 264 L 234 261 L 264 255 L 285 247 L 288 248 L 291 258 L 266 268 L 239 274 L 211 277 L 170 277 L 127 271 L 98 262 L 83 253 Z M 75 235 L 77 236 L 77 244 L 75 245 L 73 242 L 73 238 Z M 83 221 L 85 220 L 98 228 L 118 235 L 167 243 L 214 243 L 234 241 L 260 236 L 280 229 L 283 230 L 285 239 L 266 247 L 233 254 L 194 257 L 167 256 L 131 251 L 101 242 L 83 231 Z M 306 196 L 309 197 L 310 211 L 320 241 L 328 257 L 348 288 L 367 311 L 388 331 L 408 345 L 421 350 L 421 352 L 409 362 L 396 363 L 390 361 L 366 346 L 339 320 L 315 288 L 296 251 L 289 222 L 292 208 Z M 276 189 L 277 188 L 281 189 L 292 195 L 293 197 L 289 200 L 283 195 L 278 193 L 276 191 Z M 109 189 L 108 192 L 103 197 L 95 201 L 87 210 L 85 209 L 84 207 L 85 201 L 91 195 L 105 188 L 108 188 Z M 324 183 L 335 183 L 351 190 L 360 196 L 387 221 L 406 245 L 429 285 L 438 311 L 439 333 L 433 342 L 424 343 L 417 341 L 395 327 L 369 302 L 352 281 L 333 251 L 320 221 L 316 199 L 318 189 Z M 94 214 L 101 206 L 110 201 L 117 190 L 122 185 L 127 183 L 136 173 L 148 171 L 158 162 L 168 160 L 180 147 L 189 142 L 195 142 L 202 145 L 218 157 L 231 159 L 241 171 L 249 173 L 259 186 L 265 189 L 272 198 L 284 206 L 282 220 L 276 223 L 236 233 L 204 236 L 177 236 L 140 232 L 106 223 L 95 218 Z" fill="currentColor" fill-rule="evenodd"/>
</svg>
