<svg xmlns="http://www.w3.org/2000/svg" viewBox="0 0 512 512" >
  <path d="M 61 269 L 57 271 L 54 275 L 53 282 L 52 283 L 52 300 L 53 301 L 54 312 L 60 330 L 66 341 L 72 347 L 74 348 L 80 348 L 84 344 L 87 336 L 87 315 L 86 314 L 86 309 L 82 297 L 82 294 L 76 281 L 68 271 Z M 61 273 L 64 273 L 71 280 L 77 292 L 82 309 L 82 314 L 83 315 L 83 336 L 81 342 L 78 345 L 73 343 L 66 334 L 61 323 L 61 320 L 57 308 L 56 293 L 55 292 L 56 290 L 56 281 L 58 276 Z M 243 242 L 240 244 L 240 247 L 242 249 L 244 249 L 246 247 L 246 244 Z M 290 231 L 290 234 L 291 235 L 296 234 L 296 231 L 294 229 L 292 229 Z M 250 230 L 250 227 L 248 223 L 243 219 L 234 219 L 227 223 L 224 226 L 221 227 L 215 227 L 210 225 L 210 226 L 216 231 L 224 231 L 227 230 L 233 225 L 237 223 L 243 224 L 246 227 L 247 230 Z M 259 203 L 258 208 L 254 217 L 254 220 L 257 225 L 262 227 L 267 231 L 267 229 L 272 221 L 272 214 L 266 208 Z M 261 210 L 264 211 L 269 216 L 269 219 L 265 224 L 262 224 L 258 220 L 258 216 Z M 312 198 L 306 204 L 303 205 L 289 204 L 284 206 L 279 213 L 279 221 L 280 223 L 283 220 L 283 214 L 287 210 L 289 209 L 303 210 L 307 208 L 311 204 Z M 461 179 L 441 151 L 421 146 L 392 158 L 81 248 L 59 251 L 50 258 L 43 280 L 50 328 L 70 361 L 90 366 L 430 261 L 448 259 L 463 247 L 469 226 Z M 210 314 L 211 316 L 204 326 L 197 328 L 196 326 L 205 317 Z M 272 304 L 272 302 L 278 296 L 284 296 L 288 299 L 287 301 L 275 305 Z M 217 292 L 215 295 L 208 298 L 200 298 L 197 296 L 198 294 L 202 294 L 211 291 L 213 289 Z M 276 281 L 282 286 L 281 291 L 278 293 L 276 293 L 273 290 L 273 287 Z M 212 281 L 212 285 L 210 287 L 203 290 L 192 290 L 186 286 L 187 284 L 189 285 L 194 285 L 195 284 L 203 283 L 209 280 Z M 338 279 L 339 278 L 345 278 L 346 279 L 349 279 L 350 281 L 343 284 L 339 281 Z M 238 272 L 238 280 L 236 284 L 232 288 L 227 290 L 220 289 L 216 285 L 216 279 L 220 275 L 226 275 L 229 277 L 228 274 L 225 272 L 218 272 L 206 278 L 200 280 L 196 280 L 195 281 L 183 280 L 177 276 L 178 274 L 191 275 L 192 274 L 199 273 L 219 264 L 230 264 L 232 265 Z M 59 258 L 62 258 L 68 261 L 74 267 L 78 273 L 86 290 L 91 307 L 92 321 L 93 322 L 93 339 L 92 340 L 92 345 L 89 354 L 86 358 L 82 360 L 76 359 L 68 352 L 62 343 L 56 330 L 50 310 L 50 305 L 48 298 L 48 278 L 49 277 L 50 269 L 53 263 Z M 355 256 L 353 259 L 343 264 L 332 264 L 331 263 L 331 260 L 333 258 L 344 258 L 353 255 Z M 71 253 L 74 253 L 78 255 L 87 264 L 91 270 L 98 285 L 104 306 L 105 320 L 106 321 L 105 343 L 101 354 L 95 359 L 93 359 L 92 357 L 94 354 L 96 348 L 96 344 L 97 343 L 97 316 L 96 315 L 96 309 L 95 308 L 93 297 L 89 285 L 85 278 L 85 276 L 79 266 L 74 260 L 69 256 Z M 100 247 L 106 249 L 114 257 L 122 271 L 122 273 L 125 278 L 128 287 L 131 304 L 132 305 L 132 314 L 133 315 L 132 335 L 129 344 L 127 347 L 124 349 L 110 353 L 107 352 L 109 342 L 110 341 L 110 314 L 109 313 L 109 308 L 108 307 L 106 295 L 101 280 L 95 268 L 89 259 L 84 254 L 86 251 L 96 249 Z M 110 243 L 116 243 L 118 244 L 127 253 L 136 269 L 143 290 L 143 295 L 145 301 L 145 308 L 146 309 L 146 325 L 145 326 L 145 332 L 143 339 L 137 346 L 134 346 L 133 345 L 137 331 L 137 310 L 136 309 L 136 303 L 135 302 L 135 297 L 134 296 L 133 289 L 128 274 L 119 257 L 109 246 Z M 364 240 L 362 244 L 357 249 L 352 252 L 345 254 L 338 254 L 337 255 L 332 252 L 332 249 L 333 248 L 345 247 L 354 244 L 362 239 Z M 125 239 L 131 239 L 136 242 L 142 249 L 150 263 L 150 265 L 153 270 L 156 279 L 156 282 L 159 291 L 159 297 L 160 298 L 161 318 L 160 319 L 160 326 L 159 327 L 158 334 L 156 338 L 151 342 L 149 342 L 148 339 L 150 335 L 151 325 L 152 324 L 152 308 L 151 307 L 151 300 L 150 299 L 147 282 L 142 268 L 132 250 L 124 242 Z M 255 242 L 256 244 L 250 251 L 250 254 L 249 255 L 249 260 L 251 267 L 251 277 L 247 287 L 244 291 L 237 297 L 227 302 L 225 302 L 209 310 L 205 313 L 204 311 L 216 298 L 223 293 L 232 292 L 235 290 L 241 283 L 242 280 L 242 272 L 240 267 L 236 263 L 228 259 L 228 251 L 232 243 L 235 240 L 242 237 L 248 238 L 253 242 Z M 369 225 L 365 232 L 354 240 L 345 243 L 339 243 L 338 244 L 325 244 L 318 247 L 316 250 L 316 253 L 317 253 L 320 249 L 323 248 L 326 249 L 329 252 L 329 258 L 323 264 L 321 265 L 314 265 L 308 260 L 307 258 L 307 249 L 309 245 L 315 240 L 320 238 L 325 238 L 326 237 L 344 236 L 358 231 L 367 224 Z M 284 230 L 291 224 L 300 224 L 304 226 L 309 232 L 311 238 L 307 242 L 303 250 L 303 258 L 307 265 L 315 269 L 319 269 L 326 266 L 329 266 L 333 268 L 337 268 L 345 272 L 346 274 L 345 275 L 334 274 L 333 275 L 325 275 L 324 276 L 313 276 L 303 272 L 297 266 L 293 256 L 293 250 L 290 242 L 281 236 Z M 376 187 L 392 231 L 392 256 L 385 271 L 358 279 L 346 268 L 368 241 L 375 211 L 354 229 L 316 236 L 305 222 L 291 220 L 271 242 L 287 245 L 300 275 L 338 285 L 293 299 L 295 287 L 308 289 L 315 283 L 295 283 L 286 293 L 275 274 L 271 298 L 258 293 L 239 303 L 246 306 L 263 297 L 267 307 L 212 323 L 249 291 L 255 277 L 253 253 L 266 243 L 238 234 L 228 242 L 222 260 L 192 271 L 167 265 L 181 286 L 206 304 L 190 330 L 162 336 L 163 288 L 140 235 L 356 172 Z M 368 168 L 376 169 L 379 171 L 388 181 L 397 197 L 403 215 L 403 219 L 405 225 L 405 232 L 406 233 L 406 247 L 405 248 L 404 258 L 401 264 L 396 268 L 393 267 L 395 262 L 396 252 L 397 251 L 397 236 L 396 235 L 396 229 L 395 228 L 395 223 L 394 222 L 393 215 L 389 203 L 381 187 L 377 181 L 366 171 Z M 383 164 L 390 164 L 402 175 L 413 195 L 416 204 L 416 207 L 418 211 L 419 221 L 420 222 L 420 232 L 421 233 L 420 248 L 416 259 L 410 264 L 408 263 L 408 260 L 411 252 L 412 235 L 411 234 L 411 225 L 409 219 L 409 214 L 406 207 L 406 204 L 399 188 L 389 173 L 382 167 Z M 407 158 L 418 158 L 426 162 L 434 170 L 443 185 L 444 190 L 447 196 L 449 208 L 450 209 L 450 232 L 449 233 L 448 240 L 443 249 L 437 254 L 425 258 L 422 257 L 424 251 L 424 246 L 425 245 L 425 224 L 424 223 L 424 217 L 423 216 L 423 212 L 420 204 L 420 201 L 410 179 L 403 169 L 396 163 L 397 161 L 403 160 Z M 422 151 L 430 151 L 433 152 L 439 156 L 446 163 L 457 182 L 460 191 L 460 194 L 462 198 L 463 209 L 464 210 L 464 227 L 463 228 L 463 233 L 460 242 L 457 247 L 453 251 L 446 254 L 445 252 L 448 249 L 452 241 L 453 233 L 454 232 L 454 226 L 455 225 L 455 217 L 454 216 L 453 203 L 450 195 L 450 192 L 444 178 L 436 166 L 426 157 L 419 154 L 419 153 Z" fill="currentColor" fill-rule="evenodd"/>
</svg>
