<svg xmlns="http://www.w3.org/2000/svg" viewBox="0 0 512 512" >
  <path d="M 193 419 L 193 422 L 197 426 L 207 433 L 221 440 L 238 445 L 254 446 L 255 447 L 270 446 L 289 441 L 305 433 L 319 422 L 318 417 L 312 416 L 299 426 L 289 431 L 277 435 L 267 436 L 266 437 L 247 437 L 246 436 L 236 435 L 224 431 L 212 425 L 200 416 L 196 416 Z M 207 395 L 207 399 L 219 408 L 229 413 L 238 416 L 248 417 L 249 418 L 263 418 L 264 417 L 270 417 L 271 416 L 275 416 L 292 409 L 305 399 L 305 395 L 302 392 L 299 392 L 291 399 L 282 404 L 273 407 L 264 408 L 263 409 L 250 409 L 249 408 L 240 407 L 231 404 L 225 401 L 213 392 L 210 392 Z M 224 376 L 225 379 L 233 385 L 235 385 L 240 388 L 248 389 L 249 390 L 264 390 L 265 389 L 269 389 L 281 384 L 288 378 L 288 375 L 285 372 L 282 372 L 270 379 L 263 380 L 262 381 L 246 380 L 236 376 L 231 372 L 227 372 Z M 404 325 L 401 325 L 398 327 L 389 345 L 378 360 L 365 374 L 344 391 L 325 402 L 325 407 L 327 409 L 331 409 L 350 398 L 369 383 L 379 373 L 392 357 L 401 343 L 407 331 L 407 328 Z M 108 325 L 106 327 L 105 331 L 116 351 L 128 367 L 148 387 L 161 397 L 181 409 L 185 409 L 187 407 L 187 402 L 168 390 L 155 380 L 131 355 L 118 336 L 114 327 L 111 325 Z M 279 217 L 251 229 L 226 230 L 233 241 L 224 258 L 229 268 L 243 270 L 267 260 L 274 269 L 267 283 L 249 280 L 234 287 L 225 303 L 226 312 L 234 322 L 250 325 L 261 318 L 263 308 L 258 302 L 250 302 L 247 305 L 247 311 L 252 314 L 257 310 L 258 313 L 252 318 L 246 318 L 237 311 L 236 303 L 239 297 L 249 291 L 259 291 L 271 299 L 274 314 L 259 337 L 260 349 L 265 337 L 282 315 L 283 303 L 275 287 L 285 275 L 286 263 L 284 258 L 272 249 L 257 251 L 242 263 L 237 263 L 234 257 L 244 246 L 288 228 Z M 372 210 L 369 212 L 368 217 L 371 220 L 376 229 L 379 239 L 379 244 L 380 245 L 380 254 L 379 255 L 378 265 L 374 275 L 368 284 L 368 287 L 371 290 L 374 290 L 376 289 L 380 283 L 385 273 L 388 264 L 388 259 L 389 258 L 389 242 L 388 241 L 387 232 L 383 224 L 383 222 L 378 214 L 375 211 Z M 139 210 L 134 214 L 127 227 L 124 237 L 124 241 L 123 242 L 123 257 L 124 258 L 124 263 L 127 273 L 132 283 L 138 290 L 141 290 L 144 287 L 144 283 L 141 280 L 135 268 L 133 261 L 133 254 L 132 253 L 132 246 L 133 245 L 134 235 L 138 225 L 144 217 L 144 213 Z M 392 190 L 389 192 L 388 195 L 400 212 L 403 218 L 409 239 L 409 260 L 408 261 L 406 273 L 400 287 L 388 304 L 391 309 L 395 309 L 406 295 L 413 281 L 418 263 L 419 245 L 418 244 L 417 230 L 412 215 L 400 195 L 395 190 Z M 117 190 L 107 202 L 98 220 L 94 235 L 93 256 L 94 257 L 94 263 L 95 264 L 96 272 L 103 290 L 113 305 L 117 309 L 121 309 L 124 304 L 115 292 L 109 281 L 108 276 L 105 270 L 105 266 L 103 260 L 103 239 L 104 238 L 104 233 L 106 229 L 106 226 L 112 212 L 124 196 L 124 194 L 122 191 Z M 223 190 L 223 193 L 225 198 L 235 209 L 244 214 L 253 215 L 254 216 L 265 215 L 276 210 L 283 204 L 289 194 L 289 189 L 288 189 L 282 195 L 271 201 L 268 201 L 264 203 L 248 203 L 235 198 L 229 194 L 224 189 Z M 419 177 L 416 180 L 416 184 L 424 194 L 433 211 L 437 223 L 440 238 L 440 261 L 436 279 L 427 300 L 416 315 L 416 319 L 418 321 L 422 322 L 428 316 L 434 307 L 441 293 L 446 279 L 449 263 L 449 235 L 445 216 L 436 195 L 424 178 Z M 90 177 L 88 178 L 78 192 L 70 208 L 64 229 L 62 251 L 63 252 L 64 270 L 71 293 L 84 316 L 88 321 L 93 322 L 96 319 L 96 315 L 87 303 L 81 292 L 76 279 L 72 258 L 72 241 L 76 220 L 85 199 L 96 184 L 95 178 Z M 254 169 L 251 170 L 247 174 L 245 181 L 247 186 L 250 189 L 257 191 L 262 189 L 265 186 L 267 182 L 267 178 L 264 172 L 259 169 Z M 247 143 L 231 146 L 209 155 L 194 165 L 177 182 L 159 214 L 154 232 L 152 256 L 155 279 L 162 300 L 183 331 L 214 354 L 237 362 L 259 364 L 280 361 L 304 351 L 322 338 L 336 323 L 346 308 L 356 283 L 359 268 L 359 239 L 351 209 L 338 186 L 325 171 L 308 158 L 290 149 L 265 143 Z M 249 152 L 263 152 L 283 156 L 312 172 L 322 181 L 337 201 L 344 216 L 350 240 L 350 267 L 343 293 L 330 316 L 313 334 L 300 343 L 279 352 L 260 355 L 238 353 L 225 349 L 196 331 L 176 307 L 169 293 L 162 265 L 162 242 L 165 225 L 175 201 L 184 188 L 200 172 L 217 161 Z M 224 129 L 224 131 L 227 134 L 231 134 L 237 130 L 251 126 L 267 127 L 273 130 L 275 130 L 281 134 L 286 134 L 288 131 L 287 127 L 282 123 L 270 118 L 260 117 L 259 116 L 247 117 L 246 118 L 239 119 L 234 122 L 232 122 L 226 126 Z M 328 91 L 325 94 L 325 99 L 340 107 L 360 122 L 380 143 L 389 155 L 397 170 L 400 173 L 404 173 L 406 171 L 406 166 L 403 160 L 392 143 L 378 126 L 369 117 L 353 104 L 331 91 Z M 184 91 L 182 91 L 170 97 L 148 113 L 130 131 L 119 145 L 106 166 L 106 171 L 108 173 L 114 172 L 127 150 L 149 125 L 162 114 L 187 99 L 187 94 Z M 207 106 L 207 110 L 210 113 L 213 113 L 222 106 L 234 100 L 240 98 L 244 98 L 245 97 L 253 97 L 256 96 L 257 97 L 267 97 L 268 98 L 272 98 L 278 100 L 290 106 L 299 113 L 302 113 L 305 110 L 305 106 L 292 96 L 284 92 L 266 87 L 246 87 L 245 88 L 237 89 L 224 94 L 214 100 Z M 193 81 L 194 86 L 198 88 L 211 79 L 223 73 L 235 69 L 244 68 L 245 67 L 267 67 L 268 68 L 281 70 L 289 73 L 301 79 L 314 88 L 317 87 L 319 84 L 319 81 L 313 75 L 307 71 L 293 64 L 281 60 L 273 59 L 272 58 L 266 58 L 265 57 L 249 57 L 248 58 L 241 58 L 240 59 L 231 60 L 219 64 L 199 75 Z" fill="currentColor" fill-rule="evenodd"/>
</svg>
