<svg xmlns="http://www.w3.org/2000/svg" viewBox="0 0 512 512" >
  <path d="M 254 133 L 222 152 L 197 176 L 181 199 L 168 230 L 164 251 L 164 423 L 168 430 L 176 434 L 339 433 L 348 421 L 348 255 L 345 235 L 334 205 L 311 172 L 280 145 Z M 255 142 L 279 155 L 304 177 L 322 201 L 336 233 L 340 255 L 340 421 L 335 426 L 176 426 L 172 422 L 172 251 L 177 228 L 186 207 L 204 181 L 226 160 Z M 250 49 L 239 54 L 229 67 L 227 79 L 235 97 L 225 107 L 223 116 L 200 131 L 174 158 L 160 179 L 145 215 L 140 242 L 140 436 L 146 449 L 162 458 L 349 458 L 367 447 L 372 433 L 369 225 L 360 196 L 340 161 L 314 133 L 290 117 L 277 98 L 284 82 L 278 59 L 268 51 Z M 245 103 L 270 104 L 278 111 L 283 124 L 321 153 L 345 186 L 358 218 L 363 245 L 363 434 L 360 441 L 348 449 L 164 449 L 157 446 L 149 435 L 149 241 L 154 217 L 178 168 L 204 140 L 230 123 L 234 110 Z M 248 60 L 251 59 L 260 59 L 268 63 L 273 70 L 274 73 L 274 81 L 272 86 L 263 94 L 260 95 L 252 95 L 245 92 L 239 85 L 237 79 L 238 71 L 240 67 Z" fill="currentColor" fill-rule="evenodd"/>
</svg>
