<svg xmlns="http://www.w3.org/2000/svg" viewBox="0 0 512 512" >
  <path d="M 257 158 L 267 169 L 273 178 L 281 196 L 283 206 L 284 206 L 284 204 L 290 191 L 297 180 L 311 166 L 317 162 L 317 161 L 309 161 L 302 164 L 293 173 L 287 183 L 284 184 L 278 172 L 274 166 L 269 161 L 265 159 Z M 303 56 L 290 54 L 273 60 L 260 78 L 259 106 L 267 126 L 264 139 L 229 137 L 222 143 L 220 201 L 228 216 L 222 298 L 199 370 L 178 407 L 156 434 L 156 441 L 162 446 L 201 441 L 227 429 L 255 409 L 300 356 L 327 300 L 340 252 L 343 216 L 351 207 L 357 150 L 348 142 L 315 142 L 313 128 L 323 108 L 325 86 L 319 69 Z M 285 363 L 285 365 L 281 370 L 274 370 L 266 365 L 267 363 L 281 363 L 282 362 Z M 313 313 L 313 316 L 309 324 L 303 328 L 294 329 L 277 322 L 278 320 L 281 319 L 296 318 L 297 317 L 304 316 L 311 312 Z M 332 255 L 329 267 L 321 273 L 311 275 L 298 270 L 295 270 L 293 268 L 294 266 L 315 262 L 324 258 L 329 254 Z M 335 219 L 335 237 L 327 247 L 316 254 L 280 265 L 270 276 L 289 275 L 311 282 L 325 280 L 321 294 L 308 306 L 272 314 L 255 326 L 302 336 L 297 347 L 287 355 L 259 358 L 246 366 L 259 368 L 275 378 L 253 401 L 223 423 L 196 435 L 164 439 L 163 436 L 197 390 L 220 335 L 232 282 L 235 215 L 277 223 L 311 223 Z M 228 147 L 231 144 L 290 150 L 346 149 L 350 152 L 349 160 L 324 175 L 316 183 L 309 197 L 332 180 L 345 175 L 346 185 L 326 197 L 319 204 L 325 204 L 344 197 L 344 205 L 332 212 L 307 216 L 271 215 L 237 207 L 227 199 L 228 192 L 249 201 L 242 191 L 228 180 L 230 170 L 242 177 L 259 195 L 259 191 L 250 173 L 229 155 Z M 308 136 L 308 142 L 307 143 L 279 142 L 278 141 L 272 141 L 271 140 L 271 136 L 272 135 L 281 139 L 289 139 L 291 138 L 295 133 L 295 128 L 296 127 L 298 128 L 301 134 Z M 291 78 L 296 79 L 301 84 L 302 87 L 302 98 L 301 99 L 301 102 L 299 108 L 295 114 L 286 113 L 284 111 L 281 101 L 281 87 L 286 80 Z M 297 62 L 306 66 L 313 73 L 316 79 L 318 88 L 317 103 L 311 119 L 307 125 L 305 126 L 301 118 L 304 114 L 308 104 L 309 99 L 308 83 L 306 79 L 298 72 L 289 71 L 282 74 L 277 79 L 274 86 L 274 102 L 279 117 L 288 129 L 287 132 L 279 131 L 276 128 L 269 115 L 265 101 L 265 87 L 269 75 L 277 66 L 286 62 Z" fill="currentColor" fill-rule="evenodd"/>
</svg>
