<svg xmlns="http://www.w3.org/2000/svg" viewBox="0 0 512 512" >
  <path d="M 255 45 L 216 56 L 184 82 L 164 113 L 155 158 L 168 218 L 198 254 L 224 269 L 222 283 L 232 296 L 227 306 L 231 320 L 223 330 L 214 364 L 195 383 L 198 390 L 185 400 L 178 426 L 185 428 L 195 447 L 211 439 L 218 442 L 229 425 L 232 449 L 241 449 L 257 465 L 272 448 L 280 449 L 284 427 L 294 442 L 301 439 L 319 447 L 327 428 L 335 425 L 328 401 L 315 390 L 317 383 L 298 363 L 298 353 L 281 318 L 286 308 L 280 296 L 290 285 L 289 269 L 312 256 L 344 219 L 352 198 L 358 153 L 349 114 L 329 82 L 295 55 Z M 245 445 L 249 442 L 256 450 L 257 450 L 263 443 L 265 443 L 268 447 L 265 452 L 256 460 L 253 458 L 246 450 Z M 323 427 L 323 431 L 321 437 L 317 442 L 312 441 L 306 438 L 303 435 L 305 430 L 310 433 L 315 434 L 319 425 Z M 189 427 L 193 425 L 195 427 L 195 429 L 198 434 L 200 434 L 207 430 L 209 433 L 209 435 L 206 438 L 200 441 L 195 442 L 190 434 Z M 268 408 L 275 414 L 278 420 L 278 433 L 274 444 L 271 443 L 266 438 L 266 436 L 270 429 L 270 426 L 271 425 L 271 418 L 267 410 Z M 244 408 L 245 411 L 243 413 L 242 420 L 241 421 L 242 422 L 242 428 L 244 431 L 244 433 L 246 435 L 246 438 L 243 442 L 240 444 L 238 444 L 234 431 L 234 422 L 238 413 Z M 251 407 L 261 407 L 266 412 L 268 416 L 268 427 L 264 436 L 257 444 L 256 444 L 248 435 L 244 426 L 244 418 L 245 415 Z M 289 403 L 291 404 L 291 413 L 294 419 L 301 426 L 301 430 L 298 435 L 297 435 L 290 427 L 286 419 L 286 409 Z M 223 403 L 226 408 L 226 420 L 223 426 L 219 430 L 217 434 L 215 435 L 211 430 L 211 426 L 214 424 L 219 418 L 222 409 L 221 404 Z M 253 402 L 255 400 L 257 400 L 259 403 L 258 404 L 254 404 Z M 278 398 L 285 400 L 281 414 L 280 414 L 273 406 L 273 404 L 277 401 Z M 234 398 L 239 404 L 239 406 L 235 411 L 232 413 L 230 410 L 230 407 L 227 400 Z M 299 397 L 306 396 L 310 398 L 316 406 L 317 415 L 316 416 L 316 420 L 314 427 L 312 429 L 301 423 L 297 419 L 294 414 L 293 405 L 295 400 Z M 209 395 L 217 400 L 219 404 L 219 412 L 216 418 L 210 424 L 202 429 L 200 429 L 198 426 L 196 419 L 196 407 L 198 403 L 204 397 Z M 312 394 L 314 394 L 319 397 L 325 404 L 327 409 L 327 419 L 328 420 L 327 423 L 323 423 L 319 420 L 319 408 L 316 401 L 311 396 Z M 200 394 L 201 396 L 195 403 L 193 409 L 193 417 L 194 419 L 189 423 L 185 423 L 184 422 L 185 419 L 185 410 L 187 404 L 193 397 L 198 394 Z M 296 394 L 298 390 L 300 390 L 302 392 L 302 393 L 299 395 Z M 211 391 L 214 390 L 216 392 L 216 394 L 213 395 L 211 393 Z M 254 375 L 258 375 L 263 379 L 267 388 L 267 393 L 271 398 L 270 401 L 263 401 L 259 398 L 254 398 L 249 401 L 243 401 L 242 400 L 242 398 L 245 394 L 245 389 L 247 383 Z M 286 370 L 289 367 L 296 367 L 305 374 L 307 381 L 311 384 L 311 386 L 309 388 L 301 388 L 296 385 L 295 390 L 291 394 L 286 395 L 285 394 L 286 387 L 284 384 L 284 375 Z M 216 367 L 223 367 L 227 372 L 228 375 L 228 385 L 226 388 L 228 393 L 227 395 L 221 394 L 218 391 L 216 385 L 211 388 L 204 388 L 201 386 L 206 380 L 206 377 L 208 373 Z M 255 347 L 259 348 L 262 351 L 261 353 L 264 356 L 263 362 L 265 364 L 265 369 L 263 371 L 259 371 L 257 369 L 257 365 L 258 364 L 257 357 L 255 358 L 255 361 L 254 362 L 256 366 L 255 369 L 253 371 L 249 371 L 247 368 L 247 365 L 250 362 L 248 360 L 248 357 L 251 354 L 251 350 Z M 268 345 L 273 347 L 272 355 L 276 367 L 282 370 L 280 375 L 281 391 L 278 398 L 275 397 L 271 392 L 270 384 L 265 376 L 265 374 L 268 371 L 269 368 L 268 356 L 265 352 L 265 349 Z M 244 345 L 247 349 L 247 353 L 244 357 L 244 366 L 243 367 L 245 372 L 247 374 L 247 376 L 243 382 L 241 389 L 241 393 L 235 398 L 231 390 L 231 387 L 232 386 L 232 374 L 231 373 L 231 370 L 237 366 L 238 364 L 238 359 L 240 356 L 240 351 L 239 349 L 242 345 Z M 280 341 L 285 342 L 287 345 L 292 349 L 291 353 L 295 356 L 295 360 L 293 362 L 289 362 L 287 360 L 287 355 L 286 353 L 283 351 L 283 357 L 286 360 L 286 363 L 283 366 L 281 366 L 278 363 L 279 357 L 276 355 L 277 345 Z M 232 341 L 236 346 L 235 349 L 236 351 L 236 356 L 233 358 L 234 359 L 234 364 L 231 366 L 229 366 L 226 363 L 226 360 L 229 357 L 229 353 L 230 352 L 228 351 L 225 355 L 225 360 L 223 362 L 219 362 L 217 360 L 217 356 L 221 353 L 220 351 L 221 348 L 223 346 L 225 346 L 227 342 Z M 251 329 L 259 329 L 264 332 L 263 337 L 265 339 L 265 343 L 262 346 L 260 346 L 257 344 L 257 340 L 258 339 L 257 333 L 255 334 L 255 337 L 254 338 L 255 344 L 253 346 L 250 346 L 247 343 L 247 340 L 250 337 L 250 336 L 248 335 L 248 333 Z M 280 324 L 283 327 L 282 330 L 284 330 L 286 332 L 287 336 L 284 339 L 281 339 L 279 337 L 279 332 L 275 329 L 275 334 L 278 339 L 276 342 L 273 343 L 271 342 L 269 339 L 270 334 L 268 333 L 268 329 L 275 324 Z M 233 323 L 240 325 L 243 327 L 245 330 L 245 332 L 242 334 L 243 340 L 239 343 L 235 340 L 235 336 L 237 334 L 237 331 L 238 330 L 237 328 L 233 333 L 234 336 L 231 339 L 228 339 L 226 337 L 226 333 L 230 330 L 230 326 Z M 251 324 L 253 322 L 259 322 L 262 326 L 256 329 L 252 327 Z M 267 323 L 270 317 L 275 317 L 277 319 L 277 321 L 275 323 L 272 324 L 268 324 Z M 235 319 L 237 317 L 242 317 L 244 319 L 245 323 L 244 324 L 237 323 L 235 321 Z M 247 297 L 248 299 L 245 304 L 244 309 L 240 312 L 234 312 L 232 310 L 232 305 L 233 303 L 240 297 Z M 264 297 L 265 296 L 267 297 L 273 297 L 276 299 L 281 306 L 280 311 L 279 312 L 273 312 L 268 308 L 268 305 Z M 256 291 L 257 291 L 261 296 L 266 307 L 266 312 L 264 315 L 257 318 L 250 316 L 247 312 L 248 303 L 251 297 Z M 258 268 L 265 263 L 281 268 L 286 275 L 286 282 L 283 288 L 281 290 L 274 293 L 270 293 L 263 290 L 260 287 L 258 282 Z M 248 263 L 254 268 L 254 284 L 253 286 L 246 292 L 243 293 L 235 292 L 229 287 L 227 283 L 227 274 L 232 268 Z M 255 251 L 260 252 L 263 256 L 262 261 L 258 264 L 254 264 L 250 260 L 250 255 Z M 276 236 L 279 235 L 287 236 L 292 240 L 295 245 L 295 248 L 296 249 L 295 255 L 293 259 L 287 264 L 280 264 L 266 259 L 266 254 L 264 250 L 272 239 Z M 220 241 L 224 237 L 229 235 L 237 236 L 249 250 L 246 256 L 246 259 L 243 261 L 237 262 L 233 264 L 226 264 L 224 263 L 219 258 L 217 253 L 217 248 Z M 301 231 L 309 231 L 315 240 L 315 246 L 314 248 L 308 253 L 302 253 L 300 251 L 300 245 L 297 240 L 297 236 Z M 211 230 L 215 235 L 216 239 L 213 245 L 212 252 L 211 253 L 205 253 L 198 247 L 197 241 L 203 231 L 209 231 Z M 330 226 L 330 231 L 325 237 L 323 238 L 318 238 L 315 236 L 313 231 L 319 227 L 322 223 L 325 223 Z M 189 222 L 190 222 L 195 228 L 199 230 L 199 234 L 195 238 L 189 238 L 186 236 L 183 232 L 183 226 Z M 275 224 L 276 222 L 280 219 L 291 219 L 298 221 L 299 228 L 294 234 L 292 234 L 287 231 L 276 231 L 275 230 Z M 215 221 L 222 219 L 233 219 L 238 224 L 238 230 L 237 231 L 226 231 L 221 234 L 219 234 L 214 228 Z M 254 217 L 259 217 L 265 220 L 269 224 L 271 230 L 271 233 L 269 237 L 260 248 L 252 248 L 242 234 L 242 229 L 244 224 L 249 219 Z M 318 210 L 320 212 L 320 218 L 318 222 L 313 226 L 304 227 L 302 224 L 302 215 L 303 213 L 308 208 L 313 207 L 316 210 Z M 194 210 L 198 209 L 199 207 L 202 207 L 209 212 L 211 217 L 211 223 L 208 227 L 202 227 L 198 225 L 194 221 L 193 219 L 193 211 Z M 326 204 L 328 203 L 333 203 L 336 204 L 340 208 L 341 210 L 341 215 L 337 220 L 335 221 L 329 221 L 324 217 L 322 210 L 325 207 Z M 294 203 L 296 203 L 301 209 L 297 217 L 289 217 L 286 214 L 288 208 Z M 212 208 L 217 203 L 219 203 L 224 207 L 226 211 L 226 215 L 223 217 L 216 217 L 214 215 Z M 179 203 L 184 203 L 186 204 L 191 210 L 188 218 L 184 221 L 178 221 L 176 220 L 172 215 L 172 209 L 173 207 Z M 316 202 L 317 201 L 321 201 L 323 203 L 323 205 L 320 208 L 318 208 L 316 206 Z M 190 203 L 192 201 L 195 201 L 197 203 L 197 206 L 193 208 L 190 206 Z M 345 187 L 348 192 L 348 196 L 347 199 L 342 203 L 338 200 L 338 198 L 341 192 L 341 188 L 342 187 Z M 303 187 L 309 187 L 315 192 L 316 198 L 313 203 L 310 205 L 303 204 L 298 198 L 298 192 Z M 201 188 L 203 187 L 210 187 L 214 191 L 215 193 L 215 198 L 211 203 L 204 205 L 201 204 L 196 198 L 197 194 Z M 168 187 L 171 187 L 172 188 L 172 194 L 175 198 L 175 200 L 171 203 L 170 203 L 165 197 L 165 191 Z M 334 181 L 337 185 L 337 192 L 335 196 L 328 201 L 325 201 L 322 198 L 320 198 L 319 197 L 319 191 L 320 189 L 327 183 L 331 181 Z M 178 181 L 181 181 L 187 185 L 194 192 L 194 197 L 191 198 L 188 201 L 182 200 L 176 193 L 176 184 Z M 348 167 L 351 171 L 351 178 L 347 183 L 341 184 L 338 178 L 341 175 L 343 168 L 344 167 Z M 165 167 L 170 169 L 172 175 L 175 178 L 172 184 L 167 184 L 162 179 L 161 174 L 162 173 L 162 170 Z M 310 166 L 317 167 L 321 176 L 324 179 L 324 180 L 317 186 L 315 186 L 313 184 L 309 183 L 306 180 L 305 173 L 306 170 Z M 203 166 L 207 170 L 207 173 L 208 174 L 207 180 L 204 183 L 202 183 L 196 186 L 189 181 L 189 179 L 192 176 L 194 172 L 194 169 L 196 167 Z M 326 160 L 329 161 L 334 160 L 338 165 L 338 171 L 337 173 L 331 178 L 328 177 L 324 173 L 322 169 L 323 163 Z M 179 160 L 181 161 L 187 160 L 190 164 L 190 171 L 189 173 L 183 178 L 177 175 L 174 168 L 175 164 Z M 329 151 L 332 151 L 334 154 L 332 158 L 329 158 L 326 155 Z M 179 153 L 181 151 L 184 151 L 186 153 L 186 156 L 184 158 L 181 158 L 179 156 Z M 340 147 L 343 146 L 348 147 L 353 152 L 353 158 L 350 162 L 348 163 L 342 163 L 336 158 L 336 151 Z M 167 146 L 173 147 L 177 151 L 176 154 L 177 158 L 171 163 L 165 163 L 163 162 L 160 158 L 160 152 L 161 150 Z M 309 146 L 314 144 L 320 146 L 324 150 L 324 158 L 319 162 L 312 162 L 310 161 L 306 155 L 306 151 Z M 199 144 L 205 147 L 207 151 L 207 155 L 203 161 L 197 163 L 196 162 L 193 162 L 188 158 L 189 156 L 188 151 L 193 146 Z M 165 131 L 167 131 L 171 134 L 171 138 L 169 142 L 163 143 L 161 141 L 161 137 L 162 134 Z M 346 130 L 347 130 L 351 135 L 351 142 L 350 143 L 343 142 L 342 141 L 342 136 L 341 134 Z M 328 130 L 331 130 L 334 132 L 338 137 L 338 143 L 334 149 L 331 148 L 327 149 L 322 143 L 322 137 Z M 182 130 L 185 130 L 190 135 L 191 138 L 191 143 L 186 149 L 184 148 L 179 149 L 175 144 L 175 137 L 176 135 Z M 306 120 L 308 120 L 310 122 L 322 127 L 322 130 L 316 139 L 313 139 L 312 140 L 308 139 L 301 133 L 300 131 L 300 125 Z M 207 120 L 211 123 L 213 126 L 213 130 L 211 134 L 205 139 L 202 139 L 201 140 L 197 139 L 194 136 L 194 134 L 191 130 L 191 127 L 194 125 L 197 125 L 205 120 Z M 335 111 L 340 111 L 342 112 L 346 119 L 345 125 L 340 130 L 338 130 L 336 128 L 328 125 L 331 121 L 332 113 Z M 178 111 L 181 113 L 181 119 L 184 125 L 177 128 L 175 130 L 173 130 L 168 125 L 167 118 L 171 112 L 173 111 Z M 313 102 L 319 103 L 325 107 L 328 112 L 328 118 L 326 121 L 317 121 L 313 119 L 309 115 L 308 113 L 308 108 Z M 294 102 L 300 102 L 305 108 L 305 114 L 304 116 L 299 120 L 293 119 L 288 114 L 288 107 Z M 213 102 L 219 102 L 221 103 L 225 108 L 225 113 L 224 115 L 218 120 L 213 120 L 208 115 L 208 108 Z M 199 102 L 201 105 L 205 108 L 205 111 L 203 116 L 198 120 L 193 122 L 187 121 L 185 118 L 185 112 L 187 108 L 191 104 Z M 247 100 L 265 100 L 272 105 L 276 105 L 283 111 L 285 118 L 289 122 L 295 125 L 296 133 L 302 141 L 302 158 L 305 162 L 301 170 L 302 182 L 295 188 L 293 193 L 293 198 L 286 203 L 282 210 L 282 213 L 273 219 L 271 219 L 262 213 L 257 212 L 251 213 L 242 219 L 233 215 L 230 211 L 229 206 L 220 198 L 218 188 L 211 182 L 212 171 L 208 162 L 211 157 L 210 147 L 211 141 L 216 135 L 217 125 L 224 122 L 227 119 L 229 112 L 236 105 L 241 105 Z M 306 97 L 310 100 L 310 102 L 307 105 L 305 105 L 303 103 L 303 100 Z M 206 97 L 210 100 L 210 102 L 207 105 L 205 105 L 203 103 L 203 100 Z M 330 95 L 332 95 L 336 98 L 339 104 L 338 107 L 331 108 L 326 102 L 326 100 Z M 181 95 L 184 96 L 187 100 L 187 102 L 182 108 L 175 107 L 174 106 L 176 99 Z M 281 81 L 282 82 L 281 87 L 284 97 L 279 101 L 274 101 L 268 96 L 269 87 L 271 85 L 274 85 Z M 232 81 L 239 85 L 242 85 L 244 87 L 245 96 L 239 101 L 234 101 L 229 97 L 232 87 L 231 85 L 231 82 Z M 315 80 L 321 81 L 326 86 L 326 93 L 325 95 L 321 99 L 318 100 L 313 100 L 312 98 L 308 95 L 308 86 L 311 82 Z M 194 80 L 200 81 L 204 85 L 206 90 L 205 95 L 203 96 L 200 100 L 194 100 L 192 99 L 187 94 L 186 91 L 188 84 Z M 288 79 L 295 79 L 303 86 L 305 94 L 299 100 L 293 99 L 287 93 L 286 91 L 286 81 Z M 224 79 L 227 82 L 227 90 L 226 93 L 221 98 L 217 100 L 213 100 L 212 98 L 208 95 L 209 87 L 214 81 L 218 79 Z M 260 78 L 264 83 L 265 89 L 262 94 L 258 96 L 255 96 L 250 93 L 248 89 L 248 85 L 252 79 L 258 79 Z M 256 69 L 260 72 L 260 74 L 257 77 L 253 75 L 253 71 Z M 302 69 L 303 68 L 310 70 L 314 75 L 309 79 L 306 80 L 301 76 Z M 209 68 L 211 70 L 212 75 L 207 80 L 205 80 L 203 78 L 200 79 L 199 78 L 199 74 L 203 70 Z M 267 65 L 273 65 L 279 70 L 279 75 L 272 81 L 268 81 L 262 77 L 262 74 L 263 73 L 262 72 L 262 69 Z M 239 65 L 246 65 L 251 69 L 251 72 L 250 73 L 251 76 L 245 81 L 241 81 L 237 79 L 234 75 L 234 70 Z M 285 59 L 292 59 L 297 63 L 298 65 L 298 70 L 295 75 L 288 75 L 285 77 L 283 76 L 283 69 L 281 66 L 281 64 Z M 219 60 L 221 59 L 227 59 L 231 62 L 232 66 L 230 69 L 230 72 L 229 73 L 230 76 L 229 77 L 225 75 L 218 75 L 215 71 L 215 64 Z M 268 54 L 269 53 L 275 53 L 279 55 L 280 58 L 278 61 L 270 60 Z M 233 55 L 236 53 L 243 53 L 244 54 L 244 59 L 239 61 L 235 61 L 233 59 Z M 254 50 L 259 50 L 264 54 L 265 60 L 264 63 L 260 67 L 253 67 L 249 63 L 248 60 L 249 54 Z" fill="currentColor" fill-rule="evenodd"/>
</svg>
