<svg xmlns="http://www.w3.org/2000/svg" viewBox="0 0 512 512" >
  <path d="M 131 69 L 112 101 L 112 128 L 87 123 L 92 155 L 67 164 L 96 191 L 126 193 L 109 216 L 79 212 L 81 232 L 68 241 L 88 273 L 66 288 L 67 297 L 114 336 L 191 347 L 204 363 L 196 390 L 170 414 L 167 437 L 220 444 L 343 438 L 343 416 L 315 389 L 308 362 L 321 347 L 398 336 L 445 296 L 445 287 L 430 280 L 446 242 L 430 177 L 404 171 L 376 209 L 347 173 L 366 142 L 342 141 L 322 155 L 312 144 L 313 167 L 278 179 L 260 205 L 224 217 L 196 247 L 205 290 L 192 291 L 194 282 L 178 268 L 194 236 L 239 191 L 257 132 L 225 146 L 231 105 L 224 69 L 184 128 L 178 115 L 165 120 L 159 95 Z M 339 427 L 338 432 L 331 434 L 304 436 L 303 437 L 274 437 L 273 438 L 209 437 L 176 433 L 172 429 L 173 427 L 180 427 L 188 429 L 213 430 L 214 431 L 299 431 L 300 430 L 331 428 L 337 426 Z M 175 418 L 188 409 L 196 401 L 210 378 L 301 378 L 314 399 L 325 410 L 336 417 L 334 421 L 288 425 L 205 424 L 178 421 Z M 210 365 L 211 364 L 300 364 L 301 365 L 301 371 L 300 372 L 212 372 L 210 368 Z M 200 350 L 201 347 L 209 347 L 210 348 L 307 348 L 308 347 L 311 347 L 312 348 L 310 352 L 303 358 L 209 358 Z M 89 308 L 191 314 L 328 314 L 378 312 L 419 307 L 422 309 L 411 321 L 398 329 L 362 338 L 297 342 L 215 342 L 157 339 L 125 333 L 103 323 Z M 73 293 L 191 298 L 342 298 L 431 293 L 438 295 L 422 301 L 386 305 L 209 308 L 97 302 L 78 298 Z M 83 286 L 87 281 L 95 277 L 100 277 L 105 279 L 111 279 L 112 280 L 115 280 L 119 283 L 116 287 L 112 289 L 110 288 L 84 287 Z M 185 283 L 184 285 L 177 288 L 169 289 L 168 290 L 161 290 L 160 289 L 156 289 L 150 287 L 146 284 L 146 281 L 153 278 L 157 278 L 169 274 L 178 277 Z M 303 253 L 306 255 L 308 259 L 312 263 L 319 268 L 317 272 L 318 277 L 321 282 L 329 289 L 328 291 L 294 291 L 293 290 L 296 286 L 301 274 L 301 271 L 302 270 L 302 254 Z M 202 253 L 205 251 L 295 251 L 296 252 L 295 272 L 290 283 L 287 287 L 282 291 L 216 291 L 209 284 L 205 277 L 203 270 L 203 264 L 202 263 Z M 130 242 L 132 242 L 139 247 L 143 251 L 147 259 L 147 265 L 144 273 L 142 276 L 133 284 L 128 282 L 120 274 L 116 263 L 118 254 L 120 251 Z M 75 241 L 79 239 L 92 239 L 93 240 L 96 240 L 106 246 L 111 252 L 110 267 L 112 272 L 111 273 L 104 272 L 91 266 L 81 255 Z M 186 237 L 187 238 L 187 241 L 185 247 L 178 259 L 173 264 L 167 268 L 153 272 L 152 271 L 152 268 L 153 267 L 152 251 L 153 249 L 159 243 L 165 239 L 171 237 L 175 237 L 176 236 Z M 86 217 L 87 216 L 94 216 L 100 218 L 107 223 L 107 237 L 105 238 L 98 234 L 88 232 L 86 226 Z M 173 214 L 174 215 L 174 229 L 171 231 L 168 231 L 165 233 L 163 233 L 156 237 L 154 235 L 153 223 L 157 219 L 162 216 L 168 214 Z M 213 241 L 219 234 L 223 233 L 224 227 L 227 223 L 232 220 L 237 220 L 243 213 L 247 211 L 256 211 L 259 212 L 266 220 L 272 221 L 276 225 L 278 233 L 283 235 L 286 238 L 288 244 L 287 245 L 214 245 L 213 244 Z M 129 200 L 140 210 L 145 219 L 147 225 L 147 229 L 148 230 L 148 242 L 146 244 L 143 243 L 139 239 L 132 235 L 128 236 L 122 240 L 117 245 L 114 244 L 113 229 L 114 228 L 115 220 L 122 207 Z M 424 195 L 431 203 L 437 214 L 439 221 L 439 227 L 440 228 L 439 246 L 432 265 L 424 277 L 411 289 L 371 290 L 370 289 L 371 287 L 375 286 L 395 272 L 402 265 L 411 253 L 417 241 L 422 224 L 422 217 L 423 216 L 423 200 L 422 199 L 422 196 Z M 415 193 L 416 194 L 416 206 L 417 207 L 416 209 L 416 221 L 411 239 L 401 256 L 385 272 L 376 278 L 355 287 L 342 287 L 338 286 L 332 283 L 326 278 L 328 271 L 352 265 L 366 258 L 376 251 L 394 232 L 405 214 L 405 212 L 411 200 L 412 195 Z M 406 192 L 402 205 L 389 228 L 372 246 L 362 253 L 350 259 L 337 263 L 329 264 L 317 259 L 311 252 L 311 250 L 314 245 L 324 245 L 334 242 L 338 242 L 358 233 L 371 224 L 379 217 L 404 191 Z M 147 191 L 148 190 L 154 192 L 168 192 L 169 191 L 173 191 L 174 192 L 174 206 L 169 208 L 165 208 L 157 212 L 155 212 L 150 201 Z M 130 190 L 135 187 L 137 187 L 139 189 L 142 199 L 140 200 L 135 195 L 131 193 Z M 406 179 L 408 177 L 423 179 L 424 180 L 424 186 L 423 187 L 418 187 L 417 186 L 407 185 L 406 184 Z M 266 208 L 272 195 L 281 185 L 288 180 L 303 174 L 312 173 L 314 175 L 314 177 L 308 179 L 307 182 L 310 185 L 318 186 L 323 185 L 326 182 L 324 178 L 320 177 L 321 174 L 326 174 L 327 175 L 335 175 L 343 178 L 355 186 L 363 195 L 368 205 L 370 216 L 363 222 L 346 232 L 331 237 L 307 240 L 301 246 L 294 244 L 294 240 L 291 234 L 283 227 L 282 222 L 276 216 L 270 214 L 266 210 Z M 77 166 L 82 163 L 96 163 L 106 175 L 113 180 L 119 183 L 121 183 L 122 185 L 118 187 L 106 187 L 96 184 L 88 179 L 77 168 Z M 197 155 L 197 158 L 192 168 L 182 179 L 169 185 L 159 186 L 154 184 L 155 182 L 161 179 L 171 170 L 180 155 L 183 155 L 184 154 L 196 154 Z M 359 147 L 358 151 L 354 158 L 346 165 L 338 168 L 325 168 L 324 167 L 324 165 L 328 158 L 337 150 L 351 146 L 358 146 Z M 249 140 L 250 141 L 249 149 L 245 163 L 236 183 L 229 194 L 222 203 L 206 219 L 190 231 L 186 231 L 184 229 L 184 225 L 186 221 L 188 212 L 195 198 L 195 196 L 204 181 L 215 167 L 227 155 L 237 147 Z M 94 130 L 109 136 L 120 146 L 129 163 L 133 176 L 132 179 L 124 178 L 117 175 L 104 163 L 98 152 L 95 143 L 95 140 L 93 135 L 93 131 Z M 131 129 L 140 137 L 143 143 L 138 153 L 137 158 L 135 160 L 133 159 L 127 146 L 125 144 L 127 135 Z M 174 125 L 176 130 L 176 139 L 175 140 L 175 147 L 170 160 L 166 166 L 160 172 L 154 176 L 142 179 L 140 177 L 140 165 L 146 150 L 150 144 L 163 131 L 170 126 Z M 220 80 L 222 84 L 223 96 L 224 97 L 224 116 L 223 117 L 221 135 L 217 146 L 217 149 L 212 161 L 203 171 L 195 183 L 185 202 L 184 206 L 181 207 L 180 206 L 180 190 L 181 187 L 186 184 L 195 175 L 199 169 L 206 153 L 204 149 L 196 147 L 188 147 L 187 146 L 188 137 L 195 118 L 202 104 L 217 82 Z M 133 77 L 138 80 L 145 87 L 153 98 L 157 106 L 158 114 L 159 115 L 158 125 L 157 128 L 148 136 L 147 136 L 143 130 L 133 121 L 128 121 L 122 131 L 120 130 L 117 122 L 117 107 L 120 98 L 127 84 Z" fill="currentColor" fill-rule="evenodd"/>
</svg>
