<svg xmlns="http://www.w3.org/2000/svg" viewBox="0 0 512 512" >
  <path d="M 107 125 L 82 150 L 70 179 L 65 219 L 73 250 L 97 276 L 127 294 L 205 313 L 157 403 L 189 421 L 211 421 L 222 395 L 228 323 L 260 333 L 283 321 L 297 416 L 307 423 L 322 421 L 351 407 L 355 395 L 337 376 L 309 315 L 381 300 L 409 285 L 432 263 L 445 235 L 447 208 L 429 148 L 380 113 L 287 90 L 240 89 L 174 99 Z M 298 365 L 300 366 L 300 379 L 301 380 L 302 394 L 303 395 L 304 402 L 310 414 L 309 417 L 305 416 L 301 411 L 297 398 L 297 393 L 296 392 L 296 371 Z M 214 364 L 216 369 L 216 393 L 215 394 L 215 399 L 210 413 L 206 417 L 203 417 L 202 414 L 206 407 L 210 394 L 211 383 L 212 382 L 212 365 Z M 306 361 L 308 362 L 309 371 L 311 377 L 311 382 L 316 398 L 320 406 L 324 411 L 324 413 L 321 415 L 319 415 L 315 412 L 309 400 L 309 397 L 307 392 L 307 387 L 306 386 L 306 375 L 305 374 L 305 362 Z M 206 361 L 207 362 L 207 380 L 206 381 L 206 388 L 205 389 L 204 396 L 201 405 L 197 412 L 194 415 L 190 415 L 188 413 L 188 411 L 194 402 L 197 395 L 201 382 L 204 362 Z M 322 360 L 323 360 L 326 364 L 331 375 L 331 377 L 333 379 L 335 384 L 338 388 L 349 398 L 349 400 L 347 402 L 341 401 L 335 395 L 331 389 L 327 381 L 322 366 L 322 363 L 321 362 Z M 190 360 L 191 363 L 185 381 L 181 389 L 172 400 L 169 402 L 164 402 L 162 399 L 168 394 L 176 385 L 183 372 L 183 370 L 188 361 Z M 199 359 L 200 362 L 198 366 L 196 381 L 191 396 L 185 406 L 181 410 L 176 410 L 173 406 L 178 402 L 185 392 L 190 382 L 195 364 L 197 360 Z M 313 358 L 314 358 L 316 361 L 322 382 L 328 394 L 338 406 L 338 408 L 335 410 L 331 410 L 326 405 L 320 394 L 317 385 L 314 366 L 312 361 Z M 319 346 L 319 349 L 318 350 L 308 351 L 302 353 L 296 357 L 293 355 L 293 350 L 299 345 L 309 342 L 314 342 Z M 194 345 L 198 342 L 203 342 L 204 343 L 211 344 L 220 350 L 220 354 L 218 357 L 216 357 L 214 355 L 204 351 L 197 351 L 194 349 Z M 315 334 L 314 336 L 309 336 L 308 337 L 304 337 L 298 339 L 292 343 L 289 341 L 290 336 L 293 333 L 299 330 L 308 329 L 311 330 Z M 198 333 L 200 331 L 205 329 L 214 330 L 222 335 L 224 338 L 224 341 L 221 343 L 212 338 L 199 336 Z M 279 314 L 276 319 L 271 323 L 264 326 L 252 327 L 245 325 L 241 322 L 242 320 L 249 319 L 258 315 L 262 312 L 268 305 L 275 309 Z M 217 302 L 220 304 L 226 312 L 226 314 L 220 326 L 214 324 L 209 324 L 208 323 L 212 310 Z M 280 289 L 284 290 L 298 305 L 303 316 L 303 319 L 304 320 L 304 323 L 303 324 L 298 324 L 293 326 L 291 324 L 291 322 L 284 310 L 273 300 L 273 297 Z M 300 290 L 302 288 L 308 288 L 312 290 L 323 300 L 329 304 L 330 306 L 323 309 L 315 309 L 305 304 L 299 297 Z M 196 286 L 206 286 L 209 285 L 211 287 L 211 289 L 213 292 L 213 297 L 209 303 L 207 303 L 201 297 L 195 288 Z M 319 287 L 320 286 L 326 286 L 331 284 L 337 285 L 355 297 L 357 300 L 354 302 L 347 304 L 342 304 L 336 302 L 322 291 Z M 274 283 L 275 286 L 270 291 L 261 304 L 254 301 L 250 297 L 250 295 L 264 281 L 269 281 Z M 166 280 L 167 279 L 171 279 L 172 280 L 180 280 L 182 281 L 187 286 L 195 299 L 198 302 L 199 305 L 198 306 L 189 306 L 188 305 L 185 305 L 180 302 L 172 293 Z M 343 280 L 344 279 L 352 279 L 353 278 L 360 277 L 366 279 L 382 288 L 384 288 L 385 290 L 379 294 L 372 296 L 367 296 L 359 293 L 346 284 Z M 368 272 L 373 269 L 376 269 L 377 268 L 388 268 L 402 273 L 406 273 L 408 274 L 409 276 L 404 281 L 397 284 L 389 284 L 377 279 L 375 277 L 370 275 Z M 138 269 L 139 268 L 147 269 L 150 272 L 156 275 L 169 299 L 168 300 L 161 300 L 152 296 L 146 290 L 141 280 Z M 270 272 L 278 265 L 285 265 L 287 266 L 292 271 L 295 277 L 295 288 L 292 289 L 279 279 L 273 276 L 271 276 L 270 275 Z M 242 263 L 243 265 L 236 271 L 235 270 L 236 267 L 240 263 Z M 294 263 L 299 260 L 310 260 L 319 264 L 332 273 L 334 276 L 329 279 L 326 279 L 325 280 L 312 279 L 301 273 L 298 270 Z M 198 256 L 206 256 L 211 258 L 208 268 L 208 272 L 207 273 L 203 270 L 197 259 Z M 115 254 L 118 255 L 125 262 L 131 266 L 132 272 L 138 287 L 137 290 L 134 290 L 124 285 L 118 278 L 114 265 L 114 255 Z M 320 257 L 322 255 L 329 253 L 341 254 L 362 265 L 363 267 L 358 271 L 346 273 L 345 272 L 342 272 L 331 266 L 328 263 L 321 259 Z M 429 253 L 429 256 L 426 261 L 418 267 L 408 268 L 407 267 L 399 266 L 392 263 L 400 254 L 405 254 L 406 253 L 424 253 L 425 252 L 428 252 Z M 292 255 L 292 256 L 288 259 L 277 259 L 269 264 L 261 275 L 246 290 L 243 290 L 240 287 L 237 281 L 238 278 L 249 267 L 253 261 L 262 253 L 266 251 L 278 249 L 279 250 L 286 251 Z M 234 249 L 245 249 L 252 252 L 252 254 L 249 257 L 243 256 L 235 259 L 232 262 L 229 268 L 230 280 L 235 290 L 241 298 L 254 308 L 253 311 L 244 314 L 238 313 L 234 311 L 225 302 L 217 288 L 214 278 L 214 269 L 215 268 L 215 265 L 219 258 L 226 252 Z M 168 248 L 169 247 L 171 248 L 177 248 L 185 252 L 189 256 L 201 278 L 200 279 L 192 279 L 182 274 L 176 267 L 170 255 Z M 347 249 L 354 245 L 365 244 L 366 245 L 374 246 L 377 248 L 390 252 L 391 254 L 387 258 L 379 262 L 370 262 L 358 257 L 348 251 Z M 94 241 L 108 252 L 108 265 L 110 271 L 110 274 L 109 275 L 107 275 L 102 272 L 97 267 L 93 260 L 92 248 Z M 142 236 L 148 237 L 154 240 L 161 247 L 164 256 L 170 268 L 172 270 L 171 273 L 163 272 L 152 265 L 145 253 L 142 243 L 142 239 L 141 238 Z M 371 239 L 373 236 L 383 231 L 401 231 L 402 232 L 414 232 L 415 233 L 415 235 L 410 241 L 401 246 L 390 246 Z M 440 229 L 437 239 L 431 245 L 424 247 L 415 247 L 414 246 L 419 240 L 423 232 L 433 229 L 436 227 L 438 227 Z M 79 226 L 81 226 L 90 234 L 88 238 L 87 248 L 85 254 L 84 254 L 79 248 L 76 240 L 76 233 Z M 119 221 L 121 221 L 127 224 L 133 230 L 135 235 L 137 248 L 142 260 L 141 262 L 138 262 L 135 260 L 133 260 L 127 256 L 122 250 L 118 240 L 118 235 L 117 234 L 117 224 Z M 73 212 L 75 213 L 76 219 L 74 222 L 72 221 L 71 215 Z M 431 206 L 430 214 L 427 219 L 419 225 L 416 225 L 415 226 L 403 226 L 402 225 L 393 225 L 392 224 L 392 222 L 397 217 L 404 213 L 417 210 L 428 205 Z M 439 203 L 440 204 L 441 211 L 439 217 L 435 220 L 434 218 L 437 211 L 437 204 Z M 104 203 L 105 203 L 112 211 L 112 223 L 111 224 L 111 235 L 113 241 L 113 245 L 112 246 L 107 244 L 99 236 L 97 233 L 95 226 L 95 218 L 99 208 Z M 109 198 L 109 193 L 111 189 L 121 190 L 128 193 L 122 200 L 115 203 Z M 102 183 L 104 187 L 104 192 L 102 196 L 94 205 L 90 214 L 89 222 L 87 223 L 84 220 L 80 210 L 80 203 L 82 197 L 90 188 L 95 185 Z M 433 174 L 436 181 L 436 186 L 433 194 L 428 199 L 424 201 L 407 206 L 406 204 L 410 195 L 422 184 L 431 174 Z M 394 174 L 400 176 L 405 180 L 405 184 L 407 190 L 403 195 L 401 200 L 398 198 L 396 194 L 395 183 L 393 176 Z M 110 181 L 117 175 L 126 172 L 138 173 L 153 180 L 149 185 L 141 188 L 134 188 L 122 184 L 111 183 Z M 118 213 L 118 209 L 127 204 L 136 194 L 149 192 L 161 183 L 172 183 L 187 175 L 204 175 L 217 169 L 233 171 L 249 166 L 263 170 L 282 167 L 294 172 L 314 171 L 324 177 L 342 178 L 353 185 L 370 188 L 376 194 L 391 199 L 398 208 L 383 225 L 374 228 L 363 238 L 348 241 L 339 247 L 324 248 L 312 254 L 301 254 L 288 245 L 278 243 L 260 248 L 246 243 L 233 243 L 217 252 L 202 249 L 192 250 L 178 242 L 165 242 L 153 232 L 140 230 L 132 220 Z M 110 165 L 108 171 L 102 177 L 94 179 L 88 182 L 84 185 L 78 192 L 76 191 L 76 180 L 79 174 L 84 169 L 89 166 L 95 164 L 100 164 L 101 163 L 106 163 Z M 367 160 L 372 160 L 378 163 L 384 168 L 387 175 L 388 183 L 389 184 L 389 191 L 388 192 L 383 191 L 374 183 L 366 162 Z M 136 165 L 138 163 L 145 160 L 156 159 L 157 160 L 164 161 L 177 168 L 180 172 L 174 176 L 162 177 L 145 169 L 137 167 Z M 382 157 L 384 156 L 387 158 L 392 159 L 397 167 L 396 168 L 391 167 Z M 337 149 L 348 151 L 353 154 L 358 159 L 362 167 L 366 179 L 365 181 L 357 180 L 352 177 L 347 172 L 336 152 Z M 165 154 L 169 151 L 176 149 L 189 150 L 199 155 L 206 160 L 210 165 L 208 167 L 202 169 L 191 169 L 186 167 L 174 159 L 168 156 L 166 156 Z M 418 147 L 420 148 L 426 155 L 428 165 L 425 172 L 412 184 L 411 183 L 411 169 L 415 158 L 416 148 Z M 84 160 L 88 152 L 91 149 L 100 144 L 103 144 L 104 143 L 117 143 L 129 147 L 122 155 L 118 157 L 99 157 L 87 161 Z M 302 144 L 306 142 L 310 142 L 311 143 L 316 143 L 324 147 L 329 152 L 333 158 L 337 167 L 339 169 L 339 171 L 338 172 L 329 172 L 320 168 L 313 161 L 303 147 Z M 197 146 L 201 143 L 205 143 L 206 142 L 216 142 L 217 143 L 220 143 L 228 147 L 242 160 L 242 162 L 238 164 L 223 164 L 220 163 L 211 157 L 207 153 L 198 148 Z M 267 141 L 269 139 L 282 139 L 291 143 L 299 151 L 306 161 L 307 165 L 306 166 L 296 166 L 289 164 L 281 158 Z M 231 141 L 235 139 L 240 139 L 241 138 L 245 138 L 246 139 L 250 139 L 256 141 L 271 155 L 275 161 L 273 163 L 258 163 L 249 158 L 237 146 L 232 143 Z M 394 129 L 402 132 L 409 140 L 410 143 L 410 153 L 406 165 L 405 165 L 398 157 L 396 151 L 395 138 L 393 131 Z M 106 135 L 114 128 L 120 126 L 134 126 L 147 131 L 152 134 L 153 136 L 150 139 L 143 142 L 134 142 L 119 137 L 107 137 Z M 377 153 L 376 155 L 361 153 L 350 145 L 329 143 L 313 136 L 293 137 L 278 132 L 261 135 L 238 132 L 224 137 L 203 136 L 188 143 L 173 143 L 159 149 L 155 153 L 140 155 L 124 167 L 116 167 L 117 163 L 129 158 L 136 149 L 151 146 L 161 138 L 176 138 L 189 131 L 203 132 L 220 126 L 239 128 L 252 124 L 263 127 L 286 125 L 305 131 L 318 130 L 329 136 L 345 137 L 355 144 L 371 147 Z M 368 117 L 376 118 L 385 126 L 389 138 L 389 145 L 390 146 L 390 150 L 389 151 L 384 150 L 376 143 L 373 137 L 369 123 L 367 120 Z M 135 119 L 137 117 L 144 114 L 150 114 L 151 113 L 153 114 L 160 114 L 172 119 L 181 125 L 182 128 L 174 132 L 162 132 L 142 122 L 136 121 Z M 338 107 L 343 107 L 350 109 L 357 114 L 360 118 L 367 136 L 367 139 L 366 140 L 360 139 L 354 136 L 348 130 L 339 111 L 337 109 Z M 167 109 L 169 107 L 175 105 L 188 105 L 189 106 L 192 106 L 204 112 L 214 120 L 214 122 L 207 125 L 194 125 L 187 122 L 172 112 L 168 111 Z M 306 102 L 308 100 L 313 100 L 325 104 L 333 113 L 341 130 L 340 131 L 331 130 L 323 126 L 316 118 L 315 115 Z M 201 101 L 206 99 L 221 99 L 227 101 L 236 107 L 246 117 L 246 119 L 242 121 L 228 121 L 225 120 L 209 108 L 202 104 Z M 271 98 L 274 96 L 284 96 L 293 99 L 302 107 L 311 120 L 312 123 L 311 124 L 300 124 L 290 120 L 282 112 Z M 235 98 L 242 95 L 250 95 L 251 96 L 258 97 L 263 100 L 274 111 L 278 116 L 279 119 L 276 121 L 265 121 L 259 119 L 253 115 L 242 104 L 236 100 Z" fill="currentColor" fill-rule="evenodd"/>
</svg>
