<svg xmlns="http://www.w3.org/2000/svg" viewBox="0 0 512 512" >
  <path d="M 254 65 L 212 77 L 182 103 L 159 149 L 153 194 L 159 232 L 174 266 L 198 294 L 228 311 L 213 327 L 193 399 L 196 418 L 205 431 L 223 442 L 261 447 L 297 438 L 316 417 L 318 392 L 303 338 L 296 323 L 284 311 L 312 296 L 339 264 L 356 218 L 358 177 L 348 135 L 328 100 L 291 72 Z M 237 348 L 239 348 L 245 352 L 254 353 L 255 354 L 263 353 L 269 351 L 273 348 L 276 350 L 276 353 L 278 357 L 278 360 L 280 364 L 284 381 L 287 388 L 288 399 L 289 400 L 287 406 L 282 411 L 275 414 L 267 415 L 266 416 L 245 416 L 244 415 L 236 414 L 230 411 L 225 406 L 223 397 Z M 230 322 L 232 323 L 232 338 L 215 395 L 215 405 L 218 411 L 228 420 L 249 425 L 278 422 L 287 418 L 294 411 L 297 395 L 280 338 L 280 323 L 282 322 L 292 334 L 309 394 L 307 414 L 294 429 L 275 436 L 244 437 L 221 431 L 206 417 L 203 409 L 203 395 L 219 336 Z M 253 251 L 259 251 L 265 253 L 270 258 L 271 261 L 271 335 L 267 341 L 261 344 L 251 344 L 248 343 L 244 340 L 241 334 L 241 261 L 243 257 L 247 253 Z M 247 113 L 259 112 L 269 114 L 285 123 L 297 136 L 304 148 L 311 170 L 313 197 L 309 219 L 301 239 L 294 249 L 282 260 L 271 246 L 261 242 L 251 242 L 242 245 L 230 260 L 218 249 L 211 239 L 201 213 L 199 202 L 199 177 L 205 153 L 214 137 L 227 123 L 236 117 Z M 244 76 L 279 78 L 308 94 L 331 122 L 346 163 L 348 205 L 338 244 L 321 273 L 302 291 L 283 301 L 280 273 L 309 245 L 318 224 L 323 194 L 314 146 L 288 113 L 265 103 L 237 106 L 210 126 L 193 158 L 189 178 L 192 218 L 207 251 L 232 273 L 231 301 L 209 290 L 189 270 L 175 247 L 165 215 L 165 166 L 181 122 L 210 90 Z" fill="currentColor" fill-rule="evenodd"/>
</svg>
