<svg xmlns="http://www.w3.org/2000/svg" viewBox="0 0 512 512" >
  <path d="M 255 190 L 242 201 L 228 217 L 222 226 L 212 249 L 209 265 L 209 296 L 214 326 L 217 330 L 262 332 L 296 330 L 300 321 L 304 293 L 304 266 L 300 245 L 291 226 L 281 212 L 261 192 Z M 256 196 L 260 198 L 280 219 L 288 231 L 296 250 L 299 267 L 299 291 L 296 315 L 293 325 L 253 327 L 252 326 L 229 326 L 219 324 L 214 293 L 214 266 L 217 250 L 221 239 L 230 223 L 237 214 Z M 256 53 L 242 67 L 241 80 L 228 97 L 199 106 L 174 121 L 151 146 L 137 173 L 129 206 L 128 242 L 135 286 L 153 344 L 142 354 L 143 374 L 132 383 L 132 398 L 119 409 L 114 445 L 167 448 L 177 433 L 336 433 L 346 448 L 396 448 L 395 412 L 381 398 L 380 381 L 369 374 L 371 355 L 359 344 L 377 289 L 384 247 L 384 209 L 375 171 L 361 145 L 341 123 L 314 106 L 287 98 L 273 80 L 271 65 Z M 122 432 L 126 411 L 130 407 L 137 405 L 377 405 L 384 408 L 388 414 L 391 440 L 349 441 L 344 430 L 336 426 L 176 426 L 168 431 L 164 441 L 123 441 Z M 139 385 L 142 382 L 371 382 L 374 385 L 374 399 L 140 400 Z M 256 178 L 266 185 L 287 206 L 297 220 L 307 241 L 312 268 L 312 293 L 308 323 L 305 334 L 302 337 L 269 340 L 246 340 L 211 337 L 207 332 L 201 297 L 201 265 L 204 247 L 213 225 L 223 210 L 247 185 Z M 255 161 L 258 161 L 259 162 L 259 169 L 258 170 L 255 170 L 254 169 L 254 162 Z M 211 135 L 246 128 L 239 155 L 247 176 L 214 210 L 196 251 L 195 307 L 200 333 L 207 343 L 289 346 L 306 343 L 313 332 L 319 294 L 317 252 L 299 210 L 266 176 L 274 154 L 267 128 L 285 129 L 313 141 L 331 156 L 347 181 L 355 214 L 354 255 L 343 303 L 324 353 L 323 375 L 189 374 L 189 354 L 161 269 L 158 211 L 176 163 Z M 254 126 L 259 126 L 260 127 L 260 141 L 265 146 L 267 150 L 267 153 L 265 157 L 257 153 L 253 154 L 249 157 L 248 157 L 246 154 L 246 149 L 247 147 L 253 141 L 253 127 Z M 256 62 L 266 71 L 264 84 L 277 92 L 281 104 L 316 115 L 348 140 L 373 188 L 378 230 L 371 283 L 353 341 L 339 357 L 343 363 L 351 352 L 360 352 L 365 364 L 359 375 L 333 375 L 329 365 L 361 256 L 362 212 L 355 182 L 323 139 L 268 119 L 227 122 L 197 134 L 173 155 L 158 181 L 150 218 L 152 258 L 183 369 L 179 375 L 154 375 L 148 366 L 155 351 L 169 363 L 174 358 L 159 339 L 137 258 L 136 208 L 144 175 L 176 129 L 235 102 L 238 91 L 250 84 L 248 71 Z" fill="currentColor" fill-rule="evenodd"/>
</svg>
