<svg xmlns="http://www.w3.org/2000/svg" viewBox="0 0 512 512" >
  <path d="M 120 94 L 90 138 L 74 172 L 66 205 L 66 239 L 79 280 L 105 312 L 148 338 L 179 348 L 186 357 L 189 372 L 158 398 L 154 408 L 157 417 L 184 431 L 235 439 L 306 436 L 351 421 L 357 414 L 356 401 L 324 374 L 326 357 L 334 348 L 367 337 L 405 314 L 432 282 L 446 239 L 446 205 L 437 169 L 398 100 L 385 90 L 359 82 L 270 74 L 179 78 Z M 164 406 L 173 396 L 192 383 L 215 391 L 244 395 L 280 394 L 301 390 L 320 383 L 339 396 L 347 404 L 348 411 L 340 417 L 315 425 L 275 430 L 237 430 L 215 428 L 182 421 L 166 413 L 164 411 Z M 318 353 L 314 362 L 314 375 L 313 376 L 295 382 L 291 382 L 285 384 L 278 384 L 277 385 L 266 385 L 265 386 L 247 386 L 246 385 L 227 384 L 201 377 L 198 375 L 198 363 L 195 356 L 196 353 L 202 353 L 208 355 L 232 357 L 233 358 L 280 358 L 281 357 L 305 355 L 316 352 Z M 76 202 L 89 160 L 117 116 L 163 132 L 238 139 L 338 134 L 367 128 L 395 116 L 428 172 L 438 224 L 434 252 L 424 277 L 402 304 L 378 321 L 347 335 L 304 346 L 233 349 L 163 334 L 133 320 L 106 300 L 88 277 L 79 255 L 75 235 Z M 123 104 L 141 95 L 184 87 L 220 84 L 293 84 L 360 92 L 380 98 L 390 106 L 384 111 L 366 118 L 332 125 L 288 129 L 224 129 L 158 121 L 132 113 L 125 109 Z" fill="currentColor" fill-rule="evenodd"/>
</svg>
