<svg xmlns="http://www.w3.org/2000/svg" viewBox="0 0 512 512" >
  <path d="M 236 343 L 234 345 L 234 354 L 238 363 L 247 371 L 253 373 L 258 372 L 259 370 L 257 367 L 251 366 L 247 364 L 243 360 L 240 354 L 240 345 L 238 343 Z M 255 275 L 252 277 L 227 317 L 221 329 L 218 339 L 217 352 L 219 362 L 223 371 L 235 384 L 248 390 L 265 390 L 271 388 L 281 382 L 289 373 L 294 363 L 296 355 L 296 343 L 292 329 L 279 305 L 261 277 L 258 275 Z M 256 285 L 259 287 L 276 314 L 284 329 L 288 341 L 288 357 L 284 367 L 276 376 L 270 380 L 264 382 L 260 382 L 259 383 L 249 382 L 237 376 L 230 368 L 225 356 L 225 342 L 228 332 L 239 311 Z M 201 234 L 201 238 L 209 242 L 222 246 L 227 246 L 233 248 L 244 248 L 245 249 L 268 249 L 269 248 L 280 248 L 286 246 L 291 246 L 307 241 L 311 239 L 313 236 L 311 233 L 308 233 L 296 238 L 288 239 L 287 240 L 282 240 L 281 241 L 273 241 L 272 242 L 242 242 L 241 241 L 232 241 L 226 239 L 221 239 L 217 237 L 214 237 L 206 233 L 202 233 Z M 255 65 L 238 81 L 228 98 L 225 113 L 231 132 L 210 146 L 209 186 L 204 190 L 204 209 L 211 217 L 194 224 L 180 246 L 179 412 L 186 428 L 205 440 L 233 446 L 268 447 L 309 440 L 322 433 L 333 418 L 334 251 L 326 231 L 318 223 L 303 217 L 310 208 L 310 191 L 304 186 L 304 147 L 299 140 L 283 132 L 288 119 L 286 98 L 275 80 Z M 189 417 L 192 416 L 201 421 L 214 425 L 218 425 L 223 427 L 238 428 L 239 429 L 273 429 L 274 428 L 290 427 L 315 420 L 322 416 L 324 418 L 313 429 L 292 436 L 279 437 L 278 438 L 236 438 L 235 437 L 222 436 L 207 432 L 197 427 L 191 421 Z M 220 217 L 247 221 L 279 220 L 293 217 L 296 224 L 308 227 L 316 232 L 325 246 L 326 406 L 312 415 L 274 423 L 239 423 L 207 417 L 195 412 L 187 405 L 188 247 L 192 238 L 201 229 L 216 225 Z M 212 198 L 213 197 L 216 197 L 221 199 L 231 200 L 232 201 L 240 201 L 241 202 L 274 202 L 275 201 L 288 200 L 293 198 L 301 197 L 302 198 L 302 205 L 297 208 L 294 208 L 285 211 L 278 211 L 277 212 L 263 212 L 262 213 L 237 212 L 236 211 L 224 210 L 214 207 L 212 205 Z M 218 158 L 219 157 L 222 157 L 223 158 L 227 158 L 233 160 L 243 160 L 244 161 L 270 161 L 271 160 L 280 160 L 281 159 L 286 159 L 291 157 L 295 157 L 296 158 L 296 189 L 287 192 L 272 193 L 271 194 L 242 194 L 241 193 L 234 193 L 233 192 L 227 192 L 226 191 L 219 190 L 218 189 Z M 221 146 L 223 144 L 225 144 L 228 142 L 236 141 L 237 140 L 244 142 L 270 142 L 277 140 L 278 141 L 288 143 L 292 145 L 293 148 L 289 150 L 279 151 L 278 152 L 250 153 L 249 152 L 236 152 L 235 151 L 225 150 L 222 149 Z M 256 75 L 258 75 L 271 88 L 278 100 L 280 107 L 280 117 L 278 123 L 275 128 L 270 133 L 244 133 L 238 127 L 234 117 L 234 107 L 239 94 L 243 88 Z" fill="currentColor" fill-rule="evenodd"/>
</svg>
