<svg xmlns="http://www.w3.org/2000/svg" viewBox="0 0 512 512" >
  <path d="M 130 346 L 128 344 L 122 345 L 93 359 L 91 361 L 91 364 L 93 366 L 96 366 L 99 364 L 101 364 L 118 355 L 120 355 L 128 351 L 130 349 Z M 277 343 L 277 347 L 281 350 L 283 350 L 314 364 L 318 361 L 317 357 L 311 354 L 309 354 L 283 342 L 278 342 Z M 121 312 L 118 310 L 114 310 L 113 311 L 98 311 L 97 312 L 81 312 L 77 315 L 77 318 L 79 320 L 103 319 L 104 318 L 118 318 L 121 316 Z M 282 312 L 284 316 L 325 316 L 326 315 L 326 310 L 325 309 L 285 309 Z M 309 270 L 307 268 L 301 269 L 298 271 L 279 277 L 276 280 L 276 282 L 279 285 L 281 285 L 284 283 L 292 281 L 295 279 L 307 275 L 309 273 Z M 84 266 L 84 270 L 87 272 L 96 274 L 123 283 L 127 281 L 127 278 L 126 276 L 118 274 L 88 264 L 86 264 Z M 280 238 L 276 239 L 261 252 L 260 255 L 263 258 L 265 258 L 282 244 L 282 240 Z M 106 226 L 109 231 L 138 253 L 142 253 L 143 252 L 143 248 L 113 224 L 109 223 Z M 200 191 L 194 195 L 190 204 L 180 208 L 177 213 L 179 225 L 185 230 L 193 231 L 193 239 L 187 251 L 164 264 L 153 278 L 150 287 L 138 294 L 138 302 L 143 307 L 143 335 L 149 352 L 161 368 L 179 380 L 179 388 L 184 396 L 183 405 L 177 412 L 164 416 L 148 428 L 146 441 L 153 447 L 256 447 L 262 441 L 259 426 L 230 411 L 224 396 L 229 389 L 229 380 L 249 366 L 261 347 L 266 325 L 265 307 L 270 302 L 270 295 L 267 290 L 258 287 L 252 273 L 244 264 L 222 252 L 215 239 L 215 231 L 223 230 L 230 224 L 231 213 L 227 207 L 217 203 L 212 193 Z M 153 435 L 154 432 L 157 429 L 160 428 L 249 428 L 254 432 L 255 438 L 254 439 L 155 439 Z M 179 419 L 185 415 L 188 411 L 191 404 L 191 398 L 192 397 L 216 397 L 217 398 L 217 403 L 219 409 L 229 420 L 228 421 L 180 421 Z M 186 383 L 189 382 L 195 384 L 213 384 L 214 383 L 221 382 L 222 383 L 222 387 L 219 390 L 189 390 L 186 386 Z M 203 325 L 206 326 L 208 331 L 211 334 L 218 338 L 215 342 L 209 345 L 207 350 L 205 352 L 203 352 L 201 350 L 198 344 L 195 343 L 190 339 L 191 337 L 194 336 L 200 331 Z M 150 310 L 152 308 L 204 309 L 194 327 L 178 337 L 179 342 L 194 351 L 200 364 L 203 366 L 207 365 L 216 349 L 230 341 L 230 337 L 227 334 L 218 330 L 214 326 L 208 314 L 204 311 L 205 308 L 256 308 L 258 310 L 257 336 L 249 354 L 232 370 L 216 376 L 188 375 L 169 365 L 157 351 L 150 332 Z M 145 297 L 147 295 L 261 295 L 263 297 L 263 299 L 261 301 L 147 301 L 145 299 Z M 158 285 L 163 276 L 172 267 L 178 263 L 192 258 L 209 257 L 210 258 L 217 258 L 226 261 L 236 267 L 245 276 L 249 282 L 250 287 L 249 288 L 159 288 Z M 195 248 L 197 245 L 201 243 L 207 243 L 213 247 L 212 250 L 196 250 Z M 202 198 L 206 198 L 209 201 L 210 205 L 208 208 L 208 211 L 211 214 L 213 214 L 216 212 L 221 212 L 224 215 L 224 220 L 221 223 L 216 223 L 214 221 L 209 222 L 208 224 L 208 235 L 207 236 L 201 236 L 200 235 L 200 223 L 199 222 L 195 221 L 192 223 L 188 223 L 186 222 L 184 219 L 184 215 L 187 212 L 192 212 L 195 214 L 197 214 L 200 211 L 199 201 Z M 133 180 L 132 181 L 132 184 L 143 198 L 159 216 L 162 215 L 163 210 L 147 190 L 137 179 Z M 129 81 L 127 93 L 132 101 L 132 111 L 150 126 L 156 140 L 206 165 L 268 217 L 288 226 L 320 232 L 327 277 L 338 300 L 415 338 L 424 335 L 431 315 L 436 268 L 436 205 L 432 180 L 426 168 L 357 150 L 344 155 L 280 102 L 224 80 L 160 65 L 153 70 L 150 78 L 135 77 Z M 329 233 L 332 233 L 345 240 L 347 240 L 355 245 L 355 253 L 354 254 L 354 262 L 352 268 L 352 273 L 350 278 L 350 282 L 345 294 L 343 294 L 341 292 L 334 275 L 334 272 L 331 263 L 330 253 L 329 252 L 329 243 L 328 242 L 328 234 Z M 387 166 L 420 173 L 424 179 L 427 191 L 429 217 L 428 279 L 425 307 L 422 322 L 418 330 L 410 328 L 378 312 L 387 283 L 392 251 L 393 213 L 391 191 L 386 171 Z M 359 159 L 374 162 L 377 165 L 383 187 L 384 202 L 385 203 L 385 247 L 384 248 L 383 264 L 377 292 L 373 303 L 370 307 L 367 307 L 352 299 L 360 271 L 362 250 L 363 249 L 363 239 L 364 238 L 364 187 L 363 186 L 362 172 L 360 164 L 358 161 Z M 134 87 L 154 87 L 236 126 L 244 135 L 221 135 L 214 144 L 218 159 L 252 178 L 282 207 L 320 216 L 321 208 L 285 200 L 255 171 L 221 149 L 226 141 L 280 152 L 285 145 L 258 139 L 236 117 L 164 86 L 158 76 L 167 73 L 277 109 L 326 152 L 353 167 L 356 235 L 273 211 L 212 160 L 158 129 L 203 145 L 208 142 L 205 137 L 147 116 L 139 107 L 212 133 L 215 126 L 143 99 Z" fill="currentColor" fill-rule="evenodd"/>
</svg>
