<svg xmlns="http://www.w3.org/2000/svg" viewBox="0 0 512 512" >
  <path d="M 330 328 L 325 324 L 315 324 L 302 327 L 299 329 L 302 341 L 296 347 L 289 351 L 266 357 L 238 357 L 219 352 L 211 348 L 207 344 L 206 341 L 210 331 L 206 329 L 184 326 L 179 327 L 176 330 L 176 335 L 178 339 L 188 349 L 206 359 L 233 366 L 263 367 L 289 362 L 312 352 L 327 339 L 330 333 Z M 294 337 L 289 327 L 278 317 L 269 313 L 254 311 L 253 312 L 246 312 L 239 314 L 228 320 L 220 328 L 214 340 L 217 343 L 229 348 L 237 349 L 238 350 L 245 350 L 246 351 L 258 351 L 259 350 L 272 349 L 276 347 L 282 346 L 292 341 L 294 339 Z M 92 323 L 94 325 L 114 327 L 115 328 L 121 328 L 123 329 L 129 322 L 136 311 L 134 309 L 105 305 L 99 312 Z M 252 251 L 252 253 L 254 255 L 262 256 L 263 257 L 269 257 L 270 258 L 278 258 L 279 259 L 313 259 L 314 258 L 322 258 L 325 257 L 326 255 L 325 254 L 323 242 L 320 233 L 311 233 L 310 234 L 282 234 L 281 233 L 273 233 L 272 232 L 259 231 L 257 234 L 254 247 Z M 383 237 L 370 218 L 366 219 L 359 223 L 344 228 L 333 230 L 329 232 L 333 250 L 336 255 L 344 254 L 366 247 L 382 239 Z M 197 228 L 200 232 L 211 239 L 228 247 L 240 251 L 243 250 L 250 231 L 250 229 L 248 227 L 230 221 L 216 214 L 214 212 L 211 212 Z M 241 213 L 242 216 L 256 221 L 260 221 L 265 223 L 271 223 L 272 224 L 280 224 L 281 225 L 310 225 L 311 224 L 324 223 L 328 221 L 328 218 L 321 203 L 319 196 L 316 191 L 316 189 L 309 174 L 307 173 L 263 172 Z M 120 113 L 115 119 L 115 124 L 119 129 L 126 130 L 132 125 L 133 122 L 132 121 L 132 118 L 131 116 L 127 113 Z M 79 105 L 73 119 L 74 139 L 107 173 L 124 228 L 99 256 L 92 279 L 95 291 L 76 300 L 66 312 L 65 349 L 77 364 L 97 371 L 98 395 L 109 408 L 132 417 L 157 418 L 194 403 L 216 417 L 261 421 L 294 415 L 312 403 L 336 416 L 366 418 L 386 413 L 403 401 L 408 372 L 431 367 L 448 354 L 450 311 L 428 291 L 419 263 L 439 256 L 447 243 L 413 236 L 420 219 L 387 169 L 361 144 L 313 123 L 256 122 L 209 139 L 173 168 L 166 124 L 150 103 L 109 91 L 91 95 Z M 398 386 L 391 394 L 383 398 L 376 400 L 372 400 L 371 401 L 365 401 L 364 402 L 351 402 L 350 401 L 339 400 L 329 397 L 320 391 L 321 388 L 323 387 L 328 390 L 340 394 L 344 394 L 345 395 L 360 395 L 361 396 L 362 395 L 370 395 L 371 394 L 379 393 L 385 390 L 387 390 L 395 385 Z M 106 385 L 108 384 L 115 389 L 117 389 L 125 393 L 133 394 L 134 395 L 140 395 L 141 396 L 142 395 L 151 395 L 152 396 L 153 395 L 165 394 L 174 391 L 179 388 L 182 388 L 184 391 L 181 394 L 170 399 L 162 400 L 161 401 L 155 401 L 154 402 L 141 402 L 140 401 L 128 400 L 119 397 L 112 393 L 107 388 Z M 105 361 L 112 352 L 118 348 L 128 344 L 142 341 L 163 342 L 168 353 L 167 357 L 142 352 L 136 352 L 125 368 L 125 371 L 155 377 L 157 376 L 167 360 L 169 359 L 171 361 L 178 379 L 174 382 L 155 387 L 132 386 L 122 383 L 113 378 L 107 372 L 105 368 Z M 326 379 L 335 358 L 337 359 L 346 374 L 350 377 L 361 374 L 376 372 L 380 370 L 379 367 L 368 352 L 362 352 L 356 354 L 340 356 L 336 358 L 335 356 L 337 353 L 339 345 L 343 341 L 356 340 L 378 344 L 390 350 L 398 358 L 400 363 L 398 371 L 390 379 L 382 383 L 372 386 L 350 387 L 336 384 Z M 75 341 L 77 340 L 85 345 L 95 348 L 99 348 L 101 349 L 102 351 L 99 355 L 87 352 L 78 347 L 76 345 Z M 439 340 L 438 343 L 433 348 L 425 352 L 419 354 L 415 354 L 414 355 L 409 355 L 408 356 L 404 353 L 404 351 L 407 349 L 412 349 L 413 348 L 421 347 L 427 344 L 429 344 L 437 339 Z M 168 327 L 171 323 L 179 319 L 192 319 L 213 324 L 221 316 L 232 309 L 244 305 L 262 304 L 283 311 L 294 321 L 313 317 L 331 318 L 338 325 L 338 334 L 334 343 L 324 354 L 306 365 L 282 373 L 259 376 L 244 376 L 214 371 L 191 361 L 179 352 L 172 344 L 168 336 Z M 334 307 L 342 301 L 351 299 L 353 301 L 353 309 L 357 313 L 376 318 L 396 318 L 407 316 L 417 312 L 423 308 L 429 301 L 440 309 L 442 313 L 442 321 L 434 330 L 424 335 L 409 339 L 388 340 L 379 337 L 378 335 L 411 331 L 426 325 L 431 321 L 432 317 L 429 316 L 420 321 L 405 325 L 373 326 L 360 324 L 344 319 L 334 311 Z M 73 315 L 79 307 L 92 300 L 102 298 L 103 297 L 108 297 L 109 296 L 125 296 L 126 297 L 131 297 L 132 298 L 139 299 L 149 304 L 151 306 L 151 311 L 154 315 L 156 316 L 156 320 L 148 329 L 139 334 L 124 337 L 121 339 L 101 339 L 87 335 L 81 332 L 73 323 Z M 340 284 L 339 286 L 329 290 L 321 291 L 320 292 L 315 292 L 314 293 L 306 293 L 305 294 L 277 294 L 276 293 L 269 293 L 268 292 L 257 291 L 250 288 L 250 287 L 253 285 L 264 286 L 265 287 L 272 287 L 273 288 L 309 288 L 310 287 L 325 286 L 326 285 L 336 284 L 337 283 Z M 233 267 L 232 271 L 226 277 L 221 286 L 216 305 L 212 310 L 202 314 L 194 314 L 193 313 L 193 309 L 195 303 L 193 300 L 190 300 L 187 303 L 184 312 L 183 313 L 178 312 L 176 310 L 176 306 L 178 302 L 178 298 L 176 296 L 174 296 L 171 299 L 167 308 L 161 306 L 162 299 L 165 293 L 168 290 L 169 284 L 175 269 L 179 263 L 188 255 L 195 252 L 206 253 L 219 260 L 230 264 Z M 397 249 L 407 261 L 413 274 L 413 277 L 415 282 L 415 287 L 416 288 L 416 295 L 414 301 L 406 307 L 397 309 L 396 308 L 396 298 L 394 296 L 391 296 L 388 300 L 387 309 L 386 310 L 380 310 L 377 308 L 378 306 L 378 296 L 375 294 L 372 296 L 370 300 L 369 306 L 368 307 L 363 306 L 362 305 L 362 297 L 365 290 L 365 284 L 362 277 L 357 270 L 358 267 L 366 263 L 371 262 L 380 257 L 382 257 L 393 250 Z M 129 237 L 135 246 L 146 256 L 149 260 L 139 270 L 133 282 L 133 284 L 129 288 L 124 288 L 123 287 L 123 283 L 124 282 L 124 278 L 123 277 L 120 277 L 117 281 L 116 286 L 115 287 L 112 287 L 110 285 L 111 278 L 112 277 L 110 274 L 108 274 L 106 276 L 104 282 L 101 283 L 100 282 L 100 279 L 101 278 L 102 271 L 109 254 L 119 242 L 123 239 Z M 179 175 L 185 170 L 208 197 L 230 209 L 254 167 L 234 143 L 192 167 L 191 163 L 210 148 L 240 136 L 263 163 L 309 165 L 339 141 L 364 157 L 386 182 L 383 186 L 358 159 L 339 150 L 318 170 L 339 217 L 358 213 L 391 191 L 395 198 L 378 216 L 390 232 L 407 219 L 411 223 L 391 242 L 351 260 L 299 268 L 256 264 L 210 246 L 187 228 L 183 221 L 191 223 L 205 206 Z M 249 133 L 254 131 L 268 130 L 269 129 L 293 129 L 294 130 L 303 130 L 304 131 L 309 131 L 314 133 L 318 133 L 322 135 L 325 135 L 327 136 L 328 138 L 326 140 L 322 140 L 318 138 L 306 136 L 305 135 L 286 134 L 285 133 L 266 134 L 265 135 L 252 137 Z M 98 101 L 120 100 L 135 104 L 144 109 L 153 118 L 159 129 L 168 207 L 178 230 L 191 243 L 172 258 L 155 252 L 142 241 L 145 239 L 161 247 L 169 246 L 168 243 L 151 234 L 139 223 L 128 206 L 122 180 L 116 166 L 93 151 L 83 139 L 83 133 L 97 141 L 106 143 L 112 142 L 116 138 L 113 135 L 99 134 L 81 123 L 83 114 L 87 108 Z" fill="currentColor" fill-rule="evenodd"/>
</svg>
