<svg xmlns="http://www.w3.org/2000/svg" viewBox="0 0 512 512" >
  <path d="M 320 143 L 317 145 L 315 150 L 316 153 L 319 156 L 324 157 L 329 153 L 329 147 L 328 145 L 325 143 Z M 187 143 L 183 148 L 183 151 L 185 155 L 188 157 L 194 156 L 197 152 L 197 147 L 193 143 Z M 155 78 L 147 98 L 160 117 L 124 109 L 131 132 L 155 141 L 142 199 L 102 240 L 73 293 L 85 299 L 66 317 L 94 323 L 65 379 L 77 421 L 105 431 L 152 411 L 129 363 L 138 316 L 179 371 L 244 414 L 256 439 L 266 417 L 330 374 L 375 317 L 383 366 L 361 412 L 383 427 L 430 426 L 447 376 L 419 323 L 446 317 L 427 299 L 440 294 L 413 244 L 373 204 L 358 142 L 383 130 L 389 109 L 355 119 L 364 85 L 338 78 L 334 99 L 347 101 L 338 88 L 351 82 L 356 104 L 306 128 L 263 173 L 305 183 L 292 257 L 309 294 L 340 320 L 322 358 L 297 320 L 260 331 L 273 277 L 256 248 L 239 283 L 253 332 L 213 321 L 188 357 L 172 321 L 208 288 L 221 254 L 206 187 L 220 173 L 249 172 L 208 129 L 164 111 L 156 86 L 174 87 L 170 103 L 181 87 Z M 217 326 L 234 327 L 248 339 L 251 353 L 243 365 L 232 367 L 222 360 L 221 354 L 225 349 L 231 351 L 231 356 L 237 353 L 236 347 L 231 343 L 221 344 L 216 350 L 215 359 L 223 370 L 230 373 L 239 373 L 252 366 L 256 396 L 259 389 L 260 366 L 270 372 L 283 373 L 291 369 L 297 361 L 297 351 L 289 343 L 282 343 L 276 348 L 278 356 L 281 356 L 283 349 L 290 351 L 291 359 L 286 365 L 275 367 L 263 358 L 262 344 L 276 328 L 295 326 L 311 338 L 315 349 L 313 367 L 299 384 L 273 401 L 256 420 L 242 403 L 211 382 L 200 368 L 197 354 L 200 341 L 209 330 Z M 402 318 L 406 319 L 408 322 L 411 324 L 428 345 L 438 365 L 438 368 L 440 372 L 440 377 L 441 378 L 441 393 L 440 394 L 440 398 L 438 405 L 433 414 L 426 421 L 418 425 L 410 425 L 404 422 L 411 409 L 416 393 L 416 388 L 417 387 L 417 366 L 416 365 L 416 359 L 415 358 L 414 351 L 410 339 L 401 321 Z M 111 318 L 112 320 L 105 333 L 105 335 L 100 346 L 100 349 L 97 357 L 96 372 L 95 373 L 95 382 L 96 383 L 96 390 L 97 391 L 98 399 L 102 410 L 108 420 L 108 422 L 103 425 L 95 425 L 88 422 L 79 413 L 75 406 L 72 396 L 72 376 L 77 359 L 88 340 L 97 329 L 107 319 Z M 380 309 L 389 313 L 394 319 L 403 337 L 410 359 L 410 365 L 411 366 L 411 386 L 410 387 L 410 392 L 406 405 L 401 415 L 396 421 L 385 421 L 373 415 L 369 411 L 382 390 L 388 373 L 389 361 L 390 360 L 389 339 L 384 322 L 379 311 Z M 132 309 L 133 310 L 133 313 L 129 321 L 125 333 L 125 337 L 123 343 L 123 365 L 129 386 L 136 400 L 143 409 L 143 412 L 131 420 L 128 420 L 127 421 L 116 421 L 112 416 L 106 404 L 103 394 L 102 381 L 101 380 L 102 363 L 103 362 L 104 353 L 109 338 L 119 318 L 123 313 Z M 255 258 L 257 258 L 260 261 L 265 271 L 265 274 L 267 279 L 266 293 L 257 314 L 254 312 L 253 307 L 250 302 L 246 290 L 246 277 L 247 276 L 247 273 L 252 262 Z M 345 219 L 358 214 L 370 215 L 385 222 L 399 235 L 408 248 L 417 270 L 414 271 L 405 267 L 388 253 L 386 256 L 399 270 L 410 276 L 419 278 L 426 289 L 425 291 L 408 290 L 385 281 L 372 270 L 364 259 L 365 268 L 373 280 L 388 290 L 406 296 L 418 297 L 431 313 L 430 316 L 414 315 L 392 308 L 368 294 L 350 278 L 340 265 L 333 244 L 336 229 Z M 169 220 L 177 230 L 179 249 L 172 266 L 152 288 L 132 302 L 107 313 L 82 316 L 81 314 L 94 297 L 114 294 L 130 287 L 144 275 L 148 267 L 148 259 L 143 267 L 126 282 L 104 290 L 88 291 L 87 289 L 93 278 L 107 274 L 115 269 L 127 255 L 124 253 L 109 266 L 98 271 L 95 270 L 104 249 L 112 237 L 129 221 L 142 215 L 154 214 Z M 363 194 L 367 207 L 346 211 L 333 222 L 327 237 L 327 248 L 330 259 L 339 275 L 355 292 L 370 303 L 371 310 L 365 316 L 353 321 L 344 348 L 338 357 L 324 371 L 318 374 L 318 369 L 329 361 L 340 347 L 346 330 L 346 318 L 324 301 L 307 280 L 298 255 L 298 233 L 303 217 L 310 204 L 336 204 Z M 150 193 L 163 200 L 177 204 L 203 204 L 214 231 L 214 258 L 205 281 L 185 304 L 166 318 L 167 332 L 172 346 L 178 355 L 194 369 L 195 375 L 185 368 L 171 352 L 165 341 L 160 322 L 149 317 L 141 310 L 143 303 L 172 277 L 183 258 L 186 243 L 183 228 L 173 215 L 158 208 L 145 207 Z M 283 164 L 284 162 L 288 160 L 294 160 L 297 162 L 294 167 L 285 166 Z M 216 162 L 218 160 L 224 160 L 229 162 L 230 164 L 228 166 L 219 167 Z M 302 141 L 310 134 L 316 131 L 320 131 L 321 130 L 332 131 L 344 137 L 349 141 L 354 147 L 359 156 L 362 166 L 362 171 L 363 172 L 363 185 L 354 191 L 352 191 L 341 196 L 333 197 L 332 198 L 325 198 L 324 199 L 322 198 L 313 198 L 312 197 L 312 194 L 313 193 L 312 183 L 308 176 L 301 170 L 301 167 L 306 160 L 297 154 L 298 148 Z M 181 131 L 191 130 L 203 134 L 211 142 L 216 152 L 215 155 L 212 156 L 207 160 L 212 168 L 212 170 L 203 178 L 200 185 L 200 197 L 199 198 L 189 199 L 188 198 L 180 198 L 179 197 L 171 196 L 155 189 L 150 185 L 150 168 L 156 151 L 160 145 L 167 138 L 173 134 Z M 380 122 L 379 125 L 374 130 L 369 133 L 366 133 L 365 134 L 355 134 L 346 131 L 337 126 L 338 124 L 366 125 L 367 124 L 375 123 L 378 121 Z M 133 122 L 135 121 L 138 123 L 146 124 L 147 125 L 174 124 L 175 126 L 161 133 L 148 134 L 140 131 L 133 124 Z" fill="currentColor" fill-rule="evenodd"/>
</svg>
