<svg xmlns="http://www.w3.org/2000/svg" viewBox="0 0 512 512" >
  <path d="M 188 157 L 191 161 L 196 164 L 201 169 L 200 171 L 193 171 L 189 173 L 196 181 L 198 185 L 197 186 L 194 186 L 193 185 L 181 185 L 179 186 L 179 187 L 188 195 L 191 200 L 191 202 L 193 203 L 194 202 L 194 195 L 193 194 L 194 192 L 199 193 L 202 195 L 205 195 L 206 194 L 206 188 L 202 180 L 202 178 L 204 177 L 209 179 L 211 178 L 211 174 L 207 167 L 201 161 L 193 157 Z M 153 146 L 151 145 L 150 146 L 138 146 L 135 147 L 128 152 L 123 160 L 125 161 L 132 158 L 142 157 L 147 154 L 152 149 Z M 185 83 L 182 89 L 180 99 L 175 113 L 173 116 L 172 121 L 174 123 L 176 122 L 178 119 L 179 115 L 182 110 L 185 99 L 187 98 L 189 102 L 189 106 L 191 112 L 191 123 L 189 129 L 189 135 L 192 136 L 194 135 L 196 129 L 197 113 L 196 112 L 196 106 L 192 93 L 189 86 Z M 137 68 L 137 114 L 104 156 L 73 172 L 93 193 L 139 201 L 123 283 L 144 345 L 143 417 L 127 429 L 128 442 L 164 447 L 178 438 L 196 371 L 226 414 L 192 427 L 196 446 L 288 446 L 316 433 L 359 432 L 388 418 L 422 381 L 440 322 L 429 263 L 387 197 L 388 179 L 404 156 L 374 155 L 345 167 L 325 185 L 309 218 L 312 266 L 350 340 L 349 369 L 338 388 L 333 342 L 312 300 L 232 230 L 230 165 L 215 138 L 212 104 L 199 75 L 182 66 L 166 93 Z M 149 327 L 154 331 L 156 334 L 156 337 L 158 341 L 159 349 L 160 350 L 160 360 L 161 361 L 161 389 L 160 390 L 160 400 L 159 401 L 159 407 L 158 408 L 158 413 L 157 414 L 156 421 L 154 423 L 146 426 L 141 431 L 139 435 L 139 438 L 138 439 L 135 439 L 132 436 L 133 431 L 139 425 L 144 424 L 147 422 L 150 415 L 150 411 L 152 405 L 153 370 L 152 369 L 151 348 L 150 347 L 150 342 L 149 341 L 148 332 L 147 331 L 147 328 Z M 410 245 L 426 273 L 433 303 L 432 335 L 422 367 L 401 398 L 379 416 L 349 428 L 323 429 L 322 426 L 332 409 L 334 401 L 340 397 L 350 384 L 357 361 L 357 343 L 354 329 L 330 288 L 327 271 L 330 268 L 339 277 L 361 291 L 364 282 L 364 264 L 366 263 L 377 272 L 387 287 L 393 273 L 394 255 L 396 254 L 406 265 L 408 246 Z M 389 160 L 390 163 L 386 168 L 380 183 L 380 197 L 385 211 L 400 233 L 403 243 L 403 251 L 401 252 L 394 245 L 389 242 L 388 243 L 389 266 L 388 272 L 386 274 L 374 262 L 359 254 L 358 283 L 341 272 L 333 264 L 327 254 L 323 261 L 323 268 L 321 269 L 315 252 L 314 228 L 317 214 L 326 195 L 340 179 L 353 170 L 370 163 Z M 143 77 L 152 85 L 161 97 L 163 101 L 163 104 L 161 108 L 151 109 L 146 111 L 144 110 L 144 98 L 143 97 L 143 88 L 142 87 L 142 78 Z M 186 72 L 202 96 L 207 139 L 223 166 L 228 238 L 302 298 L 327 344 L 331 387 L 325 409 L 312 428 L 294 438 L 196 437 L 210 422 L 250 426 L 225 403 L 214 380 L 214 357 L 222 340 L 244 326 L 280 334 L 262 320 L 237 321 L 215 338 L 204 369 L 199 358 L 210 306 L 198 323 L 175 430 L 167 440 L 145 439 L 162 422 L 167 392 L 166 347 L 151 294 L 147 316 L 130 281 L 146 201 L 135 190 L 99 188 L 85 177 L 114 155 L 131 126 L 166 113 Z" fill="currentColor" fill-rule="evenodd"/>
</svg>
