<svg xmlns="http://www.w3.org/2000/svg" viewBox="0 0 512 512" >
  <path d="M 273 120 L 268 120 L 267 121 L 261 121 L 259 120 L 258 121 L 258 131 L 257 132 L 254 132 L 253 131 L 252 132 L 255 134 L 256 136 L 255 137 L 250 137 L 250 138 L 252 139 L 255 143 L 260 142 L 260 140 L 263 139 L 263 137 L 258 137 L 257 136 L 258 134 L 261 133 L 260 124 L 261 123 L 267 124 L 273 121 Z M 241 120 L 241 121 L 246 124 L 249 124 L 250 123 L 252 124 L 253 123 L 252 121 Z M 260 116 L 261 118 L 266 115 L 269 115 L 273 117 L 273 115 L 270 113 L 264 113 Z M 240 116 L 240 117 L 244 115 L 248 115 L 253 118 L 253 116 L 249 113 L 243 113 Z M 255 54 L 242 85 L 229 99 L 225 117 L 229 146 L 241 151 L 214 161 L 206 170 L 199 214 L 204 239 L 179 251 L 175 259 L 178 275 L 163 281 L 164 299 L 171 312 L 146 338 L 132 341 L 132 349 L 142 361 L 136 401 L 117 423 L 116 432 L 126 436 L 126 448 L 137 455 L 150 450 L 153 435 L 360 435 L 364 451 L 380 454 L 388 446 L 387 436 L 397 432 L 395 421 L 378 405 L 371 361 L 381 349 L 381 341 L 367 338 L 342 312 L 349 299 L 350 281 L 335 275 L 335 252 L 309 239 L 314 230 L 309 174 L 301 162 L 279 153 L 288 123 L 284 98 Z M 365 438 L 368 435 L 380 435 L 383 438 L 384 442 L 383 445 L 378 449 L 373 449 L 371 448 L 368 443 L 365 441 Z M 130 445 L 130 438 L 133 435 L 145 435 L 148 439 L 148 441 L 146 442 L 144 446 L 140 449 L 135 449 Z M 121 425 L 123 423 L 390 423 L 392 429 L 122 430 Z M 129 415 L 134 412 L 379 412 L 382 413 L 384 417 L 130 418 Z M 305 394 L 308 390 L 312 390 L 315 395 L 313 398 L 307 398 L 305 396 Z M 198 394 L 201 390 L 206 390 L 208 396 L 206 398 L 201 398 Z M 312 384 L 317 385 L 321 389 L 321 394 L 318 397 L 315 395 L 316 390 L 311 386 Z M 201 384 L 202 386 L 197 390 L 198 395 L 195 397 L 192 394 L 192 389 L 196 385 Z M 320 381 L 328 378 L 336 378 L 341 380 L 343 382 L 344 386 L 342 387 L 339 384 L 335 383 L 332 384 L 327 391 L 325 391 L 323 388 L 323 386 L 320 383 Z M 256 378 L 260 381 L 258 386 L 258 389 L 260 394 L 262 396 L 261 399 L 257 402 L 252 398 L 252 395 L 254 393 L 254 390 L 255 389 L 254 380 Z M 225 383 L 226 382 L 230 382 L 235 378 L 237 380 L 237 385 L 239 388 L 239 390 L 238 391 L 230 389 Z M 300 371 L 301 372 L 301 377 L 296 382 L 294 382 L 293 381 L 292 374 L 295 371 Z M 269 372 L 270 371 L 273 371 L 277 374 L 277 376 L 274 378 L 271 378 Z M 236 374 L 241 371 L 244 372 L 242 378 L 237 377 Z M 213 371 L 218 371 L 221 374 L 220 381 L 219 382 L 217 382 L 213 378 L 212 376 L 212 372 Z M 288 369 L 291 373 L 291 377 L 288 385 L 283 389 L 275 390 L 274 388 L 276 386 L 276 380 L 278 378 L 279 378 L 282 382 L 281 385 L 283 385 L 283 384 L 287 381 L 283 379 L 282 377 L 283 374 L 282 371 L 284 369 Z M 225 369 L 229 369 L 231 371 L 230 373 L 231 376 L 228 380 L 225 380 L 222 376 L 222 373 Z M 160 381 L 169 371 L 186 369 L 199 373 L 228 392 L 240 394 L 248 388 L 247 384 L 242 387 L 240 381 L 246 375 L 250 376 L 250 371 L 257 365 L 263 371 L 263 376 L 267 375 L 273 381 L 271 387 L 267 383 L 265 385 L 267 391 L 278 394 L 287 391 L 314 373 L 337 369 L 351 377 L 353 391 L 344 400 L 335 399 L 331 390 L 338 387 L 337 394 L 342 395 L 347 390 L 347 382 L 338 375 L 326 375 L 315 379 L 286 398 L 272 399 L 262 392 L 263 380 L 256 373 L 250 381 L 252 384 L 250 394 L 242 399 L 231 399 L 219 394 L 196 378 L 175 375 L 167 381 L 166 390 L 169 394 L 174 395 L 176 394 L 174 388 L 179 387 L 182 395 L 176 400 L 169 400 L 161 393 Z M 148 360 L 253 360 L 248 369 L 236 370 L 227 365 L 211 368 L 208 374 L 189 366 L 170 367 L 158 377 L 156 388 L 164 401 L 177 403 L 183 399 L 185 389 L 178 383 L 171 388 L 169 384 L 174 379 L 185 378 L 193 381 L 189 394 L 196 401 L 205 401 L 214 394 L 230 402 L 249 399 L 256 406 L 264 399 L 284 402 L 299 394 L 308 401 L 317 401 L 325 391 L 332 401 L 345 403 L 357 389 L 354 375 L 343 367 L 325 366 L 306 374 L 302 368 L 286 365 L 277 370 L 265 369 L 260 360 L 365 360 L 374 408 L 140 409 Z M 143 352 L 369 351 L 370 355 L 367 357 L 147 357 L 143 355 Z M 136 344 L 375 343 L 376 346 L 138 347 Z M 226 333 L 228 334 L 228 337 L 227 338 L 224 338 L 223 336 Z M 177 333 L 178 334 L 176 338 L 173 338 L 172 336 Z M 333 334 L 339 332 L 357 332 L 361 335 L 361 337 L 360 338 L 335 338 L 333 336 Z M 307 336 L 309 332 L 326 332 L 330 335 L 329 338 L 308 338 Z M 291 333 L 292 332 L 302 332 L 305 334 L 305 337 L 304 338 L 293 338 Z M 268 335 L 270 332 L 279 332 L 284 335 L 287 334 L 289 337 L 288 338 L 269 338 Z M 248 334 L 249 333 L 261 332 L 262 333 L 265 333 L 266 335 L 262 338 L 251 338 Z M 230 336 L 235 332 L 243 332 L 246 337 L 245 338 L 231 338 Z M 180 337 L 183 333 L 187 333 L 188 332 L 200 332 L 201 335 L 207 332 L 221 332 L 222 334 L 217 338 L 181 338 Z M 152 335 L 157 332 L 171 332 L 172 333 L 171 335 L 172 337 L 171 338 L 153 338 Z M 223 327 L 226 326 L 227 328 L 224 329 Z M 188 326 L 189 325 L 193 325 L 194 327 L 193 328 L 189 328 Z M 328 325 L 329 324 L 335 325 L 336 327 L 335 328 L 329 328 Z M 312 325 L 315 324 L 317 325 L 319 328 L 318 329 L 315 329 Z M 196 326 L 198 324 L 200 325 L 199 328 L 197 328 Z M 182 325 L 180 328 L 177 329 L 175 328 L 176 325 L 179 324 Z M 340 324 L 341 323 L 347 323 L 351 325 L 352 327 L 350 329 L 346 329 L 343 328 Z M 161 328 L 161 326 L 166 323 L 171 323 L 172 324 L 172 326 L 169 328 L 166 328 L 165 329 L 162 329 Z M 272 320 L 273 319 L 280 319 L 281 320 L 280 322 L 283 328 L 282 329 L 278 329 L 275 326 Z M 264 320 L 265 319 L 270 319 L 271 320 L 272 327 L 269 328 Z M 240 319 L 241 321 L 238 327 L 236 329 L 231 329 L 230 327 L 232 325 L 232 320 L 233 319 Z M 265 325 L 265 328 L 264 329 L 259 329 L 257 326 L 256 326 L 254 329 L 250 329 L 248 327 L 250 324 L 250 322 L 247 323 L 244 328 L 241 327 L 243 322 L 242 321 L 243 319 L 255 319 L 256 318 L 258 319 L 263 319 L 264 320 L 263 323 Z M 203 327 L 205 324 L 205 320 L 207 318 L 211 318 L 212 319 L 214 318 L 217 319 L 231 319 L 232 320 L 230 323 L 224 322 L 217 328 L 211 329 L 210 327 L 214 324 L 213 322 L 208 327 L 206 328 Z M 342 318 L 340 321 L 313 322 L 312 323 L 308 321 L 308 324 L 309 325 L 308 328 L 307 328 L 304 324 L 300 322 L 300 324 L 302 326 L 300 329 L 294 328 L 290 323 L 285 324 L 282 321 L 283 319 L 320 318 L 321 317 L 328 317 L 329 316 L 339 316 Z M 171 318 L 174 316 L 183 316 L 184 317 L 190 317 L 191 318 L 203 318 L 204 320 L 202 322 L 184 322 L 183 321 L 173 321 Z M 273 292 L 277 292 L 281 295 L 280 299 L 276 303 L 274 302 L 270 296 L 270 294 Z M 241 304 L 248 296 L 253 293 L 257 292 L 265 296 L 271 302 L 272 304 L 272 311 L 270 313 L 268 312 L 267 304 L 261 298 L 259 298 L 263 302 L 265 306 L 265 312 L 263 314 L 251 314 L 248 311 L 248 305 L 252 299 L 247 303 L 244 313 L 241 311 Z M 236 292 L 239 292 L 243 294 L 243 296 L 238 303 L 237 303 L 232 297 L 232 295 Z M 309 292 L 310 291 L 316 291 L 317 293 L 312 297 Z M 307 295 L 309 300 L 309 305 L 307 310 L 305 312 L 303 311 L 303 308 L 302 308 L 302 309 L 296 314 L 286 314 L 285 313 L 285 309 L 287 305 L 294 299 L 294 298 L 290 298 L 285 303 L 283 310 L 279 314 L 276 314 L 275 313 L 276 309 L 280 302 L 287 296 L 301 291 L 303 291 Z M 206 295 L 211 291 L 212 292 L 219 293 L 227 297 L 235 305 L 238 313 L 237 314 L 234 314 L 231 311 L 226 300 L 223 298 L 219 298 L 219 299 L 224 302 L 228 308 L 228 313 L 227 314 L 216 314 L 211 309 L 211 307 L 209 308 L 210 311 L 208 312 L 206 310 L 204 304 L 204 300 Z M 194 291 L 195 290 L 200 290 L 203 291 L 204 293 L 202 296 L 200 297 L 196 294 Z M 334 288 L 337 293 L 337 301 L 334 307 L 328 312 L 317 314 L 316 312 L 318 310 L 320 305 L 320 302 L 319 302 L 317 304 L 317 306 L 315 309 L 311 312 L 310 310 L 313 301 L 320 294 Z M 178 289 L 180 288 L 194 295 L 201 303 L 203 312 L 201 313 L 196 306 L 195 306 L 195 309 L 196 310 L 195 313 L 188 313 L 183 311 L 178 306 L 178 304 L 176 301 L 176 293 Z M 345 285 L 346 286 L 345 296 L 341 306 L 338 308 L 337 305 L 340 300 L 340 291 L 339 288 Z M 168 285 L 174 288 L 173 291 L 173 300 L 176 306 L 175 308 L 173 307 L 169 299 L 168 290 L 167 289 L 167 286 Z M 177 281 L 203 283 L 245 276 L 290 259 L 312 255 L 292 255 L 222 277 L 187 276 L 180 269 L 180 258 L 186 251 L 210 243 L 215 246 L 215 249 L 209 250 L 211 252 L 257 257 L 303 243 L 331 254 L 334 266 L 330 273 L 311 279 L 219 283 L 316 283 L 329 279 L 336 282 L 314 287 L 240 289 L 184 285 Z M 228 207 L 230 212 L 230 222 L 228 226 L 226 227 L 223 223 L 223 219 L 224 218 L 225 209 Z M 287 202 L 288 203 L 288 208 L 289 209 L 291 221 L 285 227 L 283 227 L 282 226 L 282 216 L 283 215 L 283 210 L 285 203 Z M 260 189 L 261 191 L 260 192 L 260 196 L 258 202 L 258 212 L 257 213 L 257 216 L 258 217 L 258 222 L 257 223 L 258 225 L 258 231 L 259 232 L 266 232 L 268 235 L 267 236 L 258 237 L 257 238 L 253 238 L 245 235 L 238 235 L 237 236 L 232 235 L 230 233 L 230 230 L 232 226 L 233 218 L 234 217 L 232 203 L 233 202 L 243 201 L 252 196 Z M 273 169 L 274 171 L 276 170 L 277 172 L 272 182 L 272 185 L 268 197 L 268 203 L 267 204 L 267 228 L 266 229 L 261 229 L 260 228 L 260 210 L 261 209 L 262 196 L 263 195 L 264 187 L 269 176 L 269 174 L 271 170 Z M 272 167 L 274 166 L 275 168 L 273 169 Z M 273 164 L 275 163 L 276 165 L 274 166 Z M 288 161 L 296 164 L 304 174 L 308 196 L 310 227 L 306 235 L 301 239 L 288 245 L 267 249 L 266 247 L 268 244 L 264 243 L 264 240 L 280 241 L 280 238 L 296 222 L 300 220 L 298 218 L 294 218 L 290 195 L 292 185 L 291 180 L 289 182 L 280 206 L 279 215 L 282 229 L 276 236 L 269 235 L 269 214 L 272 192 L 284 162 Z M 274 161 L 276 160 L 277 162 L 275 163 Z M 267 151 L 272 158 L 270 167 L 263 180 L 251 193 L 243 198 L 233 199 L 227 191 L 224 181 L 222 183 L 224 197 L 219 217 L 219 225 L 231 241 L 246 240 L 247 242 L 245 245 L 248 246 L 249 249 L 254 250 L 255 252 L 254 253 L 243 252 L 225 247 L 214 241 L 205 232 L 203 225 L 206 190 L 210 172 L 216 165 L 228 160 L 242 157 L 245 155 L 246 152 L 258 154 Z M 272 149 L 274 148 L 277 150 L 278 152 L 277 153 L 273 152 Z M 235 138 L 237 139 L 237 143 L 236 144 L 234 143 L 234 139 Z M 231 117 L 234 119 L 234 126 L 233 127 L 231 126 L 230 123 L 230 118 Z M 283 116 L 284 117 L 284 122 L 282 127 L 280 128 L 279 127 L 280 119 L 281 117 Z M 278 105 L 280 104 L 281 107 L 279 108 Z M 243 102 L 248 102 L 249 101 L 252 102 L 267 101 L 268 102 L 271 102 L 274 105 L 276 115 L 277 116 L 277 124 L 276 125 L 274 137 L 272 141 L 266 147 L 262 149 L 259 149 L 258 150 L 251 149 L 246 146 L 240 138 L 238 131 L 238 127 L 237 126 L 237 115 L 238 114 L 239 106 Z M 234 99 L 237 98 L 238 99 L 238 102 L 235 103 L 234 102 Z M 277 97 L 280 99 L 280 101 L 278 103 L 275 101 Z M 239 96 L 241 94 L 244 95 L 244 97 L 242 99 L 241 99 Z M 271 93 L 274 95 L 274 98 L 273 99 L 271 99 L 269 97 L 269 95 Z M 262 94 L 263 93 L 266 93 L 267 96 L 265 98 L 263 98 L 262 97 Z M 254 94 L 255 93 L 258 93 L 260 96 L 256 99 L 254 97 Z M 246 95 L 248 93 L 251 93 L 252 94 L 252 96 L 250 98 L 248 98 Z M 268 90 L 270 89 L 271 91 L 269 92 Z M 242 90 L 245 89 L 246 91 L 243 92 Z M 262 89 L 265 88 L 266 90 L 263 91 Z M 248 88 L 251 87 L 252 90 L 249 91 Z M 254 88 L 256 86 L 258 86 L 259 87 L 259 90 L 258 91 L 255 91 Z M 261 77 L 263 76 L 264 78 L 262 79 Z M 250 77 L 252 76 L 253 78 L 251 79 Z M 255 76 L 257 75 L 258 77 L 256 78 Z M 256 62 L 259 64 L 259 66 L 261 69 L 260 72 L 258 71 L 253 72 L 252 71 L 252 69 L 254 67 L 254 65 Z" fill="currentColor" fill-rule="evenodd"/>
</svg>
