<svg xmlns="http://www.w3.org/2000/svg" viewBox="0 0 512 512" >
  <path d="M 252 313 L 250 314 L 246 319 L 245 322 L 247 329 L 252 333 L 259 333 L 265 328 L 266 326 L 266 320 L 263 315 L 260 313 Z M 255 316 L 259 317 L 262 321 L 262 325 L 259 329 L 253 329 L 249 325 L 249 321 Z M 324 243 L 318 247 L 316 251 L 316 256 L 320 262 L 324 264 L 329 264 L 335 260 L 337 256 L 337 251 L 333 245 L 329 243 Z M 324 247 L 330 248 L 333 252 L 333 256 L 329 260 L 324 260 L 320 256 L 320 251 Z M 182 243 L 176 248 L 174 254 L 176 259 L 180 263 L 182 264 L 188 264 L 194 259 L 196 253 L 194 248 L 190 244 L 188 243 Z M 183 247 L 187 247 L 192 253 L 191 257 L 187 260 L 181 259 L 178 254 L 179 251 Z M 248 243 L 244 248 L 243 251 L 243 256 L 245 261 L 252 266 L 262 265 L 268 258 L 268 249 L 267 247 L 263 243 L 259 241 L 252 241 Z M 253 245 L 259 245 L 264 250 L 264 257 L 263 259 L 257 263 L 252 262 L 247 257 L 247 251 L 248 249 Z M 253 174 L 248 177 L 246 180 L 245 186 L 248 192 L 253 195 L 258 195 L 264 191 L 266 187 L 266 181 L 261 175 Z M 253 178 L 258 178 L 262 182 L 262 187 L 258 191 L 252 190 L 249 186 L 249 183 Z M 157 151 L 156 355 L 355 356 L 357 152 Z M 288 295 L 291 294 L 346 349 L 345 351 L 289 351 L 288 350 Z M 223 295 L 223 350 L 222 351 L 167 351 L 166 349 L 221 294 Z M 294 290 L 295 289 L 351 289 L 352 290 L 352 345 L 350 346 L 308 305 Z M 254 290 L 257 289 L 258 291 L 255 292 Z M 229 289 L 246 289 L 255 298 L 265 289 L 283 289 L 284 290 L 284 350 L 283 351 L 229 351 L 228 350 L 228 290 Z M 161 344 L 161 290 L 162 289 L 217 289 L 218 291 L 163 345 Z M 283 273 L 284 274 L 284 283 L 282 285 L 273 285 L 272 283 Z M 228 274 L 230 273 L 240 284 L 239 285 L 229 285 L 228 284 Z M 221 248 L 223 249 L 224 255 L 222 260 L 215 254 L 215 253 Z M 289 247 L 296 253 L 290 260 L 288 259 L 288 248 Z M 288 225 L 290 224 L 291 222 L 351 222 L 352 223 L 352 283 L 350 285 L 289 285 L 288 284 L 288 268 L 302 253 L 288 239 Z M 272 223 L 273 222 L 283 222 L 284 223 L 284 233 L 282 234 Z M 248 222 L 264 222 L 284 241 L 284 266 L 264 285 L 248 285 L 228 266 L 228 241 Z M 228 233 L 228 223 L 229 222 L 239 222 L 240 223 L 230 234 Z M 161 223 L 162 222 L 222 222 L 223 223 L 223 233 L 224 234 L 223 240 L 210 253 L 210 255 L 223 267 L 223 283 L 221 285 L 162 285 L 161 284 Z M 254 216 L 257 215 L 258 217 L 255 218 Z M 352 162 L 352 217 L 351 218 L 296 218 L 295 216 L 350 161 Z M 163 161 L 212 212 L 216 215 L 215 218 L 162 218 L 161 217 L 161 162 Z M 345 156 L 346 158 L 321 184 L 289 215 L 288 214 L 288 157 L 289 156 Z M 229 156 L 283 156 L 284 157 L 284 217 L 283 218 L 266 218 L 256 209 L 246 218 L 229 218 L 228 217 L 228 157 Z M 166 157 L 167 156 L 222 156 L 223 157 L 223 213 L 221 214 L 190 182 L 188 181 Z M 182 89 L 181 113 L 223 114 L 224 130 L 137 131 L 135 217 L 117 216 L 116 176 L 89 178 L 89 331 L 115 334 L 117 291 L 135 290 L 136 377 L 223 380 L 222 397 L 180 398 L 181 424 L 331 424 L 333 399 L 290 397 L 288 381 L 376 378 L 378 290 L 395 291 L 397 334 L 423 332 L 423 177 L 396 176 L 395 216 L 378 217 L 376 131 L 288 130 L 289 114 L 330 114 L 330 89 Z M 187 94 L 326 94 L 326 109 L 284 109 L 283 134 L 370 136 L 373 222 L 400 221 L 400 181 L 418 181 L 417 328 L 400 327 L 399 285 L 372 285 L 371 372 L 284 374 L 284 401 L 326 402 L 326 419 L 186 419 L 186 402 L 228 400 L 228 375 L 141 372 L 140 285 L 113 285 L 112 328 L 94 328 L 94 182 L 112 181 L 113 222 L 139 222 L 142 136 L 229 134 L 228 109 L 187 109 Z M 72 68 L 66 75 L 68 441 L 75 446 L 440 445 L 447 435 L 444 71 L 435 66 Z M 75 74 L 436 73 L 440 77 L 440 436 L 435 440 L 75 439 Z" fill="currentColor" fill-rule="evenodd"/>
</svg>
