<svg xmlns="http://www.w3.org/2000/svg" viewBox="0 0 512 512" >
  <path d="M 254 397 L 249 401 L 248 406 L 251 411 L 257 412 L 261 410 L 263 406 L 263 403 L 261 399 L 257 397 Z M 253 401 L 258 401 L 260 404 L 259 407 L 256 409 L 253 408 L 251 405 Z M 256 367 L 254 369 L 254 371 L 256 373 L 258 373 L 261 369 L 259 367 Z M 255 369 L 258 368 L 259 370 L 256 371 Z M 294 348 L 288 349 L 286 352 L 286 354 L 288 357 L 291 358 L 296 354 L 296 350 Z M 288 352 L 290 350 L 293 350 L 294 351 L 294 354 L 290 356 L 288 354 Z M 276 315 L 273 319 L 273 323 L 276 326 L 280 327 L 285 323 L 285 319 L 282 315 Z M 275 319 L 277 317 L 281 317 L 283 319 L 283 322 L 280 325 L 278 325 L 275 322 Z M 233 302 L 226 308 L 222 314 L 220 320 L 220 325 L 219 326 L 220 327 L 220 334 L 225 344 L 228 348 L 233 352 L 246 357 L 258 356 L 268 351 L 274 344 L 274 342 L 268 346 L 265 346 L 264 347 L 254 347 L 246 344 L 237 336 L 233 329 L 232 315 L 234 308 L 241 300 L 238 300 Z M 230 308 L 231 308 L 232 310 L 230 313 L 229 323 L 233 335 L 241 344 L 248 348 L 259 350 L 260 351 L 259 353 L 256 353 L 255 354 L 245 354 L 244 353 L 241 353 L 235 350 L 226 341 L 223 334 L 222 326 L 223 325 L 224 316 Z M 243 278 L 239 282 L 239 287 L 243 291 L 246 291 L 247 292 L 252 291 L 256 287 L 256 282 L 255 280 L 250 277 L 245 277 Z M 241 283 L 246 279 L 250 279 L 254 282 L 254 286 L 251 289 L 247 290 L 244 289 L 241 286 Z M 256 188 L 254 189 L 251 193 L 252 196 L 255 199 L 260 195 L 259 191 Z M 254 195 L 255 192 L 258 193 L 256 196 Z M 242 176 L 246 183 L 247 183 L 247 181 L 249 180 L 255 185 L 261 181 L 265 182 L 269 177 L 268 175 L 257 180 L 254 180 L 250 177 L 243 175 Z M 255 143 L 251 147 L 248 153 L 248 159 L 249 161 L 253 164 L 259 164 L 263 159 L 263 153 L 260 147 Z M 255 148 L 256 148 L 260 153 L 260 158 L 257 161 L 254 161 L 251 157 L 251 154 Z M 255 41 L 217 107 L 208 102 L 205 118 L 174 147 L 155 187 L 143 168 L 131 163 L 131 222 L 149 268 L 135 272 L 125 262 L 121 280 L 79 315 L 62 387 L 67 423 L 83 442 L 111 447 L 138 435 L 172 403 L 190 405 L 196 424 L 215 419 L 226 437 L 256 462 L 296 419 L 315 424 L 321 405 L 339 404 L 382 441 L 399 447 L 424 444 L 440 430 L 448 408 L 444 354 L 432 315 L 390 280 L 386 262 L 376 272 L 362 268 L 380 222 L 380 162 L 356 186 L 338 148 L 306 118 L 302 100 L 294 107 Z M 242 432 L 245 430 L 251 434 L 255 439 L 256 439 L 261 433 L 267 430 L 269 433 L 269 442 L 268 444 L 255 456 L 248 448 L 243 444 L 242 442 Z M 278 420 L 282 423 L 283 431 L 277 438 L 275 438 L 272 435 L 270 428 L 276 421 Z M 233 420 L 234 420 L 241 428 L 240 434 L 236 438 L 234 438 L 228 431 L 229 423 Z M 373 414 L 372 419 L 370 422 L 364 421 L 360 418 L 362 415 L 367 414 L 370 412 Z M 138 413 L 141 412 L 146 415 L 150 416 L 151 418 L 147 421 L 141 422 L 138 418 Z M 284 404 L 287 404 L 291 411 L 291 417 L 288 424 L 282 422 L 280 419 L 280 415 L 282 412 L 283 405 Z M 224 404 L 227 404 L 228 405 L 229 412 L 231 415 L 230 421 L 226 424 L 224 424 L 222 422 L 220 417 L 221 408 Z M 345 403 L 346 402 L 349 402 L 350 405 L 347 406 Z M 161 405 L 162 402 L 165 402 L 166 404 L 163 406 Z M 353 401 L 355 399 L 357 399 L 359 402 L 359 404 L 358 405 L 355 405 L 353 403 Z M 151 403 L 154 399 L 158 401 L 155 405 L 153 405 Z M 279 406 L 277 414 L 273 417 L 273 420 L 270 423 L 267 423 L 267 425 L 264 428 L 261 429 L 256 433 L 247 428 L 243 423 L 241 423 L 238 420 L 238 417 L 234 414 L 232 409 L 232 406 L 234 404 L 236 404 L 240 409 L 242 415 L 246 417 L 250 421 L 252 421 L 256 424 L 259 421 L 263 420 L 265 417 L 267 417 L 270 413 L 271 408 L 274 405 L 270 397 L 271 395 L 274 396 L 275 401 Z M 362 395 L 363 394 L 366 394 L 369 398 L 365 401 L 362 398 Z M 292 403 L 294 401 L 309 394 L 313 398 L 315 403 L 315 411 L 313 418 L 310 419 L 298 415 L 295 412 Z M 237 394 L 239 394 L 241 396 L 240 400 L 238 402 L 235 400 L 235 397 Z M 219 403 L 216 412 L 213 415 L 207 418 L 202 418 L 201 419 L 198 418 L 196 411 L 196 402 L 198 398 L 202 394 L 217 401 Z M 144 394 L 147 394 L 149 396 L 146 401 L 141 398 Z M 255 390 L 261 392 L 262 393 L 262 396 L 263 397 L 265 396 L 267 398 L 269 403 L 269 406 L 267 408 L 267 412 L 265 414 L 262 414 L 261 417 L 259 417 L 256 419 L 250 417 L 249 414 L 246 414 L 244 411 L 244 408 L 242 406 L 244 398 L 246 396 L 249 397 L 249 393 Z M 394 389 L 396 392 L 397 399 L 393 401 L 388 401 L 386 398 L 390 393 L 391 390 Z M 369 389 L 370 388 L 375 389 L 376 392 L 374 394 L 370 394 L 369 393 Z M 135 391 L 138 388 L 140 388 L 142 391 L 142 393 L 141 394 L 137 394 Z M 117 388 L 119 389 L 124 398 L 123 401 L 118 401 L 114 399 L 114 393 Z M 313 391 L 321 385 L 325 389 L 330 392 L 331 400 L 330 401 L 320 400 L 315 395 Z M 198 391 L 195 396 L 190 400 L 181 401 L 179 399 L 180 397 L 180 392 L 185 389 L 189 385 L 191 385 Z M 377 378 L 383 380 L 380 386 L 378 386 L 377 384 L 375 383 L 375 381 Z M 133 378 L 135 380 L 135 383 L 131 386 L 129 384 L 128 380 Z M 316 375 L 318 379 L 318 382 L 308 390 L 293 398 L 288 399 L 282 402 L 279 402 L 278 401 L 278 398 L 276 395 L 277 393 L 280 393 L 289 390 L 301 384 L 314 374 Z M 194 376 L 197 374 L 202 379 L 213 386 L 232 393 L 233 394 L 232 397 L 233 401 L 230 402 L 218 398 L 206 392 L 192 382 Z M 128 375 L 130 374 L 131 376 L 129 377 Z M 390 370 L 392 372 L 392 378 L 388 390 L 384 396 L 371 408 L 360 413 L 357 413 L 356 414 L 351 413 L 350 412 L 351 409 L 359 408 L 367 404 L 377 396 L 381 391 L 386 381 L 388 371 Z M 119 371 L 121 370 L 123 372 L 123 377 L 126 383 L 126 385 L 131 393 L 139 401 L 152 408 L 160 409 L 161 411 L 159 413 L 155 414 L 145 411 L 135 405 L 128 398 L 122 389 L 118 377 Z M 381 366 L 385 369 L 385 372 L 384 373 L 380 371 L 380 367 Z M 128 366 L 130 367 L 130 371 L 129 372 L 126 372 L 125 370 Z M 314 367 L 314 369 L 305 377 L 289 386 L 272 391 L 265 391 L 262 389 L 264 386 L 273 385 L 293 377 L 304 370 L 311 364 L 312 364 Z M 197 365 L 200 364 L 209 372 L 225 381 L 236 385 L 245 386 L 247 387 L 248 389 L 246 391 L 239 391 L 222 386 L 210 380 L 203 375 L 197 369 Z M 437 361 L 440 365 L 442 374 L 444 402 L 441 417 L 434 430 L 428 436 L 419 441 L 404 443 L 388 439 L 372 429 L 371 427 L 373 426 L 376 418 L 375 411 L 376 408 L 383 402 L 386 404 L 395 404 L 401 402 L 399 390 L 395 385 L 398 381 L 398 379 L 395 378 L 396 374 L 403 375 L 419 381 L 430 390 L 437 401 L 437 395 L 433 387 L 427 381 L 412 373 L 414 370 L 427 363 Z M 74 361 L 88 365 L 99 372 L 98 374 L 85 380 L 77 388 L 73 398 L 74 401 L 79 392 L 90 382 L 96 379 L 114 374 L 115 378 L 111 380 L 116 385 L 111 391 L 110 403 L 116 404 L 128 403 L 135 409 L 134 416 L 137 425 L 139 427 L 136 431 L 120 440 L 107 443 L 101 443 L 87 439 L 75 428 L 70 418 L 67 407 L 67 383 L 71 364 Z M 375 357 L 377 359 L 378 364 L 377 365 L 377 369 L 375 375 L 370 383 L 357 395 L 348 399 L 344 399 L 343 400 L 338 399 L 335 396 L 336 394 L 345 394 L 357 388 L 366 379 L 371 370 L 373 364 L 373 358 Z M 135 357 L 138 358 L 137 362 L 140 372 L 145 380 L 152 387 L 165 394 L 175 394 L 176 396 L 173 399 L 168 400 L 167 399 L 163 399 L 157 397 L 149 392 L 141 384 L 134 372 L 134 369 L 133 368 L 133 360 Z M 389 353 L 390 354 L 390 357 L 388 359 L 384 360 L 383 357 L 386 354 Z M 120 354 L 123 353 L 128 359 L 127 360 L 122 359 L 120 357 Z M 439 354 L 438 357 L 425 360 L 413 366 L 406 371 L 402 371 L 400 369 L 400 368 L 404 365 L 425 354 L 432 352 L 437 352 Z M 71 355 L 74 352 L 79 352 L 86 354 L 100 361 L 105 365 L 110 367 L 111 369 L 108 371 L 105 371 L 86 360 L 76 357 L 72 357 Z M 108 348 L 110 346 L 113 346 L 118 350 L 118 353 L 115 355 L 108 350 Z M 400 345 L 403 348 L 403 350 L 399 353 L 395 354 L 392 350 Z M 437 346 L 436 348 L 433 348 L 420 352 L 394 367 L 389 364 L 390 362 L 419 346 L 425 344 L 429 344 L 430 343 L 434 343 Z M 74 345 L 77 343 L 89 345 L 94 348 L 98 349 L 100 351 L 119 361 L 121 363 L 121 365 L 117 367 L 91 352 L 89 352 L 86 350 L 75 348 Z M 411 339 L 414 338 L 416 340 L 416 342 L 414 343 Z M 382 338 L 387 339 L 391 343 L 391 345 L 390 346 L 388 345 L 383 345 L 386 349 L 383 352 L 380 352 L 377 348 L 375 341 Z M 122 340 L 128 338 L 129 339 L 133 339 L 135 341 L 134 348 L 131 352 L 128 352 L 125 350 L 125 348 L 127 345 L 124 345 L 123 346 L 120 346 L 119 345 Z M 94 342 L 96 338 L 99 338 L 100 339 L 97 343 Z M 404 329 L 407 329 L 413 333 L 411 336 L 408 337 L 409 342 L 411 344 L 409 347 L 405 346 L 402 342 L 402 335 Z M 106 329 L 109 336 L 109 340 L 108 343 L 104 347 L 101 347 L 100 344 L 102 341 L 102 336 L 99 335 L 98 333 L 100 331 Z M 430 326 L 431 327 L 433 338 L 430 340 L 421 341 L 420 340 L 420 335 L 425 328 L 428 326 Z M 415 326 L 417 326 L 420 329 L 420 331 L 417 334 L 412 331 Z M 94 326 L 96 326 L 98 328 L 98 331 L 95 334 L 93 334 L 90 330 L 90 329 Z M 81 326 L 83 326 L 89 332 L 91 336 L 91 340 L 90 341 L 81 340 L 78 338 L 78 335 Z M 306 323 L 309 321 L 312 321 L 313 323 L 310 325 L 307 325 Z M 198 322 L 199 321 L 202 321 L 204 322 L 205 324 L 204 325 L 201 325 L 199 324 Z M 427 318 L 428 319 L 428 323 L 421 328 L 420 327 L 420 323 L 424 319 Z M 84 318 L 87 319 L 91 323 L 91 328 L 90 329 L 83 324 L 83 319 Z M 303 307 L 306 305 L 310 305 L 311 307 L 308 309 L 304 309 Z M 200 306 L 201 305 L 205 305 L 207 306 L 208 308 L 207 309 L 203 309 L 201 308 Z M 301 293 L 302 291 L 308 290 L 309 291 L 307 294 L 302 294 Z M 202 291 L 203 290 L 209 291 L 210 293 L 209 294 L 204 294 Z M 387 286 L 394 287 L 404 293 L 415 304 L 421 314 L 421 316 L 416 321 L 413 322 L 410 326 L 400 325 L 400 330 L 399 331 L 398 341 L 397 342 L 395 342 L 391 337 L 387 335 L 379 335 L 374 337 L 371 336 L 368 316 L 364 306 L 360 301 L 361 298 L 371 298 L 381 293 Z M 124 286 L 131 294 L 140 298 L 150 298 L 151 300 L 148 304 L 143 315 L 143 318 L 141 323 L 140 336 L 139 337 L 136 337 L 132 335 L 124 335 L 114 342 L 111 332 L 111 326 L 110 325 L 101 326 L 96 321 L 93 320 L 90 316 L 90 314 L 96 304 L 102 297 L 113 289 L 120 286 Z M 318 278 L 330 281 L 344 289 L 357 303 L 365 323 L 368 367 L 362 378 L 345 390 L 337 390 L 330 387 L 321 377 L 318 368 L 319 347 L 323 341 L 325 343 L 325 354 L 327 355 L 330 344 L 320 332 L 312 330 L 310 327 L 316 320 L 323 320 L 333 325 L 341 334 L 342 330 L 332 320 L 319 315 L 309 314 L 308 311 L 314 304 L 324 304 L 337 310 L 347 320 L 349 319 L 336 305 L 323 300 L 309 300 L 305 297 L 310 294 L 312 289 L 321 289 L 333 293 L 351 308 L 352 306 L 338 292 L 324 286 L 315 285 L 314 283 Z M 308 279 L 309 278 L 314 278 L 315 280 L 314 281 L 309 281 Z M 197 279 L 198 278 L 202 278 L 203 280 L 202 281 L 198 281 Z M 193 278 L 197 283 L 196 285 L 178 289 L 165 298 L 159 306 L 160 308 L 176 294 L 191 289 L 199 289 L 200 293 L 206 297 L 202 300 L 181 302 L 172 307 L 162 319 L 164 320 L 174 310 L 187 304 L 197 304 L 203 311 L 202 314 L 192 315 L 179 320 L 168 332 L 169 334 L 179 324 L 188 320 L 195 320 L 201 327 L 199 330 L 188 334 L 181 344 L 184 355 L 186 352 L 185 344 L 187 342 L 190 343 L 192 349 L 193 365 L 188 379 L 179 388 L 166 390 L 153 383 L 146 375 L 142 366 L 146 321 L 152 306 L 167 289 L 181 281 Z M 357 282 L 358 280 L 364 278 L 365 276 L 368 276 L 373 278 L 373 279 L 368 283 L 358 283 Z M 138 278 L 142 276 L 146 276 L 147 278 L 153 280 L 154 282 L 153 283 L 143 283 L 141 282 Z M 341 273 L 344 275 L 348 281 L 348 283 L 346 285 L 339 280 L 339 276 Z M 170 273 L 172 276 L 172 280 L 165 285 L 163 283 L 163 281 L 168 274 Z M 386 271 L 386 277 L 384 283 L 382 286 L 375 292 L 369 294 L 358 294 L 353 292 L 350 289 L 350 286 L 352 284 L 359 287 L 367 287 L 370 286 L 378 279 L 379 275 L 384 270 Z M 347 273 L 357 270 L 359 272 L 360 276 L 357 278 L 351 278 Z M 151 276 L 152 272 L 154 270 L 164 273 L 160 278 L 154 278 Z M 125 271 L 127 270 L 132 275 L 132 277 L 135 282 L 139 285 L 144 287 L 152 287 L 159 285 L 161 287 L 161 289 L 158 292 L 153 294 L 142 294 L 136 292 L 128 285 L 125 278 Z M 236 264 L 245 262 L 265 262 L 275 264 L 284 268 L 285 283 L 297 276 L 305 285 L 294 294 L 295 297 L 298 297 L 303 302 L 296 311 L 307 317 L 301 323 L 300 327 L 315 334 L 316 337 L 313 346 L 305 359 L 292 371 L 276 379 L 263 382 L 245 382 L 228 377 L 217 371 L 205 360 L 195 343 L 194 335 L 211 327 L 210 323 L 204 317 L 215 311 L 208 301 L 213 297 L 216 297 L 217 294 L 206 286 L 207 283 L 214 275 L 221 281 L 227 283 L 227 268 Z M 277 259 L 278 258 L 281 258 L 282 260 L 281 261 L 278 261 Z M 230 259 L 233 258 L 234 260 L 231 261 Z M 293 254 L 297 257 L 297 266 L 295 271 L 289 276 L 288 275 L 288 266 L 285 259 L 288 255 Z M 218 254 L 221 254 L 226 258 L 223 267 L 223 275 L 222 276 L 216 271 L 214 266 L 214 257 Z M 192 271 L 201 252 L 206 247 L 212 244 L 223 244 L 240 251 L 250 253 L 262 253 L 271 251 L 289 244 L 299 244 L 305 247 L 311 253 L 320 273 L 314 274 L 305 258 L 300 253 L 296 251 L 287 251 L 277 255 L 262 258 L 249 258 L 234 255 L 224 251 L 215 251 L 211 253 L 206 258 L 198 274 L 193 274 Z M 321 240 L 327 241 L 331 246 L 331 253 L 330 255 L 324 260 L 319 260 L 317 255 L 324 253 L 326 250 L 326 247 L 324 245 L 321 245 L 320 246 L 320 248 L 323 249 L 322 252 L 317 251 L 315 248 L 316 243 Z M 186 240 L 190 240 L 196 245 L 196 248 L 193 252 L 190 252 L 188 250 L 189 248 L 192 248 L 190 245 L 187 245 L 185 248 L 186 252 L 194 255 L 192 260 L 185 259 L 180 253 L 180 246 L 181 244 Z M 285 239 L 287 238 L 288 240 L 286 241 Z M 223 239 L 225 238 L 226 240 L 224 241 Z M 348 235 L 349 236 L 349 241 L 348 244 L 345 245 L 344 244 L 344 238 Z M 164 235 L 167 239 L 167 244 L 166 245 L 164 245 L 162 241 L 162 236 Z M 371 228 L 372 230 L 370 234 L 369 242 L 365 247 L 367 248 L 367 250 L 364 256 L 362 258 L 358 259 L 359 263 L 354 267 L 344 268 L 343 265 L 345 263 L 351 261 L 357 255 L 362 243 L 364 232 L 367 229 Z M 140 228 L 144 229 L 148 234 L 148 239 L 152 252 L 160 261 L 167 264 L 168 266 L 167 268 L 159 268 L 152 263 L 153 259 L 151 259 L 147 256 L 144 250 L 144 248 L 146 247 L 146 246 L 142 242 L 142 238 L 139 230 Z M 171 216 L 173 217 L 173 223 L 174 224 L 174 227 L 173 228 L 171 227 L 168 221 L 168 219 L 170 218 Z M 340 215 L 341 218 L 343 219 L 343 221 L 340 227 L 338 228 L 337 227 L 338 224 L 338 216 Z M 331 212 L 334 213 L 333 228 L 338 237 L 340 243 L 340 248 L 341 249 L 341 255 L 340 256 L 339 265 L 338 267 L 335 269 L 335 275 L 333 277 L 329 277 L 327 275 L 327 273 L 329 270 L 325 270 L 321 267 L 321 264 L 322 263 L 326 263 L 331 260 L 335 254 L 335 245 L 331 239 L 325 236 L 321 236 L 316 238 L 314 240 L 310 239 L 310 240 L 306 243 L 301 240 L 294 240 L 288 236 L 289 234 L 291 235 L 301 235 L 307 233 L 313 229 L 318 224 L 323 223 L 325 221 L 319 218 L 320 216 L 325 216 Z M 285 218 L 290 213 L 293 212 L 300 213 L 305 219 L 306 222 L 305 227 L 304 228 L 302 227 L 303 224 L 302 223 L 302 220 L 297 216 L 292 216 L 288 220 L 287 226 L 285 227 L 284 226 Z M 206 219 L 211 213 L 218 212 L 221 213 L 226 218 L 227 220 L 227 226 L 226 227 L 224 226 L 224 221 L 222 218 L 219 216 L 214 216 L 210 219 L 209 221 L 209 227 L 207 228 L 206 227 Z M 179 212 L 184 215 L 191 216 L 192 218 L 186 221 L 188 223 L 191 223 L 195 225 L 201 231 L 210 235 L 220 235 L 221 234 L 223 235 L 220 239 L 211 240 L 205 243 L 203 243 L 201 241 L 201 239 L 197 240 L 195 238 L 190 236 L 184 237 L 178 242 L 176 246 L 176 253 L 178 257 L 183 262 L 190 264 L 190 267 L 188 269 L 182 270 L 184 273 L 184 275 L 182 277 L 178 277 L 176 275 L 176 270 L 173 268 L 171 262 L 171 256 L 170 255 L 171 243 L 173 237 L 179 227 L 177 221 L 177 215 Z M 362 210 L 363 211 L 362 217 L 356 226 L 356 227 L 359 228 L 359 239 L 358 240 L 358 243 L 353 254 L 350 257 L 346 258 L 345 257 L 345 253 L 351 246 L 353 240 L 353 233 L 352 230 L 347 230 L 345 232 L 344 232 L 343 230 L 348 220 L 354 214 L 360 210 Z M 149 210 L 151 210 L 158 215 L 164 221 L 168 230 L 167 232 L 163 230 L 159 230 L 158 232 L 159 244 L 162 249 L 166 253 L 166 257 L 165 258 L 161 257 L 158 254 L 154 246 L 152 239 L 152 228 L 155 226 L 149 218 L 149 215 L 148 214 L 148 211 Z M 269 217 L 280 213 L 290 204 L 298 203 L 304 205 L 311 212 L 316 221 L 310 225 L 309 224 L 309 219 L 307 215 L 300 209 L 290 209 L 285 212 L 278 220 L 272 221 Z M 195 221 L 201 211 L 206 206 L 214 203 L 221 204 L 227 208 L 228 210 L 235 215 L 241 215 L 242 216 L 242 218 L 239 221 L 235 221 L 233 220 L 225 211 L 216 208 L 209 210 L 204 215 L 201 225 Z M 338 199 L 340 198 L 342 201 L 339 203 L 338 202 Z M 171 198 L 173 199 L 173 202 L 172 203 L 170 202 L 170 199 Z M 345 190 L 347 192 L 347 194 L 343 197 L 342 196 L 342 193 L 343 191 Z M 165 190 L 167 190 L 169 193 L 169 196 L 168 197 L 164 194 L 164 191 Z M 338 186 L 341 188 L 341 190 L 339 193 L 336 193 L 335 191 Z M 172 186 L 175 188 L 176 191 L 175 193 L 172 193 L 171 192 L 170 188 Z M 330 180 L 333 179 L 335 181 L 335 183 L 332 185 L 330 182 Z M 181 179 L 182 181 L 181 183 L 178 185 L 177 184 L 177 180 L 178 179 Z M 345 176 L 347 176 L 349 178 L 352 188 L 351 190 L 349 190 L 346 185 L 345 185 L 343 188 L 341 187 L 341 181 Z M 166 176 L 170 181 L 170 186 L 168 187 L 165 185 L 163 188 L 163 190 L 161 191 L 160 190 L 160 184 L 162 181 L 162 178 L 164 176 Z M 313 174 L 314 173 L 317 174 L 321 177 L 322 179 L 319 180 L 315 177 Z M 200 173 L 198 176 L 195 177 L 192 180 L 190 179 L 190 178 L 198 172 Z M 321 172 L 323 171 L 328 173 L 330 177 L 327 179 Z M 189 171 L 190 173 L 186 177 L 184 177 L 183 174 L 185 172 Z M 177 200 L 189 197 L 198 189 L 211 191 L 214 187 L 226 192 L 239 205 L 238 195 L 222 183 L 192 185 L 204 176 L 225 170 L 246 170 L 256 175 L 265 170 L 286 170 L 307 176 L 318 185 L 308 182 L 287 184 L 274 194 L 270 204 L 294 188 L 300 191 L 313 189 L 334 201 L 324 212 L 318 212 L 298 199 L 287 201 L 276 211 L 269 211 L 264 201 L 274 189 L 267 186 L 261 199 L 265 214 L 260 216 L 267 221 L 267 228 L 275 226 L 281 231 L 281 238 L 270 245 L 276 236 L 269 233 L 259 243 L 266 241 L 267 248 L 243 247 L 245 241 L 252 244 L 244 234 L 235 236 L 241 245 L 230 238 L 231 230 L 236 226 L 244 228 L 244 221 L 250 217 L 246 214 L 251 202 L 245 186 L 237 189 L 247 200 L 242 211 L 213 199 L 195 211 L 187 212 Z M 375 169 L 376 171 L 374 177 L 374 185 L 376 186 L 377 189 L 377 198 L 374 204 L 376 204 L 377 206 L 373 219 L 370 223 L 366 226 L 363 225 L 363 222 L 365 220 L 367 214 L 368 199 L 367 199 L 362 205 L 353 210 L 343 219 L 342 218 L 343 216 L 343 206 L 345 202 L 349 198 L 352 199 L 353 196 L 359 190 L 362 190 L 367 183 L 369 174 L 373 169 Z M 136 169 L 138 169 L 142 174 L 144 183 L 147 188 L 155 192 L 157 194 L 159 199 L 159 198 L 161 197 L 166 202 L 168 206 L 168 216 L 169 217 L 168 219 L 167 219 L 161 212 L 148 204 L 144 199 L 143 199 L 143 209 L 144 210 L 144 215 L 148 223 L 148 225 L 145 226 L 142 224 L 138 219 L 134 206 L 135 204 L 137 204 L 134 198 L 134 189 L 135 186 L 137 185 L 137 178 L 135 171 Z M 198 164 L 199 167 L 193 171 L 192 170 L 192 167 Z M 307 164 L 308 163 L 313 163 L 315 164 L 319 169 L 316 170 L 308 166 Z M 269 164 L 270 163 L 287 163 L 288 164 L 293 164 L 306 168 L 310 170 L 312 173 L 310 174 L 305 171 L 291 167 L 270 166 Z M 242 164 L 241 166 L 221 167 L 220 168 L 212 169 L 203 173 L 201 172 L 201 171 L 205 168 L 219 164 L 224 164 L 225 163 L 241 163 Z M 189 165 L 188 168 L 186 168 L 180 172 L 174 179 L 172 178 L 171 176 L 172 173 L 177 168 L 180 169 L 181 168 L 181 165 L 184 162 Z M 201 162 L 203 161 L 205 162 L 206 164 L 203 166 Z M 296 160 L 299 158 L 301 158 L 303 160 L 303 162 L 302 163 L 299 163 L 297 162 Z M 209 162 L 212 158 L 215 159 L 217 158 L 218 159 L 216 162 L 213 162 L 212 163 Z M 315 158 L 316 157 L 319 157 L 324 160 L 323 163 L 324 164 L 325 163 L 328 163 L 330 165 L 330 168 L 333 167 L 340 174 L 340 176 L 337 178 L 329 170 L 325 168 L 322 168 L 320 164 L 315 161 Z M 284 158 L 285 157 L 292 156 L 294 158 L 294 160 L 293 161 L 285 160 Z M 222 158 L 224 156 L 226 156 L 228 159 L 227 160 L 223 160 Z M 195 156 L 197 161 L 191 165 L 189 165 L 188 164 L 188 160 L 190 158 Z M 271 156 L 272 155 L 274 156 L 279 155 L 280 158 L 279 159 L 272 159 Z M 231 156 L 232 155 L 235 155 L 236 156 L 239 155 L 240 158 L 239 159 L 232 159 Z M 303 155 L 306 152 L 308 152 L 313 155 L 313 158 L 312 159 L 309 159 L 304 157 Z M 210 156 L 210 157 L 206 160 L 203 158 L 201 159 L 200 162 L 198 161 L 198 156 L 201 153 L 205 152 Z M 293 150 L 294 149 L 301 150 L 303 153 L 303 155 L 302 156 L 297 156 L 293 153 Z M 216 149 L 217 150 L 217 154 L 210 156 L 209 155 L 210 151 Z M 330 148 L 332 148 L 337 155 L 337 161 L 335 163 L 331 160 L 331 156 L 330 156 L 329 158 L 327 158 L 323 155 L 323 153 Z M 181 148 L 188 153 L 188 155 L 184 158 L 180 157 L 180 160 L 176 163 L 174 161 L 174 156 L 176 152 Z M 280 148 L 281 147 L 287 147 L 291 150 L 291 152 L 290 153 L 282 154 L 280 152 Z M 220 153 L 220 151 L 224 147 L 230 147 L 232 150 L 229 154 L 226 153 L 221 154 Z M 270 147 L 271 146 L 275 146 L 277 148 L 277 150 L 274 153 L 272 153 L 270 151 Z M 234 148 L 236 146 L 240 146 L 242 149 L 241 152 L 238 153 L 234 150 Z M 255 136 L 262 142 L 267 151 L 267 154 L 268 155 L 265 164 L 262 167 L 256 170 L 249 167 L 244 160 L 244 152 L 245 149 L 250 141 Z M 275 131 L 276 131 L 279 135 L 278 138 L 280 138 L 281 141 L 279 143 L 277 143 L 275 141 L 269 143 L 268 141 L 272 137 L 272 134 Z M 235 131 L 239 133 L 239 136 L 243 141 L 242 143 L 240 143 L 237 141 L 235 143 L 232 143 L 230 141 L 230 140 L 233 138 L 233 134 Z M 278 127 L 279 126 L 284 126 L 296 130 L 306 135 L 312 139 L 321 148 L 321 150 L 319 152 L 316 152 L 311 149 L 302 146 L 291 144 L 289 140 L 282 134 Z M 233 127 L 230 133 L 223 139 L 220 144 L 206 147 L 195 152 L 192 152 L 190 150 L 191 147 L 198 140 L 205 135 L 215 130 L 227 126 L 232 126 Z M 266 120 L 269 124 L 270 132 L 268 136 L 264 139 L 263 136 L 265 133 L 265 127 L 263 122 Z M 255 120 L 260 124 L 262 128 L 262 132 L 259 133 L 257 131 L 255 131 L 251 134 L 249 131 L 249 129 L 251 124 Z M 245 120 L 248 122 L 246 128 L 246 133 L 248 136 L 247 139 L 244 137 L 241 130 L 242 124 Z M 270 116 L 271 115 L 279 115 L 284 117 L 292 118 L 297 120 L 300 123 L 306 124 L 309 126 L 315 133 L 318 132 L 320 133 L 321 136 L 326 142 L 326 145 L 324 146 L 311 134 L 298 127 L 282 122 L 272 121 L 270 118 Z M 242 116 L 239 121 L 234 121 L 229 123 L 225 123 L 205 131 L 196 137 L 187 147 L 185 146 L 185 142 L 190 136 L 192 132 L 196 133 L 197 131 L 205 124 L 211 123 L 214 120 L 232 115 L 241 115 Z M 294 113 L 299 110 L 301 110 L 302 111 L 302 116 L 301 117 L 298 117 L 296 116 Z M 209 110 L 211 109 L 214 112 L 216 112 L 217 114 L 215 116 L 211 117 L 209 115 Z M 248 114 L 251 110 L 256 106 L 263 114 L 264 119 L 261 120 L 260 118 L 255 114 L 254 116 L 249 120 L 248 119 Z M 289 108 L 289 109 L 286 111 L 266 111 L 264 109 L 265 107 L 267 107 L 270 105 L 274 105 L 280 103 L 285 103 L 286 104 L 286 107 Z M 223 108 L 224 107 L 226 108 L 225 105 L 226 103 L 231 103 L 232 104 L 237 104 L 244 106 L 247 108 L 247 110 L 246 111 L 225 111 Z M 235 86 L 238 86 L 244 90 L 241 94 L 238 93 L 238 99 L 237 100 L 233 100 L 231 96 L 231 94 L 233 92 L 235 92 L 234 90 L 234 87 Z M 243 99 L 246 95 L 249 95 L 250 90 L 254 85 L 256 84 L 262 91 L 262 95 L 265 95 L 268 98 L 268 101 L 266 103 L 261 105 L 255 100 L 251 105 L 249 105 L 247 103 L 245 103 L 243 101 Z M 255 55 L 258 57 L 261 62 L 262 67 L 264 67 L 271 75 L 271 82 L 269 84 L 268 88 L 271 88 L 275 85 L 277 86 L 276 92 L 279 92 L 280 93 L 280 96 L 278 100 L 273 100 L 272 99 L 274 93 L 270 94 L 262 86 L 258 80 L 256 73 L 255 73 L 254 78 L 250 85 L 245 90 L 243 89 L 243 85 L 240 81 L 240 76 L 242 72 L 246 68 L 249 67 L 249 64 Z" fill="currentColor" fill-rule="evenodd"/>
</svg>
