<svg xmlns="http://www.w3.org/2000/svg" viewBox="0 0 512 512" >
  <path d="M 245 171 L 246 174 L 249 174 L 250 175 L 249 178 L 251 180 L 254 180 L 255 181 L 260 180 L 262 178 L 261 175 L 266 173 L 266 171 L 264 172 L 260 172 L 259 171 L 258 172 L 253 172 L 252 171 L 251 172 L 247 172 Z M 251 176 L 252 175 L 259 175 L 260 177 L 259 178 L 252 178 Z M 283 145 L 281 144 L 274 147 L 264 146 L 263 148 L 271 151 L 277 150 L 283 146 Z M 260 144 L 267 136 L 272 134 L 277 134 L 282 136 L 284 138 L 285 138 L 283 134 L 278 131 L 270 131 L 263 135 L 261 138 Z M 228 134 L 226 138 L 234 134 L 239 134 L 244 136 L 248 140 L 250 145 L 249 147 L 247 146 L 237 147 L 230 144 L 228 145 L 228 146 L 237 151 L 240 151 L 246 148 L 249 148 L 250 149 L 250 157 L 248 161 L 248 165 L 253 168 L 257 168 L 263 165 L 263 161 L 262 161 L 261 164 L 258 164 L 257 165 L 254 165 L 252 163 L 253 146 L 252 145 L 252 142 L 247 134 L 241 131 L 233 131 Z M 254 126 L 253 127 L 253 130 L 254 131 L 257 131 L 258 130 L 258 127 L 257 126 Z M 256 42 L 207 116 L 212 183 L 217 189 L 227 186 L 228 191 L 180 209 L 167 222 L 145 356 L 121 369 L 107 388 L 106 405 L 113 422 L 158 450 L 174 439 L 197 435 L 373 438 L 392 429 L 405 407 L 405 388 L 399 376 L 356 347 L 362 328 L 362 302 L 343 218 L 324 204 L 283 191 L 284 186 L 294 189 L 299 183 L 304 116 L 294 95 L 267 66 L 267 56 Z M 146 429 L 148 430 L 148 433 L 147 434 L 145 433 L 145 430 Z M 244 426 L 248 421 L 252 413 L 255 410 L 265 408 L 270 415 L 285 429 L 285 431 L 284 432 L 272 432 L 259 428 L 245 428 Z M 258 375 L 259 378 L 257 381 L 255 392 L 251 404 L 248 409 L 247 413 L 241 422 L 235 428 L 227 432 L 217 433 L 216 432 L 209 431 L 208 428 L 221 418 L 234 404 L 242 391 L 242 389 L 244 387 L 244 385 L 247 380 L 252 375 Z M 174 432 L 174 427 L 181 425 L 183 422 L 184 402 L 185 401 L 183 386 L 177 375 L 178 371 L 187 370 L 188 371 L 224 372 L 225 373 L 236 372 L 237 373 L 217 393 L 207 399 L 196 403 L 204 402 L 216 397 L 226 390 L 239 377 L 241 376 L 244 377 L 234 397 L 228 405 L 213 419 L 197 429 L 182 433 Z M 346 373 L 345 375 L 327 379 L 320 382 L 311 384 L 308 386 L 286 394 L 281 397 L 270 400 L 267 402 L 260 404 L 257 404 L 256 403 L 259 395 L 262 381 L 264 377 L 269 373 L 277 373 L 278 372 L 302 373 L 303 372 L 308 372 L 312 370 L 315 370 L 319 368 L 328 368 L 333 371 L 335 370 L 343 370 Z M 143 366 L 144 367 L 144 370 L 140 382 L 140 385 L 138 390 L 138 395 L 137 396 L 137 411 L 138 412 L 138 421 L 140 427 L 140 430 L 138 431 L 127 427 L 118 419 L 112 407 L 111 396 L 112 395 L 113 388 L 116 382 L 124 374 L 137 367 Z M 400 392 L 399 408 L 392 421 L 385 427 L 368 433 L 317 434 L 302 432 L 287 425 L 270 407 L 283 401 L 298 414 L 328 425 L 348 426 L 360 424 L 371 419 L 354 422 L 324 420 L 301 411 L 288 401 L 289 398 L 338 381 L 351 378 L 367 378 L 372 380 L 365 375 L 352 374 L 347 366 L 355 364 L 366 364 L 383 370 L 395 380 Z M 320 361 L 318 364 L 315 364 L 311 366 L 309 365 L 310 363 L 316 360 L 319 360 Z M 312 355 L 310 358 L 308 358 L 295 364 L 277 367 L 276 368 L 270 368 L 269 369 L 248 369 L 247 368 L 235 366 L 221 361 L 218 359 L 219 357 L 226 357 L 227 358 L 240 360 L 241 361 L 257 361 L 258 360 L 265 359 L 265 358 L 263 357 L 242 356 L 239 354 L 239 352 L 240 351 L 259 350 L 260 349 L 265 349 L 272 347 L 279 347 L 286 349 L 289 351 L 292 351 L 291 347 L 295 344 L 302 346 Z M 178 365 L 181 356 L 187 352 L 196 343 L 200 337 L 201 337 L 205 342 L 209 344 L 223 348 L 230 348 L 234 350 L 234 353 L 233 354 L 226 352 L 217 352 L 215 353 L 212 357 L 212 360 L 214 363 L 218 365 L 217 367 L 212 367 L 209 365 L 206 365 L 197 362 L 190 362 L 191 363 L 194 363 L 195 364 L 194 366 L 179 366 Z M 199 287 L 202 295 L 203 306 L 204 307 L 203 319 L 198 330 L 192 339 L 187 343 L 186 341 L 190 329 L 196 292 L 197 291 L 197 288 Z M 315 208 L 331 214 L 341 226 L 357 308 L 356 329 L 346 348 L 335 348 L 319 342 L 334 351 L 351 351 L 358 357 L 355 360 L 325 358 L 300 340 L 321 319 L 332 315 L 346 317 L 326 311 L 342 298 L 344 291 L 338 299 L 316 310 L 334 283 L 339 260 L 331 282 L 313 301 L 323 242 L 307 300 L 307 324 L 287 343 L 282 342 L 297 318 L 307 287 L 314 248 Z M 307 205 L 311 218 L 307 265 L 295 312 L 278 342 L 237 347 L 208 339 L 205 336 L 209 321 L 206 287 L 222 286 L 242 278 L 267 255 L 255 283 L 230 311 L 250 295 L 272 258 L 288 200 L 295 203 L 294 222 L 276 288 L 257 322 L 243 334 L 231 339 L 249 333 L 266 316 L 289 264 L 299 205 Z M 277 189 L 281 208 L 273 233 L 259 256 L 239 274 L 218 282 L 204 281 L 203 275 L 216 278 L 200 266 L 191 246 L 195 266 L 184 331 L 171 366 L 179 390 L 179 420 L 174 418 L 172 399 L 169 438 L 165 440 L 162 408 L 159 444 L 155 408 L 153 441 L 148 408 L 147 427 L 144 427 L 142 398 L 154 329 L 161 319 L 174 317 L 160 315 L 169 231 L 183 214 L 225 201 L 235 188 L 249 195 L 262 195 Z M 295 156 L 296 158 L 294 163 L 294 170 L 293 171 L 294 182 L 292 184 L 290 184 L 288 179 L 288 170 L 290 166 L 291 158 Z M 216 156 L 220 158 L 221 166 L 223 170 L 222 182 L 220 184 L 217 182 L 218 170 L 217 169 L 217 163 L 215 158 Z M 297 137 L 300 139 L 300 146 L 298 150 L 296 149 L 296 146 L 293 145 L 294 140 Z M 213 137 L 217 140 L 218 144 L 215 146 L 215 149 L 214 150 L 212 149 L 211 146 L 211 139 Z M 297 127 L 299 130 L 295 133 L 294 132 L 294 129 Z M 214 127 L 217 129 L 217 132 L 216 133 L 212 130 Z M 293 121 L 295 118 L 298 118 L 299 119 L 297 123 L 295 123 Z M 212 119 L 215 117 L 218 121 L 216 123 L 214 123 Z M 231 115 L 234 114 L 244 114 L 252 117 L 259 117 L 267 114 L 277 114 L 283 117 L 287 122 L 289 129 L 289 147 L 288 148 L 288 156 L 287 157 L 286 164 L 280 177 L 272 185 L 265 189 L 258 190 L 257 191 L 246 189 L 240 186 L 231 177 L 227 170 L 223 156 L 223 149 L 222 148 L 222 129 L 224 122 L 227 118 Z M 290 109 L 293 108 L 295 110 L 295 113 L 294 114 L 291 114 L 289 112 Z M 216 109 L 217 108 L 220 108 L 222 110 L 222 112 L 220 114 L 218 114 L 216 112 Z M 279 106 L 280 105 L 283 105 L 285 108 L 281 111 L 279 109 Z M 258 106 L 259 105 L 263 105 L 264 106 L 264 109 L 262 111 L 260 111 L 258 109 Z M 250 104 L 253 106 L 253 109 L 251 111 L 249 111 L 247 109 L 247 106 Z M 229 104 L 232 106 L 232 109 L 230 111 L 226 108 Z M 271 102 L 275 105 L 272 109 L 268 106 Z M 239 102 L 243 105 L 240 109 L 236 106 Z M 286 100 L 289 99 L 291 101 L 291 103 L 289 104 Z M 220 103 L 220 101 L 222 99 L 225 100 L 222 104 Z M 276 94 L 277 93 L 281 93 L 282 94 L 282 97 L 280 99 L 278 99 L 276 97 Z M 229 94 L 230 93 L 234 93 L 235 94 L 235 97 L 233 99 L 231 99 L 229 97 Z M 264 95 L 266 92 L 269 92 L 271 94 L 271 96 L 269 98 L 266 98 Z M 255 92 L 259 95 L 259 97 L 257 99 L 254 99 L 252 97 L 252 95 Z M 240 94 L 242 92 L 245 92 L 246 93 L 246 97 L 245 98 L 242 98 L 240 96 Z M 258 84 L 260 82 L 262 82 L 264 84 L 264 86 L 262 88 L 260 88 L 258 86 Z M 247 84 L 249 82 L 251 82 L 253 84 L 253 86 L 251 88 L 249 88 L 247 86 Z M 269 82 L 270 81 L 273 81 L 275 83 L 275 85 L 273 87 L 271 87 L 269 85 Z M 236 85 L 236 83 L 238 81 L 241 81 L 243 83 L 240 87 L 238 87 Z M 258 74 L 260 72 L 263 72 L 264 73 L 264 76 L 262 78 L 260 78 L 258 76 Z M 247 73 L 248 72 L 251 72 L 253 74 L 253 76 L 251 78 L 248 78 L 247 77 Z M 255 51 L 260 55 L 262 59 L 262 63 L 261 65 L 258 67 L 253 67 L 251 66 L 249 63 L 249 59 L 251 55 Z" fill="currentColor" fill-rule="evenodd"/>
</svg>
