<svg xmlns="http://www.w3.org/2000/svg" viewBox="0 0 512 512" >
  <path d="M 254 240 L 248 244 L 246 248 L 246 253 L 250 259 L 255 261 L 258 261 L 265 257 L 267 253 L 267 248 L 263 242 L 259 240 Z M 256 137 L 249 147 L 231 161 L 225 173 L 215 169 L 178 170 L 179 187 L 176 202 L 181 217 L 165 225 L 144 250 L 166 274 L 181 281 L 177 291 L 179 328 L 211 330 L 225 325 L 231 337 L 257 361 L 265 350 L 283 336 L 288 325 L 298 329 L 335 328 L 333 318 L 337 294 L 332 281 L 346 275 L 370 250 L 360 242 L 347 224 L 333 217 L 337 205 L 335 170 L 298 169 L 288 174 L 283 162 Z M 232 326 L 232 320 L 233 319 L 239 321 L 243 321 L 244 322 L 249 322 L 250 323 L 265 323 L 266 322 L 271 322 L 280 319 L 282 320 L 281 327 L 278 333 L 272 339 L 262 345 L 257 350 L 250 344 L 240 338 L 236 334 Z M 258 316 L 259 312 L 276 284 L 313 284 L 314 285 L 311 291 L 300 302 L 293 307 L 275 315 L 267 316 L 266 317 L 259 317 Z M 245 285 L 246 284 L 267 284 L 268 287 L 259 302 L 256 304 L 251 297 Z M 199 285 L 200 284 L 237 284 L 248 301 L 256 316 L 255 317 L 248 317 L 234 313 L 223 308 L 209 298 L 201 289 Z M 329 287 L 331 294 L 331 301 L 330 302 L 330 306 L 328 312 L 328 320 L 327 321 L 319 321 L 313 323 L 302 324 L 295 322 L 288 317 L 289 315 L 296 312 L 310 301 L 316 294 L 323 282 L 325 282 Z M 189 281 L 191 282 L 194 289 L 199 296 L 208 305 L 225 316 L 222 320 L 213 324 L 204 324 L 203 323 L 187 321 L 186 320 L 182 296 L 183 295 L 184 288 Z M 292 257 L 294 258 L 302 273 L 305 277 L 304 279 L 281 279 L 280 278 L 281 274 Z M 220 257 L 224 260 L 226 265 L 233 276 L 232 279 L 210 279 L 209 278 L 211 272 Z M 328 224 L 334 224 L 344 229 L 349 235 L 354 244 L 359 249 L 348 265 L 343 270 L 335 274 L 328 274 L 327 273 L 330 263 L 330 259 L 331 258 L 331 242 L 330 241 L 329 232 L 327 228 L 327 225 Z M 179 224 L 186 224 L 187 225 L 184 234 L 183 247 L 182 248 L 183 260 L 186 270 L 186 274 L 185 275 L 183 274 L 178 274 L 175 272 L 173 272 L 167 267 L 160 256 L 155 251 L 155 249 L 160 243 L 166 233 L 171 228 Z M 280 222 L 281 221 L 304 221 L 305 223 L 300 230 L 294 242 L 292 243 L 290 241 Z M 241 221 L 272 221 L 289 249 L 287 254 L 272 279 L 242 279 L 239 276 L 234 266 L 225 252 L 225 248 Z M 209 222 L 210 221 L 232 221 L 233 224 L 228 231 L 223 241 L 220 242 L 210 226 Z M 197 218 L 199 218 L 201 220 L 217 249 L 217 251 L 199 282 L 196 281 L 190 266 L 189 253 L 188 252 L 190 234 L 193 225 Z M 315 217 L 317 218 L 322 229 L 322 232 L 324 237 L 324 242 L 325 243 L 325 258 L 324 259 L 324 263 L 319 278 L 316 282 L 313 281 L 311 276 L 296 251 L 298 245 L 308 229 L 311 222 Z M 256 195 L 259 197 L 261 202 L 268 213 L 267 215 L 246 215 L 245 214 Z M 258 184 L 259 183 L 272 184 L 282 187 L 290 191 L 300 198 L 311 209 L 314 214 L 313 215 L 276 215 L 272 210 L 270 205 L 258 186 Z M 255 184 L 255 186 L 253 188 L 251 193 L 237 215 L 201 215 L 200 214 L 201 211 L 216 196 L 222 192 L 232 187 L 241 184 L 246 184 L 247 183 L 254 183 Z M 221 178 L 225 182 L 225 184 L 209 194 L 199 204 L 192 215 L 189 217 L 184 211 L 182 204 L 182 198 L 183 197 L 183 192 L 185 186 L 185 178 L 186 177 L 195 177 L 201 175 L 215 175 Z M 292 178 L 298 175 L 303 175 L 304 174 L 313 175 L 319 177 L 327 177 L 328 178 L 328 186 L 329 187 L 329 191 L 331 197 L 331 205 L 330 206 L 330 209 L 325 217 L 322 216 L 316 206 L 309 198 L 302 192 L 288 183 Z M 232 172 L 236 164 L 241 159 L 251 153 L 257 148 L 262 153 L 269 157 L 277 164 L 281 171 L 282 179 L 281 180 L 277 180 L 268 177 L 246 177 L 245 178 L 233 180 L 232 179 Z M 145 135 L 144 223 L 137 223 L 136 197 L 117 198 L 117 301 L 136 301 L 137 276 L 144 276 L 144 361 L 231 362 L 231 369 L 207 370 L 207 389 L 306 389 L 306 370 L 282 369 L 282 362 L 368 362 L 369 277 L 376 277 L 377 301 L 396 300 L 396 197 L 377 197 L 376 222 L 369 222 L 369 136 L 282 135 L 282 128 L 306 128 L 305 108 L 208 108 L 207 128 L 231 128 L 231 135 Z M 152 141 L 238 141 L 238 122 L 214 122 L 214 114 L 299 114 L 299 122 L 275 122 L 275 141 L 363 142 L 362 228 L 382 229 L 382 204 L 390 204 L 390 294 L 382 294 L 382 270 L 363 270 L 361 356 L 275 356 L 275 375 L 299 375 L 299 383 L 214 383 L 214 375 L 238 375 L 238 356 L 151 355 L 151 270 L 131 269 L 131 293 L 123 293 L 123 205 L 131 205 L 131 230 L 151 229 Z M 255 52 L 220 77 L 176 97 L 93 112 L 93 256 L 104 313 L 118 344 L 139 374 L 196 425 L 259 460 L 300 437 L 349 400 L 376 372 L 403 328 L 420 259 L 420 111 L 376 107 L 337 97 L 291 76 Z M 256 65 L 287 85 L 331 105 L 373 116 L 411 120 L 411 261 L 407 289 L 393 329 L 373 361 L 343 393 L 303 424 L 257 450 L 190 409 L 141 362 L 114 315 L 102 263 L 102 120 L 140 116 L 182 105 L 226 85 Z" fill="currentColor" fill-rule="evenodd"/>
</svg>
