<svg xmlns="http://www.w3.org/2000/svg" viewBox="0 0 512 512" >
  <path d="M 127 173 L 124 175 L 122 178 L 121 184 L 122 187 L 126 191 L 132 192 L 138 187 L 138 184 L 139 183 L 138 178 L 133 173 Z M 202 168 L 197 168 L 195 169 L 192 173 L 192 176 L 193 177 L 199 176 L 201 180 L 200 185 L 196 190 L 196 193 L 198 194 L 203 192 L 206 189 L 209 180 L 206 171 Z M 201 148 L 200 149 L 193 150 L 187 154 L 184 158 L 181 166 L 183 169 L 185 169 L 195 158 L 202 156 L 208 157 L 212 159 L 218 166 L 220 171 L 220 184 L 216 194 L 209 201 L 205 203 L 202 203 L 201 204 L 193 203 L 191 205 L 194 210 L 197 211 L 206 211 L 215 207 L 222 200 L 227 190 L 229 176 L 228 175 L 227 166 L 222 157 L 219 154 L 210 149 Z M 408 162 L 384 145 L 355 141 L 328 151 L 308 176 L 306 210 L 331 239 L 350 240 L 362 230 L 363 216 L 349 200 L 354 190 L 369 190 L 381 205 L 380 239 L 356 293 L 323 245 L 263 204 L 262 151 L 239 119 L 254 98 L 243 70 L 218 66 L 203 78 L 199 102 L 157 102 L 118 121 L 98 152 L 104 186 L 89 202 L 85 223 L 102 252 L 150 270 L 157 334 L 134 392 L 94 414 L 93 438 L 108 446 L 160 439 L 211 366 L 231 397 L 191 410 L 183 428 L 193 443 L 287 445 L 306 436 L 340 438 L 367 424 L 393 382 L 399 312 L 426 232 L 424 192 Z M 96 208 L 98 207 L 99 209 L 97 210 Z M 142 157 L 149 160 L 156 167 L 159 174 L 158 187 L 155 194 L 147 202 L 139 206 L 136 210 L 140 216 L 143 225 L 143 232 L 139 242 L 135 246 L 129 249 L 118 249 L 109 245 L 103 239 L 104 238 L 118 237 L 123 234 L 123 231 L 122 230 L 108 231 L 97 229 L 94 220 L 95 211 L 97 210 L 98 214 L 102 215 L 107 209 L 105 206 L 99 207 L 98 205 L 111 193 L 113 189 L 114 182 L 112 173 L 112 165 L 120 159 L 131 156 Z M 125 130 L 153 115 L 192 112 L 241 137 L 253 161 L 254 211 L 310 249 L 346 299 L 355 357 L 341 402 L 363 371 L 366 306 L 394 210 L 382 185 L 353 178 L 338 195 L 352 224 L 338 229 L 318 209 L 317 186 L 351 154 L 379 156 L 401 172 L 415 229 L 388 309 L 382 379 L 356 418 L 330 428 L 302 422 L 289 434 L 216 436 L 216 424 L 206 436 L 209 417 L 193 429 L 206 411 L 256 408 L 218 351 L 217 324 L 230 301 L 266 297 L 312 334 L 288 299 L 246 285 L 214 305 L 206 353 L 159 426 L 126 436 L 125 424 L 113 436 L 114 418 L 101 432 L 105 416 L 139 402 L 167 335 L 161 270 L 142 252 L 151 234 L 147 212 L 162 198 L 167 173 L 147 150 L 110 154 Z M 225 78 L 232 79 L 239 85 L 241 89 L 241 95 L 239 100 L 234 105 L 229 107 L 224 107 L 219 105 L 214 100 L 212 94 L 213 87 L 218 81 Z" fill="currentColor" fill-rule="evenodd"/>
</svg>
