<svg xmlns="http://www.w3.org/2000/svg" viewBox="0 0 512 512" >
  <path d="M 230 59 L 212 69 L 195 91 L 177 95 L 171 103 L 171 359 L 154 366 L 153 383 L 142 395 L 137 439 L 144 447 L 178 447 L 187 430 L 201 422 L 223 430 L 291 430 L 312 422 L 326 429 L 335 447 L 369 447 L 377 438 L 371 394 L 360 383 L 358 364 L 343 359 L 342 102 L 334 94 L 319 91 L 305 72 L 281 58 L 250 54 Z M 145 433 L 149 419 L 150 396 L 155 391 L 216 391 L 230 401 L 248 405 L 266 405 L 281 402 L 298 391 L 359 391 L 364 398 L 365 422 L 369 437 L 362 440 L 337 439 L 332 424 L 325 418 L 313 414 L 300 416 L 290 422 L 224 422 L 214 416 L 201 414 L 190 417 L 183 422 L 176 439 L 146 439 Z M 305 381 L 312 368 L 350 368 L 352 370 L 352 383 L 351 384 L 306 384 Z M 161 370 L 163 368 L 202 368 L 209 383 L 208 384 L 162 384 L 161 383 Z M 209 363 L 210 362 L 213 362 L 217 364 L 230 365 L 231 366 L 268 367 L 269 366 L 291 365 L 292 364 L 296 364 L 303 362 L 304 363 L 304 367 L 301 374 L 295 383 L 283 393 L 272 397 L 266 397 L 265 398 L 248 398 L 247 397 L 242 397 L 235 395 L 226 390 L 216 380 L 211 371 Z M 261 352 L 263 350 L 266 351 L 282 351 L 283 352 L 296 353 L 298 354 L 299 356 L 294 358 L 280 359 L 279 360 L 262 360 L 261 359 Z M 252 351 L 252 359 L 251 360 L 234 360 L 233 359 L 219 358 L 214 356 L 214 355 L 217 353 L 222 353 L 223 352 L 244 351 L 245 350 L 247 351 L 251 350 Z M 256 321 L 259 323 L 262 332 L 261 338 L 257 343 L 254 341 L 252 336 L 252 329 Z M 256 281 L 259 283 L 260 286 L 269 298 L 273 307 L 274 318 L 273 319 L 272 326 L 269 331 L 267 330 L 267 326 L 259 310 L 257 308 L 254 310 L 254 312 L 249 320 L 247 327 L 245 330 L 243 329 L 240 322 L 240 308 L 241 305 Z M 242 81 L 262 79 L 277 83 L 293 95 L 302 112 L 318 117 L 317 360 L 313 359 L 313 352 L 307 348 L 270 343 L 280 327 L 282 312 L 258 264 L 254 265 L 232 309 L 233 326 L 244 343 L 210 347 L 201 351 L 199 360 L 195 359 L 195 117 L 212 112 L 222 93 Z M 241 64 L 261 62 L 286 69 L 312 96 L 335 105 L 334 360 L 324 359 L 324 112 L 306 107 L 293 86 L 265 73 L 227 81 L 207 107 L 189 113 L 189 359 L 179 359 L 179 104 L 200 97 L 215 77 Z" fill="currentColor" fill-rule="evenodd"/>
</svg>
