<svg xmlns="http://www.w3.org/2000/svg" viewBox="0 0 512 512" >
  <path d="M 253 238 L 253 240 L 251 242 L 253 245 L 257 246 L 258 244 L 261 242 L 258 240 L 259 238 Z M 244 226 L 245 228 L 244 230 L 246 232 L 250 233 L 253 231 L 246 229 L 247 226 L 253 227 L 252 225 L 246 224 Z M 258 112 L 229 151 L 241 205 L 232 227 L 239 253 L 228 256 L 193 215 L 201 203 L 231 241 L 196 182 L 200 173 L 221 214 L 212 200 L 221 196 L 218 203 L 233 212 L 218 182 L 226 152 L 216 136 L 194 162 L 194 188 L 178 180 L 171 204 L 177 239 L 214 269 L 213 316 L 190 328 L 190 343 L 177 356 L 172 411 L 185 424 L 321 425 L 338 413 L 333 354 L 321 343 L 319 325 L 298 317 L 297 271 L 339 232 L 336 182 L 319 188 L 318 159 L 297 137 L 287 152 L 294 184 L 280 213 L 295 191 L 304 197 L 291 216 L 303 203 L 312 172 L 316 183 L 281 244 L 311 204 L 318 218 L 284 256 L 276 254 L 279 226 L 271 204 L 284 153 Z M 300 419 L 302 418 L 303 420 L 301 421 Z M 305 419 L 308 417 L 311 417 L 312 418 L 311 421 L 306 421 Z M 284 419 L 287 417 L 289 420 L 288 421 L 285 421 Z M 257 419 L 259 417 L 261 417 L 263 420 L 262 421 L 258 421 Z M 248 419 L 250 417 L 252 417 L 254 420 L 253 421 L 249 421 Z M 315 420 L 318 416 L 321 417 L 318 421 Z M 265 419 L 270 416 L 273 420 L 272 421 L 266 421 Z M 238 419 L 241 416 L 243 416 L 246 420 L 245 421 L 239 421 Z M 229 418 L 231 416 L 233 416 L 236 420 L 235 421 L 230 421 Z M 212 417 L 213 416 L 216 416 L 218 418 L 218 420 L 217 421 L 213 421 L 212 420 Z M 189 418 L 192 416 L 194 420 L 191 421 Z M 295 415 L 298 417 L 298 420 L 297 421 L 293 421 L 292 420 Z M 275 419 L 279 415 L 282 417 L 282 420 L 281 421 L 276 421 Z M 220 418 L 224 415 L 227 418 L 227 420 L 226 421 L 221 421 Z M 201 419 L 205 415 L 209 418 L 208 421 L 205 420 L 202 421 Z M 183 416 L 185 415 L 187 418 L 185 419 Z M 196 414 L 198 414 L 200 416 L 198 420 L 195 418 L 195 415 Z M 306 412 L 307 413 L 307 416 L 304 418 L 303 416 L 304 413 Z M 253 416 L 255 412 L 258 414 L 256 417 Z M 245 413 L 247 412 L 249 415 L 246 416 Z M 186 413 L 188 412 L 189 414 L 187 415 Z M 333 411 L 334 413 L 330 418 L 328 418 L 327 417 L 327 414 L 330 411 Z M 290 411 L 293 412 L 293 415 L 291 417 L 288 415 Z M 266 411 L 267 412 L 267 415 L 264 417 L 263 414 L 264 412 Z M 274 410 L 277 412 L 277 414 L 275 416 L 273 416 L 271 414 L 271 412 Z M 237 410 L 238 410 L 240 413 L 239 416 L 236 416 L 235 415 L 235 412 Z M 226 411 L 229 410 L 230 411 L 230 414 L 227 415 L 226 414 Z M 314 409 L 317 411 L 317 413 L 315 416 L 312 415 L 312 412 Z M 307 410 L 310 409 L 311 411 L 308 412 Z M 300 409 L 303 411 L 303 413 L 301 415 L 297 413 L 297 411 Z M 281 411 L 283 409 L 285 409 L 287 411 L 287 413 L 285 415 L 283 415 L 281 413 Z M 249 410 L 252 409 L 254 412 L 250 414 L 249 413 Z M 219 409 L 222 411 L 222 413 L 220 415 L 218 415 L 216 413 Z M 210 409 L 213 410 L 213 413 L 211 415 L 208 413 Z M 177 411 L 180 409 L 183 413 L 181 415 L 179 415 L 177 413 Z M 258 412 L 258 410 L 260 408 L 263 409 L 263 411 L 261 413 Z M 199 411 L 203 408 L 206 412 L 203 414 L 201 414 Z M 324 407 L 327 409 L 327 411 L 325 413 L 322 411 L 322 409 Z M 240 408 L 243 407 L 244 408 L 244 411 L 242 412 L 240 410 Z M 318 409 L 319 406 L 322 407 L 320 410 Z M 266 408 L 268 406 L 271 406 L 272 407 L 272 409 L 270 411 L 267 410 Z M 253 407 L 256 406 L 257 408 L 254 409 Z M 193 406 L 194 406 L 196 409 L 196 411 L 194 413 L 192 413 L 190 410 Z M 328 406 L 329 405 L 333 405 L 334 407 L 332 409 L 330 409 Z M 292 406 L 293 405 L 296 405 L 298 408 L 294 410 L 292 408 Z M 284 406 L 285 405 L 289 405 L 290 408 L 288 409 L 285 408 Z M 275 407 L 277 405 L 279 405 L 281 407 L 281 409 L 278 410 L 276 409 Z M 231 409 L 231 407 L 234 405 L 237 405 L 238 406 L 234 411 Z M 222 408 L 224 405 L 228 405 L 229 407 L 225 410 Z M 214 408 L 215 405 L 218 405 L 219 406 L 217 409 Z M 301 405 L 302 404 L 307 404 L 308 407 L 305 408 L 302 407 Z M 205 407 L 206 404 L 211 404 L 212 406 L 208 409 Z M 182 406 L 185 404 L 188 409 L 187 410 L 184 410 Z M 176 407 L 177 404 L 180 405 L 178 408 Z M 196 406 L 198 403 L 202 403 L 203 405 L 199 408 Z M 310 404 L 315 402 L 317 405 L 314 407 L 311 406 Z M 188 404 L 189 401 L 192 401 L 193 402 L 191 405 Z M 319 402 L 321 400 L 323 400 L 325 402 L 325 404 L 323 405 L 320 404 Z M 326 399 L 327 398 L 330 398 L 332 400 L 332 402 L 331 403 L 328 403 Z M 179 402 L 179 400 L 181 398 L 184 398 L 186 400 L 185 402 L 182 403 Z M 296 396 L 298 395 L 299 397 L 297 398 Z M 269 396 L 271 395 L 272 397 L 270 398 Z M 239 396 L 242 395 L 243 397 L 240 398 Z M 260 397 L 260 395 L 262 393 L 264 393 L 266 395 L 264 398 L 261 398 Z M 275 396 L 279 391 L 281 391 L 284 394 L 281 398 L 277 398 Z M 258 394 L 255 398 L 250 398 L 249 397 L 254 391 Z M 234 391 L 237 393 L 237 395 L 235 398 L 232 398 L 230 395 Z M 219 393 L 223 391 L 224 394 L 226 394 L 228 397 L 227 398 L 222 398 L 219 396 Z M 209 393 L 211 391 L 213 391 L 216 394 L 216 397 L 215 398 L 212 398 L 209 395 Z M 299 396 L 299 393 L 302 390 L 305 390 L 307 392 L 307 394 L 304 397 L 300 397 Z M 295 392 L 295 394 L 291 398 L 286 398 L 285 397 L 288 393 L 291 394 L 291 391 L 292 390 Z M 243 392 L 246 390 L 248 392 L 248 394 L 245 395 Z M 203 390 L 206 393 L 206 397 L 205 398 L 201 397 L 199 395 L 199 392 Z M 317 389 L 319 391 L 319 393 L 316 396 L 311 397 L 310 396 L 310 393 L 314 389 Z M 192 389 L 195 391 L 197 395 L 196 397 L 192 396 L 189 393 Z M 264 389 L 267 388 L 268 391 L 265 392 Z M 328 387 L 330 390 L 325 394 L 324 393 L 324 390 Z M 225 388 L 228 387 L 229 388 L 229 391 L 227 392 L 225 390 Z M 180 388 L 181 387 L 184 387 L 187 391 L 187 393 L 186 394 L 183 393 L 180 390 Z M 259 386 L 262 388 L 260 392 L 256 390 L 256 388 Z M 237 387 L 238 386 L 241 386 L 243 389 L 239 392 L 237 389 Z M 269 386 L 271 385 L 273 387 L 275 387 L 278 385 L 279 388 L 277 389 L 276 391 L 272 392 L 270 390 Z M 247 387 L 250 385 L 253 387 L 253 389 L 252 390 L 249 390 Z M 229 386 L 232 385 L 234 388 L 232 389 L 230 388 Z M 215 386 L 218 385 L 221 389 L 218 391 L 216 391 L 215 390 Z M 296 390 L 296 385 L 297 384 L 300 384 L 302 387 L 298 391 Z M 287 384 L 290 386 L 290 388 L 285 392 L 282 388 Z M 209 384 L 212 388 L 207 391 L 205 389 L 205 387 Z M 196 389 L 196 385 L 197 384 L 201 384 L 203 386 L 202 388 L 198 390 Z M 309 383 L 312 385 L 312 388 L 310 390 L 308 390 L 305 387 L 305 386 Z M 316 385 L 320 382 L 324 384 L 324 387 L 322 389 L 320 389 L 317 387 Z M 278 382 L 279 381 L 283 381 L 284 383 L 281 385 L 279 384 Z M 271 382 L 274 381 L 275 383 L 272 384 Z M 263 382 L 264 381 L 267 381 L 268 383 L 267 384 L 264 384 Z M 252 382 L 253 381 L 258 381 L 259 383 L 257 385 L 254 385 Z M 242 384 L 243 381 L 248 381 L 249 383 L 245 386 Z M 233 382 L 234 381 L 238 381 L 239 383 L 237 385 L 235 385 Z M 194 381 L 195 383 L 192 387 L 188 388 L 186 386 L 186 383 L 187 382 L 191 383 L 192 381 Z M 330 380 L 333 381 L 333 384 L 331 386 L 327 384 L 327 382 Z M 291 384 L 291 381 L 292 380 L 296 380 L 297 381 L 295 384 L 293 385 Z M 224 383 L 226 380 L 229 380 L 230 381 L 227 385 Z M 219 381 L 221 380 L 222 383 L 220 384 Z M 209 381 L 210 380 L 215 380 L 216 383 L 215 384 L 212 384 L 210 383 Z M 180 380 L 182 383 L 180 386 L 178 385 L 178 381 Z M 300 380 L 301 379 L 306 379 L 307 382 L 303 384 L 300 382 Z M 206 379 L 207 382 L 204 384 L 203 381 Z M 183 380 L 185 379 L 186 381 L 184 382 Z M 197 381 L 199 378 L 202 379 L 202 380 L 199 382 Z M 310 379 L 313 377 L 315 377 L 317 379 L 317 381 L 315 383 L 313 383 L 310 381 Z M 188 379 L 190 376 L 194 376 L 195 377 L 194 379 L 191 380 Z M 318 376 L 321 375 L 325 380 L 324 381 L 320 380 Z M 324 374 L 327 373 L 330 376 L 330 378 L 328 379 Z M 181 377 L 181 375 L 183 373 L 187 373 L 188 374 L 186 377 L 183 378 Z M 232 371 L 235 369 L 237 371 L 237 373 L 235 374 L 233 373 Z M 279 368 L 281 369 L 281 372 L 280 373 L 277 373 L 276 370 Z M 272 368 L 273 371 L 270 374 L 267 374 L 266 372 L 270 368 Z M 261 368 L 264 370 L 264 372 L 262 374 L 259 374 L 258 371 Z M 248 370 L 250 368 L 252 368 L 255 372 L 253 374 L 250 374 L 248 372 Z M 239 371 L 241 368 L 244 368 L 246 370 L 246 373 L 245 374 L 241 374 Z M 283 368 L 284 367 L 287 367 L 290 371 L 287 373 L 285 373 Z M 227 367 L 230 368 L 230 371 L 228 374 L 225 373 L 225 369 Z M 222 367 L 223 369 L 222 372 L 220 373 L 218 371 L 218 369 Z M 296 366 L 299 370 L 297 372 L 293 373 L 292 372 L 292 369 Z M 212 366 L 214 366 L 216 369 L 216 372 L 215 373 L 212 373 L 209 370 Z M 301 368 L 303 367 L 304 365 L 306 365 L 308 367 L 308 370 L 305 372 L 302 372 L 301 371 Z M 203 365 L 207 368 L 207 371 L 206 372 L 203 372 L 201 370 L 201 367 Z M 317 364 L 319 367 L 315 371 L 312 371 L 311 368 L 315 364 Z M 280 364 L 282 363 L 284 366 L 281 367 Z M 194 363 L 195 363 L 198 367 L 198 370 L 197 371 L 195 371 L 191 367 Z M 263 365 L 265 362 L 268 362 L 270 366 L 268 368 L 265 368 Z M 253 364 L 255 362 L 258 362 L 260 364 L 260 366 L 258 368 L 255 368 L 253 366 Z M 231 365 L 236 362 L 239 362 L 241 366 L 236 369 L 234 367 L 232 367 Z M 183 364 L 185 362 L 187 362 L 189 365 L 189 367 L 186 368 Z M 326 361 L 328 363 L 328 365 L 325 368 L 322 369 L 321 366 L 322 364 Z M 289 360 L 293 363 L 293 365 L 291 367 L 287 365 L 287 362 Z M 245 360 L 250 364 L 250 366 L 248 368 L 246 368 L 243 364 L 243 362 Z M 215 363 L 218 360 L 222 362 L 222 364 L 219 366 L 217 366 Z M 299 359 L 303 362 L 301 366 L 295 364 Z M 206 361 L 208 359 L 210 359 L 212 363 L 210 365 L 207 365 L 206 364 Z M 308 358 L 311 358 L 313 360 L 313 362 L 311 365 L 305 363 Z M 268 360 L 271 358 L 277 362 L 280 358 L 283 358 L 285 359 L 286 361 L 279 363 L 279 365 L 276 368 L 274 368 L 272 366 L 273 363 L 272 362 L 269 362 Z M 259 360 L 262 358 L 264 360 L 264 362 L 261 363 Z M 230 359 L 233 358 L 235 359 L 236 361 L 232 363 L 230 361 Z M 291 358 L 292 357 L 295 357 L 296 359 L 295 360 L 292 360 Z M 325 357 L 327 355 L 329 356 L 328 359 L 326 359 Z M 321 355 L 323 357 L 322 361 L 319 363 L 316 361 L 316 359 Z M 262 355 L 263 354 L 269 354 L 270 356 L 266 359 L 263 357 Z M 248 359 L 248 358 L 253 354 L 258 354 L 260 356 L 260 357 L 257 359 L 253 357 L 252 359 L 254 360 L 253 362 L 251 362 Z M 243 355 L 246 354 L 247 356 L 244 357 Z M 235 356 L 237 354 L 239 354 L 242 356 L 243 360 L 242 361 L 238 360 Z M 227 355 L 230 354 L 231 356 L 228 357 Z M 219 356 L 221 354 L 223 354 L 224 357 L 227 358 L 228 360 L 230 361 L 230 364 L 229 365 L 226 365 L 225 362 L 224 362 Z M 195 354 L 197 356 L 197 358 L 195 359 L 193 362 L 190 363 L 189 362 L 189 358 L 192 356 L 193 354 Z M 281 354 L 282 353 L 287 353 L 289 355 L 289 357 L 286 358 L 284 356 L 282 356 Z M 271 354 L 272 353 L 275 354 L 277 353 L 279 356 L 277 358 L 272 357 Z M 301 352 L 305 352 L 308 354 L 305 360 L 303 360 L 300 358 L 300 357 L 302 356 L 302 355 L 300 354 Z M 292 354 L 295 352 L 297 353 L 299 356 L 296 358 L 293 356 Z M 208 354 L 210 352 L 216 352 L 217 353 L 217 359 L 215 361 L 213 361 L 212 358 L 214 357 L 214 356 L 209 357 Z M 205 351 L 206 353 L 203 355 L 203 356 L 205 355 L 206 356 L 206 359 L 205 360 L 202 360 L 202 363 L 199 364 L 197 362 L 197 360 L 199 358 L 201 358 L 199 354 L 202 351 Z M 310 350 L 314 350 L 317 352 L 317 355 L 314 359 L 312 358 L 313 354 L 311 354 L 309 352 Z M 193 351 L 196 350 L 197 353 L 195 354 Z M 318 349 L 319 348 L 322 348 L 326 351 L 326 353 L 325 354 L 320 353 Z M 189 348 L 190 351 L 186 353 L 188 355 L 187 358 L 184 360 L 182 360 L 181 359 L 181 356 L 183 352 L 186 349 Z M 206 323 L 209 323 L 210 324 L 207 334 L 208 342 L 210 345 L 209 347 L 205 347 L 197 344 L 193 339 L 193 332 L 197 327 Z M 319 335 L 317 341 L 314 344 L 306 347 L 278 349 L 273 348 L 258 350 L 239 349 L 240 347 L 258 343 L 270 337 L 287 331 L 300 329 L 298 326 L 295 328 L 280 330 L 249 342 L 224 347 L 219 346 L 221 334 L 224 327 L 236 330 L 256 332 L 267 327 L 282 326 L 290 321 L 294 321 L 313 326 L 317 330 Z M 218 321 L 222 324 L 222 326 L 220 329 L 217 345 L 214 347 L 210 342 L 210 330 L 213 324 L 216 321 Z M 232 296 L 234 297 L 234 307 L 233 308 L 229 305 L 230 299 Z M 278 293 L 281 295 L 281 300 L 282 301 L 282 304 L 279 307 L 278 307 L 276 304 L 276 298 Z M 262 272 L 263 274 L 261 277 L 258 287 L 258 299 L 257 300 L 258 302 L 258 311 L 260 315 L 254 317 L 251 317 L 246 315 L 237 315 L 236 314 L 236 311 L 238 307 L 238 296 L 236 290 L 249 285 L 257 276 Z M 289 264 L 291 266 L 294 274 L 294 280 L 295 281 L 296 294 L 297 295 L 297 304 L 298 305 L 297 310 L 291 317 L 283 321 L 276 323 L 268 323 L 261 326 L 260 324 L 263 322 L 264 319 L 270 320 L 287 305 L 288 303 L 285 302 L 283 287 L 282 286 L 282 279 L 283 278 L 284 270 L 286 266 Z M 278 258 L 283 260 L 285 262 L 285 264 L 281 272 L 279 281 L 273 294 L 273 308 L 274 311 L 269 316 L 262 315 L 260 312 L 260 290 L 261 289 L 262 280 L 274 260 L 276 258 Z M 263 252 L 265 257 L 267 258 L 267 260 L 264 265 L 249 282 L 242 286 L 235 286 L 233 283 L 231 275 L 230 274 L 229 275 L 230 284 L 229 285 L 229 289 L 226 300 L 226 307 L 234 318 L 236 319 L 243 318 L 244 319 L 243 322 L 248 323 L 249 326 L 248 327 L 243 327 L 242 326 L 238 326 L 231 324 L 222 319 L 216 313 L 214 309 L 214 298 L 215 297 L 215 290 L 216 289 L 217 276 L 219 269 L 225 262 L 238 257 L 246 256 L 248 253 L 258 254 Z M 207 241 L 209 243 L 208 247 L 206 249 L 204 249 L 202 246 L 203 244 Z M 310 236 L 316 241 L 316 243 L 313 246 L 308 242 L 308 238 Z M 202 236 L 204 240 L 203 242 L 199 245 L 197 244 L 195 241 L 198 239 L 200 236 Z M 198 232 L 199 235 L 195 239 L 193 239 L 192 237 Z M 314 231 L 315 231 L 320 237 L 319 240 L 317 240 L 312 235 Z M 316 229 L 317 228 L 320 229 L 324 232 L 325 234 L 323 236 L 320 235 L 316 231 Z M 195 228 L 196 231 L 192 235 L 189 236 L 187 233 Z M 318 224 L 320 223 L 325 226 L 327 226 L 328 229 L 326 231 L 324 231 L 318 226 Z M 193 223 L 194 226 L 192 229 L 190 229 L 187 231 L 184 229 L 185 226 L 187 226 L 191 223 Z M 334 218 L 337 221 L 335 230 L 330 239 L 316 252 L 295 265 L 294 263 L 288 258 L 288 255 L 292 252 L 294 252 L 295 254 L 297 255 L 296 249 L 299 246 L 301 247 L 304 252 L 306 252 L 302 246 L 302 243 L 303 242 L 306 242 L 311 248 L 312 248 L 313 246 L 315 246 L 318 244 L 327 235 L 332 225 L 332 219 Z M 175 221 L 178 218 L 180 219 L 180 226 L 186 237 L 192 243 L 198 247 L 204 249 L 205 251 L 207 251 L 209 248 L 212 246 L 213 247 L 212 252 L 213 252 L 215 249 L 217 250 L 215 255 L 219 252 L 221 252 L 225 257 L 217 264 L 215 264 L 194 251 L 182 239 L 177 230 Z M 248 216 L 254 216 L 255 217 L 264 216 L 269 220 L 270 223 L 269 226 L 266 224 L 261 224 L 259 226 L 259 227 L 265 226 L 266 227 L 265 230 L 259 230 L 259 231 L 262 233 L 265 232 L 267 230 L 267 228 L 269 227 L 270 228 L 270 237 L 267 244 L 262 249 L 257 251 L 254 251 L 249 249 L 245 245 L 242 239 L 242 235 L 241 234 L 242 221 Z M 191 216 L 192 217 L 192 220 L 190 222 L 186 224 L 184 224 L 182 222 L 183 219 L 186 219 L 189 216 Z M 320 216 L 322 215 L 326 219 L 329 220 L 330 222 L 328 224 L 323 223 L 320 220 Z M 335 213 L 337 212 L 338 214 L 336 215 Z M 260 211 L 262 210 L 263 212 L 261 213 Z M 254 211 L 256 210 L 258 213 L 255 214 Z M 249 211 L 251 210 L 252 212 L 250 213 Z M 316 206 L 318 205 L 319 207 L 317 208 Z M 255 206 L 257 205 L 258 207 L 256 208 Z M 197 201 L 199 200 L 200 202 L 198 203 Z M 333 197 L 336 201 L 337 206 L 336 208 L 333 210 L 332 214 L 330 216 L 327 216 L 324 212 L 328 209 L 327 208 L 328 205 L 333 206 L 333 201 L 331 199 L 331 198 Z M 320 195 L 322 194 L 323 196 L 321 197 Z M 187 195 L 189 199 L 185 207 L 185 210 L 187 211 L 188 213 L 185 216 L 182 216 L 180 214 L 180 210 L 179 210 L 177 212 L 177 215 L 175 216 L 174 215 L 174 211 L 175 210 L 175 204 L 176 202 L 178 201 L 179 202 L 179 205 L 182 206 L 184 204 L 185 198 L 182 199 L 181 196 L 183 194 Z M 329 193 L 331 198 L 330 199 L 327 198 L 328 202 L 326 203 L 323 198 L 325 195 L 327 195 L 327 194 Z M 189 193 L 191 192 L 193 196 L 191 197 L 189 195 Z M 218 190 L 219 191 L 219 194 L 217 196 L 213 198 L 211 198 L 209 196 L 211 193 L 213 193 Z M 330 188 L 332 187 L 333 189 L 331 190 Z M 295 187 L 297 185 L 300 185 L 302 187 L 306 188 L 307 191 L 305 193 L 303 193 L 298 191 Z M 297 180 L 299 179 L 303 181 L 308 181 L 309 184 L 307 186 L 303 186 L 300 185 L 297 182 Z M 215 178 L 216 179 L 216 182 L 214 184 L 217 186 L 217 188 L 211 192 L 207 192 L 206 189 L 209 187 L 211 187 L 212 185 L 205 186 L 204 185 L 204 182 L 205 181 L 209 181 Z M 297 172 L 299 171 L 303 174 L 308 174 L 309 175 L 309 178 L 308 179 L 300 178 L 298 176 Z M 215 172 L 215 176 L 212 178 L 205 179 L 203 177 L 204 174 L 209 174 L 213 171 Z M 313 167 L 315 166 L 316 168 L 314 169 Z M 218 165 L 220 164 L 221 166 L 219 167 Z M 244 158 L 245 157 L 248 158 L 259 157 L 260 158 L 267 158 L 268 160 L 265 162 L 246 162 L 244 160 Z M 298 152 L 301 152 L 302 153 L 301 155 L 304 160 L 309 160 L 309 157 L 310 156 L 313 158 L 313 161 L 311 164 L 309 165 L 310 168 L 307 171 L 304 171 L 302 169 L 302 167 L 304 164 L 297 156 L 297 153 Z M 260 153 L 261 152 L 265 152 L 266 154 L 265 155 L 261 155 Z M 246 152 L 247 151 L 252 152 L 253 154 L 252 155 L 248 155 Z M 214 151 L 216 155 L 209 164 L 209 166 L 211 166 L 212 168 L 208 171 L 205 171 L 203 169 L 203 165 L 201 164 L 201 162 L 203 160 L 205 161 L 208 160 L 212 155 L 210 154 L 209 152 L 210 151 Z M 295 150 L 296 152 L 295 154 L 293 155 L 292 153 L 293 151 Z M 235 150 L 241 154 L 243 172 L 247 186 L 249 183 L 247 179 L 251 178 L 248 175 L 254 173 L 249 173 L 247 175 L 246 170 L 257 169 L 250 168 L 247 165 L 248 164 L 266 165 L 265 167 L 260 168 L 265 169 L 266 171 L 264 173 L 259 174 L 265 175 L 265 177 L 262 178 L 265 180 L 264 183 L 265 186 L 269 173 L 271 154 L 276 150 L 278 151 L 279 153 L 278 174 L 269 204 L 267 203 L 266 199 L 263 196 L 263 191 L 257 179 L 253 183 L 245 204 L 242 203 L 233 167 L 233 154 Z M 217 151 L 219 150 L 220 152 L 218 153 Z M 262 141 L 264 140 L 265 142 L 263 143 Z M 248 141 L 251 140 L 252 142 L 249 143 Z M 270 139 L 275 142 L 275 146 L 274 147 L 268 143 Z M 238 142 L 243 139 L 246 141 L 247 144 L 246 145 L 244 144 L 240 147 L 238 144 Z M 255 136 L 259 136 L 260 137 L 258 143 L 255 143 L 254 142 L 253 138 Z M 264 132 L 267 131 L 268 133 L 265 134 Z M 247 132 L 249 131 L 251 132 L 252 134 L 250 135 L 248 134 Z M 255 129 L 258 128 L 260 133 L 259 134 L 255 134 L 254 133 Z M 255 123 L 257 121 L 259 122 L 258 125 L 256 125 Z M 258 91 L 216 111 L 186 136 L 170 158 L 153 202 L 149 253 L 155 405 L 160 423 L 173 433 L 332 434 L 349 424 L 354 411 L 362 267 L 362 218 L 355 184 L 342 156 L 319 127 L 289 105 Z M 258 96 L 287 109 L 312 127 L 338 158 L 352 190 L 357 215 L 358 251 L 349 413 L 344 423 L 333 429 L 177 429 L 165 422 L 160 408 L 154 268 L 158 201 L 166 176 L 188 141 L 223 112 Z M 252 44 L 234 59 L 232 77 L 237 87 L 202 107 L 175 132 L 158 157 L 145 189 L 139 222 L 139 283 L 146 419 L 159 439 L 173 445 L 336 445 L 357 432 L 365 412 L 373 265 L 369 193 L 361 169 L 338 131 L 310 105 L 279 87 L 284 76 L 279 54 L 267 45 Z M 256 84 L 290 98 L 320 119 L 346 150 L 363 189 L 369 246 L 360 413 L 353 429 L 336 440 L 175 440 L 157 430 L 149 406 L 143 261 L 148 196 L 165 154 L 182 131 L 213 105 Z M 254 61 L 262 61 L 268 68 L 268 73 L 262 80 L 260 79 L 254 80 L 250 77 L 248 73 L 248 68 Z M 240 58 L 246 52 L 253 49 L 263 49 L 270 52 L 276 58 L 280 67 L 279 77 L 276 83 L 274 85 L 268 83 L 268 81 L 272 75 L 272 66 L 270 62 L 264 57 L 255 56 L 250 58 L 246 62 L 244 66 L 244 75 L 248 82 L 246 84 L 242 85 L 237 77 L 237 73 L 236 72 L 237 64 Z" fill="currentColor" fill-rule="evenodd"/>
</svg>
