<svg xmlns="http://www.w3.org/2000/svg" viewBox="0 0 512 512" >
  <path d="M 249 380 L 247 382 L 244 389 L 245 397 L 248 401 L 249 401 L 247 397 L 246 389 L 247 388 L 247 385 L 250 381 Z M 253 213 L 253 215 L 255 216 L 256 218 L 255 219 L 251 219 L 251 220 L 252 220 L 255 224 L 259 224 L 260 222 L 263 220 L 262 218 L 261 219 L 258 219 L 257 218 L 258 216 L 261 215 L 261 213 L 259 214 Z M 261 205 L 263 206 L 269 206 L 271 203 L 268 203 L 267 204 L 262 203 Z M 243 203 L 245 206 L 251 206 L 253 205 L 252 203 L 249 204 Z M 260 199 L 260 200 L 262 200 L 264 198 L 269 198 L 272 200 L 272 198 L 269 196 L 264 196 Z M 242 198 L 242 200 L 245 198 L 250 198 L 252 200 L 254 200 L 254 199 L 250 196 L 245 196 Z M 249 125 L 216 131 L 186 144 L 161 162 L 144 180 L 128 204 L 116 234 L 111 259 L 111 294 L 116 319 L 129 351 L 162 392 L 184 408 L 212 421 L 237 427 L 268 428 L 295 423 L 324 411 L 350 393 L 370 372 L 385 349 L 396 322 L 402 292 L 402 260 L 396 230 L 383 200 L 349 159 L 307 134 L 282 127 Z M 176 394 L 179 393 L 185 397 L 199 402 L 236 409 L 284 408 L 312 402 L 326 397 L 333 393 L 335 393 L 337 396 L 324 405 L 310 412 L 293 418 L 281 421 L 255 423 L 234 421 L 214 416 L 201 411 L 186 403 L 177 397 Z M 269 372 L 270 371 L 277 371 L 278 373 L 274 377 L 272 377 Z M 232 372 L 233 371 L 241 371 L 242 373 L 238 378 L 236 378 Z M 305 371 L 307 370 L 308 372 L 306 373 Z M 185 370 L 187 370 L 192 373 L 199 380 L 201 383 L 202 390 L 205 396 L 204 398 L 192 394 L 186 388 L 183 381 L 183 373 Z M 298 369 L 302 374 L 302 376 L 304 379 L 304 389 L 301 395 L 297 399 L 291 402 L 278 403 L 277 401 L 280 398 L 282 394 L 283 388 L 288 380 L 282 385 L 278 396 L 275 398 L 274 397 L 276 391 L 275 384 L 277 380 L 283 374 L 291 370 Z M 255 369 L 257 369 L 268 378 L 272 387 L 272 390 L 269 391 L 268 390 L 268 387 L 266 386 L 267 389 L 266 398 L 261 405 L 247 404 L 241 398 L 239 393 L 239 386 L 241 381 L 247 374 Z M 211 369 L 220 371 L 228 375 L 232 379 L 235 385 L 235 393 L 236 394 L 235 397 L 233 396 L 231 389 L 228 384 L 225 381 L 222 380 L 228 389 L 229 395 L 233 401 L 232 403 L 226 403 L 225 402 L 217 401 L 213 399 L 207 392 L 206 389 L 206 378 Z M 196 370 L 197 369 L 202 370 L 204 372 L 203 376 L 201 377 Z M 325 367 L 327 370 L 327 374 L 328 375 L 328 379 L 326 386 L 324 389 L 317 395 L 309 398 L 306 398 L 305 396 L 308 390 L 308 378 L 309 376 L 316 370 Z M 341 363 L 342 364 L 342 367 L 341 368 L 340 378 L 336 385 L 330 389 L 329 387 L 331 384 L 331 380 L 332 379 L 331 369 L 336 364 Z M 171 363 L 175 364 L 180 369 L 179 372 L 179 381 L 181 386 L 180 388 L 179 388 L 172 380 L 171 373 L 170 372 L 170 364 Z M 257 363 L 258 362 L 294 362 L 295 364 L 291 366 L 261 367 L 259 366 Z M 323 361 L 322 363 L 313 364 L 307 366 L 302 366 L 300 364 L 301 362 L 306 362 L 307 361 L 318 361 L 319 360 L 322 360 Z M 199 365 L 200 363 L 202 363 L 201 361 L 205 359 L 227 360 L 228 361 L 246 361 L 247 362 L 254 362 L 255 363 L 254 365 L 249 368 L 244 368 L 243 367 L 220 367 L 212 364 L 208 365 L 207 367 L 204 367 Z M 335 357 L 336 359 L 331 362 L 330 359 Z M 175 358 L 178 357 L 182 359 L 193 361 L 195 362 L 196 364 L 195 365 L 188 365 L 185 363 L 180 363 L 178 362 Z M 176 336 L 184 326 L 202 320 L 208 320 L 212 323 L 209 329 L 245 334 L 259 334 L 268 329 L 285 327 L 303 320 L 309 320 L 329 327 L 333 331 L 336 341 L 334 347 L 329 352 L 317 356 L 233 357 L 233 354 L 257 349 L 278 340 L 311 331 L 300 330 L 289 332 L 249 347 L 213 354 L 193 354 L 185 352 L 178 346 Z M 226 286 L 229 287 L 229 294 L 230 295 L 229 297 L 229 303 L 227 305 L 226 305 L 223 301 L 223 296 Z M 286 284 L 287 284 L 289 287 L 289 291 L 291 299 L 287 303 L 284 302 L 284 289 Z M 290 241 L 298 245 L 305 255 L 310 288 L 310 307 L 306 313 L 296 319 L 261 328 L 260 326 L 268 321 L 266 316 L 279 316 L 295 301 L 290 273 L 292 261 L 290 260 L 280 287 L 281 309 L 275 313 L 233 312 L 231 309 L 234 291 L 231 280 L 248 275 L 262 262 L 258 290 L 260 309 L 263 271 L 275 239 L 278 238 L 266 275 L 266 308 L 267 282 L 273 260 L 281 242 Z M 267 231 L 271 238 L 271 241 L 258 261 L 248 271 L 241 275 L 234 276 L 228 271 L 224 260 L 222 261 L 224 273 L 218 302 L 226 312 L 232 317 L 235 318 L 239 316 L 245 316 L 246 318 L 244 319 L 244 321 L 247 323 L 253 324 L 254 326 L 249 329 L 231 326 L 215 320 L 203 308 L 203 291 L 207 262 L 210 252 L 219 243 L 242 237 L 247 232 L 253 234 L 261 234 Z M 272 230 L 274 229 L 275 231 L 273 232 Z M 238 232 L 240 229 L 242 230 L 240 233 Z M 236 219 L 238 220 L 238 224 L 237 225 L 235 224 L 235 220 Z M 233 210 L 235 209 L 236 211 L 234 212 Z M 279 207 L 281 206 L 282 208 L 280 209 Z M 232 207 L 234 206 L 235 208 L 233 209 Z M 234 188 L 236 187 L 237 189 L 235 190 Z M 247 185 L 253 185 L 254 186 L 267 185 L 271 187 L 275 193 L 276 210 L 274 213 L 273 218 L 271 222 L 265 228 L 260 230 L 253 230 L 246 226 L 242 221 L 238 211 L 238 198 L 239 197 L 239 193 L 241 189 Z M 273 183 L 275 182 L 276 184 L 274 185 Z M 268 182 L 269 179 L 272 180 L 270 183 Z M 242 182 L 243 179 L 246 180 L 244 183 Z M 262 179 L 265 178 L 266 181 L 263 182 Z M 254 180 L 256 178 L 258 178 L 259 179 L 259 182 L 256 183 Z M 248 179 L 251 178 L 252 181 L 249 182 Z M 266 174 L 268 173 L 269 175 L 267 176 Z M 245 174 L 247 173 L 248 175 L 246 176 Z M 258 174 L 261 172 L 263 175 L 262 176 L 259 176 Z M 251 174 L 253 172 L 255 173 L 254 176 L 252 176 Z M 254 167 L 255 166 L 259 166 L 260 168 L 259 169 L 255 169 Z M 256 147 L 259 148 L 261 154 L 260 157 L 257 156 L 254 157 L 253 156 L 253 153 Z M 181 154 L 234 133 L 287 134 L 334 155 L 372 193 L 395 248 L 396 298 L 380 347 L 344 391 L 339 388 L 348 359 L 336 352 L 340 343 L 337 329 L 311 315 L 315 294 L 310 256 L 299 240 L 278 233 L 287 200 L 282 180 L 271 169 L 257 137 L 243 169 L 232 180 L 227 199 L 231 227 L 238 233 L 219 238 L 207 248 L 198 297 L 202 315 L 173 331 L 176 352 L 164 359 L 172 390 L 143 363 L 119 309 L 118 249 L 137 200 Z M 251 51 L 235 59 L 226 72 L 224 89 L 230 109 L 203 115 L 172 130 L 149 147 L 124 175 L 99 226 L 92 286 L 107 347 L 122 374 L 145 401 L 169 420 L 206 438 L 244 446 L 271 446 L 305 439 L 331 428 L 359 409 L 382 386 L 399 361 L 414 325 L 421 267 L 409 211 L 382 165 L 339 128 L 309 114 L 283 108 L 290 91 L 286 67 L 270 53 Z M 246 112 L 278 113 L 310 121 L 337 134 L 361 152 L 388 183 L 403 211 L 415 263 L 415 289 L 408 326 L 395 357 L 378 382 L 354 406 L 332 421 L 299 435 L 272 440 L 242 440 L 212 434 L 178 419 L 158 405 L 135 382 L 118 357 L 104 323 L 98 291 L 99 251 L 104 229 L 117 197 L 132 174 L 161 145 L 188 128 L 217 117 Z M 247 104 L 250 102 L 255 102 L 256 103 L 264 102 L 266 105 L 265 106 L 248 106 Z M 253 72 L 261 72 L 265 74 L 270 81 L 269 90 L 263 96 L 254 97 L 250 95 L 245 89 L 244 82 L 246 78 Z M 241 62 L 252 57 L 262 57 L 272 61 L 280 69 L 284 78 L 285 85 L 284 86 L 284 90 L 282 96 L 276 104 L 272 105 L 268 101 L 268 99 L 273 94 L 275 89 L 275 85 L 276 84 L 275 83 L 274 76 L 268 69 L 262 66 L 253 66 L 250 67 L 244 71 L 241 75 L 239 80 L 239 88 L 242 95 L 246 99 L 246 101 L 242 105 L 240 105 L 236 102 L 231 93 L 231 90 L 230 89 L 230 79 L 233 71 Z" fill="currentColor" fill-rule="evenodd"/>
</svg>
