<svg xmlns="http://www.w3.org/2000/svg" viewBox="0 0 512 512" >
  <path d="M 261 203 L 263 206 L 269 206 L 272 204 L 272 202 L 269 202 L 268 203 L 263 203 L 262 202 Z M 273 196 L 266 193 L 261 195 L 259 197 L 259 199 L 261 199 L 266 196 L 273 198 Z M 240 195 L 239 198 L 243 196 L 246 196 L 251 199 L 251 201 L 248 203 L 244 203 L 243 202 L 240 202 L 239 203 L 243 206 L 249 206 L 250 205 L 252 206 L 252 212 L 251 214 L 254 218 L 253 219 L 250 219 L 250 221 L 251 221 L 253 223 L 253 225 L 255 226 L 259 225 L 259 223 L 262 221 L 262 219 L 258 219 L 257 217 L 260 215 L 255 213 L 255 201 L 253 197 L 251 195 L 246 193 Z M 256 126 L 246 144 L 247 152 L 228 173 L 223 202 L 227 227 L 239 233 L 208 243 L 199 255 L 193 307 L 200 322 L 175 330 L 165 342 L 168 361 L 160 367 L 159 382 L 150 396 L 151 403 L 158 410 L 351 411 L 361 402 L 361 392 L 353 382 L 353 369 L 344 361 L 348 348 L 345 338 L 333 328 L 312 322 L 318 311 L 318 289 L 310 249 L 300 241 L 273 233 L 274 230 L 282 231 L 285 226 L 284 216 L 289 203 L 287 183 L 283 172 L 265 152 L 266 144 Z M 155 396 L 157 391 L 161 387 L 350 387 L 355 391 L 357 398 L 351 406 L 161 406 L 157 403 Z M 163 372 L 167 367 L 175 366 L 181 369 L 189 370 L 323 370 L 337 366 L 342 366 L 348 370 L 349 378 L 343 383 L 169 383 L 164 380 Z M 308 339 L 307 341 L 296 342 L 295 343 L 280 346 L 277 348 L 259 354 L 255 354 L 254 353 L 254 346 L 255 345 L 266 344 L 278 338 L 298 337 L 299 338 L 307 338 Z M 343 346 L 343 350 L 341 356 L 335 362 L 325 365 L 245 365 L 244 364 L 245 362 L 252 361 L 286 349 L 289 349 L 298 346 L 302 346 L 303 345 L 311 345 L 314 343 L 314 340 L 310 335 L 307 334 L 299 334 L 298 332 L 304 327 L 323 330 L 332 333 L 340 339 Z M 169 348 L 172 339 L 178 334 L 193 329 L 208 327 L 214 331 L 215 333 L 214 334 L 200 334 L 193 336 L 192 338 L 209 338 L 210 339 L 217 339 L 218 340 L 225 340 L 231 342 L 244 343 L 249 346 L 250 348 L 250 355 L 248 357 L 242 359 L 238 359 L 237 360 L 229 361 L 228 362 L 223 362 L 222 363 L 217 363 L 216 364 L 209 364 L 208 365 L 187 365 L 177 362 L 171 356 Z M 222 288 L 224 289 L 224 293 L 225 294 L 225 303 L 223 309 L 218 305 L 220 290 Z M 289 287 L 291 288 L 292 296 L 293 297 L 293 302 L 294 303 L 294 305 L 290 309 L 288 308 L 288 305 L 287 304 L 287 292 Z M 299 246 L 305 251 L 309 260 L 313 288 L 313 311 L 306 320 L 287 333 L 276 334 L 263 340 L 262 338 L 268 332 L 260 331 L 260 328 L 271 325 L 281 326 L 293 312 L 303 304 L 298 302 L 294 279 L 294 266 L 292 265 L 290 273 L 285 282 L 282 294 L 285 315 L 278 322 L 274 320 L 273 298 L 277 280 L 288 257 L 291 245 L 293 244 Z M 285 242 L 286 243 L 286 248 L 283 257 L 274 275 L 270 288 L 270 292 L 269 293 L 269 321 L 262 324 L 249 324 L 242 321 L 234 322 L 227 315 L 228 308 L 229 307 L 229 299 L 230 298 L 228 286 L 242 282 L 250 277 L 259 269 L 267 259 L 275 244 L 275 242 L 276 241 Z M 268 233 L 272 239 L 269 247 L 259 262 L 243 276 L 234 280 L 226 280 L 222 273 L 220 265 L 218 266 L 218 278 L 214 302 L 209 303 L 209 305 L 214 307 L 231 326 L 234 327 L 240 325 L 248 328 L 254 328 L 254 331 L 243 331 L 243 333 L 248 335 L 255 335 L 256 337 L 253 339 L 243 339 L 230 336 L 208 322 L 199 312 L 198 298 L 204 256 L 211 247 L 238 240 L 244 233 L 255 236 Z M 278 218 L 280 219 L 280 226 L 279 227 L 277 226 L 276 221 Z M 233 218 L 235 219 L 235 225 L 234 226 L 232 225 L 232 219 Z M 283 199 L 284 200 L 284 204 L 283 207 L 281 208 L 280 207 L 280 201 Z M 229 199 L 232 201 L 232 207 L 230 208 L 228 205 L 228 200 Z M 277 185 L 280 184 L 282 186 L 282 188 L 279 189 Z M 244 184 L 252 184 L 255 186 L 257 186 L 260 184 L 268 184 L 270 185 L 275 191 L 276 194 L 276 207 L 275 208 L 275 213 L 273 219 L 267 227 L 260 231 L 252 231 L 248 229 L 242 224 L 238 217 L 237 209 L 236 208 L 236 194 L 237 193 L 237 190 Z M 235 183 L 236 185 L 233 189 L 231 189 L 230 188 L 230 185 L 232 183 Z M 268 176 L 269 175 L 272 176 L 274 179 L 274 181 L 273 182 L 270 181 L 268 179 Z M 243 175 L 244 176 L 244 179 L 239 182 L 238 181 L 238 178 Z M 231 177 L 233 175 L 235 176 L 234 179 L 232 179 Z M 276 175 L 278 174 L 280 176 L 280 178 L 278 179 Z M 258 175 L 259 174 L 262 174 L 264 176 L 264 179 L 263 180 L 259 180 L 258 179 Z M 248 176 L 250 174 L 252 174 L 254 176 L 254 179 L 253 180 L 249 180 L 248 179 Z M 269 166 L 272 168 L 272 171 L 271 172 L 269 172 L 267 170 L 267 168 Z M 242 166 L 245 168 L 245 170 L 243 172 L 241 172 L 239 170 Z M 260 164 L 263 166 L 263 169 L 262 170 L 259 170 L 258 169 L 258 166 Z M 251 164 L 254 166 L 254 169 L 253 170 L 250 170 L 248 168 Z M 246 159 L 248 158 L 249 160 L 247 161 Z M 262 158 L 264 157 L 266 160 L 263 161 Z M 253 157 L 254 156 L 258 156 L 259 159 L 257 161 L 255 161 L 253 159 Z M 255 138 L 257 138 L 261 144 L 261 149 L 259 151 L 253 151 L 250 147 L 251 143 Z M 121 115 L 117 119 L 119 421 L 391 422 L 395 417 L 394 118 L 388 114 Z M 125 121 L 388 122 L 387 416 L 123 415 Z M 255 66 L 249 68 L 245 72 L 243 76 L 243 82 L 246 88 L 252 92 L 259 92 L 262 91 L 267 86 L 269 81 L 269 77 L 267 72 L 261 67 Z M 254 73 L 258 73 L 262 77 L 262 82 L 259 85 L 253 85 L 250 82 L 250 77 Z M 103 98 L 94 115 L 94 422 L 99 434 L 117 446 L 395 446 L 406 441 L 418 420 L 418 117 L 413 103 L 393 91 L 286 91 L 280 60 L 256 48 L 231 61 L 226 91 L 119 91 Z M 110 102 L 121 98 L 242 98 L 232 81 L 235 68 L 248 57 L 260 56 L 271 61 L 279 74 L 278 88 L 270 98 L 391 98 L 407 107 L 411 118 L 411 419 L 402 435 L 391 439 L 121 439 L 104 429 L 101 117 Z" fill="currentColor" fill-rule="evenodd"/>
</svg>
