<svg xmlns="http://www.w3.org/2000/svg" viewBox="0 0 512 512" >
  <path d="M 251 55 L 236 65 L 230 81 L 232 94 L 243 112 L 223 120 L 212 137 L 212 158 L 215 161 L 215 404 L 212 407 L 212 428 L 218 443 L 225 450 L 241 456 L 268 457 L 290 449 L 301 427 L 301 408 L 298 404 L 298 161 L 301 157 L 301 138 L 291 121 L 270 112 L 282 90 L 278 67 L 265 56 Z M 222 434 L 223 433 L 226 433 L 227 434 L 236 434 L 237 435 L 273 435 L 274 434 L 285 434 L 286 433 L 289 433 L 290 434 L 290 438 L 287 443 L 281 447 L 275 449 L 271 449 L 270 450 L 255 451 L 254 450 L 240 449 L 229 445 L 223 439 Z M 218 412 L 221 411 L 222 412 L 240 412 L 241 413 L 270 413 L 271 412 L 289 412 L 290 411 L 293 411 L 294 412 L 294 425 L 289 427 L 282 427 L 281 428 L 261 428 L 260 429 L 257 428 L 256 429 L 251 429 L 250 428 L 231 428 L 230 427 L 223 427 L 218 425 Z M 222 162 L 292 163 L 291 405 L 228 406 L 221 404 Z M 218 142 L 219 141 L 293 141 L 294 142 L 294 154 L 291 156 L 277 156 L 276 157 L 233 157 L 232 156 L 222 156 L 218 154 Z M 223 131 L 230 123 L 237 120 L 248 119 L 249 118 L 264 118 L 265 119 L 275 120 L 283 123 L 289 129 L 290 134 L 289 135 L 224 135 L 223 134 Z M 256 93 L 259 94 L 263 99 L 263 111 L 262 112 L 250 112 L 249 111 L 250 98 L 252 95 Z M 245 65 L 251 62 L 258 61 L 266 64 L 273 71 L 276 80 L 276 87 L 275 88 L 275 91 L 271 98 L 268 96 L 267 93 L 262 88 L 259 87 L 254 87 L 248 90 L 243 98 L 240 96 L 237 89 L 237 78 L 240 71 Z" fill="currentColor" fill-rule="evenodd"/>
</svg>
