<svg xmlns="http://www.w3.org/2000/svg" viewBox="0 0 512 512" >
  <path d="M 250 43 L 240 47 L 230 58 L 227 79 L 235 95 L 215 108 L 212 124 L 205 130 L 205 145 L 212 152 L 212 398 L 205 404 L 205 419 L 212 426 L 213 441 L 222 452 L 242 460 L 265 461 L 292 450 L 299 439 L 299 426 L 307 419 L 307 405 L 299 398 L 299 152 L 307 144 L 307 131 L 299 124 L 296 107 L 276 95 L 285 76 L 281 57 L 268 45 Z M 218 427 L 219 426 L 292 426 L 293 427 L 293 438 L 291 442 L 286 447 L 276 452 L 269 454 L 265 454 L 264 455 L 248 455 L 247 454 L 243 454 L 233 451 L 223 445 L 218 436 Z M 211 406 L 213 404 L 298 404 L 301 406 L 301 418 L 298 420 L 214 420 L 211 418 Z M 219 151 L 293 152 L 292 398 L 226 399 L 218 397 Z M 211 132 L 213 130 L 299 130 L 301 132 L 301 143 L 299 145 L 212 145 L 211 144 Z M 218 117 L 221 110 L 231 103 L 241 100 L 246 100 L 247 99 L 265 99 L 266 100 L 274 101 L 286 106 L 292 112 L 293 115 L 293 123 L 292 124 L 219 124 L 218 123 Z M 248 91 L 252 89 L 260 89 L 262 90 L 263 92 L 262 93 L 249 93 Z M 253 65 L 259 65 L 263 70 L 264 76 L 261 83 L 251 83 L 249 81 L 248 72 L 249 69 Z M 242 53 L 250 49 L 261 49 L 268 52 L 275 59 L 278 65 L 279 75 L 278 76 L 278 80 L 272 90 L 270 90 L 267 86 L 270 76 L 268 66 L 262 60 L 256 58 L 249 60 L 245 64 L 242 71 L 242 79 L 245 86 L 241 90 L 238 88 L 234 81 L 233 68 L 236 60 Z" fill="currentColor" fill-rule="evenodd"/>
</svg>
