<svg xmlns="http://www.w3.org/2000/svg" viewBox="0 0 512 512" >
  <path d="M 257 352 L 253 352 L 251 354 L 250 357 L 252 360 L 255 361 L 259 358 L 259 354 Z M 237 334 L 237 336 L 241 343 L 246 347 L 252 349 L 258 349 L 265 346 L 270 341 L 272 337 L 272 334 L 263 342 L 260 343 L 250 343 L 242 339 L 240 336 Z M 254 250 L 251 251 L 247 256 L 247 262 L 248 264 L 254 268 L 252 277 L 250 281 L 244 287 L 233 291 L 233 292 L 238 293 L 244 296 L 250 302 L 253 309 L 253 315 L 247 320 L 247 327 L 251 331 L 256 332 L 259 331 L 263 326 L 263 321 L 259 316 L 256 315 L 256 311 L 258 305 L 266 296 L 272 293 L 277 292 L 277 291 L 272 290 L 266 287 L 259 280 L 256 272 L 256 268 L 263 262 L 263 256 L 260 252 Z M 251 322 L 253 320 L 257 320 L 259 322 L 259 324 L 257 327 L 253 327 L 251 325 Z M 254 284 L 263 291 L 263 292 L 255 299 L 247 292 Z M 251 257 L 253 255 L 257 255 L 259 258 L 259 260 L 256 263 L 254 263 L 251 260 Z M 257 199 L 249 201 L 245 207 L 246 214 L 253 220 L 251 228 L 228 249 L 223 257 L 221 265 L 221 321 L 223 331 L 233 352 L 254 374 L 257 373 L 275 354 L 284 339 L 288 325 L 288 261 L 281 248 L 266 236 L 258 227 L 257 220 L 263 216 L 265 212 L 265 206 L 261 201 Z M 254 231 L 256 231 L 261 237 L 279 252 L 284 262 L 284 324 L 282 333 L 273 350 L 256 368 L 251 366 L 234 346 L 228 334 L 225 319 L 225 267 L 226 261 L 230 253 Z M 249 208 L 252 204 L 258 204 L 260 206 L 261 211 L 257 215 L 253 215 L 250 212 Z M 246 79 L 245 78 L 233 78 L 232 79 L 229 79 L 225 81 L 218 88 L 217 91 L 231 92 L 235 90 L 238 87 L 239 84 Z M 242 56 L 219 63 L 187 91 L 188 111 L 171 121 L 153 122 L 171 126 L 162 139 L 194 113 L 217 117 L 261 104 L 265 108 L 254 128 L 208 151 L 191 167 L 183 187 L 188 213 L 160 237 L 153 271 L 161 290 L 181 307 L 164 336 L 169 367 L 191 388 L 231 399 L 226 415 L 229 434 L 243 449 L 265 455 L 267 447 L 252 430 L 254 420 L 265 410 L 326 383 L 344 359 L 346 336 L 336 314 L 356 289 L 360 260 L 350 237 L 328 220 L 336 198 L 331 175 L 314 158 L 289 149 L 306 116 L 300 83 L 273 60 Z M 209 336 L 212 338 L 214 345 L 219 353 L 218 355 L 213 354 L 210 352 L 206 347 L 206 341 Z M 301 332 L 305 337 L 306 340 L 305 348 L 300 354 L 291 359 L 289 359 L 288 357 L 292 352 L 296 344 L 296 342 L 299 336 L 299 333 Z M 331 319 L 338 331 L 340 340 L 339 353 L 333 366 L 321 378 L 313 383 L 275 398 L 257 408 L 250 415 L 247 421 L 246 429 L 251 440 L 260 449 L 258 450 L 250 447 L 237 436 L 233 428 L 232 417 L 237 404 L 252 389 L 256 389 L 261 386 L 276 372 L 292 366 L 304 359 L 309 354 L 312 348 L 312 337 L 308 329 L 328 319 Z M 186 312 L 191 311 L 198 314 L 205 315 L 208 317 L 209 328 L 202 334 L 200 338 L 200 341 L 199 342 L 200 349 L 202 353 L 207 358 L 215 362 L 227 365 L 229 368 L 246 384 L 246 385 L 237 393 L 217 390 L 201 385 L 188 378 L 175 364 L 170 350 L 171 335 L 175 325 L 179 319 Z M 302 256 L 310 259 L 313 262 L 315 267 L 312 276 L 304 282 L 302 281 L 302 263 L 301 262 L 301 257 Z M 209 252 L 210 255 L 208 262 L 208 270 L 207 271 L 204 271 L 197 265 L 196 261 L 200 255 L 206 252 Z M 324 226 L 329 228 L 338 234 L 347 244 L 351 252 L 353 259 L 353 276 L 347 292 L 343 298 L 332 309 L 317 318 L 302 323 L 301 322 L 302 320 L 302 291 L 312 285 L 318 279 L 321 273 L 321 263 L 319 259 L 313 253 L 307 250 L 299 249 L 296 246 L 295 242 L 297 240 L 313 233 L 321 226 Z M 192 219 L 194 219 L 199 224 L 207 229 L 211 230 L 216 233 L 219 233 L 222 235 L 215 244 L 207 245 L 197 249 L 192 254 L 190 258 L 190 266 L 192 270 L 196 274 L 208 279 L 208 308 L 207 309 L 195 306 L 188 302 L 184 301 L 173 293 L 166 285 L 160 272 L 160 254 L 166 240 L 178 227 Z M 266 184 L 267 183 L 276 183 L 277 184 L 282 184 L 287 186 L 291 190 L 292 193 L 291 197 L 286 202 L 278 205 L 274 196 L 266 189 Z M 242 174 L 243 175 L 243 190 L 240 192 L 235 198 L 232 198 L 226 193 L 225 187 L 229 181 Z M 259 168 L 260 193 L 269 199 L 272 206 L 271 215 L 265 224 L 290 247 L 295 257 L 296 321 L 292 339 L 282 357 L 257 382 L 253 382 L 230 360 L 217 337 L 214 323 L 214 262 L 216 254 L 223 243 L 245 223 L 239 215 L 238 207 L 241 200 L 249 193 L 250 171 Z M 282 156 L 290 156 L 291 157 L 298 158 L 314 166 L 324 176 L 329 188 L 329 200 L 328 201 L 328 204 L 325 211 L 320 218 L 311 226 L 306 229 L 289 236 L 274 225 L 273 223 L 277 216 L 277 214 L 280 211 L 289 208 L 295 203 L 298 198 L 298 189 L 296 185 L 288 179 L 281 177 L 267 176 L 266 175 L 266 164 L 276 158 Z M 263 64 L 278 70 L 291 82 L 298 97 L 299 115 L 293 132 L 279 148 L 257 161 L 234 170 L 220 182 L 219 194 L 223 200 L 233 206 L 233 215 L 237 222 L 231 229 L 227 229 L 207 221 L 195 210 L 190 199 L 191 181 L 196 171 L 208 159 L 254 136 L 264 128 L 271 116 L 271 105 L 266 98 L 268 91 L 251 104 L 217 111 L 204 111 L 196 106 L 203 99 L 199 98 L 193 103 L 191 96 L 225 67 L 240 63 Z" fill="currentColor" fill-rule="evenodd"/>
</svg>
