<svg xmlns="http://www.w3.org/2000/svg" viewBox="0 0 512 512" >
  <path d="M 53 169 L 49 176 L 53 202 L 78 228 L 124 244 L 207 258 L 209 264 L 203 275 L 209 283 L 208 293 L 195 311 L 172 324 L 165 353 L 179 365 L 231 375 L 301 373 L 344 359 L 347 341 L 341 324 L 319 312 L 306 296 L 303 284 L 310 274 L 304 264 L 307 256 L 374 247 L 423 234 L 450 217 L 463 190 L 461 171 L 440 157 L 381 143 L 316 137 L 222 136 L 143 142 L 82 154 Z M 172 344 L 174 341 L 176 341 L 182 345 L 194 349 L 224 354 L 274 355 L 314 350 L 328 346 L 339 341 L 340 352 L 332 358 L 320 362 L 300 366 L 279 368 L 233 368 L 207 365 L 183 359 L 172 352 Z M 176 331 L 182 325 L 195 320 L 207 309 L 213 299 L 217 286 L 238 290 L 274 290 L 296 286 L 299 297 L 306 309 L 318 320 L 332 326 L 336 330 L 336 333 L 328 339 L 305 345 L 280 348 L 232 348 L 207 345 L 187 340 L 178 335 Z M 210 272 L 212 270 L 218 270 L 219 271 L 224 271 L 231 273 L 269 274 L 270 273 L 281 273 L 282 272 L 300 270 L 303 274 L 300 278 L 292 281 L 280 282 L 279 283 L 266 283 L 265 284 L 248 284 L 247 283 L 234 283 L 233 282 L 227 282 L 226 281 L 217 280 L 210 275 Z M 214 258 L 215 255 L 224 255 L 225 256 L 285 256 L 286 255 L 298 255 L 299 256 L 298 260 L 295 264 L 286 265 L 285 266 L 277 266 L 276 267 L 261 267 L 260 268 L 237 267 L 236 266 L 228 266 L 227 265 L 217 264 Z M 59 196 L 87 206 L 128 215 L 245 224 L 355 219 L 406 211 L 435 203 L 451 195 L 453 199 L 448 208 L 431 222 L 386 237 L 325 246 L 238 249 L 160 243 L 108 232 L 73 216 L 63 206 Z M 77 192 L 103 183 L 145 176 L 209 171 L 275 170 L 383 178 L 421 186 L 434 191 L 435 194 L 402 204 L 348 212 L 288 216 L 223 216 L 133 208 L 78 195 Z M 57 177 L 67 168 L 85 161 L 141 150 L 219 144 L 299 144 L 368 149 L 414 157 L 446 168 L 454 174 L 456 181 L 443 190 L 430 182 L 394 173 L 297 164 L 216 164 L 147 169 L 95 178 L 69 190 L 57 182 Z" fill="currentColor" fill-rule="evenodd"/>
</svg>
