<svg xmlns="http://www.w3.org/2000/svg" viewBox="0 0 512 512" >
  <path d="M 365 257 L 364 256 L 359 270 L 349 283 L 340 290 L 326 297 L 319 299 L 318 301 L 339 301 L 348 298 L 353 295 L 359 289 L 365 278 L 365 275 L 366 274 L 366 262 L 365 261 Z M 148 257 L 148 262 L 147 263 L 147 273 L 148 274 L 148 277 L 152 286 L 159 294 L 165 298 L 174 301 L 195 301 L 194 299 L 185 296 L 169 287 L 158 276 L 153 267 L 150 257 L 149 256 Z M 307 220 L 305 219 L 304 220 L 288 221 L 280 224 L 277 226 L 274 230 L 274 233 L 273 234 L 273 253 L 274 254 L 276 266 L 279 272 L 280 270 L 281 251 L 282 250 L 284 238 Z M 208 219 L 207 221 L 229 238 L 231 245 L 231 249 L 232 250 L 233 269 L 234 272 L 236 269 L 239 259 L 239 255 L 240 254 L 240 232 L 238 228 L 231 223 L 225 221 L 221 221 L 220 220 L 209 220 Z M 203 174 L 202 177 L 250 177 L 248 189 L 230 189 L 213 192 L 202 196 L 190 205 L 249 201 L 256 244 L 258 242 L 261 214 L 265 201 L 323 205 L 317 199 L 301 192 L 265 188 L 264 176 L 312 177 L 309 173 L 294 167 L 264 164 L 256 160 L 250 164 L 216 168 Z M 251 59 L 228 70 L 215 93 L 217 118 L 232 139 L 189 152 L 163 130 L 141 121 L 124 123 L 106 138 L 98 160 L 98 180 L 118 222 L 95 272 L 91 304 L 95 329 L 110 321 L 115 346 L 136 374 L 186 403 L 201 427 L 216 438 L 259 447 L 299 437 L 314 425 L 327 403 L 377 374 L 396 350 L 403 319 L 417 330 L 421 289 L 411 251 L 395 222 L 415 179 L 408 139 L 382 121 L 355 127 L 325 151 L 282 139 L 299 111 L 297 87 L 279 65 Z M 199 406 L 201 405 L 210 408 L 226 407 L 237 403 L 252 395 L 258 394 L 274 402 L 288 407 L 303 408 L 313 405 L 314 407 L 309 416 L 300 425 L 290 431 L 275 436 L 269 436 L 268 437 L 245 437 L 244 436 L 239 436 L 238 435 L 228 433 L 219 429 L 213 425 L 204 416 Z M 228 335 L 230 333 L 245 333 L 246 334 L 256 334 L 257 335 L 260 334 L 268 334 L 269 333 L 284 333 L 285 334 L 285 337 L 280 342 L 276 343 L 267 348 L 263 352 L 261 359 L 259 361 L 255 362 L 252 359 L 252 356 L 250 352 L 245 347 L 233 342 L 228 337 Z M 341 246 L 341 251 L 339 258 L 336 263 L 329 270 L 323 273 L 312 274 L 305 272 L 299 268 L 301 263 L 306 258 L 307 258 L 310 263 L 314 266 L 321 266 L 323 265 L 328 259 L 328 251 L 327 249 L 334 246 L 338 246 L 339 245 Z M 172 246 L 173 245 L 179 246 L 186 249 L 185 251 L 185 259 L 190 265 L 195 267 L 196 266 L 199 266 L 204 262 L 205 259 L 207 258 L 212 263 L 214 268 L 206 273 L 202 273 L 201 274 L 195 274 L 186 271 L 183 269 L 176 261 L 172 251 Z M 382 155 L 386 157 L 389 162 L 390 174 L 389 175 L 389 179 L 384 191 L 380 197 L 377 198 L 365 184 L 357 177 L 357 174 L 362 167 L 368 161 L 376 156 Z M 130 155 L 134 155 L 142 159 L 156 174 L 156 177 L 136 198 L 134 198 L 129 192 L 125 184 L 123 177 L 123 163 L 125 159 Z M 115 142 L 145 132 L 185 164 L 238 147 L 328 164 L 365 133 L 393 137 L 406 173 L 389 212 L 388 150 L 347 177 L 390 230 L 412 307 L 395 299 L 378 359 L 332 389 L 340 357 L 374 333 L 367 318 L 397 273 L 377 239 L 375 287 L 342 315 L 358 332 L 339 347 L 324 323 L 330 343 L 301 350 L 332 352 L 331 364 L 299 365 L 329 371 L 326 383 L 298 377 L 318 391 L 303 400 L 260 385 L 260 368 L 300 328 L 297 281 L 345 265 L 360 233 L 353 214 L 293 262 L 290 328 L 223 328 L 219 260 L 159 215 L 153 232 L 171 269 L 216 281 L 214 330 L 253 368 L 253 385 L 210 400 L 195 391 L 215 377 L 187 383 L 184 371 L 214 365 L 182 364 L 181 352 L 212 350 L 182 343 L 189 323 L 173 347 L 155 332 L 171 315 L 139 289 L 135 239 L 116 273 L 146 318 L 139 333 L 173 357 L 181 389 L 147 370 L 123 340 L 118 299 L 102 308 L 122 232 L 166 177 L 125 150 L 124 212 L 107 176 Z M 255 117 L 259 117 L 264 121 L 264 144 L 259 148 L 254 148 L 250 145 L 250 120 Z M 243 90 L 247 87 L 254 84 L 259 84 L 267 87 L 272 92 L 275 100 L 275 104 L 272 112 L 268 115 L 263 111 L 255 110 L 254 111 L 251 111 L 244 115 L 239 106 L 239 98 Z M 239 71 L 245 68 L 255 66 L 265 67 L 278 73 L 287 83 L 292 96 L 292 109 L 287 121 L 274 133 L 271 132 L 271 123 L 277 117 L 281 110 L 282 105 L 281 95 L 278 88 L 271 81 L 261 77 L 252 77 L 243 81 L 235 89 L 232 97 L 233 111 L 238 119 L 243 123 L 243 132 L 242 133 L 238 132 L 228 123 L 222 110 L 222 94 L 228 81 Z" fill="currentColor" fill-rule="evenodd"/>
</svg>
