<svg xmlns="http://www.w3.org/2000/svg" viewBox="0 0 512 512" >
  <path d="M 249 315 L 251 317 L 261 317 L 263 316 L 263 315 L 260 313 L 252 313 Z M 255 72 L 225 93 L 199 120 L 175 156 L 161 187 L 150 224 L 140 281 L 135 416 L 143 425 L 368 425 L 376 418 L 375 319 L 369 263 L 356 203 L 334 150 L 313 119 L 281 87 Z M 367 413 L 369 414 L 369 417 L 368 418 L 365 417 Z M 143 410 L 145 411 L 147 415 L 146 418 L 144 418 L 142 416 L 142 411 Z M 283 398 L 284 397 L 287 398 L 289 397 L 317 397 L 324 403 L 325 405 L 325 412 L 322 416 L 315 417 L 314 418 L 295 418 L 294 417 L 291 417 L 286 413 L 286 406 Z M 231 406 L 233 401 L 237 397 L 249 397 L 250 398 L 275 397 L 280 402 L 281 412 L 278 416 L 273 418 L 239 418 L 236 417 L 232 413 L 231 411 Z M 187 406 L 189 402 L 195 397 L 222 397 L 223 398 L 228 397 L 229 398 L 226 407 L 226 413 L 223 416 L 217 418 L 199 418 L 198 417 L 193 417 L 188 413 L 187 411 Z M 326 398 L 328 396 L 338 396 L 345 394 L 352 394 L 355 395 L 360 399 L 362 403 L 362 409 L 358 414 L 355 415 L 351 415 L 350 416 L 336 416 L 330 412 L 330 406 Z M 150 404 L 151 401 L 157 395 L 160 394 L 167 394 L 174 396 L 185 396 L 186 397 L 186 399 L 182 407 L 182 412 L 179 415 L 176 416 L 162 416 L 161 415 L 157 415 L 152 412 L 150 408 Z M 278 390 L 281 385 L 281 382 L 282 381 L 282 374 L 281 372 L 286 368 L 289 368 L 290 367 L 316 368 L 318 369 L 321 373 L 321 382 L 318 387 L 313 391 L 310 392 L 283 392 Z M 235 374 L 236 372 L 241 368 L 245 368 L 246 367 L 265 367 L 266 368 L 271 368 L 273 369 L 277 373 L 278 379 L 275 387 L 269 392 L 244 392 L 237 386 L 235 381 Z M 191 374 L 195 369 L 200 367 L 222 367 L 223 368 L 226 368 L 231 371 L 230 379 L 234 390 L 229 392 L 203 392 L 200 391 L 193 385 L 191 380 Z M 354 368 L 355 370 L 355 378 L 349 386 L 338 390 L 327 390 L 326 391 L 322 391 L 321 390 L 324 386 L 326 380 L 326 374 L 325 373 L 325 370 L 330 367 L 336 367 L 342 365 L 350 365 Z M 158 369 L 162 365 L 170 365 L 171 366 L 185 368 L 187 370 L 187 375 L 186 377 L 190 390 L 189 391 L 186 390 L 175 390 L 165 387 L 158 379 L 157 376 L 157 371 Z M 273 359 L 272 361 L 236 361 L 235 360 L 236 358 L 242 357 L 251 354 L 255 354 L 256 353 L 262 353 L 263 352 L 266 352 Z M 324 320 L 323 323 L 307 326 L 268 345 L 260 346 L 259 347 L 254 347 L 248 349 L 245 348 L 253 331 L 261 331 L 264 330 L 269 325 L 273 323 L 288 322 L 305 316 L 312 316 L 315 319 L 322 318 Z M 358 332 L 358 342 L 355 349 L 348 356 L 339 360 L 323 361 L 322 362 L 289 360 L 280 357 L 273 351 L 275 348 L 277 348 L 309 332 L 319 330 L 320 329 L 325 329 L 328 327 L 334 327 L 336 326 L 335 324 L 333 324 L 330 322 L 330 319 L 326 314 L 327 312 L 335 313 L 346 317 L 355 325 Z M 154 341 L 155 329 L 157 325 L 163 319 L 177 313 L 187 312 L 188 311 L 206 311 L 211 317 L 210 318 L 199 318 L 198 317 L 185 318 L 176 321 L 176 323 L 180 322 L 196 322 L 197 323 L 210 324 L 211 325 L 216 325 L 246 331 L 241 343 L 233 353 L 218 358 L 203 361 L 179 361 L 170 359 L 164 356 L 158 350 Z M 300 309 L 299 312 L 297 312 L 291 315 L 269 318 L 259 325 L 248 325 L 247 324 L 235 323 L 218 316 L 212 311 L 212 309 L 218 305 L 232 289 L 234 289 L 244 284 L 251 279 L 261 269 L 265 263 L 268 265 L 268 267 L 275 281 L 283 293 L 293 304 Z M 257 231 L 258 232 L 262 251 L 264 255 L 264 258 L 261 263 L 252 273 L 243 280 L 237 282 L 236 280 L 238 278 L 247 258 L 251 246 L 251 243 L 253 239 L 254 232 Z M 291 219 L 292 220 L 291 226 L 288 228 L 286 224 L 288 221 Z M 291 200 L 294 201 L 294 209 L 293 210 L 291 210 L 289 208 L 289 204 Z M 219 196 L 221 197 L 221 201 L 223 205 L 223 207 L 221 210 L 218 209 L 218 197 Z M 297 176 L 298 179 L 295 188 L 293 189 L 292 188 L 292 182 L 294 178 Z M 292 173 L 295 170 L 298 171 L 298 174 L 297 175 L 293 175 Z M 215 170 L 217 170 L 219 172 L 219 174 L 216 175 L 216 177 L 218 179 L 220 185 L 220 190 L 219 191 L 217 190 L 217 187 L 213 177 L 213 172 Z M 266 160 L 270 164 L 273 186 L 275 184 L 274 162 L 279 172 L 280 187 L 283 183 L 282 176 L 284 175 L 286 179 L 286 196 L 279 213 L 279 224 L 286 237 L 312 268 L 320 282 L 321 275 L 318 267 L 292 234 L 296 219 L 298 217 L 315 224 L 324 239 L 328 263 L 327 286 L 322 298 L 312 305 L 301 302 L 288 289 L 280 277 L 267 247 L 259 216 L 259 165 L 261 164 L 263 167 L 264 186 L 266 187 Z M 245 160 L 247 162 L 246 187 L 248 186 L 249 167 L 251 164 L 253 165 L 254 195 L 253 216 L 239 262 L 223 290 L 211 302 L 200 305 L 190 298 L 185 285 L 184 264 L 188 240 L 193 229 L 202 221 L 221 217 L 226 224 L 194 267 L 191 275 L 191 281 L 193 282 L 200 268 L 220 245 L 233 224 L 233 213 L 226 197 L 226 179 L 229 175 L 229 185 L 232 187 L 235 164 L 238 162 L 237 184 L 239 186 L 241 168 Z M 288 153 L 290 152 L 292 156 L 290 157 L 288 155 Z M 223 152 L 224 154 L 223 156 L 221 157 L 220 154 Z M 225 163 L 228 156 L 233 151 L 237 149 L 247 149 L 248 150 L 252 150 L 255 152 L 264 149 L 274 149 L 279 151 L 284 156 L 287 164 L 287 169 L 286 170 L 283 170 L 282 169 L 282 165 L 277 158 L 272 158 L 267 155 L 257 161 L 255 161 L 245 155 L 240 158 L 235 158 L 232 161 L 229 170 L 226 170 L 225 169 Z M 280 145 L 283 144 L 285 147 L 282 148 Z M 227 147 L 229 144 L 232 145 L 230 148 Z M 253 144 L 255 142 L 258 142 L 259 143 L 259 146 L 258 147 L 255 147 Z M 271 142 L 272 141 L 275 141 L 277 144 L 274 145 L 272 144 Z M 235 144 L 237 141 L 240 141 L 241 142 L 240 144 L 237 145 Z M 262 144 L 262 142 L 264 140 L 268 142 L 268 143 L 265 145 Z M 244 142 L 248 140 L 250 142 L 250 144 L 247 145 L 245 144 Z M 263 135 L 264 134 L 268 134 L 270 137 L 269 138 L 264 137 Z M 252 138 L 252 136 L 254 134 L 258 134 L 260 136 L 259 138 L 255 138 L 254 139 Z M 242 137 L 244 134 L 248 134 L 249 135 L 248 137 L 245 137 L 244 138 Z M 263 127 L 265 126 L 267 127 L 268 129 L 267 130 L 264 130 Z M 252 128 L 254 126 L 258 126 L 259 127 L 258 130 L 253 130 Z M 244 128 L 246 126 L 249 127 L 248 130 L 245 130 Z M 256 105 L 258 106 L 258 109 L 259 110 L 258 116 L 259 117 L 263 116 L 265 118 L 265 121 L 264 122 L 261 121 L 259 122 L 257 121 L 248 122 L 247 121 L 247 118 L 251 114 L 254 109 L 254 107 Z M 258 80 L 310 127 L 344 189 L 366 294 L 370 399 L 357 389 L 362 372 L 354 360 L 364 344 L 363 326 L 352 313 L 326 304 L 334 283 L 329 234 L 318 218 L 300 210 L 304 170 L 297 152 L 255 96 L 241 122 L 218 145 L 208 168 L 212 211 L 195 218 L 182 238 L 178 281 L 186 304 L 162 312 L 149 327 L 148 344 L 158 359 L 151 369 L 156 389 L 143 402 L 146 289 L 167 191 L 201 129 L 235 94 Z M 255 45 L 222 66 L 187 100 L 158 141 L 141 178 L 126 234 L 117 297 L 115 433 L 123 445 L 137 450 L 381 449 L 392 443 L 398 430 L 398 342 L 391 262 L 376 192 L 359 149 L 325 98 L 295 68 Z M 254 56 L 283 71 L 324 112 L 346 145 L 368 198 L 382 264 L 389 340 L 389 429 L 379 440 L 139 441 L 129 438 L 124 431 L 126 300 L 137 227 L 150 181 L 168 143 L 191 110 L 217 83 Z" fill="currentColor" fill-rule="evenodd"/>
</svg>
