<svg xmlns="http://www.w3.org/2000/svg" viewBox="0 0 512 512" >
  <path d="M 255 441 L 252 444 L 253 448 L 257 449 L 260 445 L 257 441 Z M 242 430 L 247 435 L 252 437 L 260 437 L 263 436 L 269 431 L 269 429 L 267 428 L 261 433 L 254 434 L 247 431 L 246 429 L 244 428 Z M 255 420 L 253 421 L 252 425 L 253 427 L 257 428 L 260 425 L 259 421 Z M 253 410 L 252 414 L 253 416 L 257 417 L 260 414 L 260 412 L 257 409 Z M 255 398 L 252 401 L 253 405 L 257 406 L 260 402 L 258 399 Z M 390 313 L 388 315 L 388 317 L 390 319 L 393 319 L 394 318 L 394 315 L 392 313 Z M 118 314 L 118 318 L 119 319 L 122 319 L 124 317 L 123 314 L 121 313 Z M 254 310 L 252 312 L 252 316 L 254 318 L 258 318 L 260 315 L 260 312 L 258 310 Z M 389 302 L 387 303 L 386 306 L 390 309 L 393 305 L 392 303 Z M 123 302 L 121 302 L 119 304 L 119 307 L 122 309 L 125 307 L 125 304 Z M 389 291 L 385 292 L 384 294 L 387 298 L 391 296 L 391 293 Z M 125 291 L 121 292 L 121 296 L 123 298 L 127 296 L 127 293 Z M 248 282 L 236 288 L 228 297 L 224 306 L 224 311 L 223 312 L 224 321 L 228 331 L 231 335 L 238 341 L 250 346 L 262 346 L 274 341 L 283 332 L 288 321 L 288 307 L 282 294 L 273 286 L 264 282 L 258 282 L 257 281 Z M 227 319 L 227 315 L 229 314 L 231 316 L 234 316 L 244 321 L 250 328 L 253 334 L 254 339 L 257 340 L 263 326 L 268 321 L 283 314 L 285 315 L 283 325 L 278 333 L 269 340 L 259 343 L 248 342 L 238 337 L 231 329 Z M 255 297 L 258 298 L 263 307 L 273 313 L 271 316 L 265 319 L 261 323 L 257 331 L 254 330 L 252 325 L 248 320 L 239 314 L 240 312 L 249 307 Z M 256 286 L 257 285 L 262 285 L 273 290 L 281 299 L 284 305 L 285 313 L 283 314 L 281 312 L 272 309 L 267 306 L 262 300 Z M 254 285 L 255 288 L 248 303 L 245 306 L 235 311 L 228 313 L 227 312 L 227 309 L 232 297 L 242 288 L 250 285 Z M 392 231 L 390 231 L 389 234 L 385 238 L 381 240 L 374 240 L 371 239 L 366 234 L 364 235 L 364 237 L 367 240 L 372 243 L 377 243 L 379 247 L 379 249 L 375 256 L 375 262 L 379 267 L 379 269 L 373 277 L 373 282 L 377 286 L 380 287 L 386 285 L 392 285 L 397 281 L 398 278 L 396 273 L 387 267 L 390 259 L 389 258 L 389 255 L 382 248 L 382 244 L 390 238 L 393 233 Z M 376 280 L 376 278 L 383 270 L 388 271 L 394 276 L 394 279 L 391 282 L 387 282 L 386 281 L 383 283 L 378 283 Z M 381 253 L 383 253 L 386 257 L 386 261 L 383 265 L 378 261 L 378 257 Z M 120 231 L 119 233 L 121 237 L 125 241 L 130 244 L 130 247 L 129 249 L 125 252 L 122 257 L 122 261 L 125 267 L 119 270 L 115 274 L 114 280 L 116 283 L 119 285 L 126 285 L 131 287 L 132 286 L 135 286 L 138 283 L 139 280 L 137 274 L 132 269 L 132 267 L 134 266 L 137 262 L 137 256 L 133 250 L 133 245 L 135 243 L 142 242 L 145 240 L 148 236 L 146 234 L 142 238 L 138 240 L 131 240 L 128 239 L 123 234 L 122 231 Z M 118 276 L 122 272 L 126 270 L 129 270 L 135 277 L 135 281 L 133 283 L 128 283 L 126 281 L 121 282 L 118 280 Z M 129 253 L 131 253 L 134 257 L 134 260 L 131 264 L 128 264 L 125 260 L 126 256 Z M 255 229 L 254 239 L 248 246 L 254 254 L 254 260 L 234 261 L 231 265 L 232 271 L 243 271 L 244 275 L 218 276 L 217 302 L 213 301 L 212 289 L 204 290 L 204 338 L 213 338 L 213 326 L 218 326 L 218 351 L 244 353 L 243 356 L 232 356 L 232 366 L 254 367 L 254 382 L 250 389 L 253 393 L 258 393 L 262 389 L 257 381 L 258 367 L 280 366 L 280 356 L 268 356 L 267 353 L 293 352 L 295 325 L 299 326 L 299 338 L 308 338 L 308 290 L 300 289 L 298 301 L 295 302 L 294 276 L 268 275 L 269 271 L 280 271 L 280 262 L 257 260 L 259 252 L 264 247 Z M 253 387 L 256 385 L 258 387 L 258 389 L 255 390 Z M 236 265 L 276 265 L 276 268 L 264 269 L 264 278 L 289 279 L 291 282 L 292 306 L 301 306 L 302 294 L 305 294 L 305 334 L 302 334 L 301 322 L 291 322 L 291 347 L 264 349 L 264 359 L 274 359 L 277 361 L 276 363 L 236 363 L 236 359 L 246 360 L 248 358 L 248 349 L 222 348 L 220 322 L 211 322 L 210 334 L 207 334 L 207 294 L 210 294 L 211 306 L 220 306 L 221 280 L 248 278 L 248 269 L 236 268 Z M 255 244 L 258 245 L 258 248 L 256 250 L 253 248 L 253 246 Z M 379 227 L 377 227 L 375 229 L 375 232 L 378 234 L 381 232 L 381 229 Z M 131 228 L 130 230 L 132 233 L 135 233 L 137 231 L 137 229 L 135 227 Z M 379 215 L 375 215 L 373 217 L 374 222 L 377 223 L 380 221 L 381 218 Z M 137 215 L 133 215 L 131 217 L 131 220 L 134 223 L 139 220 L 139 217 Z M 252 183 L 245 186 L 238 193 L 235 201 L 235 206 L 237 213 L 245 222 L 253 225 L 259 225 L 265 223 L 273 216 L 276 210 L 276 198 L 273 192 L 265 185 L 260 183 Z M 266 197 L 271 203 L 271 212 L 270 214 L 265 219 L 261 221 L 251 221 L 247 219 L 245 217 L 246 215 L 255 216 L 257 215 L 261 210 L 260 205 L 257 203 L 254 199 L 258 195 L 261 195 Z M 265 189 L 267 191 L 266 193 L 257 192 L 255 193 L 251 198 L 252 203 L 257 207 L 257 210 L 255 212 L 248 212 L 242 207 L 240 202 L 240 199 L 242 194 L 248 188 L 258 186 Z M 258 131 L 254 131 L 250 135 L 250 139 L 254 143 L 254 149 L 253 150 L 248 150 L 246 152 L 249 154 L 253 154 L 254 155 L 254 158 L 251 160 L 247 159 L 241 161 L 243 163 L 253 163 L 254 164 L 254 168 L 253 169 L 249 169 L 248 171 L 254 173 L 254 179 L 256 180 L 258 173 L 264 171 L 263 169 L 259 169 L 257 166 L 257 164 L 258 163 L 269 163 L 270 162 L 270 160 L 268 159 L 259 159 L 258 158 L 258 155 L 259 154 L 265 153 L 264 150 L 259 150 L 257 147 L 257 144 L 262 138 L 261 134 Z M 253 136 L 254 135 L 257 135 L 258 138 L 255 139 Z M 225 50 L 204 70 L 165 87 L 153 101 L 60 340 L 91 356 L 154 372 L 146 440 L 158 447 L 240 462 L 331 454 L 365 440 L 358 371 L 418 357 L 452 339 L 355 95 L 344 85 L 308 70 L 291 51 Z M 447 337 L 444 341 L 430 348 L 428 348 L 417 353 L 414 353 L 411 355 L 408 355 L 401 358 L 398 358 L 394 360 L 382 362 L 377 364 L 362 366 L 361 367 L 357 367 L 356 366 L 356 358 L 357 357 L 375 354 L 376 353 L 395 349 L 405 345 L 408 345 L 420 341 L 442 331 L 445 332 L 445 334 Z M 65 336 L 67 332 L 70 331 L 84 338 L 110 347 L 113 347 L 117 349 L 120 349 L 137 354 L 151 356 L 155 358 L 155 364 L 153 367 L 149 367 L 144 365 L 134 364 L 133 363 L 114 359 L 107 356 L 104 356 L 92 352 L 89 350 L 84 349 L 71 343 L 65 339 Z M 442 324 L 442 327 L 440 329 L 438 329 L 421 337 L 403 343 L 389 346 L 385 348 L 381 348 L 377 350 L 363 352 L 362 353 L 356 353 L 355 352 L 355 345 L 357 343 L 367 342 L 368 341 L 395 335 L 399 333 L 402 333 L 405 331 L 408 331 L 414 328 L 417 328 L 437 319 L 439 319 Z M 69 326 L 71 321 L 74 319 L 87 325 L 113 334 L 120 335 L 124 337 L 127 337 L 140 341 L 155 343 L 156 344 L 156 352 L 155 353 L 150 353 L 149 352 L 135 350 L 123 346 L 112 344 L 83 334 L 78 331 L 76 331 L 74 329 L 70 328 Z M 318 79 L 341 88 L 354 101 L 438 314 L 397 331 L 354 339 L 343 120 L 348 305 L 360 438 L 330 450 Z M 194 78 L 183 446 L 178 449 L 151 438 L 163 314 L 170 121 L 166 129 L 157 339 L 105 328 L 74 313 L 157 102 L 169 89 Z M 205 74 L 218 98 L 227 111 L 237 123 L 237 125 L 218 142 L 203 153 L 194 158 L 193 157 L 193 135 L 194 134 L 194 117 L 195 116 L 196 96 L 197 95 L 199 77 L 201 75 Z M 234 74 L 235 73 L 276 73 L 278 75 L 278 77 L 258 104 L 255 105 L 241 88 L 235 79 Z M 218 59 L 221 60 L 231 80 L 240 93 L 253 108 L 245 118 L 241 121 L 239 120 L 225 102 L 216 88 L 209 74 L 209 70 Z M 293 58 L 303 74 L 266 128 L 283 113 L 306 75 L 312 76 L 319 144 L 325 450 L 271 458 L 187 451 L 192 166 L 255 113 Z M 224 58 L 224 56 L 226 54 L 241 53 L 242 52 L 270 52 L 271 53 L 286 54 L 288 56 L 287 60 L 281 70 L 274 70 L 273 69 L 238 69 L 237 70 L 230 70 Z" fill="currentColor" fill-rule="evenodd"/>
</svg>
