<svg xmlns="http://www.w3.org/2000/svg" viewBox="0 0 512 512" >
  <path d="M 249 355 L 239 360 L 231 369 L 228 375 L 228 379 L 227 380 L 227 391 L 231 401 L 238 409 L 250 415 L 262 415 L 273 410 L 282 400 L 284 396 L 285 387 L 286 386 L 285 385 L 285 377 L 281 368 L 278 364 L 272 359 L 263 355 Z M 252 360 L 261 360 L 270 364 L 276 370 L 280 379 L 280 391 L 277 398 L 271 405 L 264 409 L 261 409 L 260 410 L 252 410 L 244 407 L 236 399 L 232 389 L 232 381 L 236 371 L 244 363 Z M 257 322 L 233 344 L 227 355 L 217 361 L 206 378 L 199 384 L 200 387 L 209 396 L 214 405 L 221 412 L 228 415 L 231 422 L 239 430 L 250 436 L 255 441 L 257 441 L 261 437 L 276 428 L 282 421 L 283 417 L 295 409 L 305 394 L 313 386 L 313 384 L 305 376 L 297 363 L 292 358 L 284 354 L 283 350 L 278 342 L 265 332 Z M 256 331 L 275 347 L 279 354 L 280 359 L 285 360 L 295 369 L 296 372 L 305 384 L 305 386 L 302 389 L 294 402 L 286 409 L 281 410 L 279 412 L 279 415 L 277 419 L 271 425 L 257 434 L 240 424 L 235 418 L 233 414 L 233 411 L 225 408 L 217 400 L 208 386 L 208 383 L 211 380 L 219 367 L 226 361 L 232 359 L 234 353 L 239 345 Z M 256 46 L 232 183 L 243 200 L 228 220 L 242 230 L 234 303 L 216 314 L 227 258 L 203 102 L 180 258 L 186 322 L 170 342 L 179 295 L 157 150 L 139 243 L 143 346 L 125 373 L 111 195 L 101 366 L 84 404 L 126 424 L 100 454 L 411 456 L 387 424 L 429 403 L 411 362 L 402 197 L 387 373 L 368 336 L 377 295 L 356 150 L 334 294 L 342 342 L 326 320 L 333 259 L 309 102 L 285 258 L 296 314 L 278 302 L 271 230 L 284 220 L 269 194 L 281 184 Z M 308 156 L 316 177 L 313 192 L 319 202 L 314 205 L 314 216 L 322 229 L 315 238 L 324 259 L 316 263 L 323 327 L 333 342 L 348 349 L 349 300 L 341 296 L 349 284 L 350 272 L 345 268 L 351 246 L 346 243 L 352 234 L 349 220 L 356 202 L 362 220 L 359 232 L 365 243 L 360 247 L 366 268 L 361 279 L 369 296 L 362 299 L 366 355 L 380 375 L 394 379 L 394 328 L 389 325 L 395 304 L 390 301 L 396 291 L 392 278 L 401 242 L 408 278 L 404 290 L 410 301 L 405 304 L 411 325 L 405 329 L 406 359 L 412 388 L 424 400 L 418 408 L 391 408 L 371 389 L 347 384 L 345 364 L 318 360 L 303 338 L 292 337 L 292 322 L 302 319 L 302 267 L 294 259 L 302 243 L 302 232 L 296 229 L 304 215 L 304 206 L 298 202 L 305 191 L 301 178 Z M 204 155 L 211 178 L 207 190 L 214 202 L 208 206 L 209 218 L 217 229 L 210 232 L 210 241 L 219 259 L 211 262 L 211 320 L 220 322 L 220 337 L 210 338 L 196 359 L 168 364 L 165 384 L 140 390 L 122 408 L 97 409 L 89 399 L 99 390 L 105 372 L 107 328 L 101 325 L 107 314 L 103 301 L 109 282 L 104 278 L 112 241 L 120 278 L 116 288 L 122 301 L 117 305 L 118 316 L 124 325 L 118 329 L 118 378 L 135 373 L 147 353 L 151 300 L 144 296 L 151 282 L 146 268 L 153 252 L 148 243 L 156 202 L 166 243 L 161 247 L 168 268 L 163 282 L 171 296 L 164 299 L 164 349 L 175 346 L 190 326 L 196 262 L 188 259 L 197 240 L 197 232 L 191 229 L 199 206 L 193 202 L 200 189 L 196 178 Z M 256 105 L 264 130 L 261 145 L 269 157 L 262 160 L 262 169 L 272 186 L 264 190 L 264 201 L 275 222 L 265 226 L 268 281 L 273 304 L 287 319 L 287 342 L 298 343 L 314 364 L 340 370 L 342 389 L 372 396 L 381 409 L 382 430 L 389 430 L 390 441 L 403 449 L 109 448 L 122 442 L 123 430 L 131 429 L 131 411 L 142 395 L 170 389 L 172 370 L 198 364 L 214 343 L 225 342 L 225 319 L 238 307 L 244 284 L 247 225 L 238 221 L 246 210 L 249 191 L 240 186 L 250 171 L 251 162 L 244 156 L 252 142 L 248 130 Z" fill="currentColor" fill-rule="evenodd"/>
</svg>
