<svg xmlns="http://www.w3.org/2000/svg" viewBox="0 0 512 512" >
  <path d="M 256 37 L 216 125 L 199 115 L 210 158 L 203 164 L 216 182 L 196 184 L 180 173 L 184 196 L 176 215 L 164 218 L 173 231 L 171 271 L 201 277 L 190 298 L 174 300 L 184 314 L 169 336 L 175 358 L 163 341 L 145 336 L 154 375 L 169 391 L 189 397 L 193 407 L 189 424 L 163 424 L 161 446 L 171 454 L 237 447 L 235 369 L 247 377 L 243 436 L 253 454 L 269 436 L 265 377 L 276 369 L 276 448 L 335 455 L 348 451 L 352 441 L 347 421 L 323 424 L 319 406 L 357 376 L 367 336 L 349 341 L 337 360 L 343 336 L 328 313 L 338 300 L 322 298 L 313 284 L 342 269 L 339 231 L 348 218 L 334 212 L 331 173 L 320 183 L 297 182 L 309 164 L 302 157 L 313 115 L 296 125 Z M 250 443 L 251 442 L 253 443 L 259 443 L 261 442 L 262 443 L 262 446 L 259 448 L 252 448 L 250 446 Z M 309 442 L 312 441 L 313 443 L 310 444 Z M 200 442 L 202 441 L 203 443 L 201 444 Z M 297 441 L 298 440 L 301 440 L 302 442 L 301 443 L 298 443 Z M 210 441 L 211 440 L 214 440 L 215 442 L 214 443 L 211 443 Z M 193 441 L 196 440 L 197 442 L 194 443 Z M 289 440 L 292 439 L 293 441 L 290 442 Z M 219 440 L 222 439 L 223 441 L 220 442 Z M 326 437 L 324 440 L 319 443 L 316 443 L 315 442 L 316 440 L 318 440 L 324 436 Z M 186 437 L 188 436 L 191 438 L 193 441 L 192 442 L 189 441 Z M 247 436 L 248 435 L 264 435 L 265 437 L 260 439 L 252 439 L 251 438 L 248 438 Z M 325 434 L 327 433 L 328 435 L 326 436 Z M 258 432 L 261 431 L 262 433 L 259 434 Z M 250 432 L 253 431 L 254 433 L 251 434 Z M 164 431 L 166 429 L 169 429 L 175 435 L 179 443 L 186 449 L 187 451 L 186 452 L 181 452 L 180 451 L 173 451 L 167 449 L 165 447 L 163 441 Z M 346 428 L 348 431 L 348 435 L 349 436 L 349 440 L 347 447 L 345 449 L 339 451 L 326 452 L 325 450 L 333 443 L 337 435 L 343 429 Z M 316 432 L 316 431 L 321 427 L 323 427 L 326 429 L 326 431 L 323 434 L 320 434 Z M 186 429 L 190 427 L 193 428 L 195 430 L 195 432 L 189 434 L 186 431 Z M 345 425 L 344 427 L 341 428 L 337 432 L 332 441 L 325 448 L 320 450 L 303 450 L 302 449 L 287 448 L 286 447 L 279 446 L 277 444 L 277 442 L 280 441 L 285 443 L 297 444 L 298 445 L 306 445 L 307 446 L 319 445 L 326 441 L 336 427 L 341 424 L 344 424 Z M 166 425 L 167 424 L 171 424 L 176 427 L 179 430 L 185 440 L 193 445 L 204 446 L 205 445 L 213 445 L 214 444 L 227 443 L 231 441 L 234 442 L 234 445 L 230 447 L 217 448 L 216 449 L 210 449 L 209 450 L 192 450 L 187 448 L 179 440 L 175 432 L 171 428 L 167 427 Z M 278 432 L 279 431 L 279 428 L 282 423 L 286 423 L 292 425 L 310 425 L 317 423 L 319 426 L 315 429 L 314 434 L 319 434 L 320 436 L 315 439 L 299 439 L 298 438 L 291 438 L 290 437 L 279 435 Z M 191 436 L 192 434 L 198 434 L 196 428 L 193 426 L 195 423 L 202 425 L 220 425 L 221 424 L 230 423 L 233 428 L 233 431 L 234 433 L 230 436 L 222 437 L 221 438 L 214 438 L 213 439 L 196 439 Z M 281 418 L 282 417 L 291 418 L 292 419 L 311 419 L 312 418 L 317 418 L 318 420 L 315 422 L 311 422 L 310 423 L 292 423 L 291 422 L 284 421 L 282 420 Z M 246 421 L 249 417 L 263 417 L 265 419 L 265 426 L 262 429 L 250 429 L 247 426 Z M 231 419 L 228 421 L 221 422 L 220 423 L 202 423 L 194 420 L 195 418 L 200 418 L 201 419 L 220 419 L 227 417 L 230 417 Z M 258 413 L 259 412 L 262 412 L 263 414 L 262 415 L 259 415 Z M 249 413 L 250 412 L 253 412 L 254 414 L 253 415 L 250 415 Z M 282 412 L 284 411 L 289 413 L 296 413 L 297 414 L 307 414 L 308 413 L 317 412 L 318 414 L 313 417 L 297 418 L 296 417 L 290 417 L 283 415 Z M 231 412 L 229 415 L 222 416 L 221 417 L 214 417 L 213 418 L 199 417 L 194 414 L 195 412 L 204 413 L 205 414 L 216 414 L 217 413 L 223 413 L 228 411 Z M 249 406 L 250 405 L 254 405 L 255 406 L 261 405 L 262 406 L 262 409 L 260 411 L 252 411 L 249 409 Z M 284 394 L 286 393 L 291 396 L 297 398 L 301 398 L 302 399 L 317 399 L 318 401 L 317 402 L 316 409 L 314 411 L 309 411 L 308 412 L 296 412 L 295 411 L 285 410 L 284 409 Z M 228 394 L 228 409 L 227 410 L 218 411 L 217 412 L 204 412 L 203 411 L 198 411 L 196 409 L 194 402 L 195 399 L 210 399 L 224 395 L 226 393 Z M 281 385 L 283 384 L 289 388 L 302 392 L 317 392 L 323 390 L 324 393 L 321 395 L 313 396 L 312 397 L 299 396 L 288 392 L 282 388 Z M 231 385 L 231 387 L 227 390 L 213 396 L 200 397 L 199 396 L 194 396 L 188 393 L 189 390 L 195 392 L 210 392 L 220 389 L 229 384 Z M 310 383 L 311 382 L 317 382 L 320 386 L 320 388 L 318 390 L 312 390 L 311 389 L 312 386 Z M 306 382 L 307 382 L 310 386 L 310 389 L 308 391 L 305 391 L 302 389 L 302 386 Z M 199 383 L 200 382 L 206 382 L 211 387 L 211 389 L 207 391 L 205 390 L 202 391 L 201 390 L 201 386 Z M 195 382 L 199 385 L 200 387 L 199 390 L 194 390 L 192 388 L 192 385 Z M 325 381 L 326 382 L 326 385 L 322 388 L 321 385 L 322 383 Z M 296 381 L 298 381 L 300 384 L 300 388 L 299 389 L 293 387 L 293 384 Z M 213 382 L 216 381 L 219 384 L 219 387 L 213 389 L 212 388 Z M 188 381 L 190 384 L 189 387 L 186 385 L 186 382 Z M 288 378 L 289 378 L 292 382 L 291 385 L 288 385 L 285 383 Z M 220 384 L 221 380 L 223 378 L 225 378 L 227 381 L 227 383 L 224 385 L 221 385 Z M 228 378 L 230 377 L 231 380 L 229 381 Z M 338 373 L 339 376 L 337 380 L 334 383 L 331 384 L 330 383 L 330 379 L 332 373 L 333 372 Z M 174 373 L 177 373 L 178 372 L 180 373 L 182 379 L 182 383 L 181 384 L 178 383 L 175 380 L 173 376 Z M 317 368 L 319 369 L 320 372 L 318 374 L 315 374 L 314 371 Z M 303 372 L 306 368 L 308 368 L 311 373 L 310 374 L 304 374 Z M 282 369 L 284 368 L 293 373 L 300 375 L 304 375 L 305 376 L 317 376 L 324 374 L 327 374 L 328 376 L 324 379 L 315 380 L 314 381 L 302 380 L 292 377 L 284 373 L 282 371 Z M 230 369 L 230 371 L 226 374 L 220 377 L 210 380 L 199 381 L 198 380 L 189 379 L 184 376 L 185 374 L 194 375 L 195 376 L 207 376 L 208 375 L 212 375 L 219 373 L 228 368 Z M 201 372 L 203 369 L 205 368 L 209 373 L 208 374 L 202 374 Z M 192 370 L 195 368 L 198 371 L 198 373 L 197 374 L 194 374 L 192 372 Z M 324 371 L 326 367 L 329 368 L 328 371 L 326 372 Z M 294 369 L 297 367 L 299 369 L 299 371 L 296 372 Z M 212 371 L 215 367 L 218 369 L 216 372 L 213 372 Z M 183 368 L 186 367 L 188 371 L 187 372 L 184 371 Z M 286 365 L 288 364 L 290 367 L 287 368 Z M 222 366 L 224 364 L 226 365 L 225 368 L 223 368 Z M 312 360 L 313 360 L 316 364 L 316 366 L 313 370 L 311 370 L 309 367 L 309 364 Z M 302 360 L 303 360 L 306 364 L 306 366 L 303 370 L 302 370 L 299 366 L 299 363 Z M 286 360 L 287 362 L 283 365 L 282 363 Z M 225 361 L 227 360 L 229 363 L 227 364 Z M 209 360 L 213 363 L 213 366 L 211 369 L 209 369 L 206 366 L 206 364 Z M 199 360 L 200 360 L 203 364 L 203 367 L 200 371 L 198 370 L 196 366 L 196 363 Z M 323 359 L 325 362 L 325 366 L 321 369 L 318 364 L 320 361 Z M 189 359 L 190 359 L 194 364 L 191 369 L 189 369 L 187 366 L 187 362 Z M 294 358 L 296 361 L 296 364 L 295 366 L 292 368 L 290 364 L 290 361 Z M 218 358 L 222 361 L 222 364 L 220 367 L 218 367 L 216 365 L 216 361 Z M 332 357 L 333 358 L 332 364 L 329 366 L 328 365 L 328 361 L 329 359 Z M 180 357 L 181 357 L 184 361 L 184 365 L 183 366 L 180 364 L 180 361 L 179 360 Z M 305 355 L 310 355 L 311 356 L 311 359 L 308 363 L 306 362 L 304 358 Z M 202 355 L 207 355 L 208 356 L 207 361 L 205 363 L 204 363 L 201 359 L 201 356 Z M 295 355 L 296 354 L 301 355 L 302 357 L 299 360 L 297 360 L 295 358 Z M 211 355 L 214 355 L 215 354 L 217 355 L 217 358 L 215 361 L 210 357 Z M 319 353 L 321 355 L 320 359 L 318 361 L 316 361 L 313 356 L 315 354 Z M 292 353 L 293 355 L 289 358 L 288 356 Z M 219 354 L 221 353 L 224 357 L 222 358 Z M 193 353 L 198 355 L 198 358 L 195 362 L 193 361 L 191 357 L 191 355 Z M 326 350 L 329 351 L 329 356 L 327 359 L 325 359 L 323 356 L 323 353 Z M 184 350 L 186 350 L 189 353 L 189 356 L 186 360 L 184 359 L 182 354 Z M 333 346 L 336 347 L 334 354 L 332 354 L 330 351 L 330 349 Z M 177 346 L 179 346 L 182 349 L 182 351 L 180 354 L 177 353 L 177 349 L 176 348 Z M 312 342 L 315 341 L 317 344 L 316 345 L 313 345 Z M 195 343 L 197 341 L 200 342 L 199 345 L 196 345 Z M 358 340 L 359 342 L 355 350 L 355 356 L 357 361 L 357 370 L 353 375 L 348 377 L 346 383 L 340 389 L 335 391 L 329 391 L 328 390 L 328 386 L 336 383 L 340 378 L 340 375 L 343 371 L 340 371 L 339 372 L 334 371 L 333 370 L 334 365 L 336 363 L 341 362 L 344 359 L 348 347 L 353 342 Z M 154 340 L 159 342 L 164 347 L 167 354 L 167 358 L 171 362 L 176 363 L 178 365 L 178 368 L 179 369 L 178 371 L 175 372 L 169 371 L 171 373 L 174 381 L 176 383 L 184 386 L 184 390 L 183 391 L 177 391 L 169 387 L 167 385 L 164 377 L 159 375 L 155 370 L 155 361 L 157 356 L 157 350 L 153 342 Z M 301 343 L 304 338 L 307 338 L 311 340 L 311 342 L 308 346 L 304 346 L 302 345 Z M 201 340 L 205 338 L 208 338 L 211 344 L 208 346 L 204 346 L 202 344 Z M 339 337 L 339 338 L 330 346 L 319 351 L 309 352 L 308 353 L 302 353 L 301 352 L 295 352 L 293 350 L 295 347 L 298 348 L 311 348 L 315 346 L 318 346 L 325 343 L 335 335 L 337 335 Z M 173 337 L 175 335 L 177 335 L 187 343 L 202 348 L 214 348 L 217 347 L 218 348 L 218 351 L 217 352 L 211 352 L 210 353 L 204 353 L 203 352 L 193 351 L 182 346 L 178 343 Z M 323 340 L 325 334 L 330 336 L 327 340 L 325 341 Z M 296 335 L 297 334 L 301 335 L 302 336 L 302 339 L 300 340 Z M 215 334 L 216 336 L 211 340 L 210 339 L 210 336 L 213 334 Z M 182 336 L 187 334 L 189 339 L 188 340 L 185 340 Z M 316 331 L 323 334 L 321 341 L 317 341 L 314 339 L 314 335 Z M 196 331 L 197 332 L 198 339 L 191 342 L 190 341 L 189 334 Z M 308 329 L 311 329 L 314 331 L 314 334 L 311 338 L 307 337 L 305 335 Z M 204 328 L 207 335 L 200 338 L 198 335 L 198 331 L 200 329 Z M 300 326 L 306 328 L 305 332 L 303 334 L 301 334 L 298 332 L 298 328 Z M 326 325 L 329 325 L 331 327 L 332 333 L 331 334 L 326 333 L 324 331 Z M 290 326 L 291 325 L 296 325 L 297 328 L 296 330 L 294 331 L 290 328 Z M 215 326 L 216 325 L 221 325 L 222 328 L 217 331 L 215 328 Z M 212 325 L 214 329 L 214 332 L 209 334 L 207 332 L 206 328 Z M 183 325 L 186 325 L 187 326 L 188 331 L 186 333 L 181 334 L 180 331 L 181 330 L 181 327 Z M 318 322 L 323 324 L 323 330 L 322 331 L 316 329 Z M 194 322 L 196 329 L 190 331 L 189 330 L 189 324 Z M 311 320 L 316 322 L 314 328 L 311 328 L 308 326 Z M 199 320 L 201 320 L 203 323 L 203 326 L 200 328 L 198 328 L 196 325 L 196 322 Z M 305 319 L 307 319 L 308 322 L 306 325 L 303 325 L 302 322 Z M 204 319 L 206 318 L 207 320 L 210 322 L 210 324 L 209 325 L 206 325 L 204 323 Z M 245 316 L 247 317 L 247 352 L 246 353 L 242 351 L 235 343 L 235 340 L 241 329 Z M 266 315 L 268 316 L 271 329 L 277 340 L 277 343 L 274 347 L 267 353 L 265 352 L 265 316 Z M 319 314 L 323 314 L 324 315 L 324 318 L 322 321 L 320 321 L 318 319 L 318 315 Z M 188 315 L 189 314 L 193 314 L 194 315 L 194 319 L 192 321 L 189 321 L 188 320 Z M 311 314 L 314 313 L 316 315 L 316 318 L 313 319 L 311 317 Z M 200 313 L 201 314 L 201 317 L 197 319 L 195 315 L 198 313 Z M 306 310 L 306 313 L 304 317 L 297 322 L 289 323 L 284 321 L 282 318 L 283 315 L 289 318 L 295 318 L 301 313 L 303 308 Z M 205 310 L 207 308 L 209 308 L 211 313 L 217 318 L 223 318 L 228 315 L 230 316 L 229 320 L 226 322 L 218 323 L 211 320 L 207 316 Z M 296 308 L 293 312 L 290 312 L 287 310 L 288 308 L 292 308 L 293 307 Z M 216 308 L 219 307 L 220 308 L 223 308 L 224 310 L 222 312 L 218 312 Z M 301 307 L 300 312 L 296 316 L 293 317 L 285 315 L 282 311 L 283 309 L 285 309 L 289 313 L 294 313 L 299 306 Z M 210 306 L 212 305 L 214 307 L 214 309 L 218 313 L 222 313 L 227 309 L 229 309 L 230 311 L 225 316 L 220 317 L 215 315 L 212 312 Z M 304 304 L 305 303 L 308 303 L 315 307 L 321 307 L 326 305 L 328 303 L 332 303 L 333 305 L 329 309 L 325 311 L 320 311 L 318 312 L 317 311 L 310 310 L 307 308 Z M 179 304 L 180 303 L 184 303 L 186 305 L 191 307 L 197 307 L 204 303 L 206 303 L 207 306 L 202 310 L 193 312 L 192 311 L 187 311 L 183 309 Z M 310 301 L 311 300 L 313 300 L 316 302 L 322 301 L 323 303 L 321 305 L 315 305 L 311 303 Z M 202 301 L 201 303 L 197 305 L 190 305 L 189 304 L 190 301 L 196 302 L 199 300 Z M 251 298 L 261 298 L 262 299 L 262 402 L 260 404 L 252 404 L 250 402 L 250 299 Z M 286 298 L 288 297 L 289 299 L 287 300 Z M 267 297 L 269 298 L 271 312 L 275 325 L 282 337 L 286 341 L 282 348 L 268 362 L 265 361 L 265 357 L 277 346 L 280 341 L 276 336 L 269 319 L 268 311 L 267 310 L 267 303 L 266 302 L 266 298 Z M 244 297 L 246 298 L 246 301 L 245 302 L 245 309 L 244 310 L 242 322 L 237 334 L 232 341 L 235 346 L 247 357 L 247 361 L 246 362 L 244 362 L 230 348 L 226 342 L 234 331 L 237 325 L 242 307 L 242 301 Z M 223 298 L 225 297 L 226 299 L 224 300 Z M 296 295 L 298 294 L 299 296 L 297 297 Z M 213 295 L 215 294 L 216 296 L 214 297 Z M 278 293 L 281 293 L 282 292 L 285 293 L 285 297 L 283 300 L 281 300 L 277 296 Z M 227 297 L 227 293 L 228 292 L 231 292 L 235 294 L 234 297 L 231 300 L 229 300 Z M 316 293 L 316 294 L 311 298 L 301 303 L 287 307 L 280 307 L 279 306 L 280 303 L 296 300 L 309 294 L 313 291 Z M 247 293 L 249 291 L 263 291 L 265 293 L 265 295 L 264 296 L 260 296 L 259 295 L 248 296 Z M 196 293 L 199 291 L 203 294 L 216 300 L 232 303 L 233 306 L 232 307 L 225 307 L 211 303 L 198 296 Z M 288 291 L 294 290 L 295 291 L 295 296 L 293 298 L 291 298 L 287 294 Z M 217 296 L 217 291 L 218 290 L 222 290 L 225 292 L 222 297 L 219 298 Z M 273 288 L 275 291 L 276 305 L 277 306 L 277 310 L 280 320 L 285 330 L 288 334 L 295 340 L 295 342 L 283 358 L 268 371 L 266 371 L 265 370 L 265 366 L 271 362 L 283 350 L 289 341 L 283 335 L 279 329 L 279 327 L 277 325 L 274 316 L 273 308 L 272 307 L 272 302 L 271 301 L 271 294 L 270 293 L 270 289 Z M 239 288 L 241 288 L 242 291 L 241 292 L 241 302 L 240 303 L 238 316 L 231 332 L 224 340 L 224 342 L 229 350 L 242 363 L 247 366 L 247 370 L 246 371 L 244 371 L 237 366 L 229 358 L 217 342 L 217 340 L 222 336 L 226 331 L 232 320 L 235 310 L 235 306 L 236 305 L 237 291 Z M 296 289 L 302 286 L 304 288 L 304 293 L 303 294 L 300 294 Z M 208 287 L 209 286 L 213 287 L 215 289 L 215 291 L 212 294 L 209 294 L 208 293 Z M 305 285 L 308 283 L 311 286 L 311 288 L 308 289 Z M 298 284 L 297 286 L 289 289 L 286 289 L 281 291 L 278 291 L 277 290 L 279 287 L 283 287 L 295 283 Z M 205 283 L 207 286 L 204 289 L 202 289 L 201 286 Z M 204 279 L 207 278 L 216 283 L 225 286 L 233 287 L 235 290 L 232 291 L 231 290 L 227 290 L 217 287 L 205 281 Z M 208 275 L 209 274 L 214 274 L 225 279 L 240 282 L 241 284 L 237 286 L 229 285 L 210 278 Z M 218 272 L 221 271 L 222 273 L 219 274 Z M 229 269 L 230 272 L 227 276 L 225 276 L 224 274 L 226 271 Z M 236 266 L 239 266 L 240 267 L 240 273 L 241 274 L 240 278 L 239 279 L 230 278 L 229 276 L 231 274 L 233 269 Z M 281 256 L 284 257 L 287 264 L 287 276 L 284 282 L 282 281 L 284 274 L 284 268 L 283 267 L 282 260 L 280 258 Z M 287 255 L 288 255 L 291 259 L 292 266 L 293 267 L 292 277 L 290 280 L 288 279 L 289 276 L 289 263 L 286 257 Z M 292 254 L 294 254 L 297 258 L 298 265 L 299 266 L 299 272 L 296 280 L 293 279 L 295 267 L 294 266 L 293 259 L 291 256 Z M 243 259 L 247 256 L 250 256 L 258 253 L 262 253 L 275 259 L 280 259 L 282 262 L 282 275 L 280 280 L 270 286 L 264 286 L 259 284 L 246 286 L 245 285 L 245 282 L 247 280 L 254 279 L 257 277 L 251 277 L 247 279 L 244 279 L 243 276 L 246 273 L 251 271 L 254 271 L 257 269 L 251 269 L 244 272 L 243 271 L 243 267 L 247 264 L 253 263 L 257 261 L 255 260 L 254 261 L 247 262 L 244 264 L 242 262 Z M 297 252 L 299 252 L 301 254 L 305 266 L 304 275 L 302 279 L 299 278 L 301 267 L 300 266 L 299 258 L 296 254 Z M 271 253 L 272 252 L 277 252 L 278 254 L 275 256 L 272 255 Z M 303 250 L 306 251 L 309 257 L 310 264 L 311 265 L 310 275 L 307 279 L 305 278 L 307 269 L 306 268 L 306 261 L 304 255 L 302 253 Z M 273 248 L 274 247 L 295 247 L 296 249 L 295 250 L 274 250 Z M 221 245 L 223 246 L 222 248 L 222 257 L 223 258 L 223 261 L 226 265 L 225 267 L 222 266 L 219 260 L 219 248 Z M 216 245 L 218 246 L 217 248 L 217 260 L 220 266 L 219 268 L 217 268 L 215 266 L 213 261 L 213 250 Z M 210 245 L 212 246 L 212 249 L 211 250 L 211 261 L 214 267 L 213 270 L 209 267 L 207 260 L 207 252 Z M 205 245 L 207 246 L 205 252 L 205 261 L 208 268 L 207 271 L 203 268 L 201 262 L 201 252 L 203 247 Z M 275 244 L 276 243 L 298 243 L 299 245 L 298 246 L 276 246 Z M 227 243 L 229 244 L 227 249 L 227 254 L 228 255 L 228 259 L 231 263 L 230 266 L 225 262 L 223 257 L 224 248 Z M 176 236 L 189 236 L 196 239 L 195 241 L 187 242 L 180 247 L 187 244 L 200 244 L 201 245 L 201 248 L 199 252 L 199 262 L 202 269 L 202 272 L 201 273 L 183 274 L 177 272 L 173 268 L 171 262 L 171 252 L 172 251 L 173 241 Z M 336 236 L 338 238 L 338 241 L 340 246 L 340 251 L 341 252 L 341 262 L 339 268 L 335 272 L 325 276 L 312 278 L 311 277 L 312 269 L 313 268 L 312 259 L 307 249 L 311 246 L 318 244 L 324 244 L 332 247 L 329 244 L 324 242 L 315 242 L 313 243 L 312 241 L 314 239 L 322 236 L 327 236 L 328 235 Z M 336 232 L 335 234 L 322 234 L 314 237 L 309 241 L 307 240 L 307 238 L 310 235 L 319 231 L 322 231 L 323 230 L 334 230 Z M 303 231 L 301 238 L 299 241 L 288 241 L 287 240 L 287 238 L 289 235 L 294 231 L 297 231 L 298 230 L 302 230 Z M 209 231 L 210 230 L 215 230 L 221 233 L 223 235 L 225 240 L 224 241 L 213 241 L 211 238 Z M 176 232 L 178 230 L 189 230 L 190 231 L 193 231 L 203 236 L 205 238 L 205 240 L 203 241 L 198 237 L 190 234 L 177 234 Z M 268 232 L 267 235 L 260 233 L 255 233 L 256 235 L 261 235 L 266 237 L 268 239 L 267 242 L 259 241 L 258 240 L 255 241 L 255 242 L 260 242 L 266 244 L 268 246 L 267 249 L 255 248 L 255 249 L 257 250 L 256 252 L 252 252 L 242 256 L 239 263 L 233 263 L 229 255 L 230 246 L 234 243 L 246 230 L 249 228 L 261 228 L 262 229 L 265 229 Z M 304 225 L 303 228 L 298 228 L 291 231 L 286 236 L 285 240 L 284 241 L 282 240 L 283 234 L 290 227 L 295 225 L 300 225 L 301 224 Z M 208 226 L 210 224 L 220 226 L 228 233 L 230 239 L 228 240 L 225 235 L 221 231 L 214 228 L 209 228 Z M 251 223 L 252 222 L 261 222 L 263 225 L 262 226 L 252 225 Z M 307 228 L 307 226 L 309 224 L 320 220 L 329 220 L 334 222 L 341 221 L 342 222 L 341 225 L 322 224 L 312 227 L 309 229 Z M 169 222 L 170 221 L 175 221 L 177 222 L 183 220 L 191 220 L 203 224 L 205 226 L 205 228 L 203 229 L 200 227 L 190 224 L 170 225 Z M 247 217 L 249 215 L 263 215 L 265 217 L 265 219 L 264 220 L 248 220 Z M 308 221 L 308 219 L 310 217 L 320 214 L 329 214 L 334 217 L 333 219 L 320 218 L 313 220 L 310 222 Z M 278 214 L 279 216 L 276 221 L 273 224 L 269 224 L 268 222 L 269 221 L 272 221 L 276 215 Z M 178 217 L 183 214 L 192 214 L 202 217 L 204 219 L 204 221 L 202 222 L 199 220 L 192 218 L 179 219 Z M 232 212 L 234 211 L 238 219 L 240 221 L 243 221 L 244 223 L 243 224 L 239 224 L 233 217 Z M 295 210 L 297 209 L 298 211 L 296 212 Z M 214 210 L 216 209 L 217 211 L 215 212 Z M 278 208 L 280 209 L 280 213 L 279 214 L 277 213 L 277 209 Z M 275 207 L 276 208 L 274 216 L 270 219 L 267 214 L 270 211 L 271 208 Z M 237 207 L 240 207 L 245 214 L 242 219 L 241 219 L 237 214 L 236 208 Z M 264 201 L 265 202 L 265 208 L 264 210 L 262 211 L 261 210 L 262 208 L 262 202 Z M 248 201 L 250 202 L 250 208 L 251 209 L 250 211 L 249 211 L 247 208 L 247 202 Z M 304 200 L 306 205 L 306 220 L 304 223 L 295 223 L 288 226 L 281 234 L 280 239 L 278 241 L 275 241 L 271 235 L 271 232 L 269 229 L 269 227 L 270 226 L 273 227 L 278 222 L 283 211 L 292 214 L 298 214 L 300 212 L 300 209 L 301 208 L 301 201 Z M 208 200 L 211 201 L 211 208 L 213 214 L 220 214 L 229 211 L 234 222 L 239 227 L 241 226 L 244 227 L 240 233 L 234 239 L 232 238 L 231 234 L 224 226 L 217 223 L 208 223 L 206 221 L 206 204 Z M 285 203 L 293 198 L 295 201 L 295 207 L 294 208 L 291 208 L 287 206 Z M 255 198 L 257 198 L 261 203 L 261 209 L 258 212 L 254 212 L 251 208 L 251 203 Z M 217 200 L 220 198 L 223 201 L 226 202 L 227 204 L 223 207 L 218 208 L 217 207 Z M 325 197 L 329 204 L 330 211 L 329 212 L 319 212 L 310 215 L 309 214 L 308 202 L 309 201 L 318 200 L 323 197 Z M 186 198 L 189 197 L 194 200 L 203 201 L 204 202 L 203 214 L 201 215 L 193 212 L 182 212 L 181 210 Z M 256 194 L 257 193 L 264 195 L 266 198 L 261 200 Z M 256 194 L 251 200 L 246 198 L 249 194 L 252 194 L 253 193 Z M 258 190 L 261 189 L 262 191 L 259 192 Z M 250 190 L 253 189 L 254 191 L 251 192 Z M 299 188 L 300 187 L 305 187 L 306 190 L 304 192 L 300 192 L 299 191 Z M 205 188 L 206 187 L 212 187 L 213 188 L 213 191 L 212 192 L 208 192 Z M 320 187 L 320 188 L 316 191 L 313 190 L 315 187 L 318 186 Z M 192 187 L 193 186 L 197 187 L 198 190 L 196 191 L 193 189 Z M 297 187 L 296 191 L 285 201 L 275 205 L 272 205 L 271 204 L 271 200 L 272 199 L 275 199 L 285 194 L 293 185 L 295 185 Z M 215 187 L 217 185 L 219 185 L 227 194 L 234 198 L 240 199 L 241 200 L 241 204 L 240 205 L 237 205 L 227 201 L 216 191 Z M 290 186 L 281 194 L 271 198 L 269 197 L 268 195 L 269 193 L 272 193 L 281 189 L 286 184 L 289 184 Z M 222 185 L 223 184 L 226 184 L 231 189 L 237 192 L 242 193 L 243 196 L 242 197 L 238 197 L 229 193 Z M 253 185 L 255 183 L 257 183 L 259 186 L 258 187 L 254 187 Z M 330 182 L 328 189 L 323 195 L 311 199 L 308 199 L 307 198 L 308 195 L 311 195 L 318 192 L 323 187 L 325 183 L 328 181 Z M 182 182 L 184 181 L 194 192 L 198 194 L 204 195 L 205 198 L 204 199 L 195 198 L 189 195 L 184 189 Z M 282 180 L 283 181 L 283 184 L 277 189 L 272 185 L 272 182 L 273 181 Z M 228 182 L 230 180 L 239 181 L 240 182 L 240 185 L 235 189 L 233 188 Z M 258 179 L 259 178 L 263 178 L 267 180 L 270 180 L 273 189 L 271 191 L 266 192 L 265 189 L 262 186 Z M 253 178 L 254 180 L 245 192 L 241 191 L 239 189 L 242 180 L 245 180 L 249 178 Z M 286 179 L 289 177 L 291 180 L 290 181 L 287 181 Z M 221 179 L 224 177 L 226 180 L 225 181 L 222 181 Z M 303 166 L 304 168 L 302 170 L 301 175 L 299 177 L 293 177 L 291 174 L 291 172 L 293 171 L 295 174 L 298 174 L 299 171 L 298 171 L 297 169 L 300 166 Z M 208 167 L 209 166 L 212 166 L 215 169 L 215 170 L 213 171 L 214 174 L 217 174 L 219 170 L 221 171 L 221 174 L 218 177 L 213 177 L 211 175 L 210 170 Z M 245 166 L 246 165 L 250 165 L 251 166 L 266 165 L 267 167 L 261 169 L 251 169 L 250 168 L 246 168 Z M 294 161 L 296 160 L 297 162 L 295 163 Z M 215 161 L 217 160 L 218 162 L 216 163 Z M 283 158 L 285 160 L 285 162 L 282 169 L 277 172 L 273 172 L 272 170 L 273 169 L 277 169 L 279 167 L 281 159 Z M 226 159 L 227 158 L 230 158 L 232 161 L 233 167 L 235 169 L 239 169 L 240 171 L 239 172 L 235 172 L 231 170 Z M 260 158 L 262 157 L 263 159 L 261 160 Z M 249 158 L 251 157 L 252 159 L 250 160 Z M 278 156 L 279 157 L 279 160 L 274 165 L 270 165 L 269 162 Z M 266 156 L 267 155 L 271 155 L 272 157 L 271 158 L 267 158 Z M 241 156 L 242 155 L 245 155 L 246 157 L 245 158 L 242 158 Z M 232 156 L 234 155 L 239 160 L 242 161 L 243 164 L 242 165 L 238 165 L 233 160 Z M 270 152 L 272 151 L 275 152 L 276 154 L 273 155 L 271 154 Z M 242 152 L 242 153 L 239 155 L 236 154 L 237 152 L 240 151 Z M 234 150 L 236 149 L 237 151 L 235 152 Z M 304 142 L 305 143 L 304 146 L 300 150 L 297 151 L 296 149 Z M 219 150 L 226 146 L 228 146 L 225 144 L 226 142 L 231 143 L 233 145 L 233 147 L 230 150 L 230 152 L 227 153 L 227 155 L 223 158 L 227 169 L 230 174 L 233 176 L 240 176 L 246 172 L 247 170 L 265 170 L 271 176 L 278 176 L 283 172 L 289 159 L 289 157 L 286 156 L 285 153 L 282 152 L 282 150 L 279 146 L 286 142 L 287 144 L 284 146 L 292 149 L 293 152 L 292 153 L 291 167 L 287 174 L 281 178 L 270 179 L 262 176 L 250 176 L 242 179 L 233 179 L 227 176 L 222 169 L 220 162 Z M 207 143 L 209 142 L 216 150 L 215 151 L 212 150 L 208 146 Z M 244 147 L 245 146 L 250 146 L 250 144 L 254 141 L 258 141 L 260 142 L 263 146 L 267 146 L 268 149 L 267 150 L 263 149 L 262 151 L 259 153 L 253 153 L 249 149 L 245 150 Z M 227 140 L 229 137 L 231 138 L 229 141 Z M 300 136 L 301 137 L 300 144 L 296 147 L 294 145 L 294 143 L 296 139 Z M 212 136 L 216 139 L 218 143 L 217 146 L 214 146 L 211 140 L 211 137 Z M 251 132 L 252 131 L 255 131 L 256 132 L 257 131 L 260 131 L 261 133 L 259 137 L 253 137 Z M 261 141 L 264 135 L 271 129 L 278 129 L 279 132 L 282 132 L 286 129 L 288 130 L 287 134 L 283 141 L 281 140 L 282 135 L 281 136 L 271 135 L 269 136 L 264 142 Z M 224 130 L 226 129 L 230 132 L 233 132 L 234 129 L 241 129 L 248 135 L 249 138 L 251 139 L 251 141 L 250 142 L 247 141 L 246 139 L 241 135 L 236 135 L 235 136 L 229 135 L 229 136 L 227 137 Z M 309 124 L 308 128 L 305 131 L 305 132 L 307 133 L 307 136 L 305 140 L 303 139 L 303 134 L 301 132 L 295 137 L 293 136 L 300 128 L 303 129 L 304 126 L 307 123 Z M 203 124 L 205 123 L 208 126 L 209 129 L 212 128 L 219 135 L 220 138 L 218 139 L 213 133 L 210 132 L 209 134 L 209 139 L 207 140 L 205 136 L 205 133 L 207 132 L 207 131 L 203 127 Z M 232 125 L 236 123 L 244 122 L 245 121 L 267 121 L 268 122 L 272 122 L 279 124 L 280 126 L 279 127 L 272 126 L 267 128 L 264 131 L 262 131 L 261 129 L 258 129 L 257 130 L 252 129 L 250 131 L 248 131 L 243 127 L 240 127 L 239 126 L 233 127 Z M 287 120 L 289 119 L 292 121 L 293 123 L 290 124 Z M 238 119 L 240 118 L 241 120 L 239 121 Z M 283 118 L 285 117 L 286 119 L 284 120 Z M 229 118 L 227 121 L 222 124 L 220 123 L 223 119 L 225 119 L 227 117 Z M 272 115 L 273 114 L 277 114 L 281 116 L 282 118 L 281 119 L 273 117 Z M 230 118 L 231 116 L 235 114 L 239 114 L 240 115 L 239 117 L 235 117 L 233 119 Z M 224 114 L 226 113 L 227 115 L 225 116 Z M 264 113 L 267 112 L 270 113 L 271 115 L 270 116 L 266 116 Z M 241 114 L 244 112 L 247 112 L 248 113 L 246 116 L 242 116 Z M 280 112 L 282 111 L 283 113 L 281 114 Z M 229 112 L 231 111 L 232 113 L 230 114 Z M 276 111 L 279 110 L 280 112 L 277 113 Z M 232 111 L 234 110 L 235 112 L 233 113 Z M 272 110 L 275 109 L 276 111 L 273 112 Z M 267 109 L 268 108 L 271 108 L 272 110 L 271 111 L 268 111 Z M 245 109 L 244 111 L 241 111 L 240 112 L 236 112 L 235 111 L 236 109 L 240 109 L 241 108 L 244 108 Z M 225 109 L 227 108 L 228 110 L 226 111 Z M 255 107 L 257 107 L 259 110 L 259 112 L 257 114 L 255 114 L 253 112 L 253 109 Z M 278 107 L 281 106 L 282 108 L 279 109 Z M 230 107 L 233 106 L 234 108 L 231 109 Z M 235 106 L 237 104 L 239 105 L 238 108 L 236 108 Z M 273 104 L 275 103 L 277 107 L 275 108 L 273 106 Z M 267 104 L 270 103 L 271 105 L 268 106 Z M 241 104 L 244 102 L 246 105 L 245 106 L 242 106 Z M 261 102 L 263 101 L 265 103 L 265 105 L 263 106 Z M 247 104 L 249 101 L 251 102 L 249 105 Z M 270 101 L 272 100 L 273 102 L 271 103 Z M 276 92 L 278 93 L 278 98 L 277 99 L 274 99 L 273 98 L 273 95 Z M 235 92 L 239 95 L 239 98 L 238 99 L 235 99 L 234 98 L 234 93 Z M 241 92 L 244 91 L 247 94 L 247 96 L 244 98 L 242 98 L 241 97 Z M 268 90 L 271 92 L 271 97 L 270 98 L 268 98 L 265 96 L 265 94 Z M 259 90 L 261 90 L 263 92 L 263 96 L 262 97 L 259 97 L 257 95 L 257 93 Z M 251 90 L 253 90 L 255 93 L 255 95 L 253 97 L 250 97 L 249 96 L 249 92 Z M 262 87 L 263 86 L 267 86 L 268 88 L 264 90 Z M 244 87 L 245 86 L 248 86 L 249 89 L 246 90 Z M 253 86 L 254 85 L 259 85 L 260 87 L 257 89 L 255 89 Z M 240 84 L 240 83 L 243 81 L 248 81 L 249 80 L 263 80 L 269 82 L 268 84 L 264 84 L 263 83 L 249 83 L 242 85 Z M 244 76 L 249 74 L 262 74 L 263 75 L 267 75 L 268 78 L 267 79 L 265 78 L 247 78 L 245 79 Z M 248 66 L 249 65 L 262 65 L 263 67 L 262 68 L 249 68 Z M 260 61 L 262 60 L 263 62 L 261 63 Z M 249 61 L 251 60 L 252 62 L 250 63 Z M 254 60 L 257 59 L 258 62 L 255 63 Z M 255 45 L 258 46 L 261 53 L 261 57 L 260 58 L 258 58 L 256 56 L 253 58 L 251 57 L 251 53 Z" fill="currentColor" fill-rule="evenodd"/>
</svg>
