<svg xmlns="http://www.w3.org/2000/svg" viewBox="0 0 512 512" >
  <path d="M 254 432 L 253 434 L 253 443 L 256 445 L 258 444 L 258 433 L 257 432 Z M 289 386 L 287 388 L 287 390 L 288 391 L 294 418 L 296 422 L 299 422 L 300 419 L 298 414 L 298 410 L 297 409 L 292 387 Z M 223 386 L 221 386 L 219 389 L 218 397 L 216 401 L 216 404 L 212 417 L 212 421 L 213 422 L 216 422 L 218 417 L 218 414 L 225 389 Z M 248 377 L 242 381 L 240 385 L 240 393 L 244 399 L 244 402 L 249 406 L 253 415 L 254 424 L 256 425 L 258 423 L 258 418 L 260 411 L 264 404 L 268 401 L 268 399 L 272 392 L 272 386 L 271 383 L 266 378 L 262 378 L 261 379 L 262 382 L 267 386 L 267 391 L 258 405 L 255 407 L 249 397 L 245 393 L 244 388 L 245 385 L 252 380 L 253 381 L 253 391 L 254 393 L 256 394 L 258 392 L 258 378 L 255 377 L 251 380 L 250 378 Z M 322 372 L 320 375 L 325 385 L 327 387 L 337 406 L 340 406 L 341 405 L 341 402 L 334 391 L 325 373 Z M 189 372 L 185 375 L 182 382 L 170 402 L 170 405 L 171 406 L 173 406 L 175 404 L 184 387 L 186 385 L 186 383 L 191 376 L 191 374 Z M 362 361 L 360 363 L 361 366 L 362 366 L 376 381 L 379 382 L 381 380 L 380 377 L 364 361 Z M 149 361 L 147 361 L 130 378 L 130 380 L 132 382 L 150 365 L 150 362 Z M 161 350 L 158 350 L 154 354 L 154 356 L 156 358 L 162 353 Z M 351 349 L 349 351 L 349 353 L 354 358 L 356 357 L 357 355 L 356 353 Z M 334 349 L 333 348 L 330 348 L 321 356 L 308 364 L 291 371 L 277 374 L 275 377 L 276 379 L 281 379 L 303 372 L 315 366 L 333 353 Z M 337 337 L 336 340 L 343 346 L 345 344 L 344 341 L 340 337 Z M 174 337 L 171 337 L 166 342 L 166 344 L 168 346 L 175 340 Z M 374 322 L 377 326 L 388 332 L 404 343 L 407 343 L 408 342 L 408 340 L 405 337 L 378 320 L 376 320 Z M 137 321 L 136 320 L 133 320 L 103 339 L 102 341 L 104 343 L 107 343 L 123 332 L 134 326 L 137 323 Z M 389 286 L 389 289 L 390 290 L 401 294 L 411 296 L 425 301 L 427 301 L 429 299 L 427 296 L 422 294 L 419 294 L 392 285 Z M 123 287 L 120 285 L 106 290 L 96 292 L 84 296 L 83 297 L 83 300 L 87 301 L 97 297 L 100 297 L 107 294 L 122 290 Z M 237 272 L 237 277 L 235 283 L 235 289 L 239 294 L 245 299 L 251 299 L 252 300 L 266 299 L 267 295 L 268 294 L 270 295 L 276 289 L 276 283 L 275 282 L 274 272 L 271 271 L 267 282 L 267 292 L 268 293 L 267 295 L 265 294 L 260 294 L 259 295 L 246 294 L 245 293 L 245 281 L 242 276 L 241 272 L 240 271 Z M 379 269 L 377 269 L 375 271 L 372 286 L 368 297 L 365 302 L 365 304 L 363 306 L 359 315 L 351 327 L 347 331 L 347 333 L 349 335 L 355 330 L 366 313 L 371 303 L 371 301 L 376 290 L 376 287 L 380 275 L 380 270 Z M 133 269 L 131 271 L 131 273 L 138 298 L 150 321 L 157 331 L 162 335 L 164 333 L 164 331 L 158 324 L 151 313 L 142 294 L 139 285 L 136 270 Z M 440 247 L 440 250 L 442 252 L 452 252 L 454 250 L 454 247 L 453 246 L 441 246 Z M 337 248 L 338 251 L 371 251 L 373 249 L 371 246 L 339 246 Z M 138 248 L 139 251 L 173 251 L 174 250 L 174 248 L 172 246 L 140 246 Z M 56 248 L 57 251 L 59 252 L 69 252 L 71 250 L 71 248 L 69 246 L 58 246 Z M 398 248 L 393 245 L 390 246 L 380 246 L 378 248 L 378 250 L 379 251 L 395 252 L 398 250 Z M 113 248 L 113 250 L 119 253 L 122 251 L 132 251 L 133 250 L 133 248 L 131 246 L 121 246 L 118 245 Z M 378 239 L 378 242 L 379 243 L 382 243 L 383 240 L 387 236 L 393 235 L 396 236 L 400 241 L 404 242 L 413 248 L 411 251 L 408 252 L 402 257 L 400 257 L 398 260 L 394 262 L 388 262 L 386 261 L 383 256 L 380 254 L 378 256 L 380 262 L 383 265 L 388 267 L 395 267 L 403 262 L 405 262 L 411 256 L 423 251 L 430 251 L 431 250 L 431 247 L 418 245 L 409 240 L 405 235 L 403 235 L 394 230 L 389 230 L 384 232 Z M 133 239 L 126 231 L 117 230 L 108 235 L 106 235 L 102 240 L 93 245 L 80 247 L 80 250 L 81 251 L 88 251 L 100 256 L 106 262 L 108 262 L 116 267 L 124 267 L 131 262 L 133 258 L 133 256 L 131 254 L 128 256 L 125 261 L 123 262 L 117 262 L 113 260 L 111 257 L 109 257 L 103 252 L 100 251 L 98 248 L 105 244 L 108 241 L 111 241 L 115 236 L 118 235 L 124 236 L 128 240 L 129 243 L 132 243 L 133 242 Z M 429 196 L 428 194 L 426 193 L 400 202 L 389 205 L 388 207 L 389 209 L 391 210 L 420 200 L 428 198 Z M 83 197 L 86 199 L 98 203 L 101 203 L 114 208 L 117 208 L 118 209 L 122 209 L 123 208 L 123 206 L 121 204 L 112 202 L 96 196 L 93 196 L 86 193 L 84 194 Z M 255 178 L 239 185 L 224 197 L 215 209 L 207 227 L 202 256 L 195 339 L 201 346 L 206 348 L 248 348 L 255 353 L 264 348 L 305 348 L 310 346 L 316 338 L 305 230 L 298 212 L 288 198 L 271 184 Z M 208 338 L 209 335 L 214 331 L 297 331 L 302 335 L 303 342 L 302 343 L 263 343 L 255 347 L 249 343 L 209 343 L 208 342 Z M 214 323 L 217 321 L 294 321 L 297 323 L 297 326 L 296 327 L 215 327 L 214 326 Z M 255 208 L 259 213 L 259 219 L 266 225 L 266 234 L 268 236 L 267 242 L 260 249 L 261 254 L 276 261 L 279 265 L 282 290 L 275 300 L 278 302 L 289 303 L 295 308 L 294 313 L 290 316 L 221 316 L 216 312 L 218 305 L 227 302 L 235 302 L 250 309 L 262 309 L 273 304 L 272 300 L 262 304 L 246 303 L 234 296 L 229 290 L 233 264 L 237 260 L 247 257 L 251 252 L 251 249 L 244 242 L 243 236 L 244 227 L 246 223 L 252 219 L 251 215 Z M 250 185 L 259 184 L 275 193 L 288 206 L 297 222 L 304 260 L 311 332 L 309 339 L 298 317 L 300 312 L 298 303 L 285 297 L 287 285 L 284 264 L 279 257 L 269 253 L 273 232 L 270 222 L 264 216 L 256 191 L 247 216 L 242 220 L 237 234 L 242 253 L 234 256 L 227 266 L 224 284 L 226 297 L 213 303 L 211 307 L 213 317 L 209 322 L 209 328 L 204 337 L 200 338 L 211 232 L 224 205 L 236 193 Z M 348 162 L 346 165 L 355 176 L 356 179 L 360 184 L 370 205 L 374 218 L 375 226 L 376 228 L 379 228 L 380 227 L 379 217 L 371 194 L 356 169 L 350 162 Z M 164 162 L 162 162 L 152 174 L 141 193 L 132 220 L 131 226 L 133 228 L 135 228 L 137 225 L 137 221 L 143 201 L 150 187 L 159 173 L 165 166 L 165 163 Z M 408 153 L 407 152 L 402 153 L 388 163 L 376 170 L 374 172 L 374 174 L 377 176 L 406 157 L 408 155 Z M 104 153 L 104 156 L 127 171 L 130 172 L 133 175 L 136 176 L 138 174 L 138 172 L 136 170 L 130 167 L 108 152 L 105 152 Z M 344 153 L 342 151 L 340 151 L 324 166 L 315 176 L 317 178 L 319 178 L 343 156 Z M 168 153 L 169 156 L 181 166 L 193 178 L 196 178 L 197 177 L 197 174 L 172 151 L 170 151 Z M 355 139 L 353 139 L 348 144 L 350 147 L 352 147 L 356 143 L 356 140 Z M 157 139 L 156 140 L 156 143 L 160 147 L 162 147 L 164 145 L 163 142 L 159 139 Z M 261 130 L 248 131 L 238 138 L 233 155 L 242 171 L 224 182 L 212 194 L 198 219 L 192 245 L 183 335 L 185 344 L 193 355 L 181 348 L 177 350 L 195 365 L 235 379 L 236 375 L 210 367 L 193 356 L 203 359 L 244 359 L 256 369 L 267 359 L 311 358 L 323 349 L 327 340 L 315 225 L 300 195 L 286 181 L 270 171 L 277 159 L 278 149 L 274 139 Z M 254 158 L 258 158 L 262 162 L 262 167 L 258 170 L 260 173 L 279 182 L 295 197 L 302 207 L 310 226 L 314 247 L 322 339 L 319 346 L 307 354 L 266 354 L 255 360 L 245 354 L 204 354 L 194 349 L 189 341 L 197 247 L 203 220 L 214 200 L 226 187 L 253 171 L 249 167 L 249 163 Z M 248 151 L 252 146 L 257 145 L 263 150 L 263 153 L 262 154 L 253 153 L 249 155 L 248 154 Z M 242 141 L 251 135 L 260 135 L 266 138 L 270 142 L 273 149 L 273 155 L 270 162 L 268 163 L 266 160 L 268 154 L 267 147 L 264 143 L 258 140 L 253 140 L 249 142 L 245 146 L 243 151 L 245 157 L 245 161 L 242 162 L 240 160 L 238 154 L 239 146 Z M 276 120 L 276 122 L 278 124 L 290 126 L 305 133 L 307 133 L 323 143 L 330 149 L 332 149 L 334 147 L 329 141 L 319 134 L 306 127 L 304 127 L 291 121 L 287 121 L 282 119 L 277 119 Z M 236 120 L 235 119 L 225 120 L 206 127 L 190 136 L 178 146 L 180 149 L 182 149 L 198 137 L 219 127 L 229 125 L 230 124 L 234 124 L 236 122 Z M 377 115 L 375 115 L 361 129 L 360 131 L 361 134 L 364 134 L 378 119 L 378 116 Z M 135 115 L 134 116 L 134 119 L 148 134 L 151 134 L 152 133 L 151 129 L 137 115 Z M 255 106 L 253 109 L 254 122 L 257 122 L 258 121 L 258 111 L 259 110 L 258 108 Z M 337 91 L 333 96 L 320 121 L 320 123 L 322 125 L 325 123 L 331 110 L 340 95 L 340 93 Z M 173 92 L 173 95 L 178 105 L 180 107 L 188 124 L 191 125 L 193 122 L 178 93 L 176 91 Z M 297 76 L 294 77 L 294 80 L 291 89 L 291 93 L 287 106 L 287 110 L 288 111 L 291 111 L 293 106 L 293 102 L 294 101 L 294 98 L 298 85 L 298 81 L 299 80 L 299 78 Z M 215 76 L 213 78 L 213 80 L 219 101 L 220 109 L 222 111 L 224 111 L 225 110 L 225 105 L 224 104 L 224 100 L 223 99 L 218 77 Z M 255 75 L 254 76 L 253 86 L 249 94 L 244 98 L 244 101 L 240 107 L 240 115 L 245 121 L 250 122 L 251 119 L 245 114 L 245 108 L 253 97 L 254 94 L 257 93 L 267 108 L 267 114 L 261 119 L 262 122 L 265 122 L 270 118 L 272 114 L 272 107 L 269 103 L 268 99 L 261 91 L 259 86 L 258 76 Z M 255 53 L 254 54 L 254 66 L 257 67 L 259 64 L 259 56 L 257 53 Z" fill="currentColor" fill-rule="evenodd"/>
</svg>
