<svg xmlns="http://www.w3.org/2000/svg" viewBox="0 0 512 512" >
  <path d="M 298 356 L 298 359 L 305 371 L 323 390 L 344 404 L 356 409 L 360 409 L 358 406 L 330 386 L 321 378 L 300 356 Z M 212 355 L 210 355 L 204 361 L 199 368 L 179 388 L 151 410 L 153 411 L 169 404 L 187 391 L 198 380 L 205 371 L 210 363 L 210 361 L 212 358 Z M 285 321 L 278 328 L 274 336 L 270 354 L 270 378 L 277 403 L 290 424 L 306 438 L 319 444 L 328 446 L 344 446 L 372 438 L 391 438 L 395 432 L 392 419 L 394 397 L 393 378 L 386 360 L 377 347 L 356 329 L 334 319 L 318 316 L 294 317 Z M 299 325 L 301 327 L 301 333 L 300 335 L 293 342 L 289 344 L 284 344 L 282 342 L 282 337 L 284 333 L 292 326 Z M 278 353 L 280 351 L 290 352 L 298 348 L 306 340 L 309 334 L 310 324 L 332 327 L 345 332 L 358 340 L 374 356 L 384 375 L 386 384 L 386 399 L 384 407 L 384 419 L 386 430 L 367 431 L 344 438 L 328 438 L 320 436 L 308 430 L 293 415 L 283 397 L 278 378 L 277 367 Z M 239 327 L 232 320 L 224 316 L 197 315 L 182 318 L 166 324 L 143 339 L 127 359 L 120 377 L 119 400 L 121 416 L 118 428 L 119 436 L 122 438 L 144 438 L 166 445 L 181 446 L 201 441 L 218 430 L 228 419 L 235 408 L 244 384 L 246 372 L 246 353 L 243 335 Z M 215 327 L 218 324 L 223 324 L 228 327 L 233 332 L 235 336 L 235 341 L 233 343 L 227 343 L 223 341 L 216 333 Z M 238 352 L 238 373 L 232 396 L 224 411 L 216 421 L 208 428 L 195 435 L 182 438 L 167 437 L 145 430 L 127 429 L 129 415 L 127 400 L 127 382 L 129 374 L 137 358 L 144 349 L 153 341 L 175 329 L 192 324 L 207 323 L 208 334 L 211 340 L 218 347 L 227 351 L 236 350 Z M 402 226 L 400 226 L 390 231 L 381 237 L 359 248 L 329 259 L 328 262 L 329 263 L 342 262 L 360 256 L 384 243 L 399 231 Z M 114 226 L 127 240 L 143 251 L 162 260 L 165 260 L 169 262 L 174 262 L 175 263 L 180 263 L 181 262 L 180 259 L 167 253 L 160 251 L 139 240 L 116 225 Z M 72 206 L 72 212 L 77 228 L 78 249 L 81 260 L 94 282 L 114 298 L 127 304 L 139 307 L 164 307 L 176 304 L 189 298 L 203 289 L 211 279 L 214 271 L 214 249 L 209 233 L 196 213 L 187 204 L 172 193 L 153 186 L 130 186 L 116 190 L 95 200 L 75 203 Z M 203 261 L 206 265 L 205 273 L 201 280 L 198 283 L 194 283 L 191 278 L 192 271 L 195 265 L 198 262 Z M 81 211 L 99 207 L 126 195 L 138 193 L 153 194 L 162 197 L 177 206 L 187 215 L 199 231 L 204 242 L 206 251 L 205 253 L 198 253 L 194 255 L 189 260 L 185 267 L 183 278 L 184 283 L 188 289 L 168 298 L 147 300 L 126 295 L 110 286 L 97 273 L 89 259 L 86 248 L 85 230 Z M 439 207 L 420 202 L 396 188 L 382 184 L 362 184 L 341 190 L 319 203 L 306 216 L 299 226 L 294 236 L 291 248 L 291 265 L 294 275 L 298 282 L 305 289 L 328 302 L 340 306 L 351 308 L 366 308 L 391 301 L 408 290 L 416 282 L 425 269 L 432 250 L 435 227 L 441 213 Z M 303 258 L 308 259 L 313 264 L 316 270 L 317 279 L 314 283 L 310 283 L 304 277 L 301 271 L 300 261 Z M 431 213 L 432 215 L 426 232 L 425 246 L 418 266 L 404 283 L 391 292 L 376 298 L 366 300 L 352 300 L 341 298 L 322 290 L 321 287 L 325 280 L 325 273 L 322 264 L 313 253 L 306 250 L 299 250 L 303 235 L 312 221 L 323 210 L 333 203 L 353 194 L 362 192 L 382 192 L 392 195 L 419 210 Z M 203 128 L 207 130 L 210 130 L 214 132 L 229 135 L 233 137 L 236 137 L 245 140 L 248 142 L 255 144 L 279 156 L 283 159 L 286 160 L 288 159 L 287 156 L 279 149 L 263 139 L 261 139 L 249 133 L 233 128 L 220 127 L 219 126 L 207 126 Z M 253 65 L 237 80 L 208 97 L 196 108 L 188 124 L 188 142 L 191 151 L 200 167 L 216 183 L 228 191 L 241 197 L 258 201 L 274 201 L 285 199 L 308 188 L 318 177 L 322 169 L 325 157 L 325 138 L 318 119 L 307 104 L 294 92 L 270 78 L 258 66 Z M 312 157 L 315 160 L 314 168 L 311 174 L 305 180 L 302 181 L 299 178 L 300 168 L 302 164 L 308 158 Z M 254 74 L 262 82 L 290 99 L 305 114 L 310 121 L 317 138 L 318 149 L 317 150 L 309 149 L 303 152 L 294 162 L 291 170 L 291 180 L 294 186 L 290 189 L 280 192 L 257 193 L 245 190 L 230 183 L 220 176 L 207 163 L 201 154 L 196 141 L 195 135 L 196 125 L 201 115 L 213 103 L 238 89 L 248 81 Z" fill="currentColor" fill-rule="evenodd"/>
</svg>
