<svg xmlns="http://www.w3.org/2000/svg" viewBox="0 0 512 512" >
  <path d="M 257 262 L 255 262 L 249 268 L 238 282 L 255 303 L 261 298 L 273 283 L 273 280 Z M 255 270 L 257 270 L 266 281 L 266 283 L 257 294 L 255 294 L 245 282 Z M 276 218 L 260 229 L 259 231 L 260 232 L 260 235 L 259 236 L 260 238 L 259 240 L 260 251 L 259 254 L 275 272 L 276 272 L 277 266 L 265 253 L 265 233 L 272 227 L 274 228 L 275 237 L 270 241 L 270 245 L 271 246 L 281 239 L 279 224 L 278 223 L 278 220 Z M 235 218 L 233 222 L 233 227 L 232 228 L 232 232 L 230 238 L 238 245 L 241 246 L 242 245 L 242 241 L 237 237 L 237 230 L 238 228 L 240 227 L 247 233 L 247 253 L 235 266 L 235 270 L 236 272 L 237 272 L 252 255 L 252 251 L 253 250 L 253 247 L 252 246 L 253 244 L 252 243 L 253 231 L 252 229 L 238 219 Z M 255 154 L 238 176 L 252 196 L 252 197 L 246 202 L 244 206 L 245 215 L 252 221 L 259 221 L 262 220 L 266 216 L 268 211 L 267 204 L 265 201 L 260 197 L 260 195 L 273 178 L 273 175 L 257 154 Z M 253 203 L 258 203 L 261 205 L 262 207 L 262 212 L 259 215 L 253 215 L 250 212 L 250 206 Z M 255 162 L 260 166 L 267 176 L 260 187 L 256 191 L 254 190 L 245 177 L 246 174 Z M 254 51 L 235 67 L 217 106 L 219 128 L 232 147 L 227 163 L 203 178 L 193 165 L 206 146 L 195 140 L 185 150 L 179 125 L 167 132 L 170 149 L 156 138 L 146 146 L 163 161 L 147 166 L 150 180 L 175 176 L 196 208 L 223 201 L 219 255 L 194 250 L 181 280 L 170 264 L 159 265 L 157 277 L 166 285 L 151 282 L 144 293 L 164 299 L 153 309 L 157 319 L 180 306 L 188 325 L 199 318 L 195 301 L 205 285 L 233 307 L 236 325 L 215 397 L 258 463 L 265 440 L 242 390 L 279 306 L 307 285 L 317 302 L 313 318 L 324 325 L 332 306 L 355 319 L 358 307 L 347 299 L 362 300 L 368 291 L 361 282 L 346 285 L 356 274 L 349 263 L 331 281 L 319 251 L 293 255 L 289 202 L 316 208 L 337 176 L 362 180 L 366 168 L 350 160 L 365 144 L 356 138 L 342 149 L 345 132 L 333 125 L 326 151 L 317 140 L 306 145 L 318 163 L 309 178 L 286 164 L 280 147 L 294 124 L 293 99 L 276 66 Z M 188 311 L 190 311 L 193 313 L 194 316 L 192 319 L 188 319 L 186 317 L 186 314 Z M 322 310 L 323 310 L 326 314 L 326 317 L 324 319 L 320 319 L 318 317 L 318 314 Z M 345 308 L 346 307 L 352 308 L 353 309 L 353 313 L 351 315 L 348 315 L 346 313 Z M 161 307 L 165 307 L 166 308 L 166 313 L 164 315 L 161 315 L 158 312 L 158 310 Z M 353 291 L 356 288 L 360 288 L 362 290 L 362 293 L 360 295 L 357 295 L 355 294 Z M 150 289 L 154 287 L 156 288 L 159 292 L 155 295 L 152 295 L 150 293 Z M 348 268 L 350 270 L 350 274 L 348 276 L 346 276 L 343 278 L 342 277 L 343 275 L 343 270 L 345 268 Z M 164 268 L 166 268 L 169 271 L 169 276 L 168 277 L 164 276 L 161 273 Z M 353 169 L 359 168 L 361 170 L 361 173 L 358 176 L 356 176 L 352 171 Z M 348 169 L 350 168 L 351 170 L 349 171 Z M 151 174 L 151 170 L 153 168 L 156 168 L 160 170 L 158 174 L 155 176 Z M 162 153 L 164 152 L 165 154 L 163 155 Z M 314 145 L 318 147 L 318 152 L 317 153 L 313 153 L 311 151 L 311 148 Z M 197 145 L 201 148 L 201 151 L 199 153 L 194 153 L 193 152 L 193 148 Z M 355 144 L 358 144 L 360 146 L 360 149 L 357 152 L 352 150 L 352 148 Z M 152 146 L 154 144 L 157 144 L 159 146 L 159 150 L 156 152 L 152 150 Z M 335 130 L 338 131 L 340 134 L 339 137 L 336 139 L 334 139 L 332 137 L 332 132 Z M 176 130 L 180 133 L 180 136 L 177 140 L 172 136 L 172 133 Z M 253 58 L 262 60 L 281 86 L 271 98 L 276 118 L 284 110 L 282 92 L 289 120 L 274 145 L 278 165 L 311 185 L 325 166 L 319 153 L 330 156 L 335 143 L 337 156 L 348 154 L 342 161 L 348 169 L 334 171 L 315 202 L 281 189 L 289 232 L 281 275 L 314 255 L 325 285 L 331 288 L 342 278 L 339 288 L 346 293 L 340 296 L 343 306 L 329 301 L 323 310 L 307 276 L 275 301 L 267 331 L 237 385 L 239 408 L 259 447 L 232 420 L 221 397 L 223 371 L 241 331 L 238 303 L 205 276 L 189 310 L 182 301 L 170 305 L 167 293 L 170 278 L 186 286 L 198 255 L 230 276 L 223 228 L 231 189 L 197 202 L 178 171 L 161 170 L 177 143 L 183 157 L 192 156 L 187 167 L 201 185 L 233 166 L 238 146 L 224 124 L 223 107 L 230 92 L 228 111 L 233 119 L 241 99 L 231 85 Z" fill="currentColor" fill-rule="evenodd"/>
</svg>
