<svg xmlns="http://www.w3.org/2000/svg" viewBox="0 0 512 512" >
  <path d="M 303 217 L 299 219 L 294 226 L 294 232 L 296 236 L 302 241 L 303 366 L 305 385 L 310 408 L 316 421 L 321 426 L 322 423 L 317 412 L 311 383 L 308 339 L 309 241 L 314 238 L 318 228 L 313 219 Z M 304 223 L 307 223 L 311 226 L 311 232 L 309 234 L 303 234 L 300 231 L 300 227 Z M 208 217 L 199 218 L 193 226 L 193 232 L 195 236 L 202 243 L 202 353 L 197 398 L 188 425 L 189 426 L 193 423 L 199 412 L 207 373 L 209 309 L 208 243 L 217 231 L 216 224 Z M 203 223 L 208 224 L 211 228 L 210 232 L 208 234 L 202 234 L 199 231 L 199 227 Z M 254 70 L 242 81 L 252 97 L 251 118 L 215 103 L 223 130 L 252 147 L 251 155 L 212 157 L 252 163 L 251 188 L 221 177 L 246 195 L 220 211 L 247 229 L 214 248 L 221 267 L 217 437 L 226 361 L 223 250 L 249 235 L 252 260 L 243 274 L 252 305 L 243 318 L 252 349 L 243 362 L 251 378 L 236 428 L 256 417 L 274 429 L 259 375 L 267 364 L 258 348 L 267 320 L 258 301 L 267 276 L 258 259 L 262 235 L 288 250 L 283 300 L 293 438 L 289 271 L 296 247 L 264 229 L 290 212 L 265 195 L 290 177 L 260 188 L 258 165 L 299 158 L 258 151 L 287 131 L 296 105 L 259 118 L 258 98 L 269 83 Z M 255 389 L 257 390 L 257 393 L 264 411 L 264 414 L 263 415 L 256 409 L 253 410 L 248 415 L 246 414 L 250 401 L 252 398 L 253 392 Z M 254 355 L 257 355 L 261 359 L 261 363 L 256 367 L 253 366 L 249 361 L 250 358 Z M 254 311 L 257 311 L 261 315 L 261 319 L 256 323 L 252 322 L 249 317 L 250 314 Z M 249 272 L 253 267 L 258 267 L 261 270 L 261 275 L 257 278 L 253 278 L 250 275 Z M 232 210 L 236 207 L 254 198 L 257 198 L 278 209 L 279 211 L 256 224 L 254 224 L 252 222 L 234 213 Z M 223 115 L 225 114 L 227 116 L 237 121 L 244 123 L 248 123 L 249 124 L 263 124 L 264 123 L 268 123 L 280 119 L 284 116 L 286 116 L 287 119 L 281 129 L 272 136 L 261 140 L 250 140 L 243 138 L 234 133 L 226 124 Z M 251 78 L 253 77 L 258 77 L 262 81 L 262 86 L 259 90 L 254 91 L 249 87 L 248 82 Z M 168 45 L 165 57 L 170 151 L 170 361 L 166 460 L 169 464 L 344 464 L 345 47 L 223 49 Z M 174 53 L 338 54 L 335 293 L 338 456 L 173 455 L 177 253 Z" fill="currentColor" fill-rule="evenodd"/>
</svg>
