<svg xmlns="http://www.w3.org/2000/svg" viewBox="0 0 512 512" >
  <path d="M 240 67 L 226 75 L 213 91 L 197 93 L 190 113 L 172 130 L 172 364 L 157 366 L 151 372 L 157 397 L 139 415 L 138 445 L 184 447 L 191 432 L 321 432 L 329 447 L 372 447 L 373 415 L 355 397 L 362 381 L 361 372 L 355 366 L 340 364 L 340 129 L 323 114 L 315 93 L 299 91 L 282 72 L 264 65 Z M 145 419 L 150 412 L 161 405 L 164 398 L 348 398 L 352 406 L 362 412 L 367 419 L 367 439 L 334 440 L 331 431 L 327 427 L 321 425 L 191 425 L 182 430 L 178 440 L 146 440 Z M 157 377 L 161 372 L 225 372 L 225 377 L 227 380 L 285 380 L 287 378 L 287 372 L 351 372 L 354 374 L 355 380 L 347 391 L 165 391 L 158 383 Z M 213 345 L 214 344 L 298 344 L 299 347 L 287 360 L 276 366 L 276 370 L 277 371 L 276 373 L 236 373 L 235 372 L 236 366 L 234 364 L 232 364 L 225 360 L 215 350 L 213 347 Z M 255 317 L 258 318 L 261 327 L 260 334 L 257 337 L 255 337 L 251 331 L 252 322 Z M 256 283 L 259 285 L 263 291 L 268 301 L 268 304 L 270 308 L 271 319 L 270 320 L 270 325 L 267 330 L 265 329 L 264 318 L 260 310 L 257 307 L 254 307 L 249 316 L 247 322 L 247 329 L 246 330 L 243 328 L 241 322 L 241 313 L 243 306 L 252 292 Z M 252 89 L 272 94 L 283 113 L 298 115 L 306 131 L 316 140 L 315 365 L 294 364 L 308 344 L 306 337 L 271 336 L 277 324 L 277 307 L 269 288 L 255 270 L 251 272 L 248 285 L 235 308 L 235 325 L 241 336 L 206 337 L 204 344 L 218 364 L 196 364 L 196 140 L 207 130 L 214 115 L 228 114 L 235 99 Z M 246 73 L 270 74 L 295 98 L 311 99 L 318 119 L 333 131 L 332 365 L 323 364 L 323 136 L 311 126 L 302 108 L 290 108 L 277 89 L 262 82 L 235 89 L 222 108 L 207 111 L 202 125 L 189 137 L 189 364 L 179 364 L 179 131 L 195 118 L 203 98 L 217 98 L 230 81 Z" fill="currentColor" fill-rule="evenodd"/>
</svg>
