<svg xmlns="http://www.w3.org/2000/svg" viewBox="0 0 512 512" >
  <path d="M 81 123 L 81 166 L 140 213 L 141 235 L 87 313 L 66 356 L 68 420 L 134 421 L 140 405 L 149 399 L 363 399 L 372 405 L 378 421 L 446 418 L 445 353 L 432 336 L 425 313 L 392 272 L 391 259 L 371 234 L 372 213 L 432 165 L 433 126 L 426 117 L 403 106 L 353 96 L 238 91 L 128 102 L 100 110 Z M 74 359 L 436 357 L 439 361 L 439 409 L 437 413 L 384 413 L 379 401 L 365 391 L 147 391 L 133 401 L 128 413 L 75 413 Z M 153 329 L 358 328 L 359 348 L 154 349 Z M 431 347 L 430 349 L 368 349 L 367 348 L 367 328 L 370 326 L 373 326 L 398 318 L 404 315 L 408 312 L 409 310 L 413 311 L 419 318 L 423 327 L 424 338 Z M 81 347 L 88 338 L 88 331 L 94 317 L 101 310 L 103 310 L 108 315 L 114 318 L 126 322 L 129 322 L 136 325 L 139 325 L 145 328 L 145 348 L 144 349 L 82 349 Z M 108 298 L 112 289 L 123 280 L 136 287 L 162 293 L 225 299 L 319 297 L 361 291 L 391 281 L 402 292 L 404 304 L 394 311 L 364 320 L 149 320 L 112 308 L 108 304 Z M 391 190 L 380 200 L 368 205 L 364 211 L 363 235 L 371 253 L 384 263 L 384 273 L 368 281 L 318 289 L 228 291 L 157 284 L 138 279 L 128 273 L 128 263 L 141 253 L 147 243 L 149 216 L 146 206 L 129 198 L 122 192 L 123 190 L 174 200 L 223 204 L 304 203 Z M 87 147 L 140 163 L 212 171 L 267 172 L 338 168 L 391 159 L 423 146 L 425 160 L 419 168 L 402 177 L 349 190 L 283 196 L 226 196 L 161 190 L 112 178 L 101 173 L 88 162 Z M 88 128 L 105 117 L 146 107 L 199 101 L 267 99 L 338 103 L 383 110 L 416 121 L 425 132 L 410 144 L 376 154 L 313 162 L 244 164 L 169 159 L 128 152 L 96 141 L 88 134 Z" fill="currentColor" fill-rule="evenodd"/>
</svg>
