<svg xmlns="http://www.w3.org/2000/svg" viewBox="0 0 512 512" >
  <path d="M 226 101 L 208 111 L 193 126 L 182 145 L 175 167 L 171 206 L 165 402 L 170 407 L 341 407 L 346 397 L 340 197 L 332 151 L 316 123 L 288 102 L 265 96 L 247 96 Z M 171 397 L 173 390 L 179 380 L 208 380 L 209 381 L 332 380 L 338 390 L 340 401 L 339 402 L 172 402 Z M 181 360 L 182 356 L 185 352 L 242 353 L 243 354 L 326 352 L 329 356 L 331 372 L 329 375 L 326 376 L 324 375 L 319 376 L 274 376 L 273 377 L 270 376 L 240 376 L 239 377 L 237 376 L 192 376 L 191 375 L 185 376 L 181 374 Z M 193 344 L 194 343 L 205 343 L 206 344 L 305 344 L 306 343 L 317 343 L 319 347 L 318 348 L 301 348 L 300 349 L 211 349 L 210 348 L 194 348 L 193 347 Z M 189 325 L 190 321 L 192 319 L 226 320 L 227 321 L 284 321 L 285 320 L 319 319 L 321 321 L 322 325 L 322 337 L 319 339 L 297 339 L 296 340 L 216 340 L 215 339 L 191 339 L 189 337 Z M 200 311 L 202 310 L 203 311 L 223 311 L 224 312 L 287 312 L 288 311 L 307 311 L 310 310 L 311 311 L 311 314 L 310 315 L 303 315 L 302 316 L 244 317 L 243 316 L 209 316 L 208 315 L 201 315 L 200 314 Z M 195 293 L 198 287 L 203 289 L 213 290 L 214 291 L 229 291 L 230 292 L 284 292 L 285 291 L 303 290 L 313 287 L 316 294 L 316 303 L 313 306 L 280 307 L 279 308 L 210 307 L 209 306 L 198 306 L 195 303 Z M 205 283 L 208 281 L 215 283 L 226 283 L 227 284 L 284 284 L 285 283 L 296 283 L 297 282 L 302 282 L 304 281 L 306 284 L 302 286 L 281 287 L 280 288 L 231 288 L 230 287 L 209 286 L 206 285 Z M 202 264 L 207 259 L 217 256 L 226 256 L 228 258 L 237 262 L 244 264 L 248 264 L 249 265 L 267 264 L 279 260 L 285 256 L 294 256 L 306 260 L 309 264 L 309 271 L 305 276 L 300 278 L 277 279 L 276 280 L 233 280 L 232 279 L 211 278 L 206 276 L 202 271 Z M 277 197 L 284 200 L 288 204 L 290 210 L 291 226 L 292 227 L 292 245 L 286 251 L 280 255 L 271 259 L 260 261 L 259 259 L 264 256 L 262 254 L 263 252 L 271 253 L 283 241 L 283 234 L 282 233 L 282 226 L 281 225 L 281 211 L 279 211 L 277 222 L 275 226 L 274 235 L 273 236 L 274 245 L 270 249 L 267 249 L 266 248 L 265 233 L 266 232 L 267 219 L 274 199 Z M 270 195 L 272 197 L 272 199 L 269 204 L 265 216 L 265 220 L 263 226 L 263 249 L 258 251 L 253 251 L 248 249 L 241 249 L 237 245 L 238 235 L 237 234 L 237 229 L 236 227 L 237 226 L 246 226 L 250 224 L 258 216 L 267 199 L 267 197 Z M 262 190 L 266 194 L 266 196 L 258 212 L 249 222 L 245 224 L 238 224 L 234 220 L 232 211 L 230 212 L 231 221 L 230 222 L 228 241 L 240 253 L 248 252 L 253 255 L 252 257 L 245 257 L 243 259 L 241 259 L 228 253 L 224 250 L 219 244 L 219 230 L 220 229 L 220 220 L 221 219 L 222 208 L 224 203 L 231 198 L 234 198 L 246 194 L 249 189 L 254 191 Z M 248 154 L 254 154 L 255 155 L 263 154 L 268 158 L 269 171 L 268 172 L 267 179 L 262 185 L 258 187 L 253 187 L 251 186 L 245 180 L 243 174 L 243 159 L 244 157 Z M 254 150 L 256 149 L 257 151 L 255 152 Z M 255 127 L 256 127 L 258 130 L 258 135 L 257 136 L 254 136 L 253 135 L 253 131 Z M 225 107 L 247 101 L 282 105 L 304 118 L 325 147 L 335 193 L 339 381 L 333 354 L 322 344 L 326 323 L 315 311 L 320 305 L 320 291 L 309 280 L 314 265 L 309 257 L 293 251 L 297 243 L 293 205 L 286 196 L 271 191 L 277 165 L 272 149 L 262 138 L 257 116 L 234 166 L 240 191 L 224 197 L 218 206 L 218 251 L 201 258 L 197 266 L 202 280 L 191 292 L 196 312 L 185 324 L 189 345 L 180 351 L 176 377 L 171 380 L 178 177 L 195 132 Z M 225 88 L 205 98 L 188 113 L 170 143 L 164 162 L 159 210 L 153 412 L 164 421 L 350 420 L 358 411 L 352 199 L 343 147 L 327 117 L 300 94 L 262 83 Z M 225 94 L 245 89 L 268 89 L 292 96 L 319 116 L 338 148 L 347 202 L 353 410 L 348 415 L 163 415 L 158 410 L 164 205 L 169 163 L 175 144 L 190 119 L 206 104 Z M 143 61 L 134 75 L 136 438 L 154 449 L 358 449 L 369 445 L 378 430 L 376 69 L 362 58 Z M 148 65 L 361 64 L 370 71 L 372 430 L 364 441 L 154 443 L 142 436 L 140 75 Z" fill="currentColor" fill-rule="evenodd"/>
</svg>
