<svg xmlns="http://www.w3.org/2000/svg" viewBox="0 0 512 512" >
  <path d="M 355 380 L 349 383 L 335 387 L 317 387 L 316 386 L 311 386 L 301 382 L 301 383 L 306 386 L 315 389 L 330 390 L 331 389 L 338 389 L 344 387 Z M 213 361 L 207 366 L 193 373 L 187 375 L 183 375 L 180 376 L 180 377 L 184 377 L 185 376 L 189 376 L 196 374 L 209 366 Z M 257 321 L 255 321 L 253 323 L 253 326 L 255 328 L 259 326 L 259 323 Z M 274 243 L 253 274 L 238 289 L 233 292 L 233 293 L 244 286 L 258 271 L 266 259 Z M 256 227 L 253 230 L 251 235 L 255 240 L 257 240 L 260 236 L 260 232 Z M 255 231 L 258 232 L 258 236 L 257 237 L 255 237 L 253 235 Z M 244 178 L 244 179 L 250 182 L 252 182 L 253 184 L 251 185 L 253 187 L 259 187 L 261 185 L 260 185 L 259 183 L 267 179 L 267 177 L 265 177 L 263 179 L 260 178 L 254 179 L 253 178 L 248 179 L 246 177 Z M 253 184 L 254 183 L 258 183 L 259 185 L 258 186 L 254 186 Z M 249 171 L 251 174 L 254 175 L 258 175 L 262 173 L 262 170 L 261 169 L 261 171 L 257 173 L 252 172 L 251 169 L 250 169 Z M 263 160 L 264 160 L 266 157 L 267 157 L 269 160 L 273 160 L 275 158 L 279 157 L 283 153 L 269 152 L 264 156 Z M 229 153 L 229 154 L 234 158 L 237 158 L 239 160 L 242 160 L 244 158 L 246 158 L 248 160 L 249 159 L 247 155 L 243 152 L 240 152 L 239 151 L 234 153 Z M 261 148 L 264 149 L 269 146 L 279 146 L 282 148 L 283 147 L 276 142 L 271 142 L 265 144 Z M 229 147 L 232 147 L 233 146 L 243 146 L 248 149 L 250 149 L 250 147 L 247 144 L 241 142 L 233 143 L 230 145 Z M 256 133 L 253 138 L 253 141 L 255 143 L 257 143 L 259 140 Z M 256 40 L 246 69 L 214 122 L 198 120 L 212 173 L 202 209 L 193 211 L 194 194 L 183 178 L 173 181 L 164 194 L 153 196 L 168 231 L 167 292 L 176 302 L 185 303 L 207 280 L 192 324 L 153 327 L 132 340 L 128 349 L 132 375 L 124 379 L 130 416 L 141 429 L 141 445 L 156 455 L 244 467 L 333 461 L 372 445 L 372 429 L 383 417 L 389 381 L 375 376 L 381 360 L 375 338 L 357 328 L 334 325 L 344 306 L 340 252 L 323 212 L 309 205 L 300 177 L 313 120 L 298 124 Z M 144 437 L 146 436 L 155 441 L 176 447 L 225 453 L 288 453 L 342 446 L 361 440 L 367 436 L 369 437 L 369 443 L 362 449 L 355 452 L 324 459 L 283 463 L 230 463 L 189 459 L 165 454 L 148 447 L 144 443 Z M 145 432 L 152 432 L 164 438 L 179 440 L 186 443 L 205 444 L 219 447 L 246 448 L 293 447 L 307 444 L 319 444 L 350 438 L 366 431 L 368 433 L 352 441 L 317 448 L 284 451 L 229 451 L 203 449 L 169 443 L 153 438 Z M 246 433 L 252 427 L 257 424 L 267 433 L 268 439 L 265 444 L 249 444 L 246 441 L 245 438 Z M 343 424 L 345 423 L 346 426 L 344 427 Z M 298 423 L 304 430 L 304 436 L 302 440 L 297 443 L 284 443 L 283 442 L 283 437 L 285 431 L 290 426 L 295 423 Z M 215 423 L 220 424 L 228 431 L 229 433 L 229 438 L 230 439 L 230 442 L 229 443 L 216 443 L 211 440 L 209 436 L 209 430 Z M 233 422 L 234 421 L 241 421 L 242 423 L 239 427 L 237 428 Z M 271 423 L 272 421 L 275 420 L 280 420 L 281 421 L 276 427 Z M 167 419 L 168 419 L 170 422 L 169 425 L 167 424 L 166 421 Z M 332 418 L 337 425 L 337 431 L 335 435 L 332 438 L 329 439 L 317 440 L 316 437 L 319 427 L 325 421 L 330 418 Z M 182 418 L 185 419 L 193 425 L 196 432 L 196 437 L 197 438 L 196 440 L 184 439 L 181 438 L 177 434 L 176 426 L 178 422 Z M 313 417 L 314 419 L 312 422 L 310 423 L 308 419 L 310 417 Z M 199 418 L 200 417 L 203 417 L 205 419 L 205 421 L 202 423 Z M 239 432 L 241 428 L 246 423 L 257 416 L 260 419 L 267 423 L 274 431 L 274 439 L 273 441 L 270 443 L 269 442 L 269 433 L 268 431 L 263 426 L 260 425 L 257 422 L 250 426 L 245 431 L 244 433 L 244 442 L 242 443 L 239 439 Z M 164 417 L 166 416 L 167 418 L 165 419 Z M 298 414 L 306 422 L 308 426 L 308 430 L 306 431 L 304 426 L 297 419 L 294 422 L 288 425 L 284 429 L 282 433 L 281 441 L 279 443 L 277 443 L 276 442 L 277 440 L 277 433 L 280 426 L 284 422 Z M 207 422 L 215 414 L 226 420 L 230 423 L 235 429 L 237 442 L 234 443 L 232 441 L 230 430 L 225 425 L 219 422 L 216 419 L 209 426 L 208 430 L 206 431 L 205 430 L 205 426 Z M 168 413 L 169 412 L 172 412 L 173 415 L 170 417 L 168 415 Z M 332 410 L 338 416 L 340 422 L 338 423 L 332 415 L 331 415 L 322 421 L 318 425 L 316 429 L 315 436 L 314 438 L 310 441 L 309 438 L 311 435 L 311 429 L 314 423 L 320 417 Z M 181 410 L 183 410 L 186 413 L 193 417 L 200 424 L 202 429 L 202 435 L 204 439 L 203 441 L 202 441 L 198 436 L 196 426 L 190 420 L 187 419 L 182 415 L 178 419 L 175 424 L 173 423 L 174 418 Z M 150 409 L 159 415 L 164 420 L 166 425 L 166 430 L 168 433 L 167 435 L 161 434 L 157 432 L 151 426 L 149 421 L 149 415 L 148 414 L 148 412 Z M 349 408 L 350 410 L 342 417 L 340 415 L 340 410 L 341 409 Z M 327 408 L 325 411 L 319 415 L 316 414 L 315 415 L 305 416 L 300 412 L 301 410 L 312 410 L 319 408 L 322 406 L 324 406 Z M 363 405 L 365 409 L 365 416 L 362 426 L 358 431 L 352 434 L 347 435 L 346 434 L 346 431 L 349 421 L 356 414 L 359 413 L 362 409 L 353 414 L 348 419 L 347 422 L 345 423 L 344 421 L 346 417 L 352 411 Z M 149 406 L 152 405 L 160 410 L 163 414 L 161 415 L 158 412 L 152 409 L 150 409 Z M 156 404 L 157 403 L 159 404 L 172 404 L 179 401 L 182 401 L 185 404 L 193 408 L 200 410 L 212 410 L 213 412 L 207 416 L 204 416 L 203 415 L 194 414 L 188 411 L 182 406 L 176 411 L 173 411 L 172 410 L 164 410 L 157 406 Z M 381 400 L 382 401 L 382 409 L 378 419 L 371 426 L 366 428 L 365 426 L 368 418 L 368 411 L 370 408 L 373 409 L 377 405 L 376 405 L 375 403 L 377 401 Z M 132 399 L 135 400 L 140 404 L 138 407 L 140 408 L 143 407 L 146 413 L 146 421 L 148 425 L 147 427 L 143 426 L 136 420 L 133 414 L 132 407 L 131 406 L 131 400 Z M 359 402 L 362 398 L 365 399 L 365 400 L 361 403 Z M 291 407 L 285 414 L 278 418 L 275 418 L 274 419 L 264 418 L 258 413 L 255 413 L 249 418 L 246 418 L 245 419 L 234 419 L 233 418 L 230 418 L 227 415 L 228 413 L 244 413 L 259 406 L 267 400 L 275 397 L 277 397 L 278 399 Z M 376 396 L 377 398 L 368 405 L 366 399 Z M 136 397 L 137 396 L 140 397 L 149 397 L 151 396 L 153 401 L 151 402 L 148 400 L 146 403 L 144 404 L 137 399 Z M 233 387 L 230 393 L 230 397 L 228 398 L 224 403 L 216 406 L 203 407 L 202 406 L 198 406 L 192 404 L 186 400 L 187 398 L 201 397 L 211 394 L 217 391 L 225 385 L 231 385 Z M 385 382 L 385 386 L 379 392 L 370 395 L 361 395 L 352 403 L 345 406 L 334 406 L 329 404 L 331 401 L 335 399 L 350 397 L 358 394 L 365 389 L 372 381 L 380 380 Z M 127 381 L 128 380 L 136 380 L 140 384 L 148 389 L 153 390 L 154 392 L 148 394 L 137 393 L 133 391 L 128 386 Z M 267 364 L 265 368 L 265 378 L 266 379 L 266 382 L 273 394 L 264 398 L 256 404 L 250 407 L 247 406 L 244 407 L 243 405 L 242 405 L 237 409 L 236 407 L 240 402 L 239 401 L 232 409 L 229 410 L 227 408 L 227 405 L 233 398 L 234 392 L 237 387 L 242 383 L 247 377 L 250 371 L 251 366 L 256 361 L 263 361 Z M 248 362 L 249 364 L 244 376 L 238 382 L 231 382 L 230 380 L 238 369 L 240 363 L 242 361 Z M 239 350 L 241 351 L 241 354 L 240 355 L 237 353 Z M 265 339 L 266 340 L 266 345 L 268 352 L 268 358 L 267 359 L 261 357 L 254 358 L 253 357 L 253 345 L 254 344 L 256 345 Z M 247 339 L 252 343 L 252 350 L 251 351 L 251 358 L 250 359 L 247 359 L 244 357 L 245 343 Z M 270 335 L 272 335 L 279 339 L 279 341 L 276 345 L 273 352 L 270 351 L 270 345 L 269 344 L 269 336 Z M 373 341 L 377 349 L 376 366 L 366 383 L 354 392 L 331 397 L 314 406 L 302 407 L 294 405 L 285 400 L 276 392 L 270 383 L 268 377 L 269 373 L 277 380 L 280 380 L 288 390 L 304 396 L 286 386 L 281 380 L 295 377 L 301 363 L 313 348 L 328 343 L 346 341 L 337 339 L 336 337 L 339 335 L 333 336 L 323 341 L 322 339 L 329 330 L 355 331 L 364 334 Z M 306 331 L 311 337 L 311 341 L 306 353 L 299 360 L 295 368 L 295 371 L 294 373 L 292 374 L 291 373 L 291 368 L 293 361 L 295 358 L 295 356 L 294 356 L 289 365 L 288 373 L 287 375 L 285 376 L 284 375 L 284 369 L 285 368 L 285 363 L 288 357 L 288 354 L 283 363 L 281 375 L 279 376 L 278 375 L 278 365 L 279 364 L 280 357 L 283 352 L 282 351 L 276 362 L 276 367 L 274 369 L 272 368 L 273 365 L 272 359 L 277 349 L 284 340 L 293 334 L 297 330 L 304 330 Z M 297 325 L 301 323 L 309 325 L 313 328 L 316 332 L 317 340 L 316 341 L 314 340 L 313 335 L 309 330 L 302 327 L 298 327 Z M 243 339 L 242 345 L 236 351 L 230 352 L 190 338 L 163 337 L 196 343 L 225 353 L 223 362 L 210 374 L 222 366 L 215 377 L 226 367 L 232 356 L 238 358 L 233 371 L 217 387 L 171 401 L 160 401 L 155 396 L 158 392 L 186 389 L 204 378 L 179 388 L 156 388 L 138 377 L 131 361 L 134 343 L 142 335 L 160 329 L 193 328 L 193 332 L 209 340 L 229 339 L 213 339 L 195 330 L 199 329 L 197 326 L 206 321 L 217 328 L 234 332 L 236 335 L 233 338 L 239 337 L 226 347 Z M 302 319 L 303 318 L 310 318 L 314 320 L 320 326 L 322 333 L 320 334 L 317 328 L 313 324 L 307 321 L 303 321 Z M 255 317 L 257 317 L 262 322 L 262 327 L 258 331 L 254 331 L 250 327 L 250 322 Z M 298 317 L 297 321 L 291 325 L 292 330 L 285 336 L 281 338 L 276 336 L 274 334 L 275 332 L 285 330 L 288 327 L 275 330 L 274 327 L 276 324 L 285 321 L 288 321 L 296 316 Z M 208 316 L 211 314 L 220 320 L 235 324 L 238 329 L 235 330 L 234 329 L 230 329 L 220 326 L 212 322 L 208 318 Z M 240 322 L 244 319 L 244 315 L 247 313 L 248 314 L 247 316 L 248 320 L 244 323 L 245 327 L 248 329 L 247 333 L 252 332 L 255 337 L 257 337 L 260 332 L 264 333 L 265 332 L 264 328 L 268 325 L 268 323 L 263 320 L 265 317 L 264 315 L 265 313 L 268 315 L 267 318 L 271 321 L 272 325 L 271 327 L 267 330 L 268 333 L 265 336 L 262 335 L 257 341 L 255 341 L 250 336 L 246 336 L 244 334 L 244 331 L 245 330 L 240 326 Z M 239 312 L 241 311 L 242 313 L 240 314 Z M 297 309 L 297 312 L 294 315 L 283 320 L 275 321 L 272 318 L 273 316 L 277 316 L 287 313 L 295 308 Z M 212 309 L 213 308 L 216 308 L 224 313 L 234 316 L 238 316 L 239 319 L 237 321 L 231 321 L 225 319 L 215 314 L 212 311 Z M 249 314 L 254 307 L 256 306 L 260 309 L 263 315 L 260 316 L 256 311 L 252 316 L 250 316 Z M 238 307 L 238 311 L 237 312 L 235 311 L 234 312 L 231 312 L 229 310 L 230 308 L 236 306 Z M 267 300 L 268 302 L 264 305 L 263 303 Z M 268 297 L 270 296 L 271 298 L 269 299 Z M 259 294 L 261 293 L 262 295 L 260 296 Z M 271 293 L 273 292 L 274 294 L 272 295 Z M 263 299 L 260 303 L 257 303 L 256 302 L 254 303 L 249 309 L 245 310 L 244 309 L 245 307 L 243 306 L 242 309 L 240 308 L 240 305 L 249 299 L 256 292 L 258 293 L 258 296 L 256 297 L 256 299 L 258 299 L 260 297 Z M 275 287 L 277 286 L 278 288 L 276 289 Z M 294 281 L 295 283 L 292 293 L 293 305 L 283 311 L 280 311 L 276 313 L 270 313 L 266 308 L 278 293 L 283 284 L 285 282 Z M 304 275 L 307 277 L 309 287 L 312 294 L 312 300 L 310 302 L 309 302 L 306 298 L 303 289 L 303 276 Z M 276 277 L 277 280 L 268 294 L 264 297 L 262 295 L 264 291 L 259 292 L 258 291 L 259 288 L 263 284 L 269 275 L 271 276 L 269 282 L 273 281 L 274 278 Z M 282 275 L 284 274 L 285 276 L 283 277 Z M 334 264 L 337 267 L 337 270 L 338 271 L 338 276 L 340 283 L 340 290 L 341 291 L 341 304 L 337 315 L 333 321 L 325 328 L 317 318 L 308 314 L 308 312 L 314 302 L 319 297 L 324 295 L 327 295 L 327 294 L 325 293 L 322 293 L 318 295 L 315 294 L 311 282 L 310 275 L 314 271 L 322 267 L 331 264 Z M 170 260 L 179 263 L 185 263 L 193 260 L 194 261 L 195 271 L 196 272 L 196 281 L 198 277 L 198 265 L 200 264 L 205 269 L 205 274 L 198 288 L 190 297 L 184 300 L 180 300 L 176 298 L 173 295 L 169 288 L 168 281 L 167 280 L 167 273 L 168 272 L 168 266 Z M 329 260 L 327 263 L 319 265 L 312 269 L 309 272 L 307 271 L 307 269 L 311 265 L 316 262 L 318 262 L 324 259 L 328 259 Z M 287 258 L 288 260 L 279 276 L 276 275 L 277 272 L 275 271 L 274 273 L 271 272 L 278 258 L 280 256 L 282 257 L 281 260 L 282 262 L 284 259 Z M 197 257 L 199 256 L 202 258 L 206 263 L 204 264 L 197 259 Z M 319 256 L 318 259 L 314 260 L 307 265 L 305 264 L 308 260 L 314 256 L 317 255 Z M 329 255 L 331 254 L 334 257 L 336 257 L 338 260 L 337 261 L 331 260 Z M 169 254 L 172 253 L 178 256 L 187 256 L 193 253 L 194 255 L 191 258 L 186 260 L 178 260 L 171 257 Z M 333 252 L 336 251 L 337 253 L 334 254 Z M 199 252 L 201 251 L 203 252 L 205 255 L 203 256 L 201 255 Z M 322 256 L 322 253 L 326 250 L 328 250 L 331 252 L 330 254 L 326 253 L 326 256 L 325 257 Z M 170 248 L 172 247 L 178 250 L 186 250 L 193 247 L 194 249 L 187 253 L 177 253 L 172 251 Z M 333 243 L 334 246 L 330 249 L 329 246 L 331 243 Z M 294 242 L 295 244 L 290 255 L 288 257 L 286 256 L 287 252 L 285 252 L 283 254 L 281 253 L 284 246 L 287 246 Z M 247 241 L 246 243 L 243 243 L 226 248 L 217 253 L 211 259 L 209 258 L 212 251 L 222 244 L 234 240 L 238 240 L 245 238 Z M 284 238 L 285 237 L 288 239 L 290 238 L 291 240 L 286 243 L 284 241 Z M 168 238 L 170 237 L 172 240 L 179 243 L 186 243 L 189 242 L 192 239 L 194 239 L 195 241 L 191 245 L 187 247 L 178 247 L 173 245 L 169 241 Z M 294 233 L 295 233 L 297 236 L 296 239 L 293 239 L 292 238 L 292 236 Z M 282 234 L 282 231 L 283 230 L 286 230 L 287 231 L 284 235 Z M 288 229 L 290 227 L 292 227 L 294 229 L 294 231 L 292 232 L 289 231 Z M 296 220 L 298 221 L 298 224 L 301 222 L 303 223 L 303 225 L 299 233 L 296 231 L 296 227 L 294 224 Z M 255 219 L 258 221 L 258 225 L 264 233 L 263 239 L 261 240 L 257 245 L 255 245 L 252 241 L 248 238 L 248 232 L 254 225 L 253 222 Z M 319 218 L 325 225 L 330 239 L 325 248 L 323 248 L 320 251 L 316 252 L 306 258 L 305 257 L 305 249 L 308 241 L 308 236 L 313 223 L 317 218 Z M 317 212 L 318 214 L 316 215 L 310 222 L 310 224 L 305 235 L 304 242 L 296 260 L 296 262 L 300 256 L 302 257 L 302 264 L 300 270 L 292 279 L 287 281 L 286 278 L 289 271 L 286 274 L 285 274 L 284 272 L 294 252 L 296 245 L 300 239 L 300 236 L 305 226 L 305 224 L 307 222 L 309 217 L 314 212 Z M 236 213 L 238 212 L 241 215 L 250 219 L 251 221 L 250 222 L 247 222 L 240 218 Z M 276 212 L 276 213 L 267 221 L 261 222 L 260 221 L 261 219 L 270 215 L 274 211 Z M 302 208 L 306 208 L 311 210 L 310 214 L 305 220 L 303 219 L 303 216 L 300 218 L 297 217 L 300 210 Z M 225 207 L 226 208 L 226 212 L 230 220 L 235 224 L 236 226 L 243 229 L 245 231 L 245 234 L 242 236 L 233 237 L 221 241 L 217 244 L 213 245 L 212 243 L 214 237 L 213 236 L 211 237 L 209 233 L 207 233 L 209 240 L 209 245 L 208 246 L 208 250 L 206 251 L 198 246 L 199 238 L 197 233 L 195 232 L 196 230 L 196 218 L 200 214 L 208 210 Z M 229 205 L 231 206 L 232 211 L 235 216 L 240 221 L 249 225 L 247 228 L 242 225 L 238 224 L 237 222 L 233 219 L 230 215 L 230 212 L 228 210 L 228 206 Z M 298 206 L 299 209 L 289 226 L 286 225 L 292 211 L 287 218 L 284 227 L 279 230 L 279 234 L 282 238 L 282 244 L 270 268 L 260 283 L 250 294 L 239 302 L 229 306 L 218 306 L 216 304 L 218 299 L 228 299 L 223 299 L 219 296 L 217 283 L 230 283 L 233 281 L 224 281 L 215 276 L 211 269 L 212 261 L 221 253 L 244 245 L 250 244 L 252 247 L 257 249 L 266 240 L 267 235 L 281 221 L 287 207 L 290 204 Z M 282 204 L 283 205 L 283 211 L 281 213 L 281 216 L 279 219 L 272 225 L 268 226 L 266 228 L 264 228 L 263 227 L 264 224 L 270 222 L 276 217 L 280 210 L 280 205 Z M 158 196 L 160 196 L 163 200 L 161 207 L 159 206 L 159 202 L 157 199 Z M 236 204 L 238 202 L 240 195 L 243 195 L 245 197 L 253 200 L 259 200 L 269 195 L 271 195 L 273 197 L 275 206 L 268 214 L 261 217 L 258 217 L 257 216 L 250 217 L 241 212 L 237 207 Z M 291 185 L 292 186 L 292 190 L 289 194 L 287 194 L 284 189 L 286 188 L 288 191 L 289 190 L 289 186 Z M 227 185 L 228 186 L 228 189 L 226 193 L 223 194 L 220 189 L 222 188 L 223 190 L 225 189 L 225 186 Z M 299 185 L 301 184 L 302 186 L 300 187 Z M 181 182 L 183 183 L 183 186 L 177 201 L 177 210 L 179 208 L 180 199 L 185 187 L 187 188 L 187 192 L 184 201 L 184 212 L 186 210 L 186 202 L 188 198 L 188 195 L 189 194 L 191 195 L 190 211 L 193 219 L 193 230 L 191 233 L 191 237 L 187 240 L 178 240 L 174 238 L 172 231 L 165 223 L 161 216 L 161 214 L 164 213 L 164 206 L 168 193 L 173 186 L 175 185 L 176 187 L 171 196 L 170 200 L 170 207 L 169 208 L 171 209 L 174 195 Z M 222 175 L 224 174 L 225 176 L 223 177 Z M 212 166 L 214 165 L 215 167 L 213 168 Z M 299 158 L 301 157 L 302 159 L 300 160 Z M 301 152 L 303 153 L 303 156 L 302 157 L 300 156 L 300 153 Z M 209 152 L 212 153 L 212 157 L 211 158 L 209 157 L 208 154 Z M 294 150 L 297 154 L 296 161 L 292 170 L 289 172 L 287 170 L 287 168 L 290 166 L 291 164 L 291 157 L 294 155 L 291 151 Z M 217 150 L 220 150 L 221 151 L 218 155 L 221 157 L 220 160 L 221 165 L 225 167 L 225 170 L 224 171 L 221 171 L 217 164 L 215 158 L 215 153 Z M 297 143 L 299 144 L 299 147 L 298 148 L 295 146 Z M 212 145 L 215 143 L 217 146 L 214 148 Z M 306 139 L 307 142 L 305 146 L 302 148 L 301 146 L 303 144 L 301 141 L 304 139 Z M 206 139 L 208 139 L 211 141 L 209 144 L 210 145 L 209 147 L 208 147 L 205 143 L 205 140 Z M 298 133 L 299 136 L 295 141 L 295 143 L 293 144 L 292 143 L 293 138 L 295 134 Z M 213 133 L 215 133 L 217 135 L 220 142 L 219 145 L 217 144 L 215 138 L 212 135 Z M 243 126 L 252 126 L 255 128 L 257 128 L 260 126 L 269 126 L 275 129 L 282 136 L 287 149 L 286 166 L 280 181 L 277 185 L 269 192 L 262 196 L 259 196 L 258 197 L 250 196 L 240 190 L 232 181 L 228 173 L 228 170 L 226 166 L 225 149 L 227 142 L 230 136 L 238 128 L 240 128 Z M 203 126 L 204 125 L 208 126 L 213 131 L 213 133 L 211 134 L 208 131 L 209 135 L 207 136 L 204 132 Z M 308 124 L 309 127 L 306 135 L 305 136 L 303 135 L 304 132 L 302 132 L 299 134 L 298 133 L 299 130 L 305 125 Z M 222 131 L 225 126 L 230 121 L 237 117 L 244 115 L 252 115 L 255 117 L 257 117 L 260 115 L 268 115 L 275 117 L 283 122 L 289 129 L 291 135 L 289 136 L 286 130 L 279 123 L 269 119 L 260 119 L 259 120 L 243 119 L 242 120 L 239 120 L 232 124 L 226 130 L 224 134 L 222 133 Z M 254 114 L 257 113 L 258 115 L 255 116 Z M 262 108 L 263 107 L 265 108 L 270 108 L 282 113 L 291 121 L 295 128 L 295 130 L 293 131 L 289 125 L 280 117 L 273 114 L 264 113 Z M 250 108 L 248 113 L 239 114 L 230 118 L 222 126 L 219 131 L 217 130 L 217 128 L 220 122 L 228 114 L 238 109 L 247 108 L 248 107 Z M 277 107 L 279 106 L 285 108 L 292 116 L 290 117 L 285 112 L 278 109 Z M 252 108 L 257 104 L 260 109 L 258 110 L 256 108 L 253 110 Z M 267 104 L 268 103 L 273 103 L 275 104 L 277 107 L 276 108 L 268 106 Z M 245 104 L 244 106 L 241 106 L 232 109 L 227 112 L 221 118 L 219 117 L 225 109 L 234 106 L 238 103 L 244 103 Z M 270 97 L 271 96 L 277 97 L 284 101 L 286 104 L 284 105 L 273 100 L 271 100 Z M 242 97 L 241 100 L 238 100 L 233 103 L 229 104 L 227 106 L 225 105 L 228 101 L 238 96 L 241 96 Z M 257 91 L 260 95 L 260 98 L 258 100 L 254 101 L 252 98 L 252 96 L 254 92 Z M 234 93 L 236 90 L 242 89 L 243 90 L 242 92 L 236 94 Z M 268 89 L 270 88 L 276 90 L 278 93 L 276 94 L 270 92 Z M 265 83 L 268 82 L 273 84 L 274 86 L 273 87 L 267 86 Z M 239 86 L 240 84 L 244 82 L 247 82 L 248 84 L 242 87 Z M 255 78 L 258 79 L 263 87 L 263 91 L 265 91 L 267 95 L 266 100 L 262 104 L 260 103 L 262 99 L 262 94 L 257 85 L 255 86 L 250 94 L 250 99 L 252 103 L 249 104 L 245 98 L 246 92 L 249 91 L 249 87 Z M 258 72 L 259 71 L 262 71 L 266 73 L 269 76 L 269 78 L 268 79 L 261 78 L 258 74 Z M 254 72 L 254 74 L 251 78 L 247 78 L 246 79 L 243 78 L 243 76 L 246 73 L 251 71 Z M 250 66 L 252 64 L 261 64 L 263 67 L 262 68 L 251 68 Z M 256 48 L 258 49 L 258 51 L 260 54 L 260 59 L 257 62 L 255 62 L 252 58 L 253 53 Z" fill="currentColor" fill-rule="evenodd"/>
</svg>
