<svg xmlns="http://www.w3.org/2000/svg" viewBox="0 0 512 512" >
  <path d="M 196 157 L 173 176 L 165 199 L 165 392 L 168 401 L 182 410 L 331 410 L 339 407 L 347 396 L 347 193 L 343 181 L 328 164 L 317 157 L 275 143 L 237 143 Z M 199 161 L 237 148 L 276 148 L 314 161 L 329 171 L 338 182 L 343 203 L 343 390 L 341 398 L 336 403 L 181 405 L 172 398 L 170 198 L 179 176 Z M 191 150 L 167 170 L 157 199 L 157 397 L 160 406 L 176 418 L 337 418 L 345 415 L 353 407 L 357 396 L 357 201 L 349 173 L 323 150 L 301 140 L 276 134 L 232 135 Z M 197 150 L 238 137 L 283 138 L 324 154 L 348 177 L 354 198 L 354 396 L 344 412 L 331 416 L 183 416 L 171 413 L 163 405 L 160 398 L 160 197 L 170 171 Z M 251 71 L 246 74 L 241 81 L 241 84 L 240 85 L 241 93 L 243 97 L 251 103 L 262 103 L 266 101 L 272 94 L 273 91 L 273 83 L 272 80 L 266 73 L 259 70 Z M 258 75 L 263 77 L 268 83 L 268 91 L 267 93 L 263 97 L 259 99 L 255 99 L 250 97 L 245 90 L 245 85 L 247 80 L 252 76 Z M 254 50 L 236 56 L 225 66 L 217 84 L 217 103 L 198 115 L 195 129 L 162 147 L 144 170 L 139 187 L 139 220 L 128 228 L 128 316 L 139 324 L 139 405 L 152 427 L 175 438 L 213 438 L 217 451 L 226 456 L 281 457 L 293 454 L 300 438 L 348 435 L 371 413 L 374 323 L 385 316 L 385 227 L 374 220 L 373 182 L 364 161 L 346 143 L 318 129 L 315 115 L 297 104 L 295 79 L 286 63 L 272 53 Z M 234 450 L 235 449 L 278 449 L 279 451 L 278 452 L 235 452 Z M 293 438 L 294 439 L 294 445 L 290 450 L 285 451 L 284 450 L 284 447 L 287 443 L 287 439 L 288 438 Z M 221 438 L 225 438 L 226 439 L 227 444 L 230 448 L 229 450 L 226 451 L 221 448 L 220 446 L 220 439 Z M 231 434 L 234 432 L 280 432 L 282 434 L 282 442 L 279 445 L 235 445 L 233 444 L 231 441 Z M 369 290 L 379 290 L 380 291 L 380 315 L 376 318 L 370 317 L 368 314 L 368 291 Z M 144 290 L 145 291 L 145 314 L 143 317 L 137 318 L 133 315 L 133 292 L 134 291 Z M 374 258 L 379 258 L 380 259 L 380 284 L 379 285 L 374 285 L 373 284 L 373 259 Z M 134 258 L 139 258 L 140 259 L 140 284 L 137 286 L 134 286 L 133 285 L 133 259 Z M 371 226 L 378 226 L 380 228 L 380 252 L 379 253 L 369 253 L 368 252 L 368 230 Z M 136 226 L 142 226 L 145 230 L 145 253 L 144 254 L 134 254 L 133 253 L 133 229 Z M 248 56 L 265 56 L 282 66 L 291 83 L 293 107 L 310 116 L 314 133 L 347 150 L 362 167 L 368 182 L 369 221 L 364 227 L 368 285 L 363 289 L 363 314 L 369 322 L 369 402 L 363 417 L 338 433 L 288 433 L 286 428 L 176 433 L 156 424 L 144 405 L 143 325 L 150 314 L 150 289 L 145 285 L 145 259 L 150 255 L 150 230 L 143 217 L 145 182 L 153 164 L 165 151 L 202 131 L 202 118 L 222 104 L 222 85 L 228 70 Z" fill="currentColor" fill-rule="evenodd"/>
</svg>
