<svg xmlns="http://www.w3.org/2000/svg" viewBox="0 0 512 512" >
  <path d="M 247 141 L 253 144 L 259 144 L 265 141 L 262 141 L 261 142 L 251 142 L 250 141 Z M 240 102 L 241 104 L 245 106 L 251 105 L 251 103 L 245 104 Z M 255 92 L 254 95 L 257 96 L 258 93 Z M 257 37 L 227 83 L 230 129 L 238 135 L 206 147 L 196 162 L 194 227 L 184 292 L 186 316 L 195 327 L 205 323 L 209 302 L 213 304 L 218 375 L 210 435 L 227 445 L 216 463 L 238 470 L 250 462 L 253 445 L 258 446 L 265 468 L 288 467 L 295 459 L 285 447 L 303 437 L 295 381 L 301 267 L 307 323 L 317 327 L 328 308 L 315 159 L 304 145 L 279 135 L 285 84 Z M 282 462 L 284 461 L 285 463 L 283 464 Z M 246 440 L 248 442 L 248 446 L 249 447 L 249 454 L 247 460 L 243 465 L 238 466 L 236 464 L 239 458 L 238 458 L 234 462 L 234 464 L 231 465 L 230 463 L 233 458 L 230 459 L 229 457 L 226 458 L 225 457 L 225 454 L 235 442 L 239 440 Z M 265 439 L 271 439 L 277 443 L 279 447 L 285 454 L 284 457 L 281 457 L 280 458 L 277 457 L 280 462 L 279 465 L 277 464 L 276 461 L 273 458 L 272 458 L 272 460 L 274 462 L 274 464 L 272 466 L 269 466 L 264 460 L 262 455 L 262 441 Z M 258 416 L 257 436 L 255 441 L 246 436 L 239 436 L 231 440 L 225 440 L 224 439 L 224 436 L 226 434 L 240 428 L 249 421 L 252 422 L 252 432 L 254 425 L 254 417 L 256 415 Z M 270 399 L 271 400 L 271 412 L 272 413 L 273 434 L 272 435 L 261 436 L 260 435 L 261 411 L 266 402 Z M 290 364 L 291 365 L 292 406 L 293 407 L 293 415 L 298 433 L 298 437 L 293 441 L 286 442 L 278 439 L 276 434 L 275 410 L 274 409 L 274 392 L 277 389 L 279 390 L 280 418 L 281 419 L 281 424 L 282 424 L 283 383 L 288 375 L 288 365 Z M 272 359 L 279 365 L 284 371 L 284 376 L 283 378 L 269 391 L 268 390 L 269 365 L 270 364 L 270 360 Z M 290 320 L 291 323 L 290 324 L 290 330 L 288 337 L 286 365 L 284 366 L 272 354 L 269 347 L 272 340 L 287 322 Z M 311 316 L 313 315 L 314 318 L 312 319 Z M 198 316 L 200 315 L 201 318 L 199 319 Z M 316 314 L 318 313 L 319 315 L 317 316 Z M 193 307 L 195 308 L 195 312 L 194 313 L 192 312 L 192 308 Z M 273 287 L 283 293 L 290 299 L 292 302 L 292 310 L 283 323 L 277 329 L 272 336 L 269 338 L 268 337 L 268 333 L 269 332 L 270 294 L 271 293 L 271 288 Z M 208 273 L 210 274 L 210 281 L 211 282 L 210 285 L 208 284 L 208 282 L 206 279 Z M 266 205 L 266 221 L 252 249 L 239 260 L 224 259 L 229 263 L 244 260 L 267 233 L 258 269 L 232 300 L 250 287 L 265 262 L 259 289 L 246 315 L 232 330 L 248 316 L 267 279 L 265 313 L 247 353 L 240 360 L 232 359 L 242 361 L 265 326 L 264 344 L 245 390 L 233 404 L 225 403 L 232 407 L 245 395 L 266 351 L 264 400 L 244 421 L 216 432 L 223 370 L 227 376 L 221 343 L 227 347 L 215 290 L 216 245 L 220 234 L 235 236 L 248 229 Z M 268 175 L 269 176 L 269 179 L 268 180 L 268 190 L 263 204 L 253 220 L 246 227 L 238 232 L 235 233 L 226 233 L 222 230 L 222 224 L 224 220 L 224 216 L 225 215 L 233 215 L 243 210 L 257 195 L 265 180 L 266 176 Z M 271 156 L 272 158 L 270 164 L 270 170 L 267 172 L 261 185 L 250 200 L 241 208 L 233 212 L 227 212 L 225 210 L 224 201 L 225 200 L 230 200 L 238 196 L 242 193 L 243 191 L 231 197 L 225 197 L 222 194 L 222 192 L 223 191 L 228 191 L 234 189 L 246 182 L 261 168 L 268 158 Z M 295 146 L 307 153 L 313 168 L 314 226 L 324 303 L 321 304 L 319 312 L 316 305 L 314 315 L 313 294 L 310 298 L 310 309 L 307 309 L 306 289 L 310 278 L 298 237 L 300 229 L 307 224 L 304 220 L 308 212 L 299 225 L 296 225 L 306 183 L 305 180 L 296 203 L 299 162 L 291 198 L 291 224 L 296 255 L 295 296 L 272 281 L 272 277 L 290 261 L 288 191 Z M 282 140 L 289 142 L 291 144 L 291 153 L 290 154 L 290 159 L 288 166 L 288 172 L 286 180 L 286 192 L 285 193 L 285 234 L 286 235 L 287 260 L 284 264 L 271 272 L 270 271 L 270 192 L 271 191 L 271 179 L 272 178 L 272 171 L 273 170 L 273 164 L 276 152 L 277 141 L 278 140 Z M 268 131 L 273 144 L 262 162 L 245 179 L 233 186 L 223 187 L 217 180 L 214 168 L 212 170 L 218 197 L 213 238 L 202 277 L 206 289 L 205 307 L 202 307 L 202 299 L 199 294 L 200 314 L 198 315 L 196 305 L 192 307 L 188 303 L 188 292 L 192 279 L 194 243 L 198 228 L 198 178 L 201 160 L 209 150 L 240 139 L 244 131 L 252 134 L 252 137 L 248 136 L 252 139 L 262 138 L 264 136 L 259 137 L 258 135 Z M 277 117 L 279 118 L 279 128 L 278 129 L 276 128 L 276 118 Z M 234 117 L 236 118 L 236 128 L 235 129 L 233 128 L 233 118 Z M 282 102 L 283 105 L 281 111 L 279 112 L 278 111 L 278 107 L 279 104 Z M 230 102 L 232 103 L 234 107 L 234 111 L 233 112 L 231 111 L 229 105 Z M 243 83 L 248 83 L 254 85 L 269 83 L 275 89 L 276 97 L 274 98 L 269 94 L 262 95 L 258 99 L 257 102 L 258 114 L 255 115 L 252 112 L 250 114 L 253 118 L 249 121 L 253 125 L 259 125 L 263 120 L 261 120 L 259 118 L 261 115 L 261 112 L 258 111 L 258 106 L 259 105 L 267 106 L 272 103 L 272 102 L 265 104 L 260 103 L 259 101 L 265 96 L 269 96 L 276 100 L 276 110 L 274 118 L 271 124 L 264 130 L 260 131 L 248 130 L 241 124 L 238 118 L 236 110 L 236 100 L 237 99 L 239 99 L 243 96 L 246 96 L 251 98 L 254 103 L 253 98 L 248 94 L 243 94 L 238 98 L 236 97 L 237 89 Z M 248 74 L 250 73 L 251 75 L 249 76 Z M 254 64 L 256 63 L 257 65 L 255 66 Z M 254 47 L 256 46 L 257 48 L 255 49 Z" fill="currentColor" fill-rule="evenodd"/>
</svg>
