<svg xmlns="http://www.w3.org/2000/svg" viewBox="0 0 512 512" >
  <path d="M 244 209 L 246 212 L 251 212 L 253 210 L 252 209 L 249 210 Z M 268 202 L 263 202 L 260 205 L 258 211 L 258 219 L 257 220 L 253 219 L 255 223 L 254 224 L 251 224 L 251 225 L 254 227 L 254 229 L 257 230 L 259 229 L 262 225 L 262 224 L 259 224 L 258 223 L 261 219 L 260 218 L 260 213 L 261 212 L 267 212 L 270 209 L 264 210 L 262 209 L 261 207 L 264 204 L 267 204 L 271 206 Z M 242 205 L 243 206 L 246 204 L 249 204 L 253 207 L 253 204 L 250 202 L 245 202 Z M 220 130 L 202 141 L 186 157 L 173 179 L 166 201 L 161 251 L 159 433 L 163 438 L 350 438 L 354 434 L 352 234 L 347 198 L 340 177 L 327 156 L 312 141 L 292 129 L 254 122 Z M 167 431 L 171 416 L 174 413 L 339 413 L 343 418 L 346 430 L 345 433 L 168 433 Z M 176 394 L 177 388 L 181 384 L 332 384 L 336 388 L 337 399 L 335 402 L 178 402 Z M 330 360 L 330 371 L 328 373 L 185 373 L 184 372 L 184 360 L 187 357 L 302 357 L 303 356 L 325 356 L 328 357 Z M 256 327 L 258 326 L 259 328 L 257 329 Z M 259 326 L 261 325 L 262 327 L 260 328 Z M 324 334 L 324 340 L 319 347 L 307 351 L 239 352 L 238 350 L 258 346 L 286 334 L 301 331 L 301 329 L 279 333 L 258 342 L 236 348 L 233 352 L 228 352 L 226 350 L 200 350 L 193 347 L 189 341 L 189 334 L 195 327 L 210 322 L 215 322 L 221 326 L 220 328 L 216 329 L 240 333 L 260 333 L 266 329 L 282 327 L 299 320 L 316 325 Z M 230 289 L 232 292 L 232 302 L 231 305 L 228 307 L 226 305 L 226 299 L 228 294 L 228 290 Z M 283 286 L 285 287 L 285 291 L 287 297 L 287 300 L 284 303 L 281 302 L 281 290 Z M 281 244 L 292 248 L 299 257 L 304 291 L 303 309 L 297 315 L 286 321 L 265 326 L 263 325 L 265 318 L 276 318 L 291 301 L 286 274 L 287 262 L 277 290 L 278 309 L 273 314 L 257 316 L 235 314 L 233 312 L 236 303 L 234 283 L 242 281 L 250 276 L 266 257 L 267 259 L 263 266 L 258 286 L 258 305 L 260 310 L 263 274 L 270 258 Z M 272 245 L 274 244 L 275 246 L 273 247 Z M 265 237 L 270 242 L 266 251 L 253 269 L 245 276 L 238 279 L 233 278 L 229 267 L 226 264 L 227 277 L 221 305 L 225 311 L 235 319 L 246 318 L 247 320 L 245 322 L 248 323 L 250 326 L 248 328 L 242 328 L 225 323 L 216 318 L 210 312 L 208 307 L 211 275 L 215 256 L 218 251 L 222 248 L 229 245 L 243 242 L 248 237 L 251 238 Z M 270 234 L 272 233 L 274 236 L 271 237 Z M 280 206 L 281 209 L 280 212 L 278 213 L 277 212 L 277 208 Z M 232 207 L 234 206 L 235 208 L 233 209 Z M 246 192 L 254 192 L 255 193 L 268 192 L 273 198 L 274 201 L 274 215 L 273 216 L 273 220 L 270 227 L 262 234 L 254 235 L 249 233 L 244 228 L 240 220 L 240 216 L 239 215 L 239 202 L 241 196 Z M 237 191 L 239 190 L 240 192 L 238 193 Z M 241 189 L 243 186 L 245 187 L 243 190 Z M 268 186 L 270 185 L 272 187 L 272 189 L 270 190 L 268 188 Z M 261 185 L 264 184 L 266 187 L 263 188 Z M 256 184 L 259 186 L 259 188 L 257 190 L 254 188 L 254 186 Z M 248 185 L 251 184 L 252 185 L 252 188 L 249 189 L 248 188 Z M 258 180 L 261 179 L 262 181 L 259 182 Z M 251 180 L 252 179 L 255 179 L 256 181 L 253 183 Z M 256 157 L 257 157 L 260 163 L 259 166 L 254 166 L 253 165 L 254 160 Z M 221 135 L 251 127 L 288 133 L 310 146 L 336 180 L 348 254 L 348 416 L 337 407 L 341 389 L 331 378 L 334 358 L 323 351 L 327 329 L 304 316 L 309 306 L 304 257 L 297 246 L 276 238 L 285 206 L 258 148 L 234 186 L 229 204 L 233 233 L 243 236 L 218 245 L 210 256 L 204 296 L 208 317 L 185 332 L 190 351 L 180 358 L 183 378 L 172 388 L 176 407 L 164 415 L 170 206 L 187 164 Z M 249 56 L 232 68 L 227 79 L 227 92 L 234 106 L 210 115 L 184 133 L 164 158 L 151 189 L 144 241 L 142 440 L 151 453 L 159 456 L 356 456 L 368 448 L 372 438 L 370 243 L 363 188 L 349 156 L 328 131 L 308 117 L 280 106 L 286 96 L 287 79 L 279 64 L 265 56 Z M 211 120 L 243 110 L 271 110 L 294 116 L 326 136 L 352 172 L 361 202 L 365 248 L 367 435 L 358 450 L 159 451 L 147 440 L 149 241 L 153 202 L 161 175 L 173 153 L 187 137 Z M 254 75 L 261 75 L 263 76 L 268 82 L 268 90 L 267 92 L 261 97 L 253 97 L 251 96 L 246 90 L 246 83 L 248 79 Z M 242 65 L 250 61 L 259 60 L 269 63 L 278 71 L 282 80 L 282 91 L 279 99 L 273 105 L 260 105 L 259 104 L 260 102 L 267 99 L 270 96 L 273 90 L 273 82 L 271 77 L 266 72 L 262 70 L 253 70 L 250 71 L 244 76 L 241 82 L 241 90 L 244 96 L 250 101 L 254 102 L 255 104 L 254 105 L 244 105 L 242 106 L 235 99 L 232 91 L 232 81 L 235 73 Z" fill="currentColor" fill-rule="evenodd"/>
</svg>
