<svg xmlns="http://www.w3.org/2000/svg" viewBox="0 0 512 512" >
  <path d="M 283 402 L 283 417 L 284 418 L 285 427 L 288 435 L 292 441 L 295 443 L 292 439 L 287 427 L 286 418 L 285 417 L 284 402 Z M 260 381 L 253 396 L 245 409 L 235 421 L 227 428 L 233 425 L 246 411 L 256 393 Z M 273 98 L 267 100 L 262 99 L 261 101 L 267 102 L 273 99 Z M 255 87 L 254 91 L 256 92 L 257 91 L 257 88 Z M 256 35 L 225 78 L 224 101 L 229 127 L 236 132 L 208 143 L 199 153 L 186 213 L 192 233 L 213 232 L 207 278 L 220 375 L 220 412 L 210 449 L 218 453 L 218 462 L 240 468 L 249 466 L 256 453 L 266 468 L 284 466 L 295 460 L 294 452 L 305 447 L 297 429 L 295 387 L 309 372 L 309 345 L 315 338 L 316 282 L 327 221 L 323 184 L 313 151 L 304 142 L 279 131 L 288 99 L 286 76 Z M 285 458 L 287 457 L 288 459 L 286 460 Z M 226 444 L 222 449 L 219 449 L 218 448 L 219 446 L 224 443 Z M 258 442 L 266 438 L 275 438 L 279 440 L 288 452 L 287 454 L 285 454 L 286 455 L 285 457 L 281 455 L 284 460 L 284 462 L 282 463 L 277 455 L 276 455 L 279 461 L 279 463 L 276 464 L 275 461 L 270 455 L 270 457 L 273 463 L 271 465 L 267 465 L 261 457 L 260 450 L 258 447 Z M 249 435 L 253 440 L 254 446 L 252 450 L 251 456 L 248 460 L 248 462 L 245 465 L 241 465 L 239 463 L 242 457 L 242 455 L 238 459 L 236 464 L 233 463 L 233 461 L 236 455 L 233 457 L 230 463 L 228 462 L 228 460 L 231 455 L 225 460 L 224 458 L 226 454 L 224 456 L 223 456 L 222 454 L 226 450 L 232 441 L 235 438 L 240 438 Z M 267 410 L 269 408 L 271 408 L 272 409 L 272 412 L 270 413 L 268 412 Z M 290 390 L 292 391 L 292 413 L 293 414 L 294 430 L 298 442 L 301 446 L 300 448 L 297 448 L 296 449 L 293 449 L 289 447 L 280 437 L 273 434 L 272 435 L 270 434 L 265 435 L 259 438 L 256 438 L 253 436 L 253 433 L 258 428 L 273 419 L 274 416 L 274 406 L 284 398 Z M 298 359 L 305 368 L 305 373 L 304 375 L 296 382 L 295 381 L 295 366 L 296 365 L 296 360 Z M 303 347 L 306 348 L 306 360 L 304 361 L 298 354 L 298 351 Z M 297 324 L 299 324 L 307 331 L 311 336 L 311 339 L 309 341 L 298 347 L 296 346 L 296 325 Z M 288 309 L 293 317 L 293 362 L 292 363 L 291 378 L 288 387 L 285 392 L 277 400 L 270 404 L 269 403 L 269 400 L 275 383 L 275 380 L 278 371 L 278 366 L 280 360 L 281 350 L 282 349 L 283 335 L 284 334 L 284 328 L 285 327 L 286 310 Z M 289 277 L 292 278 L 301 286 L 297 292 L 291 298 L 289 297 L 289 285 L 288 284 L 288 278 Z M 283 269 L 285 271 L 286 293 L 281 341 L 273 383 L 264 409 L 264 412 L 270 417 L 258 424 L 250 431 L 231 436 L 220 444 L 216 445 L 215 443 L 220 431 L 223 414 L 223 385 L 225 384 L 229 389 L 237 390 L 244 386 L 254 373 L 261 359 L 270 333 L 278 298 L 281 270 Z M 279 236 L 281 242 L 281 260 L 279 278 L 272 317 L 267 336 L 258 361 L 249 377 L 239 387 L 232 388 L 227 384 L 224 378 L 220 361 L 219 350 L 221 349 L 224 352 L 228 353 L 234 351 L 243 343 L 252 329 L 266 292 L 277 243 L 277 237 Z M 282 216 L 285 218 L 283 222 L 281 221 L 281 217 Z M 277 213 L 278 214 L 278 224 L 273 254 L 264 292 L 258 310 L 248 332 L 242 341 L 235 348 L 227 351 L 221 346 L 214 306 L 214 299 L 215 298 L 222 299 L 231 296 L 238 291 L 248 280 L 256 268 L 264 252 L 270 236 L 275 214 Z M 273 206 L 274 207 L 274 213 L 273 214 L 271 226 L 267 236 L 267 239 L 265 242 L 261 254 L 250 274 L 243 283 L 237 289 L 230 294 L 222 297 L 219 297 L 214 295 L 212 291 L 211 277 L 210 276 L 211 257 L 212 256 L 224 257 L 230 255 L 238 251 L 246 245 L 258 232 L 265 221 L 271 209 L 271 207 Z M 270 205 L 263 221 L 253 235 L 244 244 L 234 251 L 224 255 L 215 255 L 212 252 L 213 240 L 218 230 L 230 230 L 236 228 L 252 218 L 259 211 L 265 203 L 267 203 Z M 263 202 L 259 208 L 251 216 L 241 223 L 229 228 L 220 228 L 219 227 L 219 225 L 241 204 L 250 202 L 255 199 L 259 199 Z M 289 194 L 291 194 L 295 197 L 298 207 L 298 216 L 299 217 L 299 244 L 300 245 L 300 266 L 301 267 L 301 279 L 300 280 L 295 277 L 287 269 L 285 264 L 285 259 L 284 258 L 286 230 L 287 229 L 287 221 L 288 220 L 288 209 L 289 208 L 289 199 L 288 198 L 288 195 Z M 244 167 L 247 168 L 260 177 L 261 177 L 261 176 L 249 167 L 250 165 L 255 167 L 271 177 L 271 176 L 262 168 L 262 167 L 264 166 L 273 174 L 276 178 L 280 188 L 285 193 L 286 207 L 284 212 L 273 202 L 271 202 L 259 196 L 243 181 L 243 180 L 245 179 L 255 187 L 255 186 L 242 174 L 242 173 L 244 172 L 251 178 L 258 182 L 255 178 L 243 169 Z M 294 141 L 303 145 L 312 156 L 319 180 L 324 210 L 324 220 L 320 234 L 314 237 L 308 229 L 312 238 L 318 240 L 312 294 L 311 330 L 296 317 L 292 309 L 293 301 L 304 288 L 301 216 L 298 200 L 306 201 L 319 209 L 312 201 L 301 195 L 308 186 L 310 178 L 305 187 L 299 193 L 296 192 L 299 172 L 298 164 L 294 190 L 291 191 L 288 188 Z M 287 138 L 289 139 L 291 142 L 291 157 L 290 158 L 290 168 L 289 169 L 288 180 L 286 187 L 284 188 L 278 176 L 278 173 L 279 172 L 281 157 L 282 156 L 283 139 L 284 138 Z M 279 136 L 281 140 L 280 156 L 279 157 L 279 162 L 278 163 L 277 171 L 275 172 L 270 168 L 264 161 L 274 146 L 277 137 Z M 274 130 L 276 129 L 277 131 L 275 132 Z M 269 127 L 274 138 L 263 158 L 257 165 L 251 162 L 242 164 L 239 170 L 239 177 L 232 186 L 224 192 L 220 191 L 215 164 L 214 176 L 217 188 L 216 195 L 203 203 L 196 212 L 205 205 L 231 191 L 239 181 L 253 194 L 253 197 L 237 203 L 212 227 L 200 232 L 195 231 L 190 224 L 190 206 L 197 168 L 204 151 L 215 143 L 237 136 L 242 128 L 258 132 Z M 233 113 L 235 114 L 236 117 L 236 124 L 234 127 L 232 126 L 232 114 Z M 278 112 L 280 113 L 280 117 L 279 118 L 280 125 L 279 126 L 277 126 L 275 122 L 275 119 Z M 229 100 L 232 101 L 232 104 L 233 105 L 233 108 L 232 109 L 230 108 L 228 102 Z M 283 99 L 284 100 L 282 106 L 280 107 L 279 106 L 279 101 Z M 232 82 L 234 81 L 235 83 L 233 84 Z M 268 79 L 271 80 L 276 86 L 276 92 L 274 93 L 270 90 L 264 90 L 258 96 L 264 92 L 271 92 L 274 94 L 275 93 L 277 94 L 276 96 L 277 104 L 274 116 L 271 121 L 262 128 L 253 129 L 247 127 L 238 117 L 234 102 L 236 94 L 241 92 L 248 92 L 253 98 L 252 100 L 250 99 L 245 100 L 240 98 L 239 99 L 244 102 L 248 101 L 253 102 L 253 107 L 250 110 L 254 114 L 252 116 L 249 116 L 253 121 L 259 121 L 260 118 L 263 116 L 260 116 L 257 114 L 258 112 L 261 111 L 260 108 L 259 108 L 260 109 L 259 111 L 254 110 L 255 101 L 253 94 L 248 90 L 241 90 L 236 94 L 235 93 L 236 85 L 240 80 L 249 80 L 257 82 Z M 280 78 L 282 77 L 283 79 L 281 80 Z M 254 78 L 256 77 L 257 79 L 255 80 Z M 235 78 L 237 77 L 238 79 L 236 80 Z M 259 76 L 261 75 L 262 77 L 260 78 Z M 249 76 L 251 75 L 252 77 L 250 78 Z M 264 75 L 266 74 L 267 76 L 265 77 Z M 254 72 L 257 71 L 258 73 L 255 74 Z M 236 72 L 238 71 L 239 73 L 237 74 Z M 231 72 L 233 71 L 234 73 L 232 74 Z M 261 71 L 263 70 L 264 72 L 262 73 Z M 248 71 L 250 70 L 251 72 L 249 73 Z M 242 70 L 244 69 L 245 71 L 243 72 Z M 269 66 L 271 65 L 272 67 L 270 68 Z M 251 66 L 253 65 L 254 67 L 252 68 Z M 245 66 L 247 65 L 248 67 L 246 68 Z M 239 66 L 241 65 L 242 67 L 240 68 Z M 266 61 L 268 60 L 269 62 L 267 63 Z M 260 61 L 262 60 L 263 62 L 261 63 Z M 248 61 L 250 60 L 251 62 L 249 63 Z M 263 56 L 265 55 L 266 57 L 264 58 Z M 254 56 L 256 55 L 257 57 L 255 58 Z M 255 41 L 256 41 L 262 48 L 262 51 L 260 53 L 257 53 L 256 52 L 251 53 L 249 50 L 250 47 Z" fill="currentColor" fill-rule="evenodd"/>
</svg>
