<svg xmlns="http://www.w3.org/2000/svg" viewBox="0 0 512 512" >
  <path d="M 260 236 L 257 238 L 253 237 L 256 241 L 255 242 L 252 241 L 251 242 L 254 246 L 256 247 L 259 246 L 260 244 L 262 243 L 262 241 L 260 242 L 258 241 L 258 240 L 260 239 Z M 258 172 L 254 174 L 244 199 L 234 209 L 229 225 L 236 254 L 218 261 L 210 274 L 205 307 L 208 327 L 187 335 L 181 344 L 184 359 L 176 365 L 168 366 L 170 382 L 175 391 L 161 402 L 157 411 L 159 418 L 356 416 L 352 402 L 338 391 L 344 379 L 345 366 L 337 365 L 330 359 L 333 351 L 330 339 L 319 331 L 305 327 L 309 319 L 303 271 L 293 259 L 277 254 L 284 224 L 280 219 L 279 209 L 264 189 Z M 162 410 L 169 400 L 344 400 L 348 404 L 351 412 L 350 413 L 163 413 Z M 178 394 L 180 393 L 181 395 L 179 396 Z M 305 375 L 307 374 L 308 376 L 306 377 Z M 272 375 L 276 374 L 278 375 L 279 377 L 276 381 L 274 381 L 271 377 Z M 237 374 L 239 374 L 242 376 L 239 381 L 237 381 L 234 377 L 234 376 Z M 205 375 L 207 374 L 208 376 L 206 377 Z M 300 375 L 303 381 L 303 388 L 297 395 L 294 396 L 284 396 L 283 395 L 286 386 L 292 381 L 292 380 L 288 381 L 282 387 L 281 391 L 278 395 L 276 394 L 277 386 L 284 378 L 297 373 Z M 241 385 L 248 377 L 257 373 L 265 377 L 271 383 L 273 391 L 272 393 L 269 395 L 268 394 L 268 388 L 266 384 L 263 381 L 260 380 L 265 387 L 265 393 L 262 396 L 251 396 L 248 393 L 249 385 L 253 381 L 253 380 L 251 380 L 247 384 L 245 388 L 245 393 L 246 395 L 244 396 L 241 393 Z M 212 376 L 215 373 L 217 373 L 229 378 L 235 384 L 237 390 L 237 394 L 235 395 L 233 393 L 231 387 L 225 381 L 222 380 L 227 386 L 230 392 L 230 395 L 229 396 L 219 396 L 216 395 L 210 388 L 210 381 Z M 328 374 L 329 383 L 327 388 L 323 392 L 318 394 L 313 394 L 312 393 L 312 391 L 317 381 L 313 384 L 310 390 L 307 393 L 305 392 L 307 387 L 307 383 L 311 378 L 324 372 L 326 372 Z M 185 374 L 187 372 L 195 374 L 203 379 L 206 383 L 206 387 L 208 392 L 206 393 L 197 381 L 196 381 L 201 393 L 200 394 L 195 394 L 190 392 L 186 388 L 184 383 Z M 339 369 L 340 370 L 340 378 L 337 385 L 332 389 L 331 388 L 333 382 L 332 373 L 334 371 Z M 174 369 L 179 371 L 181 373 L 181 377 L 180 378 L 181 386 L 182 387 L 181 389 L 176 385 L 173 378 L 173 370 Z M 258 368 L 259 367 L 295 367 L 296 369 L 283 374 L 275 370 L 269 373 L 265 373 L 259 370 Z M 215 367 L 216 366 L 221 366 L 222 367 L 254 367 L 255 369 L 248 373 L 244 373 L 238 370 L 233 372 L 231 374 L 229 374 L 226 372 L 216 369 Z M 332 366 L 331 369 L 328 367 L 325 367 L 316 371 L 311 371 L 310 370 L 302 371 L 300 369 L 301 366 L 314 366 L 315 365 L 320 365 L 324 363 L 328 363 Z M 181 366 L 185 363 L 190 363 L 193 365 L 214 366 L 215 368 L 211 371 L 208 371 L 207 370 L 197 371 L 188 367 L 185 367 L 182 369 Z M 185 346 L 192 337 L 211 331 L 215 331 L 221 335 L 220 337 L 215 337 L 215 339 L 246 343 L 258 343 L 269 338 L 280 338 L 297 331 L 302 331 L 317 335 L 324 339 L 328 345 L 328 352 L 322 359 L 308 362 L 237 361 L 238 359 L 262 355 L 291 344 L 306 341 L 295 340 L 253 354 L 234 358 L 233 362 L 208 362 L 191 359 L 186 354 Z M 230 304 L 232 305 L 232 316 L 231 317 L 229 317 L 227 315 L 228 306 Z M 283 300 L 285 301 L 286 309 L 287 310 L 287 313 L 284 316 L 282 315 L 282 301 Z M 296 268 L 298 271 L 300 277 L 300 281 L 301 282 L 301 288 L 303 295 L 303 303 L 304 304 L 304 320 L 300 325 L 292 330 L 280 334 L 269 334 L 267 335 L 266 334 L 266 331 L 264 330 L 265 328 L 272 328 L 273 329 L 278 328 L 289 316 L 296 312 L 296 311 L 292 311 L 290 308 L 290 303 L 288 296 L 288 289 L 287 288 L 289 283 L 289 276 L 292 270 L 294 268 Z M 269 268 L 270 270 L 263 285 L 263 289 L 261 295 L 261 303 L 260 304 L 261 305 L 261 317 L 263 323 L 261 325 L 258 325 L 257 326 L 251 324 L 241 324 L 240 325 L 237 325 L 233 321 L 235 315 L 235 310 L 236 309 L 234 296 L 235 295 L 242 294 L 251 288 L 259 280 L 266 270 Z M 283 260 L 291 263 L 292 266 L 285 281 L 278 301 L 278 314 L 280 320 L 275 325 L 265 324 L 264 323 L 264 315 L 263 314 L 263 304 L 264 303 L 264 295 L 265 294 L 266 286 L 272 272 L 278 264 L 280 260 Z M 248 253 L 253 255 L 260 255 L 265 253 L 267 255 L 267 257 L 269 257 L 270 259 L 259 275 L 246 288 L 238 292 L 233 292 L 231 290 L 227 278 L 225 279 L 227 289 L 224 309 L 222 312 L 219 312 L 218 314 L 221 315 L 236 329 L 246 327 L 247 330 L 245 332 L 249 335 L 257 336 L 258 337 L 257 339 L 246 339 L 228 334 L 217 328 L 210 321 L 209 317 L 213 281 L 218 267 L 227 261 L 243 258 Z M 246 212 L 256 212 L 257 213 L 258 212 L 268 212 L 272 217 L 273 220 L 272 223 L 265 220 L 262 221 L 259 225 L 259 227 L 260 227 L 261 230 L 263 231 L 266 231 L 269 229 L 269 227 L 267 228 L 261 228 L 260 226 L 264 223 L 268 223 L 270 225 L 272 225 L 274 228 L 272 239 L 269 245 L 265 249 L 261 251 L 255 252 L 250 250 L 246 247 L 241 238 L 241 235 L 240 234 L 240 226 L 241 225 L 243 225 L 246 223 L 250 223 L 253 226 L 252 228 L 246 228 L 245 227 L 244 228 L 247 231 L 252 230 L 254 227 L 254 224 L 251 221 L 248 220 L 244 222 L 241 221 L 241 217 L 243 214 Z M 261 207 L 263 206 L 264 208 L 262 209 Z M 255 202 L 257 201 L 258 203 L 256 204 Z M 256 181 L 257 181 L 260 185 L 260 188 L 259 189 L 254 189 L 253 188 Z M 255 119 L 203 219 L 112 427 L 116 431 L 397 431 L 400 421 L 333 269 L 261 121 Z M 256 137 L 321 270 L 386 422 L 127 421 L 195 264 Z M 256 123 L 312 232 L 396 427 L 391 426 L 319 256 L 258 130 L 207 228 L 122 426 L 116 426 L 203 228 Z M 246 54 L 234 63 L 228 75 L 229 92 L 241 108 L 159 280 L 91 441 L 96 446 L 417 446 L 422 441 L 419 427 L 273 109 L 285 89 L 284 71 L 268 54 Z M 254 96 L 263 99 L 306 187 L 415 430 L 416 441 L 96 440 L 188 228 Z M 253 71 L 261 71 L 264 73 L 267 77 L 268 83 L 266 88 L 262 92 L 260 91 L 253 91 L 251 92 L 246 86 L 246 83 L 245 82 L 246 77 Z M 243 61 L 249 58 L 260 57 L 270 61 L 277 68 L 280 74 L 281 84 L 280 85 L 280 89 L 277 95 L 271 101 L 268 99 L 267 94 L 272 87 L 272 83 L 273 82 L 272 77 L 268 70 L 261 66 L 252 66 L 248 68 L 243 73 L 241 77 L 241 86 L 243 91 L 246 94 L 245 99 L 242 101 L 236 95 L 233 88 L 233 83 L 232 82 L 233 80 L 233 75 L 237 67 Z" fill="currentColor" fill-rule="evenodd"/>
</svg>
