<svg xmlns="http://www.w3.org/2000/svg" viewBox="0 0 512 512" >
  <path d="M 241 403 L 237 416 L 245 419 L 248 409 L 250 406 L 248 405 L 244 413 L 242 414 L 241 411 L 242 410 L 243 403 Z M 246 385 L 242 399 L 245 401 L 251 402 L 256 388 L 255 387 L 253 388 L 250 397 L 247 398 L 246 397 L 246 394 L 247 393 L 247 388 L 248 386 Z M 249 367 L 248 369 L 248 374 L 247 375 L 247 380 L 246 381 L 249 383 L 257 384 L 260 368 L 258 367 L 257 368 L 255 379 L 252 380 L 250 378 L 251 367 Z M 250 347 L 249 350 L 249 363 L 251 364 L 260 364 L 261 363 L 262 348 L 261 347 L 259 348 L 258 359 L 257 360 L 253 360 L 252 359 L 252 347 Z M 249 327 L 248 330 L 249 331 L 249 343 L 250 344 L 262 344 L 263 342 L 263 327 L 261 326 L 260 328 L 260 337 L 258 340 L 253 340 L 252 339 L 252 329 L 251 326 Z M 277 305 L 273 306 L 270 319 L 278 319 Z M 235 305 L 234 319 L 242 319 L 242 316 L 240 312 L 240 308 L 239 306 Z M 281 286 L 276 289 L 274 300 L 281 300 L 282 299 Z M 231 286 L 230 299 L 238 300 L 238 296 L 236 292 L 236 289 L 235 287 Z M 285 267 L 283 267 L 280 269 L 278 281 L 286 281 Z M 227 267 L 226 281 L 234 281 L 232 269 L 229 267 Z M 287 247 L 282 250 L 282 256 L 281 257 L 281 261 L 282 262 L 283 261 L 289 261 L 290 260 L 289 259 L 289 254 Z M 284 254 L 286 253 L 287 255 L 285 256 Z M 225 247 L 224 249 L 224 254 L 223 255 L 223 261 L 229 261 L 230 262 L 231 261 L 230 251 L 228 248 Z M 226 253 L 228 254 L 228 257 L 227 258 L 225 257 L 225 254 Z M 288 227 L 286 227 L 283 229 L 283 237 L 282 238 L 282 241 L 283 242 L 291 240 Z M 285 235 L 287 234 L 288 237 L 286 238 Z M 224 227 L 221 240 L 229 242 L 230 241 L 229 239 L 229 229 L 226 227 Z M 224 235 L 226 234 L 227 237 L 225 238 Z M 286 206 L 282 209 L 282 221 L 283 222 L 290 220 L 289 213 Z M 285 211 L 287 212 L 287 215 L 286 216 L 284 215 L 284 212 Z M 226 206 L 222 219 L 229 222 L 230 221 L 230 208 Z M 225 213 L 227 212 L 228 215 L 226 216 Z M 283 187 L 279 190 L 280 191 L 280 200 L 281 201 L 287 199 L 287 196 Z M 282 194 L 284 193 L 285 196 L 283 197 Z M 229 187 L 225 196 L 225 199 L 231 201 L 232 199 L 232 191 L 233 190 Z M 230 191 L 231 193 L 230 196 L 228 197 L 227 194 L 228 192 Z M 262 94 L 263 102 L 264 103 L 264 108 L 262 114 L 262 121 L 267 130 L 273 135 L 273 130 L 275 126 L 275 115 L 267 105 Z M 268 111 L 270 114 L 269 119 L 270 121 L 272 122 L 270 126 L 267 124 L 266 121 L 266 112 Z M 250 94 L 245 105 L 240 110 L 237 115 L 236 120 L 237 121 L 237 126 L 239 129 L 239 135 L 240 135 L 247 127 L 250 121 L 250 114 L 248 109 L 248 103 L 249 102 Z M 245 111 L 246 112 L 246 121 L 245 124 L 242 126 L 240 122 L 242 121 L 243 119 L 242 113 Z M 262 60 L 261 60 L 260 62 L 260 69 L 261 70 L 264 68 L 264 64 Z M 259 47 L 249 49 L 241 62 L 223 170 L 208 175 L 203 151 L 196 153 L 190 147 L 174 162 L 188 178 L 192 198 L 212 200 L 216 207 L 210 224 L 213 267 L 194 271 L 189 285 L 177 284 L 178 291 L 170 296 L 174 299 L 170 306 L 196 318 L 206 313 L 210 303 L 226 312 L 234 381 L 224 435 L 232 454 L 247 465 L 246 436 L 275 382 L 286 312 L 302 303 L 306 313 L 316 318 L 342 306 L 335 284 L 324 286 L 315 269 L 299 267 L 298 227 L 302 224 L 296 207 L 299 200 L 314 201 L 322 195 L 324 178 L 338 162 L 322 147 L 316 153 L 309 151 L 304 175 L 289 170 L 272 66 Z M 238 384 L 239 387 L 238 389 L 236 390 L 235 388 L 236 385 Z M 254 304 L 258 304 L 262 307 L 261 319 L 260 320 L 252 319 L 251 318 L 250 307 Z M 253 285 L 258 285 L 261 286 L 264 289 L 263 291 L 263 300 L 262 301 L 259 301 L 258 300 L 250 301 L 249 300 L 249 292 L 248 289 Z M 297 274 L 304 271 L 310 271 L 312 272 L 318 279 L 318 283 L 319 284 L 319 302 L 322 298 L 322 293 L 326 290 L 327 292 L 325 295 L 330 295 L 331 296 L 327 301 L 331 302 L 332 304 L 326 306 L 318 313 L 312 313 L 309 310 L 307 300 L 306 299 L 308 288 L 305 293 L 296 302 L 292 304 L 290 302 L 290 294 L 291 293 L 291 290 L 295 288 L 295 276 Z M 215 274 L 217 276 L 217 288 L 221 291 L 221 294 L 222 295 L 222 303 L 221 304 L 219 304 L 216 302 L 207 293 L 204 288 L 204 292 L 206 298 L 205 299 L 203 310 L 200 313 L 194 313 L 186 306 L 180 304 L 181 302 L 185 301 L 181 296 L 182 295 L 187 295 L 185 292 L 186 290 L 189 292 L 190 298 L 193 302 L 193 283 L 195 277 L 200 272 L 202 271 L 208 271 L 213 274 Z M 247 270 L 253 266 L 259 266 L 263 268 L 265 270 L 264 281 L 263 282 L 254 281 L 249 283 L 247 277 Z M 247 250 L 255 246 L 264 249 L 265 250 L 265 263 L 262 264 L 258 262 L 254 262 L 248 264 L 247 263 Z M 247 231 L 254 227 L 258 227 L 265 231 L 265 244 L 263 245 L 257 242 L 255 242 L 252 244 L 248 244 L 247 243 Z M 247 211 L 255 207 L 264 210 L 265 211 L 265 224 L 262 225 L 258 223 L 254 223 L 248 225 L 247 224 Z M 247 192 L 254 188 L 258 188 L 265 192 L 265 205 L 263 206 L 256 203 L 248 206 L 247 205 Z M 247 173 L 249 171 L 254 169 L 258 169 L 263 171 L 265 173 L 265 185 L 264 186 L 261 186 L 255 184 L 251 186 L 248 186 L 247 185 Z M 324 161 L 325 162 L 324 166 L 328 166 L 329 168 L 320 176 L 319 192 L 313 197 L 298 196 L 295 193 L 292 185 L 295 183 L 294 178 L 295 177 L 300 178 L 309 184 L 308 182 L 308 176 L 312 170 L 311 161 L 313 160 L 316 162 L 318 158 L 320 159 L 320 163 Z M 187 161 L 189 161 L 192 163 L 192 159 L 193 158 L 195 159 L 196 162 L 199 160 L 201 161 L 200 170 L 204 177 L 204 182 L 203 184 L 214 177 L 217 177 L 218 178 L 217 183 L 219 185 L 219 189 L 215 195 L 213 196 L 207 196 L 206 197 L 199 197 L 193 192 L 192 176 L 183 168 L 184 166 L 188 166 L 186 163 Z M 277 153 L 285 163 L 276 171 L 277 180 L 284 180 L 283 168 L 297 221 L 293 223 L 295 263 L 283 321 L 278 322 L 279 338 L 274 337 L 273 326 L 269 336 L 276 341 L 276 357 L 271 357 L 270 347 L 267 360 L 273 361 L 269 379 L 267 368 L 264 397 L 262 388 L 245 428 L 238 420 L 234 426 L 237 443 L 243 432 L 240 456 L 232 445 L 229 418 L 242 377 L 242 365 L 236 373 L 238 360 L 243 359 L 242 346 L 235 356 L 236 341 L 243 336 L 239 326 L 238 337 L 233 338 L 234 322 L 217 263 L 220 224 L 216 218 L 224 204 L 219 197 L 229 168 L 228 179 L 235 180 L 236 171 L 227 163 L 236 153 L 245 169 L 248 323 L 264 323 L 269 264 L 267 169 Z M 254 150 L 258 150 L 262 154 L 264 159 L 264 166 L 263 167 L 261 167 L 258 165 L 254 165 L 251 167 L 248 167 L 247 166 L 248 164 L 248 158 L 250 154 Z M 245 64 L 247 63 L 248 65 L 246 66 Z M 255 51 L 260 52 L 263 55 L 268 67 L 266 75 L 273 106 L 279 117 L 278 134 L 281 135 L 283 143 L 282 150 L 280 151 L 277 148 L 278 143 L 277 143 L 269 157 L 267 157 L 265 152 L 256 145 L 247 152 L 245 157 L 242 156 L 238 147 L 234 143 L 234 149 L 232 151 L 230 150 L 229 146 L 231 134 L 232 133 L 234 134 L 233 117 L 239 106 L 245 80 L 244 68 L 247 67 L 251 70 L 252 69 L 251 60 L 248 63 L 246 61 L 249 55 Z" fill="currentColor" fill-rule="evenodd"/>
</svg>
