<svg xmlns="http://www.w3.org/2000/svg" width="512" height="512" viewBox="0 0 512 512" aria-hidden="true" focusable="false"><path fill="currentColor" fill-rule="evenodd" clip-rule="evenodd" d="M44 17 L36 28 L35 44 L46 62 L47 77 L26 137 L27 163 L36 189 L26 191 L26 236 L36 257 L29 259 L34 311 L23 339 L22 372 L36 415 L29 421 L32 457 L23 496 L60 494 L83 483 L95 493 L128 493 L131 485 L147 492 L177 494 L206 483 L220 494 L238 490 L250 495 L294 492 L290 482 L279 476 L247 439 L230 431 L243 419 L260 414 L273 416 L267 435 L278 459 L290 466 L299 480 L320 492 L338 494 L355 488 L391 495 L428 480 L454 485 L480 480 L490 464 L474 470 L465 468 L451 455 L429 452 L405 435 L384 441 L377 452 L379 465 L369 464 L340 427 L350 418 L354 406 L325 399 L312 401 L300 390 L280 382 L247 385 L255 358 L222 360 L207 368 L183 365 L163 382 L159 360 L127 362 L124 354 L103 356 L103 349 L121 337 L127 337 L138 349 L150 349 L162 341 L172 310 L172 292 L153 294 L160 265 L157 246 L133 210 L134 197 L115 202 L119 193 L117 169 L112 168 L95 134 L69 169 L64 162 L62 126 L83 114 L85 95 L70 62 L47 37 Z M398 487 L400 486 L401 488 L399 489 Z M403 483 L405 484 L404 487 L401 486 Z M60 476 L62 475 L63 477 L61 478 Z M464 477 L465 473 L475 473 L476 474 L474 477 L470 478 Z M378 473 L379 470 L388 471 L387 473 L383 474 Z M406 481 L408 478 L415 473 L427 469 L436 469 L443 471 L454 478 L453 480 L451 480 L448 478 L437 476 L435 472 L433 472 L431 476 L424 477 L412 483 Z M121 470 L123 469 L127 472 L130 472 L147 479 L168 480 L185 477 L192 473 L198 472 L204 469 L209 470 L206 480 L201 481 L191 486 L185 487 L183 489 L177 490 L152 489 L150 487 L134 483 L122 476 Z M297 469 L303 468 L307 471 L309 470 L310 465 L314 460 L322 461 L329 469 L329 471 L333 473 L338 479 L340 479 L345 483 L345 488 L339 490 L325 489 L323 487 L313 484 L306 480 L297 471 Z M83 461 L85 460 L86 462 L84 463 Z M91 459 L96 458 L97 460 L92 461 Z M87 459 L89 458 L90 460 L88 461 Z M425 462 L431 456 L446 457 L455 464 L454 466 L455 468 L459 468 L462 471 L462 475 L458 476 L441 467 L426 468 Z M133 468 L139 467 L154 470 L170 469 L188 464 L205 454 L221 454 L232 462 L234 477 L239 473 L247 479 L260 478 L261 476 L258 471 L251 476 L241 469 L245 467 L249 461 L257 459 L265 463 L271 470 L274 478 L281 482 L278 486 L270 489 L249 491 L243 489 L237 481 L234 481 L235 486 L232 489 L221 490 L215 487 L211 481 L211 475 L214 471 L221 471 L223 477 L225 471 L217 465 L200 466 L171 476 L154 476 L153 474 L136 471 Z M324 453 L326 449 L331 449 L335 455 L348 468 L368 478 L382 479 L390 477 L391 475 L397 472 L403 465 L405 466 L405 470 L400 480 L396 484 L383 490 L366 489 L364 487 L359 486 L345 479 L338 472 L336 472 L326 461 L324 457 Z M226 450 L229 449 L232 450 L233 452 L227 453 Z M63 448 L65 454 L63 463 L60 466 L59 465 L61 459 L60 450 Z M220 448 L223 447 L224 450 L222 451 Z M150 446 L154 445 L155 448 L151 449 Z M159 446 L161 444 L165 445 L164 448 L160 448 Z M146 445 L146 453 L144 455 L141 455 L140 457 L137 457 L137 462 L134 464 L122 464 L115 459 L102 454 L95 453 L97 448 L107 447 L108 450 L110 450 L111 448 L130 449 L138 447 L143 444 Z M381 452 L385 446 L392 441 L406 440 L416 444 L425 453 L425 455 L422 458 L422 466 L420 468 L414 469 L409 464 L409 461 L407 458 L399 452 L396 452 L393 454 L398 457 L399 459 L398 464 L394 467 L387 466 L381 459 Z M224 436 L233 436 L241 440 L253 452 L249 456 L244 455 L245 460 L243 465 L239 465 L233 458 L233 455 L236 452 L236 450 L231 446 L220 442 Z M80 436 L82 440 L81 457 L76 466 L73 468 L72 466 L76 460 L78 453 L77 437 Z M320 438 L322 444 L320 456 L315 457 L309 454 L309 459 L306 465 L295 464 L284 459 L278 450 L279 448 L286 450 L299 449 L311 442 L311 440 L315 435 Z M76 427 L78 428 L79 432 L78 435 L76 434 L75 431 Z M36 425 L45 425 L46 427 L53 428 L61 436 L61 442 L56 447 L52 447 L49 444 L50 439 L46 436 L46 447 L57 454 L54 468 L45 476 L48 481 L64 481 L70 478 L80 468 L90 465 L99 467 L106 477 L108 472 L100 463 L105 459 L115 467 L118 474 L116 479 L120 480 L123 485 L102 489 L99 483 L97 483 L94 488 L89 482 L89 476 L91 472 L89 472 L84 479 L64 489 L31 491 L30 489 L33 484 L33 464 L43 465 L46 463 L44 460 L39 459 L35 453 Z M74 418 L76 417 L77 420 L75 421 Z M76 411 L78 412 L77 416 L75 415 Z M40 412 L45 411 L47 416 L43 418 Z M316 405 L327 404 L348 411 L348 413 L342 420 L331 422 L330 424 L332 424 L344 437 L354 457 L365 466 L373 469 L373 473 L368 473 L359 470 L350 464 L337 451 L334 445 L322 433 L317 430 L318 417 L315 407 Z M45 402 L47 401 L48 403 L46 404 Z M84 395 L85 400 L79 408 L79 410 L77 411 L76 408 L80 399 L82 398 L82 396 Z M122 394 L129 403 L130 409 L128 415 L122 420 L121 419 L122 410 L120 406 L114 403 L107 403 L102 405 L97 413 L96 426 L98 433 L104 442 L101 444 L94 444 L91 446 L90 443 L85 438 L82 428 L82 415 L88 401 L96 394 L106 391 L114 391 Z M87 392 L89 391 L90 393 L88 394 Z M190 404 L188 406 L188 408 L191 409 L189 417 L184 426 L178 432 L160 441 L150 440 L157 433 L162 422 L167 417 L167 415 L163 412 L163 408 L161 404 L158 401 L163 390 L165 391 L166 396 L174 404 L177 405 L183 405 L188 403 Z M67 390 L75 391 L78 394 L71 413 L71 431 L74 440 L74 453 L71 460 L69 459 L69 455 L71 452 L69 451 L69 446 L67 444 L65 434 L58 422 L56 416 L57 411 L54 409 L58 396 Z M242 393 L254 387 L267 385 L284 387 L297 393 L308 403 L314 415 L314 425 L310 436 L306 441 L294 446 L284 446 L278 443 L272 435 L272 426 L275 421 L285 418 L285 416 L273 410 L254 410 L236 418 L236 413 L243 408 L255 404 L270 403 L286 408 L295 418 L295 427 L291 431 L286 432 L282 426 L279 426 L280 434 L291 436 L297 432 L299 426 L297 413 L286 403 L276 399 L264 398 L256 399 L240 406 Z M40 384 L43 387 L45 394 L44 397 L42 396 L39 386 Z M107 384 L104 388 L102 387 L98 390 L94 389 L96 385 L102 383 Z M73 369 L75 370 L74 375 L72 374 Z M198 369 L203 372 L202 380 L196 382 L185 382 L182 385 L182 387 L189 385 L191 389 L194 386 L199 390 L202 396 L203 411 L199 423 L185 439 L174 445 L168 446 L168 442 L176 438 L188 428 L195 414 L195 402 L191 396 L188 396 L188 398 L184 401 L177 401 L175 398 L172 397 L170 392 L171 379 L177 372 L183 369 Z M249 365 L246 376 L241 381 L234 383 L235 386 L240 388 L231 417 L219 436 L207 448 L197 455 L176 464 L163 466 L144 464 L145 462 L150 462 L151 459 L177 456 L197 445 L207 435 L215 420 L220 388 L226 377 L219 382 L215 389 L213 413 L203 433 L193 443 L179 451 L166 455 L163 454 L167 450 L172 450 L185 444 L200 429 L208 410 L208 399 L202 388 L208 373 L222 365 Z M83 363 L85 362 L86 364 L84 365 Z M83 370 L90 366 L96 369 L102 361 L118 359 L123 363 L123 374 L127 373 L128 367 L134 364 L155 366 L159 389 L157 395 L148 398 L148 401 L157 406 L156 416 L160 415 L161 417 L153 431 L141 441 L131 445 L119 445 L109 440 L100 427 L102 411 L107 407 L116 408 L118 413 L112 420 L119 427 L129 421 L134 414 L134 403 L130 396 L122 389 L110 386 L109 383 L120 383 L133 389 L139 402 L138 410 L140 413 L131 429 L115 431 L112 427 L112 432 L119 435 L131 433 L137 429 L142 421 L146 420 L142 401 L146 392 L141 394 L138 392 L140 383 L135 385 L130 383 L133 377 L124 381 L109 378 L107 374 L105 379 L97 378 L95 382 L80 391 L75 387 L75 382 Z M78 359 L79 363 L78 366 L76 367 L73 365 L73 363 L75 360 Z M61 359 L70 362 L69 369 L66 371 L69 373 L69 381 L64 383 L63 387 L59 387 L57 381 L57 367 L61 364 L59 362 Z M99 356 L102 355 L103 357 L100 358 Z M68 321 L74 331 L72 340 L80 336 L82 340 L81 351 L73 357 L67 357 L64 355 L63 352 L61 352 L57 356 L53 364 L51 382 L53 383 L54 392 L52 395 L50 395 L48 393 L45 379 L46 354 L52 338 Z M161 330 L158 339 L154 343 L150 345 L145 344 L139 345 L133 340 L132 334 L134 328 L131 328 L127 333 L117 334 L107 340 L99 347 L92 360 L88 360 L85 358 L89 348 L97 337 L115 323 L125 320 L141 321 L147 327 L147 331 L144 334 L144 336 L148 336 L152 328 Z M95 314 L96 317 L93 320 L90 319 L91 316 Z M62 312 L64 315 L63 320 L51 332 L44 346 L43 352 L40 355 L39 352 L42 342 L51 324 L58 314 Z M39 309 L51 311 L51 316 L46 327 L41 334 L35 353 L35 367 L34 368 L35 382 L37 393 L40 402 L42 404 L41 409 L37 407 L32 391 L29 386 L25 362 L25 352 L28 335 Z M101 303 L102 305 L100 309 L97 310 L96 308 Z M169 300 L167 304 L167 311 L165 317 L161 323 L158 324 L157 326 L155 326 L154 324 L150 324 L145 319 L139 316 L125 316 L117 319 L115 318 L116 313 L120 307 L133 300 L147 298 L158 299 L167 298 Z M61 296 L63 297 L62 302 L60 301 Z M132 294 L134 293 L135 295 L133 296 Z M101 294 L104 293 L105 296 L102 297 Z M71 291 L82 304 L85 311 L85 326 L83 330 L80 332 L77 331 L76 325 L70 318 L69 314 L67 314 L66 311 L64 310 L66 305 L67 295 Z M139 283 L140 284 L139 289 L135 293 L134 291 L137 284 Z M102 274 L106 277 L106 286 L104 288 L102 287 L101 281 Z M98 267 L101 266 L103 271 L100 272 Z M36 264 L39 264 L42 267 L41 269 L45 270 L47 275 L59 282 L64 289 L63 294 L47 292 L44 295 L44 298 L49 296 L50 299 L53 300 L53 303 L48 307 L42 306 L37 301 L35 296 L34 281 Z M140 258 L144 260 L144 273 L141 279 L139 278 L140 274 L139 259 Z M132 255 L136 263 L136 274 L131 290 L129 291 L128 294 L125 294 L124 293 L125 287 L124 268 L121 260 L124 259 L125 257 Z M48 264 L51 264 L54 267 L57 264 L65 262 L75 253 L83 256 L91 264 L97 276 L98 290 L96 300 L90 310 L75 288 L74 284 L71 284 L71 286 L68 287 L61 278 L50 271 L47 266 Z M75 245 L80 242 L88 247 L95 254 L100 263 L96 264 L86 253 L76 248 Z M92 223 L95 222 L97 226 L95 227 Z M89 216 L92 215 L94 219 L91 220 Z M88 209 L92 208 L93 210 L89 211 Z M114 205 L116 207 L115 220 L113 221 L110 229 L106 230 L100 224 L97 217 L97 211 L109 208 L112 205 Z M126 203 L128 204 L128 210 L131 216 L147 235 L154 253 L154 260 L156 261 L156 264 L153 265 L154 277 L149 292 L145 295 L141 294 L147 278 L147 255 L144 247 L139 240 L130 233 L127 233 L125 236 L123 236 L121 242 L122 244 L124 244 L126 240 L131 239 L138 245 L141 251 L140 254 L137 254 L133 248 L131 248 L125 254 L119 253 L115 250 L112 243 L112 235 L116 225 L118 224 L122 228 L125 226 L120 219 L120 210 Z M34 197 L44 200 L53 208 L54 222 L49 222 L49 228 L46 232 L46 243 L51 249 L60 250 L64 247 L63 241 L61 241 L60 246 L54 246 L49 238 L52 230 L59 223 L59 212 L61 211 L96 233 L109 246 L115 257 L114 262 L119 265 L121 286 L117 289 L120 291 L119 298 L108 320 L101 324 L102 327 L90 339 L87 339 L85 334 L99 320 L110 294 L108 269 L97 250 L75 235 L65 235 L72 245 L71 251 L66 257 L52 260 L42 256 L34 247 L30 233 Z M93 170 L95 171 L101 184 L101 191 L98 195 L95 195 L92 192 L91 186 L85 192 L81 192 L79 190 L79 186 L82 183 L83 179 Z M96 143 L107 160 L108 169 L106 177 L112 178 L114 181 L113 197 L110 200 L106 198 L106 201 L103 202 L102 206 L95 206 L90 202 L87 202 L84 208 L84 214 L77 215 L76 201 L79 196 L91 196 L95 199 L101 198 L105 193 L105 184 L102 177 L103 172 L100 172 L96 163 L94 163 L78 179 L75 187 L76 192 L73 197 L72 204 L70 205 L67 201 L67 183 L74 171 L82 171 L83 157 Z M46 124 L49 125 L47 138 L49 159 L53 172 L56 174 L57 179 L62 186 L61 191 L57 191 L55 189 L46 165 L43 146 L44 143 L42 141 L42 137 L44 136 L44 127 Z M56 117 L60 120 L57 130 L57 152 L61 166 L66 174 L64 179 L61 178 L58 172 L57 166 L54 163 L51 149 L52 126 Z M55 71 L57 72 L56 82 L54 84 L46 104 L39 128 L39 152 L41 164 L43 166 L48 183 L57 198 L61 202 L60 204 L56 205 L43 195 L34 173 L32 158 L30 154 L30 138 L32 135 L32 129 L36 114 L48 88 L51 78 L51 73 Z M40 35 L43 36 L46 43 L63 59 L66 65 L68 76 L63 86 L63 91 L66 91 L67 87 L71 84 L76 85 L79 90 L79 94 L81 96 L81 108 L73 118 L67 119 L60 114 L60 108 L63 105 L71 106 L73 102 L73 99 L71 98 L69 101 L60 102 L53 112 L50 120 L46 120 L51 102 L56 94 L59 85 L60 71 L58 64 L56 64 L55 69 L51 68 L49 59 L42 51 L40 46 Z"/></svg>
