<svg xmlns="http://www.w3.org/2000/svg" width="512" height="512" viewBox="0 0 512 512" aria-hidden="true" focusable="false"><path fill="currentColor" fill-rule="evenodd" clip-rule="evenodd" d="M297 471 L295 471 L282 479 L265 483 L244 482 L224 475 L223 477 L243 484 L264 486 L272 485 L288 480 L290 477 L295 475 Z M435 436 L436 451 L438 451 L438 438 L437 436 Z M327 357 L327 362 L329 362 L329 357 Z M293 336 L291 336 L291 345 L293 344 Z M397 310 L397 314 L399 314 L399 310 Z M461 17 L456 35 L432 61 L433 84 L424 86 L431 96 L430 107 L419 107 L416 125 L390 162 L386 178 L388 205 L368 200 L373 226 L366 258 L387 278 L401 278 L410 271 L408 256 L423 264 L430 287 L420 292 L418 301 L427 310 L437 307 L440 334 L413 330 L411 284 L389 296 L382 282 L371 291 L348 260 L329 292 L300 274 L293 307 L278 304 L278 347 L286 369 L273 373 L262 388 L303 404 L298 420 L306 439 L338 423 L327 443 L299 450 L295 438 L266 410 L254 384 L261 368 L260 347 L245 328 L222 313 L218 364 L229 380 L245 389 L248 404 L202 395 L188 385 L200 419 L167 417 L144 429 L132 428 L135 439 L120 448 L100 449 L122 470 L110 471 L101 461 L77 457 L62 463 L50 479 L32 486 L55 491 L80 479 L102 490 L129 491 L150 483 L157 475 L176 480 L184 474 L186 461 L170 452 L181 442 L196 441 L212 450 L191 461 L198 467 L184 491 L210 486 L235 495 L264 496 L314 487 L326 491 L344 487 L348 493 L354 488 L379 490 L396 478 L414 491 L439 485 L447 490 L467 488 L476 492 L475 483 L460 470 L464 450 L461 434 L476 433 L471 427 L476 389 L465 371 L480 340 L468 336 L476 311 L475 281 L464 248 L468 227 L457 229 L441 246 L431 229 L437 210 L445 226 L454 226 L463 218 L465 208 L459 197 L467 186 L466 166 L472 154 L463 156 L448 176 L434 179 L413 195 L415 178 L429 159 L453 156 L468 141 L467 95 L454 68 L466 43 Z M295 486 L297 485 L298 487 L296 488 Z M255 473 L257 472 L258 474 L256 475 Z M251 472 L253 471 L254 473 L252 474 Z M154 469 L153 474 L146 481 L140 483 L133 482 L135 474 L140 466 L147 463 L148 466 L151 466 Z M147 462 L149 461 L150 463 L148 464 Z M48 486 L65 466 L76 461 L88 461 L96 463 L104 469 L104 473 L112 475 L124 473 L129 470 L132 471 L131 475 L124 481 L122 485 L119 486 L106 486 L97 484 L89 479 L89 474 L77 474 L71 476 L58 486 L51 487 Z M291 460 L292 462 L284 468 L283 466 L288 460 Z M356 454 L365 455 L363 458 L363 465 L360 468 L357 467 L357 461 L352 462 L349 461 L349 459 Z M424 451 L425 452 L424 455 L418 458 L417 456 Z M321 451 L322 453 L319 455 L318 453 Z M315 450 L309 466 L295 481 L276 490 L257 493 L240 492 L214 483 L192 481 L200 471 L206 469 L206 467 L198 461 L204 456 L215 456 L222 459 L225 462 L224 464 L215 463 L214 466 L218 465 L230 469 L236 476 L244 475 L252 479 L270 479 L286 472 L294 466 L304 451 L310 449 Z M322 450 L324 448 L327 449 L326 452 L323 452 Z M210 442 L212 441 L213 443 L211 444 Z M379 455 L377 463 L374 465 L369 465 L367 463 L367 460 L373 457 L370 452 L366 450 L356 450 L347 454 L327 475 L327 477 L330 477 L336 473 L341 472 L345 481 L339 485 L325 486 L322 484 L324 480 L319 480 L312 477 L312 484 L306 486 L305 483 L302 482 L319 461 L325 456 L330 456 L333 454 L333 449 L342 442 L352 439 L367 441 L373 445 Z M207 440 L209 439 L210 441 L208 442 Z M387 441 L388 445 L391 448 L392 472 L390 477 L381 485 L368 486 L360 484 L351 485 L350 484 L351 480 L347 476 L346 470 L352 464 L354 465 L355 471 L358 474 L360 473 L373 474 L379 471 L384 464 L383 451 L377 444 L377 442 L375 442 L372 438 L377 437 Z M198 437 L201 436 L202 438 L199 439 Z M180 436 L181 437 L180 439 L174 441 L168 447 L166 452 L167 462 L164 463 L163 465 L167 466 L168 468 L173 468 L171 461 L174 458 L178 458 L182 461 L183 467 L181 471 L175 475 L169 476 L163 474 L156 465 L156 454 L159 446 L167 438 L171 440 Z M194 436 L197 435 L198 437 L195 438 Z M183 436 L185 435 L186 437 L184 438 Z M232 435 L236 431 L238 432 L239 449 L241 453 L247 459 L258 464 L274 465 L275 467 L269 470 L260 470 L252 468 L245 464 L238 458 L232 449 L230 443 Z M383 433 L386 430 L396 425 L401 424 L414 425 L422 432 L424 443 L423 446 L421 447 L419 442 L414 437 L410 436 L400 438 L395 443 L393 443 Z M241 442 L242 441 L253 442 L259 439 L262 433 L262 425 L264 424 L282 441 L285 448 L285 456 L282 459 L277 461 L258 460 L250 456 L244 450 Z M174 426 L174 430 L171 433 L167 434 L158 440 L154 445 L136 455 L134 454 L129 455 L130 457 L134 457 L136 455 L138 456 L140 454 L144 454 L151 450 L152 454 L147 461 L130 464 L121 462 L111 455 L112 453 L123 451 L135 443 L146 443 L146 440 L142 439 L139 435 L144 434 L161 424 L169 421 Z M175 421 L185 420 L187 422 L194 423 L203 427 L209 433 L207 434 L200 430 L178 428 L175 426 Z M232 420 L245 419 L250 423 L252 420 L256 419 L258 422 L259 426 L258 433 L253 438 L248 439 L242 435 L242 431 L245 428 L247 428 L247 426 L241 426 L234 428 L228 437 L228 448 L232 456 L237 462 L250 471 L249 473 L244 472 L237 468 L227 458 L223 449 L223 445 L221 444 L221 437 L223 435 L223 432 Z M391 419 L376 434 L371 435 L367 434 L381 420 L389 418 Z M375 419 L376 421 L362 436 L359 436 L357 434 L358 431 L363 427 L367 420 L370 418 Z M407 418 L410 417 L411 419 L408 420 Z M419 415 L425 416 L435 423 L435 425 L442 432 L445 444 L443 457 L440 462 L434 468 L424 473 L419 473 L418 468 L414 468 L411 472 L404 470 L399 465 L396 458 L396 450 L398 445 L404 440 L412 441 L417 447 L416 451 L412 454 L406 452 L406 457 L411 462 L411 466 L413 466 L414 462 L423 461 L430 454 L432 450 L432 437 L429 431 L417 421 Z M346 414 L349 416 L348 423 L346 424 L346 428 L339 440 L336 441 L335 438 L340 432 L344 420 L344 415 Z M434 414 L439 413 L445 416 L456 431 L459 442 L457 474 L461 479 L468 482 L468 485 L447 485 L444 484 L437 476 L436 481 L433 484 L427 486 L413 486 L407 484 L399 477 L399 472 L411 477 L423 477 L431 475 L442 466 L444 467 L445 473 L448 474 L445 465 L448 453 L448 438 L444 427 L433 416 Z M355 410 L359 414 L362 415 L364 419 L357 426 L357 428 L353 433 L348 436 L347 434 L351 427 L353 411 Z M344 403 L342 411 L333 421 L325 425 L315 427 L309 431 L306 430 L303 421 L303 413 L306 407 L311 402 L320 400 L321 404 L324 403 L327 404 L334 398 L336 400 L339 399 L340 402 Z M415 401 L422 397 L435 397 L438 398 L444 404 L444 409 L438 410 L436 408 L432 411 L432 414 L430 415 L425 412 L419 411 L417 409 L417 404 Z M328 397 L329 399 L325 402 L324 400 Z M196 398 L199 397 L205 400 L211 400 L218 402 L223 407 L226 413 L228 413 L227 409 L228 404 L242 405 L247 407 L253 413 L253 417 L250 419 L241 415 L232 416 L227 419 L223 419 L220 417 L219 419 L223 424 L218 431 L215 431 L208 426 L204 419 L203 413 L208 412 L208 410 L200 405 Z M356 397 L357 396 L363 397 L365 401 L364 402 L360 401 Z M424 391 L430 389 L440 389 L448 392 L454 399 L455 402 L454 410 L450 413 L447 413 L446 411 L448 408 L447 401 L441 395 L435 393 L425 393 Z M413 413 L412 414 L394 413 L387 415 L373 415 L361 410 L355 405 L352 400 L354 399 L364 405 L372 407 L377 407 L377 405 L368 404 L367 400 L370 398 L383 398 L384 400 L390 400 L399 403 L399 401 L391 399 L389 397 L375 395 L376 393 L382 392 L394 393 L395 392 L394 389 L397 387 L399 389 L399 393 L404 391 L409 396 L413 406 Z M347 384 L349 383 L350 385 L348 386 Z M429 383 L431 382 L432 384 L430 385 Z M371 383 L373 382 L374 384 L372 385 Z M246 382 L249 381 L251 382 L251 388 L253 394 L260 407 L265 413 L265 415 L279 427 L292 441 L294 445 L294 458 L293 459 L289 457 L289 448 L286 440 L265 420 L256 408 L251 398 L249 389 L245 384 Z M422 381 L420 385 L412 391 L408 389 L408 387 L418 379 Z M306 374 L308 373 L309 375 L307 376 Z M270 383 L277 375 L283 373 L290 373 L292 376 L289 378 L297 381 L296 383 L287 381 L278 382 L288 383 L295 385 L302 389 L311 390 L312 391 L311 393 L302 393 L295 391 L295 393 L302 395 L311 395 L312 397 L310 399 L296 399 L294 397 L287 395 L284 392 L271 385 Z M374 367 L376 366 L377 369 L375 370 Z M307 366 L309 365 L310 367 L308 368 Z M237 347 L246 352 L252 362 L252 364 L249 365 L249 369 L251 369 L252 371 L249 372 L249 375 L247 378 L244 378 L238 375 L235 372 L236 370 L238 370 L238 368 L235 368 L232 365 L232 359 L234 357 L233 354 Z M251 345 L253 344 L254 346 L252 347 Z M470 341 L471 344 L466 363 L461 369 L454 371 L454 374 L463 375 L471 387 L471 397 L469 400 L465 400 L465 403 L468 407 L467 428 L464 429 L456 423 L454 417 L459 408 L457 395 L446 386 L434 384 L433 382 L440 380 L453 382 L453 380 L447 378 L436 378 L435 376 L448 370 L448 368 L439 371 L438 369 L448 361 L463 344 Z M437 336 L438 340 L434 348 L434 351 L426 364 L410 381 L403 385 L402 383 L413 373 L418 366 L426 344 L433 337 Z M424 335 L425 339 L420 347 L418 356 L406 375 L397 382 L385 388 L375 390 L375 387 L384 384 L396 374 L394 372 L383 381 L376 384 L374 383 L385 369 L392 350 L407 337 L414 335 Z M225 335 L227 336 L231 343 L231 351 L229 355 L228 364 L226 363 L226 358 L224 358 L224 360 L222 361 L220 356 L221 343 Z M339 324 L347 329 L359 342 L365 358 L362 377 L357 383 L355 382 L358 374 L358 369 L356 369 L355 377 L350 384 L351 357 L350 354 L348 354 L349 373 L343 388 L340 382 L338 362 L337 388 L331 380 L329 366 L327 366 L329 384 L322 375 L321 367 L319 367 L321 376 L319 379 L314 366 L314 357 L320 342 Z M227 324 L231 323 L240 330 L240 334 L242 335 L245 334 L251 340 L252 343 L251 344 L247 343 L248 346 L247 348 L240 344 L231 336 L228 330 Z M286 310 L294 314 L303 323 L309 333 L311 341 L311 352 L308 365 L306 364 L305 358 L303 357 L303 344 L300 344 L303 361 L307 371 L306 373 L299 366 L295 356 L294 348 L292 348 L295 363 L300 373 L305 377 L304 379 L302 379 L293 371 L293 369 L288 364 L284 354 L282 338 Z M329 301 L338 314 L338 319 L335 322 L333 318 L330 328 L327 329 L323 334 L320 333 L321 326 L323 323 L323 320 L321 320 L318 328 L317 336 L315 337 L314 332 L316 324 L314 324 L313 327 L311 328 L310 327 L311 320 L314 317 L314 315 L318 312 L318 310 L327 301 Z M367 298 L370 299 L376 311 L382 318 L388 337 L387 352 L383 364 L381 365 L379 363 L376 366 L377 343 L372 323 L369 324 L372 329 L375 345 L374 359 L370 370 L368 369 L368 351 L361 336 L360 325 L357 325 L356 332 L351 328 L352 318 L357 308 Z M347 298 L354 305 L350 309 L347 307 L347 305 L345 306 L341 305 Z M339 297 L340 299 L337 301 L336 299 Z M351 294 L353 293 L354 296 L352 297 Z M406 291 L407 292 L406 299 L410 313 L410 327 L408 333 L404 334 L403 331 L406 324 L406 318 L404 317 L402 330 L399 336 L397 337 L396 335 L398 328 L398 318 L396 317 L395 331 L394 334 L392 335 L388 323 L388 317 L390 310 L388 310 L386 315 L384 315 L383 312 L386 305 L395 296 Z M378 290 L383 296 L382 299 L378 298 L375 294 Z M362 291 L364 290 L365 293 L363 294 Z M357 288 L359 289 L361 295 L359 300 L357 299 L356 293 Z M435 281 L439 281 L448 289 L453 301 L453 303 L451 304 L449 300 L441 293 L451 313 L452 325 L451 334 L449 336 L445 351 L439 361 L437 360 L436 354 L440 347 L444 334 L445 325 L444 312 L442 306 L437 300 L430 298 L431 303 L429 305 L425 305 L422 301 L422 297 L426 292 L429 291 L435 292 L433 285 Z M307 281 L314 284 L322 293 L323 297 L321 298 L319 295 L317 296 L314 294 L315 302 L318 302 L319 304 L316 305 L315 309 L311 313 L309 312 L310 298 L308 298 L307 318 L305 319 L303 314 L304 301 L302 301 L299 312 L297 311 L297 302 L299 295 L303 289 L304 283 Z M364 288 L362 290 L360 286 L356 286 L355 283 L352 283 L351 279 L349 279 L349 283 L353 284 L354 287 L353 290 L348 288 L348 291 L345 294 L343 293 L343 291 L337 291 L335 295 L333 294 L336 287 L346 276 L347 272 L350 270 L360 280 Z M431 270 L433 269 L434 271 L432 272 Z M423 256 L431 263 L430 267 L427 265 L422 258 Z M429 256 L431 255 L432 257 L430 258 Z M412 250 L413 249 L417 250 L418 252 L421 253 L421 255 L418 256 L414 254 Z M432 248 L434 247 L437 250 L437 252 L435 253 Z M410 249 L409 252 L402 253 L397 257 L395 256 L396 252 L401 248 L408 247 Z M413 243 L416 242 L426 248 L430 252 L430 254 L427 255 L420 248 L415 246 Z M411 241 L410 244 L400 245 L396 247 L391 254 L391 261 L395 266 L397 266 L397 262 L399 260 L404 260 L407 263 L407 268 L401 274 L391 274 L384 272 L375 264 L374 258 L379 257 L382 264 L386 266 L385 252 L391 243 L402 238 Z M459 234 L460 252 L465 263 L471 286 L472 306 L467 329 L459 343 L449 354 L448 351 L459 333 L464 317 L464 289 L457 273 L455 259 L453 259 L453 265 L463 300 L462 312 L460 319 L458 320 L456 296 L452 287 L449 285 L449 281 L446 281 L441 276 L438 269 L438 260 L443 251 L447 253 L447 248 L450 241 L457 234 Z M377 207 L382 208 L391 216 L395 222 L396 230 L399 230 L401 232 L400 235 L395 236 L390 230 L388 224 L386 224 L388 231 L391 234 L391 238 L385 243 L382 248 L382 252 L379 255 L373 250 L372 244 L374 234 L375 233 L381 234 L381 231 L378 228 L376 223 L377 213 L376 208 Z M434 204 L435 207 L429 213 L428 220 L426 222 L426 228 L428 230 L429 236 L432 241 L432 244 L429 245 L426 241 L426 238 L423 232 L422 221 L425 210 L431 204 Z M462 164 L464 178 L463 185 L455 195 L451 196 L451 198 L454 199 L460 207 L460 214 L458 218 L453 222 L446 222 L443 219 L443 213 L445 211 L451 211 L452 209 L445 204 L440 204 L438 201 L440 197 L446 197 L446 195 L437 195 L428 200 L423 206 L419 217 L419 227 L417 228 L414 223 L413 214 L415 205 L417 204 L420 196 L427 189 L433 186 L436 187 L436 190 L440 190 L442 183 L456 174 L459 166 Z M419 153 L423 159 L414 170 L410 182 L411 207 L410 217 L408 218 L406 215 L405 209 L403 207 L402 184 L404 176 L406 174 L411 161 Z M465 124 L466 134 L462 144 L453 152 L441 153 L440 149 L448 146 L448 144 L443 145 L442 141 L453 134 L462 124 Z M425 115 L430 119 L436 129 L437 146 L430 155 L426 155 L423 152 L427 145 L419 147 L409 157 L402 170 L399 182 L399 204 L402 216 L408 227 L408 229 L405 231 L401 227 L392 208 L390 198 L390 177 L392 168 L396 159 L400 156 L402 148 L419 128 L423 116 Z M461 35 L463 37 L462 44 L451 59 L449 68 L451 69 L451 72 L460 90 L462 91 L463 111 L456 125 L448 133 L443 134 L441 132 L442 127 L432 115 L435 103 L433 91 L436 90 L442 93 L447 101 L447 115 L445 121 L447 121 L449 117 L452 102 L446 92 L446 88 L442 88 L436 81 L434 69 L440 55 Z"/></svg>
