<svg xmlns="http://www.w3.org/2000/svg" width="512" height="512" viewBox="0 0 512 512" aria-hidden="true" focusable="false"><path fill="currentColor" fill-rule="evenodd" clip-rule="evenodd" d="M41 20 L40 36 L28 59 L29 75 L38 90 L29 90 L32 104 L20 141 L20 165 L28 192 L44 217 L86 244 L67 242 L41 230 L22 201 L20 269 L35 313 L53 328 L73 325 L83 315 L85 299 L81 292 L74 296 L76 288 L85 289 L93 305 L87 319 L66 342 L44 332 L34 321 L37 470 L31 492 L49 486 L218 486 L202 471 L198 452 L189 441 L200 427 L215 421 L232 425 L237 435 L230 440 L231 431 L210 434 L204 447 L208 468 L221 479 L238 480 L257 490 L291 493 L323 489 L296 466 L284 430 L317 474 L352 490 L381 490 L407 480 L421 485 L422 474 L446 486 L471 474 L494 477 L473 460 L451 465 L419 434 L397 434 L388 442 L382 434 L376 442 L364 442 L360 437 L380 423 L340 381 L312 370 L289 370 L291 350 L281 356 L238 356 L209 387 L184 402 L179 400 L180 390 L228 358 L238 338 L223 337 L199 324 L163 316 L178 300 L184 283 L178 253 L184 238 L163 242 L155 202 L135 178 L108 159 L103 149 L96 151 L88 169 L83 165 L77 142 L85 133 L71 131 L80 117 L80 102 L72 85 L49 64 L54 42 Z M328 472 L330 471 L331 473 L329 474 Z M312 448 L315 451 L314 454 L311 452 Z M314 455 L315 453 L318 453 L320 456 L323 457 L331 457 L338 451 L339 448 L344 445 L359 445 L360 447 L363 448 L375 448 L376 449 L376 452 L363 465 L356 465 L353 462 L349 462 L349 465 L346 466 L345 468 L339 468 L338 466 L327 465 L326 463 L319 460 Z M336 442 L334 447 L330 451 L324 451 L320 449 L321 445 L329 444 L331 441 Z M466 468 L454 478 L445 480 L420 466 L404 465 L404 468 L411 473 L410 475 L402 475 L388 482 L372 483 L371 485 L346 482 L333 475 L334 473 L364 471 L371 465 L379 464 L389 456 L392 446 L404 439 L414 439 L426 445 L435 454 L442 466 L452 473 L459 468 Z M62 438 L65 437 L70 444 L70 446 L77 453 L79 453 L86 459 L85 460 L63 460 L62 459 Z M89 434 L91 433 L92 435 L90 436 Z M143 430 L144 432 L141 434 L140 432 Z M282 426 L284 425 L285 427 L283 428 Z M271 404 L285 404 L288 407 L288 409 L285 411 L283 415 L282 423 L280 422 L276 412 L270 406 Z M262 397 L269 395 L271 393 L287 393 L288 395 L296 396 L297 398 L302 399 L309 406 L309 414 L305 417 L301 416 L300 413 L303 412 L303 407 L301 405 L295 404 L289 399 L270 398 L265 399 L263 401 Z M184 411 L194 401 L209 393 L242 393 L245 396 L243 406 L256 404 L271 417 L286 462 L303 484 L277 486 L252 482 L236 472 L233 459 L227 463 L225 472 L217 468 L210 455 L211 443 L221 436 L227 447 L235 447 L244 437 L241 426 L230 416 L214 414 L198 420 L182 436 Z M277 382 L286 376 L322 379 L339 389 L369 424 L354 433 L346 433 L335 425 L329 425 L327 429 L332 432 L330 436 L321 440 L304 439 L294 432 L289 417 L293 413 L295 419 L299 422 L311 422 L316 417 L316 406 L301 391 L293 388 L277 388 Z M223 384 L231 370 L237 364 L242 363 L243 361 L263 360 L268 361 L270 363 L283 364 L280 371 L273 378 L268 379 L266 381 L266 386 L256 393 L238 385 Z M163 351 L164 355 L155 369 L149 372 L120 373 L112 378 L104 387 L100 398 L101 417 L106 425 L121 436 L141 434 L137 440 L130 443 L116 443 L105 439 L95 429 L88 411 L89 388 L91 387 L95 374 L108 360 L125 352 Z M40 339 L56 343 L61 350 L52 381 L52 402 L55 412 L55 468 L107 467 L130 470 L150 465 L165 456 L174 445 L183 445 L190 451 L199 481 L182 480 L174 477 L168 469 L164 469 L163 480 L46 480 L43 482 L42 374 L49 373 L49 370 L42 362 Z M228 344 L225 351 L209 364 L189 362 L187 367 L194 372 L186 381 L177 385 L169 385 L155 376 L166 367 L170 356 L181 343 L131 344 L112 350 L90 369 L84 381 L81 410 L90 433 L88 434 L81 425 L74 406 L75 379 L86 356 L107 335 L137 323 L172 323 Z M137 294 L140 299 L145 300 L144 307 L134 317 L129 318 L128 320 L124 320 L123 318 L124 313 L126 312 L126 307 L130 301 L134 298 L134 296 Z M122 248 L126 252 L127 258 L126 271 L123 274 L121 273 L120 268 L117 266 L117 264 L108 256 L109 254 L116 253 Z M77 231 L79 230 L80 232 L78 233 Z M71 228 L72 227 L77 228 L78 230 L73 231 Z M116 225 L121 225 L125 227 L133 235 L136 241 L136 245 L138 246 L139 255 L138 273 L136 274 L135 284 L132 286 L129 292 L127 291 L126 284 L132 272 L132 264 L134 262 L134 259 L129 245 L124 241 L123 233 L121 231 L118 231 L116 235 L112 233 L112 229 Z M27 225 L45 241 L79 251 L82 259 L88 253 L102 259 L113 270 L121 289 L121 304 L112 325 L83 349 L70 373 L67 406 L75 428 L99 450 L108 453 L134 450 L149 436 L152 415 L142 405 L135 405 L132 410 L141 414 L141 421 L128 428 L115 420 L112 405 L117 394 L130 384 L142 381 L155 384 L173 400 L178 421 L170 441 L154 456 L138 462 L108 462 L85 451 L69 433 L60 410 L60 373 L72 345 L97 317 L100 300 L92 286 L68 280 L64 301 L77 306 L77 313 L64 321 L52 320 L42 309 L52 300 L42 298 L29 279 L25 255 Z M65 225 L67 224 L70 227 L68 228 Z M60 222 L62 221 L63 223 L61 224 Z M57 219 L59 218 L61 221 L59 222 Z M49 211 L51 210 L52 212 L50 213 Z M85 184 L86 191 L84 192 L84 200 L83 203 L81 204 L80 212 L78 213 L72 206 L72 199 L83 188 L83 185 Z M99 160 L128 181 L149 205 L156 231 L155 250 L148 260 L150 266 L155 268 L155 260 L165 250 L171 249 L178 275 L176 287 L171 298 L147 317 L144 315 L152 306 L152 296 L141 290 L144 245 L138 231 L124 219 L111 220 L106 225 L106 236 L116 244 L111 248 L104 248 L98 245 L86 230 L85 215 L89 203 L93 201 L98 206 L101 202 L100 196 L92 187 L92 174 Z M67 140 L70 141 L70 152 L77 164 L78 173 L80 175 L78 177 L78 183 L75 188 L67 195 L66 208 L67 211 L78 220 L77 222 L71 220 L55 206 L51 197 L51 193 L49 192 L49 176 L51 175 L54 177 L56 175 L55 170 L49 163 L49 159 L51 158 L52 153 L64 141 Z M46 42 L48 43 L46 55 L41 58 L41 63 L48 73 L66 87 L74 103 L74 113 L71 121 L52 137 L43 158 L45 166 L43 167 L41 180 L49 211 L32 186 L33 183 L29 178 L26 164 L26 142 L36 116 L37 107 L41 104 L45 111 L48 110 L48 94 L34 70 L34 61 Z"/></svg>
