<svg xmlns="http://www.w3.org/2000/svg" width="512" height="512" viewBox="0 0 512 512" aria-hidden="true" focusable="false"><path fill="currentColor" fill-rule="evenodd" clip-rule="evenodd" d="M223 359 L223 367 L226 372 L224 376 L231 377 L237 380 L246 389 L251 398 L253 406 L253 421 L247 436 L243 440 L245 441 L250 436 L254 426 L256 411 L255 402 L249 388 L243 381 L236 376 L233 376 L228 371 L225 365 L225 360 Z M130 351 L130 358 L132 358 L132 351 Z M89 211 L84 217 L80 228 L78 230 L75 241 L75 265 L77 276 L80 280 L84 295 L86 295 L86 292 L81 279 L80 271 L78 269 L77 246 L78 239 L80 237 L84 223 L92 212 Z M101 201 L99 201 L96 205 L94 205 L92 209 L94 209 L97 205 L99 205 Z M107 197 L108 200 L112 197 L126 196 L138 201 L143 209 L143 217 L140 222 L135 224 L130 223 L130 225 L138 226 L144 221 L146 216 L145 207 L141 201 L137 200 L136 197 L127 194 L118 194 Z M86 17 L91 35 L82 55 L84 72 L78 73 L74 82 L72 108 L76 119 L87 127 L102 122 L106 141 L99 159 L93 158 L82 143 L65 141 L73 160 L53 226 L53 253 L62 285 L48 289 L59 301 L60 349 L70 379 L57 382 L51 390 L59 391 L70 412 L84 421 L69 439 L66 473 L56 488 L72 491 L87 481 L107 483 L121 473 L124 456 L119 446 L107 441 L93 447 L101 435 L111 430 L128 430 L145 437 L133 461 L145 459 L165 475 L185 479 L205 464 L240 485 L280 496 L313 495 L354 482 L368 486 L363 470 L386 455 L391 462 L403 461 L408 454 L407 441 L431 450 L456 445 L465 428 L445 432 L408 414 L380 419 L378 408 L351 414 L337 405 L323 405 L301 421 L291 446 L295 458 L305 463 L287 472 L247 468 L283 437 L279 431 L288 409 L302 399 L290 391 L275 392 L266 399 L258 377 L227 348 L225 327 L217 330 L208 344 L209 365 L202 363 L200 380 L212 400 L226 399 L224 390 L237 396 L241 424 L237 426 L235 417 L224 406 L210 404 L195 417 L196 429 L210 440 L199 443 L177 429 L171 419 L169 399 L179 388 L178 380 L188 375 L179 368 L163 369 L147 389 L142 364 L146 349 L155 357 L167 358 L191 341 L196 304 L191 288 L177 272 L178 259 L165 268 L160 294 L140 307 L123 331 L113 309 L123 302 L124 285 L147 257 L138 251 L117 251 L98 263 L92 275 L88 270 L88 243 L105 215 L119 211 L117 228 L130 240 L143 239 L154 230 L157 207 L146 191 L165 168 L168 148 L160 153 L138 153 L134 149 L140 130 L139 103 L130 84 L105 59 L101 27 Z M231 468 L233 467 L236 469 L248 472 L249 475 L246 476 L232 470 Z M227 466 L229 465 L231 468 L228 469 Z M218 466 L224 465 L227 471 L226 472 L222 471 L218 468 Z M246 459 L244 462 L239 461 L240 459 L244 458 Z M341 457 L342 460 L339 462 L338 459 Z M90 456 L93 455 L94 459 L92 460 Z M321 456 L320 466 L313 474 L308 476 L305 479 L294 482 L268 482 L257 480 L252 477 L253 474 L264 476 L288 476 L296 474 L305 470 L311 465 L314 460 L316 450 L319 452 Z M247 450 L248 451 L247 454 L242 456 L241 454 Z M88 451 L89 448 L94 449 L93 451 L90 452 Z M344 441 L347 444 L346 450 L341 448 L342 443 Z M140 452 L149 446 L159 446 L165 448 L165 446 L160 442 L161 440 L163 440 L168 445 L170 445 L190 457 L189 460 L179 459 L175 457 L173 458 L181 462 L194 462 L198 460 L199 465 L196 467 L195 470 L189 473 L175 474 L162 469 L158 465 L157 462 L159 460 L162 460 L163 459 L162 458 L152 459 L145 455 L141 455 Z M174 440 L176 439 L180 442 L180 444 L178 445 Z M148 440 L150 439 L151 441 L149 442 Z M158 439 L160 438 L161 440 L159 441 Z M335 436 L337 435 L340 439 L338 440 Z M427 431 L431 429 L438 435 L437 436 L428 433 Z M455 439 L445 446 L432 446 L416 438 L402 438 L397 441 L405 449 L400 458 L395 459 L393 451 L384 451 L371 461 L354 467 L360 474 L358 478 L307 492 L267 490 L241 481 L229 474 L231 471 L249 480 L275 485 L298 484 L312 479 L323 466 L322 451 L315 446 L307 446 L312 451 L312 455 L304 459 L298 455 L296 449 L299 438 L309 430 L320 430 L334 442 L336 453 L328 472 L341 465 L351 467 L353 462 L365 457 L384 437 L397 429 L410 428 L439 439 Z M369 424 L370 426 L367 428 L364 428 L364 430 L369 430 L370 432 L365 436 L364 439 L355 448 L350 449 L349 446 L353 442 L355 442 L357 439 L359 427 Z M318 425 L321 424 L322 426 L319 427 Z M157 425 L159 424 L160 426 L158 427 Z M324 424 L326 422 L335 422 L340 424 L347 430 L349 439 L348 440 L345 439 L343 435 L335 428 L325 428 Z M155 422 L157 421 L158 423 L156 424 Z M426 427 L425 431 L417 427 L411 426 L399 426 L392 428 L388 432 L383 434 L363 455 L349 461 L344 460 L345 456 L360 449 L365 444 L370 436 L374 437 L374 429 L378 425 L391 418 L397 417 L407 418 L409 420 L418 422 Z M159 433 L157 435 L146 430 L143 431 L128 426 L109 426 L100 429 L91 436 L85 447 L89 464 L98 467 L106 465 L110 461 L110 456 L107 455 L107 459 L101 461 L97 454 L102 447 L111 446 L115 448 L120 455 L120 465 L117 471 L107 479 L93 479 L86 474 L86 470 L81 468 L78 459 L76 459 L78 469 L84 477 L76 485 L65 485 L71 472 L70 454 L73 440 L78 431 L91 421 L106 416 L129 417 L147 424 Z M303 427 L307 420 L312 415 L319 411 L328 409 L338 410 L344 413 L348 417 L349 423 L353 418 L357 416 L360 417 L372 416 L373 417 L372 421 L369 421 L357 426 L356 434 L354 438 L351 437 L352 433 L345 423 L338 420 L334 420 L332 418 L326 418 L324 420 L321 420 L315 423 L312 426 L305 428 Z M229 416 L233 425 L233 430 L230 439 L220 450 L216 452 L208 453 L206 455 L200 455 L198 453 L187 451 L182 447 L183 444 L195 446 L210 445 L219 437 L222 428 L219 422 L213 418 L207 421 L208 424 L213 423 L215 425 L215 430 L212 433 L206 433 L201 429 L199 421 L201 415 L205 411 L209 409 L220 409 Z M290 395 L292 399 L286 404 L280 425 L272 433 L265 434 L265 436 L272 435 L275 437 L273 443 L261 455 L250 460 L248 456 L258 448 L256 447 L253 450 L250 449 L252 444 L258 438 L262 429 L265 417 L265 408 L267 404 L272 399 L274 399 L275 397 L279 397 L280 395 Z M97 386 L99 385 L101 389 L99 390 Z M62 386 L65 384 L71 384 L79 387 L82 390 L84 390 L84 388 L88 386 L94 394 L81 399 L82 402 L85 402 L86 400 L89 399 L101 400 L109 404 L116 411 L112 413 L103 413 L97 415 L91 414 L84 415 L83 413 L86 412 L86 409 L82 405 L83 410 L80 413 L78 413 L76 411 L76 406 L70 405 L69 400 Z M169 371 L174 371 L179 373 L175 377 L174 385 L168 390 L165 399 L165 411 L168 423 L171 428 L174 430 L173 433 L169 431 L166 428 L166 425 L163 423 L164 420 L161 412 L158 413 L156 412 L153 396 L155 384 L157 382 L160 382 L160 377 Z M120 368 L122 369 L125 383 L127 384 L133 400 L142 413 L141 415 L128 405 L122 398 L117 388 L116 373 Z M112 346 L114 346 L116 349 L115 359 L119 359 L123 363 L117 365 L112 371 L111 384 L117 398 L123 406 L127 409 L126 413 L113 403 L111 398 L106 398 L103 395 L104 393 L106 393 L106 389 L102 383 L101 375 L105 366 L101 368 L99 366 L101 358 Z M220 334 L219 340 L227 355 L248 372 L258 385 L262 397 L262 418 L257 433 L247 446 L243 445 L243 449 L232 456 L216 459 L215 462 L217 464 L214 465 L207 459 L219 455 L238 439 L247 417 L246 405 L237 390 L230 386 L223 386 L219 388 L218 396 L216 397 L209 392 L205 385 L205 371 L218 374 L218 370 L212 362 L211 351 L214 340 Z M188 330 L189 334 L187 340 L185 342 L181 342 L179 332 Z M87 330 L91 334 L94 342 L92 351 L90 352 L87 361 L87 371 L89 376 L88 378 L84 374 L81 362 L81 352 L84 343 L84 331 Z M111 322 L115 325 L115 328 L121 338 L120 347 L113 339 L110 338 L110 331 L108 324 Z M108 317 L110 316 L111 318 L109 319 Z M90 302 L92 301 L93 304 L91 305 Z M60 290 L70 294 L80 303 L81 317 L87 306 L97 315 L105 327 L106 344 L104 350 L98 356 L96 364 L97 382 L93 381 L89 369 L90 357 L96 346 L95 334 L90 327 L81 324 L75 326 L81 335 L77 352 L77 363 L86 383 L85 385 L82 385 L77 381 L66 361 L64 351 L64 306 L59 292 Z M118 271 L122 279 L120 286 L121 296 L119 301 L116 304 L112 304 L110 302 L109 303 L110 315 L108 316 L104 305 L104 287 L107 279 L114 272 Z M171 268 L183 289 L180 300 L187 295 L190 296 L192 303 L190 322 L186 327 L177 328 L169 322 L172 315 L162 320 L151 321 L139 330 L131 345 L133 348 L140 332 L154 323 L164 323 L170 326 L177 335 L176 346 L167 354 L159 354 L153 349 L153 341 L160 339 L165 345 L165 338 L162 335 L151 336 L142 346 L139 356 L139 376 L142 390 L155 416 L151 419 L137 399 L126 372 L129 364 L124 358 L124 343 L129 328 L137 315 L150 305 L155 312 L157 302 L164 297 L168 290 L166 276 Z M138 255 L139 257 L135 261 L134 269 L128 276 L124 276 L122 274 L122 272 L125 271 L123 267 L118 267 L110 271 L105 276 L102 282 L100 291 L101 304 L103 306 L103 310 L100 311 L96 304 L94 294 L94 285 L96 276 L101 266 L105 262 L116 257 L118 258 L118 262 L120 262 L121 258 L125 255 L129 254 Z M137 191 L153 207 L154 218 L151 227 L140 236 L127 235 L121 227 L121 218 L127 213 L133 215 L135 213 L123 205 L108 208 L95 219 L87 233 L83 254 L85 275 L92 298 L82 299 L73 282 L68 254 L70 234 L76 217 L92 198 L104 191 L121 187 Z M164 157 L164 160 L160 167 L152 172 L146 173 L151 174 L153 179 L142 188 L136 188 L134 186 L128 187 L126 185 L107 185 L108 182 L122 174 L138 173 L138 171 L120 172 L115 176 L111 177 L107 182 L103 184 L101 183 L107 173 L117 163 L124 159 L132 157 L133 163 L135 163 L136 159 L141 156 Z M80 147 L87 155 L88 166 L90 167 L93 165 L97 173 L97 186 L95 191 L88 197 L84 184 L82 184 L84 197 L74 213 L66 233 L64 256 L66 271 L72 287 L70 289 L64 279 L59 260 L58 225 L64 199 L76 168 L76 150 Z M120 139 L122 140 L121 144 L119 143 Z M120 121 L123 122 L124 126 L122 137 L120 136 L119 126 Z M82 74 L84 73 L85 75 L83 76 Z M95 27 L100 34 L100 59 L117 81 L115 99 L118 101 L119 92 L126 86 L132 96 L136 115 L132 143 L127 154 L121 156 L126 134 L123 110 L121 110 L122 117 L118 118 L111 107 L101 99 L98 85 L96 85 L98 99 L87 105 L87 111 L90 113 L89 108 L94 103 L103 104 L115 120 L117 129 L116 144 L102 173 L99 170 L109 147 L108 123 L101 113 L98 113 L99 117 L94 123 L88 123 L79 116 L76 108 L78 82 L80 80 L87 84 L89 82 L86 55 L94 41 Z"/></svg>
