<svg xmlns="http://www.w3.org/2000/svg" width="512" height="512" viewBox="0 0 512 512" aria-hidden="true" focusable="false"><path fill="currentColor" fill-rule="evenodd" clip-rule="evenodd" d="M440 17 L437 46 L414 84 L417 121 L413 136 L388 173 L383 196 L379 184 L369 196 L363 215 L357 216 L344 247 L344 260 L353 271 L362 271 L371 264 L368 283 L349 312 L344 314 L339 295 L343 284 L340 272 L293 337 L289 352 L292 370 L286 355 L272 372 L257 367 L257 386 L220 410 L213 422 L191 430 L145 478 L136 481 L134 473 L115 467 L116 479 L96 474 L65 494 L78 496 L97 488 L115 496 L448 495 L448 398 L432 397 L432 293 L439 277 L434 208 L438 199 L432 193 L431 200 L420 208 L417 198 L421 182 L430 179 L441 162 L438 156 L443 129 L432 93 L432 79 L447 43 Z M349 488 L351 487 L352 489 L350 490 Z M151 486 L150 488 L138 490 L136 488 L137 486 L147 486 L148 485 Z M151 485 L153 484 L154 486 L152 487 Z M103 485 L108 483 L109 480 L111 480 L116 485 L122 488 L124 491 L123 492 L111 491 L104 487 Z M377 480 L379 479 L385 485 L385 487 L383 488 L378 483 Z M360 479 L361 481 L353 488 L352 486 Z M89 483 L95 478 L103 479 L102 481 L96 481 L91 484 Z M369 474 L371 475 L373 482 L379 489 L378 491 L360 491 L359 490 L366 481 Z M363 474 L364 476 L361 479 L360 477 Z M122 474 L129 474 L131 476 L131 479 L126 481 L128 485 L127 487 L125 487 L121 481 Z M363 472 L365 471 L366 473 L364 474 Z M296 469 L301 468 L304 464 L312 463 L316 466 L317 470 L322 476 L333 481 L344 481 L345 484 L340 486 L325 486 L313 484 L312 483 L314 480 L313 478 L310 478 L308 480 L303 479 L299 476 L302 473 L302 471 L297 471 Z M427 462 L426 473 L424 477 L417 484 L409 486 L396 486 L388 482 L389 480 L404 481 L410 478 L416 472 L420 464 L425 461 Z M369 461 L371 462 L372 465 L370 472 L367 470 L367 464 Z M363 461 L364 463 L361 466 L360 464 Z M326 461 L327 460 L330 462 L335 461 L338 466 L342 470 L347 472 L348 474 L338 475 L331 472 L330 469 L327 467 Z M307 484 L306 486 L181 485 L181 483 L187 477 L191 476 L263 475 L276 468 L284 460 L287 462 L286 467 L288 471 L298 481 Z M201 461 L200 463 L193 463 L185 467 L168 485 L160 489 L158 488 L158 486 L161 485 L170 476 L170 474 L181 464 L187 461 L197 459 Z M181 460 L166 474 L153 480 L150 479 L166 461 L173 458 L177 458 Z M365 455 L367 454 L368 456 L366 457 Z M367 453 L370 452 L371 454 L368 455 Z M277 452 L278 454 L273 458 L272 456 Z M285 449 L287 448 L288 450 L286 451 Z M279 449 L281 446 L285 447 L284 449 L281 450 Z M312 445 L313 447 L307 451 L306 449 Z M320 444 L326 446 L328 450 L331 450 L333 453 L333 456 L331 458 L324 455 L324 465 L328 471 L327 473 L321 468 L320 466 L321 462 L318 459 L318 449 Z M288 444 L290 443 L296 446 L303 445 L304 447 L297 450 L290 448 Z M312 443 L314 442 L315 444 L313 445 Z M308 441 L310 440 L311 442 L309 443 Z M310 438 L312 437 L313 439 L311 440 Z M284 433 L283 441 L280 442 L277 448 L269 456 L257 463 L246 467 L225 468 L211 466 L202 460 L200 456 L200 452 L197 450 L203 443 L212 441 L213 442 L212 453 L219 460 L226 463 L244 463 L262 456 L263 454 L267 452 L274 443 L276 443 L278 436 L282 432 Z M422 430 L423 433 L425 434 L427 441 L426 454 L423 457 L421 456 L422 445 L420 444 L420 449 L416 453 L413 454 L414 456 L417 457 L417 461 L412 471 L402 477 L389 476 L388 475 L389 473 L395 471 L401 465 L404 458 L405 450 L409 447 L415 447 L416 436 Z M369 429 L372 431 L374 436 L377 438 L377 440 L379 441 L379 443 L381 444 L383 448 L384 458 L382 462 L380 461 L376 452 L369 445 L361 453 L357 461 L355 460 L354 454 L356 446 L364 434 Z M230 434 L231 442 L228 447 L226 446 L226 442 L221 438 L208 437 L200 441 L193 449 L191 449 L191 452 L196 453 L194 457 L184 459 L183 456 L180 456 L177 454 L183 447 L184 444 L187 442 L187 440 L196 431 L201 428 L208 426 L218 426 L225 429 Z M346 421 L348 424 L344 428 L343 423 Z M313 422 L315 421 L316 423 L314 424 Z M216 420 L221 419 L225 423 L223 424 L217 422 Z M341 416 L342 413 L345 414 L343 417 Z M310 423 L310 431 L302 441 L295 442 L290 439 L287 443 L286 437 L290 431 L295 433 L296 438 L299 438 L299 432 L293 426 L283 426 L263 450 L247 458 L228 459 L220 456 L216 451 L216 446 L219 443 L223 445 L221 448 L223 452 L229 451 L234 446 L235 436 L231 429 L232 427 L240 429 L253 428 L261 424 L266 419 L266 416 L269 415 L268 411 L276 406 L294 406 L305 414 Z M310 405 L312 404 L313 406 L311 407 Z M368 398 L372 400 L381 415 L378 424 L384 422 L392 434 L393 442 L391 443 L391 446 L396 445 L399 447 L400 456 L398 461 L393 467 L386 470 L383 468 L388 459 L387 447 L373 427 L370 420 L368 420 L351 448 L350 457 L355 469 L353 470 L346 468 L339 459 L339 447 L341 444 L348 446 L344 438 L354 422 L359 424 L357 417 L358 412 Z M246 412 L261 400 L272 396 L285 395 L303 402 L311 410 L314 416 L312 417 L303 406 L289 401 L276 402 L268 405 L265 408 L260 409 L263 415 L257 422 L254 421 L254 416 L249 416 Z M265 393 L263 397 L256 400 L244 410 L243 414 L249 420 L246 424 L243 425 L236 424 L223 415 L225 412 L229 410 L237 410 L236 405 L251 392 L260 389 Z M370 378 L372 381 L374 390 L372 391 L370 388 L368 388 L366 393 L364 394 L363 391 L367 380 Z M292 376 L308 384 L316 392 L318 396 L319 404 L318 407 L316 406 L314 401 L305 392 L290 384 Z M261 374 L268 375 L271 377 L272 383 L277 390 L275 393 L268 391 L264 387 L261 382 L260 377 Z M407 372 L410 372 L412 374 L410 380 L413 383 L422 383 L422 407 L438 408 L437 486 L423 485 L428 479 L431 472 L431 441 L429 429 L432 421 L423 423 L418 427 L416 426 L415 413 L404 391 L402 382 L403 377 Z M325 370 L327 369 L328 371 L326 372 Z M327 365 L329 364 L330 366 L328 367 Z M281 364 L283 365 L284 369 L288 373 L288 380 L286 381 L286 383 L291 388 L303 394 L311 402 L310 404 L294 394 L286 393 L279 389 L276 382 L276 373 L278 367 Z M383 363 L385 364 L385 368 L388 369 L387 378 L385 380 L383 379 L381 375 L381 365 Z M316 359 L319 360 L322 366 L321 371 L319 373 L317 372 L315 366 Z M323 351 L329 353 L328 356 L324 360 L322 359 Z M330 341 L331 343 L326 348 L321 347 L319 349 L318 355 L314 356 L313 362 L310 363 L308 355 L309 350 L313 343 L316 340 Z M338 337 L339 339 L336 341 L335 339 Z M421 309 L421 377 L417 380 L416 372 L411 368 L406 368 L400 373 L397 380 L400 392 L412 418 L412 431 L406 442 L404 438 L405 431 L403 430 L404 422 L402 414 L392 396 L389 386 L389 376 L394 363 L389 364 L388 360 L396 342 Z M428 301 L429 303 L424 307 L423 305 Z M332 289 L333 304 L337 303 L340 311 L339 327 L329 337 L322 337 L319 335 L320 332 L328 330 L332 325 L333 314 L330 313 L330 321 L328 325 L321 330 L315 331 L315 335 L307 344 L305 349 L306 364 L319 380 L318 385 L316 386 L306 379 L298 369 L295 361 L295 345 L304 326 L318 312 L320 313 L320 318 L323 317 L323 299 Z M434 266 L435 279 L431 289 L389 339 L380 354 L377 363 L377 377 L379 383 L399 419 L399 432 L396 433 L388 420 L388 416 L385 415 L376 400 L377 388 L371 371 L368 370 L362 383 L361 396 L363 399 L358 405 L355 405 L353 401 L353 382 L358 370 L374 346 L384 335 L414 292 L423 286 L427 279 L427 275 Z M414 256 L420 263 L420 272 L416 282 L385 326 L375 337 L375 339 L361 357 L351 374 L348 386 L348 396 L350 406 L354 414 L352 416 L346 409 L343 400 L344 376 L351 361 L361 347 L361 345 L371 334 L373 329 L404 287 L410 272 L412 257 Z M358 230 L359 233 L365 238 L365 244 L367 245 L370 243 L376 249 L381 259 L381 271 L379 273 L377 282 L371 295 L356 314 L348 327 L344 330 L343 326 L345 322 L353 314 L353 312 L368 292 L375 274 L375 262 L372 256 L367 252 L362 251 L356 255 L356 261 L358 261 L358 258 L362 255 L366 256 L369 259 L369 261 L366 262 L362 267 L355 267 L349 260 L350 243 L354 232 Z M423 228 L425 227 L426 229 L424 230 Z M420 227 L424 231 L420 235 L417 246 L420 252 L418 254 L413 247 L412 240 L415 232 Z M361 226 L363 225 L364 228 L362 229 Z M383 216 L388 217 L389 215 L391 215 L395 222 L397 234 L399 236 L399 242 L396 253 L394 252 L393 238 L390 229 L386 222 L381 219 Z M426 209 L428 210 L428 217 L432 218 L434 230 L431 237 L426 241 L425 247 L427 247 L431 242 L433 241 L435 242 L435 254 L429 266 L427 265 L427 259 L420 248 L420 240 L428 232 L428 225 L424 225 L422 222 L422 215 Z M379 206 L381 205 L387 211 L381 213 Z M374 197 L377 198 L373 212 L374 220 L378 225 L383 226 L389 240 L390 256 L386 269 L384 268 L385 260 L382 250 L370 236 L371 231 L367 224 L368 208 Z M420 165 L421 169 L427 170 L427 173 L423 174 L414 185 L413 203 L415 212 L418 218 L415 221 L414 228 L410 231 L405 210 L404 189 L411 172 Z M425 164 L428 162 L434 163 L433 166 L426 166 Z M437 140 L438 144 L436 152 L432 158 L429 158 L428 155 L433 147 L434 142 Z M436 135 L438 134 L439 136 L437 137 Z M439 51 L427 83 L432 119 L431 140 L425 154 L406 173 L401 186 L401 205 L408 234 L408 271 L399 290 L359 344 L343 372 L340 384 L342 406 L338 407 L336 421 L339 437 L334 446 L325 441 L329 431 L327 380 L344 344 L385 290 L397 266 L401 250 L401 230 L389 204 L387 190 L394 171 L405 159 L419 135 L419 84 L426 68 Z"/></svg>
