<svg xmlns="http://www.w3.org/2000/svg" width="512" height="512" viewBox="0 0 512 512" aria-hidden="true" focusable="false"><path fill="currentColor" fill-rule="evenodd" clip-rule="evenodd" d="M472 18 L454 34 L420 40 L396 55 L388 73 L390 103 L379 118 L375 118 L378 98 L369 76 L349 102 L313 116 L299 133 L299 160 L277 192 L275 175 L280 152 L264 160 L244 182 L235 206 L235 228 L227 231 L219 268 L224 288 L237 301 L258 303 L271 289 L283 301 L286 329 L282 345 L264 376 L252 387 L246 362 L238 355 L228 383 L212 398 L196 402 L209 375 L211 346 L209 333 L190 297 L191 279 L201 264 L180 268 L163 286 L157 313 L150 311 L142 334 L143 347 L152 361 L168 363 L175 359 L177 373 L170 390 L160 402 L143 411 L137 390 L123 376 L121 397 L107 422 L109 398 L98 375 L90 394 L73 410 L60 415 L50 430 L47 481 L42 495 L168 493 L195 482 L219 489 L242 489 L289 473 L295 468 L292 461 L311 454 L328 438 L323 432 L346 418 L362 386 L357 382 L374 353 L376 329 L368 327 L374 319 L378 292 L370 270 L370 252 L383 223 L362 227 L332 247 L328 233 L331 208 L345 190 L367 183 L377 198 L397 199 L412 193 L427 178 L439 144 L436 140 L423 145 L438 117 L435 77 L467 46 Z M166 446 L166 448 L159 454 L159 456 L143 472 L141 472 L139 475 L129 480 L128 482 L113 487 L95 486 L96 483 L105 479 L108 475 L110 475 L121 466 L121 464 L134 451 L149 445 Z M190 414 L190 417 L186 425 L173 439 L152 439 L145 440 L144 442 L140 443 L137 442 L139 434 L148 426 L153 425 L157 422 L167 421 L168 419 L180 417 L184 414 L188 413 Z M129 389 L137 406 L137 426 L125 453 L107 471 L87 483 L76 487 L60 487 L50 490 L54 477 L64 477 L77 473 L92 465 L106 452 L104 450 L87 463 L67 471 L53 472 L50 469 L50 463 L55 457 L83 449 L98 439 L113 424 L125 401 L126 391 Z M100 389 L103 397 L102 420 L97 431 L88 440 L75 447 L55 451 L53 448 L53 437 L57 428 L68 418 L82 410 L93 399 Z M355 384 L357 383 L358 385 L356 386 Z M242 369 L246 380 L242 416 L223 446 L200 462 L184 464 L182 468 L194 475 L184 483 L170 487 L134 487 L133 485 L145 477 L178 443 L206 430 L206 427 L194 431 L189 429 L197 413 L220 398 L231 387 Z M337 295 L339 299 L339 328 L335 348 L314 393 L295 416 L273 434 L248 447 L227 452 L226 450 L239 433 L256 425 L271 414 L294 390 L306 371 L318 339 L320 315 L322 314 L320 300 Z M273 273 L283 277 L291 285 L298 299 L300 312 L299 333 L295 348 L282 374 L263 396 L251 404 L250 396 L254 394 L269 379 L275 368 L278 366 L279 361 L285 352 L287 341 L289 339 L288 336 L290 335 L291 313 L290 305 L285 293 L278 286 L272 283 L266 283 L264 285 L266 289 L263 292 L258 292 L255 289 L255 280 L261 274 Z M188 271 L185 296 L191 312 L202 329 L206 344 L206 364 L202 380 L193 397 L180 411 L143 423 L144 417 L158 410 L170 399 L181 377 L181 358 L175 348 L170 347 L170 354 L166 358 L158 358 L151 353 L147 343 L147 332 L152 321 L161 329 L167 330 L162 316 L163 300 L174 280 Z M371 230 L366 265 L359 283 L371 281 L371 312 L364 325 L350 337 L359 339 L370 335 L370 347 L356 377 L330 389 L332 393 L354 392 L346 409 L326 426 L299 427 L319 438 L307 450 L290 456 L263 451 L263 455 L285 467 L273 475 L245 483 L202 479 L203 471 L196 467 L264 445 L287 430 L314 402 L334 366 L344 323 L342 286 L321 294 L323 276 L345 243 Z M272 162 L270 196 L280 231 L280 245 L284 247 L287 239 L292 238 L307 253 L314 267 L316 318 L310 349 L294 381 L266 411 L246 424 L247 414 L271 395 L289 372 L305 328 L301 292 L285 272 L271 267 L257 271 L250 281 L253 299 L237 295 L226 278 L225 257 L230 239 L249 249 L239 223 L243 196 L253 178 Z M464 35 L459 48 L432 70 L428 94 L432 100 L431 122 L424 136 L408 147 L414 151 L432 150 L426 170 L413 186 L397 194 L376 191 L373 179 L355 179 L342 186 L324 213 L328 256 L320 267 L310 230 L312 208 L320 191 L349 169 L386 169 L376 163 L357 162 L332 172 L308 205 L306 243 L294 232 L295 205 L303 185 L333 155 L392 142 L406 128 L412 102 L402 126 L389 138 L339 147 L308 169 L292 197 L286 231 L279 216 L280 196 L302 166 L307 129 L319 119 L352 106 L368 87 L372 109 L363 127 L378 125 L394 108 L394 72 L400 59 L416 47 Z"/></svg>
