<svg xmlns="http://www.w3.org/2000/svg" width="512" height="512" viewBox="0 0 512 512" aria-hidden="true" focusable="false"><path fill="currentColor" fill-rule="evenodd" clip-rule="evenodd" d="M254 367 L254 381 L250 388 L251 391 L248 394 L249 398 L247 400 L247 402 L251 402 L252 404 L249 407 L247 407 L244 414 L244 418 L248 424 L252 426 L260 426 L266 421 L267 418 L266 414 L260 410 L255 410 L251 414 L252 419 L250 420 L248 418 L248 413 L251 409 L258 406 L262 407 L266 406 L265 403 L261 402 L264 399 L264 397 L257 395 L258 393 L262 393 L263 391 L260 388 L260 385 L258 383 L257 375 L258 369 L257 366 Z M249 312 L246 315 L246 319 L249 321 L247 324 L247 328 L250 329 L254 327 L257 329 L263 329 L266 325 L265 321 L262 319 L265 313 L262 312 L260 314 L256 311 Z M252 315 L255 315 L260 318 L257 324 L252 321 L251 317 Z M339 285 L336 308 L334 309 L334 312 L336 312 L337 314 L331 316 L333 320 L330 322 L330 325 L334 326 L335 329 L328 334 L327 344 L332 350 L337 352 L343 352 L347 350 L350 346 L349 338 L345 335 L338 335 L334 339 L333 344 L330 342 L332 335 L336 332 L341 330 L346 331 L350 330 L350 327 L342 325 L343 323 L347 323 L348 320 L342 318 L343 316 L346 315 L346 312 L341 311 L343 309 L343 306 L341 300 L341 286 Z M335 346 L338 345 L339 347 L336 348 Z M344 341 L346 340 L347 343 L345 344 Z M335 326 L337 325 L338 327 L336 328 Z M171 285 L169 307 L165 315 L166 320 L163 322 L163 325 L168 326 L169 328 L162 333 L160 337 L160 343 L161 346 L166 351 L175 352 L178 351 L184 344 L183 338 L174 334 L168 338 L169 344 L168 346 L164 343 L165 335 L168 332 L173 330 L183 329 L183 327 L176 325 L177 323 L181 322 L181 319 L175 318 L176 316 L179 315 L179 312 L176 310 L176 306 L174 305 L175 303 L174 287 Z M174 346 L176 345 L177 347 L175 348 Z M168 346 L170 345 L171 347 L169 348 Z M178 340 L180 341 L179 345 L177 344 Z M171 340 L173 339 L174 341 L172 342 Z M195 242 L191 246 L191 248 L194 250 L191 255 L191 261 L194 264 L198 264 L201 258 L200 256 L197 256 L196 254 L198 252 L202 252 L206 256 L203 262 L207 264 L208 253 L202 248 L209 247 L209 244 L204 243 L201 245 Z M195 259 L197 258 L198 260 L196 261 Z M247 191 L244 196 L244 198 L247 200 L245 205 L249 207 L249 205 L252 204 L256 207 L262 207 L263 204 L265 203 L265 199 L262 197 L265 194 L265 192 L262 190 Z M249 197 L251 193 L254 195 L259 194 L262 195 L261 197 L257 199 L256 202 L251 200 Z M254 155 L248 161 L250 170 L204 216 L186 193 L176 196 L176 203 L188 206 L200 220 L167 253 L158 253 L154 260 L158 266 L167 266 L201 300 L196 308 L187 310 L190 321 L198 318 L205 304 L249 348 L249 358 L258 362 L263 357 L262 349 L307 304 L317 321 L325 318 L325 311 L310 301 L344 266 L354 266 L357 256 L345 253 L311 219 L324 206 L335 204 L334 194 L323 194 L322 203 L308 216 L261 170 L263 160 Z M252 352 L258 351 L260 356 L255 359 L252 356 Z M318 311 L322 312 L322 316 L320 318 L316 316 L316 313 Z M190 312 L194 311 L196 315 L192 318 L190 316 Z M254 281 L257 280 L258 282 L255 283 Z M207 300 L228 280 L257 308 L285 280 L304 302 L260 347 L252 347 Z M250 271 L253 268 L258 268 L262 271 L262 273 L255 274 L251 273 Z M245 264 L249 266 L245 274 L247 280 L250 282 L249 287 L253 288 L255 293 L257 293 L258 290 L262 287 L262 282 L266 277 L266 272 L263 268 L265 264 L270 266 L281 276 L275 284 L257 302 L255 302 L231 278 L231 275 Z M257 264 L258 261 L262 262 L259 265 Z M250 262 L253 261 L254 263 L251 264 Z M348 255 L351 255 L354 258 L354 261 L352 263 L348 263 L346 261 L346 257 Z M160 255 L163 255 L166 258 L166 261 L164 263 L160 263 L158 261 L158 257 Z M307 247 L309 246 L311 249 L309 250 Z M283 246 L285 246 L298 259 L285 274 L283 274 L269 262 L269 260 Z M226 246 L228 246 L243 260 L242 263 L234 268 L229 273 L225 273 L214 260 Z M202 222 L224 242 L211 258 L212 263 L224 278 L205 298 L169 263 L169 256 Z M309 221 L343 256 L343 263 L306 298 L287 277 L301 261 L306 264 L312 262 L312 257 L307 255 L310 252 L314 252 L317 255 L315 263 L318 264 L320 262 L320 254 L314 248 L321 247 L321 244 L316 242 L313 245 L307 242 L303 246 L305 252 L301 258 L287 242 Z M255 218 L257 218 L281 242 L281 244 L264 261 L262 260 L260 255 L264 253 L265 248 L263 248 L260 252 L257 250 L253 252 L250 251 L251 246 L258 246 L263 241 L263 236 L259 232 L252 232 L248 235 L250 239 L252 239 L254 235 L257 235 L260 238 L260 240 L257 243 L249 243 L246 246 L247 252 L251 255 L249 261 L230 243 Z M327 196 L332 197 L331 203 L327 203 L325 201 L325 198 Z M181 196 L184 196 L187 199 L186 202 L183 204 L179 200 Z M206 218 L254 171 L258 171 L306 219 L284 240 L255 212 L227 240 Z M254 159 L259 160 L260 165 L258 167 L254 167 L252 165 L252 161 Z M329 122 L329 132 L328 133 L329 141 L327 142 L328 146 L325 148 L326 152 L323 155 L324 160 L321 163 L323 165 L327 165 L328 167 L322 171 L319 176 L320 184 L324 187 L333 189 L340 185 L341 183 L340 176 L336 173 L331 173 L327 176 L326 183 L322 179 L323 175 L327 171 L332 169 L341 169 L341 166 L334 164 L335 162 L339 161 L339 158 L332 156 L333 154 L337 154 L337 152 L334 149 L335 146 L332 144 L333 142 L332 122 Z M326 183 L328 182 L329 184 L327 185 Z M182 122 L180 122 L179 130 L180 136 L174 155 L178 155 L179 157 L172 158 L172 162 L177 162 L178 164 L170 170 L168 175 L170 184 L173 187 L178 189 L187 187 L191 184 L192 181 L191 175 L185 171 L180 171 L176 175 L176 179 L180 183 L179 185 L175 184 L172 179 L172 174 L178 168 L184 166 L190 167 L192 165 L188 162 L183 161 L184 159 L189 159 L189 157 L187 155 L182 154 L183 152 L188 152 L188 150 L185 147 L185 143 L183 142 L184 139 Z M186 180 L187 182 L184 185 L182 185 L181 183 Z M254 89 L254 105 L253 110 L251 112 L253 117 L249 118 L251 123 L247 124 L247 127 L249 128 L253 127 L254 129 L245 136 L244 143 L247 148 L257 151 L262 149 L265 146 L266 143 L265 140 L260 136 L256 136 L252 138 L251 143 L253 145 L251 147 L248 144 L248 138 L251 134 L259 131 L265 132 L266 130 L258 127 L259 125 L263 125 L264 123 L260 120 L262 115 L258 114 L260 110 L258 108 L257 89 Z M261 143 L262 145 L259 147 L258 145 Z M254 17 L234 60 L196 87 L168 91 L160 117 L118 163 L107 191 L105 243 L116 317 L144 379 L178 424 L257 496 L271 477 L330 428 L376 365 L399 304 L407 223 L400 175 L385 151 L352 117 L344 91 L311 85 L279 61 Z M269 453 L271 452 L273 455 L270 456 Z M241 451 L243 452 L243 455 L239 456 L238 454 Z M255 439 L258 440 L265 452 L263 462 L268 460 L270 461 L267 465 L262 467 L257 472 L255 472 L250 467 L245 465 L242 462 L243 460 L247 462 L249 461 L247 456 L247 451 Z M293 429 L290 433 L286 435 L286 437 L290 439 L290 443 L287 449 L282 452 L275 450 L273 447 L273 443 L275 441 L279 443 L277 445 L277 448 L280 448 L283 446 L282 439 L274 437 L270 440 L268 446 L264 442 L264 438 L271 433 L283 431 L289 428 Z M219 429 L222 428 L229 431 L241 433 L248 439 L248 441 L244 445 L241 439 L237 437 L232 438 L229 440 L229 446 L234 448 L235 445 L233 444 L233 442 L237 441 L239 443 L239 447 L235 451 L230 452 L226 450 L222 444 L222 439 L225 438 L226 435 L222 433 Z M330 405 L331 407 L323 419 L309 433 L301 439 L294 442 L293 440 L296 436 L301 434 L309 428 L313 422 L313 417 L319 415 L323 411 L326 405 Z M181 406 L186 405 L189 412 L198 417 L199 422 L202 427 L209 433 L216 436 L219 441 L218 442 L214 441 L194 425 L187 417 Z M403 232 L404 233 L403 244 L399 248 L394 249 L391 246 L391 242 L393 240 L397 241 L398 237 Z M109 232 L114 237 L115 241 L119 240 L121 242 L121 246 L119 248 L114 249 L110 246 L108 242 Z M369 203 L372 203 L374 205 L372 210 L368 206 Z M143 203 L144 205 L142 209 L140 210 L138 205 L140 203 Z M141 177 L145 183 L145 193 L133 207 L123 213 L120 220 L125 233 L128 234 L130 227 L135 231 L132 251 L118 261 L121 297 L130 330 L146 364 L165 393 L168 393 L168 382 L174 382 L175 373 L187 365 L194 392 L188 400 L180 400 L180 391 L184 392 L184 396 L188 394 L184 379 L180 381 L180 387 L174 394 L178 410 L207 441 L227 455 L236 455 L239 466 L249 471 L255 479 L274 463 L277 456 L287 454 L311 436 L334 410 L338 395 L330 379 L324 395 L328 396 L331 391 L333 399 L326 401 L318 393 L325 366 L328 365 L336 372 L338 382 L344 382 L346 393 L364 367 L381 332 L392 290 L393 259 L384 256 L379 250 L380 236 L377 230 L381 227 L384 234 L387 233 L392 221 L389 213 L367 194 L366 186 L370 177 L374 181 L373 194 L378 196 L380 193 L398 217 L398 229 L387 241 L387 247 L399 253 L396 299 L387 331 L372 364 L334 418 L309 443 L271 472 L257 488 L205 445 L177 417 L148 378 L127 337 L115 295 L112 268 L113 253 L121 251 L125 241 L116 234 L113 221 L120 205 L132 193 L138 195 L138 180 Z M255 81 L270 91 L289 85 L309 98 L332 103 L339 122 L377 162 L390 186 L387 195 L366 166 L364 207 L385 221 L373 222 L374 248 L390 266 L384 309 L363 361 L348 383 L344 371 L320 355 L315 396 L321 408 L310 412 L309 422 L300 430 L300 415 L292 410 L290 415 L296 415 L292 423 L261 435 L258 430 L250 435 L223 425 L216 419 L220 410 L212 415 L213 430 L204 424 L202 412 L191 408 L197 396 L192 355 L169 370 L165 381 L161 381 L133 326 L122 262 L131 258 L138 247 L139 222 L127 221 L132 215 L143 214 L149 200 L146 166 L129 191 L122 194 L131 167 L169 127 L180 103 L205 97 L222 86 L241 91 Z M255 50 L258 51 L262 59 L261 65 L257 71 L253 69 L250 63 L251 56 Z M112 187 L122 164 L165 117 L170 106 L171 96 L204 88 L217 79 L229 66 L235 66 L240 71 L237 78 L232 76 L233 71 L228 73 L229 80 L241 81 L244 76 L244 69 L239 63 L238 57 L254 30 L257 29 L273 54 L274 59 L267 72 L271 81 L279 82 L284 78 L284 73 L279 71 L280 76 L278 78 L272 75 L275 67 L283 66 L306 87 L321 93 L340 96 L343 110 L349 120 L379 150 L391 166 L399 184 L403 214 L400 214 L397 205 L392 200 L394 187 L386 168 L344 122 L338 110 L337 100 L308 93 L289 80 L279 87 L266 84 L259 76 L265 66 L266 59 L256 42 L246 57 L247 67 L252 74 L250 80 L239 87 L230 86 L223 80 L204 93 L189 98 L176 99 L173 112 L167 123 L139 151 L124 171 L118 186 L120 200 L111 214 L109 213 Z"/></svg>
