<svg xmlns="http://www.w3.org/2000/svg" width="512" height="512" viewBox="0 0 512 512" aria-hidden="true" focusable="false"><path fill="currentColor" fill-rule="evenodd" clip-rule="evenodd" d="M313 295 L313 297 L317 299 L318 301 L324 304 L329 304 L329 302 L326 301 L325 299 L321 298 L316 294 Z M200 295 L197 294 L194 297 L188 299 L185 305 L187 306 L190 303 L194 302 L196 299 L200 297 Z M315 250 L330 249 L331 246 L330 245 L320 245 L318 247 L315 247 Z M182 246 L183 249 L193 249 L194 250 L199 249 L199 247 L195 247 L193 245 L183 245 Z M256 244 L254 246 L252 257 L249 259 L249 261 L245 264 L235 266 L234 269 L247 275 L253 283 L254 292 L258 293 L260 283 L264 277 L273 271 L280 270 L280 268 L278 266 L268 264 L261 255 L259 246 Z M256 258 L266 268 L260 273 L257 279 L255 278 L253 273 L247 269 L254 262 Z M324 210 L319 210 L310 219 L314 220 L316 217 L321 215 L324 212 Z M190 210 L190 213 L196 216 L198 219 L201 220 L203 219 L203 217 L194 210 Z M293 194 L290 194 L282 210 L287 209 L287 207 L293 198 Z M221 194 L221 199 L226 206 L227 210 L231 210 L231 207 L228 204 L225 196 Z M255 171 L255 192 L257 193 L259 191 L259 172 Z M249 17 L227 37 L227 60 L239 75 L223 112 L225 122 L213 122 L206 112 L201 113 L200 130 L209 143 L162 181 L147 206 L140 237 L146 308 L144 361 L134 394 L129 398 L121 385 L116 389 L114 412 L129 438 L157 445 L178 465 L230 472 L258 496 L283 472 L335 465 L356 445 L384 438 L396 421 L399 393 L392 385 L383 398 L370 367 L367 308 L373 236 L368 211 L347 176 L306 143 L314 131 L313 112 L301 122 L290 122 L290 109 L275 77 L287 58 L285 34 L269 19 Z M256 464 L259 467 L259 470 L257 472 L254 470 L254 466 Z M233 465 L235 464 L247 470 L254 477 L255 481 L258 481 L259 477 L266 470 L278 464 L280 466 L277 474 L273 478 L263 483 L256 489 L250 483 L244 481 L236 474 L236 471 Z M256 443 L261 448 L261 450 L264 452 L268 462 L266 465 L262 464 L258 458 L255 458 L253 462 L249 465 L247 465 L245 462 L249 452 L252 450 L252 448 Z M270 437 L279 436 L280 439 L271 440 Z M285 436 L287 435 L288 437 L286 438 Z M288 430 L291 429 L292 431 L289 432 Z M265 427 L266 426 L284 427 L285 430 L281 432 L270 432 L267 431 Z M308 424 L309 427 L305 432 L303 432 L301 429 Z M308 411 L309 412 L308 416 L299 425 L294 427 L292 424 L299 420 L304 415 L304 413 Z M307 409 L309 408 L310 410 L308 411 Z M356 384 L358 394 L361 397 L361 400 L364 406 L367 408 L367 410 L372 413 L372 415 L365 422 L358 424 L356 426 L342 427 L339 432 L329 442 L322 445 L318 445 L317 447 L296 448 L285 450 L273 456 L270 454 L271 451 L283 445 L317 442 L319 440 L326 438 L335 429 L336 425 L339 422 L351 422 L358 420 L363 415 L363 410 L357 401 L355 400 L355 398 L353 397 L352 383 L354 382 Z M157 383 L159 381 L161 382 L160 397 L158 398 L158 400 L156 401 L150 410 L151 417 L161 422 L174 422 L177 425 L178 429 L187 438 L194 440 L196 442 L229 445 L230 447 L239 449 L243 452 L243 454 L240 456 L229 450 L196 447 L195 445 L191 445 L184 442 L174 432 L171 427 L157 426 L145 420 L141 416 L141 413 L149 406 L152 400 L152 397 L155 394 Z M351 372 L353 373 L352 377 L350 376 Z M160 373 L162 372 L163 375 L161 376 Z M273 358 L274 361 L270 363 L268 366 L266 366 L263 363 L263 361 L266 360 L267 358 L270 357 Z M270 345 L271 349 L265 355 L258 359 L252 358 L250 356 L252 352 L256 351 L259 348 L267 344 Z M238 321 L240 320 L256 339 L264 331 L267 333 L267 338 L259 344 L253 346 L246 352 L244 352 L234 340 L236 337 Z M279 316 L282 317 L281 326 L277 323 L277 318 Z M233 307 L236 311 L230 342 L243 358 L260 368 L272 371 L277 366 L271 324 L274 323 L276 329 L285 331 L287 342 L298 364 L303 407 L290 420 L270 422 L228 376 L215 341 L223 316 Z M245 303 L246 302 L248 303 L268 302 L269 305 L266 306 L263 309 L263 311 L256 317 Z M238 300 L241 299 L242 302 L240 303 Z M228 298 L230 299 L229 307 L226 306 Z M290 281 L291 282 L290 301 L272 303 L271 300 L281 294 L286 288 L288 282 Z M223 281 L225 282 L226 286 L230 291 L229 293 L225 294 L223 293 L222 283 Z M220 258 L223 259 L222 262 L223 279 L222 280 L210 269 L210 267 L214 263 L216 263 Z M291 256 L304 268 L292 280 L290 279 L291 276 L290 257 Z M248 239 L259 238 L273 243 L281 251 L286 262 L286 275 L281 286 L270 296 L264 298 L243 296 L228 279 L228 259 L232 251 L240 243 Z M244 233 L245 234 L244 236 L238 238 L235 242 L231 244 L230 247 L227 249 L225 255 L223 256 L222 255 L223 236 L225 234 Z M245 232 L256 221 L258 221 L268 232 L272 234 L288 234 L290 236 L291 255 L290 256 L288 255 L286 249 L275 238 L267 234 L262 233 L246 234 Z M256 205 L274 225 L299 226 L299 251 L317 267 L317 270 L299 286 L299 311 L283 312 L281 310 L277 310 L257 331 L239 312 L239 309 L242 308 L255 322 L255 324 L257 324 L273 307 L294 307 L295 284 L310 270 L309 266 L294 252 L295 231 L293 229 L272 230 L258 214 L255 214 L241 230 L220 229 L218 231 L220 249 L218 254 L204 266 L203 270 L218 284 L219 307 L221 308 L220 312 L214 311 L215 287 L196 270 L196 267 L215 250 L214 226 L240 225 Z M257 147 L318 188 L340 219 L345 237 L340 350 L350 400 L358 414 L337 418 L326 433 L315 435 L314 406 L307 400 L303 363 L287 318 L306 316 L304 288 L325 268 L304 248 L306 222 L277 220 L255 198 L237 220 L207 222 L210 247 L188 268 L210 289 L207 316 L217 318 L210 348 L226 383 L261 418 L260 430 L266 443 L256 435 L244 448 L226 440 L194 437 L178 420 L158 416 L155 411 L163 400 L174 340 L168 252 L173 219 L182 202 L200 184 Z M256 134 L270 146 L300 163 L322 179 L335 192 L350 218 L353 232 L353 258 L350 292 L348 294 L348 347 L350 348 L351 372 L348 371 L345 345 L343 344 L343 299 L345 295 L348 249 L350 247 L345 219 L337 208 L334 198 L318 182 L283 158 L267 150 L257 141 L247 150 L231 158 L194 183 L179 198 L176 208 L168 219 L165 231 L165 260 L170 298 L170 340 L165 371 L161 371 L166 325 L165 295 L163 293 L160 257 L162 222 L174 198 L187 183 L208 167 L245 145 Z M310 124 L308 133 L300 140 L296 138 L298 136 L297 133 L289 134 L285 130 L286 128 L290 127 L302 127 L307 123 Z M205 124 L207 123 L213 127 L227 128 L228 131 L224 134 L217 133 L216 134 L217 138 L214 140 L206 132 Z M267 112 L271 111 L275 117 L272 119 L267 114 Z M246 111 L247 113 L240 120 L239 115 L241 114 L242 111 Z M256 108 L280 134 L339 175 L356 197 L367 228 L362 302 L364 363 L375 398 L380 402 L393 398 L394 410 L379 435 L353 440 L339 456 L320 464 L285 465 L282 457 L325 449 L345 431 L368 426 L378 414 L364 396 L353 352 L357 227 L339 190 L315 168 L267 138 L258 127 L192 173 L163 207 L155 237 L160 351 L149 396 L135 411 L145 426 L168 431 L188 449 L229 455 L230 463 L194 464 L180 460 L162 440 L134 435 L119 411 L120 398 L128 402 L138 398 L149 363 L151 300 L146 229 L155 202 L184 167 L235 133 Z M257 85 L263 92 L267 100 L267 105 L265 108 L263 108 L258 101 L255 101 L252 107 L249 109 L247 106 L247 99 L249 94 L252 92 L254 87 Z M256 58 L263 66 L270 79 L274 83 L277 92 L279 93 L277 103 L282 104 L286 115 L285 122 L281 126 L277 124 L279 121 L279 114 L271 106 L270 95 L258 77 L254 79 L253 83 L249 86 L249 88 L243 96 L242 106 L236 112 L236 124 L231 124 L228 119 L228 112 L230 110 L231 105 L233 102 L236 102 L236 92 L239 83 L242 81 L242 79 L252 66 Z M243 40 L251 33 L262 33 L263 35 L267 36 L270 39 L272 44 L271 56 L268 60 L265 60 L259 48 L254 49 L252 57 L247 61 L243 57 L241 50 Z M240 28 L247 24 L250 24 L251 22 L263 22 L264 24 L273 27 L279 34 L283 48 L282 56 L279 63 L272 70 L269 68 L269 66 L276 58 L277 43 L275 37 L269 31 L260 27 L250 28 L244 31 L241 36 L238 38 L236 53 L238 59 L241 61 L241 63 L245 67 L241 70 L236 65 L236 63 L233 61 L232 58 L231 43 L234 35 Z"/></svg>
