<svg xmlns="http://www.w3.org/2000/svg" width="512" height="512" viewBox="0 0 512 512" aria-hidden="true" focusable="false"><path fill="currentColor" fill-rule="evenodd" clip-rule="evenodd" d="M106 316 L105 318 L108 320 L109 316 Z M99 277 L96 279 L97 282 L100 281 Z M177 250 L174 260 L170 264 L170 272 L174 277 L174 281 L169 285 L164 294 L165 304 L177 315 L173 316 L166 312 L162 321 L162 330 L168 336 L169 351 L181 360 L183 358 L180 352 L181 345 L194 331 L195 321 L194 315 L187 305 L188 289 L184 286 L185 276 L178 267 L179 254 L181 251 Z M180 276 L181 283 L178 289 L181 289 L183 291 L182 301 L180 302 L178 300 L178 294 L174 295 L174 301 L176 304 L188 313 L190 320 L190 326 L187 334 L182 337 L177 342 L176 347 L173 348 L172 341 L178 335 L178 331 L174 332 L169 331 L167 328 L167 321 L169 319 L171 320 L174 318 L177 321 L177 326 L180 327 L184 322 L183 314 L177 308 L173 307 L170 303 L169 294 L176 286 L178 282 L178 277 Z M332 249 L334 268 L326 278 L328 286 L325 288 L324 292 L326 298 L325 306 L318 316 L318 330 L324 339 L332 346 L332 353 L329 356 L331 360 L340 355 L343 351 L345 344 L344 336 L351 328 L349 314 L347 312 L339 316 L335 315 L348 303 L348 293 L338 281 L338 277 L342 272 L342 263 L338 260 L337 251 Z M335 285 L343 293 L343 302 L330 313 L329 323 L334 327 L336 323 L332 320 L333 318 L338 318 L340 320 L343 319 L345 321 L346 327 L343 331 L341 332 L334 331 L334 335 L341 342 L339 346 L337 346 L336 343 L324 332 L323 328 L323 317 L325 312 L338 302 L337 294 L335 294 L335 299 L333 301 L330 300 L331 296 L329 294 L329 291 L333 289 Z M332 277 L334 278 L335 282 L334 285 L331 283 Z M254 17 L229 27 L212 53 L216 82 L230 98 L228 112 L214 131 L177 132 L143 144 L104 181 L85 231 L84 272 L102 335 L143 401 L213 468 L245 491 L260 495 L329 443 L384 381 L415 324 L428 274 L429 248 L417 197 L387 157 L350 136 L328 131 L298 132 L289 117 L318 115 L325 107 L324 93 L298 73 L299 54 L291 35 L276 22 Z M237 459 L239 456 L243 460 L247 458 L248 460 L252 462 L252 466 L255 469 L259 467 L259 463 L267 456 L273 456 L275 458 L275 462 L271 467 L265 467 L264 471 L260 475 L255 477 L248 471 L248 467 L241 467 L238 464 Z M261 442 L257 446 L253 444 L254 442 L259 441 Z M235 441 L236 440 L240 441 L248 448 L255 452 L261 449 L263 449 L264 452 L260 456 L255 458 L238 445 Z M308 431 L308 437 L306 439 L304 437 L301 438 L300 447 L297 449 L294 449 L291 447 L285 448 L285 451 L290 452 L287 456 L281 456 L278 454 L276 450 L287 441 L289 441 L290 443 L293 443 L295 441 L293 436 L301 429 L306 429 Z M204 432 L207 429 L212 429 L219 436 L218 443 L222 443 L225 441 L236 451 L230 456 L225 456 L222 452 L228 451 L228 449 L224 447 L214 449 L210 443 L211 438 L210 437 L206 438 L204 436 Z M233 428 L234 427 L243 428 L277 427 L278 429 L274 434 L270 436 L241 436 Z M297 425 L286 436 L284 436 L280 441 L278 441 L269 449 L265 447 L292 424 L295 423 Z M215 412 L216 411 L234 411 L235 412 L296 411 L297 413 L288 422 L224 422 Z M330 403 L334 407 L334 411 L331 414 L328 414 L326 416 L328 420 L324 422 L323 426 L320 429 L313 430 L312 428 L314 425 L310 423 L309 421 L313 417 L321 418 L321 415 L319 414 L319 412 L327 403 Z M181 403 L185 403 L194 412 L191 415 L191 418 L199 417 L202 420 L203 423 L198 425 L200 428 L199 430 L192 429 L189 426 L189 422 L186 422 L184 420 L185 415 L180 414 L178 412 L178 406 Z M190 400 L193 398 L197 404 L199 404 L217 423 L219 423 L234 438 L231 440 Z M291 392 L299 392 L302 395 L303 401 L302 404 L298 407 L288 406 L289 394 Z M273 392 L279 392 L283 395 L284 403 L282 407 L270 407 L269 406 L270 403 L269 396 Z M248 397 L253 392 L258 392 L264 397 L265 400 L264 406 L263 407 L250 407 L248 405 Z M229 396 L234 392 L238 392 L243 396 L243 406 L242 407 L231 407 L229 405 Z M214 392 L221 392 L224 395 L224 406 L223 407 L215 407 L210 403 L210 396 Z M316 390 L317 393 L308 402 L306 400 L306 394 L310 391 Z M197 390 L200 390 L206 394 L204 402 L196 394 Z M198 382 L199 381 L209 382 L303 382 L312 381 L313 385 L311 387 L304 389 L290 388 L285 390 L282 388 L273 388 L266 391 L260 388 L251 388 L246 391 L239 388 L231 388 L228 390 L225 390 L222 388 L211 388 L208 390 L204 387 L201 387 Z M355 378 L358 381 L358 387 L356 391 L353 394 L350 394 L349 399 L345 403 L338 403 L337 402 L338 396 L336 396 L335 394 L343 385 L350 387 L352 383 L350 383 L349 380 L351 378 Z M156 379 L161 378 L163 380 L163 382 L159 384 L161 387 L165 387 L168 384 L171 387 L171 389 L177 394 L176 396 L174 396 L175 400 L174 403 L167 403 L163 399 L163 395 L159 394 L156 391 L154 384 Z M270 358 L272 359 L271 362 L268 361 Z M311 362 L311 368 L309 372 L301 376 L281 376 L280 377 L246 377 L245 376 L246 374 L250 372 L272 367 L273 365 L293 361 L294 360 L293 357 L285 354 L286 352 L289 351 L296 351 L301 354 L306 355 L310 359 Z M201 367 L202 359 L205 356 L217 351 L223 351 L226 353 L225 355 L221 356 L223 360 L246 360 L247 361 L267 360 L268 361 L265 364 L261 364 L253 368 L249 368 L245 370 L233 372 L231 374 L220 376 L207 375 L202 371 Z M378 349 L381 355 L379 359 L375 362 L374 368 L372 370 L367 371 L366 364 L362 367 L363 373 L362 376 L360 377 L358 375 L355 375 L354 372 L366 354 L372 356 L375 354 L375 352 L372 351 L371 349 L372 348 Z M135 348 L141 349 L141 351 L138 353 L138 356 L143 356 L146 354 L149 357 L150 360 L154 364 L155 368 L159 373 L158 375 L155 375 L152 377 L149 374 L151 370 L150 365 L147 364 L145 365 L146 368 L145 371 L142 371 L138 367 L138 363 L132 358 L132 351 Z M279 327 L281 328 L280 334 L277 332 L277 329 Z M233 327 L235 328 L234 335 L231 333 Z M393 318 L395 320 L396 326 L395 329 L391 333 L390 339 L387 342 L383 342 L382 341 L383 337 L380 337 L378 339 L378 342 L374 343 L373 341 L379 328 L387 327 L389 325 L389 322 L385 323 L384 319 L386 317 Z M120 317 L126 317 L129 320 L127 323 L123 322 L123 325 L125 327 L131 326 L134 329 L135 334 L139 341 L138 343 L135 343 L132 337 L129 337 L130 341 L128 343 L122 339 L121 333 L117 329 L117 322 Z M277 292 L285 295 L291 301 L292 310 L294 311 L296 337 L294 342 L288 347 L277 351 L274 354 L264 355 L263 353 L265 348 L273 348 L285 335 L282 309 L279 309 L274 323 L274 340 L272 342 L258 344 L241 343 L238 340 L239 332 L250 330 L261 321 L269 309 L272 299 L274 298 L274 294 Z M263 286 L270 292 L268 301 L261 314 L247 327 L239 327 L234 311 L230 309 L228 330 L225 334 L241 349 L246 348 L247 350 L244 351 L244 354 L242 355 L226 348 L217 340 L216 335 L219 307 L222 300 L227 295 L246 290 L249 287 L259 288 Z M402 282 L405 285 L407 290 L406 296 L403 299 L404 302 L403 306 L400 309 L397 309 L396 306 L393 304 L391 306 L391 311 L388 312 L387 308 L391 295 L396 294 L401 291 L401 288 L395 289 L394 285 L397 282 Z M111 282 L116 282 L119 286 L118 288 L112 288 L112 291 L115 294 L120 294 L122 296 L125 307 L124 312 L121 311 L122 307 L120 304 L117 304 L117 308 L115 310 L112 309 L109 305 L109 297 L107 296 L107 286 Z M273 263 L275 264 L274 268 L272 267 Z M401 242 L407 243 L411 249 L410 268 L405 270 L402 265 L399 267 L399 271 L404 275 L403 277 L401 277 L399 274 L396 273 L396 256 L401 255 L404 252 L403 248 L401 248 L400 250 L396 248 L396 246 Z M107 242 L112 242 L116 246 L115 250 L112 250 L111 248 L109 248 L109 254 L116 256 L117 273 L114 274 L112 277 L108 276 L112 271 L111 265 L109 266 L107 270 L105 270 L101 265 L102 262 L101 250 L104 244 Z M395 238 L397 237 L398 239 L396 240 Z M252 235 L261 235 L263 238 L263 243 L266 243 L271 250 L271 263 L269 272 L267 276 L259 283 L253 283 L245 276 L243 266 L241 264 L242 247 L246 243 L250 242 L250 237 Z M256 224 L258 225 L257 230 L254 229 L254 226 Z M385 222 L388 228 L391 250 L390 275 L388 288 L386 290 L383 305 L378 315 L375 326 L372 329 L368 340 L366 341 L365 345 L359 353 L356 360 L342 379 L339 381 L339 383 L332 389 L332 391 L317 407 L299 423 L297 420 L318 401 L319 398 L330 388 L330 386 L348 365 L350 360 L357 351 L358 347 L361 345 L366 332 L368 331 L372 322 L372 319 L375 316 L379 299 L381 298 L381 294 L383 290 L386 269 L386 244 L385 235 L382 226 L382 223 Z M394 208 L399 208 L405 214 L406 218 L405 221 L408 224 L408 233 L405 236 L403 236 L400 232 L396 235 L394 234 L392 223 L397 221 L398 215 L395 214 L394 217 L391 217 L389 215 L390 211 Z M119 208 L123 212 L123 216 L119 217 L118 215 L115 215 L115 219 L117 222 L121 223 L119 226 L118 235 L116 236 L115 233 L112 232 L110 236 L106 236 L104 225 L107 222 L107 215 L112 209 Z M391 202 L393 201 L394 203 L392 204 Z M118 202 L120 201 L121 203 L119 204 Z M158 192 L174 183 L206 180 L231 188 L258 207 L292 183 L325 180 L341 184 L361 198 L377 226 L381 273 L361 334 L323 387 L315 374 L315 356 L297 346 L301 326 L295 298 L284 289 L270 286 L277 282 L281 257 L264 232 L258 211 L231 257 L236 283 L242 286 L222 292 L215 304 L211 333 L215 346 L197 357 L197 374 L191 387 L181 378 L151 333 L131 270 L131 243 L137 220 Z M361 178 L365 177 L366 181 L364 182 Z M147 180 L148 177 L151 178 L149 181 Z M341 176 L342 175 L346 176 L358 184 L360 184 L374 199 L381 210 L384 218 L380 219 L374 206 L365 195 L352 184 L343 180 Z M374 174 L380 174 L384 176 L386 179 L386 182 L392 187 L392 195 L390 197 L388 196 L388 194 L384 194 L384 199 L386 201 L385 203 L382 202 L374 191 L374 189 L377 188 L379 185 L379 181 L376 180 L374 184 L370 181 L371 177 Z M138 174 L142 177 L142 181 L140 183 L138 183 L137 180 L134 181 L134 185 L138 190 L138 192 L128 203 L127 200 L129 198 L129 195 L125 194 L123 197 L121 197 L119 193 L120 188 L125 183 L125 181 L130 175 Z M338 174 L337 177 L322 174 L310 174 L297 176 L277 184 L275 187 L270 189 L257 200 L255 200 L244 190 L239 188 L237 185 L226 181 L218 176 L219 174 L225 175 L239 182 L255 195 L257 195 L269 185 L279 180 L280 178 L296 173 L298 171 L316 169 L334 171 Z M199 169 L214 171 L216 175 L211 176 L202 174 L191 174 L172 178 L155 188 L142 201 L132 218 L127 237 L127 247 L125 248 L125 265 L127 267 L129 289 L138 318 L159 358 L162 360 L165 366 L177 380 L177 382 L188 393 L189 397 L187 398 L174 384 L170 377 L165 373 L155 356 L152 354 L138 328 L134 315 L132 314 L128 296 L125 291 L122 273 L122 242 L125 225 L137 200 L151 185 L175 172 Z M336 157 L341 153 L347 154 L350 158 L356 157 L364 165 L365 171 L359 172 L358 175 L356 176 L349 172 L352 168 L352 164 L349 164 L346 168 L343 169 L338 168 L337 166 L341 165 L343 163 L343 160 L337 160 Z M176 156 L175 161 L170 160 L170 164 L176 166 L175 168 L169 169 L166 168 L164 164 L160 164 L159 167 L163 172 L156 176 L154 175 L153 172 L148 172 L146 170 L153 158 L156 157 L162 158 L167 153 L172 153 Z M336 138 L379 157 L408 191 L422 233 L421 283 L402 339 L369 392 L301 460 L263 487 L253 489 L214 462 L170 422 L170 416 L165 416 L125 366 L105 328 L92 287 L89 262 L92 224 L99 203 L106 201 L109 206 L103 211 L99 223 L101 235 L96 248 L96 266 L104 276 L101 304 L114 318 L112 331 L118 343 L125 347 L122 352 L128 353 L135 371 L147 377 L143 384 L150 385 L152 394 L161 404 L173 409 L191 434 L200 436 L196 438 L197 442 L203 442 L223 461 L233 460 L229 468 L243 472 L257 483 L278 467 L284 468 L280 461 L287 461 L308 443 L314 442 L316 439 L312 436 L324 432 L333 417 L342 416 L338 410 L350 405 L361 393 L363 385 L369 384 L364 379 L378 370 L384 361 L384 353 L390 352 L388 346 L393 343 L401 327 L399 319 L406 318 L401 314 L409 305 L411 284 L416 280 L409 277 L416 268 L417 249 L412 242 L414 225 L409 210 L404 206 L406 198 L398 201 L398 188 L386 171 L381 170 L377 163 L371 170 L363 155 L346 148 L331 149 L335 167 L326 164 L290 167 L300 155 L306 158 L317 154 L321 148 L313 142 L311 146 L314 150 L302 149 L305 138 Z M222 166 L221 168 L206 164 L187 164 L177 167 L176 165 L181 160 L181 149 L177 150 L166 148 L160 152 L155 152 L148 156 L143 164 L142 170 L138 168 L138 163 L135 163 L131 170 L128 170 L124 173 L122 179 L116 183 L115 200 L113 202 L109 197 L104 195 L104 192 L111 180 L132 158 L157 144 L174 140 L176 138 L207 138 L211 143 L210 149 L198 150 L197 148 L201 147 L202 143 L196 142 L192 146 L192 151 L195 154 L202 155 L205 158 L208 158 L209 155 L212 155 Z M233 134 L235 134 L238 137 L237 142 L235 144 L235 155 L234 156 L229 152 L228 149 L228 141 Z M277 133 L284 140 L284 149 L282 154 L279 156 L277 155 L278 148 L275 141 L275 136 Z M255 127 L257 127 L261 131 L264 137 L262 145 L265 147 L267 144 L270 143 L273 147 L273 151 L271 153 L266 152 L262 156 L262 162 L264 166 L269 170 L279 172 L257 188 L254 188 L250 183 L232 173 L233 171 L243 170 L249 165 L249 154 L247 152 L241 153 L238 148 L241 143 L243 143 L247 147 L250 146 L248 140 L249 134 L254 130 Z M235 107 L236 102 L243 104 L238 109 Z M275 101 L277 102 L277 108 L273 109 L270 104 Z M255 99 L257 99 L268 110 L270 115 L269 123 L272 123 L275 116 L280 113 L294 132 L296 139 L295 153 L287 163 L281 165 L280 167 L273 167 L266 160 L269 159 L270 161 L277 162 L284 158 L289 151 L289 140 L279 125 L269 134 L259 122 L257 117 L254 118 L252 124 L243 134 L235 127 L231 127 L229 132 L224 137 L224 153 L235 162 L239 162 L244 159 L245 161 L243 164 L238 167 L232 167 L231 165 L225 163 L217 152 L216 140 L223 125 L232 114 L236 115 L239 123 L243 123 L243 112 Z M298 97 L300 96 L302 99 L299 100 Z M286 94 L289 91 L294 92 L298 97 L295 98 L287 96 Z M282 89 L279 93 L273 97 L264 99 L261 96 L261 94 L258 92 L259 89 L265 88 L269 85 L276 85 Z M250 77 L255 71 L261 69 L278 71 L283 74 L292 76 L309 85 L319 95 L321 102 L319 106 L314 111 L311 112 L298 112 L285 109 L282 106 L283 99 L288 102 L296 104 L309 104 L310 103 L309 96 L305 94 L303 91 L293 87 L290 84 L272 80 L271 78 L262 78 L261 80 L259 80 L258 83 L251 83 Z M270 45 L271 48 L276 53 L277 64 L276 65 L256 64 L247 71 L245 74 L245 79 L243 80 L236 72 L234 65 L236 52 L243 44 L251 41 L261 41 Z M266 24 L280 31 L290 44 L294 54 L294 69 L290 70 L283 67 L282 53 L277 44 L270 38 L259 35 L258 31 L255 31 L253 35 L242 38 L231 50 L229 56 L229 68 L231 75 L237 82 L254 90 L249 99 L246 100 L245 98 L233 94 L224 85 L221 76 L218 73 L218 52 L225 38 L232 31 L246 24 Z"/></svg>
