<svg xmlns="http://www.w3.org/2000/svg" width="512" height="512" viewBox="0 0 512 512" aria-hidden="true" focusable="false"><path fill="currentColor" fill-rule="evenodd" clip-rule="evenodd" d="M288 476 L288 478 L291 480 L292 478 Z M304 464 L304 466 L313 475 L327 483 L335 485 L346 485 L351 483 L350 482 L338 483 L329 481 L317 475 L306 464 Z M122 457 L122 459 L128 465 L147 472 L164 472 L183 467 L182 465 L169 469 L161 469 L158 471 L154 469 L146 469 L138 467 L129 462 L124 457 Z M259 285 L257 284 L239 300 L226 309 L225 312 L236 305 Z M211 275 L209 275 L207 284 L210 283 Z M213 271 L214 273 L217 273 L224 277 L232 279 L235 278 L235 277 L231 277 L219 272 Z M246 272 L246 267 L242 253 L240 253 L244 268 L241 270 L236 270 L222 266 L221 264 L213 263 L213 265 L220 268 L224 268 L232 271 L238 271 L240 273 Z M264 200 L268 201 L281 200 L281 198 L277 197 L273 198 L265 197 Z M232 198 L232 200 L249 201 L248 197 Z M262 190 L262 192 L264 192 L265 194 L268 192 L277 194 L277 192 L279 191 L279 189 L274 186 L270 186 Z M234 189 L234 191 L237 190 L238 193 L245 192 L248 194 L250 192 L252 198 L254 199 L253 193 L249 188 L239 186 Z M262 177 L262 179 L266 179 L265 177 Z M248 178 L248 179 L252 179 L252 177 Z M230 173 L230 180 L232 180 L232 174 Z M259 17 L248 58 L244 59 L244 75 L233 97 L227 90 L213 113 L212 129 L203 122 L191 146 L192 161 L183 155 L174 174 L177 195 L166 190 L166 220 L178 235 L160 231 L172 259 L155 287 L153 347 L140 323 L136 345 L140 357 L134 356 L127 380 L143 402 L139 407 L134 405 L129 414 L125 411 L129 396 L118 386 L116 411 L122 421 L109 437 L111 464 L131 485 L170 495 L193 492 L251 496 L262 487 L289 488 L305 495 L368 490 L393 478 L404 459 L402 437 L389 423 L397 413 L395 387 L384 397 L386 414 L381 405 L375 407 L371 402 L384 388 L387 374 L381 356 L374 356 L378 346 L373 324 L360 346 L359 288 L353 272 L341 259 L353 232 L336 235 L348 220 L348 190 L337 195 L340 173 L331 153 L321 161 L322 140 L311 122 L303 129 L302 114 L288 91 L281 98 L271 76 L271 59 L263 45 Z M240 492 L241 490 L247 488 L255 489 L251 493 L241 493 Z M213 489 L220 488 L221 491 L216 492 Z M210 486 L208 490 L203 491 L198 490 L199 488 L205 487 L208 485 Z M241 485 L243 484 L244 486 L242 487 Z M269 469 L281 482 L280 484 L265 484 L264 483 Z M227 465 L228 466 L225 475 L222 476 L221 474 L225 466 Z M237 449 L239 448 L240 450 L238 451 Z M233 447 L235 446 L236 448 L234 449 Z M238 446 L240 445 L241 447 L239 448 Z M272 443 L271 453 L263 478 L260 483 L257 483 L256 486 L253 486 L250 483 L255 475 L257 468 L259 467 L263 453 L261 453 L255 468 L243 482 L233 483 L232 487 L217 484 L220 478 L224 480 L231 467 L231 465 L228 464 L227 461 L233 449 L235 450 L234 454 L236 454 L237 452 L241 453 L243 443 L245 442 L248 444 L241 458 L241 460 L243 460 L251 445 L268 442 Z M258 439 L260 438 L261 440 L259 441 Z M225 433 L227 432 L230 435 L228 436 Z M207 431 L209 430 L210 432 L208 433 Z M203 430 L205 429 L206 431 L204 432 Z M342 432 L343 435 L342 438 L340 438 L339 434 L335 435 L334 438 L325 438 L325 440 L321 443 L309 446 L275 459 L272 458 L275 443 L279 441 L284 441 L284 439 L287 436 L298 431 L302 432 L311 430 L317 427 L325 427 L329 430 L338 430 Z M310 425 L312 424 L313 426 L311 427 Z M177 425 L179 424 L182 427 L180 428 Z M401 444 L397 468 L390 473 L395 463 L393 461 L388 472 L370 486 L362 485 L377 475 L382 466 L367 479 L346 490 L333 490 L306 481 L319 488 L318 491 L311 492 L290 486 L272 467 L275 463 L285 475 L279 462 L286 459 L305 475 L289 459 L298 455 L302 461 L299 456 L301 453 L309 462 L329 474 L341 477 L362 475 L363 473 L345 475 L331 472 L305 454 L308 450 L318 448 L334 455 L357 457 L323 447 L334 441 L371 438 L350 436 L351 432 L369 426 L348 431 L343 429 L356 422 L373 421 L383 424 L395 432 Z M333 426 L336 422 L340 420 L350 421 L349 423 L338 427 Z M320 423 L321 421 L325 420 L331 421 L329 424 Z M261 420 L263 419 L264 421 L262 422 Z M317 418 L320 417 L321 419 L318 420 Z M112 439 L122 425 L157 415 L186 419 L203 430 L196 430 L178 421 L171 423 L161 421 L168 423 L168 426 L145 428 L173 429 L172 434 L193 432 L203 434 L206 438 L195 447 L178 454 L158 455 L146 451 L153 456 L180 456 L196 449 L211 436 L220 439 L208 455 L178 475 L204 462 L224 438 L229 439 L217 462 L198 483 L213 471 L227 448 L230 449 L212 484 L173 492 L159 486 L172 483 L173 487 L188 485 L182 483 L184 478 L205 468 L161 483 L137 484 L131 480 L149 481 L157 478 L135 477 L123 468 L120 470 L112 456 Z M179 414 L185 412 L191 418 L189 419 L186 417 L180 416 Z M136 409 L138 411 L137 415 L132 417 L131 415 Z M393 404 L394 413 L387 420 L386 418 L389 415 L391 410 L390 405 Z M360 405 L361 404 L364 405 L366 409 L371 413 L375 413 L375 411 L379 409 L382 414 L382 419 L379 420 L367 417 L361 411 Z M153 404 L154 407 L152 412 L150 414 L145 414 L144 412 L151 404 Z M297 402 L299 401 L300 403 L298 404 Z M321 408 L319 412 L309 420 L307 420 L302 426 L285 434 L278 439 L272 439 L271 435 L249 436 L244 434 L245 432 L258 432 L267 430 L275 426 L277 423 L282 423 L282 421 L274 421 L267 423 L266 418 L283 411 L300 412 L300 410 L308 400 L316 402 Z M205 403 L205 401 L208 399 L213 400 L213 402 L210 404 Z M392 394 L393 398 L391 402 L387 403 L386 402 L387 397 L390 394 Z M122 394 L127 398 L127 402 L124 404 L123 412 L126 417 L125 419 L122 417 L119 411 L119 404 L122 403 L121 398 Z M297 389 L299 388 L300 391 L298 392 Z M291 389 L293 388 L294 391 L292 392 Z M302 386 L305 389 L303 394 L301 393 Z M202 384 L213 387 L213 394 L211 396 L206 398 L202 398 L200 396 L200 386 Z M145 383 L148 384 L148 386 L153 393 L154 399 L152 402 L150 401 L149 395 L144 390 Z M295 383 L297 382 L298 384 L296 385 Z M218 383 L220 381 L224 381 L232 384 L248 386 L273 385 L276 397 L275 410 L273 413 L259 417 L256 421 L252 421 L250 417 L242 413 L234 412 L226 407 L220 407 L216 400 L216 389 Z M280 380 L283 380 L284 382 L288 384 L290 394 L289 405 L287 408 L283 409 L278 408 L277 389 L279 388 L278 382 Z M299 380 L301 379 L302 381 L300 382 Z M203 377 L204 376 L208 377 L209 379 L213 380 L215 384 L212 385 L206 383 L203 380 Z M306 372 L308 373 L310 377 L307 385 L305 384 L305 373 Z M291 372 L293 371 L294 373 L292 374 Z M276 373 L279 371 L282 371 L285 377 L278 379 L276 376 Z M222 373 L224 370 L230 372 L242 374 L270 374 L272 380 L269 382 L241 382 L226 379 L222 376 Z M300 369 L302 375 L298 379 L297 375 L298 370 Z M203 367 L205 366 L209 369 L216 370 L219 373 L216 374 L210 372 L210 374 L215 375 L216 377 L215 378 L209 377 L204 372 Z M308 362 L317 371 L317 375 L324 375 L339 382 L341 385 L347 388 L345 392 L342 392 L340 388 L338 388 L341 399 L340 400 L336 399 L335 407 L333 406 L332 401 L328 394 L325 393 L325 395 L330 402 L332 410 L339 416 L338 418 L330 417 L326 413 L323 406 L316 399 L306 396 L311 391 L320 392 L323 391 L321 389 L316 388 L310 389 L309 386 L315 381 L326 382 L323 379 L314 377 L309 370 L307 364 Z M227 366 L241 362 L267 362 L279 364 L282 367 L279 369 L267 371 L242 371 L228 368 Z M248 356 L250 355 L251 357 L249 358 Z M258 348 L259 350 L257 358 L255 359 L254 353 L255 350 Z M198 341 L201 346 L200 356 L202 362 L200 366 L201 371 L199 383 L196 385 L189 375 L189 367 L194 351 L195 343 Z M258 341 L260 340 L261 342 L259 343 Z M370 338 L372 342 L374 343 L375 349 L369 355 L369 358 L374 364 L377 360 L379 361 L383 370 L382 377 L384 378 L381 388 L376 391 L374 390 L369 391 L365 395 L364 401 L362 402 L360 400 L362 391 L367 382 L369 383 L369 387 L370 388 L371 387 L371 382 L373 377 L373 373 L370 366 L364 363 L360 358 L363 350 L369 348 L368 339 Z M144 337 L146 339 L145 348 L149 349 L152 352 L153 359 L150 363 L143 367 L141 372 L143 389 L137 391 L131 385 L130 378 L132 377 L131 369 L136 361 L139 364 L145 358 L144 354 L139 350 L140 343 L142 342 L142 338 Z M259 337 L261 336 L262 338 L260 339 Z M256 334 L257 335 L256 341 L247 355 L243 359 L235 360 L234 358 L245 347 L252 337 Z M260 334 L262 333 L263 335 L261 336 Z M261 329 L263 328 L264 331 L262 332 Z M262 326 L264 325 L265 327 L263 328 Z M267 305 L269 304 L270 306 L268 307 Z M268 301 L270 300 L271 302 L269 303 Z M270 293 L272 292 L273 294 L271 295 Z M267 290 L267 297 L261 307 L243 330 L228 344 L228 346 L245 331 L262 311 L263 313 L261 320 L251 336 L231 359 L216 367 L211 366 L211 363 L222 359 L222 357 L207 362 L204 356 L213 355 L215 352 L207 353 L202 341 L213 339 L224 333 L244 316 Z M324 275 L326 274 L327 277 L325 278 Z M331 272 L335 275 L340 290 L345 328 L347 330 L345 344 L342 351 L344 351 L346 345 L349 347 L350 364 L348 370 L350 371 L350 378 L347 384 L343 384 L335 377 L319 370 L309 356 L311 354 L322 365 L329 368 L344 368 L344 366 L334 367 L328 365 L311 349 L313 347 L324 355 L335 357 L334 355 L332 356 L326 353 L333 349 L333 347 L320 348 L315 345 L319 342 L319 338 L326 335 L332 329 L338 314 L336 314 L333 324 L325 333 L317 337 L315 336 L321 329 L317 325 L325 315 L332 297 L333 284 L331 284 L328 303 L323 310 L323 303 Z M325 271 L327 270 L328 273 L326 274 Z M268 270 L269 272 L265 279 L270 274 L272 276 L255 300 L226 329 L214 336 L206 338 L203 333 L210 331 L213 328 L203 329 L200 326 L200 322 L213 316 L214 313 L204 318 L202 316 L225 297 Z M326 267 L328 266 L329 269 L327 270 Z M278 262 L280 261 L281 263 L279 264 Z M337 260 L347 268 L355 285 L357 294 L358 360 L361 365 L369 370 L370 374 L369 377 L364 375 L364 384 L360 389 L358 399 L356 400 L360 413 L359 416 L347 416 L340 412 L340 407 L351 388 L353 380 L353 352 L342 284 L337 272 L333 268 L333 262 Z M190 260 L191 262 L179 272 L174 284 L172 315 L166 343 L165 359 L161 372 L162 383 L181 409 L166 414 L164 412 L155 411 L158 399 L149 382 L150 376 L145 377 L144 373 L149 366 L155 363 L156 304 L161 279 L167 269 L176 260 Z M291 249 L324 260 L322 279 L326 279 L302 363 L297 362 L292 368 L290 366 L299 352 L305 334 L288 365 L275 360 L283 338 L271 359 L259 358 L284 254 L288 256 L287 271 Z M252 249 L261 248 L262 252 L260 253 L258 257 L255 257 L252 254 Z M247 247 L249 248 L250 251 L249 254 L247 253 L246 250 Z M267 246 L268 248 L267 251 L265 252 L264 248 Z M275 240 L277 255 L274 259 L270 257 L267 267 L264 269 L262 264 L262 254 L264 253 L265 257 L267 257 L270 245 Z M239 240 L246 256 L251 255 L251 270 L254 259 L260 260 L260 270 L203 312 L197 306 L195 336 L186 369 L176 369 L189 380 L207 411 L226 410 L243 417 L241 422 L226 422 L261 427 L233 432 L226 430 L222 433 L205 425 L187 410 L172 393 L164 373 L172 327 L176 321 L175 297 L180 276 L188 267 L232 250 L236 258 Z M323 233 L331 237 L327 244 L326 249 L323 247 L321 241 Z M190 232 L192 236 L192 244 L190 248 L188 249 L187 243 L183 237 Z M329 231 L332 230 L333 232 L330 233 Z M335 218 L336 220 L333 223 L335 227 L334 231 L332 230 L331 227 L326 227 L321 231 L319 235 L320 248 L327 254 L333 254 L336 252 L337 248 L336 246 L334 246 L334 249 L332 250 L330 248 L330 243 L334 239 L336 241 L338 241 L340 238 L346 237 L347 239 L342 244 L341 254 L338 257 L329 259 L321 256 L314 248 L313 234 L319 224 L323 226 L326 220 Z M242 225 L246 217 L249 217 L255 220 L267 217 L268 220 L270 221 L271 226 L270 227 L263 226 L243 227 Z M179 217 L188 220 L191 225 L194 223 L198 228 L201 235 L201 244 L198 251 L193 256 L186 259 L182 259 L174 255 L171 249 L172 244 L167 239 L168 237 L171 237 L175 240 L181 240 L184 243 L184 248 L182 250 L177 248 L178 252 L181 254 L187 254 L193 249 L195 245 L194 233 L188 227 L184 227 L186 231 L185 233 L182 233 L179 230 L180 223 L178 220 Z M290 212 L291 215 L289 219 L285 221 L284 220 L285 214 Z M186 213 L188 212 L189 214 L187 215 Z M325 211 L327 210 L328 213 L326 214 Z M221 208 L228 213 L229 215 L228 221 L224 219 L220 210 Z M327 205 L329 206 L328 210 L326 209 Z M186 205 L188 206 L187 210 L185 209 Z M343 198 L345 203 L344 211 L345 219 L343 224 L338 228 L337 223 L339 220 L339 211 L338 210 L332 216 L330 214 L332 205 L336 204 L339 199 Z M292 198 L296 199 L294 206 L291 203 Z M221 198 L223 201 L221 205 L219 206 L217 201 Z M171 198 L173 198 L177 202 L177 205 L180 204 L182 205 L183 211 L182 215 L176 210 L175 211 L175 221 L177 224 L176 227 L171 224 L169 219 L170 213 L169 204 Z M327 193 L329 194 L328 201 L326 200 Z M186 192 L188 193 L187 198 L185 197 Z M325 188 L327 187 L328 190 L326 191 Z M186 188 L188 187 L189 189 L187 190 Z M187 185 L189 184 L190 186 L188 187 Z M191 178 L192 180 L191 183 L189 184 L188 181 Z M322 176 L324 177 L327 184 L326 187 L324 186 L321 178 Z M199 163 L200 165 L194 176 L192 177 L191 174 L197 164 Z M328 161 L330 162 L335 171 L334 178 L336 178 L338 181 L337 188 L333 194 L331 193 L331 188 L326 176 L326 173 L324 169 L322 168 L322 166 Z M186 161 L192 167 L186 179 L183 188 L183 193 L181 194 L177 188 L176 182 L177 179 L180 178 L179 171 L184 162 Z M312 158 L315 160 L322 173 L321 175 L319 174 L311 160 Z M200 159 L202 158 L203 160 L201 161 Z M307 153 L309 152 L312 157 L310 158 Z M204 153 L206 152 L207 154 L205 155 Z M249 150 L265 150 L277 155 L289 171 L287 192 L283 186 L283 174 L281 175 L286 207 L278 218 L279 229 L273 229 L273 223 L265 210 L265 215 L258 218 L249 216 L248 210 L240 223 L240 230 L251 229 L253 235 L260 235 L263 229 L273 230 L273 237 L264 245 L249 245 L240 234 L236 233 L233 226 L236 219 L228 207 L232 184 L227 193 L224 187 L227 164 L238 154 Z M304 149 L306 148 L308 151 L306 152 Z M209 148 L210 150 L207 152 L206 150 Z M216 140 L217 142 L213 145 L212 143 Z M291 131 L293 130 L294 132 L292 133 Z M213 133 L215 136 L205 146 L199 157 L196 159 L194 153 L194 147 L196 144 L199 143 L197 141 L198 138 L204 130 Z M309 129 L316 137 L317 144 L320 145 L320 156 L318 159 L315 157 L312 150 L306 142 L299 136 L301 133 L306 132 Z M289 128 L291 127 L292 129 L290 130 Z M283 121 L285 120 L290 126 L288 127 Z M234 116 L235 118 L230 123 L225 131 L222 132 L221 130 Z M274 112 L276 111 L277 113 L275 114 Z M249 101 L250 103 L246 106 L245 104 Z M264 101 L266 100 L268 103 L266 104 Z M287 99 L291 101 L295 109 L295 114 L299 116 L300 125 L298 130 L295 129 L292 123 L279 110 L279 107 L280 106 L283 107 Z M259 99 L288 132 L291 142 L301 149 L320 180 L324 207 L310 235 L313 251 L279 241 L283 225 L292 220 L298 206 L299 193 L291 190 L289 162 L273 149 L255 146 L236 151 L226 161 L221 171 L222 190 L214 194 L216 208 L223 222 L230 225 L235 244 L221 253 L192 262 L204 243 L202 229 L190 208 L194 180 L231 126 Z M228 99 L230 101 L231 107 L234 106 L236 110 L217 130 L215 126 L216 114 L217 113 L220 114 L221 106 L225 100 Z M250 98 L252 97 L253 99 L251 100 Z M261 97 L263 96 L264 98 L262 99 Z M258 80 L260 83 L261 93 L259 94 L257 92 L256 95 L253 97 L252 95 L255 91 L255 83 Z M257 35 L259 36 L260 46 L264 56 L262 66 L265 65 L267 66 L267 72 L269 77 L268 86 L273 85 L279 96 L278 104 L276 106 L268 99 L262 90 L263 83 L260 78 L259 71 L257 71 L256 77 L252 84 L253 89 L250 95 L240 106 L237 104 L236 95 L238 90 L242 85 L247 86 L246 76 L248 72 L248 66 L250 65 L251 68 L253 68 L251 55 L254 49 Z"/></svg>
