<svg xmlns="http://www.w3.org/2000/svg" width="512" height="512" viewBox="0 0 512 512" aria-hidden="true" focusable="false"><path fill="currentColor" fill-rule="evenodd" clip-rule="evenodd" d="M325 471 L326 474 L331 474 L335 476 L338 480 L343 479 L347 475 L355 473 L353 469 L343 469 L341 467 L338 467 L336 469 L327 469 Z M292 471 L293 475 L297 473 L304 479 L310 479 L312 476 L322 473 L320 469 L311 469 L309 467 L305 467 L304 469 L294 469 Z M259 471 L260 474 L265 474 L272 480 L275 480 L281 475 L288 473 L286 469 L277 469 L275 467 L272 467 L270 471 L268 469 L261 469 Z M190 471 L191 474 L195 474 L201 479 L207 479 L213 474 L220 473 L231 475 L235 479 L241 479 L245 475 L252 473 L250 469 L241 469 L238 467 L234 469 L226 469 L224 471 L202 467 L201 469 L192 469 Z M157 471 L158 474 L165 475 L169 479 L175 479 L177 476 L187 473 L187 471 L184 469 L176 469 L174 467 L170 467 L169 469 L159 469 Z M384 430 L381 430 L379 432 L379 440 L376 443 L376 445 L381 449 L379 460 L376 463 L376 467 L369 468 L368 471 L359 472 L358 473 L359 476 L363 475 L366 478 L374 478 L377 473 L379 475 L383 473 L383 469 L387 465 L387 459 L384 454 L386 453 L386 448 L390 445 L390 441 L384 435 Z M129 429 L128 435 L126 436 L124 440 L124 446 L125 448 L128 449 L128 455 L126 456 L125 464 L130 469 L129 473 L131 475 L136 475 L139 478 L146 478 L150 475 L153 475 L154 473 L152 471 L148 471 L146 469 L136 467 L136 461 L133 460 L131 449 L136 445 L136 443 L133 440 L133 430 Z M136 467 L137 469 L134 471 L133 469 Z M129 442 L131 441 L132 443 L130 444 Z M380 363 L379 365 L380 375 L376 376 L376 380 L379 383 L379 392 L381 396 L379 398 L379 408 L376 410 L376 414 L379 415 L379 425 L383 426 L384 420 L390 414 L390 410 L384 403 L382 395 L384 387 L390 380 L390 377 L384 371 L383 363 Z M380 411 L382 410 L383 413 L381 414 Z M380 377 L382 376 L383 379 L381 380 Z M129 363 L128 371 L124 375 L122 380 L128 385 L130 396 L128 405 L122 410 L122 412 L128 419 L129 426 L132 426 L133 425 L133 415 L136 414 L136 410 L133 408 L133 398 L131 394 L133 392 L133 383 L136 380 L136 376 L133 375 L133 364 Z M129 411 L131 410 L132 412 L130 413 Z M129 377 L131 376 L132 379 L130 380 Z M380 330 L379 332 L380 339 L376 344 L376 346 L379 349 L379 358 L380 360 L383 360 L384 353 L388 349 L390 344 L388 343 L386 337 L384 336 L384 330 Z M129 329 L129 335 L124 341 L124 343 L122 344 L122 346 L128 351 L129 360 L132 360 L133 349 L136 346 L136 342 L133 341 L133 330 Z M226 299 L226 331 L229 337 L236 344 L247 349 L265 349 L275 345 L283 337 L286 331 L286 299 L280 298 L279 332 L271 340 L262 342 L260 344 L252 344 L250 342 L243 341 L233 332 L232 298 Z M381 296 L379 298 L379 308 L376 310 L376 314 L380 315 L379 325 L383 326 L384 320 L390 313 L390 310 L384 303 L383 297 Z M380 311 L382 310 L383 313 L381 314 Z M380 230 L379 241 L376 244 L376 246 L379 249 L379 258 L381 262 L379 264 L379 275 L376 276 L376 280 L379 283 L379 291 L383 292 L383 289 L387 282 L390 280 L390 277 L384 271 L382 261 L384 253 L388 249 L390 244 L384 237 L383 230 Z M380 277 L382 276 L383 279 L381 280 Z M210 184 L188 206 L172 249 L165 334 L164 437 L346 438 L344 280 L340 249 L328 213 L307 188 L276 173 L241 172 Z M182 418 L188 410 L319 409 L324 410 L329 415 L330 421 L324 430 L188 430 L183 425 Z M190 389 L196 383 L316 383 L322 389 L322 397 L315 403 L197 403 L191 399 Z M197 362 L200 357 L207 353 L221 352 L240 363 L267 364 L279 360 L291 352 L305 353 L312 357 L315 362 L315 369 L308 376 L204 376 L198 371 Z M227 283 L246 279 L249 275 L262 275 L266 279 L285 283 L290 288 L295 303 L295 336 L284 350 L269 357 L250 358 L231 352 L220 342 L216 328 L217 301 Z M254 207 L259 208 L261 215 L263 216 L261 224 L271 232 L273 238 L272 258 L267 266 L261 269 L251 269 L246 267 L239 254 L240 234 L251 224 L249 216 L251 215 Z M223 184 L250 177 L278 180 L304 194 L326 224 L336 262 L340 312 L340 431 L332 432 L336 414 L326 404 L329 388 L319 378 L321 359 L312 349 L298 345 L302 335 L298 288 L288 277 L271 271 L279 258 L280 240 L258 192 L253 193 L244 221 L232 238 L233 258 L241 271 L224 277 L211 297 L210 335 L214 345 L200 349 L191 359 L193 378 L183 388 L186 404 L176 413 L179 432 L171 430 L172 311 L179 247 L194 209 Z M380 164 L379 165 L379 175 L376 178 L376 180 L379 183 L379 192 L381 196 L379 198 L380 206 L376 210 L376 214 L379 215 L379 225 L383 226 L384 220 L390 213 L390 210 L387 208 L383 201 L384 187 L388 183 L390 178 L384 171 L384 164 Z M380 178 L383 177 L384 179 L381 180 Z M129 164 L128 172 L124 175 L122 180 L124 181 L125 184 L128 185 L129 189 L129 201 L128 205 L124 209 L124 215 L128 219 L130 229 L128 239 L124 241 L122 246 L128 253 L130 261 L128 271 L124 275 L124 281 L128 285 L130 296 L128 305 L122 310 L122 312 L128 319 L129 326 L132 326 L133 315 L136 314 L136 310 L133 308 L133 298 L131 294 L133 292 L133 283 L136 280 L136 276 L133 275 L133 264 L131 261 L133 258 L133 249 L136 248 L136 244 L133 241 L133 232 L131 228 L133 225 L133 215 L136 214 L136 210 L133 209 L133 198 L131 194 L133 192 L133 183 L136 180 L136 178 L133 175 L133 164 Z M129 311 L131 310 L132 313 L130 314 Z M129 277 L131 276 L132 279 L130 280 Z M129 211 L131 210 L132 213 L130 214 Z M129 178 L131 177 L132 179 L130 180 Z M221 166 L184 193 L164 233 L156 291 L153 449 L355 451 L359 447 L355 274 L341 214 L316 181 L291 166 L267 160 Z M223 172 L242 167 L289 172 L313 187 L337 220 L349 282 L351 444 L160 443 L160 346 L168 243 L186 201 L205 182 Z M150 149 L141 162 L144 454 L152 461 L362 460 L371 447 L368 155 L355 146 Z M154 155 L358 155 L362 159 L364 445 L359 453 L155 454 L149 449 L149 162 Z M359 134 L358 136 L361 138 L368 138 L369 141 L376 142 L376 147 L379 150 L380 157 L383 159 L384 154 L386 153 L387 145 L383 140 L383 136 L381 134 L377 135 L372 130 Z M154 135 L144 130 L138 131 L135 135 L130 135 L129 136 L130 140 L125 145 L126 153 L128 154 L128 158 L130 159 L132 157 L133 150 L136 147 L137 141 L142 141 L148 138 L152 138 Z M325 136 L327 140 L336 140 L338 142 L341 142 L343 140 L353 140 L355 138 L354 134 L347 134 L341 129 L338 129 L332 134 Z M292 135 L292 138 L294 140 L304 140 L306 142 L309 142 L311 140 L320 140 L322 138 L321 135 L312 133 L311 130 L309 129 L305 129 L297 136 L295 134 Z M259 134 L259 138 L261 140 L270 140 L272 142 L275 142 L277 140 L286 140 L288 138 L288 134 L281 134 L275 129 L272 129 L263 135 Z M224 135 L224 138 L226 140 L234 140 L236 142 L240 141 L241 138 L243 138 L244 140 L250 140 L252 138 L251 135 L245 134 L240 129 L233 130 L230 134 Z M190 134 L190 138 L192 140 L197 140 L200 138 L203 142 L206 142 L208 140 L218 140 L220 138 L219 134 L215 136 L214 134 L212 134 L206 129 L201 130 L195 135 Z M157 135 L157 138 L159 140 L169 140 L170 142 L174 142 L176 140 L184 140 L187 138 L185 134 L177 133 L174 129 L170 129 L165 134 Z M246 19 L229 30 L222 44 L222 62 L230 79 L225 84 L205 87 L195 99 L194 112 L141 112 L121 121 L110 137 L110 472 L122 488 L140 495 L378 494 L396 482 L403 467 L402 137 L396 126 L379 114 L318 112 L317 99 L307 87 L287 84 L282 79 L291 56 L283 30 L266 19 Z M130 123 L214 121 L225 112 L224 103 L213 99 L211 105 L217 111 L205 112 L202 101 L210 92 L223 91 L236 100 L240 113 L233 123 L239 125 L247 109 L233 86 L242 83 L257 67 L270 83 L279 86 L265 109 L273 125 L279 123 L272 113 L276 100 L287 92 L298 91 L309 99 L310 108 L296 112 L294 108 L301 101 L288 103 L287 111 L297 121 L375 121 L390 130 L396 143 L396 464 L385 483 L375 487 L135 487 L121 477 L116 464 L116 143 Z M249 44 L252 42 L260 42 L267 49 L267 57 L263 61 L258 60 L257 58 L254 58 L249 62 L245 57 L245 49 Z M236 34 L245 27 L249 26 L263 26 L270 29 L282 42 L283 60 L280 67 L275 72 L273 72 L270 69 L270 66 L274 59 L275 54 L274 47 L268 38 L262 35 L254 34 L244 38 L238 47 L237 54 L238 59 L241 63 L242 69 L237 73 L230 64 L229 60 L230 42 L232 41 L232 39 Z"/></svg>
