<svg xmlns="http://www.w3.org/2000/svg" width="512" height="512" viewBox="0 0 512 512" aria-hidden="true" focusable="false"><path fill="currentColor" fill-rule="evenodd" clip-rule="evenodd" d="M251 280 L243 284 L237 293 L239 310 L249 322 L237 335 L235 352 L244 365 L254 368 L255 403 L259 403 L259 368 L269 365 L274 360 L278 352 L278 345 L275 338 L265 331 L257 331 L247 338 L246 350 L252 357 L263 357 L267 351 L267 346 L262 341 L255 344 L256 349 L259 349 L260 346 L262 347 L260 352 L255 353 L251 349 L251 343 L255 338 L268 338 L272 346 L272 352 L267 360 L260 363 L253 363 L243 357 L241 340 L251 326 L270 326 L274 322 L274 319 L269 314 L261 314 L253 318 L247 313 L253 307 L253 303 L250 300 L251 297 L256 298 L256 303 L260 308 L268 309 L275 304 L276 293 L268 282 Z M270 297 L271 300 L267 304 L264 304 L261 300 L262 298 L267 300 Z M242 304 L243 291 L252 285 L261 285 L263 287 L265 286 L270 291 L271 294 L270 297 L267 295 L266 292 L257 293 L249 292 L246 294 L246 305 L244 306 Z M256 183 L254 185 L254 214 L251 217 L251 221 L255 224 L255 226 L247 231 L247 233 L249 235 L252 235 L256 239 L256 241 L254 243 L246 243 L245 251 L249 253 L255 252 L257 257 L253 261 L250 260 L241 261 L238 265 L239 272 L243 275 L248 275 L253 271 L256 271 L260 275 L268 277 L274 273 L275 267 L271 263 L265 263 L261 267 L258 266 L258 263 L262 259 L267 259 L268 257 L270 257 L270 252 L267 249 L260 251 L258 247 L260 243 L265 243 L267 241 L267 238 L265 236 L260 236 L257 233 L261 228 L263 228 L263 223 L260 222 L258 219 L259 183 Z M264 271 L267 268 L269 269 L267 272 Z M243 268 L244 265 L250 266 L248 269 Z M250 18 L231 29 L223 47 L230 71 L245 82 L222 101 L209 126 L210 161 L214 166 L214 413 L210 418 L210 454 L223 481 L240 492 L263 494 L287 484 L303 456 L303 418 L299 413 L299 166 L303 161 L304 126 L291 101 L278 88 L278 74 L288 57 L287 39 L275 23 Z M222 465 L229 464 L239 466 L275 466 L290 464 L291 467 L286 475 L274 484 L264 486 L262 488 L251 488 L249 486 L239 484 L238 482 L232 480 L227 475 Z M217 453 L221 452 L227 455 L245 457 L280 456 L286 455 L292 452 L295 452 L296 454 L294 456 L284 458 L282 460 L240 461 L219 456 Z M217 432 L223 431 L227 433 L234 433 L236 435 L263 436 L279 435 L280 433 L295 431 L296 444 L294 447 L273 450 L271 452 L242 452 L240 450 L232 450 L219 447 L217 444 Z M222 424 L227 423 L234 425 L245 425 L246 427 L267 427 L268 425 L280 425 L290 423 L291 426 L280 429 L270 429 L269 431 L244 431 L243 429 L233 429 L223 427 Z M291 422 L293 421 L295 424 L292 425 Z M217 422 L221 421 L222 424 L219 425 Z M222 166 L225 167 L225 415 L224 416 L221 414 L221 167 Z M289 165 L292 166 L292 414 L290 416 L288 415 L288 166 Z M231 165 L283 166 L283 416 L279 419 L229 416 Z M217 157 L220 155 L293 155 L296 158 L295 159 L218 159 Z M217 146 L218 145 L295 145 L296 149 L295 150 L218 150 Z M215 132 L219 128 L296 128 L299 131 L299 136 L297 138 L217 138 L215 135 Z M222 117 L227 106 L235 97 L251 89 L257 89 L258 100 L262 105 L269 107 L275 104 L278 99 L280 99 L290 113 L291 121 L223 122 Z M259 56 L262 56 L267 61 L268 66 L270 68 L272 79 L272 96 L270 100 L265 100 L263 98 L262 71 L258 64 L254 62 Z M243 55 L243 47 L247 41 L252 38 L261 38 L265 40 L268 45 L268 48 L270 49 L269 52 L255 51 L251 54 L248 60 Z M261 24 L262 26 L269 27 L279 37 L280 43 L282 44 L282 56 L280 58 L279 63 L276 65 L274 63 L275 44 L272 39 L264 32 L260 31 L248 32 L244 36 L242 36 L242 38 L239 41 L237 47 L238 59 L241 61 L241 63 L245 67 L255 70 L256 75 L249 76 L241 72 L234 65 L230 54 L231 41 L242 28 L249 26 L251 24 Z"/></svg>
