<svg xmlns="http://www.w3.org/2000/svg" width="512" height="512" viewBox="0 0 512 512" aria-hidden="true" focusable="false"><path fill="currentColor" fill-rule="evenodd" clip-rule="evenodd" d="M254 104 L216 141 L215 148 L210 149 L185 185 L183 196 L178 197 L180 203 L171 209 L169 223 L164 224 L165 230 L156 241 L156 252 L147 264 L143 288 L137 296 L129 363 L136 378 L132 384 L136 385 L134 397 L144 412 L142 417 L147 418 L151 434 L162 441 L163 447 L168 446 L173 457 L206 475 L219 474 L233 481 L257 481 L258 477 L278 481 L285 476 L308 474 L316 466 L321 467 L323 461 L338 457 L343 446 L348 447 L361 432 L376 398 L379 380 L375 378 L382 365 L378 351 L382 347 L377 344 L380 330 L373 312 L374 295 L341 212 L330 203 L333 198 L328 196 L324 182 L292 137 Z M253 475 L256 474 L257 476 L254 477 Z M283 467 L282 471 L278 475 L267 476 L260 469 L261 467 L268 467 L269 471 L273 472 L275 466 Z M228 467 L236 466 L237 472 L241 472 L242 467 L250 467 L251 469 L246 475 L238 476 L232 474 L229 471 Z M312 458 L311 464 L308 467 L303 468 L301 470 L297 470 L291 465 L294 462 L298 462 L300 465 L303 465 L305 463 L305 461 L303 460 L304 458 L308 457 Z M200 458 L201 457 L205 458 L206 463 L208 465 L210 465 L212 461 L217 462 L220 465 L214 470 L210 470 L208 468 L203 467 L200 464 Z M343 441 L345 440 L346 442 L344 443 Z M338 441 L338 447 L333 453 L326 456 L320 453 L322 449 L325 448 L328 450 L332 449 L331 443 L334 440 Z M173 441 L177 440 L180 443 L179 445 L180 450 L183 450 L186 448 L191 453 L186 456 L177 453 L174 450 Z M165 441 L167 440 L168 442 L166 443 Z M183 423 L219 426 L292 426 L323 424 L325 422 L328 424 L310 438 L294 445 L269 450 L241 450 L211 443 L194 434 Z M355 415 L358 418 L358 426 L351 434 L343 434 L342 432 L347 427 L353 426 L351 419 Z M155 415 L157 415 L160 419 L157 426 L159 427 L164 426 L169 432 L168 434 L164 435 L160 434 L155 429 L154 425 L152 424 L152 419 L154 418 Z M362 413 L364 412 L365 415 L363 416 Z M301 414 L304 409 L310 406 L313 407 L319 413 L319 417 L318 418 L302 418 Z M273 415 L280 407 L284 406 L293 414 L293 419 L292 420 L274 420 Z M218 414 L222 409 L229 406 L235 411 L238 419 L237 420 L219 420 Z M245 415 L250 408 L256 405 L264 412 L266 415 L266 419 L265 420 L246 420 Z M192 413 L201 405 L209 412 L211 419 L208 420 L207 418 L193 418 Z M357 388 L355 399 L347 416 L342 422 L342 424 L331 436 L329 436 L325 441 L323 441 L316 447 L293 457 L278 459 L277 461 L234 461 L232 459 L217 457 L215 455 L209 454 L201 449 L194 447 L174 430 L169 424 L169 422 L166 420 L159 405 L161 403 L164 406 L169 417 L186 435 L196 441 L197 443 L204 445 L205 447 L218 452 L233 454 L235 456 L265 457 L293 452 L294 450 L301 449 L320 439 L342 417 L350 402 L353 389 L355 387 Z M155 387 L157 388 L157 391 L159 392 L161 400 L160 403 L157 402 L154 391 Z M366 386 L371 392 L369 402 L364 407 L360 407 L359 406 L360 400 L366 398 L366 394 L362 392 L362 390 Z M145 385 L147 386 L148 392 L144 397 L146 399 L151 400 L152 402 L151 407 L147 407 L142 402 L141 390 Z M356 381 L358 382 L357 386 L355 385 Z M136 381 L138 380 L139 383 L137 384 Z M373 379 L375 380 L374 385 L371 383 Z M179 404 L186 393 L270 394 L269 390 L193 387 L188 383 L188 376 L193 371 L202 373 L318 371 L323 376 L323 383 L318 387 L307 389 L306 393 L325 393 L332 403 L332 409 L325 417 L324 411 L312 399 L297 409 L284 399 L271 408 L254 399 L241 409 L226 399 L213 409 L199 399 L189 407 L185 417 L180 412 Z M152 371 L155 373 L156 382 L155 387 L152 385 L151 379 Z M371 353 L375 358 L375 369 L370 375 L367 376 L366 368 L371 366 L371 362 L369 360 L368 361 L366 360 L366 354 Z M141 353 L144 354 L145 360 L144 362 L139 362 L139 365 L144 368 L143 375 L141 375 L136 369 L136 357 Z M134 349 L135 346 L138 347 L136 350 Z M151 344 L153 345 L153 367 L152 368 L150 367 L150 345 Z M357 330 L360 332 L360 342 L361 343 L361 369 L359 380 L356 379 L357 372 L356 331 Z M155 323 L156 324 L155 340 L152 342 L151 341 L152 324 Z M365 322 L369 322 L374 327 L374 338 L369 344 L366 343 L366 336 L370 333 L370 331 L365 329 L364 326 Z M356 322 L358 323 L357 330 L355 329 Z M146 321 L147 322 L146 329 L141 331 L142 335 L145 336 L144 338 L145 343 L143 344 L137 338 L137 327 L140 323 Z M155 317 L157 318 L156 322 L154 321 Z M370 315 L372 314 L373 316 L371 317 Z M138 315 L140 314 L141 316 L139 317 Z M352 304 L355 305 L357 316 L356 322 L353 321 L351 308 Z M160 300 L161 304 L159 314 L156 316 L155 315 L157 301 Z M358 291 L364 292 L369 299 L369 308 L364 313 L361 312 L360 305 L365 303 L365 300 L359 298 L357 295 Z M152 291 L153 297 L151 299 L147 299 L147 304 L151 305 L150 312 L147 313 L142 308 L142 300 L143 296 L146 293 L148 293 L149 291 Z M347 286 L349 287 L351 291 L353 300 L352 304 L350 303 L348 299 L346 289 Z M342 272 L346 276 L348 283 L347 286 L344 285 L341 274 Z M162 263 L163 264 L162 268 L156 269 L156 274 L159 276 L157 282 L154 283 L151 280 L150 276 L152 266 L156 263 Z M349 262 L355 263 L360 269 L361 277 L357 283 L353 282 L352 277 L356 273 L356 271 L348 267 L347 264 Z M174 259 L175 262 L173 268 L170 272 L169 279 L167 281 L162 299 L160 300 L159 296 L161 287 L163 285 L162 283 L164 282 L165 275 L168 271 L171 260 Z M178 250 L179 251 L178 256 L176 259 L174 259 L173 256 L175 251 Z M336 235 L344 235 L347 238 L349 243 L349 249 L345 255 L343 254 L341 249 L344 245 L344 242 L338 241 L335 237 Z M174 235 L175 236 L173 242 L168 241 L166 243 L166 245 L170 248 L168 254 L166 255 L162 251 L161 245 L166 236 Z M323 209 L331 209 L335 213 L335 216 L337 218 L337 223 L333 228 L331 228 L329 225 L329 221 L332 219 L332 217 L330 215 L325 216 L322 211 Z M188 209 L189 212 L186 217 L184 215 L181 215 L179 217 L179 219 L183 223 L178 228 L174 222 L175 215 L180 209 Z M254 199 L262 208 L261 216 L271 225 L275 241 L273 255 L267 257 L264 267 L286 277 L293 286 L296 324 L284 342 L300 337 L319 351 L317 360 L308 367 L268 366 L279 357 L236 367 L203 367 L192 357 L193 347 L211 337 L242 353 L271 352 L277 348 L276 345 L258 346 L257 342 L275 337 L286 320 L283 296 L279 299 L275 328 L258 335 L237 330 L232 299 L228 296 L226 323 L237 339 L248 340 L247 346 L227 340 L215 324 L219 283 L246 269 L247 262 L238 255 L236 241 L239 225 L250 216 L248 207 Z M312 183 L316 183 L321 189 L321 191 L323 192 L323 198 L318 204 L316 203 L314 198 L316 196 L316 191 L315 190 L309 191 L307 189 L307 187 L311 185 Z M199 183 L200 185 L203 186 L203 189 L201 191 L196 190 L194 192 L197 199 L192 203 L188 198 L189 190 L194 183 Z M295 160 L300 159 L307 167 L307 176 L304 181 L302 181 L301 178 L298 176 L298 174 L301 172 L301 168 L297 167 L293 169 L291 166 L291 164 Z M218 161 L220 166 L218 169 L214 167 L210 168 L210 172 L213 173 L214 175 L208 181 L204 175 L204 169 L207 163 L211 159 Z M253 158 L267 164 L294 195 L337 278 L352 345 L351 378 L340 408 L328 388 L328 372 L321 366 L323 346 L316 337 L299 331 L302 312 L297 281 L289 272 L273 266 L282 239 L257 186 L252 187 L229 239 L238 266 L222 272 L212 284 L211 331 L195 337 L187 346 L189 366 L183 372 L183 388 L174 399 L173 410 L165 397 L159 345 L174 278 L212 202 L229 179 Z M212 152 L214 151 L215 153 L213 154 Z M177 248 L198 206 L201 204 L207 192 L218 179 L218 177 L246 147 L256 141 L265 147 L282 164 L300 187 L307 200 L310 202 L321 223 L323 224 L325 231 L328 234 L334 250 L342 265 L343 271 L339 271 L337 262 L320 229 L318 222 L315 220 L309 207 L303 200 L301 195 L298 193 L291 181 L284 175 L283 172 L271 160 L258 151 L253 151 L250 154 L246 155 L220 181 L207 199 L201 211 L198 213 L196 220 L193 222 L182 246 L179 250 Z M281 136 L287 141 L289 146 L291 147 L291 154 L289 155 L287 159 L285 159 L281 155 L283 151 L283 146 L278 146 L277 149 L275 149 L272 146 L272 144 Z M230 136 L239 145 L236 149 L234 149 L233 146 L228 146 L228 151 L230 154 L226 159 L224 159 L220 154 L220 146 L224 142 L225 139 Z M255 129 L257 130 L256 135 L254 134 Z M255 111 L262 117 L262 119 L265 120 L270 125 L271 135 L267 141 L262 137 L262 128 L257 122 L252 123 L250 127 L248 128 L248 138 L245 141 L239 135 L239 128 Z M254 18 L234 24 L221 37 L216 69 L236 97 L179 169 L139 247 L121 306 L118 376 L134 430 L163 465 L218 492 L265 495 L319 483 L364 449 L383 417 L391 392 L394 346 L387 294 L366 233 L329 165 L295 120 L306 105 L287 85 L294 69 L292 42 L279 25 Z M253 90 L292 126 L351 216 L378 286 L388 346 L383 397 L360 443 L341 462 L318 476 L265 489 L213 484 L169 461 L147 438 L134 415 L123 361 L130 296 L157 222 L202 148 Z M247 72 L250 69 L254 69 L263 75 L266 79 L268 79 L270 82 L273 83 L283 92 L285 92 L288 96 L290 96 L296 101 L298 108 L296 110 L291 110 L288 106 L286 106 L278 99 L276 99 L273 95 L271 95 L256 82 L254 82 L247 75 Z M243 51 L247 47 L252 45 L259 45 L264 47 L269 53 L270 57 L269 65 L266 68 L257 63 L246 63 L243 65 L241 62 L241 56 Z M272 29 L280 36 L287 48 L288 66 L284 76 L280 80 L273 74 L277 63 L277 54 L275 53 L273 46 L262 38 L249 38 L237 47 L234 54 L234 65 L238 73 L241 75 L242 80 L247 85 L244 89 L236 87 L229 80 L224 71 L223 52 L225 44 L239 29 L248 27 L249 25 L261 25 Z"/></svg>
