<svg xmlns="http://www.w3.org/2000/svg" width="512" height="512" viewBox="0 0 512 512" aria-hidden="true" focusable="false"><path fill="currentColor" fill-rule="evenodd" clip-rule="evenodd" d="M170 496 L165 497 L166 499 L169 498 Z M292 495 L292 500 L296 500 L294 495 Z M256 494 L257 497 L256 500 L259 499 L265 500 L263 498 L260 498 Z M216 491 L216 494 L227 497 L229 500 L231 496 L234 496 L237 500 L241 500 L238 497 L242 496 L243 493 L245 495 L248 496 L249 495 L247 491 L243 491 L240 486 L237 489 L232 489 L231 486 L229 485 L228 487 L219 488 Z M235 492 L237 491 L238 493 L236 494 Z M217 491 L219 490 L220 492 L218 493 Z M168 483 L168 486 L170 488 L173 487 L174 489 L177 489 L178 482 L182 485 L182 489 L179 490 L179 493 L183 500 L185 498 L188 500 L191 495 L194 496 L192 498 L193 500 L196 500 L197 498 L200 497 L205 500 L211 500 L209 499 L207 495 L201 496 L200 494 L198 494 L196 497 L194 496 L195 492 L199 491 L201 487 L205 489 L208 483 L211 486 L214 484 L208 481 L199 487 L198 489 L196 488 L195 484 L194 484 L194 488 L192 489 L189 485 L183 484 L180 480 L178 480 L174 485 L171 483 Z M185 495 L187 494 L188 496 L186 497 Z M182 491 L184 490 L185 492 L183 493 Z M293 479 L291 479 L289 484 L292 483 Z M373 476 L371 476 L369 479 L372 480 Z M418 387 L418 391 L423 393 L423 391 L420 390 Z M448 351 L448 353 L451 354 L454 353 L454 352 Z M443 313 L434 313 L435 317 L431 319 L430 322 L427 320 L426 321 L427 332 L424 333 L424 335 L427 337 L427 341 L423 342 L421 340 L421 345 L425 346 L424 352 L429 354 L430 358 L425 360 L428 362 L428 364 L430 364 L430 361 L433 358 L431 354 L428 353 L428 351 L430 350 L428 345 L433 344 L435 348 L436 347 L435 342 L438 341 L438 339 L433 339 L431 342 L429 341 L429 335 L432 334 L435 330 L434 325 L432 323 L436 322 L439 325 L438 321 L441 319 Z M429 330 L432 329 L433 331 L430 332 Z M407 292 L407 296 L409 296 L409 292 Z M424 281 L422 281 L421 283 L423 284 Z M336 279 L336 281 L340 283 L340 280 Z M405 277 L406 279 L408 279 L408 277 Z M400 257 L400 261 L401 261 L401 257 Z M246 248 L241 249 L242 256 L244 256 L243 252 L246 250 Z M213 185 L213 187 L216 188 L216 186 Z M386 165 L381 167 L385 169 Z M158 161 L151 163 L150 165 L147 165 L148 170 L153 175 L155 172 L157 172 L157 168 L159 167 Z M166 150 L167 152 L174 153 Z M354 151 L354 153 L361 154 L357 151 L357 149 Z M376 136 L377 138 L379 138 L378 136 Z M283 128 L286 131 L286 128 Z M237 115 L238 119 L241 120 L240 116 Z M163 112 L161 112 L159 116 L161 116 Z M315 81 L311 83 L310 88 L315 86 L316 83 Z M204 81 L205 84 L208 84 L208 82 Z M191 35 L190 34 L187 38 L190 38 Z M275 33 L274 37 L278 38 L281 36 L286 38 L285 40 L282 41 L283 48 L286 51 L294 49 L295 51 L297 50 L297 47 L295 48 L293 47 L296 44 L296 42 L294 41 L292 37 L287 36 L286 33 L283 34 Z M290 44 L292 43 L293 46 L291 47 Z M287 41 L289 40 L290 42 L288 43 Z M296 25 L293 27 L292 32 L293 34 L297 33 L295 29 Z M115 23 L115 25 L118 27 L118 25 Z M286 19 L286 22 L292 23 L290 18 Z M158 16 L159 20 L161 20 L160 15 Z M280 13 L280 16 L284 15 L284 13 Z M270 13 L270 16 L272 16 L272 13 Z M242 13 L242 15 L245 15 L245 13 Z M195 13 L196 16 L199 15 L199 13 Z M137 13 L135 13 L135 18 L136 18 Z M127 13 L123 13 L122 16 L123 19 L120 20 L119 23 L123 23 L125 21 L125 16 L127 15 Z M113 13 L113 15 L116 15 L116 13 Z M20 13 L18 17 L23 15 L28 23 L33 22 L28 27 L13 22 L13 76 L19 82 L13 84 L13 94 L19 96 L17 102 L13 101 L13 127 L16 122 L23 127 L22 131 L15 130 L18 139 L13 147 L13 189 L17 191 L13 199 L18 199 L13 205 L13 222 L18 221 L13 235 L23 239 L13 249 L13 312 L17 314 L13 336 L25 344 L19 348 L13 343 L13 352 L25 358 L13 360 L13 366 L23 371 L13 380 L21 383 L13 391 L20 399 L13 406 L13 447 L20 458 L19 462 L13 461 L13 489 L18 491 L13 499 L79 500 L82 496 L84 500 L122 500 L124 496 L120 497 L118 491 L126 487 L126 500 L145 500 L145 491 L153 481 L147 477 L156 471 L160 472 L157 482 L159 477 L164 478 L163 473 L171 477 L176 471 L194 480 L202 476 L207 479 L213 473 L225 480 L223 475 L228 470 L232 480 L235 473 L239 476 L243 471 L246 480 L251 478 L257 485 L256 490 L263 486 L260 492 L264 493 L264 487 L270 488 L267 482 L284 480 L284 474 L290 477 L297 472 L312 473 L317 478 L329 474 L332 479 L337 468 L355 466 L355 472 L360 471 L368 460 L372 461 L370 466 L379 460 L385 467 L395 464 L400 455 L404 458 L400 468 L387 469 L381 475 L378 472 L377 484 L367 484 L364 479 L356 484 L356 477 L346 476 L348 485 L342 489 L341 483 L337 488 L335 483 L343 479 L339 474 L332 488 L321 492 L314 485 L309 497 L500 497 L500 382 L494 381 L500 375 L500 156 L499 160 L492 158 L496 160 L495 169 L486 156 L491 155 L491 150 L500 152 L500 96 L494 94 L500 89 L500 13 L452 13 L455 18 L441 24 L432 19 L434 13 L414 13 L412 18 L408 13 L356 13 L342 23 L338 22 L338 13 L311 13 L305 19 L310 25 L301 24 L297 38 L302 47 L297 54 L304 55 L305 60 L294 61 L303 68 L309 63 L316 65 L313 73 L299 72 L306 79 L294 88 L290 83 L295 79 L291 81 L288 74 L292 67 L282 72 L281 66 L275 66 L272 54 L267 53 L271 32 L281 26 L273 26 L274 21 L269 19 L270 26 L257 25 L254 13 L243 24 L234 21 L232 15 L229 23 L222 25 L224 32 L217 23 L211 32 L207 29 L209 23 L193 21 L192 13 L177 13 L179 23 L173 23 L170 16 L165 23 L153 23 L148 17 L144 28 L140 18 L137 29 L137 23 L129 20 L118 30 L120 34 L114 32 L109 22 L113 18 L106 13 L95 13 L96 23 L87 21 L86 13 L57 13 L54 22 L48 18 L52 13 Z M490 498 L492 497 L493 499 L491 500 Z M338 498 L341 497 L342 499 L339 500 Z M325 496 L327 495 L328 497 L326 498 Z M90 496 L93 495 L94 499 L92 500 Z M130 494 L132 492 L136 493 L135 496 L131 496 Z M497 491 L499 490 L500 492 L498 493 Z M493 491 L495 490 L496 492 L494 493 Z M314 493 L315 490 L319 491 L316 494 Z M85 491 L87 490 L88 492 L86 493 Z M26 490 L31 493 L31 496 L29 499 L25 496 Z M473 490 L475 489 L476 492 L474 493 Z M460 490 L464 489 L465 492 L461 493 Z M336 489 L339 488 L340 490 L337 491 Z M31 489 L33 488 L35 491 L37 491 L38 494 L42 496 L42 498 L39 500 L36 500 L35 498 L33 498 L32 493 L30 492 Z M354 487 L357 486 L358 489 L355 490 Z M455 486 L457 485 L458 488 L456 489 Z M386 483 L388 482 L389 484 L387 485 Z M142 483 L145 482 L146 484 L143 485 Z M137 482 L139 483 L139 485 L142 485 L145 488 L142 496 L139 494 L139 490 L137 489 L136 485 Z M34 483 L36 482 L37 484 L35 485 Z M455 482 L458 481 L459 484 L457 485 Z M110 483 L114 481 L121 483 L122 485 L120 488 L112 487 Z M88 482 L91 481 L96 482 L96 485 L93 490 L86 489 Z M393 480 L396 479 L397 482 L395 483 Z M263 480 L265 479 L266 481 L264 482 Z M271 479 L273 478 L274 480 L272 481 Z M390 478 L393 477 L394 479 L391 480 Z M112 477 L114 478 L113 481 L110 480 Z M30 477 L33 476 L34 478 L31 479 Z M381 475 L384 476 L385 480 L380 481 L379 480 Z M75 475 L77 474 L78 476 L76 477 Z M39 475 L43 474 L44 478 L43 479 L40 478 Z M21 475 L24 474 L25 477 L22 478 Z M434 475 L438 473 L439 476 L442 477 L442 479 L438 480 L434 477 Z M272 472 L274 473 L273 477 L270 476 Z M415 471 L417 470 L418 472 L416 473 Z M397 477 L400 472 L402 472 L403 470 L407 470 L408 474 L415 476 L416 479 L419 479 L418 476 L420 473 L424 474 L425 472 L430 473 L425 479 L428 479 L429 477 L433 477 L434 479 L429 482 L432 484 L432 486 L426 487 L425 484 L421 482 L416 482 L414 486 L411 486 L409 483 L412 482 L413 480 L407 479 L406 477 L404 477 L403 479 L398 481 Z M445 470 L447 469 L448 471 L446 472 Z M397 470 L399 469 L400 471 L398 472 Z M289 468 L292 470 L290 474 L288 473 Z M436 467 L437 470 L435 473 L433 473 L432 471 Z M311 468 L314 467 L315 469 L312 470 Z M214 468 L216 467 L217 469 L215 470 Z M201 468 L203 467 L204 469 L202 470 Z M182 467 L184 468 L185 471 L184 474 L180 471 Z M164 468 L166 467 L167 469 L165 470 Z M321 467 L323 466 L324 468 L322 469 Z M296 467 L298 466 L299 468 L297 469 Z M274 467 L277 466 L280 469 L276 470 Z M151 467 L153 466 L154 468 L152 469 Z M138 466 L139 467 L138 470 L133 472 L132 471 L133 468 Z M421 466 L424 465 L425 467 L422 468 Z M293 466 L295 465 L296 467 L294 468 Z M256 465 L259 465 L262 467 L259 473 L257 472 L257 468 L255 467 Z M431 465 L434 464 L435 467 L432 468 Z M417 465 L419 464 L420 466 L418 467 Z M455 464 L457 463 L458 465 L456 466 Z M338 464 L343 463 L344 465 L339 466 Z M290 464 L293 463 L294 465 L291 466 Z M234 463 L237 464 L236 469 L233 466 Z M192 464 L195 463 L196 466 L194 467 Z M314 463 L316 462 L317 464 L315 465 Z M39 463 L41 462 L42 464 L40 465 Z M350 462 L352 461 L353 463 L351 464 Z M243 462 L245 461 L246 464 L244 465 Z M227 462 L223 467 L219 469 L217 468 L225 461 Z M209 462 L211 461 L212 463 L210 464 Z M163 462 L165 461 L166 463 L164 464 Z M448 461 L450 460 L451 462 L449 463 Z M329 461 L331 460 L334 463 L332 464 Z M135 461 L138 460 L139 463 L136 464 Z M389 460 L391 459 L392 461 L390 462 Z M263 459 L266 459 L268 461 L266 466 L264 466 L263 463 L261 462 Z M152 459 L153 461 L150 463 L150 467 L147 468 L145 470 L144 475 L141 476 L139 472 L139 468 L141 466 L146 466 L145 462 L146 460 Z M483 459 L485 458 L486 460 L484 461 Z M445 459 L447 458 L448 460 L446 461 Z M431 459 L433 458 L434 460 L432 461 Z M380 459 L383 458 L384 460 L381 461 Z M296 458 L298 459 L297 463 L295 462 Z M217 459 L219 458 L222 461 L219 462 Z M55 459 L57 458 L58 460 L56 461 Z M249 458 L253 457 L254 460 L250 461 Z M157 458 L159 457 L160 460 L158 461 Z M123 457 L125 458 L124 462 L121 461 Z M314 456 L315 458 L311 459 L311 462 L308 463 L308 465 L306 466 L305 462 L307 461 L307 459 L310 456 Z M237 456 L241 457 L240 462 L238 462 L235 459 Z M374 456 L376 455 L377 457 L375 458 Z M330 457 L334 455 L337 456 L338 458 L334 460 L331 459 Z M298 456 L301 455 L304 458 L301 459 Z M290 455 L291 459 L287 461 L286 459 Z M273 456 L276 455 L277 457 L274 458 Z M224 456 L227 455 L230 459 L229 460 L225 459 Z M177 460 L177 458 L182 455 L186 457 L189 455 L191 457 L191 459 L186 463 L184 462 L184 460 L181 461 Z M138 456 L140 455 L141 457 L139 458 Z M33 455 L41 458 L41 460 L37 463 L37 465 L39 466 L38 471 L35 471 L32 468 L33 462 L35 461 L32 459 Z M355 454 L357 455 L356 458 L353 457 Z M314 455 L317 454 L322 460 L319 461 Z M211 455 L213 454 L216 455 L217 457 L214 459 Z M28 454 L31 455 L32 459 L31 461 L27 460 L26 456 Z M465 454 L467 453 L468 455 L466 456 Z M361 454 L363 453 L367 455 L368 457 L366 458 L362 456 Z M196 456 L201 453 L206 454 L207 458 L209 459 L209 462 L205 463 L201 457 L197 458 Z M131 454 L133 453 L134 455 L132 456 Z M420 455 L421 452 L425 453 L422 456 Z M349 452 L351 457 L345 460 L344 458 L346 456 L346 453 Z M336 453 L338 452 L339 454 L337 455 Z M168 452 L170 453 L169 460 L166 459 L167 457 L166 454 Z M152 455 L153 452 L156 453 L154 456 Z M473 452 L478 451 L479 453 L474 454 Z M453 452 L456 451 L457 453 L454 454 Z M333 452 L335 451 L336 453 L334 454 Z M323 451 L326 451 L327 455 L330 457 L328 461 L321 454 Z M373 453 L376 450 L378 451 L375 454 Z M127 450 L129 451 L128 454 L125 453 Z M263 450 L265 449 L266 451 L264 452 Z M142 453 L144 449 L150 450 L149 453 L146 454 Z M399 449 L401 448 L404 452 L400 454 Z M385 449 L388 448 L390 452 L388 453 Z M363 449 L366 448 L368 452 L366 453 Z M341 448 L343 449 L342 453 L338 451 Z M296 449 L299 448 L300 450 L297 451 Z M272 449 L274 448 L275 450 L273 451 Z M249 449 L251 448 L252 450 L250 451 Z M173 449 L175 448 L176 450 L174 451 Z M305 448 L308 447 L309 449 L306 450 Z M133 448 L135 447 L136 450 L134 451 Z M112 447 L115 448 L115 452 L117 451 L120 452 L118 457 L115 456 L114 460 L112 460 L108 455 L105 454 L106 451 L110 452 Z M49 448 L51 447 L52 450 L50 451 Z M450 447 L454 446 L455 448 L451 449 Z M404 447 L406 446 L407 448 L405 449 Z M239 447 L241 446 L243 449 L240 450 Z M226 447 L228 446 L229 448 L227 449 Z M93 447 L95 446 L96 448 L94 449 Z M355 445 L360 447 L361 449 L360 454 L354 448 Z M156 445 L158 446 L157 453 L153 449 L153 447 Z M329 445 L332 444 L333 446 L330 447 Z M288 447 L289 444 L293 445 L291 448 Z M219 444 L222 446 L223 450 L222 452 L217 450 Z M244 443 L246 442 L247 445 L245 446 Z M230 443 L232 442 L233 445 L231 446 Z M381 441 L385 445 L382 446 L380 449 L378 449 L377 445 Z M133 442 L135 441 L136 443 L134 444 Z M294 441 L296 440 L297 442 L295 443 Z M284 441 L286 440 L287 442 L285 443 Z M235 441 L237 440 L238 442 L236 443 Z M25 440 L29 442 L30 449 L29 452 L26 452 L25 448 L19 446 L20 444 L25 445 L24 442 Z M311 444 L313 439 L319 440 L319 442 L314 446 Z M268 440 L272 439 L273 442 L269 443 Z M216 439 L217 443 L212 446 L211 443 Z M202 439 L204 440 L205 443 L204 445 L201 444 Z M394 439 L397 438 L398 441 L395 442 Z M384 439 L388 438 L389 440 L385 441 Z M345 439 L347 438 L350 441 L346 442 Z M335 439 L337 438 L338 441 L336 442 Z M304 439 L306 438 L307 441 L305 442 Z M280 438 L281 439 L280 445 L276 448 L275 446 L277 443 L277 439 Z M257 438 L260 440 L258 444 L262 446 L261 449 L254 448 L254 442 Z M165 442 L165 440 L168 438 L171 440 L168 443 Z M121 441 L124 438 L132 439 L131 441 L126 442 Z M115 439 L117 438 L118 440 L116 441 Z M291 438 L293 437 L294 440 L292 441 Z M255 439 L251 444 L247 443 L251 437 Z M224 437 L225 440 L219 443 L218 439 Z M107 438 L109 437 L111 440 L109 441 Z M182 436 L184 436 L186 439 L186 441 L184 442 L186 444 L185 447 L177 443 L179 440 L183 440 L181 438 Z M99 437 L99 440 L96 441 L95 443 L89 445 L88 447 L85 445 L86 443 L88 443 L86 441 L88 438 L96 438 L97 436 Z M409 435 L410 438 L407 440 L406 437 Z M363 435 L364 437 L363 440 L361 441 L360 437 Z M333 435 L334 436 L333 440 L330 442 L329 440 L331 436 Z M53 435 L54 436 L53 439 L50 440 L49 438 Z M24 436 L26 435 L27 438 L25 439 Z M394 435 L398 434 L399 436 L395 437 Z M341 437 L342 434 L345 435 L343 438 Z M308 434 L310 435 L309 439 L307 438 Z M206 435 L209 434 L210 438 L208 439 Z M193 435 L196 434 L197 437 L195 438 Z M171 435 L175 434 L176 438 L173 439 Z M368 434 L371 433 L372 436 L369 437 Z M261 438 L264 433 L268 434 L266 438 L263 439 Z M434 433 L436 438 L432 442 L431 445 L427 445 L426 448 L423 447 L419 451 L415 450 L414 456 L412 457 L411 460 L408 460 L404 457 L405 454 L410 455 L410 453 L408 452 L408 449 L410 447 L412 448 L415 447 L414 445 L411 446 L409 444 L412 439 L415 439 L417 441 L419 440 L419 437 L417 434 L418 431 L420 432 L422 436 L427 437 L428 440 L430 440 L431 434 Z M347 432 L350 431 L354 435 L353 436 L348 435 Z M327 431 L329 432 L328 436 L326 435 Z M287 431 L289 432 L289 435 L285 436 L284 434 Z M401 431 L405 430 L406 432 L402 433 Z M377 430 L380 433 L379 436 L376 433 Z M315 431 L317 430 L322 435 L319 437 L315 433 Z M210 435 L210 433 L215 430 L219 432 L218 435 L213 436 Z M166 430 L169 431 L168 435 L164 433 Z M108 431 L110 430 L112 433 L110 434 Z M93 431 L95 430 L98 433 L95 435 Z M24 431 L26 430 L27 432 L25 433 Z M363 430 L368 429 L369 433 L368 434 L364 433 Z M276 430 L279 429 L280 432 L277 433 Z M258 429 L261 431 L261 433 L257 435 L257 437 L255 438 L254 437 L255 430 Z M249 429 L250 434 L245 437 L244 436 L245 432 Z M227 429 L232 432 L231 437 L227 436 L226 431 Z M15 430 L17 429 L18 431 L16 432 Z M292 431 L294 428 L296 428 L297 431 L302 432 L305 435 L300 438 L299 434 L295 433 L293 435 Z M220 429 L222 428 L223 431 L221 432 Z M186 429 L188 428 L189 431 L187 432 Z M484 427 L486 428 L485 432 L483 431 Z M334 427 L336 427 L340 431 L338 437 L336 436 L336 432 L333 430 Z M305 428 L308 427 L309 430 L307 431 Z M237 427 L239 428 L238 433 L235 432 Z M206 428 L206 431 L203 432 L202 434 L199 435 L196 434 L198 431 L201 431 L202 428 L204 427 Z M181 427 L183 431 L179 434 L176 434 L175 433 L176 430 Z M327 427 L329 426 L330 429 L328 430 Z M260 427 L262 426 L263 429 L261 430 Z M251 426 L253 425 L254 427 L252 428 Z M151 425 L152 426 L151 430 L153 431 L153 433 L149 435 L145 435 L144 432 L148 431 L148 427 Z M407 425 L410 424 L411 427 L408 428 Z M391 425 L393 424 L395 427 L392 428 Z M319 425 L321 424 L322 427 L320 428 Z M194 425 L196 424 L197 426 L195 427 Z M175 424 L176 426 L171 430 L170 426 Z M155 424 L158 427 L157 431 L154 429 Z M376 424 L382 423 L383 426 L380 428 Z M283 424 L285 423 L288 426 L284 427 Z M272 424 L274 423 L275 425 L273 426 Z M229 424 L231 423 L233 426 L231 427 Z M209 424 L211 423 L212 426 L210 427 Z M104 424 L107 423 L108 427 L105 428 Z M338 423 L340 422 L343 426 L346 427 L346 429 L344 430 L341 428 Z M136 422 L139 425 L138 427 L139 431 L137 433 L135 432 L133 427 Z M123 422 L125 426 L120 428 L119 425 Z M457 423 L459 421 L465 423 L464 427 L468 428 L469 430 L466 432 L460 432 L457 426 Z M434 421 L437 424 L437 428 L435 430 L432 429 L432 426 L434 425 L433 423 Z M113 422 L115 421 L116 423 L114 424 Z M298 420 L301 423 L300 425 L296 423 Z M265 421 L267 420 L268 422 L266 423 Z M215 420 L218 422 L217 426 L215 426 L213 423 Z M200 421 L202 420 L203 422 L201 423 Z M334 420 L336 419 L337 421 L335 422 Z M174 420 L175 419 L181 420 L183 424 L182 425 L176 424 Z M367 420 L370 418 L374 418 L375 423 L373 424 L371 422 L368 422 Z M267 419 L270 418 L271 420 L268 421 Z M256 419 L258 418 L260 421 L257 422 Z M243 419 L247 418 L248 420 L245 422 Z M170 419 L170 421 L167 422 L166 425 L163 426 L160 425 L161 421 L163 421 L166 418 Z M116 421 L118 418 L124 419 L122 422 Z M108 419 L107 421 L101 423 L98 427 L94 426 L100 418 Z M407 418 L409 417 L410 419 L408 420 Z M360 417 L362 418 L361 427 L357 425 L357 421 Z M346 418 L350 417 L352 421 L356 422 L355 429 L345 420 Z M326 417 L329 420 L328 424 L325 421 Z M317 418 L319 417 L320 419 L318 420 Z M278 418 L281 417 L282 420 L279 421 Z M190 417 L191 420 L189 425 L187 426 L186 425 L187 419 Z M74 417 L76 418 L75 422 L72 421 Z M364 417 L366 416 L367 419 L365 420 Z M302 417 L305 416 L308 420 L305 421 Z M289 417 L291 416 L294 419 L290 420 Z M233 417 L236 416 L238 420 L235 421 Z M221 419 L223 416 L226 417 L225 421 L222 421 Z M204 417 L207 416 L208 418 L205 419 Z M195 417 L197 416 L199 419 L197 420 Z M152 417 L151 420 L146 422 L144 425 L142 425 L139 421 L141 417 L143 418 L147 418 L150 416 Z M126 417 L128 416 L129 419 L127 420 Z M389 415 L390 416 L389 421 L386 424 L385 423 L386 416 Z M330 416 L333 415 L334 417 L331 418 Z M111 416 L114 415 L115 418 L112 419 Z M460 414 L463 417 L462 420 L459 418 Z M340 415 L343 414 L344 416 L341 417 Z M312 417 L313 414 L317 415 L314 418 Z M174 414 L176 415 L175 419 L172 417 Z M136 414 L137 416 L134 419 L132 419 L131 417 Z M81 415 L83 414 L84 416 L82 417 Z M477 414 L478 417 L476 420 L473 421 L471 425 L467 426 L465 423 L465 418 L471 416 L473 413 Z M154 416 L155 413 L158 414 L156 417 Z M396 412 L400 413 L398 420 L392 417 L392 415 Z M356 413 L358 412 L359 414 L357 415 Z M116 415 L119 412 L123 413 L122 415 L119 416 Z M74 414 L77 412 L79 413 L78 416 L75 416 Z M377 411 L381 415 L380 418 L377 417 L376 413 Z M369 415 L370 411 L374 412 L371 416 Z M347 412 L349 411 L350 414 L348 415 Z M285 412 L288 411 L289 413 L286 414 Z M240 411 L242 412 L243 415 L242 417 L239 415 Z M135 412 L137 411 L138 413 L136 414 Z M430 410 L432 415 L428 417 L427 416 L428 411 Z M295 411 L297 410 L298 412 L296 413 Z M262 410 L265 412 L264 416 L261 415 Z M253 410 L255 411 L255 414 L257 415 L256 417 L253 417 L251 415 Z M215 413 L216 410 L219 411 L217 414 Z M199 411 L201 410 L203 414 L200 415 Z M190 411 L193 410 L195 415 L194 416 L191 415 Z M164 411 L166 410 L167 413 L165 414 Z M486 409 L488 410 L487 414 L485 413 Z M144 409 L148 411 L146 416 L142 415 Z M94 410 L97 409 L98 413 L96 414 Z M470 409 L472 408 L473 410 L471 411 Z M317 409 L320 408 L321 410 L324 410 L325 413 L324 414 L319 413 Z M179 408 L182 411 L180 414 L178 413 Z M392 408 L394 407 L395 410 L393 411 Z M194 408 L196 407 L198 410 L195 411 Z M111 408 L113 407 L114 409 L112 410 Z M339 406 L341 409 L337 413 L335 408 Z M396 406 L399 405 L400 407 L397 408 Z M291 406 L293 405 L294 407 L292 408 Z M272 406 L274 405 L275 407 L273 408 Z M356 405 L358 404 L361 408 L358 409 Z M378 403 L380 407 L373 410 L372 407 L376 403 Z M158 403 L159 405 L158 408 L156 409 L155 406 Z M465 402 L467 403 L468 408 L467 410 L464 409 Z M293 403 L296 402 L297 404 L294 405 Z M280 403 L283 402 L284 404 L281 405 Z M208 402 L210 403 L209 407 L206 406 Z M151 403 L153 402 L154 404 L152 405 Z M128 402 L130 403 L131 407 L129 413 L126 412 Z M118 403 L120 402 L121 404 L119 405 Z M42 403 L44 402 L45 404 L43 405 Z M467 402 L469 401 L470 403 L468 404 Z M403 401 L405 402 L404 406 L405 413 L404 414 L401 413 L401 406 Z M365 402 L367 401 L368 404 L366 405 Z M243 402 L246 401 L247 404 L244 405 Z M134 401 L136 401 L139 404 L137 407 L135 407 L132 404 Z M99 402 L101 401 L102 403 L100 404 Z M436 400 L438 401 L438 405 L440 405 L441 408 L444 409 L441 413 L438 414 L435 413 L437 409 L432 406 L433 404 L435 404 Z M319 401 L321 400 L322 402 L320 403 Z M259 401 L261 400 L262 402 L260 403 Z M233 401 L235 400 L236 402 L234 403 Z M166 401 L168 400 L169 402 L167 403 Z M383 400 L387 399 L388 402 L384 403 Z M253 400 L255 399 L256 402 L254 403 Z M185 399 L189 402 L188 405 L182 404 Z M450 398 L454 399 L452 404 L450 403 L449 400 Z M400 398 L401 400 L398 402 L397 400 Z M348 399 L344 403 L341 402 L342 399 L345 398 Z M210 399 L214 398 L215 402 L211 403 Z M205 399 L200 406 L196 404 L198 399 L203 398 Z M95 398 L97 399 L96 404 L93 403 Z M334 397 L336 400 L336 403 L334 405 L328 405 L327 402 L332 400 L332 398 Z M294 398 L296 397 L297 399 L295 400 Z M113 398 L115 397 L116 399 L114 400 Z M436 397 L439 396 L440 398 L437 399 Z M285 397 L288 396 L289 398 L286 399 Z M127 397 L129 396 L132 399 L128 400 Z M392 396 L394 395 L395 397 L393 398 Z M121 396 L123 395 L124 398 L122 399 Z M101 398 L105 395 L107 396 L106 400 L102 400 Z M450 394 L451 396 L449 397 L448 401 L449 405 L446 407 L443 407 L441 399 L444 396 L446 397 L448 394 Z M193 394 L195 393 L198 396 L195 397 Z M144 393 L147 394 L148 398 L147 399 L142 397 Z M405 392 L406 396 L402 400 L401 394 Z M497 392 L499 391 L500 394 L498 395 Z M247 392 L249 391 L250 393 L248 394 Z M380 391 L382 390 L383 392 L381 393 Z M253 391 L255 390 L256 393 L254 394 Z M455 390 L457 389 L458 392 L456 393 Z M278 390 L281 389 L282 392 L280 393 Z M266 388 L267 391 L265 394 L263 394 L262 392 Z M134 388 L137 389 L135 394 L133 393 Z M129 388 L131 389 L130 393 L128 392 Z M22 388 L25 389 L25 393 L27 394 L24 401 L19 396 L19 390 Z M270 387 L272 388 L274 392 L273 394 L270 393 L269 389 Z M92 386 L94 387 L93 391 L91 390 Z M399 386 L401 385 L402 387 L400 388 Z M138 386 L140 385 L141 388 L139 389 Z M97 385 L101 389 L100 395 L95 392 Z M371 385 L373 384 L375 387 L372 388 Z M431 384 L433 383 L434 385 L432 386 Z M208 383 L210 384 L209 387 L206 386 Z M156 383 L157 385 L156 388 L154 389 L153 386 Z M239 383 L242 382 L243 385 L241 386 Z M112 382 L113 385 L112 388 L110 389 L108 386 Z M438 381 L441 382 L442 387 L441 392 L437 392 L436 389 L432 388 L433 386 L436 386 Z M425 381 L426 383 L423 387 L432 388 L433 392 L427 394 L426 397 L421 397 L424 399 L426 405 L421 407 L423 411 L419 415 L418 407 L413 402 L409 402 L408 397 L409 396 L415 397 L416 396 L414 394 L415 386 L419 384 L420 382 Z M252 382 L255 381 L256 385 L254 386 Z M199 382 L202 381 L203 384 L200 386 Z M71 382 L74 381 L75 384 L72 385 Z M272 381 L273 380 L278 381 L279 383 L273 384 Z M174 380 L176 381 L175 385 L173 384 Z M293 378 L294 381 L290 384 L290 386 L287 389 L282 390 L281 388 L283 384 L288 382 L289 379 Z M265 378 L266 382 L262 384 L261 381 Z M212 380 L217 378 L218 382 L213 383 Z M235 378 L237 377 L238 379 L236 380 Z M163 378 L165 377 L166 380 L164 381 Z M44 378 L46 377 L47 379 L45 380 Z M341 377 L343 376 L345 380 L342 381 Z M222 377 L224 376 L225 379 L223 380 Z M217 377 L219 376 L220 378 L218 379 Z M187 386 L188 384 L191 383 L191 381 L186 378 L187 376 L201 378 L200 380 L195 380 L198 382 L196 385 L190 387 Z M119 377 L121 376 L122 378 L120 379 Z M368 375 L371 380 L370 381 L368 380 L367 381 L368 385 L362 389 L361 387 L363 383 L360 380 L360 377 L363 375 Z M355 376 L357 375 L359 378 L356 380 Z M173 378 L174 375 L177 376 L175 379 Z M19 376 L21 375 L22 378 L20 379 Z M280 378 L280 376 L283 374 L287 375 L284 379 Z M255 375 L257 374 L258 377 L256 378 Z M183 374 L184 376 L181 379 L180 376 Z M134 374 L136 375 L135 379 L132 378 Z M490 374 L492 373 L493 376 L491 377 Z M169 373 L171 374 L171 385 L170 386 L168 385 L168 374 Z M395 373 L397 372 L398 374 L396 375 Z M384 372 L385 376 L382 379 L378 380 L377 378 L380 377 L380 374 L382 372 Z M320 372 L323 375 L321 378 L319 377 Z M201 373 L203 372 L204 374 L202 375 Z M42 373 L45 372 L46 374 L43 375 Z M376 372 L379 371 L380 373 L377 374 Z M245 371 L248 373 L248 377 L246 380 L244 379 Z M214 371 L216 372 L215 378 L213 377 Z M163 372 L165 371 L166 374 L164 375 Z M124 371 L127 372 L127 375 L130 379 L129 381 L125 378 L123 373 Z M92 383 L93 379 L98 378 L97 374 L94 373 L95 371 L98 371 L101 374 L107 373 L109 376 L105 381 L100 380 L97 381 L95 384 Z M207 370 L211 371 L210 377 L208 377 L206 374 Z M145 370 L146 376 L141 380 L140 379 L143 371 Z M55 379 L58 375 L57 372 L58 370 L62 373 L63 376 L66 375 L69 376 L66 379 L60 380 Z M464 376 L462 379 L458 379 L455 383 L451 382 L450 380 L443 383 L442 379 L437 378 L440 375 L443 375 L445 377 L450 377 L456 369 L462 372 L461 374 Z M319 378 L318 380 L313 380 L312 382 L304 384 L300 382 L297 375 L298 374 L302 375 L303 372 L306 372 L309 369 L311 371 L311 377 L315 375 L316 377 Z M188 370 L190 369 L191 372 L189 373 Z M73 369 L75 370 L74 374 L72 373 Z M404 368 L405 370 L401 374 L400 370 Z M358 370 L361 368 L364 369 L363 372 L359 372 Z M277 369 L280 368 L281 371 L278 372 Z M241 368 L242 371 L239 374 L238 372 L239 369 Z M175 369 L177 368 L178 370 L176 371 Z M196 367 L198 368 L197 374 L194 371 Z M182 366 L185 367 L184 372 L181 371 Z M353 374 L352 376 L350 376 L349 381 L346 380 L346 377 L344 376 L343 373 L340 374 L340 378 L338 380 L335 380 L334 382 L327 381 L325 379 L326 374 L328 373 L328 369 L330 367 L336 368 L336 372 L333 374 L333 376 L336 377 L336 372 L341 371 L340 368 L341 365 L345 369 L349 368 L350 372 Z M265 365 L267 369 L264 371 L264 373 L258 374 L257 371 L262 370 L263 366 Z M53 366 L55 365 L56 367 L54 368 Z M22 365 L25 366 L23 370 L21 369 Z M462 367 L467 364 L471 365 L474 372 L480 371 L481 375 L473 377 L470 380 L468 377 L469 370 L467 370 L466 372 L463 372 Z M385 365 L387 364 L389 368 L387 369 Z M368 364 L371 364 L373 367 L372 375 L368 375 L366 372 Z M198 365 L200 364 L204 368 L201 369 L198 367 Z M296 363 L297 366 L293 368 L292 366 Z M254 364 L257 363 L258 365 L255 366 Z M236 363 L237 366 L232 369 L233 374 L236 375 L234 377 L234 380 L236 382 L233 385 L231 385 L226 382 L227 378 L226 375 L223 374 L223 369 L221 367 Z M139 364 L144 363 L145 369 L142 370 L141 368 L138 367 Z M349 363 L351 362 L352 365 L350 366 Z M172 363 L174 362 L176 366 L174 367 Z M160 363 L165 362 L166 366 L164 367 Z M260 362 L262 361 L263 364 L261 365 Z M400 361 L404 360 L405 362 L401 363 Z M106 360 L107 361 L106 368 L102 371 L101 365 L104 364 L104 361 Z M492 360 L495 359 L496 361 L493 362 Z M377 358 L379 359 L380 363 L379 365 L376 364 Z M316 359 L318 358 L319 360 L317 361 Z M286 359 L288 358 L289 360 L287 361 Z M271 359 L273 358 L274 360 L272 361 Z M157 358 L158 359 L157 367 L154 368 L154 370 L156 371 L156 374 L149 375 L148 371 L150 370 L150 368 L147 367 L147 365 L150 364 L149 360 Z M354 358 L356 357 L357 359 L355 360 Z M343 358 L347 357 L348 359 L344 360 Z M297 359 L300 356 L302 357 L300 360 Z M165 357 L167 356 L168 358 L166 359 Z M393 356 L395 355 L396 357 L394 358 Z M171 356 L173 355 L174 357 L172 358 Z M147 355 L149 357 L149 360 L147 362 L144 362 L142 358 Z M490 354 L491 355 L490 358 L486 360 L484 357 Z M389 355 L391 354 L392 356 L390 357 Z M361 354 L368 358 L364 365 L360 364 L361 360 L363 359 L360 357 Z M333 355 L335 354 L336 356 L334 357 Z M244 355 L249 354 L250 356 L246 358 Z M238 355 L241 354 L242 356 L239 357 Z M122 355 L125 354 L126 356 L123 357 Z M70 354 L77 357 L76 367 L74 367 L73 364 L69 362 L71 360 L71 358 L69 357 Z M348 354 L350 353 L351 355 L349 356 Z M234 354 L236 353 L237 355 L235 356 Z M182 353 L185 356 L184 360 L180 359 L180 355 Z M476 353 L475 356 L472 357 L474 359 L473 363 L464 361 L474 352 Z M372 353 L374 352 L375 354 L373 355 Z M261 353 L265 352 L267 355 L263 356 Z M463 352 L466 351 L467 353 L464 354 Z M351 352 L355 351 L356 353 L352 354 Z M218 352 L220 351 L221 353 L219 354 Z M134 352 L136 351 L137 353 L135 354 Z M23 352 L26 351 L27 354 L24 355 Z M331 351 L333 350 L334 352 L332 353 Z M186 351 L188 350 L189 352 L187 353 Z M158 350 L161 351 L159 355 L156 353 Z M475 350 L478 349 L479 351 L476 352 Z M275 350 L279 349 L281 354 L278 355 L275 352 Z M338 348 L342 349 L343 353 L342 356 L338 355 L337 351 Z M120 348 L121 349 L120 352 L116 353 L115 351 Z M471 348 L474 347 L475 349 L472 350 Z M148 347 L149 350 L145 352 L144 350 Z M71 348 L73 347 L74 349 L72 350 Z M366 347 L369 346 L370 349 L367 350 Z M316 347 L319 346 L320 348 L317 349 Z M246 347 L255 346 L256 348 L247 349 Z M407 345 L408 348 L405 351 L404 347 Z M190 346 L192 345 L193 347 L191 348 Z M107 348 L108 345 L111 346 L109 349 Z M325 344 L327 345 L326 350 L324 349 Z M267 345 L269 344 L272 347 L270 348 Z M259 345 L261 344 L262 346 L260 347 Z M211 345 L214 344 L216 347 L213 348 Z M380 344 L382 343 L383 346 L381 347 Z M291 344 L295 343 L296 345 L293 347 Z M278 344 L281 343 L282 345 L279 346 Z M357 343 L360 342 L361 345 L358 346 Z M140 346 L142 342 L145 343 L142 347 Z M99 343 L102 342 L103 345 L100 346 Z M395 341 L396 344 L395 348 L393 349 L392 344 Z M312 344 L315 341 L318 342 L315 345 Z M320 341 L322 340 L323 342 L321 343 Z M395 340 L397 339 L398 341 L396 342 Z M255 340 L257 339 L258 341 L256 342 Z M183 340 L185 339 L186 342 L184 343 Z M170 340 L172 339 L173 341 L171 342 Z M329 339 L335 338 L336 341 L330 342 Z M283 341 L284 338 L287 339 L285 342 Z M389 338 L392 337 L393 339 L390 340 Z M300 338 L303 337 L304 339 L301 340 Z M244 337 L245 339 L243 342 L237 346 L236 343 L241 338 Z M315 337 L318 336 L319 338 L316 339 Z M271 337 L273 336 L276 340 L275 341 L272 340 Z M199 337 L204 336 L206 339 L202 340 Z M154 337 L157 336 L158 338 L155 339 Z M123 339 L124 336 L127 337 L125 340 Z M100 337 L102 336 L103 338 L101 339 Z M20 337 L22 336 L23 338 L21 339 Z M367 336 L369 335 L370 337 L368 338 Z M336 336 L338 335 L340 338 L337 339 Z M325 336 L327 335 L328 337 L326 338 Z M279 336 L281 335 L282 337 L280 338 Z M262 336 L265 335 L266 337 L263 338 Z M250 336 L253 335 L255 338 L252 339 Z M184 337 L189 335 L193 339 L192 340 L185 339 Z M136 337 L139 335 L143 339 L137 340 Z M376 334 L378 335 L379 343 L377 346 L375 346 L371 340 Z M396 336 L397 333 L400 334 L398 337 Z M483 333 L485 332 L487 335 L484 336 Z M238 332 L239 335 L231 343 L228 343 L227 342 L228 338 L233 337 Z M219 333 L220 332 L225 333 L226 336 L221 337 Z M207 333 L211 332 L213 337 L211 338 Z M174 333 L176 332 L178 335 L175 336 Z M407 331 L408 335 L406 339 L404 340 L403 339 L404 336 L402 334 L405 331 Z M294 331 L296 331 L299 334 L298 341 L296 340 L296 335 L293 333 Z M142 332 L145 331 L146 334 L144 335 Z M108 331 L111 332 L110 338 L108 337 L107 334 Z M93 332 L95 331 L97 334 L94 335 Z M330 331 L332 330 L333 332 L331 333 Z M320 332 L323 330 L325 333 L321 334 Z M248 330 L250 331 L249 335 L246 334 Z M228 331 L232 330 L233 332 L229 333 Z M194 331 L196 330 L197 333 L195 334 Z M310 330 L313 329 L314 331 L311 332 Z M277 329 L280 332 L279 336 L275 332 Z M257 329 L260 330 L259 335 L257 335 L255 332 Z M169 330 L172 329 L173 331 L170 332 Z M337 329 L339 328 L340 330 L338 331 Z M308 328 L310 327 L311 329 L309 330 Z M241 328 L243 327 L244 329 L242 330 Z M213 328 L216 327 L217 330 L214 332 Z M334 327 L336 326 L337 328 L335 329 Z M380 325 L386 328 L384 334 L382 334 L381 330 L378 329 Z M395 325 L397 324 L398 327 L396 328 Z M235 325 L237 324 L238 327 L236 328 Z M221 325 L223 324 L224 326 L222 327 Z M197 328 L200 324 L204 326 L202 329 Z M135 324 L137 331 L131 335 L128 334 L127 332 L132 328 L132 325 Z M323 324 L325 323 L328 327 L327 328 L324 327 Z M280 324 L282 323 L283 326 L286 326 L290 330 L287 331 L282 329 L280 327 Z M183 323 L184 325 L182 327 L182 330 L178 331 L177 330 L181 323 Z M174 322 L177 324 L175 327 L172 325 Z M68 323 L70 322 L71 325 L69 326 Z M462 322 L464 321 L465 323 L463 324 Z M387 322 L391 321 L392 324 L388 325 Z M376 321 L378 322 L377 325 L374 324 Z M137 322 L139 321 L140 323 L138 324 Z M19 322 L21 321 L22 323 L20 324 Z M164 321 L168 320 L170 323 L168 324 L165 323 Z M297 319 L298 323 L294 325 L292 322 L295 319 Z M254 319 L255 321 L251 325 L249 322 L252 319 Z M216 319 L217 322 L214 324 L214 326 L209 327 L208 326 L209 322 Z M485 318 L488 319 L486 323 L484 322 Z M275 323 L278 318 L283 319 L277 324 Z M192 319 L194 318 L195 320 L193 321 Z M29 319 L31 318 L32 320 L30 321 Z M403 317 L405 318 L406 321 L405 324 L400 322 Z M317 318 L322 317 L323 319 L318 320 Z M116 318 L119 317 L120 319 L117 320 Z M112 317 L114 321 L110 324 L109 323 L110 318 Z M17 318 L19 317 L20 320 L18 321 Z M374 317 L377 316 L378 318 L375 319 Z M200 317 L204 316 L205 318 L201 319 Z M172 317 L176 316 L180 320 L174 321 Z M382 316 L383 315 L389 316 L390 318 L387 321 L385 321 Z M324 316 L328 315 L329 317 L325 318 Z M120 316 L122 315 L123 317 L121 318 Z M98 315 L99 317 L93 322 L92 318 Z M290 315 L292 314 L293 316 L291 317 Z M144 315 L146 314 L148 318 L146 319 Z M356 314 L358 313 L359 315 L357 316 Z M306 314 L309 313 L310 315 L307 316 Z M297 314 L299 313 L300 316 L298 317 Z M225 314 L228 313 L231 316 L231 319 L229 320 L228 318 L225 318 L224 317 Z M128 313 L130 317 L127 318 L126 321 L123 320 L122 318 L125 317 L126 314 Z M22 313 L26 316 L25 321 L20 318 Z M333 313 L335 312 L336 314 L334 315 Z M312 313 L314 312 L315 314 L313 315 Z M90 312 L92 315 L92 318 L90 319 L89 322 L85 322 L83 318 Z M449 314 L454 311 L455 313 L458 313 L459 316 L457 318 L454 318 L450 316 Z M211 313 L215 311 L221 311 L222 315 L221 318 L219 319 L218 316 L212 316 Z M380 311 L383 310 L384 312 L381 313 Z M375 311 L377 310 L378 312 L376 313 Z M132 311 L134 310 L135 312 L133 313 Z M99 311 L104 310 L107 314 L107 317 L105 318 L103 314 L99 313 Z M368 310 L370 309 L371 311 L369 312 Z M137 310 L140 309 L141 312 L139 313 Z M27 309 L33 312 L31 317 L29 317 L26 313 Z M318 309 L320 308 L321 310 L319 311 Z M225 309 L227 308 L228 310 L226 311 Z M44 308 L46 309 L46 312 L49 316 L46 319 L44 317 L39 316 L40 314 L42 314 Z M283 308 L285 307 L286 309 L284 310 Z M174 307 L176 308 L177 311 L175 315 L172 312 Z M465 319 L466 312 L470 311 L473 306 L475 306 L479 310 L480 315 L485 316 L484 318 L477 320 L472 319 L471 317 L469 317 L467 320 Z M198 307 L201 306 L203 309 L207 310 L208 312 L203 313 L198 309 Z M384 305 L386 304 L387 306 L385 307 Z M311 308 L313 304 L316 304 L318 306 L317 308 L313 309 Z M128 305 L130 304 L131 306 L129 307 Z M468 304 L471 303 L473 306 L469 307 Z M325 303 L328 304 L327 309 L325 308 L324 305 Z M289 304 L293 303 L294 306 L298 309 L298 312 L296 313 L292 309 L290 309 Z M120 306 L122 303 L125 304 L124 308 L121 308 Z M282 303 L285 302 L286 304 L283 305 Z M222 303 L220 307 L215 309 L212 308 L213 305 L220 302 Z M43 301 L45 300 L46 303 L44 304 Z M465 300 L469 299 L470 302 L466 303 Z M380 299 L383 300 L381 305 L379 304 Z M317 300 L320 299 L321 301 L318 302 Z M277 299 L280 298 L283 302 L282 303 L278 302 Z M183 298 L185 299 L184 308 L180 304 Z M385 298 L387 297 L388 299 L386 300 Z M301 298 L303 297 L304 299 L302 300 Z M257 300 L257 302 L259 303 L259 311 L258 314 L255 315 L254 318 L250 317 L254 311 L253 310 L254 307 L251 306 L251 313 L247 314 L248 316 L247 320 L243 319 L238 322 L235 321 L234 324 L230 323 L230 320 L235 317 L238 308 L242 309 L244 307 L244 305 L242 304 L243 302 L248 304 L252 297 Z M234 298 L237 297 L238 299 L235 300 Z M164 297 L166 298 L165 301 L171 302 L170 311 L168 316 L161 314 L160 303 L162 302 L162 299 Z M134 297 L136 298 L135 304 L133 303 Z M452 297 L456 296 L457 298 L454 300 Z M393 295 L396 295 L397 296 L396 300 L402 304 L407 303 L408 301 L410 302 L409 308 L404 312 L401 312 L402 315 L399 318 L396 317 L397 314 L389 311 L390 309 L396 308 L391 305 L392 302 L391 299 Z M318 298 L317 300 L313 299 L311 302 L309 301 L312 295 Z M214 297 L218 295 L221 296 L220 299 L215 299 Z M95 295 L99 296 L100 301 L98 302 L97 299 L94 298 Z M462 295 L468 294 L469 296 L465 298 Z M114 294 L118 296 L117 301 L113 299 Z M386 294 L388 293 L389 295 L387 296 Z M198 293 L199 294 L198 299 L195 300 L194 297 Z M126 294 L128 293 L129 295 L127 296 Z M55 294 L57 293 L58 295 L56 296 Z M282 293 L286 292 L288 296 L286 297 Z M241 293 L243 292 L245 295 L242 297 Z M293 292 L296 291 L299 292 L298 294 L296 294 L296 296 L299 298 L298 302 L296 302 L291 297 L291 294 Z M250 292 L252 291 L253 293 L251 294 Z M368 291 L370 290 L371 293 L369 294 Z M202 291 L205 290 L212 291 L212 296 L209 304 L204 303 L202 299 L200 298 Z M133 291 L134 290 L137 291 L139 295 L137 296 Z M106 291 L108 290 L109 293 L107 294 Z M122 289 L124 290 L123 295 L120 294 Z M465 291 L466 288 L469 289 L467 292 Z M215 289 L217 288 L218 290 L216 291 Z M104 288 L106 287 L107 289 L105 290 Z M394 285 L396 286 L395 290 L392 289 Z M372 285 L373 287 L370 290 L369 288 Z M295 286 L297 285 L298 287 L296 288 Z M272 285 L273 287 L276 288 L276 290 L270 292 L270 295 L267 296 L266 289 L270 288 L270 286 Z M111 290 L113 289 L114 285 L119 289 L118 292 L116 290 L112 292 Z M92 286 L94 285 L95 287 L93 288 Z M161 284 L163 283 L164 285 L162 286 Z M255 282 L260 284 L259 286 L260 289 L257 292 L255 291 L256 289 L254 284 Z M206 282 L210 283 L208 288 L206 287 L205 284 Z M376 281 L380 282 L379 288 L377 287 L377 284 L375 283 Z M289 282 L281 290 L278 289 L279 284 L285 283 L286 281 Z M176 281 L180 284 L180 288 L174 290 L177 297 L175 299 L170 298 L167 299 L166 295 L162 294 L164 287 L172 284 L173 281 Z M73 282 L75 281 L76 283 L74 284 Z M461 280 L463 279 L464 281 L462 282 Z M313 280 L315 279 L316 281 L314 282 Z M211 279 L214 280 L213 285 L210 283 Z M26 278 L28 279 L27 284 L25 283 Z M385 278 L387 277 L388 280 L386 281 Z M67 278 L69 277 L70 279 L68 280 Z M376 276 L379 275 L380 277 L377 278 Z M274 275 L277 276 L276 281 L273 280 Z M144 276 L147 275 L148 277 L145 278 Z M136 276 L139 275 L142 278 L139 279 Z M124 275 L126 284 L123 285 L123 287 L121 288 L117 285 L116 281 L113 278 L116 276 Z M366 275 L368 274 L370 277 L367 278 Z M73 275 L75 274 L78 277 L76 278 Z M428 276 L429 273 L432 274 L430 277 Z M470 275 L471 272 L475 273 L472 276 Z M71 273 L73 272 L74 274 L72 275 Z M383 272 L385 271 L386 273 L384 274 Z M80 272 L83 271 L84 274 L81 276 Z M378 271 L380 270 L381 272 L379 273 Z M90 272 L92 270 L95 271 L94 274 L91 274 Z M260 269 L262 270 L261 274 L258 273 Z M134 270 L136 269 L137 272 L135 273 Z M65 270 L69 269 L70 272 L67 273 Z M382 269 L384 268 L385 270 L383 271 Z M255 269 L257 268 L258 270 L256 271 Z M358 268 L360 267 L361 270 L359 271 Z M87 268 L89 267 L90 270 L88 271 Z M130 267 L133 266 L134 269 L131 270 Z M449 270 L453 268 L454 265 L459 265 L461 267 L462 273 L465 274 L467 277 L460 278 L460 280 L458 281 L455 278 L455 276 L453 276 L449 272 Z M437 265 L438 268 L447 269 L445 276 L441 274 L438 276 L440 279 L438 286 L441 282 L444 284 L443 294 L447 298 L442 302 L444 304 L442 308 L447 311 L448 315 L438 331 L442 332 L442 339 L447 334 L460 338 L459 341 L453 339 L449 343 L458 351 L456 362 L459 360 L462 362 L457 368 L449 371 L442 369 L438 374 L437 370 L432 368 L430 377 L424 377 L420 382 L416 380 L416 385 L409 388 L411 381 L405 382 L404 380 L413 371 L408 372 L408 365 L416 364 L408 358 L418 359 L418 356 L410 352 L414 340 L410 337 L410 326 L415 325 L408 318 L408 314 L411 311 L415 316 L422 317 L416 315 L416 308 L420 307 L423 310 L424 308 L415 302 L419 297 L421 300 L427 297 L427 301 L430 301 L431 297 L436 296 L435 294 L426 296 L424 292 L431 290 L432 287 L436 288 L430 283 L436 281 L432 274 L433 267 Z M364 264 L367 266 L366 270 L363 269 Z M270 265 L272 264 L278 270 L276 271 L271 269 Z M71 265 L74 264 L76 269 L74 270 Z M467 265 L474 263 L477 265 L477 268 L470 269 L467 267 Z M204 263 L205 267 L207 269 L211 269 L212 272 L209 274 L210 277 L204 282 L197 281 L197 283 L199 283 L201 287 L201 290 L197 291 L196 285 L193 286 L192 285 L193 282 L190 280 L190 277 L193 275 L191 272 L199 267 L202 272 L206 273 L206 271 L204 271 L202 267 L200 266 L201 263 Z M191 264 L193 263 L194 266 L192 267 Z M42 264 L45 263 L46 266 L43 267 Z M289 263 L291 262 L292 264 L290 265 Z M261 263 L263 262 L264 264 L262 265 Z M173 264 L176 266 L178 273 L182 271 L180 266 L183 262 L188 264 L188 266 L185 267 L185 270 L188 271 L188 274 L181 277 L181 278 L184 277 L187 278 L187 286 L185 289 L182 288 L181 282 L179 279 L174 278 L172 276 L172 272 L174 270 L172 268 Z M150 262 L153 265 L153 269 L151 273 L148 270 Z M260 261 L261 263 L258 266 L257 264 Z M141 261 L142 264 L138 266 L137 263 Z M386 261 L389 260 L390 262 L392 262 L393 266 L389 268 Z M373 262 L375 260 L378 261 L377 264 L374 264 Z M238 260 L239 262 L235 264 L234 262 Z M153 261 L155 260 L156 262 L154 263 Z M367 260 L369 259 L370 261 L368 262 Z M194 260 L196 259 L197 261 L195 262 Z M434 259 L436 258 L437 260 L435 261 Z M284 258 L286 257 L287 259 L285 260 Z M206 258 L208 257 L209 259 L207 260 Z M172 258 L175 257 L177 259 L177 262 L175 263 Z M353 257 L355 256 L356 258 L354 259 Z M331 257 L334 256 L335 260 L333 261 Z M290 257 L292 256 L294 260 L292 261 Z M161 256 L163 257 L162 262 L159 261 Z M143 257 L148 256 L149 259 L145 261 Z M370 256 L372 255 L373 257 L371 258 Z M93 256 L97 255 L98 258 L94 260 Z M377 254 L380 253 L381 256 L379 257 Z M362 253 L365 254 L364 258 L360 257 Z M450 253 L452 252 L453 254 L451 255 Z M338 252 L342 255 L340 258 L343 258 L349 266 L350 270 L348 272 L354 278 L351 280 L351 282 L355 283 L353 290 L356 291 L355 297 L346 297 L356 300 L355 312 L351 313 L351 315 L354 317 L349 320 L351 324 L345 334 L341 333 L342 325 L340 325 L337 321 L339 319 L336 317 L338 315 L336 308 L337 306 L332 306 L330 303 L328 280 L332 277 L335 277 L336 273 L334 272 L330 275 L327 273 L328 263 L332 261 L332 266 L339 264 L339 260 L336 259 Z M294 253 L296 252 L297 254 L295 255 Z M282 251 L283 255 L281 258 L279 258 L277 255 Z M194 252 L197 251 L198 252 L197 255 L199 255 L200 257 L199 258 L193 256 Z M68 252 L70 251 L71 254 L69 255 Z M302 250 L303 255 L302 260 L299 262 L300 267 L298 274 L294 275 L296 277 L294 280 L290 280 L289 278 L292 273 L290 269 L292 268 L293 263 L296 264 L296 257 L299 256 L298 251 Z M116 251 L119 250 L120 252 L117 253 Z M429 252 L431 249 L434 249 L437 253 L430 254 Z M407 255 L410 249 L417 250 L417 254 L415 256 L410 257 Z M177 252 L179 250 L183 252 L184 249 L188 251 L187 253 L185 253 L186 256 L185 258 L179 256 Z M166 249 L168 248 L169 251 L167 252 Z M373 250 L374 247 L377 248 L375 251 Z M125 247 L129 249 L129 252 L126 255 L127 259 L129 259 L130 261 L128 264 L128 267 L127 268 L123 267 L123 271 L120 273 L116 271 L117 269 L120 268 L120 264 L118 262 L121 259 L118 256 L121 253 L123 253 L122 248 Z M22 247 L26 251 L26 258 L23 261 L28 261 L29 262 L28 264 L20 263 L19 257 L23 254 L21 251 Z M275 250 L277 246 L280 247 L278 251 Z M451 247 L456 247 L459 245 L460 249 L465 250 L465 253 L463 254 L465 257 L462 261 L456 258 L457 255 L460 254 L460 252 L458 251 L452 252 L450 250 Z M143 245 L144 248 L142 251 L140 251 L139 247 Z M90 246 L92 245 L93 248 L91 249 Z M430 244 L433 243 L434 245 L431 246 Z M410 244 L413 243 L414 245 L411 246 Z M330 243 L334 248 L330 252 L329 255 L326 255 L323 249 Z M316 243 L318 245 L317 249 L319 250 L319 253 L322 254 L324 270 L321 271 L321 273 L324 274 L325 277 L316 278 L315 276 L319 274 L313 274 L312 285 L308 286 L308 288 L310 289 L310 293 L304 294 L303 286 L301 286 L299 282 L300 281 L307 282 L307 278 L306 276 L300 277 L299 275 L302 270 L305 270 L305 267 L303 266 L304 264 L310 265 L310 261 L307 258 L306 259 L304 258 L306 254 L308 256 L312 255 L313 258 L316 258 L315 252 L313 255 L310 253 L312 245 Z M185 244 L186 243 L189 244 L192 248 L189 249 Z M52 244 L55 243 L56 246 L53 247 Z M418 243 L421 242 L425 243 L426 245 L419 247 Z M377 243 L379 242 L380 244 L378 245 Z M130 243 L132 242 L133 244 L131 245 Z M173 241 L174 245 L171 247 L170 245 L171 242 Z M367 241 L369 240 L370 242 L368 243 Z M358 241 L361 240 L363 244 L361 245 Z M348 241 L350 240 L352 244 L350 245 Z M260 240 L263 241 L264 245 L263 248 L260 247 L259 242 Z M442 238 L448 240 L447 242 L448 248 L444 251 L438 250 L437 248 L434 247 L435 245 L439 243 L439 240 Z M307 237 L311 239 L311 241 L308 244 L306 243 Z M210 237 L211 238 L210 242 L206 246 L205 245 L206 239 Z M175 238 L177 237 L178 239 L176 240 Z M145 238 L147 237 L148 240 L146 241 Z M437 237 L439 236 L440 238 L438 239 Z M316 238 L320 236 L324 240 L320 242 Z M223 240 L224 236 L228 237 L225 241 Z M458 236 L455 240 L452 241 L448 238 L449 236 L454 235 Z M357 236 L359 235 L360 237 L358 238 Z M349 236 L353 235 L356 239 L355 240 L350 239 Z M299 235 L303 236 L302 241 L306 244 L304 251 L302 250 L301 245 L299 245 L299 248 L297 251 L293 249 L299 240 L298 237 Z M278 241 L281 235 L289 239 L288 241 L284 240 L281 242 Z M159 239 L163 235 L167 237 L166 239 L163 240 Z M245 235 L247 234 L248 236 L246 237 Z M220 234 L221 238 L219 242 L221 242 L222 245 L216 248 L211 248 L210 246 L212 245 L212 242 L215 238 L217 238 L217 235 Z M107 237 L108 234 L111 235 L109 238 Z M375 233 L377 234 L376 237 L373 236 Z M265 234 L269 233 L272 237 L268 238 Z M170 234 L172 233 L174 236 L172 237 Z M422 233 L424 232 L426 235 L430 234 L431 240 L429 241 L427 238 L424 238 Z M359 233 L361 232 L362 235 L360 236 Z M203 232 L204 233 L203 237 L200 238 L197 236 L199 233 Z M327 232 L329 231 L330 233 L328 234 Z M313 231 L314 232 L313 235 L310 236 L309 234 Z M285 235 L287 231 L290 231 L292 233 L290 236 Z M112 232 L114 231 L115 234 L113 235 Z M49 232 L56 231 L57 236 L54 239 L51 239 L49 237 Z M17 232 L22 231 L24 235 L20 236 L17 234 Z M412 230 L414 231 L413 236 L411 235 Z M427 230 L435 229 L437 233 L431 235 L430 232 L428 232 Z M378 230 L381 229 L382 233 L380 234 Z M304 229 L306 230 L305 234 L302 232 Z M28 230 L31 229 L32 231 L29 232 Z M336 229 L338 228 L339 230 L337 231 Z M252 229 L254 228 L255 230 L253 231 Z M437 228 L441 227 L442 229 L438 230 Z M406 228 L409 227 L410 229 L407 230 Z M296 227 L298 228 L297 231 L294 230 Z M243 227 L246 229 L246 232 L243 233 L239 241 L245 241 L246 243 L248 243 L249 240 L256 241 L257 244 L254 245 L254 249 L258 255 L258 258 L255 263 L252 262 L253 270 L250 276 L247 276 L246 272 L241 270 L241 273 L247 276 L246 279 L248 281 L244 285 L241 284 L239 281 L238 285 L234 286 L233 290 L228 290 L227 287 L234 282 L233 278 L231 278 L230 281 L227 279 L221 285 L218 278 L220 274 L227 272 L223 270 L224 268 L226 268 L226 266 L224 266 L223 263 L218 260 L217 261 L221 264 L221 268 L215 271 L213 269 L215 267 L215 264 L212 263 L211 258 L217 258 L215 256 L215 252 L219 248 L224 250 L223 254 L220 256 L226 256 L226 254 L230 251 L231 254 L228 257 L228 263 L235 265 L233 269 L235 267 L238 267 L239 263 L242 262 L242 259 L240 259 L237 255 L237 243 L233 244 L230 240 L230 236 L236 234 L236 229 Z M417 226 L421 227 L421 231 L419 234 L417 234 L414 231 L414 229 Z M389 227 L394 226 L396 230 L394 234 L401 239 L403 246 L399 249 L399 251 L404 252 L406 255 L404 268 L406 268 L409 264 L414 264 L414 259 L418 257 L419 250 L424 253 L421 257 L424 257 L425 253 L431 255 L429 259 L425 261 L428 268 L431 269 L430 271 L427 271 L428 275 L426 276 L429 278 L426 284 L428 287 L421 291 L419 289 L415 290 L415 292 L418 293 L415 299 L397 298 L398 294 L396 293 L396 290 L398 288 L398 284 L403 284 L395 273 L396 271 L399 271 L399 269 L395 267 L398 263 L397 261 L387 258 L389 252 L386 252 L385 254 L383 253 L386 245 L389 244 L392 246 L392 244 L388 242 L387 239 L384 239 L382 242 L378 239 L380 235 L385 234 L385 231 L388 230 Z M270 227 L271 226 L273 228 L276 227 L277 228 L276 232 L273 233 Z M206 227 L209 226 L210 228 L207 229 Z M152 226 L153 228 L150 231 L149 229 Z M73 226 L75 225 L76 227 L74 228 Z M369 225 L371 224 L372 226 L370 227 Z M305 226 L308 224 L310 227 L306 228 Z M155 225 L157 224 L158 227 L156 228 Z M385 224 L388 223 L389 226 L386 227 Z M256 224 L259 223 L260 225 L257 226 Z M40 224 L42 223 L43 225 L41 226 Z M219 222 L223 226 L224 229 L218 232 L214 232 L213 230 L215 228 L213 225 Z M162 222 L164 223 L163 227 L161 226 Z M395 221 L402 224 L402 234 L399 235 L396 230 L398 226 L393 225 Z M336 221 L337 223 L334 226 L333 223 Z M224 222 L230 221 L233 224 L238 222 L239 224 L235 227 L229 228 L227 224 L225 224 Z M132 222 L135 221 L136 223 L133 224 Z M125 222 L127 221 L128 223 L126 224 Z M357 221 L361 220 L362 222 L358 223 Z M288 223 L289 220 L295 221 L294 223 L290 224 Z M252 222 L251 224 L248 224 L247 226 L245 225 L245 222 L247 220 Z M120 221 L122 220 L123 223 L121 224 Z M103 220 L108 221 L109 225 L106 229 L103 228 L104 224 L102 223 Z M20 221 L23 220 L24 222 L21 223 Z M353 219 L355 220 L354 226 L352 225 L351 222 Z M336 220 L339 219 L342 222 L342 224 L339 225 Z M98 219 L101 225 L94 232 L93 231 L93 227 L95 226 L94 220 Z M315 219 L317 218 L318 221 L316 222 Z M276 218 L278 219 L279 222 L278 224 L275 221 Z M273 219 L272 223 L269 222 L268 224 L265 225 L263 224 L265 221 L270 218 Z M210 219 L212 218 L214 221 L211 222 Z M285 218 L287 217 L288 219 L286 220 Z M233 218 L235 217 L236 219 L234 220 Z M327 220 L329 216 L332 217 L329 221 Z M193 217 L195 216 L197 219 L194 221 Z M344 219 L347 215 L351 216 L351 218 L347 221 Z M335 216 L337 215 L338 217 L336 218 Z M321 215 L323 216 L322 221 L320 220 Z M251 216 L253 215 L255 218 L253 219 Z M158 216 L160 215 L161 217 L159 218 Z M394 215 L396 214 L397 217 L395 218 Z M355 215 L357 214 L358 216 L356 217 Z M339 215 L342 214 L343 216 L340 217 Z M279 215 L281 214 L282 217 L280 218 Z M179 215 L181 214 L182 216 L180 217 Z M164 216 L168 214 L171 216 L172 220 L170 221 L166 219 Z M63 214 L67 216 L66 223 L61 222 L63 219 L60 216 Z M42 215 L44 214 L45 216 L43 217 Z M458 214 L454 218 L449 217 L453 213 Z M315 213 L317 214 L316 218 L314 217 Z M299 213 L304 218 L302 225 L300 225 L298 220 L294 217 L295 215 L298 215 Z M256 214 L260 213 L261 215 L264 216 L264 218 L262 219 L258 217 Z M171 214 L173 213 L174 215 L172 216 Z M342 213 L344 212 L345 214 L343 215 Z M201 212 L202 219 L199 222 L198 221 L199 213 Z M388 215 L390 211 L394 213 L391 216 Z M337 210 L338 213 L335 215 L334 213 Z M158 209 L160 210 L159 214 L157 213 Z M129 210 L131 209 L132 212 L130 213 Z M429 208 L440 210 L443 212 L442 216 L438 216 L436 218 L435 224 L428 223 L429 217 L428 214 L430 212 L428 210 Z M266 209 L269 208 L271 212 L268 213 Z M254 209 L253 212 L248 213 L246 215 L243 213 L244 211 L247 211 L250 208 Z M163 209 L167 208 L168 210 L164 211 Z M398 214 L399 213 L402 214 L403 209 L407 207 L412 211 L413 215 L419 216 L421 219 L420 222 L416 224 L410 222 L406 223 L405 219 L401 218 Z M355 208 L358 207 L359 211 L356 212 Z M400 206 L402 205 L403 208 L401 209 Z M385 204 L388 205 L387 210 L384 209 Z M184 205 L186 204 L188 207 L186 208 Z M331 203 L332 205 L329 208 L328 206 Z M279 204 L281 203 L282 205 L280 206 Z M274 203 L277 204 L275 209 L273 208 Z M244 204 L248 203 L249 206 L245 207 Z M190 204 L192 203 L193 206 L191 207 Z M195 203 L198 202 L199 204 L196 205 Z M176 202 L178 203 L177 207 L175 206 Z M318 203 L323 200 L326 202 L326 206 L324 207 L323 203 L320 205 Z M475 200 L478 199 L479 202 L477 203 Z M345 200 L349 199 L352 200 L353 202 L349 204 Z M180 199 L182 198 L183 201 L181 202 Z M417 198 L419 197 L420 199 L418 200 Z M287 198 L289 197 L290 199 L288 200 Z M116 197 L124 199 L123 201 L120 201 L119 204 L116 206 L117 208 L122 209 L120 211 L122 214 L121 216 L116 213 L116 210 L113 209 L113 204 L116 203 L115 199 Z M318 197 L320 196 L321 198 L319 199 Z M251 195 L252 197 L249 200 L248 197 Z M340 195 L342 194 L345 197 L342 199 Z M170 196 L174 194 L176 197 L173 199 Z M85 195 L88 194 L89 196 L86 197 Z M22 194 L24 195 L23 202 L25 203 L24 206 L20 205 L20 198 L18 197 L19 195 Z M278 193 L279 196 L277 199 L275 199 L274 197 Z M252 194 L254 193 L255 195 L253 196 Z M315 193 L317 192 L318 194 L316 195 Z M271 192 L272 194 L269 200 L266 199 L265 197 Z M413 191 L415 190 L416 192 L414 193 Z M208 191 L210 190 L211 192 L209 193 Z M177 190 L179 189 L180 192 L178 193 Z M59 189 L61 190 L60 195 L58 194 Z M284 189 L286 188 L287 190 L285 191 Z M261 189 L265 188 L266 191 L262 193 Z M249 189 L251 188 L252 190 L250 191 Z M229 189 L231 188 L232 191 L230 192 Z M333 188 L335 187 L336 189 L339 190 L339 192 L336 194 Z M240 187 L243 188 L243 190 L240 193 L242 195 L241 199 L235 193 L236 191 L239 190 Z M166 192 L171 187 L175 188 L174 192 L171 193 Z M341 187 L344 186 L349 191 L346 192 L342 190 Z M460 185 L465 187 L462 193 L457 191 Z M456 185 L457 186 L456 190 L453 192 L450 187 Z M279 185 L280 187 L276 189 L275 187 Z M156 185 L158 184 L159 187 L157 188 Z M117 184 L119 185 L118 189 L115 188 Z M65 185 L67 184 L70 187 L66 189 Z M257 183 L259 184 L259 194 L258 195 L256 194 L256 184 Z M114 183 L115 185 L112 188 L112 191 L109 193 L106 193 L105 189 L108 188 L111 183 Z M99 184 L101 183 L102 186 L100 187 Z M71 184 L74 183 L75 185 L72 186 Z M124 183 L129 182 L130 185 L128 186 L125 185 Z M277 180 L279 179 L280 182 L278 183 Z M56 179 L58 180 L57 184 L55 183 Z M329 179 L331 178 L332 180 L330 181 Z M248 179 L251 178 L253 181 L249 183 Z M78 178 L84 179 L84 185 L82 188 L78 186 L77 183 Z M47 178 L49 179 L48 186 L51 185 L52 188 L54 189 L52 193 L44 193 L43 190 L39 189 L40 187 L45 186 Z M265 177 L267 178 L267 181 L263 182 L262 180 Z M240 177 L243 178 L242 182 L238 181 Z M272 177 L274 176 L276 180 L274 181 Z M71 177 L73 176 L74 178 L72 179 Z M437 175 L440 175 L442 177 L441 183 L443 185 L442 189 L432 186 L432 183 L434 182 L433 179 Z M59 176 L61 175 L63 179 L61 180 Z M86 174 L88 174 L89 177 L92 179 L91 186 L93 185 L92 178 L93 177 L95 178 L97 181 L96 183 L99 186 L98 190 L95 189 L94 191 L91 191 L88 188 L88 185 L86 184 L85 176 Z M422 173 L424 176 L428 176 L430 180 L426 181 L423 184 L423 189 L419 192 L418 191 L419 180 L417 175 Z M253 174 L255 173 L256 175 L254 176 Z M177 174 L179 173 L180 175 L178 176 Z M405 173 L408 172 L409 175 L406 176 Z M324 173 L326 172 L327 174 L325 175 Z M189 173 L191 172 L192 174 L190 175 Z M275 172 L278 171 L279 175 L277 176 Z M260 172 L263 171 L264 175 L261 176 Z M238 171 L239 175 L236 177 L235 173 Z M483 171 L485 170 L486 172 L484 173 Z M438 171 L440 170 L441 172 L439 173 Z M341 175 L347 174 L347 172 L350 170 L351 175 L349 177 L351 178 L352 181 L358 182 L358 175 L364 174 L368 183 L361 184 L360 188 L358 187 L355 188 L354 186 L350 186 L349 183 L346 182 L347 179 L345 177 L342 177 Z M337 170 L339 171 L338 177 L334 175 Z M268 171 L271 170 L272 173 L269 174 Z M243 171 L245 170 L247 173 L244 174 Z M427 169 L430 170 L429 175 L426 174 Z M358 170 L360 169 L361 171 L359 172 Z M177 170 L179 169 L180 171 L178 172 Z M133 169 L137 172 L135 176 L133 175 L132 172 Z M328 169 L330 168 L331 170 L329 171 Z M17 169 L20 168 L23 171 L20 172 Z M350 170 L351 168 L354 167 L357 168 L356 170 L353 171 Z M471 167 L474 166 L475 168 L472 169 Z M122 166 L124 167 L123 171 L121 170 Z M463 166 L466 165 L467 169 L465 170 Z M266 165 L269 168 L268 171 L265 168 Z M23 165 L28 164 L29 168 L26 169 Z M454 164 L458 163 L459 166 L455 167 Z M253 164 L255 163 L257 166 L254 167 Z M54 164 L55 161 L58 162 L56 165 Z M437 160 L438 162 L436 168 L434 170 L431 170 L430 166 Z M328 162 L331 160 L335 161 L336 163 L333 166 L329 165 Z M180 162 L186 160 L189 164 L181 165 Z M458 160 L460 159 L462 163 L460 164 Z M400 160 L402 159 L403 162 L401 163 Z M305 158 L307 165 L312 166 L313 175 L312 181 L311 182 L308 181 L307 185 L309 185 L310 187 L304 190 L307 194 L306 198 L302 200 L304 202 L304 210 L296 214 L292 212 L294 208 L291 209 L288 208 L288 206 L290 205 L290 201 L292 200 L288 194 L296 190 L295 187 L291 186 L295 173 L294 169 L296 168 L296 165 L299 164 L297 159 L299 158 L301 161 L303 161 L303 159 Z M306 158 L308 157 L309 159 L307 160 Z M116 156 L119 159 L124 160 L124 163 L122 166 L117 163 L115 158 Z M86 157 L89 156 L91 159 L88 160 Z M23 160 L24 156 L30 157 L26 161 Z M473 156 L476 155 L477 157 L481 156 L483 161 L480 163 L474 159 Z M321 156 L323 155 L324 157 L322 158 Z M227 155 L228 157 L226 161 L226 166 L218 168 L221 170 L222 173 L224 171 L226 172 L226 175 L222 176 L220 180 L223 182 L222 188 L220 190 L226 191 L229 197 L230 203 L228 204 L228 207 L231 208 L231 218 L229 219 L227 217 L224 222 L222 221 L219 222 L218 220 L215 219 L214 216 L215 215 L219 216 L217 213 L218 212 L224 213 L224 210 L222 209 L222 207 L220 207 L219 210 L217 208 L214 210 L212 209 L211 198 L213 197 L212 195 L213 191 L211 191 L210 188 L206 187 L204 178 L206 177 L207 168 L205 168 L204 166 L209 165 L214 168 L215 167 L213 165 L214 162 L213 160 L219 157 L223 158 L225 155 Z M37 155 L40 155 L42 157 L42 168 L41 169 L38 169 L37 166 L35 166 L34 168 L31 166 L32 164 L37 162 L38 158 L36 159 L34 158 Z M448 155 L448 157 L443 160 L438 158 L439 156 L442 156 L445 154 Z M288 154 L292 155 L293 159 L292 162 L289 160 L287 156 Z M210 155 L212 154 L213 156 L211 157 Z M477 154 L480 153 L481 155 L478 156 Z M329 154 L331 153 L332 156 L330 157 Z M28 154 L30 153 L31 155 L29 156 Z M205 153 L207 152 L208 154 L206 155 Z M185 152 L187 153 L187 156 L189 157 L188 159 L186 159 L183 156 Z M86 153 L88 152 L89 154 L87 155 Z M322 152 L325 151 L326 153 L323 154 Z M299 152 L302 151 L306 155 L300 156 Z M62 156 L65 151 L70 153 L69 156 L66 157 Z M292 150 L294 149 L296 152 L293 153 Z M283 149 L285 148 L286 151 L284 152 Z M223 148 L225 149 L224 154 L221 153 Z M194 149 L196 148 L197 150 L195 151 Z M115 149 L117 148 L118 150 L116 151 Z M57 148 L58 149 L57 155 L54 157 L51 157 L50 156 L51 151 Z M436 147 L439 146 L440 148 L437 149 Z M90 147 L94 146 L95 149 L93 150 Z M226 146 L230 145 L233 146 L234 148 L228 149 Z M320 145 L322 144 L323 147 L321 148 Z M287 145 L289 144 L290 146 L288 147 Z M193 145 L195 144 L196 146 L194 147 Z M418 143 L420 144 L419 147 L416 146 Z M487 144 L491 142 L493 146 L489 147 Z M256 142 L258 141 L259 143 L257 144 Z M200 142 L202 141 L203 144 L201 145 Z M290 141 L292 140 L293 142 L291 143 Z M51 140 L53 141 L52 145 L50 144 Z M476 139 L480 141 L481 148 L480 149 L475 148 L473 150 L472 145 L475 144 Z M398 140 L400 139 L401 141 L399 142 Z M281 139 L282 143 L278 147 L275 143 L277 142 L278 139 Z M221 142 L222 139 L226 140 L224 143 Z M154 139 L156 140 L155 143 L152 142 Z M457 144 L456 146 L450 149 L448 148 L448 146 L451 144 L451 142 L448 142 L448 146 L445 149 L439 146 L440 144 L442 144 L444 140 L454 138 Z M130 139 L132 138 L133 140 L131 141 Z M123 139 L125 138 L126 140 L124 141 Z M67 138 L69 137 L70 140 L73 140 L75 142 L75 144 L73 145 L72 143 L68 143 Z M366 137 L369 136 L370 138 L367 139 Z M457 136 L460 135 L461 137 L458 138 Z M317 135 L319 136 L318 140 L316 139 Z M230 137 L238 135 L239 136 L238 140 L240 144 L238 145 L234 143 Z M334 135 L335 139 L331 140 L331 144 L327 147 L324 136 L327 134 Z M196 135 L198 134 L199 137 L197 138 Z M312 134 L314 133 L315 135 L313 136 Z M159 134 L162 133 L163 136 L160 137 Z M296 132 L298 131 L299 133 L297 134 Z M222 132 L224 131 L225 133 L223 134 Z M97 131 L99 134 L94 136 L93 134 Z M68 132 L70 131 L71 134 L69 135 Z M231 131 L234 130 L235 133 L233 134 Z M109 131 L112 130 L113 132 L110 133 Z M335 130 L338 129 L339 131 L336 132 Z M315 130 L317 129 L318 131 L316 132 Z M187 132 L192 136 L191 140 L187 143 L185 139 L181 140 L176 147 L176 150 L181 146 L183 149 L181 153 L178 153 L180 156 L176 164 L175 178 L172 183 L167 185 L164 184 L162 179 L158 178 L154 188 L157 189 L160 198 L156 206 L153 207 L154 214 L148 216 L150 221 L147 230 L143 231 L143 236 L134 243 L131 231 L135 229 L140 219 L137 214 L134 218 L129 217 L133 211 L133 203 L129 201 L127 207 L125 195 L130 193 L131 188 L134 187 L135 194 L132 197 L136 197 L136 207 L144 213 L147 209 L144 209 L143 205 L138 207 L137 202 L141 199 L148 199 L151 195 L147 197 L141 195 L140 192 L144 192 L145 187 L141 186 L138 189 L131 182 L132 179 L137 181 L145 168 L141 168 L139 171 L136 168 L137 161 L133 162 L123 156 L127 153 L133 154 L132 150 L134 148 L142 151 L140 147 L136 148 L133 143 L140 140 L146 142 L148 149 L151 150 L149 155 L156 151 L155 146 L159 146 L162 137 L167 135 L162 131 L163 129 L170 133 L174 132 L175 136 L180 131 Z M121 129 L123 130 L122 134 L119 133 Z M103 130 L105 129 L108 133 L107 134 L104 133 Z M238 129 L240 128 L243 131 L243 133 L240 134 Z M243 128 L246 127 L248 130 L244 131 Z M234 128 L236 127 L237 129 L235 130 Z M313 126 L314 129 L310 131 L309 128 Z M91 127 L93 126 L94 128 L92 129 Z M232 126 L234 125 L235 127 L233 128 Z M170 126 L172 125 L173 128 L171 129 Z M133 126 L139 125 L140 127 L134 128 Z M120 126 L123 125 L124 127 L121 128 Z M438 125 L440 124 L441 126 L439 127 Z M396 125 L398 124 L399 126 L397 127 Z M187 125 L190 124 L195 130 L194 133 L189 132 L187 129 Z M340 125 L343 123 L347 123 L348 128 L341 129 Z M210 124 L212 123 L213 125 L211 126 Z M194 123 L196 122 L198 126 L196 127 Z M176 122 L181 123 L180 131 L178 131 L173 126 Z M95 123 L97 122 L98 124 L96 125 Z M418 121 L421 124 L421 129 L419 131 L417 130 L415 124 Z M384 122 L386 121 L387 123 L385 124 Z M429 120 L431 121 L431 126 L433 127 L432 130 L427 128 Z M387 121 L389 120 L390 122 L388 123 Z M456 123 L460 119 L466 120 L466 125 L463 127 L457 127 Z M432 119 L436 118 L439 121 L439 123 L434 124 Z M196 119 L198 118 L199 120 L197 121 Z M110 118 L113 119 L112 124 L109 123 Z M104 118 L105 121 L102 123 L101 120 Z M266 118 L268 117 L269 119 L267 120 Z M142 117 L144 116 L145 118 L143 119 Z M200 116 L203 115 L204 117 L201 118 Z M413 115 L416 114 L420 116 L421 118 L417 119 Z M259 115 L261 114 L262 116 L260 117 Z M134 115 L136 114 L137 116 L135 117 Z M102 115 L107 114 L108 116 L104 118 Z M303 113 L305 114 L304 119 L302 118 Z M196 113 L199 112 L200 114 L197 115 Z M93 113 L94 112 L97 113 L98 116 L96 117 Z M307 112 L309 111 L310 113 L308 114 Z M296 112 L298 111 L300 114 L298 115 Z M258 111 L259 114 L255 117 L254 114 Z M143 110 L146 111 L145 116 L140 114 Z M115 111 L125 110 L129 117 L130 122 L124 124 L119 118 L117 118 L114 115 Z M214 109 L216 110 L215 114 L212 113 Z M201 112 L204 109 L207 110 L206 114 L202 114 Z M72 109 L74 108 L75 110 L73 111 Z M29 108 L32 109 L31 114 L28 111 Z M399 107 L401 107 L403 110 L402 112 L403 114 L402 119 L404 120 L403 124 L397 123 L399 121 L399 116 L397 115 L398 113 L397 109 Z M329 108 L330 107 L333 108 L334 112 L336 112 L339 116 L337 118 L334 116 L332 117 L331 114 L329 113 L330 111 Z M181 107 L184 108 L184 111 L186 113 L185 118 L180 115 Z M355 106 L357 105 L358 107 L356 108 Z M307 106 L310 105 L312 107 L315 105 L316 108 L320 107 L322 110 L324 108 L327 108 L328 111 L326 112 L326 115 L322 122 L324 124 L323 128 L325 129 L326 126 L328 125 L328 122 L331 121 L333 125 L336 126 L336 129 L335 130 L330 129 L329 131 L327 131 L326 134 L323 134 L312 117 L312 111 L310 111 Z M303 103 L305 102 L306 104 L304 105 Z M296 102 L298 103 L297 108 L295 107 Z M254 106 L251 110 L248 111 L248 115 L250 116 L250 120 L244 124 L240 123 L238 125 L236 121 L232 121 L229 127 L226 126 L230 118 L235 112 L238 112 L238 108 L245 100 L249 101 Z M209 100 L214 102 L212 107 L210 107 L207 104 Z M152 101 L154 100 L155 103 L153 104 Z M156 100 L159 99 L162 104 L156 106 L155 105 Z M268 97 L284 115 L293 129 L293 131 L290 134 L287 134 L286 137 L282 137 L278 135 L272 136 L270 134 L271 132 L275 132 L274 128 L275 125 L278 127 L277 123 L274 122 L275 120 L277 120 L278 115 L276 118 L274 118 L270 115 L270 113 L274 111 L274 108 L272 108 L271 110 L265 110 L262 107 L261 102 L263 101 L267 103 Z M204 98 L203 106 L198 107 L197 109 L189 107 L191 103 L194 102 L195 100 L199 103 L198 99 L202 97 Z M456 96 L459 98 L459 101 L457 103 L454 102 L454 99 Z M284 96 L286 95 L287 97 L285 98 Z M224 96 L226 95 L227 97 L225 98 Z M383 98 L386 94 L392 95 L389 99 Z M304 94 L305 98 L300 100 L299 97 Z M290 95 L292 94 L293 96 L291 97 Z M249 95 L253 94 L254 96 L257 97 L257 99 L254 100 Z M238 94 L240 93 L241 95 L239 96 Z M91 97 L95 93 L101 96 L106 94 L108 98 L108 103 L111 102 L112 104 L110 105 L109 108 L103 108 L101 101 L98 101 L96 98 L92 99 Z M85 94 L88 93 L89 95 L86 96 Z M420 92 L423 100 L418 103 L417 97 L418 93 Z M270 93 L272 92 L273 95 L271 96 Z M470 92 L472 91 L473 93 L471 94 Z M260 94 L264 91 L267 96 L263 97 Z M435 90 L436 94 L431 98 L429 98 L428 95 L430 94 L430 92 L432 90 Z M403 92 L407 90 L409 95 L405 96 Z M235 90 L237 89 L238 92 L236 93 Z M116 90 L118 89 L119 91 L117 92 Z M435 89 L437 88 L438 90 L436 91 Z M194 89 L196 88 L197 90 L195 91 Z M127 88 L128 92 L123 94 L122 91 Z M30 88 L33 91 L31 95 L28 94 L28 90 Z M110 88 L112 87 L113 90 L111 91 Z M297 86 L299 87 L299 90 L302 91 L301 95 L296 95 L294 93 Z M433 86 L435 85 L436 87 L434 88 Z M259 85 L261 89 L257 91 L256 93 L254 93 L253 90 L257 85 Z M105 87 L108 84 L110 88 L106 89 Z M453 84 L455 83 L456 85 L454 86 Z M438 83 L441 85 L440 89 L437 86 Z M239 81 L240 86 L239 87 L236 86 L234 90 L232 91 L231 87 L237 81 Z M136 81 L139 84 L139 86 L137 87 L138 90 L134 92 L133 85 L134 82 Z M467 80 L470 81 L468 85 L466 84 Z M365 80 L366 83 L361 89 L359 83 Z M113 81 L116 80 L117 82 L114 83 Z M93 82 L98 80 L99 82 L104 81 L105 83 L100 86 L95 85 Z M436 80 L438 79 L440 82 L438 83 Z M172 80 L169 87 L163 88 L162 86 L158 85 L159 81 L167 79 Z M278 78 L280 79 L279 83 L276 82 Z M136 79 L138 78 L139 80 L137 81 Z M444 78 L446 77 L447 79 L445 80 Z M256 78 L258 77 L259 79 L257 80 Z M80 77 L82 76 L83 78 L81 79 Z M21 77 L24 76 L29 82 L28 83 L22 82 Z M282 76 L283 75 L287 76 L288 81 L286 82 Z M260 75 L262 74 L263 76 L261 77 Z M58 75 L62 74 L64 77 L62 78 L59 77 Z M379 74 L381 73 L382 75 L380 76 Z M247 74 L249 73 L250 75 L248 76 Z M129 74 L132 73 L134 77 L132 78 Z M25 74 L27 73 L28 75 L26 76 Z M411 73 L413 72 L414 74 L412 75 Z M332 73 L335 72 L336 74 L333 75 Z M313 73 L315 72 L316 74 L314 75 Z M154 72 L157 72 L159 75 L159 78 L156 81 L154 80 L152 76 Z M111 73 L115 72 L116 74 L112 75 Z M272 72 L274 71 L275 74 L273 75 Z M224 72 L226 71 L227 73 L225 74 Z M118 72 L121 71 L122 74 L119 75 Z M219 71 L221 70 L222 73 L220 74 Z M330 70 L332 69 L333 71 L331 72 Z M256 70 L258 69 L259 71 L257 72 Z M263 69 L265 68 L267 71 L264 72 Z M132 69 L135 68 L136 70 L133 71 Z M16 68 L18 67 L20 70 L18 71 Z M317 68 L322 69 L324 66 L326 76 L330 73 L331 76 L343 80 L346 76 L348 85 L352 80 L357 82 L353 87 L357 92 L354 93 L351 108 L361 115 L359 117 L363 126 L369 128 L360 134 L363 136 L366 150 L372 146 L371 152 L375 152 L377 148 L383 147 L374 143 L369 145 L370 135 L373 134 L370 127 L372 124 L377 127 L379 123 L372 122 L370 118 L366 122 L357 108 L361 105 L368 109 L372 107 L376 116 L384 119 L382 123 L386 128 L381 128 L382 131 L377 133 L390 138 L389 143 L384 139 L381 141 L388 146 L389 157 L398 157 L403 174 L400 176 L394 168 L388 171 L392 175 L399 175 L404 181 L398 184 L393 180 L389 181 L389 185 L382 191 L389 193 L387 189 L390 184 L396 185 L402 191 L406 187 L408 191 L402 203 L396 197 L398 191 L394 190 L396 196 L393 204 L389 201 L384 205 L380 200 L376 202 L381 206 L376 217 L386 218 L381 226 L366 221 L367 216 L362 215 L362 206 L356 198 L357 194 L364 196 L359 193 L369 184 L373 186 L373 190 L367 197 L376 191 L369 180 L371 174 L375 172 L377 175 L378 172 L372 168 L372 163 L363 162 L368 159 L368 155 L359 159 L358 165 L351 166 L348 163 L347 168 L342 163 L343 158 L337 159 L338 149 L333 151 L336 141 L343 147 L345 141 L341 137 L349 135 L353 141 L357 137 L356 130 L359 129 L350 122 L353 116 L341 121 L346 111 L339 114 L337 102 L341 101 L339 97 L335 97 L337 92 L341 92 L340 89 L332 87 L333 92 L328 93 L320 88 L319 92 L323 91 L325 94 L320 97 L319 102 L323 104 L320 106 L316 104 L316 97 L306 93 L307 87 L300 86 L313 75 L320 73 L316 71 Z M243 67 L246 66 L247 69 L244 70 Z M234 65 L236 66 L237 69 L236 73 L232 72 Z M188 65 L191 66 L190 70 L186 68 Z M158 66 L160 65 L161 67 L159 68 Z M119 66 L121 65 L122 68 L120 69 Z M109 68 L111 65 L115 66 L112 69 Z M438 64 L441 66 L440 72 L436 72 L434 70 L434 68 Z M427 65 L430 64 L431 68 L429 69 Z M154 65 L156 64 L157 66 L155 67 Z M51 64 L54 64 L57 67 L58 71 L55 75 L51 75 L45 72 L48 66 Z M364 64 L367 63 L368 65 L365 66 Z M136 68 L136 66 L139 63 L145 65 L142 70 Z M376 63 L378 62 L381 65 L377 66 Z M361 64 L358 70 L360 73 L359 78 L354 76 L353 73 L350 73 L348 75 L346 72 L340 71 L341 68 L351 70 L355 62 Z M68 62 L70 61 L71 63 L69 64 Z M234 77 L229 87 L224 88 L219 98 L213 99 L211 96 L207 97 L205 95 L207 87 L196 86 L190 89 L185 76 L181 79 L184 84 L179 86 L177 90 L189 96 L188 104 L185 105 L184 101 L179 104 L176 95 L175 97 L170 97 L170 99 L175 100 L178 104 L174 106 L174 108 L179 111 L178 115 L171 119 L167 127 L159 128 L158 134 L154 134 L154 129 L152 128 L150 135 L146 134 L141 139 L138 138 L139 135 L143 133 L148 123 L150 125 L154 124 L149 118 L149 115 L153 114 L156 118 L155 113 L162 108 L164 104 L164 98 L160 99 L157 95 L169 95 L174 92 L173 82 L175 81 L176 75 L162 78 L160 75 L161 71 L165 69 L169 73 L175 72 L176 70 L180 71 L181 64 L183 63 L186 74 L190 75 L190 79 L192 79 L192 75 L197 72 L197 69 L200 69 L200 75 L196 79 L196 81 L199 81 L200 78 L206 77 L207 74 L205 73 L204 76 L202 75 L202 66 L208 65 L209 62 L216 60 L223 66 L222 68 L218 66 L217 68 L219 71 L215 74 L219 81 L222 81 L225 75 L229 76 L231 74 Z M456 60 L458 59 L459 61 L457 62 Z M221 60 L223 59 L224 62 L222 63 Z M200 60 L203 59 L204 61 L201 62 Z M478 59 L482 58 L483 60 L479 61 Z M152 59 L154 58 L155 60 L153 61 Z M427 58 L430 57 L431 61 L428 62 Z M374 58 L376 57 L377 59 L375 60 Z M229 58 L232 57 L234 62 L233 63 L230 62 Z M436 57 L438 56 L439 58 L437 59 Z M71 57 L73 56 L75 60 L73 61 Z M265 55 L266 61 L263 64 L262 63 L263 56 Z M185 55 L187 56 L186 60 L184 59 Z M453 55 L455 54 L456 56 L454 57 Z M243 52 L245 55 L245 58 L241 65 L239 66 L236 64 L236 60 L239 58 L238 54 Z M224 53 L226 52 L227 55 L225 56 Z M221 52 L223 57 L222 58 L219 57 L216 60 L213 57 L214 54 L218 55 L218 53 Z M36 58 L38 52 L46 53 L40 59 Z M439 52 L441 51 L444 52 L445 54 L442 55 Z M341 52 L343 51 L344 53 L342 54 Z M254 55 L256 51 L260 52 L259 55 L256 56 Z M183 52 L185 51 L186 53 L184 54 Z M108 54 L111 51 L113 52 L111 55 Z M210 53 L213 50 L217 51 L216 53 L212 54 Z M377 48 L379 48 L381 52 L384 52 L386 54 L385 56 L383 55 L382 56 L384 58 L382 62 L378 60 L377 53 L374 55 L372 54 L372 52 L375 51 Z M231 50 L234 48 L237 51 L232 52 Z M362 53 L361 55 L356 55 L355 57 L351 57 L348 62 L346 61 L346 54 L350 53 L350 49 L352 47 L355 48 L356 52 Z M210 53 L209 56 L202 55 L200 59 L198 59 L197 57 L195 57 L193 60 L191 59 L191 53 L193 52 L195 54 L196 48 L201 47 Z M173 48 L175 47 L176 50 L174 51 Z M163 48 L165 47 L166 49 L164 50 Z M151 48 L153 47 L154 49 L152 50 Z M399 47 L401 46 L402 48 L400 49 Z M25 47 L27 46 L28 49 L26 50 Z M341 46 L343 45 L345 48 L342 49 Z M246 45 L249 47 L250 50 L249 53 L243 51 Z M108 48 L109 45 L113 46 L110 49 Z M186 45 L188 44 L190 48 L188 49 Z M257 43 L260 44 L261 47 L260 50 L256 47 Z M124 44 L126 43 L127 45 L125 46 Z M52 43 L55 43 L59 47 L61 51 L61 55 L59 57 L57 56 L57 53 L55 51 L51 50 Z M357 42 L359 43 L358 48 L355 46 Z M340 42 L341 44 L337 47 L337 49 L340 48 L341 51 L333 53 L332 52 L333 46 L337 44 L338 42 Z M169 45 L170 42 L174 43 L172 46 Z M119 41 L121 40 L122 43 L120 44 Z M397 40 L399 39 L400 41 L398 42 Z M346 39 L350 40 L348 47 L345 46 Z M439 40 L443 38 L446 41 L449 41 L450 43 L444 45 L441 44 Z M264 38 L266 39 L265 46 L263 45 L261 41 Z M218 39 L220 38 L221 41 L219 42 Z M454 39 L458 39 L459 37 L461 38 L460 43 L469 49 L467 51 L471 54 L469 57 L467 57 L465 54 L459 51 L456 43 L453 41 Z M435 38 L438 37 L439 40 L437 41 Z M174 38 L176 37 L177 39 L175 40 Z M118 37 L120 38 L119 41 L116 40 Z M113 37 L115 36 L116 39 L114 40 Z M304 36 L306 35 L308 37 L309 42 L311 43 L311 46 L312 46 L313 42 L311 38 L313 36 L318 35 L319 37 L316 39 L317 42 L316 46 L318 46 L319 42 L321 41 L323 42 L324 45 L326 46 L325 50 L331 53 L330 61 L325 64 L322 64 L318 56 L315 56 L314 58 L310 56 L306 56 L305 53 L307 50 L316 52 L316 50 L308 49 L302 46 L301 40 L304 39 Z M245 38 L244 42 L241 42 L240 44 L231 47 L230 50 L228 50 L227 47 L225 46 L226 43 L230 42 L231 40 L235 40 L237 35 L239 36 L238 38 L239 40 L241 37 Z M167 35 L170 38 L170 40 L167 41 L166 45 L164 45 L163 39 Z M155 35 L157 35 L160 38 L161 44 L163 45 L162 47 L156 45 L154 40 Z M266 35 L268 34 L269 36 L267 37 Z M218 35 L220 34 L221 36 L219 37 Z M301 34 L303 33 L304 36 L302 37 Z M19 36 L21 33 L25 34 L23 37 Z M256 32 L257 33 L256 40 L252 41 L252 43 L250 44 L249 39 L251 38 L251 34 L253 32 Z M304 32 L306 31 L307 33 L305 34 Z M223 34 L227 31 L228 33 L232 33 L233 36 L229 37 L227 35 L224 37 Z M149 32 L151 31 L152 33 L150 34 Z M74 32 L78 31 L79 34 L75 35 Z M166 31 L168 30 L169 33 L167 34 Z M461 30 L463 29 L464 32 L462 33 Z M138 29 L141 31 L141 33 L144 34 L141 37 L141 39 L143 39 L146 34 L149 34 L151 37 L151 39 L148 41 L149 44 L148 48 L144 50 L153 52 L154 50 L156 51 L154 55 L150 56 L149 60 L144 59 L142 54 L139 56 L139 60 L135 61 L133 57 L124 54 L127 50 L130 49 L131 44 L134 43 L134 37 L135 36 L138 37 L137 32 Z M121 31 L122 30 L124 31 L127 29 L130 32 L130 35 L127 37 Z M257 29 L259 28 L260 30 L258 31 Z M162 29 L165 28 L166 30 L163 31 Z M471 28 L473 27 L474 30 L472 31 Z M379 28 L381 27 L382 29 L380 30 Z M127 28 L129 27 L130 29 L128 30 Z M205 31 L204 34 L199 36 L196 41 L184 41 L182 34 L180 36 L178 34 L176 35 L174 34 L175 30 L178 27 L181 28 L189 27 L190 30 L193 28 L198 28 L199 30 L197 33 L201 32 L201 27 L203 26 Z M356 26 L358 25 L359 28 L357 29 Z M65 26 L67 25 L68 28 L66 29 Z M47 25 L49 26 L49 32 L51 34 L50 38 L46 38 L45 36 L47 34 L43 33 Z M441 25 L443 24 L444 26 L442 27 Z M432 25 L434 24 L435 27 L433 28 Z M248 23 L250 23 L253 26 L253 29 L250 30 L249 32 L245 30 Z M231 26 L234 23 L237 23 L239 29 L235 30 Z M130 24 L134 23 L135 26 L133 27 Z M481 22 L483 27 L479 30 L475 29 L474 25 L475 24 L478 25 Z M412 23 L417 22 L418 26 L413 27 Z M419 22 L422 21 L423 23 L420 24 Z M406 22 L408 21 L409 23 L407 24 Z M348 21 L350 28 L345 29 L343 31 L342 26 L344 25 L345 21 Z M351 21 L357 20 L359 23 L358 24 L352 23 Z M66 21 L68 20 L69 22 L67 23 Z M478 20 L480 19 L481 21 L479 22 Z M403 18 L405 17 L407 21 L404 22 Z M374 18 L376 17 L377 19 L375 20 Z M27 18 L29 17 L30 19 L28 20 Z M368 16 L369 19 L366 20 L366 26 L369 26 L370 28 L364 29 L364 31 L362 32 L359 29 L360 23 L362 22 L362 18 L364 16 Z M316 19 L321 18 L322 16 L331 16 L335 20 L332 23 L330 21 L327 21 L326 19 L324 19 L323 22 L317 21 Z M61 17 L64 16 L65 18 L62 19 Z M335 16 L337 15 L338 17 L336 18 Z M310 16 L312 15 L313 17 L311 18 Z M186 15 L190 16 L188 24 L184 22 L186 20 L185 17 Z M43 16 L45 15 L46 17 L44 18 Z"/></svg>
