<svg xmlns="http://www.w3.org/2000/svg" width="512" height="512" viewBox="0 0 512 512" aria-hidden="true" focusable="false"><path fill="currentColor" fill-rule="evenodd" clip-rule="evenodd" d="M180 273 L183 276 L216 276 L219 274 L222 267 L225 266 L234 287 L238 289 L250 246 L252 245 L256 255 L268 306 L271 306 L281 271 L286 276 L329 276 L331 274 L329 271 L289 271 L283 260 L279 259 L272 285 L269 288 L253 228 L251 228 L249 231 L236 276 L234 275 L226 254 L222 255 L214 271 L182 271 Z M92 231 L91 249 L79 280 L92 309 L89 311 L74 299 L72 338 L77 352 L68 357 L98 398 L130 413 L115 417 L103 410 L106 420 L117 431 L147 446 L177 445 L168 454 L177 460 L196 457 L205 467 L215 469 L225 465 L232 454 L240 462 L231 473 L255 496 L281 472 L271 462 L279 454 L285 464 L299 469 L315 457 L330 461 L343 455 L333 448 L333 443 L359 447 L395 430 L408 410 L394 417 L382 413 L413 398 L444 357 L434 352 L439 339 L437 299 L422 311 L419 308 L432 282 L420 247 L419 229 L402 268 L407 287 L400 285 L393 311 L380 333 L380 345 L388 357 L398 359 L404 354 L400 342 L412 349 L412 362 L402 381 L382 397 L363 401 L382 391 L395 374 L382 362 L380 369 L388 377 L377 389 L367 392 L377 361 L370 322 L359 337 L329 350 L341 330 L366 312 L391 268 L390 256 L381 266 L373 267 L384 250 L384 223 L374 199 L368 199 L366 187 L352 172 L349 158 L341 169 L340 179 L347 193 L342 199 L341 216 L359 239 L365 232 L368 235 L367 247 L355 261 L370 252 L372 234 L363 224 L359 230 L346 217 L346 207 L352 205 L346 171 L364 194 L357 215 L361 208 L365 213 L371 209 L378 220 L379 250 L368 264 L355 269 L364 274 L354 299 L326 325 L316 348 L313 329 L286 344 L286 302 L346 299 L347 240 L343 235 L286 234 L284 175 L227 175 L225 234 L165 238 L165 299 L225 302 L225 343 L198 329 L199 342 L194 347 L185 325 L157 299 L154 283 L146 273 L156 269 L143 264 L132 250 L133 220 L139 211 L146 213 L149 208 L155 214 L147 195 L165 171 L159 203 L165 207 L165 217 L152 230 L148 224 L139 234 L141 252 L156 261 L146 251 L143 236 L146 232 L152 239 L170 217 L169 199 L164 194 L171 174 L162 158 L159 172 L145 187 L143 199 L137 199 L127 223 L126 246 L138 267 L130 266 L122 256 L121 271 L142 308 L168 328 L182 348 L180 351 L155 339 L140 323 L135 370 L144 392 L134 389 L123 377 L129 374 L130 362 L116 373 L129 391 L146 402 L117 389 L100 365 L101 345 L111 342 L108 356 L120 359 L130 349 L131 333 L118 311 L119 302 L111 285 L104 287 L109 268 Z M237 472 L242 466 L246 466 L250 468 L256 475 L260 469 L265 466 L268 466 L271 468 L274 473 L268 474 L265 472 L264 481 L255 489 L246 479 L247 472 L244 472 L242 474 L238 474 Z M276 440 L277 449 L275 453 L272 456 L266 456 L264 453 L265 448 L270 446 Z M235 440 L237 440 L240 445 L247 450 L247 453 L244 456 L240 456 L236 453 L234 449 Z M274 430 L279 429 L289 432 L295 438 L296 444 L295 445 L288 444 L282 448 L281 447 L282 434 L275 435 Z M237 430 L236 435 L229 434 L230 438 L229 448 L223 444 L220 444 L217 446 L215 445 L217 437 L222 432 L233 429 Z M279 424 L287 421 L303 421 L313 425 L322 434 L328 448 L333 455 L322 456 L318 454 L314 447 L311 445 L312 452 L309 459 L306 462 L301 464 L293 464 L289 462 L285 456 L285 452 L290 448 L292 450 L292 454 L297 453 L300 449 L300 440 L293 430 L285 426 L280 426 Z M232 424 L231 426 L223 427 L218 430 L211 440 L211 449 L214 453 L219 454 L219 450 L221 448 L226 452 L226 456 L222 462 L218 464 L210 464 L205 462 L200 456 L200 445 L197 447 L195 452 L189 456 L177 455 L182 450 L192 430 L198 425 L208 421 L223 421 Z M255 418 L268 430 L270 434 L269 440 L265 444 L263 444 L260 448 L260 454 L266 461 L260 464 L256 468 L245 461 L251 454 L251 448 L249 445 L246 444 L242 440 L241 437 L243 430 Z M114 423 L115 421 L126 421 L149 407 L160 407 L175 415 L194 420 L193 422 L181 425 L156 423 L156 425 L186 429 L186 431 L177 439 L163 444 L153 443 L143 438 L148 430 L148 427 L138 432 L132 432 L122 429 Z M319 419 L338 414 L350 407 L357 406 L371 411 L383 420 L395 421 L396 423 L390 428 L377 432 L363 428 L367 435 L365 440 L356 443 L345 443 L332 437 L325 431 L324 428 L339 428 L355 425 L355 423 L347 422 L341 424 L328 424 L320 422 Z M148 401 L151 400 L152 402 L149 403 Z M255 362 L271 379 L276 390 L276 399 L272 409 L262 417 L258 415 L257 411 L255 411 L251 417 L244 414 L239 409 L235 398 L235 391 L239 381 Z M321 355 L323 356 L322 360 L320 359 Z M307 338 L310 350 L318 366 L319 380 L317 389 L312 399 L300 411 L293 415 L287 416 L285 413 L291 410 L300 398 L302 391 L301 376 L299 376 L298 394 L294 400 L294 382 L291 372 L285 362 L285 358 L292 347 Z M255 338 L278 359 L289 380 L290 391 L288 401 L282 411 L270 419 L268 417 L274 412 L280 401 L280 388 L276 378 L270 371 L272 362 L270 361 L269 365 L266 367 L258 358 L256 353 L245 367 L240 361 L239 362 L241 371 L236 377 L231 389 L232 403 L237 412 L242 416 L241 418 L235 416 L227 408 L222 397 L222 381 L227 368 L234 358 Z M205 338 L218 346 L226 357 L226 363 L218 378 L217 399 L215 398 L212 389 L213 374 L211 374 L209 380 L209 391 L212 400 L220 410 L223 410 L226 413 L225 416 L221 416 L211 411 L199 399 L194 389 L192 378 L193 367 Z M143 335 L153 343 L174 352 L185 362 L188 368 L188 384 L191 394 L196 403 L207 413 L206 415 L197 414 L185 409 L170 396 L160 378 L159 361 L156 364 L156 377 L159 385 L169 401 L179 410 L170 408 L150 392 L143 381 L139 367 L139 353 Z M368 334 L372 351 L372 368 L368 381 L361 392 L341 408 L332 410 L345 397 L352 385 L356 371 L352 361 L352 375 L341 396 L327 408 L314 414 L305 415 L304 413 L315 403 L321 392 L323 368 L327 361 L337 352 L358 343 Z M384 269 L385 270 L384 274 L374 285 L369 298 L363 308 L353 317 L340 325 L332 333 L326 343 L324 354 L322 355 L321 348 L326 333 L330 327 L341 316 L354 307 L358 301 L360 288 L363 281 L371 274 L379 272 Z M127 269 L132 272 L142 275 L148 281 L151 287 L153 301 L157 307 L170 316 L182 328 L190 347 L191 354 L190 361 L188 360 L187 349 L182 337 L170 324 L158 317 L148 308 L143 300 L140 290 L137 285 L126 272 Z M96 248 L99 250 L98 264 L102 264 L105 271 L104 277 L99 278 L95 284 L96 288 L100 288 L104 295 L101 308 L107 304 L109 294 L114 300 L114 309 L105 321 L117 317 L125 329 L127 343 L123 351 L115 355 L111 352 L117 346 L115 341 L110 337 L103 338 L95 347 L95 363 L104 381 L117 394 L138 404 L140 407 L137 409 L125 407 L102 395 L90 383 L77 359 L79 357 L89 362 L88 357 L79 345 L76 326 L81 309 L86 315 L86 321 L90 328 L91 319 L96 311 L95 298 L87 292 L84 285 L85 272 Z M415 247 L427 274 L427 285 L424 292 L416 298 L415 311 L420 319 L421 328 L429 309 L435 325 L433 343 L422 362 L430 358 L433 360 L424 379 L410 394 L391 405 L376 410 L371 405 L394 394 L407 381 L416 363 L417 351 L413 341 L406 337 L399 338 L394 344 L396 348 L400 349 L398 354 L392 354 L384 342 L386 329 L394 317 L406 321 L406 318 L397 309 L397 301 L402 294 L403 302 L410 308 L407 295 L411 288 L415 288 L416 283 L413 278 L407 277 L406 272 L408 265 L413 264 L412 250 Z M231 179 L282 180 L284 240 L342 241 L341 297 L282 297 L281 354 L256 329 L244 344 L229 353 L229 297 L169 296 L170 240 L229 239 Z M255 17 L239 73 L226 91 L221 89 L219 99 L202 121 L201 131 L190 128 L179 152 L178 182 L193 203 L177 199 L178 210 L171 223 L184 206 L215 208 L204 189 L206 169 L218 158 L235 158 L232 136 L255 111 L280 138 L277 158 L293 158 L306 171 L307 190 L297 208 L327 206 L340 223 L333 210 L335 199 L318 203 L333 183 L333 154 L321 128 L310 131 L309 121 L291 97 L290 89 L285 91 L272 73 L272 62 Z M194 173 L197 162 L206 152 L212 149 L221 148 L220 135 L223 128 L241 110 L256 88 L271 111 L287 126 L290 131 L290 148 L299 149 L305 152 L313 160 L317 171 L315 187 L312 190 L312 176 L310 169 L297 155 L284 152 L285 140 L283 133 L277 125 L261 111 L256 102 L247 115 L241 119 L229 132 L226 141 L228 152 L213 156 L204 165 L200 173 L199 190 L196 187 Z M255 39 L268 65 L265 79 L272 78 L280 91 L280 100 L287 98 L303 118 L306 126 L305 139 L310 136 L314 141 L317 136 L330 160 L330 176 L325 189 L313 205 L305 208 L303 206 L314 196 L319 187 L320 164 L308 148 L295 144 L296 136 L291 123 L268 100 L256 76 L244 99 L218 127 L216 144 L202 149 L192 162 L190 170 L192 187 L208 206 L207 208 L197 204 L182 180 L181 161 L185 150 L194 136 L198 141 L201 137 L207 139 L205 127 L209 117 L225 98 L231 100 L234 86 L241 78 L246 78 L243 66 Z"/></svg>
