<svg xmlns="http://www.w3.org/2000/svg" width="512" height="512" viewBox="0 0 512 512" aria-hidden="true" focusable="false"><path fill="currentColor" fill-rule="evenodd" clip-rule="evenodd" d="M447 409 L453 408 L456 410 L460 409 L459 403 L461 401 L463 402 L462 406 L464 407 L464 409 L466 409 L467 405 L469 406 L469 409 L471 409 L471 406 L474 405 L474 399 L471 399 L470 397 L464 397 L463 399 L455 397 L449 398 Z M434 397 L434 409 L436 409 L437 407 L440 407 L441 409 L443 409 L443 406 L445 405 L444 398 Z M335 401 L335 404 L337 404 L338 406 L344 409 L360 409 L361 406 L365 409 L366 405 L368 406 L369 409 L373 409 L374 404 L376 404 L377 407 L381 407 L382 410 L384 410 L385 407 L388 407 L388 397 L379 397 L377 398 L376 403 L373 401 L372 398 L364 397 L363 398 L364 402 L362 404 L360 403 L359 398 L354 397 L352 399 L351 397 L349 397 L348 399 L349 407 L348 408 L342 405 L345 402 L345 399 L342 399 L341 397 L339 397 Z M241 397 L240 409 L252 409 L251 405 L252 399 L256 401 L255 403 L256 409 L280 409 L280 407 L277 406 L281 399 L280 398 L274 397 L267 399 L263 397 L256 398 Z M266 400 L268 401 L267 406 L265 405 Z M149 397 L147 402 L148 410 L158 408 L165 410 L168 409 L173 410 L171 407 L172 397 L166 397 L158 399 L157 397 Z M24 401 L24 403 L26 404 L24 409 L26 409 L30 403 L32 404 L32 407 L36 409 L34 404 L37 403 L38 406 L42 406 L43 407 L42 410 L44 410 L46 406 L50 406 L49 402 L52 399 L54 403 L52 410 L58 408 L62 409 L62 401 L65 400 L68 402 L68 410 L77 409 L76 402 L78 401 L78 399 L74 399 L73 397 L71 397 L70 399 L64 399 L58 397 L50 399 L43 397 L38 398 L37 401 L32 401 L31 398 L28 397 L28 400 Z M43 384 L41 386 L41 389 L43 390 L43 393 L45 393 L47 386 Z M374 379 L362 384 L359 387 L361 388 L364 385 L372 382 Z M372 358 L371 358 L372 361 L371 370 L368 374 L360 375 L361 377 L367 376 L374 369 L375 364 Z M166 367 L170 367 L178 371 L186 371 L192 369 L198 364 L203 364 L203 363 L198 362 L191 358 L182 356 L173 359 Z M180 366 L182 365 L183 367 L181 368 Z M173 363 L176 366 L175 368 L171 366 Z M187 367 L188 362 L191 362 L193 364 L191 367 L189 368 Z M117 362 L117 364 L122 364 L126 368 L133 371 L140 371 L148 368 L153 368 L153 365 L148 360 L137 356 L129 358 L121 362 Z M136 366 L138 365 L139 367 L137 368 Z M143 364 L146 363 L147 366 L144 367 Z M125 364 L130 362 L132 367 L129 368 Z M166 351 L166 353 L168 353 L171 350 L178 347 L188 347 L200 352 L203 352 L203 350 L200 350 L189 345 L176 345 Z M116 350 L116 352 L119 352 L131 347 L141 347 L155 354 L152 350 L142 345 L130 345 Z M241 336 L241 346 L243 351 L245 351 L243 341 L246 338 Z M159 329 L158 335 L160 335 L161 337 L159 338 L158 341 L156 340 L156 338 L154 338 L154 342 L158 346 L158 349 L161 350 L162 346 L166 342 L166 338 L163 336 L161 329 Z M220 350 L223 359 L230 364 L230 367 L222 373 L228 381 L269 384 L290 382 L299 377 L299 373 L291 365 L297 360 L301 350 L286 346 L287 328 L279 329 L271 335 L261 320 L250 334 L243 329 L235 328 L236 347 Z M242 379 L249 376 L253 376 L256 380 L255 381 L243 381 Z M271 368 L272 367 L277 368 L284 373 L285 371 L278 366 L279 364 L283 364 L291 368 L296 374 L289 377 L279 377 L271 373 Z M225 374 L230 367 L237 364 L244 365 L241 369 L247 367 L250 368 L250 373 L242 377 L232 377 Z M252 368 L258 363 L263 363 L267 365 L269 368 L268 374 L275 378 L278 378 L279 380 L266 382 L265 381 L266 377 L262 379 L258 378 L253 373 Z M276 360 L278 359 L279 361 L277 362 Z M268 359 L270 358 L271 360 L269 361 Z M257 357 L259 356 L262 357 L263 359 L260 361 Z M296 350 L298 352 L296 357 L292 361 L285 363 L284 360 L289 358 L291 355 L289 354 L283 358 L282 354 L284 353 L284 351 L288 349 Z M223 352 L229 349 L236 350 L241 358 L239 359 L233 356 L233 358 L237 361 L236 363 L233 363 L224 356 Z M278 340 L279 341 L278 347 L276 351 L272 354 L271 353 L272 343 Z M260 336 L262 337 L266 348 L264 357 L262 356 L262 349 L259 350 L258 355 L256 354 L256 343 Z M284 330 L285 331 L284 347 L281 353 L276 358 L273 359 L272 357 L276 354 L281 344 L280 336 L273 340 L272 335 L279 331 Z M237 330 L244 332 L249 337 L249 352 L253 359 L252 361 L246 359 L239 352 L236 341 L236 331 Z M261 323 L268 333 L270 339 L270 345 L269 346 L267 345 L266 339 L262 332 L259 332 L255 339 L254 346 L252 347 L251 346 L252 335 L255 329 Z M484 315 L477 318 L467 315 L457 319 L454 328 L450 330 L450 334 L454 336 L452 346 L446 348 L437 346 L428 355 L425 366 L431 373 L430 384 L440 380 L450 385 L461 378 L462 370 L465 368 L462 362 L462 353 L470 350 L477 353 L488 342 L489 332 L482 324 Z M453 378 L455 377 L456 379 L454 380 Z M455 366 L455 368 L451 372 L451 375 L449 377 L441 378 L437 377 L435 379 L433 378 L433 376 L438 371 L441 373 L446 371 L451 363 Z M428 364 L430 363 L431 365 L429 366 Z M446 361 L447 363 L442 367 L441 365 Z M444 356 L445 358 L439 363 L437 369 L434 370 L433 363 L439 356 Z M453 353 L455 352 L456 354 L454 355 Z M474 349 L476 348 L477 350 L475 351 Z M455 349 L457 348 L458 350 L456 351 Z M484 329 L486 330 L487 333 L486 335 L483 334 Z M479 327 L481 330 L479 339 L476 342 L472 342 L471 339 L475 336 L477 328 Z M481 320 L478 326 L472 326 L467 330 L464 335 L461 333 L461 330 L465 327 L467 323 L470 322 L476 323 L479 319 Z M470 319 L472 318 L473 320 L471 321 Z M50 313 L47 317 L47 326 L38 326 L35 328 L38 334 L44 333 L49 336 L42 346 L42 349 L45 352 L37 357 L37 343 L25 342 L29 348 L29 372 L35 380 L46 381 L52 377 L54 373 L54 364 L57 362 L66 378 L72 383 L75 383 L75 347 L77 342 L67 345 L68 361 L66 362 L59 351 L61 345 L56 337 L60 334 L67 333 L71 326 L67 325 L60 328 L59 326 L61 323 L58 321 L58 315 L56 313 Z M36 357 L38 358 L39 366 L48 367 L48 369 L45 372 L40 372 L36 368 L35 364 Z M41 357 L45 354 L48 354 L53 356 L54 359 L50 361 L47 358 L42 359 Z M70 346 L73 347 L73 378 L72 379 L66 375 L66 373 L56 357 L56 353 L58 352 L65 366 L68 370 L70 370 L70 349 L69 348 Z M56 346 L58 345 L59 347 L57 348 Z M45 346 L48 345 L50 347 L50 350 L48 351 Z M32 344 L35 345 L33 355 L33 365 L35 370 L39 374 L42 375 L48 373 L50 369 L52 370 L50 375 L45 379 L39 379 L35 377 L31 372 L30 353 Z M51 334 L54 333 L55 336 L53 337 Z M51 329 L54 328 L55 330 L52 331 Z M38 329 L43 328 L44 330 L39 331 Z M67 327 L68 329 L65 331 L64 329 Z M51 324 L53 323 L54 325 L52 326 Z M358 305 L356 305 L351 324 L348 329 L344 331 L343 335 L340 336 L340 343 L338 344 L339 354 L336 359 L336 368 L339 375 L346 382 L357 385 L357 383 L346 379 L340 373 L338 368 L338 361 L342 355 L342 352 L348 349 L348 347 L345 347 L343 345 L344 342 L350 344 L352 342 L353 336 L358 339 L353 344 L353 348 L357 351 L346 357 L344 362 L344 367 L350 375 L357 377 L357 375 L352 374 L346 367 L346 362 L351 355 L355 356 L350 363 L350 366 L353 370 L363 371 L367 367 L367 361 L362 356 L363 354 L366 355 L366 353 L361 351 L363 345 L359 341 L359 339 L363 336 L362 331 L366 329 L368 330 L368 334 L364 340 L367 344 L375 341 L376 343 L371 348 L371 350 L378 350 L376 352 L376 355 L380 359 L380 369 L377 376 L380 374 L383 365 L380 356 L381 343 L378 342 L378 337 L375 336 L374 330 L371 330 L368 327 L367 322 L364 320 L363 316 L360 313 Z M357 366 L359 365 L360 368 L358 369 Z M363 360 L366 362 L366 366 L364 368 L362 367 Z M354 360 L356 361 L355 366 L352 365 Z M356 345 L359 344 L360 347 L358 348 Z M371 338 L373 337 L374 339 L372 340 Z M367 338 L369 337 L371 340 L368 342 Z M347 338 L349 337 L350 340 L348 341 Z M357 333 L359 332 L360 334 L358 335 Z M350 330 L354 331 L352 336 L349 333 Z M356 314 L359 315 L360 320 L362 321 L362 329 L361 330 L357 329 L355 331 L353 324 L357 323 L357 320 L355 317 Z M460 267 L462 277 L464 277 L465 274 L467 275 L467 277 L470 277 L471 272 L474 273 L474 276 L478 275 L482 277 L483 275 L485 275 L485 265 L476 265 L474 266 L473 270 L471 269 L471 266 L468 265 L466 266 L462 265 Z M431 276 L433 277 L438 271 L441 276 L454 277 L454 272 L456 271 L456 269 L454 268 L454 265 L447 266 L445 270 L446 275 L444 276 L441 273 L440 265 L435 266 L434 272 Z M346 265 L345 277 L350 277 L351 275 L355 277 L358 274 L360 275 L360 277 L363 277 L364 275 L369 277 L371 272 L374 273 L374 276 L378 275 L379 277 L382 277 L383 275 L385 275 L385 265 L375 266 L361 265 L359 268 L354 265 L352 266 Z M357 270 L359 269 L360 272 L358 273 Z M369 268 L373 267 L374 270 L372 271 Z M333 265 L331 277 L342 277 L343 269 L342 265 Z M278 266 L277 277 L280 276 L286 277 L287 272 L286 267 L282 265 Z M279 272 L281 271 L282 273 L280 274 Z M234 266 L235 269 L234 273 L236 274 L236 277 L241 276 L243 277 L252 276 L274 277 L273 275 L274 265 L263 265 L261 275 L256 274 L259 266 L249 266 L252 274 L248 276 L244 275 L246 268 L245 266 L240 265 Z M125 277 L152 277 L157 275 L161 277 L165 277 L166 272 L168 273 L168 277 L185 277 L186 276 L191 277 L191 273 L194 270 L191 268 L191 266 L188 265 L184 266 L182 275 L180 276 L179 275 L180 265 L169 265 L167 270 L164 269 L164 266 L158 265 L155 266 L155 274 L153 275 L151 265 L141 265 L138 268 L130 265 L128 268 L126 268 L127 275 Z M137 270 L139 271 L140 274 L139 276 L136 274 Z M56 267 L58 277 L61 274 L63 275 L63 277 L66 277 L67 272 L70 273 L70 276 L75 275 L76 277 L82 274 L81 265 L72 265 L70 266 L69 271 L67 270 L67 267 L64 265 L62 266 L58 265 Z M53 269 L51 268 L51 266 L47 264 L43 267 L42 275 L40 276 L39 275 L39 265 L29 265 L28 277 L44 277 L45 276 L51 277 L51 273 Z M457 205 L452 210 L454 212 L452 215 L455 219 L460 221 L464 216 L463 207 Z M370 194 L368 199 L371 202 L374 197 L373 195 Z M346 193 L344 194 L343 200 L345 202 L350 201 L350 194 Z M475 190 L473 194 L471 195 L471 197 L475 201 L477 201 L479 197 L475 198 L474 194 L477 193 L478 191 Z M358 180 L356 184 L358 187 L355 190 L357 193 L357 198 L355 199 L356 204 L352 208 L353 215 L357 217 L355 220 L357 224 L355 229 L357 231 L357 240 L359 241 L359 231 L361 229 L360 217 L363 214 L364 209 L360 205 L361 200 L359 199 L360 183 Z M54 176 L50 180 L54 184 L51 188 L52 195 L38 202 L36 201 L36 195 L42 194 L44 185 L40 189 L24 189 L24 205 L17 215 L19 216 L18 222 L24 227 L24 245 L41 245 L48 252 L51 250 L51 254 L55 257 L65 247 L60 248 L57 246 L56 240 L69 232 L59 237 L50 237 L43 234 L35 224 L34 215 L37 207 L43 201 L49 198 L52 199 L52 203 L47 207 L47 211 L50 214 L47 216 L46 222 L50 226 L49 231 L55 233 L56 226 L62 222 L62 218 L58 215 L61 211 L58 209 L60 206 L56 199 L68 201 L56 195 L56 188 L63 187 L66 190 L66 194 L73 195 L73 200 L70 204 L74 213 L74 221 L70 229 L73 239 L67 240 L67 245 L84 245 L84 229 L94 216 L84 205 L84 189 L68 189 Z M36 235 L39 233 L46 238 L52 239 L53 241 L51 242 L50 245 L45 246 L41 242 L41 240 L35 239 Z M50 222 L53 219 L54 214 L56 214 L57 217 L60 219 L56 223 Z M52 206 L56 205 L57 207 L53 208 Z M75 201 L78 201 L79 206 L83 207 L81 209 L83 213 L81 215 L81 219 L84 220 L81 224 L83 227 L79 229 L78 234 L72 231 L76 222 L76 211 L73 206 Z M30 201 L37 202 L32 213 L32 221 L37 231 L34 234 L30 234 L27 224 L22 223 L25 219 L28 218 L28 216 L23 215 L21 212 L27 211 Z M445 175 L422 197 L422 230 L443 251 L475 251 L495 230 L495 197 L475 176 Z M478 235 L480 234 L481 236 L479 237 Z M447 242 L452 230 L464 230 L467 234 L470 244 L469 245 L462 244 L463 242 L462 234 L455 234 L455 240 L453 245 L448 245 Z M475 221 L487 227 L488 229 L483 233 L481 230 L477 228 L476 225 L471 230 L476 234 L478 238 L473 244 L467 231 L467 228 L470 227 Z M476 218 L477 217 L488 218 L489 224 L487 225 L477 220 Z M441 218 L437 222 L434 222 L431 224 L428 223 L429 218 L436 217 Z M489 203 L488 209 L478 209 L477 208 L478 206 L486 202 Z M428 203 L431 202 L440 206 L441 208 L440 209 L429 208 Z M456 194 L459 193 L460 195 L457 196 Z M444 184 L446 186 L450 197 L442 204 L439 204 L431 200 L430 197 L434 194 L437 197 L437 199 L441 201 L442 198 L445 197 L445 195 L441 192 L439 188 Z M469 181 L470 184 L466 194 L462 196 L461 195 L463 189 L462 183 L465 181 Z M447 181 L458 181 L459 182 L458 184 L454 184 L455 191 L454 196 L451 195 L446 183 Z M475 178 L476 181 L490 196 L486 200 L478 204 L471 203 L474 212 L473 221 L464 228 L452 228 L449 226 L449 233 L445 243 L441 246 L437 241 L445 230 L442 228 L442 226 L436 230 L435 232 L439 237 L434 239 L431 236 L433 233 L429 228 L440 222 L444 222 L443 208 L451 199 L461 198 L467 201 L469 200 L467 195 L473 182 L472 179 Z M119 172 L116 184 L118 202 L125 214 L138 224 L135 230 L141 237 L138 242 L159 254 L178 246 L181 242 L179 238 L184 232 L180 224 L197 211 L203 195 L201 174 L198 172 L194 181 L185 190 L178 191 L179 197 L172 204 L168 203 L169 193 L164 190 L159 179 L155 191 L151 193 L152 203 L147 204 L141 200 L141 192 L131 189 L126 184 L122 173 Z M142 242 L144 241 L145 243 L143 244 Z M168 242 L167 244 L162 245 L162 251 L160 252 L158 250 L159 243 L162 240 Z M157 240 L158 241 L157 246 L154 248 L153 247 L154 244 L152 242 Z M153 231 L156 228 L159 232 L164 231 L165 233 L162 234 L162 237 L160 238 L159 235 L155 234 Z M166 227 L168 226 L169 228 L167 229 Z M180 225 L181 232 L178 235 L171 237 L169 233 L172 232 L173 226 Z M143 224 L148 229 L148 232 L151 233 L147 237 L139 233 L138 228 Z M154 221 L156 220 L157 222 L163 222 L165 220 L166 224 L164 226 L158 227 L154 224 Z M151 210 L153 209 L161 213 L168 209 L169 213 L164 214 L159 220 L156 214 L154 214 L153 216 L151 215 Z M185 193 L186 200 L184 205 L182 206 L181 209 L173 214 L172 207 L180 201 L181 194 Z M135 193 L138 194 L138 199 L148 207 L147 214 L143 212 L142 210 L136 208 L136 205 L132 197 Z M199 178 L200 182 L197 188 L199 188 L200 191 L196 195 L198 199 L195 201 L193 210 L189 211 L189 214 L185 215 L179 221 L170 222 L169 219 L178 213 L180 213 L186 206 L189 200 L189 195 L191 194 L189 190 L194 186 L197 179 Z M120 178 L122 179 L127 188 L126 193 L130 196 L129 199 L132 202 L131 204 L132 208 L135 208 L136 212 L139 212 L144 216 L149 217 L151 220 L150 222 L141 221 L140 218 L136 218 L135 215 L131 215 L130 211 L126 210 L127 206 L124 205 L125 201 L121 198 L122 194 L120 191 L121 190 L123 191 L124 189 L119 182 Z M359 168 L334 183 L335 228 L349 247 L352 244 L357 248 L355 250 L357 253 L366 248 L365 244 L372 237 L375 239 L378 236 L383 223 L383 183 Z M357 249 L359 248 L360 250 L358 251 Z M362 245 L364 244 L365 246 L363 247 Z M341 236 L343 235 L344 237 L342 238 Z M373 234 L375 233 L376 235 L374 236 Z M340 233 L342 232 L343 234 L341 235 Z M358 175 L377 187 L377 222 L375 223 L372 220 L369 222 L371 226 L375 225 L376 227 L373 234 L359 246 L355 245 L351 240 L348 242 L345 240 L347 236 L343 233 L341 226 L346 226 L348 222 L346 219 L342 222 L340 221 L340 186 Z M359 173 L361 172 L362 174 L360 175 Z M353 173 L355 172 L356 174 L354 175 Z M258 168 L255 181 L247 192 L245 199 L236 198 L240 215 L239 220 L232 219 L234 245 L237 241 L240 243 L237 248 L242 248 L249 254 L261 256 L264 253 L270 254 L286 244 L288 220 L282 221 L279 215 L284 198 L277 201 L274 199 L272 192 L264 181 L261 168 Z M248 248 L250 247 L254 249 L255 251 L250 252 Z M269 246 L271 247 L271 251 L267 252 L266 250 Z M261 246 L263 245 L264 247 L262 248 Z M255 246 L257 245 L258 247 L256 248 Z M266 244 L268 243 L269 245 L267 246 Z M282 241 L284 242 L284 245 L280 246 L279 243 Z M255 241 L262 240 L263 242 L256 243 Z M237 238 L239 237 L240 239 L238 240 Z M281 236 L283 237 L282 240 L279 239 Z M235 236 L237 235 L238 237 L236 238 Z M240 232 L244 231 L246 233 L245 236 L241 237 Z M275 230 L279 231 L281 233 L280 236 L275 237 L273 235 Z M267 227 L269 226 L270 229 L268 230 Z M283 223 L285 224 L284 230 L279 227 Z M235 223 L240 226 L237 232 L235 231 L234 228 Z M258 223 L260 222 L261 225 L259 226 Z M247 221 L250 222 L250 225 L248 227 L246 226 Z M271 220 L274 221 L272 227 L269 226 Z M244 219 L246 218 L247 221 L245 222 Z M256 207 L264 208 L260 218 L258 217 L255 209 Z M251 207 L254 206 L255 208 L252 209 Z M265 201 L269 201 L275 206 L273 215 L271 214 L271 212 L267 212 L266 209 L264 208 L265 206 L268 206 L268 204 L264 203 Z M254 201 L255 202 L254 204 L251 204 L248 206 L248 208 L250 208 L251 211 L248 212 L248 215 L246 216 L244 206 L248 202 Z M258 200 L260 199 L261 201 L259 202 Z M262 196 L264 195 L266 198 L263 199 Z M251 191 L256 190 L258 191 L258 193 L256 194 L257 196 L256 199 L253 198 L253 194 L250 193 Z M261 190 L263 189 L265 191 L268 191 L269 193 L264 195 L261 192 Z M259 186 L261 187 L260 191 L258 190 Z M258 178 L262 179 L262 182 L260 185 L257 182 Z M429 110 L427 113 L427 116 L424 119 L417 121 L417 123 L424 125 L427 128 L428 133 L431 134 L433 128 L436 125 L439 125 L442 123 L442 121 L439 119 L436 119 L433 116 L433 113 L431 110 Z M88 110 L86 113 L86 116 L83 119 L76 121 L76 123 L83 125 L86 128 L88 134 L90 134 L92 131 L92 128 L95 125 L102 123 L102 121 L95 119 L92 116 L91 111 Z M108 117 L111 136 L127 146 L391 146 L401 142 L410 129 L408 112 L396 102 L122 102 Z M145 125 L147 126 L146 130 L144 129 Z M133 125 L135 124 L136 127 L134 128 Z"/></svg>
