<svg xmlns="http://www.w3.org/2000/svg" width="512" height="512" viewBox="0 0 512 512" aria-hidden="true" focusable="false"><path fill="currentColor" fill-rule="evenodd" clip-rule="evenodd" d="M235 447 L236 449 L242 450 L248 454 L250 453 L241 448 Z M45 388 L38 401 L39 410 L44 410 L48 416 L39 442 L39 458 L44 469 L41 457 L46 458 L51 476 L93 496 L139 471 L146 457 L146 442 L138 413 L147 408 L146 397 L140 388 L145 406 L137 410 L135 419 L144 443 L144 456 L138 469 L120 480 L116 477 L130 471 L140 457 L140 441 L132 420 L133 410 L141 405 L137 392 L134 391 L136 401 L127 413 L131 430 L127 433 L106 425 L114 408 L108 388 L94 380 L75 387 L68 406 L78 429 L55 438 L52 433 L57 412 L50 405 L51 390 L42 397 Z M115 481 L113 485 L105 486 L98 490 L96 489 L98 485 L104 482 L110 481 L111 479 Z M66 477 L70 476 L73 481 L82 483 L91 489 L93 489 L95 492 L90 493 L87 490 L79 486 L71 485 L69 481 L66 479 Z M80 476 L82 475 L83 477 L81 478 Z M57 476 L59 474 L62 474 L64 477 L61 479 L58 478 Z M51 471 L54 470 L57 474 L53 475 Z M67 469 L69 467 L72 468 L71 471 L68 471 Z M62 466 L70 463 L70 460 L72 458 L75 458 L81 465 L85 464 L87 467 L89 465 L91 467 L88 471 L87 477 L84 476 L83 474 L80 474 L80 476 L78 477 L75 473 L77 470 L73 468 L72 465 L67 467 L66 469 L63 469 Z M83 451 L85 455 L81 458 L80 454 Z M94 448 L96 447 L97 449 L95 450 Z M92 446 L93 448 L91 451 L95 455 L92 461 L87 463 L86 459 L87 458 L89 459 L90 457 L88 456 L89 453 L87 453 L86 450 L89 446 Z M128 440 L132 444 L134 453 L133 460 L132 461 L130 460 L131 457 L129 457 L128 459 L131 462 L130 468 L122 465 L128 452 L124 450 L126 442 Z M98 440 L99 443 L95 446 L94 444 Z M50 439 L52 438 L53 441 L51 442 Z M131 438 L133 437 L134 439 L132 440 Z M79 443 L82 449 L74 455 L66 459 L62 459 L60 468 L56 467 L52 463 L50 458 L50 453 L52 445 L56 440 L66 437 L68 440 Z M90 434 L92 435 L94 439 L92 443 L89 442 Z M98 432 L100 433 L99 440 L94 438 L94 435 L97 434 Z M68 436 L76 432 L78 432 L79 435 L81 436 L81 433 L84 432 L86 435 L86 442 L88 445 L84 447 L82 445 L82 442 L69 438 Z M125 434 L126 437 L116 470 L114 472 L109 472 L106 477 L99 479 L93 483 L88 481 L87 479 L91 474 L104 431 L106 429 L110 429 L119 432 L121 436 Z M90 431 L90 429 L93 426 L97 428 L94 432 Z M98 426 L100 425 L101 427 L99 428 Z M84 424 L86 424 L89 427 L87 431 L83 428 Z M100 423 L102 422 L103 425 L101 426 Z M86 419 L89 418 L90 420 L87 421 Z M48 406 L52 409 L53 420 L45 440 L44 453 L41 454 L40 453 L41 440 L49 420 L49 414 L46 409 L46 407 Z M76 406 L78 402 L84 403 L80 407 Z M41 400 L44 401 L45 406 L44 408 L41 408 L39 405 Z M102 385 L106 389 L107 394 L104 395 L103 397 L100 397 L97 395 L97 393 L95 393 L93 397 L103 399 L105 401 L105 404 L101 406 L94 403 L92 407 L98 412 L100 412 L101 408 L106 411 L105 418 L101 420 L100 418 L97 417 L97 414 L95 414 L92 417 L84 415 L81 418 L81 423 L79 424 L77 417 L79 416 L81 412 L85 412 L85 409 L89 406 L89 404 L84 400 L85 398 L87 398 L87 393 L85 393 L85 395 L83 396 L84 398 L83 400 L81 401 L78 400 L78 395 L75 394 L77 389 L87 383 L97 383 Z M261 359 L243 364 L225 380 L214 403 L211 434 L226 474 L248 491 L268 493 L287 484 L301 467 L310 442 L311 417 L304 391 L291 372 L274 361 Z M266 459 L266 464 L261 471 L261 476 L259 479 L256 479 L253 482 L251 482 L247 479 L246 475 L242 477 L239 473 L239 471 L242 469 L246 471 L244 468 L254 461 L257 464 L258 463 L256 461 L257 459 L261 461 L262 460 L260 458 L261 456 L263 456 Z M266 453 L268 452 L269 454 L267 455 Z M225 450 L226 446 L232 445 L244 439 L247 439 L249 444 L250 440 L252 439 L255 442 L256 446 L258 442 L262 442 L264 445 L267 445 L270 440 L274 442 L270 448 L268 448 L255 459 L237 470 L232 466 Z M299 439 L300 442 L297 452 L288 470 L280 478 L269 483 L261 484 L260 481 L272 455 L279 435 L283 434 Z M269 430 L274 429 L276 432 L270 433 Z M248 431 L254 429 L258 436 L261 431 L264 432 L266 431 L270 436 L265 440 L258 440 L253 435 L250 435 Z M252 423 L258 422 L261 423 L262 425 L253 427 Z M262 424 L266 421 L269 421 L271 423 L271 426 L267 427 L263 426 Z M266 416 L273 415 L275 412 L280 414 L279 422 L278 423 L276 421 L272 422 Z M247 412 L249 413 L252 419 L249 424 L245 422 L243 418 L243 414 Z M265 412 L267 411 L268 413 L266 414 Z M255 412 L257 411 L260 415 L262 414 L267 419 L263 421 L257 420 L255 416 Z M303 404 L305 403 L306 406 L304 407 Z M302 401 L304 400 L305 402 L303 403 Z M251 400 L252 399 L258 400 L271 399 L272 401 L266 403 L266 405 L263 407 L263 411 L261 412 L257 403 L252 402 Z M301 398 L303 397 L304 399 L302 400 Z M297 386 L299 387 L302 393 L301 395 L299 394 L296 388 Z M294 384 L296 383 L297 386 L295 387 Z M241 394 L244 393 L245 388 L249 384 L258 381 L269 382 L274 384 L277 387 L279 393 L282 394 L282 398 L278 399 L280 409 L276 410 L272 407 L273 405 L275 405 L275 403 L273 402 L274 395 L266 394 L265 391 L259 391 L258 394 L251 394 L251 397 L249 398 L248 405 L250 405 L251 407 L247 410 L244 410 L243 407 L245 404 L245 397 L242 397 Z M291 380 L293 379 L295 383 L292 384 Z M229 379 L231 380 L231 383 L226 388 L218 408 L217 421 L219 423 L219 430 L217 431 L217 439 L222 456 L230 470 L234 471 L240 477 L241 481 L253 487 L264 488 L273 486 L279 483 L280 481 L282 481 L283 477 L288 472 L292 471 L292 469 L294 468 L294 466 L296 465 L300 457 L304 445 L306 433 L306 419 L304 408 L305 407 L307 408 L309 419 L309 433 L303 458 L293 475 L285 483 L273 490 L258 492 L250 490 L242 486 L228 473 L220 460 L214 439 L213 429 L214 413 L219 396 L224 385 Z M284 373 L286 372 L290 374 L291 378 L287 379 L284 376 Z M230 378 L235 373 L237 373 L238 376 L243 377 L247 373 L256 370 L271 371 L282 377 L292 389 L299 406 L301 415 L301 436 L299 437 L281 431 L289 414 L289 406 L284 404 L285 395 L282 387 L271 378 L256 377 L250 379 L241 387 L239 392 L239 404 L234 406 L234 413 L238 424 L244 429 L245 433 L242 438 L224 444 L221 431 L222 413 L229 392 L235 385 L234 380 L231 380 Z M280 370 L283 369 L284 371 L281 372 Z M268 364 L269 363 L274 364 L280 367 L281 369 L279 370 L274 367 L269 366 Z M268 363 L267 365 L256 365 L245 369 L244 371 L242 371 L241 373 L238 372 L243 367 L256 362 L267 362 Z M135 383 L128 378 L123 373 L123 371 L118 368 L117 364 L108 363 L92 353 L87 358 L80 362 L68 364 L67 369 L63 371 L60 376 L52 381 L48 385 L48 387 L62 377 L63 374 L65 373 L66 377 L64 380 L53 387 L53 389 L56 387 L59 388 L60 386 L68 382 L71 377 L74 376 L77 377 L76 373 L78 371 L86 369 L87 365 L90 366 L93 365 L102 370 L107 371 L108 377 L110 376 L114 377 L117 382 L127 389 L129 388 L132 389 L132 387 L123 381 L122 379 L123 377 L134 385 Z M67 372 L69 371 L70 373 L68 374 Z M112 367 L114 366 L118 372 L114 373 L112 371 Z M108 366 L110 365 L111 367 L109 368 Z M74 366 L76 365 L77 367 L75 368 Z M105 365 L107 364 L108 366 L106 367 Z M98 362 L100 361 L104 363 L105 365 L103 366 L99 364 Z M89 361 L88 363 L82 366 L80 365 L81 363 L87 360 Z M89 359 L93 356 L98 361 L95 362 L94 360 L90 361 Z M421 351 L418 364 L411 373 L412 395 L400 402 L395 428 L398 436 L386 443 L385 466 L381 469 L376 489 L402 494 L463 491 L467 485 L458 465 L457 442 L446 436 L446 404 L432 394 L433 372 Z M379 484 L383 483 L400 486 L442 486 L464 483 L466 487 L461 490 L449 492 L406 493 L383 490 L379 488 Z M382 475 L384 469 L396 470 L398 468 L399 471 L416 471 L417 469 L424 469 L427 471 L445 471 L460 469 L462 473 L462 478 L459 480 L439 482 L402 482 L385 480 L382 478 Z M387 457 L388 456 L395 457 L456 456 L458 458 L458 461 L454 466 L435 467 L434 470 L431 470 L430 468 L411 468 L410 470 L407 470 L406 467 L390 466 L387 463 Z M412 453 L415 452 L416 454 L413 455 Z M431 444 L434 441 L438 442 L437 444 L434 445 Z M456 444 L455 450 L449 453 L429 453 L425 451 L428 448 L446 444 L449 440 L452 440 Z M388 444 L390 441 L394 440 L395 442 L406 441 L415 443 L428 443 L429 446 L416 450 L401 451 L400 453 L395 453 L389 449 Z M435 437 L432 440 L429 439 L430 437 L433 436 Z M417 436 L418 438 L414 440 L413 438 Z M423 412 L424 413 L423 434 L422 435 L415 434 L411 430 L412 426 L411 417 L416 416 Z M431 398 L440 400 L443 403 L445 409 L447 430 L443 435 L438 438 L434 436 L435 431 L441 426 L438 417 L439 410 L438 406 L437 406 L433 419 L433 431 L430 434 L425 433 L427 409 L429 400 Z M428 396 L429 398 L425 405 L425 408 L422 409 L419 413 L411 414 L409 412 L408 405 L406 405 L408 415 L406 420 L406 425 L402 426 L402 428 L407 429 L413 435 L413 438 L411 439 L402 435 L398 431 L398 422 L402 403 L405 400 L414 397 L418 394 L424 397 Z M428 383 L429 387 L425 391 L424 390 L425 384 Z M427 375 L428 377 L425 378 L423 382 L421 382 L420 387 L417 390 L415 381 L419 380 L423 375 Z M416 376 L418 375 L419 377 L417 378 Z M428 373 L430 372 L431 374 L429 375 Z M429 371 L428 373 L422 374 L414 373 L414 371 L418 369 L421 364 L424 365 L426 369 Z M420 360 L422 359 L424 362 L421 363 Z M92 189 L88 206 L81 215 L82 236 L69 247 L70 271 L62 278 L62 295 L58 298 L49 331 L136 331 L123 295 L122 278 L114 271 L114 243 L101 236 L104 221 Z M83 329 L84 328 L102 328 L103 330 L102 331 L84 331 Z M122 328 L126 327 L127 329 L123 330 Z M58 328 L62 327 L63 329 L59 330 Z M53 319 L54 318 L60 319 L125 319 L130 318 L131 324 L121 326 L64 326 L54 325 Z M56 310 L59 309 L60 310 L104 311 L105 310 L125 310 L127 309 L128 315 L124 317 L61 317 L56 315 Z M59 300 L61 298 L63 299 L121 299 L123 298 L125 301 L125 304 L123 306 L113 306 L112 307 L76 307 L75 306 L62 306 L59 304 Z M63 288 L64 287 L68 288 L117 288 L120 287 L121 293 L119 295 L109 296 L75 296 L65 295 L63 293 Z M98 283 L100 282 L101 284 L99 285 Z M95 279 L97 278 L98 280 L96 281 Z M119 280 L119 283 L115 285 L104 285 L103 284 L105 280 L112 279 L113 277 Z M64 279 L67 275 L70 275 L71 277 L83 277 L94 279 L95 281 L90 283 L71 285 L67 284 L64 281 Z M98 274 L100 273 L101 275 L99 276 Z M81 272 L82 271 L89 272 L90 274 L85 276 Z M108 265 L112 270 L103 274 L102 271 L105 268 L105 266 Z M104 261 L106 262 L105 266 L103 265 Z M112 244 L113 248 L113 264 L112 265 L107 259 L107 248 L106 248 L101 259 L99 272 L97 273 L96 271 L84 270 L81 267 L82 257 L86 256 L86 254 L82 254 L79 251 L77 246 L76 247 L77 249 L76 265 L78 269 L74 271 L71 268 L73 266 L73 264 L70 263 L71 249 L74 242 L86 237 L90 238 L91 236 L95 235 L98 237 L98 241 L92 249 L94 251 L93 255 L94 267 L95 267 L95 254 L99 241 L101 239 L104 239 L109 241 Z M95 225 L98 226 L97 231 L94 228 Z M86 225 L90 226 L88 231 L85 228 Z M86 218 L87 217 L97 217 L98 219 L94 221 L93 226 L91 227 L90 220 L87 220 Z M92 198 L94 201 L93 206 L95 210 L99 212 L98 215 L87 215 L85 217 L84 214 L88 211 L90 207 L90 199 Z M263 184 L252 214 L242 220 L246 236 L237 239 L234 280 L219 287 L217 311 L209 324 L212 334 L281 337 L314 332 L303 297 L304 287 L289 280 L285 235 L277 236 L280 220 L276 221 L269 210 Z M263 333 L266 332 L267 334 L264 335 Z M260 328 L262 327 L263 329 L261 330 Z M282 327 L285 326 L286 328 L283 329 Z M271 327 L275 326 L276 328 L272 329 Z M249 327 L251 326 L252 328 L250 329 Z M237 327 L241 326 L242 328 L238 329 Z M290 326 L294 325 L295 327 L291 328 Z M228 326 L232 325 L233 327 L229 328 Z M299 325 L301 324 L302 326 L300 327 Z M220 325 L222 324 L223 326 L221 327 Z M307 324 L309 323 L310 325 L308 326 Z M275 319 L279 318 L280 320 L276 321 Z M265 319 L270 318 L271 320 L266 321 Z M252 319 L256 318 L257 320 L253 321 Z M243 319 L247 318 L248 320 L244 321 Z M291 318 L295 317 L296 319 L292 320 Z M285 318 L287 317 L288 319 L286 320 Z M235 318 L239 317 L240 319 L236 320 Z M300 317 L302 316 L303 318 L301 319 Z M227 317 L230 316 L232 319 L228 320 Z M220 317 L222 316 L223 318 L221 319 Z M260 311 L262 310 L263 312 L261 313 Z M249 309 L251 308 L252 310 L250 311 Z M291 308 L295 307 L296 309 L292 310 Z M218 305 L220 304 L221 306 L219 307 Z M276 303 L278 304 L279 307 L278 309 L275 306 Z M231 303 L233 302 L234 305 L232 306 Z M257 299 L260 298 L261 300 L258 301 Z M249 300 L251 298 L254 299 L253 302 L250 302 Z M287 295 L287 299 L285 301 L272 301 L271 300 L271 295 L280 291 L284 292 Z M273 290 L272 292 L265 294 L260 293 L261 291 L265 291 L268 289 Z M235 289 L237 288 L238 290 L242 289 L243 291 L248 291 L249 295 L246 297 L236 299 Z M273 290 L276 287 L279 288 L278 290 L275 291 Z M291 284 L296 284 L300 286 L302 289 L301 295 L296 299 L293 298 L292 293 L290 293 L289 295 L287 294 L288 289 L290 288 Z M232 284 L233 289 L231 290 L229 294 L229 298 L227 299 L222 295 L221 289 L223 286 L227 284 Z M272 284 L274 283 L275 285 L273 286 Z M248 284 L252 283 L253 286 L251 287 Z M258 279 L260 276 L262 276 L265 281 L260 282 Z M247 276 L249 275 L250 277 L248 278 Z M273 274 L276 273 L277 275 L274 276 Z M279 268 L286 269 L287 278 L283 283 L279 279 L280 277 L282 277 L282 275 L279 274 L278 270 Z M238 268 L240 268 L241 271 L244 272 L243 275 L240 275 L240 277 L244 278 L241 283 L236 278 Z M260 265 L262 264 L263 266 L261 267 Z M273 258 L276 261 L276 263 L271 274 L267 276 L264 269 L267 267 L270 259 Z M251 258 L254 260 L254 263 L258 271 L258 274 L254 277 L252 276 L252 272 L247 262 Z M273 256 L276 255 L277 257 L274 258 Z M277 252 L282 251 L285 255 L285 259 L280 260 L279 256 L277 255 Z M252 252 L256 251 L257 253 L253 254 Z M241 251 L247 254 L247 256 L244 257 L243 260 L238 259 L238 255 Z M255 249 L258 248 L258 246 L262 242 L266 250 L256 251 Z M253 234 L257 233 L258 236 L255 237 Z M260 230 L262 231 L262 233 L270 234 L267 241 L265 240 L263 236 L259 234 Z M257 225 L267 224 L269 227 L261 229 L258 228 Z M421 181 L400 210 L414 197 L418 202 L399 216 L395 214 L381 233 L375 256 L376 325 L390 335 L453 335 L464 331 L468 323 L468 250 L457 223 Z M460 328 L460 330 L457 332 L440 334 L401 334 L396 332 L397 330 L428 331 L429 330 L449 330 L458 327 Z M424 323 L432 322 L433 324 L425 325 Z M406 323 L407 322 L419 322 L420 324 L419 325 L407 325 Z M447 322 L450 321 L451 323 L448 324 Z M434 323 L440 321 L443 324 L435 325 Z M391 322 L396 321 L397 323 L392 324 Z M378 317 L379 316 L381 317 L381 323 L384 327 L392 329 L393 331 L387 332 L382 330 L379 327 Z M459 316 L461 315 L462 317 L460 318 Z M431 312 L436 311 L437 315 L440 318 L438 320 L431 320 L430 319 Z M416 313 L418 311 L426 311 L429 317 L427 320 L419 321 L416 319 Z M404 313 L406 311 L412 311 L414 313 L414 319 L406 320 L404 318 Z M457 310 L458 320 L455 322 L453 317 L453 312 Z M449 310 L452 316 L449 319 L442 320 L441 319 L443 316 L442 312 Z M395 310 L402 312 L401 320 L397 320 L393 318 L393 312 Z M389 308 L392 309 L390 321 L388 321 L386 318 L386 310 Z M418 307 L425 306 L426 308 L419 309 Z M406 307 L413 306 L414 308 L407 309 Z M443 305 L445 306 L444 309 L441 308 Z M440 306 L437 309 L432 308 L433 306 L438 305 Z M398 306 L401 305 L402 308 L399 309 Z M392 306 L396 305 L397 307 L393 308 Z M453 305 L451 308 L447 307 L448 305 L451 304 Z M378 304 L380 305 L380 315 L379 316 L377 315 L377 305 Z M387 296 L390 298 L388 307 L386 306 Z M460 295 L462 296 L461 303 L459 302 Z M453 292 L453 297 L447 301 L423 301 L422 300 L423 298 L441 294 L446 289 L449 289 Z M391 295 L392 291 L395 289 L400 289 L401 291 L409 291 L418 293 L428 292 L429 293 L428 295 L411 299 L403 299 L401 301 L394 300 Z M427 288 L430 287 L431 289 L428 290 Z M414 288 L416 287 L417 289 L415 290 Z M379 283 L381 284 L381 303 L380 304 L378 303 L378 284 Z M434 274 L436 275 L435 279 L433 278 Z M424 272 L424 282 L425 283 L424 285 L417 284 L414 285 L413 288 L410 288 L403 284 L406 280 L409 280 L411 283 L413 282 L414 277 L413 272 L419 270 Z M380 270 L382 271 L381 281 L379 280 Z M457 270 L459 269 L460 271 L458 272 Z M441 263 L443 265 L443 282 L439 286 L432 289 L431 288 L432 284 L436 279 L440 278 L437 272 L437 264 Z M464 262 L465 263 L466 293 L467 294 L467 320 L465 327 L462 329 L461 325 L463 321 L463 291 L462 290 L461 267 L462 263 Z M379 258 L382 260 L381 264 L378 262 Z M465 256 L467 257 L466 261 L464 260 Z M430 254 L432 254 L434 258 L438 256 L441 259 L440 261 L436 261 L431 275 L432 280 L431 283 L426 281 L426 265 Z M426 251 L428 255 L424 264 L418 268 L413 269 L410 265 L410 262 L408 261 L408 275 L406 278 L403 279 L402 272 L404 259 L407 256 L417 253 L418 251 L421 252 Z M378 251 L381 250 L382 253 L379 254 Z M464 249 L466 250 L465 254 L461 252 Z M384 248 L386 247 L387 250 L385 251 Z M425 241 L429 242 L427 247 L424 245 Z M416 242 L420 241 L421 244 L417 246 Z M416 238 L417 233 L427 233 L428 234 L427 236 L424 236 L423 239 L420 236 L418 239 Z M426 229 L428 228 L430 231 L428 232 Z M415 229 L420 227 L424 228 L425 230 L416 231 Z M394 225 L396 224 L397 226 L395 227 Z M390 224 L391 226 L386 236 L386 246 L384 247 L383 246 L383 236 L387 226 Z M445 223 L447 222 L448 224 L446 225 Z M395 218 L396 221 L391 224 L390 222 Z M444 213 L453 221 L461 234 L462 244 L458 255 L456 254 L458 245 L457 234 L450 222 L446 218 L443 220 L440 217 Z M433 209 L435 208 L436 210 L434 211 Z M435 206 L437 205 L438 207 L436 208 Z M421 202 L431 205 L429 209 L446 225 L452 236 L453 247 L451 255 L455 263 L458 287 L457 310 L454 306 L455 291 L443 285 L445 282 L445 262 L440 255 L432 251 L435 237 L433 231 L426 223 L423 210 L421 210 L419 222 L413 228 L410 237 L412 252 L405 255 L401 261 L401 285 L392 288 L389 293 L387 292 L388 269 L394 254 L392 237 L397 227 L401 224 L398 220 L400 218 L403 220 Z M420 196 L423 195 L424 197 L421 198 Z M416 194 L418 193 L419 195 L417 196 Z M424 193 L426 192 L433 201 L431 202 Z M418 191 L420 190 L421 192 L419 193 Z M421 188 L423 187 L424 189 L422 190 Z M196 145 L199 144 L204 145 L205 147 L203 151 L205 151 L206 154 L208 154 L211 150 L213 150 L214 153 L211 154 L211 157 L216 157 L217 160 L221 159 L222 162 L226 161 L227 164 L231 162 L232 165 L237 166 L239 162 L242 161 L243 162 L241 164 L242 167 L245 167 L245 164 L247 163 L248 168 L251 167 L255 168 L256 164 L258 163 L259 168 L266 168 L264 158 L266 154 L262 155 L260 159 L248 159 L246 154 L243 154 L242 158 L238 158 L237 156 L233 157 L230 156 L229 152 L224 153 L222 151 L218 152 L216 148 L213 148 L210 144 L207 144 L206 141 L202 137 L199 139 L199 141 Z M226 155 L228 154 L229 156 L227 157 Z M277 135 L277 137 L281 139 Z M291 133 L291 135 L300 138 L300 136 Z M236 130 L232 131 L232 133 L236 132 Z M296 126 L296 128 L301 128 L300 126 Z M423 116 L423 119 L426 119 L426 117 Z M314 81 L312 87 L313 91 L310 95 L310 98 L319 104 L320 111 L317 113 L316 112 L317 108 L315 106 L310 105 L311 116 L317 119 L317 127 L323 129 L325 126 L325 123 L321 117 L322 106 L316 96 L317 90 L316 84 Z M209 81 L207 84 L206 90 L207 96 L201 107 L202 117 L198 123 L201 129 L206 127 L207 125 L206 119 L212 117 L213 105 L208 106 L205 110 L203 109 L205 103 L213 98 L213 94 L211 92 L211 86 Z M418 35 L403 54 L405 67 L393 85 L393 117 L374 131 L372 146 L382 154 L466 153 L474 147 L475 136 L468 126 L454 117 L456 89 L452 76 L444 67 L446 54 L441 51 L436 38 L428 34 Z M431 148 L433 147 L434 149 L432 150 Z M414 148 L416 147 L417 149 L415 150 Z M419 146 L422 143 L426 143 L430 146 L430 149 L421 150 Z M474 139 L473 145 L468 150 L460 152 L449 151 L439 148 L433 145 L430 140 L433 136 L444 131 L457 130 L463 132 L466 129 L468 129 L471 132 Z M459 127 L463 126 L464 129 L462 130 Z M384 127 L387 126 L388 128 L385 129 Z M454 126 L456 125 L457 127 L455 128 Z M415 125 L418 124 L420 127 L416 128 Z M450 124 L449 128 L440 130 L421 142 L403 150 L394 152 L384 152 L377 149 L374 145 L374 137 L380 129 L383 132 L390 130 L421 130 L428 129 L431 124 L448 122 Z M393 121 L397 120 L398 122 L412 123 L413 127 L412 128 L396 128 L395 127 L396 124 Z M424 89 L426 90 L430 105 L434 113 L439 119 L438 121 L428 123 L425 127 L423 127 L418 122 L409 120 L412 117 L412 115 L415 113 L419 105 Z M408 70 L410 73 L410 76 L413 77 L413 81 L411 83 L408 83 L405 93 L398 102 L397 112 L395 113 L393 99 L396 83 L400 75 L405 70 Z M417 59 L418 62 L424 63 L424 74 L421 91 L418 101 L411 114 L405 119 L399 119 L396 116 L398 115 L397 112 L399 111 L400 104 L414 84 L416 78 L415 60 Z M432 58 L434 59 L435 64 L433 74 L434 80 L438 88 L447 100 L450 106 L450 111 L451 111 L451 104 L443 92 L442 84 L436 81 L436 77 L439 76 L439 71 L444 70 L449 75 L453 83 L455 92 L455 110 L453 115 L449 119 L443 119 L437 114 L430 99 L426 81 L426 61 L428 60 L429 62 L431 62 Z M410 57 L411 54 L414 55 L412 58 Z M428 54 L430 53 L431 55 L429 56 Z M418 54 L420 53 L421 56 L419 57 Z M412 42 L420 36 L431 37 L436 41 L439 47 L439 57 L437 58 L435 56 L434 51 L430 48 L429 49 L419 48 L414 53 L412 52 L410 53 L409 50 Z M256 32 L245 50 L251 64 L236 71 L232 77 L228 103 L231 116 L212 124 L213 137 L223 148 L303 145 L307 152 L278 159 L279 167 L286 166 L286 160 L296 167 L297 162 L307 156 L313 157 L315 149 L321 152 L327 144 L322 139 L315 144 L310 139 L309 126 L295 118 L298 104 L292 70 L275 63 L279 52 L275 38 L268 32 Z M312 146 L314 145 L315 148 L313 149 Z M316 145 L320 144 L321 147 L318 148 Z M290 142 L293 141 L294 143 L291 144 Z M269 140 L268 143 L247 144 L246 145 L239 144 L240 141 L253 137 L259 138 L266 136 Z M286 125 L285 127 L282 127 L267 133 L262 133 L257 135 L255 134 L255 132 L257 130 L260 130 L261 127 L267 127 L269 125 L273 125 L281 122 Z M309 132 L308 137 L302 143 L298 144 L296 143 L296 140 L288 137 L287 139 L283 140 L282 145 L276 145 L270 139 L269 136 L270 134 L276 133 L283 129 L285 129 L286 131 L289 131 L290 128 L293 128 L293 125 L295 124 L296 121 L304 124 L307 127 Z M215 129 L220 123 L229 120 L230 123 L235 123 L237 121 L238 124 L250 126 L252 134 L250 135 L249 133 L247 133 L246 136 L238 139 L237 141 L229 145 L228 141 L230 138 L232 138 L232 136 L230 136 L226 131 L222 132 L222 134 L224 134 L227 137 L227 141 L224 142 L223 140 L219 139 L220 135 L217 136 L215 135 Z M288 120 L291 119 L292 121 L289 122 Z M237 120 L239 119 L240 121 L238 122 Z M247 118 L249 116 L253 116 L255 121 L250 122 L247 120 Z M284 115 L280 120 L271 123 L269 122 L270 117 L277 117 L280 113 Z M270 111 L272 110 L273 113 L271 114 Z M253 109 L255 108 L258 111 L254 112 Z M242 108 L249 107 L250 113 L247 114 Z M284 105 L286 107 L290 105 L295 107 L292 117 L288 115 L289 113 L288 111 L282 108 Z M257 103 L259 102 L260 104 L258 105 Z M245 93 L250 96 L249 101 L244 99 Z M290 90 L293 91 L295 94 L294 104 L286 102 L284 100 L284 98 L286 97 L286 95 L288 94 Z M290 88 L292 87 L293 89 L291 90 Z M242 88 L245 87 L247 90 L243 92 Z M253 81 L257 82 L258 85 L260 86 L259 91 L255 95 L249 92 L249 90 L252 89 L250 84 Z M258 79 L260 78 L261 80 L259 81 Z M243 70 L244 71 L243 74 L247 73 L255 76 L256 78 L240 87 L239 101 L238 104 L234 106 L234 107 L237 107 L243 113 L243 116 L239 117 L230 111 L230 105 L235 76 L239 71 Z M251 71 L257 69 L259 76 L257 77 Z M286 69 L287 74 L277 100 L274 103 L271 102 L267 103 L265 101 L264 102 L265 105 L263 106 L261 104 L261 101 L258 100 L257 97 L259 96 L263 88 L271 66 L274 65 Z M263 65 L265 64 L266 66 L264 67 Z M258 62 L260 63 L259 67 L256 65 Z M267 55 L271 59 L270 62 L265 60 Z M268 54 L271 53 L272 55 L269 56 Z M266 54 L263 57 L258 56 L256 58 L252 57 L252 54 L255 52 L259 52 L260 48 L262 48 L263 53 Z M252 49 L254 48 L255 50 L253 51 Z M269 48 L271 47 L272 49 L270 50 Z M251 39 L259 33 L265 33 L273 39 L273 43 L269 47 L268 44 L265 42 L265 40 L259 40 L259 42 L254 47 L253 43 L251 42 Z M89 17 L87 27 L80 36 L81 55 L72 63 L73 83 L68 111 L71 121 L78 122 L75 135 L82 143 L82 151 L74 157 L72 169 L83 173 L99 173 L109 169 L107 156 L98 150 L98 145 L110 138 L107 97 L111 90 L113 71 L109 59 L100 55 L101 34 L94 27 L92 17 Z M75 167 L79 166 L86 168 L95 168 L106 166 L107 168 L97 171 L85 171 L76 169 Z M95 162 L99 161 L100 163 L96 164 Z M82 162 L87 161 L88 163 L83 164 Z M101 161 L103 160 L104 162 L102 163 Z M88 157 L90 156 L91 158 L89 159 Z M93 145 L95 146 L95 150 L97 153 L96 155 L92 154 Z M86 145 L88 146 L87 154 L84 152 Z M100 140 L100 135 L104 134 L106 137 L102 141 Z M105 118 L107 126 L104 128 L104 131 L101 132 L100 131 L102 119 Z M76 118 L78 117 L79 120 L77 121 Z M72 103 L74 104 L73 110 L71 109 Z M99 99 L102 101 L102 108 L97 131 L98 138 L96 140 L93 140 L92 130 L90 130 L88 127 L95 109 L96 100 Z M98 94 L100 93 L102 97 L99 98 Z M108 76 L110 76 L111 79 L110 83 L106 84 L105 79 Z M89 71 L91 76 L88 81 L89 83 L88 98 L91 99 L91 104 L88 113 L90 113 L91 116 L86 128 L87 131 L90 132 L90 135 L84 139 L82 137 L83 122 L80 109 L79 97 L82 88 L82 79 L87 78 L85 74 L87 71 Z M76 64 L79 75 L79 89 L75 102 L73 103 L72 98 L75 84 L74 65 Z M107 62 L108 67 L104 70 L103 69 L104 64 Z M102 58 L104 61 L98 80 L97 92 L95 95 L91 95 L90 91 L94 68 L97 59 Z M91 51 L92 54 L94 54 L96 57 L95 61 L86 71 L82 72 L79 68 L78 60 L80 58 L85 57 Z M93 44 L97 45 L95 51 L92 48 Z M85 44 L89 45 L89 48 L87 51 L85 50 L84 47 Z M95 42 L97 41 L98 43 L96 44 Z M95 36 L93 38 L94 41 L93 43 L84 42 L84 38 L86 36 L93 35 Z"/></svg>
