<svg xmlns="http://www.w3.org/2000/svg" width="512" height="512" viewBox="0 0 512 512" aria-hidden="true" focusable="false"><path fill="currentColor" fill-rule="evenodd" clip-rule="evenodd" d="M256 17 L239 60 L213 69 L188 92 L189 99 L181 112 L183 126 L176 129 L175 159 L181 179 L203 187 L207 209 L223 224 L224 236 L213 263 L224 281 L223 290 L207 305 L203 326 L181 335 L174 355 L175 385 L183 387 L180 399 L192 428 L214 445 L240 453 L246 479 L258 496 L274 453 L301 444 L317 430 L331 407 L330 388 L338 385 L336 342 L310 325 L306 304 L292 290 L290 281 L300 259 L295 240 L290 238 L292 223 L304 213 L312 186 L333 178 L338 129 L330 124 L333 114 L317 83 L297 67 L271 60 L268 35 Z M260 472 L263 473 L261 476 L258 475 Z M262 468 L264 467 L265 469 L263 470 Z M266 451 L268 457 L266 460 L263 460 L263 463 L261 464 L258 461 L263 452 Z M248 451 L251 453 L255 460 L253 464 L251 463 L251 461 L248 461 L246 459 L246 453 Z M278 441 L280 440 L281 442 L279 443 Z M281 441 L284 438 L286 439 L283 442 Z M227 439 L230 438 L234 440 L235 442 L233 443 L228 441 Z M263 436 L265 437 L264 442 L262 441 Z M220 434 L223 433 L226 437 L223 438 L220 436 Z M293 432 L294 436 L289 438 L288 436 Z M210 432 L212 431 L213 433 L211 434 Z M214 425 L218 428 L215 432 L212 431 L212 428 Z M198 425 L205 424 L208 429 L203 431 Z M304 420 L306 422 L304 427 L298 433 L295 432 L294 430 L300 422 Z M200 415 L202 419 L196 421 L195 419 Z M264 407 L266 406 L267 408 L265 409 Z M322 404 L323 410 L318 422 L313 427 L313 429 L307 435 L305 435 L303 431 L306 429 L310 421 L312 419 L314 420 L315 417 L313 416 L315 407 Z M190 405 L191 404 L197 405 L199 411 L192 414 L191 413 L192 409 L190 408 Z M310 398 L314 400 L312 410 L309 411 L311 413 L310 417 L306 419 L303 417 L306 406 L306 399 Z M247 397 L249 398 L248 403 L246 402 Z M201 397 L207 400 L207 405 L209 410 L209 414 L207 416 L212 419 L213 421 L212 424 L208 424 L203 416 L205 411 L201 410 L200 406 Z M266 392 L268 393 L267 397 L265 396 Z M252 389 L256 393 L259 393 L260 396 L263 397 L260 432 L257 433 L257 437 L260 438 L258 448 L255 447 L253 434 L253 420 L251 404 L251 390 Z M245 390 L247 389 L248 391 L246 392 Z M191 389 L196 391 L192 398 L189 396 Z M260 389 L262 388 L263 390 L261 391 Z M319 387 L323 388 L324 394 L322 398 L319 396 L318 392 Z M314 386 L317 385 L318 388 L315 389 Z M195 384 L197 383 L199 387 L197 388 Z M325 382 L327 383 L326 389 L323 388 Z M255 383 L257 382 L259 385 L256 387 Z M242 382 L248 380 L249 384 L244 385 Z M330 380 L332 379 L333 381 L331 382 Z M271 378 L272 384 L266 385 L264 381 L265 380 L269 381 L269 379 Z M183 378 L184 380 L181 383 L180 381 Z M322 377 L324 376 L325 378 L323 379 Z M251 375 L253 376 L252 379 L249 378 Z M302 374 L305 374 L306 378 L309 379 L309 385 L311 386 L312 391 L309 395 L306 394 L305 385 L301 376 Z M261 374 L263 375 L262 378 L259 377 Z M211 373 L212 377 L209 383 L208 393 L206 396 L204 396 L202 393 L202 383 L205 382 L205 380 L208 377 L208 374 Z M196 373 L197 374 L196 376 L192 376 L193 386 L191 389 L188 389 L186 387 L187 378 L191 373 Z M196 372 L201 371 L202 373 L197 374 Z M309 373 L313 370 L317 374 L314 376 L310 375 Z M262 372 L264 369 L267 370 L266 374 L263 374 Z M298 369 L300 368 L301 370 L299 371 Z M214 367 L216 368 L215 371 L212 370 Z M254 366 L258 366 L260 368 L260 372 L257 375 L253 371 Z M322 364 L324 363 L325 365 L323 366 Z M293 364 L295 363 L296 365 L294 366 Z M190 363 L191 368 L186 369 L185 372 L180 374 L179 372 L181 369 Z M261 363 L263 362 L264 364 L262 365 Z M252 362 L253 364 L251 366 L251 371 L247 372 L246 367 L249 363 Z M212 361 L213 363 L211 367 L207 368 L206 366 L208 362 Z M301 361 L304 360 L308 367 L304 368 L301 364 Z M332 358 L334 360 L334 365 L325 371 L323 368 L327 365 L327 361 Z M196 359 L199 358 L200 362 L197 363 Z M319 358 L321 357 L322 359 L320 360 Z M191 358 L193 357 L194 359 L192 360 Z M308 359 L309 356 L313 357 L311 360 Z M218 357 L220 356 L221 358 L219 359 Z M202 357 L205 356 L206 358 L203 359 Z M293 356 L296 355 L297 358 L294 359 Z M326 355 L328 354 L329 356 L327 357 Z M248 355 L250 354 L251 357 L249 358 Z M186 354 L187 355 L186 365 L185 366 L182 364 L180 365 L179 364 L180 359 Z M251 354 L253 353 L254 355 L252 356 Z M314 352 L319 351 L320 354 L315 355 Z M194 352 L199 351 L200 353 L195 354 Z M301 350 L303 351 L304 355 L303 357 L299 356 Z M288 350 L290 349 L291 351 L289 352 Z M211 349 L214 352 L213 357 L210 356 Z M187 349 L191 348 L193 351 L191 352 L188 351 Z M255 348 L258 347 L259 349 L256 350 Z M266 347 L268 346 L269 348 L267 349 Z M245 347 L247 346 L248 349 L246 350 Z M215 347 L217 346 L218 348 L216 349 Z M325 345 L326 349 L321 352 L320 350 L322 346 Z M316 344 L318 343 L319 346 L317 347 Z M296 343 L300 342 L301 345 L299 346 Z M325 342 L327 341 L328 343 L326 344 Z M310 342 L312 341 L313 343 L311 344 Z M201 342 L203 341 L204 344 L202 345 Z M325 336 L326 338 L324 339 L323 342 L321 342 L320 339 L323 336 Z M190 336 L193 339 L191 342 L189 341 Z M272 335 L275 335 L284 344 L288 364 L292 368 L292 374 L297 374 L296 380 L300 381 L303 394 L302 409 L298 420 L285 434 L281 433 L275 439 L268 436 L268 433 L271 432 L269 429 L271 392 L275 385 L278 384 L278 381 L275 380 L275 374 L271 372 L267 361 L269 354 L272 353 L272 345 L270 343 L270 337 Z M255 338 L256 335 L260 336 L258 339 Z M237 335 L243 337 L243 343 L238 350 L241 351 L242 358 L246 359 L243 374 L236 382 L242 389 L245 435 L240 438 L236 438 L233 433 L227 433 L225 427 L222 428 L218 424 L211 407 L211 390 L214 380 L218 374 L221 375 L219 371 L225 365 L227 358 L231 356 L228 354 L229 345 L234 344 L231 339 Z M208 336 L211 335 L213 341 L216 341 L217 343 L214 345 L209 344 L207 342 L209 340 Z M289 334 L291 333 L294 336 L294 338 L291 339 Z M284 333 L286 334 L289 340 L288 344 L285 341 L285 338 L283 335 Z M230 332 L231 334 L228 339 L227 345 L225 346 L224 342 L226 336 Z M218 332 L223 336 L222 340 L217 334 Z M309 332 L311 331 L312 333 L310 334 Z M259 332 L262 331 L263 333 L260 334 Z M225 331 L226 333 L223 336 L222 334 Z M270 330 L272 329 L273 331 L271 332 Z M209 332 L210 329 L215 330 L212 335 Z M301 327 L304 329 L307 335 L306 340 L301 339 L301 334 L299 331 Z M264 326 L266 325 L267 327 L265 328 Z M247 325 L251 327 L250 332 L246 328 Z M290 323 L295 322 L296 325 L291 326 Z M284 325 L282 329 L279 330 L274 329 L275 325 L278 322 Z M234 322 L236 322 L239 326 L236 330 L231 328 Z M217 325 L219 322 L223 323 L220 326 Z M301 322 L305 321 L306 324 L302 325 Z M258 320 L263 319 L264 322 L261 323 Z M252 319 L256 321 L253 325 L250 323 Z M212 319 L214 318 L215 320 L213 321 Z M280 317 L282 316 L283 318 L281 319 Z M285 316 L287 315 L288 317 L286 318 Z M246 316 L248 315 L249 318 L247 319 Z M274 313 L276 312 L277 314 L275 315 Z M237 312 L240 311 L241 313 L238 314 Z M224 311 L226 311 L228 314 L227 318 L224 316 L223 313 Z M288 309 L290 310 L289 314 L286 312 Z M217 310 L219 309 L220 311 L218 312 Z M276 308 L285 307 L286 308 L285 313 L281 314 Z M210 308 L212 307 L213 309 L211 310 Z M237 307 L240 306 L241 309 L239 310 Z M268 305 L270 306 L269 311 L267 310 Z M223 306 L225 305 L226 308 L224 309 Z M299 302 L301 303 L301 305 L299 306 L298 311 L303 313 L302 315 L297 314 L293 310 L293 307 L296 306 L296 304 Z M286 303 L288 302 L290 306 L288 307 Z M224 303 L226 302 L227 304 L225 305 Z M285 300 L287 299 L288 301 L286 302 Z M216 299 L218 300 L217 305 L213 303 Z M293 297 L295 296 L297 299 L295 300 Z M278 296 L284 302 L281 305 L275 304 L275 299 Z M256 296 L258 296 L261 301 L260 306 L265 307 L264 310 L258 317 L255 317 L253 315 L254 313 L253 299 Z M239 294 L240 297 L238 304 L235 305 L236 310 L233 312 L227 306 L229 301 L234 295 Z M223 294 L225 296 L222 301 L218 300 L217 298 Z M250 290 L255 289 L256 292 L251 293 Z M268 289 L271 288 L273 291 L269 292 Z M262 287 L263 292 L259 293 L258 291 Z M239 289 L242 287 L245 288 L246 291 L241 292 Z M286 285 L285 289 L277 291 L274 290 L275 286 L278 286 L281 284 Z M227 287 L230 284 L233 284 L235 286 L235 289 L231 290 L228 289 Z M264 282 L266 281 L267 284 L265 285 Z M273 281 L275 280 L276 282 L274 283 Z M253 273 L255 272 L256 275 L254 276 Z M258 274 L259 271 L263 272 L261 275 Z M239 273 L243 271 L245 274 L240 275 Z M281 269 L283 268 L285 272 L282 273 Z M243 266 L247 265 L248 268 L245 269 Z M235 265 L237 269 L233 271 L232 273 L229 273 L228 269 L233 268 L233 266 Z M274 264 L277 262 L278 265 L281 266 L282 268 L281 269 L275 268 Z M233 259 L234 262 L231 264 L230 262 Z M279 259 L281 258 L282 260 L280 261 Z M242 254 L246 255 L245 263 L241 260 Z M286 253 L288 254 L288 257 L291 258 L288 261 L286 261 L283 258 L283 256 Z M268 253 L272 254 L271 263 L267 262 Z M231 253 L233 252 L234 254 L232 255 Z M280 252 L282 251 L283 253 L281 254 Z M225 251 L230 255 L230 259 L227 261 L225 261 L222 258 Z M283 249 L285 248 L286 250 L284 251 Z M244 249 L247 248 L248 250 L245 251 Z M256 247 L258 247 L263 253 L263 255 L261 256 L261 259 L264 260 L264 263 L260 267 L256 267 L251 264 L252 256 L250 254 L252 252 L255 252 Z M262 246 L264 244 L267 245 L266 248 L263 248 Z M247 244 L249 243 L250 245 L248 246 Z M227 242 L231 241 L237 246 L237 249 L235 250 L230 245 L228 245 Z M286 243 L279 250 L273 248 L280 240 L283 240 Z M267 239 L273 238 L274 241 L270 243 Z M239 239 L242 238 L243 240 L240 241 Z M257 235 L261 240 L253 244 L251 241 Z M273 231 L275 230 L276 232 L274 233 Z M263 230 L266 229 L267 232 L265 233 Z M278 227 L281 226 L282 224 L286 225 L285 230 L279 229 Z M239 224 L238 227 L232 230 L228 229 L231 224 L234 223 Z M268 223 L271 222 L272 225 L270 226 Z M258 222 L260 221 L261 223 L259 224 Z M254 220 L255 222 L252 225 L251 222 Z M218 216 L221 215 L222 217 L219 218 Z M298 208 L300 212 L293 219 L290 220 L289 217 L295 213 L295 210 Z M289 206 L290 209 L287 212 L286 208 Z M248 206 L250 205 L251 208 L249 209 Z M224 204 L226 205 L227 209 L226 211 L223 208 Z M300 204 L302 203 L303 206 L301 207 Z M237 200 L240 199 L241 201 L238 202 Z M229 199 L232 199 L237 203 L235 205 L235 208 L238 209 L239 214 L238 216 L232 215 L229 213 L232 210 L227 207 Z M304 199 L303 201 L299 202 L298 205 L294 204 L296 200 L300 198 Z M284 198 L286 203 L285 205 L283 205 L283 208 L285 209 L284 213 L279 218 L273 219 L272 217 L274 216 L275 211 L279 209 L279 207 L277 207 L276 204 L279 200 Z M211 198 L216 199 L220 203 L220 206 L218 207 L217 212 L214 212 L210 206 L212 203 L215 204 L215 202 L210 200 Z M285 197 L288 196 L290 201 L287 202 Z M266 196 L269 199 L268 202 L266 202 L264 199 Z M256 196 L258 196 L261 199 L265 206 L264 208 L261 208 L261 213 L259 215 L254 214 L252 211 L255 205 Z M249 196 L250 198 L247 204 L245 205 L244 204 L245 197 Z M227 195 L228 198 L227 201 L225 202 L224 198 Z M283 195 L282 197 L278 198 L276 201 L273 200 L276 196 L280 194 Z M230 195 L232 194 L233 196 L231 197 Z M269 192 L273 191 L274 194 L271 196 Z M258 191 L263 190 L264 193 L260 196 Z M305 188 L306 189 L305 193 L303 195 L299 195 L298 193 L301 191 L301 189 Z M252 188 L256 191 L256 193 L253 196 L251 195 L250 192 Z M209 188 L211 189 L210 193 L208 192 Z M290 188 L294 187 L296 190 L291 191 Z M218 188 L222 187 L223 190 L220 191 Z M256 185 L259 186 L257 189 L254 188 Z M274 186 L276 184 L281 184 L283 188 L280 191 L278 191 Z M231 189 L232 184 L237 184 L239 186 L236 191 L233 191 Z M265 183 L267 184 L266 187 L263 186 Z M251 182 L252 184 L249 187 L247 187 L246 184 L248 182 Z M209 183 L213 181 L215 184 L210 185 Z M287 181 L289 180 L290 182 L288 183 Z M251 181 L253 180 L254 182 L252 183 Z M223 181 L225 180 L226 182 L224 183 Z M262 178 L263 180 L260 182 L259 180 Z M302 176 L304 177 L306 182 L303 185 L299 185 L298 183 L301 180 Z M293 174 L294 177 L290 180 L289 179 L290 175 Z M255 175 L257 174 L258 177 L256 178 Z M210 174 L212 175 L211 179 L209 178 Z M221 173 L223 174 L222 178 L220 177 Z M288 171 L289 174 L287 178 L285 179 L284 178 L285 173 Z M207 172 L209 171 L210 173 L208 174 Z M190 172 L192 171 L193 174 L191 175 Z M322 170 L324 171 L325 175 L324 177 L320 174 Z M309 170 L312 169 L313 172 L311 173 Z M303 170 L306 169 L307 171 L304 172 Z M225 169 L228 171 L230 178 L229 180 L227 179 L224 172 Z M202 169 L204 170 L203 174 L201 173 Z M300 168 L301 171 L297 174 L296 170 Z M213 168 L214 167 L217 168 L218 171 L215 172 Z M194 167 L196 166 L197 169 L195 170 Z M326 165 L328 166 L329 169 L328 171 L325 170 Z M188 165 L189 167 L186 169 L185 167 Z M314 165 L316 164 L317 166 L315 167 Z M265 165 L268 164 L269 168 L267 169 Z M196 165 L198 164 L199 166 L197 167 Z M255 164 L258 163 L259 165 L256 166 Z M244 164 L246 163 L248 167 L245 168 Z M190 163 L192 162 L193 164 L191 165 Z M313 160 L319 159 L320 161 L314 162 Z M299 160 L302 159 L303 163 L301 164 Z M211 157 L214 158 L214 164 L212 166 L210 165 Z M309 156 L311 155 L312 157 L310 158 Z M248 156 L250 155 L251 158 L249 159 Z M293 155 L296 154 L297 157 L294 158 Z M253 155 L255 154 L256 156 L254 157 Z M217 155 L220 154 L221 157 L218 158 Z M202 155 L204 154 L205 156 L203 157 Z M313 154 L316 153 L317 156 L314 157 Z M302 154 L304 153 L305 155 L303 156 Z M249 149 L252 148 L253 150 L250 151 Z M188 149 L190 148 L191 150 L189 151 Z M207 148 L210 147 L212 150 L208 151 Z M304 145 L307 147 L305 151 L302 150 Z M324 144 L327 144 L334 150 L334 153 L332 156 L327 154 L327 149 L325 149 L324 151 L322 150 L322 147 Z M299 144 L300 147 L296 149 L295 147 Z M189 143 L190 146 L186 149 L185 152 L181 154 L179 152 L179 148 Z M246 143 L250 142 L251 146 L247 147 Z M263 142 L266 141 L267 145 L264 146 Z M319 141 L321 140 L322 142 L320 143 Z M331 140 L333 139 L334 142 L332 143 Z M210 140 L213 139 L217 146 L214 147 Z M198 140 L201 139 L202 142 L199 143 Z M179 140 L181 139 L183 142 L180 143 Z M301 139 L304 138 L305 140 L302 141 Z M257 138 L259 139 L261 144 L259 147 L255 147 L253 145 L253 142 Z M318 138 L315 144 L310 142 L316 137 Z M259 137 L263 136 L264 138 L260 139 Z M249 136 L253 135 L254 137 L251 140 Z M330 132 L332 131 L333 134 L331 135 Z M303 133 L305 131 L311 131 L312 135 L311 136 L307 135 L305 137 Z M191 131 L196 137 L196 139 L193 142 L189 139 Z M180 132 L182 131 L184 135 L182 136 Z M264 130 L266 128 L271 128 L272 134 L270 135 L269 132 L265 134 Z M242 129 L247 128 L249 132 L248 133 L243 132 Z M255 128 L258 127 L260 130 L256 132 Z M195 127 L197 126 L198 128 L196 129 Z M323 125 L327 126 L327 133 L325 138 L320 137 L320 133 Z M187 125 L192 126 L189 132 L186 131 Z M315 124 L318 125 L317 130 L314 127 Z M190 121 L195 120 L196 122 L192 124 Z M320 117 L325 118 L322 125 L318 124 L318 120 Z M307 117 L310 118 L311 127 L308 129 L305 128 Z M254 118 L257 117 L258 119 L255 120 Z M187 113 L189 112 L190 114 L188 115 Z M317 111 L319 110 L320 112 L318 113 Z M248 109 L251 110 L252 117 L251 127 L248 125 L248 122 L246 121 L246 113 Z M263 101 L266 102 L268 124 L265 126 L260 125 L262 122 L262 120 L260 119 L261 103 Z M248 97 L250 98 L251 104 L250 107 L247 106 Z M318 94 L320 95 L323 103 L322 109 L315 107 L313 97 Z M262 90 L264 89 L265 92 L263 93 Z M303 87 L306 89 L311 98 L314 110 L313 114 L306 112 L305 102 L303 98 L305 94 L300 91 L300 89 Z M212 86 L214 90 L211 95 L207 96 L207 98 L209 99 L207 113 L204 114 L204 117 L207 118 L208 127 L206 128 L206 131 L209 131 L211 134 L208 137 L207 134 L201 132 L202 122 L200 119 L201 111 L200 107 L206 91 L210 86 Z M201 85 L204 91 L202 95 L197 98 L197 100 L199 101 L199 105 L197 108 L191 109 L190 105 L192 104 L191 102 L192 98 L199 86 Z M305 84 L310 82 L316 88 L317 91 L311 93 Z M203 82 L205 81 L206 83 L204 84 Z M296 80 L298 80 L301 83 L299 86 L297 86 L294 83 Z M219 79 L220 82 L218 84 L215 84 L214 82 L217 79 Z M237 75 L245 78 L242 125 L236 129 L236 132 L243 140 L243 146 L246 151 L245 157 L240 159 L241 164 L238 165 L244 171 L240 179 L232 176 L235 173 L230 170 L232 164 L228 162 L224 148 L225 145 L219 143 L221 139 L218 140 L215 136 L211 123 L211 105 L216 92 L229 79 L233 80 Z M269 74 L276 75 L278 79 L280 77 L285 79 L294 87 L300 97 L303 110 L300 132 L296 141 L288 150 L284 167 L280 169 L282 175 L277 176 L275 179 L273 178 L273 173 L270 172 L272 167 L275 166 L275 163 L269 159 L271 155 L268 154 L271 141 L274 140 L275 126 L271 121 L269 87 L271 84 L268 83 Z M284 74 L286 73 L290 75 L291 77 L288 78 Z M231 73 L223 80 L221 79 L223 75 L229 72 Z M280 72 L282 71 L283 73 L281 74 Z M263 71 L265 72 L264 78 L262 77 Z M277 71 L279 70 L280 72 L278 73 Z M256 65 L259 67 L260 96 L259 97 L259 110 L257 113 L254 113 L253 112 L253 81 L257 79 L257 77 L254 76 Z M246 56 L248 55 L251 56 L252 58 L250 60 L247 60 Z M252 51 L255 52 L253 56 L250 54 Z M260 49 L262 50 L262 53 L266 53 L268 56 L266 62 L262 60 L264 57 L261 57 L258 52 Z M252 39 L254 38 L255 40 L253 41 Z M255 29 L257 28 L260 33 L255 34 L254 33 Z"/></svg>
