<svg xmlns="http://www.w3.org/2000/svg" width="512" height="512" viewBox="0 0 512 512" aria-hidden="true" focusable="false"><path fill="currentColor" fill-rule="evenodd" clip-rule="evenodd" d="M251 235 L250 240 L252 240 L253 242 L248 243 L248 246 L250 246 L251 250 L254 251 L261 250 L261 248 L264 245 L264 243 L259 242 L260 240 L262 240 L262 236 L260 235 L258 238 L254 238 Z M262 224 L262 227 L266 230 L273 226 L273 224 L269 225 Z M240 224 L240 227 L246 230 L250 227 L250 225 Z M244 128 L216 143 L201 160 L179 196 L165 233 L147 325 L142 386 L145 433 L150 443 L162 450 L227 463 L286 463 L336 455 L363 442 L370 417 L362 299 L346 229 L323 176 L294 141 L269 128 Z M204 439 L206 438 L209 441 L207 442 Z M160 439 L162 438 L169 441 L226 448 L303 447 L305 445 L343 441 L350 438 L352 439 L352 443 L339 449 L314 453 L306 456 L249 459 L206 456 L198 453 L182 451 L161 444 Z M299 440 L298 442 L290 443 L282 442 L283 440 L289 439 L291 437 L297 438 Z M261 441 L269 437 L271 439 L278 440 L279 442 L278 443 L262 443 Z M234 441 L244 437 L247 440 L250 440 L251 442 L250 443 L235 443 Z M213 440 L215 438 L221 437 L229 440 L230 442 L229 443 L214 442 Z M305 440 L306 438 L312 436 L325 438 L324 440 L306 441 Z M187 438 L199 436 L202 437 L204 440 L196 441 L188 440 Z M329 436 L331 435 L332 437 L330 438 Z M180 436 L182 435 L183 437 L181 438 Z M333 436 L336 433 L343 434 L342 436 L338 437 Z M170 434 L176 433 L179 436 L174 437 L171 436 Z M246 433 L247 432 L264 432 L265 435 L262 437 L254 438 L248 436 Z M289 431 L290 430 L304 430 L308 434 L304 436 L293 435 Z M271 433 L281 430 L286 435 L283 437 L277 437 L272 435 Z M226 435 L231 430 L241 433 L240 435 L235 437 L229 437 Z M204 434 L207 430 L220 430 L221 431 L220 434 L215 436 L207 436 Z M331 430 L329 433 L318 434 L313 432 L314 430 L325 428 Z M183 430 L186 428 L196 429 L197 432 L193 434 L187 434 L184 433 Z M336 428 L342 423 L347 424 L349 426 L346 429 Z M163 426 L165 424 L170 423 L176 428 L166 429 Z M284 414 L285 420 L280 426 L277 427 L267 426 L269 423 L269 417 L273 413 L280 411 Z M252 412 L258 411 L264 416 L265 423 L261 427 L251 427 L247 423 L248 416 Z M228 414 L231 411 L235 411 L239 413 L243 417 L243 423 L245 426 L244 427 L232 426 L227 421 Z M302 410 L305 414 L304 422 L299 426 L288 427 L287 426 L288 419 L295 412 Z M209 411 L212 410 L217 412 L224 419 L225 426 L217 427 L211 425 L207 421 L207 414 Z M324 408 L327 413 L327 418 L325 422 L317 426 L308 426 L307 424 L310 416 L317 410 Z M187 409 L189 408 L199 413 L205 425 L195 426 L189 424 L185 418 L185 413 Z M259 407 L260 406 L276 406 L277 408 L266 413 L263 410 L261 410 Z M236 407 L237 406 L252 406 L253 408 L246 413 L244 413 L239 409 L237 409 Z M216 407 L217 406 L229 406 L230 408 L225 413 L223 413 Z M298 406 L297 408 L292 410 L289 413 L284 410 L285 406 L294 405 Z M196 406 L197 405 L206 406 L207 408 L202 412 L197 409 Z M345 404 L346 410 L344 411 L343 416 L338 421 L331 424 L329 421 L331 420 L331 415 L333 411 L338 406 Z M317 405 L317 407 L311 411 L307 411 L304 407 L305 405 L314 404 Z M167 404 L174 406 L179 411 L181 418 L184 422 L183 424 L179 424 L168 415 L166 409 Z M178 404 L184 403 L185 404 L184 408 L181 409 L178 406 Z M334 402 L335 403 L334 406 L331 409 L329 409 L327 404 Z M169 400 L172 399 L173 401 L170 402 Z M343 399 L342 402 L337 404 L335 403 L341 398 Z M254 399 L253 402 L197 402 L196 401 L198 398 L207 399 L210 397 L225 396 L235 393 L236 391 L242 391 L245 394 L252 394 Z M310 372 L315 371 L316 373 L311 374 Z M308 373 L307 375 L302 375 L299 377 L297 376 L295 378 L275 382 L270 385 L266 385 L262 387 L257 386 L256 379 L264 377 L269 372 L272 371 L284 372 L302 370 Z M267 368 L263 373 L257 372 L258 370 L265 367 Z M342 378 L341 391 L331 398 L313 399 L311 401 L259 402 L256 397 L256 393 L260 390 L281 386 L299 380 L320 378 L321 373 L316 367 L305 367 L300 365 L307 359 L332 367 Z M168 381 L170 375 L178 368 L206 359 L215 367 L190 368 L185 371 L184 374 L191 372 L214 372 L249 377 L253 381 L254 388 L248 390 L234 388 L223 393 L211 393 L205 396 L197 395 L192 399 L176 397 L170 392 Z M290 317 L292 318 L294 330 L294 339 L291 342 L288 341 L287 335 L288 321 Z M221 317 L223 318 L224 322 L224 338 L222 342 L217 338 L219 321 Z M303 275 L310 286 L315 322 L315 343 L310 352 L285 367 L268 368 L267 363 L258 362 L269 358 L281 359 L300 339 L307 336 L298 334 L295 314 L297 292 L295 292 L284 321 L286 348 L279 355 L233 356 L226 348 L228 320 L245 316 L256 303 L258 304 L256 351 L277 350 L275 314 L280 291 L290 271 Z M283 267 L286 271 L280 281 L273 301 L272 345 L271 346 L265 345 L260 348 L259 340 L261 338 L261 312 L265 291 L275 270 L278 267 Z M255 263 L258 262 L259 264 L256 265 Z M260 262 L262 261 L263 263 L261 264 Z M249 262 L252 261 L253 263 L250 264 Z M268 258 L273 266 L271 270 L254 272 L241 268 L249 274 L266 272 L269 274 L253 302 L240 315 L228 316 L215 292 L217 312 L214 334 L205 336 L212 339 L231 359 L243 358 L248 360 L251 365 L250 367 L238 366 L231 370 L206 355 L197 344 L197 319 L203 282 L215 272 L239 266 L244 258 L249 261 L246 265 L251 267 L264 266 L263 261 Z M284 227 L285 231 L284 234 L282 235 L281 230 Z M228 227 L231 229 L230 234 L227 231 Z M284 222 L286 221 L287 223 L285 224 Z M283 207 L284 209 L281 211 L280 209 Z M242 203 L252 203 L255 205 L260 203 L270 203 L274 206 L277 212 L276 217 L271 213 L264 213 L259 218 L271 217 L278 220 L278 232 L274 245 L261 257 L251 257 L247 255 L240 248 L235 237 L234 221 L242 217 L253 218 L248 213 L241 213 L237 217 L235 216 L237 208 Z M233 203 L235 202 L236 204 L234 205 Z M254 198 L257 197 L258 200 L255 201 Z M270 197 L272 196 L273 199 L271 200 Z M239 197 L241 196 L242 199 L240 200 Z M262 196 L265 195 L266 198 L263 199 Z M248 195 L250 196 L249 200 L246 198 Z M270 190 L272 189 L273 192 L271 193 Z M254 190 L257 189 L258 192 L255 193 Z M239 190 L241 189 L242 192 L240 193 Z M262 189 L265 188 L266 191 L263 192 Z M246 189 L249 188 L250 191 L247 192 Z M255 183 L257 182 L258 184 L256 185 Z M243 183 L245 182 L246 184 L244 185 Z M254 177 L257 176 L258 178 L255 179 Z M256 163 L258 165 L258 169 L255 172 L251 172 L249 170 L249 167 Z M255 154 L257 153 L258 156 L256 157 Z M236 136 L261 132 L288 143 L316 174 L332 205 L347 250 L362 337 L365 415 L359 438 L357 426 L347 419 L351 403 L344 394 L347 377 L337 365 L313 356 L319 345 L313 281 L298 267 L274 261 L274 255 L285 257 L290 219 L287 199 L273 185 L257 141 L239 185 L226 198 L222 219 L228 258 L238 254 L239 260 L215 267 L201 277 L193 319 L193 345 L200 355 L165 373 L163 387 L167 395 L161 400 L164 419 L155 426 L154 438 L149 432 L150 338 L166 247 L195 176 L223 144 Z M255 77 L217 106 L189 135 L165 171 L150 205 L126 299 L119 363 L119 431 L123 448 L135 464 L173 479 L238 487 L334 480 L371 468 L389 448 L394 390 L385 292 L370 228 L346 169 L318 129 Z M267 479 L269 478 L271 481 L268 482 Z M242 479 L244 478 L246 482 L244 483 Z M198 476 L202 475 L203 477 L199 478 Z M271 473 L276 472 L282 479 L285 478 L289 479 L290 481 L289 482 L277 481 L271 476 Z M265 476 L264 479 L260 482 L252 482 L247 477 L250 473 L252 473 L254 479 L258 479 L260 472 L263 473 Z M242 473 L242 475 L235 481 L231 482 L221 481 L222 479 L229 479 L235 472 Z M282 472 L289 471 L290 474 L283 476 Z M222 472 L229 471 L230 474 L223 475 Z M301 469 L303 471 L302 476 L298 480 L292 481 L291 479 Z M211 469 L221 479 L220 481 L214 480 L210 476 L209 471 Z M309 470 L311 468 L314 468 L318 472 L324 475 L325 477 L318 478 L315 476 L311 479 L309 476 L312 475 L312 473 Z M203 470 L202 472 L199 473 L198 476 L194 478 L188 477 L191 473 L195 472 L197 469 L201 468 Z M330 465 L336 464 L337 467 L331 468 Z M174 465 L182 464 L183 466 L181 468 L176 468 Z M349 461 L348 469 L342 474 L330 475 L320 469 L320 467 L323 466 L327 469 L332 469 L334 472 L337 472 L341 468 L342 463 L345 460 Z M163 461 L167 460 L170 463 L171 468 L176 472 L181 472 L189 466 L191 466 L192 469 L183 475 L174 475 L168 473 L165 470 Z M129 450 L132 449 L133 453 L131 454 Z M381 448 L383 449 L382 453 L380 452 Z M374 447 L377 452 L377 455 L375 456 L375 458 L369 461 L361 458 L358 459 L358 461 L360 461 L362 464 L359 468 L352 471 L351 468 L354 465 L356 465 L356 463 L352 462 L354 458 L360 455 L361 453 L364 453 L368 456 L371 455 L372 452 L369 452 L368 449 L370 447 Z M137 448 L143 447 L145 449 L145 451 L141 453 L144 456 L148 455 L149 453 L152 453 L153 455 L155 455 L160 460 L160 462 L156 463 L156 465 L159 465 L161 467 L161 470 L158 471 L152 467 L151 463 L153 461 L153 458 L144 461 L141 460 L137 456 L136 453 Z M379 415 L386 422 L388 427 L388 438 L383 444 L377 444 L374 441 L374 437 L377 432 L380 433 L380 437 L383 436 L383 428 L378 421 Z M123 417 L124 414 L127 415 L125 418 Z M385 414 L387 413 L389 417 L387 418 Z M132 413 L134 414 L134 421 L129 428 L129 436 L133 438 L132 433 L135 432 L138 437 L138 442 L134 445 L129 444 L125 440 L124 436 L125 424 L130 419 Z M386 403 L388 406 L388 410 L381 412 L380 407 Z M124 405 L126 403 L129 404 L133 410 L125 412 L123 410 Z M131 382 L134 383 L133 391 L131 390 L129 386 Z M381 381 L383 386 L379 390 L378 383 Z M378 365 L387 374 L389 380 L389 393 L380 402 L378 401 L378 398 L386 389 L386 380 L377 371 Z M134 365 L135 371 L127 379 L126 382 L126 390 L130 393 L134 399 L134 401 L132 402 L123 393 L123 380 L125 374 Z M382 351 L384 351 L387 356 L386 362 L388 363 L387 368 L383 365 L383 358 L381 358 L380 360 L378 359 L378 354 Z M130 351 L134 354 L136 358 L133 361 L131 360 L131 358 L129 358 L129 365 L125 368 L124 367 L126 353 Z M376 331 L379 333 L377 337 L374 335 Z M373 314 L382 321 L386 329 L386 341 L377 350 L375 349 L375 341 L378 337 L382 335 L381 327 L372 318 Z M139 314 L140 318 L132 326 L130 331 L131 337 L134 337 L133 333 L135 331 L138 333 L137 349 L135 350 L126 341 L126 329 L131 320 Z M380 310 L383 311 L382 315 L378 313 Z M129 315 L129 311 L133 310 L134 313 L131 316 Z M378 300 L382 306 L381 307 L377 306 L377 308 L374 310 L372 308 L372 303 Z M134 300 L137 300 L140 303 L139 309 L136 306 L133 308 L130 306 Z M368 277 L372 279 L372 285 L369 289 L367 288 L366 281 Z M142 277 L146 279 L144 289 L140 285 L140 279 Z M148 260 L149 261 L148 266 L143 271 L140 272 L137 278 L137 286 L143 296 L141 298 L134 291 L133 280 L134 275 L137 272 L137 270 Z M363 259 L375 270 L375 272 L378 275 L379 289 L378 292 L372 297 L370 296 L370 293 L375 286 L375 278 L373 273 L369 271 L363 264 L362 261 Z M365 248 L368 248 L372 252 L371 257 L374 260 L373 262 L368 259 L368 255 L364 256 L362 254 Z M147 248 L150 254 L148 256 L144 255 L144 259 L141 262 L139 262 L138 260 L141 257 L140 252 L144 248 Z M359 222 L364 225 L367 234 L366 240 L361 247 L358 246 L358 243 L362 237 L363 230 L360 227 L358 227 L359 230 L358 232 L354 230 L355 224 Z M152 222 L158 225 L158 230 L156 232 L153 231 L154 227 L150 229 L150 236 L152 237 L154 242 L153 247 L151 247 L148 244 L145 237 L146 229 Z M359 216 L361 215 L362 217 L360 218 Z M150 216 L152 215 L153 217 L151 218 Z M347 194 L351 194 L355 198 L358 206 L357 215 L353 221 L350 219 L350 213 L352 210 L352 202 L349 201 L348 205 L344 203 L344 197 Z M166 194 L168 196 L169 201 L165 205 L163 204 L163 200 L160 201 L160 210 L162 213 L162 219 L159 220 L154 213 L154 206 L157 198 L161 194 Z M178 174 L180 177 L177 181 L175 181 L173 178 Z M334 173 L337 175 L338 178 L337 181 L335 181 L333 178 Z M340 170 L342 171 L346 178 L346 187 L342 193 L337 187 L337 185 L341 182 L339 173 Z M171 170 L173 171 L172 174 L173 178 L171 179 L171 181 L175 185 L175 188 L172 192 L168 190 L166 184 L168 175 Z M181 170 L183 169 L184 171 L182 172 Z M189 161 L188 164 L180 166 L174 171 L172 170 L172 168 L176 164 L185 160 Z M321 159 L322 158 L327 159 L337 164 L340 167 L340 170 L338 171 L332 166 L324 164 Z M188 159 L190 158 L191 160 L189 161 Z M299 134 L301 133 L302 135 L300 136 Z M210 136 L211 133 L214 134 L212 137 Z M314 132 L318 135 L317 139 L323 141 L328 147 L329 150 L328 156 L325 155 L324 147 L321 145 L317 145 L317 148 L320 149 L319 152 L313 149 L311 141 Z M199 131 L201 140 L200 148 L196 152 L194 152 L192 149 L196 148 L196 146 L192 143 L187 149 L187 155 L183 157 L181 152 L183 151 L184 147 L190 140 L195 140 L194 135 Z M296 127 L299 126 L301 130 L298 131 Z M211 127 L217 126 L220 130 L216 132 L213 131 Z M238 125 L270 124 L299 140 L332 183 L348 222 L370 326 L374 412 L370 440 L344 457 L285 467 L205 465 L152 450 L140 433 L142 327 L164 222 L197 157 L219 135 Z M298 115 L304 119 L310 128 L310 136 L308 142 L305 139 L305 130 L303 125 L297 121 Z M214 115 L215 121 L208 126 L207 140 L204 143 L202 134 L203 126 L211 116 Z M286 105 L292 110 L294 118 L292 124 L289 126 L285 126 L279 123 L284 117 L286 117 L287 120 L289 120 L289 116 L285 113 Z M224 105 L226 106 L227 113 L223 116 L223 120 L225 120 L225 118 L228 117 L233 122 L232 124 L228 126 L223 126 L218 121 L219 112 Z M255 104 L257 104 L262 110 L262 113 L258 118 L254 118 L250 114 L250 110 Z M266 99 L269 100 L271 105 L271 110 L267 117 L264 116 L266 107 L265 101 Z M244 99 L247 100 L246 103 L248 116 L247 118 L242 114 L241 104 Z M252 100 L255 96 L257 96 L261 102 L260 103 L257 101 L253 102 Z M238 94 L242 95 L238 104 L238 111 L241 118 L240 120 L235 119 L231 113 L231 105 L233 99 Z M271 93 L273 93 L278 98 L281 106 L280 115 L275 120 L271 119 L274 111 L273 101 L270 96 Z M247 93 L248 90 L255 83 L257 83 L263 89 L265 96 L262 97 L257 91 L255 91 L248 98 Z M248 17 L233 24 L219 44 L219 67 L230 83 L172 141 L148 185 L133 225 L111 343 L110 440 L117 462 L127 472 L160 486 L230 496 L307 494 L373 479 L395 462 L403 433 L401 339 L386 249 L365 187 L331 129 L282 83 L312 91 L318 77 L294 61 L292 42 L279 24 L264 17 Z M272 75 L274 74 L279 79 L277 80 Z M255 71 L308 111 L341 152 L370 213 L387 277 L398 376 L394 454 L376 472 L328 486 L278 491 L184 486 L134 471 L123 462 L116 445 L114 384 L119 314 L142 213 L158 175 L187 130 L216 100 Z M256 57 L259 54 L264 54 L276 58 L277 60 L282 61 L289 65 L292 65 L303 72 L307 73 L308 75 L310 75 L313 78 L313 83 L310 86 L307 86 L283 73 L268 68 L267 66 L258 63 L256 60 Z M260 40 L264 42 L269 47 L268 50 L265 49 L255 50 L251 57 L251 61 L254 66 L251 69 L249 69 L243 64 L241 60 L241 51 L248 42 L253 40 Z M274 27 L284 37 L287 43 L289 58 L287 59 L277 54 L274 46 L268 39 L261 35 L251 35 L244 39 L236 49 L236 61 L244 73 L234 80 L227 72 L223 60 L224 45 L228 37 L238 27 L246 23 L261 22 Z"/></svg>
