<svg xmlns="http://www.w3.org/2000/svg" width="512" height="512" viewBox="0 0 512 512" aria-hidden="true" focusable="false"><path fill="currentColor" fill-rule="evenodd" clip-rule="evenodd" d="M356 494 L357 499 L358 499 L357 494 Z M124 498 L122 497 L122 494 L115 495 L115 500 L119 499 L124 500 Z M255 493 L253 496 L251 496 L251 498 L255 498 Z M231 493 L226 494 L228 499 Z M481 491 L478 492 L479 495 L481 494 Z M188 491 L189 495 L194 493 Z M436 490 L434 491 L434 494 L436 493 L437 491 Z M147 490 L144 490 L143 493 L141 494 L142 498 L147 492 Z M132 489 L133 494 L134 494 L134 490 Z M297 488 L299 492 L299 488 Z M330 486 L326 487 L326 489 L331 488 Z M121 486 L121 488 L126 488 L126 486 Z M379 484 L379 486 L382 488 L382 486 Z M215 483 L213 482 L211 485 Z M441 481 L441 483 L444 484 L451 483 L450 481 Z M495 479 L495 482 L497 482 L497 479 Z M355 479 L355 481 L357 481 L357 479 Z M222 478 L226 480 L225 477 Z M197 478 L201 479 L202 483 L205 482 L204 478 L202 477 Z M191 476 L191 478 L194 479 L193 476 Z M339 475 L344 477 L344 475 L342 474 Z M218 472 L217 472 L216 477 L217 477 Z M426 471 L426 473 L429 474 L430 477 L433 476 L433 472 Z M385 469 L382 469 L380 472 L382 473 L383 471 L385 471 Z M372 469 L370 469 L368 474 L371 474 Z M362 469 L358 470 L358 472 L362 471 Z M408 468 L408 470 L412 472 L412 470 Z M175 479 L179 479 L183 477 L184 474 L187 473 L190 474 L193 472 L186 471 L184 472 L183 475 L181 475 L178 473 L178 469 L176 468 Z M225 469 L225 471 L229 471 L232 469 L233 472 L236 470 L238 474 L240 467 L235 468 L232 467 Z M319 454 L321 459 L322 457 Z M42 451 L42 453 L47 453 L47 450 Z M72 448 L67 447 L63 448 L63 450 L67 452 L69 449 Z M327 446 L327 449 L330 449 L330 447 Z M94 446 L94 448 L98 450 L98 448 Z M123 445 L126 453 L128 453 L126 445 Z M133 444 L131 443 L129 444 L129 446 Z M442 441 L441 441 L441 446 L437 447 L437 449 L440 450 L440 453 L444 452 L445 448 L441 447 L443 445 Z M343 441 L340 445 L338 445 L337 448 L335 448 L334 452 L336 450 L343 450 L345 454 L348 455 L348 451 L352 450 L355 444 L353 443 L350 446 L345 446 Z M143 441 L140 445 L145 446 Z M101 439 L101 441 L104 441 L104 439 Z M445 438 L445 440 L448 440 L447 438 Z M399 438 L394 439 L395 442 L394 443 L392 442 L389 445 L390 449 L393 449 L394 447 L398 449 L397 440 Z M413 437 L409 438 L410 440 L409 443 L411 443 Z M351 436 L351 439 L353 439 L353 436 Z M476 435 L478 438 L479 436 Z M143 434 L136 437 L140 438 L143 436 Z M35 434 L40 436 L43 435 L43 433 Z M90 432 L91 435 L90 440 L96 439 L93 437 L93 434 Z M97 429 L96 430 L99 433 Z M459 428 L459 430 L463 430 L463 428 Z M375 433 L375 438 L382 436 L386 437 L386 431 L381 432 L380 428 L379 428 L379 431 Z M35 425 L36 428 L41 427 L41 425 L39 426 L37 424 Z M401 423 L400 424 L402 428 L401 431 L406 434 L406 430 L403 429 L405 424 Z M141 422 L138 423 L137 425 L141 424 Z M68 423 L68 425 L71 424 L72 427 L76 426 L75 423 L71 422 Z M415 421 L415 423 L420 423 L422 426 L425 427 L428 426 L432 431 L431 433 L428 433 L427 431 L425 431 L425 433 L427 434 L426 438 L424 436 L420 437 L427 439 L430 435 L433 435 L434 436 L432 438 L433 443 L431 444 L431 446 L434 447 L435 444 L438 444 L438 442 L434 441 L438 435 L437 428 L434 427 L433 425 L428 426 L427 423 L425 422 L422 423 L421 421 Z M407 420 L407 423 L410 424 L411 430 L415 432 L417 429 L414 425 L409 423 L409 420 Z M120 420 L119 424 L116 426 L120 427 L121 430 L129 431 L129 429 L127 428 L127 423 L126 422 L122 423 Z M452 417 L450 422 L453 422 L455 425 L458 424 L456 422 L456 419 Z M96 414 L94 414 L94 417 L96 416 Z M46 412 L44 412 L45 416 Z M454 411 L454 414 L456 415 L457 413 L456 411 Z M382 411 L383 415 L386 414 L386 412 Z M51 409 L51 412 L55 411 L55 409 Z M441 408 L438 409 L438 411 L440 411 Z M59 405 L58 407 L60 408 L60 411 L62 411 L61 406 Z M195 404 L195 410 L200 410 L200 408 Z M450 403 L448 404 L447 410 L452 409 L452 407 L450 406 Z M461 401 L457 400 L454 402 L454 404 L460 404 Z M93 395 L90 401 L94 399 Z M388 392 L386 392 L385 395 L386 397 Z M429 397 L430 398 L432 396 L435 396 L436 394 L433 391 L430 391 L431 395 Z M123 391 L127 400 L126 401 L121 400 L121 405 L123 405 L124 408 L130 409 L131 408 L126 406 L127 404 L126 401 L133 399 L134 396 L132 396 L131 393 Z M408 390 L407 393 L411 394 L415 399 L412 403 L409 401 L405 403 L401 409 L405 410 L405 406 L411 404 L415 412 L417 410 L421 411 L421 409 L416 407 L418 404 L415 402 L415 400 L418 397 L415 394 L413 394 L410 390 Z M404 382 L409 383 L408 381 L405 380 Z M245 379 L242 384 L248 385 L247 379 Z M27 381 L28 385 L33 383 L34 385 L38 387 L42 386 L44 390 L48 388 L50 392 L49 397 L51 396 L54 397 L51 390 L47 386 L44 385 L45 380 L41 381 L38 380 L36 383 L34 383 L33 381 L35 379 L30 378 L32 382 L30 383 Z M118 377 L119 380 L122 381 L123 376 Z M380 374 L380 378 L388 379 L388 378 L382 377 Z M237 374 L233 377 L236 377 Z M226 371 L226 373 L229 374 L231 373 L231 372 Z M41 369 L39 369 L38 372 L39 374 L40 374 Z M462 367 L467 369 L467 367 L464 366 Z M453 365 L453 367 L457 366 Z M93 370 L90 367 L84 368 L83 365 L80 364 L75 369 L75 378 L78 379 L79 376 L84 377 L89 374 L87 372 L88 370 L91 371 Z M429 363 L426 366 L429 366 Z M437 360 L438 364 L434 365 L436 376 L438 375 L439 371 L442 374 L444 371 L451 371 L452 375 L454 374 L455 371 L452 371 L451 369 L447 369 L445 365 L441 364 Z M410 360 L409 364 L411 364 Z M109 359 L110 363 L112 363 L111 359 Z M51 355 L52 357 L54 357 Z M428 352 L428 356 L429 358 L431 358 L431 356 L434 353 Z M411 348 L410 352 L413 352 L414 349 Z M85 349 L84 358 L86 358 L88 352 L90 351 L93 356 L90 357 L89 360 L94 359 L97 363 L95 367 L98 368 L99 371 L102 371 L103 374 L107 374 L109 377 L111 369 L107 366 L106 363 L102 362 L103 360 L106 360 L104 356 L102 356 L100 358 L100 361 L98 362 L97 357 L94 355 L96 347 L90 349 L89 351 Z M205 341 L204 343 L207 346 L209 346 Z M65 341 L63 342 L65 355 L62 356 L59 351 L57 351 L57 355 L59 359 L54 361 L57 363 L58 360 L63 360 L65 358 L66 363 L68 363 L70 366 L70 369 L68 370 L65 367 L62 367 L60 364 L58 367 L59 370 L56 371 L58 375 L61 375 L62 373 L65 372 L68 373 L71 371 L73 363 L72 358 L73 357 L77 358 L80 356 L80 354 L78 353 L78 349 L75 349 L72 353 L69 354 L68 345 L66 344 Z M67 360 L71 359 L72 361 L68 362 Z M74 352 L76 351 L78 354 L76 355 Z M87 340 L84 342 L84 345 L86 345 L86 343 L88 342 Z M374 338 L372 338 L371 341 L373 341 Z M57 338 L55 338 L53 342 Z M95 336 L96 339 L98 339 Z M109 333 L107 333 L106 337 L108 337 Z M39 331 L40 333 L44 332 L47 337 L48 336 L47 332 L44 332 L43 330 Z M478 330 L475 329 L474 332 Z M66 325 L63 325 L62 332 L59 335 L60 337 Z M91 327 L87 323 L85 325 L76 324 L75 328 L77 333 L74 336 L68 333 L68 341 L70 341 L71 338 L74 340 L78 339 L78 335 L84 327 L86 328 Z M426 322 L425 324 L427 325 L427 330 L423 332 L428 334 L428 332 L431 331 L433 333 L433 337 L441 340 L440 349 L442 346 L447 345 L448 341 L446 340 L446 336 L444 336 L443 339 L435 336 L434 334 L437 331 L439 331 L439 329 L437 327 L435 328 L431 327 L428 322 Z M465 317 L461 316 L456 318 L458 320 L456 326 L451 323 L450 319 L446 321 L450 323 L450 327 L454 328 L452 330 L451 334 L452 336 L458 331 L460 332 L460 334 L462 330 L464 331 L465 334 L470 331 L470 326 L468 326 L466 330 L464 331 L463 326 L460 325 L460 322 L458 320 L459 318 L462 319 Z M48 313 L48 315 L51 316 L53 315 L53 313 Z M496 311 L496 313 L500 314 L499 317 L500 323 L498 329 L499 331 L500 330 L500 312 Z M36 309 L37 311 L41 312 L41 310 L39 310 L38 308 Z M491 305 L489 305 L488 308 L485 308 L485 310 L490 311 Z M428 305 L428 310 L426 312 L425 318 L430 316 L431 317 L430 320 L435 319 L437 324 L439 324 L440 322 L439 318 L432 317 L430 314 L435 306 L433 305 L431 307 L430 305 Z M483 304 L479 305 L479 307 L483 306 Z M95 301 L93 308 L88 307 L90 312 L89 321 L95 324 L96 330 L98 331 L101 325 L96 322 L96 319 L99 318 L98 315 L99 310 L103 309 L104 304 L102 304 L101 308 L99 309 L96 307 L96 301 Z M461 298 L461 302 L463 302 Z M294 298 L287 301 L287 304 L290 304 Z M431 297 L431 298 L436 298 L436 297 Z M58 299 L52 296 L49 296 L42 300 L44 302 L44 306 L49 307 L50 305 L57 303 Z M52 300 L54 299 L55 302 L53 303 Z M458 295 L457 294 L451 295 L447 294 L447 299 L443 301 L441 304 L442 308 L448 309 L446 304 L450 303 L452 299 L456 299 Z M440 293 L440 295 L443 297 L442 293 Z M224 292 L222 292 L222 294 L218 296 L220 300 L222 300 Z M83 286 L83 288 L86 289 L86 294 L90 297 L90 300 L92 300 L92 296 L88 292 L88 288 L86 286 Z M16 283 L15 284 L16 287 L19 288 L19 286 Z M294 281 L289 282 L290 289 L292 289 L293 285 L296 283 Z M275 281 L275 284 L277 286 L276 281 Z M217 279 L217 282 L221 281 L221 279 Z M233 282 L233 284 L235 283 L240 284 L240 282 L238 282 L236 278 L235 281 Z M469 281 L461 277 L459 281 L451 280 L451 283 L456 282 L458 286 L460 282 L469 284 Z M419 269 L417 269 L417 272 L419 271 Z M100 269 L97 271 L100 272 Z M46 269 L44 271 L44 276 L47 278 L49 287 L48 288 L45 287 L44 291 L47 291 L48 293 L50 293 L53 290 L50 284 L55 283 L55 280 L59 277 L55 276 L56 271 L53 271 L51 269 L51 272 L49 273 L48 269 Z M49 279 L51 275 L55 277 L52 280 Z M466 267 L463 268 L464 274 L465 274 Z M424 265 L425 269 L427 269 L426 264 Z M467 261 L468 264 L470 264 L471 260 L476 260 L479 262 L481 258 L474 259 L470 258 Z M69 255 L70 258 L72 258 L72 255 Z M480 252 L480 255 L487 256 Z M267 252 L267 256 L269 256 L269 252 Z M446 250 L445 253 L448 255 L447 258 L449 258 L450 254 L448 253 L448 250 Z M491 247 L493 254 L494 247 Z M470 247 L470 250 L479 249 L476 247 L474 248 Z M429 240 L427 241 L426 244 L428 244 Z M424 237 L422 237 L421 239 L423 239 Z M56 237 L55 241 L58 241 Z M487 241 L491 240 L492 237 L494 238 L495 241 L500 240 L497 238 L497 236 L491 236 Z M320 235 L321 239 L325 238 L322 235 Z M439 227 L435 229 L434 231 L432 231 L431 229 L427 229 L429 233 L429 237 L432 236 L434 237 L432 247 L433 251 L429 255 L423 254 L423 256 L421 257 L421 258 L425 258 L427 261 L430 261 L432 264 L436 262 L437 267 L440 264 L448 264 L448 262 L443 261 L444 257 L441 256 L442 248 L438 245 L438 240 L436 239 L445 230 L445 228 L440 230 Z M438 231 L440 230 L441 232 L439 233 Z M320 227 L319 231 L322 232 L323 228 Z M467 221 L464 223 L465 228 L467 227 Z M34 220 L34 223 L36 223 L36 221 Z M100 219 L99 221 L103 223 L101 228 L104 228 L106 221 Z M50 214 L47 214 L47 219 L50 220 L49 222 L44 222 L42 220 L39 222 L39 225 L37 226 L38 233 L34 235 L39 237 L37 241 L41 240 L40 238 L41 235 L45 237 L46 235 L51 234 L51 232 L49 231 L52 228 L52 225 L49 224 L49 222 L52 220 L50 217 Z M40 229 L43 226 L48 227 L47 232 L43 231 L41 233 Z M477 212 L475 218 L479 221 L482 221 L482 218 L484 217 L483 214 L479 217 L478 216 L479 213 Z M93 211 L88 212 L88 216 L90 216 L93 213 Z M434 210 L433 217 L436 217 L437 210 Z M42 210 L40 210 L39 213 L40 215 Z M474 204 L474 209 L475 209 L476 205 Z M455 204 L453 204 L453 207 L451 208 L451 210 L455 208 Z M77 204 L74 209 L71 210 L71 215 L74 214 L75 218 L76 218 L76 215 L74 214 L74 212 L77 211 L78 207 Z M387 200 L380 203 L380 210 L382 212 L383 210 L381 209 L381 205 L387 202 Z M500 199 L499 199 L498 204 L500 203 Z M110 198 L109 201 L112 201 L112 199 Z M100 196 L99 203 L101 204 L101 206 L97 208 L96 215 L102 216 L101 213 L104 212 L106 214 L105 217 L108 217 L107 211 L104 211 L102 209 L102 206 L105 205 L102 196 Z M128 193 L129 197 L133 197 L132 192 Z M93 192 L88 193 L88 194 L93 194 Z M445 194 L442 194 L441 191 L439 191 L438 193 L435 193 L436 198 L441 195 L445 195 Z M361 191 L361 194 L365 197 L367 202 L372 201 L371 197 L367 196 L363 191 Z M472 189 L470 189 L469 194 L472 193 Z M94 187 L94 190 L96 191 L97 194 L98 189 Z M52 180 L52 185 L55 187 L55 185 L53 184 L53 180 Z M486 179 L482 181 L484 182 L486 181 Z M32 177 L28 181 L23 180 L23 182 L26 183 L30 182 L32 184 Z M58 180 L58 182 L60 183 L60 187 L62 187 L62 184 L64 183 L66 188 L68 188 L69 190 L72 190 L73 186 L70 187 L69 184 L65 183 L66 181 L69 181 L70 179 L69 177 L67 178 L63 176 L62 178 Z M61 179 L63 178 L64 180 L62 181 Z M97 175 L95 177 L94 183 L95 184 L102 183 L100 179 L104 175 Z M467 163 L463 165 L465 166 L467 165 Z M55 167 L63 170 L62 163 L60 163 L59 166 Z M442 162 L438 163 L438 165 L442 164 Z M163 163 L163 168 L166 168 L168 173 L173 174 L174 172 L176 172 L176 170 L174 169 L175 163 L171 162 L170 166 L168 165 L168 162 Z M78 161 L76 162 L78 165 L77 167 L78 170 L73 171 L74 174 L76 173 L80 174 L81 171 Z M113 158 L111 158 L111 161 L113 160 Z M72 157 L71 157 L72 161 L70 162 L70 165 L73 163 Z M18 157 L16 160 L19 160 Z M430 156 L428 156 L428 161 L425 163 L425 165 L429 165 Z M397 155 L396 157 L394 157 L394 160 L397 160 L399 162 L400 160 L402 160 L402 158 L399 158 Z M99 155 L98 158 L102 156 L106 162 L105 164 L101 163 L102 168 L104 168 L104 165 L109 163 L108 159 L106 156 Z M171 153 L170 152 L165 153 L166 155 L165 158 L170 158 Z M402 147 L403 150 L405 151 L405 147 Z M87 146 L85 146 L85 150 L87 149 Z M75 145 L75 148 L80 147 L80 145 Z M411 144 L413 149 L410 150 L408 159 L410 159 L411 162 L413 162 L416 157 L419 159 L418 156 L419 154 L421 156 L423 155 L419 151 L414 149 L415 146 Z M409 155 L411 154 L412 156 L410 157 Z M68 142 L66 143 L66 150 L59 156 L59 158 L63 157 L65 162 L67 162 L66 158 L69 155 L73 154 L76 156 L74 153 L68 150 L72 146 L72 144 Z M393 141 L392 141 L391 147 L393 147 L394 144 Z M194 142 L191 141 L188 142 L188 144 L192 144 Z M97 142 L96 145 L98 148 L102 146 L103 150 L107 149 L107 147 L105 146 L105 141 L103 141 L102 144 L99 144 Z M407 140 L406 143 L409 143 L409 141 Z M313 137 L311 136 L310 139 L312 139 Z M338 134 L338 136 L345 135 L345 134 Z M74 136 L74 137 L79 136 L80 138 L83 138 L83 136 L79 136 L77 134 Z M152 134 L152 135 L155 135 L154 133 Z M92 128 L91 133 L96 134 L95 130 Z M98 127 L101 132 L101 135 L106 134 L102 132 L103 129 Z M410 126 L406 128 L408 129 L410 128 Z M354 126 L352 126 L351 130 L353 129 Z M119 130 L121 133 L123 131 L128 133 L124 129 L126 125 L121 127 L121 129 Z M44 126 L44 128 L48 127 L48 125 Z M417 120 L417 122 L422 123 L424 122 L424 120 Z M305 120 L306 124 L310 123 L311 125 L313 125 L315 122 L309 121 L307 118 Z M131 118 L131 122 L132 122 L133 119 Z M442 116 L442 118 L446 119 L445 116 Z M57 115 L55 119 L52 117 L52 115 L50 117 L46 117 L46 119 L51 124 L54 119 L57 120 L58 117 Z M383 114 L383 118 L386 118 L385 114 Z M453 112 L454 114 L456 114 L456 112 Z M330 117 L332 120 L337 122 L339 120 L343 121 L348 119 L352 121 L355 119 L352 116 L348 118 L346 116 L346 113 L340 112 L338 119 L334 119 L332 116 Z M206 111 L210 115 L209 121 L213 121 L212 116 L214 115 L213 112 Z M81 111 L82 114 L84 114 L83 111 Z M312 115 L315 117 L321 115 L325 116 L319 110 L316 115 Z M197 112 L194 113 L192 110 L186 113 L182 112 L183 115 L181 117 L192 116 L193 114 L196 114 Z M361 108 L364 112 L365 110 Z M217 106 L217 110 L219 111 L218 106 Z M25 108 L20 106 L18 108 L15 108 L16 111 L21 109 L24 110 Z M403 108 L404 110 L403 113 L406 113 L407 115 L411 113 L410 111 L411 107 L414 107 L416 109 L416 113 L421 112 L421 110 L418 109 L418 106 L414 104 L410 104 L408 108 Z M242 104 L239 104 L237 108 L240 109 Z M352 103 L352 105 L357 108 L356 110 L352 110 L352 111 L359 114 L360 112 L356 111 L358 109 L358 105 L355 105 L354 103 Z M343 101 L341 101 L340 103 L342 104 Z M313 101 L314 106 L317 108 L318 104 L316 104 Z M229 101 L229 106 L231 106 L231 102 Z M218 101 L221 103 L221 100 Z M152 101 L151 106 L155 103 L156 110 L158 111 L158 103 L156 102 L156 100 Z M188 99 L184 99 L184 103 L182 104 L184 108 L188 107 L188 105 L184 104 L185 102 L189 101 Z M171 100 L169 99 L167 100 L167 102 Z M384 98 L379 103 L379 107 L378 108 L375 107 L374 125 L372 129 L369 129 L369 131 L373 134 L370 137 L370 139 L374 139 L375 141 L372 143 L369 143 L368 149 L365 149 L363 145 L361 145 L358 149 L359 151 L361 148 L364 148 L365 149 L364 154 L377 155 L376 157 L366 162 L365 170 L362 172 L363 174 L372 175 L372 177 L368 180 L369 184 L368 190 L369 192 L374 194 L374 197 L379 197 L379 194 L383 190 L383 185 L391 181 L390 179 L388 181 L383 180 L382 176 L385 175 L384 167 L378 163 L381 159 L388 158 L387 156 L384 155 L385 152 L382 151 L382 147 L378 146 L381 140 L376 138 L377 136 L382 137 L376 132 L378 131 L377 123 L380 122 L380 120 L377 119 L377 113 L380 112 L382 105 L385 104 Z M377 182 L378 187 L380 187 L381 189 L380 190 L375 189 L374 191 L372 191 L370 188 L374 187 L374 184 Z M379 175 L381 174 L382 176 L380 177 Z M368 169 L371 168 L373 171 L378 170 L379 173 L373 174 Z M377 152 L380 151 L381 153 L378 154 Z M236 98 L236 100 L239 101 L239 98 Z M210 100 L207 97 L206 103 L198 102 L191 103 L192 106 L196 105 L198 108 L200 108 L200 106 L202 105 L203 108 L205 109 L205 107 L209 103 Z M497 96 L497 100 L495 101 L495 106 L499 108 L500 103 L498 102 L499 97 Z M226 95 L230 97 L229 95 Z M81 95 L82 100 L85 100 L86 102 L80 106 L80 108 L85 108 L85 106 L87 105 L91 112 L93 108 L90 105 L86 104 L87 102 L91 101 L91 99 L89 98 L85 100 L83 95 Z M450 94 L446 95 L445 99 L446 102 L450 101 L449 98 Z M305 92 L306 95 L308 95 L308 92 Z M135 94 L141 94 L140 92 L137 91 Z M75 94 L79 93 L79 91 L76 91 Z M158 90 L156 95 L158 96 L160 94 L161 95 L160 99 L164 101 L164 99 L162 98 L163 95 L160 93 L161 90 Z M185 89 L187 92 L190 93 L191 92 L188 89 Z M87 88 L88 91 L87 94 L92 95 L93 93 L91 93 L89 88 Z M174 87 L169 88 L169 90 L171 92 L174 90 Z M405 86 L406 90 L412 94 L415 94 L418 90 L417 87 L412 87 L408 89 L407 86 Z M33 85 L33 87 L37 89 L37 84 Z M191 83 L191 86 L193 86 L194 84 Z M465 80 L462 84 L460 84 L460 86 L463 85 L467 90 L467 93 L469 93 L472 86 L470 85 L470 82 L467 82 Z M311 80 L309 81 L309 86 L311 86 L311 84 L313 83 Z M425 79 L424 80 L425 85 L431 86 L431 84 L428 83 L428 80 Z M296 79 L298 84 L301 83 L303 87 L305 88 L305 83 L303 82 L305 80 L305 77 L300 77 Z M410 76 L409 79 L407 80 L407 82 L409 83 L413 82 Z M367 75 L364 75 L362 80 L358 82 L358 84 L360 85 L360 90 L358 92 L361 92 L361 90 L365 87 L368 88 L368 86 L366 86 L364 83 L364 80 L367 77 Z M229 71 L232 74 L230 78 L232 78 L235 75 L233 74 L233 72 Z M497 70 L497 72 L499 73 L497 79 L500 79 L500 70 Z M427 68 L426 75 L428 75 L430 79 L432 79 L433 73 L430 72 L431 69 Z M400 67 L395 72 L397 74 L397 78 L394 80 L391 80 L391 82 L393 82 L396 86 L398 85 L397 81 L403 78 L403 76 L399 76 L397 73 L398 71 L401 72 Z M60 66 L60 68 L63 71 L65 68 Z M72 65 L70 65 L70 71 L72 70 Z M424 63 L421 63 L420 67 L415 68 L416 72 L418 73 L416 75 L417 80 L420 80 L420 73 L423 71 L422 67 Z M342 62 L340 64 L345 68 L346 63 Z M165 61 L165 63 L171 64 L169 61 L167 60 Z M336 58 L341 55 L337 55 Z M416 54 L415 57 L418 57 L418 55 Z M478 53 L476 53 L475 57 L477 57 Z M406 51 L405 56 L412 58 L409 55 L410 52 Z M316 51 L314 53 L314 57 L310 58 L310 60 L313 61 L314 65 L317 67 L317 65 L314 62 L314 59 L317 53 Z M421 49 L417 51 L418 52 L421 51 Z M160 48 L157 49 L156 51 L157 52 L160 50 Z M212 35 L212 37 L215 40 L215 36 Z M104 35 L103 37 L105 37 L106 40 L108 40 L108 36 Z M115 32 L113 32 L113 34 Z M468 30 L468 32 L473 34 L473 30 Z M99 30 L99 32 L104 31 L104 30 Z M498 26 L496 31 L500 33 L500 26 Z M179 23 L180 25 L184 25 L184 23 Z M258 22 L254 34 L257 46 L253 50 L253 64 L258 67 L251 69 L247 88 L250 94 L258 92 L238 126 L230 122 L234 132 L227 131 L223 118 L222 127 L216 128 L204 155 L196 155 L197 146 L186 156 L187 167 L169 189 L173 197 L165 195 L152 203 L147 193 L155 183 L151 171 L156 170 L145 161 L156 158 L160 165 L161 158 L153 157 L153 151 L145 146 L152 138 L143 128 L148 125 L143 119 L147 107 L141 106 L137 110 L141 113 L136 129 L138 142 L134 141 L137 150 L128 151 L129 143 L126 149 L118 148 L119 152 L124 150 L119 164 L129 153 L141 157 L132 167 L119 170 L119 194 L112 194 L119 205 L108 207 L113 214 L106 232 L111 233 L108 238 L112 239 L112 247 L103 243 L104 237 L99 238 L97 226 L80 228 L91 238 L81 245 L75 240 L79 235 L73 237 L70 231 L66 237 L58 229 L57 234 L66 238 L65 249 L58 245 L54 255 L61 257 L59 251 L63 250 L66 259 L67 249 L82 255 L76 272 L78 265 L89 265 L89 256 L99 257 L106 249 L111 252 L109 259 L120 260 L116 270 L119 280 L112 280 L110 269 L97 281 L103 284 L103 279 L108 279 L105 290 L110 309 L106 318 L112 321 L115 339 L131 373 L137 365 L144 370 L139 374 L142 381 L137 383 L149 411 L159 425 L180 434 L181 440 L193 437 L205 441 L207 435 L209 440 L226 445 L231 442 L232 447 L255 461 L259 483 L265 473 L259 465 L270 455 L277 455 L286 441 L291 453 L292 442 L309 439 L310 435 L321 442 L321 437 L338 437 L354 427 L370 407 L384 406 L385 402 L378 408 L371 406 L378 393 L373 370 L380 359 L384 372 L388 367 L393 374 L396 368 L404 368 L401 363 L395 368 L390 363 L403 337 L416 335 L425 345 L418 339 L422 324 L417 317 L418 324 L411 319 L409 311 L414 309 L408 310 L407 305 L415 302 L421 286 L430 287 L432 282 L419 282 L415 288 L408 283 L414 275 L405 271 L405 279 L399 286 L394 285 L402 269 L398 260 L409 260 L413 265 L413 260 L405 256 L406 247 L413 243 L402 240 L410 232 L404 221 L407 209 L420 214 L426 204 L412 201 L419 194 L428 195 L424 193 L427 183 L418 190 L412 186 L412 176 L404 190 L407 205 L399 206 L402 200 L398 199 L401 188 L397 172 L403 175 L408 168 L396 165 L396 197 L388 197 L397 202 L389 204 L389 228 L370 237 L378 242 L377 267 L382 267 L375 281 L366 283 L367 235 L376 229 L369 226 L371 208 L359 201 L362 177 L350 171 L355 167 L347 161 L345 170 L349 175 L337 178 L324 148 L327 145 L331 149 L327 138 L332 132 L326 138 L318 133 L323 144 L312 150 L312 144 L301 136 L301 128 L294 125 L308 109 L297 120 L291 115 L290 124 L281 127 L260 95 L281 78 L275 76 L268 81 L268 74 L261 72 L266 68 L262 63 L266 54 Z M255 457 L257 456 L259 460 L257 461 Z M260 455 L263 454 L264 456 L261 457 Z M263 449 L265 448 L266 451 L264 452 Z M269 441 L271 440 L272 442 L270 443 Z M235 440 L237 439 L238 442 L236 443 Z M276 439 L277 438 L280 439 L281 442 L279 443 Z M247 438 L248 442 L246 444 L243 444 L242 441 Z M285 438 L287 437 L288 439 L286 440 Z M264 436 L266 435 L267 437 L265 438 Z M234 435 L236 434 L237 437 L235 438 Z M197 433 L199 432 L200 434 L198 435 Z M193 433 L195 432 L196 434 L194 435 Z M315 432 L317 431 L318 433 L316 434 Z M184 432 L186 431 L187 433 L185 434 Z M253 429 L255 428 L257 432 L255 433 Z M294 428 L296 427 L297 429 L295 430 Z M236 428 L239 427 L240 430 L237 431 Z M212 428 L214 427 L215 429 L213 430 Z M335 427 L337 426 L338 428 L336 429 Z M276 426 L279 425 L280 427 L277 428 Z M268 426 L270 425 L271 428 L269 429 Z M292 424 L293 427 L290 430 L286 431 L285 428 L289 424 Z M262 425 L264 424 L265 426 L263 427 Z M344 424 L346 423 L347 425 L345 426 Z M299 424 L302 423 L303 425 L300 426 Z M193 423 L196 422 L197 424 L194 425 Z M179 422 L182 421 L183 423 L180 424 Z M296 420 L298 419 L299 421 L297 422 Z M162 420 L164 419 L165 421 L163 422 Z M353 419 L355 418 L356 420 L354 421 Z M242 419 L245 418 L246 421 L244 422 Z M275 418 L277 417 L278 419 L276 420 Z M238 418 L240 417 L241 419 L239 420 Z M189 418 L191 417 L192 420 L190 421 Z M169 418 L172 417 L173 419 L170 420 Z M246 417 L249 416 L251 419 L249 420 Z M276 415 L278 414 L279 416 L277 417 Z M340 412 L341 415 L337 419 L333 417 L329 421 L327 420 L327 418 L333 412 L336 413 L338 411 Z M296 411 L299 410 L300 414 L297 415 Z M270 412 L274 410 L276 413 L271 414 Z M243 411 L245 410 L246 412 L244 413 Z M353 409 L355 408 L356 410 L354 411 Z M267 409 L269 408 L270 410 L268 411 Z M303 408 L306 407 L307 409 L304 410 Z M209 408 L212 407 L213 409 L210 410 Z M170 407 L175 408 L175 413 L173 415 L169 411 Z M275 407 L278 406 L279 408 L276 409 Z M176 407 L178 406 L179 408 L177 409 Z M295 406 L297 405 L298 407 L296 408 Z M310 405 L312 404 L313 406 L311 407 Z M239 404 L241 405 L240 409 L237 408 Z M217 404 L219 403 L220 406 L218 407 Z M175 401 L177 402 L176 407 L174 406 Z M332 401 L334 400 L335 402 L333 403 Z M157 401 L160 400 L161 404 L158 405 Z M241 403 L244 399 L247 401 L244 404 Z M304 399 L306 398 L307 400 L305 401 Z M209 399 L211 398 L212 400 L210 401 Z M202 401 L203 398 L207 399 L204 402 Z M181 398 L183 397 L184 399 L182 400 Z M177 398 L180 397 L181 399 L178 400 Z M275 397 L277 396 L279 400 L277 401 Z M362 394 L364 393 L366 397 L364 398 Z M277 394 L280 393 L281 395 L278 396 Z M236 394 L238 393 L239 395 L237 396 Z M337 393 L339 392 L340 394 L338 395 Z M192 392 L194 392 L197 395 L199 404 L202 403 L206 404 L203 410 L203 412 L206 413 L204 421 L198 421 L197 418 L193 418 L192 415 L188 415 L186 419 L179 418 L181 413 L188 408 L188 404 L191 398 Z M152 393 L154 392 L155 394 L153 395 Z M352 389 L353 392 L350 395 L350 399 L353 399 L354 401 L352 402 L352 405 L349 406 L350 410 L345 412 L342 409 L340 399 L344 396 L344 394 L349 389 Z M294 387 L296 386 L297 388 L295 389 Z M153 387 L155 386 L156 388 L154 389 Z M164 386 L166 385 L168 389 L165 390 Z M145 384 L147 385 L146 389 L144 388 Z M354 384 L356 383 L357 386 L355 387 Z M362 383 L364 382 L365 384 L363 385 Z M152 383 L154 382 L155 384 L153 385 Z M295 382 L297 381 L298 383 L296 384 Z M356 380 L359 379 L360 382 L357 383 Z M347 379 L349 383 L344 389 L341 389 L340 384 L344 380 Z M157 379 L160 378 L161 380 L158 381 Z M144 379 L147 378 L148 380 L145 381 Z M354 378 L356 377 L357 379 L355 380 Z M360 376 L362 375 L363 377 L361 378 Z M369 374 L371 375 L370 379 L368 378 Z M312 375 L314 374 L315 376 L313 377 Z M178 374 L179 379 L175 381 L175 384 L177 385 L176 393 L174 394 L174 399 L172 402 L168 402 L165 404 L164 403 L165 397 L168 395 L169 391 L173 390 L173 388 L169 386 L168 381 L170 379 L173 379 Z M199 373 L201 372 L202 374 L200 375 Z M352 371 L354 370 L355 372 L353 373 Z M311 371 L313 370 L314 372 L312 373 Z M344 369 L346 375 L339 380 L336 376 L339 375 L340 369 Z M317 370 L319 369 L320 371 L318 372 Z M146 370 L148 369 L149 372 L147 373 Z M306 369 L308 368 L309 370 L307 371 Z M209 369 L212 368 L213 370 L210 371 Z M153 369 L155 368 L156 370 L154 371 Z M315 368 L317 367 L318 369 L316 370 Z M355 367 L357 366 L358 368 L356 369 Z M182 373 L183 366 L187 366 L191 369 L190 371 L184 374 Z M195 363 L197 364 L196 373 L223 391 L225 394 L228 394 L230 397 L236 399 L235 401 L232 402 L232 405 L235 407 L235 417 L236 418 L235 420 L232 421 L228 420 L228 417 L231 416 L232 413 L224 411 L224 409 L227 408 L227 406 L222 404 L222 402 L220 401 L221 397 L216 398 L214 396 L215 394 L214 391 L211 395 L209 395 L208 391 L201 391 L198 389 L198 387 L193 386 L189 393 L185 391 L186 387 L191 383 L190 380 L188 382 L184 382 L183 380 L190 371 L194 369 L192 366 Z M327 362 L328 365 L334 369 L334 376 L331 378 L328 384 L331 385 L332 389 L329 392 L329 395 L331 396 L334 395 L335 397 L327 399 L325 403 L328 406 L329 413 L324 418 L319 418 L316 422 L311 419 L311 415 L314 412 L311 412 L310 410 L315 409 L316 411 L321 411 L321 409 L316 408 L314 404 L318 398 L320 400 L323 400 L323 396 L321 393 L323 391 L327 391 L327 389 L323 387 L317 390 L316 389 L317 381 L316 381 L315 383 L316 387 L313 388 L312 395 L296 397 L294 399 L295 402 L292 406 L289 406 L288 408 L289 415 L285 416 L285 418 L287 418 L288 420 L285 423 L283 423 L280 420 L282 408 L285 407 L285 398 L293 392 L297 393 L298 391 L300 391 L300 388 L305 383 L309 382 L319 373 L323 372 L328 376 L329 375 L328 371 L325 368 L325 363 Z M302 371 L303 374 L301 376 L299 376 L297 379 L286 385 L284 388 L273 396 L275 398 L273 401 L269 399 L266 402 L268 404 L267 406 L263 405 L261 407 L258 407 L255 405 L256 401 L259 403 L261 389 L264 388 L265 384 L259 381 L260 379 L266 376 L264 374 L265 372 L287 361 L289 363 L293 362 Z M356 361 L358 360 L359 362 L357 363 Z M330 358 L335 359 L337 363 L339 364 L340 369 L338 370 L329 361 Z M292 359 L294 358 L296 361 L293 362 Z M222 358 L242 367 L243 369 L246 370 L246 374 L250 372 L253 373 L253 375 L250 378 L251 380 L254 379 L257 380 L255 383 L256 390 L254 391 L254 393 L258 397 L256 400 L249 400 L243 394 L243 391 L237 390 L224 380 L218 378 L215 375 L216 369 L220 367 L221 364 L224 364 L224 362 L221 361 Z M384 359 L385 356 L388 357 L386 360 Z M372 357 L376 356 L377 358 L373 359 Z M227 357 L230 356 L231 358 L228 359 Z M294 356 L296 355 L297 357 L295 358 Z M138 356 L140 355 L141 358 L139 359 Z M278 354 L280 358 L280 362 L275 365 L270 363 L270 367 L265 369 L263 366 L264 364 L266 364 L265 359 L271 355 L275 357 Z M189 356 L188 358 L185 359 L181 357 L182 355 L184 356 L186 354 Z M284 354 L288 353 L290 357 L286 359 L284 357 Z M257 353 L258 357 L254 359 L253 357 Z M160 354 L162 353 L163 355 L161 356 Z M336 352 L338 351 L339 353 L337 354 Z M234 354 L242 350 L243 353 L247 357 L252 359 L257 364 L258 368 L254 370 L253 365 L250 368 L248 368 L244 365 L244 363 L240 364 L239 360 L235 359 Z M184 352 L187 349 L191 349 L193 353 L185 354 Z M268 349 L270 354 L261 359 L259 355 L262 354 L262 349 L263 348 Z M228 349 L230 348 L231 350 L229 351 Z M156 348 L158 347 L159 349 L157 350 Z M298 346 L300 347 L299 352 L297 351 Z M256 347 L258 346 L259 348 L257 349 Z M174 347 L176 346 L177 348 L175 349 Z M222 345 L225 346 L223 352 L221 351 Z M173 344 L175 343 L176 345 L174 346 Z M331 343 L333 342 L334 345 L332 346 Z M292 342 L294 343 L295 347 L294 351 L289 350 L289 346 L291 345 Z M269 342 L273 346 L271 349 L267 345 Z M245 342 L252 343 L254 345 L253 355 L249 356 L245 352 L244 349 Z M229 344 L235 342 L239 345 L239 348 L235 350 Z M166 342 L170 343 L182 361 L184 362 L183 364 L181 364 L180 368 L173 374 L171 373 L171 370 L174 368 L175 364 L178 363 L177 360 L173 360 L172 362 L169 361 L168 357 L170 355 L167 355 L161 348 L161 346 Z M387 341 L389 340 L390 342 L388 343 Z M274 344 L280 343 L280 341 L282 340 L289 346 L282 347 L282 349 L279 350 L276 348 Z M294 339 L297 338 L299 341 L295 342 Z M263 339 L267 338 L268 340 L264 341 Z M248 339 L253 338 L254 340 L249 341 Z M393 337 L395 338 L394 342 L392 341 Z M319 337 L324 336 L325 338 L321 340 Z M273 337 L276 336 L277 338 L274 339 Z M192 337 L196 336 L197 338 L193 339 Z M180 336 L182 337 L181 341 L178 340 Z M335 335 L339 337 L337 341 L334 339 Z M236 336 L239 335 L242 338 L240 339 L237 338 Z M215 335 L216 336 L215 346 L218 347 L219 351 L216 352 L213 348 L211 348 L211 350 L213 351 L213 354 L217 357 L216 360 L210 359 L210 362 L207 365 L207 368 L205 369 L204 362 L199 364 L194 358 L195 353 L193 352 L194 350 L193 344 L195 343 L198 345 L197 341 L202 340 L204 336 Z M301 335 L306 334 L313 335 L314 339 L310 342 L310 344 L312 344 L316 339 L318 339 L319 343 L317 347 L320 346 L321 344 L327 346 L329 348 L329 353 L331 354 L330 358 L328 359 L327 356 L325 356 L322 359 L325 362 L320 366 L318 365 L318 363 L314 362 L313 358 L310 358 L310 360 L312 361 L310 365 L308 364 L305 358 L300 360 L298 358 L298 355 L299 354 L302 356 L304 355 L304 351 L308 347 L308 345 L304 347 L302 346 L302 342 L300 341 Z M290 333 L294 332 L295 337 L291 338 L289 336 Z M260 336 L263 332 L270 334 L267 337 Z M244 334 L253 332 L256 336 L249 337 L245 336 Z M161 332 L163 332 L167 338 L165 341 L158 340 L158 336 Z M396 332 L398 331 L399 333 L397 334 Z M360 331 L361 334 L358 338 L358 341 L354 343 L354 349 L350 350 L349 353 L345 355 L346 358 L348 359 L347 362 L345 363 L344 361 L341 361 L338 358 L338 354 L344 348 L347 348 L346 344 L352 333 L354 331 Z M314 332 L317 331 L319 335 L315 336 Z M238 332 L240 331 L241 333 L239 334 Z M223 331 L228 336 L222 343 L219 343 L217 336 L221 331 Z M137 332 L139 331 L140 333 L138 334 Z M274 331 L276 330 L277 332 L275 333 Z M256 331 L259 330 L260 333 L257 334 Z M326 329 L328 330 L327 333 L324 332 Z M288 330 L290 329 L291 331 L289 332 Z M194 330 L196 329 L197 332 L202 331 L203 334 L199 336 L195 335 Z M129 329 L130 331 L126 334 L125 339 L123 340 L122 339 L123 333 L127 329 Z M384 329 L386 328 L387 330 L385 331 Z M149 328 L151 332 L150 335 L148 336 L150 338 L148 344 L139 345 L136 339 L138 337 L142 338 L142 336 L146 334 L146 329 Z M131 329 L133 328 L134 330 L132 331 Z M223 328 L225 327 L226 329 L224 330 Z M398 326 L401 325 L402 327 L399 328 Z M215 325 L218 325 L219 329 L217 332 L212 332 L211 330 L214 328 Z M152 326 L159 325 L161 329 L159 331 L155 331 Z M138 326 L140 325 L141 327 L139 328 Z M250 325 L254 324 L255 328 L251 329 Z M184 325 L190 324 L193 331 L189 332 L188 330 L185 329 Z M356 325 L358 323 L363 323 L364 328 L363 329 L359 328 Z M317 324 L319 323 L323 327 L319 330 L317 327 Z M287 323 L288 326 L282 331 L277 327 L278 325 L282 323 Z M230 324 L234 323 L236 328 L234 330 L229 328 Z M382 321 L383 323 L380 325 L379 323 Z M406 320 L409 322 L409 328 L407 330 L407 332 L409 333 L408 335 L405 335 L403 331 L403 328 L406 326 L405 323 Z M298 319 L299 321 L296 324 L295 322 Z M209 320 L212 319 L213 321 L210 322 Z M302 319 L304 318 L307 321 L304 322 Z M237 319 L241 318 L247 323 L239 326 L237 323 Z M400 318 L402 317 L403 319 L401 320 Z M254 320 L257 317 L261 319 L259 322 L255 322 Z M195 317 L198 318 L197 323 L199 324 L198 326 L193 325 L192 319 Z M114 317 L116 318 L115 324 L113 323 Z M298 317 L300 316 L301 318 L299 319 Z M118 317 L120 316 L121 318 L119 319 Z M402 316 L404 315 L405 317 L403 318 Z M281 316 L281 319 L277 326 L273 325 L272 329 L267 325 L265 325 L264 330 L260 328 L262 323 L268 322 L278 315 Z M361 312 L372 313 L373 316 L375 317 L372 320 L374 325 L370 326 L370 329 L372 329 L374 334 L380 339 L380 343 L376 346 L372 345 L369 348 L367 347 L366 340 L368 336 L368 332 L366 331 L367 326 L366 323 L359 318 Z M314 311 L315 317 L313 318 L313 320 L315 320 L316 322 L315 325 L313 326 L313 329 L305 333 L299 332 L297 330 L297 325 L300 324 L304 327 L306 324 L310 325 L308 319 L309 313 L311 311 Z M270 311 L271 314 L269 318 L265 319 L261 316 L262 314 L265 315 L267 311 Z M374 310 L376 309 L377 311 L375 312 Z M208 309 L210 313 L206 316 L208 318 L206 324 L210 324 L211 328 L204 330 L203 326 L201 325 L200 315 Z M112 310 L114 309 L115 311 L113 312 Z M255 307 L256 308 L255 316 L251 319 L245 319 L244 317 L246 316 L246 314 L248 313 L250 315 L252 313 L253 308 Z M372 307 L374 306 L375 308 L373 309 Z M243 307 L244 309 L242 310 L241 315 L235 317 L234 316 L235 309 L238 306 Z M362 306 L368 305 L369 309 L363 310 Z M261 305 L265 306 L265 310 L263 312 L259 311 Z M153 305 L156 311 L158 322 L156 323 L155 320 L151 319 L144 326 L142 323 L142 320 L146 318 L147 314 L151 311 L148 308 L148 306 Z M267 304 L271 303 L272 308 L269 309 Z M244 304 L249 303 L250 306 L248 308 L245 308 Z M254 302 L256 301 L257 303 L255 304 Z M209 302 L211 301 L212 303 L210 304 Z M390 300 L392 299 L393 301 L391 302 Z M250 300 L252 299 L253 301 L251 302 Z M377 299 L379 298 L380 300 L378 301 Z M395 298 L397 297 L398 299 L396 300 Z M364 298 L366 297 L367 300 L365 301 Z M356 298 L358 297 L359 299 L357 300 Z M202 298 L205 297 L206 299 L203 300 Z M118 298 L120 297 L121 299 L119 300 Z M369 297 L371 296 L372 299 L370 300 Z M345 296 L346 297 L345 301 L347 301 L348 298 L351 298 L354 300 L354 303 L349 308 L349 310 L351 311 L347 323 L342 326 L343 331 L340 333 L339 331 L336 330 L337 325 L335 320 L331 327 L327 325 L326 322 L330 321 L328 316 L330 313 L333 312 L331 308 L334 298 L337 297 L338 301 L340 302 L340 299 L338 297 Z M305 297 L307 296 L308 299 L306 300 Z M255 297 L258 296 L259 298 L256 299 Z M111 297 L115 296 L116 298 L112 299 Z M410 295 L412 296 L413 299 L412 301 L408 300 L408 297 Z M328 295 L329 298 L331 298 L332 300 L327 314 L322 316 L325 318 L325 320 L321 322 L320 320 L317 319 L317 315 L321 311 L321 304 L323 303 L326 296 Z M208 296 L210 295 L211 297 L209 298 Z M350 297 L351 294 L356 295 L354 298 Z M329 294 L332 293 L333 295 L330 296 Z M168 293 L172 294 L171 297 L176 296 L177 301 L179 301 L180 299 L183 300 L190 320 L189 322 L187 322 L183 318 L180 318 L180 329 L179 330 L172 329 L169 320 L172 318 L168 318 L165 311 L166 307 L174 304 L170 301 L165 303 L162 301 L163 299 L167 297 Z M321 292 L324 296 L319 305 L316 306 L315 305 L316 300 L315 299 L311 300 L310 298 L312 296 L319 296 L318 293 Z M358 291 L360 292 L359 297 L357 296 Z M256 292 L258 291 L259 293 L257 294 Z M409 291 L411 290 L412 292 L410 293 Z M365 291 L367 290 L368 293 L366 294 Z M190 290 L198 292 L200 294 L200 298 L197 303 L194 301 L192 295 L190 295 L191 298 L190 304 L194 304 L197 306 L196 315 L190 313 L192 308 L189 308 L187 306 L185 301 L187 297 L183 296 L185 293 L188 293 Z M412 290 L415 289 L416 291 L413 292 Z M404 290 L406 289 L407 292 L405 293 Z M261 290 L263 289 L266 292 L262 293 Z M202 290 L204 289 L206 293 L203 294 Z M396 290 L395 295 L393 297 L388 297 L389 306 L386 307 L385 302 L381 300 L382 295 L388 294 L390 288 Z M152 289 L154 288 L155 290 L153 291 Z M110 289 L112 288 L113 291 L111 292 Z M259 288 L261 287 L262 289 L260 290 Z M366 287 L368 286 L369 288 L367 289 Z M208 286 L210 285 L211 287 L209 288 Z M130 286 L132 285 L133 288 L131 289 Z M305 285 L307 284 L308 286 L306 287 Z M376 283 L380 282 L381 284 L377 285 Z M149 282 L151 283 L150 289 L146 287 Z M118 283 L123 282 L126 287 L131 289 L129 291 L129 294 L132 293 L134 295 L135 303 L133 306 L128 300 L126 302 L124 301 L123 297 L126 296 L126 294 L122 293 L123 289 L122 287 L117 286 Z M256 281 L258 285 L255 287 L254 293 L250 294 L249 290 L251 289 L251 286 L253 285 L253 283 Z M309 279 L310 278 L318 279 L322 283 L323 289 L322 290 L316 289 L314 283 L313 283 L313 286 L311 287 Z M304 279 L306 278 L307 280 L305 281 Z M206 278 L207 283 L205 287 L199 288 L198 290 L195 290 L193 288 L196 282 L201 283 L201 280 L203 278 Z M303 276 L305 275 L306 277 L304 278 Z M131 276 L133 275 L134 277 L132 278 Z M307 273 L309 272 L310 275 L308 276 Z M124 273 L128 272 L129 274 L125 275 Z M207 271 L209 272 L208 276 L206 275 Z M301 271 L303 270 L304 272 L302 273 Z M200 271 L202 270 L203 272 L201 273 Z M342 269 L344 268 L345 270 L343 271 Z M213 269 L215 268 L216 270 L214 271 Z M321 267 L324 270 L328 271 L330 274 L328 281 L332 283 L333 288 L332 290 L328 288 L328 284 L324 283 L320 279 L323 275 L322 273 L319 272 L319 269 Z M304 265 L307 264 L308 266 L305 267 Z M298 265 L300 264 L301 266 L299 267 Z M390 262 L392 261 L393 264 L391 265 Z M317 261 L318 262 L317 267 L315 268 L314 273 L311 274 L310 272 L312 270 L312 267 L310 265 L314 264 L314 262 Z M133 262 L135 261 L136 263 L134 264 Z M393 260 L396 259 L397 262 L395 263 Z M221 259 L222 261 L217 266 L216 265 L217 261 Z M195 256 L197 258 L197 260 L195 261 L195 265 L199 275 L195 276 L194 280 L191 280 L192 283 L191 285 L188 285 L185 283 L185 281 L189 279 L186 276 L190 272 L188 268 L192 267 L192 265 L189 262 L190 259 Z M396 256 L398 255 L399 257 L397 258 Z M321 255 L326 257 L326 261 L328 264 L327 266 L322 266 L319 264 L319 260 L322 259 L320 257 Z M290 255 L292 254 L296 257 L299 263 L297 264 Z M208 254 L209 255 L208 259 L204 261 L206 266 L205 267 L200 266 L199 261 L202 259 L203 256 Z M297 256 L303 253 L304 256 L313 255 L317 256 L318 258 L305 261 L304 259 L300 260 Z M214 253 L217 256 L216 259 L211 258 Z M228 252 L229 253 L228 256 L225 257 L224 255 Z M126 252 L129 253 L127 258 L122 256 Z M389 251 L392 254 L391 257 L387 256 Z M377 251 L379 250 L380 252 L378 253 Z M229 251 L231 250 L232 252 L230 253 Z M381 249 L383 248 L384 250 L382 251 Z M281 249 L283 248 L286 251 L284 252 Z M265 247 L275 249 L286 255 L300 272 L303 286 L300 288 L304 290 L303 301 L299 305 L299 314 L294 320 L295 326 L293 328 L290 323 L287 323 L283 319 L284 313 L287 315 L289 314 L288 309 L284 307 L284 302 L279 308 L281 312 L275 314 L274 309 L277 303 L267 298 L268 291 L273 287 L267 288 L263 285 L264 282 L268 282 L266 279 L268 274 L262 270 L262 265 L266 263 L267 259 L261 259 L259 252 L264 251 Z M191 248 L193 247 L194 249 L192 250 Z M258 246 L258 252 L255 253 L255 257 L257 258 L256 266 L253 271 L250 271 L250 274 L256 278 L249 278 L246 287 L241 287 L241 289 L247 293 L244 301 L234 294 L231 295 L231 297 L238 298 L239 302 L232 311 L232 319 L230 322 L225 322 L219 317 L215 309 L219 302 L213 302 L213 296 L215 295 L214 291 L216 290 L216 288 L213 287 L214 277 L222 262 L228 256 L242 249 Z M239 247 L238 249 L234 251 L232 250 L233 248 L237 246 Z M396 246 L398 245 L401 249 L399 250 Z M273 245 L275 244 L279 246 L280 248 L278 249 L274 247 Z M270 244 L272 243 L273 245 L271 246 Z M113 245 L117 243 L120 247 L114 248 Z M75 243 L76 245 L73 247 L72 245 Z M287 242 L289 243 L289 246 L285 247 L284 245 Z M248 243 L250 242 L251 244 L249 245 Z M228 243 L230 242 L231 245 L229 246 Z M184 243 L186 242 L187 245 L185 246 Z M328 242 L330 241 L331 243 L329 244 Z M256 242 L261 241 L262 243 L257 244 Z M93 241 L97 245 L96 249 L89 247 Z M70 239 L72 240 L71 243 L68 242 Z M390 239 L393 237 L396 238 L397 240 L391 241 Z M221 237 L224 237 L226 240 L225 246 L227 250 L224 252 L222 251 L218 252 L216 247 L217 242 Z M113 238 L115 237 L116 240 L114 241 Z M278 236 L282 238 L283 240 L282 244 L280 243 L280 241 L278 243 L275 242 Z M258 237 L260 236 L261 238 L259 239 Z M239 235 L242 241 L240 243 L237 241 L237 243 L234 245 L232 238 L236 235 Z M396 235 L398 234 L399 236 L397 237 Z M215 234 L217 238 L215 249 L214 250 L205 249 L204 251 L202 251 L200 255 L197 254 L196 246 L204 244 L204 239 L207 236 L211 237 L213 234 Z M380 235 L384 233 L388 233 L390 235 L388 237 L388 240 L390 241 L388 246 L384 245 L385 240 L380 241 L378 239 Z M154 234 L156 233 L157 236 L155 237 Z M221 233 L222 232 L229 233 L230 238 L228 239 Z M282 233 L288 233 L294 231 L299 243 L299 249 L293 251 L292 249 L294 246 L291 244 L291 239 L293 236 L290 236 L286 240 L282 237 L281 235 Z M401 231 L403 230 L404 233 L402 234 Z M270 230 L272 235 L270 236 L268 240 L264 240 L263 236 Z M125 231 L125 234 L122 237 L115 236 L116 234 L120 234 L123 230 Z M217 229 L219 230 L218 234 L216 233 Z M112 230 L115 229 L116 231 L113 232 Z M89 234 L92 229 L96 229 L99 236 L94 239 Z M296 230 L299 228 L312 239 L319 243 L320 245 L325 247 L326 249 L323 250 L322 253 L317 255 L314 254 L315 250 L312 249 L302 250 L301 246 L305 245 L305 243 L300 241 L297 236 Z M281 229 L283 228 L284 230 L282 231 Z M395 227 L396 229 L393 231 L392 229 Z M257 230 L257 232 L255 233 L251 240 L244 237 L250 232 L253 227 Z M153 227 L155 226 L156 228 L154 229 Z M259 226 L261 225 L264 229 L261 230 Z M156 223 L158 222 L159 224 L157 225 Z M152 223 L154 222 L155 224 L153 225 Z M113 218 L116 217 L117 220 L114 221 Z M397 217 L399 216 L400 218 L398 219 Z M211 217 L214 216 L215 219 L212 220 Z M335 216 L336 215 L348 215 L349 217 L348 218 L336 218 Z M175 216 L177 215 L178 217 L176 218 Z M394 215 L396 214 L397 216 L395 217 Z M391 215 L393 214 L394 216 L392 217 Z M330 215 L332 214 L333 216 L331 217 Z M295 219 L302 223 L312 224 L309 218 L314 217 L315 214 L338 219 L339 221 L341 219 L357 218 L358 221 L361 222 L359 225 L357 247 L358 276 L357 289 L355 291 L353 288 L346 291 L345 289 L347 286 L344 288 L335 287 L333 281 L334 279 L338 280 L336 275 L339 273 L352 273 L354 271 L354 264 L342 259 L339 266 L332 272 L330 263 L334 261 L328 257 L328 250 L336 247 L338 244 L343 245 L343 251 L347 249 L345 244 L341 243 L341 238 L346 234 L347 230 L342 232 L340 226 L337 228 L339 231 L328 241 L320 243 L305 230 L305 227 L298 228 L294 222 Z M183 215 L185 214 L186 216 L184 217 Z M187 214 L189 213 L190 215 L188 216 Z M311 213 L314 212 L315 214 L312 215 Z M221 221 L221 226 L212 227 L209 233 L194 243 L181 235 L177 226 L175 232 L169 230 L176 238 L179 246 L183 249 L187 249 L189 253 L186 254 L188 260 L184 272 L182 272 L180 267 L174 262 L166 263 L166 266 L162 269 L163 272 L171 273 L172 276 L177 276 L177 274 L180 273 L181 276 L184 277 L181 286 L171 291 L170 288 L172 286 L170 285 L167 287 L167 290 L164 291 L163 288 L160 287 L159 238 L157 230 L158 227 L161 227 L159 220 L171 219 L172 222 L174 222 L175 219 L188 218 L204 212 L207 214 L205 224 Z M400 211 L403 210 L404 212 L401 213 Z M114 211 L118 210 L119 212 L115 213 Z M207 210 L209 209 L210 211 L208 212 Z M393 208 L396 207 L397 209 L394 210 Z M340 208 L342 207 L343 209 L341 210 Z M261 211 L267 206 L276 212 L277 214 L285 218 L286 224 L294 225 L295 227 L287 231 L286 228 L283 226 L278 227 L275 231 L272 231 L271 228 L274 226 L276 219 L271 221 L270 224 L264 225 L263 220 L267 218 L268 214 L264 216 Z M173 207 L175 206 L177 209 L175 210 Z M254 207 L254 210 L256 211 L254 215 L257 218 L254 219 L254 223 L252 225 L247 227 L244 230 L241 236 L239 235 L237 231 L234 231 L233 228 L231 228 L230 231 L224 228 L225 226 L228 226 L231 223 L230 220 L239 214 L240 212 L247 209 L250 205 Z M255 204 L257 203 L258 206 L256 207 Z M120 201 L123 200 L124 202 L121 203 Z M173 199 L175 198 L176 200 L174 201 Z M333 198 L335 197 L339 203 L336 204 Z M304 197 L305 199 L302 201 L301 199 Z M116 198 L118 197 L119 199 L117 200 Z M215 197 L217 196 L218 198 L216 199 Z M187 195 L189 194 L190 197 L188 198 Z M184 194 L185 196 L184 199 L182 200 L181 196 Z M345 193 L349 195 L348 200 L344 197 Z M339 194 L341 193 L342 195 L340 196 Z M296 194 L298 193 L299 195 L297 196 Z M328 192 L330 193 L329 197 L327 196 Z M213 192 L214 194 L210 197 L209 194 Z M197 191 L200 192 L199 196 L195 194 Z M348 191 L351 190 L356 195 L352 197 Z M339 189 L341 188 L342 190 L340 191 Z M317 188 L320 189 L321 192 L320 195 L316 194 Z M220 189 L222 188 L223 190 L221 191 Z M175 188 L177 187 L178 189 L176 190 Z M309 186 L311 185 L312 188 L310 189 Z M409 184 L411 183 L412 185 L410 186 Z M192 182 L195 183 L194 189 L191 189 L189 185 Z M138 182 L142 183 L144 186 L141 191 L137 190 L139 188 L139 185 L137 184 Z M178 182 L180 181 L181 183 L179 184 Z M346 180 L349 182 L348 188 L343 187 L343 182 Z M307 179 L309 178 L311 182 L308 183 Z M314 182 L316 181 L318 177 L322 177 L325 182 L329 184 L330 186 L327 187 L326 189 L323 189 L320 183 L316 185 Z M184 178 L186 177 L187 179 L185 180 Z M334 176 L335 179 L331 181 L330 178 Z M351 174 L356 177 L356 180 L360 181 L358 186 L351 184 L349 179 Z M325 174 L327 173 L328 176 L326 177 Z M189 174 L191 173 L192 175 L190 176 Z M135 169 L138 168 L143 173 L140 174 L136 172 Z M131 168 L134 173 L138 175 L132 183 L132 187 L134 187 L136 192 L140 194 L140 197 L148 200 L148 206 L142 214 L142 216 L146 217 L148 226 L141 226 L140 221 L137 223 L140 225 L140 229 L148 231 L150 236 L150 278 L146 281 L140 280 L141 272 L136 271 L134 268 L135 266 L141 267 L142 262 L138 261 L139 258 L136 257 L137 255 L143 256 L140 254 L144 251 L144 247 L139 245 L140 237 L134 239 L136 245 L134 250 L131 249 L131 244 L126 244 L125 241 L120 240 L124 237 L128 239 L130 234 L135 235 L131 229 L126 227 L129 224 L128 219 L123 216 L126 213 L126 210 L122 210 L121 208 L128 206 L128 202 L120 196 L127 189 L124 181 L129 181 L126 177 L125 180 L122 181 L121 175 Z M320 165 L321 166 L320 168 L323 173 L318 174 L316 177 L312 178 L309 173 L310 172 L315 173 L316 166 Z M255 165 L257 164 L258 166 L256 167 Z M216 165 L218 164 L219 166 L217 167 Z M199 164 L201 165 L202 168 L201 173 L202 174 L206 172 L208 174 L206 178 L210 179 L210 181 L208 182 L200 177 L199 181 L203 182 L203 184 L200 187 L195 182 L194 175 L198 174 L196 171 L196 166 Z M310 164 L312 163 L313 165 L311 166 Z M204 164 L206 163 L207 165 L205 166 Z M134 164 L136 163 L137 165 L135 166 Z M301 159 L304 158 L305 160 L302 161 Z M198 157 L199 160 L197 163 L195 163 L193 159 Z M141 151 L145 150 L148 153 L142 154 Z M323 149 L324 153 L322 156 L320 156 L322 161 L319 162 L317 157 L314 156 L313 154 Z M285 148 L288 147 L289 150 L287 151 Z M297 147 L299 146 L300 148 L298 149 Z M237 142 L238 144 L235 147 L234 145 Z M275 140 L277 139 L278 141 L276 142 Z M144 138 L146 137 L147 139 L145 140 Z M246 135 L247 137 L242 140 L241 137 Z M222 135 L224 134 L225 136 L223 137 Z M275 131 L277 130 L278 132 L276 133 Z M255 130 L269 133 L273 137 L272 141 L288 155 L290 167 L285 171 L288 172 L289 185 L302 204 L298 210 L307 208 L309 210 L307 214 L299 214 L290 219 L288 215 L283 215 L268 204 L265 194 L260 193 L265 186 L265 181 L257 178 L256 175 L264 175 L265 172 L259 169 L265 167 L268 170 L267 164 L260 163 L262 158 L259 152 L259 136 L254 141 L258 146 L258 154 L250 175 L251 189 L256 189 L253 200 L226 220 L214 213 L216 201 L227 188 L230 188 L228 179 L232 169 L227 166 L229 155 L247 137 L254 136 Z M248 131 L250 130 L251 132 L249 133 Z M238 131 L240 130 L241 132 L239 133 Z M264 129 L266 128 L267 130 L265 131 Z M285 128 L289 127 L291 130 L291 133 L286 134 Z M270 124 L272 123 L273 125 L271 126 Z M257 114 L259 113 L260 115 L258 116 Z M259 109 L260 108 L264 109 L267 112 L262 113 Z M254 104 L256 103 L257 105 L255 106 Z M257 100 L259 99 L260 101 L258 102 Z M262 86 L263 88 L262 91 L260 92 L259 89 Z M254 82 L257 81 L258 83 L255 84 Z M259 54 L262 53 L263 55 L260 56 Z M465 18 L461 19 L461 25 L464 25 Z M473 15 L472 19 L474 19 Z M95 16 L96 18 L101 18 L101 16 L97 15 Z M488 13 L490 17 L493 17 L491 13 Z M481 13 L481 15 L485 15 L485 13 Z M463 13 L463 15 L469 16 L469 13 Z M454 13 L454 15 L456 15 L457 18 L460 17 L460 15 L458 15 L457 13 Z M440 13 L436 13 L435 18 L431 16 L432 20 L435 20 L440 15 Z M378 18 L385 15 L385 13 L379 13 Z M355 13 L355 15 L357 16 L358 13 Z M337 13 L337 15 L339 16 L340 13 Z M311 13 L313 18 L315 18 L316 13 Z M280 13 L280 16 L283 15 L295 16 L296 13 Z M255 13 L255 16 L263 15 L263 13 Z M236 13 L236 15 L240 17 L240 15 Z M201 13 L201 15 L204 15 L205 18 L210 18 L208 15 L205 16 L204 13 Z M179 13 L179 16 L181 16 L182 13 Z M170 13 L170 15 L175 17 L174 13 Z M139 13 L140 16 L143 15 L145 16 L141 20 L141 24 L143 24 L143 22 L145 21 L147 17 L144 15 L144 13 Z M127 13 L127 16 L134 15 L134 13 Z M73 13 L73 15 L82 16 L86 15 L86 13 Z M64 13 L64 15 L69 16 L69 13 Z M40 13 L40 16 L46 16 L47 19 L49 19 L52 15 L52 13 Z M27 13 L27 15 L30 16 L30 13 Z"/></svg>
