<svg xmlns="http://www.w3.org/2000/svg" width="512" height="512" viewBox="0 0 512 512" aria-hidden="true" focusable="false"><path fill="currentColor" fill-rule="evenodd" clip-rule="evenodd" d="M184 388 L180 390 L176 396 L176 405 L183 412 L193 412 L198 408 L200 404 L200 396 L194 389 Z M184 394 L190 393 L195 396 L196 402 L192 407 L189 408 L184 407 L181 403 L181 397 Z M226 376 L223 378 L223 387 L218 389 L213 394 L204 395 L203 396 L204 401 L212 398 L213 395 L215 396 L219 395 L223 391 L223 388 L228 385 L228 378 Z M216 369 L219 373 L224 374 L223 368 L218 367 Z M305 363 L306 374 L309 381 L317 386 L324 387 L325 401 L327 403 L330 402 L331 387 L339 386 L342 383 L344 383 L347 380 L348 375 L351 370 L351 363 L338 364 L334 366 L329 372 L326 371 L321 365 L314 363 Z M345 367 L346 371 L343 378 L335 382 L332 381 L331 377 L333 373 L339 368 Z M309 368 L314 367 L319 370 L324 377 L324 381 L323 382 L317 381 L310 373 Z M207 360 L206 364 L211 368 L214 368 L214 364 L210 360 Z M311 344 L298 356 L293 365 L294 392 L307 407 L316 412 L334 413 L346 409 L358 398 L363 386 L363 369 L360 360 L348 347 L339 342 L321 341 Z M325 345 L345 351 L354 360 L359 372 L358 386 L353 395 L342 405 L331 409 L324 409 L307 401 L301 394 L297 383 L297 371 L301 360 L310 351 Z M174 341 L174 345 L177 347 L181 348 L184 346 L187 350 L190 351 L197 350 L198 355 L200 355 L203 358 L207 357 L207 355 L203 351 L197 350 L191 345 L184 346 L183 343 Z M286 327 L280 328 L277 331 L277 333 L279 334 L284 333 L286 330 Z M290 324 L290 328 L300 326 L300 323 Z M304 321 L305 326 L314 325 L314 320 Z M319 319 L319 323 L328 321 L328 317 L322 317 Z M338 308 L336 308 L331 314 L331 317 L335 317 L339 312 Z M337 294 L336 295 L337 304 L341 305 L343 301 L341 300 L341 296 Z M184 288 L180 288 L177 290 L175 296 L170 294 L160 295 L154 303 L155 311 L158 316 L162 318 L160 322 L160 327 L164 332 L163 334 L167 341 L171 341 L172 338 L168 333 L164 332 L166 329 L164 319 L171 318 L177 313 L178 301 L176 299 L176 296 L182 294 L184 291 Z M166 298 L168 298 L174 303 L174 309 L170 313 L163 313 L159 307 L160 303 Z M301 276 L301 280 L310 281 L312 279 L310 275 Z M298 279 L298 277 L295 274 L288 275 L286 277 L288 280 Z M324 270 L316 276 L315 287 L320 293 L330 295 L333 294 L338 289 L339 278 L333 271 Z M324 275 L327 274 L331 275 L335 280 L335 285 L333 286 L332 289 L326 290 L321 286 L320 281 Z M236 267 L230 273 L228 279 L228 289 L230 295 L235 300 L242 303 L250 303 L256 301 L265 291 L265 277 L263 276 L262 272 L253 265 L241 265 Z M243 270 L249 270 L255 272 L260 279 L261 285 L259 291 L251 297 L239 296 L232 287 L233 279 L239 272 Z M240 248 L216 263 L209 282 L201 280 L186 287 L207 283 L211 287 L214 304 L232 333 L219 342 L217 352 L235 360 L258 360 L276 351 L276 335 L267 339 L261 333 L281 299 L283 277 L269 255 L259 249 Z M222 346 L226 343 L237 341 L245 351 L250 350 L250 348 L256 341 L259 341 L268 344 L271 347 L271 349 L260 355 L241 356 L229 354 L222 349 Z M246 252 L265 258 L275 269 L278 280 L275 300 L248 343 L233 327 L215 289 L216 274 L220 267 L232 256 Z M286 220 L283 220 L282 223 L283 236 L279 240 L273 240 L271 244 L281 244 L287 238 L289 231 L287 230 L288 227 L286 225 Z M255 180 L252 180 L249 189 L240 200 L239 210 L242 215 L240 216 L236 212 L235 207 L231 207 L228 223 L226 224 L224 220 L221 220 L220 236 L222 241 L227 244 L236 244 L236 241 L229 240 L224 235 L226 226 L234 233 L240 234 L243 239 L248 242 L251 242 L252 239 L246 236 L245 229 L253 218 L258 222 L258 225 L262 229 L261 236 L255 239 L257 242 L262 241 L268 234 L273 233 L279 226 L279 217 L276 207 L273 207 L273 210 L267 216 L265 221 L260 218 L268 211 L268 203 L259 190 Z M274 217 L275 225 L271 229 L267 229 L266 227 L270 224 L270 219 Z M235 217 L238 219 L237 224 L241 226 L240 229 L236 229 L232 225 L232 220 Z M241 216 L242 215 L247 216 L248 218 L243 222 Z M254 190 L259 197 L259 201 L261 201 L263 204 L263 210 L259 214 L255 210 L252 210 L250 215 L248 216 L247 212 L244 209 L244 204 L246 201 L248 201 L248 198 L250 197 L252 191 Z M253 17 L245 57 L249 65 L239 90 L238 112 L216 140 L217 152 L227 166 L226 176 L214 190 L192 167 L199 205 L150 251 L135 272 L122 300 L118 330 L108 340 L106 353 L130 399 L141 402 L146 412 L172 433 L225 451 L230 459 L222 461 L224 469 L236 474 L255 496 L269 475 L283 468 L285 460 L276 458 L280 452 L329 435 L354 417 L388 458 L400 459 L407 444 L366 406 L382 393 L386 374 L397 362 L399 352 L397 340 L387 334 L385 308 L375 280 L356 251 L310 208 L315 166 L293 190 L282 176 L281 166 L289 156 L291 139 L269 110 Z M253 430 L262 439 L262 445 L254 454 L245 446 L245 438 Z M366 419 L373 416 L401 444 L402 448 L397 455 L392 455 L363 425 L363 422 Z M235 430 L239 425 L244 426 L247 416 L253 411 L255 411 L262 420 L262 426 L266 425 L269 426 L273 432 L273 436 L268 440 L266 434 L255 424 L255 422 L253 422 L240 436 L239 440 L235 437 Z M360 410 L363 410 L365 412 L365 414 L362 417 L358 414 Z M389 343 L393 347 L392 360 L390 364 L380 372 L381 381 L378 390 L372 395 L371 392 L374 386 L374 367 L386 357 L387 344 Z M112 349 L115 348 L115 341 L117 340 L119 357 L135 370 L138 379 L148 382 L157 394 L157 403 L171 417 L187 426 L227 438 L249 457 L252 465 L255 465 L266 448 L285 436 L321 424 L333 424 L334 426 L319 434 L289 442 L276 449 L270 456 L270 460 L276 467 L273 470 L266 468 L263 478 L253 487 L243 477 L241 468 L233 469 L230 467 L236 461 L236 455 L232 450 L221 443 L187 434 L172 427 L150 408 L145 396 L137 397 L131 394 L124 381 L124 371 L113 360 Z M323 335 L337 336 L352 343 L366 360 L369 372 L368 388 L360 403 L344 416 L333 419 L317 418 L304 412 L293 401 L286 384 L286 371 L294 352 L303 343 Z M252 169 L278 203 L345 266 L361 292 L370 323 L368 352 L349 335 L336 331 L306 335 L291 348 L282 367 L284 395 L312 423 L279 434 L255 401 L232 424 L229 434 L178 416 L161 401 L159 386 L142 374 L135 349 L139 305 L154 275 L230 202 Z M123 317 L131 290 L145 266 L203 209 L204 200 L199 195 L200 185 L203 185 L213 200 L235 172 L254 135 L277 179 L290 196 L296 200 L298 192 L305 186 L308 188 L308 197 L304 201 L306 211 L351 253 L366 274 L374 290 L382 318 L383 347 L382 354 L375 358 L374 315 L359 277 L347 261 L279 196 L255 158 L252 158 L242 178 L227 198 L177 243 L145 280 L131 315 L130 358 L123 354 Z M243 113 L264 112 L268 118 L268 124 L276 125 L285 137 L285 149 L282 157 L276 163 L271 158 L255 124 L252 124 L234 163 L232 164 L224 155 L222 149 L223 136 L233 124 L239 125 L239 119 Z M243 103 L245 101 L263 101 L266 105 L264 107 L244 107 Z M244 92 L245 91 L262 91 L263 95 L262 96 L246 96 Z M247 82 L250 79 L257 79 L260 81 L260 84 L259 85 L248 85 Z M253 69 L256 69 L258 71 L255 75 L250 73 Z M253 49 L255 50 L257 56 L255 60 L251 59 Z"/></svg>
