<svg xmlns="http://www.w3.org/2000/svg" width="512" height="512" viewBox="0 0 512 512" aria-hidden="true" focusable="false"><path fill="currentColor" fill-rule="evenodd" clip-rule="evenodd" d="M254 354 L254 359 L257 360 L261 359 L260 353 Z M251 17 L236 24 L222 42 L222 68 L233 85 L201 109 L159 156 L120 230 L106 275 L94 348 L93 412 L99 451 L115 475 L163 490 L212 495 L300 495 L367 487 L397 475 L407 465 L415 444 L419 351 L407 275 L388 217 L369 179 L330 126 L311 109 L319 93 L294 66 L296 49 L291 35 L278 22 Z M248 480 L250 479 L256 484 L259 484 L265 480 L266 483 L260 488 L256 489 L248 483 Z M274 482 L274 480 L278 476 L281 476 L283 478 L281 481 L277 483 Z M233 476 L237 477 L239 482 L235 483 L231 480 Z M302 470 L304 469 L305 471 L303 472 Z M273 469 L274 476 L269 481 L268 480 L268 476 L270 474 L269 470 Z M247 472 L250 469 L264 469 L266 471 L266 474 L262 478 L260 478 L258 481 L256 481 L254 478 L249 476 Z M240 469 L245 470 L245 475 L247 478 L245 481 L243 481 L239 475 Z M325 473 L320 475 L318 472 L316 472 L316 476 L320 480 L314 483 L305 483 L300 481 L293 474 L291 470 L296 469 L303 476 L309 478 L312 478 L312 476 L307 471 L312 468 L320 468 Z M187 473 L192 468 L199 468 L203 471 L201 478 L204 478 L209 476 L217 469 L221 470 L215 479 L207 483 L195 482 L194 479 L196 476 L196 472 L194 472 L192 475 Z M371 479 L370 481 L349 485 L338 485 L336 481 L332 481 L333 484 L332 488 L305 489 L304 490 L293 490 L287 488 L286 490 L276 490 L275 491 L265 490 L265 488 L268 485 L280 485 L282 483 L287 483 L285 476 L278 472 L279 470 L283 470 L287 472 L295 481 L303 485 L317 485 L323 481 L323 478 L326 476 L335 478 L335 476 L333 476 L327 469 L329 466 L336 469 L344 477 L350 479 L359 479 L364 477 L367 474 L370 475 Z M363 474 L361 476 L356 477 L348 476 L339 467 L344 466 L349 471 L356 472 L355 466 L361 465 L363 467 L363 469 L361 470 Z M349 466 L351 465 L352 467 L350 468 Z M158 465 L160 464 L163 467 L159 469 Z M364 463 L374 462 L378 464 L380 468 L391 470 L392 472 L386 476 L374 478 L371 475 L372 471 L370 471 Z M119 470 L129 468 L133 469 L133 466 L139 462 L153 463 L156 466 L154 472 L162 471 L168 466 L171 466 L172 468 L168 473 L160 477 L151 476 L148 473 L150 469 L149 466 L146 469 L141 466 L136 471 L137 474 L142 473 L152 479 L163 479 L169 476 L174 470 L183 466 L184 471 L179 476 L177 476 L177 478 L188 477 L189 480 L196 485 L213 484 L219 480 L223 473 L229 470 L234 470 L235 472 L229 475 L225 483 L230 483 L238 487 L245 484 L250 490 L227 490 L225 486 L220 490 L179 488 L178 485 L181 483 L181 481 L178 481 L174 485 L150 483 L126 476 Z M378 461 L378 459 L380 458 L386 462 L389 462 L389 459 L387 459 L385 456 L390 451 L395 452 L396 456 L398 456 L400 453 L405 452 L407 453 L406 457 L400 465 L398 464 L398 459 L394 459 L394 464 L392 466 L383 465 Z M106 454 L112 453 L115 456 L117 456 L117 453 L121 451 L124 452 L126 455 L126 458 L123 459 L123 462 L127 462 L132 458 L134 458 L135 461 L127 466 L121 466 L118 463 L118 459 L114 459 L113 461 L116 465 L116 467 L114 468 L107 458 Z M102 440 L104 439 L105 441 L103 442 Z M108 437 L112 440 L117 440 L119 442 L118 444 L116 444 L117 447 L116 450 L113 451 L107 450 L103 446 L104 443 L111 446 L111 444 L107 440 Z M105 425 L106 426 L104 437 L102 438 L100 436 L100 427 Z M139 426 L146 418 L162 430 L180 433 L332 433 L353 429 L368 418 L374 435 L368 445 L340 452 L309 455 L203 455 L148 447 L139 437 Z M404 416 L407 418 L407 420 L400 424 L400 426 L403 427 L404 432 L402 434 L399 434 L396 437 L394 435 L395 422 L399 417 Z M199 428 L228 424 L254 416 L255 414 L261 414 L263 416 L280 420 L285 423 L307 427 L315 427 L316 429 L315 430 L200 430 Z M108 414 L117 421 L119 429 L119 434 L117 437 L114 437 L113 433 L109 432 L109 428 L113 427 L113 425 L105 419 Z M413 409 L414 410 L414 421 L411 424 L413 426 L413 431 L411 433 L411 439 L409 446 L405 450 L401 451 L395 449 L396 445 L391 444 L395 440 L401 440 L403 437 L405 437 L406 439 L403 445 L406 445 L408 439 L407 425 L409 423 L407 414 Z M99 409 L105 413 L103 424 L99 422 L98 416 Z M396 391 L398 390 L402 396 L399 397 Z M116 389 L117 393 L113 397 L111 393 Z M247 375 L248 374 L263 374 L264 376 L258 381 L251 380 Z M181 376 L184 374 L190 374 L193 371 L206 371 L216 374 L228 375 L230 377 L241 377 L249 382 L250 384 L240 386 L223 384 L221 382 L208 380 L196 380 L195 379 L182 380 Z M288 369 L292 368 L293 370 L289 371 Z M413 365 L415 367 L415 399 L413 404 L406 411 L401 412 L396 416 L395 415 L396 402 L398 400 L403 400 L408 398 L408 395 L410 394 L409 385 L407 385 L406 391 L401 390 L403 383 L410 378 L410 374 L408 374 L408 376 L403 379 L399 384 L396 383 L396 380 L406 369 Z M99 364 L109 371 L115 377 L117 381 L117 387 L115 388 L113 384 L102 374 L102 378 L111 386 L110 392 L107 392 L104 389 L104 387 L102 387 L103 401 L105 403 L107 400 L115 400 L117 402 L117 405 L115 406 L117 411 L116 415 L104 409 L98 401 L98 365 Z M369 392 L369 406 L365 414 L353 423 L344 425 L302 423 L267 412 L269 407 L306 388 L323 384 L344 385 L338 380 L337 374 L319 366 L325 362 L349 369 L364 382 Z M143 402 L145 388 L150 381 L165 369 L183 362 L196 366 L180 372 L170 385 L190 382 L244 390 L260 385 L273 375 L314 369 L335 378 L307 384 L256 411 L214 423 L159 423 L146 412 Z M294 368 L295 366 L300 364 L302 361 L308 361 L313 364 L310 367 L299 369 Z M202 365 L204 362 L211 360 L219 366 L225 368 L227 371 L226 372 L218 371 L217 369 L203 367 Z M395 350 L397 349 L399 352 L396 353 Z M113 349 L117 348 L118 351 L114 353 Z M102 332 L113 343 L113 347 L107 349 L106 342 L104 342 L103 356 L105 359 L107 359 L106 354 L109 353 L116 357 L117 361 L113 363 L117 369 L116 373 L111 368 L106 366 L99 357 L100 334 Z M409 322 L411 325 L411 333 L413 335 L414 356 L412 360 L397 373 L396 372 L397 364 L395 363 L396 357 L406 354 L407 356 L403 359 L403 361 L405 361 L408 359 L409 356 L408 341 L406 341 L407 346 L406 349 L401 348 L399 345 L403 338 L408 334 L408 331 L406 330 L406 332 L397 340 L396 343 L394 342 L394 336 L398 329 L400 329 Z M103 322 L105 322 L116 331 L119 337 L118 344 L116 343 L115 339 L105 330 L104 331 L102 330 Z M390 309 L393 308 L395 311 L391 313 Z M123 306 L124 308 L121 312 L119 312 L118 310 Z M257 282 L260 283 L268 310 L281 335 L301 357 L291 365 L271 371 L244 371 L224 365 L214 358 L225 348 L240 326 Z M402 278 L404 289 L406 290 L409 312 L406 320 L403 323 L401 323 L398 327 L394 328 L393 327 L394 323 L391 321 L391 317 L400 311 L402 312 L401 316 L404 315 L403 302 L401 302 L400 307 L395 306 L393 304 L395 298 L401 292 L401 288 L398 289 L398 291 L390 301 L388 300 L388 295 L390 290 Z M111 278 L123 290 L125 295 L125 302 L123 303 L120 296 L114 289 L112 289 L112 292 L118 298 L119 305 L114 306 L112 304 L112 301 L110 301 L109 307 L107 309 L110 316 L112 316 L111 313 L112 308 L117 314 L122 316 L122 319 L118 320 L120 325 L119 329 L112 325 L106 319 L104 313 L107 290 L109 289 Z M390 272 L392 271 L393 273 L391 274 Z M381 269 L386 268 L387 270 L382 271 Z M128 269 L131 268 L132 270 L129 271 Z M399 265 L400 266 L399 276 L386 290 L384 285 L385 281 L383 280 L383 276 L388 273 L390 273 L391 276 L394 276 L396 266 Z M120 265 L130 275 L129 278 L124 277 L120 273 L119 270 Z M114 265 L117 266 L118 275 L123 277 L128 283 L129 286 L127 288 L125 288 L113 274 Z M389 238 L391 239 L393 243 L398 263 L396 264 L392 258 L390 259 L390 263 L393 264 L393 267 L391 269 L389 268 L388 265 L384 264 L384 258 L387 256 L387 254 L390 251 L390 245 L388 245 L388 249 L383 254 L380 263 L378 262 L377 259 L378 252 L380 251 L381 247 Z M123 238 L128 242 L135 251 L136 259 L134 264 L132 263 L131 255 L125 249 L125 247 L123 247 L123 251 L128 256 L130 263 L128 265 L122 263 L124 256 L122 256 L117 264 L115 263 L119 246 Z M368 230 L372 229 L373 231 L369 232 Z M145 227 L146 228 L145 231 L142 232 L141 230 Z M134 225 L137 226 L138 232 L143 237 L141 241 L137 239 L136 236 L133 234 Z M386 225 L387 235 L378 247 L375 248 L374 246 L376 241 L372 241 L371 236 L376 232 L376 225 L379 224 L381 229 L380 234 L377 236 L377 238 L382 236 L383 226 Z M129 223 L131 224 L130 227 L131 236 L137 239 L137 242 L139 245 L138 249 L135 247 L126 235 L126 227 L128 226 Z M212 211 L216 213 L217 222 L219 224 L217 227 L217 235 L219 237 L219 243 L223 257 L225 258 L224 263 L221 262 L216 256 L215 238 L212 226 L210 224 L210 213 Z M303 210 L306 213 L306 224 L303 237 L301 239 L299 259 L293 263 L291 260 L298 242 L299 232 L298 224 L300 212 Z M372 197 L374 198 L384 221 L382 223 L378 218 L376 218 L377 221 L376 225 L370 224 L370 219 L375 212 L375 208 L372 208 L371 213 L368 217 L368 220 L366 222 L363 221 L364 210 L370 203 Z M140 197 L142 198 L144 204 L148 207 L151 215 L151 220 L147 228 L145 227 L146 219 L143 214 L142 208 L139 208 L138 211 L143 219 L143 224 L141 226 L136 224 L137 218 L135 218 L133 222 L131 223 L129 222 Z M350 194 L353 193 L354 195 L351 196 Z M237 167 L249 163 L275 165 L296 186 L296 232 L286 275 L322 326 L305 298 L305 279 L299 290 L291 278 L290 266 L298 265 L307 249 L321 258 L331 273 L341 318 L337 345 L325 359 L308 358 L287 337 L259 275 L261 198 L265 226 L267 198 L271 198 L272 226 L274 198 L278 199 L279 226 L281 200 L285 201 L290 235 L287 198 L276 193 L239 193 L228 201 L227 236 L232 201 L236 225 L238 201 L242 198 L241 224 L245 224 L245 200 L249 198 L252 225 L252 201 L256 198 L255 274 L232 332 L216 351 L201 360 L189 358 L178 344 L178 295 L191 263 L212 249 L214 261 L227 266 L217 290 L212 280 L210 299 L197 314 L193 327 L228 280 L230 263 L221 236 L219 194 L223 181 Z M163 162 L165 164 L165 167 L168 169 L171 182 L169 186 L165 183 L165 180 L162 175 L162 170 L160 170 L159 176 L163 182 L163 189 L159 191 L158 189 L155 188 L155 184 L152 184 L152 189 L149 190 L150 199 L152 199 L151 192 L153 191 L156 196 L161 200 L159 203 L154 202 L156 209 L153 212 L150 205 L146 202 L144 197 L144 190 L146 185 L152 177 L152 175 L155 173 L158 166 Z M350 161 L356 167 L357 171 L361 175 L369 190 L368 201 L365 203 L361 211 L358 210 L357 208 L358 203 L354 202 L354 198 L357 197 L357 195 L360 192 L362 192 L363 194 L361 199 L363 199 L365 191 L362 190 L362 185 L358 180 L356 180 L358 189 L353 191 L350 188 L352 178 L355 174 L354 170 L351 170 L351 176 L349 178 L348 188 L346 189 L343 184 L343 175 L348 168 Z M199 144 L203 143 L205 146 L203 148 L200 148 Z M314 141 L316 142 L315 150 L309 146 Z M224 148 L249 139 L257 143 L264 139 L276 141 L307 161 L341 204 L361 246 L374 292 L383 375 L379 430 L371 415 L374 394 L367 378 L334 359 L344 334 L342 293 L330 262 L305 244 L311 214 L301 205 L300 186 L287 167 L263 158 L239 161 L217 184 L214 205 L206 215 L212 243 L184 266 L172 304 L172 338 L182 358 L159 368 L144 382 L139 392 L142 415 L132 430 L131 350 L145 270 L164 220 L183 188 Z M325 138 L326 142 L323 147 L323 156 L321 157 L318 152 L318 143 L321 138 Z M194 137 L196 136 L197 138 L195 139 Z M325 130 L335 139 L346 154 L346 164 L339 177 L333 171 L331 166 L333 162 L335 161 L337 155 L341 159 L339 162 L339 165 L342 165 L343 157 L338 150 L333 146 L331 146 L331 148 L335 153 L331 154 L332 158 L331 161 L326 159 L325 151 L329 143 L329 137 L327 135 L325 136 L323 135 L323 132 Z M230 134 L249 131 L246 137 L219 147 L191 171 L165 210 L143 264 L133 305 L126 366 L130 436 L136 445 L147 451 L200 458 L341 456 L369 450 L382 437 L387 397 L380 304 L367 252 L341 196 L319 167 L297 148 L269 137 L266 131 L271 130 L299 142 L332 174 L354 208 L375 258 L387 309 L393 360 L393 411 L389 440 L375 456 L351 462 L311 465 L200 465 L140 457 L125 444 L120 419 L120 360 L126 310 L139 257 L156 215 L176 181 L198 156 Z M189 129 L191 131 L191 137 L195 139 L196 150 L194 156 L192 157 L190 146 L188 143 L188 137 L184 138 L184 142 L188 148 L188 159 L186 161 L182 159 L183 154 L180 153 L182 146 L180 146 L173 152 L171 155 L171 163 L173 166 L175 166 L174 163 L175 155 L180 159 L180 163 L182 165 L181 170 L176 169 L177 175 L174 176 L167 163 L167 154 L171 150 L171 148 L175 145 L175 143 L181 138 L181 136 Z M256 127 L259 127 L264 133 L259 139 L255 138 L252 135 Z M319 125 L321 124 L322 127 L320 128 Z M257 118 L260 120 L259 124 L256 122 Z M298 106 L303 107 L311 115 L311 122 L316 123 L317 127 L316 136 L310 141 L303 141 L297 135 L300 131 L304 129 L306 130 L304 138 L306 138 L309 135 L310 129 L306 120 L304 120 L304 125 L301 128 L297 128 L293 134 L290 134 L285 131 L285 129 L293 122 L295 118 L300 120 L300 118 L297 115 Z M218 102 L220 111 L219 114 L215 118 L215 120 L220 119 L230 130 L223 134 L218 128 L212 127 L212 125 L210 124 L212 120 L209 119 L206 127 L206 134 L208 138 L210 138 L208 131 L211 130 L216 134 L216 137 L212 141 L205 141 L200 137 L197 129 L199 127 L199 124 L201 122 L204 122 L203 119 L204 114 Z M257 99 L262 101 L270 109 L272 114 L271 120 L266 125 L263 124 L264 121 L259 113 L257 113 L254 117 L252 125 L248 124 L245 121 L245 111 Z M236 109 L238 108 L240 103 L258 86 L278 106 L280 110 L280 117 L278 122 L274 124 L273 123 L274 121 L273 108 L259 94 L257 94 L241 112 L242 122 L241 123 L236 119 L235 116 Z M223 105 L232 92 L235 92 L238 95 L240 95 L239 91 L240 85 L245 80 L247 80 L251 75 L259 71 L261 75 L277 90 L277 95 L281 93 L285 98 L291 101 L293 108 L293 115 L286 125 L282 127 L279 126 L284 116 L283 108 L261 85 L259 80 L257 80 L253 87 L236 103 L233 108 L233 119 L237 125 L236 127 L229 125 L226 122 L225 118 L223 117 L222 112 Z M255 57 L258 54 L264 54 L272 57 L275 60 L274 62 L269 59 L266 59 L266 61 L284 79 L303 92 L306 92 L305 88 L303 88 L290 77 L291 73 L293 72 L296 73 L311 87 L314 94 L314 100 L308 104 L293 98 L284 91 L265 72 L259 64 L258 65 L255 64 L254 61 Z M268 38 L274 44 L277 49 L277 53 L274 54 L268 50 L263 49 L256 50 L251 55 L252 69 L246 70 L241 64 L239 57 L242 44 L247 39 L254 36 L263 36 Z M229 38 L238 28 L240 28 L244 24 L251 22 L270 23 L284 34 L288 40 L288 43 L290 44 L290 66 L288 67 L286 72 L280 69 L279 64 L281 60 L281 49 L279 43 L273 36 L267 33 L263 33 L262 31 L255 31 L244 36 L235 48 L236 64 L245 74 L237 81 L229 72 L226 64 L225 52 Z"/></svg>
