<svg xmlns="http://www.w3.org/2000/svg" width="512" height="512" viewBox="0 0 512 512" aria-hidden="true" focusable="false"><path fill="currentColor" fill-rule="evenodd" clip-rule="evenodd" d="M229 283 L227 302 L225 303 L225 311 L238 324 L251 329 L262 329 L274 325 L288 311 L288 301 L286 299 L284 282 L282 280 L279 280 L276 286 L273 299 L273 316 L265 322 L246 321 L240 316 L240 310 L242 306 L240 304 L239 293 L235 281 L231 280 Z M279 304 L281 305 L280 310 L278 309 Z M233 301 L235 302 L234 309 L232 308 Z M212 164 L178 192 L159 235 L151 457 L156 462 L357 462 L362 456 L355 247 L339 198 L317 174 L289 159 L250 154 Z M168 443 L174 437 L339 437 L345 443 L346 456 L169 457 Z M176 420 L182 412 L331 412 L337 419 L337 426 L334 431 L179 431 Z M183 396 L189 387 L324 387 L329 391 L330 401 L326 406 L187 406 L184 404 Z M191 368 L198 361 L315 361 L321 364 L322 376 L318 381 L195 381 L191 376 Z M196 341 L205 332 L218 330 L226 331 L231 335 L248 341 L270 340 L285 334 L287 331 L297 330 L313 335 L317 341 L317 348 L310 355 L204 355 L197 350 Z M250 253 L263 253 L268 259 L288 266 L294 277 L298 307 L296 316 L287 325 L269 334 L249 335 L237 331 L217 316 L215 308 L222 271 L228 265 L245 259 Z M270 251 L272 250 L273 253 L271 254 Z M240 253 L241 250 L244 251 L242 254 Z M255 205 L267 209 L271 216 L270 237 L266 242 L266 244 L261 248 L251 247 L245 241 L242 231 L243 214 L247 209 Z M256 189 L259 191 L260 195 L259 199 L253 198 Z M221 167 L248 161 L292 167 L319 184 L340 215 L350 265 L354 456 L350 439 L342 431 L341 412 L334 406 L335 390 L327 381 L329 367 L320 356 L324 339 L312 327 L298 324 L304 312 L298 270 L290 260 L274 254 L281 223 L275 209 L266 202 L259 172 L254 173 L248 201 L239 208 L232 224 L239 254 L223 260 L214 274 L210 315 L215 324 L201 327 L189 340 L193 356 L184 368 L186 382 L178 390 L179 406 L169 422 L171 431 L163 439 L162 456 L157 455 L167 230 L187 191 Z M250 17 L240 22 L228 39 L228 55 L238 69 L235 76 L218 92 L202 96 L192 111 L180 113 L171 122 L138 123 L123 139 L118 477 L123 488 L140 496 L374 496 L388 489 L395 477 L390 138 L375 123 L342 122 L334 113 L321 111 L307 93 L295 92 L290 82 L276 72 L286 51 L283 32 L269 19 Z M149 147 L243 144 L257 134 L271 144 L349 144 L366 149 L369 472 L142 470 Z M135 132 L143 128 L176 128 L187 117 L192 117 L202 131 L218 132 L225 124 L220 111 L210 115 L219 118 L216 126 L206 126 L199 119 L199 108 L212 98 L234 108 L245 123 L245 134 L237 139 L150 139 L141 148 L135 467 L145 479 L368 479 L376 473 L372 147 L364 139 L276 139 L269 135 L268 123 L282 106 L301 98 L312 105 L315 116 L308 126 L300 127 L294 119 L303 114 L292 112 L288 123 L295 132 L311 131 L322 117 L328 117 L339 128 L370 128 L381 135 L385 143 L388 477 L381 487 L139 489 L127 482 L128 146 Z M256 86 L259 88 L259 90 L263 94 L263 97 L268 98 L269 102 L269 110 L264 116 L263 124 L261 125 L260 130 L257 128 L254 130 L252 129 L252 123 L250 121 L250 118 L244 110 L245 99 L252 95 L253 90 Z M225 92 L232 83 L235 83 L237 85 L240 85 L242 83 L243 73 L257 57 L273 77 L273 85 L281 83 L288 91 L288 95 L276 103 L274 101 L273 95 L271 94 L270 91 L266 90 L265 86 L259 77 L256 77 L249 85 L247 90 L242 93 L238 103 L225 95 Z M248 39 L256 35 L262 36 L268 43 L268 50 L265 54 L263 54 L259 49 L255 49 L252 52 L252 54 L249 55 L245 49 L245 45 Z M245 26 L250 24 L263 24 L270 27 L276 33 L280 42 L280 51 L278 57 L272 65 L268 61 L274 51 L273 39 L267 32 L262 30 L248 31 L242 37 L242 39 L240 40 L239 48 L240 53 L244 58 L245 62 L242 65 L239 63 L239 61 L234 54 L233 48 L234 40 L237 34 Z"/></svg>
