<svg xmlns="http://www.w3.org/2000/svg" width="512" height="512" viewBox="0 0 512 512" aria-hidden="true" focusable="false"><path fill="currentColor" fill-rule="evenodd" clip-rule="evenodd" d="M164 387 L164 389 L169 391 L181 393 L181 391 L176 391 L167 387 Z M336 285 L336 286 L341 286 L341 285 Z M181 265 L179 269 L178 281 L179 281 Z M190 241 L188 241 L186 248 L183 250 L183 254 L180 256 L181 259 L183 258 L183 255 L187 251 Z M197 213 L197 215 L203 216 L205 215 L202 213 Z M267 126 L267 132 L270 132 L271 128 L275 129 L275 127 Z M256 16 L245 39 L216 72 L213 84 L209 76 L189 101 L181 128 L173 126 L169 161 L184 196 L189 197 L187 207 L178 211 L181 198 L165 184 L164 173 L154 166 L154 198 L136 232 L135 248 L141 267 L153 285 L165 290 L161 324 L169 340 L117 348 L126 334 L135 340 L147 334 L153 309 L147 286 L140 277 L130 276 L118 258 L115 290 L108 303 L110 318 L115 319 L111 324 L95 320 L100 328 L98 356 L111 386 L96 391 L108 403 L118 430 L130 441 L157 447 L166 455 L183 447 L208 471 L236 472 L256 497 L275 472 L301 472 L318 461 L328 447 L346 455 L355 447 L382 441 L393 431 L406 399 L416 391 L399 388 L413 360 L412 328 L417 321 L400 322 L404 303 L397 290 L395 259 L391 259 L380 277 L362 287 L358 314 L366 320 L361 322 L365 334 L382 340 L375 348 L357 347 L352 341 L351 287 L368 271 L377 244 L375 230 L358 198 L358 166 L348 172 L346 184 L336 191 L332 202 L323 199 L342 161 L338 125 L330 127 L325 106 L268 40 Z M265 470 L266 477 L259 483 L257 477 Z M246 470 L254 477 L254 482 L259 483 L256 488 L246 478 L247 474 L245 473 Z M218 470 L221 466 L228 467 L226 471 Z M268 462 L273 463 L273 469 L271 472 L268 471 L269 469 L266 467 Z M250 463 L252 462 L255 466 L258 462 L262 462 L263 463 L261 465 L262 469 L252 472 L249 469 Z M239 462 L244 463 L243 468 L241 470 L238 469 Z M203 460 L206 459 L216 464 L218 469 L214 470 L209 468 L202 463 Z M207 454 L211 453 L213 457 L215 455 L223 457 L224 460 L226 460 L227 457 L232 457 L235 461 L231 463 L216 462 L209 458 Z M307 451 L307 453 L302 458 L295 462 L279 463 L276 461 L280 457 L288 458 L293 456 L302 449 Z M197 449 L203 456 L201 460 L199 460 L193 453 Z M244 448 L246 449 L245 453 L243 452 Z M195 447 L197 446 L198 448 L196 449 Z M264 444 L266 444 L268 447 L267 452 L265 451 L263 446 Z M317 443 L316 450 L318 450 L319 452 L314 459 L306 466 L294 471 L284 471 L281 469 L282 466 L292 466 L303 461 L313 450 L314 443 L315 442 Z M324 444 L327 441 L329 442 L326 445 Z M256 441 L261 446 L263 451 L260 457 L256 457 L255 459 L253 459 L249 454 L248 450 L250 446 Z M248 441 L249 444 L246 446 L245 443 Z M183 442 L185 441 L186 443 L184 444 Z M360 441 L362 440 L363 442 L361 443 Z M355 441 L358 440 L359 442 L356 443 Z M332 440 L338 439 L339 441 L334 443 Z M235 439 L239 439 L241 443 L240 452 L242 455 L241 459 L236 457 L232 450 L232 448 L234 447 L233 443 Z M152 441 L154 439 L157 440 L156 443 L153 443 Z M366 440 L368 438 L371 438 L373 441 L367 442 Z M173 440 L177 438 L180 441 L176 443 Z M350 437 L351 438 L350 447 L345 451 L340 451 L337 447 L340 446 L341 443 L345 445 L344 442 L345 439 Z M274 437 L277 440 L277 445 L279 446 L279 450 L277 455 L274 458 L269 459 L268 457 L271 452 L271 447 L268 439 Z M139 438 L140 437 L144 438 L147 441 L140 442 Z M256 437 L260 436 L262 439 L259 441 Z M203 436 L206 439 L205 442 L206 450 L205 451 L201 448 L200 444 L201 438 Z M374 436 L377 435 L379 438 L375 440 Z M300 435 L302 436 L307 435 L310 438 L311 446 L309 448 L306 447 L305 440 L301 443 L298 442 L298 437 Z M186 437 L191 435 L196 440 L197 443 L195 444 L193 441 L189 442 L186 439 Z M135 435 L137 436 L136 440 L133 438 Z M207 435 L208 434 L212 435 L214 437 L214 441 L209 442 L207 439 Z M242 432 L246 434 L246 437 L244 439 L241 436 Z M347 434 L345 439 L342 439 L339 437 L331 437 L327 438 L321 443 L319 443 L316 440 L320 435 L329 430 L337 429 L339 433 Z M187 433 L187 435 L184 436 L183 438 L175 436 L170 438 L167 441 L167 445 L169 445 L170 443 L172 444 L172 447 L174 448 L173 450 L166 451 L162 448 L160 444 L161 437 L164 434 L170 433 L172 429 L179 429 Z M123 429 L129 428 L131 430 L130 434 L128 435 Z M382 427 L388 430 L383 436 L379 433 Z M257 424 L261 424 L263 427 L265 427 L270 433 L270 436 L268 439 L265 437 L265 433 L261 433 L258 430 L256 426 Z M326 424 L326 427 L315 436 L313 436 L307 431 L298 432 L294 437 L294 442 L299 447 L295 451 L287 454 L284 454 L283 450 L285 448 L288 448 L289 442 L282 441 L276 433 L276 430 L273 431 L271 429 L277 424 L292 424 L303 427 L309 427 L316 425 L321 427 L323 423 Z M343 423 L342 426 L339 425 L331 426 L330 425 L331 423 L338 422 Z M380 425 L378 429 L374 429 L374 433 L366 438 L359 439 L354 437 L357 433 L367 431 L371 428 L374 421 L376 421 Z M343 425 L345 424 L346 421 L349 420 L357 420 L365 422 L365 426 L359 429 L344 427 Z M180 424 L182 420 L187 420 L188 424 L195 423 L203 426 L210 425 L213 423 L231 424 L235 427 L239 427 L240 429 L238 431 L235 431 L235 433 L229 441 L222 442 L222 445 L225 445 L229 451 L228 454 L224 454 L221 452 L221 450 L216 451 L212 447 L213 445 L216 444 L218 439 L214 432 L207 430 L197 436 L196 431 L191 431 L181 426 Z M132 425 L138 420 L139 426 L142 429 L149 432 L155 432 L157 437 L156 438 L144 437 L138 433 L138 430 L135 430 L132 427 Z M256 419 L257 423 L254 424 L253 430 L250 433 L247 433 L245 428 L246 427 L249 428 L249 425 Z M145 422 L160 419 L174 419 L178 421 L178 424 L154 429 L146 426 Z M117 416 L120 417 L120 420 L123 426 L122 428 L117 422 L116 419 Z M393 415 L396 417 L395 422 L389 429 L388 427 L391 422 L391 416 Z M375 416 L377 415 L378 417 L376 418 Z M221 417 L227 415 L228 419 L227 420 L222 419 Z M384 413 L386 414 L387 419 L389 420 L389 423 L387 426 L381 420 L381 417 Z M329 414 L330 413 L335 414 L338 417 L330 418 Z M195 413 L196 415 L193 417 L192 415 Z M124 412 L126 412 L130 416 L125 425 L123 424 L122 421 L122 415 Z M396 410 L398 411 L397 414 L394 413 Z M280 409 L282 413 L276 419 L274 413 Z M131 411 L133 409 L138 410 L140 412 L140 416 L138 417 L137 415 L133 415 Z M184 409 L187 408 L188 412 L186 413 Z M391 408 L393 407 L394 410 L392 411 Z M207 408 L203 412 L197 411 L198 409 L204 407 Z M145 414 L145 412 L149 408 L158 407 L164 408 L170 407 L175 411 L174 413 L170 414 L164 413 L162 415 L158 415 L156 411 L154 413 L150 412 L149 416 Z M118 408 L120 407 L121 410 L119 411 Z M114 407 L117 410 L116 413 L113 411 Z M372 406 L376 409 L374 412 L370 411 L370 408 Z M236 419 L238 414 L247 406 L264 406 L267 409 L267 412 L269 411 L271 412 L272 423 L267 424 L258 416 L256 412 L244 424 L238 424 L236 422 Z M182 406 L184 405 L185 408 L183 409 Z M112 405 L114 404 L115 406 L113 407 Z M111 396 L113 395 L118 402 L112 404 L111 402 L113 399 L111 398 Z M403 393 L404 395 L398 400 L400 403 L400 406 L397 409 L396 408 L397 405 L394 404 L394 401 L399 395 Z M289 385 L290 387 L286 389 L285 387 Z M241 382 L245 386 L242 392 L242 396 L238 409 L235 411 L235 414 L233 416 L229 413 L226 414 L225 413 L226 411 L234 409 L233 407 L234 404 L232 403 L231 399 L238 383 Z M323 379 L325 378 L326 381 L324 382 Z M283 380 L277 404 L274 410 L270 407 L269 400 L266 403 L262 402 L249 402 L244 404 L242 403 L245 390 L250 382 L254 383 L255 380 L258 380 L260 383 L262 383 L266 379 L270 379 L271 382 L273 383 L272 386 L273 388 L278 378 Z M237 377 L238 379 L234 383 L227 399 L218 413 L208 421 L198 420 L196 418 L196 415 L206 412 L214 405 L214 403 L208 408 L204 406 L191 410 L189 409 L189 405 L195 402 L196 400 L198 400 L221 377 L225 378 L228 383 L230 383 L230 380 L233 377 Z M226 376 L228 375 L229 377 L227 378 Z M400 371 L402 370 L403 373 L401 374 Z M329 371 L331 370 L332 373 L330 374 Z M207 370 L209 369 L210 371 L208 372 Z M339 369 L342 368 L343 370 L340 371 Z M327 370 L326 374 L321 374 L320 372 L318 372 L317 375 L308 376 L307 378 L304 378 L298 383 L295 382 L292 385 L288 381 L288 378 L293 375 L295 371 L298 370 L300 372 L300 368 L306 365 L311 365 L312 367 L321 366 L323 370 L325 369 Z M106 366 L108 365 L109 368 L107 369 Z M247 363 L250 362 L251 364 L248 365 Z M177 363 L180 362 L181 364 L178 365 Z M338 361 L339 365 L335 367 L334 363 Z M185 358 L186 357 L191 358 L193 361 L192 362 L187 361 Z M332 356 L333 360 L328 362 L327 359 Z M397 356 L399 355 L400 357 L398 358 Z M174 354 L178 353 L181 356 L178 357 L175 356 Z M160 354 L162 353 L165 354 L166 356 L161 357 Z M409 351 L410 355 L408 363 L405 364 L404 363 L405 354 L407 351 Z M392 351 L395 352 L394 357 L391 355 Z M395 366 L397 374 L395 391 L391 396 L390 390 L379 407 L375 403 L383 391 L365 409 L352 415 L326 411 L328 413 L326 418 L294 408 L297 416 L312 420 L303 423 L290 417 L281 404 L285 403 L285 398 L289 403 L291 402 L288 394 L292 391 L307 403 L299 392 L300 387 L331 409 L360 396 L359 394 L344 401 L328 401 L313 394 L307 387 L309 383 L337 385 L330 383 L329 378 L366 371 L366 369 L359 372 L353 368 L345 369 L345 366 L352 362 L366 360 L360 358 L343 363 L342 359 L351 356 L351 352 L377 352 L390 359 Z M330 351 L331 354 L325 357 L324 354 Z M339 351 L342 350 L345 355 L340 357 Z M244 351 L248 350 L249 354 L245 355 Z M178 350 L180 349 L181 351 L179 352 Z M164 350 L165 349 L170 350 L171 352 L167 353 Z M109 351 L111 348 L114 349 L113 353 L110 353 Z M399 347 L401 348 L400 353 L398 352 Z M153 348 L158 347 L159 349 L154 350 Z M380 347 L387 346 L389 351 L388 352 L383 351 L380 349 Z M167 347 L169 346 L170 348 L168 349 Z M150 347 L152 346 L153 348 L151 349 Z M113 367 L122 352 L132 347 L143 346 L154 350 L156 355 L153 357 L142 355 L142 357 L174 361 L175 364 L169 367 L205 369 L204 375 L183 382 L196 380 L214 372 L217 373 L217 377 L201 393 L188 399 L178 399 L177 403 L157 396 L146 387 L145 389 L156 398 L156 401 L145 399 L140 403 L124 385 L126 396 L132 399 L129 403 L122 396 L119 386 L114 384 Z M345 344 L348 343 L349 345 L346 346 Z M103 343 L107 344 L106 349 L107 360 L106 361 L103 360 L102 356 L102 344 Z M389 343 L390 342 L393 343 L394 346 L391 348 L389 346 Z M112 342 L115 343 L113 346 L110 345 Z M214 342 L216 341 L218 344 L215 345 Z M168 342 L170 341 L171 343 L169 344 Z M289 340 L292 341 L292 345 L290 347 L287 346 Z M105 341 L107 340 L108 342 L106 343 Z M339 339 L341 338 L342 341 L340 342 Z M222 336 L225 337 L223 341 L220 339 Z M208 337 L210 336 L211 339 L209 340 Z M407 335 L409 336 L410 348 L404 349 L403 346 L405 345 L405 342 L403 342 L402 340 L406 339 Z M395 335 L397 335 L400 341 L399 345 L396 342 L394 337 Z M384 338 L386 334 L389 336 L386 339 Z M114 335 L116 334 L118 337 L115 338 Z M103 335 L105 334 L106 336 L104 337 Z M399 333 L404 332 L405 334 L400 335 Z M391 327 L394 329 L392 333 L389 332 Z M380 328 L383 327 L384 329 L381 330 Z M328 333 L328 335 L325 336 L325 341 L327 343 L321 349 L311 356 L309 356 L307 353 L303 357 L304 360 L302 362 L295 362 L292 365 L289 365 L287 369 L283 369 L282 366 L279 366 L271 372 L265 371 L260 373 L243 373 L236 371 L235 369 L229 369 L231 366 L250 369 L263 366 L272 360 L276 360 L276 358 L272 357 L258 360 L258 355 L261 354 L264 356 L264 352 L276 348 L282 348 L296 352 L299 348 L298 344 L305 333 L313 327 L321 328 Z M128 328 L131 327 L132 329 L129 330 Z M142 326 L144 332 L140 336 L135 336 L133 334 L133 331 L138 330 L138 327 Z M374 324 L376 325 L374 330 L377 331 L378 334 L377 336 L372 336 L368 332 L369 327 Z M392 323 L395 322 L398 325 L399 329 L396 330 Z M289 321 L293 323 L293 337 L291 338 L287 336 L287 338 L285 339 L281 324 L282 323 L287 324 L287 322 Z M268 322 L270 321 L271 323 L269 324 Z M375 322 L377 320 L380 320 L385 322 L386 324 L376 325 Z M297 320 L300 322 L299 329 L296 327 Z M143 321 L145 320 L146 322 L144 323 Z M131 321 L135 320 L137 324 L133 325 Z M229 340 L234 325 L238 323 L239 326 L242 327 L241 329 L242 334 L243 326 L247 319 L254 321 L253 331 L256 332 L254 334 L255 339 L257 339 L259 331 L258 321 L264 319 L265 320 L264 324 L268 325 L269 330 L270 327 L273 326 L272 322 L274 321 L276 323 L275 329 L279 330 L282 345 L259 350 L255 348 L242 347 L230 343 Z M238 319 L240 318 L241 320 L239 321 Z M283 316 L284 317 L283 320 L279 321 L277 319 L278 317 Z M383 317 L388 315 L391 319 L389 321 L385 321 Z M232 315 L233 317 L230 320 L228 320 L227 318 Z M194 316 L196 315 L197 318 L195 319 Z M265 314 L267 313 L268 315 L266 316 Z M244 314 L246 313 L247 315 L245 316 Z M227 314 L223 320 L229 321 L230 324 L218 337 L214 336 L213 332 L211 333 L204 332 L204 328 L210 323 L212 323 L214 327 L216 326 L215 322 L213 321 L216 317 L224 313 Z M216 314 L215 317 L209 323 L206 324 L202 323 L201 320 L202 318 L206 318 L208 316 L211 317 L212 314 L214 313 Z M128 313 L129 317 L125 318 L125 320 L129 322 L130 324 L122 328 L123 332 L120 334 L116 329 L113 330 L112 328 L114 326 L118 326 L117 321 L118 320 L121 321 L121 318 L125 314 Z M206 312 L207 315 L202 317 L201 314 L203 312 Z M252 311 L259 310 L260 316 L253 317 Z M122 310 L124 309 L125 311 L123 312 Z M294 307 L296 308 L295 312 L292 311 Z M215 307 L218 306 L219 309 L216 310 Z M224 306 L226 305 L229 308 L225 309 Z M267 305 L269 304 L270 306 L268 307 Z M238 304 L240 303 L241 305 L239 306 Z M111 306 L113 303 L122 304 L122 308 L116 310 L113 310 Z M365 302 L369 304 L373 314 L376 317 L375 319 L369 318 L364 313 L362 305 Z M168 302 L170 303 L169 307 L167 306 Z M396 301 L398 302 L398 305 L400 306 L400 311 L397 314 L393 311 L393 309 L389 311 L387 310 L387 306 Z M213 301 L215 302 L214 306 L212 305 Z M149 301 L150 302 L149 311 L144 317 L141 319 L137 319 L136 316 L142 308 L143 301 L144 300 L146 302 Z M239 302 L240 299 L245 300 L243 303 Z M199 299 L201 302 L200 307 L198 308 L198 312 L194 313 L193 307 L195 300 Z M382 299 L384 298 L385 301 L383 302 Z M127 299 L129 298 L130 301 L128 302 Z M391 297 L392 299 L388 301 L387 299 Z M247 305 L247 302 L252 297 L254 297 L255 299 L261 298 L264 301 L260 307 L256 306 L249 307 Z M120 298 L123 297 L125 300 L123 301 Z M116 295 L118 294 L119 296 L117 297 Z M375 293 L380 294 L378 298 L378 305 L381 312 L379 315 L376 313 L372 305 L372 298 Z M198 292 L200 293 L199 297 L197 296 Z M246 290 L247 292 L244 294 L243 292 Z M382 288 L383 290 L382 293 L380 294 L378 290 Z M238 288 L239 292 L235 296 L233 296 L231 293 Z M127 288 L131 288 L138 294 L140 300 L140 304 L136 306 L138 310 L133 316 L131 315 L131 310 L134 304 L134 299 L130 291 L127 294 L123 293 L123 290 Z M130 285 L132 284 L133 286 L131 287 Z M136 283 L139 283 L145 289 L147 293 L146 297 L142 297 L139 291 L135 288 Z M161 283 L164 282 L166 285 L164 286 Z M351 280 L353 279 L354 282 L352 283 Z M156 279 L158 278 L159 281 L157 282 Z M129 279 L130 281 L123 290 L120 291 L118 289 L119 285 L124 283 L125 278 Z M248 277 L250 276 L251 279 L249 280 Z M120 276 L123 275 L124 278 L121 279 Z M345 274 L347 275 L346 279 L344 278 Z M151 275 L154 274 L155 277 L153 278 Z M161 274 L163 273 L167 277 L166 278 L162 277 Z M390 272 L392 274 L394 281 L390 282 L388 279 L388 283 L393 284 L394 289 L389 293 L386 285 L381 286 L373 291 L369 300 L367 301 L365 299 L365 297 L367 296 L365 292 L368 287 L373 283 L376 283 L378 285 L379 282 L386 277 L387 273 Z M157 270 L159 269 L162 273 L160 274 Z M361 268 L364 269 L363 273 L359 272 Z M206 267 L207 270 L204 272 L202 269 Z M147 268 L149 267 L153 271 L149 274 L147 271 Z M122 266 L124 267 L123 271 L121 270 Z M154 266 L156 265 L158 269 L156 270 Z M358 264 L359 266 L354 271 L353 268 L355 267 L356 264 Z M341 256 L345 259 L345 263 L340 280 L347 283 L347 288 L343 299 L337 301 L337 305 L348 305 L350 307 L350 311 L347 317 L339 317 L340 324 L347 329 L342 330 L339 327 L338 329 L340 334 L335 336 L334 331 L331 331 L321 324 L313 323 L307 325 L306 323 L310 319 L317 316 L329 318 L325 315 L309 315 L316 310 L330 309 L332 314 L335 314 L336 312 L340 314 L341 313 L331 307 L322 305 L321 302 L315 302 L316 297 L330 297 L330 295 L326 296 L316 294 L315 288 L327 279 L332 272 L338 257 Z M362 256 L364 255 L365 257 L363 258 Z M256 254 L258 253 L259 255 L257 256 Z M150 253 L152 254 L153 258 L152 261 L150 260 L149 257 Z M140 252 L142 251 L143 253 L141 254 Z M371 250 L372 251 L369 260 L367 261 L366 258 L369 251 Z M144 250 L146 249 L147 251 L145 252 Z M360 248 L362 247 L363 249 L361 250 Z M371 239 L373 240 L372 246 L370 245 Z M331 239 L332 244 L328 254 L326 255 L325 253 L329 240 Z M149 239 L151 238 L152 240 L150 241 Z M140 235 L142 236 L142 242 L144 242 L145 237 L147 238 L147 242 L145 245 L142 245 L141 251 L139 250 L139 236 Z M145 234 L146 231 L149 232 L147 235 Z M356 228 L359 230 L362 236 L361 240 L359 239 L359 236 L355 230 Z M155 228 L156 231 L153 237 L151 238 L150 234 L152 230 Z M367 227 L369 227 L372 233 L371 237 L369 236 L366 229 Z M144 227 L145 229 L141 233 L140 232 L141 228 Z M344 226 L346 226 L354 234 L358 243 L358 253 L353 263 L349 261 L349 255 L345 241 L345 233 L343 229 Z M255 225 L256 227 L246 236 L251 237 L253 231 L256 231 L257 235 L242 253 L259 237 L262 238 L263 241 L245 264 L247 265 L251 259 L256 262 L244 280 L247 285 L244 288 L240 288 L239 284 L234 284 L235 287 L221 296 L213 297 L212 294 L208 293 L209 291 L225 286 L221 284 L211 288 L209 284 L203 281 L211 279 L221 273 L220 271 L212 276 L205 276 L209 266 L228 252 L211 261 L207 256 L243 229 L247 230 L249 225 Z M171 225 L172 227 L169 240 L169 250 L170 251 L169 265 L167 267 L162 267 L156 260 L154 255 L154 241 L158 233 L167 225 Z M148 226 L150 225 L151 228 L149 229 Z M265 224 L266 226 L263 229 L261 229 L260 227 L263 224 Z M336 222 L338 224 L341 234 L340 251 L343 252 L344 254 L336 257 L335 263 L330 272 L324 279 L320 279 L319 274 L327 262 L334 240 L334 233 L332 233 L331 230 L333 227 L333 224 Z M365 221 L368 224 L367 226 L363 227 L366 232 L368 241 L366 252 L364 251 L364 238 L362 231 L360 229 L360 226 Z M348 223 L351 221 L354 225 L350 226 Z M339 217 L342 216 L343 219 L341 220 Z M264 216 L266 219 L257 226 L256 225 L257 220 L262 216 Z M175 217 L174 219 L172 219 L170 223 L165 223 L162 225 L159 223 L161 220 L164 219 L167 220 L169 216 Z M241 213 L243 212 L244 215 L242 216 Z M270 211 L271 214 L268 216 L266 213 Z M161 211 L166 210 L167 213 L165 214 L162 213 Z M157 211 L158 216 L155 222 L144 226 L143 224 L146 220 L149 219 L151 212 L153 210 Z M354 210 L358 209 L361 213 L363 218 L363 222 L361 224 L356 223 L356 220 L354 218 L356 214 L353 213 Z M251 208 L256 207 L257 210 L253 212 Z M219 212 L221 210 L226 211 L227 207 L231 208 L231 212 L235 213 L237 210 L239 211 L238 217 L235 219 L229 218 L228 214 L221 215 Z M355 206 L357 205 L358 207 L356 208 Z M153 206 L155 205 L156 207 L154 208 Z M342 202 L346 203 L346 206 L350 211 L349 213 L344 212 L341 206 Z M235 202 L237 201 L241 206 L240 207 L236 206 Z M166 202 L169 201 L170 205 L167 206 Z M230 197 L230 202 L222 205 L217 211 L210 207 L209 213 L215 213 L216 216 L214 219 L209 217 L211 225 L207 234 L213 223 L223 225 L220 217 L231 222 L240 217 L244 225 L240 228 L236 226 L231 234 L208 251 L205 250 L204 254 L196 254 L194 268 L197 270 L193 271 L196 280 L191 301 L187 302 L184 310 L179 305 L176 291 L180 311 L174 313 L182 314 L193 321 L208 344 L205 348 L213 350 L230 346 L243 350 L242 355 L229 355 L238 358 L238 364 L227 362 L220 366 L217 362 L205 361 L198 356 L200 353 L197 350 L193 353 L172 335 L174 326 L168 321 L172 302 L168 301 L172 268 L175 264 L174 234 L176 225 L181 222 L180 217 L185 213 L192 213 L193 209 L202 209 Z M317 197 L319 196 L320 198 L318 199 Z M172 196 L174 196 L176 199 L175 205 L172 204 L171 200 Z M191 195 L195 194 L196 196 L192 197 Z M282 191 L298 195 L300 205 L304 197 L334 209 L310 287 L303 297 L302 289 L314 258 L302 287 L291 300 L288 297 L292 296 L294 287 L282 300 L276 296 L278 288 L271 297 L261 294 L263 287 L258 294 L251 293 Z M298 191 L300 190 L301 192 L299 193 Z M189 191 L191 190 L192 192 L190 193 Z M316 189 L318 188 L319 191 L317 192 Z M233 188 L237 187 L238 189 L234 190 Z M191 188 L193 187 L194 190 L192 191 Z M323 190 L325 186 L328 187 L325 191 Z M271 193 L270 195 L268 195 L266 199 L262 198 L260 201 L255 200 L248 201 L243 198 L243 194 L245 191 L247 191 L249 194 L253 192 L260 194 L261 188 L264 186 L266 186 L270 190 Z M257 187 L259 186 L260 188 L258 189 Z M249 187 L251 186 L252 188 L250 189 Z M243 186 L244 191 L239 194 L238 192 L240 188 Z M271 186 L274 185 L276 187 L276 190 L272 191 Z M187 184 L188 188 L185 191 L183 187 Z M319 185 L321 183 L325 184 L324 187 L320 187 Z M200 182 L204 184 L204 194 L202 197 L198 196 L198 193 L200 191 L199 189 Z M277 180 L279 179 L280 181 L278 182 Z M159 176 L162 178 L160 180 L162 192 L164 193 L167 190 L171 192 L169 194 L170 197 L168 199 L165 199 L163 197 L161 198 L156 195 L155 188 L157 187 L156 183 Z M352 175 L356 187 L355 195 L353 197 L349 197 L346 200 L343 200 L341 198 L339 204 L336 205 L335 201 L337 195 L342 190 L346 191 L348 190 L350 186 L350 176 Z M311 174 L315 176 L312 182 L313 190 L312 196 L309 195 L307 189 L308 179 Z M241 175 L243 174 L246 178 L248 178 L249 175 L252 176 L260 175 L261 177 L264 177 L264 175 L266 174 L269 177 L268 180 L265 179 L264 183 L260 182 L245 183 Z M199 174 L201 175 L201 178 L197 179 L196 176 Z M321 174 L323 173 L324 175 L322 176 Z M186 174 L188 173 L190 176 L187 177 Z M308 171 L309 174 L305 183 L306 193 L304 194 L302 189 L302 182 L305 173 Z M285 172 L288 171 L289 174 L286 176 Z M202 171 L205 173 L209 183 L208 193 L206 192 L205 179 L203 175 L201 174 Z M179 172 L182 171 L183 173 L180 174 Z M222 170 L224 171 L223 175 L220 174 Z M326 172 L328 169 L333 170 L329 174 Z M192 168 L196 170 L194 174 L191 172 Z M318 167 L320 171 L316 173 L315 169 Z M259 168 L263 167 L264 170 L261 171 Z M245 168 L247 167 L249 170 L246 171 Z M292 164 L293 167 L290 169 L289 166 Z M196 164 L198 163 L200 167 L198 168 Z M226 164 L231 162 L238 163 L243 162 L245 165 L237 177 L234 177 L233 172 L226 168 L225 166 Z M318 162 L320 161 L321 163 L319 164 Z M317 157 L318 159 L314 167 L310 169 L309 167 L314 158 Z M240 158 L242 157 L243 159 L241 160 Z M233 157 L237 156 L238 160 L237 161 L234 160 Z M229 156 L230 158 L225 163 L223 159 Z M273 155 L274 157 L271 161 L269 161 L268 157 Z M182 155 L187 157 L189 162 L191 161 L193 163 L192 165 L187 166 L189 168 L188 170 L185 169 L181 164 Z M328 154 L330 156 L330 162 L325 169 L322 169 L321 166 L323 165 L323 157 Z M284 151 L286 159 L284 166 L282 169 L277 172 L275 177 L272 177 L267 171 L265 167 L265 163 L266 162 L272 163 L274 160 L277 160 L277 158 L280 155 L282 155 L282 152 Z M255 151 L257 152 L257 160 L258 161 L261 158 L263 164 L257 168 L256 172 L253 172 L252 168 L250 167 L250 164 L247 162 L247 159 L248 158 L251 159 Z M224 154 L225 150 L229 151 L226 155 Z M186 148 L188 149 L187 153 L184 151 Z M228 144 L230 143 L233 147 L230 148 Z M320 141 L321 142 L320 152 L317 154 L316 153 L317 142 Z M191 141 L193 142 L194 145 L194 153 L197 159 L196 162 L193 160 L190 148 Z M278 139 L280 140 L281 143 L280 151 L275 148 Z M329 138 L333 140 L335 145 L338 146 L339 150 L338 161 L333 167 L330 166 L332 158 L330 152 L331 146 L329 145 L328 141 Z M185 136 L187 135 L188 137 L186 138 Z M331 135 L334 134 L335 138 L333 139 Z M177 134 L179 135 L179 140 L181 139 L183 140 L183 146 L180 147 L180 150 L178 151 L178 153 L180 154 L179 156 L179 162 L181 166 L180 168 L177 168 L175 166 L172 157 L173 147 L177 144 L177 141 L175 139 Z M192 131 L194 132 L193 138 L190 137 Z M235 134 L236 132 L241 132 L242 128 L252 130 L251 132 L248 132 L247 135 L236 135 Z M185 124 L187 124 L189 127 L188 131 L184 130 Z M199 116 L200 118 L196 128 L193 130 L192 127 L196 117 Z M305 105 L309 108 L317 122 L320 131 L319 137 L316 134 L316 130 L310 116 L304 108 Z M207 105 L208 107 L203 111 L202 108 L205 105 Z M227 120 L229 116 L239 108 L244 110 L245 106 L252 104 L253 106 L251 109 L255 107 L260 109 L258 106 L261 104 L263 108 L268 106 L269 109 L274 109 L281 116 L280 123 L283 125 L280 133 L277 134 L274 141 L265 144 L260 143 L259 146 L253 146 L252 144 L248 145 L238 141 L231 143 L229 141 L231 138 L236 136 L242 136 L244 139 L245 137 L257 138 L274 135 L262 135 L255 137 L249 136 L248 134 L253 133 L254 130 L256 133 L261 132 L257 131 L258 128 L237 126 L238 130 L230 134 L228 131 L229 124 Z M212 99 L213 102 L211 104 L208 104 L207 102 Z M291 95 L294 94 L296 99 L295 100 L292 99 Z M218 94 L219 98 L215 100 L214 97 L216 94 Z M208 87 L210 93 L206 100 L207 103 L200 104 L192 120 L189 122 L187 116 L189 108 L195 99 L198 101 L199 100 L200 94 L201 93 L204 94 L206 92 L206 88 Z M303 86 L305 87 L306 90 L305 92 L310 93 L312 96 L312 99 L313 100 L315 99 L322 109 L323 116 L326 119 L327 132 L325 138 L322 135 L322 122 L320 122 L318 119 L319 114 L316 114 L310 106 L310 103 L307 103 L302 97 L301 89 Z M215 86 L219 85 L220 90 L216 91 Z M291 84 L294 84 L296 87 L296 89 L293 92 L291 91 L290 88 Z M299 79 L301 80 L300 85 L298 84 Z M257 48 L283 82 L288 99 L297 105 L308 119 L314 136 L313 152 L302 173 L300 188 L295 191 L288 189 L283 183 L292 176 L300 156 L300 147 L293 142 L293 123 L289 114 L279 105 L263 98 L247 98 L236 102 L219 116 L216 124 L216 142 L209 147 L210 160 L217 176 L226 182 L227 194 L210 200 L211 180 L198 154 L198 131 L209 110 L222 101 L224 89 L231 77 Z M294 80 L290 84 L286 77 L283 76 L268 59 L262 50 L257 37 L255 37 L254 43 L246 56 L226 78 L223 79 L224 82 L221 83 L220 85 L216 82 L223 68 L228 64 L228 62 L247 42 L256 28 L258 29 L262 38 L280 58 L280 60 L286 65 L286 67 L290 71 Z"/></svg>
