<svg xmlns="http://www.w3.org/2000/svg" width="512" height="512" viewBox="0 0 512 512" aria-hidden="true" focusable="false"><path fill="currentColor" fill-rule="evenodd" clip-rule="evenodd" d="M254 17 L245 69 L237 81 L240 98 L247 104 L246 117 L242 122 L235 114 L235 124 L224 146 L225 162 L241 180 L234 187 L223 176 L221 160 L216 158 L206 181 L211 209 L220 211 L216 223 L212 225 L205 217 L199 198 L185 225 L188 248 L195 251 L193 260 L189 262 L183 255 L179 235 L175 235 L163 259 L164 283 L171 286 L165 298 L158 290 L152 268 L138 292 L139 319 L146 321 L139 333 L128 318 L128 306 L124 305 L112 328 L113 354 L120 357 L117 369 L105 359 L103 340 L98 341 L87 364 L88 389 L95 396 L88 401 L76 374 L66 395 L68 418 L61 426 L54 424 L64 417 L61 395 L38 355 L43 332 L30 342 L22 361 L22 377 L33 405 L37 396 L41 402 L29 416 L29 437 L44 454 L44 467 L51 470 L57 496 L84 482 L88 469 L425 469 L430 483 L456 496 L462 470 L469 467 L469 454 L484 436 L484 417 L472 397 L476 396 L480 405 L485 399 L491 375 L489 354 L478 336 L469 332 L474 360 L465 367 L452 394 L448 415 L459 423 L452 426 L445 418 L447 395 L437 374 L425 401 L418 396 L424 389 L426 365 L414 340 L409 341 L407 360 L399 370 L394 366 L393 357 L400 354 L397 349 L401 330 L389 305 L385 305 L378 330 L374 333 L367 321 L373 319 L375 294 L361 268 L355 289 L348 298 L343 294 L342 286 L349 283 L348 253 L334 235 L333 250 L321 262 L318 251 L325 248 L328 229 L315 199 L311 198 L310 213 L300 226 L293 217 L307 194 L306 179 L297 160 L292 160 L290 175 L276 186 L272 180 L288 162 L289 147 L278 125 L278 115 L270 122 L266 104 L275 93 L276 81 L268 69 L259 17 Z M431 474 L433 469 L455 469 L456 470 L452 483 L441 480 L435 480 Z M56 470 L57 469 L80 469 L81 477 L78 480 L67 481 L61 484 Z M427 456 L428 455 L446 455 L448 457 L450 455 L462 455 L463 462 L460 464 L431 464 L427 462 Z M90 456 L422 455 L423 462 L420 464 L93 464 L90 462 Z M49 456 L59 455 L61 457 L65 457 L67 455 L83 455 L84 462 L81 464 L52 464 L49 462 Z M38 441 L40 440 L41 442 L39 443 Z M272 438 L278 435 L279 433 L284 433 L293 443 L291 445 L283 444 L284 449 L277 450 Z M229 433 L232 433 L237 437 L241 438 L236 450 L230 450 L229 444 L222 445 L220 443 L224 437 Z M269 426 L274 430 L271 437 L266 435 L266 429 Z M243 426 L248 430 L247 434 L244 437 L241 436 L241 433 L239 431 Z M184 424 L185 426 L181 430 L180 427 L182 424 Z M256 399 L258 400 L263 411 L265 412 L266 419 L260 428 L260 436 L262 439 L269 443 L270 446 L269 450 L244 450 L243 449 L244 443 L247 442 L252 437 L253 434 L253 428 L251 424 L248 423 L247 415 L248 411 L250 410 L250 408 L252 407 Z M355 399 L360 404 L360 407 L357 408 L352 413 L347 408 L342 409 L337 418 L337 423 L340 429 L338 430 L336 428 L334 422 L330 422 L330 424 L332 425 L332 428 L330 429 L326 422 L325 410 L330 409 L333 404 L341 398 Z M153 404 L160 398 L171 398 L176 400 L180 404 L181 408 L186 409 L188 412 L188 418 L186 423 L184 424 L183 422 L179 421 L178 426 L176 427 L175 426 L176 419 L172 410 L166 408 L164 409 L164 412 L161 413 L156 408 L153 407 Z M73 393 L75 393 L78 396 L78 398 L86 408 L86 412 L76 423 L72 422 L74 417 L73 407 L71 403 Z M438 391 L440 392 L441 395 L441 406 L439 409 L439 418 L441 421 L440 423 L437 423 L427 412 L428 406 L434 399 Z M283 404 L288 403 L289 391 L292 388 L293 392 L297 397 L297 407 L300 414 L315 428 L326 433 L330 433 L334 431 L343 438 L351 440 L353 442 L358 442 L360 440 L360 432 L362 431 L363 427 L369 423 L377 423 L384 428 L385 436 L383 437 L381 433 L378 432 L373 433 L370 436 L370 445 L372 449 L360 450 L358 448 L339 443 L335 440 L325 437 L314 430 L310 429 L308 426 L299 421 Z M224 391 L225 403 L228 403 L229 406 L210 424 L208 424 L203 429 L199 430 L188 437 L177 440 L174 443 L155 448 L153 450 L141 450 L140 448 L143 445 L143 436 L139 432 L133 432 L130 437 L128 436 L129 428 L135 423 L146 424 L153 432 L153 440 L155 442 L160 442 L162 440 L170 438 L179 430 L183 433 L192 431 L202 425 L211 416 L216 407 L215 398 L221 388 Z M382 385 L387 388 L394 396 L397 403 L399 404 L405 419 L412 429 L421 438 L432 445 L431 447 L420 442 L417 438 L415 438 L410 433 L410 431 L402 421 L399 413 L397 412 L397 409 L392 398 L386 391 L383 390 L381 387 Z M376 384 L378 383 L379 385 L377 386 Z M134 384 L136 383 L137 385 L135 386 Z M372 382 L374 381 L375 383 L373 384 Z M366 375 L370 377 L371 381 L370 383 L364 382 L364 378 Z M147 375 L149 382 L139 384 L138 382 L142 381 L143 377 Z M364 367 L366 366 L367 369 L365 370 Z M146 366 L148 365 L149 368 L147 369 Z M363 361 L365 360 L366 362 L364 363 Z M150 357 L151 359 L148 362 L147 360 Z M416 356 L420 364 L420 376 L416 383 L416 386 L413 387 L409 382 L409 380 L403 375 L403 373 L411 363 L412 359 Z M97 356 L101 359 L103 365 L110 373 L110 375 L104 380 L104 382 L99 387 L97 386 L97 383 L94 380 L93 373 L91 371 L94 360 Z M481 351 L486 367 L485 376 L482 382 L476 387 L476 390 L470 392 L467 397 L468 406 L476 413 L479 420 L479 433 L476 441 L473 443 L472 438 L470 438 L468 443 L464 447 L455 451 L436 450 L432 447 L433 445 L439 447 L453 447 L458 445 L465 437 L464 420 L462 417 L458 416 L460 412 L456 407 L456 398 L469 378 L475 375 L479 352 Z M154 350 L155 352 L151 356 L150 353 L152 350 Z M32 350 L34 351 L34 359 L38 369 L38 375 L44 378 L56 396 L57 406 L53 412 L53 416 L49 420 L48 437 L57 446 L73 447 L83 444 L93 437 L108 419 L114 404 L121 393 L130 385 L132 386 L130 390 L127 391 L121 398 L109 424 L93 442 L78 448 L77 450 L57 451 L49 447 L43 438 L36 438 L34 433 L34 420 L37 413 L45 406 L46 398 L44 393 L38 391 L37 387 L28 377 L27 365 Z M359 349 L363 353 L365 358 L364 360 L362 359 L358 352 Z M153 348 L155 347 L156 349 L154 350 Z M173 448 L188 443 L209 431 L237 404 L246 385 L246 371 L251 357 L252 343 L260 342 L263 362 L266 367 L267 386 L270 395 L284 415 L313 437 L338 449 L296 450 L295 448 L302 439 L295 437 L287 429 L279 429 L275 423 L270 421 L269 409 L257 386 L254 387 L252 396 L243 410 L243 421 L238 423 L234 429 L223 430 L218 437 L211 439 L211 442 L217 448 L216 450 L174 450 Z M159 342 L160 344 L156 347 L155 345 Z M352 342 L354 341 L359 348 L357 349 Z M164 336 L165 338 L160 342 L159 340 Z M169 330 L170 332 L165 336 L164 334 Z M251 334 L257 329 L262 335 L258 337 L254 337 Z M340 328 L342 327 L352 339 L350 340 Z M335 322 L338 321 L341 324 L341 326 L339 327 Z M391 320 L396 332 L396 339 L392 348 L392 351 L386 354 L378 338 L386 328 L388 321 Z M122 320 L125 322 L125 325 L128 330 L135 338 L127 354 L121 351 L121 347 L118 344 L117 340 L117 331 Z M306 317 L310 322 L312 331 L311 335 L305 341 L305 344 L313 343 L325 347 L335 358 L336 372 L334 377 L327 383 L316 383 L311 376 L312 369 L316 366 L318 366 L321 371 L325 369 L325 361 L323 357 L313 349 L295 350 L283 361 L278 372 L278 389 L282 399 L280 400 L275 392 L273 384 L271 383 L271 374 L277 357 L299 332 L300 328 L303 325 L304 318 Z M207 317 L209 318 L211 328 L213 329 L215 334 L235 356 L240 368 L240 373 L242 374 L239 389 L233 400 L231 400 L230 398 L233 389 L235 388 L235 373 L229 360 L219 351 L215 349 L200 349 L190 357 L187 364 L188 369 L192 371 L193 368 L197 366 L201 369 L202 372 L201 378 L197 383 L185 383 L179 377 L177 372 L178 358 L185 349 L194 344 L208 344 L208 341 L202 337 L201 332 L202 324 Z M184 311 L185 312 L184 315 L181 317 L181 319 L177 324 L171 329 L170 327 L172 324 L175 322 L175 320 L178 318 L179 315 Z M256 291 L259 293 L263 301 L263 310 L269 312 L269 320 L265 327 L262 327 L257 321 L255 321 L250 327 L248 327 L245 324 L244 312 L250 310 L249 304 L251 298 Z M312 289 L315 290 L315 292 L318 294 L318 296 L333 314 L336 319 L335 321 L329 316 L329 314 L311 292 Z M365 285 L370 293 L371 302 L369 309 L366 311 L366 315 L362 318 L351 303 L352 300 L356 297 L356 295 L362 288 L362 286 Z M148 285 L151 287 L155 295 L161 301 L161 305 L151 318 L147 315 L147 311 L143 308 L142 303 L143 293 Z M257 253 L265 269 L265 284 L272 283 L280 296 L277 306 L282 308 L281 316 L277 321 L275 320 L273 305 L269 303 L268 298 L262 290 L259 282 L256 281 L254 282 L252 288 L245 297 L244 303 L240 305 L238 312 L239 321 L236 322 L231 315 L231 308 L236 306 L236 303 L233 301 L233 296 L241 283 L248 284 L247 272 L255 254 Z M174 250 L176 251 L178 257 L181 260 L181 262 L185 265 L186 271 L177 283 L173 281 L173 277 L169 272 L168 266 L170 255 Z M339 248 L344 258 L344 271 L340 277 L340 281 L336 283 L326 269 L329 263 L334 259 L337 249 Z M93 448 L111 431 L135 392 L156 387 L157 357 L213 286 L257 216 L292 275 L355 356 L359 367 L357 387 L378 392 L402 431 L420 449 L388 450 L376 445 L376 437 L381 442 L394 439 L381 418 L367 418 L358 424 L354 436 L349 433 L343 417 L353 422 L367 411 L356 393 L342 392 L321 401 L317 423 L303 407 L299 376 L283 385 L285 367 L295 356 L310 354 L319 360 L306 369 L307 381 L316 388 L332 386 L341 375 L342 363 L334 347 L315 338 L315 321 L302 306 L295 328 L268 358 L268 333 L284 321 L288 303 L276 277 L270 275 L257 240 L243 275 L237 277 L225 302 L231 325 L245 333 L245 358 L217 327 L211 306 L198 321 L196 338 L179 347 L171 362 L173 379 L184 388 L196 388 L206 381 L207 369 L194 360 L203 354 L219 357 L229 371 L229 386 L214 377 L209 410 L196 423 L191 400 L170 392 L157 393 L144 409 L159 422 L170 417 L169 427 L161 435 L149 420 L136 417 L125 424 L119 437 L124 442 L137 437 L135 446 L125 450 Z M196 213 L199 214 L201 220 L209 229 L210 232 L205 242 L200 247 L196 244 L191 233 L191 224 Z M316 212 L321 220 L322 233 L317 244 L314 247 L312 247 L308 243 L303 232 L306 226 L312 220 L314 213 Z M257 196 L263 209 L267 213 L270 221 L283 241 L284 245 L287 247 L288 251 L298 265 L298 267 L303 272 L303 274 L312 286 L312 289 L310 290 L303 279 L295 269 L295 267 L291 263 L291 261 L286 255 L281 245 L278 243 L273 231 L270 229 L260 209 L257 207 L254 207 L244 227 L240 231 L239 235 L235 240 L235 242 L233 243 L233 245 L231 246 L231 248 L225 256 L222 263 L217 268 L217 270 L207 283 L205 288 L201 291 L201 293 L191 306 L185 311 L184 309 L194 297 L196 292 L200 289 L200 287 L206 280 L210 272 L215 267 L215 265 L223 254 L224 250 L229 245 L230 241 L245 217 L247 211 L250 209 L255 197 Z M298 175 L300 181 L302 182 L303 189 L302 194 L295 202 L294 206 L288 207 L282 197 L282 191 L293 180 L295 176 Z M215 175 L217 175 L223 185 L225 185 L231 191 L231 197 L224 207 L219 206 L218 202 L211 195 L210 186 L211 181 L213 180 Z M52 432 L78 428 L93 411 L109 383 L129 369 L142 337 L200 260 L257 164 L323 276 L372 339 L382 367 L404 383 L424 417 L435 428 L444 432 L460 431 L461 436 L453 443 L440 443 L427 437 L413 423 L395 390 L385 381 L370 377 L371 362 L365 348 L307 272 L257 188 L206 272 L147 349 L142 361 L143 377 L128 381 L118 390 L100 423 L86 437 L73 443 L60 443 L53 438 Z M237 134 L239 135 L238 140 L239 153 L246 163 L249 164 L249 166 L245 171 L242 171 L236 168 L232 164 L229 156 L230 145 L233 138 Z M275 131 L278 138 L282 143 L284 155 L283 160 L277 168 L268 171 L264 166 L264 164 L267 163 L274 153 L275 140 L273 132 Z M237 132 L239 131 L240 133 L238 134 Z M256 95 L258 96 L263 124 L266 128 L269 139 L268 153 L262 159 L257 155 L251 159 L246 155 L244 150 L244 138 L248 125 L251 120 L253 104 Z M256 37 L258 38 L263 61 L262 75 L267 76 L270 80 L270 90 L267 96 L264 98 L262 97 L261 90 L257 84 L253 87 L249 98 L245 95 L243 90 L243 79 L246 76 L251 75 L250 59 Z"/></svg>
