<svg xmlns="http://www.w3.org/2000/svg" width="512" height="512" viewBox="0 0 512 512" aria-hidden="true" focusable="false"><path fill="currentColor" fill-rule="evenodd" clip-rule="evenodd" d="M464 359 L409 352 L332 326 L288 299 L256 264 L225 299 L181 326 L124 347 L79 357 L47 359 L46 362 L104 362 L152 352 L216 325 L256 298 L308 331 L357 351 L422 363 L464 362 Z M18 321 L20 337 L35 347 L67 349 L110 342 L171 320 L201 304 L233 280 L257 253 L280 280 L334 316 L390 338 L425 347 L463 349 L485 344 L495 332 L490 309 L464 271 L468 246 L450 264 L445 296 L459 327 L462 304 L471 306 L477 325 L470 334 L447 334 L402 320 L362 302 L322 276 L271 220 L273 150 L257 192 L240 150 L242 221 L218 253 L180 286 L102 325 L62 335 L43 334 L36 326 L38 313 L49 302 L54 327 L68 296 L63 264 L44 245 L50 259 L49 271 Z"/></svg>
