<svg xmlns="http://www.w3.org/2000/svg" width="512" height="512" viewBox="0 0 512 512" aria-hidden="true" focusable="false"><path fill="currentColor" fill-rule="evenodd" clip-rule="evenodd" d="M257 314 L254 325 L246 340 L246 348 L252 349 L254 351 L254 354 L257 357 L259 357 L260 354 L262 353 L262 350 L267 349 L270 344 L268 342 L266 334 L264 333 L262 324 L260 322 L259 314 Z M256 339 L259 340 L258 345 L255 344 Z M348 313 L334 325 L332 336 L319 340 L307 357 L318 370 L332 375 L333 384 L340 392 L352 398 L367 385 L369 374 L377 374 L389 363 L393 353 L380 339 L369 337 L366 324 L356 315 Z M350 358 L354 359 L354 362 L359 369 L360 376 L362 377 L360 383 L353 391 L349 391 L344 388 L340 382 L340 374 L343 366 L347 361 L349 362 L349 365 L347 366 L347 369 L343 376 L343 381 L349 385 L353 385 L353 383 L358 380 L358 377 L355 373 L353 365 L351 364 L351 362 L348 361 Z M353 356 L355 355 L357 358 L354 359 Z M344 354 L346 353 L347 356 L345 357 Z M347 350 L351 349 L352 352 L348 353 Z M357 352 L360 349 L368 345 L377 345 L384 351 L386 356 L385 359 L378 366 L369 366 L365 365 L364 363 L359 361 L357 358 L359 357 L366 359 L367 361 L370 362 L376 362 L376 359 L381 357 L381 354 L377 352 L377 349 L374 348 L368 349 L360 354 L358 354 Z M315 354 L324 345 L333 345 L344 352 L342 354 L335 352 L334 350 L329 348 L324 349 L324 352 L320 354 L320 357 L324 359 L324 362 L332 362 L340 357 L343 358 L340 362 L332 366 L321 365 L315 357 Z M361 331 L362 334 L360 335 L359 342 L355 348 L352 350 L351 348 L353 346 L355 338 L358 332 Z M351 319 L359 325 L360 330 L357 331 L356 328 L354 328 L350 324 L347 328 L343 330 L343 335 L345 337 L347 344 L349 345 L349 348 L347 349 L342 343 L340 337 L340 329 L344 323 Z M165 311 L147 326 L146 336 L133 340 L121 355 L133 371 L146 375 L146 383 L162 398 L173 393 L183 382 L183 375 L195 371 L207 357 L206 352 L194 339 L183 336 L181 326 Z M163 377 L165 376 L166 378 L164 379 Z M161 361 L163 362 L163 365 L158 374 L159 382 L161 382 L163 385 L166 385 L168 382 L171 381 L171 374 L166 365 L167 362 L169 363 L173 369 L173 372 L175 373 L175 382 L165 392 L162 391 L154 382 L154 373 Z M162 360 L164 358 L167 359 L166 362 L163 362 Z M185 355 L187 354 L188 356 L186 357 Z M141 355 L143 354 L144 356 L142 357 Z M167 354 L170 353 L171 357 L168 358 Z M158 354 L161 353 L162 356 L159 358 Z M162 350 L166 349 L167 352 L163 353 Z M170 352 L181 345 L192 345 L199 352 L201 356 L198 358 L198 360 L193 365 L182 366 L174 362 L172 358 L174 357 L184 362 L190 362 L190 359 L195 357 L196 355 L194 353 L191 353 L189 348 L185 348 L173 354 L171 354 Z M128 355 L137 345 L148 345 L149 347 L158 351 L158 353 L156 354 L146 349 L140 348 L138 352 L134 354 L134 356 L138 359 L138 362 L145 362 L155 357 L157 358 L156 361 L154 361 L147 366 L136 365 Z M163 333 L165 332 L166 334 L164 335 Z M164 319 L168 321 L175 328 L175 338 L173 339 L171 346 L169 348 L167 348 L166 346 L171 336 L171 330 L168 330 L165 324 L162 326 L161 330 L158 330 L159 340 L163 346 L162 348 L158 346 L154 338 L154 328 Z M307 301 L301 299 L302 295 L299 292 L294 292 L279 300 L269 302 L268 305 L274 306 L275 308 L282 309 L292 315 L301 315 L302 310 L308 306 Z M292 304 L296 303 L297 305 L293 306 Z M206 303 L206 305 L209 308 L214 310 L215 315 L223 315 L236 308 L246 305 L245 302 L235 300 L221 292 L214 293 L214 299 Z M217 304 L222 303 L223 305 L218 306 Z M255 252 L254 256 L252 258 L249 258 L246 261 L246 269 L249 272 L251 279 L253 280 L256 293 L259 293 L260 286 L262 284 L264 276 L266 275 L270 262 L266 258 L263 258 L259 252 Z M257 263 L259 264 L258 270 L255 268 L255 265 Z M257 230 L232 251 L228 273 L210 275 L185 305 L205 330 L227 334 L230 355 L259 378 L285 354 L288 335 L308 331 L327 310 L329 301 L311 279 L289 274 L284 252 Z M261 308 L263 314 L271 324 L273 332 L275 333 L276 348 L272 356 L262 365 L257 367 L242 355 L238 341 L240 340 L240 334 L247 319 L256 308 Z M260 306 L262 305 L262 302 L273 293 L288 286 L305 287 L319 303 L314 313 L306 321 L300 323 L284 321 L270 313 L268 310 L261 308 Z M196 303 L201 295 L213 286 L226 286 L240 292 L248 299 L253 301 L254 305 L239 317 L232 319 L231 321 L214 323 L203 316 Z M259 241 L275 257 L276 272 L262 298 L255 301 L241 277 L238 263 L240 262 L241 255 L244 253 L244 251 L253 243 Z M495 382 L476 331 L452 310 L450 292 L442 301 L442 314 L460 341 L453 340 L413 308 L341 236 L292 174 L257 115 L223 175 L181 228 L96 313 L68 336 L55 341 L55 335 L72 317 L72 300 L66 293 L62 312 L38 333 L18 385 L84 348 L150 293 L215 225 L257 162 L290 212 L348 277 L407 330 L481 380 L425 352 L353 296 L299 241 L257 186 L219 237 L147 309 L104 343 L31 385 L80 365 L138 325 L201 267 L257 198 L306 258 L381 328 L453 374 L479 384 L482 379 Z"/></svg>
