<svg xmlns="http://www.w3.org/2000/svg" width="512" height="512" viewBox="0 0 512 512" aria-hidden="true" focusable="false"><path fill="currentColor" fill-rule="evenodd" clip-rule="evenodd" d="M256 296 L240 316 L239 329 L225 331 L207 347 L225 365 L238 367 L240 380 L255 398 L272 380 L275 366 L282 367 L290 363 L305 349 L287 331 L274 329 L273 317 Z M256 360 L258 361 L259 364 L257 370 L254 369 L254 362 Z M248 360 L250 361 L249 369 L256 379 L263 370 L264 361 L267 363 L270 368 L270 373 L257 389 L247 380 L247 376 L245 376 L242 372 L242 369 Z M242 354 L245 353 L246 355 L243 356 Z M234 346 L240 345 L243 346 L244 349 L235 350 Z M269 347 L274 344 L278 346 L278 349 L270 350 Z M255 342 L259 343 L262 346 L262 349 L258 353 L254 353 L250 349 L250 346 Z M275 334 L282 334 L284 337 L290 339 L291 342 L296 346 L296 349 L288 358 L285 358 L283 361 L276 361 L271 359 L267 355 L268 353 L270 353 L271 355 L278 355 L285 349 L287 349 L287 347 L284 346 L280 341 L270 341 L269 340 Z M231 334 L237 334 L245 340 L244 342 L233 341 L226 347 L234 355 L243 356 L241 359 L237 361 L230 361 L229 358 L225 358 L216 349 L216 346 L224 338 L228 338 Z M255 326 L258 327 L257 335 L254 333 Z M255 306 L257 306 L264 313 L264 315 L266 316 L266 319 L269 320 L270 327 L266 334 L263 333 L263 325 L257 317 L255 317 L254 320 L250 323 L248 333 L243 330 L242 324 L246 320 L247 315 L254 309 Z M76 378 L78 380 L120 355 L148 333 L182 300 L220 254 L236 230 L242 216 L247 210 L251 198 L257 190 L267 212 L292 253 L325 294 L356 325 L394 356 L417 371 L439 381 L439 379 L421 370 L379 339 L360 323 L322 283 L300 256 L284 232 L266 198 L257 172 L255 172 L247 198 L228 233 L212 257 L178 298 L145 330 L115 354 Z M17 354 L19 374 L31 388 L66 393 L105 380 L149 351 L149 369 L156 382 L171 392 L193 395 L205 387 L205 381 L198 374 L189 383 L182 379 L181 367 L188 365 L186 351 L215 376 L215 395 L222 389 L222 377 L204 360 L201 339 L223 313 L231 315 L231 301 L235 296 L241 299 L242 286 L257 270 L271 287 L272 299 L279 297 L282 316 L290 313 L311 337 L309 359 L290 378 L291 390 L297 395 L298 375 L326 352 L324 365 L332 368 L331 378 L323 382 L319 375 L312 375 L307 382 L308 388 L320 395 L351 387 L362 374 L364 352 L411 382 L447 393 L479 389 L495 369 L494 348 L472 328 L469 304 L457 320 L459 332 L453 351 L462 361 L465 353 L475 355 L477 362 L469 372 L461 373 L417 348 L347 283 L308 234 L285 196 L268 159 L257 114 L245 158 L219 212 L156 293 L97 347 L51 373 L36 364 L37 355 L43 357 L47 352 L51 361 L59 352 L53 332 L55 319 L43 304 L43 323 L23 341 Z M462 324 L464 323 L465 325 L463 326 Z M155 355 L164 338 L212 286 L257 225 L300 285 L351 341 L358 365 L350 380 L340 387 L328 388 L338 376 L330 337 L322 331 L324 345 L317 355 L317 340 L312 326 L288 303 L257 254 L224 303 L201 325 L196 336 L196 356 L189 347 L190 331 L183 336 L180 358 L174 369 L175 378 L183 389 L173 387 L159 377 Z M23 354 L28 343 L48 327 L46 339 L52 340 L55 349 L34 349 L31 366 L40 376 L57 377 L85 363 L133 324 L204 245 L237 191 L257 142 L273 185 L307 243 L371 316 L447 374 L470 377 L481 366 L478 349 L459 349 L461 340 L466 339 L464 327 L486 345 L490 364 L483 379 L459 389 L425 382 L392 365 L358 339 L316 296 L276 243 L257 209 L195 298 L150 343 L119 366 L85 383 L53 389 L28 378 Z"/></svg>
