<svg xmlns="http://www.w3.org/2000/svg" width="512" height="512" viewBox="0 0 512 512" aria-hidden="true" focusable="false"><path fill="currentColor" fill-rule="evenodd" clip-rule="evenodd" d="M461 373 L441 370 L414 360 L384 343 L370 329 L354 347 L337 361 L303 380 L283 387 L283 389 L299 388 L332 381 L359 371 L370 364 L391 371 L417 375 L438 375 L441 377 L443 375 L461 375 Z M337 372 L339 369 L353 361 L370 347 L374 348 L380 353 L397 362 L413 368 L412 370 L400 368 L398 366 L391 365 L380 361 L377 358 L370 355 L367 358 L365 358 L362 362 L360 362 L351 368 L339 373 Z M17 354 L18 362 L30 369 L67 365 L106 352 L146 323 L178 354 L228 386 L188 368 L160 347 L145 329 L98 361 L52 375 L104 374 L144 364 L179 380 L222 389 L232 386 L253 397 L324 362 L370 322 L395 344 L432 361 L462 368 L484 367 L495 358 L493 348 L477 327 L479 311 L468 322 L466 337 L471 353 L479 343 L484 356 L469 361 L439 352 L408 335 L385 315 L369 290 L363 269 L347 303 L331 322 L285 234 L266 171 L256 116 L219 248 L181 320 L164 300 L151 269 L135 309 L106 336 L76 352 L33 361 L28 350 L35 343 L36 355 L40 354 L45 340 L43 324 L34 314 L35 328 Z M196 350 L198 349 L199 351 L197 352 Z M318 347 L319 349 L314 352 L313 350 Z M103 367 L119 361 L122 358 L144 347 L153 355 L159 358 L161 361 L163 361 L177 370 L178 372 L175 373 L170 370 L167 370 L153 361 L149 360 L144 355 L142 355 L131 362 L115 366 L113 368 L104 369 Z M360 303 L361 310 L356 320 L342 334 L334 340 L332 340 L327 345 L320 348 L319 346 L335 332 L338 331 L340 327 L349 319 L349 317 L358 304 Z M153 303 L155 304 L165 319 L165 321 L193 346 L192 348 L184 344 L179 339 L177 339 L159 323 L152 312 Z M255 243 L276 310 L296 348 L295 351 L258 366 L241 362 L215 349 L236 305 Z M262 216 L264 217 L267 229 L270 233 L275 249 L279 255 L291 285 L295 289 L297 295 L309 314 L322 329 L318 335 L306 344 L302 342 L284 301 L281 288 L275 274 L270 252 L268 250 L261 220 Z M248 216 L249 219 L244 243 L241 248 L238 264 L234 272 L227 298 L224 302 L213 332 L208 341 L205 343 L191 332 L189 328 L203 311 L214 293 L230 260 L234 247 L236 246 L242 226 L246 217 Z M247 213 L249 212 L250 215 L248 216 Z M259 210 L261 209 L262 212 L260 213 Z M258 207 L260 206 L261 208 L259 209 Z"/></svg>
