<svg xmlns="http://www.w3.org/2000/svg" width="512" height="512" viewBox="0 0 512 512" aria-hidden="true" focusable="false"><path fill="currentColor" fill-rule="evenodd" clip-rule="evenodd" d="M285 311 L281 308 L281 305 L276 305 L271 307 L270 309 L265 310 L264 313 L269 314 L279 319 L281 315 L285 313 Z M255 270 L238 284 L236 293 L227 294 L221 300 L214 313 L226 329 L236 331 L237 339 L257 354 L275 339 L276 331 L282 331 L289 326 L298 311 L286 295 L276 293 L274 284 Z M253 318 L255 320 L249 331 L249 337 L253 337 L255 341 L257 341 L258 338 L263 335 L261 326 L259 325 L257 320 L258 318 L262 321 L266 331 L265 341 L257 346 L250 344 L246 340 L247 327 Z M254 316 L257 315 L258 318 L255 319 Z M249 313 L251 312 L252 314 L250 315 Z M260 310 L270 304 L276 302 L283 302 L289 307 L290 313 L288 318 L285 321 L278 322 L261 315 Z M222 309 L228 302 L236 302 L252 310 L250 312 L245 309 L242 309 L239 306 L231 305 L231 309 L227 311 L227 313 L231 315 L231 319 L237 318 L247 313 L249 314 L246 318 L234 322 L227 321 L223 317 Z M255 278 L262 280 L266 286 L266 292 L264 299 L259 306 L257 304 L259 298 L261 297 L263 287 L259 287 L257 283 L255 283 L253 287 L249 287 L250 295 L253 298 L255 303 L254 306 L250 303 L246 293 L246 284 L250 280 Z M17 323 L19 343 L39 362 L69 364 L102 356 L188 320 L223 288 L257 243 L307 306 L354 336 L381 341 L399 352 L443 364 L473 362 L486 354 L495 338 L495 323 L476 298 L478 276 L467 287 L466 309 L454 317 L460 334 L468 336 L472 330 L479 334 L479 342 L472 349 L446 352 L407 337 L404 333 L411 319 L399 300 L401 285 L392 293 L392 306 L385 309 L385 319 L379 318 L332 272 L301 232 L257 149 L203 243 L172 281 L133 318 L127 319 L128 310 L121 306 L121 295 L112 286 L114 298 L102 317 L108 334 L66 352 L46 352 L35 345 L33 334 L40 330 L50 336 L58 316 L46 309 L48 294 L34 276 L36 299 Z M390 324 L397 320 L400 323 L400 326 L398 329 L395 329 Z M115 320 L122 324 L117 329 L114 329 L112 326 L112 323 Z M170 314 L171 316 L165 320 L164 318 Z M340 314 L342 313 L348 319 L346 320 Z M171 313 L196 289 L213 270 L217 263 L221 260 L221 258 L228 250 L234 239 L239 234 L255 204 L258 205 L275 237 L278 239 L278 241 L291 258 L291 260 L295 263 L299 270 L316 289 L340 312 L338 314 L301 279 L287 262 L287 260 L284 258 L269 236 L257 211 L255 211 L246 231 L235 247 L235 249 L231 252 L229 257 L225 260 L225 262 L218 271 L185 305 L173 315 Z"/></svg>
