<svg xmlns="http://www.w3.org/2000/svg" width="512" height="512" viewBox="0 0 512 512" aria-hidden="true" focusable="false"><path fill="currentColor" fill-rule="evenodd" clip-rule="evenodd" d="M380 366 L345 342 L313 310 L286 273 L256 214 L229 271 L202 308 L172 339 L130 370 L202 347 L256 310 L317 349 L380 369 Z M312 334 L314 333 L317 336 L314 337 Z M313 332 L312 334 L308 333 L286 317 L269 300 L256 282 L243 303 L230 316 L201 336 L197 336 L228 305 L239 288 L242 286 L250 271 L253 269 L256 261 L284 302 Z M17 349 L24 368 L50 383 L82 379 L120 362 L190 301 L228 248 L257 192 L281 240 L313 287 L352 329 L387 357 L429 378 L464 383 L483 375 L496 356 L496 344 L477 314 L479 295 L466 309 L466 327 L455 333 L461 353 L474 349 L479 352 L479 360 L469 368 L433 363 L385 332 L337 282 L311 246 L276 183 L257 130 L233 193 L207 240 L170 290 L130 331 L79 364 L44 368 L36 362 L36 350 L53 353 L60 334 L57 328 L48 327 L50 314 L35 295 L37 314 Z"/></svg>
