<svg xmlns="http://www.w3.org/2000/svg" width="512" height="512" viewBox="0 0 512 512" aria-hidden="true" focusable="false"><path fill="currentColor" fill-rule="evenodd" clip-rule="evenodd" d="M127 372 L127 375 L153 374 L202 362 L258 328 L309 361 L361 374 L387 374 L311 324 L278 289 L257 246 L240 282 L205 322 L159 356 Z M188 353 L197 348 L221 328 L223 328 L240 311 L240 309 L255 290 L258 289 L268 304 L288 325 L325 354 L319 354 L318 352 L305 347 L304 345 L286 335 L276 325 L274 325 L258 307 L255 307 L236 328 L219 341 L195 354 L189 355 Z M17 339 L24 363 L55 375 L97 369 L146 348 L178 329 L214 297 L240 258 L257 217 L290 285 L319 316 L354 341 L396 362 L448 375 L481 368 L495 350 L494 332 L471 288 L478 261 L463 273 L452 299 L464 345 L468 319 L478 333 L478 348 L469 356 L432 351 L449 339 L451 323 L428 288 L430 264 L416 277 L410 303 L422 324 L427 325 L425 309 L436 317 L438 331 L433 336 L416 337 L387 329 L343 301 L318 275 L292 236 L272 192 L257 138 L240 195 L215 247 L189 282 L163 307 L108 335 L78 335 L74 329 L77 316 L87 309 L85 325 L89 325 L102 305 L101 286 L82 264 L85 287 L61 324 L64 340 L81 351 L59 357 L40 355 L34 347 L35 331 L44 319 L45 343 L49 343 L60 314 L60 296 L50 274 L34 261 L41 275 L40 294 Z"/></svg>
